<?xml version="1.0" encoding="utf-8" standalone="no"?>
<!DOCTYPE svg PUBLIC "-//W3C//DTD SVG 1.1//EN"
  "http://www.w3.org/Graphics/SVG/1.1/DTD/svg11.dtd">
<!-- Created with matplotlib (https://matplotlib.org/) -->
<svg height="720pt" version="1.1" viewBox="0 0 1152 720" width="1152pt" xmlns="http://www.w3.org/2000/svg" xmlns:xlink="http://www.w3.org/1999/xlink">
 <defs>
  <style type="text/css">
*{stroke-linecap:butt;stroke-linejoin:round;}
  </style>
 </defs>
 <g id="figure_1">
  <g id="patch_1">
   <path d="M 0 720 
L 1152 720 
L 1152 0 
L 0 0 
z
" style="fill:#ffffff;"/>
  </g>
  <g id="axes_1">
   <g id="patch_2">
    <path d="M 79.19 299.967273 
L 566.28 299.967273 
L 566.28 75.44 
L 79.19 75.44 
z
" style="fill:#ffffff;"/>
   </g>
   <g id="matplotlib.axis_1">
    <g id="xtick_1">
     <g id="line2d_1">
      <defs>
       <path d="M 0 0 
L 0 9 
" id="m99b8542751" style="stroke:#000000;stroke-width:1.875;"/>
      </defs>
      <g>
       <use style="stroke:#000000;stroke-width:1.875;" x="100.90833" xlink:href="#m99b8542751" y="299.967273"/>
      </g>
     </g>
     <g id="text_1">
      <!-- 0 -->
      <defs>
       <path d="M 31.78125 66.40625 
Q 24.171875 66.40625 20.328125 58.90625 
Q 16.5 51.421875 16.5 36.375 
Q 16.5 21.390625 20.328125 13.890625 
Q 24.171875 6.390625 31.78125 6.390625 
Q 39.453125 6.390625 43.28125 13.890625 
Q 47.125 21.390625 47.125 36.375 
Q 47.125 51.421875 43.28125 58.90625 
Q 39.453125 66.40625 31.78125 66.40625 
z
M 31.78125 74.21875 
Q 44.046875 74.21875 50.515625 64.515625 
Q 56.984375 54.828125 56.984375 36.375 
Q 56.984375 17.96875 50.515625 8.265625 
Q 44.046875 -1.421875 31.78125 -1.421875 
Q 19.53125 -1.421875 13.0625 8.265625 
Q 6.59375 17.96875 6.59375 36.375 
Q 6.59375 54.828125 13.0625 64.515625 
Q 19.53125 74.21875 31.78125 74.21875 
z
" id="DejaVuSans-48"/>
      </defs>
      <g transform="translate(95.659267 325.004695)scale(0.165 -0.165)">
       <use xlink:href="#DejaVuSans-48"/>
      </g>
     </g>
    </g>
    <g id="xtick_2">
     <g id="line2d_2">
      <g>
       <use style="stroke:#000000;stroke-width:1.875;" x="185.333323" xlink:href="#m99b8542751" y="299.967273"/>
      </g>
     </g>
     <g id="text_2">
      <!-- 200 -->
      <defs>
       <path d="M 19.1875 8.296875 
L 53.609375 8.296875 
L 53.609375 0 
L 7.328125 0 
L 7.328125 8.296875 
Q 12.9375 14.109375 22.625 23.890625 
Q 32.328125 33.6875 34.8125 36.53125 
Q 39.546875 41.84375 41.421875 45.53125 
Q 43.3125 49.21875 43.3125 52.78125 
Q 43.3125 58.59375 39.234375 62.25 
Q 35.15625 65.921875 28.609375 65.921875 
Q 23.96875 65.921875 18.8125 64.3125 
Q 13.671875 62.703125 7.8125 59.421875 
L 7.8125 69.390625 
Q 13.765625 71.78125 18.9375 73 
Q 24.125 74.21875 28.421875 74.21875 
Q 39.75 74.21875 46.484375 68.546875 
Q 53.21875 62.890625 53.21875 53.421875 
Q 53.21875 48.921875 51.53125 44.890625 
Q 49.859375 40.875 45.40625 35.40625 
Q 44.1875 33.984375 37.640625 27.21875 
Q 31.109375 20.453125 19.1875 8.296875 
z
" id="DejaVuSans-50"/>
      </defs>
      <g transform="translate(169.586136 325.004695)scale(0.165 -0.165)">
       <use xlink:href="#DejaVuSans-50"/>
       <use x="63.623047" xlink:href="#DejaVuSans-48"/>
       <use x="127.246094" xlink:href="#DejaVuSans-48"/>
      </g>
     </g>
    </g>
    <g id="xtick_3">
     <g id="line2d_3">
      <g>
       <use style="stroke:#000000;stroke-width:1.875;" x="269.758317" xlink:href="#m99b8542751" y="299.967273"/>
      </g>
     </g>
     <g id="text_3">
      <!-- 400 -->
      <defs>
       <path d="M 37.796875 64.3125 
L 12.890625 25.390625 
L 37.796875 25.390625 
z
M 35.203125 72.90625 
L 47.609375 72.90625 
L 47.609375 25.390625 
L 58.015625 25.390625 
L 58.015625 17.1875 
L 47.609375 17.1875 
L 47.609375 0 
L 37.796875 0 
L 37.796875 17.1875 
L 4.890625 17.1875 
L 4.890625 26.703125 
z
" id="DejaVuSans-52"/>
      </defs>
      <g transform="translate(254.011129 325.004695)scale(0.165 -0.165)">
       <use xlink:href="#DejaVuSans-52"/>
       <use x="63.623047" xlink:href="#DejaVuSans-48"/>
       <use x="127.246094" xlink:href="#DejaVuSans-48"/>
      </g>
     </g>
    </g>
    <g id="xtick_4">
     <g id="line2d_4">
      <g>
       <use style="stroke:#000000;stroke-width:1.875;" x="354.18331" xlink:href="#m99b8542751" y="299.967273"/>
      </g>
     </g>
     <g id="text_4">
      <!-- 600 -->
      <defs>
       <path d="M 33.015625 40.375 
Q 26.375 40.375 22.484375 35.828125 
Q 18.609375 31.296875 18.609375 23.390625 
Q 18.609375 15.53125 22.484375 10.953125 
Q 26.375 6.390625 33.015625 6.390625 
Q 39.65625 6.390625 43.53125 10.953125 
Q 47.40625 15.53125 47.40625 23.390625 
Q 47.40625 31.296875 43.53125 35.828125 
Q 39.65625 40.375 33.015625 40.375 
z
M 52.59375 71.296875 
L 52.59375 62.3125 
Q 48.875 64.0625 45.09375 64.984375 
Q 41.3125 65.921875 37.59375 65.921875 
Q 27.828125 65.921875 22.671875 59.328125 
Q 17.53125 52.734375 16.796875 39.40625 
Q 19.671875 43.65625 24.015625 45.921875 
Q 28.375 48.1875 33.59375 48.1875 
Q 44.578125 48.1875 50.953125 41.515625 
Q 57.328125 34.859375 57.328125 23.390625 
Q 57.328125 12.15625 50.6875 5.359375 
Q 44.046875 -1.421875 33.015625 -1.421875 
Q 20.359375 -1.421875 13.671875 8.265625 
Q 6.984375 17.96875 6.984375 36.375 
Q 6.984375 53.65625 15.1875 63.9375 
Q 23.390625 74.21875 37.203125 74.21875 
Q 40.921875 74.21875 44.703125 73.484375 
Q 48.484375 72.75 52.59375 71.296875 
z
" id="DejaVuSans-54"/>
      </defs>
      <g transform="translate(338.436123 325.004695)scale(0.165 -0.165)">
       <use xlink:href="#DejaVuSans-54"/>
       <use x="63.623047" xlink:href="#DejaVuSans-48"/>
       <use x="127.246094" xlink:href="#DejaVuSans-48"/>
      </g>
     </g>
    </g>
    <g id="xtick_5">
     <g id="line2d_5">
      <g>
       <use style="stroke:#000000;stroke-width:1.875;" x="438.608304" xlink:href="#m99b8542751" y="299.967273"/>
      </g>
     </g>
     <g id="text_5">
      <!-- 800 -->
      <defs>
       <path d="M 31.78125 34.625 
Q 24.75 34.625 20.71875 30.859375 
Q 16.703125 27.09375 16.703125 20.515625 
Q 16.703125 13.921875 20.71875 10.15625 
Q 24.75 6.390625 31.78125 6.390625 
Q 38.8125 6.390625 42.859375 10.171875 
Q 46.921875 13.96875 46.921875 20.515625 
Q 46.921875 27.09375 42.890625 30.859375 
Q 38.875 34.625 31.78125 34.625 
z
M 21.921875 38.8125 
Q 15.578125 40.375 12.03125 44.71875 
Q 8.5 49.078125 8.5 55.328125 
Q 8.5 64.0625 14.71875 69.140625 
Q 20.953125 74.21875 31.78125 74.21875 
Q 42.671875 74.21875 48.875 69.140625 
Q 55.078125 64.0625 55.078125 55.328125 
Q 55.078125 49.078125 51.53125 44.71875 
Q 48 40.375 41.703125 38.8125 
Q 48.828125 37.15625 52.796875 32.3125 
Q 56.78125 27.484375 56.78125 20.515625 
Q 56.78125 9.90625 50.3125 4.234375 
Q 43.84375 -1.421875 31.78125 -1.421875 
Q 19.734375 -1.421875 13.25 4.234375 
Q 6.78125 9.90625 6.78125 20.515625 
Q 6.78125 27.484375 10.78125 32.3125 
Q 14.796875 37.15625 21.921875 38.8125 
z
M 18.3125 54.390625 
Q 18.3125 48.734375 21.84375 45.5625 
Q 25.390625 42.390625 31.78125 42.390625 
Q 38.140625 42.390625 41.71875 45.5625 
Q 45.3125 48.734375 45.3125 54.390625 
Q 45.3125 60.0625 41.71875 63.234375 
Q 38.140625 66.40625 31.78125 66.40625 
Q 25.390625 66.40625 21.84375 63.234375 
Q 18.3125 60.0625 18.3125 54.390625 
z
" id="DejaVuSans-56"/>
      </defs>
      <g transform="translate(422.861116 325.004695)scale(0.165 -0.165)">
       <use xlink:href="#DejaVuSans-56"/>
       <use x="63.623047" xlink:href="#DejaVuSans-48"/>
       <use x="127.246094" xlink:href="#DejaVuSans-48"/>
      </g>
     </g>
    </g>
    <g id="xtick_6">
     <g id="line2d_6">
      <g>
       <use style="stroke:#000000;stroke-width:1.875;" x="523.033297" xlink:href="#m99b8542751" y="299.967273"/>
      </g>
     </g>
     <g id="text_6">
      <!-- 1000 -->
      <defs>
       <path d="M 12.40625 8.296875 
L 28.515625 8.296875 
L 28.515625 63.921875 
L 10.984375 60.40625 
L 10.984375 69.390625 
L 28.421875 72.90625 
L 38.28125 72.90625 
L 38.28125 8.296875 
L 54.390625 8.296875 
L 54.390625 0 
L 12.40625 0 
z
" id="DejaVuSans-49"/>
      </defs>
      <g transform="translate(502.037047 325.004695)scale(0.165 -0.165)">
       <use xlink:href="#DejaVuSans-49"/>
       <use x="63.623047" xlink:href="#DejaVuSans-48"/>
       <use x="127.246094" xlink:href="#DejaVuSans-48"/>
       <use x="190.869141" xlink:href="#DejaVuSans-48"/>
      </g>
     </g>
    </g>
   </g>
   <g id="matplotlib.axis_2">
    <g id="ytick_1">
     <g id="line2d_7">
      <defs>
       <path d="M 0 0 
L -9 0 
" id="mb1af368150" style="stroke:#000000;stroke-width:1.875;"/>
      </defs>
      <g>
       <use style="stroke:#000000;stroke-width:1.875;" x="79.19" xlink:href="#mb1af368150" y="272.186045"/>
      </g>
     </g>
     <g id="text_7">
      <!-- 0.0250 -->
      <defs>
       <path d="M 10.6875 12.40625 
L 21 12.40625 
L 21 0 
L 10.6875 0 
z
" id="DejaVuSans-46"/>
       <path d="M 10.796875 72.90625 
L 49.515625 72.90625 
L 49.515625 64.59375 
L 19.828125 64.59375 
L 19.828125 46.734375 
Q 21.96875 47.46875 24.109375 47.828125 
Q 26.265625 48.1875 28.421875 48.1875 
Q 40.625 48.1875 47.75 41.5 
Q 54.890625 34.8125 54.890625 23.390625 
Q 54.890625 11.625 47.5625 5.09375 
Q 40.234375 -1.421875 26.90625 -1.421875 
Q 22.3125 -1.421875 17.546875 -0.640625 
Q 12.796875 0.140625 7.71875 1.703125 
L 7.71875 11.625 
Q 12.109375 9.234375 16.796875 8.0625 
Q 21.484375 6.890625 26.703125 6.890625 
Q 35.15625 6.890625 40.078125 11.328125 
Q 45.015625 15.765625 45.015625 23.390625 
Q 45.015625 31 40.078125 35.4375 
Q 35.15625 39.890625 26.703125 39.890625 
Q 22.75 39.890625 18.8125 39.015625 
Q 14.890625 38.140625 10.796875 36.28125 
z
" id="DejaVuSans-53"/>
      </defs>
      <g transform="translate(8.955469 278.454756)scale(0.165 -0.165)">
       <use xlink:href="#DejaVuSans-48"/>
       <use x="63.623047" xlink:href="#DejaVuSans-46"/>
       <use x="95.410156" xlink:href="#DejaVuSans-48"/>
       <use x="159.033203" xlink:href="#DejaVuSans-50"/>
       <use x="222.65625" xlink:href="#DejaVuSans-53"/>
       <use x="286.279297" xlink:href="#DejaVuSans-48"/>
      </g>
     </g>
    </g>
    <g id="ytick_2">
     <g id="line2d_8">
      <g>
       <use style="stroke:#000000;stroke-width:1.875;" x="79.19" xlink:href="#mb1af368150" y="228.247783"/>
      </g>
     </g>
     <g id="text_8">
      <!-- 0.0275 -->
      <defs>
       <path d="M 8.203125 72.90625 
L 55.078125 72.90625 
L 55.078125 68.703125 
L 28.609375 0 
L 18.3125 0 
L 43.21875 64.59375 
L 8.203125 64.59375 
z
" id="DejaVuSans-55"/>
      </defs>
      <g transform="translate(8.955469 234.516494)scale(0.165 -0.165)">
       <use xlink:href="#DejaVuSans-48"/>
       <use x="63.623047" xlink:href="#DejaVuSans-46"/>
       <use x="95.410156" xlink:href="#DejaVuSans-48"/>
       <use x="159.033203" xlink:href="#DejaVuSans-50"/>
       <use x="222.65625" xlink:href="#DejaVuSans-55"/>
       <use x="286.279297" xlink:href="#DejaVuSans-53"/>
      </g>
     </g>
    </g>
    <g id="ytick_3">
     <g id="line2d_9">
      <g>
       <use style="stroke:#000000;stroke-width:1.875;" x="79.19" xlink:href="#mb1af368150" y="184.309521"/>
      </g>
     </g>
     <g id="text_9">
      <!-- 0.0300 -->
      <defs>
       <path d="M 40.578125 39.3125 
Q 47.65625 37.796875 51.625 33 
Q 55.609375 28.21875 55.609375 21.1875 
Q 55.609375 10.40625 48.1875 4.484375 
Q 40.765625 -1.421875 27.09375 -1.421875 
Q 22.515625 -1.421875 17.65625 -0.515625 
Q 12.796875 0.390625 7.625 2.203125 
L 7.625 11.71875 
Q 11.71875 9.328125 16.59375 8.109375 
Q 21.484375 6.890625 26.8125 6.890625 
Q 36.078125 6.890625 40.9375 10.546875 
Q 45.796875 14.203125 45.796875 21.1875 
Q 45.796875 27.640625 41.28125 31.265625 
Q 36.765625 34.90625 28.71875 34.90625 
L 20.21875 34.90625 
L 20.21875 43.015625 
L 29.109375 43.015625 
Q 36.375 43.015625 40.234375 45.921875 
Q 44.09375 48.828125 44.09375 54.296875 
Q 44.09375 59.90625 40.109375 62.90625 
Q 36.140625 65.921875 28.71875 65.921875 
Q 24.65625 65.921875 20.015625 65.03125 
Q 15.375 64.15625 9.8125 62.3125 
L 9.8125 71.09375 
Q 15.4375 72.65625 20.34375 73.4375 
Q 25.25 74.21875 29.59375 74.21875 
Q 40.828125 74.21875 47.359375 69.109375 
Q 53.90625 64.015625 53.90625 55.328125 
Q 53.90625 49.265625 50.4375 45.09375 
Q 46.96875 40.921875 40.578125 39.3125 
z
" id="DejaVuSans-51"/>
      </defs>
      <g transform="translate(8.955469 190.578232)scale(0.165 -0.165)">
       <use xlink:href="#DejaVuSans-48"/>
       <use x="63.623047" xlink:href="#DejaVuSans-46"/>
       <use x="95.410156" xlink:href="#DejaVuSans-48"/>
       <use x="159.033203" xlink:href="#DejaVuSans-51"/>
       <use x="222.65625" xlink:href="#DejaVuSans-48"/>
       <use x="286.279297" xlink:href="#DejaVuSans-48"/>
      </g>
     </g>
    </g>
    <g id="ytick_4">
     <g id="line2d_10">
      <g>
       <use style="stroke:#000000;stroke-width:1.875;" x="79.19" xlink:href="#mb1af368150" y="140.37126"/>
      </g>
     </g>
     <g id="text_10">
      <!-- 0.0325 -->
      <g transform="translate(8.955469 146.63997)scale(0.165 -0.165)">
       <use xlink:href="#DejaVuSans-48"/>
       <use x="63.623047" xlink:href="#DejaVuSans-46"/>
       <use x="95.410156" xlink:href="#DejaVuSans-48"/>
       <use x="159.033203" xlink:href="#DejaVuSans-51"/>
       <use x="222.65625" xlink:href="#DejaVuSans-50"/>
       <use x="286.279297" xlink:href="#DejaVuSans-53"/>
      </g>
     </g>
    </g>
    <g id="ytick_5">
     <g id="line2d_11">
      <g>
       <use style="stroke:#000000;stroke-width:1.875;" x="79.19" xlink:href="#mb1af368150" y="96.432998"/>
      </g>
     </g>
     <g id="text_11">
      <!-- 0.0350 -->
      <g transform="translate(8.955469 102.701709)scale(0.165 -0.165)">
       <use xlink:href="#DejaVuSans-48"/>
       <use x="63.623047" xlink:href="#DejaVuSans-46"/>
       <use x="95.410156" xlink:href="#DejaVuSans-48"/>
       <use x="159.033203" xlink:href="#DejaVuSans-51"/>
       <use x="222.65625" xlink:href="#DejaVuSans-53"/>
       <use x="286.279297" xlink:href="#DejaVuSans-48"/>
      </g>
     </g>
    </g>
   </g>
   <g id="line2d_12">
    <path clip-path="url(#p6909300b0b)" d="M 101.330455 289.760258 
L 122.014578 289.761334 
L 122.436703 201.602285 
L 123.703078 200.629946 
L 126.235828 198.927515 
L 128.768577 197.495787 
L 130.879202 196.51403 
L 134.678327 195.638208 
L 136.366827 195.552772 
L 138.899577 195.854241 
L 140.588077 196.309038 
L 142.698701 197.117899 
L 144.387201 197.95184 
L 145.231451 198.34211 
L 153.251826 202.448363 
L 155.784575 203.399925 
L 158.317325 204.082585 
L 160.850075 204.492469 
L 163.382825 204.650575 
L 165.915575 204.593113 
L 168.026199 204.411823 
L 168.870449 204.31141 
L 172.669574 203.719669 
L 179.423574 202.424666 
L 180.689948 202.188613 
L 185.755448 201.378345 
L 189.976698 200.937782 
L 193.775822 200.758475 
L 197.997072 200.791977 
L 203.062572 201.081775 
L 219.525445 202.274264 
L 220.369695 202.301049 
L 226.279445 202.364277 
L 233.877694 202.198232 
L 252.029068 201.697606 
L 261.737942 201.720961 
L 291.28669 201.956935 
L 332.232812 201.881027 
L 375.711683 201.878513 
L 544.139545 201.884835 
L 544.139545 201.884835 
" style="fill:none;stroke:#1f77b4;stroke-dasharray:11.1,4.8;stroke-dashoffset:0;stroke-width:3;"/>
   </g>
   <g id="line2d_13">
    <path clip-path="url(#p6909300b0b)" d="M 101.330455 289.761488 
L 122.014578 289.760195 
L 125.391578 273.588134 
L 128.346452 260.438446 
L 130.879202 250.029435 
L 133.411952 240.536393 
L 135.522577 233.416341 
L 137.633202 227.089546 
L 139.321702 222.638892 
L 141.010201 218.752634 
L 142.698701 215.438564 
L 144.387201 212.688966 
L 145.653576 210.985982 
L 146.919951 209.574569 
L 148.186326 208.436864 
L 149.452701 207.55131 
L 150.719076 206.893738 
L 151.985451 206.438183 
L 153.673951 206.098398 
L 155.36245 206.005676 
L 157.473075 206.143183 
L 160.42795 206.61381 
L 166.759825 207.726423 
L 169.714699 207.975974 
L 172.247449 207.978558 
L 174.780199 207.77777 
L 177.735074 207.30329 
L 181.112073 206.497883 
L 185.333323 205.231176 
L 194.197947 202.489571 
L 197.997072 201.602681 
L 201.374072 201.05812 
L 204.751072 200.75897 
L 208.128071 200.689821 
L 211.927196 200.836145 
L 216.992696 201.26652 
L 228.39007 202.302204 
L 233.877694 202.520352 
L 239.365319 202.509688 
L 246.541443 202.25654 
L 261.315817 201.683475 
L 269.336192 201.636338 
L 281.577816 201.830309 
L 295.930065 201.993963 
L 311.970813 201.907922 
L 333.499187 201.847037 
L 387.953307 201.876675 
L 544.139545 201.884921 
L 544.139545 201.884921 
" style="fill:none;stroke:#ff7f0e;stroke-dasharray:3,4.95;stroke-dashoffset:0;stroke-width:3;"/>
   </g>
   <g id="line2d_14">
    <path clip-path="url(#p6909300b0b)" d="M 101.330455 289.76135 
L 122.014578 289.76135 
L 122.436703 201.884826 
L 544.139545 201.884826 
L 544.139545 201.884826 
" style="fill:none;stroke:#2ca02c;stroke-linecap:square;stroke-width:3;"/>
   </g>
   <g id="line2d_15">
    <path clip-path="url(#p6909300b0b)" d="M 101.330455 289.738605 
L 122.014578 289.761011 
L 122.436703 195.226974 
L 124.547328 163.57548 
L 126.235828 141.192973 
L 127.924327 122.047258 
L 129.190702 110.117718 
L 130.457077 100.455886 
L 131.301327 95.326899 
L 132.145577 91.250997 
L 132.989827 88.304254 
L 133.834077 86.435204 
L 134.256202 85.919808 
L 134.678327 85.655858 
L 135.100452 85.645785 
L 135.522577 85.899944 
L 135.944702 86.379899 
L 136.366827 87.122516 
L 137.211077 89.319013 
L 138.055327 92.407169 
L 139.321702 98.571326 
L 140.588077 106.334692 
L 141.854451 115.477483 
L 143.542951 129.083491 
L 145.231451 143.862303 
L 150.296951 188.550498 
L 152.407576 204.953276 
L 154.096075 216.43008 
L 155.784575 226.219899 
L 157.05095 232.382665 
L 158.317325 237.508992 
L 159.5837 241.598619 
L 160.42795 243.757123 
L 161.2722 245.471445 
L 162.11645 246.753333 
L 162.9607 247.616908 
L 163.80495 248.078381 
L 164.6492 248.155791 
L 165.49345 247.86876 
L 166.3377 247.23827 
L 167.181949 246.286454 
L 168.026199 245.036406 
L 169.714699 241.732803 
L 170.981074 238.657899 
L 172.669574 233.918569 
L 174.780199 227.252206 
L 179.423574 211.482147 
L 181.534198 204.597192 
L 183.644823 198.318287 
L 185.333323 193.889523 
L 187.021823 190.095795 
L 188.288198 187.703213 
L 189.554573 185.722461 
L 190.820948 184.163393 
L 192.087323 183.027517 
L 192.931572 182.502487 
L 193.775822 182.159029 
L 194.620072 181.991964 
L 195.464322 181.994821 
L 196.308572 182.159944 
L 197.574947 182.692532 
L 198.841322 183.537079 
L 200.107697 184.656508 
L 201.796197 186.50753 
L 203.906822 189.257812 
L 206.861696 193.574276 
L 211.505071 200.373725 
L 213.615696 203.101849 
L 215.726321 205.452021 
L 217.414821 207.012483 
L 219.10332 208.264788 
L 220.79182 209.194174 
L 222.48032 209.812705 
L 224.16882 210.125676 
L 225.85732 210.152252 
L 227.54582 209.918499 
L 229.23432 209.455938 
L 231.344945 208.610337 
L 233.877694 207.302482 
L 237.676819 205.016175 
L 242.320194 202.232067 
L 245.275068 200.728395 
L 247.807818 199.705805 
L 249.918443 199.071511 
L 252.029068 198.644947 
L 254.139693 198.423548 
L 256.672443 198.410789 
L 259.205192 198.639124 
L 262.160067 199.145536 
L 265.959192 200.040347 
L 274.823816 202.22858 
L 278.622941 202.878466 
L 281.999941 203.226087 
L 285.37694 203.353291 
L 289.176065 203.26338 
L 293.81944 202.90801 
L 310.282313 201.396201 
L 315.347813 201.268089 
L 321.257563 201.351565 
L 330.966437 201.763353 
L 340.675311 202.092447 
L 348.695686 202.137049 
L 360.93731 201.941882 
L 375.289558 201.776591 
L 391.330307 201.861698 
L 412.858681 201.922701 
L 467.734926 201.892963 
L 544.139545 201.884987 
L 544.139545 201.884987 
" style="fill:none;stroke:#d62728;stroke-dasharray:19.2,4.8,3,4.8;stroke-dashoffset:0;stroke-width:3;"/>
   </g>
   <g id="line2d_16">
    <path clip-path="url(#p6909300b0b)" d="M 79.19 201.884826 
L 566.28 201.884826 
" style="fill:none;stroke:#000000;stroke-dasharray:9.25,4;stroke-dashoffset:0;stroke-width:2.5;"/>
   </g>
   <g id="patch_3">
    <path d="M 79.19 299.967273 
L 79.19 75.44 
" style="fill:none;stroke:#000000;stroke-linecap:square;stroke-linejoin:miter;stroke-width:1.875;"/>
   </g>
   <g id="patch_4">
    <path d="M 79.19 299.967273 
L 566.28 299.967273 
" style="fill:none;stroke:#000000;stroke-linecap:square;stroke-linejoin:miter;stroke-width:1.875;"/>
   </g>
   <g id="text_12">
    <!-- Growth rates -->
    <defs>
     <path d="M 59.515625 10.40625 
L 59.515625 29.984375 
L 43.40625 29.984375 
L 43.40625 38.09375 
L 69.28125 38.09375 
L 69.28125 6.78125 
Q 63.578125 2.734375 56.6875 0.65625 
Q 49.8125 -1.421875 42 -1.421875 
Q 24.90625 -1.421875 15.25 8.5625 
Q 5.609375 18.5625 5.609375 36.375 
Q 5.609375 54.25 15.25 64.234375 
Q 24.90625 74.21875 42 74.21875 
Q 49.125 74.21875 55.546875 72.453125 
Q 61.96875 70.703125 67.390625 67.28125 
L 67.390625 56.78125 
Q 61.921875 61.421875 55.765625 63.765625 
Q 49.609375 66.109375 42.828125 66.109375 
Q 29.4375 66.109375 22.71875 58.640625 
Q 16.015625 51.171875 16.015625 36.375 
Q 16.015625 21.625 22.71875 14.15625 
Q 29.4375 6.6875 42.828125 6.6875 
Q 48.046875 6.6875 52.140625 7.59375 
Q 56.25 8.5 59.515625 10.40625 
z
" id="DejaVuSans-71"/>
     <path d="M 41.109375 46.296875 
Q 39.59375 47.171875 37.8125 47.578125 
Q 36.03125 48 33.890625 48 
Q 26.265625 48 22.1875 43.046875 
Q 18.109375 38.09375 18.109375 28.8125 
L 18.109375 0 
L 9.078125 0 
L 9.078125 54.6875 
L 18.109375 54.6875 
L 18.109375 46.1875 
Q 20.953125 51.171875 25.484375 53.578125 
Q 30.03125 56 36.53125 56 
Q 37.453125 56 38.578125 55.875 
Q 39.703125 55.765625 41.0625 55.515625 
z
" id="DejaVuSans-114"/>
     <path d="M 30.609375 48.390625 
Q 23.390625 48.390625 19.1875 42.75 
Q 14.984375 37.109375 14.984375 27.296875 
Q 14.984375 17.484375 19.15625 11.84375 
Q 23.34375 6.203125 30.609375 6.203125 
Q 37.796875 6.203125 41.984375 11.859375 
Q 46.1875 17.53125 46.1875 27.296875 
Q 46.1875 37.015625 41.984375 42.703125 
Q 37.796875 48.390625 30.609375 48.390625 
z
M 30.609375 56 
Q 42.328125 56 49.015625 48.375 
Q 55.71875 40.765625 55.71875 27.296875 
Q 55.71875 13.875 49.015625 6.21875 
Q 42.328125 -1.421875 30.609375 -1.421875 
Q 18.84375 -1.421875 12.171875 6.21875 
Q 5.515625 13.875 5.515625 27.296875 
Q 5.515625 40.765625 12.171875 48.375 
Q 18.84375 56 30.609375 56 
z
" id="DejaVuSans-111"/>
     <path d="M 4.203125 54.6875 
L 13.1875 54.6875 
L 24.421875 12.015625 
L 35.59375 54.6875 
L 46.1875 54.6875 
L 57.421875 12.015625 
L 68.609375 54.6875 
L 77.59375 54.6875 
L 63.28125 0 
L 52.6875 0 
L 40.921875 44.828125 
L 29.109375 0 
L 18.5 0 
z
" id="DejaVuSans-119"/>
     <path d="M 18.3125 70.21875 
L 18.3125 54.6875 
L 36.8125 54.6875 
L 36.8125 47.703125 
L 18.3125 47.703125 
L 18.3125 18.015625 
Q 18.3125 11.328125 20.140625 9.421875 
Q 21.96875 7.515625 27.59375 7.515625 
L 36.8125 7.515625 
L 36.8125 0 
L 27.59375 0 
Q 17.1875 0 13.234375 3.875 
Q 9.28125 7.765625 9.28125 18.015625 
L 9.28125 47.703125 
L 2.6875 47.703125 
L 2.6875 54.6875 
L 9.28125 54.6875 
L 9.28125 70.21875 
z
" id="DejaVuSans-116"/>
     <path d="M 54.890625 33.015625 
L 54.890625 0 
L 45.90625 0 
L 45.90625 32.71875 
Q 45.90625 40.484375 42.875 44.328125 
Q 39.84375 48.1875 33.796875 48.1875 
Q 26.515625 48.1875 22.3125 43.546875 
Q 18.109375 38.921875 18.109375 30.90625 
L 18.109375 0 
L 9.078125 0 
L 9.078125 75.984375 
L 18.109375 75.984375 
L 18.109375 46.1875 
Q 21.34375 51.125 25.703125 53.5625 
Q 30.078125 56 35.796875 56 
Q 45.21875 56 50.046875 50.171875 
Q 54.890625 44.34375 54.890625 33.015625 
z
" id="DejaVuSans-104"/>
     <path id="DejaVuSans-32"/>
     <path d="M 34.28125 27.484375 
Q 23.390625 27.484375 19.1875 25 
Q 14.984375 22.515625 14.984375 16.5 
Q 14.984375 11.71875 18.140625 8.90625 
Q 21.296875 6.109375 26.703125 6.109375 
Q 34.1875 6.109375 38.703125 11.40625 
Q 43.21875 16.703125 43.21875 25.484375 
L 43.21875 27.484375 
z
M 52.203125 31.203125 
L 52.203125 0 
L 43.21875 0 
L 43.21875 8.296875 
Q 40.140625 3.328125 35.546875 0.953125 
Q 30.953125 -1.421875 24.3125 -1.421875 
Q 15.921875 -1.421875 10.953125 3.296875 
Q 6 8.015625 6 15.921875 
Q 6 25.140625 12.171875 29.828125 
Q 18.359375 34.515625 30.609375 34.515625 
L 43.21875 34.515625 
L 43.21875 35.40625 
Q 43.21875 41.609375 39.140625 45 
Q 35.0625 48.390625 27.6875 48.390625 
Q 23 48.390625 18.546875 47.265625 
Q 14.109375 46.140625 10.015625 43.890625 
L 10.015625 52.203125 
Q 14.9375 54.109375 19.578125 55.046875 
Q 24.21875 56 28.609375 56 
Q 40.484375 56 46.34375 49.84375 
Q 52.203125 43.703125 52.203125 31.203125 
z
" id="DejaVuSans-97"/>
     <path d="M 56.203125 29.59375 
L 56.203125 25.203125 
L 14.890625 25.203125 
Q 15.484375 15.921875 20.484375 11.0625 
Q 25.484375 6.203125 34.421875 6.203125 
Q 39.59375 6.203125 44.453125 7.46875 
Q 49.3125 8.734375 54.109375 11.28125 
L 54.109375 2.78125 
Q 49.265625 0.734375 44.1875 -0.34375 
Q 39.109375 -1.421875 33.890625 -1.421875 
Q 20.796875 -1.421875 13.15625 6.1875 
Q 5.515625 13.8125 5.515625 26.8125 
Q 5.515625 40.234375 12.765625 48.109375 
Q 20.015625 56 32.328125 56 
Q 43.359375 56 49.78125 48.890625 
Q 56.203125 41.796875 56.203125 29.59375 
z
M 47.21875 32.234375 
Q 47.125 39.59375 43.09375 43.984375 
Q 39.0625 48.390625 32.421875 48.390625 
Q 24.90625 48.390625 20.390625 44.140625 
Q 15.875 39.890625 15.1875 32.171875 
z
" id="DejaVuSans-101"/>
     <path d="M 44.28125 53.078125 
L 44.28125 44.578125 
Q 40.484375 46.53125 36.375 47.5 
Q 32.28125 48.484375 27.875 48.484375 
Q 21.1875 48.484375 17.84375 46.4375 
Q 14.5 44.390625 14.5 40.28125 
Q 14.5 37.15625 16.890625 35.375 
Q 19.28125 33.59375 26.515625 31.984375 
L 29.59375 31.296875 
Q 39.15625 29.25 43.1875 25.515625 
Q 47.21875 21.78125 47.21875 15.09375 
Q 47.21875 7.46875 41.1875 3.015625 
Q 35.15625 -1.421875 24.609375 -1.421875 
Q 20.21875 -1.421875 15.453125 -0.5625 
Q 10.6875 0.296875 5.421875 2 
L 5.421875 11.28125 
Q 10.40625 8.6875 15.234375 7.390625 
Q 20.0625 6.109375 24.8125 6.109375 
Q 31.15625 6.109375 34.5625 8.28125 
Q 37.984375 10.453125 37.984375 14.40625 
Q 37.984375 18.0625 35.515625 20.015625 
Q 33.0625 21.96875 24.703125 23.78125 
L 21.578125 24.515625 
Q 13.234375 26.265625 9.515625 29.90625 
Q 5.8125 33.546875 5.8125 39.890625 
Q 5.8125 47.609375 11.28125 51.796875 
Q 16.75 56 26.8125 56 
Q 31.78125 56 36.171875 55.265625 
Q 40.578125 54.546875 44.28125 53.078125 
z
" id="DejaVuSans-115"/>
    </defs>
    <g transform="translate(264.334844 69.44)scale(0.18 -0.18)">
     <use xlink:href="#DejaVuSans-71"/>
     <use x="77.490234" xlink:href="#DejaVuSans-114"/>
     <use x="116.353516" xlink:href="#DejaVuSans-111"/>
     <use x="177.535156" xlink:href="#DejaVuSans-119"/>
     <use x="259.322266" xlink:href="#DejaVuSans-116"/>
     <use x="298.53125" xlink:href="#DejaVuSans-104"/>
     <use x="361.910156" xlink:href="#DejaVuSans-32"/>
     <use x="393.697266" xlink:href="#DejaVuSans-114"/>
     <use x="434.810547" xlink:href="#DejaVuSans-97"/>
     <use x="496.089844" xlink:href="#DejaVuSans-116"/>
     <use x="535.298828" xlink:href="#DejaVuSans-101"/>
     <use x="596.822266" xlink:href="#DejaVuSans-115"/>
    </g>
   </g>
   <g id="legend_1">
    <g id="patch_5">
     <path d="M 246.9375 377.076722 
L 402.5325 377.076722 
Q 405.8325 377.076722 405.8325 373.776722 
L 405.8325 326.988909 
Q 405.8325 323.688909 402.5325 323.688909 
L 246.9375 323.688909 
Q 243.6375 323.688909 243.6375 326.988909 
L 243.6375 373.776722 
Q 243.6375 377.076722 246.9375 377.076722 
z
" style="fill:#4c4c4c;opacity:0.5;stroke:#4c4c4c;stroke-linejoin:miter;stroke-width:1.5;"/>
    </g>
    <g id="patch_6">
     <path d="M 244.9375 375.076722 
L 400.5325 375.076722 
Q 403.8325 375.076722 403.8325 371.776722 
L 403.8325 324.988909 
Q 403.8325 321.688909 400.5325 321.688909 
L 244.9375 321.688909 
Q 241.6375 321.688909 241.6375 324.988909 
L 241.6375 371.776722 
Q 241.6375 375.076722 244.9375 375.076722 
z
" style="fill:#ffffff;stroke:#cccccc;stroke-linejoin:miter;stroke-width:1.5;"/>
    </g>
    <g id="line2d_17">
     <path d="M 248.2375 335.051331 
L 281.2375 335.051331 
" style="fill:none;stroke:#1f77b4;stroke-dasharray:11.1,4.8;stroke-dashoffset:0;stroke-width:3;"/>
    </g>
    <g id="line2d_18"/>
    <g id="text_13">
     <!-- $Y$ -->
     <defs>
      <path d="M 6.296875 72.90625 
L 16.890625 72.90625 
L 30.515625 42.921875 
L 56.5 72.90625 
L 67.578125 72.90625 
L 34.515625 34.71875 
L 27.78125 0 
L 17.921875 0 
L 24.609375 34.71875 
z
" id="DejaVuSans-Oblique-89"/>
     </defs>
     <g transform="translate(294.4375 340.826331)scale(0.165 -0.165)">
      <use transform="translate(0 0.09375)" xlink:href="#DejaVuSans-Oblique-89"/>
     </g>
    </g>
    <g id="line2d_19">
     <path d="M 248.2375 359.270237 
L 281.2375 359.270237 
" style="fill:none;stroke:#ff7f0e;stroke-dasharray:3,4.95;stroke-dashoffset:0;stroke-width:3;"/>
    </g>
    <g id="line2d_20"/>
    <g id="text_14">
     <!-- $K$ -->
     <defs>
      <path d="M 16.890625 72.90625 
L 26.8125 72.90625 
L 20.796875 42.1875 
L 59.078125 72.90625 
L 72.21875 72.90625 
L 28.90625 38.09375 
L 60.59375 0 
L 48.578125 0 
L 19.484375 35.5 
L 12.59375 0 
L 2.6875 0 
z
" id="DejaVuSans-Oblique-75"/>
     </defs>
     <g transform="translate(294.4375 365.045237)scale(0.165 -0.165)">
      <use transform="translate(0 0.09375)" xlink:href="#DejaVuSans-Oblique-75"/>
     </g>
    </g>
    <g id="line2d_21">
     <path d="M 338.3275 335.051331 
L 371.3275 335.051331 
" style="fill:none;stroke:#2ca02c;stroke-linecap:square;stroke-width:3;"/>
    </g>
    <g id="line2d_22"/>
    <g id="text_15">
     <!-- $I_h$ -->
     <defs>
      <path d="M 16.890625 72.90625 
L 26.8125 72.90625 
L 12.59375 0 
L 2.6875 0 
z
" id="DejaVuSans-Oblique-73"/>
      <path d="M 55.71875 33.015625 
L 49.3125 0 
L 40.28125 0 
L 46.6875 32.671875 
Q 47.125 34.96875 47.359375 36.71875 
Q 47.609375 38.484375 47.609375 39.5 
Q 47.609375 43.609375 45.015625 45.890625 
Q 42.4375 48.1875 37.796875 48.1875 
Q 30.5625 48.1875 25.265625 43.296875 
Q 19.96875 38.421875 18.40625 30.328125 
L 12.5 0 
L 3.515625 0 
L 18.3125 75.984375 
L 27.296875 75.984375 
L 21.484375 46.09375 
Q 24.90625 50.6875 30.21875 53.34375 
Q 35.546875 56 41.40625 56 
Q 48.640625 56 52.609375 52.09375 
Q 56.59375 48.1875 56.59375 41.109375 
Q 56.59375 39.359375 56.375 37.359375 
Q 56.15625 35.359375 55.71875 33.015625 
z
" id="DejaVuSans-Oblique-104"/>
     </defs>
     <g transform="translate(384.5275 340.826331)scale(0.165 -0.165)">
      <use transform="translate(0 0.09375)" xlink:href="#DejaVuSans-Oblique-73"/>
      <use transform="translate(29.492188 -16.3125)scale(0.7)" xlink:href="#DejaVuSans-Oblique-104"/>
     </g>
    </g>
    <g id="line2d_23">
     <path d="M 338.3275 359.270237 
L 371.3275 359.270237 
" style="fill:none;stroke:#d62728;stroke-dasharray:19.2,4.8,3,4.8;stroke-dashoffset:0;stroke-width:3;"/>
    </g>
    <g id="line2d_24"/>
    <g id="text_16">
     <!-- $I_f$ -->
     <defs>
      <path d="M 47.796875 75.984375 
L 46.390625 68.5 
L 37.796875 68.5 
Q 32.90625 68.5 30.6875 66.578125 
Q 28.46875 64.65625 27.390625 59.515625 
L 26.421875 54.6875 
L 41.21875 54.6875 
L 39.890625 47.703125 
L 25.09375 47.703125 
L 15.828125 0 
L 6.78125 0 
L 16.109375 47.703125 
L 7.515625 47.703125 
L 8.796875 54.6875 
L 17.390625 54.6875 
L 18.109375 58.5 
Q 19.96875 68.171875 24.625 72.078125 
Q 29.296875 75.984375 39.3125 75.984375 
z
" id="DejaVuSans-Oblique-102"/>
     </defs>
     <g transform="translate(384.5275 365.045237)scale(0.165 -0.165)">
      <use transform="translate(0 0.09375)" xlink:href="#DejaVuSans-Oblique-73"/>
      <use transform="translate(29.492188 -16.3125)scale(0.7)" xlink:href="#DejaVuSans-Oblique-102"/>
     </g>
    </g>
   </g>
  </g>
  <g id="axes_2">
   <g id="patch_7">
    <path d="M 645.47 299.967273 
L 1132.56 299.967273 
L 1132.56 75.44 
L 645.47 75.44 
z
" style="fill:#ffffff;"/>
   </g>
   <g id="matplotlib.axis_3">
    <g id="xtick_7">
     <g id="line2d_25">
      <g>
       <use style="stroke:#000000;stroke-width:1.875;" x="667.610455" xlink:href="#m99b8542751" y="299.967273"/>
      </g>
     </g>
     <g id="text_17">
      <!-- 0 -->
      <g transform="translate(662.361392 325.004695)scale(0.165 -0.165)">
       <use xlink:href="#DejaVuSans-48"/>
      </g>
     </g>
    </g>
    <g id="xtick_8">
     <g id="line2d_26">
      <g>
       <use style="stroke:#000000;stroke-width:1.875;" x="751.955043" xlink:href="#m99b8542751" y="299.967273"/>
      </g>
     </g>
     <g id="text_18">
      <!-- 200 -->
      <g transform="translate(736.207856 325.004695)scale(0.165 -0.165)">
       <use xlink:href="#DejaVuSans-50"/>
       <use x="63.623047" xlink:href="#DejaVuSans-48"/>
       <use x="127.246094" xlink:href="#DejaVuSans-48"/>
      </g>
     </g>
    </g>
    <g id="xtick_9">
     <g id="line2d_27">
      <g>
       <use style="stroke:#000000;stroke-width:1.875;" x="836.299632" xlink:href="#m99b8542751" y="299.967273"/>
      </g>
     </g>
     <g id="text_19">
      <!-- 400 -->
      <g transform="translate(820.552445 325.004695)scale(0.165 -0.165)">
       <use xlink:href="#DejaVuSans-52"/>
       <use x="63.623047" xlink:href="#DejaVuSans-48"/>
       <use x="127.246094" xlink:href="#DejaVuSans-48"/>
      </g>
     </g>
    </g>
    <g id="xtick_10">
     <g id="line2d_28">
      <g>
       <use style="stroke:#000000;stroke-width:1.875;" x="920.644221" xlink:href="#m99b8542751" y="299.967273"/>
      </g>
     </g>
     <g id="text_20">
      <!-- 600 -->
      <g transform="translate(904.897033 325.004695)scale(0.165 -0.165)">
       <use xlink:href="#DejaVuSans-54"/>
       <use x="63.623047" xlink:href="#DejaVuSans-48"/>
       <use x="127.246094" xlink:href="#DejaVuSans-48"/>
      </g>
     </g>
    </g>
    <g id="xtick_11">
     <g id="line2d_29">
      <g>
       <use style="stroke:#000000;stroke-width:1.875;" x="1004.98881" xlink:href="#m99b8542751" y="299.967273"/>
      </g>
     </g>
     <g id="text_21">
      <!-- 800 -->
      <g transform="translate(989.241622 325.004695)scale(0.165 -0.165)">
       <use xlink:href="#DejaVuSans-56"/>
       <use x="63.623047" xlink:href="#DejaVuSans-48"/>
       <use x="127.246094" xlink:href="#DejaVuSans-48"/>
      </g>
     </g>
    </g>
    <g id="xtick_12">
     <g id="line2d_30">
      <g>
       <use style="stroke:#000000;stroke-width:1.875;" x="1089.333398" xlink:href="#m99b8542751" y="299.967273"/>
      </g>
     </g>
     <g id="text_22">
      <!-- 1000 -->
      <g transform="translate(1068.337148 325.004695)scale(0.165 -0.165)">
       <use xlink:href="#DejaVuSans-49"/>
       <use x="63.623047" xlink:href="#DejaVuSans-48"/>
       <use x="127.246094" xlink:href="#DejaVuSans-48"/>
       <use x="190.869141" xlink:href="#DejaVuSans-48"/>
      </g>
     </g>
    </g>
   </g>
   <g id="matplotlib.axis_4">
    <g id="ytick_6">
     <g id="line2d_31">
      <g>
       <use style="stroke:#000000;stroke-width:1.875;" x="645.47" xlink:href="#mb1af368150" y="253.511257"/>
      </g>
     </g>
     <g id="text_23">
      <!-- 0.7050 -->
      <g transform="translate(575.235469 259.779968)scale(0.165 -0.165)">
       <use xlink:href="#DejaVuSans-48"/>
       <use x="63.623047" xlink:href="#DejaVuSans-46"/>
       <use x="95.410156" xlink:href="#DejaVuSans-55"/>
       <use x="159.033203" xlink:href="#DejaVuSans-48"/>
       <use x="222.65625" xlink:href="#DejaVuSans-53"/>
       <use x="286.279297" xlink:href="#DejaVuSans-48"/>
      </g>
     </g>
    </g>
    <g id="ytick_7">
     <g id="line2d_32">
      <g>
       <use style="stroke:#000000;stroke-width:1.875;" x="645.47" xlink:href="#mb1af368150" y="206.897019"/>
      </g>
     </g>
     <g id="text_24">
      <!-- 0.7075 -->
      <g transform="translate(575.235469 213.16573)scale(0.165 -0.165)">
       <use xlink:href="#DejaVuSans-48"/>
       <use x="63.623047" xlink:href="#DejaVuSans-46"/>
       <use x="95.410156" xlink:href="#DejaVuSans-55"/>
       <use x="159.033203" xlink:href="#DejaVuSans-48"/>
       <use x="222.65625" xlink:href="#DejaVuSans-55"/>
       <use x="286.279297" xlink:href="#DejaVuSans-53"/>
      </g>
     </g>
    </g>
    <g id="ytick_8">
     <g id="line2d_33">
      <g>
       <use style="stroke:#000000;stroke-width:1.875;" x="645.47" xlink:href="#mb1af368150" y="160.282781"/>
      </g>
     </g>
     <g id="text_25">
      <!-- 0.7100 -->
      <g transform="translate(575.235469 166.551492)scale(0.165 -0.165)">
       <use xlink:href="#DejaVuSans-48"/>
       <use x="63.623047" xlink:href="#DejaVuSans-46"/>
       <use x="95.410156" xlink:href="#DejaVuSans-55"/>
       <use x="159.033203" xlink:href="#DejaVuSans-49"/>
       <use x="222.65625" xlink:href="#DejaVuSans-48"/>
       <use x="286.279297" xlink:href="#DejaVuSans-48"/>
      </g>
     </g>
    </g>
    <g id="ytick_9">
     <g id="line2d_34">
      <g>
       <use style="stroke:#000000;stroke-width:1.875;" x="645.47" xlink:href="#mb1af368150" y="113.668544"/>
      </g>
     </g>
     <g id="text_26">
      <!-- 0.7125 -->
      <g transform="translate(575.235469 119.937254)scale(0.165 -0.165)">
       <use xlink:href="#DejaVuSans-48"/>
       <use x="63.623047" xlink:href="#DejaVuSans-46"/>
       <use x="95.410156" xlink:href="#DejaVuSans-55"/>
       <use x="159.033203" xlink:href="#DejaVuSans-49"/>
       <use x="222.65625" xlink:href="#DejaVuSans-50"/>
       <use x="286.279297" xlink:href="#DejaVuSans-53"/>
      </g>
     </g>
    </g>
   </g>
   <g id="line2d_35">
    <path clip-path="url(#pc1968fa3b0)" d="M 667.610455 85.645785 
L 688.696602 85.671933 
L 689.118325 85.897333 
L 689.540048 86.3705 
L 689.961771 87.069244 
L 690.805216 89.136986 
L 691.648662 92.068604 
L 692.492108 95.825542 
L 693.757277 102.91546 
L 695.022446 111.608876 
L 696.287615 121.727049 
L 697.974506 137.099638 
L 700.083121 158.571723 
L 707.674134 238.487878 
L 709.361026 253.099742 
L 711.047918 265.560459 
L 712.313087 273.247991 
L 713.578255 279.493601 
L 714.421701 282.825763 
L 715.265147 285.492382 
L 716.108593 287.501487 
L 716.952039 288.867859 
L 717.795485 289.61241 
L 718.217208 289.759543 
L 718.638931 289.761488 
L 719.060654 289.622267 
L 719.9041 288.937648 
L 720.747545 287.742423 
L 721.590991 286.076198 
L 722.434437 283.980738 
L 723.699606 280.127601 
L 724.964775 275.555247 
L 726.651667 268.597581 
L 729.182004 257.00586 
L 734.664403 231.51016 
L 736.773017 222.899586 
L 738.459909 216.81796 
L 740.146801 211.580245 
L 741.41197 208.249604 
L 742.677139 205.452097 
L 743.942307 203.196142 
L 745.207476 201.481272 
L 746.050922 200.634643 
L 746.894368 200.030641 
L 747.737814 199.642968 
L 748.58126 199.474449 
L 749.424706 199.516632 
L 750.268152 199.759932 
L 751.111597 200.193722 
L 752.376766 201.17604 
L 753.641935 202.507911 
L 754.907104 204.163713 
L 756.593996 206.775878 
L 758.70261 210.522676 
L 762.498117 217.906077 
L 765.8719 224.285742 
L 767.980515 227.8301 
L 769.667407 230.303874 
L 771.354299 232.400029 
L 773.04119 234.084816 
L 774.306359 235.052909 
L 775.571528 235.792467 
L 776.836697 236.292953 
L 778.101866 236.562101 
L 779.367035 236.611464 
L 780.632203 236.455895 
L 781.897372 236.113004 
L 783.584264 235.398894 
L 785.271156 234.438363 
L 787.379771 232.988851 
L 790.331831 230.638128 
L 796.235952 225.873975 
L 798.76629 224.14897 
L 800.874905 222.958696 
L 802.983519 222.026795 
L 805.092134 221.368236 
L 807.200749 220.983392 
L 809.309364 220.859689 
L 811.417978 220.973622 
L 813.526593 221.293045 
L 816.056931 221.893295 
L 819.430714 222.941218 
L 828.708619 225.987572 
L 831.66068 226.686327 
L 834.61274 227.167491 
L 837.564801 227.420241 
L 840.516861 227.456726 
L 843.890645 227.273209 
L 848.107874 226.802593 
L 862.446455 224.96758 
L 867.085407 224.720871 
L 871.724359 224.700324 
L 877.628481 224.921861 
L 896.18429 225.821241 
L 903.35358 225.833342 
L 914.318377 225.591294 
L 926.970065 225.371383 
L 938.778307 225.409669 
L 964.92513 225.562239 
L 1021.436004 225.517861 
L 1110.419545 225.506231 
L 1110.419545 225.506231 
" style="fill:none;stroke:#8b0000;stroke-linecap:square;stroke-width:3;"/>
   </g>
   <g id="patch_8">
    <path d="M 645.47 299.967273 
L 645.47 75.44 
" style="fill:none;stroke:#000000;stroke-linecap:square;stroke-linejoin:miter;stroke-width:1.875;"/>
   </g>
   <g id="patch_9">
    <path d="M 645.47 299.967273 
L 1132.56 299.967273 
" style="fill:none;stroke:#000000;stroke-linecap:square;stroke-linejoin:miter;stroke-width:1.875;"/>
   </g>
   <g id="text_27">
    <!-- Autonomous expenditures share on GDP -->
    <defs>
     <path d="M 34.1875 63.1875 
L 20.796875 26.90625 
L 47.609375 26.90625 
z
M 28.609375 72.90625 
L 39.796875 72.90625 
L 67.578125 0 
L 57.328125 0 
L 50.6875 18.703125 
L 17.828125 18.703125 
L 11.1875 0 
L 0.78125 0 
z
" id="DejaVuSans-65"/>
     <path d="M 8.5 21.578125 
L 8.5 54.6875 
L 17.484375 54.6875 
L 17.484375 21.921875 
Q 17.484375 14.15625 20.5 10.265625 
Q 23.53125 6.390625 29.59375 6.390625 
Q 36.859375 6.390625 41.078125 11.03125 
Q 45.3125 15.671875 45.3125 23.6875 
L 45.3125 54.6875 
L 54.296875 54.6875 
L 54.296875 0 
L 45.3125 0 
L 45.3125 8.40625 
Q 42.046875 3.421875 37.71875 1 
Q 33.40625 -1.421875 27.6875 -1.421875 
Q 18.265625 -1.421875 13.375 4.4375 
Q 8.5 10.296875 8.5 21.578125 
z
M 31.109375 56 
z
" id="DejaVuSans-117"/>
     <path d="M 54.890625 33.015625 
L 54.890625 0 
L 45.90625 0 
L 45.90625 32.71875 
Q 45.90625 40.484375 42.875 44.328125 
Q 39.84375 48.1875 33.796875 48.1875 
Q 26.515625 48.1875 22.3125 43.546875 
Q 18.109375 38.921875 18.109375 30.90625 
L 18.109375 0 
L 9.078125 0 
L 9.078125 54.6875 
L 18.109375 54.6875 
L 18.109375 46.1875 
Q 21.34375 51.125 25.703125 53.5625 
Q 30.078125 56 35.796875 56 
Q 45.21875 56 50.046875 50.171875 
Q 54.890625 44.34375 54.890625 33.015625 
z
" id="DejaVuSans-110"/>
     <path d="M 52 44.1875 
Q 55.375 50.25 60.0625 53.125 
Q 64.75 56 71.09375 56 
Q 79.640625 56 84.28125 50.015625 
Q 88.921875 44.046875 88.921875 33.015625 
L 88.921875 0 
L 79.890625 0 
L 79.890625 32.71875 
Q 79.890625 40.578125 77.09375 44.375 
Q 74.3125 48.1875 68.609375 48.1875 
Q 61.625 48.1875 57.5625 43.546875 
Q 53.515625 38.921875 53.515625 30.90625 
L 53.515625 0 
L 44.484375 0 
L 44.484375 32.71875 
Q 44.484375 40.625 41.703125 44.40625 
Q 38.921875 48.1875 33.109375 48.1875 
Q 26.21875 48.1875 22.15625 43.53125 
Q 18.109375 38.875 18.109375 30.90625 
L 18.109375 0 
L 9.078125 0 
L 9.078125 54.6875 
L 18.109375 54.6875 
L 18.109375 46.1875 
Q 21.1875 51.21875 25.484375 53.609375 
Q 29.78125 56 35.6875 56 
Q 41.65625 56 45.828125 52.96875 
Q 50 49.953125 52 44.1875 
z
" id="DejaVuSans-109"/>
     <path d="M 54.890625 54.6875 
L 35.109375 28.078125 
L 55.90625 0 
L 45.3125 0 
L 29.390625 21.484375 
L 13.484375 0 
L 2.875 0 
L 24.125 28.609375 
L 4.6875 54.6875 
L 15.28125 54.6875 
L 29.78125 35.203125 
L 44.28125 54.6875 
z
" id="DejaVuSans-120"/>
     <path d="M 18.109375 8.203125 
L 18.109375 -20.796875 
L 9.078125 -20.796875 
L 9.078125 54.6875 
L 18.109375 54.6875 
L 18.109375 46.390625 
Q 20.953125 51.265625 25.265625 53.625 
Q 29.59375 56 35.59375 56 
Q 45.5625 56 51.78125 48.09375 
Q 58.015625 40.1875 58.015625 27.296875 
Q 58.015625 14.40625 51.78125 6.484375 
Q 45.5625 -1.421875 35.59375 -1.421875 
Q 29.59375 -1.421875 25.265625 0.953125 
Q 20.953125 3.328125 18.109375 8.203125 
z
M 48.6875 27.296875 
Q 48.6875 37.203125 44.609375 42.84375 
Q 40.53125 48.484375 33.40625 48.484375 
Q 26.265625 48.484375 22.1875 42.84375 
Q 18.109375 37.203125 18.109375 27.296875 
Q 18.109375 17.390625 22.1875 11.75 
Q 26.265625 6.109375 33.40625 6.109375 
Q 40.53125 6.109375 44.609375 11.75 
Q 48.6875 17.390625 48.6875 27.296875 
z
" id="DejaVuSans-112"/>
     <path d="M 45.40625 46.390625 
L 45.40625 75.984375 
L 54.390625 75.984375 
L 54.390625 0 
L 45.40625 0 
L 45.40625 8.203125 
Q 42.578125 3.328125 38.25 0.953125 
Q 33.9375 -1.421875 27.875 -1.421875 
Q 17.96875 -1.421875 11.734375 6.484375 
Q 5.515625 14.40625 5.515625 27.296875 
Q 5.515625 40.1875 11.734375 48.09375 
Q 17.96875 56 27.875 56 
Q 33.9375 56 38.25 53.625 
Q 42.578125 51.265625 45.40625 46.390625 
z
M 14.796875 27.296875 
Q 14.796875 17.390625 18.875 11.75 
Q 22.953125 6.109375 30.078125 6.109375 
Q 37.203125 6.109375 41.296875 11.75 
Q 45.40625 17.390625 45.40625 27.296875 
Q 45.40625 37.203125 41.296875 42.84375 
Q 37.203125 48.484375 30.078125 48.484375 
Q 22.953125 48.484375 18.875 42.84375 
Q 14.796875 37.203125 14.796875 27.296875 
z
" id="DejaVuSans-100"/>
     <path d="M 9.421875 54.6875 
L 18.40625 54.6875 
L 18.40625 0 
L 9.421875 0 
z
M 9.421875 75.984375 
L 18.40625 75.984375 
L 18.40625 64.59375 
L 9.421875 64.59375 
z
" id="DejaVuSans-105"/>
     <path d="M 19.671875 64.796875 
L 19.671875 8.109375 
L 31.59375 8.109375 
Q 46.6875 8.109375 53.6875 14.9375 
Q 60.6875 21.78125 60.6875 36.53125 
Q 60.6875 51.171875 53.6875 57.984375 
Q 46.6875 64.796875 31.59375 64.796875 
z
M 9.8125 72.90625 
L 30.078125 72.90625 
Q 51.265625 72.90625 61.171875 64.09375 
Q 71.09375 55.28125 71.09375 36.53125 
Q 71.09375 17.671875 61.125 8.828125 
Q 51.171875 0 30.078125 0 
L 9.8125 0 
z
" id="DejaVuSans-68"/>
     <path d="M 19.671875 64.796875 
L 19.671875 37.40625 
L 32.078125 37.40625 
Q 38.96875 37.40625 42.71875 40.96875 
Q 46.484375 44.53125 46.484375 51.125 
Q 46.484375 57.671875 42.71875 61.234375 
Q 38.96875 64.796875 32.078125 64.796875 
z
M 9.8125 72.90625 
L 32.078125 72.90625 
Q 44.34375 72.90625 50.609375 67.359375 
Q 56.890625 61.8125 56.890625 51.125 
Q 56.890625 40.328125 50.609375 34.8125 
Q 44.34375 29.296875 32.078125 29.296875 
L 19.671875 29.296875 
L 19.671875 0 
L 9.8125 0 
z
" id="DejaVuSans-80"/>
    </defs>
    <g transform="translate(706.486562 69.44)scale(0.18 -0.18)">
     <use xlink:href="#DejaVuSans-65"/>
     <use x="68.408203" xlink:href="#DejaVuSans-117"/>
     <use x="131.787109" xlink:href="#DejaVuSans-116"/>
     <use x="170.996094" xlink:href="#DejaVuSans-111"/>
     <use x="232.177734" xlink:href="#DejaVuSans-110"/>
     <use x="295.556641" xlink:href="#DejaVuSans-111"/>
     <use x="356.738281" xlink:href="#DejaVuSans-109"/>
     <use x="454.150391" xlink:href="#DejaVuSans-111"/>
     <use x="515.332031" xlink:href="#DejaVuSans-117"/>
     <use x="578.710938" xlink:href="#DejaVuSans-115"/>
     <use x="630.810547" xlink:href="#DejaVuSans-32"/>
     <use x="662.597656" xlink:href="#DejaVuSans-101"/>
     <use x="722.371094" xlink:href="#DejaVuSans-120"/>
     <use x="781.550781" xlink:href="#DejaVuSans-112"/>
     <use x="845.027344" xlink:href="#DejaVuSans-101"/>
     <use x="906.550781" xlink:href="#DejaVuSans-110"/>
     <use x="969.929688" xlink:href="#DejaVuSans-100"/>
     <use x="1033.40625" xlink:href="#DejaVuSans-105"/>
     <use x="1061.189453" xlink:href="#DejaVuSans-116"/>
     <use x="1100.398438" xlink:href="#DejaVuSans-117"/>
     <use x="1163.777344" xlink:href="#DejaVuSans-114"/>
     <use x="1202.640625" xlink:href="#DejaVuSans-101"/>
     <use x="1264.164062" xlink:href="#DejaVuSans-115"/>
     <use x="1316.263672" xlink:href="#DejaVuSans-32"/>
     <use x="1348.050781" xlink:href="#DejaVuSans-115"/>
     <use x="1400.150391" xlink:href="#DejaVuSans-104"/>
     <use x="1463.529297" xlink:href="#DejaVuSans-97"/>
     <use x="1524.808594" xlink:href="#DejaVuSans-114"/>
     <use x="1563.671875" xlink:href="#DejaVuSans-101"/>
     <use x="1625.195312" xlink:href="#DejaVuSans-32"/>
     <use x="1656.982422" xlink:href="#DejaVuSans-111"/>
     <use x="1718.164062" xlink:href="#DejaVuSans-110"/>
     <use x="1781.542969" xlink:href="#DejaVuSans-32"/>
     <use x="1813.330078" xlink:href="#DejaVuSans-71"/>
     <use x="1890.820312" xlink:href="#DejaVuSans-68"/>
     <use x="1967.822266" xlink:href="#DejaVuSans-80"/>
    </g>
   </g>
   <g id="legend_2">
    <g id="patch_10">
     <path d="M 851.085 357.348361 
L 930.945 357.348361 
Q 934.245 357.348361 934.245 354.048361 
L 934.245 331.479455 
Q 934.245 328.179455 930.945 328.179455 
L 851.085 328.179455 
Q 847.785 328.179455 847.785 331.479455 
L 847.785 354.048361 
Q 847.785 357.348361 851.085 357.348361 
z
" style="fill:#4c4c4c;opacity:0.5;stroke:#4c4c4c;stroke-linejoin:miter;stroke-width:1.5;"/>
    </g>
    <g id="patch_11">
     <path d="M 849.085 355.348361 
L 928.945 355.348361 
Q 932.245 355.348361 932.245 352.048361 
L 932.245 329.479455 
Q 932.245 326.179455 928.945 326.179455 
L 849.085 326.179455 
Q 845.785 326.179455 845.785 329.479455 
L 845.785 352.048361 
Q 845.785 355.348361 849.085 355.348361 
z
" style="fill:#ffffff;stroke:#cccccc;stroke-linejoin:miter;stroke-width:1.5;"/>
    </g>
    <g id="line2d_36">
     <path d="M 852.385 339.541876 
L 885.385 339.541876 
" style="fill:none;stroke:#8b0000;stroke-linecap:square;stroke-width:3;"/>
    </g>
    <g id="line2d_37"/>
    <g id="text_28">
     <!-- $Z/Y$ -->
     <defs>
      <path d="M 13.09375 72.90625 
L 70.3125 72.90625 
L 68.890625 65.375 
L 12.40625 8.296875 
L 58.890625 8.296875 
L 57.328125 0 
L -2.203125 0 
L -0.78125 7.515625 
L 55.71875 64.59375 
L 11.53125 64.59375 
z
" id="DejaVuSans-Oblique-90"/>
      <path d="M 25.390625 72.90625 
L 33.6875 72.90625 
L 8.296875 -9.28125 
L 0 -9.28125 
z
" id="DejaVuSans-47"/>
     </defs>
     <g transform="translate(898.585 345.316876)scale(0.165 -0.165)">
      <use transform="translate(0 0.09375)" xlink:href="#DejaVuSans-Oblique-90"/>
      <use transform="translate(68.505859 0.09375)" xlink:href="#DejaVuSans-47"/>
      <use transform="translate(102.197266 0.09375)" xlink:href="#DejaVuSans-Oblique-89"/>
     </g>
    </g>
   </g>
  </g>
  <g id="axes_3">
   <g id="patch_12">
    <path d="M 79.19 648.46 
L 566.28 648.46 
L 566.28 423.932727 
L 79.19 423.932727 
z
" style="fill:#ffffff;"/>
   </g>
   <g id="matplotlib.axis_5">
    <g id="xtick_13">
     <g id="line2d_38">
      <g>
       <use style="stroke:#000000;stroke-width:1.875;" x="101.330455" xlink:href="#m99b8542751" y="648.46"/>
      </g>
     </g>
     <g id="text_29">
      <!-- 0 -->
      <g transform="translate(96.081392 673.497422)scale(0.165 -0.165)">
       <use xlink:href="#DejaVuSans-48"/>
      </g>
     </g>
    </g>
    <g id="xtick_14">
     <g id="line2d_39">
      <g>
       <use style="stroke:#000000;stroke-width:1.875;" x="185.675043" xlink:href="#m99b8542751" y="648.46"/>
      </g>
     </g>
     <g id="text_30">
      <!-- 200 -->
      <g transform="translate(169.927856 673.497422)scale(0.165 -0.165)">
       <use xlink:href="#DejaVuSans-50"/>
       <use x="63.623047" xlink:href="#DejaVuSans-48"/>
       <use x="127.246094" xlink:href="#DejaVuSans-48"/>
      </g>
     </g>
    </g>
    <g id="xtick_15">
     <g id="line2d_40">
      <g>
       <use style="stroke:#000000;stroke-width:1.875;" x="270.019632" xlink:href="#m99b8542751" y="648.46"/>
      </g>
     </g>
     <g id="text_31">
      <!-- 400 -->
      <g transform="translate(254.272445 673.497422)scale(0.165 -0.165)">
       <use xlink:href="#DejaVuSans-52"/>
       <use x="63.623047" xlink:href="#DejaVuSans-48"/>
       <use x="127.246094" xlink:href="#DejaVuSans-48"/>
      </g>
     </g>
    </g>
    <g id="xtick_16">
     <g id="line2d_41">
      <g>
       <use style="stroke:#000000;stroke-width:1.875;" x="354.364221" xlink:href="#m99b8542751" y="648.46"/>
      </g>
     </g>
     <g id="text_32">
      <!-- 600 -->
      <g transform="translate(338.617033 673.497422)scale(0.165 -0.165)">
       <use xlink:href="#DejaVuSans-54"/>
       <use x="63.623047" xlink:href="#DejaVuSans-48"/>
       <use x="127.246094" xlink:href="#DejaVuSans-48"/>
      </g>
     </g>
    </g>
    <g id="xtick_17">
     <g id="line2d_42">
      <g>
       <use style="stroke:#000000;stroke-width:1.875;" x="438.70881" xlink:href="#m99b8542751" y="648.46"/>
      </g>
     </g>
     <g id="text_33">
      <!-- 800 -->
      <g transform="translate(422.961622 673.497422)scale(0.165 -0.165)">
       <use xlink:href="#DejaVuSans-56"/>
       <use x="63.623047" xlink:href="#DejaVuSans-48"/>
       <use x="127.246094" xlink:href="#DejaVuSans-48"/>
      </g>
     </g>
    </g>
    <g id="xtick_18">
     <g id="line2d_43">
      <g>
       <use style="stroke:#000000;stroke-width:1.875;" x="523.053398" xlink:href="#m99b8542751" y="648.46"/>
      </g>
     </g>
     <g id="text_34">
      <!-- 1000 -->
      <g transform="translate(502.057148 673.497422)scale(0.165 -0.165)">
       <use xlink:href="#DejaVuSans-49"/>
       <use x="63.623047" xlink:href="#DejaVuSans-48"/>
       <use x="127.246094" xlink:href="#DejaVuSans-48"/>
       <use x="190.869141" xlink:href="#DejaVuSans-48"/>
      </g>
     </g>
    </g>
   </g>
   <g id="matplotlib.axis_6">
    <g id="ytick_10">
     <g id="line2d_44">
      <g>
       <use style="stroke:#000000;stroke-width:1.875;" x="79.19" xlink:href="#mb1af368150" y="623.670955"/>
      </g>
     </g>
     <g id="text_35">
      <!-- 0.78 -->
      <g transform="translate(29.951719 629.939666)scale(0.165 -0.165)">
       <use xlink:href="#DejaVuSans-48"/>
       <use x="63.623047" xlink:href="#DejaVuSans-46"/>
       <use x="95.410156" xlink:href="#DejaVuSans-55"/>
       <use x="159.033203" xlink:href="#DejaVuSans-56"/>
      </g>
     </g>
    </g>
    <g id="ytick_11">
     <g id="line2d_45">
      <g>
       <use style="stroke:#000000;stroke-width:1.875;" x="79.19" xlink:href="#mb1af368150" y="580.373192"/>
      </g>
     </g>
     <g id="text_36">
      <!-- 0.80 -->
      <g transform="translate(29.951719 586.641903)scale(0.165 -0.165)">
       <use xlink:href="#DejaVuSans-48"/>
       <use x="63.623047" xlink:href="#DejaVuSans-46"/>
       <use x="95.410156" xlink:href="#DejaVuSans-56"/>
       <use x="159.033203" xlink:href="#DejaVuSans-48"/>
      </g>
     </g>
    </g>
    <g id="ytick_12">
     <g id="line2d_46">
      <g>
       <use style="stroke:#000000;stroke-width:1.875;" x="79.19" xlink:href="#mb1af368150" y="537.07543"/>
      </g>
     </g>
     <g id="text_37">
      <!-- 0.82 -->
      <g transform="translate(29.951719 543.344141)scale(0.165 -0.165)">
       <use xlink:href="#DejaVuSans-48"/>
       <use x="63.623047" xlink:href="#DejaVuSans-46"/>
       <use x="95.410156" xlink:href="#DejaVuSans-56"/>
       <use x="159.033203" xlink:href="#DejaVuSans-50"/>
      </g>
     </g>
    </g>
    <g id="ytick_13">
     <g id="line2d_47">
      <g>
       <use style="stroke:#000000;stroke-width:1.875;" x="79.19" xlink:href="#mb1af368150" y="493.777667"/>
      </g>
     </g>
     <g id="text_38">
      <!-- 0.84 -->
      <g transform="translate(29.951719 500.046378)scale(0.165 -0.165)">
       <use xlink:href="#DejaVuSans-48"/>
       <use x="63.623047" xlink:href="#DejaVuSans-46"/>
       <use x="95.410156" xlink:href="#DejaVuSans-56"/>
       <use x="159.033203" xlink:href="#DejaVuSans-52"/>
      </g>
     </g>
    </g>
    <g id="ytick_14">
     <g id="line2d_48">
      <g>
       <use style="stroke:#000000;stroke-width:1.875;" x="79.19" xlink:href="#mb1af368150" y="450.479905"/>
      </g>
     </g>
     <g id="text_39">
      <!-- 0.86 -->
      <g transform="translate(29.951719 456.748616)scale(0.165 -0.165)">
       <use xlink:href="#DejaVuSans-48"/>
       <use x="63.623047" xlink:href="#DejaVuSans-46"/>
       <use x="95.410156" xlink:href="#DejaVuSans-56"/>
       <use x="159.033203" xlink:href="#DejaVuSans-54"/>
      </g>
     </g>
    </g>
   </g>
   <g id="line2d_49">
    <path clip-path="url(#pf43f5e10b0)" d="M 101.330455 580.344504 
L 122.416602 580.372761 
L 124.525216 539.514328 
L 126.212108 510.305953 
L 127.899 485.063166 
L 129.164169 469.144482 
L 130.429338 456.061822 
L 131.272784 448.990156 
L 132.116229 443.28379 
L 132.959675 438.954867 
L 133.803121 436.005953 
L 134.224844 435.04548 
L 134.646567 434.425069 
L 135.06829 434.138512 
L 135.490013 434.179699 
L 135.911736 434.543621 
L 136.333459 435.220054 
L 136.755182 436.203768 
L 137.598628 439.061562 
L 138.442074 443.03272 
L 139.285519 448.038485 
L 140.550688 457.258015 
L 141.815857 468.226576 
L 143.502749 484.939243 
L 146.033087 512.669805 
L 150.250316 559.369694 
L 152.358931 580.319876 
L 154.045823 595.121939 
L 155.732714 607.879622 
L 156.997883 616.002403 
L 158.263052 622.844344 
L 159.528221 628.396298 
L 160.79339 632.671899 
L 161.636835 634.828925 
L 162.480281 636.447223 
L 163.323727 637.543835 
L 164.167173 638.138411 
L 164.588896 638.254215 
L 165.010619 638.252907 
L 165.854065 637.911296 
L 166.697511 637.139298 
L 167.540957 635.964137 
L 168.384403 634.414306 
L 169.649571 631.445606 
L 170.91474 627.81038 
L 172.601632 622.099451 
L 174.710247 613.930025 
L 178.08403 599.630695 
L 181.879537 583.778288 
L 183.988152 575.895835 
L 185.675043 570.336863 
L 187.361935 565.576593 
L 188.627104 562.575866 
L 189.892273 560.093061 
L 191.157442 558.140384 
L 192.42261 556.719473 
L 193.266056 556.063851 
L 194.109502 555.636154 
L 194.952948 555.429781 
L 195.796394 555.436509 
L 196.63984 555.646635 
L 197.483286 556.049123 
L 198.748455 556.986547 
L 200.013623 558.283795 
L 201.278792 559.891758 
L 202.965684 562.429544 
L 205.074299 566.058041 
L 213.508758 581.248096 
L 215.617372 584.293158 
L 217.304264 586.339914 
L 218.991156 588.006474 
L 220.256325 588.990225 
L 221.521494 589.756744 
L 222.786662 590.301601 
L 224.051831 590.631091 
L 225.317 590.754809 
L 226.582169 590.685228 
L 227.847338 590.437278 
L 229.534229 589.858755 
L 231.221121 589.037851 
L 233.329736 587.743653 
L 236.281797 585.603694 
L 243.451087 580.233139 
L 245.981424 578.686844 
L 248.090039 577.642199 
L 250.198654 576.847376 
L 252.307268 576.312981 
L 254.415883 576.035759 
L 256.524498 576.000255 
L 258.633113 576.180908 
L 261.16345 576.635767 
L 264.115511 577.409346 
L 269.176186 579.031142 
L 274.236861 580.581484 
L 277.610645 581.382963 
L 280.562706 581.870939 
L 283.514766 582.144716 
L 286.466827 582.212572 
L 289.84061 582.071794 
L 294.05784 581.655202 
L 310.083312 579.78622 
L 314.722264 579.609391 
L 319.782939 579.648983 
L 326.530506 579.953265 
L 340.025641 580.611711 
L 347.194931 580.698282 
L 356.051113 580.566992 
L 374.606922 580.240062 
L 387.680333 580.305353 
L 410.453372 580.427253 
L 488.89384 580.371088 
L 544.139545 580.373394 
L 544.139545 580.373394 
" style="fill:none;stroke:#8b0000;stroke-linecap:square;stroke-width:3;"/>
   </g>
   <g id="line2d_50">
    <path clip-path="url(#pf43f5e10b0)" d="M 79.19 580.373192 
L 566.28 580.373192 
" style="fill:none;stroke:#808080;stroke-dasharray:8.325,3.6;stroke-dashoffset:0;stroke-width:2.25;"/>
   </g>
   <g id="patch_13">
    <path d="M 79.19 648.46 
L 79.19 423.932727 
" style="fill:none;stroke:#000000;stroke-linecap:square;stroke-linejoin:miter;stroke-width:1.875;"/>
   </g>
   <g id="patch_14">
    <path d="M 79.19 648.46 
L 566.28 648.46 
" style="fill:none;stroke:#000000;stroke-linecap:square;stroke-linejoin:miter;stroke-width:1.875;"/>
   </g>
   <g id="text_40">
    <!-- Capacity utilization ratio -->
    <defs>
     <path d="M 64.40625 67.28125 
L 64.40625 56.890625 
Q 59.421875 61.53125 53.78125 63.8125 
Q 48.140625 66.109375 41.796875 66.109375 
Q 29.296875 66.109375 22.65625 58.46875 
Q 16.015625 50.828125 16.015625 36.375 
Q 16.015625 21.96875 22.65625 14.328125 
Q 29.296875 6.6875 41.796875 6.6875 
Q 48.140625 6.6875 53.78125 8.984375 
Q 59.421875 11.28125 64.40625 15.921875 
L 64.40625 5.609375 
Q 59.234375 2.09375 53.4375 0.328125 
Q 47.65625 -1.421875 41.21875 -1.421875 
Q 24.65625 -1.421875 15.125 8.703125 
Q 5.609375 18.84375 5.609375 36.375 
Q 5.609375 53.953125 15.125 64.078125 
Q 24.65625 74.21875 41.21875 74.21875 
Q 47.75 74.21875 53.53125 72.484375 
Q 59.328125 70.75 64.40625 67.28125 
z
" id="DejaVuSans-67"/>
     <path d="M 48.78125 52.59375 
L 48.78125 44.1875 
Q 44.96875 46.296875 41.140625 47.34375 
Q 37.3125 48.390625 33.40625 48.390625 
Q 24.65625 48.390625 19.8125 42.84375 
Q 14.984375 37.3125 14.984375 27.296875 
Q 14.984375 17.28125 19.8125 11.734375 
Q 24.65625 6.203125 33.40625 6.203125 
Q 37.3125 6.203125 41.140625 7.25 
Q 44.96875 8.296875 48.78125 10.40625 
L 48.78125 2.09375 
Q 45.015625 0.34375 40.984375 -0.53125 
Q 36.96875 -1.421875 32.421875 -1.421875 
Q 20.0625 -1.421875 12.78125 6.34375 
Q 5.515625 14.109375 5.515625 27.296875 
Q 5.515625 40.671875 12.859375 48.328125 
Q 20.21875 56 33.015625 56 
Q 37.15625 56 41.109375 55.140625 
Q 45.0625 54.296875 48.78125 52.59375 
z
" id="DejaVuSans-99"/>
     <path d="M 32.171875 -5.078125 
Q 28.375 -14.84375 24.75 -17.8125 
Q 21.140625 -20.796875 15.09375 -20.796875 
L 7.90625 -20.796875 
L 7.90625 -13.28125 
L 13.1875 -13.28125 
Q 16.890625 -13.28125 18.9375 -11.515625 
Q 21 -9.765625 23.484375 -3.21875 
L 25.09375 0.875 
L 2.984375 54.6875 
L 12.5 54.6875 
L 29.59375 11.921875 
L 46.6875 54.6875 
L 56.203125 54.6875 
z
" id="DejaVuSans-121"/>
     <path d="M 9.421875 75.984375 
L 18.40625 75.984375 
L 18.40625 0 
L 9.421875 0 
z
" id="DejaVuSans-108"/>
     <path d="M 5.515625 54.6875 
L 48.1875 54.6875 
L 48.1875 46.484375 
L 14.40625 7.171875 
L 48.1875 7.171875 
L 48.1875 0 
L 4.296875 0 
L 4.296875 8.203125 
L 38.09375 47.515625 
L 5.515625 47.515625 
z
" id="DejaVuSans-122"/>
    </defs>
    <g transform="translate(212.719844 417.932727)scale(0.18 -0.18)">
     <use xlink:href="#DejaVuSans-67"/>
     <use x="69.824219" xlink:href="#DejaVuSans-97"/>
     <use x="131.103516" xlink:href="#DejaVuSans-112"/>
     <use x="194.580078" xlink:href="#DejaVuSans-97"/>
     <use x="255.859375" xlink:href="#DejaVuSans-99"/>
     <use x="310.839844" xlink:href="#DejaVuSans-105"/>
     <use x="338.623047" xlink:href="#DejaVuSans-116"/>
     <use x="377.832031" xlink:href="#DejaVuSans-121"/>
     <use x="437.011719" xlink:href="#DejaVuSans-32"/>
     <use x="468.798828" xlink:href="#DejaVuSans-117"/>
     <use x="532.177734" xlink:href="#DejaVuSans-116"/>
     <use x="571.386719" xlink:href="#DejaVuSans-105"/>
     <use x="599.169922" xlink:href="#DejaVuSans-108"/>
     <use x="626.953125" xlink:href="#DejaVuSans-105"/>
     <use x="654.736328" xlink:href="#DejaVuSans-122"/>
     <use x="707.226562" xlink:href="#DejaVuSans-97"/>
     <use x="768.505859" xlink:href="#DejaVuSans-116"/>
     <use x="807.714844" xlink:href="#DejaVuSans-105"/>
     <use x="835.498047" xlink:href="#DejaVuSans-111"/>
     <use x="896.679688" xlink:href="#DejaVuSans-110"/>
     <use x="960.058594" xlink:href="#DejaVuSans-32"/>
     <use x="991.845703" xlink:href="#DejaVuSans-114"/>
     <use x="1032.958984" xlink:href="#DejaVuSans-97"/>
     <use x="1094.238281" xlink:href="#DejaVuSans-116"/>
     <use x="1133.447266" xlink:href="#DejaVuSans-105"/>
     <use x="1161.230469" xlink:href="#DejaVuSans-111"/>
    </g>
   </g>
  </g>
  <g id="axes_4">
   <g id="patch_15">
    <path d="M 645.47 648.46 
L 1132.56 648.46 
L 1132.56 423.932727 
L 645.47 423.932727 
z
" style="fill:#ffffff;"/>
   </g>
   <g id="matplotlib.axis_7">
    <g id="xtick_19">
     <g id="line2d_51">
      <g>
       <use style="stroke:#000000;stroke-width:1.875;" x="667.610455" xlink:href="#m99b8542751" y="648.46"/>
      </g>
     </g>
     <g id="text_41">
      <!-- 0 -->
      <g transform="translate(662.361392 673.497422)scale(0.165 -0.165)">
       <use xlink:href="#DejaVuSans-48"/>
      </g>
     </g>
    </g>
    <g id="xtick_20">
     <g id="line2d_52">
      <g>
       <use style="stroke:#000000;stroke-width:1.875;" x="751.955043" xlink:href="#m99b8542751" y="648.46"/>
      </g>
     </g>
     <g id="text_42">
      <!-- 200 -->
      <g transform="translate(736.207856 673.497422)scale(0.165 -0.165)">
       <use xlink:href="#DejaVuSans-50"/>
       <use x="63.623047" xlink:href="#DejaVuSans-48"/>
       <use x="127.246094" xlink:href="#DejaVuSans-48"/>
      </g>
     </g>
    </g>
    <g id="xtick_21">
     <g id="line2d_53">
      <g>
       <use style="stroke:#000000;stroke-width:1.875;" x="836.299632" xlink:href="#m99b8542751" y="648.46"/>
      </g>
     </g>
     <g id="text_43">
      <!-- 400 -->
      <g transform="translate(820.552445 673.497422)scale(0.165 -0.165)">
       <use xlink:href="#DejaVuSans-52"/>
       <use x="63.623047" xlink:href="#DejaVuSans-48"/>
       <use x="127.246094" xlink:href="#DejaVuSans-48"/>
      </g>
     </g>
    </g>
    <g id="xtick_22">
     <g id="line2d_54">
      <g>
       <use style="stroke:#000000;stroke-width:1.875;" x="920.644221" xlink:href="#m99b8542751" y="648.46"/>
      </g>
     </g>
     <g id="text_44">
      <!-- 600 -->
      <g transform="translate(904.897033 673.497422)scale(0.165 -0.165)">
       <use xlink:href="#DejaVuSans-54"/>
       <use x="63.623047" xlink:href="#DejaVuSans-48"/>
       <use x="127.246094" xlink:href="#DejaVuSans-48"/>
      </g>
     </g>
    </g>
    <g id="xtick_23">
     <g id="line2d_55">
      <g>
       <use style="stroke:#000000;stroke-width:1.875;" x="1004.98881" xlink:href="#m99b8542751" y="648.46"/>
      </g>
     </g>
     <g id="text_45">
      <!-- 800 -->
      <g transform="translate(989.241622 673.497422)scale(0.165 -0.165)">
       <use xlink:href="#DejaVuSans-56"/>
       <use x="63.623047" xlink:href="#DejaVuSans-48"/>
       <use x="127.246094" xlink:href="#DejaVuSans-48"/>
      </g>
     </g>
    </g>
    <g id="xtick_24">
     <g id="line2d_56">
      <g>
       <use style="stroke:#000000;stroke-width:1.875;" x="1089.333398" xlink:href="#m99b8542751" y="648.46"/>
      </g>
     </g>
     <g id="text_46">
      <!-- 1000 -->
      <g transform="translate(1068.337148 673.497422)scale(0.165 -0.165)">
       <use xlink:href="#DejaVuSans-49"/>
       <use x="63.623047" xlink:href="#DejaVuSans-48"/>
       <use x="127.246094" xlink:href="#DejaVuSans-48"/>
       <use x="190.869141" xlink:href="#DejaVuSans-48"/>
      </g>
     </g>
    </g>
   </g>
   <g id="matplotlib.axis_8">
    <g id="ytick_15">
     <g id="line2d_57">
      <g>
       <use style="stroke:#000000;stroke-width:1.875;" x="645.47" xlink:href="#mb1af368150" y="610.271591"/>
      </g>
     </g>
     <g id="text_47">
      <!-- 0.0375 -->
      <g transform="translate(575.235469 616.540302)scale(0.165 -0.165)">
       <use xlink:href="#DejaVuSans-48"/>
       <use x="63.623047" xlink:href="#DejaVuSans-46"/>
       <use x="95.410156" xlink:href="#DejaVuSans-48"/>
       <use x="159.033203" xlink:href="#DejaVuSans-51"/>
       <use x="222.65625" xlink:href="#DejaVuSans-55"/>
       <use x="286.279297" xlink:href="#DejaVuSans-53"/>
      </g>
     </g>
    </g>
    <g id="ytick_16">
     <g id="line2d_58">
      <g>
       <use style="stroke:#000000;stroke-width:1.875;" x="645.47" xlink:href="#mb1af368150" y="563.659662"/>
      </g>
     </g>
     <g id="text_48">
      <!-- 0.0400 -->
      <g transform="translate(575.235469 569.928372)scale(0.165 -0.165)">
       <use xlink:href="#DejaVuSans-48"/>
       <use x="63.623047" xlink:href="#DejaVuSans-46"/>
       <use x="95.410156" xlink:href="#DejaVuSans-48"/>
       <use x="159.033203" xlink:href="#DejaVuSans-52"/>
       <use x="222.65625" xlink:href="#DejaVuSans-48"/>
       <use x="286.279297" xlink:href="#DejaVuSans-48"/>
      </g>
     </g>
    </g>
    <g id="ytick_17">
     <g id="line2d_59">
      <g>
       <use style="stroke:#000000;stroke-width:1.875;" x="645.47" xlink:href="#mb1af368150" y="517.047732"/>
      </g>
     </g>
     <g id="text_49">
      <!-- 0.0425 -->
      <g transform="translate(575.235469 523.316443)scale(0.165 -0.165)">
       <use xlink:href="#DejaVuSans-48"/>
       <use x="63.623047" xlink:href="#DejaVuSans-46"/>
       <use x="95.410156" xlink:href="#DejaVuSans-48"/>
       <use x="159.033203" xlink:href="#DejaVuSans-52"/>
       <use x="222.65625" xlink:href="#DejaVuSans-50"/>
       <use x="286.279297" xlink:href="#DejaVuSans-53"/>
      </g>
     </g>
    </g>
    <g id="ytick_18">
     <g id="line2d_60">
      <g>
       <use style="stroke:#000000;stroke-width:1.875;" x="645.47" xlink:href="#mb1af368150" y="470.435803"/>
      </g>
     </g>
     <g id="text_50">
      <!-- 0.0450 -->
      <g transform="translate(575.235469 476.704514)scale(0.165 -0.165)">
       <use xlink:href="#DejaVuSans-48"/>
       <use x="63.623047" xlink:href="#DejaVuSans-46"/>
       <use x="95.410156" xlink:href="#DejaVuSans-48"/>
       <use x="159.033203" xlink:href="#DejaVuSans-52"/>
       <use x="222.65625" xlink:href="#DejaVuSans-53"/>
       <use x="286.279297" xlink:href="#DejaVuSans-48"/>
      </g>
     </g>
    </g>
   </g>
   <g id="line2d_61">
    <path clip-path="url(#pd6a96a39ff)" d="M 667.610455 638.254215 
L 688.696602 638.228068 
L 689.118325 637.991387 
L 689.540048 637.521669 
L 689.961771 636.822947 
L 690.805216 634.755272 
L 691.648662 631.823757 
L 692.492108 628.066952 
L 693.757277 620.977293 
L 695.022446 612.284199 
L 696.287615 602.166405 
L 697.974506 586.808566 
L 700.083121 565.367894 
L 707.674134 485.424558 
L 709.361026 470.798758 
L 711.047918 458.363342 
L 712.313087 450.651308 
L 713.578255 444.405951 
L 714.421701 441.073926 
L 715.265147 438.407418 
L 716.108593 436.3984 
L 716.952039 435.032089 
L 717.795485 434.287576 
L 718.217208 434.140453 
L 718.638931 434.138512 
L 719.060654 434.277731 
L 719.9041 434.962333 
L 720.747545 436.15752 
L 721.590991 437.823688 
L 722.434437 439.919075 
L 723.699606 443.772073 
L 724.964775 448.34426 
L 726.651667 455.301667 
L 729.182004 466.892951 
L 734.664403 492.387671 
L 736.773017 501.012315 
L 738.459909 507.093685 
L 740.146801 512.331177 
L 741.41197 515.661675 
L 742.677139 518.459062 
L 743.942307 520.714919 
L 745.207476 522.429714 
L 746.050922 523.276305 
L 746.894368 523.890322 
L 747.737814 524.277977 
L 748.58126 524.446487 
L 749.424706 524.404304 
L 750.268152 524.161013 
L 751.111597 523.727241 
L 752.376766 522.744964 
L 753.641935 521.403097 
L 754.907104 519.747363 
L 756.593996 517.135305 
L 758.70261 513.388661 
L 762.498117 506.005566 
L 765.8719 499.626169 
L 767.980515 496.08196 
L 769.667407 493.60829 
L 771.354299 491.512225 
L 773.04119 489.82751 
L 774.306359 488.844997 
L 775.571528 488.105468 
L 776.836697 487.605003 
L 778.101866 487.335868 
L 779.367035 487.286509 
L 780.632203 487.442073 
L 781.897372 487.784954 
L 783.584264 488.499039 
L 785.271156 489.459534 
L 787.379771 490.923444 
L 790.331831 493.27407 
L 796.235952 498.038023 
L 798.76629 499.762956 
L 800.874905 500.953179 
L 802.983519 501.88504 
L 805.092134 502.543571 
L 807.200749 502.928398 
L 809.309364 503.052095 
L 811.417978 502.938165 
L 813.526593 502.618755 
L 816.056931 502.018529 
L 819.430714 500.970649 
L 828.708619 497.924422 
L 831.66068 497.225697 
L 834.61274 496.744554 
L 837.564801 496.491815 
L 840.516861 496.455332 
L 843.890645 496.638843 
L 848.107874 497.109439 
L 862.446455 498.944375 
L 867.085407 499.191074 
L 871.724359 499.211619 
L 877.628481 498.990092 
L 896.18429 498.090749 
L 903.35358 498.078649 
L 914.318377 498.320686 
L 926.970065 498.540588 
L 938.778307 498.502304 
L 964.92513 498.34974 
L 1021.436004 498.394117 
L 1110.419545 498.405746 
L 1110.419545 498.405746 
" style="fill:none;stroke:#8b0000;stroke-linecap:square;stroke-width:3;"/>
   </g>
   <g id="line2d_62">
    <path clip-path="url(#pd6a96a39ff)" d="M 645.47 638.254215 
L 1132.56 638.254215 
" style="fill:none;stroke:#808080;stroke-dasharray:8.325,3.6;stroke-dashoffset:0;stroke-width:2.25;"/>
   </g>
   <g id="patch_16">
    <path d="M 645.47 648.46 
L 645.47 423.932727 
" style="fill:none;stroke:#000000;stroke-linecap:square;stroke-linejoin:miter;stroke-width:1.875;"/>
   </g>
   <g id="patch_17">
    <path d="M 645.47 648.46 
L 1132.56 648.46 
" style="fill:none;stroke:#000000;stroke-linecap:square;stroke-linejoin:miter;stroke-width:1.875;"/>
   </g>
   <g id="text_51">
    <!-- Marginal propensity to invest -->
    <defs>
     <path d="M 9.8125 72.90625 
L 24.515625 72.90625 
L 43.109375 23.296875 
L 61.8125 72.90625 
L 76.515625 72.90625 
L 76.515625 0 
L 66.890625 0 
L 66.890625 64.015625 
L 48.09375 14.015625 
L 38.1875 14.015625 
L 19.390625 64.015625 
L 19.390625 0 
L 9.8125 0 
z
" id="DejaVuSans-77"/>
     <path d="M 45.40625 27.984375 
Q 45.40625 37.75 41.375 43.109375 
Q 37.359375 48.484375 30.078125 48.484375 
Q 22.859375 48.484375 18.828125 43.109375 
Q 14.796875 37.75 14.796875 27.984375 
Q 14.796875 18.265625 18.828125 12.890625 
Q 22.859375 7.515625 30.078125 7.515625 
Q 37.359375 7.515625 41.375 12.890625 
Q 45.40625 18.265625 45.40625 27.984375 
z
M 54.390625 6.78125 
Q 54.390625 -7.171875 48.1875 -13.984375 
Q 42 -20.796875 29.203125 -20.796875 
Q 24.46875 -20.796875 20.265625 -20.09375 
Q 16.0625 -19.390625 12.109375 -17.921875 
L 12.109375 -9.1875 
Q 16.0625 -11.328125 19.921875 -12.34375 
Q 23.78125 -13.375 27.78125 -13.375 
Q 36.625 -13.375 41.015625 -8.765625 
Q 45.40625 -4.15625 45.40625 5.171875 
L 45.40625 9.625 
Q 42.625 4.78125 38.28125 2.390625 
Q 33.9375 0 27.875 0 
Q 17.828125 0 11.671875 7.65625 
Q 5.515625 15.328125 5.515625 27.984375 
Q 5.515625 40.671875 11.671875 48.328125 
Q 17.828125 56 27.875 56 
Q 33.9375 56 38.28125 53.609375 
Q 42.625 51.21875 45.40625 46.390625 
L 45.40625 54.6875 
L 54.390625 54.6875 
z
" id="DejaVuSans-103"/>
     <path d="M 2.984375 54.6875 
L 12.5 54.6875 
L 29.59375 8.796875 
L 46.6875 54.6875 
L 56.203125 54.6875 
L 35.6875 0 
L 23.484375 0 
z
" id="DejaVuSans-118"/>
    </defs>
    <g transform="translate(757.640312 417.932727)scale(0.18 -0.18)">
     <use xlink:href="#DejaVuSans-77"/>
     <use x="86.279297" xlink:href="#DejaVuSans-97"/>
     <use x="147.558594" xlink:href="#DejaVuSans-114"/>
     <use x="186.921875" xlink:href="#DejaVuSans-103"/>
     <use x="250.398438" xlink:href="#DejaVuSans-105"/>
     <use x="278.181641" xlink:href="#DejaVuSans-110"/>
     <use x="341.560547" xlink:href="#DejaVuSans-97"/>
     <use x="402.839844" xlink:href="#DejaVuSans-108"/>
     <use x="430.623047" xlink:href="#DejaVuSans-32"/>
     <use x="462.410156" xlink:href="#DejaVuSans-112"/>
     <use x="525.886719" xlink:href="#DejaVuSans-114"/>
     <use x="564.75" xlink:href="#DejaVuSans-111"/>
     <use x="625.931641" xlink:href="#DejaVuSans-112"/>
     <use x="689.408203" xlink:href="#DejaVuSans-101"/>
     <use x="750.931641" xlink:href="#DejaVuSans-110"/>
     <use x="814.310547" xlink:href="#DejaVuSans-115"/>
     <use x="866.410156" xlink:href="#DejaVuSans-105"/>
     <use x="894.193359" xlink:href="#DejaVuSans-116"/>
     <use x="933.402344" xlink:href="#DejaVuSans-121"/>
     <use x="992.582031" xlink:href="#DejaVuSans-32"/>
     <use x="1024.369141" xlink:href="#DejaVuSans-116"/>
     <use x="1063.578125" xlink:href="#DejaVuSans-111"/>
     <use x="1124.759766" xlink:href="#DejaVuSans-32"/>
     <use x="1156.546875" xlink:href="#DejaVuSans-105"/>
     <use x="1184.330078" xlink:href="#DejaVuSans-110"/>
     <use x="1247.708984" xlink:href="#DejaVuSans-118"/>
     <use x="1306.888672" xlink:href="#DejaVuSans-101"/>
     <use x="1368.412109" xlink:href="#DejaVuSans-115"/>
     <use x="1420.511719" xlink:href="#DejaVuSans-116"/>
    </g>
   </g>
  </g>
 </g>
 <defs>
  <clipPath id="p6909300b0b">
   <rect height="224.527273" width="487.09" x="79.19" y="75.44"/>
  </clipPath>
  <clipPath id="pc1968fa3b0">
   <rect height="224.527273" width="487.09" x="645.47" y="75.44"/>
  </clipPath>
  <clipPath id="pf43f5e10b0">
   <rect height="224.527273" width="487.09" x="79.19" y="423.932727"/>
  </clipPath>
  <clipPath id="pd6a96a39ff">
   <rect height="224.527273" width="487.09" x="645.47" y="423.932727"/>
  </clipPath>
 </defs>
</svg>
