<?xml version="1.0" encoding="utf-8" standalone="no"?>
<!DOCTYPE svg PUBLIC "-//W3C//DTD SVG 1.1//EN"
  "http://www.w3.org/Graphics/SVG/1.1/DTD/svg11.dtd">
<!-- Created with matplotlib (https://matplotlib.org/) -->
<svg height="720pt" version="1.1" viewBox="0 0 1152 720" width="1152pt" xmlns="http://www.w3.org/2000/svg" xmlns:xlink="http://www.w3.org/1999/xlink">
 <defs>
  <style type="text/css">
*{stroke-linecap:butt;stroke-linejoin:round;}
  </style>
 </defs>
 <g id="figure_1">
  <g id="patch_1">
   <path d="M 0 720 
L 1152 720 
L 1152 0 
L 0 0 
z
" style="fill:#ffffff;"/>
  </g>
  <g id="axes_1">
   <g id="patch_2">
    <path d="M 126.94 266.541818 
L 566.28 266.541818 
L 566.28 96.24 
L 126.94 96.24 
z
" style="fill:#ffffff;"/>
   </g>
   <g id="matplotlib.axis_1">
    <g id="xtick_1">
     <g id="line2d_1">
      <defs>
       <path d="M 0 0 
L 0 9 
" id="m64f705d3b0" style="stroke:#000000;stroke-width:1.875;"/>
      </defs>
      <g>
       <use style="stroke:#000000;stroke-width:1.875;" x="146.91" xlink:href="#m64f705d3b0" y="266.541818"/>
      </g>
     </g>
     <g id="text_1">
      <!-- 0 -->
      <defs>
       <path d="M 31.78125 66.40625 
Q 24.171875 66.40625 20.328125 58.90625 
Q 16.5 51.421875 16.5 36.375 
Q 16.5 21.390625 20.328125 13.890625 
Q 24.171875 6.390625 31.78125 6.390625 
Q 39.453125 6.390625 43.28125 13.890625 
Q 47.125 21.390625 47.125 36.375 
Q 47.125 51.421875 43.28125 58.90625 
Q 39.453125 66.40625 31.78125 66.40625 
z
M 31.78125 74.21875 
Q 44.046875 74.21875 50.515625 64.515625 
Q 56.984375 54.828125 56.984375 36.375 
Q 56.984375 17.96875 50.515625 8.265625 
Q 44.046875 -1.421875 31.78125 -1.421875 
Q 19.53125 -1.421875 13.0625 8.265625 
Q 6.59375 17.96875 6.59375 36.375 
Q 6.59375 54.828125 13.0625 64.515625 
Q 19.53125 74.21875 31.78125 74.21875 
z
" id="DejaVuSans-48"/>
      </defs>
      <g transform="translate(141.660937 291.57924)scale(0.165 -0.165)">
       <use xlink:href="#DejaVuSans-48"/>
      </g>
     </g>
    </g>
    <g id="xtick_2">
     <g id="line2d_2">
      <g>
       <use style="stroke:#000000;stroke-width:1.875;" x="222.98619" xlink:href="#m64f705d3b0" y="266.541818"/>
      </g>
     </g>
     <g id="text_2">
      <!-- 200 -->
      <defs>
       <path d="M 19.1875 8.296875 
L 53.609375 8.296875 
L 53.609375 0 
L 7.328125 0 
L 7.328125 8.296875 
Q 12.9375 14.109375 22.625 23.890625 
Q 32.328125 33.6875 34.8125 36.53125 
Q 39.546875 41.84375 41.421875 45.53125 
Q 43.3125 49.21875 43.3125 52.78125 
Q 43.3125 58.59375 39.234375 62.25 
Q 35.15625 65.921875 28.609375 65.921875 
Q 23.96875 65.921875 18.8125 64.3125 
Q 13.671875 62.703125 7.8125 59.421875 
L 7.8125 69.390625 
Q 13.765625 71.78125 18.9375 73 
Q 24.125 74.21875 28.421875 74.21875 
Q 39.75 74.21875 46.484375 68.546875 
Q 53.21875 62.890625 53.21875 53.421875 
Q 53.21875 48.921875 51.53125 44.890625 
Q 49.859375 40.875 45.40625 35.40625 
Q 44.1875 33.984375 37.640625 27.21875 
Q 31.109375 20.453125 19.1875 8.296875 
z
" id="DejaVuSans-50"/>
      </defs>
      <g transform="translate(207.239003 291.57924)scale(0.165 -0.165)">
       <use xlink:href="#DejaVuSans-50"/>
       <use x="63.623047" xlink:href="#DejaVuSans-48"/>
       <use x="127.246094" xlink:href="#DejaVuSans-48"/>
      </g>
     </g>
    </g>
    <g id="xtick_3">
     <g id="line2d_3">
      <g>
       <use style="stroke:#000000;stroke-width:1.875;" x="299.062381" xlink:href="#m64f705d3b0" y="266.541818"/>
      </g>
     </g>
     <g id="text_3">
      <!-- 400 -->
      <defs>
       <path d="M 37.796875 64.3125 
L 12.890625 25.390625 
L 37.796875 25.390625 
z
M 35.203125 72.90625 
L 47.609375 72.90625 
L 47.609375 25.390625 
L 58.015625 25.390625 
L 58.015625 17.1875 
L 47.609375 17.1875 
L 47.609375 0 
L 37.796875 0 
L 37.796875 17.1875 
L 4.890625 17.1875 
L 4.890625 26.703125 
z
" id="DejaVuSans-52"/>
      </defs>
      <g transform="translate(283.315193 291.57924)scale(0.165 -0.165)">
       <use xlink:href="#DejaVuSans-52"/>
       <use x="63.623047" xlink:href="#DejaVuSans-48"/>
       <use x="127.246094" xlink:href="#DejaVuSans-48"/>
      </g>
     </g>
    </g>
    <g id="xtick_4">
     <g id="line2d_4">
      <g>
       <use style="stroke:#000000;stroke-width:1.875;" x="375.138571" xlink:href="#m64f705d3b0" y="266.541818"/>
      </g>
     </g>
     <g id="text_4">
      <!-- 600 -->
      <defs>
       <path d="M 33.015625 40.375 
Q 26.375 40.375 22.484375 35.828125 
Q 18.609375 31.296875 18.609375 23.390625 
Q 18.609375 15.53125 22.484375 10.953125 
Q 26.375 6.390625 33.015625 6.390625 
Q 39.65625 6.390625 43.53125 10.953125 
Q 47.40625 15.53125 47.40625 23.390625 
Q 47.40625 31.296875 43.53125 35.828125 
Q 39.65625 40.375 33.015625 40.375 
z
M 52.59375 71.296875 
L 52.59375 62.3125 
Q 48.875 64.0625 45.09375 64.984375 
Q 41.3125 65.921875 37.59375 65.921875 
Q 27.828125 65.921875 22.671875 59.328125 
Q 17.53125 52.734375 16.796875 39.40625 
Q 19.671875 43.65625 24.015625 45.921875 
Q 28.375 48.1875 33.59375 48.1875 
Q 44.578125 48.1875 50.953125 41.515625 
Q 57.328125 34.859375 57.328125 23.390625 
Q 57.328125 12.15625 50.6875 5.359375 
Q 44.046875 -1.421875 33.015625 -1.421875 
Q 20.359375 -1.421875 13.671875 8.265625 
Q 6.984375 17.96875 6.984375 36.375 
Q 6.984375 53.65625 15.1875 63.9375 
Q 23.390625 74.21875 37.203125 74.21875 
Q 40.921875 74.21875 44.703125 73.484375 
Q 48.484375 72.75 52.59375 71.296875 
z
" id="DejaVuSans-54"/>
      </defs>
      <g transform="translate(359.391384 291.57924)scale(0.165 -0.165)">
       <use xlink:href="#DejaVuSans-54"/>
       <use x="63.623047" xlink:href="#DejaVuSans-48"/>
       <use x="127.246094" xlink:href="#DejaVuSans-48"/>
      </g>
     </g>
    </g>
    <g id="xtick_5">
     <g id="line2d_5">
      <g>
       <use style="stroke:#000000;stroke-width:1.875;" x="451.214762" xlink:href="#m64f705d3b0" y="266.541818"/>
      </g>
     </g>
     <g id="text_5">
      <!-- 800 -->
      <defs>
       <path d="M 31.78125 34.625 
Q 24.75 34.625 20.71875 30.859375 
Q 16.703125 27.09375 16.703125 20.515625 
Q 16.703125 13.921875 20.71875 10.15625 
Q 24.75 6.390625 31.78125 6.390625 
Q 38.8125 6.390625 42.859375 10.171875 
Q 46.921875 13.96875 46.921875 20.515625 
Q 46.921875 27.09375 42.890625 30.859375 
Q 38.875 34.625 31.78125 34.625 
z
M 21.921875 38.8125 
Q 15.578125 40.375 12.03125 44.71875 
Q 8.5 49.078125 8.5 55.328125 
Q 8.5 64.0625 14.71875 69.140625 
Q 20.953125 74.21875 31.78125 74.21875 
Q 42.671875 74.21875 48.875 69.140625 
Q 55.078125 64.0625 55.078125 55.328125 
Q 55.078125 49.078125 51.53125 44.71875 
Q 48 40.375 41.703125 38.8125 
Q 48.828125 37.15625 52.796875 32.3125 
Q 56.78125 27.484375 56.78125 20.515625 
Q 56.78125 9.90625 50.3125 4.234375 
Q 43.84375 -1.421875 31.78125 -1.421875 
Q 19.734375 -1.421875 13.25 4.234375 
Q 6.78125 9.90625 6.78125 20.515625 
Q 6.78125 27.484375 10.78125 32.3125 
Q 14.796875 37.15625 21.921875 38.8125 
z
M 18.3125 54.390625 
Q 18.3125 48.734375 21.84375 45.5625 
Q 25.390625 42.390625 31.78125 42.390625 
Q 38.140625 42.390625 41.71875 45.5625 
Q 45.3125 48.734375 45.3125 54.390625 
Q 45.3125 60.0625 41.71875 63.234375 
Q 38.140625 66.40625 31.78125 66.40625 
Q 25.390625 66.40625 21.84375 63.234375 
Q 18.3125 60.0625 18.3125 54.390625 
z
" id="DejaVuSans-56"/>
      </defs>
      <g transform="translate(435.467574 291.57924)scale(0.165 -0.165)">
       <use xlink:href="#DejaVuSans-56"/>
       <use x="63.623047" xlink:href="#DejaVuSans-48"/>
       <use x="127.246094" xlink:href="#DejaVuSans-48"/>
      </g>
     </g>
    </g>
    <g id="xtick_6">
     <g id="line2d_6">
      <g>
       <use style="stroke:#000000;stroke-width:1.875;" x="527.290952" xlink:href="#m64f705d3b0" y="266.541818"/>
      </g>
     </g>
     <g id="text_6">
      <!-- 1000 -->
      <defs>
       <path d="M 12.40625 8.296875 
L 28.515625 8.296875 
L 28.515625 63.921875 
L 10.984375 60.40625 
L 10.984375 69.390625 
L 28.421875 72.90625 
L 38.28125 72.90625 
L 38.28125 8.296875 
L 54.390625 8.296875 
L 54.390625 0 
L 12.40625 0 
z
" id="DejaVuSans-49"/>
      </defs>
      <g transform="translate(506.294702 291.57924)scale(0.165 -0.165)">
       <use xlink:href="#DejaVuSans-49"/>
       <use x="63.623047" xlink:href="#DejaVuSans-48"/>
       <use x="127.246094" xlink:href="#DejaVuSans-48"/>
       <use x="190.869141" xlink:href="#DejaVuSans-48"/>
      </g>
     </g>
    </g>
   </g>
   <g id="matplotlib.axis_2">
    <g id="ytick_1">
     <g id="line2d_7">
      <defs>
       <path d="M 0 0 
L -9 0 
" id="mdaeed1f751" style="stroke:#000000;stroke-width:1.875;"/>
      </defs>
      <g>
       <use style="stroke:#000000;stroke-width:1.875;" x="126.94" xlink:href="#mdaeed1f751" y="229.459979"/>
      </g>
     </g>
     <g id="text_7">
      <!-- -3.0% -->
      <defs>
       <path d="M 4.890625 31.390625 
L 31.203125 31.390625 
L 31.203125 23.390625 
L 4.890625 23.390625 
z
" id="DejaVuSans-45"/>
       <path d="M 40.578125 39.3125 
Q 47.65625 37.796875 51.625 33 
Q 55.609375 28.21875 55.609375 21.1875 
Q 55.609375 10.40625 48.1875 4.484375 
Q 40.765625 -1.421875 27.09375 -1.421875 
Q 22.515625 -1.421875 17.65625 -0.515625 
Q 12.796875 0.390625 7.625 2.203125 
L 7.625 11.71875 
Q 11.71875 9.328125 16.59375 8.109375 
Q 21.484375 6.890625 26.8125 6.890625 
Q 36.078125 6.890625 40.9375 10.546875 
Q 45.796875 14.203125 45.796875 21.1875 
Q 45.796875 27.640625 41.28125 31.265625 
Q 36.765625 34.90625 28.71875 34.90625 
L 20.21875 34.90625 
L 20.21875 43.015625 
L 29.109375 43.015625 
Q 36.375 43.015625 40.234375 45.921875 
Q 44.09375 48.828125 44.09375 54.296875 
Q 44.09375 59.90625 40.109375 62.90625 
Q 36.140625 65.921875 28.71875 65.921875 
Q 24.65625 65.921875 20.015625 65.03125 
Q 15.375 64.15625 9.8125 62.3125 
L 9.8125 71.09375 
Q 15.4375 72.65625 20.34375 73.4375 
Q 25.25 74.21875 29.59375 74.21875 
Q 40.828125 74.21875 47.359375 69.109375 
Q 53.90625 64.015625 53.90625 55.328125 
Q 53.90625 49.265625 50.4375 45.09375 
Q 46.96875 40.921875 40.578125 39.3125 
z
" id="DejaVuSans-51"/>
       <path d="M 10.6875 12.40625 
L 21 12.40625 
L 21 0 
L 10.6875 0 
z
" id="DejaVuSans-46"/>
       <path d="M 72.703125 32.078125 
Q 68.453125 32.078125 66.03125 28.46875 
Q 63.625 24.859375 63.625 18.40625 
Q 63.625 12.0625 66.03125 8.421875 
Q 68.453125 4.78125 72.703125 4.78125 
Q 76.859375 4.78125 79.265625 8.421875 
Q 81.6875 12.0625 81.6875 18.40625 
Q 81.6875 24.8125 79.265625 28.4375 
Q 76.859375 32.078125 72.703125 32.078125 
z
M 72.703125 38.28125 
Q 80.421875 38.28125 84.953125 32.90625 
Q 89.5 27.546875 89.5 18.40625 
Q 89.5 9.28125 84.9375 3.921875 
Q 80.375 -1.421875 72.703125 -1.421875 
Q 64.890625 -1.421875 60.34375 3.921875 
Q 55.8125 9.28125 55.8125 18.40625 
Q 55.8125 27.59375 60.375 32.9375 
Q 64.9375 38.28125 72.703125 38.28125 
z
M 22.3125 68.015625 
Q 18.109375 68.015625 15.6875 64.375 
Q 13.28125 60.75 13.28125 54.390625 
Q 13.28125 47.953125 15.671875 44.328125 
Q 18.0625 40.71875 22.3125 40.71875 
Q 26.5625 40.71875 28.96875 44.328125 
Q 31.390625 47.953125 31.390625 54.390625 
Q 31.390625 60.6875 28.953125 64.34375 
Q 26.515625 68.015625 22.3125 68.015625 
z
M 66.40625 74.21875 
L 74.21875 74.21875 
L 28.609375 -1.421875 
L 20.796875 -1.421875 
z
M 22.3125 74.21875 
Q 30.03125 74.21875 34.609375 68.875 
Q 39.203125 63.53125 39.203125 54.390625 
Q 39.203125 45.171875 34.640625 39.84375 
Q 30.078125 34.515625 22.3125 34.515625 
Q 14.546875 34.515625 10.03125 39.859375 
Q 5.515625 45.21875 5.515625 54.390625 
Q 5.515625 63.484375 10.046875 68.84375 
Q 14.59375 74.21875 22.3125 74.21875 
z
" id="DejaVuSans-37"/>
      </defs>
      <g transform="translate(66.569375 235.72869)scale(0.165 -0.165)">
       <use xlink:href="#DejaVuSans-45"/>
       <use x="36.083984" xlink:href="#DejaVuSans-51"/>
       <use x="99.707031" xlink:href="#DejaVuSans-46"/>
       <use x="131.494141" xlink:href="#DejaVuSans-48"/>
       <use x="195.117188" xlink:href="#DejaVuSans-37"/>
      </g>
     </g>
    </g>
    <g id="ytick_2">
     <g id="line2d_8">
      <g>
       <use style="stroke:#000000;stroke-width:1.875;" x="126.94" xlink:href="#mdaeed1f751" y="171.7604"/>
      </g>
     </g>
     <g id="text_8">
      <!-- -2.0% -->
      <g transform="translate(66.569375 178.029111)scale(0.165 -0.165)">
       <use xlink:href="#DejaVuSans-45"/>
       <use x="36.083984" xlink:href="#DejaVuSans-50"/>
       <use x="99.707031" xlink:href="#DejaVuSans-46"/>
       <use x="131.494141" xlink:href="#DejaVuSans-48"/>
       <use x="195.117188" xlink:href="#DejaVuSans-37"/>
      </g>
     </g>
    </g>
    <g id="ytick_3">
     <g id="line2d_9">
      <g>
       <use style="stroke:#000000;stroke-width:1.875;" x="126.94" xlink:href="#mdaeed1f751" y="114.060822"/>
      </g>
     </g>
     <g id="text_9">
      <!-- -1.0% -->
      <g transform="translate(66.569375 120.329533)scale(0.165 -0.165)">
       <use xlink:href="#DejaVuSans-45"/>
       <use x="36.083984" xlink:href="#DejaVuSans-49"/>
       <use x="99.707031" xlink:href="#DejaVuSans-46"/>
       <use x="131.494141" xlink:href="#DejaVuSans-48"/>
       <use x="195.117188" xlink:href="#DejaVuSans-37"/>
      </g>
     </g>
    </g>
   </g>
   <g id="line2d_10">
    <path clip-path="url(#p5a2e6f1f5f)" d="M 146.91 258.800501 
L 165.929048 258.800826 
L 166.309429 202.767668 
L 167.830952 196.200898 
L 169.352476 190.578169 
L 170.874 185.712363 
L 172.395524 181.46251 
L 174.297429 176.854477 
L 176.199333 172.882184 
L 178.101238 169.425662 
L 180.003143 166.393496 
L 182.285429 163.215902 
L 184.567714 160.452358 
L 186.85 158.029647 
L 189.512667 155.55799 
L 192.175333 153.401681 
L 195.218381 151.252949 
L 198.261429 149.380267 
L 201.684857 147.541781 
L 205.488667 145.769281 
L 209.672857 144.082761 
L 214.237429 142.493179 
L 219.182381 141.005884 
L 224.888095 139.53077 
L 230.97419 138.18481 
L 237.821048 136.896695 
L 245.428667 135.691043 
L 254.177429 134.536537 
L 264.067333 133.460412 
L 275.859143 132.411413 
L 289.552857 131.425599 
L 305.148476 130.529396 
L 323.406762 129.708877 
L 345.468857 128.948434 
L 372.095524 128.261638 
L 404.427905 127.660123 
L 444.748286 127.140892 
L 496.480095 126.708576 
L 546.31 126.443762 
L 546.31 126.443762 
" style="fill:none;stroke:#1f77b4;stroke-dasharray:3,4.95;stroke-dashoffset:0;stroke-width:3;"/>
   </g>
   <g id="line2d_11">
    <path clip-path="url(#p5a2e6f1f5f)" d="M 146.91 258.800501 
L 165.929048 258.800826 
L 166.309429 202.767668 
L 167.830952 196.200898 
L 169.352476 190.578169 
L 170.874 185.712363 
L 172.395524 181.46251 
L 174.297429 176.854477 
L 176.199333 172.882184 
L 178.101238 169.425662 
L 180.003143 166.393496 
L 182.285429 163.215902 
L 184.567714 160.452358 
L 186.85 158.029647 
L 189.512667 155.55799 
L 192.175333 153.401681 
L 195.218381 151.252949 
L 198.261429 149.380267 
L 201.684857 147.541781 
L 205.488667 145.769281 
L 209.672857 144.082761 
L 214.237429 142.493179 
L 219.182381 141.005884 
L 224.888095 139.53077 
L 230.97419 138.18481 
L 237.821048 136.896695 
L 245.428667 135.691043 
L 254.177429 134.536537 
L 264.067333 133.460412 
L 275.859143 132.411413 
L 289.552857 131.425599 
L 305.148476 130.529396 
L 323.406762 129.708877 
L 345.468857 128.948434 
L 372.095524 128.261638 
L 404.427905 127.660123 
L 444.748286 127.140892 
L 496.480095 126.708576 
L 546.31 126.443762 
L 546.31 126.443762 
" style="fill:none;stroke:#ff7f0e;stroke-linecap:square;stroke-width:3;"/>
   </g>
   <g id="line2d_12">
    <path clip-path="url(#p5a2e6f1f5f)" d="M 146.91 104.143691 
L 165.929048 104.143666 
L 166.309429 103.980992 
L 171.254381 104.76121 
L 176.579714 105.380407 
L 182.66581 105.868522 
L 190.273429 106.24083 
L 200.543714 106.496077 
L 222.60581 106.751059 
L 249.232476 106.887181 
L 429.152667 106.897898 
L 546.31 106.89773 
L 546.31 106.89773 
" style="fill:none;stroke:#2ca02c;stroke-linecap:square;stroke-width:3;"/>
   </g>
   <g id="patch_3">
    <path d="M 126.94 266.541818 
L 126.94 96.24 
" style="fill:none;stroke:#000000;stroke-linecap:square;stroke-linejoin:miter;stroke-width:1.875;"/>
   </g>
   <g id="patch_4">
    <path d="M 126.94 266.541818 
L 566.28 266.541818 
" style="fill:none;stroke:#000000;stroke-linecap:square;stroke-linejoin:miter;stroke-width:1.875;"/>
   </g>
   <g id="text_10">
    <!-- Flow/Stock -->
    <defs>
     <path d="M 9.8125 72.90625 
L 51.703125 72.90625 
L 51.703125 64.59375 
L 19.671875 64.59375 
L 19.671875 43.109375 
L 48.578125 43.109375 
L 48.578125 34.8125 
L 19.671875 34.8125 
L 19.671875 0 
L 9.8125 0 
z
" id="DejaVuSans-70"/>
     <path d="M 9.421875 75.984375 
L 18.40625 75.984375 
L 18.40625 0 
L 9.421875 0 
z
" id="DejaVuSans-108"/>
     <path d="M 30.609375 48.390625 
Q 23.390625 48.390625 19.1875 42.75 
Q 14.984375 37.109375 14.984375 27.296875 
Q 14.984375 17.484375 19.15625 11.84375 
Q 23.34375 6.203125 30.609375 6.203125 
Q 37.796875 6.203125 41.984375 11.859375 
Q 46.1875 17.53125 46.1875 27.296875 
Q 46.1875 37.015625 41.984375 42.703125 
Q 37.796875 48.390625 30.609375 48.390625 
z
M 30.609375 56 
Q 42.328125 56 49.015625 48.375 
Q 55.71875 40.765625 55.71875 27.296875 
Q 55.71875 13.875 49.015625 6.21875 
Q 42.328125 -1.421875 30.609375 -1.421875 
Q 18.84375 -1.421875 12.171875 6.21875 
Q 5.515625 13.875 5.515625 27.296875 
Q 5.515625 40.765625 12.171875 48.375 
Q 18.84375 56 30.609375 56 
z
" id="DejaVuSans-111"/>
     <path d="M 4.203125 54.6875 
L 13.1875 54.6875 
L 24.421875 12.015625 
L 35.59375 54.6875 
L 46.1875 54.6875 
L 57.421875 12.015625 
L 68.609375 54.6875 
L 77.59375 54.6875 
L 63.28125 0 
L 52.6875 0 
L 40.921875 44.828125 
L 29.109375 0 
L 18.5 0 
z
" id="DejaVuSans-119"/>
     <path d="M 25.390625 72.90625 
L 33.6875 72.90625 
L 8.296875 -9.28125 
L 0 -9.28125 
z
" id="DejaVuSans-47"/>
     <path d="M 53.515625 70.515625 
L 53.515625 60.890625 
Q 47.90625 63.578125 42.921875 64.890625 
Q 37.9375 66.21875 33.296875 66.21875 
Q 25.25 66.21875 20.875 63.09375 
Q 16.5 59.96875 16.5 54.203125 
Q 16.5 49.359375 19.40625 46.890625 
Q 22.3125 44.4375 30.421875 42.921875 
L 36.375 41.703125 
Q 47.40625 39.59375 52.65625 34.296875 
Q 57.90625 29 57.90625 20.125 
Q 57.90625 9.515625 50.796875 4.046875 
Q 43.703125 -1.421875 29.984375 -1.421875 
Q 24.8125 -1.421875 18.96875 -0.25 
Q 13.140625 0.921875 6.890625 3.21875 
L 6.890625 13.375 
Q 12.890625 10.015625 18.65625 8.296875 
Q 24.421875 6.59375 29.984375 6.59375 
Q 38.421875 6.59375 43.015625 9.90625 
Q 47.609375 13.234375 47.609375 19.390625 
Q 47.609375 24.75 44.3125 27.78125 
Q 41.015625 30.8125 33.5 32.328125 
L 27.484375 33.5 
Q 16.453125 35.6875 11.515625 40.375 
Q 6.59375 45.0625 6.59375 53.421875 
Q 6.59375 63.09375 13.40625 68.65625 
Q 20.21875 74.21875 32.171875 74.21875 
Q 37.3125 74.21875 42.625 73.28125 
Q 47.953125 72.359375 53.515625 70.515625 
z
" id="DejaVuSans-83"/>
     <path d="M 18.3125 70.21875 
L 18.3125 54.6875 
L 36.8125 54.6875 
L 36.8125 47.703125 
L 18.3125 47.703125 
L 18.3125 18.015625 
Q 18.3125 11.328125 20.140625 9.421875 
Q 21.96875 7.515625 27.59375 7.515625 
L 36.8125 7.515625 
L 36.8125 0 
L 27.59375 0 
Q 17.1875 0 13.234375 3.875 
Q 9.28125 7.765625 9.28125 18.015625 
L 9.28125 47.703125 
L 2.6875 47.703125 
L 2.6875 54.6875 
L 9.28125 54.6875 
L 9.28125 70.21875 
z
" id="DejaVuSans-116"/>
     <path d="M 48.78125 52.59375 
L 48.78125 44.1875 
Q 44.96875 46.296875 41.140625 47.34375 
Q 37.3125 48.390625 33.40625 48.390625 
Q 24.65625 48.390625 19.8125 42.84375 
Q 14.984375 37.3125 14.984375 27.296875 
Q 14.984375 17.28125 19.8125 11.734375 
Q 24.65625 6.203125 33.40625 6.203125 
Q 37.3125 6.203125 41.140625 7.25 
Q 44.96875 8.296875 48.78125 10.40625 
L 48.78125 2.09375 
Q 45.015625 0.34375 40.984375 -0.53125 
Q 36.96875 -1.421875 32.421875 -1.421875 
Q 20.0625 -1.421875 12.78125 6.34375 
Q 5.515625 14.109375 5.515625 27.296875 
Q 5.515625 40.671875 12.859375 48.328125 
Q 20.21875 56 33.015625 56 
Q 37.15625 56 41.109375 55.140625 
Q 45.0625 54.296875 48.78125 52.59375 
z
" id="DejaVuSans-99"/>
     <path d="M 9.078125 75.984375 
L 18.109375 75.984375 
L 18.109375 31.109375 
L 44.921875 54.6875 
L 56.390625 54.6875 
L 27.390625 29.109375 
L 57.625 0 
L 45.90625 0 
L 18.109375 26.703125 
L 18.109375 0 
L 9.078125 0 
z
" id="DejaVuSans-107"/>
    </defs>
    <g transform="translate(298.125313 90.24)scale(0.18 -0.18)">
     <use xlink:href="#DejaVuSans-70"/>
     <use x="57.519531" xlink:href="#DejaVuSans-108"/>
     <use x="85.302734" xlink:href="#DejaVuSans-111"/>
     <use x="146.484375" xlink:href="#DejaVuSans-119"/>
     <use x="228.271484" xlink:href="#DejaVuSans-47"/>
     <use x="261.962891" xlink:href="#DejaVuSans-83"/>
     <use x="325.439453" xlink:href="#DejaVuSans-116"/>
     <use x="364.648438" xlink:href="#DejaVuSans-111"/>
     <use x="425.830078" xlink:href="#DejaVuSans-99"/>
     <use x="480.810547" xlink:href="#DejaVuSans-107"/>
    </g>
   </g>
   <g id="legend_1">
    <g id="patch_5">
     <path d="M 222.055 343.806354 
L 475.165 343.806354 
Q 478.465 343.806354 478.465 340.506354 
L 478.465 293.715964 
Q 478.465 290.415964 475.165 290.415964 
L 222.055 290.415964 
Q 218.755 290.415964 218.755 293.715964 
L 218.755 340.506354 
Q 218.755 343.806354 222.055 343.806354 
z
" style="fill:#4c4c4c;opacity:0.5;stroke:#4c4c4c;stroke-linejoin:miter;stroke-width:1.5;"/>
    </g>
    <g id="patch_6">
     <path d="M 220.055 341.806354 
L 473.165 341.806354 
Q 476.465 341.806354 476.465 338.506354 
L 476.465 291.715964 
Q 476.465 288.415964 473.165 288.415964 
L 220.055 288.415964 
Q 216.755 288.415964 216.755 291.715964 
L 216.755 338.506354 
Q 216.755 341.806354 220.055 341.806354 
z
" style="fill:#ffffff;stroke:#cccccc;stroke-linejoin:miter;stroke-width:1.5;"/>
    </g>
    <g id="line2d_13">
     <path d="M 223.355 301.780964 
L 256.355 301.780964 
" style="fill:none;stroke:#1f77b4;stroke-dasharray:3,4.95;stroke-dashoffset:0;stroke-width:3;"/>
    </g>
    <g id="line2d_14"/>
    <g id="text_11">
     <!-- $YDk/V_{hk}$ -->
     <defs>
      <path d="M 6.296875 72.90625 
L 16.890625 72.90625 
L 30.515625 42.921875 
L 56.5 72.90625 
L 67.578125 72.90625 
L 34.515625 34.71875 
L 27.78125 0 
L 17.921875 0 
L 24.609375 34.71875 
z
" id="DejaVuSans-Oblique-89"/>
      <path d="M 16.890625 72.90625 
L 38.09375 72.90625 
Q 54.984375 72.90625 63.59375 65.75 
Q 72.21875 58.59375 72.21875 44.484375 
Q 72.21875 35.15625 68.9375 26.53125 
Q 65.671875 17.921875 59.90625 12.015625 
Q 54.109375 5.953125 45.171875 2.96875 
Q 36.234375 0 24.03125 0 
L 2.6875 0 
z
M 25.203125 64.796875 
L 14.203125 8.109375 
L 27.09375 8.109375 
Q 43.65625 8.109375 52.734375 17.625 
Q 61.8125 27.15625 61.8125 44.484375 
Q 61.8125 54.984375 55.953125 59.890625 
Q 50.09375 64.796875 37.59375 64.796875 
z
" id="DejaVuSans-Oblique-68"/>
      <path d="M 18.3125 75.984375 
L 27.296875 75.984375 
L 18.703125 31.6875 
L 49.515625 54.6875 
L 61.1875 54.6875 
L 26.8125 28.515625 
L 51.90625 0 
L 41.015625 0 
L 17.671875 26.703125 
L 12.5 0 
L 3.515625 0 
z
" id="DejaVuSans-Oblique-107"/>
      <path d="M 20.609375 0 
L 7.8125 72.90625 
L 17.484375 72.90625 
L 28.078125 10.203125 
L 63.484375 72.90625 
L 74.21875 72.90625 
L 32.078125 0 
z
" id="DejaVuSans-Oblique-86"/>
      <path d="M 55.71875 33.015625 
L 49.3125 0 
L 40.28125 0 
L 46.6875 32.671875 
Q 47.125 34.96875 47.359375 36.71875 
Q 47.609375 38.484375 47.609375 39.5 
Q 47.609375 43.609375 45.015625 45.890625 
Q 42.4375 48.1875 37.796875 48.1875 
Q 30.5625 48.1875 25.265625 43.296875 
Q 19.96875 38.421875 18.40625 30.328125 
L 12.5 0 
L 3.515625 0 
L 18.3125 75.984375 
L 27.296875 75.984375 
L 21.484375 46.09375 
Q 24.90625 50.6875 30.21875 53.34375 
Q 35.546875 56 41.40625 56 
Q 48.640625 56 52.609375 52.09375 
Q 56.59375 48.1875 56.59375 41.109375 
Q 56.59375 39.359375 56.375 37.359375 
Q 56.15625 35.359375 55.71875 33.015625 
z
" id="DejaVuSans-Oblique-104"/>
     </defs>
     <g transform="translate(269.555 307.555964)scale(0.165 -0.165)">
      <use transform="translate(0 0.015625)" xlink:href="#DejaVuSans-Oblique-89"/>
      <use transform="translate(61.083984 0.015625)" xlink:href="#DejaVuSans-Oblique-68"/>
      <use transform="translate(138.085938 0.015625)" xlink:href="#DejaVuSans-Oblique-107"/>
      <use transform="translate(195.996094 0.015625)" xlink:href="#DejaVuSans-47"/>
      <use transform="translate(229.6875 0.015625)" xlink:href="#DejaVuSans-Oblique-86"/>
      <use transform="translate(298.095703 -16.390625)scale(0.7)" xlink:href="#DejaVuSans-Oblique-104"/>
      <use transform="translate(342.460938 -16.390625)scale(0.7)" xlink:href="#DejaVuSans-Oblique-107"/>
     </g>
    </g>
    <g id="line2d_15">
     <path d="M 223.355 325.99987 
L 256.355 325.99987 
" style="fill:none;stroke:#ff7f0e;stroke-linecap:square;stroke-width:3;"/>
    </g>
    <g id="line2d_16"/>
    <g id="text_12">
     <!-- $YDk/V_{hkr}$ -->
     <defs>
      <path d="M 44.578125 46.390625 
Q 43.21875 47.125 41.453125 47.515625 
Q 39.703125 47.90625 37.703125 47.90625 
Q 30.515625 47.90625 25.140625 42.453125 
Q 19.78125 37.015625 18.015625 27.875 
L 12.5 0 
L 3.515625 0 
L 14.203125 54.6875 
L 23.1875 54.6875 
L 21.484375 46.1875 
Q 25.046875 50.921875 30 53.453125 
Q 34.96875 56 40.578125 56 
Q 42.046875 56 43.453125 55.828125 
Q 44.875 55.671875 46.296875 55.28125 
z
" id="DejaVuSans-Oblique-114"/>
     </defs>
     <g transform="translate(269.555 331.77487)scale(0.165 -0.165)">
      <use transform="translate(0 0.015625)" xlink:href="#DejaVuSans-Oblique-89"/>
      <use transform="translate(61.083984 0.015625)" xlink:href="#DejaVuSans-Oblique-68"/>
      <use transform="translate(138.085938 0.015625)" xlink:href="#DejaVuSans-Oblique-107"/>
      <use transform="translate(195.996094 0.015625)" xlink:href="#DejaVuSans-47"/>
      <use transform="translate(229.6875 0.015625)" xlink:href="#DejaVuSans-Oblique-86"/>
      <use transform="translate(298.095703 -16.390625)scale(0.7)" xlink:href="#DejaVuSans-Oblique-104"/>
      <use transform="translate(342.460938 -16.390625)scale(0.7)" xlink:href="#DejaVuSans-Oblique-107"/>
      <use transform="translate(382.998047 -16.390625)scale(0.7)" xlink:href="#DejaVuSans-Oblique-114"/>
     </g>
    </g>
    <g id="line2d_17">
     <path d="M 371.03 301.780964 
L 404.03 301.780964 
" style="fill:none;stroke:#2ca02c;stroke-linecap:square;stroke-width:3;"/>
    </g>
    <g id="line2d_18"/>
    <g id="text_13">
     <!-- $FU$/V_f -->
     <defs>
      <path d="M 16.890625 72.90625 
L 58.6875 72.90625 
L 57.078125 64.59375 
L 25.09375 64.59375 
L 20.90625 43.109375 
L 49.8125 43.109375 
L 48.1875 34.8125 
L 19.28125 34.8125 
L 12.5 0 
L 2.6875 0 
z
" id="DejaVuSans-Oblique-70"/>
      <path d="M 15.484375 72.90625 
L 25.390625 72.90625 
L 16.796875 28.609375 
Q 16.265625 25.640625 16.046875 23.703125 
Q 15.828125 21.78125 15.828125 20.3125 
Q 15.828125 13.578125 19.578125 10.078125 
Q 23.34375 6.59375 30.609375 6.59375 
Q 40.046875 6.59375 45.28125 11.765625 
Q 50.53125 16.9375 52.78125 28.609375 
L 61.375 72.90625 
L 71.296875 72.90625 
L 62.5 27.390625 
Q 59.625 12.640625 51.5625 5.609375 
Q 43.5 -1.421875 29.5 -1.421875 
Q 18.5625 -1.421875 12.1875 4.078125 
Q 5.8125 9.578125 5.8125 19 
Q 5.8125 20.703125 6.046875 22.828125 
Q 6.296875 24.953125 6.78125 27.390625 
z
" id="DejaVuSans-Oblique-85"/>
      <path d="M 28.609375 0 
L 0.78125 72.90625 
L 11.078125 72.90625 
L 34.1875 11.53125 
L 57.328125 72.90625 
L 67.578125 72.90625 
L 39.796875 0 
z
" id="DejaVuSans-86"/>
      <path d="M 50.984375 -16.609375 
L 50.984375 -23.578125 
L -0.984375 -23.578125 
L -0.984375 -16.609375 
z
" id="DejaVuSans-95"/>
      <path d="M 37.109375 75.984375 
L 37.109375 68.5 
L 28.515625 68.5 
Q 23.6875 68.5 21.796875 66.546875 
Q 19.921875 64.59375 19.921875 59.515625 
L 19.921875 54.6875 
L 34.71875 54.6875 
L 34.71875 47.703125 
L 19.921875 47.703125 
L 19.921875 0 
L 10.890625 0 
L 10.890625 47.703125 
L 2.296875 47.703125 
L 2.296875 54.6875 
L 10.890625 54.6875 
L 10.890625 58.5 
Q 10.890625 67.625 15.140625 71.796875 
Q 19.390625 75.984375 28.609375 75.984375 
z
" id="DejaVuSans-102"/>
     </defs>
     <g transform="translate(417.23 307.555964)scale(0.165 -0.165)">
      <use transform="translate(0 0.015625)" xlink:href="#DejaVuSans-Oblique-70"/>
      <use transform="translate(57.519531 0.015625)" xlink:href="#DejaVuSans-Oblique-85"/>
      <use transform="translate(130.712891 0.015625)" xlink:href="#DejaVuSans-47"/>
      <use transform="translate(164.404297 0.015625)" xlink:href="#DejaVuSans-86"/>
      <use transform="translate(232.8125 0.015625)" xlink:href="#DejaVuSans-95"/>
      <use transform="translate(282.8125 0.015625)" xlink:href="#DejaVuSans-102"/>
     </g>
    </g>
   </g>
  </g>
  <g id="axes_2">
   <g id="patch_7">
    <path d="M 693.22 266.541818 
L 1132.56 266.541818 
L 1132.56 96.24 
L 693.22 96.24 
z
" style="fill:#ffffff;"/>
   </g>
   <g id="matplotlib.axis_3">
    <g id="xtick_7">
     <g id="line2d_19">
      <g>
       <use style="stroke:#000000;stroke-width:1.875;" x="713.19" xlink:href="#m64f705d3b0" y="266.541818"/>
      </g>
     </g>
     <g id="text_14">
      <!-- 0 -->
      <g transform="translate(707.940938 291.57924)scale(0.165 -0.165)">
       <use xlink:href="#DejaVuSans-48"/>
      </g>
     </g>
    </g>
    <g id="xtick_8">
     <g id="line2d_20">
      <g>
       <use style="stroke:#000000;stroke-width:1.875;" x="789.26619" xlink:href="#m64f705d3b0" y="266.541818"/>
      </g>
     </g>
     <g id="text_15">
      <!-- 200 -->
      <g transform="translate(773.519003 291.57924)scale(0.165 -0.165)">
       <use xlink:href="#DejaVuSans-50"/>
       <use x="63.623047" xlink:href="#DejaVuSans-48"/>
       <use x="127.246094" xlink:href="#DejaVuSans-48"/>
      </g>
     </g>
    </g>
    <g id="xtick_9">
     <g id="line2d_21">
      <g>
       <use style="stroke:#000000;stroke-width:1.875;" x="865.342381" xlink:href="#m64f705d3b0" y="266.541818"/>
      </g>
     </g>
     <g id="text_16">
      <!-- 400 -->
      <g transform="translate(849.595193 291.57924)scale(0.165 -0.165)">
       <use xlink:href="#DejaVuSans-52"/>
       <use x="63.623047" xlink:href="#DejaVuSans-48"/>
       <use x="127.246094" xlink:href="#DejaVuSans-48"/>
      </g>
     </g>
    </g>
    <g id="xtick_10">
     <g id="line2d_22">
      <g>
       <use style="stroke:#000000;stroke-width:1.875;" x="941.418571" xlink:href="#m64f705d3b0" y="266.541818"/>
      </g>
     </g>
     <g id="text_17">
      <!-- 600 -->
      <g transform="translate(925.671384 291.57924)scale(0.165 -0.165)">
       <use xlink:href="#DejaVuSans-54"/>
       <use x="63.623047" xlink:href="#DejaVuSans-48"/>
       <use x="127.246094" xlink:href="#DejaVuSans-48"/>
      </g>
     </g>
    </g>
    <g id="xtick_11">
     <g id="line2d_23">
      <g>
       <use style="stroke:#000000;stroke-width:1.875;" x="1017.494762" xlink:href="#m64f705d3b0" y="266.541818"/>
      </g>
     </g>
     <g id="text_18">
      <!-- 800 -->
      <g transform="translate(1001.747574 291.57924)scale(0.165 -0.165)">
       <use xlink:href="#DejaVuSans-56"/>
       <use x="63.623047" xlink:href="#DejaVuSans-48"/>
       <use x="127.246094" xlink:href="#DejaVuSans-48"/>
      </g>
     </g>
    </g>
    <g id="xtick_12">
     <g id="line2d_24">
      <g>
       <use style="stroke:#000000;stroke-width:1.875;" x="1093.570952" xlink:href="#m64f705d3b0" y="266.541818"/>
      </g>
     </g>
     <g id="text_19">
      <!-- 1000 -->
      <g transform="translate(1072.574702 291.57924)scale(0.165 -0.165)">
       <use xlink:href="#DejaVuSans-49"/>
       <use x="63.623047" xlink:href="#DejaVuSans-48"/>
       <use x="127.246094" xlink:href="#DejaVuSans-48"/>
       <use x="190.869141" xlink:href="#DejaVuSans-48"/>
      </g>
     </g>
    </g>
   </g>
   <g id="matplotlib.axis_4">
    <g id="ytick_4">
     <g id="line2d_25">
      <g>
       <use style="stroke:#000000;stroke-width:1.875;" x="693.22" xlink:href="#mdaeed1f751" y="261.777848"/>
      </g>
     </g>
     <g id="text_20">
      <!-- 0.856 -->
      <defs>
       <path d="M 10.796875 72.90625 
L 49.515625 72.90625 
L 49.515625 64.59375 
L 19.828125 64.59375 
L 19.828125 46.734375 
Q 21.96875 47.46875 24.109375 47.828125 
Q 26.265625 48.1875 28.421875 48.1875 
Q 40.625 48.1875 47.75 41.5 
Q 54.890625 34.8125 54.890625 23.390625 
Q 54.890625 11.625 47.5625 5.09375 
Q 40.234375 -1.421875 26.90625 -1.421875 
Q 22.3125 -1.421875 17.546875 -0.640625 
Q 12.796875 0.140625 7.71875 1.703125 
L 7.71875 11.625 
Q 12.109375 9.234375 16.796875 8.0625 
Q 21.484375 6.890625 26.703125 6.890625 
Q 35.15625 6.890625 40.078125 11.328125 
Q 45.015625 15.765625 45.015625 23.390625 
Q 45.015625 31 40.078125 35.4375 
Q 35.15625 39.890625 26.703125 39.890625 
Q 22.75 39.890625 18.8125 39.015625 
Q 14.890625 38.140625 10.796875 36.28125 
z
" id="DejaVuSans-53"/>
      </defs>
      <g transform="translate(633.483594 268.046559)scale(0.165 -0.165)">
       <use xlink:href="#DejaVuSans-48"/>
       <use x="63.623047" xlink:href="#DejaVuSans-46"/>
       <use x="95.410156" xlink:href="#DejaVuSans-56"/>
       <use x="159.033203" xlink:href="#DejaVuSans-53"/>
       <use x="222.65625" xlink:href="#DejaVuSans-54"/>
      </g>
     </g>
    </g>
    <g id="ytick_5">
     <g id="line2d_26">
      <g>
       <use style="stroke:#000000;stroke-width:1.875;" x="693.22" xlink:href="#mdaeed1f751" y="210.582167"/>
      </g>
     </g>
     <g id="text_21">
      <!-- 0.858 -->
      <g transform="translate(633.483594 216.850878)scale(0.165 -0.165)">
       <use xlink:href="#DejaVuSans-48"/>
       <use x="63.623047" xlink:href="#DejaVuSans-46"/>
       <use x="95.410156" xlink:href="#DejaVuSans-56"/>
       <use x="159.033203" xlink:href="#DejaVuSans-53"/>
       <use x="222.65625" xlink:href="#DejaVuSans-56"/>
      </g>
     </g>
    </g>
    <g id="ytick_6">
     <g id="line2d_27">
      <g>
       <use style="stroke:#000000;stroke-width:1.875;" x="693.22" xlink:href="#mdaeed1f751" y="159.386486"/>
      </g>
     </g>
     <g id="text_22">
      <!-- 0.860 -->
      <g transform="translate(633.483594 165.655197)scale(0.165 -0.165)">
       <use xlink:href="#DejaVuSans-48"/>
       <use x="63.623047" xlink:href="#DejaVuSans-46"/>
       <use x="95.410156" xlink:href="#DejaVuSans-56"/>
       <use x="159.033203" xlink:href="#DejaVuSans-54"/>
       <use x="222.65625" xlink:href="#DejaVuSans-48"/>
      </g>
     </g>
    </g>
    <g id="ytick_7">
     <g id="line2d_28">
      <g>
       <use style="stroke:#000000;stroke-width:1.875;" x="693.22" xlink:href="#mdaeed1f751" y="108.190805"/>
      </g>
     </g>
     <g id="text_23">
      <!-- 0.862 -->
      <g transform="translate(633.483594 114.459516)scale(0.165 -0.165)">
       <use xlink:href="#DejaVuSans-48"/>
       <use x="63.623047" xlink:href="#DejaVuSans-46"/>
       <use x="95.410156" xlink:href="#DejaVuSans-56"/>
       <use x="159.033203" xlink:href="#DejaVuSans-54"/>
       <use x="222.65625" xlink:href="#DejaVuSans-50"/>
      </g>
     </g>
    </g>
   </g>
   <g id="line2d_29">
    <path clip-path="url(#pc7ba501c38)" d="M 713.19 258.741516 
L 734.110952 258.627545 
L 735.252095 258.214002 
L 736.012857 257.745658 
L 736.773619 257.094595 
L 737.914762 255.732471 
L 739.055905 253.863072 
L 740.197048 251.452316 
L 741.33819 248.482876 
L 742.479333 244.952582 
L 744.000857 239.394688 
L 745.522381 232.92144 
L 747.424286 223.684958 
L 749.706571 211.236098 
L 752.749619 193.120788 
L 758.835714 156.353892 
L 761.118 143.890586 
L 763.019905 134.526904 
L 764.92181 126.279315 
L 766.443333 120.571074 
L 767.964857 115.700863 
L 769.486381 111.691791 
L 770.627524 109.252862 
L 771.768667 107.295172 
L 772.90981 105.80771 
L 774.050952 104.774252 
L 774.811714 104.327313 
L 775.572476 104.065592 
L 776.333238 103.980992 
L 777.094 104.0647 
L 778.235143 104.484662 
L 779.376286 105.227236 
L 780.517429 106.256304 
L 782.038952 108.008047 
L 783.560476 110.10835 
L 785.842762 113.707673 
L 793.07 125.561549 
L 794.971905 128.123437 
L 796.493429 129.868746 
L 798.014952 131.308209 
L 799.536476 132.423496 
L 801.058 133.20503 
L 802.199143 133.571972 
L 803.340286 133.754582 
L 804.481429 133.758881 
L 806.002952 133.501995 
L 807.524476 132.968622 
L 809.046 132.189518 
L 810.947905 130.923525 
L 813.23019 129.074523 
L 816.273238 126.270272 
L 821.978952 120.958757 
L 824.261238 119.123528 
L 826.543524 117.576222 
L 828.445429 116.543888 
L 830.347333 115.763653 
L 832.249238 115.241111 
L 834.151143 114.971541 
L 836.053048 114.940984 
L 837.954952 115.127593 
L 840.237238 115.598134 
L 842.899905 116.413883 
L 846.323333 117.730286 
L 853.930952 120.750486 
L 856.974 121.679334 
L 859.636667 122.271464 
L 862.299333 122.637164 
L 864.962 122.777043 
L 867.624667 122.708624 
L 870.667714 122.415535 
L 874.471524 121.817244 
L 888.165238 119.43123 
L 891.969048 119.107875 
L 895.772857 118.999976 
L 899.957048 119.102973 
L 905.282381 119.470169 
L 919.356476 120.571267 
L 925.06219 120.72419 
L 931.148286 120.659755 
L 941.03819 120.284998 
L 951.308476 119.966616 
L 959.676857 119.936455 
L 972.99019 120.158111 
L 986.683905 120.295839 
L 1003.040286 120.189911 
L 1022.820095 120.131497 
L 1073.791143 120.167476 
L 1112.59 120.182868 
L 1112.59 120.182868 
" style="fill:none;stroke:#8b0000;stroke-linecap:square;stroke-width:3;"/>
   </g>
   <g id="line2d_30">
    <path clip-path="url(#pc7ba501c38)" d="M 693.22 258.741516 
L 1132.56 258.741516 
" style="fill:none;stroke:#808080;stroke-dasharray:8.325,3.6;stroke-dashoffset:0;stroke-width:2.25;"/>
   </g>
   <g id="patch_8">
    <path d="M 693.22 266.541818 
L 693.22 96.24 
" style="fill:none;stroke:#000000;stroke-linecap:square;stroke-linejoin:miter;stroke-width:1.875;"/>
   </g>
   <g id="patch_9">
    <path d="M 693.22 266.541818 
L 1132.56 266.541818 
" style="fill:none;stroke:#000000;stroke-linecap:square;stroke-linejoin:miter;stroke-width:1.875;"/>
   </g>
   <g id="text_24">
    <!-- Housing share on -->
    <defs>
     <path d="M 9.8125 72.90625 
L 19.671875 72.90625 
L 19.671875 43.015625 
L 55.515625 43.015625 
L 55.515625 72.90625 
L 65.375 72.90625 
L 65.375 0 
L 55.515625 0 
L 55.515625 34.71875 
L 19.671875 34.71875 
L 19.671875 0 
L 9.8125 0 
z
" id="DejaVuSans-72"/>
     <path d="M 8.5 21.578125 
L 8.5 54.6875 
L 17.484375 54.6875 
L 17.484375 21.921875 
Q 17.484375 14.15625 20.5 10.265625 
Q 23.53125 6.390625 29.59375 6.390625 
Q 36.859375 6.390625 41.078125 11.03125 
Q 45.3125 15.671875 45.3125 23.6875 
L 45.3125 54.6875 
L 54.296875 54.6875 
L 54.296875 0 
L 45.3125 0 
L 45.3125 8.40625 
Q 42.046875 3.421875 37.71875 1 
Q 33.40625 -1.421875 27.6875 -1.421875 
Q 18.265625 -1.421875 13.375 4.4375 
Q 8.5 10.296875 8.5 21.578125 
z
M 31.109375 56 
z
" id="DejaVuSans-117"/>
     <path d="M 44.28125 53.078125 
L 44.28125 44.578125 
Q 40.484375 46.53125 36.375 47.5 
Q 32.28125 48.484375 27.875 48.484375 
Q 21.1875 48.484375 17.84375 46.4375 
Q 14.5 44.390625 14.5 40.28125 
Q 14.5 37.15625 16.890625 35.375 
Q 19.28125 33.59375 26.515625 31.984375 
L 29.59375 31.296875 
Q 39.15625 29.25 43.1875 25.515625 
Q 47.21875 21.78125 47.21875 15.09375 
Q 47.21875 7.46875 41.1875 3.015625 
Q 35.15625 -1.421875 24.609375 -1.421875 
Q 20.21875 -1.421875 15.453125 -0.5625 
Q 10.6875 0.296875 5.421875 2 
L 5.421875 11.28125 
Q 10.40625 8.6875 15.234375 7.390625 
Q 20.0625 6.109375 24.8125 6.109375 
Q 31.15625 6.109375 34.5625 8.28125 
Q 37.984375 10.453125 37.984375 14.40625 
Q 37.984375 18.0625 35.515625 20.015625 
Q 33.0625 21.96875 24.703125 23.78125 
L 21.578125 24.515625 
Q 13.234375 26.265625 9.515625 29.90625 
Q 5.8125 33.546875 5.8125 39.890625 
Q 5.8125 47.609375 11.28125 51.796875 
Q 16.75 56 26.8125 56 
Q 31.78125 56 36.171875 55.265625 
Q 40.578125 54.546875 44.28125 53.078125 
z
" id="DejaVuSans-115"/>
     <path d="M 9.421875 54.6875 
L 18.40625 54.6875 
L 18.40625 0 
L 9.421875 0 
z
M 9.421875 75.984375 
L 18.40625 75.984375 
L 18.40625 64.59375 
L 9.421875 64.59375 
z
" id="DejaVuSans-105"/>
     <path d="M 54.890625 33.015625 
L 54.890625 0 
L 45.90625 0 
L 45.90625 32.71875 
Q 45.90625 40.484375 42.875 44.328125 
Q 39.84375 48.1875 33.796875 48.1875 
Q 26.515625 48.1875 22.3125 43.546875 
Q 18.109375 38.921875 18.109375 30.90625 
L 18.109375 0 
L 9.078125 0 
L 9.078125 54.6875 
L 18.109375 54.6875 
L 18.109375 46.1875 
Q 21.34375 51.125 25.703125 53.5625 
Q 30.078125 56 35.796875 56 
Q 45.21875 56 50.046875 50.171875 
Q 54.890625 44.34375 54.890625 33.015625 
z
" id="DejaVuSans-110"/>
     <path d="M 45.40625 27.984375 
Q 45.40625 37.75 41.375 43.109375 
Q 37.359375 48.484375 30.078125 48.484375 
Q 22.859375 48.484375 18.828125 43.109375 
Q 14.796875 37.75 14.796875 27.984375 
Q 14.796875 18.265625 18.828125 12.890625 
Q 22.859375 7.515625 30.078125 7.515625 
Q 37.359375 7.515625 41.375 12.890625 
Q 45.40625 18.265625 45.40625 27.984375 
z
M 54.390625 6.78125 
Q 54.390625 -7.171875 48.1875 -13.984375 
Q 42 -20.796875 29.203125 -20.796875 
Q 24.46875 -20.796875 20.265625 -20.09375 
Q 16.0625 -19.390625 12.109375 -17.921875 
L 12.109375 -9.1875 
Q 16.0625 -11.328125 19.921875 -12.34375 
Q 23.78125 -13.375 27.78125 -13.375 
Q 36.625 -13.375 41.015625 -8.765625 
Q 45.40625 -4.15625 45.40625 5.171875 
L 45.40625 9.625 
Q 42.625 4.78125 38.28125 2.390625 
Q 33.9375 0 27.875 0 
Q 17.828125 0 11.671875 7.65625 
Q 5.515625 15.328125 5.515625 27.984375 
Q 5.515625 40.671875 11.671875 48.328125 
Q 17.828125 56 27.875 56 
Q 33.9375 56 38.28125 53.609375 
Q 42.625 51.21875 45.40625 46.390625 
L 45.40625 54.6875 
L 54.390625 54.6875 
z
" id="DejaVuSans-103"/>
     <path id="DejaVuSans-32"/>
     <path d="M 54.890625 33.015625 
L 54.890625 0 
L 45.90625 0 
L 45.90625 32.71875 
Q 45.90625 40.484375 42.875 44.328125 
Q 39.84375 48.1875 33.796875 48.1875 
Q 26.515625 48.1875 22.3125 43.546875 
Q 18.109375 38.921875 18.109375 30.90625 
L 18.109375 0 
L 9.078125 0 
L 9.078125 75.984375 
L 18.109375 75.984375 
L 18.109375 46.1875 
Q 21.34375 51.125 25.703125 53.5625 
Q 30.078125 56 35.796875 56 
Q 45.21875 56 50.046875 50.171875 
Q 54.890625 44.34375 54.890625 33.015625 
z
" id="DejaVuSans-104"/>
     <path d="M 34.28125 27.484375 
Q 23.390625 27.484375 19.1875 25 
Q 14.984375 22.515625 14.984375 16.5 
Q 14.984375 11.71875 18.140625 8.90625 
Q 21.296875 6.109375 26.703125 6.109375 
Q 34.1875 6.109375 38.703125 11.40625 
Q 43.21875 16.703125 43.21875 25.484375 
L 43.21875 27.484375 
z
M 52.203125 31.203125 
L 52.203125 0 
L 43.21875 0 
L 43.21875 8.296875 
Q 40.140625 3.328125 35.546875 0.953125 
Q 30.953125 -1.421875 24.3125 -1.421875 
Q 15.921875 -1.421875 10.953125 3.296875 
Q 6 8.015625 6 15.921875 
Q 6 25.140625 12.171875 29.828125 
Q 18.359375 34.515625 30.609375 34.515625 
L 43.21875 34.515625 
L 43.21875 35.40625 
Q 43.21875 41.609375 39.140625 45 
Q 35.0625 48.390625 27.6875 48.390625 
Q 23 48.390625 18.546875 47.265625 
Q 14.109375 46.140625 10.015625 43.890625 
L 10.015625 52.203125 
Q 14.9375 54.109375 19.578125 55.046875 
Q 24.21875 56 28.609375 56 
Q 40.484375 56 46.34375 49.84375 
Q 52.203125 43.703125 52.203125 31.203125 
z
" id="DejaVuSans-97"/>
     <path d="M 41.109375 46.296875 
Q 39.59375 47.171875 37.8125 47.578125 
Q 36.03125 48 33.890625 48 
Q 26.265625 48 22.1875 43.046875 
Q 18.109375 38.09375 18.109375 28.8125 
L 18.109375 0 
L 9.078125 0 
L 9.078125 54.6875 
L 18.109375 54.6875 
L 18.109375 46.1875 
Q 20.953125 51.171875 25.484375 53.578125 
Q 30.03125 56 36.53125 56 
Q 37.453125 56 38.578125 55.875 
Q 39.703125 55.765625 41.0625 55.515625 
z
" id="DejaVuSans-114"/>
     <path d="M 56.203125 29.59375 
L 56.203125 25.203125 
L 14.890625 25.203125 
Q 15.484375 15.921875 20.484375 11.0625 
Q 25.484375 6.203125 34.421875 6.203125 
Q 39.59375 6.203125 44.453125 7.46875 
Q 49.3125 8.734375 54.109375 11.28125 
L 54.109375 2.78125 
Q 49.265625 0.734375 44.1875 -0.34375 
Q 39.109375 -1.421875 33.890625 -1.421875 
Q 20.796875 -1.421875 13.15625 6.1875 
Q 5.515625 13.8125 5.515625 26.8125 
Q 5.515625 40.234375 12.765625 48.109375 
Q 20.015625 56 32.328125 56 
Q 43.359375 56 49.78125 48.890625 
Q 56.203125 41.796875 56.203125 29.59375 
z
M 47.21875 32.234375 
Q 47.125 39.59375 43.09375 43.984375 
Q 39.0625 48.390625 32.421875 48.390625 
Q 24.90625 48.390625 20.390625 44.140625 
Q 15.875 39.890625 15.1875 32.171875 
z
" id="DejaVuSans-101"/>
    </defs>
    <g transform="translate(834.431094 70.083938)scale(0.18 -0.18)">
     <use xlink:href="#DejaVuSans-72"/>
     <use x="75.195312" xlink:href="#DejaVuSans-111"/>
     <use x="136.376953" xlink:href="#DejaVuSans-117"/>
     <use x="199.755859" xlink:href="#DejaVuSans-115"/>
     <use x="251.855469" xlink:href="#DejaVuSans-105"/>
     <use x="279.638672" xlink:href="#DejaVuSans-110"/>
     <use x="343.017578" xlink:href="#DejaVuSans-103"/>
     <use x="406.494141" xlink:href="#DejaVuSans-32"/>
     <use x="438.28125" xlink:href="#DejaVuSans-115"/>
     <use x="490.380859" xlink:href="#DejaVuSans-104"/>
     <use x="553.759766" xlink:href="#DejaVuSans-97"/>
     <use x="615.039062" xlink:href="#DejaVuSans-114"/>
     <use x="653.902344" xlink:href="#DejaVuSans-101"/>
     <use x="715.425781" xlink:href="#DejaVuSans-32"/>
     <use x="747.212891" xlink:href="#DejaVuSans-111"/>
     <use x="808.394531" xlink:href="#DejaVuSans-110"/>
    </g>
    <!-- Total Capital Stock -->
    <defs>
     <path d="M -0.296875 72.90625 
L 61.375 72.90625 
L 61.375 64.59375 
L 35.5 64.59375 
L 35.5 0 
L 25.59375 0 
L 25.59375 64.59375 
L -0.296875 64.59375 
z
" id="DejaVuSans-84"/>
     <path d="M 64.40625 67.28125 
L 64.40625 56.890625 
Q 59.421875 61.53125 53.78125 63.8125 
Q 48.140625 66.109375 41.796875 66.109375 
Q 29.296875 66.109375 22.65625 58.46875 
Q 16.015625 50.828125 16.015625 36.375 
Q 16.015625 21.96875 22.65625 14.328125 
Q 29.296875 6.6875 41.796875 6.6875 
Q 48.140625 6.6875 53.78125 8.984375 
Q 59.421875 11.28125 64.40625 15.921875 
L 64.40625 5.609375 
Q 59.234375 2.09375 53.4375 0.328125 
Q 47.65625 -1.421875 41.21875 -1.421875 
Q 24.65625 -1.421875 15.125 8.703125 
Q 5.609375 18.84375 5.609375 36.375 
Q 5.609375 53.953125 15.125 64.078125 
Q 24.65625 74.21875 41.21875 74.21875 
Q 47.75 74.21875 53.53125 72.484375 
Q 59.328125 70.75 64.40625 67.28125 
z
" id="DejaVuSans-67"/>
     <path d="M 18.109375 8.203125 
L 18.109375 -20.796875 
L 9.078125 -20.796875 
L 9.078125 54.6875 
L 18.109375 54.6875 
L 18.109375 46.390625 
Q 20.953125 51.265625 25.265625 53.625 
Q 29.59375 56 35.59375 56 
Q 45.5625 56 51.78125 48.09375 
Q 58.015625 40.1875 58.015625 27.296875 
Q 58.015625 14.40625 51.78125 6.484375 
Q 45.5625 -1.421875 35.59375 -1.421875 
Q 29.59375 -1.421875 25.265625 0.953125 
Q 20.953125 3.328125 18.109375 8.203125 
z
M 48.6875 27.296875 
Q 48.6875 37.203125 44.609375 42.84375 
Q 40.53125 48.484375 33.40625 48.484375 
Q 26.265625 48.484375 22.1875 42.84375 
Q 18.109375 37.203125 18.109375 27.296875 
Q 18.109375 17.390625 22.1875 11.75 
Q 26.265625 6.109375 33.40625 6.109375 
Q 40.53125 6.109375 44.609375 11.75 
Q 48.6875 17.390625 48.6875 27.296875 
z
" id="DejaVuSans-112"/>
    </defs>
    <g transform="translate(829.685 90.24)scale(0.18 -0.18)">
     <use xlink:href="#DejaVuSans-84"/>
     <use x="44.083984" xlink:href="#DejaVuSans-111"/>
     <use x="105.265625" xlink:href="#DejaVuSans-116"/>
     <use x="144.474609" xlink:href="#DejaVuSans-97"/>
     <use x="205.753906" xlink:href="#DejaVuSans-108"/>
     <use x="233.537109" xlink:href="#DejaVuSans-32"/>
     <use x="265.324219" xlink:href="#DejaVuSans-67"/>
     <use x="335.148438" xlink:href="#DejaVuSans-97"/>
     <use x="396.427734" xlink:href="#DejaVuSans-112"/>
     <use x="459.904297" xlink:href="#DejaVuSans-105"/>
     <use x="487.6875" xlink:href="#DejaVuSans-116"/>
     <use x="526.896484" xlink:href="#DejaVuSans-97"/>
     <use x="588.175781" xlink:href="#DejaVuSans-108"/>
     <use x="615.958984" xlink:href="#DejaVuSans-32"/>
     <use x="647.746094" xlink:href="#DejaVuSans-83"/>
     <use x="711.222656" xlink:href="#DejaVuSans-116"/>
     <use x="750.431641" xlink:href="#DejaVuSans-111"/>
     <use x="811.613281" xlink:href="#DejaVuSans-99"/>
     <use x="866.59375" xlink:href="#DejaVuSans-107"/>
    </g>
   </g>
  </g>
  <g id="axes_3">
   <g id="patch_10">
    <path d="M 126.94 588.550909 
L 566.28 588.550909 
L 566.28 418.249091 
L 126.94 418.249091 
z
" style="fill:#ffffff;"/>
   </g>
   <g id="matplotlib.axis_5">
    <g id="xtick_13">
     <g id="line2d_31">
      <g>
       <use style="stroke:#000000;stroke-width:1.875;" x="146.529256" xlink:href="#m64f705d3b0" y="588.550909"/>
      </g>
     </g>
     <g id="text_25">
      <!-- 0 -->
      <g transform="translate(141.280194 613.588331)scale(0.165 -0.165)">
       <use xlink:href="#DejaVuSans-48"/>
      </g>
     </g>
    </g>
    <g id="xtick_14">
     <g id="line2d_32">
      <g>
       <use style="stroke:#000000;stroke-width:1.875;" x="222.677969" xlink:href="#m64f705d3b0" y="588.550909"/>
      </g>
     </g>
     <g id="text_26">
      <!-- 200 -->
      <g transform="translate(206.930782 613.588331)scale(0.165 -0.165)">
       <use xlink:href="#DejaVuSans-50"/>
       <use x="63.623047" xlink:href="#DejaVuSans-48"/>
       <use x="127.246094" xlink:href="#DejaVuSans-48"/>
      </g>
     </g>
    </g>
    <g id="xtick_15">
     <g id="line2d_33">
      <g>
       <use style="stroke:#000000;stroke-width:1.875;" x="298.826683" xlink:href="#m64f705d3b0" y="588.550909"/>
      </g>
     </g>
     <g id="text_27">
      <!-- 400 -->
      <g transform="translate(283.079495 613.588331)scale(0.165 -0.165)">
       <use xlink:href="#DejaVuSans-52"/>
       <use x="63.623047" xlink:href="#DejaVuSans-48"/>
       <use x="127.246094" xlink:href="#DejaVuSans-48"/>
      </g>
     </g>
    </g>
    <g id="xtick_16">
     <g id="line2d_34">
      <g>
       <use style="stroke:#000000;stroke-width:1.875;" x="374.975396" xlink:href="#m64f705d3b0" y="588.550909"/>
      </g>
     </g>
     <g id="text_28">
      <!-- 600 -->
      <g transform="translate(359.228208 613.588331)scale(0.165 -0.165)">
       <use xlink:href="#DejaVuSans-54"/>
       <use x="63.623047" xlink:href="#DejaVuSans-48"/>
       <use x="127.246094" xlink:href="#DejaVuSans-48"/>
      </g>
     </g>
    </g>
    <g id="xtick_17">
     <g id="line2d_35">
      <g>
       <use style="stroke:#000000;stroke-width:1.875;" x="451.124109" xlink:href="#m64f705d3b0" y="588.550909"/>
      </g>
     </g>
     <g id="text_29">
      <!-- 800 -->
      <g transform="translate(435.376921 613.588331)scale(0.165 -0.165)">
       <use xlink:href="#DejaVuSans-56"/>
       <use x="63.623047" xlink:href="#DejaVuSans-48"/>
       <use x="127.246094" xlink:href="#DejaVuSans-48"/>
      </g>
     </g>
    </g>
    <g id="xtick_18">
     <g id="line2d_36">
      <g>
       <use style="stroke:#000000;stroke-width:1.875;" x="527.272822" xlink:href="#m64f705d3b0" y="588.550909"/>
      </g>
     </g>
     <g id="text_30">
      <!-- 1000 -->
      <g transform="translate(506.276572 613.588331)scale(0.165 -0.165)">
       <use xlink:href="#DejaVuSans-49"/>
       <use x="63.623047" xlink:href="#DejaVuSans-48"/>
       <use x="127.246094" xlink:href="#DejaVuSans-48"/>
       <use x="190.869141" xlink:href="#DejaVuSans-48"/>
      </g>
     </g>
    </g>
   </g>
   <g id="matplotlib.axis_6">
    <g id="ytick_8">
     <g id="line2d_37">
      <g>
       <use style="stroke:#000000;stroke-width:1.875;" x="126.94" xlink:href="#mdaeed1f751" y="583.640794"/>
      </g>
     </g>
     <g id="text_31">
      <!-- -40,000.0% -->
      <defs>
       <path d="M 11.71875 12.40625 
L 22.015625 12.40625 
L 22.015625 4 
L 14.015625 -11.625 
L 7.71875 -11.625 
L 11.71875 4 
z
" id="DejaVuSans-44"/>
      </defs>
      <g transform="translate(19.332969 589.909505)scale(0.165 -0.165)">
       <use xlink:href="#DejaVuSans-45"/>
       <use x="36.083984" xlink:href="#DejaVuSans-52"/>
       <use x="99.707031" xlink:href="#DejaVuSans-48"/>
       <use x="163.330078" xlink:href="#DejaVuSans-44"/>
       <use x="195.117188" xlink:href="#DejaVuSans-48"/>
       <use x="258.740234" xlink:href="#DejaVuSans-48"/>
       <use x="322.363281" xlink:href="#DejaVuSans-48"/>
       <use x="385.986328" xlink:href="#DejaVuSans-46"/>
       <use x="417.773438" xlink:href="#DejaVuSans-48"/>
       <use x="481.396484" xlink:href="#DejaVuSans-37"/>
      </g>
     </g>
    </g>
    <g id="ytick_9">
     <g id="line2d_38">
      <g>
       <use style="stroke:#000000;stroke-width:1.875;" x="126.94" xlink:href="#mdaeed1f751" y="539.628203"/>
      </g>
     </g>
     <g id="text_32">
      <!-- -20,000.0% -->
      <g transform="translate(19.332969 545.896914)scale(0.165 -0.165)">
       <use xlink:href="#DejaVuSans-45"/>
       <use x="36.083984" xlink:href="#DejaVuSans-50"/>
       <use x="99.707031" xlink:href="#DejaVuSans-48"/>
       <use x="163.330078" xlink:href="#DejaVuSans-44"/>
       <use x="195.117188" xlink:href="#DejaVuSans-48"/>
       <use x="258.740234" xlink:href="#DejaVuSans-48"/>
       <use x="322.363281" xlink:href="#DejaVuSans-48"/>
       <use x="385.986328" xlink:href="#DejaVuSans-46"/>
       <use x="417.773438" xlink:href="#DejaVuSans-48"/>
       <use x="481.396484" xlink:href="#DejaVuSans-37"/>
      </g>
     </g>
    </g>
    <g id="ytick_10">
     <g id="line2d_39">
      <g>
       <use style="stroke:#000000;stroke-width:1.875;" x="126.94" xlink:href="#mdaeed1f751" y="495.615611"/>
      </g>
     </g>
     <g id="text_33">
      <!-- 0.0% -->
      <g transform="translate(72.522266 501.884322)scale(0.165 -0.165)">
       <use xlink:href="#DejaVuSans-48"/>
       <use x="63.623047" xlink:href="#DejaVuSans-46"/>
       <use x="95.410156" xlink:href="#DejaVuSans-48"/>
       <use x="159.033203" xlink:href="#DejaVuSans-37"/>
      </g>
     </g>
    </g>
    <g id="ytick_11">
     <g id="line2d_40">
      <g>
       <use style="stroke:#000000;stroke-width:1.875;" x="126.94" xlink:href="#mdaeed1f751" y="451.60302"/>
      </g>
     </g>
     <g id="text_34">
      <!-- 20,000.0% -->
      <g transform="translate(25.285859 457.871731)scale(0.165 -0.165)">
       <use xlink:href="#DejaVuSans-50"/>
       <use x="63.623047" xlink:href="#DejaVuSans-48"/>
       <use x="127.246094" xlink:href="#DejaVuSans-44"/>
       <use x="159.033203" xlink:href="#DejaVuSans-48"/>
       <use x="222.65625" xlink:href="#DejaVuSans-48"/>
       <use x="286.279297" xlink:href="#DejaVuSans-48"/>
       <use x="349.902344" xlink:href="#DejaVuSans-46"/>
       <use x="381.689453" xlink:href="#DejaVuSans-48"/>
       <use x="445.3125" xlink:href="#DejaVuSans-37"/>
      </g>
     </g>
    </g>
   </g>
   <g id="line2d_41">
    <path clip-path="url(#p4dd2f7fc7a)" d="M 146.91 495.544111 
L 165.566435 495.544111 
L 165.947178 495.22175 
L 170.135357 494.943935 
L 172.039075 494.643051 
L 173.181306 494.293703 
L 173.942793 493.883049 
L 174.70428 493.111444 
L 175.085024 492.39959 
L 175.465767 491.129417 
L 175.846511 488.220161 
L 176.227255 474.727913 
L 176.607998 521.173951 
L 176.988742 503.565407 
L 177.369485 500.330002 
L 177.750229 498.970088 
L 178.130972 498.221351 
L 178.892459 497.420323 
L 179.653947 496.998455 
L 180.796177 496.641964 
L 182.699895 496.336729 
L 185.745844 496.107977 
L 191.837741 495.921838 
L 205.163765 495.789666 
L 242.857378 495.702355 
L 398.96224 495.658044 
L 546.31 495.652551 
L 546.31 495.652551 
" style="fill:none;stroke:#1f77b4;stroke-linecap:square;stroke-width:3;"/>
   </g>
   <g id="line2d_42">
    <path clip-path="url(#p4dd2f7fc7a)" d="M 146.91 495.448777 
L 165.566435 495.448777 
L 165.947178 494.696607 
L 168.993127 494.29735 
L 170.896845 493.825409 
L 172.039075 493.346313 
L 172.800562 492.859759 
L 173.56205 492.115523 
L 173.942793 491.572978 
L 174.323537 490.834971 
L 174.70428 489.772572 
L 175.085024 488.111583 
L 175.465767 485.147854 
L 175.846511 478.359608 
L 176.227255 446.877781 
L 176.607998 555.251578 
L 176.988742 514.165087 
L 177.369485 506.615827 
L 177.750229 503.442705 
L 178.130972 501.695656 
L 178.511716 500.589651 
L 179.273203 499.268348 
L 180.03469 498.506301 
L 181.176921 497.822234 
L 182.699895 497.298216 
L 184.603613 496.917975 
L 187.649561 496.578072 
L 192.599228 496.298848 
L 200.975586 496.082673 
L 217.728303 495.912724 
L 256.183403 495.792261 
L 371.16796 495.72009 
L 546.31 495.701803 
L 546.31 495.701803 
" style="fill:none;stroke:#ff7f0e;stroke-linecap:square;stroke-width:3;"/>
   </g>
   <g id="line2d_43">
    <path clip-path="url(#p4dd2f7fc7a)" d="M 146.91 495.377276 
L 165.566435 495.377277 
L 165.947178 494.302746 
L 168.612383 493.827898 
L 170.135357 493.376696 
L 171.277588 492.863684 
L 172.419819 492.059147 
L 173.181306 491.209259 
L 173.942793 489.840416 
L 174.323537 488.786119 
L 174.70428 487.268405 
L 175.085024 484.895561 
L 175.465767 480.66166 
L 175.846511 470.964158 
L 176.227255 425.990083 
L 176.607998 580.809917 
L 176.988742 522.114883 
L 177.369485 511.330218 
L 177.750229 506.797182 
L 178.130972 504.301396 
L 178.511716 502.721388 
L 179.273203 500.83381 
L 180.03469 499.745171 
L 180.796177 499.03678 
L 181.938408 498.341828 
L 183.461382 497.76674 
L 185.3651 497.323696 
L 188.030305 496.947792 
L 192.218484 496.61348 
L 198.691125 496.344071 
L 210.113432 496.120687 
L 232.196559 495.947208 
L 281.693222 495.824255 
L 425.233546 495.75159 
L 546.31 495.738743 
L 546.31 495.738743 
" style="fill:none;stroke:#2ca02c;stroke-linecap:square;stroke-width:3;"/>
   </g>
   <g id="patch_11">
    <path d="M 126.94 588.550909 
L 126.94 418.249091 
" style="fill:none;stroke:#000000;stroke-linecap:square;stroke-linejoin:miter;stroke-width:1.875;"/>
   </g>
   <g id="patch_12">
    <path d="M 126.94 588.550909 
L 566.28 588.550909 
" style="fill:none;stroke:#000000;stroke-linecap:square;stroke-linejoin:miter;stroke-width:1.875;"/>
   </g>
   <g id="text_35">
    <!-- Debt service on -->
    <defs>
     <path d="M 19.671875 64.796875 
L 19.671875 8.109375 
L 31.59375 8.109375 
Q 46.6875 8.109375 53.6875 14.9375 
Q 60.6875 21.78125 60.6875 36.53125 
Q 60.6875 51.171875 53.6875 57.984375 
Q 46.6875 64.796875 31.59375 64.796875 
z
M 9.8125 72.90625 
L 30.078125 72.90625 
Q 51.265625 72.90625 61.171875 64.09375 
Q 71.09375 55.28125 71.09375 36.53125 
Q 71.09375 17.671875 61.125 8.828125 
Q 51.171875 0 30.078125 0 
L 9.8125 0 
z
" id="DejaVuSans-68"/>
     <path d="M 48.6875 27.296875 
Q 48.6875 37.203125 44.609375 42.84375 
Q 40.53125 48.484375 33.40625 48.484375 
Q 26.265625 48.484375 22.1875 42.84375 
Q 18.109375 37.203125 18.109375 27.296875 
Q 18.109375 17.390625 22.1875 11.75 
Q 26.265625 6.109375 33.40625 6.109375 
Q 40.53125 6.109375 44.609375 11.75 
Q 48.6875 17.390625 48.6875 27.296875 
z
M 18.109375 46.390625 
Q 20.953125 51.265625 25.265625 53.625 
Q 29.59375 56 35.59375 56 
Q 45.5625 56 51.78125 48.09375 
Q 58.015625 40.1875 58.015625 27.296875 
Q 58.015625 14.40625 51.78125 6.484375 
Q 45.5625 -1.421875 35.59375 -1.421875 
Q 29.59375 -1.421875 25.265625 0.953125 
Q 20.953125 3.328125 18.109375 8.203125 
L 18.109375 0 
L 9.078125 0 
L 9.078125 75.984375 
L 18.109375 75.984375 
z
" id="DejaVuSans-98"/>
     <path d="M 2.984375 54.6875 
L 12.5 54.6875 
L 29.59375 8.796875 
L 46.6875 54.6875 
L 56.203125 54.6875 
L 35.6875 0 
L 23.484375 0 
z
" id="DejaVuSans-118"/>
    </defs>
    <g transform="translate(275.729375 392.093028)scale(0.18 -0.18)">
     <use xlink:href="#DejaVuSans-68"/>
     <use x="77.001953" xlink:href="#DejaVuSans-101"/>
     <use x="138.525391" xlink:href="#DejaVuSans-98"/>
     <use x="202.001953" xlink:href="#DejaVuSans-116"/>
     <use x="241.210938" xlink:href="#DejaVuSans-32"/>
     <use x="272.998047" xlink:href="#DejaVuSans-115"/>
     <use x="325.097656" xlink:href="#DejaVuSans-101"/>
     <use x="386.621094" xlink:href="#DejaVuSans-114"/>
     <use x="427.734375" xlink:href="#DejaVuSans-118"/>
     <use x="486.914062" xlink:href="#DejaVuSans-105"/>
     <use x="514.697266" xlink:href="#DejaVuSans-99"/>
     <use x="569.677734" xlink:href="#DejaVuSans-101"/>
     <use x="631.201172" xlink:href="#DejaVuSans-32"/>
     <use x="662.988281" xlink:href="#DejaVuSans-111"/>
     <use x="724.169922" xlink:href="#DejaVuSans-110"/>
    </g>
    <!-- Disposable income -->
    <defs>
     <path d="M 52 44.1875 
Q 55.375 50.25 60.0625 53.125 
Q 64.75 56 71.09375 56 
Q 79.640625 56 84.28125 50.015625 
Q 88.921875 44.046875 88.921875 33.015625 
L 88.921875 0 
L 79.890625 0 
L 79.890625 32.71875 
Q 79.890625 40.578125 77.09375 44.375 
Q 74.3125 48.1875 68.609375 48.1875 
Q 61.625 48.1875 57.5625 43.546875 
Q 53.515625 38.921875 53.515625 30.90625 
L 53.515625 0 
L 44.484375 0 
L 44.484375 32.71875 
Q 44.484375 40.625 41.703125 44.40625 
Q 38.921875 48.1875 33.109375 48.1875 
Q 26.21875 48.1875 22.15625 43.53125 
Q 18.109375 38.875 18.109375 30.90625 
L 18.109375 0 
L 9.078125 0 
L 9.078125 54.6875 
L 18.109375 54.6875 
L 18.109375 46.1875 
Q 21.1875 51.21875 25.484375 53.609375 
Q 29.78125 56 35.6875 56 
Q 41.65625 56 45.828125 52.96875 
Q 50 49.953125 52 44.1875 
z
" id="DejaVuSans-109"/>
    </defs>
    <g transform="translate(261.491094 412.249091)scale(0.18 -0.18)">
     <use xlink:href="#DejaVuSans-68"/>
     <use x="77.001953" xlink:href="#DejaVuSans-105"/>
     <use x="104.785156" xlink:href="#DejaVuSans-115"/>
     <use x="156.884766" xlink:href="#DejaVuSans-112"/>
     <use x="220.361328" xlink:href="#DejaVuSans-111"/>
     <use x="281.542969" xlink:href="#DejaVuSans-115"/>
     <use x="333.642578" xlink:href="#DejaVuSans-97"/>
     <use x="394.921875" xlink:href="#DejaVuSans-98"/>
     <use x="458.398438" xlink:href="#DejaVuSans-108"/>
     <use x="486.181641" xlink:href="#DejaVuSans-101"/>
     <use x="547.705078" xlink:href="#DejaVuSans-32"/>
     <use x="579.492188" xlink:href="#DejaVuSans-105"/>
     <use x="607.275391" xlink:href="#DejaVuSans-110"/>
     <use x="670.654297" xlink:href="#DejaVuSans-99"/>
     <use x="725.634766" xlink:href="#DejaVuSans-111"/>
     <use x="786.816406" xlink:href="#DejaVuSans-109"/>
     <use x="884.228516" xlink:href="#DejaVuSans-101"/>
    </g>
   </g>
   <g id="legend_2">
    <g id="patch_13">
     <path d="M 223.944766 669.218903 
L 473.275234 669.218903 
Q 476.575234 669.218903 476.575234 665.918903 
L 476.575234 619.131091 
Q 476.575234 615.831091 473.275234 615.831091 
L 223.944766 615.831091 
Q 220.644766 615.831091 220.644766 619.131091 
L 220.644766 665.918903 
Q 220.644766 669.218903 223.944766 669.218903 
z
" style="fill:#4c4c4c;opacity:0.5;stroke:#4c4c4c;stroke-linejoin:miter;stroke-width:1.5;"/>
    </g>
    <g id="patch_14">
     <path d="M 221.944766 667.218903 
L 471.275234 667.218903 
Q 474.575234 667.218903 474.575234 663.918903 
L 474.575234 617.131091 
Q 474.575234 613.831091 471.275234 613.831091 
L 221.944766 613.831091 
Q 218.644766 613.831091 218.644766 617.131091 
L 218.644766 663.918903 
Q 218.644766 667.218903 221.944766 667.218903 
z
" style="fill:#ffffff;stroke:#cccccc;stroke-linejoin:miter;stroke-width:1.5;"/>
    </g>
    <g id="line2d_44">
     <path d="M 225.244766 627.193513 
L 258.244766 627.193513 
" style="fill:none;stroke:#1f77b4;stroke-linecap:square;stroke-width:3;"/>
    </g>
    <g id="line2d_45"/>
    <g id="text_36">
     <!-- Mortgage -->
     <defs>
      <path d="M 9.8125 72.90625 
L 24.515625 72.90625 
L 43.109375 23.296875 
L 61.8125 72.90625 
L 76.515625 72.90625 
L 76.515625 0 
L 66.890625 0 
L 66.890625 64.015625 
L 48.09375 14.015625 
L 38.1875 14.015625 
L 19.390625 64.015625 
L 19.390625 0 
L 9.8125 0 
z
" id="DejaVuSans-77"/>
     </defs>
     <g transform="translate(271.444766 632.968513)scale(0.165 -0.165)">
      <use xlink:href="#DejaVuSans-77"/>
      <use x="86.279297" xlink:href="#DejaVuSans-111"/>
      <use x="147.460938" xlink:href="#DejaVuSans-114"/>
      <use x="188.574219" xlink:href="#DejaVuSans-116"/>
      <use x="227.783203" xlink:href="#DejaVuSans-103"/>
      <use x="291.259766" xlink:href="#DejaVuSans-97"/>
      <use x="352.539062" xlink:href="#DejaVuSans-103"/>
      <use x="416.015625" xlink:href="#DejaVuSans-101"/>
     </g>
    </g>
    <g id="line2d_46">
     <path d="M 225.244766 651.412419 
L 258.244766 651.412419 
" style="fill:none;stroke:#ff7f0e;stroke-linecap:square;stroke-width:3;"/>
    </g>
    <g id="line2d_47"/>
    <g id="text_37">
     <!-- Loans -->
     <defs>
      <path d="M 9.8125 72.90625 
L 19.671875 72.90625 
L 19.671875 8.296875 
L 55.171875 8.296875 
L 55.171875 0 
L 9.8125 0 
z
" id="DejaVuSans-76"/>
     </defs>
     <g transform="translate(271.444766 657.187419)scale(0.165 -0.165)">
      <use xlink:href="#DejaVuSans-76"/>
      <use x="53.962891" xlink:href="#DejaVuSans-111"/>
      <use x="115.144531" xlink:href="#DejaVuSans-97"/>
      <use x="176.423828" xlink:href="#DejaVuSans-110"/>
      <use x="239.802734" xlink:href="#DejaVuSans-115"/>
     </g>
    </g>
    <g id="line2d_48">
     <path d="M 383.242578 627.193513 
L 416.242578 627.193513 
" style="fill:none;stroke:#2ca02c;stroke-linecap:square;stroke-width:3;"/>
    </g>
    <g id="line2d_49"/>
    <g id="text_38">
     <!-- Total -->
     <g transform="translate(429.442578 632.968513)scale(0.165 -0.165)">
      <use xlink:href="#DejaVuSans-84"/>
      <use x="44.083984" xlink:href="#DejaVuSans-111"/>
      <use x="105.265625" xlink:href="#DejaVuSans-116"/>
      <use x="144.474609" xlink:href="#DejaVuSans-97"/>
      <use x="205.753906" xlink:href="#DejaVuSans-108"/>
     </g>
    </g>
   </g>
  </g>
  <g id="axes_4">
   <g id="patch_15">
    <path d="M 693.22 588.550909 
L 1132.56 588.550909 
L 1132.56 418.249091 
L 693.22 418.249091 
z
" style="fill:#ffffff;"/>
   </g>
   <g id="matplotlib.axis_7">
    <g id="xtick_19">
     <g id="line2d_50">
      <g>
       <use style="stroke:#000000;stroke-width:1.875;" x="713.19" xlink:href="#m64f705d3b0" y="588.550909"/>
      </g>
     </g>
     <g id="text_39">
      <!-- 0 -->
      <g transform="translate(707.940938 613.588331)scale(0.165 -0.165)">
       <use xlink:href="#DejaVuSans-48"/>
      </g>
     </g>
    </g>
    <g id="xtick_20">
     <g id="line2d_51">
      <g>
       <use style="stroke:#000000;stroke-width:1.875;" x="789.26619" xlink:href="#m64f705d3b0" y="588.550909"/>
      </g>
     </g>
     <g id="text_40">
      <!-- 200 -->
      <g transform="translate(773.519003 613.588331)scale(0.165 -0.165)">
       <use xlink:href="#DejaVuSans-50"/>
       <use x="63.623047" xlink:href="#DejaVuSans-48"/>
       <use x="127.246094" xlink:href="#DejaVuSans-48"/>
      </g>
     </g>
    </g>
    <g id="xtick_21">
     <g id="line2d_52">
      <g>
       <use style="stroke:#000000;stroke-width:1.875;" x="865.342381" xlink:href="#m64f705d3b0" y="588.550909"/>
      </g>
     </g>
     <g id="text_41">
      <!-- 400 -->
      <g transform="translate(849.595193 613.588331)scale(0.165 -0.165)">
       <use xlink:href="#DejaVuSans-52"/>
       <use x="63.623047" xlink:href="#DejaVuSans-48"/>
       <use x="127.246094" xlink:href="#DejaVuSans-48"/>
      </g>
     </g>
    </g>
    <g id="xtick_22">
     <g id="line2d_53">
      <g>
       <use style="stroke:#000000;stroke-width:1.875;" x="941.418571" xlink:href="#m64f705d3b0" y="588.550909"/>
      </g>
     </g>
     <g id="text_42">
      <!-- 600 -->
      <g transform="translate(925.671384 613.588331)scale(0.165 -0.165)">
       <use xlink:href="#DejaVuSans-54"/>
       <use x="63.623047" xlink:href="#DejaVuSans-48"/>
       <use x="127.246094" xlink:href="#DejaVuSans-48"/>
      </g>
     </g>
    </g>
    <g id="xtick_23">
     <g id="line2d_54">
      <g>
       <use style="stroke:#000000;stroke-width:1.875;" x="1017.494762" xlink:href="#m64f705d3b0" y="588.550909"/>
      </g>
     </g>
     <g id="text_43">
      <!-- 800 -->
      <g transform="translate(1001.747574 613.588331)scale(0.165 -0.165)">
       <use xlink:href="#DejaVuSans-56"/>
       <use x="63.623047" xlink:href="#DejaVuSans-48"/>
       <use x="127.246094" xlink:href="#DejaVuSans-48"/>
      </g>
     </g>
    </g>
    <g id="xtick_24">
     <g id="line2d_55">
      <g>
       <use style="stroke:#000000;stroke-width:1.875;" x="1093.570952" xlink:href="#m64f705d3b0" y="588.550909"/>
      </g>
     </g>
     <g id="text_44">
      <!-- 1000 -->
      <g transform="translate(1072.574702 613.588331)scale(0.165 -0.165)">
       <use xlink:href="#DejaVuSans-49"/>
       <use x="63.623047" xlink:href="#DejaVuSans-48"/>
       <use x="127.246094" xlink:href="#DejaVuSans-48"/>
       <use x="190.869141" xlink:href="#DejaVuSans-48"/>
      </g>
     </g>
    </g>
   </g>
   <g id="matplotlib.axis_8">
    <g id="ytick_12">
     <g id="line2d_56">
      <g>
       <use style="stroke:#000000;stroke-width:1.875;" x="693.22" xlink:href="#mdaeed1f751" y="583.956854"/>
      </g>
     </g>
     <g id="text_45">
      <!-- -40,000.0% -->
      <g transform="translate(585.612969 590.225565)scale(0.165 -0.165)">
       <use xlink:href="#DejaVuSans-45"/>
       <use x="36.083984" xlink:href="#DejaVuSans-52"/>
       <use x="99.707031" xlink:href="#DejaVuSans-48"/>
       <use x="163.330078" xlink:href="#DejaVuSans-44"/>
       <use x="195.117188" xlink:href="#DejaVuSans-48"/>
       <use x="258.740234" xlink:href="#DejaVuSans-48"/>
       <use x="322.363281" xlink:href="#DejaVuSans-48"/>
       <use x="385.986328" xlink:href="#DejaVuSans-46"/>
       <use x="417.773438" xlink:href="#DejaVuSans-48"/>
       <use x="481.396484" xlink:href="#DejaVuSans-37"/>
      </g>
     </g>
    </g>
    <g id="ytick_13">
     <g id="line2d_57">
      <g>
       <use style="stroke:#000000;stroke-width:1.875;" x="693.22" xlink:href="#mdaeed1f751" y="517.620528"/>
      </g>
     </g>
     <g id="text_46">
      <!-- -20,000.0% -->
      <g transform="translate(585.612969 523.889239)scale(0.165 -0.165)">
       <use xlink:href="#DejaVuSans-45"/>
       <use x="36.083984" xlink:href="#DejaVuSans-50"/>
       <use x="99.707031" xlink:href="#DejaVuSans-48"/>
       <use x="163.330078" xlink:href="#DejaVuSans-44"/>
       <use x="195.117188" xlink:href="#DejaVuSans-48"/>
       <use x="258.740234" xlink:href="#DejaVuSans-48"/>
       <use x="322.363281" xlink:href="#DejaVuSans-48"/>
       <use x="385.986328" xlink:href="#DejaVuSans-46"/>
       <use x="417.773438" xlink:href="#DejaVuSans-48"/>
       <use x="481.396484" xlink:href="#DejaVuSans-37"/>
      </g>
     </g>
    </g>
    <g id="ytick_14">
     <g id="line2d_58">
      <g>
       <use style="stroke:#000000;stroke-width:1.875;" x="693.22" xlink:href="#mdaeed1f751" y="451.284201"/>
      </g>
     </g>
     <g id="text_47">
      <!-- 0.0% -->
      <g transform="translate(638.802266 457.552912)scale(0.165 -0.165)">
       <use xlink:href="#DejaVuSans-48"/>
       <use x="63.623047" xlink:href="#DejaVuSans-46"/>
       <use x="95.410156" xlink:href="#DejaVuSans-48"/>
       <use x="159.033203" xlink:href="#DejaVuSans-37"/>
      </g>
     </g>
    </g>
   </g>
   <g id="line2d_59">
    <path clip-path="url(#pff0f575ce1)" d="M 713.19 510.624824 
L 732.209048 510.697579 
L 734.110952 530.279377 
L 735.632476 543.901774 
L 737.154 555.481917 
L 738.295143 562.755471 
L 739.436286 568.790855 
L 740.577429 573.577801 
L 741.33819 576.08034 
L 742.098952 578.041811 
L 742.859714 579.470767 
L 743.620476 580.381765 
L 744.381238 580.789856 
L 744.761619 580.809917 
L 745.142 580.711629 
L 745.902762 580.167708 
L 746.663524 579.17855 
L 747.424286 577.770227 
L 748.185048 575.964801 
L 749.32619 572.57493 
L 750.467333 568.445844 
L 751.988857 561.966108 
L 753.890762 552.629446 
L 756.173048 540.245885 
L 762.259143 506.607694 
L 764.161048 497.402085 
L 766.062952 489.360241 
L 767.584476 483.918468 
L 769.106 479.426208 
L 770.247143 476.715662 
L 771.388286 474.580739 
L 772.529429 473.021738 
L 773.29019 472.298648 
L 774.050952 471.823621 
L 774.811714 471.590737 
L 775.572476 471.592669 
L 776.333238 471.82078 
L 777.094 472.26523 
L 777.854762 472.915083 
L 778.995905 474.260984 
L 780.137048 475.984894 
L 781.658571 478.810165 
L 783.180095 482.128643 
L 785.462381 487.763366 
L 793.450381 508.377353 
L 795.352286 512.431643 
L 797.25419 515.892226 
L 798.775714 518.151615 
L 800.297238 519.946465 
L 801.438381 520.981439 
L 802.579524 521.750008 
L 803.720667 522.256515 
L 804.86181 522.508749 
L 806.002952 522.51763 
L 807.144095 522.296873 
L 808.285238 521.862634 
L 809.806762 520.983327 
L 811.328286 519.804862 
L 813.23019 517.989927 
L 815.512476 515.450176 
L 820.077048 509.882728 
L 823.120095 506.343244 
L 825.402381 504.011373 
L 827.304286 502.361545 
L 829.20619 501.021743 
L 830.727714 500.189881 
L 832.249238 499.577519 
L 833.770762 499.184034 
L 835.292286 499.003297 
L 836.81381 499.024222 
L 838.715714 499.310155 
L 840.617619 499.84907 
L 842.899905 500.767028 
L 845.562571 502.105287 
L 856.213238 507.788352 
L 858.875905 508.772702 
L 861.15819 509.38073 
L 863.440476 509.760302 
L 865.722762 509.915434 
L 868.005048 509.862117 
L 870.667714 509.571248 
L 873.710762 509.003146 
L 877.894952 507.973829 
L 885.502571 506.070236 
L 889.306381 505.383899 
L 892.72981 505.003822 
L 896.153238 504.860133 
L 899.576667 504.932622 
L 903.760857 505.250626 
L 910.607714 506.048216 
L 917.834952 506.822094 
L 922.779905 507.125619 
L 927.724857 507.202866 
L 933.430571 507.054383 
L 944.461619 506.46466 
L 952.449619 506.168068 
L 959.676857 506.127401 
L 969.566762 506.325676 
L 984.401619 506.610872 
L 995.813048 506.573079 
L 1022.439714 506.395105 
L 1073.030381 506.449382 
L 1112.59 506.468886 
L 1112.59 506.468886 
" style="fill:none;stroke:#1f77b4;stroke-linecap:square;stroke-width:2.25;"/>
   </g>
   <g id="line2d_60">
    <path clip-path="url(#pff0f575ce1)" d="M 713.19 495.729604 
L 732.209048 495.804852 
L 732.589429 485.023241 
L 734.491333 503.949937 
L 736.012857 516.934147 
L 737.534381 527.792714 
L 738.675524 534.464819 
L 739.816667 539.849707 
L 740.95781 543.943668 
L 741.718571 545.962177 
L 742.479333 547.421245 
L 743.240095 548.333713 
L 744.000857 548.714724 
L 744.381238 548.710683 
L 744.761619 548.579544 
L 745.522381 547.948458 
L 746.283143 546.843296 
L 747.043905 545.287917 
L 747.804667 543.305801 
L 748.94581 539.596895 
L 750.086952 535.08662 
L 751.608476 528.009005 
L 753.510381 517.797278 
L 755.792667 504.212426 
L 762.259143 464.812086 
L 764.161048 454.700726 
L 766.062952 445.861682 
L 767.584476 439.868601 
L 769.106 434.906394 
L 770.247143 431.898111 
L 771.388286 429.512593 
L 772.529429 427.749705 
L 773.29019 426.916164 
L 774.050952 426.350577 
L 774.811714 426.046492 
L 775.572476 425.995955 
L 776.333238 426.189615 
L 777.094 426.616838 
L 777.854762 427.265823 
L 778.995905 428.639028 
L 780.137048 430.421558 
L 781.27819 432.575903 
L 782.799714 435.93423 
L 784.701619 440.728636 
L 787.744667 449.174344 
L 791.928857 460.749223 
L 794.211143 466.355044 
L 796.113048 470.394898 
L 797.634571 473.152978 
L 799.156095 475.414566 
L 800.297238 476.784134 
L 801.438381 477.869251 
L 802.579524 478.670521 
L 803.720667 479.192548 
L 804.86181 479.443628 
L 806.002952 479.435408 
L 807.144095 479.182527 
L 808.285238 478.702237 
L 809.426381 478.014009 
L 810.947905 476.809939 
L 812.469429 475.328483 
L 814.371333 473.17375 
L 817.034 469.795847 
L 822.739714 462.420954 
L 825.022 459.855884 
L 826.923905 458.021856 
L 828.82581 456.513471 
L 830.347333 455.561296 
L 831.868857 454.843689 
L 833.390381 454.361458 
L 834.911905 454.109394 
L 836.433429 454.076833 
L 837.954952 454.248325 
L 839.856857 454.719612 
L 841.758762 455.434023 
L 844.041048 456.541006 
L 847.084095 458.288822 
L 853.930952 462.335937 
L 856.593619 463.624982 
L 858.875905 464.507119 
L 861.15819 465.155251 
L 863.440476 465.559043 
L 865.722762 465.722838 
L 868.005048 465.663784 
L 870.667714 465.3505 
L 873.710762 464.7407 
L 877.894952 463.637437 
L 885.502571 461.599196 
L 888.926 460.925526 
L 892.349429 460.491015 
L 895.392476 460.317992 
L 898.815905 460.347822 
L 902.619714 460.609571 
L 907.945048 461.227257 
L 917.454571 462.370264 
L 922.399524 462.712767 
L 926.964095 462.813542 
L 932.289429 462.700601 
L 940.277429 462.265741 
L 950.167333 461.766341 
L 957.01419 461.649713 
L 965.00219 461.751201 
L 987.825048 462.188796 
L 1000.758 462.074758 
L 1019.396667 461.939541 
L 1112.59 462.0254 
L 1112.59 462.0254 
" style="fill:none;stroke:#ff7f0e;stroke-linecap:square;stroke-width:2.25;"/>
   </g>
   <g id="patch_16">
    <path d="M 693.22 588.550909 
L 693.22 418.249091 
" style="fill:none;stroke:#000000;stroke-linecap:square;stroke-linejoin:miter;stroke-width:1.875;"/>
   </g>
   <g id="patch_17">
    <path d="M 693.22 588.550909 
L 1132.56 588.550909 
" style="fill:none;stroke:#000000;stroke-linecap:square;stroke-linejoin:miter;stroke-width:1.875;"/>
   </g>
   <g id="legend_3">
    <g id="patch_18">
     <path d="M 933.879375 580.300909 
L 1121.01 580.300909 
Q 1124.31 580.300909 1124.31 577.000909 
L 1124.31 530.213097 
Q 1124.31 526.913097 1121.01 526.913097 
L 933.879375 526.913097 
Q 930.579375 526.913097 930.579375 530.213097 
L 930.579375 577.000909 
Q 930.579375 580.300909 933.879375 580.300909 
z
" style="fill:#ffffff;opacity:0.8;stroke:#cccccc;stroke-linejoin:miter;stroke-width:1.5;"/>
    </g>
    <g id="line2d_61">
     <path d="M 937.179375 540.275518 
L 970.179375 540.275518 
" style="fill:none;stroke:#1f77b4;stroke-linecap:square;stroke-width:2.25;"/>
    </g>
    <g id="line2d_62"/>
    <g id="text_48">
     <!-- Gross profit rate -->
     <defs>
      <path d="M 59.515625 10.40625 
L 59.515625 29.984375 
L 43.40625 29.984375 
L 43.40625 38.09375 
L 69.28125 38.09375 
L 69.28125 6.78125 
Q 63.578125 2.734375 56.6875 0.65625 
Q 49.8125 -1.421875 42 -1.421875 
Q 24.90625 -1.421875 15.25 8.5625 
Q 5.609375 18.5625 5.609375 36.375 
Q 5.609375 54.25 15.25 64.234375 
Q 24.90625 74.21875 42 74.21875 
Q 49.125 74.21875 55.546875 72.453125 
Q 61.96875 70.703125 67.390625 67.28125 
L 67.390625 56.78125 
Q 61.921875 61.421875 55.765625 63.765625 
Q 49.609375 66.109375 42.828125 66.109375 
Q 29.4375 66.109375 22.71875 58.640625 
Q 16.015625 51.171875 16.015625 36.375 
Q 16.015625 21.625 22.71875 14.15625 
Q 29.4375 6.6875 42.828125 6.6875 
Q 48.046875 6.6875 52.140625 7.59375 
Q 56.25 8.5 59.515625 10.40625 
z
" id="DejaVuSans-71"/>
     </defs>
     <g transform="translate(983.379375 546.050518)scale(0.165 -0.165)">
      <use xlink:href="#DejaVuSans-71"/>
      <use x="77.490234" xlink:href="#DejaVuSans-114"/>
      <use x="116.353516" xlink:href="#DejaVuSans-111"/>
      <use x="177.535156" xlink:href="#DejaVuSans-115"/>
      <use x="229.634766" xlink:href="#DejaVuSans-115"/>
      <use x="281.734375" xlink:href="#DejaVuSans-32"/>
      <use x="313.521484" xlink:href="#DejaVuSans-112"/>
      <use x="376.998047" xlink:href="#DejaVuSans-114"/>
      <use x="415.861328" xlink:href="#DejaVuSans-111"/>
      <use x="477.042969" xlink:href="#DejaVuSans-102"/>
      <use x="512.248047" xlink:href="#DejaVuSans-105"/>
      <use x="540.03125" xlink:href="#DejaVuSans-116"/>
      <use x="579.240234" xlink:href="#DejaVuSans-32"/>
      <use x="611.027344" xlink:href="#DejaVuSans-114"/>
      <use x="652.140625" xlink:href="#DejaVuSans-97"/>
      <use x="713.419922" xlink:href="#DejaVuSans-116"/>
      <use x="752.628906" xlink:href="#DejaVuSans-101"/>
     </g>
    </g>
    <g id="line2d_63">
     <path d="M 937.179375 564.494425 
L 970.179375 564.494425 
" style="fill:none;stroke:#ff7f0e;stroke-linecap:square;stroke-width:2.25;"/>
    </g>
    <g id="line2d_64"/>
    <g id="text_49">
     <!-- Net profit rate -->
     <defs>
      <path d="M 9.8125 72.90625 
L 23.09375 72.90625 
L 55.421875 11.921875 
L 55.421875 72.90625 
L 64.984375 72.90625 
L 64.984375 0 
L 51.703125 0 
L 19.390625 60.984375 
L 19.390625 0 
L 9.8125 0 
z
" id="DejaVuSans-78"/>
     </defs>
     <g transform="translate(983.379375 570.269425)scale(0.165 -0.165)">
      <use xlink:href="#DejaVuSans-78"/>
      <use x="74.804688" xlink:href="#DejaVuSans-101"/>
      <use x="136.328125" xlink:href="#DejaVuSans-116"/>
      <use x="175.537109" xlink:href="#DejaVuSans-32"/>
      <use x="207.324219" xlink:href="#DejaVuSans-112"/>
      <use x="270.800781" xlink:href="#DejaVuSans-114"/>
      <use x="309.664062" xlink:href="#DejaVuSans-111"/>
      <use x="370.845703" xlink:href="#DejaVuSans-102"/>
      <use x="406.050781" xlink:href="#DejaVuSans-105"/>
      <use x="433.833984" xlink:href="#DejaVuSans-116"/>
      <use x="473.042969" xlink:href="#DejaVuSans-32"/>
      <use x="504.830078" xlink:href="#DejaVuSans-114"/>
      <use x="545.943359" xlink:href="#DejaVuSans-97"/>
      <use x="607.222656" xlink:href="#DejaVuSans-116"/>
      <use x="646.431641" xlink:href="#DejaVuSans-101"/>
     </g>
    </g>
   </g>
  </g>
 </g>
 <defs>
  <clipPath id="p5a2e6f1f5f">
   <rect height="170.301818" width="439.34" x="126.94" y="96.24"/>
  </clipPath>
  <clipPath id="pc7ba501c38">
   <rect height="170.301818" width="439.34" x="693.22" y="96.24"/>
  </clipPath>
  <clipPath id="p4dd2f7fc7a">
   <rect height="170.301818" width="439.34" x="126.94" y="418.249091"/>
  </clipPath>
  <clipPath id="pff0f575ce1">
   <rect height="170.301818" width="439.34" x="693.22" y="418.249091"/>
  </clipPath>
 </defs>
</svg>
