<?xml version="1.0" encoding="utf-8" standalone="no"?>
<!DOCTYPE svg PUBLIC "-//W3C//DTD SVG 1.1//EN"
  "http://www.w3.org/Graphics/SVG/1.1/DTD/svg11.dtd">
<!-- Created with matplotlib (https://matplotlib.org/) -->
<svg height="720pt" version="1.1" viewBox="0 0 1152 720" width="1152pt" xmlns="http://www.w3.org/2000/svg" xmlns:xlink="http://www.w3.org/1999/xlink">
 <defs>
  <style type="text/css">
*{stroke-linecap:butt;stroke-linejoin:round;}
  </style>
 </defs>
 <g id="figure_1">
  <g id="patch_1">
   <path d="M 0 720 
L 1152 720 
L 1152 0 
L 0 0 
z
" style="fill:#ffffff;"/>
  </g>
  <g id="axes_1">
   <g id="patch_2">
    <path d="M 94.69 266.541818 
L 571.4675 266.541818 
L 571.4675 96.24 
L 94.69 96.24 
z
" style="fill:#ffffff;"/>
   </g>
   <g id="matplotlib.axis_1">
    <g id="xtick_1">
     <g id="line2d_1">
      <defs>
       <path d="M 0 0 
L 0 9 
" id="m458d93033b" style="stroke:#000000;stroke-width:1.875;"/>
      </defs>
      <g>
       <use style="stroke:#000000;stroke-width:1.875;" x="116.361705" xlink:href="#m458d93033b" y="266.541818"/>
      </g>
     </g>
     <g id="text_1">
      <!-- 0 -->
      <defs>
       <path d="M 31.78125 66.40625 
Q 24.171875 66.40625 20.328125 58.90625 
Q 16.5 51.421875 16.5 36.375 
Q 16.5 21.390625 20.328125 13.890625 
Q 24.171875 6.390625 31.78125 6.390625 
Q 39.453125 6.390625 43.28125 13.890625 
Q 47.125 21.390625 47.125 36.375 
Q 47.125 51.421875 43.28125 58.90625 
Q 39.453125 66.40625 31.78125 66.40625 
z
M 31.78125 74.21875 
Q 44.046875 74.21875 50.515625 64.515625 
Q 56.984375 54.828125 56.984375 36.375 
Q 56.984375 17.96875 50.515625 8.265625 
Q 44.046875 -1.421875 31.78125 -1.421875 
Q 19.53125 -1.421875 13.0625 8.265625 
Q 6.59375 17.96875 6.59375 36.375 
Q 6.59375 54.828125 13.0625 64.515625 
Q 19.53125 74.21875 31.78125 74.21875 
z
" id="DejaVuSans-48"/>
      </defs>
      <g transform="translate(111.112642 291.57924)scale(0.165 -0.165)">
       <use xlink:href="#DejaVuSans-48"/>
      </g>
     </g>
    </g>
    <g id="xtick_2">
     <g id="line2d_2">
      <g>
       <use style="stroke:#000000;stroke-width:1.875;" x="198.920579" xlink:href="#m458d93033b" y="266.541818"/>
      </g>
     </g>
     <g id="text_2">
      <!-- 200 -->
      <defs>
       <path d="M 19.1875 8.296875 
L 53.609375 8.296875 
L 53.609375 0 
L 7.328125 0 
L 7.328125 8.296875 
Q 12.9375 14.109375 22.625 23.890625 
Q 32.328125 33.6875 34.8125 36.53125 
Q 39.546875 41.84375 41.421875 45.53125 
Q 43.3125 49.21875 43.3125 52.78125 
Q 43.3125 58.59375 39.234375 62.25 
Q 35.15625 65.921875 28.609375 65.921875 
Q 23.96875 65.921875 18.8125 64.3125 
Q 13.671875 62.703125 7.8125 59.421875 
L 7.8125 69.390625 
Q 13.765625 71.78125 18.9375 73 
Q 24.125 74.21875 28.421875 74.21875 
Q 39.75 74.21875 46.484375 68.546875 
Q 53.21875 62.890625 53.21875 53.421875 
Q 53.21875 48.921875 51.53125 44.890625 
Q 49.859375 40.875 45.40625 35.40625 
Q 44.1875 33.984375 37.640625 27.21875 
Q 31.109375 20.453125 19.1875 8.296875 
z
" id="DejaVuSans-50"/>
      </defs>
      <g transform="translate(183.173392 291.57924)scale(0.165 -0.165)">
       <use xlink:href="#DejaVuSans-50"/>
       <use x="63.623047" xlink:href="#DejaVuSans-48"/>
       <use x="127.246094" xlink:href="#DejaVuSans-48"/>
      </g>
     </g>
    </g>
    <g id="xtick_3">
     <g id="line2d_3">
      <g>
       <use style="stroke:#000000;stroke-width:1.875;" x="281.479453" xlink:href="#m458d93033b" y="266.541818"/>
      </g>
     </g>
     <g id="text_3">
      <!-- 400 -->
      <defs>
       <path d="M 37.796875 64.3125 
L 12.890625 25.390625 
L 37.796875 25.390625 
z
M 35.203125 72.90625 
L 47.609375 72.90625 
L 47.609375 25.390625 
L 58.015625 25.390625 
L 58.015625 17.1875 
L 47.609375 17.1875 
L 47.609375 0 
L 37.796875 0 
L 37.796875 17.1875 
L 4.890625 17.1875 
L 4.890625 26.703125 
z
" id="DejaVuSans-52"/>
      </defs>
      <g transform="translate(265.732266 291.57924)scale(0.165 -0.165)">
       <use xlink:href="#DejaVuSans-52"/>
       <use x="63.623047" xlink:href="#DejaVuSans-48"/>
       <use x="127.246094" xlink:href="#DejaVuSans-48"/>
      </g>
     </g>
    </g>
    <g id="xtick_4">
     <g id="line2d_4">
      <g>
       <use style="stroke:#000000;stroke-width:1.875;" x="364.038328" xlink:href="#m458d93033b" y="266.541818"/>
      </g>
     </g>
     <g id="text_4">
      <!-- 600 -->
      <defs>
       <path d="M 33.015625 40.375 
Q 26.375 40.375 22.484375 35.828125 
Q 18.609375 31.296875 18.609375 23.390625 
Q 18.609375 15.53125 22.484375 10.953125 
Q 26.375 6.390625 33.015625 6.390625 
Q 39.65625 6.390625 43.53125 10.953125 
Q 47.40625 15.53125 47.40625 23.390625 
Q 47.40625 31.296875 43.53125 35.828125 
Q 39.65625 40.375 33.015625 40.375 
z
M 52.59375 71.296875 
L 52.59375 62.3125 
Q 48.875 64.0625 45.09375 64.984375 
Q 41.3125 65.921875 37.59375 65.921875 
Q 27.828125 65.921875 22.671875 59.328125 
Q 17.53125 52.734375 16.796875 39.40625 
Q 19.671875 43.65625 24.015625 45.921875 
Q 28.375 48.1875 33.59375 48.1875 
Q 44.578125 48.1875 50.953125 41.515625 
Q 57.328125 34.859375 57.328125 23.390625 
Q 57.328125 12.15625 50.6875 5.359375 
Q 44.046875 -1.421875 33.015625 -1.421875 
Q 20.359375 -1.421875 13.671875 8.265625 
Q 6.984375 17.96875 6.984375 36.375 
Q 6.984375 53.65625 15.1875 63.9375 
Q 23.390625 74.21875 37.203125 74.21875 
Q 40.921875 74.21875 44.703125 73.484375 
Q 48.484375 72.75 52.59375 71.296875 
z
" id="DejaVuSans-54"/>
      </defs>
      <g transform="translate(348.29114 291.57924)scale(0.165 -0.165)">
       <use xlink:href="#DejaVuSans-54"/>
       <use x="63.623047" xlink:href="#DejaVuSans-48"/>
       <use x="127.246094" xlink:href="#DejaVuSans-48"/>
      </g>
     </g>
    </g>
    <g id="xtick_5">
     <g id="line2d_5">
      <g>
       <use style="stroke:#000000;stroke-width:1.875;" x="446.597202" xlink:href="#m458d93033b" y="266.541818"/>
      </g>
     </g>
     <g id="text_5">
      <!-- 800 -->
      <defs>
       <path d="M 31.78125 34.625 
Q 24.75 34.625 20.71875 30.859375 
Q 16.703125 27.09375 16.703125 20.515625 
Q 16.703125 13.921875 20.71875 10.15625 
Q 24.75 6.390625 31.78125 6.390625 
Q 38.8125 6.390625 42.859375 10.171875 
Q 46.921875 13.96875 46.921875 20.515625 
Q 46.921875 27.09375 42.890625 30.859375 
Q 38.875 34.625 31.78125 34.625 
z
M 21.921875 38.8125 
Q 15.578125 40.375 12.03125 44.71875 
Q 8.5 49.078125 8.5 55.328125 
Q 8.5 64.0625 14.71875 69.140625 
Q 20.953125 74.21875 31.78125 74.21875 
Q 42.671875 74.21875 48.875 69.140625 
Q 55.078125 64.0625 55.078125 55.328125 
Q 55.078125 49.078125 51.53125 44.71875 
Q 48 40.375 41.703125 38.8125 
Q 48.828125 37.15625 52.796875 32.3125 
Q 56.78125 27.484375 56.78125 20.515625 
Q 56.78125 9.90625 50.3125 4.234375 
Q 43.84375 -1.421875 31.78125 -1.421875 
Q 19.734375 -1.421875 13.25 4.234375 
Q 6.78125 9.90625 6.78125 20.515625 
Q 6.78125 27.484375 10.78125 32.3125 
Q 14.796875 37.15625 21.921875 38.8125 
z
M 18.3125 54.390625 
Q 18.3125 48.734375 21.84375 45.5625 
Q 25.390625 42.390625 31.78125 42.390625 
Q 38.140625 42.390625 41.71875 45.5625 
Q 45.3125 48.734375 45.3125 54.390625 
Q 45.3125 60.0625 41.71875 63.234375 
Q 38.140625 66.40625 31.78125 66.40625 
Q 25.390625 66.40625 21.84375 63.234375 
Q 18.3125 60.0625 18.3125 54.390625 
z
" id="DejaVuSans-56"/>
      </defs>
      <g transform="translate(430.850015 291.57924)scale(0.165 -0.165)">
       <use xlink:href="#DejaVuSans-56"/>
       <use x="63.623047" xlink:href="#DejaVuSans-48"/>
       <use x="127.246094" xlink:href="#DejaVuSans-48"/>
      </g>
     </g>
    </g>
    <g id="xtick_6">
     <g id="line2d_6">
      <g>
       <use style="stroke:#000000;stroke-width:1.875;" x="529.156077" xlink:href="#m458d93033b" y="266.541818"/>
      </g>
     </g>
     <g id="text_6">
      <!-- 1000 -->
      <defs>
       <path d="M 12.40625 8.296875 
L 28.515625 8.296875 
L 28.515625 63.921875 
L 10.984375 60.40625 
L 10.984375 69.390625 
L 28.421875 72.90625 
L 38.28125 72.90625 
L 38.28125 8.296875 
L 54.390625 8.296875 
L 54.390625 0 
L 12.40625 0 
z
" id="DejaVuSans-49"/>
      </defs>
      <g transform="translate(508.159827 291.57924)scale(0.165 -0.165)">
       <use xlink:href="#DejaVuSans-49"/>
       <use x="63.623047" xlink:href="#DejaVuSans-48"/>
       <use x="127.246094" xlink:href="#DejaVuSans-48"/>
       <use x="190.869141" xlink:href="#DejaVuSans-48"/>
      </g>
     </g>
    </g>
   </g>
   <g id="matplotlib.axis_2">
    <g id="ytick_1">
     <g id="line2d_7">
      <defs>
       <path d="M 0 0 
L -9 0 
" id="mb1ffe06736" style="stroke:#000000;stroke-width:1.875;"/>
      </defs>
      <g>
       <use style="stroke:#000000;stroke-width:1.875;" x="94.69" xlink:href="#mb1ffe06736" y="229.731535"/>
      </g>
     </g>
     <g id="text_7">
      <!-- -4.0% -->
      <defs>
       <path d="M 4.890625 31.390625 
L 31.203125 31.390625 
L 31.203125 23.390625 
L 4.890625 23.390625 
z
" id="DejaVuSans-45"/>
       <path d="M 10.6875 12.40625 
L 21 12.40625 
L 21 0 
L 10.6875 0 
z
" id="DejaVuSans-46"/>
       <path d="M 72.703125 32.078125 
Q 68.453125 32.078125 66.03125 28.46875 
Q 63.625 24.859375 63.625 18.40625 
Q 63.625 12.0625 66.03125 8.421875 
Q 68.453125 4.78125 72.703125 4.78125 
Q 76.859375 4.78125 79.265625 8.421875 
Q 81.6875 12.0625 81.6875 18.40625 
Q 81.6875 24.8125 79.265625 28.4375 
Q 76.859375 32.078125 72.703125 32.078125 
z
M 72.703125 38.28125 
Q 80.421875 38.28125 84.953125 32.90625 
Q 89.5 27.546875 89.5 18.40625 
Q 89.5 9.28125 84.9375 3.921875 
Q 80.375 -1.421875 72.703125 -1.421875 
Q 64.890625 -1.421875 60.34375 3.921875 
Q 55.8125 9.28125 55.8125 18.40625 
Q 55.8125 27.59375 60.375 32.9375 
Q 64.9375 38.28125 72.703125 38.28125 
z
M 22.3125 68.015625 
Q 18.109375 68.015625 15.6875 64.375 
Q 13.28125 60.75 13.28125 54.390625 
Q 13.28125 47.953125 15.671875 44.328125 
Q 18.0625 40.71875 22.3125 40.71875 
Q 26.5625 40.71875 28.96875 44.328125 
Q 31.390625 47.953125 31.390625 54.390625 
Q 31.390625 60.6875 28.953125 64.34375 
Q 26.515625 68.015625 22.3125 68.015625 
z
M 66.40625 74.21875 
L 74.21875 74.21875 
L 28.609375 -1.421875 
L 20.796875 -1.421875 
z
M 22.3125 74.21875 
Q 30.03125 74.21875 34.609375 68.875 
Q 39.203125 63.53125 39.203125 54.390625 
Q 39.203125 45.171875 34.640625 39.84375 
Q 30.078125 34.515625 22.3125 34.515625 
Q 14.546875 34.515625 10.03125 39.859375 
Q 5.515625 45.21875 5.515625 54.390625 
Q 5.515625 63.484375 10.046875 68.84375 
Q 14.59375 74.21875 22.3125 74.21875 
z
" id="DejaVuSans-37"/>
      </defs>
      <g transform="translate(34.319375 236.000246)scale(0.165 -0.165)">
       <use xlink:href="#DejaVuSans-45"/>
       <use x="36.083984" xlink:href="#DejaVuSans-52"/>
       <use x="99.707031" xlink:href="#DejaVuSans-46"/>
       <use x="131.494141" xlink:href="#DejaVuSans-48"/>
       <use x="195.117188" xlink:href="#DejaVuSans-37"/>
      </g>
     </g>
    </g>
    <g id="ytick_2">
     <g id="line2d_8">
      <g>
       <use style="stroke:#000000;stroke-width:1.875;" x="94.69" xlink:href="#mb1ffe06736" y="192.84838"/>
      </g>
     </g>
     <g id="text_8">
      <!-- -2.0% -->
      <g transform="translate(34.319375 199.117091)scale(0.165 -0.165)">
       <use xlink:href="#DejaVuSans-45"/>
       <use x="36.083984" xlink:href="#DejaVuSans-50"/>
       <use x="99.707031" xlink:href="#DejaVuSans-46"/>
       <use x="131.494141" xlink:href="#DejaVuSans-48"/>
       <use x="195.117188" xlink:href="#DejaVuSans-37"/>
      </g>
     </g>
    </g>
    <g id="ytick_3">
     <g id="line2d_9">
      <g>
       <use style="stroke:#000000;stroke-width:1.875;" x="94.69" xlink:href="#mb1ffe06736" y="155.965225"/>
      </g>
     </g>
     <g id="text_9">
      <!-- 0.0% -->
      <g transform="translate(40.272266 162.233936)scale(0.165 -0.165)">
       <use xlink:href="#DejaVuSans-48"/>
       <use x="63.623047" xlink:href="#DejaVuSans-46"/>
       <use x="95.410156" xlink:href="#DejaVuSans-48"/>
       <use x="159.033203" xlink:href="#DejaVuSans-37"/>
      </g>
     </g>
    </g>
    <g id="ytick_4">
     <g id="line2d_10">
      <g>
       <use style="stroke:#000000;stroke-width:1.875;" x="94.69" xlink:href="#mb1ffe06736" y="119.08207"/>
      </g>
     </g>
     <g id="text_10">
      <!-- 2.0% -->
      <g transform="translate(40.272266 125.350781)scale(0.165 -0.165)">
       <use xlink:href="#DejaVuSans-50"/>
       <use x="63.623047" xlink:href="#DejaVuSans-46"/>
       <use x="95.410156" xlink:href="#DejaVuSans-48"/>
       <use x="159.033203" xlink:href="#DejaVuSans-37"/>
      </g>
     </g>
    </g>
   </g>
   <g id="line2d_11">
    <path clip-path="url(#p8eb1a9823e)" d="M 116.361705 211.603648 
L 137.001423 211.603856 
L 154.751581 230.576889 
L 158.879525 234.593732 
L 162.594674 237.879446 
L 165.897029 240.483407 
L 168.78659 242.498247 
L 171.67615 244.267875 
L 174.978505 246.008035 
L 178.28086 247.480567 
L 181.99601 248.870815 
L 186.123953 250.160403 
L 191.077486 251.460102 
L 197.682196 252.943345 
L 206.350878 254.646644 
L 213.781176 255.899334 
L 220.385886 256.786925 
L 226.577802 257.388881 
L 233.182512 257.801212 
L 241.438399 258.07343 
L 259.188557 258.351101 
L 291.799313 258.74717 
L 344.636992 258.797402 
L 508.103564 258.800168 
L 549.795795 258.8002 
L 549.795795 258.8002 
" style="fill:none;stroke:#1f77b4;stroke-dasharray:3,4.95;stroke-dashoffset:0;stroke-width:3;"/>
   </g>
   <g id="line2d_12">
    <path clip-path="url(#p8eb1a9823e)" d="M 116.361705 211.603648 
L 137.001423 211.603856 
L 154.751581 230.576889 
L 158.879525 234.593732 
L 162.594674 237.879446 
L 165.897029 240.483407 
L 168.78659 242.498247 
L 171.67615 244.267875 
L 174.978505 246.008035 
L 178.28086 247.480567 
L 181.99601 248.870815 
L 186.123953 250.160403 
L 191.077486 251.460102 
L 197.682196 252.943345 
L 206.350878 254.646644 
L 213.781176 255.899334 
L 220.385886 256.786925 
L 226.577802 257.388881 
L 233.182512 257.801212 
L 241.438399 258.07343 
L 259.188557 258.351101 
L 291.799313 258.74717 
L 344.636992 258.797402 
L 508.103564 258.800168 
L 549.795795 258.8002 
L 549.795795 258.8002 
" style="fill:none;stroke:#ff7f0e;stroke-linecap:square;stroke-width:3;"/>
   </g>
   <g id="line2d_13">
    <path clip-path="url(#p8eb1a9823e)" d="M 116.361705 112.742767 
L 137.001423 112.742752 
L 140.716573 111.001534 
L 144.431722 109.51338 
L 148.146871 108.269473 
L 151.862021 107.259137 
L 155.57717 106.466677 
L 159.705114 105.815792 
L 164.245852 105.330694 
L 170.024973 104.959872 
L 178.693655 104.661784 
L 203.874111 104.107682 
L 219.147503 103.982082 
L 304.183144 103.995832 
L 549.795795 103.991915 
L 549.795795 103.991915 
" style="fill:none;stroke:#2ca02c;stroke-linecap:square;stroke-width:3;"/>
   </g>
   <g id="patch_3">
    <path d="M 94.69 266.541818 
L 94.69 96.24 
" style="fill:none;stroke:#000000;stroke-linecap:square;stroke-linejoin:miter;stroke-width:1.875;"/>
   </g>
   <g id="patch_4">
    <path d="M 94.69 266.541818 
L 571.4675 266.541818 
" style="fill:none;stroke:#000000;stroke-linecap:square;stroke-linejoin:miter;stroke-width:1.875;"/>
   </g>
   <g id="text_11">
    <!-- Flow/Stock -->
    <defs>
     <path d="M 9.8125 72.90625 
L 51.703125 72.90625 
L 51.703125 64.59375 
L 19.671875 64.59375 
L 19.671875 43.109375 
L 48.578125 43.109375 
L 48.578125 34.8125 
L 19.671875 34.8125 
L 19.671875 0 
L 9.8125 0 
z
" id="DejaVuSans-70"/>
     <path d="M 9.421875 75.984375 
L 18.40625 75.984375 
L 18.40625 0 
L 9.421875 0 
z
" id="DejaVuSans-108"/>
     <path d="M 30.609375 48.390625 
Q 23.390625 48.390625 19.1875 42.75 
Q 14.984375 37.109375 14.984375 27.296875 
Q 14.984375 17.484375 19.15625 11.84375 
Q 23.34375 6.203125 30.609375 6.203125 
Q 37.796875 6.203125 41.984375 11.859375 
Q 46.1875 17.53125 46.1875 27.296875 
Q 46.1875 37.015625 41.984375 42.703125 
Q 37.796875 48.390625 30.609375 48.390625 
z
M 30.609375 56 
Q 42.328125 56 49.015625 48.375 
Q 55.71875 40.765625 55.71875 27.296875 
Q 55.71875 13.875 49.015625 6.21875 
Q 42.328125 -1.421875 30.609375 -1.421875 
Q 18.84375 -1.421875 12.171875 6.21875 
Q 5.515625 13.875 5.515625 27.296875 
Q 5.515625 40.765625 12.171875 48.375 
Q 18.84375 56 30.609375 56 
z
" id="DejaVuSans-111"/>
     <path d="M 4.203125 54.6875 
L 13.1875 54.6875 
L 24.421875 12.015625 
L 35.59375 54.6875 
L 46.1875 54.6875 
L 57.421875 12.015625 
L 68.609375 54.6875 
L 77.59375 54.6875 
L 63.28125 0 
L 52.6875 0 
L 40.921875 44.828125 
L 29.109375 0 
L 18.5 0 
z
" id="DejaVuSans-119"/>
     <path d="M 25.390625 72.90625 
L 33.6875 72.90625 
L 8.296875 -9.28125 
L 0 -9.28125 
z
" id="DejaVuSans-47"/>
     <path d="M 53.515625 70.515625 
L 53.515625 60.890625 
Q 47.90625 63.578125 42.921875 64.890625 
Q 37.9375 66.21875 33.296875 66.21875 
Q 25.25 66.21875 20.875 63.09375 
Q 16.5 59.96875 16.5 54.203125 
Q 16.5 49.359375 19.40625 46.890625 
Q 22.3125 44.4375 30.421875 42.921875 
L 36.375 41.703125 
Q 47.40625 39.59375 52.65625 34.296875 
Q 57.90625 29 57.90625 20.125 
Q 57.90625 9.515625 50.796875 4.046875 
Q 43.703125 -1.421875 29.984375 -1.421875 
Q 24.8125 -1.421875 18.96875 -0.25 
Q 13.140625 0.921875 6.890625 3.21875 
L 6.890625 13.375 
Q 12.890625 10.015625 18.65625 8.296875 
Q 24.421875 6.59375 29.984375 6.59375 
Q 38.421875 6.59375 43.015625 9.90625 
Q 47.609375 13.234375 47.609375 19.390625 
Q 47.609375 24.75 44.3125 27.78125 
Q 41.015625 30.8125 33.5 32.328125 
L 27.484375 33.5 
Q 16.453125 35.6875 11.515625 40.375 
Q 6.59375 45.0625 6.59375 53.421875 
Q 6.59375 63.09375 13.40625 68.65625 
Q 20.21875 74.21875 32.171875 74.21875 
Q 37.3125 74.21875 42.625 73.28125 
Q 47.953125 72.359375 53.515625 70.515625 
z
" id="DejaVuSans-83"/>
     <path d="M 18.3125 70.21875 
L 18.3125 54.6875 
L 36.8125 54.6875 
L 36.8125 47.703125 
L 18.3125 47.703125 
L 18.3125 18.015625 
Q 18.3125 11.328125 20.140625 9.421875 
Q 21.96875 7.515625 27.59375 7.515625 
L 36.8125 7.515625 
L 36.8125 0 
L 27.59375 0 
Q 17.1875 0 13.234375 3.875 
Q 9.28125 7.765625 9.28125 18.015625 
L 9.28125 47.703125 
L 2.6875 47.703125 
L 2.6875 54.6875 
L 9.28125 54.6875 
L 9.28125 70.21875 
z
" id="DejaVuSans-116"/>
     <path d="M 48.78125 52.59375 
L 48.78125 44.1875 
Q 44.96875 46.296875 41.140625 47.34375 
Q 37.3125 48.390625 33.40625 48.390625 
Q 24.65625 48.390625 19.8125 42.84375 
Q 14.984375 37.3125 14.984375 27.296875 
Q 14.984375 17.28125 19.8125 11.734375 
Q 24.65625 6.203125 33.40625 6.203125 
Q 37.3125 6.203125 41.140625 7.25 
Q 44.96875 8.296875 48.78125 10.40625 
L 48.78125 2.09375 
Q 45.015625 0.34375 40.984375 -0.53125 
Q 36.96875 -1.421875 32.421875 -1.421875 
Q 20.0625 -1.421875 12.78125 6.34375 
Q 5.515625 14.109375 5.515625 27.296875 
Q 5.515625 40.671875 12.859375 48.328125 
Q 20.21875 56 33.015625 56 
Q 37.15625 56 41.109375 55.140625 
Q 45.0625 54.296875 48.78125 52.59375 
z
" id="DejaVuSans-99"/>
     <path d="M 9.078125 75.984375 
L 18.109375 75.984375 
L 18.109375 31.109375 
L 44.921875 54.6875 
L 56.390625 54.6875 
L 27.390625 29.109375 
L 57.625 0 
L 45.90625 0 
L 18.109375 26.703125 
L 18.109375 0 
L 9.078125 0 
z
" id="DejaVuSans-107"/>
    </defs>
    <g transform="translate(284.594063 90.24)scale(0.18 -0.18)">
     <use xlink:href="#DejaVuSans-70"/>
     <use x="57.519531" xlink:href="#DejaVuSans-108"/>
     <use x="85.302734" xlink:href="#DejaVuSans-111"/>
     <use x="146.484375" xlink:href="#DejaVuSans-119"/>
     <use x="228.271484" xlink:href="#DejaVuSans-47"/>
     <use x="261.962891" xlink:href="#DejaVuSans-83"/>
     <use x="325.439453" xlink:href="#DejaVuSans-116"/>
     <use x="364.648438" xlink:href="#DejaVuSans-111"/>
     <use x="425.830078" xlink:href="#DejaVuSans-99"/>
     <use x="480.810547" xlink:href="#DejaVuSans-107"/>
    </g>
   </g>
   <g id="legend_1">
    <g id="patch_5">
     <path d="M 208.52375 343.806354 
L 461.63375 343.806354 
Q 464.93375 343.806354 464.93375 340.506354 
L 464.93375 293.715964 
Q 464.93375 290.415964 461.63375 290.415964 
L 208.52375 290.415964 
Q 205.22375 290.415964 205.22375 293.715964 
L 205.22375 340.506354 
Q 205.22375 343.806354 208.52375 343.806354 
z
" style="fill:#4c4c4c;opacity:0.5;stroke:#4c4c4c;stroke-linejoin:miter;stroke-width:1.5;"/>
    </g>
    <g id="patch_6">
     <path d="M 206.52375 341.806354 
L 459.63375 341.806354 
Q 462.93375 341.806354 462.93375 338.506354 
L 462.93375 291.715964 
Q 462.93375 288.415964 459.63375 288.415964 
L 206.52375 288.415964 
Q 203.22375 288.415964 203.22375 291.715964 
L 203.22375 338.506354 
Q 203.22375 341.806354 206.52375 341.806354 
z
" style="fill:#ffffff;stroke:#cccccc;stroke-linejoin:miter;stroke-width:1.5;"/>
    </g>
    <g id="line2d_14">
     <path d="M 209.82375 301.780964 
L 242.82375 301.780964 
" style="fill:none;stroke:#1f77b4;stroke-dasharray:3,4.95;stroke-dashoffset:0;stroke-width:3;"/>
    </g>
    <g id="line2d_15"/>
    <g id="text_12">
     <!-- $YDk/V_{hk}$ -->
     <defs>
      <path d="M 6.296875 72.90625 
L 16.890625 72.90625 
L 30.515625 42.921875 
L 56.5 72.90625 
L 67.578125 72.90625 
L 34.515625 34.71875 
L 27.78125 0 
L 17.921875 0 
L 24.609375 34.71875 
z
" id="DejaVuSans-Oblique-89"/>
      <path d="M 16.890625 72.90625 
L 38.09375 72.90625 
Q 54.984375 72.90625 63.59375 65.75 
Q 72.21875 58.59375 72.21875 44.484375 
Q 72.21875 35.15625 68.9375 26.53125 
Q 65.671875 17.921875 59.90625 12.015625 
Q 54.109375 5.953125 45.171875 2.96875 
Q 36.234375 0 24.03125 0 
L 2.6875 0 
z
M 25.203125 64.796875 
L 14.203125 8.109375 
L 27.09375 8.109375 
Q 43.65625 8.109375 52.734375 17.625 
Q 61.8125 27.15625 61.8125 44.484375 
Q 61.8125 54.984375 55.953125 59.890625 
Q 50.09375 64.796875 37.59375 64.796875 
z
" id="DejaVuSans-Oblique-68"/>
      <path d="M 18.3125 75.984375 
L 27.296875 75.984375 
L 18.703125 31.6875 
L 49.515625 54.6875 
L 61.1875 54.6875 
L 26.8125 28.515625 
L 51.90625 0 
L 41.015625 0 
L 17.671875 26.703125 
L 12.5 0 
L 3.515625 0 
z
" id="DejaVuSans-Oblique-107"/>
      <path d="M 20.609375 0 
L 7.8125 72.90625 
L 17.484375 72.90625 
L 28.078125 10.203125 
L 63.484375 72.90625 
L 74.21875 72.90625 
L 32.078125 0 
z
" id="DejaVuSans-Oblique-86"/>
      <path d="M 55.71875 33.015625 
L 49.3125 0 
L 40.28125 0 
L 46.6875 32.671875 
Q 47.125 34.96875 47.359375 36.71875 
Q 47.609375 38.484375 47.609375 39.5 
Q 47.609375 43.609375 45.015625 45.890625 
Q 42.4375 48.1875 37.796875 48.1875 
Q 30.5625 48.1875 25.265625 43.296875 
Q 19.96875 38.421875 18.40625 30.328125 
L 12.5 0 
L 3.515625 0 
L 18.3125 75.984375 
L 27.296875 75.984375 
L 21.484375 46.09375 
Q 24.90625 50.6875 30.21875 53.34375 
Q 35.546875 56 41.40625 56 
Q 48.640625 56 52.609375 52.09375 
Q 56.59375 48.1875 56.59375 41.109375 
Q 56.59375 39.359375 56.375 37.359375 
Q 56.15625 35.359375 55.71875 33.015625 
z
" id="DejaVuSans-Oblique-104"/>
     </defs>
     <g transform="translate(256.02375 307.555964)scale(0.165 -0.165)">
      <use transform="translate(0 0.015625)" xlink:href="#DejaVuSans-Oblique-89"/>
      <use transform="translate(61.083984 0.015625)" xlink:href="#DejaVuSans-Oblique-68"/>
      <use transform="translate(138.085938 0.015625)" xlink:href="#DejaVuSans-Oblique-107"/>
      <use transform="translate(195.996094 0.015625)" xlink:href="#DejaVuSans-47"/>
      <use transform="translate(229.6875 0.015625)" xlink:href="#DejaVuSans-Oblique-86"/>
      <use transform="translate(298.095703 -16.390625)scale(0.7)" xlink:href="#DejaVuSans-Oblique-104"/>
      <use transform="translate(342.460938 -16.390625)scale(0.7)" xlink:href="#DejaVuSans-Oblique-107"/>
     </g>
    </g>
    <g id="line2d_16">
     <path d="M 209.82375 325.99987 
L 242.82375 325.99987 
" style="fill:none;stroke:#ff7f0e;stroke-linecap:square;stroke-width:3;"/>
    </g>
    <g id="line2d_17"/>
    <g id="text_13">
     <!-- $YDk/V_{hkr}$ -->
     <defs>
      <path d="M 44.578125 46.390625 
Q 43.21875 47.125 41.453125 47.515625 
Q 39.703125 47.90625 37.703125 47.90625 
Q 30.515625 47.90625 25.140625 42.453125 
Q 19.78125 37.015625 18.015625 27.875 
L 12.5 0 
L 3.515625 0 
L 14.203125 54.6875 
L 23.1875 54.6875 
L 21.484375 46.1875 
Q 25.046875 50.921875 30 53.453125 
Q 34.96875 56 40.578125 56 
Q 42.046875 56 43.453125 55.828125 
Q 44.875 55.671875 46.296875 55.28125 
z
" id="DejaVuSans-Oblique-114"/>
     </defs>
     <g transform="translate(256.02375 331.77487)scale(0.165 -0.165)">
      <use transform="translate(0 0.015625)" xlink:href="#DejaVuSans-Oblique-89"/>
      <use transform="translate(61.083984 0.015625)" xlink:href="#DejaVuSans-Oblique-68"/>
      <use transform="translate(138.085938 0.015625)" xlink:href="#DejaVuSans-Oblique-107"/>
      <use transform="translate(195.996094 0.015625)" xlink:href="#DejaVuSans-47"/>
      <use transform="translate(229.6875 0.015625)" xlink:href="#DejaVuSans-Oblique-86"/>
      <use transform="translate(298.095703 -16.390625)scale(0.7)" xlink:href="#DejaVuSans-Oblique-104"/>
      <use transform="translate(342.460938 -16.390625)scale(0.7)" xlink:href="#DejaVuSans-Oblique-107"/>
      <use transform="translate(382.998047 -16.390625)scale(0.7)" xlink:href="#DejaVuSans-Oblique-114"/>
     </g>
    </g>
    <g id="line2d_18">
     <path d="M 357.49875 301.780964 
L 390.49875 301.780964 
" style="fill:none;stroke:#2ca02c;stroke-linecap:square;stroke-width:3;"/>
    </g>
    <g id="line2d_19"/>
    <g id="text_14">
     <!-- $FU$/V_f -->
     <defs>
      <path d="M 16.890625 72.90625 
L 58.6875 72.90625 
L 57.078125 64.59375 
L 25.09375 64.59375 
L 20.90625 43.109375 
L 49.8125 43.109375 
L 48.1875 34.8125 
L 19.28125 34.8125 
L 12.5 0 
L 2.6875 0 
z
" id="DejaVuSans-Oblique-70"/>
      <path d="M 15.484375 72.90625 
L 25.390625 72.90625 
L 16.796875 28.609375 
Q 16.265625 25.640625 16.046875 23.703125 
Q 15.828125 21.78125 15.828125 20.3125 
Q 15.828125 13.578125 19.578125 10.078125 
Q 23.34375 6.59375 30.609375 6.59375 
Q 40.046875 6.59375 45.28125 11.765625 
Q 50.53125 16.9375 52.78125 28.609375 
L 61.375 72.90625 
L 71.296875 72.90625 
L 62.5 27.390625 
Q 59.625 12.640625 51.5625 5.609375 
Q 43.5 -1.421875 29.5 -1.421875 
Q 18.5625 -1.421875 12.1875 4.078125 
Q 5.8125 9.578125 5.8125 19 
Q 5.8125 20.703125 6.046875 22.828125 
Q 6.296875 24.953125 6.78125 27.390625 
z
" id="DejaVuSans-Oblique-85"/>
      <path d="M 28.609375 0 
L 0.78125 72.90625 
L 11.078125 72.90625 
L 34.1875 11.53125 
L 57.328125 72.90625 
L 67.578125 72.90625 
L 39.796875 0 
z
" id="DejaVuSans-86"/>
      <path d="M 50.984375 -16.609375 
L 50.984375 -23.578125 
L -0.984375 -23.578125 
L -0.984375 -16.609375 
z
" id="DejaVuSans-95"/>
      <path d="M 37.109375 75.984375 
L 37.109375 68.5 
L 28.515625 68.5 
Q 23.6875 68.5 21.796875 66.546875 
Q 19.921875 64.59375 19.921875 59.515625 
L 19.921875 54.6875 
L 34.71875 54.6875 
L 34.71875 47.703125 
L 19.921875 47.703125 
L 19.921875 0 
L 10.890625 0 
L 10.890625 47.703125 
L 2.296875 47.703125 
L 2.296875 54.6875 
L 10.890625 54.6875 
L 10.890625 58.5 
Q 10.890625 67.625 15.140625 71.796875 
Q 19.390625 75.984375 28.609375 75.984375 
z
" id="DejaVuSans-102"/>
     </defs>
     <g transform="translate(403.69875 307.555964)scale(0.165 -0.165)">
      <use transform="translate(0 0.015625)" xlink:href="#DejaVuSans-Oblique-70"/>
      <use transform="translate(57.519531 0.015625)" xlink:href="#DejaVuSans-Oblique-85"/>
      <use transform="translate(130.712891 0.015625)" xlink:href="#DejaVuSans-47"/>
      <use transform="translate(164.404297 0.015625)" xlink:href="#DejaVuSans-86"/>
      <use transform="translate(232.8125 0.015625)" xlink:href="#DejaVuSans-95"/>
      <use transform="translate(282.8125 0.015625)" xlink:href="#DejaVuSans-102"/>
     </g>
    </g>
   </g>
  </g>
  <g id="axes_2">
   <g id="patch_7">
    <path d="M 655.7825 266.541818 
L 1132.56 266.541818 
L 1132.56 96.24 
L 655.7825 96.24 
z
" style="fill:#ffffff;"/>
   </g>
   <g id="matplotlib.axis_3">
    <g id="xtick_7">
     <g id="line2d_20">
      <g>
       <use style="stroke:#000000;stroke-width:1.875;" x="677.454205" xlink:href="#m458d93033b" y="266.541818"/>
      </g>
     </g>
     <g id="text_15">
      <!-- 0 -->
      <g transform="translate(672.205142 291.57924)scale(0.165 -0.165)">
       <use xlink:href="#DejaVuSans-48"/>
      </g>
     </g>
    </g>
    <g id="xtick_8">
     <g id="line2d_21">
      <g>
       <use style="stroke:#000000;stroke-width:1.875;" x="760.013079" xlink:href="#m458d93033b" y="266.541818"/>
      </g>
     </g>
     <g id="text_16">
      <!-- 200 -->
      <g transform="translate(744.265892 291.57924)scale(0.165 -0.165)">
       <use xlink:href="#DejaVuSans-50"/>
       <use x="63.623047" xlink:href="#DejaVuSans-48"/>
       <use x="127.246094" xlink:href="#DejaVuSans-48"/>
      </g>
     </g>
    </g>
    <g id="xtick_9">
     <g id="line2d_22">
      <g>
       <use style="stroke:#000000;stroke-width:1.875;" x="842.571953" xlink:href="#m458d93033b" y="266.541818"/>
      </g>
     </g>
     <g id="text_17">
      <!-- 400 -->
      <g transform="translate(826.824766 291.57924)scale(0.165 -0.165)">
       <use xlink:href="#DejaVuSans-52"/>
       <use x="63.623047" xlink:href="#DejaVuSans-48"/>
       <use x="127.246094" xlink:href="#DejaVuSans-48"/>
      </g>
     </g>
    </g>
    <g id="xtick_10">
     <g id="line2d_23">
      <g>
       <use style="stroke:#000000;stroke-width:1.875;" x="925.130828" xlink:href="#m458d93033b" y="266.541818"/>
      </g>
     </g>
     <g id="text_18">
      <!-- 600 -->
      <g transform="translate(909.38364 291.57924)scale(0.165 -0.165)">
       <use xlink:href="#DejaVuSans-54"/>
       <use x="63.623047" xlink:href="#DejaVuSans-48"/>
       <use x="127.246094" xlink:href="#DejaVuSans-48"/>
      </g>
     </g>
    </g>
    <g id="xtick_11">
     <g id="line2d_24">
      <g>
       <use style="stroke:#000000;stroke-width:1.875;" x="1007.689702" xlink:href="#m458d93033b" y="266.541818"/>
      </g>
     </g>
     <g id="text_19">
      <!-- 800 -->
      <g transform="translate(991.942515 291.57924)scale(0.165 -0.165)">
       <use xlink:href="#DejaVuSans-56"/>
       <use x="63.623047" xlink:href="#DejaVuSans-48"/>
       <use x="127.246094" xlink:href="#DejaVuSans-48"/>
      </g>
     </g>
    </g>
    <g id="xtick_12">
     <g id="line2d_25">
      <g>
       <use style="stroke:#000000;stroke-width:1.875;" x="1090.248577" xlink:href="#m458d93033b" y="266.541818"/>
      </g>
     </g>
     <g id="text_20">
      <!-- 1000 -->
      <g transform="translate(1069.252327 291.57924)scale(0.165 -0.165)">
       <use xlink:href="#DejaVuSans-49"/>
       <use x="63.623047" xlink:href="#DejaVuSans-48"/>
       <use x="127.246094" xlink:href="#DejaVuSans-48"/>
       <use x="190.869141" xlink:href="#DejaVuSans-48"/>
      </g>
     </g>
    </g>
   </g>
   <g id="matplotlib.axis_4">
    <g id="ytick_5">
     <g id="line2d_26">
      <g>
       <use style="stroke:#000000;stroke-width:1.875;" x="655.7825" xlink:href="#mb1ffe06736" y="239.436648"/>
      </g>
     </g>
     <g id="text_21">
      <!-- 0.83 -->
      <defs>
       <path d="M 40.578125 39.3125 
Q 47.65625 37.796875 51.625 33 
Q 55.609375 28.21875 55.609375 21.1875 
Q 55.609375 10.40625 48.1875 4.484375 
Q 40.765625 -1.421875 27.09375 -1.421875 
Q 22.515625 -1.421875 17.65625 -0.515625 
Q 12.796875 0.390625 7.625 2.203125 
L 7.625 11.71875 
Q 11.71875 9.328125 16.59375 8.109375 
Q 21.484375 6.890625 26.8125 6.890625 
Q 36.078125 6.890625 40.9375 10.546875 
Q 45.796875 14.203125 45.796875 21.1875 
Q 45.796875 27.640625 41.28125 31.265625 
Q 36.765625 34.90625 28.71875 34.90625 
L 20.21875 34.90625 
L 20.21875 43.015625 
L 29.109375 43.015625 
Q 36.375 43.015625 40.234375 45.921875 
Q 44.09375 48.828125 44.09375 54.296875 
Q 44.09375 59.90625 40.109375 62.90625 
Q 36.140625 65.921875 28.71875 65.921875 
Q 24.65625 65.921875 20.015625 65.03125 
Q 15.375 64.15625 9.8125 62.3125 
L 9.8125 71.09375 
Q 15.4375 72.65625 20.34375 73.4375 
Q 25.25 74.21875 29.59375 74.21875 
Q 40.828125 74.21875 47.359375 69.109375 
Q 53.90625 64.015625 53.90625 55.328125 
Q 53.90625 49.265625 50.4375 45.09375 
Q 46.96875 40.921875 40.578125 39.3125 
z
" id="DejaVuSans-51"/>
      </defs>
      <g transform="translate(606.544219 245.705359)scale(0.165 -0.165)">
       <use xlink:href="#DejaVuSans-48"/>
       <use x="63.623047" xlink:href="#DejaVuSans-46"/>
       <use x="95.410156" xlink:href="#DejaVuSans-56"/>
       <use x="159.033203" xlink:href="#DejaVuSans-51"/>
      </g>
     </g>
    </g>
    <g id="ytick_6">
     <g id="line2d_27">
      <g>
       <use style="stroke:#000000;stroke-width:1.875;" x="655.7825" xlink:href="#mb1ffe06736" y="187.57494"/>
      </g>
     </g>
     <g id="text_22">
      <!-- 0.84 -->
      <g transform="translate(606.544219 193.843651)scale(0.165 -0.165)">
       <use xlink:href="#DejaVuSans-48"/>
       <use x="63.623047" xlink:href="#DejaVuSans-46"/>
       <use x="95.410156" xlink:href="#DejaVuSans-56"/>
       <use x="159.033203" xlink:href="#DejaVuSans-52"/>
      </g>
     </g>
    </g>
    <g id="ytick_7">
     <g id="line2d_28">
      <g>
       <use style="stroke:#000000;stroke-width:1.875;" x="655.7825" xlink:href="#mb1ffe06736" y="135.713232"/>
      </g>
     </g>
     <g id="text_23">
      <!-- 0.85 -->
      <defs>
       <path d="M 10.796875 72.90625 
L 49.515625 72.90625 
L 49.515625 64.59375 
L 19.828125 64.59375 
L 19.828125 46.734375 
Q 21.96875 47.46875 24.109375 47.828125 
Q 26.265625 48.1875 28.421875 48.1875 
Q 40.625 48.1875 47.75 41.5 
Q 54.890625 34.8125 54.890625 23.390625 
Q 54.890625 11.625 47.5625 5.09375 
Q 40.234375 -1.421875 26.90625 -1.421875 
Q 22.3125 -1.421875 17.546875 -0.640625 
Q 12.796875 0.140625 7.71875 1.703125 
L 7.71875 11.625 
Q 12.109375 9.234375 16.796875 8.0625 
Q 21.484375 6.890625 26.703125 6.890625 
Q 35.15625 6.890625 40.078125 11.328125 
Q 45.015625 15.765625 45.015625 23.390625 
Q 45.015625 31 40.078125 35.4375 
Q 35.15625 39.890625 26.703125 39.890625 
Q 22.75 39.890625 18.8125 39.015625 
Q 14.890625 38.140625 10.796875 36.28125 
z
" id="DejaVuSans-53"/>
      </defs>
      <g transform="translate(606.544219 141.981942)scale(0.165 -0.165)">
       <use xlink:href="#DejaVuSans-48"/>
       <use x="63.623047" xlink:href="#DejaVuSans-46"/>
       <use x="95.410156" xlink:href="#DejaVuSans-56"/>
       <use x="159.033203" xlink:href="#DejaVuSans-53"/>
      </g>
     </g>
    </g>
   </g>
   <g id="line2d_29">
    <path clip-path="url(#p7793ee1bb0)" d="M 677.454205 103.98104 
L 699.332306 104.0488 
L 700.570689 104.296205 
L 701.396278 104.631927 
L 702.221867 105.145065 
L 703.047456 105.867023 
L 703.873044 106.825805 
L 704.698633 108.045818 
L 705.937016 110.409667 
L 707.175399 113.459612 
L 708.413782 117.227492 
L 709.652166 121.723195 
L 710.890549 126.934607 
L 712.541726 134.935818 
L 714.192904 144.013303 
L 716.256876 156.579267 
L 719.559231 178.370373 
L 723.687174 205.572026 
L 726.16394 220.319554 
L 728.227912 231.088481 
L 729.87909 238.510872 
L 731.530267 244.779865 
L 732.76865 248.69975 
L 734.007034 251.947005 
L 735.245417 254.532231 
L 736.4838 256.476468 
L 737.309389 257.431051 
L 738.134977 258.124822 
L 738.960566 258.569954 
L 739.786155 258.779753 
L 740.611744 258.768481 
L 741.437332 258.551185 
L 742.262921 258.143531 
L 743.501304 257.2106 
L 744.739687 255.941494 
L 746.390865 253.823421 
L 748.454837 250.676346 
L 751.757192 245.061381 
L 755.059547 239.509148 
L 757.123518 236.397206 
L 758.774696 234.218188 
L 760.425873 232.370558 
L 762.077051 230.889342 
L 763.315434 230.031791 
L 764.553817 229.395581 
L 765.7922 228.979813 
L 767.030583 228.779585 
L 768.268966 228.786313 
L 769.50735 228.988105 
L 771.158527 229.53466 
L 772.809705 230.359772 
L 774.873676 231.710274 
L 777.350443 233.665883 
L 786.844713 241.589064 
L 788.908685 242.896939 
L 790.972657 243.944845 
L 793.036629 244.71351 
L 795.100601 245.199767 
L 797.164573 245.413991 
L 799.228544 245.378515 
L 801.292516 245.125009 
L 803.769282 244.587275 
L 807.071637 243.5954 
L 817.391497 240.22791 
L 820.281057 239.587389 
L 823.170618 239.166002 
L 826.060179 238.969255 
L 828.949739 238.981079 
L 832.252094 239.20721 
L 836.792832 239.7685 
L 848.351075 241.33319 
L 852.891813 241.653225 
L 857.432551 241.740726 
L 862.798878 241.595638 
L 871.880354 241.061555 
L 880.136241 240.670718 
L 887.153746 240.576773 
L 895.822427 240.714586 
L 913.98538 241.062919 
L 926.369211 240.99921 
L 948.660107 240.863702 
L 1034.108542 240.926572 
L 1110.888295 240.922049 
L 1110.888295 240.922049 
" style="fill:none;stroke:#8b0000;stroke-linecap:square;stroke-width:3;"/>
   </g>
   <g id="line2d_30">
    <path clip-path="url(#p7793ee1bb0)" d="M 655.7825 103.98104 
L 1132.56 103.98104 
" style="fill:none;stroke:#808080;stroke-dasharray:8.325,3.6;stroke-dashoffset:0;stroke-width:2.25;"/>
   </g>
   <g id="patch_8">
    <path d="M 655.7825 266.541818 
L 655.7825 96.24 
" style="fill:none;stroke:#000000;stroke-linecap:square;stroke-linejoin:miter;stroke-width:1.875;"/>
   </g>
   <g id="patch_9">
    <path d="M 655.7825 266.541818 
L 1132.56 266.541818 
" style="fill:none;stroke:#000000;stroke-linecap:square;stroke-linejoin:miter;stroke-width:1.875;"/>
   </g>
   <g id="text_24">
    <!-- Housing share on -->
    <defs>
     <path d="M 9.8125 72.90625 
L 19.671875 72.90625 
L 19.671875 43.015625 
L 55.515625 43.015625 
L 55.515625 72.90625 
L 65.375 72.90625 
L 65.375 0 
L 55.515625 0 
L 55.515625 34.71875 
L 19.671875 34.71875 
L 19.671875 0 
L 9.8125 0 
z
" id="DejaVuSans-72"/>
     <path d="M 8.5 21.578125 
L 8.5 54.6875 
L 17.484375 54.6875 
L 17.484375 21.921875 
Q 17.484375 14.15625 20.5 10.265625 
Q 23.53125 6.390625 29.59375 6.390625 
Q 36.859375 6.390625 41.078125 11.03125 
Q 45.3125 15.671875 45.3125 23.6875 
L 45.3125 54.6875 
L 54.296875 54.6875 
L 54.296875 0 
L 45.3125 0 
L 45.3125 8.40625 
Q 42.046875 3.421875 37.71875 1 
Q 33.40625 -1.421875 27.6875 -1.421875 
Q 18.265625 -1.421875 13.375 4.4375 
Q 8.5 10.296875 8.5 21.578125 
z
M 31.109375 56 
z
" id="DejaVuSans-117"/>
     <path d="M 44.28125 53.078125 
L 44.28125 44.578125 
Q 40.484375 46.53125 36.375 47.5 
Q 32.28125 48.484375 27.875 48.484375 
Q 21.1875 48.484375 17.84375 46.4375 
Q 14.5 44.390625 14.5 40.28125 
Q 14.5 37.15625 16.890625 35.375 
Q 19.28125 33.59375 26.515625 31.984375 
L 29.59375 31.296875 
Q 39.15625 29.25 43.1875 25.515625 
Q 47.21875 21.78125 47.21875 15.09375 
Q 47.21875 7.46875 41.1875 3.015625 
Q 35.15625 -1.421875 24.609375 -1.421875 
Q 20.21875 -1.421875 15.453125 -0.5625 
Q 10.6875 0.296875 5.421875 2 
L 5.421875 11.28125 
Q 10.40625 8.6875 15.234375 7.390625 
Q 20.0625 6.109375 24.8125 6.109375 
Q 31.15625 6.109375 34.5625 8.28125 
Q 37.984375 10.453125 37.984375 14.40625 
Q 37.984375 18.0625 35.515625 20.015625 
Q 33.0625 21.96875 24.703125 23.78125 
L 21.578125 24.515625 
Q 13.234375 26.265625 9.515625 29.90625 
Q 5.8125 33.546875 5.8125 39.890625 
Q 5.8125 47.609375 11.28125 51.796875 
Q 16.75 56 26.8125 56 
Q 31.78125 56 36.171875 55.265625 
Q 40.578125 54.546875 44.28125 53.078125 
z
" id="DejaVuSans-115"/>
     <path d="M 9.421875 54.6875 
L 18.40625 54.6875 
L 18.40625 0 
L 9.421875 0 
z
M 9.421875 75.984375 
L 18.40625 75.984375 
L 18.40625 64.59375 
L 9.421875 64.59375 
z
" id="DejaVuSans-105"/>
     <path d="M 54.890625 33.015625 
L 54.890625 0 
L 45.90625 0 
L 45.90625 32.71875 
Q 45.90625 40.484375 42.875 44.328125 
Q 39.84375 48.1875 33.796875 48.1875 
Q 26.515625 48.1875 22.3125 43.546875 
Q 18.109375 38.921875 18.109375 30.90625 
L 18.109375 0 
L 9.078125 0 
L 9.078125 54.6875 
L 18.109375 54.6875 
L 18.109375 46.1875 
Q 21.34375 51.125 25.703125 53.5625 
Q 30.078125 56 35.796875 56 
Q 45.21875 56 50.046875 50.171875 
Q 54.890625 44.34375 54.890625 33.015625 
z
" id="DejaVuSans-110"/>
     <path d="M 45.40625 27.984375 
Q 45.40625 37.75 41.375 43.109375 
Q 37.359375 48.484375 30.078125 48.484375 
Q 22.859375 48.484375 18.828125 43.109375 
Q 14.796875 37.75 14.796875 27.984375 
Q 14.796875 18.265625 18.828125 12.890625 
Q 22.859375 7.515625 30.078125 7.515625 
Q 37.359375 7.515625 41.375 12.890625 
Q 45.40625 18.265625 45.40625 27.984375 
z
M 54.390625 6.78125 
Q 54.390625 -7.171875 48.1875 -13.984375 
Q 42 -20.796875 29.203125 -20.796875 
Q 24.46875 -20.796875 20.265625 -20.09375 
Q 16.0625 -19.390625 12.109375 -17.921875 
L 12.109375 -9.1875 
Q 16.0625 -11.328125 19.921875 -12.34375 
Q 23.78125 -13.375 27.78125 -13.375 
Q 36.625 -13.375 41.015625 -8.765625 
Q 45.40625 -4.15625 45.40625 5.171875 
L 45.40625 9.625 
Q 42.625 4.78125 38.28125 2.390625 
Q 33.9375 0 27.875 0 
Q 17.828125 0 11.671875 7.65625 
Q 5.515625 15.328125 5.515625 27.984375 
Q 5.515625 40.671875 11.671875 48.328125 
Q 17.828125 56 27.875 56 
Q 33.9375 56 38.28125 53.609375 
Q 42.625 51.21875 45.40625 46.390625 
L 45.40625 54.6875 
L 54.390625 54.6875 
z
" id="DejaVuSans-103"/>
     <path id="DejaVuSans-32"/>
     <path d="M 54.890625 33.015625 
L 54.890625 0 
L 45.90625 0 
L 45.90625 32.71875 
Q 45.90625 40.484375 42.875 44.328125 
Q 39.84375 48.1875 33.796875 48.1875 
Q 26.515625 48.1875 22.3125 43.546875 
Q 18.109375 38.921875 18.109375 30.90625 
L 18.109375 0 
L 9.078125 0 
L 9.078125 75.984375 
L 18.109375 75.984375 
L 18.109375 46.1875 
Q 21.34375 51.125 25.703125 53.5625 
Q 30.078125 56 35.796875 56 
Q 45.21875 56 50.046875 50.171875 
Q 54.890625 44.34375 54.890625 33.015625 
z
" id="DejaVuSans-104"/>
     <path d="M 34.28125 27.484375 
Q 23.390625 27.484375 19.1875 25 
Q 14.984375 22.515625 14.984375 16.5 
Q 14.984375 11.71875 18.140625 8.90625 
Q 21.296875 6.109375 26.703125 6.109375 
Q 34.1875 6.109375 38.703125 11.40625 
Q 43.21875 16.703125 43.21875 25.484375 
L 43.21875 27.484375 
z
M 52.203125 31.203125 
L 52.203125 0 
L 43.21875 0 
L 43.21875 8.296875 
Q 40.140625 3.328125 35.546875 0.953125 
Q 30.953125 -1.421875 24.3125 -1.421875 
Q 15.921875 -1.421875 10.953125 3.296875 
Q 6 8.015625 6 15.921875 
Q 6 25.140625 12.171875 29.828125 
Q 18.359375 34.515625 30.609375 34.515625 
L 43.21875 34.515625 
L 43.21875 35.40625 
Q 43.21875 41.609375 39.140625 45 
Q 35.0625 48.390625 27.6875 48.390625 
Q 23 48.390625 18.546875 47.265625 
Q 14.109375 46.140625 10.015625 43.890625 
L 10.015625 52.203125 
Q 14.9375 54.109375 19.578125 55.046875 
Q 24.21875 56 28.609375 56 
Q 40.484375 56 46.34375 49.84375 
Q 52.203125 43.703125 52.203125 31.203125 
z
" id="DejaVuSans-97"/>
     <path d="M 41.109375 46.296875 
Q 39.59375 47.171875 37.8125 47.578125 
Q 36.03125 48 33.890625 48 
Q 26.265625 48 22.1875 43.046875 
Q 18.109375 38.09375 18.109375 28.8125 
L 18.109375 0 
L 9.078125 0 
L 9.078125 54.6875 
L 18.109375 54.6875 
L 18.109375 46.1875 
Q 20.953125 51.171875 25.484375 53.578125 
Q 30.03125 56 36.53125 56 
Q 37.453125 56 38.578125 55.875 
Q 39.703125 55.765625 41.0625 55.515625 
z
" id="DejaVuSans-114"/>
     <path d="M 56.203125 29.59375 
L 56.203125 25.203125 
L 14.890625 25.203125 
Q 15.484375 15.921875 20.484375 11.0625 
Q 25.484375 6.203125 34.421875 6.203125 
Q 39.59375 6.203125 44.453125 7.46875 
Q 49.3125 8.734375 54.109375 11.28125 
L 54.109375 2.78125 
Q 49.265625 0.734375 44.1875 -0.34375 
Q 39.109375 -1.421875 33.890625 -1.421875 
Q 20.796875 -1.421875 13.15625 6.1875 
Q 5.515625 13.8125 5.515625 26.8125 
Q 5.515625 40.234375 12.765625 48.109375 
Q 20.015625 56 32.328125 56 
Q 43.359375 56 49.78125 48.890625 
Q 56.203125 41.796875 56.203125 29.59375 
z
M 47.21875 32.234375 
Q 47.125 39.59375 43.09375 43.984375 
Q 39.0625 48.390625 32.421875 48.390625 
Q 24.90625 48.390625 20.390625 44.140625 
Q 15.875 39.890625 15.1875 32.171875 
z
" id="DejaVuSans-101"/>
    </defs>
    <g transform="translate(815.712344 70.083938)scale(0.18 -0.18)">
     <use xlink:href="#DejaVuSans-72"/>
     <use x="75.195312" xlink:href="#DejaVuSans-111"/>
     <use x="136.376953" xlink:href="#DejaVuSans-117"/>
     <use x="199.755859" xlink:href="#DejaVuSans-115"/>
     <use x="251.855469" xlink:href="#DejaVuSans-105"/>
     <use x="279.638672" xlink:href="#DejaVuSans-110"/>
     <use x="343.017578" xlink:href="#DejaVuSans-103"/>
     <use x="406.494141" xlink:href="#DejaVuSans-32"/>
     <use x="438.28125" xlink:href="#DejaVuSans-115"/>
     <use x="490.380859" xlink:href="#DejaVuSans-104"/>
     <use x="553.759766" xlink:href="#DejaVuSans-97"/>
     <use x="615.039062" xlink:href="#DejaVuSans-114"/>
     <use x="653.902344" xlink:href="#DejaVuSans-101"/>
     <use x="715.425781" xlink:href="#DejaVuSans-32"/>
     <use x="747.212891" xlink:href="#DejaVuSans-111"/>
     <use x="808.394531" xlink:href="#DejaVuSans-110"/>
    </g>
    <!-- Total Capital Stock -->
    <defs>
     <path d="M -0.296875 72.90625 
L 61.375 72.90625 
L 61.375 64.59375 
L 35.5 64.59375 
L 35.5 0 
L 25.59375 0 
L 25.59375 64.59375 
L -0.296875 64.59375 
z
" id="DejaVuSans-84"/>
     <path d="M 64.40625 67.28125 
L 64.40625 56.890625 
Q 59.421875 61.53125 53.78125 63.8125 
Q 48.140625 66.109375 41.796875 66.109375 
Q 29.296875 66.109375 22.65625 58.46875 
Q 16.015625 50.828125 16.015625 36.375 
Q 16.015625 21.96875 22.65625 14.328125 
Q 29.296875 6.6875 41.796875 6.6875 
Q 48.140625 6.6875 53.78125 8.984375 
Q 59.421875 11.28125 64.40625 15.921875 
L 64.40625 5.609375 
Q 59.234375 2.09375 53.4375 0.328125 
Q 47.65625 -1.421875 41.21875 -1.421875 
Q 24.65625 -1.421875 15.125 8.703125 
Q 5.609375 18.84375 5.609375 36.375 
Q 5.609375 53.953125 15.125 64.078125 
Q 24.65625 74.21875 41.21875 74.21875 
Q 47.75 74.21875 53.53125 72.484375 
Q 59.328125 70.75 64.40625 67.28125 
z
" id="DejaVuSans-67"/>
     <path d="M 18.109375 8.203125 
L 18.109375 -20.796875 
L 9.078125 -20.796875 
L 9.078125 54.6875 
L 18.109375 54.6875 
L 18.109375 46.390625 
Q 20.953125 51.265625 25.265625 53.625 
Q 29.59375 56 35.59375 56 
Q 45.5625 56 51.78125 48.09375 
Q 58.015625 40.1875 58.015625 27.296875 
Q 58.015625 14.40625 51.78125 6.484375 
Q 45.5625 -1.421875 35.59375 -1.421875 
Q 29.59375 -1.421875 25.265625 0.953125 
Q 20.953125 3.328125 18.109375 8.203125 
z
M 48.6875 27.296875 
Q 48.6875 37.203125 44.609375 42.84375 
Q 40.53125 48.484375 33.40625 48.484375 
Q 26.265625 48.484375 22.1875 42.84375 
Q 18.109375 37.203125 18.109375 27.296875 
Q 18.109375 17.390625 22.1875 11.75 
Q 26.265625 6.109375 33.40625 6.109375 
Q 40.53125 6.109375 44.609375 11.75 
Q 48.6875 17.390625 48.6875 27.296875 
z
" id="DejaVuSans-112"/>
    </defs>
    <g transform="translate(810.96625 90.24)scale(0.18 -0.18)">
     <use xlink:href="#DejaVuSans-84"/>
     <use x="44.083984" xlink:href="#DejaVuSans-111"/>
     <use x="105.265625" xlink:href="#DejaVuSans-116"/>
     <use x="144.474609" xlink:href="#DejaVuSans-97"/>
     <use x="205.753906" xlink:href="#DejaVuSans-108"/>
     <use x="233.537109" xlink:href="#DejaVuSans-32"/>
     <use x="265.324219" xlink:href="#DejaVuSans-67"/>
     <use x="335.148438" xlink:href="#DejaVuSans-97"/>
     <use x="396.427734" xlink:href="#DejaVuSans-112"/>
     <use x="459.904297" xlink:href="#DejaVuSans-105"/>
     <use x="487.6875" xlink:href="#DejaVuSans-116"/>
     <use x="526.896484" xlink:href="#DejaVuSans-97"/>
     <use x="588.175781" xlink:href="#DejaVuSans-108"/>
     <use x="615.958984" xlink:href="#DejaVuSans-32"/>
     <use x="647.746094" xlink:href="#DejaVuSans-83"/>
     <use x="711.222656" xlink:href="#DejaVuSans-116"/>
     <use x="750.431641" xlink:href="#DejaVuSans-111"/>
     <use x="811.613281" xlink:href="#DejaVuSans-99"/>
     <use x="866.59375" xlink:href="#DejaVuSans-107"/>
    </g>
   </g>
  </g>
  <g id="axes_3">
   <g id="patch_10">
    <path d="M 94.69 588.550909 
L 571.4675 588.550909 
L 571.4675 418.249091 
L 94.69 418.249091 
z
" style="fill:#ffffff;"/>
   </g>
   <g id="matplotlib.axis_5">
    <g id="xtick_13">
     <g id="line2d_31">
      <g>
       <use style="stroke:#000000;stroke-width:1.875;" x="115.948517" xlink:href="#m458d93033b" y="588.550909"/>
      </g>
     </g>
     <g id="text_25">
      <!-- 0 -->
      <g transform="translate(110.699454 613.588331)scale(0.165 -0.165)">
       <use xlink:href="#DejaVuSans-48"/>
      </g>
     </g>
    </g>
    <g id="xtick_14">
     <g id="line2d_32">
      <g>
       <use style="stroke:#000000;stroke-width:1.875;" x="198.586094" xlink:href="#m458d93033b" y="588.550909"/>
      </g>
     </g>
     <g id="text_26">
      <!-- 200 -->
      <g transform="translate(182.838906 613.588331)scale(0.165 -0.165)">
       <use xlink:href="#DejaVuSans-50"/>
       <use x="63.623047" xlink:href="#DejaVuSans-48"/>
       <use x="127.246094" xlink:href="#DejaVuSans-48"/>
      </g>
     </g>
    </g>
    <g id="xtick_15">
     <g id="line2d_33">
      <g>
       <use style="stroke:#000000;stroke-width:1.875;" x="281.22367" xlink:href="#m458d93033b" y="588.550909"/>
      </g>
     </g>
     <g id="text_27">
      <!-- 400 -->
      <g transform="translate(265.476483 613.588331)scale(0.165 -0.165)">
       <use xlink:href="#DejaVuSans-52"/>
       <use x="63.623047" xlink:href="#DejaVuSans-48"/>
       <use x="127.246094" xlink:href="#DejaVuSans-48"/>
      </g>
     </g>
    </g>
    <g id="xtick_16">
     <g id="line2d_34">
      <g>
       <use style="stroke:#000000;stroke-width:1.875;" x="363.861247" xlink:href="#m458d93033b" y="588.550909"/>
      </g>
     </g>
     <g id="text_28">
      <!-- 600 -->
      <g transform="translate(348.11406 613.588331)scale(0.165 -0.165)">
       <use xlink:href="#DejaVuSans-54"/>
       <use x="63.623047" xlink:href="#DejaVuSans-48"/>
       <use x="127.246094" xlink:href="#DejaVuSans-48"/>
      </g>
     </g>
    </g>
    <g id="xtick_17">
     <g id="line2d_35">
      <g>
       <use style="stroke:#000000;stroke-width:1.875;" x="446.498824" xlink:href="#m458d93033b" y="588.550909"/>
      </g>
     </g>
     <g id="text_29">
      <!-- 800 -->
      <g transform="translate(430.751637 613.588331)scale(0.165 -0.165)">
       <use xlink:href="#DejaVuSans-56"/>
       <use x="63.623047" xlink:href="#DejaVuSans-48"/>
       <use x="127.246094" xlink:href="#DejaVuSans-48"/>
      </g>
     </g>
    </g>
    <g id="xtick_18">
     <g id="line2d_36">
      <g>
       <use style="stroke:#000000;stroke-width:1.875;" x="529.136401" xlink:href="#m458d93033b" y="588.550909"/>
      </g>
     </g>
     <g id="text_30">
      <!-- 1000 -->
      <g transform="translate(508.140151 613.588331)scale(0.165 -0.165)">
       <use xlink:href="#DejaVuSans-49"/>
       <use x="63.623047" xlink:href="#DejaVuSans-48"/>
       <use x="127.246094" xlink:href="#DejaVuSans-48"/>
       <use x="190.869141" xlink:href="#DejaVuSans-48"/>
      </g>
     </g>
    </g>
   </g>
   <g id="matplotlib.axis_6">
    <g id="ytick_8">
     <g id="line2d_37">
      <g>
       <use style="stroke:#000000;stroke-width:1.875;" x="94.69" xlink:href="#mb1ffe06736" y="586.051655"/>
      </g>
     </g>
     <g id="text_31">
      <!-- 20.0% -->
      <g transform="translate(29.774141 592.320366)scale(0.165 -0.165)">
       <use xlink:href="#DejaVuSans-50"/>
       <use x="63.623047" xlink:href="#DejaVuSans-48"/>
       <use x="127.246094" xlink:href="#DejaVuSans-46"/>
       <use x="159.033203" xlink:href="#DejaVuSans-48"/>
       <use x="222.65625" xlink:href="#DejaVuSans-37"/>
      </g>
     </g>
    </g>
    <g id="ytick_9">
     <g id="line2d_38">
      <g>
       <use style="stroke:#000000;stroke-width:1.875;" x="94.69" xlink:href="#mb1ffe06736" y="549.798909"/>
      </g>
     </g>
     <g id="text_32">
      <!-- 40.0% -->
      <g transform="translate(29.774141 556.06762)scale(0.165 -0.165)">
       <use xlink:href="#DejaVuSans-52"/>
       <use x="63.623047" xlink:href="#DejaVuSans-48"/>
       <use x="127.246094" xlink:href="#DejaVuSans-46"/>
       <use x="159.033203" xlink:href="#DejaVuSans-48"/>
       <use x="222.65625" xlink:href="#DejaVuSans-37"/>
      </g>
     </g>
    </g>
    <g id="ytick_10">
     <g id="line2d_39">
      <g>
       <use style="stroke:#000000;stroke-width:1.875;" x="94.69" xlink:href="#mb1ffe06736" y="513.546164"/>
      </g>
     </g>
     <g id="text_33">
      <!-- 60.0% -->
      <g transform="translate(29.774141 519.814875)scale(0.165 -0.165)">
       <use xlink:href="#DejaVuSans-54"/>
       <use x="63.623047" xlink:href="#DejaVuSans-48"/>
       <use x="127.246094" xlink:href="#DejaVuSans-46"/>
       <use x="159.033203" xlink:href="#DejaVuSans-48"/>
       <use x="222.65625" xlink:href="#DejaVuSans-37"/>
      </g>
     </g>
    </g>
    <g id="ytick_11">
     <g id="line2d_40">
      <g>
       <use style="stroke:#000000;stroke-width:1.875;" x="94.69" xlink:href="#mb1ffe06736" y="477.293419"/>
      </g>
     </g>
     <g id="text_34">
      <!-- 80.0% -->
      <g transform="translate(29.774141 483.56213)scale(0.165 -0.165)">
       <use xlink:href="#DejaVuSans-56"/>
       <use x="63.623047" xlink:href="#DejaVuSans-48"/>
       <use x="127.246094" xlink:href="#DejaVuSans-46"/>
       <use x="159.033203" xlink:href="#DejaVuSans-48"/>
       <use x="222.65625" xlink:href="#DejaVuSans-37"/>
      </g>
     </g>
    </g>
    <g id="ytick_12">
     <g id="line2d_41">
      <g>
       <use style="stroke:#000000;stroke-width:1.875;" x="94.69" xlink:href="#mb1ffe06736" y="441.040673"/>
      </g>
     </g>
     <g id="text_35">
      <!-- 100.0% -->
      <g transform="translate(19.276016 447.309384)scale(0.165 -0.165)">
       <use xlink:href="#DejaVuSans-49"/>
       <use x="63.623047" xlink:href="#DejaVuSans-48"/>
       <use x="127.246094" xlink:href="#DejaVuSans-48"/>
       <use x="190.869141" xlink:href="#DejaVuSans-46"/>
       <use x="222.65625" xlink:href="#DejaVuSans-48"/>
       <use x="286.279297" xlink:href="#DejaVuSans-37"/>
      </g>
     </g>
    </g>
   </g>
   <g id="line2d_42">
    <path clip-path="url(#p4dbb16da18)" d="M 116.361705 563.40992 
L 136.607911 563.410073 
L 138.67385 565.59825 
L 141.152978 567.869478 
L 143.632105 569.815518 
L 146.111232 571.488362 
L 149.003547 573.146093 
L 151.895863 574.531535 
L 154.788178 575.681118 
L 158.093681 576.743491 
L 161.399184 577.572762 
L 165.117875 578.275533 
L 169.249754 578.830975 
L 174.208008 579.274887 
L 181.232202 579.659639 
L 194.454215 580.108994 
L 215.526797 580.634578 
L 229.988373 580.751955 
L 320.889707 580.804319 
L 549.795795 580.808363 
L 549.795795 580.808363 
" style="fill:none;stroke:#1f77b4;stroke-linecap:square;stroke-width:3;"/>
   </g>
   <g id="line2d_43">
    <path clip-path="url(#p4dbb16da18)" d="M 116.361705 484.884563 
L 136.607911 484.88492 
L 138.67385 489.990659 
L 140.73979 494.463327 
L 142.805729 498.393609 
L 144.871669 501.855453 
L 146.937608 504.91019 
L 149.003547 507.602152 
L 151.069487 509.970416 
L 153.135426 512.047358 
L 155.201366 513.859511 
L 157.680493 515.716138 
L 160.15962 517.262722 
L 162.638748 518.535405 
L 165.117875 519.570829 
L 168.01019 520.527119 
L 171.315693 521.354877 
L 175.034384 522.035478 
L 179.579451 522.627959 
L 186.190457 523.238631 
L 200.238845 524.244828 
L 212.634482 524.957001 
L 221.724615 525.252231 
L 232.4675 525.357019 
L 396.089902 525.481072 
L 549.795795 525.48068 
L 549.795795 525.48068 
" style="fill:none;stroke:#ff7f0e;stroke-linecap:square;stroke-width:3;"/>
   </g>
   <g id="line2d_44">
    <path clip-path="url(#p4dbb16da18)" d="M 116.361705 425.990083 
L 136.607911 425.990593 
L 138.67385 433.284509 
L 140.73979 439.674038 
L 142.805729 445.28873 
L 144.871669 450.234225 
L 146.937608 454.598155 
L 149.003547 458.443845 
L 151.069487 461.827096 
L 153.135426 464.794163 
L 155.201366 467.382957 
L 157.267305 469.62532 
L 159.333245 471.55428 
L 161.399184 473.199369 
L 163.465123 474.590933 
L 165.944251 475.96867 
L 168.423378 477.075956 
L 171.315693 478.09059 
L 174.208008 478.873177 
L 177.926699 479.634425 
L 182.471766 480.326383 
L 189.49596 481.143903 
L 203.957536 482.562445 
L 213.04767 483.262577 
L 220.485051 483.619119 
L 228.748809 483.787245 
L 242.797197 483.79541 
L 262.630216 483.870943 
L 290.313804 483.988044 
L 405.593224 483.985413 
L 549.795795 483.984643 
L 549.795795 483.984643 
" style="fill:none;stroke:#2ca02c;stroke-linecap:square;stroke-width:3;"/>
   </g>
   <g id="patch_11">
    <path d="M 94.69 588.550909 
L 94.69 418.249091 
" style="fill:none;stroke:#000000;stroke-linecap:square;stroke-linejoin:miter;stroke-width:1.875;"/>
   </g>
   <g id="patch_12">
    <path d="M 94.69 588.550909 
L 571.4675 588.550909 
" style="fill:none;stroke:#000000;stroke-linecap:square;stroke-linejoin:miter;stroke-width:1.875;"/>
   </g>
   <g id="text_36">
    <!-- Debt service on -->
    <defs>
     <path d="M 19.671875 64.796875 
L 19.671875 8.109375 
L 31.59375 8.109375 
Q 46.6875 8.109375 53.6875 14.9375 
Q 60.6875 21.78125 60.6875 36.53125 
Q 60.6875 51.171875 53.6875 57.984375 
Q 46.6875 64.796875 31.59375 64.796875 
z
M 9.8125 72.90625 
L 30.078125 72.90625 
Q 51.265625 72.90625 61.171875 64.09375 
Q 71.09375 55.28125 71.09375 36.53125 
Q 71.09375 17.671875 61.125 8.828125 
Q 51.171875 0 30.078125 0 
L 9.8125 0 
z
" id="DejaVuSans-68"/>
     <path d="M 48.6875 27.296875 
Q 48.6875 37.203125 44.609375 42.84375 
Q 40.53125 48.484375 33.40625 48.484375 
Q 26.265625 48.484375 22.1875 42.84375 
Q 18.109375 37.203125 18.109375 27.296875 
Q 18.109375 17.390625 22.1875 11.75 
Q 26.265625 6.109375 33.40625 6.109375 
Q 40.53125 6.109375 44.609375 11.75 
Q 48.6875 17.390625 48.6875 27.296875 
z
M 18.109375 46.390625 
Q 20.953125 51.265625 25.265625 53.625 
Q 29.59375 56 35.59375 56 
Q 45.5625 56 51.78125 48.09375 
Q 58.015625 40.1875 58.015625 27.296875 
Q 58.015625 14.40625 51.78125 6.484375 
Q 45.5625 -1.421875 35.59375 -1.421875 
Q 29.59375 -1.421875 25.265625 0.953125 
Q 20.953125 3.328125 18.109375 8.203125 
L 18.109375 0 
L 9.078125 0 
L 9.078125 75.984375 
L 18.109375 75.984375 
z
" id="DejaVuSans-98"/>
     <path d="M 2.984375 54.6875 
L 12.5 54.6875 
L 29.59375 8.796875 
L 46.6875 54.6875 
L 56.203125 54.6875 
L 35.6875 0 
L 23.484375 0 
z
" id="DejaVuSans-118"/>
    </defs>
    <g transform="translate(262.198125 392.093028)scale(0.18 -0.18)">
     <use xlink:href="#DejaVuSans-68"/>
     <use x="77.001953" xlink:href="#DejaVuSans-101"/>
     <use x="138.525391" xlink:href="#DejaVuSans-98"/>
     <use x="202.001953" xlink:href="#DejaVuSans-116"/>
     <use x="241.210938" xlink:href="#DejaVuSans-32"/>
     <use x="272.998047" xlink:href="#DejaVuSans-115"/>
     <use x="325.097656" xlink:href="#DejaVuSans-101"/>
     <use x="386.621094" xlink:href="#DejaVuSans-114"/>
     <use x="427.734375" xlink:href="#DejaVuSans-118"/>
     <use x="486.914062" xlink:href="#DejaVuSans-105"/>
     <use x="514.697266" xlink:href="#DejaVuSans-99"/>
     <use x="569.677734" xlink:href="#DejaVuSans-101"/>
     <use x="631.201172" xlink:href="#DejaVuSans-32"/>
     <use x="662.988281" xlink:href="#DejaVuSans-111"/>
     <use x="724.169922" xlink:href="#DejaVuSans-110"/>
    </g>
    <!-- Disposable income -->
    <defs>
     <path d="M 52 44.1875 
Q 55.375 50.25 60.0625 53.125 
Q 64.75 56 71.09375 56 
Q 79.640625 56 84.28125 50.015625 
Q 88.921875 44.046875 88.921875 33.015625 
L 88.921875 0 
L 79.890625 0 
L 79.890625 32.71875 
Q 79.890625 40.578125 77.09375 44.375 
Q 74.3125 48.1875 68.609375 48.1875 
Q 61.625 48.1875 57.5625 43.546875 
Q 53.515625 38.921875 53.515625 30.90625 
L 53.515625 0 
L 44.484375 0 
L 44.484375 32.71875 
Q 44.484375 40.625 41.703125 44.40625 
Q 38.921875 48.1875 33.109375 48.1875 
Q 26.21875 48.1875 22.15625 43.53125 
Q 18.109375 38.875 18.109375 30.90625 
L 18.109375 0 
L 9.078125 0 
L 9.078125 54.6875 
L 18.109375 54.6875 
L 18.109375 46.1875 
Q 21.1875 51.21875 25.484375 53.609375 
Q 29.78125 56 35.6875 56 
Q 41.65625 56 45.828125 52.96875 
Q 50 49.953125 52 44.1875 
z
" id="DejaVuSans-109"/>
    </defs>
    <g transform="translate(247.959844 412.249091)scale(0.18 -0.18)">
     <use xlink:href="#DejaVuSans-68"/>
     <use x="77.001953" xlink:href="#DejaVuSans-105"/>
     <use x="104.785156" xlink:href="#DejaVuSans-115"/>
     <use x="156.884766" xlink:href="#DejaVuSans-112"/>
     <use x="220.361328" xlink:href="#DejaVuSans-111"/>
     <use x="281.542969" xlink:href="#DejaVuSans-115"/>
     <use x="333.642578" xlink:href="#DejaVuSans-97"/>
     <use x="394.921875" xlink:href="#DejaVuSans-98"/>
     <use x="458.398438" xlink:href="#DejaVuSans-108"/>
     <use x="486.181641" xlink:href="#DejaVuSans-101"/>
     <use x="547.705078" xlink:href="#DejaVuSans-32"/>
     <use x="579.492188" xlink:href="#DejaVuSans-105"/>
     <use x="607.275391" xlink:href="#DejaVuSans-110"/>
     <use x="670.654297" xlink:href="#DejaVuSans-99"/>
     <use x="725.634766" xlink:href="#DejaVuSans-111"/>
     <use x="786.816406" xlink:href="#DejaVuSans-109"/>
     <use x="884.228516" xlink:href="#DejaVuSans-101"/>
    </g>
   </g>
   <g id="legend_2">
    <g id="patch_13">
     <path d="M 210.413516 669.218903 
L 459.743984 669.218903 
Q 463.043984 669.218903 463.043984 665.918903 
L 463.043984 619.131091 
Q 463.043984 615.831091 459.743984 615.831091 
L 210.413516 615.831091 
Q 207.113516 615.831091 207.113516 619.131091 
L 207.113516 665.918903 
Q 207.113516 669.218903 210.413516 669.218903 
z
" style="fill:#4c4c4c;opacity:0.5;stroke:#4c4c4c;stroke-linejoin:miter;stroke-width:1.5;"/>
    </g>
    <g id="patch_14">
     <path d="M 208.413516 667.218903 
L 457.743984 667.218903 
Q 461.043984 667.218903 461.043984 663.918903 
L 461.043984 617.131091 
Q 461.043984 613.831091 457.743984 613.831091 
L 208.413516 613.831091 
Q 205.113516 613.831091 205.113516 617.131091 
L 205.113516 663.918903 
Q 205.113516 667.218903 208.413516 667.218903 
z
" style="fill:#ffffff;stroke:#cccccc;stroke-linejoin:miter;stroke-width:1.5;"/>
    </g>
    <g id="line2d_45">
     <path d="M 211.713516 627.193513 
L 244.713516 627.193513 
" style="fill:none;stroke:#1f77b4;stroke-linecap:square;stroke-width:3;"/>
    </g>
    <g id="line2d_46"/>
    <g id="text_37">
     <!-- Mortgage -->
     <defs>
      <path d="M 9.8125 72.90625 
L 24.515625 72.90625 
L 43.109375 23.296875 
L 61.8125 72.90625 
L 76.515625 72.90625 
L 76.515625 0 
L 66.890625 0 
L 66.890625 64.015625 
L 48.09375 14.015625 
L 38.1875 14.015625 
L 19.390625 64.015625 
L 19.390625 0 
L 9.8125 0 
z
" id="DejaVuSans-77"/>
     </defs>
     <g transform="translate(257.913516 632.968513)scale(0.165 -0.165)">
      <use xlink:href="#DejaVuSans-77"/>
      <use x="86.279297" xlink:href="#DejaVuSans-111"/>
      <use x="147.460938" xlink:href="#DejaVuSans-114"/>
      <use x="188.574219" xlink:href="#DejaVuSans-116"/>
      <use x="227.783203" xlink:href="#DejaVuSans-103"/>
      <use x="291.259766" xlink:href="#DejaVuSans-97"/>
      <use x="352.539062" xlink:href="#DejaVuSans-103"/>
      <use x="416.015625" xlink:href="#DejaVuSans-101"/>
     </g>
    </g>
    <g id="line2d_47">
     <path d="M 211.713516 651.412419 
L 244.713516 651.412419 
" style="fill:none;stroke:#ff7f0e;stroke-linecap:square;stroke-width:3;"/>
    </g>
    <g id="line2d_48"/>
    <g id="text_38">
     <!-- Loans -->
     <defs>
      <path d="M 9.8125 72.90625 
L 19.671875 72.90625 
L 19.671875 8.296875 
L 55.171875 8.296875 
L 55.171875 0 
L 9.8125 0 
z
" id="DejaVuSans-76"/>
     </defs>
     <g transform="translate(257.913516 657.187419)scale(0.165 -0.165)">
      <use xlink:href="#DejaVuSans-76"/>
      <use x="53.962891" xlink:href="#DejaVuSans-111"/>
      <use x="115.144531" xlink:href="#DejaVuSans-97"/>
      <use x="176.423828" xlink:href="#DejaVuSans-110"/>
      <use x="239.802734" xlink:href="#DejaVuSans-115"/>
     </g>
    </g>
    <g id="line2d_49">
     <path d="M 369.711328 627.193513 
L 402.711328 627.193513 
" style="fill:none;stroke:#2ca02c;stroke-linecap:square;stroke-width:3;"/>
    </g>
    <g id="line2d_50"/>
    <g id="text_39">
     <!-- Total -->
     <g transform="translate(415.911328 632.968513)scale(0.165 -0.165)">
      <use xlink:href="#DejaVuSans-84"/>
      <use x="44.083984" xlink:href="#DejaVuSans-111"/>
      <use x="105.265625" xlink:href="#DejaVuSans-116"/>
      <use x="144.474609" xlink:href="#DejaVuSans-97"/>
      <use x="205.753906" xlink:href="#DejaVuSans-108"/>
     </g>
    </g>
   </g>
  </g>
  <g id="axes_4">
   <g id="patch_15">
    <path d="M 655.7825 588.550909 
L 1132.56 588.550909 
L 1132.56 418.249091 
L 655.7825 418.249091 
z
" style="fill:#ffffff;"/>
   </g>
   <g id="matplotlib.axis_7">
    <g id="xtick_19">
     <g id="line2d_51">
      <g>
       <use style="stroke:#000000;stroke-width:1.875;" x="677.454205" xlink:href="#m458d93033b" y="588.550909"/>
      </g>
     </g>
     <g id="text_40">
      <!-- 0 -->
      <g transform="translate(672.205142 613.588331)scale(0.165 -0.165)">
       <use xlink:href="#DejaVuSans-48"/>
      </g>
     </g>
    </g>
    <g id="xtick_20">
     <g id="line2d_52">
      <g>
       <use style="stroke:#000000;stroke-width:1.875;" x="760.013079" xlink:href="#m458d93033b" y="588.550909"/>
      </g>
     </g>
     <g id="text_41">
      <!-- 200 -->
      <g transform="translate(744.265892 613.588331)scale(0.165 -0.165)">
       <use xlink:href="#DejaVuSans-50"/>
       <use x="63.623047" xlink:href="#DejaVuSans-48"/>
       <use x="127.246094" xlink:href="#DejaVuSans-48"/>
      </g>
     </g>
    </g>
    <g id="xtick_21">
     <g id="line2d_53">
      <g>
       <use style="stroke:#000000;stroke-width:1.875;" x="842.571953" xlink:href="#m458d93033b" y="588.550909"/>
      </g>
     </g>
     <g id="text_42">
      <!-- 400 -->
      <g transform="translate(826.824766 613.588331)scale(0.165 -0.165)">
       <use xlink:href="#DejaVuSans-52"/>
       <use x="63.623047" xlink:href="#DejaVuSans-48"/>
       <use x="127.246094" xlink:href="#DejaVuSans-48"/>
      </g>
     </g>
    </g>
    <g id="xtick_22">
     <g id="line2d_54">
      <g>
       <use style="stroke:#000000;stroke-width:1.875;" x="925.130828" xlink:href="#m458d93033b" y="588.550909"/>
      </g>
     </g>
     <g id="text_43">
      <!-- 600 -->
      <g transform="translate(909.38364 613.588331)scale(0.165 -0.165)">
       <use xlink:href="#DejaVuSans-54"/>
       <use x="63.623047" xlink:href="#DejaVuSans-48"/>
       <use x="127.246094" xlink:href="#DejaVuSans-48"/>
      </g>
     </g>
    </g>
    <g id="xtick_23">
     <g id="line2d_55">
      <g>
       <use style="stroke:#000000;stroke-width:1.875;" x="1007.689702" xlink:href="#m458d93033b" y="588.550909"/>
      </g>
     </g>
     <g id="text_44">
      <!-- 800 -->
      <g transform="translate(991.942515 613.588331)scale(0.165 -0.165)">
       <use xlink:href="#DejaVuSans-56"/>
       <use x="63.623047" xlink:href="#DejaVuSans-48"/>
       <use x="127.246094" xlink:href="#DejaVuSans-48"/>
      </g>
     </g>
    </g>
    <g id="xtick_24">
     <g id="line2d_56">
      <g>
       <use style="stroke:#000000;stroke-width:1.875;" x="1090.248577" xlink:href="#m458d93033b" y="588.550909"/>
      </g>
     </g>
     <g id="text_45">
      <!-- 1000 -->
      <g transform="translate(1069.252327 613.588331)scale(0.165 -0.165)">
       <use xlink:href="#DejaVuSans-49"/>
       <use x="63.623047" xlink:href="#DejaVuSans-48"/>
       <use x="127.246094" xlink:href="#DejaVuSans-48"/>
       <use x="190.869141" xlink:href="#DejaVuSans-48"/>
      </g>
     </g>
    </g>
   </g>
   <g id="matplotlib.axis_8">
    <g id="ytick_13">
     <g id="line2d_57">
      <g>
       <use style="stroke:#000000;stroke-width:1.875;" x="655.7825" xlink:href="#mb1ffe06736" y="550.384026"/>
      </g>
     </g>
     <g id="text_46">
      <!-- 20.0% -->
      <g transform="translate(590.866641 556.652737)scale(0.165 -0.165)">
       <use xlink:href="#DejaVuSans-50"/>
       <use x="63.623047" xlink:href="#DejaVuSans-48"/>
       <use x="127.246094" xlink:href="#DejaVuSans-46"/>
       <use x="159.033203" xlink:href="#DejaVuSans-48"/>
       <use x="222.65625" xlink:href="#DejaVuSans-37"/>
      </g>
     </g>
    </g>
    <g id="ytick_14">
     <g id="line2d_58">
      <g>
       <use style="stroke:#000000;stroke-width:1.875;" x="655.7825" xlink:href="#mb1ffe06736" y="511.516787"/>
      </g>
     </g>
     <g id="text_47">
      <!-- 40.0% -->
      <g transform="translate(590.866641 517.785498)scale(0.165 -0.165)">
       <use xlink:href="#DejaVuSans-52"/>
       <use x="63.623047" xlink:href="#DejaVuSans-48"/>
       <use x="127.246094" xlink:href="#DejaVuSans-46"/>
       <use x="159.033203" xlink:href="#DejaVuSans-48"/>
       <use x="222.65625" xlink:href="#DejaVuSans-37"/>
      </g>
     </g>
    </g>
    <g id="ytick_15">
     <g id="line2d_59">
      <g>
       <use style="stroke:#000000;stroke-width:1.875;" x="655.7825" xlink:href="#mb1ffe06736" y="472.649548"/>
      </g>
     </g>
     <g id="text_48">
      <!-- 60.0% -->
      <g transform="translate(590.866641 478.918259)scale(0.165 -0.165)">
       <use xlink:href="#DejaVuSans-54"/>
       <use x="63.623047" xlink:href="#DejaVuSans-48"/>
       <use x="127.246094" xlink:href="#DejaVuSans-46"/>
       <use x="159.033203" xlink:href="#DejaVuSans-48"/>
       <use x="222.65625" xlink:href="#DejaVuSans-37"/>
      </g>
     </g>
    </g>
    <g id="ytick_16">
     <g id="line2d_60">
      <g>
       <use style="stroke:#000000;stroke-width:1.875;" x="655.7825" xlink:href="#mb1ffe06736" y="433.782309"/>
      </g>
     </g>
     <g id="text_49">
      <!-- 80.0% -->
      <g transform="translate(590.866641 440.05102)scale(0.165 -0.165)">
       <use xlink:href="#DejaVuSans-56"/>
       <use x="63.623047" xlink:href="#DejaVuSans-48"/>
       <use x="127.246094" xlink:href="#DejaVuSans-46"/>
       <use x="159.033203" xlink:href="#DejaVuSans-48"/>
       <use x="222.65625" xlink:href="#DejaVuSans-37"/>
      </g>
     </g>
    </g>
   </g>
   <g id="line2d_61">
    <path clip-path="url(#p6cf4ccfb34)" d="M 677.454205 528.900974 
L 698.093923 528.922288 
L 700.157895 499.949387 
L 701.809073 479.467435 
L 703.46025 461.993585 
L 704.698633 451.142989 
L 705.937016 442.391748 
L 706.762605 437.771041 
L 707.588194 434.145629 
L 708.413782 431.519284 
L 709.239371 429.887449 
L 709.652166 429.439962 
L 710.06496 429.234904 
L 710.477754 429.267523 
L 710.890549 429.532932 
L 711.303343 430.02661 
L 712.128932 431.672024 
L 712.954521 434.155837 
L 713.780109 437.414717 
L 715.018492 443.614795 
L 716.256876 451.162619 
L 717.908053 462.873192 
L 719.972025 479.242136 
L 725.751146 526.143868 
L 727.815118 540.559416 
L 729.466295 550.549624 
L 731.117473 558.992344 
L 732.355856 564.254799 
L 733.594239 568.584486 
L 734.832622 571.98589 
L 735.658211 573.746829 
L 736.4838 575.11257 
L 737.309389 576.094372 
L 738.134977 576.705502 
L 738.960566 576.961009 
L 739.786155 576.877508 
L 740.611744 576.47298 
L 741.437332 575.766584 
L 742.262921 574.77849 
L 743.501304 572.811085 
L 744.739687 570.334485 
L 746.390865 566.366579 
L 748.454837 560.595293 
L 751.344397 551.640483 
L 755.885135 537.536288 
L 757.949107 531.830462 
L 759.600285 527.806691 
L 761.251462 524.36018 
L 762.489845 522.188378 
L 763.728228 520.391527 
L 764.966611 518.978442 
L 766.204995 517.950284 
L 767.443378 517.300915 
L 768.268966 517.072315 
L 769.094555 517.001061 
L 770.332938 517.174691 
L 771.571321 517.661337 
L 772.809705 518.430575 
L 774.048088 519.448597 
L 775.699265 521.130044 
L 777.763237 523.625963 
L 780.652798 527.539941 
L 785.193536 533.69987 
L 787.257508 536.171543 
L 789.321479 538.300978 
L 790.972657 539.715155 
L 792.623834 540.850387 
L 794.275012 541.694717 
L 795.926189 542.256067 
L 797.577367 542.540592 
L 799.228544 542.565544 
L 800.879722 542.354444 
L 802.530899 541.935772 
L 804.594871 541.169724 
L 807.071637 539.984226 
L 810.786787 537.910886 
L 815.740319 535.174839 
L 818.62988 533.849861 
L 821.106646 532.963869 
L 823.583412 532.341121 
L 826.060179 531.989586 
L 828.536945 531.897391 
L 831.013711 532.036214 
L 833.903272 532.435479 
L 837.618421 533.20404 
L 848.351075 535.604214 
L 852.066224 536.113385 
L 855.368579 536.352545 
L 859.083728 536.390681 
L 863.211672 536.197841 
L 868.990793 535.678597 
L 878.485064 534.810233 
L 883.851391 534.555931 
L 889.217718 534.51967 
L 896.235222 534.715887 
L 912.746997 535.277898 
L 921.415679 535.281779 
L 956.090406 535.012156 
L 983.334834 535.101663 
L 1033.695748 535.077621 
L 1110.888295 535.070501 
L 1110.888295 535.070501 
" style="fill:none;stroke:#1f77b4;stroke-linecap:square;stroke-width:2.25;"/>
   </g>
   <g id="line2d_62">
    <path clip-path="url(#p6cf4ccfb34)" d="M 677.454205 524.537331 
L 698.093923 524.559375 
L 700.157895 495.596564 
L 701.809073 475.151093 
L 703.46025 457.758519 
L 704.698633 447.006981 
L 705.937016 438.392513 
L 706.762605 433.885463 
L 707.588194 430.392302 
L 708.413782 427.916978 
L 709.239371 426.454795 
L 709.652166 426.098991 
L 710.06496 425.990083 
L 710.477754 426.123216 
L 710.890549 426.493386 
L 711.303343 427.095937 
L 712.128932 428.970814 
L 712.954521 431.698551 
L 713.780109 435.214247 
L 715.018492 441.819897 
L 716.256876 449.792041 
L 717.908053 462.085985 
L 720.384819 482.751147 
L 725.338352 524.745655 
L 727.402324 540.102879 
L 729.053501 550.847447 
L 730.704679 560.021092 
L 731.943062 565.805407 
L 733.181445 570.627547 
L 734.419828 574.487183 
L 735.245417 576.532726 
L 736.071005 578.165356 
L 736.896594 579.395668 
L 737.722183 580.236441 
L 738.547772 580.702385 
L 739.37336 580.809917 
L 740.198949 580.57695 
L 741.024538 580.022693 
L 741.850127 579.167467 
L 742.675715 578.032535 
L 743.914098 575.850941 
L 745.152482 573.170083 
L 746.803659 568.95032 
L 748.867631 562.905264 
L 752.169986 552.312923 
L 755.885135 540.564828 
L 757.949107 534.722673 
L 759.600285 530.603513 
L 761.251462 527.076408 
L 762.489845 524.854924 
L 763.728228 523.018153 
L 764.966611 521.575158 
L 766.204995 520.527132 
L 767.443378 519.867771 
L 768.268966 519.637828 
L 769.094555 519.569319 
L 769.920144 519.65556 
L 771.158527 520.057908 
L 772.39691 520.760946 
L 773.635293 521.730997 
L 775.286471 523.376352 
L 776.937648 525.339931 
L 779.414415 528.677876 
L 786.019124 537.829232 
L 788.083096 540.239133 
L 789.734274 541.895424 
L 791.385451 543.278675 
L 793.036629 544.371861 
L 794.687806 545.165553 
L 796.338984 545.669918 
L 797.990161 545.893554 
L 799.641339 545.855961 
L 801.292516 545.58274 
L 802.943694 545.104244 
L 805.007666 544.269109 
L 807.484432 543.012401 
L 812.02517 540.3751 
L 815.740319 538.296972 
L 818.62988 536.936692 
L 821.106646 536.027362 
L 823.583412 535.388511 
L 825.647384 535.069255 
L 828.12415 534.932615 
L 830.600917 535.03907 
L 833.490477 535.416648 
L 836.792832 536.085928 
L 849.589458 538.947244 
L 852.891813 539.348625 
L 856.194168 539.542416 
L 859.909317 539.530166 
L 864.037261 539.290631 
L 870.641971 538.646376 
L 878.485064 537.927802 
L 883.851391 537.666801 
L 889.217718 537.629806 
L 896.235222 537.831612 
L 912.746997 538.408895 
L 921.415679 538.412723 
L 955.677611 538.132772 
L 983.334834 538.227714 
L 1032.457365 538.202736 
L 1110.888295 538.195713 
L 1110.888295 538.195713 
" style="fill:none;stroke:#ff7f0e;stroke-linecap:square;stroke-width:2.25;"/>
   </g>
   <g id="patch_16">
    <path d="M 655.7825 588.550909 
L 655.7825 418.249091 
" style="fill:none;stroke:#000000;stroke-linecap:square;stroke-linejoin:miter;stroke-width:1.875;"/>
   </g>
   <g id="patch_17">
    <path d="M 655.7825 588.550909 
L 1132.56 588.550909 
" style="fill:none;stroke:#000000;stroke-linecap:square;stroke-linejoin:miter;stroke-width:1.875;"/>
   </g>
   <g id="legend_3">
    <g id="patch_18">
     <path d="M 933.879375 479.886903 
L 1121.01 479.886903 
Q 1124.31 479.886903 1124.31 476.586903 
L 1124.31 429.799091 
Q 1124.31 426.499091 1121.01 426.499091 
L 933.879375 426.499091 
Q 930.579375 426.499091 930.579375 429.799091 
L 930.579375 476.586903 
Q 930.579375 479.886903 933.879375 479.886903 
z
" style="fill:#ffffff;opacity:0.8;stroke:#cccccc;stroke-linejoin:miter;stroke-width:1.5;"/>
    </g>
    <g id="line2d_63">
     <path d="M 937.179375 439.861513 
L 970.179375 439.861513 
" style="fill:none;stroke:#1f77b4;stroke-linecap:square;stroke-width:2.25;"/>
    </g>
    <g id="line2d_64"/>
    <g id="text_50">
     <!-- Gross profit rate -->
     <defs>
      <path d="M 59.515625 10.40625 
L 59.515625 29.984375 
L 43.40625 29.984375 
L 43.40625 38.09375 
L 69.28125 38.09375 
L 69.28125 6.78125 
Q 63.578125 2.734375 56.6875 0.65625 
Q 49.8125 -1.421875 42 -1.421875 
Q 24.90625 -1.421875 15.25 8.5625 
Q 5.609375 18.5625 5.609375 36.375 
Q 5.609375 54.25 15.25 64.234375 
Q 24.90625 74.21875 42 74.21875 
Q 49.125 74.21875 55.546875 72.453125 
Q 61.96875 70.703125 67.390625 67.28125 
L 67.390625 56.78125 
Q 61.921875 61.421875 55.765625 63.765625 
Q 49.609375 66.109375 42.828125 66.109375 
Q 29.4375 66.109375 22.71875 58.640625 
Q 16.015625 51.171875 16.015625 36.375 
Q 16.015625 21.625 22.71875 14.15625 
Q 29.4375 6.6875 42.828125 6.6875 
Q 48.046875 6.6875 52.140625 7.59375 
Q 56.25 8.5 59.515625 10.40625 
z
" id="DejaVuSans-71"/>
     </defs>
     <g transform="translate(983.379375 445.636513)scale(0.165 -0.165)">
      <use xlink:href="#DejaVuSans-71"/>
      <use x="77.490234" xlink:href="#DejaVuSans-114"/>
      <use x="116.353516" xlink:href="#DejaVuSans-111"/>
      <use x="177.535156" xlink:href="#DejaVuSans-115"/>
      <use x="229.634766" xlink:href="#DejaVuSans-115"/>
      <use x="281.734375" xlink:href="#DejaVuSans-32"/>
      <use x="313.521484" xlink:href="#DejaVuSans-112"/>
      <use x="376.998047" xlink:href="#DejaVuSans-114"/>
      <use x="415.861328" xlink:href="#DejaVuSans-111"/>
      <use x="477.042969" xlink:href="#DejaVuSans-102"/>
      <use x="512.248047" xlink:href="#DejaVuSans-105"/>
      <use x="540.03125" xlink:href="#DejaVuSans-116"/>
      <use x="579.240234" xlink:href="#DejaVuSans-32"/>
      <use x="611.027344" xlink:href="#DejaVuSans-114"/>
      <use x="652.140625" xlink:href="#DejaVuSans-97"/>
      <use x="713.419922" xlink:href="#DejaVuSans-116"/>
      <use x="752.628906" xlink:href="#DejaVuSans-101"/>
     </g>
    </g>
    <g id="line2d_65">
     <path d="M 937.179375 464.080419 
L 970.179375 464.080419 
" style="fill:none;stroke:#ff7f0e;stroke-linecap:square;stroke-width:2.25;"/>
    </g>
    <g id="line2d_66"/>
    <g id="text_51">
     <!-- Net profit rate -->
     <defs>
      <path d="M 9.8125 72.90625 
L 23.09375 72.90625 
L 55.421875 11.921875 
L 55.421875 72.90625 
L 64.984375 72.90625 
L 64.984375 0 
L 51.703125 0 
L 19.390625 60.984375 
L 19.390625 0 
L 9.8125 0 
z
" id="DejaVuSans-78"/>
     </defs>
     <g transform="translate(983.379375 469.855419)scale(0.165 -0.165)">
      <use xlink:href="#DejaVuSans-78"/>
      <use x="74.804688" xlink:href="#DejaVuSans-101"/>
      <use x="136.328125" xlink:href="#DejaVuSans-116"/>
      <use x="175.537109" xlink:href="#DejaVuSans-32"/>
      <use x="207.324219" xlink:href="#DejaVuSans-112"/>
      <use x="270.800781" xlink:href="#DejaVuSans-114"/>
      <use x="309.664062" xlink:href="#DejaVuSans-111"/>
      <use x="370.845703" xlink:href="#DejaVuSans-102"/>
      <use x="406.050781" xlink:href="#DejaVuSans-105"/>
      <use x="433.833984" xlink:href="#DejaVuSans-116"/>
      <use x="473.042969" xlink:href="#DejaVuSans-32"/>
      <use x="504.830078" xlink:href="#DejaVuSans-114"/>
      <use x="545.943359" xlink:href="#DejaVuSans-97"/>
      <use x="607.222656" xlink:href="#DejaVuSans-116"/>
      <use x="646.431641" xlink:href="#DejaVuSans-101"/>
     </g>
    </g>
   </g>
  </g>
 </g>
 <defs>
  <clipPath id="p8eb1a9823e">
   <rect height="170.301818" width="476.7775" x="94.69" y="96.24"/>
  </clipPath>
  <clipPath id="p7793ee1bb0">
   <rect height="170.301818" width="476.7775" x="655.7825" y="96.24"/>
  </clipPath>
  <clipPath id="p4dbb16da18">
   <rect height="170.301818" width="476.7775" x="94.69" y="418.249091"/>
  </clipPath>
  <clipPath id="p6cf4ccfb34">
   <rect height="170.301818" width="476.7775" x="655.7825" y="418.249091"/>
  </clipPath>
 </defs>
</svg>
