<?xml version="1.0" encoding="utf-8" standalone="no"?>
<!DOCTYPE svg PUBLIC "-//W3C//DTD SVG 1.1//EN"
  "http://www.w3.org/Graphics/SVG/1.1/DTD/svg11.dtd">
<!-- Created with matplotlib (https://matplotlib.org/) -->
<svg height="720pt" version="1.1" viewBox="0 0 1152 720" width="1152pt" xmlns="http://www.w3.org/2000/svg" xmlns:xlink="http://www.w3.org/1999/xlink">
 <defs>
  <style type="text/css">
*{stroke-linecap:butt;stroke-linejoin:round;}
  </style>
 </defs>
 <g id="figure_1">
  <g id="patch_1">
   <path d="M 0 720 
L 1152 720 
L 1152 0 
L 0 0 
z
" style="fill:#ffffff;"/>
  </g>
  <g id="axes_1">
   <g id="patch_2">
    <path d="M 89.69 299.967273 
L 566.28 299.967273 
L 566.28 75.44 
L 89.69 75.44 
z
" style="fill:#ffffff;"/>
   </g>
   <g id="matplotlib.axis_1">
    <g id="xtick_1">
     <g id="line2d_1">
      <defs>
       <path d="M 0 0 
L 0 9 
" id="mfa4f920c8f" style="stroke:#000000;stroke-width:1.875;"/>
      </defs>
      <g>
       <use style="stroke:#000000;stroke-width:1.875;" x="110.940156" xlink:href="#mfa4f920c8f" y="299.967273"/>
      </g>
     </g>
     <g id="text_1">
      <!-- 0 -->
      <defs>
       <path d="M 31.78125 66.40625 
Q 24.171875 66.40625 20.328125 58.90625 
Q 16.5 51.421875 16.5 36.375 
Q 16.5 21.390625 20.328125 13.890625 
Q 24.171875 6.390625 31.78125 6.390625 
Q 39.453125 6.390625 43.28125 13.890625 
Q 47.125 21.390625 47.125 36.375 
Q 47.125 51.421875 43.28125 58.90625 
Q 39.453125 66.40625 31.78125 66.40625 
z
M 31.78125 74.21875 
Q 44.046875 74.21875 50.515625 64.515625 
Q 56.984375 54.828125 56.984375 36.375 
Q 56.984375 17.96875 50.515625 8.265625 
Q 44.046875 -1.421875 31.78125 -1.421875 
Q 19.53125 -1.421875 13.0625 8.265625 
Q 6.59375 17.96875 6.59375 36.375 
Q 6.59375 54.828125 13.0625 64.515625 
Q 19.53125 74.21875 31.78125 74.21875 
z
" id="DejaVuSans-48"/>
      </defs>
      <g transform="translate(105.691094 325.004695)scale(0.165 -0.165)">
       <use xlink:href="#DejaVuSans-48"/>
      </g>
     </g>
    </g>
    <g id="xtick_2">
     <g id="line2d_2">
      <g>
       <use style="stroke:#000000;stroke-width:1.875;" x="193.545235" xlink:href="#mfa4f920c8f" y="299.967273"/>
      </g>
     </g>
     <g id="text_2">
      <!-- 200 -->
      <defs>
       <path d="M 19.1875 8.296875 
L 53.609375 8.296875 
L 53.609375 0 
L 7.328125 0 
L 7.328125 8.296875 
Q 12.9375 14.109375 22.625 23.890625 
Q 32.328125 33.6875 34.8125 36.53125 
Q 39.546875 41.84375 41.421875 45.53125 
Q 43.3125 49.21875 43.3125 52.78125 
Q 43.3125 58.59375 39.234375 62.25 
Q 35.15625 65.921875 28.609375 65.921875 
Q 23.96875 65.921875 18.8125 64.3125 
Q 13.671875 62.703125 7.8125 59.421875 
L 7.8125 69.390625 
Q 13.765625 71.78125 18.9375 73 
Q 24.125 74.21875 28.421875 74.21875 
Q 39.75 74.21875 46.484375 68.546875 
Q 53.21875 62.890625 53.21875 53.421875 
Q 53.21875 48.921875 51.53125 44.890625 
Q 49.859375 40.875 45.40625 35.40625 
Q 44.1875 33.984375 37.640625 27.21875 
Q 31.109375 20.453125 19.1875 8.296875 
z
" id="DejaVuSans-50"/>
      </defs>
      <g transform="translate(177.798047 325.004695)scale(0.165 -0.165)">
       <use xlink:href="#DejaVuSans-50"/>
       <use x="63.623047" xlink:href="#DejaVuSans-48"/>
       <use x="127.246094" xlink:href="#DejaVuSans-48"/>
      </g>
     </g>
    </g>
    <g id="xtick_3">
     <g id="line2d_3">
      <g>
       <use style="stroke:#000000;stroke-width:1.875;" x="276.150313" xlink:href="#mfa4f920c8f" y="299.967273"/>
      </g>
     </g>
     <g id="text_3">
      <!-- 400 -->
      <defs>
       <path d="M 37.796875 64.3125 
L 12.890625 25.390625 
L 37.796875 25.390625 
z
M 35.203125 72.90625 
L 47.609375 72.90625 
L 47.609375 25.390625 
L 58.015625 25.390625 
L 58.015625 17.1875 
L 47.609375 17.1875 
L 47.609375 0 
L 37.796875 0 
L 37.796875 17.1875 
L 4.890625 17.1875 
L 4.890625 26.703125 
z
" id="DejaVuSans-52"/>
      </defs>
      <g transform="translate(260.403126 325.004695)scale(0.165 -0.165)">
       <use xlink:href="#DejaVuSans-52"/>
       <use x="63.623047" xlink:href="#DejaVuSans-48"/>
       <use x="127.246094" xlink:href="#DejaVuSans-48"/>
      </g>
     </g>
    </g>
    <g id="xtick_4">
     <g id="line2d_4">
      <g>
       <use style="stroke:#000000;stroke-width:1.875;" x="358.755392" xlink:href="#mfa4f920c8f" y="299.967273"/>
      </g>
     </g>
     <g id="text_4">
      <!-- 600 -->
      <defs>
       <path d="M 33.015625 40.375 
Q 26.375 40.375 22.484375 35.828125 
Q 18.609375 31.296875 18.609375 23.390625 
Q 18.609375 15.53125 22.484375 10.953125 
Q 26.375 6.390625 33.015625 6.390625 
Q 39.65625 6.390625 43.53125 10.953125 
Q 47.40625 15.53125 47.40625 23.390625 
Q 47.40625 31.296875 43.53125 35.828125 
Q 39.65625 40.375 33.015625 40.375 
z
M 52.59375 71.296875 
L 52.59375 62.3125 
Q 48.875 64.0625 45.09375 64.984375 
Q 41.3125 65.921875 37.59375 65.921875 
Q 27.828125 65.921875 22.671875 59.328125 
Q 17.53125 52.734375 16.796875 39.40625 
Q 19.671875 43.65625 24.015625 45.921875 
Q 28.375 48.1875 33.59375 48.1875 
Q 44.578125 48.1875 50.953125 41.515625 
Q 57.328125 34.859375 57.328125 23.390625 
Q 57.328125 12.15625 50.6875 5.359375 
Q 44.046875 -1.421875 33.015625 -1.421875 
Q 20.359375 -1.421875 13.671875 8.265625 
Q 6.984375 17.96875 6.984375 36.375 
Q 6.984375 53.65625 15.1875 63.9375 
Q 23.390625 74.21875 37.203125 74.21875 
Q 40.921875 74.21875 44.703125 73.484375 
Q 48.484375 72.75 52.59375 71.296875 
z
" id="DejaVuSans-54"/>
      </defs>
      <g transform="translate(343.008204 325.004695)scale(0.165 -0.165)">
       <use xlink:href="#DejaVuSans-54"/>
       <use x="63.623047" xlink:href="#DejaVuSans-48"/>
       <use x="127.246094" xlink:href="#DejaVuSans-48"/>
      </g>
     </g>
    </g>
    <g id="xtick_5">
     <g id="line2d_5">
      <g>
       <use style="stroke:#000000;stroke-width:1.875;" x="441.36047" xlink:href="#mfa4f920c8f" y="299.967273"/>
      </g>
     </g>
     <g id="text_5">
      <!-- 800 -->
      <defs>
       <path d="M 31.78125 34.625 
Q 24.75 34.625 20.71875 30.859375 
Q 16.703125 27.09375 16.703125 20.515625 
Q 16.703125 13.921875 20.71875 10.15625 
Q 24.75 6.390625 31.78125 6.390625 
Q 38.8125 6.390625 42.859375 10.171875 
Q 46.921875 13.96875 46.921875 20.515625 
Q 46.921875 27.09375 42.890625 30.859375 
Q 38.875 34.625 31.78125 34.625 
z
M 21.921875 38.8125 
Q 15.578125 40.375 12.03125 44.71875 
Q 8.5 49.078125 8.5 55.328125 
Q 8.5 64.0625 14.71875 69.140625 
Q 20.953125 74.21875 31.78125 74.21875 
Q 42.671875 74.21875 48.875 69.140625 
Q 55.078125 64.0625 55.078125 55.328125 
Q 55.078125 49.078125 51.53125 44.71875 
Q 48 40.375 41.703125 38.8125 
Q 48.828125 37.15625 52.796875 32.3125 
Q 56.78125 27.484375 56.78125 20.515625 
Q 56.78125 9.90625 50.3125 4.234375 
Q 43.84375 -1.421875 31.78125 -1.421875 
Q 19.734375 -1.421875 13.25 4.234375 
Q 6.78125 9.90625 6.78125 20.515625 
Q 6.78125 27.484375 10.78125 32.3125 
Q 14.796875 37.15625 21.921875 38.8125 
z
M 18.3125 54.390625 
Q 18.3125 48.734375 21.84375 45.5625 
Q 25.390625 42.390625 31.78125 42.390625 
Q 38.140625 42.390625 41.71875 45.5625 
Q 45.3125 48.734375 45.3125 54.390625 
Q 45.3125 60.0625 41.71875 63.234375 
Q 38.140625 66.40625 31.78125 66.40625 
Q 25.390625 66.40625 21.84375 63.234375 
Q 18.3125 60.0625 18.3125 54.390625 
z
" id="DejaVuSans-56"/>
      </defs>
      <g transform="translate(425.613283 325.004695)scale(0.165 -0.165)">
       <use xlink:href="#DejaVuSans-56"/>
       <use x="63.623047" xlink:href="#DejaVuSans-48"/>
       <use x="127.246094" xlink:href="#DejaVuSans-48"/>
      </g>
     </g>
    </g>
    <g id="xtick_6">
     <g id="line2d_6">
      <g>
       <use style="stroke:#000000;stroke-width:1.875;" x="523.965549" xlink:href="#mfa4f920c8f" y="299.967273"/>
      </g>
     </g>
     <g id="text_6">
      <!-- 1000 -->
      <defs>
       <path d="M 12.40625 8.296875 
L 28.515625 8.296875 
L 28.515625 63.921875 
L 10.984375 60.40625 
L 10.984375 69.390625 
L 28.421875 72.90625 
L 38.28125 72.90625 
L 38.28125 8.296875 
L 54.390625 8.296875 
L 54.390625 0 
L 12.40625 0 
z
" id="DejaVuSans-49"/>
      </defs>
      <g transform="translate(502.969299 325.004695)scale(0.165 -0.165)">
       <use xlink:href="#DejaVuSans-49"/>
       <use x="63.623047" xlink:href="#DejaVuSans-48"/>
       <use x="127.246094" xlink:href="#DejaVuSans-48"/>
       <use x="190.869141" xlink:href="#DejaVuSans-48"/>
      </g>
     </g>
    </g>
   </g>
   <g id="matplotlib.axis_2">
    <g id="ytick_1">
     <g id="line2d_7">
      <defs>
       <path d="M 0 0 
L -9 0 
" id="m4e5fe9d928" style="stroke:#000000;stroke-width:1.875;"/>
      </defs>
      <g>
       <use style="stroke:#000000;stroke-width:1.875;" x="89.69" xlink:href="#m4e5fe9d928" y="260.637952"/>
      </g>
     </g>
     <g id="text_7">
      <!-- 0.0220 -->
      <defs>
       <path d="M 10.6875 12.40625 
L 21 12.40625 
L 21 0 
L 10.6875 0 
z
" id="DejaVuSans-46"/>
      </defs>
      <g transform="translate(19.455469 266.906663)scale(0.165 -0.165)">
       <use xlink:href="#DejaVuSans-48"/>
       <use x="63.623047" xlink:href="#DejaVuSans-46"/>
       <use x="95.410156" xlink:href="#DejaVuSans-48"/>
       <use x="159.033203" xlink:href="#DejaVuSans-50"/>
       <use x="222.65625" xlink:href="#DejaVuSans-50"/>
       <use x="286.279297" xlink:href="#DejaVuSans-48"/>
      </g>
     </g>
    </g>
    <g id="ytick_2">
     <g id="line2d_8">
      <g>
       <use style="stroke:#000000;stroke-width:1.875;" x="89.69" xlink:href="#m4e5fe9d928" y="216.918664"/>
      </g>
     </g>
     <g id="text_8">
      <!-- 0.0225 -->
      <defs>
       <path d="M 10.796875 72.90625 
L 49.515625 72.90625 
L 49.515625 64.59375 
L 19.828125 64.59375 
L 19.828125 46.734375 
Q 21.96875 47.46875 24.109375 47.828125 
Q 26.265625 48.1875 28.421875 48.1875 
Q 40.625 48.1875 47.75 41.5 
Q 54.890625 34.8125 54.890625 23.390625 
Q 54.890625 11.625 47.5625 5.09375 
Q 40.234375 -1.421875 26.90625 -1.421875 
Q 22.3125 -1.421875 17.546875 -0.640625 
Q 12.796875 0.140625 7.71875 1.703125 
L 7.71875 11.625 
Q 12.109375 9.234375 16.796875 8.0625 
Q 21.484375 6.890625 26.703125 6.890625 
Q 35.15625 6.890625 40.078125 11.328125 
Q 45.015625 15.765625 45.015625 23.390625 
Q 45.015625 31 40.078125 35.4375 
Q 35.15625 39.890625 26.703125 39.890625 
Q 22.75 39.890625 18.8125 39.015625 
Q 14.890625 38.140625 10.796875 36.28125 
z
" id="DejaVuSans-53"/>
      </defs>
      <g transform="translate(19.455469 223.187375)scale(0.165 -0.165)">
       <use xlink:href="#DejaVuSans-48"/>
       <use x="63.623047" xlink:href="#DejaVuSans-46"/>
       <use x="95.410156" xlink:href="#DejaVuSans-48"/>
       <use x="159.033203" xlink:href="#DejaVuSans-50"/>
       <use x="222.65625" xlink:href="#DejaVuSans-50"/>
       <use x="286.279297" xlink:href="#DejaVuSans-53"/>
      </g>
     </g>
    </g>
    <g id="ytick_3">
     <g id="line2d_9">
      <g>
       <use style="stroke:#000000;stroke-width:1.875;" x="89.69" xlink:href="#m4e5fe9d928" y="173.199376"/>
      </g>
     </g>
     <g id="text_9">
      <!-- 0.0230 -->
      <defs>
       <path d="M 40.578125 39.3125 
Q 47.65625 37.796875 51.625 33 
Q 55.609375 28.21875 55.609375 21.1875 
Q 55.609375 10.40625 48.1875 4.484375 
Q 40.765625 -1.421875 27.09375 -1.421875 
Q 22.515625 -1.421875 17.65625 -0.515625 
Q 12.796875 0.390625 7.625 2.203125 
L 7.625 11.71875 
Q 11.71875 9.328125 16.59375 8.109375 
Q 21.484375 6.890625 26.8125 6.890625 
Q 36.078125 6.890625 40.9375 10.546875 
Q 45.796875 14.203125 45.796875 21.1875 
Q 45.796875 27.640625 41.28125 31.265625 
Q 36.765625 34.90625 28.71875 34.90625 
L 20.21875 34.90625 
L 20.21875 43.015625 
L 29.109375 43.015625 
Q 36.375 43.015625 40.234375 45.921875 
Q 44.09375 48.828125 44.09375 54.296875 
Q 44.09375 59.90625 40.109375 62.90625 
Q 36.140625 65.921875 28.71875 65.921875 
Q 24.65625 65.921875 20.015625 65.03125 
Q 15.375 64.15625 9.8125 62.3125 
L 9.8125 71.09375 
Q 15.4375 72.65625 20.34375 73.4375 
Q 25.25 74.21875 29.59375 74.21875 
Q 40.828125 74.21875 47.359375 69.109375 
Q 53.90625 64.015625 53.90625 55.328125 
Q 53.90625 49.265625 50.4375 45.09375 
Q 46.96875 40.921875 40.578125 39.3125 
z
" id="DejaVuSans-51"/>
      </defs>
      <g transform="translate(19.455469 179.468086)scale(0.165 -0.165)">
       <use xlink:href="#DejaVuSans-48"/>
       <use x="63.623047" xlink:href="#DejaVuSans-46"/>
       <use x="95.410156" xlink:href="#DejaVuSans-48"/>
       <use x="159.033203" xlink:href="#DejaVuSans-50"/>
       <use x="222.65625" xlink:href="#DejaVuSans-51"/>
       <use x="286.279297" xlink:href="#DejaVuSans-48"/>
      </g>
     </g>
    </g>
    <g id="ytick_4">
     <g id="line2d_10">
      <g>
       <use style="stroke:#000000;stroke-width:1.875;" x="89.69" xlink:href="#m4e5fe9d928" y="129.480087"/>
      </g>
     </g>
     <g id="text_10">
      <!-- 0.0235 -->
      <g transform="translate(19.455469 135.748798)scale(0.165 -0.165)">
       <use xlink:href="#DejaVuSans-48"/>
       <use x="63.623047" xlink:href="#DejaVuSans-46"/>
       <use x="95.410156" xlink:href="#DejaVuSans-48"/>
       <use x="159.033203" xlink:href="#DejaVuSans-50"/>
       <use x="222.65625" xlink:href="#DejaVuSans-51"/>
       <use x="286.279297" xlink:href="#DejaVuSans-53"/>
      </g>
     </g>
    </g>
    <g id="ytick_5">
     <g id="line2d_11">
      <g>
       <use style="stroke:#000000;stroke-width:1.875;" x="89.69" xlink:href="#m4e5fe9d928" y="85.760799"/>
      </g>
     </g>
     <g id="text_11">
      <!-- 0.0240 -->
      <g transform="translate(19.455469 92.02951)scale(0.165 -0.165)">
       <use xlink:href="#DejaVuSans-48"/>
       <use x="63.623047" xlink:href="#DejaVuSans-46"/>
       <use x="95.410156" xlink:href="#DejaVuSans-48"/>
       <use x="159.033203" xlink:href="#DejaVuSans-50"/>
       <use x="222.65625" xlink:href="#DejaVuSans-52"/>
       <use x="286.279297" xlink:href="#DejaVuSans-48"/>
      </g>
     </g>
    </g>
   </g>
   <g id="line2d_12">
    <path clip-path="url(#p7cc2eec678)" d="M 111.353182 85.755368 
L 131.591426 85.760718 
L 132.004451 173.15925 
L 132.830502 174.130215 
L 135.308655 175.770845 
L 135.72168 175.945642 
L 136.547731 176.461528 
L 138.612858 177.403924 
L 140.677985 178.077556 
L 143.982188 178.617169 
L 145.634289 178.656589 
L 148.525467 178.371416 
L 151.003619 177.866285 
L 153.894797 177.039734 
L 158.025051 175.594512 
L 160.503203 174.673426 
L 160.916229 174.654101 
L 161.74228 173.991994 
L 162.155305 174.002676 
L 162.56833 174.211637 
L 162.981356 173.774518 
L 167.11161 172.437565 
L 168.350686 172.095823 
L 168.763711 172.179716 
L 169.176737 171.887332 
L 172.067914 171.281351 
L 174.959092 170.887973 
L 177.85027 170.712566 
L 180.741448 170.744103 
L 181.154473 170.76417 
L 181.567498 171.06035 
L 181.980524 170.816475 
L 185.697752 171.200953 
L 190.241032 171.913663 
L 200.979692 173.686955 
L 201.392717 173.738916 
L 201.805743 174.178446 
L 202.218768 173.839083 
L 206.349022 174.205229 
L 210.479276 174.356826 
L 215.022555 174.297081 
L 220.804911 173.970223 
L 238.565003 172.762262 
L 244.760383 172.661562 
L 251.781815 172.776363 
L 277.802415 173.448796 
L 288.9541 173.329708 
L 309.60537 173.084297 
L 326.952437 173.179522 
L 349.255808 173.245364 
L 406.666337 173.210424 
L 544.616818 173.199882 
L 544.616818 173.199882 
" style="fill:none;stroke:#1f77b4;stroke-dasharray:11.1,4.8;stroke-dashoffset:0;stroke-width:3;"/>
   </g>
   <g id="line2d_13">
    <path clip-path="url(#p7cc2eec678)" d="M 111.353182 85.761485 
L 131.591426 85.755056 
L 134.069578 97.757671 
L 136.547731 108.754474 
L 139.025883 118.751331 
L 141.504035 127.742139 
L 143.569162 134.461755 
L 145.634289 140.480045 
L 147.699416 145.80442 
L 149.764543 150.450088 
L 151.416645 153.693364 
L 153.068746 156.532955 
L 154.720848 158.986924 
L 156.37295 161.077144 
L 158.025051 162.826593 
L 159.677153 164.261216 
L 161.329254 165.4088 
L 162.981356 166.296843 
L 164.633457 166.955297 
L 166.698584 167.500615 
L 168.763711 167.792388 
L 171.241864 167.885168 
L 174.133041 167.757705 
L 185.284727 167.002494 
L 188.58893 167.142182 
L 191.893133 167.530642 
L 195.197336 168.148796 
L 199.32759 169.16845 
L 213.783479 172.993481 
L 217.500708 173.620995 
L 221.217936 174.016816 
L 224.935165 174.185802 
L 229.065419 174.142491 
L 234.021723 173.856336 
L 252.607866 172.531834 
L 258.390221 172.480039 
L 264.998628 172.650089 
L 288.541075 173.484377 
L 297.627634 173.43029 
L 326.952437 173.065078 
L 377.75456 173.190362 
L 407.079363 173.196731 
L 461.185689 173.193829 
L 544.616818 173.199704 
L 544.616818 173.199704 
" style="fill:none;stroke:#ff7f0e;stroke-dasharray:3,4.95;stroke-dashoffset:0;stroke-width:3;"/>
   </g>
   <g id="line2d_14">
    <path clip-path="url(#p7cc2eec678)" d="M 111.353182 85.760799 
L 131.591426 85.760799 
L 132.004451 173.199376 
L 544.616818 173.199376 
L 544.616818 173.199376 
" style="fill:none;stroke:#2ca02c;stroke-linecap:square;stroke-width:3;"/>
   </g>
   <g id="line2d_15">
    <path clip-path="url(#p7cc2eec678)" d="M 111.353182 85.647644 
L 127.461172 85.726403 
L 131.591426 85.759112 
L 132.004451 179.42022 
L 133.656553 204.752637 
L 135.308655 226.899508 
L 136.960756 245.892245 
L 138.199832 257.892499 
L 139.438908 268.051051 
L 140.677985 276.19722 
L 141.917061 282.390924 
L 142.743112 285.438816 
L 143.569162 287.677978 
L 144.395213 289.109113 
L 144.808239 289.516705 
L 145.221264 289.719665 
L 145.634289 289.761488 
L 146.047315 289.5823 
L 146.46034 289.262478 
L 147.286391 288.017313 
L 148.112442 286.121328 
L 148.938493 283.582827 
L 149.764543 280.450638 
L 151.003619 274.716075 
L 152.242696 267.887178 
L 153.894797 257.328365 
L 155.959924 242.350293 
L 158.851102 219.350916 
L 163.807407 179.579586 
L 165.872534 164.556801 
L 167.937661 151.191484 
L 169.589762 141.96833 
L 171.241864 134.169112 
L 172.48094 129.32807 
L 173.720016 125.379431 
L 174.959092 122.333102 
L 175.785143 120.802172 
L 176.611194 119.666479 
L 177.437245 118.919184 
L 178.263295 118.551102 
L 179.089346 118.550845 
L 179.915397 118.90497 
L 180.741448 119.598139 
L 181.154473 120.066597 
L 181.567498 120.926262 
L 181.980524 121.265091 
L 183.2196 123.561439 
L 184.458676 126.447455 
L 185.697752 129.847891 
L 187.349854 135.045661 
L 189.414981 142.339714 
L 193.132209 156.576029 
L 196.849438 170.529401 
L 198.914565 177.530123 
L 200.979692 183.706593 
L 201.392717 184.827639 
L 201.805743 186.354459 
L 202.218768 186.988002 
L 203.87087 190.706572 
L 205.109946 193.023502 
L 206.349022 194.92447 
L 207.588098 196.406344 
L 208.827174 197.472129 
L 209.653225 197.955576 
L 210.479276 198.261762 
L 211.305327 198.395557 
L 212.131378 198.362731 
L 212.957428 198.169883 
L 214.196504 197.596843 
L 215.435581 196.70806 
L 216.674657 195.533991 
L 218.326758 193.58162 
L 219.97886 191.262475 
L 222.043987 187.977357 
L 225.34819 182.220735 
L 229.891469 174.341207 
L 232.369622 170.516765 
L 234.434749 167.753678 
L 236.08685 165.874363 
L 237.738952 164.317873 
L 239.391053 163.099864 
L 241.043155 162.226313 
L 242.282231 161.795612 
L 243.521307 161.552564 
L 244.760383 161.49022 
L 246.412485 161.672046 
L 248.064587 162.131519 
L 249.716688 162.836496 
L 251.781815 164.007813 
L 254.259968 165.738112 
L 257.564171 168.372862 
L 263.346526 173.029246 
L 265.824678 174.759708 
L 268.302831 176.213919 
L 270.367958 177.177681 
L 272.433085 177.897664 
L 274.498212 178.368353 
L 276.563339 178.594439 
L 278.628466 178.589681 
L 280.693593 178.375523 
L 283.171745 177.881315 
L 286.062923 177.049111 
L 289.780151 175.72506 
L 297.627634 172.8458 
L 300.931837 171.891519 
L 303.823015 171.27026 
L 306.714192 170.871348 
L 309.60537 170.696619 
L 312.496548 170.73091 
L 315.800751 170.988494 
L 319.931005 171.550942 
L 335.62597 173.988123 
L 339.756224 174.280816 
L 343.886478 174.36306 
L 348.842782 174.220618 
L 355.038163 173.799194 
L 367.84195 172.869883 
L 374.037331 172.675982 
L 380.645737 172.700937 
L 389.732296 172.985814 
L 403.362134 173.401283 
L 412.448693 173.439446 
L 426.491556 173.232269 
L 441.773496 173.083746 
L 459.533587 173.184589 
L 481.423933 173.24491 
L 537.182361 173.209861 
L 544.616818 173.210375 
L 544.616818 173.210375 
" style="fill:none;stroke:#d62728;stroke-dasharray:19.2,4.8,3,4.8;stroke-dashoffset:0;stroke-width:3;"/>
   </g>
   <g id="line2d_16">
    <path clip-path="url(#p7cc2eec678)" d="M 89.69 173.199376 
L 566.28 173.199376 
" style="fill:none;stroke:#000000;stroke-dasharray:9.25,4;stroke-dashoffset:0;stroke-width:2.5;"/>
   </g>
   <g id="patch_3">
    <path d="M 89.69 299.967273 
L 89.69 75.44 
" style="fill:none;stroke:#000000;stroke-linecap:square;stroke-linejoin:miter;stroke-width:1.875;"/>
   </g>
   <g id="patch_4">
    <path d="M 89.69 299.967273 
L 566.28 299.967273 
" style="fill:none;stroke:#000000;stroke-linecap:square;stroke-linejoin:miter;stroke-width:1.875;"/>
   </g>
   <g id="text_12">
    <!-- Growth rates -->
    <defs>
     <path d="M 59.515625 10.40625 
L 59.515625 29.984375 
L 43.40625 29.984375 
L 43.40625 38.09375 
L 69.28125 38.09375 
L 69.28125 6.78125 
Q 63.578125 2.734375 56.6875 0.65625 
Q 49.8125 -1.421875 42 -1.421875 
Q 24.90625 -1.421875 15.25 8.5625 
Q 5.609375 18.5625 5.609375 36.375 
Q 5.609375 54.25 15.25 64.234375 
Q 24.90625 74.21875 42 74.21875 
Q 49.125 74.21875 55.546875 72.453125 
Q 61.96875 70.703125 67.390625 67.28125 
L 67.390625 56.78125 
Q 61.921875 61.421875 55.765625 63.765625 
Q 49.609375 66.109375 42.828125 66.109375 
Q 29.4375 66.109375 22.71875 58.640625 
Q 16.015625 51.171875 16.015625 36.375 
Q 16.015625 21.625 22.71875 14.15625 
Q 29.4375 6.6875 42.828125 6.6875 
Q 48.046875 6.6875 52.140625 7.59375 
Q 56.25 8.5 59.515625 10.40625 
z
" id="DejaVuSans-71"/>
     <path d="M 41.109375 46.296875 
Q 39.59375 47.171875 37.8125 47.578125 
Q 36.03125 48 33.890625 48 
Q 26.265625 48 22.1875 43.046875 
Q 18.109375 38.09375 18.109375 28.8125 
L 18.109375 0 
L 9.078125 0 
L 9.078125 54.6875 
L 18.109375 54.6875 
L 18.109375 46.1875 
Q 20.953125 51.171875 25.484375 53.578125 
Q 30.03125 56 36.53125 56 
Q 37.453125 56 38.578125 55.875 
Q 39.703125 55.765625 41.0625 55.515625 
z
" id="DejaVuSans-114"/>
     <path d="M 30.609375 48.390625 
Q 23.390625 48.390625 19.1875 42.75 
Q 14.984375 37.109375 14.984375 27.296875 
Q 14.984375 17.484375 19.15625 11.84375 
Q 23.34375 6.203125 30.609375 6.203125 
Q 37.796875 6.203125 41.984375 11.859375 
Q 46.1875 17.53125 46.1875 27.296875 
Q 46.1875 37.015625 41.984375 42.703125 
Q 37.796875 48.390625 30.609375 48.390625 
z
M 30.609375 56 
Q 42.328125 56 49.015625 48.375 
Q 55.71875 40.765625 55.71875 27.296875 
Q 55.71875 13.875 49.015625 6.21875 
Q 42.328125 -1.421875 30.609375 -1.421875 
Q 18.84375 -1.421875 12.171875 6.21875 
Q 5.515625 13.875 5.515625 27.296875 
Q 5.515625 40.765625 12.171875 48.375 
Q 18.84375 56 30.609375 56 
z
" id="DejaVuSans-111"/>
     <path d="M 4.203125 54.6875 
L 13.1875 54.6875 
L 24.421875 12.015625 
L 35.59375 54.6875 
L 46.1875 54.6875 
L 57.421875 12.015625 
L 68.609375 54.6875 
L 77.59375 54.6875 
L 63.28125 0 
L 52.6875 0 
L 40.921875 44.828125 
L 29.109375 0 
L 18.5 0 
z
" id="DejaVuSans-119"/>
     <path d="M 18.3125 70.21875 
L 18.3125 54.6875 
L 36.8125 54.6875 
L 36.8125 47.703125 
L 18.3125 47.703125 
L 18.3125 18.015625 
Q 18.3125 11.328125 20.140625 9.421875 
Q 21.96875 7.515625 27.59375 7.515625 
L 36.8125 7.515625 
L 36.8125 0 
L 27.59375 0 
Q 17.1875 0 13.234375 3.875 
Q 9.28125 7.765625 9.28125 18.015625 
L 9.28125 47.703125 
L 2.6875 47.703125 
L 2.6875 54.6875 
L 9.28125 54.6875 
L 9.28125 70.21875 
z
" id="DejaVuSans-116"/>
     <path d="M 54.890625 33.015625 
L 54.890625 0 
L 45.90625 0 
L 45.90625 32.71875 
Q 45.90625 40.484375 42.875 44.328125 
Q 39.84375 48.1875 33.796875 48.1875 
Q 26.515625 48.1875 22.3125 43.546875 
Q 18.109375 38.921875 18.109375 30.90625 
L 18.109375 0 
L 9.078125 0 
L 9.078125 75.984375 
L 18.109375 75.984375 
L 18.109375 46.1875 
Q 21.34375 51.125 25.703125 53.5625 
Q 30.078125 56 35.796875 56 
Q 45.21875 56 50.046875 50.171875 
Q 54.890625 44.34375 54.890625 33.015625 
z
" id="DejaVuSans-104"/>
     <path id="DejaVuSans-32"/>
     <path d="M 34.28125 27.484375 
Q 23.390625 27.484375 19.1875 25 
Q 14.984375 22.515625 14.984375 16.5 
Q 14.984375 11.71875 18.140625 8.90625 
Q 21.296875 6.109375 26.703125 6.109375 
Q 34.1875 6.109375 38.703125 11.40625 
Q 43.21875 16.703125 43.21875 25.484375 
L 43.21875 27.484375 
z
M 52.203125 31.203125 
L 52.203125 0 
L 43.21875 0 
L 43.21875 8.296875 
Q 40.140625 3.328125 35.546875 0.953125 
Q 30.953125 -1.421875 24.3125 -1.421875 
Q 15.921875 -1.421875 10.953125 3.296875 
Q 6 8.015625 6 15.921875 
Q 6 25.140625 12.171875 29.828125 
Q 18.359375 34.515625 30.609375 34.515625 
L 43.21875 34.515625 
L 43.21875 35.40625 
Q 43.21875 41.609375 39.140625 45 
Q 35.0625 48.390625 27.6875 48.390625 
Q 23 48.390625 18.546875 47.265625 
Q 14.109375 46.140625 10.015625 43.890625 
L 10.015625 52.203125 
Q 14.9375 54.109375 19.578125 55.046875 
Q 24.21875 56 28.609375 56 
Q 40.484375 56 46.34375 49.84375 
Q 52.203125 43.703125 52.203125 31.203125 
z
" id="DejaVuSans-97"/>
     <path d="M 56.203125 29.59375 
L 56.203125 25.203125 
L 14.890625 25.203125 
Q 15.484375 15.921875 20.484375 11.0625 
Q 25.484375 6.203125 34.421875 6.203125 
Q 39.59375 6.203125 44.453125 7.46875 
Q 49.3125 8.734375 54.109375 11.28125 
L 54.109375 2.78125 
Q 49.265625 0.734375 44.1875 -0.34375 
Q 39.109375 -1.421875 33.890625 -1.421875 
Q 20.796875 -1.421875 13.15625 6.1875 
Q 5.515625 13.8125 5.515625 26.8125 
Q 5.515625 40.234375 12.765625 48.109375 
Q 20.015625 56 32.328125 56 
Q 43.359375 56 49.78125 48.890625 
Q 56.203125 41.796875 56.203125 29.59375 
z
M 47.21875 32.234375 
Q 47.125 39.59375 43.09375 43.984375 
Q 39.0625 48.390625 32.421875 48.390625 
Q 24.90625 48.390625 20.390625 44.140625 
Q 15.875 39.890625 15.1875 32.171875 
z
" id="DejaVuSans-101"/>
     <path d="M 44.28125 53.078125 
L 44.28125 44.578125 
Q 40.484375 46.53125 36.375 47.5 
Q 32.28125 48.484375 27.875 48.484375 
Q 21.1875 48.484375 17.84375 46.4375 
Q 14.5 44.390625 14.5 40.28125 
Q 14.5 37.15625 16.890625 35.375 
Q 19.28125 33.59375 26.515625 31.984375 
L 29.59375 31.296875 
Q 39.15625 29.25 43.1875 25.515625 
Q 47.21875 21.78125 47.21875 15.09375 
Q 47.21875 7.46875 41.1875 3.015625 
Q 35.15625 -1.421875 24.609375 -1.421875 
Q 20.21875 -1.421875 15.453125 -0.5625 
Q 10.6875 0.296875 5.421875 2 
L 5.421875 11.28125 
Q 10.40625 8.6875 15.234375 7.390625 
Q 20.0625 6.109375 24.8125 6.109375 
Q 31.15625 6.109375 34.5625 8.28125 
Q 37.984375 10.453125 37.984375 14.40625 
Q 37.984375 18.0625 35.515625 20.015625 
Q 33.0625 21.96875 24.703125 23.78125 
L 21.578125 24.515625 
Q 13.234375 26.265625 9.515625 29.90625 
Q 5.8125 33.546875 5.8125 39.890625 
Q 5.8125 47.609375 11.28125 51.796875 
Q 16.75 56 26.8125 56 
Q 31.78125 56 36.171875 55.265625 
Q 40.578125 54.546875 44.28125 53.078125 
z
" id="DejaVuSans-115"/>
    </defs>
    <g transform="translate(269.584844 69.44)scale(0.18 -0.18)">
     <use xlink:href="#DejaVuSans-71"/>
     <use x="77.490234" xlink:href="#DejaVuSans-114"/>
     <use x="116.353516" xlink:href="#DejaVuSans-111"/>
     <use x="177.535156" xlink:href="#DejaVuSans-119"/>
     <use x="259.322266" xlink:href="#DejaVuSans-116"/>
     <use x="298.53125" xlink:href="#DejaVuSans-104"/>
     <use x="361.910156" xlink:href="#DejaVuSans-32"/>
     <use x="393.697266" xlink:href="#DejaVuSans-114"/>
     <use x="434.810547" xlink:href="#DejaVuSans-97"/>
     <use x="496.089844" xlink:href="#DejaVuSans-116"/>
     <use x="535.298828" xlink:href="#DejaVuSans-101"/>
     <use x="596.822266" xlink:href="#DejaVuSans-115"/>
    </g>
   </g>
   <g id="legend_1">
    <g id="patch_5">
     <path d="M 252.1875 377.076722 
L 407.7825 377.076722 
Q 411.0825 377.076722 411.0825 373.776722 
L 411.0825 326.988909 
Q 411.0825 323.688909 407.7825 323.688909 
L 252.1875 323.688909 
Q 248.8875 323.688909 248.8875 326.988909 
L 248.8875 373.776722 
Q 248.8875 377.076722 252.1875 377.076722 
z
" style="fill:#4c4c4c;opacity:0.5;stroke:#4c4c4c;stroke-linejoin:miter;stroke-width:1.5;"/>
    </g>
    <g id="patch_6">
     <path d="M 250.1875 375.076722 
L 405.7825 375.076722 
Q 409.0825 375.076722 409.0825 371.776722 
L 409.0825 324.988909 
Q 409.0825 321.688909 405.7825 321.688909 
L 250.1875 321.688909 
Q 246.8875 321.688909 246.8875 324.988909 
L 246.8875 371.776722 
Q 246.8875 375.076722 250.1875 375.076722 
z
" style="fill:#ffffff;stroke:#cccccc;stroke-linejoin:miter;stroke-width:1.5;"/>
    </g>
    <g id="line2d_17">
     <path d="M 253.4875 335.051331 
L 286.4875 335.051331 
" style="fill:none;stroke:#1f77b4;stroke-dasharray:11.1,4.8;stroke-dashoffset:0;stroke-width:3;"/>
    </g>
    <g id="line2d_18"/>
    <g id="text_13">
     <!-- $Y$ -->
     <defs>
      <path d="M 6.296875 72.90625 
L 16.890625 72.90625 
L 30.515625 42.921875 
L 56.5 72.90625 
L 67.578125 72.90625 
L 34.515625 34.71875 
L 27.78125 0 
L 17.921875 0 
L 24.609375 34.71875 
z
" id="DejaVuSans-Oblique-89"/>
     </defs>
     <g transform="translate(299.6875 340.826331)scale(0.165 -0.165)">
      <use transform="translate(0 0.09375)" xlink:href="#DejaVuSans-Oblique-89"/>
     </g>
    </g>
    <g id="line2d_19">
     <path d="M 253.4875 359.270237 
L 286.4875 359.270237 
" style="fill:none;stroke:#ff7f0e;stroke-dasharray:3,4.95;stroke-dashoffset:0;stroke-width:3;"/>
    </g>
    <g id="line2d_20"/>
    <g id="text_14">
     <!-- $K$ -->
     <defs>
      <path d="M 16.890625 72.90625 
L 26.8125 72.90625 
L 20.796875 42.1875 
L 59.078125 72.90625 
L 72.21875 72.90625 
L 28.90625 38.09375 
L 60.59375 0 
L 48.578125 0 
L 19.484375 35.5 
L 12.59375 0 
L 2.6875 0 
z
" id="DejaVuSans-Oblique-75"/>
     </defs>
     <g transform="translate(299.6875 365.045237)scale(0.165 -0.165)">
      <use transform="translate(0 0.09375)" xlink:href="#DejaVuSans-Oblique-75"/>
     </g>
    </g>
    <g id="line2d_21">
     <path d="M 343.5775 335.051331 
L 376.5775 335.051331 
" style="fill:none;stroke:#2ca02c;stroke-linecap:square;stroke-width:3;"/>
    </g>
    <g id="line2d_22"/>
    <g id="text_15">
     <!-- $I_h$ -->
     <defs>
      <path d="M 16.890625 72.90625 
L 26.8125 72.90625 
L 12.59375 0 
L 2.6875 0 
z
" id="DejaVuSans-Oblique-73"/>
      <path d="M 55.71875 33.015625 
L 49.3125 0 
L 40.28125 0 
L 46.6875 32.671875 
Q 47.125 34.96875 47.359375 36.71875 
Q 47.609375 38.484375 47.609375 39.5 
Q 47.609375 43.609375 45.015625 45.890625 
Q 42.4375 48.1875 37.796875 48.1875 
Q 30.5625 48.1875 25.265625 43.296875 
Q 19.96875 38.421875 18.40625 30.328125 
L 12.5 0 
L 3.515625 0 
L 18.3125 75.984375 
L 27.296875 75.984375 
L 21.484375 46.09375 
Q 24.90625 50.6875 30.21875 53.34375 
Q 35.546875 56 41.40625 56 
Q 48.640625 56 52.609375 52.09375 
Q 56.59375 48.1875 56.59375 41.109375 
Q 56.59375 39.359375 56.375 37.359375 
Q 56.15625 35.359375 55.71875 33.015625 
z
" id="DejaVuSans-Oblique-104"/>
     </defs>
     <g transform="translate(389.7775 340.826331)scale(0.165 -0.165)">
      <use transform="translate(0 0.09375)" xlink:href="#DejaVuSans-Oblique-73"/>
      <use transform="translate(29.492188 -16.3125)scale(0.7)" xlink:href="#DejaVuSans-Oblique-104"/>
     </g>
    </g>
    <g id="line2d_23">
     <path d="M 343.5775 359.270237 
L 376.5775 359.270237 
" style="fill:none;stroke:#d62728;stroke-dasharray:19.2,4.8,3,4.8;stroke-dashoffset:0;stroke-width:3;"/>
    </g>
    <g id="line2d_24"/>
    <g id="text_16">
     <!-- $I_f$ -->
     <defs>
      <path d="M 47.796875 75.984375 
L 46.390625 68.5 
L 37.796875 68.5 
Q 32.90625 68.5 30.6875 66.578125 
Q 28.46875 64.65625 27.390625 59.515625 
L 26.421875 54.6875 
L 41.21875 54.6875 
L 39.890625 47.703125 
L 25.09375 47.703125 
L 15.828125 0 
L 6.78125 0 
L 16.109375 47.703125 
L 7.515625 47.703125 
L 8.796875 54.6875 
L 17.390625 54.6875 
L 18.109375 58.5 
Q 19.96875 68.171875 24.625 72.078125 
Q 29.296875 75.984375 39.3125 75.984375 
z
" id="DejaVuSans-Oblique-102"/>
     </defs>
     <g transform="translate(389.7775 365.045237)scale(0.165 -0.165)">
      <use transform="translate(0 0.09375)" xlink:href="#DejaVuSans-Oblique-73"/>
      <use transform="translate(29.492188 -16.3125)scale(0.7)" xlink:href="#DejaVuSans-Oblique-102"/>
     </g>
    </g>
   </g>
  </g>
  <g id="axes_2">
   <g id="patch_7">
    <path d="M 655.97 299.967273 
L 1132.56 299.967273 
L 1132.56 75.44 
L 655.97 75.44 
z
" style="fill:#ffffff;"/>
   </g>
   <g id="matplotlib.axis_3">
    <g id="xtick_7">
     <g id="line2d_25">
      <g>
       <use style="stroke:#000000;stroke-width:1.875;" x="677.633182" xlink:href="#mfa4f920c8f" y="299.967273"/>
      </g>
     </g>
     <g id="text_17">
      <!-- 0 -->
      <g transform="translate(672.384119 325.004695)scale(0.165 -0.165)">
       <use xlink:href="#DejaVuSans-48"/>
      </g>
     </g>
    </g>
    <g id="xtick_8">
     <g id="line2d_26">
      <g>
       <use style="stroke:#000000;stroke-width:1.875;" x="760.159589" xlink:href="#mfa4f920c8f" y="299.967273"/>
      </g>
     </g>
     <g id="text_18">
      <!-- 200 -->
      <g transform="translate(744.412401 325.004695)scale(0.165 -0.165)">
       <use xlink:href="#DejaVuSans-50"/>
       <use x="63.623047" xlink:href="#DejaVuSans-48"/>
       <use x="127.246094" xlink:href="#DejaVuSans-48"/>
      </g>
     </g>
    </g>
    <g id="xtick_9">
     <g id="line2d_27">
      <g>
       <use style="stroke:#000000;stroke-width:1.875;" x="842.685996" xlink:href="#mfa4f920c8f" y="299.967273"/>
      </g>
     </g>
     <g id="text_19">
      <!-- 400 -->
      <g transform="translate(826.938808 325.004695)scale(0.165 -0.165)">
       <use xlink:href="#DejaVuSans-52"/>
       <use x="63.623047" xlink:href="#DejaVuSans-48"/>
       <use x="127.246094" xlink:href="#DejaVuSans-48"/>
      </g>
     </g>
    </g>
    <g id="xtick_10">
     <g id="line2d_28">
      <g>
       <use style="stroke:#000000;stroke-width:1.875;" x="925.212403" xlink:href="#mfa4f920c8f" y="299.967273"/>
      </g>
     </g>
     <g id="text_20">
      <!-- 600 -->
      <g transform="translate(909.465215 325.004695)scale(0.165 -0.165)">
       <use xlink:href="#DejaVuSans-54"/>
       <use x="63.623047" xlink:href="#DejaVuSans-48"/>
       <use x="127.246094" xlink:href="#DejaVuSans-48"/>
      </g>
     </g>
    </g>
    <g id="xtick_11">
     <g id="line2d_29">
      <g>
       <use style="stroke:#000000;stroke-width:1.875;" x="1007.73881" xlink:href="#mfa4f920c8f" y="299.967273"/>
      </g>
     </g>
     <g id="text_21">
      <!-- 800 -->
      <g transform="translate(991.991622 325.004695)scale(0.165 -0.165)">
       <use xlink:href="#DejaVuSans-56"/>
       <use x="63.623047" xlink:href="#DejaVuSans-48"/>
       <use x="127.246094" xlink:href="#DejaVuSans-48"/>
      </g>
     </g>
    </g>
    <g id="xtick_12">
     <g id="line2d_30">
      <g>
       <use style="stroke:#000000;stroke-width:1.875;" x="1090.265216" xlink:href="#mfa4f920c8f" y="299.967273"/>
      </g>
     </g>
     <g id="text_22">
      <!-- 1000 -->
      <g transform="translate(1069.268966 325.004695)scale(0.165 -0.165)">
       <use xlink:href="#DejaVuSans-49"/>
       <use x="63.623047" xlink:href="#DejaVuSans-48"/>
       <use x="127.246094" xlink:href="#DejaVuSans-48"/>
       <use x="190.869141" xlink:href="#DejaVuSans-48"/>
      </g>
     </g>
    </g>
   </g>
   <g id="matplotlib.axis_4">
    <g id="ytick_6">
     <g id="line2d_31">
      <g>
       <use style="stroke:#000000;stroke-width:1.875;" x="655.97" xlink:href="#m4e5fe9d928" y="289.90237"/>
      </g>
     </g>
     <g id="text_23">
      <!-- 0.7140 -->
      <defs>
       <path d="M 8.203125 72.90625 
L 55.078125 72.90625 
L 55.078125 68.703125 
L 28.609375 0 
L 18.3125 0 
L 43.21875 64.59375 
L 8.203125 64.59375 
z
" id="DejaVuSans-55"/>
      </defs>
      <g transform="translate(585.735469 296.171081)scale(0.165 -0.165)">
       <use xlink:href="#DejaVuSans-48"/>
       <use x="63.623047" xlink:href="#DejaVuSans-46"/>
       <use x="95.410156" xlink:href="#DejaVuSans-55"/>
       <use x="159.033203" xlink:href="#DejaVuSans-49"/>
       <use x="222.65625" xlink:href="#DejaVuSans-52"/>
       <use x="286.279297" xlink:href="#DejaVuSans-48"/>
      </g>
     </g>
    </g>
    <g id="ytick_7">
     <g id="line2d_32">
      <g>
       <use style="stroke:#000000;stroke-width:1.875;" x="655.97" xlink:href="#m4e5fe9d928" y="243.107054"/>
      </g>
     </g>
     <g id="text_24">
      <!-- 0.7145 -->
      <g transform="translate(585.735469 249.375765)scale(0.165 -0.165)">
       <use xlink:href="#DejaVuSans-48"/>
       <use x="63.623047" xlink:href="#DejaVuSans-46"/>
       <use x="95.410156" xlink:href="#DejaVuSans-55"/>
       <use x="159.033203" xlink:href="#DejaVuSans-49"/>
       <use x="222.65625" xlink:href="#DejaVuSans-52"/>
       <use x="286.279297" xlink:href="#DejaVuSans-53"/>
      </g>
     </g>
    </g>
    <g id="ytick_8">
     <g id="line2d_33">
      <g>
       <use style="stroke:#000000;stroke-width:1.875;" x="655.97" xlink:href="#m4e5fe9d928" y="196.311739"/>
      </g>
     </g>
     <g id="text_25">
      <!-- 0.7150 -->
      <g transform="translate(585.735469 202.58045)scale(0.165 -0.165)">
       <use xlink:href="#DejaVuSans-48"/>
       <use x="63.623047" xlink:href="#DejaVuSans-46"/>
       <use x="95.410156" xlink:href="#DejaVuSans-55"/>
       <use x="159.033203" xlink:href="#DejaVuSans-49"/>
       <use x="222.65625" xlink:href="#DejaVuSans-53"/>
       <use x="286.279297" xlink:href="#DejaVuSans-48"/>
      </g>
     </g>
    </g>
    <g id="ytick_9">
     <g id="line2d_34">
      <g>
       <use style="stroke:#000000;stroke-width:1.875;" x="655.97" xlink:href="#m4e5fe9d928" y="149.516424"/>
      </g>
     </g>
     <g id="text_26">
      <!-- 0.7155 -->
      <g transform="translate(585.735469 155.785134)scale(0.165 -0.165)">
       <use xlink:href="#DejaVuSans-48"/>
       <use x="63.623047" xlink:href="#DejaVuSans-46"/>
       <use x="95.410156" xlink:href="#DejaVuSans-55"/>
       <use x="159.033203" xlink:href="#DejaVuSans-49"/>
       <use x="222.65625" xlink:href="#DejaVuSans-53"/>
       <use x="286.279297" xlink:href="#DejaVuSans-53"/>
      </g>
     </g>
    </g>
    <g id="ytick_10">
     <g id="line2d_35">
      <g>
       <use style="stroke:#000000;stroke-width:1.875;" x="655.97" xlink:href="#m4e5fe9d928" y="102.721108"/>
      </g>
     </g>
     <g id="text_27">
      <!-- 0.7160 -->
      <g transform="translate(585.735469 108.989819)scale(0.165 -0.165)">
       <use xlink:href="#DejaVuSans-48"/>
       <use x="63.623047" xlink:href="#DejaVuSans-46"/>
       <use x="95.410156" xlink:href="#DejaVuSans-55"/>
       <use x="159.033203" xlink:href="#DejaVuSans-49"/>
       <use x="222.65625" xlink:href="#DejaVuSans-54"/>
       <use x="286.279297" xlink:href="#DejaVuSans-48"/>
      </g>
     </g>
    </g>
   </g>
   <g id="line2d_36">
    <path clip-path="url(#p40bf301a56)" d="M 677.633182 289.630238 
L 698.264784 289.761488 
L 698.677416 289.629801 
L 699.090048 289.186937 
L 699.50268 288.491533 
L 700.327944 286.44457 
L 701.153208 283.565837 
L 701.978472 279.910287 
L 703.216368 273.118046 
L 704.454264 264.895618 
L 706.104792 252.121194 
L 708.167952 233.947192 
L 711.056377 206.113611 
L 715.595329 162.190316 
L 717.658489 144.009536 
L 719.721649 127.761821 
L 721.372177 116.46222 
L 723.022706 106.803392 
L 724.260602 100.739584 
L 725.498498 95.700447 
L 726.736394 91.697002 
L 727.97429 88.68633 
L 729.212186 86.731962 
L 730.03745 85.978474 
L 730.862714 85.652561 
L 731.687978 85.740658 
L 732.513242 86.227222 
L 733.338506 87.094872 
L 734.163771 88.324541 
L 735.401667 90.746258 
L 736.639563 93.914821 
L 737.877459 97.695451 
L 739.527987 103.540689 
L 741.591147 111.843709 
L 744.479571 124.579455 
L 749.018524 144.698036 
L 751.494316 154.650287 
L 753.557476 161.911833 
L 755.208004 166.895121 
L 756.858532 171.062191 
L 758.096429 173.622378 
L 759.334325 175.68599 
L 760.572221 177.250731 
L 761.397485 178.019049 
L 762.222749 178.571172 
L 763.048013 178.911747 
L 763.873277 179.046653 
L 764.698541 178.982914 
L 765.523805 178.7286 
L 766.349069 178.292734 
L 767.586965 177.320325 
L 768.412229 176.360471 
L 769.650126 174.822615 
L 771.300654 172.339885 
L 772.951182 169.456392 
L 775.426974 164.606644 
L 783.679615 147.850808 
L 785.742775 144.348069 
L 787.393303 141.908423 
L 789.043831 139.831409 
L 790.694359 138.14182 
L 791.932255 137.137324 
L 793.170152 136.360064 
L 794.408048 135.808331 
L 795.645944 135.477343 
L 796.88384 135.359478 
L 798.121736 135.444536 
L 799.359632 135.720018 
L 801.01016 136.358239 
L 802.660688 137.270139 
L 804.723848 138.729252 
L 807.199641 140.830004 
L 810.913329 144.367437 
L 815.452281 148.664302 
L 817.928074 150.735794 
L 819.991234 152.224305 
L 822.054394 153.45525 
L 824.117554 154.404033 
L 826.180714 155.059397 
L 827.831242 155.372912 
L 829.894403 155.511096 
L 831.957563 155.387108 
L 834.020723 155.029971 
L 836.496515 154.343937 
L 839.384939 153.276938 
L 843.51126 151.476864 
L 849.288108 148.969566 
L 852.589165 147.790044 
L 855.477589 146.999588 
L 858.366013 146.467119 
L 860.841805 146.222043 
L 863.730229 146.171907 
L 866.618654 146.348135 
L 869.91971 146.772881 
L 874.458662 147.611077 
L 884.774463 149.620299 
L 888.900784 150.151847 
L 892.614472 150.42106 
L 896.740792 150.486615 
L 901.279745 150.315242 
L 907.056593 149.852869 
L 919.848186 148.748496 
L 925.625035 148.516458 
L 931.401883 148.504897 
L 938.82926 148.730645 
L 956.985069 149.381087 
L 965.650342 149.394596 
L 979.679831 149.140143 
L 993.296688 148.985111 
L 1008.151442 149.068736 
L 1030.846203 149.180618 
L 1110.896818 149.121776 
L 1110.896818 149.121776 
" style="fill:none;stroke:#8b0000;stroke-linecap:square;stroke-width:3;"/>
   </g>
   <g id="patch_8">
    <path d="M 655.97 299.967273 
L 655.97 75.44 
" style="fill:none;stroke:#000000;stroke-linecap:square;stroke-linejoin:miter;stroke-width:1.875;"/>
   </g>
   <g id="patch_9">
    <path d="M 655.97 299.967273 
L 1132.56 299.967273 
" style="fill:none;stroke:#000000;stroke-linecap:square;stroke-linejoin:miter;stroke-width:1.875;"/>
   </g>
   <g id="text_28">
    <!-- Autonomous expenditures share on GDP -->
    <defs>
     <path d="M 34.1875 63.1875 
L 20.796875 26.90625 
L 47.609375 26.90625 
z
M 28.609375 72.90625 
L 39.796875 72.90625 
L 67.578125 0 
L 57.328125 0 
L 50.6875 18.703125 
L 17.828125 18.703125 
L 11.1875 0 
L 0.78125 0 
z
" id="DejaVuSans-65"/>
     <path d="M 8.5 21.578125 
L 8.5 54.6875 
L 17.484375 54.6875 
L 17.484375 21.921875 
Q 17.484375 14.15625 20.5 10.265625 
Q 23.53125 6.390625 29.59375 6.390625 
Q 36.859375 6.390625 41.078125 11.03125 
Q 45.3125 15.671875 45.3125 23.6875 
L 45.3125 54.6875 
L 54.296875 54.6875 
L 54.296875 0 
L 45.3125 0 
L 45.3125 8.40625 
Q 42.046875 3.421875 37.71875 1 
Q 33.40625 -1.421875 27.6875 -1.421875 
Q 18.265625 -1.421875 13.375 4.4375 
Q 8.5 10.296875 8.5 21.578125 
z
M 31.109375 56 
z
" id="DejaVuSans-117"/>
     <path d="M 54.890625 33.015625 
L 54.890625 0 
L 45.90625 0 
L 45.90625 32.71875 
Q 45.90625 40.484375 42.875 44.328125 
Q 39.84375 48.1875 33.796875 48.1875 
Q 26.515625 48.1875 22.3125 43.546875 
Q 18.109375 38.921875 18.109375 30.90625 
L 18.109375 0 
L 9.078125 0 
L 9.078125 54.6875 
L 18.109375 54.6875 
L 18.109375 46.1875 
Q 21.34375 51.125 25.703125 53.5625 
Q 30.078125 56 35.796875 56 
Q 45.21875 56 50.046875 50.171875 
Q 54.890625 44.34375 54.890625 33.015625 
z
" id="DejaVuSans-110"/>
     <path d="M 52 44.1875 
Q 55.375 50.25 60.0625 53.125 
Q 64.75 56 71.09375 56 
Q 79.640625 56 84.28125 50.015625 
Q 88.921875 44.046875 88.921875 33.015625 
L 88.921875 0 
L 79.890625 0 
L 79.890625 32.71875 
Q 79.890625 40.578125 77.09375 44.375 
Q 74.3125 48.1875 68.609375 48.1875 
Q 61.625 48.1875 57.5625 43.546875 
Q 53.515625 38.921875 53.515625 30.90625 
L 53.515625 0 
L 44.484375 0 
L 44.484375 32.71875 
Q 44.484375 40.625 41.703125 44.40625 
Q 38.921875 48.1875 33.109375 48.1875 
Q 26.21875 48.1875 22.15625 43.53125 
Q 18.109375 38.875 18.109375 30.90625 
L 18.109375 0 
L 9.078125 0 
L 9.078125 54.6875 
L 18.109375 54.6875 
L 18.109375 46.1875 
Q 21.1875 51.21875 25.484375 53.609375 
Q 29.78125 56 35.6875 56 
Q 41.65625 56 45.828125 52.96875 
Q 50 49.953125 52 44.1875 
z
" id="DejaVuSans-109"/>
     <path d="M 54.890625 54.6875 
L 35.109375 28.078125 
L 55.90625 0 
L 45.3125 0 
L 29.390625 21.484375 
L 13.484375 0 
L 2.875 0 
L 24.125 28.609375 
L 4.6875 54.6875 
L 15.28125 54.6875 
L 29.78125 35.203125 
L 44.28125 54.6875 
z
" id="DejaVuSans-120"/>
     <path d="M 18.109375 8.203125 
L 18.109375 -20.796875 
L 9.078125 -20.796875 
L 9.078125 54.6875 
L 18.109375 54.6875 
L 18.109375 46.390625 
Q 20.953125 51.265625 25.265625 53.625 
Q 29.59375 56 35.59375 56 
Q 45.5625 56 51.78125 48.09375 
Q 58.015625 40.1875 58.015625 27.296875 
Q 58.015625 14.40625 51.78125 6.484375 
Q 45.5625 -1.421875 35.59375 -1.421875 
Q 29.59375 -1.421875 25.265625 0.953125 
Q 20.953125 3.328125 18.109375 8.203125 
z
M 48.6875 27.296875 
Q 48.6875 37.203125 44.609375 42.84375 
Q 40.53125 48.484375 33.40625 48.484375 
Q 26.265625 48.484375 22.1875 42.84375 
Q 18.109375 37.203125 18.109375 27.296875 
Q 18.109375 17.390625 22.1875 11.75 
Q 26.265625 6.109375 33.40625 6.109375 
Q 40.53125 6.109375 44.609375 11.75 
Q 48.6875 17.390625 48.6875 27.296875 
z
" id="DejaVuSans-112"/>
     <path d="M 45.40625 46.390625 
L 45.40625 75.984375 
L 54.390625 75.984375 
L 54.390625 0 
L 45.40625 0 
L 45.40625 8.203125 
Q 42.578125 3.328125 38.25 0.953125 
Q 33.9375 -1.421875 27.875 -1.421875 
Q 17.96875 -1.421875 11.734375 6.484375 
Q 5.515625 14.40625 5.515625 27.296875 
Q 5.515625 40.1875 11.734375 48.09375 
Q 17.96875 56 27.875 56 
Q 33.9375 56 38.25 53.625 
Q 42.578125 51.265625 45.40625 46.390625 
z
M 14.796875 27.296875 
Q 14.796875 17.390625 18.875 11.75 
Q 22.953125 6.109375 30.078125 6.109375 
Q 37.203125 6.109375 41.296875 11.75 
Q 45.40625 17.390625 45.40625 27.296875 
Q 45.40625 37.203125 41.296875 42.84375 
Q 37.203125 48.484375 30.078125 48.484375 
Q 22.953125 48.484375 18.875 42.84375 
Q 14.796875 37.203125 14.796875 27.296875 
z
" id="DejaVuSans-100"/>
     <path d="M 9.421875 54.6875 
L 18.40625 54.6875 
L 18.40625 0 
L 9.421875 0 
z
M 9.421875 75.984375 
L 18.40625 75.984375 
L 18.40625 64.59375 
L 9.421875 64.59375 
z
" id="DejaVuSans-105"/>
     <path d="M 19.671875 64.796875 
L 19.671875 8.109375 
L 31.59375 8.109375 
Q 46.6875 8.109375 53.6875 14.9375 
Q 60.6875 21.78125 60.6875 36.53125 
Q 60.6875 51.171875 53.6875 57.984375 
Q 46.6875 64.796875 31.59375 64.796875 
z
M 9.8125 72.90625 
L 30.078125 72.90625 
Q 51.265625 72.90625 61.171875 64.09375 
Q 71.09375 55.28125 71.09375 36.53125 
Q 71.09375 17.671875 61.125 8.828125 
Q 51.171875 0 30.078125 0 
L 9.8125 0 
z
" id="DejaVuSans-68"/>
     <path d="M 19.671875 64.796875 
L 19.671875 37.40625 
L 32.078125 37.40625 
Q 38.96875 37.40625 42.71875 40.96875 
Q 46.484375 44.53125 46.484375 51.125 
Q 46.484375 57.671875 42.71875 61.234375 
Q 38.96875 64.796875 32.078125 64.796875 
z
M 9.8125 72.90625 
L 32.078125 72.90625 
Q 44.34375 72.90625 50.609375 67.359375 
Q 56.890625 61.8125 56.890625 51.125 
Q 56.890625 40.328125 50.609375 34.8125 
Q 44.34375 29.296875 32.078125 29.296875 
L 19.671875 29.296875 
L 19.671875 0 
L 9.8125 0 
z
" id="DejaVuSans-80"/>
    </defs>
    <g transform="translate(711.736562 69.44)scale(0.18 -0.18)">
     <use xlink:href="#DejaVuSans-65"/>
     <use x="68.408203" xlink:href="#DejaVuSans-117"/>
     <use x="131.787109" xlink:href="#DejaVuSans-116"/>
     <use x="170.996094" xlink:href="#DejaVuSans-111"/>
     <use x="232.177734" xlink:href="#DejaVuSans-110"/>
     <use x="295.556641" xlink:href="#DejaVuSans-111"/>
     <use x="356.738281" xlink:href="#DejaVuSans-109"/>
     <use x="454.150391" xlink:href="#DejaVuSans-111"/>
     <use x="515.332031" xlink:href="#DejaVuSans-117"/>
     <use x="578.710938" xlink:href="#DejaVuSans-115"/>
     <use x="630.810547" xlink:href="#DejaVuSans-32"/>
     <use x="662.597656" xlink:href="#DejaVuSans-101"/>
     <use x="722.371094" xlink:href="#DejaVuSans-120"/>
     <use x="781.550781" xlink:href="#DejaVuSans-112"/>
     <use x="845.027344" xlink:href="#DejaVuSans-101"/>
     <use x="906.550781" xlink:href="#DejaVuSans-110"/>
     <use x="969.929688" xlink:href="#DejaVuSans-100"/>
     <use x="1033.40625" xlink:href="#DejaVuSans-105"/>
     <use x="1061.189453" xlink:href="#DejaVuSans-116"/>
     <use x="1100.398438" xlink:href="#DejaVuSans-117"/>
     <use x="1163.777344" xlink:href="#DejaVuSans-114"/>
     <use x="1202.640625" xlink:href="#DejaVuSans-101"/>
     <use x="1264.164062" xlink:href="#DejaVuSans-115"/>
     <use x="1316.263672" xlink:href="#DejaVuSans-32"/>
     <use x="1348.050781" xlink:href="#DejaVuSans-115"/>
     <use x="1400.150391" xlink:href="#DejaVuSans-104"/>
     <use x="1463.529297" xlink:href="#DejaVuSans-97"/>
     <use x="1524.808594" xlink:href="#DejaVuSans-114"/>
     <use x="1563.671875" xlink:href="#DejaVuSans-101"/>
     <use x="1625.195312" xlink:href="#DejaVuSans-32"/>
     <use x="1656.982422" xlink:href="#DejaVuSans-111"/>
     <use x="1718.164062" xlink:href="#DejaVuSans-110"/>
     <use x="1781.542969" xlink:href="#DejaVuSans-32"/>
     <use x="1813.330078" xlink:href="#DejaVuSans-71"/>
     <use x="1890.820312" xlink:href="#DejaVuSans-68"/>
     <use x="1967.822266" xlink:href="#DejaVuSans-80"/>
    </g>
   </g>
   <g id="legend_2">
    <g id="patch_10">
     <path d="M 856.335 357.348361 
L 936.195 357.348361 
Q 939.495 357.348361 939.495 354.048361 
L 939.495 331.479455 
Q 939.495 328.179455 936.195 328.179455 
L 856.335 328.179455 
Q 853.035 328.179455 853.035 331.479455 
L 853.035 354.048361 
Q 853.035 357.348361 856.335 357.348361 
z
" style="fill:#4c4c4c;opacity:0.5;stroke:#4c4c4c;stroke-linejoin:miter;stroke-width:1.5;"/>
    </g>
    <g id="patch_11">
     <path d="M 854.335 355.348361 
L 934.195 355.348361 
Q 937.495 355.348361 937.495 352.048361 
L 937.495 329.479455 
Q 937.495 326.179455 934.195 326.179455 
L 854.335 326.179455 
Q 851.035 326.179455 851.035 329.479455 
L 851.035 352.048361 
Q 851.035 355.348361 854.335 355.348361 
z
" style="fill:#ffffff;stroke:#cccccc;stroke-linejoin:miter;stroke-width:1.5;"/>
    </g>
    <g id="line2d_37">
     <path d="M 857.635 339.541876 
L 890.635 339.541876 
" style="fill:none;stroke:#8b0000;stroke-linecap:square;stroke-width:3;"/>
    </g>
    <g id="line2d_38"/>
    <g id="text_29">
     <!-- $Z/Y$ -->
     <defs>
      <path d="M 13.09375 72.90625 
L 70.3125 72.90625 
L 68.890625 65.375 
L 12.40625 8.296875 
L 58.890625 8.296875 
L 57.328125 0 
L -2.203125 0 
L -0.78125 7.515625 
L 55.71875 64.59375 
L 11.53125 64.59375 
z
" id="DejaVuSans-Oblique-90"/>
      <path d="M 25.390625 72.90625 
L 33.6875 72.90625 
L 8.296875 -9.28125 
L 0 -9.28125 
z
" id="DejaVuSans-47"/>
     </defs>
     <g transform="translate(903.835 345.316876)scale(0.165 -0.165)">
      <use transform="translate(0 0.09375)" xlink:href="#DejaVuSans-Oblique-90"/>
      <use transform="translate(68.505859 0.09375)" xlink:href="#DejaVuSans-47"/>
      <use transform="translate(102.197266 0.09375)" xlink:href="#DejaVuSans-Oblique-89"/>
     </g>
    </g>
   </g>
  </g>
  <g id="axes_3">
   <g id="patch_12">
    <path d="M 89.69 648.46 
L 566.28 648.46 
L 566.28 423.932727 
L 89.69 423.932727 
z
" style="fill:#ffffff;"/>
   </g>
   <g id="matplotlib.axis_5">
    <g id="xtick_13">
     <g id="line2d_39">
      <g>
       <use style="stroke:#000000;stroke-width:1.875;" x="111.353182" xlink:href="#mfa4f920c8f" y="648.46"/>
      </g>
     </g>
     <g id="text_30">
      <!-- 0 -->
      <g transform="translate(106.104119 673.497422)scale(0.165 -0.165)">
       <use xlink:href="#DejaVuSans-48"/>
      </g>
     </g>
    </g>
    <g id="xtick_14">
     <g id="line2d_40">
      <g>
       <use style="stroke:#000000;stroke-width:1.875;" x="193.879589" xlink:href="#mfa4f920c8f" y="648.46"/>
      </g>
     </g>
     <g id="text_31">
      <!-- 200 -->
      <g transform="translate(178.132401 673.497422)scale(0.165 -0.165)">
       <use xlink:href="#DejaVuSans-50"/>
       <use x="63.623047" xlink:href="#DejaVuSans-48"/>
       <use x="127.246094" xlink:href="#DejaVuSans-48"/>
      </g>
     </g>
    </g>
    <g id="xtick_15">
     <g id="line2d_41">
      <g>
       <use style="stroke:#000000;stroke-width:1.875;" x="276.405996" xlink:href="#mfa4f920c8f" y="648.46"/>
      </g>
     </g>
     <g id="text_32">
      <!-- 400 -->
      <g transform="translate(260.658808 673.497422)scale(0.165 -0.165)">
       <use xlink:href="#DejaVuSans-52"/>
       <use x="63.623047" xlink:href="#DejaVuSans-48"/>
       <use x="127.246094" xlink:href="#DejaVuSans-48"/>
      </g>
     </g>
    </g>
    <g id="xtick_16">
     <g id="line2d_42">
      <g>
       <use style="stroke:#000000;stroke-width:1.875;" x="358.932403" xlink:href="#mfa4f920c8f" y="648.46"/>
      </g>
     </g>
     <g id="text_33">
      <!-- 600 -->
      <g transform="translate(343.185215 673.497422)scale(0.165 -0.165)">
       <use xlink:href="#DejaVuSans-54"/>
       <use x="63.623047" xlink:href="#DejaVuSans-48"/>
       <use x="127.246094" xlink:href="#DejaVuSans-48"/>
      </g>
     </g>
    </g>
    <g id="xtick_17">
     <g id="line2d_43">
      <g>
       <use style="stroke:#000000;stroke-width:1.875;" x="441.45881" xlink:href="#mfa4f920c8f" y="648.46"/>
      </g>
     </g>
     <g id="text_34">
      <!-- 800 -->
      <g transform="translate(425.711622 673.497422)scale(0.165 -0.165)">
       <use xlink:href="#DejaVuSans-56"/>
       <use x="63.623047" xlink:href="#DejaVuSans-48"/>
       <use x="127.246094" xlink:href="#DejaVuSans-48"/>
      </g>
     </g>
    </g>
    <g id="xtick_18">
     <g id="line2d_44">
      <g>
       <use style="stroke:#000000;stroke-width:1.875;" x="523.985216" xlink:href="#mfa4f920c8f" y="648.46"/>
      </g>
     </g>
     <g id="text_35">
      <!-- 1000 -->
      <g transform="translate(502.988966 673.497422)scale(0.165 -0.165)">
       <use xlink:href="#DejaVuSans-49"/>
       <use x="63.623047" xlink:href="#DejaVuSans-48"/>
       <use x="127.246094" xlink:href="#DejaVuSans-48"/>
       <use x="190.869141" xlink:href="#DejaVuSans-48"/>
      </g>
     </g>
    </g>
   </g>
   <g id="matplotlib.axis_6">
    <g id="ytick_11">
     <g id="line2d_45">
      <g>
       <use style="stroke:#000000;stroke-width:1.875;" x="89.69" xlink:href="#m4e5fe9d928" y="599.999274"/>
      </g>
     </g>
     <g id="text_36">
      <!-- 0.790 -->
      <defs>
       <path d="M 10.984375 1.515625 
L 10.984375 10.5 
Q 14.703125 8.734375 18.5 7.8125 
Q 22.3125 6.890625 25.984375 6.890625 
Q 35.75 6.890625 40.890625 13.453125 
Q 46.046875 20.015625 46.78125 33.40625 
Q 43.953125 29.203125 39.59375 26.953125 
Q 35.25 24.703125 29.984375 24.703125 
Q 19.046875 24.703125 12.671875 31.3125 
Q 6.296875 37.9375 6.296875 49.421875 
Q 6.296875 60.640625 12.9375 67.421875 
Q 19.578125 74.21875 30.609375 74.21875 
Q 43.265625 74.21875 49.921875 64.515625 
Q 56.59375 54.828125 56.59375 36.375 
Q 56.59375 19.140625 48.40625 8.859375 
Q 40.234375 -1.421875 26.421875 -1.421875 
Q 22.703125 -1.421875 18.890625 -0.6875 
Q 15.09375 0.046875 10.984375 1.515625 
z
M 30.609375 32.421875 
Q 37.25 32.421875 41.125 36.953125 
Q 45.015625 41.5 45.015625 49.421875 
Q 45.015625 57.28125 41.125 61.84375 
Q 37.25 66.40625 30.609375 66.40625 
Q 23.96875 66.40625 20.09375 61.84375 
Q 16.21875 57.28125 16.21875 49.421875 
Q 16.21875 41.5 20.09375 36.953125 
Q 23.96875 32.421875 30.609375 32.421875 
z
" id="DejaVuSans-57"/>
      </defs>
      <g transform="translate(29.953594 606.267985)scale(0.165 -0.165)">
       <use xlink:href="#DejaVuSans-48"/>
       <use x="63.623047" xlink:href="#DejaVuSans-46"/>
       <use x="95.410156" xlink:href="#DejaVuSans-55"/>
       <use x="159.033203" xlink:href="#DejaVuSans-57"/>
       <use x="222.65625" xlink:href="#DejaVuSans-48"/>
      </g>
     </g>
    </g>
    <g id="ytick_12">
     <g id="line2d_46">
      <g>
       <use style="stroke:#000000;stroke-width:1.875;" x="89.69" xlink:href="#m4e5fe9d928" y="549.687694"/>
      </g>
     </g>
     <g id="text_37">
      <!-- 0.795 -->
      <g transform="translate(29.953594 555.956405)scale(0.165 -0.165)">
       <use xlink:href="#DejaVuSans-48"/>
       <use x="63.623047" xlink:href="#DejaVuSans-46"/>
       <use x="95.410156" xlink:href="#DejaVuSans-55"/>
       <use x="159.033203" xlink:href="#DejaVuSans-57"/>
       <use x="222.65625" xlink:href="#DejaVuSans-53"/>
      </g>
     </g>
    </g>
    <g id="ytick_13">
     <g id="line2d_47">
      <g>
       <use style="stroke:#000000;stroke-width:1.875;" x="89.69" xlink:href="#m4e5fe9d928" y="499.376115"/>
      </g>
     </g>
     <g id="text_38">
      <!-- 0.800 -->
      <g transform="translate(29.953594 505.644826)scale(0.165 -0.165)">
       <use xlink:href="#DejaVuSans-48"/>
       <use x="63.623047" xlink:href="#DejaVuSans-46"/>
       <use x="95.410156" xlink:href="#DejaVuSans-56"/>
       <use x="159.033203" xlink:href="#DejaVuSans-48"/>
       <use x="222.65625" xlink:href="#DejaVuSans-48"/>
      </g>
     </g>
    </g>
    <g id="ytick_14">
     <g id="line2d_48">
      <g>
       <use style="stroke:#000000;stroke-width:1.875;" x="89.69" xlink:href="#m4e5fe9d928" y="449.064535"/>
      </g>
     </g>
     <g id="text_39">
      <!-- 0.805 -->
      <g transform="translate(29.953594 455.333246)scale(0.165 -0.165)">
       <use xlink:href="#DejaVuSans-48"/>
       <use x="63.623047" xlink:href="#DejaVuSans-46"/>
       <use x="95.410156" xlink:href="#DejaVuSans-56"/>
       <use x="159.033203" xlink:href="#DejaVuSans-48"/>
       <use x="222.65625" xlink:href="#DejaVuSans-53"/>
      </g>
     </g>
    </g>
   </g>
   <g id="line2d_49">
    <path clip-path="url(#pdcfb4d96d2)" d="M 111.353182 499.242773 
L 125.382671 499.310972 
L 131.984784 499.37411 
L 134.047944 536.923544 
L 135.698472 563.283891 
L 137.349 585.899043 
L 138.586896 600.252166 
L 139.824792 612.304731 
L 141.062688 622.022985 
L 141.887952 627.208811 
L 142.713216 631.377055 
L 143.538481 634.539606 
L 144.363745 636.722574 
L 144.776377 637.454857 
L 145.189009 637.951485 
L 145.601641 638.215373 
L 146.014273 638.254215 
L 146.426905 638.068549 
L 146.839537 637.668007 
L 147.252169 637.051869 
L 148.077433 635.20653 
L 148.902697 632.571176 
L 149.727961 629.20257 
L 150.965857 622.863326 
L 152.203753 615.155487 
L 153.854281 603.041526 
L 155.917442 585.607552 
L 158.393234 562.460975 
L 164.995346 499.615424 
L 167.058506 482.415062 
L 168.709035 470.199176 
L 170.359563 459.611081 
L 171.597459 452.80017 
L 172.835355 447.026583 
L 174.073251 442.318904 
L 175.311147 438.68874 
L 176.136411 436.865532 
L 176.961675 435.514099 
L 177.786939 434.626187 
L 178.612203 434.19074 
L 179.437468 434.194074 
L 180.262732 434.62006 
L 181.087996 435.450314 
L 181.91326 436.699702 
L 182.738524 438.274288 
L 183.97642 441.261176 
L 185.214316 444.921059 
L 186.864844 450.689311 
L 188.928004 459.008903 
L 191.816429 471.92518 
L 197.180645 496.193839 
L 199.243805 504.537878 
L 201.306965 511.89978 
L 202.957494 516.997729 
L 204.608022 521.219568 
L 205.845918 523.817676 
L 207.083814 525.918085 
L 208.32171 527.519502 
L 209.146974 528.312505 
L 209.972238 528.889589 
L 210.797502 529.255384 
L 211.622766 529.415673 
L 212.44803 529.377315 
L 213.273294 529.148158 
L 214.098558 528.73695 
L 215.336455 527.799902 
L 216.574351 526.510125 
L 217.812247 524.905781 
L 219.462775 522.34744 
L 221.525935 518.616841 
L 224.001727 513.621995 
L 231.016472 499.154277 
L 233.079632 495.477095 
L 235.142792 492.286425 
L 236.79332 490.13908 
L 238.443848 488.382609 
L 239.681745 487.331664 
L 240.919641 486.512057 
L 242.157537 485.922715 
L 243.395433 485.559304 
L 244.633329 485.414469 
L 245.871225 485.478109 
L 247.109121 485.737667 
L 248.759649 486.362852 
L 250.410177 487.270369 
L 252.060706 488.416321 
L 254.123866 490.112746 
L 257.01229 492.812005 
L 264.027035 499.536616 
L 266.502827 501.550327 
L 268.565987 502.970384 
L 270.629147 504.119529 
L 272.692307 504.978042 
L 274.342835 505.450754 
L 275.993364 505.735307 
L 278.056524 505.837228 
L 280.119684 505.67825 
L 282.182844 505.288561 
L 284.658636 504.567901 
L 287.547061 503.467903 
L 292.086013 501.447209 
L 297.450229 499.115369 
L 300.751286 497.942858 
L 303.63971 497.165663 
L 306.115502 496.708389 
L 308.591294 496.449036 
L 311.479719 496.386499 
L 314.368143 496.555232 
L 317.669199 496.977234 
L 322.208152 497.820294 
L 332.936584 499.925983 
L 337.062905 500.447968 
L 340.776593 500.704857 
L 344.902913 500.755238 
L 349.441866 500.568269 
L 355.631346 500.05177 
L 367.185043 499.033645 
L 372.961892 498.777068 
L 378.73874 498.745478 
L 385.753485 498.942086 
L 405.972455 499.654374 
L 414.637727 499.641409 
L 451.361978 499.280378 
L 481.484117 499.430411 
L 531.825225 499.383268 
L 544.616818 499.389231 
L 544.616818 499.389231 
" style="fill:none;stroke:#8b0000;stroke-linecap:square;stroke-width:3;"/>
   </g>
   <g id="line2d_50">
    <path clip-path="url(#pdcfb4d96d2)" d="M 89.69 499.376115 
L 566.28 499.376115 
" style="fill:none;stroke:#808080;stroke-dasharray:8.325,3.6;stroke-dashoffset:0;stroke-width:2.25;"/>
   </g>
   <g id="patch_13">
    <path d="M 89.69 648.46 
L 89.69 423.932727 
" style="fill:none;stroke:#000000;stroke-linecap:square;stroke-linejoin:miter;stroke-width:1.875;"/>
   </g>
   <g id="patch_14">
    <path d="M 89.69 648.46 
L 566.28 648.46 
" style="fill:none;stroke:#000000;stroke-linecap:square;stroke-linejoin:miter;stroke-width:1.875;"/>
   </g>
   <g id="text_40">
    <!-- Capacity utilization ratio -->
    <defs>
     <path d="M 64.40625 67.28125 
L 64.40625 56.890625 
Q 59.421875 61.53125 53.78125 63.8125 
Q 48.140625 66.109375 41.796875 66.109375 
Q 29.296875 66.109375 22.65625 58.46875 
Q 16.015625 50.828125 16.015625 36.375 
Q 16.015625 21.96875 22.65625 14.328125 
Q 29.296875 6.6875 41.796875 6.6875 
Q 48.140625 6.6875 53.78125 8.984375 
Q 59.421875 11.28125 64.40625 15.921875 
L 64.40625 5.609375 
Q 59.234375 2.09375 53.4375 0.328125 
Q 47.65625 -1.421875 41.21875 -1.421875 
Q 24.65625 -1.421875 15.125 8.703125 
Q 5.609375 18.84375 5.609375 36.375 
Q 5.609375 53.953125 15.125 64.078125 
Q 24.65625 74.21875 41.21875 74.21875 
Q 47.75 74.21875 53.53125 72.484375 
Q 59.328125 70.75 64.40625 67.28125 
z
" id="DejaVuSans-67"/>
     <path d="M 48.78125 52.59375 
L 48.78125 44.1875 
Q 44.96875 46.296875 41.140625 47.34375 
Q 37.3125 48.390625 33.40625 48.390625 
Q 24.65625 48.390625 19.8125 42.84375 
Q 14.984375 37.3125 14.984375 27.296875 
Q 14.984375 17.28125 19.8125 11.734375 
Q 24.65625 6.203125 33.40625 6.203125 
Q 37.3125 6.203125 41.140625 7.25 
Q 44.96875 8.296875 48.78125 10.40625 
L 48.78125 2.09375 
Q 45.015625 0.34375 40.984375 -0.53125 
Q 36.96875 -1.421875 32.421875 -1.421875 
Q 20.0625 -1.421875 12.78125 6.34375 
Q 5.515625 14.109375 5.515625 27.296875 
Q 5.515625 40.671875 12.859375 48.328125 
Q 20.21875 56 33.015625 56 
Q 37.15625 56 41.109375 55.140625 
Q 45.0625 54.296875 48.78125 52.59375 
z
" id="DejaVuSans-99"/>
     <path d="M 32.171875 -5.078125 
Q 28.375 -14.84375 24.75 -17.8125 
Q 21.140625 -20.796875 15.09375 -20.796875 
L 7.90625 -20.796875 
L 7.90625 -13.28125 
L 13.1875 -13.28125 
Q 16.890625 -13.28125 18.9375 -11.515625 
Q 21 -9.765625 23.484375 -3.21875 
L 25.09375 0.875 
L 2.984375 54.6875 
L 12.5 54.6875 
L 29.59375 11.921875 
L 46.6875 54.6875 
L 56.203125 54.6875 
z
" id="DejaVuSans-121"/>
     <path d="M 9.421875 75.984375 
L 18.40625 75.984375 
L 18.40625 0 
L 9.421875 0 
z
" id="DejaVuSans-108"/>
     <path d="M 5.515625 54.6875 
L 48.1875 54.6875 
L 48.1875 46.484375 
L 14.40625 7.171875 
L 48.1875 7.171875 
L 48.1875 0 
L 4.296875 0 
L 4.296875 8.203125 
L 38.09375 47.515625 
L 5.515625 47.515625 
z
" id="DejaVuSans-122"/>
    </defs>
    <g transform="translate(217.969844 417.932727)scale(0.18 -0.18)">
     <use xlink:href="#DejaVuSans-67"/>
     <use x="69.824219" xlink:href="#DejaVuSans-97"/>
     <use x="131.103516" xlink:href="#DejaVuSans-112"/>
     <use x="194.580078" xlink:href="#DejaVuSans-97"/>
     <use x="255.859375" xlink:href="#DejaVuSans-99"/>
     <use x="310.839844" xlink:href="#DejaVuSans-105"/>
     <use x="338.623047" xlink:href="#DejaVuSans-116"/>
     <use x="377.832031" xlink:href="#DejaVuSans-121"/>
     <use x="437.011719" xlink:href="#DejaVuSans-32"/>
     <use x="468.798828" xlink:href="#DejaVuSans-117"/>
     <use x="532.177734" xlink:href="#DejaVuSans-116"/>
     <use x="571.386719" xlink:href="#DejaVuSans-105"/>
     <use x="599.169922" xlink:href="#DejaVuSans-108"/>
     <use x="626.953125" xlink:href="#DejaVuSans-105"/>
     <use x="654.736328" xlink:href="#DejaVuSans-122"/>
     <use x="707.226562" xlink:href="#DejaVuSans-97"/>
     <use x="768.505859" xlink:href="#DejaVuSans-116"/>
     <use x="807.714844" xlink:href="#DejaVuSans-105"/>
     <use x="835.498047" xlink:href="#DejaVuSans-111"/>
     <use x="896.679688" xlink:href="#DejaVuSans-110"/>
     <use x="960.058594" xlink:href="#DejaVuSans-32"/>
     <use x="991.845703" xlink:href="#DejaVuSans-114"/>
     <use x="1032.958984" xlink:href="#DejaVuSans-97"/>
     <use x="1094.238281" xlink:href="#DejaVuSans-116"/>
     <use x="1133.447266" xlink:href="#DejaVuSans-105"/>
     <use x="1161.230469" xlink:href="#DejaVuSans-111"/>
    </g>
   </g>
  </g>
  <g id="axes_4">
   <g id="patch_15">
    <path d="M 655.97 648.46 
L 1132.56 648.46 
L 1132.56 423.932727 
L 655.97 423.932727 
z
" style="fill:#ffffff;"/>
   </g>
   <g id="matplotlib.axis_7">
    <g id="xtick_19">
     <g id="line2d_51">
      <g>
       <use style="stroke:#000000;stroke-width:1.875;" x="677.633182" xlink:href="#mfa4f920c8f" y="648.46"/>
      </g>
     </g>
     <g id="text_41">
      <!-- 0 -->
      <g transform="translate(672.384119 673.497422)scale(0.165 -0.165)">
       <use xlink:href="#DejaVuSans-48"/>
      </g>
     </g>
    </g>
    <g id="xtick_20">
     <g id="line2d_52">
      <g>
       <use style="stroke:#000000;stroke-width:1.875;" x="760.159589" xlink:href="#mfa4f920c8f" y="648.46"/>
      </g>
     </g>
     <g id="text_42">
      <!-- 200 -->
      <g transform="translate(744.412401 673.497422)scale(0.165 -0.165)">
       <use xlink:href="#DejaVuSans-50"/>
       <use x="63.623047" xlink:href="#DejaVuSans-48"/>
       <use x="127.246094" xlink:href="#DejaVuSans-48"/>
      </g>
     </g>
    </g>
    <g id="xtick_21">
     <g id="line2d_53">
      <g>
       <use style="stroke:#000000;stroke-width:1.875;" x="842.685996" xlink:href="#mfa4f920c8f" y="648.46"/>
      </g>
     </g>
     <g id="text_43">
      <!-- 400 -->
      <g transform="translate(826.938808 673.497422)scale(0.165 -0.165)">
       <use xlink:href="#DejaVuSans-52"/>
       <use x="63.623047" xlink:href="#DejaVuSans-48"/>
       <use x="127.246094" xlink:href="#DejaVuSans-48"/>
      </g>
     </g>
    </g>
    <g id="xtick_22">
     <g id="line2d_54">
      <g>
       <use style="stroke:#000000;stroke-width:1.875;" x="925.212403" xlink:href="#mfa4f920c8f" y="648.46"/>
      </g>
     </g>
     <g id="text_44">
      <!-- 600 -->
      <g transform="translate(909.465215 673.497422)scale(0.165 -0.165)">
       <use xlink:href="#DejaVuSans-54"/>
       <use x="63.623047" xlink:href="#DejaVuSans-48"/>
       <use x="127.246094" xlink:href="#DejaVuSans-48"/>
      </g>
     </g>
    </g>
    <g id="xtick_23">
     <g id="line2d_55">
      <g>
       <use style="stroke:#000000;stroke-width:1.875;" x="1007.73881" xlink:href="#mfa4f920c8f" y="648.46"/>
      </g>
     </g>
     <g id="text_45">
      <!-- 800 -->
      <g transform="translate(991.991622 673.497422)scale(0.165 -0.165)">
       <use xlink:href="#DejaVuSans-56"/>
       <use x="63.623047" xlink:href="#DejaVuSans-48"/>
       <use x="127.246094" xlink:href="#DejaVuSans-48"/>
      </g>
     </g>
    </g>
    <g id="xtick_24">
     <g id="line2d_56">
      <g>
       <use style="stroke:#000000;stroke-width:1.875;" x="1090.265216" xlink:href="#mfa4f920c8f" y="648.46"/>
      </g>
     </g>
     <g id="text_46">
      <!-- 1000 -->
      <g transform="translate(1069.268966 673.497422)scale(0.165 -0.165)">
       <use xlink:href="#DejaVuSans-49"/>
       <use x="63.623047" xlink:href="#DejaVuSans-48"/>
       <use x="127.246094" xlink:href="#DejaVuSans-48"/>
       <use x="190.869141" xlink:href="#DejaVuSans-48"/>
      </g>
     </g>
    </g>
   </g>
   <g id="matplotlib.axis_8">
    <g id="ytick_15">
     <g id="line2d_57">
      <g>
       <use style="stroke:#000000;stroke-width:1.875;" x="655.97" xlink:href="#m4e5fe9d928" y="621.313704"/>
      </g>
     </g>
     <g id="text_47">
      <!-- 0.0340 -->
      <g transform="translate(585.735469 627.582415)scale(0.165 -0.165)">
       <use xlink:href="#DejaVuSans-48"/>
       <use x="63.623047" xlink:href="#DejaVuSans-46"/>
       <use x="95.410156" xlink:href="#DejaVuSans-48"/>
       <use x="159.033203" xlink:href="#DejaVuSans-51"/>
       <use x="222.65625" xlink:href="#DejaVuSans-52"/>
       <use x="286.279297" xlink:href="#DejaVuSans-48"/>
      </g>
     </g>
    </g>
    <g id="ytick_16">
     <g id="line2d_58">
      <g>
       <use style="stroke:#000000;stroke-width:1.875;" x="655.97" xlink:href="#m4e5fe9d928" y="574.533305"/>
      </g>
     </g>
     <g id="text_48">
      <!-- 0.0345 -->
      <g transform="translate(585.735469 580.802016)scale(0.165 -0.165)">
       <use xlink:href="#DejaVuSans-48"/>
       <use x="63.623047" xlink:href="#DejaVuSans-46"/>
       <use x="95.410156" xlink:href="#DejaVuSans-48"/>
       <use x="159.033203" xlink:href="#DejaVuSans-51"/>
       <use x="222.65625" xlink:href="#DejaVuSans-52"/>
       <use x="286.279297" xlink:href="#DejaVuSans-53"/>
      </g>
     </g>
    </g>
    <g id="ytick_17">
     <g id="line2d_59">
      <g>
       <use style="stroke:#000000;stroke-width:1.875;" x="655.97" xlink:href="#m4e5fe9d928" y="527.752906"/>
      </g>
     </g>
     <g id="text_49">
      <!-- 0.0350 -->
      <g transform="translate(585.735469 534.021617)scale(0.165 -0.165)">
       <use xlink:href="#DejaVuSans-48"/>
       <use x="63.623047" xlink:href="#DejaVuSans-46"/>
       <use x="95.410156" xlink:href="#DejaVuSans-48"/>
       <use x="159.033203" xlink:href="#DejaVuSans-51"/>
       <use x="222.65625" xlink:href="#DejaVuSans-53"/>
       <use x="286.279297" xlink:href="#DejaVuSans-48"/>
      </g>
     </g>
    </g>
    <g id="ytick_18">
     <g id="line2d_60">
      <g>
       <use style="stroke:#000000;stroke-width:1.875;" x="655.97" xlink:href="#m4e5fe9d928" y="480.972507"/>
      </g>
     </g>
     <g id="text_50">
      <!-- 0.0355 -->
      <g transform="translate(585.735469 487.241218)scale(0.165 -0.165)">
       <use xlink:href="#DejaVuSans-48"/>
       <use x="63.623047" xlink:href="#DejaVuSans-46"/>
       <use x="95.410156" xlink:href="#DejaVuSans-48"/>
       <use x="159.033203" xlink:href="#DejaVuSans-51"/>
       <use x="222.65625" xlink:href="#DejaVuSans-53"/>
       <use x="286.279297" xlink:href="#DejaVuSans-53"/>
      </g>
     </g>
    </g>
    <g id="ytick_19">
     <g id="line2d_61">
      <g>
       <use style="stroke:#000000;stroke-width:1.875;" x="655.97" xlink:href="#m4e5fe9d928" y="434.192108"/>
      </g>
     </g>
     <g id="text_51">
      <!-- 0.0360 -->
      <g transform="translate(585.735469 440.460819)scale(0.165 -0.165)">
       <use xlink:href="#DejaVuSans-48"/>
       <use x="63.623047" xlink:href="#DejaVuSans-46"/>
       <use x="95.410156" xlink:href="#DejaVuSans-48"/>
       <use x="159.033203" xlink:href="#DejaVuSans-51"/>
       <use x="222.65625" xlink:href="#DejaVuSans-54"/>
       <use x="286.279297" xlink:href="#DejaVuSans-48"/>
      </g>
     </g>
    </g>
   </g>
   <g id="line2d_62">
    <path clip-path="url(#p9d5cd9e1c5)" d="M 677.633182 434.269721 
L 698.264784 434.138512 
L 698.677416 434.374865 
L 699.090048 434.843313 
L 699.50268 435.5385 
L 700.327944 437.58482 
L 701.153208 440.462647 
L 701.978472 444.117045 
L 703.216368 450.926322 
L 704.454264 459.146148 
L 706.104792 471.929941 
L 708.167952 490.118722 
L 711.056377 517.946658 
L 715.595329 561.832283 
L 718.071121 583.408907 
L 720.134281 599.190256 
L 721.78481 610.081759 
L 723.435338 619.275249 
L 724.673234 624.997826 
L 725.91113 629.69076 
L 727.149026 633.347843 
L 727.97429 635.214635 
L 728.799554 636.627828 
L 729.624818 637.599209 
L 730.450082 638.137169 
L 731.275346 638.254215 
L 732.10061 637.964911 
L 732.925874 637.285732 
L 733.751139 636.234916 
L 734.576403 634.832308 
L 735.814299 632.117112 
L 737.052195 628.736347 
L 738.290091 624.771673 
L 739.940619 618.726759 
L 742.003779 610.249518 
L 745.304835 595.539544 
L 749.431156 577.350313 
L 751.494316 569.136294 
L 753.557476 561.876981 
L 755.208004 556.895228 
L 756.858532 552.729442 
L 758.096429 550.170046 
L 759.334325 548.107072 
L 760.572221 546.542816 
L 761.397485 545.774738 
L 762.222749 545.222787 
L 763.048013 544.88232 
L 763.873277 544.747458 
L 764.698541 544.811181 
L 765.523805 545.06542 
L 766.349069 545.501155 
L 767.586965 546.47327 
L 768.824861 547.797912 
L 770.062758 549.434109 
L 771.713286 552.025908 
L 773.776446 555.780545 
L 776.66487 561.635953 
L 782.441719 573.514585 
L 784.504879 577.276587 
L 786.568039 580.584912 
L 788.218567 582.846385 
L 789.869095 584.731487 
L 791.519623 586.221206 
L 792.757519 587.073919 
L 793.995416 587.700252 
L 795.233312 588.103984 
L 796.471208 588.291818 
L 797.709104 588.273123 
L 798.947 588.059659 
L 800.597528 587.496286 
L 802.248056 586.649171 
L 803.898584 585.56032 
L 805.961745 583.928056 
L 808.850169 581.300496 
L 816.690177 573.937416 
L 819.16597 572.014405 
L 821.22913 570.677127 
L 823.29229 569.613717 
L 825.35545 568.840697 
L 827.005978 568.434187 
L 828.656506 568.212361 
L 830.719667 568.182045 
L 832.782827 568.403117 
L 834.845987 568.843743 
L 837.321779 569.609247 
L 840.210203 570.738103 
L 846.399684 573.491079 
L 850.526004 575.174591 
L 853.414429 576.13197 
L 856.302853 576.850537 
L 858.778645 577.258013 
L 861.254437 577.470972 
L 864.142861 577.486669 
L 867.031286 577.281311 
L 870.332342 576.831671 
L 874.871294 575.975625 
L 884.361831 574.116832 
L 888.488152 573.562556 
L 892.20184 573.270781 
L 896.32816 573.181618 
L 900.867113 573.332469 
L 906.643961 573.780611 
L 920.260818 574.947014 
L 926.037667 575.162852 
L 931.814515 575.159934 
L 939.241892 574.923571 
L 956.572437 574.296885 
L 965.23771 574.27321 
L 978.441935 574.507005 
L 992.884056 574.685583 
L 1007.73881 574.606856 
L 1030.846203 574.491028 
L 1110.896818 574.549852 
L 1110.896818 574.549852 
" style="fill:none;stroke:#8b0000;stroke-linecap:square;stroke-width:3;"/>
   </g>
   <g id="line2d_63">
    <path clip-path="url(#p9d5cd9e1c5)" d="M 655.97 434.269721 
L 1132.56 434.269721 
" style="fill:none;stroke:#808080;stroke-dasharray:8.325,3.6;stroke-dashoffset:0;stroke-width:2.25;"/>
   </g>
   <g id="patch_16">
    <path d="M 655.97 648.46 
L 655.97 423.932727 
" style="fill:none;stroke:#000000;stroke-linecap:square;stroke-linejoin:miter;stroke-width:1.875;"/>
   </g>
   <g id="patch_17">
    <path d="M 655.97 648.46 
L 1132.56 648.46 
" style="fill:none;stroke:#000000;stroke-linecap:square;stroke-linejoin:miter;stroke-width:1.875;"/>
   </g>
   <g id="text_52">
    <!-- Marginal propensity to invest -->
    <defs>
     <path d="M 9.8125 72.90625 
L 24.515625 72.90625 
L 43.109375 23.296875 
L 61.8125 72.90625 
L 76.515625 72.90625 
L 76.515625 0 
L 66.890625 0 
L 66.890625 64.015625 
L 48.09375 14.015625 
L 38.1875 14.015625 
L 19.390625 64.015625 
L 19.390625 0 
L 9.8125 0 
z
" id="DejaVuSans-77"/>
     <path d="M 45.40625 27.984375 
Q 45.40625 37.75 41.375 43.109375 
Q 37.359375 48.484375 30.078125 48.484375 
Q 22.859375 48.484375 18.828125 43.109375 
Q 14.796875 37.75 14.796875 27.984375 
Q 14.796875 18.265625 18.828125 12.890625 
Q 22.859375 7.515625 30.078125 7.515625 
Q 37.359375 7.515625 41.375 12.890625 
Q 45.40625 18.265625 45.40625 27.984375 
z
M 54.390625 6.78125 
Q 54.390625 -7.171875 48.1875 -13.984375 
Q 42 -20.796875 29.203125 -20.796875 
Q 24.46875 -20.796875 20.265625 -20.09375 
Q 16.0625 -19.390625 12.109375 -17.921875 
L 12.109375 -9.1875 
Q 16.0625 -11.328125 19.921875 -12.34375 
Q 23.78125 -13.375 27.78125 -13.375 
Q 36.625 -13.375 41.015625 -8.765625 
Q 45.40625 -4.15625 45.40625 5.171875 
L 45.40625 9.625 
Q 42.625 4.78125 38.28125 2.390625 
Q 33.9375 0 27.875 0 
Q 17.828125 0 11.671875 7.65625 
Q 5.515625 15.328125 5.515625 27.984375 
Q 5.515625 40.671875 11.671875 48.328125 
Q 17.828125 56 27.875 56 
Q 33.9375 56 38.28125 53.609375 
Q 42.625 51.21875 45.40625 46.390625 
L 45.40625 54.6875 
L 54.390625 54.6875 
z
" id="DejaVuSans-103"/>
     <path d="M 2.984375 54.6875 
L 12.5 54.6875 
L 29.59375 8.796875 
L 46.6875 54.6875 
L 56.203125 54.6875 
L 35.6875 0 
L 23.484375 0 
z
" id="DejaVuSans-118"/>
    </defs>
    <g transform="translate(762.890312 417.932727)scale(0.18 -0.18)">
     <use xlink:href="#DejaVuSans-77"/>
     <use x="86.279297" xlink:href="#DejaVuSans-97"/>
     <use x="147.558594" xlink:href="#DejaVuSans-114"/>
     <use x="186.921875" xlink:href="#DejaVuSans-103"/>
     <use x="250.398438" xlink:href="#DejaVuSans-105"/>
     <use x="278.181641" xlink:href="#DejaVuSans-110"/>
     <use x="341.560547" xlink:href="#DejaVuSans-97"/>
     <use x="402.839844" xlink:href="#DejaVuSans-108"/>
     <use x="430.623047" xlink:href="#DejaVuSans-32"/>
     <use x="462.410156" xlink:href="#DejaVuSans-112"/>
     <use x="525.886719" xlink:href="#DejaVuSans-114"/>
     <use x="564.75" xlink:href="#DejaVuSans-111"/>
     <use x="625.931641" xlink:href="#DejaVuSans-112"/>
     <use x="689.408203" xlink:href="#DejaVuSans-101"/>
     <use x="750.931641" xlink:href="#DejaVuSans-110"/>
     <use x="814.310547" xlink:href="#DejaVuSans-115"/>
     <use x="866.410156" xlink:href="#DejaVuSans-105"/>
     <use x="894.193359" xlink:href="#DejaVuSans-116"/>
     <use x="933.402344" xlink:href="#DejaVuSans-121"/>
     <use x="992.582031" xlink:href="#DejaVuSans-32"/>
     <use x="1024.369141" xlink:href="#DejaVuSans-116"/>
     <use x="1063.578125" xlink:href="#DejaVuSans-111"/>
     <use x="1124.759766" xlink:href="#DejaVuSans-32"/>
     <use x="1156.546875" xlink:href="#DejaVuSans-105"/>
     <use x="1184.330078" xlink:href="#DejaVuSans-110"/>
     <use x="1247.708984" xlink:href="#DejaVuSans-118"/>
     <use x="1306.888672" xlink:href="#DejaVuSans-101"/>
     <use x="1368.412109" xlink:href="#DejaVuSans-115"/>
     <use x="1420.511719" xlink:href="#DejaVuSans-116"/>
    </g>
   </g>
  </g>
 </g>
 <defs>
  <clipPath id="p7cc2eec678">
   <rect height="224.527273" width="476.59" x="89.69" y="75.44"/>
  </clipPath>
  <clipPath id="p40bf301a56">
   <rect height="224.527273" width="476.59" x="655.97" y="75.44"/>
  </clipPath>
  <clipPath id="pdcfb4d96d2">
   <rect height="224.527273" width="476.59" x="89.69" y="423.932727"/>
  </clipPath>
  <clipPath id="p9d5cd9e1c5">
   <rect height="224.527273" width="476.59" x="655.97" y="423.932727"/>
  </clipPath>
 </defs>
</svg>
