<?xml version="1.0" encoding="utf-8" standalone="no"?>
<!DOCTYPE svg PUBLIC "-//W3C//DTD SVG 1.1//EN"
  "http://www.w3.org/Graphics/SVG/1.1/DTD/svg11.dtd">
<!-- Created with matplotlib (https://matplotlib.org/) -->
<svg height="331.674375pt" version="1.1" viewBox="0 0 565.940625 331.674375" width="565.940625pt" xmlns="http://www.w3.org/2000/svg" xmlns:xlink="http://www.w3.org/1999/xlink">
 <defs>
  <style type="text/css">
*{stroke-linecap:butt;stroke-linejoin:round;}
  </style>
 </defs>
 <g id="figure_1">
  <g id="patch_1">
   <path d="M 0 331.674375 
L 565.940625 331.674375 
L 565.940625 0 
L 0 0 
z
" style="fill:#ffffff;"/>
  </g>
  <g id="axes_1">
   <g id="patch_2">
    <path d="M 28.942188 294.118125 
L 475.342187 294.118125 
L 475.342187 22.318125 
L 28.942188 22.318125 
z
" style="fill:#ffffff;"/>
   </g>
   <g id="line2d_1">
    <path clip-path="url(#p00e5a29d54)" d="M 49.233097 228.009796 
L 49.959068 270.730886 
L 50.68504 217.275161 
L 51.411012 259.537225 
L 52.136983 236.625044 
L 52.862955 229.082957 
L 53.588927 236.312631 
L 54.314899 256.360546 
L 55.04087 202.178283 
L 55.766842 277.272612 
L 56.492814 99.034245 
L 57.218785 258.761686 
L 57.944757 258.576 
L 58.670729 212.995182 
L 59.3967 242.438393 
L 60.122672 206.337883 
L 60.848644 239.803494 
L 61.574616 246.322877 
L 62.300587 214.582146 
L 63.026559 240.077721 
L 63.752531 228.132945 
L 64.478502 239.138465 
L 65.204474 229.893007 
L 65.930446 250.339222 
L 66.656417 235.137747 
L 67.382389 247.013607 
L 68.108361 269.459969 
L 68.834333 270.624472 
L 69.560304 119.316434 
L 70.286276 268.127348 
L 71.012248 224.597467 
L 71.738219 173.160932 
L 72.464191 180.414369 
L 73.190163 234.576165 
L 73.916134 264.485822 
L 74.642106 267.846146 
L 75.368078 245.104128 
L 76.09405 96.258851 
L 76.820021 173.925875 
L 77.545993 145.497723 
L 78.271965 231.10055 
L 78.997936 236.837656 
L 79.723908 201.28756 
L 80.44988 218.870225 
L 81.175852 213.993011 
L 81.901823 248.111349 
L 82.627795 201.487365 
L 83.353767 248.674689 
L 84.079738 204.099081 
L 84.80571 238.108667 
L 85.531682 208.262966 
L 86.257653 222.626871 
L 86.983625 218.597352 
L 87.709597 185.265391 
L 88.435569 208.146674 
L 89.16154 209.547201 
L 89.887512 272.781378 
L 90.613484 266.152972 
L 91.339455 249.309465 
L 92.065427 225.389125 
L 92.791399 238.534226 
L 93.51737 264.571369 
L 94.243342 91.522417 
L 94.969314 229.279791 
L 96.421257 267.006645 
L 97.147229 204.433469 
L 97.873201 245.148071 
L 98.599172 242.34801 
L 99.325144 242.870012 
L 100.051116 274.323846 
L 100.777087 268.972904 
L 101.503059 117.013484 
L 102.229031 227.685384 
L 102.955003 203.123317 
L 103.680974 250.239995 
L 104.406946 261.128573 
L 105.132918 223.867373 
L 105.858889 209.016654 
L 106.584861 236.811811 
L 107.310833 259.441123 
L 108.036805 178.559854 
L 108.762776 210.428556 
L 109.488748 235.241067 
L 110.21472 279.366941 
L 110.940691 189.526572 
L 111.666663 255.173624 
L 112.392635 206.530574 
L 113.118606 172.494315 
L 113.844578 248.087886 
L 114.57055 233.937839 
L 115.296522 269.726603 
L 116.022493 268.443028 
L 116.748465 235.979935 
L 117.474437 248.079182 
L 118.200408 271.224778 
L 118.92638 215.278917 
L 119.652352 216.867822 
L 120.378323 196.251539 
L 121.104295 154.76432 
L 121.830267 232.655552 
L 122.556239 267.272635 
L 123.28221 235.846187 
L 124.008182 270.222895 
L 124.734154 175.572783 
L 125.460125 185.274581 
L 126.186097 257.360772 
L 126.912069 219.283915 
L 127.63804 190.852603 
L 128.364012 251.845165 
L 129.089984 212.946121 
L 129.815956 273.144738 
L 130.541927 206.043551 
L 131.267899 182.052143 
L 131.993871 214.722858 
L 132.719842 201.78287 
L 133.445814 222.706521 
L 134.171786 117.294974 
L 134.897758 220.868308 
L 135.623729 263.44342 
L 136.349701 240.207931 
L 137.075673 224.051838 
L 137.801644 233.38673 
L 138.527616 238.342003 
L 139.253588 258.785581 
L 139.979559 241.105297 
L 140.705531 241.323385 
L 141.431503 280.406517 
L 142.157475 267.191455 
L 143.609418 212.225234 
L 144.33539 245.687782 
L 145.061361 155.474735 
L 145.787333 254.861028 
L 146.513305 260.042368 
L 147.239276 237.501757 
L 147.965248 226.182452 
L 148.69122 226.842472 
L 149.417192 239.779698 
L 150.143163 248.21141 
L 150.869135 184.895343 
L 151.595107 247.868095 
L 152.321078 238.164807 
L 153.04705 224.905393 
L 153.773022 276.546593 
L 154.498993 248.057876 
L 155.224965 254.122921 
L 155.950937 83.918885 
L 156.676909 182.08154 
L 157.40288 130.893551 
L 158.128852 159.596885 
L 158.854824 194.209585 
L 159.580795 246.488966 
L 160.306767 270.637221 
L 161.032739 130.115628 
L 161.758711 262.932198 
L 162.484682 195.740553 
L 163.210654 233.726005 
L 163.936626 247.281929 
L 164.662597 252.500986 
L 166.114541 244.704784 
L 166.840512 261.262995 
L 167.566484 199.534257 
L 168.292456 225.989678 
L 169.018428 241.733158 
L 169.744399 226.961277 
L 170.470371 260.192729 
L 171.196343 271.943769 
L 171.922314 265.039265 
L 172.648286 125.33217 
L 174.100229 270.932833 
L 174.826201 249.895611 
L 175.552173 243.626791 
L 176.278145 253.535689 
L 177.004116 247.570532 
L 177.730088 188.77062 
L 178.45606 232.722579 
L 179.182031 237.22277 
L 179.908003 272.535601 
L 180.633975 244.429736 
L 182.085918 271.504858 
L 182.81189 227.607012 
L 183.537862 270.114664 
L 184.263833 257.764715 
L 184.989805 251.986793 
L 185.715777 215.058254 
L 186.441748 213.902269 
L 187.16772 220.603331 
L 187.893692 258.035849 
L 188.619664 270.681512 
L 189.345635 249.936477 
L 190.071607 239.638823 
L 190.797579 233.48037 
L 191.52355 257.89238 
L 192.249522 277.556059 
L 192.975494 256.729423 
L 193.701465 247.081705 
L 194.427437 270.479916 
L 195.153409 249.059667 
L 195.879381 246.368489 
L 196.605352 193.305962 
L 197.331324 181.936151 
L 198.057296 235.053557 
L 198.783267 248.907459 
L 199.509239 199.461636 
L 200.235211 222.799635 
L 200.961182 173.66235 
L 201.687154 236.420521 
L 202.413126 170.503326 
L 203.139098 248.564981 
L 203.865069 258.109726 
L 204.591041 229.781897 
L 205.317013 237.645098 
L 206.042984 255.361597 
L 206.768956 215.895462 
L 207.494928 206.661882 
L 208.220899 255.074831 
L 208.946871 268.672082 
L 209.672843 234.523813 
L 210.398815 246.810713 
L 211.124786 255.666659 
L 211.850758 244.439624 
L 212.57673 227.7405 
L 213.302701 272.219604 
L 214.754645 197.981315 
L 215.480617 207.409262 
L 216.206588 265.352056 
L 216.93256 233.410514 
L 217.658532 192.924274 
L 218.384503 211.292853 
L 219.110475 202.822238 
L 219.836447 258.155275 
L 220.562418 156.176352 
L 221.28839 258.689593 
L 222.014362 196.982286 
L 222.740334 254.32639 
L 223.466305 231.891383 
L 224.192277 197.156497 
L 224.918249 199.256568 
L 225.64422 244.405002 
L 226.370192 159.207458 
L 227.096164 236.929233 
L 228.548107 252.121604 
L 229.274079 269.399865 
L 230.000051 211.563258 
L 230.726022 216.546329 
L 231.451994 230.081496 
L 232.177966 260.330518 
L 233.629909 250.034383 
L 234.355881 213.321205 
L 235.081852 246.954224 
L 235.807824 243.340104 
L 236.533796 229.341658 
L 237.259768 235.56205 
L 237.985739 238.655571 
L 238.711711 248.657904 
L 239.437683 233.564836 
L 240.163654 242.728837 
L 240.889626 232.227477 
L 241.615598 236.902151 
L 242.34157 206.39927 
L 243.067541 245.498336 
L 243.793513 246.344043 
L 244.519485 191.948931 
L 245.245456 264.499427 
L 245.971428 271.824549 
L 246.6974 248.435798 
L 247.423371 251.427433 
L 248.149343 262.450912 
L 248.875315 145.350463 
L 249.601287 268.979532 
L 250.327258 249.185727 
L 251.05323 248.553323 
L 251.779202 253.255521 
L 252.505173 213.060804 
L 253.231145 208.007134 
L 253.957117 234.190033 
L 254.683088 246.993519 
L 255.40906 255.818734 
L 256.135032 238.475202 
L 256.861004 273.779192 
L 257.586975 143.684273 
L 258.312947 207.791527 
L 259.038919 260.999937 
L 259.76489 212.831669 
L 260.490862 229.843747 
L 261.216834 242.900078 
L 261.942805 232.456506 
L 262.668777 259.329953 
L 263.394749 271.458568 
L 264.120721 268.945842 
L 264.846692 248.77597 
L 265.572664 151.622204 
L 266.298636 247.517647 
L 267.024607 235.665386 
L 267.750579 216.495474 
L 268.476551 237.677439 
L 269.202523 245.049429 
L 269.928494 227.776654 
L 270.654466 258.382459 
L 271.380438 273.890628 
L 272.106409 259.378533 
L 272.832381 273.5493 
L 273.558353 213.041006 
L 274.284324 201.124175 
L 275.010296 245.369077 
L 275.736268 199.385203 
L 276.46224 249.631156 
L 277.188211 255.500367 
L 277.914183 202.851474 
L 278.640155 204.840965 
L 279.366126 234.443697 
L 280.092098 192.262231 
L 280.81807 223.329018 
L 281.544041 131.049495 
L 282.270013 246.310565 
L 282.995985 241.866942 
L 283.721957 215.28263 
L 284.447928 242.420656 
L 285.1739 239.906991 
L 285.899872 240.464505 
L 286.625843 242.263831 
L 287.351815 229.64347 
L 288.077787 242.164056 
L 288.803758 224.22704 
L 289.52973 190.613352 
L 290.981674 275.446347 
L 291.707645 221.153785 
L 292.433617 231.720361 
L 293.159589 217.771694 
L 293.88556 229.247782 
L 294.611532 237.320669 
L 295.337504 251.135162 
L 296.063476 268.763545 
L 296.789447 244.738211 
L 297.515419 248.415097 
L 298.241391 234.166361 
L 298.967362 235.214775 
L 299.693334 224.110336 
L 300.419306 230.088447 
L 301.145277 227.850206 
L 301.871249 164.607272 
L 302.597221 236.73162 
L 303.323193 250.765431 
L 304.049164 226.799425 
L 304.775136 212.168263 
L 305.501108 166.871307 
L 306.227079 254.166517 
L 306.953051 247.55628 
L 307.679023 275.314966 
L 308.404994 194.082626 
L 309.130966 238.832796 
L 309.856938 143.175411 
L 310.58291 249.244864 
L 311.308881 219.396088 
L 312.034853 263.85806 
L 312.760825 235.328804 
L 313.486796 241.281559 
L 314.212768 205.773742 
L 314.93874 237.430591 
L 315.664711 232.217214 
L 316.390683 244.969324 
L 317.116655 235.259529 
L 317.842627 186.674479 
L 318.568598 244.078152 
L 319.29457 178.64989 
L 320.020542 267.535095 
L 320.746513 242.043515 
L 321.472485 230.604803 
L 322.198457 221.272434 
L 323.6504 256.098279 
L 324.376372 239.279312 
L 325.102344 249.044562 
L 325.828315 248.343781 
L 326.554287 257.509609 
L 327.280259 258.421624 
L 328.00623 224.422269 
L 328.732202 240.274907 
L 329.458174 230.701091 
L 330.184146 234.670559 
L 330.910117 235.617764 
L 331.636089 238.477218 
L 332.362061 231.350361 
L 333.088032 249.923037 
L 333.814004 231.695974 
L 334.539976 183.993119 
L 335.265947 245.861329 
L 335.991919 252.167731 
L 336.717891 229.436834 
L 337.443863 234.871829 
L 338.169834 232.57134 
L 338.895806 239.8734 
L 339.621778 236.392087 
L 340.347749 240.246354 
L 341.073721 240.322254 
L 341.799693 253.371703 
L 342.525664 247.497226 
L 343.251636 217.83977 
L 343.977608 245.00527 
L 344.70358 241.725962 
L 345.429551 242.048308 
L 346.155523 244.831361 
L 346.881495 224.818742 
L 347.607466 229.568833 
L 348.333438 253.492289 
L 349.05941 226.080366 
L 349.785382 247.432914 
L 350.511353 226.523948 
L 351.237325 154.132659 
L 351.963297 262.749069 
L 352.689268 225.317189 
L 353.41524 215.423977 
L 354.141212 233.623348 
L 354.867183 246.308577 
L 357.045099 229.874359 
L 357.77107 245.184427 
L 358.497042 236.335697 
L 359.223014 258.691623 
L 359.948985 228.375377 
L 361.400929 242.170575 
L 362.1269 235.257574 
L 362.852872 237.351509 
L 363.578844 226.375315 
L 364.304816 234.081465 
L 365.030787 226.364718 
L 365.756759 264.223735 
L 367.208702 185.705798 
L 367.934674 253.339913 
L 368.660646 256.993286 
L 369.386617 214.033865 
L 370.112589 246.067675 
L 370.838561 259.298542 
L 371.564533 223.170838 
L 372.290504 256.498857 
L 373.016476 144.473353 
L 373.742448 222.671988 
L 374.468419 229.322643 
L 375.194391 248.352086 
L 375.920363 244.642913 
L 376.646335 227.876944 
L 377.372306 206.648296 
L 378.098278 236.84253 
L 378.82425 218.304439 
L 379.550221 238.339674 
L 380.276193 243.191735 
L 381.002165 254.735926 
L 381.728136 245.884476 
L 382.454108 240.187644 
L 383.18008 243.919107 
L 383.906052 210.972316 
L 384.632023 187.994422 
L 385.357995 252.068689 
L 386.083967 247.026982 
L 386.809938 237.825827 
L 387.53591 224.344783 
L 388.261882 239.675666 
L 388.987853 183.810041 
L 389.713825 191.627216 
L 390.439797 225.140807 
L 391.165769 228.280776 
L 391.89174 235.345179 
L 392.617712 266.25859 
L 393.343684 169.054842 
L 394.069655 242.723266 
L 394.795627 205.767077 
L 395.521599 233.918242 
L 396.24757 220.54136 
L 396.973542 231.594535 
L 397.699514 214.567266 
L 398.425486 208.593081 
L 399.151457 237.832687 
L 399.877429 241.480549 
L 400.603401 238.532223 
L 401.329372 200.378158 
L 402.055344 183.020668 
L 402.781316 258.34773 
L 404.233259 197.461637 
L 404.959231 210.247325 
L 405.685203 212.879344 
L 406.411174 172.217241 
L 407.137146 256.671107 
L 407.863118 200.294747 
L 408.589089 244.166958 
L 409.315061 239.756548 
L 410.041033 212.729956 
L 410.767005 240.247783 
L 411.492976 226.570708 
L 412.218948 258.129167 
L 412.94492 245.426155 
L 413.670891 257.254029 
L 414.396863 238.953428 
L 415.122835 239.689681 
L 415.848806 228.110534 
L 417.30075 241.657979 
L 418.026722 242.377209 
L 418.752693 239.142293 
L 419.478665 234.855484 
L 420.204637 247.313622 
L 420.930608 235.303352 
L 421.65658 232.071672 
L 422.382552 232.409988 
L 423.108523 229.449719 
L 423.834495 255.23951 
L 424.560467 235.147832 
L 425.286439 254.858967 
L 426.01241 227.23264 
L 426.738382 247.834899 
L 427.464354 245.80702 
L 428.190325 247.361346 
L 428.916297 238.224381 
L 429.642269 236.768175 
L 430.368241 238.076846 
L 431.094212 235.720438 
L 431.820184 239.333462 
L 432.546156 211.680261 
L 433.272127 233.815757 
L 433.998099 226.403853 
L 434.724071 234.012796 
L 435.450042 226.976064 
L 436.176014 237.360662 
L 436.901986 233.841217 
L 437.627958 239.559273 
L 438.353929 240.518009 
L 439.079901 238.514386 
L 439.805873 237.768345 
L 440.531844 236.789116 
L 441.257816 234.692521 
L 441.983788 238.984145 
L 442.709759 201.404351 
L 443.435731 241.459155 
L 444.161703 220.491524 
L 444.887675 240.040863 
L 445.613646 216.032048 
L 446.339618 241.541165 
L 447.791561 237.495891 
L 448.517533 243.037487 
L 449.243505 234.339062 
L 449.969476 238.611775 
L 450.695448 233.080337 
L 451.42142 239.598924 
L 452.147392 235.355393 
L 452.873363 236.080839 
L 453.599335 239.182411 
L 454.325307 237.694579 
L 455.051278 238.512266 
L 455.051278 238.512266 
" style="fill:none;stroke:#1f77b4;stroke-linecap:square;stroke-width:1.5;"/>
   </g>
   <g id="line2d_2">
    <path clip-path="url(#p00e5a29d54)" d="M 49.233097 201.70141 
L 49.959068 272.63643 
L 50.68504 244.076976 
L 51.411012 264.710983 
L 52.136983 257.356328 
L 52.862955 214.444014 
L 53.588927 204.983254 
L 54.314899 242.49544 
L 55.04087 121.287122 
L 55.766842 248.661351 
L 56.492814 235.122921 
L 57.218785 241.979327 
L 57.944757 242.561222 
L 58.670729 224.838641 
L 59.3967 270.673382 
L 60.122672 252.478612 
L 60.848644 264.613178 
L 61.574616 279.600953 
L 62.300587 100.370379 
L 63.026559 270.573035 
L 64.478502 228.593056 
L 65.204474 264.168748 
L 65.930446 268.625136 
L 66.656417 230.747146 
L 67.382389 186.970247 
L 68.108361 248.121834 
L 68.834333 214.689779 
L 69.560304 236.507503 
L 70.286276 233.66616 
L 71.012248 229.493456 
L 71.738219 210.660072 
L 72.464191 226.710748 
L 73.190163 191.66405 
L 73.916134 270.337818 
L 74.642106 266.161519 
L 75.368078 231.125757 
L 76.09405 231.108907 
L 76.820021 208.331178 
L 77.545993 245.494641 
L 78.271965 260.934552 
L 78.997936 259.414397 
L 79.723908 250.691886 
L 80.44988 238.387927 
L 81.175852 245.414468 
L 81.901823 272.915087 
L 82.627795 215.312888 
L 83.353767 270.823876 
L 84.079738 114.74447 
L 84.80571 196.824123 
L 85.531682 201.155265 
L 86.257653 243.328708 
L 86.983625 232.332673 
L 87.709597 237.089827 
L 88.435569 149.13504 
L 89.16154 222.809254 
L 89.887512 267.010933 
L 90.613484 261.361645 
L 92.065427 237.446712 
L 92.791399 242.947309 
L 93.51737 272.115729 
L 94.243342 183.459398 
L 94.969314 218.301173 
L 95.695286 235.426368 
L 96.421257 272.00853 
L 97.147229 211.351953 
L 97.873201 209.907613 
L 98.599172 231.199493 
L 99.325144 236.528599 
L 100.051116 262.64495 
L 100.777087 274.013813 
L 101.503059 231.792218 
L 102.229031 232.044623 
L 102.955003 204.696752 
L 103.680974 88.300568 
L 104.406946 241.38191 
L 105.132918 262.821284 
L 105.858889 118.697987 
L 106.584861 225.912677 
L 107.310833 229.72674 
L 108.036805 238.567959 
L 108.762776 236.481621 
L 109.488748 236.85459 
L 110.21472 274.323876 
L 110.940691 270.081123 
L 111.666663 202.538799 
L 112.392635 150.372305 
L 113.118606 244.84775 
L 113.844578 235.858145 
L 114.57055 196.723479 
L 115.296522 269.021311 
L 116.022493 250.115874 
L 116.748465 153.594966 
L 117.474437 184.978722 
L 118.200408 259.93374 
L 118.92638 233.345991 
L 119.652352 244.612848 
L 120.378323 265.941948 
L 121.104295 181.147884 
L 121.830267 235.965971 
L 122.556239 260.670293 
L 123.28221 127.924574 
L 124.008182 259.622036 
L 124.734154 258.229212 
L 125.460125 234.31323 
L 126.186097 250.369219 
L 126.912069 222.695699 
L 127.63804 233.54208 
L 128.364012 240.437221 
L 129.089984 238.352418 
L 129.815956 267.296776 
L 130.541927 268.122666 
L 131.993871 237.631351 
L 132.719842 240.002451 
L 133.445814 227.666106 
L 134.171786 235.928987 
L 134.897758 259.394051 
L 135.623729 271.226608 
L 136.349701 243.597072 
L 137.075673 233.321271 
L 137.801644 234.337397 
L 138.527616 255.507059 
L 139.253588 253.598041 
L 139.979559 237.896804 
L 140.705531 251.181727 
L 141.431503 281.76358 
L 142.157475 272.930951 
L 142.883446 184.619862 
L 143.609418 176.73215 
L 144.33539 217.346053 
L 145.061361 216.981015 
L 145.787333 240.954173 
L 146.513305 251.121566 
L 147.239276 107.129017 
L 147.965248 234.419416 
L 148.69122 247.373217 
L 149.417192 157.339893 
L 150.143163 219.263227 
L 150.869135 237.124382 
L 151.595107 263.66034 
L 152.321078 238.163325 
L 153.04705 244.997227 
L 153.773022 274.046443 
L 154.498993 265.775326 
L 155.224965 209.24828 
L 155.950937 237.205606 
L 156.676909 213.54752 
L 157.40288 84.848056 
L 158.128852 184.446387 
L 158.854824 137.619295 
L 159.580795 227.31088 
L 160.306767 265.749624 
L 161.032739 223.781971 
L 161.758711 266.561201 
L 162.484682 226.894112 
L 163.210654 223.068764 
L 163.936626 244.03762 
L 164.662597 188.734518 
L 165.388569 254.788584 
L 166.114541 150.309163 
L 166.840512 220.615862 
L 167.566484 212.200713 
L 168.292456 184.487512 
L 169.018428 203.89095 
L 169.744399 188.036033 
L 170.470371 241.542874 
L 171.196343 272.212647 
L 171.922314 246.198752 
L 172.648286 198.924838 
L 173.374258 226.449851 
L 174.100229 248.969763 
L 174.826201 241.970538 
L 175.552173 151.451159 
L 176.278145 227.295459 
L 177.004116 217.925268 
L 177.730088 236.05429 
L 178.45606 215.783928 
L 179.182031 261.774203 
L 179.908003 242.60927 
L 180.633975 175.241211 
L 181.359946 246.499219 
L 182.085918 266.675331 
L 182.81189 227.545247 
L 183.537862 262.054041 
L 184.263833 264.259922 
L 184.989805 198.101343 
L 185.715777 226.948366 
L 186.441748 234.567079 
L 187.16772 250.286705 
L 187.893692 270.309838 
L 188.619664 257.82844 
L 189.345635 261.555356 
L 190.071607 235.932472 
L 190.797579 258.740441 
L 191.52355 249.589292 
L 192.249522 267.364368 
L 192.975494 249.34862 
L 193.701465 257.591121 
L 194.427437 259.817528 
L 195.153409 214.999489 
L 195.879381 237.638584 
L 196.605352 215.841503 
L 197.331324 222.518867 
L 198.057296 253.548132 
L 198.783267 234.882903 
L 199.509239 138.683915 
L 200.235211 263.69946 
L 200.961182 219.19067 
L 201.687154 240.393687 
L 202.413126 251.797843 
L 203.139098 252.571204 
L 203.865069 268.4098 
L 205.317013 190.956946 
L 206.042984 248.570945 
L 206.768956 157.915947 
L 207.494928 239.491559 
L 208.220899 258.625776 
L 208.946871 265.290421 
L 209.672843 240.740819 
L 210.398815 245.229346 
L 211.124786 254.366154 
L 211.850758 243.620206 
L 212.57673 253.260453 
L 213.302701 274.868808 
L 214.028673 244.427153 
L 214.754645 220.56925 
L 215.480617 269.367639 
L 216.206588 269.35432 
L 216.93256 244.503443 
L 217.658532 266.883813 
L 218.384503 243.767769 
L 219.110475 232.968893 
L 219.836447 263.825002 
L 220.562418 246.576748 
L 221.28839 273.054967 
L 222.014362 210.753539 
L 222.740334 252.728261 
L 223.466305 34.67267 
L 224.192277 210.881695 
L 224.918249 249.36334 
L 225.64422 258.828566 
L 226.370192 191.380012 
L 227.096164 169.354645 
L 227.822135 260.615575 
L 228.548107 248.88903 
L 229.274079 277.013862 
L 230.000051 246.144575 
L 230.726022 189.5868 
L 231.451994 122.278384 
L 232.177966 253.776598 
L 232.903937 255.534479 
L 233.629909 262.259309 
L 234.355881 249.650243 
L 235.081852 269.982844 
L 235.807824 243.031043 
L 236.533796 145.660641 
L 237.259768 250.79747 
L 237.985739 225.447539 
L 238.711711 249.453158 
L 239.437683 236.504263 
L 240.163654 234.233294 
L 240.889626 244.800161 
L 241.615598 237.246662 
L 242.34157 251.790379 
L 243.067541 226.860628 
L 243.793513 241.992009 
L 244.519485 246.092 
L 245.245456 216.239731 
L 245.971428 264.062892 
L 246.6974 248.586896 
L 247.423371 247.81574 
L 248.149343 264.164052 
L 248.875315 235.456991 
L 249.601287 262.616986 
L 250.327258 251.918508 
L 251.05323 256.106896 
L 251.779202 262.652884 
L 252.505173 240.916916 
L 253.231145 213.84565 
L 253.957117 221.869107 
L 254.683088 205.473588 
L 255.40906 253.492934 
L 256.135032 219.417384 
L 256.861004 272.089017 
L 257.586975 154.763101 
L 258.312947 192.487262 
L 259.038919 262.400981 
L 259.76489 206.032679 
L 260.490862 253.396246 
L 261.216834 245.009674 
L 261.942805 229.590341 
L 262.668777 244.991717 
L 263.394749 272.298052 
L 264.120721 252.086194 
L 264.846692 168.706366 
L 265.572664 235.045932 
L 266.298636 239.192975 
L 267.024607 205.53719 
L 267.750579 232.875801 
L 268.476551 246.708094 
L 269.202523 174.162739 
L 269.928494 226.448161 
L 270.654466 199.06174 
L 271.380438 266.098824 
L 272.106409 197.596654 
L 272.832381 260.590341 
L 273.558353 214.146483 
L 274.284324 208.931146 
L 275.010296 260.709404 
L 275.736268 196.342261 
L 276.46224 246.102836 
L 277.188211 248.135674 
L 277.914183 233.643162 
L 278.640155 188.104649 
L 279.366126 233.767464 
L 280.092098 158.887559 
L 280.81807 216.818883 
L 281.544041 141.56892 
L 282.270013 237.768461 
L 282.995985 238.423534 
L 283.721957 230.251895 
L 284.447928 246.455201 
L 285.1739 239.801735 
L 285.899872 250.933589 
L 286.625843 248.837229 
L 287.351815 114.643841 
L 288.077787 182.612379 
L 288.803758 134.357744 
L 289.52973 251.583746 
L 290.255702 221.850795 
L 290.981674 272.888104 
L 291.707645 202.848201 
L 292.433617 202.257743 
L 293.159589 168.716332 
L 293.88556 204.920111 
L 294.611532 173.029348 
L 295.337504 260.29752 
L 296.063476 235.778312 
L 296.789447 228.722933 
L 297.515419 251.10896 
L 298.241391 255.960559 
L 298.967362 230.740352 
L 299.693334 234.383033 
L 300.419306 239.099738 
L 301.145277 234.652292 
L 301.871249 253.986534 
L 302.597221 217.036209 
L 303.323193 258.219049 
L 304.049164 247.83898 
L 304.775136 140.44279 
L 305.501108 229.164641 
L 306.953051 238.647669 
L 307.679023 266.556505 
L 308.404994 146.592344 
L 309.130966 234.953546 
L 309.856938 221.265687 
L 310.58291 241.554621 
L 311.308881 229.15421 
L 312.034853 272.590573 
L 312.760825 272.517426 
L 313.486796 255.830819 
L 314.212768 220.749034 
L 314.93874 228.107419 
L 315.664711 270.517723 
L 316.390683 255.715634 
L 317.116655 262.164934 
L 317.842627 118.360214 
L 318.568598 242.585972 
L 319.29457 233.031211 
L 320.020542 261.732829 
L 320.746513 242.741183 
L 321.472485 244.937791 
L 322.198457 254.150639 
L 322.924429 127.327796 
L 323.6504 213.913142 
L 324.376372 268.274527 
L 325.102344 263.900299 
L 325.828315 198.161741 
L 326.554287 257.812296 
L 327.280259 258.950356 
L 328.00623 248.909489 
L 328.732202 259.168635 
L 329.458174 234.126933 
L 330.184146 251.132819 
L 330.910117 262.691646 
L 331.636089 258.82746 
L 332.362061 238.817209 
L 333.088032 238.776929 
L 333.814004 254.957105 
L 334.539976 217.889071 
L 335.265947 258.064024 
L 335.991919 273.543775 
L 336.717891 232.2968 
L 337.443863 251.087852 
L 338.169834 249.169698 
L 338.895806 221.593705 
L 339.621778 259.134942 
L 340.347749 217.260199 
L 341.073721 251.200063 
L 341.799693 246.680295 
L 342.525664 237.412072 
L 343.251636 242.830744 
L 343.977608 230.984395 
L 344.70358 239.691665 
L 345.429551 260.369799 
L 346.155523 242.577064 
L 346.881495 220.510827 
L 347.607466 234.350785 
L 348.333438 250.917496 
L 349.05941 223.149767 
L 349.785382 206.877132 
L 350.511353 235.212402 
L 351.237325 236.759467 
L 351.963297 262.132296 
L 352.689268 258.400579 
L 353.41524 144.176003 
L 354.141212 224.105433 
L 354.867183 247.6178 
L 355.593155 223.906457 
L 356.319127 226.484346 
L 357.045099 249.440481 
L 358.497042 231.022222 
L 359.223014 239.748609 
L 359.948985 206.200713 
L 360.674957 242.73567 
L 361.400929 248.160468 
L 362.1269 228.721308 
L 362.852872 255.027687 
L 363.578844 178.023921 
L 364.304816 236.930749 
L 365.030787 247.315572 
L 365.756759 270.898077 
L 366.482731 244.49792 
L 367.208702 208.900213 
L 367.934674 208.308741 
L 368.660646 261.004056 
L 369.386617 228.311482 
L 370.112589 229.174288 
L 370.838561 237.710985 
L 371.564533 185.664194 
L 372.290504 250.997662 
L 373.016476 233.972865 
L 373.742448 208.969424 
L 374.468419 262.379926 
L 375.194391 223.66306 
L 375.920363 213.237001 
L 376.646335 245.439499 
L 377.372306 208.755281 
L 378.098278 235.177188 
L 378.82425 211.94918 
L 379.550221 237.641442 
L 380.276193 244.228993 
L 381.002165 255.146177 
L 381.728136 203.653912 
L 382.454108 204.078474 
L 383.18008 224.932135 
L 383.906052 232.354481 
L 384.632023 228.893545 
L 385.357995 242.421213 
L 386.083967 227.366821 
L 386.809938 242.947258 
L 387.53591 186.283608 
L 388.261882 234.134869 
L 388.987853 206.768501 
L 389.713825 195.232421 
L 390.439797 222.978031 
L 391.165769 222.618881 
L 391.89174 202.303359 
L 392.617712 243.426167 
L 393.343684 192.654737 
L 394.069655 236.172848 
L 394.795627 208.794402 
L 395.521599 222.843046 
L 396.24757 193.02766 
L 396.973542 233.384176 
L 397.699514 232.635683 
L 398.425486 229.120751 
L 399.151457 242.980654 
L 399.877429 234.62822 
L 400.603401 244.221279 
L 401.329372 203.519074 
L 402.055344 198.234134 
L 402.781316 257.46429 
L 403.507288 185.297295 
L 404.233259 202.942249 
L 404.959231 202.082664 
L 405.685203 207.38346 
L 406.411174 177.449605 
L 407.137146 256.918107 
L 407.863118 212.118013 
L 408.589089 249.660306 
L 409.315061 245.094513 
L 410.041033 212.14179 
L 410.767005 238.706523 
L 411.492976 229.086443 
L 412.218948 259.190846 
L 412.94492 261.200578 
L 413.670891 233.33466 
L 414.396863 255.658221 
L 415.122835 236.371372 
L 415.848806 239.348094 
L 416.574778 235.717699 
L 418.026722 244.440801 
L 418.752693 244.764842 
L 419.478665 231.277199 
L 420.204637 253.450924 
L 420.930608 225.610496 
L 421.65658 232.368241 
L 422.382552 228.84549 
L 423.108523 239.727574 
L 423.834495 239.665354 
L 424.560467 235.487703 
L 425.286439 232.960643 
L 426.01241 232.589629 
L 426.738382 237.424356 
L 427.464354 238.848136 
L 428.190325 239.410027 
L 428.916297 236.752355 
L 429.642269 237.06438 
L 430.368241 240.082973 
L 431.094212 235.474634 
L 431.820184 234.953329 
L 432.546156 232.930499 
L 433.272127 237.458 
L 433.998099 238.16287 
L 434.724071 231.522179 
L 435.450042 232.299727 
L 436.176014 237.145535 
L 436.901986 227.089699 
L 437.627958 239.654912 
L 438.353929 237.727787 
L 439.079901 254.07575 
L 439.805873 235.706532 
L 440.531844 221.612161 
L 441.257816 236.330818 
L 441.983788 253.547615 
L 442.709759 231.14321 
L 443.435731 235.617269 
L 444.161703 250.492434 
L 444.887675 235.525571 
L 445.613646 233.902079 
L 446.339618 234.150021 
L 447.06559 233.943263 
L 447.791561 233.197182 
L 448.517533 244.551561 
L 449.243505 235.18731 
L 449.969476 254.606621 
L 450.695448 232.912586 
L 451.42142 225.299452 
L 452.873363 257.757239 
L 453.599335 230.072356 
L 454.325307 238.455831 
L 455.051278 234.485923 
L 455.051278 234.485923 
" style="fill:none;stroke:#ff7f0e;stroke-linecap:square;stroke-width:1.5;"/>
   </g>
   <g id="line2d_3">
    <path clip-path="url(#p00e5a29d54)" d="M 49.233097 239.097116 
L 49.959068 276.784869 
L 50.68504 254.176466 
L 51.411012 261.696646 
L 52.136983 223.142659 
L 52.862955 233.850067 
L 53.588927 115.304981 
L 54.314899 213.827023 
L 55.04087 187.413934 
L 55.766842 267.11984 
L 56.492814 229.846358 
L 57.218785 254.793612 
L 57.944757 250.300493 
L 58.670729 232.770288 
L 59.3967 273.716264 
L 60.122672 133.331848 
L 60.848644 264.562328 
L 61.574616 247.818587 
L 62.300587 211.59098 
L 63.026559 247.004704 
L 63.752531 234.175077 
L 64.478502 237.203515 
L 65.204474 223.966175 
L 65.930446 258.274375 
L 66.656417 206.641599 
L 67.382389 234.40163 
L 68.108361 269.127858 
L 68.834333 257.12335 
L 69.560304 233.156674 
L 70.286276 258.597098 
L 71.012248 267.463281 
L 71.738219 224.492641 
L 72.464191 156.015118 
L 73.190163 200.476802 
L 73.916134 271.99422 
L 74.642106 264.886703 
L 75.368078 232.697813 
L 76.09405 106.758921 
L 76.820021 233.453203 
L 77.545993 198.934597 
L 78.271965 216.294937 
L 78.997936 254.208755 
L 79.723908 226.433279 
L 80.44988 231.619392 
L 81.175852 122.750156 
L 81.901823 249.94193 
L 82.627795 242.220133 
L 83.353767 242.342756 
L 84.079738 249.249008 
L 84.80571 241.793473 
L 85.531682 246.843476 
L 86.257653 200.667164 
L 86.983625 181.647524 
L 87.709597 201.461874 
L 88.435569 229.426222 
L 89.16154 184.425648 
L 89.887512 251.046015 
L 90.613484 257.790063 
L 91.339455 241.745464 
L 92.065427 199.016715 
L 92.791399 242.265291 
L 93.51737 276.087897 
L 94.243342 241.09366 
L 94.969314 249.556815 
L 95.695286 265.964863 
L 96.421257 274.347634 
L 97.147229 222.441335 
L 97.873201 244.057471 
L 98.599172 197.458498 
L 99.325144 241.567289 
L 100.051116 266.365418 
L 100.777087 269.616909 
L 101.503059 136.646635 
L 102.229031 235.331241 
L 102.955003 133.331829 
L 103.680974 186.653646 
L 104.406946 261.328545 
L 105.132918 255.819638 
L 105.858889 199.129749 
L 106.584861 249.428969 
L 107.310833 258.968347 
L 108.036805 167.844057 
L 108.762776 224.732589 
L 109.488748 221.837722 
L 110.21472 277.689968 
L 110.940691 270.783011 
L 111.666663 271.041852 
L 112.392635 233.643516 
L 113.118606 246.987845 
L 114.57055 261.220563 
L 115.296522 272.834245 
L 116.022493 254.660541 
L 116.748465 216.793461 
L 117.474437 191.260933 
L 118.200408 255.140115 
L 118.92638 223.907183 
L 119.652352 237.813103 
L 120.378323 254.809054 
L 121.104295 205.389093 
L 121.830267 243.015319 
L 122.556239 262.365768 
L 123.28221 237.820624 
L 124.008182 273.429114 
L 124.734154 256.764707 
L 125.460125 233.964372 
L 126.186097 253.050118 
L 126.912069 235.699628 
L 127.63804 232.246818 
L 128.364012 255.400295 
L 129.089984 249.523711 
L 129.815956 278.197929 
L 130.541927 252.750116 
L 131.267899 235.972513 
L 131.993871 65.077369 
L 132.719842 161.737923 
L 133.445814 212.349614 
L 134.171786 156.772551 
L 134.897758 242.617032 
L 135.623729 274.542033 
L 136.349701 216.262488 
L 137.075673 228.431507 
L 137.801644 230.754781 
L 138.527616 169.931329 
L 139.253588 238.234201 
L 139.979559 222.363096 
L 140.705531 243.786431 
L 141.431503 277.223219 
L 142.157475 255.890689 
L 142.883446 202.895301 
L 143.609418 211.763083 
L 144.33539 223.148271 
L 145.061361 237.846023 
L 145.787333 226.758113 
L 146.513305 234.748076 
L 147.239276 232.722638 
L 147.965248 237.282568 
L 148.69122 243.794924 
L 149.417192 254.831792 
L 150.143163 239.379802 
L 150.869135 80.853074 
L 151.595107 261.197586 
L 153.04705 151.018332 
L 153.773022 256.2802 
L 154.498993 251.7401 
L 155.224965 252.626537 
L 155.950937 245.778448 
L 156.676909 249.726058 
L 157.40288 223.209949 
L 158.128852 224.845521 
L 158.854824 218.948084 
L 159.580795 142.47176 
L 160.306767 270.343517 
L 161.032739 158.380798 
L 161.758711 262.508452 
L 162.484682 158.762428 
L 163.210654 212.66926 
L 163.936626 240.662832 
L 164.662597 234.606258 
L 165.388569 238.43836 
L 166.114541 226.352512 
L 166.840512 246.797658 
L 167.566484 139.881256 
L 168.292456 216.078803 
L 169.018428 198.130714 
L 169.744399 222.933406 
L 170.470371 231.180455 
L 171.196343 272.098337 
L 171.922314 233.944465 
L 172.648286 226.669115 
L 173.374258 245.124719 
L 174.100229 250.537678 
L 175.552173 210.15114 
L 176.278145 238.044157 
L 177.004116 145.967058 
L 177.730088 167.267446 
L 178.45606 234.65075 
L 179.182031 210.670982 
L 179.908003 258.662512 
L 180.633975 206.226642 
L 181.359946 262.16044 
L 182.085918 234.891418 
L 182.81189 252.797499 
L 183.537862 244.870886 
L 184.263833 240.122256 
L 184.989805 242.001376 
L 185.715777 213.827968 
L 186.441748 230.035538 
L 187.16772 242.156178 
L 187.893692 236.262914 
L 188.619664 241.397609 
L 189.345635 249.094933 
L 190.071607 233.300381 
L 190.797579 248.173954 
L 191.52355 265.929567 
L 192.249522 239.923269 
L 192.975494 251.206609 
L 193.701465 206.442138 
L 194.427437 242.575072 
L 195.879381 224.186613 
L 196.605352 226.719326 
L 197.331324 235.501888 
L 198.057296 246.295331 
L 198.783267 235.306888 
L 199.509239 237.012826 
L 200.235211 269.948714 
L 200.961182 130.515815 
L 201.687154 216.650247 
L 202.413126 178.770325 
L 203.139098 229.503978 
L 203.865069 251.875204 
L 204.591041 204.930054 
L 205.317013 135.931297 
L 206.042984 252.417842 
L 206.768956 227.837093 
L 207.494928 182.335324 
L 208.220899 247.260704 
L 208.946871 223.306046 
L 209.672843 241.477486 
L 210.398815 213.025153 
L 211.124786 254.174251 
L 211.850758 162.774405 
L 212.57673 250.674262 
L 213.302701 272.77357 
L 214.028673 231.668873 
L 214.754645 220.434365 
L 215.480617 262.706416 
L 216.206588 268.197605 
L 216.93256 244.745493 
L 217.658532 237.294921 
L 218.384503 255.748475 
L 219.110475 132.666476 
L 219.836447 249.341462 
L 220.562418 173.951666 
L 221.28839 270.243946 
L 222.014362 188.837908 
L 222.740334 247.226198 
L 224.192277 181.570122 
L 224.918249 241.394214 
L 225.64422 251.038312 
L 226.370192 207.299572 
L 227.096164 182.733402 
L 227.822135 218.729532 
L 228.548107 230.444637 
L 229.274079 245.180405 
L 230.000051 250.716673 
L 230.726022 234.308807 
L 231.451994 232.434266 
L 232.177966 194.740697 
L 232.903937 184.852227 
L 233.629909 212.80967 
L 234.355881 209.96087 
L 235.081852 259.48032 
L 235.807824 250.216714 
L 236.533796 233.789661 
L 237.259768 240.453286 
L 237.985739 242.596036 
L 238.711711 240.63757 
L 239.437683 242.165058 
L 240.163654 236.406303 
L 240.889626 239.31106 
L 241.615598 233.090044 
L 242.34157 240.772272 
L 243.067541 246.082386 
L 243.793513 245.33776 
L 244.519485 235.458128 
L 245.245456 260.788993 
L 245.971428 269.087217 
L 246.6974 161.909605 
L 248.149343 263.484889 
L 248.875315 237.900214 
L 249.601287 235.603508 
L 250.327258 257.788371 
L 251.05323 244.187263 
L 251.779202 242.583717 
L 252.505173 221.698021 
L 253.231145 237.068651 
L 253.957117 237.211876 
L 254.683088 251.302032 
L 255.40906 243.556774 
L 256.135032 234.511269 
L 256.861004 234.190959 
L 257.586975 220.129699 
L 258.312947 230.310656 
L 259.038919 261.208406 
L 259.76489 234.519325 
L 260.490862 247.386504 
L 261.216834 235.667177 
L 261.942805 165.68252 
L 262.668777 224.522844 
L 263.394749 259.339855 
L 264.120721 269.461387 
L 264.846692 239.717098 
L 265.572664 227.00436 
L 266.298636 185.516925 
L 267.024607 239.395301 
L 267.750579 182.813889 
L 268.476551 218.490783 
L 269.202523 226.141455 
L 269.928494 223.80847 
L 270.654466 242.759244 
L 271.380438 267.065368 
L 272.106409 235.963798 
L 272.832381 266.280112 
L 273.558353 243.427682 
L 274.284324 247.550509 
L 275.010296 261.928675 
L 275.736268 238.447347 
L 276.46224 265.233844 
L 277.188211 264.967329 
L 277.914183 245.744118 
L 278.640155 234.499112 
L 279.366126 235.278328 
L 280.092098 237.714464 
L 280.81807 226.650058 
L 281.544041 208.116847 
L 282.270013 222.058909 
L 282.995985 246.716255 
L 283.721957 248.37933 
L 284.447928 238.882058 
L 285.1739 232.491353 
L 285.899872 249.836976 
L 286.625843 241.994382 
L 287.351815 227.336839 
L 288.077787 96.511314 
L 288.803758 161.833182 
L 289.52973 248.752125 
L 290.255702 223.832138 
L 290.981674 268.00781 
L 291.707645 195.355203 
L 292.433617 189.956539 
L 293.159589 215.310365 
L 293.88556 218.699771 
L 294.611532 231.248822 
L 295.337504 213.247248 
L 296.063476 264.714987 
L 296.789447 212.512737 
L 297.515419 252.584162 
L 298.241391 254.725608 
L 298.967362 231.74501 
L 299.693334 238.495471 
L 300.419306 220.468435 
L 301.145277 199.631203 
L 301.871249 253.221081 
L 302.597221 189.118699 
L 303.323193 251.045358 
L 304.049164 219.723854 
L 304.775136 235.782741 
L 305.501108 239.733263 
L 306.227079 178.895817 
L 306.953051 255.272327 
L 307.679023 267.173825 
L 308.404994 161.635118 
L 309.130966 226.971136 
L 309.856938 230.328041 
L 310.58291 248.506407 
L 311.308881 197.080247 
L 312.034853 274.392932 
L 312.760825 270.763577 
L 314.212768 227.918999 
L 314.93874 187.625512 
L 315.664711 270.254099 
L 316.390683 266.702504 
L 317.116655 254.494462 
L 317.842627 224.939512 
L 318.568598 262.184782 
L 319.29457 170.128222 
L 320.020542 254.573359 
L 320.746513 234.358647 
L 321.472485 199.489552 
L 322.198457 226.087293 
L 322.924429 216.629345 
L 323.6504 252.370341 
L 324.376372 241.307549 
L 325.102344 235.958859 
L 325.828315 244.517394 
L 326.554287 226.446342 
L 327.280259 226.632201 
L 328.00623 233.820941 
L 328.732202 233.884262 
L 329.458174 234.283428 
L 330.184146 235.077607 
L 330.910117 236.721956 
L 331.636089 264.471274 
L 332.362061 220.596061 
L 333.814004 260.095726 
L 334.539976 153.671873 
L 335.265947 248.784499 
L 335.991919 260.074233 
L 336.717891 230.829483 
L 337.443863 262.071975 
L 338.169834 234.41692 
L 338.895806 261.469723 
L 339.621778 230.940026 
L 340.347749 254.807662 
L 341.073721 230.738576 
L 341.799693 246.465098 
L 342.525664 243.833942 
L 343.251636 238.490536 
L 343.977608 240.67102 
L 344.70358 208.2521 
L 345.429551 237.78055 
L 346.155523 247.771753 
L 346.881495 227.65941 
L 347.607466 235.141927 
L 348.333438 247.579969 
L 349.05941 230.178942 
L 349.785382 256.749958 
L 350.511353 237.07722 
L 351.237325 225.55149 
L 351.963297 260.272903 
L 352.689268 267.683029 
L 353.41524 150.566438 
L 354.141212 234.87275 
L 354.867183 259.959456 
L 355.593155 254.828003 
L 356.319127 235.90942 
L 357.045099 247.336455 
L 357.77107 235.09122 
L 358.497042 242.202103 
L 359.223014 266.909682 
L 359.948985 251.461966 
L 360.674957 262.024095 
L 361.400929 248.234981 
L 362.1269 243.255885 
L 362.852872 252.947427 
L 363.578844 168.250287 
L 364.304816 180.696965 
L 365.030787 257.320043 
L 365.756759 252.591195 
L 366.482731 224.937831 
L 367.208702 176.202915 
L 367.934674 244.299189 
L 368.660646 265.40432 
L 369.386617 232.962007 
L 370.112589 251.216456 
L 370.838561 209.767454 
L 371.564533 239.302806 
L 372.290504 252.431132 
L 373.016476 209.58293 
L 373.742448 254.667716 
L 374.468419 251.547818 
L 375.194391 234.652705 
L 375.920363 255.920925 
L 376.646335 228.855679 
L 377.372306 244.119285 
L 378.098278 231.34608 
L 378.82425 237.949959 
L 379.550221 220.904852 
L 381.002165 260.432041 
L 381.728136 240.544284 
L 382.454108 240.062805 
L 383.18008 255.017923 
L 383.906052 239.369006 
L 384.632023 221.216931 
L 385.357995 263.679585 
L 386.083967 263.047857 
L 386.809938 240.948449 
L 387.53591 225.309039 
L 388.261882 223.347148 
L 388.987853 187.044661 
L 389.713825 185.634927 
L 390.439797 219.02534 
L 391.165769 232.515976 
L 391.89174 237.453375 
L 392.617712 265.911272 
L 393.343684 216.604924 
L 394.069655 178.950573 
L 394.795627 225.241905 
L 395.521599 197.564768 
L 396.24757 227.788547 
L 396.973542 195.324627 
L 397.699514 213.878267 
L 398.425486 247.788994 
L 399.151457 268.752471 
L 399.877429 195.119393 
L 400.603401 244.089543 
L 401.329372 217.032393 
L 402.055344 234.79445 
L 402.781316 244.330022 
L 403.507288 207.046477 
L 404.959231 240.65092 
L 405.685203 226.237132 
L 406.411174 218.012799 
L 407.137146 242.781148 
L 407.863118 237.713286 
L 408.589089 248.273296 
L 409.315061 245.651893 
L 410.041033 192.371878 
L 410.767005 233.964136 
L 411.492976 223.334365 
L 412.218948 264.820155 
L 412.94492 240.086073 
L 413.670891 261.359501 
L 414.396863 235.191643 
L 415.122835 229.273473 
L 415.848806 233.794166 
L 416.574778 232.652818 
L 417.30075 237.494647 
L 418.026722 243.430347 
L 418.752693 238.241832 
L 419.478665 230.627255 
L 420.204637 246.73135 
L 420.930608 230.817545 
L 421.65658 237.991157 
L 422.382552 232.473562 
L 423.108523 241.01145 
L 423.834495 241.479684 
L 424.560467 258.510265 
L 425.286439 236.111255 
L 426.01241 204.361755 
L 426.738382 234.241048 
L 427.464354 214.229814 
L 428.190325 236.393309 
L 428.916297 213.538497 
L 429.642269 238.316981 
L 430.368241 251.029068 
L 431.094212 233.066926 
L 431.820184 236.011617 
L 432.546156 236.21208 
L 433.272127 233.207681 
L 433.998099 234.559468 
L 434.724071 234.967374 
L 435.450042 239.193774 
L 436.176014 238.199022 
L 436.901986 235.497738 
L 437.627958 236.145811 
L 438.353929 238.986002 
L 439.079901 253.025121 
L 439.805873 238.185708 
L 440.531844 220.219448 
L 441.983788 250.572616 
L 442.709759 231.332188 
L 443.435731 238.059631 
L 444.161703 220.137444 
L 444.887675 240.020975 
L 445.613646 218.498306 
L 446.339618 238.488608 
L 447.06559 237.358358 
L 447.791561 235.506651 
L 448.517533 237.568727 
L 449.243505 237.215318 
L 449.969476 249.808346 
L 451.42142 221.806276 
L 452.147392 239.806274 
L 452.873363 254.932034 
L 453.599335 235.665144 
L 454.325307 251.192603 
L 455.051278 236.359024 
L 455.051278 236.359024 
" style="fill:none;stroke:#2ca02c;stroke-linecap:square;stroke-width:1.5;"/>
   </g>
   <g id="line2d_4">
    <path clip-path="url(#p00e5a29d54)" d="M 49.233097 236.717094 
L 455.051278 236.717094 
L 455.051278 236.717094 
" style="fill:none;stroke:#000000;stroke-dasharray:3.7,1.6;stroke-dashoffset:0;"/>
   </g>
   <g id="matplotlib.axis_1">
    <g id="xtick_1">
     <g id="line2d_5">
      <defs>
       <path d="M 0 0 
L 0 3.5 
" id="maf21e25de0" style="stroke:#000000;stroke-width:0.8;"/>
      </defs>
      <g>
       <use style="stroke:#000000;stroke-width:0.8;" x="70.286276" xlink:href="#maf21e25de0" y="294.118125"/>
      </g>
     </g>
     <g id="text_1">
      <!-- 100 -->
      <defs>
       <path d="M 12.40625 8.296875 
L 28.515625 8.296875 
L 28.515625 63.921875 
L 10.984375 60.40625 
L 10.984375 69.390625 
L 28.421875 72.90625 
L 38.28125 72.90625 
L 38.28125 8.296875 
L 54.390625 8.296875 
L 54.390625 0 
L 12.40625 0 
z
" id="DejaVuSans-49"/>
       <path d="M 31.78125 66.40625 
Q 24.171875 66.40625 20.328125 58.90625 
Q 16.5 51.421875 16.5 36.375 
Q 16.5 21.390625 20.328125 13.890625 
Q 24.171875 6.390625 31.78125 6.390625 
Q 39.453125 6.390625 43.28125 13.890625 
Q 47.125 21.390625 47.125 36.375 
Q 47.125 51.421875 43.28125 58.90625 
Q 39.453125 66.40625 31.78125 66.40625 
z
M 31.78125 74.21875 
Q 44.046875 74.21875 50.515625 64.515625 
Q 56.984375 54.828125 56.984375 36.375 
Q 56.984375 17.96875 50.515625 8.265625 
Q 44.046875 -1.421875 31.78125 -1.421875 
Q 19.53125 -1.421875 13.0625 8.265625 
Q 6.59375 17.96875 6.59375 36.375 
Q 6.59375 54.828125 13.0625 64.515625 
Q 19.53125 74.21875 31.78125 74.21875 
z
" id="DejaVuSans-48"/>
      </defs>
      <g transform="translate(60.742526 308.716563)scale(0.1 -0.1)">
       <use xlink:href="#DejaVuSans-49"/>
       <use x="63.623047" xlink:href="#DejaVuSans-48"/>
       <use x="127.246094" xlink:href="#DejaVuSans-48"/>
      </g>
     </g>
    </g>
    <g id="xtick_2">
     <g id="line2d_6">
      <g>
       <use style="stroke:#000000;stroke-width:0.8;" x="142.883446" xlink:href="#maf21e25de0" y="294.118125"/>
      </g>
     </g>
     <g id="text_2">
      <!-- 200 -->
      <defs>
       <path d="M 19.1875 8.296875 
L 53.609375 8.296875 
L 53.609375 0 
L 7.328125 0 
L 7.328125 8.296875 
Q 12.9375 14.109375 22.625 23.890625 
Q 32.328125 33.6875 34.8125 36.53125 
Q 39.546875 41.84375 41.421875 45.53125 
Q 43.3125 49.21875 43.3125 52.78125 
Q 43.3125 58.59375 39.234375 62.25 
Q 35.15625 65.921875 28.609375 65.921875 
Q 23.96875 65.921875 18.8125 64.3125 
Q 13.671875 62.703125 7.8125 59.421875 
L 7.8125 69.390625 
Q 13.765625 71.78125 18.9375 73 
Q 24.125 74.21875 28.421875 74.21875 
Q 39.75 74.21875 46.484375 68.546875 
Q 53.21875 62.890625 53.21875 53.421875 
Q 53.21875 48.921875 51.53125 44.890625 
Q 49.859375 40.875 45.40625 35.40625 
Q 44.1875 33.984375 37.640625 27.21875 
Q 31.109375 20.453125 19.1875 8.296875 
z
" id="DejaVuSans-50"/>
      </defs>
      <g transform="translate(133.339696 308.716563)scale(0.1 -0.1)">
       <use xlink:href="#DejaVuSans-50"/>
       <use x="63.623047" xlink:href="#DejaVuSans-48"/>
       <use x="127.246094" xlink:href="#DejaVuSans-48"/>
      </g>
     </g>
    </g>
    <g id="xtick_3">
     <g id="line2d_7">
      <g>
       <use style="stroke:#000000;stroke-width:0.8;" x="215.480617" xlink:href="#maf21e25de0" y="294.118125"/>
      </g>
     </g>
     <g id="text_3">
      <!-- 300 -->
      <defs>
       <path d="M 40.578125 39.3125 
Q 47.65625 37.796875 51.625 33 
Q 55.609375 28.21875 55.609375 21.1875 
Q 55.609375 10.40625 48.1875 4.484375 
Q 40.765625 -1.421875 27.09375 -1.421875 
Q 22.515625 -1.421875 17.65625 -0.515625 
Q 12.796875 0.390625 7.625 2.203125 
L 7.625 11.71875 
Q 11.71875 9.328125 16.59375 8.109375 
Q 21.484375 6.890625 26.8125 6.890625 
Q 36.078125 6.890625 40.9375 10.546875 
Q 45.796875 14.203125 45.796875 21.1875 
Q 45.796875 27.640625 41.28125 31.265625 
Q 36.765625 34.90625 28.71875 34.90625 
L 20.21875 34.90625 
L 20.21875 43.015625 
L 29.109375 43.015625 
Q 36.375 43.015625 40.234375 45.921875 
Q 44.09375 48.828125 44.09375 54.296875 
Q 44.09375 59.90625 40.109375 62.90625 
Q 36.140625 65.921875 28.71875 65.921875 
Q 24.65625 65.921875 20.015625 65.03125 
Q 15.375 64.15625 9.8125 62.3125 
L 9.8125 71.09375 
Q 15.4375 72.65625 20.34375 73.4375 
Q 25.25 74.21875 29.59375 74.21875 
Q 40.828125 74.21875 47.359375 69.109375 
Q 53.90625 64.015625 53.90625 55.328125 
Q 53.90625 49.265625 50.4375 45.09375 
Q 46.96875 40.921875 40.578125 39.3125 
z
" id="DejaVuSans-51"/>
      </defs>
      <g transform="translate(205.936867 308.716563)scale(0.1 -0.1)">
       <use xlink:href="#DejaVuSans-51"/>
       <use x="63.623047" xlink:href="#DejaVuSans-48"/>
       <use x="127.246094" xlink:href="#DejaVuSans-48"/>
      </g>
     </g>
    </g>
    <g id="xtick_4">
     <g id="line2d_8">
      <g>
       <use style="stroke:#000000;stroke-width:0.8;" x="288.077787" xlink:href="#maf21e25de0" y="294.118125"/>
      </g>
     </g>
     <g id="text_4">
      <!-- 400 -->
      <defs>
       <path d="M 37.796875 64.3125 
L 12.890625 25.390625 
L 37.796875 25.390625 
z
M 35.203125 72.90625 
L 47.609375 72.90625 
L 47.609375 25.390625 
L 58.015625 25.390625 
L 58.015625 17.1875 
L 47.609375 17.1875 
L 47.609375 0 
L 37.796875 0 
L 37.796875 17.1875 
L 4.890625 17.1875 
L 4.890625 26.703125 
z
" id="DejaVuSans-52"/>
      </defs>
      <g transform="translate(278.534037 308.716563)scale(0.1 -0.1)">
       <use xlink:href="#DejaVuSans-52"/>
       <use x="63.623047" xlink:href="#DejaVuSans-48"/>
       <use x="127.246094" xlink:href="#DejaVuSans-48"/>
      </g>
     </g>
    </g>
    <g id="xtick_5">
     <g id="line2d_9">
      <g>
       <use style="stroke:#000000;stroke-width:0.8;" x="360.674957" xlink:href="#maf21e25de0" y="294.118125"/>
      </g>
     </g>
     <g id="text_5">
      <!-- 500 -->
      <defs>
       <path d="M 10.796875 72.90625 
L 49.515625 72.90625 
L 49.515625 64.59375 
L 19.828125 64.59375 
L 19.828125 46.734375 
Q 21.96875 47.46875 24.109375 47.828125 
Q 26.265625 48.1875 28.421875 48.1875 
Q 40.625 48.1875 47.75 41.5 
Q 54.890625 34.8125 54.890625 23.390625 
Q 54.890625 11.625 47.5625 5.09375 
Q 40.234375 -1.421875 26.90625 -1.421875 
Q 22.3125 -1.421875 17.546875 -0.640625 
Q 12.796875 0.140625 7.71875 1.703125 
L 7.71875 11.625 
Q 12.109375 9.234375 16.796875 8.0625 
Q 21.484375 6.890625 26.703125 6.890625 
Q 35.15625 6.890625 40.078125 11.328125 
Q 45.015625 15.765625 45.015625 23.390625 
Q 45.015625 31 40.078125 35.4375 
Q 35.15625 39.890625 26.703125 39.890625 
Q 22.75 39.890625 18.8125 39.015625 
Q 14.890625 38.140625 10.796875 36.28125 
z
" id="DejaVuSans-53"/>
      </defs>
      <g transform="translate(351.131207 308.716563)scale(0.1 -0.1)">
       <use xlink:href="#DejaVuSans-53"/>
       <use x="63.623047" xlink:href="#DejaVuSans-48"/>
       <use x="127.246094" xlink:href="#DejaVuSans-48"/>
      </g>
     </g>
    </g>
    <g id="xtick_6">
     <g id="line2d_10">
      <g>
       <use style="stroke:#000000;stroke-width:0.8;" x="433.272127" xlink:href="#maf21e25de0" y="294.118125"/>
      </g>
     </g>
     <g id="text_6">
      <!-- 600 -->
      <defs>
       <path d="M 33.015625 40.375 
Q 26.375 40.375 22.484375 35.828125 
Q 18.609375 31.296875 18.609375 23.390625 
Q 18.609375 15.53125 22.484375 10.953125 
Q 26.375 6.390625 33.015625 6.390625 
Q 39.65625 6.390625 43.53125 10.953125 
Q 47.40625 15.53125 47.40625 23.390625 
Q 47.40625 31.296875 43.53125 35.828125 
Q 39.65625 40.375 33.015625 40.375 
z
M 52.59375 71.296875 
L 52.59375 62.3125 
Q 48.875 64.0625 45.09375 64.984375 
Q 41.3125 65.921875 37.59375 65.921875 
Q 27.828125 65.921875 22.671875 59.328125 
Q 17.53125 52.734375 16.796875 39.40625 
Q 19.671875 43.65625 24.015625 45.921875 
Q 28.375 48.1875 33.59375 48.1875 
Q 44.578125 48.1875 50.953125 41.515625 
Q 57.328125 34.859375 57.328125 23.390625 
Q 57.328125 12.15625 50.6875 5.359375 
Q 44.046875 -1.421875 33.015625 -1.421875 
Q 20.359375 -1.421875 13.671875 8.265625 
Q 6.984375 17.96875 6.984375 36.375 
Q 6.984375 53.65625 15.1875 63.9375 
Q 23.390625 74.21875 37.203125 74.21875 
Q 40.921875 74.21875 44.703125 73.484375 
Q 48.484375 72.75 52.59375 71.296875 
z
" id="DejaVuSans-54"/>
      </defs>
      <g transform="translate(423.728377 308.716563)scale(0.1 -0.1)">
       <use xlink:href="#DejaVuSans-54"/>
       <use x="63.623047" xlink:href="#DejaVuSans-48"/>
       <use x="127.246094" xlink:href="#DejaVuSans-48"/>
      </g>
     </g>
    </g>
    <g id="text_7">
     <!-- Tempo -->
     <defs>
      <path d="M -0.296875 72.90625 
L 61.375 72.90625 
L 61.375 64.59375 
L 35.5 64.59375 
L 35.5 0 
L 25.59375 0 
L 25.59375 64.59375 
L -0.296875 64.59375 
z
" id="DejaVuSans-84"/>
      <path d="M 56.203125 29.59375 
L 56.203125 25.203125 
L 14.890625 25.203125 
Q 15.484375 15.921875 20.484375 11.0625 
Q 25.484375 6.203125 34.421875 6.203125 
Q 39.59375 6.203125 44.453125 7.46875 
Q 49.3125 8.734375 54.109375 11.28125 
L 54.109375 2.78125 
Q 49.265625 0.734375 44.1875 -0.34375 
Q 39.109375 -1.421875 33.890625 -1.421875 
Q 20.796875 -1.421875 13.15625 6.1875 
Q 5.515625 13.8125 5.515625 26.8125 
Q 5.515625 40.234375 12.765625 48.109375 
Q 20.015625 56 32.328125 56 
Q 43.359375 56 49.78125 48.890625 
Q 56.203125 41.796875 56.203125 29.59375 
z
M 47.21875 32.234375 
Q 47.125 39.59375 43.09375 43.984375 
Q 39.0625 48.390625 32.421875 48.390625 
Q 24.90625 48.390625 20.390625 44.140625 
Q 15.875 39.890625 15.1875 32.171875 
z
" id="DejaVuSans-101"/>
      <path d="M 52 44.1875 
Q 55.375 50.25 60.0625 53.125 
Q 64.75 56 71.09375 56 
Q 79.640625 56 84.28125 50.015625 
Q 88.921875 44.046875 88.921875 33.015625 
L 88.921875 0 
L 79.890625 0 
L 79.890625 32.71875 
Q 79.890625 40.578125 77.09375 44.375 
Q 74.3125 48.1875 68.609375 48.1875 
Q 61.625 48.1875 57.5625 43.546875 
Q 53.515625 38.921875 53.515625 30.90625 
L 53.515625 0 
L 44.484375 0 
L 44.484375 32.71875 
Q 44.484375 40.625 41.703125 44.40625 
Q 38.921875 48.1875 33.109375 48.1875 
Q 26.21875 48.1875 22.15625 43.53125 
Q 18.109375 38.875 18.109375 30.90625 
L 18.109375 0 
L 9.078125 0 
L 9.078125 54.6875 
L 18.109375 54.6875 
L 18.109375 46.1875 
Q 21.1875 51.21875 25.484375 53.609375 
Q 29.78125 56 35.6875 56 
Q 41.65625 56 45.828125 52.96875 
Q 50 49.953125 52 44.1875 
z
" id="DejaVuSans-109"/>
      <path d="M 18.109375 8.203125 
L 18.109375 -20.796875 
L 9.078125 -20.796875 
L 9.078125 54.6875 
L 18.109375 54.6875 
L 18.109375 46.390625 
Q 20.953125 51.265625 25.265625 53.625 
Q 29.59375 56 35.59375 56 
Q 45.5625 56 51.78125 48.09375 
Q 58.015625 40.1875 58.015625 27.296875 
Q 58.015625 14.40625 51.78125 6.484375 
Q 45.5625 -1.421875 35.59375 -1.421875 
Q 29.59375 -1.421875 25.265625 0.953125 
Q 20.953125 3.328125 18.109375 8.203125 
z
M 48.6875 27.296875 
Q 48.6875 37.203125 44.609375 42.84375 
Q 40.53125 48.484375 33.40625 48.484375 
Q 26.265625 48.484375 22.1875 42.84375 
Q 18.109375 37.203125 18.109375 27.296875 
Q 18.109375 17.390625 22.1875 11.75 
Q 26.265625 6.109375 33.40625 6.109375 
Q 40.53125 6.109375 44.609375 11.75 
Q 48.6875 17.390625 48.6875 27.296875 
z
" id="DejaVuSans-112"/>
      <path d="M 30.609375 48.390625 
Q 23.390625 48.390625 19.1875 42.75 
Q 14.984375 37.109375 14.984375 27.296875 
Q 14.984375 17.484375 19.15625 11.84375 
Q 23.34375 6.203125 30.609375 6.203125 
Q 37.796875 6.203125 41.984375 11.859375 
Q 46.1875 17.53125 46.1875 27.296875 
Q 46.1875 37.015625 41.984375 42.703125 
Q 37.796875 48.390625 30.609375 48.390625 
z
M 30.609375 56 
Q 42.328125 56 49.015625 48.375 
Q 55.71875 40.765625 55.71875 27.296875 
Q 55.71875 13.875 49.015625 6.21875 
Q 42.328125 -1.421875 30.609375 -1.421875 
Q 18.84375 -1.421875 12.171875 6.21875 
Q 5.515625 13.875 5.515625 27.296875 
Q 5.515625 40.765625 12.171875 48.375 
Q 18.84375 56 30.609375 56 
z
" id="DejaVuSans-111"/>
     </defs>
     <g transform="translate(235.757812 322.394687)scale(0.1 -0.1)">
      <use xlink:href="#DejaVuSans-84"/>
      <use x="44.083984" xlink:href="#DejaVuSans-101"/>
      <use x="105.607422" xlink:href="#DejaVuSans-109"/>
      <use x="203.019531" xlink:href="#DejaVuSans-112"/>
      <use x="266.496094" xlink:href="#DejaVuSans-111"/>
     </g>
    </g>
   </g>
   <g id="matplotlib.axis_2">
    <g id="ytick_1">
     <g id="line2d_11">
      <defs>
       <path d="M 0 0 
L -3.5 0 
" id="m6305796cff" style="stroke:#000000;stroke-width:0.8;"/>
      </defs>
      <g>
       <use style="stroke:#000000;stroke-width:0.8;" x="28.942188" xlink:href="#m6305796cff" y="293.54722"/>
      </g>
     </g>
     <g id="text_8">
      <!-- 1 -->
      <defs>
       <path d="M 10.59375 35.5 
L 73.1875 35.5 
L 73.1875 27.203125 
L 10.59375 27.203125 
z
" id="DejaVuSans-8722"/>
      </defs>
      <g transform="translate(7.2 297.346439)scale(0.1 -0.1)">
       <use xlink:href="#DejaVuSans-8722"/>
       <use x="83.789062" xlink:href="#DejaVuSans-49"/>
      </g>
     </g>
    </g>
    <g id="ytick_2">
     <g id="line2d_12">
      <g>
       <use style="stroke:#000000;stroke-width:0.8;" x="28.942188" xlink:href="#m6305796cff" y="236.717094"/>
      </g>
     </g>
     <g id="text_9">
      <!-- 0 -->
      <g transform="translate(15.579688 240.516312)scale(0.1 -0.1)">
       <use xlink:href="#DejaVuSans-48"/>
      </g>
     </g>
    </g>
    <g id="ytick_3">
     <g id="line2d_13">
      <g>
       <use style="stroke:#000000;stroke-width:0.8;" x="28.942188" xlink:href="#m6305796cff" y="179.886967"/>
      </g>
     </g>
     <g id="text_10">
      <!-- 1 -->
      <g transform="translate(15.579688 183.686185)scale(0.1 -0.1)">
       <use xlink:href="#DejaVuSans-49"/>
      </g>
     </g>
    </g>
    <g id="ytick_4">
     <g id="line2d_14">
      <g>
       <use style="stroke:#000000;stroke-width:0.8;" x="28.942188" xlink:href="#m6305796cff" y="123.05684"/>
      </g>
     </g>
     <g id="text_11">
      <!-- 2 -->
      <g transform="translate(15.579688 126.856058)scale(0.1 -0.1)">
       <use xlink:href="#DejaVuSans-50"/>
      </g>
     </g>
    </g>
    <g id="ytick_5">
     <g id="line2d_15">
      <g>
       <use style="stroke:#000000;stroke-width:0.8;" x="28.942188" xlink:href="#m6305796cff" y="66.226713"/>
      </g>
     </g>
     <g id="text_12">
      <!-- 3 -->
      <g transform="translate(15.579688 70.025931)scale(0.1 -0.1)">
       <use xlink:href="#DejaVuSans-51"/>
      </g>
     </g>
    </g>
   </g>
   <g id="patch_3">
    <path d="M 28.942188 294.118125 
L 28.942188 22.318125 
" style="fill:none;stroke:#000000;stroke-linecap:square;stroke-linejoin:miter;stroke-width:0.8;"/>
   </g>
   <g id="patch_4">
    <path d="M 28.942188 294.118125 
L 475.342187 294.118125 
" style="fill:none;stroke:#000000;stroke-linecap:square;stroke-linejoin:miter;stroke-width:0.8;"/>
   </g>
   <g id="text_13">
    <!-- wbarocc -->
    <defs>
     <path d="M 4.203125 54.6875 
L 13.1875 54.6875 
L 24.421875 12.015625 
L 35.59375 54.6875 
L 46.1875 54.6875 
L 57.421875 12.015625 
L 68.609375 54.6875 
L 77.59375 54.6875 
L 63.28125 0 
L 52.6875 0 
L 40.921875 44.828125 
L 29.109375 0 
L 18.5 0 
z
" id="DejaVuSans-119"/>
     <path d="M 48.6875 27.296875 
Q 48.6875 37.203125 44.609375 42.84375 
Q 40.53125 48.484375 33.40625 48.484375 
Q 26.265625 48.484375 22.1875 42.84375 
Q 18.109375 37.203125 18.109375 27.296875 
Q 18.109375 17.390625 22.1875 11.75 
Q 26.265625 6.109375 33.40625 6.109375 
Q 40.53125 6.109375 44.609375 11.75 
Q 48.6875 17.390625 48.6875 27.296875 
z
M 18.109375 46.390625 
Q 20.953125 51.265625 25.265625 53.625 
Q 29.59375 56 35.59375 56 
Q 45.5625 56 51.78125 48.09375 
Q 58.015625 40.1875 58.015625 27.296875 
Q 58.015625 14.40625 51.78125 6.484375 
Q 45.5625 -1.421875 35.59375 -1.421875 
Q 29.59375 -1.421875 25.265625 0.953125 
Q 20.953125 3.328125 18.109375 8.203125 
L 18.109375 0 
L 9.078125 0 
L 9.078125 75.984375 
L 18.109375 75.984375 
z
" id="DejaVuSans-98"/>
     <path d="M 34.28125 27.484375 
Q 23.390625 27.484375 19.1875 25 
Q 14.984375 22.515625 14.984375 16.5 
Q 14.984375 11.71875 18.140625 8.90625 
Q 21.296875 6.109375 26.703125 6.109375 
Q 34.1875 6.109375 38.703125 11.40625 
Q 43.21875 16.703125 43.21875 25.484375 
L 43.21875 27.484375 
z
M 52.203125 31.203125 
L 52.203125 0 
L 43.21875 0 
L 43.21875 8.296875 
Q 40.140625 3.328125 35.546875 0.953125 
Q 30.953125 -1.421875 24.3125 -1.421875 
Q 15.921875 -1.421875 10.953125 3.296875 
Q 6 8.015625 6 15.921875 
Q 6 25.140625 12.171875 29.828125 
Q 18.359375 34.515625 30.609375 34.515625 
L 43.21875 34.515625 
L 43.21875 35.40625 
Q 43.21875 41.609375 39.140625 45 
Q 35.0625 48.390625 27.6875 48.390625 
Q 23 48.390625 18.546875 47.265625 
Q 14.109375 46.140625 10.015625 43.890625 
L 10.015625 52.203125 
Q 14.9375 54.109375 19.578125 55.046875 
Q 24.21875 56 28.609375 56 
Q 40.484375 56 46.34375 49.84375 
Q 52.203125 43.703125 52.203125 31.203125 
z
" id="DejaVuSans-97"/>
     <path d="M 41.109375 46.296875 
Q 39.59375 47.171875 37.8125 47.578125 
Q 36.03125 48 33.890625 48 
Q 26.265625 48 22.1875 43.046875 
Q 18.109375 38.09375 18.109375 28.8125 
L 18.109375 0 
L 9.078125 0 
L 9.078125 54.6875 
L 18.109375 54.6875 
L 18.109375 46.1875 
Q 20.953125 51.171875 25.484375 53.578125 
Q 30.03125 56 36.53125 56 
Q 37.453125 56 38.578125 55.875 
Q 39.703125 55.765625 41.0625 55.515625 
z
" id="DejaVuSans-114"/>
     <path d="M 48.78125 52.59375 
L 48.78125 44.1875 
Q 44.96875 46.296875 41.140625 47.34375 
Q 37.3125 48.390625 33.40625 48.390625 
Q 24.65625 48.390625 19.8125 42.84375 
Q 14.984375 37.3125 14.984375 27.296875 
Q 14.984375 17.28125 19.8125 11.734375 
Q 24.65625 6.203125 33.40625 6.203125 
Q 37.3125 6.203125 41.140625 7.25 
Q 44.96875 8.296875 48.78125 10.40625 
L 48.78125 2.09375 
Q 45.015625 0.34375 40.984375 -0.53125 
Q 36.96875 -1.421875 32.421875 -1.421875 
Q 20.0625 -1.421875 12.78125 6.34375 
Q 5.515625 14.109375 5.515625 27.296875 
Q 5.515625 40.671875 12.859375 48.328125 
Q 20.21875 56 33.015625 56 
Q 37.15625 56 41.109375 55.140625 
Q 45.0625 54.296875 48.78125 52.59375 
z
" id="DejaVuSans-99"/>
    </defs>
    <g transform="translate(227.148437 16.318125)scale(0.12 -0.12)">
     <use xlink:href="#DejaVuSans-119"/>
     <use x="81.787109" xlink:href="#DejaVuSans-98"/>
     <use x="145.263672" xlink:href="#DejaVuSans-97"/>
     <use x="206.542969" xlink:href="#DejaVuSans-114"/>
     <use x="245.40625" xlink:href="#DejaVuSans-111"/>
     <use x="306.587891" xlink:href="#DejaVuSans-99"/>
     <use x="361.568359" xlink:href="#DejaVuSans-99"/>
    </g>
   </g>
   <g id="legend_1">
    <g id="patch_5">
     <path d="M 482.342187 190.104844 
L 556.740625 190.104844 
Q 558.740625 190.104844 558.740625 188.104844 
L 558.740625 128.331406 
Q 558.740625 126.331406 556.740625 126.331406 
L 482.342187 126.331406 
Q 480.342187 126.331406 480.342187 128.331406 
L 480.342187 188.104844 
Q 480.342187 190.104844 482.342187 190.104844 
z
" style="fill:#ffffff;opacity:0.8;stroke:#cccccc;stroke-linejoin:miter;"/>
    </g>
    <g id="line2d_16">
     <path d="M 484.342187 134.429844 
L 504.342187 134.429844 
" style="fill:none;stroke:#000000;stroke-dasharray:3.7,1.6;stroke-dashoffset:0;"/>
    </g>
    <g id="line2d_17"/>
    <g id="text_14">
     <!-- Baseline -->
     <defs>
      <path d="M 19.671875 34.8125 
L 19.671875 8.109375 
L 35.5 8.109375 
Q 43.453125 8.109375 47.28125 11.40625 
Q 51.125 14.703125 51.125 21.484375 
Q 51.125 28.328125 47.28125 31.5625 
Q 43.453125 34.8125 35.5 34.8125 
z
M 19.671875 64.796875 
L 19.671875 42.828125 
L 34.28125 42.828125 
Q 41.5 42.828125 45.03125 45.53125 
Q 48.578125 48.25 48.578125 53.8125 
Q 48.578125 59.328125 45.03125 62.0625 
Q 41.5 64.796875 34.28125 64.796875 
z
M 9.8125 72.90625 
L 35.015625 72.90625 
Q 46.296875 72.90625 52.390625 68.21875 
Q 58.5 63.53125 58.5 54.890625 
Q 58.5 48.1875 55.375 44.234375 
Q 52.25 40.28125 46.1875 39.3125 
Q 53.46875 37.75 57.5 32.78125 
Q 61.53125 27.828125 61.53125 20.40625 
Q 61.53125 10.640625 54.890625 5.3125 
Q 48.25 0 35.984375 0 
L 9.8125 0 
z
" id="DejaVuSans-66"/>
      <path d="M 44.28125 53.078125 
L 44.28125 44.578125 
Q 40.484375 46.53125 36.375 47.5 
Q 32.28125 48.484375 27.875 48.484375 
Q 21.1875 48.484375 17.84375 46.4375 
Q 14.5 44.390625 14.5 40.28125 
Q 14.5 37.15625 16.890625 35.375 
Q 19.28125 33.59375 26.515625 31.984375 
L 29.59375 31.296875 
Q 39.15625 29.25 43.1875 25.515625 
Q 47.21875 21.78125 47.21875 15.09375 
Q 47.21875 7.46875 41.1875 3.015625 
Q 35.15625 -1.421875 24.609375 -1.421875 
Q 20.21875 -1.421875 15.453125 -0.5625 
Q 10.6875 0.296875 5.421875 2 
L 5.421875 11.28125 
Q 10.40625 8.6875 15.234375 7.390625 
Q 20.0625 6.109375 24.8125 6.109375 
Q 31.15625 6.109375 34.5625 8.28125 
Q 37.984375 10.453125 37.984375 14.40625 
Q 37.984375 18.0625 35.515625 20.015625 
Q 33.0625 21.96875 24.703125 23.78125 
L 21.578125 24.515625 
Q 13.234375 26.265625 9.515625 29.90625 
Q 5.8125 33.546875 5.8125 39.890625 
Q 5.8125 47.609375 11.28125 51.796875 
Q 16.75 56 26.8125 56 
Q 31.78125 56 36.171875 55.265625 
Q 40.578125 54.546875 44.28125 53.078125 
z
" id="DejaVuSans-115"/>
      <path d="M 9.421875 75.984375 
L 18.40625 75.984375 
L 18.40625 0 
L 9.421875 0 
z
" id="DejaVuSans-108"/>
      <path d="M 9.421875 54.6875 
L 18.40625 54.6875 
L 18.40625 0 
L 9.421875 0 
z
M 9.421875 75.984375 
L 18.40625 75.984375 
L 18.40625 64.59375 
L 9.421875 64.59375 
z
" id="DejaVuSans-105"/>
      <path d="M 54.890625 33.015625 
L 54.890625 0 
L 45.90625 0 
L 45.90625 32.71875 
Q 45.90625 40.484375 42.875 44.328125 
Q 39.84375 48.1875 33.796875 48.1875 
Q 26.515625 48.1875 22.3125 43.546875 
Q 18.109375 38.921875 18.109375 30.90625 
L 18.109375 0 
L 9.078125 0 
L 9.078125 54.6875 
L 18.109375 54.6875 
L 18.109375 46.1875 
Q 21.34375 51.125 25.703125 53.5625 
Q 30.078125 56 35.796875 56 
Q 45.21875 56 50.046875 50.171875 
Q 54.890625 44.34375 54.890625 33.015625 
z
" id="DejaVuSans-110"/>
     </defs>
     <g transform="translate(512.342187 137.929844)scale(0.1 -0.1)">
      <use xlink:href="#DejaVuSans-66"/>
      <use x="68.603516" xlink:href="#DejaVuSans-97"/>
      <use x="129.882812" xlink:href="#DejaVuSans-115"/>
      <use x="181.982422" xlink:href="#DejaVuSans-101"/>
      <use x="243.505859" xlink:href="#DejaVuSans-108"/>
      <use x="271.289062" xlink:href="#DejaVuSans-105"/>
      <use x="299.072266" xlink:href="#DejaVuSans-110"/>
      <use x="362.451172" xlink:href="#DejaVuSans-101"/>
     </g>
    </g>
    <g id="line2d_18">
     <path d="M 484.342187 149.107969 
L 504.342187 149.107969 
" style="fill:none;stroke:#1f77b4;stroke-linecap:square;stroke-width:1.5;"/>
    </g>
    <g id="line2d_19"/>
    <g id="text_15">
     <!-- $\Downarrow \sigma_\psi$ -->
     <defs>
      <path d="M 36.765625 14.3125 
L 41.9375 9.234375 
L 47.015625 14.3125 
L 47.015625 72.90625 
L 52.875 72.90625 
L 52.875 20.171875 
L 57.46875 24.75 
L 63.328125 18.890625 
L 44.09375 -0.34375 
L 39.703125 -0.34375 
L 20.5625 18.890625 
L 26.421875 24.75 
L 30.90625 20.171875 
L 30.90625 72.90625 
L 36.765625 72.90625 
z
" id="DejaVuSans-8659"/>
      <path d="M 34.671875 47.5625 
Q 27.25 47.5625 22.21875 42.1875 
Q 16.890625 36.578125 15.140625 27.296875 
Q 13.1875 17.484375 16.3125 11.8125 
Q 19.390625 6.203125 26.65625 6.203125 
Q 33.84375 6.203125 39.109375 11.859375 
Q 44.4375 17.53125 46.34375 27.296875 
Q 48.046875 36.234375 45.015625 42.1875 
Q 42.1875 47.5625 34.671875 47.5625 
z
M 36.078125 54.734375 
L 65.921875 54.6875 
L 64.15625 45.703125 
L 54.109375 45.703125 
Q 57.90625 38.09375 55.859375 27.296875 
Q 53.21875 13.875 45.0625 6.25 
Q 36.859375 -1.421875 25.140625 -1.421875 
Q 13.375 -1.421875 8.203125 6.25 
Q 3.03125 13.875 5.671875 27.296875 
Q 8.25 40.765625 16.40625 48.390625 
Q 23.1875 54.734375 36.078125 54.734375 
z
" id="DejaVuSans-Oblique-963"/>
      <path d="M 24.859375 -1.21875 
Q 13.921875 0.59375 9.625 5.328125 
Q 4.34375 11.140625 6.640625 23 
L 12.796875 54.6875 
L 21.875 54.6875 
L 15.765625 23.34375 
Q 14.0625 14.40625 17.484375 10.6875 
Q 20.515625 7.46875 26.421875 6.78125 
L 35.6875 54.6875 
L 44.625 54.6875 
L 35.359375 6.84375 
Q 41.890625 7.515625 45.75 10.75 
Q 50.734375 14.84375 52.390625 23.390625 
L 58.453125 54.6875 
L 67.53125 54.6875 
L 61.375 23.046875 
Q 58.984375 10.75 51.5625 5.375 
Q 44.875 0.53125 33.796875 -1.171875 
L 29.984375 -20.796875 
L 21.046875 -20.796875 
z
" id="DejaVuSans-Oblique-968"/>
     </defs>
     <g transform="translate(512.342187 152.607969)scale(0.1 -0.1)">
      <use transform="translate(19.482422 0.09375)" xlink:href="#DejaVuSans-8659"/>
      <use transform="translate(122.753906 0.09375)" xlink:href="#DejaVuSans-Oblique-963"/>
      <use transform="translate(186.132812 -16.3125)scale(0.7)" xlink:href="#DejaVuSans-Oblique-968"/>
     </g>
    </g>
    <g id="line2d_20">
     <path d="M 484.342187 164.806406 
L 504.342187 164.806406 
" style="fill:none;stroke:#ff7f0e;stroke-linecap:square;stroke-width:1.5;"/>
    </g>
    <g id="line2d_21"/>
    <g id="text_16">
     <!-- $\Downarrow s_\psi$ -->
     <defs>
      <path d="M 50 53.078125 
L 48.296875 44.578125 
Q 44.734375 46.53125 40.765625 47.5 
Q 36.8125 48.484375 32.625 48.484375 
Q 25.53125 48.484375 21.453125 46.0625 
Q 17.390625 43.65625 17.390625 39.5 
Q 17.390625 34.671875 26.859375 32.078125 
Q 27.59375 31.890625 27.9375 31.78125 
L 30.8125 30.90625 
Q 39.796875 28.421875 42.796875 25.6875 
Q 45.796875 22.953125 45.796875 18.21875 
Q 45.796875 9.515625 38.890625 4.046875 
Q 31.984375 -1.421875 20.796875 -1.421875 
Q 16.453125 -1.421875 11.671875 -0.578125 
Q 6.890625 0.25 1.125 2 
L 2.875 11.28125 
Q 7.8125 8.734375 12.59375 7.421875 
Q 17.390625 6.109375 21.78125 6.109375 
Q 28.375 6.109375 32.5 8.9375 
Q 36.625 11.765625 36.625 16.109375 
Q 36.625 20.796875 25.78125 23.6875 
L 24.859375 23.921875 
L 21.78125 24.703125 
Q 14.9375 26.515625 11.765625 29.46875 
Q 8.59375 32.421875 8.59375 37.015625 
Q 8.59375 45.75 15.15625 50.875 
Q 21.734375 56 33.015625 56 
Q 37.453125 56 41.671875 55.265625 
Q 45.90625 54.546875 50 53.078125 
z
" id="DejaVuSans-Oblique-115"/>
     </defs>
     <g transform="translate(512.342187 168.306406)scale(0.1 -0.1)">
      <use transform="translate(19.482422 0.09375)" xlink:href="#DejaVuSans-8659"/>
      <use transform="translate(122.753906 0.09375)" xlink:href="#DejaVuSans-Oblique-115"/>
      <use transform="translate(174.853516 -16.3125)scale(0.7)" xlink:href="#DejaVuSans-Oblique-968"/>
     </g>
    </g>
    <g id="line2d_22">
     <path d="M 484.342187 180.504844 
L 504.342187 180.504844 
" style="fill:none;stroke:#2ca02c;stroke-linecap:square;stroke-width:1.5;"/>
    </g>
    <g id="line2d_23"/>
    <g id="text_17">
     <!-- $\Uparrow \eta$ -->
     <defs>
      <path d="M 36.765625 58.59375 
L 36.765625 0 
L 30.90625 0 
L 30.90625 52.734375 
L 26.421875 48.140625 
L 20.5625 54 
L 39.703125 73.25 
L 44.09375 73.25 
L 63.328125 54 
L 57.46875 48.140625 
L 52.875 52.734375 
L 52.875 0 
L 47.015625 0 
L 47.015625 58.59375 
L 41.9375 63.671875 
z
" id="DejaVuSans-8657"/>
      <path d="M 57.859375 33.015625 
L 47.40625 -20.796875 
L 38.421875 -20.796875 
L 48.828125 32.71875 
Q 50.34375 40.484375 48.046875 44.34375 
Q 45.796875 48.1875 39.75 48.1875 
Q 32.46875 48.1875 27.34375 43.5625 
Q 22.265625 38.921875 20.703125 30.90625 
L 14.703125 0 
L 5.671875 0 
L 16.3125 54.6875 
L 25.34375 54.6875 
L 23.6875 46.1875 
Q 27.828125 51.125 32.71875 53.5625 
Q 37.546875 56 43.265625 56 
Q 52.6875 56 56.390625 50.203125 
Q 60.0625 44.34375 57.859375 33.015625 
z
" id="DejaVuSans-Oblique-951"/>
     </defs>
     <g transform="translate(512.342187 184.004844)scale(0.1 -0.1)">
      <use transform="translate(19.482422 0.75)" xlink:href="#DejaVuSans-8657"/>
      <use transform="translate(122.753906 0.75)" xlink:href="#DejaVuSans-Oblique-951"/>
     </g>
    </g>
   </g>
  </g>
 </g>
 <defs>
  <clipPath id="p00e5a29d54">
   <rect height="271.8" width="446.4" x="28.942188" y="22.318125"/>
  </clipPath>
 </defs>
</svg>
