<?xml version="1.0" encoding="utf-8" standalone="no"?>
<!DOCTYPE svg PUBLIC "-//W3C//DTD SVG 1.1//EN"
  "http://www.w3.org/Graphics/SVG/1.1/DTD/svg11.dtd">
<!-- Created with matplotlib (https://matplotlib.org/) -->
<svg height="331.674375pt" version="1.1" viewBox="0 0 591.390625 331.674375" width="591.390625pt" xmlns="http://www.w3.org/2000/svg" xmlns:xlink="http://www.w3.org/1999/xlink">
 <defs>
  <style type="text/css">
*{stroke-linecap:butt;stroke-linejoin:round;}
  </style>
 </defs>
 <g id="figure_1">
  <g id="patch_1">
   <path d="M 0 331.674375 
L 591.390625 331.674375 
L 591.390625 0 
L 0 0 
z
" style="fill:#ffffff;"/>
  </g>
  <g id="axes_1">
   <g id="patch_2">
    <path d="M 54.392188 294.118125 
L 500.792187 294.118125 
L 500.792187 22.318125 
L 54.392188 22.318125 
z
" style="fill:#ffffff;"/>
   </g>
   <g id="line2d_1">
    <path clip-path="url(#p775f824669)" d="M 74.683097 66.42346 
L 75.409068 66.822343 
L 76.13504 67.908911 
L 76.861012 68.767817 
L 78.312955 69.564549 
L 79.764899 70.240611 
L 80.49087 70.764524 
L 81.216842 71.106355 
L 82.668785 73.101746 
L 83.394757 73.36987 
L 84.120729 73.800595 
L 84.8467 74.753189 
L 85.572672 76.100173 
L 87.024616 77.994687 
L 88.476559 80.135528 
L 89.202531 82.137468 
L 89.928502 82.68061 
L 91.380446 84.731387 
L 92.832389 85.622113 
L 94.284333 86.451542 
L 96.462248 89.413808 
L 97.188219 91.401474 
L 97.914191 92.898324 
L 98.640163 94.123788 
L 99.366134 94.704871 
L 100.818078 95.37184 
L 101.54405 96.320746 
L 102.995993 99.54474 
L 104.447936 101.691268 
L 105.173908 103.363239 
L 105.89988 104.040947 
L 106.625852 104.498142 
L 107.351823 105.588993 
L 109.529738 110.538214 
L 110.25571 111.258579 
L 110.981682 112.560161 
L 111.707653 114.242914 
L 113.159597 116.241862 
L 114.61154 119.02386 
L 115.337512 119.829326 
L 118.96737 121.909094 
L 119.693342 123.087304 
L 121.145286 126.075666 
L 121.871257 126.84016 
L 123.323201 127.686137 
L 126.227087 128.780039 
L 127.679031 130.627345 
L 128.405003 131.040241 
L 129.856946 131.482937 
L 130.582918 131.979634 
L 131.308889 132.639617 
L 132.034861 133.016475 
L 132.760833 133.603212 
L 133.486805 134.713607 
L 134.212776 135.532338 
L 135.66472 136.014214 
L 136.390691 137.107427 
L 137.116663 138.55217 
L 137.842635 138.998438 
L 139.294578 141.206268 
L 141.472493 142.518045 
L 144.37638 143.781558 
L 145.102352 144.281183 
L 145.828323 145.416202 
L 146.554295 147.064985 
L 147.280267 147.667222 
L 148.73221 148.476533 
L 149.458182 148.813138 
L 150.184154 149.71221 
L 150.910125 151.155717 
L 151.636097 151.604754 
L 152.362069 151.861963 
L 153.814012 152.748814 
L 155.265956 153.506386 
L 155.991927 154.650996 
L 156.717899 156.275462 
L 157.443871 157.059026 
L 158.169842 157.519487 
L 158.895814 157.776337 
L 159.621786 158.938043 
L 160.347758 160.939994 
L 161.073729 161.682906 
L 162.525673 162.465325 
L 166.881503 164.169106 
L 169.059418 165.018406 
L 169.78539 165.344466 
L 171.237333 167.537122 
L 172.689276 167.90955 
L 174.867192 169.27704 
L 175.593163 169.471718 
L 179.223022 171.274591 
L 180.674965 171.719504 
L 181.400937 172.55925 
L 182.126909 174.431219 
L 184.304824 177.723683 
L 185.756767 178.263301 
L 186.482739 179.484172 
L 187.208711 181.292751 
L 187.934682 182.355615 
L 188.660654 182.957689 
L 189.386626 183.18233 
L 195.194399 186.38795 
L 195.920371 186.817649 
L 196.646343 187.07241 
L 197.372314 187.491654 
L 198.098286 188.45365 
L 198.824258 189.789972 
L 199.550229 190.507158 
L 201.728145 191.171953 
L 202.454116 191.341349 
L 203.90606 192.034901 
L 205.358003 192.734118 
L 206.083975 192.926876 
L 206.809946 193.35366 
L 207.535918 193.648587 
L 208.987862 194.384742 
L 210.439805 195.029054 
L 211.165777 195.248426 
L 212.61772 196.076727 
L 213.343692 196.554348 
L 215.521607 197.308015 
L 216.247579 198.153254 
L 216.97355 199.276258 
L 219.877437 199.856367 
L 221.329381 200.492571 
L 222.055352 201.753765 
L 222.781324 203.301225 
L 223.507296 203.898373 
L 224.233267 204.078149 
L 224.959239 204.482557 
L 225.685211 205.473242 
L 226.411182 206.881883 
L 227.137154 207.258181 
L 227.863126 208.088212 
L 228.589098 209.46 
L 229.315069 210.137957 
L 231.492984 210.665261 
L 232.218956 211.04092 
L 232.944928 211.837898 
L 233.670899 212.107919 
L 234.396871 212.245097 
L 235.848815 212.677049 
L 238.02673 213.23734 
L 240.204645 213.892418 
L 241.656588 215.485405 
L 242.38256 215.668336 
L 243.108532 216.486726 
L 243.834503 217.981591 
L 244.560475 218.76777 
L 245.286447 218.942371 
L 246.012418 220.016912 
L 247.464362 222.685185 
L 248.190334 223.253911 
L 248.916305 223.355244 
L 249.642277 224.099646 
L 250.368249 225.40843 
L 251.820192 226.938011 
L 252.546164 227.767948 
L 253.272135 228.096634 
L 254.724079 228.488314 
L 255.450051 229.388778 
L 256.176022 230.936577 
L 256.901994 231.328102 
L 258.353937 231.521366 
L 259.805881 232.168142 
L 260.531852 233.244114 
L 261.257824 234.074988 
L 261.983796 234.26491 
L 263.435739 236.415429 
L 264.161711 236.54911 
L 265.613654 238.075835 
L 266.339626 239.225311 
L 267.065598 240.864565 
L 267.79157 242.188098 
L 268.517541 242.654137 
L 269.243513 242.861418 
L 270.695456 244.27682 
L 272.873371 244.498625 
L 273.599343 244.799033 
L 275.051287 246.233056 
L 276.50323 246.745835 
L 277.229202 247.152022 
L 278.681145 249.167128 
L 280.133088 250.65127 
L 281.585032 250.728568 
L 282.311004 250.75699 
L 283.036975 251.44458 
L 283.762947 252.78936 
L 284.488919 253.136679 
L 285.21489 253.29202 
L 285.940862 253.618396 
L 288.118777 254.057074 
L 290.296692 254.006204 
L 291.022664 254.841361 
L 291.748636 255.495407 
L 293.926551 256.011751 
L 294.652523 256.064009 
L 296.830438 255.771089 
L 298.282381 255.50626 
L 299.008353 255.874074 
L 301.186268 258.683951 
L 301.91224 259.741362 
L 302.638211 260.189085 
L 303.364183 260.996402 
L 304.090155 262.235081 
L 305.542098 262.752604 
L 306.26807 262.956334 
L 306.994041 263.646907 
L 307.720013 264.1373 
L 308.445985 264.00159 
L 309.171957 264.317087 
L 311.349872 264.229579 
L 314.253758 263.650449 
L 315.705702 264.547454 
L 316.431674 264.330946 
L 317.883617 264.482016 
L 318.609589 264.629438 
L 320.787504 264.101282 
L 322.239447 263.997262 
L 322.965419 264.520875 
L 323.691391 265.769986 
L 324.417362 266.567657 
L 325.143334 266.761369 
L 326.595277 266.416457 
L 328.047221 267.31344 
L 329.499164 266.907481 
L 330.225136 266.874103 
L 330.951108 267.305563 
L 331.677079 267.457611 
L 333.129023 266.956622 
L 333.854994 267.066507 
L 334.580966 266.804957 
L 335.306938 267.500447 
L 336.03291 267.999251 
L 336.758881 267.760231 
L 337.484853 267.647959 
L 338.210825 267.970632 
L 338.936796 268.167968 
L 339.662768 268.007221 
L 340.38874 267.641702 
L 341.114711 267.925805 
L 341.840683 268.855583 
L 343.292627 270.314384 
L 345.470542 271.444661 
L 346.922485 270.90468 
L 347.648457 271.453132 
L 348.374429 271.524902 
L 349.1004 271.092858 
L 349.826372 271.306081 
L 350.552344 271.805865 
L 351.278315 271.435928 
L 352.730259 271.070614 
L 353.45623 271.570202 
L 354.182202 272.329456 
L 355.634146 271.942247 
L 356.360117 272.294595 
L 357.086089 272.881249 
L 357.812061 272.714204 
L 358.538032 272.195683 
L 359.264004 272.59663 
L 359.989976 273.399986 
L 360.715947 273.538058 
L 361.441919 273.434558 
L 362.167891 272.858111 
L 362.893863 273.488873 
L 363.619834 273.723496 
L 364.345806 274.075807 
L 365.071778 275.014531 
L 365.797749 275.449445 
L 366.523721 275.680846 
L 367.249693 275.305865 
L 367.975664 274.70937 
L 368.701636 275.111713 
L 369.427608 275.01472 
L 370.15358 274.347832 
L 370.879551 274.4444 
L 371.605523 274.308495 
L 372.331495 274.487095 
L 373.057466 274.214265 
L 373.783438 273.51313 
L 374.50941 273.265272 
L 375.235382 272.800749 
L 375.961353 272.087151 
L 377.413297 271.728749 
L 378.139268 271.881692 
L 378.86524 271.838774 
L 379.591212 271.639046 
L 380.317183 272.325465 
L 381.043155 272.487312 
L 381.769127 271.993914 
L 383.22107 270.636484 
L 384.673014 269.304214 
L 385.398985 268.804648 
L 386.124957 268.837327 
L 386.850929 269.168965 
L 387.5769 268.607004 
L 388.302872 268.333567 
L 389.028844 267.815684 
L 389.754816 266.918051 
L 390.480787 266.744396 
L 391.206759 266.314565 
L 391.932731 266.244045 
L 392.658702 266.434699 
L 394.110646 264.810036 
L 394.836617 264.211278 
L 395.562589 263.207391 
L 396.288561 261.977907 
L 397.014533 261.032685 
L 397.740504 259.883569 
L 399.192448 259.448606 
L 399.918419 259.570329 
L 401.370363 257.631292 
L 402.096335 257.482639 
L 402.822306 257.696706 
L 403.548278 257.593276 
L 404.27425 257.616865 
L 405.000221 256.749217 
L 406.452165 255.524772 
L 407.904108 252.889263 
L 409.356052 250.695815 
L 410.807995 249.28651 
L 412.259938 246.949808 
L 413.711882 244.397654 
L 414.437853 243.914656 
L 415.163825 243.703202 
L 415.889797 243.218499 
L 417.34174 240.751231 
L 418.067712 239.155509 
L 418.793684 238.228599 
L 421.69757 233.339427 
L 422.423542 231.734045 
L 423.149514 230.530123 
L 424.601457 229.47889 
L 425.327429 228.027727 
L 426.053401 227.164768 
L 427.505344 225.803912 
L 428.231316 224.551859 
L 428.957288 222.888606 
L 429.683259 221.61036 
L 430.409231 220.922105 
L 431.135203 219.892561 
L 431.861174 219.32751 
L 432.587146 217.913105 
L 433.313118 216.840555 
L 434.039089 215.169248 
L 435.491033 213.228864 
L 436.942976 209.597636 
L 437.668948 207.79932 
L 441.298806 200.615248 
L 442.024778 198.871943 
L 443.476722 196.361617 
L 447.832552 184.474145 
L 449.284495 179.961411 
L 450.010467 178.128723 
L 451.46241 173.402145 
L 453.640325 165.936443 
L 454.366297 163.328782 
L 455.818241 159.586101 
L 457.996156 154.301731 
L 458.722127 152.500338 
L 463.803929 134.851952 
L 465.255873 130.947839 
L 468.159759 120.25371 
L 469.611703 115.504288 
L 471.063646 109.472136 
L 472.51559 104.473087 
L 473.967533 96.95901 
L 476.145448 88.42084 
L 479.049335 74.809871 
L 480.501278 68.9669 
L 480.501278 68.9669 
" style="fill:none;stroke:#1f77b4;stroke-linecap:square;stroke-width:1.5;"/>
   </g>
   <g id="line2d_2">
    <path clip-path="url(#p775f824669)" d="M 74.683097 69.362775 
L 75.409068 69.909441 
L 76.13504 70.778245 
L 76.861012 71.236267 
L 78.312955 71.956722 
L 79.764899 73.167866 
L 80.49087 74.417267 
L 81.216842 76.005101 
L 81.942814 76.53492 
L 83.394757 77.929011 
L 84.8467 78.920067 
L 86.298644 79.514899 
L 87.024616 79.770606 
L 88.476559 81.659088 
L 89.928502 82.638055 
L 90.654474 83.116026 
L 92.106417 83.695353 
L 92.832389 84.682138 
L 93.558361 86.057368 
L 94.284333 87.732712 
L 95.010304 88.417008 
L 95.736276 89.477182 
L 96.462248 91.327489 
L 97.188219 92.380464 
L 97.914191 93.184202 
L 98.640163 94.697723 
L 99.366134 95.51625 
L 102.995993 97.761394 
L 103.721965 98.020507 
L 105.173908 98.89667 
L 107.351823 99.591359 
L 108.803767 100.58656 
L 110.981682 104.733357 
L 111.707653 105.700171 
L 113.159597 106.764583 
L 114.61154 109.140844 
L 116.063484 110.396383 
L 116.789455 110.875029 
L 118.96737 111.816165 
L 119.693342 112.364608 
L 120.419314 113.194844 
L 121.145286 114.581003 
L 124.049172 116.646736 
L 124.775144 116.997444 
L 125.501116 117.547049 
L 127.679031 118.420409 
L 128.405003 118.804974 
L 129.130974 119.890625 
L 129.856946 120.770161 
L 130.582918 121.021979 
L 133.486805 125.115782 
L 136.390691 126.369202 
L 137.116663 127.516192 
L 137.842635 129.335901 
L 138.568606 129.915377 
L 139.294578 130.664355 
L 140.02055 131.806787 
L 141.472493 133.362019 
L 142.924437 135.747392 
L 143.650408 136.62979 
L 145.102352 137.541562 
L 145.828323 137.885545 
L 148.006239 139.515509 
L 148.73221 140.806917 
L 149.458182 141.769546 
L 156.717899 145.069826 
L 165.429559 147.510056 
L 167.607475 147.850338 
L 168.333446 148.219534 
L 169.78539 149.596 
L 171.237333 150.971947 
L 171.963305 151.282754 
L 173.415248 153.204449 
L 174.14122 153.520599 
L 174.867192 154.590728 
L 175.593163 155.438707 
L 178.49705 156.505119 
L 179.223022 156.822788 
L 179.948993 156.968344 
L 182.126909 158.035914 
L 183.578852 159.854205 
L 184.304824 160.695236 
L 185.756767 161.805524 
L 186.482739 162.371422 
L 187.208711 163.088155 
L 188.660654 164.017859 
L 189.386626 164.309077 
L 190.112597 165.451358 
L 190.838569 166.252343 
L 191.564541 167.462372 
L 192.290512 168.894777 
L 193.016484 169.553559 
L 193.742456 170.594072 
L 195.194399 173.200756 
L 195.920371 174.468166 
L 196.646343 175.003548 
L 198.098286 177.15821 
L 198.824258 177.75817 
L 199.550229 179.090795 
L 200.276201 179.807444 
L 201.728145 181.956623 
L 202.454116 182.633222 
L 203.180088 183.023664 
L 203.90606 183.550426 
L 204.632031 183.878901 
L 205.358003 184.90279 
L 206.809946 187.372737 
L 208.26189 188.773762 
L 208.987862 189.500494 
L 209.713833 189.945125 
L 210.439805 191.091984 
L 211.891748 191.941742 
L 213.343692 192.496019 
L 214.069664 192.960137 
L 215.521607 193.545336 
L 216.247579 194.066495 
L 216.97355 194.791678 
L 217.699522 195.247664 
L 218.425494 195.526309 
L 219.151465 195.678286 
L 219.877437 195.976373 
L 220.603409 196.89863 
L 221.329381 197.533681 
L 222.055352 198.592976 
L 222.781324 199.227785 
L 224.233267 199.726629 
L 224.959239 200.642783 
L 225.685211 201.222198 
L 226.411182 201.534802 
L 227.863126 201.895832 
L 228.589098 202.299887 
L 229.315069 202.549439 
L 230.041041 202.667935 
L 231.492984 203.34999 
L 232.944928 204.74807 
L 238.752701 205.771871 
L 243.834503 206.145968 
L 246.012418 206.36413 
L 246.73839 206.449313 
L 248.190334 207.047601 
L 248.916305 207.732032 
L 249.642277 209.118785 
L 251.09422 209.414902 
L 251.820192 209.873496 
L 252.546164 210.969807 
L 253.272135 211.371278 
L 254.724079 211.576302 
L 255.450051 211.870334 
L 256.176022 212.858564 
L 256.901994 214.171018 
L 257.627966 214.493357 
L 260.531852 215.167581 
L 261.257824 215.464589 
L 261.983796 216.211874 
L 262.709768 217.377296 
L 263.435739 218.144414 
L 264.161711 218.370045 
L 264.887683 219.117111 
L 265.613654 219.6969 
L 266.339626 220.599502 
L 267.065598 221.71495 
L 269.243513 222.718631 
L 269.969485 222.925038 
L 270.695456 223.956415 
L 271.421428 224.51175 
L 272.873371 224.763952 
L 273.599343 225.051519 
L 274.325315 225.153675 
L 276.50323 225.917849 
L 277.229202 226.083984 
L 277.955173 226.569548 
L 278.681145 226.913033 
L 279.407117 227.868458 
L 280.133088 229.161385 
L 281.585032 229.611044 
L 282.311004 229.72371 
L 283.036975 230.475057 
L 283.762947 231.630893 
L 288.118777 232.986566 
L 288.844749 233.000499 
L 289.570721 233.133117 
L 290.296692 234.356619 
L 291.022664 234.885964 
L 291.748636 235.175073 
L 292.474607 235.972212 
L 293.200579 236.345148 
L 293.926551 236.364526 
L 294.652523 237.204078 
L 295.378494 237.47787 
L 296.104466 238.222819 
L 296.830438 238.524043 
L 299.008353 240.744415 
L 299.734324 241.948267 
L 300.460296 242.381749 
L 301.186268 243.248813 
L 301.91224 244.420143 
L 302.638211 245.052536 
L 303.364183 245.93679 
L 304.090155 247.137416 
L 304.816126 247.506911 
L 305.542098 248.592656 
L 306.26807 249.190032 
L 306.994041 250.349054 
L 307.720013 250.942767 
L 308.445985 251.064644 
L 309.171957 251.515328 
L 309.897928 251.568058 
L 310.6239 251.809665 
L 312.075843 251.615647 
L 314.253758 254.34888 
L 315.705702 254.784234 
L 316.431674 254.876524 
L 317.157645 255.280316 
L 317.883617 256.193073 
L 318.609589 257.38841 
L 319.33556 257.745053 
L 320.061532 258.381897 
L 320.787504 258.515135 
L 322.965419 261.380955 
L 323.691391 261.868649 
L 324.417362 262.771152 
L 325.869306 262.902485 
L 327.321249 262.599832 
L 328.047221 262.789347 
L 328.773193 262.642868 
L 329.499164 262.344365 
L 330.225136 262.847198 
L 331.677079 263.063084 
L 333.129023 263.111796 
L 333.854994 263.901175 
L 335.306938 263.987054 
L 336.03291 264.080402 
L 337.484853 263.623575 
L 341.114711 261.763188 
L 342.566655 261.304633 
L 343.292627 261.774202 
L 344.018598 262.068701 
L 344.74457 261.859134 
L 345.470542 261.877173 
L 346.196513 261.644802 
L 346.922485 261.211649 
L 347.648457 261.016197 
L 348.374429 261.670938 
L 349.1004 262.175823 
L 350.552344 261.561791 
L 351.278315 261.780267 
L 352.004287 261.845954 
L 352.730259 261.652576 
L 353.45623 261.679252 
L 354.182202 261.434231 
L 357.812061 259.091581 
L 358.538032 258.578474 
L 359.989976 257.987426 
L 360.715947 257.460364 
L 362.167891 256.016286 
L 362.893863 255.831224 
L 363.619834 255.307359 
L 364.345806 255.647156 
L 365.071778 255.587156 
L 365.797749 255.694599 
L 366.523721 255.459301 
L 367.975664 254.332257 
L 369.427608 253.780881 
L 370.15358 253.081391 
L 371.605523 252.072719 
L 372.331495 252.236695 
L 373.057466 251.69128 
L 373.783438 250.956038 
L 374.50941 250.657107 
L 375.235382 250.865322 
L 375.961353 250.165278 
L 376.687325 249.276193 
L 378.139268 248.032358 
L 378.86524 248.0581 
L 379.591212 248.465236 
L 380.317183 248.56376 
L 381.043155 248.902866 
L 381.769127 248.428547 
L 382.495099 247.623765 
L 383.947042 246.411278 
L 384.673014 246.291706 
L 386.124957 246.482497 
L 386.850929 246.327292 
L 388.302872 245.125691 
L 389.028844 244.85649 
L 389.754816 244.165353 
L 390.480787 243.648711 
L 391.206759 242.727799 
L 391.932731 242.306877 
L 392.658702 241.711923 
L 393.384674 241.515867 
L 395.562589 239.420928 
L 396.288561 238.596371 
L 397.014533 238.293679 
L 397.740504 237.389433 
L 398.466476 236.306447 
L 399.192448 235.866185 
L 399.918419 234.914681 
L 400.644391 234.155732 
L 402.822306 233.367107 
L 403.548278 233.233744 
L 404.27425 233.306485 
L 405.000221 232.447775 
L 405.726193 232.130662 
L 406.452165 231.460294 
L 407.178136 230.972939 
L 408.63008 230.361552 
L 410.082023 228.297711 
L 410.807995 227.661494 
L 411.533967 227.557557 
L 412.259938 226.48957 
L 412.98591 226.228429 
L 413.711882 225.248038 
L 415.163825 224.43672 
L 415.889797 224.105907 
L 416.615769 223.060122 
L 417.34174 222.890307 
L 418.793684 221.606499 
L 419.519655 220.56697 
L 420.245627 219.946433 
L 420.971599 218.974421 
L 421.69757 218.376964 
L 423.149514 215.907568 
L 423.875486 214.784134 
L 424.601457 214.03264 
L 425.327429 212.726164 
L 426.053401 212.126306 
L 427.505344 210.270563 
L 428.231316 209.046221 
L 428.957288 208.467152 
L 429.683259 207.508284 
L 430.409231 206.972325 
L 431.135203 206.12184 
L 431.861174 205.559457 
L 432.587146 204.19166 
L 433.313118 203.367467 
L 434.039089 201.485417 
L 434.765061 200.671748 
L 435.491033 199.681395 
L 438.39492 192.832782 
L 439.120891 191.762647 
L 439.846863 190.117209 
L 440.572835 188.842166 
L 441.298806 186.909062 
L 443.476722 182.373496 
L 444.202693 180.182969 
L 444.928665 178.658446 
L 445.654637 176.306791 
L 446.380608 174.992518 
L 448.558523 168.128067 
L 450.010467 164.975759 
L 450.736439 163.258738 
L 451.46241 160.893165 
L 452.188382 158.949658 
L 454.366297 152.128637 
L 457.270184 144.563253 
L 460.900042 131.934121 
L 461.626014 129.816974 
L 463.077958 124.259943 
L 463.803929 122.093732 
L 464.529901 119.261846 
L 465.981844 114.449943 
L 466.707816 111.880996 
L 468.159759 105.1126 
L 468.885731 102.665906 
L 471.063646 92.482893 
L 472.51559 87.079237 
L 473.967533 79.451938 
L 474.693505 76.592044 
L 476.145448 69.602198 
L 476.87142 66.297306 
L 479.049335 55.151753 
L 480.501278 48.776999 
L 480.501278 48.776999 
" style="fill:none;stroke:#ff7f0e;stroke-linecap:square;stroke-width:1.5;"/>
   </g>
   <g id="line2d_3">
    <path clip-path="url(#p775f824669)" d="M 74.683097 62.663147 
L 75.409068 62.97315 
L 77.586983 64.492836 
L 78.312955 64.869347 
L 79.038927 65.863764 
L 79.764899 67.317659 
L 80.49087 68.223162 
L 81.216842 68.903872 
L 84.8467 71.135165 
L 85.572672 72.329902 
L 86.298644 72.886948 
L 88.476559 75.810005 
L 89.202531 77.062957 
L 89.928502 77.490055 
L 90.654474 78.81051 
L 92.106417 80.154299 
L 92.832389 80.964143 
L 97.188219 84.390244 
L 97.914191 85.600188 
L 98.640163 87.285081 
L 99.366134 87.855206 
L 100.818078 88.674489 
L 101.54405 89.776017 
L 102.995993 90.968846 
L 105.173908 93.398073 
L 105.89988 93.778211 
L 106.625852 94.757018 
L 107.351823 96.27568 
L 108.077795 96.858696 
L 108.803767 98.18758 
L 109.529738 98.872951 
L 110.25571 99.264177 
L 110.981682 99.97096 
L 113.159597 103.440416 
L 113.885569 104.153136 
L 114.61154 105.273105 
L 115.337512 106.666089 
L 116.789455 108.037826 
L 117.515427 108.707992 
L 118.96737 109.464621 
L 119.693342 109.773239 
L 120.419314 110.207974 
L 121.145286 110.790095 
L 123.323201 111.834091 
L 124.049172 112.34765 
L 126.227087 113.50226 
L 126.953059 114.39705 
L 127.679031 114.952802 
L 129.130974 116.604048 
L 130.582918 117.240111 
L 131.308889 117.832104 
L 132.034861 118.193045 
L 132.760833 118.763102 
L 133.486805 120.039018 
L 134.212776 120.5284 
L 139.294578 122.670669 
L 140.746522 123.16874 
L 142.924437 124.670518 
L 143.650408 125.381402 
L 144.37638 125.84972 
L 147.280267 127.177896 
L 148.006239 127.661681 
L 149.458182 128.244416 
L 153.08804 129.307387 
L 154.539984 129.698836 
L 155.265956 129.847835 
L 156.717899 130.501458 
L 157.443871 131.504616 
L 158.169842 132.977711 
L 158.895814 133.242543 
L 160.347758 135.017073 
L 161.073729 135.249272 
L 162.525673 136.115177 
L 163.251644 136.389634 
L 164.703588 138.172954 
L 167.607475 139.549262 
L 169.78539 141.218799 
L 170.511361 141.768981 
L 171.237333 142.520842 
L 171.963305 143.071866 
L 172.689276 143.386209 
L 174.14122 144.209027 
L 175.593163 144.665037 
L 176.319135 145.603452 
L 177.771078 146.506973 
L 179.223022 149.14504 
L 179.948993 149.537905 
L 182.126909 150.220708 
L 184.304824 151.005364 
L 185.030795 151.91708 
L 185.756767 152.581132 
L 186.482739 153.5385 
L 187.934682 155.848796 
L 188.660654 156.561433 
L 189.386626 156.931771 
L 191.564541 159.147465 
L 192.290512 159.694432 
L 194.468428 162.736543 
L 195.194399 163.489635 
L 195.920371 164.665423 
L 196.646343 165.184192 
L 197.372314 166.538901 
L 198.098286 167.202283 
L 198.824258 167.535721 
L 199.550229 168.617223 
L 200.276201 169.440883 
L 201.728145 170.671403 
L 203.180088 173.024074 
L 203.90606 173.502613 
L 205.358003 175.526873 
L 206.809946 177.004179 
L 207.535918 178.287107 
L 208.26189 178.855525 
L 209.713833 181.047458 
L 210.439805 181.768616 
L 212.61772 183.107615 
L 214.069664 185.437481 
L 215.521607 186.552821 
L 216.247579 187.511871 
L 216.97355 188.114831 
L 217.699522 189.215445 
L 218.425494 189.746092 
L 219.151465 190.487946 
L 222.055352 194.690948 
L 222.781324 195.172599 
L 225.685211 196.554538 
L 226.411182 197.51958 
L 227.137154 198.056648 
L 227.863126 199.205999 
L 228.589098 200.657714 
L 229.315069 201.426041 
L 230.041041 201.905046 
L 230.767013 202.926238 
L 232.218956 203.967877 
L 232.944928 205.211279 
L 233.670899 205.741205 
L 234.396871 206.728967 
L 236.574786 208.166622 
L 237.300758 209.218983 
L 238.02673 209.616908 
L 239.478673 210.137486 
L 240.930617 210.711911 
L 243.834503 211.793564 
L 244.560475 212.595547 
L 245.286447 213.196127 
L 246.012418 214.206482 
L 246.73839 214.774832 
L 247.464362 215.580297 
L 248.190334 216.134401 
L 248.916305 216.349882 
L 249.642277 217.452896 
L 250.368249 217.912227 
L 251.09422 218.183556 
L 251.820192 218.678531 
L 253.272135 220.768326 
L 253.998107 221.260886 
L 254.724079 222.147183 
L 256.176022 223.337017 
L 256.901994 223.566862 
L 257.627966 224.382105 
L 259.079909 227.047864 
L 259.805881 227.707805 
L 260.531852 228.683984 
L 261.257824 229.1076 
L 261.983796 229.355573 
L 262.709768 230.507411 
L 263.435739 231.216878 
L 264.161711 231.529511 
L 264.887683 232.359999 
L 265.613654 232.881912 
L 267.065598 235.318421 
L 267.79157 235.864053 
L 269.243513 236.34512 
L 270.695456 237.100472 
L 271.421428 237.280741 
L 272.873371 239.171305 
L 273.599343 239.634059 
L 274.325315 239.777626 
L 275.051287 240.805281 
L 275.777258 241.38819 
L 276.50323 241.681259 
L 277.229202 242.409207 
L 277.955173 243.643259 
L 278.681145 243.933826 
L 279.407117 244.737513 
L 280.85906 245.443415 
L 281.585032 245.553625 
L 282.311004 246.462247 
L 283.036975 246.997281 
L 283.762947 247.379072 
L 286.666834 248.064528 
L 287.392805 249.115188 
L 288.118777 249.858624 
L 288.844749 250.197026 
L 289.570721 250.211152 
L 291.022664 250.819037 
L 291.748636 251.8493 
L 294.652523 253.868896 
L 295.378494 253.969232 
L 296.104466 254.196247 
L 296.830438 254.294352 
L 299.734324 255.205642 
L 301.91224 255.629455 
L 302.638211 255.613863 
L 304.090155 256.038279 
L 306.994041 256.111417 
L 307.720013 256.377177 
L 309.897928 256.096372 
L 310.6239 256.197462 
L 312.801815 255.747199 
L 314.253758 257.387361 
L 316.431674 257.454073 
L 317.157645 257.811129 
L 317.883617 258.690581 
L 318.609589 259.118877 
L 320.061532 258.971114 
L 320.787504 259.505555 
L 321.513476 259.72966 
L 322.239447 260.301829 
L 322.965419 261.20801 
L 323.691391 261.482681 
L 324.417362 262.065096 
L 325.143334 261.991983 
L 326.595277 262.210188 
L 327.321249 262.012959 
L 328.047221 262.484441 
L 329.499164 262.47734 
L 330.951108 262.136009 
L 331.677079 262.877825 
L 333.129023 262.827604 
L 333.854994 263.522942 
L 336.758881 263.553333 
L 338.210825 262.993937 
L 339.662768 262.424276 
L 340.38874 262.42562 
L 341.840683 261.827876 
L 343.292627 261.53219 
L 344.018598 261.152782 
L 344.74457 261.517481 
L 345.470542 262.036789 
L 346.196513 261.937419 
L 346.922485 261.991985 
L 347.648457 262.54463 
L 348.374429 262.575675 
L 349.1004 262.242865 
L 349.826372 262.518662 
L 350.552344 262.931398 
L 351.278315 262.732367 
L 352.004287 263.330924 
L 352.730259 264.318865 
L 354.182202 265.491443 
L 354.908174 265.210676 
L 355.634146 265.088317 
L 356.360117 265.64177 
L 358.538032 264.717524 
L 359.264004 264.571039 
L 359.989976 265.108773 
L 360.715947 265.086975 
L 361.441919 264.91636 
L 362.167891 264.343785 
L 362.893863 264.273788 
L 363.619834 263.989018 
L 364.345806 263.849716 
L 365.071778 264.189678 
L 365.797749 263.999766 
L 366.523721 264.029325 
L 367.975664 263.068995 
L 368.701636 263.053685 
L 370.15358 262.392578 
L 370.879551 262.790653 
L 371.605523 262.36771 
L 372.331495 262.595282 
L 373.783438 261.472286 
L 374.50941 261.242028 
L 375.235382 260.638398 
L 376.687325 259.098591 
L 378.139268 257.841149 
L 379.591212 257.978409 
L 380.317183 257.602734 
L 381.043155 257.074447 
L 386.124957 251.617066 
L 386.850929 251.111826 
L 387.5769 250.178101 
L 388.302872 249.459866 
L 389.028844 249.136436 
L 389.754816 249.076752 
L 390.480787 248.361108 
L 391.206759 247.810871 
L 391.932731 247.908747 
L 392.658702 247.78218 
L 394.110646 246.059351 
L 394.836617 245.199708 
L 395.562589 244.121611 
L 396.288561 243.609619 
L 400.644391 237.599874 
L 401.370363 236.402608 
L 402.096335 236.123327 
L 402.822306 235.162336 
L 403.548278 234.668228 
L 405.726193 232.493632 
L 406.452165 231.44706 
L 410.807995 223.562802 
L 412.259938 220.741874 
L 413.711882 218.259524 
L 415.163825 217.12532 
L 415.889797 216.444179 
L 418.793684 210.614174 
L 419.519655 210.114777 
L 422.423542 205.518398 
L 423.149514 204.548808 
L 424.601457 201.11924 
L 426.053401 199.436114 
L 426.779372 198.06566 
L 427.505344 196.295015 
L 428.957288 194.009593 
L 433.313118 184.598021 
L 434.039089 182.528131 
L 434.765061 181.339892 
L 435.491033 180.39752 
L 436.942976 176.890977 
L 437.668948 174.911342 
L 438.39492 173.6873 
L 439.120891 171.635634 
L 440.572835 169.416461 
L 441.298806 167.531065 
L 443.476722 163.066042 
L 444.202693 160.983927 
L 444.928665 159.511249 
L 445.654637 157.325308 
L 446.380608 155.932271 
L 448.558523 148.936531 
L 449.284495 147.494252 
L 450.010467 145.076319 
L 454.366297 134.220981 
L 455.092269 132.453416 
L 455.818241 130.060948 
L 457.270184 126.611771 
L 457.996156 124.007743 
L 458.722127 122.120042 
L 459.448099 119.34497 
L 460.174071 117.186787 
L 460.900042 114.228459 
L 461.626014 112.285813 
L 463.077958 106.808511 
L 463.803929 104.735935 
L 464.529901 101.987518 
L 465.981844 97.320275 
L 466.707816 94.806162 
L 468.159759 88.259489 
L 469.611703 83.277553 
L 471.063646 77.232397 
L 472.51559 71.950443 
L 473.967533 64.638071 
L 474.693505 61.918159 
L 476.145448 55.238187 
L 476.87142 52.171977 
L 479.775307 37.667213 
L 480.501278 34.67267 
L 480.501278 34.67267 
" style="fill:none;stroke:#2ca02c;stroke-linecap:square;stroke-width:1.5;"/>
   </g>
   <g id="line2d_4">
    <path clip-path="url(#p775f824669)" d="M 74.683097 70.732981 
L 75.409068 71.684656 
L 76.13504 73.170521 
L 76.861012 74.000947 
L 77.586983 74.611901 
L 79.038927 75.274259 
L 79.764899 75.897092 
L 80.49087 76.352137 
L 81.216842 77.439849 
L 83.394757 79.421916 
L 84.120729 79.821672 
L 84.8467 80.833142 
L 85.572672 81.583727 
L 86.298644 82.153591 
L 87.024616 83.694407 
L 87.750587 84.367758 
L 88.476559 85.618346 
L 89.202531 87.113559 
L 89.928502 87.544354 
L 91.380446 89.611819 
L 92.832389 90.784638 
L 94.284333 93.736149 
L 95.010304 94.30607 
L 95.736276 95.308114 
L 96.462248 96.930598 
L 98.640163 98.872824 
L 100.092106 101.534308 
L 100.818078 102.064946 
L 102.995993 103.161165 
L 103.721965 103.696679 
L 104.447936 104.835267 
L 105.173908 105.608166 
L 106.625852 106.21694 
L 107.351823 107.410011 
L 108.077795 108.27409 
L 108.803767 109.60119 
L 109.529738 110.597531 
L 110.25571 111.005767 
L 111.707653 112.645174 
L 114.61154 114.615347 
L 116.063484 117.368779 
L 116.789455 118.1139 
L 118.241399 118.860666 
L 118.96737 119.848279 
L 120.419314 120.937287 
L 121.871257 123.757596 
L 124.775144 125.322999 
L 126.227087 127.752042 
L 126.953059 128.240885 
L 129.856946 129.696304 
L 130.582918 130.27699 
L 132.034861 131.060607 
L 132.760833 132.136453 
L 133.486805 132.985148 
L 134.938748 133.471428 
L 135.66472 134.611682 
L 136.390691 136.129412 
L 137.116663 137.144183 
L 139.294578 138.851756 
L 140.02055 139.440606 
L 140.746522 140.674082 
L 141.472493 142.242524 
L 142.924437 143.104089 
L 143.650408 144.133326 
L 144.37638 144.751132 
L 145.102352 145.130505 
L 145.828323 145.85202 
L 147.280267 146.520876 
L 148.006239 147.702056 
L 148.73221 148.350498 
L 150.184154 150.137904 
L 154.539984 152.366404 
L 155.265956 153.385233 
L 155.991927 154.997401 
L 157.443871 155.746198 
L 159.621786 156.553666 
L 160.347758 157.12098 
L 161.073729 158.142602 
L 161.799701 158.80292 
L 163.977616 159.745302 
L 164.703588 160.278684 
L 166.155531 160.872039 
L 166.881503 162.050862 
L 167.607475 163.68177 
L 169.059418 164.430353 
L 169.78539 164.84406 
L 170.511361 165.390801 
L 171.237333 166.085385 
L 171.963305 166.606561 
L 172.689276 166.910108 
L 174.867192 168.253165 
L 177.771078 169.525086 
L 178.49705 169.905441 
L 179.223022 171.049505 
L 179.948993 171.927498 
L 181.400937 172.552466 
L 182.126909 172.855135 
L 185.030795 173.59331 
L 185.756767 174.447758 
L 186.482739 175.129806 
L 187.208711 176.339258 
L 187.934682 177.086664 
L 189.386626 177.608419 
L 192.290512 179.958242 
L 194.468428 181.055047 
L 195.194399 181.412689 
L 195.920371 182.11868 
L 196.646343 183.39454 
L 197.372314 184.942204 
L 198.098286 185.421269 
L 198.824258 185.715134 
L 199.550229 186.923288 
L 200.276201 187.766909 
L 201.002173 188.0237 
L 201.728145 188.513301 
L 203.180088 189.098782 
L 203.90606 189.338031 
L 204.632031 189.79789 
L 205.358003 190.982064 
L 206.083975 191.540528 
L 206.809946 192.418884 
L 207.535918 193.863495 
L 208.26189 194.58556 
L 209.713833 196.938252 
L 210.439805 197.698551 
L 211.891748 198.260199 
L 212.61772 198.618751 
L 213.343692 199.558399 
L 214.069664 200.894556 
L 214.795635 201.692346 
L 215.521607 202.152432 
L 216.247579 203.253194 
L 217.699522 206.318954 
L 218.425494 207.113204 
L 219.151465 207.595862 
L 220.603409 209.80385 
L 221.329381 210.480008 
L 222.055352 211.476298 
L 224.233267 212.768732 
L 224.959239 213.086238 
L 225.685211 213.937173 
L 226.411182 214.362084 
L 227.137154 214.563271 
L 227.863126 215.001929 
L 228.589098 215.884848 
L 229.315069 217.002495 
L 231.492984 217.95943 
L 232.944928 218.786447 
L 233.670899 219.230393 
L 234.396871 219.934833 
L 235.122843 220.39498 
L 235.848815 220.686044 
L 237.300758 221.447784 
L 238.02673 221.731908 
L 238.752701 222.601405 
L 239.478673 223.020624 
L 240.204645 223.178977 
L 240.930617 223.647924 
L 241.656588 224.61749 
L 243.834503 225.950637 
L 244.560475 226.166755 
L 246.012418 227.05818 
L 246.73839 228.080055 
L 247.464362 228.760875 
L 248.190334 229.227349 
L 248.916305 229.353512 
L 251.820192 230.678773 
L 252.546164 230.932501 
L 253.272135 231.439251 
L 253.998107 231.769964 
L 255.450051 233.744454 
L 256.176022 234.258446 
L 256.901994 234.412351 
L 258.353937 235.084602 
L 259.079909 235.642193 
L 259.805881 235.888257 
L 260.531852 237.149805 
L 261.257824 238.039354 
L 261.983796 238.206735 
L 263.435739 240.143886 
L 264.161711 240.446649 
L 264.887683 241.296391 
L 265.613654 241.848628 
L 267.065598 244.223644 
L 267.79157 244.821472 
L 269.969485 245.802302 
L 270.695456 246.61641 
L 271.421428 247.754915 
L 272.873371 248.480693 
L 273.599343 249.51631 
L 274.325315 249.835432 
L 275.051287 250.800505 
L 275.777258 252.020126 
L 276.50323 252.582194 
L 277.229202 253.504324 
L 277.955173 254.608502 
L 278.681145 254.885094 
L 280.133088 256.43886 
L 280.85906 256.886648 
L 281.585032 257.015511 
L 282.311004 257.88823 
L 284.488919 259.116152 
L 285.940862 259.569536 
L 288.118777 260.48721 
L 289.570721 262.081484 
L 290.296692 262.63729 
L 291.748636 263.217159 
L 292.474607 263.596675 
L 294.652523 264.041623 
L 295.378494 264.008974 
L 296.104466 264.21423 
L 296.830438 264.879503 
L 297.556409 265.288331 
L 299.008353 266.838789 
L 299.734324 267.203232 
L 300.460296 267.907128 
L 301.186268 268.263463 
L 303.364183 270.700387 
L 304.090155 271.015443 
L 306.26807 271.101647 
L 306.994041 271.043374 
L 307.720013 271.154259 
L 308.445985 271.12943 
L 310.6239 271.351212 
L 312.075843 271.243073 
L 315.705702 270.692603 
L 316.431674 271.397544 
L 317.157645 271.677778 
L 318.609589 271.709034 
L 320.061532 271.228391 
L 320.787504 271.295108 
L 321.513476 272.002539 
L 322.239447 272.429398 
L 323.691391 274.421068 
L 324.417362 274.987633 
L 325.869306 274.797207 
L 327.321249 274.464451 
L 329.499164 274.262332 
L 330.951108 273.815203 
L 332.403051 273.774338 
L 333.129023 274.513197 
L 333.854994 274.612058 
L 334.580966 274.308404 
L 335.306938 274.173292 
L 336.03291 274.213955 
L 336.758881 273.941621 
L 337.484853 274.340109 
L 338.210825 275.133311 
L 338.936796 275.106721 
L 340.38874 274.41836 
L 341.114711 274.666437 
L 341.840683 275.401764 
L 342.566655 275.924518 
L 343.292627 275.758429 
L 344.018598 275.789235 
L 344.74457 275.678106 
L 345.470542 276.41482 
L 346.196513 276.564196 
L 346.922485 276.270116 
L 347.648457 276.513084 
L 349.1004 276.160309 
L 350.552344 277.14149 
L 351.278315 277.088588 
L 352.004287 277.519144 
L 353.45623 278.862205 
L 354.182202 279.322369 
L 355.634146 278.838291 
L 357.086089 279.687315 
L 358.538032 279.033059 
L 359.264004 279.499813 
L 359.989976 279.260702 
L 360.715947 279.246713 
L 361.441919 279.811283 
L 362.167891 279.293322 
L 362.893863 280.025312 
L 363.619834 280.000284 
L 365.071778 281.318349 
L 365.797749 281.621772 
L 366.523721 281.76358 
L 367.249693 281.567026 
L 367.975664 281.201707 
L 368.701636 281.385157 
L 369.427608 281.243381 
L 370.15358 280.695722 
L 370.879551 281.136738 
L 371.605523 281.047556 
L 372.331495 281.257091 
L 373.057466 280.734454 
L 373.783438 280.360293 
L 375.235382 279.951786 
L 376.687325 278.430754 
L 377.413297 278.45823 
L 378.139268 278.942993 
L 378.86524 278.339852 
L 379.591212 278.242247 
L 380.317183 278.833083 
L 381.043155 279.022628 
L 382.495099 277.759141 
L 383.947042 276.666806 
L 384.673014 276.700036 
L 385.398985 276.329356 
L 386.124957 276.476748 
L 386.850929 276.766252 
L 387.5769 276.070753 
L 388.302872 275.956486 
L 389.754816 274.337035 
L 390.480787 274.089258 
L 391.932731 274.484866 
L 392.658702 273.63584 
L 393.384674 272.97072 
L 394.110646 272.944228 
L 395.562589 271.45328 
L 396.288561 270.669533 
L 397.014533 269.715301 
L 397.740504 268.954128 
L 399.192448 266.978101 
L 399.918419 266.553869 
L 401.370363 264.936161 
L 402.096335 264.702745 
L 402.822306 263.956779 
L 403.548278 263.491925 
L 404.27425 262.846498 
L 405.000221 261.78137 
L 405.726193 261.396305 
L 406.452165 261.195398 
L 409.356052 256.715367 
L 410.082023 255.410728 
L 410.807995 254.663327 
L 411.533967 254.078012 
L 412.98591 251.616831 
L 417.34174 243.628611 
L 418.067712 242.721746 
L 423.875486 229.93394 
L 424.601457 228.94347 
L 425.327429 227.398616 
L 426.053401 226.56959 
L 427.505344 222.989651 
L 428.231316 221.931733 
L 429.683259 218.300397 
L 431.135203 214.672078 
L 431.861174 212.639495 
L 432.587146 211.336774 
L 433.313118 209.647745 
L 434.039089 207.675071 
L 434.765061 206.615705 
L 436.217005 202.852476 
L 436.942976 200.741152 
L 440.572835 194.721353 
L 442.024778 191.017156 
L 443.476722 188.240643 
L 444.928665 184.421269 
L 447.10658 178.469821 
L 448.558523 173.651958 
L 449.284495 172.279142 
L 450.736439 168.763387 
L 451.46241 166.28355 
L 452.188382 164.332742 
L 452.914354 162.029686 
L 453.640325 160.104293 
L 454.366297 157.672761 
L 457.270184 150.233946 
L 457.996156 147.616571 
L 458.722127 145.488072 
L 459.448099 142.655899 
L 460.174071 140.324545 
L 460.900042 137.39703 
L 461.626014 135.3478 
L 463.077958 129.750502 
L 465.255873 123.554864 
L 466.707816 118.128185 
L 467.433788 115.497761 
L 468.159759 111.977444 
L 468.885731 109.68034 
L 471.789618 97.528964 
L 472.51559 95.010449 
L 473.967533 87.692191 
L 475.419476 82.019719 
L 476.87142 75.436919 
L 478.323363 68.62548 
L 480.501278 59.537085 
L 480.501278 59.537085 
" style="fill:none;stroke:#000000;stroke-dasharray:3.7,1.6;stroke-dashoffset:0;"/>
   </g>
   <g id="matplotlib.axis_1">
    <g id="xtick_1">
     <g id="line2d_5">
      <defs>
       <path d="M 0 0 
L 0 3.5 
" id="m8786568508" style="stroke:#000000;stroke-width:0.8;"/>
      </defs>
      <g>
       <use style="stroke:#000000;stroke-width:0.8;" x="95.736276" xlink:href="#m8786568508" y="294.118125"/>
      </g>
     </g>
     <g id="text_1">
      <!-- 100 -->
      <defs>
       <path d="M 12.40625 8.296875 
L 28.515625 8.296875 
L 28.515625 63.921875 
L 10.984375 60.40625 
L 10.984375 69.390625 
L 28.421875 72.90625 
L 38.28125 72.90625 
L 38.28125 8.296875 
L 54.390625 8.296875 
L 54.390625 0 
L 12.40625 0 
z
" id="DejaVuSans-49"/>
       <path d="M 31.78125 66.40625 
Q 24.171875 66.40625 20.328125 58.90625 
Q 16.5 51.421875 16.5 36.375 
Q 16.5 21.390625 20.328125 13.890625 
Q 24.171875 6.390625 31.78125 6.390625 
Q 39.453125 6.390625 43.28125 13.890625 
Q 47.125 21.390625 47.125 36.375 
Q 47.125 51.421875 43.28125 58.90625 
Q 39.453125 66.40625 31.78125 66.40625 
z
M 31.78125 74.21875 
Q 44.046875 74.21875 50.515625 64.515625 
Q 56.984375 54.828125 56.984375 36.375 
Q 56.984375 17.96875 50.515625 8.265625 
Q 44.046875 -1.421875 31.78125 -1.421875 
Q 19.53125 -1.421875 13.0625 8.265625 
Q 6.59375 17.96875 6.59375 36.375 
Q 6.59375 54.828125 13.0625 64.515625 
Q 19.53125 74.21875 31.78125 74.21875 
z
" id="DejaVuSans-48"/>
      </defs>
      <g transform="translate(86.192526 308.716563)scale(0.1 -0.1)">
       <use xlink:href="#DejaVuSans-49"/>
       <use x="63.623047" xlink:href="#DejaVuSans-48"/>
       <use x="127.246094" xlink:href="#DejaVuSans-48"/>
      </g>
     </g>
    </g>
    <g id="xtick_2">
     <g id="line2d_6">
      <g>
       <use style="stroke:#000000;stroke-width:0.8;" x="168.333446" xlink:href="#m8786568508" y="294.118125"/>
      </g>
     </g>
     <g id="text_2">
      <!-- 200 -->
      <defs>
       <path d="M 19.1875 8.296875 
L 53.609375 8.296875 
L 53.609375 0 
L 7.328125 0 
L 7.328125 8.296875 
Q 12.9375 14.109375 22.625 23.890625 
Q 32.328125 33.6875 34.8125 36.53125 
Q 39.546875 41.84375 41.421875 45.53125 
Q 43.3125 49.21875 43.3125 52.78125 
Q 43.3125 58.59375 39.234375 62.25 
Q 35.15625 65.921875 28.609375 65.921875 
Q 23.96875 65.921875 18.8125 64.3125 
Q 13.671875 62.703125 7.8125 59.421875 
L 7.8125 69.390625 
Q 13.765625 71.78125 18.9375 73 
Q 24.125 74.21875 28.421875 74.21875 
Q 39.75 74.21875 46.484375 68.546875 
Q 53.21875 62.890625 53.21875 53.421875 
Q 53.21875 48.921875 51.53125 44.890625 
Q 49.859375 40.875 45.40625 35.40625 
Q 44.1875 33.984375 37.640625 27.21875 
Q 31.109375 20.453125 19.1875 8.296875 
z
" id="DejaVuSans-50"/>
      </defs>
      <g transform="translate(158.789696 308.716563)scale(0.1 -0.1)">
       <use xlink:href="#DejaVuSans-50"/>
       <use x="63.623047" xlink:href="#DejaVuSans-48"/>
       <use x="127.246094" xlink:href="#DejaVuSans-48"/>
      </g>
     </g>
    </g>
    <g id="xtick_3">
     <g id="line2d_7">
      <g>
       <use style="stroke:#000000;stroke-width:0.8;" x="240.930617" xlink:href="#m8786568508" y="294.118125"/>
      </g>
     </g>
     <g id="text_3">
      <!-- 300 -->
      <defs>
       <path d="M 40.578125 39.3125 
Q 47.65625 37.796875 51.625 33 
Q 55.609375 28.21875 55.609375 21.1875 
Q 55.609375 10.40625 48.1875 4.484375 
Q 40.765625 -1.421875 27.09375 -1.421875 
Q 22.515625 -1.421875 17.65625 -0.515625 
Q 12.796875 0.390625 7.625 2.203125 
L 7.625 11.71875 
Q 11.71875 9.328125 16.59375 8.109375 
Q 21.484375 6.890625 26.8125 6.890625 
Q 36.078125 6.890625 40.9375 10.546875 
Q 45.796875 14.203125 45.796875 21.1875 
Q 45.796875 27.640625 41.28125 31.265625 
Q 36.765625 34.90625 28.71875 34.90625 
L 20.21875 34.90625 
L 20.21875 43.015625 
L 29.109375 43.015625 
Q 36.375 43.015625 40.234375 45.921875 
Q 44.09375 48.828125 44.09375 54.296875 
Q 44.09375 59.90625 40.109375 62.90625 
Q 36.140625 65.921875 28.71875 65.921875 
Q 24.65625 65.921875 20.015625 65.03125 
Q 15.375 64.15625 9.8125 62.3125 
L 9.8125 71.09375 
Q 15.4375 72.65625 20.34375 73.4375 
Q 25.25 74.21875 29.59375 74.21875 
Q 40.828125 74.21875 47.359375 69.109375 
Q 53.90625 64.015625 53.90625 55.328125 
Q 53.90625 49.265625 50.4375 45.09375 
Q 46.96875 40.921875 40.578125 39.3125 
z
" id="DejaVuSans-51"/>
      </defs>
      <g transform="translate(231.386867 308.716563)scale(0.1 -0.1)">
       <use xlink:href="#DejaVuSans-51"/>
       <use x="63.623047" xlink:href="#DejaVuSans-48"/>
       <use x="127.246094" xlink:href="#DejaVuSans-48"/>
      </g>
     </g>
    </g>
    <g id="xtick_4">
     <g id="line2d_8">
      <g>
       <use style="stroke:#000000;stroke-width:0.8;" x="313.527787" xlink:href="#m8786568508" y="294.118125"/>
      </g>
     </g>
     <g id="text_4">
      <!-- 400 -->
      <defs>
       <path d="M 37.796875 64.3125 
L 12.890625 25.390625 
L 37.796875 25.390625 
z
M 35.203125 72.90625 
L 47.609375 72.90625 
L 47.609375 25.390625 
L 58.015625 25.390625 
L 58.015625 17.1875 
L 47.609375 17.1875 
L 47.609375 0 
L 37.796875 0 
L 37.796875 17.1875 
L 4.890625 17.1875 
L 4.890625 26.703125 
z
" id="DejaVuSans-52"/>
      </defs>
      <g transform="translate(303.984037 308.716563)scale(0.1 -0.1)">
       <use xlink:href="#DejaVuSans-52"/>
       <use x="63.623047" xlink:href="#DejaVuSans-48"/>
       <use x="127.246094" xlink:href="#DejaVuSans-48"/>
      </g>
     </g>
    </g>
    <g id="xtick_5">
     <g id="line2d_9">
      <g>
       <use style="stroke:#000000;stroke-width:0.8;" x="386.124957" xlink:href="#m8786568508" y="294.118125"/>
      </g>
     </g>
     <g id="text_5">
      <!-- 500 -->
      <defs>
       <path d="M 10.796875 72.90625 
L 49.515625 72.90625 
L 49.515625 64.59375 
L 19.828125 64.59375 
L 19.828125 46.734375 
Q 21.96875 47.46875 24.109375 47.828125 
Q 26.265625 48.1875 28.421875 48.1875 
Q 40.625 48.1875 47.75 41.5 
Q 54.890625 34.8125 54.890625 23.390625 
Q 54.890625 11.625 47.5625 5.09375 
Q 40.234375 -1.421875 26.90625 -1.421875 
Q 22.3125 -1.421875 17.546875 -0.640625 
Q 12.796875 0.140625 7.71875 1.703125 
L 7.71875 11.625 
Q 12.109375 9.234375 16.796875 8.0625 
Q 21.484375 6.890625 26.703125 6.890625 
Q 35.15625 6.890625 40.078125 11.328125 
Q 45.015625 15.765625 45.015625 23.390625 
Q 45.015625 31 40.078125 35.4375 
Q 35.15625 39.890625 26.703125 39.890625 
Q 22.75 39.890625 18.8125 39.015625 
Q 14.890625 38.140625 10.796875 36.28125 
z
" id="DejaVuSans-53"/>
      </defs>
      <g transform="translate(376.581207 308.716563)scale(0.1 -0.1)">
       <use xlink:href="#DejaVuSans-53"/>
       <use x="63.623047" xlink:href="#DejaVuSans-48"/>
       <use x="127.246094" xlink:href="#DejaVuSans-48"/>
      </g>
     </g>
    </g>
    <g id="xtick_6">
     <g id="line2d_10">
      <g>
       <use style="stroke:#000000;stroke-width:0.8;" x="458.722127" xlink:href="#m8786568508" y="294.118125"/>
      </g>
     </g>
     <g id="text_6">
      <!-- 600 -->
      <defs>
       <path d="M 33.015625 40.375 
Q 26.375 40.375 22.484375 35.828125 
Q 18.609375 31.296875 18.609375 23.390625 
Q 18.609375 15.53125 22.484375 10.953125 
Q 26.375 6.390625 33.015625 6.390625 
Q 39.65625 6.390625 43.53125 10.953125 
Q 47.40625 15.53125 47.40625 23.390625 
Q 47.40625 31.296875 43.53125 35.828125 
Q 39.65625 40.375 33.015625 40.375 
z
M 52.59375 71.296875 
L 52.59375 62.3125 
Q 48.875 64.0625 45.09375 64.984375 
Q 41.3125 65.921875 37.59375 65.921875 
Q 27.828125 65.921875 22.671875 59.328125 
Q 17.53125 52.734375 16.796875 39.40625 
Q 19.671875 43.65625 24.015625 45.921875 
Q 28.375 48.1875 33.59375 48.1875 
Q 44.578125 48.1875 50.953125 41.515625 
Q 57.328125 34.859375 57.328125 23.390625 
Q 57.328125 12.15625 50.6875 5.359375 
Q 44.046875 -1.421875 33.015625 -1.421875 
Q 20.359375 -1.421875 13.671875 8.265625 
Q 6.984375 17.96875 6.984375 36.375 
Q 6.984375 53.65625 15.1875 63.9375 
Q 23.390625 74.21875 37.203125 74.21875 
Q 40.921875 74.21875 44.703125 73.484375 
Q 48.484375 72.75 52.59375 71.296875 
z
" id="DejaVuSans-54"/>
      </defs>
      <g transform="translate(449.178377 308.716563)scale(0.1 -0.1)">
       <use xlink:href="#DejaVuSans-54"/>
       <use x="63.623047" xlink:href="#DejaVuSans-48"/>
       <use x="127.246094" xlink:href="#DejaVuSans-48"/>
      </g>
     </g>
    </g>
    <g id="text_7">
     <!-- Tempo -->
     <defs>
      <path d="M -0.296875 72.90625 
L 61.375 72.90625 
L 61.375 64.59375 
L 35.5 64.59375 
L 35.5 0 
L 25.59375 0 
L 25.59375 64.59375 
L -0.296875 64.59375 
z
" id="DejaVuSans-84"/>
      <path d="M 56.203125 29.59375 
L 56.203125 25.203125 
L 14.890625 25.203125 
Q 15.484375 15.921875 20.484375 11.0625 
Q 25.484375 6.203125 34.421875 6.203125 
Q 39.59375 6.203125 44.453125 7.46875 
Q 49.3125 8.734375 54.109375 11.28125 
L 54.109375 2.78125 
Q 49.265625 0.734375 44.1875 -0.34375 
Q 39.109375 -1.421875 33.890625 -1.421875 
Q 20.796875 -1.421875 13.15625 6.1875 
Q 5.515625 13.8125 5.515625 26.8125 
Q 5.515625 40.234375 12.765625 48.109375 
Q 20.015625 56 32.328125 56 
Q 43.359375 56 49.78125 48.890625 
Q 56.203125 41.796875 56.203125 29.59375 
z
M 47.21875 32.234375 
Q 47.125 39.59375 43.09375 43.984375 
Q 39.0625 48.390625 32.421875 48.390625 
Q 24.90625 48.390625 20.390625 44.140625 
Q 15.875 39.890625 15.1875 32.171875 
z
" id="DejaVuSans-101"/>
      <path d="M 52 44.1875 
Q 55.375 50.25 60.0625 53.125 
Q 64.75 56 71.09375 56 
Q 79.640625 56 84.28125 50.015625 
Q 88.921875 44.046875 88.921875 33.015625 
L 88.921875 0 
L 79.890625 0 
L 79.890625 32.71875 
Q 79.890625 40.578125 77.09375 44.375 
Q 74.3125 48.1875 68.609375 48.1875 
Q 61.625 48.1875 57.5625 43.546875 
Q 53.515625 38.921875 53.515625 30.90625 
L 53.515625 0 
L 44.484375 0 
L 44.484375 32.71875 
Q 44.484375 40.625 41.703125 44.40625 
Q 38.921875 48.1875 33.109375 48.1875 
Q 26.21875 48.1875 22.15625 43.53125 
Q 18.109375 38.875 18.109375 30.90625 
L 18.109375 0 
L 9.078125 0 
L 9.078125 54.6875 
L 18.109375 54.6875 
L 18.109375 46.1875 
Q 21.1875 51.21875 25.484375 53.609375 
Q 29.78125 56 35.6875 56 
Q 41.65625 56 45.828125 52.96875 
Q 50 49.953125 52 44.1875 
z
" id="DejaVuSans-109"/>
      <path d="M 18.109375 8.203125 
L 18.109375 -20.796875 
L 9.078125 -20.796875 
L 9.078125 54.6875 
L 18.109375 54.6875 
L 18.109375 46.390625 
Q 20.953125 51.265625 25.265625 53.625 
Q 29.59375 56 35.59375 56 
Q 45.5625 56 51.78125 48.09375 
Q 58.015625 40.1875 58.015625 27.296875 
Q 58.015625 14.40625 51.78125 6.484375 
Q 45.5625 -1.421875 35.59375 -1.421875 
Q 29.59375 -1.421875 25.265625 0.953125 
Q 20.953125 3.328125 18.109375 8.203125 
z
M 48.6875 27.296875 
Q 48.6875 37.203125 44.609375 42.84375 
Q 40.53125 48.484375 33.40625 48.484375 
Q 26.265625 48.484375 22.1875 42.84375 
Q 18.109375 37.203125 18.109375 27.296875 
Q 18.109375 17.390625 22.1875 11.75 
Q 26.265625 6.109375 33.40625 6.109375 
Q 40.53125 6.109375 44.609375 11.75 
Q 48.6875 17.390625 48.6875 27.296875 
z
" id="DejaVuSans-112"/>
      <path d="M 30.609375 48.390625 
Q 23.390625 48.390625 19.1875 42.75 
Q 14.984375 37.109375 14.984375 27.296875 
Q 14.984375 17.484375 19.15625 11.84375 
Q 23.34375 6.203125 30.609375 6.203125 
Q 37.796875 6.203125 41.984375 11.859375 
Q 46.1875 17.53125 46.1875 27.296875 
Q 46.1875 37.015625 41.984375 42.703125 
Q 37.796875 48.390625 30.609375 48.390625 
z
M 30.609375 56 
Q 42.328125 56 49.015625 48.375 
Q 55.71875 40.765625 55.71875 27.296875 
Q 55.71875 13.875 49.015625 6.21875 
Q 42.328125 -1.421875 30.609375 -1.421875 
Q 18.84375 -1.421875 12.171875 6.21875 
Q 5.515625 13.875 5.515625 27.296875 
Q 5.515625 40.765625 12.171875 48.375 
Q 18.84375 56 30.609375 56 
z
" id="DejaVuSans-111"/>
     </defs>
     <g transform="translate(261.207813 322.394687)scale(0.1 -0.1)">
      <use xlink:href="#DejaVuSans-84"/>
      <use x="44.083984" xlink:href="#DejaVuSans-101"/>
      <use x="105.607422" xlink:href="#DejaVuSans-109"/>
      <use x="203.019531" xlink:href="#DejaVuSans-112"/>
      <use x="266.496094" xlink:href="#DejaVuSans-111"/>
     </g>
    </g>
   </g>
   <g id="matplotlib.axis_2">
    <g id="ytick_1">
     <g id="line2d_11">
      <defs>
       <path d="M 0 0 
L -3.5 0 
" id="m1a775ebf63" style="stroke:#000000;stroke-width:0.8;"/>
      </defs>
      <g>
       <use style="stroke:#000000;stroke-width:0.8;" x="54.392188" xlink:href="#m1a775ebf63" y="269.021682"/>
      </g>
     </g>
     <g id="text_8">
      <!-- 70000 -->
      <defs>
       <path d="M 10.59375 35.5 
L 73.1875 35.5 
L 73.1875 27.203125 
L 10.59375 27.203125 
z
" id="DejaVuSans-8722"/>
       <path d="M 8.203125 72.90625 
L 55.078125 72.90625 
L 55.078125 68.703125 
L 28.609375 0 
L 18.3125 0 
L 43.21875 64.59375 
L 8.203125 64.59375 
z
" id="DejaVuSans-55"/>
      </defs>
      <g transform="translate(7.2 272.8209)scale(0.1 -0.1)">
       <use xlink:href="#DejaVuSans-8722"/>
       <use x="83.789062" xlink:href="#DejaVuSans-55"/>
       <use x="147.412109" xlink:href="#DejaVuSans-48"/>
       <use x="211.035156" xlink:href="#DejaVuSans-48"/>
       <use x="274.658203" xlink:href="#DejaVuSans-48"/>
       <use x="338.28125" xlink:href="#DejaVuSans-48"/>
      </g>
     </g>
    </g>
    <g id="ytick_2">
     <g id="line2d_12">
      <g>
       <use style="stroke:#000000;stroke-width:0.8;" x="54.392188" xlink:href="#m1a775ebf63" y="234.003631"/>
      </g>
     </g>
     <g id="text_9">
      <!-- 60000 -->
      <g transform="translate(7.2 237.802849)scale(0.1 -0.1)">
       <use xlink:href="#DejaVuSans-8722"/>
       <use x="83.789062" xlink:href="#DejaVuSans-54"/>
       <use x="147.412109" xlink:href="#DejaVuSans-48"/>
       <use x="211.035156" xlink:href="#DejaVuSans-48"/>
       <use x="274.658203" xlink:href="#DejaVuSans-48"/>
       <use x="338.28125" xlink:href="#DejaVuSans-48"/>
      </g>
     </g>
    </g>
    <g id="ytick_3">
     <g id="line2d_13">
      <g>
       <use style="stroke:#000000;stroke-width:0.8;" x="54.392188" xlink:href="#m1a775ebf63" y="198.985579"/>
      </g>
     </g>
     <g id="text_10">
      <!-- 50000 -->
      <g transform="translate(7.2 202.784798)scale(0.1 -0.1)">
       <use xlink:href="#DejaVuSans-8722"/>
       <use x="83.789062" xlink:href="#DejaVuSans-53"/>
       <use x="147.412109" xlink:href="#DejaVuSans-48"/>
       <use x="211.035156" xlink:href="#DejaVuSans-48"/>
       <use x="274.658203" xlink:href="#DejaVuSans-48"/>
       <use x="338.28125" xlink:href="#DejaVuSans-48"/>
      </g>
     </g>
    </g>
    <g id="ytick_4">
     <g id="line2d_14">
      <g>
       <use style="stroke:#000000;stroke-width:0.8;" x="54.392188" xlink:href="#m1a775ebf63" y="163.967528"/>
      </g>
     </g>
     <g id="text_11">
      <!-- 40000 -->
      <g transform="translate(7.2 167.766747)scale(0.1 -0.1)">
       <use xlink:href="#DejaVuSans-8722"/>
       <use x="83.789062" xlink:href="#DejaVuSans-52"/>
       <use x="147.412109" xlink:href="#DejaVuSans-48"/>
       <use x="211.035156" xlink:href="#DejaVuSans-48"/>
       <use x="274.658203" xlink:href="#DejaVuSans-48"/>
       <use x="338.28125" xlink:href="#DejaVuSans-48"/>
      </g>
     </g>
    </g>
    <g id="ytick_5">
     <g id="line2d_15">
      <g>
       <use style="stroke:#000000;stroke-width:0.8;" x="54.392188" xlink:href="#m1a775ebf63" y="128.949477"/>
      </g>
     </g>
     <g id="text_12">
      <!-- 30000 -->
      <g transform="translate(7.2 132.748696)scale(0.1 -0.1)">
       <use xlink:href="#DejaVuSans-8722"/>
       <use x="83.789062" xlink:href="#DejaVuSans-51"/>
       <use x="147.412109" xlink:href="#DejaVuSans-48"/>
       <use x="211.035156" xlink:href="#DejaVuSans-48"/>
       <use x="274.658203" xlink:href="#DejaVuSans-48"/>
       <use x="338.28125" xlink:href="#DejaVuSans-48"/>
      </g>
     </g>
    </g>
    <g id="ytick_6">
     <g id="line2d_16">
      <g>
       <use style="stroke:#000000;stroke-width:0.8;" x="54.392188" xlink:href="#m1a775ebf63" y="93.931426"/>
      </g>
     </g>
     <g id="text_13">
      <!-- 20000 -->
      <g transform="translate(7.2 97.730645)scale(0.1 -0.1)">
       <use xlink:href="#DejaVuSans-8722"/>
       <use x="83.789062" xlink:href="#DejaVuSans-50"/>
       <use x="147.412109" xlink:href="#DejaVuSans-48"/>
       <use x="211.035156" xlink:href="#DejaVuSans-48"/>
       <use x="274.658203" xlink:href="#DejaVuSans-48"/>
       <use x="338.28125" xlink:href="#DejaVuSans-48"/>
      </g>
     </g>
    </g>
    <g id="ytick_7">
     <g id="line2d_17">
      <g>
       <use style="stroke:#000000;stroke-width:0.8;" x="54.392188" xlink:href="#m1a775ebf63" y="58.913375"/>
      </g>
     </g>
     <g id="text_14">
      <!-- 10000 -->
      <g transform="translate(7.2 62.712594)scale(0.1 -0.1)">
       <use xlink:href="#DejaVuSans-8722"/>
       <use x="83.789062" xlink:href="#DejaVuSans-49"/>
       <use x="147.412109" xlink:href="#DejaVuSans-48"/>
       <use x="211.035156" xlink:href="#DejaVuSans-48"/>
       <use x="274.658203" xlink:href="#DejaVuSans-48"/>
       <use x="338.28125" xlink:href="#DejaVuSans-48"/>
      </g>
     </g>
    </g>
    <g id="ytick_8">
     <g id="line2d_18">
      <g>
       <use style="stroke:#000000;stroke-width:0.8;" x="54.392188" xlink:href="#m1a775ebf63" y="23.895324"/>
      </g>
     </g>
     <g id="text_15">
      <!-- 0 -->
      <g transform="translate(41.029688 27.694543)scale(0.1 -0.1)">
       <use xlink:href="#DejaVuSans-48"/>
      </g>
     </g>
    </g>
   </g>
   <g id="patch_3">
    <path d="M 54.392188 294.118125 
L 54.392188 22.318125 
" style="fill:none;stroke:#000000;stroke-linecap:square;stroke-linejoin:miter;stroke-width:0.8;"/>
   </g>
   <g id="patch_4">
    <path d="M 54.392188 294.118125 
L 500.792187 294.118125 
" style="fill:none;stroke:#000000;stroke-linecap:square;stroke-linejoin:miter;stroke-width:0.8;"/>
   </g>
   <g id="text_16">
    <!-- Gov_Debt -->
    <defs>
     <path d="M 59.515625 10.40625 
L 59.515625 29.984375 
L 43.40625 29.984375 
L 43.40625 38.09375 
L 69.28125 38.09375 
L 69.28125 6.78125 
Q 63.578125 2.734375 56.6875 0.65625 
Q 49.8125 -1.421875 42 -1.421875 
Q 24.90625 -1.421875 15.25 8.5625 
Q 5.609375 18.5625 5.609375 36.375 
Q 5.609375 54.25 15.25 64.234375 
Q 24.90625 74.21875 42 74.21875 
Q 49.125 74.21875 55.546875 72.453125 
Q 61.96875 70.703125 67.390625 67.28125 
L 67.390625 56.78125 
Q 61.921875 61.421875 55.765625 63.765625 
Q 49.609375 66.109375 42.828125 66.109375 
Q 29.4375 66.109375 22.71875 58.640625 
Q 16.015625 51.171875 16.015625 36.375 
Q 16.015625 21.625 22.71875 14.15625 
Q 29.4375 6.6875 42.828125 6.6875 
Q 48.046875 6.6875 52.140625 7.59375 
Q 56.25 8.5 59.515625 10.40625 
z
" id="DejaVuSans-71"/>
     <path d="M 2.984375 54.6875 
L 12.5 54.6875 
L 29.59375 8.796875 
L 46.6875 54.6875 
L 56.203125 54.6875 
L 35.6875 0 
L 23.484375 0 
z
" id="DejaVuSans-118"/>
     <path d="M 50.984375 -16.609375 
L 50.984375 -23.578125 
L -0.984375 -23.578125 
L -0.984375 -16.609375 
z
" id="DejaVuSans-95"/>
     <path d="M 19.671875 64.796875 
L 19.671875 8.109375 
L 31.59375 8.109375 
Q 46.6875 8.109375 53.6875 14.9375 
Q 60.6875 21.78125 60.6875 36.53125 
Q 60.6875 51.171875 53.6875 57.984375 
Q 46.6875 64.796875 31.59375 64.796875 
z
M 9.8125 72.90625 
L 30.078125 72.90625 
Q 51.265625 72.90625 61.171875 64.09375 
Q 71.09375 55.28125 71.09375 36.53125 
Q 71.09375 17.671875 61.125 8.828125 
Q 51.171875 0 30.078125 0 
L 9.8125 0 
z
" id="DejaVuSans-68"/>
     <path d="M 48.6875 27.296875 
Q 48.6875 37.203125 44.609375 42.84375 
Q 40.53125 48.484375 33.40625 48.484375 
Q 26.265625 48.484375 22.1875 42.84375 
Q 18.109375 37.203125 18.109375 27.296875 
Q 18.109375 17.390625 22.1875 11.75 
Q 26.265625 6.109375 33.40625 6.109375 
Q 40.53125 6.109375 44.609375 11.75 
Q 48.6875 17.390625 48.6875 27.296875 
z
M 18.109375 46.390625 
Q 20.953125 51.265625 25.265625 53.625 
Q 29.59375 56 35.59375 56 
Q 45.5625 56 51.78125 48.09375 
Q 58.015625 40.1875 58.015625 27.296875 
Q 58.015625 14.40625 51.78125 6.484375 
Q 45.5625 -1.421875 35.59375 -1.421875 
Q 29.59375 -1.421875 25.265625 0.953125 
Q 20.953125 3.328125 18.109375 8.203125 
L 18.109375 0 
L 9.078125 0 
L 9.078125 75.984375 
L 18.109375 75.984375 
z
" id="DejaVuSans-98"/>
     <path d="M 18.3125 70.21875 
L 18.3125 54.6875 
L 36.8125 54.6875 
L 36.8125 47.703125 
L 18.3125 47.703125 
L 18.3125 18.015625 
Q 18.3125 11.328125 20.140625 9.421875 
Q 21.96875 7.515625 27.59375 7.515625 
L 36.8125 7.515625 
L 36.8125 0 
L 27.59375 0 
Q 17.1875 0 13.234375 3.875 
Q 9.28125 7.765625 9.28125 18.015625 
L 9.28125 47.703125 
L 2.6875 47.703125 
L 2.6875 54.6875 
L 9.28125 54.6875 
L 9.28125 70.21875 
z
" id="DejaVuSans-116"/>
    </defs>
    <g transform="translate(248.2475 16.318125)scale(0.12 -0.12)">
     <use xlink:href="#DejaVuSans-71"/>
     <use x="77.490234" xlink:href="#DejaVuSans-111"/>
     <use x="138.671875" xlink:href="#DejaVuSans-118"/>
     <use x="197.851562" xlink:href="#DejaVuSans-95"/>
     <use x="247.851562" xlink:href="#DejaVuSans-68"/>
     <use x="324.853516" xlink:href="#DejaVuSans-101"/>
     <use x="386.376953" xlink:href="#DejaVuSans-98"/>
     <use x="449.853516" xlink:href="#DejaVuSans-116"/>
    </g>
   </g>
   <g id="legend_1">
    <g id="patch_5">
     <path d="M 507.792187 190.104844 
L 582.190625 190.104844 
Q 584.190625 190.104844 584.190625 188.104844 
L 584.190625 128.331406 
Q 584.190625 126.331406 582.190625 126.331406 
L 507.792187 126.331406 
Q 505.792187 126.331406 505.792187 128.331406 
L 505.792187 188.104844 
Q 505.792187 190.104844 507.792187 190.104844 
z
" style="fill:#ffffff;opacity:0.8;stroke:#cccccc;stroke-linejoin:miter;"/>
    </g>
    <g id="line2d_19">
     <path d="M 509.792187 134.429844 
L 529.792187 134.429844 
" style="fill:none;stroke:#000000;stroke-dasharray:3.7,1.6;stroke-dashoffset:0;"/>
    </g>
    <g id="line2d_20"/>
    <g id="text_17">
     <!-- Baseline -->
     <defs>
      <path d="M 19.671875 34.8125 
L 19.671875 8.109375 
L 35.5 8.109375 
Q 43.453125 8.109375 47.28125 11.40625 
Q 51.125 14.703125 51.125 21.484375 
Q 51.125 28.328125 47.28125 31.5625 
Q 43.453125 34.8125 35.5 34.8125 
z
M 19.671875 64.796875 
L 19.671875 42.828125 
L 34.28125 42.828125 
Q 41.5 42.828125 45.03125 45.53125 
Q 48.578125 48.25 48.578125 53.8125 
Q 48.578125 59.328125 45.03125 62.0625 
Q 41.5 64.796875 34.28125 64.796875 
z
M 9.8125 72.90625 
L 35.015625 72.90625 
Q 46.296875 72.90625 52.390625 68.21875 
Q 58.5 63.53125 58.5 54.890625 
Q 58.5 48.1875 55.375 44.234375 
Q 52.25 40.28125 46.1875 39.3125 
Q 53.46875 37.75 57.5 32.78125 
Q 61.53125 27.828125 61.53125 20.40625 
Q 61.53125 10.640625 54.890625 5.3125 
Q 48.25 0 35.984375 0 
L 9.8125 0 
z
" id="DejaVuSans-66"/>
      <path d="M 34.28125 27.484375 
Q 23.390625 27.484375 19.1875 25 
Q 14.984375 22.515625 14.984375 16.5 
Q 14.984375 11.71875 18.140625 8.90625 
Q 21.296875 6.109375 26.703125 6.109375 
Q 34.1875 6.109375 38.703125 11.40625 
Q 43.21875 16.703125 43.21875 25.484375 
L 43.21875 27.484375 
z
M 52.203125 31.203125 
L 52.203125 0 
L 43.21875 0 
L 43.21875 8.296875 
Q 40.140625 3.328125 35.546875 0.953125 
Q 30.953125 -1.421875 24.3125 -1.421875 
Q 15.921875 -1.421875 10.953125 3.296875 
Q 6 8.015625 6 15.921875 
Q 6 25.140625 12.171875 29.828125 
Q 18.359375 34.515625 30.609375 34.515625 
L 43.21875 34.515625 
L 43.21875 35.40625 
Q 43.21875 41.609375 39.140625 45 
Q 35.0625 48.390625 27.6875 48.390625 
Q 23 48.390625 18.546875 47.265625 
Q 14.109375 46.140625 10.015625 43.890625 
L 10.015625 52.203125 
Q 14.9375 54.109375 19.578125 55.046875 
Q 24.21875 56 28.609375 56 
Q 40.484375 56 46.34375 49.84375 
Q 52.203125 43.703125 52.203125 31.203125 
z
" id="DejaVuSans-97"/>
      <path d="M 44.28125 53.078125 
L 44.28125 44.578125 
Q 40.484375 46.53125 36.375 47.5 
Q 32.28125 48.484375 27.875 48.484375 
Q 21.1875 48.484375 17.84375 46.4375 
Q 14.5 44.390625 14.5 40.28125 
Q 14.5 37.15625 16.890625 35.375 
Q 19.28125 33.59375 26.515625 31.984375 
L 29.59375 31.296875 
Q 39.15625 29.25 43.1875 25.515625 
Q 47.21875 21.78125 47.21875 15.09375 
Q 47.21875 7.46875 41.1875 3.015625 
Q 35.15625 -1.421875 24.609375 -1.421875 
Q 20.21875 -1.421875 15.453125 -0.5625 
Q 10.6875 0.296875 5.421875 2 
L 5.421875 11.28125 
Q 10.40625 8.6875 15.234375 7.390625 
Q 20.0625 6.109375 24.8125 6.109375 
Q 31.15625 6.109375 34.5625 8.28125 
Q 37.984375 10.453125 37.984375 14.40625 
Q 37.984375 18.0625 35.515625 20.015625 
Q 33.0625 21.96875 24.703125 23.78125 
L 21.578125 24.515625 
Q 13.234375 26.265625 9.515625 29.90625 
Q 5.8125 33.546875 5.8125 39.890625 
Q 5.8125 47.609375 11.28125 51.796875 
Q 16.75 56 26.8125 56 
Q 31.78125 56 36.171875 55.265625 
Q 40.578125 54.546875 44.28125 53.078125 
z
" id="DejaVuSans-115"/>
      <path d="M 9.421875 75.984375 
L 18.40625 75.984375 
L 18.40625 0 
L 9.421875 0 
z
" id="DejaVuSans-108"/>
      <path d="M 9.421875 54.6875 
L 18.40625 54.6875 
L 18.40625 0 
L 9.421875 0 
z
M 9.421875 75.984375 
L 18.40625 75.984375 
L 18.40625 64.59375 
L 9.421875 64.59375 
z
" id="DejaVuSans-105"/>
      <path d="M 54.890625 33.015625 
L 54.890625 0 
L 45.90625 0 
L 45.90625 32.71875 
Q 45.90625 40.484375 42.875 44.328125 
Q 39.84375 48.1875 33.796875 48.1875 
Q 26.515625 48.1875 22.3125 43.546875 
Q 18.109375 38.921875 18.109375 30.90625 
L 18.109375 0 
L 9.078125 0 
L 9.078125 54.6875 
L 18.109375 54.6875 
L 18.109375 46.1875 
Q 21.34375 51.125 25.703125 53.5625 
Q 30.078125 56 35.796875 56 
Q 45.21875 56 50.046875 50.171875 
Q 54.890625 44.34375 54.890625 33.015625 
z
" id="DejaVuSans-110"/>
     </defs>
     <g transform="translate(537.792187 137.929844)scale(0.1 -0.1)">
      <use xlink:href="#DejaVuSans-66"/>
      <use x="68.603516" xlink:href="#DejaVuSans-97"/>
      <use x="129.882812" xlink:href="#DejaVuSans-115"/>
      <use x="181.982422" xlink:href="#DejaVuSans-101"/>
      <use x="243.505859" xlink:href="#DejaVuSans-108"/>
      <use x="271.289062" xlink:href="#DejaVuSans-105"/>
      <use x="299.072266" xlink:href="#DejaVuSans-110"/>
      <use x="362.451172" xlink:href="#DejaVuSans-101"/>
     </g>
    </g>
    <g id="line2d_21">
     <path d="M 509.792187 149.107969 
L 529.792187 149.107969 
" style="fill:none;stroke:#1f77b4;stroke-linecap:square;stroke-width:1.5;"/>
    </g>
    <g id="line2d_22"/>
    <g id="text_18">
     <!-- $\Downarrow \sigma_\psi$ -->
     <defs>
      <path d="M 36.765625 14.3125 
L 41.9375 9.234375 
L 47.015625 14.3125 
L 47.015625 72.90625 
L 52.875 72.90625 
L 52.875 20.171875 
L 57.46875 24.75 
L 63.328125 18.890625 
L 44.09375 -0.34375 
L 39.703125 -0.34375 
L 20.5625 18.890625 
L 26.421875 24.75 
L 30.90625 20.171875 
L 30.90625 72.90625 
L 36.765625 72.90625 
z
" id="DejaVuSans-8659"/>
      <path d="M 34.671875 47.5625 
Q 27.25 47.5625 22.21875 42.1875 
Q 16.890625 36.578125 15.140625 27.296875 
Q 13.1875 17.484375 16.3125 11.8125 
Q 19.390625 6.203125 26.65625 6.203125 
Q 33.84375 6.203125 39.109375 11.859375 
Q 44.4375 17.53125 46.34375 27.296875 
Q 48.046875 36.234375 45.015625 42.1875 
Q 42.1875 47.5625 34.671875 47.5625 
z
M 36.078125 54.734375 
L 65.921875 54.6875 
L 64.15625 45.703125 
L 54.109375 45.703125 
Q 57.90625 38.09375 55.859375 27.296875 
Q 53.21875 13.875 45.0625 6.25 
Q 36.859375 -1.421875 25.140625 -1.421875 
Q 13.375 -1.421875 8.203125 6.25 
Q 3.03125 13.875 5.671875 27.296875 
Q 8.25 40.765625 16.40625 48.390625 
Q 23.1875 54.734375 36.078125 54.734375 
z
" id="DejaVuSans-Oblique-963"/>
      <path d="M 24.859375 -1.21875 
Q 13.921875 0.59375 9.625 5.328125 
Q 4.34375 11.140625 6.640625 23 
L 12.796875 54.6875 
L 21.875 54.6875 
L 15.765625 23.34375 
Q 14.0625 14.40625 17.484375 10.6875 
Q 20.515625 7.46875 26.421875 6.78125 
L 35.6875 54.6875 
L 44.625 54.6875 
L 35.359375 6.84375 
Q 41.890625 7.515625 45.75 10.75 
Q 50.734375 14.84375 52.390625 23.390625 
L 58.453125 54.6875 
L 67.53125 54.6875 
L 61.375 23.046875 
Q 58.984375 10.75 51.5625 5.375 
Q 44.875 0.53125 33.796875 -1.171875 
L 29.984375 -20.796875 
L 21.046875 -20.796875 
z
" id="DejaVuSans-Oblique-968"/>
     </defs>
     <g transform="translate(537.792187 152.607969)scale(0.1 -0.1)">
      <use transform="translate(19.482422 0.09375)" xlink:href="#DejaVuSans-8659"/>
      <use transform="translate(122.753906 0.09375)" xlink:href="#DejaVuSans-Oblique-963"/>
      <use transform="translate(186.132812 -16.3125)scale(0.7)" xlink:href="#DejaVuSans-Oblique-968"/>
     </g>
    </g>
    <g id="line2d_23">
     <path d="M 509.792187 164.806406 
L 529.792187 164.806406 
" style="fill:none;stroke:#ff7f0e;stroke-linecap:square;stroke-width:1.5;"/>
    </g>
    <g id="line2d_24"/>
    <g id="text_19">
     <!-- $\Downarrow s_\psi$ -->
     <defs>
      <path d="M 50 53.078125 
L 48.296875 44.578125 
Q 44.734375 46.53125 40.765625 47.5 
Q 36.8125 48.484375 32.625 48.484375 
Q 25.53125 48.484375 21.453125 46.0625 
Q 17.390625 43.65625 17.390625 39.5 
Q 17.390625 34.671875 26.859375 32.078125 
Q 27.59375 31.890625 27.9375 31.78125 
L 30.8125 30.90625 
Q 39.796875 28.421875 42.796875 25.6875 
Q 45.796875 22.953125 45.796875 18.21875 
Q 45.796875 9.515625 38.890625 4.046875 
Q 31.984375 -1.421875 20.796875 -1.421875 
Q 16.453125 -1.421875 11.671875 -0.578125 
Q 6.890625 0.25 1.125 2 
L 2.875 11.28125 
Q 7.8125 8.734375 12.59375 7.421875 
Q 17.390625 6.109375 21.78125 6.109375 
Q 28.375 6.109375 32.5 8.9375 
Q 36.625 11.765625 36.625 16.109375 
Q 36.625 20.796875 25.78125 23.6875 
L 24.859375 23.921875 
L 21.78125 24.703125 
Q 14.9375 26.515625 11.765625 29.46875 
Q 8.59375 32.421875 8.59375 37.015625 
Q 8.59375 45.75 15.15625 50.875 
Q 21.734375 56 33.015625 56 
Q 37.453125 56 41.671875 55.265625 
Q 45.90625 54.546875 50 53.078125 
z
" id="DejaVuSans-Oblique-115"/>
     </defs>
     <g transform="translate(537.792187 168.306406)scale(0.1 -0.1)">
      <use transform="translate(19.482422 0.09375)" xlink:href="#DejaVuSans-8659"/>
      <use transform="translate(122.753906 0.09375)" xlink:href="#DejaVuSans-Oblique-115"/>
      <use transform="translate(174.853516 -16.3125)scale(0.7)" xlink:href="#DejaVuSans-Oblique-968"/>
     </g>
    </g>
    <g id="line2d_25">
     <path d="M 509.792187 180.504844 
L 529.792187 180.504844 
" style="fill:none;stroke:#2ca02c;stroke-linecap:square;stroke-width:1.5;"/>
    </g>
    <g id="line2d_26"/>
    <g id="text_20">
     <!-- $\Uparrow \eta$ -->
     <defs>
      <path d="M 36.765625 58.59375 
L 36.765625 0 
L 30.90625 0 
L 30.90625 52.734375 
L 26.421875 48.140625 
L 20.5625 54 
L 39.703125 73.25 
L 44.09375 73.25 
L 63.328125 54 
L 57.46875 48.140625 
L 52.875 52.734375 
L 52.875 0 
L 47.015625 0 
L 47.015625 58.59375 
L 41.9375 63.671875 
z
" id="DejaVuSans-8657"/>
      <path d="M 57.859375 33.015625 
L 47.40625 -20.796875 
L 38.421875 -20.796875 
L 48.828125 32.71875 
Q 50.34375 40.484375 48.046875 44.34375 
Q 45.796875 48.1875 39.75 48.1875 
Q 32.46875 48.1875 27.34375 43.5625 
Q 22.265625 38.921875 20.703125 30.90625 
L 14.703125 0 
L 5.671875 0 
L 16.3125 54.6875 
L 25.34375 54.6875 
L 23.6875 46.1875 
Q 27.828125 51.125 32.71875 53.5625 
Q 37.546875 56 43.265625 56 
Q 52.6875 56 56.390625 50.203125 
Q 60.0625 44.34375 57.859375 33.015625 
z
" id="DejaVuSans-Oblique-951"/>
     </defs>
     <g transform="translate(537.792187 184.004844)scale(0.1 -0.1)">
      <use transform="translate(19.482422 0.75)" xlink:href="#DejaVuSans-8657"/>
      <use transform="translate(122.753906 0.75)" xlink:href="#DejaVuSans-Oblique-951"/>
     </g>
    </g>
   </g>
  </g>
 </g>
 <defs>
  <clipPath id="p775f824669">
   <rect height="271.8" width="446.4" x="54.392188" y="22.318125"/>
  </clipPath>
 </defs>
</svg>
