<?xml version="1.0" encoding="utf-8" standalone="no"?>
<!DOCTYPE svg PUBLIC "-//W3C//DTD SVG 1.1//EN"
  "http://www.w3.org/Graphics/SVG/1.1/DTD/svg11.dtd">
<!-- Created with matplotlib (https://matplotlib.org/) -->
<svg height="331.340625pt" version="1.1" viewBox="0 0 575.48125 331.340625" width="575.48125pt" xmlns="http://www.w3.org/2000/svg" xmlns:xlink="http://www.w3.org/1999/xlink">
 <defs>
  <style type="text/css">
*{stroke-linecap:butt;stroke-linejoin:round;}
  </style>
 </defs>
 <g id="figure_1">
  <g id="patch_1">
   <path d="M 0 331.340625 
L 575.48125 331.340625 
L 575.48125 0 
L 0 0 
z
" style="fill:#ffffff;"/>
  </g>
  <g id="axes_1">
   <g id="patch_2">
    <path d="M 38.482813 293.784375 
L 484.882812 293.784375 
L 484.882812 21.984375 
L 38.482813 21.984375 
z
" style="fill:#ffffff;"/>
   </g>
   <g id="line2d_1">
    <path clip-path="url(#pc4ed74a8f7)" d="M 58.773722 196.250465 
L 59.499693 195.698816 
L 60.225665 197.570253 
L 60.951637 194.013756 
L 61.677608 194.536154 
L 63.129552 194.11759 
L 63.855524 194.022219 
L 64.581495 194.537383 
L 65.307467 193.911766 
L 66.033439 196.271464 
L 66.75941 191.686076 
L 67.485382 192.768378 
L 68.211354 193.221508 
L 68.937325 192.826882 
L 69.663297 191.491427 
L 70.389269 189.205617 
L 71.115241 189.588524 
L 71.841212 188.10149 
L 72.567184 188.015577 
L 74.019127 184.392407 
L 74.745099 184.390007 
L 75.471071 181.806824 
L 76.197042 182.183375 
L 76.923014 182.089141 
L 77.648986 182.385459 
L 79.100929 186.316151 
L 79.826901 182.61932 
L 80.552873 185.006943 
L 81.278844 182.7679 
L 82.004816 181.06976 
L 82.730788 178.222193 
L 83.456759 178.777786 
L 84.182731 180.604151 
L 84.908703 182.059461 
L 85.634675 182.924535 
L 86.360646 179.105106 
L 87.086618 176.857922 
L 87.81259 173.626998 
L 88.538561 173.605578 
L 89.264533 171.22602 
L 89.990505 168.384688 
L 90.716477 167.727906 
L 91.442448 166.887894 
L 92.16842 165.420338 
L 92.894392 162.423608 
L 93.620363 161.708875 
L 94.346335 158.062603 
L 95.072307 157.550367 
L 95.798278 153.332958 
L 96.52425 150.482505 
L 97.250222 149.733971 
L 97.976194 145.04522 
L 99.428137 137.136012 
L 100.154109 139.290388 
L 100.88008 140.064505 
L 101.606052 140.162371 
L 102.332024 140.083079 
L 103.057995 140.289027 
L 103.783967 142.865969 
L 104.509939 137.937211 
L 105.235911 136.457414 
L 105.961882 135.986006 
L 106.687854 138.100672 
L 107.413826 137.939196 
L 109.591741 140.490301 
L 110.317712 144.00551 
L 111.043684 146.388189 
L 111.769656 143.32942 
L 112.495628 144.407778 
L 113.221599 144.994329 
L 113.947571 146.07813 
L 114.673543 147.803367 
L 116.851458 150.034678 
L 117.57743 153.060097 
L 118.303401 151.451032 
L 119.755345 152.971651 
L 120.481316 157.3144 
L 121.207288 155.647846 
L 121.93326 158.714995 
L 122.659231 159.514819 
L 123.385203 158.238683 
L 124.111175 159.994622 
L 124.837147 161.244241 
L 125.563118 164.742192 
L 126.28909 167.417949 
L 127.015062 168.979746 
L 127.741033 170.808507 
L 128.467005 174.636571 
L 129.918948 177.621585 
L 130.64492 177.518001 
L 131.370892 177.302018 
L 132.096864 178.628635 
L 132.822835 182.200095 
L 133.548807 183.513043 
L 134.274779 187.054431 
L 135.00075 186.355691 
L 135.726722 186.37976 
L 136.452694 188.270884 
L 137.178665 189.408659 
L 137.904637 190.122132 
L 138.630609 191.809858 
L 139.356581 192.608417 
L 140.082552 196.448266 
L 140.808524 195.875727 
L 141.534496 195.632669 
L 142.260467 196.611967 
L 143.712411 198.051328 
L 144.438383 195.585088 
L 145.164354 195.284128 
L 145.890326 197.2227 
L 146.616298 197.681806 
L 147.342269 197.990868 
L 148.794213 199.00219 
L 149.520184 199.950302 
L 150.972128 201.122784 
L 151.6981 204.632827 
L 152.424071 206.417357 
L 153.150043 207.548589 
L 153.876015 208.350864 
L 154.601986 209.457482 
L 155.327958 207.580768 
L 156.779901 210.315086 
L 158.231845 211.855869 
L 158.957817 212.485103 
L 160.40976 214.052466 
L 161.135732 214.102399 
L 161.861703 215.129489 
L 162.587675 215.599518 
L 163.313647 215.936533 
L 164.039618 218.936578 
L 164.76559 219.631979 
L 165.491562 220.782546 
L 166.217534 217.923823 
L 166.943505 216.625133 
L 168.395449 211.321606 
L 169.12142 210.489485 
L 169.847392 210.091393 
L 170.573364 211.52338 
L 171.299336 206.123325 
L 172.025307 206.1222 
L 172.751279 202.150642 
L 174.203222 200.578719 
L 175.655166 199.598355 
L 176.381137 199.012685 
L 177.107109 199.167481 
L 178.559053 196.928147 
L 179.285024 196.566995 
L 180.010996 195.497816 
L 180.736968 196.317116 
L 181.462939 197.725985 
L 182.188911 199.395458 
L 182.914883 194.429019 
L 183.640854 191.232094 
L 184.366826 194.39574 
L 185.092798 194.414943 
L 185.81877 194.734899 
L 186.544741 195.590122 
L 187.270713 196.05348 
L 187.996685 195.477984 
L 188.722656 195.596779 
L 189.448628 195.937989 
L 190.1746 198.824254 
L 190.900571 199.418949 
L 191.626543 201.617896 
L 192.352515 204.448585 
L 193.078487 205.425354 
L 193.804458 208.861247 
L 194.53043 211.250588 
L 195.256402 213.14364 
L 195.982373 214.330221 
L 196.708345 215.047263 
L 197.434317 215.944919 
L 198.88626 222.158471 
L 199.612232 224.088198 
L 200.338204 225.679603 
L 201.064175 225.479048 
L 201.790147 228.596286 
L 202.516119 232.756214 
L 203.968062 237.315377 
L 204.694034 240.929625 
L 205.420006 243.501575 
L 206.145977 245.422666 
L 206.871949 244.363045 
L 207.597921 243.51797 
L 209.049864 245.928039 
L 209.775836 246.329515 
L 210.501807 244.800438 
L 211.227779 242.816241 
L 211.953751 243.228566 
L 212.679723 239.292658 
L 213.405694 238.193207 
L 214.131666 238.951499 
L 214.857638 238.70953 
L 215.583609 238.633407 
L 216.309581 238.962594 
L 217.035553 238.129319 
L 217.761524 237.114661 
L 218.487496 237.030322 
L 219.213468 237.717317 
L 219.93944 237.255486 
L 220.665411 237.118042 
L 221.391383 237.364338 
L 222.117355 237.328413 
L 222.843326 236.81763 
L 223.569298 237.981803 
L 224.29527 237.68472 
L 225.021242 237.035767 
L 225.747213 234.022389 
L 226.473185 234.79796 
L 227.199157 234.195 
L 227.925128 230.677531 
L 228.6511 228.138562 
L 229.377072 227.225007 
L 230.103043 226.82376 
L 230.829015 221.653937 
L 231.554987 219.840967 
L 232.280959 215.711773 
L 233.732902 213.481372 
L 234.458874 208.453123 
L 235.184845 204.430701 
L 235.910817 203.014148 
L 236.636789 197.03437 
L 237.36276 195.683201 
L 238.088732 193.767472 
L 238.814704 192.476922 
L 239.540676 192.350043 
L 240.266647 187.065138 
L 240.992619 183.262159 
L 241.718591 181.575476 
L 243.896506 178.277275 
L 244.622477 176.613745 
L 245.348449 173.332291 
L 246.800393 170.909554 
L 247.526364 167.07796 
L 248.978308 165.087844 
L 249.704279 161.426794 
L 250.430251 160.401497 
L 251.156223 156.701108 
L 251.882195 153.853113 
L 252.608166 149.876776 
L 253.334138 148.762604 
L 254.06011 147.972452 
L 254.786081 143.099813 
L 256.238025 144.614026 
L 256.963996 144.498128 
L 257.689968 144.683052 
L 258.41594 146.275722 
L 259.141912 142.475609 
L 259.867883 145.44998 
L 261.319827 147.069665 
L 262.045798 148.977795 
L 262.77177 147.360605 
L 263.497742 148.223832 
L 264.223713 147.273931 
L 264.949685 148.651884 
L 265.675657 150.308769 
L 266.401629 151.365576 
L 267.1276 154.878411 
L 267.853572 152.616465 
L 268.579544 151.938171 
L 269.305515 154.198526 
L 270.031487 155.081502 
L 271.48343 157.87089 
L 272.209402 159.068945 
L 272.935374 160.960083 
L 274.387317 166.938288 
L 275.113289 169.092569 
L 275.839261 167.912254 
L 276.565232 170.051753 
L 277.291204 171.758856 
L 278.743148 174.559927 
L 279.469119 176.414066 
L 280.195091 177.734265 
L 280.921063 179.729227 
L 281.647034 182.75125 
L 282.373006 184.809152 
L 283.098978 188.53175 
L 283.824949 189.970684 
L 284.550921 190.309715 
L 285.276893 191.826513 
L 286.002865 191.894108 
L 286.728836 193.734017 
L 287.454808 196.232217 
L 288.906751 196.539819 
L 289.632723 198.146323 
L 290.358695 198.832477 
L 291.084666 199.924488 
L 291.810638 198.425663 
L 292.53661 199.693944 
L 293.262582 200.483931 
L 293.988553 201.062862 
L 296.89244 204.479158 
L 297.618412 204.96308 
L 298.344383 205.645369 
L 299.070355 206.101157 
L 299.796327 204.524114 
L 300.522299 205.233171 
L 301.24827 207.543089 
L 301.974242 207.905538 
L 302.700214 208.502837 
L 304.878129 209.490567 
L 305.604101 210.236187 
L 306.330072 211.806352 
L 307.056044 212.583462 
L 307.782016 212.777932 
L 308.507987 212.714643 
L 309.233959 212.401738 
L 309.959931 213.139699 
L 311.411874 213.968853 
L 312.137846 211.895199 
L 312.863818 212.559202 
L 313.589789 212.951766 
L 314.315761 212.936701 
L 315.041733 212.745194 
L 315.767704 210.149453 
L 316.493676 210.460052 
L 317.219648 210.464728 
L 317.945619 212.232112 
L 318.671591 211.690925 
L 319.397563 211.787719 
L 320.123535 208.068129 
L 320.849506 208.244258 
L 321.575478 207.606359 
L 322.30145 208.67833 
L 323.027421 206.350222 
L 323.753393 206.324879 
L 324.479365 205.689018 
L 325.205336 205.362964 
L 325.931308 203.011187 
L 326.65728 201.470204 
L 327.383252 199.151747 
L 328.109223 195.710906 
L 328.835195 195.57337 
L 329.561167 190.902048 
L 330.287138 192.225121 
L 331.739082 190.319782 
L 332.465054 186.69125 
L 333.191025 185.73332 
L 333.916997 185.557094 
L 334.642969 182.539133 
L 335.36894 182.876982 
L 336.094912 182.511651 
L 337.546855 184.581323 
L 338.272827 181.881645 
L 338.998799 180.39769 
L 339.724771 180.312393 
L 340.450742 180.541409 
L 341.176714 178.431038 
L 341.902686 176.733282 
L 342.628657 176.886545 
L 343.354629 177.306206 
L 344.080601 175.335942 
L 344.806572 172.920835 
L 345.532544 173.802295 
L 346.258516 175.071605 
L 346.984488 175.455756 
L 347.710459 174.101269 
L 348.436431 174.786381 
L 351.340318 170.408217 
L 352.792261 172.341219 
L 353.518233 170.976578 
L 354.970176 172.797973 
L 355.696148 172.310893 
L 356.42212 173.703481 
L 357.148091 172.871823 
L 357.874063 173.765928 
L 358.600035 175.100625 
L 359.326007 176.083058 
L 360.051978 177.480675 
L 360.77795 178.288782 
L 361.503922 176.651431 
L 362.229893 178.981725 
L 362.955865 178.15958 
L 363.681837 179.151 
L 364.407808 178.485705 
L 365.13378 178.727825 
L 365.859752 178.49477 
L 368.763639 182.145591 
L 369.48961 183.868258 
L 370.215582 184.786848 
L 371.667525 184.893047 
L 372.393497 185.822721 
L 373.119469 185.695442 
L 374.571412 187.60083 
L 375.297384 187.314233 
L 376.023356 189.01321 
L 376.749327 188.646148 
L 377.475299 188.410446 
L 378.201271 189.473172 
L 378.927242 190.852581 
L 379.653214 191.572666 
L 382.557101 195.335015 
L 383.283073 194.510671 
L 384.009044 194.256983 
L 384.735016 194.130555 
L 386.18696 195.408492 
L 386.912931 195.102319 
L 387.638903 194.649867 
L 388.364875 194.379577 
L 389.090846 193.790062 
L 389.816818 194.255375 
L 390.54279 193.754861 
L 391.268761 194.554834 
L 392.720705 195.307283 
L 393.446677 195.763025 
L 394.172648 196.031549 
L 394.89862 195.08655 
L 395.624592 195.838609 
L 396.350563 196.336162 
L 398.528478 197.087147 
L 399.980422 195.260518 
L 400.706394 194.308382 
L 401.432365 194.28627 
L 402.158337 194.054431 
L 402.884309 194.441273 
L 403.61028 192.971083 
L 404.336252 193.037231 
L 405.062224 191.569529 
L 405.788195 191.368368 
L 406.514167 191.015914 
L 407.240139 190.812981 
L 408.692082 187.9669 
L 409.418054 186.857015 
L 410.144026 186.458055 
L 411.595969 183.293578 
L 412.321941 181.393311 
L 413.047913 181.360114 
L 413.773884 180.626895 
L 416.677771 172.107962 
L 417.403743 171.634996 
L 418.129714 168.706174 
L 418.855686 167.727238 
L 420.30763 163.3151 
L 421.033601 162.381385 
L 421.759573 161.258787 
L 422.485545 160.793078 
L 423.211516 158.643916 
L 423.937488 158.548722 
L 424.66346 156.795836 
L 425.389431 155.337328 
L 426.115403 155.092964 
L 426.841375 153.429039 
L 428.293318 150.810869 
L 429.01929 150.886771 
L 429.745262 149.556407 
L 430.471233 149.975067 
L 431.197205 148.898449 
L 431.923177 149.510222 
L 433.37512 151.054387 
L 434.101092 152.497812 
L 434.827064 152.27069 
L 435.553035 154.045805 
L 436.279007 155.425337 
L 437.73095 158.860627 
L 439.182894 162.511227 
L 441.360809 165.314891 
L 442.086781 166.494638 
L 442.812752 167.310291 
L 443.538724 168.540828 
L 444.264696 170.582096 
L 444.990667 171.38079 
L 445.716639 173.376253 
L 446.442611 174.322267 
L 447.894554 178.105708 
L 448.620526 179.032159 
L 450.072469 181.300005 
L 450.798441 183.279505 
L 452.250384 185.148808 
L 452.976356 185.78448 
L 453.702328 186.769686 
L 454.4283 187.395904 
L 455.154271 189.037004 
L 455.880243 189.31676 
L 457.332186 190.66174 
L 458.78413 193.114455 
L 460.236073 194.155822 
L 460.962045 194.563551 
L 462.413988 196.967835 
L 464.591903 198.07994 
L 464.591903 198.07994 
" style="fill:none;stroke:#1f77b4;stroke-linecap:square;stroke-width:1.5;"/>
   </g>
   <g id="line2d_2">
    <path clip-path="url(#pc4ed74a8f7)" d="M 58.773722 207.987584 
L 59.499693 206.372027 
L 60.225665 207.66457 
L 60.951637 207.01797 
L 62.40358 207.448938 
L 63.129552 206.966245 
L 63.855524 206.286387 
L 64.581495 206.235446 
L 65.307467 203.55847 
L 66.033439 203.76674 
L 66.75941 202.704067 
L 68.211354 201.288289 
L 68.937325 200.395029 
L 69.663297 201.73381 
L 70.389269 201.586695 
L 71.115241 202.21723 
L 71.841212 204.931748 
L 72.567184 202.511633 
L 73.293156 205.154359 
L 74.745099 205.705077 
L 75.471071 207.388414 
L 76.197042 208.704383 
L 76.923014 209.285698 
L 77.648986 208.398947 
L 78.374958 209.564012 
L 79.100929 208.734618 
L 79.826901 208.659559 
L 80.552873 208.456676 
L 81.278844 207.973416 
L 82.730788 206.139797 
L 83.456759 204.086213 
L 84.182731 204.98017 
L 84.908703 205.270986 
L 85.634675 204.915407 
L 86.360646 204.689235 
L 87.086618 204.070294 
L 87.81259 204.186923 
L 88.538561 204.931985 
L 89.264533 206.227114 
L 91.442448 208.07225 
L 92.16842 211.029397 
L 92.894392 211.202726 
L 93.620363 214.186603 
L 94.346335 211.5778 
L 95.072307 211.487044 
L 95.798278 209.94614 
L 96.52425 209.824632 
L 97.250222 209.322002 
L 97.976194 209.017993 
L 98.702165 206.604988 
L 99.428137 205.73205 
L 100.154109 206.672922 
L 100.88008 206.911248 
L 103.057995 206.979455 
L 103.783967 208.98736 
L 104.509939 208.352395 
L 105.235911 207.988981 
L 105.961882 207.851415 
L 106.687854 208.925175 
L 107.413826 208.580946 
L 108.139797 208.056957 
L 108.865769 207.979089 
L 109.591741 208.032535 
L 111.043684 210.935317 
L 112.495628 211.812408 
L 113.221599 211.826875 
L 113.947571 209.580527 
L 114.673543 209.848319 
L 115.399514 210.379822 
L 116.125486 207.743027 
L 116.851458 207.320235 
L 117.57743 206.089644 
L 119.755345 204.019508 
L 120.481316 205.975169 
L 121.207288 206.787626 
L 122.659231 203.493069 
L 123.385203 202.860008 
L 124.111175 201.934356 
L 124.837147 199.883699 
L 125.563118 200.825798 
L 126.28909 200.246229 
L 127.741033 195.733872 
L 128.467005 195.891653 
L 129.192977 194.631422 
L 129.918948 193.860214 
L 130.64492 194.184045 
L 131.370892 192.650764 
L 132.096864 192.150918 
L 132.822835 193.180306 
L 133.548807 190.144033 
L 134.274779 190.872264 
L 135.00075 190.568323 
L 135.726722 190.080444 
L 136.452694 190.082571 
L 137.178665 189.646651 
L 137.904637 189.453844 
L 139.356581 189.375384 
L 140.082552 191.624184 
L 140.808524 193.033722 
L 142.260467 194.578803 
L 143.712411 195.942722 
L 144.438383 196.57722 
L 145.164354 197.932253 
L 145.890326 200.449784 
L 147.342269 202.31611 
L 148.068241 203.150618 
L 149.520184 205.802919 
L 150.246156 206.713361 
L 150.972128 207.905986 
L 151.6981 211.806153 
L 152.424071 214.154235 
L 153.876015 215.239036 
L 154.601986 216.055016 
L 155.327958 216.658638 
L 156.779901 218.742802 
L 157.505873 217.642813 
L 158.231845 218.335967 
L 158.957817 218.782857 
L 159.683788 217.210451 
L 161.135732 216.816871 
L 161.861703 217.544066 
L 162.587675 217.560466 
L 163.313647 217.828163 
L 164.039618 220.359723 
L 164.76559 221.166225 
L 165.491562 221.016153 
L 166.217534 221.504302 
L 166.943505 221.37449 
L 167.669477 219.604866 
L 168.395449 218.734724 
L 169.12142 216.80356 
L 169.847392 215.918598 
L 170.573364 216.773138 
L 171.299336 215.591419 
L 172.025307 217.161407 
L 172.751279 216.225347 
L 173.477251 215.500078 
L 174.203222 215.123392 
L 174.929194 212.127153 
L 175.655166 211.875312 
L 176.381137 207.489744 
L 177.107109 205.204582 
L 177.833081 202.391334 
L 179.285024 193.744214 
L 180.010996 188.514504 
L 180.736968 184.308237 
L 181.462939 182.16292 
L 182.188911 178.112996 
L 183.640854 168.945576 
L 184.366826 165.722257 
L 185.092798 161.760713 
L 185.81877 154.77097 
L 188.722656 136.634615 
L 189.448628 134.714308 
L 190.1746 131.76016 
L 190.900571 126.228579 
L 191.626543 123.785154 
L 192.352515 123.085087 
L 193.078487 120.06664 
L 194.53043 121.789707 
L 195.256402 118.79843 
L 195.982373 117.725854 
L 196.708345 117.280987 
L 197.434317 117.748731 
L 198.160289 121.743108 
L 199.612232 127.46728 
L 200.338204 129.350881 
L 201.064175 134.287698 
L 201.790147 137.756154 
L 202.516119 143.590099 
L 203.968062 151.222404 
L 204.694034 156.711975 
L 205.420006 159.40449 
L 206.145977 162.81146 
L 207.597921 167.95138 
L 208.323892 171.056394 
L 209.049864 173.642906 
L 209.775836 174.066476 
L 210.501807 178.339978 
L 211.953751 182.182815 
L 212.679723 184.776798 
L 214.131666 191.77125 
L 214.857638 193.840096 
L 215.583609 195.180352 
L 216.309581 197.600704 
L 217.035553 197.8456 
L 218.487496 201.531128 
L 219.213468 204.094037 
L 220.665411 207.38042 
L 221.391383 209.305818 
L 222.843326 212.572861 
L 223.569298 215.644321 
L 224.29527 217.144293 
L 225.021242 218.342808 
L 225.747213 220.511335 
L 226.473185 223.095384 
L 227.199157 224.579994 
L 227.925128 226.581468 
L 230.829015 232.728742 
L 231.554987 235.354929 
L 232.280959 236.365767 
L 233.00693 237.919207 
L 233.732902 237.74233 
L 235.910817 240.605571 
L 236.636789 240.925642 
L 237.36276 240.947368 
L 238.088732 241.892042 
L 238.814704 242.470525 
L 239.540676 244.338599 
L 240.266647 245.100948 
L 240.992619 245.14798 
L 241.718591 244.818305 
L 243.170534 245.69096 
L 243.896506 246.379012 
L 244.622477 246.760932 
L 245.348449 248.564176 
L 246.074421 248.958329 
L 246.800393 248.479038 
L 247.526364 249.429698 
L 248.252336 249.289492 
L 248.978308 249.509846 
L 251.156223 249.535146 
L 251.882195 249.228047 
L 252.608166 249.133608 
L 253.334138 248.663132 
L 254.786081 248.192567 
L 255.512053 246.914038 
L 256.238025 246.998818 
L 257.689968 246.248831 
L 258.41594 246.665306 
L 259.141912 246.327076 
L 259.867883 246.934908 
L 260.593855 246.916909 
L 261.319827 247.090675 
L 262.045798 247.747928 
L 262.77177 247.602 
L 263.497742 247.113465 
L 264.223713 245.864772 
L 264.949685 244.286771 
L 265.675657 243.571692 
L 266.401629 242.387192 
L 267.1276 242.837136 
L 268.579544 237.618923 
L 269.305515 236.622917 
L 270.031487 234.437862 
L 271.48343 232.00034 
L 272.209402 230.251169 
L 272.935374 228.972139 
L 273.661346 229.072052 
L 274.387317 228.320281 
L 275.113289 224.162606 
L 276.565232 220.32104 
L 277.291204 216.829732 
L 278.017176 214.478661 
L 278.743148 212.519508 
L 279.469119 207.792812 
L 280.195091 205.208447 
L 280.921063 200.663382 
L 281.647034 199.083932 
L 282.373006 194.420822 
L 283.098978 192.71857 
L 284.550921 183.36956 
L 285.276893 180.731868 
L 286.002865 175.385442 
L 287.454808 168.048876 
L 288.18078 163.728972 
L 288.906751 157.959832 
L 289.632723 153.618533 
L 290.358695 147.077584 
L 291.084666 142.166215 
L 291.810638 134.963865 
L 293.262582 125.609315 
L 293.988553 121.358664 
L 295.440497 114.752777 
L 296.166468 112.339943 
L 296.89244 110.489673 
L 297.618412 104.578566 
L 298.344383 100.636966 
L 299.070355 95.01264 
L 299.796327 92.196784 
L 300.522299 88.887753 
L 301.24827 89.582133 
L 302.700214 83.02149 
L 303.426185 78.746049 
L 304.152157 75.534081 
L 304.878129 71.242524 
L 305.604101 69.849602 
L 307.056044 65.287512 
L 307.782016 64.949545 
L 308.507987 64.293096 
L 309.959931 62.004758 
L 310.685902 61.536125 
L 311.411874 61.311906 
L 312.137846 62.064743 
L 312.863818 62.17239 
L 314.315761 64.946918 
L 315.041733 63.87528 
L 315.767704 64.808848 
L 317.219648 67.356099 
L 317.945619 71.574387 
L 318.671591 71.21904 
L 320.123535 74.036129 
L 320.849506 76.059757 
L 321.575478 77.626332 
L 323.027421 86.567795 
L 323.753393 89.872299 
L 325.205336 95.381862 
L 327.383252 110.175481 
L 328.109223 112.077411 
L 328.835195 116.279975 
L 329.561167 119.57882 
L 330.287138 125.504807 
L 331.739082 133.055991 
L 332.465054 138.191444 
L 333.191025 140.586001 
L 333.916997 143.992839 
L 335.36894 153.897759 
L 336.094912 157.092964 
L 338.272827 172.241662 
L 338.998799 177.195592 
L 340.450742 185.411506 
L 341.902686 195.50464 
L 343.354629 203.334072 
L 344.080601 208.265627 
L 344.806572 211.743222 
L 345.532544 215.844802 
L 346.258516 220.765743 
L 346.984488 224.172802 
L 347.710459 228.92414 
L 349.162403 236.124206 
L 349.888374 240.036305 
L 352.792261 252.39675 
L 353.518233 255.415286 
L 354.970176 260.105171 
L 355.696148 263.114649 
L 357.148091 267.385037 
L 359.326007 272.589824 
L 361.503922 276.147235 
L 362.955865 279.255092 
L 363.681837 279.590577 
L 365.13378 281.020692 
L 365.859752 281.223319 
L 368.037667 281.42983 
L 369.48961 281.112208 
L 370.941554 279.716516 
L 371.667525 279.002422 
L 372.393497 277.974785 
L 373.119469 277.204679 
L 373.845441 275.501215 
L 375.297384 272.842435 
L 376.023356 271.897578 
L 376.749327 270.408329 
L 377.475299 268.627306 
L 378.201271 266.33272 
L 378.927242 264.720339 
L 381.105158 258.131012 
L 381.831129 255.138557 
L 383.283073 250.254465 
L 384.009044 247.039906 
L 384.735016 244.735912 
L 385.460988 241.773383 
L 387.638903 230.671472 
L 388.364875 226.534977 
L 390.54279 212.585414 
L 391.268761 208.28181 
L 398.528478 156.785408 
L 406.514167 95.874672 
L 407.966111 86.696692 
L 409.418054 78.772222 
L 410.144026 74.93775 
L 410.869997 71.813301 
L 412.321941 64.05268 
L 413.047913 61.712664 
L 415.225828 51.713692 
L 416.677771 45.063228 
L 417.403743 43.101192 
L 418.129714 40.454199 
L 418.855686 38.548641 
L 419.581658 37.637879 
L 420.30763 36.009109 
L 421.033601 35.077716 
L 421.759573 34.33892 
L 422.485545 35.064404 
L 423.937488 37.190213 
L 426.115403 42.835322 
L 427.567347 48.110261 
L 429.01929 54.481963 
L 430.471233 62.001555 
L 433.37512 78.566801 
L 439.908866 123.29748 
L 444.264696 153.727717 
L 446.442611 167.849266 
L 450.798441 193.326252 
L 452.976356 204.571597 
L 455.154271 214.543255 
L 457.332186 223.310579 
L 459.510101 230.746694 
L 460.962045 235.2646 
L 463.865932 242.676208 
L 464.591903 244.274885 
L 464.591903 244.274885 
" style="fill:none;stroke:#ff7f0e;stroke-linecap:square;stroke-width:1.5;"/>
   </g>
   <g id="line2d_3">
    <path clip-path="url(#pc4ed74a8f7)" d="M 58.773722 218.740989 
L 59.499693 217.501539 
L 60.225665 218.654873 
L 60.951637 218.038624 
L 61.677608 217.871104 
L 62.40358 216.607384 
L 63.129552 215.866214 
L 63.855524 212.681226 
L 64.581495 211.169397 
L 65.307467 208.954207 
L 66.033439 209.113916 
L 66.75941 207.556524 
L 67.485382 206.886568 
L 68.211354 205.935161 
L 68.937325 204.712506 
L 69.663297 205.695406 
L 70.389269 201.962812 
L 71.115241 201.692918 
L 71.841212 200.766124 
L 72.567184 199.480948 
L 73.293156 198.968386 
L 74.745099 196.800692 
L 75.471071 195.060881 
L 76.197042 194.526271 
L 76.923014 192.796141 
L 77.648986 191.625056 
L 78.374958 192.415454 
L 79.100929 192.254024 
L 79.826901 191.640372 
L 80.552873 192.317995 
L 81.278844 193.326696 
L 82.004816 193.069267 
L 82.730788 190.776537 
L 83.456759 189.739494 
L 84.182731 191.315749 
L 84.908703 191.973572 
L 85.634675 191.828402 
L 86.360646 189.601344 
L 87.086618 189.295447 
L 87.81259 188.232472 
L 88.538561 187.383794 
L 89.264533 188.061741 
L 89.990505 187.292228 
L 90.716477 186.752919 
L 91.442448 184.232867 
L 92.16842 185.156831 
L 92.894392 184.442317 
L 93.620363 184.596049 
L 95.072307 183.792336 
L 95.798278 183.844263 
L 98.702165 178.865527 
L 99.428137 176.77312 
L 100.154109 177.335985 
L 100.88008 177.31049 
L 101.606052 176.833101 
L 102.332024 175.574553 
L 103.057995 174.964093 
L 103.783967 176.814776 
L 104.509939 176.493724 
L 105.235911 176.690666 
L 106.687854 180.167964 
L 107.413826 180.386212 
L 108.139797 180.968997 
L 108.865769 180.767466 
L 109.591741 181.249999 
L 110.317712 183.669433 
L 111.043684 185.362072 
L 111.769656 184.27032 
L 112.495628 184.939444 
L 113.221599 184.048497 
L 113.947571 183.773115 
L 115.399514 185.417618 
L 116.125486 185.043413 
L 116.851458 185.5418 
L 117.57743 187.48371 
L 118.303401 186.634129 
L 119.029373 186.776771 
L 119.755345 186.762629 
L 120.481316 189.83195 
L 121.207288 191.343372 
L 121.93326 193.658667 
L 122.659231 194.490316 
L 124.111175 197.077974 
L 124.837147 198.619651 
L 125.563118 201.732193 
L 126.28909 203.647831 
L 127.015062 204.873993 
L 127.741033 205.584852 
L 128.467005 208.181302 
L 129.192977 209.210526 
L 129.918948 210.455653 
L 130.64492 212.331032 
L 131.370892 213.148066 
L 132.096864 214.308839 
L 132.822835 217.113579 
L 133.548807 218.25299 
L 134.274779 221.27762 
L 135.00075 222.849709 
L 135.726722 224.136713 
L 136.452694 225.7141 
L 137.904637 228.018849 
L 138.630609 229.602493 
L 139.356581 230.779454 
L 140.082552 234.263152 
L 140.808524 236.041689 
L 141.534496 237.405971 
L 142.260467 236.783486 
L 142.986439 237.545805 
L 143.712411 238.082014 
L 144.438383 237.715365 
L 145.164354 238.700648 
L 145.890326 240.660835 
L 146.616298 240.914528 
L 148.068241 241.759016 
L 148.794213 241.048845 
L 149.520184 241.474808 
L 150.246156 241.393071 
L 150.972128 241.56879 
L 151.6981 243.863141 
L 152.424071 244.496182 
L 154.601986 244.354297 
L 155.327958 244.484737 
L 157.505873 243.945655 
L 158.957817 243.605342 
L 159.683788 243.678963 
L 160.40976 243.373324 
L 161.135732 240.719688 
L 161.861703 240.842631 
L 162.587675 239.516611 
L 163.313647 236.467951 
L 164.039618 236.551628 
L 164.76559 235.304391 
L 166.943505 232.087999 
L 168.395449 228.994244 
L 169.12142 227.331585 
L 169.847392 223.029789 
L 170.573364 223.203164 
L 171.299336 218.526708 
L 172.025307 218.382843 
L 172.751279 213.663107 
L 175.655166 200.985192 
L 176.381137 197.175732 
L 177.107109 194.271551 
L 177.833081 187.927239 
L 178.559053 183.573949 
L 179.285024 177.131175 
L 180.010996 172.177994 
L 180.736968 166.422891 
L 181.462939 163.807737 
L 182.188911 158.06524 
L 183.640854 149.271552 
L 184.366826 146.153758 
L 186.544741 133.155774 
L 187.996685 120.063806 
L 188.722656 115.622207 
L 189.448628 109.622883 
L 190.1746 108.412807 
L 190.900571 103.27821 
L 191.626543 102.824468 
L 192.352515 99.89904 
L 193.078487 97.885865 
L 193.804458 97.240428 
L 194.53043 96.297699 
L 195.256402 95.139079 
L 195.982373 93.622505 
L 196.708345 92.48869 
L 197.434317 92.067097 
L 198.160289 92.953195 
L 199.612232 95.137934 
L 200.338204 95.687875 
L 201.064175 98.939521 
L 202.516119 106.190595 
L 203.24209 108.986239 
L 203.968062 110.668762 
L 204.694034 114.675815 
L 205.420006 117.79795 
L 206.145977 120.10534 
L 206.871949 123.393052 
L 209.775836 132.576561 
L 210.501807 137.517238 
L 211.227779 137.947018 
L 211.953751 139.530847 
L 212.679723 140.257675 
L 214.131666 146.037886 
L 214.857638 147.098402 
L 215.583609 146.969448 
L 216.309581 148.911966 
L 217.035553 149.952814 
L 217.761524 150.345733 
L 219.213468 152.869769 
L 219.93944 154.003514 
L 220.665411 154.599471 
L 221.391383 156.058442 
L 222.117355 155.857134 
L 222.843326 156.952878 
L 223.569298 159.820973 
L 225.021242 161.292215 
L 225.747213 163.128146 
L 226.473185 165.68605 
L 227.925128 168.282087 
L 228.6511 169.879564 
L 229.377072 169.765078 
L 230.103043 171.355569 
L 230.829015 171.409036 
L 231.554987 174.255463 
L 232.280959 174.558454 
L 233.00693 175.882114 
L 233.732902 176.517875 
L 234.458874 176.688905 
L 235.184845 177.50457 
L 235.910817 178.632919 
L 236.636789 178.998202 
L 237.36276 179.143908 
L 238.814704 180.309929 
L 239.540676 181.791617 
L 240.266647 182.75773 
L 240.992619 183.415864 
L 241.718591 183.8868 
L 244.622477 184.210471 
L 245.348449 186.219804 
L 246.800393 186.906326 
L 247.526364 188.205493 
L 248.978308 189.166171 
L 249.704279 190.222239 
L 250.430251 190.742867 
L 251.156223 191.921358 
L 252.608166 193.401652 
L 254.786081 195.173646 
L 256.238025 198.369555 
L 256.963996 198.1177 
L 257.689968 198.60929 
L 258.41594 200.410518 
L 259.141912 200.978673 
L 262.045798 206.027281 
L 263.497742 207.525437 
L 264.949685 209.62877 
L 265.675657 210.541373 
L 266.401629 211.186121 
L 267.1276 212.239239 
L 268.579544 213.142823 
L 269.305515 214.29564 
L 270.031487 214.774638 
L 270.757459 215.537293 
L 271.48343 216.128159 
L 272.209402 215.425108 
L 272.935374 215.732103 
L 274.387317 217.999667 
L 275.113289 218.434965 
L 275.839261 218.553829 
L 276.565232 217.893064 
L 277.291204 218.162959 
L 278.017176 217.270276 
L 280.921063 215.371982 
L 281.647034 216.032966 
L 282.373006 215.553861 
L 283.098978 216.734574 
L 283.824949 216.571775 
L 284.550921 216.674506 
L 285.276893 217.587393 
L 286.002865 217.634509 
L 286.728836 219.143271 
L 287.454808 220.09488 
L 288.18078 220.85023 
L 290.358695 221.706123 
L 291.084666 221.781723 
L 292.53661 221.470613 
L 293.262582 221.573566 
L 293.988553 221.816642 
L 296.89244 221.984226 
L 297.618412 221.759479 
L 298.344383 219.578999 
L 299.070355 218.4504 
L 299.796327 218.021713 
L 300.522299 217.047392 
L 301.24827 217.969056 
L 301.974242 216.533265 
L 302.700214 214.848626 
L 304.152157 212.218474 
L 304.878129 210.928589 
L 305.604101 208.971808 
L 306.330072 208.786927 
L 307.056044 206.553971 
L 307.782016 206.197854 
L 308.507987 205.330604 
L 310.685902 201.048861 
L 311.411874 199.178959 
L 312.137846 198.044908 
L 312.863818 195.313754 
L 313.589789 194.135998 
L 315.041733 190.649821 
L 315.767704 189.1808 
L 316.493676 185.813551 
L 317.219648 184.450782 
L 317.945619 184.463149 
L 318.671591 181.375841 
L 320.123535 177.767899 
L 320.849506 176.457425 
L 321.575478 174.053809 
L 322.30145 174.593688 
L 323.027421 174.558629 
L 323.753393 173.853613 
L 324.479365 172.938857 
L 325.205336 171.442169 
L 326.65728 173.166842 
L 327.383252 173.807915 
L 328.109223 173.669978 
L 328.835195 174.626343 
L 329.561167 173.291118 
L 330.287138 174.985888 
L 331.01311 175.042629 
L 331.739082 174.667962 
L 332.465054 174.945141 
L 333.191025 174.558169 
L 333.916997 174.982493 
L 334.642969 175.669492 
L 338.272827 178.254941 
L 338.998799 178.84498 
L 340.450742 179.301902 
L 341.176714 180.142267 
L 341.902686 181.420523 
L 342.628657 181.74895 
L 343.354629 182.353574 
L 344.080601 184.331537 
L 344.806572 183.76802 
L 345.532544 184.80282 
L 346.258516 186.697125 
L 346.984488 187.318904 
L 347.710459 189.971398 
L 348.436431 190.896908 
L 349.162403 193.515393 
L 349.888374 194.757754 
L 350.614346 196.739195 
L 353.518233 202.534927 
L 354.244205 203.752285 
L 354.970176 204.521865 
L 355.696148 206.10169 
L 357.148091 208.301278 
L 359.326007 210.978999 
L 360.051978 212.093934 
L 360.77795 212.837969 
L 361.503922 213.422561 
L 362.955865 216.528538 
L 363.681837 216.494388 
L 364.407808 217.492787 
L 365.859752 219.915597 
L 368.763639 222.734929 
L 369.48961 224.032456 
L 370.215582 224.832048 
L 370.941554 226.212635 
L 373.119469 229.112268 
L 374.571412 229.392962 
L 376.023356 230.982229 
L 376.749327 231.263234 
L 377.475299 231.25824 
L 378.201271 231.506507 
L 378.927242 232.213852 
L 379.653214 232.350278 
L 380.379186 232.625327 
L 381.105158 232.505756 
L 381.831129 232.562468 
L 382.557101 232.738887 
L 383.283073 232.546408 
L 384.009044 232.629103 
L 384.735016 232.824493 
L 385.460988 232.765637 
L 386.18696 232.876588 
L 389.090846 232.291859 
L 389.816818 231.899079 
L 390.54279 231.671121 
L 391.268761 231.573848 
L 392.720705 230.8807 
L 393.446677 230.647739 
L 394.89862 229.813227 
L 396.350563 229.708083 
L 397.802507 228.919549 
L 398.528478 228.418852 
L 399.980422 226.549536 
L 402.158337 223.662251 
L 402.884309 223.064717 
L 403.61028 221.930223 
L 406.514167 216.008376 
L 408.692082 210.510079 
L 409.418054 209.252665 
L 410.144026 207.188043 
L 410.869997 205.569007 
L 414.499856 195.036539 
L 415.951799 190.516993 
L 418.129714 183.590116 
L 421.033601 174.324035 
L 421.759573 171.760617 
L 427.567347 157.452036 
L 430.471233 151.997019 
L 431.197205 151.055156 
L 431.923177 149.878978 
L 433.37512 148.081307 
L 434.101092 147.873285 
L 434.827064 147.816243 
L 435.553035 147.876991 
L 436.279007 147.738845 
L 437.004979 147.994679 
L 437.73095 148.094747 
L 438.456922 148.476091 
L 439.182894 148.629187 
L 440.634837 149.938224 
L 441.360809 150.835573 
L 442.086781 151.921485 
L 442.812752 152.620517 
L 443.538724 153.834457 
L 444.264696 154.710432 
L 444.990667 155.903074 
L 445.716639 156.757051 
L 446.442611 158.311375 
L 447.168583 159.372814 
L 447.894554 160.68506 
L 450.798441 167.389809 
L 452.250384 170.757118 
L 452.976356 172.215941 
L 454.4283 175.544544 
L 458.058158 182.902717 
L 458.78413 184.180047 
L 460.962045 188.500957 
L 464.591903 194.823349 
L 464.591903 194.823349 
" style="fill:none;stroke:#2ca02c;stroke-linecap:square;stroke-width:1.5;"/>
   </g>
   <g id="line2d_4">
    <path clip-path="url(#pc4ed74a8f7)" d="M 58.773722 193.488172 
L 464.591903 193.488172 
L 464.591903 193.488172 
" style="fill:none;stroke:#000000;stroke-dasharray:3.7,1.6;stroke-dashoffset:0;"/>
   </g>
   <g id="matplotlib.axis_1">
    <g id="xtick_1">
     <g id="line2d_5">
      <defs>
       <path d="M 0 0 
L 0 3.5 
" id="m4e02c9aefd" style="stroke:#000000;stroke-width:0.8;"/>
      </defs>
      <g>
       <use style="stroke:#000000;stroke-width:0.8;" x="79.826901" xlink:href="#m4e02c9aefd" y="293.784375"/>
      </g>
     </g>
     <g id="text_1">
      <!-- 100 -->
      <defs>
       <path d="M 12.40625 8.296875 
L 28.515625 8.296875 
L 28.515625 63.921875 
L 10.984375 60.40625 
L 10.984375 69.390625 
L 28.421875 72.90625 
L 38.28125 72.90625 
L 38.28125 8.296875 
L 54.390625 8.296875 
L 54.390625 0 
L 12.40625 0 
z
" id="DejaVuSans-49"/>
       <path d="M 31.78125 66.40625 
Q 24.171875 66.40625 20.328125 58.90625 
Q 16.5 51.421875 16.5 36.375 
Q 16.5 21.390625 20.328125 13.890625 
Q 24.171875 6.390625 31.78125 6.390625 
Q 39.453125 6.390625 43.28125 13.890625 
Q 47.125 21.390625 47.125 36.375 
Q 47.125 51.421875 43.28125 58.90625 
Q 39.453125 66.40625 31.78125 66.40625 
z
M 31.78125 74.21875 
Q 44.046875 74.21875 50.515625 64.515625 
Q 56.984375 54.828125 56.984375 36.375 
Q 56.984375 17.96875 50.515625 8.265625 
Q 44.046875 -1.421875 31.78125 -1.421875 
Q 19.53125 -1.421875 13.0625 8.265625 
Q 6.59375 17.96875 6.59375 36.375 
Q 6.59375 54.828125 13.0625 64.515625 
Q 19.53125 74.21875 31.78125 74.21875 
z
" id="DejaVuSans-48"/>
      </defs>
      <g transform="translate(70.283151 308.382812)scale(0.1 -0.1)">
       <use xlink:href="#DejaVuSans-49"/>
       <use x="63.623047" xlink:href="#DejaVuSans-48"/>
       <use x="127.246094" xlink:href="#DejaVuSans-48"/>
      </g>
     </g>
    </g>
    <g id="xtick_2">
     <g id="line2d_6">
      <g>
       <use style="stroke:#000000;stroke-width:0.8;" x="152.424071" xlink:href="#m4e02c9aefd" y="293.784375"/>
      </g>
     </g>
     <g id="text_2">
      <!-- 200 -->
      <defs>
       <path d="M 19.1875 8.296875 
L 53.609375 8.296875 
L 53.609375 0 
L 7.328125 0 
L 7.328125 8.296875 
Q 12.9375 14.109375 22.625 23.890625 
Q 32.328125 33.6875 34.8125 36.53125 
Q 39.546875 41.84375 41.421875 45.53125 
Q 43.3125 49.21875 43.3125 52.78125 
Q 43.3125 58.59375 39.234375 62.25 
Q 35.15625 65.921875 28.609375 65.921875 
Q 23.96875 65.921875 18.8125 64.3125 
Q 13.671875 62.703125 7.8125 59.421875 
L 7.8125 69.390625 
Q 13.765625 71.78125 18.9375 73 
Q 24.125 74.21875 28.421875 74.21875 
Q 39.75 74.21875 46.484375 68.546875 
Q 53.21875 62.890625 53.21875 53.421875 
Q 53.21875 48.921875 51.53125 44.890625 
Q 49.859375 40.875 45.40625 35.40625 
Q 44.1875 33.984375 37.640625 27.21875 
Q 31.109375 20.453125 19.1875 8.296875 
z
" id="DejaVuSans-50"/>
      </defs>
      <g transform="translate(142.880321 308.382812)scale(0.1 -0.1)">
       <use xlink:href="#DejaVuSans-50"/>
       <use x="63.623047" xlink:href="#DejaVuSans-48"/>
       <use x="127.246094" xlink:href="#DejaVuSans-48"/>
      </g>
     </g>
    </g>
    <g id="xtick_3">
     <g id="line2d_7">
      <g>
       <use style="stroke:#000000;stroke-width:0.8;" x="225.021242" xlink:href="#m4e02c9aefd" y="293.784375"/>
      </g>
     </g>
     <g id="text_3">
      <!-- 300 -->
      <defs>
       <path d="M 40.578125 39.3125 
Q 47.65625 37.796875 51.625 33 
Q 55.609375 28.21875 55.609375 21.1875 
Q 55.609375 10.40625 48.1875 4.484375 
Q 40.765625 -1.421875 27.09375 -1.421875 
Q 22.515625 -1.421875 17.65625 -0.515625 
Q 12.796875 0.390625 7.625 2.203125 
L 7.625 11.71875 
Q 11.71875 9.328125 16.59375 8.109375 
Q 21.484375 6.890625 26.8125 6.890625 
Q 36.078125 6.890625 40.9375 10.546875 
Q 45.796875 14.203125 45.796875 21.1875 
Q 45.796875 27.640625 41.28125 31.265625 
Q 36.765625 34.90625 28.71875 34.90625 
L 20.21875 34.90625 
L 20.21875 43.015625 
L 29.109375 43.015625 
Q 36.375 43.015625 40.234375 45.921875 
Q 44.09375 48.828125 44.09375 54.296875 
Q 44.09375 59.90625 40.109375 62.90625 
Q 36.140625 65.921875 28.71875 65.921875 
Q 24.65625 65.921875 20.015625 65.03125 
Q 15.375 64.15625 9.8125 62.3125 
L 9.8125 71.09375 
Q 15.4375 72.65625 20.34375 73.4375 
Q 25.25 74.21875 29.59375 74.21875 
Q 40.828125 74.21875 47.359375 69.109375 
Q 53.90625 64.015625 53.90625 55.328125 
Q 53.90625 49.265625 50.4375 45.09375 
Q 46.96875 40.921875 40.578125 39.3125 
z
" id="DejaVuSans-51"/>
      </defs>
      <g transform="translate(215.477492 308.382812)scale(0.1 -0.1)">
       <use xlink:href="#DejaVuSans-51"/>
       <use x="63.623047" xlink:href="#DejaVuSans-48"/>
       <use x="127.246094" xlink:href="#DejaVuSans-48"/>
      </g>
     </g>
    </g>
    <g id="xtick_4">
     <g id="line2d_8">
      <g>
       <use style="stroke:#000000;stroke-width:0.8;" x="297.618412" xlink:href="#m4e02c9aefd" y="293.784375"/>
      </g>
     </g>
     <g id="text_4">
      <!-- 400 -->
      <defs>
       <path d="M 37.796875 64.3125 
L 12.890625 25.390625 
L 37.796875 25.390625 
z
M 35.203125 72.90625 
L 47.609375 72.90625 
L 47.609375 25.390625 
L 58.015625 25.390625 
L 58.015625 17.1875 
L 47.609375 17.1875 
L 47.609375 0 
L 37.796875 0 
L 37.796875 17.1875 
L 4.890625 17.1875 
L 4.890625 26.703125 
z
" id="DejaVuSans-52"/>
      </defs>
      <g transform="translate(288.074662 308.382812)scale(0.1 -0.1)">
       <use xlink:href="#DejaVuSans-52"/>
       <use x="63.623047" xlink:href="#DejaVuSans-48"/>
       <use x="127.246094" xlink:href="#DejaVuSans-48"/>
      </g>
     </g>
    </g>
    <g id="xtick_5">
     <g id="line2d_9">
      <g>
       <use style="stroke:#000000;stroke-width:0.8;" x="370.215582" xlink:href="#m4e02c9aefd" y="293.784375"/>
      </g>
     </g>
     <g id="text_5">
      <!-- 500 -->
      <defs>
       <path d="M 10.796875 72.90625 
L 49.515625 72.90625 
L 49.515625 64.59375 
L 19.828125 64.59375 
L 19.828125 46.734375 
Q 21.96875 47.46875 24.109375 47.828125 
Q 26.265625 48.1875 28.421875 48.1875 
Q 40.625 48.1875 47.75 41.5 
Q 54.890625 34.8125 54.890625 23.390625 
Q 54.890625 11.625 47.5625 5.09375 
Q 40.234375 -1.421875 26.90625 -1.421875 
Q 22.3125 -1.421875 17.546875 -0.640625 
Q 12.796875 0.140625 7.71875 1.703125 
L 7.71875 11.625 
Q 12.109375 9.234375 16.796875 8.0625 
Q 21.484375 6.890625 26.703125 6.890625 
Q 35.15625 6.890625 40.078125 11.328125 
Q 45.015625 15.765625 45.015625 23.390625 
Q 45.015625 31 40.078125 35.4375 
Q 35.15625 39.890625 26.703125 39.890625 
Q 22.75 39.890625 18.8125 39.015625 
Q 14.890625 38.140625 10.796875 36.28125 
z
" id="DejaVuSans-53"/>
      </defs>
      <g transform="translate(360.671832 308.382812)scale(0.1 -0.1)">
       <use xlink:href="#DejaVuSans-53"/>
       <use x="63.623047" xlink:href="#DejaVuSans-48"/>
       <use x="127.246094" xlink:href="#DejaVuSans-48"/>
      </g>
     </g>
    </g>
    <g id="xtick_6">
     <g id="line2d_10">
      <g>
       <use style="stroke:#000000;stroke-width:0.8;" x="442.812752" xlink:href="#m4e02c9aefd" y="293.784375"/>
      </g>
     </g>
     <g id="text_6">
      <!-- 600 -->
      <defs>
       <path d="M 33.015625 40.375 
Q 26.375 40.375 22.484375 35.828125 
Q 18.609375 31.296875 18.609375 23.390625 
Q 18.609375 15.53125 22.484375 10.953125 
Q 26.375 6.390625 33.015625 6.390625 
Q 39.65625 6.390625 43.53125 10.953125 
Q 47.40625 15.53125 47.40625 23.390625 
Q 47.40625 31.296875 43.53125 35.828125 
Q 39.65625 40.375 33.015625 40.375 
z
M 52.59375 71.296875 
L 52.59375 62.3125 
Q 48.875 64.0625 45.09375 64.984375 
Q 41.3125 65.921875 37.59375 65.921875 
Q 27.828125 65.921875 22.671875 59.328125 
Q 17.53125 52.734375 16.796875 39.40625 
Q 19.671875 43.65625 24.015625 45.921875 
Q 28.375 48.1875 33.59375 48.1875 
Q 44.578125 48.1875 50.953125 41.515625 
Q 57.328125 34.859375 57.328125 23.390625 
Q 57.328125 12.15625 50.6875 5.359375 
Q 44.046875 -1.421875 33.015625 -1.421875 
Q 20.359375 -1.421875 13.671875 8.265625 
Q 6.984375 17.96875 6.984375 36.375 
Q 6.984375 53.65625 15.1875 63.9375 
Q 23.390625 74.21875 37.203125 74.21875 
Q 40.921875 74.21875 44.703125 73.484375 
Q 48.484375 72.75 52.59375 71.296875 
z
" id="DejaVuSans-54"/>
      </defs>
      <g transform="translate(433.269002 308.382812)scale(0.1 -0.1)">
       <use xlink:href="#DejaVuSans-54"/>
       <use x="63.623047" xlink:href="#DejaVuSans-48"/>
       <use x="127.246094" xlink:href="#DejaVuSans-48"/>
      </g>
     </g>
    </g>
    <g id="text_7">
     <!-- Tempo -->
     <defs>
      <path d="M -0.296875 72.90625 
L 61.375 72.90625 
L 61.375 64.59375 
L 35.5 64.59375 
L 35.5 0 
L 25.59375 0 
L 25.59375 64.59375 
L -0.296875 64.59375 
z
" id="DejaVuSans-84"/>
      <path d="M 56.203125 29.59375 
L 56.203125 25.203125 
L 14.890625 25.203125 
Q 15.484375 15.921875 20.484375 11.0625 
Q 25.484375 6.203125 34.421875 6.203125 
Q 39.59375 6.203125 44.453125 7.46875 
Q 49.3125 8.734375 54.109375 11.28125 
L 54.109375 2.78125 
Q 49.265625 0.734375 44.1875 -0.34375 
Q 39.109375 -1.421875 33.890625 -1.421875 
Q 20.796875 -1.421875 13.15625 6.1875 
Q 5.515625 13.8125 5.515625 26.8125 
Q 5.515625 40.234375 12.765625 48.109375 
Q 20.015625 56 32.328125 56 
Q 43.359375 56 49.78125 48.890625 
Q 56.203125 41.796875 56.203125 29.59375 
z
M 47.21875 32.234375 
Q 47.125 39.59375 43.09375 43.984375 
Q 39.0625 48.390625 32.421875 48.390625 
Q 24.90625 48.390625 20.390625 44.140625 
Q 15.875 39.890625 15.1875 32.171875 
z
" id="DejaVuSans-101"/>
      <path d="M 52 44.1875 
Q 55.375 50.25 60.0625 53.125 
Q 64.75 56 71.09375 56 
Q 79.640625 56 84.28125 50.015625 
Q 88.921875 44.046875 88.921875 33.015625 
L 88.921875 0 
L 79.890625 0 
L 79.890625 32.71875 
Q 79.890625 40.578125 77.09375 44.375 
Q 74.3125 48.1875 68.609375 48.1875 
Q 61.625 48.1875 57.5625 43.546875 
Q 53.515625 38.921875 53.515625 30.90625 
L 53.515625 0 
L 44.484375 0 
L 44.484375 32.71875 
Q 44.484375 40.625 41.703125 44.40625 
Q 38.921875 48.1875 33.109375 48.1875 
Q 26.21875 48.1875 22.15625 43.53125 
Q 18.109375 38.875 18.109375 30.90625 
L 18.109375 0 
L 9.078125 0 
L 9.078125 54.6875 
L 18.109375 54.6875 
L 18.109375 46.1875 
Q 21.1875 51.21875 25.484375 53.609375 
Q 29.78125 56 35.6875 56 
Q 41.65625 56 45.828125 52.96875 
Q 50 49.953125 52 44.1875 
z
" id="DejaVuSans-109"/>
      <path d="M 18.109375 8.203125 
L 18.109375 -20.796875 
L 9.078125 -20.796875 
L 9.078125 54.6875 
L 18.109375 54.6875 
L 18.109375 46.390625 
Q 20.953125 51.265625 25.265625 53.625 
Q 29.59375 56 35.59375 56 
Q 45.5625 56 51.78125 48.09375 
Q 58.015625 40.1875 58.015625 27.296875 
Q 58.015625 14.40625 51.78125 6.484375 
Q 45.5625 -1.421875 35.59375 -1.421875 
Q 29.59375 -1.421875 25.265625 0.953125 
Q 20.953125 3.328125 18.109375 8.203125 
z
M 48.6875 27.296875 
Q 48.6875 37.203125 44.609375 42.84375 
Q 40.53125 48.484375 33.40625 48.484375 
Q 26.265625 48.484375 22.1875 42.84375 
Q 18.109375 37.203125 18.109375 27.296875 
Q 18.109375 17.390625 22.1875 11.75 
Q 26.265625 6.109375 33.40625 6.109375 
Q 40.53125 6.109375 44.609375 11.75 
Q 48.6875 17.390625 48.6875 27.296875 
z
" id="DejaVuSans-112"/>
      <path d="M 30.609375 48.390625 
Q 23.390625 48.390625 19.1875 42.75 
Q 14.984375 37.109375 14.984375 27.296875 
Q 14.984375 17.484375 19.15625 11.84375 
Q 23.34375 6.203125 30.609375 6.203125 
Q 37.796875 6.203125 41.984375 11.859375 
Q 46.1875 17.53125 46.1875 27.296875 
Q 46.1875 37.015625 41.984375 42.703125 
Q 37.796875 48.390625 30.609375 48.390625 
z
M 30.609375 56 
Q 42.328125 56 49.015625 48.375 
Q 55.71875 40.765625 55.71875 27.296875 
Q 55.71875 13.875 49.015625 6.21875 
Q 42.328125 -1.421875 30.609375 -1.421875 
Q 18.84375 -1.421875 12.171875 6.21875 
Q 5.515625 13.875 5.515625 27.296875 
Q 5.515625 40.765625 12.171875 48.375 
Q 18.84375 56 30.609375 56 
z
" id="DejaVuSans-111"/>
     </defs>
     <g transform="translate(245.298438 322.060937)scale(0.1 -0.1)">
      <use xlink:href="#DejaVuSans-84"/>
      <use x="44.083984" xlink:href="#DejaVuSans-101"/>
      <use x="105.607422" xlink:href="#DejaVuSans-109"/>
      <use x="203.019531" xlink:href="#DejaVuSans-112"/>
      <use x="266.496094" xlink:href="#DejaVuSans-111"/>
     </g>
    </g>
   </g>
   <g id="matplotlib.axis_2">
    <g id="ytick_1">
     <g id="line2d_11">
      <defs>
       <path d="M 0 0 
L -3.5 0 
" id="m50abf22ce1" style="stroke:#000000;stroke-width:0.8;"/>
      </defs>
      <g>
       <use style="stroke:#000000;stroke-width:0.8;" x="38.482813" xlink:href="#m50abf22ce1" y="273.040457"/>
      </g>
     </g>
     <g id="text_8">
      <!-- −0.4 -->
      <defs>
       <path d="M 10.59375 35.5 
L 73.1875 35.5 
L 73.1875 27.203125 
L 10.59375 27.203125 
z
" id="DejaVuSans-8722"/>
       <path d="M 10.6875 12.40625 
L 21 12.40625 
L 21 0 
L 10.6875 0 
z
" id="DejaVuSans-46"/>
      </defs>
      <g transform="translate(7.2 276.839676)scale(0.1 -0.1)">
       <use xlink:href="#DejaVuSans-8722"/>
       <use x="83.789062" xlink:href="#DejaVuSans-48"/>
       <use x="147.412109" xlink:href="#DejaVuSans-46"/>
       <use x="179.199219" xlink:href="#DejaVuSans-52"/>
      </g>
     </g>
    </g>
    <g id="ytick_2">
     <g id="line2d_12">
      <g>
       <use style="stroke:#000000;stroke-width:0.8;" x="38.482813" xlink:href="#m50abf22ce1" y="233.264314"/>
      </g>
     </g>
     <g id="text_9">
      <!-- −0.2 -->
      <g transform="translate(7.2 237.063533)scale(0.1 -0.1)">
       <use xlink:href="#DejaVuSans-8722"/>
       <use x="83.789062" xlink:href="#DejaVuSans-48"/>
       <use x="147.412109" xlink:href="#DejaVuSans-46"/>
       <use x="179.199219" xlink:href="#DejaVuSans-50"/>
      </g>
     </g>
    </g>
    <g id="ytick_3">
     <g id="line2d_13">
      <g>
       <use style="stroke:#000000;stroke-width:0.8;" x="38.482813" xlink:href="#m50abf22ce1" y="193.488172"/>
      </g>
     </g>
     <g id="text_10">
      <!-- 0.0 -->
      <g transform="translate(15.579688 197.287391)scale(0.1 -0.1)">
       <use xlink:href="#DejaVuSans-48"/>
       <use x="63.623047" xlink:href="#DejaVuSans-46"/>
       <use x="95.410156" xlink:href="#DejaVuSans-48"/>
      </g>
     </g>
    </g>
    <g id="ytick_4">
     <g id="line2d_14">
      <g>
       <use style="stroke:#000000;stroke-width:0.8;" x="38.482813" xlink:href="#m50abf22ce1" y="153.71203"/>
      </g>
     </g>
     <g id="text_11">
      <!-- 0.2 -->
      <g transform="translate(15.579688 157.511248)scale(0.1 -0.1)">
       <use xlink:href="#DejaVuSans-48"/>
       <use x="63.623047" xlink:href="#DejaVuSans-46"/>
       <use x="95.410156" xlink:href="#DejaVuSans-50"/>
      </g>
     </g>
    </g>
    <g id="ytick_5">
     <g id="line2d_15">
      <g>
       <use style="stroke:#000000;stroke-width:0.8;" x="38.482813" xlink:href="#m50abf22ce1" y="113.935887"/>
      </g>
     </g>
     <g id="text_12">
      <!-- 0.4 -->
      <g transform="translate(15.579688 117.735106)scale(0.1 -0.1)">
       <use xlink:href="#DejaVuSans-48"/>
       <use x="63.623047" xlink:href="#DejaVuSans-46"/>
       <use x="95.410156" xlink:href="#DejaVuSans-52"/>
      </g>
     </g>
    </g>
    <g id="ytick_6">
     <g id="line2d_16">
      <g>
       <use style="stroke:#000000;stroke-width:0.8;" x="38.482813" xlink:href="#m50abf22ce1" y="74.159745"/>
      </g>
     </g>
     <g id="text_13">
      <!-- 0.6 -->
      <g transform="translate(15.579688 77.958963)scale(0.1 -0.1)">
       <use xlink:href="#DejaVuSans-48"/>
       <use x="63.623047" xlink:href="#DejaVuSans-46"/>
       <use x="95.410156" xlink:href="#DejaVuSans-54"/>
      </g>
     </g>
    </g>
    <g id="ytick_7">
     <g id="line2d_17">
      <g>
       <use style="stroke:#000000;stroke-width:0.8;" x="38.482813" xlink:href="#m50abf22ce1" y="34.383602"/>
      </g>
     </g>
     <g id="text_14">
      <!-- 0.8 -->
      <defs>
       <path d="M 31.78125 34.625 
Q 24.75 34.625 20.71875 30.859375 
Q 16.703125 27.09375 16.703125 20.515625 
Q 16.703125 13.921875 20.71875 10.15625 
Q 24.75 6.390625 31.78125 6.390625 
Q 38.8125 6.390625 42.859375 10.171875 
Q 46.921875 13.96875 46.921875 20.515625 
Q 46.921875 27.09375 42.890625 30.859375 
Q 38.875 34.625 31.78125 34.625 
z
M 21.921875 38.8125 
Q 15.578125 40.375 12.03125 44.71875 
Q 8.5 49.078125 8.5 55.328125 
Q 8.5 64.0625 14.71875 69.140625 
Q 20.953125 74.21875 31.78125 74.21875 
Q 42.671875 74.21875 48.875 69.140625 
Q 55.078125 64.0625 55.078125 55.328125 
Q 55.078125 49.078125 51.53125 44.71875 
Q 48 40.375 41.703125 38.8125 
Q 48.828125 37.15625 52.796875 32.3125 
Q 56.78125 27.484375 56.78125 20.515625 
Q 56.78125 9.90625 50.3125 4.234375 
Q 43.84375 -1.421875 31.78125 -1.421875 
Q 19.734375 -1.421875 13.25 4.234375 
Q 6.78125 9.90625 6.78125 20.515625 
Q 6.78125 27.484375 10.78125 32.3125 
Q 14.796875 37.15625 21.921875 38.8125 
z
M 18.3125 54.390625 
Q 18.3125 48.734375 21.84375 45.5625 
Q 25.390625 42.390625 31.78125 42.390625 
Q 38.140625 42.390625 41.71875 45.5625 
Q 45.3125 48.734375 45.3125 54.390625 
Q 45.3125 60.0625 41.71875 63.234375 
Q 38.140625 66.40625 31.78125 66.40625 
Q 25.390625 66.40625 21.84375 63.234375 
Q 18.3125 60.0625 18.3125 54.390625 
z
" id="DejaVuSans-56"/>
      </defs>
      <g transform="translate(15.579688 38.182821)scale(0.1 -0.1)">
       <use xlink:href="#DejaVuSans-48"/>
       <use x="63.623047" xlink:href="#DejaVuSans-46"/>
       <use x="95.410156" xlink:href="#DejaVuSans-56"/>
      </g>
     </g>
    </g>
   </g>
   <g id="patch_3">
    <path d="M 38.482813 293.784375 
L 38.482813 21.984375 
" style="fill:none;stroke:#000000;stroke-linecap:square;stroke-linejoin:miter;stroke-width:0.8;"/>
   </g>
   <g id="patch_4">
    <path d="M 38.482813 293.784375 
L 484.882812 293.784375 
" style="fill:none;stroke:#000000;stroke-linecap:square;stroke-linejoin:miter;stroke-width:0.8;"/>
   </g>
   <g id="text_15">
    <!-- K_t -->
    <defs>
     <path d="M 9.8125 72.90625 
L 19.671875 72.90625 
L 19.671875 42.09375 
L 52.390625 72.90625 
L 65.09375 72.90625 
L 28.90625 38.921875 
L 67.671875 0 
L 54.6875 0 
L 19.671875 35.109375 
L 19.671875 0 
L 9.8125 0 
z
" id="DejaVuSans-75"/>
     <path d="M 50.984375 -16.609375 
L 50.984375 -23.578125 
L -0.984375 -23.578125 
L -0.984375 -16.609375 
z
" id="DejaVuSans-95"/>
     <path d="M 18.3125 70.21875 
L 18.3125 54.6875 
L 36.8125 54.6875 
L 36.8125 47.703125 
L 18.3125 47.703125 
L 18.3125 18.015625 
Q 18.3125 11.328125 20.140625 9.421875 
Q 21.96875 7.515625 27.59375 7.515625 
L 36.8125 7.515625 
L 36.8125 0 
L 27.59375 0 
Q 17.1875 0 13.234375 3.875 
Q 9.28125 7.765625 9.28125 18.015625 
L 9.28125 47.703125 
L 2.6875 47.703125 
L 2.6875 54.6875 
L 9.28125 54.6875 
L 9.28125 70.21875 
z
" id="DejaVuSans-116"/>
    </defs>
    <g transform="translate(252.395938 15.984375)scale(0.12 -0.12)">
     <use xlink:href="#DejaVuSans-75"/>
     <use x="65.576172" xlink:href="#DejaVuSans-95"/>
     <use x="115.576172" xlink:href="#DejaVuSans-116"/>
    </g>
   </g>
   <g id="legend_1">
    <g id="patch_5">
     <path d="M 491.882812 189.771094 
L 566.28125 189.771094 
Q 568.28125 189.771094 568.28125 187.771094 
L 568.28125 127.997656 
Q 568.28125 125.997656 566.28125 125.997656 
L 491.882812 125.997656 
Q 489.882812 125.997656 489.882812 127.997656 
L 489.882812 187.771094 
Q 489.882812 189.771094 491.882812 189.771094 
z
" style="fill:#ffffff;opacity:0.8;stroke:#cccccc;stroke-linejoin:miter;"/>
    </g>
    <g id="line2d_18">
     <path d="M 493.882812 134.096094 
L 513.882812 134.096094 
" style="fill:none;stroke:#000000;stroke-dasharray:3.7,1.6;stroke-dashoffset:0;"/>
    </g>
    <g id="line2d_19"/>
    <g id="text_16">
     <!-- Baseline -->
     <defs>
      <path d="M 19.671875 34.8125 
L 19.671875 8.109375 
L 35.5 8.109375 
Q 43.453125 8.109375 47.28125 11.40625 
Q 51.125 14.703125 51.125 21.484375 
Q 51.125 28.328125 47.28125 31.5625 
Q 43.453125 34.8125 35.5 34.8125 
z
M 19.671875 64.796875 
L 19.671875 42.828125 
L 34.28125 42.828125 
Q 41.5 42.828125 45.03125 45.53125 
Q 48.578125 48.25 48.578125 53.8125 
Q 48.578125 59.328125 45.03125 62.0625 
Q 41.5 64.796875 34.28125 64.796875 
z
M 9.8125 72.90625 
L 35.015625 72.90625 
Q 46.296875 72.90625 52.390625 68.21875 
Q 58.5 63.53125 58.5 54.890625 
Q 58.5 48.1875 55.375 44.234375 
Q 52.25 40.28125 46.1875 39.3125 
Q 53.46875 37.75 57.5 32.78125 
Q 61.53125 27.828125 61.53125 20.40625 
Q 61.53125 10.640625 54.890625 5.3125 
Q 48.25 0 35.984375 0 
L 9.8125 0 
z
" id="DejaVuSans-66"/>
      <path d="M 34.28125 27.484375 
Q 23.390625 27.484375 19.1875 25 
Q 14.984375 22.515625 14.984375 16.5 
Q 14.984375 11.71875 18.140625 8.90625 
Q 21.296875 6.109375 26.703125 6.109375 
Q 34.1875 6.109375 38.703125 11.40625 
Q 43.21875 16.703125 43.21875 25.484375 
L 43.21875 27.484375 
z
M 52.203125 31.203125 
L 52.203125 0 
L 43.21875 0 
L 43.21875 8.296875 
Q 40.140625 3.328125 35.546875 0.953125 
Q 30.953125 -1.421875 24.3125 -1.421875 
Q 15.921875 -1.421875 10.953125 3.296875 
Q 6 8.015625 6 15.921875 
Q 6 25.140625 12.171875 29.828125 
Q 18.359375 34.515625 30.609375 34.515625 
L 43.21875 34.515625 
L 43.21875 35.40625 
Q 43.21875 41.609375 39.140625 45 
Q 35.0625 48.390625 27.6875 48.390625 
Q 23 48.390625 18.546875 47.265625 
Q 14.109375 46.140625 10.015625 43.890625 
L 10.015625 52.203125 
Q 14.9375 54.109375 19.578125 55.046875 
Q 24.21875 56 28.609375 56 
Q 40.484375 56 46.34375 49.84375 
Q 52.203125 43.703125 52.203125 31.203125 
z
" id="DejaVuSans-97"/>
      <path d="M 44.28125 53.078125 
L 44.28125 44.578125 
Q 40.484375 46.53125 36.375 47.5 
Q 32.28125 48.484375 27.875 48.484375 
Q 21.1875 48.484375 17.84375 46.4375 
Q 14.5 44.390625 14.5 40.28125 
Q 14.5 37.15625 16.890625 35.375 
Q 19.28125 33.59375 26.515625 31.984375 
L 29.59375 31.296875 
Q 39.15625 29.25 43.1875 25.515625 
Q 47.21875 21.78125 47.21875 15.09375 
Q 47.21875 7.46875 41.1875 3.015625 
Q 35.15625 -1.421875 24.609375 -1.421875 
Q 20.21875 -1.421875 15.453125 -0.5625 
Q 10.6875 0.296875 5.421875 2 
L 5.421875 11.28125 
Q 10.40625 8.6875 15.234375 7.390625 
Q 20.0625 6.109375 24.8125 6.109375 
Q 31.15625 6.109375 34.5625 8.28125 
Q 37.984375 10.453125 37.984375 14.40625 
Q 37.984375 18.0625 35.515625 20.015625 
Q 33.0625 21.96875 24.703125 23.78125 
L 21.578125 24.515625 
Q 13.234375 26.265625 9.515625 29.90625 
Q 5.8125 33.546875 5.8125 39.890625 
Q 5.8125 47.609375 11.28125 51.796875 
Q 16.75 56 26.8125 56 
Q 31.78125 56 36.171875 55.265625 
Q 40.578125 54.546875 44.28125 53.078125 
z
" id="DejaVuSans-115"/>
      <path d="M 9.421875 75.984375 
L 18.40625 75.984375 
L 18.40625 0 
L 9.421875 0 
z
" id="DejaVuSans-108"/>
      <path d="M 9.421875 54.6875 
L 18.40625 54.6875 
L 18.40625 0 
L 9.421875 0 
z
M 9.421875 75.984375 
L 18.40625 75.984375 
L 18.40625 64.59375 
L 9.421875 64.59375 
z
" id="DejaVuSans-105"/>
      <path d="M 54.890625 33.015625 
L 54.890625 0 
L 45.90625 0 
L 45.90625 32.71875 
Q 45.90625 40.484375 42.875 44.328125 
Q 39.84375 48.1875 33.796875 48.1875 
Q 26.515625 48.1875 22.3125 43.546875 
Q 18.109375 38.921875 18.109375 30.90625 
L 18.109375 0 
L 9.078125 0 
L 9.078125 54.6875 
L 18.109375 54.6875 
L 18.109375 46.1875 
Q 21.34375 51.125 25.703125 53.5625 
Q 30.078125 56 35.796875 56 
Q 45.21875 56 50.046875 50.171875 
Q 54.890625 44.34375 54.890625 33.015625 
z
" id="DejaVuSans-110"/>
     </defs>
     <g transform="translate(521.882812 137.596094)scale(0.1 -0.1)">
      <use xlink:href="#DejaVuSans-66"/>
      <use x="68.603516" xlink:href="#DejaVuSans-97"/>
      <use x="129.882812" xlink:href="#DejaVuSans-115"/>
      <use x="181.982422" xlink:href="#DejaVuSans-101"/>
      <use x="243.505859" xlink:href="#DejaVuSans-108"/>
      <use x="271.289062" xlink:href="#DejaVuSans-105"/>
      <use x="299.072266" xlink:href="#DejaVuSans-110"/>
      <use x="362.451172" xlink:href="#DejaVuSans-101"/>
     </g>
    </g>
    <g id="line2d_20">
     <path d="M 493.882812 148.774219 
L 513.882812 148.774219 
" style="fill:none;stroke:#1f77b4;stroke-linecap:square;stroke-width:1.5;"/>
    </g>
    <g id="line2d_21"/>
    <g id="text_17">
     <!-- $\Downarrow \sigma_\psi$ -->
     <defs>
      <path d="M 36.765625 14.3125 
L 41.9375 9.234375 
L 47.015625 14.3125 
L 47.015625 72.90625 
L 52.875 72.90625 
L 52.875 20.171875 
L 57.46875 24.75 
L 63.328125 18.890625 
L 44.09375 -0.34375 
L 39.703125 -0.34375 
L 20.5625 18.890625 
L 26.421875 24.75 
L 30.90625 20.171875 
L 30.90625 72.90625 
L 36.765625 72.90625 
z
" id="DejaVuSans-8659"/>
      <path d="M 34.671875 47.5625 
Q 27.25 47.5625 22.21875 42.1875 
Q 16.890625 36.578125 15.140625 27.296875 
Q 13.1875 17.484375 16.3125 11.8125 
Q 19.390625 6.203125 26.65625 6.203125 
Q 33.84375 6.203125 39.109375 11.859375 
Q 44.4375 17.53125 46.34375 27.296875 
Q 48.046875 36.234375 45.015625 42.1875 
Q 42.1875 47.5625 34.671875 47.5625 
z
M 36.078125 54.734375 
L 65.921875 54.6875 
L 64.15625 45.703125 
L 54.109375 45.703125 
Q 57.90625 38.09375 55.859375 27.296875 
Q 53.21875 13.875 45.0625 6.25 
Q 36.859375 -1.421875 25.140625 -1.421875 
Q 13.375 -1.421875 8.203125 6.25 
Q 3.03125 13.875 5.671875 27.296875 
Q 8.25 40.765625 16.40625 48.390625 
Q 23.1875 54.734375 36.078125 54.734375 
z
" id="DejaVuSans-Oblique-963"/>
      <path d="M 24.859375 -1.21875 
Q 13.921875 0.59375 9.625 5.328125 
Q 4.34375 11.140625 6.640625 23 
L 12.796875 54.6875 
L 21.875 54.6875 
L 15.765625 23.34375 
Q 14.0625 14.40625 17.484375 10.6875 
Q 20.515625 7.46875 26.421875 6.78125 
L 35.6875 54.6875 
L 44.625 54.6875 
L 35.359375 6.84375 
Q 41.890625 7.515625 45.75 10.75 
Q 50.734375 14.84375 52.390625 23.390625 
L 58.453125 54.6875 
L 67.53125 54.6875 
L 61.375 23.046875 
Q 58.984375 10.75 51.5625 5.375 
Q 44.875 0.53125 33.796875 -1.171875 
L 29.984375 -20.796875 
L 21.046875 -20.796875 
z
" id="DejaVuSans-Oblique-968"/>
     </defs>
     <g transform="translate(521.882812 152.274219)scale(0.1 -0.1)">
      <use transform="translate(19.482422 0.09375)" xlink:href="#DejaVuSans-8659"/>
      <use transform="translate(122.753906 0.09375)" xlink:href="#DejaVuSans-Oblique-963"/>
      <use transform="translate(186.132812 -16.3125)scale(0.7)" xlink:href="#DejaVuSans-Oblique-968"/>
     </g>
    </g>
    <g id="line2d_22">
     <path d="M 493.882812 164.472656 
L 513.882812 164.472656 
" style="fill:none;stroke:#ff7f0e;stroke-linecap:square;stroke-width:1.5;"/>
    </g>
    <g id="line2d_23"/>
    <g id="text_18">
     <!-- $\Downarrow s_\psi$ -->
     <defs>
      <path d="M 50 53.078125 
L 48.296875 44.578125 
Q 44.734375 46.53125 40.765625 47.5 
Q 36.8125 48.484375 32.625 48.484375 
Q 25.53125 48.484375 21.453125 46.0625 
Q 17.390625 43.65625 17.390625 39.5 
Q 17.390625 34.671875 26.859375 32.078125 
Q 27.59375 31.890625 27.9375 31.78125 
L 30.8125 30.90625 
Q 39.796875 28.421875 42.796875 25.6875 
Q 45.796875 22.953125 45.796875 18.21875 
Q 45.796875 9.515625 38.890625 4.046875 
Q 31.984375 -1.421875 20.796875 -1.421875 
Q 16.453125 -1.421875 11.671875 -0.578125 
Q 6.890625 0.25 1.125 2 
L 2.875 11.28125 
Q 7.8125 8.734375 12.59375 7.421875 
Q 17.390625 6.109375 21.78125 6.109375 
Q 28.375 6.109375 32.5 8.9375 
Q 36.625 11.765625 36.625 16.109375 
Q 36.625 20.796875 25.78125 23.6875 
L 24.859375 23.921875 
L 21.78125 24.703125 
Q 14.9375 26.515625 11.765625 29.46875 
Q 8.59375 32.421875 8.59375 37.015625 
Q 8.59375 45.75 15.15625 50.875 
Q 21.734375 56 33.015625 56 
Q 37.453125 56 41.671875 55.265625 
Q 45.90625 54.546875 50 53.078125 
z
" id="DejaVuSans-Oblique-115"/>
     </defs>
     <g transform="translate(521.882812 167.972656)scale(0.1 -0.1)">
      <use transform="translate(19.482422 0.09375)" xlink:href="#DejaVuSans-8659"/>
      <use transform="translate(122.753906 0.09375)" xlink:href="#DejaVuSans-Oblique-115"/>
      <use transform="translate(174.853516 -16.3125)scale(0.7)" xlink:href="#DejaVuSans-Oblique-968"/>
     </g>
    </g>
    <g id="line2d_24">
     <path d="M 493.882812 180.171094 
L 513.882812 180.171094 
" style="fill:none;stroke:#2ca02c;stroke-linecap:square;stroke-width:1.5;"/>
    </g>
    <g id="line2d_25"/>
    <g id="text_19">
     <!-- $\Uparrow \eta$ -->
     <defs>
      <path d="M 36.765625 58.59375 
L 36.765625 0 
L 30.90625 0 
L 30.90625 52.734375 
L 26.421875 48.140625 
L 20.5625 54 
L 39.703125 73.25 
L 44.09375 73.25 
L 63.328125 54 
L 57.46875 48.140625 
L 52.875 52.734375 
L 52.875 0 
L 47.015625 0 
L 47.015625 58.59375 
L 41.9375 63.671875 
z
" id="DejaVuSans-8657"/>
      <path d="M 57.859375 33.015625 
L 47.40625 -20.796875 
L 38.421875 -20.796875 
L 48.828125 32.71875 
Q 50.34375 40.484375 48.046875 44.34375 
Q 45.796875 48.1875 39.75 48.1875 
Q 32.46875 48.1875 27.34375 43.5625 
Q 22.265625 38.921875 20.703125 30.90625 
L 14.703125 0 
L 5.671875 0 
L 16.3125 54.6875 
L 25.34375 54.6875 
L 23.6875 46.1875 
Q 27.828125 51.125 32.71875 53.5625 
Q 37.546875 56 43.265625 56 
Q 52.6875 56 56.390625 50.203125 
Q 60.0625 44.34375 57.859375 33.015625 
z
" id="DejaVuSans-Oblique-951"/>
     </defs>
     <g transform="translate(521.882812 183.671094)scale(0.1 -0.1)">
      <use transform="translate(19.482422 0.75)" xlink:href="#DejaVuSans-8657"/>
      <use transform="translate(122.753906 0.75)" xlink:href="#DejaVuSans-Oblique-951"/>
     </g>
    </g>
   </g>
  </g>
 </g>
 <defs>
  <clipPath id="pc4ed74a8f7">
   <rect height="271.8" width="446.4" x="38.482813" y="21.984375"/>
  </clipPath>
 </defs>
</svg>
