<?xml version="1.0" encoding="utf-8" standalone="no"?>
<!DOCTYPE svg PUBLIC "-//W3C//DTD SVG 1.1//EN"
  "http://www.w3.org/Graphics/SVG/1.1/DTD/svg11.dtd">
<!-- Created with matplotlib (https://matplotlib.org/) -->
<svg height="331.4625pt" version="1.1" viewBox="0 0 567.101562 331.4625" width="567.101562pt" xmlns="http://www.w3.org/2000/svg" xmlns:xlink="http://www.w3.org/1999/xlink">
 <defs>
  <style type="text/css">
*{stroke-linecap:butt;stroke-linejoin:round;}
  </style>
 </defs>
 <g id="figure_1">
  <g id="patch_1">
   <path d="M 0 331.4625 
L 567.101562 331.4625 
L 567.101562 0 
L 0 0 
z
" style="fill:#ffffff;"/>
  </g>
  <g id="axes_1">
   <g id="patch_2">
    <path d="M 30.103125 293.90625 
L 476.503125 293.90625 
L 476.503125 22.10625 
L 30.103125 22.10625 
z
" style="fill:#ffffff;"/>
   </g>
   <g id="line2d_1">
    <path clip-path="url(#pb6c2d431be)" d="M 50.394034 279.482264 
L 51.120006 279.787495 
L 51.845977 281.551705 
L 52.571949 279.461512 
L 53.297921 279.862224 
L 54.023893 279.184712 
L 54.749864 279.062937 
L 55.475836 279.294973 
L 56.201808 279.722116 
L 56.927779 278.717367 
L 57.653751 281.532435 
L 58.379723 278.544638 
L 59.831666 279.351304 
L 60.557638 281.234769 
L 61.28361 280.724062 
L 62.009581 279.041795 
L 62.735553 281.319828 
L 63.461525 278.758867 
L 64.187496 281.423368 
L 64.913468 280.728636 
L 65.63944 278.896051 
L 66.365412 281.255807 
L 67.091383 279.016268 
L 68.543327 279.17542 
L 69.269298 278.941915 
L 69.99527 278.484709 
L 70.721242 281.165878 
L 71.447213 278.326534 
L 72.173185 281.16548 
L 72.899157 280.388197 
L 73.625129 280.845783 
L 74.3511 278.951837 
L 75.077072 279.321671 
L 75.803044 278.423358 
L 76.529015 278.189206 
L 77.254987 281.002165 
L 77.980959 280.328817 
L 78.70693 280.578184 
L 79.432902 278.851425 
L 80.158874 280.849789 
L 80.884846 280.365524 
L 81.610817 278.469119 
L 82.336789 278.636984 
L 83.062761 280.797543 
L 83.788732 280.177784 
L 84.514704 280.453949 
L 85.240676 280.453455 
L 85.966648 278.463047 
L 86.692619 280.897628 
L 87.418591 280.069116 
L 88.144563 278.474956 
L 88.870534 280.585403 
L 89.596506 280.191275 
L 90.322478 280.172351 
L 91.048449 277.852809 
L 91.774421 278.086893 
L 92.500393 278.099295 
L 93.226365 277.479923 
L 93.952336 277.048257 
L 94.678308 277.457418 
L 95.40428 280.556527 
L 96.130251 279.428943 
L 96.856223 279.812301 
L 97.582195 276.640802 
L 98.308166 277.776585 
L 99.76011 275.951844 
L 100.486082 275.727351 
L 101.212053 276.27917 
L 101.938025 275.202192 
L 102.663997 280.275985 
L 103.389968 275.386987 
L 104.11594 276.041094 
L 104.841912 274.580365 
L 105.567883 274.618494 
L 106.293855 277.295924 
L 107.745799 275.346119 
L 108.47177 277.204232 
L 109.197742 279.457855 
L 109.923714 274.989167 
L 110.649685 274.230743 
L 111.375657 273.977619 
L 112.101629 280.106566 
L 112.827601 274.353927 
L 113.553572 276.139619 
L 114.279544 279.506553 
L 115.005516 274.763781 
L 115.731487 275.799078 
L 116.457459 275.454376 
L 117.183431 274.352081 
L 117.909402 274.349079 
L 118.635374 273.234246 
L 119.361346 274.254805 
L 120.813289 274.751724 
L 121.539261 279.288077 
L 122.265233 277.773181 
L 122.991204 273.288799 
L 123.717176 274.924359 
L 124.443148 273.577234 
L 125.169119 273.554699 
L 125.895091 278.93281 
L 126.621063 277.235204 
L 127.347035 271.368048 
L 128.798978 274.415625 
L 129.52495 272.479721 
L 130.250921 273.01706 
L 130.976893 272.771722 
L 131.702865 278.969416 
L 132.428836 276.868447 
L 133.154808 273.058782 
L 133.88078 272.851257 
L 134.606752 270.602484 
L 135.332723 279.164884 
L 136.784667 273.459544 
L 137.510638 273.207932 
L 138.23661 272.511416 
L 138.962582 271.34418 
L 139.688554 273.097048 
L 140.414525 270.750438 
L 141.140497 269.752847 
L 141.866469 270.720193 
L 142.59244 268.879626 
L 143.318412 270.255897 
L 144.044384 268.333401 
L 144.770355 271.158468 
L 145.496327 269.871701 
L 146.222299 278.140147 
L 146.948271 268.707779 
L 147.674242 267.431276 
L 148.400214 267.225671 
L 149.126186 272.526829 
L 149.852157 269.620709 
L 150.578129 270.268596 
L 151.304101 266.636528 
L 152.030072 270.082036 
L 152.756044 269.128463 
L 153.482016 267.715946 
L 154.207988 270.318074 
L 154.933959 267.031502 
L 155.659931 267.202429 
L 156.385903 265.381877 
L 157.111874 277.178164 
L 157.837846 274.160448 
L 158.563818 275.10928 
L 159.289789 274.889544 
L 160.015761 268.125879 
L 160.741733 267.034332 
L 161.467705 267.883219 
L 162.193676 277.115954 
L 162.919648 274.00031 
L 163.64562 274.638189 
L 164.371591 266.910735 
L 165.097563 266.621946 
L 165.823535 269.025243 
L 166.549507 268.2829 
L 167.275478 267.324572 
L 168.00145 265.105235 
L 168.727422 267.711093 
L 169.453393 267.670544 
L 170.179365 266.864016 
L 170.905337 266.912672 
L 171.631308 266.563044 
L 172.35728 265.127986 
L 173.083252 266.715505 
L 173.809224 274.923722 
L 174.535195 272.326926 
L 175.261167 265.146331 
L 175.987139 264.895975 
L 176.71311 262.713103 
L 177.439082 263.368197 
L 178.165054 261.33533 
L 178.891025 265.304069 
L 179.616997 262.361566 
L 180.342969 264.971461 
L 181.068941 262.397978 
L 181.794912 260.587454 
L 182.520884 265.906041 
L 183.246856 260.340387 
L 183.972827 264.362604 
L 184.698799 261.552744 
L 185.424771 263.680428 
L 186.150742 260.670842 
L 186.876714 260.076955 
L 187.602686 264.207347 
L 189.054629 261.345511 
L 189.780601 258.966177 
L 190.506573 260.156112 
L 191.232544 259.615342 
L 191.958516 273.054849 
L 192.684488 257.731261 
L 193.41046 257.472896 
L 194.136431 256.483022 
L 194.862403 256.929836 
L 195.588375 256.501563 
L 196.314346 259.641598 
L 197.040318 258.850329 
L 197.76629 273.148446 
L 198.492261 268.709468 
L 199.218233 258.201017 
L 199.944205 257.044714 
L 200.670177 260.219173 
L 201.396148 271.746502 
L 202.12212 268.161623 
L 202.848092 253.662737 
L 203.574063 272.088814 
L 204.300035 267.311758 
L 205.026007 258.380662 
L 205.751978 255.583085 
L 206.47795 254.127668 
L 207.203922 254.515251 
L 207.929894 259.830245 
L 208.655865 261.460336 
L 209.381837 253.970388 
L 210.107809 252.126222 
L 210.83378 256.024278 
L 211.559752 251.679302 
L 213.011695 248.858279 
L 213.737667 255.180935 
L 214.463639 248.857282 
L 215.189611 250.085666 
L 215.915582 253.084385 
L 216.641554 268.290001 
L 217.367526 247.851165 
L 218.093497 252.036336 
L 218.819469 268.44582 
L 219.545441 263.931294 
L 220.271413 250.898277 
L 220.997384 250.454551 
L 221.723356 269.961853 
L 222.449328 263.222417 
L 223.175299 266.145476 
L 223.901271 251.302416 
L 224.627243 247.098424 
L 225.353214 267.832447 
L 226.079186 262.904311 
L 226.805158 251.620078 
L 227.53113 267.048119 
L 228.257101 246.293664 
L 228.983073 253.788349 
L 229.709045 245.507454 
L 230.435016 249.588848 
L 231.160988 266.248171 
L 231.88696 261.076519 
L 232.612931 246.222948 
L 233.338903 244.362284 
L 234.064875 245.427322 
L 234.790847 247.86241 
L 235.516818 247.446886 
L 236.24279 265.66128 
L 236.968762 244.165148 
L 237.694733 245.177537 
L 238.420705 265.646425 
L 239.146677 244.963017 
L 239.872648 245.625842 
L 240.59862 263.696357 
L 241.324592 245.468559 
L 242.050564 264.680523 
L 242.776535 259.422181 
L 243.502507 261.121995 
L 244.228479 246.093602 
L 244.95445 244.127938 
L 245.680422 262.796989 
L 246.406394 241.785099 
L 247.132366 240.0006 
L 247.858337 239.647516 
L 249.310281 241.151443 
L 250.036252 260.529717 
L 250.762224 231.914922 
L 251.488196 244.86121 
L 252.214167 240.380496 
L 252.940139 242.618033 
L 253.666111 260.095178 
L 254.392083 238.46758 
L 255.118054 259.879369 
L 255.844026 237.829309 
L 256.569998 234.969361 
L 257.295969 234.810684 
L 258.021941 230.007716 
L 258.747913 259.109773 
L 259.473884 253.007575 
L 260.199856 229.483378 
L 260.925828 236.50942 
L 261.6518 234.802112 
L 262.377771 235.229269 
L 263.103743 235.080737 
L 263.829715 225.782636 
L 264.555686 226.068827 
L 265.281658 221.465998 
L 266.00763 228.07233 
L 266.733602 256.266578 
L 267.459573 222.640719 
L 268.185545 231.593416 
L 268.911517 229.450375 
L 269.637488 225.892796 
L 270.36346 220.60136 
L 271.089432 218.037653 
L 271.815403 217.408912 
L 272.541375 208.882908 
L 273.267347 209.204066 
L 273.993319 208.411431 
L 274.71929 235.542933 
L 275.445262 249.27949 
L 276.171234 242.443643 
L 276.897205 246.419883 
L 277.623177 246.254463 
L 278.349149 215.299483 
L 279.07512 252.108898 
L 279.801092 243.598145 
L 280.527064 215.395745 
L 281.253036 231.648185 
L 281.979007 221.086549 
L 282.704979 249.866465 
L 283.430951 213.755419 
L 284.156922 215.046623 
L 284.882894 226.249287 
L 285.608866 209.175989 
L 286.334837 212.908486 
L 287.060809 210.929178 
L 287.786781 203.980166 
L 288.512753 210.860809 
L 289.238724 200.836739 
L 289.964696 202.338172 
L 290.690668 245.300906 
L 291.416639 190.449104 
L 292.142611 204.833157 
L 292.868583 205.771021 
L 293.594555 211.865056 
L 294.320526 207.87424 
L 295.046498 199.136194 
L 295.77247 195.900823 
L 296.498441 204.645698 
L 297.224413 200.853072 
L 297.950385 205.526849 
L 298.676356 240.172208 
L 299.402328 230.140158 
L 300.1283 234.438039 
L 300.854272 189.325717 
L 301.580243 204.096464 
L 302.306215 194.385426 
L 303.032187 238.440542 
L 303.758158 189.505643 
L 304.48413 196.055795 
L 305.210102 200.291474 
L 305.936073 201.425138 
L 306.662045 234.900578 
L 307.388017 189.396986 
L 308.113989 193.744039 
L 308.83996 187.520548 
L 309.565932 203.870022 
L 310.291904 185.314647 
L 311.017875 239.93949 
L 311.743847 187.361917 
L 312.469819 194.025131 
L 313.19579 193.982915 
L 313.921762 230.941387 
L 314.647734 185.1406 
L 315.373706 192.61812 
L 316.099677 180.585548 
L 316.825649 230.084772 
L 317.551621 219.671497 
L 318.277592 224.166006 
L 319.003564 222.946875 
L 319.729536 187.951431 
L 320.455508 229.869426 
L 321.181479 184.954476 
L 321.907451 192.789232 
L 322.633423 191.130676 
L 323.359394 229.209452 
L 324.085366 185.937229 
L 324.811338 179.01313 
L 325.537309 224.877172 
L 326.263281 183.929963 
L 326.989253 183.462539 
L 327.715225 185.566731 
L 328.441196 181.598865 
L 329.167168 225.951092 
L 329.89314 213.270873 
L 330.619111 183.395097 
L 331.345083 183.543765 
L 332.071055 221.68206 
L 332.797026 213.263905 
L 333.522998 177.285881 
L 334.24897 177.923333 
L 334.974942 220.716167 
L 335.700913 209.58651 
L 336.426885 176.669673 
L 337.152857 188.734531 
L 337.878828 171.605722 
L 338.6048 222.245256 
L 339.330772 174.026634 
L 340.056743 218.247135 
L 340.782715 212.299265 
L 341.508687 211.302641 
L 342.234659 209.068391 
L 342.96063 173.732502 
L 343.686602 173.645784 
L 344.412574 213.966349 
L 345.138545 173.432298 
L 345.864517 163.623802 
L 346.590489 210.530249 
L 347.316461 159.548568 
L 348.042432 210.769209 
L 348.768404 163.595104 
L 349.494376 159.306428 
L 350.220347 168.635226 
L 350.946319 160.428854 
L 351.672291 160.036336 
L 352.398262 202.347534 
L 353.124234 145.346886 
L 353.850206 206.034028 
L 354.576178 148.696112 
L 355.302149 201.894317 
L 356.028121 192.068623 
L 356.754093 195.179366 
L 357.480064 153.170808 
L 358.206036 153.314326 
L 358.932008 154.126751 
L 359.657979 148.951322 
L 360.383951 147.583388 
L 361.109923 151.481027 
L 361.835895 194.182399 
L 362.561866 187.825866 
L 363.287838 147.966083 
L 364.01381 191.299007 
L 364.739781 132.822927 
L 365.465753 140.597571 
L 366.191725 190.282789 
L 366.917696 131.654422 
L 367.643668 192.517533 
L 368.36964 174.154987 
L 369.095612 130.309514 
L 369.821583 143.259489 
L 370.547555 142.478823 
L 371.999498 123.115849 
L 372.72547 130.798432 
L 373.451442 120.924141 
L 374.177414 180.123928 
L 374.903385 166.216842 
L 375.629357 170.287279 
L 376.355329 117.486169 
L 377.0813 128.30716 
L 377.807272 176.650135 
L 378.533244 163.917745 
L 379.259215 170.292534 
L 379.985187 167.559702 
L 380.711159 120.138566 
L 381.437131 174.578898 
L 382.163102 116.238942 
L 382.889074 122.707768 
L 383.615046 120.137517 
L 384.341017 120.996376 
L 385.066989 116.646865 
L 385.792961 164.612905 
L 386.518932 104.929967 
L 387.244904 121.696402 
L 387.970876 115.083279 
L 388.696848 119.124263 
L 389.422819 105.186157 
L 390.148791 160.448185 
L 390.874763 149.513544 
L 391.600734 155.957557 
L 392.326706 100.406111 
L 393.052678 118.762388 
L 393.778649 101.553493 
L 394.504621 155.711688 
L 395.230593 93.567488 
L 395.956565 153.44818 
L 396.682536 96.655351 
L 397.408508 100.476343 
L 398.13448 89.816118 
L 398.860451 145.462847 
L 399.586423 136.579918 
L 400.312395 141.016355 
L 401.038367 90.133019 
L 401.764338 151.540162 
L 402.49031 137.257023 
L 403.216282 139.345039 
L 403.942253 90.415177 
L 404.668225 97.626122 
L 405.394197 140.768412 
L 406.120168 135.500654 
L 406.84614 133.782276 
L 407.572112 134.809962 
L 408.298084 90.102796 
L 409.024055 146.773429 
L 409.750027 88.292353 
L 410.475999 139.485022 
L 411.20197 128.359786 
L 411.927942 88.869922 
L 412.653914 91.661079 
L 413.379885 93.567356 
L 414.105857 135.619859 
L 414.831829 83.278155 
L 415.557801 132.351206 
L 416.283772 124.983387 
L 417.009744 83.231175 
L 417.735716 130.471614 
L 418.461687 123.74023 
L 419.187659 124.987883 
L 419.913631 82.211507 
L 420.639602 128.448158 
L 421.365574 77.698643 
L 422.091546 125.921615 
L 422.817518 70.999847 
L 423.543489 69.50354 
L 424.995433 70.571787 
L 425.721404 117.685968 
L 426.447376 62.233262 
L 427.89932 74.553847 
L 428.625291 62.605082 
L 429.351263 68.184125 
L 430.077235 69.461921 
L 430.803206 107.855457 
L 431.529178 104.046813 
L 432.25515 104.198751 
L 432.981121 103.86986 
L 433.707093 103.697209 
L 434.433065 100.844533 
L 435.159037 63.867259 
L 435.885008 107.357405 
L 436.61098 56.645377 
L 437.336952 104.409937 
L 438.062923 60.204074 
L 438.788895 62.575082 
L 439.514867 102.60971 
L 440.240838 96.2438 
L 440.96681 98.806236 
L 441.692782 61.385132 
L 442.418754 98.588868 
L 443.870697 95.50865 
L 444.596669 86.504764 
L 445.32264 91.980978 
L 446.048612 51.383054 
L 446.774584 96.469549 
L 447.500555 88.354989 
L 448.226527 83.837776 
L 448.952499 56.185458 
L 449.678471 49.587439 
L 450.404442 81.770161 
L 451.130414 80.822273 
L 451.856386 83.258567 
L 452.582357 38.477055 
L 453.308329 39.853411 
L 454.034301 79.095579 
L 454.760273 74.326304 
L 455.486244 74.932409 
L 456.212216 75.120085 
L 456.212216 75.120085 
" style="fill:none;stroke:#1f77b4;stroke-linecap:square;stroke-width:1.5;"/>
   </g>
   <g id="line2d_2">
    <path clip-path="url(#pb6c2d431be)" d="M 50.394034 280.614845 
L 51.120006 280.337362 
L 51.845977 280.706459 
L 52.571949 279.907653 
L 53.297921 279.627423 
L 55.475836 279.962784 
L 56.201808 281.055533 
L 56.927779 280.621283 
L 57.653751 279.965931 
L 58.379723 280.370015 
L 59.831666 279.713378 
L 60.557638 279.624084 
L 61.28361 278.999314 
L 62.009581 278.652583 
L 62.735553 278.502088 
L 63.461525 280.866311 
L 64.187496 279.105923 
L 64.913468 279.636845 
L 65.63944 278.925935 
L 66.365412 279.149129 
L 67.091383 277.869172 
L 67.817355 278.700229 
L 68.543327 280.503803 
L 69.269298 279.94616 
L 69.99527 280.769444 
L 70.721242 279.350706 
L 71.447213 280.581272 
L 72.173185 280.597953 
L 72.899157 280.081953 
L 73.625129 280.024437 
L 74.3511 280.687293 
L 75.077072 279.770467 
L 75.803044 279.349305 
L 76.529015 279.276609 
L 77.254987 278.79804 
L 77.980959 279.191081 
L 78.70693 277.983268 
L 79.432902 277.652098 
L 80.158874 278.687189 
L 80.884846 277.455155 
L 81.610817 276.666114 
L 82.336789 276.158063 
L 83.062761 277.429491 
L 83.788732 278.067053 
L 84.514704 277.299726 
L 85.240676 280.696684 
L 85.966648 278.465249 
L 86.692619 280.457876 
L 87.418591 278.601377 
L 88.144563 278.640604 
L 88.870534 278.519487 
L 89.596506 280.081592 
L 90.322478 278.753026 
L 91.048449 278.730963 
L 91.774421 278.441624 
L 92.500393 277.977675 
L 93.226365 277.150827 
L 93.952336 276.698227 
L 94.678308 276.712371 
L 95.40428 277.918957 
L 96.130251 278.437829 
L 96.856223 279.388499 
L 97.582195 276.993138 
L 99.034138 278.053948 
L 99.76011 276.457992 
L 100.486082 276.36225 
L 101.212053 277.466577 
L 101.938025 274.716106 
L 102.663997 275.899185 
L 103.389968 275.019727 
L 104.11594 275.841007 
L 104.841912 279.240654 
L 105.567883 276.023565 
L 106.293855 275.219686 
L 107.019827 279.363027 
L 107.745799 276.127292 
L 108.47177 279.623836 
L 109.197742 276.60282 
L 110.649685 275.3368 
L 111.375657 275.790898 
L 112.101629 274.542764 
L 112.827601 279.328738 
L 113.553572 277.639693 
L 114.279544 276.663943 
L 115.005516 277.273814 
L 115.731487 278.247952 
L 116.457459 276.595315 
L 117.909402 278.094923 
L 118.635374 277.804844 
L 119.361346 277.262659 
L 120.087318 276.18482 
L 120.813289 275.702972 
L 121.539261 274.900606 
L 122.265233 276.284215 
L 122.991204 274.24409 
L 124.443148 277.962463 
L 125.169119 275.934233 
L 125.895091 274.55062 
L 126.621063 274.237026 
L 127.347035 273.729602 
L 128.073006 273.55954 
L 128.798978 272.614264 
L 129.52495 274.014928 
L 130.250921 271.299656 
L 130.976893 274.053046 
L 131.702865 271.364843 
L 132.428836 269.282078 
L 133.154808 270.519765 
L 133.88078 268.434343 
L 134.606752 267.213628 
L 135.332723 271.126328 
L 136.058695 268.27877 
L 136.784667 268.499396 
L 137.510638 268.929951 
L 138.23661 267.509623 
L 138.962582 267.463284 
L 139.688554 267.104042 
L 140.414525 267.34229 
L 141.140497 265.610437 
L 141.866469 265.394633 
L 142.59244 262.69493 
L 143.318412 263.930661 
L 144.044384 272.03648 
L 144.770355 272.569527 
L 145.496327 271.323115 
L 146.222299 273.364072 
L 147.674242 269.499452 
L 148.400214 275.762828 
L 149.126186 271.917055 
L 149.852157 270.04748 
L 150.578129 276.538538 
L 151.304101 271.053321 
L 152.030072 269.897656 
L 152.756044 269.054658 
L 153.482016 268.838769 
L 154.207988 268.873331 
L 154.933959 268.268121 
L 155.659931 263.827721 
L 156.385903 271.605163 
L 157.111874 264.778387 
L 157.837846 270.078014 
L 158.563818 273.592754 
L 159.289789 270.56744 
L 160.015761 272.810464 
L 160.741733 269.664492 
L 161.467705 270.176544 
L 162.193676 270.419706 
L 162.919648 271.274098 
L 163.64562 269.320154 
L 164.371591 268.518822 
L 165.097563 266.705119 
L 165.823535 275.147328 
L 166.549507 267.699501 
L 167.275478 275.280756 
L 168.00145 271.901226 
L 168.727422 271.113556 
L 169.453393 273.316957 
L 170.179365 273.522824 
L 170.905337 273.168911 
L 171.631308 273.62735 
L 172.35728 270.957328 
L 173.083252 273.804146 
L 173.809224 271.634517 
L 174.535195 270.986015 
L 175.261167 273.793381 
L 175.987139 270.408227 
L 176.71311 273.247666 
L 177.439082 271.433927 
L 178.165054 270.700152 
L 178.891025 268.787571 
L 179.616997 269.300873 
L 180.342969 266.989192 
L 181.068941 272.127911 
L 181.794912 271.098105 
L 182.520884 271.706959 
L 183.246856 268.918832 
L 183.972827 270.064868 
L 185.424771 267.442333 
L 186.150742 271.065209 
L 186.876714 266.363829 
L 187.602686 266.153865 
L 188.328658 264.041331 
L 189.054629 263.320824 
L 189.780601 265.118903 
L 190.506573 260.854326 
L 191.232544 262.45843 
L 191.958516 264.8761 
L 192.684488 265.577506 
L 194.136431 260.752056 
L 194.862403 256.544376 
L 195.588375 261.529894 
L 196.314346 268.047915 
L 197.040318 261.213366 
L 197.76629 269.769368 
L 198.492261 262.175238 
L 199.218233 259.109339 
L 199.944205 260.535827 
L 200.670177 267.800908 
L 201.396148 260.299814 
L 202.12212 259.817162 
L 202.848092 255.41634 
L 203.574063 256.481013 
L 204.300035 260.422099 
L 205.026007 253.913704 
L 205.751978 251.166091 
L 206.47795 259.362266 
L 207.203922 253.3428 
L 207.929894 266.231555 
L 208.655865 255.708941 
L 209.381837 251.666157 
L 210.83378 252.242101 
L 211.559752 248.427291 
L 212.285724 248.748744 
L 213.011695 246.121857 
L 213.737667 244.071532 
L 214.463639 240.905186 
L 215.189611 239.866608 
L 215.915582 245.931337 
L 216.641554 234.41493 
L 217.367526 240.134057 
L 218.093497 238.272002 
L 218.819469 231.476211 
L 219.545441 243.326596 
L 220.997384 233.529556 
L 221.723356 242.974767 
L 222.449328 236.681398 
L 223.175299 254.589641 
L 223.901271 237.338384 
L 224.627243 264.147024 
L 226.079186 246.247447 
L 226.805158 246.183083 
L 227.53113 255.561644 
L 228.257101 260.226959 
L 228.983073 246.760821 
L 229.709045 247.093145 
L 230.435016 242.388255 
L 231.160988 250.173139 
L 231.88696 259.371042 
L 232.612931 258.23327 
L 233.338903 248.397367 
L 234.064875 246.265892 
L 234.790847 245.426151 
L 235.516818 239.56506 
L 236.24279 248.156003 
L 236.968762 242.926877 
L 237.694733 257.141554 
L 238.420705 254.502823 
L 239.146677 253.121962 
L 239.872648 244.671294 
L 240.59862 257.810689 
L 241.324592 247.048377 
L 242.050564 258.068517 
L 242.776535 254.804715 
L 243.502507 247.72772 
L 244.228479 248.905789 
L 244.95445 245.207814 
L 245.680422 243.574631 
L 246.406394 259.122957 
L 247.132366 243.790843 
L 247.858337 241.642165 
L 248.584309 241.607234 
L 249.310281 242.129804 
L 250.036252 235.559682 
L 250.762224 242.871951 
L 251.488196 241.25535 
L 252.214167 233.830851 
L 252.940139 237.059136 
L 253.666111 243.85031 
L 254.392083 239.55844 
L 255.118054 254.082918 
L 255.844026 249.656492 
L 256.569998 240.451008 
L 257.295969 240.173396 
L 258.021941 235.468829 
L 258.747913 251.453522 
L 259.473884 249.01681 
L 260.199856 238.642403 
L 260.925828 242.943689 
L 261.6518 234.775595 
L 262.377771 235.173838 
L 263.103743 237.937053 
L 263.829715 233.35887 
L 264.555686 227.264241 
L 265.281658 232.740827 
L 266.00763 252.903493 
L 266.733602 234.647258 
L 267.459573 237.953898 
L 268.185545 246.668996 
L 268.911517 235.644219 
L 269.637488 230.681154 
L 270.36346 249.182291 
L 271.089432 231.071348 
L 271.815403 246.899978 
L 272.541375 231.975019 
L 273.267347 245.520003 
L 273.993319 237.163018 
L 274.71929 246.087384 
L 275.445262 245.944027 
L 276.171234 238.522527 
L 276.897205 246.269786 
L 277.623177 246.835523 
L 278.349149 241.995253 
L 279.07512 245.80472 
L 279.801092 247.096838 
L 280.527064 239.96409 
L 281.253036 247.638916 
L 281.979007 240.572388 
L 282.704979 247.762221 
L 283.430951 239.706086 
L 284.156922 235.953516 
L 284.882894 236.951596 
L 285.608866 230.094007 
L 286.334837 230.606547 
L 287.060809 222.351123 
L 287.786781 216.791285 
L 288.512753 242.640553 
L 289.238724 232.058693 
L 289.964696 239.637477 
L 290.690668 228.316737 
L 291.416639 227.949801 
L 292.142611 222.589669 
L 292.868583 230.115564 
L 293.594555 235.496265 
L 294.320526 237.778581 
L 295.046498 227.715595 
L 295.77247 235.442883 
L 296.498441 223.571349 
L 297.224413 237.628221 
L 297.950385 233.462925 
L 298.676356 237.348697 
L 299.402328 230.072488 
L 300.1283 236.700893 
L 300.854272 224.664695 
L 301.580243 220.99393 
L 302.306215 216.18584 
L 303.032187 208.318775 
L 303.758158 219.738301 
L 304.48413 201.824424 
L 305.210102 197.723309 
L 305.936073 227.781844 
L 306.662045 202.415418 
L 307.388017 210.20521 
L 308.113989 204.747867 
L 308.83996 204.977925 
L 309.565932 226.771607 
L 310.291904 201.882734 
L 311.017875 209.593909 
L 311.743847 206.849624 
L 312.469819 198.718428 
L 313.19579 192.913625 
L 313.921762 183.013468 
L 314.647734 177.906345 
L 315.373706 183.898298 
L 316.099677 173.201194 
L 316.825649 169.091891 
L 317.551621 188.293947 
L 318.277592 172.237136 
L 319.003564 218.702554 
L 319.729536 186.716091 
L 320.455508 189.000216 
L 321.181479 195.379035 
L 321.907451 182.660576 
L 322.633423 174.543209 
L 323.359394 185.166194 
L 324.085366 214.350818 
L 324.811338 198.745632 
L 325.537309 185.822941 
L 326.263281 182.508684 
L 326.989253 204.237324 
L 327.715225 188.976864 
L 328.441196 186.346769 
L 329.167168 195.081239 
L 329.89314 180.994244 
L 330.619111 173.947776 
L 331.345083 168.504647 
L 332.071055 172.4992 
L 332.797026 163.203745 
L 333.522998 152.448706 
L 334.24897 161.124942 
L 334.974942 171.843563 
L 337.152857 145.328535 
L 337.878828 133.072847 
L 338.6048 182.91077 
L 339.330772 139.462089 
L 340.056743 206.119265 
L 340.782715 155.084527 
L 341.508687 195.140172 
L 342.234659 165.226488 
L 342.96063 160.717431 
L 343.686602 158.447871 
L 344.412574 172.788005 
L 345.138545 163.220015 
L 345.864517 148.598272 
L 346.590489 162.134117 
L 347.316461 150.883166 
L 348.042432 190.470307 
L 348.768404 147.089823 
L 349.494376 148.399092 
L 350.220347 165.812088 
L 350.946319 180.350458 
L 351.672291 147.781558 
L 352.398262 141.6423 
L 353.124234 149.610568 
L 353.850206 148.096781 
L 354.576178 178.857139 
L 355.302149 173.741807 
L 356.028121 176.201466 
L 356.754093 184.664422 
L 357.480064 166.519701 
L 358.206036 158.439361 
L 358.932008 159.884573 
L 359.657979 154.852083 
L 360.383951 170.692833 
L 361.109923 172.28613 
L 361.835895 175.921888 
L 362.561866 169.024587 
L 363.287838 163.433925 
L 364.01381 160.489075 
L 364.739781 171.320908 
L 365.465753 153.02932 
L 366.191725 160.517435 
L 366.917696 145.007736 
L 367.643668 158.840186 
L 368.36964 151.846929 
L 369.095612 164.152557 
L 369.821583 151.146081 
L 370.547555 150.820864 
L 371.999498 146.508286 
L 372.72547 158.841173 
L 373.451442 141.548598 
L 374.177414 135.410973 
L 374.903385 155.007303 
L 375.629357 134.470259 
L 376.355329 141.93787 
L 377.0813 157.47986 
L 377.807272 155.240068 
L 379.985187 166.890582 
L 380.711159 157.948067 
L 381.437131 164.258768 
L 382.163102 154.75179 
L 382.889074 160.918431 
L 384.341017 162.771297 
L 385.066989 150.760322 
L 385.792961 147.354933 
L 386.518932 152.372394 
L 387.244904 159.480688 
L 387.970876 147.369736 
L 388.696848 159.175734 
L 389.422819 148.561679 
L 390.148791 154.275941 
L 390.874763 156.075429 
L 391.600734 157.482338 
L 392.326706 148.58516 
L 393.052678 156.382252 
L 393.778649 156.159674 
L 394.504621 153.884865 
L 395.230593 146.102265 
L 395.956565 151.469197 
L 396.682536 144.285157 
L 397.408508 150.077444 
L 398.13448 139.196745 
L 399.586423 132.650326 
L 400.312395 141.083648 
L 401.038367 131.945522 
L 401.764338 138.318133 
L 402.49031 139.481967 
L 403.216282 138.21716 
L 403.942253 131.622529 
L 404.668225 138.63628 
L 405.394197 137.988495 
L 406.120168 140.521164 
L 406.84614 140.197799 
L 407.572112 140.7498 
L 408.298084 135.42341 
L 409.024055 137.494046 
L 409.750027 126.921028 
L 410.475999 130.659442 
L 411.20197 131.421507 
L 411.927942 123.362001 
L 413.379885 113.92323 
L 414.105857 107.741392 
L 414.831829 119.01303 
L 415.557801 109.465982 
L 416.283772 115.054466 
L 417.009744 104.778581 
L 417.735716 109.702395 
L 418.461687 109.179192 
L 419.187659 109.955611 
L 419.913631 97.485051 
L 420.639602 106.117447 
L 421.365574 91.936444 
L 422.091546 102.718051 
L 422.817518 90.757193 
L 423.543489 87.514781 
L 424.269461 80.221102 
L 424.995433 91.101736 
L 425.721404 94.60354 
L 426.447376 96.221171 
L 427.173348 87.130275 
L 427.89932 92.129259 
L 428.625291 83.425978 
L 429.351263 87.381179 
L 430.077235 79.51356 
L 430.803206 88.330687 
L 431.529178 86.0303 
L 432.25515 88.166642 
L 432.981121 92.065168 
L 433.707093 85.756368 
L 434.433065 89.895721 
L 435.159037 77.493751 
L 435.885008 81.815695 
L 436.61098 71.086716 
L 437.336952 77.37591 
L 438.062923 71.233522 
L 438.788895 67.511404 
L 439.514867 76.736746 
L 440.240838 70.082075 
L 440.96681 75.451531 
L 441.692782 76.038109 
L 442.418754 75.460345 
L 443.870697 56.993148 
L 444.596669 62.255594 
L 445.32264 55.303228 
L 446.048612 50.81428 
L 446.774584 47.140528 
L 447.500555 53.784992 
L 448.226527 59.258001 
L 448.952499 52.434866 
L 449.678471 43.739034 
L 450.404442 48.417365 
L 451.130414 43.172463 
L 451.856386 47.448782 
L 452.582357 47.560862 
L 454.034301 34.460795 
L 454.760273 41.60085 
L 455.486244 44.728186 
L 456.212216 49.540067 
L 456.212216 49.540067 
" style="fill:none;stroke:#ff7f0e;stroke-linecap:square;stroke-width:1.5;"/>
   </g>
   <g id="line2d_3">
    <path clip-path="url(#pb6c2d431be)" d="M 50.394034 279.682999 
L 51.120006 279.692897 
L 51.845977 280.138716 
L 52.571949 279.642603 
L 53.297921 280.251618 
L 54.023893 279.309534 
L 54.749864 280.905243 
L 55.475836 280.367951 
L 56.201808 280.319745 
L 57.653751 279.784675 
L 59.105695 279.71574 
L 59.831666 279.46535 
L 60.557638 279.372845 
L 61.28361 280.957051 
L 62.009581 279.062822 
L 62.735553 280.796836 
L 63.461525 279.479233 
L 64.187496 280.732901 
L 65.63944 279.434566 
L 66.365412 280.767139 
L 67.091383 279.420058 
L 67.817355 280.010774 
L 68.543327 279.870486 
L 69.269298 279.540232 
L 69.99527 279.791588 
L 70.721242 279.200952 
L 71.447213 279.570454 
L 72.173185 279.235966 
L 72.899157 279.153095 
L 73.625129 280.528801 
L 74.3511 279.953875 
L 75.077072 279.138024 
L 75.803044 278.929161 
L 76.529015 279.003413 
L 77.254987 280.235245 
L 77.980959 278.73278 
L 78.70693 279.291551 
L 79.432902 279.476473 
L 80.158874 279.275284 
L 80.884846 279.198265 
L 81.610817 278.403859 
L 82.336789 280.001255 
L 83.062761 279.738171 
L 83.788732 278.740317 
L 84.514704 280.134105 
L 85.240676 278.741115 
L 85.966648 278.467266 
L 86.692619 279.2787 
L 87.418591 279.554049 
L 88.144563 279.307312 
L 88.870534 279.378393 
L 89.596506 278.809514 
L 90.322478 279.661322 
L 91.774421 278.847889 
L 92.500393 278.673404 
L 93.226365 278.788294 
L 93.952336 278.006667 
L 95.40428 277.463094 
L 96.130251 277.91274 
L 96.856223 277.795723 
L 97.582195 276.745775 
L 98.308166 277.083674 
L 99.034138 276.878442 
L 99.76011 277.476505 
L 100.486082 276.306887 
L 101.212053 277.070548 
L 101.938025 275.636645 
L 102.663997 279.033891 
L 103.389968 275.577376 
L 104.11594 278.217913 
L 104.841912 277.15572 
L 105.567883 275.701324 
L 106.293855 275.925993 
L 107.019827 277.389245 
L 107.745799 275.024675 
L 108.47177 277.502257 
L 109.197742 278.162625 
L 109.923714 275.296716 
L 110.649685 275.579688 
L 111.375657 275.189749 
L 112.101629 274.596894 
L 112.827601 274.489954 
L 114.279544 274.510313 
L 115.005516 274.378358 
L 115.731487 272.733759 
L 117.183431 275.034098 
L 117.909402 273.856072 
L 118.635374 275.962527 
L 119.361346 275.758697 
L 120.087318 273.858647 
L 121.539261 273.823654 
L 122.265233 274.026599 
L 122.991204 272.070541 
L 123.717176 274.941688 
L 124.443148 272.296454 
L 125.169119 272.023862 
L 125.895091 271.580101 
L 126.621063 271.588023 
L 128.073006 270.371026 
L 128.798978 270.716246 
L 129.52495 270.556463 
L 130.250921 267.536149 
L 130.976893 269.16557 
L 131.702865 272.726446 
L 132.428836 268.906196 
L 133.154808 278.105573 
L 133.88078 271.561055 
L 134.606752 271.011161 
L 135.332723 276.865008 
L 136.058695 271.666515 
L 136.784667 271.074792 
L 137.510638 273.928286 
L 138.23661 271.026139 
L 138.962582 271.013751 
L 139.688554 276.527176 
L 140.414525 271.702381 
L 141.140497 271.777415 
L 142.59244 270.529048 
L 143.318412 272.761898 
L 144.044384 272.198457 
L 144.770355 272.110726 
L 145.496327 272.289672 
L 146.222299 272.06171 
L 146.948271 273.11114 
L 147.674242 271.667263 
L 148.400214 269.770511 
L 149.126186 271.919834 
L 149.852157 269.513372 
L 150.578129 269.033739 
L 151.304101 268.728336 
L 152.030072 275.207249 
L 152.756044 267.760336 
L 154.207988 275.285276 
L 155.659931 269.757414 
L 156.385903 269.522714 
L 157.111874 268.024676 
L 157.837846 268.238579 
L 158.563818 267.740699 
L 159.289789 268.596518 
L 160.015761 267.54744 
L 160.741733 274.188188 
L 161.467705 267.371508 
L 162.193676 274.007727 
L 162.919648 270.966095 
L 163.64562 273.363168 
L 164.371591 270.16829 
L 165.097563 269.167638 
L 165.823535 271.856514 
L 166.549507 271.073529 
L 167.275478 270.991202 
L 168.00145 269.481567 
L 168.727422 273.161683 
L 169.453393 270.277735 
L 170.179365 273.280921 
L 170.905337 270.194007 
L 171.631308 273.267382 
L 172.35728 269.731949 
L 173.083252 273.797848 
L 173.809224 269.670409 
L 174.535195 269.206158 
L 175.261167 272.954665 
L 175.987139 270.170923 
L 176.71311 270.192621 
L 177.439082 269.972422 
L 178.165054 272.159729 
L 178.891025 271.168461 
L 179.616997 269.052015 
L 180.342969 272.045075 
L 181.068941 270.143641 
L 181.794912 270.385263 
L 182.520884 269.732832 
L 183.246856 271.823996 
L 183.972827 268.930586 
L 184.698799 271.208039 
L 185.424771 270.604864 
L 186.150742 269.007099 
L 186.876714 267.769268 
L 187.602686 268.116899 
L 188.328658 266.979344 
L 189.054629 270.55882 
L 189.780601 269.588655 
L 190.506573 267.098357 
L 191.232544 267.025159 
L 191.958516 269.821928 
L 192.684488 266.004207 
L 193.41046 270.655575 
L 194.136431 265.631781 
L 194.862403 267.743909 
L 195.588375 268.582732 
L 196.314346 268.091923 
L 197.040318 267.126769 
L 197.76629 269.45012 
L 198.492261 265.428575 
L 199.218233 264.61196 
L 199.944205 264.641204 
L 200.670177 262.893145 
L 201.396148 262.085096 
L 202.12212 267.788276 
L 202.848092 262.043775 
L 203.574063 268.331836 
L 204.300035 266.566991 
L 205.026007 264.316404 
L 205.751978 263.215958 
L 206.47795 267.737569 
L 207.203922 261.946323 
L 207.929894 263.090361 
L 208.655865 266.81908 
L 209.381837 261.13049 
L 210.107809 266.537093 
L 210.83378 260.801863 
L 211.559752 262.848705 
L 212.285724 259.668384 
L 213.011695 265.601017 
L 213.737667 258.513754 
L 214.463639 257.574924 
L 215.189611 257.64034 
L 215.915582 257.249115 
L 216.641554 254.552414 
L 217.367526 254.944132 
L 218.093497 253.057195 
L 218.819469 257.189494 
L 219.545441 251.02229 
L 220.271413 263.629244 
L 220.997384 252.894876 
L 221.723356 264.870848 
L 222.449328 251.705354 
L 223.175299 262.754174 
L 223.901271 252.938224 
L 224.627243 252.465426 
L 225.353214 264.256354 
L 226.079186 250.5825 
L 228.257101 259.220835 
L 228.983073 257.997263 
L 229.709045 252.941237 
L 230.435016 260.531056 
L 231.160988 253.109904 
L 231.88696 254.851673 
L 232.612931 249.865443 
L 233.338903 259.285267 
L 234.064875 258.165191 
L 234.790847 258.897039 
L 235.516818 254.893699 
L 236.24279 258.803147 
L 236.968762 251.408196 
L 237.694733 251.105107 
L 238.420705 260.258271 
L 239.146677 252.474571 
L 239.872648 251.187064 
L 240.59862 256.810032 
L 241.324592 250.333198 
L 242.050564 259.029383 
L 242.776535 254.886949 
L 243.502507 252.084187 
L 244.228479 248.811857 
L 244.95445 248.494271 
L 245.680422 250.037584 
L 247.132366 245.025414 
L 247.858337 256.241362 
L 248.584309 250.341959 
L 249.310281 247.151674 
L 250.036252 243.167401 
L 250.762224 256.091372 
L 251.488196 244.429381 
L 252.214167 245.88303 
L 252.940139 250.381364 
L 253.666111 252.492832 
L 254.392083 244.444768 
L 255.118054 252.479276 
L 255.844026 243.82443 
L 256.569998 243.68509 
L 257.295969 239.744823 
L 258.021941 252.049877 
L 258.747913 241.99229 
L 259.473884 243.142198 
L 260.199856 238.228897 
L 260.925828 237.265636 
L 261.6518 236.926435 
L 262.377771 237.962011 
L 263.103743 249.827575 
L 263.829715 238.829868 
L 264.555686 240.168761 
L 265.281658 232.386203 
L 266.00763 238.351173 
L 266.733602 237.165382 
L 267.459573 246.885719 
L 268.185545 235.4237 
L 268.911517 243.84897 
L 269.637488 237.198814 
L 270.36346 237.538628 
L 271.089432 232.811663 
L 271.815403 234.480392 
L 272.541375 229.193974 
L 273.267347 233.502012 
L 273.993319 229.269987 
L 274.71929 232.705629 
L 275.445262 229.685767 
L 276.171234 225.227807 
L 276.897205 225.330555 
L 277.623177 228.025317 
L 278.349149 220.250467 
L 279.07512 228.469347 
L 280.527064 219.526061 
L 281.253036 217.883047 
L 281.979007 219.450263 
L 282.704979 220.226942 
L 283.430951 222.877304 
L 284.156922 209.276132 
L 284.882894 212.58174 
L 285.608866 209.290363 
L 286.334837 215.656424 
L 287.060809 202.182585 
L 287.786781 203.559692 
L 288.512753 207.30648 
L 289.238724 236.689306 
L 289.964696 217.960559 
L 290.690668 212.150681 
L 291.416639 214.886859 
L 292.142611 213.211991 
L 292.868583 222.234129 
L 293.594555 229.767745 
L 294.320526 217.135095 
L 295.046498 213.049206 
L 295.77247 210.655509 
L 296.498441 228.267727 
L 297.224413 212.535013 
L 297.950385 229.786798 
L 298.676356 224.715725 
L 299.402328 218.510667 
L 300.1283 226.95385 
L 300.854272 210.649361 
L 301.580243 216.033267 
L 302.306215 215.980694 
L 303.032187 206.297508 
L 303.758158 226.418497 
L 304.48413 205.342108 
L 305.210102 211.375458 
L 305.936073 205.535461 
L 306.662045 201.565271 
L 307.388017 227.596512 
L 308.113989 201.301631 
L 308.83996 207.709434 
L 309.565932 220.685571 
L 310.291904 203.8933 
L 311.017875 206.508988 
L 311.743847 203.37569 
L 312.469819 209.256294 
L 313.19579 196.286053 
L 313.921762 194.029581 
L 314.647734 193.785963 
L 315.373706 191.944177 
L 316.099677 199.170245 
L 316.825649 186.327488 
L 318.277592 191.830651 
L 319.729536 180.773449 
L 320.455508 209.052954 
L 321.181479 198.036813 
L 321.907451 191.798279 
L 322.633423 197.206465 
L 323.359394 207.249524 
L 324.085366 195.152082 
L 324.811338 187.768333 
L 325.537309 204.275095 
L 326.263281 201.409675 
L 326.989253 187.928634 
L 327.715225 212.04694 
L 328.441196 203.228991 
L 329.167168 209.915812 
L 329.89314 205.21622 
L 330.619111 196.088606 
L 331.345083 198.290981 
L 332.071055 206.858658 
L 332.797026 192.508772 
L 333.522998 191.35153 
L 334.24897 190.433533 
L 334.974942 190.861828 
L 335.700913 203.506988 
L 336.426885 189.164491 
L 337.152857 191.415003 
L 337.878828 180.856411 
L 338.6048 189.756008 
L 339.330772 182.966703 
L 340.056743 184.038412 
L 340.782715 195.929364 
L 341.508687 182.288571 
L 342.234659 190.096565 
L 342.96063 177.826641 
L 343.686602 174.548554 
L 344.412574 186.280146 
L 345.138545 174.620372 
L 345.864517 177.133722 
L 346.590489 189.633086 
L 347.316461 169.421074 
L 348.042432 192.675785 
L 348.768404 168.516454 
L 349.494376 168.753807 
L 350.220347 172.712492 
L 350.946319 164.894034 
L 351.672291 158.891437 
L 352.398262 157.439936 
L 353.124234 161.111425 
L 353.850206 153.172186 
L 354.576178 177.21846 
L 355.302149 165.438446 
L 356.028121 161.844217 
L 356.754093 160.703722 
L 357.480064 151.717994 
L 358.206036 148.874319 
L 358.932008 152.791893 
L 359.657979 145.442892 
L 360.383951 143.705007 
L 361.109923 138.996272 
L 361.835895 141.668759 
L 362.561866 150.379469 
L 363.287838 133.94891 
L 364.739781 154.513073 
L 365.465753 156.859201 
L 366.191725 141.918151 
L 366.917696 148.104407 
L 367.643668 164.120291 
L 369.095612 144.00805 
L 369.821583 142.672006 
L 370.547555 142.579367 
L 371.273527 134.122198 
L 371.999498 149.602892 
L 372.72547 131.098027 
L 373.451442 128.046319 
L 374.177414 132.752738 
L 374.903385 122.80995 
L 375.629357 129.502766 
L 376.355329 122.44549 
L 377.0813 118.220747 
L 377.807272 146.065719 
L 378.533244 117.581354 
L 379.259215 142.321497 
L 379.985187 125.569377 
L 380.711159 131.112394 
L 381.437131 140.180543 
L 382.163102 124.552596 
L 382.889074 122.226489 
L 384.341017 114.955849 
L 385.066989 108.916242 
L 385.792961 111.878923 
L 386.518932 103.454473 
L 387.244904 105.248247 
L 387.970876 102.711933 
L 388.696848 105.561868 
L 389.422819 106.928963 
L 390.148791 120.468845 
L 390.874763 121.445866 
L 391.600734 121.997718 
L 392.326706 109.79102 
L 393.052678 110.066382 
L 393.778649 103.934024 
L 394.504621 106.468709 
L 395.230593 124.518739 
L 395.956565 108.222198 
L 396.682536 120.703286 
L 397.408508 107.651389 
L 398.13448 118.287993 
L 398.860451 116.840932 
L 399.586423 106.785371 
L 400.312395 102.331927 
L 401.038367 114.552614 
L 401.764338 115.256552 
L 402.49031 109.218182 
L 403.216282 104.846533 
L 403.942253 115.508858 
L 404.668225 110.891103 
L 406.120168 103.930731 
L 406.84614 103.593462 
L 407.572112 101.056326 
L 408.298084 106.107267 
L 409.750027 96.34466 
L 410.475999 103.310252 
L 411.20197 107.813255 
L 411.927942 101.088387 
L 412.653914 101.475608 
L 413.379885 98.14566 
L 414.105857 101.465977 
L 414.831829 98.548363 
L 415.557801 102.646928 
L 416.283772 104.680608 
L 417.009744 102.424352 
L 417.735716 104.043295 
L 418.461687 105.124344 
L 419.187659 104.437614 
L 419.913631 100.831259 
L 420.639602 104.41508 
L 421.365574 99.476222 
L 422.091546 101.844261 
L 422.817518 97.895131 
L 424.269461 91.636206 
L 424.995433 93.255316 
L 425.721404 91.549372 
L 426.447376 91.339259 
L 427.173348 90.521475 
L 427.89932 92.986449 
L 428.625291 91.323279 
L 429.351263 93.346081 
L 430.077235 93.828309 
L 430.803206 95.601451 
L 431.529178 92.590683 
L 432.25515 91.934964 
L 433.707093 95.817305 
L 434.433065 92.929443 
L 435.159037 93.036197 
L 435.885008 90.57754 
L 436.61098 89.713517 
L 437.336952 83.767514 
L 438.062923 86.694834 
L 438.788895 81.044576 
L 439.514867 81.756602 
L 440.240838 83.364452 
L 440.96681 81.059164 
L 441.692782 82.141431 
L 442.418754 82.192821 
L 443.144725 81.111654 
L 443.870697 78.494042 
L 444.596669 69.731 
L 445.32264 74.861231 
L 446.774584 71.817091 
L 447.500555 68.911435 
L 448.226527 69.049624 
L 448.952499 73.364092 
L 449.678471 65.887237 
L 450.404442 61.184224 
L 451.130414 63.630408 
L 451.856386 63.010726 
L 452.582357 59.605778 
L 453.308329 62.006408 
L 454.034301 55.535843 
L 454.760273 55.772955 
L 455.486244 54.317992 
L 456.212216 51.431003 
L 456.212216 51.431003 
" style="fill:none;stroke:#2ca02c;stroke-linecap:square;stroke-width:1.5;"/>
   </g>
   <g id="line2d_4">
    <path clip-path="url(#pb6c2d431be)" d="M 50.394034 279.334726 
L 51.120006 281.226624 
L 51.845977 280.506275 
L 52.571949 280.385472 
L 53.297921 280.066004 
L 54.023893 279.433151 
L 54.749864 279.407915 
L 55.475836 280.204371 
L 56.201808 279.361299 
L 56.927779 281.023676 
L 57.653751 279.195157 
L 58.379723 280.248502 
L 59.105695 279.87019 
L 59.831666 279.165448 
L 60.557638 280.94235 
L 61.28361 279.267647 
L 62.009581 279.906527 
L 62.735553 281.088822 
L 63.461525 279.116375 
L 64.187496 281.155412 
L 64.913468 280.069413 
L 65.63944 279.390473 
L 66.365412 280.661838 
L 67.091383 279.848187 
L 67.817355 279.472898 
L 68.543327 279.818101 
L 69.269298 280.711665 
L 69.99527 280.326924 
L 70.721242 279.342334 
L 71.447213 280.543652 
L 72.173185 280.443127 
L 72.899157 279.423032 
L 74.3511 279.731024 
L 75.077072 280.589315 
L 76.529015 279.235678 
L 77.254987 278.884705 
L 77.980959 278.855398 
L 78.70693 278.611697 
L 79.432902 279.151135 
L 80.158874 280.114783 
L 80.884846 278.790671 
L 81.610817 278.08751 
L 82.336789 278.01222 
L 83.062761 280.536147 
L 83.788732 278.271518 
L 84.514704 280.444209 
L 85.240676 278.56218 
L 85.966648 278.355011 
L 86.692619 279.558679 
L 87.418591 278.654937 
L 88.144563 278.188843 
L 88.870534 278.397598 
L 89.596506 278.139145 
L 90.322478 278.127076 
L 91.048449 279.940455 
L 93.226365 277.558362 
L 93.952336 277.468124 
L 94.678308 279.681971 
L 95.40428 277.063294 
L 96.856223 279.544617 
L 97.582195 278.897144 
L 98.308166 277.200535 
L 99.034138 277.594475 
L 99.76011 276.759273 
L 100.486082 276.967455 
L 101.212053 279.473436 
L 102.663997 277.045717 
L 104.11594 276.016545 
L 104.841912 275.996845 
L 105.567883 277.101308 
L 106.293855 277.047916 
L 107.019827 275.94985 
L 107.745799 275.811751 
L 108.47177 279.203591 
L 109.197742 275.876141 
L 109.923714 274.914372 
L 110.649685 274.7166 
L 111.375657 279.276505 
L 112.101629 277.258388 
L 112.827601 278.211078 
L 113.553572 275.566129 
L 114.279544 276.392502 
L 115.005516 276.660795 
L 115.731487 276.265845 
L 116.457459 278.677317 
L 117.183431 277.452258 
L 117.909402 275.583066 
L 118.635374 275.62463 
L 119.361346 278.435851 
L 120.087318 274.913564 
L 120.813289 275.501071 
L 121.539261 276.791129 
L 122.265233 274.296432 
L 122.991204 274.409967 
L 123.717176 278.31651 
L 124.443148 274.220245 
L 125.169119 277.867964 
L 125.895091 275.029243 
L 126.621063 274.173942 
L 127.347035 274.879184 
L 128.073006 273.4167 
L 128.798978 273.169957 
L 129.52495 274.854415 
L 130.250921 272.36951 
L 130.976893 278.061218 
L 132.428836 273.250505 
L 133.154808 273.359543 
L 133.88078 272.293661 
L 134.606752 270.837262 
L 135.332723 273.308868 
L 136.058695 273.97958 
L 136.784667 276.309737 
L 137.510638 272.587023 
L 138.23661 271.427575 
L 138.962582 271.115639 
L 139.688554 273.018305 
L 140.414525 272.715143 
L 141.140497 270.249062 
L 141.866469 271.504435 
L 142.59244 277.175411 
L 144.044384 271.372249 
L 144.770355 271.649459 
L 145.496327 272.061216 
L 146.222299 272.925286 
L 146.948271 272.910198 
L 147.674242 272.092778 
L 148.400214 269.846785 
L 149.126186 272.702442 
L 149.852157 270.346525 
L 150.578129 271.475914 
L 151.304101 269.255217 
L 152.030072 267.689686 
L 152.756044 271.87822 
L 153.482016 268.308373 
L 154.207988 269.87124 
L 154.933959 275.759454 
L 155.659931 268.765755 
L 156.385903 270.066836 
L 157.111874 267.618743 
L 157.837846 268.745131 
L 158.563818 265.407018 
L 159.289789 266.404472 
L 160.015761 264.627616 
L 160.741733 266.668819 
L 161.467705 273.989291 
L 162.193676 266.443005 
L 162.919648 275.662529 
L 163.64562 266.37247 
L 164.371591 266.91497 
L 165.097563 266.951276 
L 165.823535 270.789244 
L 167.275478 268.325347 
L 168.00145 269.102958 
L 168.727422 265.709045 
L 169.453393 266.488753 
L 170.179365 268.603809 
L 170.905337 265.385 
L 171.631308 271.660268 
L 172.35728 271.835535 
L 173.083252 272.68824 
L 173.809224 266.107425 
L 174.535195 266.790606 
L 175.261167 274.224141 
L 175.987139 267.023161 
L 176.71311 266.185786 
L 177.439082 268.276175 
L 178.165054 265.22303 
L 178.891025 264.102543 
L 179.616997 264.375546 
L 180.342969 267.331889 
L 181.068941 271.834388 
L 181.794912 264.090282 
L 182.520884 271.549833 
L 183.246856 270.306259 
L 183.972827 267.153131 
L 184.698799 271.452807 
L 185.424771 269.917125 
L 186.876714 264.207057 
L 187.602686 265.235133 
L 188.328658 265.024774 
L 189.054629 270.532609 
L 189.780601 269.502184 
L 190.506573 266.700525 
L 191.232544 265.260475 
L 191.958516 271.252665 
L 192.684488 269.34646 
L 193.41046 271.276026 
L 194.136431 266.808038 
L 194.862403 266.167049 
L 195.588375 270.126621 
L 196.314346 268.451461 
L 197.040318 266.221114 
L 197.76629 269.435069 
L 198.492261 264.527018 
L 199.218233 264.760167 
L 199.944205 263.937485 
L 200.670177 262.321224 
L 201.396148 268.405056 
L 202.12212 261.04946 
L 202.848092 259.788276 
L 203.574063 262.967054 
L 204.300035 266.739749 
L 205.026007 266.114424 
L 205.751978 258.627828 
L 206.47795 258.743864 
L 207.203922 261.896423 
L 207.929894 258.967989 
L 208.655865 260.208379 
L 209.381837 259.362742 
L 210.107809 263.171059 
L 210.83378 258.046922 
L 211.559752 256.974761 
L 212.285724 259.294488 
L 213.011695 255.59661 
L 213.737667 256.755064 
L 214.463639 264.630125 
L 215.189611 253.381483 
L 215.915582 252.357407 
L 216.641554 259.141621 
L 217.367526 262.828142 
L 218.093497 253.428676 
L 218.819469 257.736475 
L 219.545441 255.857494 
L 220.271413 251.680566 
L 220.997384 257.19624 
L 221.723356 255.608787 
L 222.449328 263.808572 
L 223.175299 254.631301 
L 223.901271 255.364449 
L 224.627243 247.770842 
L 225.353214 256.093548 
L 226.079186 249.424545 
L 226.805158 254.728243 
L 227.53113 248.506865 
L 228.257101 250.100934 
L 228.983073 254.316187 
L 229.709045 249.019388 
L 230.435016 262.26564 
L 231.160988 253.70392 
L 231.88696 251.900813 
L 232.612931 245.217032 
L 233.338903 250.79484 
L 234.064875 249.165758 
L 234.790847 253.322546 
L 235.516818 244.479238 
L 236.24279 264.38553 
L 236.968762 246.657647 
L 237.694733 245.96383 
L 238.420705 261.804461 
L 239.146677 249.307528 
L 239.872648 248.340368 
L 240.59862 257.975543 
L 241.324592 248.020106 
L 242.050564 260.131712 
L 242.776535 254.547692 
L 244.228479 247.70833 
L 244.95445 247.586221 
L 245.680422 248.408763 
L 246.406394 255.805692 
L 247.132366 253.848371 
L 247.858337 245.720989 
L 248.584309 247.986281 
L 249.310281 256.280715 
L 250.036252 242.169857 
L 250.762224 257.951915 
L 251.488196 251.362801 
L 252.214167 248.266675 
L 252.940139 254.700386 
L 253.666111 251.905439 
L 254.392083 244.513052 
L 255.118054 254.455782 
L 255.844026 246.858828 
L 256.569998 246.424691 
L 257.295969 240.703973 
L 258.021941 253.893919 
L 258.747913 240.00553 
L 260.199856 245.959709 
L 260.925828 237.793336 
L 261.6518 241.351998 
L 262.377771 240.30489 
L 263.103743 238.326043 
L 263.829715 239.229819 
L 264.555686 248.341246 
L 265.281658 243.798621 
L 266.00763 240.31648 
L 266.733602 235.71325 
L 267.459573 238.156468 
L 268.185545 237.882071 
L 268.911517 232.738351 
L 269.637488 231.0179 
L 270.36346 233.394965 
L 271.089432 224.38504 
L 271.815403 233.475203 
L 272.541375 240.994115 
L 273.267347 230.016212 
L 273.993319 245.695339 
L 274.71929 233.657701 
L 275.445262 234.649119 
L 276.171234 240.564989 
L 276.897205 229.543261 
L 277.623177 246.644309 
L 278.349149 236.844033 
L 279.07512 239.494328 
L 279.801092 230.261855 
L 280.527064 227.478536 
L 281.253036 225.406427 
L 281.979007 223.796422 
L 282.704979 220.353294 
L 283.430951 224.349871 
L 284.156922 216.863632 
L 284.882894 222.627747 
L 285.608866 215.551935 
L 286.334837 220.476561 
L 287.060809 213.095801 
L 289.238724 206.286944 
L 289.964696 201.254716 
L 290.690668 214.338384 
L 291.416639 204.043463 
L 292.142611 237.230066 
L 292.868583 203.525997 
L 293.594555 214.963422 
L 294.320526 206.535183 
L 295.046498 195.702601 
L 295.77247 197.484208 
L 296.498441 214.5363 
L 297.224413 226.820586 
L 297.950385 214.556384 
L 298.676356 235.643644 
L 299.402328 222.69409 
L 300.1283 225.806796 
L 300.854272 205.863048 
L 301.580243 207.697457 
L 302.306215 202.952848 
L 303.032187 205.882615 
L 303.758158 207.67362 
L 304.48413 205.809072 
L 305.210102 199.517546 
L 305.936073 196.664858 
L 306.662045 194.698244 
L 307.388017 203.909718 
L 308.113989 199.760064 
L 308.83996 226.534324 
L 309.565932 193.989468 
L 310.291904 193.274325 
L 311.017875 196.801231 
L 311.743847 202.646466 
L 312.469819 187.99173 
L 313.19579 221.690895 
L 313.921762 210.480479 
L 314.647734 197.111668 
L 315.373706 189.371846 
L 316.099677 185.044254 
L 316.825649 214.216046 
L 318.277592 209.922504 
L 319.003564 190.769895 
L 319.729536 204.229765 
L 320.455508 191.927439 
L 321.181479 221.359769 
L 321.907451 193.861176 
L 322.633423 190.982213 
L 323.359394 210.553215 
L 324.085366 187.091868 
L 324.811338 194.104902 
L 325.537309 210.715172 
L 326.263281 204.908622 
L 326.989253 192.101983 
L 327.715225 212.536119 
L 328.441196 205.857947 
L 329.167168 210.780407 
L 329.89314 206.201927 
L 330.619111 191.421416 
L 331.345083 195.200246 
L 332.071055 209.576686 
L 332.797026 202.409301 
L 333.522998 187.380848 
L 334.24897 190.909493 
L 334.974942 208.194267 
L 335.700913 184.937008 
L 337.152857 207.059085 
L 337.878828 180.645843 
L 338.6048 212.92753 
L 339.330772 186.465589 
L 340.056743 209.029017 
L 340.782715 200.449827 
L 341.508687 200.425455 
L 342.234659 198.686269 
L 342.96063 188.851885 
L 343.686602 187.088161 
L 344.412574 198.264945 
L 345.138545 184.726568 
L 345.864517 178.561368 
L 346.590489 201.641999 
L 347.316461 181.96572 
L 348.042432 196.763413 
L 348.768404 175.406262 
L 349.494376 179.838329 
L 350.220347 179.502581 
L 350.946319 180.690693 
L 351.672291 168.091921 
L 352.398262 163.308272 
L 353.124234 188.980285 
L 353.850206 185.09614 
L 354.576178 164.591896 
L 355.302149 182.137627 
L 356.028121 186.802582 
L 356.754093 182.139125 
L 357.480064 166.303927 
L 358.206036 166.790467 
L 358.932008 167.470482 
L 359.657979 161.930004 
L 360.383951 179.98854 
L 361.109923 163.184915 
L 361.835895 181.610779 
L 362.561866 176.378312 
L 363.287838 162.006937 
L 364.01381 176.022416 
L 364.739781 155.46213 
L 365.465753 155.119204 
L 366.191725 170.758352 
L 366.917696 173.120431 
L 367.643668 171.371973 
L 368.36964 153.035448 
L 369.095612 156.293915 
L 369.821583 172.121734 
L 370.547555 152.122663 
L 371.273527 152.174936 
L 371.999498 150.594313 
L 372.72547 142.814465 
L 373.451442 147.120836 
L 374.177414 134.195809 
L 374.903385 141.030424 
L 375.629357 152.719069 
L 376.355329 135.175658 
L 377.0813 141.592035 
L 377.807272 155.269755 
L 378.533244 134.894465 
L 379.259215 152.585117 
L 379.985187 138.868937 
L 380.711159 134.718482 
L 381.437131 153.746548 
L 382.163102 146.052845 
L 382.889074 131.495083 
L 383.615046 131.319754 
L 384.341017 134.066121 
L 385.066989 121.215825 
L 385.792961 120.25065 
L 386.518932 137.014549 
L 387.244904 137.285294 
L 387.970876 119.802451 
L 388.696848 117.918255 
L 389.422819 117.486899 
L 390.148791 113.013722 
L 390.874763 109.891019 
L 391.600734 117.938476 
L 392.326706 100.853922 
L 393.052678 108.495353 
L 393.778649 123.719973 
L 394.504621 94.518208 
L 395.230593 103.31874 
L 395.956565 97.696764 
L 396.682536 94.573296 
L 397.408508 89.457678 
L 398.13448 87.480648 
L 398.860451 89.450348 
L 399.586423 87.734821 
L 400.312395 113.396458 
L 401.038367 86.261571 
L 401.764338 117.409074 
L 402.49031 86.146348 
L 403.216282 84.226582 
L 403.942253 113.532583 
L 404.668225 84.601724 
L 405.394197 82.779143 
L 406.120168 87.488657 
L 406.84614 79.025821 
L 407.572112 72.824266 
L 408.298084 101.847638 
L 409.024055 78.743713 
L 409.750027 78.185882 
L 410.475999 105.634962 
L 411.20197 80.55482 
L 411.927942 83.028626 
L 412.653914 75.825782 
L 413.379885 102.67148 
L 414.105857 97.62062 
L 414.831829 101.577728 
L 415.557801 103.258459 
L 416.283772 101.784801 
L 417.009744 89.655947 
L 417.735716 99.818079 
L 418.461687 99.425565 
L 419.187659 101.986676 
L 419.913631 90.170654 
L 420.639602 100.482324 
L 421.365574 90.336291 
L 422.091546 98.770928 
L 422.817518 84.021168 
L 423.543489 83.721984 
L 424.269461 79.950127 
L 424.995433 95.399935 
L 425.721404 93.468658 
L 426.447376 92.360983 
L 427.173348 82.865789 
L 427.89932 92.158741 
L 428.625291 83.368617 
L 429.351263 89.514134 
L 430.077235 81.529302 
L 430.803206 91.555056 
L 431.529178 88.840644 
L 432.25515 89.98969 
L 432.981121 93.739008 
L 433.707093 84.365702 
L 434.433065 91.853656 
L 435.159037 82.318287 
L 435.885008 86.240526 
L 436.61098 75.802964 
L 437.336952 86.706483 
L 438.062923 75.899684 
L 438.788895 76.642084 
L 439.514867 84.325395 
L 440.240838 85.956552 
L 440.96681 86.874093 
L 441.692782 81.507718 
L 442.418754 84.376338 
L 443.144725 82.236044 
L 443.870697 74.830528 
L 444.596669 77.987749 
L 445.32264 73.860086 
L 446.048612 72.288145 
L 446.774584 69.477583 
L 447.500555 73.462966 
L 448.226527 74.757835 
L 448.952499 68.219944 
L 449.678471 63.634973 
L 450.404442 68.857853 
L 451.130414 67.761195 
L 451.856386 68.849948 
L 452.582357 61.691086 
L 453.308329 61.019511 
L 454.034301 64.082136 
L 454.760273 63.839401 
L 455.486244 64.872664 
L 456.212216 65.303464 
L 456.212216 65.303464 
" style="fill:none;stroke:#000000;stroke-dasharray:3.7,1.6;stroke-dashoffset:0;"/>
   </g>
   <g id="matplotlib.axis_1">
    <g id="xtick_1">
     <g id="line2d_5">
      <defs>
       <path d="M 0 0 
L 0 3.5 
" id="mb46e602043" style="stroke:#000000;stroke-width:0.8;"/>
      </defs>
      <g>
       <use style="stroke:#000000;stroke-width:0.8;" x="71.447213" xlink:href="#mb46e602043" y="293.90625"/>
      </g>
     </g>
     <g id="text_1">
      <!-- 100 -->
      <defs>
       <path d="M 12.40625 8.296875 
L 28.515625 8.296875 
L 28.515625 63.921875 
L 10.984375 60.40625 
L 10.984375 69.390625 
L 28.421875 72.90625 
L 38.28125 72.90625 
L 38.28125 8.296875 
L 54.390625 8.296875 
L 54.390625 0 
L 12.40625 0 
z
" id="DejaVuSans-49"/>
       <path d="M 31.78125 66.40625 
Q 24.171875 66.40625 20.328125 58.90625 
Q 16.5 51.421875 16.5 36.375 
Q 16.5 21.390625 20.328125 13.890625 
Q 24.171875 6.390625 31.78125 6.390625 
Q 39.453125 6.390625 43.28125 13.890625 
Q 47.125 21.390625 47.125 36.375 
Q 47.125 51.421875 43.28125 58.90625 
Q 39.453125 66.40625 31.78125 66.40625 
z
M 31.78125 74.21875 
Q 44.046875 74.21875 50.515625 64.515625 
Q 56.984375 54.828125 56.984375 36.375 
Q 56.984375 17.96875 50.515625 8.265625 
Q 44.046875 -1.421875 31.78125 -1.421875 
Q 19.53125 -1.421875 13.0625 8.265625 
Q 6.59375 17.96875 6.59375 36.375 
Q 6.59375 54.828125 13.0625 64.515625 
Q 19.53125 74.21875 31.78125 74.21875 
z
" id="DejaVuSans-48"/>
      </defs>
      <g transform="translate(61.903463 308.504687)scale(0.1 -0.1)">
       <use xlink:href="#DejaVuSans-49"/>
       <use x="63.623047" xlink:href="#DejaVuSans-48"/>
       <use x="127.246094" xlink:href="#DejaVuSans-48"/>
      </g>
     </g>
    </g>
    <g id="xtick_2">
     <g id="line2d_6">
      <g>
       <use style="stroke:#000000;stroke-width:0.8;" x="144.044384" xlink:href="#mb46e602043" y="293.90625"/>
      </g>
     </g>
     <g id="text_2">
      <!-- 200 -->
      <defs>
       <path d="M 19.1875 8.296875 
L 53.609375 8.296875 
L 53.609375 0 
L 7.328125 0 
L 7.328125 8.296875 
Q 12.9375 14.109375 22.625 23.890625 
Q 32.328125 33.6875 34.8125 36.53125 
Q 39.546875 41.84375 41.421875 45.53125 
Q 43.3125 49.21875 43.3125 52.78125 
Q 43.3125 58.59375 39.234375 62.25 
Q 35.15625 65.921875 28.609375 65.921875 
Q 23.96875 65.921875 18.8125 64.3125 
Q 13.671875 62.703125 7.8125 59.421875 
L 7.8125 69.390625 
Q 13.765625 71.78125 18.9375 73 
Q 24.125 74.21875 28.421875 74.21875 
Q 39.75 74.21875 46.484375 68.546875 
Q 53.21875 62.890625 53.21875 53.421875 
Q 53.21875 48.921875 51.53125 44.890625 
Q 49.859375 40.875 45.40625 35.40625 
Q 44.1875 33.984375 37.640625 27.21875 
Q 31.109375 20.453125 19.1875 8.296875 
z
" id="DejaVuSans-50"/>
      </defs>
      <g transform="translate(134.500634 308.504687)scale(0.1 -0.1)">
       <use xlink:href="#DejaVuSans-50"/>
       <use x="63.623047" xlink:href="#DejaVuSans-48"/>
       <use x="127.246094" xlink:href="#DejaVuSans-48"/>
      </g>
     </g>
    </g>
    <g id="xtick_3">
     <g id="line2d_7">
      <g>
       <use style="stroke:#000000;stroke-width:0.8;" x="216.641554" xlink:href="#mb46e602043" y="293.90625"/>
      </g>
     </g>
     <g id="text_3">
      <!-- 300 -->
      <defs>
       <path d="M 40.578125 39.3125 
Q 47.65625 37.796875 51.625 33 
Q 55.609375 28.21875 55.609375 21.1875 
Q 55.609375 10.40625 48.1875 4.484375 
Q 40.765625 -1.421875 27.09375 -1.421875 
Q 22.515625 -1.421875 17.65625 -0.515625 
Q 12.796875 0.390625 7.625 2.203125 
L 7.625 11.71875 
Q 11.71875 9.328125 16.59375 8.109375 
Q 21.484375 6.890625 26.8125 6.890625 
Q 36.078125 6.890625 40.9375 10.546875 
Q 45.796875 14.203125 45.796875 21.1875 
Q 45.796875 27.640625 41.28125 31.265625 
Q 36.765625 34.90625 28.71875 34.90625 
L 20.21875 34.90625 
L 20.21875 43.015625 
L 29.109375 43.015625 
Q 36.375 43.015625 40.234375 45.921875 
Q 44.09375 48.828125 44.09375 54.296875 
Q 44.09375 59.90625 40.109375 62.90625 
Q 36.140625 65.921875 28.71875 65.921875 
Q 24.65625 65.921875 20.015625 65.03125 
Q 15.375 64.15625 9.8125 62.3125 
L 9.8125 71.09375 
Q 15.4375 72.65625 20.34375 73.4375 
Q 25.25 74.21875 29.59375 74.21875 
Q 40.828125 74.21875 47.359375 69.109375 
Q 53.90625 64.015625 53.90625 55.328125 
Q 53.90625 49.265625 50.4375 45.09375 
Q 46.96875 40.921875 40.578125 39.3125 
z
" id="DejaVuSans-51"/>
      </defs>
      <g transform="translate(207.097804 308.504687)scale(0.1 -0.1)">
       <use xlink:href="#DejaVuSans-51"/>
       <use x="63.623047" xlink:href="#DejaVuSans-48"/>
       <use x="127.246094" xlink:href="#DejaVuSans-48"/>
      </g>
     </g>
    </g>
    <g id="xtick_4">
     <g id="line2d_8">
      <g>
       <use style="stroke:#000000;stroke-width:0.8;" x="289.238724" xlink:href="#mb46e602043" y="293.90625"/>
      </g>
     </g>
     <g id="text_4">
      <!-- 400 -->
      <defs>
       <path d="M 37.796875 64.3125 
L 12.890625 25.390625 
L 37.796875 25.390625 
z
M 35.203125 72.90625 
L 47.609375 72.90625 
L 47.609375 25.390625 
L 58.015625 25.390625 
L 58.015625 17.1875 
L 47.609375 17.1875 
L 47.609375 0 
L 37.796875 0 
L 37.796875 17.1875 
L 4.890625 17.1875 
L 4.890625 26.703125 
z
" id="DejaVuSans-52"/>
      </defs>
      <g transform="translate(279.694974 308.504687)scale(0.1 -0.1)">
       <use xlink:href="#DejaVuSans-52"/>
       <use x="63.623047" xlink:href="#DejaVuSans-48"/>
       <use x="127.246094" xlink:href="#DejaVuSans-48"/>
      </g>
     </g>
    </g>
    <g id="xtick_5">
     <g id="line2d_9">
      <g>
       <use style="stroke:#000000;stroke-width:0.8;" x="361.835895" xlink:href="#mb46e602043" y="293.90625"/>
      </g>
     </g>
     <g id="text_5">
      <!-- 500 -->
      <defs>
       <path d="M 10.796875 72.90625 
L 49.515625 72.90625 
L 49.515625 64.59375 
L 19.828125 64.59375 
L 19.828125 46.734375 
Q 21.96875 47.46875 24.109375 47.828125 
Q 26.265625 48.1875 28.421875 48.1875 
Q 40.625 48.1875 47.75 41.5 
Q 54.890625 34.8125 54.890625 23.390625 
Q 54.890625 11.625 47.5625 5.09375 
Q 40.234375 -1.421875 26.90625 -1.421875 
Q 22.3125 -1.421875 17.546875 -0.640625 
Q 12.796875 0.140625 7.71875 1.703125 
L 7.71875 11.625 
Q 12.109375 9.234375 16.796875 8.0625 
Q 21.484375 6.890625 26.703125 6.890625 
Q 35.15625 6.890625 40.078125 11.328125 
Q 45.015625 15.765625 45.015625 23.390625 
Q 45.015625 31 40.078125 35.4375 
Q 35.15625 39.890625 26.703125 39.890625 
Q 22.75 39.890625 18.8125 39.015625 
Q 14.890625 38.140625 10.796875 36.28125 
z
" id="DejaVuSans-53"/>
      </defs>
      <g transform="translate(352.292145 308.504687)scale(0.1 -0.1)">
       <use xlink:href="#DejaVuSans-53"/>
       <use x="63.623047" xlink:href="#DejaVuSans-48"/>
       <use x="127.246094" xlink:href="#DejaVuSans-48"/>
      </g>
     </g>
    </g>
    <g id="xtick_6">
     <g id="line2d_10">
      <g>
       <use style="stroke:#000000;stroke-width:0.8;" x="434.433065" xlink:href="#mb46e602043" y="293.90625"/>
      </g>
     </g>
     <g id="text_6">
      <!-- 600 -->
      <defs>
       <path d="M 33.015625 40.375 
Q 26.375 40.375 22.484375 35.828125 
Q 18.609375 31.296875 18.609375 23.390625 
Q 18.609375 15.53125 22.484375 10.953125 
Q 26.375 6.390625 33.015625 6.390625 
Q 39.65625 6.390625 43.53125 10.953125 
Q 47.40625 15.53125 47.40625 23.390625 
Q 47.40625 31.296875 43.53125 35.828125 
Q 39.65625 40.375 33.015625 40.375 
z
M 52.59375 71.296875 
L 52.59375 62.3125 
Q 48.875 64.0625 45.09375 64.984375 
Q 41.3125 65.921875 37.59375 65.921875 
Q 27.828125 65.921875 22.671875 59.328125 
Q 17.53125 52.734375 16.796875 39.40625 
Q 19.671875 43.65625 24.015625 45.921875 
Q 28.375 48.1875 33.59375 48.1875 
Q 44.578125 48.1875 50.953125 41.515625 
Q 57.328125 34.859375 57.328125 23.390625 
Q 57.328125 12.15625 50.6875 5.359375 
Q 44.046875 -1.421875 33.015625 -1.421875 
Q 20.359375 -1.421875 13.671875 8.265625 
Q 6.984375 17.96875 6.984375 36.375 
Q 6.984375 53.65625 15.1875 63.9375 
Q 23.390625 74.21875 37.203125 74.21875 
Q 40.921875 74.21875 44.703125 73.484375 
Q 48.484375 72.75 52.59375 71.296875 
z
" id="DejaVuSans-54"/>
      </defs>
      <g transform="translate(424.889315 308.504687)scale(0.1 -0.1)">
       <use xlink:href="#DejaVuSans-54"/>
       <use x="63.623047" xlink:href="#DejaVuSans-48"/>
       <use x="127.246094" xlink:href="#DejaVuSans-48"/>
      </g>
     </g>
    </g>
    <g id="text_7">
     <!-- Tempo -->
     <defs>
      <path d="M -0.296875 72.90625 
L 61.375 72.90625 
L 61.375 64.59375 
L 35.5 64.59375 
L 35.5 0 
L 25.59375 0 
L 25.59375 64.59375 
L -0.296875 64.59375 
z
" id="DejaVuSans-84"/>
      <path d="M 56.203125 29.59375 
L 56.203125 25.203125 
L 14.890625 25.203125 
Q 15.484375 15.921875 20.484375 11.0625 
Q 25.484375 6.203125 34.421875 6.203125 
Q 39.59375 6.203125 44.453125 7.46875 
Q 49.3125 8.734375 54.109375 11.28125 
L 54.109375 2.78125 
Q 49.265625 0.734375 44.1875 -0.34375 
Q 39.109375 -1.421875 33.890625 -1.421875 
Q 20.796875 -1.421875 13.15625 6.1875 
Q 5.515625 13.8125 5.515625 26.8125 
Q 5.515625 40.234375 12.765625 48.109375 
Q 20.015625 56 32.328125 56 
Q 43.359375 56 49.78125 48.890625 
Q 56.203125 41.796875 56.203125 29.59375 
z
M 47.21875 32.234375 
Q 47.125 39.59375 43.09375 43.984375 
Q 39.0625 48.390625 32.421875 48.390625 
Q 24.90625 48.390625 20.390625 44.140625 
Q 15.875 39.890625 15.1875 32.171875 
z
" id="DejaVuSans-101"/>
      <path d="M 52 44.1875 
Q 55.375 50.25 60.0625 53.125 
Q 64.75 56 71.09375 56 
Q 79.640625 56 84.28125 50.015625 
Q 88.921875 44.046875 88.921875 33.015625 
L 88.921875 0 
L 79.890625 0 
L 79.890625 32.71875 
Q 79.890625 40.578125 77.09375 44.375 
Q 74.3125 48.1875 68.609375 48.1875 
Q 61.625 48.1875 57.5625 43.546875 
Q 53.515625 38.921875 53.515625 30.90625 
L 53.515625 0 
L 44.484375 0 
L 44.484375 32.71875 
Q 44.484375 40.625 41.703125 44.40625 
Q 38.921875 48.1875 33.109375 48.1875 
Q 26.21875 48.1875 22.15625 43.53125 
Q 18.109375 38.875 18.109375 30.90625 
L 18.109375 0 
L 9.078125 0 
L 9.078125 54.6875 
L 18.109375 54.6875 
L 18.109375 46.1875 
Q 21.1875 51.21875 25.484375 53.609375 
Q 29.78125 56 35.6875 56 
Q 41.65625 56 45.828125 52.96875 
Q 50 49.953125 52 44.1875 
z
" id="DejaVuSans-109"/>
      <path d="M 18.109375 8.203125 
L 18.109375 -20.796875 
L 9.078125 -20.796875 
L 9.078125 54.6875 
L 18.109375 54.6875 
L 18.109375 46.390625 
Q 20.953125 51.265625 25.265625 53.625 
Q 29.59375 56 35.59375 56 
Q 45.5625 56 51.78125 48.09375 
Q 58.015625 40.1875 58.015625 27.296875 
Q 58.015625 14.40625 51.78125 6.484375 
Q 45.5625 -1.421875 35.59375 -1.421875 
Q 29.59375 -1.421875 25.265625 0.953125 
Q 20.953125 3.328125 18.109375 8.203125 
z
M 48.6875 27.296875 
Q 48.6875 37.203125 44.609375 42.84375 
Q 40.53125 48.484375 33.40625 48.484375 
Q 26.265625 48.484375 22.1875 42.84375 
Q 18.109375 37.203125 18.109375 27.296875 
Q 18.109375 17.390625 22.1875 11.75 
Q 26.265625 6.109375 33.40625 6.109375 
Q 40.53125 6.109375 44.609375 11.75 
Q 48.6875 17.390625 48.6875 27.296875 
z
" id="DejaVuSans-112"/>
      <path d="M 30.609375 48.390625 
Q 23.390625 48.390625 19.1875 42.75 
Q 14.984375 37.109375 14.984375 27.296875 
Q 14.984375 17.484375 19.15625 11.84375 
Q 23.34375 6.203125 30.609375 6.203125 
Q 37.796875 6.203125 41.984375 11.859375 
Q 46.1875 17.53125 46.1875 27.296875 
Q 46.1875 37.015625 41.984375 42.703125 
Q 37.796875 48.390625 30.609375 48.390625 
z
M 30.609375 56 
Q 42.328125 56 49.015625 48.375 
Q 55.71875 40.765625 55.71875 27.296875 
Q 55.71875 13.875 49.015625 6.21875 
Q 42.328125 -1.421875 30.609375 -1.421875 
Q 18.84375 -1.421875 12.171875 6.21875 
Q 5.515625 13.875 5.515625 27.296875 
Q 5.515625 40.765625 12.171875 48.375 
Q 18.84375 56 30.609375 56 
z
" id="DejaVuSans-111"/>
     </defs>
     <g transform="translate(236.91875 322.182812)scale(0.1 -0.1)">
      <use xlink:href="#DejaVuSans-84"/>
      <use x="44.083984" xlink:href="#DejaVuSans-101"/>
      <use x="105.607422" xlink:href="#DejaVuSans-109"/>
      <use x="203.019531" xlink:href="#DejaVuSans-112"/>
      <use x="266.496094" xlink:href="#DejaVuSans-111"/>
     </g>
    </g>
   </g>
   <g id="matplotlib.axis_2">
    <g id="ytick_1">
     <g id="line2d_11">
      <defs>
       <path d="M 0 0 
L -3.5 0 
" id="m01d11b98e8" style="stroke:#000000;stroke-width:0.8;"/>
      </defs>
      <g>
       <use style="stroke:#000000;stroke-width:0.8;" x="30.103125" xlink:href="#m01d11b98e8" y="283.004001"/>
      </g>
     </g>
     <g id="text_8">
      <!-- 0.0 -->
      <defs>
       <path d="M 10.6875 12.40625 
L 21 12.40625 
L 21 0 
L 10.6875 0 
z
" id="DejaVuSans-46"/>
      </defs>
      <g transform="translate(7.2 286.803219)scale(0.1 -0.1)">
       <use xlink:href="#DejaVuSans-48"/>
       <use x="63.623047" xlink:href="#DejaVuSans-46"/>
       <use x="95.410156" xlink:href="#DejaVuSans-48"/>
      </g>
     </g>
    </g>
    <g id="ytick_2">
     <g id="line2d_12">
      <g>
       <use style="stroke:#000000;stroke-width:0.8;" x="30.103125" xlink:href="#m01d11b98e8" y="234.353404"/>
      </g>
     </g>
     <g id="text_9">
      <!-- 0.1 -->
      <g transform="translate(7.2 238.152623)scale(0.1 -0.1)">
       <use xlink:href="#DejaVuSans-48"/>
       <use x="63.623047" xlink:href="#DejaVuSans-46"/>
       <use x="95.410156" xlink:href="#DejaVuSans-49"/>
      </g>
     </g>
    </g>
    <g id="ytick_3">
     <g id="line2d_13">
      <g>
       <use style="stroke:#000000;stroke-width:0.8;" x="30.103125" xlink:href="#m01d11b98e8" y="185.702807"/>
      </g>
     </g>
     <g id="text_10">
      <!-- 0.2 -->
      <g transform="translate(7.2 189.502026)scale(0.1 -0.1)">
       <use xlink:href="#DejaVuSans-48"/>
       <use x="63.623047" xlink:href="#DejaVuSans-46"/>
       <use x="95.410156" xlink:href="#DejaVuSans-50"/>
      </g>
     </g>
    </g>
    <g id="ytick_4">
     <g id="line2d_14">
      <g>
       <use style="stroke:#000000;stroke-width:0.8;" x="30.103125" xlink:href="#m01d11b98e8" y="137.05221"/>
      </g>
     </g>
     <g id="text_11">
      <!-- 0.3 -->
      <g transform="translate(7.2 140.851429)scale(0.1 -0.1)">
       <use xlink:href="#DejaVuSans-48"/>
       <use x="63.623047" xlink:href="#DejaVuSans-46"/>
       <use x="95.410156" xlink:href="#DejaVuSans-51"/>
      </g>
     </g>
    </g>
    <g id="ytick_5">
     <g id="line2d_15">
      <g>
       <use style="stroke:#000000;stroke-width:0.8;" x="30.103125" xlink:href="#m01d11b98e8" y="88.401614"/>
      </g>
     </g>
     <g id="text_12">
      <!-- 0.4 -->
      <g transform="translate(7.2 92.200832)scale(0.1 -0.1)">
       <use xlink:href="#DejaVuSans-48"/>
       <use x="63.623047" xlink:href="#DejaVuSans-46"/>
       <use x="95.410156" xlink:href="#DejaVuSans-52"/>
      </g>
     </g>
    </g>
    <g id="ytick_6">
     <g id="line2d_16">
      <g>
       <use style="stroke:#000000;stroke-width:0.8;" x="30.103125" xlink:href="#m01d11b98e8" y="39.751017"/>
      </g>
     </g>
     <g id="text_13">
      <!-- 0.5 -->
      <g transform="translate(7.2 43.550236)scale(0.1 -0.1)">
       <use xlink:href="#DejaVuSans-48"/>
       <use x="63.623047" xlink:href="#DejaVuSans-46"/>
       <use x="95.410156" xlink:href="#DejaVuSans-53"/>
      </g>
     </g>
    </g>
   </g>
   <g id="patch_3">
    <path d="M 30.103125 293.90625 
L 30.103125 22.10625 
" style="fill:none;stroke:#000000;stroke-linecap:square;stroke-linejoin:miter;stroke-width:0.8;"/>
   </g>
   <g id="patch_4">
    <path d="M 30.103125 293.90625 
L 476.503125 293.90625 
" style="fill:none;stroke:#000000;stroke-linecap:square;stroke-linejoin:miter;stroke-width:0.8;"/>
   </g>
   <g id="text_14">
    <!-- Z_Q -->
    <defs>
     <path d="M 5.609375 72.90625 
L 62.890625 72.90625 
L 62.890625 65.375 
L 16.796875 8.296875 
L 64.015625 8.296875 
L 64.015625 0 
L 4.5 0 
L 4.5 7.515625 
L 50.59375 64.59375 
L 5.609375 64.59375 
z
" id="DejaVuSans-90"/>
     <path d="M 50.984375 -16.609375 
L 50.984375 -23.578125 
L -0.984375 -23.578125 
L -0.984375 -16.609375 
z
" id="DejaVuSans-95"/>
     <path d="M 39.40625 66.21875 
Q 28.65625 66.21875 22.328125 58.203125 
Q 16.015625 50.203125 16.015625 36.375 
Q 16.015625 22.609375 22.328125 14.59375 
Q 28.65625 6.59375 39.40625 6.59375 
Q 50.140625 6.59375 56.421875 14.59375 
Q 62.703125 22.609375 62.703125 36.375 
Q 62.703125 50.203125 56.421875 58.203125 
Q 50.140625 66.21875 39.40625 66.21875 
z
M 53.21875 1.3125 
L 66.21875 -12.890625 
L 54.296875 -12.890625 
L 43.5 -1.21875 
Q 41.890625 -1.3125 41.03125 -1.359375 
Q 40.1875 -1.421875 39.40625 -1.421875 
Q 24.03125 -1.421875 14.8125 8.859375 
Q 5.609375 19.140625 5.609375 36.375 
Q 5.609375 53.65625 14.8125 63.9375 
Q 24.03125 74.21875 39.40625 74.21875 
Q 54.734375 74.21875 63.90625 63.9375 
Q 73.09375 53.65625 73.09375 36.375 
Q 73.09375 23.6875 67.984375 14.640625 
Q 62.890625 5.609375 53.21875 1.3125 
z
" id="DejaVuSans-81"/>
    </defs>
    <g transform="translate(241.47 16.10625)scale(0.12 -0.12)">
     <use xlink:href="#DejaVuSans-90"/>
     <use x="68.505859" xlink:href="#DejaVuSans-95"/>
     <use x="118.505859" xlink:href="#DejaVuSans-81"/>
    </g>
   </g>
   <g id="legend_1">
    <g id="patch_5">
     <path d="M 483.503125 189.892969 
L 557.901562 189.892969 
Q 559.901562 189.892969 559.901562 187.892969 
L 559.901562 128.119531 
Q 559.901562 126.119531 557.901562 126.119531 
L 483.503125 126.119531 
Q 481.503125 126.119531 481.503125 128.119531 
L 481.503125 187.892969 
Q 481.503125 189.892969 483.503125 189.892969 
z
" style="fill:#ffffff;opacity:0.8;stroke:#cccccc;stroke-linejoin:miter;"/>
    </g>
    <g id="line2d_17">
     <path d="M 485.503125 134.217969 
L 505.503125 134.217969 
" style="fill:none;stroke:#000000;stroke-dasharray:3.7,1.6;stroke-dashoffset:0;"/>
    </g>
    <g id="line2d_18"/>
    <g id="text_15">
     <!-- Baseline -->
     <defs>
      <path d="M 19.671875 34.8125 
L 19.671875 8.109375 
L 35.5 8.109375 
Q 43.453125 8.109375 47.28125 11.40625 
Q 51.125 14.703125 51.125 21.484375 
Q 51.125 28.328125 47.28125 31.5625 
Q 43.453125 34.8125 35.5 34.8125 
z
M 19.671875 64.796875 
L 19.671875 42.828125 
L 34.28125 42.828125 
Q 41.5 42.828125 45.03125 45.53125 
Q 48.578125 48.25 48.578125 53.8125 
Q 48.578125 59.328125 45.03125 62.0625 
Q 41.5 64.796875 34.28125 64.796875 
z
M 9.8125 72.90625 
L 35.015625 72.90625 
Q 46.296875 72.90625 52.390625 68.21875 
Q 58.5 63.53125 58.5 54.890625 
Q 58.5 48.1875 55.375 44.234375 
Q 52.25 40.28125 46.1875 39.3125 
Q 53.46875 37.75 57.5 32.78125 
Q 61.53125 27.828125 61.53125 20.40625 
Q 61.53125 10.640625 54.890625 5.3125 
Q 48.25 0 35.984375 0 
L 9.8125 0 
z
" id="DejaVuSans-66"/>
      <path d="M 34.28125 27.484375 
Q 23.390625 27.484375 19.1875 25 
Q 14.984375 22.515625 14.984375 16.5 
Q 14.984375 11.71875 18.140625 8.90625 
Q 21.296875 6.109375 26.703125 6.109375 
Q 34.1875 6.109375 38.703125 11.40625 
Q 43.21875 16.703125 43.21875 25.484375 
L 43.21875 27.484375 
z
M 52.203125 31.203125 
L 52.203125 0 
L 43.21875 0 
L 43.21875 8.296875 
Q 40.140625 3.328125 35.546875 0.953125 
Q 30.953125 -1.421875 24.3125 -1.421875 
Q 15.921875 -1.421875 10.953125 3.296875 
Q 6 8.015625 6 15.921875 
Q 6 25.140625 12.171875 29.828125 
Q 18.359375 34.515625 30.609375 34.515625 
L 43.21875 34.515625 
L 43.21875 35.40625 
Q 43.21875 41.609375 39.140625 45 
Q 35.0625 48.390625 27.6875 48.390625 
Q 23 48.390625 18.546875 47.265625 
Q 14.109375 46.140625 10.015625 43.890625 
L 10.015625 52.203125 
Q 14.9375 54.109375 19.578125 55.046875 
Q 24.21875 56 28.609375 56 
Q 40.484375 56 46.34375 49.84375 
Q 52.203125 43.703125 52.203125 31.203125 
z
" id="DejaVuSans-97"/>
      <path d="M 44.28125 53.078125 
L 44.28125 44.578125 
Q 40.484375 46.53125 36.375 47.5 
Q 32.28125 48.484375 27.875 48.484375 
Q 21.1875 48.484375 17.84375 46.4375 
Q 14.5 44.390625 14.5 40.28125 
Q 14.5 37.15625 16.890625 35.375 
Q 19.28125 33.59375 26.515625 31.984375 
L 29.59375 31.296875 
Q 39.15625 29.25 43.1875 25.515625 
Q 47.21875 21.78125 47.21875 15.09375 
Q 47.21875 7.46875 41.1875 3.015625 
Q 35.15625 -1.421875 24.609375 -1.421875 
Q 20.21875 -1.421875 15.453125 -0.5625 
Q 10.6875 0.296875 5.421875 2 
L 5.421875 11.28125 
Q 10.40625 8.6875 15.234375 7.390625 
Q 20.0625 6.109375 24.8125 6.109375 
Q 31.15625 6.109375 34.5625 8.28125 
Q 37.984375 10.453125 37.984375 14.40625 
Q 37.984375 18.0625 35.515625 20.015625 
Q 33.0625 21.96875 24.703125 23.78125 
L 21.578125 24.515625 
Q 13.234375 26.265625 9.515625 29.90625 
Q 5.8125 33.546875 5.8125 39.890625 
Q 5.8125 47.609375 11.28125 51.796875 
Q 16.75 56 26.8125 56 
Q 31.78125 56 36.171875 55.265625 
Q 40.578125 54.546875 44.28125 53.078125 
z
" id="DejaVuSans-115"/>
      <path d="M 9.421875 75.984375 
L 18.40625 75.984375 
L 18.40625 0 
L 9.421875 0 
z
" id="DejaVuSans-108"/>
      <path d="M 9.421875 54.6875 
L 18.40625 54.6875 
L 18.40625 0 
L 9.421875 0 
z
M 9.421875 75.984375 
L 18.40625 75.984375 
L 18.40625 64.59375 
L 9.421875 64.59375 
z
" id="DejaVuSans-105"/>
      <path d="M 54.890625 33.015625 
L 54.890625 0 
L 45.90625 0 
L 45.90625 32.71875 
Q 45.90625 40.484375 42.875 44.328125 
Q 39.84375 48.1875 33.796875 48.1875 
Q 26.515625 48.1875 22.3125 43.546875 
Q 18.109375 38.921875 18.109375 30.90625 
L 18.109375 0 
L 9.078125 0 
L 9.078125 54.6875 
L 18.109375 54.6875 
L 18.109375 46.1875 
Q 21.34375 51.125 25.703125 53.5625 
Q 30.078125 56 35.796875 56 
Q 45.21875 56 50.046875 50.171875 
Q 54.890625 44.34375 54.890625 33.015625 
z
" id="DejaVuSans-110"/>
     </defs>
     <g transform="translate(513.503125 137.717969)scale(0.1 -0.1)">
      <use xlink:href="#DejaVuSans-66"/>
      <use x="68.603516" xlink:href="#DejaVuSans-97"/>
      <use x="129.882812" xlink:href="#DejaVuSans-115"/>
      <use x="181.982422" xlink:href="#DejaVuSans-101"/>
      <use x="243.505859" xlink:href="#DejaVuSans-108"/>
      <use x="271.289062" xlink:href="#DejaVuSans-105"/>
      <use x="299.072266" xlink:href="#DejaVuSans-110"/>
      <use x="362.451172" xlink:href="#DejaVuSans-101"/>
     </g>
    </g>
    <g id="line2d_19">
     <path d="M 485.503125 148.896094 
L 505.503125 148.896094 
" style="fill:none;stroke:#1f77b4;stroke-linecap:square;stroke-width:1.5;"/>
    </g>
    <g id="line2d_20"/>
    <g id="text_16">
     <!-- $\Downarrow \sigma_\psi$ -->
     <defs>
      <path d="M 36.765625 14.3125 
L 41.9375 9.234375 
L 47.015625 14.3125 
L 47.015625 72.90625 
L 52.875 72.90625 
L 52.875 20.171875 
L 57.46875 24.75 
L 63.328125 18.890625 
L 44.09375 -0.34375 
L 39.703125 -0.34375 
L 20.5625 18.890625 
L 26.421875 24.75 
L 30.90625 20.171875 
L 30.90625 72.90625 
L 36.765625 72.90625 
z
" id="DejaVuSans-8659"/>
      <path d="M 34.671875 47.5625 
Q 27.25 47.5625 22.21875 42.1875 
Q 16.890625 36.578125 15.140625 27.296875 
Q 13.1875 17.484375 16.3125 11.8125 
Q 19.390625 6.203125 26.65625 6.203125 
Q 33.84375 6.203125 39.109375 11.859375 
Q 44.4375 17.53125 46.34375 27.296875 
Q 48.046875 36.234375 45.015625 42.1875 
Q 42.1875 47.5625 34.671875 47.5625 
z
M 36.078125 54.734375 
L 65.921875 54.6875 
L 64.15625 45.703125 
L 54.109375 45.703125 
Q 57.90625 38.09375 55.859375 27.296875 
Q 53.21875 13.875 45.0625 6.25 
Q 36.859375 -1.421875 25.140625 -1.421875 
Q 13.375 -1.421875 8.203125 6.25 
Q 3.03125 13.875 5.671875 27.296875 
Q 8.25 40.765625 16.40625 48.390625 
Q 23.1875 54.734375 36.078125 54.734375 
z
" id="DejaVuSans-Oblique-963"/>
      <path d="M 24.859375 -1.21875 
Q 13.921875 0.59375 9.625 5.328125 
Q 4.34375 11.140625 6.640625 23 
L 12.796875 54.6875 
L 21.875 54.6875 
L 15.765625 23.34375 
Q 14.0625 14.40625 17.484375 10.6875 
Q 20.515625 7.46875 26.421875 6.78125 
L 35.6875 54.6875 
L 44.625 54.6875 
L 35.359375 6.84375 
Q 41.890625 7.515625 45.75 10.75 
Q 50.734375 14.84375 52.390625 23.390625 
L 58.453125 54.6875 
L 67.53125 54.6875 
L 61.375 23.046875 
Q 58.984375 10.75 51.5625 5.375 
Q 44.875 0.53125 33.796875 -1.171875 
L 29.984375 -20.796875 
L 21.046875 -20.796875 
z
" id="DejaVuSans-Oblique-968"/>
     </defs>
     <g transform="translate(513.503125 152.396094)scale(0.1 -0.1)">
      <use transform="translate(19.482422 0.09375)" xlink:href="#DejaVuSans-8659"/>
      <use transform="translate(122.753906 0.09375)" xlink:href="#DejaVuSans-Oblique-963"/>
      <use transform="translate(186.132812 -16.3125)scale(0.7)" xlink:href="#DejaVuSans-Oblique-968"/>
     </g>
    </g>
    <g id="line2d_21">
     <path d="M 485.503125 164.594531 
L 505.503125 164.594531 
" style="fill:none;stroke:#ff7f0e;stroke-linecap:square;stroke-width:1.5;"/>
    </g>
    <g id="line2d_22"/>
    <g id="text_17">
     <!-- $\Downarrow s_\psi$ -->
     <defs>
      <path d="M 50 53.078125 
L 48.296875 44.578125 
Q 44.734375 46.53125 40.765625 47.5 
Q 36.8125 48.484375 32.625 48.484375 
Q 25.53125 48.484375 21.453125 46.0625 
Q 17.390625 43.65625 17.390625 39.5 
Q 17.390625 34.671875 26.859375 32.078125 
Q 27.59375 31.890625 27.9375 31.78125 
L 30.8125 30.90625 
Q 39.796875 28.421875 42.796875 25.6875 
Q 45.796875 22.953125 45.796875 18.21875 
Q 45.796875 9.515625 38.890625 4.046875 
Q 31.984375 -1.421875 20.796875 -1.421875 
Q 16.453125 -1.421875 11.671875 -0.578125 
Q 6.890625 0.25 1.125 2 
L 2.875 11.28125 
Q 7.8125 8.734375 12.59375 7.421875 
Q 17.390625 6.109375 21.78125 6.109375 
Q 28.375 6.109375 32.5 8.9375 
Q 36.625 11.765625 36.625 16.109375 
Q 36.625 20.796875 25.78125 23.6875 
L 24.859375 23.921875 
L 21.78125 24.703125 
Q 14.9375 26.515625 11.765625 29.46875 
Q 8.59375 32.421875 8.59375 37.015625 
Q 8.59375 45.75 15.15625 50.875 
Q 21.734375 56 33.015625 56 
Q 37.453125 56 41.671875 55.265625 
Q 45.90625 54.546875 50 53.078125 
z
" id="DejaVuSans-Oblique-115"/>
     </defs>
     <g transform="translate(513.503125 168.094531)scale(0.1 -0.1)">
      <use transform="translate(19.482422 0.09375)" xlink:href="#DejaVuSans-8659"/>
      <use transform="translate(122.753906 0.09375)" xlink:href="#DejaVuSans-Oblique-115"/>
      <use transform="translate(174.853516 -16.3125)scale(0.7)" xlink:href="#DejaVuSans-Oblique-968"/>
     </g>
    </g>
    <g id="line2d_23">
     <path d="M 485.503125 180.292969 
L 505.503125 180.292969 
" style="fill:none;stroke:#2ca02c;stroke-linecap:square;stroke-width:1.5;"/>
    </g>
    <g id="line2d_24"/>
    <g id="text_18">
     <!-- $\Uparrow \eta$ -->
     <defs>
      <path d="M 36.765625 58.59375 
L 36.765625 0 
L 30.90625 0 
L 30.90625 52.734375 
L 26.421875 48.140625 
L 20.5625 54 
L 39.703125 73.25 
L 44.09375 73.25 
L 63.328125 54 
L 57.46875 48.140625 
L 52.875 52.734375 
L 52.875 0 
L 47.015625 0 
L 47.015625 58.59375 
L 41.9375 63.671875 
z
" id="DejaVuSans-8657"/>
      <path d="M 57.859375 33.015625 
L 47.40625 -20.796875 
L 38.421875 -20.796875 
L 48.828125 32.71875 
Q 50.34375 40.484375 48.046875 44.34375 
Q 45.796875 48.1875 39.75 48.1875 
Q 32.46875 48.1875 27.34375 43.5625 
Q 22.265625 38.921875 20.703125 30.90625 
L 14.703125 0 
L 5.671875 0 
L 16.3125 54.6875 
L 25.34375 54.6875 
L 23.6875 46.1875 
Q 27.828125 51.125 32.71875 53.5625 
Q 37.546875 56 43.265625 56 
Q 52.6875 56 56.390625 50.203125 
Q 60.0625 44.34375 57.859375 33.015625 
z
" id="DejaVuSans-Oblique-951"/>
     </defs>
     <g transform="translate(513.503125 183.792969)scale(0.1 -0.1)">
      <use transform="translate(19.482422 0.75)" xlink:href="#DejaVuSans-8657"/>
      <use transform="translate(122.753906 0.75)" xlink:href="#DejaVuSans-Oblique-951"/>
     </g>
    </g>
   </g>
  </g>
 </g>
 <defs>
  <clipPath id="pb6c2d431be">
   <rect height="271.8" width="446.4" x="30.103125" y="22.10625"/>
  </clipPath>
 </defs>
</svg>
