<?xml version="1.0" encoding="utf-8" standalone="no"?>
<!DOCTYPE svg PUBLIC "-//W3C//DTD SVG 1.1//EN"
  "http://www.w3.org/Graphics/SVG/1.1/DTD/svg11.dtd">
<!-- Created with matplotlib (https://matplotlib.org/) -->
<svg height="331.674375pt" version="1.1" viewBox="0 0 576.648437 331.674375" width="576.648437pt" xmlns="http://www.w3.org/2000/svg" xmlns:xlink="http://www.w3.org/1999/xlink">
 <defs>
  <style type="text/css">
*{stroke-linecap:butt;stroke-linejoin:round;}
  </style>
 </defs>
 <g id="figure_1">
  <g id="patch_1">
   <path d="M 0 331.674375 
L 576.648437 331.674375 
L 576.648437 0 
L 0 0 
z
" style="fill:#ffffff;"/>
  </g>
  <g id="axes_1">
   <g id="patch_2">
    <path d="M 39.65 294.118125 
L 486.05 294.118125 
L 486.05 22.318125 
L 39.65 22.318125 
z
" style="fill:#ffffff;"/>
   </g>
   <g id="line2d_1">
    <path clip-path="url(#p78f57b629b)" d="M 59.940909 244.62414 
L 60.666881 232.036197 
L 61.392852 86.675265 
L 62.118824 251.501404 
L 62.844796 225.845142 
L 63.570768 247.808042 
L 64.296739 248.354283 
L 65.022711 240.599596 
L 65.748683 225.541965 
L 66.474654 254.492329 
L 67.200626 66.365507 
L 67.926598 265.874426 
L 68.65257 243.819838 
L 69.378541 231.951228 
L 70.104513 105.522823 
L 70.830485 165.993663 
L 71.556456 243.429502 
L 72.282428 85.412796 
L 73.0084 253.370178 
L 73.734371 62.34706 
L 75.186315 243.763714 
L 75.912287 82.958613 
L 76.638258 242.600792 
L 77.36423 227.612093 
L 78.090202 225.432439 
L 78.816173 231.484296 
L 79.542145 241.95687 
L 80.268117 79.794495 
L 80.994088 253.056701 
L 81.72006 74.546444 
L 82.446032 165.590812 
L 83.172004 117.137104 
L 83.897975 231.066849 
L 84.623947 209.070557 
L 85.349919 236.85434 
L 86.07589 239.332594 
L 86.801862 79.338592 
L 87.527834 156.318086 
L 88.253805 129.163353 
L 88.979777 224.683497 
L 89.705749 90.616758 
L 90.431721 145.864286 
L 91.157692 232.256218 
L 91.883664 219.37364 
L 92.609636 86.580182 
L 93.335607 152.722903 
L 94.061579 124.078116 
L 94.787551 124.005022 
L 95.513523 227.330288 
L 96.239494 60.764083 
L 96.965466 154.069976 
L 97.691438 221.724668 
L 98.417409 91.668836 
L 99.143381 136.430181 
L 99.869353 133.367422 
L 100.595324 235.632259 
L 101.321296 219.459976 
L 102.047268 218.094705 
L 102.77324 232.020246 
L 103.499211 238.317874 
L 104.225183 227.737299 
L 104.951155 68.165618 
L 105.677126 167.496663 
L 106.403098 135.711167 
L 107.12907 247.373866 
L 107.855041 213.183373 
L 108.581013 235.075072 
L 109.306985 246.867844 
L 110.032957 247.861997 
L 110.758928 237.932009 
L 111.4849 252.797142 
L 112.210872 67.55307 
L 112.936843 258.226436 
L 113.662815 236.882169 
L 114.388787 255.888646 
L 115.114758 253.22116 
L 115.84073 206.984227 
L 116.566702 230.445188 
L 117.292674 241.923867 
L 118.018645 205.23881 
L 118.744617 113.385729 
L 119.470589 248.890111 
L 120.19656 250.803755 
L 120.922532 252.039566 
L 121.648504 46.013162 
L 122.374476 254.770099 
L 123.100447 218.214133 
L 123.826419 91.770569 
L 124.552391 244.552925 
L 125.278362 220.987694 
L 126.004334 226.248498 
L 126.730306 240.530259 
L 127.456277 238.746486 
L 128.182249 250.187476 
L 128.908221 237.100216 
L 129.634193 233.351512 
L 130.360164 228.571385 
L 131.086136 80.352705 
L 132.538079 246.678801 
L 133.264051 220.900709 
L 133.990023 238.732006 
L 134.715994 237.189382 
L 135.441966 88.456318 
L 136.89391 258.343327 
L 138.345853 219.914112 
L 139.071825 243.129358 
L 139.797796 235.47495 
L 140.523768 237.260884 
L 141.24974 64.447187 
L 141.975711 165.734277 
L 142.701683 233.834058 
L 143.427655 232.486724 
L 144.153627 252.48848 
L 144.879598 34.67267 
L 145.60557 170.087408 
L 146.331542 223.30558 
L 147.057513 223.134322 
L 147.783485 230.256742 
L 148.509457 240.802527 
L 149.235429 219.892253 
L 149.9614 244.314079 
L 150.687372 250.287923 
L 151.413344 241.173137 
L 152.139315 254.483782 
L 152.865287 242.755546 
L 153.591259 256.003955 
L 154.31723 232.339535 
L 155.043202 243.43335 
L 155.769174 61.489783 
L 156.495146 256.385723 
L 157.221117 257.018427 
L 157.947089 256.985152 
L 158.673061 209.490084 
L 159.399032 240.289596 
L 160.125004 232.5289 
L 160.850976 257.687781 
L 161.576947 231.23002 
L 163.028891 248.056818 
L 163.754863 225.845625 
L 164.480834 250.940281 
L 165.206806 248.016775 
L 165.932778 257.568728 
L 166.658749 70.309066 
L 167.384721 170.276244 
L 168.110693 143.413572 
L 168.836664 148.591476 
L 169.562636 241.445926 
L 170.288608 244.133145 
L 171.01458 236.730262 
L 171.740551 56.009222 
L 172.466523 165.374473 
L 173.192495 144.699887 
L 173.918466 246.942431 
L 174.644438 242.150155 
L 175.37041 221.86434 
L 176.822353 234.780169 
L 177.548325 248.115255 
L 178.274297 228.142552 
L 179.000268 228.473451 
L 179.72624 233.675164 
L 180.452212 231.859979 
L 181.178183 233.41518 
L 181.904155 241.924639 
L 182.630127 229.309624 
L 183.356099 101.994149 
L 184.808042 243.456776 
L 185.534014 238.802171 
L 186.259985 250.191643 
L 186.985957 244.768328 
L 187.711929 254.283589 
L 188.4379 229.997781 
L 189.163872 248.153097 
L 189.889844 230.324814 
L 190.615816 245.813093 
L 191.341787 252.631102 
L 192.067759 219.218171 
L 192.793731 253.374205 
L 193.519702 227.943245 
L 194.245674 244.846891 
L 194.971646 230.486699 
L 195.697617 246.950012 
L 196.423589 247.664566 
L 197.149561 222.895325 
L 197.875533 232.10576 
L 198.601504 239.08135 
L 199.327476 249.039341 
L 200.053448 241.752059 
L 200.779419 243.645096 
L 201.505391 91.74873 
L 202.231363 259.551465 
L 202.957335 249.976412 
L 203.683306 252.8088 
L 204.409278 249.792705 
L 205.13525 250.580238 
L 205.861221 235.412243 
L 206.587193 239.092622 
L 207.313165 68.088851 
L 208.039136 166.190047 
L 208.765108 245.350294 
L 209.49108 243.886854 
L 210.217052 226.667763 
L 210.943023 93.134208 
L 211.668995 164.671778 
L 212.394967 260.238132 
L 213.120938 75.833845 
L 213.84691 173.236325 
L 214.572882 238.098714 
L 215.298853 244.223946 
L 216.024825 247.836955 
L 216.750797 244.706806 
L 217.476769 217.537942 
L 218.20274 207.59787 
L 218.928712 246.776779 
L 219.654684 249.438887 
L 220.380655 231.968254 
L 221.106627 249.494268 
L 221.832599 251.834705 
L 222.55857 254.745189 
L 223.284542 229.957706 
L 224.010514 254.014739 
L 224.736486 247.389707 
L 225.462457 235.51903 
L 226.188429 108.692938 
L 226.914401 260.970386 
L 227.640372 236.175137 
L 228.366344 98.750967 
L 229.818288 244.31051 
L 230.544259 239.154593 
L 231.270231 57.595446 
L 231.996203 171.329694 
L 232.722174 128.106484 
L 233.448146 241.419436 
L 234.174118 246.825222 
L 234.900089 87.531452 
L 236.352033 233.689461 
L 237.078005 95.566997 
L 237.803976 256.13358 
L 238.529948 212.460037 
L 239.25592 246.626521 
L 239.981891 228.281419 
L 240.707863 95.270352 
L 242.159806 244.668876 
L 242.885778 242.63634 
L 243.61175 237.46234 
L 244.337722 227.782947 
L 245.063693 228.672145 
L 245.789665 85.83402 
L 246.515637 248.341497 
L 247.241608 232.472993 
L 247.96758 77.667726 
L 248.693552 242.720978 
L 249.419523 227.770455 
L 250.145495 99.362498 
L 250.871467 235.645627 
L 251.597439 80.181618 
L 252.32341 152.419641 
L 253.049382 128.841617 
L 253.775354 227.777655 
L 254.501325 226.029469 
L 255.227297 94.565577 
L 255.953269 241.14008 
L 256.679241 234.793587 
L 257.405212 234.043899 
L 258.857156 226.645676 
L 259.583127 106.311806 
L 260.309099 258.015553 
L 261.035071 207.510214 
L 261.761042 225.159534 
L 262.487014 214.810426 
L 263.212986 99.073158 
L 263.938958 234.465025 
L 264.664929 95.839416 
L 265.390901 234.232166 
L 266.842844 231.166751 
L 267.568816 241.922871 
L 268.294788 90.165273 
L 269.020759 153.040648 
L 269.746731 245.416447 
L 270.472703 219.133548 
L 271.198675 224.064674 
L 271.924646 221.09923 
L 272.650618 220.228449 
L 273.37659 242.491048 
L 274.102561 239.290557 
L 274.828533 247.45556 
L 275.554505 231.723016 
L 276.280477 91.667377 
L 277.006448 249.424756 
L 277.73242 219.170684 
L 278.458392 224.747895 
L 279.184363 231.934999 
L 279.910335 241.584146 
L 280.636307 244.736608 
L 281.362278 244.516523 
L 282.08825 257.135556 
L 282.814222 255.023676 
L 283.540194 255.178968 
L 284.992137 122.717155 
L 285.718109 164.902985 
L 286.44408 139.284275 
L 287.170052 139.475196 
L 287.896024 243.745074 
L 288.621995 86.515588 
L 289.347967 151.759225 
L 290.073939 240.516931 
L 290.799911 193.543864 
L 291.525882 223.775384 
L 292.251854 94.235285 
L 292.977826 241.788946 
L 293.703797 231.461254 
L 294.429769 203.305947 
L 295.155741 241.561926 
L 295.881712 231.76144 
L 296.607684 234.656972 
L 297.333656 245.150825 
L 298.059628 231.700011 
L 298.785599 247.788462 
L 299.511571 243.725767 
L 300.237543 100.167836 
L 300.963514 264.393678 
L 301.689486 236.150834 
L 302.415458 234.322801 
L 303.14143 221.606053 
L 303.867401 228.806829 
L 304.593373 242.16025 
L 305.319345 245.246984 
L 306.045316 229.99576 
L 306.771288 235.936252 
L 307.49726 226.378272 
L 308.223231 107.987889 
L 308.949203 161.225948 
L 309.675175 138.592223 
L 310.401147 252.933989 
L 311.127118 223.320533 
L 311.85309 239.680919 
L 312.579062 104.49691 
L 313.305033 250.588228 
L 314.031005 233.16165 
L 314.756977 225.285381 
L 315.482948 222.399697 
L 316.20892 114.172251 
L 316.934892 245.899479 
L 317.660864 231.885161 
L 318.386835 240.576626 
L 319.112807 210.738833 
L 319.838779 242.679096 
L 320.56475 66.836443 
L 321.290722 245.807529 
L 322.016694 225.184017 
L 322.742665 224.723792 
L 323.468637 112.923506 
L 324.194609 243.553409 
L 324.920581 223.354099 
L 325.646552 241.516952 
L 326.372524 107.443648 
L 327.098496 159.063964 
L 327.824467 137.486812 
L 328.550439 142.548981 
L 329.276411 233.204119 
L 330.002383 99.64414 
L 330.728354 239.471029 
L 331.454326 214.914097 
L 332.180298 217.883908 
L 332.906269 94.738781 
L 333.632241 234.8412 
L 334.358213 234.399791 
L 335.084184 108.811774 
L 335.810156 234.2014 
L 336.536128 224.218375 
L 337.2621 219.238256 
L 337.988071 225.050401 
L 338.714043 92.084176 
L 340.165986 225.741038 
L 340.891958 217.563476 
L 341.61793 104.934282 
L 342.343901 148.5252 
L 343.069873 232.714571 
L 343.795845 222.107585 
L 344.521817 99.707017 
L 345.247788 154.611894 
L 345.97376 228.723709 
L 346.699732 196.726082 
L 347.425703 228.787854 
L 348.151675 78.700518 
L 348.877647 233.498031 
L 349.603618 94.292128 
L 350.32959 130.219433 
L 351.055562 130.193399 
L 351.781534 136.759561 
L 352.507505 224.566162 
L 353.233477 214.025367 
L 353.959449 99.771038 
L 354.68542 222.783924 
L 355.411392 226.127882 
L 356.137364 105.15683 
L 356.863336 239.251526 
L 357.589307 98.525602 
L 358.315279 230.696745 
L 359.041251 224.138199 
L 359.767222 206.797537 
L 360.493194 219.917273 
L 361.219166 217.62732 
L 361.945137 115.582197 
L 362.671109 243.805611 
L 363.397081 94.607358 
L 364.123053 238.048768 
L 364.849024 105.950429 
L 365.574996 146.325005 
L 366.300968 131.987244 
L 367.026939 223.549122 
L 367.752911 214.152755 
L 368.478883 211.21893 
L 369.204854 217.388281 
L 369.930826 217.109595 
L 370.656798 209.51819 
L 371.38277 110.439431 
L 372.108741 135.372229 
L 372.834713 216.582439 
L 373.560685 112.532154 
L 374.286656 235.178846 
L 375.012628 215.319065 
L 375.7386 107.515509 
L 376.464571 232.145117 
L 377.190543 94.011326 
L 377.916515 154.544771 
L 378.642487 227.130094 
L 379.368458 202.429466 
L 380.09443 203.112879 
L 380.820402 216.212939 
L 381.546373 225.253711 
L 382.272345 213.265324 
L 382.998317 224.844519 
L 383.724289 110.141234 
L 384.45026 151.215286 
L 385.176232 137.302387 
L 385.902204 228.269172 
L 386.628175 207.757092 
L 387.354147 109.09711 
L 388.080119 145.986922 
L 388.80609 126.163339 
L 389.532062 132.217257 
L 390.258034 217.285787 
L 390.984006 103.078898 
L 391.709977 220.844118 
L 392.435949 204.55041 
L 393.161921 207.017806 
L 393.887892 204.106145 
L 394.613864 208.562068 
L 395.339836 116.239319 
L 396.065807 225.065062 
L 396.791779 196.096467 
L 397.517751 205.018002 
L 398.243723 197.356714 
L 398.969694 214.776654 
L 399.695666 112.381742 
L 400.421638 141.878391 
L 401.147609 123.499003 
L 401.873581 219.687395 
L 402.599553 188.240599 
L 403.325524 211.897013 
L 404.051496 111.068455 
L 404.777468 223.004138 
L 405.50344 111.937233 
L 406.229411 216.760652 
L 406.955383 205.315801 
L 407.681355 217.435967 
L 408.407326 122.297055 
L 409.133298 144.958779 
L 409.85927 132.601435 
L 410.585242 216.459395 
L 411.311213 98.571223 
L 412.037185 137.439788 
L 412.763157 129.237113 
L 413.489128 212.084118 
L 414.2151 196.229336 
L 414.941072 115.792857 
L 415.667043 130.861518 
L 416.393015 132.399465 
L 417.118987 128.216935 
L 417.844959 205.839261 
L 418.57093 89.384411 
L 419.296902 208.192932 
L 420.022874 104.165383 
L 420.748845 134.931931 
L 421.474817 201.610017 
L 422.200789 191.482871 
L 422.92676 187.428808 
L 423.652732 103.625662 
L 424.378704 205.849867 
L 425.104676 106.570294 
L 425.830647 128.645829 
L 426.556619 201.261273 
L 427.282591 105.130536 
L 428.008562 125.999223 
L 428.734534 120.343502 
L 429.460506 198.930392 
L 430.186477 102.053157 
L 430.912449 203.981457 
L 431.638421 103.545508 
L 432.364393 210.785448 
L 433.090364 203.238346 
L 434.542308 198.524525 
L 435.268279 110.833913 
L 435.994251 214.390713 
L 436.720223 196.538599 
L 437.446195 186.47967 
L 438.172166 202.952621 
L 438.898138 192.027265 
L 439.62411 189.128104 
L 440.350081 116.942714 
L 441.076053 129.034243 
L 441.802025 126.287917 
L 442.527996 125.260512 
L 443.253968 123.793412 
L 443.97994 128.274115 
L 444.705912 193.66257 
L 445.431883 102.951032 
L 446.157855 202.980494 
L 446.883827 104.42128 
L 447.609798 194.318645 
L 448.33577 181.852005 
L 449.061742 102.227548 
L 449.787713 121.456128 
L 450.513685 112.41343 
L 451.239657 184.218909 
L 451.965629 102.706938 
L 452.6916 110.627692 
L 453.417572 111.765001 
L 454.143544 129.764437 
L 454.869515 113.743268 
L 455.595487 190.569892 
L 456.321459 92.473165 
L 457.04743 117.281411 
L 457.773402 123.701774 
L 458.499374 174.746048 
L 459.225346 179.153392 
L 459.951317 114.434872 
L 460.677289 119.578089 
L 461.403261 111.644108 
L 462.129232 194.969503 
L 462.855204 183.538294 
L 463.581176 106.731113 
L 464.307148 121.376728 
L 465.033119 116.884564 
L 465.759091 114.283387 
L 465.759091 114.283387 
" style="fill:none;stroke:#1f77b4;stroke-linecap:square;stroke-width:1.5;"/>
   </g>
   <g id="line2d_2">
    <path clip-path="url(#p78f57b629b)" d="M 59.940909 194.673656 
L 60.666881 209.973781 
L 61.392852 184.540431 
L 62.118824 227.917815 
L 62.844796 234.534929 
L 63.570768 228.603403 
L 64.296739 221.269499 
L 65.022711 217.756329 
L 65.748683 141.560676 
L 66.474654 182.533075 
L 67.200626 216.52748 
L 67.926598 191.849854 
L 68.65257 208.0316 
L 69.378541 221.55863 
L 70.104513 222.796194 
L 70.830485 241.442055 
L 71.556456 247.861313 
L 72.282428 249.664831 
L 73.0084 137.997143 
L 73.734371 238.100725 
L 74.460343 213.20373 
L 75.186315 236.873178 
L 75.912287 227.739604 
L 76.638258 257.406586 
L 77.36423 236.800199 
L 78.090202 155.860636 
L 78.816173 193.776234 
L 79.542145 131.420354 
L 80.268117 218.996109 
L 80.994088 143.555779 
L 81.72006 144.188723 
L 82.446032 180.266967 
L 83.172004 180.180039 
L 83.897975 128.4566 
L 84.623947 194.213946 
L 85.349919 207.967253 
L 86.07589 208.295266 
L 86.801862 223.317289 
L 87.527834 207.555034 
L 88.253805 241.947244 
L 88.979777 245.475378 
L 89.705749 218.614365 
L 90.431721 248.174715 
L 91.157692 258.22619 
L 91.883664 263.246876 
L 92.609636 242.31289 
L 93.335607 228.54313 
L 94.061579 244.392113 
L 94.787551 86.21073 
L 95.513523 222.35861 
L 96.239494 108.074085 
L 96.965466 215.180974 
L 97.691438 207.072176 
L 98.417409 209.731848 
L 99.143381 131.6049 
L 99.869353 203.577548 
L 100.595324 199.13284 
L 101.321296 207.520065 
L 102.047268 219.113835 
L 102.77324 235.99023 
L 103.499211 242.024467 
L 104.225183 240.136573 
L 104.951155 212.769027 
L 105.677126 197.234808 
L 106.403098 155.848528 
L 107.12907 235.491537 
L 108.581013 203.276627 
L 109.306985 239.103195 
L 110.032957 237.528253 
L 110.758928 213.661262 
L 111.4849 259.178602 
L 112.210872 240.224878 
L 112.936843 251.966339 
L 113.662815 239.033282 
L 114.388787 138.683449 
L 115.114758 239.780551 
L 115.84073 245.725247 
L 116.566702 124.830364 
L 117.292674 235.388653 
L 118.018645 103.817285 
L 118.744617 225.6483 
L 119.470589 230.126773 
L 120.19656 238.536314 
L 120.922532 229.726638 
L 121.648504 246.792292 
L 122.374476 108.892325 
L 123.100447 190.421723 
L 123.826419 211.046072 
L 124.552391 193.082444 
L 125.278362 159.703978 
L 126.004334 210.305525 
L 127.456277 161.034797 
L 128.182249 171.844339 
L 128.908221 187.339304 
L 129.634193 211.750758 
L 130.360164 218.313265 
L 131.086136 229.917551 
L 131.812108 202.316212 
L 132.538079 237.705723 
L 133.264051 201.914922 
L 133.990023 148.1545 
L 134.715994 209.358427 
L 135.441966 228.855152 
L 136.167938 230.571137 
L 136.89391 235.777411 
L 137.619881 236.271658 
L 138.345853 245.537154 
L 139.071825 227.125035 
L 139.797796 255.813363 
L 140.523768 223.303275 
L 141.24974 253.279006 
L 141.975711 265.592274 
L 142.701683 255.370049 
L 143.427655 268.332951 
L 144.153627 273.017129 
L 144.879598 246.779991 
L 145.60557 266.742524 
L 147.057513 260.159281 
L 147.783485 267.490512 
L 148.509457 266.501873 
L 149.235429 267.479877 
L 149.9614 265.317495 
L 150.687372 272.772932 
L 151.413344 272.572449 
L 152.139315 281.76358 
L 152.865287 276.40955 
L 153.591259 223.377287 
L 154.31723 217.630142 
L 155.043202 230.755606 
L 155.769174 203.90239 
L 156.495146 228.136846 
L 157.221117 243.488788 
L 157.947089 149.863189 
L 158.673061 220.841418 
L 159.399032 236.424756 
L 160.125004 119.985221 
L 160.850976 228.456735 
L 162.302919 240.19524 
L 163.028891 240.571026 
L 163.754863 239.213291 
L 164.480834 242.762241 
L 165.206806 266.513724 
L 165.932778 207.652072 
L 166.658749 261.85384 
L 167.384721 222.118499 
L 168.110693 174.736005 
L 168.836664 218.329111 
L 169.562636 185.727826 
L 170.288608 225.047782 
L 171.01458 217.171709 
L 171.740551 213.666967 
L 172.466523 202.51351 
L 173.192495 223.363216 
L 173.918466 228.513836 
L 174.644438 240.983059 
L 175.37041 119.059432 
L 176.096382 237.55606 
L 176.822353 111.540684 
L 177.548325 190.588692 
L 178.274297 196.912591 
L 179.000268 158.486852 
L 179.72624 155.307636 
L 180.452212 162.034612 
L 181.178183 150.770229 
L 181.904155 197.706023 
L 182.630127 141.355483 
L 183.356099 186.696707 
L 184.08207 191.979258 
L 184.808042 137.383487 
L 185.534014 202.264654 
L 186.259985 146.589099 
L 186.985957 184.581435 
L 187.711929 191.217005 
L 188.4379 212.689335 
L 189.163872 203.056615 
L 189.889844 225.765751 
L 190.615816 155.587099 
L 191.341787 179.251949 
L 192.067759 165.633301 
L 192.793731 205.931434 
L 193.519702 185.322261 
L 194.245674 201.738903 
L 194.971646 212.991938 
L 195.697617 162.837589 
L 196.423589 223.926217 
L 197.149561 217.91427 
L 197.875533 232.550186 
L 198.601504 234.096199 
L 199.327476 219.157843 
L 200.053448 246.468925 
L 200.779419 233.164156 
L 201.505391 215.668989 
L 202.231363 209.866543 
L 202.957335 226.569103 
L 203.683306 238.964381 
L 204.409278 255.571542 
L 205.13525 228.556039 
L 205.861221 172.942621 
L 206.587193 234.323818 
L 207.313165 144.462193 
L 208.039136 227.60418 
L 208.765108 237.9075 
L 209.49108 227.442379 
L 210.217052 164.071165 
L 210.943023 231.239892 
L 211.668995 228.028516 
L 212.394967 247.264584 
L 213.120938 240.132524 
L 213.84691 218.818412 
L 214.572882 249.597455 
L 215.298853 255.816077 
L 216.024825 219.467267 
L 216.750797 247.687491 
L 217.476769 160.818654 
L 218.20274 238.947519 
L 218.928712 249.33014 
L 219.654684 246.247811 
L 220.380655 244.249446 
L 221.106627 255.375436 
L 221.832599 252.788593 
L 222.55857 259.008021 
L 223.284542 262.699316 
L 224.010514 268.384856 
L 224.736486 269.254251 
L 225.462457 254.561523 
L 226.188429 277.491025 
L 226.914401 265.67812 
L 227.640372 268.792193 
L 228.366344 278.933199 
L 229.092316 255.748263 
L 229.818288 265.742003 
L 230.544259 273.609635 
L 231.270231 253.852005 
L 231.996203 266.880283 
L 232.722174 211.229121 
L 233.448146 265.081985 
L 234.174118 135.750956 
L 234.900089 205.287928 
L 235.626061 240.857084 
L 236.352033 238.996176 
L 237.078005 198.496771 
L 237.803976 166.08344 
L 238.529948 235.949273 
L 239.25592 231.933798 
L 239.981891 245.102984 
L 240.707863 217.657054 
L 241.433835 163.656035 
L 242.159806 172.24678 
L 242.885778 223.293736 
L 243.61175 228.508196 
L 244.337722 230.018902 
L 245.063693 245.841691 
L 245.789665 217.21176 
L 246.515637 234.865974 
L 247.241608 166.339269 
L 247.96758 184.302174 
L 248.693552 190.524393 
L 249.419523 226.074004 
L 250.145495 154.708985 
L 250.871467 216.274225 
L 251.597439 149.49216 
L 252.32341 174.382269 
L 253.049382 209.8664 
L 253.775354 202.107644 
L 254.501325 216.574672 
L 255.227297 220.809002 
L 255.953269 128.619483 
L 256.679241 221.779025 
L 257.405212 224.345312 
L 258.131184 223.046098 
L 258.857156 220.191272 
L 259.583127 238.773103 
L 260.309099 214.403603 
L 261.035071 220.06478 
L 261.761042 240.254853 
L 262.487014 229.585587 
L 263.212986 206.040241 
L 263.938958 221.561365 
L 264.664929 148.051813 
L 265.390901 179.269637 
L 266.116873 217.722428 
L 266.842844 215.302846 
L 267.568816 229.081503 
L 268.294788 157.687824 
L 269.020759 175.760143 
L 269.746731 219.551379 
L 270.472703 199.21006 
L 271.198675 227.907678 
L 271.924646 223.625663 
L 272.650618 213.765955 
L 274.102561 241.000622 
L 274.828533 224.834772 
L 275.554505 128.878522 
L 276.280477 225.984823 
L 277.006448 206.851042 
L 277.73242 167.115632 
L 278.458392 217.1143 
L 279.184363 227.182459 
L 279.910335 144.854783 
L 280.636307 229.95145 
L 281.362278 156.144054 
L 282.08825 224.46924 
L 282.814222 161.251469 
L 283.540194 204.156708 
L 284.266165 156.548185 
L 284.992137 160.127207 
L 285.718109 196.070663 
L 286.44408 151.50449 
L 287.170052 150.495888 
L 287.896024 177.386749 
L 288.621995 151.654704 
L 289.347967 144.077912 
L 290.073939 184.103885 
L 290.799911 133.482415 
L 291.525882 179.034387 
L 292.251854 129.279537 
L 292.977826 180.778146 
L 293.703797 190.644658 
L 294.429769 182.638674 
L 295.155741 207.834498 
L 295.881712 201.27507 
L 296.607684 224.630428 
L 297.333656 233.553266 
L 298.059628 135.68344 
L 298.785599 194.600918 
L 299.511571 153.21032 
L 300.237543 202.941949 
L 300.963514 197.410904 
L 301.689486 212.020288 
L 302.415458 184.079786 
L 303.14143 162.068872 
L 303.867401 150.926886 
L 304.593373 193.04833 
L 305.319345 155.343417 
L 306.045316 202.101593 
L 306.771288 138.538202 
L 307.49726 162.172184 
L 308.223231 138.982464 
L 308.949203 172.756472 
L 309.675175 136.730635 
L 310.401147 188.895172 
L 311.127118 194.467647 
L 311.85309 205.305585 
L 312.579062 221.202832 
L 313.305033 188.820005 
L 314.031005 231.759165 
L 314.756977 234.222875 
L 315.482948 152.779725 
L 316.20892 227.958789 
L 316.934892 204.554674 
L 317.660864 216.277348 
L 318.386835 213.362516 
L 319.112807 146.842144 
L 319.838779 220.822959 
L 320.56475 197.601598 
L 321.290722 203.543236 
L 322.016694 218.731365 
L 322.742665 226.719754 
L 323.468637 239.938744 
L 324.194609 244.604662 
L 324.920581 234.849267 
L 325.646552 247.996563 
L 326.372524 250.852735 
L 327.098496 223.516031 
L 327.824467 245.863537 
L 328.550439 146.624053 
L 329.276411 226.353434 
L 330.002383 217.97545 
L 330.728354 204.859308 
L 331.454326 226.22556 
L 332.180298 235.689453 
L 332.906269 218.200041 
L 333.632241 148.116617 
L 334.358213 192.160573 
L 335.084184 214.739784 
L 335.810156 218.012182 
L 336.536128 170.899189 
L 337.2621 205.308543 
L 337.988071 207.586978 
L 338.714043 188.424401 
L 339.440015 214.588039 
L 340.165986 223.375527 
L 340.891958 229.40947 
L 341.61793 222.31574 
L 343.069873 244.752626 
L 343.795845 233.283755 
L 344.521817 217.780195 
L 345.247788 229.524478 
L 345.97376 239.41176 
L 346.699732 246.627177 
L 347.425703 256.781061 
L 348.151675 190.871577 
L 348.877647 250.661097 
L 349.603618 128.097223 
L 350.32959 233.51453 
L 351.055562 157.3593 
L 351.781534 216.84301 
L 352.507505 220.409441 
L 353.233477 222.12399 
L 353.959449 198.82884 
L 354.68542 213.546536 
L 355.411392 231.385393 
L 356.137364 211.605566 
L 356.863336 226.355207 
L 357.589307 153.035741 
L 358.315279 230.737775 
L 359.041251 225.685916 
L 360.493194 171.083678 
L 361.219166 225.165341 
L 361.945137 229.830203 
L 362.671109 218.469004 
L 363.397081 219.698979 
L 364.123053 165.475184 
L 364.849024 176.922621 
L 365.574996 170.047985 
L 366.300968 148.839201 
L 367.026939 188.214369 
L 367.752911 199.62938 
L 368.478883 195.47442 
L 369.204854 202.732723 
L 369.930826 172.388409 
L 370.656798 169.17609 
L 371.38277 160.015562 
L 372.108741 174.608067 
L 372.834713 183.961524 
L 373.560685 187.853456 
L 374.286656 164.466146 
L 375.012628 200.211357 
L 375.7386 183.658354 
L 376.464571 209.850752 
L 377.190543 183.69812 
L 377.916515 196.881283 
L 378.642487 171.669705 
L 379.368458 197.173694 
L 380.09443 194.896866 
L 381.546373 199.862729 
L 382.272345 175.916217 
L 382.998317 207.671088 
L 383.724289 213.304315 
L 384.45026 178.189708 
L 385.176232 214.954501 
L 385.902204 199.063721 
L 386.628175 170.031815 
L 387.354147 176.213133 
L 389.532062 147.454005 
L 390.258034 168.536544 
L 390.984006 150.296907 
L 391.709977 172.679988 
L 392.435949 154.970007 
L 393.161921 152.853384 
L 393.887892 149.425424 
L 394.613864 176.056063 
L 395.339836 178.45951 
L 396.065807 165.414733 
L 396.791779 148.271124 
L 397.517751 176.175735 
L 398.243723 144.083396 
L 398.969694 170.316535 
L 399.695666 152.59461 
L 401.147609 142.831565 
L 401.873581 162.695139 
L 402.599553 139.399571 
L 403.325524 140.041604 
L 404.051496 143.670133 
L 404.777468 159.45952 
L 405.50344 142.407986 
L 406.229411 158.570795 
L 406.955383 140.706225 
L 407.681355 164.945247 
L 408.407326 166.488518 
L 409.133298 170.346553 
L 409.85927 149.355836 
L 410.585242 168.376877 
L 411.311213 150.495543 
L 412.037185 146.843709 
L 412.763157 147.534349 
L 413.489128 159.132292 
L 414.2151 139.854787 
L 414.941072 140.358458 
L 415.667043 131.694295 
L 416.393015 130.504571 
L 417.118987 126.516269 
L 417.844959 136.898365 
L 418.57093 128.271086 
L 419.296902 150.153292 
L 420.022874 137.356122 
L 420.748845 133.790323 
L 421.474817 149.090479 
L 422.92676 160.750759 
L 423.652732 169.031222 
L 424.378704 144.085907 
L 425.104676 162.072587 
L 425.830647 147.459195 
L 426.556619 165.423815 
L 427.282591 152.491619 
L 428.008562 151.802799 
L 428.734534 147.855452 
L 429.460506 168.632138 
L 430.186477 149.055307 
L 430.912449 173.173629 
L 431.638421 150.187975 
L 432.364393 170.434393 
L 433.090364 172.291964 
L 433.816336 181.410911 
L 434.542308 160.864173 
L 435.268279 153.546066 
L 435.994251 148.724576 
L 436.720223 162.95419 
L 437.446195 151.051951 
L 438.172166 164.638626 
L 438.898138 154.866376 
L 439.62411 166.585213 
L 440.350081 148.484223 
L 441.076053 151.3268 
L 441.802025 145.079801 
L 442.527996 135.703378 
L 443.253968 145.899896 
L 443.97994 135.306514 
L 444.705912 156.381435 
L 445.431883 145.484423 
L 446.157855 162.553683 
L 446.883827 148.783739 
L 447.609798 158.012614 
L 448.33577 161.78382 
L 449.061742 143.438373 
L 449.787713 154.060161 
L 450.513685 141.914421 
L 451.239657 139.267367 
L 451.965629 138.388115 
L 453.417572 165.891811 
L 454.143544 154.52863 
L 454.869515 164.689174 
L 455.595487 169.529517 
L 456.321459 173.16525 
L 457.04743 160.514253 
L 457.773402 149.892934 
L 459.225346 171.912229 
L 459.951317 162.038224 
L 460.677289 169.145704 
L 461.403261 160.100717 
L 462.129232 158.530715 
L 463.581176 175.764745 
L 464.307148 162.27276 
L 465.033119 155.929478 
L 465.759091 146.086975 
L 465.759091 146.086975 
" style="fill:none;stroke:#ff7f0e;stroke-linecap:square;stroke-width:1.5;"/>
   </g>
   <g id="line2d_3">
    <path clip-path="url(#p78f57b629b)" d="M 59.940909 242.080466 
L 60.666881 236.383736 
L 61.392852 217.209277 
L 62.118824 237.15721 
L 62.844796 208.826859 
L 63.570768 245.893619 
L 64.296739 160.120173 
L 65.022711 203.29879 
L 65.748683 202.14096 
L 67.200626 224.013067 
L 67.926598 221.272962 
L 68.65257 223.345687 
L 69.378541 231.044947 
L 70.104513 232.284895 
L 70.830485 137.882112 
L 71.556456 245.850792 
L 72.282428 149.066599 
L 73.0084 229.584016 
L 73.734371 152.100362 
L 74.460343 201.076393 
L 75.186315 224.602472 
L 75.912287 143.288356 
L 76.638258 226.46895 
L 77.36423 193.340385 
L 78.090202 200.980688 
L 78.816173 213.859733 
L 79.542145 200.335056 
L 80.268117 223.688091 
L 80.994088 206.471921 
L 81.72006 219.153324 
L 82.446032 219.807106 
L 83.172004 143.736377 
L 83.897975 186.837375 
L 84.623947 219.144805 
L 85.349919 222.28913 
L 86.07589 218.001032 
L 86.801862 156.461595 
L 87.527834 228.521178 
L 88.253805 202.975216 
L 88.979777 194.969659 
L 89.705749 202.653331 
L 90.431721 203.720589 
L 91.157692 228.199889 
L 91.883664 157.862086 
L 92.609636 176.366501 
L 93.335607 216.327559 
L 94.061579 143.85942 
L 94.787551 215.546538 
L 95.513523 218.254309 
L 96.239494 186.64245 
L 96.965466 173.698381 
L 97.691438 185.160685 
L 98.417409 179.451643 
L 99.143381 202.131072 
L 99.869353 159.646824 
L 100.595324 181.820026 
L 101.321296 196.156808 
L 102.047268 199.968243 
L 102.77324 193.783494 
L 103.499211 217.829465 
L 104.225183 222.541455 
L 104.951155 226.422292 
L 105.677126 213.506957 
L 106.403098 215.935138 
L 107.12907 237.418777 
L 107.855041 228.129865 
L 108.581013 231.363723 
L 109.306985 216.798591 
L 110.032957 239.738046 
L 110.758928 222.710014 
L 111.4849 247.144924 
L 112.210872 155.416949 
L 112.936843 249.31315 
L 113.662815 185.203685 
L 114.388787 216.713757 
L 115.114758 241.047567 
L 115.84073 234.960882 
L 116.566702 203.91456 
L 117.292674 247.427915 
L 118.018645 197.26207 
L 118.744617 177.211922 
L 119.470589 241.765835 
L 120.19656 233.320064 
L 120.922532 238.140241 
L 121.648504 244.602682 
L 122.374476 244.464085 
L 123.100447 242.971053 
L 123.826419 241.978798 
L 124.552391 242.51079 
L 125.278362 258.402858 
L 126.730306 229.958356 
L 127.456277 244.610619 
L 128.182249 211.720141 
L 128.908221 215.414998 
L 129.634193 241.962561 
L 130.360164 240.170457 
L 131.086136 239.196065 
L 131.812108 235.633093 
L 132.538079 254.828127 
L 133.264051 219.79943 
L 133.990023 251.414364 
L 134.715994 251.80213 
L 135.441966 254.490743 
L 136.167938 253.364565 
L 137.619881 260.4941 
L 138.345853 257.039219 
L 139.071825 257.370155 
L 139.797796 274.017705 
L 140.523768 264.140849 
L 141.24974 234.939285 
L 141.975711 265.088722 
L 142.701683 108.115272 
L 143.427655 247.632692 
L 144.153627 247.844063 
L 144.879598 151.23162 
L 145.60557 242.859306 
L 146.331542 244.678441 
L 147.057513 210.917562 
L 147.783485 244.041786 
L 148.509457 242.17285 
L 149.235429 150.65012 
L 149.9614 236.668219 
L 150.687372 232.295987 
L 152.139315 241.82427 
L 152.865287 217.233569 
L 153.591259 223.774699 
L 154.31723 223.480814 
L 155.043202 220.249341 
L 155.769174 221.943396 
L 156.495146 207.116103 
L 157.947089 241.213974 
L 158.673061 218.272664 
L 159.399032 241.625222 
L 160.125004 243.477365 
L 160.850976 244.663324 
L 161.576947 155.73806 
L 162.302919 253.619083 
L 163.028891 218.132116 
L 163.754863 149.78008 
L 164.480834 207.935928 
L 165.206806 233.291838 
L 165.932778 232.934243 
L 166.658749 243.853782 
L 167.384721 240.675127 
L 168.110693 243.461447 
L 168.836664 235.826491 
L 169.562636 243.161678 
L 170.288608 158.856561 
L 171.01458 247.394941 
L 171.740551 159.627778 
L 172.466523 212.76254 
L 173.192495 172.207295 
L 173.918466 219.812091 
L 174.644438 225.859848 
L 175.37041 192.323384 
L 176.096382 204.509621 
L 176.822353 203.785424 
L 177.548325 220.168064 
L 178.274297 165.25123 
L 179.000268 212.711604 
L 179.72624 161.007094 
L 180.452212 212.621163 
L 181.178183 158.557678 
L 181.904155 216.694538 
L 182.630127 143.317884 
L 183.356099 217.373799 
L 184.08207 214.482513 
L 184.808042 156.586937 
L 185.534014 206.607797 
L 186.259985 200.259859 
L 186.985957 201.804366 
L 187.711929 166.721378 
L 188.4379 185.956363 
L 189.163872 210.972186 
L 189.889844 162.743239 
L 190.615816 196.582615 
L 191.341787 188.253639 
L 192.067759 196.033947 
L 192.793731 160.790351 
L 193.519702 205.947034 
L 194.245674 166.957158 
L 194.971646 178.845709 
L 195.697617 198.207922 
L 196.423589 208.060385 
L 197.149561 200.950109 
L 197.875533 211.472583 
L 198.601504 163.428059 
L 199.327476 181.18184 
L 200.053448 207.625761 
L 200.779419 203.39715 
L 201.505391 166.8965 
L 202.231363 213.442252 
L 202.957335 148.134254 
L 203.683306 214.966454 
L 204.409278 185.359455 
L 205.13525 175.143365 
L 205.861221 180.526674 
L 206.587193 189.423217 
L 207.313165 155.991916 
L 208.039136 204.893757 
L 208.765108 206.054913 
L 209.49108 203.387468 
L 210.217052 215.552363 
L 210.943023 218.396507 
L 211.668995 162.555087 
L 212.394967 219.366912 
L 213.120938 150.948391 
L 213.84691 176.225727 
L 214.572882 195.525692 
L 215.298853 201.450905 
L 216.024825 151.402263 
L 216.750797 210.605098 
L 217.476769 196.098737 
L 218.20274 157.020399 
L 218.928712 210.744383 
L 219.654684 155.444395 
L 220.380655 209.640826 
L 221.106627 189.098551 
L 221.832599 211.610717 
L 222.55857 157.768643 
L 223.284542 217.242261 
L 224.010514 217.710635 
L 224.736486 215.543061 
L 225.462457 216.227753 
L 226.188429 228.087141 
L 226.914401 224.192758 
L 227.640372 231.26856 
L 228.366344 209.380849 
L 229.092316 237.272326 
L 229.818288 156.46703 
L 230.544259 229.474546 
L 231.270231 139.017232 
L 231.996203 232.536611 
L 232.722174 157.645957 
L 233.448146 223.813951 
L 234.174118 221.918915 
L 234.900089 135.578583 
L 235.626061 230.52893 
L 236.352033 213.339716 
L 237.078005 199.056798 
L 237.803976 176.012409 
L 238.529948 184.045178 
L 239.25592 211.537432 
L 239.981891 159.410499 
L 240.707863 208.694175 
L 241.433835 196.199815 
L 242.159806 219.357962 
L 242.885778 162.05527 
L 243.61175 171.02007 
L 244.337722 163.314959 
L 245.063693 189.78247 
L 245.789665 159.783465 
L 246.515637 205.737543 
L 247.241608 204.170982 
L 247.96758 140.489935 
L 248.693552 196.589622 
L 249.419523 199.870452 
L 250.145495 163.914382 
L 250.871467 202.262009 
L 251.597439 141.942311 
L 252.32341 174.317554 
L 253.775354 203.059331 
L 254.501325 202.500391 
L 255.227297 193.656258 
L 256.679241 212.813614 
L 257.405212 149.15186 
L 258.131184 187.954289 
L 259.583127 214.829864 
L 260.309099 142.515941 
L 261.035071 209.720547 
L 261.761042 199.80426 
L 262.487014 176.313177 
L 263.212986 162.79451 
L 263.938958 203.72959 
L 264.664929 158.359404 
L 265.390901 203.838745 
L 266.116873 201.166663 
L 266.842844 214.58501 
L 267.568816 153.385457 
L 268.294788 205.992155 
L 269.020759 197.780243 
L 269.746731 214.929625 
L 270.472703 215.981561 
L 271.198675 215.671044 
L 271.924646 210.94986 
L 272.650618 154.917888 
L 273.37659 208.325122 
L 274.102561 199.606154 
L 274.828533 224.098353 
L 275.554505 202.649508 
L 276.280477 206.488851 
L 277.006448 161.896248 
L 277.73242 212.00714 
L 278.458392 174.407327 
L 279.184363 202.786163 
L 279.910335 198.794195 
L 280.636307 213.537106 
L 281.362278 206.085353 
L 282.08825 221.036407 
L 282.814222 206.086118 
L 283.540194 218.298766 
L 284.266165 206.055567 
L 284.992137 214.582441 
L 285.718109 224.797105 
L 286.44408 222.665349 
L 287.170052 214.30908 
L 287.896024 232.687409 
L 288.621995 209.762644 
L 289.347967 222.186404 
L 290.073939 230.337088 
L 290.799911 232.123604 
L 291.525882 227.38111 
L 292.251854 224.644935 
L 292.977826 217.147471 
L 293.703797 244.610688 
L 294.429769 235.979513 
L 295.155741 241.170981 
L 295.881712 227.552663 
L 296.607684 250.849328 
L 297.333656 246.411562 
L 298.059628 239.379327 
L 298.785599 155.704998 
L 299.511571 220.75805 
L 300.237543 229.00529 
L 300.963514 221.376391 
L 301.689486 224.147917 
L 303.14143 176.168955 
L 303.867401 214.412524 
L 304.593373 220.559729 
L 305.319345 223.945023 
L 306.045316 173.870567 
L 306.771288 220.393434 
L 307.49726 165.26827 
L 308.223231 185.411061 
L 308.949203 201.819835 
L 309.675175 172.578078 
L 310.401147 219.634655 
L 311.127118 202.36512 
L 311.85309 202.122716 
L 312.579062 223.374653 
L 313.305033 164.668466 
L 314.031005 225.62164 
L 314.756977 207.014136 
L 315.482948 219.789033 
L 316.20892 225.534691 
L 316.934892 150.554925 
L 317.660864 228.755826 
L 318.386835 208.737288 
L 319.112807 172.29162 
L 319.838779 218.52927 
L 320.56475 208.191022 
L 321.290722 214.248862 
L 322.016694 198.815235 
L 322.742665 226.363927 
L 323.468637 227.055154 
L 324.194609 225.916962 
L 324.920581 227.828316 
L 325.646552 212.794934 
L 326.372524 235.360129 
L 327.098496 228.014222 
L 327.824467 222.351356 
L 328.550439 230.48439 
L 329.276411 237.240591 
L 330.002383 178.633085 
L 330.728354 208.016564 
L 331.454326 217.278511 
L 332.180298 204.280493 
L 332.906269 179.267401 
L 333.632241 208.511129 
L 334.358213 219.35098 
L 335.084184 181.200269 
L 335.810156 189.588668 
L 336.536128 216.502043 
L 337.2621 153.176224 
L 337.988071 182.23901 
L 338.714043 159.330563 
L 339.440015 173.512164 
L 340.165986 194.560951 
L 340.891958 186.100902 
L 341.61793 161.380022 
L 342.343901 199.043316 
L 343.069873 197.290734 
L 343.795845 197.607632 
L 344.521817 195.047983 
L 345.247788 161.339628 
L 345.97376 198.52804 
L 346.699732 189.26722 
L 347.425703 209.871148 
L 348.151675 188.53559 
L 348.877647 202.697363 
L 349.603618 197.950763 
L 350.32959 168.922122 
L 351.055562 200.897479 
L 351.781534 179.922966 
L 352.507505 205.560574 
L 353.233477 208.076748 
L 353.959449 182.548025 
L 354.68542 206.384538 
L 355.411392 198.393323 
L 356.137364 169.73716 
L 356.863336 211.889506 
L 357.589307 157.112508 
L 358.315279 211.324662 
L 359.041251 205.597721 
L 359.767222 196.928691 
L 360.493194 209.714006 
L 361.219166 216.743065 
L 361.945137 216.782097 
L 362.671109 209.46703 
L 363.397081 220.39806 
L 364.123053 175.718945 
L 364.849024 200.090759 
L 365.574996 203.244424 
L 366.300968 203.226457 
L 367.026939 215.686459 
L 367.752911 217.418732 
L 368.478883 209.947027 
L 369.204854 219.501671 
L 369.930826 219.790009 
L 370.656798 224.454591 
L 371.38277 219.184311 
L 372.108741 205.442825 
L 372.834713 227.412899 
L 374.286656 194.316345 
L 375.012628 189.674342 
L 375.7386 212.218795 
L 376.464571 200.12104 
L 377.190543 170.238259 
L 377.916515 190.370805 
L 378.642487 203.379153 
L 379.368458 203.092697 
L 380.09443 201.673833 
L 380.820402 212.537492 
L 381.546373 186.482994 
L 382.272345 214.671193 
L 382.998317 215.792922 
L 383.724289 207.804781 
L 384.45026 219.988474 
L 385.176232 209.138784 
L 385.902204 217.594323 
L 386.628175 221.026691 
L 387.354147 178.338933 
L 388.080119 221.318573 
L 388.80609 181.641242 
L 389.532062 208.03985 
L 390.258034 197.265073 
L 390.984006 181.6604 
L 391.709977 205.39363 
L 392.435949 205.982655 
L 393.887892 212.633174 
L 394.613864 218.640975 
L 395.339836 213.257212 
L 396.065807 222.456922 
L 396.791779 218.521114 
L 397.517751 220.410787 
L 398.243723 215.558478 
L 398.969694 212.775053 
L 399.695666 192.934323 
L 401.147609 188.980717 
L 401.873581 205.46479 
L 402.599553 202.82212 
L 403.325524 209.762551 
L 404.051496 204.685008 
L 404.777468 176.315689 
L 405.50344 201.620187 
L 406.229411 179.927998 
L 406.955383 199.668951 
L 407.681355 181.017181 
L 408.407326 183.002898 
L 409.133298 196.968845 
L 409.85927 201.097945 
L 410.585242 181.054809 
L 411.311213 179.742473 
L 412.037185 188.189698 
L 412.763157 192.949197 
L 413.489128 174.212857 
L 414.2151 181.736352 
L 415.667043 189.307975 
L 416.393015 188.162817 
L 417.118987 190.732029 
L 417.844959 181.231495 
L 419.296902 193.858902 
L 420.022874 181.158823 
L 420.748845 173.112875 
L 421.474817 183.566603 
L 422.200789 180.765566 
L 422.92676 184.859555 
L 423.652732 177.680817 
L 424.378704 181.568168 
L 425.104676 172.938644 
L 425.830647 168.537864 
L 426.556619 171.426465 
L 427.282591 166.812841 
L 428.008562 163.654515 
L 428.734534 163.652634 
L 429.460506 168.669795 
L 430.186477 160.039164 
L 430.912449 168.231734 
L 431.638421 161.576503 
L 432.364393 167.691831 
L 433.090364 170.809586 
L 433.816336 174.515405 
L 434.542308 169.564884 
L 435.268279 171.213246 
L 435.994251 169.669047 
L 436.720223 169.421586 
L 437.446195 163.141577 
L 438.172166 164.88383 
L 438.898138 159.114437 
L 439.62411 156.777064 
L 440.350081 151.628711 
L 441.076053 155.996603 
L 441.802025 154.890467 
L 442.527996 148.780965 
L 443.253968 143.663862 
L 443.97994 147.95009 
L 444.705912 145.254659 
L 445.431883 148.272572 
L 446.157855 147.559177 
L 446.883827 157.015628 
L 447.609798 148.230744 
L 448.33577 157.648039 
L 449.787713 148.132632 
L 450.513685 150.832909 
L 451.239657 146.168789 
L 451.965629 144.10945 
L 452.6916 144.124895 
L 453.417572 146.969418 
L 454.143544 161.0303 
L 454.869515 147.67715 
L 455.595487 149.108897 
L 456.321459 149.766049 
L 457.04743 152.836313 
L 457.773402 149.873094 
L 458.499374 139.16275 
L 459.225346 152.253059 
L 459.951317 157.581079 
L 460.677289 150.04863 
L 461.403261 149.351763 
L 462.129232 153.426815 
L 462.855204 146.101916 
L 463.581176 156.382028 
L 464.307148 152.739721 
L 465.033119 153.233116 
L 465.759091 156.098538 
L 465.759091 156.098538 
" style="fill:none;stroke:#2ca02c;stroke-linecap:square;stroke-width:1.5;"/>
   </g>
   <g id="line2d_4">
    <path clip-path="url(#p78f57b629b)" d="M 59.940909 249.389528 
L 60.666881 135.184379 
L 61.392852 202.038923 
L 62.118824 204.171266 
L 62.844796 218.551211 
L 63.570768 240.059962 
L 64.296739 238.222038 
L 65.022711 205.099762 
L 65.748683 239.119922 
L 66.474654 141.335962 
L 67.200626 245.298136 
L 67.926598 196.599073 
L 68.65257 215.985703 
L 69.378541 238.695112 
L 70.104513 139.182091 
L 70.830485 237.281351 
L 71.556456 206.800939 
L 72.282428 118.026459 
L 73.0084 239.773706 
L 73.734371 103.576114 
L 74.460343 200.206731 
L 75.186315 223.609663 
L 75.912287 150.425354 
L 76.638258 204.5584 
L 77.36423 216.383886 
L 78.090202 199.359894 
L 78.816173 139.221778 
L 79.542145 171.555146 
L 80.268117 218.194498 
L 80.994088 147.185656 
L 81.72006 157.372335 
L 82.446032 212.212791 
L 83.172004 201.137326 
L 83.897975 192.813321 
L 84.623947 134.567371 
L 85.349919 185.561806 
L 86.07589 211.239704 
L 86.801862 220.280372 
L 87.527834 219.123215 
L 88.253805 225.125705 
L 88.979777 205.555525 
L 89.705749 156.321126 
L 90.431721 219.51836 
L 91.157692 234.115874 
L 91.883664 233.490223 
L 92.609636 111.787646 
L 93.335607 231.722201 
L 94.061579 116.471237 
L 94.787551 220.98379 
L 95.513523 219.999236 
L 96.239494 171.900671 
L 96.965466 210.639408 
L 97.691438 221.071169 
L 98.417409 212.925569 
L 99.143381 219.312743 
L 99.869353 217.879721 
L 100.595324 136.989806 
L 101.321296 185.18181 
L 102.77324 228.024996 
L 103.499211 227.364776 
L 104.225183 143.07086 
L 104.951155 238.253304 
L 105.677126 201.556148 
L 106.403098 146.779557 
L 107.12907 180.790872 
L 107.855041 228.998807 
L 108.581013 215.581155 
L 109.306985 233.013593 
L 110.032957 226.611964 
L 110.758928 137.027919 
L 111.4849 197.485824 
L 112.210872 223.624942 
L 113.662815 238.06216 
L 114.388787 236.674531 
L 115.114758 214.123658 
L 115.84073 215.145918 
L 116.566702 235.059853 
L 117.292674 234.995622 
L 118.018645 130.485848 
L 118.744617 236.954407 
L 119.470589 244.791398 
L 120.19656 245.47253 
L 120.922532 116.500023 
L 121.648504 203.121352 
L 122.374476 167.295143 
L 123.100447 233.397686 
L 123.826419 213.711658 
L 124.552391 207.349104 
L 125.278362 214.77506 
L 126.004334 136.299367 
L 126.730306 186.163885 
L 127.456277 225.312214 
L 128.182249 221.101426 
L 128.908221 139.361919 
L 129.634193 234.711405 
L 130.360164 219.162117 
L 131.086136 190.865555 
L 131.812108 237.192259 
L 132.538079 232.036997 
L 133.264051 131.557055 
L 133.990023 237.854517 
L 134.715994 146.856529 
L 135.441966 222.811368 
L 136.167938 230.651517 
L 136.89391 218.148395 
L 137.619881 237.860585 
L 138.345853 238.479453 
L 139.071825 213.861552 
L 139.797796 245.90725 
L 140.523768 120.598669 
L 141.24974 198.953586 
L 141.975711 234.397125 
L 142.701683 229.724151 
L 144.153627 252.275184 
L 144.879598 225.370039 
L 145.60557 216.142755 
L 146.331542 168.069957 
L 147.057513 234.932723 
L 147.783485 242.518577 
L 148.509457 243.667067 
L 149.235429 222.001112 
L 149.9614 225.584075 
L 150.687372 248.642289 
L 151.413344 235.162021 
L 152.139315 122.310448 
L 152.865287 200.783103 
L 153.591259 236.092807 
L 155.043202 224.514111 
L 155.769174 212.617984 
L 156.495146 212.097446 
L 157.221117 221.384279 
L 157.947089 242.135572 
L 158.673061 209.365964 
L 159.399032 236.066689 
L 160.125004 222.199625 
L 160.850976 242.507428 
L 161.576947 251.638568 
L 162.302919 212.596159 
L 163.028891 246.763694 
L 163.754863 231.533742 
L 164.480834 133.762454 
L 165.206806 244.172443 
L 165.932778 226.767775 
L 166.658749 246.076879 
L 167.384721 235.66773 
L 168.110693 256.947297 
L 168.836664 249.228031 
L 169.562636 258.313981 
L 170.288608 245.346786 
L 171.01458 159.445884 
L 171.740551 249.451325 
L 172.466523 111.586284 
L 173.192495 250.630843 
L 173.918466 239.727953 
L 174.644438 238.595122 
L 175.37041 201.842069 
L 176.096382 215.913709 
L 176.822353 225.91213 
L 177.548325 217.032519 
L 178.274297 243.007481 
L 179.000268 235.37557 
L 179.72624 217.345625 
L 180.452212 241.848155 
L 181.178183 177.539802 
L 181.904155 176.546733 
L 182.630127 160.510866 
L 183.356099 236.826506 
L 184.08207 226.421783 
L 184.808042 117.201484 
L 185.534014 229.394955 
L 186.259985 228.723965 
L 186.985957 209.143299 
L 187.711929 234.237656 
L 188.4379 238.834894 
L 189.163872 235.580499 
L 189.889844 212.054553 
L 190.615816 154.448667 
L 191.341787 239.859849 
L 192.067759 154.581066 
L 192.793731 178.118347 
L 193.519702 212.291303 
L 194.245674 153.145279 
L 196.423589 229.60651 
L 197.149561 219.011519 
L 197.875533 219.996457 
L 198.601504 157.049835 
L 199.327476 175.831668 
L 200.053448 205.963495 
L 200.779419 214.98674 
L 201.505391 137.682432 
L 202.231363 173.58974 
L 202.957335 137.743274 
L 203.683306 202.344843 
L 204.409278 201.955727 
L 205.13525 149.919394 
L 205.861221 177.683225 
L 206.587193 199.622753 
L 207.313165 155.960416 
L 208.039136 214.002532 
L 208.765108 205.32963 
L 209.49108 210.911219 
L 210.217052 220.822491 
L 210.943023 158.4056 
L 211.668995 231.077578 
L 212.394967 230.803043 
L 213.120938 207.780735 
L 213.84691 172.378533 
L 214.572882 180.96741 
L 215.298853 236.044192 
L 216.024825 228.935359 
L 216.750797 207.764378 
L 217.476769 226.651885 
L 218.20274 216.207871 
L 218.928712 220.518227 
L 219.654684 191.453734 
L 220.380655 226.938845 
L 221.106627 228.424889 
L 221.832599 213.626672 
L 222.55857 232.910916 
L 223.284542 224.426365 
L 224.010514 165.433702 
L 224.736486 241.805168 
L 225.462457 239.496436 
L 226.188429 203.986327 
L 226.914401 176.405776 
L 227.640372 235.319726 
L 228.366344 208.516715 
L 229.092316 218.830092 
L 229.818288 235.657439 
L 230.544259 206.715081 
L 231.270231 215.610045 
L 231.996203 151.899369 
L 232.722174 220.995673 
L 233.448146 212.048699 
L 234.174118 242.653926 
L 234.900089 203.470304 
L 235.626061 234.69086 
L 236.352033 208.296069 
L 237.078005 235.178023 
L 237.803976 226.513221 
L 238.529948 206.171896 
L 239.25592 229.459744 
L 239.981891 143.962713 
L 240.707863 208.940514 
L 241.433835 213.519006 
L 242.159806 237.614665 
L 242.885778 214.106715 
L 243.61175 220.672882 
L 244.337722 199.626049 
L 245.063693 235.69219 
L 245.789665 100.030253 
L 246.515637 230.343687 
L 247.241608 226.116079 
L 247.96758 125.267009 
L 248.693552 214.85682 
L 249.419523 213.871729 
L 250.145495 155.919889 
L 250.871467 215.083714 
L 251.597439 132.704345 
L 252.32341 179.332065 
L 253.049382 196.707372 
L 253.775354 209.561734 
L 254.501325 208.008765 
L 255.227297 202.962647 
L 255.953269 158.495561 
L 256.679241 172.599049 
L 257.405212 212.395517 
L 258.131184 199.20655 
L 258.857156 147.539975 
L 259.583127 223.099576 
L 260.309099 128.062979 
L 261.035071 179.807684 
L 261.761042 192.703714 
L 262.487014 151.041868 
L 263.212986 170.7887 
L 263.938958 206.189006 
L 264.664929 146.670078 
L 265.390901 194.228956 
L 266.116873 192.346982 
L 266.842844 214.414946 
L 267.568816 142.624427 
L 268.294788 217.242828 
L 269.020759 200.425506 
L 269.746731 186.280997 
L 270.472703 218.34806 
L 271.198675 202.270569 
L 271.924646 205.679345 
L 272.650618 211.240115 
L 273.37659 206.237492 
L 274.102561 162.696333 
L 274.828533 187.456074 
L 275.554505 199.591608 
L 276.280477 213.862615 
L 277.006448 203.051947 
L 277.73242 203.185104 
L 278.458392 218.719334 
L 279.184363 221.345454 
L 279.910335 212.701241 
L 280.636307 235.692115 
L 282.08825 180.289196 
L 282.814222 219.66812 
L 283.540194 152.383003 
L 284.266165 207.534548 
L 284.992137 199.656804 
L 285.718109 174.614268 
L 286.44408 215.12942 
L 287.170052 137.10233 
L 287.896024 189.715702 
L 288.621995 173.91947 
L 289.347967 208.11267 
L 290.073939 212.864389 
L 290.799911 216.715898 
L 291.525882 219.237035 
L 292.251854 226.039873 
L 292.977826 214.280861 
L 293.703797 231.372102 
L 294.429769 215.550378 
L 295.155741 231.406714 
L 295.881712 218.055316 
L 296.607684 233.628715 
L 297.333656 235.86403 
L 298.059628 238.744277 
L 298.785599 240.953178 
L 299.511571 247.601359 
L 300.237543 222.510659 
L 300.963514 241.910124 
L 301.689486 145.169416 
L 302.415458 244.85224 
L 303.14143 216.361437 
L 304.593373 248.730924 
L 305.319345 244.12895 
L 306.771288 176.415151 
L 307.49726 212.26338 
L 308.223231 135.92369 
L 308.949203 189.56473 
L 309.675175 175.192623 
L 310.401147 226.737656 
L 311.127118 218.958195 
L 311.85309 227.218267 
L 312.579062 219.818068 
L 313.305033 215.157785 
L 314.031005 217.998039 
L 314.756977 228.552768 
L 315.482948 231.623034 
L 316.20892 233.419855 
L 316.934892 215.348854 
L 317.660864 223.061231 
L 318.386835 147.694363 
L 319.112807 234.634786 
L 319.838779 230.164478 
L 320.56475 222.845225 
L 321.290722 210.600499 
L 322.016694 236.055646 
L 322.742665 154.020279 
L 323.468637 191.738243 
L 324.194609 218.64202 
L 324.920581 229.372047 
L 325.646552 234.173569 
L 326.372524 170.130615 
L 327.098496 178.540396 
L 327.824467 183.002269 
L 328.550439 223.594968 
L 329.276411 192.075913 
L 330.002383 218.426132 
L 330.728354 135.288995 
L 331.454326 216.067678 
L 332.180298 215.636245 
L 332.906269 167.686513 
L 333.632241 223.061934 
L 334.358213 205.16288 
L 335.084184 162.681598 
L 335.810156 180.901924 
L 336.536128 208.429593 
L 337.2621 151.66215 
L 337.988071 174.67023 
L 338.714043 156.819276 
L 339.440015 170.775302 
L 340.165986 205.075588 
L 340.891958 192.757272 
L 341.61793 152.336799 
L 342.343901 175.675217 
L 343.069873 208.052422 
L 343.795845 196.568194 
L 344.521817 149.297153 
L 345.247788 210.792198 
L 346.699732 148.671363 
L 347.425703 215.335122 
L 348.151675 120.932326 
L 348.877647 203.50653 
L 349.603618 132.908165 
L 350.32959 164.826247 
L 351.055562 160.989809 
L 351.781534 164.5331 
L 352.507505 188.09921 
L 353.233477 188.308843 
L 353.959449 157.357287 
L 354.68542 192.887647 
L 355.411392 201.074375 
L 356.137364 139.309957 
L 356.863336 195.307047 
L 357.589307 151.353022 
L 358.315279 204.441807 
L 359.041251 189.140275 
L 359.767222 188.958276 
L 360.493194 184.587842 
L 361.219166 208.020762 
L 361.945137 212.344563 
L 362.671109 155.821131 
L 363.397081 168.685295 
L 364.123053 208.874339 
L 364.849024 167.643275 
L 365.574996 156.917493 
L 366.300968 168.011669 
L 367.026939 199.102589 
L 367.752911 193.673595 
L 368.478883 190.691232 
L 369.204854 199.315588 
L 369.930826 158.791211 
L 370.656798 195.907914 
L 371.38277 150.795328 
L 372.108741 165.024376 
L 372.834713 192.567644 
L 373.560685 158.652238 
L 374.286656 200.923299 
L 375.012628 196.675503 
L 375.7386 163.949301 
L 376.464571 158.79563 
L 377.190543 161.402746 
L 377.916515 196.197401 
L 378.642487 185.990785 
L 379.368458 150.985748 
L 380.09443 192.906043 
L 380.820402 188.217983 
L 381.546373 189.267894 
L 382.272345 200.347005 
L 382.998317 190.700974 
L 383.724289 209.69436 
L 384.45026 196.411517 
L 385.176232 174.962804 
L 385.902204 204.181995 
L 386.628175 190.589978 
L 387.354147 164.289928 
L 388.080119 200.195129 
L 388.80609 165.278762 
L 389.532062 190.332123 
L 390.258034 193.915926 
L 390.984006 157.115982 
L 391.709977 172.62563 
L 392.435949 195.045476 
L 393.161921 192.256051 
L 393.887892 186.170164 
L 394.613864 204.369833 
L 395.339836 203.078844 
L 396.065807 174.967354 
L 396.791779 174.213059 
L 397.517751 200.675925 
L 398.243723 200.307969 
L 398.969694 199.230901 
L 399.695666 203.922127 
L 400.421638 206.306776 
L 401.147609 193.263233 
L 401.873581 215.383433 
L 402.599553 202.90646 
L 403.325524 179.215319 
L 404.051496 219.466976 
L 404.777468 205.05376 
L 405.50344 211.364783 
L 406.229411 213.458245 
L 406.955383 217.993498 
L 407.681355 218.643093 
L 408.407326 214.880351 
L 409.133298 215.676577 
L 409.85927 179.104976 
L 410.585242 216.454534 
L 411.311213 169.152701 
L 412.037185 214.452261 
L 412.763157 213.330957 
L 413.489128 170.440467 
L 414.2151 212.263328 
L 414.941072 211.218252 
L 415.667043 203.891672 
L 416.393015 213.352589 
L 417.118987 218.807911 
L 417.844959 178.650015 
L 418.57093 210.944343 
L 419.296902 208.827697 
L 420.022874 168.133199 
L 420.748845 205.344467 
L 421.474817 199.022497 
L 422.200789 207.218166 
L 422.92676 166.522609 
L 423.652732 175.336121 
L 424.378704 167.052042 
L 425.104676 163.133661 
L 425.830647 164.470685 
L 426.556619 182.719281 
L 427.282591 163.829195 
L 428.008562 164.101278 
L 428.734534 158.226165 
L 429.460506 177.261584 
L 430.186477 157.248419 
L 430.912449 174.485281 
L 431.638421 157.623729 
L 432.364393 182.113616 
L 433.090364 179.733444 
L 433.816336 184.332794 
L 434.542308 156.909538 
L 435.268279 160.914983 
L 435.994251 161.423312 
L 436.720223 176.349978 
L 437.446195 157.818512 
L 438.172166 173.186613 
L 438.898138 160.028186 
L 439.62411 173.560878 
L 440.350081 153.295085 
L 441.076053 158.521873 
L 441.802025 154.672354 
L 442.527996 146.268276 
L 443.253968 163.438705 
L 443.97994 146.301122 
L 444.705912 164.356039 
L 445.431883 154.033458 
L 446.157855 172.366937 
L 446.883827 148.994286 
L 447.609798 169.591758 
L 448.33577 164.882388 
L 449.061742 148.924168 
L 450.513685 142.30144 
L 451.239657 151.718542 
L 451.965629 143.22491 
L 452.6916 146.463154 
L 453.417572 158.894544 
L 454.143544 149.524094 
L 454.869515 156.399325 
L 455.595487 156.771073 
L 456.321459 159.93376 
L 457.04743 149.767198 
L 457.773402 145.973018 
L 458.499374 157.141115 
L 459.225346 162.523991 
L 459.951317 149.605053 
L 460.677289 150.666408 
L 461.403261 146.169387 
L 462.129232 158.253171 
L 462.855204 156.017732 
L 463.581176 147.746145 
L 464.307148 146.585473 
L 465.033119 142.210386 
L 465.759091 139.251987 
L 465.759091 139.251987 
" style="fill:none;stroke:#000000;stroke-dasharray:3.7,1.6;stroke-dashoffset:0;"/>
   </g>
   <g id="matplotlib.axis_1">
    <g id="xtick_1">
     <g id="line2d_5">
      <defs>
       <path d="M 0 0 
L 0 3.5 
" id="m259872c071" style="stroke:#000000;stroke-width:0.8;"/>
      </defs>
      <g>
       <use style="stroke:#000000;stroke-width:0.8;" x="80.994088" xlink:href="#m259872c071" y="294.118125"/>
      </g>
     </g>
     <g id="text_1">
      <!-- 100 -->
      <defs>
       <path d="M 12.40625 8.296875 
L 28.515625 8.296875 
L 28.515625 63.921875 
L 10.984375 60.40625 
L 10.984375 69.390625 
L 28.421875 72.90625 
L 38.28125 72.90625 
L 38.28125 8.296875 
L 54.390625 8.296875 
L 54.390625 0 
L 12.40625 0 
z
" id="DejaVuSans-49"/>
       <path d="M 31.78125 66.40625 
Q 24.171875 66.40625 20.328125 58.90625 
Q 16.5 51.421875 16.5 36.375 
Q 16.5 21.390625 20.328125 13.890625 
Q 24.171875 6.390625 31.78125 6.390625 
Q 39.453125 6.390625 43.28125 13.890625 
Q 47.125 21.390625 47.125 36.375 
Q 47.125 51.421875 43.28125 58.90625 
Q 39.453125 66.40625 31.78125 66.40625 
z
M 31.78125 74.21875 
Q 44.046875 74.21875 50.515625 64.515625 
Q 56.984375 54.828125 56.984375 36.375 
Q 56.984375 17.96875 50.515625 8.265625 
Q 44.046875 -1.421875 31.78125 -1.421875 
Q 19.53125 -1.421875 13.0625 8.265625 
Q 6.59375 17.96875 6.59375 36.375 
Q 6.59375 54.828125 13.0625 64.515625 
Q 19.53125 74.21875 31.78125 74.21875 
z
" id="DejaVuSans-48"/>
      </defs>
      <g transform="translate(71.450338 308.716563)scale(0.1 -0.1)">
       <use xlink:href="#DejaVuSans-49"/>
       <use x="63.623047" xlink:href="#DejaVuSans-48"/>
       <use x="127.246094" xlink:href="#DejaVuSans-48"/>
      </g>
     </g>
    </g>
    <g id="xtick_2">
     <g id="line2d_6">
      <g>
       <use style="stroke:#000000;stroke-width:0.8;" x="153.591259" xlink:href="#m259872c071" y="294.118125"/>
      </g>
     </g>
     <g id="text_2">
      <!-- 200 -->
      <defs>
       <path d="M 19.1875 8.296875 
L 53.609375 8.296875 
L 53.609375 0 
L 7.328125 0 
L 7.328125 8.296875 
Q 12.9375 14.109375 22.625 23.890625 
Q 32.328125 33.6875 34.8125 36.53125 
Q 39.546875 41.84375 41.421875 45.53125 
Q 43.3125 49.21875 43.3125 52.78125 
Q 43.3125 58.59375 39.234375 62.25 
Q 35.15625 65.921875 28.609375 65.921875 
Q 23.96875 65.921875 18.8125 64.3125 
Q 13.671875 62.703125 7.8125 59.421875 
L 7.8125 69.390625 
Q 13.765625 71.78125 18.9375 73 
Q 24.125 74.21875 28.421875 74.21875 
Q 39.75 74.21875 46.484375 68.546875 
Q 53.21875 62.890625 53.21875 53.421875 
Q 53.21875 48.921875 51.53125 44.890625 
Q 49.859375 40.875 45.40625 35.40625 
Q 44.1875 33.984375 37.640625 27.21875 
Q 31.109375 20.453125 19.1875 8.296875 
z
" id="DejaVuSans-50"/>
      </defs>
      <g transform="translate(144.047509 308.716563)scale(0.1 -0.1)">
       <use xlink:href="#DejaVuSans-50"/>
       <use x="63.623047" xlink:href="#DejaVuSans-48"/>
       <use x="127.246094" xlink:href="#DejaVuSans-48"/>
      </g>
     </g>
    </g>
    <g id="xtick_3">
     <g id="line2d_7">
      <g>
       <use style="stroke:#000000;stroke-width:0.8;" x="226.188429" xlink:href="#m259872c071" y="294.118125"/>
      </g>
     </g>
     <g id="text_3">
      <!-- 300 -->
      <defs>
       <path d="M 40.578125 39.3125 
Q 47.65625 37.796875 51.625 33 
Q 55.609375 28.21875 55.609375 21.1875 
Q 55.609375 10.40625 48.1875 4.484375 
Q 40.765625 -1.421875 27.09375 -1.421875 
Q 22.515625 -1.421875 17.65625 -0.515625 
Q 12.796875 0.390625 7.625 2.203125 
L 7.625 11.71875 
Q 11.71875 9.328125 16.59375 8.109375 
Q 21.484375 6.890625 26.8125 6.890625 
Q 36.078125 6.890625 40.9375 10.546875 
Q 45.796875 14.203125 45.796875 21.1875 
Q 45.796875 27.640625 41.28125 31.265625 
Q 36.765625 34.90625 28.71875 34.90625 
L 20.21875 34.90625 
L 20.21875 43.015625 
L 29.109375 43.015625 
Q 36.375 43.015625 40.234375 45.921875 
Q 44.09375 48.828125 44.09375 54.296875 
Q 44.09375 59.90625 40.109375 62.90625 
Q 36.140625 65.921875 28.71875 65.921875 
Q 24.65625 65.921875 20.015625 65.03125 
Q 15.375 64.15625 9.8125 62.3125 
L 9.8125 71.09375 
Q 15.4375 72.65625 20.34375 73.4375 
Q 25.25 74.21875 29.59375 74.21875 
Q 40.828125 74.21875 47.359375 69.109375 
Q 53.90625 64.015625 53.90625 55.328125 
Q 53.90625 49.265625 50.4375 45.09375 
Q 46.96875 40.921875 40.578125 39.3125 
z
" id="DejaVuSans-51"/>
      </defs>
      <g transform="translate(216.644679 308.716563)scale(0.1 -0.1)">
       <use xlink:href="#DejaVuSans-51"/>
       <use x="63.623047" xlink:href="#DejaVuSans-48"/>
       <use x="127.246094" xlink:href="#DejaVuSans-48"/>
      </g>
     </g>
    </g>
    <g id="xtick_4">
     <g id="line2d_8">
      <g>
       <use style="stroke:#000000;stroke-width:0.8;" x="298.785599" xlink:href="#m259872c071" y="294.118125"/>
      </g>
     </g>
     <g id="text_4">
      <!-- 400 -->
      <defs>
       <path d="M 37.796875 64.3125 
L 12.890625 25.390625 
L 37.796875 25.390625 
z
M 35.203125 72.90625 
L 47.609375 72.90625 
L 47.609375 25.390625 
L 58.015625 25.390625 
L 58.015625 17.1875 
L 47.609375 17.1875 
L 47.609375 0 
L 37.796875 0 
L 37.796875 17.1875 
L 4.890625 17.1875 
L 4.890625 26.703125 
z
" id="DejaVuSans-52"/>
      </defs>
      <g transform="translate(289.241849 308.716563)scale(0.1 -0.1)">
       <use xlink:href="#DejaVuSans-52"/>
       <use x="63.623047" xlink:href="#DejaVuSans-48"/>
       <use x="127.246094" xlink:href="#DejaVuSans-48"/>
      </g>
     </g>
    </g>
    <g id="xtick_5">
     <g id="line2d_9">
      <g>
       <use style="stroke:#000000;stroke-width:0.8;" x="371.38277" xlink:href="#m259872c071" y="294.118125"/>
      </g>
     </g>
     <g id="text_5">
      <!-- 500 -->
      <defs>
       <path d="M 10.796875 72.90625 
L 49.515625 72.90625 
L 49.515625 64.59375 
L 19.828125 64.59375 
L 19.828125 46.734375 
Q 21.96875 47.46875 24.109375 47.828125 
Q 26.265625 48.1875 28.421875 48.1875 
Q 40.625 48.1875 47.75 41.5 
Q 54.890625 34.8125 54.890625 23.390625 
Q 54.890625 11.625 47.5625 5.09375 
Q 40.234375 -1.421875 26.90625 -1.421875 
Q 22.3125 -1.421875 17.546875 -0.640625 
Q 12.796875 0.140625 7.71875 1.703125 
L 7.71875 11.625 
Q 12.109375 9.234375 16.796875 8.0625 
Q 21.484375 6.890625 26.703125 6.890625 
Q 35.15625 6.890625 40.078125 11.328125 
Q 45.015625 15.765625 45.015625 23.390625 
Q 45.015625 31 40.078125 35.4375 
Q 35.15625 39.890625 26.703125 39.890625 
Q 22.75 39.890625 18.8125 39.015625 
Q 14.890625 38.140625 10.796875 36.28125 
z
" id="DejaVuSans-53"/>
      </defs>
      <g transform="translate(361.83902 308.716563)scale(0.1 -0.1)">
       <use xlink:href="#DejaVuSans-53"/>
       <use x="63.623047" xlink:href="#DejaVuSans-48"/>
       <use x="127.246094" xlink:href="#DejaVuSans-48"/>
      </g>
     </g>
    </g>
    <g id="xtick_6">
     <g id="line2d_10">
      <g>
       <use style="stroke:#000000;stroke-width:0.8;" x="443.97994" xlink:href="#m259872c071" y="294.118125"/>
      </g>
     </g>
     <g id="text_6">
      <!-- 600 -->
      <defs>
       <path d="M 33.015625 40.375 
Q 26.375 40.375 22.484375 35.828125 
Q 18.609375 31.296875 18.609375 23.390625 
Q 18.609375 15.53125 22.484375 10.953125 
Q 26.375 6.390625 33.015625 6.390625 
Q 39.65625 6.390625 43.53125 10.953125 
Q 47.40625 15.53125 47.40625 23.390625 
Q 47.40625 31.296875 43.53125 35.828125 
Q 39.65625 40.375 33.015625 40.375 
z
M 52.59375 71.296875 
L 52.59375 62.3125 
Q 48.875 64.0625 45.09375 64.984375 
Q 41.3125 65.921875 37.59375 65.921875 
Q 27.828125 65.921875 22.671875 59.328125 
Q 17.53125 52.734375 16.796875 39.40625 
Q 19.671875 43.65625 24.015625 45.921875 
Q 28.375 48.1875 33.59375 48.1875 
Q 44.578125 48.1875 50.953125 41.515625 
Q 57.328125 34.859375 57.328125 23.390625 
Q 57.328125 12.15625 50.6875 5.359375 
Q 44.046875 -1.421875 33.015625 -1.421875 
Q 20.359375 -1.421875 13.671875 8.265625 
Q 6.984375 17.96875 6.984375 36.375 
Q 6.984375 53.65625 15.1875 63.9375 
Q 23.390625 74.21875 37.203125 74.21875 
Q 40.921875 74.21875 44.703125 73.484375 
Q 48.484375 72.75 52.59375 71.296875 
z
" id="DejaVuSans-54"/>
      </defs>
      <g transform="translate(434.43619 308.716563)scale(0.1 -0.1)">
       <use xlink:href="#DejaVuSans-54"/>
       <use x="63.623047" xlink:href="#DejaVuSans-48"/>
       <use x="127.246094" xlink:href="#DejaVuSans-48"/>
      </g>
     </g>
    </g>
    <g id="text_7">
     <!-- Tempo -->
     <defs>
      <path d="M -0.296875 72.90625 
L 61.375 72.90625 
L 61.375 64.59375 
L 35.5 64.59375 
L 35.5 0 
L 25.59375 0 
L 25.59375 64.59375 
L -0.296875 64.59375 
z
" id="DejaVuSans-84"/>
      <path d="M 56.203125 29.59375 
L 56.203125 25.203125 
L 14.890625 25.203125 
Q 15.484375 15.921875 20.484375 11.0625 
Q 25.484375 6.203125 34.421875 6.203125 
Q 39.59375 6.203125 44.453125 7.46875 
Q 49.3125 8.734375 54.109375 11.28125 
L 54.109375 2.78125 
Q 49.265625 0.734375 44.1875 -0.34375 
Q 39.109375 -1.421875 33.890625 -1.421875 
Q 20.796875 -1.421875 13.15625 6.1875 
Q 5.515625 13.8125 5.515625 26.8125 
Q 5.515625 40.234375 12.765625 48.109375 
Q 20.015625 56 32.328125 56 
Q 43.359375 56 49.78125 48.890625 
Q 56.203125 41.796875 56.203125 29.59375 
z
M 47.21875 32.234375 
Q 47.125 39.59375 43.09375 43.984375 
Q 39.0625 48.390625 32.421875 48.390625 
Q 24.90625 48.390625 20.390625 44.140625 
Q 15.875 39.890625 15.1875 32.171875 
z
" id="DejaVuSans-101"/>
      <path d="M 52 44.1875 
Q 55.375 50.25 60.0625 53.125 
Q 64.75 56 71.09375 56 
Q 79.640625 56 84.28125 50.015625 
Q 88.921875 44.046875 88.921875 33.015625 
L 88.921875 0 
L 79.890625 0 
L 79.890625 32.71875 
Q 79.890625 40.578125 77.09375 44.375 
Q 74.3125 48.1875 68.609375 48.1875 
Q 61.625 48.1875 57.5625 43.546875 
Q 53.515625 38.921875 53.515625 30.90625 
L 53.515625 0 
L 44.484375 0 
L 44.484375 32.71875 
Q 44.484375 40.625 41.703125 44.40625 
Q 38.921875 48.1875 33.109375 48.1875 
Q 26.21875 48.1875 22.15625 43.53125 
Q 18.109375 38.875 18.109375 30.90625 
L 18.109375 0 
L 9.078125 0 
L 9.078125 54.6875 
L 18.109375 54.6875 
L 18.109375 46.1875 
Q 21.1875 51.21875 25.484375 53.609375 
Q 29.78125 56 35.6875 56 
Q 41.65625 56 45.828125 52.96875 
Q 50 49.953125 52 44.1875 
z
" id="DejaVuSans-109"/>
      <path d="M 18.109375 8.203125 
L 18.109375 -20.796875 
L 9.078125 -20.796875 
L 9.078125 54.6875 
L 18.109375 54.6875 
L 18.109375 46.390625 
Q 20.953125 51.265625 25.265625 53.625 
Q 29.59375 56 35.59375 56 
Q 45.5625 56 51.78125 48.09375 
Q 58.015625 40.1875 58.015625 27.296875 
Q 58.015625 14.40625 51.78125 6.484375 
Q 45.5625 -1.421875 35.59375 -1.421875 
Q 29.59375 -1.421875 25.265625 0.953125 
Q 20.953125 3.328125 18.109375 8.203125 
z
M 48.6875 27.296875 
Q 48.6875 37.203125 44.609375 42.84375 
Q 40.53125 48.484375 33.40625 48.484375 
Q 26.265625 48.484375 22.1875 42.84375 
Q 18.109375 37.203125 18.109375 27.296875 
Q 18.109375 17.390625 22.1875 11.75 
Q 26.265625 6.109375 33.40625 6.109375 
Q 40.53125 6.109375 44.609375 11.75 
Q 48.6875 17.390625 48.6875 27.296875 
z
" id="DejaVuSans-112"/>
      <path d="M 30.609375 48.390625 
Q 23.390625 48.390625 19.1875 42.75 
Q 14.984375 37.109375 14.984375 27.296875 
Q 14.984375 17.484375 19.15625 11.84375 
Q 23.34375 6.203125 30.609375 6.203125 
Q 37.796875 6.203125 41.984375 11.859375 
Q 46.1875 17.53125 46.1875 27.296875 
Q 46.1875 37.015625 41.984375 42.703125 
Q 37.796875 48.390625 30.609375 48.390625 
z
M 30.609375 56 
Q 42.328125 56 49.015625 48.375 
Q 55.71875 40.765625 55.71875 27.296875 
Q 55.71875 13.875 49.015625 6.21875 
Q 42.328125 -1.421875 30.609375 -1.421875 
Q 18.84375 -1.421875 12.171875 6.21875 
Q 5.515625 13.875 5.515625 27.296875 
Q 5.515625 40.765625 12.171875 48.375 
Q 18.84375 56 30.609375 56 
z
" id="DejaVuSans-111"/>
     </defs>
     <g transform="translate(246.465625 322.394687)scale(0.1 -0.1)">
      <use xlink:href="#DejaVuSans-84"/>
      <use x="44.083984" xlink:href="#DejaVuSans-101"/>
      <use x="105.607422" xlink:href="#DejaVuSans-109"/>
      <use x="203.019531" xlink:href="#DejaVuSans-112"/>
      <use x="266.496094" xlink:href="#DejaVuSans-111"/>
     </g>
    </g>
   </g>
   <g id="matplotlib.axis_2">
    <g id="ytick_1">
     <g id="line2d_11">
      <defs>
       <path d="M 0 0 
L -3.5 0 
" id="m59dd8fbf22" style="stroke:#000000;stroke-width:0.8;"/>
      </defs>
      <g>
       <use style="stroke:#000000;stroke-width:0.8;" x="39.65" xlink:href="#m59dd8fbf22" y="278.070977"/>
      </g>
     </g>
     <g id="text_8">
      <!-- 500 -->
      <g transform="translate(13.5625 281.870196)scale(0.1 -0.1)">
       <use xlink:href="#DejaVuSans-53"/>
       <use x="63.623047" xlink:href="#DejaVuSans-48"/>
       <use x="127.246094" xlink:href="#DejaVuSans-48"/>
      </g>
     </g>
    </g>
    <g id="ytick_2">
     <g id="line2d_12">
      <g>
       <use style="stroke:#000000;stroke-width:0.8;" x="39.65" xlink:href="#m59dd8fbf22" y="246.410589"/>
      </g>
     </g>
     <g id="text_9">
      <!-- 750 -->
      <defs>
       <path d="M 8.203125 72.90625 
L 55.078125 72.90625 
L 55.078125 68.703125 
L 28.609375 0 
L 18.3125 0 
L 43.21875 64.59375 
L 8.203125 64.59375 
z
" id="DejaVuSans-55"/>
      </defs>
      <g transform="translate(13.5625 250.209808)scale(0.1 -0.1)">
       <use xlink:href="#DejaVuSans-55"/>
       <use x="63.623047" xlink:href="#DejaVuSans-53"/>
       <use x="127.246094" xlink:href="#DejaVuSans-48"/>
      </g>
     </g>
    </g>
    <g id="ytick_3">
     <g id="line2d_13">
      <g>
       <use style="stroke:#000000;stroke-width:0.8;" x="39.65" xlink:href="#m59dd8fbf22" y="214.750202"/>
      </g>
     </g>
     <g id="text_10">
      <!-- 1000 -->
      <g transform="translate(7.2 218.54942)scale(0.1 -0.1)">
       <use xlink:href="#DejaVuSans-49"/>
       <use x="63.623047" xlink:href="#DejaVuSans-48"/>
       <use x="127.246094" xlink:href="#DejaVuSans-48"/>
       <use x="190.869141" xlink:href="#DejaVuSans-48"/>
      </g>
     </g>
    </g>
    <g id="ytick_4">
     <g id="line2d_14">
      <g>
       <use style="stroke:#000000;stroke-width:0.8;" x="39.65" xlink:href="#m59dd8fbf22" y="183.089814"/>
      </g>
     </g>
     <g id="text_11">
      <!-- 1250 -->
      <g transform="translate(7.2 186.889033)scale(0.1 -0.1)">
       <use xlink:href="#DejaVuSans-49"/>
       <use x="63.623047" xlink:href="#DejaVuSans-50"/>
       <use x="127.246094" xlink:href="#DejaVuSans-53"/>
       <use x="190.869141" xlink:href="#DejaVuSans-48"/>
      </g>
     </g>
    </g>
    <g id="ytick_5">
     <g id="line2d_15">
      <g>
       <use style="stroke:#000000;stroke-width:0.8;" x="39.65" xlink:href="#m59dd8fbf22" y="151.429427"/>
      </g>
     </g>
     <g id="text_12">
      <!-- 1500 -->
      <g transform="translate(7.2 155.228645)scale(0.1 -0.1)">
       <use xlink:href="#DejaVuSans-49"/>
       <use x="63.623047" xlink:href="#DejaVuSans-53"/>
       <use x="127.246094" xlink:href="#DejaVuSans-48"/>
       <use x="190.869141" xlink:href="#DejaVuSans-48"/>
      </g>
     </g>
    </g>
    <g id="ytick_6">
     <g id="line2d_16">
      <g>
       <use style="stroke:#000000;stroke-width:0.8;" x="39.65" xlink:href="#m59dd8fbf22" y="119.769039"/>
      </g>
     </g>
     <g id="text_13">
      <!-- 1750 -->
      <g transform="translate(7.2 123.568258)scale(0.1 -0.1)">
       <use xlink:href="#DejaVuSans-49"/>
       <use x="63.623047" xlink:href="#DejaVuSans-55"/>
       <use x="127.246094" xlink:href="#DejaVuSans-53"/>
       <use x="190.869141" xlink:href="#DejaVuSans-48"/>
      </g>
     </g>
    </g>
    <g id="ytick_7">
     <g id="line2d_17">
      <g>
       <use style="stroke:#000000;stroke-width:0.8;" x="39.65" xlink:href="#m59dd8fbf22" y="88.108652"/>
      </g>
     </g>
     <g id="text_14">
      <!-- 2000 -->
      <g transform="translate(7.2 91.90787)scale(0.1 -0.1)">
       <use xlink:href="#DejaVuSans-50"/>
       <use x="63.623047" xlink:href="#DejaVuSans-48"/>
       <use x="127.246094" xlink:href="#DejaVuSans-48"/>
       <use x="190.869141" xlink:href="#DejaVuSans-48"/>
      </g>
     </g>
    </g>
    <g id="ytick_8">
     <g id="line2d_18">
      <g>
       <use style="stroke:#000000;stroke-width:0.8;" x="39.65" xlink:href="#m59dd8fbf22" y="56.448264"/>
      </g>
     </g>
     <g id="text_15">
      <!-- 2250 -->
      <g transform="translate(7.2 60.247483)scale(0.1 -0.1)">
       <use xlink:href="#DejaVuSans-50"/>
       <use x="63.623047" xlink:href="#DejaVuSans-50"/>
       <use x="127.246094" xlink:href="#DejaVuSans-53"/>
       <use x="190.869141" xlink:href="#DejaVuSans-48"/>
      </g>
     </g>
    </g>
    <g id="ytick_9">
     <g id="line2d_19">
      <g>
       <use style="stroke:#000000;stroke-width:0.8;" x="39.65" xlink:href="#m59dd8fbf22" y="24.787877"/>
      </g>
     </g>
     <g id="text_16">
      <!-- 2500 -->
      <g transform="translate(7.2 28.587095)scale(0.1 -0.1)">
       <use xlink:href="#DejaVuSans-50"/>
       <use x="63.623047" xlink:href="#DejaVuSans-53"/>
       <use x="127.246094" xlink:href="#DejaVuSans-48"/>
       <use x="190.869141" xlink:href="#DejaVuSans-48"/>
      </g>
     </g>
    </g>
   </g>
   <g id="patch_3">
    <path d="M 39.65 294.118125 
L 39.65 22.318125 
" style="fill:none;stroke:#000000;stroke-linecap:square;stroke-linejoin:miter;stroke-width:0.8;"/>
   </g>
   <g id="patch_4">
    <path d="M 39.65 294.118125 
L 486.05 294.118125 
" style="fill:none;stroke:#000000;stroke-linecap:square;stroke-linejoin:miter;stroke-width:0.8;"/>
   </g>
   <g id="text_17">
    <!-- Cw_total -->
    <defs>
     <path d="M 64.40625 67.28125 
L 64.40625 56.890625 
Q 59.421875 61.53125 53.78125 63.8125 
Q 48.140625 66.109375 41.796875 66.109375 
Q 29.296875 66.109375 22.65625 58.46875 
Q 16.015625 50.828125 16.015625 36.375 
Q 16.015625 21.96875 22.65625 14.328125 
Q 29.296875 6.6875 41.796875 6.6875 
Q 48.140625 6.6875 53.78125 8.984375 
Q 59.421875 11.28125 64.40625 15.921875 
L 64.40625 5.609375 
Q 59.234375 2.09375 53.4375 0.328125 
Q 47.65625 -1.421875 41.21875 -1.421875 
Q 24.65625 -1.421875 15.125 8.703125 
Q 5.609375 18.84375 5.609375 36.375 
Q 5.609375 53.953125 15.125 64.078125 
Q 24.65625 74.21875 41.21875 74.21875 
Q 47.75 74.21875 53.53125 72.484375 
Q 59.328125 70.75 64.40625 67.28125 
z
" id="DejaVuSans-67"/>
     <path d="M 4.203125 54.6875 
L 13.1875 54.6875 
L 24.421875 12.015625 
L 35.59375 54.6875 
L 46.1875 54.6875 
L 57.421875 12.015625 
L 68.609375 54.6875 
L 77.59375 54.6875 
L 63.28125 0 
L 52.6875 0 
L 40.921875 44.828125 
L 29.109375 0 
L 18.5 0 
z
" id="DejaVuSans-119"/>
     <path d="M 50.984375 -16.609375 
L 50.984375 -23.578125 
L -0.984375 -23.578125 
L -0.984375 -16.609375 
z
" id="DejaVuSans-95"/>
     <path d="M 18.3125 70.21875 
L 18.3125 54.6875 
L 36.8125 54.6875 
L 36.8125 47.703125 
L 18.3125 47.703125 
L 18.3125 18.015625 
Q 18.3125 11.328125 20.140625 9.421875 
Q 21.96875 7.515625 27.59375 7.515625 
L 36.8125 7.515625 
L 36.8125 0 
L 27.59375 0 
Q 17.1875 0 13.234375 3.875 
Q 9.28125 7.765625 9.28125 18.015625 
L 9.28125 47.703125 
L 2.6875 47.703125 
L 2.6875 54.6875 
L 9.28125 54.6875 
L 9.28125 70.21875 
z
" id="DejaVuSans-116"/>
     <path d="M 34.28125 27.484375 
Q 23.390625 27.484375 19.1875 25 
Q 14.984375 22.515625 14.984375 16.5 
Q 14.984375 11.71875 18.140625 8.90625 
Q 21.296875 6.109375 26.703125 6.109375 
Q 34.1875 6.109375 38.703125 11.40625 
Q 43.21875 16.703125 43.21875 25.484375 
L 43.21875 27.484375 
z
M 52.203125 31.203125 
L 52.203125 0 
L 43.21875 0 
L 43.21875 8.296875 
Q 40.140625 3.328125 35.546875 0.953125 
Q 30.953125 -1.421875 24.3125 -1.421875 
Q 15.921875 -1.421875 10.953125 3.296875 
Q 6 8.015625 6 15.921875 
Q 6 25.140625 12.171875 29.828125 
Q 18.359375 34.515625 30.609375 34.515625 
L 43.21875 34.515625 
L 43.21875 35.40625 
Q 43.21875 41.609375 39.140625 45 
Q 35.0625 48.390625 27.6875 48.390625 
Q 23 48.390625 18.546875 47.265625 
Q 14.109375 46.140625 10.015625 43.890625 
L 10.015625 52.203125 
Q 14.9375 54.109375 19.578125 55.046875 
Q 24.21875 56 28.609375 56 
Q 40.484375 56 46.34375 49.84375 
Q 52.203125 43.703125 52.203125 31.203125 
z
" id="DejaVuSans-97"/>
     <path d="M 9.421875 75.984375 
L 18.40625 75.984375 
L 18.40625 0 
L 9.421875 0 
z
" id="DejaVuSans-108"/>
    </defs>
    <g transform="translate(237.034063 16.318125)scale(0.12 -0.12)">
     <use xlink:href="#DejaVuSans-67"/>
     <use x="69.824219" xlink:href="#DejaVuSans-119"/>
     <use x="151.611328" xlink:href="#DejaVuSans-95"/>
     <use x="201.611328" xlink:href="#DejaVuSans-116"/>
     <use x="240.820312" xlink:href="#DejaVuSans-111"/>
     <use x="302.001953" xlink:href="#DejaVuSans-116"/>
     <use x="341.210938" xlink:href="#DejaVuSans-97"/>
     <use x="402.490234" xlink:href="#DejaVuSans-108"/>
    </g>
   </g>
   <g id="legend_1">
    <g id="patch_5">
     <path d="M 493.05 190.104844 
L 567.448437 190.104844 
Q 569.448437 190.104844 569.448437 188.104844 
L 569.448437 128.331406 
Q 569.448437 126.331406 567.448437 126.331406 
L 493.05 126.331406 
Q 491.05 126.331406 491.05 128.331406 
L 491.05 188.104844 
Q 491.05 190.104844 493.05 190.104844 
z
" style="fill:#ffffff;opacity:0.8;stroke:#cccccc;stroke-linejoin:miter;"/>
    </g>
    <g id="line2d_20">
     <path d="M 495.05 134.429844 
L 515.05 134.429844 
" style="fill:none;stroke:#000000;stroke-dasharray:3.7,1.6;stroke-dashoffset:0;"/>
    </g>
    <g id="line2d_21"/>
    <g id="text_18">
     <!-- Baseline -->
     <defs>
      <path d="M 19.671875 34.8125 
L 19.671875 8.109375 
L 35.5 8.109375 
Q 43.453125 8.109375 47.28125 11.40625 
Q 51.125 14.703125 51.125 21.484375 
Q 51.125 28.328125 47.28125 31.5625 
Q 43.453125 34.8125 35.5 34.8125 
z
M 19.671875 64.796875 
L 19.671875 42.828125 
L 34.28125 42.828125 
Q 41.5 42.828125 45.03125 45.53125 
Q 48.578125 48.25 48.578125 53.8125 
Q 48.578125 59.328125 45.03125 62.0625 
Q 41.5 64.796875 34.28125 64.796875 
z
M 9.8125 72.90625 
L 35.015625 72.90625 
Q 46.296875 72.90625 52.390625 68.21875 
Q 58.5 63.53125 58.5 54.890625 
Q 58.5 48.1875 55.375 44.234375 
Q 52.25 40.28125 46.1875 39.3125 
Q 53.46875 37.75 57.5 32.78125 
Q 61.53125 27.828125 61.53125 20.40625 
Q 61.53125 10.640625 54.890625 5.3125 
Q 48.25 0 35.984375 0 
L 9.8125 0 
z
" id="DejaVuSans-66"/>
      <path d="M 44.28125 53.078125 
L 44.28125 44.578125 
Q 40.484375 46.53125 36.375 47.5 
Q 32.28125 48.484375 27.875 48.484375 
Q 21.1875 48.484375 17.84375 46.4375 
Q 14.5 44.390625 14.5 40.28125 
Q 14.5 37.15625 16.890625 35.375 
Q 19.28125 33.59375 26.515625 31.984375 
L 29.59375 31.296875 
Q 39.15625 29.25 43.1875 25.515625 
Q 47.21875 21.78125 47.21875 15.09375 
Q 47.21875 7.46875 41.1875 3.015625 
Q 35.15625 -1.421875 24.609375 -1.421875 
Q 20.21875 -1.421875 15.453125 -0.5625 
Q 10.6875 0.296875 5.421875 2 
L 5.421875 11.28125 
Q 10.40625 8.6875 15.234375 7.390625 
Q 20.0625 6.109375 24.8125 6.109375 
Q 31.15625 6.109375 34.5625 8.28125 
Q 37.984375 10.453125 37.984375 14.40625 
Q 37.984375 18.0625 35.515625 20.015625 
Q 33.0625 21.96875 24.703125 23.78125 
L 21.578125 24.515625 
Q 13.234375 26.265625 9.515625 29.90625 
Q 5.8125 33.546875 5.8125 39.890625 
Q 5.8125 47.609375 11.28125 51.796875 
Q 16.75 56 26.8125 56 
Q 31.78125 56 36.171875 55.265625 
Q 40.578125 54.546875 44.28125 53.078125 
z
" id="DejaVuSans-115"/>
      <path d="M 9.421875 54.6875 
L 18.40625 54.6875 
L 18.40625 0 
L 9.421875 0 
z
M 9.421875 75.984375 
L 18.40625 75.984375 
L 18.40625 64.59375 
L 9.421875 64.59375 
z
" id="DejaVuSans-105"/>
      <path d="M 54.890625 33.015625 
L 54.890625 0 
L 45.90625 0 
L 45.90625 32.71875 
Q 45.90625 40.484375 42.875 44.328125 
Q 39.84375 48.1875 33.796875 48.1875 
Q 26.515625 48.1875 22.3125 43.546875 
Q 18.109375 38.921875 18.109375 30.90625 
L 18.109375 0 
L 9.078125 0 
L 9.078125 54.6875 
L 18.109375 54.6875 
L 18.109375 46.1875 
Q 21.34375 51.125 25.703125 53.5625 
Q 30.078125 56 35.796875 56 
Q 45.21875 56 50.046875 50.171875 
Q 54.890625 44.34375 54.890625 33.015625 
z
" id="DejaVuSans-110"/>
     </defs>
     <g transform="translate(523.05 137.929844)scale(0.1 -0.1)">
      <use xlink:href="#DejaVuSans-66"/>
      <use x="68.603516" xlink:href="#DejaVuSans-97"/>
      <use x="129.882812" xlink:href="#DejaVuSans-115"/>
      <use x="181.982422" xlink:href="#DejaVuSans-101"/>
      <use x="243.505859" xlink:href="#DejaVuSans-108"/>
      <use x="271.289062" xlink:href="#DejaVuSans-105"/>
      <use x="299.072266" xlink:href="#DejaVuSans-110"/>
      <use x="362.451172" xlink:href="#DejaVuSans-101"/>
     </g>
    </g>
    <g id="line2d_22">
     <path d="M 495.05 149.107969 
L 515.05 149.107969 
" style="fill:none;stroke:#1f77b4;stroke-linecap:square;stroke-width:1.5;"/>
    </g>
    <g id="line2d_23"/>
    <g id="text_19">
     <!-- $\Downarrow \sigma_\psi$ -->
     <defs>
      <path d="M 36.765625 14.3125 
L 41.9375 9.234375 
L 47.015625 14.3125 
L 47.015625 72.90625 
L 52.875 72.90625 
L 52.875 20.171875 
L 57.46875 24.75 
L 63.328125 18.890625 
L 44.09375 -0.34375 
L 39.703125 -0.34375 
L 20.5625 18.890625 
L 26.421875 24.75 
L 30.90625 20.171875 
L 30.90625 72.90625 
L 36.765625 72.90625 
z
" id="DejaVuSans-8659"/>
      <path d="M 34.671875 47.5625 
Q 27.25 47.5625 22.21875 42.1875 
Q 16.890625 36.578125 15.140625 27.296875 
Q 13.1875 17.484375 16.3125 11.8125 
Q 19.390625 6.203125 26.65625 6.203125 
Q 33.84375 6.203125 39.109375 11.859375 
Q 44.4375 17.53125 46.34375 27.296875 
Q 48.046875 36.234375 45.015625 42.1875 
Q 42.1875 47.5625 34.671875 47.5625 
z
M 36.078125 54.734375 
L 65.921875 54.6875 
L 64.15625 45.703125 
L 54.109375 45.703125 
Q 57.90625 38.09375 55.859375 27.296875 
Q 53.21875 13.875 45.0625 6.25 
Q 36.859375 -1.421875 25.140625 -1.421875 
Q 13.375 -1.421875 8.203125 6.25 
Q 3.03125 13.875 5.671875 27.296875 
Q 8.25 40.765625 16.40625 48.390625 
Q 23.1875 54.734375 36.078125 54.734375 
z
" id="DejaVuSans-Oblique-963"/>
      <path d="M 24.859375 -1.21875 
Q 13.921875 0.59375 9.625 5.328125 
Q 4.34375 11.140625 6.640625 23 
L 12.796875 54.6875 
L 21.875 54.6875 
L 15.765625 23.34375 
Q 14.0625 14.40625 17.484375 10.6875 
Q 20.515625 7.46875 26.421875 6.78125 
L 35.6875 54.6875 
L 44.625 54.6875 
L 35.359375 6.84375 
Q 41.890625 7.515625 45.75 10.75 
Q 50.734375 14.84375 52.390625 23.390625 
L 58.453125 54.6875 
L 67.53125 54.6875 
L 61.375 23.046875 
Q 58.984375 10.75 51.5625 5.375 
Q 44.875 0.53125 33.796875 -1.171875 
L 29.984375 -20.796875 
L 21.046875 -20.796875 
z
" id="DejaVuSans-Oblique-968"/>
     </defs>
     <g transform="translate(523.05 152.607969)scale(0.1 -0.1)">
      <use transform="translate(19.482422 0.09375)" xlink:href="#DejaVuSans-8659"/>
      <use transform="translate(122.753906 0.09375)" xlink:href="#DejaVuSans-Oblique-963"/>
      <use transform="translate(186.132812 -16.3125)scale(0.7)" xlink:href="#DejaVuSans-Oblique-968"/>
     </g>
    </g>
    <g id="line2d_24">
     <path d="M 495.05 164.806406 
L 515.05 164.806406 
" style="fill:none;stroke:#ff7f0e;stroke-linecap:square;stroke-width:1.5;"/>
    </g>
    <g id="line2d_25"/>
    <g id="text_20">
     <!-- $\Downarrow s_\psi$ -->
     <defs>
      <path d="M 50 53.078125 
L 48.296875 44.578125 
Q 44.734375 46.53125 40.765625 47.5 
Q 36.8125 48.484375 32.625 48.484375 
Q 25.53125 48.484375 21.453125 46.0625 
Q 17.390625 43.65625 17.390625 39.5 
Q 17.390625 34.671875 26.859375 32.078125 
Q 27.59375 31.890625 27.9375 31.78125 
L 30.8125 30.90625 
Q 39.796875 28.421875 42.796875 25.6875 
Q 45.796875 22.953125 45.796875 18.21875 
Q 45.796875 9.515625 38.890625 4.046875 
Q 31.984375 -1.421875 20.796875 -1.421875 
Q 16.453125 -1.421875 11.671875 -0.578125 
Q 6.890625 0.25 1.125 2 
L 2.875 11.28125 
Q 7.8125 8.734375 12.59375 7.421875 
Q 17.390625 6.109375 21.78125 6.109375 
Q 28.375 6.109375 32.5 8.9375 
Q 36.625 11.765625 36.625 16.109375 
Q 36.625 20.796875 25.78125 23.6875 
L 24.859375 23.921875 
L 21.78125 24.703125 
Q 14.9375 26.515625 11.765625 29.46875 
Q 8.59375 32.421875 8.59375 37.015625 
Q 8.59375 45.75 15.15625 50.875 
Q 21.734375 56 33.015625 56 
Q 37.453125 56 41.671875 55.265625 
Q 45.90625 54.546875 50 53.078125 
z
" id="DejaVuSans-Oblique-115"/>
     </defs>
     <g transform="translate(523.05 168.306406)scale(0.1 -0.1)">
      <use transform="translate(19.482422 0.09375)" xlink:href="#DejaVuSans-8659"/>
      <use transform="translate(122.753906 0.09375)" xlink:href="#DejaVuSans-Oblique-115"/>
      <use transform="translate(174.853516 -16.3125)scale(0.7)" xlink:href="#DejaVuSans-Oblique-968"/>
     </g>
    </g>
    <g id="line2d_26">
     <path d="M 495.05 180.504844 
L 515.05 180.504844 
" style="fill:none;stroke:#2ca02c;stroke-linecap:square;stroke-width:1.5;"/>
    </g>
    <g id="line2d_27"/>
    <g id="text_21">
     <!-- $\Uparrow \eta$ -->
     <defs>
      <path d="M 36.765625 58.59375 
L 36.765625 0 
L 30.90625 0 
L 30.90625 52.734375 
L 26.421875 48.140625 
L 20.5625 54 
L 39.703125 73.25 
L 44.09375 73.25 
L 63.328125 54 
L 57.46875 48.140625 
L 52.875 52.734375 
L 52.875 0 
L 47.015625 0 
L 47.015625 58.59375 
L 41.9375 63.671875 
z
" id="DejaVuSans-8657"/>
      <path d="M 57.859375 33.015625 
L 47.40625 -20.796875 
L 38.421875 -20.796875 
L 48.828125 32.71875 
Q 50.34375 40.484375 48.046875 44.34375 
Q 45.796875 48.1875 39.75 48.1875 
Q 32.46875 48.1875 27.34375 43.5625 
Q 22.265625 38.921875 20.703125 30.90625 
L 14.703125 0 
L 5.671875 0 
L 16.3125 54.6875 
L 25.34375 54.6875 
L 23.6875 46.1875 
Q 27.828125 51.125 32.71875 53.5625 
Q 37.546875 56 43.265625 56 
Q 52.6875 56 56.390625 50.203125 
Q 60.0625 44.34375 57.859375 33.015625 
z
" id="DejaVuSans-Oblique-951"/>
     </defs>
     <g transform="translate(523.05 184.004844)scale(0.1 -0.1)">
      <use transform="translate(19.482422 0.75)" xlink:href="#DejaVuSans-8657"/>
      <use transform="translate(122.753906 0.75)" xlink:href="#DejaVuSans-Oblique-951"/>
     </g>
    </g>
   </g>
  </g>
 </g>
 <defs>
  <clipPath id="p78f57b629b">
   <rect height="271.8" width="446.4" x="39.65" y="22.318125"/>
  </clipPath>
 </defs>
</svg>
