<?xml version="1.0" encoding="utf-8" standalone="no"?>
<!DOCTYPE svg PUBLIC "-//W3C//DTD SVG 1.1//EN"
  "http://www.w3.org/Graphics/SVG/1.1/DTD/svg11.dtd">
<!-- Created with matplotlib (https://matplotlib.org/) -->
<svg height="331.674375pt" version="1.1" viewBox="0 0 581.84375 331.674375" width="581.84375pt" xmlns="http://www.w3.org/2000/svg" xmlns:xlink="http://www.w3.org/1999/xlink">
 <defs>
  <style type="text/css">
*{stroke-linecap:butt;stroke-linejoin:round;}
  </style>
 </defs>
 <g id="figure_1">
  <g id="patch_1">
   <path d="M 0 331.674375 
L 581.84375 331.674375 
L 581.84375 0 
L 0 0 
z
" style="fill:#ffffff;"/>
  </g>
  <g id="axes_1">
   <g id="patch_2">
    <path d="M 44.845313 294.118125 
L 491.245312 294.118125 
L 491.245312 22.318125 
L 44.845313 22.318125 
z
" style="fill:#ffffff;"/>
   </g>
   <g id="line2d_1">
    <path clip-path="url(#p4b0a4ced4a)" d="M 65.136222 102.303855 
L 65.862193 121.283161 
L 66.588165 66.263861 
L 67.314137 84.409433 
L 68.040108 82.443125 
L 69.492052 89.731458 
L 70.218024 95.042058 
L 70.943995 92.825943 
L 71.669967 110.013829 
L 72.395939 60.260385 
L 73.12191 93.545309 
L 73.847882 91.119801 
L 74.573854 90.224919 
L 75.299825 78.483465 
L 76.025797 71.913008 
L 76.751769 92.186104 
L 77.477741 68.502489 
L 78.203712 82.725992 
L 78.929684 66.854413 
L 79.655656 67.339944 
L 80.381627 76.228455 
L 81.107599 56.90894 
L 81.833571 68.060491 
L 82.559542 69.315079 
L 83.285514 73.126008 
L 84.011486 78.343753 
L 84.737458 69.97802 
L 85.463429 43.781519 
L 86.189401 70.031312 
L 86.915373 36.20155 
L 87.641344 53.136347 
L 88.367316 52.859342 
L 89.093288 73.36181 
L 89.819259 74.864603 
L 90.545231 69.880963 
L 91.271203 72.763089 
L 91.997175 51.524952 
L 92.723146 63.28145 
L 93.449118 63.758718 
L 94.17509 79.115592 
L 94.901061 62.867533 
L 95.627033 63.402451 
L 96.353005 70.069992 
L 97.078977 70.334315 
L 97.804948 63.453199 
L 98.53092 59.650487 
L 99.256892 69.937014 
L 99.982863 59.654533 
L 100.708835 66.953727 
L 101.434807 52.10225 
L 102.160778 55.859621 
L 102.88675 64.64126 
L 103.612722 49.335685 
L 104.338694 49.03059 
L 105.064665 46.317164 
L 105.790637 58.397607 
L 106.516609 47.691798 
L 107.24258 45.664846 
L 107.968552 47.72659 
L 108.694524 50.138263 
L 109.420495 58.557456 
L 110.146467 36.728046 
L 110.872439 46.895885 
L 111.598411 46.73429 
L 112.324382 47.66551 
L 113.050354 45.429498 
L 113.776326 49.170833 
L 114.502297 51.140525 
L 115.228269 54.247419 
L 115.954241 60.356216 
L 116.680212 55.111391 
L 117.406184 34.67267 
L 118.132156 47.962771 
L 118.858128 49.93983 
L 120.310071 55.733325 
L 121.036043 53.638911 
L 121.762014 56.628487 
L 122.487986 58.337987 
L 123.213958 64.540505 
L 123.93993 48.013575 
L 124.665901 56.535969 
L 125.391873 57.877211 
L 126.117845 68.256746 
L 126.843816 37.393818 
L 127.569788 57.393303 
L 128.29576 54.314821 
L 129.021731 44.280442 
L 129.747703 55.048167 
L 130.473675 54.986642 
L 131.199647 59.394059 
L 131.925618 52.48407 
L 132.65159 52.705478 
L 133.377562 55.966922 
L 134.103533 61.890109 
L 134.829505 59.806727 
L 135.555477 63.127676 
L 136.281448 52.23783 
L 137.00742 57.097024 
L 137.733392 63.038208 
L 138.459364 67.62115 
L 139.185335 64.531185 
L 139.911307 70.408347 
L 140.637279 52.388861 
L 141.36325 56.468321 
L 142.089222 62.233718 
L 142.815194 62.445196 
L 143.541165 62.782153 
L 144.267137 66.103054 
L 144.993109 65.422707 
L 145.719081 74.29953 
L 146.445052 50.732289 
L 147.171024 55.06615 
L 147.896996 61.103619 
L 149.348939 63.447025 
L 150.074911 47.442125 
L 150.800883 57.218175 
L 151.526854 61.593431 
L 152.252826 57.545795 
L 152.978798 57.234007 
L 153.704769 57.661168 
L 154.430741 57.630241 
L 155.156713 57.859237 
L 155.882684 57.480901 
L 156.608656 58.10738 
L 157.334628 64.9506 
L 158.0606 55.818188 
L 159.512543 57.725412 
L 160.238515 59.45149 
L 160.964486 47.592055 
L 161.690458 56.328329 
L 163.142401 58.522412 
L 163.868373 58.860235 
L 164.594345 60.358232 
L 166.046288 62.397924 
L 166.77226 61.968287 
L 167.498232 65.239033 
L 168.224203 64.6706 
L 168.950175 64.953593 
L 169.676147 70.711707 
L 170.402118 65.289344 
L 171.12809 67.513685 
L 171.854062 52.986968 
L 172.580034 60.60226 
L 173.306005 56.783627 
L 174.031977 56.471302 
L 174.757949 60.926578 
L 175.48392 61.058831 
L 176.209892 64.83352 
L 176.935864 48.384726 
L 177.661836 60.128614 
L 178.387807 51.406568 
L 179.113779 55.761072 
L 179.839751 55.726966 
L 180.565722 56.295338 
L 181.291694 55.566283 
L 182.017666 55.619543 
L 182.743637 56.624708 
L 183.469609 56.347736 
L 184.195581 57.086512 
L 184.921553 59.048887 
L 185.647524 58.314509 
L 186.373496 62.06394 
L 187.099468 60.099065 
L 187.825439 57.548015 
L 188.551411 47.913794 
L 189.277383 51.253789 
L 190.003354 60.388351 
L 190.729326 56.471036 
L 192.18127 60.069425 
L 193.633213 61.667496 
L 194.359185 63.547434 
L 195.085156 65.068026 
L 195.811128 67.056815 
L 196.5371 65.517073 
L 197.263071 68.482792 
L 197.989043 66.490786 
L 198.715015 65.815273 
L 199.440987 68.52475 
L 200.166958 66.179102 
L 200.89293 66.455541 
L 201.618902 68.319118 
L 202.344873 69.413297 
L 203.070845 71.57961 
L 203.796817 75.986897 
L 204.522789 74.139544 
L 205.24876 73.529792 
L 205.974732 75.004103 
L 206.700704 68.807937 
L 207.426675 73.564139 
L 208.878619 73.082672 
L 209.60459 75.412806 
L 210.330562 78.194946 
L 211.056534 77.573337 
L 211.782506 78.325941 
L 212.508477 72.477544 
L 213.234449 76.475299 
L 213.960421 81.663697 
L 215.412364 84.50297 
L 216.138336 79.792547 
L 216.864307 81.279361 
L 217.590279 85.274464 
L 218.316251 76.537685 
L 219.042223 80.218745 
L 219.768194 82.067413 
L 220.494166 82.180545 
L 221.946109 85.000065 
L 222.672081 84.33969 
L 223.398053 86.239773 
L 224.849996 88.33231 
L 225.575968 87.401274 
L 226.30194 88.516658 
L 227.027911 90.063949 
L 227.753883 90.68776 
L 228.479855 90.990378 
L 229.205826 93.781136 
L 229.931798 92.339978 
L 230.65777 93.343542 
L 231.383742 87.934418 
L 232.109713 93.484301 
L 232.835685 91.923384 
L 233.561657 85.729173 
L 234.287628 88.424708 
L 235.0136 93.114539 
L 235.739572 94.161638 
L 236.465543 85.398444 
L 237.191515 89.593519 
L 237.917487 85.951093 
L 238.643459 88.989603 
L 239.36943 89.259091 
L 240.095402 82.559676 
L 240.821374 83.779493 
L 241.547345 87.7719 
L 242.273317 80.38739 
L 242.999289 86.539817 
L 243.72526 85.939548 
L 244.451232 86.307305 
L 245.177204 88.335967 
L 245.903176 78.528529 
L 246.629147 81.656712 
L 247.355119 83.788335 
L 248.081091 84.705932 
L 248.807062 84.374397 
L 249.533034 85.025085 
L 250.259006 85.200222 
L 250.984977 82.997404 
L 251.710949 83.989059 
L 252.436921 84.731659 
L 253.162893 81.178805 
L 253.888864 84.668472 
L 254.614836 84.752669 
L 255.340808 80.44546 
L 256.066779 82.895428 
L 256.792751 79.1201 
L 257.518723 79.582762 
L 258.244695 79.117365 
L 258.970666 81.512768 
L 259.696638 82.17684 
L 260.42261 76.682787 
L 261.148581 81.938499 
L 261.874553 79.942354 
L 262.600525 79.693041 
L 263.326496 80.671306 
L 264.052468 82.069471 
L 264.77844 76.056991 
L 265.504412 84.093658 
L 266.230383 80.431167 
L 266.956355 81.006577 
L 267.682327 82.620322 
L 268.408298 77.363168 
L 269.13427 83.487822 
L 269.860242 79.291765 
L 270.586213 82.405359 
L 271.312185 83.203261 
L 272.038157 83.768603 
L 272.764129 85.889375 
L 273.4901 78.896494 
L 274.942044 84.733003 
L 275.668015 84.803227 
L 276.393987 86.727503 
L 277.119959 86.967418 
L 277.84593 87.566779 
L 278.571902 88.405472 
L 279.297874 88.830751 
L 280.023846 88.129846 
L 280.749817 87.658864 
L 281.475789 82.833496 
L 282.201761 87.738484 
L 282.927732 87.829478 
L 283.653704 88.990907 
L 284.379676 89.563598 
L 285.105648 90.805231 
L 285.831619 91.301201 
L 286.557591 92.189224 
L 287.283563 92.848418 
L 288.009534 92.174252 
L 288.735506 93.819639 
L 289.461478 90.992683 
L 290.187449 89.026197 
L 290.913421 89.69209 
L 291.639393 87.995483 
L 293.091336 90.298512 
L 293.817308 85.409127 
L 294.54328 86.780756 
L 295.269251 89.804405 
L 295.995223 89.538002 
L 296.721195 90.997065 
L 297.447166 86.614746 
L 298.173138 90.351055 
L 298.89911 89.833077 
L 299.625082 90.229046 
L 301.077025 91.29073 
L 301.802997 90.94505 
L 302.528968 91.294339 
L 303.25494 90.950002 
L 303.980912 91.293344 
L 304.706883 91.365357 
L 305.432855 86.236162 
L 306.158827 90.238597 
L 306.884799 91.154922 
L 307.61077 89.346123 
L 308.336742 90.120899 
L 309.062714 90.689021 
L 309.788685 90.593221 
L 311.240629 91.037226 
L 311.966601 90.580529 
L 312.692572 89.281886 
L 313.418544 85.135075 
L 314.144516 84.712285 
L 314.870487 83.67813 
L 315.596459 86.637388 
L 316.322431 86.767891 
L 317.048402 87.83202 
L 317.774374 83.800244 
L 318.500346 88.397768 
L 319.226318 87.981518 
L 319.952289 87.984227 
L 320.678261 88.492232 
L 321.404233 84.630351 
L 322.130204 87.343045 
L 322.856176 86.855702 
L 323.582148 87.327758 
L 324.308119 86.092192 
L 325.034091 87.087939 
L 325.760063 82.040797 
L 326.486035 86.301783 
L 327.212006 85.906888 
L 327.937978 87.600869 
L 328.66395 80.68801 
L 329.389921 83.237979 
L 330.841865 84.264383 
L 331.567836 80.849677 
L 332.293808 80.619554 
L 333.01978 79.065985 
L 333.745752 78.668379 
L 334.471723 82.565966 
L 335.197695 78.113358 
L 335.923667 82.528237 
L 336.649638 80.415023 
L 337.37561 80.880367 
L 338.101582 78.239608 
L 338.827554 80.04475 
L 339.553525 80.606 
L 340.279497 76.355811 
L 341.005469 79.335619 
L 341.73144 78.815149 
L 342.457412 79.925334 
L 343.183384 78.48428 
L 343.909355 74.283337 
L 344.635327 74.879278 
L 345.361299 76.771163 
L 346.087271 78.083072 
L 346.813242 74.842385 
L 347.539214 74.400359 
L 348.265186 76.692891 
L 348.991157 77.220689 
L 349.717129 74.235307 
L 350.443101 76.019375 
L 351.169072 79.370425 
L 351.895044 79.003281 
L 352.621016 79.606968 
L 353.346988 76.881621 
L 354.072959 79.742842 
L 354.798931 76.319492 
L 355.524903 75.644173 
L 356.976846 73.510095 
L 357.702818 74.727026 
L 358.428789 75.190167 
L 359.154761 73.163882 
L 359.880733 75.001901 
L 360.606705 75.93237 
L 361.332676 72.602936 
L 362.058648 74.785364 
L 362.78462 71.911441 
L 363.510591 74.492892 
L 364.236563 74.998069 
L 364.962535 76.054497 
L 366.414478 77.298356 
L 367.14045 75.132032 
L 367.866422 78.780123 
L 368.592393 73.45848 
L 369.318365 77.511172 
L 370.044337 73.886158 
L 370.770308 73.695461 
L 371.49628 71.692256 
L 372.222252 73.649378 
L 372.948224 74.831333 
L 373.674195 74.937174 
L 374.400167 75.577578 
L 375.85211 76.021884 
L 376.578082 73.484292 
L 377.304054 72.108075 
L 378.030025 73.996962 
L 378.755997 70.996325 
L 379.481969 74.125449 
L 380.207941 74.782739 
L 380.933912 72.284911 
L 381.659884 73.082985 
L 382.385856 68.771133 
L 383.111827 71.170856 
L 383.837799 72.641171 
L 384.563771 72.014525 
L 385.289742 73.037227 
L 386.015714 73.708988 
L 386.741686 73.732702 
L 387.467658 74.547408 
L 388.193629 74.699859 
L 388.919601 73.266163 
L 389.645573 74.041802 
L 390.371544 74.45807 
L 391.097516 75.369742 
L 391.823488 75.262443 
L 392.54946 72.905502 
L 393.275431 74.235132 
L 394.001403 73.798432 
L 394.727375 73.714713 
L 395.453346 75.728506 
L 396.179318 71.834907 
L 396.90529 72.779728 
L 397.631261 72.166797 
L 398.357233 72.524949 
L 399.083205 72.654695 
L 399.809177 74.003235 
L 400.535148 72.380108 
L 401.26112 74.903763 
L 401.987092 73.976358 
L 402.713063 73.777671 
L 404.165007 74.983289 
L 404.890978 73.71173 
L 405.61695 75.526141 
L 406.342922 74.775914 
L 407.068894 76.494769 
L 407.794865 75.912944 
L 408.520837 74.69772 
L 409.246809 72.282413 
L 409.97278 74.44568 
L 410.698752 71.414078 
L 411.424724 73.342435 
L 412.150695 73.700899 
L 412.876667 74.191601 
L 413.602639 71.289789 
L 414.328611 72.005857 
L 415.054582 71.693904 
L 415.780554 72.060072 
L 416.506526 68.552874 
L 417.232497 68.946668 
L 417.958469 69.772594 
L 418.684441 70.917005 
L 419.410413 70.384714 
L 420.136384 68.503625 
L 420.862356 69.332832 
L 421.588328 68.777357 
L 422.314299 70.32888 
L 423.040271 71.103598 
L 423.766243 67.853541 
L 424.492214 68.962267 
L 425.218186 65.920429 
L 425.944158 66.226304 
L 426.67013 67.335501 
L 427.396101 67.41889 
L 428.122073 66.039029 
L 428.848045 61.138641 
L 429.574016 61.559729 
L 430.299988 57.794793 
L 431.02596 56.967154 
L 431.751931 59.359382 
L 432.477903 56.659553 
L 433.203875 55.517245 
L 433.929847 54.076519 
L 434.655818 55.642059 
L 435.38179 53.069955 
L 436.107762 54.278558 
L 436.833733 51.518906 
L 437.559705 54.097753 
L 439.011648 56.41361 
L 439.73762 55.220492 
L 440.463592 52.291601 
L 441.915535 54.252574 
L 442.641507 53.897282 
L 443.367479 54.025575 
L 444.09345 53.620376 
L 444.819422 53.753344 
L 445.545394 51.673074 
L 446.271366 50.816771 
L 446.997337 50.26764 
L 447.723309 49.566368 
L 448.449281 50.638998 
L 449.175252 51.083429 
L 449.901224 53.707553 
L 450.627196 51.101847 
L 451.353167 54.043751 
L 452.079139 51.194238 
L 452.805111 53.235084 
L 453.531083 53.303532 
L 454.257054 50.050011 
L 454.983026 49.555171 
L 455.708998 48.489707 
L 456.434969 50.462633 
L 457.160941 48.235943 
L 457.886913 46.865254 
L 458.612884 47.994794 
L 459.338856 47.183204 
L 460.064828 47.475498 
L 460.7908 49.252508 
L 461.516771 47.662561 
L 462.242743 46.539648 
L 462.968715 45.692037 
L 463.694686 46.760639 
L 464.420658 46.730316 
L 465.14663 44.911199 
L 465.872601 43.68153 
L 466.598573 43.137514 
L 467.324545 44.920942 
L 468.050517 45.795848 
L 468.776488 43.304164 
L 470.954403 40.41862 
L 470.954403 40.41862 
" style="fill:none;stroke:#1f77b4;stroke-linecap:square;stroke-width:1.5;"/>
   </g>
   <g id="line2d_2">
    <path clip-path="url(#p4b0a4ced4a)" d="M 65.136222 85.48451 
L 65.862193 100.959925 
L 66.588165 75.482566 
L 68.040108 70.543814 
L 68.76608 69.19539 
L 69.492052 70.855031 
L 70.218024 76.395643 
L 70.943995 66.388454 
L 71.669967 94.716154 
L 72.395939 82.455434 
L 73.12191 83.754468 
L 73.847882 80.21224 
L 74.573854 78.219826 
L 75.299825 90.778569 
L 76.025797 81.537345 
L 76.751769 86.786242 
L 77.477741 94.441913 
L 78.203712 71.706635 
L 78.929684 103.867613 
L 79.655656 84.913623 
L 80.381627 89.249762 
L 81.107599 97.522332 
L 81.833571 95.304192 
L 82.559542 96.915054 
L 83.285514 93.010472 
L 84.011486 108.22324 
L 84.737458 99.54352 
L 85.463429 102.275996 
L 86.189401 102.743992 
L 86.915373 104.358874 
L 87.641344 104.298091 
L 88.367316 104.573653 
L 89.093288 105.025865 
L 89.819259 106.960152 
L 90.545231 96.343596 
L 91.271203 95.285402 
L 91.997175 96.983616 
L 92.723146 98.081605 
L 94.17509 105.661291 
L 94.901061 107.760728 
L 95.627033 107.039228 
L 96.353005 110.98994 
L 97.078977 115.594625 
L 97.804948 127.664661 
L 98.53092 120.75746 
L 99.256892 133.130898 
L 99.982863 110.70952 
L 100.708835 128.547793 
L 101.434807 124.937657 
L 102.160778 128.564954 
L 102.88675 126.023711 
L 103.612722 126.023455 
L 104.338694 121.891272 
L 105.064665 128.466896 
L 105.790637 130.499275 
L 106.516609 120.031595 
L 107.24258 118.104282 
L 107.968552 118.942272 
L 108.694524 120.585984 
L 109.420495 128.168737 
L 110.146467 123.500482 
L 110.872439 127.187396 
L 111.598411 129.786458 
L 112.324382 124.790491 
L 113.050354 122.844279 
L 113.776326 124.410896 
L 114.502297 126.593025 
L 115.228269 128.254006 
L 115.954241 133.048075 
L 116.680212 128.706131 
L 117.406184 128.763337 
L 118.132156 131.952098 
L 118.858128 133.295126 
L 119.584099 127.770855 
L 120.310071 137.067245 
L 121.036043 137.428297 
L 121.762014 127.24123 
L 122.487986 134.230522 
L 123.213958 132.096374 
L 123.93993 131.215397 
L 124.665901 129.151672 
L 125.391873 128.454273 
L 126.117845 136.367951 
L 126.843816 127.010523 
L 127.569788 119.411129 
L 128.29576 129.686895 
L 129.021731 130.44421 
L 129.747703 128.624377 
L 130.473675 127.146113 
L 131.199647 132.224253 
L 131.925618 122.169297 
L 132.65159 121.747874 
L 133.377562 124.121742 
L 134.103533 129.220201 
L 134.829505 124.52302 
L 135.555477 124.409878 
L 136.281448 125.369247 
L 137.00742 122.595374 
L 137.733392 124.661533 
L 138.459364 128.363159 
L 139.185335 123.351726 
L 139.911307 132.032691 
L 140.637279 127.090534 
L 141.36325 126.88239 
L 142.089222 127.891931 
L 142.815194 127.938687 
L 144.267137 130.164572 
L 144.993109 130.906397 
L 145.719081 137.671401 
L 146.445052 130.911227 
L 147.171024 132.03988 
L 147.896996 134.243522 
L 149.348939 139.243838 
L 150.074911 141.081378 
L 151.526854 147.670658 
L 152.252826 146.534318 
L 153.704769 150.907856 
L 154.430741 154.109354 
L 155.156713 155.405343 
L 155.882684 157.034107 
L 156.608656 159.84943 
L 157.334628 168.203106 
L 158.0606 161.951299 
L 158.786571 159.605721 
L 160.238515 165.128941 
L 160.964486 165.473547 
L 161.690458 166.917544 
L 162.41643 167.233666 
L 163.142401 162.233255 
L 163.868373 168.282973 
L 164.594345 166.851594 
L 165.320317 160.869739 
L 166.046288 164.280275 
L 166.77226 162.387181 
L 167.498232 163.559315 
L 168.224203 161.73 
L 168.950175 161.844381 
L 169.676147 166.099019 
L 170.402118 161.72915 
L 171.12809 159.655386 
L 171.854062 161.716395 
L 172.580034 160.509924 
L 173.306005 158.526733 
L 174.031977 161.20034 
L 174.757949 159.118656 
L 175.48392 160.077921 
L 176.209892 162.838858 
L 176.935864 157.767616 
L 177.661836 162.840296 
L 178.387807 157.850401 
L 179.113779 157.997914 
L 179.839751 157.993055 
L 180.565722 153.716933 
L 181.291694 156.471296 
L 182.017666 150.376974 
L 182.743637 155.365664 
L 184.195581 151.161892 
L 184.921553 152.813046 
L 185.647524 151.539395 
L 186.373496 153.303633 
L 187.099468 148.722081 
L 187.825439 143.364549 
L 189.277383 141.122839 
L 190.003354 144.016572 
L 190.729326 140.038122 
L 191.455298 138.427489 
L 192.18127 140.697914 
L 193.633213 137.335121 
L 194.359185 136.299959 
L 195.085156 136.364945 
L 195.811128 135.004571 
L 196.5371 135.141107 
L 197.263071 138.432302 
L 197.989043 134.404828 
L 198.715015 131.963414 
L 199.440987 133.411343 
L 200.166958 130.033809 
L 200.89293 128.66602 
L 201.618902 129.64425 
L 203.070845 130.397418 
L 203.796817 132.498943 
L 204.522789 129.660971 
L 205.24876 129.297384 
L 205.974732 129.873116 
L 206.700704 132.585626 
L 207.426675 129.542583 
L 208.152647 129.483759 
L 208.878619 128.949677 
L 209.60459 131.375295 
L 210.330562 132.87422 
L 211.056534 130.61212 
L 211.782506 133.466854 
L 212.508477 132.853563 
L 213.234449 135.317376 
L 213.960421 136.595923 
L 214.686392 137.18084 
L 215.412364 136.542917 
L 216.138336 140.854277 
L 216.864307 139.765947 
L 218.316251 141.856006 
L 219.042223 142.336174 
L 219.768194 141.938668 
L 220.494166 142.396063 
L 221.220138 142.531469 
L 221.946109 145.034783 
L 222.672081 141.916085 
L 223.398053 145.22622 
L 224.124024 145.422496 
L 224.849996 146.081509 
L 225.575968 145.711131 
L 227.027911 148.113593 
L 227.753883 148.880152 
L 228.479855 150.454131 
L 229.205826 153.214639 
L 229.931798 152.902329 
L 230.65777 153.695018 
L 231.383742 156.712516 
L 232.109713 157.71998 
L 232.835685 157.910023 
L 233.561657 160.705381 
L 234.287628 161.019377 
L 235.0136 162.673579 
L 235.739572 165.329566 
L 236.465543 165.723442 
L 237.191515 168.542033 
L 237.917487 165.335256 
L 238.643459 168.184833 
L 239.36943 163.217433 
L 240.095402 170.042111 
L 240.821374 169.584636 
L 241.547345 169.973175 
L 242.273317 168.150141 
L 242.999289 168.766775 
L 243.72526 170.155792 
L 244.451232 168.781033 
L 245.177204 170.896892 
L 245.903176 166.726873 
L 246.629147 165.818344 
L 247.355119 168.137172 
L 248.081091 168.749612 
L 248.807062 167.679652 
L 249.533034 167.295368 
L 250.259006 166.720949 
L 250.984977 169.306533 
L 251.710949 165.944155 
L 252.436921 164.934894 
L 253.162893 169.98191 
L 253.888864 167.265361 
L 254.614836 167.484215 
L 255.340808 166.526112 
L 256.066779 166.668173 
L 256.792751 166.240718 
L 257.518723 165.02977 
L 258.970666 163.926977 
L 260.42261 164.406705 
L 261.148581 163.369879 
L 261.874553 163.232233 
L 262.600525 162.209614 
L 264.052468 163.237882 
L 264.77844 163.015554 
L 265.504412 164.835836 
L 266.230383 162.705269 
L 266.956355 163.297594 
L 267.682327 164.250653 
L 268.408298 163.044837 
L 269.13427 164.434291 
L 269.860242 165.183643 
L 270.586213 167.360003 
L 271.312185 167.88533 
L 272.038157 168.090458 
L 272.764129 169.452176 
L 273.4901 167.396376 
L 274.216072 170.592745 
L 274.942044 170.791095 
L 275.668015 170.191641 
L 276.393987 171.032406 
L 277.84593 171.146 
L 279.297874 172.373369 
L 280.749817 170.125157 
L 281.475789 172.365486 
L 282.927732 171.940294 
L 283.653704 172.747658 
L 284.379676 172.59717 
L 285.105648 171.532875 
L 285.831619 172.623798 
L 286.557591 171.950895 
L 287.283563 172.620792 
L 288.009534 170.527354 
L 288.735506 172.461168 
L 289.461478 169.892104 
L 290.187449 171.735069 
L 290.913421 171.417939 
L 291.639393 169.94589 
L 292.365365 172.247988 
L 293.091336 169.882248 
L 293.817308 169.391875 
L 294.54328 169.912191 
L 295.269251 169.455829 
L 295.995223 169.605232 
L 296.721195 169.984202 
L 298.173138 170.276332 
L 298.89911 168.235408 
L 299.625082 167.754302 
L 300.351053 166.294121 
L 301.077025 165.767121 
L 301.802997 164.778473 
L 302.528968 164.267946 
L 303.25494 162.968349 
L 303.980912 165.416634 
L 304.706883 165.287123 
L 305.432855 165.010304 
L 306.158827 163.616951 
L 306.884799 164.333573 
L 307.61077 161.220483 
L 309.062714 163.232368 
L 309.788685 162.680515 
L 310.514657 161.534018 
L 311.240629 161.051552 
L 311.966601 159.65916 
L 312.692572 158.802249 
L 313.418544 159.179172 
L 314.144516 155.507935 
L 314.870487 154.750943 
L 315.596459 153.158552 
L 317.048402 151.382979 
L 318.500346 150.380997 
L 319.226318 150.194644 
L 319.952289 149.862758 
L 320.678261 148.758832 
L 321.404233 150.143287 
L 322.856176 149.540533 
L 323.582148 149.736696 
L 324.308119 148.005098 
L 325.034091 148.747689 
L 325.760063 148.288095 
L 326.486035 148.025239 
L 327.212006 147.36137 
L 327.937978 148.170834 
L 328.66395 145.259592 
L 329.389921 144.805818 
L 330.115893 145.131411 
L 330.841865 146.061487 
L 331.567836 147.4207 
L 332.293808 145.458857 
L 333.01978 145.333551 
L 333.745752 143.988307 
L 334.471723 147.111559 
L 335.197695 146.574456 
L 335.923667 147.013486 
L 336.649638 145.782516 
L 337.37561 146.197165 
L 338.101582 146.908266 
L 338.827554 146.585529 
L 339.553525 149.016198 
L 340.279497 148.381176 
L 341.005469 146.355884 
L 341.73144 145.506726 
L 342.457412 146.692972 
L 343.183384 144.270553 
L 343.909355 143.16794 
L 344.635327 142.274681 
L 345.361299 142.578317 
L 346.087271 143.185046 
L 346.813242 143.008692 
L 347.539214 142.478543 
L 348.991157 144.450399 
L 349.717129 144.783725 
L 351.169072 146.256869 
L 351.895044 145.851382 
L 352.621016 147.066366 
L 353.346988 146.650243 
L 354.072959 146.975832 
L 354.798931 145.287676 
L 355.524903 145.670073 
L 356.250874 144.593472 
L 356.976846 145.660114 
L 357.702818 145.647292 
L 358.428789 146.615681 
L 359.880733 147.251186 
L 360.606705 148.146616 
L 361.332676 147.925798 
L 362.058648 147.55087 
L 362.78462 147.415397 
L 363.510591 148.659744 
L 364.962535 149.249379 
L 366.414478 151.034452 
L 367.14045 151.520658 
L 367.866422 151.539478 
L 368.592393 149.702582 
L 369.318365 150.209323 
L 370.044337 152.842366 
L 370.770308 151.348133 
L 371.49628 150.988467 
L 372.222252 151.019401 
L 372.948224 150.463642 
L 373.674195 150.057089 
L 374.400167 150.23288 
L 375.126139 150.219757 
L 375.85211 150.821954 
L 376.578082 151.015194 
L 377.304054 149.556211 
L 378.030025 149.268671 
L 378.755997 148.764068 
L 380.207941 149.761289 
L 380.933912 149.541292 
L 381.659884 147.093143 
L 382.385856 145.801891 
L 383.837799 148.106769 
L 384.563771 147.644496 
L 385.289742 147.526301 
L 386.015714 148.377059 
L 386.741686 148.668424 
L 387.467658 150.144151 
L 388.919601 150.409332 
L 389.645573 151.327643 
L 390.371544 151.020984 
L 391.097516 151.067502 
L 391.823488 152.130265 
L 392.54946 152.270414 
L 393.275431 152.852053 
L 394.727375 154.50846 
L 395.453346 153.963488 
L 396.179318 153.806229 
L 396.90529 151.79903 
L 397.631261 152.290759 
L 398.357233 153.89547 
L 399.083205 154.34811 
L 399.809177 153.860824 
L 401.26112 153.614114 
L 401.987092 154.267544 
L 402.713063 153.220157 
L 403.439035 154.75327 
L 404.165007 154.629471 
L 404.890978 155.342765 
L 405.61695 156.638302 
L 406.342922 157.33862 
L 407.068894 156.613398 
L 407.794865 158.124672 
L 408.520837 157.318736 
L 409.246809 157.28477 
L 409.97278 156.79024 
L 410.698752 156.930118 
L 411.424724 156.750453 
L 412.150695 157.273549 
L 412.876667 156.235802 
L 413.602639 155.455562 
L 415.054582 154.433082 
L 415.780554 153.00721 
L 416.506526 152.955671 
L 417.232497 152.705542 
L 417.958469 153.292727 
L 418.684441 151.96123 
L 419.410413 152.950309 
L 420.136384 153.319666 
L 420.862356 154.69272 
L 421.588328 154.65117 
L 422.314299 155.996003 
L 423.040271 153.619065 
L 423.766243 153.075062 
L 424.492214 150.507622 
L 425.218186 149.948885 
L 425.944158 149.702592 
L 427.396101 147.429277 
L 428.122073 145.388218 
L 428.848045 141.958905 
L 429.574016 141.737317 
L 430.299988 139.523394 
L 431.02596 139.011911 
L 431.751931 138.262443 
L 432.477903 138.269322 
L 433.203875 137.636979 
L 433.929847 136.480398 
L 434.655818 135.544479 
L 435.38179 136.010519 
L 436.107762 134.347461 
L 436.833733 135.399089 
L 437.559705 135.241311 
L 438.285677 135.617745 
L 440.463592 134.72017 
L 441.189564 134.627437 
L 442.641507 134.099253 
L 444.09345 132.877283 
L 445.545394 132.100812 
L 446.271366 131.17099 
L 448.449281 129.951364 
L 449.901224 128.813703 
L 450.627196 128.874793 
L 452.079139 128.395436 
L 452.805111 128.483668 
L 454.257054 127.110733 
L 454.983026 124.527635 
L 455.708998 124.026167 
L 456.434969 124.66481 
L 457.160941 124.333983 
L 457.886913 122.196843 
L 458.612884 122.562954 
L 459.338856 122.250958 
L 460.064828 120.728382 
L 460.7908 120.903778 
L 461.516771 121.253159 
L 462.242743 121.338396 
L 462.968715 121.082945 
L 463.694686 121.156282 
L 464.420658 120.479676 
L 465.14663 120.541352 
L 465.872601 118.288268 
L 466.598573 118.605746 
L 467.324545 119.220073 
L 468.050517 118.786583 
L 468.776488 116.605233 
L 469.50246 117.208045 
L 470.228432 116.760106 
L 470.954403 116.618477 
L 470.954403 116.618477 
" style="fill:none;stroke:#ff7f0e;stroke-linecap:square;stroke-width:1.5;"/>
   </g>
   <g id="line2d_3">
    <path clip-path="url(#p4b0a4ced4a)" d="M 65.136222 268.588873 
L 65.862193 281.76358 
L 66.588165 258.157749 
L 67.314137 255.403582 
L 68.040108 248.860856 
L 68.76608 250.189861 
L 69.492052 240.47476 
L 70.218024 261.609973 
L 70.943995 260.144152 
L 71.669967 269.321087 
L 72.395939 256.70327 
L 73.12191 258.708121 
L 73.847882 253.187713 
L 74.573854 249.179194 
L 75.299825 258.622455 
L 76.025797 238.927899 
L 76.751769 248.093204 
L 77.477741 240.56637 
L 78.203712 240.890511 
L 78.929684 249.16052 
L 79.655656 243.564594 
L 80.381627 242.02283 
L 81.107599 243.879657 
L 81.833571 240.760313 
L 82.559542 236.828303 
L 83.285514 239.091123 
L 84.011486 240.010533 
L 84.737458 226.757808 
L 85.463429 225.73824 
L 86.189401 230.207721 
L 86.915373 221.692333 
L 88.367316 218.209757 
L 89.093288 235.457375 
L 89.819259 237.075514 
L 90.545231 227.971744 
L 91.997175 224.86849 
L 92.723146 229.992796 
L 93.449118 227.861676 
L 94.17509 230.228576 
L 94.901061 234.17365 
L 95.627033 228.645163 
L 96.353005 227.335089 
L 97.078977 222.080836 
L 97.804948 240.235119 
L 98.53092 231.401082 
L 99.256892 235.611798 
L 99.982863 228.433431 
L 100.708835 226.512724 
L 101.434807 225.804558 
L 102.160778 224.358283 
L 102.88675 228.535303 
L 103.612722 230.08401 
L 104.338694 229.236 
L 105.064665 226.919487 
L 105.790637 236.336361 
L 106.516609 226.017693 
L 107.24258 221.93233 
L 107.968552 219.032196 
L 108.694524 217.05848 
L 109.420495 220.262073 
L 110.146467 213.742001 
L 110.872439 213.3385 
L 111.598411 213.80307 
L 112.324382 205.831879 
L 113.050354 203.839294 
L 113.776326 204.859448 
L 114.502297 204.000356 
L 115.228269 205.754172 
L 115.954241 210.185178 
L 117.406184 197.590342 
L 118.132156 203.004276 
L 118.858128 200.176065 
L 119.584099 204.397834 
L 120.310071 205.696701 
L 121.036043 204.432156 
L 121.762014 201.086991 
L 122.487986 202.437556 
L 123.213958 205.442959 
L 123.93993 201.524384 
L 124.665901 203.483083 
L 125.391873 202.052952 
L 126.117845 209.606008 
L 126.843816 199.464716 
L 127.569788 201.0701 
L 128.29576 199.238852 
L 129.021731 201.211516 
L 129.747703 201.595683 
L 130.473675 203.235987 
L 131.199647 206.732865 
L 131.925618 199.539278 
L 132.65159 201.752808 
L 133.377562 202.154755 
L 134.103533 208.702852 
L 134.829505 207.730046 
L 135.555477 209.506566 
L 136.281448 211.826006 
L 137.00742 211.158565 
L 137.733392 213.276341 
L 138.459364 216.7182 
L 139.185335 214.810348 
L 139.911307 220.318992 
L 140.637279 217.192911 
L 141.36325 218.471777 
L 142.089222 220.608374 
L 143.541165 223.183684 
L 144.267137 225.716326 
L 144.993109 226.951795 
L 145.719081 235.42803 
L 146.445052 226.501757 
L 147.171024 228.525281 
L 147.896996 219.237368 
L 148.622967 232.904604 
L 149.348939 232.617327 
L 150.074911 228.503567 
L 150.800883 234.362518 
L 151.526854 234.999996 
L 152.252826 229.813359 
L 152.978798 230.41218 
L 153.704769 229.88291 
L 154.430741 225.843842 
L 155.156713 229.813997 
L 155.882684 227.728231 
L 156.608656 227.374103 
L 157.334628 231.980488 
L 158.0606 221.866288 
L 158.786571 221.647502 
L 159.512543 222.353 
L 160.238515 222.66655 
L 160.964486 223.258441 
L 161.690458 222.779987 
L 162.41643 222.972122 
L 163.142401 222.4757 
L 163.868373 222.827559 
L 164.594345 222.106473 
L 165.320317 222.33486 
L 166.046288 221.289222 
L 166.77226 216.708671 
L 167.498232 221.630478 
L 168.224203 218.419563 
L 168.950175 217.659437 
L 169.676147 227.027695 
L 170.402118 221.074255 
L 171.12809 220.270023 
L 171.854062 218.913876 
L 172.580034 218.197108 
L 173.306005 216.680824 
L 174.757949 214.706658 
L 175.48392 210.951644 
L 176.209892 218.174797 
L 176.935864 210.717345 
L 177.661836 220.960948 
L 178.387807 215.727193 
L 179.113779 217.413869 
L 179.839751 216.186251 
L 180.565722 215.985923 
L 182.017666 213.743314 
L 182.743637 213.72837 
L 183.469609 211.575868 
L 184.195581 213.692588 
L 184.921553 212.981148 
L 185.647524 212.925773 
L 186.373496 214.430898 
L 187.099468 211.571551 
L 187.825439 207.860673 
L 188.551411 207.092357 
L 189.277383 205.654634 
L 190.003354 207.946159 
L 190.729326 205.303797 
L 191.455298 204.61703 
L 192.18127 204.773543 
L 192.907241 205.105418 
L 193.633213 206.769435 
L 195.085156 204.822321 
L 195.811128 207.235478 
L 196.5371 203.647082 
L 197.263071 205.697969 
L 197.989043 202.512082 
L 198.715015 200.249022 
L 199.440987 200.800622 
L 200.166958 199.50403 
L 200.89293 197.796544 
L 202.344873 196.239595 
L 203.070845 195.222719 
L 203.796817 196.735616 
L 204.522789 196.147619 
L 205.24876 194.487501 
L 205.974732 193.42326 
L 206.700704 194.58975 
L 207.426675 190.740951 
L 208.152647 188.181117 
L 208.878619 187.04246 
L 209.60459 187.204168 
L 210.330562 189.176545 
L 211.056534 188.556176 
L 211.782506 188.467906 
L 212.508477 190.178735 
L 213.960421 188.26396 
L 214.686392 187.322116 
L 215.412364 186.65212 
L 216.138336 187.338447 
L 216.864307 185.141117 
L 217.590279 186.258108 
L 218.316251 186.200443 
L 219.042223 190.435558 
L 219.768194 188.911105 
L 220.494166 186.97393 
L 221.220138 186.028332 
L 221.946109 186.57845 
L 222.672081 184.27537 
L 223.398053 184.655773 
L 224.124024 184.091347 
L 225.575968 181.389463 
L 226.30194 179.725347 
L 227.027911 178.811639 
L 227.753883 177.250308 
L 228.479855 177.085715 
L 229.205826 176.686182 
L 229.931798 173.43483 
L 230.65777 172.493953 
L 231.383742 172.601933 
L 232.109713 171.319069 
L 232.835685 169.208348 
L 234.287628 168.648456 
L 235.0136 166.016825 
L 235.739572 168.833322 
L 236.465543 166.110737 
L 237.191515 169.260518 
L 237.917487 164.928105 
L 238.643459 166.231862 
L 239.36943 165.000595 
L 240.095402 164.331923 
L 240.821374 164.936783 
L 241.547345 164.213793 
L 242.273317 162.655832 
L 242.999289 163.211499 
L 243.72526 165.347246 
L 244.451232 164.817698 
L 245.177204 165.440855 
L 245.903176 162.844906 
L 246.629147 161.461961 
L 247.355119 160.346549 
L 248.081091 159.507662 
L 248.807062 161.880817 
L 249.533034 163.749987 
L 250.259006 162.690733 
L 250.984977 165.123858 
L 251.710949 160.237828 
L 252.436921 158.869604 
L 253.162893 160.542868 
L 253.888864 157.860187 
L 254.614836 156.668974 
L 255.340808 156.953793 
L 256.066779 155.687849 
L 256.792751 156.438999 
L 257.518723 156.171126 
L 259.696638 152.887171 
L 260.42261 152.248867 
L 261.148581 152.677219 
L 261.874553 149.648553 
L 262.600525 148.01297 
L 263.326496 151.128981 
L 264.052468 151.32872 
L 264.77844 149.606597 
L 265.504412 150.868756 
L 266.230383 149.112032 
L 266.956355 147.912904 
L 267.682327 148.440941 
L 268.408298 148.627288 
L 269.13427 148.395966 
L 269.860242 149.006258 
L 270.586213 147.623823 
L 271.312185 147.263206 
L 272.038157 147.051063 
L 272.764129 147.890211 
L 273.4901 147.914897 
L 274.216072 148.188073 
L 274.942044 147.777736 
L 275.668015 147.072001 
L 276.393987 147.142942 
L 277.119959 147.093128 
L 277.84593 147.524683 
L 278.571902 150.06286 
L 279.297874 149.688714 
L 280.023846 147.766771 
L 280.749817 146.481026 
L 281.475789 146.259386 
L 282.201761 147.323851 
L 282.927732 148.658536 
L 283.653704 148.403537 
L 284.379676 148.937648 
L 285.105648 149.004208 
L 285.831619 148.143844 
L 286.557591 147.956596 
L 287.283563 147.380147 
L 288.009534 145.481474 
L 288.735506 146.295255 
L 289.461478 143.689183 
L 290.187449 143.645738 
L 290.913421 143.723233 
L 291.639393 142.980629 
L 292.365365 144.038737 
L 293.091336 141.852576 
L 294.54328 141.950907 
L 295.269251 142.752244 
L 296.721195 143.731113 
L 297.447166 144.487398 
L 298.173138 145.425717 
L 299.625082 145.93794 
L 300.351053 145.997003 
L 301.077025 146.507481 
L 301.802997 146.757468 
L 303.25494 146.941709 
L 303.980912 146.643398 
L 304.706883 150.136266 
L 305.432855 150.333331 
L 306.158827 149.406893 
L 306.884799 150.960222 
L 307.61077 148.672946 
L 308.336742 150.458852 
L 309.062714 151.428795 
L 309.788685 150.557627 
L 310.514657 149.9207 
L 311.966601 149.997424 
L 312.692572 147.845589 
L 313.418544 150.254464 
L 314.144516 147.334201 
L 314.870487 147.190892 
L 315.596459 146.62278 
L 316.322431 146.481737 
L 317.048402 146.751839 
L 317.774374 146.415277 
L 318.500346 145.922421 
L 319.226318 146.256645 
L 319.952289 145.607057 
L 321.404233 144.751908 
L 322.856176 144.785357 
L 323.582148 144.517376 
L 324.308119 143.830177 
L 325.034091 144.5251 
L 326.486035 143.959085 
L 327.212006 143.375375 
L 327.937978 144.338435 
L 328.66395 140.922527 
L 329.389921 139.965967 
L 330.115893 140.04813 
L 330.841865 140.581836 
L 331.567836 141.60551 
L 332.293808 139.425749 
L 333.01978 138.636094 
L 333.745752 138.917318 
L 334.471723 139.47042 
L 335.197695 139.488184 
L 335.923667 142.521956 
L 336.649638 141.419419 
L 337.37561 142.389554 
L 338.101582 144.464284 
L 340.279497 144.597689 
L 341.005469 144.617391 
L 341.73144 144.321053 
L 342.457412 145.143726 
L 343.183384 146.880519 
L 343.909355 147.098488 
L 344.635327 147.465586 
L 345.361299 146.868394 
L 346.087271 146.684834 
L 346.813242 147.40887 
L 347.539214 145.436715 
L 348.991157 144.994286 
L 349.717129 144.590974 
L 351.169072 146.264232 
L 351.895044 145.033186 
L 352.621016 144.43671 
L 353.346988 144.363163 
L 354.072959 143.144604 
L 354.798931 143.011765 
L 355.524903 141.765733 
L 356.250874 141.627009 
L 356.976846 141.931751 
L 357.702818 141.763551 
L 358.428789 142.019828 
L 359.154761 142.440148 
L 359.880733 142.227071 
L 360.606705 143.071926 
L 361.332676 144.464035 
L 362.058648 143.826129 
L 363.510591 144.421858 
L 364.236563 144.27762 
L 364.962535 144.734824 
L 365.688507 144.038677 
L 366.414478 144.119483 
L 367.14045 144.522612 
L 367.866422 144.632973 
L 368.592393 142.176445 
L 369.318365 143.202902 
L 370.044337 145.789058 
L 370.770308 143.954396 
L 371.49628 142.635267 
L 372.948224 143.087316 
L 373.674195 143.532854 
L 374.400167 143.76864 
L 375.85211 142.39602 
L 376.578082 142.066348 
L 377.304054 140.74575 
L 378.030025 141.489558 
L 378.755997 141.573193 
L 379.481969 143.384574 
L 380.207941 146.173829 
L 380.933912 146.558714 
L 381.659884 145.255149 
L 382.385856 145.519896 
L 383.111827 148.28637 
L 383.837799 148.544364 
L 384.563771 147.282272 
L 385.289742 146.972655 
L 386.015714 146.974149 
L 386.741686 147.951335 
L 387.467658 148.428204 
L 388.193629 148.275789 
L 388.919601 148.969879 
L 389.645573 148.851398 
L 390.371544 148.48085 
L 391.097516 148.647076 
L 391.823488 148.365309 
L 392.54946 148.874558 
L 393.275431 148.998054 
L 394.001403 149.661735 
L 394.727375 150.026723 
L 396.179318 151.47069 
L 396.90529 149.565301 
L 397.631261 149.302599 
L 398.357233 149.600956 
L 399.083205 149.167181 
L 399.809177 149.323352 
L 400.535148 150.358083 
L 401.26112 149.853387 
L 401.987092 148.476194 
L 402.713063 148.426045 
L 404.165007 150.466516 
L 405.61695 155.366275 
L 406.342922 156.945607 
L 407.068894 156.692855 
L 407.794865 156.753684 
L 408.520837 155.248479 
L 409.246809 155.071007 
L 409.97278 157.694086 
L 411.424724 159.421077 
L 412.150695 159.51701 
L 413.602639 161.225308 
L 414.328611 159.962022 
L 415.054582 157.734241 
L 415.780554 158.620263 
L 416.506526 159.252262 
L 417.232497 159.170895 
L 417.958469 158.627323 
L 418.684441 158.517659 
L 419.410413 159.14636 
L 420.136384 159.237554 
L 420.862356 158.7226 
L 421.588328 158.590328 
L 423.040271 159.035397 
L 424.492214 156.72033 
L 425.218186 156.790227 
L 425.944158 158.643309 
L 426.67013 158.763318 
L 427.396101 158.731353 
L 428.122073 156.471409 
L 428.848045 155.954202 
L 429.574016 153.602033 
L 430.299988 154.121525 
L 431.02596 155.209367 
L 431.751931 154.927679 
L 432.477903 155.834268 
L 433.203875 155.812501 
L 434.655818 154.863194 
L 435.38179 156.020926 
L 436.107762 154.760991 
L 436.833733 156.005973 
L 437.559705 155.221657 
L 438.285677 155.369445 
L 439.011648 154.760057 
L 439.73762 155.074329 
L 440.463592 152.602952 
L 441.189564 152.96933 
L 441.915535 155.177817 
L 442.641507 155.927025 
L 443.367479 157.761142 
L 444.09345 158.030915 
L 444.819422 159.571378 
L 445.545394 159.743453 
L 446.271366 157.801125 
L 446.997337 158.454655 
L 447.723309 158.777349 
L 448.449281 157.844081 
L 449.175252 158.806763 
L 449.901224 158.059857 
L 450.627196 158.411255 
L 451.353167 157.069375 
L 452.079139 157.827349 
L 452.805111 156.814406 
L 454.257054 156.910222 
L 454.983026 154.37967 
L 455.708998 154.468805 
L 456.434969 155.734316 
L 457.160941 155.849732 
L 457.886913 153.823822 
L 458.612884 153.544994 
L 459.338856 154.03755 
L 460.064828 155.114116 
L 460.7908 154.375966 
L 461.516771 155.709882 
L 462.968715 155.611989 
L 463.694686 154.677607 
L 464.420658 154.193216 
L 465.14663 154.570011 
L 465.872601 152.411237 
L 466.598573 152.400334 
L 467.324545 153.646468 
L 468.050517 152.756436 
L 468.776488 150.549987 
L 469.50246 150.646889 
L 470.228432 148.643871 
L 470.954403 149.057898 
L 470.954403 149.057898 
" style="fill:none;stroke:#2ca02c;stroke-linecap:square;stroke-width:1.5;"/>
   </g>
   <g id="line2d_4">
    <path clip-path="url(#p4b0a4ced4a)" d="M 65.136222 110.39609 
L 470.954403 110.39609 
L 470.954403 110.39609 
" style="fill:none;stroke:#000000;stroke-dasharray:3.7,1.6;stroke-dashoffset:0;"/>
   </g>
   <g id="matplotlib.axis_1">
    <g id="xtick_1">
     <g id="line2d_5">
      <defs>
       <path d="M 0 0 
L 0 3.5 
" id="mcab38bc6b0" style="stroke:#000000;stroke-width:0.8;"/>
      </defs>
      <g>
       <use style="stroke:#000000;stroke-width:0.8;" x="86.189401" xlink:href="#mcab38bc6b0" y="294.118125"/>
      </g>
     </g>
     <g id="text_1">
      <!-- 100 -->
      <defs>
       <path d="M 12.40625 8.296875 
L 28.515625 8.296875 
L 28.515625 63.921875 
L 10.984375 60.40625 
L 10.984375 69.390625 
L 28.421875 72.90625 
L 38.28125 72.90625 
L 38.28125 8.296875 
L 54.390625 8.296875 
L 54.390625 0 
L 12.40625 0 
z
" id="DejaVuSans-49"/>
       <path d="M 31.78125 66.40625 
Q 24.171875 66.40625 20.328125 58.90625 
Q 16.5 51.421875 16.5 36.375 
Q 16.5 21.390625 20.328125 13.890625 
Q 24.171875 6.390625 31.78125 6.390625 
Q 39.453125 6.390625 43.28125 13.890625 
Q 47.125 21.390625 47.125 36.375 
Q 47.125 51.421875 43.28125 58.90625 
Q 39.453125 66.40625 31.78125 66.40625 
z
M 31.78125 74.21875 
Q 44.046875 74.21875 50.515625 64.515625 
Q 56.984375 54.828125 56.984375 36.375 
Q 56.984375 17.96875 50.515625 8.265625 
Q 44.046875 -1.421875 31.78125 -1.421875 
Q 19.53125 -1.421875 13.0625 8.265625 
Q 6.59375 17.96875 6.59375 36.375 
Q 6.59375 54.828125 13.0625 64.515625 
Q 19.53125 74.21875 31.78125 74.21875 
z
" id="DejaVuSans-48"/>
      </defs>
      <g transform="translate(76.645651 308.716563)scale(0.1 -0.1)">
       <use xlink:href="#DejaVuSans-49"/>
       <use x="63.623047" xlink:href="#DejaVuSans-48"/>
       <use x="127.246094" xlink:href="#DejaVuSans-48"/>
      </g>
     </g>
    </g>
    <g id="xtick_2">
     <g id="line2d_6">
      <g>
       <use style="stroke:#000000;stroke-width:0.8;" x="158.786571" xlink:href="#mcab38bc6b0" y="294.118125"/>
      </g>
     </g>
     <g id="text_2">
      <!-- 200 -->
      <defs>
       <path d="M 19.1875 8.296875 
L 53.609375 8.296875 
L 53.609375 0 
L 7.328125 0 
L 7.328125 8.296875 
Q 12.9375 14.109375 22.625 23.890625 
Q 32.328125 33.6875 34.8125 36.53125 
Q 39.546875 41.84375 41.421875 45.53125 
Q 43.3125 49.21875 43.3125 52.78125 
Q 43.3125 58.59375 39.234375 62.25 
Q 35.15625 65.921875 28.609375 65.921875 
Q 23.96875 65.921875 18.8125 64.3125 
Q 13.671875 62.703125 7.8125 59.421875 
L 7.8125 69.390625 
Q 13.765625 71.78125 18.9375 73 
Q 24.125 74.21875 28.421875 74.21875 
Q 39.75 74.21875 46.484375 68.546875 
Q 53.21875 62.890625 53.21875 53.421875 
Q 53.21875 48.921875 51.53125 44.890625 
Q 49.859375 40.875 45.40625 35.40625 
Q 44.1875 33.984375 37.640625 27.21875 
Q 31.109375 20.453125 19.1875 8.296875 
z
" id="DejaVuSans-50"/>
      </defs>
      <g transform="translate(149.242821 308.716563)scale(0.1 -0.1)">
       <use xlink:href="#DejaVuSans-50"/>
       <use x="63.623047" xlink:href="#DejaVuSans-48"/>
       <use x="127.246094" xlink:href="#DejaVuSans-48"/>
      </g>
     </g>
    </g>
    <g id="xtick_3">
     <g id="line2d_7">
      <g>
       <use style="stroke:#000000;stroke-width:0.8;" x="231.383742" xlink:href="#mcab38bc6b0" y="294.118125"/>
      </g>
     </g>
     <g id="text_3">
      <!-- 300 -->
      <defs>
       <path d="M 40.578125 39.3125 
Q 47.65625 37.796875 51.625 33 
Q 55.609375 28.21875 55.609375 21.1875 
Q 55.609375 10.40625 48.1875 4.484375 
Q 40.765625 -1.421875 27.09375 -1.421875 
Q 22.515625 -1.421875 17.65625 -0.515625 
Q 12.796875 0.390625 7.625 2.203125 
L 7.625 11.71875 
Q 11.71875 9.328125 16.59375 8.109375 
Q 21.484375 6.890625 26.8125 6.890625 
Q 36.078125 6.890625 40.9375 10.546875 
Q 45.796875 14.203125 45.796875 21.1875 
Q 45.796875 27.640625 41.28125 31.265625 
Q 36.765625 34.90625 28.71875 34.90625 
L 20.21875 34.90625 
L 20.21875 43.015625 
L 29.109375 43.015625 
Q 36.375 43.015625 40.234375 45.921875 
Q 44.09375 48.828125 44.09375 54.296875 
Q 44.09375 59.90625 40.109375 62.90625 
Q 36.140625 65.921875 28.71875 65.921875 
Q 24.65625 65.921875 20.015625 65.03125 
Q 15.375 64.15625 9.8125 62.3125 
L 9.8125 71.09375 
Q 15.4375 72.65625 20.34375 73.4375 
Q 25.25 74.21875 29.59375 74.21875 
Q 40.828125 74.21875 47.359375 69.109375 
Q 53.90625 64.015625 53.90625 55.328125 
Q 53.90625 49.265625 50.4375 45.09375 
Q 46.96875 40.921875 40.578125 39.3125 
z
" id="DejaVuSans-51"/>
      </defs>
      <g transform="translate(221.839992 308.716563)scale(0.1 -0.1)">
       <use xlink:href="#DejaVuSans-51"/>
       <use x="63.623047" xlink:href="#DejaVuSans-48"/>
       <use x="127.246094" xlink:href="#DejaVuSans-48"/>
      </g>
     </g>
    </g>
    <g id="xtick_4">
     <g id="line2d_8">
      <g>
       <use style="stroke:#000000;stroke-width:0.8;" x="303.980912" xlink:href="#mcab38bc6b0" y="294.118125"/>
      </g>
     </g>
     <g id="text_4">
      <!-- 400 -->
      <defs>
       <path d="M 37.796875 64.3125 
L 12.890625 25.390625 
L 37.796875 25.390625 
z
M 35.203125 72.90625 
L 47.609375 72.90625 
L 47.609375 25.390625 
L 58.015625 25.390625 
L 58.015625 17.1875 
L 47.609375 17.1875 
L 47.609375 0 
L 37.796875 0 
L 37.796875 17.1875 
L 4.890625 17.1875 
L 4.890625 26.703125 
z
" id="DejaVuSans-52"/>
      </defs>
      <g transform="translate(294.437162 308.716563)scale(0.1 -0.1)">
       <use xlink:href="#DejaVuSans-52"/>
       <use x="63.623047" xlink:href="#DejaVuSans-48"/>
       <use x="127.246094" xlink:href="#DejaVuSans-48"/>
      </g>
     </g>
    </g>
    <g id="xtick_5">
     <g id="line2d_9">
      <g>
       <use style="stroke:#000000;stroke-width:0.8;" x="376.578082" xlink:href="#mcab38bc6b0" y="294.118125"/>
      </g>
     </g>
     <g id="text_5">
      <!-- 500 -->
      <defs>
       <path d="M 10.796875 72.90625 
L 49.515625 72.90625 
L 49.515625 64.59375 
L 19.828125 64.59375 
L 19.828125 46.734375 
Q 21.96875 47.46875 24.109375 47.828125 
Q 26.265625 48.1875 28.421875 48.1875 
Q 40.625 48.1875 47.75 41.5 
Q 54.890625 34.8125 54.890625 23.390625 
Q 54.890625 11.625 47.5625 5.09375 
Q 40.234375 -1.421875 26.90625 -1.421875 
Q 22.3125 -1.421875 17.546875 -0.640625 
Q 12.796875 0.140625 7.71875 1.703125 
L 7.71875 11.625 
Q 12.109375 9.234375 16.796875 8.0625 
Q 21.484375 6.890625 26.703125 6.890625 
Q 35.15625 6.890625 40.078125 11.328125 
Q 45.015625 15.765625 45.015625 23.390625 
Q 45.015625 31 40.078125 35.4375 
Q 35.15625 39.890625 26.703125 39.890625 
Q 22.75 39.890625 18.8125 39.015625 
Q 14.890625 38.140625 10.796875 36.28125 
z
" id="DejaVuSans-53"/>
      </defs>
      <g transform="translate(367.034332 308.716563)scale(0.1 -0.1)">
       <use xlink:href="#DejaVuSans-53"/>
       <use x="63.623047" xlink:href="#DejaVuSans-48"/>
       <use x="127.246094" xlink:href="#DejaVuSans-48"/>
      </g>
     </g>
    </g>
    <g id="xtick_6">
     <g id="line2d_10">
      <g>
       <use style="stroke:#000000;stroke-width:0.8;" x="449.175252" xlink:href="#mcab38bc6b0" y="294.118125"/>
      </g>
     </g>
     <g id="text_6">
      <!-- 600 -->
      <defs>
       <path d="M 33.015625 40.375 
Q 26.375 40.375 22.484375 35.828125 
Q 18.609375 31.296875 18.609375 23.390625 
Q 18.609375 15.53125 22.484375 10.953125 
Q 26.375 6.390625 33.015625 6.390625 
Q 39.65625 6.390625 43.53125 10.953125 
Q 47.40625 15.53125 47.40625 23.390625 
Q 47.40625 31.296875 43.53125 35.828125 
Q 39.65625 40.375 33.015625 40.375 
z
M 52.59375 71.296875 
L 52.59375 62.3125 
Q 48.875 64.0625 45.09375 64.984375 
Q 41.3125 65.921875 37.59375 65.921875 
Q 27.828125 65.921875 22.671875 59.328125 
Q 17.53125 52.734375 16.796875 39.40625 
Q 19.671875 43.65625 24.015625 45.921875 
Q 28.375 48.1875 33.59375 48.1875 
Q 44.578125 48.1875 50.953125 41.515625 
Q 57.328125 34.859375 57.328125 23.390625 
Q 57.328125 12.15625 50.6875 5.359375 
Q 44.046875 -1.421875 33.015625 -1.421875 
Q 20.359375 -1.421875 13.671875 8.265625 
Q 6.984375 17.96875 6.984375 36.375 
Q 6.984375 53.65625 15.1875 63.9375 
Q 23.390625 74.21875 37.203125 74.21875 
Q 40.921875 74.21875 44.703125 73.484375 
Q 48.484375 72.75 52.59375 71.296875 
z
" id="DejaVuSans-54"/>
      </defs>
      <g transform="translate(439.631502 308.716563)scale(0.1 -0.1)">
       <use xlink:href="#DejaVuSans-54"/>
       <use x="63.623047" xlink:href="#DejaVuSans-48"/>
       <use x="127.246094" xlink:href="#DejaVuSans-48"/>
      </g>
     </g>
    </g>
    <g id="text_7">
     <!-- Tempo -->
     <defs>
      <path d="M -0.296875 72.90625 
L 61.375 72.90625 
L 61.375 64.59375 
L 35.5 64.59375 
L 35.5 0 
L 25.59375 0 
L 25.59375 64.59375 
L -0.296875 64.59375 
z
" id="DejaVuSans-84"/>
      <path d="M 56.203125 29.59375 
L 56.203125 25.203125 
L 14.890625 25.203125 
Q 15.484375 15.921875 20.484375 11.0625 
Q 25.484375 6.203125 34.421875 6.203125 
Q 39.59375 6.203125 44.453125 7.46875 
Q 49.3125 8.734375 54.109375 11.28125 
L 54.109375 2.78125 
Q 49.265625 0.734375 44.1875 -0.34375 
Q 39.109375 -1.421875 33.890625 -1.421875 
Q 20.796875 -1.421875 13.15625 6.1875 
Q 5.515625 13.8125 5.515625 26.8125 
Q 5.515625 40.234375 12.765625 48.109375 
Q 20.015625 56 32.328125 56 
Q 43.359375 56 49.78125 48.890625 
Q 56.203125 41.796875 56.203125 29.59375 
z
M 47.21875 32.234375 
Q 47.125 39.59375 43.09375 43.984375 
Q 39.0625 48.390625 32.421875 48.390625 
Q 24.90625 48.390625 20.390625 44.140625 
Q 15.875 39.890625 15.1875 32.171875 
z
" id="DejaVuSans-101"/>
      <path d="M 52 44.1875 
Q 55.375 50.25 60.0625 53.125 
Q 64.75 56 71.09375 56 
Q 79.640625 56 84.28125 50.015625 
Q 88.921875 44.046875 88.921875 33.015625 
L 88.921875 0 
L 79.890625 0 
L 79.890625 32.71875 
Q 79.890625 40.578125 77.09375 44.375 
Q 74.3125 48.1875 68.609375 48.1875 
Q 61.625 48.1875 57.5625 43.546875 
Q 53.515625 38.921875 53.515625 30.90625 
L 53.515625 0 
L 44.484375 0 
L 44.484375 32.71875 
Q 44.484375 40.625 41.703125 44.40625 
Q 38.921875 48.1875 33.109375 48.1875 
Q 26.21875 48.1875 22.15625 43.53125 
Q 18.109375 38.875 18.109375 30.90625 
L 18.109375 0 
L 9.078125 0 
L 9.078125 54.6875 
L 18.109375 54.6875 
L 18.109375 46.1875 
Q 21.1875 51.21875 25.484375 53.609375 
Q 29.78125 56 35.6875 56 
Q 41.65625 56 45.828125 52.96875 
Q 50 49.953125 52 44.1875 
z
" id="DejaVuSans-109"/>
      <path d="M 18.109375 8.203125 
L 18.109375 -20.796875 
L 9.078125 -20.796875 
L 9.078125 54.6875 
L 18.109375 54.6875 
L 18.109375 46.390625 
Q 20.953125 51.265625 25.265625 53.625 
Q 29.59375 56 35.59375 56 
Q 45.5625 56 51.78125 48.09375 
Q 58.015625 40.1875 58.015625 27.296875 
Q 58.015625 14.40625 51.78125 6.484375 
Q 45.5625 -1.421875 35.59375 -1.421875 
Q 29.59375 -1.421875 25.265625 0.953125 
Q 20.953125 3.328125 18.109375 8.203125 
z
M 48.6875 27.296875 
Q 48.6875 37.203125 44.609375 42.84375 
Q 40.53125 48.484375 33.40625 48.484375 
Q 26.265625 48.484375 22.1875 42.84375 
Q 18.109375 37.203125 18.109375 27.296875 
Q 18.109375 17.390625 22.1875 11.75 
Q 26.265625 6.109375 33.40625 6.109375 
Q 40.53125 6.109375 44.609375 11.75 
Q 48.6875 17.390625 48.6875 27.296875 
z
" id="DejaVuSans-112"/>
      <path d="M 30.609375 48.390625 
Q 23.390625 48.390625 19.1875 42.75 
Q 14.984375 37.109375 14.984375 27.296875 
Q 14.984375 17.484375 19.15625 11.84375 
Q 23.34375 6.203125 30.609375 6.203125 
Q 37.796875 6.203125 41.984375 11.859375 
Q 46.1875 17.53125 46.1875 27.296875 
Q 46.1875 37.015625 41.984375 42.703125 
Q 37.796875 48.390625 30.609375 48.390625 
z
M 30.609375 56 
Q 42.328125 56 49.015625 48.375 
Q 55.71875 40.765625 55.71875 27.296875 
Q 55.71875 13.875 49.015625 6.21875 
Q 42.328125 -1.421875 30.609375 -1.421875 
Q 18.84375 -1.421875 12.171875 6.21875 
Q 5.515625 13.875 5.515625 27.296875 
Q 5.515625 40.765625 12.171875 48.375 
Q 18.84375 56 30.609375 56 
z
" id="DejaVuSans-111"/>
     </defs>
     <g transform="translate(251.660938 322.394687)scale(0.1 -0.1)">
      <use xlink:href="#DejaVuSans-84"/>
      <use x="44.083984" xlink:href="#DejaVuSans-101"/>
      <use x="105.607422" xlink:href="#DejaVuSans-109"/>
      <use x="203.019531" xlink:href="#DejaVuSans-112"/>
      <use x="266.496094" xlink:href="#DejaVuSans-111"/>
     </g>
    </g>
   </g>
   <g id="matplotlib.axis_2">
    <g id="ytick_1">
     <g id="line2d_11">
      <defs>
       <path d="M 0 0 
L -3.5 0 
" id="m8735e06446" style="stroke:#000000;stroke-width:0.8;"/>
      </defs>
      <g>
       <use style="stroke:#000000;stroke-width:0.8;" x="44.845313" xlink:href="#m8735e06446" y="264.480473"/>
      </g>
     </g>
     <g id="text_8">
      <!-- 0.10 -->
      <defs>
       <path d="M 10.59375 35.5 
L 73.1875 35.5 
L 73.1875 27.203125 
L 10.59375 27.203125 
z
" id="DejaVuSans-8722"/>
       <path d="M 10.6875 12.40625 
L 21 12.40625 
L 21 0 
L 10.6875 0 
z
" id="DejaVuSans-46"/>
      </defs>
      <g transform="translate(7.2 268.279691)scale(0.1 -0.1)">
       <use xlink:href="#DejaVuSans-8722"/>
       <use x="83.789062" xlink:href="#DejaVuSans-48"/>
       <use x="147.412109" xlink:href="#DejaVuSans-46"/>
       <use x="179.199219" xlink:href="#DejaVuSans-49"/>
       <use x="242.822266" xlink:href="#DejaVuSans-48"/>
      </g>
     </g>
    </g>
    <g id="ytick_2">
     <g id="line2d_12">
      <g>
       <use style="stroke:#000000;stroke-width:0.8;" x="44.845313" xlink:href="#m8735e06446" y="233.663596"/>
      </g>
     </g>
     <g id="text_9">
      <!-- 0.08 -->
      <defs>
       <path d="M 31.78125 34.625 
Q 24.75 34.625 20.71875 30.859375 
Q 16.703125 27.09375 16.703125 20.515625 
Q 16.703125 13.921875 20.71875 10.15625 
Q 24.75 6.390625 31.78125 6.390625 
Q 38.8125 6.390625 42.859375 10.171875 
Q 46.921875 13.96875 46.921875 20.515625 
Q 46.921875 27.09375 42.890625 30.859375 
Q 38.875 34.625 31.78125 34.625 
z
M 21.921875 38.8125 
Q 15.578125 40.375 12.03125 44.71875 
Q 8.5 49.078125 8.5 55.328125 
Q 8.5 64.0625 14.71875 69.140625 
Q 20.953125 74.21875 31.78125 74.21875 
Q 42.671875 74.21875 48.875 69.140625 
Q 55.078125 64.0625 55.078125 55.328125 
Q 55.078125 49.078125 51.53125 44.71875 
Q 48 40.375 41.703125 38.8125 
Q 48.828125 37.15625 52.796875 32.3125 
Q 56.78125 27.484375 56.78125 20.515625 
Q 56.78125 9.90625 50.3125 4.234375 
Q 43.84375 -1.421875 31.78125 -1.421875 
Q 19.734375 -1.421875 13.25 4.234375 
Q 6.78125 9.90625 6.78125 20.515625 
Q 6.78125 27.484375 10.78125 32.3125 
Q 14.796875 37.15625 21.921875 38.8125 
z
M 18.3125 54.390625 
Q 18.3125 48.734375 21.84375 45.5625 
Q 25.390625 42.390625 31.78125 42.390625 
Q 38.140625 42.390625 41.71875 45.5625 
Q 45.3125 48.734375 45.3125 54.390625 
Q 45.3125 60.0625 41.71875 63.234375 
Q 38.140625 66.40625 31.78125 66.40625 
Q 25.390625 66.40625 21.84375 63.234375 
Q 18.3125 60.0625 18.3125 54.390625 
z
" id="DejaVuSans-56"/>
      </defs>
      <g transform="translate(7.2 237.462815)scale(0.1 -0.1)">
       <use xlink:href="#DejaVuSans-8722"/>
       <use x="83.789062" xlink:href="#DejaVuSans-48"/>
       <use x="147.412109" xlink:href="#DejaVuSans-46"/>
       <use x="179.199219" xlink:href="#DejaVuSans-48"/>
       <use x="242.822266" xlink:href="#DejaVuSans-56"/>
      </g>
     </g>
    </g>
    <g id="ytick_3">
     <g id="line2d_13">
      <g>
       <use style="stroke:#000000;stroke-width:0.8;" x="44.845313" xlink:href="#m8735e06446" y="202.84672"/>
      </g>
     </g>
     <g id="text_10">
      <!-- 0.06 -->
      <g transform="translate(7.2 206.645938)scale(0.1 -0.1)">
       <use xlink:href="#DejaVuSans-8722"/>
       <use x="83.789062" xlink:href="#DejaVuSans-48"/>
       <use x="147.412109" xlink:href="#DejaVuSans-46"/>
       <use x="179.199219" xlink:href="#DejaVuSans-48"/>
       <use x="242.822266" xlink:href="#DejaVuSans-54"/>
      </g>
     </g>
    </g>
    <g id="ytick_4">
     <g id="line2d_14">
      <g>
       <use style="stroke:#000000;stroke-width:0.8;" x="44.845313" xlink:href="#m8735e06446" y="172.029843"/>
      </g>
     </g>
     <g id="text_11">
      <!-- 0.04 -->
      <g transform="translate(7.2 175.829062)scale(0.1 -0.1)">
       <use xlink:href="#DejaVuSans-8722"/>
       <use x="83.789062" xlink:href="#DejaVuSans-48"/>
       <use x="147.412109" xlink:href="#DejaVuSans-46"/>
       <use x="179.199219" xlink:href="#DejaVuSans-48"/>
       <use x="242.822266" xlink:href="#DejaVuSans-52"/>
      </g>
     </g>
    </g>
    <g id="ytick_5">
     <g id="line2d_15">
      <g>
       <use style="stroke:#000000;stroke-width:0.8;" x="44.845313" xlink:href="#m8735e06446" y="141.212967"/>
      </g>
     </g>
     <g id="text_12">
      <!-- 0.02 -->
      <g transform="translate(7.2 145.012185)scale(0.1 -0.1)">
       <use xlink:href="#DejaVuSans-8722"/>
       <use x="83.789062" xlink:href="#DejaVuSans-48"/>
       <use x="147.412109" xlink:href="#DejaVuSans-46"/>
       <use x="179.199219" xlink:href="#DejaVuSans-48"/>
       <use x="242.822266" xlink:href="#DejaVuSans-50"/>
      </g>
     </g>
    </g>
    <g id="ytick_6">
     <g id="line2d_16">
      <g>
       <use style="stroke:#000000;stroke-width:0.8;" x="44.845313" xlink:href="#m8735e06446" y="110.39609"/>
      </g>
     </g>
     <g id="text_13">
      <!-- 0.00 -->
      <g transform="translate(15.579688 114.195309)scale(0.1 -0.1)">
       <use xlink:href="#DejaVuSans-48"/>
       <use x="63.623047" xlink:href="#DejaVuSans-46"/>
       <use x="95.410156" xlink:href="#DejaVuSans-48"/>
       <use x="159.033203" xlink:href="#DejaVuSans-48"/>
      </g>
     </g>
    </g>
    <g id="ytick_7">
     <g id="line2d_17">
      <g>
       <use style="stroke:#000000;stroke-width:0.8;" x="44.845313" xlink:href="#m8735e06446" y="79.579214"/>
      </g>
     </g>
     <g id="text_14">
      <!-- 0.02 -->
      <g transform="translate(15.579688 83.378432)scale(0.1 -0.1)">
       <use xlink:href="#DejaVuSans-48"/>
       <use x="63.623047" xlink:href="#DejaVuSans-46"/>
       <use x="95.410156" xlink:href="#DejaVuSans-48"/>
       <use x="159.033203" xlink:href="#DejaVuSans-50"/>
      </g>
     </g>
    </g>
    <g id="ytick_8">
     <g id="line2d_18">
      <g>
       <use style="stroke:#000000;stroke-width:0.8;" x="44.845313" xlink:href="#m8735e06446" y="48.762337"/>
      </g>
     </g>
     <g id="text_15">
      <!-- 0.04 -->
      <g transform="translate(15.579688 52.561556)scale(0.1 -0.1)">
       <use xlink:href="#DejaVuSans-48"/>
       <use x="63.623047" xlink:href="#DejaVuSans-46"/>
       <use x="95.410156" xlink:href="#DejaVuSans-48"/>
       <use x="159.033203" xlink:href="#DejaVuSans-52"/>
      </g>
     </g>
    </g>
   </g>
   <g id="patch_3">
    <path d="M 44.845313 294.118125 
L 44.845313 22.318125 
" style="fill:none;stroke:#000000;stroke-linecap:square;stroke-linejoin:miter;stroke-width:0.8;"/>
   </g>
   <g id="patch_4">
    <path d="M 44.845313 294.118125 
L 491.245312 294.118125 
" style="fill:none;stroke:#000000;stroke-linecap:square;stroke-linejoin:miter;stroke-width:0.8;"/>
   </g>
   <g id="text_16">
    <!-- Mw_total -->
    <defs>
     <path d="M 9.8125 72.90625 
L 24.515625 72.90625 
L 43.109375 23.296875 
L 61.8125 72.90625 
L 76.515625 72.90625 
L 76.515625 0 
L 66.890625 0 
L 66.890625 64.015625 
L 48.09375 14.015625 
L 38.1875 14.015625 
L 19.390625 64.015625 
L 19.390625 0 
L 9.8125 0 
z
" id="DejaVuSans-77"/>
     <path d="M 4.203125 54.6875 
L 13.1875 54.6875 
L 24.421875 12.015625 
L 35.59375 54.6875 
L 46.1875 54.6875 
L 57.421875 12.015625 
L 68.609375 54.6875 
L 77.59375 54.6875 
L 63.28125 0 
L 52.6875 0 
L 40.921875 44.828125 
L 29.109375 0 
L 18.5 0 
z
" id="DejaVuSans-119"/>
     <path d="M 50.984375 -16.609375 
L 50.984375 -23.578125 
L -0.984375 -23.578125 
L -0.984375 -16.609375 
z
" id="DejaVuSans-95"/>
     <path d="M 18.3125 70.21875 
L 18.3125 54.6875 
L 36.8125 54.6875 
L 36.8125 47.703125 
L 18.3125 47.703125 
L 18.3125 18.015625 
Q 18.3125 11.328125 20.140625 9.421875 
Q 21.96875 7.515625 27.59375 7.515625 
L 36.8125 7.515625 
L 36.8125 0 
L 27.59375 0 
Q 17.1875 0 13.234375 3.875 
Q 9.28125 7.765625 9.28125 18.015625 
L 9.28125 47.703125 
L 2.6875 47.703125 
L 2.6875 54.6875 
L 9.28125 54.6875 
L 9.28125 70.21875 
z
" id="DejaVuSans-116"/>
     <path d="M 34.28125 27.484375 
Q 23.390625 27.484375 19.1875 25 
Q 14.984375 22.515625 14.984375 16.5 
Q 14.984375 11.71875 18.140625 8.90625 
Q 21.296875 6.109375 26.703125 6.109375 
Q 34.1875 6.109375 38.703125 11.40625 
Q 43.21875 16.703125 43.21875 25.484375 
L 43.21875 27.484375 
z
M 52.203125 31.203125 
L 52.203125 0 
L 43.21875 0 
L 43.21875 8.296875 
Q 40.140625 3.328125 35.546875 0.953125 
Q 30.953125 -1.421875 24.3125 -1.421875 
Q 15.921875 -1.421875 10.953125 3.296875 
Q 6 8.015625 6 15.921875 
Q 6 25.140625 12.171875 29.828125 
Q 18.359375 34.515625 30.609375 34.515625 
L 43.21875 34.515625 
L 43.21875 35.40625 
Q 43.21875 41.609375 39.140625 45 
Q 35.0625 48.390625 27.6875 48.390625 
Q 23 48.390625 18.546875 47.265625 
Q 14.109375 46.140625 10.015625 43.890625 
L 10.015625 52.203125 
Q 14.9375 54.109375 19.578125 55.046875 
Q 24.21875 56 28.609375 56 
Q 40.484375 56 46.34375 49.84375 
Q 52.203125 43.703125 52.203125 31.203125 
z
" id="DejaVuSans-97"/>
     <path d="M 9.421875 75.984375 
L 18.40625 75.984375 
L 18.40625 0 
L 9.421875 0 
z
" id="DejaVuSans-108"/>
    </defs>
    <g transform="translate(241.242188 16.318125)scale(0.12 -0.12)">
     <use xlink:href="#DejaVuSans-77"/>
     <use x="86.279297" xlink:href="#DejaVuSans-119"/>
     <use x="168.066406" xlink:href="#DejaVuSans-95"/>
     <use x="218.066406" xlink:href="#DejaVuSans-116"/>
     <use x="257.275391" xlink:href="#DejaVuSans-111"/>
     <use x="318.457031" xlink:href="#DejaVuSans-116"/>
     <use x="357.666016" xlink:href="#DejaVuSans-97"/>
     <use x="418.945312" xlink:href="#DejaVuSans-108"/>
    </g>
   </g>
   <g id="legend_1">
    <g id="patch_5">
     <path d="M 498.245312 190.104844 
L 572.64375 190.104844 
Q 574.64375 190.104844 574.64375 188.104844 
L 574.64375 128.331406 
Q 574.64375 126.331406 572.64375 126.331406 
L 498.245312 126.331406 
Q 496.245312 126.331406 496.245312 128.331406 
L 496.245312 188.104844 
Q 496.245312 190.104844 498.245312 190.104844 
z
" style="fill:#ffffff;opacity:0.8;stroke:#cccccc;stroke-linejoin:miter;"/>
    </g>
    <g id="line2d_19">
     <path d="M 500.245312 134.429844 
L 520.245312 134.429844 
" style="fill:none;stroke:#000000;stroke-dasharray:3.7,1.6;stroke-dashoffset:0;"/>
    </g>
    <g id="line2d_20"/>
    <g id="text_17">
     <!-- Baseline -->
     <defs>
      <path d="M 19.671875 34.8125 
L 19.671875 8.109375 
L 35.5 8.109375 
Q 43.453125 8.109375 47.28125 11.40625 
Q 51.125 14.703125 51.125 21.484375 
Q 51.125 28.328125 47.28125 31.5625 
Q 43.453125 34.8125 35.5 34.8125 
z
M 19.671875 64.796875 
L 19.671875 42.828125 
L 34.28125 42.828125 
Q 41.5 42.828125 45.03125 45.53125 
Q 48.578125 48.25 48.578125 53.8125 
Q 48.578125 59.328125 45.03125 62.0625 
Q 41.5 64.796875 34.28125 64.796875 
z
M 9.8125 72.90625 
L 35.015625 72.90625 
Q 46.296875 72.90625 52.390625 68.21875 
Q 58.5 63.53125 58.5 54.890625 
Q 58.5 48.1875 55.375 44.234375 
Q 52.25 40.28125 46.1875 39.3125 
Q 53.46875 37.75 57.5 32.78125 
Q 61.53125 27.828125 61.53125 20.40625 
Q 61.53125 10.640625 54.890625 5.3125 
Q 48.25 0 35.984375 0 
L 9.8125 0 
z
" id="DejaVuSans-66"/>
      <path d="M 44.28125 53.078125 
L 44.28125 44.578125 
Q 40.484375 46.53125 36.375 47.5 
Q 32.28125 48.484375 27.875 48.484375 
Q 21.1875 48.484375 17.84375 46.4375 
Q 14.5 44.390625 14.5 40.28125 
Q 14.5 37.15625 16.890625 35.375 
Q 19.28125 33.59375 26.515625 31.984375 
L 29.59375 31.296875 
Q 39.15625 29.25 43.1875 25.515625 
Q 47.21875 21.78125 47.21875 15.09375 
Q 47.21875 7.46875 41.1875 3.015625 
Q 35.15625 -1.421875 24.609375 -1.421875 
Q 20.21875 -1.421875 15.453125 -0.5625 
Q 10.6875 0.296875 5.421875 2 
L 5.421875 11.28125 
Q 10.40625 8.6875 15.234375 7.390625 
Q 20.0625 6.109375 24.8125 6.109375 
Q 31.15625 6.109375 34.5625 8.28125 
Q 37.984375 10.453125 37.984375 14.40625 
Q 37.984375 18.0625 35.515625 20.015625 
Q 33.0625 21.96875 24.703125 23.78125 
L 21.578125 24.515625 
Q 13.234375 26.265625 9.515625 29.90625 
Q 5.8125 33.546875 5.8125 39.890625 
Q 5.8125 47.609375 11.28125 51.796875 
Q 16.75 56 26.8125 56 
Q 31.78125 56 36.171875 55.265625 
Q 40.578125 54.546875 44.28125 53.078125 
z
" id="DejaVuSans-115"/>
      <path d="M 9.421875 54.6875 
L 18.40625 54.6875 
L 18.40625 0 
L 9.421875 0 
z
M 9.421875 75.984375 
L 18.40625 75.984375 
L 18.40625 64.59375 
L 9.421875 64.59375 
z
" id="DejaVuSans-105"/>
      <path d="M 54.890625 33.015625 
L 54.890625 0 
L 45.90625 0 
L 45.90625 32.71875 
Q 45.90625 40.484375 42.875 44.328125 
Q 39.84375 48.1875 33.796875 48.1875 
Q 26.515625 48.1875 22.3125 43.546875 
Q 18.109375 38.921875 18.109375 30.90625 
L 18.109375 0 
L 9.078125 0 
L 9.078125 54.6875 
L 18.109375 54.6875 
L 18.109375 46.1875 
Q 21.34375 51.125 25.703125 53.5625 
Q 30.078125 56 35.796875 56 
Q 45.21875 56 50.046875 50.171875 
Q 54.890625 44.34375 54.890625 33.015625 
z
" id="DejaVuSans-110"/>
     </defs>
     <g transform="translate(528.245312 137.929844)scale(0.1 -0.1)">
      <use xlink:href="#DejaVuSans-66"/>
      <use x="68.603516" xlink:href="#DejaVuSans-97"/>
      <use x="129.882812" xlink:href="#DejaVuSans-115"/>
      <use x="181.982422" xlink:href="#DejaVuSans-101"/>
      <use x="243.505859" xlink:href="#DejaVuSans-108"/>
      <use x="271.289062" xlink:href="#DejaVuSans-105"/>
      <use x="299.072266" xlink:href="#DejaVuSans-110"/>
      <use x="362.451172" xlink:href="#DejaVuSans-101"/>
     </g>
    </g>
    <g id="line2d_21">
     <path d="M 500.245312 149.107969 
L 520.245312 149.107969 
" style="fill:none;stroke:#1f77b4;stroke-linecap:square;stroke-width:1.5;"/>
    </g>
    <g id="line2d_22"/>
    <g id="text_18">
     <!-- $\Downarrow \sigma_\psi$ -->
     <defs>
      <path d="M 36.765625 14.3125 
L 41.9375 9.234375 
L 47.015625 14.3125 
L 47.015625 72.90625 
L 52.875 72.90625 
L 52.875 20.171875 
L 57.46875 24.75 
L 63.328125 18.890625 
L 44.09375 -0.34375 
L 39.703125 -0.34375 
L 20.5625 18.890625 
L 26.421875 24.75 
L 30.90625 20.171875 
L 30.90625 72.90625 
L 36.765625 72.90625 
z
" id="DejaVuSans-8659"/>
      <path d="M 34.671875 47.5625 
Q 27.25 47.5625 22.21875 42.1875 
Q 16.890625 36.578125 15.140625 27.296875 
Q 13.1875 17.484375 16.3125 11.8125 
Q 19.390625 6.203125 26.65625 6.203125 
Q 33.84375 6.203125 39.109375 11.859375 
Q 44.4375 17.53125 46.34375 27.296875 
Q 48.046875 36.234375 45.015625 42.1875 
Q 42.1875 47.5625 34.671875 47.5625 
z
M 36.078125 54.734375 
L 65.921875 54.6875 
L 64.15625 45.703125 
L 54.109375 45.703125 
Q 57.90625 38.09375 55.859375 27.296875 
Q 53.21875 13.875 45.0625 6.25 
Q 36.859375 -1.421875 25.140625 -1.421875 
Q 13.375 -1.421875 8.203125 6.25 
Q 3.03125 13.875 5.671875 27.296875 
Q 8.25 40.765625 16.40625 48.390625 
Q 23.1875 54.734375 36.078125 54.734375 
z
" id="DejaVuSans-Oblique-963"/>
      <path d="M 24.859375 -1.21875 
Q 13.921875 0.59375 9.625 5.328125 
Q 4.34375 11.140625 6.640625 23 
L 12.796875 54.6875 
L 21.875 54.6875 
L 15.765625 23.34375 
Q 14.0625 14.40625 17.484375 10.6875 
Q 20.515625 7.46875 26.421875 6.78125 
L 35.6875 54.6875 
L 44.625 54.6875 
L 35.359375 6.84375 
Q 41.890625 7.515625 45.75 10.75 
Q 50.734375 14.84375 52.390625 23.390625 
L 58.453125 54.6875 
L 67.53125 54.6875 
L 61.375 23.046875 
Q 58.984375 10.75 51.5625 5.375 
Q 44.875 0.53125 33.796875 -1.171875 
L 29.984375 -20.796875 
L 21.046875 -20.796875 
z
" id="DejaVuSans-Oblique-968"/>
     </defs>
     <g transform="translate(528.245312 152.607969)scale(0.1 -0.1)">
      <use transform="translate(19.482422 0.09375)" xlink:href="#DejaVuSans-8659"/>
      <use transform="translate(122.753906 0.09375)" xlink:href="#DejaVuSans-Oblique-963"/>
      <use transform="translate(186.132812 -16.3125)scale(0.7)" xlink:href="#DejaVuSans-Oblique-968"/>
     </g>
    </g>
    <g id="line2d_23">
     <path d="M 500.245312 164.806406 
L 520.245312 164.806406 
" style="fill:none;stroke:#ff7f0e;stroke-linecap:square;stroke-width:1.5;"/>
    </g>
    <g id="line2d_24"/>
    <g id="text_19">
     <!-- $\Downarrow s_\psi$ -->
     <defs>
      <path d="M 50 53.078125 
L 48.296875 44.578125 
Q 44.734375 46.53125 40.765625 47.5 
Q 36.8125 48.484375 32.625 48.484375 
Q 25.53125 48.484375 21.453125 46.0625 
Q 17.390625 43.65625 17.390625 39.5 
Q 17.390625 34.671875 26.859375 32.078125 
Q 27.59375 31.890625 27.9375 31.78125 
L 30.8125 30.90625 
Q 39.796875 28.421875 42.796875 25.6875 
Q 45.796875 22.953125 45.796875 18.21875 
Q 45.796875 9.515625 38.890625 4.046875 
Q 31.984375 -1.421875 20.796875 -1.421875 
Q 16.453125 -1.421875 11.671875 -0.578125 
Q 6.890625 0.25 1.125 2 
L 2.875 11.28125 
Q 7.8125 8.734375 12.59375 7.421875 
Q 17.390625 6.109375 21.78125 6.109375 
Q 28.375 6.109375 32.5 8.9375 
Q 36.625 11.765625 36.625 16.109375 
Q 36.625 20.796875 25.78125 23.6875 
L 24.859375 23.921875 
L 21.78125 24.703125 
Q 14.9375 26.515625 11.765625 29.46875 
Q 8.59375 32.421875 8.59375 37.015625 
Q 8.59375 45.75 15.15625 50.875 
Q 21.734375 56 33.015625 56 
Q 37.453125 56 41.671875 55.265625 
Q 45.90625 54.546875 50 53.078125 
z
" id="DejaVuSans-Oblique-115"/>
     </defs>
     <g transform="translate(528.245312 168.306406)scale(0.1 -0.1)">
      <use transform="translate(19.482422 0.09375)" xlink:href="#DejaVuSans-8659"/>
      <use transform="translate(122.753906 0.09375)" xlink:href="#DejaVuSans-Oblique-115"/>
      <use transform="translate(174.853516 -16.3125)scale(0.7)" xlink:href="#DejaVuSans-Oblique-968"/>
     </g>
    </g>
    <g id="line2d_25">
     <path d="M 500.245312 180.504844 
L 520.245312 180.504844 
" style="fill:none;stroke:#2ca02c;stroke-linecap:square;stroke-width:1.5;"/>
    </g>
    <g id="line2d_26"/>
    <g id="text_20">
     <!-- $\Uparrow \eta$ -->
     <defs>
      <path d="M 36.765625 58.59375 
L 36.765625 0 
L 30.90625 0 
L 30.90625 52.734375 
L 26.421875 48.140625 
L 20.5625 54 
L 39.703125 73.25 
L 44.09375 73.25 
L 63.328125 54 
L 57.46875 48.140625 
L 52.875 52.734375 
L 52.875 0 
L 47.015625 0 
L 47.015625 58.59375 
L 41.9375 63.671875 
z
" id="DejaVuSans-8657"/>
      <path d="M 57.859375 33.015625 
L 47.40625 -20.796875 
L 38.421875 -20.796875 
L 48.828125 32.71875 
Q 50.34375 40.484375 48.046875 44.34375 
Q 45.796875 48.1875 39.75 48.1875 
Q 32.46875 48.1875 27.34375 43.5625 
Q 22.265625 38.921875 20.703125 30.90625 
L 14.703125 0 
L 5.671875 0 
L 16.3125 54.6875 
L 25.34375 54.6875 
L 23.6875 46.1875 
Q 27.828125 51.125 32.71875 53.5625 
Q 37.546875 56 43.265625 56 
Q 52.6875 56 56.390625 50.203125 
Q 60.0625 44.34375 57.859375 33.015625 
z
" id="DejaVuSans-Oblique-951"/>
     </defs>
     <g transform="translate(528.245312 184.004844)scale(0.1 -0.1)">
      <use transform="translate(19.482422 0.75)" xlink:href="#DejaVuSans-8657"/>
      <use transform="translate(122.753906 0.75)" xlink:href="#DejaVuSans-Oblique-951"/>
     </g>
    </g>
   </g>
  </g>
 </g>
 <defs>
  <clipPath id="p4b0a4ced4a">
   <rect height="271.8" width="446.4" x="44.845313" y="22.318125"/>
  </clipPath>
 </defs>
</svg>
