<?xml version="1.0" encoding="utf-8" standalone="no"?>
<!DOCTYPE svg PUBLIC "-//W3C//DTD SVG 1.1//EN"
  "http://www.w3.org/Graphics/SVG/1.1/DTD/svg11.dtd">
<!-- Created with matplotlib (https://matplotlib.org/) -->
<svg height="331.674375pt" version="1.1" viewBox="0 0 565.940625 331.674375" width="565.940625pt" xmlns="http://www.w3.org/2000/svg" xmlns:xlink="http://www.w3.org/1999/xlink">
 <defs>
  <style type="text/css">
*{stroke-linecap:butt;stroke-linejoin:round;}
  </style>
 </defs>
 <g id="figure_1">
  <g id="patch_1">
   <path d="M 0 331.674375 
L 565.940625 331.674375 
L 565.940625 0 
L 0 0 
z
" style="fill:#ffffff;"/>
  </g>
  <g id="axes_1">
   <g id="patch_2">
    <path d="M 28.942188 294.118125 
L 475.342187 294.118125 
L 475.342187 22.318125 
L 28.942188 22.318125 
z
" style="fill:#ffffff;"/>
   </g>
   <g id="line2d_1">
    <path clip-path="url(#paa8688c21e)" d="M 49.233097 243.043391 
L 49.959068 267.011068 
L 51.411012 239.731626 
L 52.136983 253.573843 
L 52.862955 238.296905 
L 53.588927 243.9668 
L 54.314899 259.054373 
L 55.04087 234.71422 
L 55.766842 271.698289 
L 56.492814 218.630728 
L 57.218785 214.527247 
L 57.944757 268.462084 
L 58.670729 237.934525 
L 59.3967 243.824873 
L 60.122672 206.357192 
L 60.848644 215.072623 
L 61.574616 257.450749 
L 62.300587 215.534163 
L 63.026559 247.618124 
L 63.752531 226.137778 
L 64.478502 230.09852 
L 65.204474 242.543211 
L 65.930446 240.600856 
L 66.656417 250.405088 
L 67.382389 252.691598 
L 68.108361 270.491453 
L 68.834333 275.625825 
L 69.560304 207.674291 
L 70.286276 245.246815 
L 71.012248 257.289959 
L 71.738219 157.011247 
L 72.464191 164.586524 
L 73.190163 211.404033 
L 73.916134 267.50873 
L 74.642106 272.49685 
L 75.368078 259.72885 
L 76.09405 169.959696 
L 76.820021 96.45357 
L 77.545993 108.381367 
L 78.271965 197.358028 
L 78.997936 244.209761 
L 79.723908 190.605319 
L 80.44988 193.538355 
L 81.901823 245.027722 
L 82.627795 204.376016 
L 83.353767 226.121421 
L 84.079738 215.809121 
L 84.80571 209.28559 
L 85.531682 217.681377 
L 86.257653 192.737141 
L 86.983625 198.776936 
L 87.709597 196.69501 
L 88.435569 157.824076 
L 89.16154 170.600112 
L 89.887512 257.527709 
L 90.613484 273.327295 
L 91.339455 258.352038 
L 92.065427 236.865255 
L 92.791399 243.134263 
L 93.51737 264.81342 
L 94.243342 193.392664 
L 94.969314 159.739488 
L 95.695286 237.975038 
L 96.421257 262.913358 
L 97.147229 241.246087 
L 97.873201 243.469266 
L 98.599172 249.879545 
L 99.325144 250.609207 
L 100.051116 273.663766 
L 100.777087 276.309372 
L 101.503059 203.552826 
L 102.229031 176.961787 
L 102.955003 226.373176 
L 103.680974 251.281662 
L 104.406946 264.497317 
L 105.132918 247.327458 
L 105.858889 217.960119 
L 107.310833 261.001182 
L 108.036805 228.004927 
L 108.762776 157.963986 
L 109.488748 239.914733 
L 110.21472 275.391571 
L 110.940691 253.532496 
L 111.666663 222.932881 
L 112.392635 247.995733 
L 113.118606 182.96769 
L 113.844578 219.365779 
L 114.57055 249.183881 
L 115.296522 268.37346 
L 116.022493 274.746396 
L 116.748465 256.756394 
L 117.474437 254.856281 
L 118.200408 272.403791 
L 118.92638 253.84525 
L 119.652352 228.71753 
L 120.378323 217.139672 
L 121.104295 102.236446 
L 121.830267 204.35489 
L 122.556239 267.768352 
L 123.28221 260.208608 
L 124.008182 268.995753 
L 124.734154 237.553028 
L 125.460125 126.901651 
L 126.186097 241.963824 
L 126.912069 246.78071 
L 127.63804 211.19128 
L 128.364012 248.575591 
L 129.089984 236.763213 
L 129.815956 268.678608 
L 130.541927 253.89282 
L 131.267899 132.226464 
L 131.993871 186.247139 
L 132.719842 216.518735 
L 133.445814 228.405445 
L 134.171786 152.521559 
L 134.897758 138.971144 
L 135.623729 252.832143 
L 136.349701 256.837519 
L 137.075673 228.984192 
L 137.801644 234.091581 
L 138.527616 241.698998 
L 139.253588 257.897447 
L 139.979559 251.088254 
L 140.705531 246.075021 
L 141.431503 276.296462 
L 142.157475 277.901059 
L 143.609418 236.987373 
L 144.33539 249.324863 
L 145.061361 195.663568 
L 145.787333 222.376899 
L 146.513305 267.307166 
L 147.965248 241.407121 
L 148.69122 234.716323 
L 149.417192 245.663026 
L 150.143163 253.497477 
L 150.869135 214.330794 
L 151.595107 242.440899 
L 152.321078 250.686515 
L 153.04705 234.093811 
L 153.773022 272.060203 
L 154.498993 270.646708 
L 155.224965 257.816735 
L 155.950937 168.619649 
L 156.676909 61.304522 
L 157.40288 83.944672 
L 158.128852 34.67267 
L 158.854824 127.084495 
L 159.580795 239.668055 
L 160.306767 267.634225 
L 161.032739 209.939622 
L 161.758711 220.486972 
L 162.484682 224.373358 
L 163.210654 189.376815 
L 163.936626 249.281508 
L 164.662597 254.638551 
L 165.388569 255.019665 
L 166.114541 250.621121 
L 166.840512 261.615108 
L 167.566484 228.973664 
L 168.292456 226.199861 
L 169.018428 241.414923 
L 169.744399 239.90685 
L 171.196343 274.587487 
L 171.922314 272.041586 
L 172.648286 204.412621 
L 173.374258 126.101772 
L 174.100229 258.040815 
L 174.826201 269.223293 
L 175.552173 251.021957 
L 176.278145 259.814305 
L 177.004116 258.762538 
L 177.730088 218.903623 
L 178.45606 235.461381 
L 179.182031 246.446841 
L 179.908003 271.590957 
L 180.633975 265.376678 
L 181.359946 261.554724 
L 182.085918 274.332686 
L 182.81189 257.214469 
L 183.537862 270.222027 
L 184.263833 271.311077 
L 184.989805 263.760395 
L 185.715777 244.187221 
L 186.441748 235.634759 
L 187.16772 232.559221 
L 187.893692 260.613811 
L 188.619664 275.628718 
L 189.345635 266.820932 
L 190.071607 255.206084 
L 190.797579 250.526634 
L 191.52355 252.594771 
L 192.249522 279.242124 
L 192.975494 273.294831 
L 193.701465 263.452197 
L 194.427437 274.48848 
L 195.879381 263.290956 
L 196.605352 230.860278 
L 197.331324 163.640683 
L 198.057296 226.930084 
L 198.783267 259.364991 
L 199.509239 233.112608 
L 200.235211 235.03043 
L 200.961182 166.296145 
L 201.687154 219.970918 
L 202.413126 212.264105 
L 203.139098 220.297888 
L 203.865069 256.648164 
L 205.317013 246.40302 
L 206.042984 260.455167 
L 206.768956 241.3657 
L 207.494928 216.503671 
L 208.220899 253.726003 
L 208.946871 270.010274 
L 209.672843 255.780404 
L 210.398815 251.562036 
L 211.124786 260.298595 
L 211.850758 257.042692 
L 212.57673 244.94625 
L 213.302701 269.83034 
L 214.028673 262.567742 
L 214.754645 219.334071 
L 215.480617 216.935376 
L 216.206588 249.258104 
L 216.93256 258.990233 
L 217.658532 210.958725 
L 218.384503 176.947942 
L 219.110475 181.759374 
L 219.836447 258.602166 
L 220.562418 201.897198 
L 221.28839 226.820169 
L 222.014362 212.832407 
L 222.740334 234.584826 
L 223.466305 244.391677 
L 224.192277 211.786069 
L 224.918249 151.835587 
L 225.64422 220.876178 
L 226.370192 192.414175 
L 227.096164 188.716847 
L 227.822135 251.973329 
L 228.548107 253.745182 
L 229.274079 268.585312 
L 230.000051 246.080677 
L 230.726022 180.366594 
L 231.451994 215.132137 
L 232.177966 258.694695 
L 232.903937 259.986671 
L 233.629909 255.052549 
L 234.355881 232.975595 
L 235.081852 246.736092 
L 235.807824 243.533046 
L 236.533796 238.948761 
L 237.259768 241.322177 
L 237.985739 233.004418 
L 238.711711 254.275914 
L 239.437683 241.890569 
L 240.163654 233.673676 
L 240.889626 240.800013 
L 241.615598 229.454536 
L 242.34157 204.602514 
L 243.793513 250.167065 
L 244.519485 213.878603 
L 245.971428 274.945891 
L 246.6974 262.104824 
L 247.423371 257.535371 
L 248.149343 265.750859 
L 248.875315 214.415042 
L 249.601287 249.407687 
L 250.327258 269.111801 
L 251.05323 257.049934 
L 251.779202 259.760966 
L 252.505173 242.33744 
L 253.231145 192.713967 
L 253.957117 245.601728 
L 254.683088 239.480377 
L 255.40906 261.983099 
L 256.135032 253.268455 
L 256.861004 272.148502 
L 258.312947 167.605829 
L 259.038919 251.566998 
L 259.76489 243.185817 
L 260.490862 237.649223 
L 261.216834 251.396439 
L 261.942805 242.515472 
L 262.668777 260.758243 
L 263.394749 273.037732 
L 264.120721 274.246955 
L 264.846692 264.158191 
L 265.572664 199.992956 
L 266.298636 222.372591 
L 267.024607 252.261029 
L 267.750579 232.488248 
L 268.476551 244.671437 
L 269.202523 251.301195 
L 269.928494 245.342339 
L 271.380438 274.353965 
L 272.106409 270.951435 
L 272.832381 274.449084 
L 273.558353 254.638007 
L 274.284324 210.998232 
L 275.010296 231.899022 
L 275.736268 209.060664 
L 276.46224 234.64358 
L 277.188211 256.042156 
L 277.914183 236.131838 
L 278.640155 189.472257 
L 279.366126 223.303935 
L 280.092098 223.607567 
L 280.81807 222.737717 
L 281.544041 166.743766 
L 282.270013 213.932087 
L 282.995985 251.312266 
L 283.721957 226.508484 
L 284.447928 243.161868 
L 285.1739 246.949532 
L 285.899872 248.689935 
L 286.625843 246.734455 
L 287.351815 240.387071 
L 288.077787 243.791282 
L 288.803758 235.130108 
L 289.52973 204.441608 
L 290.255702 192.318132 
L 290.981674 273.644682 
L 292.433617 235.842636 
L 293.159589 229.559124 
L 294.611532 239.42499 
L 296.063476 268.551077 
L 296.789447 259.845188 
L 297.515419 254.468172 
L 298.241391 234.044777 
L 298.967362 232.650557 
L 299.693334 221.59101 
L 300.419306 245.039421 
L 301.145277 236.73814 
L 301.871249 195.645663 
L 302.597221 206.321435 
L 303.323193 258.685332 
L 304.775136 222.242735 
L 305.501108 182.514063 
L 306.227079 228.755426 
L 306.953051 254.691476 
L 307.679023 272.652472 
L 308.404994 240.653128 
L 309.130966 236.972605 
L 309.856938 180.756292 
L 310.58291 215.470071 
L 312.034853 260.891044 
L 312.760825 254.73905 
L 313.486796 228.056252 
L 314.212768 227.083024 
L 314.93874 240.326738 
L 315.664711 239.718197 
L 316.390683 235.60849 
L 317.116655 233.813488 
L 317.842627 182.554466 
L 318.568598 225.278092 
L 319.29457 212.27701 
L 320.020542 250.206137 
L 320.746513 261.008309 
L 321.472485 237.192954 
L 322.198457 229.098454 
L 322.924429 226.607949 
L 323.6504 256.549319 
L 324.376372 249.689896 
L 325.102344 241.495917 
L 325.828315 257.395888 
L 326.554287 260.581156 
L 327.280259 266.115485 
L 328.00623 244.981589 
L 328.732202 231.838075 
L 329.458174 232.252826 
L 330.184146 243.489267 
L 330.910117 245.440857 
L 331.636089 233.719117 
L 332.362061 229.128134 
L 333.088032 254.391614 
L 333.814004 243.211863 
L 334.539976 183.857099 
L 335.265947 234.738231 
L 335.991919 259.624224 
L 336.717891 245.842446 
L 337.443863 243.745044 
L 338.169834 230.464074 
L 338.895806 248.816773 
L 339.621778 234.48718 
L 340.347749 237.146559 
L 341.073721 238.131672 
L 341.799693 249.525037 
L 342.525664 254.024264 
L 343.251636 234.0591 
L 343.977608 239.345191 
L 344.70358 249.26776 
L 345.429551 250.573987 
L 346.155523 243.078362 
L 346.881495 242.202659 
L 347.607466 226.117104 
L 348.333438 257.543446 
L 349.05941 241.290704 
L 349.785382 253.209517 
L 350.511353 241.182149 
L 351.237325 186.300188 
L 351.963297 248.531075 
L 352.689268 249.391624 
L 353.41524 208.405868 
L 354.141212 244.829512 
L 354.867183 239.074305 
L 355.593155 242.028361 
L 356.319127 233.357879 
L 357.045099 241.325751 
L 357.77107 252.466038 
L 358.497042 246.045429 
L 359.223014 261.02348 
L 359.948985 246.397025 
L 360.674957 244.366003 
L 361.400929 240.200246 
L 362.1269 234.171101 
L 362.852872 246.216927 
L 363.578844 223.335587 
L 364.304816 246.786762 
L 365.030787 238.787174 
L 365.756759 257.606949 
L 366.482731 246.769517 
L 367.208702 183.341203 
L 367.934674 248.230712 
L 368.660646 262.341141 
L 369.386617 237.421176 
L 370.112589 250.972298 
L 370.838561 262.208833 
L 371.564533 240.74353 
L 372.290504 258.46098 
L 373.016476 189.414903 
L 374.468419 223.723863 
L 375.194391 244.519264 
L 375.920363 251.525093 
L 376.646335 238.930578 
L 377.372306 203.903337 
L 378.098278 230.066774 
L 378.82425 217.994523 
L 379.550221 231.347851 
L 380.276193 249.758662 
L 381.002165 249.707983 
L 381.728136 255.325537 
L 382.454108 246.782749 
L 383.18008 249.277671 
L 384.632023 206.393178 
L 385.357995 240.517922 
L 386.083967 255.712529 
L 386.809938 246.380944 
L 387.53591 233.495004 
L 388.261882 243.339014 
L 388.987853 206.717626 
L 389.713825 176.183724 
L 390.439797 215.680383 
L 391.165769 219.649772 
L 392.617712 262.803168 
L 393.343684 202.089018 
L 394.069655 224.673826 
L 395.521599 217.00816 
L 396.24757 228.451014 
L 396.973542 233.895725 
L 397.699514 223.516948 
L 398.425486 193.658288 
L 399.151457 227.342298 
L 399.877429 237.230606 
L 400.603401 242.102246 
L 401.329372 194.27859 
L 402.055344 170.926959 
L 402.781316 246.581793 
L 403.507288 239.54008 
L 404.233259 205.838611 
L 404.959231 193.128974 
L 405.685203 202.143085 
L 406.411174 159.490698 
L 407.137146 244.468645 
L 407.863118 218.231586 
L 408.589089 227.013168 
L 409.315061 241.306667 
L 410.041033 206.321721 
L 410.767005 230.441041 
L 411.492976 231.908746 
L 412.218948 255.570099 
L 412.94492 249.658313 
L 413.670891 249.581037 
L 414.396863 247.456037 
L 415.122835 235.762285 
L 415.848806 227.920823 
L 416.574778 241.356888 
L 417.30075 237.154988 
L 418.026722 239.099182 
L 418.752693 236.733609 
L 419.478665 241.680486 
L 420.204637 242.611257 
L 420.930608 243.134572 
L 421.65658 229.59328 
L 422.382552 240.973444 
L 423.108523 239.240152 
L 423.834495 257.36724 
L 424.560467 245.018395 
L 425.286439 250.932492 
L 426.01241 241.468044 
L 426.738382 252.43455 
L 427.464354 251.650734 
L 428.190325 253.03466 
L 428.916297 246.780376 
L 429.642269 243.646164 
L 430.368241 238.222837 
L 431.094212 236.92484 
L 431.820184 239.706578 
L 432.546156 218.597404 
L 433.272127 233.773423 
L 433.998099 230.781108 
L 434.724071 243.296911 
L 435.450042 228.023228 
L 436.176014 245.595498 
L 436.901986 234.127575 
L 437.627958 246.744526 
L 438.353929 246.721969 
L 439.079901 237.999924 
L 439.805873 239.583265 
L 440.531844 238.228791 
L 441.257816 243.771107 
L 441.983788 239.736398 
L 442.709759 209.219901 
L 443.435731 240.45327 
L 444.161703 226.194095 
L 444.887675 239.83409 
L 445.613646 230.78899 
L 446.339618 239.080343 
L 447.06559 240.169192 
L 447.791561 239.874717 
L 448.517533 248.408818 
L 449.243505 242.316782 
L 449.969476 240.149413 
L 450.695448 235.487713 
L 451.42142 240.632674 
L 452.147392 244.624147 
L 452.873363 244.881409 
L 453.599335 239.984562 
L 454.325307 239.55874 
L 455.051278 240.841995 
L 455.051278 240.841995 
" style="fill:none;stroke:#1f77b4;stroke-linecap:square;stroke-width:1.5;"/>
   </g>
   <g id="line2d_2">
    <path clip-path="url(#paa8688c21e)" d="M 49.233097 213.325464 
L 49.959068 260.123351 
L 50.68504 259.812415 
L 52.136983 262.27951 
L 52.862955 232.549317 
L 53.588927 210.260157 
L 54.314899 239.757811 
L 55.04087 165.893154 
L 55.766842 220.829201 
L 56.492814 248.580576 
L 57.218785 234.880353 
L 57.944757 244.009974 
L 58.670729 228.566823 
L 59.3967 264.833915 
L 60.122672 265.992185 
L 60.848644 264.322315 
L 61.574616 278.468765 
L 62.300587 223.421757 
L 63.026559 252.26762 
L 63.752531 269.558602 
L 64.478502 241.003966 
L 65.204474 265.713604 
L 65.930446 274.076513 
L 66.656417 257.569473 
L 67.382389 219.017236 
L 68.108361 240.727992 
L 68.834333 238.917882 
L 69.560304 232.573208 
L 70.286276 238.688417 
L 71.012248 234.988758 
L 71.738219 217.075208 
L 72.464191 220.001524 
L 73.190163 194.144178 
L 73.916134 260.08691 
L 74.642106 269.349428 
L 75.368078 243.63993 
L 76.09405 236.684611 
L 76.820021 221.270852 
L 77.545993 244.300517 
L 78.271965 263.348167 
L 78.997936 266.130544 
L 79.723908 263.390378 
L 80.44988 252.845019 
L 81.175852 257.28515 
L 81.901823 274.627462 
L 82.627795 259.545935 
L 83.353767 269.033173 
L 84.079738 226.235318 
L 84.80571 139.878878 
L 85.531682 212.03083 
L 86.257653 231.851198 
L 86.983625 238.593067 
L 87.709597 237.098964 
L 88.435569 171.158225 
L 89.16154 191.937458 
L 89.887512 261.946439 
L 90.613484 268.156835 
L 92.065427 245.921525 
L 92.791399 249.242231 
L 93.51737 271.226278 
L 94.243342 241.599665 
L 94.969314 218.067937 
L 95.695286 239.023886 
L 96.421257 269.603191 
L 97.873201 217.580131 
L 98.599172 231.516963 
L 99.325144 242.6931 
L 100.051116 263.695181 
L 100.777087 276.196632 
L 101.503059 258.25093 
L 102.955003 230.10396 
L 103.680974 134.010885 
L 104.406946 211.243611 
L 105.132918 265.055467 
L 105.858889 182.961897 
L 106.584861 183.718858 
L 107.310833 233.786411 
L 108.036805 237.139484 
L 109.488748 233.918029 
L 110.21472 269.697847 
L 110.940691 276.802864 
L 111.666663 235.615386 
L 112.392635 141.281567 
L 113.118606 231.588598 
L 113.844578 238.654131 
L 114.57055 202.076565 
L 115.296522 257.63429 
L 116.022493 263.120987 
L 116.748465 179.350228 
L 117.474437 158.251488 
L 118.200408 247.391054 
L 118.92638 247.992937 
L 119.652352 239.71422 
L 120.378323 263.257436 
L 121.104295 220.786121 
L 121.830267 227.07838 
L 122.556239 260.390034 
L 123.28221 200.010583 
L 124.008182 241.154993 
L 124.734154 266.177005 
L 125.460125 242.311754 
L 126.186097 251.351156 
L 126.912069 237.837967 
L 127.63804 237.991863 
L 128.364012 246.14164 
L 129.089984 246.64146 
L 129.815956 267.045988 
L 130.541927 275.156205 
L 131.267899 266.65689 
L 131.993871 253.931855 
L 132.719842 253.205469 
L 133.445814 247.167319 
L 134.171786 249.954455 
L 134.897758 263.558688 
L 135.623729 275.057823 
L 136.349701 266.894188 
L 137.075673 251.026104 
L 137.801644 251.730286 
L 138.527616 262.785257 
L 139.253588 267.109713 
L 139.979559 257.005023 
L 140.705531 261.295563 
L 141.431503 280.261682 
L 142.157475 281.76358 
L 142.883446 247.330526 
L 143.609418 189.942059 
L 144.33539 221.558038 
L 145.061361 229.502126 
L 146.513305 257.09767 
L 147.239276 167.115219 
L 147.965248 201.066002 
L 148.69122 251.964932 
L 149.417192 182.30091 
L 150.143163 176.14726 
L 150.869135 235.137923 
L 151.595107 257.666949 
L 152.321078 250.937097 
L 153.04705 246.596608 
L 153.773022 271.640023 
L 154.498993 275.562475 
L 155.224965 237.737076 
L 155.950937 235.107056 
L 156.676909 234.753075 
L 157.40288 109.961693 
L 158.128852 119.870855 
L 158.854824 126.326757 
L 160.306767 258.053981 
L 161.032739 247.995814 
L 161.758711 258.320177 
L 162.484682 253.14318 
L 163.210654 216.648553 
L 163.936626 241.688358 
L 164.662597 205.828186 
L 165.388569 237.047978 
L 166.114541 187.939267 
L 166.840512 177.044641 
L 167.566484 206.480721 
L 168.292456 164.404987 
L 169.018428 164.08761 
L 169.744399 160.11708 
L 171.196343 265.42479 
L 171.922314 251.206112 
L 172.648286 203.654825 
L 173.374258 207.43717 
L 174.100229 236.98959 
L 174.826201 247.229277 
L 175.552173 143.233684 
L 176.278145 197.612252 
L 177.004116 210.421091 
L 177.730088 221.115398 
L 178.45606 205.464444 
L 179.182031 251.411448 
L 179.908003 246.789078 
L 180.633975 192.288033 
L 182.085918 264.276025 
L 182.81189 239.412656 
L 183.537862 255.208863 
L 184.263833 267.517767 
L 184.989805 221.70452 
L 185.715777 216.706325 
L 187.893692 268.288588 
L 188.619664 267.972562 
L 189.345635 266.662998 
L 190.071607 252.025821 
L 190.797579 262.295916 
L 191.52355 263.225826 
L 192.249522 270.107281 
L 192.975494 265.943318 
L 193.701465 264.795992 
L 194.427437 269.424282 
L 195.153409 249.588473 
L 195.879381 243.479784 
L 196.605352 238.776745 
L 197.331324 229.283829 
L 198.057296 257.803328 
L 198.783267 250.243682 
L 199.509239 185.210284 
L 200.235211 253.325553 
L 201.687154 246.77792 
L 202.413126 258.523572 
L 203.139098 261.767597 
L 203.865069 271.65399 
L 204.591041 258.252915 
L 205.317013 223.375474 
L 206.042984 249.44022 
L 206.768956 211.734394 
L 207.494928 226.58924 
L 208.220899 263.188162 
L 208.946871 269.171465 
L 209.672843 259.050476 
L 210.398815 255.231242 
L 211.124786 262.293633 
L 211.850758 257.73993 
L 212.57673 262.21921 
L 213.302701 276.137899 
L 214.028673 269.030024 
L 214.754645 248.432262 
L 215.480617 270.067028 
L 216.206588 276.421387 
L 216.93256 267.595583 
L 217.658532 272.293657 
L 218.384503 266.257877 
L 219.110475 252.467331 
L 219.836447 269.107693 
L 220.562418 266.614974 
L 221.28839 275.318285 
L 222.014362 259.130684 
L 222.740334 253.686899 
L 223.466305 170.544365 
L 224.192277 162.679702 
L 224.918249 251.368485 
L 225.64422 260.791253 
L 226.370192 225.200663 
L 227.096164 164.432776 
L 227.822135 247.588881 
L 228.548107 258.172206 
L 229.274079 273.554686 
L 230.000051 267.3741 
L 230.726022 213.319421 
L 231.451994 113.920115 
L 232.177966 238.917444 
L 232.903937 257.559161 
L 233.629909 262.892318 
L 234.355881 258.133533 
L 235.081852 269.440359 
L 235.807824 264.332176 
L 236.533796 182.119105 
L 237.259768 236.714154 
L 237.985739 246.446357 
L 238.711711 247.190649 
L 239.437683 245.337925 
L 240.163654 239.76611 
L 240.889626 248.631302 
L 241.615598 244.911792 
L 242.34157 252.585042 
L 243.067541 238.613428 
L 243.793513 244.12335 
L 244.519485 250.855737 
L 245.245456 232.500647 
L 245.971428 259.436343 
L 246.6974 260.009071 
L 247.423371 253.698971 
L 248.149343 266.178834 
L 248.875315 256.440738 
L 249.601287 265.576293 
L 250.327258 265.578292 
L 251.05323 264.058346 
L 251.779202 268.374941 
L 252.505173 260.605032 
L 253.231145 236.395656 
L 253.957117 235.852695 
L 254.683088 218.193427 
L 255.40906 251.275682 
L 256.135032 236.500644 
L 256.861004 269.065184 
L 257.586975 219.326563 
L 258.312947 180.687549 
L 259.038919 256.873079 
L 259.76489 229.154337 
L 260.490862 249.679516 
L 261.216834 252.800614 
L 261.942805 240.642411 
L 262.668777 248.24571 
L 263.394749 271.195273 
L 264.120721 265.925932 
L 264.846692 209.856306 
L 265.572664 221.212368 
L 266.298636 244.254262 
L 267.024607 217.59541 
L 267.750579 226.143964 
L 268.476551 246.695252 
L 269.202523 194.159413 
L 269.928494 206.999772 
L 270.654466 203.47829 
L 271.380438 256.089038 
L 272.106409 223.674871 
L 272.832381 249.06979 
L 273.558353 235.442453 
L 274.284324 195.369563 
L 275.010296 251.694724 
L 275.736268 213.375361 
L 277.188211 249.986632 
L 277.914183 233.136668 
L 278.640155 191.60531 
L 279.366126 216.092952 
L 280.092098 151.426468 
L 280.81807 187.46737 
L 281.544041 120.137356 
L 282.270013 206.495596 
L 282.995985 227.929913 
L 283.721957 216.896711 
L 284.447928 237.520996 
L 285.1739 231.686217 
L 285.899872 245.225261 
L 286.625843 245.13953 
L 287.351815 136.198575 
L 288.077787 128.300638 
L 288.803758 102.365997 
L 289.52973 223.524022 
L 290.255702 212.826792 
L 290.981674 262.787539 
L 291.707645 234.814448 
L 292.433617 178.681727 
L 293.159589 149.886818 
L 293.88556 166.637089 
L 294.611532 136.485348 
L 295.337504 236.86071 
L 296.063476 234.298717 
L 296.789447 221.894957 
L 298.241391 255.158812 
L 298.967362 228.751013 
L 299.693334 228.137769 
L 301.145277 229.274235 
L 301.871249 248.446307 
L 302.597221 224.329568 
L 303.323193 252.27772 
L 304.049164 251.389002 
L 304.775136 171.004849 
L 305.501108 207.375591 
L 306.227079 234.985319 
L 306.953051 239.148719 
L 307.679023 263.373998 
L 308.404994 204.042367 
L 309.130966 211.056125 
L 310.58291 238.282818 
L 311.308881 233.099867 
L 312.034853 267.128575 
L 312.760825 274.79957 
L 313.486796 264.737206 
L 314.212768 240.386737 
L 314.93874 237.279695 
L 315.664711 269.488464 
L 316.390683 268.630445 
L 317.116655 267.005736 
L 317.842627 198.815424 
L 318.568598 227.729832 
L 319.29457 247.188862 
L 320.020542 261.520921 
L 320.746513 258.069893 
L 321.472485 251.85531 
L 322.198457 258.682477 
L 322.924429 190.857205 
L 323.6504 198.318889 
L 324.376372 264.965657 
L 325.102344 268.431076 
L 325.828315 227.424019 
L 326.554287 253.210686 
L 327.280259 265.767625 
L 328.00623 258.358475 
L 328.732202 263.431474 
L 329.458174 251.039667 
L 330.184146 257.717028 
L 330.910117 267.329683 
L 331.636089 267.891421 
L 332.362061 257.062338 
L 333.088032 254.058497 
L 333.814004 263.285054 
L 334.539976 245.681825 
L 335.265947 263.20903 
L 335.991919 275.688972 
L 336.717891 259.995049 
L 337.443863 263.87656 
L 338.169834 261.963259 
L 338.895806 249.136121 
L 339.621778 259.531481 
L 340.347749 247.358725 
L 341.073721 254.360332 
L 341.799693 259.07707 
L 342.525664 251.242962 
L 343.251636 254.820095 
L 343.977608 248.879676 
L 344.70358 251.46092 
L 345.429551 265.636779 
L 346.155523 259.267589 
L 346.881495 242.654394 
L 347.607466 242.62671 
L 348.333438 259.243354 
L 349.785382 226.638015 
L 350.511353 240.172253 
L 351.237325 248.311587 
L 351.963297 265.169919 
L 352.689268 266.521322 
L 353.41524 204.380871 
L 354.141212 223.541229 
L 354.867183 252.438413 
L 355.593155 237.028594 
L 356.319127 232.27643 
L 357.045099 250.90965 
L 357.77107 247.460689 
L 358.497042 240.520346 
L 359.223014 245.794446 
L 359.948985 222.78473 
L 360.674957 242.551566 
L 361.400929 252.296222 
L 362.1269 238.416723 
L 362.852872 255.149165 
L 363.578844 208.559137 
L 364.304816 235.055247 
L 365.030787 250.170305 
L 365.756759 269.46658 
L 366.482731 255.624314 
L 367.208702 227.096349 
L 367.934674 220.284018 
L 368.660646 258.601633 
L 369.386617 243.265334 
L 370.112589 235.986581 
L 370.838561 243.166252 
L 371.564533 204.830494 
L 372.290504 247.595566 
L 373.016476 241.072217 
L 373.742448 219.274134 
L 374.468419 258.170692 
L 375.920363 219.988463 
L 376.646335 243.779072 
L 377.372306 219.798684 
L 378.098278 230.99273 
L 378.82425 216.286188 
L 379.550221 230.899821 
L 380.276193 239.326255 
L 381.002165 253.020656 
L 381.728136 211.106572 
L 382.454108 197.436919 
L 383.18008 218.149065 
L 383.906052 226.625071 
L 384.632023 224.89034 
L 385.357995 237.607949 
L 386.083967 227.332616 
L 386.809938 238.425812 
L 387.53591 185.579973 
L 388.261882 223.319965 
L 389.713825 185.052107 
L 390.439797 209.624675 
L 391.165769 212.95192 
L 391.89174 189.127169 
L 392.617712 231.875649 
L 393.343684 187.519346 
L 394.069655 217.848961 
L 394.795627 197.635221 
L 395.521599 205.929453 
L 396.24757 179.850685 
L 396.973542 216.34158 
L 397.699514 221.53624 
L 398.425486 220.380356 
L 399.151457 234.415365 
L 399.877429 231.027882 
L 400.603401 235.471912 
L 401.329372 206.074719 
L 402.055344 184.939576 
L 402.781316 245.820302 
L 403.507288 191.958754 
L 404.233259 188.465776 
L 404.959231 186.3576 
L 405.685203 193.689517 
L 406.411174 159.342084 
L 407.137146 243.124234 
L 407.863118 208.959467 
L 408.589089 236.966835 
L 409.315061 235.390695 
L 410.041033 210.569974 
L 410.767005 227.70766 
L 411.492976 222.39983 
L 412.218948 251.551034 
L 412.94492 258.621723 
L 413.670891 235.777694 
L 414.396863 253.043286 
L 415.122835 239.320441 
L 415.848806 240.126802 
L 416.574778 236.79228 
L 417.30075 241.434413 
L 418.026722 245.058148 
L 418.752693 245.460619 
L 419.478665 235.074868 
L 420.204637 253.380472 
L 420.930608 232.166267 
L 421.65658 237.036118 
L 422.382552 233.216714 
L 423.108523 242.499748 
L 423.834495 243.492957 
L 424.560467 241.26252 
L 425.286439 238.018741 
L 426.01241 237.081841 
L 426.738382 241.064221 
L 427.464354 242.881656 
L 428.190325 243.316611 
L 428.916297 241.87281 
L 429.642269 241.972714 
L 430.368241 244.691743 
L 431.094212 240.94257 
L 431.820184 240.314698 
L 432.546156 238.79078 
L 433.272127 241.534216 
L 433.998099 242.735228 
L 434.724071 238.364499 
L 435.450042 238.95004 
L 436.176014 242.627607 
L 436.901986 236.034149 
L 437.627958 244.563529 
L 438.353929 243.80412 
L 439.079901 255.89939 
L 440.531844 232.703413 
L 441.257816 241.866643 
L 441.983788 255.49447 
L 442.709759 240.773095 
L 443.435731 244.037632 
L 444.161703 254.43057 
L 444.887675 244.177336 
L 445.613646 243.322173 
L 446.339618 243.526624 
L 447.06559 243.532661 
L 447.791561 241.875095 
L 448.517533 250.13498 
L 449.243505 243.901254 
L 449.969476 257.940578 
L 450.695448 243.229344 
L 451.42142 237.532398 
L 452.873363 259.990081 
L 453.599335 242.042896 
L 454.325307 246.671003 
L 455.051278 243.435484 
L 455.051278 243.435484 
" style="fill:none;stroke:#ff7f0e;stroke-linecap:square;stroke-width:1.5;"/>
   </g>
   <g id="line2d_3">
    <path clip-path="url(#paa8688c21e)" d="M 49.233097 237.300314 
L 49.959068 271.153537 
L 50.68504 269.747691 
L 51.411012 263.620796 
L 52.136983 244.099658 
L 52.862955 235.925867 
L 53.588927 154.945354 
L 54.314899 182.868104 
L 55.04087 198.515867 
L 55.766842 257.863284 
L 56.492814 253.140392 
L 57.218785 249.968228 
L 57.944757 255.589649 
L 58.670729 240.885958 
L 59.3967 269.000158 
L 60.122672 215.263793 
L 60.848644 242.224481 
L 61.574616 258.157391 
L 62.300587 230.811544 
L 63.026559 245.463462 
L 63.752531 248.470733 
L 64.478502 241.614077 
L 65.204474 230.825305 
L 65.930446 256.525928 
L 66.656417 227.062526 
L 67.382389 230.809645 
L 68.108361 266.408247 
L 68.834333 266.817475 
L 69.560304 245.789962 
L 71.012248 271.422744 
L 71.738219 250.181215 
L 72.464191 187.524913 
L 73.190163 183.875917 
L 73.916134 267.851251 
L 74.642106 271.629317 
L 75.368078 249.381253 
L 76.09405 151.78854 
L 76.820021 216.632866 
L 77.545993 215.717117 
L 78.271965 215.607292 
L 78.997936 251.808432 
L 79.723908 244.9568 
L 80.44988 232.520615 
L 81.175852 146.804668 
L 81.901823 229.205219 
L 82.627795 255.447418 
L 83.353767 241.187682 
L 84.079738 254.932136 
L 84.80571 242.988939 
L 85.531682 248.352474 
L 86.257653 219.482497 
L 86.983625 176.688255 
L 87.709597 194.431238 
L 88.435569 221.672277 
L 89.16154 188.611226 
L 89.887512 237.253937 
L 90.613484 263.209419 
L 91.339455 248.001961 
L 92.065427 209.635748 
L 92.791399 234.644382 
L 93.51737 270.304078 
L 94.969314 249.22015 
L 95.695286 265.844377 
L 96.421257 275.81605 
L 97.147229 249.413952 
L 97.873201 247.600254 
L 98.599172 219.191324 
L 99.325144 239.7668 
L 100.051116 266.590727 
L 100.777087 274.908134 
L 101.503059 206.667235 
L 102.229031 218.099906 
L 102.955003 178.495599 
L 103.680974 162.474566 
L 104.406946 255.423675 
L 105.132918 261.656871 
L 105.858889 224.567973 
L 106.584861 241.50128 
L 107.310833 261.674868 
L 108.036805 219.629484 
L 108.762776 206.834846 
L 109.488748 227.13476 
L 110.21472 272.006426 
L 110.940691 277.805007 
L 111.666663 273.42051 
L 112.392635 259.34392 
L 113.118606 253.56048 
L 113.844578 262.447805 
L 114.57055 266.54958 
L 115.296522 275.338317 
L 116.022493 271.675017 
L 116.748465 243.675543 
L 117.474437 221.430257 
L 118.200408 254.567374 
L 118.92638 251.319344 
L 119.652352 247.045301 
L 120.378323 260.891085 
L 121.104295 241.400196 
L 121.830267 247.175271 
L 122.556239 266.770396 
L 123.28221 261.066946 
L 124.008182 273.144136 
L 124.734154 273.48923 
L 125.460125 254.001021 
L 126.186097 261.688216 
L 126.912069 256.056643 
L 127.63804 249.482895 
L 128.364012 261.730138 
L 129.089984 262.345931 
L 129.815956 277.673883 
L 130.541927 274.762875 
L 131.267899 254.977228 
L 131.993871 160.31464 
L 132.719842 81.943699 
L 133.445814 226.973605 
L 134.171786 178.032984 
L 134.897758 221.319325 
L 135.623729 274.060677 
L 137.075673 229.109782 
L 137.801644 237.815264 
L 138.527616 191.036676 
L 139.253588 218.939783 
L 139.979559 235.605686 
L 140.705531 241.010063 
L 141.431503 273.575045 
L 142.157475 272.617791 
L 142.883446 226.784753 
L 143.609418 217.217071 
L 145.061361 240.997784 
L 145.787333 237.893099 
L 147.239276 239.975719 
L 147.965248 241.89187 
L 149.417192 257.000579 
L 150.143163 251.386289 
L 150.869135 129.612644 
L 151.595107 232.807893 
L 152.321078 236.275972 
L 153.04705 149.500215 
L 153.773022 235.160363 
L 154.498993 263.975788 
L 155.224965 251.000052 
L 155.950937 249.752249 
L 156.676909 250.528755 
L 157.40288 233.881597 
L 158.128852 223.652553 
L 158.854824 218.914919 
L 159.580795 145.61712 
L 160.306767 250.317983 
L 161.032739 225.249987 
L 161.758711 241.548663 
L 162.484682 221.876367 
L 163.210654 174.10037 
L 163.936626 232.664691 
L 164.662597 231.323637 
L 165.388569 238.350747 
L 166.114541 226.974635 
L 166.840512 240.07132 
L 167.566484 165.112143 
L 168.292456 180.979358 
L 169.018428 188.879137 
L 170.470371 215.20313 
L 171.196343 265.967235 
L 172.648286 227.188765 
L 174.100229 245.579303 
L 174.826201 242.187555 
L 175.552173 202.895818 
L 176.278145 228.980217 
L 177.004116 156.931501 
L 177.730088 128.889532 
L 178.45606 211.466175 
L 179.182031 199.919313 
L 179.908003 246.571171 
L 180.633975 227.397522 
L 181.359946 248.865958 
L 182.085918 245.900005 
L 182.81189 249.398667 
L 183.537862 242.802138 
L 184.263833 245.133298 
L 184.989805 243.225889 
L 185.715777 215.64083 
L 186.441748 223.951043 
L 187.16772 238.654219 
L 187.893692 234.204316 
L 188.619664 244.739585 
L 189.345635 250.483105 
L 190.071607 237.547234 
L 190.797579 246.393482 
L 191.52355 266.492041 
L 192.249522 252.591562 
L 192.975494 253.873012 
L 193.701465 222.788866 
L 194.427437 241.181883 
L 195.153409 244.389364 
L 195.879381 233.33006 
L 196.605352 230.788907 
L 197.331324 240.299855 
L 198.057296 246.766067 
L 198.783267 240.402067 
L 199.509239 239.49679 
L 200.235211 266.580511 
L 200.961182 200.094201 
L 201.687154 200.43719 
L 202.413126 188.617023 
L 203.139098 216.87279 
L 203.865069 253.482789 
L 204.591041 223.908083 
L 205.317013 135.245088 
L 206.042984 234.554032 
L 206.768956 234.299844 
L 207.494928 184.678788 
L 208.220899 235.078163 
L 208.946871 226.881269 
L 209.672843 237.457947 
L 210.398815 215.419028 
L 211.124786 245.528708 
L 211.850758 182.802037 
L 212.57673 230.581138 
L 213.302701 268.079812 
L 214.028673 251.030818 
L 214.754645 218.970655 
L 215.480617 256.777679 
L 216.206588 269.162935 
L 216.93256 258.126442 
L 217.658532 242.155041 
L 218.384503 256.706734 
L 219.110475 180.11015 
L 219.836447 228.426903 
L 220.562418 206.087791 
L 221.28839 257.743606 
L 222.014362 235.022049 
L 222.740334 235.537496 
L 223.466305 229.935297 
L 224.192277 184.370944 
L 224.918249 225.912728 
L 225.64422 250.777143 
L 226.370192 222.009229 
L 227.096164 176.184383 
L 228.548107 228.577272 
L 229.274079 243.159592 
L 230.000051 254.648344 
L 230.726022 240.105653 
L 231.451994 232.90107 
L 232.177966 198.649617 
L 232.903937 172.053707 
L 233.629909 199.988854 
L 234.355881 204.821847 
L 235.081852 249.68781 
L 235.807824 259.399563 
L 236.533796 233.029808 
L 237.259768 237.18297 
L 237.985739 248.651044 
L 238.711711 240.486572 
L 239.437683 242.014182 
L 240.163654 242.877112 
L 240.889626 240.048654 
L 241.615598 240.54739 
L 243.067541 247.010222 
L 243.793513 246.755202 
L 244.519485 238.874669 
L 245.245456 258.882619 
L 245.971428 271.134727 
L 246.6974 209.467496 
L 247.423371 195.229472 
L 248.149343 260.340016 
L 248.875315 253.540821 
L 249.601287 239.058388 
L 250.327258 259.82219 
L 251.05323 254.79503 
L 251.779202 248.215026 
L 252.505173 237.18303 
L 253.231145 240.233615 
L 253.957117 241.741764 
L 254.683088 255.034985 
L 255.40906 249.503991 
L 256.135032 242.96739 
L 256.861004 239.933025 
L 257.586975 232.301965 
L 258.312947 234.279518 
L 259.038919 260.049478 
L 259.76489 247.668838 
L 260.490862 249.947232 
L 261.216834 244.812051 
L 261.942805 191.243953 
L 262.668777 212.599548 
L 263.394749 259.142442 
L 264.120721 270.484324 
L 265.572664 236.785737 
L 266.298636 199.814549 
L 267.024607 232.486237 
L 267.750579 203.571758 
L 268.476551 210.811732 
L 269.202523 226.712991 
L 269.928494 226.38491 
L 270.654466 239.724397 
L 271.380438 264.370057 
L 272.106409 250.379988 
L 272.832381 262.846929 
L 273.558353 258.774736 
L 274.284324 250.51907 
L 275.010296 263.262054 
L 275.736268 253.349952 
L 276.46224 265.14694 
L 277.188211 271.2347 
L 277.914183 257.683495 
L 278.640155 249.3395 
L 279.366126 245.18862 
L 280.092098 248.479401 
L 280.81807 240.419757 
L 281.544041 224.375499 
L 282.270013 230.100057 
L 282.995985 249.688804 
L 283.721957 254.327551 
L 284.447928 249.207193 
L 285.1739 241.554567 
L 285.899872 253.532758 
L 286.625843 250.870774 
L 287.351815 238.945305 
L 288.077787 137.517981 
L 288.803758 117.662827 
L 289.52973 242.422149 
L 290.255702 233.255019 
L 290.981674 262.875948 
L 291.707645 237.247644 
L 292.433617 181.062567 
L 293.159589 208.204425 
L 293.88556 217.594783 
L 294.611532 224.157755 
L 295.337504 210.405606 
L 296.063476 257.671508 
L 296.789447 235.032029 
L 297.515419 243.901653 
L 298.241391 261.06591 
L 298.967362 240.657544 
L 299.693334 241.925989 
L 300.419306 225.248562 
L 301.145277 204.003175 
L 301.871249 247.920058 
L 302.597221 204.276379 
L 303.323193 241.100669 
L 304.049164 228.586264 
L 305.501108 238.642964 
L 306.227079 189.68249 
L 306.953051 242.809269 
L 307.679023 264.620052 
L 308.404994 209.109218 
L 309.130966 210.031346 
L 309.856938 230.949308 
L 310.58291 246.137361 
L 311.308881 210.557285 
L 312.034853 265.626739 
L 312.760825 273.281561 
L 313.486796 257.514673 
L 314.212768 236.898695 
L 314.93874 202.352351 
L 315.664711 264.319005 
L 316.390683 271.332056 
L 317.116655 262.251804 
L 317.842627 242.754743 
L 318.568598 262.275254 
L 319.29457 212.525681 
L 320.020542 247.380148 
L 320.746513 252.208818 
L 321.472485 214.653118 
L 322.198457 228.931698 
L 322.924429 229.105388 
L 323.6504 250.381931 
L 324.376372 247.660028 
L 325.102344 244.234575 
L 325.828315 248.690495 
L 326.554287 235.738553 
L 327.280259 233.754288 
L 328.00623 240.525504 
L 328.732202 239.507742 
L 329.458174 240.026235 
L 330.184146 237.785944 
L 330.910117 239.370548 
L 331.636089 263.714822 
L 332.362061 235.292739 
L 333.088032 243.345754 
L 333.814004 259.556099 
L 334.539976 198.480141 
L 335.265947 241.581383 
L 335.991919 261.470442 
L 336.717891 245.538174 
L 337.443863 261.037185 
L 338.169834 252.033913 
L 338.895806 261.363181 
L 339.621778 249.501925 
L 340.347749 256.631669 
L 341.073721 245.150383 
L 341.799693 252.069096 
L 342.525664 250.377453 
L 343.251636 247.774049 
L 343.977608 249.818622 
L 344.70358 225.764221 
L 345.429551 242.409868 
L 346.155523 254.328483 
L 346.881495 240.689976 
L 347.607466 242.080861 
L 348.333438 251.834741 
L 349.05941 240.530561 
L 349.785382 258.70387 
L 350.511353 246.634612 
L 351.237325 236.665002 
L 351.963297 260.923643 
L 352.689268 270.019863 
L 353.41524 204.786689 
L 354.867183 263.217934 
L 355.593155 261.49423 
L 356.319127 248.816386 
L 357.045099 253.750763 
L 357.77107 246.81483 
L 358.497042 250.508451 
L 359.223014 267.352023 
L 359.948985 261.007111 
L 360.674957 265.284827 
L 361.400929 260.993089 
L 362.1269 253.870331 
L 362.852872 260.104833 
L 363.578844 211.781445 
L 364.304816 199.180885 
L 365.030787 256.77486 
L 365.756759 260.514768 
L 366.482731 242.514067 
L 367.208702 201.009118 
L 367.934674 246.981603 
L 368.660646 265.765862 
L 369.386617 248.928622 
L 370.112589 254.609307 
L 370.838561 228.467196 
L 371.564533 243.489343 
L 372.290504 255.444501 
L 373.016476 228.776427 
L 373.742448 255.439154 
L 374.468419 256.887988 
L 375.194391 246.396789 
L 375.920363 258.525849 
L 376.646335 242.500581 
L 377.372306 249.611301 
L 378.098278 242.152031 
L 378.82425 245.337961 
L 379.550221 234.168336 
L 380.276193 244.144307 
L 381.002165 262.455377 
L 381.728136 250.19108 
L 382.454108 246.832564 
L 383.18008 257.524813 
L 383.906052 248.14129 
L 384.632023 233.222509 
L 385.357995 263.30988 
L 386.083967 266.077368 
L 387.53591 237.82534 
L 388.261882 235.536083 
L 388.987853 208.069553 
L 389.713825 198.23506 
L 390.439797 223.410447 
L 391.165769 236.795828 
L 391.89174 239.69018 
L 392.617712 263.699096 
L 393.343684 233.021015 
L 394.069655 190.626357 
L 394.795627 224.218712 
L 395.521599 206.518673 
L 396.24757 226.058217 
L 396.973542 200.764818 
L 397.699514 212.337814 
L 398.425486 244.412635 
L 399.151457 264.042689 
L 399.877429 213.577502 
L 400.603401 240.105049 
L 401.329372 227.190902 
L 402.055344 233.365085 
L 402.781316 242.812222 
L 403.507288 217.916887 
L 404.233259 221.82087 
L 404.959231 238.179835 
L 406.411174 218.614289 
L 407.137146 239.813534 
L 407.863118 241.179601 
L 408.589089 245.838738 
L 409.315061 244.318928 
L 410.041033 208.747295 
L 410.767005 230.911678 
L 411.492976 225.36871 
L 412.218948 259.951799 
L 412.94492 244.880013 
L 413.670891 259.827336 
L 414.396863 240.982657 
L 415.122835 235.618743 
L 415.848806 238.429952 
L 416.574778 234.971447 
L 417.30075 241.163532 
L 418.026722 245.118397 
L 418.752693 241.683239 
L 419.478665 233.654261 
L 420.204637 248.317658 
L 420.930608 234.152062 
L 421.65658 241.570152 
L 422.382552 234.378381 
L 423.108523 241.888004 
L 423.834495 242.65258 
L 424.560467 258.405704 
L 425.286439 241.221672 
L 426.01241 217.067724 
L 426.738382 237.752756 
L 427.464354 223.635023 
L 428.190325 239.152087 
L 428.916297 222.075338 
L 429.642269 239.680207 
L 430.368241 251.637879 
L 431.094212 237.633304 
L 431.820184 240.158702 
L 432.546156 240.831221 
L 433.272127 235.74539 
L 433.998099 239.289024 
L 434.724071 237.035607 
L 435.450042 242.313272 
L 436.176014 239.080676 
L 436.901986 241.014735 
L 437.627958 238.196593 
L 438.353929 242.018343 
L 439.079901 254.319896 
L 440.531844 230.145523 
L 441.983788 252.351342 
L 442.709759 237.540337 
L 443.435731 241.484524 
L 444.161703 230.887921 
L 444.887675 243.59147 
L 445.613646 226.990208 
L 446.339618 242.078542 
L 447.06559 242.623612 
L 447.791561 241.54342 
L 448.517533 240.81139 
L 449.243505 241.25681 
L 449.969476 252.703645 
L 451.42142 231.588902 
L 452.873363 255.197404 
L 453.599335 242.287709 
L 454.325307 253.617454 
L 455.051278 243.019812 
L 455.051278 243.019812 
" style="fill:none;stroke:#2ca02c;stroke-linecap:square;stroke-width:1.5;"/>
   </g>
   <g id="line2d_4">
    <path clip-path="url(#paa8688c21e)" d="M 49.233097 241.247114 
L 455.051278 241.247114 
L 455.051278 241.247114 
" style="fill:none;stroke:#000000;stroke-dasharray:3.7,1.6;stroke-dashoffset:0;"/>
   </g>
   <g id="matplotlib.axis_1">
    <g id="xtick_1">
     <g id="line2d_5">
      <defs>
       <path d="M 0 0 
L 0 3.5 
" id="m45b1dc393e" style="stroke:#000000;stroke-width:0.8;"/>
      </defs>
      <g>
       <use style="stroke:#000000;stroke-width:0.8;" x="70.286276" xlink:href="#m45b1dc393e" y="294.118125"/>
      </g>
     </g>
     <g id="text_1">
      <!-- 100 -->
      <defs>
       <path d="M 12.40625 8.296875 
L 28.515625 8.296875 
L 28.515625 63.921875 
L 10.984375 60.40625 
L 10.984375 69.390625 
L 28.421875 72.90625 
L 38.28125 72.90625 
L 38.28125 8.296875 
L 54.390625 8.296875 
L 54.390625 0 
L 12.40625 0 
z
" id="DejaVuSans-49"/>
       <path d="M 31.78125 66.40625 
Q 24.171875 66.40625 20.328125 58.90625 
Q 16.5 51.421875 16.5 36.375 
Q 16.5 21.390625 20.328125 13.890625 
Q 24.171875 6.390625 31.78125 6.390625 
Q 39.453125 6.390625 43.28125 13.890625 
Q 47.125 21.390625 47.125 36.375 
Q 47.125 51.421875 43.28125 58.90625 
Q 39.453125 66.40625 31.78125 66.40625 
z
M 31.78125 74.21875 
Q 44.046875 74.21875 50.515625 64.515625 
Q 56.984375 54.828125 56.984375 36.375 
Q 56.984375 17.96875 50.515625 8.265625 
Q 44.046875 -1.421875 31.78125 -1.421875 
Q 19.53125 -1.421875 13.0625 8.265625 
Q 6.59375 17.96875 6.59375 36.375 
Q 6.59375 54.828125 13.0625 64.515625 
Q 19.53125 74.21875 31.78125 74.21875 
z
" id="DejaVuSans-48"/>
      </defs>
      <g transform="translate(60.742526 308.716563)scale(0.1 -0.1)">
       <use xlink:href="#DejaVuSans-49"/>
       <use x="63.623047" xlink:href="#DejaVuSans-48"/>
       <use x="127.246094" xlink:href="#DejaVuSans-48"/>
      </g>
     </g>
    </g>
    <g id="xtick_2">
     <g id="line2d_6">
      <g>
       <use style="stroke:#000000;stroke-width:0.8;" x="142.883446" xlink:href="#m45b1dc393e" y="294.118125"/>
      </g>
     </g>
     <g id="text_2">
      <!-- 200 -->
      <defs>
       <path d="M 19.1875 8.296875 
L 53.609375 8.296875 
L 53.609375 0 
L 7.328125 0 
L 7.328125 8.296875 
Q 12.9375 14.109375 22.625 23.890625 
Q 32.328125 33.6875 34.8125 36.53125 
Q 39.546875 41.84375 41.421875 45.53125 
Q 43.3125 49.21875 43.3125 52.78125 
Q 43.3125 58.59375 39.234375 62.25 
Q 35.15625 65.921875 28.609375 65.921875 
Q 23.96875 65.921875 18.8125 64.3125 
Q 13.671875 62.703125 7.8125 59.421875 
L 7.8125 69.390625 
Q 13.765625 71.78125 18.9375 73 
Q 24.125 74.21875 28.421875 74.21875 
Q 39.75 74.21875 46.484375 68.546875 
Q 53.21875 62.890625 53.21875 53.421875 
Q 53.21875 48.921875 51.53125 44.890625 
Q 49.859375 40.875 45.40625 35.40625 
Q 44.1875 33.984375 37.640625 27.21875 
Q 31.109375 20.453125 19.1875 8.296875 
z
" id="DejaVuSans-50"/>
      </defs>
      <g transform="translate(133.339696 308.716563)scale(0.1 -0.1)">
       <use xlink:href="#DejaVuSans-50"/>
       <use x="63.623047" xlink:href="#DejaVuSans-48"/>
       <use x="127.246094" xlink:href="#DejaVuSans-48"/>
      </g>
     </g>
    </g>
    <g id="xtick_3">
     <g id="line2d_7">
      <g>
       <use style="stroke:#000000;stroke-width:0.8;" x="215.480617" xlink:href="#m45b1dc393e" y="294.118125"/>
      </g>
     </g>
     <g id="text_3">
      <!-- 300 -->
      <defs>
       <path d="M 40.578125 39.3125 
Q 47.65625 37.796875 51.625 33 
Q 55.609375 28.21875 55.609375 21.1875 
Q 55.609375 10.40625 48.1875 4.484375 
Q 40.765625 -1.421875 27.09375 -1.421875 
Q 22.515625 -1.421875 17.65625 -0.515625 
Q 12.796875 0.390625 7.625 2.203125 
L 7.625 11.71875 
Q 11.71875 9.328125 16.59375 8.109375 
Q 21.484375 6.890625 26.8125 6.890625 
Q 36.078125 6.890625 40.9375 10.546875 
Q 45.796875 14.203125 45.796875 21.1875 
Q 45.796875 27.640625 41.28125 31.265625 
Q 36.765625 34.90625 28.71875 34.90625 
L 20.21875 34.90625 
L 20.21875 43.015625 
L 29.109375 43.015625 
Q 36.375 43.015625 40.234375 45.921875 
Q 44.09375 48.828125 44.09375 54.296875 
Q 44.09375 59.90625 40.109375 62.90625 
Q 36.140625 65.921875 28.71875 65.921875 
Q 24.65625 65.921875 20.015625 65.03125 
Q 15.375 64.15625 9.8125 62.3125 
L 9.8125 71.09375 
Q 15.4375 72.65625 20.34375 73.4375 
Q 25.25 74.21875 29.59375 74.21875 
Q 40.828125 74.21875 47.359375 69.109375 
Q 53.90625 64.015625 53.90625 55.328125 
Q 53.90625 49.265625 50.4375 45.09375 
Q 46.96875 40.921875 40.578125 39.3125 
z
" id="DejaVuSans-51"/>
      </defs>
      <g transform="translate(205.936867 308.716563)scale(0.1 -0.1)">
       <use xlink:href="#DejaVuSans-51"/>
       <use x="63.623047" xlink:href="#DejaVuSans-48"/>
       <use x="127.246094" xlink:href="#DejaVuSans-48"/>
      </g>
     </g>
    </g>
    <g id="xtick_4">
     <g id="line2d_8">
      <g>
       <use style="stroke:#000000;stroke-width:0.8;" x="288.077787" xlink:href="#m45b1dc393e" y="294.118125"/>
      </g>
     </g>
     <g id="text_4">
      <!-- 400 -->
      <defs>
       <path d="M 37.796875 64.3125 
L 12.890625 25.390625 
L 37.796875 25.390625 
z
M 35.203125 72.90625 
L 47.609375 72.90625 
L 47.609375 25.390625 
L 58.015625 25.390625 
L 58.015625 17.1875 
L 47.609375 17.1875 
L 47.609375 0 
L 37.796875 0 
L 37.796875 17.1875 
L 4.890625 17.1875 
L 4.890625 26.703125 
z
" id="DejaVuSans-52"/>
      </defs>
      <g transform="translate(278.534037 308.716563)scale(0.1 -0.1)">
       <use xlink:href="#DejaVuSans-52"/>
       <use x="63.623047" xlink:href="#DejaVuSans-48"/>
       <use x="127.246094" xlink:href="#DejaVuSans-48"/>
      </g>
     </g>
    </g>
    <g id="xtick_5">
     <g id="line2d_9">
      <g>
       <use style="stroke:#000000;stroke-width:0.8;" x="360.674957" xlink:href="#m45b1dc393e" y="294.118125"/>
      </g>
     </g>
     <g id="text_5">
      <!-- 500 -->
      <defs>
       <path d="M 10.796875 72.90625 
L 49.515625 72.90625 
L 49.515625 64.59375 
L 19.828125 64.59375 
L 19.828125 46.734375 
Q 21.96875 47.46875 24.109375 47.828125 
Q 26.265625 48.1875 28.421875 48.1875 
Q 40.625 48.1875 47.75 41.5 
Q 54.890625 34.8125 54.890625 23.390625 
Q 54.890625 11.625 47.5625 5.09375 
Q 40.234375 -1.421875 26.90625 -1.421875 
Q 22.3125 -1.421875 17.546875 -0.640625 
Q 12.796875 0.140625 7.71875 1.703125 
L 7.71875 11.625 
Q 12.109375 9.234375 16.796875 8.0625 
Q 21.484375 6.890625 26.703125 6.890625 
Q 35.15625 6.890625 40.078125 11.328125 
Q 45.015625 15.765625 45.015625 23.390625 
Q 45.015625 31 40.078125 35.4375 
Q 35.15625 39.890625 26.703125 39.890625 
Q 22.75 39.890625 18.8125 39.015625 
Q 14.890625 38.140625 10.796875 36.28125 
z
" id="DejaVuSans-53"/>
      </defs>
      <g transform="translate(351.131207 308.716563)scale(0.1 -0.1)">
       <use xlink:href="#DejaVuSans-53"/>
       <use x="63.623047" xlink:href="#DejaVuSans-48"/>
       <use x="127.246094" xlink:href="#DejaVuSans-48"/>
      </g>
     </g>
    </g>
    <g id="xtick_6">
     <g id="line2d_10">
      <g>
       <use style="stroke:#000000;stroke-width:0.8;" x="433.272127" xlink:href="#m45b1dc393e" y="294.118125"/>
      </g>
     </g>
     <g id="text_6">
      <!-- 600 -->
      <defs>
       <path d="M 33.015625 40.375 
Q 26.375 40.375 22.484375 35.828125 
Q 18.609375 31.296875 18.609375 23.390625 
Q 18.609375 15.53125 22.484375 10.953125 
Q 26.375 6.390625 33.015625 6.390625 
Q 39.65625 6.390625 43.53125 10.953125 
Q 47.40625 15.53125 47.40625 23.390625 
Q 47.40625 31.296875 43.53125 35.828125 
Q 39.65625 40.375 33.015625 40.375 
z
M 52.59375 71.296875 
L 52.59375 62.3125 
Q 48.875 64.0625 45.09375 64.984375 
Q 41.3125 65.921875 37.59375 65.921875 
Q 27.828125 65.921875 22.671875 59.328125 
Q 17.53125 52.734375 16.796875 39.40625 
Q 19.671875 43.65625 24.015625 45.921875 
Q 28.375 48.1875 33.59375 48.1875 
Q 44.578125 48.1875 50.953125 41.515625 
Q 57.328125 34.859375 57.328125 23.390625 
Q 57.328125 12.15625 50.6875 5.359375 
Q 44.046875 -1.421875 33.015625 -1.421875 
Q 20.359375 -1.421875 13.671875 8.265625 
Q 6.984375 17.96875 6.984375 36.375 
Q 6.984375 53.65625 15.1875 63.9375 
Q 23.390625 74.21875 37.203125 74.21875 
Q 40.921875 74.21875 44.703125 73.484375 
Q 48.484375 72.75 52.59375 71.296875 
z
" id="DejaVuSans-54"/>
      </defs>
      <g transform="translate(423.728377 308.716563)scale(0.1 -0.1)">
       <use xlink:href="#DejaVuSans-54"/>
       <use x="63.623047" xlink:href="#DejaVuSans-48"/>
       <use x="127.246094" xlink:href="#DejaVuSans-48"/>
      </g>
     </g>
    </g>
    <g id="text_7">
     <!-- Tempo -->
     <defs>
      <path d="M -0.296875 72.90625 
L 61.375 72.90625 
L 61.375 64.59375 
L 35.5 64.59375 
L 35.5 0 
L 25.59375 0 
L 25.59375 64.59375 
L -0.296875 64.59375 
z
" id="DejaVuSans-84"/>
      <path d="M 56.203125 29.59375 
L 56.203125 25.203125 
L 14.890625 25.203125 
Q 15.484375 15.921875 20.484375 11.0625 
Q 25.484375 6.203125 34.421875 6.203125 
Q 39.59375 6.203125 44.453125 7.46875 
Q 49.3125 8.734375 54.109375 11.28125 
L 54.109375 2.78125 
Q 49.265625 0.734375 44.1875 -0.34375 
Q 39.109375 -1.421875 33.890625 -1.421875 
Q 20.796875 -1.421875 13.15625 6.1875 
Q 5.515625 13.8125 5.515625 26.8125 
Q 5.515625 40.234375 12.765625 48.109375 
Q 20.015625 56 32.328125 56 
Q 43.359375 56 49.78125 48.890625 
Q 56.203125 41.796875 56.203125 29.59375 
z
M 47.21875 32.234375 
Q 47.125 39.59375 43.09375 43.984375 
Q 39.0625 48.390625 32.421875 48.390625 
Q 24.90625 48.390625 20.390625 44.140625 
Q 15.875 39.890625 15.1875 32.171875 
z
" id="DejaVuSans-101"/>
      <path d="M 52 44.1875 
Q 55.375 50.25 60.0625 53.125 
Q 64.75 56 71.09375 56 
Q 79.640625 56 84.28125 50.015625 
Q 88.921875 44.046875 88.921875 33.015625 
L 88.921875 0 
L 79.890625 0 
L 79.890625 32.71875 
Q 79.890625 40.578125 77.09375 44.375 
Q 74.3125 48.1875 68.609375 48.1875 
Q 61.625 48.1875 57.5625 43.546875 
Q 53.515625 38.921875 53.515625 30.90625 
L 53.515625 0 
L 44.484375 0 
L 44.484375 32.71875 
Q 44.484375 40.625 41.703125 44.40625 
Q 38.921875 48.1875 33.109375 48.1875 
Q 26.21875 48.1875 22.15625 43.53125 
Q 18.109375 38.875 18.109375 30.90625 
L 18.109375 0 
L 9.078125 0 
L 9.078125 54.6875 
L 18.109375 54.6875 
L 18.109375 46.1875 
Q 21.1875 51.21875 25.484375 53.609375 
Q 29.78125 56 35.6875 56 
Q 41.65625 56 45.828125 52.96875 
Q 50 49.953125 52 44.1875 
z
" id="DejaVuSans-109"/>
      <path d="M 18.109375 8.203125 
L 18.109375 -20.796875 
L 9.078125 -20.796875 
L 9.078125 54.6875 
L 18.109375 54.6875 
L 18.109375 46.390625 
Q 20.953125 51.265625 25.265625 53.625 
Q 29.59375 56 35.59375 56 
Q 45.5625 56 51.78125 48.09375 
Q 58.015625 40.1875 58.015625 27.296875 
Q 58.015625 14.40625 51.78125 6.484375 
Q 45.5625 -1.421875 35.59375 -1.421875 
Q 29.59375 -1.421875 25.265625 0.953125 
Q 20.953125 3.328125 18.109375 8.203125 
z
M 48.6875 27.296875 
Q 48.6875 37.203125 44.609375 42.84375 
Q 40.53125 48.484375 33.40625 48.484375 
Q 26.265625 48.484375 22.1875 42.84375 
Q 18.109375 37.203125 18.109375 27.296875 
Q 18.109375 17.390625 22.1875 11.75 
Q 26.265625 6.109375 33.40625 6.109375 
Q 40.53125 6.109375 44.609375 11.75 
Q 48.6875 17.390625 48.6875 27.296875 
z
" id="DejaVuSans-112"/>
      <path d="M 30.609375 48.390625 
Q 23.390625 48.390625 19.1875 42.75 
Q 14.984375 37.109375 14.984375 27.296875 
Q 14.984375 17.484375 19.15625 11.84375 
Q 23.34375 6.203125 30.609375 6.203125 
Q 37.796875 6.203125 41.984375 11.859375 
Q 46.1875 17.53125 46.1875 27.296875 
Q 46.1875 37.015625 41.984375 42.703125 
Q 37.796875 48.390625 30.609375 48.390625 
z
M 30.609375 56 
Q 42.328125 56 49.015625 48.375 
Q 55.71875 40.765625 55.71875 27.296875 
Q 55.71875 13.875 49.015625 6.21875 
Q 42.328125 -1.421875 30.609375 -1.421875 
Q 18.84375 -1.421875 12.171875 6.21875 
Q 5.515625 13.875 5.515625 27.296875 
Q 5.515625 40.765625 12.171875 48.375 
Q 18.84375 56 30.609375 56 
z
" id="DejaVuSans-111"/>
     </defs>
     <g transform="translate(235.757812 322.394687)scale(0.1 -0.1)">
      <use xlink:href="#DejaVuSans-84"/>
      <use x="44.083984" xlink:href="#DejaVuSans-101"/>
      <use x="105.607422" xlink:href="#DejaVuSans-109"/>
      <use x="203.019531" xlink:href="#DejaVuSans-112"/>
      <use x="266.496094" xlink:href="#DejaVuSans-111"/>
     </g>
    </g>
   </g>
   <g id="matplotlib.axis_2">
    <g id="ytick_1">
     <g id="line2d_11">
      <defs>
       <path d="M 0 0 
L -3.5 0 
" id="mfe719f6f71" style="stroke:#000000;stroke-width:0.8;"/>
      </defs>
      <g>
       <use style="stroke:#000000;stroke-width:0.8;" x="28.942188" xlink:href="#mfe719f6f71" y="286.607457"/>
      </g>
     </g>
     <g id="text_8">
      <!-- 1 -->
      <defs>
       <path d="M 10.59375 35.5 
L 73.1875 35.5 
L 73.1875 27.203125 
L 10.59375 27.203125 
z
" id="DejaVuSans-8722"/>
      </defs>
      <g transform="translate(7.2 290.406676)scale(0.1 -0.1)">
       <use xlink:href="#DejaVuSans-8722"/>
       <use x="83.789062" xlink:href="#DejaVuSans-49"/>
      </g>
     </g>
    </g>
    <g id="ytick_2">
     <g id="line2d_12">
      <g>
       <use style="stroke:#000000;stroke-width:0.8;" x="28.942188" xlink:href="#mfe719f6f71" y="241.247114"/>
      </g>
     </g>
     <g id="text_9">
      <!-- 0 -->
      <g transform="translate(15.579688 245.046333)scale(0.1 -0.1)">
       <use xlink:href="#DejaVuSans-48"/>
      </g>
     </g>
    </g>
    <g id="ytick_3">
     <g id="line2d_13">
      <g>
       <use style="stroke:#000000;stroke-width:0.8;" x="28.942188" xlink:href="#mfe719f6f71" y="195.886771"/>
      </g>
     </g>
     <g id="text_10">
      <!-- 1 -->
      <g transform="translate(15.579688 199.68599)scale(0.1 -0.1)">
       <use xlink:href="#DejaVuSans-49"/>
      </g>
     </g>
    </g>
    <g id="ytick_4">
     <g id="line2d_14">
      <g>
       <use style="stroke:#000000;stroke-width:0.8;" x="28.942188" xlink:href="#mfe719f6f71" y="150.526428"/>
      </g>
     </g>
     <g id="text_11">
      <!-- 2 -->
      <g transform="translate(15.579688 154.325646)scale(0.1 -0.1)">
       <use xlink:href="#DejaVuSans-50"/>
      </g>
     </g>
    </g>
    <g id="ytick_5">
     <g id="line2d_15">
      <g>
       <use style="stroke:#000000;stroke-width:0.8;" x="28.942188" xlink:href="#mfe719f6f71" y="105.166084"/>
      </g>
     </g>
     <g id="text_12">
      <!-- 3 -->
      <g transform="translate(15.579688 108.965303)scale(0.1 -0.1)">
       <use xlink:href="#DejaVuSans-51"/>
      </g>
     </g>
    </g>
    <g id="ytick_6">
     <g id="line2d_16">
      <g>
       <use style="stroke:#000000;stroke-width:0.8;" x="28.942188" xlink:href="#mfe719f6f71" y="59.805741"/>
      </g>
     </g>
     <g id="text_13">
      <!-- 4 -->
      <g transform="translate(15.579688 63.60496)scale(0.1 -0.1)">
       <use xlink:href="#DejaVuSans-52"/>
      </g>
     </g>
    </g>
   </g>
   <g id="patch_3">
    <path d="M 28.942188 294.118125 
L 28.942188 22.318125 
" style="fill:none;stroke:#000000;stroke-linecap:square;stroke-linejoin:miter;stroke-width:0.8;"/>
   </g>
   <g id="patch_4">
    <path d="M 28.942188 294.118125 
L 475.342187 294.118125 
" style="fill:none;stroke:#000000;stroke-linecap:square;stroke-linejoin:miter;stroke-width:0.8;"/>
   </g>
   <g id="text_14">
    <!-- Tax_Total -->
    <defs>
     <path d="M 34.28125 27.484375 
Q 23.390625 27.484375 19.1875 25 
Q 14.984375 22.515625 14.984375 16.5 
Q 14.984375 11.71875 18.140625 8.90625 
Q 21.296875 6.109375 26.703125 6.109375 
Q 34.1875 6.109375 38.703125 11.40625 
Q 43.21875 16.703125 43.21875 25.484375 
L 43.21875 27.484375 
z
M 52.203125 31.203125 
L 52.203125 0 
L 43.21875 0 
L 43.21875 8.296875 
Q 40.140625 3.328125 35.546875 0.953125 
Q 30.953125 -1.421875 24.3125 -1.421875 
Q 15.921875 -1.421875 10.953125 3.296875 
Q 6 8.015625 6 15.921875 
Q 6 25.140625 12.171875 29.828125 
Q 18.359375 34.515625 30.609375 34.515625 
L 43.21875 34.515625 
L 43.21875 35.40625 
Q 43.21875 41.609375 39.140625 45 
Q 35.0625 48.390625 27.6875 48.390625 
Q 23 48.390625 18.546875 47.265625 
Q 14.109375 46.140625 10.015625 43.890625 
L 10.015625 52.203125 
Q 14.9375 54.109375 19.578125 55.046875 
Q 24.21875 56 28.609375 56 
Q 40.484375 56 46.34375 49.84375 
Q 52.203125 43.703125 52.203125 31.203125 
z
" id="DejaVuSans-97"/>
     <path d="M 54.890625 54.6875 
L 35.109375 28.078125 
L 55.90625 0 
L 45.3125 0 
L 29.390625 21.484375 
L 13.484375 0 
L 2.875 0 
L 24.125 28.609375 
L 4.6875 54.6875 
L 15.28125 54.6875 
L 29.78125 35.203125 
L 44.28125 54.6875 
z
" id="DejaVuSans-120"/>
     <path d="M 50.984375 -16.609375 
L 50.984375 -23.578125 
L -0.984375 -23.578125 
L -0.984375 -16.609375 
z
" id="DejaVuSans-95"/>
     <path d="M 18.3125 70.21875 
L 18.3125 54.6875 
L 36.8125 54.6875 
L 36.8125 47.703125 
L 18.3125 47.703125 
L 18.3125 18.015625 
Q 18.3125 11.328125 20.140625 9.421875 
Q 21.96875 7.515625 27.59375 7.515625 
L 36.8125 7.515625 
L 36.8125 0 
L 27.59375 0 
Q 17.1875 0 13.234375 3.875 
Q 9.28125 7.765625 9.28125 18.015625 
L 9.28125 47.703125 
L 2.6875 47.703125 
L 2.6875 54.6875 
L 9.28125 54.6875 
L 9.28125 70.21875 
z
" id="DejaVuSans-116"/>
     <path d="M 9.421875 75.984375 
L 18.40625 75.984375 
L 18.40625 0 
L 9.421875 0 
z
" id="DejaVuSans-108"/>
    </defs>
    <g transform="translate(225.2275 16.318125)scale(0.12 -0.12)">
     <use xlink:href="#DejaVuSans-84"/>
     <use x="44.583984" xlink:href="#DejaVuSans-97"/>
     <use x="105.863281" xlink:href="#DejaVuSans-120"/>
     <use x="165.042969" xlink:href="#DejaVuSans-95"/>
     <use x="215.042969" xlink:href="#DejaVuSans-84"/>
     <use x="259.126953" xlink:href="#DejaVuSans-111"/>
     <use x="320.308594" xlink:href="#DejaVuSans-116"/>
     <use x="359.517578" xlink:href="#DejaVuSans-97"/>
     <use x="420.796875" xlink:href="#DejaVuSans-108"/>
    </g>
   </g>
   <g id="legend_1">
    <g id="patch_5">
     <path d="M 482.342187 190.104844 
L 556.740625 190.104844 
Q 558.740625 190.104844 558.740625 188.104844 
L 558.740625 128.331406 
Q 558.740625 126.331406 556.740625 126.331406 
L 482.342187 126.331406 
Q 480.342187 126.331406 480.342187 128.331406 
L 480.342187 188.104844 
Q 480.342187 190.104844 482.342187 190.104844 
z
" style="fill:#ffffff;opacity:0.8;stroke:#cccccc;stroke-linejoin:miter;"/>
    </g>
    <g id="line2d_17">
     <path d="M 484.342187 134.429844 
L 504.342187 134.429844 
" style="fill:none;stroke:#000000;stroke-dasharray:3.7,1.6;stroke-dashoffset:0;"/>
    </g>
    <g id="line2d_18"/>
    <g id="text_15">
     <!-- Baseline -->
     <defs>
      <path d="M 19.671875 34.8125 
L 19.671875 8.109375 
L 35.5 8.109375 
Q 43.453125 8.109375 47.28125 11.40625 
Q 51.125 14.703125 51.125 21.484375 
Q 51.125 28.328125 47.28125 31.5625 
Q 43.453125 34.8125 35.5 34.8125 
z
M 19.671875 64.796875 
L 19.671875 42.828125 
L 34.28125 42.828125 
Q 41.5 42.828125 45.03125 45.53125 
Q 48.578125 48.25 48.578125 53.8125 
Q 48.578125 59.328125 45.03125 62.0625 
Q 41.5 64.796875 34.28125 64.796875 
z
M 9.8125 72.90625 
L 35.015625 72.90625 
Q 46.296875 72.90625 52.390625 68.21875 
Q 58.5 63.53125 58.5 54.890625 
Q 58.5 48.1875 55.375 44.234375 
Q 52.25 40.28125 46.1875 39.3125 
Q 53.46875 37.75 57.5 32.78125 
Q 61.53125 27.828125 61.53125 20.40625 
Q 61.53125 10.640625 54.890625 5.3125 
Q 48.25 0 35.984375 0 
L 9.8125 0 
z
" id="DejaVuSans-66"/>
      <path d="M 44.28125 53.078125 
L 44.28125 44.578125 
Q 40.484375 46.53125 36.375 47.5 
Q 32.28125 48.484375 27.875 48.484375 
Q 21.1875 48.484375 17.84375 46.4375 
Q 14.5 44.390625 14.5 40.28125 
Q 14.5 37.15625 16.890625 35.375 
Q 19.28125 33.59375 26.515625 31.984375 
L 29.59375 31.296875 
Q 39.15625 29.25 43.1875 25.515625 
Q 47.21875 21.78125 47.21875 15.09375 
Q 47.21875 7.46875 41.1875 3.015625 
Q 35.15625 -1.421875 24.609375 -1.421875 
Q 20.21875 -1.421875 15.453125 -0.5625 
Q 10.6875 0.296875 5.421875 2 
L 5.421875 11.28125 
Q 10.40625 8.6875 15.234375 7.390625 
Q 20.0625 6.109375 24.8125 6.109375 
Q 31.15625 6.109375 34.5625 8.28125 
Q 37.984375 10.453125 37.984375 14.40625 
Q 37.984375 18.0625 35.515625 20.015625 
Q 33.0625 21.96875 24.703125 23.78125 
L 21.578125 24.515625 
Q 13.234375 26.265625 9.515625 29.90625 
Q 5.8125 33.546875 5.8125 39.890625 
Q 5.8125 47.609375 11.28125 51.796875 
Q 16.75 56 26.8125 56 
Q 31.78125 56 36.171875 55.265625 
Q 40.578125 54.546875 44.28125 53.078125 
z
" id="DejaVuSans-115"/>
      <path d="M 9.421875 54.6875 
L 18.40625 54.6875 
L 18.40625 0 
L 9.421875 0 
z
M 9.421875 75.984375 
L 18.40625 75.984375 
L 18.40625 64.59375 
L 9.421875 64.59375 
z
" id="DejaVuSans-105"/>
      <path d="M 54.890625 33.015625 
L 54.890625 0 
L 45.90625 0 
L 45.90625 32.71875 
Q 45.90625 40.484375 42.875 44.328125 
Q 39.84375 48.1875 33.796875 48.1875 
Q 26.515625 48.1875 22.3125 43.546875 
Q 18.109375 38.921875 18.109375 30.90625 
L 18.109375 0 
L 9.078125 0 
L 9.078125 54.6875 
L 18.109375 54.6875 
L 18.109375 46.1875 
Q 21.34375 51.125 25.703125 53.5625 
Q 30.078125 56 35.796875 56 
Q 45.21875 56 50.046875 50.171875 
Q 54.890625 44.34375 54.890625 33.015625 
z
" id="DejaVuSans-110"/>
     </defs>
     <g transform="translate(512.342187 137.929844)scale(0.1 -0.1)">
      <use xlink:href="#DejaVuSans-66"/>
      <use x="68.603516" xlink:href="#DejaVuSans-97"/>
      <use x="129.882812" xlink:href="#DejaVuSans-115"/>
      <use x="181.982422" xlink:href="#DejaVuSans-101"/>
      <use x="243.505859" xlink:href="#DejaVuSans-108"/>
      <use x="271.289062" xlink:href="#DejaVuSans-105"/>
      <use x="299.072266" xlink:href="#DejaVuSans-110"/>
      <use x="362.451172" xlink:href="#DejaVuSans-101"/>
     </g>
    </g>
    <g id="line2d_19">
     <path d="M 484.342187 149.107969 
L 504.342187 149.107969 
" style="fill:none;stroke:#1f77b4;stroke-linecap:square;stroke-width:1.5;"/>
    </g>
    <g id="line2d_20"/>
    <g id="text_16">
     <!-- $\Downarrow \sigma_\psi$ -->
     <defs>
      <path d="M 36.765625 14.3125 
L 41.9375 9.234375 
L 47.015625 14.3125 
L 47.015625 72.90625 
L 52.875 72.90625 
L 52.875 20.171875 
L 57.46875 24.75 
L 63.328125 18.890625 
L 44.09375 -0.34375 
L 39.703125 -0.34375 
L 20.5625 18.890625 
L 26.421875 24.75 
L 30.90625 20.171875 
L 30.90625 72.90625 
L 36.765625 72.90625 
z
" id="DejaVuSans-8659"/>
      <path d="M 34.671875 47.5625 
Q 27.25 47.5625 22.21875 42.1875 
Q 16.890625 36.578125 15.140625 27.296875 
Q 13.1875 17.484375 16.3125 11.8125 
Q 19.390625 6.203125 26.65625 6.203125 
Q 33.84375 6.203125 39.109375 11.859375 
Q 44.4375 17.53125 46.34375 27.296875 
Q 48.046875 36.234375 45.015625 42.1875 
Q 42.1875 47.5625 34.671875 47.5625 
z
M 36.078125 54.734375 
L 65.921875 54.6875 
L 64.15625 45.703125 
L 54.109375 45.703125 
Q 57.90625 38.09375 55.859375 27.296875 
Q 53.21875 13.875 45.0625 6.25 
Q 36.859375 -1.421875 25.140625 -1.421875 
Q 13.375 -1.421875 8.203125 6.25 
Q 3.03125 13.875 5.671875 27.296875 
Q 8.25 40.765625 16.40625 48.390625 
Q 23.1875 54.734375 36.078125 54.734375 
z
" id="DejaVuSans-Oblique-963"/>
      <path d="M 24.859375 -1.21875 
Q 13.921875 0.59375 9.625 5.328125 
Q 4.34375 11.140625 6.640625 23 
L 12.796875 54.6875 
L 21.875 54.6875 
L 15.765625 23.34375 
Q 14.0625 14.40625 17.484375 10.6875 
Q 20.515625 7.46875 26.421875 6.78125 
L 35.6875 54.6875 
L 44.625 54.6875 
L 35.359375 6.84375 
Q 41.890625 7.515625 45.75 10.75 
Q 50.734375 14.84375 52.390625 23.390625 
L 58.453125 54.6875 
L 67.53125 54.6875 
L 61.375 23.046875 
Q 58.984375 10.75 51.5625 5.375 
Q 44.875 0.53125 33.796875 -1.171875 
L 29.984375 -20.796875 
L 21.046875 -20.796875 
z
" id="DejaVuSans-Oblique-968"/>
     </defs>
     <g transform="translate(512.342187 152.607969)scale(0.1 -0.1)">
      <use transform="translate(19.482422 0.09375)" xlink:href="#DejaVuSans-8659"/>
      <use transform="translate(122.753906 0.09375)" xlink:href="#DejaVuSans-Oblique-963"/>
      <use transform="translate(186.132812 -16.3125)scale(0.7)" xlink:href="#DejaVuSans-Oblique-968"/>
     </g>
    </g>
    <g id="line2d_21">
     <path d="M 484.342187 164.806406 
L 504.342187 164.806406 
" style="fill:none;stroke:#ff7f0e;stroke-linecap:square;stroke-width:1.5;"/>
    </g>
    <g id="line2d_22"/>
    <g id="text_17">
     <!-- $\Downarrow s_\psi$ -->
     <defs>
      <path d="M 50 53.078125 
L 48.296875 44.578125 
Q 44.734375 46.53125 40.765625 47.5 
Q 36.8125 48.484375 32.625 48.484375 
Q 25.53125 48.484375 21.453125 46.0625 
Q 17.390625 43.65625 17.390625 39.5 
Q 17.390625 34.671875 26.859375 32.078125 
Q 27.59375 31.890625 27.9375 31.78125 
L 30.8125 30.90625 
Q 39.796875 28.421875 42.796875 25.6875 
Q 45.796875 22.953125 45.796875 18.21875 
Q 45.796875 9.515625 38.890625 4.046875 
Q 31.984375 -1.421875 20.796875 -1.421875 
Q 16.453125 -1.421875 11.671875 -0.578125 
Q 6.890625 0.25 1.125 2 
L 2.875 11.28125 
Q 7.8125 8.734375 12.59375 7.421875 
Q 17.390625 6.109375 21.78125 6.109375 
Q 28.375 6.109375 32.5 8.9375 
Q 36.625 11.765625 36.625 16.109375 
Q 36.625 20.796875 25.78125 23.6875 
L 24.859375 23.921875 
L 21.78125 24.703125 
Q 14.9375 26.515625 11.765625 29.46875 
Q 8.59375 32.421875 8.59375 37.015625 
Q 8.59375 45.75 15.15625 50.875 
Q 21.734375 56 33.015625 56 
Q 37.453125 56 41.671875 55.265625 
Q 45.90625 54.546875 50 53.078125 
z
" id="DejaVuSans-Oblique-115"/>
     </defs>
     <g transform="translate(512.342187 168.306406)scale(0.1 -0.1)">
      <use transform="translate(19.482422 0.09375)" xlink:href="#DejaVuSans-8659"/>
      <use transform="translate(122.753906 0.09375)" xlink:href="#DejaVuSans-Oblique-115"/>
      <use transform="translate(174.853516 -16.3125)scale(0.7)" xlink:href="#DejaVuSans-Oblique-968"/>
     </g>
    </g>
    <g id="line2d_23">
     <path d="M 484.342187 180.504844 
L 504.342187 180.504844 
" style="fill:none;stroke:#2ca02c;stroke-linecap:square;stroke-width:1.5;"/>
    </g>
    <g id="line2d_24"/>
    <g id="text_18">
     <!-- $\Uparrow \eta$ -->
     <defs>
      <path d="M 36.765625 58.59375 
L 36.765625 0 
L 30.90625 0 
L 30.90625 52.734375 
L 26.421875 48.140625 
L 20.5625 54 
L 39.703125 73.25 
L 44.09375 73.25 
L 63.328125 54 
L 57.46875 48.140625 
L 52.875 52.734375 
L 52.875 0 
L 47.015625 0 
L 47.015625 58.59375 
L 41.9375 63.671875 
z
" id="DejaVuSans-8657"/>
      <path d="M 57.859375 33.015625 
L 47.40625 -20.796875 
L 38.421875 -20.796875 
L 48.828125 32.71875 
Q 50.34375 40.484375 48.046875 44.34375 
Q 45.796875 48.1875 39.75 48.1875 
Q 32.46875 48.1875 27.34375 43.5625 
Q 22.265625 38.921875 20.703125 30.90625 
L 14.703125 0 
L 5.671875 0 
L 16.3125 54.6875 
L 25.34375 54.6875 
L 23.6875 46.1875 
Q 27.828125 51.125 32.71875 53.5625 
Q 37.546875 56 43.265625 56 
Q 52.6875 56 56.390625 50.203125 
Q 60.0625 44.34375 57.859375 33.015625 
z
" id="DejaVuSans-Oblique-951"/>
     </defs>
     <g transform="translate(512.342187 184.004844)scale(0.1 -0.1)">
      <use transform="translate(19.482422 0.75)" xlink:href="#DejaVuSans-8657"/>
      <use transform="translate(122.753906 0.75)" xlink:href="#DejaVuSans-Oblique-951"/>
     </g>
    </g>
   </g>
  </g>
 </g>
 <defs>
  <clipPath id="paa8688c21e">
   <rect height="271.8" width="446.4" x="28.942188" y="22.318125"/>
  </clipPath>
 </defs>
</svg>
