<?xml version="1.0" encoding="utf-8" standalone="no"?>
<!DOCTYPE svg PUBLIC "-//W3C//DTD SVG 1.1//EN"
  "http://www.w3.org/Graphics/SVG/1.1/DTD/svg11.dtd">
<!-- Created with matplotlib (https://matplotlib.org/) -->
<svg height="331.674375pt" version="1.1" viewBox="0 0 575.48125 331.674375" width="575.48125pt" xmlns="http://www.w3.org/2000/svg" xmlns:xlink="http://www.w3.org/1999/xlink">
 <defs>
  <style type="text/css">
*{stroke-linecap:butt;stroke-linejoin:round;}
  </style>
 </defs>
 <g id="figure_1">
  <g id="patch_1">
   <path d="M 0 331.674375 
L 575.48125 331.674375 
L 575.48125 0 
L 0 0 
z
" style="fill:#ffffff;"/>
  </g>
  <g id="axes_1">
   <g id="patch_2">
    <path d="M 38.482813 294.118125 
L 484.882812 294.118125 
L 484.882812 22.318125 
L 38.482813 22.318125 
z
" style="fill:#ffffff;"/>
   </g>
   <g id="line2d_1">
    <path clip-path="url(#pff3e116e9f)" d="M 58.773722 235.623295 
L 59.499693 215.445053 
L 60.225665 259.629225 
L 60.951637 153.371573 
L 61.677608 243.443736 
L 62.40358 225.783835 
L 63.129552 225.900779 
L 63.855524 227.978898 
L 64.581495 242.049173 
L 65.307467 210.184957 
L 66.033439 268.135228 
L 66.75941 76.223867 
L 67.485382 254.873892 
L 68.211354 240.688126 
L 68.937325 216.074716 
L 69.663297 206.138254 
L 70.389269 165.210816 
L 71.115241 241.301023 
L 71.841212 210.232379 
L 72.567184 230.0851 
L 73.293156 208.198788 
L 74.019127 198.797593 
L 74.745099 234.564283 
L 75.471071 195.510305 
L 76.197042 242.880906 
L 76.923014 232.459895 
L 77.648986 239.370362 
L 78.374958 261.786553 
L 79.100929 258.92516 
L 79.826901 138.561929 
L 80.552873 264.959187 
L 81.278844 190.648185 
L 82.004816 193.929933 
L 82.730788 176.474681 
L 83.456759 242.645325 
L 84.182731 255.031671 
L 84.908703 252.591327 
L 85.634675 243.533625 
L 86.360646 135.788837 
L 87.086618 180.861603 
L 87.81259 160.912714 
L 88.538561 234.350385 
L 89.264533 201.00064 
L 89.990505 181.754621 
L 90.716477 223.78229 
L 91.442448 219.402368 
L 92.16842 221.662613 
L 92.894392 178.978334 
L 93.620363 232.16449 
L 94.346335 175.944602 
L 95.072307 232.094089 
L 95.798278 186.262744 
L 96.52425 199.791773 
L 97.250222 231.637197 
L 97.976194 170.659171 
L 98.702165 185.776321 
L 99.428137 188.206145 
L 100.154109 268.094834 
L 100.88008 254.168833 
L 101.606052 244.30344 
L 102.332024 240.227898 
L 103.057995 244.18895 
L 103.783967 267.285712 
L 104.509939 137.490289 
L 105.235911 217.443788 
L 105.961882 234.461942 
L 106.687854 264.789635 
L 107.413826 232.150779 
L 108.139797 248.535871 
L 108.865769 247.590774 
L 109.591741 251.316453 
L 110.317712 272.433555 
L 111.043684 265.377051 
L 111.769656 152.482807 
L 112.495628 249.171618 
L 113.221599 237.78459 
L 113.947571 249.866764 
L 114.673543 258.77499 
L 115.399514 233.910932 
L 116.125486 233.905954 
L 116.851458 241.062548 
L 117.57743 261.494992 
L 118.303401 160.954091 
L 119.029373 235.270445 
L 119.755345 239.812489 
L 120.481316 278.77766 
L 121.207288 160.300464 
L 121.93326 267.908425 
L 122.659231 227.364108 
L 123.385203 165.914988 
L 124.111175 251.187895 
L 124.837147 238.181801 
L 125.563118 265.456001 
L 126.28909 259.464852 
L 127.015062 241.942041 
L 127.741033 249.539664 
L 128.467005 267.628092 
L 129.192977 232.211185 
L 129.918948 235.038321 
L 130.64492 171.786314 
L 131.370892 172.451772 
L 132.096864 236.61923 
L 132.822835 261.312526 
L 133.548807 230.963081 
L 134.274779 263.287566 
L 135.00075 140.80642 
L 135.726722 178.067294 
L 136.452694 249.389157 
L 137.178665 227.633706 
L 137.904637 209.634866 
L 138.630609 241.638628 
L 139.356581 215.501819 
L 140.082552 266.540365 
L 140.808524 146.892612 
L 141.534496 166.41103 
L 142.260467 222.212291 
L 142.986439 214.097087 
L 143.712411 220.436914 
L 144.438383 79.807374 
L 145.164354 185.344807 
L 145.890326 246.405553 
L 146.616298 213.033803 
L 147.342269 209.187901 
L 148.068241 216.629953 
L 148.794213 217.473125 
L 149.520184 232.57294 
L 150.246156 220.920778 
L 150.972128 223.104256 
L 151.6981 271.13784 
L 152.424071 245.401886 
L 153.150043 233.959179 
L 153.876015 217.672566 
L 154.601986 229.291579 
L 155.327958 109.239233 
L 156.05393 241.778873 
L 156.779901 241.78458 
L 158.231845 213.437364 
L 159.683788 220.39566 
L 160.40976 226.43559 
L 161.135732 191.901083 
L 161.861703 229.826462 
L 162.587675 213.48773 
L 163.313647 205.845698 
L 164.039618 263.847072 
L 164.76559 217.512026 
L 165.491562 234.201738 
L 166.217534 37.530173 
L 166.943505 146.065314 
L 167.669477 85.333444 
L 168.395449 106.722357 
L 169.12142 188.796513 
L 169.847392 209.947545 
L 170.573364 251.490225 
L 171.299336 34.67267 
L 172.025307 231.943147 
L 172.751279 120.79491 
L 173.477251 216.448423 
L 174.203222 218.680359 
L 174.929194 228.799883 
L 175.655166 225.477743 
L 176.381137 223.497815 
L 177.107109 238.321935 
L 177.833081 205.895123 
L 178.559053 211.41253 
L 179.285024 228.64042 
L 180.010996 210.511067 
L 180.736968 247.360417 
L 181.462939 252.972188 
L 182.188911 251.790274 
L 182.914883 117.936162 
L 183.640854 173.799855 
L 184.366826 266.07769 
L 185.092798 230.534278 
L 185.81877 235.313104 
L 186.544741 242.23258 
L 187.270713 235.613661 
L 187.996685 213.202108 
L 188.722656 228.316858 
L 189.448628 231.258471 
L 190.1746 260.514637 
L 190.900571 232.271586 
L 191.626543 247.937851 
L 192.352515 257.378434 
L 193.078487 229.351519 
L 193.804458 258.379505 
L 194.53043 244.078516 
L 195.256402 240.018886 
L 196.708345 215.496887 
L 197.434317 220.421807 
L 198.160289 251.611784 
L 198.88626 252.00701 
L 199.612232 235.222251 
L 200.338204 229.645371 
L 201.064175 184.140544 
L 201.790147 252.066213 
L 202.516119 259.714196 
L 203.24209 241.687123 
L 203.968062 236.716546 
L 204.694034 253.908877 
L 205.420006 236.617379 
L 206.145977 226.832717 
L 206.871949 143.831089 
L 207.597921 155.056808 
L 208.323892 221.995328 
L 209.049864 221.385394 
L 209.775836 199.801996 
L 210.501807 152.469667 
L 211.227779 132.278721 
L 211.953751 215.832011 
L 212.679723 91.94426 
L 213.405694 189.702276 
L 214.131666 230.691086 
L 214.857638 206.939141 
L 215.583609 212.709346 
L 216.309581 224.151568 
L 217.035553 189.872382 
L 217.761524 188.124646 
L 218.487496 216.642086 
L 219.213468 236.235342 
L 219.93944 203.638327 
L 221.391383 226.89772 
L 222.117355 217.815472 
L 222.843326 201.808967 
L 223.569298 248.162724 
L 224.29527 206.333413 
L 225.021242 192.331824 
L 225.747213 124.921584 
L 226.473185 245.242787 
L 227.199157 202.232739 
L 227.925128 115.522258 
L 228.6511 153.833428 
L 229.377072 204.357575 
L 230.103043 224.473544 
L 230.829015 85.236689 
L 231.554987 208.885604 
L 232.280959 137.02407 
L 233.00693 222.104082 
L 233.732902 211.750137 
L 234.458874 134.190014 
L 235.184845 148.871532 
L 235.910817 224.600729 
L 236.636789 107.666392 
L 237.36276 228.227615 
L 238.088732 221.097205 
L 238.814704 228.666647 
L 239.540676 254.41914 
L 240.266647 154.897071 
L 241.718591 222.498195 
L 242.444562 239.423561 
L 243.170534 234.182887 
L 243.896506 239.242182 
L 244.622477 219.890777 
L 245.348449 221.38965 
L 246.074421 233.806462 
L 246.800393 230.724619 
L 247.526364 211.872052 
L 248.252336 239.820557 
L 248.978308 236.866961 
L 249.704279 208.543907 
L 250.430251 237.985238 
L 251.156223 214.234528 
L 251.882195 218.838132 
L 252.608166 200.784046 
L 253.334138 239.614711 
L 254.06011 243.209259 
L 254.786081 185.565062 
L 255.512053 262.498556 
L 256.238025 261.073195 
L 256.963996 247.957585 
L 257.689968 250.77738 
L 258.41594 263.720819 
L 259.141912 178.893787 
L 259.867883 274.588545 
L 260.593855 249.921548 
L 261.319827 250.787979 
L 262.045798 258.793286 
L 262.77177 210.76977 
L 263.497742 246.958016 
L 264.223713 219.964297 
L 264.949685 251.599635 
L 265.675657 254.069771 
L 266.401629 245.218118 
L 267.1276 268.994594 
L 267.853572 175.465519 
L 268.579544 210.946315 
L 269.305515 258.409179 
L 270.031487 237.155739 
L 270.757459 244.942409 
L 271.48343 242.331084 
L 272.209402 239.046136 
L 273.661346 262.785455 
L 274.387317 259.953305 
L 275.113289 248.3751 
L 275.839261 169.386952 
L 276.565232 250.796242 
L 277.291204 239.53659 
L 278.017176 234.12198 
L 278.743148 235.932772 
L 279.469119 244.796454 
L 280.195091 235.470835 
L 280.921063 247.126388 
L 281.647034 262.175898 
L 282.373006 248.762456 
L 283.098978 266.689373 
L 283.824949 219.184481 
L 284.550921 184.170929 
L 285.276893 217.8159 
L 286.002865 180.593761 
L 286.728836 222.106155 
L 287.454808 248.636969 
L 288.18078 182.475166 
L 288.906751 188.676622 
L 289.632723 235.19373 
L 290.358695 207.290445 
L 291.084666 222.007202 
L 291.810638 135.798948 
L 292.53661 232.132175 
L 293.262582 220.05705 
L 293.988553 211.359613 
L 294.714525 224.920979 
L 295.440497 226.529371 
L 296.166468 218.825712 
L 296.89244 223.733984 
L 297.618412 212.062881 
L 298.344383 221.27946 
L 299.070355 213.417223 
L 299.796327 136.625909 
L 300.522299 229.054732 
L 301.24827 253.990763 
L 301.974242 210.939948 
L 302.700214 217.696776 
L 303.426185 211.50654 
L 304.152157 209.086615 
L 304.878129 214.644344 
L 305.604101 224.883491 
L 306.330072 242.941601 
L 307.782016 200.656992 
L 309.233959 193.503515 
L 309.959931 228.454131 
L 310.685902 215.228745 
L 311.411874 220.078271 
L 312.137846 137.981253 
L 312.863818 230.420022 
L 313.589789 222.064719 
L 314.315761 209.916383 
L 315.041733 205.1044 
L 315.767704 128.81373 
L 316.493676 227.370188 
L 317.219648 218.725446 
L 317.945619 251.834847 
L 318.671591 198.994084 
L 319.397563 219.484635 
L 320.123535 113.545976 
L 320.849506 228.751611 
L 321.575478 206.851498 
L 322.30145 243.422351 
L 323.027421 175.356974 
L 323.753393 225.937435 
L 324.479365 210.9338 
L 325.205336 218.781728 
L 325.931308 186.522593 
L 326.65728 204.840556 
L 327.383252 194.368606 
L 328.109223 168.913668 
L 328.835195 234.835993 
L 329.561167 155.470891 
L 330.287138 254.139805 
L 331.01311 222.074429 
L 331.739082 221.296718 
L 332.465054 191.55742 
L 333.191025 224.420506 
L 333.916997 236.195787 
L 334.642969 203.073406 
L 335.36894 242.912492 
L 336.094912 232.275984 
L 336.820884 248.392346 
L 337.546855 244.886142 
L 338.272827 201.680247 
L 339.724771 232.658538 
L 340.450742 235.737795 
L 341.176714 209.439915 
L 341.902686 213.870399 
L 342.628657 235.180458 
L 343.354629 237.429314 
L 344.080601 210.643419 
L 344.806572 200.58111 
L 345.532544 243.073494 
L 346.258516 244.161055 
L 346.984488 234.581881 
L 347.710459 215.364552 
L 348.436431 237.582026 
L 349.162403 216.546314 
L 349.888374 214.978136 
L 350.614346 216.766266 
L 351.340318 218.123557 
L 352.066289 240.700625 
L 352.792261 239.159548 
L 353.518233 210.749941 
L 354.244205 237.710864 
L 354.970176 239.201273 
L 355.696148 218.970193 
L 356.42212 243.574903 
L 357.148091 212.844154 
L 357.874063 236.75853 
L 358.600035 241.878432 
L 359.326007 235.698775 
L 360.051978 241.101114 
L 360.77795 232.460059 
L 361.503922 186.855649 
L 362.229893 253.333541 
L 362.955865 203.996096 
L 363.681837 236.571646 
L 364.407808 206.267782 
L 365.13378 221.912674 
L 365.859752 214.329827 
L 366.585724 235.038121 
L 367.311695 234.955596 
L 368.037667 234.600618 
L 368.763639 233.704836 
L 369.48961 245.349721 
L 370.215582 232.095969 
L 370.941554 212.150264 
L 371.667525 213.94688 
L 372.393497 232.990394 
L 373.119469 209.522726 
L 373.845441 236.68922 
L 374.571412 232.135908 
L 375.297384 204.864735 
L 376.023356 246.72539 
L 376.749327 202.133184 
L 377.475299 205.762946 
L 378.201271 237.40502 
L 378.927242 240.192662 
L 379.653214 227.63902 
L 380.379186 232.984291 
L 381.105158 236.078824 
L 381.831129 227.433086 
L 382.557101 234.501097 
L 383.283073 179.636932 
L 384.009044 200.765909 
L 384.735016 206.233352 
L 385.460988 229.695755 
L 386.18696 227.556227 
L 386.912931 201.582778 
L 387.638903 197.929928 
L 388.364875 205.917769 
L 389.090846 197.907497 
L 389.816818 228.289538 
L 390.54279 203.001912 
L 391.268761 236.237201 
L 391.994733 224.879755 
L 393.446677 226.873778 
L 394.172648 221.905252 
L 394.89862 185.625232 
L 395.624592 235.869558 
L 396.350563 228.085368 
L 397.076535 221.70747 
L 397.802507 218.398765 
L 398.528478 225.240863 
L 399.25445 183.842078 
L 399.980422 192.598409 
L 400.706394 192.866652 
L 401.432365 220.317235 
L 402.158337 214.537514 
L 402.884309 231.087262 
L 403.61028 177.162157 
L 404.336252 225.253644 
L 405.062224 182.556338 
L 405.788195 220.332103 
L 406.514167 216.100501 
L 407.240139 220.496195 
L 407.966111 185.976173 
L 408.692082 193.285678 
L 409.418054 206.06383 
L 410.144026 221.606081 
L 410.869997 201.238598 
L 411.595969 194.259176 
L 412.321941 192.398763 
L 413.047913 235.598703 
L 413.773884 219.690104 
L 414.499856 191.867296 
L 415.225828 199.796149 
L 415.951799 197.379862 
L 416.677771 194.310758 
L 417.403743 233.962008 
L 418.129714 189.316617 
L 418.855686 226.204494 
L 419.581658 212.110546 
L 420.30763 207.312558 
L 421.033601 229.839937 
L 421.759573 226.119455 
L 422.485545 236.515597 
L 423.211516 213.344058 
L 423.937488 240.619528 
L 424.66346 219.150223 
L 425.389431 223.290388 
L 426.115403 237.148042 
L 426.841375 219.877909 
L 427.567347 224.068234 
L 428.293318 225.065977 
L 429.01929 239.04526 
L 429.745262 222.89785 
L 430.471233 241.00127 
L 431.197205 223.812448 
L 431.923177 241.175844 
L 432.649148 241.380701 
L 433.37512 239.694136 
L 434.101092 244.624663 
L 434.827064 224.853656 
L 435.553035 245.737776 
L 436.279007 240.157186 
L 437.004979 241.017509 
L 437.73095 241.265798 
L 438.456922 241.135636 
L 439.182894 237.300147 
L 439.908866 225.28089 
L 440.634837 225.58363 
L 441.360809 225.666847 
L 442.086781 227.083038 
L 442.812752 222.647918 
L 443.538724 226.91927 
L 444.264696 237.000257 
L 444.990667 220.064378 
L 445.716639 236.106785 
L 446.442611 220.627356 
L 447.168583 233.97179 
L 447.894554 232.767094 
L 448.620526 218.487848 
L 449.346498 221.92295 
L 450.072469 220.631412 
L 450.798441 233.18596 
L 451.524413 218.293237 
L 452.250384 217.682957 
L 452.976356 214.643057 
L 453.702328 220.072423 
L 454.4283 215.221687 
L 455.154271 230.877708 
L 455.880243 209.846331 
L 456.606215 215.638261 
L 457.332186 218.054 
L 458.058158 226.353598 
L 458.78413 226.47258 
L 459.510101 214.947864 
L 460.236073 214.649547 
L 460.962045 213.742777 
L 461.688017 228.45614 
L 462.413988 227.241774 
L 463.13996 212.233711 
L 463.865932 214.182938 
L 464.591903 214.158177 
L 464.591903 214.158177 
" style="fill:none;stroke:#1f77b4;stroke-linecap:square;stroke-width:1.5;"/>
   </g>
   <g id="line2d_2">
    <path clip-path="url(#pff3e116e9f)" d="M 58.773722 211.097779 
L 59.499693 162.186574 
L 60.225665 245.968474 
L 60.951637 205.326045 
L 61.677608 228.684445 
L 62.40358 226.240139 
L 63.129552 204.748453 
L 63.855524 198.84788 
L 64.581495 221.897438 
L 65.307467 131.920423 
L 66.033439 231.521798 
L 66.75941 191.881882 
L 67.485382 211.85935 
L 68.211354 210.143269 
L 68.937325 201.459338 
L 69.663297 253.138401 
L 70.389269 222.831724 
L 71.115241 243.362858 
L 71.841212 269.734678 
L 72.567184 137.948456 
L 73.293156 265.134417 
L 74.019127 227.048671 
L 74.745099 225.53286 
L 75.471071 251.768398 
L 76.197042 250.577037 
L 76.923014 230.368529 
L 77.648986 186.362635 
L 78.374958 237.294069 
L 79.100929 193.536492 
L 79.826901 212.876298 
L 80.552873 211.643712 
L 81.278844 207.065213 
L 82.004816 191.905077 
L 82.730788 199.630588 
L 83.456759 175.308277 
L 84.182731 239.21316 
L 84.908703 229.007436 
L 85.634675 213.840122 
L 86.360646 216.995703 
L 87.086618 206.887781 
L 87.81259 227.212432 
L 88.538561 241.695235 
L 89.264533 246.193486 
L 89.990505 237.217444 
L 90.716477 235.403414 
L 91.442448 239.636879 
L 92.16842 266.823902 
L 92.894392 215.91181 
L 93.620363 265.501989 
L 94.346335 118.501509 
L 95.072307 209.213169 
L 95.798278 177.166707 
L 96.52425 213.635422 
L 97.250222 202.510109 
L 97.976194 210.16685 
L 98.702165 148.952541 
L 99.428137 200.205554 
L 100.154109 241.415906 
L 100.88008 228.354929 
L 101.606052 223.03871 
L 102.332024 220.660724 
L 103.057995 225.682071 
L 103.783967 258.950963 
L 104.509939 196.765535 
L 105.235911 209.86753 
L 105.961882 217.619581 
L 106.687854 243.862011 
L 107.413826 207.770151 
L 108.139797 204.26123 
L 108.865769 217.858292 
L 109.591741 222.214321 
L 110.317712 248.170145 
L 111.043684 253.156882 
L 111.769656 227.632015 
L 112.495628 230.40742 
L 113.221599 213.853904 
L 113.947571 127.169607 
L 114.673543 227.562759 
L 115.399514 235.225544 
L 116.125486 121.294816 
L 116.851458 209.225504 
L 117.57743 201.970861 
L 118.303401 203.703302 
L 119.029373 200.487708 
L 119.755345 207.606026 
L 120.481316 260.794624 
L 121.207288 244.916637 
L 121.93326 185.177606 
L 122.659231 178.565037 
L 123.385203 211.762822 
L 124.111175 206.111106 
L 124.837147 177.896322 
L 125.563118 247.311694 
L 126.28909 218.431957 
L 127.015062 170.328477 
L 127.741033 180.374386 
L 128.467005 237.797551 
L 129.192977 202.630492 
L 129.918948 217.484219 
L 130.64492 241.047086 
L 131.370892 193.805378 
L 132.822835 248.973805 
L 133.548807 154.818574 
L 134.274779 245.811132 
L 135.00075 226.579022 
L 135.726722 221.12108 
L 136.452694 232.778539 
L 137.178665 220.640734 
L 137.904637 226.805763 
L 138.630609 230.35574 
L 139.356581 230.204477 
L 140.082552 261.20671 
L 140.808524 254.309274 
L 141.534496 246.280612 
L 142.260467 240.520868 
L 142.986439 243.61861 
L 143.712411 240.193489 
L 144.438383 235.871183 
L 145.164354 253.972158 
L 145.890326 267.326351 
L 146.616298 241.147721 
L 147.342269 240.152599 
L 148.068241 238.173116 
L 148.794213 250.63645 
L 149.520184 247.493619 
L 150.246156 239.841592 
L 150.972128 247.134518 
L 151.6981 281.76358 
L 152.424071 264.873938 
L 153.150043 204.173968 
L 153.876015 201.085733 
L 154.601986 215.864054 
L 155.327958 204.547854 
L 156.05393 221.804766 
L 156.779901 227.587655 
L 157.505873 124.487691 
L 158.231845 215.352509 
L 158.957817 210.134196 
L 159.683788 127.900212 
L 160.40976 193.28073 
L 161.135732 191.574194 
L 161.861703 229.025311 
L 162.587675 204.471537 
L 163.313647 215.374638 
L 164.039618 259.505544 
L 164.76559 233.02743 
L 165.491562 192.20048 
L 166.217534 222.261887 
L 166.943505 195.258357 
L 167.669477 116.195317 
L 168.395449 172.84422 
L 169.12142 125.945282 
L 170.573364 238.919805 
L 171.299336 176.926721 
L 172.025307 246.728286 
L 172.751279 186.768771 
L 173.477251 197.911624 
L 174.203222 210.926796 
L 174.929194 154.384876 
L 175.655166 223.31369 
L 176.381137 123.342185 
L 177.107109 189.678432 
L 177.833081 172.03911 
L 178.559053 150.807045 
L 179.285024 171.200187 
L 180.010996 150.010471 
L 180.736968 204.465064 
L 181.462939 230.567926 
L 182.188911 215.061986 
L 182.914883 186.781798 
L 183.640854 200.519278 
L 184.366826 233.911898 
L 185.092798 210.408044 
L 185.81877 177.269012 
L 186.544741 214.652458 
L 187.270713 203.90926 
L 187.996685 214.332119 
L 188.722656 213.774186 
L 189.448628 241.676709 
L 190.1746 238.86496 
L 190.900571 201.619771 
L 191.626543 241.976039 
L 192.352515 249.976341 
L 193.078487 228.920575 
L 193.804458 256.526126 
L 194.53043 254.539419 
L 195.256402 222.567249 
L 195.982373 236.336378 
L 196.708345 241.447523 
L 197.434317 248.38424 
L 198.160289 268.499418 
L 198.88626 259.984851 
L 199.612232 260.688874 
L 200.338204 251.677027 
L 201.064175 265.720214 
L 201.790147 255.621059 
L 202.516119 267.994028 
L 203.24209 257.581606 
L 203.968062 263.412183 
L 204.694034 265.330044 
L 205.420006 236.339667 
L 206.145977 250.866974 
L 206.871949 230.385513 
L 208.323892 249.169511 
L 209.049864 241.539561 
L 209.775836 199.429546 
L 210.501807 257.2318 
L 211.227779 231.132102 
L 211.953751 239.223622 
L 212.679723 245.779477 
L 213.405694 247.98184 
L 214.131666 259.063229 
L 214.857638 241.850953 
L 215.583609 217.982981 
L 216.309581 245.521404 
L 217.035553 179.340188 
L 217.761524 233.437734 
L 218.487496 240.132004 
L 219.213468 250.081226 
L 219.93944 233.159307 
L 221.391383 243.178822 
L 222.117355 237.569442 
L 222.843326 243.659078 
L 223.569298 266.376761 
L 224.29527 240.633687 
L 225.021242 225.945912 
L 225.747213 259.411293 
L 226.473185 260.886026 
L 227.199157 240.277213 
L 227.925128 257.637166 
L 228.6511 236.376834 
L 229.377072 233.34034 
L 230.103043 252.717105 
L 230.829015 234.243396 
L 231.554987 263.405785 
L 232.280959 196.963015 
L 233.00693 240.73829 
L 233.732902 95.670706 
L 234.458874 197.179287 
L 235.184845 204.299428 
L 235.910817 220.565033 
L 236.636789 163.005012 
L 237.36276 140.840275 
L 238.088732 216.949105 
L 238.814704 198.206618 
L 239.540676 249.096915 
L 240.992619 151.466994 
L 241.718591 126.310498 
L 242.444562 197.875781 
L 243.170534 198.690738 
L 243.896506 214.165884 
L 244.622477 201.987805 
L 245.348449 244.454464 
L 246.074421 197.898324 
L 246.800393 132.931518 
L 247.526364 217.973934 
L 248.252336 169.962493 
L 248.978308 197.658043 
L 249.704279 186.466758 
L 250.430251 188.995673 
L 251.156223 195.90681 
L 251.882195 184.509788 
L 252.608166 197.138899 
L 253.334138 181.65459 
L 254.06011 194.116401 
L 254.786081 201.663303 
L 255.512053 169.779031 
L 256.238025 218.991737 
L 256.963996 199.767892 
L 257.689968 206.808745 
L 258.41594 230.242257 
L 259.141912 204.951017 
L 259.867883 233.772142 
L 260.593855 217.233169 
L 261.319827 223.491228 
L 262.045798 234.372795 
L 262.77177 212.276294 
L 264.949685 178.623695 
L 265.675657 206.752003 
L 266.401629 192.059282 
L 267.1276 237.149224 
L 267.853572 148.335878 
L 268.579544 172.691857 
L 269.305515 213.969761 
L 270.031487 181.310463 
L 270.757459 212.693046 
L 271.48343 210.163094 
L 272.209402 200.100141 
L 272.935374 213.215025 
L 273.661346 242.043147 
L 274.387317 224.906892 
L 275.113289 156.62062 
L 275.839261 206.592801 
L 276.565232 205.860477 
L 277.291204 181.809198 
L 278.017176 202.492923 
L 278.743148 210.631167 
L 279.469119 165.256328 
L 280.195091 201.273236 
L 280.921063 179.835677 
L 281.647034 233.419542 
L 282.373006 180.120281 
L 283.098978 236.647184 
L 283.824949 191.037463 
L 284.550921 196.485302 
L 285.276893 228.642066 
L 286.002865 187.835265 
L 286.728836 227.441525 
L 287.454808 219.142448 
L 288.18078 217.182607 
L 288.906751 195.819794 
L 289.632723 212.072912 
L 290.358695 188.806077 
L 291.084666 208.806924 
L 291.810638 183.799436 
L 292.53661 216.324204 
L 293.262582 214.585506 
L 293.988553 222.469444 
L 294.714525 226.187475 
L 295.440497 232.489518 
L 296.166468 235.937202 
L 296.89244 240.471808 
L 297.618412 193.468062 
L 298.344383 216.858119 
L 299.070355 195.159624 
L 299.796327 234.687278 
L 300.522299 224.881391 
L 301.24827 265.156335 
L 301.974242 221.615136 
L 302.700214 226.617952 
L 303.426185 212.739765 
L 304.152157 220.349223 
L 304.878129 209.043405 
L 305.604101 245.899235 
L 306.330072 241.456795 
L 307.056044 234.097786 
L 307.782016 253.241513 
L 309.233959 242.760829 
L 309.959931 238.325402 
L 310.685902 244.335556 
L 311.411874 245.301492 
L 312.137846 254.16593 
L 312.863818 245.591805 
L 313.589789 258.390531 
L 314.315761 256.662715 
L 315.041733 224.932409 
L 315.767704 250.343049 
L 316.493676 250.675464 
L 317.219648 251.691442 
L 317.945619 269.919489 
L 318.671591 222.118418 
L 319.397563 248.427147 
L 320.123535 244.384774 
L 320.849506 250.71315 
L 321.575478 246.316359 
L 322.30145 271.057259 
L 323.027421 267.916332 
L 323.753393 262.050385 
L 324.479365 254.093802 
L 325.205336 256.694327 
L 325.931308 273.33454 
L 326.65728 263.931737 
L 327.383252 268.669446 
L 328.109223 219.496981 
L 328.835195 257.703109 
L 329.561167 247.279829 
L 330.287138 263.70307 
L 331.01311 250.462413 
L 331.739082 252.300256 
L 332.465054 258.816851 
L 333.191025 212.200475 
L 334.642969 256.359787 
L 335.36894 252.826421 
L 336.094912 223.797376 
L 336.820884 252.996993 
L 337.546855 247.956794 
L 338.272827 244.827499 
L 338.998799 248.850736 
L 339.724771 240.332469 
L 340.450742 245.134784 
L 341.176714 252.550459 
L 341.902686 250.338994 
L 342.628657 243.550238 
L 343.354629 240.100498 
L 344.080601 246.381319 
L 344.806572 230.963016 
L 346.258516 254.064304 
L 346.984488 238.998034 
L 347.710459 235.748013 
L 348.436431 236.589342 
L 349.162403 203.044169 
L 349.888374 236.313397 
L 350.614346 200.313938 
L 351.340318 224.495154 
L 352.066289 215.927078 
L 353.518233 212.262668 
L 354.244205 203.472953 
L 354.970176 207.26042 
L 355.696148 219.385572 
L 356.42212 204.782603 
L 357.148091 179.743104 
L 357.874063 197.411922 
L 358.600035 199.374394 
L 360.051978 162.33601 
L 360.77795 182.70851 
L 361.503922 181.835398 
L 362.229893 202.165965 
L 362.955865 197.410735 
L 363.681837 131.786267 
L 364.407808 164.726719 
L 365.13378 167.311643 
L 365.859752 146.617117 
L 366.585724 150.105097 
L 367.311695 160.941298 
L 368.763639 158.892267 
L 369.48961 163.442469 
L 370.215582 137.514863 
L 370.941554 160.025168 
L 371.667525 162.634089 
L 372.393497 151.652463 
L 373.119469 174.47547 
L 373.845441 134.175139 
L 374.571412 160.604787 
L 375.297384 172.347194 
L 376.023356 191.624188 
L 376.749327 177.484079 
L 377.475299 165.79538 
L 378.201271 157.134022 
L 378.927242 191.445522 
L 379.653214 172.295548 
L 380.379186 176.700113 
L 381.105158 179.481307 
L 381.831129 160.747366 
L 382.557101 185.657102 
L 383.283073 181.751905 
L 384.009044 171.446401 
L 384.735016 202.682186 
L 385.460988 183.922008 
L 386.18696 177.169198 
L 386.912931 194.79047 
L 387.638903 175.21052 
L 388.364875 190.164455 
L 389.090846 177.087985 
L 389.816818 186.569097 
L 390.54279 199.535654 
L 391.268761 204.37749 
L 391.994733 190.221523 
L 392.720705 192.40571 
L 394.89862 205.85937 
L 395.624592 215.171406 
L 396.350563 212.160327 
L 397.076535 212.600013 
L 397.802507 204.505521 
L 398.528478 214.943564 
L 399.25445 210.275853 
L 399.980422 209.386204 
L 400.706394 215.213989 
L 401.432365 214.540458 
L 402.158337 214.961966 
L 402.884309 225.235803 
L 403.61028 213.542948 
L 404.336252 225.042694 
L 405.062224 220.51424 
L 405.788195 225.355041 
L 406.514167 220.890626 
L 407.240139 228.277474 
L 407.966111 232.048621 
L 408.692082 234.224541 
L 409.418054 241.131091 
L 410.144026 235.911976 
L 410.869997 245.579559 
L 411.595969 233.693042 
L 412.321941 234.544839 
L 413.047913 249.034812 
L 413.773884 235.858211 
L 414.499856 236.278273 
L 415.225828 237.443694 
L 415.951799 235.2097 
L 416.677771 233.395028 
L 417.403743 246.836028 
L 418.129714 238.278391 
L 418.855686 243.402814 
L 419.581658 251.140349 
L 420.30763 242.764297 
L 421.033601 247.175846 
L 421.759573 246.946352 
L 422.485545 256.641389 
L 423.211516 256.969405 
L 423.937488 254.406177 
L 424.66346 257.748878 
L 425.389431 255.321275 
L 426.115403 254.745158 
L 426.841375 255.843462 
L 427.567347 255.505588 
L 428.293318 255.588754 
L 429.745262 255.31876 
L 430.471233 255.9657 
L 431.923177 253.22102 
L 433.37512 253.661263 
L 434.101092 254.23322 
L 434.827064 251.737396 
L 435.553035 249.972214 
L 436.279007 248.946353 
L 437.004979 249.29686 
L 437.73095 248.215472 
L 438.456922 247.852459 
L 439.182894 246.655054 
L 439.908866 245.946408 
L 442.086781 241.591603 
L 442.812752 239.091618 
L 443.538724 238.93013 
L 444.264696 238.428094 
L 445.716639 235.402656 
L 446.442611 235.72565 
L 447.168583 232.334936 
L 447.894554 232.452044 
L 448.620526 230.462863 
L 449.346498 232.000429 
L 450.072469 228.70111 
L 450.798441 224.538042 
L 451.524413 224.34856 
L 452.250384 225.391759 
L 452.976356 224.261373 
L 453.702328 221.926862 
L 455.154271 220.727623 
L 455.880243 219.357896 
L 456.606215 216.900784 
L 457.332186 213.61667 
L 458.058158 211.956983 
L 458.78413 212.008486 
L 459.510101 210.98319 
L 460.236073 211.202176 
L 460.962045 208.476831 
L 461.688017 203.606534 
L 462.413988 204.802187 
L 463.13996 207.807912 
L 463.865932 203.378153 
L 464.591903 201.269423 
L 464.591903 201.269423 
" style="fill:none;stroke:#ff7f0e;stroke-linecap:square;stroke-width:1.5;"/>
   </g>
   <g id="line2d_3">
    <path clip-path="url(#pff3e116e9f)" d="M 58.773722 191.886386 
L 59.499693 196.893976 
L 60.225665 255.038769 
L 60.951637 220.642888 
L 61.677608 230.345182 
L 62.40358 201.240825 
L 63.129552 212.151264 
L 63.855524 137.856813 
L 64.581495 204.888624 
L 65.307467 177.018355 
L 66.033439 243.997512 
L 66.75941 195.257517 
L 67.485382 227.124664 
L 68.211354 218.524769 
L 68.937325 206.515173 
L 69.663297 255.818088 
L 70.389269 136.612634 
L 71.115241 236.363163 
L 71.841212 228.894511 
L 72.567184 207.609801 
L 73.293156 234.734821 
L 74.019127 217.978168 
L 74.745099 217.376963 
L 75.471071 214.713436 
L 76.197042 230.446635 
L 76.923014 203.966301 
L 77.648986 219.295272 
L 78.374958 251.030695 
L 79.100929 235.65507 
L 79.826901 224.293158 
L 80.552873 246.210533 
L 81.278844 249.255964 
L 82.004816 226.75521 
L 82.730788 186.506331 
L 83.456759 215.262154 
L 84.182731 254.813577 
L 84.908703 242.168895 
L 85.634675 226.251534 
L 86.360646 178.262556 
L 87.086618 224.667075 
L 87.81259 206.379494 
L 88.538561 214.775817 
L 89.264533 242.498891 
L 89.990505 213.569782 
L 90.716477 217.228271 
L 91.442448 166.502758 
L 92.16842 245.137291 
L 92.894392 214.667882 
L 93.620363 233.501802 
L 94.346335 220.698662 
L 95.072307 222.350356 
L 95.798278 230.953409 
L 96.52425 202.508226 
L 97.250222 199.639285 
L 97.976194 203.036107 
L 98.702165 212.91507 
L 99.428137 188.594808 
L 100.154109 242.319198 
L 101.606052 222.961033 
L 102.332024 203.429726 
L 103.057995 219.025443 
L 103.783967 258.307684 
L 104.509939 221.422954 
L 105.235911 233.266583 
L 105.961882 254.863751 
L 106.687854 255.066567 
L 107.413826 227.680134 
L 108.139797 235.686829 
L 108.865769 214.887275 
L 109.591741 234.031121 
L 110.317712 259.474477 
L 111.043684 253.96541 
L 111.769656 181.244399 
L 112.495628 235.513481 
L 113.221599 184.98033 
L 113.947571 207.696435 
L 114.673543 240.824315 
L 115.399514 237.719587 
L 116.125486 202.059942 
L 116.851458 232.480615 
L 117.57743 250.270584 
L 118.303401 182.375199 
L 119.029373 219.166701 
L 119.755345 213.381862 
L 120.481316 268.27314 
L 121.207288 249.66159 
L 121.93326 259.793822 
L 122.659231 231.365876 
L 123.385203 239.786049 
L 124.111175 243.223616 
L 124.837147 249.922613 
L 125.563118 265.694759 
L 126.28909 244.724052 
L 127.015062 233.346989 
L 127.741033 210.557917 
L 128.467005 249.639855 
L 129.192977 224.440969 
L 129.918948 230.372288 
L 130.64492 243.555184 
L 131.370892 214.123429 
L 132.822835 251.587216 
L 133.548807 226.598087 
L 134.274779 261.804287 
L 135.00075 237.201457 
L 135.726722 228.680943 
L 136.452694 238.313982 
L 137.178665 228.840048 
L 137.904637 223.836546 
L 138.630609 238.904675 
L 139.356581 234.662232 
L 140.082552 270.208373 
L 140.808524 230.259936 
L 141.534496 231.102625 
L 142.260467 84.935212 
L 142.986439 203.03006 
L 143.712411 193.553839 
L 144.438383 128.531767 
L 145.164354 218.370351 
L 145.890326 244.763069 
L 146.616298 175.669126 
L 147.342269 196.577483 
L 148.068241 193.304601 
L 148.794213 128.517129 
L 149.520184 203.021875 
L 150.246156 176.311481 
L 150.972128 195.690778 
L 151.6981 254.534203 
L 152.424071 208.798292 
L 153.150043 180.719798 
L 153.876015 184.82732 
L 154.601986 187.368487 
L 155.327958 199.374968 
L 156.05393 187.432444 
L 156.779901 194.495002 
L 157.505873 190.798947 
L 158.231845 198.688448 
L 158.957817 197.746179 
L 159.683788 211.307118 
L 160.40976 194.885874 
L 161.135732 76.508569 
L 161.861703 224.267056 
L 162.587675 163.024705 
L 163.313647 112.729041 
L 164.039618 232.321511 
L 164.76559 187.453298 
L 165.491562 201.370746 
L 166.217534 194.535584 
L 166.943505 202.161438 
L 167.669477 182.250054 
L 168.395449 183.483303 
L 169.12142 180.763562 
L 169.847392 111.029108 
L 170.573364 249.113089 
L 171.299336 117.125477 
L 172.025307 247.299123 
L 172.751279 134.193102 
L 173.477251 185.407783 
L 174.203222 196.582814 
L 174.929194 204.457043 
L 175.655166 203.558372 
L 176.381137 196.519444 
L 177.107109 216.257151 
L 177.833081 152.637827 
L 178.559053 197.172156 
L 179.285024 184.010593 
L 180.010996 196.421586 
L 180.736968 215.823589 
L 181.462939 243.482285 
L 182.188911 222.683568 
L 182.914883 213.752598 
L 183.640854 222.420609 
L 184.366826 245.784613 
L 185.092798 219.944197 
L 185.81877 216.794867 
L 186.544741 231.134351 
L 187.270713 197.562791 
L 187.996685 203.260921 
L 188.722656 222.670736 
L 189.448628 218.006779 
L 190.1746 255.002503 
L 190.900571 216.046714 
L 191.626543 256.525038 
L 192.352515 239.983335 
L 193.078487 241.24671 
L 193.804458 250.526531 
L 195.256402 241.67455 
L 195.982373 235.949352 
L 196.708345 238.699592 
L 197.434317 243.181298 
L 198.160289 250.32037 
L 198.88626 249.890179 
L 199.612232 248.56629 
L 200.338204 243.277626 
L 201.064175 256.184939 
L 201.790147 260.895508 
L 202.516119 251.321754 
L 203.24209 251.719728 
L 203.968062 240.49742 
L 204.694034 253.271275 
L 206.145977 241.267867 
L 206.871949 244.318381 
L 207.597921 240.231203 
L 208.323892 243.580872 
L 209.049864 239.83979 
L 209.775836 239.910128 
L 210.501807 261.80709 
L 211.227779 209.28244 
L 211.953751 232.376987 
L 212.679723 213.879489 
L 213.405694 239.943491 
L 214.131666 245.252108 
L 215.583609 194.853216 
L 216.309581 237.121956 
L 217.761524 206.663088 
L 218.487496 230.394088 
L 219.213468 220.876786 
L 219.93944 226.374044 
L 220.665411 213.586111 
L 221.391383 233.794378 
L 222.117355 191.580947 
L 222.843326 229.229136 
L 223.569298 255.046728 
L 224.29527 220.570357 
L 225.021242 218.593157 
L 225.747213 245.156104 
L 226.473185 253.858604 
L 227.199157 232.318831 
L 227.925128 232.598777 
L 228.6511 242.360858 
L 229.377072 180.952335 
L 230.103043 241.254991 
L 230.829015 188.55697 
L 231.554987 260.230613 
L 232.280959 195.827021 
L 233.00693 234.720942 
L 233.732902 215.149504 
L 234.458874 191.83556 
L 235.184845 224.456661 
L 235.910817 230.782254 
L 236.636789 204.059067 
L 237.36276 194.768501 
L 238.088732 214.250374 
L 238.814704 215.362605 
L 239.540676 232.407778 
L 240.266647 227.062398 
L 240.992619 216.182567 
L 241.718591 212.894167 
L 242.444562 194.243562 
L 243.170534 193.82194 
L 243.896506 204.910969 
L 244.622477 192.962555 
L 245.348449 243.9847 
L 246.074421 210.720527 
L 246.800393 209.616477 
L 247.526364 229.150251 
L 248.252336 213.793175 
L 248.978308 214.805066 
L 249.704279 226.219707 
L 250.430251 215.71743 
L 251.156223 225.700475 
L 251.882195 220.097426 
L 252.608166 217.532992 
L 253.334138 217.641317 
L 254.06011 217.891753 
L 254.786081 215.548352 
L 255.512053 240.23666 
L 256.238025 239.93854 
L 256.963996 182.462194 
L 258.41594 241.319184 
L 259.141912 214.962435 
L 259.867883 223.368875 
L 260.593855 233.068171 
L 261.319827 221.698539 
L 262.045798 227.661102 
L 262.77177 212.66946 
L 263.497742 214.249974 
L 264.223713 219.909412 
L 264.949685 220.57165 
L 265.675657 219.357159 
L 266.401629 214.294002 
L 267.1276 217.600295 
L 267.853572 206.478599 
L 268.579544 210.576911 
L 269.305515 227.738505 
L 270.031487 211.238235 
L 270.757459 219.374263 
L 271.48343 214.591132 
L 272.209402 174.338553 
L 272.935374 210.364976 
L 273.661346 228.35589 
L 274.387317 231.328129 
L 275.113289 212.444523 
L 275.839261 204.520002 
L 276.565232 183.119503 
L 277.291204 213.27816 
L 278.017176 179.138812 
L 278.743148 194.805942 
L 279.469119 199.532019 
L 280.195091 192.10678 
L 280.921063 207.248949 
L 281.647034 231.363331 
L 282.373006 202.068191 
L 283.098978 239.908049 
L 283.824949 210.620383 
L 284.550921 218.158787 
L 285.276893 235.424675 
L 286.002865 215.605007 
L 286.728836 242.414496 
L 287.454808 234.26745 
L 288.18078 227.473508 
L 288.906751 217.492578 
L 289.632723 219.05278 
L 290.358695 217.879354 
L 291.084666 212.86363 
L 291.810638 205.95232 
L 292.53661 208.380296 
L 293.262582 216.562921 
L 293.988553 220.614716 
L 294.714525 214.515144 
L 295.440497 213.11445 
L 296.166468 219.699528 
L 296.89244 215.053582 
L 297.618412 207.111277 
L 298.344383 137.835635 
L 299.070355 180.822841 
L 299.796327 210.860297 
L 300.522299 191.857556 
L 301.24827 243.18998 
L 301.974242 176.844751 
L 302.700214 180.914018 
L 303.426185 193.782792 
L 304.152157 185.977097 
L 304.878129 193.397795 
L 305.604101 187.52623 
L 306.330072 232.485594 
L 307.056044 185.548851 
L 307.782016 232.03624 
L 308.507987 220.557256 
L 309.233959 212.914633 
L 309.959931 209.348286 
L 310.685902 204.595528 
L 311.411874 199.023072 
L 312.137846 217.357302 
L 312.863818 188.291139 
L 313.589789 220.182562 
L 314.315761 205.433673 
L 315.041733 210.904767 
L 315.767704 214.335902 
L 316.493676 185.20604 
L 317.219648 222.151685 
L 317.945619 245.552004 
L 318.671591 187.945524 
L 319.397563 214.331171 
L 320.123535 215.733762 
L 320.849506 226.215097 
L 321.575478 203.892448 
L 322.30145 252.056961 
L 323.027421 243.155312 
L 323.753393 231.20166 
L 324.479365 226.159831 
L 325.205336 215.222862 
L 325.931308 252.374314 
L 327.383252 244.675746 
L 328.109223 232.063422 
L 328.835195 247.030479 
L 329.561167 209.380259 
L 330.287138 250.768032 
L 331.01311 229.857947 
L 331.739082 222.107141 
L 332.465054 231.676123 
L 333.191025 220.587147 
L 333.916997 233.573266 
L 334.642969 234.665209 
L 335.36894 231.258364 
L 336.094912 231.163341 
L 336.820884 227.959672 
L 337.546855 229.934275 
L 338.272827 227.97217 
L 338.998799 227.82607 
L 339.724771 222.113954 
L 340.450742 223.467453 
L 341.902686 235.148433 
L 342.628657 221.918554 
L 343.354629 225.844516 
L 344.080601 240.983822 
L 344.806572 204.551258 
L 345.532544 230.366682 
L 346.258516 238.707369 
L 346.984488 223.220149 
L 347.710459 244.530202 
L 348.436431 225.059153 
L 349.162403 243.733834 
L 349.888374 225.062823 
L 350.614346 235.983127 
L 351.340318 227.334052 
L 352.792261 228.253341 
L 353.518233 228.433243 
L 354.244205 224.907239 
L 354.970176 216.898037 
L 355.696148 227.339327 
L 356.42212 224.92271 
L 357.148091 218.16356 
L 357.874063 219.094504 
L 358.600035 222.227889 
L 359.326007 218.311251 
L 360.051978 224.923489 
L 360.77795 218.564334 
L 361.503922 215.494908 
L 362.229893 233.133189 
L 362.955865 234.186873 
L 363.681837 196.852653 
L 364.407808 223.112392 
L 365.13378 229.076707 
L 365.859752 225.346677 
L 366.585724 218.236682 
L 367.311695 220.166804 
L 368.037667 217.610884 
L 368.763639 217.983964 
L 369.48961 232.269007 
L 370.215582 221.974954 
L 370.941554 233.637752 
L 371.667525 223.81191 
L 372.393497 222.468112 
L 373.119469 226.573748 
L 373.845441 201.896029 
L 374.571412 199.47288 
L 375.297384 223.053049 
L 376.023356 220.547793 
L 376.749327 206.516704 
L 377.475299 199.231827 
L 378.201271 209.342136 
L 378.927242 222.517961 
L 379.653214 206.494235 
L 380.379186 212.28617 
L 381.105158 199.540623 
L 381.831129 207.319181 
L 382.557101 212.360654 
L 383.283073 199.702846 
L 384.009044 211.33708 
L 384.735016 215.431176 
L 385.460988 207.35428 
L 386.18696 214.309617 
L 386.912931 205.984634 
L 387.638903 210.22754 
L 388.364875 206.756613 
L 389.090846 208.155194 
L 389.816818 201.567708 
L 390.54279 209.668676 
L 391.268761 214.281546 
L 391.994733 205.771053 
L 392.720705 208.00951 
L 393.446677 212.344515 
L 394.172648 207.782908 
L 394.89862 205.648466 
L 395.624592 220.929425 
L 396.350563 220.226185 
L 397.076535 210.989008 
L 397.802507 208.472147 
L 398.528478 207.701074 
L 399.25445 196.615898 
L 399.980422 194.463127 
L 400.706394 200.084468 
L 401.432365 197.910475 
L 402.158337 203.046787 
L 402.884309 216.152333 
L 403.61028 197.901341 
L 404.336252 191.79898 
L 405.062224 200.368838 
L 405.788195 190.888289 
L 406.514167 197.797746 
L 407.240139 190.410198 
L 407.966111 193.852928 
L 408.692082 200.626757 
L 409.418054 218.102789 
L 410.144026 196.633696 
L 410.869997 215.122724 
L 411.595969 202.179411 
L 412.321941 204.929632 
L 413.047913 215.646489 
L 413.773884 203.641694 
L 414.499856 205.974267 
L 415.225828 211.555811 
L 415.951799 208.625596 
L 416.677771 208.20255 
L 417.403743 220.730643 
L 418.129714 212.938376 
L 418.855686 216.448685 
L 419.581658 226.672344 
L 420.30763 213.456165 
L 421.033601 219.24444 
L 421.759573 216.827883 
L 422.485545 231.16755 
L 423.211516 228.176302 
L 423.937488 231.85599 
L 424.66346 231.425265 
L 425.389431 230.49794 
L 426.115403 226.92147 
L 426.841375 231.213114 
L 427.567347 231.132835 
L 428.293318 233.050987 
L 429.01929 230.158901 
L 429.745262 233.380637 
L 430.471233 231.722736 
L 431.197205 234.541895 
L 431.923177 230.591491 
L 432.649148 232.092082 
L 433.37512 232.287396 
L 434.101092 237.781769 
L 434.827064 237.750307 
L 435.553035 237.428141 
L 436.279007 234.153609 
L 437.004979 236.751834 
L 437.73095 233.99276 
L 438.456922 235.500891 
L 439.182894 232.142274 
L 439.908866 235.238739 
L 440.634837 235.195586 
L 442.086781 236.025408 
L 442.812752 231.319338 
L 443.538724 235.18007 
L 444.264696 231.046639 
L 444.990667 233.275149 
L 445.716639 229.202005 
L 446.442611 235.409316 
L 447.168583 229.658992 
L 448.620526 234.006377 
L 449.346498 233.491272 
L 450.072469 234.157831 
L 450.798441 231.066279 
L 451.524413 231.616244 
L 452.250384 230.603644 
L 452.976356 228.14381 
L 453.702328 232.147298 
L 454.4283 227.987989 
L 455.154271 227.369636 
L 455.880243 226.34357 
L 456.606215 228.466003 
L 457.332186 228.310555 
L 458.058158 223.401192 
L 458.78413 224.077652 
L 459.510101 227.368198 
L 460.236073 225.422232 
L 460.962045 225.5156 
L 461.688017 223.445926 
L 462.413988 221.714077 
L 463.13996 224.900566 
L 463.865932 224.157547 
L 464.591903 224.552999 
L 464.591903 224.552999 
" style="fill:none;stroke:#2ca02c;stroke-linecap:square;stroke-width:1.5;"/>
   </g>
   <g id="line2d_4">
    <path clip-path="url(#pff3e116e9f)" d="M 58.773722 220.466234 
L 464.591903 220.466234 
L 464.591903 220.466234 
" style="fill:none;stroke:#000000;stroke-dasharray:3.7,1.6;stroke-dashoffset:0;"/>
   </g>
   <g id="matplotlib.axis_1">
    <g id="xtick_1">
     <g id="line2d_5">
      <defs>
       <path d="M 0 0 
L 0 3.5 
" id="m6f3d260aba" style="stroke:#000000;stroke-width:0.8;"/>
      </defs>
      <g>
       <use style="stroke:#000000;stroke-width:0.8;" x="79.826901" xlink:href="#m6f3d260aba" y="294.118125"/>
      </g>
     </g>
     <g id="text_1">
      <!-- 100 -->
      <defs>
       <path d="M 12.40625 8.296875 
L 28.515625 8.296875 
L 28.515625 63.921875 
L 10.984375 60.40625 
L 10.984375 69.390625 
L 28.421875 72.90625 
L 38.28125 72.90625 
L 38.28125 8.296875 
L 54.390625 8.296875 
L 54.390625 0 
L 12.40625 0 
z
" id="DejaVuSans-49"/>
       <path d="M 31.78125 66.40625 
Q 24.171875 66.40625 20.328125 58.90625 
Q 16.5 51.421875 16.5 36.375 
Q 16.5 21.390625 20.328125 13.890625 
Q 24.171875 6.390625 31.78125 6.390625 
Q 39.453125 6.390625 43.28125 13.890625 
Q 47.125 21.390625 47.125 36.375 
Q 47.125 51.421875 43.28125 58.90625 
Q 39.453125 66.40625 31.78125 66.40625 
z
M 31.78125 74.21875 
Q 44.046875 74.21875 50.515625 64.515625 
Q 56.984375 54.828125 56.984375 36.375 
Q 56.984375 17.96875 50.515625 8.265625 
Q 44.046875 -1.421875 31.78125 -1.421875 
Q 19.53125 -1.421875 13.0625 8.265625 
Q 6.59375 17.96875 6.59375 36.375 
Q 6.59375 54.828125 13.0625 64.515625 
Q 19.53125 74.21875 31.78125 74.21875 
z
" id="DejaVuSans-48"/>
      </defs>
      <g transform="translate(70.283151 308.716563)scale(0.1 -0.1)">
       <use xlink:href="#DejaVuSans-49"/>
       <use x="63.623047" xlink:href="#DejaVuSans-48"/>
       <use x="127.246094" xlink:href="#DejaVuSans-48"/>
      </g>
     </g>
    </g>
    <g id="xtick_2">
     <g id="line2d_6">
      <g>
       <use style="stroke:#000000;stroke-width:0.8;" x="152.424071" xlink:href="#m6f3d260aba" y="294.118125"/>
      </g>
     </g>
     <g id="text_2">
      <!-- 200 -->
      <defs>
       <path d="M 19.1875 8.296875 
L 53.609375 8.296875 
L 53.609375 0 
L 7.328125 0 
L 7.328125 8.296875 
Q 12.9375 14.109375 22.625 23.890625 
Q 32.328125 33.6875 34.8125 36.53125 
Q 39.546875 41.84375 41.421875 45.53125 
Q 43.3125 49.21875 43.3125 52.78125 
Q 43.3125 58.59375 39.234375 62.25 
Q 35.15625 65.921875 28.609375 65.921875 
Q 23.96875 65.921875 18.8125 64.3125 
Q 13.671875 62.703125 7.8125 59.421875 
L 7.8125 69.390625 
Q 13.765625 71.78125 18.9375 73 
Q 24.125 74.21875 28.421875 74.21875 
Q 39.75 74.21875 46.484375 68.546875 
Q 53.21875 62.890625 53.21875 53.421875 
Q 53.21875 48.921875 51.53125 44.890625 
Q 49.859375 40.875 45.40625 35.40625 
Q 44.1875 33.984375 37.640625 27.21875 
Q 31.109375 20.453125 19.1875 8.296875 
z
" id="DejaVuSans-50"/>
      </defs>
      <g transform="translate(142.880321 308.716563)scale(0.1 -0.1)">
       <use xlink:href="#DejaVuSans-50"/>
       <use x="63.623047" xlink:href="#DejaVuSans-48"/>
       <use x="127.246094" xlink:href="#DejaVuSans-48"/>
      </g>
     </g>
    </g>
    <g id="xtick_3">
     <g id="line2d_7">
      <g>
       <use style="stroke:#000000;stroke-width:0.8;" x="225.021242" xlink:href="#m6f3d260aba" y="294.118125"/>
      </g>
     </g>
     <g id="text_3">
      <!-- 300 -->
      <defs>
       <path d="M 40.578125 39.3125 
Q 47.65625 37.796875 51.625 33 
Q 55.609375 28.21875 55.609375 21.1875 
Q 55.609375 10.40625 48.1875 4.484375 
Q 40.765625 -1.421875 27.09375 -1.421875 
Q 22.515625 -1.421875 17.65625 -0.515625 
Q 12.796875 0.390625 7.625 2.203125 
L 7.625 11.71875 
Q 11.71875 9.328125 16.59375 8.109375 
Q 21.484375 6.890625 26.8125 6.890625 
Q 36.078125 6.890625 40.9375 10.546875 
Q 45.796875 14.203125 45.796875 21.1875 
Q 45.796875 27.640625 41.28125 31.265625 
Q 36.765625 34.90625 28.71875 34.90625 
L 20.21875 34.90625 
L 20.21875 43.015625 
L 29.109375 43.015625 
Q 36.375 43.015625 40.234375 45.921875 
Q 44.09375 48.828125 44.09375 54.296875 
Q 44.09375 59.90625 40.109375 62.90625 
Q 36.140625 65.921875 28.71875 65.921875 
Q 24.65625 65.921875 20.015625 65.03125 
Q 15.375 64.15625 9.8125 62.3125 
L 9.8125 71.09375 
Q 15.4375 72.65625 20.34375 73.4375 
Q 25.25 74.21875 29.59375 74.21875 
Q 40.828125 74.21875 47.359375 69.109375 
Q 53.90625 64.015625 53.90625 55.328125 
Q 53.90625 49.265625 50.4375 45.09375 
Q 46.96875 40.921875 40.578125 39.3125 
z
" id="DejaVuSans-51"/>
      </defs>
      <g transform="translate(215.477492 308.716563)scale(0.1 -0.1)">
       <use xlink:href="#DejaVuSans-51"/>
       <use x="63.623047" xlink:href="#DejaVuSans-48"/>
       <use x="127.246094" xlink:href="#DejaVuSans-48"/>
      </g>
     </g>
    </g>
    <g id="xtick_4">
     <g id="line2d_8">
      <g>
       <use style="stroke:#000000;stroke-width:0.8;" x="297.618412" xlink:href="#m6f3d260aba" y="294.118125"/>
      </g>
     </g>
     <g id="text_4">
      <!-- 400 -->
      <defs>
       <path d="M 37.796875 64.3125 
L 12.890625 25.390625 
L 37.796875 25.390625 
z
M 35.203125 72.90625 
L 47.609375 72.90625 
L 47.609375 25.390625 
L 58.015625 25.390625 
L 58.015625 17.1875 
L 47.609375 17.1875 
L 47.609375 0 
L 37.796875 0 
L 37.796875 17.1875 
L 4.890625 17.1875 
L 4.890625 26.703125 
z
" id="DejaVuSans-52"/>
      </defs>
      <g transform="translate(288.074662 308.716563)scale(0.1 -0.1)">
       <use xlink:href="#DejaVuSans-52"/>
       <use x="63.623047" xlink:href="#DejaVuSans-48"/>
       <use x="127.246094" xlink:href="#DejaVuSans-48"/>
      </g>
     </g>
    </g>
    <g id="xtick_5">
     <g id="line2d_9">
      <g>
       <use style="stroke:#000000;stroke-width:0.8;" x="370.215582" xlink:href="#m6f3d260aba" y="294.118125"/>
      </g>
     </g>
     <g id="text_5">
      <!-- 500 -->
      <defs>
       <path d="M 10.796875 72.90625 
L 49.515625 72.90625 
L 49.515625 64.59375 
L 19.828125 64.59375 
L 19.828125 46.734375 
Q 21.96875 47.46875 24.109375 47.828125 
Q 26.265625 48.1875 28.421875 48.1875 
Q 40.625 48.1875 47.75 41.5 
Q 54.890625 34.8125 54.890625 23.390625 
Q 54.890625 11.625 47.5625 5.09375 
Q 40.234375 -1.421875 26.90625 -1.421875 
Q 22.3125 -1.421875 17.546875 -0.640625 
Q 12.796875 0.140625 7.71875 1.703125 
L 7.71875 11.625 
Q 12.109375 9.234375 16.796875 8.0625 
Q 21.484375 6.890625 26.703125 6.890625 
Q 35.15625 6.890625 40.078125 11.328125 
Q 45.015625 15.765625 45.015625 23.390625 
Q 45.015625 31 40.078125 35.4375 
Q 35.15625 39.890625 26.703125 39.890625 
Q 22.75 39.890625 18.8125 39.015625 
Q 14.890625 38.140625 10.796875 36.28125 
z
" id="DejaVuSans-53"/>
      </defs>
      <g transform="translate(360.671832 308.716563)scale(0.1 -0.1)">
       <use xlink:href="#DejaVuSans-53"/>
       <use x="63.623047" xlink:href="#DejaVuSans-48"/>
       <use x="127.246094" xlink:href="#DejaVuSans-48"/>
      </g>
     </g>
    </g>
    <g id="xtick_6">
     <g id="line2d_10">
      <g>
       <use style="stroke:#000000;stroke-width:0.8;" x="442.812752" xlink:href="#m6f3d260aba" y="294.118125"/>
      </g>
     </g>
     <g id="text_6">
      <!-- 600 -->
      <defs>
       <path d="M 33.015625 40.375 
Q 26.375 40.375 22.484375 35.828125 
Q 18.609375 31.296875 18.609375 23.390625 
Q 18.609375 15.53125 22.484375 10.953125 
Q 26.375 6.390625 33.015625 6.390625 
Q 39.65625 6.390625 43.53125 10.953125 
Q 47.40625 15.53125 47.40625 23.390625 
Q 47.40625 31.296875 43.53125 35.828125 
Q 39.65625 40.375 33.015625 40.375 
z
M 52.59375 71.296875 
L 52.59375 62.3125 
Q 48.875 64.0625 45.09375 64.984375 
Q 41.3125 65.921875 37.59375 65.921875 
Q 27.828125 65.921875 22.671875 59.328125 
Q 17.53125 52.734375 16.796875 39.40625 
Q 19.671875 43.65625 24.015625 45.921875 
Q 28.375 48.1875 33.59375 48.1875 
Q 44.578125 48.1875 50.953125 41.515625 
Q 57.328125 34.859375 57.328125 23.390625 
Q 57.328125 12.15625 50.6875 5.359375 
Q 44.046875 -1.421875 33.015625 -1.421875 
Q 20.359375 -1.421875 13.671875 8.265625 
Q 6.984375 17.96875 6.984375 36.375 
Q 6.984375 53.65625 15.1875 63.9375 
Q 23.390625 74.21875 37.203125 74.21875 
Q 40.921875 74.21875 44.703125 73.484375 
Q 48.484375 72.75 52.59375 71.296875 
z
" id="DejaVuSans-54"/>
      </defs>
      <g transform="translate(433.269002 308.716563)scale(0.1 -0.1)">
       <use xlink:href="#DejaVuSans-54"/>
       <use x="63.623047" xlink:href="#DejaVuSans-48"/>
       <use x="127.246094" xlink:href="#DejaVuSans-48"/>
      </g>
     </g>
    </g>
    <g id="text_7">
     <!-- Tempo -->
     <defs>
      <path d="M -0.296875 72.90625 
L 61.375 72.90625 
L 61.375 64.59375 
L 35.5 64.59375 
L 35.5 0 
L 25.59375 0 
L 25.59375 64.59375 
L -0.296875 64.59375 
z
" id="DejaVuSans-84"/>
      <path d="M 56.203125 29.59375 
L 56.203125 25.203125 
L 14.890625 25.203125 
Q 15.484375 15.921875 20.484375 11.0625 
Q 25.484375 6.203125 34.421875 6.203125 
Q 39.59375 6.203125 44.453125 7.46875 
Q 49.3125 8.734375 54.109375 11.28125 
L 54.109375 2.78125 
Q 49.265625 0.734375 44.1875 -0.34375 
Q 39.109375 -1.421875 33.890625 -1.421875 
Q 20.796875 -1.421875 13.15625 6.1875 
Q 5.515625 13.8125 5.515625 26.8125 
Q 5.515625 40.234375 12.765625 48.109375 
Q 20.015625 56 32.328125 56 
Q 43.359375 56 49.78125 48.890625 
Q 56.203125 41.796875 56.203125 29.59375 
z
M 47.21875 32.234375 
Q 47.125 39.59375 43.09375 43.984375 
Q 39.0625 48.390625 32.421875 48.390625 
Q 24.90625 48.390625 20.390625 44.140625 
Q 15.875 39.890625 15.1875 32.171875 
z
" id="DejaVuSans-101"/>
      <path d="M 52 44.1875 
Q 55.375 50.25 60.0625 53.125 
Q 64.75 56 71.09375 56 
Q 79.640625 56 84.28125 50.015625 
Q 88.921875 44.046875 88.921875 33.015625 
L 88.921875 0 
L 79.890625 0 
L 79.890625 32.71875 
Q 79.890625 40.578125 77.09375 44.375 
Q 74.3125 48.1875 68.609375 48.1875 
Q 61.625 48.1875 57.5625 43.546875 
Q 53.515625 38.921875 53.515625 30.90625 
L 53.515625 0 
L 44.484375 0 
L 44.484375 32.71875 
Q 44.484375 40.625 41.703125 44.40625 
Q 38.921875 48.1875 33.109375 48.1875 
Q 26.21875 48.1875 22.15625 43.53125 
Q 18.109375 38.875 18.109375 30.90625 
L 18.109375 0 
L 9.078125 0 
L 9.078125 54.6875 
L 18.109375 54.6875 
L 18.109375 46.1875 
Q 21.1875 51.21875 25.484375 53.609375 
Q 29.78125 56 35.6875 56 
Q 41.65625 56 45.828125 52.96875 
Q 50 49.953125 52 44.1875 
z
" id="DejaVuSans-109"/>
      <path d="M 18.109375 8.203125 
L 18.109375 -20.796875 
L 9.078125 -20.796875 
L 9.078125 54.6875 
L 18.109375 54.6875 
L 18.109375 46.390625 
Q 20.953125 51.265625 25.265625 53.625 
Q 29.59375 56 35.59375 56 
Q 45.5625 56 51.78125 48.09375 
Q 58.015625 40.1875 58.015625 27.296875 
Q 58.015625 14.40625 51.78125 6.484375 
Q 45.5625 -1.421875 35.59375 -1.421875 
Q 29.59375 -1.421875 25.265625 0.953125 
Q 20.953125 3.328125 18.109375 8.203125 
z
M 48.6875 27.296875 
Q 48.6875 37.203125 44.609375 42.84375 
Q 40.53125 48.484375 33.40625 48.484375 
Q 26.265625 48.484375 22.1875 42.84375 
Q 18.109375 37.203125 18.109375 27.296875 
Q 18.109375 17.390625 22.1875 11.75 
Q 26.265625 6.109375 33.40625 6.109375 
Q 40.53125 6.109375 44.609375 11.75 
Q 48.6875 17.390625 48.6875 27.296875 
z
" id="DejaVuSans-112"/>
      <path d="M 30.609375 48.390625 
Q 23.390625 48.390625 19.1875 42.75 
Q 14.984375 37.109375 14.984375 27.296875 
Q 14.984375 17.484375 19.15625 11.84375 
Q 23.34375 6.203125 30.609375 6.203125 
Q 37.796875 6.203125 41.984375 11.859375 
Q 46.1875 17.53125 46.1875 27.296875 
Q 46.1875 37.015625 41.984375 42.703125 
Q 37.796875 48.390625 30.609375 48.390625 
z
M 30.609375 56 
Q 42.328125 56 49.015625 48.375 
Q 55.71875 40.765625 55.71875 27.296875 
Q 55.71875 13.875 49.015625 6.21875 
Q 42.328125 -1.421875 30.609375 -1.421875 
Q 18.84375 -1.421875 12.171875 6.21875 
Q 5.515625 13.875 5.515625 27.296875 
Q 5.515625 40.765625 12.171875 48.375 
Q 18.84375 56 30.609375 56 
z
" id="DejaVuSans-111"/>
     </defs>
     <g transform="translate(245.298438 322.394687)scale(0.1 -0.1)">
      <use xlink:href="#DejaVuSans-84"/>
      <use x="44.083984" xlink:href="#DejaVuSans-101"/>
      <use x="105.607422" xlink:href="#DejaVuSans-109"/>
      <use x="203.019531" xlink:href="#DejaVuSans-112"/>
      <use x="266.496094" xlink:href="#DejaVuSans-111"/>
     </g>
    </g>
   </g>
   <g id="matplotlib.axis_2">
    <g id="ytick_1">
     <g id="line2d_11">
      <defs>
       <path d="M 0 0 
L -3.5 0 
" id="mc30139d69e" style="stroke:#000000;stroke-width:0.8;"/>
      </defs>
      <g>
       <use style="stroke:#000000;stroke-width:0.8;" x="38.482813" xlink:href="#mc30139d69e" y="264.847693"/>
      </g>
     </g>
     <g id="text_8">
      <!-- 0.5 -->
      <defs>
       <path d="M 10.59375 35.5 
L 73.1875 35.5 
L 73.1875 27.203125 
L 10.59375 27.203125 
z
" id="DejaVuSans-8722"/>
       <path d="M 10.6875 12.40625 
L 21 12.40625 
L 21 0 
L 10.6875 0 
z
" id="DejaVuSans-46"/>
      </defs>
      <g transform="translate(7.2 268.646912)scale(0.1 -0.1)">
       <use xlink:href="#DejaVuSans-8722"/>
       <use x="83.789062" xlink:href="#DejaVuSans-48"/>
       <use x="147.412109" xlink:href="#DejaVuSans-46"/>
       <use x="179.199219" xlink:href="#DejaVuSans-53"/>
      </g>
     </g>
    </g>
    <g id="ytick_2">
     <g id="line2d_12">
      <g>
       <use style="stroke:#000000;stroke-width:0.8;" x="38.482813" xlink:href="#mc30139d69e" y="220.466234"/>
      </g>
     </g>
     <g id="text_9">
      <!-- 0.0 -->
      <g transform="translate(15.579688 224.265453)scale(0.1 -0.1)">
       <use xlink:href="#DejaVuSans-48"/>
       <use x="63.623047" xlink:href="#DejaVuSans-46"/>
       <use x="95.410156" xlink:href="#DejaVuSans-48"/>
      </g>
     </g>
    </g>
    <g id="ytick_3">
     <g id="line2d_13">
      <g>
       <use style="stroke:#000000;stroke-width:0.8;" x="38.482813" xlink:href="#mc30139d69e" y="176.084775"/>
      </g>
     </g>
     <g id="text_10">
      <!-- 0.5 -->
      <g transform="translate(15.579688 179.883993)scale(0.1 -0.1)">
       <use xlink:href="#DejaVuSans-48"/>
       <use x="63.623047" xlink:href="#DejaVuSans-46"/>
       <use x="95.410156" xlink:href="#DejaVuSans-53"/>
      </g>
     </g>
    </g>
    <g id="ytick_4">
     <g id="line2d_14">
      <g>
       <use style="stroke:#000000;stroke-width:0.8;" x="38.482813" xlink:href="#mc30139d69e" y="131.703316"/>
      </g>
     </g>
     <g id="text_11">
      <!-- 1.0 -->
      <g transform="translate(15.579688 135.502534)scale(0.1 -0.1)">
       <use xlink:href="#DejaVuSans-49"/>
       <use x="63.623047" xlink:href="#DejaVuSans-46"/>
       <use x="95.410156" xlink:href="#DejaVuSans-48"/>
      </g>
     </g>
    </g>
    <g id="ytick_5">
     <g id="line2d_15">
      <g>
       <use style="stroke:#000000;stroke-width:0.8;" x="38.482813" xlink:href="#mc30139d69e" y="87.321856"/>
      </g>
     </g>
     <g id="text_12">
      <!-- 1.5 -->
      <g transform="translate(15.579688 91.121075)scale(0.1 -0.1)">
       <use xlink:href="#DejaVuSans-49"/>
       <use x="63.623047" xlink:href="#DejaVuSans-46"/>
       <use x="95.410156" xlink:href="#DejaVuSans-53"/>
      </g>
     </g>
    </g>
    <g id="ytick_6">
     <g id="line2d_16">
      <g>
       <use style="stroke:#000000;stroke-width:0.8;" x="38.482813" xlink:href="#mc30139d69e" y="42.940397"/>
      </g>
     </g>
     <g id="text_13">
      <!-- 2.0 -->
      <g transform="translate(15.579688 46.739616)scale(0.1 -0.1)">
       <use xlink:href="#DejaVuSans-50"/>
       <use x="63.623047" xlink:href="#DejaVuSans-46"/>
       <use x="95.410156" xlink:href="#DejaVuSans-48"/>
      </g>
     </g>
    </g>
   </g>
   <g id="patch_3">
    <path d="M 38.482813 294.118125 
L 38.482813 22.318125 
" style="fill:none;stroke:#000000;stroke-linecap:square;stroke-linejoin:miter;stroke-width:0.8;"/>
   </g>
   <g id="patch_4">
    <path d="M 38.482813 294.118125 
L 484.882812 294.118125 
" style="fill:none;stroke:#000000;stroke-linecap:square;stroke-linejoin:miter;stroke-width:0.8;"/>
   </g>
   <g id="text_14">
    <!-- r -->
    <defs>
     <path d="M 41.109375 46.296875 
Q 39.59375 47.171875 37.8125 47.578125 
Q 36.03125 48 33.890625 48 
Q 26.265625 48 22.1875 43.046875 
Q 18.109375 38.09375 18.109375 28.8125 
L 18.109375 0 
L 9.078125 0 
L 9.078125 54.6875 
L 18.109375 54.6875 
L 18.109375 46.1875 
Q 20.953125 51.171875 25.484375 53.578125 
Q 30.03125 56 36.53125 56 
Q 37.453125 56 38.578125 55.875 
Q 39.703125 55.765625 41.0625 55.515625 
z
" id="DejaVuSans-114"/>
    </defs>
    <g transform="translate(259.21625 16.318125)scale(0.12 -0.12)">
     <use xlink:href="#DejaVuSans-114"/>
    </g>
   </g>
   <g id="legend_1">
    <g id="patch_5">
     <path d="M 491.882812 190.104844 
L 566.28125 190.104844 
Q 568.28125 190.104844 568.28125 188.104844 
L 568.28125 128.331406 
Q 568.28125 126.331406 566.28125 126.331406 
L 491.882812 126.331406 
Q 489.882812 126.331406 489.882812 128.331406 
L 489.882812 188.104844 
Q 489.882812 190.104844 491.882812 190.104844 
z
" style="fill:#ffffff;opacity:0.8;stroke:#cccccc;stroke-linejoin:miter;"/>
    </g>
    <g id="line2d_17">
     <path d="M 493.882812 134.429844 
L 513.882812 134.429844 
" style="fill:none;stroke:#000000;stroke-dasharray:3.7,1.6;stroke-dashoffset:0;"/>
    </g>
    <g id="line2d_18"/>
    <g id="text_15">
     <!-- Baseline -->
     <defs>
      <path d="M 19.671875 34.8125 
L 19.671875 8.109375 
L 35.5 8.109375 
Q 43.453125 8.109375 47.28125 11.40625 
Q 51.125 14.703125 51.125 21.484375 
Q 51.125 28.328125 47.28125 31.5625 
Q 43.453125 34.8125 35.5 34.8125 
z
M 19.671875 64.796875 
L 19.671875 42.828125 
L 34.28125 42.828125 
Q 41.5 42.828125 45.03125 45.53125 
Q 48.578125 48.25 48.578125 53.8125 
Q 48.578125 59.328125 45.03125 62.0625 
Q 41.5 64.796875 34.28125 64.796875 
z
M 9.8125 72.90625 
L 35.015625 72.90625 
Q 46.296875 72.90625 52.390625 68.21875 
Q 58.5 63.53125 58.5 54.890625 
Q 58.5 48.1875 55.375 44.234375 
Q 52.25 40.28125 46.1875 39.3125 
Q 53.46875 37.75 57.5 32.78125 
Q 61.53125 27.828125 61.53125 20.40625 
Q 61.53125 10.640625 54.890625 5.3125 
Q 48.25 0 35.984375 0 
L 9.8125 0 
z
" id="DejaVuSans-66"/>
      <path d="M 34.28125 27.484375 
Q 23.390625 27.484375 19.1875 25 
Q 14.984375 22.515625 14.984375 16.5 
Q 14.984375 11.71875 18.140625 8.90625 
Q 21.296875 6.109375 26.703125 6.109375 
Q 34.1875 6.109375 38.703125 11.40625 
Q 43.21875 16.703125 43.21875 25.484375 
L 43.21875 27.484375 
z
M 52.203125 31.203125 
L 52.203125 0 
L 43.21875 0 
L 43.21875 8.296875 
Q 40.140625 3.328125 35.546875 0.953125 
Q 30.953125 -1.421875 24.3125 -1.421875 
Q 15.921875 -1.421875 10.953125 3.296875 
Q 6 8.015625 6 15.921875 
Q 6 25.140625 12.171875 29.828125 
Q 18.359375 34.515625 30.609375 34.515625 
L 43.21875 34.515625 
L 43.21875 35.40625 
Q 43.21875 41.609375 39.140625 45 
Q 35.0625 48.390625 27.6875 48.390625 
Q 23 48.390625 18.546875 47.265625 
Q 14.109375 46.140625 10.015625 43.890625 
L 10.015625 52.203125 
Q 14.9375 54.109375 19.578125 55.046875 
Q 24.21875 56 28.609375 56 
Q 40.484375 56 46.34375 49.84375 
Q 52.203125 43.703125 52.203125 31.203125 
z
" id="DejaVuSans-97"/>
      <path d="M 44.28125 53.078125 
L 44.28125 44.578125 
Q 40.484375 46.53125 36.375 47.5 
Q 32.28125 48.484375 27.875 48.484375 
Q 21.1875 48.484375 17.84375 46.4375 
Q 14.5 44.390625 14.5 40.28125 
Q 14.5 37.15625 16.890625 35.375 
Q 19.28125 33.59375 26.515625 31.984375 
L 29.59375 31.296875 
Q 39.15625 29.25 43.1875 25.515625 
Q 47.21875 21.78125 47.21875 15.09375 
Q 47.21875 7.46875 41.1875 3.015625 
Q 35.15625 -1.421875 24.609375 -1.421875 
Q 20.21875 -1.421875 15.453125 -0.5625 
Q 10.6875 0.296875 5.421875 2 
L 5.421875 11.28125 
Q 10.40625 8.6875 15.234375 7.390625 
Q 20.0625 6.109375 24.8125 6.109375 
Q 31.15625 6.109375 34.5625 8.28125 
Q 37.984375 10.453125 37.984375 14.40625 
Q 37.984375 18.0625 35.515625 20.015625 
Q 33.0625 21.96875 24.703125 23.78125 
L 21.578125 24.515625 
Q 13.234375 26.265625 9.515625 29.90625 
Q 5.8125 33.546875 5.8125 39.890625 
Q 5.8125 47.609375 11.28125 51.796875 
Q 16.75 56 26.8125 56 
Q 31.78125 56 36.171875 55.265625 
Q 40.578125 54.546875 44.28125 53.078125 
z
" id="DejaVuSans-115"/>
      <path d="M 9.421875 75.984375 
L 18.40625 75.984375 
L 18.40625 0 
L 9.421875 0 
z
" id="DejaVuSans-108"/>
      <path d="M 9.421875 54.6875 
L 18.40625 54.6875 
L 18.40625 0 
L 9.421875 0 
z
M 9.421875 75.984375 
L 18.40625 75.984375 
L 18.40625 64.59375 
L 9.421875 64.59375 
z
" id="DejaVuSans-105"/>
      <path d="M 54.890625 33.015625 
L 54.890625 0 
L 45.90625 0 
L 45.90625 32.71875 
Q 45.90625 40.484375 42.875 44.328125 
Q 39.84375 48.1875 33.796875 48.1875 
Q 26.515625 48.1875 22.3125 43.546875 
Q 18.109375 38.921875 18.109375 30.90625 
L 18.109375 0 
L 9.078125 0 
L 9.078125 54.6875 
L 18.109375 54.6875 
L 18.109375 46.1875 
Q 21.34375 51.125 25.703125 53.5625 
Q 30.078125 56 35.796875 56 
Q 45.21875 56 50.046875 50.171875 
Q 54.890625 44.34375 54.890625 33.015625 
z
" id="DejaVuSans-110"/>
     </defs>
     <g transform="translate(521.882812 137.929844)scale(0.1 -0.1)">
      <use xlink:href="#DejaVuSans-66"/>
      <use x="68.603516" xlink:href="#DejaVuSans-97"/>
      <use x="129.882812" xlink:href="#DejaVuSans-115"/>
      <use x="181.982422" xlink:href="#DejaVuSans-101"/>
      <use x="243.505859" xlink:href="#DejaVuSans-108"/>
      <use x="271.289062" xlink:href="#DejaVuSans-105"/>
      <use x="299.072266" xlink:href="#DejaVuSans-110"/>
      <use x="362.451172" xlink:href="#DejaVuSans-101"/>
     </g>
    </g>
    <g id="line2d_19">
     <path d="M 493.882812 149.107969 
L 513.882812 149.107969 
" style="fill:none;stroke:#1f77b4;stroke-linecap:square;stroke-width:1.5;"/>
    </g>
    <g id="line2d_20"/>
    <g id="text_16">
     <!-- $\Downarrow \sigma_\psi$ -->
     <defs>
      <path d="M 36.765625 14.3125 
L 41.9375 9.234375 
L 47.015625 14.3125 
L 47.015625 72.90625 
L 52.875 72.90625 
L 52.875 20.171875 
L 57.46875 24.75 
L 63.328125 18.890625 
L 44.09375 -0.34375 
L 39.703125 -0.34375 
L 20.5625 18.890625 
L 26.421875 24.75 
L 30.90625 20.171875 
L 30.90625 72.90625 
L 36.765625 72.90625 
z
" id="DejaVuSans-8659"/>
      <path d="M 34.671875 47.5625 
Q 27.25 47.5625 22.21875 42.1875 
Q 16.890625 36.578125 15.140625 27.296875 
Q 13.1875 17.484375 16.3125 11.8125 
Q 19.390625 6.203125 26.65625 6.203125 
Q 33.84375 6.203125 39.109375 11.859375 
Q 44.4375 17.53125 46.34375 27.296875 
Q 48.046875 36.234375 45.015625 42.1875 
Q 42.1875 47.5625 34.671875 47.5625 
z
M 36.078125 54.734375 
L 65.921875 54.6875 
L 64.15625 45.703125 
L 54.109375 45.703125 
Q 57.90625 38.09375 55.859375 27.296875 
Q 53.21875 13.875 45.0625 6.25 
Q 36.859375 -1.421875 25.140625 -1.421875 
Q 13.375 -1.421875 8.203125 6.25 
Q 3.03125 13.875 5.671875 27.296875 
Q 8.25 40.765625 16.40625 48.390625 
Q 23.1875 54.734375 36.078125 54.734375 
z
" id="DejaVuSans-Oblique-963"/>
      <path d="M 24.859375 -1.21875 
Q 13.921875 0.59375 9.625 5.328125 
Q 4.34375 11.140625 6.640625 23 
L 12.796875 54.6875 
L 21.875 54.6875 
L 15.765625 23.34375 
Q 14.0625 14.40625 17.484375 10.6875 
Q 20.515625 7.46875 26.421875 6.78125 
L 35.6875 54.6875 
L 44.625 54.6875 
L 35.359375 6.84375 
Q 41.890625 7.515625 45.75 10.75 
Q 50.734375 14.84375 52.390625 23.390625 
L 58.453125 54.6875 
L 67.53125 54.6875 
L 61.375 23.046875 
Q 58.984375 10.75 51.5625 5.375 
Q 44.875 0.53125 33.796875 -1.171875 
L 29.984375 -20.796875 
L 21.046875 -20.796875 
z
" id="DejaVuSans-Oblique-968"/>
     </defs>
     <g transform="translate(521.882812 152.607969)scale(0.1 -0.1)">
      <use transform="translate(19.482422 0.09375)" xlink:href="#DejaVuSans-8659"/>
      <use transform="translate(122.753906 0.09375)" xlink:href="#DejaVuSans-Oblique-963"/>
      <use transform="translate(186.132812 -16.3125)scale(0.7)" xlink:href="#DejaVuSans-Oblique-968"/>
     </g>
    </g>
    <g id="line2d_21">
     <path d="M 493.882812 164.806406 
L 513.882812 164.806406 
" style="fill:none;stroke:#ff7f0e;stroke-linecap:square;stroke-width:1.5;"/>
    </g>
    <g id="line2d_22"/>
    <g id="text_17">
     <!-- $\Downarrow s_\psi$ -->
     <defs>
      <path d="M 50 53.078125 
L 48.296875 44.578125 
Q 44.734375 46.53125 40.765625 47.5 
Q 36.8125 48.484375 32.625 48.484375 
Q 25.53125 48.484375 21.453125 46.0625 
Q 17.390625 43.65625 17.390625 39.5 
Q 17.390625 34.671875 26.859375 32.078125 
Q 27.59375 31.890625 27.9375 31.78125 
L 30.8125 30.90625 
Q 39.796875 28.421875 42.796875 25.6875 
Q 45.796875 22.953125 45.796875 18.21875 
Q 45.796875 9.515625 38.890625 4.046875 
Q 31.984375 -1.421875 20.796875 -1.421875 
Q 16.453125 -1.421875 11.671875 -0.578125 
Q 6.890625 0.25 1.125 2 
L 2.875 11.28125 
Q 7.8125 8.734375 12.59375 7.421875 
Q 17.390625 6.109375 21.78125 6.109375 
Q 28.375 6.109375 32.5 8.9375 
Q 36.625 11.765625 36.625 16.109375 
Q 36.625 20.796875 25.78125 23.6875 
L 24.859375 23.921875 
L 21.78125 24.703125 
Q 14.9375 26.515625 11.765625 29.46875 
Q 8.59375 32.421875 8.59375 37.015625 
Q 8.59375 45.75 15.15625 50.875 
Q 21.734375 56 33.015625 56 
Q 37.453125 56 41.671875 55.265625 
Q 45.90625 54.546875 50 53.078125 
z
" id="DejaVuSans-Oblique-115"/>
     </defs>
     <g transform="translate(521.882812 168.306406)scale(0.1 -0.1)">
      <use transform="translate(19.482422 0.09375)" xlink:href="#DejaVuSans-8659"/>
      <use transform="translate(122.753906 0.09375)" xlink:href="#DejaVuSans-Oblique-115"/>
      <use transform="translate(174.853516 -16.3125)scale(0.7)" xlink:href="#DejaVuSans-Oblique-968"/>
     </g>
    </g>
    <g id="line2d_23">
     <path d="M 493.882812 180.504844 
L 513.882812 180.504844 
" style="fill:none;stroke:#2ca02c;stroke-linecap:square;stroke-width:1.5;"/>
    </g>
    <g id="line2d_24"/>
    <g id="text_18">
     <!-- $\Uparrow \eta$ -->
     <defs>
      <path d="M 36.765625 58.59375 
L 36.765625 0 
L 30.90625 0 
L 30.90625 52.734375 
L 26.421875 48.140625 
L 20.5625 54 
L 39.703125 73.25 
L 44.09375 73.25 
L 63.328125 54 
L 57.46875 48.140625 
L 52.875 52.734375 
L 52.875 0 
L 47.015625 0 
L 47.015625 58.59375 
L 41.9375 63.671875 
z
" id="DejaVuSans-8657"/>
      <path d="M 57.859375 33.015625 
L 47.40625 -20.796875 
L 38.421875 -20.796875 
L 48.828125 32.71875 
Q 50.34375 40.484375 48.046875 44.34375 
Q 45.796875 48.1875 39.75 48.1875 
Q 32.46875 48.1875 27.34375 43.5625 
Q 22.265625 38.921875 20.703125 30.90625 
L 14.703125 0 
L 5.671875 0 
L 16.3125 54.6875 
L 25.34375 54.6875 
L 23.6875 46.1875 
Q 27.828125 51.125 32.71875 53.5625 
Q 37.546875 56 43.265625 56 
Q 52.6875 56 56.390625 50.203125 
Q 60.0625 44.34375 57.859375 33.015625 
z
" id="DejaVuSans-Oblique-951"/>
     </defs>
     <g transform="translate(521.882812 184.004844)scale(0.1 -0.1)">
      <use transform="translate(19.482422 0.75)" xlink:href="#DejaVuSans-8657"/>
      <use transform="translate(122.753906 0.75)" xlink:href="#DejaVuSans-Oblique-951"/>
     </g>
    </g>
   </g>
  </g>
 </g>
 <defs>
  <clipPath id="pff3e116e9f">
   <rect height="271.8" width="446.4" x="38.482813" y="22.318125"/>
  </clipPath>
 </defs>
</svg>
