<?xml version="1.0" encoding="utf-8" standalone="no"?>
<!DOCTYPE svg PUBLIC "-//W3C//DTD SVG 1.1//EN"
  "http://www.w3.org/Graphics/SVG/1.1/DTD/svg11.dtd">
<!-- Created with matplotlib (https://matplotlib.org/) -->
<svg height="331.674375pt" version="1.1" viewBox="0 0 578.665625 331.674375" width="578.665625pt" xmlns="http://www.w3.org/2000/svg" xmlns:xlink="http://www.w3.org/1999/xlink">
 <defs>
  <style type="text/css">
*{stroke-linecap:butt;stroke-linejoin:round;}
  </style>
 </defs>
 <g id="figure_1">
  <g id="patch_1">
   <path d="M 0 331.674375 
L 578.665625 331.674375 
L 578.665625 0 
L 0 0 
z
" style="fill:#ffffff;"/>
  </g>
  <g id="axes_1">
   <g id="patch_2">
    <path d="M 41.667187 294.118125 
L 488.067187 294.118125 
L 488.067187 22.318125 
L 41.667187 22.318125 
z
" style="fill:#ffffff;"/>
   </g>
   <g id="line2d_1">
    <path clip-path="url(#p96a52abf1e)" d="M 61.958097 216.599034 
L 62.684068 212.120451 
L 63.41004 211.924662 
L 64.136012 210.548593 
L 64.861983 211.916068 
L 65.587955 211.693338 
L 67.76587 211.722464 
L 68.491842 211.81712 
L 69.217814 213.023692 
L 69.943785 211.251027 
L 70.669757 211.705646 
L 71.395729 210.903979 
L 72.1217 212.402182 
L 72.847672 213.175747 
L 73.573644 211.966521 
L 74.299616 212.320696 
L 75.025587 210.652967 
L 75.751559 211.647475 
L 76.477531 211.698775 
L 77.203502 211.456226 
L 77.929474 211.540339 
L 78.655446 212.069063 
L 80.107389 211.628337 
L 80.833361 211.985363 
L 81.559333 211.846136 
L 82.285304 281.76358 
L 83.011276 211.781856 
L 83.737248 212.232628 
L 84.463219 211.310227 
L 85.189191 210.659965 
L 86.641134 212.743616 
L 87.367106 211.873282 
L 88.093078 213.291765 
L 88.81905 210.910912 
L 89.545021 212.516022 
L 90.270993 210.965774 
L 90.996965 212.378711 
L 91.722936 211.251575 
L 92.448908 212.056488 
L 93.17488 213.142524 
L 93.900852 215.020712 
L 94.626823 212.275142 
L 95.352795 180.621736 
L 96.078767 212.018642 
L 96.804738 212.579946 
L 97.53071 211.944985 
L 98.256682 262.705546 
L 98.982653 211.399328 
L 99.708625 211.640658 
L 100.434597 211.263001 
L 101.160569 211.350025 
L 101.88654 211.315702 
L 102.612512 211.476197 
L 103.338484 211.831668 
L 104.064455 211.630472 
L 104.790427 213.603042 
L 105.516399 211.761904 
L 106.24237 211.934702 
L 106.968342 260.054334 
L 107.694314 213.68093 
L 108.420286 211.483196 
L 109.872229 211.863108 
L 110.598201 212.500879 
L 111.324172 211.749718 
L 112.776116 211.661678 
L 113.502087 211.814071 
L 114.228059 211.238171 
L 114.954031 211.89668 
L 115.680003 212.010997 
L 116.405974 211.714711 
L 117.131946 211.753845 
L 118.583889 212.218452 
L 119.309861 203.986915 
L 120.035833 215.103372 
L 120.761805 211.562724 
L 121.487776 212.103474 
L 122.213748 211.764455 
L 123.665691 212.0117 
L 124.391663 211.817414 
L 125.117635 212.500181 
L 125.843606 211.372835 
L 126.569578 211.86838 
L 128.021522 212.207539 
L 128.747493 211.798535 
L 130.199437 211.637538 
L 130.925408 211.837429 
L 131.65138 205.824497 
L 132.377352 211.394398 
L 133.103323 211.522388 
L 133.829295 208.984472 
L 134.555267 214.123642 
L 135.281239 210.973464 
L 136.733182 211.873467 
L 137.459154 213.083819 
L 138.185125 210.518215 
L 138.911097 211.943437 
L 139.637069 212.411562 
L 140.36304 211.731395 
L 141.089012 211.961774 
L 141.814984 213.223586 
L 142.540956 211.570172 
L 143.266927 211.83642 
L 143.992899 209.367842 
L 144.718871 210.383815 
L 145.444842 211.627328 
L 146.170814 211.603385 
L 146.896786 210.444091 
L 147.622758 212.59336 
L 148.348729 211.006657 
L 149.074701 211.411479 
L 149.800673 211.333282 
L 150.526644 212.696593 
L 151.252616 210.841673 
L 151.978588 211.915116 
L 152.704559 211.835053 
L 153.430531 211.429485 
L 154.156503 211.814561 
L 154.882475 211.992988 
L 155.608446 211.785018 
L 156.334418 207.806994 
L 157.06039 211.884515 
L 157.786361 208.09603 
L 158.512333 211.286289 
L 159.238305 211.973246 
L 159.964276 209.991557 
L 161.41622 213.116364 
L 162.142192 211.837186 
L 162.868163 212.009504 
L 163.594135 210.925244 
L 164.320107 212.176662 
L 165.046078 211.628251 
L 165.77205 210.409542 
L 166.498022 212.138058 
L 167.949965 211.574241 
L 168.675937 211.992553 
L 169.401909 212.714201 
L 170.12788 226.195354 
L 170.853852 212.582261 
L 171.579824 212.604678 
L 172.305795 211.892505 
L 173.031767 211.435759 
L 173.757739 211.409355 
L 175.209682 212.856555 
L 175.935654 208.351709 
L 176.661626 212.362739 
L 177.387597 211.653955 
L 178.113569 211.564341 
L 178.839541 211.68921 
L 179.565512 212.748266 
L 180.291484 211.878115 
L 181.017456 211.959582 
L 181.743428 211.521309 
L 183.195371 211.101999 
L 183.921343 211.790291 
L 184.647314 212.071693 
L 185.373286 213.354744 
L 186.099258 214.005557 
L 186.825229 211.767884 
L 187.551201 213.062701 
L 188.277173 211.838588 
L 189.729116 211.771034 
L 190.455088 210.52531 
L 191.18106 211.229673 
L 191.907031 211.421456 
L 192.633003 213.57216 
L 193.358975 210.696048 
L 194.084946 211.787818 
L 196.988833 211.702946 
L 197.714805 212.326482 
L 199.166748 212.439924 
L 199.89272 211.098638 
L 200.618692 211.621228 
L 202.070635 212.09392 
L 202.796607 211.642995 
L 203.522579 211.832687 
L 205.700494 211.914343 
L 206.426465 211.567083 
L 207.152437 211.687087 
L 207.878409 211.676687 
L 208.604381 213.334279 
L 209.330352 211.678736 
L 210.056324 202.653542 
L 210.782296 213.973147 
L 211.508267 211.834004 
L 212.234239 208.134651 
L 212.960211 212.552392 
L 213.686182 212.901364 
L 214.412154 212.607018 
L 215.138126 206.980649 
L 215.864098 212.149466 
L 216.590069 211.811897 
L 217.316041 211.122994 
L 218.042013 213.445153 
L 218.767984 215.170067 
L 219.493956 210.112734 
L 220.219928 212.096005 
L 220.945899 211.815102 
L 221.671871 211.854764 
L 222.397843 211.677005 
L 223.123815 211.950029 
L 223.849786 211.724846 
L 224.575758 212.00241 
L 225.30173 211.956037 
L 226.027701 211.790622 
L 226.753673 211.752336 
L 227.479645 211.931782 
L 228.205617 211.5703 
L 228.931588 211.919733 
L 230.383532 211.413737 
L 231.109503 223.516095 
L 231.835475 211.280553 
L 232.561447 211.682597 
L 233.287418 211.729601 
L 234.01339 211.226264 
L 235.465334 211.842987 
L 236.191305 212.293902 
L 236.917277 219.235268 
L 237.643249 217.023404 
L 238.36922 211.897509 
L 239.095192 218.14798 
L 239.821164 211.814277 
L 240.547135 211.755943 
L 241.999079 212.154671 
L 242.725051 211.748305 
L 243.451022 212.441442 
L 244.176994 211.300049 
L 244.902966 211.918833 
L 246.354909 211.577663 
L 247.080881 211.244529 
L 247.806852 211.513878 
L 248.532824 211.487957 
L 249.258796 211.817551 
L 249.984768 211.571348 
L 250.710739 211.130618 
L 251.436711 212.623406 
L 252.162683 211.600975 
L 252.888654 211.51405 
L 253.614626 211.615703 
L 254.340598 211.419862 
L 255.06657 212.733315 
L 255.792541 211.816335 
L 256.518513 211.713835 
L 257.244485 211.470187 
L 257.970456 212.025832 
L 258.696428 211.764229 
L 259.4224 210.211541 
L 260.148371 212.134532 
L 260.874343 212.051591 
L 261.600315 214.591616 
L 262.326287 211.705498 
L 263.052258 211.641468 
L 263.77823 211.810449 
L 265.230173 211.581577 
L 265.956145 212.288967 
L 266.682117 211.560207 
L 267.408088 212.695489 
L 268.13406 211.696858 
L 268.860032 213.410637 
L 269.586004 211.777176 
L 270.311975 211.313996 
L 271.037947 210.653268 
L 271.763919 211.320602 
L 272.48989 210.551751 
L 273.215862 211.69218 
L 276.119749 212.120627 
L 276.845721 211.838157 
L 277.571692 211.43457 
L 278.297664 211.912253 
L 279.023636 213.731172 
L 279.749607 211.369829 
L 280.475579 212.174043 
L 281.201551 211.978447 
L 281.927523 211.948501 
L 282.653494 211.791531 
L 283.379466 211.749427 
L 284.105438 211.864695 
L 284.831409 211.80358 
L 285.557381 211.866401 
L 286.283353 223.153114 
L 287.009324 211.765131 
L 287.735296 211.195634 
L 288.461268 212.092996 
L 289.18724 212.272639 
L 289.913211 211.679504 
L 290.639183 212.089183 
L 291.365155 210.969593 
L 292.091126 210.552493 
L 292.817098 211.260301 
L 293.54307 210.364231 
L 294.269041 196.972282 
L 294.995013 210.747555 
L 297.172928 213.382488 
L 297.8989 211.419332 
L 298.624872 211.96873 
L 299.350843 212.066848 
L 300.076815 211.626526 
L 300.802787 212.263988 
L 301.528758 212.496361 
L 302.25473 211.868861 
L 302.980702 212.599581 
L 303.706674 211.937301 
L 304.432645 211.069089 
L 305.158617 212.215093 
L 305.884589 214.387466 
L 306.61056 211.544786 
L 307.336532 211.032477 
L 308.062504 211.765927 
L 308.788476 211.758697 
L 309.514447 211.617112 
L 310.240419 211.791774 
L 311.692362 211.487102 
L 312.418334 155.722712 
L 313.144306 212.083802 
L 313.870277 211.325793 
L 314.596249 213.2473 
L 315.322221 212.762974 
L 316.048193 211.904947 
L 316.774164 211.918506 
L 317.500136 211.657705 
L 318.226108 210.916941 
L 318.952079 211.880922 
L 319.678051 211.669946 
L 320.404023 211.915781 
L 321.129994 211.544878 
L 321.855966 211.797569 
L 322.581938 211.012425 
L 323.30791 221.936125 
L 324.033881 239.884692 
L 324.759853 212.00802 
L 325.485825 212.041599 
L 326.211796 211.056542 
L 326.937768 211.968053 
L 327.66374 212.03574 
L 328.389711 211.519735 
L 329.841655 211.626017 
L 330.567627 213.474752 
L 332.01957 210.080242 
L 332.745542 211.690933 
L 333.471513 211.739763 
L 334.197485 211.345391 
L 334.923457 212.00121 
L 335.649429 211.868508 
L 336.3754 212.284888 
L 337.101372 211.630548 
L 337.827344 211.829974 
L 338.553315 213.619347 
L 339.279287 211.536527 
L 340.73123 211.711135 
L 341.457202 211.565429 
L 342.183174 210.315973 
L 342.909146 210.673163 
L 343.635117 211.565778 
L 345.087061 211.644161 
L 345.813032 212.417722 
L 346.539004 211.659124 
L 347.264976 208.562396 
L 347.990947 211.927131 
L 348.716919 211.421682 
L 349.442891 217.808551 
L 350.168863 211.584303 
L 350.894834 211.556924 
L 351.620806 211.695414 
L 353.798721 211.527084 
L 355.250664 212.046951 
L 355.976636 211.413033 
L 356.702608 211.917603 
L 357.42858 210.036866 
L 358.154551 209.908806 
L 358.880523 211.872519 
L 359.606495 211.708977 
L 360.332466 210.200121 
L 361.058438 216.478806 
L 361.78441 211.77694 
L 362.510382 211.274897 
L 363.236353 212.422868 
L 363.962325 210.988873 
L 364.688297 211.245778 
L 365.414268 211.969583 
L 366.14024 212.427719 
L 366.866212 211.535269 
L 367.592183 211.710801 
L 368.318155 211.516403 
L 369.044127 211.715763 
L 369.770099 211.435645 
L 370.49607 211.458101 
L 371.948014 212.391468 
L 372.673985 211.529277 
L 373.399957 211.929887 
L 374.125929 211.550726 
L 374.8519 211.654801 
L 375.577872 211.534179 
L 376.303844 212.031159 
L 377.029816 211.615238 
L 377.755787 211.572575 
L 379.207731 211.967945 
L 379.933702 196.934198 
L 380.659674 210.823223 
L 381.385646 211.912654 
L 382.111617 210.938325 
L 382.837589 211.920286 
L 383.563561 211.710876 
L 384.289533 211.130644 
L 385.015504 212.290023 
L 385.741476 212.301054 
L 386.467448 212.457411 
L 387.193419 212.385811 
L 387.919391 212.032633 
L 388.645363 212.122019 
L 389.371335 211.542299 
L 390.097306 211.297375 
L 390.823278 212.321165 
L 391.54925 212.653486 
L 392.275221 211.587427 
L 393.001193 212.355898 
L 393.727165 211.919342 
L 394.453136 210.979357 
L 395.179108 211.416479 
L 395.90508 211.210724 
L 396.631052 212.950054 
L 398.082995 211.632606 
L 398.808967 211.449708 
L 399.534938 211.979341 
L 400.26091 211.598927 
L 400.986882 212.453993 
L 401.712853 212.039936 
L 403.164797 210.435255 
L 403.890769 211.117276 
L 404.61674 212.186064 
L 405.342712 215.976818 
L 406.068684 212.51672 
L 406.794655 211.602028 
L 407.520627 212.348924 
L 408.97257 211.639255 
L 409.698542 211.644043 
L 410.424514 210.787274 
L 411.150486 211.655788 
L 411.876457 206.71318 
L 412.602429 211.822058 
L 414.054372 211.304352 
L 414.780344 211.305165 
L 415.506316 211.549171 
L 416.958259 211.431797 
L 417.684231 210.509372 
L 418.410203 207.806773 
L 419.136174 211.494616 
L 419.862146 212.56651 
L 420.588118 210.923282 
L 421.314089 211.735706 
L 422.040061 212.238068 
L 422.766033 211.388944 
L 423.492005 211.495803 
L 424.217976 213.131914 
L 424.943948 211.956725 
L 426.395891 211.907602 
L 427.121863 211.965164 
L 427.847835 211.531565 
L 428.573806 212.215406 
L 429.299778 211.601361 
L 430.02575 211.612356 
L 430.751722 211.511207 
L 431.477693 211.608364 
L 432.203665 211.536393 
L 432.929637 211.730524 
L 433.655608 211.583142 
L 434.38158 211.648369 
L 435.107552 211.528099 
L 435.833523 211.619851 
L 436.559495 214.290288 
L 437.285467 211.76603 
L 438.011439 211.850457 
L 438.73741 211.166684 
L 439.463382 212.044727 
L 440.189354 213.24614 
L 441.641297 210.651871 
L 442.367269 212.342446 
L 443.093241 211.555376 
L 445.271156 211.371224 
L 445.997127 213.090736 
L 446.723099 210.027393 
L 447.449071 211.604386 
L 448.175042 211.865227 
L 449.626986 211.623992 
L 450.352958 211.18217 
L 451.078929 211.550695 
L 451.804901 211.607676 
L 453.256844 211.556451 
L 453.982816 211.656253 
L 454.708788 211.569711 
L 455.434759 211.280839 
L 456.160731 212.073976 
L 456.886703 211.450575 
L 458.338646 211.980948 
L 459.064618 213.134883 
L 459.79059 211.50608 
L 460.516561 211.443327 
L 461.242533 211.222711 
L 461.968505 211.853113 
L 462.694476 211.578711 
L 463.420448 211.609701 
L 464.14642 211.005893 
L 464.872392 211.548992 
L 465.598363 211.658833 
L 467.776278 211.527688 
L 467.776278 211.527688 
" style="fill:none;stroke:#1f77b4;stroke-linecap:square;stroke-width:1.5;"/>
   </g>
   <g id="line2d_2">
    <path clip-path="url(#p96a52abf1e)" d="M 61.958097 230.381344 
L 62.684068 212.087113 
L 63.41004 211.871532 
L 64.136012 212.574676 
L 64.861983 211.761809 
L 65.587955 211.859924 
L 66.313927 211.173754 
L 67.039899 212.373889 
L 67.76587 212.184022 
L 68.491842 210.168953 
L 69.943785 212.328422 
L 70.669757 211.495067 
L 71.395729 213.232604 
L 72.1217 211.782986 
L 72.847672 211.861273 
L 74.299616 211.797255 
L 75.025587 213.853385 
L 75.751559 211.870764 
L 76.477531 211.762443 
L 77.203502 211.940486 
L 77.929474 211.707327 
L 78.655446 211.706103 
L 79.381417 211.542364 
L 80.833361 212.403355 
L 81.559333 211.589595 
L 82.285304 211.218004 
L 83.011276 211.577411 
L 83.737248 211.531771 
L 84.463219 211.172904 
L 85.189191 211.265976 
L 85.915163 210.63418 
L 86.641134 211.921049 
L 87.367106 211.837026 
L 88.093078 214.35742 
L 88.81905 212.267203 
L 89.545021 211.158448 
L 90.270993 211.772619 
L 91.722936 211.840937 
L 92.448908 211.964865 
L 93.17488 216.977844 
L 93.900852 210.907231 
L 94.626823 211.951455 
L 95.352795 201.474484 
L 96.078767 211.863768 
L 96.804738 211.561178 
L 97.53071 211.010223 
L 98.256682 182.240105 
L 98.982653 211.657043 
L 99.708625 211.686436 
L 100.434597 211.480796 
L 101.160569 212.006869 
L 101.88654 211.608262 
L 102.612512 212.827021 
L 103.338484 211.72638 
L 104.064455 211.992761 
L 104.790427 211.625457 
L 105.516399 210.745533 
L 106.24237 211.824771 
L 106.968342 261.30141 
L 107.694314 212.461544 
L 108.420286 211.789128 
L 109.146257 211.81803 
L 109.872229 211.430679 
L 110.598201 213.425664 
L 111.324172 212.11228 
L 112.050144 211.742006 
L 112.776116 211.554177 
L 113.502087 211.810801 
L 114.228059 211.510076 
L 114.954031 211.841837 
L 115.680003 211.793253 
L 116.405974 212.992371 
L 117.131946 207.232191 
L 117.857918 211.628755 
L 118.583889 209.524844 
L 119.309861 227.577957 
L 120.035833 215.108671 
L 120.761805 211.878053 
L 121.487776 212.426387 
L 122.213748 211.617004 
L 122.93972 211.868147 
L 124.391663 211.981972 
L 125.117635 212.505437 
L 125.843606 211.628407 
L 126.569578 212.420926 
L 127.29555 211.57927 
L 128.021522 212.017754 
L 128.747493 211.692395 
L 129.473465 210.608669 
L 130.199437 213.077899 
L 130.925408 211.737079 
L 131.65138 208.492168 
L 132.377352 211.763995 
L 133.829295 212.029226 
L 134.555267 212.308053 
L 135.281239 211.328444 
L 136.00721 212.445877 
L 136.733182 211.862417 
L 137.459154 212.352853 
L 138.185125 211.603677 
L 138.911097 211.761189 
L 140.36304 211.67085 
L 141.814984 212.822745 
L 142.540956 211.636107 
L 143.266927 211.92877 
L 144.718871 211.698781 
L 145.444842 211.911239 
L 146.170814 211.646195 
L 146.896786 211.885287 
L 147.622758 211.843839 
L 148.348729 211.672615 
L 149.074701 211.140064 
L 149.800673 211.48836 
L 150.526644 212.300114 
L 151.252616 212.156652 
L 151.978588 212.270006 
L 152.704559 211.916148 
L 153.430531 211.737058 
L 154.156503 211.937578 
L 154.882475 211.798608 
L 155.608446 211.897533 
L 156.334418 225.199214 
L 157.06039 213.02685 
L 157.786361 213.139357 
L 158.512333 222.046506 
L 159.238305 212.134278 
L 159.964276 211.75419 
L 160.690248 211.801915 
L 161.41622 212.050019 
L 162.142192 211.342294 
L 162.868163 212.614944 
L 163.594135 212.022434 
L 164.320107 211.718953 
L 165.046078 211.970991 
L 165.77205 210.935711 
L 166.498022 212.339719 
L 167.223993 211.908167 
L 167.949965 211.054268 
L 168.675937 213.519178 
L 169.401909 211.446345 
L 170.12788 213.993848 
L 170.853852 211.149304 
L 171.579824 216.975493 
L 172.305795 212.701885 
L 173.031767 212.507063 
L 173.757739 211.508093 
L 174.483711 211.830202 
L 175.209682 212.326218 
L 175.935654 212.62491 
L 176.661626 211.402329 
L 177.387597 211.620432 
L 178.113569 211.509842 
L 178.839541 212.263974 
L 179.565512 215.382195 
L 180.291484 211.179169 
L 181.017456 209.951396 
L 181.743428 212.125024 
L 182.469399 212.824309 
L 183.195371 212.883384 
L 183.921343 211.604344 
L 184.647314 212.209218 
L 185.373286 210.610462 
L 186.099258 213.132519 
L 186.825229 211.777251 
L 187.551201 213.684098 
L 188.277173 214.234203 
L 189.003145 211.779101 
L 189.729116 211.364196 
L 190.455088 211.851395 
L 191.18106 210.273784 
L 191.907031 211.891038 
L 192.633003 207.374262 
L 193.358975 206.802756 
L 194.084946 212.068174 
L 194.810918 211.908241 
L 195.53689 211.973501 
L 196.988833 211.77516 
L 197.714805 212.507421 
L 198.440777 209.879826 
L 199.166748 212.024332 
L 199.89272 211.638212 
L 201.344664 211.788518 
L 202.070635 212.329793 
L 202.796607 211.778644 
L 203.522579 211.602665 
L 204.24855 211.742795 
L 205.700494 211.660543 
L 206.426465 211.798541 
L 207.152437 211.754751 
L 207.878409 211.886888 
L 208.604381 210.258297 
L 209.330352 211.644568 
L 210.056324 214.657987 
L 210.782296 211.931801 
L 211.508267 212.269797 
L 212.234239 205.377858 
L 212.960211 212.348615 
L 213.686182 211.697571 
L 214.412154 212.635176 
L 215.138126 211.176018 
L 215.864098 211.714726 
L 216.590069 211.864784 
L 217.316041 210.740592 
L 218.042013 212.784615 
L 218.767984 210.370881 
L 219.493956 209.46412 
L 220.219928 211.954291 
L 220.945899 211.710005 
L 221.671871 211.889979 
L 223.849786 211.606734 
L 224.575758 211.889911 
L 225.30173 211.623483 
L 226.027701 211.729835 
L 226.753673 212.11708 
L 227.479645 212.075018 
L 228.205617 211.792324 
L 228.931588 211.85752 
L 230.383532 211.770522 
L 231.109503 210.241036 
L 231.835475 211.87969 
L 234.01339 211.762676 
L 234.739362 211.908324 
L 235.465334 211.787902 
L 236.191305 210.777016 
L 236.917277 222.838056 
L 237.643249 213.206404 
L 238.36922 211.702391 
L 239.095192 209.468092 
L 239.821164 211.387885 
L 240.547135 211.864577 
L 241.273107 211.937094 
L 241.999079 212.171381 
L 242.725051 211.788938 
L 243.451022 212.197105 
L 244.176994 209.313994 
L 244.902966 211.992563 
L 245.628937 211.827303 
L 246.354909 211.784305 
L 247.080881 212.003647 
L 247.806852 211.569154 
L 248.532824 211.932832 
L 249.258796 211.728766 
L 249.984768 211.07883 
L 250.710739 211.68456 
L 251.436711 211.20063 
L 252.162683 211.615788 
L 252.888654 211.55537 
L 253.614626 211.616684 
L 254.340598 211.555596 
L 255.06657 211.860946 
L 255.792541 211.723478 
L 256.518513 211.776142 
L 257.244485 211.670707 
L 257.970456 211.419369 
L 258.696428 211.903274 
L 259.4224 211.510097 
L 260.148371 212.158023 
L 260.874343 211.563526 
L 261.600315 212.120397 
L 262.326287 211.682544 
L 263.052258 211.665519 
L 263.77823 212.06534 
L 264.504202 211.847174 
L 265.230173 211.800522 
L 265.956145 212.349227 
L 266.682117 211.881398 
L 267.408088 210.158449 
L 268.13406 211.737762 
L 268.860032 211.465823 
L 269.586004 211.944758 
L 270.311975 212.789463 
L 271.037947 210.431171 
L 271.763919 212.022132 
L 272.48989 210.736527 
L 273.215862 211.915181 
L 273.941834 211.645564 
L 274.667805 212.088837 
L 275.393777 211.758961 
L 276.845721 211.837783 
L 278.297664 211.370487 
L 279.023636 216.240318 
L 279.749607 211.455498 
L 280.475579 211.594275 
L 281.201551 211.986973 
L 281.927523 211.56284 
L 282.653494 211.746094 
L 283.379466 211.453115 
L 284.105438 211.884213 
L 284.831409 211.310762 
L 285.557381 211.901774 
L 286.283353 242.883601 
L 287.009324 211.572943 
L 287.735296 211.556321 
L 288.461268 211.314777 
L 289.18724 212.129977 
L 289.913211 211.649682 
L 290.639183 212.02338 
L 291.365155 210.957733 
L 292.817098 210.576985 
L 293.54307 211.983083 
L 294.269041 202.0697 
L 294.995013 211.786196 
L 295.720985 211.711913 
L 296.446957 212.466561 
L 297.172928 215.367576 
L 297.8989 211.455993 
L 298.624872 211.746182 
L 299.350843 211.740804 
L 300.076815 211.098248 
L 300.802787 209.097492 
L 301.528758 209.041865 
L 302.25473 212.053579 
L 302.980702 215.667638 
L 303.706674 212.170105 
L 304.432645 211.616169 
L 305.158617 212.147409 
L 305.884589 214.978287 
L 306.61056 211.382227 
L 307.336532 217.071189 
L 308.062504 211.440964 
L 308.788476 212.828064 
L 309.514447 212.644979 
L 310.966391 211.69321 
L 311.692362 212.082132 
L 312.418334 202.603907 
L 313.144306 211.456468 
L 313.870277 211.73543 
L 314.596249 211.490118 
L 315.322221 212.011753 
L 316.774164 211.504568 
L 317.500136 211.906318 
L 318.226108 212.572835 
L 318.952079 211.567758 
L 319.678051 211.434446 
L 320.404023 212.062362 
L 321.855966 211.883694 
L 322.581938 211.014323 
L 323.30791 226.82242 
L 324.033881 220.527588 
L 324.759853 212.019276 
L 325.485825 211.815977 
L 326.211796 211.482152 
L 326.937768 211.689425 
L 327.66374 211.64715 
L 328.389711 211.919903 
L 329.115683 211.729162 
L 329.841655 211.830975 
L 330.567627 211.558739 
L 331.293598 210.8504 
L 332.01957 212.882347 
L 332.745542 211.755897 
L 334.197485 212.201668 
L 334.923457 211.697336 
L 335.649429 211.872011 
L 336.3754 213.593075 
L 337.101372 211.785105 
L 337.827344 211.739099 
L 338.553315 214.432634 
L 339.279287 211.834991 
L 340.005259 211.592774 
L 340.73123 211.739874 
L 341.457202 211.689953 
L 342.183174 212.520118 
L 342.909146 212.203525 
L 343.635117 211.50828 
L 344.361089 211.815817 
L 345.087061 211.344936 
L 345.813032 211.943961 
L 346.539004 211.594958 
L 347.264976 210.348894 
L 347.990947 211.542239 
L 348.716919 211.811776 
L 349.442891 211.654296 
L 350.894834 211.840817 
L 351.620806 211.576727 
L 352.346778 211.75471 
L 353.072749 212.122205 
L 354.524693 211.704524 
L 355.250664 211.998435 
L 355.976636 211.611258 
L 356.702608 212.80614 
L 357.42858 210.180307 
L 358.154551 212.990369 
L 358.880523 211.750023 
L 360.332466 211.748704 
L 361.058438 211.935101 
L 361.78441 211.314166 
L 362.510382 212.096122 
L 363.236353 212.428003 
L 363.962325 212.139412 
L 364.688297 211.129847 
L 365.414268 211.695028 
L 366.14024 211.736008 
L 366.866212 212.017861 
L 367.592183 211.545109 
L 368.318155 211.744778 
L 369.044127 210.661418 
L 369.770099 211.374798 
L 370.49607 212.315633 
L 371.222042 211.627996 
L 371.948014 212.232838 
L 372.673985 210.579021 
L 373.399957 212.22269 
L 374.8519 211.526011 
L 375.577872 211.713031 
L 376.303844 212.477898 
L 377.029816 211.687822 
L 378.481759 211.721641 
L 379.207731 211.946793 
L 379.933702 198.942504 
L 380.659674 212.749659 
L 382.111617 211.177178 
L 382.837589 211.666817 
L 383.563561 211.544728 
L 384.289533 211.693424 
L 385.015504 211.134053 
L 385.741476 211.918077 
L 386.467448 212.016297 
L 387.193419 211.910611 
L 387.919391 211.55051 
L 388.645363 211.544149 
L 389.371335 211.405299 
L 390.097306 211.429562 
L 390.823278 212.273135 
L 391.54925 212.746066 
L 392.275221 211.524959 
L 393.001193 212.270694 
L 393.727165 211.846173 
L 394.453136 213.931998 
L 395.179108 212.249808 
L 395.90508 210.173785 
L 396.631052 212.781963 
L 397.357023 211.053481 
L 398.082995 212.259075 
L 399.534938 210.897832 
L 400.26091 212.720353 
L 400.986882 212.175374 
L 401.712853 212.436347 
L 403.164797 210.559304 
L 403.890769 211.749953 
L 404.61674 211.097921 
L 405.342712 235.761662 
L 406.068684 210.132917 
L 406.794655 211.622307 
L 407.520627 212.298134 
L 408.246599 211.756493 
L 408.97257 212.201664 
L 409.698542 211.731065 
L 410.424514 212.366413 
L 411.876457 210.797052 
L 412.602429 211.729232 
L 413.328401 211.726569 
L 414.054372 211.268372 
L 414.780344 211.263141 
L 415.506316 211.701341 
L 416.232288 211.83986 
L 416.958259 210.065182 
L 417.684231 210.335233 
L 418.410203 207.325891 
L 419.136174 211.340232 
L 419.862146 212.603731 
L 420.588118 211.154519 
L 422.040061 212.328576 
L 422.766033 211.279805 
L 423.492005 211.535152 
L 424.217976 212.960632 
L 424.943948 212.00346 
L 425.66992 211.714277 
L 426.395891 211.835108 
L 427.121863 211.583287 
L 427.847835 211.920657 
L 428.573806 212.073458 
L 429.299778 211.61806 
L 430.751722 211.467807 
L 431.477693 211.696675 
L 432.203665 211.611706 
L 432.929637 212.295672 
L 433.655608 211.49397 
L 434.38158 211.455225 
L 435.107552 211.711549 
L 435.833523 211.436376 
L 436.559495 210.127432 
L 437.285467 211.554673 
L 438.011439 211.527317 
L 438.73741 211.207713 
L 439.463382 211.57997 
L 440.189354 211.816181 
L 440.915325 211.566125 
L 441.641297 211.631864 
L 442.367269 211.245526 
L 443.093241 211.478323 
L 445.997127 211.442741 
L 446.723099 211.372351 
L 447.449071 211.532145 
L 448.175042 211.499205 
L 448.901014 211.581049 
L 450.352958 211.399159 
L 451.078929 211.695993 
L 451.804901 211.670225 
L 452.530873 211.836455 
L 453.256844 211.509779 
L 453.982816 212.592586 
L 454.708788 211.650129 
L 455.434759 211.633831 
L 456.160731 211.772634 
L 456.886703 211.651311 
L 457.612675 211.900844 
L 458.338646 211.591913 
L 460.516561 211.428285 
L 461.242533 211.294518 
L 461.968505 211.998503 
L 462.694476 211.711725 
L 463.420448 211.917442 
L 464.14642 210.033364 
L 464.872392 211.74845 
L 465.598363 211.391881 
L 466.324335 211.892517 
L 467.050307 211.51352 
L 467.776278 211.621759 
L 467.776278 211.621759 
" style="fill:none;stroke:#ff7f0e;stroke-linecap:square;stroke-width:1.5;"/>
   </g>
   <g id="line2d_3">
    <path clip-path="url(#p96a52abf1e)" d="M 61.958097 207.886133 
L 62.684068 211.955008 
L 63.41004 211.825209 
L 64.136012 210.876927 
L 64.861983 211.926018 
L 65.587955 211.77354 
L 66.313927 212.105877 
L 67.039899 212.754335 
L 68.491842 210.863181 
L 69.217814 211.532897 
L 69.943785 210.982714 
L 70.669757 211.896484 
L 71.395729 208.835932 
L 72.1217 211.680357 
L 72.847672 211.055697 
L 73.573644 211.846271 
L 74.299616 212.376288 
L 75.025587 211.508757 
L 75.751559 211.636441 
L 77.203502 211.432336 
L 78.655446 211.74554 
L 79.381417 211.252422 
L 80.107389 212.008033 
L 80.833361 212.36931 
L 81.559333 211.694313 
L 82.285304 190.057001 
L 83.011276 211.677093 
L 83.737248 211.837366 
L 84.463219 211.743653 
L 85.189191 211.891207 
L 85.915163 210.279373 
L 86.641134 212.023169 
L 87.367106 211.882232 
L 88.093078 213.03253 
L 88.81905 213.065374 
L 89.545021 212.081552 
L 90.270993 211.897192 
L 90.996965 212.401458 
L 91.722936 212.296583 
L 92.448908 212.068721 
L 93.17488 220.502756 
L 93.900852 210.240975 
L 94.626823 212.457693 
L 95.352795 211.309578 
L 98.256682 212.400763 
L 98.982653 212.068816 
L 99.708625 211.183924 
L 100.434597 212.4261 
L 101.160569 211.999175 
L 101.88654 212.291231 
L 102.612512 214.552373 
L 103.338484 211.715196 
L 104.064455 211.627352 
L 104.790427 213.930876 
L 105.516399 211.203098 
L 106.24237 211.856655 
L 106.968342 34.67267 
L 107.694314 211.611124 
L 108.420286 211.936923 
L 109.146257 211.891136 
L 109.872229 211.479301 
L 110.598201 212.147484 
L 111.324172 212.067484 
L 112.050144 211.654947 
L 112.776116 211.874831 
L 113.502087 211.841118 
L 114.228059 211.443845 
L 114.954031 211.738476 
L 115.680003 212.338393 
L 116.405974 213.743506 
L 117.131946 213.571701 
L 117.857918 211.831887 
L 118.583889 209.762668 
L 120.035833 215.598214 
L 120.761805 211.503514 
L 121.487776 212.032269 
L 122.213748 212.06096 
L 123.665691 211.817402 
L 124.391663 211.867204 
L 125.117635 211.719167 
L 128.021522 211.97925 
L 128.747493 211.807594 
L 129.473465 210.658942 
L 130.199437 211.705366 
L 130.925408 211.621754 
L 131.65138 211.943825 
L 132.377352 211.647075 
L 133.103323 212.035951 
L 133.829295 211.97267 
L 134.555267 211.7107 
L 135.281239 212.213386 
L 136.00721 212.36093 
L 136.733182 211.763006 
L 138.185125 211.591053 
L 138.911097 211.836507 
L 139.637069 212.470307 
L 141.089012 212.018351 
L 141.814984 207.999606 
L 142.540956 211.746805 
L 143.266927 211.791817 
L 143.992899 212.119369 
L 144.718871 211.960961 
L 145.444842 210.91044 
L 146.896786 210.095707 
L 147.622758 211.86679 
L 148.348729 210.93423 
L 149.074701 212.148031 
L 149.800673 211.279235 
L 150.526644 212.642567 
L 151.252616 209.572457 
L 151.978588 211.347661 
L 152.704559 211.885025 
L 153.430531 211.382202 
L 154.156503 211.896667 
L 154.882475 211.926717 
L 155.608446 211.666126 
L 156.334418 230.069193 
L 157.06039 212.736923 
L 158.512333 223.682461 
L 159.238305 212.19345 
L 159.964276 212.333905 
L 161.41622 210.947555 
L 162.142192 211.744547 
L 162.868163 211.831488 
L 164.320107 211.663909 
L 165.046078 211.559381 
L 165.77205 210.078292 
L 166.498022 217.218764 
L 167.223993 211.854696 
L 167.949965 212.729421 
L 168.675937 212.728842 
L 169.401909 211.588884 
L 170.12788 212.799506 
L 170.853852 211.543658 
L 171.579824 212.211806 
L 172.305795 210.960202 
L 173.031767 211.958376 
L 173.757739 210.81529 
L 174.483711 212.136966 
L 175.209682 212.858045 
L 175.935654 212.559799 
L 176.661626 211.517167 
L 178.839541 211.509337 
L 179.565512 213.913541 
L 180.291484 211.74554 
L 181.017456 211.646808 
L 181.743428 211.27841 
L 182.469399 211.270311 
L 183.195371 210.869186 
L 183.921343 211.733529 
L 184.647314 212.191565 
L 185.373286 207.640866 
L 186.099258 211.878567 
L 186.825229 211.639362 
L 187.551201 212.563733 
L 188.277173 210.308348 
L 189.003145 212.120138 
L 189.729116 212.357537 
L 190.455088 208.507533 
L 191.18106 211.331592 
L 191.907031 211.0155 
L 193.358975 208.736743 
L 194.084946 211.973073 
L 195.53689 211.884032 
L 196.262862 211.536782 
L 196.988833 211.536777 
L 197.714805 212.936552 
L 198.440777 210.386828 
L 199.166748 211.608917 
L 199.89272 211.618559 
L 200.618692 211.427358 
L 201.344664 211.514612 
L 202.070635 211.336328 
L 202.796607 211.545818 
L 203.522579 211.593287 
L 204.24855 211.974507 
L 204.974522 212.107278 
L 205.700494 211.668368 
L 206.426465 211.762904 
L 207.878409 211.528962 
L 208.604381 212.005574 
L 209.330352 211.677079 
L 210.056324 209.789977 
L 210.782296 212.90304 
L 211.508267 212.387541 
L 212.234239 211.398739 
L 212.960211 211.680586 
L 213.686182 211.308294 
L 214.412154 210.632378 
L 215.138126 208.188465 
L 215.864098 212.14024 
L 216.590069 211.848324 
L 217.316041 216.295362 
L 218.042013 209.805981 
L 218.767984 217.016183 
L 219.493956 213.121546 
L 220.219928 212.186081 
L 220.945899 211.666349 
L 221.671871 212.452253 
L 222.397843 211.870599 
L 223.123815 212.167497 
L 223.849786 211.832053 
L 224.575758 215.522891 
L 225.30173 212.253094 
L 226.027701 210.992212 
L 226.753673 212.099171 
L 227.479645 211.681189 
L 228.931588 211.83775 
L 229.65756 211.687483 
L 230.383532 211.898857 
L 231.109503 210.778189 
L 231.835475 212.294063 
L 232.561447 211.631705 
L 233.287418 212.529276 
L 234.01339 211.95395 
L 234.739362 212.475951 
L 235.465334 211.767279 
L 236.917277 215.498566 
L 237.643249 211.690287 
L 238.36922 211.930108 
L 239.095192 209.263476 
L 239.821164 211.352368 
L 240.547135 211.469232 
L 241.273107 211.84925 
L 241.999079 212.694276 
L 242.725051 211.810065 
L 243.451022 212.203212 
L 244.176994 211.56592 
L 244.902966 211.202776 
L 245.628937 211.19976 
L 246.354909 212.469181 
L 247.080881 211.650109 
L 247.806852 209.696932 
L 248.532824 211.929146 
L 249.258796 211.505752 
L 249.984768 211.255971 
L 251.436711 211.905874 
L 252.162683 211.585364 
L 252.888654 212.181798 
L 253.614626 211.577284 
L 254.340598 211.532453 
L 255.06657 211.716194 
L 257.244485 211.578231 
L 257.970456 211.777517 
L 258.696428 211.860246 
L 259.4224 212.25621 
L 260.148371 213.026445 
L 260.874343 211.967349 
L 261.600315 211.704153 
L 262.326287 211.880598 
L 263.052258 211.680219 
L 263.77823 212.73736 
L 264.504202 211.858174 
L 265.956145 211.839184 
L 266.682117 211.539916 
L 267.408088 211.637514 
L 268.13406 211.94346 
L 268.860032 210.952296 
L 270.311975 212.035444 
L 271.037947 211.744182 
L 271.763919 210.536537 
L 272.48989 212.245888 
L 273.215862 211.983935 
L 273.941834 211.978946 
L 274.667805 211.762932 
L 275.393777 211.883645 
L 276.119749 213.209148 
L 276.845721 211.793359 
L 277.571692 211.085349 
L 278.297664 211.591959 
L 279.023636 208.954644 
L 279.749607 211.67457 
L 280.475579 211.250306 
L 281.201551 212.266597 
L 281.927523 211.464249 
L 283.379466 211.634 
L 284.831409 211.550629 
L 285.557381 211.912183 
L 286.283353 230.76932 
L 287.009324 211.575483 
L 287.735296 211.644612 
L 288.461268 212.082222 
L 289.18724 212.019871 
L 289.913211 211.814144 
L 290.639183 211.934919 
L 291.365155 210.944564 
L 292.091126 211.024295 
L 292.817098 211.666431 
L 293.54307 212.467735 
L 294.269041 209.91266 
L 294.995013 212.174427 
L 296.446957 211.169371 
L 297.172928 214.703144 
L 297.8989 211.641098 
L 300.076815 212.510705 
L 300.802787 212.38549 
L 301.528758 208.659767 
L 302.25473 211.324528 
L 302.980702 211.644974 
L 303.706674 211.323136 
L 305.158617 212.205261 
L 305.884589 212.140922 
L 306.61056 211.703203 
L 307.336532 211.562018 
L 308.062504 211.024978 
L 308.788476 212.186433 
L 309.514447 210.917366 
L 310.240419 212.208795 
L 310.966391 211.728179 
L 311.692362 212.10607 
L 312.418334 224.810057 
L 313.144306 211.906059 
L 313.870277 211.583767 
L 314.596249 211.811093 
L 315.322221 210.122435 
L 316.048193 211.824618 
L 316.774164 212.026645 
L 317.500136 211.568108 
L 318.226108 212.146188 
L 320.404023 211.456319 
L 321.129994 212.888569 
L 321.855966 211.990578 
L 322.581938 211.71952 
L 323.30791 227.498977 
L 324.033881 217.393521 
L 324.759853 211.802415 
L 325.485825 211.911462 
L 326.211796 211.778433 
L 326.937768 212.553083 
L 327.66374 211.409976 
L 328.389711 211.769358 
L 329.841655 211.773282 
L 330.567627 212.882739 
L 331.293598 211.807722 
L 332.01957 211.744212 
L 332.745542 212.123732 
L 333.471513 212.219607 
L 334.197485 212.739678 
L 334.923457 211.492618 
L 335.649429 211.504597 
L 336.3754 212.15629 
L 337.101372 211.649272 
L 337.827344 211.469292 
L 338.553315 212.903761 
L 339.279287 211.584276 
L 340.73123 211.533378 
L 341.457202 211.610422 
L 342.183174 208.156613 
L 342.909146 212.418056 
L 343.635117 211.251226 
L 344.361089 211.78473 
L 345.087061 211.968471 
L 345.813032 211.765286 
L 346.539004 211.881573 
L 347.264976 210.502374 
L 347.990947 212.484169 
L 348.716919 211.567595 
L 349.442891 211.321688 
L 350.168863 211.642881 
L 350.894834 211.65499 
L 351.620806 211.818752 
L 353.072749 211.711806 
L 353.798721 212.113403 
L 354.524693 211.67641 
L 355.250664 211.894019 
L 355.976636 211.369861 
L 356.702608 211.219821 
L 357.42858 212.70559 
L 358.154551 210.052354 
L 358.880523 211.564855 
L 359.606495 211.575057 
L 360.332466 212.190439 
L 361.058438 213.019352 
L 361.78441 211.40191 
L 362.510382 211.504463 
L 363.236353 211.05802 
L 363.962325 211.690561 
L 364.688297 212.011309 
L 365.414268 211.803241 
L 366.14024 210.978888 
L 366.866212 212.02885 
L 368.318155 211.771028 
L 369.044127 210.955094 
L 369.770099 211.902687 
L 370.49607 212.034156 
L 371.222042 211.629467 
L 371.948014 211.898361 
L 372.673985 212.298894 
L 373.399957 211.61051 
L 374.8519 211.73159 
L 375.577872 211.69539 
L 376.303844 211.90488 
L 377.029816 213.161537 
L 377.755787 211.534194 
L 378.481759 211.697729 
L 379.207731 211.659212 
L 379.933702 193.60417 
L 380.659674 211.564857 
L 381.385646 211.950871 
L 382.111617 211.057036 
L 382.837589 211.94005 
L 384.289533 211.749665 
L 385.015504 212.01742 
L 385.741476 211.530232 
L 386.467448 211.976231 
L 387.193419 211.17459 
L 387.919391 211.719463 
L 389.371335 211.803349 
L 390.823278 211.480109 
L 391.54925 211.980154 
L 392.275221 211.475751 
L 393.001193 211.540918 
L 393.727165 211.730596 
L 394.453136 211.249344 
L 395.179108 211.70317 
L 395.90508 211.786955 
L 396.631052 212.021113 
L 397.357023 211.608557 
L 398.082995 212.216468 
L 398.808967 211.821799 
L 400.26091 212.087122 
L 402.438825 211.346883 
L 403.164797 210.761059 
L 403.890769 211.58917 
L 404.61674 211.684258 
L 405.342712 217.701218 
L 406.068684 212.047661 
L 406.794655 211.557084 
L 407.520627 211.343898 
L 408.246599 212.249844 
L 408.97257 212.183607 
L 409.698542 211.276366 
L 410.424514 213.618656 
L 411.150486 211.806807 
L 411.876457 211.209741 
L 413.328401 212.242177 
L 414.054372 211.800695 
L 415.506316 211.532615 
L 416.232288 211.195947 
L 416.958259 211.948416 
L 417.684231 211.357746 
L 418.410203 212.198967 
L 419.136174 211.300368 
L 419.862146 211.902717 
L 420.588118 211.297201 
L 421.314089 211.71206 
L 422.040061 211.890954 
L 422.766033 211.323905 
L 423.492005 211.443566 
L 424.217976 213.371124 
L 424.943948 212.048801 
L 426.395891 211.90252 
L 427.121863 212.025467 
L 427.847835 211.516328 
L 428.573806 212.118699 
L 429.299778 211.536277 
L 430.751722 211.505355 
L 431.477693 211.763501 
L 432.203665 211.55415 
L 432.929637 211.873242 
L 433.655608 211.485802 
L 434.38158 211.4296 
L 435.107552 211.829937 
L 435.833523 211.490631 
L 436.559495 210.97116 
L 437.285467 211.672801 
L 438.011439 212.058681 
L 438.73741 210.992248 
L 439.463382 212.344728 
L 440.189354 215.246322 
L 440.915325 212.373605 
L 441.641297 210.162589 
L 442.367269 213.937287 
L 443.093241 211.679548 
L 443.819212 211.857598 
L 444.545184 211.443432 
L 445.271156 211.527638 
L 445.997127 211.438163 
L 446.723099 210.487489 
L 447.449071 211.547349 
L 448.175042 211.469471 
L 448.901014 211.593953 
L 450.352958 211.500741 
L 451.804901 211.632801 
L 452.530873 211.825758 
L 453.256844 211.524598 
L 453.982816 212.68054 
L 454.708788 211.606938 
L 456.160731 211.717805 
L 456.886703 211.442597 
L 458.338646 211.989915 
L 459.064618 213.265785 
L 459.79059 211.517194 
L 462.694476 211.625081 
L 463.420448 211.927825 
L 464.14642 210.486976 
L 464.872392 211.718068 
L 465.598363 211.549748 
L 466.324335 211.893655 
L 467.050307 211.71128 
L 467.776278 211.81287 
L 467.776278 211.81287 
" style="fill:none;stroke:#2ca02c;stroke-linecap:square;stroke-width:1.5;"/>
   </g>
   <g id="line2d_4">
    <path clip-path="url(#p96a52abf1e)" d="M 61.958097 211.55551 
L 467.776278 211.55551 
L 467.776278 211.55551 
" style="fill:none;stroke:#000000;stroke-dasharray:3.7,1.6;stroke-dashoffset:0;"/>
   </g>
   <g id="matplotlib.axis_1">
    <g id="xtick_1">
     <g id="line2d_5">
      <defs>
       <path d="M 0 0 
L 0 3.5 
" id="m32d0f1b639" style="stroke:#000000;stroke-width:0.8;"/>
      </defs>
      <g>
       <use style="stroke:#000000;stroke-width:0.8;" x="83.011276" xlink:href="#m32d0f1b639" y="294.118125"/>
      </g>
     </g>
     <g id="text_1">
      <!-- 100 -->
      <defs>
       <path d="M 12.40625 8.296875 
L 28.515625 8.296875 
L 28.515625 63.921875 
L 10.984375 60.40625 
L 10.984375 69.390625 
L 28.421875 72.90625 
L 38.28125 72.90625 
L 38.28125 8.296875 
L 54.390625 8.296875 
L 54.390625 0 
L 12.40625 0 
z
" id="DejaVuSans-49"/>
       <path d="M 31.78125 66.40625 
Q 24.171875 66.40625 20.328125 58.90625 
Q 16.5 51.421875 16.5 36.375 
Q 16.5 21.390625 20.328125 13.890625 
Q 24.171875 6.390625 31.78125 6.390625 
Q 39.453125 6.390625 43.28125 13.890625 
Q 47.125 21.390625 47.125 36.375 
Q 47.125 51.421875 43.28125 58.90625 
Q 39.453125 66.40625 31.78125 66.40625 
z
M 31.78125 74.21875 
Q 44.046875 74.21875 50.515625 64.515625 
Q 56.984375 54.828125 56.984375 36.375 
Q 56.984375 17.96875 50.515625 8.265625 
Q 44.046875 -1.421875 31.78125 -1.421875 
Q 19.53125 -1.421875 13.0625 8.265625 
Q 6.59375 17.96875 6.59375 36.375 
Q 6.59375 54.828125 13.0625 64.515625 
Q 19.53125 74.21875 31.78125 74.21875 
z
" id="DejaVuSans-48"/>
      </defs>
      <g transform="translate(73.467526 308.716563)scale(0.1 -0.1)">
       <use xlink:href="#DejaVuSans-49"/>
       <use x="63.623047" xlink:href="#DejaVuSans-48"/>
       <use x="127.246094" xlink:href="#DejaVuSans-48"/>
      </g>
     </g>
    </g>
    <g id="xtick_2">
     <g id="line2d_6">
      <g>
       <use style="stroke:#000000;stroke-width:0.8;" x="155.608446" xlink:href="#m32d0f1b639" y="294.118125"/>
      </g>
     </g>
     <g id="text_2">
      <!-- 200 -->
      <defs>
       <path d="M 19.1875 8.296875 
L 53.609375 8.296875 
L 53.609375 0 
L 7.328125 0 
L 7.328125 8.296875 
Q 12.9375 14.109375 22.625 23.890625 
Q 32.328125 33.6875 34.8125 36.53125 
Q 39.546875 41.84375 41.421875 45.53125 
Q 43.3125 49.21875 43.3125 52.78125 
Q 43.3125 58.59375 39.234375 62.25 
Q 35.15625 65.921875 28.609375 65.921875 
Q 23.96875 65.921875 18.8125 64.3125 
Q 13.671875 62.703125 7.8125 59.421875 
L 7.8125 69.390625 
Q 13.765625 71.78125 18.9375 73 
Q 24.125 74.21875 28.421875 74.21875 
Q 39.75 74.21875 46.484375 68.546875 
Q 53.21875 62.890625 53.21875 53.421875 
Q 53.21875 48.921875 51.53125 44.890625 
Q 49.859375 40.875 45.40625 35.40625 
Q 44.1875 33.984375 37.640625 27.21875 
Q 31.109375 20.453125 19.1875 8.296875 
z
" id="DejaVuSans-50"/>
      </defs>
      <g transform="translate(146.064696 308.716563)scale(0.1 -0.1)">
       <use xlink:href="#DejaVuSans-50"/>
       <use x="63.623047" xlink:href="#DejaVuSans-48"/>
       <use x="127.246094" xlink:href="#DejaVuSans-48"/>
      </g>
     </g>
    </g>
    <g id="xtick_3">
     <g id="line2d_7">
      <g>
       <use style="stroke:#000000;stroke-width:0.8;" x="228.205617" xlink:href="#m32d0f1b639" y="294.118125"/>
      </g>
     </g>
     <g id="text_3">
      <!-- 300 -->
      <defs>
       <path d="M 40.578125 39.3125 
Q 47.65625 37.796875 51.625 33 
Q 55.609375 28.21875 55.609375 21.1875 
Q 55.609375 10.40625 48.1875 4.484375 
Q 40.765625 -1.421875 27.09375 -1.421875 
Q 22.515625 -1.421875 17.65625 -0.515625 
Q 12.796875 0.390625 7.625 2.203125 
L 7.625 11.71875 
Q 11.71875 9.328125 16.59375 8.109375 
Q 21.484375 6.890625 26.8125 6.890625 
Q 36.078125 6.890625 40.9375 10.546875 
Q 45.796875 14.203125 45.796875 21.1875 
Q 45.796875 27.640625 41.28125 31.265625 
Q 36.765625 34.90625 28.71875 34.90625 
L 20.21875 34.90625 
L 20.21875 43.015625 
L 29.109375 43.015625 
Q 36.375 43.015625 40.234375 45.921875 
Q 44.09375 48.828125 44.09375 54.296875 
Q 44.09375 59.90625 40.109375 62.90625 
Q 36.140625 65.921875 28.71875 65.921875 
Q 24.65625 65.921875 20.015625 65.03125 
Q 15.375 64.15625 9.8125 62.3125 
L 9.8125 71.09375 
Q 15.4375 72.65625 20.34375 73.4375 
Q 25.25 74.21875 29.59375 74.21875 
Q 40.828125 74.21875 47.359375 69.109375 
Q 53.90625 64.015625 53.90625 55.328125 
Q 53.90625 49.265625 50.4375 45.09375 
Q 46.96875 40.921875 40.578125 39.3125 
z
" id="DejaVuSans-51"/>
      </defs>
      <g transform="translate(218.661867 308.716563)scale(0.1 -0.1)">
       <use xlink:href="#DejaVuSans-51"/>
       <use x="63.623047" xlink:href="#DejaVuSans-48"/>
       <use x="127.246094" xlink:href="#DejaVuSans-48"/>
      </g>
     </g>
    </g>
    <g id="xtick_4">
     <g id="line2d_8">
      <g>
       <use style="stroke:#000000;stroke-width:0.8;" x="300.802787" xlink:href="#m32d0f1b639" y="294.118125"/>
      </g>
     </g>
     <g id="text_4">
      <!-- 400 -->
      <defs>
       <path d="M 37.796875 64.3125 
L 12.890625 25.390625 
L 37.796875 25.390625 
z
M 35.203125 72.90625 
L 47.609375 72.90625 
L 47.609375 25.390625 
L 58.015625 25.390625 
L 58.015625 17.1875 
L 47.609375 17.1875 
L 47.609375 0 
L 37.796875 0 
L 37.796875 17.1875 
L 4.890625 17.1875 
L 4.890625 26.703125 
z
" id="DejaVuSans-52"/>
      </defs>
      <g transform="translate(291.259037 308.716563)scale(0.1 -0.1)">
       <use xlink:href="#DejaVuSans-52"/>
       <use x="63.623047" xlink:href="#DejaVuSans-48"/>
       <use x="127.246094" xlink:href="#DejaVuSans-48"/>
      </g>
     </g>
    </g>
    <g id="xtick_5">
     <g id="line2d_9">
      <g>
       <use style="stroke:#000000;stroke-width:0.8;" x="373.399957" xlink:href="#m32d0f1b639" y="294.118125"/>
      </g>
     </g>
     <g id="text_5">
      <!-- 500 -->
      <defs>
       <path d="M 10.796875 72.90625 
L 49.515625 72.90625 
L 49.515625 64.59375 
L 19.828125 64.59375 
L 19.828125 46.734375 
Q 21.96875 47.46875 24.109375 47.828125 
Q 26.265625 48.1875 28.421875 48.1875 
Q 40.625 48.1875 47.75 41.5 
Q 54.890625 34.8125 54.890625 23.390625 
Q 54.890625 11.625 47.5625 5.09375 
Q 40.234375 -1.421875 26.90625 -1.421875 
Q 22.3125 -1.421875 17.546875 -0.640625 
Q 12.796875 0.140625 7.71875 1.703125 
L 7.71875 11.625 
Q 12.109375 9.234375 16.796875 8.0625 
Q 21.484375 6.890625 26.703125 6.890625 
Q 35.15625 6.890625 40.078125 11.328125 
Q 45.015625 15.765625 45.015625 23.390625 
Q 45.015625 31 40.078125 35.4375 
Q 35.15625 39.890625 26.703125 39.890625 
Q 22.75 39.890625 18.8125 39.015625 
Q 14.890625 38.140625 10.796875 36.28125 
z
" id="DejaVuSans-53"/>
      </defs>
      <g transform="translate(363.856207 308.716563)scale(0.1 -0.1)">
       <use xlink:href="#DejaVuSans-53"/>
       <use x="63.623047" xlink:href="#DejaVuSans-48"/>
       <use x="127.246094" xlink:href="#DejaVuSans-48"/>
      </g>
     </g>
    </g>
    <g id="xtick_6">
     <g id="line2d_10">
      <g>
       <use style="stroke:#000000;stroke-width:0.8;" x="445.997127" xlink:href="#m32d0f1b639" y="294.118125"/>
      </g>
     </g>
     <g id="text_6">
      <!-- 600 -->
      <defs>
       <path d="M 33.015625 40.375 
Q 26.375 40.375 22.484375 35.828125 
Q 18.609375 31.296875 18.609375 23.390625 
Q 18.609375 15.53125 22.484375 10.953125 
Q 26.375 6.390625 33.015625 6.390625 
Q 39.65625 6.390625 43.53125 10.953125 
Q 47.40625 15.53125 47.40625 23.390625 
Q 47.40625 31.296875 43.53125 35.828125 
Q 39.65625 40.375 33.015625 40.375 
z
M 52.59375 71.296875 
L 52.59375 62.3125 
Q 48.875 64.0625 45.09375 64.984375 
Q 41.3125 65.921875 37.59375 65.921875 
Q 27.828125 65.921875 22.671875 59.328125 
Q 17.53125 52.734375 16.796875 39.40625 
Q 19.671875 43.65625 24.015625 45.921875 
Q 28.375 48.1875 33.59375 48.1875 
Q 44.578125 48.1875 50.953125 41.515625 
Q 57.328125 34.859375 57.328125 23.390625 
Q 57.328125 12.15625 50.6875 5.359375 
Q 44.046875 -1.421875 33.015625 -1.421875 
Q 20.359375 -1.421875 13.671875 8.265625 
Q 6.984375 17.96875 6.984375 36.375 
Q 6.984375 53.65625 15.1875 63.9375 
Q 23.390625 74.21875 37.203125 74.21875 
Q 40.921875 74.21875 44.703125 73.484375 
Q 48.484375 72.75 52.59375 71.296875 
z
" id="DejaVuSans-54"/>
      </defs>
      <g transform="translate(436.453377 308.716563)scale(0.1 -0.1)">
       <use xlink:href="#DejaVuSans-54"/>
       <use x="63.623047" xlink:href="#DejaVuSans-48"/>
       <use x="127.246094" xlink:href="#DejaVuSans-48"/>
      </g>
     </g>
    </g>
    <g id="text_7">
     <!-- Tempo -->
     <defs>
      <path d="M -0.296875 72.90625 
L 61.375 72.90625 
L 61.375 64.59375 
L 35.5 64.59375 
L 35.5 0 
L 25.59375 0 
L 25.59375 64.59375 
L -0.296875 64.59375 
z
" id="DejaVuSans-84"/>
      <path d="M 56.203125 29.59375 
L 56.203125 25.203125 
L 14.890625 25.203125 
Q 15.484375 15.921875 20.484375 11.0625 
Q 25.484375 6.203125 34.421875 6.203125 
Q 39.59375 6.203125 44.453125 7.46875 
Q 49.3125 8.734375 54.109375 11.28125 
L 54.109375 2.78125 
Q 49.265625 0.734375 44.1875 -0.34375 
Q 39.109375 -1.421875 33.890625 -1.421875 
Q 20.796875 -1.421875 13.15625 6.1875 
Q 5.515625 13.8125 5.515625 26.8125 
Q 5.515625 40.234375 12.765625 48.109375 
Q 20.015625 56 32.328125 56 
Q 43.359375 56 49.78125 48.890625 
Q 56.203125 41.796875 56.203125 29.59375 
z
M 47.21875 32.234375 
Q 47.125 39.59375 43.09375 43.984375 
Q 39.0625 48.390625 32.421875 48.390625 
Q 24.90625 48.390625 20.390625 44.140625 
Q 15.875 39.890625 15.1875 32.171875 
z
" id="DejaVuSans-101"/>
      <path d="M 52 44.1875 
Q 55.375 50.25 60.0625 53.125 
Q 64.75 56 71.09375 56 
Q 79.640625 56 84.28125 50.015625 
Q 88.921875 44.046875 88.921875 33.015625 
L 88.921875 0 
L 79.890625 0 
L 79.890625 32.71875 
Q 79.890625 40.578125 77.09375 44.375 
Q 74.3125 48.1875 68.609375 48.1875 
Q 61.625 48.1875 57.5625 43.546875 
Q 53.515625 38.921875 53.515625 30.90625 
L 53.515625 0 
L 44.484375 0 
L 44.484375 32.71875 
Q 44.484375 40.625 41.703125 44.40625 
Q 38.921875 48.1875 33.109375 48.1875 
Q 26.21875 48.1875 22.15625 43.53125 
Q 18.109375 38.875 18.109375 30.90625 
L 18.109375 0 
L 9.078125 0 
L 9.078125 54.6875 
L 18.109375 54.6875 
L 18.109375 46.1875 
Q 21.1875 51.21875 25.484375 53.609375 
Q 29.78125 56 35.6875 56 
Q 41.65625 56 45.828125 52.96875 
Q 50 49.953125 52 44.1875 
z
" id="DejaVuSans-109"/>
      <path d="M 18.109375 8.203125 
L 18.109375 -20.796875 
L 9.078125 -20.796875 
L 9.078125 54.6875 
L 18.109375 54.6875 
L 18.109375 46.390625 
Q 20.953125 51.265625 25.265625 53.625 
Q 29.59375 56 35.59375 56 
Q 45.5625 56 51.78125 48.09375 
Q 58.015625 40.1875 58.015625 27.296875 
Q 58.015625 14.40625 51.78125 6.484375 
Q 45.5625 -1.421875 35.59375 -1.421875 
Q 29.59375 -1.421875 25.265625 0.953125 
Q 20.953125 3.328125 18.109375 8.203125 
z
M 48.6875 27.296875 
Q 48.6875 37.203125 44.609375 42.84375 
Q 40.53125 48.484375 33.40625 48.484375 
Q 26.265625 48.484375 22.1875 42.84375 
Q 18.109375 37.203125 18.109375 27.296875 
Q 18.109375 17.390625 22.1875 11.75 
Q 26.265625 6.109375 33.40625 6.109375 
Q 40.53125 6.109375 44.609375 11.75 
Q 48.6875 17.390625 48.6875 27.296875 
z
" id="DejaVuSans-112"/>
      <path d="M 30.609375 48.390625 
Q 23.390625 48.390625 19.1875 42.75 
Q 14.984375 37.109375 14.984375 27.296875 
Q 14.984375 17.484375 19.15625 11.84375 
Q 23.34375 6.203125 30.609375 6.203125 
Q 37.796875 6.203125 41.984375 11.859375 
Q 46.1875 17.53125 46.1875 27.296875 
Q 46.1875 37.015625 41.984375 42.703125 
Q 37.796875 48.390625 30.609375 48.390625 
z
M 30.609375 56 
Q 42.328125 56 49.015625 48.375 
Q 55.71875 40.765625 55.71875 27.296875 
Q 55.71875 13.875 49.015625 6.21875 
Q 42.328125 -1.421875 30.609375 -1.421875 
Q 18.84375 -1.421875 12.171875 6.21875 
Q 5.515625 13.875 5.515625 27.296875 
Q 5.515625 40.765625 12.171875 48.375 
Q 18.84375 56 30.609375 56 
z
" id="DejaVuSans-111"/>
     </defs>
     <g transform="translate(248.482812 322.394687)scale(0.1 -0.1)">
      <use xlink:href="#DejaVuSans-84"/>
      <use x="44.083984" xlink:href="#DejaVuSans-101"/>
      <use x="105.607422" xlink:href="#DejaVuSans-109"/>
      <use x="203.019531" xlink:href="#DejaVuSans-112"/>
      <use x="266.496094" xlink:href="#DejaVuSans-111"/>
     </g>
    </g>
   </g>
   <g id="matplotlib.axis_2">
    <g id="ytick_1">
     <g id="line2d_11">
      <defs>
       <path d="M 0 0 
L -3.5 0 
" id="md44108cf78" style="stroke:#000000;stroke-width:0.8;"/>
      </defs>
      <g>
       <use style="stroke:#000000;stroke-width:0.8;" x="41.667187" xlink:href="#md44108cf78" y="267.380378"/>
      </g>
     </g>
     <g id="text_8">
      <!-- 200 -->
      <defs>
       <path d="M 10.59375 35.5 
L 73.1875 35.5 
L 73.1875 27.203125 
L 10.59375 27.203125 
z
" id="DejaVuSans-8722"/>
      </defs>
      <g transform="translate(7.2 271.179596)scale(0.1 -0.1)">
       <use xlink:href="#DejaVuSans-8722"/>
       <use x="83.789062" xlink:href="#DejaVuSans-50"/>
       <use x="147.412109" xlink:href="#DejaVuSans-48"/>
       <use x="211.035156" xlink:href="#DejaVuSans-48"/>
      </g>
     </g>
    </g>
    <g id="ytick_2">
     <g id="line2d_12">
      <g>
       <use style="stroke:#000000;stroke-width:0.8;" x="41.667187" xlink:href="#md44108cf78" y="211.55551"/>
      </g>
     </g>
     <g id="text_9">
      <!-- 0 -->
      <g transform="translate(28.304687 215.354728)scale(0.1 -0.1)">
       <use xlink:href="#DejaVuSans-48"/>
      </g>
     </g>
    </g>
    <g id="ytick_3">
     <g id="line2d_13">
      <g>
       <use style="stroke:#000000;stroke-width:0.8;" x="41.667187" xlink:href="#md44108cf78" y="155.730642"/>
      </g>
     </g>
     <g id="text_10">
      <!-- 200 -->
      <g transform="translate(15.579687 159.52986)scale(0.1 -0.1)">
       <use xlink:href="#DejaVuSans-50"/>
       <use x="63.623047" xlink:href="#DejaVuSans-48"/>
       <use x="127.246094" xlink:href="#DejaVuSans-48"/>
      </g>
     </g>
    </g>
    <g id="ytick_4">
     <g id="line2d_14">
      <g>
       <use style="stroke:#000000;stroke-width:0.8;" x="41.667187" xlink:href="#md44108cf78" y="99.905774"/>
      </g>
     </g>
     <g id="text_11">
      <!-- 400 -->
      <g transform="translate(15.579687 103.704992)scale(0.1 -0.1)">
       <use xlink:href="#DejaVuSans-52"/>
       <use x="63.623047" xlink:href="#DejaVuSans-48"/>
       <use x="127.246094" xlink:href="#DejaVuSans-48"/>
      </g>
     </g>
    </g>
    <g id="ytick_5">
     <g id="line2d_15">
      <g>
       <use style="stroke:#000000;stroke-width:0.8;" x="41.667187" xlink:href="#md44108cf78" y="44.080905"/>
      </g>
     </g>
     <g id="text_12">
      <!-- 600 -->
      <g transform="translate(15.579687 47.880124)scale(0.1 -0.1)">
       <use xlink:href="#DejaVuSans-54"/>
       <use x="63.623047" xlink:href="#DejaVuSans-48"/>
       <use x="127.246094" xlink:href="#DejaVuSans-48"/>
      </g>
     </g>
    </g>
   </g>
   <g id="patch_3">
    <path d="M 41.667187 294.118125 
L 41.667187 22.318125 
" style="fill:none;stroke:#000000;stroke-linecap:square;stroke-linejoin:miter;stroke-width:0.8;"/>
   </g>
   <g id="patch_4">
    <path d="M 41.667187 294.118125 
L 488.067187 294.118125 
" style="fill:none;stroke:#000000;stroke-linecap:square;stroke-linejoin:miter;stroke-width:0.8;"/>
   </g>
   <g id="text_13">
    <!-- Gini_aTax -->
    <defs>
     <path d="M 59.515625 10.40625 
L 59.515625 29.984375 
L 43.40625 29.984375 
L 43.40625 38.09375 
L 69.28125 38.09375 
L 69.28125 6.78125 
Q 63.578125 2.734375 56.6875 0.65625 
Q 49.8125 -1.421875 42 -1.421875 
Q 24.90625 -1.421875 15.25 8.5625 
Q 5.609375 18.5625 5.609375 36.375 
Q 5.609375 54.25 15.25 64.234375 
Q 24.90625 74.21875 42 74.21875 
Q 49.125 74.21875 55.546875 72.453125 
Q 61.96875 70.703125 67.390625 67.28125 
L 67.390625 56.78125 
Q 61.921875 61.421875 55.765625 63.765625 
Q 49.609375 66.109375 42.828125 66.109375 
Q 29.4375 66.109375 22.71875 58.640625 
Q 16.015625 51.171875 16.015625 36.375 
Q 16.015625 21.625 22.71875 14.15625 
Q 29.4375 6.6875 42.828125 6.6875 
Q 48.046875 6.6875 52.140625 7.59375 
Q 56.25 8.5 59.515625 10.40625 
z
" id="DejaVuSans-71"/>
     <path d="M 9.421875 54.6875 
L 18.40625 54.6875 
L 18.40625 0 
L 9.421875 0 
z
M 9.421875 75.984375 
L 18.40625 75.984375 
L 18.40625 64.59375 
L 9.421875 64.59375 
z
" id="DejaVuSans-105"/>
     <path d="M 54.890625 33.015625 
L 54.890625 0 
L 45.90625 0 
L 45.90625 32.71875 
Q 45.90625 40.484375 42.875 44.328125 
Q 39.84375 48.1875 33.796875 48.1875 
Q 26.515625 48.1875 22.3125 43.546875 
Q 18.109375 38.921875 18.109375 30.90625 
L 18.109375 0 
L 9.078125 0 
L 9.078125 54.6875 
L 18.109375 54.6875 
L 18.109375 46.1875 
Q 21.34375 51.125 25.703125 53.5625 
Q 30.078125 56 35.796875 56 
Q 45.21875 56 50.046875 50.171875 
Q 54.890625 44.34375 54.890625 33.015625 
z
" id="DejaVuSans-110"/>
     <path d="M 50.984375 -16.609375 
L 50.984375 -23.578125 
L -0.984375 -23.578125 
L -0.984375 -16.609375 
z
" id="DejaVuSans-95"/>
     <path d="M 34.28125 27.484375 
Q 23.390625 27.484375 19.1875 25 
Q 14.984375 22.515625 14.984375 16.5 
Q 14.984375 11.71875 18.140625 8.90625 
Q 21.296875 6.109375 26.703125 6.109375 
Q 34.1875 6.109375 38.703125 11.40625 
Q 43.21875 16.703125 43.21875 25.484375 
L 43.21875 27.484375 
z
M 52.203125 31.203125 
L 52.203125 0 
L 43.21875 0 
L 43.21875 8.296875 
Q 40.140625 3.328125 35.546875 0.953125 
Q 30.953125 -1.421875 24.3125 -1.421875 
Q 15.921875 -1.421875 10.953125 3.296875 
Q 6 8.015625 6 15.921875 
Q 6 25.140625 12.171875 29.828125 
Q 18.359375 34.515625 30.609375 34.515625 
L 43.21875 34.515625 
L 43.21875 35.40625 
Q 43.21875 41.609375 39.140625 45 
Q 35.0625 48.390625 27.6875 48.390625 
Q 23 48.390625 18.546875 47.265625 
Q 14.109375 46.140625 10.015625 43.890625 
L 10.015625 52.203125 
Q 14.9375 54.109375 19.578125 55.046875 
Q 24.21875 56 28.609375 56 
Q 40.484375 56 46.34375 49.84375 
Q 52.203125 43.703125 52.203125 31.203125 
z
" id="DejaVuSans-97"/>
     <path d="M 54.890625 54.6875 
L 35.109375 28.078125 
L 55.90625 0 
L 45.3125 0 
L 29.390625 21.484375 
L 13.484375 0 
L 2.875 0 
L 24.125 28.609375 
L 4.6875 54.6875 
L 15.28125 54.6875 
L 29.78125 35.203125 
L 44.28125 54.6875 
z
" id="DejaVuSans-120"/>
    </defs>
    <g transform="translate(236.502187 16.318125)scale(0.12 -0.12)">
     <use xlink:href="#DejaVuSans-71"/>
     <use x="77.490234" xlink:href="#DejaVuSans-105"/>
     <use x="105.273438" xlink:href="#DejaVuSans-110"/>
     <use x="168.652344" xlink:href="#DejaVuSans-105"/>
     <use x="196.435547" xlink:href="#DejaVuSans-95"/>
     <use x="246.435547" xlink:href="#DejaVuSans-97"/>
     <use x="307.714844" xlink:href="#DejaVuSans-84"/>
     <use x="352.298828" xlink:href="#DejaVuSans-97"/>
     <use x="413.578125" xlink:href="#DejaVuSans-120"/>
    </g>
   </g>
   <g id="legend_1">
    <g id="patch_5">
     <path d="M 495.067187 190.104844 
L 569.465625 190.104844 
Q 571.465625 190.104844 571.465625 188.104844 
L 571.465625 128.331406 
Q 571.465625 126.331406 569.465625 126.331406 
L 495.067187 126.331406 
Q 493.067187 126.331406 493.067187 128.331406 
L 493.067187 188.104844 
Q 493.067187 190.104844 495.067187 190.104844 
z
" style="fill:#ffffff;opacity:0.8;stroke:#cccccc;stroke-linejoin:miter;"/>
    </g>
    <g id="line2d_16">
     <path d="M 497.067187 134.429844 
L 517.067188 134.429844 
" style="fill:none;stroke:#000000;stroke-dasharray:3.7,1.6;stroke-dashoffset:0;"/>
    </g>
    <g id="line2d_17"/>
    <g id="text_14">
     <!-- Baseline -->
     <defs>
      <path d="M 19.671875 34.8125 
L 19.671875 8.109375 
L 35.5 8.109375 
Q 43.453125 8.109375 47.28125 11.40625 
Q 51.125 14.703125 51.125 21.484375 
Q 51.125 28.328125 47.28125 31.5625 
Q 43.453125 34.8125 35.5 34.8125 
z
M 19.671875 64.796875 
L 19.671875 42.828125 
L 34.28125 42.828125 
Q 41.5 42.828125 45.03125 45.53125 
Q 48.578125 48.25 48.578125 53.8125 
Q 48.578125 59.328125 45.03125 62.0625 
Q 41.5 64.796875 34.28125 64.796875 
z
M 9.8125 72.90625 
L 35.015625 72.90625 
Q 46.296875 72.90625 52.390625 68.21875 
Q 58.5 63.53125 58.5 54.890625 
Q 58.5 48.1875 55.375 44.234375 
Q 52.25 40.28125 46.1875 39.3125 
Q 53.46875 37.75 57.5 32.78125 
Q 61.53125 27.828125 61.53125 20.40625 
Q 61.53125 10.640625 54.890625 5.3125 
Q 48.25 0 35.984375 0 
L 9.8125 0 
z
" id="DejaVuSans-66"/>
      <path d="M 44.28125 53.078125 
L 44.28125 44.578125 
Q 40.484375 46.53125 36.375 47.5 
Q 32.28125 48.484375 27.875 48.484375 
Q 21.1875 48.484375 17.84375 46.4375 
Q 14.5 44.390625 14.5 40.28125 
Q 14.5 37.15625 16.890625 35.375 
Q 19.28125 33.59375 26.515625 31.984375 
L 29.59375 31.296875 
Q 39.15625 29.25 43.1875 25.515625 
Q 47.21875 21.78125 47.21875 15.09375 
Q 47.21875 7.46875 41.1875 3.015625 
Q 35.15625 -1.421875 24.609375 -1.421875 
Q 20.21875 -1.421875 15.453125 -0.5625 
Q 10.6875 0.296875 5.421875 2 
L 5.421875 11.28125 
Q 10.40625 8.6875 15.234375 7.390625 
Q 20.0625 6.109375 24.8125 6.109375 
Q 31.15625 6.109375 34.5625 8.28125 
Q 37.984375 10.453125 37.984375 14.40625 
Q 37.984375 18.0625 35.515625 20.015625 
Q 33.0625 21.96875 24.703125 23.78125 
L 21.578125 24.515625 
Q 13.234375 26.265625 9.515625 29.90625 
Q 5.8125 33.546875 5.8125 39.890625 
Q 5.8125 47.609375 11.28125 51.796875 
Q 16.75 56 26.8125 56 
Q 31.78125 56 36.171875 55.265625 
Q 40.578125 54.546875 44.28125 53.078125 
z
" id="DejaVuSans-115"/>
      <path d="M 9.421875 75.984375 
L 18.40625 75.984375 
L 18.40625 0 
L 9.421875 0 
z
" id="DejaVuSans-108"/>
     </defs>
     <g transform="translate(525.067188 137.929844)scale(0.1 -0.1)">
      <use xlink:href="#DejaVuSans-66"/>
      <use x="68.603516" xlink:href="#DejaVuSans-97"/>
      <use x="129.882812" xlink:href="#DejaVuSans-115"/>
      <use x="181.982422" xlink:href="#DejaVuSans-101"/>
      <use x="243.505859" xlink:href="#DejaVuSans-108"/>
      <use x="271.289062" xlink:href="#DejaVuSans-105"/>
      <use x="299.072266" xlink:href="#DejaVuSans-110"/>
      <use x="362.451172" xlink:href="#DejaVuSans-101"/>
     </g>
    </g>
    <g id="line2d_18">
     <path d="M 497.067187 149.107969 
L 517.067188 149.107969 
" style="fill:none;stroke:#1f77b4;stroke-linecap:square;stroke-width:1.5;"/>
    </g>
    <g id="line2d_19"/>
    <g id="text_15">
     <!-- $\Downarrow \sigma_\psi$ -->
     <defs>
      <path d="M 36.765625 14.3125 
L 41.9375 9.234375 
L 47.015625 14.3125 
L 47.015625 72.90625 
L 52.875 72.90625 
L 52.875 20.171875 
L 57.46875 24.75 
L 63.328125 18.890625 
L 44.09375 -0.34375 
L 39.703125 -0.34375 
L 20.5625 18.890625 
L 26.421875 24.75 
L 30.90625 20.171875 
L 30.90625 72.90625 
L 36.765625 72.90625 
z
" id="DejaVuSans-8659"/>
      <path d="M 34.671875 47.5625 
Q 27.25 47.5625 22.21875 42.1875 
Q 16.890625 36.578125 15.140625 27.296875 
Q 13.1875 17.484375 16.3125 11.8125 
Q 19.390625 6.203125 26.65625 6.203125 
Q 33.84375 6.203125 39.109375 11.859375 
Q 44.4375 17.53125 46.34375 27.296875 
Q 48.046875 36.234375 45.015625 42.1875 
Q 42.1875 47.5625 34.671875 47.5625 
z
M 36.078125 54.734375 
L 65.921875 54.6875 
L 64.15625 45.703125 
L 54.109375 45.703125 
Q 57.90625 38.09375 55.859375 27.296875 
Q 53.21875 13.875 45.0625 6.25 
Q 36.859375 -1.421875 25.140625 -1.421875 
Q 13.375 -1.421875 8.203125 6.25 
Q 3.03125 13.875 5.671875 27.296875 
Q 8.25 40.765625 16.40625 48.390625 
Q 23.1875 54.734375 36.078125 54.734375 
z
" id="DejaVuSans-Oblique-963"/>
      <path d="M 24.859375 -1.21875 
Q 13.921875 0.59375 9.625 5.328125 
Q 4.34375 11.140625 6.640625 23 
L 12.796875 54.6875 
L 21.875 54.6875 
L 15.765625 23.34375 
Q 14.0625 14.40625 17.484375 10.6875 
Q 20.515625 7.46875 26.421875 6.78125 
L 35.6875 54.6875 
L 44.625 54.6875 
L 35.359375 6.84375 
Q 41.890625 7.515625 45.75 10.75 
Q 50.734375 14.84375 52.390625 23.390625 
L 58.453125 54.6875 
L 67.53125 54.6875 
L 61.375 23.046875 
Q 58.984375 10.75 51.5625 5.375 
Q 44.875 0.53125 33.796875 -1.171875 
L 29.984375 -20.796875 
L 21.046875 -20.796875 
z
" id="DejaVuSans-Oblique-968"/>
     </defs>
     <g transform="translate(525.067188 152.607969)scale(0.1 -0.1)">
      <use transform="translate(19.482422 0.09375)" xlink:href="#DejaVuSans-8659"/>
      <use transform="translate(122.753906 0.09375)" xlink:href="#DejaVuSans-Oblique-963"/>
      <use transform="translate(186.132812 -16.3125)scale(0.7)" xlink:href="#DejaVuSans-Oblique-968"/>
     </g>
    </g>
    <g id="line2d_20">
     <path d="M 497.067187 164.806406 
L 517.067188 164.806406 
" style="fill:none;stroke:#ff7f0e;stroke-linecap:square;stroke-width:1.5;"/>
    </g>
    <g id="line2d_21"/>
    <g id="text_16">
     <!-- $\Downarrow s_\psi$ -->
     <defs>
      <path d="M 50 53.078125 
L 48.296875 44.578125 
Q 44.734375 46.53125 40.765625 47.5 
Q 36.8125 48.484375 32.625 48.484375 
Q 25.53125 48.484375 21.453125 46.0625 
Q 17.390625 43.65625 17.390625 39.5 
Q 17.390625 34.671875 26.859375 32.078125 
Q 27.59375 31.890625 27.9375 31.78125 
L 30.8125 30.90625 
Q 39.796875 28.421875 42.796875 25.6875 
Q 45.796875 22.953125 45.796875 18.21875 
Q 45.796875 9.515625 38.890625 4.046875 
Q 31.984375 -1.421875 20.796875 -1.421875 
Q 16.453125 -1.421875 11.671875 -0.578125 
Q 6.890625 0.25 1.125 2 
L 2.875 11.28125 
Q 7.8125 8.734375 12.59375 7.421875 
Q 17.390625 6.109375 21.78125 6.109375 
Q 28.375 6.109375 32.5 8.9375 
Q 36.625 11.765625 36.625 16.109375 
Q 36.625 20.796875 25.78125 23.6875 
L 24.859375 23.921875 
L 21.78125 24.703125 
Q 14.9375 26.515625 11.765625 29.46875 
Q 8.59375 32.421875 8.59375 37.015625 
Q 8.59375 45.75 15.15625 50.875 
Q 21.734375 56 33.015625 56 
Q 37.453125 56 41.671875 55.265625 
Q 45.90625 54.546875 50 53.078125 
z
" id="DejaVuSans-Oblique-115"/>
     </defs>
     <g transform="translate(525.067188 168.306406)scale(0.1 -0.1)">
      <use transform="translate(19.482422 0.09375)" xlink:href="#DejaVuSans-8659"/>
      <use transform="translate(122.753906 0.09375)" xlink:href="#DejaVuSans-Oblique-115"/>
      <use transform="translate(174.853516 -16.3125)scale(0.7)" xlink:href="#DejaVuSans-Oblique-968"/>
     </g>
    </g>
    <g id="line2d_22">
     <path d="M 497.067187 180.504844 
L 517.067188 180.504844 
" style="fill:none;stroke:#2ca02c;stroke-linecap:square;stroke-width:1.5;"/>
    </g>
    <g id="line2d_23"/>
    <g id="text_17">
     <!-- $\Uparrow \eta$ -->
     <defs>
      <path d="M 36.765625 58.59375 
L 36.765625 0 
L 30.90625 0 
L 30.90625 52.734375 
L 26.421875 48.140625 
L 20.5625 54 
L 39.703125 73.25 
L 44.09375 73.25 
L 63.328125 54 
L 57.46875 48.140625 
L 52.875 52.734375 
L 52.875 0 
L 47.015625 0 
L 47.015625 58.59375 
L 41.9375 63.671875 
z
" id="DejaVuSans-8657"/>
      <path d="M 57.859375 33.015625 
L 47.40625 -20.796875 
L 38.421875 -20.796875 
L 48.828125 32.71875 
Q 50.34375 40.484375 48.046875 44.34375 
Q 45.796875 48.1875 39.75 48.1875 
Q 32.46875 48.1875 27.34375 43.5625 
Q 22.265625 38.921875 20.703125 30.90625 
L 14.703125 0 
L 5.671875 0 
L 16.3125 54.6875 
L 25.34375 54.6875 
L 23.6875 46.1875 
Q 27.828125 51.125 32.71875 53.5625 
Q 37.546875 56 43.265625 56 
Q 52.6875 56 56.390625 50.203125 
Q 60.0625 44.34375 57.859375 33.015625 
z
" id="DejaVuSans-Oblique-951"/>
     </defs>
     <g transform="translate(525.067188 184.004844)scale(0.1 -0.1)">
      <use transform="translate(19.482422 0.75)" xlink:href="#DejaVuSans-8657"/>
      <use transform="translate(122.753906 0.75)" xlink:href="#DejaVuSans-Oblique-951"/>
     </g>
    </g>
   </g>
  </g>
 </g>
 <defs>
  <clipPath id="p96a52abf1e">
   <rect height="271.8" width="446.4" x="41.667187" y="22.318125"/>
  </clipPath>
 </defs>
</svg>
