<?xml version="1.0" encoding="utf-8" standalone="no"?>
<!DOCTYPE svg PUBLIC "-//W3C//DTD SVG 1.1//EN"
  "http://www.w3.org/Graphics/SVG/1.1/DTD/svg11.dtd">
<!-- Created with matplotlib (https://matplotlib.org/) -->
<svg height="331.674375pt" version="1.1" viewBox="0 0 570.285937 331.674375" width="570.285937pt" xmlns="http://www.w3.org/2000/svg" xmlns:xlink="http://www.w3.org/1999/xlink">
 <defs>
  <style type="text/css">
*{stroke-linecap:butt;stroke-linejoin:round;}
  </style>
 </defs>
 <g id="figure_1">
  <g id="patch_1">
   <path d="M 0 331.674375 
L 570.285937 331.674375 
L 570.285937 0 
L 0 0 
z
" style="fill:#ffffff;"/>
  </g>
  <g id="axes_1">
   <g id="patch_2">
    <path d="M 33.2875 294.118125 
L 479.6875 294.118125 
L 479.6875 22.318125 
L 33.2875 22.318125 
z
" style="fill:#ffffff;"/>
   </g>
   <g id="line2d_1">
    <path clip-path="url(#p097b5a6cf4)" d="M 53.578409 260.689491 
L 54.304381 257.570278 
L 55.030352 189.640398 
L 55.756324 212.10048 
L 56.482296 253.555696 
L 57.208268 261.536532 
L 57.934239 266.562493 
L 58.660211 260.357473 
L 59.386183 245.070472 
L 60.112154 263.02822 
L 60.838126 201.400051 
L 61.564098 195.054399 
L 62.29007 270.237101 
L 63.016041 254.156595 
L 63.742013 202.598221 
L 64.467985 163.628202 
L 65.193956 206.445476 
L 65.919928 199.683226 
L 66.6459 190.953259 
L 67.371871 190.751163 
L 68.097843 98.82692 
L 68.823815 242.857151 
L 69.549787 194.014436 
L 70.275758 196.378514 
L 71.00173 256.004345 
L 71.727702 248.837574 
L 72.453673 250.427947 
L 73.179645 260.359219 
L 73.905617 196.309929 
L 74.631588 206.299224 
L 75.35756 193.700338 
L 76.083532 99.939747 
L 76.809504 148.379023 
L 77.535475 175.149436 
L 78.261447 238.752655 
L 78.987419 260.063613 
L 79.71339 266.253536 
L 80.439362 202.340905 
L 81.165334 127.151498 
L 81.891305 146.47865 
L 82.617277 188.868788 
L 83.343249 191.036948 
L 84.069221 130.783394 
L 84.795192 228.934646 
L 85.521164 250.67805 
L 86.247136 188.072147 
L 86.973107 138.367624 
L 87.699079 119.855197 
L 88.425051 140.224175 
L 89.151023 224.523896 
L 89.876994 167.0946 
L 90.602966 129.419472 
L 91.328938 200.844566 
L 92.054909 192.836634 
L 92.780881 152.356348 
L 93.506853 163.856186 
L 94.232824 215.873238 
L 94.958796 255.325649 
L 95.684768 250.919614 
L 96.41074 253.87465 
L 97.136711 260.63399 
L 97.862683 250.375526 
L 98.588655 178.838957 
L 99.314626 140.035806 
L 100.040598 155.120842 
L 100.76657 219.575299 
L 101.492541 253.334042 
L 102.218513 253.142865 
L 102.944485 269.204688 
L 103.670457 267.270799 
L 104.396428 266.042661 
L 105.1224 268.998416 
L 105.848372 202.808622 
L 106.574343 204.285895 
L 107.300315 253.919302 
L 108.026287 273.243957 
L 108.752258 272.293395 
L 109.47823 245.510984 
L 110.204202 229.341339 
L 110.930174 257.254161 
L 111.656145 236.482454 
L 112.382117 184.724768 
L 113.108089 213.479471 
L 113.83406 270.88179 
L 114.560032 270.047946 
L 115.286004 186.230331 
L 116.011976 151.467886 
L 116.737947 250.017535 
L 117.463919 181.778114 
L 118.189891 188.221691 
L 118.915862 246.862626 
L 119.641834 248.033967 
L 120.367806 257.215739 
L 121.093777 264.10512 
L 121.819749 269.276396 
L 122.545721 265.568481 
L 123.271693 251.07397 
L 123.997664 244.225785 
L 124.723636 181.42558 
L 125.449608 130.635699 
L 126.175579 233.925532 
L 126.901551 248.258493 
L 127.627523 258.443807 
L 128.353494 259.984305 
L 129.805438 150.560339 
L 130.53141 248.704111 
L 131.257381 267.586783 
L 131.983353 243.736364 
L 132.709325 254.47591 
L 133.435296 253.916077 
L 134.161268 256.813783 
L 134.88724 179.645058 
L 135.613211 132.195361 
L 136.339183 215.169427 
L 137.065155 247.010466 
L 137.791127 267.050958 
L 139.24307 94.588603 
L 139.969042 218.850449 
L 140.695013 251.736838 
L 141.420985 255.218229 
L 142.146957 262.292795 
L 142.872929 251.569694 
L 144.324872 270.649132 
L 145.050844 266.076907 
L 145.776815 270.936615 
L 146.502787 266.73489 
L 147.228759 266.698948 
L 147.95473 257.179072 
L 148.680702 259.142997 
L 149.406674 175.152084 
L 150.132646 190.773402 
L 150.858617 273.795392 
L 151.584589 271.561224 
L 152.310561 243.201636 
L 153.036532 240.005492 
L 153.762504 254.347896 
L 154.488476 271.475487 
L 155.214447 252.526865 
L 155.940419 252.468757 
L 156.666391 263.665931 
L 157.392363 245.49951 
L 158.118334 260.030613 
L 159.570278 270.894795 
L 160.296249 207.080599 
L 161.022221 105.05795 
L 161.748193 178.248815 
L 162.474164 158.788328 
L 163.200136 207.022299 
L 163.926108 265.937754 
L 164.65208 259.763927 
L 165.378051 168.789673 
L 166.104023 110.656316 
L 166.829995 184.197133 
L 167.555966 229.600718 
L 168.281938 266.771949 
L 169.00791 250.39806 
L 169.733882 242.086558 
L 170.459853 251.701565 
L 171.185825 264.418751 
L 171.911797 244.636087 
L 172.637768 242.980403 
L 173.36374 243.701834 
L 174.089712 251.431068 
L 174.815683 245.573667 
L 175.541655 262.737897 
L 176.267627 246.383347 
L 176.993599 192.673696 
L 177.71957 155.594992 
L 178.445542 216.619283 
L 179.171514 262.654213 
L 179.897485 269.87441 
L 180.623457 263.44338 
L 181.349429 270.240699 
L 182.0754 246.575725 
L 182.801372 258.50849 
L 183.527344 247.827542 
L 184.253316 256.202871 
L 184.979287 267.315697 
L 185.705259 244.078336 
L 186.431231 256.970533 
L 187.157202 244.381156 
L 187.883174 254.72184 
L 188.609146 253.179221 
L 189.335117 254.463207 
L 190.061089 263.769022 
L 190.787061 248.357964 
L 191.513033 240.300555 
L 192.239004 237.853357 
L 192.964976 263.715395 
L 193.690948 258.463718 
L 194.416919 257.601877 
L 195.142891 200.980046 
L 195.868863 173.404477 
L 196.594835 272.323001 
L 197.320806 271.644123 
L 198.046778 266.98181 
L 198.77275 267.475665 
L 199.498721 247.414292 
L 200.224693 256.698884 
L 200.950665 158.691889 
L 201.676636 130.264673 
L 202.402608 223.947639 
L 203.12858 265.001388 
L 203.854552 242.655822 
L 204.580523 184.596069 
L 205.306495 143.156494 
L 206.032467 244.931885 
L 206.758438 199.955872 
L 207.48441 146.285938 
L 208.210382 214.628157 
L 208.936353 262.716564 
L 209.662325 267.55956 
L 210.388297 261.324277 
L 211.114269 243.769167 
L 211.84024 201.981825 
L 212.566212 253.834815 
L 213.292184 266.767142 
L 214.018155 255.321256 
L 214.744127 262.085367 
L 215.470099 264.199093 
L 216.19607 263.928087 
L 216.922042 255.196146 
L 217.648014 259.961108 
L 218.373986 266.481983 
L 219.099957 245.744319 
L 219.825929 196.420142 
L 220.551901 203.177383 
L 221.277872 260.077883 
L 222.729816 130.103804 
L 224.181759 260.050217 
L 224.907731 170.963359 
L 225.633703 136.777001 
L 226.359674 153.217344 
L 227.085646 220.245614 
L 227.811618 266.173794 
L 229.263561 146.477921 
L 229.989533 206.634833 
L 230.715505 193.05631 
L 231.441476 193.055984 
L 232.167448 242.313781 
L 232.89342 257.63625 
L 233.619391 252.496437 
L 235.071335 120.939386 
L 235.797306 234.868251 
L 236.523278 265.35077 
L 237.24925 261.857738 
L 237.975222 242.467768 
L 238.701193 238.913988 
L 239.427165 165.975783 
L 240.153137 189.910621 
L 240.879108 252.93321 
L 241.60508 169.514034 
L 242.331052 160.67415 
L 243.057023 257.656863 
L 243.782995 188.258667 
L 244.508967 201.843807 
L 245.96091 107.835813 
L 246.686882 138.719587 
L 247.412854 223.100134 
L 248.138825 248.352879 
L 248.864797 195.436167 
L 249.590769 201.525909 
L 250.316741 262.169569 
L 251.042712 261.377983 
L 251.768684 257.325312 
L 252.494656 237.294929 
L 253.220627 197.288334 
L 253.946599 194.055451 
L 254.672571 239.869194 
L 255.398542 241.136526 
L 256.124514 225.210521 
L 256.850486 159.387315 
L 257.576458 171.248191 
L 258.302429 194.755804 
L 259.028401 186.934516 
L 259.754373 255.818987 
L 260.480344 263.39152 
L 261.206316 260.079353 
L 262.658259 129.361752 
L 263.384231 227.491551 
L 264.110203 246.076421 
L 264.836175 228.809988 
L 265.562146 244.572453 
L 266.288118 233.173249 
L 267.01409 259.755821 
L 267.740061 263.016931 
L 268.466033 267.362305 
L 269.192005 251.937026 
L 269.917977 175.823729 
L 270.643948 193.300507 
L 271.36992 239.20261 
L 272.095892 228.506452 
L 272.821863 252.475926 
L 273.547835 251.054173 
L 274.273807 262.628648 
L 274.999778 262.941202 
L 275.72575 269.410581 
L 276.451722 269.757088 
L 277.177694 264.896568 
L 278.629637 162.479979 
L 279.355609 159.26016 
L 280.08158 158.768627 
L 280.807552 147.310468 
L 281.533524 207.043563 
L 282.259495 171.055414 
L 282.985467 127.975517 
L 283.711439 222.090491 
L 284.437411 225.925141 
L 285.163382 228.698058 
L 285.889354 180.119798 
L 286.615326 199.379817 
L 287.341297 260.694563 
L 288.067269 215.620058 
L 288.793241 247.715557 
L 289.519212 243.327181 
L 290.245184 254.765112 
L 290.971156 259.855483 
L 291.697128 255.42242 
L 292.423099 259.579865 
L 293.149071 257.649099 
L 293.875043 193.578546 
L 294.601014 202.158394 
L 295.326986 262.68292 
L 296.052958 236.981689 
L 296.77893 228.966371 
L 297.504901 224.994049 
L 298.230873 257.863752 
L 298.956845 260.236498 
L 299.682816 249.114908 
L 300.408788 246.619802 
L 301.13476 237.30206 
L 301.860731 184.182874 
L 302.586703 111.908082 
L 303.312675 155.849542 
L 304.038647 214.845556 
L 304.764618 250.24417 
L 305.49059 249.805399 
L 306.216562 187.144115 
L 306.942533 187.6118 
L 307.668505 255.192068 
L 308.394477 245.518814 
L 309.120448 232.574105 
L 309.84642 185.973339 
L 310.572392 212.860236 
L 311.298364 248.784656 
L 312.024335 254.294363 
L 312.750307 214.86603 
L 313.476279 250.81159 
L 314.20225 155.56307 
L 314.928222 174.237327 
L 315.654194 246.341462 
L 316.380165 233.061633 
L 317.106137 189.339739 
L 317.832109 200.938081 
L 318.558081 235.512054 
L 319.284052 254.938744 
L 320.735996 125.415638 
L 321.461967 142.781599 
L 322.187939 145.160441 
L 322.913911 180.946132 
L 323.639883 177.486714 
L 324.365854 171.666691 
L 325.091826 241.726598 
L 325.817798 235.118409 
L 326.543769 156.28953 
L 327.995713 251.331644 
L 328.721684 186.70764 
L 329.447656 157.496474 
L 330.173628 242.458975 
L 330.8996 220.707221 
L 331.625571 224.418902 
L 332.351543 153.770882 
L 333.077515 127.169108 
L 333.803486 217.18842 
L 334.529458 222.420996 
L 335.25543 164.413648 
L 335.981401 140.277218 
L 336.707373 213.696034 
L 337.433345 247.385393 
L 338.159317 155.559175 
L 338.885288 114.782012 
L 339.61126 179.429035 
L 340.337232 202.223901 
L 341.063203 247.856536 
L 341.789175 127.56341 
L 342.515147 165.58976 
L 343.241118 152.864849 
L 343.96709 93.842417 
L 344.693062 142.468047 
L 345.419034 161.428331 
L 346.145005 220.160304 
L 346.870977 240.875198 
L 347.596949 141.069184 
L 349.048892 244.277964 
L 349.774864 167.680189 
L 350.500836 189.418226 
L 351.226807 157.130037 
L 352.678751 241.504856 
L 353.404722 195.475717 
L 354.130694 215.590587 
L 354.856666 238.892901 
L 355.582637 183.384474 
L 356.308609 184.925499 
L 357.034581 149.363203 
L 357.760553 167.358242 
L 358.486524 181.483513 
L 359.212496 92.603498 
L 359.938468 143.017953 
L 360.664439 206.322349 
L 361.390411 218.626214 
L 362.116383 226.359832 
L 362.842354 222.531947 
L 363.568326 214.19628 
L 364.294298 199.714358 
L 365.02027 145.66827 
L 365.746241 114.644188 
L 366.472213 201.37003 
L 367.198185 171.346357 
L 367.924156 193.937787 
L 368.650128 229.875249 
L 369.3761 156.804127 
L 370.102071 180.507047 
L 370.828043 143.415023 
L 371.554015 115.997827 
L 372.279987 214.293615 
L 373.005958 210.847015 
L 373.73193 188.974889 
L 374.457902 227.288905 
L 375.183873 247.857269 
L 375.909845 218.060094 
L 376.635817 236.45091 
L 377.361789 147.692091 
L 378.08776 135.911509 
L 378.813732 105.619621 
L 379.539704 205.74524 
L 380.265675 215.552263 
L 380.991647 126.82133 
L 381.717619 89.133355 
L 382.44359 118.59798 
L 383.169562 104.147906 
L 383.895534 190.231218 
L 384.621506 170.364804 
L 385.347477 153.795973 
L 386.073449 235.985682 
L 386.799421 219.579347 
L 388.251364 196.602293 
L 388.977336 158.081366 
L 389.703307 160.038604 
L 390.429279 193.544349 
L 391.155251 207.729748 
L 391.881223 198.544551 
L 392.607194 215.409712 
L 393.333166 125.383519 
L 394.059138 96.35473 
L 394.785109 121.101854 
L 395.511081 185.602479 
L 396.237053 197.716836 
L 396.963024 223.971417 
L 397.688996 155.599392 
L 398.414968 177.742523 
L 399.14094 166.589294 
L 399.866911 173.0025 
L 400.592883 198.001677 
L 401.318855 210.610238 
L 402.044826 168.496108 
L 402.770798 101.145755 
L 403.49677 94.372189 
L 404.222742 185.351768 
L 404.948713 124.696352 
L 405.674685 101.935947 
L 406.400657 103.592995 
L 407.126628 155.253133 
L 407.8526 193.184203 
L 408.578572 152.463516 
L 409.304543 91.473579 
L 410.030515 122.419976 
L 410.756487 73.768072 
L 411.482459 154.830463 
L 412.20843 118.233126 
L 412.934402 174.492609 
L 413.660374 111.413975 
L 414.386345 90.383375 
L 415.112317 169.892115 
L 415.838289 187.057253 
L 416.56426 172.260499 
L 417.290232 133.873162 
L 418.016204 149.865107 
L 419.468147 93.865714 
L 420.194119 136.154609 
L 420.920091 148.101024 
L 421.646062 90.377593 
L 422.372034 99.690483 
L 423.098006 157.739043 
L 423.823977 137.181399 
L 424.549949 156.883637 
L 425.275921 128.815769 
L 426.001893 151.899259 
L 426.727864 187.709633 
L 427.453836 177.068782 
L 428.179808 156.383135 
L 428.905779 119.551303 
L 429.631751 156.235415 
L 430.357723 176.809384 
L 431.083695 164.389832 
L 431.809666 185.24421 
L 432.535638 159.372055 
L 433.26161 173.901202 
L 433.987581 105.029595 
L 434.713553 85.830711 
L 435.439525 71.361113 
L 436.165496 69.439001 
L 436.891468 83.560324 
L 437.61744 70.73925 
L 438.343412 138.327259 
L 439.069383 123.230587 
L 439.795355 131.894094 
L 440.521327 99.844016 
L 441.247298 137.213962 
L 441.97327 153.611136 
L 442.699242 92.569576 
L 443.425213 45.433208 
L 444.151185 54.084459 
L 444.877157 124.416978 
L 445.603129 108.040827 
L 446.3291 94.491119 
L 447.055072 103.395324 
L 447.781044 54.76716 
L 448.507015 73.829631 
L 449.232987 124.511351 
L 449.958959 111.889456 
L 450.68493 63.875578 
L 451.410902 51.261909 
L 452.136874 168.38594 
L 452.862846 175.478671 
L 453.588817 67.572297 
L 454.314789 74.697795 
L 455.040761 65.974923 
L 455.766732 116.771287 
L 456.492704 144.328043 
L 457.218676 98.755323 
L 457.944648 65.236088 
L 459.396591 34.67267 
L 459.396591 34.67267 
" style="fill:none;stroke:#1f77b4;stroke-linecap:square;stroke-width:1.5;"/>
   </g>
   <g id="line2d_2">
    <path clip-path="url(#p097b5a6cf4)" d="M 53.578409 234.493553 
L 54.304381 242.97676 
L 55.030352 211.14455 
L 55.756324 251.68767 
L 56.482296 265.555951 
L 57.208268 257.06866 
L 57.934239 240.849625 
L 58.660211 233.231061 
L 59.386183 173.428704 
L 60.112154 139.985751 
L 60.838126 244.441505 
L 61.564098 224.430839 
L 62.29007 231.355059 
L 63.016041 245.508493 
L 63.742013 249.982283 
L 64.467985 264.29204 
L 65.193956 270.229005 
L 65.919928 271.342411 
L 66.6459 202.954159 
L 67.371871 203.67069 
L 68.097843 242.62815 
L 68.823815 253.709433 
L 69.549787 249.266855 
L 70.275758 271.114633 
L 71.00173 264.53104 
L 71.727702 198.942367 
L 72.453673 160.556463 
L 73.179645 130.893072 
L 73.905617 228.731377 
L 74.631588 191.585651 
L 75.35756 113.532187 
L 76.083532 192.240205 
L 76.809504 216.823693 
L 77.535475 146.703833 
L 78.261447 215.305156 
L 78.987419 251.358501 
L 79.71339 246.598015 
L 80.439362 257.683722 
L 81.165334 240.012574 
L 81.891305 262.863897 
L 82.617277 270.365704 
L 83.343249 246.903682 
L 84.069221 258.387327 
L 84.795192 273.64031 
L 85.521164 278.132997 
L 86.247136 267.103857 
L 86.973107 246.198326 
L 87.699079 247.013562 
L 88.425051 163.61982 
L 89.151023 157.590303 
L 89.876994 156.273593 
L 91.328938 245.382355 
L 92.054909 240.583979 
L 92.780881 167.549119 
L 93.506853 188.729987 
L 94.232824 228.518294 
L 95.684768 248.072913 
L 96.41074 262.106853 
L 97.136711 266.037131 
L 97.862683 264.709854 
L 98.588655 241.02835 
L 99.314626 213.162381 
L 100.040598 158.225817 
L 100.76657 242.025789 
L 101.492541 254.186168 
L 102.218513 225.567593 
L 102.944485 254.262847 
L 103.670457 260.273542 
L 104.396428 240.590783 
L 105.1224 268.668979 
L 105.848372 266.217995 
L 106.574343 263.206349 
L 107.300315 256.717117 
L 108.026287 187.441022 
L 108.752258 207.75057 
L 109.47823 269.692758 
L 110.204202 193.781323 
L 110.930174 207.245763 
L 111.656145 169.94148 
L 112.382117 202.551325 
L 113.108089 265.05551 
L 113.83406 267.258958 
L 114.560032 255.304492 
L 115.286004 265.634812 
L 116.011976 180.870923 
L 116.737947 114.39054 
L 117.463919 236.813359 
L 118.189891 220.024566 
L 118.915862 181.120111 
L 119.641834 217.963441 
L 120.367806 216.172828 
L 121.093777 173.384986 
L 121.819749 178.564932 
L 122.545721 206.535825 
L 123.271693 242.496759 
L 123.997664 254.647831 
L 124.723636 259.540175 
L 125.449608 238.951397 
L 126.175579 251.928349 
L 126.901551 228.350144 
L 127.627523 165.755789 
L 128.353494 198.164666 
L 129.079466 259.645974 
L 129.805438 257.894531 
L 131.257381 260.512879 
L 131.983353 263.407555 
L 132.709325 251.620673 
L 133.435296 262.868869 
L 134.161268 252.964009 
L 134.88724 257.280543 
L 135.613211 277.522831 
L 136.339183 271.767307 
L 137.065155 274.270919 
L 137.791127 277.37919 
L 138.517098 265.888778 
L 139.24307 267.164048 
L 139.969042 271.652093 
L 140.695013 267.733551 
L 141.420985 272.000185 
L 142.146957 274.652215 
L 142.872929 273.882601 
L 143.5989 273.343281 
L 144.324872 275.386897 
L 145.776815 281.76358 
L 146.502787 281.089232 
L 147.228759 255.035982 
L 147.95473 217.442313 
L 148.680702 229.391358 
L 149.406674 221.267342 
L 150.132646 225.30792 
L 150.858617 260.414691 
L 151.584589 198.885542 
L 152.310561 193.320953 
L 153.036532 259.64538 
L 153.762504 185.107883 
L 154.488476 206.962143 
L 155.214447 265.931715 
L 155.940419 268.54125 
L 156.666391 263.913052 
L 157.392363 258.258834 
L 158.118334 258.90241 
L 158.844306 275.810569 
L 159.570278 251.230047 
L 160.296249 258.929235 
L 161.022221 254.433207 
L 161.748193 193.761991 
L 162.474164 206.235128 
L 163.200136 206.584972 
L 163.926108 229.441669 
L 164.65208 239.90652 
L 165.378051 233.468132 
L 166.104023 218.475748 
L 166.829995 237.310535 
L 168.281938 260.197423 
L 169.00791 176.053912 
L 169.733882 209.65444 
L 170.459853 169.158205 
L 171.185825 147.094241 
L 171.911797 223.38393 
L 173.36374 148.928104 
L 174.089712 170.002925 
L 174.815683 162.849869 
L 175.541655 235.026611 
L 176.267627 170.989247 
L 176.993599 191.692585 
L 177.71957 228.310629 
L 178.445542 155.844819 
L 179.171514 216.555789 
L 179.897485 181.378717 
L 180.623457 180.686009 
L 181.349429 220.154495 
L 182.0754 248.291301 
L 182.801372 234.707266 
L 183.527344 254.164621 
L 184.253316 185.367698 
L 184.979287 157.928041 
L 185.705259 170.738982 
L 186.431231 222.461757 
L 187.157202 211.24647 
L 187.883174 214.068922 
L 188.609146 241.793775 
L 189.335117 172.315036 
L 190.061089 240.88681 
L 190.787061 245.927216 
L 191.513033 259.507207 
L 192.239004 255.934016 
L 192.964976 239.046069 
L 193.690948 258.139437 
L 194.416919 253.399988 
L 195.868863 212.689118 
L 196.594835 239.124521 
L 197.320806 256.487594 
L 198.046778 268.845216 
L 198.77275 254.264624 
L 199.498721 192.474116 
L 200.224693 220.680196 
L 200.950665 178.629433 
L 202.402608 262.82179 
L 203.12858 253.587651 
L 203.854552 192.120912 
L 204.580523 225.208951 
L 205.306495 251.389891 
L 206.032467 266.719226 
L 206.758438 261.64155 
L 207.48441 241.849298 
L 208.210382 256.933187 
L 208.936353 269.699708 
L 209.662325 249.499796 
L 210.388297 245.417672 
L 211.114269 207.536124 
L 211.84024 215.952503 
L 212.566212 266.857885 
L 213.292184 265.133538 
L 214.018155 259.964221 
L 214.744127 265.959763 
L 215.470099 266.844966 
L 216.19607 264.75734 
L 216.922042 273.395026 
L 217.648014 274.672314 
L 218.373986 275.247734 
L 219.099957 268.818534 
L 219.825929 274.716231 
L 220.551901 272.932755 
L 221.277872 272.233998 
L 222.003844 279.795788 
L 222.729816 267.731628 
L 223.455788 266.783772 
L 224.181759 274.695302 
L 224.907731 268.851273 
L 225.633703 268.442182 
L 226.359674 244.761582 
L 227.085646 249.19653 
L 227.811618 208.592998 
L 228.537589 139.009811 
L 229.263561 259.186775 
L 229.989533 262.778259 
L 230.715505 229.96438 
L 231.441476 166.751599 
L 232.167448 235.126216 
L 232.89342 263.220752 
L 233.619391 265.344179 
L 234.345363 244.99918 
L 235.071335 176.196715 
L 235.797306 143.926727 
L 236.523278 241.444815 
L 237.24925 258.462528 
L 237.975222 256.535627 
L 238.701193 267.141978 
L 239.427165 241.77641 
L 240.153137 242.629826 
L 241.60508 156.328915 
L 242.331052 195.3846 
L 243.057023 248.576904 
L 243.782995 196.803025 
L 244.508967 213.036466 
L 245.234939 180.870904 
L 245.96091 159.561504 
L 246.686882 232.555479 
L 247.412854 235.754654 
L 248.138825 239.937922 
L 248.864797 248.136627 
L 249.590769 166.365294 
L 251.042712 258.152357 
L 251.768684 251.813896 
L 252.494656 238.562968 
L 253.220627 256.550951 
L 253.946599 239.708208 
L 254.672571 227.908548 
L 255.398542 254.878072 
L 256.124514 248.915712 
L 256.850486 217.03452 
L 257.576458 230.723802 
L 258.302429 169.950406 
L 259.028401 136.274446 
L 259.754373 237.003176 
L 260.480344 245.436707 
L 261.206316 251.760349 
L 261.932288 188.328692 
L 262.658259 148.01986 
L 263.384231 238.333602 
L 264.110203 228.945159 
L 264.836175 246.079737 
L 265.562146 246.746575 
L 266.288118 230.373029 
L 267.01409 240.715481 
L 267.740061 258.118948 
L 268.466033 246.002987 
L 269.192005 137.878585 
L 269.917977 206.022491 
L 270.643948 229.33801 
L 271.36992 178.758057 
L 272.095892 220.232016 
L 272.821863 254.725531 
L 273.547835 173.309112 
L 274.273807 228.749061 
L 274.999778 181.78943 
L 275.72575 225.169848 
L 276.451722 181.178519 
L 277.177694 193.520198 
L 277.903665 168.119373 
L 278.629637 134.242125 
L 279.355609 209.856414 
L 280.08158 166.57613 
L 280.807552 136.061009 
L 281.533524 188.807422 
L 282.259495 163.457941 
L 282.985467 131.73314 
L 283.711439 213.319313 
L 284.437411 142.096998 
L 285.163382 189.825665 
L 285.889354 133.860565 
L 286.615326 189.176933 
L 287.341297 235.257956 
L 288.067269 202.270412 
L 288.793241 241.045143 
L 289.519212 221.865272 
L 290.245184 250.714917 
L 290.971156 258.286073 
L 291.697128 156.987007 
L 292.423099 153.005162 
L 293.149071 150.768205 
L 293.875043 218.082946 
L 294.601014 223.241903 
L 295.326986 232.189179 
L 296.052958 200.850476 
L 296.77893 150.00687 
L 297.504901 121.512609 
L 298.230873 203.738213 
L 298.956845 175.467125 
L 299.682816 224.590784 
L 300.408788 147.084407 
L 301.13476 149.68282 
L 301.860731 129.773111 
L 302.586703 187.0979 
L 303.312675 145.4973 
L 304.038647 223.328517 
L 304.764618 231.000568 
L 306.216562 252.125759 
L 306.942533 212.616466 
L 307.668505 245.118163 
L 308.394477 259.446315 
L 309.120448 179.623284 
L 309.84642 212.990117 
L 310.572392 222.146097 
L 311.298364 224.286169 
L 312.024335 224.509964 
L 312.750307 147.766237 
L 313.476279 225.603049 
L 314.20225 215.142488 
L 314.928222 214.275996 
L 315.654194 240.747615 
L 317.106137 258.425699 
L 317.832109 262.428333 
L 318.558081 249.721863 
L 319.284052 252.031861 
L 320.010024 259.25729 
L 320.735996 237.870603 
L 321.461967 241.055085 
L 322.187939 169.215992 
L 322.913911 185.669146 
L 323.639883 234.602168 
L 324.365854 211.274434 
L 325.091826 235.142031 
L 325.817798 254.100349 
L 326.543769 229.749859 
L 327.269741 144.907128 
L 327.995713 158.810114 
L 328.721684 233.209502 
L 329.447656 242.039375 
L 330.173628 184.353371 
L 330.8996 198.509585 
L 331.625571 223.151318 
L 332.351543 200.47082 
L 333.077515 226.341024 
L 333.803486 245.496649 
L 334.529458 247.719761 
L 335.25543 236.023168 
L 335.981401 242.889995 
L 336.707373 255.196687 
L 337.433345 246.850753 
L 338.159317 221.951487 
L 338.885288 225.680199 
L 339.61126 245.110767 
L 340.337232 259.8945 
L 341.063203 265.643738 
L 341.789175 208.125896 
L 342.515147 240.490267 
L 343.241118 154.100521 
L 343.96709 192.466173 
L 344.693062 174.805827 
L 346.145005 240.491904 
L 346.870977 235.90593 
L 347.596949 203.500858 
L 348.32292 211.365287 
L 349.048892 247.497404 
L 349.774864 222.612666 
L 350.500836 230.20729 
L 351.226807 158.574217 
L 351.952779 227.383195 
L 352.678751 244.872956 
L 353.404722 200.519178 
L 354.130694 149.157721 
L 354.856666 237.554585 
L 355.582637 254.915673 
L 356.308609 234.814048 
L 357.034581 218.279709 
L 357.760553 160.578043 
L 358.486524 121.555886 
L 359.212496 150.658054 
L 359.938468 125.51363 
L 360.664439 204.438312 
L 361.390411 235.656548 
L 362.116383 215.697039 
L 362.842354 212.103649 
L 363.568326 163.662361 
L 364.294298 141.358823 
L 365.02027 139.078177 
L 365.746241 162.719895 
L 366.472213 209.282186 
L 367.198185 199.596594 
L 367.924156 169.380501 
L 368.650128 209.483818 
L 369.3761 190.673973 
L 370.102071 229.001275 
L 370.828043 178.017108 
L 371.554015 193.576426 
L 372.279987 152.542791 
L 373.005958 197.248431 
L 373.73193 202.058489 
L 374.457902 197.094004 
L 375.183873 207.870794 
L 375.909845 154.610408 
L 376.635817 212.270043 
L 377.361789 228.15958 
L 378.08776 162.911935 
L 378.813732 211.600554 
L 379.539704 190.771424 
L 380.265675 140.457044 
L 380.991647 144.340233 
L 381.717619 129.48616 
L 382.44359 121.553874 
L 383.169562 99.294195 
L 383.895534 189.348616 
L 384.621506 133.920738 
L 385.347477 166.839889 
L 386.073449 146.782892 
L 386.799421 121.058872 
L 387.525392 130.595983 
L 388.251364 196.308317 
L 388.977336 190.597656 
L 389.703307 151.259226 
L 390.429279 96.590131 
L 391.155251 189.662366 
L 391.881223 107.837623 
L 392.607194 176.692998 
L 393.333166 120.641879 
L 394.059138 112.636912 
L 394.785109 105.90529 
L 395.511081 174.250135 
L 396.237053 85.467246 
L 396.963024 126.373449 
L 397.688996 130.863726 
L 398.414968 164.370397 
L 399.14094 120.621435 
L 399.866911 152.931994 
L 400.592883 113.523415 
L 401.318855 181.144364 
L 402.044826 164.396132 
L 402.770798 158.053157 
L 403.49677 118.80454 
L 404.222742 171.063887 
L 404.948713 98.715301 
L 405.674685 127.124838 
L 406.400657 127.274022 
L 407.126628 152.516616 
L 407.8526 86.121359 
L 408.578572 120.925017 
L 409.304543 76.434263 
L 410.030515 104.737997 
L 410.756487 73.504644 
L 411.482459 150.227937 
L 412.20843 93.707925 
L 412.934402 195.303446 
L 413.660374 86.904697 
L 414.386345 101.426945 
L 415.112317 163.604572 
L 415.838289 167.581186 
L 416.56426 155.837116 
L 417.290232 173.952892 
L 418.016204 94.234269 
L 418.742176 147.940061 
L 419.468147 108.227395 
L 420.194119 170.042963 
L 420.920091 132.870094 
L 421.646062 108.438809 
L 422.372034 124.701254 
L 423.098006 182.472976 
L 423.823977 113.375869 
L 424.549949 191.692493 
L 425.275921 85.855051 
L 426.001893 171.114152 
L 426.727864 168.777435 
L 427.453836 185.465753 
L 428.179808 88.669415 
L 428.905779 103.337255 
L 429.631751 104.524185 
L 430.357723 164.927299 
L 431.083695 119.570934 
L 431.809666 156.685245 
L 432.535638 118.928847 
L 433.26161 158.475135 
L 433.987581 97.470428 
L 434.713553 114.343037 
L 435.439525 89.777126 
L 436.165496 72.416679 
L 436.891468 147.555041 
L 437.61744 104.281791 
L 438.343412 172.751583 
L 439.069383 103.202809 
L 439.795355 163.078678 
L 440.521327 85.425244 
L 441.247298 143.094879 
L 441.97327 145.651603 
L 442.699242 77.461391 
L 443.425213 138.8412 
L 444.151185 75.852573 
L 444.877157 104.467322 
L 445.603129 99.546932 
L 446.3291 163.277562 
L 447.055072 183.186076 
L 447.781044 73.741468 
L 448.507015 179.113887 
L 449.232987 140.722302 
L 449.958959 153.922613 
L 450.68493 85.880537 
L 451.410902 69.211851 
L 452.136874 173.980706 
L 452.862846 181.064581 
L 453.588817 75.854726 
L 454.314789 160.629296 
L 455.040761 101.27822 
L 455.766732 104.476713 
L 456.492704 156.656541 
L 457.218676 171.295143 
L 457.944648 75.560429 
L 458.670619 88.359527 
L 459.396591 49.657004 
L 459.396591 49.657004 
" style="fill:none;stroke:#ff7f0e;stroke-linecap:square;stroke-width:1.5;"/>
   </g>
   <g id="line2d_3">
    <path clip-path="url(#p097b5a6cf4)" d="M 53.578409 255.627049 
L 54.304381 266.347237 
L 55.030352 243.753881 
L 55.756324 256.432963 
L 56.482296 240.496084 
L 57.208268 259.693412 
L 57.934239 198.653131 
L 58.660211 153.257558 
L 59.386183 207.388493 
L 60.838126 250.994497 
L 61.564098 246.207764 
L 62.29007 249.768251 
L 63.016041 256.881307 
L 63.742013 259.37888 
L 64.467985 178.66254 
L 65.193956 241.609986 
L 65.919928 202.092464 
L 66.6459 214.197651 
L 67.371871 184.764014 
L 68.097843 172.789277 
L 68.823815 254.316569 
L 69.549787 166.071766 
L 70.275758 231.932053 
L 71.00173 228.223187 
L 71.727702 216.415147 
L 72.453673 238.098606 
L 73.179645 229.292831 
L 73.905617 245.941215 
L 74.631588 238.468586 
L 75.35756 244.50474 
L 76.083532 243.114298 
L 76.809504 176.710891 
L 77.535475 129.78093 
L 78.261447 239.834772 
L 78.987419 257.664196 
L 79.71339 253.612078 
L 80.439362 187.269428 
L 81.165334 235.81886 
L 81.891305 238.388419 
L 82.617277 211.406378 
L 83.343249 210.402722 
L 84.069221 226.070296 
L 84.795192 258.319672 
L 86.247136 145.82585 
L 86.973107 238.187693 
L 87.699079 164.500337 
L 88.425051 228.013438 
L 89.151023 257.026317 
L 89.876994 225.830892 
L 90.602966 177.761857 
L 91.328938 176.136464 
L 92.054909 190.161423 
L 92.780881 225.104232 
L 93.506853 184.852465 
L 94.232824 157.855885 
L 94.958796 221.982049 
L 95.684768 233.274381 
L 96.41074 229.122866 
L 97.136711 253.123796 
L 97.862683 262.648508 
L 98.588655 264.711037 
L 99.314626 252.218015 
L 100.040598 237.624287 
L 100.76657 262.875595 
L 101.492541 261.573067 
L 102.218513 257.5429 
L 102.944485 244.233334 
L 103.670457 257.686908 
L 104.396428 247.983717 
L 105.1224 264.90384 
L 105.848372 206.419034 
L 106.574343 239.855814 
L 107.300315 218.014621 
L 108.026287 208.266904 
L 108.752258 261.296254 
L 109.47823 265.056925 
L 110.204202 236.055262 
L 110.930174 258.825993 
L 111.656145 238.129639 
L 112.382117 168.379662 
L 113.108089 246.002613 
L 113.83406 263.160931 
L 114.560032 261.282377 
L 115.286004 269.054381 
L 116.011976 268.518074 
L 116.737947 264.440366 
L 118.189891 259.255872 
L 118.915862 271.098028 
L 119.641834 267.53612 
L 120.367806 246.372393 
L 121.093777 248.774344 
L 121.819749 237.88951 
L 122.545721 223.472684 
L 123.271693 247.371976 
L 123.997664 261.595817 
L 124.723636 255.532034 
L 125.449608 257.785931 
L 126.175579 267.850228 
L 126.901551 245.565785 
L 127.627523 259.765407 
L 128.353494 269.195674 
L 129.079466 273.763528 
L 129.805438 268.765832 
L 130.53141 270.965808 
L 131.257381 274.924248 
L 131.983353 271.841785 
L 132.709325 269.907342 
L 133.435296 277.10205 
L 134.161268 278.024941 
L 134.88724 255.844443 
L 135.613211 264.896406 
L 136.339183 193.484701 
L 137.065155 147.013108 
L 137.791127 266.262744 
L 138.517098 200.739289 
L 139.24307 208.655175 
L 139.969042 269.283167 
L 140.695013 243.397047 
L 141.420985 255.313849 
L 142.146957 264.901975 
L 142.872929 197.960198 
L 143.5989 209.733516 
L 144.324872 258.251695 
L 145.050844 261.951494 
L 145.776815 263.505834 
L 147.228759 231.990996 
L 147.95473 240.480114 
L 148.680702 236.915841 
L 149.406674 236.933649 
L 150.132646 216.939629 
L 150.858617 236.693368 
L 151.584589 259.985672 
L 152.310561 243.801016 
L 153.036532 256.757433 
L 153.762504 266.737197 
L 154.488476 269.714668 
L 155.214447 197.947781 
L 155.940419 242.300237 
L 156.666391 249.454477 
L 157.392363 159.17026 
L 158.118334 160.952974 
L 158.844306 251.388753 
L 159.570278 264.218967 
L 160.296249 270.349943 
L 161.022221 268.019346 
L 161.748193 267.651745 
L 163.200136 260.022016 
L 163.926108 199.510472 
L 164.65208 223.871763 
L 165.378051 194.810427 
L 166.104023 170.679239 
L 166.829995 179.587312 
L 168.281938 252.384285 
L 169.00791 214.886598 
L 169.733882 212.005447 
L 170.459853 220.562403 
L 171.185825 234.53108 
L 171.911797 184.297381 
L 172.637768 200.976882 
L 173.36374 179.31304 
L 174.089712 213.748263 
L 174.815683 171.897479 
L 175.541655 236.667158 
L 176.267627 154.006477 
L 176.993599 222.161764 
L 177.71957 254.629538 
L 178.445542 180.643148 
L 179.897485 230.362171 
L 180.623457 222.419845 
L 181.349429 164.734338 
L 182.0754 176.755758 
L 182.801372 239.46937 
L 183.527344 188.437426 
L 184.253316 184.745345 
L 184.979287 210.474434 
L 185.705259 216.215593 
L 186.431231 159.405647 
L 187.157202 229.833528 
L 187.883174 180.473766 
L 188.609146 174.607815 
L 189.335117 214.352947 
L 190.061089 239.999616 
L 190.787061 236.729272 
L 191.513033 246.930285 
L 192.239004 175.636428 
L 192.964976 164.185792 
L 193.690948 224.917902 
L 194.416919 234.27031 
L 195.142891 189.741226 
L 195.868863 224.758669 
L 196.594835 175.467676 
L 197.320806 231.602385 
L 198.046778 210.595026 
L 198.77275 180.588288 
L 199.498721 177.500429 
L 200.224693 202.226986 
L 200.950665 158.512143 
L 201.676636 235.513073 
L 202.402608 248.924184 
L 203.12858 241.272578 
L 203.854552 249.390861 
L 204.580523 254.633296 
L 205.306495 186.961768 
L 206.032467 229.055884 
L 206.758438 168.423163 
L 207.48441 138.393095 
L 208.210382 205.704204 
L 208.936353 234.099572 
L 209.662325 180.381967 
L 210.388297 223.920637 
L 211.114269 235.129066 
L 211.84024 157.897535 
L 212.566212 228.169199 
L 213.292184 182.772228 
L 214.018155 229.306375 
L 214.744127 223.92116 
L 215.470099 244.610875 
L 216.19607 175.6308 
L 216.922042 240.06099 
L 217.648014 255.878328 
L 219.099957 245.456139 
L 219.825929 255.132724 
L 220.551901 254.293036 
L 221.277872 258.857671 
L 222.003844 239.169317 
L 222.729816 253.013187 
L 223.455788 198.312099 
L 224.181759 217.984808 
L 224.907731 177.301777 
L 225.633703 220.729539 
L 226.359674 197.09228 
L 227.085646 221.689472 
L 227.811618 254.901754 
L 228.537589 167.028968 
L 229.263561 230.361239 
L 229.989533 248.692693 
L 230.715505 226.371751 
L 231.441476 179.480881 
L 232.167448 163.935937 
L 232.89342 225.888006 
L 233.619391 186.761181 
L 234.345363 209.209575 
L 235.071335 221.113519 
L 235.797306 250.834081 
L 237.24925 138.871268 
L 237.975222 143.66023 
L 238.701193 207.324607 
L 239.427165 175.830409 
L 240.153137 230.127213 
L 240.879108 247.20071 
L 241.60508 157.670357 
L 243.057023 239.985449 
L 243.782995 188.565045 
L 244.508967 218.751813 
L 245.234939 154.153137 
L 245.96091 144.956603 
L 246.686882 215.537057 
L 247.412854 246.835594 
L 248.138825 243.602377 
L 248.864797 231.060998 
L 249.590769 231.08091 
L 250.316741 250.103255 
L 251.042712 180.362536 
L 251.768684 167.815937 
L 252.494656 221.263229 
L 253.220627 252.461627 
L 253.946599 164.833759 
L 254.672571 208.424597 
L 255.398542 236.715285 
L 256.124514 193.43672 
L 256.850486 143.121496 
L 257.576458 235.949446 
L 258.302429 184.934529 
L 259.028401 223.952383 
L 259.754373 233.889839 
L 260.480344 252.361237 
L 261.206316 173.159778 
L 261.932288 209.68959 
L 262.658259 224.45666 
L 263.384231 244.824018 
L 264.110203 251.549815 
L 264.836175 246.464049 
L 265.562146 234.37767 
L 266.288118 156.522512 
L 267.01409 186.472663 
L 267.740061 226.077773 
L 268.466033 257.703971 
L 269.192005 228.779938 
L 269.917977 228.185992 
L 270.643948 156.149071 
L 271.36992 204.722381 
L 272.095892 190.792559 
L 272.821863 214.838607 
L 273.547835 217.600343 
L 274.273807 245.877817 
L 274.999778 232.935269 
L 275.72575 245.227874 
L 276.451722 231.213903 
L 277.177694 232.266831 
L 277.903665 227.844922 
L 279.355609 239.421597 
L 280.08158 238.910699 
L 280.807552 236.407058 
L 281.533524 252.79573 
L 282.259495 225.722808 
L 282.985467 233.438714 
L 283.711439 248.710232 
L 284.437411 254.810261 
L 285.163382 248.185908 
L 285.889354 237.322224 
L 286.615326 221.562312 
L 287.341297 258.928471 
L 288.067269 254.257537 
L 288.793241 254.864244 
L 289.519212 235.741263 
L 290.245184 260.426361 
L 290.971156 263.925631 
L 291.697128 254.060265 
L 292.423099 161.51092 
L 293.149071 163.08282 
L 293.875043 242.350697 
L 294.601014 244.242725 
L 295.326986 232.437488 
L 296.052958 205.465721 
L 296.77893 153.295654 
L 298.230873 244.239365 
L 298.956845 247.664141 
L 299.682816 184.972102 
L 300.408788 215.004399 
L 301.860731 146.404351 
L 302.586703 208.133843 
L 303.312675 177.105938 
L 304.038647 241.194602 
L 304.764618 226.988008 
L 305.49059 217.453851 
L 306.216562 251.478106 
L 306.942533 184.772197 
L 307.668505 227.545854 
L 308.394477 233.777999 
L 309.120448 244.596217 
L 309.84642 246.968064 
L 310.572392 154.620727 
L 311.298364 230.055927 
L 312.024335 228.509864 
L 312.750307 157.052705 
L 313.476279 224.606263 
L 314.20225 223.62165 
L 314.928222 228.061511 
L 315.654194 216.167894 
L 316.380165 245.220913 
L 317.106137 253.197862 
L 317.832109 250.320813 
L 318.558081 245.996256 
L 319.284052 218.711132 
L 320.010024 247.228738 
L 320.735996 247.07083 
L 321.461967 226.979949 
L 322.187939 234.217359 
L 322.913911 252.217216 
L 323.639883 177.893538 
L 324.365854 161.774232 
L 325.091826 222.008205 
L 325.817798 205.938253 
L 326.543769 155.875455 
L 327.269741 206.496918 
L 327.995713 241.532366 
L 328.721684 180.528399 
L 329.447656 166.092456 
L 330.173628 225.582079 
L 330.8996 145.888779 
L 331.625571 106.49635 
L 332.351543 138.214281 
L 333.077515 151.244251 
L 333.803486 228.901483 
L 334.529458 212.279765 
L 335.25543 144.55457 
L 335.981401 230.348481 
L 336.707373 222.854524 
L 337.433345 229.657205 
L 338.159317 209.617926 
L 338.885288 141.012113 
L 339.61126 195.21609 
L 340.337232 208.851612 
L 341.063203 247.474123 
L 341.789175 196.76326 
L 342.515147 216.879719 
L 343.241118 201.411415 
L 343.96709 152.97006 
L 344.693062 204.16947 
L 345.419034 181.360175 
L 346.145005 225.575359 
L 346.870977 234.35955 
L 347.596949 182.312257 
L 348.32292 213.548541 
L 349.048892 209.776048 
L 349.774864 137.906473 
L 350.500836 217.763121 
L 351.226807 152.294044 
L 351.952779 226.493229 
L 352.678751 230.193958 
L 353.404722 193.737681 
L 354.130694 229.327319 
L 354.856666 246.118516 
L 355.582637 241.48114 
L 356.308609 222.082362 
L 357.034581 232.355101 
L 357.760553 161.261653 
L 358.486524 150.064511 
L 359.212496 197.484993 
L 359.938468 211.168502 
L 360.664439 233.253243 
L 361.390411 240.705131 
L 362.116383 214.321178 
L 362.842354 230.955663 
L 363.568326 235.196042 
L 364.294298 235.821792 
L 365.02027 221.64612 
L 365.746241 197.285774 
L 366.472213 238.081584 
L 367.198185 215.270022 
L 367.924156 174.735721 
L 368.650128 147.127881 
L 369.3761 210.325443 
L 370.102071 192.397169 
L 370.828043 126.785911 
L 371.554015 147.323333 
L 372.279987 211.533592 
L 373.005958 223.300893 
L 373.73193 214.737166 
L 374.457902 234.617157 
L 375.183873 177.00505 
L 375.909845 222.911284 
L 376.635817 229.737767 
L 377.361789 209.006215 
L 378.08776 236.054091 
L 378.813732 207.65412 
L 379.539704 209.909312 
L 380.265675 232.222507 
L 380.991647 139.720704 
L 381.717619 205.170119 
L 382.44359 157.177276 
L 383.169562 181.835936 
L 383.895534 195.787469 
L 384.621506 150.75189 
L 385.347477 203.989858 
L 386.073449 225.627957 
L 386.799421 219.678803 
L 387.525392 227.510353 
L 388.251364 233.177245 
L 388.977336 205.244835 
L 389.703307 228.801879 
L 390.429279 228.95372 
L 391.155251 220.137547 
L 391.881223 206.742218 
L 392.607194 200.318894 
L 393.333166 128.323058 
L 394.059138 136.840564 
L 394.785109 140.500151 
L 395.511081 214.663726 
L 396.237053 196.273652 
L 396.963024 226.798697 
L 397.688996 208.114203 
L 398.414968 111.032482 
L 399.14094 173.94519 
L 399.866911 153.999442 
L 400.592883 193.842459 
L 401.318855 154.997667 
L 402.044826 145.355807 
L 402.770798 209.232378 
L 403.49677 221.145592 
L 404.222742 130.867198 
L 404.948713 116.870306 
L 405.674685 172.215329 
L 406.400657 209.112116 
L 407.126628 141.706684 
L 407.8526 144.529809 
L 408.578572 181.477577 
L 409.304543 191.532177 
L 410.030515 175.931759 
L 410.756487 178.568396 
L 411.482459 138.89392 
L 412.934402 213.85256 
L 413.660374 123.89347 
L 414.386345 96.688791 
L 415.112317 170.974712 
L 415.838289 173.662016 
L 416.56426 190.165743 
L 417.290232 112.50708 
L 418.016204 191.160188 
L 418.742176 93.627066 
L 419.468147 93.286339 
L 420.194119 165.331872 
L 420.920091 126.794441 
L 421.646062 107.295561 
L 422.372034 124.954129 
L 423.098006 171.767194 
L 423.823977 108.256241 
L 424.549949 175.328186 
L 425.275921 93.633025 
L 426.001893 182.819499 
L 426.727864 171.612768 
L 427.453836 183.889854 
L 428.179808 84.567934 
L 428.905779 177.344099 
L 429.631751 117.349853 
L 430.357723 110.709696 
L 431.083695 106.517993 
L 431.809666 94.003175 
L 432.535638 101.597517 
L 433.26161 96.245272 
L 433.987581 87.114915 
L 434.713553 144.958804 
L 435.439525 74.608491 
L 436.165496 71.652839 
L 436.891468 154.02139 
L 437.61744 79.262191 
L 438.343412 162.827538 
L 439.069383 97.806918 
L 439.795355 172.677176 
L 440.521327 68.193344 
L 441.247298 158.457727 
L 441.97327 122.415516 
L 442.699242 68.214912 
L 443.425213 130.598642 
L 444.151185 70.802807 
L 444.877157 95.23193 
L 445.603129 94.132162 
L 446.3291 149.55732 
L 447.055072 175.011176 
L 447.781044 60.226244 
L 448.507015 91.331317 
L 449.232987 138.535585 
L 449.958959 99.149294 
L 450.68493 78.713878 
L 451.410902 64.360498 
L 452.136874 173.053059 
L 452.862846 150.893167 
L 453.588817 62.031562 
L 454.314789 135.334858 
L 455.040761 95.972662 
L 455.766732 80.906964 
L 456.492704 142.113006 
L 457.218676 148.284524 
L 457.944648 76.788379 
L 458.670619 125.013588 
L 459.396591 47.255384 
L 459.396591 47.255384 
" style="fill:none;stroke:#2ca02c;stroke-linecap:square;stroke-width:1.5;"/>
   </g>
   <g id="line2d_4">
    <path clip-path="url(#p097b5a6cf4)" d="M 53.578409 259.106098 
L 55.030352 150.209959 
L 55.756324 214.912858 
L 56.482296 236.564019 
L 57.208268 263.829869 
L 57.934239 264.4878 
L 58.660211 235.32467 
L 59.386183 251.871124 
L 60.112154 189.372727 
L 60.838126 233.902458 
L 61.564098 233.620237 
L 62.29007 226.961751 
L 63.016041 257.21472 
L 63.742013 196.784311 
L 64.467985 222.522372 
L 65.193956 240.344194 
L 65.919928 144.438278 
L 66.6459 230.075272 
L 67.371871 173.048071 
L 68.097843 148.86607 
L 68.823815 253.951396 
L 69.549787 190.923747 
L 70.275758 197.82132 
L 71.00173 245.104979 
L 71.727702 231.880315 
L 72.453673 162.123963 
L 73.179645 139.108098 
L 73.905617 240.025869 
L 74.631588 197.326014 
L 75.35756 136.029668 
L 76.083532 229.385241 
L 76.809504 243.064736 
L 77.535475 224.333186 
L 78.261447 155.785238 
L 78.987419 173.633364 
L 79.71339 243.674758 
L 80.439362 261.467942 
L 81.165334 258.075317 
L 81.891305 260.249321 
L 82.617277 243.071207 
L 83.343249 183.486425 
L 84.069221 219.566619 
L 84.795192 264.897751 
L 85.521164 266.670089 
L 86.247136 177.977873 
L 86.973107 210.432917 
L 87.699079 164.676449 
L 88.425051 197.305222 
L 89.151023 255.346558 
L 89.876994 212.223864 
L 90.602966 217.101527 
L 91.328938 248.351137 
L 92.054909 245.486053 
L 92.780881 247.40757 
L 93.506853 246.212234 
L 94.232824 169.283139 
L 94.958796 149.60497 
L 95.684768 221.758441 
L 96.41074 257.857786 
L 97.136711 258.964608 
L 97.862683 197.698982 
L 98.588655 240.573543 
L 99.314626 242.222193 
L 100.040598 164.807385 
L 100.76657 146.865296 
L 101.492541 253.335079 
L 102.218513 250.775986 
L 102.944485 262.180381 
L 103.670457 258.995397 
L 104.396428 183.276182 
L 105.1224 166.542466 
L 105.848372 246.506136 
L 106.574343 259.86996 
L 107.300315 265.073668 
L 108.026287 265.902028 
L 108.752258 244.11444 
L 109.47823 237.217131 
L 110.204202 253.002138 
L 110.930174 258.599109 
L 111.656145 188.183135 
L 112.382117 210.567575 
L 113.108089 268.903685 
L 113.83406 271.686731 
L 114.560032 181.633537 
L 115.286004 144.309448 
L 116.737947 241.440464 
L 117.463919 247.746079 
L 118.189891 224.299909 
L 118.915862 235.786151 
L 119.641834 172.078047 
L 120.367806 138.948244 
L 121.093777 245.928223 
L 121.819749 256.49745 
L 122.545721 192.035489 
L 123.271693 232.61001 
L 123.997664 256.100622 
L 124.723636 222.258937 
L 125.449608 257.646064 
L 126.175579 263.153612 
L 126.901551 176.698271 
L 127.627523 229.248443 
L 128.353494 198.369219 
L 129.079466 211.514371 
L 129.805438 256.90439 
L 130.53141 247.895205 
L 131.257381 263.209588 
L 131.983353 265.796856 
L 132.709325 245.878967 
L 133.435296 257.979899 
L 134.88724 133.473881 
L 135.613211 250.053317 
L 136.339183 261.160342 
L 137.065155 265.385141 
L 137.791127 274.120174 
L 138.517098 258.001304 
L 139.24307 236.258633 
L 139.969042 191.327845 
L 141.420985 264.554798 
L 142.146957 267.306668 
L 142.872929 251.091522 
L 143.5989 239.190982 
L 144.324872 262.768985 
L 145.050844 262.144573 
L 145.776815 175.234984 
L 146.502787 130.517282 
L 147.228759 248.212577 
L 147.95473 260.777057 
L 148.680702 250.487839 
L 150.132646 222.595778 
L 150.858617 239.640743 
L 151.584589 261.051852 
L 152.310561 243.003793 
L 153.036532 247.441686 
L 153.762504 249.522334 
L 154.488476 261.258168 
L 155.214447 269.867519 
L 155.940419 251.208609 
L 156.666391 254.35694 
L 157.392363 252.799581 
L 158.118334 177.29616 
L 158.844306 203.482435 
L 159.570278 254.667557 
L 160.296249 263.717414 
L 161.022221 260.025924 
L 161.748193 272.043584 
L 162.474164 273.829469 
L 163.200136 272.910991 
L 163.926108 267.053029 
L 164.65208 205.070162 
L 165.378051 221.998369 
L 166.104023 169.819867 
L 167.555966 266.671967 
L 168.281938 259.815372 
L 169.00791 230.001266 
L 169.733882 217.232297 
L 170.459853 239.35729 
L 171.185825 236.162257 
L 171.911797 256.232493 
L 172.637768 256.957195 
L 173.36374 243.496165 
L 174.089712 252.798853 
L 174.815683 218.289847 
L 175.541655 161.90463 
L 176.267627 134.952167 
L 176.993599 240.362982 
L 177.71957 258.537463 
L 178.445542 168.136206 
L 179.171514 204.017455 
L 179.897485 261.849126 
L 180.623457 238.740466 
L 182.0754 263.906587 
L 182.801372 263.09921 
L 183.527344 241.190346 
L 184.253316 169.539623 
L 184.979287 231.202338 
L 185.705259 199.485686 
L 186.431231 143.439555 
L 187.157202 214.660964 
L 187.883174 176.263043 
L 188.609146 162.94361 
L 190.061089 261.320916 
L 190.787061 253.943888 
L 191.513033 249.750663 
L 192.239004 192.228237 
L 192.964976 152.932505 
L 193.690948 205.954007 
L 194.416919 239.158737 
L 195.142891 175.747283 
L 195.868863 131.471796 
L 196.594835 134.238895 
L 197.320806 205.57172 
L 198.046778 236.190599 
L 198.77275 180.758457 
L 199.498721 168.450595 
L 200.224693 216.62098 
L 200.950665 184.851034 
L 201.676636 236.813604 
L 202.402608 241.974977 
L 203.12858 242.330008 
L 203.854552 251.237379 
L 204.580523 198.39633 
L 205.306495 240.299587 
L 206.032467 262.224074 
L 206.758438 238.603886 
L 207.48441 194.561618 
L 208.210382 171.208894 
L 208.936353 252.072345 
L 209.662325 263.515949 
L 210.388297 233.586068 
L 211.114269 243.62416 
L 211.84024 236.256802 
L 212.566212 236.659723 
L 213.292184 210.750103 
L 214.018155 234.68637 
L 214.744127 251.193611 
L 215.470099 238.932511 
L 216.922042 251.298718 
L 217.648014 193.296062 
L 218.373986 237.56166 
L 219.099957 263.120872 
L 219.825929 232.246508 
L 220.551901 182.605143 
L 221.277872 235.013545 
L 222.003844 237.945443 
L 222.729816 229.189702 
L 223.455788 256.16607 
L 224.181759 235.856647 
L 224.907731 230.481492 
L 225.633703 175.944014 
L 226.359674 209.40092 
L 227.085646 230.342913 
L 227.811618 263.721891 
L 228.537589 240.497439 
L 229.263561 247.725558 
L 229.989533 235.288021 
L 230.715505 248.028027 
L 231.441476 249.956509 
L 232.167448 224.729957 
L 232.89342 241.870471 
L 233.619391 181.816692 
L 234.345363 171.520281 
L 235.071335 223.027591 
L 235.797306 258.333209 
L 236.523278 244.260828 
L 237.24925 235.647864 
L 237.975222 217.694983 
L 238.701193 248.194891 
L 239.427165 147.650243 
L 240.153137 184.116507 
L 240.879108 255.159163 
L 241.60508 169.299255 
L 242.331052 181.958854 
L 243.057023 240.960104 
L 243.782995 186.663848 
L 244.508967 215.757278 
L 245.234939 157.883941 
L 245.96091 147.298138 
L 246.686882 210.382729 
L 247.412854 239.230233 
L 248.138825 235.933199 
L 248.864797 234.442249 
L 249.590769 187.820589 
L 250.316741 155.477745 
L 251.042712 229.275353 
L 251.768684 233.925414 
L 252.494656 164.693177 
L 253.220627 235.125633 
L 253.946599 171.013722 
L 254.672571 145.549436 
L 255.398542 210.15159 
L 256.124514 174.261406 
L 256.850486 155.946564 
L 257.576458 237.329395 
L 258.302429 183.675944 
L 259.028401 191.139111 
L 260.480344 250.519182 
L 261.206316 176.705283 
L 261.932288 224.415641 
L 262.658259 234.394357 
L 263.384231 206.404673 
L 264.110203 243.709427 
L 264.836175 233.97484 
L 265.562146 228.857984 
L 266.288118 231.277058 
L 267.01409 230.065707 
L 267.740061 178.504941 
L 268.466033 182.654674 
L 269.192005 203.813436 
L 269.917977 234.535275 
L 270.643948 224.385459 
L 271.36992 219.998246 
L 272.095892 239.93007 
L 272.821863 248.669563 
L 273.547835 237.374951 
L 274.273807 259.010097 
L 274.999778 235.083932 
L 275.72575 189.220205 
L 276.451722 214.102319 
L 277.177694 171.519813 
L 277.903665 182.978038 
L 278.629637 217.133611 
L 279.355609 183.153147 
L 280.08158 217.010448 
L 280.807552 166.598586 
L 281.533524 162.488467 
L 282.259495 184.030695 
L 282.985467 219.183023 
L 283.711439 243.915926 
L 285.163382 249.09776 
L 285.889354 254.06816 
L 286.615326 236.856103 
L 287.341297 249.745138 
L 288.067269 236.090317 
L 288.793241 245.451333 
L 289.519212 235.308951 
L 290.245184 246.064472 
L 290.971156 254.455927 
L 291.697128 256.234973 
L 292.423099 257.232108 
L 293.149071 262.573555 
L 293.875043 240.841793 
L 294.601014 252.458834 
L 295.326986 171.690015 
L 296.052958 213.051852 
L 296.77893 236.431875 
L 297.504901 240.174858 
L 298.230873 263.038228 
L 298.956845 261.736992 
L 299.682816 231.159784 
L 300.408788 167.276051 
L 301.13476 194.362952 
L 301.860731 136.913566 
L 302.586703 137.556541 
L 303.312675 178.67109 
L 304.038647 240.31495 
L 304.764618 245.787844 
L 305.49059 254.26156 
L 306.216562 243.265727 
L 306.942533 236.10683 
L 307.668505 227.776092 
L 308.394477 248.029914 
L 309.120448 252.213821 
L 309.84642 249.797968 
L 310.572392 231.479511 
L 311.298364 227.593659 
L 312.024335 153.481489 
L 312.750307 215.954681 
L 313.476279 254.969336 
L 314.928222 219.478636 
L 315.654194 249.631117 
L 316.380165 182.624251 
L 317.106137 142.875175 
L 317.832109 223.050631 
L 318.558081 250.640839 
L 319.284052 255.816784 
L 320.010024 193.543926 
L 320.735996 144.617751 
L 321.461967 164.790605 
L 322.187939 231.987057 
L 322.913911 211.708748 
L 323.639883 224.881525 
L 324.365854 140.305362 
L 325.091826 197.444603 
L 325.817798 240.366939 
L 326.543769 186.455967 
L 327.269741 226.04834 
L 327.995713 227.018182 
L 328.721684 161.006461 
L 329.447656 156.715544 
L 330.173628 211.15181 
L 330.8996 162.478907 
L 331.625571 133.799825 
L 332.351543 140.733488 
L 333.077515 156.704152 
L 333.803486 230.741118 
L 334.529458 218.434164 
L 335.25543 150.693775 
L 335.981401 162.882327 
L 336.707373 231.700685 
L 337.433345 226.288967 
L 338.159317 149.060745 
L 338.885288 217.72543 
L 339.61126 194.444937 
L 340.337232 136.252191 
L 341.063203 242.081055 
L 341.789175 117.567173 
L 342.515147 191.230271 
L 343.241118 123.575114 
L 343.96709 120.462848 
L 344.693062 155.45284 
L 345.419034 170.275613 
L 346.145005 202.540663 
L 346.870977 218.046649 
L 347.596949 162.684707 
L 348.32292 193.617915 
L 349.048892 232.504093 
L 349.774864 133.666026 
L 350.500836 184.804364 
L 351.226807 154.075194 
L 351.952779 225.133864 
L 353.404722 195.37605 
L 354.130694 185.682729 
L 354.856666 238.978994 
L 355.582637 246.766684 
L 356.308609 163.085868 
L 357.034581 116.596063 
L 357.760553 222.680072 
L 358.486524 171.398876 
L 359.212496 102.042322 
L 359.938468 140.282786 
L 360.664439 220.066507 
L 361.390411 218.486478 
L 362.116383 202.460385 
L 362.842354 213.475385 
L 363.568326 148.573124 
L 364.294298 186.986845 
L 365.02027 134.340365 
L 365.746241 118.804988 
L 366.472213 214.556913 
L 367.198185 155.62819 
L 367.924156 223.705322 
L 368.650128 220.24637 
L 370.102071 113.611413 
L 370.828043 121.835012 
L 371.554015 218.665967 
L 372.279987 198.862704 
L 373.005958 134.139343 
L 373.73193 197.540202 
L 374.457902 207.693516 
L 375.183873 203.840902 
L 375.909845 218.949806 
L 376.635817 198.141628 
L 377.361789 228.43202 
L 378.08776 207.351317 
L 378.813732 159.532581 
L 379.539704 198.488098 
L 380.265675 191.078277 
L 380.991647 135.191594 
L 381.717619 183.936332 
L 382.44359 154.288545 
L 383.169562 170.213044 
L 383.895534 209.732402 
L 384.621506 140.630975 
L 385.347477 120.480623 
L 386.073449 207.58532 
L 386.799421 208.527281 
L 387.525392 187.446532 
L 388.251364 221.363791 
L 388.977336 219.351344 
L 389.703307 162.238577 
L 390.429279 144.126193 
L 391.155251 196.069996 
L 391.881223 213.219906 
L 392.607194 211.363992 
L 393.333166 200.462121 
L 394.059138 215.809879 
L 394.785109 185.260579 
L 395.511081 222.208314 
L 396.237053 199.685598 
L 396.963024 155.94698 
L 397.688996 222.080067 
L 398.414968 210.214974 
L 399.14094 208.102416 
L 399.866911 216.914494 
L 400.592883 220.244167 
L 401.318855 222.950064 
L 402.044826 205.19675 
L 402.770798 202.491074 
L 403.49677 142.40331 
L 404.222742 194.603735 
L 404.948713 121.345505 
L 405.674685 202.230294 
L 406.400657 222.43258 
L 407.126628 136.082265 
L 407.8526 197.025203 
L 408.578572 216.743819 
L 409.304543 198.344646 
L 410.030515 204.212255 
L 410.756487 218.686517 
L 411.482459 143.80171 
L 412.20843 179.11031 
L 412.934402 204.252529 
L 413.660374 111.167253 
L 414.386345 181.173875 
L 415.112317 194.74911 
L 415.838289 206.184005 
L 416.56426 113.731494 
L 417.290232 96.262637 
L 418.016204 116.277365 
L 418.742176 94.818003 
L 419.468147 116.003969 
L 420.194119 173.153366 
L 420.920091 147.734738 
L 421.646062 107.648317 
L 422.372034 108.705711 
L 423.098006 170.531137 
L 423.823977 135.619601 
L 424.549949 152.47438 
L 425.275921 121.422965 
L 426.001893 181.985523 
L 426.727864 188.377592 
L 427.453836 182.238872 
L 428.179808 77.708532 
L 428.905779 103.270747 
L 429.631751 117.451732 
L 430.357723 176.210891 
L 431.083695 120.291851 
L 431.809666 151.361899 
L 432.535638 110.316305 
L 433.26161 156.50837 
L 433.987581 94.192813 
L 434.713553 99.160504 
L 435.439525 91.173059 
L 436.165496 76.982282 
L 436.891468 155.339395 
L 437.61744 103.040921 
L 438.343412 168.466257 
L 439.069383 114.907504 
L 439.795355 169.634416 
L 440.521327 78.718456 
L 441.247298 159.174512 
L 441.97327 133.54837 
L 442.699242 64.221604 
L 443.425213 62.378603 
L 444.151185 62.753473 
L 444.877157 135.314788 
L 445.603129 96.783841 
L 446.3291 101.085632 
L 447.055072 184.38476 
L 447.781044 58.969483 
L 448.507015 129.957242 
L 449.232987 129.785395 
L 449.958959 146.963385 
L 450.68493 74.599082 
L 451.410902 57.014496 
L 452.136874 172.224336 
L 452.862846 152.303183 
L 453.588817 61.980881 
L 454.314789 79.999702 
L 455.040761 92.238879 
L 455.766732 119.207933 
L 456.492704 131.879329 
L 457.218676 81.306332 
L 457.944648 71.568888 
L 458.670619 59.739514 
L 459.396591 37.013315 
L 459.396591 37.013315 
" style="fill:none;stroke:#000000;stroke-dasharray:3.7,1.6;stroke-dashoffset:0;"/>
   </g>
   <g id="matplotlib.axis_1">
    <g id="xtick_1">
     <g id="line2d_5">
      <defs>
       <path d="M 0 0 
L 0 3.5 
" id="me8467a5249" style="stroke:#000000;stroke-width:0.8;"/>
      </defs>
      <g>
       <use style="stroke:#000000;stroke-width:0.8;" x="74.631588" xlink:href="#me8467a5249" y="294.118125"/>
      </g>
     </g>
     <g id="text_1">
      <!-- 100 -->
      <defs>
       <path d="M 12.40625 8.296875 
L 28.515625 8.296875 
L 28.515625 63.921875 
L 10.984375 60.40625 
L 10.984375 69.390625 
L 28.421875 72.90625 
L 38.28125 72.90625 
L 38.28125 8.296875 
L 54.390625 8.296875 
L 54.390625 0 
L 12.40625 0 
z
" id="DejaVuSans-49"/>
       <path d="M 31.78125 66.40625 
Q 24.171875 66.40625 20.328125 58.90625 
Q 16.5 51.421875 16.5 36.375 
Q 16.5 21.390625 20.328125 13.890625 
Q 24.171875 6.390625 31.78125 6.390625 
Q 39.453125 6.390625 43.28125 13.890625 
Q 47.125 21.390625 47.125 36.375 
Q 47.125 51.421875 43.28125 58.90625 
Q 39.453125 66.40625 31.78125 66.40625 
z
M 31.78125 74.21875 
Q 44.046875 74.21875 50.515625 64.515625 
Q 56.984375 54.828125 56.984375 36.375 
Q 56.984375 17.96875 50.515625 8.265625 
Q 44.046875 -1.421875 31.78125 -1.421875 
Q 19.53125 -1.421875 13.0625 8.265625 
Q 6.59375 17.96875 6.59375 36.375 
Q 6.59375 54.828125 13.0625 64.515625 
Q 19.53125 74.21875 31.78125 74.21875 
z
" id="DejaVuSans-48"/>
      </defs>
      <g transform="translate(65.087838 308.716563)scale(0.1 -0.1)">
       <use xlink:href="#DejaVuSans-49"/>
       <use x="63.623047" xlink:href="#DejaVuSans-48"/>
       <use x="127.246094" xlink:href="#DejaVuSans-48"/>
      </g>
     </g>
    </g>
    <g id="xtick_2">
     <g id="line2d_6">
      <g>
       <use style="stroke:#000000;stroke-width:0.8;" x="147.228759" xlink:href="#me8467a5249" y="294.118125"/>
      </g>
     </g>
     <g id="text_2">
      <!-- 200 -->
      <defs>
       <path d="M 19.1875 8.296875 
L 53.609375 8.296875 
L 53.609375 0 
L 7.328125 0 
L 7.328125 8.296875 
Q 12.9375 14.109375 22.625 23.890625 
Q 32.328125 33.6875 34.8125 36.53125 
Q 39.546875 41.84375 41.421875 45.53125 
Q 43.3125 49.21875 43.3125 52.78125 
Q 43.3125 58.59375 39.234375 62.25 
Q 35.15625 65.921875 28.609375 65.921875 
Q 23.96875 65.921875 18.8125 64.3125 
Q 13.671875 62.703125 7.8125 59.421875 
L 7.8125 69.390625 
Q 13.765625 71.78125 18.9375 73 
Q 24.125 74.21875 28.421875 74.21875 
Q 39.75 74.21875 46.484375 68.546875 
Q 53.21875 62.890625 53.21875 53.421875 
Q 53.21875 48.921875 51.53125 44.890625 
Q 49.859375 40.875 45.40625 35.40625 
Q 44.1875 33.984375 37.640625 27.21875 
Q 31.109375 20.453125 19.1875 8.296875 
z
" id="DejaVuSans-50"/>
      </defs>
      <g transform="translate(137.685009 308.716563)scale(0.1 -0.1)">
       <use xlink:href="#DejaVuSans-50"/>
       <use x="63.623047" xlink:href="#DejaVuSans-48"/>
       <use x="127.246094" xlink:href="#DejaVuSans-48"/>
      </g>
     </g>
    </g>
    <g id="xtick_3">
     <g id="line2d_7">
      <g>
       <use style="stroke:#000000;stroke-width:0.8;" x="219.825929" xlink:href="#me8467a5249" y="294.118125"/>
      </g>
     </g>
     <g id="text_3">
      <!-- 300 -->
      <defs>
       <path d="M 40.578125 39.3125 
Q 47.65625 37.796875 51.625 33 
Q 55.609375 28.21875 55.609375 21.1875 
Q 55.609375 10.40625 48.1875 4.484375 
Q 40.765625 -1.421875 27.09375 -1.421875 
Q 22.515625 -1.421875 17.65625 -0.515625 
Q 12.796875 0.390625 7.625 2.203125 
L 7.625 11.71875 
Q 11.71875 9.328125 16.59375 8.109375 
Q 21.484375 6.890625 26.8125 6.890625 
Q 36.078125 6.890625 40.9375 10.546875 
Q 45.796875 14.203125 45.796875 21.1875 
Q 45.796875 27.640625 41.28125 31.265625 
Q 36.765625 34.90625 28.71875 34.90625 
L 20.21875 34.90625 
L 20.21875 43.015625 
L 29.109375 43.015625 
Q 36.375 43.015625 40.234375 45.921875 
Q 44.09375 48.828125 44.09375 54.296875 
Q 44.09375 59.90625 40.109375 62.90625 
Q 36.140625 65.921875 28.71875 65.921875 
Q 24.65625 65.921875 20.015625 65.03125 
Q 15.375 64.15625 9.8125 62.3125 
L 9.8125 71.09375 
Q 15.4375 72.65625 20.34375 73.4375 
Q 25.25 74.21875 29.59375 74.21875 
Q 40.828125 74.21875 47.359375 69.109375 
Q 53.90625 64.015625 53.90625 55.328125 
Q 53.90625 49.265625 50.4375 45.09375 
Q 46.96875 40.921875 40.578125 39.3125 
z
" id="DejaVuSans-51"/>
      </defs>
      <g transform="translate(210.282179 308.716563)scale(0.1 -0.1)">
       <use xlink:href="#DejaVuSans-51"/>
       <use x="63.623047" xlink:href="#DejaVuSans-48"/>
       <use x="127.246094" xlink:href="#DejaVuSans-48"/>
      </g>
     </g>
    </g>
    <g id="xtick_4">
     <g id="line2d_8">
      <g>
       <use style="stroke:#000000;stroke-width:0.8;" x="292.423099" xlink:href="#me8467a5249" y="294.118125"/>
      </g>
     </g>
     <g id="text_4">
      <!-- 400 -->
      <defs>
       <path d="M 37.796875 64.3125 
L 12.890625 25.390625 
L 37.796875 25.390625 
z
M 35.203125 72.90625 
L 47.609375 72.90625 
L 47.609375 25.390625 
L 58.015625 25.390625 
L 58.015625 17.1875 
L 47.609375 17.1875 
L 47.609375 0 
L 37.796875 0 
L 37.796875 17.1875 
L 4.890625 17.1875 
L 4.890625 26.703125 
z
" id="DejaVuSans-52"/>
      </defs>
      <g transform="translate(282.879349 308.716563)scale(0.1 -0.1)">
       <use xlink:href="#DejaVuSans-52"/>
       <use x="63.623047" xlink:href="#DejaVuSans-48"/>
       <use x="127.246094" xlink:href="#DejaVuSans-48"/>
      </g>
     </g>
    </g>
    <g id="xtick_5">
     <g id="line2d_9">
      <g>
       <use style="stroke:#000000;stroke-width:0.8;" x="365.02027" xlink:href="#me8467a5249" y="294.118125"/>
      </g>
     </g>
     <g id="text_5">
      <!-- 500 -->
      <defs>
       <path d="M 10.796875 72.90625 
L 49.515625 72.90625 
L 49.515625 64.59375 
L 19.828125 64.59375 
L 19.828125 46.734375 
Q 21.96875 47.46875 24.109375 47.828125 
Q 26.265625 48.1875 28.421875 48.1875 
Q 40.625 48.1875 47.75 41.5 
Q 54.890625 34.8125 54.890625 23.390625 
Q 54.890625 11.625 47.5625 5.09375 
Q 40.234375 -1.421875 26.90625 -1.421875 
Q 22.3125 -1.421875 17.546875 -0.640625 
Q 12.796875 0.140625 7.71875 1.703125 
L 7.71875 11.625 
Q 12.109375 9.234375 16.796875 8.0625 
Q 21.484375 6.890625 26.703125 6.890625 
Q 35.15625 6.890625 40.078125 11.328125 
Q 45.015625 15.765625 45.015625 23.390625 
Q 45.015625 31 40.078125 35.4375 
Q 35.15625 39.890625 26.703125 39.890625 
Q 22.75 39.890625 18.8125 39.015625 
Q 14.890625 38.140625 10.796875 36.28125 
z
" id="DejaVuSans-53"/>
      </defs>
      <g transform="translate(355.47652 308.716563)scale(0.1 -0.1)">
       <use xlink:href="#DejaVuSans-53"/>
       <use x="63.623047" xlink:href="#DejaVuSans-48"/>
       <use x="127.246094" xlink:href="#DejaVuSans-48"/>
      </g>
     </g>
    </g>
    <g id="xtick_6">
     <g id="line2d_10">
      <g>
       <use style="stroke:#000000;stroke-width:0.8;" x="437.61744" xlink:href="#me8467a5249" y="294.118125"/>
      </g>
     </g>
     <g id="text_6">
      <!-- 600 -->
      <defs>
       <path d="M 33.015625 40.375 
Q 26.375 40.375 22.484375 35.828125 
Q 18.609375 31.296875 18.609375 23.390625 
Q 18.609375 15.53125 22.484375 10.953125 
Q 26.375 6.390625 33.015625 6.390625 
Q 39.65625 6.390625 43.53125 10.953125 
Q 47.40625 15.53125 47.40625 23.390625 
Q 47.40625 31.296875 43.53125 35.828125 
Q 39.65625 40.375 33.015625 40.375 
z
M 52.59375 71.296875 
L 52.59375 62.3125 
Q 48.875 64.0625 45.09375 64.984375 
Q 41.3125 65.921875 37.59375 65.921875 
Q 27.828125 65.921875 22.671875 59.328125 
Q 17.53125 52.734375 16.796875 39.40625 
Q 19.671875 43.65625 24.015625 45.921875 
Q 28.375 48.1875 33.59375 48.1875 
Q 44.578125 48.1875 50.953125 41.515625 
Q 57.328125 34.859375 57.328125 23.390625 
Q 57.328125 12.15625 50.6875 5.359375 
Q 44.046875 -1.421875 33.015625 -1.421875 
Q 20.359375 -1.421875 13.671875 8.265625 
Q 6.984375 17.96875 6.984375 36.375 
Q 6.984375 53.65625 15.1875 63.9375 
Q 23.390625 74.21875 37.203125 74.21875 
Q 40.921875 74.21875 44.703125 73.484375 
Q 48.484375 72.75 52.59375 71.296875 
z
" id="DejaVuSans-54"/>
      </defs>
      <g transform="translate(428.07369 308.716563)scale(0.1 -0.1)">
       <use xlink:href="#DejaVuSans-54"/>
       <use x="63.623047" xlink:href="#DejaVuSans-48"/>
       <use x="127.246094" xlink:href="#DejaVuSans-48"/>
      </g>
     </g>
    </g>
    <g id="text_7">
     <!-- Tempo -->
     <defs>
      <path d="M -0.296875 72.90625 
L 61.375 72.90625 
L 61.375 64.59375 
L 35.5 64.59375 
L 35.5 0 
L 25.59375 0 
L 25.59375 64.59375 
L -0.296875 64.59375 
z
" id="DejaVuSans-84"/>
      <path d="M 56.203125 29.59375 
L 56.203125 25.203125 
L 14.890625 25.203125 
Q 15.484375 15.921875 20.484375 11.0625 
Q 25.484375 6.203125 34.421875 6.203125 
Q 39.59375 6.203125 44.453125 7.46875 
Q 49.3125 8.734375 54.109375 11.28125 
L 54.109375 2.78125 
Q 49.265625 0.734375 44.1875 -0.34375 
Q 39.109375 -1.421875 33.890625 -1.421875 
Q 20.796875 -1.421875 13.15625 6.1875 
Q 5.515625 13.8125 5.515625 26.8125 
Q 5.515625 40.234375 12.765625 48.109375 
Q 20.015625 56 32.328125 56 
Q 43.359375 56 49.78125 48.890625 
Q 56.203125 41.796875 56.203125 29.59375 
z
M 47.21875 32.234375 
Q 47.125 39.59375 43.09375 43.984375 
Q 39.0625 48.390625 32.421875 48.390625 
Q 24.90625 48.390625 20.390625 44.140625 
Q 15.875 39.890625 15.1875 32.171875 
z
" id="DejaVuSans-101"/>
      <path d="M 52 44.1875 
Q 55.375 50.25 60.0625 53.125 
Q 64.75 56 71.09375 56 
Q 79.640625 56 84.28125 50.015625 
Q 88.921875 44.046875 88.921875 33.015625 
L 88.921875 0 
L 79.890625 0 
L 79.890625 32.71875 
Q 79.890625 40.578125 77.09375 44.375 
Q 74.3125 48.1875 68.609375 48.1875 
Q 61.625 48.1875 57.5625 43.546875 
Q 53.515625 38.921875 53.515625 30.90625 
L 53.515625 0 
L 44.484375 0 
L 44.484375 32.71875 
Q 44.484375 40.625 41.703125 44.40625 
Q 38.921875 48.1875 33.109375 48.1875 
Q 26.21875 48.1875 22.15625 43.53125 
Q 18.109375 38.875 18.109375 30.90625 
L 18.109375 0 
L 9.078125 0 
L 9.078125 54.6875 
L 18.109375 54.6875 
L 18.109375 46.1875 
Q 21.1875 51.21875 25.484375 53.609375 
Q 29.78125 56 35.6875 56 
Q 41.65625 56 45.828125 52.96875 
Q 50 49.953125 52 44.1875 
z
" id="DejaVuSans-109"/>
      <path d="M 18.109375 8.203125 
L 18.109375 -20.796875 
L 9.078125 -20.796875 
L 9.078125 54.6875 
L 18.109375 54.6875 
L 18.109375 46.390625 
Q 20.953125 51.265625 25.265625 53.625 
Q 29.59375 56 35.59375 56 
Q 45.5625 56 51.78125 48.09375 
Q 58.015625 40.1875 58.015625 27.296875 
Q 58.015625 14.40625 51.78125 6.484375 
Q 45.5625 -1.421875 35.59375 -1.421875 
Q 29.59375 -1.421875 25.265625 0.953125 
Q 20.953125 3.328125 18.109375 8.203125 
z
M 48.6875 27.296875 
Q 48.6875 37.203125 44.609375 42.84375 
Q 40.53125 48.484375 33.40625 48.484375 
Q 26.265625 48.484375 22.1875 42.84375 
Q 18.109375 37.203125 18.109375 27.296875 
Q 18.109375 17.390625 22.1875 11.75 
Q 26.265625 6.109375 33.40625 6.109375 
Q 40.53125 6.109375 44.609375 11.75 
Q 48.6875 17.390625 48.6875 27.296875 
z
" id="DejaVuSans-112"/>
      <path d="M 30.609375 48.390625 
Q 23.390625 48.390625 19.1875 42.75 
Q 14.984375 37.109375 14.984375 27.296875 
Q 14.984375 17.484375 19.15625 11.84375 
Q 23.34375 6.203125 30.609375 6.203125 
Q 37.796875 6.203125 41.984375 11.859375 
Q 46.1875 17.53125 46.1875 27.296875 
Q 46.1875 37.015625 41.984375 42.703125 
Q 37.796875 48.390625 30.609375 48.390625 
z
M 30.609375 56 
Q 42.328125 56 49.015625 48.375 
Q 55.71875 40.765625 55.71875 27.296875 
Q 55.71875 13.875 49.015625 6.21875 
Q 42.328125 -1.421875 30.609375 -1.421875 
Q 18.84375 -1.421875 12.171875 6.21875 
Q 5.515625 13.875 5.515625 27.296875 
Q 5.515625 40.765625 12.171875 48.375 
Q 18.84375 56 30.609375 56 
z
" id="DejaVuSans-111"/>
     </defs>
     <g transform="translate(240.103125 322.394687)scale(0.1 -0.1)">
      <use xlink:href="#DejaVuSans-84"/>
      <use x="44.083984" xlink:href="#DejaVuSans-101"/>
      <use x="105.607422" xlink:href="#DejaVuSans-109"/>
      <use x="203.019531" xlink:href="#DejaVuSans-112"/>
      <use x="266.496094" xlink:href="#DejaVuSans-111"/>
     </g>
    </g>
   </g>
   <g id="matplotlib.axis_2">
    <g id="ytick_1">
     <g id="line2d_11">
      <defs>
       <path d="M 0 0 
L -3.5 0 
" id="mfea9e026d7" style="stroke:#000000;stroke-width:0.8;"/>
      </defs>
      <g>
       <use style="stroke:#000000;stroke-width:0.8;" x="33.2875" xlink:href="#mfea9e026d7" y="264.510365"/>
      </g>
     </g>
     <g id="text_8">
      <!-- 100 -->
      <g transform="translate(7.2 268.309584)scale(0.1 -0.1)">
       <use xlink:href="#DejaVuSans-49"/>
       <use x="63.623047" xlink:href="#DejaVuSans-48"/>
       <use x="127.246094" xlink:href="#DejaVuSans-48"/>
      </g>
     </g>
    </g>
    <g id="ytick_2">
     <g id="line2d_12">
      <g>
       <use style="stroke:#000000;stroke-width:0.8;" x="33.2875" xlink:href="#mfea9e026d7" y="229.930122"/>
      </g>
     </g>
     <g id="text_9">
      <!-- 200 -->
      <g transform="translate(7.2 233.729341)scale(0.1 -0.1)">
       <use xlink:href="#DejaVuSans-50"/>
       <use x="63.623047" xlink:href="#DejaVuSans-48"/>
       <use x="127.246094" xlink:href="#DejaVuSans-48"/>
      </g>
     </g>
    </g>
    <g id="ytick_3">
     <g id="line2d_13">
      <g>
       <use style="stroke:#000000;stroke-width:0.8;" x="33.2875" xlink:href="#mfea9e026d7" y="195.349879"/>
      </g>
     </g>
     <g id="text_10">
      <!-- 300 -->
      <g transform="translate(7.2 199.149097)scale(0.1 -0.1)">
       <use xlink:href="#DejaVuSans-51"/>
       <use x="63.623047" xlink:href="#DejaVuSans-48"/>
       <use x="127.246094" xlink:href="#DejaVuSans-48"/>
      </g>
     </g>
    </g>
    <g id="ytick_4">
     <g id="line2d_14">
      <g>
       <use style="stroke:#000000;stroke-width:0.8;" x="33.2875" xlink:href="#mfea9e026d7" y="160.769636"/>
      </g>
     </g>
     <g id="text_11">
      <!-- 400 -->
      <g transform="translate(7.2 164.568854)scale(0.1 -0.1)">
       <use xlink:href="#DejaVuSans-52"/>
       <use x="63.623047" xlink:href="#DejaVuSans-48"/>
       <use x="127.246094" xlink:href="#DejaVuSans-48"/>
      </g>
     </g>
    </g>
    <g id="ytick_5">
     <g id="line2d_15">
      <g>
       <use style="stroke:#000000;stroke-width:0.8;" x="33.2875" xlink:href="#mfea9e026d7" y="126.189392"/>
      </g>
     </g>
     <g id="text_12">
      <!-- 500 -->
      <g transform="translate(7.2 129.988611)scale(0.1 -0.1)">
       <use xlink:href="#DejaVuSans-53"/>
       <use x="63.623047" xlink:href="#DejaVuSans-48"/>
       <use x="127.246094" xlink:href="#DejaVuSans-48"/>
      </g>
     </g>
    </g>
    <g id="ytick_6">
     <g id="line2d_16">
      <g>
       <use style="stroke:#000000;stroke-width:0.8;" x="33.2875" xlink:href="#mfea9e026d7" y="91.609149"/>
      </g>
     </g>
     <g id="text_13">
      <!-- 600 -->
      <g transform="translate(7.2 95.408368)scale(0.1 -0.1)">
       <use xlink:href="#DejaVuSans-54"/>
       <use x="63.623047" xlink:href="#DejaVuSans-48"/>
       <use x="127.246094" xlink:href="#DejaVuSans-48"/>
      </g>
     </g>
    </g>
    <g id="ytick_7">
     <g id="line2d_17">
      <g>
       <use style="stroke:#000000;stroke-width:0.8;" x="33.2875" xlink:href="#mfea9e026d7" y="57.028906"/>
      </g>
     </g>
     <g id="text_14">
      <!-- 700 -->
      <defs>
       <path d="M 8.203125 72.90625 
L 55.078125 72.90625 
L 55.078125 68.703125 
L 28.609375 0 
L 18.3125 0 
L 43.21875 64.59375 
L 8.203125 64.59375 
z
" id="DejaVuSans-55"/>
      </defs>
      <g transform="translate(7.2 60.828125)scale(0.1 -0.1)">
       <use xlink:href="#DejaVuSans-55"/>
       <use x="63.623047" xlink:href="#DejaVuSans-48"/>
       <use x="127.246094" xlink:href="#DejaVuSans-48"/>
      </g>
     </g>
    </g>
    <g id="ytick_8">
     <g id="line2d_18">
      <g>
       <use style="stroke:#000000;stroke-width:0.8;" x="33.2875" xlink:href="#mfea9e026d7" y="22.448663"/>
      </g>
     </g>
     <g id="text_15">
      <!-- 800 -->
      <defs>
       <path d="M 31.78125 34.625 
Q 24.75 34.625 20.71875 30.859375 
Q 16.703125 27.09375 16.703125 20.515625 
Q 16.703125 13.921875 20.71875 10.15625 
Q 24.75 6.390625 31.78125 6.390625 
Q 38.8125 6.390625 42.859375 10.171875 
Q 46.921875 13.96875 46.921875 20.515625 
Q 46.921875 27.09375 42.890625 30.859375 
Q 38.875 34.625 31.78125 34.625 
z
M 21.921875 38.8125 
Q 15.578125 40.375 12.03125 44.71875 
Q 8.5 49.078125 8.5 55.328125 
Q 8.5 64.0625 14.71875 69.140625 
Q 20.953125 74.21875 31.78125 74.21875 
Q 42.671875 74.21875 48.875 69.140625 
Q 55.078125 64.0625 55.078125 55.328125 
Q 55.078125 49.078125 51.53125 44.71875 
Q 48 40.375 41.703125 38.8125 
Q 48.828125 37.15625 52.796875 32.3125 
Q 56.78125 27.484375 56.78125 20.515625 
Q 56.78125 9.90625 50.3125 4.234375 
Q 43.84375 -1.421875 31.78125 -1.421875 
Q 19.734375 -1.421875 13.25 4.234375 
Q 6.78125 9.90625 6.78125 20.515625 
Q 6.78125 27.484375 10.78125 32.3125 
Q 14.796875 37.15625 21.921875 38.8125 
z
M 18.3125 54.390625 
Q 18.3125 48.734375 21.84375 45.5625 
Q 25.390625 42.390625 31.78125 42.390625 
Q 38.140625 42.390625 41.71875 45.5625 
Q 45.3125 48.734375 45.3125 54.390625 
Q 45.3125 60.0625 41.71875 63.234375 
Q 38.140625 66.40625 31.78125 66.40625 
Q 25.390625 66.40625 21.84375 63.234375 
Q 18.3125 60.0625 18.3125 54.390625 
z
" id="DejaVuSans-56"/>
      </defs>
      <g transform="translate(7.2 26.247882)scale(0.1 -0.1)">
       <use xlink:href="#DejaVuSans-56"/>
       <use x="63.623047" xlink:href="#DejaVuSans-48"/>
       <use x="127.246094" xlink:href="#DejaVuSans-48"/>
      </g>
     </g>
    </g>
   </g>
   <g id="patch_3">
    <path d="M 33.2875 294.118125 
L 33.2875 22.318125 
" style="fill:none;stroke:#000000;stroke-linecap:square;stroke-linejoin:miter;stroke-width:0.8;"/>
   </g>
   <g id="patch_4">
    <path d="M 33.2875 294.118125 
L 479.6875 294.118125 
" style="fill:none;stroke:#000000;stroke-linecap:square;stroke-linejoin:miter;stroke-width:0.8;"/>
   </g>
   <g id="text_16">
    <!-- Tax_Total -->
    <defs>
     <path d="M 34.28125 27.484375 
Q 23.390625 27.484375 19.1875 25 
Q 14.984375 22.515625 14.984375 16.5 
Q 14.984375 11.71875 18.140625 8.90625 
Q 21.296875 6.109375 26.703125 6.109375 
Q 34.1875 6.109375 38.703125 11.40625 
Q 43.21875 16.703125 43.21875 25.484375 
L 43.21875 27.484375 
z
M 52.203125 31.203125 
L 52.203125 0 
L 43.21875 0 
L 43.21875 8.296875 
Q 40.140625 3.328125 35.546875 0.953125 
Q 30.953125 -1.421875 24.3125 -1.421875 
Q 15.921875 -1.421875 10.953125 3.296875 
Q 6 8.015625 6 15.921875 
Q 6 25.140625 12.171875 29.828125 
Q 18.359375 34.515625 30.609375 34.515625 
L 43.21875 34.515625 
L 43.21875 35.40625 
Q 43.21875 41.609375 39.140625 45 
Q 35.0625 48.390625 27.6875 48.390625 
Q 23 48.390625 18.546875 47.265625 
Q 14.109375 46.140625 10.015625 43.890625 
L 10.015625 52.203125 
Q 14.9375 54.109375 19.578125 55.046875 
Q 24.21875 56 28.609375 56 
Q 40.484375 56 46.34375 49.84375 
Q 52.203125 43.703125 52.203125 31.203125 
z
" id="DejaVuSans-97"/>
     <path d="M 54.890625 54.6875 
L 35.109375 28.078125 
L 55.90625 0 
L 45.3125 0 
L 29.390625 21.484375 
L 13.484375 0 
L 2.875 0 
L 24.125 28.609375 
L 4.6875 54.6875 
L 15.28125 54.6875 
L 29.78125 35.203125 
L 44.28125 54.6875 
z
" id="DejaVuSans-120"/>
     <path d="M 50.984375 -16.609375 
L 50.984375 -23.578125 
L -0.984375 -23.578125 
L -0.984375 -16.609375 
z
" id="DejaVuSans-95"/>
     <path d="M 18.3125 70.21875 
L 18.3125 54.6875 
L 36.8125 54.6875 
L 36.8125 47.703125 
L 18.3125 47.703125 
L 18.3125 18.015625 
Q 18.3125 11.328125 20.140625 9.421875 
Q 21.96875 7.515625 27.59375 7.515625 
L 36.8125 7.515625 
L 36.8125 0 
L 27.59375 0 
Q 17.1875 0 13.234375 3.875 
Q 9.28125 7.765625 9.28125 18.015625 
L 9.28125 47.703125 
L 2.6875 47.703125 
L 2.6875 54.6875 
L 9.28125 54.6875 
L 9.28125 70.21875 
z
" id="DejaVuSans-116"/>
     <path d="M 9.421875 75.984375 
L 18.40625 75.984375 
L 18.40625 0 
L 9.421875 0 
z
" id="DejaVuSans-108"/>
    </defs>
    <g transform="translate(229.572812 16.318125)scale(0.12 -0.12)">
     <use xlink:href="#DejaVuSans-84"/>
     <use x="44.583984" xlink:href="#DejaVuSans-97"/>
     <use x="105.863281" xlink:href="#DejaVuSans-120"/>
     <use x="165.042969" xlink:href="#DejaVuSans-95"/>
     <use x="215.042969" xlink:href="#DejaVuSans-84"/>
     <use x="259.126953" xlink:href="#DejaVuSans-111"/>
     <use x="320.308594" xlink:href="#DejaVuSans-116"/>
     <use x="359.517578" xlink:href="#DejaVuSans-97"/>
     <use x="420.796875" xlink:href="#DejaVuSans-108"/>
    </g>
   </g>
   <g id="legend_1">
    <g id="patch_5">
     <path d="M 486.6875 190.104844 
L 561.085938 190.104844 
Q 563.085938 190.104844 563.085938 188.104844 
L 563.085938 128.331406 
Q 563.085938 126.331406 561.085938 126.331406 
L 486.6875 126.331406 
Q 484.6875 126.331406 484.6875 128.331406 
L 484.6875 188.104844 
Q 484.6875 190.104844 486.6875 190.104844 
z
" style="fill:#ffffff;opacity:0.8;stroke:#cccccc;stroke-linejoin:miter;"/>
    </g>
    <g id="line2d_19">
     <path d="M 488.6875 134.429844 
L 508.6875 134.429844 
" style="fill:none;stroke:#000000;stroke-dasharray:3.7,1.6;stroke-dashoffset:0;"/>
    </g>
    <g id="line2d_20"/>
    <g id="text_17">
     <!-- Baseline -->
     <defs>
      <path d="M 19.671875 34.8125 
L 19.671875 8.109375 
L 35.5 8.109375 
Q 43.453125 8.109375 47.28125 11.40625 
Q 51.125 14.703125 51.125 21.484375 
Q 51.125 28.328125 47.28125 31.5625 
Q 43.453125 34.8125 35.5 34.8125 
z
M 19.671875 64.796875 
L 19.671875 42.828125 
L 34.28125 42.828125 
Q 41.5 42.828125 45.03125 45.53125 
Q 48.578125 48.25 48.578125 53.8125 
Q 48.578125 59.328125 45.03125 62.0625 
Q 41.5 64.796875 34.28125 64.796875 
z
M 9.8125 72.90625 
L 35.015625 72.90625 
Q 46.296875 72.90625 52.390625 68.21875 
Q 58.5 63.53125 58.5 54.890625 
Q 58.5 48.1875 55.375 44.234375 
Q 52.25 40.28125 46.1875 39.3125 
Q 53.46875 37.75 57.5 32.78125 
Q 61.53125 27.828125 61.53125 20.40625 
Q 61.53125 10.640625 54.890625 5.3125 
Q 48.25 0 35.984375 0 
L 9.8125 0 
z
" id="DejaVuSans-66"/>
      <path d="M 44.28125 53.078125 
L 44.28125 44.578125 
Q 40.484375 46.53125 36.375 47.5 
Q 32.28125 48.484375 27.875 48.484375 
Q 21.1875 48.484375 17.84375 46.4375 
Q 14.5 44.390625 14.5 40.28125 
Q 14.5 37.15625 16.890625 35.375 
Q 19.28125 33.59375 26.515625 31.984375 
L 29.59375 31.296875 
Q 39.15625 29.25 43.1875 25.515625 
Q 47.21875 21.78125 47.21875 15.09375 
Q 47.21875 7.46875 41.1875 3.015625 
Q 35.15625 -1.421875 24.609375 -1.421875 
Q 20.21875 -1.421875 15.453125 -0.5625 
Q 10.6875 0.296875 5.421875 2 
L 5.421875 11.28125 
Q 10.40625 8.6875 15.234375 7.390625 
Q 20.0625 6.109375 24.8125 6.109375 
Q 31.15625 6.109375 34.5625 8.28125 
Q 37.984375 10.453125 37.984375 14.40625 
Q 37.984375 18.0625 35.515625 20.015625 
Q 33.0625 21.96875 24.703125 23.78125 
L 21.578125 24.515625 
Q 13.234375 26.265625 9.515625 29.90625 
Q 5.8125 33.546875 5.8125 39.890625 
Q 5.8125 47.609375 11.28125 51.796875 
Q 16.75 56 26.8125 56 
Q 31.78125 56 36.171875 55.265625 
Q 40.578125 54.546875 44.28125 53.078125 
z
" id="DejaVuSans-115"/>
      <path d="M 9.421875 54.6875 
L 18.40625 54.6875 
L 18.40625 0 
L 9.421875 0 
z
M 9.421875 75.984375 
L 18.40625 75.984375 
L 18.40625 64.59375 
L 9.421875 64.59375 
z
" id="DejaVuSans-105"/>
      <path d="M 54.890625 33.015625 
L 54.890625 0 
L 45.90625 0 
L 45.90625 32.71875 
Q 45.90625 40.484375 42.875 44.328125 
Q 39.84375 48.1875 33.796875 48.1875 
Q 26.515625 48.1875 22.3125 43.546875 
Q 18.109375 38.921875 18.109375 30.90625 
L 18.109375 0 
L 9.078125 0 
L 9.078125 54.6875 
L 18.109375 54.6875 
L 18.109375 46.1875 
Q 21.34375 51.125 25.703125 53.5625 
Q 30.078125 56 35.796875 56 
Q 45.21875 56 50.046875 50.171875 
Q 54.890625 44.34375 54.890625 33.015625 
z
" id="DejaVuSans-110"/>
     </defs>
     <g transform="translate(516.6875 137.929844)scale(0.1 -0.1)">
      <use xlink:href="#DejaVuSans-66"/>
      <use x="68.603516" xlink:href="#DejaVuSans-97"/>
      <use x="129.882812" xlink:href="#DejaVuSans-115"/>
      <use x="181.982422" xlink:href="#DejaVuSans-101"/>
      <use x="243.505859" xlink:href="#DejaVuSans-108"/>
      <use x="271.289062" xlink:href="#DejaVuSans-105"/>
      <use x="299.072266" xlink:href="#DejaVuSans-110"/>
      <use x="362.451172" xlink:href="#DejaVuSans-101"/>
     </g>
    </g>
    <g id="line2d_21">
     <path d="M 488.6875 149.107969 
L 508.6875 149.107969 
" style="fill:none;stroke:#1f77b4;stroke-linecap:square;stroke-width:1.5;"/>
    </g>
    <g id="line2d_22"/>
    <g id="text_18">
     <!-- $\Downarrow \sigma_\psi$ -->
     <defs>
      <path d="M 36.765625 14.3125 
L 41.9375 9.234375 
L 47.015625 14.3125 
L 47.015625 72.90625 
L 52.875 72.90625 
L 52.875 20.171875 
L 57.46875 24.75 
L 63.328125 18.890625 
L 44.09375 -0.34375 
L 39.703125 -0.34375 
L 20.5625 18.890625 
L 26.421875 24.75 
L 30.90625 20.171875 
L 30.90625 72.90625 
L 36.765625 72.90625 
z
" id="DejaVuSans-8659"/>
      <path d="M 34.671875 47.5625 
Q 27.25 47.5625 22.21875 42.1875 
Q 16.890625 36.578125 15.140625 27.296875 
Q 13.1875 17.484375 16.3125 11.8125 
Q 19.390625 6.203125 26.65625 6.203125 
Q 33.84375 6.203125 39.109375 11.859375 
Q 44.4375 17.53125 46.34375 27.296875 
Q 48.046875 36.234375 45.015625 42.1875 
Q 42.1875 47.5625 34.671875 47.5625 
z
M 36.078125 54.734375 
L 65.921875 54.6875 
L 64.15625 45.703125 
L 54.109375 45.703125 
Q 57.90625 38.09375 55.859375 27.296875 
Q 53.21875 13.875 45.0625 6.25 
Q 36.859375 -1.421875 25.140625 -1.421875 
Q 13.375 -1.421875 8.203125 6.25 
Q 3.03125 13.875 5.671875 27.296875 
Q 8.25 40.765625 16.40625 48.390625 
Q 23.1875 54.734375 36.078125 54.734375 
z
" id="DejaVuSans-Oblique-963"/>
      <path d="M 24.859375 -1.21875 
Q 13.921875 0.59375 9.625 5.328125 
Q 4.34375 11.140625 6.640625 23 
L 12.796875 54.6875 
L 21.875 54.6875 
L 15.765625 23.34375 
Q 14.0625 14.40625 17.484375 10.6875 
Q 20.515625 7.46875 26.421875 6.78125 
L 35.6875 54.6875 
L 44.625 54.6875 
L 35.359375 6.84375 
Q 41.890625 7.515625 45.75 10.75 
Q 50.734375 14.84375 52.390625 23.390625 
L 58.453125 54.6875 
L 67.53125 54.6875 
L 61.375 23.046875 
Q 58.984375 10.75 51.5625 5.375 
Q 44.875 0.53125 33.796875 -1.171875 
L 29.984375 -20.796875 
L 21.046875 -20.796875 
z
" id="DejaVuSans-Oblique-968"/>
     </defs>
     <g transform="translate(516.6875 152.607969)scale(0.1 -0.1)">
      <use transform="translate(19.482422 0.09375)" xlink:href="#DejaVuSans-8659"/>
      <use transform="translate(122.753906 0.09375)" xlink:href="#DejaVuSans-Oblique-963"/>
      <use transform="translate(186.132812 -16.3125)scale(0.7)" xlink:href="#DejaVuSans-Oblique-968"/>
     </g>
    </g>
    <g id="line2d_23">
     <path d="M 488.6875 164.806406 
L 508.6875 164.806406 
" style="fill:none;stroke:#ff7f0e;stroke-linecap:square;stroke-width:1.5;"/>
    </g>
    <g id="line2d_24"/>
    <g id="text_19">
     <!-- $\Downarrow s_\psi$ -->
     <defs>
      <path d="M 50 53.078125 
L 48.296875 44.578125 
Q 44.734375 46.53125 40.765625 47.5 
Q 36.8125 48.484375 32.625 48.484375 
Q 25.53125 48.484375 21.453125 46.0625 
Q 17.390625 43.65625 17.390625 39.5 
Q 17.390625 34.671875 26.859375 32.078125 
Q 27.59375 31.890625 27.9375 31.78125 
L 30.8125 30.90625 
Q 39.796875 28.421875 42.796875 25.6875 
Q 45.796875 22.953125 45.796875 18.21875 
Q 45.796875 9.515625 38.890625 4.046875 
Q 31.984375 -1.421875 20.796875 -1.421875 
Q 16.453125 -1.421875 11.671875 -0.578125 
Q 6.890625 0.25 1.125 2 
L 2.875 11.28125 
Q 7.8125 8.734375 12.59375 7.421875 
Q 17.390625 6.109375 21.78125 6.109375 
Q 28.375 6.109375 32.5 8.9375 
Q 36.625 11.765625 36.625 16.109375 
Q 36.625 20.796875 25.78125 23.6875 
L 24.859375 23.921875 
L 21.78125 24.703125 
Q 14.9375 26.515625 11.765625 29.46875 
Q 8.59375 32.421875 8.59375 37.015625 
Q 8.59375 45.75 15.15625 50.875 
Q 21.734375 56 33.015625 56 
Q 37.453125 56 41.671875 55.265625 
Q 45.90625 54.546875 50 53.078125 
z
" id="DejaVuSans-Oblique-115"/>
     </defs>
     <g transform="translate(516.6875 168.306406)scale(0.1 -0.1)">
      <use transform="translate(19.482422 0.09375)" xlink:href="#DejaVuSans-8659"/>
      <use transform="translate(122.753906 0.09375)" xlink:href="#DejaVuSans-Oblique-115"/>
      <use transform="translate(174.853516 -16.3125)scale(0.7)" xlink:href="#DejaVuSans-Oblique-968"/>
     </g>
    </g>
    <g id="line2d_25">
     <path d="M 488.6875 180.504844 
L 508.6875 180.504844 
" style="fill:none;stroke:#2ca02c;stroke-linecap:square;stroke-width:1.5;"/>
    </g>
    <g id="line2d_26"/>
    <g id="text_20">
     <!-- $\Uparrow \eta$ -->
     <defs>
      <path d="M 36.765625 58.59375 
L 36.765625 0 
L 30.90625 0 
L 30.90625 52.734375 
L 26.421875 48.140625 
L 20.5625 54 
L 39.703125 73.25 
L 44.09375 73.25 
L 63.328125 54 
L 57.46875 48.140625 
L 52.875 52.734375 
L 52.875 0 
L 47.015625 0 
L 47.015625 58.59375 
L 41.9375 63.671875 
z
" id="DejaVuSans-8657"/>
      <path d="M 57.859375 33.015625 
L 47.40625 -20.796875 
L 38.421875 -20.796875 
L 48.828125 32.71875 
Q 50.34375 40.484375 48.046875 44.34375 
Q 45.796875 48.1875 39.75 48.1875 
Q 32.46875 48.1875 27.34375 43.5625 
Q 22.265625 38.921875 20.703125 30.90625 
L 14.703125 0 
L 5.671875 0 
L 16.3125 54.6875 
L 25.34375 54.6875 
L 23.6875 46.1875 
Q 27.828125 51.125 32.71875 53.5625 
Q 37.546875 56 43.265625 56 
Q 52.6875 56 56.390625 50.203125 
Q 60.0625 44.34375 57.859375 33.015625 
z
" id="DejaVuSans-Oblique-951"/>
     </defs>
     <g transform="translate(516.6875 184.004844)scale(0.1 -0.1)">
      <use transform="translate(19.482422 0.75)" xlink:href="#DejaVuSans-8657"/>
      <use transform="translate(122.753906 0.75)" xlink:href="#DejaVuSans-Oblique-951"/>
     </g>
    </g>
   </g>
  </g>
 </g>
 <defs>
  <clipPath id="p097b5a6cf4">
   <rect height="271.8" width="446.4" x="33.2875" y="22.318125"/>
  </clipPath>
 </defs>
</svg>
