<?xml version="1.0" encoding="utf-8" standalone="no"?>
<!DOCTYPE svg PUBLIC "-//W3C//DTD SVG 1.1//EN"
  "http://www.w3.org/Graphics/SVG/1.1/DTD/svg11.dtd">
<!-- Created with matplotlib (https://matplotlib.org/) -->
<svg height="331.340625pt" version="1.1" viewBox="0 0 575.48125 331.340625" width="575.48125pt" xmlns="http://www.w3.org/2000/svg" xmlns:xlink="http://www.w3.org/1999/xlink">
 <defs>
  <style type="text/css">
*{stroke-linecap:butt;stroke-linejoin:round;}
  </style>
 </defs>
 <g id="figure_1">
  <g id="patch_1">
   <path d="M 0 331.340625 
L 575.48125 331.340625 
L 575.48125 0 
L 0 0 
z
" style="fill:#ffffff;"/>
  </g>
  <g id="axes_1">
   <g id="patch_2">
    <path d="M 38.482813 293.784375 
L 484.882812 293.784375 
L 484.882812 21.984375 
L 38.482813 21.984375 
z
" style="fill:#ffffff;"/>
   </g>
   <g id="line2d_1">
    <path clip-path="url(#p855ef11e78)" d="M 58.773722 223.687409 
L 59.499693 205.124575 
L 60.225665 247.621402 
L 60.951637 152.523495 
L 61.677608 230.709782 
L 62.40358 215.007829 
L 63.129552 215.350542 
L 63.855524 217.561696 
L 64.581495 231.413936 
L 65.307467 202.761215 
L 66.033439 256.883398 
L 66.75941 89.377052 
L 67.485382 242.049528 
L 68.211354 230.404833 
L 68.937325 208.501071 
L 69.663297 198.702934 
L 70.389269 156.86509 
L 71.115241 227.04253 
L 71.841212 197.480675 
L 72.567184 215.579532 
L 73.293156 193.999539 
L 74.019127 181.627517 
L 74.745099 216.43282 
L 75.471071 176.147314 
L 76.197042 223.157513 
L 76.923014 213.525053 
L 77.648986 221.623551 
L 78.374958 246.377328 
L 79.100929 246.506424 
L 79.826901 136.474499 
L 80.552873 251.080355 
L 81.278844 183.28478 
L 82.004816 181.529072 
L 82.730788 160.234284 
L 83.456759 224.312573 
L 84.182731 238.964336 
L 84.908703 239.388085 
L 85.634675 232.822674 
L 86.360646 133.152626 
L 87.086618 165.367718 
L 87.81259 138.883921 
L 88.538561 211.941993 
L 89.264533 175.939729 
L 89.990505 150.00673 
L 90.716477 193.856769 
L 91.442448 188.554995 
L 92.16842 190.788604 
L 92.894392 138.774378 
L 93.620363 198.860265 
L 94.346335 130.084814 
L 95.072307 195.02282 
L 95.798278 136.148061 
L 96.52425 146.149642 
L 97.250222 186.633594 
L 97.976194 101.802413 
L 98.702165 112.618656 
L 99.428137 108.525465 
L 100.154109 229.58881 
L 100.88008 212.920529 
L 101.606052 201.548943 
L 102.332024 197.688303 
L 103.057995 204.623809 
L 103.783967 238.100422 
L 104.509939 74.438607 
L 105.235911 168.315558 
L 105.961882 191.097278 
L 106.687854 234.513961 
L 107.413826 194.96191 
L 108.139797 217.050523 
L 108.865769 217.8496 
L 109.591741 224.166237 
L 110.317712 251.533948 
L 111.043684 247.043392 
L 111.769656 130.027694 
L 112.495628 228.239594 
L 113.221599 217.40138 
L 113.947571 231.592374 
L 114.673543 242.575549 
L 115.399514 219.306044 
L 116.125486 220.360919 
L 116.851458 228.363723 
L 117.57743 249.469091 
L 118.303401 160.920723 
L 119.029373 225.2084 
L 119.755345 230.381171 
L 120.481316 267.627056 
L 121.207288 170.908418 
L 121.93326 259.032157 
L 122.659231 227.58253 
L 123.385203 177.3122 
L 124.111175 245.394637 
L 124.837147 236.212873 
L 125.563118 259.881988 
L 126.28909 257.904963 
L 127.015062 247.169233 
L 127.741033 253.709158 
L 128.467005 267.429748 
L 129.192977 247.195313 
L 129.918948 249.69947 
L 130.64492 211.94484 
L 131.370892 208.274577 
L 132.096864 247.706428 
L 132.822835 264.682771 
L 133.548807 248.464673 
L 134.274779 268.455026 
L 135.00075 202.20106 
L 135.726722 217.819234 
L 136.452694 259.131291 
L 137.904637 237.366703 
L 138.630609 256.011566 
L 139.356581 242.055746 
L 140.082552 271.400106 
L 140.808524 210.396541 
L 141.534496 214.924583 
L 142.260467 244.460773 
L 142.986439 240.018658 
L 143.712411 243.693047 
L 144.438383 161.483935 
L 145.164354 213.958117 
L 145.890326 252.998266 
L 146.616298 232.828037 
L 147.342269 230.076206 
L 148.068241 234.573462 
L 148.794213 235.107532 
L 149.520184 245.130363 
L 150.246156 238.292761 
L 150.972128 239.890899 
L 151.6981 271.272124 
L 152.424071 258.398155 
L 153.150043 253.224674 
L 153.876015 244.857714 
L 154.601986 251.428611 
L 155.327958 186.1284 
L 156.05393 254.573219 
L 156.779901 255.723801 
L 157.505873 248.998478 
L 158.231845 240.929007 
L 158.957817 242.663028 
L 159.683788 244.792774 
L 160.40976 248.471854 
L 161.135732 229.286554 
L 161.861703 249.924259 
L 162.587675 241.2794 
L 163.313647 236.763647 
L 164.039618 269.677183 
L 164.76559 247.125356 
L 165.491562 256.069722 
L 166.217534 154.329326 
L 166.943505 197.328405 
L 167.669477 151.144936 
L 168.395449 150.539791 
L 169.12142 200.675411 
L 169.847392 215.316394 
L 170.573364 248.55275 
L 171.299336 81.916356 
L 172.025307 224.775797 
L 172.751279 125.76618 
L 173.477251 203.557325 
L 174.203222 205.087272 
L 174.929194 214.798726 
L 175.655166 212.031682 
L 176.381137 210.244626 
L 177.107109 225.047371 
L 177.833081 194.572125 
L 178.559053 198.229703 
L 179.285024 214.354099 
L 180.010996 196.644062 
L 180.736968 232.835643 
L 181.462939 240.75259 
L 182.188911 242.353606 
L 182.914883 126.773594 
L 183.640854 161.848807 
L 184.366826 250.614928 
L 185.092798 220.632008 
L 185.81877 225.885584 
L 186.544741 233.400825 
L 187.270713 229.0632 
L 187.996685 210.068525 
L 188.722656 222.92992 
L 189.448628 226.096371 
L 190.1746 252.844091 
L 190.900571 232.552966 
L 191.626543 246.111114 
L 192.352515 255.802358 
L 193.078487 237.781186 
L 193.804458 259.42698 
L 194.53043 252.333262 
L 195.256402 251.492922 
L 195.982373 245.614834 
L 196.708345 238.309388 
L 197.434317 241.314688 
L 198.160289 260.669829 
L 198.88626 262.862196 
L 199.612232 255.442822 
L 200.338204 253.496546 
L 201.064175 230.410131 
L 201.790147 264.538857 
L 202.516119 270.187176 
L 203.24209 263.419505 
L 203.968062 262.239231 
L 204.694034 270.948063 
L 205.420006 265.140398 
L 206.145977 262.152458 
L 206.871949 229.393001 
L 207.597921 228.294715 
L 208.323892 255.407695 
L 209.049864 255.517239 
L 209.775836 246.022543 
L 210.501807 223.564241 
L 211.227779 207.732041 
L 211.953751 245.886451 
L 212.679723 179.489566 
L 213.405694 223.772837 
L 214.131666 246.815633 
L 214.857638 232.860516 
L 215.583609 235.813297 
L 216.309581 242.648517 
L 217.035553 221.548135 
L 217.761524 218.52364 
L 218.487496 235.016049 
L 219.213468 247.753193 
L 219.93944 227.436189 
L 220.665411 233.722455 
L 221.391383 241.522469 
L 222.117355 235.890536 
L 222.843326 225.247458 
L 223.569298 255.118895 
L 224.29527 229.43022 
L 225.021242 219.602251 
L 225.747213 173.106092 
L 226.473185 249.342875 
L 227.199157 220.117182 
L 227.925128 156.594603 
L 228.6511 172.85969 
L 229.377072 207.659456 
L 230.103043 223.480809 
L 230.829015 104.592251 
L 231.554987 198.9466 
L 232.280959 125.763018 
L 233.00693 202.547264 
L 233.732902 190.957655 
L 234.458874 105.207754 
L 235.184845 104.208546 
L 235.910817 187.77714 
L 236.636789 37.236371 
L 237.36276 180.869284 
L 238.088732 170.547423 
L 238.814704 180.256865 
L 239.540676 217.163614 
L 240.266647 82.315786 
L 240.992619 113.455065 
L 241.718591 160.357424 
L 242.444562 186.078555 
L 243.170534 178.998914 
L 243.896506 187.387777 
L 244.622477 158.957172 
L 245.348449 160.154984 
L 246.074421 177.72155 
L 246.800393 173.467686 
L 247.526364 144.352145 
L 248.252336 184.807234 
L 248.978308 181.459534 
L 249.704279 138.078585 
L 250.430251 180.916882 
L 251.156223 144.145904 
L 251.882195 148.0606 
L 252.608166 116.08427 
L 253.334138 176.400121 
L 254.06011 183.932335 
L 254.786081 89.6452 
L 255.512053 213.913173 
L 256.238025 215.686436 
L 256.963996 198.604868 
L 257.689968 205.254496 
L 258.41594 227.372639 
L 259.141912 111.00723 
L 259.867883 244.308845 
L 260.593855 214.736484 
L 261.319827 218.641202 
L 262.045798 231.433537 
L 262.77177 176.691063 
L 263.497742 219.205574 
L 264.223713 188.970844 
L 264.949685 226.562371 
L 265.675657 231.906906 
L 266.401629 224.542605 
L 267.1276 252.194999 
L 267.853572 161.099864 
L 268.579544 192.084757 
L 269.305515 241.605517 
L 270.031487 222.492886 
L 270.757459 231.575272 
L 271.48343 230.845653 
L 272.209402 229.367858 
L 273.661346 254.331411 
L 274.387317 254.443874 
L 275.113289 247.31961 
L 275.839261 188.168549 
L 276.565232 248.692176 
L 277.291204 241.652959 
L 278.017176 238.88516 
L 278.743148 241.229538 
L 279.469119 248.751086 
L 280.195091 243.492296 
L 280.921063 252.530856 
L 281.647034 264.10663 
L 282.373006 257.337262 
L 283.098978 269.673882 
L 283.824949 244.278076 
L 284.550921 224.622318 
L 285.276893 242.146897 
L 286.002865 220.611483 
L 286.728836 243.198371 
L 287.454808 259.661854 
L 288.18078 223.103872 
L 288.906751 223.970756 
L 289.632723 250.536624 
L 290.358695 234.716127 
L 291.084666 243.170814 
L 291.810638 191.758577 
L 292.53661 246.18995 
L 293.262582 239.332975 
L 293.988553 234.04953 
L 294.714525 242.382466 
L 295.440497 243.824151 
L 296.166468 239.555737 
L 296.89244 242.749284 
L 297.618412 235.893523 
L 298.344383 241.399187 
L 299.070355 236.77593 
L 299.796327 189.126185 
L 300.522299 242.492049 
L 301.24827 259.474614 
L 301.974242 234.458261 
L 302.700214 238.398417 
L 303.426185 234.562357 
L 304.152157 232.73257 
L 304.878129 235.849955 
L 305.604101 242.236353 
L 306.330072 254.067907 
L 307.056044 243.177112 
L 307.782016 230.051977 
L 309.233959 222.221853 
L 309.959931 242.861433 
L 310.685902 234.840941 
L 311.411874 237.844066 
L 312.137846 184.623351 
L 312.863818 240.385716 
L 313.589789 235.271602 
L 314.315761 227.067846 
L 315.041733 223.090337 
L 315.767704 168.008112 
L 316.493676 232.667073 
L 317.219648 226.544759 
L 317.945619 251.857921 
L 318.671591 215.425585 
L 319.397563 229.01184 
L 320.123535 149.990802 
L 320.849506 228.902294 
L 321.575478 211.416621 
L 322.30145 240.804602 
L 323.027421 187.615138 
L 323.753393 224.396729 
L 324.479365 211.926695 
L 325.205336 217.734729 
L 325.931308 189.515809 
L 326.65728 200.654148 
L 327.383252 188.374716 
L 328.109223 159.10683 
L 328.835195 218.672142 
L 329.561167 138.554002 
L 330.287138 234.743715 
L 331.01311 204.042496 
L 331.739082 202.928855 
L 332.465054 170.977592 
L 333.191025 201.195809 
L 333.916997 214.257535 
L 334.642969 178.92566 
L 335.36894 220.255947 
L 336.094912 210.4083 
L 336.820884 228.959283 
L 337.546855 227.84668 
L 338.272827 185.705857 
L 338.998799 197.920209 
L 339.724771 213.783706 
L 340.450742 217.957972 
L 341.176714 191.754673 
L 341.902686 194.112081 
L 342.628657 215.682029 
L 343.354629 219.202141 
L 344.080601 192.449645 
L 344.806572 179.570489 
L 345.532544 223.038139 
L 346.258516 226.097914 
L 346.984488 218.373272 
L 347.710459 199.73391 
L 348.436431 221.594723 
L 349.162403 201.517543 
L 349.888374 199.007502 
L 350.614346 199.797385 
L 351.340318 200.385328 
L 352.066289 223.573345 
L 352.792261 223.592102 
L 353.518233 196.342127 
L 354.244205 222.46783 
L 354.970176 225.317203 
L 355.696148 206.678816 
L 356.42212 230.76347 
L 357.148091 202.677127 
L 357.874063 225.033906 
L 358.600035 231.1376 
L 359.326007 226.841172 
L 360.051978 232.988983 
L 360.77795 226.654606 
L 361.503922 186.894955 
L 362.229893 244.538436 
L 362.955865 203.052928 
L 363.681837 230.635965 
L 364.407808 204.913426 
L 365.13378 217.567937 
L 365.859752 210.969551 
L 366.585724 229.086092 
L 367.311695 230.016276 
L 368.037667 230.70986 
L 368.763639 230.930308 
L 369.48961 241.71527 
L 370.215582 232.397448 
L 370.941554 217.020238 
L 371.667525 217.920137 
L 372.393497 233.188547 
L 373.119469 215.022135 
L 373.845441 236.475251 
L 374.571412 233.806968 
L 375.297384 212.909156 
L 376.023356 245.483322 
L 376.749327 212.154471 
L 377.475299 213.578986 
L 378.201271 238.066372 
L 378.927242 241.323693 
L 379.653214 232.947518 
L 380.379186 237.602655 
L 381.105158 240.766954 
L 381.831129 235.31272 
L 382.557101 241.035087 
L 383.283073 202.244347 
L 384.009044 214.91094 
L 384.735016 217.758348 
L 385.460988 234.818669 
L 386.18696 233.807862 
L 386.912931 214.763964 
L 387.638903 210.507822 
L 388.364875 215.093487 
L 389.090846 207.608546 
L 389.816818 230.360439 
L 390.54279 210.607696 
L 391.268761 236.224316 
L 391.994733 228.149785 
L 393.446677 230.524921 
L 394.172648 227.106543 
L 394.89862 198.759219 
L 395.624592 236.401636 
L 397.076535 226.780506 
L 397.802507 224.329444 
L 398.528478 229.658116 
L 399.25445 197.56676 
L 399.980422 201.252664 
L 400.706394 198.955328 
L 401.432365 219.726744 
L 402.158337 214.755384 
L 402.884309 228.533161 
L 403.61028 183.35467 
L 404.336252 221.346998 
L 405.062224 183.919229 
L 405.788195 214.267123 
L 406.514167 210.285315 
L 407.240139 213.894067 
L 407.966111 181.872043 
L 408.692082 184.726447 
L 409.418054 194.046927 
L 410.144026 207.70984 
L 410.869997 187.101507 
L 411.595969 176.957949 
L 412.321941 171.256602 
L 413.047913 214.683027 
L 413.773884 198.655372 
L 414.499856 167.900209 
L 415.225828 172.2602 
L 415.951799 165.928941 
L 416.677771 158.215744 
L 417.403743 202.602261 
L 418.129714 149.019788 
L 418.855686 189.843649 
L 419.581658 171.971437 
L 420.30763 163.425138 
L 421.033601 190.327535 
L 421.759573 185.965623 
L 422.485545 199.782339 
L 423.211516 171.165856 
L 423.937488 205.121558 
L 424.66346 179.36302 
L 425.389431 183.718367 
L 426.115403 201.532015 
L 426.841375 180.901737 
L 427.567347 185.453115 
L 428.293318 186.584348 
L 429.01929 204.74753 
L 429.745262 186.085823 
L 430.471233 208.883742 
L 431.197205 189.599173 
L 431.923177 211.16148 
L 432.649148 213.494364 
L 433.37512 213.598428 
L 434.101092 221.218103 
L 434.827064 201.588926 
L 435.553035 225.217942 
L 436.279007 221.713513 
L 437.004979 224.581907 
L 437.73095 226.943584 
L 438.456922 228.838288 
L 439.182894 227.227125 
L 439.908866 217.732456 
L 441.360809 219.529551 
L 442.086781 221.566689 
L 442.812752 218.51804 
L 443.538724 222.766856 
L 444.264696 232.514096 
L 444.990667 219.654161 
L 445.716639 233.575101 
L 446.442611 222.193312 
L 447.168583 233.577766 
L 447.894554 233.945458 
L 448.620526 223.869355 
L 449.346498 226.761985 
L 450.072469 226.226774 
L 450.798441 236.419186 
L 451.524413 226.289598 
L 452.250384 226.002066 
L 452.976356 223.802807 
L 453.702328 227.79176 
L 454.4283 224.401939 
L 455.154271 236.214107 
L 455.880243 221.488633 
L 456.606215 225.273551 
L 457.332186 227.009037 
L 458.058158 233.376725 
L 458.78413 234.161336 
L 459.510101 226.343356 
L 460.236073 225.985328 
L 460.962045 225.141327 
L 461.688017 235.827087 
L 462.413988 235.704272 
L 463.13996 225.502339 
L 463.865932 226.561971 
L 464.591903 226.325313 
L 464.591903 226.325313 
" style="fill:none;stroke:#1f77b4;stroke-linecap:square;stroke-width:1.5;"/>
   </g>
   <g id="line2d_2">
    <path clip-path="url(#p855ef11e78)" d="M 58.773722 218.619537 
L 59.499693 178.953411 
L 60.225665 243.403416 
L 60.951637 212.833315 
L 61.677608 230.439281 
L 62.40358 229.010908 
L 63.129552 212.129312 
L 63.855524 206.273524 
L 64.581495 223.739572 
L 65.307467 149.508468 
L 66.033439 227.054102 
L 66.75941 193.379233 
L 67.485382 208.788176 
L 68.211354 206.25139 
L 68.937325 197.226554 
L 69.663297 243.662382 
L 70.389269 219.100999 
L 71.115241 237.406471 
L 71.841212 261.621091 
L 72.567184 158.780488 
L 73.293156 258.124737 
L 74.019127 230.731635 
L 74.745099 230.039275 
L 75.471071 250.918524 
L 76.197042 252.02459 
L 76.923014 238.861987 
L 77.648986 208.00269 
L 78.374958 242.635099 
L 79.100929 212.493903 
L 79.826901 224.14711 
L 80.552873 222.761185 
L 81.278844 218.463002 
L 82.004816 205.399546 
L 82.730788 208.898634 
L 83.456759 187.172455 
L 84.182731 236.061452 
L 84.908703 229.217584 
L 85.634675 217.384314 
L 86.360646 219.4263 
L 87.086618 210.717195 
L 87.81259 226.702835 
L 88.538561 239.24163 
L 89.264533 244.162699 
L 89.990505 238.864071 
L 90.716477 238.394436 
L 91.442448 242.401011 
L 92.16842 263.852065 
L 92.894392 230.738979 
L 93.620363 265.303757 
L 94.346335 172.246386 
L 95.072307 224.850567 
L 95.798278 201.228867 
L 96.52425 223.756512 
L 97.250222 214.85071 
L 97.976194 219.433053 
L 98.702165 170.944087 
L 100.154109 238.24229 
L 100.88008 229.20326 
L 101.606052 225.45419 
L 102.332024 223.674856 
L 103.057995 227.758552 
L 103.783967 255.078712 
L 104.509939 209.625997 
L 105.235911 218.166796 
L 105.961882 223.433991 
L 106.687854 243.988237 
L 107.413826 217.6541 
L 108.139797 214.043962 
L 108.865769 223.532201 
L 109.591741 226.828368 
L 110.317712 247.513263 
L 111.043684 253.305894 
L 111.769656 236.232993 
L 112.495628 238.70634 
L 113.221599 227.36119 
L 113.947571 164.479751 
L 114.673543 232.429946 
L 115.399514 238.802424 
L 116.125486 153.035058 
L 116.851458 213.386763 
L 117.57743 206.495085 
L 118.303401 205.257315 
L 119.029373 200.995158 
L 119.755345 205.684726 
L 120.481316 252.418132 
L 121.207288 241.912711 
L 121.93326 194.561745 
L 122.659231 183.935405 
L 123.385203 209.062777 
L 124.111175 203.040525 
L 124.837147 175.533483 
L 125.563118 236.474053 
L 126.28909 212.170238 
L 127.015062 167.143951 
L 127.741033 170.176582 
L 128.467005 223.134938 
L 129.192977 189.780987 
L 129.918948 202.742276 
L 130.64492 226.231801 
L 131.370892 180.544419 
L 132.822835 233.978013 
L 133.548807 143.966993 
L 134.274779 229.441566 
L 135.00075 212.307108 
L 135.726722 207.106508 
L 136.452694 218.709569 
L 137.178665 207.378243 
L 137.904637 213.372866 
L 138.630609 217.214985 
L 139.356581 217.72355 
L 140.082552 248.713486 
L 140.808524 245.589063 
L 141.534496 240.569209 
L 142.260467 236.952894 
L 142.986439 240.692699 
L 143.712411 239.000257 
L 144.438383 236.394983 
L 145.164354 251.789373 
L 145.890326 263.670553 
L 146.616298 247.048361 
L 147.342269 247.392294 
L 148.068241 246.942331 
L 148.794213 256.221137 
L 149.520184 255.467888 
L 150.246156 251.796572 
L 150.972128 257.160188 
L 151.6981 279.241271 
L 152.424071 271.931053 
L 153.150043 242.424011 
L 153.876015 240.318746 
L 154.601986 247.286246 
L 155.327958 241.426721 
L 156.05393 249.882532 
L 156.779901 253.228129 
L 157.505873 200.529239 
L 158.231845 243.557813 
L 158.957817 240.59271 
L 159.683788 194.092526 
L 160.40976 224.751489 
L 161.135732 222.119202 
L 161.861703 244.511683 
L 162.587675 229.606374 
L 163.313647 235.794024 
L 164.039618 263.975204 
L 164.76559 250.455568 
L 165.491562 227.127276 
L 166.217534 243.464619 
L 166.943505 227.468082 
L 167.669477 177.449632 
L 168.395449 205.206194 
L 169.12142 169.035433 
L 170.573364 241.806732 
L 171.299336 197.139744 
L 172.025307 247.324825 
L 172.751279 205.666138 
L 173.477251 211.225495 
L 174.203222 219.408855 
L 174.929194 174.171062 
L 175.655166 222.233347 
L 176.381137 136.73341 
L 177.107109 181.413324 
L 177.833081 158.777843 
L 178.559053 128.712115 
L 179.285024 137.858523 
L 180.010996 100.245316 
L 180.736968 155.921455 
L 181.462939 186.447707 
L 182.188911 165.250316 
L 182.914883 121.4314 
L 183.640854 132.759896 
L 184.366826 178.483835 
L 185.092798 143.03237 
L 185.81877 86.213965 
L 186.544741 134.975537 
L 187.270713 112.099539 
L 187.996685 124.353711 
L 188.722656 119.600887 
L 189.448628 168.27001 
L 190.1746 164.821777 
L 190.900571 98.247173 
L 191.626543 167.739499 
L 192.352515 185.248286 
L 193.078487 150.952077 
L 193.804458 200.527746 
L 194.53043 201.963193 
L 195.256402 153.480565 
L 195.982373 175.038217 
L 196.708345 184.586143 
L 197.434317 197.694795 
L 198.160289 231.904072 
L 198.88626 224.188871 
L 199.612232 229.149678 
L 200.338204 220.607419 
L 201.064175 240.957177 
L 201.790147 233.357879 
L 202.516119 250.309607 
L 203.24209 243.478072 
L 203.968062 251.669907 
L 204.694034 255.837803 
L 205.420006 234.245437 
L 206.145977 247.892714 
L 206.871949 233.718833 
L 208.323892 250.824362 
L 209.049864 246.973078 
L 209.775836 218.748216 
L 210.501807 258.885274 
L 211.227779 243.407193 
L 212.679723 254.840709 
L 213.405694 257.507811 
L 214.131666 265.742142 
L 214.857638 257.494146 
L 215.583609 245.116945 
L 216.309581 260.632196 
L 217.035553 226.172977 
L 217.761524 254.173589 
L 218.487496 258.551121 
L 219.213468 264.669971 
L 219.93944 257.218637 
L 221.391383 263.543459 
L 222.117355 261.714915 
L 222.843326 265.214767 
L 223.569298 276.344092 
L 224.29527 266.424978 
L 225.021242 260.83909 
L 225.747213 275.14484 
L 226.473185 276.591794 
L 227.199157 269.738731 
L 227.925128 276.741787 
L 228.6511 269.892851 
L 229.377072 269.357641 
L 230.103043 276.450617 
L 230.829015 270.994816 
L 231.554987 280.976573 
L 232.280959 261.477553 
L 233.00693 274.693595 
L 233.732902 231.378165 
L 234.458874 259.497949 
L 235.184845 261.401757 
L 235.910817 266.602973 
L 236.636789 247.93369 
L 237.36276 238.731027 
L 238.088732 262.870286 
L 238.814704 256.296001 
L 239.540676 274.213558 
L 240.266647 259.177166 
L 240.992619 240.962072 
L 241.718591 228.805963 
L 242.444562 252.438445 
L 243.170534 252.134867 
L 243.896506 257.755871 
L 244.622477 252.835784 
L 245.348449 269.63432 
L 246.074421 252.755482 
L 246.800393 226.612201 
L 247.526364 257.58598 
L 248.252336 237.623361 
L 248.978308 247.211281 
L 249.704279 241.407317 
L 250.430251 240.496814 
L 251.156223 242.300584 
L 251.882195 235.13026 
L 252.608166 239.143721 
L 253.334138 229.852907 
L 254.06011 234.107274 
L 254.786081 236.714332 
L 255.512053 217.764689 
L 256.238025 241.956438 
L 256.963996 230.394988 
L 257.689968 233.324174 
L 258.41594 246.924956 
L 259.141912 232.179768 
L 259.867883 249.099819 
L 260.593855 240.056126 
L 261.319827 243.672045 
L 262.045798 250.492049 
L 262.77177 238.31527 
L 263.497742 231.08966 
L 264.223713 222.426251 
L 264.949685 212.198597 
L 265.675657 226.819802 
L 266.401629 215.47612 
L 267.1276 244.827658 
L 267.853572 184.51759 
L 268.579544 193.706637 
L 269.305515 220.289363 
L 270.031487 193.046837 
L 270.757459 214.628285 
L 271.48343 211.298334 
L 272.209402 201.082332 
L 272.935374 210.083652 
L 273.661346 234.990957 
L 274.387317 221.32819 
L 275.113289 160.902049 
L 275.839261 197.300929 
L 276.565232 194.347788 
L 277.291204 167.548493 
L 278.017176 182.375193 
L 278.743148 188.054024 
L 279.469119 135.417564 
L 280.195091 166.604035 
L 280.921063 136.536265 
L 281.647034 196.886771 
L 282.373006 128.123074 
L 283.098978 196.073252 
L 283.824949 135.001123 
L 284.550921 134.688891 
L 285.276893 175.412614 
L 286.002865 113.676676 
L 286.728836 166.532299 
L 287.454808 152.279337 
L 288.18078 146.466859 
L 288.906751 107.591523 
L 289.632723 126.92727 
L 290.358695 81.066292 
L 291.084666 107.044779 
L 291.810638 53.01588 
L 292.53661 105.559293 
L 293.262582 97.701445 
L 293.988553 110.236737 
L 294.714525 115.661588 
L 295.440497 127.915767 
L 296.166468 135.248584 
L 296.89244 145.634068 
L 297.618412 44.958654 
L 298.344383 87.493341 
L 299.070355 34.33892 
L 299.796327 118.692828 
L 300.522299 95.814562 
L 301.24827 190.545046 
L 301.974242 98.171142 
L 302.700214 107.612595 
L 303.426185 74.776169 
L 304.152157 88.162637 
L 304.878129 59.317866 
L 305.604101 143.086261 
L 306.330072 135.403786 
L 307.056044 120.892224 
L 307.782016 166.144885 
L 309.959931 145.767496 
L 310.685902 160.087568 
L 311.411874 164.702367 
L 312.137846 185.154742 
L 312.863818 171.943349 
L 313.589789 199.145035 
L 314.315761 199.644814 
L 315.041733 146.804795 
L 315.767704 191.794855 
L 316.493676 195.178527 
L 317.219648 199.995559 
L 317.945619 232.441454 
L 318.671591 165.723883 
L 319.397563 205.069312 
L 320.123535 201.733872 
L 320.849506 213.066111 
L 321.575478 209.947481 
L 322.30145 245.115475 
L 323.027421 245.16436 
L 323.753393 241.624678 
L 324.479365 235.554713 
L 325.205336 240.560398 
L 325.931308 259.575515 
L 326.65728 253.617892 
L 327.383252 260.479383 
L 328.109223 222.98054 
L 328.835195 254.281873 
L 329.561167 248.530783 
L 330.287138 262.35922 
L 331.01311 255.95693 
L 331.739082 258.834585 
L 332.465054 264.501996 
L 333.191025 239.271838 
L 334.642969 265.967728 
L 335.36894 265.943175 
L 336.094912 252.974289 
L 336.820884 268.119026 
L 337.546855 267.470456 
L 338.272827 267.529426 
L 338.998799 270.641196 
L 339.724771 268.608291 
L 340.450742 271.445092 
L 341.176714 275.223922 
L 341.902686 275.739914 
L 342.628657 274.640677 
L 343.354629 274.422446 
L 344.080601 277.12352 
L 344.806572 273.789034 
L 346.258516 281.42983 
L 346.984488 278.654056 
L 347.710459 278.488746 
L 348.436431 279.478631 
L 349.162403 272.733 
L 349.888374 280.062881 
L 350.614346 273.196908 
L 351.340318 278.260623 
L 352.066289 277.003203 
L 353.518233 276.84777 
L 354.244205 275.405434 
L 354.970176 276.211239 
L 355.696148 278.666907 
L 356.42212 276.297942 
L 357.148091 271.698802 
L 357.874063 274.547641 
L 358.600035 274.859333 
L 360.051978 267.172645 
L 360.77795 270.243683 
L 361.503922 269.625538 
L 362.229893 273.428808 
L 362.955865 272.382472 
L 363.681837 258.311208 
L 364.407808 263.416859 
L 365.13378 262.706198 
L 365.859752 256.312154 
L 366.585724 254.796056 
L 367.311695 255.611302 
L 368.763639 251.294415 
L 369.48961 250.631763 
L 370.215582 239.861278 
L 370.941554 243.811089 
L 371.667525 241.685037 
L 372.393497 234.375832 
L 373.119469 240.042673 
L 373.845441 219.965626 
L 374.571412 226.350633 
L 375.297384 228.271185 
L 376.023356 234.766407 
L 378.201271 205.387015 
L 378.927242 221.024147 
L 379.653214 205.481097 
L 380.379186 203.6626 
L 381.105158 200.990445 
L 381.831129 181.961369 
L 382.557101 194.71826 
L 383.283073 186.878175 
L 384.009044 172.667603 
L 384.735016 194.871722 
L 385.460988 173.432968 
L 386.18696 160.693634 
L 386.912931 171.872683 
L 387.638903 144.187942 
L 388.364875 152.838569 
L 389.090846 128.787424 
L 389.816818 130.747881 
L 390.54279 140.253571 
L 391.268761 140.329217 
L 391.994733 112.583226 
L 392.720705 106.512148 
L 393.446677 104.2946 
L 394.172648 102.963143 
L 394.89862 103.860984 
L 395.624592 114.988193 
L 396.350563 104.047727 
L 397.076535 98.777391 
L 397.802507 76.104857 
L 398.528478 90.31583 
L 399.25445 74.393272 
L 399.980422 65.248316 
L 400.706394 71.529826 
L 401.432365 63.663513 
L 402.158337 58.606903 
L 402.884309 78.705613 
L 403.61028 44.510628 
L 404.336252 68.638105 
L 405.062224 52.897552 
L 405.788195 61.608362 
L 406.514167 45.769447 
L 407.240139 62.414813 
L 407.966111 71.159814 
L 408.692082 76.43929 
L 409.418054 96.288793 
L 410.144026 82.717361 
L 410.869997 111.041811 
L 411.595969 80.004586 
L 412.321941 82.305451 
L 413.047913 123.886889 
L 413.773884 90.946958 
L 414.499856 92.841828 
L 415.225828 96.977583 
L 416.677771 87.939702 
L 417.403743 125.129377 
L 418.129714 105.955303 
L 418.855686 121.311258 
L 419.581658 144.368044 
L 420.30763 127.891511 
L 421.033601 141.753433 
L 421.759573 144.909338 
L 422.485545 171.447977 
L 423.211516 177.456858 
L 423.937488 176.971101 
L 424.66346 188.805334 
L 425.389431 189.076405 
L 426.115403 192.755314 
L 426.841375 199.111965 
L 428.293318 207.638175 
L 430.471233 220.551662 
L 431.923177 224.485696 
L 434.101092 235.293847 
L 434.827064 235.912167 
L 435.553035 237.166905 
L 436.279007 239.029149 
L 437.004979 241.929683 
L 437.73095 243.625515 
L 438.456922 245.726861 
L 440.634837 250.015261 
L 442.086781 252.028924 
L 442.812752 252.348381 
L 444.264696 255.290957 
L 445.716639 256.646347 
L 446.442611 258.129504 
L 447.168583 257.803636 
L 447.894554 259.020615 
L 448.620526 259.231116 
L 449.346498 261.01679 
L 450.072469 260.686286 
L 450.798441 259.914085 
L 451.524413 260.663006 
L 452.250384 261.900964 
L 452.976356 262.271991 
L 453.702328 262.109505 
L 455.154271 262.949796 
L 455.880243 263.038044 
L 456.606215 262.684282 
L 457.332186 261.974895 
L 458.058158 261.738714 
L 458.78413 262.031801 
L 459.510101 261.939 
L 460.236073 262.240051 
L 460.962045 261.532779 
L 461.688017 260.002179 
L 462.413988 260.353468 
L 463.13996 261.3526 
L 463.865932 259.914302 
L 464.591903 259.096658 
L 464.591903 259.096658 
" style="fill:none;stroke:#ff7f0e;stroke-linecap:square;stroke-width:1.5;"/>
   </g>
   <g id="line2d_3">
    <path clip-path="url(#p855ef11e78)" d="M 58.773722 192.983663 
L 59.499693 193.896753 
L 60.225665 245.65932 
L 60.951637 217.619436 
L 61.677608 225.958335 
L 62.40358 200.846553 
L 63.129552 208.576583 
L 63.855524 140.259442 
L 64.581495 194.290496 
L 65.307467 164.386333 
L 66.033439 228.358316 
L 66.75941 181.217646 
L 67.485382 211.239448 
L 68.211354 202.581492 
L 68.937325 189.518194 
L 69.663297 239.712805 
L 70.389269 122.834536 
L 71.115241 217.058182 
L 71.841212 210.012888 
L 72.567184 187.931757 
L 73.293156 215.519588 
L 74.019127 199.112103 
L 74.745099 197.665567 
L 75.471071 194.058109 
L 76.197042 209.696541 
L 76.923014 181.410577 
L 77.648986 195.935342 
L 78.374958 230.769593 
L 79.100929 216.905308 
L 79.826901 206.088487 
L 80.552873 229.267305 
L 81.278844 234.581918 
L 82.004816 214.696367 
L 82.730788 175.530983 
L 83.456759 199.928882 
L 84.182731 239.779354 
L 84.908703 230.138407 
L 85.634675 216.495135 
L 86.360646 171.063881 
L 87.086618 211.795326 
L 87.81259 193.776874 
L 88.538561 200.652146 
L 89.264533 228.01189 
L 89.990505 201.247723 
L 90.716477 204.032463 
L 91.442448 152.678729 
L 92.16842 228.401843 
L 92.894392 199.979789 
L 93.620363 218.496607 
L 94.346335 207.001102 
L 95.072307 208.487515 
L 95.798278 217.123979 
L 96.52425 189.659929 
L 97.250222 184.499192 
L 97.976194 185.524707 
L 98.702165 193.738869 
L 99.428137 166.636697 
L 100.154109 221.717738 
L 101.606052 204.08827 
L 102.332024 183.286325 
L 103.057995 198.136582 
L 103.783967 240.505708 
L 104.509939 205.376199 
L 105.235911 217.523814 
L 105.961882 240.482996 
L 106.687854 243.333695 
L 107.413826 220.079136 
L 108.139797 227.955145 
L 108.865769 210.0178 
L 109.591741 227.116285 
L 110.317712 250.949856 
L 111.043684 248.876023 
L 111.769656 191.180292 
L 112.495628 233.464963 
L 113.221599 192.119785 
L 113.947571 208.698352 
L 114.673543 236.56647 
L 115.399514 235.150255 
L 116.125486 206.467857 
L 116.851458 230.90934 
L 117.57743 246.519338 
L 118.303401 194.648302 
L 119.029373 221.730275 
L 119.755345 216.95292 
L 120.481316 262.018448 
L 121.207288 250.527592 
L 121.93326 259.545193 
L 122.659231 241.759326 
L 123.385203 248.209516 
L 124.111175 251.581309 
L 124.837147 257.162543 
L 125.563118 268.400922 
L 126.28909 258.134904 
L 127.015062 253.019503 
L 127.741033 241.067708 
L 128.467005 262.653058 
L 129.192977 250.975173 
L 129.918948 254.477855 
L 130.64492 261.919902 
L 131.370892 248.30705 
L 132.096864 257.155351 
L 132.822835 267.490781 
L 133.548807 257.461573 
L 134.274779 274.090768 
L 135.00075 265.013102 
L 135.726722 262.152869 
L 136.452694 266.602727 
L 137.178665 263.491779 
L 137.904637 261.931581 
L 138.630609 268.182281 
L 139.356581 267.261113 
L 140.082552 281.175991 
L 140.808524 268.767926 
L 141.534496 269.619103 
L 142.260467 221.685739 
L 142.986439 256.87279 
L 143.712411 253.064563 
L 144.438383 228.04149 
L 145.164354 259.137996 
L 145.890326 269.940056 
L 146.616298 244.299841 
L 147.342269 250.917069 
L 148.068241 248.952803 
L 148.794213 221.46454 
L 149.520184 248.488251 
L 150.246156 235.854721 
L 150.972128 242.995417 
L 151.6981 269.958168 
L 152.424071 251.326734 
L 153.150043 238.416233 
L 153.876015 238.475337 
L 154.601986 237.976777 
L 155.327958 242.165662 
L 156.05393 235.186562 
L 156.779901 236.822021 
L 157.505873 233.446004 
L 158.231845 236.19509 
L 158.957817 234.349369 
L 159.683788 240.767629 
L 160.40976 231.021105 
L 161.135732 160.946792 
L 161.861703 240.645877 
L 163.313647 161.960303 
L 164.039618 237.525674 
L 164.76559 205.126151 
L 165.491562 212.706933 
L 166.217534 205.342441 
L 166.943505 209.061732 
L 167.669477 190.637193 
L 168.395449 187.904178 
L 169.12142 181.375209 
L 169.847392 112.505089 
L 170.573364 233.939702 
L 171.299336 105.798072 
L 172.025307 227.792612 
L 172.751279 111.794322 
L 173.477251 152.938334 
L 174.203222 159.713351 
L 174.929194 164.680673 
L 175.655166 158.769214 
L 176.381137 144.430382 
L 177.107109 165.58302 
L 177.833081 72.188095 
L 178.559053 121.387141 
L 179.285024 92.665114 
L 180.010996 100.236133 
L 180.736968 126.800074 
L 181.462939 173.044731 
L 182.188911 137.181655 
L 182.914883 116.955638 
L 183.640854 128.975438 
L 184.366826 172.021289 
L 185.092798 126.595763 
L 185.81877 117.33336 
L 186.544741 141.658788 
L 187.270713 74.587843 
L 187.996685 76.025039 
L 188.722656 109.439026 
L 189.448628 96.560965 
L 190.1746 174.542202 
L 190.900571 96.374009 
L 191.626543 180.584021 
L 192.352515 151.509507 
L 193.078487 156.126344 
L 193.804458 176.895823 
L 194.53043 172.751078 
L 195.256402 167.700936 
L 195.982373 159.21322 
L 196.708345 165.402036 
L 197.434317 175.230766 
L 198.160289 190.295889 
L 198.88626 193.764134 
L 199.612232 195.389398 
L 200.338204 189.952568 
L 201.064175 212.573852 
L 201.790147 224.275492 
L 202.516119 215.052031 
L 203.24209 219.656194 
L 203.968062 208.31407 
L 204.694034 226.302702 
L 206.145977 218.787875 
L 206.871949 224.222513 
L 207.597921 222.566733 
L 208.323892 227.810855 
L 209.049864 225.971348 
L 209.775836 227.689312 
L 210.501807 250.274304 
L 211.227779 205.482234 
L 211.953751 225.962626 
L 212.679723 210.339353 
L 213.405694 233.60139 
L 214.131666 240.023241 
L 214.857638 221.416841 
L 215.583609 199.840095 
L 216.309581 234.318781 
L 217.761524 210.497161 
L 218.487496 229.736792 
L 219.213468 222.666237 
L 219.93944 227.574395 
L 220.665411 217.7038 
L 221.391383 234.114135 
L 222.117355 201.018173 
L 222.843326 230.175189 
L 223.569298 251.851972 
L 224.29527 226.963451 
L 225.021242 225.66763 
L 225.747213 246.349294 
L 226.473185 254.208183 
L 227.199157 240.322177 
L 227.925128 241.224396 
L 228.6511 248.910905 
L 229.377072 207.747209 
L 230.103043 248.035085 
L 230.829015 212.836135 
L 231.554987 261.418023 
L 232.280959 220.269508 
L 233.00693 245.41564 
L 233.732902 233.204108 
L 234.458874 217.645806 
L 235.184845 238.179856 
L 235.910817 242.826659 
L 236.636789 225.674926 
L 237.36276 218.791965 
L 238.088732 230.834791 
L 238.814704 231.468818 
L 239.540676 243.122374 
L 240.266647 240.580332 
L 240.992619 233.873482 
L 241.718591 231.669405 
L 242.444562 219.022963 
L 243.170534 217.206152 
L 243.896506 223.35203 
L 244.622477 214.059566 
L 245.348449 249.09731 
L 246.074421 228.143766 
L 246.800393 227.010765 
L 247.526364 240.16392 
L 248.252336 230.611503 
L 248.978308 231.098661 
L 249.704279 238.805214 
L 250.430251 232.32646 
L 251.156223 239.037462 
L 251.882195 235.969368 
L 252.608166 234.472759 
L 254.06011 234.787536 
L 254.786081 233.271627 
L 255.512053 249.706679 
L 256.238025 250.920977 
L 256.963996 215.974694 
L 257.689968 232.366045 
L 258.41594 251.378427 
L 259.141912 236.201904 
L 259.867883 241.442975 
L 260.593855 248.096451 
L 261.319827 242.086725 
L 262.045798 246.068895 
L 262.77177 237.855776 
L 263.497742 238.568003 
L 264.223713 241.883522 
L 264.949685 242.581511 
L 265.675657 242.13769 
L 266.401629 239.330796 
L 267.1276 241.20822 
L 267.853572 234.712427 
L 268.579544 236.582127 
L 269.305515 246.600788 
L 270.031487 237.422311 
L 270.757459 242.012296 
L 271.48343 239.330616 
L 272.209402 215.10946 
L 272.935374 234.083183 
L 273.661346 244.969673 
L 274.387317 247.579818 
L 275.113289 236.901386 
L 275.839261 231.754961 
L 276.565232 217.64755 
L 277.291204 234.128467 
L 278.017176 211.73054 
L 278.743148 218.956345 
L 279.469119 220.395578 
L 280.195091 213.643696 
L 280.921063 222.511453 
L 281.647034 239.125791 
L 282.373006 218.918301 
L 283.098978 245.208983 
L 283.824949 225.876837 
L 284.550921 230.598316 
L 285.276893 242.90038 
L 286.002865 230.061312 
L 286.728836 248.737514 
L 288.18078 241.27762 
L 288.906751 235.322513 
L 289.632723 236.295029 
L 290.358695 235.558487 
L 291.084666 232.205845 
L 291.810638 227.246551 
L 292.53661 228.037693 
L 293.262582 232.865964 
L 293.988553 235.482292 
L 294.714525 231.422204 
L 295.440497 230.185804 
L 296.166468 234.30981 
L 296.89244 231.134932 
L 297.618412 225.398048 
L 298.344383 176.262615 
L 299.796327 219.805137 
L 300.522299 204.168768 
L 301.24827 242.936507 
L 301.974242 193.159204 
L 302.700214 192.301301 
L 303.426185 198.617522 
L 304.152157 189.156416 
L 304.878129 192.37246 
L 305.604101 184.212041 
L 306.330072 222.614722 
L 307.056044 179.207443 
L 307.782016 219.834744 
L 308.507987 209.659082 
L 309.233959 201.796893 
L 309.959931 196.766425 
L 310.685902 190.364412 
L 311.411874 182.254017 
L 312.137846 198.532429 
L 312.863818 166.62052 
L 313.589789 196.586772 
L 314.315761 179.413086 
L 315.041733 183.117761 
L 315.767704 185.314174 
L 316.493676 149.584873 
L 317.219648 188.126247 
L 317.945619 216.690237 
L 318.671591 149.790701 
L 319.397563 176.731354 
L 320.123535 176.891526 
L 320.849506 188.884426 
L 321.575478 160.018953 
L 322.30145 220.322298 
L 323.027421 212.173432 
L 323.753393 199.401342 
L 324.479365 193.850202 
L 325.205336 180.494471 
L 325.931308 225.327758 
L 326.65728 223.782226 
L 327.383252 221.780591 
L 328.109223 209.921491 
L 328.835195 227.280195 
L 329.561167 189.263032 
L 330.287138 232.447596 
L 331.01311 213.829943 
L 331.739082 206.636155 
L 332.465054 216.425879 
L 333.191025 206.349083 
L 333.916997 219.343215 
L 334.642969 221.548731 
L 335.36894 219.684504 
L 336.094912 220.66174 
L 336.820884 218.54449 
L 337.546855 221.253614 
L 338.272827 220.42093 
L 338.998799 221.148584 
L 339.724771 216.771246 
L 340.450742 218.184667 
L 341.902686 230.001502 
L 342.628657 219.89161 
L 343.354629 223.517834 
L 344.080601 237.129097 
L 344.806572 208.659455 
L 345.532544 229.081995 
L 346.258516 237.021314 
L 346.984488 226.179954 
L 347.710459 243.737929 
L 348.436431 230.825872 
L 349.162403 245.703001 
L 349.888374 233.88887 
L 350.614346 242.5228 
L 351.340318 237.736917 
L 352.792261 239.970568 
L 353.518233 240.869142 
L 354.244205 239.383523 
L 354.970176 234.641407 
L 355.696148 241.638339 
L 356.42212 240.89021 
L 357.148091 237.073778 
L 357.874063 237.866716 
L 358.600035 240.083044 
L 359.326007 237.97329 
L 360.051978 242.337119 
L 360.77795 238.858487 
L 361.503922 237.088006 
L 362.229893 248.145217 
L 362.955865 249.744332 
L 363.681837 228.193925 
L 364.407808 243.119186 
L 365.13378 247.164637 
L 365.859752 245.665647 
L 366.585724 241.981171 
L 367.311695 243.257232 
L 368.037667 241.9781 
L 368.763639 242.294531 
L 369.48961 250.77953 
L 370.215582 245.649846 
L 370.941554 252.624956 
L 371.667525 247.965991 
L 372.393497 247.63848 
L 373.119469 250.224665 
L 373.845441 237.2801 
L 374.571412 235.215811 
L 375.297384 247.545499 
L 376.023356 246.499255 
L 376.749327 238.953334 
L 377.475299 234.294374 
L 378.201271 239.070593 
L 378.927242 246.22273 
L 379.653214 237.404095 
L 380.379186 240.164547 
L 381.105158 232.54763 
L 381.831129 236.05308 
L 382.557101 238.486265 
L 383.283073 230.651947 
L 384.009044 236.654945 
L 384.735016 238.77448 
L 385.460988 233.673484 
L 386.18696 237.340801 
L 386.912931 231.942634 
L 387.638903 233.74219 
L 388.364875 231.03912 
L 389.090846 231.084434 
L 389.816818 226.104707 
L 390.54279 230.238601 
L 391.268761 232.581439 
L 391.994733 226.493696 
L 392.720705 227.047911 
L 393.446677 229.201031 
L 394.172648 225.489301 
L 394.89862 223.134645 
L 395.624592 232.97557 
L 396.350563 232.483993 
L 397.076535 225.85796 
L 397.802507 223.361261 
L 398.528478 221.89741 
L 399.25445 212.70724 
L 399.980422 209.029028 
L 400.706394 211.050613 
L 401.432365 207.359893 
L 402.158337 209.436055 
L 402.884309 218.585135 
L 403.61028 202.728466 
L 404.336252 195.198636 
L 405.062224 199.472712 
L 405.788195 188.556504 
L 406.514167 191.367832 
L 407.240139 181.407649 
L 407.966111 180.790992 
L 408.692082 183.962783 
L 409.418054 199.491669 
L 410.144026 175.675283 
L 410.869997 192.215319 
L 411.595969 176.275349 
L 412.321941 176.186834 
L 413.047913 185.858701 
L 413.773884 169.904888 
L 414.499856 169.326409 
L 415.225828 173.170472 
L 415.951799 167.033308 
L 416.677771 163.556241 
L 417.403743 177.28769 
L 418.129714 165.55829 
L 418.855686 167.943965 
L 419.581658 180.360462 
L 420.30763 161.547026 
L 421.033601 167.221035 
L 421.759573 162.1384 
L 422.485545 181.165532 
L 423.211516 177.227986 
L 423.937488 182.564241 
L 424.66346 182.532978 
L 425.389431 181.744152 
L 426.115403 176.996763 
L 426.841375 183.018385 
L 427.567347 183.479436 
L 428.293318 186.815542 
L 429.01929 183.652085 
L 429.745262 188.672528 
L 430.471233 187.397341 
L 431.197205 192.091994 
L 431.923177 187.94187 
L 432.649148 190.637691 
L 433.37512 191.799385 
L 434.101092 200.10637 
L 434.827064 201.859969 
L 435.553035 203.239918 
L 436.279007 200.860977 
L 437.004979 205.43041 
L 437.73095 203.771552 
L 438.456922 206.94589 
L 439.182894 204.552422 
L 439.908866 209.34327 
L 440.634837 210.892435 
L 442.086781 215.053643 
L 442.812752 211.685188 
L 443.538724 216.984064 
L 444.264696 214.294134 
L 444.990667 217.754742 
L 445.716639 215.048144 
L 446.442611 222.218886 
L 447.168583 218.196018 
L 448.620526 224.610511 
L 449.346498 225.577721 
L 450.072469 227.594222 
L 450.798441 226.298138 
L 451.524413 227.966232 
L 452.250384 228.334222 
L 452.976356 227.401841 
L 453.702328 231.665526 
L 454.4283 229.47697 
L 455.154271 229.884547 
L 455.880243 229.920612 
L 456.606215 232.359343 
L 457.332186 233.159173 
L 458.058158 230.316652 
L 458.78413 231.386796 
L 459.510101 234.446003 
L 460.236073 233.812243 
L 460.962045 234.56067 
L 462.413988 233.034795 
L 463.13996 235.728454 
L 463.865932 235.822135 
L 464.591903 236.668855 
L 464.591903 236.668855 
" style="fill:none;stroke:#2ca02c;stroke-linecap:square;stroke-width:1.5;"/>
   </g>
   <g id="line2d_4">
    <path clip-path="url(#p855ef11e78)" d="M 58.773722 219.963889 
L 464.591903 219.963889 
L 464.591903 219.963889 
" style="fill:none;stroke:#000000;stroke-dasharray:3.7,1.6;stroke-dashoffset:0;"/>
   </g>
   <g id="matplotlib.axis_1">
    <g id="xtick_1">
     <g id="line2d_5">
      <defs>
       <path d="M 0 0 
L 0 3.5 
" id="m91f47c5541" style="stroke:#000000;stroke-width:0.8;"/>
      </defs>
      <g>
       <use style="stroke:#000000;stroke-width:0.8;" x="79.826901" xlink:href="#m91f47c5541" y="293.784375"/>
      </g>
     </g>
     <g id="text_1">
      <!-- 100 -->
      <defs>
       <path d="M 12.40625 8.296875 
L 28.515625 8.296875 
L 28.515625 63.921875 
L 10.984375 60.40625 
L 10.984375 69.390625 
L 28.421875 72.90625 
L 38.28125 72.90625 
L 38.28125 8.296875 
L 54.390625 8.296875 
L 54.390625 0 
L 12.40625 0 
z
" id="DejaVuSans-49"/>
       <path d="M 31.78125 66.40625 
Q 24.171875 66.40625 20.328125 58.90625 
Q 16.5 51.421875 16.5 36.375 
Q 16.5 21.390625 20.328125 13.890625 
Q 24.171875 6.390625 31.78125 6.390625 
Q 39.453125 6.390625 43.28125 13.890625 
Q 47.125 21.390625 47.125 36.375 
Q 47.125 51.421875 43.28125 58.90625 
Q 39.453125 66.40625 31.78125 66.40625 
z
M 31.78125 74.21875 
Q 44.046875 74.21875 50.515625 64.515625 
Q 56.984375 54.828125 56.984375 36.375 
Q 56.984375 17.96875 50.515625 8.265625 
Q 44.046875 -1.421875 31.78125 -1.421875 
Q 19.53125 -1.421875 13.0625 8.265625 
Q 6.59375 17.96875 6.59375 36.375 
Q 6.59375 54.828125 13.0625 64.515625 
Q 19.53125 74.21875 31.78125 74.21875 
z
" id="DejaVuSans-48"/>
      </defs>
      <g transform="translate(70.283151 308.382812)scale(0.1 -0.1)">
       <use xlink:href="#DejaVuSans-49"/>
       <use x="63.623047" xlink:href="#DejaVuSans-48"/>
       <use x="127.246094" xlink:href="#DejaVuSans-48"/>
      </g>
     </g>
    </g>
    <g id="xtick_2">
     <g id="line2d_6">
      <g>
       <use style="stroke:#000000;stroke-width:0.8;" x="152.424071" xlink:href="#m91f47c5541" y="293.784375"/>
      </g>
     </g>
     <g id="text_2">
      <!-- 200 -->
      <defs>
       <path d="M 19.1875 8.296875 
L 53.609375 8.296875 
L 53.609375 0 
L 7.328125 0 
L 7.328125 8.296875 
Q 12.9375 14.109375 22.625 23.890625 
Q 32.328125 33.6875 34.8125 36.53125 
Q 39.546875 41.84375 41.421875 45.53125 
Q 43.3125 49.21875 43.3125 52.78125 
Q 43.3125 58.59375 39.234375 62.25 
Q 35.15625 65.921875 28.609375 65.921875 
Q 23.96875 65.921875 18.8125 64.3125 
Q 13.671875 62.703125 7.8125 59.421875 
L 7.8125 69.390625 
Q 13.765625 71.78125 18.9375 73 
Q 24.125 74.21875 28.421875 74.21875 
Q 39.75 74.21875 46.484375 68.546875 
Q 53.21875 62.890625 53.21875 53.421875 
Q 53.21875 48.921875 51.53125 44.890625 
Q 49.859375 40.875 45.40625 35.40625 
Q 44.1875 33.984375 37.640625 27.21875 
Q 31.109375 20.453125 19.1875 8.296875 
z
" id="DejaVuSans-50"/>
      </defs>
      <g transform="translate(142.880321 308.382812)scale(0.1 -0.1)">
       <use xlink:href="#DejaVuSans-50"/>
       <use x="63.623047" xlink:href="#DejaVuSans-48"/>
       <use x="127.246094" xlink:href="#DejaVuSans-48"/>
      </g>
     </g>
    </g>
    <g id="xtick_3">
     <g id="line2d_7">
      <g>
       <use style="stroke:#000000;stroke-width:0.8;" x="225.021242" xlink:href="#m91f47c5541" y="293.784375"/>
      </g>
     </g>
     <g id="text_3">
      <!-- 300 -->
      <defs>
       <path d="M 40.578125 39.3125 
Q 47.65625 37.796875 51.625 33 
Q 55.609375 28.21875 55.609375 21.1875 
Q 55.609375 10.40625 48.1875 4.484375 
Q 40.765625 -1.421875 27.09375 -1.421875 
Q 22.515625 -1.421875 17.65625 -0.515625 
Q 12.796875 0.390625 7.625 2.203125 
L 7.625 11.71875 
Q 11.71875 9.328125 16.59375 8.109375 
Q 21.484375 6.890625 26.8125 6.890625 
Q 36.078125 6.890625 40.9375 10.546875 
Q 45.796875 14.203125 45.796875 21.1875 
Q 45.796875 27.640625 41.28125 31.265625 
Q 36.765625 34.90625 28.71875 34.90625 
L 20.21875 34.90625 
L 20.21875 43.015625 
L 29.109375 43.015625 
Q 36.375 43.015625 40.234375 45.921875 
Q 44.09375 48.828125 44.09375 54.296875 
Q 44.09375 59.90625 40.109375 62.90625 
Q 36.140625 65.921875 28.71875 65.921875 
Q 24.65625 65.921875 20.015625 65.03125 
Q 15.375 64.15625 9.8125 62.3125 
L 9.8125 71.09375 
Q 15.4375 72.65625 20.34375 73.4375 
Q 25.25 74.21875 29.59375 74.21875 
Q 40.828125 74.21875 47.359375 69.109375 
Q 53.90625 64.015625 53.90625 55.328125 
Q 53.90625 49.265625 50.4375 45.09375 
Q 46.96875 40.921875 40.578125 39.3125 
z
" id="DejaVuSans-51"/>
      </defs>
      <g transform="translate(215.477492 308.382812)scale(0.1 -0.1)">
       <use xlink:href="#DejaVuSans-51"/>
       <use x="63.623047" xlink:href="#DejaVuSans-48"/>
       <use x="127.246094" xlink:href="#DejaVuSans-48"/>
      </g>
     </g>
    </g>
    <g id="xtick_4">
     <g id="line2d_8">
      <g>
       <use style="stroke:#000000;stroke-width:0.8;" x="297.618412" xlink:href="#m91f47c5541" y="293.784375"/>
      </g>
     </g>
     <g id="text_4">
      <!-- 400 -->
      <defs>
       <path d="M 37.796875 64.3125 
L 12.890625 25.390625 
L 37.796875 25.390625 
z
M 35.203125 72.90625 
L 47.609375 72.90625 
L 47.609375 25.390625 
L 58.015625 25.390625 
L 58.015625 17.1875 
L 47.609375 17.1875 
L 47.609375 0 
L 37.796875 0 
L 37.796875 17.1875 
L 4.890625 17.1875 
L 4.890625 26.703125 
z
" id="DejaVuSans-52"/>
      </defs>
      <g transform="translate(288.074662 308.382812)scale(0.1 -0.1)">
       <use xlink:href="#DejaVuSans-52"/>
       <use x="63.623047" xlink:href="#DejaVuSans-48"/>
       <use x="127.246094" xlink:href="#DejaVuSans-48"/>
      </g>
     </g>
    </g>
    <g id="xtick_5">
     <g id="line2d_9">
      <g>
       <use style="stroke:#000000;stroke-width:0.8;" x="370.215582" xlink:href="#m91f47c5541" y="293.784375"/>
      </g>
     </g>
     <g id="text_5">
      <!-- 500 -->
      <defs>
       <path d="M 10.796875 72.90625 
L 49.515625 72.90625 
L 49.515625 64.59375 
L 19.828125 64.59375 
L 19.828125 46.734375 
Q 21.96875 47.46875 24.109375 47.828125 
Q 26.265625 48.1875 28.421875 48.1875 
Q 40.625 48.1875 47.75 41.5 
Q 54.890625 34.8125 54.890625 23.390625 
Q 54.890625 11.625 47.5625 5.09375 
Q 40.234375 -1.421875 26.90625 -1.421875 
Q 22.3125 -1.421875 17.546875 -0.640625 
Q 12.796875 0.140625 7.71875 1.703125 
L 7.71875 11.625 
Q 12.109375 9.234375 16.796875 8.0625 
Q 21.484375 6.890625 26.703125 6.890625 
Q 35.15625 6.890625 40.078125 11.328125 
Q 45.015625 15.765625 45.015625 23.390625 
Q 45.015625 31 40.078125 35.4375 
Q 35.15625 39.890625 26.703125 39.890625 
Q 22.75 39.890625 18.8125 39.015625 
Q 14.890625 38.140625 10.796875 36.28125 
z
" id="DejaVuSans-53"/>
      </defs>
      <g transform="translate(360.671832 308.382812)scale(0.1 -0.1)">
       <use xlink:href="#DejaVuSans-53"/>
       <use x="63.623047" xlink:href="#DejaVuSans-48"/>
       <use x="127.246094" xlink:href="#DejaVuSans-48"/>
      </g>
     </g>
    </g>
    <g id="xtick_6">
     <g id="line2d_10">
      <g>
       <use style="stroke:#000000;stroke-width:0.8;" x="442.812752" xlink:href="#m91f47c5541" y="293.784375"/>
      </g>
     </g>
     <g id="text_6">
      <!-- 600 -->
      <defs>
       <path d="M 33.015625 40.375 
Q 26.375 40.375 22.484375 35.828125 
Q 18.609375 31.296875 18.609375 23.390625 
Q 18.609375 15.53125 22.484375 10.953125 
Q 26.375 6.390625 33.015625 6.390625 
Q 39.65625 6.390625 43.53125 10.953125 
Q 47.40625 15.53125 47.40625 23.390625 
Q 47.40625 31.296875 43.53125 35.828125 
Q 39.65625 40.375 33.015625 40.375 
z
M 52.59375 71.296875 
L 52.59375 62.3125 
Q 48.875 64.0625 45.09375 64.984375 
Q 41.3125 65.921875 37.59375 65.921875 
Q 27.828125 65.921875 22.671875 59.328125 
Q 17.53125 52.734375 16.796875 39.40625 
Q 19.671875 43.65625 24.015625 45.921875 
Q 28.375 48.1875 33.59375 48.1875 
Q 44.578125 48.1875 50.953125 41.515625 
Q 57.328125 34.859375 57.328125 23.390625 
Q 57.328125 12.15625 50.6875 5.359375 
Q 44.046875 -1.421875 33.015625 -1.421875 
Q 20.359375 -1.421875 13.671875 8.265625 
Q 6.984375 17.96875 6.984375 36.375 
Q 6.984375 53.65625 15.1875 63.9375 
Q 23.390625 74.21875 37.203125 74.21875 
Q 40.921875 74.21875 44.703125 73.484375 
Q 48.484375 72.75 52.59375 71.296875 
z
" id="DejaVuSans-54"/>
      </defs>
      <g transform="translate(433.269002 308.382812)scale(0.1 -0.1)">
       <use xlink:href="#DejaVuSans-54"/>
       <use x="63.623047" xlink:href="#DejaVuSans-48"/>
       <use x="127.246094" xlink:href="#DejaVuSans-48"/>
      </g>
     </g>
    </g>
    <g id="text_7">
     <!-- Tempo -->
     <defs>
      <path d="M -0.296875 72.90625 
L 61.375 72.90625 
L 61.375 64.59375 
L 35.5 64.59375 
L 35.5 0 
L 25.59375 0 
L 25.59375 64.59375 
L -0.296875 64.59375 
z
" id="DejaVuSans-84"/>
      <path d="M 56.203125 29.59375 
L 56.203125 25.203125 
L 14.890625 25.203125 
Q 15.484375 15.921875 20.484375 11.0625 
Q 25.484375 6.203125 34.421875 6.203125 
Q 39.59375 6.203125 44.453125 7.46875 
Q 49.3125 8.734375 54.109375 11.28125 
L 54.109375 2.78125 
Q 49.265625 0.734375 44.1875 -0.34375 
Q 39.109375 -1.421875 33.890625 -1.421875 
Q 20.796875 -1.421875 13.15625 6.1875 
Q 5.515625 13.8125 5.515625 26.8125 
Q 5.515625 40.234375 12.765625 48.109375 
Q 20.015625 56 32.328125 56 
Q 43.359375 56 49.78125 48.890625 
Q 56.203125 41.796875 56.203125 29.59375 
z
M 47.21875 32.234375 
Q 47.125 39.59375 43.09375 43.984375 
Q 39.0625 48.390625 32.421875 48.390625 
Q 24.90625 48.390625 20.390625 44.140625 
Q 15.875 39.890625 15.1875 32.171875 
z
" id="DejaVuSans-101"/>
      <path d="M 52 44.1875 
Q 55.375 50.25 60.0625 53.125 
Q 64.75 56 71.09375 56 
Q 79.640625 56 84.28125 50.015625 
Q 88.921875 44.046875 88.921875 33.015625 
L 88.921875 0 
L 79.890625 0 
L 79.890625 32.71875 
Q 79.890625 40.578125 77.09375 44.375 
Q 74.3125 48.1875 68.609375 48.1875 
Q 61.625 48.1875 57.5625 43.546875 
Q 53.515625 38.921875 53.515625 30.90625 
L 53.515625 0 
L 44.484375 0 
L 44.484375 32.71875 
Q 44.484375 40.625 41.703125 44.40625 
Q 38.921875 48.1875 33.109375 48.1875 
Q 26.21875 48.1875 22.15625 43.53125 
Q 18.109375 38.875 18.109375 30.90625 
L 18.109375 0 
L 9.078125 0 
L 9.078125 54.6875 
L 18.109375 54.6875 
L 18.109375 46.1875 
Q 21.1875 51.21875 25.484375 53.609375 
Q 29.78125 56 35.6875 56 
Q 41.65625 56 45.828125 52.96875 
Q 50 49.953125 52 44.1875 
z
" id="DejaVuSans-109"/>
      <path d="M 18.109375 8.203125 
L 18.109375 -20.796875 
L 9.078125 -20.796875 
L 9.078125 54.6875 
L 18.109375 54.6875 
L 18.109375 46.390625 
Q 20.953125 51.265625 25.265625 53.625 
Q 29.59375 56 35.59375 56 
Q 45.5625 56 51.78125 48.09375 
Q 58.015625 40.1875 58.015625 27.296875 
Q 58.015625 14.40625 51.78125 6.484375 
Q 45.5625 -1.421875 35.59375 -1.421875 
Q 29.59375 -1.421875 25.265625 0.953125 
Q 20.953125 3.328125 18.109375 8.203125 
z
M 48.6875 27.296875 
Q 48.6875 37.203125 44.609375 42.84375 
Q 40.53125 48.484375 33.40625 48.484375 
Q 26.265625 48.484375 22.1875 42.84375 
Q 18.109375 37.203125 18.109375 27.296875 
Q 18.109375 17.390625 22.1875 11.75 
Q 26.265625 6.109375 33.40625 6.109375 
Q 40.53125 6.109375 44.609375 11.75 
Q 48.6875 17.390625 48.6875 27.296875 
z
" id="DejaVuSans-112"/>
      <path d="M 30.609375 48.390625 
Q 23.390625 48.390625 19.1875 42.75 
Q 14.984375 37.109375 14.984375 27.296875 
Q 14.984375 17.484375 19.15625 11.84375 
Q 23.34375 6.203125 30.609375 6.203125 
Q 37.796875 6.203125 41.984375 11.859375 
Q 46.1875 17.53125 46.1875 27.296875 
Q 46.1875 37.015625 41.984375 42.703125 
Q 37.796875 48.390625 30.609375 48.390625 
z
M 30.609375 56 
Q 42.328125 56 49.015625 48.375 
Q 55.71875 40.765625 55.71875 27.296875 
Q 55.71875 13.875 49.015625 6.21875 
Q 42.328125 -1.421875 30.609375 -1.421875 
Q 18.84375 -1.421875 12.171875 6.21875 
Q 5.515625 13.875 5.515625 27.296875 
Q 5.515625 40.765625 12.171875 48.375 
Q 18.84375 56 30.609375 56 
z
" id="DejaVuSans-111"/>
     </defs>
     <g transform="translate(245.298438 322.060937)scale(0.1 -0.1)">
      <use xlink:href="#DejaVuSans-84"/>
      <use x="44.083984" xlink:href="#DejaVuSans-101"/>
      <use x="105.607422" xlink:href="#DejaVuSans-109"/>
      <use x="203.019531" xlink:href="#DejaVuSans-112"/>
      <use x="266.496094" xlink:href="#DejaVuSans-111"/>
     </g>
    </g>
   </g>
   <g id="matplotlib.axis_2">
    <g id="ytick_1">
     <g id="line2d_11">
      <defs>
       <path d="M 0 0 
L -3.5 0 
" id="mcdc76e6471" style="stroke:#000000;stroke-width:0.8;"/>
      </defs>
      <g>
       <use style="stroke:#000000;stroke-width:0.8;" x="38.482813" xlink:href="#mcdc76e6471" y="257.940935"/>
      </g>
     </g>
     <g id="text_8">
      <!-- 0.5 -->
      <defs>
       <path d="M 10.59375 35.5 
L 73.1875 35.5 
L 73.1875 27.203125 
L 10.59375 27.203125 
z
" id="DejaVuSans-8722"/>
       <path d="M 10.6875 12.40625 
L 21 12.40625 
L 21 0 
L 10.6875 0 
z
" id="DejaVuSans-46"/>
      </defs>
      <g transform="translate(7.2 261.740154)scale(0.1 -0.1)">
       <use xlink:href="#DejaVuSans-8722"/>
       <use x="83.789062" xlink:href="#DejaVuSans-48"/>
       <use x="147.412109" xlink:href="#DejaVuSans-46"/>
       <use x="179.199219" xlink:href="#DejaVuSans-53"/>
      </g>
     </g>
    </g>
    <g id="ytick_2">
     <g id="line2d_12">
      <g>
       <use style="stroke:#000000;stroke-width:0.8;" x="38.482813" xlink:href="#mcdc76e6471" y="219.963889"/>
      </g>
     </g>
     <g id="text_9">
      <!-- 0.0 -->
      <g transform="translate(15.579688 223.763108)scale(0.1 -0.1)">
       <use xlink:href="#DejaVuSans-48"/>
       <use x="63.623047" xlink:href="#DejaVuSans-46"/>
       <use x="95.410156" xlink:href="#DejaVuSans-48"/>
      </g>
     </g>
    </g>
    <g id="ytick_3">
     <g id="line2d_13">
      <g>
       <use style="stroke:#000000;stroke-width:0.8;" x="38.482813" xlink:href="#mcdc76e6471" y="181.986842"/>
      </g>
     </g>
     <g id="text_10">
      <!-- 0.5 -->
      <g transform="translate(15.579688 185.786061)scale(0.1 -0.1)">
       <use xlink:href="#DejaVuSans-48"/>
       <use x="63.623047" xlink:href="#DejaVuSans-46"/>
       <use x="95.410156" xlink:href="#DejaVuSans-53"/>
      </g>
     </g>
    </g>
    <g id="ytick_4">
     <g id="line2d_14">
      <g>
       <use style="stroke:#000000;stroke-width:0.8;" x="38.482813" xlink:href="#mcdc76e6471" y="144.009796"/>
      </g>
     </g>
     <g id="text_11">
      <!-- 1.0 -->
      <g transform="translate(15.579688 147.809015)scale(0.1 -0.1)">
       <use xlink:href="#DejaVuSans-49"/>
       <use x="63.623047" xlink:href="#DejaVuSans-46"/>
       <use x="95.410156" xlink:href="#DejaVuSans-48"/>
      </g>
     </g>
    </g>
    <g id="ytick_5">
     <g id="line2d_15">
      <g>
       <use style="stroke:#000000;stroke-width:0.8;" x="38.482813" xlink:href="#mcdc76e6471" y="106.032749"/>
      </g>
     </g>
     <g id="text_12">
      <!-- 1.5 -->
      <g transform="translate(15.579688 109.831968)scale(0.1 -0.1)">
       <use xlink:href="#DejaVuSans-49"/>
       <use x="63.623047" xlink:href="#DejaVuSans-46"/>
       <use x="95.410156" xlink:href="#DejaVuSans-53"/>
      </g>
     </g>
    </g>
    <g id="ytick_6">
     <g id="line2d_16">
      <g>
       <use style="stroke:#000000;stroke-width:0.8;" x="38.482813" xlink:href="#mcdc76e6471" y="68.055703"/>
      </g>
     </g>
     <g id="text_13">
      <!-- 2.0 -->
      <g transform="translate(15.579688 71.854922)scale(0.1 -0.1)">
       <use xlink:href="#DejaVuSans-50"/>
       <use x="63.623047" xlink:href="#DejaVuSans-46"/>
       <use x="95.410156" xlink:href="#DejaVuSans-48"/>
      </g>
     </g>
    </g>
    <g id="ytick_7">
     <g id="line2d_17">
      <g>
       <use style="stroke:#000000;stroke-width:0.8;" x="38.482813" xlink:href="#mcdc76e6471" y="30.078656"/>
      </g>
     </g>
     <g id="text_14">
      <!-- 2.5 -->
      <g transform="translate(15.579688 33.877875)scale(0.1 -0.1)">
       <use xlink:href="#DejaVuSans-50"/>
       <use x="63.623047" xlink:href="#DejaVuSans-46"/>
       <use x="95.410156" xlink:href="#DejaVuSans-53"/>
      </g>
     </g>
    </g>
   </g>
   <g id="patch_3">
    <path d="M 38.482813 293.784375 
L 38.482813 21.984375 
" style="fill:none;stroke:#000000;stroke-linecap:square;stroke-linejoin:miter;stroke-width:0.8;"/>
   </g>
   <g id="patch_4">
    <path d="M 38.482813 293.784375 
L 484.882812 293.784375 
" style="fill:none;stroke:#000000;stroke-linecap:square;stroke-linejoin:miter;stroke-width:0.8;"/>
   </g>
   <g id="text_15">
    <!-- I_t -->
    <defs>
     <path d="M 9.8125 72.90625 
L 19.671875 72.90625 
L 19.671875 0 
L 9.8125 0 
z
" id="DejaVuSans-73"/>
     <path d="M 50.984375 -16.609375 
L 50.984375 -23.578125 
L -0.984375 -23.578125 
L -0.984375 -16.609375 
z
" id="DejaVuSans-95"/>
     <path d="M 18.3125 70.21875 
L 18.3125 54.6875 
L 36.8125 54.6875 
L 36.8125 47.703125 
L 18.3125 47.703125 
L 18.3125 18.015625 
Q 18.3125 11.328125 20.140625 9.421875 
Q 21.96875 7.515625 27.59375 7.515625 
L 36.8125 7.515625 
L 36.8125 0 
L 27.59375 0 
Q 17.1875 0 13.234375 3.875 
Q 9.28125 7.765625 9.28125 18.015625 
L 9.28125 47.703125 
L 2.6875 47.703125 
L 2.6875 54.6875 
L 9.28125 54.6875 
L 9.28125 70.21875 
z
" id="DejaVuSans-116"/>
    </defs>
    <g transform="translate(254.560625 15.984375)scale(0.12 -0.12)">
     <use xlink:href="#DejaVuSans-73"/>
     <use x="29.492188" xlink:href="#DejaVuSans-95"/>
     <use x="79.492188" xlink:href="#DejaVuSans-116"/>
    </g>
   </g>
   <g id="legend_1">
    <g id="patch_5">
     <path d="M 491.882812 189.771094 
L 566.28125 189.771094 
Q 568.28125 189.771094 568.28125 187.771094 
L 568.28125 127.997656 
Q 568.28125 125.997656 566.28125 125.997656 
L 491.882812 125.997656 
Q 489.882812 125.997656 489.882812 127.997656 
L 489.882812 187.771094 
Q 489.882812 189.771094 491.882812 189.771094 
z
" style="fill:#ffffff;opacity:0.8;stroke:#cccccc;stroke-linejoin:miter;"/>
    </g>
    <g id="line2d_18">
     <path d="M 493.882812 134.096094 
L 513.882812 134.096094 
" style="fill:none;stroke:#000000;stroke-dasharray:3.7,1.6;stroke-dashoffset:0;"/>
    </g>
    <g id="line2d_19"/>
    <g id="text_16">
     <!-- Baseline -->
     <defs>
      <path d="M 19.671875 34.8125 
L 19.671875 8.109375 
L 35.5 8.109375 
Q 43.453125 8.109375 47.28125 11.40625 
Q 51.125 14.703125 51.125 21.484375 
Q 51.125 28.328125 47.28125 31.5625 
Q 43.453125 34.8125 35.5 34.8125 
z
M 19.671875 64.796875 
L 19.671875 42.828125 
L 34.28125 42.828125 
Q 41.5 42.828125 45.03125 45.53125 
Q 48.578125 48.25 48.578125 53.8125 
Q 48.578125 59.328125 45.03125 62.0625 
Q 41.5 64.796875 34.28125 64.796875 
z
M 9.8125 72.90625 
L 35.015625 72.90625 
Q 46.296875 72.90625 52.390625 68.21875 
Q 58.5 63.53125 58.5 54.890625 
Q 58.5 48.1875 55.375 44.234375 
Q 52.25 40.28125 46.1875 39.3125 
Q 53.46875 37.75 57.5 32.78125 
Q 61.53125 27.828125 61.53125 20.40625 
Q 61.53125 10.640625 54.890625 5.3125 
Q 48.25 0 35.984375 0 
L 9.8125 0 
z
" id="DejaVuSans-66"/>
      <path d="M 34.28125 27.484375 
Q 23.390625 27.484375 19.1875 25 
Q 14.984375 22.515625 14.984375 16.5 
Q 14.984375 11.71875 18.140625 8.90625 
Q 21.296875 6.109375 26.703125 6.109375 
Q 34.1875 6.109375 38.703125 11.40625 
Q 43.21875 16.703125 43.21875 25.484375 
L 43.21875 27.484375 
z
M 52.203125 31.203125 
L 52.203125 0 
L 43.21875 0 
L 43.21875 8.296875 
Q 40.140625 3.328125 35.546875 0.953125 
Q 30.953125 -1.421875 24.3125 -1.421875 
Q 15.921875 -1.421875 10.953125 3.296875 
Q 6 8.015625 6 15.921875 
Q 6 25.140625 12.171875 29.828125 
Q 18.359375 34.515625 30.609375 34.515625 
L 43.21875 34.515625 
L 43.21875 35.40625 
Q 43.21875 41.609375 39.140625 45 
Q 35.0625 48.390625 27.6875 48.390625 
Q 23 48.390625 18.546875 47.265625 
Q 14.109375 46.140625 10.015625 43.890625 
L 10.015625 52.203125 
Q 14.9375 54.109375 19.578125 55.046875 
Q 24.21875 56 28.609375 56 
Q 40.484375 56 46.34375 49.84375 
Q 52.203125 43.703125 52.203125 31.203125 
z
" id="DejaVuSans-97"/>
      <path d="M 44.28125 53.078125 
L 44.28125 44.578125 
Q 40.484375 46.53125 36.375 47.5 
Q 32.28125 48.484375 27.875 48.484375 
Q 21.1875 48.484375 17.84375 46.4375 
Q 14.5 44.390625 14.5 40.28125 
Q 14.5 37.15625 16.890625 35.375 
Q 19.28125 33.59375 26.515625 31.984375 
L 29.59375 31.296875 
Q 39.15625 29.25 43.1875 25.515625 
Q 47.21875 21.78125 47.21875 15.09375 
Q 47.21875 7.46875 41.1875 3.015625 
Q 35.15625 -1.421875 24.609375 -1.421875 
Q 20.21875 -1.421875 15.453125 -0.5625 
Q 10.6875 0.296875 5.421875 2 
L 5.421875 11.28125 
Q 10.40625 8.6875 15.234375 7.390625 
Q 20.0625 6.109375 24.8125 6.109375 
Q 31.15625 6.109375 34.5625 8.28125 
Q 37.984375 10.453125 37.984375 14.40625 
Q 37.984375 18.0625 35.515625 20.015625 
Q 33.0625 21.96875 24.703125 23.78125 
L 21.578125 24.515625 
Q 13.234375 26.265625 9.515625 29.90625 
Q 5.8125 33.546875 5.8125 39.890625 
Q 5.8125 47.609375 11.28125 51.796875 
Q 16.75 56 26.8125 56 
Q 31.78125 56 36.171875 55.265625 
Q 40.578125 54.546875 44.28125 53.078125 
z
" id="DejaVuSans-115"/>
      <path d="M 9.421875 75.984375 
L 18.40625 75.984375 
L 18.40625 0 
L 9.421875 0 
z
" id="DejaVuSans-108"/>
      <path d="M 9.421875 54.6875 
L 18.40625 54.6875 
L 18.40625 0 
L 9.421875 0 
z
M 9.421875 75.984375 
L 18.40625 75.984375 
L 18.40625 64.59375 
L 9.421875 64.59375 
z
" id="DejaVuSans-105"/>
      <path d="M 54.890625 33.015625 
L 54.890625 0 
L 45.90625 0 
L 45.90625 32.71875 
Q 45.90625 40.484375 42.875 44.328125 
Q 39.84375 48.1875 33.796875 48.1875 
Q 26.515625 48.1875 22.3125 43.546875 
Q 18.109375 38.921875 18.109375 30.90625 
L 18.109375 0 
L 9.078125 0 
L 9.078125 54.6875 
L 18.109375 54.6875 
L 18.109375 46.1875 
Q 21.34375 51.125 25.703125 53.5625 
Q 30.078125 56 35.796875 56 
Q 45.21875 56 50.046875 50.171875 
Q 54.890625 44.34375 54.890625 33.015625 
z
" id="DejaVuSans-110"/>
     </defs>
     <g transform="translate(521.882812 137.596094)scale(0.1 -0.1)">
      <use xlink:href="#DejaVuSans-66"/>
      <use x="68.603516" xlink:href="#DejaVuSans-97"/>
      <use x="129.882812" xlink:href="#DejaVuSans-115"/>
      <use x="181.982422" xlink:href="#DejaVuSans-101"/>
      <use x="243.505859" xlink:href="#DejaVuSans-108"/>
      <use x="271.289062" xlink:href="#DejaVuSans-105"/>
      <use x="299.072266" xlink:href="#DejaVuSans-110"/>
      <use x="362.451172" xlink:href="#DejaVuSans-101"/>
     </g>
    </g>
    <g id="line2d_20">
     <path d="M 493.882812 148.774219 
L 513.882812 148.774219 
" style="fill:none;stroke:#1f77b4;stroke-linecap:square;stroke-width:1.5;"/>
    </g>
    <g id="line2d_21"/>
    <g id="text_17">
     <!-- $\Downarrow \sigma_\psi$ -->
     <defs>
      <path d="M 36.765625 14.3125 
L 41.9375 9.234375 
L 47.015625 14.3125 
L 47.015625 72.90625 
L 52.875 72.90625 
L 52.875 20.171875 
L 57.46875 24.75 
L 63.328125 18.890625 
L 44.09375 -0.34375 
L 39.703125 -0.34375 
L 20.5625 18.890625 
L 26.421875 24.75 
L 30.90625 20.171875 
L 30.90625 72.90625 
L 36.765625 72.90625 
z
" id="DejaVuSans-8659"/>
      <path d="M 34.671875 47.5625 
Q 27.25 47.5625 22.21875 42.1875 
Q 16.890625 36.578125 15.140625 27.296875 
Q 13.1875 17.484375 16.3125 11.8125 
Q 19.390625 6.203125 26.65625 6.203125 
Q 33.84375 6.203125 39.109375 11.859375 
Q 44.4375 17.53125 46.34375 27.296875 
Q 48.046875 36.234375 45.015625 42.1875 
Q 42.1875 47.5625 34.671875 47.5625 
z
M 36.078125 54.734375 
L 65.921875 54.6875 
L 64.15625 45.703125 
L 54.109375 45.703125 
Q 57.90625 38.09375 55.859375 27.296875 
Q 53.21875 13.875 45.0625 6.25 
Q 36.859375 -1.421875 25.140625 -1.421875 
Q 13.375 -1.421875 8.203125 6.25 
Q 3.03125 13.875 5.671875 27.296875 
Q 8.25 40.765625 16.40625 48.390625 
Q 23.1875 54.734375 36.078125 54.734375 
z
" id="DejaVuSans-Oblique-963"/>
      <path d="M 24.859375 -1.21875 
Q 13.921875 0.59375 9.625 5.328125 
Q 4.34375 11.140625 6.640625 23 
L 12.796875 54.6875 
L 21.875 54.6875 
L 15.765625 23.34375 
Q 14.0625 14.40625 17.484375 10.6875 
Q 20.515625 7.46875 26.421875 6.78125 
L 35.6875 54.6875 
L 44.625 54.6875 
L 35.359375 6.84375 
Q 41.890625 7.515625 45.75 10.75 
Q 50.734375 14.84375 52.390625 23.390625 
L 58.453125 54.6875 
L 67.53125 54.6875 
L 61.375 23.046875 
Q 58.984375 10.75 51.5625 5.375 
Q 44.875 0.53125 33.796875 -1.171875 
L 29.984375 -20.796875 
L 21.046875 -20.796875 
z
" id="DejaVuSans-Oblique-968"/>
     </defs>
     <g transform="translate(521.882812 152.274219)scale(0.1 -0.1)">
      <use transform="translate(19.482422 0.09375)" xlink:href="#DejaVuSans-8659"/>
      <use transform="translate(122.753906 0.09375)" xlink:href="#DejaVuSans-Oblique-963"/>
      <use transform="translate(186.132812 -16.3125)scale(0.7)" xlink:href="#DejaVuSans-Oblique-968"/>
     </g>
    </g>
    <g id="line2d_22">
     <path d="M 493.882812 164.472656 
L 513.882812 164.472656 
" style="fill:none;stroke:#ff7f0e;stroke-linecap:square;stroke-width:1.5;"/>
    </g>
    <g id="line2d_23"/>
    <g id="text_18">
     <!-- $\Downarrow s_\psi$ -->
     <defs>
      <path d="M 50 53.078125 
L 48.296875 44.578125 
Q 44.734375 46.53125 40.765625 47.5 
Q 36.8125 48.484375 32.625 48.484375 
Q 25.53125 48.484375 21.453125 46.0625 
Q 17.390625 43.65625 17.390625 39.5 
Q 17.390625 34.671875 26.859375 32.078125 
Q 27.59375 31.890625 27.9375 31.78125 
L 30.8125 30.90625 
Q 39.796875 28.421875 42.796875 25.6875 
Q 45.796875 22.953125 45.796875 18.21875 
Q 45.796875 9.515625 38.890625 4.046875 
Q 31.984375 -1.421875 20.796875 -1.421875 
Q 16.453125 -1.421875 11.671875 -0.578125 
Q 6.890625 0.25 1.125 2 
L 2.875 11.28125 
Q 7.8125 8.734375 12.59375 7.421875 
Q 17.390625 6.109375 21.78125 6.109375 
Q 28.375 6.109375 32.5 8.9375 
Q 36.625 11.765625 36.625 16.109375 
Q 36.625 20.796875 25.78125 23.6875 
L 24.859375 23.921875 
L 21.78125 24.703125 
Q 14.9375 26.515625 11.765625 29.46875 
Q 8.59375 32.421875 8.59375 37.015625 
Q 8.59375 45.75 15.15625 50.875 
Q 21.734375 56 33.015625 56 
Q 37.453125 56 41.671875 55.265625 
Q 45.90625 54.546875 50 53.078125 
z
" id="DejaVuSans-Oblique-115"/>
     </defs>
     <g transform="translate(521.882812 167.972656)scale(0.1 -0.1)">
      <use transform="translate(19.482422 0.09375)" xlink:href="#DejaVuSans-8659"/>
      <use transform="translate(122.753906 0.09375)" xlink:href="#DejaVuSans-Oblique-115"/>
      <use transform="translate(174.853516 -16.3125)scale(0.7)" xlink:href="#DejaVuSans-Oblique-968"/>
     </g>
    </g>
    <g id="line2d_24">
     <path d="M 493.882812 180.171094 
L 513.882812 180.171094 
" style="fill:none;stroke:#2ca02c;stroke-linecap:square;stroke-width:1.5;"/>
    </g>
    <g id="line2d_25"/>
    <g id="text_19">
     <!-- $\Uparrow \eta$ -->
     <defs>
      <path d="M 36.765625 58.59375 
L 36.765625 0 
L 30.90625 0 
L 30.90625 52.734375 
L 26.421875 48.140625 
L 20.5625 54 
L 39.703125 73.25 
L 44.09375 73.25 
L 63.328125 54 
L 57.46875 48.140625 
L 52.875 52.734375 
L 52.875 0 
L 47.015625 0 
L 47.015625 58.59375 
L 41.9375 63.671875 
z
" id="DejaVuSans-8657"/>
      <path d="M 57.859375 33.015625 
L 47.40625 -20.796875 
L 38.421875 -20.796875 
L 48.828125 32.71875 
Q 50.34375 40.484375 48.046875 44.34375 
Q 45.796875 48.1875 39.75 48.1875 
Q 32.46875 48.1875 27.34375 43.5625 
Q 22.265625 38.921875 20.703125 30.90625 
L 14.703125 0 
L 5.671875 0 
L 16.3125 54.6875 
L 25.34375 54.6875 
L 23.6875 46.1875 
Q 27.828125 51.125 32.71875 53.5625 
Q 37.546875 56 43.265625 56 
Q 52.6875 56 56.390625 50.203125 
Q 60.0625 44.34375 57.859375 33.015625 
z
" id="DejaVuSans-Oblique-951"/>
     </defs>
     <g transform="translate(521.882812 183.671094)scale(0.1 -0.1)">
      <use transform="translate(19.482422 0.75)" xlink:href="#DejaVuSans-8657"/>
      <use transform="translate(122.753906 0.75)" xlink:href="#DejaVuSans-Oblique-951"/>
     </g>
    </g>
   </g>
  </g>
 </g>
 <defs>
  <clipPath id="p855ef11e78">
   <rect height="271.8" width="446.4" x="38.482813" y="21.984375"/>
  </clipPath>
 </defs>
</svg>
