<?xml version="1.0" encoding="utf-8" standalone="no"?>
<!DOCTYPE svg PUBLIC "-//W3C//DTD SVG 1.1//EN"
  "http://www.w3.org/Graphics/SVG/1.1/DTD/svg11.dtd">
<!-- Created with matplotlib (https://matplotlib.org/) -->
<svg height="331.674375pt" version="1.1" viewBox="0 0 576.648437 331.674375" width="576.648437pt" xmlns="http://www.w3.org/2000/svg" xmlns:xlink="http://www.w3.org/1999/xlink">
 <defs>
  <style type="text/css">
*{stroke-linecap:butt;stroke-linejoin:round;}
  </style>
 </defs>
 <g id="figure_1">
  <g id="patch_1">
   <path d="M 0 331.674375 
L 576.648437 331.674375 
L 576.648437 0 
L 0 0 
z
" style="fill:#ffffff;"/>
  </g>
  <g id="axes_1">
   <g id="patch_2">
    <path d="M 39.65 294.118125 
L 486.05 294.118125 
L 486.05 22.318125 
L 39.65 22.318125 
z
" style="fill:#ffffff;"/>
   </g>
   <g id="line2d_1">
    <path clip-path="url(#p3a562c0fdc)" d="M 59.940909 256.441821 
L 60.666881 249.534142 
L 61.392852 160.242443 
L 62.118824 254.864158 
L 62.844796 245.584784 
L 63.570768 258.467457 
L 64.296739 259.811008 
L 65.022711 255.281713 
L 65.748683 245.885117 
L 66.474654 263.082926 
L 67.200626 149.195041 
L 67.926598 264.224785 
L 68.65257 257.682589 
L 69.378541 250.119058 
L 70.104513 172.413446 
L 70.830485 204.704423 
L 71.556456 253.718258 
L 72.282428 160.133202 
L 73.0084 256.978614 
L 73.734371 146.096781 
L 75.186315 252.794508 
L 75.912287 158.132176 
L 76.638258 249.292938 
L 77.36423 246.211801 
L 78.090202 244.769445 
L 78.816173 248.469809 
L 79.542145 255.224303 
L 80.268117 156.589428 
L 80.994088 256.18496 
L 81.72006 153.314898 
L 82.446032 202.177609 
L 83.172004 175.385259 
L 83.897975 243.006616 
L 84.623947 234.236142 
L 85.349919 250.692382 
L 86.07589 253.47271 
L 86.801862 155.924526 
L 87.527834 196.419448 
L 88.253805 182.159388 
L 88.979777 239.382125 
L 89.705749 161.410665 
L 90.431721 189.529065 
L 91.157692 244.044395 
L 91.883664 240.253392 
L 92.609636 158.865406 
L 93.335607 193.310446 
L 94.061579 177.982979 
L 94.787551 176.576646 
L 95.513523 239.385925 
L 96.239494 142.443082 
L 97.691438 236.672927 
L 98.417409 160.865845 
L 99.143381 182.025742 
L 99.869353 181.574356 
L 100.595324 243.915105 
L 101.321296 239.397176 
L 102.047268 238.365165 
L 102.77324 246.973116 
L 103.499211 251.699116 
L 104.225183 245.782732 
L 104.951155 147.900372 
L 105.677126 201.53794 
L 106.403098 185.758051 
L 107.12907 252.84593 
L 107.855041 237.042815 
L 108.581013 249.428675 
L 109.306985 257.695263 
L 110.032957 259.051201 
L 110.758928 253.23115 
L 111.4849 262.09704 
L 112.210872 149.489542 
L 112.936843 259.424732 
L 113.662815 252.891493 
L 114.388787 264.260078 
L 115.114758 263.422397 
L 115.84073 235.218807 
L 116.566702 248.164539 
L 117.292674 255.950943 
L 118.018645 234.010605 
L 118.744617 176.833143 
L 119.470589 256.978943 
L 120.19656 261.985603 
L 120.922532 263.081094 
L 121.648504 137.202797 
L 122.374476 259.301497 
L 123.100447 242.276636 
L 123.826419 164.233837 
L 124.552391 254.21371 
L 125.278362 243.741428 
L 126.004334 246.558861 
L 126.730306 255.480616 
L 127.456277 254.842239 
L 128.182249 261.882765 
L 128.908221 254.234777 
L 129.634193 251.701464 
L 130.360164 248.734235 
L 131.086136 158.006509 
L 131.812108 204.259965 
L 132.538079 257.849238 
L 133.264051 244.151319 
L 133.990023 254.573132 
L 134.715994 254.064155 
L 135.441966 163.111703 
L 136.167938 208.669977 
L 136.89391 265.116521 
L 137.619881 256.26348 
L 138.345853 243.488445 
L 139.071825 257.242426 
L 139.797796 253.094099 
L 140.523768 254.070575 
L 141.24974 148.426582 
L 141.975711 206.630744 
L 142.701683 250.010814 
L 143.427655 250.774965 
L 144.153627 263.060497 
L 144.879598 130.322988 
L 145.60557 208.157605 
L 146.331542 243.191731 
L 147.057513 244.44451 
L 147.783485 248.85386 
L 148.509457 255.493893 
L 149.235429 242.996301 
L 149.9614 257.437667 
L 150.687372 261.683671 
L 151.413344 256.30817 
L 152.139315 264.264597 
L 152.865287 257.424952 
L 153.591259 265.293128 
L 154.31723 251.135781 
L 155.043202 257.4165 
L 155.769174 146.355083 
L 156.495146 261.465993 
L 157.221117 265.852895 
L 157.947089 266.030006 
L 158.673061 237.010768 
L 159.399032 254.74389 
L 160.125004 250.632949 
L 160.850976 265.856574 
L 161.576947 250.252193 
L 162.302919 254.499101 
L 163.028891 260.100866 
L 163.754863 246.718071 
L 164.480834 261.556984 
L 165.206806 260.298391 
L 165.932778 266.094233 
L 166.658749 151.766072 
L 167.384721 208.643668 
L 168.110693 193.786899 
L 168.836664 196.007636 
L 169.562636 252.475143 
L 170.288608 256.56389 
L 171.01458 252.217891 
L 171.740551 141.440467 
L 172.466523 202.648827 
L 173.192495 192.288638 
L 173.918466 253.768311 
L 174.644438 254.29917 
L 175.37041 241.916974 
L 176.096382 245.18423 
L 176.822353 249.144375 
L 177.548325 257.508783 
L 178.274297 245.815095 
L 179.000268 245.259229 
L 179.72624 248.354391 
L 180.452212 247.397063 
L 181.178183 248.25071 
L 181.904155 253.473924 
L 182.630127 246.073208 
L 183.356099 167.697363 
L 184.08207 203.994321 
L 184.808042 250.631337 
L 185.534014 250.913581 
L 186.259985 257.900036 
L 186.985957 255.111447 
L 187.711929 260.757748 
L 188.4379 246.341027 
L 189.163872 256.440997 
L 189.889844 246.245049 
L 190.615816 255.011808 
L 191.341787 259.787292 
L 192.067759 239.708328 
L 192.793731 259.231785 
L 193.519702 244.987909 
L 194.245674 254.373313 
L 194.971646 246.209805 
L 195.697617 255.733342 
L 196.423589 256.80029 
L 197.149561 241.741692 
L 198.601504 250.915963 
L 199.327476 257.287352 
L 200.053448 253.253658 
L 200.779419 254.168257 
L 201.505391 161.321054 
L 202.231363 257.948669 
L 202.957335 257.963052 
L 203.683306 259.729437 
L 204.409278 258.03672 
L 205.13525 258.439616 
L 205.861221 249.215823 
L 206.587193 250.890233 
L 207.313165 146.387167 
L 208.765108 250.655351 
L 209.49108 253.142328 
L 210.217052 242.8058 
L 210.943023 160.396191 
L 211.668995 198.139298 
L 212.394967 258.584873 
L 213.120938 150.296999 
L 213.84691 201.292055 
L 214.572882 244.207659 
L 215.298853 251.420632 
L 216.024825 254.296834 
L 216.750797 252.69625 
L 217.476769 236.015447 
L 218.20274 228.608501 
L 218.928712 251.940073 
L 219.654684 255.452138 
L 220.380655 245.118447 
L 221.106627 255.085072 
L 222.55857 259.362458 
L 223.284542 244.425306 
L 224.010514 258.111233 
L 224.736486 255.077672 
L 225.462457 247.664638 
L 226.188429 169.622179 
L 226.914401 257.423747 
L 227.640372 248.003686 
L 228.366344 163.337489 
L 229.092316 199.619857 
L 229.818288 248.462988 
L 230.544259 248.73933 
L 231.270231 137.749664 
L 231.996203 199.216784 
L 232.722174 176.537948 
L 233.448146 243.745376 
L 234.174118 252.187538 
L 234.900089 155.50689 
L 236.352033 239.758625 
L 237.078005 158.890009 
L 237.803976 250.24358 
L 238.529948 231.007978 
L 239.25592 250.336129 
L 239.981891 240.815412 
L 240.707863 158.756637 
L 241.433835 195.948641 
L 242.159806 245.993067 
L 242.885778 248.919114 
L 243.61175 246.106999 
L 244.337722 240.058625 
L 245.063693 240.206085 
L 245.789665 152.916751 
L 246.515637 245.59458 
L 247.241608 242.775467 
L 247.96758 147.951802 
L 248.693552 241.643112 
L 249.419523 239.408151 
L 250.145495 160.770526 
L 250.871467 238.105817 
L 251.597439 148.717282 
L 252.32341 185.951513 
L 253.049382 173.941465 
L 253.775354 233.23775 
L 254.501325 236.872021 
L 255.227297 156.843153 
L 255.953269 240.086823 
L 256.679241 242.692277 
L 257.405212 242.55218 
L 258.857156 238.058878 
L 259.583127 164.35886 
L 260.309099 251.808073 
L 261.035071 227.140108 
L 261.761042 236.237122 
L 262.487014 230.598576 
L 263.212986 159.470446 
L 263.938958 237.430413 
L 264.664929 157.754436 
L 265.390901 236.951352 
L 266.116873 241.201715 
L 266.842844 240.664401 
L 267.568816 247.273965 
L 268.294788 154.942512 
L 269.020759 187.543335 
L 269.746731 245.769906 
L 270.472703 233.417423 
L 271.198675 235.693687 
L 271.924646 234.05659 
L 272.650618 233.454485 
L 273.37659 247.059055 
L 274.102561 245.933428 
L 274.828533 250.901408 
L 275.554505 241.590295 
L 276.280477 155.441023 
L 277.006448 247.335609 
L 277.73242 233.50768 
L 278.458392 236.191183 
L 279.184363 240.717454 
L 279.910335 246.845389 
L 280.636307 249.081227 
L 281.362278 249.058171 
L 282.08825 256.774137 
L 282.814222 255.839226 
L 283.540194 255.887588 
L 284.992137 173.175311 
L 285.718109 196.976541 
L 286.44408 182.034818 
L 287.170052 181.273186 
L 287.896024 244.727432 
L 288.621995 151.300425 
L 289.347967 186.772652 
L 290.073939 242.281651 
L 290.799911 216.094038 
L 291.525882 233.236486 
L 292.251854 154.729273 
L 292.977826 241.014569 
L 293.703797 238.658667 
L 294.429769 221.267492 
L 295.155741 243.727377 
L 295.881712 238.752569 
L 296.607684 240.22435 
L 297.333656 246.648085 
L 298.059628 238.665148 
L 298.785599 248.069171 
L 299.511571 245.947982 
L 300.237543 157.976481 
L 300.963514 254.35479 
L 301.689486 241.160159 
L 302.415458 239.366455 
L 303.14143 231.417075 
L 303.867401 235.359223 
L 304.593373 243.584144 
L 305.319345 245.734378 
L 306.045316 236.408868 
L 306.771288 239.534015 
L 307.49726 233.704337 
L 308.223231 160.91332 
L 308.949203 190.128375 
L 309.675175 177.050158 
L 310.401147 245.971746 
L 311.127118 230.891797 
L 311.85309 240.03702 
L 312.579062 157.654492 
L 313.305033 242.744405 
L 314.031005 235.945088 
L 314.756977 230.650565 
L 315.482948 228.461589 
L 316.20892 161.976072 
L 316.934892 238.812268 
L 317.660864 233.904786 
L 318.386835 238.808031 
L 319.112807 220.676132 
L 319.838779 239.051526 
L 320.56475 132.307084 
L 321.290722 235.584621 
L 322.016694 228.207965 
L 322.742665 227.317652 
L 323.468637 158.683658 
L 324.194609 234.121873 
L 324.920581 225.925951 
L 325.646552 236.335706 
L 326.372524 154.810405 
L 327.098496 180.860629 
L 327.824467 168.584002 
L 328.550439 170.192515 
L 329.276411 225.025541 
L 330.002383 147.007704 
L 330.728354 226.09716 
L 331.454326 216.752856 
L 332.180298 217.617209 
L 332.906269 142.144535 
L 333.632241 221.207001 
L 334.358213 226.961804 
L 335.084184 150.493525 
L 335.810156 220.259648 
L 336.536128 219.726282 
L 337.2621 216.481581 
L 337.988071 219.588518 
L 338.714043 138.371992 
L 339.440015 170.213111 
L 340.165986 214.59619 
L 340.891958 213.363223 
L 341.61793 144.210415 
L 342.343901 164.077233 
L 343.069873 216.68877 
L 343.795845 214.994892 
L 344.521817 139.867534 
L 345.247788 165.893561 
L 345.97376 213.057496 
L 346.699732 197.923979 
L 347.425703 215.912577 
L 348.151675 125.781264 
L 348.877647 211.387949 
L 349.603618 134.18395 
L 350.32959 148.243018 
L 351.055562 148.943765 
L 351.781534 152.489562 
L 352.507505 206.072055 
L 353.233477 205.008203 
L 353.959449 134.991257 
L 354.68542 202.894275 
L 355.411392 211.567168 
L 356.137364 138.455014 
L 356.863336 213.06252 
L 357.589307 134.152991 
L 358.315279 207.122042 
L 359.041251 209.989219 
L 359.767222 199.666564 
L 360.493194 206.699658 
L 361.219166 205.920291 
L 361.945137 143.404267 
L 362.671109 216.198869 
L 363.397081 131.107696 
L 364.123053 211.393423 
L 364.849024 137.200899 
L 365.574996 155.493416 
L 366.300968 147.884299 
L 367.026939 202.956623 
L 367.752911 201.636229 
L 368.478883 199.670772 
L 369.204854 203.209669 
L 369.930826 203.233711 
L 370.656798 198.502209 
L 371.38277 137.436741 
L 372.108741 148.024946 
L 372.834713 198.073191 
L 373.560685 137.822851 
L 374.286656 208.306814 
L 375.012628 200.91859 
L 375.7386 134.32727 
L 376.464571 205.772421 
L 377.190543 125.839464 
L 377.916515 157.256848 
L 378.642487 203.311286 
L 379.368458 191.043982 
L 380.09443 190.470454 
L 380.820402 198.236395 
L 381.546373 204.047398 
L 382.272345 196.871365 
L 382.998317 203.305427 
L 383.724289 133.297048 
L 384.45026 154.07556 
L 385.176232 146.284322 
L 385.902204 201.056832 
L 386.628175 191.324928 
L 387.354147 130.154148 
L 388.080119 148.925784 
L 388.80609 137.326725 
L 389.532062 139.891621 
L 390.258034 191.547353 
L 390.984006 124.228642 
L 391.709977 192.036133 
L 392.435949 185.453198 
L 393.161921 186.262596 
L 393.887892 184.182672 
L 394.613864 186.43942 
L 395.339836 129.726822 
L 396.065807 192.800792 
L 396.791779 177.976872 
L 397.517751 182.257257 
L 398.243723 177.389136 
L 398.969694 187.372749 
L 399.695666 124.84131 
L 400.421638 139.161344 
L 401.147609 127.9831 
L 401.873581 185.577529 
L 402.599553 168.847314 
L 403.325524 181.962777 
L 404.051496 120.505976 
L 404.777468 185.164016 
L 405.50344 120.047807 
L 406.229411 180.110798 
L 406.955383 175.700468 
L 407.681355 182.378658 
L 408.407326 124.043528 
L 409.133298 134.179296 
L 409.85927 126.385297 
L 410.585242 176.482456 
L 411.311213 106.507435 
L 412.037185 125.657635 
L 412.763157 120.818718 
L 413.489128 170.363667 
L 414.2151 162.903367 
L 414.941072 112.659715 
L 415.667043 118.110138 
L 416.393015 118.442239 
L 417.118987 114.985618 
L 417.844959 161.312205 
L 418.57093 92.309723 
L 419.296902 159.609473 
L 420.022874 99.583353 
L 420.748845 113.502985 
L 421.474817 154.200336 
L 422.200789 150.056924 
L 422.92676 146.595493 
L 423.652732 94.374964 
L 424.378704 152.278958 
L 425.104676 94.837204 
L 425.830647 103.253038 
L 426.556619 147.185682 
L 427.282591 90.842951 
L 428.008562 98.390206 
L 428.734534 94.375843 
L 429.460506 141.021104 
L 430.186477 84.613817 
L 430.912449 141.440968 
L 431.638421 83.738368 
L 432.364393 143.628377 
L 433.090364 143.108103 
L 434.542308 138.601667 
L 435.268279 84.059438 
L 435.994251 141.976599 
L 437.446195 127.525867 
L 438.172166 136.217651 
L 438.898138 129.496586 
L 439.62411 126.412543 
L 440.350081 81.217264 
L 441.076053 83.982028 
L 441.802025 81.400579 
L 443.253968 77.255835 
L 443.97994 78.677948 
L 444.705912 117.669881 
L 445.431883 64.599485 
L 446.157855 120.209621 
L 446.883827 63.760166 
L 447.609798 112.875732 
L 448.33577 108.518311 
L 449.061742 58.595999 
L 449.787713 65.023508 
L 450.513685 58.849715 
L 451.239657 101.052596 
L 451.965629 53.88204 
L 452.6916 53.542647 
L 453.417572 52.987103 
L 454.143544 62.736947 
L 454.869515 52.648155 
L 455.595487 97.592497 
L 456.321459 40.634771 
L 457.04743 49.659292 
L 457.773402 53.171025 
L 458.499374 83.553603 
L 459.225346 87.97171 
L 459.951317 47.876563 
L 460.677289 46.434826 
L 461.403261 40.290626 
L 462.129232 89.532649 
L 462.855204 85.883253 
L 463.581176 37.682834 
L 464.307148 41.399104 
L 465.759091 34.67267 
L 465.759091 34.67267 
" style="fill:none;stroke:#1f77b4;stroke-linecap:square;stroke-width:1.5;"/>
   </g>
   <g id="line2d_2">
    <path clip-path="url(#p3a562c0fdc)" d="M 59.940909 225.493302 
L 60.666881 234.647791 
L 61.392852 219.651244 
L 62.118824 245.230144 
L 62.844796 250.87957 
L 63.570768 247.675723 
L 64.296739 243.063455 
L 65.022711 240.691182 
L 65.748683 193.98334 
L 67.200626 238.15683 
L 67.926598 224.375161 
L 69.378541 242.239866 
L 70.104513 243.568234 
L 70.830485 255.104021 
L 71.556456 259.801302 
L 72.282428 261.274564 
L 73.0084 193.146245 
L 73.734371 250.510723 
L 74.460343 238.459356 
L 75.186315 252.289375 
L 75.912287 247.536373 
L 76.638258 265.474389 
L 77.36423 253.94262 
L 78.090202 203.880974 
L 78.816173 224.410942 
L 79.542145 187.228174 
L 80.268117 238.639542 
L 80.994088 195.18747 
L 81.72006 193.039199 
L 82.446032 214.70698 
L 83.172004 215.725837 
L 83.897975 184.036783 
L 84.623947 222.092883 
L 85.349919 232.695163 
L 86.07589 233.560644 
L 86.801862 242.81301 
L 87.527834 233.809935 
L 88.253805 254.293583 
L 88.979777 257.835111 
L 89.705749 241.724638 
L 90.431721 258.866917 
L 91.157692 266.143601 
L 91.883664 269.755091 
L 92.609636 257.264487 
L 93.335607 248.213403 
L 94.061579 257.467392 
L 94.787551 161.275358 
L 95.513523 239.345977 
L 96.239494 173.408009 
L 96.965466 235.095191 
L 97.691438 233.443995 
L 98.417409 234.971048 
L 99.143381 187.268966 
L 99.869353 228.368867 
L 100.595324 227.923928 
L 101.321296 232.995906 
L 102.047268 240.382242 
L 102.77324 251.176167 
L 103.499211 255.586333 
L 104.225183 254.775959 
L 104.951155 238.062834 
L 105.677126 227.625694 
L 106.403098 201.696059 
L 107.12907 248.808361 
L 107.855041 241.305701 
L 108.581013 231.405001 
L 109.306985 252.744215 
L 110.032957 253.059875 
L 110.758928 238.543348 
L 111.4849 265.594354 
L 112.210872 255.593521 
L 112.936843 262.290513 
L 113.662815 254.814307 
L 114.388787 193.096597 
L 115.114758 251.686416 
L 115.84073 258.292356 
L 116.566702 184.751032 
L 117.292674 248.478976 
L 118.018645 171.221023 
L 118.744617 241.458283 
L 120.19656 253.367398 
L 120.922532 248.338268 
L 121.648504 258.539264 
L 122.374476 174.802615 
L 123.100447 220.059124 
L 123.826419 234.847056 
L 124.552391 224.64037 
L 125.278362 203.586852 
L 126.004334 233.176661 
L 126.730306 220.017808 
L 127.456277 203.806129 
L 128.182249 209.273402 
L 128.908221 218.875965 
L 129.634193 234.267782 
L 130.360164 239.224026 
L 131.086136 246.650748 
L 131.812108 230.28827 
L 132.538079 250.883196 
L 133.264051 230.346871 
L 133.990023 196.161299 
L 134.715994 231.290241 
L 135.441966 245.33711 
L 136.167938 247.333868 
L 136.89391 250.701687 
L 137.619881 251.283948 
L 138.345853 257.053374 
L 139.071825 246.229353 
L 139.797796 263.164767 
L 140.523768 244.385583 
L 141.24974 261.654401 
L 141.975711 270.263465 
L 142.701683 264.596317 
L 143.427655 272.284694 
L 144.153627 275.651246 
L 144.879598 259.861209 
L 145.60557 271.326298 
L 146.331542 270.048515 
L 147.057513 267.935504 
L 147.783485 272.378319 
L 148.509457 272.033939 
L 149.235429 272.671475 
L 149.9614 271.4277 
L 150.687372 275.983467 
L 151.413344 276.09266 
L 152.139315 281.76358 
L 152.865287 278.749281 
L 153.591259 246.238743 
L 154.31723 241.589685 
L 155.043202 249.425561 
L 155.769174 233.242638 
L 156.495146 247.45786 
L 157.221117 257.29595 
L 157.947089 200.364568 
L 158.673061 241.670104 
L 159.399032 252.537551 
L 160.125004 181.688753 
L 160.850976 245.207667 
L 161.576947 251.257697 
L 162.302919 254.854801 
L 163.028891 255.215993 
L 163.754863 254.387115 
L 164.480834 256.507576 
L 165.206806 271.108826 
L 165.932778 235.721035 
L 166.658749 267.398871 
L 167.384721 244.358982 
L 168.110693 214.40314 
L 168.836664 239.699182 
L 169.562636 220.649426 
L 170.288608 243.715618 
L 171.01458 239.790864 
L 171.740551 237.373046 
L 172.466523 230.324469 
L 173.192495 242.593078 
L 173.918466 246.223798 
L 174.644438 253.955089 
L 175.37041 179.727256 
L 176.096382 248.101999 
L 176.822353 174.372507 
L 177.548325 218.200857 
L 178.274297 224.0928 
L 179.000268 200.687418 
L 179.72624 196.823382 
L 180.452212 200.114679 
L 181.178183 192.894099 
L 181.904155 220.446458 
L 182.630127 187.780631 
L 183.356099 212.258341 
L 184.08207 217.130389 
L 184.808042 183.885721 
L 185.534014 219.923671 
L 186.259985 188.981726 
L 186.985957 208.672353 
L 187.711929 214.352189 
L 188.4379 227.868912 
L 189.163872 223.379919 
L 189.889844 236.73495 
L 190.615816 195.327198 
L 191.341787 205.106185 
L 192.067759 197.592512 
L 192.793731 221.169587 
L 193.519702 211.169025 
L 194.971646 227.954123 
L 195.697617 198.276681 
L 196.423589 232.270099 
L 197.149561 232.501821 
L 197.875533 241.649505 
L 198.601504 243.809684 
L 199.327476 235.119173 
L 200.053448 251.095202 
L 200.779419 244.819493 
L 201.505391 233.691306 
L 202.231363 229.232565 
L 204.409278 258.964552 
L 205.13525 243.62036 
L 205.861221 208.459664 
L 206.587193 243.208488 
L 207.313165 191.155112 
L 208.039136 237.932129 
L 208.765108 247.953659 
L 209.49108 242.485602 
L 210.217052 203.447998 
L 210.943023 241.733804 
L 211.668995 242.615974 
L 212.394967 254.571253 
L 213.120938 251.177288 
L 213.84691 238.036359 
L 214.572882 256.111148 
L 215.298853 261.174514 
L 216.024825 239.366869 
L 216.750797 255.424909 
L 217.476769 203.303056 
L 218.20274 248.2297 
L 218.928712 257.071421 
L 220.380655 254.537484 
L 221.106627 261.352891 
L 221.832599 260.177151 
L 222.55857 263.989518 
L 223.284542 266.483414 
L 224.010514 270.127709 
L 224.736486 270.866623 
L 225.462457 261.954741 
L 226.188429 275.665872 
L 226.914401 268.999125 
L 227.640372 270.688867 
L 228.366344 276.977169 
L 229.092316 263.030823 
L 230.544259 273.708128 
L 231.270231 261.784376 
L 231.996203 269.410342 
L 232.722174 235.584915 
L 233.448146 267.591307 
L 234.174118 189.316802 
L 234.900089 229.753311 
L 235.626061 252.432528 
L 236.352033 251.862129 
L 237.078005 227.048295 
L 237.803976 206.515302 
L 238.529948 248.598352 
L 239.25592 247.183768 
L 239.981891 255.1599 
L 240.707863 238.552143 
L 241.433835 205.02547 
L 242.159806 209.272715 
L 242.885778 240.42981 
L 243.61175 244.380924 
L 244.337722 245.353381 
L 245.063693 254.997751 
L 245.789665 237.715644 
L 246.515637 247.94686 
L 247.241608 206.252297 
L 247.96758 215.895756 
L 248.693552 219.777109 
L 249.419523 241.458027 
L 250.145495 198.373235 
L 250.871467 234.431666 
L 251.597439 194.593349 
L 252.32341 208.183961 
L 253.049382 230.055125 
L 253.775354 225.939757 
L 254.501325 234.447624 
L 255.227297 237.226332 
L 255.953269 180.81524 
L 256.679241 235.052975 
L 257.405212 238.734017 
L 258.131184 237.975003 
L 258.857156 236.056203 
L 259.583127 247.182055 
L 260.309099 232.718475 
L 261.035071 235.30965 
L 261.761042 247.624006 
L 262.487014 241.624271 
L 263.212986 226.790733 
L 263.938958 235.313838 
L 264.664929 190.618329 
L 265.390901 206.884397 
L 266.116873 230.828493 
L 266.842844 230.514748 
L 267.568816 238.720363 
L 268.294788 195.415575 
L 269.020759 203.29915 
L 269.746731 230.087564 
L 270.472703 219.233606 
L 271.198675 235.74099 
L 271.924646 234.158192 
L 272.650618 227.859819 
L 274.102561 244.307931 
L 274.828533 235.014082 
L 275.554505 175.482117 
L 276.280477 229.784154 
L 277.006448 222.048873 
L 277.73242 196.904996 
L 278.458392 225.004559 
L 279.184363 233.303807 
L 279.910335 183.566843 
L 280.636307 230.849074 
L 281.362278 189.699585 
L 282.08825 227.381021 
L 282.814222 192.004536 
L 283.540194 214.592877 
L 284.266165 187.363712 
L 284.992137 186.545232 
L 285.718109 207.973509 
L 286.44408 182.605603 
L 287.170052 179.01674 
L 287.896024 194.602394 
L 288.621995 180.182708 
L 289.347967 173.623072 
L 290.073939 196.932046 
L 290.799911 168.330834 
L 291.525882 192.599012 
L 292.251854 164.700511 
L 292.977826 192.639407 
L 293.703797 201.747195 
L 294.429769 197.92127 
L 295.155741 212.890116 
L 295.881712 210.726627 
L 296.607684 224.876031 
L 297.333656 232.121479 
L 298.059628 173.26719 
L 298.785599 202.927741 
L 299.511571 180.770795 
L 300.237543 208.832343 
L 300.963514 208.463501 
L 301.689486 217.480552 
L 303.14143 186.495237 
L 303.867401 178.25032 
L 304.593373 203.190892 
L 305.319345 182.554445 
L 306.045316 209.240252 
L 306.771288 172.920008 
L 307.49726 184.068552 
L 308.223231 170.858703 
L 308.949203 190.296615 
L 309.675175 169.97973 
L 310.401147 200.083022 
L 311.127118 206.139588 
L 311.85309 213.384426 
L 312.579062 223.82764 
L 313.305033 205.001103 
L 314.031005 229.84941 
L 314.756977 233.393267 
L 315.482948 183.947365 
L 316.20892 226.371512 
L 316.934892 215.112558 
L 317.660864 221.555831 
L 318.386835 220.25591 
L 319.112807 179.521437 
L 319.838779 222.165992 
L 320.56475 210.607763 
L 321.290722 213.540988 
L 322.016694 223.000514 
L 322.742665 228.438205 
L 323.468637 236.834379 
L 324.194609 240.152059 
L 324.920581 234.355021 
L 325.646552 242.078367 
L 326.372524 244.183953 
L 327.098496 227.52985 
L 327.824467 240.379365 
L 328.550439 180.194801 
L 329.276411 226.266188 
L 330.002383 222.968934 
L 330.728354 214.720266 
L 331.454326 227.348945 
L 332.180298 233.539268 
L 332.906269 222.986502 
L 333.632241 179.604611 
L 334.358213 204.768684 
L 335.084184 219.307295 
L 335.810156 221.694675 
L 336.536128 192.823474 
L 337.2621 212.664586 
L 337.988071 214.571365 
L 338.714043 202.748323 
L 339.440015 218.153236 
L 340.165986 223.876724 
L 340.891958 227.596465 
L 341.61793 223.218545 
L 343.069873 236.671529 
L 343.795845 229.705615 
L 344.521817 219.823587 
L 345.97376 232.553757 
L 346.699732 236.956331 
L 347.425703 243.107308 
L 348.151675 202.783757 
L 348.877647 237.957346 
L 349.603618 163.767177 
L 350.32959 225.837502 
L 351.055562 180.727095 
L 351.781534 215.487117 
L 352.507505 218.381326 
L 353.233477 219.249842 
L 353.959449 204.758555 
L 354.68542 213.025465 
L 355.411392 223.882202 
L 356.137364 211.836896 
L 356.863336 220.189497 
L 357.589307 175.300684 
L 358.315279 221.039563 
L 359.041251 219.043588 
L 360.493194 184.3767 
L 361.219166 216.415491 
L 361.945137 219.981787 
L 362.671109 212.825849 
L 363.397081 212.971088 
L 364.123053 179.440692 
L 364.849024 184.745939 
L 365.574996 180.18998 
L 366.300968 166.472412 
L 367.026939 189.34574 
L 367.752911 196.695261 
L 368.478883 193.962667 
L 369.204854 197.752529 
L 369.930826 178.852199 
L 370.656798 175.346902 
L 371.38277 168.863426 
L 372.108741 176.677684 
L 372.834713 182.077057 
L 373.560685 184.070907 
L 374.286656 169.210014 
L 375.012628 189.363564 
L 375.7386 179.867137 
L 376.464571 194.551979 
L 377.190543 178.970688 
L 377.916515 185.231028 
L 378.642487 169.592293 
L 379.368458 183.227657 
L 380.09443 182.186885 
L 381.546373 183.879624 
L 382.272345 168.67213 
L 382.998317 186.039333 
L 383.724289 190.381479 
L 384.45026 168.757942 
L 385.176232 188.590111 
L 385.902204 180.14045 
L 386.628175 161.018541 
L 387.354147 162.257023 
L 388.80609 147.926503 
L 389.532062 140.939473 
L 390.258034 152.188719 
L 390.984006 141.393202 
L 391.709977 153.091247 
L 392.435949 142.801838 
L 393.887892 136.392788 
L 394.613864 151.540738 
L 395.339836 154.154082 
L 396.065807 145.977695 
L 396.791779 134.00542 
L 397.517751 149.05778 
L 398.243723 130.703936 
L 398.969694 144.025614 
L 399.695666 134.281575 
L 401.147609 125.629584 
L 401.873581 136.778149 
L 402.599553 123.426079 
L 403.325524 121.794573 
L 404.051496 123.352924 
L 404.777468 132.759199 
L 405.50344 123.082135 
L 406.229411 131.486139 
L 406.955383 121.211122 
L 407.681355 134.529105 
L 409.133298 139.08098 
L 409.85927 126.292674 
L 410.585242 136.279209 
L 411.311213 126.175151 
L 412.037185 122.618077 
L 412.763157 122.383779 
L 413.489128 129.16123 
L 414.2151 117.786732 
L 414.941072 116.667493 
L 415.667043 110.935513 
L 416.393015 109.309733 
L 417.118987 106.353109 
L 417.844959 112.0503 
L 418.57093 106.940004 
L 419.296902 119.487297 
L 420.022874 112.452517 
L 420.748845 109.297196 
L 421.474817 118.004685 
L 422.92676 125.511151 
L 423.652732 130.539145 
L 424.378704 115.354928 
L 425.104676 124.758174 
L 425.830647 116.168892 
L 426.556619 126.083672 
L 427.282591 118.513111 
L 428.008562 117.098795 
L 428.734534 114.125265 
L 429.460506 126.143805 
L 430.186477 114.547736 
L 430.912449 128.006568 
L 431.638421 114.368524 
L 432.364393 125.325041 
L 433.090364 126.651188 
L 433.816336 131.787105 
L 434.542308 119.010676 
L 435.268279 113.177979 
L 435.994251 109.268329 
L 436.720223 117.103028 
L 437.446195 109.644159 
L 438.172166 116.864454 
L 438.898138 110.632431 
L 439.62411 116.764761 
L 440.350081 105.33921 
L 441.076053 105.727759 
L 441.802025 101.175743 
L 442.527996 94.422094 
L 443.253968 99.491944 
L 443.97994 92.458296 
L 444.705912 104.139734 
L 445.431883 97.242927 
L 446.157855 106.476989 
L 446.883827 97.675204 
L 447.609798 101.998317 
L 448.33577 103.634305 
L 449.061742 91.601632 
L 449.787713 96.564687 
L 450.513685 88.429818 
L 451.239657 85.429064 
L 451.965629 83.73051 
L 453.417572 98.784264 
L 454.143544 91.186964 
L 454.869515 95.991047 
L 455.595487 98.141539 
L 456.321459 99.423055 
L 457.773402 82.67344 
L 458.499374 87.427893 
L 459.225346 93.685443 
L 459.951317 86.811775 
L 460.677289 89.651416 
L 461.403261 83.07541 
L 462.129232 80.574182 
L 463.581176 88.693095 
L 464.307148 79.401345 
L 465.033119 73.765823 
L 465.759091 66.124453 
L 465.759091 66.124453 
" style="fill:none;stroke:#ff7f0e;stroke-linecap:square;stroke-width:1.5;"/>
   </g>
   <g id="line2d_3">
    <path clip-path="url(#p3a562c0fdc)" d="M 59.940909 252.495728 
L 60.666881 251.596675 
L 61.392852 239.877096 
L 62.118824 251.262019 
L 62.844796 234.812511 
L 63.570768 256.330165 
L 64.296739 205.460561 
L 65.022711 228.235774 
L 65.748683 228.999487 
L 67.200626 242.862024 
L 67.926598 241.73788 
L 68.65257 242.968056 
L 69.378541 247.81123 
L 70.104513 248.976015 
L 70.830485 191.384613 
L 71.556456 253.355427 
L 72.282428 198.423188 
L 73.0084 243.745803 
L 73.734371 199.492486 
L 74.460343 226.213829 
L 75.186315 242.394769 
L 75.912287 193.871308 
L 76.638258 241.132039 
L 77.36423 224.264097 
L 78.090202 227.698955 
L 78.816173 235.815655 
L 79.542145 228.169522 
L 80.268117 241.911312 
L 80.994088 232.440086 
L 81.72006 239.554473 
L 82.446032 240.520756 
L 83.172004 194.126281 
L 84.623947 238.392264 
L 85.349919 241.874969 
L 86.07589 239.581451 
L 86.801862 201.850291 
L 87.527834 243.243423 
L 88.253805 230.529733 
L 88.979777 224.791294 
L 89.705749 229.106625 
L 90.431721 230.075568 
L 91.157692 245.146448 
L 91.883664 203.23654 
L 92.609636 211.694605 
L 93.335607 236.6051 
L 94.061579 194.002935 
L 94.787551 234.881476 
L 95.513523 239.309354 
L 96.239494 220.355699 
L 96.965466 211.172606 
L 97.691438 217.521904 
L 98.417409 214.418557 
L 99.143381 228.046592 
L 99.869353 203.000929 
L 100.595324 214.812608 
L 101.321296 224.322327 
L 102.047268 227.31384 
L 102.77324 223.772748 
L 103.499211 238.268858 
L 104.225183 242.209475 
L 104.951155 244.946083 
L 105.677126 237.330875 
L 106.403098 238.403496 
L 107.12907 251.690552 
L 107.855041 246.9542 
L 108.581013 248.737978 
L 109.306985 240.033233 
L 110.032957 253.627529 
L 110.758928 244.095459 
L 111.4849 258.580658 
L 112.210872 203.376 
L 112.936843 257.827552 
L 113.662815 221.583534 
L 115.114758 254.777069 
L 115.84073 251.962274 
L 116.566702 232.902878 
L 117.292674 258.600716 
L 118.018645 229.259071 
L 118.744617 215.597123 
L 119.470589 254.395251 
L 120.19656 251.131 
L 120.922532 253.984055 
L 121.648504 258.13242 
L 122.374476 258.304135 
L 123.100447 257.461612 
L 123.826419 256.876056 
L 124.552391 257.230443 
L 125.278362 267.017499 
L 126.004334 259.058095 
L 126.730306 249.811636 
L 127.456277 258.446848 
L 128.182249 238.695555 
L 128.908221 240.225549 
L 129.634193 256.513555 
L 131.086136 255.457999 
L 131.812108 253.283088 
L 132.538079 264.966813 
L 133.264051 243.984573 
L 133.990023 262.605733 
L 134.715994 263.497632 
L 135.441966 265.200543 
L 136.167938 264.596327 
L 137.619881 269.063525 
L 138.345853 267.043147 
L 139.071825 267.205893 
L 139.797796 277.413657 
L 140.523768 271.701163 
L 141.24974 253.695777 
L 141.975711 271.635612 
L 142.701683 176.122418 
L 143.427655 258.774876 
L 144.153627 261.061328 
L 144.879598 202.029502 
L 145.60557 256.266079 
L 146.331542 258.891633 
L 147.057513 238.31047 
L 147.783485 257.89028 
L 148.509457 257.319158 
L 149.235429 201.300442 
L 149.9614 252.022525 
L 150.687372 250.855623 
L 152.139315 256.666983 
L 152.865287 241.69173 
L 153.591259 245.107155 
L 154.31723 244.964903 
L 155.043202 242.903123 
L 155.769174 243.774147 
L 156.495146 234.643482 
L 157.947089 255.319288 
L 158.673061 241.650038 
L 159.399032 255.276837 
L 160.125004 256.917093 
L 160.850976 257.669888 
L 161.576947 203.267997 
L 162.302919 260.532851 
L 163.028891 241.271933 
L 163.754863 198.447797 
L 164.480834 231.62469 
L 165.206806 248.450101 
L 165.932778 249.006355 
L 166.658749 255.624967 
L 167.384721 253.997283 
L 168.110693 255.551882 
L 168.836664 250.920476 
L 169.562636 255.066793 
L 170.288608 203.68526 
L 171.01458 254.493191 
L 171.740551 203.729775 
L 172.466523 232.663101 
L 173.192495 209.407154 
L 173.918466 236.521162 
L 174.644438 241.893401 
L 175.37041 221.646564 
L 176.096382 227.280268 
L 176.822353 226.990178 
L 177.548325 236.725498 
L 178.274297 203.775693 
L 179.000268 229.593495 
L 179.72624 199.930891 
L 180.452212 228.357107 
L 181.178183 197.657114 
L 181.904155 229.797473 
L 182.630127 187.872268 
L 183.356099 228.383657 
L 184.08207 230.622875 
L 184.808042 195.389945 
L 185.534014 221.806176 
L 186.259985 220.636638 
L 186.985957 221.351558 
L 187.711929 199.900137 
L 188.4379 208.987983 
L 189.163872 225.134112 
L 189.889844 197.523957 
L 190.615816 214.829878 
L 191.341787 211.69419 
L 192.067759 216.057911 
L 192.793731 195.03936 
L 193.519702 220.079723 
L 194.245674 199.242537 
L 194.971646 204.03634 
L 195.697617 216.428873 
L 196.423589 224.017488 
L 197.149561 220.736455 
L 197.875533 226.967819 
L 198.601504 198.49368 
L 199.327476 206.262975 
L 200.053448 223.367455 
L 200.779419 222.839416 
L 201.505391 200.660856 
L 202.231363 226.910916 
L 202.957335 189.891154 
L 203.683306 227.079518 
L 204.409278 212.902507 
L 205.13525 205.421631 
L 205.861221 208.125392 
L 206.587193 213.96459 
L 207.313165 194.230596 
L 208.039136 222.421085 
L 208.765108 225.881763 
L 209.49108 224.769554 
L 210.217052 232.3123 
L 210.943023 234.906941 
L 211.668995 201.171765 
L 212.394967 233.337181 
L 213.120938 194.193662 
L 214.572882 219.585161 
L 215.298853 224.301213 
L 216.024825 194.183305 
L 216.750797 228.335866 
L 217.476769 221.98336 
L 218.20274 197.777418 
L 218.928712 229.095904 
L 219.654684 197.452195 
L 220.380655 228.633354 
L 221.106627 218.154257 
L 221.832599 231.37555 
L 222.55857 199.363855 
L 223.284542 233.905491 
L 224.010514 236.30233 
L 224.736486 235.225861 
L 225.462457 235.688265 
L 226.188429 243.064634 
L 226.914401 241.169164 
L 227.640372 245.490522 
L 228.366344 232.402723 
L 229.092316 248.90686 
L 229.818288 200.321852 
L 230.544259 242.82372 
L 231.270231 189.402565 
L 231.996203 244.297293 
L 232.722174 200.853228 
L 233.448146 239.502576 
L 234.174118 239.966311 
L 234.900089 187.213215 
L 235.626061 243.16721 
L 237.078005 225.8231 
L 237.803976 211.389225 
L 238.529948 215.738937 
L 239.25592 232.682898 
L 239.981891 201.419046 
L 240.707863 230.381124 
L 241.433835 223.759894 
L 242.159806 237.668602 
L 242.885778 203.110925 
L 243.61175 207.327411 
L 244.337722 202.676015 
L 245.063693 218.610026 
L 245.789665 200.754887 
L 246.515637 228.141903 
L 247.241608 228.104386 
L 247.96758 189.116805 
L 248.693552 221.939007 
L 249.419523 225.01978 
L 250.145495 203.08558 
L 250.871467 225.65472 
L 251.597439 189.49802 
L 252.32341 207.851881 
L 253.775354 226.202901 
L 254.501325 226.13576 
L 255.227297 220.660249 
L 256.679241 232.235458 
L 257.405212 193.46075 
L 258.131184 215.577399 
L 259.583127 232.945959 
L 260.309099 188.997653 
L 261.035071 228.198975 
L 261.761042 223.564734 
L 262.487014 208.912384 
L 263.212986 199.899287 
L 263.938958 224.363322 
L 264.664929 197.506238 
L 265.390901 223.979267 
L 266.116873 223.35185 
L 266.842844 231.418397 
L 267.568816 194.256546 
L 268.294788 224.55512 
L 269.020759 220.752404 
L 269.746731 230.933873 
L 270.472703 231.957355 
L 271.198675 231.727272 
L 271.924646 228.737535 
L 272.650618 194.217533 
L 273.37659 225.005172 
L 274.102561 220.984681 
L 274.828533 235.621587 
L 275.554505 223.143232 
L 276.280477 224.733311 
L 277.006448 197.399088 
L 277.73242 226.405889 
L 278.458392 204.736813 
L 279.184363 220.721982 
L 279.910335 218.949624 
L 280.636307 227.698068 
L 281.362278 223.491937 
L 282.08825 232.257077 
L 282.814222 223.49831 
L 283.540194 230.329905 
L 284.266165 223.11075 
L 284.992137 227.76606 
L 285.718109 234.149031 
L 286.44408 233.115797 
L 287.170052 227.843138 
L 287.896024 238.652491 
L 288.621995 225.176568 
L 289.347967 231.856045 
L 290.073939 237.112378 
L 290.799911 238.422543 
L 291.525882 235.514808 
L 292.251854 233.575521 
L 292.977826 228.769587 
L 293.703797 245.160218 
L 294.429769 240.764682 
L 295.155741 243.606353 
L 295.881712 235.367016 
L 296.607684 249.044677 
L 297.333656 247.045454 
L 298.059628 242.56527 
L 298.785599 191.050004 
L 299.511571 227.747061 
L 300.237543 234.590668 
L 300.963514 230.184256 
L 301.689486 231.487748 
L 303.14143 201.046944 
L 303.867401 223.216312 
L 304.593373 228.042626 
L 305.319345 230.236493 
L 306.045316 199.58887 
L 306.771288 225.908524 
L 307.49726 193.577699 
L 308.949203 213.858362 
L 309.675175 196.368384 
L 310.401147 223.645882 
L 311.127118 214.701397 
L 311.85309 213.716043 
L 312.579062 226.407356 
L 313.305033 191.221028 
L 314.031005 225.687824 
L 314.756977 216.557151 
L 315.482948 223.51311 
L 316.20892 227.366938 
L 316.934892 181.648392 
L 317.660864 225.781091 
L 318.386835 216.574775 
L 319.112807 193.409282 
L 319.838779 219.635687 
L 320.56475 215.089027 
L 321.290722 218.260808 
L 322.016694 208.893398 
L 322.742665 224.810236 
L 323.468637 226.323631 
L 324.194609 225.632795 
L 324.920581 226.634985 
L 325.646552 217.405707 
L 326.372524 230.359476 
L 327.824467 222.897417 
L 329.276411 231.815311 
L 330.002383 196.189444 
L 330.728354 211.373089 
L 331.454326 217.893404 
L 332.180298 210.244624 
L 332.906269 194.202449 
L 333.632241 210.663374 
L 334.358213 218.249845 
L 335.084184 195.302569 
L 335.810156 198.522576 
L 336.536128 214.93487 
L 337.2621 177.205392 
L 337.988071 191.894757 
L 338.714043 178.599426 
L 339.440015 185.901856 
L 340.165986 198.95032 
L 340.891958 194.498763 
L 341.61793 178.768025 
L 342.343901 200.234318 
L 343.069873 200.568832 
L 343.795845 200.570842 
L 344.521817 198.790572 
L 345.247788 177.810907 
L 345.97376 198.588039 
L 346.699732 194.30072 
L 347.425703 206.329805 
L 348.151675 194.052252 
L 348.877647 201.527232 
L 349.603618 199.010635 
L 350.32959 180.857762 
L 351.055562 198.719131 
L 351.781534 187.048097 
L 352.507505 201.570062 
L 353.233477 204.036648 
L 353.959449 188.442458 
L 354.68542 201.59166 
L 355.411392 197.509854 
L 356.137364 179.472782 
L 356.863336 203.617512 
L 357.589307 171.725498 
L 358.315279 202.195642 
L 359.041251 200.749585 
L 359.767222 195.154221 
L 360.493194 202.351014 
L 361.219166 206.988572 
L 361.945137 207.18087 
L 362.671109 202.550756 
L 363.397081 208.719583 
L 364.123053 181.64479 
L 364.849024 194.420575 
L 365.574996 196.961912 
L 366.300968 196.889438 
L 367.026939 204.27094 
L 367.752911 205.611518 
L 368.478883 200.922022 
L 369.204854 206.232398 
L 369.930826 206.532819 
L 370.656798 209.185194 
L 371.38277 205.910511 
L 372.108741 197.069563 
L 372.834713 209.70163 
L 373.560685 200.429255 
L 374.286656 189.160696 
L 375.012628 185.344877 
L 375.7386 198.56847 
L 376.464571 191.632627 
L 377.190543 172.630299 
L 377.916515 183.452556 
L 378.642487 191.640996 
L 379.368458 191.591071 
L 380.09443 190.376475 
L 380.820402 196.59895 
L 381.546373 180.681872 
L 382.272345 196.625119 
L 382.998317 197.862521 
L 383.724289 192.705236 
L 384.45026 199.503164 
L 385.176232 192.898591 
L 385.902204 197.329577 
L 386.628175 199.306867 
L 387.354147 172.940916 
L 388.080119 197.329004 
L 388.80609 173.989916 
L 389.532062 188.39004 
L 390.258034 182.142159 
L 390.984006 171.79521 
L 391.709977 185.231487 
L 392.435949 185.861127 
L 393.161921 187.324846 
L 393.887892 189.126736 
L 394.613864 192.447068 
L 395.339836 188.893711 
L 396.065807 193.860277 
L 396.791779 191.278414 
L 397.517751 191.827448 
L 398.243723 188.421286 
L 398.969694 186.042898 
L 399.695666 173.269992 
L 401.147609 168.848055 
L 401.873581 178.200766 
L 402.599553 176.53473 
L 403.325524 180.10477 
L 404.051496 176.634849 
L 404.777468 158.494042 
L 405.50344 172.233695 
L 406.229411 159.127654 
L 406.955383 169.725378 
L 407.681355 158.291679 
L 408.407326 158.094909 
L 409.133298 165.889345 
L 409.85927 168.210718 
L 410.585242 155.427034 
L 411.311213 153.059236 
L 412.037185 157.291749 
L 412.763157 159.72272 
L 413.489128 147.686798 
L 414.2151 150.662601 
L 415.667043 154.007017 
L 416.393015 152.648304 
L 417.118987 153.338823 
L 417.844959 146.798905 
L 418.57093 149.493564 
L 419.296902 152.615874 
L 420.022874 144.303875 
L 420.748845 137.923698 
L 421.474817 142.948306 
L 422.200789 140.775391 
L 422.92676 142.258087 
L 423.652732 137.148139 
L 424.378704 138.251151 
L 425.104676 132.205299 
L 425.830647 128.127119 
L 426.556619 128.634289 
L 428.008562 121.76339 
L 428.734534 120.540506 
L 429.460506 122.551268 
L 430.186477 116.522636 
L 430.912449 120.048047 
L 431.638421 115.368678 
L 432.364393 117.75163 
L 433.090364 118.963068 
L 433.816336 120.45717 
L 434.542308 116.709917 
L 435.268279 116.504845 
L 435.994251 114.679887 
L 436.720223 113.497915 
L 437.446195 108.68743 
L 438.172166 108.424055 
L 438.898138 103.993325 
L 439.62411 101.255452 
L 440.350081 96.943885 
L 441.076053 98.285851 
L 441.802025 96.825962 
L 443.253968 87.547218 
L 443.97994 88.799007 
L 444.705912 86.33756 
L 445.431883 87.021382 
L 446.157855 85.734008 
L 446.883827 90.48751 
L 447.609798 84.692477 
L 448.33577 89.020047 
L 449.061742 85.86145 
L 449.787713 81.584229 
L 450.513685 81.951586 
L 451.239657 78.249016 
L 451.965629 75.751341 
L 452.6916 74.622034 
L 453.417572 75.345454 
L 454.143544 83.10633 
L 454.869515 74.779903 
L 455.595487 74.017698 
L 456.321459 73.447489 
L 457.04743 74.368066 
L 457.773402 71.733149 
L 458.499374 64.036827 
L 459.225346 70.422787 
L 459.951317 73.291202 
L 460.677289 68.008924 
L 461.403261 66.193603 
L 462.129232 67.571991 
L 462.855204 62.242056 
L 463.581176 67.102371 
L 464.307148 64.287802 
L 465.033119 63.367721 
L 465.759091 64.037301 
L 465.759091 64.037301 
" style="fill:none;stroke:#2ca02c;stroke-linecap:square;stroke-width:1.5;"/>
   </g>
   <g id="line2d_4">
    <path clip-path="url(#p3a562c0fdc)" d="M 59.940909 259.06688 
L 60.666881 191.08001 
L 61.392852 227.832265 
L 62.118824 231.271254 
L 62.844796 240.303518 
L 63.570768 254.066233 
L 64.296739 253.871294 
L 65.022711 233.698401 
L 65.748683 253.397409 
L 66.474654 194.785265 
L 67.200626 255.068461 
L 67.926598 228.668229 
L 68.65257 239.086418 
L 69.378541 253.586192 
L 70.104513 193.591702 
L 70.830485 250.319357 
L 71.556456 234.732005 
L 72.282428 179.624419 
L 73.0084 251.024315 
L 73.734371 171.554692 
L 74.460343 226.185434 
L 75.186315 243.36279 
L 75.912287 199.619584 
L 76.638258 230.19823 
L 77.36423 239.110167 
L 78.090202 229.245027 
L 78.816173 191.913089 
L 79.542145 209.46078 
L 80.268117 238.829506 
L 80.994088 197.122357 
L 81.72006 200.819453 
L 82.446032 234.399344 
L 83.897975 224.265876 
L 84.623947 188.30581 
L 85.349919 217.174539 
L 86.07589 234.518306 
L 86.801862 241.152744 
L 87.527834 240.923724 
L 88.253805 244.645526 
L 88.979777 232.976623 
L 89.705749 202.194564 
L 90.431721 238.941861 
L 91.157692 250.073983 
L 91.883664 250.450513 
L 92.609636 176.115804 
L 93.335607 245.037274 
L 94.061579 178.529888 
L 94.787551 238.379989 
L 95.513523 241.299422 
L 96.239494 212.1179 
L 96.965466 234.028284 
L 97.691438 241.726773 
L 98.417409 237.266673 
L 99.143381 240.955596 
L 99.869353 240.351342 
L 100.595324 190.890318 
L 101.321296 217.42622 
L 102.77324 245.896359 
L 103.499211 246.387873 
L 104.225183 194.927585 
L 104.951155 250.113314 
L 105.677126 230.872914 
L 106.403098 196.279205 
L 107.12907 215.002047 
L 107.855041 245.448544 
L 108.581013 239.076756 
L 109.306985 249.416089 
L 110.032957 246.175517 
L 110.758928 191.259702 
L 111.4849 225.074955 
L 112.210872 242.86766 
L 113.662815 253.133335 
L 114.388787 252.643252 
L 115.114758 238.898047 
L 115.84073 238.820956 
L 116.566702 251.027403 
L 117.292674 251.692544 
L 118.018645 187.863813 
L 118.744617 249.64162 
L 119.470589 257.577588 
L 120.19656 258.483196 
L 120.922532 179.71187 
L 121.648504 228.673981 
L 122.374476 209.063888 
L 123.100447 248.40259 
L 123.826419 238.413997 
L 124.552391 234.023002 
L 125.278362 238.33918 
L 126.004334 190.566162 
L 127.456277 243.720317 
L 128.182249 242.497519 
L 128.908221 192.461764 
L 129.634193 248.01032 
L 130.360164 241.44415 
L 131.086136 223.805671 
L 131.812108 251.162121 
L 132.538079 249.515806 
L 133.264051 188.012811 
L 133.990023 249.657159 
L 134.715994 197.240534 
L 135.441966 240.752393 
L 136.167938 247.865349 
L 136.89391 240.652285 
L 137.619881 252.333474 
L 138.345853 253.398855 
L 139.071825 238.452347 
L 139.797796 257.273265 
L 140.523768 181.668263 
L 141.24974 225.537594 
L 141.975711 249.324346 
L 142.701683 247.774355 
L 144.153627 261.928422 
L 144.879598 245.934141 
L 145.60557 239.487652 
L 146.331542 209.754012 
L 147.057513 249.050974 
L 147.783485 255.676604 
L 148.509457 256.767155 
L 149.235429 243.617139 
L 149.9614 245.161305 
L 150.687372 259.347753 
L 151.413344 251.846765 
L 152.139315 182.478705 
L 152.865287 226.995308 
L 153.591259 250.549502 
L 154.31723 248.083285 
L 155.043202 244.548754 
L 155.769174 237.09489 
L 156.495146 236.377099 
L 157.221117 241.982271 
L 157.947089 254.934313 
L 158.673061 235.56659 
L 159.399032 250.902882 
L 160.125004 243.187378 
L 160.850976 255.215086 
L 161.576947 261.417757 
L 162.302919 237.883582 
L 163.028891 257.616516 
L 163.754863 249.270202 
L 164.480834 189.066359 
L 165.206806 253.553664 
L 165.932778 245.947808 
L 166.658749 257.369042 
L 167.384721 251.591155 
L 168.110693 264.327924 
L 168.836664 260.270821 
L 169.562636 265.658449 
L 170.288608 258.021971 
L 171.01458 205.136161 
L 171.740551 257.62852 
L 172.466523 175.687723 
L 173.192495 256.618366 
L 173.918466 253.750424 
L 174.644438 252.915851 
L 175.37041 230.391145 
L 176.822353 244.195764 
L 177.548325 239.040602 
L 178.274297 254.602599 
L 179.000268 250.731084 
L 179.72624 239.4897 
L 180.452212 253.841916 
L 181.178183 215.234633 
L 181.904155 212.482489 
L 182.630127 202.270272 
L 183.356099 248.067002 
L 184.08207 244.196032 
L 184.808042 177.122907 
L 185.534014 241.487698 
L 186.259985 244.72081 
L 186.985957 232.912104 
L 187.711929 247.427177 
L 188.4379 251.133159 
L 189.163872 249.382717 
L 189.889844 234.876452 
L 190.615816 198.648822 
L 191.341787 248.316017 
L 192.067759 199.295365 
L 192.793731 210.182103 
L 193.519702 231.478065 
L 194.245674 196.647109 
L 194.971646 210.221201 
L 195.697617 228.788906 
L 196.423589 242.534444 
L 197.149561 237.115177 
L 197.875533 237.26935 
L 198.601504 198.752681 
L 199.327476 207.002453 
L 200.053448 225.767589 
L 200.779419 232.674301 
L 201.505391 185.920916 
L 202.231363 203.707648 
L 202.957335 182.916563 
L 203.683306 220.205593 
L 204.409278 223.094438 
L 205.13525 191.477589 
L 206.587193 219.779783 
L 207.313165 194.372026 
L 208.039136 227.266575 
L 208.765108 225.103147 
L 209.49108 228.348128 
L 210.217052 234.784801 
L 210.943023 197.322038 
L 211.668995 238.175506 
L 212.394967 241.92461 
L 213.120938 228.34003 
L 213.84691 205.527722 
L 214.572882 208.7114 
L 215.298853 242.638897 
L 216.024825 241.466268 
L 216.750797 228.556651 
L 217.476769 239.090225 
L 218.20274 233.722661 
L 218.928712 236.022293 
L 219.654684 218.544044 
L 220.380655 238.909708 
L 221.106627 241.527239 
L 221.832599 232.800381 
L 222.55857 244.029603 
L 223.284542 239.789577 
L 224.010514 203.500932 
L 224.736486 247.662222 
L 225.462457 249.421497 
L 226.914401 209.689982 
L 227.640372 244.532953 
L 228.366344 230.469068 
L 229.092316 235.936477 
L 229.818288 246.633248 
L 230.544259 229.672945 
L 231.270231 234.140225 
L 231.996203 195.475789 
L 232.722174 235.458433 
L 233.448146 232.284833 
L 234.174118 250.860388 
L 234.900089 228.015598 
L 235.626061 245.876271 
L 236.352033 230.748383 
L 237.078005 246.410424 
L 237.803976 241.972101 
L 238.529948 229.338803 
L 239.25592 242.958663 
L 239.981891 191.356324 
L 240.707863 228.529218 
L 241.433835 233.054358 
L 242.159806 248.009161 
L 242.885778 234.378487 
L 243.61175 237.752522 
L 244.337722 225.035073 
L 245.063693 246.485829 
L 245.789665 164.483747 
L 246.515637 240.373692 
L 247.241608 241.099471 
L 247.96758 179.444865 
L 248.693552 231.317828 
L 249.419523 232.961715 
L 250.145495 197.560746 
L 250.871467 232.006907 
L 251.597439 183.125247 
L 252.32341 209.209503 
L 253.049382 220.864672 
L 253.775354 229.189487 
L 254.501325 228.586555 
L 255.227297 225.4187 
L 255.953269 198.001671 
L 256.679241 205.153866 
L 257.405212 229.654438 
L 258.131184 222.718197 
L 258.857156 190.690485 
L 259.583127 235.114807 
L 260.309099 179.140238 
L 261.035071 207.704504 
L 261.761042 216.828916 
L 262.487014 191.697297 
L 263.212986 202.200384 
L 263.938958 224.190597 
L 264.664929 188.90594 
L 265.390901 215.773307 
L 266.116873 215.984053 
L 266.842844 229.370655 
L 267.568816 186.181645 
L 268.294788 229.044986 
L 269.020759 221.19991 
L 269.746731 211.986139 
L 270.472703 230.909559 
L 271.198675 222.164711 
L 271.924646 223.635244 
L 272.650618 227.042561 
L 273.37659 224.121454 
L 274.102561 197.232503 
L 274.828533 210.556864 
L 276.280477 227.711646 
L 277.006448 221.598642 
L 277.73242 221.212519 
L 278.458392 230.59611 
L 279.184363 232.731035 
L 279.910335 227.534252 
L 280.636307 241.214976 
L 281.362278 225.485623 
L 282.08825 207.125879 
L 282.814222 229.960286 
L 283.540194 190.091771 
L 284.266165 221.208076 
L 284.992137 218.121498 
L 285.718109 202.498892 
L 286.44408 226.133228 
L 287.170052 179.767248 
L 287.896024 208.788868 
L 288.621995 200.711487 
L 289.347967 220.897002 
L 290.073939 224.99368 
L 290.799911 227.541325 
L 291.525882 229.186358 
L 292.251854 233.39774 
L 292.977826 226.435803 
L 293.703797 236.37661 
L 294.429769 227.293346 
L 295.155741 236.354409 
L 295.881712 228.709661 
L 296.607684 237.698384 
L 298.059628 241.410039 
L 298.785599 242.836296 
L 299.511571 246.952312 
L 300.237543 231.81448 
L 300.963514 242.755537 
L 301.689486 184.138198 
L 302.415458 241.692906 
L 303.14143 227.304625 
L 304.593373 246.657531 
L 305.319345 244.327385 
L 306.771288 201.545051 
L 307.49726 222.092472 
L 308.223231 176.290219 
L 308.949203 206.376001 
L 309.675175 198.882374 
L 310.401147 229.73146 
L 311.127118 226.548253 
L 311.85309 231.294195 
L 312.579062 226.920152 
L 313.305033 223.695576 
L 314.031005 225.106867 
L 314.756977 231.494854 
L 315.482948 233.60375 
L 316.20892 234.70478 
L 316.934892 223.598518 
L 317.660864 227.557883 
L 318.386835 181.520904 
L 319.112807 231.892721 
L 319.838779 231.7176 
L 320.56475 227.098112 
L 321.290722 219.199738 
L 322.016694 234.146549 
L 322.742665 184.653123 
L 324.194609 221.912076 
L 324.920581 229.247425 
L 325.646552 232.449058 
L 326.372524 193.316495 
L 327.824467 198.431417 
L 328.550439 223.057179 
L 329.276411 205.04261 
L 330.002383 219.794823 
L 330.728354 169.620901 
L 331.454326 215.490539 
L 332.180298 217.785174 
L 332.906269 188.387439 
L 333.632241 219.996889 
L 334.358213 210.874171 
L 335.084184 184.039646 
L 335.810156 193.002583 
L 336.536128 210.031995 
L 337.2621 176.20214 
L 337.988071 187.470376 
L 338.714043 176.886031 
L 339.440015 184.158622 
L 340.165986 205.207214 
L 340.891958 198.977262 
L 341.61793 173.476168 
L 342.343901 185.309731 
L 343.069873 205.599841 
L 343.795845 199.944686 
L 344.521817 170.307785 
L 345.247788 205.062896 
L 345.97376 189.587315 
L 346.699732 168.051845 
L 347.425703 206.567197 
L 348.151675 151.835224 
L 348.877647 197.170772 
L 349.603618 157.553939 
L 350.32959 173.144105 
L 351.055562 171.702659 
L 351.781534 173.327939 
L 352.507505 187.499634 
L 353.233477 188.650329 
L 353.959449 169.591769 
L 354.68542 189.237733 
L 355.411392 195.811906 
L 356.137364 158.476253 
L 356.863336 188.95334 
L 357.589307 164.615729 
L 358.315279 194.541682 
L 359.041251 187.751291 
L 359.767222 186.850557 
L 360.493194 183.919951 
L 361.219166 197.801984 
L 361.945137 201.564999 
L 362.671109 167.2266 
L 363.397081 171.87222 
L 364.123053 196.582098 
L 364.849024 173.344032 
L 365.574996 164.593004 
L 366.300968 170.359436 
L 367.026939 189.590508 
L 368.478883 185.57368 
L 369.204854 190.505043 
L 369.930826 165.959734 
L 370.656798 186.465644 
L 371.38277 160.286672 
L 372.108741 166.673966 
L 372.834713 183.72403 
L 373.560685 164.083725 
L 374.286656 188.174251 
L 375.012628 187.200489 
L 375.7386 166.924311 
L 376.464571 162.015404 
L 377.190543 162.944885 
L 377.916515 183.982818 
L 378.642487 179.027792 
L 379.368458 157.027651 
L 380.09443 180.798961 
L 380.820402 179.332867 
L 381.546373 179.625793 
L 382.272345 186.169635 
L 382.998317 180.475107 
L 383.724289 191.454043 
L 384.45026 183.817302 
L 385.176232 169.941819 
L 385.902204 186.617144 
L 386.628175 179.074363 
L 387.354147 162.21996 
L 388.080119 182.787619 
L 388.80609 162.363393 
L 389.532062 176.086829 
L 390.258034 178.747657 
L 390.984006 156.059354 
L 391.709977 163.802758 
L 392.435949 177.549494 
L 393.161921 176.276087 
L 393.887892 172.112738 
L 394.613864 182.618844 
L 395.339836 182.061011 
L 396.065807 164.466236 
L 396.791779 162.598567 
L 397.517751 178.224317 
L 398.243723 178.443574 
L 398.969694 177.387932 
L 399.695666 179.780752 
L 400.421638 180.94744 
L 401.147609 172.60761 
L 401.873581 185.24281 
L 402.599553 177.841837 
L 403.325524 162.512724 
L 404.051496 185.834083 
L 404.777468 177.752941 
L 405.50344 180.724905 
L 406.229411 181.67558 
L 406.955383 184.013819 
L 407.681355 184.043135 
L 408.407326 181.251181 
L 409.133298 181.092946 
L 409.85927 158.195912 
L 410.585242 179.340544 
L 411.311213 150.866771 
L 412.037185 176.563668 
L 412.763157 176.528061 
L 413.489128 149.716354 
L 414.2151 173.329574 
L 414.941072 173.209959 
L 415.667043 168.111617 
L 416.393015 173.012574 
L 417.118987 175.95731 
L 417.844959 150.912087 
L 418.57093 168.718105 
L 419.296902 167.608947 
L 420.022874 141.978456 
L 420.748845 162.671601 
L 421.474817 159.093804 
L 422.200789 163.178226 
L 422.92676 137.753938 
L 423.652732 140.97681 
L 424.378704 135.187562 
L 425.104676 131.560507 
L 425.830647 131.220765 
L 426.556619 141.385838 
L 427.282591 129.478097 
L 428.008562 127.970813 
L 428.734534 123.264532 
L 429.460506 133.562511 
L 430.186477 120.944133 
L 430.912449 129.615465 
L 431.638421 118.811101 
L 432.364393 131.9737 
L 433.090364 130.363932 
L 433.816336 132.040579 
L 434.542308 114.366238 
L 435.268279 114.42671 
L 435.994251 113.570248 
L 436.720223 121.463097 
L 437.446195 109.611397 
L 438.172166 116.923317 
L 438.898138 108.305407 
L 439.62411 114.714125 
L 440.350081 101.694821 
L 441.076053 102.601358 
L 441.802025 99.092604 
L 442.527996 92.411832 
L 443.253968 101.047812 
L 443.97994 90.109918 
L 444.705912 98.908878 
L 445.431883 92.19471 
L 446.157855 101.577531 
L 446.883827 87.025388 
L 447.609798 97.04772 
L 448.33577 93.984582 
L 449.061742 82.811851 
L 449.787713 78.425221 
L 450.513685 74.842638 
L 451.239657 79.014764 
L 451.965629 73.047326 
L 452.6916 73.238136 
L 453.417572 79.68137 
L 454.143544 73.496206 
L 454.869515 75.962007 
L 455.595487 75.356135 
L 456.321459 76.167771 
L 457.04743 68.995074 
L 457.773402 64.880595 
L 458.499374 70.208594 
L 459.225346 73.00293 
L 459.951317 64.388847 
L 460.677289 63.139745 
L 461.403261 59.226111 
L 462.129232 65.177229 
L 462.855204 63.395672 
L 463.581176 57.162305 
L 464.307148 54.812641 
L 465.033119 50.866545 
L 465.759091 47.616618 
L 465.759091 47.616618 
" style="fill:none;stroke:#000000;stroke-dasharray:3.7,1.6;stroke-dashoffset:0;"/>
   </g>
   <g id="matplotlib.axis_1">
    <g id="xtick_1">
     <g id="line2d_5">
      <defs>
       <path d="M 0 0 
L 0 3.5 
" id="m44f7ea7555" style="stroke:#000000;stroke-width:0.8;"/>
      </defs>
      <g>
       <use style="stroke:#000000;stroke-width:0.8;" x="80.994088" xlink:href="#m44f7ea7555" y="294.118125"/>
      </g>
     </g>
     <g id="text_1">
      <!-- 100 -->
      <defs>
       <path d="M 12.40625 8.296875 
L 28.515625 8.296875 
L 28.515625 63.921875 
L 10.984375 60.40625 
L 10.984375 69.390625 
L 28.421875 72.90625 
L 38.28125 72.90625 
L 38.28125 8.296875 
L 54.390625 8.296875 
L 54.390625 0 
L 12.40625 0 
z
" id="DejaVuSans-49"/>
       <path d="M 31.78125 66.40625 
Q 24.171875 66.40625 20.328125 58.90625 
Q 16.5 51.421875 16.5 36.375 
Q 16.5 21.390625 20.328125 13.890625 
Q 24.171875 6.390625 31.78125 6.390625 
Q 39.453125 6.390625 43.28125 13.890625 
Q 47.125 21.390625 47.125 36.375 
Q 47.125 51.421875 43.28125 58.90625 
Q 39.453125 66.40625 31.78125 66.40625 
z
M 31.78125 74.21875 
Q 44.046875 74.21875 50.515625 64.515625 
Q 56.984375 54.828125 56.984375 36.375 
Q 56.984375 17.96875 50.515625 8.265625 
Q 44.046875 -1.421875 31.78125 -1.421875 
Q 19.53125 -1.421875 13.0625 8.265625 
Q 6.59375 17.96875 6.59375 36.375 
Q 6.59375 54.828125 13.0625 64.515625 
Q 19.53125 74.21875 31.78125 74.21875 
z
" id="DejaVuSans-48"/>
      </defs>
      <g transform="translate(71.450338 308.716563)scale(0.1 -0.1)">
       <use xlink:href="#DejaVuSans-49"/>
       <use x="63.623047" xlink:href="#DejaVuSans-48"/>
       <use x="127.246094" xlink:href="#DejaVuSans-48"/>
      </g>
     </g>
    </g>
    <g id="xtick_2">
     <g id="line2d_6">
      <g>
       <use style="stroke:#000000;stroke-width:0.8;" x="153.591259" xlink:href="#m44f7ea7555" y="294.118125"/>
      </g>
     </g>
     <g id="text_2">
      <!-- 200 -->
      <defs>
       <path d="M 19.1875 8.296875 
L 53.609375 8.296875 
L 53.609375 0 
L 7.328125 0 
L 7.328125 8.296875 
Q 12.9375 14.109375 22.625 23.890625 
Q 32.328125 33.6875 34.8125 36.53125 
Q 39.546875 41.84375 41.421875 45.53125 
Q 43.3125 49.21875 43.3125 52.78125 
Q 43.3125 58.59375 39.234375 62.25 
Q 35.15625 65.921875 28.609375 65.921875 
Q 23.96875 65.921875 18.8125 64.3125 
Q 13.671875 62.703125 7.8125 59.421875 
L 7.8125 69.390625 
Q 13.765625 71.78125 18.9375 73 
Q 24.125 74.21875 28.421875 74.21875 
Q 39.75 74.21875 46.484375 68.546875 
Q 53.21875 62.890625 53.21875 53.421875 
Q 53.21875 48.921875 51.53125 44.890625 
Q 49.859375 40.875 45.40625 35.40625 
Q 44.1875 33.984375 37.640625 27.21875 
Q 31.109375 20.453125 19.1875 8.296875 
z
" id="DejaVuSans-50"/>
      </defs>
      <g transform="translate(144.047509 308.716563)scale(0.1 -0.1)">
       <use xlink:href="#DejaVuSans-50"/>
       <use x="63.623047" xlink:href="#DejaVuSans-48"/>
       <use x="127.246094" xlink:href="#DejaVuSans-48"/>
      </g>
     </g>
    </g>
    <g id="xtick_3">
     <g id="line2d_7">
      <g>
       <use style="stroke:#000000;stroke-width:0.8;" x="226.188429" xlink:href="#m44f7ea7555" y="294.118125"/>
      </g>
     </g>
     <g id="text_3">
      <!-- 300 -->
      <defs>
       <path d="M 40.578125 39.3125 
Q 47.65625 37.796875 51.625 33 
Q 55.609375 28.21875 55.609375 21.1875 
Q 55.609375 10.40625 48.1875 4.484375 
Q 40.765625 -1.421875 27.09375 -1.421875 
Q 22.515625 -1.421875 17.65625 -0.515625 
Q 12.796875 0.390625 7.625 2.203125 
L 7.625 11.71875 
Q 11.71875 9.328125 16.59375 8.109375 
Q 21.484375 6.890625 26.8125 6.890625 
Q 36.078125 6.890625 40.9375 10.546875 
Q 45.796875 14.203125 45.796875 21.1875 
Q 45.796875 27.640625 41.28125 31.265625 
Q 36.765625 34.90625 28.71875 34.90625 
L 20.21875 34.90625 
L 20.21875 43.015625 
L 29.109375 43.015625 
Q 36.375 43.015625 40.234375 45.921875 
Q 44.09375 48.828125 44.09375 54.296875 
Q 44.09375 59.90625 40.109375 62.90625 
Q 36.140625 65.921875 28.71875 65.921875 
Q 24.65625 65.921875 20.015625 65.03125 
Q 15.375 64.15625 9.8125 62.3125 
L 9.8125 71.09375 
Q 15.4375 72.65625 20.34375 73.4375 
Q 25.25 74.21875 29.59375 74.21875 
Q 40.828125 74.21875 47.359375 69.109375 
Q 53.90625 64.015625 53.90625 55.328125 
Q 53.90625 49.265625 50.4375 45.09375 
Q 46.96875 40.921875 40.578125 39.3125 
z
" id="DejaVuSans-51"/>
      </defs>
      <g transform="translate(216.644679 308.716563)scale(0.1 -0.1)">
       <use xlink:href="#DejaVuSans-51"/>
       <use x="63.623047" xlink:href="#DejaVuSans-48"/>
       <use x="127.246094" xlink:href="#DejaVuSans-48"/>
      </g>
     </g>
    </g>
    <g id="xtick_4">
     <g id="line2d_8">
      <g>
       <use style="stroke:#000000;stroke-width:0.8;" x="298.785599" xlink:href="#m44f7ea7555" y="294.118125"/>
      </g>
     </g>
     <g id="text_4">
      <!-- 400 -->
      <defs>
       <path d="M 37.796875 64.3125 
L 12.890625 25.390625 
L 37.796875 25.390625 
z
M 35.203125 72.90625 
L 47.609375 72.90625 
L 47.609375 25.390625 
L 58.015625 25.390625 
L 58.015625 17.1875 
L 47.609375 17.1875 
L 47.609375 0 
L 37.796875 0 
L 37.796875 17.1875 
L 4.890625 17.1875 
L 4.890625 26.703125 
z
" id="DejaVuSans-52"/>
      </defs>
      <g transform="translate(289.241849 308.716563)scale(0.1 -0.1)">
       <use xlink:href="#DejaVuSans-52"/>
       <use x="63.623047" xlink:href="#DejaVuSans-48"/>
       <use x="127.246094" xlink:href="#DejaVuSans-48"/>
      </g>
     </g>
    </g>
    <g id="xtick_5">
     <g id="line2d_9">
      <g>
       <use style="stroke:#000000;stroke-width:0.8;" x="371.38277" xlink:href="#m44f7ea7555" y="294.118125"/>
      </g>
     </g>
     <g id="text_5">
      <!-- 500 -->
      <defs>
       <path d="M 10.796875 72.90625 
L 49.515625 72.90625 
L 49.515625 64.59375 
L 19.828125 64.59375 
L 19.828125 46.734375 
Q 21.96875 47.46875 24.109375 47.828125 
Q 26.265625 48.1875 28.421875 48.1875 
Q 40.625 48.1875 47.75 41.5 
Q 54.890625 34.8125 54.890625 23.390625 
Q 54.890625 11.625 47.5625 5.09375 
Q 40.234375 -1.421875 26.90625 -1.421875 
Q 22.3125 -1.421875 17.546875 -0.640625 
Q 12.796875 0.140625 7.71875 1.703125 
L 7.71875 11.625 
Q 12.109375 9.234375 16.796875 8.0625 
Q 21.484375 6.890625 26.703125 6.890625 
Q 35.15625 6.890625 40.078125 11.328125 
Q 45.015625 15.765625 45.015625 23.390625 
Q 45.015625 31 40.078125 35.4375 
Q 35.15625 39.890625 26.703125 39.890625 
Q 22.75 39.890625 18.8125 39.015625 
Q 14.890625 38.140625 10.796875 36.28125 
z
" id="DejaVuSans-53"/>
      </defs>
      <g transform="translate(361.83902 308.716563)scale(0.1 -0.1)">
       <use xlink:href="#DejaVuSans-53"/>
       <use x="63.623047" xlink:href="#DejaVuSans-48"/>
       <use x="127.246094" xlink:href="#DejaVuSans-48"/>
      </g>
     </g>
    </g>
    <g id="xtick_6">
     <g id="line2d_10">
      <g>
       <use style="stroke:#000000;stroke-width:0.8;" x="443.97994" xlink:href="#m44f7ea7555" y="294.118125"/>
      </g>
     </g>
     <g id="text_6">
      <!-- 600 -->
      <defs>
       <path d="M 33.015625 40.375 
Q 26.375 40.375 22.484375 35.828125 
Q 18.609375 31.296875 18.609375 23.390625 
Q 18.609375 15.53125 22.484375 10.953125 
Q 26.375 6.390625 33.015625 6.390625 
Q 39.65625 6.390625 43.53125 10.953125 
Q 47.40625 15.53125 47.40625 23.390625 
Q 47.40625 31.296875 43.53125 35.828125 
Q 39.65625 40.375 33.015625 40.375 
z
M 52.59375 71.296875 
L 52.59375 62.3125 
Q 48.875 64.0625 45.09375 64.984375 
Q 41.3125 65.921875 37.59375 65.921875 
Q 27.828125 65.921875 22.671875 59.328125 
Q 17.53125 52.734375 16.796875 39.40625 
Q 19.671875 43.65625 24.015625 45.921875 
Q 28.375 48.1875 33.59375 48.1875 
Q 44.578125 48.1875 50.953125 41.515625 
Q 57.328125 34.859375 57.328125 23.390625 
Q 57.328125 12.15625 50.6875 5.359375 
Q 44.046875 -1.421875 33.015625 -1.421875 
Q 20.359375 -1.421875 13.671875 8.265625 
Q 6.984375 17.96875 6.984375 36.375 
Q 6.984375 53.65625 15.1875 63.9375 
Q 23.390625 74.21875 37.203125 74.21875 
Q 40.921875 74.21875 44.703125 73.484375 
Q 48.484375 72.75 52.59375 71.296875 
z
" id="DejaVuSans-54"/>
      </defs>
      <g transform="translate(434.43619 308.716563)scale(0.1 -0.1)">
       <use xlink:href="#DejaVuSans-54"/>
       <use x="63.623047" xlink:href="#DejaVuSans-48"/>
       <use x="127.246094" xlink:href="#DejaVuSans-48"/>
      </g>
     </g>
    </g>
    <g id="text_7">
     <!-- Tempo -->
     <defs>
      <path d="M -0.296875 72.90625 
L 61.375 72.90625 
L 61.375 64.59375 
L 35.5 64.59375 
L 35.5 0 
L 25.59375 0 
L 25.59375 64.59375 
L -0.296875 64.59375 
z
" id="DejaVuSans-84"/>
      <path d="M 56.203125 29.59375 
L 56.203125 25.203125 
L 14.890625 25.203125 
Q 15.484375 15.921875 20.484375 11.0625 
Q 25.484375 6.203125 34.421875 6.203125 
Q 39.59375 6.203125 44.453125 7.46875 
Q 49.3125 8.734375 54.109375 11.28125 
L 54.109375 2.78125 
Q 49.265625 0.734375 44.1875 -0.34375 
Q 39.109375 -1.421875 33.890625 -1.421875 
Q 20.796875 -1.421875 13.15625 6.1875 
Q 5.515625 13.8125 5.515625 26.8125 
Q 5.515625 40.234375 12.765625 48.109375 
Q 20.015625 56 32.328125 56 
Q 43.359375 56 49.78125 48.890625 
Q 56.203125 41.796875 56.203125 29.59375 
z
M 47.21875 32.234375 
Q 47.125 39.59375 43.09375 43.984375 
Q 39.0625 48.390625 32.421875 48.390625 
Q 24.90625 48.390625 20.390625 44.140625 
Q 15.875 39.890625 15.1875 32.171875 
z
" id="DejaVuSans-101"/>
      <path d="M 52 44.1875 
Q 55.375 50.25 60.0625 53.125 
Q 64.75 56 71.09375 56 
Q 79.640625 56 84.28125 50.015625 
Q 88.921875 44.046875 88.921875 33.015625 
L 88.921875 0 
L 79.890625 0 
L 79.890625 32.71875 
Q 79.890625 40.578125 77.09375 44.375 
Q 74.3125 48.1875 68.609375 48.1875 
Q 61.625 48.1875 57.5625 43.546875 
Q 53.515625 38.921875 53.515625 30.90625 
L 53.515625 0 
L 44.484375 0 
L 44.484375 32.71875 
Q 44.484375 40.625 41.703125 44.40625 
Q 38.921875 48.1875 33.109375 48.1875 
Q 26.21875 48.1875 22.15625 43.53125 
Q 18.109375 38.875 18.109375 30.90625 
L 18.109375 0 
L 9.078125 0 
L 9.078125 54.6875 
L 18.109375 54.6875 
L 18.109375 46.1875 
Q 21.1875 51.21875 25.484375 53.609375 
Q 29.78125 56 35.6875 56 
Q 41.65625 56 45.828125 52.96875 
Q 50 49.953125 52 44.1875 
z
" id="DejaVuSans-109"/>
      <path d="M 18.109375 8.203125 
L 18.109375 -20.796875 
L 9.078125 -20.796875 
L 9.078125 54.6875 
L 18.109375 54.6875 
L 18.109375 46.390625 
Q 20.953125 51.265625 25.265625 53.625 
Q 29.59375 56 35.59375 56 
Q 45.5625 56 51.78125 48.09375 
Q 58.015625 40.1875 58.015625 27.296875 
Q 58.015625 14.40625 51.78125 6.484375 
Q 45.5625 -1.421875 35.59375 -1.421875 
Q 29.59375 -1.421875 25.265625 0.953125 
Q 20.953125 3.328125 18.109375 8.203125 
z
M 48.6875 27.296875 
Q 48.6875 37.203125 44.609375 42.84375 
Q 40.53125 48.484375 33.40625 48.484375 
Q 26.265625 48.484375 22.1875 42.84375 
Q 18.109375 37.203125 18.109375 27.296875 
Q 18.109375 17.390625 22.1875 11.75 
Q 26.265625 6.109375 33.40625 6.109375 
Q 40.53125 6.109375 44.609375 11.75 
Q 48.6875 17.390625 48.6875 27.296875 
z
" id="DejaVuSans-112"/>
      <path d="M 30.609375 48.390625 
Q 23.390625 48.390625 19.1875 42.75 
Q 14.984375 37.109375 14.984375 27.296875 
Q 14.984375 17.484375 19.15625 11.84375 
Q 23.34375 6.203125 30.609375 6.203125 
Q 37.796875 6.203125 41.984375 11.859375 
Q 46.1875 17.53125 46.1875 27.296875 
Q 46.1875 37.015625 41.984375 42.703125 
Q 37.796875 48.390625 30.609375 48.390625 
z
M 30.609375 56 
Q 42.328125 56 49.015625 48.375 
Q 55.71875 40.765625 55.71875 27.296875 
Q 55.71875 13.875 49.015625 6.21875 
Q 42.328125 -1.421875 30.609375 -1.421875 
Q 18.84375 -1.421875 12.171875 6.21875 
Q 5.515625 13.875 5.515625 27.296875 
Q 5.515625 40.765625 12.171875 48.375 
Q 18.84375 56 30.609375 56 
z
" id="DejaVuSans-111"/>
     </defs>
     <g transform="translate(246.465625 322.394687)scale(0.1 -0.1)">
      <use xlink:href="#DejaVuSans-84"/>
      <use x="44.083984" xlink:href="#DejaVuSans-101"/>
      <use x="105.607422" xlink:href="#DejaVuSans-109"/>
      <use x="203.019531" xlink:href="#DejaVuSans-112"/>
      <use x="266.496094" xlink:href="#DejaVuSans-111"/>
     </g>
    </g>
   </g>
   <g id="matplotlib.axis_2">
    <g id="ytick_1">
     <g id="line2d_11">
      <defs>
       <path d="M 0 0 
L -3.5 0 
" id="m1f9128a6f1" style="stroke:#000000;stroke-width:0.8;"/>
      </defs>
      <g>
       <use style="stroke:#000000;stroke-width:0.8;" x="39.65" xlink:href="#m1f9128a6f1" y="282.994663"/>
      </g>
     </g>
     <g id="text_8">
      <!-- 500 -->
      <g transform="translate(13.5625 286.793882)scale(0.1 -0.1)">
       <use xlink:href="#DejaVuSans-53"/>
       <use x="63.623047" xlink:href="#DejaVuSans-48"/>
       <use x="127.246094" xlink:href="#DejaVuSans-48"/>
      </g>
     </g>
    </g>
    <g id="ytick_2">
     <g id="line2d_12">
      <g>
       <use style="stroke:#000000;stroke-width:0.8;" x="39.65" xlink:href="#m1f9128a6f1" y="244.262239"/>
      </g>
     </g>
     <g id="text_9">
      <!-- 1000 -->
      <g transform="translate(7.2 248.061458)scale(0.1 -0.1)">
       <use xlink:href="#DejaVuSans-49"/>
       <use x="63.623047" xlink:href="#DejaVuSans-48"/>
       <use x="127.246094" xlink:href="#DejaVuSans-48"/>
       <use x="190.869141" xlink:href="#DejaVuSans-48"/>
      </g>
     </g>
    </g>
    <g id="ytick_3">
     <g id="line2d_13">
      <g>
       <use style="stroke:#000000;stroke-width:0.8;" x="39.65" xlink:href="#m1f9128a6f1" y="205.529815"/>
      </g>
     </g>
     <g id="text_10">
      <!-- 1500 -->
      <g transform="translate(7.2 209.329034)scale(0.1 -0.1)">
       <use xlink:href="#DejaVuSans-49"/>
       <use x="63.623047" xlink:href="#DejaVuSans-53"/>
       <use x="127.246094" xlink:href="#DejaVuSans-48"/>
       <use x="190.869141" xlink:href="#DejaVuSans-48"/>
      </g>
     </g>
    </g>
    <g id="ytick_4">
     <g id="line2d_14">
      <g>
       <use style="stroke:#000000;stroke-width:0.8;" x="39.65" xlink:href="#m1f9128a6f1" y="166.797391"/>
      </g>
     </g>
     <g id="text_11">
      <!-- 2000 -->
      <g transform="translate(7.2 170.59661)scale(0.1 -0.1)">
       <use xlink:href="#DejaVuSans-50"/>
       <use x="63.623047" xlink:href="#DejaVuSans-48"/>
       <use x="127.246094" xlink:href="#DejaVuSans-48"/>
       <use x="190.869141" xlink:href="#DejaVuSans-48"/>
      </g>
     </g>
    </g>
    <g id="ytick_5">
     <g id="line2d_15">
      <g>
       <use style="stroke:#000000;stroke-width:0.8;" x="39.65" xlink:href="#m1f9128a6f1" y="128.064967"/>
      </g>
     </g>
     <g id="text_12">
      <!-- 2500 -->
      <g transform="translate(7.2 131.864186)scale(0.1 -0.1)">
       <use xlink:href="#DejaVuSans-50"/>
       <use x="63.623047" xlink:href="#DejaVuSans-53"/>
       <use x="127.246094" xlink:href="#DejaVuSans-48"/>
       <use x="190.869141" xlink:href="#DejaVuSans-48"/>
      </g>
     </g>
    </g>
    <g id="ytick_6">
     <g id="line2d_16">
      <g>
       <use style="stroke:#000000;stroke-width:0.8;" x="39.65" xlink:href="#m1f9128a6f1" y="89.332543"/>
      </g>
     </g>
     <g id="text_13">
      <!-- 3000 -->
      <g transform="translate(7.2 93.131762)scale(0.1 -0.1)">
       <use xlink:href="#DejaVuSans-51"/>
       <use x="63.623047" xlink:href="#DejaVuSans-48"/>
       <use x="127.246094" xlink:href="#DejaVuSans-48"/>
       <use x="190.869141" xlink:href="#DejaVuSans-48"/>
      </g>
     </g>
    </g>
    <g id="ytick_7">
     <g id="line2d_17">
      <g>
       <use style="stroke:#000000;stroke-width:0.8;" x="39.65" xlink:href="#m1f9128a6f1" y="50.600119"/>
      </g>
     </g>
     <g id="text_14">
      <!-- 3500 -->
      <g transform="translate(7.2 54.399338)scale(0.1 -0.1)">
       <use xlink:href="#DejaVuSans-51"/>
       <use x="63.623047" xlink:href="#DejaVuSans-53"/>
       <use x="127.246094" xlink:href="#DejaVuSans-48"/>
       <use x="190.869141" xlink:href="#DejaVuSans-48"/>
      </g>
     </g>
    </g>
   </g>
   <g id="patch_3">
    <path d="M 39.65 294.118125 
L 39.65 22.318125 
" style="fill:none;stroke:#000000;stroke-linecap:square;stroke-linejoin:miter;stroke-width:0.8;"/>
   </g>
   <g id="patch_4">
    <path d="M 39.65 294.118125 
L 486.05 294.118125 
" style="fill:none;stroke:#000000;stroke-linecap:square;stroke-linejoin:miter;stroke-width:0.8;"/>
   </g>
   <g id="text_15">
    <!-- Q -->
    <defs>
     <path d="M 39.40625 66.21875 
Q 28.65625 66.21875 22.328125 58.203125 
Q 16.015625 50.203125 16.015625 36.375 
Q 16.015625 22.609375 22.328125 14.59375 
Q 28.65625 6.59375 39.40625 6.59375 
Q 50.140625 6.59375 56.421875 14.59375 
Q 62.703125 22.609375 62.703125 36.375 
Q 62.703125 50.203125 56.421875 58.203125 
Q 50.140625 66.21875 39.40625 66.21875 
z
M 53.21875 1.3125 
L 66.21875 -12.890625 
L 54.296875 -12.890625 
L 43.5 -1.21875 
Q 41.890625 -1.3125 41.03125 -1.359375 
Q 40.1875 -1.421875 39.40625 -1.421875 
Q 24.03125 -1.421875 14.8125 8.859375 
Q 5.609375 19.140625 5.609375 36.375 
Q 5.609375 53.65625 14.8125 63.9375 
Q 24.03125 74.21875 39.40625 74.21875 
Q 54.734375 74.21875 63.90625 63.9375 
Q 73.09375 53.65625 73.09375 36.375 
Q 73.09375 23.6875 67.984375 14.640625 
Q 62.890625 5.609375 53.21875 1.3125 
z
" id="DejaVuSans-81"/>
    </defs>
    <g transform="translate(258.126875 16.318125)scale(0.12 -0.12)">
     <use xlink:href="#DejaVuSans-81"/>
    </g>
   </g>
   <g id="legend_1">
    <g id="patch_5">
     <path d="M 493.05 190.104844 
L 567.448437 190.104844 
Q 569.448437 190.104844 569.448437 188.104844 
L 569.448437 128.331406 
Q 569.448437 126.331406 567.448437 126.331406 
L 493.05 126.331406 
Q 491.05 126.331406 491.05 128.331406 
L 491.05 188.104844 
Q 491.05 190.104844 493.05 190.104844 
z
" style="fill:#ffffff;opacity:0.8;stroke:#cccccc;stroke-linejoin:miter;"/>
    </g>
    <g id="line2d_18">
     <path d="M 495.05 134.429844 
L 515.05 134.429844 
" style="fill:none;stroke:#000000;stroke-dasharray:3.7,1.6;stroke-dashoffset:0;"/>
    </g>
    <g id="line2d_19"/>
    <g id="text_16">
     <!-- Baseline -->
     <defs>
      <path d="M 19.671875 34.8125 
L 19.671875 8.109375 
L 35.5 8.109375 
Q 43.453125 8.109375 47.28125 11.40625 
Q 51.125 14.703125 51.125 21.484375 
Q 51.125 28.328125 47.28125 31.5625 
Q 43.453125 34.8125 35.5 34.8125 
z
M 19.671875 64.796875 
L 19.671875 42.828125 
L 34.28125 42.828125 
Q 41.5 42.828125 45.03125 45.53125 
Q 48.578125 48.25 48.578125 53.8125 
Q 48.578125 59.328125 45.03125 62.0625 
Q 41.5 64.796875 34.28125 64.796875 
z
M 9.8125 72.90625 
L 35.015625 72.90625 
Q 46.296875 72.90625 52.390625 68.21875 
Q 58.5 63.53125 58.5 54.890625 
Q 58.5 48.1875 55.375 44.234375 
Q 52.25 40.28125 46.1875 39.3125 
Q 53.46875 37.75 57.5 32.78125 
Q 61.53125 27.828125 61.53125 20.40625 
Q 61.53125 10.640625 54.890625 5.3125 
Q 48.25 0 35.984375 0 
L 9.8125 0 
z
" id="DejaVuSans-66"/>
      <path d="M 34.28125 27.484375 
Q 23.390625 27.484375 19.1875 25 
Q 14.984375 22.515625 14.984375 16.5 
Q 14.984375 11.71875 18.140625 8.90625 
Q 21.296875 6.109375 26.703125 6.109375 
Q 34.1875 6.109375 38.703125 11.40625 
Q 43.21875 16.703125 43.21875 25.484375 
L 43.21875 27.484375 
z
M 52.203125 31.203125 
L 52.203125 0 
L 43.21875 0 
L 43.21875 8.296875 
Q 40.140625 3.328125 35.546875 0.953125 
Q 30.953125 -1.421875 24.3125 -1.421875 
Q 15.921875 -1.421875 10.953125 3.296875 
Q 6 8.015625 6 15.921875 
Q 6 25.140625 12.171875 29.828125 
Q 18.359375 34.515625 30.609375 34.515625 
L 43.21875 34.515625 
L 43.21875 35.40625 
Q 43.21875 41.609375 39.140625 45 
Q 35.0625 48.390625 27.6875 48.390625 
Q 23 48.390625 18.546875 47.265625 
Q 14.109375 46.140625 10.015625 43.890625 
L 10.015625 52.203125 
Q 14.9375 54.109375 19.578125 55.046875 
Q 24.21875 56 28.609375 56 
Q 40.484375 56 46.34375 49.84375 
Q 52.203125 43.703125 52.203125 31.203125 
z
" id="DejaVuSans-97"/>
      <path d="M 44.28125 53.078125 
L 44.28125 44.578125 
Q 40.484375 46.53125 36.375 47.5 
Q 32.28125 48.484375 27.875 48.484375 
Q 21.1875 48.484375 17.84375 46.4375 
Q 14.5 44.390625 14.5 40.28125 
Q 14.5 37.15625 16.890625 35.375 
Q 19.28125 33.59375 26.515625 31.984375 
L 29.59375 31.296875 
Q 39.15625 29.25 43.1875 25.515625 
Q 47.21875 21.78125 47.21875 15.09375 
Q 47.21875 7.46875 41.1875 3.015625 
Q 35.15625 -1.421875 24.609375 -1.421875 
Q 20.21875 -1.421875 15.453125 -0.5625 
Q 10.6875 0.296875 5.421875 2 
L 5.421875 11.28125 
Q 10.40625 8.6875 15.234375 7.390625 
Q 20.0625 6.109375 24.8125 6.109375 
Q 31.15625 6.109375 34.5625 8.28125 
Q 37.984375 10.453125 37.984375 14.40625 
Q 37.984375 18.0625 35.515625 20.015625 
Q 33.0625 21.96875 24.703125 23.78125 
L 21.578125 24.515625 
Q 13.234375 26.265625 9.515625 29.90625 
Q 5.8125 33.546875 5.8125 39.890625 
Q 5.8125 47.609375 11.28125 51.796875 
Q 16.75 56 26.8125 56 
Q 31.78125 56 36.171875 55.265625 
Q 40.578125 54.546875 44.28125 53.078125 
z
" id="DejaVuSans-115"/>
      <path d="M 9.421875 75.984375 
L 18.40625 75.984375 
L 18.40625 0 
L 9.421875 0 
z
" id="DejaVuSans-108"/>
      <path d="M 9.421875 54.6875 
L 18.40625 54.6875 
L 18.40625 0 
L 9.421875 0 
z
M 9.421875 75.984375 
L 18.40625 75.984375 
L 18.40625 64.59375 
L 9.421875 64.59375 
z
" id="DejaVuSans-105"/>
      <path d="M 54.890625 33.015625 
L 54.890625 0 
L 45.90625 0 
L 45.90625 32.71875 
Q 45.90625 40.484375 42.875 44.328125 
Q 39.84375 48.1875 33.796875 48.1875 
Q 26.515625 48.1875 22.3125 43.546875 
Q 18.109375 38.921875 18.109375 30.90625 
L 18.109375 0 
L 9.078125 0 
L 9.078125 54.6875 
L 18.109375 54.6875 
L 18.109375 46.1875 
Q 21.34375 51.125 25.703125 53.5625 
Q 30.078125 56 35.796875 56 
Q 45.21875 56 50.046875 50.171875 
Q 54.890625 44.34375 54.890625 33.015625 
z
" id="DejaVuSans-110"/>
     </defs>
     <g transform="translate(523.05 137.929844)scale(0.1 -0.1)">
      <use xlink:href="#DejaVuSans-66"/>
      <use x="68.603516" xlink:href="#DejaVuSans-97"/>
      <use x="129.882812" xlink:href="#DejaVuSans-115"/>
      <use x="181.982422" xlink:href="#DejaVuSans-101"/>
      <use x="243.505859" xlink:href="#DejaVuSans-108"/>
      <use x="271.289062" xlink:href="#DejaVuSans-105"/>
      <use x="299.072266" xlink:href="#DejaVuSans-110"/>
      <use x="362.451172" xlink:href="#DejaVuSans-101"/>
     </g>
    </g>
    <g id="line2d_20">
     <path d="M 495.05 149.107969 
L 515.05 149.107969 
" style="fill:none;stroke:#1f77b4;stroke-linecap:square;stroke-width:1.5;"/>
    </g>
    <g id="line2d_21"/>
    <g id="text_17">
     <!-- $\Downarrow \sigma_\psi$ -->
     <defs>
      <path d="M 36.765625 14.3125 
L 41.9375 9.234375 
L 47.015625 14.3125 
L 47.015625 72.90625 
L 52.875 72.90625 
L 52.875 20.171875 
L 57.46875 24.75 
L 63.328125 18.890625 
L 44.09375 -0.34375 
L 39.703125 -0.34375 
L 20.5625 18.890625 
L 26.421875 24.75 
L 30.90625 20.171875 
L 30.90625 72.90625 
L 36.765625 72.90625 
z
" id="DejaVuSans-8659"/>
      <path d="M 34.671875 47.5625 
Q 27.25 47.5625 22.21875 42.1875 
Q 16.890625 36.578125 15.140625 27.296875 
Q 13.1875 17.484375 16.3125 11.8125 
Q 19.390625 6.203125 26.65625 6.203125 
Q 33.84375 6.203125 39.109375 11.859375 
Q 44.4375 17.53125 46.34375 27.296875 
Q 48.046875 36.234375 45.015625 42.1875 
Q 42.1875 47.5625 34.671875 47.5625 
z
M 36.078125 54.734375 
L 65.921875 54.6875 
L 64.15625 45.703125 
L 54.109375 45.703125 
Q 57.90625 38.09375 55.859375 27.296875 
Q 53.21875 13.875 45.0625 6.25 
Q 36.859375 -1.421875 25.140625 -1.421875 
Q 13.375 -1.421875 8.203125 6.25 
Q 3.03125 13.875 5.671875 27.296875 
Q 8.25 40.765625 16.40625 48.390625 
Q 23.1875 54.734375 36.078125 54.734375 
z
" id="DejaVuSans-Oblique-963"/>
      <path d="M 24.859375 -1.21875 
Q 13.921875 0.59375 9.625 5.328125 
Q 4.34375 11.140625 6.640625 23 
L 12.796875 54.6875 
L 21.875 54.6875 
L 15.765625 23.34375 
Q 14.0625 14.40625 17.484375 10.6875 
Q 20.515625 7.46875 26.421875 6.78125 
L 35.6875 54.6875 
L 44.625 54.6875 
L 35.359375 6.84375 
Q 41.890625 7.515625 45.75 10.75 
Q 50.734375 14.84375 52.390625 23.390625 
L 58.453125 54.6875 
L 67.53125 54.6875 
L 61.375 23.046875 
Q 58.984375 10.75 51.5625 5.375 
Q 44.875 0.53125 33.796875 -1.171875 
L 29.984375 -20.796875 
L 21.046875 -20.796875 
z
" id="DejaVuSans-Oblique-968"/>
     </defs>
     <g transform="translate(523.05 152.607969)scale(0.1 -0.1)">
      <use transform="translate(19.482422 0.09375)" xlink:href="#DejaVuSans-8659"/>
      <use transform="translate(122.753906 0.09375)" xlink:href="#DejaVuSans-Oblique-963"/>
      <use transform="translate(186.132812 -16.3125)scale(0.7)" xlink:href="#DejaVuSans-Oblique-968"/>
     </g>
    </g>
    <g id="line2d_22">
     <path d="M 495.05 164.806406 
L 515.05 164.806406 
" style="fill:none;stroke:#ff7f0e;stroke-linecap:square;stroke-width:1.5;"/>
    </g>
    <g id="line2d_23"/>
    <g id="text_18">
     <!-- $\Downarrow s_\psi$ -->
     <defs>
      <path d="M 50 53.078125 
L 48.296875 44.578125 
Q 44.734375 46.53125 40.765625 47.5 
Q 36.8125 48.484375 32.625 48.484375 
Q 25.53125 48.484375 21.453125 46.0625 
Q 17.390625 43.65625 17.390625 39.5 
Q 17.390625 34.671875 26.859375 32.078125 
Q 27.59375 31.890625 27.9375 31.78125 
L 30.8125 30.90625 
Q 39.796875 28.421875 42.796875 25.6875 
Q 45.796875 22.953125 45.796875 18.21875 
Q 45.796875 9.515625 38.890625 4.046875 
Q 31.984375 -1.421875 20.796875 -1.421875 
Q 16.453125 -1.421875 11.671875 -0.578125 
Q 6.890625 0.25 1.125 2 
L 2.875 11.28125 
Q 7.8125 8.734375 12.59375 7.421875 
Q 17.390625 6.109375 21.78125 6.109375 
Q 28.375 6.109375 32.5 8.9375 
Q 36.625 11.765625 36.625 16.109375 
Q 36.625 20.796875 25.78125 23.6875 
L 24.859375 23.921875 
L 21.78125 24.703125 
Q 14.9375 26.515625 11.765625 29.46875 
Q 8.59375 32.421875 8.59375 37.015625 
Q 8.59375 45.75 15.15625 50.875 
Q 21.734375 56 33.015625 56 
Q 37.453125 56 41.671875 55.265625 
Q 45.90625 54.546875 50 53.078125 
z
" id="DejaVuSans-Oblique-115"/>
     </defs>
     <g transform="translate(523.05 168.306406)scale(0.1 -0.1)">
      <use transform="translate(19.482422 0.09375)" xlink:href="#DejaVuSans-8659"/>
      <use transform="translate(122.753906 0.09375)" xlink:href="#DejaVuSans-Oblique-115"/>
      <use transform="translate(174.853516 -16.3125)scale(0.7)" xlink:href="#DejaVuSans-Oblique-968"/>
     </g>
    </g>
    <g id="line2d_24">
     <path d="M 495.05 180.504844 
L 515.05 180.504844 
" style="fill:none;stroke:#2ca02c;stroke-linecap:square;stroke-width:1.5;"/>
    </g>
    <g id="line2d_25"/>
    <g id="text_19">
     <!-- $\Uparrow \eta$ -->
     <defs>
      <path d="M 36.765625 58.59375 
L 36.765625 0 
L 30.90625 0 
L 30.90625 52.734375 
L 26.421875 48.140625 
L 20.5625 54 
L 39.703125 73.25 
L 44.09375 73.25 
L 63.328125 54 
L 57.46875 48.140625 
L 52.875 52.734375 
L 52.875 0 
L 47.015625 0 
L 47.015625 58.59375 
L 41.9375 63.671875 
z
" id="DejaVuSans-8657"/>
      <path d="M 57.859375 33.015625 
L 47.40625 -20.796875 
L 38.421875 -20.796875 
L 48.828125 32.71875 
Q 50.34375 40.484375 48.046875 44.34375 
Q 45.796875 48.1875 39.75 48.1875 
Q 32.46875 48.1875 27.34375 43.5625 
Q 22.265625 38.921875 20.703125 30.90625 
L 14.703125 0 
L 5.671875 0 
L 16.3125 54.6875 
L 25.34375 54.6875 
L 23.6875 46.1875 
Q 27.828125 51.125 32.71875 53.5625 
Q 37.546875 56 43.265625 56 
Q 52.6875 56 56.390625 50.203125 
Q 60.0625 44.34375 57.859375 33.015625 
z
" id="DejaVuSans-Oblique-951"/>
     </defs>
     <g transform="translate(523.05 184.004844)scale(0.1 -0.1)">
      <use transform="translate(19.482422 0.75)" xlink:href="#DejaVuSans-8657"/>
      <use transform="translate(122.753906 0.75)" xlink:href="#DejaVuSans-Oblique-951"/>
     </g>
    </g>
   </g>
  </g>
 </g>
 <defs>
  <clipPath id="p3a562c0fdc">
   <rect height="271.8" width="446.4" x="39.65" y="22.318125"/>
  </clipPath>
 </defs>
</svg>
