<?xml version="1.0" encoding="utf-8" standalone="no"?>
<!DOCTYPE svg PUBLIC "-//W3C//DTD SVG 1.1//EN"
  "http://www.w3.org/Graphics/SVG/1.1/DTD/svg11.dtd">
<!-- Created with matplotlib (https://matplotlib.org/) -->
<svg height="331.674375pt" version="1.1" viewBox="0 0 575.48125 331.674375" width="575.48125pt" xmlns="http://www.w3.org/2000/svg" xmlns:xlink="http://www.w3.org/1999/xlink">
 <defs>
  <style type="text/css">
*{stroke-linecap:butt;stroke-linejoin:round;}
  </style>
 </defs>
 <g id="figure_1">
  <g id="patch_1">
   <path d="M 0 331.674375 
L 575.48125 331.674375 
L 575.48125 0 
L 0 0 
z
" style="fill:#ffffff;"/>
  </g>
  <g id="axes_1">
   <g id="patch_2">
    <path d="M 38.482813 294.118125 
L 484.882812 294.118125 
L 484.882812 22.318125 
L 38.482813 22.318125 
z
" style="fill:#ffffff;"/>
   </g>
   <g id="line2d_1">
    <path clip-path="url(#p375b06b429)" d="M 58.773722 126.242858 
L 59.499693 128.742798 
L 60.225665 130.035875 
L 60.951637 129.435446 
L 61.677608 129.983607 
L 62.40358 129.687393 
L 63.129552 129.619712 
L 63.855524 130.548113 
L 64.581495 129.968663 
L 65.307467 132.990238 
L 66.75941 128.912107 
L 67.485382 130.604319 
L 68.937325 130.036451 
L 69.663297 127.024801 
L 70.389269 125.272871 
L 71.115241 127.091513 
L 71.841212 125.136594 
L 72.567184 125.426139 
L 73.293156 122.828229 
L 74.019127 122.23814 
L 74.745099 122.038259 
L 75.471071 121.685991 
L 76.197042 121.964311 
L 76.923014 122.434607 
L 77.648986 125.404529 
L 78.374958 129.399759 
L 79.100929 127.568375 
L 79.826901 127.544994 
L 80.552873 129.044603 
L 81.278844 124.235178 
L 82.004816 120.762277 
L 82.730788 118.880334 
L 84.182731 123.996708 
L 84.908703 124.602701 
L 85.634675 122.546409 
L 87.086618 114.331 
L 87.81259 112.486066 
L 88.538561 112.589796 
L 89.264533 109.669918 
L 89.990505 108.5028 
L 90.716477 107.9765 
L 91.442448 108.214222 
L 92.16842 105.935865 
L 92.894392 104.52446 
L 93.620363 102.790449 
L 94.346335 101.869475 
L 95.072307 100.542323 
L 95.798278 97.99166 
L 97.250222 95.139866 
L 98.702165 90.135641 
L 99.428137 91.625872 
L 100.154109 94.740653 
L 100.88008 95.607797 
L 101.606052 95.526386 
L 102.332024 95.599538 
L 103.057995 97.09938 
L 103.783967 95.467448 
L 104.509939 92.768551 
L 105.235911 92.644541 
L 105.961882 94.687821 
L 107.413826 94.817355 
L 108.865769 95.263091 
L 109.591741 97.442768 
L 110.317712 100.072896 
L 111.043684 98.99577 
L 111.769656 97.627374 
L 112.495628 97.36536 
L 113.221599 97.561209 
L 113.947571 98.278249 
L 114.673543 98.504664 
L 115.399514 97.944727 
L 116.125486 97.92792 
L 116.851458 99.134903 
L 117.57743 98.545928 
L 118.303401 97.237403 
L 119.029373 97.229528 
L 119.755345 99.361672 
L 120.481316 100.376988 
L 121.207288 99.422048 
L 121.93326 99.633038 
L 122.659231 98.143746 
L 123.385203 97.355041 
L 124.111175 97.631138 
L 124.837147 99.375218 
L 125.563118 102.016911 
L 127.015062 102.696527 
L 127.741033 104.286201 
L 128.467005 104.674954 
L 129.192977 104.41379 
L 129.918948 103.532448 
L 130.64492 100.829484 
L 131.370892 100.214104 
L 132.096864 101.740102 
L 132.822835 102.354701 
L 133.548807 103.63429 
L 134.274779 103.480696 
L 135.00075 101.293916 
L 136.452694 101.407671 
L 137.178665 100.960823 
L 137.904637 101.141463 
L 138.630609 101.063247 
L 139.356581 102.374494 
L 140.082552 103.293289 
L 140.808524 100.960922 
L 141.534496 100.057824 
L 142.260467 99.70148 
L 142.986439 99.566617 
L 143.712411 97.999083 
L 144.438383 95.253396 
L 145.890326 96.353736 
L 147.342269 96.102639 
L 148.068241 96.131618 
L 148.794213 96.576218 
L 150.246156 96.826637 
L 150.972128 98.677423 
L 151.6981 101.25748 
L 152.424071 101.604557 
L 153.150043 101.540209 
L 153.876015 101.703052 
L 154.601986 100.564861 
L 155.327958 99.992876 
L 156.05393 100.624823 
L 156.779901 100.820144 
L 157.505873 100.829801 
L 158.231845 100.700907 
L 159.683788 100.980809 
L 160.40976 100.671894 
L 161.135732 100.699779 
L 161.861703 100.870815 
L 162.587675 100.745341 
L 163.313647 102.221959 
L 164.039618 103.312875 
L 164.76559 103.595565 
L 165.491562 102.603041 
L 166.217534 99.897664 
L 166.943505 98.26547 
L 167.669477 96.266382 
L 168.395449 95.127232 
L 169.12142 95.119249 
L 169.847392 96.106521 
L 171.299336 94.270338 
L 172.751279 93.166909 
L 173.477251 93.302737 
L 176.381137 94.873516 
L 177.833081 94.480941 
L 179.285024 94.503612 
L 180.010996 94.988233 
L 181.462939 98.549493 
L 182.188911 97.793769 
L 182.914883 96.148195 
L 184.366826 97.929067 
L 185.092798 98.063554 
L 186.544741 98.762276 
L 187.270713 98.494883 
L 187.996685 98.428682 
L 188.722656 98.544323 
L 189.448628 99.921984 
L 190.900571 101.190328 
L 191.626543 102.939458 
L 192.352515 103.39088 
L 193.804458 105.915489 
L 194.53043 106.559027 
L 195.256402 106.590072 
L 196.708345 106.350901 
L 197.434317 107.006349 
L 198.160289 108.600844 
L 198.88626 109.342006 
L 200.338204 109.91672 
L 201.064175 110.457033 
L 201.790147 112.360207 
L 202.516119 113.255762 
L 203.24209 113.663692 
L 204.694034 115.850032 
L 205.420006 116.360652 
L 206.145977 115.924989 
L 206.871949 114.418378 
L 207.597921 114.143663 
L 208.323892 114.430827 
L 209.775836 114.051908 
L 210.501807 112.700063 
L 211.227779 112.453574 
L 211.953751 111.905082 
L 212.679723 111.20846 
L 213.405694 111.743435 
L 214.857638 111.918283 
L 215.583609 112.266942 
L 216.309581 112.25016 
L 217.035553 111.770573 
L 217.761524 111.978417 
L 218.487496 112.68785 
L 219.213468 112.937348 
L 219.93944 113.06601 
L 221.391383 113.605608 
L 222.117355 113.641054 
L 222.843326 114.465266 
L 223.569298 114.818007 
L 224.29527 114.581558 
L 225.021242 114.087053 
L 226.473185 114.596823 
L 227.199157 114.045997 
L 227.925128 112.742928 
L 228.6511 112.008369 
L 229.377072 112.299325 
L 230.103043 111.514994 
L 230.829015 110.971617 
L 231.554987 110.230665 
L 232.280959 110.085482 
L 233.00693 110.111928 
L 233.732902 109.618015 
L 234.458874 108.330873 
L 235.184845 107.958781 
L 236.636789 106.539934 
L 238.088732 106.941324 
L 238.814704 107.802161 
L 239.540676 107.944957 
L 240.266647 106.669918 
L 240.992619 106.377091 
L 243.170534 107.240379 
L 243.896506 107.121162 
L 244.622477 107.317972 
L 246.074421 107.338074 
L 246.800393 107.317987 
L 247.526364 107.042385 
L 248.252336 107.236702 
L 248.978308 107.237713 
L 249.704279 107.059991 
L 250.430251 107.020434 
L 251.156223 106.529877 
L 251.882195 105.675739 
L 252.608166 105.481944 
L 253.334138 105.623406 
L 254.06011 105.161618 
L 254.786081 105.312333 
L 255.512053 106.538022 
L 256.963996 107.168016 
L 257.689968 107.983925 
L 258.41594 107.540844 
L 259.141912 107.783969 
L 259.867883 108.831532 
L 260.593855 109.168598 
L 261.319827 109.719318 
L 262.045798 109.724099 
L 262.77177 108.971635 
L 263.497742 109.073545 
L 264.223713 109.006047 
L 264.949685 109.40047 
L 265.675657 109.540313 
L 266.401629 110.441072 
L 267.1276 110.097646 
L 267.853572 108.924705 
L 268.579544 109.142788 
L 271.48343 109.276276 
L 272.209402 109.594114 
L 273.661346 111.394934 
L 274.387317 111.898683 
L 275.113289 111.25046 
L 275.839261 110.900444 
L 276.565232 111.095673 
L 277.291204 110.965695 
L 279.469119 111.185954 
L 280.195091 111.480079 
L 280.921063 112.320956 
L 281.647034 112.904083 
L 282.373006 113.871064 
L 283.098978 114.204854 
L 283.824949 113.603348 
L 284.550921 113.317014 
L 285.276893 112.681611 
L 286.002865 112.441684 
L 286.728836 112.876547 
L 287.454808 112.711726 
L 288.18078 111.739053 
L 290.358695 111.076176 
L 291.084666 110.300081 
L 291.810638 109.902483 
L 292.53661 110.018385 
L 293.262582 109.799926 
L 294.714525 109.904686 
L 296.166468 110.056117 
L 298.344383 110.034267 
L 299.796327 109.00897 
L 300.522299 109.946822 
L 301.24827 110.189677 
L 304.152157 109.89515 
L 304.878129 110.08192 
L 305.604101 110.892262 
L 307.056044 111.784951 
L 309.233959 110.964486 
L 310.685902 110.975976 
L 312.137846 109.895432 
L 312.863818 110.179141 
L 313.589789 110.158585 
L 314.315761 109.961406 
L 315.041733 109.303603 
L 315.767704 109.110811 
L 316.493676 109.331461 
L 317.219648 110.357734 
L 318.671591 110.309583 
L 319.397563 109.461491 
L 320.123535 108.990375 
L 320.849506 108.963106 
L 322.30145 109.936006 
L 323.753393 109.559943 
L 325.205336 109.517444 
L 326.65728 109.057759 
L 327.383252 108.165514 
L 328.109223 107.847247 
L 328.835195 107.360044 
L 329.561167 107.669167 
L 330.287138 108.121937 
L 331.01311 108.074273 
L 332.465054 107.519055 
L 333.916997 108.028091 
L 334.642969 108.025258 
L 335.36894 108.34794 
L 336.094912 108.935247 
L 336.820884 109.844123 
L 337.546855 109.959188 
L 338.272827 109.645259 
L 338.998799 109.515367 
L 340.450742 109.687351 
L 341.902686 109.273696 
L 342.628657 109.49668 
L 343.354629 109.550228 
L 344.080601 108.508398 
L 344.806572 108.355798 
L 345.532544 109.01351 
L 346.984488 109.168295 
L 347.710459 108.90858 
L 348.436431 109.189331 
L 349.162403 108.903319 
L 350.614346 108.672293 
L 352.066289 109.094317 
L 352.792261 108.871395 
L 353.518233 108.830154 
L 354.244205 108.962638 
L 354.970176 109.295612 
L 356.42212 109.369976 
L 357.148091 109.133953 
L 357.874063 109.470865 
L 358.600035 109.478482 
L 359.326007 109.78656 
L 360.051978 109.805751 
L 360.77795 109.18098 
L 362.229893 109.724573 
L 362.955865 109.176018 
L 363.681837 109.281644 
L 364.407808 109.169911 
L 365.13378 109.192921 
L 365.859752 109.068829 
L 366.585724 109.086301 
L 367.311695 109.343925 
L 368.037667 109.453318 
L 368.763639 110.127461 
L 370.215582 110.381771 
L 371.667525 110.215381 
L 372.393497 110.380991 
L 373.119469 110.098204 
L 373.845441 110.222096 
L 374.571412 110.153552 
L 375.297384 110.840724 
L 376.023356 111.059813 
L 376.749327 110.019455 
L 377.475299 110.200337 
L 378.201271 111.002108 
L 378.927242 110.935573 
L 379.653214 111.168489 
L 380.379186 111.659501 
L 381.105158 111.685199 
L 381.831129 112.119902 
L 383.283073 110.569143 
L 384.009044 110.005278 
L 384.735016 110.108903 
L 385.460988 110.397215 
L 386.18696 110.314367 
L 386.912931 109.311321 
L 387.638903 108.936939 
L 388.364875 108.235027 
L 389.090846 108.047009 
L 391.268761 109.092708 
L 392.720705 109.492363 
L 393.446677 109.25431 
L 394.172648 108.603507 
L 394.89862 108.598112 
L 395.624592 109.171633 
L 396.350563 109.336442 
L 397.076535 109.208061 
L 397.802507 109.293312 
L 398.528478 108.463011 
L 399.25445 107.111653 
L 399.980422 106.385011 
L 400.706394 105.980505 
L 401.432365 105.977523 
L 402.158337 106.799855 
L 402.884309 106.034813 
L 404.336252 105.184712 
L 405.062224 104.667156 
L 405.788195 104.409247 
L 406.514167 104.270689 
L 407.240139 103.82355 
L 407.966111 102.553653 
L 408.692082 101.944206 
L 409.418054 101.820887 
L 410.144026 101.860635 
L 410.869997 100.556757 
L 411.595969 98.984812 
L 412.321941 99.217162 
L 413.047913 99.136831 
L 413.773884 98.242455 
L 414.499856 96.75954 
L 415.225828 95.587596 
L 415.951799 93.515239 
L 416.677771 93.605007 
L 417.403743 92.670809 
L 418.129714 92.142964 
L 418.855686 92.085762 
L 419.581658 90.676142 
L 421.033601 89.754154 
L 421.759573 90.532452 
L 423.211516 91.436866 
L 423.937488 91.787274 
L 424.66346 91.364452 
L 425.389431 90.66377 
L 426.115403 90.54507 
L 428.293318 89.558392 
L 429.745262 89.351313 
L 430.471233 89.332295 
L 431.197205 88.626564 
L 432.649148 88.075168 
L 433.37512 89.319469 
L 434.101092 89.456902 
L 434.827064 89.985262 
L 435.553035 89.776237 
L 436.279007 90.41447 
L 437.004979 90.848927 
L 437.73095 91.619186 
L 439.182894 91.819673 
L 439.908866 91.392899 
L 440.634837 90.825468 
L 441.360809 90.503767 
L 442.086781 88.738821 
L 443.538724 86.791948 
L 444.264696 86.661017 
L 444.990667 85.384833 
L 445.716639 85.560955 
L 446.442611 84.578139 
L 447.168583 84.61258 
L 447.894554 84.970268 
L 448.620526 84.180495 
L 449.346498 83.564749 
L 450.072469 82.703847 
L 450.798441 82.477609 
L 451.524413 81.712146 
L 452.250384 78.485636 
L 452.976356 77.712129 
L 453.702328 75.025489 
L 454.4283 73.775712 
L 455.154271 71.320495 
L 456.606215 68.444747 
L 457.332186 66.402556 
L 458.058158 65.313267 
L 458.78413 63.890531 
L 459.510101 61.685895 
L 460.962045 55.010456 
L 462.413988 49.499533 
L 463.13996 45.105183 
L 464.591903 34.67267 
L 464.591903 34.67267 
" style="fill:none;stroke:#1f77b4;stroke-linecap:square;stroke-width:1.5;"/>
   </g>
   <g id="line2d_2">
    <path clip-path="url(#p375b06b429)" d="M 58.773722 110.127282 
L 59.499693 112.154024 
L 60.225665 115.082213 
L 60.951637 116.784218 
L 61.677608 118.100099 
L 62.40358 117.654187 
L 63.129552 116.361822 
L 63.855524 116.092474 
L 64.581495 112.086828 
L 65.307467 109.495821 
L 66.033439 109.920818 
L 66.75941 109.399716 
L 67.485382 109.519159 
L 68.211354 108.925481 
L 68.937325 111.243077 
L 69.663297 113.013731 
L 70.389269 114.245999 
L 71.115241 119.465044 
L 71.841212 118.111122 
L 72.567184 119.087336 
L 73.293156 122.55468 
L 74.019127 122.409835 
L 74.745099 124.427288 
L 75.471071 126.996149 
L 76.197042 127.567582 
L 76.923014 126.043339 
L 77.648986 125.516968 
L 78.374958 124.688984 
L 79.826901 123.58275 
L 80.552873 122.315894 
L 81.278844 120.824548 
L 82.004816 119.773544 
L 82.730788 116.914589 
L 83.456759 118.674545 
L 84.182731 121.0214 
L 84.908703 120.993699 
L 85.634675 120.78641 
L 86.360646 120.102619 
L 87.086618 120.108559 
L 87.81259 120.88062 
L 88.538561 122.661199 
L 89.264533 123.707055 
L 90.716477 124.18936 
L 91.442448 126.656389 
L 92.16842 127.512463 
L 92.894392 129.625234 
L 93.620363 128.304496 
L 94.346335 125.265782 
L 95.072307 123.394031 
L 95.798278 122.710301 
L 97.250222 122.261684 
L 97.976194 119.85385 
L 98.702165 118.11136 
L 99.428137 119.570625 
L 100.154109 121.770043 
L 100.88008 122.344857 
L 102.332024 122.499736 
L 103.057995 124.111191 
L 103.783967 124.000257 
L 104.509939 123.103406 
L 105.235911 122.654547 
L 105.961882 124.831448 
L 106.687854 124.759982 
L 107.413826 124.010772 
L 108.139797 123.736795 
L 108.865769 123.693836 
L 109.591741 124.914884 
L 110.317712 127.193143 
L 111.043684 127.569258 
L 111.769656 127.567973 
L 112.495628 127.289723 
L 113.221599 125.283622 
L 113.947571 124.280275 
L 114.673543 124.955883 
L 116.125486 122.109287 
L 116.851458 121.477265 
L 117.57743 121.139426 
L 119.029373 120.860808 
L 119.755345 122.403281 
L 120.481316 124.946844 
L 121.207288 124.446921 
L 121.93326 121.440873 
L 123.385203 120.904504 
L 124.111175 119.580957 
L 124.837147 120.42356 
L 125.563118 121.884443 
L 127.015062 118.46258 
L 128.467005 118.771352 
L 129.192977 118.689631 
L 129.918948 119.389487 
L 130.64492 118.942311 
L 131.370892 118.66348 
L 132.096864 119.595294 
L 132.822835 118.180131 
L 133.548807 118.056675 
L 134.274779 118.947014 
L 135.00075 118.92006 
L 135.726722 119.094776 
L 137.178665 118.916757 
L 138.630609 119.026823 
L 139.356581 120.119418 
L 140.082552 122.359964 
L 140.808524 122.838363 
L 142.260467 123.131375 
L 143.712411 123.267435 
L 144.438383 123.782752 
L 145.164354 125.177629 
L 145.890326 125.853581 
L 147.342269 126.046849 
L 148.068241 126.411789 
L 148.794213 126.969926 
L 150.246156 127.413992 
L 150.972128 129.207586 
L 151.6981 131.698483 
L 152.424071 131.73412 
L 153.150043 130.867945 
L 154.601986 129.994267 
L 155.327958 129.910124 
L 156.05393 130.188989 
L 157.505873 128.010441 
L 158.231845 128.153337 
L 159.683788 125.892851 
L 160.40976 125.788436 
L 161.135732 126.035199 
L 162.587675 126.183 
L 164.039618 128.565264 
L 166.217534 128.16242 
L 167.669477 125.563203 
L 168.395449 124.383246 
L 169.12142 123.696755 
L 169.847392 124.178839 
L 170.573364 124.278813 
L 171.299336 124.936947 
L 172.025307 125.200856 
L 172.751279 124.86949 
L 173.477251 124.83323 
L 174.203222 123.838263 
L 174.929194 123.612006 
L 175.655166 122.370887 
L 176.381137 120.819577 
L 177.107109 120.23539 
L 177.833081 119.015204 
L 179.285024 116.00264 
L 180.010996 115.031709 
L 180.736968 116.124581 
L 181.462939 116.576662 
L 182.188911 115.751676 
L 182.914883 115.242062 
L 183.640854 114.95242 
L 184.366826 115.087879 
L 185.092798 113.79336 
L 185.81877 112.843012 
L 186.544741 112.317654 
L 187.270713 112.058205 
L 187.996685 111.59827 
L 189.448628 111.958153 
L 190.1746 110.790397 
L 190.900571 110.304191 
L 191.626543 111.447875 
L 192.352515 111.358488 
L 193.078487 111.874279 
L 193.804458 112.99273 
L 194.53043 112.376176 
L 195.256402 112.057168 
L 195.982373 111.920413 
L 196.708345 112.046529 
L 197.434317 112.939176 
L 198.160289 114.126437 
L 198.88626 114.838063 
L 199.612232 115.014273 
L 200.338204 115.768035 
L 201.064175 116.823006 
L 201.790147 118.199946 
L 202.516119 118.855061 
L 203.24209 119.274658 
L 203.968062 120.215352 
L 204.694034 120.44105 
L 205.420006 120.433025 
L 206.871949 119.981059 
L 207.597921 120.230509 
L 208.323892 120.347331 
L 209.049864 119.50499 
L 209.775836 119.796263 
L 211.953751 120.226105 
L 212.679723 120.785629 
L 213.405694 121.834883 
L 214.131666 122.042385 
L 214.857638 121.836101 
L 215.583609 121.947046 
L 216.309581 121.426898 
L 217.035553 121.112544 
L 217.761524 121.472534 
L 218.487496 122.12618 
L 219.213468 122.415022 
L 219.93944 122.580865 
L 221.391383 123.12952 
L 222.117355 123.390508 
L 222.843326 124.364587 
L 223.569298 124.810965 
L 224.29527 124.867678 
L 225.021242 125.368335 
L 225.747213 126.428691 
L 227.925128 127.785279 
L 228.6511 127.894892 
L 230.103043 128.772248 
L 230.829015 129.819402 
L 231.554987 130.177854 
L 232.280959 130.354015 
L 233.00693 129.639208 
L 233.732902 128.309765 
L 234.458874 128.419035 
L 235.184845 128.714348 
L 235.910817 128.452385 
L 236.636789 127.375617 
L 237.36276 127.445424 
L 238.088732 127.673012 
L 239.540676 129.382906 
L 240.266647 128.738578 
L 240.992619 127.306219 
L 241.718591 127.237067 
L 242.444562 127.473878 
L 243.170534 127.885428 
L 243.896506 128.088519 
L 244.622477 129.085637 
L 245.348449 129.686249 
L 246.074421 128.970231 
L 246.800393 128.687044 
L 248.978308 128.813515 
L 249.704279 128.71467 
L 250.430251 128.852261 
L 251.156223 128.849384 
L 251.882195 129.039387 
L 253.334138 128.969775 
L 254.06011 129.089274 
L 254.786081 128.741989 
L 255.512053 129.278093 
L 256.238025 129.566831 
L 256.963996 129.733432 
L 257.689968 130.46038 
L 258.41594 130.66765 
L 261.319827 133.282289 
L 262.045798 133.824077 
L 262.77177 133.71234 
L 263.497742 133.448833 
L 264.223713 132.73752 
L 264.949685 132.876323 
L 265.675657 132.802899 
L 266.401629 133.524442 
L 267.1276 133.073152 
L 267.853572 132.079452 
L 268.579544 132.362191 
L 269.305515 132.176428 
L 272.209402 132.464317 
L 272.935374 133.233259 
L 273.661346 133.825382 
L 274.387317 133.034522 
L 275.113289 132.693631 
L 275.839261 132.704807 
L 276.565232 132.209752 
L 277.291204 131.974802 
L 278.017176 132.030559 
L 278.743148 131.313429 
L 279.469119 130.989595 
L 280.195091 130.388655 
L 280.921063 130.699922 
L 281.647034 130.29767 
L 282.373006 130.438374 
L 283.098978 130.197445 
L 283.824949 129.270173 
L 284.550921 129.477866 
L 285.276893 128.901983 
L 286.002865 128.485741 
L 286.728836 128.669331 
L 287.454808 128.381207 
L 288.18078 127.428098 
L 288.906751 127.100211 
L 289.632723 125.999971 
L 290.358695 125.376721 
L 291.084666 124.117254 
L 291.810638 123.606152 
L 292.53661 123.455878 
L 293.262582 123.091185 
L 296.166468 122.99223 
L 298.344383 119.709259 
L 299.796327 119.167891 
L 300.522299 119.75641 
L 301.24827 119.608968 
L 301.974242 118.699487 
L 302.700214 117.454677 
L 303.426185 116.846398 
L 304.152157 115.952963 
L 304.878129 115.880317 
L 305.604101 115.630856 
L 306.330072 115.140994 
L 307.056044 115.016268 
L 307.782016 115.481542 
L 308.507987 115.108935 
L 310.685902 114.676967 
L 311.411874 114.774411 
L 312.137846 114.532918 
L 313.589789 114.838946 
L 314.315761 114.095613 
L 315.041733 113.722484 
L 316.493676 113.592746 
L 317.219648 114.297401 
L 317.945619 113.585523 
L 319.397563 113.066438 
L 320.849506 112.929624 
L 321.575478 113.603229 
L 322.30145 114.764576 
L 323.027421 115.173495 
L 324.479365 115.159175 
L 325.205336 115.828217 
L 326.65728 117.511388 
L 327.383252 116.873094 
L 328.109223 116.602521 
L 328.835195 116.709094 
L 329.561167 117.398832 
L 330.287138 117.77808 
L 331.01311 117.937261 
L 331.739082 118.368202 
L 333.191025 116.850642 
L 334.642969 118.413085 
L 335.36894 118.141143 
L 336.094912 118.484222 
L 336.820884 119.353427 
L 338.272827 120.599043 
L 338.998799 120.770551 
L 339.724771 121.082427 
L 341.176714 122.70203 
L 342.628657 123.202603 
L 343.354629 123.906596 
L 344.080601 124.00754 
L 344.806572 124.524695 
L 345.532544 125.732762 
L 346.258516 126.019566 
L 346.984488 126.872129 
L 347.710459 127.37469 
L 348.436431 127.621286 
L 349.162403 128.283668 
L 349.888374 128.448724 
L 352.792261 129.824437 
L 354.244205 130.229039 
L 354.970176 131.080878 
L 355.696148 131.549898 
L 357.148091 131.653499 
L 357.874063 132.057417 
L 358.600035 132.137984 
L 359.326007 131.785675 
L 360.77795 132.028695 
L 361.503922 132.758267 
L 362.229893 133.737758 
L 363.681837 132.678948 
L 364.407808 133.105181 
L 365.859752 132.84765 
L 367.311695 133.292641 
L 368.763639 133.503648 
L 369.48961 133.078958 
L 370.215582 133.10996 
L 370.941554 133.526665 
L 371.667525 133.557526 
L 372.393497 134.025174 
L 373.119469 133.565311 
L 373.845441 133.552438 
L 374.571412 133.859042 
L 375.297384 135.026327 
L 376.023356 135.590217 
L 376.749327 135.441068 
L 377.475299 135.045115 
L 378.201271 135.707536 
L 378.927242 135.846183 
L 379.653214 135.84296 
L 380.379186 135.990959 
L 381.105158 135.439878 
L 382.557101 135.83606 
L 383.283073 135.482317 
L 384.009044 136.097778 
L 384.735016 136.1307 
L 385.460988 135.693106 
L 386.18696 135.823966 
L 386.912931 135.337318 
L 387.638903 135.045512 
L 388.364875 134.361299 
L 389.816818 134.258479 
L 390.54279 134.79331 
L 391.268761 134.274158 
L 391.994733 133.459081 
L 392.720705 132.95145 
L 394.89862 132.66255 
L 395.624592 132.201913 
L 396.350563 132.275501 
L 397.076535 131.245079 
L 397.802507 131.015204 
L 398.528478 130.250088 
L 399.25445 129.226382 
L 399.980422 128.434905 
L 400.706394 128.049607 
L 401.432365 126.851392 
L 402.158337 126.600385 
L 402.884309 125.685077 
L 403.61028 125.293246 
L 404.336252 124.390737 
L 405.062224 123.774021 
L 405.788195 122.626563 
L 408.692082 121.288911 
L 410.144026 120.915229 
L 410.869997 120.095974 
L 411.595969 119.020354 
L 412.321941 119.3238 
L 415.225828 114.124026 
L 415.951799 112.247657 
L 416.677771 112.403762 
L 417.403743 111.297149 
L 418.129714 111.263714 
L 418.855686 110.968549 
L 419.581658 109.905313 
L 421.033601 109.047742 
L 421.759573 109.71531 
L 422.485545 110.915659 
L 423.211516 110.646815 
L 423.937488 111.500805 
L 426.115403 111.369034 
L 426.841375 111.4536 
L 428.293318 112.090839 
L 429.01929 111.833783 
L 429.745262 112.590577 
L 430.471233 112.107516 
L 431.197205 112.067249 
L 431.923177 111.882738 
L 434.101092 112.478794 
L 435.553035 112.336423 
L 436.279007 112.458116 
L 439.182894 113.470252 
L 439.908866 113.934981 
L 441.360809 114.141191 
L 442.086781 114.221417 
L 442.812752 114.451132 
L 443.538724 114.827239 
L 444.264696 114.810348 
L 444.990667 114.974702 
L 445.716639 115.358448 
L 446.442611 115.314484 
L 447.894554 116.526943 
L 448.620526 118.762154 
L 449.346498 119.445175 
L 450.072469 119.118108 
L 450.798441 119.639369 
L 451.524413 121.893816 
L 452.250384 122.628939 
L 452.976356 123.61267 
L 453.702328 125.93557 
L 455.880243 129.844367 
L 456.606215 131.254722 
L 457.332186 132.910027 
L 458.058158 135.784042 
L 458.78413 137.851574 
L 459.510101 143.249223 
L 460.236073 145.98837 
L 460.962045 148.151803 
L 461.688017 152.95214 
L 462.413988 161.758353 
L 463.13996 166.46015 
L 464.591903 180.141484 
L 464.591903 180.141484 
" style="fill:none;stroke:#ff7f0e;stroke-linecap:square;stroke-width:1.5;"/>
   </g>
   <g id="line2d_3">
    <path clip-path="url(#p375b06b429)" d="M 58.773722 146.85977 
L 59.499693 149.426755 
L 60.225665 152.951972 
L 60.951637 154.272625 
L 62.40358 153.305401 
L 63.129552 149.649876 
L 63.855524 144.982506 
L 64.581495 142.409783 
L 65.307467 143.553363 
L 66.033439 143.892759 
L 66.75941 144.008601 
L 67.485382 144.550139 
L 68.211354 144.234885 
L 68.937325 146.354397 
L 69.663297 143.808161 
L 70.389269 143.461722 
L 71.115241 144.916473 
L 71.841212 143.76266 
L 72.567184 143.422566 
L 73.293156 143.441488 
L 74.019127 143.18008 
L 74.745099 141.51155 
L 75.471071 142.270265 
L 76.923014 140.317377 
L 78.374958 144.910961 
L 79.100929 144.78708 
L 79.826901 145.693545 
L 80.552873 148.598936 
L 81.278844 148.661063 
L 82.004816 146.003463 
L 82.730788 142.303084 
L 84.182731 146.572397 
L 84.908703 146.604589 
L 85.634675 143.951027 
L 87.086618 142.114581 
L 87.81259 140.817643 
L 88.538561 141.145031 
L 89.264533 140.987564 
L 89.990505 140.632346 
L 90.716477 138.363658 
L 91.442448 136.851796 
L 92.16842 137.356581 
L 92.894392 136.813283 
L 93.620363 137.341339 
L 94.346335 137.228742 
L 95.072307 137.298676 
L 95.798278 135.835337 
L 96.52425 133.552694 
L 97.250222 131.774694 
L 97.976194 130.974475 
L 98.702165 129.059715 
L 99.428137 128.369543 
L 100.154109 129.976407 
L 100.88008 130.077869 
L 101.606052 129.177859 
L 102.332024 128.915096 
L 103.057995 130.404653 
L 103.783967 130.895822 
L 104.509939 131.007492 
L 105.235911 132.551763 
L 105.961882 135.122871 
L 107.413826 135.229495 
L 108.139797 134.660612 
L 108.865769 134.512169 
L 109.591741 135.801476 
L 110.317712 137.84929 
L 111.043684 136.685166 
L 111.769656 136.073157 
L 112.495628 134.812062 
L 113.221599 133.299533 
L 113.947571 133.573563 
L 114.673543 134.085121 
L 115.399514 133.548614 
L 116.125486 133.449269 
L 116.851458 134.342767 
L 117.57743 133.090244 
L 118.303401 132.473849 
L 119.029373 132.209162 
L 119.755345 133.775169 
L 120.481316 136.244183 
L 121.207288 137.655654 
L 121.93326 138.017138 
L 122.659231 138.189129 
L 124.111175 139.372043 
L 125.563118 142.959848 
L 126.28909 142.857615 
L 127.015062 142.324419 
L 127.741033 142.664429 
L 128.467005 142.777338 
L 129.192977 142.769533 
L 129.918948 143.241461 
L 130.64492 143.124002 
L 131.370892 143.122431 
L 132.096864 144.182502 
L 132.822835 144.603581 
L 134.274779 146.75035 
L 135.00075 146.866184 
L 135.726722 147.179109 
L 137.904637 147.661369 
L 138.630609 147.924797 
L 139.356581 149.293314 
L 140.082552 151.146621 
L 140.808524 151.281067 
L 141.534496 149.82898 
L 142.260467 147.40111 
L 142.986439 147.183965 
L 143.712411 145.944598 
L 144.438383 145.221278 
L 145.164354 146.407119 
L 145.890326 146.510045 
L 146.616298 146.241792 
L 147.342269 146.115055 
L 148.068241 144.965551 
L 148.794213 144.238237 
L 150.246156 143.968506 
L 150.972128 145.27718 
L 151.6981 146.948285 
L 153.876015 145.65853 
L 154.601986 145.485963 
L 156.05393 144.963967 
L 157.505873 144.726234 
L 158.231845 144.765889 
L 158.957817 144.954001 
L 159.683788 145.018762 
L 160.40976 143.666218 
L 161.861703 143.204329 
L 162.587675 141.43101 
L 163.313647 140.840412 
L 164.039618 141.455272 
L 166.217534 141.635479 
L 167.669477 141.299176 
L 168.395449 141.031096 
L 169.12142 139.799322 
L 169.847392 139.913046 
L 170.573364 139.277333 
L 171.299336 139.001121 
L 172.751279 137.350486 
L 173.477251 137.158084 
L 174.203222 136.769948 
L 174.929194 136.522715 
L 175.655166 136.099643 
L 176.381137 135.958649 
L 177.107109 134.692942 
L 179.285024 131.834641 
L 180.010996 130.941771 
L 180.736968 131.934124 
L 181.462939 131.960045 
L 182.188911 131.579977 
L 184.366826 131.333112 
L 185.092798 130.789289 
L 185.81877 130.447672 
L 187.270713 127.60203 
L 187.996685 127.19447 
L 188.722656 126.29944 
L 189.448628 126.368242 
L 190.1746 125.967583 
L 192.352515 126.28027 
L 193.804458 126.197084 
L 194.53043 126.151756 
L 195.982373 125.501208 
L 196.708345 125.412265 
L 197.434317 125.044693 
L 198.160289 125.040707 
L 198.88626 125.217451 
L 199.612232 125.087798 
L 200.338204 125.152774 
L 201.064175 126.300958 
L 202.516119 126.956668 
L 203.24209 126.530374 
L 203.968062 126.393029 
L 204.694034 126.370544 
L 205.420006 126.083841 
L 206.145977 125.594044 
L 206.871949 125.518812 
L 208.323892 125.500015 
L 209.049864 125.436227 
L 209.775836 126.103582 
L 210.501807 125.32294 
L 211.227779 124.8466 
L 212.679723 122.982155 
L 213.405694 123.328812 
L 214.131666 123.05534 
L 214.857638 121.919622 
L 216.309581 121.591579 
L 217.035553 120.502193 
L 217.761524 120.348504 
L 218.487496 119.913647 
L 219.213468 119.801938 
L 219.93944 119.416123 
L 220.665411 119.455792 
L 221.391383 118.511068 
L 222.117355 118.340521 
L 222.843326 119.090737 
L 223.569298 119.229366 
L 224.29527 118.985652 
L 225.021242 119.245167 
L 225.747213 120.093608 
L 226.473185 120.363907 
L 227.199157 120.344039 
L 227.925128 120.607531 
L 228.6511 119.844505 
L 229.377072 119.579542 
L 230.103043 118.859436 
L 230.829015 119.348528 
L 232.280959 118.989546 
L 233.00693 118.867853 
L 233.732902 117.911223 
L 234.458874 117.671085 
L 235.184845 117.810208 
L 235.910817 117.517601 
L 237.36276 115.818195 
L 238.088732 115.597248 
L 238.814704 115.600609 
L 239.540676 116.003425 
L 240.992619 115.844666 
L 241.718591 115.191057 
L 242.444562 113.976848 
L 243.170534 113.03769 
L 243.896506 112.524238 
L 244.622477 112.809257 
L 245.348449 113.325651 
L 246.800393 113.029356 
L 247.526364 113.215778 
L 252.608166 113.10183 
L 253.334138 113.17608 
L 254.06011 113.120032 
L 254.786081 113.586744 
L 255.512053 114.630179 
L 256.238025 114.042166 
L 256.963996 113.259487 
L 257.689968 113.862655 
L 258.41594 114.046301 
L 259.141912 113.926853 
L 259.867883 114.583121 
L 261.319827 115.02379 
L 262.045798 114.819842 
L 263.497742 114.76093 
L 264.223713 115.089365 
L 264.949685 115.227337 
L 266.401629 115.154419 
L 267.853572 114.845448 
L 268.579544 115.241035 
L 270.757459 115.484389 
L 271.48343 114.645677 
L 272.209402 114.151166 
L 272.935374 114.632405 
L 273.661346 115.412734 
L 274.387317 115.654888 
L 275.113289 115.572669 
L 275.839261 114.812832 
L 276.565232 114.627792 
L 277.291204 114.086399 
L 278.017176 113.715899 
L 279.469119 113.352195 
L 280.195091 113.319773 
L 280.921063 113.894611 
L 281.647034 114.059849 
L 282.373006 114.672538 
L 283.098978 115.117318 
L 283.824949 115.277645 
L 284.550921 115.840787 
L 285.276893 116.054559 
L 286.002865 116.747587 
L 286.728836 117.650125 
L 287.454808 118.048245 
L 288.906751 118.225269 
L 290.358695 118.302357 
L 291.810638 117.962045 
L 296.89244 118.583216 
L 298.344383 116.548795 
L 299.796327 116.483257 
L 300.522299 117.082032 
L 301.24827 116.986052 
L 301.974242 116.11148 
L 302.700214 115.661459 
L 304.152157 115.341193 
L 304.878129 114.852265 
L 305.604101 115.317632 
L 306.330072 115.145672 
L 307.056044 115.194247 
L 307.782016 115.877176 
L 309.959931 115.655335 
L 310.685902 115.284879 
L 311.411874 115.375878 
L 312.137846 114.845466 
L 312.863818 114.841654 
L 314.315761 114.634582 
L 315.041733 114.61547 
L 315.767704 113.817361 
L 316.493676 113.843182 
L 317.219648 114.588603 
L 317.945619 113.972932 
L 318.671591 113.671388 
L 319.397563 113.532273 
L 320.123535 113.619665 
L 320.849506 113.28363 
L 321.575478 113.916631 
L 322.30145 115.022876 
L 323.027421 115.306487 
L 323.753393 115.274228 
L 324.479365 114.907979 
L 325.205336 115.452533 
L 325.931308 116.474337 
L 326.65728 117.087278 
L 327.383252 117.11985 
L 328.109223 117.536279 
L 328.835195 117.057554 
L 330.287138 117.480679 
L 331.739082 116.814465 
L 332.465054 116.622455 
L 335.36894 117.17548 
L 336.094912 116.980656 
L 336.820884 116.661299 
L 340.450742 116.375745 
L 341.176714 117.042395 
L 341.902686 116.97207 
L 342.628657 117.023558 
L 343.354629 117.613353 
L 344.080601 116.846188 
L 344.806572 116.854821 
L 345.532544 117.561131 
L 346.258516 117.646356 
L 346.984488 118.407483 
L 347.710459 118.669473 
L 348.436431 119.417256 
L 349.162403 119.70197 
L 349.888374 120.173414 
L 350.614346 120.275542 
L 352.792261 120.897115 
L 353.518233 121.108587 
L 354.244205 120.917869 
L 354.970176 120.929358 
L 355.696148 121.269013 
L 357.148091 121.287483 
L 357.874063 121.527435 
L 358.600035 121.529028 
L 359.326007 121.984224 
L 360.051978 122.111133 
L 360.77795 122.118912 
L 361.503922 122.719491 
L 362.229893 123.861578 
L 362.955865 123.284224 
L 363.681837 123.074028 
L 364.407808 124.000182 
L 365.13378 124.706832 
L 368.037667 125.578841 
L 368.763639 126.466881 
L 369.48961 127.004991 
L 370.941554 128.667792 
L 371.667525 128.98224 
L 372.393497 129.609517 
L 373.119469 129.190683 
L 373.845441 128.516349 
L 374.571412 129.022222 
L 375.297384 129.814203 
L 376.023356 129.849516 
L 376.749327 129.199223 
L 377.475299 129.402506 
L 378.201271 130.33636 
L 379.653214 130.966788 
L 380.379186 130.774037 
L 381.105158 130.925255 
L 381.831129 131.348481 
L 382.557101 131.269294 
L 383.283073 131.681304 
L 384.009044 132.247826 
L 384.735016 132.473227 
L 385.460988 133.013816 
L 386.18696 133.092192 
L 386.912931 133.416917 
L 387.638903 133.508031 
L 388.364875 133.717968 
L 389.090846 133.70479 
L 389.816818 133.866015 
L 390.54279 134.80763 
L 391.994733 135.436832 
L 392.720705 136.013607 
L 393.446677 136.332638 
L 394.172648 136.364193 
L 394.89862 137.223597 
L 395.624592 138.269949 
L 396.350563 138.719549 
L 397.802507 138.942453 
L 399.25445 137.618657 
L 399.980422 137.274119 
L 401.432365 137.595237 
L 402.158337 138.582199 
L 402.884309 138.679951 
L 403.61028 137.735723 
L 404.336252 137.568046 
L 405.062224 137.064795 
L 405.788195 137.013378 
L 407.240139 135.960409 
L 407.966111 136.300142 
L 408.692082 137.461502 
L 409.418054 136.911562 
L 410.144026 136.99443 
L 410.869997 136.892495 
L 412.321941 137.304373 
L 413.047913 136.909801 
L 413.773884 136.778381 
L 414.499856 137.000411 
L 415.225828 136.949769 
L 415.951799 136.766776 
L 416.677771 136.936044 
L 417.403743 137.245624 
L 418.855686 138.138036 
L 419.581658 137.276692 
L 421.033601 137.247879 
L 421.759573 138.617283 
L 422.485545 139.077758 
L 423.211516 140.473667 
L 423.937488 140.699195 
L 424.66346 140.65518 
L 425.389431 140.977304 
L 426.115403 141.050782 
L 426.841375 141.362089 
L 428.293318 142.473154 
L 429.01929 142.464337 
L 429.745262 143.330306 
L 430.471233 143.304227 
L 431.197205 143.929617 
L 431.923177 144.300822 
L 432.649148 144.996318 
L 433.37512 145.508639 
L 434.101092 147.309178 
L 434.827064 147.87747 
L 435.553035 147.469484 
L 436.279007 147.837504 
L 437.004979 147.511651 
L 437.73095 147.979835 
L 438.456922 147.632929 
L 439.182894 148.120983 
L 439.908866 149.712146 
L 440.634837 150.069711 
L 441.360809 150.629946 
L 442.086781 151.618024 
L 442.812752 151.967277 
L 443.538724 153.020752 
L 444.264696 153.648119 
L 444.990667 155.034122 
L 445.716639 155.752353 
L 446.442611 157.158171 
L 447.894554 159.460387 
L 448.620526 162.353033 
L 449.346498 163.82541 
L 450.072469 164.573551 
L 450.798441 166.171077 
L 451.524413 169.372207 
L 452.250384 171.763512 
L 452.976356 173.653237 
L 453.702328 175.069573 
L 454.4283 178.185125 
L 455.154271 179.855515 
L 456.606215 185.885478 
L 458.78413 199.54785 
L 459.510101 206.948361 
L 460.962045 218.529587 
L 461.688017 227.880726 
L 462.413988 240.669841 
L 463.13996 251.388778 
L 464.591903 281.76358 
L 464.591903 281.76358 
" style="fill:none;stroke:#2ca02c;stroke-linecap:square;stroke-width:1.5;"/>
   </g>
   <g id="line2d_4">
    <path clip-path="url(#p375b06b429)" d="M 58.773722 102.61476 
L 464.591903 102.61476 
L 464.591903 102.61476 
" style="fill:none;stroke:#000000;stroke-dasharray:3.7,1.6;stroke-dashoffset:0;"/>
   </g>
   <g id="matplotlib.axis_1">
    <g id="xtick_1">
     <g id="line2d_5">
      <defs>
       <path d="M 0 0 
L 0 3.5 
" id="m71b090a16d" style="stroke:#000000;stroke-width:0.8;"/>
      </defs>
      <g>
       <use style="stroke:#000000;stroke-width:0.8;" x="79.826901" xlink:href="#m71b090a16d" y="294.118125"/>
      </g>
     </g>
     <g id="text_1">
      <!-- 100 -->
      <defs>
       <path d="M 12.40625 8.296875 
L 28.515625 8.296875 
L 28.515625 63.921875 
L 10.984375 60.40625 
L 10.984375 69.390625 
L 28.421875 72.90625 
L 38.28125 72.90625 
L 38.28125 8.296875 
L 54.390625 8.296875 
L 54.390625 0 
L 12.40625 0 
z
" id="DejaVuSans-49"/>
       <path d="M 31.78125 66.40625 
Q 24.171875 66.40625 20.328125 58.90625 
Q 16.5 51.421875 16.5 36.375 
Q 16.5 21.390625 20.328125 13.890625 
Q 24.171875 6.390625 31.78125 6.390625 
Q 39.453125 6.390625 43.28125 13.890625 
Q 47.125 21.390625 47.125 36.375 
Q 47.125 51.421875 43.28125 58.90625 
Q 39.453125 66.40625 31.78125 66.40625 
z
M 31.78125 74.21875 
Q 44.046875 74.21875 50.515625 64.515625 
Q 56.984375 54.828125 56.984375 36.375 
Q 56.984375 17.96875 50.515625 8.265625 
Q 44.046875 -1.421875 31.78125 -1.421875 
Q 19.53125 -1.421875 13.0625 8.265625 
Q 6.59375 17.96875 6.59375 36.375 
Q 6.59375 54.828125 13.0625 64.515625 
Q 19.53125 74.21875 31.78125 74.21875 
z
" id="DejaVuSans-48"/>
      </defs>
      <g transform="translate(70.283151 308.716563)scale(0.1 -0.1)">
       <use xlink:href="#DejaVuSans-49"/>
       <use x="63.623047" xlink:href="#DejaVuSans-48"/>
       <use x="127.246094" xlink:href="#DejaVuSans-48"/>
      </g>
     </g>
    </g>
    <g id="xtick_2">
     <g id="line2d_6">
      <g>
       <use style="stroke:#000000;stroke-width:0.8;" x="152.424071" xlink:href="#m71b090a16d" y="294.118125"/>
      </g>
     </g>
     <g id="text_2">
      <!-- 200 -->
      <defs>
       <path d="M 19.1875 8.296875 
L 53.609375 8.296875 
L 53.609375 0 
L 7.328125 0 
L 7.328125 8.296875 
Q 12.9375 14.109375 22.625 23.890625 
Q 32.328125 33.6875 34.8125 36.53125 
Q 39.546875 41.84375 41.421875 45.53125 
Q 43.3125 49.21875 43.3125 52.78125 
Q 43.3125 58.59375 39.234375 62.25 
Q 35.15625 65.921875 28.609375 65.921875 
Q 23.96875 65.921875 18.8125 64.3125 
Q 13.671875 62.703125 7.8125 59.421875 
L 7.8125 69.390625 
Q 13.765625 71.78125 18.9375 73 
Q 24.125 74.21875 28.421875 74.21875 
Q 39.75 74.21875 46.484375 68.546875 
Q 53.21875 62.890625 53.21875 53.421875 
Q 53.21875 48.921875 51.53125 44.890625 
Q 49.859375 40.875 45.40625 35.40625 
Q 44.1875 33.984375 37.640625 27.21875 
Q 31.109375 20.453125 19.1875 8.296875 
z
" id="DejaVuSans-50"/>
      </defs>
      <g transform="translate(142.880321 308.716563)scale(0.1 -0.1)">
       <use xlink:href="#DejaVuSans-50"/>
       <use x="63.623047" xlink:href="#DejaVuSans-48"/>
       <use x="127.246094" xlink:href="#DejaVuSans-48"/>
      </g>
     </g>
    </g>
    <g id="xtick_3">
     <g id="line2d_7">
      <g>
       <use style="stroke:#000000;stroke-width:0.8;" x="225.021242" xlink:href="#m71b090a16d" y="294.118125"/>
      </g>
     </g>
     <g id="text_3">
      <!-- 300 -->
      <defs>
       <path d="M 40.578125 39.3125 
Q 47.65625 37.796875 51.625 33 
Q 55.609375 28.21875 55.609375 21.1875 
Q 55.609375 10.40625 48.1875 4.484375 
Q 40.765625 -1.421875 27.09375 -1.421875 
Q 22.515625 -1.421875 17.65625 -0.515625 
Q 12.796875 0.390625 7.625 2.203125 
L 7.625 11.71875 
Q 11.71875 9.328125 16.59375 8.109375 
Q 21.484375 6.890625 26.8125 6.890625 
Q 36.078125 6.890625 40.9375 10.546875 
Q 45.796875 14.203125 45.796875 21.1875 
Q 45.796875 27.640625 41.28125 31.265625 
Q 36.765625 34.90625 28.71875 34.90625 
L 20.21875 34.90625 
L 20.21875 43.015625 
L 29.109375 43.015625 
Q 36.375 43.015625 40.234375 45.921875 
Q 44.09375 48.828125 44.09375 54.296875 
Q 44.09375 59.90625 40.109375 62.90625 
Q 36.140625 65.921875 28.71875 65.921875 
Q 24.65625 65.921875 20.015625 65.03125 
Q 15.375 64.15625 9.8125 62.3125 
L 9.8125 71.09375 
Q 15.4375 72.65625 20.34375 73.4375 
Q 25.25 74.21875 29.59375 74.21875 
Q 40.828125 74.21875 47.359375 69.109375 
Q 53.90625 64.015625 53.90625 55.328125 
Q 53.90625 49.265625 50.4375 45.09375 
Q 46.96875 40.921875 40.578125 39.3125 
z
" id="DejaVuSans-51"/>
      </defs>
      <g transform="translate(215.477492 308.716563)scale(0.1 -0.1)">
       <use xlink:href="#DejaVuSans-51"/>
       <use x="63.623047" xlink:href="#DejaVuSans-48"/>
       <use x="127.246094" xlink:href="#DejaVuSans-48"/>
      </g>
     </g>
    </g>
    <g id="xtick_4">
     <g id="line2d_8">
      <g>
       <use style="stroke:#000000;stroke-width:0.8;" x="297.618412" xlink:href="#m71b090a16d" y="294.118125"/>
      </g>
     </g>
     <g id="text_4">
      <!-- 400 -->
      <defs>
       <path d="M 37.796875 64.3125 
L 12.890625 25.390625 
L 37.796875 25.390625 
z
M 35.203125 72.90625 
L 47.609375 72.90625 
L 47.609375 25.390625 
L 58.015625 25.390625 
L 58.015625 17.1875 
L 47.609375 17.1875 
L 47.609375 0 
L 37.796875 0 
L 37.796875 17.1875 
L 4.890625 17.1875 
L 4.890625 26.703125 
z
" id="DejaVuSans-52"/>
      </defs>
      <g transform="translate(288.074662 308.716563)scale(0.1 -0.1)">
       <use xlink:href="#DejaVuSans-52"/>
       <use x="63.623047" xlink:href="#DejaVuSans-48"/>
       <use x="127.246094" xlink:href="#DejaVuSans-48"/>
      </g>
     </g>
    </g>
    <g id="xtick_5">
     <g id="line2d_9">
      <g>
       <use style="stroke:#000000;stroke-width:0.8;" x="370.215582" xlink:href="#m71b090a16d" y="294.118125"/>
      </g>
     </g>
     <g id="text_5">
      <!-- 500 -->
      <defs>
       <path d="M 10.796875 72.90625 
L 49.515625 72.90625 
L 49.515625 64.59375 
L 19.828125 64.59375 
L 19.828125 46.734375 
Q 21.96875 47.46875 24.109375 47.828125 
Q 26.265625 48.1875 28.421875 48.1875 
Q 40.625 48.1875 47.75 41.5 
Q 54.890625 34.8125 54.890625 23.390625 
Q 54.890625 11.625 47.5625 5.09375 
Q 40.234375 -1.421875 26.90625 -1.421875 
Q 22.3125 -1.421875 17.546875 -0.640625 
Q 12.796875 0.140625 7.71875 1.703125 
L 7.71875 11.625 
Q 12.109375 9.234375 16.796875 8.0625 
Q 21.484375 6.890625 26.703125 6.890625 
Q 35.15625 6.890625 40.078125 11.328125 
Q 45.015625 15.765625 45.015625 23.390625 
Q 45.015625 31 40.078125 35.4375 
Q 35.15625 39.890625 26.703125 39.890625 
Q 22.75 39.890625 18.8125 39.015625 
Q 14.890625 38.140625 10.796875 36.28125 
z
" id="DejaVuSans-53"/>
      </defs>
      <g transform="translate(360.671832 308.716563)scale(0.1 -0.1)">
       <use xlink:href="#DejaVuSans-53"/>
       <use x="63.623047" xlink:href="#DejaVuSans-48"/>
       <use x="127.246094" xlink:href="#DejaVuSans-48"/>
      </g>
     </g>
    </g>
    <g id="xtick_6">
     <g id="line2d_10">
      <g>
       <use style="stroke:#000000;stroke-width:0.8;" x="442.812752" xlink:href="#m71b090a16d" y="294.118125"/>
      </g>
     </g>
     <g id="text_6">
      <!-- 600 -->
      <defs>
       <path d="M 33.015625 40.375 
Q 26.375 40.375 22.484375 35.828125 
Q 18.609375 31.296875 18.609375 23.390625 
Q 18.609375 15.53125 22.484375 10.953125 
Q 26.375 6.390625 33.015625 6.390625 
Q 39.65625 6.390625 43.53125 10.953125 
Q 47.40625 15.53125 47.40625 23.390625 
Q 47.40625 31.296875 43.53125 35.828125 
Q 39.65625 40.375 33.015625 40.375 
z
M 52.59375 71.296875 
L 52.59375 62.3125 
Q 48.875 64.0625 45.09375 64.984375 
Q 41.3125 65.921875 37.59375 65.921875 
Q 27.828125 65.921875 22.671875 59.328125 
Q 17.53125 52.734375 16.796875 39.40625 
Q 19.671875 43.65625 24.015625 45.921875 
Q 28.375 48.1875 33.59375 48.1875 
Q 44.578125 48.1875 50.953125 41.515625 
Q 57.328125 34.859375 57.328125 23.390625 
Q 57.328125 12.15625 50.6875 5.359375 
Q 44.046875 -1.421875 33.015625 -1.421875 
Q 20.359375 -1.421875 13.671875 8.265625 
Q 6.984375 17.96875 6.984375 36.375 
Q 6.984375 53.65625 15.1875 63.9375 
Q 23.390625 74.21875 37.203125 74.21875 
Q 40.921875 74.21875 44.703125 73.484375 
Q 48.484375 72.75 52.59375 71.296875 
z
" id="DejaVuSans-54"/>
      </defs>
      <g transform="translate(433.269002 308.716563)scale(0.1 -0.1)">
       <use xlink:href="#DejaVuSans-54"/>
       <use x="63.623047" xlink:href="#DejaVuSans-48"/>
       <use x="127.246094" xlink:href="#DejaVuSans-48"/>
      </g>
     </g>
    </g>
    <g id="text_7">
     <!-- Tempo -->
     <defs>
      <path d="M -0.296875 72.90625 
L 61.375 72.90625 
L 61.375 64.59375 
L 35.5 64.59375 
L 35.5 0 
L 25.59375 0 
L 25.59375 64.59375 
L -0.296875 64.59375 
z
" id="DejaVuSans-84"/>
      <path d="M 56.203125 29.59375 
L 56.203125 25.203125 
L 14.890625 25.203125 
Q 15.484375 15.921875 20.484375 11.0625 
Q 25.484375 6.203125 34.421875 6.203125 
Q 39.59375 6.203125 44.453125 7.46875 
Q 49.3125 8.734375 54.109375 11.28125 
L 54.109375 2.78125 
Q 49.265625 0.734375 44.1875 -0.34375 
Q 39.109375 -1.421875 33.890625 -1.421875 
Q 20.796875 -1.421875 13.15625 6.1875 
Q 5.515625 13.8125 5.515625 26.8125 
Q 5.515625 40.234375 12.765625 48.109375 
Q 20.015625 56 32.328125 56 
Q 43.359375 56 49.78125 48.890625 
Q 56.203125 41.796875 56.203125 29.59375 
z
M 47.21875 32.234375 
Q 47.125 39.59375 43.09375 43.984375 
Q 39.0625 48.390625 32.421875 48.390625 
Q 24.90625 48.390625 20.390625 44.140625 
Q 15.875 39.890625 15.1875 32.171875 
z
" id="DejaVuSans-101"/>
      <path d="M 52 44.1875 
Q 55.375 50.25 60.0625 53.125 
Q 64.75 56 71.09375 56 
Q 79.640625 56 84.28125 50.015625 
Q 88.921875 44.046875 88.921875 33.015625 
L 88.921875 0 
L 79.890625 0 
L 79.890625 32.71875 
Q 79.890625 40.578125 77.09375 44.375 
Q 74.3125 48.1875 68.609375 48.1875 
Q 61.625 48.1875 57.5625 43.546875 
Q 53.515625 38.921875 53.515625 30.90625 
L 53.515625 0 
L 44.484375 0 
L 44.484375 32.71875 
Q 44.484375 40.625 41.703125 44.40625 
Q 38.921875 48.1875 33.109375 48.1875 
Q 26.21875 48.1875 22.15625 43.53125 
Q 18.109375 38.875 18.109375 30.90625 
L 18.109375 0 
L 9.078125 0 
L 9.078125 54.6875 
L 18.109375 54.6875 
L 18.109375 46.1875 
Q 21.1875 51.21875 25.484375 53.609375 
Q 29.78125 56 35.6875 56 
Q 41.65625 56 45.828125 52.96875 
Q 50 49.953125 52 44.1875 
z
" id="DejaVuSans-109"/>
      <path d="M 18.109375 8.203125 
L 18.109375 -20.796875 
L 9.078125 -20.796875 
L 9.078125 54.6875 
L 18.109375 54.6875 
L 18.109375 46.390625 
Q 20.953125 51.265625 25.265625 53.625 
Q 29.59375 56 35.59375 56 
Q 45.5625 56 51.78125 48.09375 
Q 58.015625 40.1875 58.015625 27.296875 
Q 58.015625 14.40625 51.78125 6.484375 
Q 45.5625 -1.421875 35.59375 -1.421875 
Q 29.59375 -1.421875 25.265625 0.953125 
Q 20.953125 3.328125 18.109375 8.203125 
z
M 48.6875 27.296875 
Q 48.6875 37.203125 44.609375 42.84375 
Q 40.53125 48.484375 33.40625 48.484375 
Q 26.265625 48.484375 22.1875 42.84375 
Q 18.109375 37.203125 18.109375 27.296875 
Q 18.109375 17.390625 22.1875 11.75 
Q 26.265625 6.109375 33.40625 6.109375 
Q 40.53125 6.109375 44.609375 11.75 
Q 48.6875 17.390625 48.6875 27.296875 
z
" id="DejaVuSans-112"/>
      <path d="M 30.609375 48.390625 
Q 23.390625 48.390625 19.1875 42.75 
Q 14.984375 37.109375 14.984375 27.296875 
Q 14.984375 17.484375 19.15625 11.84375 
Q 23.34375 6.203125 30.609375 6.203125 
Q 37.796875 6.203125 41.984375 11.859375 
Q 46.1875 17.53125 46.1875 27.296875 
Q 46.1875 37.015625 41.984375 42.703125 
Q 37.796875 48.390625 30.609375 48.390625 
z
M 30.609375 56 
Q 42.328125 56 49.015625 48.375 
Q 55.71875 40.765625 55.71875 27.296875 
Q 55.71875 13.875 49.015625 6.21875 
Q 42.328125 -1.421875 30.609375 -1.421875 
Q 18.84375 -1.421875 12.171875 6.21875 
Q 5.515625 13.875 5.515625 27.296875 
Q 5.515625 40.765625 12.171875 48.375 
Q 18.84375 56 30.609375 56 
z
" id="DejaVuSans-111"/>
     </defs>
     <g transform="translate(245.298438 322.394687)scale(0.1 -0.1)">
      <use xlink:href="#DejaVuSans-84"/>
      <use x="44.083984" xlink:href="#DejaVuSans-101"/>
      <use x="105.607422" xlink:href="#DejaVuSans-109"/>
      <use x="203.019531" xlink:href="#DejaVuSans-112"/>
      <use x="266.496094" xlink:href="#DejaVuSans-111"/>
     </g>
    </g>
   </g>
   <g id="matplotlib.axis_2">
    <g id="ytick_1">
     <g id="line2d_11">
      <defs>
       <path d="M 0 0 
L -3.5 0 
" id="m289d0cacde" style="stroke:#000000;stroke-width:0.8;"/>
      </defs>
      <g>
       <use style="stroke:#000000;stroke-width:0.8;" x="38.482813" xlink:href="#m289d0cacde" y="256.694707"/>
      </g>
     </g>
     <g id="text_8">
      <!-- −0.6 -->
      <defs>
       <path d="M 10.59375 35.5 
L 73.1875 35.5 
L 73.1875 27.203125 
L 10.59375 27.203125 
z
" id="DejaVuSans-8722"/>
       <path d="M 10.6875 12.40625 
L 21 12.40625 
L 21 0 
L 10.6875 0 
z
" id="DejaVuSans-46"/>
      </defs>
      <g transform="translate(7.2 260.493926)scale(0.1 -0.1)">
       <use xlink:href="#DejaVuSans-8722"/>
       <use x="83.789062" xlink:href="#DejaVuSans-48"/>
       <use x="147.412109" xlink:href="#DejaVuSans-46"/>
       <use x="179.199219" xlink:href="#DejaVuSans-54"/>
      </g>
     </g>
    </g>
    <g id="ytick_2">
     <g id="line2d_12">
      <g>
       <use style="stroke:#000000;stroke-width:0.8;" x="38.482813" xlink:href="#m289d0cacde" y="205.334725"/>
      </g>
     </g>
     <g id="text_9">
      <!-- −0.4 -->
      <g transform="translate(7.2 209.133943)scale(0.1 -0.1)">
       <use xlink:href="#DejaVuSans-8722"/>
       <use x="83.789062" xlink:href="#DejaVuSans-48"/>
       <use x="147.412109" xlink:href="#DejaVuSans-46"/>
       <use x="179.199219" xlink:href="#DejaVuSans-52"/>
      </g>
     </g>
    </g>
    <g id="ytick_3">
     <g id="line2d_13">
      <g>
       <use style="stroke:#000000;stroke-width:0.8;" x="38.482813" xlink:href="#m289d0cacde" y="153.974742"/>
      </g>
     </g>
     <g id="text_10">
      <!-- −0.2 -->
      <g transform="translate(7.2 157.773961)scale(0.1 -0.1)">
       <use xlink:href="#DejaVuSans-8722"/>
       <use x="83.789062" xlink:href="#DejaVuSans-48"/>
       <use x="147.412109" xlink:href="#DejaVuSans-46"/>
       <use x="179.199219" xlink:href="#DejaVuSans-50"/>
      </g>
     </g>
    </g>
    <g id="ytick_4">
     <g id="line2d_14">
      <g>
       <use style="stroke:#000000;stroke-width:0.8;" x="38.482813" xlink:href="#m289d0cacde" y="102.61476"/>
      </g>
     </g>
     <g id="text_11">
      <!-- 0.0 -->
      <g transform="translate(15.579688 106.413978)scale(0.1 -0.1)">
       <use xlink:href="#DejaVuSans-48"/>
       <use x="63.623047" xlink:href="#DejaVuSans-46"/>
       <use x="95.410156" xlink:href="#DejaVuSans-48"/>
      </g>
     </g>
    </g>
    <g id="ytick_5">
     <g id="line2d_15">
      <g>
       <use style="stroke:#000000;stroke-width:0.8;" x="38.482813" xlink:href="#m289d0cacde" y="51.254777"/>
      </g>
     </g>
     <g id="text_12">
      <!-- 0.2 -->
      <g transform="translate(15.579688 55.053996)scale(0.1 -0.1)">
       <use xlink:href="#DejaVuSans-48"/>
       <use x="63.623047" xlink:href="#DejaVuSans-46"/>
       <use x="95.410156" xlink:href="#DejaVuSans-50"/>
      </g>
     </g>
    </g>
   </g>
   <g id="patch_3">
    <path d="M 38.482813 294.118125 
L 38.482813 22.318125 
" style="fill:none;stroke:#000000;stroke-linecap:square;stroke-linejoin:miter;stroke-width:0.8;"/>
   </g>
   <g id="patch_4">
    <path d="M 38.482813 294.118125 
L 484.882812 294.118125 
" style="fill:none;stroke:#000000;stroke-linecap:square;stroke-linejoin:miter;stroke-width:0.8;"/>
   </g>
   <g id="text_13">
    <!-- Gov_Debt -->
    <defs>
     <path d="M 59.515625 10.40625 
L 59.515625 29.984375 
L 43.40625 29.984375 
L 43.40625 38.09375 
L 69.28125 38.09375 
L 69.28125 6.78125 
Q 63.578125 2.734375 56.6875 0.65625 
Q 49.8125 -1.421875 42 -1.421875 
Q 24.90625 -1.421875 15.25 8.5625 
Q 5.609375 18.5625 5.609375 36.375 
Q 5.609375 54.25 15.25 64.234375 
Q 24.90625 74.21875 42 74.21875 
Q 49.125 74.21875 55.546875 72.453125 
Q 61.96875 70.703125 67.390625 67.28125 
L 67.390625 56.78125 
Q 61.921875 61.421875 55.765625 63.765625 
Q 49.609375 66.109375 42.828125 66.109375 
Q 29.4375 66.109375 22.71875 58.640625 
Q 16.015625 51.171875 16.015625 36.375 
Q 16.015625 21.625 22.71875 14.15625 
Q 29.4375 6.6875 42.828125 6.6875 
Q 48.046875 6.6875 52.140625 7.59375 
Q 56.25 8.5 59.515625 10.40625 
z
" id="DejaVuSans-71"/>
     <path d="M 2.984375 54.6875 
L 12.5 54.6875 
L 29.59375 8.796875 
L 46.6875 54.6875 
L 56.203125 54.6875 
L 35.6875 0 
L 23.484375 0 
z
" id="DejaVuSans-118"/>
     <path d="M 50.984375 -16.609375 
L 50.984375 -23.578125 
L -0.984375 -23.578125 
L -0.984375 -16.609375 
z
" id="DejaVuSans-95"/>
     <path d="M 19.671875 64.796875 
L 19.671875 8.109375 
L 31.59375 8.109375 
Q 46.6875 8.109375 53.6875 14.9375 
Q 60.6875 21.78125 60.6875 36.53125 
Q 60.6875 51.171875 53.6875 57.984375 
Q 46.6875 64.796875 31.59375 64.796875 
z
M 9.8125 72.90625 
L 30.078125 72.90625 
Q 51.265625 72.90625 61.171875 64.09375 
Q 71.09375 55.28125 71.09375 36.53125 
Q 71.09375 17.671875 61.125 8.828125 
Q 51.171875 0 30.078125 0 
L 9.8125 0 
z
" id="DejaVuSans-68"/>
     <path d="M 48.6875 27.296875 
Q 48.6875 37.203125 44.609375 42.84375 
Q 40.53125 48.484375 33.40625 48.484375 
Q 26.265625 48.484375 22.1875 42.84375 
Q 18.109375 37.203125 18.109375 27.296875 
Q 18.109375 17.390625 22.1875 11.75 
Q 26.265625 6.109375 33.40625 6.109375 
Q 40.53125 6.109375 44.609375 11.75 
Q 48.6875 17.390625 48.6875 27.296875 
z
M 18.109375 46.390625 
Q 20.953125 51.265625 25.265625 53.625 
Q 29.59375 56 35.59375 56 
Q 45.5625 56 51.78125 48.09375 
Q 58.015625 40.1875 58.015625 27.296875 
Q 58.015625 14.40625 51.78125 6.484375 
Q 45.5625 -1.421875 35.59375 -1.421875 
Q 29.59375 -1.421875 25.265625 0.953125 
Q 20.953125 3.328125 18.109375 8.203125 
L 18.109375 0 
L 9.078125 0 
L 9.078125 75.984375 
L 18.109375 75.984375 
z
" id="DejaVuSans-98"/>
     <path d="M 18.3125 70.21875 
L 18.3125 54.6875 
L 36.8125 54.6875 
L 36.8125 47.703125 
L 18.3125 47.703125 
L 18.3125 18.015625 
Q 18.3125 11.328125 20.140625 9.421875 
Q 21.96875 7.515625 27.59375 7.515625 
L 36.8125 7.515625 
L 36.8125 0 
L 27.59375 0 
Q 17.1875 0 13.234375 3.875 
Q 9.28125 7.765625 9.28125 18.015625 
L 9.28125 47.703125 
L 2.6875 47.703125 
L 2.6875 54.6875 
L 9.28125 54.6875 
L 9.28125 70.21875 
z
" id="DejaVuSans-116"/>
    </defs>
    <g transform="translate(232.338125 16.318125)scale(0.12 -0.12)">
     <use xlink:href="#DejaVuSans-71"/>
     <use x="77.490234" xlink:href="#DejaVuSans-111"/>
     <use x="138.671875" xlink:href="#DejaVuSans-118"/>
     <use x="197.851562" xlink:href="#DejaVuSans-95"/>
     <use x="247.851562" xlink:href="#DejaVuSans-68"/>
     <use x="324.853516" xlink:href="#DejaVuSans-101"/>
     <use x="386.376953" xlink:href="#DejaVuSans-98"/>
     <use x="449.853516" xlink:href="#DejaVuSans-116"/>
    </g>
   </g>
   <g id="legend_1">
    <g id="patch_5">
     <path d="M 491.882812 190.104844 
L 566.28125 190.104844 
Q 568.28125 190.104844 568.28125 188.104844 
L 568.28125 128.331406 
Q 568.28125 126.331406 566.28125 126.331406 
L 491.882812 126.331406 
Q 489.882812 126.331406 489.882812 128.331406 
L 489.882812 188.104844 
Q 489.882812 190.104844 491.882812 190.104844 
z
" style="fill:#ffffff;opacity:0.8;stroke:#cccccc;stroke-linejoin:miter;"/>
    </g>
    <g id="line2d_16">
     <path d="M 493.882812 134.429844 
L 513.882812 134.429844 
" style="fill:none;stroke:#000000;stroke-dasharray:3.7,1.6;stroke-dashoffset:0;"/>
    </g>
    <g id="line2d_17"/>
    <g id="text_14">
     <!-- Baseline -->
     <defs>
      <path d="M 19.671875 34.8125 
L 19.671875 8.109375 
L 35.5 8.109375 
Q 43.453125 8.109375 47.28125 11.40625 
Q 51.125 14.703125 51.125 21.484375 
Q 51.125 28.328125 47.28125 31.5625 
Q 43.453125 34.8125 35.5 34.8125 
z
M 19.671875 64.796875 
L 19.671875 42.828125 
L 34.28125 42.828125 
Q 41.5 42.828125 45.03125 45.53125 
Q 48.578125 48.25 48.578125 53.8125 
Q 48.578125 59.328125 45.03125 62.0625 
Q 41.5 64.796875 34.28125 64.796875 
z
M 9.8125 72.90625 
L 35.015625 72.90625 
Q 46.296875 72.90625 52.390625 68.21875 
Q 58.5 63.53125 58.5 54.890625 
Q 58.5 48.1875 55.375 44.234375 
Q 52.25 40.28125 46.1875 39.3125 
Q 53.46875 37.75 57.5 32.78125 
Q 61.53125 27.828125 61.53125 20.40625 
Q 61.53125 10.640625 54.890625 5.3125 
Q 48.25 0 35.984375 0 
L 9.8125 0 
z
" id="DejaVuSans-66"/>
      <path d="M 34.28125 27.484375 
Q 23.390625 27.484375 19.1875 25 
Q 14.984375 22.515625 14.984375 16.5 
Q 14.984375 11.71875 18.140625 8.90625 
Q 21.296875 6.109375 26.703125 6.109375 
Q 34.1875 6.109375 38.703125 11.40625 
Q 43.21875 16.703125 43.21875 25.484375 
L 43.21875 27.484375 
z
M 52.203125 31.203125 
L 52.203125 0 
L 43.21875 0 
L 43.21875 8.296875 
Q 40.140625 3.328125 35.546875 0.953125 
Q 30.953125 -1.421875 24.3125 -1.421875 
Q 15.921875 -1.421875 10.953125 3.296875 
Q 6 8.015625 6 15.921875 
Q 6 25.140625 12.171875 29.828125 
Q 18.359375 34.515625 30.609375 34.515625 
L 43.21875 34.515625 
L 43.21875 35.40625 
Q 43.21875 41.609375 39.140625 45 
Q 35.0625 48.390625 27.6875 48.390625 
Q 23 48.390625 18.546875 47.265625 
Q 14.109375 46.140625 10.015625 43.890625 
L 10.015625 52.203125 
Q 14.9375 54.109375 19.578125 55.046875 
Q 24.21875 56 28.609375 56 
Q 40.484375 56 46.34375 49.84375 
Q 52.203125 43.703125 52.203125 31.203125 
z
" id="DejaVuSans-97"/>
      <path d="M 44.28125 53.078125 
L 44.28125 44.578125 
Q 40.484375 46.53125 36.375 47.5 
Q 32.28125 48.484375 27.875 48.484375 
Q 21.1875 48.484375 17.84375 46.4375 
Q 14.5 44.390625 14.5 40.28125 
Q 14.5 37.15625 16.890625 35.375 
Q 19.28125 33.59375 26.515625 31.984375 
L 29.59375 31.296875 
Q 39.15625 29.25 43.1875 25.515625 
Q 47.21875 21.78125 47.21875 15.09375 
Q 47.21875 7.46875 41.1875 3.015625 
Q 35.15625 -1.421875 24.609375 -1.421875 
Q 20.21875 -1.421875 15.453125 -0.5625 
Q 10.6875 0.296875 5.421875 2 
L 5.421875 11.28125 
Q 10.40625 8.6875 15.234375 7.390625 
Q 20.0625 6.109375 24.8125 6.109375 
Q 31.15625 6.109375 34.5625 8.28125 
Q 37.984375 10.453125 37.984375 14.40625 
Q 37.984375 18.0625 35.515625 20.015625 
Q 33.0625 21.96875 24.703125 23.78125 
L 21.578125 24.515625 
Q 13.234375 26.265625 9.515625 29.90625 
Q 5.8125 33.546875 5.8125 39.890625 
Q 5.8125 47.609375 11.28125 51.796875 
Q 16.75 56 26.8125 56 
Q 31.78125 56 36.171875 55.265625 
Q 40.578125 54.546875 44.28125 53.078125 
z
" id="DejaVuSans-115"/>
      <path d="M 9.421875 75.984375 
L 18.40625 75.984375 
L 18.40625 0 
L 9.421875 0 
z
" id="DejaVuSans-108"/>
      <path d="M 9.421875 54.6875 
L 18.40625 54.6875 
L 18.40625 0 
L 9.421875 0 
z
M 9.421875 75.984375 
L 18.40625 75.984375 
L 18.40625 64.59375 
L 9.421875 64.59375 
z
" id="DejaVuSans-105"/>
      <path d="M 54.890625 33.015625 
L 54.890625 0 
L 45.90625 0 
L 45.90625 32.71875 
Q 45.90625 40.484375 42.875 44.328125 
Q 39.84375 48.1875 33.796875 48.1875 
Q 26.515625 48.1875 22.3125 43.546875 
Q 18.109375 38.921875 18.109375 30.90625 
L 18.109375 0 
L 9.078125 0 
L 9.078125 54.6875 
L 18.109375 54.6875 
L 18.109375 46.1875 
Q 21.34375 51.125 25.703125 53.5625 
Q 30.078125 56 35.796875 56 
Q 45.21875 56 50.046875 50.171875 
Q 54.890625 44.34375 54.890625 33.015625 
z
" id="DejaVuSans-110"/>
     </defs>
     <g transform="translate(521.882812 137.929844)scale(0.1 -0.1)">
      <use xlink:href="#DejaVuSans-66"/>
      <use x="68.603516" xlink:href="#DejaVuSans-97"/>
      <use x="129.882812" xlink:href="#DejaVuSans-115"/>
      <use x="181.982422" xlink:href="#DejaVuSans-101"/>
      <use x="243.505859" xlink:href="#DejaVuSans-108"/>
      <use x="271.289062" xlink:href="#DejaVuSans-105"/>
      <use x="299.072266" xlink:href="#DejaVuSans-110"/>
      <use x="362.451172" xlink:href="#DejaVuSans-101"/>
     </g>
    </g>
    <g id="line2d_18">
     <path d="M 493.882812 149.107969 
L 513.882812 149.107969 
" style="fill:none;stroke:#1f77b4;stroke-linecap:square;stroke-width:1.5;"/>
    </g>
    <g id="line2d_19"/>
    <g id="text_15">
     <!-- $\Downarrow \sigma_\psi$ -->
     <defs>
      <path d="M 36.765625 14.3125 
L 41.9375 9.234375 
L 47.015625 14.3125 
L 47.015625 72.90625 
L 52.875 72.90625 
L 52.875 20.171875 
L 57.46875 24.75 
L 63.328125 18.890625 
L 44.09375 -0.34375 
L 39.703125 -0.34375 
L 20.5625 18.890625 
L 26.421875 24.75 
L 30.90625 20.171875 
L 30.90625 72.90625 
L 36.765625 72.90625 
z
" id="DejaVuSans-8659"/>
      <path d="M 34.671875 47.5625 
Q 27.25 47.5625 22.21875 42.1875 
Q 16.890625 36.578125 15.140625 27.296875 
Q 13.1875 17.484375 16.3125 11.8125 
Q 19.390625 6.203125 26.65625 6.203125 
Q 33.84375 6.203125 39.109375 11.859375 
Q 44.4375 17.53125 46.34375 27.296875 
Q 48.046875 36.234375 45.015625 42.1875 
Q 42.1875 47.5625 34.671875 47.5625 
z
M 36.078125 54.734375 
L 65.921875 54.6875 
L 64.15625 45.703125 
L 54.109375 45.703125 
Q 57.90625 38.09375 55.859375 27.296875 
Q 53.21875 13.875 45.0625 6.25 
Q 36.859375 -1.421875 25.140625 -1.421875 
Q 13.375 -1.421875 8.203125 6.25 
Q 3.03125 13.875 5.671875 27.296875 
Q 8.25 40.765625 16.40625 48.390625 
Q 23.1875 54.734375 36.078125 54.734375 
z
" id="DejaVuSans-Oblique-963"/>
      <path d="M 24.859375 -1.21875 
Q 13.921875 0.59375 9.625 5.328125 
Q 4.34375 11.140625 6.640625 23 
L 12.796875 54.6875 
L 21.875 54.6875 
L 15.765625 23.34375 
Q 14.0625 14.40625 17.484375 10.6875 
Q 20.515625 7.46875 26.421875 6.78125 
L 35.6875 54.6875 
L 44.625 54.6875 
L 35.359375 6.84375 
Q 41.890625 7.515625 45.75 10.75 
Q 50.734375 14.84375 52.390625 23.390625 
L 58.453125 54.6875 
L 67.53125 54.6875 
L 61.375 23.046875 
Q 58.984375 10.75 51.5625 5.375 
Q 44.875 0.53125 33.796875 -1.171875 
L 29.984375 -20.796875 
L 21.046875 -20.796875 
z
" id="DejaVuSans-Oblique-968"/>
     </defs>
     <g transform="translate(521.882812 152.607969)scale(0.1 -0.1)">
      <use transform="translate(19.482422 0.09375)" xlink:href="#DejaVuSans-8659"/>
      <use transform="translate(122.753906 0.09375)" xlink:href="#DejaVuSans-Oblique-963"/>
      <use transform="translate(186.132812 -16.3125)scale(0.7)" xlink:href="#DejaVuSans-Oblique-968"/>
     </g>
    </g>
    <g id="line2d_20">
     <path d="M 493.882812 164.806406 
L 513.882812 164.806406 
" style="fill:none;stroke:#ff7f0e;stroke-linecap:square;stroke-width:1.5;"/>
    </g>
    <g id="line2d_21"/>
    <g id="text_16">
     <!-- $\Downarrow s_\psi$ -->
     <defs>
      <path d="M 50 53.078125 
L 48.296875 44.578125 
Q 44.734375 46.53125 40.765625 47.5 
Q 36.8125 48.484375 32.625 48.484375 
Q 25.53125 48.484375 21.453125 46.0625 
Q 17.390625 43.65625 17.390625 39.5 
Q 17.390625 34.671875 26.859375 32.078125 
Q 27.59375 31.890625 27.9375 31.78125 
L 30.8125 30.90625 
Q 39.796875 28.421875 42.796875 25.6875 
Q 45.796875 22.953125 45.796875 18.21875 
Q 45.796875 9.515625 38.890625 4.046875 
Q 31.984375 -1.421875 20.796875 -1.421875 
Q 16.453125 -1.421875 11.671875 -0.578125 
Q 6.890625 0.25 1.125 2 
L 2.875 11.28125 
Q 7.8125 8.734375 12.59375 7.421875 
Q 17.390625 6.109375 21.78125 6.109375 
Q 28.375 6.109375 32.5 8.9375 
Q 36.625 11.765625 36.625 16.109375 
Q 36.625 20.796875 25.78125 23.6875 
L 24.859375 23.921875 
L 21.78125 24.703125 
Q 14.9375 26.515625 11.765625 29.46875 
Q 8.59375 32.421875 8.59375 37.015625 
Q 8.59375 45.75 15.15625 50.875 
Q 21.734375 56 33.015625 56 
Q 37.453125 56 41.671875 55.265625 
Q 45.90625 54.546875 50 53.078125 
z
" id="DejaVuSans-Oblique-115"/>
     </defs>
     <g transform="translate(521.882812 168.306406)scale(0.1 -0.1)">
      <use transform="translate(19.482422 0.09375)" xlink:href="#DejaVuSans-8659"/>
      <use transform="translate(122.753906 0.09375)" xlink:href="#DejaVuSans-Oblique-115"/>
      <use transform="translate(174.853516 -16.3125)scale(0.7)" xlink:href="#DejaVuSans-Oblique-968"/>
     </g>
    </g>
    <g id="line2d_22">
     <path d="M 493.882812 180.504844 
L 513.882812 180.504844 
" style="fill:none;stroke:#2ca02c;stroke-linecap:square;stroke-width:1.5;"/>
    </g>
    <g id="line2d_23"/>
    <g id="text_17">
     <!-- $\Uparrow \eta$ -->
     <defs>
      <path d="M 36.765625 58.59375 
L 36.765625 0 
L 30.90625 0 
L 30.90625 52.734375 
L 26.421875 48.140625 
L 20.5625 54 
L 39.703125 73.25 
L 44.09375 73.25 
L 63.328125 54 
L 57.46875 48.140625 
L 52.875 52.734375 
L 52.875 0 
L 47.015625 0 
L 47.015625 58.59375 
L 41.9375 63.671875 
z
" id="DejaVuSans-8657"/>
      <path d="M 57.859375 33.015625 
L 47.40625 -20.796875 
L 38.421875 -20.796875 
L 48.828125 32.71875 
Q 50.34375 40.484375 48.046875 44.34375 
Q 45.796875 48.1875 39.75 48.1875 
Q 32.46875 48.1875 27.34375 43.5625 
Q 22.265625 38.921875 20.703125 30.90625 
L 14.703125 0 
L 5.671875 0 
L 16.3125 54.6875 
L 25.34375 54.6875 
L 23.6875 46.1875 
Q 27.828125 51.125 32.71875 53.5625 
Q 37.546875 56 43.265625 56 
Q 52.6875 56 56.390625 50.203125 
Q 60.0625 44.34375 57.859375 33.015625 
z
" id="DejaVuSans-Oblique-951"/>
     </defs>
     <g transform="translate(521.882812 184.004844)scale(0.1 -0.1)">
      <use transform="translate(19.482422 0.75)" xlink:href="#DejaVuSans-8657"/>
      <use transform="translate(122.753906 0.75)" xlink:href="#DejaVuSans-Oblique-951"/>
     </g>
    </g>
   </g>
  </g>
 </g>
 <defs>
  <clipPath id="p375b06b429">
   <rect height="271.8" width="446.4" x="38.482813" y="22.318125"/>
  </clipPath>
 </defs>
</svg>
