<?xml version="1.0" encoding="utf-8" standalone="no"?>
<!DOCTYPE svg PUBLIC "-//W3C//DTD SVG 1.1//EN"
  "http://www.w3.org/Graphics/SVG/1.1/DTD/svg11.dtd">
<!-- Created with matplotlib (https://matplotlib.org/) -->
<svg height="331.674375pt" version="1.1" viewBox="0 0 573.464062 331.674375" width="573.464062pt" xmlns="http://www.w3.org/2000/svg" xmlns:xlink="http://www.w3.org/1999/xlink">
 <defs>
  <style type="text/css">
*{stroke-linecap:butt;stroke-linejoin:round;}
  </style>
 </defs>
 <g id="figure_1">
  <g id="patch_1">
   <path d="M 0 331.674375 
L 573.464062 331.674375 
L 573.464062 0 
L 0 0 
z
" style="fill:#ffffff;"/>
  </g>
  <g id="axes_1">
   <g id="patch_2">
    <path d="M 36.465625 294.118125 
L 482.865625 294.118125 
L 482.865625 22.318125 
L 36.465625 22.318125 
z
" style="fill:#ffffff;"/>
   </g>
   <g id="line2d_1">
    <path clip-path="url(#p0d4c115770)" d="M 56.756534 171.975668 
L 57.482506 150.529376 
L 58.208477 53.547114 
L 58.934449 129.08751 
L 59.660421 138.239273 
L 60.386393 174.320964 
L 61.112364 189.988134 
L 61.838336 161.735773 
L 62.564308 116.233027 
L 63.290279 184.750583 
L 64.016251 56.73172 
L 64.742223 116.460602 
L 65.468195 202.162187 
L 66.194166 138.651309 
L 66.920138 61.455185 
L 67.64611 68.414474 
L 68.372081 89.245342 
L 69.098053 57.598282 
L 69.824025 103.507179 
L 70.549996 51.391496 
L 71.275968 51.514865 
L 72.00194 152.942664 
L 72.727912 56.920908 
L 73.453883 108.629185 
L 74.179855 151.056195 
L 74.905827 132.768612 
L 75.631798 136.437689 
L 76.35777 168.259713 
L 77.083742 55.647208 
L 77.809713 122.396642 
L 78.535685 54.012957 
L 79.261657 49.126272 
L 79.987629 47.096566 
L 81.439572 112.109966 
L 82.165544 183.846663 
L 82.891515 191.472082 
L 83.617487 60.174195 
L 84.343459 58.298214 
L 85.06943 49.468501 
L 85.795402 83.722428 
L 86.521374 58.250628 
L 87.247346 57.525861 
L 87.973317 130.434968 
L 88.699289 136.611212 
L 89.425261 54.268224 
L 90.151232 63.583685 
L 90.877204 42.365457 
L 91.603176 54.071271 
L 92.329148 132.455648 
L 93.055119 43.537572 
L 94.507063 93.25161 
L 95.233034 60.212128 
L 95.959006 68.74744 
L 96.684978 66.299334 
L 97.410949 118.280071 
L 98.136921 152.599897 
L 98.862893 141.551481 
L 99.588865 154.429514 
L 100.314836 174.182061 
L 101.040808 129.709567 
L 101.76678 48.401841 
L 102.492751 69.262543 
L 103.218723 51.426367 
L 103.944695 123.036714 
L 105.396638 153.550606 
L 106.12261 208.172811 
L 106.848582 191.086543 
L 107.574553 181.590667 
L 108.300525 202.370986 
L 109.026497 57.637954 
L 109.752468 122.68485 
L 110.47844 138.010186 
L 111.204412 230.402964 
L 111.930383 215.96298 
L 112.656355 112.226644 
L 113.382327 98.21748 
L 114.108299 157.544901 
L 114.83427 98.657914 
L 115.560242 55.06692 
L 116.286214 116.874669 
L 117.012185 211.58947 
L 117.738157 205.268746 
L 118.464129 46.682435 
L 119.190101 81.378768 
L 119.916072 126.902205 
L 120.642044 51.252993 
L 121.368016 101.373362 
L 122.093987 123.353833 
L 122.819959 130.326185 
L 123.545931 159.871387 
L 124.997874 203.069579 
L 125.723846 177.540918 
L 126.449818 136.704184 
L 127.175789 117.098779 
L 127.901761 48.479003 
L 128.627733 58.691173 
L 129.353704 134.069537 
L 130.079676 125.275534 
L 130.805648 161.435918 
L 131.531619 162.783109 
L 132.257591 60.710763 
L 132.983563 67.692993 
L 133.709535 166.131432 
L 134.435506 183.414379 
L 135.161478 113.154408 
L 135.88745 149.609008 
L 136.613421 140.927806 
L 137.339393 149.345104 
L 138.065365 45.420034 
L 138.791336 63.888696 
L 140.24328 125.285701 
L 140.969252 197.394312 
L 141.695223 42.578389 
L 142.421195 59.849904 
L 143.873138 141.739926 
L 144.59911 153.022393 
L 145.325082 173.502941 
L 146.051054 132.539909 
L 146.777025 177.949037 
L 147.502997 210.116526 
L 148.228969 178.426779 
L 148.95494 212.939408 
L 149.680912 181.583603 
L 150.406884 190.521796 
L 151.132855 141.445482 
L 151.858827 160.928911 
L 152.584799 42.804763 
L 153.310771 116.847747 
L 154.036742 226.019258 
L 154.762714 210.728825 
L 155.488686 107.715647 
L 156.214657 118.091656 
L 156.940629 140.278696 
L 157.666601 216.603294 
L 158.392572 129.684203 
L 159.118544 136.959882 
L 159.844516 175.553895 
L 160.570488 116.533896 
L 161.296459 166.946123 
L 162.022431 178.648701 
L 162.748403 205.804085 
L 163.474374 60.296494 
L 164.200346 51.092684 
L 164.926318 60.694539 
L 165.652289 56.864646 
L 166.378261 95.03323 
L 167.104233 187.518764 
L 167.830205 157.90616 
L 168.556176 41.715813 
L 169.282148 59.304377 
L 170.00812 68.818436 
L 171.460063 192.189336 
L 172.186035 131.497551 
L 172.912007 119.609425 
L 173.637978 142.646983 
L 174.36395 185.949254 
L 175.089922 115.723725 
L 175.815893 121.327556 
L 176.541865 118.557151 
L 177.267837 136.510553 
L 177.993808 121.61948 
L 178.71978 175.439118 
L 179.445752 121.128342 
L 180.171724 56.680147 
L 180.897695 66.497853 
L 181.623667 99.879264 
L 182.349639 174.513755 
L 183.07561 208.918905 
L 183.801582 172.619816 
L 184.527554 210.933716 
L 185.253525 117.793074 
L 185.979497 161.910135 
L 186.705469 121.159343 
L 188.157412 191.841056 
L 188.883384 113.007055 
L 189.609356 161.849087 
L 190.335327 112.984042 
L 191.061299 152.176252 
L 191.787271 137.235053 
L 192.513242 153.41174 
L 193.239214 175.307644 
L 193.965186 122.914308 
L 194.691158 113.465717 
L 195.417129 108.18216 
L 196.143101 180.040408 
L 196.869073 153.679785 
L 197.595044 154.582424 
L 198.321016 58.681383 
L 199.046988 85.832338 
L 199.77296 219.585281 
L 200.498931 211.799816 
L 201.224903 187.719287 
L 201.950875 190.208916 
L 202.676846 122.5155 
L 203.402818 152.924851 
L 204.12879 37.445184 
L 204.854761 65.516778 
L 205.580733 114.184118 
L 206.306705 187.334988 
L 207.032677 113.034423 
L 207.758648 52.071581 
L 208.48462 65.767998 
L 209.210592 164.911004 
L 209.936563 57.714375 
L 210.662535 71.476269 
L 211.388507 101.03503 
L 212.114478 182.946765 
L 212.84045 194.55359 
L 213.566422 169.934288 
L 214.292394 114.594161 
L 215.018365 69.510645 
L 215.744337 164.750412 
L 216.470309 194.866762 
L 217.19628 145.646841 
L 217.922252 179.402326 
L 218.648224 177.873201 
L 219.374195 180.569712 
L 220.100167 137.720468 
L 220.826139 171.457357 
L 221.552111 186.747699 
L 223.004054 58.50139 
L 224.455997 159.059464 
L 225.181969 57.74847 
L 225.907941 56.27684 
L 226.633913 84.55988 
L 227.359884 164.620215 
L 228.085856 42.248285 
L 228.811828 72.683346 
L 229.537799 48.956404 
L 230.263771 132.243438 
L 230.989743 197.926919 
L 231.715714 59.996125 
L 232.441686 69.649937 
L 233.167658 96.238838 
L 233.89363 58.536491 
L 234.619601 105.802337 
L 235.345573 114.823994 
L 236.071545 169.587852 
L 236.797516 139.95951 
L 237.523488 53.766249 
L 238.24946 58.337668 
L 238.975431 140.163623 
L 239.701403 194.635199 
L 240.427375 176.451027 
L 241.153347 117.422629 
L 241.879318 112.379835 
L 242.60529 43.689109 
L 243.331262 107.123458 
L 244.057233 147.073035 
L 244.783205 43.960666 
L 245.509177 83.270032 
L 246.235148 166.05074 
L 246.96112 56.34074 
L 247.687092 110.979652 
L 248.413064 40.476374 
L 249.139035 54.366656 
L 249.865007 50.627299 
L 250.590979 138.484554 
L 251.31695 146.608134 
L 252.042922 60.700827 
L 252.768894 110.656449 
L 253.494866 181.844768 
L 254.220837 175.618142 
L 254.946809 158.217029 
L 256.398752 62.047302 
L 257.124724 104.812405 
L 257.850696 107.531995 
L 258.576667 125.931312 
L 259.302639 93.008253 
L 260.028611 44.303451 
L 260.754583 81.553168 
L 261.480554 60.774722 
L 262.206526 101.456237 
L 262.932498 162.46932 
L 263.658469 185.958522 
L 264.384441 175.171094 
L 265.110413 57.409939 
L 265.836384 58.839856 
L 266.562356 133.728804 
L 267.288328 124.007517 
L 268.0143 99.000553 
L 268.740271 128.69209 
L 269.466243 108.387006 
L 270.192215 178.183866 
L 270.918186 179.879108 
L 271.644158 199.11918 
L 272.37013 138.253093 
L 273.096102 47.845078 
L 273.822073 112.72426 
L 274.548045 109.727294 
L 275.274017 100.77041 
L 275.999988 148.850062 
L 276.72596 141.665022 
L 277.451932 175.96415 
L 278.177903 177.196938 
L 278.903875 212.970037 
L 279.629847 204.312323 
L 280.355819 182.530484 
L 281.08179 74.456267 
L 281.807762 48.082737 
L 282.533734 68.119595 
L 283.259705 56.182646 
L 283.985677 54.49727 
L 284.711649 104.297614 
L 285.43762 45.903283 
L 286.163592 61.569234 
L 286.889564 123.681197 
L 287.615536 89.044866 
L 288.341507 111.203353 
L 289.067479 51.300535 
L 289.793451 120.335198 
L 290.519422 177.751013 
L 291.245394 81.697867 
L 291.971366 151.121975 
L 292.697337 120.99191 
L 293.423309 157.052962 
L 294.149281 173.580451 
L 294.875253 150.345471 
L 295.601224 173.34063 
L 296.327196 159.587926 
L 297.053168 57.799962 
L 298.505111 173.99533 
L 299.231083 107.925972 
L 299.957055 97.769227 
L 300.683026 95.916726 
L 301.408998 171.1245 
L 302.13497 171.893525 
L 302.860941 132.525381 
L 303.586913 136.622694 
L 304.312885 108.126326 
L 305.038856 55.066906 
L 305.764828 50.378355 
L 306.4908 57.903963 
L 307.216772 121.248648 
L 307.942743 137.372057 
L 308.668715 146.035209 
L 309.394687 54.967712 
L 310.120658 99.699182 
L 310.84663 156.42855 
L 312.298573 105.915814 
L 313.024545 58.974932 
L 313.750517 125.391243 
L 314.476489 138.619547 
L 315.20246 158.640309 
L 315.928432 77.699805 
L 316.654404 155.886306 
L 317.380375 39.801567 
L 318.106347 104.741308 
L 318.832319 130.945229 
L 319.55829 109.03405 
L 320.284262 60.611003 
L 321.010234 113.910908 
L 321.736206 108.275128 
L 322.462177 166.437377 
L 323.188149 58.166447 
L 323.914121 57.896392 
L 324.640092 55.007495 
L 325.366064 61.997819 
L 326.092036 83.475569 
L 326.818008 55.027433 
L 328.269951 129.949297 
L 328.995923 122.541608 
L 329.721894 46.043716 
L 330.447866 132.096524 
L 331.173838 160.355622 
L 331.899809 59.321329 
L 332.625781 81.435708 
L 333.351753 137.043892 
L 334.077725 93.112609 
L 334.803696 105.039046 
L 335.529668 43.541174 
L 336.25564 69.027254 
L 336.981611 127.823492 
L 337.707583 102.330851 
L 338.433555 52.238872 
L 339.159526 71.756588 
L 339.885498 131.787898 
L 340.61147 149.508919 
L 341.337442 47.146355 
L 342.063413 62.299166 
L 342.789385 89.33535 
L 343.515357 76.405932 
L 344.241328 168.822009 
L 344.9673 35.551042 
L 345.693272 101.202769 
L 346.419243 47.305273 
L 347.145215 56.750987 
L 347.871187 69.367057 
L 348.597159 79.171496 
L 349.32313 150.186105 
L 350.049102 145.432866 
L 350.775074 43.715533 
L 351.501045 121.761523 
L 352.227017 159.140367 
L 352.952989 54.609115 
L 353.678961 117.975066 
L 354.404932 47.411254 
L 355.130904 136.120477 
L 355.856876 145.133936 
L 356.582847 76.05604 
L 357.308819 103.812564 
L 358.034791 137.912933 
L 358.760762 65.038382 
L 359.486734 103.994478 
L 360.212706 43.700074 
L 360.938678 98.503359 
L 361.664649 62.975672 
L 362.390621 58.450601 
L 363.116593 67.283435 
L 363.842564 130.479586 
L 364.568536 103.629631 
L 365.294508 117.379533 
L 366.020479 114.649827 
L 366.746451 101.255571 
L 367.472423 84.303344 
L 368.198395 48.084918 
L 368.924366 62.584776 
L 369.650338 118.520691 
L 370.37631 63.258243 
L 371.102281 121.599565 
L 371.828253 117.967389 
L 372.554225 51.691743 
L 373.280196 111.741424 
L 374.006168 44.977034 
L 374.73214 67.330924 
L 375.458112 136.382024 
L 376.184083 93.863416 
L 376.910055 77.519602 
L 377.636027 129.760857 
L 378.361998 171.652199 
L 379.08797 104.269558 
L 379.813942 145.409537 
L 380.539914 49.066388 
L 381.265885 72.974042 
L 381.991857 52.53074 
L 382.717829 134.522064 
L 383.4438 101.970911 
L 384.169772 44.170927 
L 384.895744 60.009614 
L 385.621715 59.557934 
L 386.347687 59.296036 
L 387.073659 112.873074 
L 387.799631 64.327203 
L 388.525602 98.130575 
L 389.251574 145.354245 
L 389.977546 116.079583 
L 390.703517 102.343232 
L 391.429489 92.561825 
L 392.155461 61.048262 
L 392.881432 99.068995 
L 393.607404 81.437609 
L 394.333376 111.956562 
L 395.059348 91.840139 
L 395.785319 115.450505 
L 396.511291 46.149379 
L 397.237263 60.83822 
L 397.963234 65.232393 
L 398.689206 124.856095 
L 399.415178 92.684566 
L 400.141149 142.764988 
L 400.867121 61.648516 
L 401.593093 122.663307 
L 402.319065 65.197325 
L 403.045036 114.978827 
L 403.771008 93.471366 
L 404.49698 112.642614 
L 405.222951 69.86496 
L 405.948923 65.773144 
L 406.674895 55.64326 
L 407.400867 118.827554 
L 408.126838 50.107649 
L 408.85281 71.481145 
L 409.578782 62.929132 
L 410.304753 96.046514 
L 411.030725 96.22329 
L 411.756697 65.947216 
L 412.482668 65.045931 
L 413.20864 78.397679 
L 413.934612 58.397447 
L 414.660584 100.36348 
L 415.386555 54.537967 
L 416.112527 141.598088 
L 416.838499 51.368702 
L 417.56447 71.527013 
L 418.290442 113.71181 
L 419.016414 99.207778 
L 419.742385 91.030829 
L 420.468357 69.130532 
L 421.194329 107.800584 
L 421.920301 58.124797 
L 422.646272 76.871127 
L 423.372244 99.241052 
L 424.098216 74.643247 
L 424.824187 77.681851 
L 425.550159 77.191301 
L 426.276131 118.353736 
L 427.002102 71.035735 
L 427.728074 126.160728 
L 428.454046 68.587207 
L 429.180018 125.782639 
L 429.905989 110.012513 
L 430.631961 101.546623 
L 431.357933 87.28076 
L 432.083904 67.032438 
L 432.809876 127.354993 
L 433.535848 98.723345 
L 434.26182 93.342115 
L 434.987791 119.996935 
L 435.713763 90.921482 
L 436.439735 107.151878 
L 437.165706 64.565143 
L 437.891678 82.128405 
L 438.61765 73.685404 
L 439.343621 74.819276 
L 440.069593 81.000324 
L 440.795565 73.164191 
L 441.521537 112.847977 
L 442.247508 78.333092 
L 442.97348 124.502936 
L 443.699452 65.079925 
L 444.425423 127.706 
L 445.151395 102.965844 
L 445.877367 68.465159 
L 446.603338 74.619156 
L 447.32931 76.380513 
L 448.055282 118.365748 
L 448.781254 79.345961 
L 449.507225 100.644801 
L 450.233197 104.710689 
L 450.959169 85.017478 
L 451.68514 83.774977 
L 452.411112 122.700863 
L 453.137084 82.181966 
L 453.863055 92.658069 
L 454.589027 80.937788 
L 455.314999 164.788656 
L 456.040971 148.929683 
L 456.766942 69.08947 
L 457.492914 95.579934 
L 458.218886 89.251174 
L 458.944857 128.838388 
L 459.670829 111.986986 
L 460.396801 82.307476 
L 461.122773 94.544055 
L 461.848744 85.745795 
L 462.574716 81.009177 
L 462.574716 81.009177 
" style="fill:none;stroke:#1f77b4;stroke-linecap:square;stroke-width:1.5;"/>
   </g>
   <g id="line2d_2">
    <path clip-path="url(#p0d4c115770)" d="M 56.756534 112.881611 
L 57.482506 131.513922 
L 58.208477 78.005931 
L 58.934449 164.270104 
L 59.660421 194.278631 
L 61.112364 114.63129 
L 61.838336 102.953985 
L 62.564308 46.809563 
L 63.290279 49.585844 
L 64.016251 144.400625 
L 64.742223 91.890563 
L 65.468195 107.843272 
L 66.194166 134.219902 
L 66.920138 138.32435 
L 67.64611 189.16228 
L 68.372081 208.784486 
L 69.098053 209.743279 
L 69.824025 58.623424 
L 70.549996 92.988917 
L 71.275968 115.723535 
L 72.00194 149.89775 
L 72.727912 131.087614 
L 73.453883 223.149075 
L 74.179855 170.667353 
L 74.905827 58.36233 
L 75.631798 53.2104 
L 76.35777 34.751962 
L 77.083742 134.352997 
L 77.809713 57.91288 
L 78.535685 37.51882 
L 79.261657 81.778869 
L 79.987629 95.112306 
L 80.7136 43.694945 
L 81.439572 113.852461 
L 82.165544 165.570628 
L 82.891515 135.622806 
L 83.617487 169.336037 
L 84.343459 112.44431 
L 85.06943 191.838536 
L 85.795402 211.146737 
L 86.521374 121.09599 
L 87.247346 164.76801 
L 87.973317 228.097274 
L 88.699289 254.946628 
L 89.425261 178.317164 
L 90.151232 116.953064 
L 90.877204 127.317996 
L 91.603176 37.203475 
L 92.329148 71.574627 
L 93.055119 38.620384 
L 93.781091 102.92697 
L 94.507063 132.789441 
L 95.233034 121.51314 
L 95.959006 45.444439 
L 96.684978 81.838577 
L 97.410949 104.0485 
L 98.136921 119.518623 
L 98.862893 137.80706 
L 99.588865 183.594069 
L 100.314836 193.211122 
L 101.040808 177.570602 
L 101.76678 108.548999 
L 103.218723 43.599447 
L 103.944695 154.953744 
L 104.670666 142.682879 
L 105.396638 91.072992 
L 106.12261 160.192975 
L 106.848582 165.624741 
L 107.574553 109.46742 
L 108.300525 219.31569 
L 109.026497 177.653844 
L 109.752468 174.782216 
L 110.47844 145.328855 
L 111.204412 49.723653 
L 111.930383 97.941192 
L 112.656355 207.321932 
L 113.382327 52.777825 
L 114.108299 102.031732 
L 114.83427 42.076395 
L 115.560242 106.640928 
L 116.286214 196.066815 
L 117.012185 201.563263 
L 117.738157 147.983771 
L 118.464129 190.419306 
L 119.190101 45.222387 
L 119.916072 45.770477 
L 120.642044 124.667579 
L 122.093987 56.662645 
L 122.819959 104.199774 
L 123.545931 84.756572 
L 124.271902 55.019025 
L 124.997874 63.804807 
L 125.723846 83.447023 
L 126.449818 142.506575 
L 127.901761 173.003088 
L 128.627733 107.266214 
L 129.353704 153.514729 
L 130.079676 92.751582 
L 130.805648 45.150836 
L 131.531619 84.355093 
L 132.257591 176.118778 
L 132.983563 163.093103 
L 133.709535 165.853881 
L 134.435506 163.097685 
L 135.161478 177.426243 
L 135.88745 131.42522 
L 136.613421 181.497196 
L 137.339393 130.670896 
L 138.065365 158.950055 
L 138.791336 253.556426 
L 139.517308 203.88314 
L 140.24328 229.044549 
L 140.969252 248.515719 
L 141.695223 172.161169 
L 143.147167 205.894047 
L 143.873138 185.300208 
L 144.59911 209.404291 
L 145.325082 221.415165 
L 146.777025 213.158891 
L 147.502997 228.690376 
L 148.228969 247.989183 
L 148.95494 281.76358 
L 149.680912 270.195922 
L 150.406884 129.452346 
L 151.132855 77.587496 
L 151.858827 95.760451 
L 152.584799 81.709531 
L 153.310771 97.108065 
L 154.036742 167.601499 
L 154.762714 57.44805 
L 155.488686 78.165594 
L 156.214657 171.795542 
L 156.940629 49.127993 
L 157.666601 102.178871 
L 158.392572 196.851624 
L 159.118544 199.522664 
L 160.570488 155.229907 
L 161.296459 156.794211 
L 162.022431 249.010932 
L 162.748403 121.489453 
L 163.474374 172.487963 
L 164.200346 132.980726 
L 164.926318 57.048122 
L 165.652289 79.872245 
L 166.378261 70.595932 
L 167.104233 110.454443 
L 167.830205 114.462416 
L 168.556176 104.652373 
L 169.282148 85.198854 
L 170.00812 118.188456 
L 170.734091 135.752522 
L 171.460063 170.986805 
L 172.186035 44.734257 
L 172.912007 112.830207 
L 173.637978 43.011523 
L 174.36395 60.068632 
L 175.089922 102.065178 
L 175.815893 60.805038 
L 176.541865 48.67935 
L 177.267837 62.053654 
L 177.993808 55.909695 
L 178.71978 139.571891 
L 179.445752 52.710216 
L 180.897695 112.258695 
L 181.623667 46.797387 
L 182.349639 116.600674 
L 183.07561 58.346596 
L 183.801582 74.947239 
L 184.527554 104.762143 
L 185.253525 158.837338 
L 185.979497 113.484311 
L 186.705469 164.487281 
L 187.431441 55.964232 
L 188.157412 55.878538 
L 188.883384 58.953198 
L 189.609356 116.428845 
L 190.335327 84.056192 
L 191.061299 95.053412 
L 191.787271 132.445367 
L 192.513242 55.12437 
L 193.239214 154.279088 
L 193.965186 136.890073 
L 194.691158 176.289041 
L 195.417129 156.110821 
L 196.143101 111.575598 
L 196.869073 171.826344 
L 197.595044 143.341605 
L 198.321016 99.279359 
L 199.046988 80.097927 
L 200.498931 156.911519 
L 201.224903 210.307499 
L 202.676846 58.283142 
L 203.402818 104.207814 
L 204.12879 49.038577 
L 204.854761 112.278755 
L 205.580733 187.981514 
L 206.306705 144.140192 
L 207.032677 57.61149 
L 207.758648 114.070596 
L 208.48462 142.667106 
L 209.210592 203.966009 
L 209.936563 168.556382 
L 210.662535 111.86352 
L 212.114478 207.172457 
L 212.84045 122.575424 
L 213.566422 132.744418 
L 214.292394 64.030922 
L 215.018365 101.42221 
L 215.744337 198.904358 
L 217.19628 160.980517 
L 217.922252 186.969745 
L 218.648224 183.736679 
L 219.374195 182.984446 
L 220.100167 218.400186 
L 220.826139 229.09157 
L 221.552111 230.654727 
L 222.278082 186.967033 
L 223.004054 234.701276 
L 223.730026 210.038733 
L 224.455997 210.041023 
L 225.181969 265.716652 
L 225.907941 180.108813 
L 226.633913 183.532216 
L 227.359884 227.662505 
L 228.085856 184.80799 
L 228.811828 191.261815 
L 229.537799 107.04222 
L 230.263771 143.199768 
L 230.989743 60.69037 
L 231.715714 49.171647 
L 232.441686 179.860609 
L 233.167658 174.185332 
L 233.89363 90.96672 
L 234.619601 48.016893 
L 235.345573 134.899356 
L 236.071545 176.220303 
L 236.797516 190.175482 
L 238.24946 50.097608 
L 238.975431 46.406305 
L 239.701403 141.105137 
L 240.427375 169.045683 
L 241.153347 156.867279 
L 241.879318 201.720401 
L 242.60529 112.234793 
L 243.331262 125.905106 
L 244.057233 60.759247 
L 244.783205 50.374805 
L 245.509177 71.478469 
L 246.235148 153.908235 
L 246.96112 61.02168 
L 247.687092 99.977319 
L 248.413064 54.591544 
L 249.139035 56.581707 
L 249.865007 126.794187 
L 250.590979 113.20518 
L 251.31695 130.054999 
L 252.042922 138.095228 
L 252.768894 43.247674 
L 253.494866 112.514606 
L 254.220837 167.913729 
L 254.946809 144.946803 
L 255.672781 115.02479 
L 256.398752 163.230606 
L 257.124724 110.113337 
L 257.850696 98.950897 
L 258.576667 157.147705 
L 259.302639 132.039942 
L 260.028611 81.812669 
L 260.754583 104.323673 
L 261.480554 46.410336 
L 262.206526 47.97324 
L 262.932498 137.524278 
L 263.658469 135.475437 
L 264.384441 154.858746 
L 265.110413 57.092547 
L 265.836384 49.817474 
L 266.562356 143.750706 
L 267.288328 101.863255 
L 268.0143 147.236093 
L 268.740271 134.177074 
L 269.466243 103.10243 
L 270.192215 125.359465 
L 270.918186 170.594059 
L 271.644158 124.189539 
L 272.37013 34.67267 
L 273.096102 105.872196 
L 273.822073 104.951777 
L 274.548045 56.816962 
L 275.999988 164.843616 
L 276.72596 48.727354 
L 277.451932 137.857089 
L 278.177903 55.073366 
L 278.903875 127.418516 
L 279.629847 56.346895 
L 280.355819 83.291125 
L 281.08179 53.894358 
L 281.807762 48.483539 
L 282.533734 108.801012 
L 283.259705 55.388673 
L 283.985677 49.014289 
L 284.711649 85.522904 
L 285.43762 60.902134 
L 286.163592 49.712652 
L 286.889564 118.460809 
L 287.615536 47.558987 
L 288.341507 94.582509 
L 289.067479 44.813033 
L 289.793451 100.90345 
L 290.519422 143.706539 
L 291.245394 88.657124 
L 291.971366 154.586868 
L 292.697337 105.131838 
L 293.423309 171.266849 
L 294.149281 182.928248 
L 294.875253 41.694588 
L 295.601224 63.300274 
L 296.327196 49.158791 
L 297.053168 122.046202 
L 297.779139 105.036569 
L 298.505111 123.044438 
L 299.231083 73.960674 
L 299.957055 49.937997 
L 300.683026 43.563968 
L 301.408998 107.918266 
L 302.13497 63.129052 
L 302.860941 131.576421 
L 303.586913 45.763928 
L 304.312885 60.123431 
L 305.038856 46.816635 
L 305.764828 89.071552 
L 306.4908 52.317381 
L 307.216772 142.039204 
L 307.942743 129.647517 
L 308.668715 148.201312 
L 309.394687 171.289066 
L 310.120658 82.178499 
L 310.84663 161.3421 
L 311.572602 177.201323 
L 312.298573 51.250816 
L 313.024545 111.663251 
L 313.750517 93.78706 
L 314.476489 104.937375 
L 315.20246 101.038474 
L 315.928432 41.009541 
L 316.654404 134.672269 
L 317.380375 88.694012 
L 318.106347 93.215108 
L 318.832319 134.422587 
L 319.55829 149.7366 
L 320.284262 177.737005 
L 321.010234 184.74097 
L 321.736206 136.629393 
L 322.462177 150.652051 
L 323.188149 169.214151 
L 323.914121 107.21835 
L 324.640092 128.592635 
L 325.366064 44.54282 
L 326.818008 115.156346 
L 327.543979 82.749664 
L 328.995923 162.167557 
L 330.447866 39.722076 
L 331.173838 64.56083 
L 331.899809 128.519364 
L 332.625781 136.192093 
L 333.351753 60.883945 
L 334.077725 85.179685 
L 334.803696 105.453075 
L 335.529668 74.673346 
L 336.25564 117.373606 
L 336.981611 146.358176 
L 337.707583 147.084122 
L 338.433555 116.878593 
L 339.159526 133.836496 
L 339.885498 164.749436 
L 340.61147 131.250732 
L 341.337442 91.384489 
L 342.063413 105.388571 
L 344.241328 200.076196 
L 344.9673 68.84856 
L 345.693272 143.933275 
L 346.419243 38.354562 
L 347.145215 102.222552 
L 347.871187 52.64384 
L 348.597159 106.173955 
L 349.32313 137.511957 
L 350.049102 124.964223 
L 350.775074 78.166897 
L 351.501045 94.291831 
L 352.227017 157.47805 
L 352.952989 96.190247 
L 353.678961 117.914874 
L 354.404932 44.968269 
L 355.130904 143.499918 
L 355.856876 142.888453 
L 356.582847 75.219105 
L 357.308819 49.223582 
L 358.034791 154.086597 
L 358.760762 173.355406 
L 359.486734 114.227827 
L 360.212706 99.067797 
L 360.938678 48.733237 
L 361.664649 48.264287 
L 362.390621 59.054829 
L 363.116593 47.931592 
L 363.842564 112.028535 
L 364.568536 146.015278 
L 365.294508 104.198097 
L 366.020479 103.903925 
L 366.746451 60.110227 
L 367.472423 55.639115 
L 368.198395 55.558542 
L 368.924366 74.862776 
L 369.650338 106.992349 
L 370.37631 98.073802 
L 371.102281 65.167976 
L 371.828253 116.486576 
L 372.554225 80.785325 
L 373.280196 142.287944 
L 374.006168 69.736957 
L 374.73214 90.225007 
L 375.458112 58.975801 
L 376.184083 102.180921 
L 376.910055 95.384196 
L 377.636027 92.973898 
L 378.361998 104.246409 
L 379.08797 61.255769 
L 379.813942 124.263769 
L 380.539914 135.878047 
L 381.265885 60.68264 
L 381.991857 124.574283 
L 382.717829 83.267373 
L 383.4438 53.915895 
L 384.169772 64.645315 
L 384.895744 59.933626 
L 385.621715 57.191782 
L 386.347687 53.048591 
L 387.073659 111.082259 
L 387.799631 63.87187 
L 388.525602 98.491751 
L 389.251574 69.661526 
L 389.977546 64.053941 
L 390.703517 69.488172 
L 391.429489 128.629399 
L 392.155461 108.063038 
L 392.881432 74.929406 
L 393.607404 51.630685 
L 394.333376 123.639271 
L 395.059348 52.087037 
L 395.785319 104.317165 
L 396.511291 62.718719 
L 397.237263 62.666179 
L 397.963234 64.052505 
L 398.689206 114.005243 
L 399.415178 53.921373 
L 400.141149 74.80624 
L 400.867121 80.147337 
L 401.593093 106.026858 
L 402.319065 68.22679 
L 403.045036 94.802767 
L 403.771008 63.585353 
L 404.49698 120.939376 
L 405.222951 96.025931 
L 405.948923 90.682258 
L 406.674895 62.995316 
L 407.400867 103.745014 
L 408.126838 58.899299 
L 408.85281 72.750205 
L 409.578782 75.59476 
L 410.304753 94.548255 
L 411.030725 55.431904 
L 411.756697 74.690135 
L 412.482668 57.102529 
L 413.20864 73.029673 
L 413.934612 62.787303 
L 414.660584 101.998545 
L 415.386555 68.076313 
L 416.112527 154.698081 
L 416.838499 60.998047 
L 417.56447 69.676651 
L 418.290442 111.050716 
L 419.016414 105.932036 
L 419.742385 97.90094 
L 420.468357 113.020813 
L 421.194329 55.808182 
L 421.920301 94.507197 
L 422.646272 67.948893 
L 423.372244 119.284575 
L 424.098216 77.094126 
L 424.824187 71.013538 
L 425.550159 78.784428 
L 426.276131 128.3883 
L 427.002102 67.545088 
L 427.728074 139.543188 
L 428.454046 57.004448 
L 429.180018 119.976335 
L 429.905989 105.762932 
L 430.631961 123.546312 
L 431.357933 58.786367 
L 432.083904 69.101102 
L 432.809876 71.482375 
L 433.535848 112.97771 
L 434.26182 75.364397 
L 434.987791 106.220178 
L 435.713763 77.717517 
L 436.439735 104.722543 
L 437.165706 65.217083 
L 437.891678 82.187719 
L 438.61765 70.948173 
L 439.343621 64.902503 
L 440.069593 110.177096 
L 440.795565 75.870159 
L 441.521537 135.930905 
L 442.247508 75.936115 
L 442.97348 127.732557 
L 443.699452 66.519296 
L 444.425423 106.207361 
L 445.151395 103.728444 
L 445.877367 64.231476 
L 446.603338 102.439256 
L 447.32931 68.352217 
L 448.055282 84.066157 
L 448.781254 84.186075 
L 449.507225 135.242901 
L 450.233197 150.024725 
L 450.959169 68.069743 
L 451.68514 143.281857 
L 452.411112 102.959357 
L 453.137084 112.371449 
L 453.863055 70.266167 
L 454.589027 66.628311 
L 455.314999 145.635667 
L 456.040971 152.467049 
L 456.766942 69.458007 
L 457.492914 130.125405 
L 458.218886 81.419791 
L 458.944857 90.649084 
L 459.670829 130.406131 
L 460.396801 141.42186 
L 461.122773 70.858471 
L 461.848744 79.90953 
L 462.574716 68.608328 
L 462.574716 68.608328 
" style="fill:none;stroke:#ff7f0e;stroke-linecap:square;stroke-width:1.5;"/>
   </g>
   <g id="line2d_3">
    <path clip-path="url(#p0d4c115770)" d="M 56.756534 178.703692 
L 57.482506 190.229501 
L 58.208477 116.760804 
L 58.934449 162.600387 
L 59.660421 108.471058 
L 60.386393 175.241534 
L 61.112364 57.839666 
L 61.838336 50.622699 
L 63.290279 106.42785 
L 64.016251 145.783652 
L 64.742223 127.615367 
L 65.468195 138.708569 
L 66.194166 159.068901 
L 66.920138 163.844621 
L 67.64611 46.416953 
L 68.372081 162.719483 
L 69.098053 59.369271 
L 69.824025 101.574903 
L 70.549996 51.415994 
L 71.275968 61.670065 
L 72.00194 161.767245 
L 72.727912 44.438767 
L 73.453883 136.673338 
L 74.179855 95.460321 
L 74.905827 90.180686 
L 75.631798 119.152716 
L 76.35777 99.648233 
L 77.083742 141.109227 
L 77.809713 111.517352 
L 78.535685 131.894687 
L 79.261657 121.150027 
L 79.987629 46.957794 
L 80.7136 45.051603 
L 81.439572 132.318378 
L 82.165544 170.141891 
L 82.891515 147.582972 
L 83.617487 55.02176 
L 84.343459 135.624098 
L 85.795402 78.751914 
L 86.521374 82.450049 
L 87.247346 98.0379 
L 87.973317 174.105212 
L 88.699289 60.963433 
L 89.425261 45.30999 
L 90.151232 130.123219 
L 90.877204 44.496141 
L 91.603176 126.029891 
L 92.329148 164.616111 
L 93.055119 90.682579 
L 93.781091 55.851053 
L 94.507063 60.184509 
L 95.233034 65.67465 
L 95.959006 104.834158 
L 96.684978 57.878272 
L 97.410949 53.074536 
L 98.136921 101.017463 
L 98.862893 111.099557 
L 99.588865 103.788299 
L 100.314836 166.418482 
L 101.040808 186.135582 
L 101.76678 192.504806 
L 102.492751 139.906705 
L 103.218723 113.150887 
L 103.944695 190.761975 
L 104.670666 168.103379 
L 105.396638 160.156709 
L 106.12261 116.634439 
L 106.848582 166.044031 
L 107.574553 124.563573 
L 108.300525 192.361017 
L 109.026497 62.103026 
L 109.752468 141.575538 
L 110.47844 75.225573 
L 111.204412 81.038192 
L 111.930383 182.531126 
L 112.656355 180.498434 
L 113.382327 100.200998 
L 114.108299 176.081881 
L 114.83427 100.038762 
L 115.560242 47.419851 
L 116.286214 150.168468 
L 117.012185 173.126598 
L 117.738157 171.857603 
L 118.464129 203.120135 
L 119.190101 195.650952 
L 119.916072 175.792789 
L 120.642044 166.342389 
L 121.368016 159.30261 
L 122.093987 215.627435 
L 122.819959 184.192026 
L 123.545931 119.249073 
L 124.271902 132.218948 
L 124.997874 100.581231 
L 125.723846 87.117982 
L 126.449818 136.754362 
L 127.175789 166.157335 
L 127.901761 143.911404 
L 128.627733 149.437745 
L 129.353704 198.252668 
L 130.079676 115.135071 
L 130.805648 165.661664 
L 131.531619 197.767392 
L 132.257591 218.625272 
L 132.983563 192.121909 
L 133.709535 205.926286 
L 134.435506 227.796565 
L 135.161478 205.656845 
L 135.88745 197.324372 
L 136.613421 251.313236 
L 137.339393 246.071892 
L 138.065365 135.78831 
L 138.791336 181.303719 
L 139.517308 49.237793 
L 140.24328 61.121086 
L 140.969252 187.891675 
L 141.695223 57.46448 
L 142.421195 94.696235 
L 143.147167 203.27818 
L 143.873138 112.982021 
L 144.59911 156.760026 
L 145.325082 179.29118 
L 146.051054 56.274876 
L 146.777025 95.236671 
L 147.502997 155.258353 
L 148.228969 170.07704 
L 148.95494 175.656599 
L 149.680912 121.09909 
L 150.406884 100.32078 
L 151.132855 112.673447 
L 151.858827 106.812541 
L 152.584799 108.483288 
L 153.310771 79.857588 
L 154.036742 112.248147 
L 154.762714 170.187782 
L 155.488686 114.299283 
L 156.214657 161.222365 
L 156.940629 188.86909 
L 157.666601 199.256196 
L 158.392572 56.547522 
L 159.118544 147.125953 
L 159.844516 124.218957 
L 160.570488 40.527904 
L 161.296459 56.700232 
L 162.022431 152.734983 
L 163.474374 215.773678 
L 164.200346 195.877429 
L 164.926318 194.193765 
L 165.652289 171.486052 
L 166.378261 164.196588 
L 167.104233 57.81746 
L 167.830205 117.964653 
L 168.556176 55.265836 
L 169.282148 60.857499 
L 170.00812 53.949023 
L 171.460063 151.594405 
L 172.186035 78.999727 
L 173.637978 91.642949 
L 174.36395 116.113411 
L 175.089922 54.260118 
L 175.815893 84.543131 
L 176.541865 53.420065 
L 177.267837 99.6643 
L 177.993808 49.988647 
L 178.71978 140.003964 
L 179.445752 41.565692 
L 180.171724 123.345616 
L 180.897695 164.08324 
L 181.623667 54.437198 
L 182.349639 93.479529 
L 183.07561 108.054361 
L 183.801582 99.523429 
L 184.527554 49.645217 
L 185.253525 64.567058 
L 185.979497 138.37208 
L 186.705469 60.104536 
L 188.157412 86.37606 
L 188.883384 94.845577 
L 189.609356 47.758273 
L 190.335327 130.063208 
L 191.061299 59.359619 
L 191.787271 61.439204 
L 192.513242 103.809019 
L 193.239214 135.652951 
L 193.965186 122.53581 
L 194.691158 144.642744 
L 195.417129 52.738979 
L 196.143101 56.974777 
L 196.869073 111.549139 
L 197.595044 116.003394 
L 198.321016 61.574716 
L 199.046988 117.589181 
L 199.77296 50.983628 
L 200.498931 135.071455 
L 201.224903 80.208848 
L 201.950875 61.844535 
L 202.676846 63.956449 
L 203.402818 82.678393 
L 204.12879 47.922878 
L 204.854761 140.335555 
L 205.580733 151.948589 
L 206.306705 128.115313 
L 207.032677 152.638993 
L 207.758648 160.224852 
L 208.48462 56.334304 
L 209.210592 122.85571 
L 209.936563 46.963406 
L 210.662535 47.76205 
L 212.114478 119.362281 
L 212.84045 54.071539 
L 213.566422 124.480305 
L 214.292394 112.651922 
L 215.018365 45.617965 
L 215.744337 126.908387 
L 216.470309 56.754914 
L 217.19628 125.52068 
L 217.922252 95.55364 
L 218.648224 138.801239 
L 219.374195 53.385482 
L 220.100167 147.327172 
L 220.826139 164.652946 
L 221.552111 146.874346 
L 222.278082 133.089293 
L 223.004054 161.378347 
L 223.730026 150.442252 
L 224.455997 167.818235 
L 225.181969 108.729312 
L 225.907941 156.759441 
L 226.633913 58.212058 
L 227.359884 105.83374 
L 228.085856 47.037873 
L 228.811828 117.003568 
L 229.537799 59.011072 
L 230.263771 113.975178 
L 230.989743 154.812032 
L 231.715714 43.303699 
L 232.441686 137.452182 
L 233.167658 135.869264 
L 234.619601 55.871873 
L 235.345573 53.312959 
L 236.071545 105.075829 
L 236.797516 56.878568 
L 237.523488 97.046625 
L 238.24946 93.608891 
L 238.975431 157.355535 
L 239.701403 59.676665 
L 240.427375 44.985394 
L 241.153347 44.166151 
L 241.879318 90.252392 
L 242.60529 56.399949 
L 243.331262 128.967469 
L 244.057233 143.24552 
L 244.783205 43.77285 
L 245.509177 92.188923 
L 246.235148 130.961889 
L 246.96112 62.134679 
L 247.687092 103.534961 
L 248.413064 44.605254 
L 249.139035 51.288712 
L 250.590979 150.061482 
L 251.31695 138.254752 
L 252.042922 106.134751 
L 252.768894 109.540054 
L 253.494866 150.802682 
L 254.220837 52.470045 
L 254.946809 61.307214 
L 255.672781 101.204323 
L 256.398752 161.050801 
L 257.124724 45.285529 
L 257.850696 99.579171 
L 258.576667 114.815542 
L 259.302639 65.889758 
L 260.028611 45.764901 
L 260.754583 133.288337 
L 261.480554 58.287973 
L 262.206526 114.040296 
L 262.932498 118.941238 
L 263.658469 161.2686 
L 264.384441 50.628136 
L 265.110413 99.405031 
L 265.836384 98.655325 
L 266.562356 145.085081 
L 267.288328 151.598111 
L 268.0143 136.479577 
L 268.740271 110.142464 
L 269.466243 43.183897 
L 270.192215 75.228548 
L 270.918186 101.212825 
L 271.644158 179.394873 
L 272.37013 99.1391 
L 273.096102 105.289729 
L 273.822073 45.04816 
L 274.548045 91.923154 
L 275.274017 64.045314 
L 275.999988 96.09903 
L 276.72596 90.072741 
L 277.451932 144.043469 
L 278.177903 109.947645 
L 278.903875 143.405488 
L 279.629847 105.077025 
L 280.355819 112.596073 
L 281.08179 99.760599 
L 282.533734 125.856231 
L 283.259705 119.323791 
L 283.985677 111.72685 
L 284.711649 157.053301 
L 285.43762 94.428812 
L 286.163592 112.346143 
L 286.889564 142.981726 
L 287.615536 154.061218 
L 288.341507 134.565483 
L 289.793451 90.133986 
L 290.519422 182.230735 
L 291.245394 151.944328 
L 291.971366 155.560861 
L 292.697337 106.648396 
L 293.423309 180.928965 
L 294.149281 181.600976 
L 294.875253 146.57735 
L 295.601224 40.866667 
L 296.327196 60.347949 
L 297.053168 130.162352 
L 297.779139 123.221116 
L 298.505111 107.977031 
L 299.231083 72.7378 
L 299.957055 44.912117 
L 300.683026 80.828905 
L 301.408998 141.434638 
L 302.13497 145.627822 
L 302.860941 57.100288 
L 303.586913 104.458112 
L 304.312885 53.910189 
L 305.038856 49.470457 
L 305.764828 91.121007 
L 306.4908 57.807145 
L 307.216772 156.893634 
L 307.942743 103.095297 
L 308.668715 92.646524 
L 309.394687 167.991263 
L 310.120658 57.483748 
L 310.84663 133.777164 
L 311.572602 110.162501 
L 312.298573 140.427643 
L 313.024545 147.108451 
L 313.750517 41.811676 
L 314.476489 142.848341 
L 315.20246 105.04468 
L 315.928432 46.84532 
L 316.654404 119.727369 
L 317.380375 101.209745 
L 318.106347 110.443308 
L 318.832319 89.545416 
L 319.55829 151.257593 
L 320.284262 161.896375 
L 321.010234 149.057872 
L 321.736206 140.6135 
L 322.462177 89.479716 
L 323.188149 152.481241 
L 323.914121 136.90544 
L 324.640092 102.379689 
L 325.366064 116.977862 
L 326.092036 154.428836 
L 326.818008 52.940521 
L 327.543979 58.78629 
L 328.269951 103.552135 
L 328.995923 79.216318 
L 329.721894 49.264554 
L 331.173838 141.562115 
L 331.899809 58.780001 
L 332.625781 59.691146 
L 333.351753 119.012692 
L 334.077725 41.532384 
L 334.803696 43.736229 
L 335.529668 48.339689 
L 336.25564 60.153834 
L 336.981611 137.346564 
L 337.707583 98.589085 
L 338.433555 50.101696 
L 339.159526 144.341797 
L 339.885498 115.306667 
L 340.61147 120.323219 
L 341.337442 94.84958 
L 342.063413 46.081194 
L 342.789385 97.248939 
L 343.515357 91.049484 
L 344.241328 172.442585 
L 344.9673 76.684013 
L 345.693272 106.73657 
L 346.419243 85.048255 
L 347.145215 51.460432 
L 347.871187 102.301005 
L 348.597159 68.053987 
L 349.32313 129.877704 
L 350.049102 134.992174 
L 350.775074 65.688458 
L 351.501045 110.367894 
L 352.227017 95.097871 
L 352.952989 46.922852 
L 353.678961 123.350062 
L 354.404932 47.770603 
L 355.130904 146.201987 
L 355.856876 125.514072 
L 356.582847 78.777967 
L 357.308819 130.935916 
L 358.034791 162.047294 
L 358.760762 142.738656 
L 359.486734 103.291371 
L 360.212706 130.741122 
L 360.938678 50.466339 
L 361.664649 60.738473 
L 362.390621 87.608873 
L 363.116593 101.632341 
L 363.842564 133.857736 
L 364.568536 144.396357 
L 365.294508 95.92917 
L 366.020479 127.973567 
L 366.746451 134.781559 
L 367.472423 133.990696 
L 368.924366 78.284962 
L 369.650338 142.212425 
L 370.37631 96.18936 
L 371.102281 61.94639 
L 371.828253 53.56426 
L 372.554225 104.972773 
L 373.280196 78.010942 
L 374.006168 45.159031 
L 374.73214 60.683546 
L 375.458112 110.635659 
L 376.184083 121.33968 
L 376.910055 106.264499 
L 377.636027 144.879842 
L 378.361998 65.815795 
L 379.08797 133.175083 
L 379.813942 130.510799 
L 380.539914 96.500831 
L 381.265885 145.630044 
L 381.991857 92.687592 
L 382.717829 102.655608 
L 383.4438 132.424643 
L 384.169772 45.874326 
L 384.895744 113.698584 
L 385.621715 55.620153 
L 386.347687 85.19874 
L 387.073659 84.963069 
L 387.799631 57.417178 
L 388.525602 112.618027 
L 389.251574 129.916738 
L 389.977546 117.285497 
L 390.703517 135.141749 
L 391.429489 144.61355 
L 392.155461 96.100903 
L 392.881432 137.039427 
L 393.607404 128.777318 
L 394.333376 117.056565 
L 395.059348 94.428228 
L 395.785319 87.967988 
L 396.511291 48.377394 
L 397.237263 55.730861 
L 397.963234 58.279633 
L 398.689206 128.575185 
L 399.415178 96.335118 
L 400.141149 141.86193 
L 400.867121 108.702322 
L 401.593093 44.066585 
L 402.319065 87.346984 
L 403.045036 64.494844 
L 403.771008 103.814349 
L 404.49698 66.784709 
L 405.222951 67.816312 
L 405.948923 129.387025 
L 406.674895 140.614514 
L 407.400867 55.186026 
L 408.126838 57.235053 
L 408.85281 86.786938 
L 409.578782 129.242875 
L 410.304753 62.644501 
L 411.030725 72.686606 
L 411.756697 97.462426 
L 412.482668 107.100314 
L 413.20864 94.993384 
L 413.934612 101.270488 
L 414.660584 66.605436 
L 416.112527 142.240212 
L 416.838499 60.00001 
L 417.56447 51.183035 
L 418.290442 98.085197 
L 419.016414 93.146295 
L 419.742385 114.909799 
L 420.468357 60.823108 
L 421.194329 116.441793 
L 421.920301 54.053102 
L 422.646272 58.277333 
L 423.372244 105.425787 
L 424.098216 71.861833 
L 424.824187 67.438946 
L 425.550159 76.579665 
L 426.276131 110.562842 
L 427.002102 67.17049 
L 427.728074 117.107986 
L 428.454046 64.577431 
L 429.180018 133.263641 
L 429.905989 113.078048 
L 430.631961 128.428169 
L 431.357933 62.274766 
L 432.083904 124.116647 
L 432.809876 76.577204 
L 433.535848 71.59007 
L 434.26182 70.919164 
L 434.987791 68.688433 
L 435.713763 73.280994 
L 436.439735 70.659522 
L 437.165706 69.786646 
L 437.891678 108.532238 
L 438.61765 68.027134 
L 439.343621 67.325272 
L 440.069593 117.986951 
L 440.795565 71.050077 
L 441.521537 126.762909 
L 442.247508 84.549152 
L 442.97348 148.29398 
L 443.699452 70.926256 
L 444.425423 124.844084 
L 445.151395 100.59915 
L 445.877367 67.761182 
L 446.603338 100.597765 
L 447.32931 74.285354 
L 448.055282 83.653498 
L 448.781254 84.464014 
L 449.507225 127.206598 
L 450.233197 155.382285 
L 450.959169 76.135737 
L 451.68514 78.877082 
L 452.411112 117.19774 
L 453.137084 88.363165 
L 454.589027 73.957456 
L 455.314999 155.192056 
L 456.040971 138.557379 
L 456.766942 75.527426 
L 457.492914 117.422237 
L 458.218886 91.697783 
L 458.944857 87.895495 
L 459.670829 127.676888 
L 460.396801 135.41465 
L 461.122773 83.072275 
L 461.848744 111.937261 
L 462.574716 72.639962 
L 462.574716 72.639962 
" style="fill:none;stroke:#2ca02c;stroke-linecap:square;stroke-width:1.5;"/>
   </g>
   <g id="line2d_4">
    <path clip-path="url(#p0d4c115770)" d="M 56.756534 179.263799 
L 57.482506 58.784547 
L 58.208477 54.961638 
L 59.660421 114.977468 
L 60.386393 188.343445 
L 61.112364 183.418077 
L 61.838336 102.042111 
L 62.564308 152.900148 
L 63.290279 53.139159 
L 64.016251 140.508136 
L 64.742223 96.786709 
L 65.468195 98.937675 
L 66.194166 165.205838 
L 66.920138 56.837123 
L 67.64611 115.727914 
L 68.372081 109.103002 
L 69.098053 35.90922 
L 69.824025 144.028066 
L 70.549996 43.012405 
L 71.275968 62.458752 
L 72.00194 161.092404 
L 72.727912 58.099824 
L 73.453883 82.724144 
L 74.179855 136.862586 
L 74.905827 102.41139 
L 75.631798 44.747142 
L 76.35777 48.185868 
L 77.083742 139.648834 
L 77.809713 62.185951 
L 78.535685 44.415474 
L 79.261657 124.597867 
L 79.987629 125.180879 
L 80.7136 96.780631 
L 81.439572 44.304543 
L 82.165544 70.764153 
L 82.891515 139.623568 
L 83.617487 183.713286 
L 84.343459 164.137366 
L 85.06943 172.106321 
L 85.795402 118.592254 
L 86.521374 55.374367 
L 87.247346 105.273841 
L 87.973317 195.458512 
L 88.699289 193.351184 
L 89.425261 45.551747 
L 90.151232 110.385707 
L 90.877204 41.865907 
L 92.329148 155.37066 
L 93.055119 74.111881 
L 93.781091 97.405765 
L 94.507063 141.701908 
L 95.233034 127.819349 
L 95.959006 132.608256 
L 96.684978 128.379974 
L 97.410949 45.445271 
L 98.136921 53.67095 
L 98.862893 98.577849 
L 99.588865 173.895272 
L 100.314836 166.794847 
L 101.040808 58.525426 
L 101.76678 152.275309 
L 102.492751 112.159287 
L 103.218723 45.652537 
L 103.944695 51.138691 
L 104.670666 168.620598 
L 105.396638 140.249622 
L 106.12261 181.368367 
L 106.848582 163.063702 
L 107.574553 50.728452 
L 108.300525 63.071551 
L 109.026497 138.837138 
L 109.752468 170.752221 
L 110.47844 191.495724 
L 111.204412 187.436757 
L 111.930383 117.221069 
L 112.656355 108.259574 
L 113.382327 148.56749 
L 114.108299 160.445979 
L 114.83427 51.452961 
L 115.560242 104.898855 
L 116.286214 208.513248 
L 117.012185 216.930604 
L 117.738157 46.488011 
L 118.464129 55.887523 
L 119.190101 61.505382 
L 119.916072 142.076154 
L 120.642044 128.065278 
L 121.368016 94.190465 
L 122.093987 111.649019 
L 122.819959 46.430393 
L 123.545931 51.527195 
L 124.271902 149.519227 
L 124.997874 156.167034 
L 125.723846 55.533716 
L 126.449818 142.77595 
L 127.175789 151.206703 
L 127.901761 86.285273 
L 128.627733 175.121061 
L 129.353704 177.257367 
L 130.079676 46.981806 
L 130.805648 133.262395 
L 131.531619 59.819586 
L 132.257591 97.456015 
L 132.983563 164.063898 
L 133.709535 130.190746 
L 134.435506 182.592548 
L 135.161478 187.590458 
L 135.88745 119.201681 
L 136.613421 168.789783 
L 137.339393 52.207991 
L 138.065365 50.820786 
L 138.791336 153.506053 
L 139.517308 167.323143 
L 140.24328 192.316844 
L 140.969252 239.649937 
L 141.695223 149.213169 
L 143.147167 57.456334 
L 143.873138 112.111168 
L 144.59911 185.673221 
L 145.325082 193.443208 
L 146.051054 130.51491 
L 146.777025 113.357259 
L 147.502997 180.435874 
L 148.228969 162.370267 
L 148.95494 44.233726 
L 149.680912 49.405273 
L 150.406884 147.956775 
L 151.132855 166.513672 
L 152.584799 107.244064 
L 153.310771 90.432274 
L 154.036742 116.627671 
L 154.762714 175.852538 
L 155.488686 113.479605 
L 156.214657 137.967426 
L 156.940629 128.998027 
L 158.392572 207.930415 
L 159.118544 125.573772 
L 159.844516 154.302341 
L 160.570488 138.093494 
L 161.296459 45.460384 
L 162.022431 100.846945 
L 163.474374 184.614977 
L 164.200346 159.290857 
L 164.926318 223.793907 
L 165.652289 219.012377 
L 166.378261 222.67809 
L 167.104233 182.008525 
L 167.830205 61.425567 
L 168.556176 109.388239 
L 169.282148 40.877931 
L 170.00812 122.368872 
L 170.734091 187.336542 
L 171.460063 162.540143 
L 172.186035 92.456387 
L 172.912007 86.762683 
L 173.637978 115.895957 
L 174.36395 105.755341 
L 175.089922 160.813544 
L 175.815893 153.142849 
L 176.541865 115.195394 
L 177.267837 148.356648 
L 177.993808 75.553143 
L 178.71978 48.831768 
L 179.445752 39.908639 
L 180.171724 148.05752 
L 180.897695 161.24412 
L 181.623667 42.68742 
L 182.349639 103.818489 
L 183.07561 175.512906 
L 183.801582 111.292101 
L 184.527554 153.627627 
L 185.253525 184.779695 
L 185.979497 175.322539 
L 187.431441 47.201162 
L 188.157412 130.12343 
L 188.883384 60.176717 
L 189.609356 47.89808 
L 190.335327 95.344785 
L 191.061299 52.20272 
L 191.787271 56.974699 
L 192.513242 95.918883 
L 193.239214 193.115026 
L 193.965186 149.496475 
L 194.691158 141.577864 
L 195.417129 58.619533 
L 196.143101 51.832608 
L 197.595044 125.335674 
L 198.321016 49.520516 
L 199.046988 48.534938 
L 199.77296 40.677627 
L 200.498931 100.136779 
L 201.224903 122.697909 
L 201.950875 57.936267 
L 202.676846 65.336377 
L 203.402818 101.321746 
L 204.12879 61.199278 
L 204.854761 143.254379 
L 205.580733 131.108108 
L 206.306705 132.047349 
L 207.032677 155.740541 
L 207.758648 63.904106 
L 208.48462 152.881156 
L 209.210592 185.847993 
L 209.936563 113.13913 
L 210.662535 64.007144 
L 211.388507 57.919762 
L 212.114478 176.297689 
L 212.84045 179.753838 
L 213.566422 106.050463 
L 214.292394 130.901047 
L 215.018365 111.994161 
L 215.744337 115.575826 
L 216.470309 76.276616 
L 217.19628 121.692004 
L 217.922252 144.089569 
L 218.648224 110.857625 
L 219.374195 136.194458 
L 220.100167 137.183616 
L 220.826139 58.882301 
L 221.552111 139.32201 
L 222.278082 180.085992 
L 223.004054 96.6044 
L 223.730026 56.460364 
L 224.455997 127.728956 
L 225.181969 107.344846 
L 225.907941 104.398652 
L 226.633913 159.292804 
L 227.359884 103.127805 
L 228.085856 101.946889 
L 228.811828 49.344366 
L 229.537799 92.590478 
L 230.263771 104.292708 
L 230.989743 198.58891 
L 231.715714 108.216629 
L 232.441686 142.37947 
L 233.167658 103.923189 
L 233.89363 139.395867 
L 234.619601 134.402414 
L 235.345573 89.735944 
L 236.071545 124.445176 
L 236.797516 49.581201 
L 237.523488 67.690141 
L 238.24946 97.563776 
L 238.975431 174.147681 
L 239.701403 119.879416 
L 240.427375 111.784815 
L 241.153347 83.852543 
L 241.879318 144.09131 
L 242.60529 34.895781 
L 244.057233 159.050211 
L 244.783205 44.213789 
L 245.509177 79.605284 
L 246.235148 126.419712 
L 246.96112 57.418622 
L 247.687092 103.302963 
L 248.413064 43.647723 
L 249.139035 54.483262 
L 250.590979 129.436222 
L 251.31695 118.99243 
L 252.042922 110.421268 
L 252.768894 59.401089 
L 253.494866 53.204023 
L 254.220837 119.698725 
L 254.946809 109.188277 
L 255.672781 49.477908 
L 256.398752 145.969613 
L 257.124724 46.961022 
L 257.850696 56.352966 
L 258.576667 91.134779 
L 259.302639 55.137899 
L 260.028611 58.111419 
L 260.754583 133.217876 
L 261.480554 57.874672 
L 262.206526 82.059393 
L 262.932498 99.967143 
L 263.658469 161.666065 
L 264.384441 52.630728 
L 265.110413 128.961803 
L 265.836384 113.035445 
L 266.562356 80.050393 
L 267.288328 146.297276 
L 268.0143 110.520725 
L 268.740271 104.939619 
L 269.466243 111.373332 
L 270.192215 105.90931 
L 270.918186 55.443445 
L 272.37013 83.458065 
L 273.096102 120.770991 
L 273.822073 100.455188 
L 274.548045 95.720092 
L 275.274017 131.174238 
L 275.999988 141.560701 
L 276.72596 115.543233 
L 277.451932 177.7348 
L 278.177903 105.985399 
L 278.903875 62.929443 
L 279.629847 95.562906 
L 280.355819 49.446332 
L 281.08179 76.065603 
L 281.807762 89.444576 
L 282.533734 62.204708 
L 283.259705 102.710903 
L 283.985677 47.157898 
L 284.711649 64.965129 
L 285.43762 66.405177 
L 286.163592 107.450048 
L 286.889564 137.696442 
L 288.341507 145.772956 
L 289.067479 159.04062 
L 289.793451 115.875379 
L 290.519422 151.447756 
L 291.245394 113.775258 
L 291.971366 139.422245 
L 292.697337 110.203037 
L 293.423309 138.911308 
L 294.149281 155.905025 
L 294.875253 159.991682 
L 295.601224 161.768046 
L 296.327196 182.613588 
L 297.053168 114.369201 
L 297.779139 149.102464 
L 298.505111 45.388762 
L 299.231083 112.895105 
L 299.957055 107.598861 
L 300.683026 125.262235 
L 301.408998 190.700311 
L 302.13497 175.025371 
L 302.860941 97.835695 
L 303.586913 50.886809 
L 304.312885 74.658763 
L 305.038856 36.839238 
L 305.764828 53.757286 
L 306.4908 62.602146 
L 307.216772 152.41487 
L 307.942743 137.263852 
L 308.668715 163.840592 
L 309.394687 128.836466 
L 310.120658 113.469097 
L 310.84663 106.813613 
L 311.572602 142.614897 
L 312.298573 151.449637 
L 313.024545 145.97641 
L 313.750517 103.623505 
L 314.476489 104.510607 
L 315.20246 41.92753 
L 315.928432 116.230069 
L 316.654404 158.028584 
L 317.380375 119.638042 
L 318.106347 91.240642 
L 318.832319 152.800601 
L 319.55829 53.630447 
L 320.284262 53.001689 
L 321.736206 155.945516 
L 322.462177 168.301258 
L 323.188149 61.729791 
L 323.914121 49.418894 
L 324.640092 57.879378 
L 325.366064 132.903936 
L 326.092036 82.649293 
L 326.818008 115.484524 
L 327.543979 39.324797 
L 328.269951 102.045837 
L 328.995923 135.086003 
L 329.721894 63.258028 
L 330.447866 129.676362 
L 331.173838 105.894383 
L 331.899809 51.331491 
L 332.625781 60.52448 
L 333.351753 101.870056 
L 334.077725 51.104629 
L 334.803696 54.571173 
L 335.529668 50.881921 
L 336.25564 63.725877 
L 336.981611 142.451899 
L 337.707583 103.141293 
L 338.433555 51.096392 
L 339.159526 67.921967 
L 339.885498 145.11275 
L 340.61147 111.254976 
L 341.337442 49.448408 
L 342.063413 129.483049 
L 342.789385 77.541569 
L 343.515357 46.681454 
L 344.241328 181.38706 
L 344.9673 35.276866 
L 345.693272 106.336199 
L 346.419243 40.955774 
L 347.145215 56.684539 
L 347.871187 64.383574 
L 348.597159 74.461057 
L 349.32313 104.416468 
L 350.049102 114.497767 
L 350.775074 61.874658 
L 352.227017 143.005769 
L 352.952989 45.372176 
L 353.678961 98.462731 
L 354.404932 55.529216 
L 355.130904 148.988475 
L 355.856876 100.825403 
L 356.582847 88.391634 
L 357.308819 79.583659 
L 358.034791 156.8919 
L 358.760762 164.883016 
L 359.486734 53.335217 
L 360.212706 49.325537 
L 360.938678 135.835934 
L 361.664649 64.530927 
L 362.390621 44.382035 
L 363.116593 61.968619 
L 363.842564 134.549256 
L 365.294508 94.735863 
L 366.020479 113.046381 
L 366.746451 53.635509 
L 367.472423 91.827893 
L 368.198395 48.899106 
L 368.924366 55.792281 
L 369.650338 121.815379 
L 370.37631 61.505089 
L 371.102281 142.550519 
L 371.828253 117.978702 
L 372.554225 61.744992 
L 373.280196 49.471981 
L 374.006168 55.189445 
L 374.73214 136.61666 
L 376.184083 51.939354 
L 376.910055 109.61575 
L 377.636027 106.451663 
L 378.361998 100.757561 
L 379.08797 125.56112 
L 379.813942 92.585392 
L 380.539914 142.198987 
L 381.265885 99.133995 
L 381.991857 63.593274 
L 382.717829 104.987808 
L 383.4438 82.92081 
L 384.169772 52.53733 
L 384.895744 98.776487 
L 385.621715 60.098095 
L 386.347687 82.768326 
L 387.073659 109.63528 
L 387.799631 53.702524 
L 388.525602 60.679394 
L 389.251574 119.406726 
L 389.977546 108.850193 
L 390.703517 86.734653 
L 391.429489 137.511749 
L 392.155461 122.94685 
L 392.881432 65.979854 
L 393.607404 61.717882 
L 394.333376 106.843432 
L 395.059348 113.779998 
L 395.785319 109.235848 
L 396.511291 102.344289 
L 397.237263 116.450805 
L 397.963234 81.871219 
L 398.689206 138.278811 
L 399.415178 95.119537 
L 400.141149 63.103468 
L 400.867121 146.922318 
L 401.593093 105.994408 
L 402.319065 107.197959 
L 403.045036 116.900853 
L 403.771008 123.339541 
L 404.49698 124.322325 
L 405.222951 103.354768 
L 405.948923 102.904223 
L 406.674895 54.501183 
L 407.400867 105.251349 
L 408.126838 47.746753 
L 408.85281 121.596212 
L 409.578782 133.110682 
L 410.304753 53.056627 
L 411.030725 115.835887 
L 411.756697 122.246314 
L 412.482668 98.722196 
L 413.20864 113.690527 
L 413.934612 133.718994 
L 414.660584 58.49761 
L 415.386555 99.041936 
L 416.112527 112.057366 
L 416.838499 47.673603 
L 417.56447 102.282024 
L 418.290442 102.071763 
L 419.016414 118.883393 
L 419.742385 50.23138 
L 420.468357 56.365352 
L 421.194329 59.974928 
L 421.920301 56.145535 
L 422.646272 67.654283 
L 423.372244 110.628406 
L 424.098216 76.97428 
L 424.824187 65.525056 
L 425.550159 64.745256 
L 426.276131 106.682659 
L 427.002102 74.63952 
L 427.728074 93.967441 
L 428.454046 71.210176 
L 429.180018 129.429861 
L 429.905989 121.187476 
L 430.631961 116.638152 
L 431.357933 54.636524 
L 432.083904 70.966064 
L 432.809876 77.242999 
L 433.535848 120.541735 
L 434.26182 74.422948 
L 434.987791 102.397853 
L 435.713763 73.483356 
L 436.439735 105.560019 
L 437.165706 65.22868 
L 437.891678 77.083531 
L 438.61765 73.49991 
L 439.343621 67.881667 
L 440.069593 119.259924 
L 440.795565 74.430829 
L 441.521537 131.317002 
L 442.247508 85.628362 
L 442.97348 140.708751 
L 443.699452 66.523841 
L 444.425423 128.365222 
L 445.877367 64.133524 
L 446.603338 66.827672 
L 447.32931 72.777726 
L 448.055282 113.373357 
L 448.781254 86.022975 
L 449.507225 93.709653 
L 450.233197 171.01628 
L 450.959169 73.345755 
L 451.68514 109.858654 
L 452.411112 110.391113 
L 453.137084 122.064452 
L 453.863055 77.192881 
L 454.589027 73.685242 
L 455.314999 159.514037 
L 456.040971 135.138693 
L 456.766942 74.485462 
L 457.492914 88.674659 
L 458.218886 92.182585 
L 458.944857 117.229684 
L 459.670829 120.351921 
L 460.396801 87.719713 
L 461.122773 86.468097 
L 461.848744 80.556631 
L 462.574716 76.169691 
L 462.574716 76.169691 
" style="fill:none;stroke:#000000;stroke-dasharray:3.7,1.6;stroke-dashoffset:0;"/>
   </g>
   <g id="matplotlib.axis_1">
    <g id="xtick_1">
     <g id="line2d_5">
      <defs>
       <path d="M 0 0 
L 0 3.5 
" id="m3febc3d4d0" style="stroke:#000000;stroke-width:0.8;"/>
      </defs>
      <g>
       <use style="stroke:#000000;stroke-width:0.8;" x="77.809713" xlink:href="#m3febc3d4d0" y="294.118125"/>
      </g>
     </g>
     <g id="text_1">
      <!-- 100 -->
      <defs>
       <path d="M 12.40625 8.296875 
L 28.515625 8.296875 
L 28.515625 63.921875 
L 10.984375 60.40625 
L 10.984375 69.390625 
L 28.421875 72.90625 
L 38.28125 72.90625 
L 38.28125 8.296875 
L 54.390625 8.296875 
L 54.390625 0 
L 12.40625 0 
z
" id="DejaVuSans-49"/>
       <path d="M 31.78125 66.40625 
Q 24.171875 66.40625 20.328125 58.90625 
Q 16.5 51.421875 16.5 36.375 
Q 16.5 21.390625 20.328125 13.890625 
Q 24.171875 6.390625 31.78125 6.390625 
Q 39.453125 6.390625 43.28125 13.890625 
Q 47.125 21.390625 47.125 36.375 
Q 47.125 51.421875 43.28125 58.90625 
Q 39.453125 66.40625 31.78125 66.40625 
z
M 31.78125 74.21875 
Q 44.046875 74.21875 50.515625 64.515625 
Q 56.984375 54.828125 56.984375 36.375 
Q 56.984375 17.96875 50.515625 8.265625 
Q 44.046875 -1.421875 31.78125 -1.421875 
Q 19.53125 -1.421875 13.0625 8.265625 
Q 6.59375 17.96875 6.59375 36.375 
Q 6.59375 54.828125 13.0625 64.515625 
Q 19.53125 74.21875 31.78125 74.21875 
z
" id="DejaVuSans-48"/>
      </defs>
      <g transform="translate(68.265963 308.716563)scale(0.1 -0.1)">
       <use xlink:href="#DejaVuSans-49"/>
       <use x="63.623047" xlink:href="#DejaVuSans-48"/>
       <use x="127.246094" xlink:href="#DejaVuSans-48"/>
      </g>
     </g>
    </g>
    <g id="xtick_2">
     <g id="line2d_6">
      <g>
       <use style="stroke:#000000;stroke-width:0.8;" x="150.406884" xlink:href="#m3febc3d4d0" y="294.118125"/>
      </g>
     </g>
     <g id="text_2">
      <!-- 200 -->
      <defs>
       <path d="M 19.1875 8.296875 
L 53.609375 8.296875 
L 53.609375 0 
L 7.328125 0 
L 7.328125 8.296875 
Q 12.9375 14.109375 22.625 23.890625 
Q 32.328125 33.6875 34.8125 36.53125 
Q 39.546875 41.84375 41.421875 45.53125 
Q 43.3125 49.21875 43.3125 52.78125 
Q 43.3125 58.59375 39.234375 62.25 
Q 35.15625 65.921875 28.609375 65.921875 
Q 23.96875 65.921875 18.8125 64.3125 
Q 13.671875 62.703125 7.8125 59.421875 
L 7.8125 69.390625 
Q 13.765625 71.78125 18.9375 73 
Q 24.125 74.21875 28.421875 74.21875 
Q 39.75 74.21875 46.484375 68.546875 
Q 53.21875 62.890625 53.21875 53.421875 
Q 53.21875 48.921875 51.53125 44.890625 
Q 49.859375 40.875 45.40625 35.40625 
Q 44.1875 33.984375 37.640625 27.21875 
Q 31.109375 20.453125 19.1875 8.296875 
z
" id="DejaVuSans-50"/>
      </defs>
      <g transform="translate(140.863134 308.716563)scale(0.1 -0.1)">
       <use xlink:href="#DejaVuSans-50"/>
       <use x="63.623047" xlink:href="#DejaVuSans-48"/>
       <use x="127.246094" xlink:href="#DejaVuSans-48"/>
      </g>
     </g>
    </g>
    <g id="xtick_3">
     <g id="line2d_7">
      <g>
       <use style="stroke:#000000;stroke-width:0.8;" x="223.004054" xlink:href="#m3febc3d4d0" y="294.118125"/>
      </g>
     </g>
     <g id="text_3">
      <!-- 300 -->
      <defs>
       <path d="M 40.578125 39.3125 
Q 47.65625 37.796875 51.625 33 
Q 55.609375 28.21875 55.609375 21.1875 
Q 55.609375 10.40625 48.1875 4.484375 
Q 40.765625 -1.421875 27.09375 -1.421875 
Q 22.515625 -1.421875 17.65625 -0.515625 
Q 12.796875 0.390625 7.625 2.203125 
L 7.625 11.71875 
Q 11.71875 9.328125 16.59375 8.109375 
Q 21.484375 6.890625 26.8125 6.890625 
Q 36.078125 6.890625 40.9375 10.546875 
Q 45.796875 14.203125 45.796875 21.1875 
Q 45.796875 27.640625 41.28125 31.265625 
Q 36.765625 34.90625 28.71875 34.90625 
L 20.21875 34.90625 
L 20.21875 43.015625 
L 29.109375 43.015625 
Q 36.375 43.015625 40.234375 45.921875 
Q 44.09375 48.828125 44.09375 54.296875 
Q 44.09375 59.90625 40.109375 62.90625 
Q 36.140625 65.921875 28.71875 65.921875 
Q 24.65625 65.921875 20.015625 65.03125 
Q 15.375 64.15625 9.8125 62.3125 
L 9.8125 71.09375 
Q 15.4375 72.65625 20.34375 73.4375 
Q 25.25 74.21875 29.59375 74.21875 
Q 40.828125 74.21875 47.359375 69.109375 
Q 53.90625 64.015625 53.90625 55.328125 
Q 53.90625 49.265625 50.4375 45.09375 
Q 46.96875 40.921875 40.578125 39.3125 
z
" id="DejaVuSans-51"/>
      </defs>
      <g transform="translate(213.460304 308.716563)scale(0.1 -0.1)">
       <use xlink:href="#DejaVuSans-51"/>
       <use x="63.623047" xlink:href="#DejaVuSans-48"/>
       <use x="127.246094" xlink:href="#DejaVuSans-48"/>
      </g>
     </g>
    </g>
    <g id="xtick_4">
     <g id="line2d_8">
      <g>
       <use style="stroke:#000000;stroke-width:0.8;" x="295.601224" xlink:href="#m3febc3d4d0" y="294.118125"/>
      </g>
     </g>
     <g id="text_4">
      <!-- 400 -->
      <defs>
       <path d="M 37.796875 64.3125 
L 12.890625 25.390625 
L 37.796875 25.390625 
z
M 35.203125 72.90625 
L 47.609375 72.90625 
L 47.609375 25.390625 
L 58.015625 25.390625 
L 58.015625 17.1875 
L 47.609375 17.1875 
L 47.609375 0 
L 37.796875 0 
L 37.796875 17.1875 
L 4.890625 17.1875 
L 4.890625 26.703125 
z
" id="DejaVuSans-52"/>
      </defs>
      <g transform="translate(286.057474 308.716563)scale(0.1 -0.1)">
       <use xlink:href="#DejaVuSans-52"/>
       <use x="63.623047" xlink:href="#DejaVuSans-48"/>
       <use x="127.246094" xlink:href="#DejaVuSans-48"/>
      </g>
     </g>
    </g>
    <g id="xtick_5">
     <g id="line2d_9">
      <g>
       <use style="stroke:#000000;stroke-width:0.8;" x="368.198395" xlink:href="#m3febc3d4d0" y="294.118125"/>
      </g>
     </g>
     <g id="text_5">
      <!-- 500 -->
      <defs>
       <path d="M 10.796875 72.90625 
L 49.515625 72.90625 
L 49.515625 64.59375 
L 19.828125 64.59375 
L 19.828125 46.734375 
Q 21.96875 47.46875 24.109375 47.828125 
Q 26.265625 48.1875 28.421875 48.1875 
Q 40.625 48.1875 47.75 41.5 
Q 54.890625 34.8125 54.890625 23.390625 
Q 54.890625 11.625 47.5625 5.09375 
Q 40.234375 -1.421875 26.90625 -1.421875 
Q 22.3125 -1.421875 17.546875 -0.640625 
Q 12.796875 0.140625 7.71875 1.703125 
L 7.71875 11.625 
Q 12.109375 9.234375 16.796875 8.0625 
Q 21.484375 6.890625 26.703125 6.890625 
Q 35.15625 6.890625 40.078125 11.328125 
Q 45.015625 15.765625 45.015625 23.390625 
Q 45.015625 31 40.078125 35.4375 
Q 35.15625 39.890625 26.703125 39.890625 
Q 22.75 39.890625 18.8125 39.015625 
Q 14.890625 38.140625 10.796875 36.28125 
z
" id="DejaVuSans-53"/>
      </defs>
      <g transform="translate(358.654645 308.716563)scale(0.1 -0.1)">
       <use xlink:href="#DejaVuSans-53"/>
       <use x="63.623047" xlink:href="#DejaVuSans-48"/>
       <use x="127.246094" xlink:href="#DejaVuSans-48"/>
      </g>
     </g>
    </g>
    <g id="xtick_6">
     <g id="line2d_10">
      <g>
       <use style="stroke:#000000;stroke-width:0.8;" x="440.795565" xlink:href="#m3febc3d4d0" y="294.118125"/>
      </g>
     </g>
     <g id="text_6">
      <!-- 600 -->
      <defs>
       <path d="M 33.015625 40.375 
Q 26.375 40.375 22.484375 35.828125 
Q 18.609375 31.296875 18.609375 23.390625 
Q 18.609375 15.53125 22.484375 10.953125 
Q 26.375 6.390625 33.015625 6.390625 
Q 39.65625 6.390625 43.53125 10.953125 
Q 47.40625 15.53125 47.40625 23.390625 
Q 47.40625 31.296875 43.53125 35.828125 
Q 39.65625 40.375 33.015625 40.375 
z
M 52.59375 71.296875 
L 52.59375 62.3125 
Q 48.875 64.0625 45.09375 64.984375 
Q 41.3125 65.921875 37.59375 65.921875 
Q 27.828125 65.921875 22.671875 59.328125 
Q 17.53125 52.734375 16.796875 39.40625 
Q 19.671875 43.65625 24.015625 45.921875 
Q 28.375 48.1875 33.59375 48.1875 
Q 44.578125 48.1875 50.953125 41.515625 
Q 57.328125 34.859375 57.328125 23.390625 
Q 57.328125 12.15625 50.6875 5.359375 
Q 44.046875 -1.421875 33.015625 -1.421875 
Q 20.359375 -1.421875 13.671875 8.265625 
Q 6.984375 17.96875 6.984375 36.375 
Q 6.984375 53.65625 15.1875 63.9375 
Q 23.390625 74.21875 37.203125 74.21875 
Q 40.921875 74.21875 44.703125 73.484375 
Q 48.484375 72.75 52.59375 71.296875 
z
" id="DejaVuSans-54"/>
      </defs>
      <g transform="translate(431.251815 308.716563)scale(0.1 -0.1)">
       <use xlink:href="#DejaVuSans-54"/>
       <use x="63.623047" xlink:href="#DejaVuSans-48"/>
       <use x="127.246094" xlink:href="#DejaVuSans-48"/>
      </g>
     </g>
    </g>
    <g id="text_7">
     <!-- Tempo -->
     <defs>
      <path d="M -0.296875 72.90625 
L 61.375 72.90625 
L 61.375 64.59375 
L 35.5 64.59375 
L 35.5 0 
L 25.59375 0 
L 25.59375 64.59375 
L -0.296875 64.59375 
z
" id="DejaVuSans-84"/>
      <path d="M 56.203125 29.59375 
L 56.203125 25.203125 
L 14.890625 25.203125 
Q 15.484375 15.921875 20.484375 11.0625 
Q 25.484375 6.203125 34.421875 6.203125 
Q 39.59375 6.203125 44.453125 7.46875 
Q 49.3125 8.734375 54.109375 11.28125 
L 54.109375 2.78125 
Q 49.265625 0.734375 44.1875 -0.34375 
Q 39.109375 -1.421875 33.890625 -1.421875 
Q 20.796875 -1.421875 13.15625 6.1875 
Q 5.515625 13.8125 5.515625 26.8125 
Q 5.515625 40.234375 12.765625 48.109375 
Q 20.015625 56 32.328125 56 
Q 43.359375 56 49.78125 48.890625 
Q 56.203125 41.796875 56.203125 29.59375 
z
M 47.21875 32.234375 
Q 47.125 39.59375 43.09375 43.984375 
Q 39.0625 48.390625 32.421875 48.390625 
Q 24.90625 48.390625 20.390625 44.140625 
Q 15.875 39.890625 15.1875 32.171875 
z
" id="DejaVuSans-101"/>
      <path d="M 52 44.1875 
Q 55.375 50.25 60.0625 53.125 
Q 64.75 56 71.09375 56 
Q 79.640625 56 84.28125 50.015625 
Q 88.921875 44.046875 88.921875 33.015625 
L 88.921875 0 
L 79.890625 0 
L 79.890625 32.71875 
Q 79.890625 40.578125 77.09375 44.375 
Q 74.3125 48.1875 68.609375 48.1875 
Q 61.625 48.1875 57.5625 43.546875 
Q 53.515625 38.921875 53.515625 30.90625 
L 53.515625 0 
L 44.484375 0 
L 44.484375 32.71875 
Q 44.484375 40.625 41.703125 44.40625 
Q 38.921875 48.1875 33.109375 48.1875 
Q 26.21875 48.1875 22.15625 43.53125 
Q 18.109375 38.875 18.109375 30.90625 
L 18.109375 0 
L 9.078125 0 
L 9.078125 54.6875 
L 18.109375 54.6875 
L 18.109375 46.1875 
Q 21.1875 51.21875 25.484375 53.609375 
Q 29.78125 56 35.6875 56 
Q 41.65625 56 45.828125 52.96875 
Q 50 49.953125 52 44.1875 
z
" id="DejaVuSans-109"/>
      <path d="M 18.109375 8.203125 
L 18.109375 -20.796875 
L 9.078125 -20.796875 
L 9.078125 54.6875 
L 18.109375 54.6875 
L 18.109375 46.390625 
Q 20.953125 51.265625 25.265625 53.625 
Q 29.59375 56 35.59375 56 
Q 45.5625 56 51.78125 48.09375 
Q 58.015625 40.1875 58.015625 27.296875 
Q 58.015625 14.40625 51.78125 6.484375 
Q 45.5625 -1.421875 35.59375 -1.421875 
Q 29.59375 -1.421875 25.265625 0.953125 
Q 20.953125 3.328125 18.109375 8.203125 
z
M 48.6875 27.296875 
Q 48.6875 37.203125 44.609375 42.84375 
Q 40.53125 48.484375 33.40625 48.484375 
Q 26.265625 48.484375 22.1875 42.84375 
Q 18.109375 37.203125 18.109375 27.296875 
Q 18.109375 17.390625 22.1875 11.75 
Q 26.265625 6.109375 33.40625 6.109375 
Q 40.53125 6.109375 44.609375 11.75 
Q 48.6875 17.390625 48.6875 27.296875 
z
" id="DejaVuSans-112"/>
      <path d="M 30.609375 48.390625 
Q 23.390625 48.390625 19.1875 42.75 
Q 14.984375 37.109375 14.984375 27.296875 
Q 14.984375 17.484375 19.15625 11.84375 
Q 23.34375 6.203125 30.609375 6.203125 
Q 37.796875 6.203125 41.984375 11.859375 
Q 46.1875 17.53125 46.1875 27.296875 
Q 46.1875 37.015625 41.984375 42.703125 
Q 37.796875 48.390625 30.609375 48.390625 
z
M 30.609375 56 
Q 42.328125 56 49.015625 48.375 
Q 55.71875 40.765625 55.71875 27.296875 
Q 55.71875 13.875 49.015625 6.21875 
Q 42.328125 -1.421875 30.609375 -1.421875 
Q 18.84375 -1.421875 12.171875 6.21875 
Q 5.515625 13.875 5.515625 27.296875 
Q 5.515625 40.765625 12.171875 48.375 
Q 18.84375 56 30.609375 56 
z
" id="DejaVuSans-111"/>
     </defs>
     <g transform="translate(243.28125 322.394687)scale(0.1 -0.1)">
      <use xlink:href="#DejaVuSans-84"/>
      <use x="44.083984" xlink:href="#DejaVuSans-101"/>
      <use x="105.607422" xlink:href="#DejaVuSans-109"/>
      <use x="203.019531" xlink:href="#DejaVuSans-112"/>
      <use x="266.496094" xlink:href="#DejaVuSans-111"/>
     </g>
    </g>
   </g>
   <g id="matplotlib.axis_2">
    <g id="ytick_1">
     <g id="line2d_11">
      <defs>
       <path d="M 0 0 
L -3.5 0 
" id="m4e03e97b5f" style="stroke:#000000;stroke-width:0.8;"/>
      </defs>
      <g>
       <use style="stroke:#000000;stroke-width:0.8;" x="36.465625" xlink:href="#m4e03e97b5f" y="268.835275"/>
      </g>
     </g>
     <g id="text_8">
      <!-- 0.60 -->
      <defs>
       <path d="M 10.6875 12.40625 
L 21 12.40625 
L 21 0 
L 10.6875 0 
z
" id="DejaVuSans-46"/>
      </defs>
      <g transform="translate(7.2 272.634494)scale(0.1 -0.1)">
       <use xlink:href="#DejaVuSans-48"/>
       <use x="63.623047" xlink:href="#DejaVuSans-46"/>
       <use x="95.410156" xlink:href="#DejaVuSans-54"/>
       <use x="159.033203" xlink:href="#DejaVuSans-48"/>
      </g>
     </g>
    </g>
    <g id="ytick_2">
     <g id="line2d_12">
      <g>
       <use style="stroke:#000000;stroke-width:0.8;" x="36.465625" xlink:href="#m4e03e97b5f" y="232.340073"/>
      </g>
     </g>
     <g id="text_9">
      <!-- 0.65 -->
      <g transform="translate(7.2 236.139291)scale(0.1 -0.1)">
       <use xlink:href="#DejaVuSans-48"/>
       <use x="63.623047" xlink:href="#DejaVuSans-46"/>
       <use x="95.410156" xlink:href="#DejaVuSans-54"/>
       <use x="159.033203" xlink:href="#DejaVuSans-53"/>
      </g>
     </g>
    </g>
    <g id="ytick_3">
     <g id="line2d_13">
      <g>
       <use style="stroke:#000000;stroke-width:0.8;" x="36.465625" xlink:href="#m4e03e97b5f" y="195.844871"/>
      </g>
     </g>
     <g id="text_10">
      <!-- 0.70 -->
      <defs>
       <path d="M 8.203125 72.90625 
L 55.078125 72.90625 
L 55.078125 68.703125 
L 28.609375 0 
L 18.3125 0 
L 43.21875 64.59375 
L 8.203125 64.59375 
z
" id="DejaVuSans-55"/>
      </defs>
      <g transform="translate(7.2 199.644089)scale(0.1 -0.1)">
       <use xlink:href="#DejaVuSans-48"/>
       <use x="63.623047" xlink:href="#DejaVuSans-46"/>
       <use x="95.410156" xlink:href="#DejaVuSans-55"/>
       <use x="159.033203" xlink:href="#DejaVuSans-48"/>
      </g>
     </g>
    </g>
    <g id="ytick_4">
     <g id="line2d_14">
      <g>
       <use style="stroke:#000000;stroke-width:0.8;" x="36.465625" xlink:href="#m4e03e97b5f" y="159.349668"/>
      </g>
     </g>
     <g id="text_11">
      <!-- 0.75 -->
      <g transform="translate(7.2 163.148887)scale(0.1 -0.1)">
       <use xlink:href="#DejaVuSans-48"/>
       <use x="63.623047" xlink:href="#DejaVuSans-46"/>
       <use x="95.410156" xlink:href="#DejaVuSans-55"/>
       <use x="159.033203" xlink:href="#DejaVuSans-53"/>
      </g>
     </g>
    </g>
    <g id="ytick_5">
     <g id="line2d_15">
      <g>
       <use style="stroke:#000000;stroke-width:0.8;" x="36.465625" xlink:href="#m4e03e97b5f" y="122.854466"/>
      </g>
     </g>
     <g id="text_12">
      <!-- 0.80 -->
      <defs>
       <path d="M 31.78125 34.625 
Q 24.75 34.625 20.71875 30.859375 
Q 16.703125 27.09375 16.703125 20.515625 
Q 16.703125 13.921875 20.71875 10.15625 
Q 24.75 6.390625 31.78125 6.390625 
Q 38.8125 6.390625 42.859375 10.171875 
Q 46.921875 13.96875 46.921875 20.515625 
Q 46.921875 27.09375 42.890625 30.859375 
Q 38.875 34.625 31.78125 34.625 
z
M 21.921875 38.8125 
Q 15.578125 40.375 12.03125 44.71875 
Q 8.5 49.078125 8.5 55.328125 
Q 8.5 64.0625 14.71875 69.140625 
Q 20.953125 74.21875 31.78125 74.21875 
Q 42.671875 74.21875 48.875 69.140625 
Q 55.078125 64.0625 55.078125 55.328125 
Q 55.078125 49.078125 51.53125 44.71875 
Q 48 40.375 41.703125 38.8125 
Q 48.828125 37.15625 52.796875 32.3125 
Q 56.78125 27.484375 56.78125 20.515625 
Q 56.78125 9.90625 50.3125 4.234375 
Q 43.84375 -1.421875 31.78125 -1.421875 
Q 19.734375 -1.421875 13.25 4.234375 
Q 6.78125 9.90625 6.78125 20.515625 
Q 6.78125 27.484375 10.78125 32.3125 
Q 14.796875 37.15625 21.921875 38.8125 
z
M 18.3125 54.390625 
Q 18.3125 48.734375 21.84375 45.5625 
Q 25.390625 42.390625 31.78125 42.390625 
Q 38.140625 42.390625 41.71875 45.5625 
Q 45.3125 48.734375 45.3125 54.390625 
Q 45.3125 60.0625 41.71875 63.234375 
Q 38.140625 66.40625 31.78125 66.40625 
Q 25.390625 66.40625 21.84375 63.234375 
Q 18.3125 60.0625 18.3125 54.390625 
z
" id="DejaVuSans-56"/>
      </defs>
      <g transform="translate(7.2 126.653685)scale(0.1 -0.1)">
       <use xlink:href="#DejaVuSans-48"/>
       <use x="63.623047" xlink:href="#DejaVuSans-46"/>
       <use x="95.410156" xlink:href="#DejaVuSans-56"/>
       <use x="159.033203" xlink:href="#DejaVuSans-48"/>
      </g>
     </g>
    </g>
    <g id="ytick_6">
     <g id="line2d_16">
      <g>
       <use style="stroke:#000000;stroke-width:0.8;" x="36.465625" xlink:href="#m4e03e97b5f" y="86.359264"/>
      </g>
     </g>
     <g id="text_13">
      <!-- 0.85 -->
      <g transform="translate(7.2 90.158483)scale(0.1 -0.1)">
       <use xlink:href="#DejaVuSans-48"/>
       <use x="63.623047" xlink:href="#DejaVuSans-46"/>
       <use x="95.410156" xlink:href="#DejaVuSans-56"/>
       <use x="159.033203" xlink:href="#DejaVuSans-53"/>
      </g>
     </g>
    </g>
    <g id="ytick_7">
     <g id="line2d_17">
      <g>
       <use style="stroke:#000000;stroke-width:0.8;" x="36.465625" xlink:href="#m4e03e97b5f" y="49.864062"/>
      </g>
     </g>
     <g id="text_14">
      <!-- 0.90 -->
      <defs>
       <path d="M 10.984375 1.515625 
L 10.984375 10.5 
Q 14.703125 8.734375 18.5 7.8125 
Q 22.3125 6.890625 25.984375 6.890625 
Q 35.75 6.890625 40.890625 13.453125 
Q 46.046875 20.015625 46.78125 33.40625 
Q 43.953125 29.203125 39.59375 26.953125 
Q 35.25 24.703125 29.984375 24.703125 
Q 19.046875 24.703125 12.671875 31.3125 
Q 6.296875 37.9375 6.296875 49.421875 
Q 6.296875 60.640625 12.9375 67.421875 
Q 19.578125 74.21875 30.609375 74.21875 
Q 43.265625 74.21875 49.921875 64.515625 
Q 56.59375 54.828125 56.59375 36.375 
Q 56.59375 19.140625 48.40625 8.859375 
Q 40.234375 -1.421875 26.421875 -1.421875 
Q 22.703125 -1.421875 18.890625 -0.6875 
Q 15.09375 0.046875 10.984375 1.515625 
z
M 30.609375 32.421875 
Q 37.25 32.421875 41.125 36.953125 
Q 45.015625 41.5 45.015625 49.421875 
Q 45.015625 57.28125 41.125 61.84375 
Q 37.25 66.40625 30.609375 66.40625 
Q 23.96875 66.40625 20.09375 61.84375 
Q 16.21875 57.28125 16.21875 49.421875 
Q 16.21875 41.5 20.09375 36.953125 
Q 23.96875 32.421875 30.609375 32.421875 
z
" id="DejaVuSans-57"/>
      </defs>
      <g transform="translate(7.2 53.663281)scale(0.1 -0.1)">
       <use xlink:href="#DejaVuSans-48"/>
       <use x="63.623047" xlink:href="#DejaVuSans-46"/>
       <use x="95.410156" xlink:href="#DejaVuSans-57"/>
       <use x="159.033203" xlink:href="#DejaVuSans-48"/>
      </g>
     </g>
    </g>
   </g>
   <g id="patch_3">
    <path d="M 36.465625 294.118125 
L 36.465625 22.318125 
" style="fill:none;stroke:#000000;stroke-linecap:square;stroke-linejoin:miter;stroke-width:0.8;"/>
   </g>
   <g id="patch_4">
    <path d="M 36.465625 294.118125 
L 482.865625 294.118125 
" style="fill:none;stroke:#000000;stroke-linecap:square;stroke-linejoin:miter;stroke-width:0.8;"/>
   </g>
   <g id="text_15">
    <!-- Gini_bTax -->
    <defs>
     <path d="M 59.515625 10.40625 
L 59.515625 29.984375 
L 43.40625 29.984375 
L 43.40625 38.09375 
L 69.28125 38.09375 
L 69.28125 6.78125 
Q 63.578125 2.734375 56.6875 0.65625 
Q 49.8125 -1.421875 42 -1.421875 
Q 24.90625 -1.421875 15.25 8.5625 
Q 5.609375 18.5625 5.609375 36.375 
Q 5.609375 54.25 15.25 64.234375 
Q 24.90625 74.21875 42 74.21875 
Q 49.125 74.21875 55.546875 72.453125 
Q 61.96875 70.703125 67.390625 67.28125 
L 67.390625 56.78125 
Q 61.921875 61.421875 55.765625 63.765625 
Q 49.609375 66.109375 42.828125 66.109375 
Q 29.4375 66.109375 22.71875 58.640625 
Q 16.015625 51.171875 16.015625 36.375 
Q 16.015625 21.625 22.71875 14.15625 
Q 29.4375 6.6875 42.828125 6.6875 
Q 48.046875 6.6875 52.140625 7.59375 
Q 56.25 8.5 59.515625 10.40625 
z
" id="DejaVuSans-71"/>
     <path d="M 9.421875 54.6875 
L 18.40625 54.6875 
L 18.40625 0 
L 9.421875 0 
z
M 9.421875 75.984375 
L 18.40625 75.984375 
L 18.40625 64.59375 
L 9.421875 64.59375 
z
" id="DejaVuSans-105"/>
     <path d="M 54.890625 33.015625 
L 54.890625 0 
L 45.90625 0 
L 45.90625 32.71875 
Q 45.90625 40.484375 42.875 44.328125 
Q 39.84375 48.1875 33.796875 48.1875 
Q 26.515625 48.1875 22.3125 43.546875 
Q 18.109375 38.921875 18.109375 30.90625 
L 18.109375 0 
L 9.078125 0 
L 9.078125 54.6875 
L 18.109375 54.6875 
L 18.109375 46.1875 
Q 21.34375 51.125 25.703125 53.5625 
Q 30.078125 56 35.796875 56 
Q 45.21875 56 50.046875 50.171875 
Q 54.890625 44.34375 54.890625 33.015625 
z
" id="DejaVuSans-110"/>
     <path d="M 50.984375 -16.609375 
L 50.984375 -23.578125 
L -0.984375 -23.578125 
L -0.984375 -16.609375 
z
" id="DejaVuSans-95"/>
     <path d="M 48.6875 27.296875 
Q 48.6875 37.203125 44.609375 42.84375 
Q 40.53125 48.484375 33.40625 48.484375 
Q 26.265625 48.484375 22.1875 42.84375 
Q 18.109375 37.203125 18.109375 27.296875 
Q 18.109375 17.390625 22.1875 11.75 
Q 26.265625 6.109375 33.40625 6.109375 
Q 40.53125 6.109375 44.609375 11.75 
Q 48.6875 17.390625 48.6875 27.296875 
z
M 18.109375 46.390625 
Q 20.953125 51.265625 25.265625 53.625 
Q 29.59375 56 35.59375 56 
Q 45.5625 56 51.78125 48.09375 
Q 58.015625 40.1875 58.015625 27.296875 
Q 58.015625 14.40625 51.78125 6.484375 
Q 45.5625 -1.421875 35.59375 -1.421875 
Q 29.59375 -1.421875 25.265625 0.953125 
Q 20.953125 3.328125 18.109375 8.203125 
L 18.109375 0 
L 9.078125 0 
L 9.078125 75.984375 
L 18.109375 75.984375 
z
" id="DejaVuSans-98"/>
     <path d="M 34.28125 27.484375 
Q 23.390625 27.484375 19.1875 25 
Q 14.984375 22.515625 14.984375 16.5 
Q 14.984375 11.71875 18.140625 8.90625 
Q 21.296875 6.109375 26.703125 6.109375 
Q 34.1875 6.109375 38.703125 11.40625 
Q 43.21875 16.703125 43.21875 25.484375 
L 43.21875 27.484375 
z
M 52.203125 31.203125 
L 52.203125 0 
L 43.21875 0 
L 43.21875 8.296875 
Q 40.140625 3.328125 35.546875 0.953125 
Q 30.953125 -1.421875 24.3125 -1.421875 
Q 15.921875 -1.421875 10.953125 3.296875 
Q 6 8.015625 6 15.921875 
Q 6 25.140625 12.171875 29.828125 
Q 18.359375 34.515625 30.609375 34.515625 
L 43.21875 34.515625 
L 43.21875 35.40625 
Q 43.21875 41.609375 39.140625 45 
Q 35.0625 48.390625 27.6875 48.390625 
Q 23 48.390625 18.546875 47.265625 
Q 14.109375 46.140625 10.015625 43.890625 
L 10.015625 52.203125 
Q 14.9375 54.109375 19.578125 55.046875 
Q 24.21875 56 28.609375 56 
Q 40.484375 56 46.34375 49.84375 
Q 52.203125 43.703125 52.203125 31.203125 
z
" id="DejaVuSans-97"/>
     <path d="M 54.890625 54.6875 
L 35.109375 28.078125 
L 55.90625 0 
L 45.3125 0 
L 29.390625 21.484375 
L 13.484375 0 
L 2.875 0 
L 24.125 28.609375 
L 4.6875 54.6875 
L 15.28125 54.6875 
L 29.78125 35.203125 
L 44.28125 54.6875 
z
" id="DejaVuSans-120"/>
    </defs>
    <g transform="translate(231.168437 16.318125)scale(0.12 -0.12)">
     <use xlink:href="#DejaVuSans-71"/>
     <use x="77.490234" xlink:href="#DejaVuSans-105"/>
     <use x="105.273438" xlink:href="#DejaVuSans-110"/>
     <use x="168.652344" xlink:href="#DejaVuSans-105"/>
     <use x="196.435547" xlink:href="#DejaVuSans-95"/>
     <use x="246.435547" xlink:href="#DejaVuSans-98"/>
     <use x="309.912109" xlink:href="#DejaVuSans-84"/>
     <use x="354.496094" xlink:href="#DejaVuSans-97"/>
     <use x="415.775391" xlink:href="#DejaVuSans-120"/>
    </g>
   </g>
   <g id="legend_1">
    <g id="patch_5">
     <path d="M 489.865625 190.104844 
L 564.264062 190.104844 
Q 566.264062 190.104844 566.264062 188.104844 
L 566.264062 128.331406 
Q 566.264062 126.331406 564.264062 126.331406 
L 489.865625 126.331406 
Q 487.865625 126.331406 487.865625 128.331406 
L 487.865625 188.104844 
Q 487.865625 190.104844 489.865625 190.104844 
z
" style="fill:#ffffff;opacity:0.8;stroke:#cccccc;stroke-linejoin:miter;"/>
    </g>
    <g id="line2d_18">
     <path d="M 491.865625 134.429844 
L 511.865625 134.429844 
" style="fill:none;stroke:#000000;stroke-dasharray:3.7,1.6;stroke-dashoffset:0;"/>
    </g>
    <g id="line2d_19"/>
    <g id="text_16">
     <!-- Baseline -->
     <defs>
      <path d="M 19.671875 34.8125 
L 19.671875 8.109375 
L 35.5 8.109375 
Q 43.453125 8.109375 47.28125 11.40625 
Q 51.125 14.703125 51.125 21.484375 
Q 51.125 28.328125 47.28125 31.5625 
Q 43.453125 34.8125 35.5 34.8125 
z
M 19.671875 64.796875 
L 19.671875 42.828125 
L 34.28125 42.828125 
Q 41.5 42.828125 45.03125 45.53125 
Q 48.578125 48.25 48.578125 53.8125 
Q 48.578125 59.328125 45.03125 62.0625 
Q 41.5 64.796875 34.28125 64.796875 
z
M 9.8125 72.90625 
L 35.015625 72.90625 
Q 46.296875 72.90625 52.390625 68.21875 
Q 58.5 63.53125 58.5 54.890625 
Q 58.5 48.1875 55.375 44.234375 
Q 52.25 40.28125 46.1875 39.3125 
Q 53.46875 37.75 57.5 32.78125 
Q 61.53125 27.828125 61.53125 20.40625 
Q 61.53125 10.640625 54.890625 5.3125 
Q 48.25 0 35.984375 0 
L 9.8125 0 
z
" id="DejaVuSans-66"/>
      <path d="M 44.28125 53.078125 
L 44.28125 44.578125 
Q 40.484375 46.53125 36.375 47.5 
Q 32.28125 48.484375 27.875 48.484375 
Q 21.1875 48.484375 17.84375 46.4375 
Q 14.5 44.390625 14.5 40.28125 
Q 14.5 37.15625 16.890625 35.375 
Q 19.28125 33.59375 26.515625 31.984375 
L 29.59375 31.296875 
Q 39.15625 29.25 43.1875 25.515625 
Q 47.21875 21.78125 47.21875 15.09375 
Q 47.21875 7.46875 41.1875 3.015625 
Q 35.15625 -1.421875 24.609375 -1.421875 
Q 20.21875 -1.421875 15.453125 -0.5625 
Q 10.6875 0.296875 5.421875 2 
L 5.421875 11.28125 
Q 10.40625 8.6875 15.234375 7.390625 
Q 20.0625 6.109375 24.8125 6.109375 
Q 31.15625 6.109375 34.5625 8.28125 
Q 37.984375 10.453125 37.984375 14.40625 
Q 37.984375 18.0625 35.515625 20.015625 
Q 33.0625 21.96875 24.703125 23.78125 
L 21.578125 24.515625 
Q 13.234375 26.265625 9.515625 29.90625 
Q 5.8125 33.546875 5.8125 39.890625 
Q 5.8125 47.609375 11.28125 51.796875 
Q 16.75 56 26.8125 56 
Q 31.78125 56 36.171875 55.265625 
Q 40.578125 54.546875 44.28125 53.078125 
z
" id="DejaVuSans-115"/>
      <path d="M 9.421875 75.984375 
L 18.40625 75.984375 
L 18.40625 0 
L 9.421875 0 
z
" id="DejaVuSans-108"/>
     </defs>
     <g transform="translate(519.865625 137.929844)scale(0.1 -0.1)">
      <use xlink:href="#DejaVuSans-66"/>
      <use x="68.603516" xlink:href="#DejaVuSans-97"/>
      <use x="129.882812" xlink:href="#DejaVuSans-115"/>
      <use x="181.982422" xlink:href="#DejaVuSans-101"/>
      <use x="243.505859" xlink:href="#DejaVuSans-108"/>
      <use x="271.289062" xlink:href="#DejaVuSans-105"/>
      <use x="299.072266" xlink:href="#DejaVuSans-110"/>
      <use x="362.451172" xlink:href="#DejaVuSans-101"/>
     </g>
    </g>
    <g id="line2d_20">
     <path d="M 491.865625 149.107969 
L 511.865625 149.107969 
" style="fill:none;stroke:#1f77b4;stroke-linecap:square;stroke-width:1.5;"/>
    </g>
    <g id="line2d_21"/>
    <g id="text_17">
     <!-- $\Downarrow \sigma_\psi$ -->
     <defs>
      <path d="M 36.765625 14.3125 
L 41.9375 9.234375 
L 47.015625 14.3125 
L 47.015625 72.90625 
L 52.875 72.90625 
L 52.875 20.171875 
L 57.46875 24.75 
L 63.328125 18.890625 
L 44.09375 -0.34375 
L 39.703125 -0.34375 
L 20.5625 18.890625 
L 26.421875 24.75 
L 30.90625 20.171875 
L 30.90625 72.90625 
L 36.765625 72.90625 
z
" id="DejaVuSans-8659"/>
      <path d="M 34.671875 47.5625 
Q 27.25 47.5625 22.21875 42.1875 
Q 16.890625 36.578125 15.140625 27.296875 
Q 13.1875 17.484375 16.3125 11.8125 
Q 19.390625 6.203125 26.65625 6.203125 
Q 33.84375 6.203125 39.109375 11.859375 
Q 44.4375 17.53125 46.34375 27.296875 
Q 48.046875 36.234375 45.015625 42.1875 
Q 42.1875 47.5625 34.671875 47.5625 
z
M 36.078125 54.734375 
L 65.921875 54.6875 
L 64.15625 45.703125 
L 54.109375 45.703125 
Q 57.90625 38.09375 55.859375 27.296875 
Q 53.21875 13.875 45.0625 6.25 
Q 36.859375 -1.421875 25.140625 -1.421875 
Q 13.375 -1.421875 8.203125 6.25 
Q 3.03125 13.875 5.671875 27.296875 
Q 8.25 40.765625 16.40625 48.390625 
Q 23.1875 54.734375 36.078125 54.734375 
z
" id="DejaVuSans-Oblique-963"/>
      <path d="M 24.859375 -1.21875 
Q 13.921875 0.59375 9.625 5.328125 
Q 4.34375 11.140625 6.640625 23 
L 12.796875 54.6875 
L 21.875 54.6875 
L 15.765625 23.34375 
Q 14.0625 14.40625 17.484375 10.6875 
Q 20.515625 7.46875 26.421875 6.78125 
L 35.6875 54.6875 
L 44.625 54.6875 
L 35.359375 6.84375 
Q 41.890625 7.515625 45.75 10.75 
Q 50.734375 14.84375 52.390625 23.390625 
L 58.453125 54.6875 
L 67.53125 54.6875 
L 61.375 23.046875 
Q 58.984375 10.75 51.5625 5.375 
Q 44.875 0.53125 33.796875 -1.171875 
L 29.984375 -20.796875 
L 21.046875 -20.796875 
z
" id="DejaVuSans-Oblique-968"/>
     </defs>
     <g transform="translate(519.865625 152.607969)scale(0.1 -0.1)">
      <use transform="translate(19.482422 0.09375)" xlink:href="#DejaVuSans-8659"/>
      <use transform="translate(122.753906 0.09375)" xlink:href="#DejaVuSans-Oblique-963"/>
      <use transform="translate(186.132812 -16.3125)scale(0.7)" xlink:href="#DejaVuSans-Oblique-968"/>
     </g>
    </g>
    <g id="line2d_22">
     <path d="M 491.865625 164.806406 
L 511.865625 164.806406 
" style="fill:none;stroke:#ff7f0e;stroke-linecap:square;stroke-width:1.5;"/>
    </g>
    <g id="line2d_23"/>
    <g id="text_18">
     <!-- $\Downarrow s_\psi$ -->
     <defs>
      <path d="M 50 53.078125 
L 48.296875 44.578125 
Q 44.734375 46.53125 40.765625 47.5 
Q 36.8125 48.484375 32.625 48.484375 
Q 25.53125 48.484375 21.453125 46.0625 
Q 17.390625 43.65625 17.390625 39.5 
Q 17.390625 34.671875 26.859375 32.078125 
Q 27.59375 31.890625 27.9375 31.78125 
L 30.8125 30.90625 
Q 39.796875 28.421875 42.796875 25.6875 
Q 45.796875 22.953125 45.796875 18.21875 
Q 45.796875 9.515625 38.890625 4.046875 
Q 31.984375 -1.421875 20.796875 -1.421875 
Q 16.453125 -1.421875 11.671875 -0.578125 
Q 6.890625 0.25 1.125 2 
L 2.875 11.28125 
Q 7.8125 8.734375 12.59375 7.421875 
Q 17.390625 6.109375 21.78125 6.109375 
Q 28.375 6.109375 32.5 8.9375 
Q 36.625 11.765625 36.625 16.109375 
Q 36.625 20.796875 25.78125 23.6875 
L 24.859375 23.921875 
L 21.78125 24.703125 
Q 14.9375 26.515625 11.765625 29.46875 
Q 8.59375 32.421875 8.59375 37.015625 
Q 8.59375 45.75 15.15625 50.875 
Q 21.734375 56 33.015625 56 
Q 37.453125 56 41.671875 55.265625 
Q 45.90625 54.546875 50 53.078125 
z
" id="DejaVuSans-Oblique-115"/>
     </defs>
     <g transform="translate(519.865625 168.306406)scale(0.1 -0.1)">
      <use transform="translate(19.482422 0.09375)" xlink:href="#DejaVuSans-8659"/>
      <use transform="translate(122.753906 0.09375)" xlink:href="#DejaVuSans-Oblique-115"/>
      <use transform="translate(174.853516 -16.3125)scale(0.7)" xlink:href="#DejaVuSans-Oblique-968"/>
     </g>
    </g>
    <g id="line2d_24">
     <path d="M 491.865625 180.504844 
L 511.865625 180.504844 
" style="fill:none;stroke:#2ca02c;stroke-linecap:square;stroke-width:1.5;"/>
    </g>
    <g id="line2d_25"/>
    <g id="text_19">
     <!-- $\Uparrow \eta$ -->
     <defs>
      <path d="M 36.765625 58.59375 
L 36.765625 0 
L 30.90625 0 
L 30.90625 52.734375 
L 26.421875 48.140625 
L 20.5625 54 
L 39.703125 73.25 
L 44.09375 73.25 
L 63.328125 54 
L 57.46875 48.140625 
L 52.875 52.734375 
L 52.875 0 
L 47.015625 0 
L 47.015625 58.59375 
L 41.9375 63.671875 
z
" id="DejaVuSans-8657"/>
      <path d="M 57.859375 33.015625 
L 47.40625 -20.796875 
L 38.421875 -20.796875 
L 48.828125 32.71875 
Q 50.34375 40.484375 48.046875 44.34375 
Q 45.796875 48.1875 39.75 48.1875 
Q 32.46875 48.1875 27.34375 43.5625 
Q 22.265625 38.921875 20.703125 30.90625 
L 14.703125 0 
L 5.671875 0 
L 16.3125 54.6875 
L 25.34375 54.6875 
L 23.6875 46.1875 
Q 27.828125 51.125 32.71875 53.5625 
Q 37.546875 56 43.265625 56 
Q 52.6875 56 56.390625 50.203125 
Q 60.0625 44.34375 57.859375 33.015625 
z
" id="DejaVuSans-Oblique-951"/>
     </defs>
     <g transform="translate(519.865625 184.004844)scale(0.1 -0.1)">
      <use transform="translate(19.482422 0.75)" xlink:href="#DejaVuSans-8657"/>
      <use transform="translate(122.753906 0.75)" xlink:href="#DejaVuSans-Oblique-951"/>
     </g>
    </g>
   </g>
  </g>
 </g>
 <defs>
  <clipPath id="p0d4c115770">
   <rect height="271.8" width="446.4" x="36.465625" y="22.318125"/>
  </clipPath>
 </defs>
</svg>
