<?xml version="1.0" encoding="utf-8" standalone="no"?>
<!DOCTYPE svg PUBLIC "-//W3C//DTD SVG 1.1//EN"
  "http://www.w3.org/Graphics/SVG/1.1/DTD/svg11.dtd">
<!-- Created with matplotlib (https://matplotlib.org/) -->
<svg height="331.674375pt" version="1.1" viewBox="0 0 576.648437 331.674375" width="576.648437pt" xmlns="http://www.w3.org/2000/svg" xmlns:xlink="http://www.w3.org/1999/xlink">
 <defs>
  <style type="text/css">
*{stroke-linecap:butt;stroke-linejoin:round;}
  </style>
 </defs>
 <g id="figure_1">
  <g id="patch_1">
   <path d="M 0 331.674375 
L 576.648437 331.674375 
L 576.648437 0 
L 0 0 
z
" style="fill:#ffffff;"/>
  </g>
  <g id="axes_1">
   <g id="patch_2">
    <path d="M 39.65 294.118125 
L 486.05 294.118125 
L 486.05 22.318125 
L 39.65 22.318125 
z
" style="fill:#ffffff;"/>
   </g>
   <g id="line2d_1">
    <path clip-path="url(#pd8332591f3)" d="M 59.940909 261.190852 
L 60.666881 257.47969 
L 61.392852 187.289656 
L 62.118824 214.060328 
L 62.844796 253.348628 
L 63.570768 262.02993 
L 64.296739 266.884737 
L 65.022711 260.398515 
L 65.748683 244.466884 
L 66.474654 263.709307 
L 67.200626 198.865665 
L 67.926598 196.948767 
L 68.65257 270.345751 
L 69.378541 253.88862 
L 70.104513 200.656798 
L 70.830485 163.153157 
L 71.556456 206.525748 
L 72.282428 197.400127 
L 73.0084 192.127924 
L 73.734371 188.063752 
L 74.460343 97.041488 
L 75.186315 244.363265 
L 75.912287 191.818809 
L 76.638258 197.80762 
L 77.36423 256.127307 
L 78.090202 248.847644 
L 78.816173 250.514478 
L 79.542145 260.804411 
L 80.268117 193.92559 
L 80.994088 208.276194 
L 81.72006 191.197387 
L 82.446032 97.960709 
L 83.172004 146.169771 
L 83.897975 175.233831 
L 84.623947 238.547378 
L 85.349919 261.097391 
L 86.07589 266.710037 
L 87.527834 126.102912 
L 88.253805 144.48257 
L 88.979777 189.031106 
L 89.705749 189.146893 
L 90.431721 129.528904 
L 91.157692 230.268021 
L 91.883664 250.77727 
L 92.609636 185.913108 
L 93.335607 137.615016 
L 94.061579 117.237167 
L 94.787551 138.756274 
L 95.513523 226.226058 
L 96.239494 164.132011 
L 96.965466 129.119837 
L 97.691438 201.266686 
L 98.417409 191.080791 
L 99.143381 152.043223 
L 99.869353 163.184724 
L 100.595324 217.343502 
L 101.321296 255.668171 
L 102.047268 251.22702 
L 102.77324 254.372958 
L 103.499211 261.207825 
L 104.225183 250.124349 
L 104.951155 176.177039 
L 105.677126 139.760508 
L 106.403098 153.353229 
L 107.12907 221.075471 
L 107.855041 253.149567 
L 108.581013 253.7468 
L 109.306985 269.833292 
L 110.032957 267.545575 
L 110.758928 266.155384 
L 111.4849 269.438835 
L 112.210872 200.325083 
L 112.936843 206.297645 
L 113.662815 253.719945 
L 114.388787 273.893627 
L 115.114758 272.567846 
L 115.84073 244.591678 
L 116.566702 228.918543 
L 117.292674 257.499597 
L 118.018645 235.5126 
L 118.744617 182.720365 
L 119.470589 214.8425 
L 120.19656 271.245152 
L 120.922532 270.351393 
L 121.648504 183.077565 
L 122.374476 151.932005 
L 123.100447 249.547495 
L 123.826419 179.430821 
L 124.552391 189.412947 
L 125.278362 246.517295 
L 126.004334 248.075421 
L 126.730306 257.643095 
L 127.456277 264.426483 
L 128.182249 269.702597 
L 128.908221 265.544924 
L 129.634193 250.970772 
L 130.360164 243.794991 
L 131.086136 178.719759 
L 131.812108 129.58381 
L 132.538079 235.101951 
L 133.990023 258.784546 
L 134.715994 260.094979 
L 136.167938 150.13801 
L 136.89391 250.244586 
L 137.619881 267.401196 
L 138.345853 243.109648 
L 139.071825 254.748583 
L 139.797796 253.806738 
L 140.523768 256.768817 
L 141.24974 176.631692 
L 141.975711 131.545131 
L 142.701683 215.34453 
L 143.427655 246.826215 
L 144.153627 267.671663 
L 145.60557 93.458314 
L 146.331542 219.241155 
L 147.057513 251.926348 
L 147.783485 255.51312 
L 148.509457 262.659745 
L 149.235429 251.267901 
L 150.687372 271.022232 
L 151.413344 266.013767 
L 152.139315 271.348703 
L 152.865287 266.644112 
L 153.591259 267.017094 
L 154.31723 256.632115 
L 155.043202 259.376861 
L 155.769174 171.89823 
L 156.495146 192.752452 
L 157.221117 274.08386 
L 157.947089 271.751679 
L 158.673061 242.224954 
L 159.399032 240.047138 
L 160.125004 254.12144 
L 160.850976 271.948625 
L 161.576947 251.944688 
L 162.302919 252.335062 
L 163.028891 263.867897 
L 163.754863 244.90614 
L 164.480834 260.407268 
L 165.932778 271.112564 
L 166.658749 204.648799 
L 167.384721 103.240774 
L 168.110693 177.046966 
L 168.836664 157.394323 
L 169.562636 207.4355 
L 170.288608 266.264042 
L 171.01458 259.797775 
L 171.740551 165.593614 
L 172.466523 109.563354 
L 173.192495 183.45626 
L 173.918466 231.006232 
L 174.644438 267.179925 
L 175.37041 250.135313 
L 176.096382 242.030745 
L 176.822353 251.886616 
L 177.548325 264.960387 
L 178.274297 244.093568 
L 179.000268 242.896662 
L 179.72624 243.51207 
L 180.452212 251.391282 
L 181.178183 245.334379 
L 181.904155 263.037972 
L 182.630127 246.044524 
L 183.356099 190.54172 
L 184.08207 155.126175 
L 184.808042 217.055074 
L 185.534014 263.025683 
L 186.259985 270.363926 
L 186.985957 263.596412 
L 187.711929 270.747354 
L 188.4379 245.995604 
L 189.163872 258.783323 
L 189.889844 247.276723 
L 190.615816 256.541695 
L 191.341787 267.626385 
L 192.067759 243.461611 
L 192.793731 257.547021 
L 193.519702 243.70143 
L 194.245674 255.08475 
L 194.971646 252.926648 
L 195.697617 254.912568 
L 196.423589 263.918986 
L 197.149561 247.917604 
L 197.875533 240.083079 
L 198.601504 237.442674 
L 199.327476 264.099539 
L 200.053448 258.410461 
L 200.779419 257.695891 
L 201.505391 198.746622 
L 202.231363 173.953556 
L 202.957335 272.701161 
L 203.683306 271.915461 
L 204.409278 267.164699 
L 205.13525 267.686797 
L 205.861221 247.027926 
L 206.587193 256.876425 
L 207.313165 155.124573 
L 208.039136 129.689689 
L 208.765108 224.797802 
L 209.49108 265.431684 
L 210.217052 242.18354 
L 210.943023 182.288336 
L 211.668995 142.624625 
L 212.394967 246.700864 
L 213.84691 146.150585 
L 214.572882 215.093361 
L 215.298853 263.404364 
L 216.024825 267.910672 
L 216.750797 261.59507 
L 217.476769 243.261823 
L 218.20274 200.722383 
L 218.928712 254.841364 
L 219.654684 267.230883 
L 220.380655 255.253309 
L 221.106627 262.661955 
L 221.832599 264.452565 
L 222.55857 264.283077 
L 223.284542 254.750407 
L 224.736486 266.63951 
L 225.462457 245.262901 
L 226.188429 194.447216 
L 226.914401 204.633795 
L 227.640372 260.033615 
L 229.092316 128.841933 
L 230.544259 260.334373 
L 231.270231 167.695146 
L 231.996203 136.768523 
L 232.722174 151.2214 
L 233.448146 222.038779 
L 234.174118 266.906991 
L 234.900089 200.338989 
L 235.626061 146.234914 
L 236.352033 207.098468 
L 237.078005 191.097515 
L 237.803976 194.466611 
L 238.529948 241.958947 
L 239.25592 258.468256 
L 239.981891 252.469486 
L 241.433835 119.820694 
L 242.159806 236.360532 
L 242.885778 266.043116 
L 243.61175 262.354115 
L 244.337722 242.243166 
L 245.063693 238.727325 
L 245.789665 163.100887 
L 246.515637 191.455647 
L 247.241608 253.218281 
L 247.96758 166.600605 
L 248.693552 161.195624 
L 249.419523 258.2814 
L 250.145495 186.265298 
L 250.871467 203.320628 
L 252.32341 106.355061 
L 253.049382 136.92052 
L 253.775354 225.161168 
L 254.501325 249.022 
L 255.227297 193.72395 
L 255.953269 203.018528 
L 256.679241 262.889258 
L 257.405212 261.902608 
L 258.131184 257.685373 
L 258.857156 237.167472 
L 259.583127 195.584898 
L 260.309099 195.398679 
L 261.035071 239.277737 
L 261.761042 241.498139 
L 262.487014 224.697876 
L 263.212986 156.679671 
L 263.938958 171.521957 
L 264.664929 192.998876 
L 265.390901 188.225667 
L 266.116873 256.559623 
L 266.842844 264.095849 
L 267.568816 260.82155 
L 269.020759 128.326339 
L 269.746731 229.089807 
L 270.472703 245.924775 
L 271.198675 228.544014 
L 271.924646 244.82323 
L 272.650618 233.139685 
L 273.37659 260.650367 
L 274.102561 263.480003 
L 274.828533 268.004261 
L 275.554505 251.838913 
L 276.280477 173.267002 
L 277.006448 194.950517 
L 277.73242 238.837393 
L 278.458392 228.353184 
L 279.184363 252.923764 
L 279.910335 251.344976 
L 280.636307 263.002247 
L 281.362278 263.379615 
L 282.08825 270.127889 
L 282.814222 270.123993 
L 283.540194 265.238923 
L 284.992137 160.229609 
L 286.44408 157.401843 
L 287.170052 145.899535 
L 287.896024 208.017079 
L 289.347967 127.098371 
L 290.073939 223.435233 
L 290.799911 225.069978 
L 291.525882 229.127171 
L 292.251854 177.92035 
L 292.977826 201.315538 
L 293.703797 261.407484 
L 294.429769 214.808431 
L 295.155741 248.720831 
L 295.881712 243.346865 
L 296.607684 255.347263 
L 297.333656 260.52383 
L 298.059628 255.616341 
L 298.785599 260.34023 
L 299.511571 257.943855 
L 300.237543 191.546506 
L 300.963514 203.961207 
L 301.689486 262.983997 
L 302.415458 236.693034 
L 303.14143 228.522995 
L 303.867401 224.696912 
L 304.593373 258.65163 
L 305.319345 260.798215 
L 306.045316 249.088977 
L 306.771288 247.091987 
L 307.49726 236.960401 
L 308.223231 182.142172 
L 308.949203 110.054902 
L 309.675175 154.563659 
L 310.401147 216.416329 
L 311.127118 250.354745 
L 311.85309 250.380958 
L 312.579062 185.092511 
L 313.305033 188.779694 
L 314.031005 255.703541 
L 314.756977 245.653533 
L 315.482948 232.446099 
L 316.20892 184.327596 
L 317.660864 249.165699 
L 318.386835 255.004573 
L 319.112807 213.854562 
L 319.838779 251.770717 
L 320.56475 152.332829 
L 321.290722 175.971501 
L 322.016694 246.504585 
L 322.742665 233.036227 
L 323.468637 187.816731 
L 324.194609 202.541841 
L 324.920581 235.400229 
L 325.646552 255.993796 
L 327.098496 124.285019 
L 327.824467 141.368145 
L 328.550439 144.378959 
L 329.276411 181.333388 
L 330.002383 175.677523 
L 330.728354 172.786412 
L 331.454326 242.219605 
L 332.180298 235.74683 
L 332.906269 153.889066 
L 334.358213 252.400834 
L 335.084184 185.127324 
L 335.810156 157.81541 
L 336.536128 243.337495 
L 337.2621 220.494543 
L 337.988071 224.740051 
L 338.714043 151.1092 
L 339.440015 126.920038 
L 340.165986 218.904888 
L 340.891958 222.668723 
L 341.61793 162.557506 
L 342.343901 140.206992 
L 343.069873 215.760516 
L 343.795845 248.384237 
L 344.521817 153.19601 
L 345.247788 113.881277 
L 345.97376 180.124961 
L 346.699732 201.558098 
L 347.425703 249.606994 
L 348.151675 124.075019 
L 348.877647 167.232029 
L 349.603618 150.581869 
L 350.32959 92.444202 
L 351.055562 142.242399 
L 351.781534 161.813953 
L 352.507505 222.798776 
L 353.233477 242.190384 
L 353.959449 138.583035 
L 355.411392 245.891344 
L 356.137364 165.927414 
L 356.863336 191.507 
L 357.589307 154.827044 
L 358.315279 203.101756 
L 359.041251 242.80997 
L 359.767222 195.039432 
L 361.219166 240.082422 
L 361.945137 182.307856 
L 362.671109 186.475394 
L 363.397081 146.787567 
L 364.123053 168.82891 
L 364.849024 180.365162 
L 365.574996 91.229318 
L 366.300968 142.602002 
L 367.026939 208.589281 
L 367.752911 219.194831 
L 368.478883 227.174954 
L 369.204854 223.424241 
L 369.930826 214.713324 
L 370.656798 199.63626 
L 371.38277 143.641149 
L 372.108741 113.831424 
L 372.834713 203.242112 
L 373.560685 170.396091 
L 374.286656 196.100217 
L 375.012628 230.579472 
L 375.7386 155.041934 
L 376.464571 182.428542 
L 377.190543 140.92859 
L 377.916515 115.675189 
L 378.642487 216.607896 
L 379.368458 211.067915 
L 380.09443 188.724755 
L 380.820402 228.649381 
L 381.546373 249.685463 
L 382.272345 218.631892 
L 382.998317 238.025573 
L 383.724289 145.655459 
L 384.45026 136.056378 
L 385.176232 104.038435 
L 385.902204 208.173457 
L 386.628175 216.065298 
L 387.354147 124.401756 
L 388.080119 88.033442 
L 388.80609 117.545017 
L 389.532062 103.020113 
L 390.258034 192.065166 
L 390.984006 169.513706 
L 391.709977 155.319069 
L 392.435949 237.598474 
L 393.161921 220.793708 
L 394.613864 197.166528 
L 395.339836 157.048823 
L 396.065807 161.521076 
L 396.791779 193.540741 
L 397.517751 208.959565 
L 398.243723 198.946952 
L 398.969694 216.681937 
L 399.695666 123.197943 
L 400.421638 95.400884 
L 401.147609 120.508477 
L 401.873581 188.092156 
L 402.599553 198.286464 
L 403.325524 226.068933 
L 404.051496 154.593002 
L 404.777468 180.136272 
L 405.50344 165.888866 
L 406.229411 175.18049 
L 406.955383 198.554242 
L 407.681355 211.941068 
L 408.407326 168.055221 
L 409.133298 100.521521 
L 409.85927 92.969401 
L 410.585242 187.564525 
L 411.311213 122.823263 
L 412.037185 101.789582 
L 412.763157 102.764104 
L 413.489128 156.717037 
L 414.2151 194.102407 
L 414.941072 152.005296 
L 415.667043 90.730626 
L 416.393015 122.806482 
L 417.118987 72.368663 
L 417.844959 156.49576 
L 418.57093 116.734129 
L 419.296902 177.943037 
L 420.022874 109.697285 
L 420.748845 90.207895 
L 421.474817 172.056644 
L 422.200789 188.197689 
L 422.92676 173.216467 
L 423.652732 133.613576 
L 424.378704 151.974306 
L 425.830647 93.988368 
L 426.556619 137.704432 
L 427.282591 148.18129 
L 428.008562 90.683684 
L 428.734534 99.908814 
L 429.460506 160.274188 
L 430.186477 137.029886 
L 430.912449 159.808748 
L 431.638421 128.437059 
L 432.364393 154.885218 
L 433.090364 189.465642 
L 433.816336 178.451382 
L 434.542308 157.190949 
L 435.268279 119.137874 
L 435.994251 159.176105 
L 436.720223 178.122989 
L 437.446195 165.572728 
L 438.172166 187.567856 
L 438.898138 160.424911 
L 439.62411 175.634934 
L 440.350081 104.358308 
L 441.802025 71.190547 
L 442.527996 69.250758 
L 443.253968 84.049768 
L 443.97994 70.594597 
L 444.705912 140.715631 
L 445.431883 123.589085 
L 446.157855 134.906375 
L 446.883827 99.288036 
L 447.609798 140.398939 
L 448.33577 155.239052 
L 449.061742 92.160789 
L 449.787713 45.090068 
L 450.513685 53.970132 
L 451.239657 127.189472 
L 451.965629 108.510637 
L 452.6916 96.278929 
L 453.417572 105.455828 
L 454.143544 55.30376 
L 454.869515 74.443672 
L 455.595487 127.470851 
L 456.321459 112.481821 
L 457.04743 65.022177 
L 457.773402 51.546122 
L 458.499374 172.945251 
L 459.225346 179.181345 
L 459.951317 67.001716 
L 460.677289 76.047576 
L 461.403261 66.860022 
L 462.129232 120.074619 
L 462.855204 146.657201 
L 463.581176 99.407191 
L 464.307148 66.468994 
L 465.759091 34.67267 
L 465.759091 34.67267 
" style="fill:none;stroke:#1f77b4;stroke-linecap:square;stroke-width:1.5;"/>
   </g>
   <g id="line2d_2">
    <path clip-path="url(#pd8332591f3)" d="M 59.940909 234.66598 
L 60.666881 243.548739 
L 61.392852 210.285822 
L 62.118824 252.841988 
L 62.844796 266.159797 
L 63.570768 257.151574 
L 64.296739 240.668723 
L 65.022711 232.901311 
L 65.748683 170.730502 
L 66.474654 138.051793 
L 67.200626 245.395967 
L 67.926598 223.897653 
L 68.65257 231.453891 
L 69.378541 245.903917 
L 70.104513 250.16986 
L 70.830485 264.928288 
L 71.556456 270.679262 
L 72.282428 271.558676 
L 73.0084 200.557011 
L 73.734371 204.064298 
L 74.460343 242.279141 
L 75.186315 254.117487 
L 75.912287 249.203227 
L 76.638258 271.900323 
L 77.36423 264.256377 
L 78.090202 196.708598 
L 78.816173 158.85097 
L 79.542145 127.323966 
L 80.268117 230.296308 
L 80.994088 189.719723 
L 81.72006 110.314494 
L 82.446032 192.251916 
L 83.172004 216.819713 
L 83.897975 144.044979 
L 84.623947 216.523642 
L 85.349919 252.612111 
L 86.07589 247.025848 
L 86.801862 258.436729 
L 87.527834 239.81515 
L 88.253805 263.837091 
L 88.979777 270.818089 
L 89.705749 246.45424 
L 90.431721 258.909294 
L 91.157692 274.034738 
L 91.883664 278.354494 
L 92.609636 266.756788 
L 93.335607 245.575774 
L 94.061579 246.925788 
L 94.787551 159.796778 
L 95.513523 157.362658 
L 96.239494 152.896502 
L 97.691438 245.732539 
L 98.417409 240.778335 
L 99.143381 164.84639 
L 99.869353 188.80928 
L 100.595324 228.573738 
L 102.047268 248.467101 
L 102.77324 262.864548 
L 103.499211 266.597242 
L 104.225183 264.849232 
L 104.951155 240.363177 
L 105.677126 211.973754 
L 106.403098 155.507873 
L 107.12907 243.677232 
L 107.855041 254.195967 
L 108.581013 224.92875 
L 109.306985 255.0278 
L 110.032957 260.516519 
L 110.758928 240.033183 
L 111.4849 269.777504 
L 112.210872 266.042143 
L 112.936843 263.452876 
L 113.662815 256.503707 
L 114.388787 184.71074 
L 115.114758 208.362626 
L 115.84073 270.150449 
L 116.566702 191.132275 
L 117.292674 208.102691 
L 118.018645 166.718049 
L 118.744617 203.759957 
L 119.470589 265.907504 
L 120.19656 267.88763 
L 120.922532 255.369562 
L 121.648504 266.104912 
L 122.374476 177.724231 
L 123.100447 112.041867 
L 123.826419 237.49738 
L 124.552391 219.599238 
L 125.278362 179.387931 
L 126.004334 218.54397 
L 126.730306 215.559551 
L 127.456277 171.685993 
L 128.182249 177.533716 
L 128.908221 206.293184 
L 129.634193 243.525926 
L 130.360164 255.296981 
L 131.086136 260.22442 
L 131.812108 238.393166 
L 132.538079 252.662937 
L 133.264051 227.575438 
L 133.990023 163.090049 
L 134.715994 198.080049 
L 135.441966 260.455496 
L 136.167938 258.366538 
L 136.89391 259.728458 
L 137.619881 260.653124 
L 138.345853 263.739499 
L 139.071825 251.302184 
L 139.797796 263.509662 
L 140.523768 252.386143 
L 141.24974 257.673081 
L 141.975711 277.882588 
L 142.701683 271.648606 
L 144.153627 277.584245 
L 144.879598 265.432999 
L 145.60557 267.357026 
L 146.331542 271.575603 
L 147.057513 267.618861 
L 147.783485 272.036496 
L 148.509457 274.553879 
L 149.9614 273.173048 
L 150.687372 275.39752 
L 151.413344 278.335611 
L 152.139315 281.76358 
L 152.865287 280.876901 
L 153.591259 254.04015 
L 154.31723 216.17518 
L 155.043202 228.818169 
L 155.769174 220.090777 
L 156.495146 225.044564 
L 157.221117 260.719025 
L 157.947089 196.621621 
L 158.673061 193.038363 
L 159.399032 260.262163 
L 160.125004 182.30688 
L 160.850976 207.833073 
L 161.576947 266.624555 
L 162.302919 268.970374 
L 163.028891 264.105833 
L 163.754863 258.315845 
L 164.480834 258.946774 
L 165.206806 276.502604 
L 165.932778 250.259386 
L 166.658749 259.705085 
L 167.384721 253.753093 
L 168.110693 191.718328 
L 168.836664 205.682568 
L 169.562636 205.209671 
L 170.288608 229.765608 
L 171.01458 239.8418 
L 171.740551 233.203414 
L 172.466523 217.779726 
L 173.192495 237.55046 
L 174.644438 260.70791 
L 175.37041 172.977586 
L 176.096382 210.951766 
L 176.822353 166.066404 
L 177.548325 146.131951 
L 178.274297 223.612592 
L 179.72624 146.904626 
L 180.452212 168.970115 
L 181.178183 161.350343 
L 181.904155 236.456574 
L 182.630127 169.111451 
L 183.356099 191.863603 
L 184.08207 228.874101 
L 184.808042 153.473946 
L 185.534014 217.840831 
L 186.259985 179.768343 
L 186.985957 180.413659 
L 187.711929 220.660428 
L 188.4379 249.595271 
L 189.163872 234.816388 
L 189.889844 255.15272 
L 190.615816 183.381706 
L 191.341787 156.435808 
L 192.067759 169.395558 
L 192.793731 223.385554 
L 193.519702 210.820596 
L 194.245674 214.279579 
L 194.971646 242.441664 
L 195.697617 170.506675 
L 196.423589 242.572333 
L 197.149561 246.431929 
L 197.875533 260.364255 
L 198.601504 256.393092 
L 199.327476 238.792973 
L 200.053448 258.993825 
L 200.779419 253.426298 
L 202.231363 211.905097 
L 202.957335 239.241214 
L 203.683306 256.921249 
L 204.409278 269.599925 
L 205.13525 253.935511 
L 205.861221 190.486804 
L 206.587193 221.140992 
L 207.313165 176.12423 
L 208.765108 263.672145 
L 209.49108 253.664666 
L 210.217052 190.179128 
L 210.943023 226.020396 
L 211.668995 251.631387 
L 212.394967 267.53859 
L 213.120938 261.837462 
L 213.84691 241.34923 
L 214.572882 257.542437 
L 215.298853 270.142123 
L 216.024825 248.838966 
L 216.750797 245.688392 
L 217.476769 205.535181 
L 218.20274 216.496411 
L 218.928712 267.517819 
L 219.654684 265.341987 
L 220.380655 260.058583 
L 221.106627 266.274461 
L 221.832599 266.91693 
L 222.55857 265.035303 
L 223.284542 273.494091 
L 224.010514 274.860715 
L 224.736486 275.318301 
L 225.462457 268.515387 
L 226.188429 275.142548 
L 226.914401 272.793421 
L 227.640372 272.235748 
L 228.366344 279.91002 
L 229.092316 267.330898 
L 229.818288 266.766358 
L 230.544259 274.782009 
L 231.270231 268.431264 
L 231.996203 268.463427 
L 232.722174 243.60842 
L 233.448146 249.786066 
L 234.174118 206.153857 
L 234.900089 136.97941 
L 235.626061 260.174532 
L 236.352033 263.07988 
L 237.078005 228.943783 
L 237.803976 164.406862 
L 238.529948 236.336195 
L 239.25592 263.58284 
L 239.981891 265.918155 
L 240.707863 244.548278 
L 241.433835 173.887401 
L 242.159806 141.562471 
L 242.885778 242.585996 
L 243.61175 259.149009 
L 244.337722 256.943147 
L 245.063693 267.850095 
L 245.789665 241.264225 
L 246.515637 242.874574 
L 247.96758 154.442836 
L 248.693552 194.518983 
L 249.419523 249.649364 
L 250.145495 195.034375 
L 250.871467 213.446916 
L 251.597439 178.84632 
L 252.32341 158.212658 
L 253.049382 233.505352 
L 253.775354 235.928763 
L 254.501325 240.552022 
L 255.227297 248.533255 
L 255.953269 163.505319 
L 257.405212 258.826957 
L 258.131184 252.105825 
L 258.857156 238.599092 
L 259.583127 257.220159 
L 260.309099 239.259784 
L 261.035071 227.63291 
L 261.761042 255.430358 
L 262.487014 248.891475 
L 263.212986 216.121658 
L 263.938958 230.593303 
L 264.664929 167.339659 
L 265.390901 134.167242 
L 266.116873 238.269511 
L 267.568816 252.594185 
L 268.294788 186.381521 
L 269.020759 146.110792 
L 269.746731 239.719282 
L 270.472703 228.805587 
L 271.198675 247.087626 
L 271.924646 247.080632 
L 272.650618 230.222876 
L 273.37659 241.10759 
L 274.102561 258.91971 
L 274.828533 245.882719 
L 275.554505 134.138786 
L 276.280477 207.193128 
L 277.006448 229.387553 
L 277.73242 177.100139 
L 278.458392 221.244468 
L 279.184363 255.676058 
L 279.910335 170.92338 
L 280.636307 230.392378 
L 281.362278 179.852871 
L 282.08825 226.613896 
L 282.814222 179.420601 
L 283.540194 193.649323 
L 284.266165 166.308821 
L 284.992137 132.200056 
L 285.718109 210.96876 
L 286.44408 165.076356 
L 287.170052 134.197404 
L 287.896024 189.141456 
L 288.621995 162.326732 
L 289.347967 129.821872 
L 290.073939 214.878248 
L 290.799911 139.939295 
L 291.525882 190.565487 
L 292.251854 131.56143 
L 292.977826 190.31153 
L 293.703797 236.852197 
L 294.429769 202.430099 
L 295.155741 242.696322 
L 295.881712 222.309295 
L 296.607684 252.301332 
L 297.333656 259.494212 
L 298.059628 153.99781 
L 298.785599 152.275507 
L 299.511571 148.768588 
L 300.237543 219.575686 
L 300.963514 223.583241 
L 301.689486 233.059745 
L 302.415458 200.045031 
L 303.14143 148.062014 
L 303.867401 118.979825 
L 304.593373 204.899058 
L 305.319345 174.450906 
L 306.045316 226.261317 
L 306.771288 144.735423 
L 307.49726 148.602102 
L 308.223231 127.60648 
L 308.949203 187.692826 
L 309.675175 143.802438 
L 310.401147 225.500874 
L 311.127118 232.266988 
L 312.579062 253.592151 
L 313.305033 212.006836 
L 314.031005 246.804136 
L 314.756977 260.313463 
L 315.482948 177.364409 
L 316.20892 214.144792 
L 316.934892 221.88596 
L 317.660864 224.599125 
L 318.386835 224.589042 
L 319.112807 144.936712 
L 319.838779 227.265732 
L 320.56475 214.856526 
L 321.290722 214.360927 
L 322.016694 241.569906 
L 322.742665 249.870215 
L 323.468637 259.493094 
L 324.194609 263.210775 
L 324.920581 249.911898 
L 325.646552 252.674056 
L 326.372524 259.874748 
L 327.098496 237.398413 
L 327.824467 241.562778 
L 328.550439 166.371963 
L 329.276411 185.833235 
L 330.002383 234.931064 
L 330.728354 210.837198 
L 331.454326 235.873932 
L 332.180298 255.033145 
L 332.906269 229.647328 
L 333.632241 141.884159 
L 334.358213 158.032395 
L 335.084184 234.277677 
L 335.810156 242.824113 
L 336.536128 182.947084 
L 337.2621 198.590488 
L 337.988071 223.560679 
L 338.714043 199.759623 
L 339.440015 227.251784 
L 340.165986 246.451119 
L 340.891958 248.579105 
L 341.61793 236.30392 
L 342.343901 243.558117 
L 343.069873 256.146611 
L 343.795845 247.067576 
L 344.521817 221.500504 
L 345.247788 225.903571 
L 345.97376 245.761381 
L 346.699732 260.657591 
L 347.425703 266.540022 
L 348.151675 206.585821 
L 348.877647 241.812467 
L 349.603618 150.730332 
L 350.32959 193.701898 
L 351.055562 172.78826 
L 352.507505 241.484683 
L 353.233477 236.561408 
L 353.959449 202.911944 
L 354.68542 211.599822 
L 355.411392 248.789614 
L 356.137364 222.491627 
L 356.863336 230.911798 
L 357.589307 156.040577 
L 358.315279 229.415576 
L 359.041251 245.787994 
L 360.493194 147.105739 
L 361.219166 239.454383 
L 361.945137 256.147017 
L 362.671109 235.129302 
L 363.397081 218.468269 
L 364.123053 158.438211 
L 364.849024 119.522093 
L 365.574996 149.512118 
L 366.300968 123.40453 
L 367.026939 205.908833 
L 367.752911 237.440124 
L 368.478883 216.355494 
L 369.204854 212.810959 
L 369.930826 162.476816 
L 370.656798 139.984119 
L 371.38277 137.737337 
L 372.108741 162.527107 
L 372.834713 210.316586 
L 373.560685 200.347019 
L 374.286656 168.644008 
L 375.012628 210.998409 
L 375.7386 190.669206 
L 376.464571 230.930895 
L 377.190543 177.356558 
L 377.916515 194.10868 
L 378.642487 151.416208 
L 379.368458 198.316101 
L 380.09443 202.648334 
L 380.820402 197.618017 
L 381.546373 208.754772 
L 382.272345 153.609651 
L 382.998317 214.012586 
L 383.724289 229.864241 
L 384.45026 161.862386 
L 385.176232 213.444893 
L 385.902204 190.950673 
L 386.628175 138.932789 
L 387.354147 143.738699 
L 388.080119 128.542546 
L 388.80609 120.30952 
L 389.532062 97.58572 
L 390.258034 191.120781 
L 390.984006 133.277542 
L 391.709977 168.203668 
L 392.435949 146.588867 
L 393.161921 120.432766 
L 393.887892 130.366281 
L 394.613864 198.741834 
L 395.339836 192.100616 
L 396.065807 151.367218 
L 396.791779 94.73456 
L 397.517751 192.027808 
L 398.243723 106.067865 
L 398.969694 178.334737 
L 399.695666 119.900332 
L 401.147609 105.118347 
L 401.873581 176.432399 
L 402.599553 83.751327 
L 403.325524 126.457577 
L 404.051496 131.359196 
L 404.777468 166.158674 
L 405.50344 120.317381 
L 406.229411 154.213737 
L 406.955383 112.757861 
L 407.681355 183.506788 
L 408.407326 165.644545 
L 409.133298 159.055492 
L 409.85927 118.095189 
L 410.585242 172.729343 
L 411.311213 97.49131 
L 412.037185 127.107198 
L 412.763157 127.467247 
L 413.489128 153.835289 
L 414.2151 84.616996 
L 414.941072 121.052216 
L 415.667043 74.941158 
L 416.393015 104.711399 
L 417.118987 72.471253 
L 417.844959 152.037092 
L 418.57093 93.202868 
L 419.296902 198.910721 
L 420.022874 85.905915 
L 420.748845 101.142967 
L 421.474817 165.696106 
L 422.200789 169.399203 
L 422.92676 157.292307 
L 423.652732 176.024304 
L 424.378704 92.792006 
L 425.104676 149.294795 
L 425.830647 107.787392 
L 426.556619 172.437071 
L 427.282591 133.134694 
L 428.008562 108.364363 
L 428.734534 125.07257 
L 429.460506 185.19091 
L 430.186477 112.906172 
L 430.912449 194.670333 
L 431.638421 84.396437 
L 432.364393 173.605242 
L 433.090364 170.579108 
L 433.816336 187.891135 
L 434.542308 87.318605 
L 435.268279 103.033201 
L 435.994251 104.380605 
L 436.720223 167.131666 
L 437.446195 119.730191 
L 438.172166 158.679582 
L 438.898138 119.228249 
L 439.62411 160.345318 
L 440.350081 96.857719 
L 441.076053 115.004521 
L 441.802025 89.494498 
L 442.527996 71.518789 
L 443.253968 149.899018 
L 443.97994 104.517468 
L 444.705912 175.923953 
L 445.431883 103.372289 
L 446.157855 166.032834 
L 446.883827 84.87645 
L 447.609798 145.137459 
L 448.33577 147.443985 
L 449.061742 76.654165 
L 449.787713 140.727058 
L 450.513685 75.322529 
L 451.239657 105.278931 
L 451.965629 100.344131 
L 452.6916 166.562603 
L 453.417572 186.804767 
L 454.143544 73.155424 
L 454.869515 182.567268 
L 455.595487 142.574533 
L 456.321459 156.109527 
L 457.04743 85.582308 
L 457.773402 68.50514 
L 458.499374 177.60735 
L 459.225346 184.816483 
L 459.951317 75.393148 
L 460.677289 163.71032 
L 461.403261 101.837119 
L 462.129232 105.615057 
L 462.855204 159.82162 
L 463.581176 174.772291 
L 464.307148 75.183936 
L 465.033119 88.80279 
L 465.759091 48.89129 
L 465.759091 48.89129 
" style="fill:none;stroke:#ff7f0e;stroke-linecap:square;stroke-width:1.5;"/>
   </g>
   <g id="line2d_3">
    <path clip-path="url(#pd8332591f3)" d="M 59.940909 257.003758 
L 60.666881 266.742052 
L 61.392852 243.367177 
L 62.118824 257.032376 
L 62.844796 239.916207 
L 63.570768 260.504751 
L 64.296739 196.454907 
L 65.022711 151.300454 
L 65.748683 206.544413 
L 67.200626 251.413564 
L 67.926598 246.278732 
L 68.65257 250.012904 
L 69.378541 257.305177 
L 70.104513 259.69327 
L 70.830485 175.798038 
L 71.556456 243.593636 
L 72.282428 199.920302 
L 73.0084 214.705422 
L 73.734371 182.385006 
L 74.460343 171.69224 
L 75.186315 255.167506 
L 75.912287 163.275146 
L 76.638258 233.386462 
L 77.36423 227.633226 
L 78.090202 216.112659 
L 78.816173 238.437101 
L 79.542145 229.023593 
L 80.268117 246.639181 
L 80.994088 238.236886 
L 81.72006 244.824415 
L 82.446032 243.119612 
L 83.172004 174.048273 
L 83.897975 127.390799 
L 84.623947 240.659396 
L 85.349919 258.453756 
L 86.07589 253.910719 
L 86.801862 185.110724 
L 87.527834 237.033612 
L 88.253805 238.004449 
L 88.979777 210.495512 
L 89.705749 209.832628 
L 90.431721 225.888985 
L 91.157692 259.208939 
L 92.609636 143.447306 
L 93.335607 239.079776 
L 94.061579 161.770966 
L 94.787551 229.23071 
L 95.513523 257.71995 
L 96.239494 225.11821 
L 96.965466 176.025371 
L 97.691438 174.810184 
L 98.417409 188.990047 
L 99.143381 225.429874 
L 99.869353 183.045671 
L 100.595324 156.236555 
L 101.321296 222.188095 
L 102.047268 233.474707 
L 102.77324 229.111326 
L 103.499211 254.283393 
L 104.225183 263.442493 
L 104.951155 265.490777 
L 106.403098 237.574721 
L 107.12907 263.877211 
L 107.855041 261.750815 
L 108.581013 257.917513 
L 109.306985 243.930271 
L 110.032957 258.297054 
L 110.758928 247.678221 
L 111.4849 265.631907 
L 112.210872 204.260293 
L 112.936843 241.222094 
L 113.662815 216.520743 
L 114.388787 207.764196 
L 115.114758 262.156557 
L 115.84073 265.212706 
L 116.566702 235.258653 
L 117.292674 259.784388 
L 118.018645 237.123414 
L 118.744617 165.913898 
L 119.470589 247.128773 
L 120.19656 263.349769 
L 120.922532 261.682115 
L 121.648504 269.437886 
L 122.374476 268.734944 
L 123.100447 264.547663 
L 124.552391 259.341751 
L 125.278362 271.56914 
L 126.004334 267.413867 
L 126.730306 245.843541 
L 127.456277 248.766451 
L 128.182249 236.964228 
L 128.908221 222.635479 
L 129.634193 247.708231 
L 130.360164 261.631453 
L 131.086136 255.394454 
L 131.812108 257.573053 
L 132.538079 268.280858 
L 133.264051 244.83197 
L 133.990023 260.15677 
L 134.715994 269.332816 
L 135.441966 273.805218 
L 136.167938 268.8088 
L 136.89391 271.080613 
L 137.619881 274.960666 
L 138.345853 271.791212 
L 139.071825 269.882136 
L 139.797796 277.504747 
L 140.523768 277.863082 
L 141.24974 255.118921 
L 141.975711 265.129963 
L 142.701683 190.333174 
L 143.427655 146.078793 
L 144.153627 266.561073 
L 144.879598 198.319468 
L 145.60557 208.959966 
L 146.331542 269.66611 
L 147.057513 242.716925 
L 147.783485 255.802011 
L 148.509457 265.058037 
L 149.235429 195.527173 
L 149.9614 210.088938 
L 150.687372 258.342625 
L 151.413344 262.140629 
L 152.139315 263.710992 
L 153.591259 231.585771 
L 154.31723 240.138966 
L 155.043202 236.512763 
L 155.769174 236.61207 
L 156.495146 215.926774 
L 157.221117 236.611251 
L 157.947089 260.472506 
L 158.673061 243.251376 
L 159.399032 257.263592 
L 160.125004 266.957341 
L 160.850976 269.856148 
L 161.576947 195.57023 
L 162.302919 243.685551 
L 163.028891 248.882052 
L 163.754863 155.984943 
L 164.480834 159.498903 
L 165.206806 252.214572 
L 165.932778 264.647267 
L 166.658749 271.000658 
L 167.384721 268.366311 
L 168.110693 267.981521 
L 169.562636 260.236708 
L 170.288608 197.217647 
L 171.01458 224.883762 
L 171.740551 192.508524 
L 172.466523 169.516919 
L 173.192495 177.529101 
L 173.918466 218.983134 
L 174.644438 252.993354 
L 175.37041 213.854159 
L 176.096382 211.608646 
L 176.822353 220.235386 
L 177.548325 234.847928 
L 178.274297 182.254848 
L 179.000268 200.972012 
L 179.72624 177.247432 
L 180.452212 214.266796 
L 181.178183 169.690798 
L 181.904155 238.007654 
L 182.630127 151.080285 
L 183.356099 223.496803 
L 184.08207 255.573279 
L 184.808042 178.616056 
L 186.259985 230.544195 
L 186.985957 222.502786 
L 187.711929 162.604513 
L 188.4379 175.894584 
L 189.163872 240.525556 
L 189.889844 186.827012 
L 190.615816 184.314547 
L 191.341787 210.208594 
L 192.067759 216.409012 
L 192.793731 157.196039 
L 193.519702 231.142277 
L 194.245674 179.005902 
L 194.971646 173.536921 
L 195.697617 215.04695 
L 196.423589 240.930021 
L 197.149561 237.220464 
L 197.875533 247.722088 
L 198.601504 173.650677 
L 199.327476 162.818255 
L 200.053448 225.646707 
L 200.779419 234.598928 
L 201.505391 188.305088 
L 202.231363 225.69585 
L 202.957335 173.242336 
L 203.683306 233.143632 
L 204.409278 209.895532 
L 205.13525 179.361045 
L 205.861221 176.496821 
L 206.587193 201.996468 
L 207.313165 156.370884 
L 208.039136 236.911937 
L 208.765108 249.851422 
L 209.49108 241.695352 
L 210.217052 250.388817 
L 210.943023 255.396898 
L 211.668995 185.04927 
L 212.394967 230.098612 
L 213.120938 165.896898 
L 213.84691 136.217846 
L 214.572882 205.566473 
L 215.298853 234.670316 
L 216.024825 178.422579 
L 216.750797 225.170741 
L 217.476769 235.26367 
L 218.20274 155.456092 
L 218.928712 229.40487 
L 219.654684 180.929266 
L 220.380655 230.405323 
L 221.106627 223.679284 
L 221.832599 245.475466 
L 222.55857 173.626184 
L 223.284542 241.43513 
L 224.010514 256.686513 
L 225.462457 245.765632 
L 226.188429 255.881265 
L 226.914401 254.69547 
L 227.640372 259.42563 
L 228.366344 238.759309 
L 229.092316 253.783114 
L 229.818288 196.162978 
L 230.544259 218.618998 
L 231.270231 174.521918 
L 231.996203 221.826324 
L 232.722174 195.114017 
L 233.448146 222.57747 
L 234.174118 255.386564 
L 234.900089 164.05454 
L 235.626061 231.957519 
L 236.352033 248.858846 
L 237.078005 225.869395 
L 237.803976 177.664152 
L 238.529948 162.213804 
L 239.25592 226.147312 
L 239.981891 184.872083 
L 240.707863 209.656827 
L 241.433835 220.866671 
L 242.159806 251.818936 
L 243.61175 136.419044 
L 244.337722 141.189407 
L 245.063693 207.42923 
L 245.789665 174.194005 
L 246.515637 231.347746 
L 247.241608 247.909621 
L 247.96758 154.903161 
L 248.693552 201.490051 
L 249.419523 240.663536 
L 250.145495 187.121153 
L 250.871467 219.225774 
L 251.597439 151.48123 
L 252.32341 143.203729 
L 253.049382 215.850577 
L 253.775354 247.956362 
L 254.501325 244.356845 
L 255.227297 231.148566 
L 255.953269 231.306007 
L 256.679241 250.963758 
L 257.405212 178.150628 
L 258.131184 166.727329 
L 258.857156 221.528774 
L 259.583127 253.455984 
L 260.309099 162.179326 
L 261.035071 209.090446 
L 261.761042 236.851591 
L 263.212986 140.720178 
L 263.938958 237.041759 
L 264.664929 183.308053 
L 265.390901 224.889762 
L 266.116873 234.325107 
L 266.842844 253.361073 
L 267.568816 170.967259 
L 268.294788 210.254695 
L 269.020759 224.375172 
L 269.746731 245.793131 
L 270.472703 252.232603 
L 271.198675 246.94581 
L 271.924646 234.390242 
L 272.650618 153.745539 
L 273.37659 186.185739 
L 274.102561 226.108115 
L 274.828533 258.955087 
L 275.554505 228.494162 
L 276.280477 228.29709 
L 277.006448 153.587811 
L 277.73242 205.100325 
L 278.458392 189.483726 
L 279.184363 215.05388 
L 279.910335 217.374339 
L 280.636307 246.703904 
L 281.362278 233.069765 
L 282.08825 246.116098 
L 282.814222 231.161236 
L 283.540194 232.611955 
L 284.266165 227.678747 
L 285.718109 239.938211 
L 286.44408 239.183943 
L 287.170052 236.382357 
L 287.896024 253.619493 
L 288.621995 225.288845 
L 289.347967 233.676419 
L 290.073939 249.256274 
L 290.799911 255.285349 
L 291.525882 248.335757 
L 292.251854 237.211354 
L 292.977826 221.068446 
L 293.703797 260.058642 
L 294.429769 254.618203 
L 295.155741 255.36005 
L 295.881712 235.479692 
L 296.607684 261.387001 
L 297.333656 264.395536 
L 298.059628 254.192683 
L 298.785599 158.340663 
L 299.511571 162.049142 
L 300.237543 242.824094 
L 300.963514 244.269505 
L 301.689486 232.468991 
L 302.415458 204.358381 
L 303.14143 150.814701 
L 304.593373 245.033775 
L 305.319345 248.378371 
L 306.045316 183.176107 
L 306.771288 215.651865 
L 308.223231 144.514217 
L 308.949203 208.260139 
L 309.675175 175.599211 
L 310.401147 242.926106 
L 311.127118 227.099842 
L 311.85309 217.41806 
L 312.579062 252.901039 
L 313.305033 183.005844 
L 314.031005 229.10889 
L 314.756977 233.814225 
L 315.482948 245.413621 
L 316.20892 247.857672 
L 316.934892 151.721173 
L 317.660864 231.882962 
L 318.386835 228.611609 
L 319.112807 154.756075 
L 319.838779 225.658831 
L 320.56475 223.753735 
L 321.290722 228.503541 
L 322.016694 215.899452 
L 322.742665 246.525388 
L 323.468637 254.239071 
L 324.194609 251.028016 
L 324.920581 246.64038 
L 325.646552 218.347393 
L 326.372524 248.321048 
L 327.098496 247.491908 
L 327.824467 226.976465 
L 328.550439 234.649632 
L 329.276411 253.009494 
L 330.002383 175.82018 
L 330.728354 160.584745 
L 331.454326 222.414187 
L 332.180298 205.402297 
L 332.906269 153.763748 
L 333.632241 206.91797 
L 334.358213 242.633384 
L 335.084184 179.075061 
L 335.810156 164.90053 
L 336.536128 226.650267 
L 337.2621 143.068154 
L 337.988071 103.926105 
L 338.714043 136.069483 
L 339.440015 150.207802 
L 340.165986 230.507122 
L 340.891958 212.738938 
L 341.61793 142.683721 
L 342.343901 232.292406 
L 343.069873 223.768499 
L 343.795845 230.5489 
L 344.521817 209.891212 
L 345.247788 138.760012 
L 345.97376 196.022519 
L 346.699732 209.036485 
L 347.425703 249.346699 
L 348.151675 196.329669 
L 348.877647 217.611453 
L 349.603618 201.44184 
L 350.32959 151.197769 
L 351.055562 205.101276 
L 351.781534 180.672265 
L 352.507505 227.078457 
L 353.233477 235.583677 
L 353.959449 181.446343 
L 354.68542 214.553649 
L 355.411392 210.133099 
L 356.137364 135.603792 
L 356.863336 219.361727 
L 357.589307 150.135291 
L 358.315279 228.640719 
L 359.041251 231.295822 
L 359.767222 193.60782 
L 360.493194 230.657087 
L 361.219166 247.743341 
L 361.945137 242.601954 
L 362.671109 222.429018 
L 363.397081 233.55529 
L 364.123053 159.312748 
L 364.849024 149.060581 
L 365.574996 197.722474 
L 366.300968 211.749849 
L 367.026939 234.60906 
L 367.752911 242.047995 
L 368.478883 214.541498 
L 369.204854 232.105354 
L 369.930826 236.386936 
L 370.656798 236.97449 
L 371.38277 222.103507 
L 372.108741 196.86909 
L 372.834713 239.466935 
L 373.560685 215.492496 
L 374.286656 173.595127 
L 375.012628 145.470612 
L 375.7386 211.25993 
L 376.464571 192.14136 
L 377.190543 124.293488 
L 377.916515 146.357384 
L 378.642487 212.750591 
L 379.368458 224.486849 
L 380.09443 215.452104 
L 380.820402 236.264561 
L 381.546373 176.1814 
L 382.272345 224.651142 
L 382.998317 231.070823 
L 383.724289 209.507844 
L 384.45026 237.685045 
L 385.176232 207.995165 
L 385.902204 210.663118 
L 386.628175 233.510867 
L 387.354147 137.471976 
L 388.080119 206.674889 
L 388.80609 155.640744 
L 389.532062 182.244842 
L 390.258034 195.907084 
L 390.984006 149.547381 
L 391.709977 205.486718 
L 392.435949 227.114419 
L 393.161921 220.878324 
L 393.887892 229.084463 
L 394.613864 234.928018 
L 395.339836 205.798208 
L 396.065807 230.478303 
L 396.791779 230.287826 
L 397.517751 221.33599 
L 398.243723 207.088741 
L 398.969694 200.540594 
L 399.695666 126.318466 
L 400.421638 135.513479 
L 401.147609 139.328789 
L 401.873581 216.622292 
L 402.599553 197.070857 
L 403.325524 228.706113 
L 404.051496 209.172247 
L 404.777468 108.468146 
L 405.50344 174.645532 
L 406.229411 153.233274 
L 406.955383 195.071845 
L 407.681355 154.456235 
L 408.407326 144.976567 
L 409.133298 211.324812 
L 409.85927 223.315148 
L 410.585242 129.454284 
L 411.311213 115.639264 
L 412.037185 172.877383 
L 412.763157 211.128452 
L 413.489128 140.963864 
L 414.2151 144.507471 
L 414.941072 182.643623 
L 415.667043 192.987009 
L 416.393015 176.966188 
L 417.118987 179.902756 
L 417.844959 138.416356 
L 419.296902 216.411047 
L 420.022874 122.95321 
L 420.748845 94.784157 
L 421.474817 172.285511 
L 422.200789 174.746269 
L 422.92676 192.152601 
L 423.652732 111.568937 
L 424.378704 193.166488 
L 425.104676 92.027886 
L 425.830647 91.972508 
L 426.556619 167.073054 
L 427.282591 126.717521 
L 428.008562 106.863381 
L 428.734534 125.164173 
L 429.460506 173.81394 
L 430.186477 107.724094 
L 430.912449 177.632562 
L 431.638421 92.795615 
L 432.364393 185.724773 
L 433.090364 173.790366 
L 433.816336 186.550162 
L 434.542308 83.482751 
L 435.268279 179.971253 
L 435.994251 117.560797 
L 436.720223 110.607229 
L 437.446195 106.31402 
L 438.172166 93.646193 
L 438.898138 101.56563 
L 439.62411 96.033233 
L 440.350081 86.717877 
L 441.076053 147.15049 
L 441.802025 74.018359 
L 442.527996 70.915298 
L 443.253968 156.703204 
L 443.97994 78.990194 
L 444.705912 165.762749 
L 445.431883 98.525032 
L 446.157855 176.38133 
L 446.883827 67.864136 
L 447.609798 161.328126 
L 448.33577 124.051401 
L 449.061742 67.62543 
L 449.787713 132.398784 
L 450.513685 70.691672 
L 451.239657 95.953983 
L 451.965629 94.948855 
L 452.6916 152.587229 
L 453.417572 178.991235 
L 454.143544 60.08608 
L 454.869515 91.76719 
L 455.595487 141.165062 
L 456.321459 100.158169 
L 457.04743 79.151337 
L 457.773402 64.217063 
L 458.499374 177.076228 
L 459.225346 154.487121 
L 459.951317 61.951226 
L 460.677289 138.000256 
L 461.403261 97.18934 
L 462.129232 81.804538 
L 462.855204 145.243192 
L 463.581176 151.806528 
L 464.307148 77.273306 
L 465.033119 127.48256 
L 465.759091 46.811084 
L 465.759091 46.811084 
" style="fill:none;stroke:#2ca02c;stroke-linecap:square;stroke-width:1.5;"/>
   </g>
   <g id="line2d_4">
    <path clip-path="url(#pd8332591f3)" d="M 59.940909 260.134281 
L 61.392852 148.748458 
L 62.118824 214.363217 
L 62.844796 236.69764 
L 63.570768 264.585181 
L 64.296739 264.920181 
L 65.022711 234.655491 
L 65.748683 252.500945 
L 66.474654 186.946457 
L 67.200626 235.385719 
L 67.926598 232.745894 
L 68.65257 226.736879 
L 69.378541 257.831645 
L 70.104513 194.492743 
L 70.830485 223.454707 
L 71.556456 239.833098 
L 72.282428 140.819199 
L 73.0084 231.934132 
L 73.734371 169.928098 
L 74.460343 148.021383 
L 75.186315 254.788344 
L 75.912287 189.051114 
L 76.638258 197.735984 
L 77.36423 245.634146 
L 78.090202 231.554775 
L 78.816173 159.508714 
L 79.542145 137.093896 
L 80.268117 241.177972 
L 80.994088 195.667538 
L 81.72006 133.614687 
L 82.446032 230.493427 
L 83.172004 243.198701 
L 83.897975 224.07601 
L 84.623947 153.160307 
L 85.349919 173.193436 
L 86.07589 244.537682 
L 86.801862 262.341038 
L 87.527834 258.641282 
L 88.253805 260.830179 
L 88.979777 242.875936 
L 89.705749 181.534054 
L 90.431721 220.171258 
L 91.157692 265.715727 
L 91.883664 267.142546 
L 92.609636 175.034303 
L 93.335607 211.651271 
L 94.061579 161.60569 
L 94.787551 197.992742 
L 95.513523 255.811106 
L 96.239494 210.924687 
L 96.965466 217.229415 
L 97.691438 248.864774 
L 98.417409 245.551134 
L 99.143381 247.66748 
L 99.869353 246.283373 
L 100.595324 166.590883 
L 101.321296 148.048803 
L 102.047268 221.803614 
L 102.77324 258.785311 
L 103.499211 259.511796 
L 104.225183 195.650709 
L 104.951155 242.281258 
L 105.677126 241.727084 
L 106.403098 162.245192 
L 107.12907 145.114043 
L 107.855041 254.577369 
L 108.581013 250.950449 
L 109.306985 262.884942 
L 110.032957 259.29199 
L 110.758928 180.781124 
L 111.4849 165.681719 
L 112.210872 247.176008 
L 112.936843 260.473586 
L 113.662815 265.752291 
L 114.388787 266.258031 
L 115.114758 243.794389 
L 115.84073 236.890868 
L 116.566702 253.376883 
L 117.292674 258.796596 
L 118.018645 185.552772 
L 118.744617 211.411871 
L 119.470589 269.545626 
L 120.19656 272.068494 
L 120.922532 178.690124 
L 121.648504 142.923435 
L 123.100447 242.569045 
L 123.826419 247.642847 
L 124.552391 223.889149 
L 125.278362 235.759425 
L 126.004334 169.421358 
L 126.730306 137.161043 
L 127.456277 247.042208 
L 128.182249 256.853775 
L 128.908221 189.885283 
L 129.634193 234.295538 
L 130.360164 256.24903 
L 131.086136 221.421864 
L 131.812108 258.720896 
L 132.538079 263.485152 
L 133.264051 173.985436 
L 133.990023 230.70263 
L 134.715994 196.355945 
L 135.441966 211.888275 
L 136.167938 257.54362 
L 136.89391 247.856744 
L 137.619881 263.850998 
L 138.345853 266.170589 
L 139.071825 245.47109 
L 139.797796 258.759793 
L 140.523768 189.429512 
L 141.24974 131.672809 
L 141.975711 250.915015 
L 142.701683 261.381339 
L 143.427655 265.966903 
L 144.153627 274.884225 
L 144.879598 257.731401 
L 145.60557 235.793081 
L 146.331542 189.405416 
L 147.783485 265.061236 
L 148.509457 267.610793 
L 149.235429 250.724789 
L 149.9614 238.980737 
L 150.687372 263.312701 
L 151.413344 262.005404 
L 152.139315 172.158372 
L 152.865287 128.540791 
L 153.591259 249.037956 
L 154.31723 260.992697 
L 155.043202 250.483415 
L 156.495146 222.088658 
L 157.221117 239.618685 
L 157.947089 261.694534 
L 158.673061 242.436048 
L 159.399032 247.833453 
L 160.125004 249.241584 
L 160.850976 261.622787 
L 161.576947 270.328796 
L 162.302919 250.563501 
L 163.028891 254.820881 
L 163.754863 252.579092 
L 164.480834 174.407293 
L 165.206806 204.335083 
L 165.932778 254.534162 
L 166.658749 264.244619 
L 167.384721 260.020075 
L 168.110693 272.675249 
L 168.836664 273.84571 
L 169.562636 273.24329 
L 170.288608 266.902946 
L 171.01458 202.984085 
L 171.740551 222.739674 
L 172.466523 166.467445 
L 173.918466 266.858529 
L 174.644438 259.956875 
L 175.37041 229.053573 
L 176.096382 216.681361 
L 176.822353 239.349241 
L 177.548325 235.79248 
L 178.274297 256.861527 
L 179.000268 257.048273 
L 179.72624 243.049856 
L 180.452212 253.187569 
L 181.178183 216.713262 
L 181.904155 159.69128 
L 182.630127 131.989254 
L 183.356099 241.807747 
L 184.08207 258.819623 
L 184.808042 165.05499 
L 185.534014 205.098855 
L 186.259985 262.379365 
L 186.985957 238.497423 
L 187.711929 252.812243 
L 188.4379 264.503204 
L 189.163872 263.391367 
L 189.889844 240.686795 
L 190.615816 167.028149 
L 191.341787 232.39567 
L 192.067759 197.583562 
L 192.793731 141.252462 
L 193.519702 214.813483 
L 194.245674 174.173854 
L 194.971646 161.5689 
L 196.423589 262.548947 
L 197.149561 254.317407 
L 197.875533 250.103435 
L 198.601504 190.386923 
L 199.327476 151.115258 
L 200.053448 205.915987 
L 200.779419 239.587574 
L 201.505391 173.40832 
L 202.231363 129.429292 
L 202.957335 131.372994 
L 203.683306 206.358307 
L 204.409278 236.74819 
L 205.13525 179.087024 
L 205.861221 167.721998 
L 206.587193 217.087919 
L 207.313165 183.510434 
L 208.039136 238.259176 
L 208.765108 242.458848 
L 209.49108 242.811938 
L 210.217052 252.138216 
L 210.943023 196.903186 
L 211.668995 241.990591 
L 212.394967 263.091942 
L 213.120938 238.470619 
L 213.84691 193.170251 
L 214.572882 169.808871 
L 215.298853 253.754274 
L 216.024825 264.007461 
L 216.750797 233.316542 
L 217.476769 244.071738 
L 218.20274 236.226346 
L 218.928712 236.821876 
L 219.654684 209.733282 
L 220.380655 235.254725 
L 221.106627 251.586113 
L 221.832599 238.675066 
L 222.55857 245.718997 
L 223.284542 251.297379 
L 224.010514 191.449026 
L 224.736486 238.796545 
L 225.462457 263.594142 
L 226.188429 231.574428 
L 226.914401 180.880114 
L 227.640372 235.883507 
L 228.366344 237.519638 
L 229.092316 229.146531 
L 229.818288 256.69931 
L 230.544259 235.294879 
L 231.270231 230.229811 
L 231.996203 173.565962 
L 232.722174 209.693868 
L 233.448146 230.222691 
L 234.174118 264.855392 
L 234.900089 239.892747 
L 235.626061 248.327132 
L 236.352033 234.803939 
L 237.078005 248.519962 
L 237.803976 250.006332 
L 238.529948 224.05592 
L 239.25592 242.176273 
L 239.981891 179.355869 
L 240.707863 170.921703 
L 241.433835 222.91312 
L 242.159806 259.229212 
L 242.885778 244.067609 
L 243.61175 235.674899 
L 244.337722 216.857154 
L 245.063693 248.932559 
L 245.789665 143.858908 
L 246.515637 184.995097 
L 247.241608 255.747083 
L 247.96758 166.445982 
L 248.693552 182.036769 
L 249.419523 241.346043 
L 250.145495 184.842513 
L 250.871467 216.315466 
L 251.597439 155.078302 
L 252.32341 145.877407 
L 253.049382 210.445969 
L 253.775354 239.913583 
L 254.501325 236.285105 
L 255.227297 234.547436 
L 255.953269 186.226956 
L 256.679241 153.869895 
L 257.405212 230.065387 
L 258.131184 233.914446 
L 258.857156 162.487176 
L 259.583127 236.795623 
L 260.309099 168.496547 
L 261.035071 144.232679 
L 261.761042 210.159351 
L 262.487014 172.51206 
L 263.212986 154.757647 
L 263.938958 238.347125 
L 264.664929 182.010582 
L 265.390901 191.214328 
L 266.842844 251.749966 
L 267.568816 174.701416 
L 268.294788 225.886749 
L 269.020759 234.541227 
L 269.746731 205.877257 
L 270.472703 244.840996 
L 271.198675 234.027931 
L 271.924646 229.035231 
L 272.650618 231.540752 
L 273.37659 230.112041 
L 274.102561 176.747186 
L 274.828533 181.969726 
L 275.554505 203.575304 
L 276.280477 235.122709 
L 277.006448 224.34476 
L 277.73242 219.941802 
L 278.458392 240.661986 
L 279.184363 249.186073 
L 279.910335 237.477468 
L 280.636307 259.997303 
L 281.362278 234.803399 
L 282.08825 187.869793 
L 282.814222 214.373314 
L 283.540194 169.280016 
L 284.266165 182.718885 
L 284.992137 216.827562 
L 285.718109 181.915359 
L 286.44408 217.638398 
L 287.170052 164.154739 
L 287.896024 161.795698 
L 288.621995 183.134247 
L 289.347967 219.887977 
L 290.073939 244.713488 
L 291.525882 249.755005 
L 292.251854 254.853631 
L 292.977826 236.954286 
L 293.703797 250.613681 
L 294.429769 236.162275 
L 295.155741 246.142967 
L 295.881712 235.288812 
L 296.607684 246.723643 
L 297.333656 255.023126 
L 298.059628 256.749094 
L 298.785599 257.778208 
L 299.511571 263.246552 
L 300.237543 240.570449 
L 300.963514 252.909126 
L 301.689486 168.940755 
L 302.415458 214.236866 
L 303.14143 236.171891 
L 303.867401 240.636401 
L 304.593373 263.962149 
L 305.319345 262.203878 
L 306.045316 230.520677 
L 306.771288 165.156554 
L 307.49726 193.824983 
L 308.223231 133.497368 
L 308.949203 136.048623 
L 309.675175 177.528933 
L 310.401147 241.938159 
L 311.127118 246.383577 
L 311.85309 255.163231 
L 312.579062 243.7089 
L 314.031005 228.023797 
L 314.756977 248.627605 
L 315.482948 252.816361 
L 316.20892 250.388785 
L 316.934892 231.253626 
L 317.660864 227.710043 
L 318.386835 150.619113 
L 319.112807 217.288189 
L 319.838779 255.624585 
L 321.290722 219.147405 
L 322.016694 250.604084 
L 322.742665 180.443029 
L 323.468637 141.303672 
L 324.194609 223.658176 
L 324.920581 251.636942 
L 325.646552 256.784245 
L 326.372524 192.001676 
L 327.098496 142.652964 
L 327.824467 163.542595 
L 328.550439 233.291264 
L 329.276411 211.148273 
L 330.002383 225.705295 
L 330.728354 137.255322 
L 331.454326 198.566412 
L 332.180298 241.24614 
L 332.906269 185.201712 
L 333.632241 227.491847 
L 334.358213 227.211988 
L 335.084184 159.109948 
L 335.810156 155.587166 
L 336.536128 211.85996 
L 337.2621 160.498921 
L 337.988071 132.315856 
L 338.714043 138.856147 
L 339.440015 155.932796 
L 340.165986 232.488716 
L 340.891958 218.908391 
L 341.61793 148.85294 
L 342.343901 162.481286 
L 343.069873 233.550315 
L 343.795845 226.86514 
L 344.521817 147.023698 
L 345.247788 219.537068 
L 345.97376 194.043768 
L 346.699732 134.029126 
L 347.425703 244.791449 
L 348.151675 114.081308 
L 348.877647 192.788547 
L 349.603618 120.766984 
L 350.32959 119.139402 
L 351.055562 154.773427 
L 351.781534 170.176423 
L 352.507505 203.689828 
L 353.233477 219.137024 
L 353.959449 161.691729 
L 354.68542 194.67085 
L 355.411392 234.213539 
L 356.137364 131.238214 
L 356.863336 185.970402 
L 357.589307 152.631202 
L 358.315279 227.502817 
L 359.041251 209.828495 
L 359.767222 195.778306 
L 360.493194 185.704355 
L 361.219166 240.939571 
L 361.945137 248.425662 
L 362.671109 161.396449 
L 363.397081 114.717308 
L 364.123053 224.637982 
L 364.849024 170.537655 
L 365.574996 99.475531 
L 366.300968 139.392173 
L 367.026939 221.995794 
L 367.752911 219.606134 
L 368.478883 203.009674 
L 369.204854 214.639324 
L 369.930826 147.083116 
L 370.656798 187.810642 
L 371.38277 132.364226 
L 372.108741 117.312354 
L 372.834713 216.169471 
L 373.560685 154.635336 
L 374.286656 225.842379 
L 375.012628 221.427222 
L 376.464571 111.640088 
L 377.190543 120.386952 
L 377.916515 220.815141 
L 378.642487 199.581909 
L 379.368458 132.447687 
L 380.09443 199.010698 
L 380.820402 208.679495 
L 381.546373 204.716605 
L 382.272345 220.575218 
L 382.998317 198.609411 
L 383.724289 230.377134 
L 384.45026 207.951189 
L 385.176232 158.71726 
L 385.902204 199.687179 
L 386.628175 191.225764 
L 387.354147 133.599302 
L 388.080119 185.078445 
L 388.80609 153.213292 
L 389.532062 170.633658 
L 390.258034 210.880406 
L 390.984006 139.128924 
L 391.709977 119.496666 
L 392.435949 209.275855 
L 393.161921 209.706831 
L 393.887892 187.893179 
L 394.613864 223.34588 
L 395.339836 220.814962 
L 396.065807 161.635702 
L 396.791779 143.305094 
L 397.517751 197.474851 
L 398.243723 214.355408 
L 398.969694 212.459486 
L 399.695666 201.568967 
L 400.421638 217.227982 
L 401.147609 185.405909 
L 401.873581 224.294244 
L 402.599553 200.34929 
L 403.325524 155.084454 
L 404.051496 224.403535 
L 404.777468 211.067521 
L 405.50344 209.237717 
L 406.229411 218.197735 
L 406.955383 221.60211 
L 407.681355 224.371249 
L 408.407326 206.093307 
L 409.133298 203.489139 
L 409.85927 140.959823 
L 410.585242 195.980399 
L 411.311213 119.269462 
L 412.037185 204.144653 
L 412.763157 224.166535 
L 413.489128 134.486791 
L 414.2151 198.939114 
L 414.941072 218.315813 
L 415.667043 199.221182 
L 416.393015 205.686551 
L 417.118987 220.677952 
L 417.844959 142.623157 
L 418.57093 180.412586 
L 419.296902 205.725258 
L 420.022874 109.105412 
L 420.748845 182.636014 
L 422.200789 207.864379 
L 422.92676 111.917077 
L 423.652732 94.879421 
L 424.378704 115.259843 
L 425.104676 93.413642 
L 425.830647 115.5821 
L 426.556619 175.097794 
L 427.282591 147.996798 
L 428.008562 107.108425 
L 428.734534 108.035363 
L 429.460506 172.399986 
L 430.186477 135.706664 
L 430.912449 153.769677 
L 431.638421 121.258405 
L 432.364393 184.737627 
L 433.090364 190.628546 
L 433.816336 184.354147 
L 434.542308 75.928539 
L 435.268279 103.141321 
L 435.994251 117.747395 
L 436.720223 178.673412 
L 437.446195 120.348172 
L 438.172166 153.152325 
L 438.898138 110.282693 
L 439.62411 158.415115 
L 440.350081 93.53848 
L 441.076053 99.417592 
L 441.802025 91.071345 
L 442.527996 76.343204 
L 443.253968 158.065479 
L 443.97994 103.173116 
L 444.705912 171.555293 
L 445.431883 115.730485 
L 446.157855 173.044841 
L 446.883827 78.121015 
L 447.609798 162.215352 
L 448.33577 135.097827 
L 449.061742 63.270899 
L 449.787713 61.683677 
L 450.513685 62.424147 
L 451.239657 137.833325 
L 451.965629 97.671024 
L 452.6916 102.380047 
L 453.417572 188.79226 
L 454.143544 58.600894 
L 454.869515 132.273665 
L 455.595487 132.036177 
L 456.321459 149.74784 
L 457.04743 74.757698 
L 457.773402 56.788605 
L 458.499374 176.483077 
L 459.225346 155.705589 
L 459.951317 61.814678 
L 460.677289 80.94334 
L 461.403261 93.499033 
L 462.129232 121.905226 
L 462.855204 134.716978 
L 463.581176 82.222312 
L 464.307148 72.276615 
L 465.033119 60.068714 
L 465.759091 36.66159 
L 465.759091 36.66159 
" style="fill:none;stroke:#000000;stroke-dasharray:3.7,1.6;stroke-dashoffset:0;"/>
   </g>
   <g id="matplotlib.axis_1">
    <g id="xtick_1">
     <g id="line2d_5">
      <defs>
       <path d="M 0 0 
L 0 3.5 
" id="mff4e7d1c7b" style="stroke:#000000;stroke-width:0.8;"/>
      </defs>
      <g>
       <use style="stroke:#000000;stroke-width:0.8;" x="80.994088" xlink:href="#mff4e7d1c7b" y="294.118125"/>
      </g>
     </g>
     <g id="text_1">
      <!-- 100 -->
      <defs>
       <path d="M 12.40625 8.296875 
L 28.515625 8.296875 
L 28.515625 63.921875 
L 10.984375 60.40625 
L 10.984375 69.390625 
L 28.421875 72.90625 
L 38.28125 72.90625 
L 38.28125 8.296875 
L 54.390625 8.296875 
L 54.390625 0 
L 12.40625 0 
z
" id="DejaVuSans-49"/>
       <path d="M 31.78125 66.40625 
Q 24.171875 66.40625 20.328125 58.90625 
Q 16.5 51.421875 16.5 36.375 
Q 16.5 21.390625 20.328125 13.890625 
Q 24.171875 6.390625 31.78125 6.390625 
Q 39.453125 6.390625 43.28125 13.890625 
Q 47.125 21.390625 47.125 36.375 
Q 47.125 51.421875 43.28125 58.90625 
Q 39.453125 66.40625 31.78125 66.40625 
z
M 31.78125 74.21875 
Q 44.046875 74.21875 50.515625 64.515625 
Q 56.984375 54.828125 56.984375 36.375 
Q 56.984375 17.96875 50.515625 8.265625 
Q 44.046875 -1.421875 31.78125 -1.421875 
Q 19.53125 -1.421875 13.0625 8.265625 
Q 6.59375 17.96875 6.59375 36.375 
Q 6.59375 54.828125 13.0625 64.515625 
Q 19.53125 74.21875 31.78125 74.21875 
z
" id="DejaVuSans-48"/>
      </defs>
      <g transform="translate(71.450338 308.716563)scale(0.1 -0.1)">
       <use xlink:href="#DejaVuSans-49"/>
       <use x="63.623047" xlink:href="#DejaVuSans-48"/>
       <use x="127.246094" xlink:href="#DejaVuSans-48"/>
      </g>
     </g>
    </g>
    <g id="xtick_2">
     <g id="line2d_6">
      <g>
       <use style="stroke:#000000;stroke-width:0.8;" x="153.591259" xlink:href="#mff4e7d1c7b" y="294.118125"/>
      </g>
     </g>
     <g id="text_2">
      <!-- 200 -->
      <defs>
       <path d="M 19.1875 8.296875 
L 53.609375 8.296875 
L 53.609375 0 
L 7.328125 0 
L 7.328125 8.296875 
Q 12.9375 14.109375 22.625 23.890625 
Q 32.328125 33.6875 34.8125 36.53125 
Q 39.546875 41.84375 41.421875 45.53125 
Q 43.3125 49.21875 43.3125 52.78125 
Q 43.3125 58.59375 39.234375 62.25 
Q 35.15625 65.921875 28.609375 65.921875 
Q 23.96875 65.921875 18.8125 64.3125 
Q 13.671875 62.703125 7.8125 59.421875 
L 7.8125 69.390625 
Q 13.765625 71.78125 18.9375 73 
Q 24.125 74.21875 28.421875 74.21875 
Q 39.75 74.21875 46.484375 68.546875 
Q 53.21875 62.890625 53.21875 53.421875 
Q 53.21875 48.921875 51.53125 44.890625 
Q 49.859375 40.875 45.40625 35.40625 
Q 44.1875 33.984375 37.640625 27.21875 
Q 31.109375 20.453125 19.1875 8.296875 
z
" id="DejaVuSans-50"/>
      </defs>
      <g transform="translate(144.047509 308.716563)scale(0.1 -0.1)">
       <use xlink:href="#DejaVuSans-50"/>
       <use x="63.623047" xlink:href="#DejaVuSans-48"/>
       <use x="127.246094" xlink:href="#DejaVuSans-48"/>
      </g>
     </g>
    </g>
    <g id="xtick_3">
     <g id="line2d_7">
      <g>
       <use style="stroke:#000000;stroke-width:0.8;" x="226.188429" xlink:href="#mff4e7d1c7b" y="294.118125"/>
      </g>
     </g>
     <g id="text_3">
      <!-- 300 -->
      <defs>
       <path d="M 40.578125 39.3125 
Q 47.65625 37.796875 51.625 33 
Q 55.609375 28.21875 55.609375 21.1875 
Q 55.609375 10.40625 48.1875 4.484375 
Q 40.765625 -1.421875 27.09375 -1.421875 
Q 22.515625 -1.421875 17.65625 -0.515625 
Q 12.796875 0.390625 7.625 2.203125 
L 7.625 11.71875 
Q 11.71875 9.328125 16.59375 8.109375 
Q 21.484375 6.890625 26.8125 6.890625 
Q 36.078125 6.890625 40.9375 10.546875 
Q 45.796875 14.203125 45.796875 21.1875 
Q 45.796875 27.640625 41.28125 31.265625 
Q 36.765625 34.90625 28.71875 34.90625 
L 20.21875 34.90625 
L 20.21875 43.015625 
L 29.109375 43.015625 
Q 36.375 43.015625 40.234375 45.921875 
Q 44.09375 48.828125 44.09375 54.296875 
Q 44.09375 59.90625 40.109375 62.90625 
Q 36.140625 65.921875 28.71875 65.921875 
Q 24.65625 65.921875 20.015625 65.03125 
Q 15.375 64.15625 9.8125 62.3125 
L 9.8125 71.09375 
Q 15.4375 72.65625 20.34375 73.4375 
Q 25.25 74.21875 29.59375 74.21875 
Q 40.828125 74.21875 47.359375 69.109375 
Q 53.90625 64.015625 53.90625 55.328125 
Q 53.90625 49.265625 50.4375 45.09375 
Q 46.96875 40.921875 40.578125 39.3125 
z
" id="DejaVuSans-51"/>
      </defs>
      <g transform="translate(216.644679 308.716563)scale(0.1 -0.1)">
       <use xlink:href="#DejaVuSans-51"/>
       <use x="63.623047" xlink:href="#DejaVuSans-48"/>
       <use x="127.246094" xlink:href="#DejaVuSans-48"/>
      </g>
     </g>
    </g>
    <g id="xtick_4">
     <g id="line2d_8">
      <g>
       <use style="stroke:#000000;stroke-width:0.8;" x="298.785599" xlink:href="#mff4e7d1c7b" y="294.118125"/>
      </g>
     </g>
     <g id="text_4">
      <!-- 400 -->
      <defs>
       <path d="M 37.796875 64.3125 
L 12.890625 25.390625 
L 37.796875 25.390625 
z
M 35.203125 72.90625 
L 47.609375 72.90625 
L 47.609375 25.390625 
L 58.015625 25.390625 
L 58.015625 17.1875 
L 47.609375 17.1875 
L 47.609375 0 
L 37.796875 0 
L 37.796875 17.1875 
L 4.890625 17.1875 
L 4.890625 26.703125 
z
" id="DejaVuSans-52"/>
      </defs>
      <g transform="translate(289.241849 308.716563)scale(0.1 -0.1)">
       <use xlink:href="#DejaVuSans-52"/>
       <use x="63.623047" xlink:href="#DejaVuSans-48"/>
       <use x="127.246094" xlink:href="#DejaVuSans-48"/>
      </g>
     </g>
    </g>
    <g id="xtick_5">
     <g id="line2d_9">
      <g>
       <use style="stroke:#000000;stroke-width:0.8;" x="371.38277" xlink:href="#mff4e7d1c7b" y="294.118125"/>
      </g>
     </g>
     <g id="text_5">
      <!-- 500 -->
      <defs>
       <path d="M 10.796875 72.90625 
L 49.515625 72.90625 
L 49.515625 64.59375 
L 19.828125 64.59375 
L 19.828125 46.734375 
Q 21.96875 47.46875 24.109375 47.828125 
Q 26.265625 48.1875 28.421875 48.1875 
Q 40.625 48.1875 47.75 41.5 
Q 54.890625 34.8125 54.890625 23.390625 
Q 54.890625 11.625 47.5625 5.09375 
Q 40.234375 -1.421875 26.90625 -1.421875 
Q 22.3125 -1.421875 17.546875 -0.640625 
Q 12.796875 0.140625 7.71875 1.703125 
L 7.71875 11.625 
Q 12.109375 9.234375 16.796875 8.0625 
Q 21.484375 6.890625 26.703125 6.890625 
Q 35.15625 6.890625 40.078125 11.328125 
Q 45.015625 15.765625 45.015625 23.390625 
Q 45.015625 31 40.078125 35.4375 
Q 35.15625 39.890625 26.703125 39.890625 
Q 22.75 39.890625 18.8125 39.015625 
Q 14.890625 38.140625 10.796875 36.28125 
z
" id="DejaVuSans-53"/>
      </defs>
      <g transform="translate(361.83902 308.716563)scale(0.1 -0.1)">
       <use xlink:href="#DejaVuSans-53"/>
       <use x="63.623047" xlink:href="#DejaVuSans-48"/>
       <use x="127.246094" xlink:href="#DejaVuSans-48"/>
      </g>
     </g>
    </g>
    <g id="xtick_6">
     <g id="line2d_10">
      <g>
       <use style="stroke:#000000;stroke-width:0.8;" x="443.97994" xlink:href="#mff4e7d1c7b" y="294.118125"/>
      </g>
     </g>
     <g id="text_6">
      <!-- 600 -->
      <defs>
       <path d="M 33.015625 40.375 
Q 26.375 40.375 22.484375 35.828125 
Q 18.609375 31.296875 18.609375 23.390625 
Q 18.609375 15.53125 22.484375 10.953125 
Q 26.375 6.390625 33.015625 6.390625 
Q 39.65625 6.390625 43.53125 10.953125 
Q 47.40625 15.53125 47.40625 23.390625 
Q 47.40625 31.296875 43.53125 35.828125 
Q 39.65625 40.375 33.015625 40.375 
z
M 52.59375 71.296875 
L 52.59375 62.3125 
Q 48.875 64.0625 45.09375 64.984375 
Q 41.3125 65.921875 37.59375 65.921875 
Q 27.828125 65.921875 22.671875 59.328125 
Q 17.53125 52.734375 16.796875 39.40625 
Q 19.671875 43.65625 24.015625 45.921875 
Q 28.375 48.1875 33.59375 48.1875 
Q 44.578125 48.1875 50.953125 41.515625 
Q 57.328125 34.859375 57.328125 23.390625 
Q 57.328125 12.15625 50.6875 5.359375 
Q 44.046875 -1.421875 33.015625 -1.421875 
Q 20.359375 -1.421875 13.671875 8.265625 
Q 6.984375 17.96875 6.984375 36.375 
Q 6.984375 53.65625 15.1875 63.9375 
Q 23.390625 74.21875 37.203125 74.21875 
Q 40.921875 74.21875 44.703125 73.484375 
Q 48.484375 72.75 52.59375 71.296875 
z
" id="DejaVuSans-54"/>
      </defs>
      <g transform="translate(434.43619 308.716563)scale(0.1 -0.1)">
       <use xlink:href="#DejaVuSans-54"/>
       <use x="63.623047" xlink:href="#DejaVuSans-48"/>
       <use x="127.246094" xlink:href="#DejaVuSans-48"/>
      </g>
     </g>
    </g>
    <g id="text_7">
     <!-- Tempo -->
     <defs>
      <path d="M -0.296875 72.90625 
L 61.375 72.90625 
L 61.375 64.59375 
L 35.5 64.59375 
L 35.5 0 
L 25.59375 0 
L 25.59375 64.59375 
L -0.296875 64.59375 
z
" id="DejaVuSans-84"/>
      <path d="M 56.203125 29.59375 
L 56.203125 25.203125 
L 14.890625 25.203125 
Q 15.484375 15.921875 20.484375 11.0625 
Q 25.484375 6.203125 34.421875 6.203125 
Q 39.59375 6.203125 44.453125 7.46875 
Q 49.3125 8.734375 54.109375 11.28125 
L 54.109375 2.78125 
Q 49.265625 0.734375 44.1875 -0.34375 
Q 39.109375 -1.421875 33.890625 -1.421875 
Q 20.796875 -1.421875 13.15625 6.1875 
Q 5.515625 13.8125 5.515625 26.8125 
Q 5.515625 40.234375 12.765625 48.109375 
Q 20.015625 56 32.328125 56 
Q 43.359375 56 49.78125 48.890625 
Q 56.203125 41.796875 56.203125 29.59375 
z
M 47.21875 32.234375 
Q 47.125 39.59375 43.09375 43.984375 
Q 39.0625 48.390625 32.421875 48.390625 
Q 24.90625 48.390625 20.390625 44.140625 
Q 15.875 39.890625 15.1875 32.171875 
z
" id="DejaVuSans-101"/>
      <path d="M 52 44.1875 
Q 55.375 50.25 60.0625 53.125 
Q 64.75 56 71.09375 56 
Q 79.640625 56 84.28125 50.015625 
Q 88.921875 44.046875 88.921875 33.015625 
L 88.921875 0 
L 79.890625 0 
L 79.890625 32.71875 
Q 79.890625 40.578125 77.09375 44.375 
Q 74.3125 48.1875 68.609375 48.1875 
Q 61.625 48.1875 57.5625 43.546875 
Q 53.515625 38.921875 53.515625 30.90625 
L 53.515625 0 
L 44.484375 0 
L 44.484375 32.71875 
Q 44.484375 40.625 41.703125 44.40625 
Q 38.921875 48.1875 33.109375 48.1875 
Q 26.21875 48.1875 22.15625 43.53125 
Q 18.109375 38.875 18.109375 30.90625 
L 18.109375 0 
L 9.078125 0 
L 9.078125 54.6875 
L 18.109375 54.6875 
L 18.109375 46.1875 
Q 21.1875 51.21875 25.484375 53.609375 
Q 29.78125 56 35.6875 56 
Q 41.65625 56 45.828125 52.96875 
Q 50 49.953125 52 44.1875 
z
" id="DejaVuSans-109"/>
      <path d="M 18.109375 8.203125 
L 18.109375 -20.796875 
L 9.078125 -20.796875 
L 9.078125 54.6875 
L 18.109375 54.6875 
L 18.109375 46.390625 
Q 20.953125 51.265625 25.265625 53.625 
Q 29.59375 56 35.59375 56 
Q 45.5625 56 51.78125 48.09375 
Q 58.015625 40.1875 58.015625 27.296875 
Q 58.015625 14.40625 51.78125 6.484375 
Q 45.5625 -1.421875 35.59375 -1.421875 
Q 29.59375 -1.421875 25.265625 0.953125 
Q 20.953125 3.328125 18.109375 8.203125 
z
M 48.6875 27.296875 
Q 48.6875 37.203125 44.609375 42.84375 
Q 40.53125 48.484375 33.40625 48.484375 
Q 26.265625 48.484375 22.1875 42.84375 
Q 18.109375 37.203125 18.109375 27.296875 
Q 18.109375 17.390625 22.1875 11.75 
Q 26.265625 6.109375 33.40625 6.109375 
Q 40.53125 6.109375 44.609375 11.75 
Q 48.6875 17.390625 48.6875 27.296875 
z
" id="DejaVuSans-112"/>
      <path d="M 30.609375 48.390625 
Q 23.390625 48.390625 19.1875 42.75 
Q 14.984375 37.109375 14.984375 27.296875 
Q 14.984375 17.484375 19.15625 11.84375 
Q 23.34375 6.203125 30.609375 6.203125 
Q 37.796875 6.203125 41.984375 11.859375 
Q 46.1875 17.53125 46.1875 27.296875 
Q 46.1875 37.015625 41.984375 42.703125 
Q 37.796875 48.390625 30.609375 48.390625 
z
M 30.609375 56 
Q 42.328125 56 49.015625 48.375 
Q 55.71875 40.765625 55.71875 27.296875 
Q 55.71875 13.875 49.015625 6.21875 
Q 42.328125 -1.421875 30.609375 -1.421875 
Q 18.84375 -1.421875 12.171875 6.21875 
Q 5.515625 13.875 5.515625 27.296875 
Q 5.515625 40.765625 12.171875 48.375 
Q 18.84375 56 30.609375 56 
z
" id="DejaVuSans-111"/>
     </defs>
     <g transform="translate(246.465625 322.394687)scale(0.1 -0.1)">
      <use xlink:href="#DejaVuSans-84"/>
      <use x="44.083984" xlink:href="#DejaVuSans-101"/>
      <use x="105.607422" xlink:href="#DejaVuSans-109"/>
      <use x="203.019531" xlink:href="#DejaVuSans-112"/>
      <use x="266.496094" xlink:href="#DejaVuSans-111"/>
     </g>
    </g>
   </g>
   <g id="matplotlib.axis_2">
    <g id="ytick_1">
     <g id="line2d_11">
      <defs>
       <path d="M 0 0 
L -3.5 0 
" id="m09eeedc635" style="stroke:#000000;stroke-width:0.8;"/>
      </defs>
      <g>
       <use style="stroke:#000000;stroke-width:0.8;" x="39.65" xlink:href="#m09eeedc635" y="282.751768"/>
      </g>
     </g>
     <g id="text_8">
      <!-- 200 -->
      <g transform="translate(13.5625 286.550987)scale(0.1 -0.1)">
       <use xlink:href="#DejaVuSans-50"/>
       <use x="63.623047" xlink:href="#DejaVuSans-48"/>
       <use x="127.246094" xlink:href="#DejaVuSans-48"/>
      </g>
     </g>
    </g>
    <g id="ytick_2">
     <g id="line2d_12">
      <g>
       <use style="stroke:#000000;stroke-width:0.8;" x="39.65" xlink:href="#m09eeedc635" y="251.976184"/>
      </g>
     </g>
     <g id="text_9">
      <!-- 400 -->
      <g transform="translate(13.5625 255.775403)scale(0.1 -0.1)">
       <use xlink:href="#DejaVuSans-52"/>
       <use x="63.623047" xlink:href="#DejaVuSans-48"/>
       <use x="127.246094" xlink:href="#DejaVuSans-48"/>
      </g>
     </g>
    </g>
    <g id="ytick_3">
     <g id="line2d_13">
      <g>
       <use style="stroke:#000000;stroke-width:0.8;" x="39.65" xlink:href="#m09eeedc635" y="221.200601"/>
      </g>
     </g>
     <g id="text_10">
      <!-- 600 -->
      <g transform="translate(13.5625 224.999819)scale(0.1 -0.1)">
       <use xlink:href="#DejaVuSans-54"/>
       <use x="63.623047" xlink:href="#DejaVuSans-48"/>
       <use x="127.246094" xlink:href="#DejaVuSans-48"/>
      </g>
     </g>
    </g>
    <g id="ytick_4">
     <g id="line2d_14">
      <g>
       <use style="stroke:#000000;stroke-width:0.8;" x="39.65" xlink:href="#m09eeedc635" y="190.425017"/>
      </g>
     </g>
     <g id="text_11">
      <!-- 800 -->
      <defs>
       <path d="M 31.78125 34.625 
Q 24.75 34.625 20.71875 30.859375 
Q 16.703125 27.09375 16.703125 20.515625 
Q 16.703125 13.921875 20.71875 10.15625 
Q 24.75 6.390625 31.78125 6.390625 
Q 38.8125 6.390625 42.859375 10.171875 
Q 46.921875 13.96875 46.921875 20.515625 
Q 46.921875 27.09375 42.890625 30.859375 
Q 38.875 34.625 31.78125 34.625 
z
M 21.921875 38.8125 
Q 15.578125 40.375 12.03125 44.71875 
Q 8.5 49.078125 8.5 55.328125 
Q 8.5 64.0625 14.71875 69.140625 
Q 20.953125 74.21875 31.78125 74.21875 
Q 42.671875 74.21875 48.875 69.140625 
Q 55.078125 64.0625 55.078125 55.328125 
Q 55.078125 49.078125 51.53125 44.71875 
Q 48 40.375 41.703125 38.8125 
Q 48.828125 37.15625 52.796875 32.3125 
Q 56.78125 27.484375 56.78125 20.515625 
Q 56.78125 9.90625 50.3125 4.234375 
Q 43.84375 -1.421875 31.78125 -1.421875 
Q 19.734375 -1.421875 13.25 4.234375 
Q 6.78125 9.90625 6.78125 20.515625 
Q 6.78125 27.484375 10.78125 32.3125 
Q 14.796875 37.15625 21.921875 38.8125 
z
M 18.3125 54.390625 
Q 18.3125 48.734375 21.84375 45.5625 
Q 25.390625 42.390625 31.78125 42.390625 
Q 38.140625 42.390625 41.71875 45.5625 
Q 45.3125 48.734375 45.3125 54.390625 
Q 45.3125 60.0625 41.71875 63.234375 
Q 38.140625 66.40625 31.78125 66.40625 
Q 25.390625 66.40625 21.84375 63.234375 
Q 18.3125 60.0625 18.3125 54.390625 
z
" id="DejaVuSans-56"/>
      </defs>
      <g transform="translate(13.5625 194.224236)scale(0.1 -0.1)">
       <use xlink:href="#DejaVuSans-56"/>
       <use x="63.623047" xlink:href="#DejaVuSans-48"/>
       <use x="127.246094" xlink:href="#DejaVuSans-48"/>
      </g>
     </g>
    </g>
    <g id="ytick_5">
     <g id="line2d_15">
      <g>
       <use style="stroke:#000000;stroke-width:0.8;" x="39.65" xlink:href="#m09eeedc635" y="159.649433"/>
      </g>
     </g>
     <g id="text_12">
      <!-- 1000 -->
      <g transform="translate(7.2 163.448652)scale(0.1 -0.1)">
       <use xlink:href="#DejaVuSans-49"/>
       <use x="63.623047" xlink:href="#DejaVuSans-48"/>
       <use x="127.246094" xlink:href="#DejaVuSans-48"/>
       <use x="190.869141" xlink:href="#DejaVuSans-48"/>
      </g>
     </g>
    </g>
    <g id="ytick_6">
     <g id="line2d_16">
      <g>
       <use style="stroke:#000000;stroke-width:0.8;" x="39.65" xlink:href="#m09eeedc635" y="128.873849"/>
      </g>
     </g>
     <g id="text_13">
      <!-- 1200 -->
      <g transform="translate(7.2 132.673068)scale(0.1 -0.1)">
       <use xlink:href="#DejaVuSans-49"/>
       <use x="63.623047" xlink:href="#DejaVuSans-50"/>
       <use x="127.246094" xlink:href="#DejaVuSans-48"/>
       <use x="190.869141" xlink:href="#DejaVuSans-48"/>
      </g>
     </g>
    </g>
    <g id="ytick_7">
     <g id="line2d_17">
      <g>
       <use style="stroke:#000000;stroke-width:0.8;" x="39.65" xlink:href="#m09eeedc635" y="98.098266"/>
      </g>
     </g>
     <g id="text_14">
      <!-- 1400 -->
      <g transform="translate(7.2 101.897484)scale(0.1 -0.1)">
       <use xlink:href="#DejaVuSans-49"/>
       <use x="63.623047" xlink:href="#DejaVuSans-52"/>
       <use x="127.246094" xlink:href="#DejaVuSans-48"/>
       <use x="190.869141" xlink:href="#DejaVuSans-48"/>
      </g>
     </g>
    </g>
    <g id="ytick_8">
     <g id="line2d_18">
      <g>
       <use style="stroke:#000000;stroke-width:0.8;" x="39.65" xlink:href="#m09eeedc635" y="67.322682"/>
      </g>
     </g>
     <g id="text_15">
      <!-- 1600 -->
      <g transform="translate(7.2 71.121901)scale(0.1 -0.1)">
       <use xlink:href="#DejaVuSans-49"/>
       <use x="63.623047" xlink:href="#DejaVuSans-54"/>
       <use x="127.246094" xlink:href="#DejaVuSans-48"/>
       <use x="190.869141" xlink:href="#DejaVuSans-48"/>
      </g>
     </g>
    </g>
    <g id="ytick_9">
     <g id="line2d_19">
      <g>
       <use style="stroke:#000000;stroke-width:0.8;" x="39.65" xlink:href="#m09eeedc635" y="36.547098"/>
      </g>
     </g>
     <g id="text_16">
      <!-- 1800 -->
      <g transform="translate(7.2 40.346317)scale(0.1 -0.1)">
       <use xlink:href="#DejaVuSans-49"/>
       <use x="63.623047" xlink:href="#DejaVuSans-56"/>
       <use x="127.246094" xlink:href="#DejaVuSans-48"/>
       <use x="190.869141" xlink:href="#DejaVuSans-48"/>
      </g>
     </g>
    </g>
   </g>
   <g id="patch_3">
    <path d="M 39.65 294.118125 
L 39.65 22.318125 
" style="fill:none;stroke:#000000;stroke-linecap:square;stroke-linejoin:miter;stroke-width:0.8;"/>
   </g>
   <g id="patch_4">
    <path d="M 39.65 294.118125 
L 486.05 294.118125 
" style="fill:none;stroke:#000000;stroke-linecap:square;stroke-linejoin:miter;stroke-width:0.8;"/>
   </g>
   <g id="text_17">
    <!-- Ydw_total -->
    <defs>
     <path d="M -0.203125 72.90625 
L 10.40625 72.90625 
L 30.609375 42.921875 
L 50.6875 72.90625 
L 61.28125 72.90625 
L 35.5 34.71875 
L 35.5 0 
L 25.59375 0 
L 25.59375 34.71875 
z
" id="DejaVuSans-89"/>
     <path d="M 45.40625 46.390625 
L 45.40625 75.984375 
L 54.390625 75.984375 
L 54.390625 0 
L 45.40625 0 
L 45.40625 8.203125 
Q 42.578125 3.328125 38.25 0.953125 
Q 33.9375 -1.421875 27.875 -1.421875 
Q 17.96875 -1.421875 11.734375 6.484375 
Q 5.515625 14.40625 5.515625 27.296875 
Q 5.515625 40.1875 11.734375 48.09375 
Q 17.96875 56 27.875 56 
Q 33.9375 56 38.25 53.625 
Q 42.578125 51.265625 45.40625 46.390625 
z
M 14.796875 27.296875 
Q 14.796875 17.390625 18.875 11.75 
Q 22.953125 6.109375 30.078125 6.109375 
Q 37.203125 6.109375 41.296875 11.75 
Q 45.40625 17.390625 45.40625 27.296875 
Q 45.40625 37.203125 41.296875 42.84375 
Q 37.203125 48.484375 30.078125 48.484375 
Q 22.953125 48.484375 18.875 42.84375 
Q 14.796875 37.203125 14.796875 27.296875 
z
" id="DejaVuSans-100"/>
     <path d="M 4.203125 54.6875 
L 13.1875 54.6875 
L 24.421875 12.015625 
L 35.59375 54.6875 
L 46.1875 54.6875 
L 57.421875 12.015625 
L 68.609375 54.6875 
L 77.59375 54.6875 
L 63.28125 0 
L 52.6875 0 
L 40.921875 44.828125 
L 29.109375 0 
L 18.5 0 
z
" id="DejaVuSans-119"/>
     <path d="M 50.984375 -16.609375 
L 50.984375 -23.578125 
L -0.984375 -23.578125 
L -0.984375 -16.609375 
z
" id="DejaVuSans-95"/>
     <path d="M 18.3125 70.21875 
L 18.3125 54.6875 
L 36.8125 54.6875 
L 36.8125 47.703125 
L 18.3125 47.703125 
L 18.3125 18.015625 
Q 18.3125 11.328125 20.140625 9.421875 
Q 21.96875 7.515625 27.59375 7.515625 
L 36.8125 7.515625 
L 36.8125 0 
L 27.59375 0 
Q 17.1875 0 13.234375 3.875 
Q 9.28125 7.765625 9.28125 18.015625 
L 9.28125 47.703125 
L 2.6875 47.703125 
L 2.6875 54.6875 
L 9.28125 54.6875 
L 9.28125 70.21875 
z
" id="DejaVuSans-116"/>
     <path d="M 34.28125 27.484375 
Q 23.390625 27.484375 19.1875 25 
Q 14.984375 22.515625 14.984375 16.5 
Q 14.984375 11.71875 18.140625 8.90625 
Q 21.296875 6.109375 26.703125 6.109375 
Q 34.1875 6.109375 38.703125 11.40625 
Q 43.21875 16.703125 43.21875 25.484375 
L 43.21875 27.484375 
z
M 52.203125 31.203125 
L 52.203125 0 
L 43.21875 0 
L 43.21875 8.296875 
Q 40.140625 3.328125 35.546875 0.953125 
Q 30.953125 -1.421875 24.3125 -1.421875 
Q 15.921875 -1.421875 10.953125 3.296875 
Q 6 8.015625 6 15.921875 
Q 6 25.140625 12.171875 29.828125 
Q 18.359375 34.515625 30.609375 34.515625 
L 43.21875 34.515625 
L 43.21875 35.40625 
Q 43.21875 41.609375 39.140625 45 
Q 35.0625 48.390625 27.6875 48.390625 
Q 23 48.390625 18.546875 47.265625 
Q 14.109375 46.140625 10.015625 43.890625 
L 10.015625 52.203125 
Q 14.9375 54.109375 19.578125 55.046875 
Q 24.21875 56 28.609375 56 
Q 40.484375 56 46.34375 49.84375 
Q 52.203125 43.703125 52.203125 31.203125 
z
" id="DejaVuSans-97"/>
     <path d="M 9.421875 75.984375 
L 18.40625 75.984375 
L 18.40625 0 
L 9.421875 0 
z
" id="DejaVuSans-108"/>
    </defs>
    <g transform="translate(233.75 16.318125)scale(0.12 -0.12)">
     <use xlink:href="#DejaVuSans-89"/>
     <use x="61.083984" xlink:href="#DejaVuSans-100"/>
     <use x="124.560547" xlink:href="#DejaVuSans-119"/>
     <use x="206.347656" xlink:href="#DejaVuSans-95"/>
     <use x="256.347656" xlink:href="#DejaVuSans-116"/>
     <use x="295.556641" xlink:href="#DejaVuSans-111"/>
     <use x="356.738281" xlink:href="#DejaVuSans-116"/>
     <use x="395.947266" xlink:href="#DejaVuSans-97"/>
     <use x="457.226562" xlink:href="#DejaVuSans-108"/>
    </g>
   </g>
   <g id="legend_1">
    <g id="patch_5">
     <path d="M 493.05 190.104844 
L 567.448437 190.104844 
Q 569.448437 190.104844 569.448437 188.104844 
L 569.448437 128.331406 
Q 569.448437 126.331406 567.448437 126.331406 
L 493.05 126.331406 
Q 491.05 126.331406 491.05 128.331406 
L 491.05 188.104844 
Q 491.05 190.104844 493.05 190.104844 
z
" style="fill:#ffffff;opacity:0.8;stroke:#cccccc;stroke-linejoin:miter;"/>
    </g>
    <g id="line2d_20">
     <path d="M 495.05 134.429844 
L 515.05 134.429844 
" style="fill:none;stroke:#000000;stroke-dasharray:3.7,1.6;stroke-dashoffset:0;"/>
    </g>
    <g id="line2d_21"/>
    <g id="text_18">
     <!-- Baseline -->
     <defs>
      <path d="M 19.671875 34.8125 
L 19.671875 8.109375 
L 35.5 8.109375 
Q 43.453125 8.109375 47.28125 11.40625 
Q 51.125 14.703125 51.125 21.484375 
Q 51.125 28.328125 47.28125 31.5625 
Q 43.453125 34.8125 35.5 34.8125 
z
M 19.671875 64.796875 
L 19.671875 42.828125 
L 34.28125 42.828125 
Q 41.5 42.828125 45.03125 45.53125 
Q 48.578125 48.25 48.578125 53.8125 
Q 48.578125 59.328125 45.03125 62.0625 
Q 41.5 64.796875 34.28125 64.796875 
z
M 9.8125 72.90625 
L 35.015625 72.90625 
Q 46.296875 72.90625 52.390625 68.21875 
Q 58.5 63.53125 58.5 54.890625 
Q 58.5 48.1875 55.375 44.234375 
Q 52.25 40.28125 46.1875 39.3125 
Q 53.46875 37.75 57.5 32.78125 
Q 61.53125 27.828125 61.53125 20.40625 
Q 61.53125 10.640625 54.890625 5.3125 
Q 48.25 0 35.984375 0 
L 9.8125 0 
z
" id="DejaVuSans-66"/>
      <path d="M 44.28125 53.078125 
L 44.28125 44.578125 
Q 40.484375 46.53125 36.375 47.5 
Q 32.28125 48.484375 27.875 48.484375 
Q 21.1875 48.484375 17.84375 46.4375 
Q 14.5 44.390625 14.5 40.28125 
Q 14.5 37.15625 16.890625 35.375 
Q 19.28125 33.59375 26.515625 31.984375 
L 29.59375 31.296875 
Q 39.15625 29.25 43.1875 25.515625 
Q 47.21875 21.78125 47.21875 15.09375 
Q 47.21875 7.46875 41.1875 3.015625 
Q 35.15625 -1.421875 24.609375 -1.421875 
Q 20.21875 -1.421875 15.453125 -0.5625 
Q 10.6875 0.296875 5.421875 2 
L 5.421875 11.28125 
Q 10.40625 8.6875 15.234375 7.390625 
Q 20.0625 6.109375 24.8125 6.109375 
Q 31.15625 6.109375 34.5625 8.28125 
Q 37.984375 10.453125 37.984375 14.40625 
Q 37.984375 18.0625 35.515625 20.015625 
Q 33.0625 21.96875 24.703125 23.78125 
L 21.578125 24.515625 
Q 13.234375 26.265625 9.515625 29.90625 
Q 5.8125 33.546875 5.8125 39.890625 
Q 5.8125 47.609375 11.28125 51.796875 
Q 16.75 56 26.8125 56 
Q 31.78125 56 36.171875 55.265625 
Q 40.578125 54.546875 44.28125 53.078125 
z
" id="DejaVuSans-115"/>
      <path d="M 9.421875 54.6875 
L 18.40625 54.6875 
L 18.40625 0 
L 9.421875 0 
z
M 9.421875 75.984375 
L 18.40625 75.984375 
L 18.40625 64.59375 
L 9.421875 64.59375 
z
" id="DejaVuSans-105"/>
      <path d="M 54.890625 33.015625 
L 54.890625 0 
L 45.90625 0 
L 45.90625 32.71875 
Q 45.90625 40.484375 42.875 44.328125 
Q 39.84375 48.1875 33.796875 48.1875 
Q 26.515625 48.1875 22.3125 43.546875 
Q 18.109375 38.921875 18.109375 30.90625 
L 18.109375 0 
L 9.078125 0 
L 9.078125 54.6875 
L 18.109375 54.6875 
L 18.109375 46.1875 
Q 21.34375 51.125 25.703125 53.5625 
Q 30.078125 56 35.796875 56 
Q 45.21875 56 50.046875 50.171875 
Q 54.890625 44.34375 54.890625 33.015625 
z
" id="DejaVuSans-110"/>
     </defs>
     <g transform="translate(523.05 137.929844)scale(0.1 -0.1)">
      <use xlink:href="#DejaVuSans-66"/>
      <use x="68.603516" xlink:href="#DejaVuSans-97"/>
      <use x="129.882812" xlink:href="#DejaVuSans-115"/>
      <use x="181.982422" xlink:href="#DejaVuSans-101"/>
      <use x="243.505859" xlink:href="#DejaVuSans-108"/>
      <use x="271.289062" xlink:href="#DejaVuSans-105"/>
      <use x="299.072266" xlink:href="#DejaVuSans-110"/>
      <use x="362.451172" xlink:href="#DejaVuSans-101"/>
     </g>
    </g>
    <g id="line2d_22">
     <path d="M 495.05 149.107969 
L 515.05 149.107969 
" style="fill:none;stroke:#1f77b4;stroke-linecap:square;stroke-width:1.5;"/>
    </g>
    <g id="line2d_23"/>
    <g id="text_19">
     <!-- $\Downarrow \sigma_\psi$ -->
     <defs>
      <path d="M 36.765625 14.3125 
L 41.9375 9.234375 
L 47.015625 14.3125 
L 47.015625 72.90625 
L 52.875 72.90625 
L 52.875 20.171875 
L 57.46875 24.75 
L 63.328125 18.890625 
L 44.09375 -0.34375 
L 39.703125 -0.34375 
L 20.5625 18.890625 
L 26.421875 24.75 
L 30.90625 20.171875 
L 30.90625 72.90625 
L 36.765625 72.90625 
z
" id="DejaVuSans-8659"/>
      <path d="M 34.671875 47.5625 
Q 27.25 47.5625 22.21875 42.1875 
Q 16.890625 36.578125 15.140625 27.296875 
Q 13.1875 17.484375 16.3125 11.8125 
Q 19.390625 6.203125 26.65625 6.203125 
Q 33.84375 6.203125 39.109375 11.859375 
Q 44.4375 17.53125 46.34375 27.296875 
Q 48.046875 36.234375 45.015625 42.1875 
Q 42.1875 47.5625 34.671875 47.5625 
z
M 36.078125 54.734375 
L 65.921875 54.6875 
L 64.15625 45.703125 
L 54.109375 45.703125 
Q 57.90625 38.09375 55.859375 27.296875 
Q 53.21875 13.875 45.0625 6.25 
Q 36.859375 -1.421875 25.140625 -1.421875 
Q 13.375 -1.421875 8.203125 6.25 
Q 3.03125 13.875 5.671875 27.296875 
Q 8.25 40.765625 16.40625 48.390625 
Q 23.1875 54.734375 36.078125 54.734375 
z
" id="DejaVuSans-Oblique-963"/>
      <path d="M 24.859375 -1.21875 
Q 13.921875 0.59375 9.625 5.328125 
Q 4.34375 11.140625 6.640625 23 
L 12.796875 54.6875 
L 21.875 54.6875 
L 15.765625 23.34375 
Q 14.0625 14.40625 17.484375 10.6875 
Q 20.515625 7.46875 26.421875 6.78125 
L 35.6875 54.6875 
L 44.625 54.6875 
L 35.359375 6.84375 
Q 41.890625 7.515625 45.75 10.75 
Q 50.734375 14.84375 52.390625 23.390625 
L 58.453125 54.6875 
L 67.53125 54.6875 
L 61.375 23.046875 
Q 58.984375 10.75 51.5625 5.375 
Q 44.875 0.53125 33.796875 -1.171875 
L 29.984375 -20.796875 
L 21.046875 -20.796875 
z
" id="DejaVuSans-Oblique-968"/>
     </defs>
     <g transform="translate(523.05 152.607969)scale(0.1 -0.1)">
      <use transform="translate(19.482422 0.09375)" xlink:href="#DejaVuSans-8659"/>
      <use transform="translate(122.753906 0.09375)" xlink:href="#DejaVuSans-Oblique-963"/>
      <use transform="translate(186.132812 -16.3125)scale(0.7)" xlink:href="#DejaVuSans-Oblique-968"/>
     </g>
    </g>
    <g id="line2d_24">
     <path d="M 495.05 164.806406 
L 515.05 164.806406 
" style="fill:none;stroke:#ff7f0e;stroke-linecap:square;stroke-width:1.5;"/>
    </g>
    <g id="line2d_25"/>
    <g id="text_20">
     <!-- $\Downarrow s_\psi$ -->
     <defs>
      <path d="M 50 53.078125 
L 48.296875 44.578125 
Q 44.734375 46.53125 40.765625 47.5 
Q 36.8125 48.484375 32.625 48.484375 
Q 25.53125 48.484375 21.453125 46.0625 
Q 17.390625 43.65625 17.390625 39.5 
Q 17.390625 34.671875 26.859375 32.078125 
Q 27.59375 31.890625 27.9375 31.78125 
L 30.8125 30.90625 
Q 39.796875 28.421875 42.796875 25.6875 
Q 45.796875 22.953125 45.796875 18.21875 
Q 45.796875 9.515625 38.890625 4.046875 
Q 31.984375 -1.421875 20.796875 -1.421875 
Q 16.453125 -1.421875 11.671875 -0.578125 
Q 6.890625 0.25 1.125 2 
L 2.875 11.28125 
Q 7.8125 8.734375 12.59375 7.421875 
Q 17.390625 6.109375 21.78125 6.109375 
Q 28.375 6.109375 32.5 8.9375 
Q 36.625 11.765625 36.625 16.109375 
Q 36.625 20.796875 25.78125 23.6875 
L 24.859375 23.921875 
L 21.78125 24.703125 
Q 14.9375 26.515625 11.765625 29.46875 
Q 8.59375 32.421875 8.59375 37.015625 
Q 8.59375 45.75 15.15625 50.875 
Q 21.734375 56 33.015625 56 
Q 37.453125 56 41.671875 55.265625 
Q 45.90625 54.546875 50 53.078125 
z
" id="DejaVuSans-Oblique-115"/>
     </defs>
     <g transform="translate(523.05 168.306406)scale(0.1 -0.1)">
      <use transform="translate(19.482422 0.09375)" xlink:href="#DejaVuSans-8659"/>
      <use transform="translate(122.753906 0.09375)" xlink:href="#DejaVuSans-Oblique-115"/>
      <use transform="translate(174.853516 -16.3125)scale(0.7)" xlink:href="#DejaVuSans-Oblique-968"/>
     </g>
    </g>
    <g id="line2d_26">
     <path d="M 495.05 180.504844 
L 515.05 180.504844 
" style="fill:none;stroke:#2ca02c;stroke-linecap:square;stroke-width:1.5;"/>
    </g>
    <g id="line2d_27"/>
    <g id="text_21">
     <!-- $\Uparrow \eta$ -->
     <defs>
      <path d="M 36.765625 58.59375 
L 36.765625 0 
L 30.90625 0 
L 30.90625 52.734375 
L 26.421875 48.140625 
L 20.5625 54 
L 39.703125 73.25 
L 44.09375 73.25 
L 63.328125 54 
L 57.46875 48.140625 
L 52.875 52.734375 
L 52.875 0 
L 47.015625 0 
L 47.015625 58.59375 
L 41.9375 63.671875 
z
" id="DejaVuSans-8657"/>
      <path d="M 57.859375 33.015625 
L 47.40625 -20.796875 
L 38.421875 -20.796875 
L 48.828125 32.71875 
Q 50.34375 40.484375 48.046875 44.34375 
Q 45.796875 48.1875 39.75 48.1875 
Q 32.46875 48.1875 27.34375 43.5625 
Q 22.265625 38.921875 20.703125 30.90625 
L 14.703125 0 
L 5.671875 0 
L 16.3125 54.6875 
L 25.34375 54.6875 
L 23.6875 46.1875 
Q 27.828125 51.125 32.71875 53.5625 
Q 37.546875 56 43.265625 56 
Q 52.6875 56 56.390625 50.203125 
Q 60.0625 44.34375 57.859375 33.015625 
z
" id="DejaVuSans-Oblique-951"/>
     </defs>
     <g transform="translate(523.05 184.004844)scale(0.1 -0.1)">
      <use transform="translate(19.482422 0.75)" xlink:href="#DejaVuSans-8657"/>
      <use transform="translate(122.753906 0.75)" xlink:href="#DejaVuSans-Oblique-951"/>
     </g>
    </g>
   </g>
  </g>
 </g>
 <defs>
  <clipPath id="pd8332591f3">
   <rect height="271.8" width="446.4" x="39.65" y="22.318125"/>
  </clipPath>
 </defs>
</svg>
