<?xml version="1.0" encoding="utf-8" standalone="no"?>
<!DOCTYPE svg PUBLIC "-//W3C//DTD SVG 1.1//EN"
  "http://www.w3.org/Graphics/SVG/1.1/DTD/svg11.dtd">
<!-- Created with matplotlib (https://matplotlib.org/) -->
<svg height="331.674375pt" version="1.1" viewBox="0 0 575.48125 331.674375" width="575.48125pt" xmlns="http://www.w3.org/2000/svg" xmlns:xlink="http://www.w3.org/1999/xlink">
 <defs>
  <style type="text/css">
*{stroke-linecap:butt;stroke-linejoin:round;}
  </style>
 </defs>
 <g id="figure_1">
  <g id="patch_1">
   <path d="M 0 331.674375 
L 575.48125 331.674375 
L 575.48125 0 
L 0 0 
z
" style="fill:#ffffff;"/>
  </g>
  <g id="axes_1">
   <g id="patch_2">
    <path d="M 38.482813 294.118125 
L 484.882812 294.118125 
L 484.882812 22.318125 
L 38.482813 22.318125 
z
" style="fill:#ffffff;"/>
   </g>
   <g id="line2d_1">
    <path clip-path="url(#p70e6d822cb)" d="M 58.773722 196.584215 
L 59.499693 196.032566 
L 60.225665 197.904003 
L 60.951637 194.347506 
L 61.677608 194.869904 
L 63.129552 194.45134 
L 63.855524 194.355969 
L 64.581495 194.871133 
L 65.307467 194.245516 
L 66.033439 196.605214 
L 66.75941 192.019826 
L 67.485382 193.102128 
L 68.211354 193.555258 
L 68.937325 193.160632 
L 69.663297 191.825177 
L 70.389269 189.539367 
L 71.115241 189.922274 
L 71.841212 188.43524 
L 72.567184 188.349327 
L 74.019127 184.726157 
L 74.745099 184.723757 
L 75.471071 182.140574 
L 76.197042 182.517125 
L 76.923014 182.422891 
L 77.648986 182.71921 
L 79.100929 186.649901 
L 79.826901 182.95307 
L 80.552873 185.340693 
L 81.278844 183.10165 
L 82.004816 181.40351 
L 82.730788 178.555942 
L 83.456759 179.111536 
L 84.182731 180.937901 
L 84.908703 182.393212 
L 85.634675 183.258285 
L 86.360646 179.438856 
L 87.086618 177.191671 
L 87.81259 173.960748 
L 88.538561 173.939328 
L 89.264533 171.55977 
L 89.990505 168.718437 
L 90.716477 168.061656 
L 91.442448 167.221644 
L 92.16842 165.754088 
L 92.894392 162.757358 
L 93.620363 162.042625 
L 94.346335 158.396353 
L 95.072307 157.884117 
L 95.798278 153.666708 
L 96.52425 150.816255 
L 97.250222 150.067721 
L 97.976194 145.37897 
L 99.428137 137.469762 
L 100.154109 139.624138 
L 100.88008 140.398255 
L 101.606052 140.496121 
L 102.332024 140.416829 
L 103.057995 140.622777 
L 103.783967 143.199719 
L 104.509939 138.270961 
L 105.235911 136.791164 
L 105.961882 136.319756 
L 106.687854 138.434422 
L 107.413826 138.272946 
L 109.591741 140.824051 
L 110.317712 144.33926 
L 111.043684 146.721939 
L 111.769656 143.66317 
L 112.495628 144.741528 
L 113.221599 145.328079 
L 113.947571 146.41188 
L 114.673543 148.137117 
L 116.851458 150.368428 
L 117.57743 153.393847 
L 118.303401 151.784782 
L 119.755345 153.305401 
L 120.481316 157.64815 
L 121.207288 155.981596 
L 121.93326 159.048745 
L 122.659231 159.848569 
L 123.385203 158.572433 
L 124.111175 160.328372 
L 124.837147 161.577991 
L 125.563118 165.075942 
L 126.28909 167.751699 
L 127.015062 169.313496 
L 127.741033 171.142256 
L 128.467005 174.970321 
L 129.918948 177.955335 
L 130.64492 177.851751 
L 131.370892 177.635768 
L 132.096864 178.962385 
L 132.822835 182.533845 
L 133.548807 183.846793 
L 134.274779 187.388181 
L 135.00075 186.689441 
L 135.726722 186.71351 
L 136.452694 188.604634 
L 137.178665 189.742409 
L 137.904637 190.455881 
L 138.630609 192.143608 
L 139.356581 192.942167 
L 140.082552 196.782016 
L 140.808524 196.209477 
L 141.534496 195.966419 
L 142.260467 196.945717 
L 143.712411 198.385078 
L 144.438383 195.918838 
L 145.164354 195.617878 
L 145.890326 197.55645 
L 146.616298 198.015556 
L 147.342269 198.324618 
L 148.794213 199.33594 
L 149.520184 200.284052 
L 150.972128 201.456534 
L 151.6981 204.966577 
L 152.424071 206.751107 
L 153.150043 207.882339 
L 153.876015 208.684614 
L 154.601986 209.791232 
L 155.327958 207.914518 
L 156.779901 210.648836 
L 158.231845 212.18962 
L 158.957817 212.818853 
L 160.40976 214.386216 
L 161.135732 214.436149 
L 161.861703 215.463239 
L 162.587675 215.933268 
L 163.313647 216.270283 
L 164.039618 219.270328 
L 164.76559 219.965729 
L 165.491562 221.116296 
L 166.217534 218.257573 
L 166.943505 216.958883 
L 168.395449 211.655356 
L 169.12142 210.823235 
L 169.847392 210.425143 
L 170.573364 211.85713 
L 171.299336 206.457075 
L 172.025307 206.45595 
L 172.751279 202.484392 
L 174.203222 200.912469 
L 175.655166 199.932105 
L 176.381137 199.346435 
L 177.107109 199.501231 
L 178.559053 197.261897 
L 179.285024 196.900745 
L 180.010996 195.831566 
L 180.736968 196.650866 
L 181.462939 198.059735 
L 182.188911 199.729208 
L 182.914883 194.762769 
L 183.640854 191.565844 
L 184.366826 194.729491 
L 185.092798 194.748693 
L 185.81877 195.068649 
L 186.544741 195.923872 
L 187.270713 196.387229 
L 187.996685 195.811734 
L 188.722656 195.930529 
L 189.448628 196.271739 
L 190.1746 199.158004 
L 190.900571 199.752699 
L 191.626543 201.951646 
L 192.352515 204.782335 
L 193.078487 205.759104 
L 193.804458 209.194997 
L 194.53043 211.584338 
L 195.256402 213.47739 
L 195.982373 214.663971 
L 196.708345 215.381013 
L 197.434317 216.278669 
L 198.88626 222.492221 
L 199.612232 224.421948 
L 200.338204 226.013353 
L 201.064175 225.812798 
L 201.790147 228.930036 
L 202.516119 233.089964 
L 203.968062 237.649127 
L 204.694034 241.263375 
L 205.420006 243.835325 
L 206.145977 245.756416 
L 206.871949 244.696795 
L 207.597921 243.85172 
L 209.049864 246.261789 
L 209.775836 246.663265 
L 210.501807 245.134188 
L 211.227779 243.149991 
L 211.953751 243.562316 
L 212.679723 239.626408 
L 213.405694 238.526957 
L 214.131666 239.285249 
L 214.857638 239.04328 
L 215.583609 238.967157 
L 216.309581 239.296344 
L 217.035553 238.463069 
L 217.761524 237.44841 
L 218.487496 237.364072 
L 219.213468 238.051067 
L 219.93944 237.589236 
L 220.665411 237.451792 
L 221.391383 237.698088 
L 222.117355 237.662163 
L 222.843326 237.15138 
L 223.569298 238.315553 
L 224.29527 238.01847 
L 225.021242 237.369517 
L 225.747213 234.356139 
L 226.473185 235.13171 
L 227.199157 234.52875 
L 227.925128 231.011281 
L 228.6511 228.472312 
L 229.377072 227.558757 
L 230.103043 227.15751 
L 230.829015 221.987687 
L 231.554987 220.174717 
L 232.280959 216.045523 
L 233.732902 213.815122 
L 234.458874 208.786873 
L 235.184845 204.764451 
L 235.910817 203.347898 
L 236.636789 197.36812 
L 237.36276 196.016951 
L 238.088732 194.101222 
L 238.814704 192.810672 
L 239.540676 192.683793 
L 240.266647 187.398888 
L 240.992619 183.595908 
L 241.718591 181.909226 
L 243.896506 178.611025 
L 244.622477 176.947495 
L 245.348449 173.666041 
L 246.800393 171.243304 
L 247.526364 167.41171 
L 248.978308 165.421594 
L 249.704279 161.760544 
L 250.430251 160.735247 
L 251.156223 157.034858 
L 251.882195 154.186863 
L 252.608166 150.210526 
L 253.334138 149.096354 
L 254.06011 148.306202 
L 254.786081 143.433563 
L 256.238025 144.947776 
L 256.963996 144.831878 
L 257.689968 145.016802 
L 258.41594 146.609472 
L 259.141912 142.809359 
L 259.867883 145.783729 
L 261.319827 147.403415 
L 262.045798 149.311545 
L 262.77177 147.694355 
L 263.497742 148.557581 
L 264.223713 147.607681 
L 264.949685 148.985634 
L 265.675657 150.642519 
L 266.401629 151.699326 
L 267.1276 155.212161 
L 267.853572 152.950214 
L 268.579544 152.271921 
L 269.305515 154.532276 
L 270.031487 155.415252 
L 271.48343 158.20464 
L 272.209402 159.402695 
L 272.935374 161.293833 
L 274.387317 167.272038 
L 275.113289 169.426318 
L 275.839261 168.246004 
L 276.565232 170.385503 
L 277.291204 172.092606 
L 278.743148 174.893677 
L 279.469119 176.747816 
L 280.195091 178.068015 
L 280.921063 180.062977 
L 281.647034 183.085 
L 282.373006 185.142902 
L 283.098978 188.8655 
L 283.824949 190.304434 
L 284.550921 190.643465 
L 285.276893 192.160263 
L 286.002865 192.227858 
L 286.728836 194.067767 
L 287.454808 196.565967 
L 288.906751 196.873569 
L 289.632723 198.480073 
L 290.358695 199.166227 
L 291.084666 200.258238 
L 291.810638 198.759414 
L 292.53661 200.027694 
L 293.262582 200.817681 
L 293.988553 201.396612 
L 296.89244 204.812908 
L 297.618412 205.29683 
L 298.344383 205.979119 
L 299.070355 206.434907 
L 299.796327 204.857864 
L 300.522299 205.566921 
L 301.24827 207.876839 
L 301.974242 208.239288 
L 302.700214 208.836587 
L 304.878129 209.824317 
L 305.604101 210.569937 
L 306.330072 212.140102 
L 307.056044 212.917212 
L 307.782016 213.111682 
L 308.507987 213.048394 
L 309.233959 212.735488 
L 309.959931 213.473449 
L 311.411874 214.302603 
L 312.137846 212.228949 
L 312.863818 212.892952 
L 313.589789 213.285516 
L 314.315761 213.270451 
L 315.041733 213.078944 
L 315.767704 210.483203 
L 316.493676 210.793802 
L 317.219648 210.798478 
L 317.945619 212.565862 
L 318.671591 212.024675 
L 319.397563 212.121469 
L 320.123535 208.401879 
L 320.849506 208.578008 
L 321.575478 207.940109 
L 322.30145 209.01208 
L 323.027421 206.683972 
L 323.753393 206.658629 
L 324.479365 206.022768 
L 325.205336 205.696714 
L 325.931308 203.344937 
L 326.65728 201.803954 
L 327.383252 199.485497 
L 328.109223 196.044656 
L 328.835195 195.90712 
L 329.561167 191.235798 
L 330.287138 192.558871 
L 331.739082 190.653532 
L 332.465054 187.025 
L 333.191025 186.06707 
L 333.916997 185.890844 
L 334.642969 182.872883 
L 335.36894 183.210732 
L 336.094912 182.8454 
L 337.546855 184.915073 
L 338.272827 182.215395 
L 338.998799 180.73144 
L 339.724771 180.646142 
L 340.450742 180.87516 
L 341.176714 178.764788 
L 341.902686 177.067032 
L 342.628657 177.220295 
L 343.354629 177.639956 
L 344.080601 175.669692 
L 344.806572 173.254585 
L 345.532544 174.136045 
L 346.258516 175.405355 
L 346.984488 175.789506 
L 347.710459 174.435019 
L 348.436431 175.120131 
L 351.340318 170.741967 
L 352.792261 172.674969 
L 353.518233 171.310328 
L 354.970176 173.131723 
L 355.696148 172.644643 
L 356.42212 174.037231 
L 357.148091 173.205572 
L 357.874063 174.099678 
L 358.600035 175.434375 
L 359.326007 176.416808 
L 360.051978 177.814425 
L 360.77795 178.622532 
L 361.503922 176.985181 
L 362.229893 179.315475 
L 362.955865 178.49333 
L 363.681837 179.48475 
L 364.407808 178.819455 
L 365.13378 179.061575 
L 365.859752 178.82852 
L 368.763639 182.479341 
L 369.48961 184.202008 
L 370.215582 185.120598 
L 371.667525 185.226797 
L 372.393497 186.156471 
L 373.119469 186.029192 
L 374.571412 187.93458 
L 375.297384 187.647983 
L 376.023356 189.34696 
L 376.749327 188.979898 
L 377.475299 188.744196 
L 378.201271 189.806922 
L 378.927242 191.186331 
L 379.653214 191.906416 
L 382.557101 195.668765 
L 383.283073 194.844421 
L 384.009044 194.590733 
L 384.735016 194.464305 
L 386.18696 195.742242 
L 386.912931 195.436069 
L 387.638903 194.983617 
L 388.364875 194.713327 
L 389.090846 194.123812 
L 389.816818 194.589125 
L 390.54279 194.088611 
L 391.268761 194.888584 
L 392.720705 195.641033 
L 393.446677 196.096775 
L 394.172648 196.365299 
L 394.89862 195.4203 
L 395.624592 196.172359 
L 396.350563 196.669912 
L 398.528478 197.420897 
L 399.980422 195.594268 
L 400.706394 194.642132 
L 401.432365 194.62002 
L 402.158337 194.388181 
L 402.884309 194.775023 
L 403.61028 193.304833 
L 404.336252 193.370981 
L 405.062224 191.903279 
L 405.788195 191.702118 
L 406.514167 191.349664 
L 407.240139 191.146731 
L 408.692082 188.30065 
L 409.418054 187.190765 
L 410.144026 186.791805 
L 411.595969 183.627328 
L 412.321941 181.727061 
L 413.047913 181.693864 
L 413.773884 180.960645 
L 416.677771 172.441712 
L 417.403743 171.968746 
L 418.129714 169.039924 
L 418.855686 168.060988 
L 420.30763 163.64885 
L 421.033601 162.715135 
L 421.759573 161.592537 
L 422.485545 161.126828 
L 423.211516 158.977666 
L 423.937488 158.882472 
L 424.66346 157.129586 
L 425.389431 155.671078 
L 426.115403 155.426714 
L 426.841375 153.762789 
L 428.293318 151.144619 
L 429.01929 151.220521 
L 429.745262 149.890157 
L 430.471233 150.308817 
L 431.197205 149.232199 
L 431.923177 149.843972 
L 433.37512 151.388137 
L 434.101092 152.831562 
L 434.827064 152.60444 
L 435.553035 154.379555 
L 436.279007 155.759087 
L 437.73095 159.194377 
L 439.182894 162.844977 
L 441.360809 165.648641 
L 442.086781 166.828388 
L 442.812752 167.644041 
L 443.538724 168.874578 
L 444.264696 170.915846 
L 444.990667 171.71454 
L 445.716639 173.710003 
L 446.442611 174.656017 
L 447.894554 178.439458 
L 448.620526 179.365909 
L 450.072469 181.633755 
L 450.798441 183.613255 
L 452.250384 185.482558 
L 452.976356 186.11823 
L 453.702328 187.103436 
L 454.4283 187.729654 
L 455.154271 189.370755 
L 455.880243 189.65051 
L 457.332186 190.99549 
L 458.78413 193.448205 
L 460.236073 194.489572 
L 460.962045 194.897301 
L 462.413988 197.301585 
L 464.591903 198.41369 
L 464.591903 198.41369 
" style="fill:none;stroke:#1f77b4;stroke-linecap:square;stroke-width:1.5;"/>
   </g>
   <g id="line2d_2">
    <path clip-path="url(#p70e6d822cb)" d="M 58.773722 208.321334 
L 59.499693 206.705777 
L 60.225665 207.99832 
L 60.951637 207.35172 
L 62.40358 207.782688 
L 63.129552 207.299995 
L 63.855524 206.620137 
L 64.581495 206.569196 
L 65.307467 203.89222 
L 66.033439 204.10049 
L 66.75941 203.037817 
L 68.211354 201.622039 
L 68.937325 200.728779 
L 69.663297 202.067559 
L 70.389269 201.920445 
L 71.115241 202.55098 
L 71.841212 205.265498 
L 72.567184 202.845383 
L 73.293156 205.488109 
L 74.745099 206.038827 
L 75.471071 207.722164 
L 76.197042 209.038133 
L 76.923014 209.619448 
L 77.648986 208.732697 
L 78.374958 209.897761 
L 79.100929 209.068368 
L 79.826901 208.993309 
L 80.552873 208.790426 
L 81.278844 208.307166 
L 82.730788 206.473547 
L 83.456759 204.419963 
L 84.182731 205.31392 
L 84.908703 205.604736 
L 85.634675 205.249157 
L 86.360646 205.022985 
L 87.086618 204.404044 
L 87.81259 204.520673 
L 88.538561 205.265735 
L 89.264533 206.560864 
L 91.442448 208.406 
L 92.16842 211.363147 
L 92.894392 211.536476 
L 93.620363 214.520353 
L 94.346335 211.91155 
L 95.072307 211.820794 
L 95.798278 210.27989 
L 96.52425 210.158382 
L 97.250222 209.655752 
L 97.976194 209.351743 
L 98.702165 206.938738 
L 99.428137 206.0658 
L 100.154109 207.006672 
L 100.88008 207.244998 
L 103.057995 207.313205 
L 103.783967 209.32111 
L 104.509939 208.686145 
L 105.235911 208.322731 
L 105.961882 208.185165 
L 106.687854 209.258925 
L 107.413826 208.914696 
L 108.139797 208.390707 
L 108.865769 208.312839 
L 109.591741 208.366285 
L 111.043684 211.269066 
L 112.495628 212.146158 
L 113.221599 212.160625 
L 113.947571 209.914277 
L 114.673543 210.182069 
L 115.399514 210.713572 
L 116.125486 208.076777 
L 116.851458 207.653985 
L 117.57743 206.423394 
L 119.755345 204.353258 
L 120.481316 206.308919 
L 121.207288 207.121376 
L 122.659231 203.826819 
L 123.385203 203.193758 
L 124.111175 202.268106 
L 124.837147 200.217449 
L 125.563118 201.159548 
L 126.28909 200.579979 
L 127.741033 196.067622 
L 128.467005 196.225403 
L 129.192977 194.965172 
L 129.918948 194.193964 
L 130.64492 194.517795 
L 131.370892 192.984514 
L 132.096864 192.484668 
L 132.822835 193.514056 
L 133.548807 190.477783 
L 134.274779 191.206014 
L 135.00075 190.902074 
L 135.726722 190.414194 
L 136.452694 190.416321 
L 137.178665 189.980401 
L 137.904637 189.787594 
L 139.356581 189.709133 
L 140.082552 191.957934 
L 140.808524 193.367472 
L 142.260467 194.912553 
L 143.712411 196.276472 
L 144.438383 196.91097 
L 145.164354 198.266003 
L 145.890326 200.783534 
L 147.342269 202.64986 
L 148.068241 203.484368 
L 149.520184 206.136669 
L 150.246156 207.047111 
L 150.972128 208.239736 
L 151.6981 212.139903 
L 152.424071 214.487984 
L 153.876015 215.572786 
L 154.601986 216.388766 
L 155.327958 216.992388 
L 156.779901 219.076552 
L 157.505873 217.976563 
L 158.231845 218.669717 
L 158.957817 219.116607 
L 159.683788 217.544201 
L 161.135732 217.150621 
L 161.861703 217.877816 
L 162.587675 217.894216 
L 163.313647 218.161913 
L 164.039618 220.693473 
L 164.76559 221.499975 
L 165.491562 221.349903 
L 166.217534 221.838053 
L 166.943505 221.70824 
L 167.669477 219.938616 
L 168.395449 219.068474 
L 169.12142 217.13731 
L 169.847392 216.252348 
L 170.573364 217.106888 
L 171.299336 215.925169 
L 172.025307 217.495157 
L 172.751279 216.559097 
L 173.477251 215.833828 
L 174.203222 215.457143 
L 174.929194 212.460903 
L 175.655166 212.209063 
L 176.381137 207.823494 
L 177.107109 205.538331 
L 177.833081 202.725084 
L 179.285024 194.077964 
L 180.010996 188.848254 
L 180.736968 184.641987 
L 181.462939 182.49667 
L 182.188911 178.446746 
L 183.640854 169.279326 
L 184.366826 166.056007 
L 185.092798 162.094463 
L 185.81877 155.10472 
L 188.722656 136.968365 
L 189.448628 135.048058 
L 190.1746 132.09391 
L 190.900571 126.562329 
L 191.626543 124.118904 
L 192.352515 123.418837 
L 193.078487 120.40039 
L 194.53043 122.123457 
L 195.256402 119.132179 
L 195.982373 118.059604 
L 196.708345 117.614737 
L 197.434317 118.082481 
L 198.160289 122.076858 
L 199.612232 127.80103 
L 200.338204 129.684631 
L 201.064175 134.621448 
L 201.790147 138.089905 
L 202.516119 143.923849 
L 203.968062 151.556154 
L 204.694034 157.045725 
L 205.420006 159.73824 
L 206.145977 163.14521 
L 207.597921 168.28513 
L 208.323892 171.390144 
L 209.049864 173.976656 
L 209.775836 174.400226 
L 210.501807 178.673728 
L 211.953751 182.516565 
L 212.679723 185.110548 
L 214.131666 192.105 
L 214.857638 194.173846 
L 215.583609 195.514102 
L 216.309581 197.934454 
L 217.035553 198.17935 
L 218.487496 201.864878 
L 219.213468 204.427787 
L 220.665411 207.71417 
L 221.391383 209.639568 
L 222.843326 212.906611 
L 223.569298 215.978071 
L 224.29527 217.478043 
L 225.021242 218.676558 
L 225.747213 220.845085 
L 226.473185 223.429134 
L 227.199157 224.913745 
L 227.925128 226.915218 
L 230.829015 233.062492 
L 231.554987 235.688679 
L 232.280959 236.699517 
L 233.00693 238.252957 
L 233.732902 238.076079 
L 235.910817 240.939321 
L 236.636789 241.259392 
L 237.36276 241.281118 
L 238.088732 242.225792 
L 238.814704 242.804275 
L 239.540676 244.672349 
L 240.266647 245.434698 
L 240.992619 245.48173 
L 241.718591 245.152055 
L 243.170534 246.02471 
L 243.896506 246.712762 
L 244.622477 247.094682 
L 245.348449 248.897926 
L 246.074421 249.292079 
L 246.800393 248.812788 
L 247.526364 249.763448 
L 248.252336 249.623242 
L 248.978308 249.843596 
L 251.156223 249.868896 
L 251.882195 249.561797 
L 252.608166 249.467358 
L 253.334138 248.996882 
L 254.786081 248.526317 
L 255.512053 247.247787 
L 256.238025 247.332568 
L 257.689968 246.582581 
L 258.41594 246.999056 
L 259.141912 246.660826 
L 259.867883 247.268658 
L 260.593855 247.250659 
L 261.319827 247.424425 
L 262.045798 248.081678 
L 262.77177 247.93575 
L 263.497742 247.447215 
L 264.223713 246.198522 
L 264.949685 244.620521 
L 265.675657 243.905442 
L 266.401629 242.720942 
L 267.1276 243.170886 
L 268.579544 237.952673 
L 269.305515 236.956667 
L 270.031487 234.771612 
L 271.48343 232.33409 
L 272.209402 230.584919 
L 272.935374 229.305889 
L 273.661346 229.405802 
L 274.387317 228.654031 
L 275.113289 224.496356 
L 276.565232 220.65479 
L 277.291204 217.163482 
L 278.017176 214.812411 
L 278.743148 212.853258 
L 279.469119 208.126562 
L 280.195091 205.542197 
L 280.921063 200.997132 
L 281.647034 199.417682 
L 282.373006 194.754572 
L 283.098978 193.05232 
L 284.550921 183.70331 
L 285.276893 181.065618 
L 286.002865 175.719192 
L 287.454808 168.382626 
L 288.18078 164.062722 
L 288.906751 158.293582 
L 289.632723 153.952283 
L 290.358695 147.411334 
L 291.084666 142.499965 
L 291.810638 135.297615 
L 293.262582 125.943065 
L 293.988553 121.692414 
L 295.440497 115.086527 
L 296.166468 112.673693 
L 296.89244 110.823423 
L 297.618412 104.912316 
L 298.344383 100.970716 
L 299.070355 95.34639 
L 299.796327 92.530534 
L 300.522299 89.221503 
L 301.24827 89.915883 
L 302.700214 83.35524 
L 303.426185 79.079799 
L 304.152157 75.867831 
L 304.878129 71.576274 
L 305.604101 70.183352 
L 307.056044 65.621262 
L 307.782016 65.283295 
L 308.507987 64.626846 
L 309.959931 62.338508 
L 310.685902 61.869875 
L 311.411874 61.645656 
L 312.137846 62.398493 
L 312.863818 62.50614 
L 314.315761 65.280668 
L 315.041733 64.20903 
L 315.767704 65.142598 
L 317.219648 67.689849 
L 317.945619 71.908137 
L 318.671591 71.55279 
L 320.123535 74.369879 
L 320.849506 76.393508 
L 321.575478 77.960082 
L 323.027421 86.901545 
L 323.753393 90.206049 
L 325.205336 95.715612 
L 327.383252 110.509231 
L 328.109223 112.411161 
L 328.835195 116.613725 
L 329.561167 119.912571 
L 330.287138 125.838557 
L 331.739082 133.389741 
L 332.465054 138.525194 
L 333.191025 140.919751 
L 333.916997 144.326588 
L 335.36894 154.231509 
L 336.094912 157.426714 
L 338.272827 172.575412 
L 338.998799 177.529342 
L 340.450742 185.745256 
L 341.902686 195.83839 
L 343.354629 203.667822 
L 344.080601 208.599377 
L 344.806572 212.076972 
L 345.532544 216.178552 
L 346.258516 221.099493 
L 346.984488 224.506552 
L 347.710459 229.25789 
L 349.162403 236.457956 
L 349.888374 240.370055 
L 352.792261 252.7305 
L 353.518233 255.749036 
L 354.970176 260.438921 
L 355.696148 263.448399 
L 357.148091 267.718787 
L 359.326007 272.923575 
L 361.503922 276.480985 
L 362.955865 279.588842 
L 363.681837 279.924327 
L 365.13378 281.354442 
L 365.859752 281.557069 
L 368.037667 281.76358 
L 369.48961 281.445958 
L 370.941554 280.050266 
L 371.667525 279.336172 
L 372.393497 278.308535 
L 373.119469 277.538429 
L 373.845441 275.834965 
L 375.297384 273.176185 
L 376.023356 272.231328 
L 376.749327 270.742079 
L 377.475299 268.961056 
L 378.201271 266.66647 
L 378.927242 265.054089 
L 381.105158 258.464762 
L 381.831129 255.472307 
L 383.283073 250.588215 
L 384.009044 247.373656 
L 384.735016 245.069662 
L 385.460988 242.107133 
L 387.638903 231.005222 
L 388.364875 226.868727 
L 390.54279 212.919164 
L 391.268761 208.61556 
L 398.528478 157.119158 
L 406.514167 96.208422 
L 407.966111 87.030442 
L 409.418054 79.105972 
L 410.144026 75.2715 
L 410.869997 72.147051 
L 412.321941 64.38643 
L 413.047913 62.046414 
L 415.225828 52.047442 
L 416.677771 45.396978 
L 417.403743 43.434942 
L 418.129714 40.787949 
L 418.855686 38.882391 
L 419.581658 37.971629 
L 420.30763 36.342859 
L 421.033601 35.411466 
L 421.759573 34.67267 
L 422.485545 35.398154 
L 423.937488 37.523963 
L 426.115403 43.169072 
L 427.567347 48.444011 
L 429.01929 54.815713 
L 430.471233 62.335305 
L 433.37512 78.900551 
L 439.908866 123.63123 
L 444.264696 154.061467 
L 446.442611 168.183016 
L 450.798441 193.660002 
L 452.976356 204.905347 
L 455.154271 214.877005 
L 457.332186 223.644329 
L 459.510101 231.080444 
L 460.962045 235.59835 
L 463.865932 243.009958 
L 464.591903 244.608635 
L 464.591903 244.608635 
" style="fill:none;stroke:#ff7f0e;stroke-linecap:square;stroke-width:1.5;"/>
   </g>
   <g id="line2d_3">
    <path clip-path="url(#p70e6d822cb)" d="M 58.773722 219.074739 
L 59.499693 217.835289 
L 60.225665 218.988623 
L 60.951637 218.372374 
L 61.677608 218.204854 
L 62.40358 216.941134 
L 63.129552 216.199964 
L 63.855524 213.014976 
L 64.581495 211.503147 
L 65.307467 209.287957 
L 66.033439 209.447666 
L 66.75941 207.890274 
L 67.485382 207.220318 
L 68.211354 206.268911 
L 68.937325 205.046256 
L 69.663297 206.029156 
L 70.389269 202.296562 
L 71.115241 202.026668 
L 71.841212 201.099874 
L 72.567184 199.814698 
L 73.293156 199.302136 
L 74.745099 197.134442 
L 75.471071 195.394631 
L 76.197042 194.860021 
L 76.923014 193.129891 
L 77.648986 191.958806 
L 78.374958 192.749204 
L 79.100929 192.587774 
L 79.826901 191.974122 
L 80.552873 192.651745 
L 81.278844 193.660446 
L 82.004816 193.403017 
L 82.730788 191.110287 
L 83.456759 190.073243 
L 84.182731 191.649499 
L 84.908703 192.307322 
L 85.634675 192.162152 
L 86.360646 189.935094 
L 87.086618 189.629197 
L 87.81259 188.566222 
L 88.538561 187.717544 
L 89.264533 188.395491 
L 89.990505 187.625978 
L 90.716477 187.086669 
L 91.442448 184.566617 
L 92.16842 185.490581 
L 92.894392 184.776067 
L 93.620363 184.929799 
L 95.072307 184.126086 
L 95.798278 184.178013 
L 98.702165 179.199277 
L 99.428137 177.10687 
L 100.154109 177.669735 
L 100.88008 177.64424 
L 101.606052 177.166851 
L 102.332024 175.908303 
L 103.057995 175.297843 
L 103.783967 177.148526 
L 104.509939 176.827474 
L 105.235911 177.024416 
L 106.687854 180.501714 
L 107.413826 180.719962 
L 108.139797 181.302747 
L 108.865769 181.101216 
L 109.591741 181.583749 
L 110.317712 184.003183 
L 111.043684 185.695822 
L 111.769656 184.60407 
L 112.495628 185.273193 
L 113.221599 184.382247 
L 113.947571 184.106865 
L 115.399514 185.751368 
L 116.125486 185.377163 
L 116.851458 185.87555 
L 117.57743 187.81746 
L 118.303401 186.967879 
L 119.029373 187.110521 
L 119.755345 187.096379 
L 120.481316 190.1657 
L 121.207288 191.677122 
L 121.93326 193.992417 
L 122.659231 194.824066 
L 124.111175 197.411724 
L 124.837147 198.953401 
L 125.563118 202.065943 
L 126.28909 203.981582 
L 127.015062 205.207743 
L 127.741033 205.918602 
L 128.467005 208.515052 
L 129.192977 209.544275 
L 129.918948 210.789403 
L 130.64492 212.664782 
L 131.370892 213.481816 
L 132.096864 214.642589 
L 132.822835 217.447329 
L 133.548807 218.58674 
L 134.274779 221.61137 
L 135.00075 223.183459 
L 135.726722 224.470464 
L 136.452694 226.04785 
L 137.904637 228.352599 
L 138.630609 229.936243 
L 139.356581 231.113204 
L 140.082552 234.596902 
L 140.808524 236.375439 
L 141.534496 237.739721 
L 142.260467 237.117236 
L 142.986439 237.879555 
L 143.712411 238.415764 
L 144.438383 238.049115 
L 145.164354 239.034398 
L 145.890326 240.994585 
L 146.616298 241.248277 
L 148.068241 242.092766 
L 148.794213 241.382595 
L 149.520184 241.808558 
L 150.246156 241.726821 
L 150.972128 241.902541 
L 151.6981 244.196891 
L 152.424071 244.829932 
L 154.601986 244.688047 
L 155.327958 244.818487 
L 157.505873 244.279405 
L 158.957817 243.939092 
L 159.683788 244.012713 
L 160.40976 243.707074 
L 161.135732 241.053438 
L 161.861703 241.176381 
L 162.587675 239.850361 
L 163.313647 236.801701 
L 164.039618 236.885378 
L 164.76559 235.638141 
L 166.943505 232.421749 
L 168.395449 229.327994 
L 169.12142 227.665335 
L 169.847392 223.363539 
L 170.573364 223.536915 
L 171.299336 218.860459 
L 172.025307 218.716593 
L 172.751279 213.996857 
L 175.655166 201.318942 
L 176.381137 197.509481 
L 177.107109 194.605301 
L 177.833081 188.260989 
L 178.559053 183.907699 
L 179.285024 177.464925 
L 180.010996 172.511744 
L 180.736968 166.756641 
L 181.462939 164.141487 
L 182.188911 158.39899 
L 183.640854 149.605302 
L 184.366826 146.487508 
L 186.544741 133.489524 
L 187.996685 120.397556 
L 188.722656 115.955957 
L 189.448628 109.956633 
L 190.1746 108.746557 
L 190.900571 103.61196 
L 191.626543 103.158218 
L 192.352515 100.23279 
L 193.078487 98.219615 
L 193.804458 97.574178 
L 194.53043 96.631449 
L 195.256402 95.472829 
L 195.982373 93.956255 
L 196.708345 92.82244 
L 197.434317 92.400846 
L 198.160289 93.286945 
L 199.612232 95.471684 
L 200.338204 96.021625 
L 201.064175 99.273272 
L 202.516119 106.524345 
L 203.24209 109.319989 
L 203.968062 111.002512 
L 204.694034 115.009565 
L 205.420006 118.1317 
L 206.145977 120.43909 
L 206.871949 123.726803 
L 209.775836 132.91031 
L 210.501807 137.850988 
L 211.227779 138.280768 
L 211.953751 139.864597 
L 212.679723 140.591425 
L 214.131666 146.371636 
L 214.857638 147.432152 
L 215.583609 147.303198 
L 216.309581 149.245716 
L 217.035553 150.286564 
L 217.761524 150.679483 
L 219.213468 153.203519 
L 219.93944 154.337264 
L 220.665411 154.933221 
L 221.391383 156.392192 
L 222.117355 156.190884 
L 222.843326 157.286628 
L 223.569298 160.154723 
L 225.021242 161.625965 
L 225.747213 163.461896 
L 226.473185 166.0198 
L 227.925128 168.615837 
L 228.6511 170.213314 
L 229.377072 170.098828 
L 230.103043 171.689319 
L 230.829015 171.742786 
L 231.554987 174.589213 
L 232.280959 174.892204 
L 233.00693 176.215864 
L 233.732902 176.851625 
L 234.458874 177.022655 
L 235.184845 177.83832 
L 235.910817 178.966669 
L 236.636789 179.331952 
L 237.36276 179.477658 
L 238.814704 180.643679 
L 239.540676 182.125367 
L 240.266647 183.09148 
L 240.992619 183.749614 
L 241.718591 184.22055 
L 244.622477 184.544221 
L 245.348449 186.553553 
L 246.800393 187.240076 
L 247.526364 188.539243 
L 248.978308 189.499921 
L 249.704279 190.555989 
L 250.430251 191.076617 
L 251.156223 192.255108 
L 252.608166 193.735402 
L 254.786081 195.507396 
L 256.238025 198.703306 
L 256.963996 198.45145 
L 257.689968 198.94304 
L 258.41594 200.744268 
L 259.141912 201.312423 
L 262.045798 206.361031 
L 263.497742 207.859187 
L 264.949685 209.96252 
L 265.675657 210.875123 
L 266.401629 211.519871 
L 267.1276 212.572989 
L 268.579544 213.476574 
L 269.305515 214.62939 
L 270.031487 215.108388 
L 270.757459 215.871043 
L 271.48343 216.461909 
L 272.209402 215.758858 
L 272.935374 216.065853 
L 274.387317 218.333417 
L 275.113289 218.768715 
L 275.839261 218.887579 
L 276.565232 218.226814 
L 277.291204 218.496709 
L 278.017176 217.604026 
L 280.921063 215.705732 
L 281.647034 216.366716 
L 282.373006 215.887611 
L 283.098978 217.068324 
L 283.824949 216.905525 
L 284.550921 217.008256 
L 285.276893 217.921143 
L 286.002865 217.968259 
L 286.728836 219.477022 
L 287.454808 220.42863 
L 288.18078 221.183979 
L 290.358695 222.039873 
L 291.084666 222.115473 
L 292.53661 221.804363 
L 293.262582 221.907316 
L 293.988553 222.150392 
L 296.89244 222.317976 
L 297.618412 222.093229 
L 298.344383 219.912749 
L 299.070355 218.78415 
L 299.796327 218.355463 
L 300.522299 217.381142 
L 301.24827 218.302806 
L 301.974242 216.867015 
L 302.700214 215.182376 
L 304.152157 212.552224 
L 304.878129 211.262339 
L 305.604101 209.305558 
L 306.330072 209.120677 
L 307.056044 206.887721 
L 307.782016 206.531604 
L 308.507987 205.664354 
L 310.685902 201.382611 
L 311.411874 199.512709 
L 312.137846 198.378658 
L 312.863818 195.647504 
L 313.589789 194.469748 
L 315.041733 190.983572 
L 315.767704 189.51455 
L 316.493676 186.147301 
L 317.219648 184.784533 
L 317.945619 184.796899 
L 318.671591 181.709591 
L 320.123535 178.101649 
L 320.849506 176.791175 
L 321.575478 174.387559 
L 322.30145 174.927438 
L 323.027421 174.892379 
L 323.753393 174.187363 
L 324.479365 173.272607 
L 325.205336 171.775919 
L 326.65728 173.500592 
L 327.383252 174.141665 
L 328.109223 174.003728 
L 328.835195 174.960093 
L 329.561167 173.624868 
L 330.287138 175.319638 
L 331.01311 175.376379 
L 331.739082 175.001712 
L 332.465054 175.278891 
L 333.191025 174.891919 
L 333.916997 175.316243 
L 334.642969 176.003242 
L 338.272827 178.588691 
L 338.998799 179.178731 
L 340.450742 179.635652 
L 341.176714 180.476017 
L 341.902686 181.754273 
L 342.628657 182.082699 
L 343.354629 182.687324 
L 344.080601 184.665287 
L 344.806572 184.10177 
L 345.532544 185.13657 
L 346.258516 187.030875 
L 346.984488 187.652654 
L 347.710459 190.305148 
L 348.436431 191.230658 
L 349.162403 193.849143 
L 349.888374 195.091504 
L 350.614346 197.072945 
L 353.518233 202.868677 
L 354.244205 204.086035 
L 354.970176 204.855615 
L 355.696148 206.43544 
L 357.148091 208.635028 
L 359.326007 211.312749 
L 360.051978 212.427684 
L 360.77795 213.171719 
L 361.503922 213.756311 
L 362.955865 216.862288 
L 363.681837 216.828138 
L 364.407808 217.826537 
L 365.859752 220.249347 
L 368.763639 223.068679 
L 369.48961 224.366206 
L 370.215582 225.165798 
L 370.941554 226.546385 
L 373.119469 229.446018 
L 374.571412 229.726712 
L 376.023356 231.315979 
L 376.749327 231.596984 
L 377.475299 231.59199 
L 378.201271 231.840257 
L 378.927242 232.547602 
L 379.653214 232.684029 
L 380.379186 232.959077 
L 381.105158 232.839506 
L 381.831129 232.896218 
L 382.557101 233.072637 
L 383.283073 232.880158 
L 384.009044 232.962853 
L 384.735016 233.158243 
L 385.460988 233.099387 
L 386.18696 233.210337 
L 389.090846 232.625609 
L 389.816818 232.232829 
L 390.54279 232.004871 
L 391.268761 231.907598 
L 392.720705 231.21445 
L 393.446677 230.981489 
L 394.89862 230.146977 
L 396.350563 230.041833 
L 397.802507 229.253299 
L 398.528478 228.752602 
L 399.980422 226.883286 
L 402.158337 223.996001 
L 402.884309 223.398466 
L 403.61028 222.263973 
L 406.514167 216.342126 
L 408.692082 210.84383 
L 409.418054 209.586415 
L 410.144026 207.521793 
L 410.869997 205.902757 
L 414.499856 195.370289 
L 415.951799 190.850743 
L 418.129714 183.923866 
L 421.033601 174.657785 
L 421.759573 172.094367 
L 427.567347 157.785786 
L 430.471233 152.330769 
L 431.197205 151.388906 
L 431.923177 150.212728 
L 433.37512 148.415057 
L 434.101092 148.207035 
L 434.827064 148.149993 
L 435.553035 148.210741 
L 436.279007 148.072595 
L 437.004979 148.328429 
L 437.73095 148.428497 
L 438.456922 148.809841 
L 439.182894 148.962937 
L 440.634837 150.271974 
L 441.360809 151.169323 
L 442.086781 152.255235 
L 442.812752 152.954267 
L 443.538724 154.168207 
L 444.264696 155.044182 
L 444.990667 156.236824 
L 445.716639 157.090801 
L 446.442611 158.645125 
L 447.168583 159.706564 
L 447.894554 161.01881 
L 450.798441 167.72356 
L 452.250384 171.090868 
L 452.976356 172.549691 
L 454.4283 175.878294 
L 458.058158 183.236467 
L 458.78413 184.513797 
L 460.962045 188.834707 
L 464.591903 195.157099 
L 464.591903 195.157099 
" style="fill:none;stroke:#2ca02c;stroke-linecap:square;stroke-width:1.5;"/>
   </g>
   <g id="line2d_4">
    <path clip-path="url(#p70e6d822cb)" d="M 58.773722 193.821922 
L 464.591903 193.821922 
L 464.591903 193.821922 
" style="fill:none;stroke:#000000;stroke-dasharray:3.7,1.6;stroke-dashoffset:0;"/>
   </g>
   <g id="matplotlib.axis_1">
    <g id="xtick_1">
     <g id="line2d_5">
      <defs>
       <path d="M 0 0 
L 0 3.5 
" id="mc3ed7c1740" style="stroke:#000000;stroke-width:0.8;"/>
      </defs>
      <g>
       <use style="stroke:#000000;stroke-width:0.8;" x="79.826901" xlink:href="#mc3ed7c1740" y="294.118125"/>
      </g>
     </g>
     <g id="text_1">
      <!-- 100 -->
      <defs>
       <path d="M 12.40625 8.296875 
L 28.515625 8.296875 
L 28.515625 63.921875 
L 10.984375 60.40625 
L 10.984375 69.390625 
L 28.421875 72.90625 
L 38.28125 72.90625 
L 38.28125 8.296875 
L 54.390625 8.296875 
L 54.390625 0 
L 12.40625 0 
z
" id="DejaVuSans-49"/>
       <path d="M 31.78125 66.40625 
Q 24.171875 66.40625 20.328125 58.90625 
Q 16.5 51.421875 16.5 36.375 
Q 16.5 21.390625 20.328125 13.890625 
Q 24.171875 6.390625 31.78125 6.390625 
Q 39.453125 6.390625 43.28125 13.890625 
Q 47.125 21.390625 47.125 36.375 
Q 47.125 51.421875 43.28125 58.90625 
Q 39.453125 66.40625 31.78125 66.40625 
z
M 31.78125 74.21875 
Q 44.046875 74.21875 50.515625 64.515625 
Q 56.984375 54.828125 56.984375 36.375 
Q 56.984375 17.96875 50.515625 8.265625 
Q 44.046875 -1.421875 31.78125 -1.421875 
Q 19.53125 -1.421875 13.0625 8.265625 
Q 6.59375 17.96875 6.59375 36.375 
Q 6.59375 54.828125 13.0625 64.515625 
Q 19.53125 74.21875 31.78125 74.21875 
z
" id="DejaVuSans-48"/>
      </defs>
      <g transform="translate(70.283151 308.716563)scale(0.1 -0.1)">
       <use xlink:href="#DejaVuSans-49"/>
       <use x="63.623047" xlink:href="#DejaVuSans-48"/>
       <use x="127.246094" xlink:href="#DejaVuSans-48"/>
      </g>
     </g>
    </g>
    <g id="xtick_2">
     <g id="line2d_6">
      <g>
       <use style="stroke:#000000;stroke-width:0.8;" x="152.424071" xlink:href="#mc3ed7c1740" y="294.118125"/>
      </g>
     </g>
     <g id="text_2">
      <!-- 200 -->
      <defs>
       <path d="M 19.1875 8.296875 
L 53.609375 8.296875 
L 53.609375 0 
L 7.328125 0 
L 7.328125 8.296875 
Q 12.9375 14.109375 22.625 23.890625 
Q 32.328125 33.6875 34.8125 36.53125 
Q 39.546875 41.84375 41.421875 45.53125 
Q 43.3125 49.21875 43.3125 52.78125 
Q 43.3125 58.59375 39.234375 62.25 
Q 35.15625 65.921875 28.609375 65.921875 
Q 23.96875 65.921875 18.8125 64.3125 
Q 13.671875 62.703125 7.8125 59.421875 
L 7.8125 69.390625 
Q 13.765625 71.78125 18.9375 73 
Q 24.125 74.21875 28.421875 74.21875 
Q 39.75 74.21875 46.484375 68.546875 
Q 53.21875 62.890625 53.21875 53.421875 
Q 53.21875 48.921875 51.53125 44.890625 
Q 49.859375 40.875 45.40625 35.40625 
Q 44.1875 33.984375 37.640625 27.21875 
Q 31.109375 20.453125 19.1875 8.296875 
z
" id="DejaVuSans-50"/>
      </defs>
      <g transform="translate(142.880321 308.716563)scale(0.1 -0.1)">
       <use xlink:href="#DejaVuSans-50"/>
       <use x="63.623047" xlink:href="#DejaVuSans-48"/>
       <use x="127.246094" xlink:href="#DejaVuSans-48"/>
      </g>
     </g>
    </g>
    <g id="xtick_3">
     <g id="line2d_7">
      <g>
       <use style="stroke:#000000;stroke-width:0.8;" x="225.021242" xlink:href="#mc3ed7c1740" y="294.118125"/>
      </g>
     </g>
     <g id="text_3">
      <!-- 300 -->
      <defs>
       <path d="M 40.578125 39.3125 
Q 47.65625 37.796875 51.625 33 
Q 55.609375 28.21875 55.609375 21.1875 
Q 55.609375 10.40625 48.1875 4.484375 
Q 40.765625 -1.421875 27.09375 -1.421875 
Q 22.515625 -1.421875 17.65625 -0.515625 
Q 12.796875 0.390625 7.625 2.203125 
L 7.625 11.71875 
Q 11.71875 9.328125 16.59375 8.109375 
Q 21.484375 6.890625 26.8125 6.890625 
Q 36.078125 6.890625 40.9375 10.546875 
Q 45.796875 14.203125 45.796875 21.1875 
Q 45.796875 27.640625 41.28125 31.265625 
Q 36.765625 34.90625 28.71875 34.90625 
L 20.21875 34.90625 
L 20.21875 43.015625 
L 29.109375 43.015625 
Q 36.375 43.015625 40.234375 45.921875 
Q 44.09375 48.828125 44.09375 54.296875 
Q 44.09375 59.90625 40.109375 62.90625 
Q 36.140625 65.921875 28.71875 65.921875 
Q 24.65625 65.921875 20.015625 65.03125 
Q 15.375 64.15625 9.8125 62.3125 
L 9.8125 71.09375 
Q 15.4375 72.65625 20.34375 73.4375 
Q 25.25 74.21875 29.59375 74.21875 
Q 40.828125 74.21875 47.359375 69.109375 
Q 53.90625 64.015625 53.90625 55.328125 
Q 53.90625 49.265625 50.4375 45.09375 
Q 46.96875 40.921875 40.578125 39.3125 
z
" id="DejaVuSans-51"/>
      </defs>
      <g transform="translate(215.477492 308.716563)scale(0.1 -0.1)">
       <use xlink:href="#DejaVuSans-51"/>
       <use x="63.623047" xlink:href="#DejaVuSans-48"/>
       <use x="127.246094" xlink:href="#DejaVuSans-48"/>
      </g>
     </g>
    </g>
    <g id="xtick_4">
     <g id="line2d_8">
      <g>
       <use style="stroke:#000000;stroke-width:0.8;" x="297.618412" xlink:href="#mc3ed7c1740" y="294.118125"/>
      </g>
     </g>
     <g id="text_4">
      <!-- 400 -->
      <defs>
       <path d="M 37.796875 64.3125 
L 12.890625 25.390625 
L 37.796875 25.390625 
z
M 35.203125 72.90625 
L 47.609375 72.90625 
L 47.609375 25.390625 
L 58.015625 25.390625 
L 58.015625 17.1875 
L 47.609375 17.1875 
L 47.609375 0 
L 37.796875 0 
L 37.796875 17.1875 
L 4.890625 17.1875 
L 4.890625 26.703125 
z
" id="DejaVuSans-52"/>
      </defs>
      <g transform="translate(288.074662 308.716563)scale(0.1 -0.1)">
       <use xlink:href="#DejaVuSans-52"/>
       <use x="63.623047" xlink:href="#DejaVuSans-48"/>
       <use x="127.246094" xlink:href="#DejaVuSans-48"/>
      </g>
     </g>
    </g>
    <g id="xtick_5">
     <g id="line2d_9">
      <g>
       <use style="stroke:#000000;stroke-width:0.8;" x="370.215582" xlink:href="#mc3ed7c1740" y="294.118125"/>
      </g>
     </g>
     <g id="text_5">
      <!-- 500 -->
      <defs>
       <path d="M 10.796875 72.90625 
L 49.515625 72.90625 
L 49.515625 64.59375 
L 19.828125 64.59375 
L 19.828125 46.734375 
Q 21.96875 47.46875 24.109375 47.828125 
Q 26.265625 48.1875 28.421875 48.1875 
Q 40.625 48.1875 47.75 41.5 
Q 54.890625 34.8125 54.890625 23.390625 
Q 54.890625 11.625 47.5625 5.09375 
Q 40.234375 -1.421875 26.90625 -1.421875 
Q 22.3125 -1.421875 17.546875 -0.640625 
Q 12.796875 0.140625 7.71875 1.703125 
L 7.71875 11.625 
Q 12.109375 9.234375 16.796875 8.0625 
Q 21.484375 6.890625 26.703125 6.890625 
Q 35.15625 6.890625 40.078125 11.328125 
Q 45.015625 15.765625 45.015625 23.390625 
Q 45.015625 31 40.078125 35.4375 
Q 35.15625 39.890625 26.703125 39.890625 
Q 22.75 39.890625 18.8125 39.015625 
Q 14.890625 38.140625 10.796875 36.28125 
z
" id="DejaVuSans-53"/>
      </defs>
      <g transform="translate(360.671832 308.716563)scale(0.1 -0.1)">
       <use xlink:href="#DejaVuSans-53"/>
       <use x="63.623047" xlink:href="#DejaVuSans-48"/>
       <use x="127.246094" xlink:href="#DejaVuSans-48"/>
      </g>
     </g>
    </g>
    <g id="xtick_6">
     <g id="line2d_10">
      <g>
       <use style="stroke:#000000;stroke-width:0.8;" x="442.812752" xlink:href="#mc3ed7c1740" y="294.118125"/>
      </g>
     </g>
     <g id="text_6">
      <!-- 600 -->
      <defs>
       <path d="M 33.015625 40.375 
Q 26.375 40.375 22.484375 35.828125 
Q 18.609375 31.296875 18.609375 23.390625 
Q 18.609375 15.53125 22.484375 10.953125 
Q 26.375 6.390625 33.015625 6.390625 
Q 39.65625 6.390625 43.53125 10.953125 
Q 47.40625 15.53125 47.40625 23.390625 
Q 47.40625 31.296875 43.53125 35.828125 
Q 39.65625 40.375 33.015625 40.375 
z
M 52.59375 71.296875 
L 52.59375 62.3125 
Q 48.875 64.0625 45.09375 64.984375 
Q 41.3125 65.921875 37.59375 65.921875 
Q 27.828125 65.921875 22.671875 59.328125 
Q 17.53125 52.734375 16.796875 39.40625 
Q 19.671875 43.65625 24.015625 45.921875 
Q 28.375 48.1875 33.59375 48.1875 
Q 44.578125 48.1875 50.953125 41.515625 
Q 57.328125 34.859375 57.328125 23.390625 
Q 57.328125 12.15625 50.6875 5.359375 
Q 44.046875 -1.421875 33.015625 -1.421875 
Q 20.359375 -1.421875 13.671875 8.265625 
Q 6.984375 17.96875 6.984375 36.375 
Q 6.984375 53.65625 15.1875 63.9375 
Q 23.390625 74.21875 37.203125 74.21875 
Q 40.921875 74.21875 44.703125 73.484375 
Q 48.484375 72.75 52.59375 71.296875 
z
" id="DejaVuSans-54"/>
      </defs>
      <g transform="translate(433.269002 308.716563)scale(0.1 -0.1)">
       <use xlink:href="#DejaVuSans-54"/>
       <use x="63.623047" xlink:href="#DejaVuSans-48"/>
       <use x="127.246094" xlink:href="#DejaVuSans-48"/>
      </g>
     </g>
    </g>
    <g id="text_7">
     <!-- Tempo -->
     <defs>
      <path d="M -0.296875 72.90625 
L 61.375 72.90625 
L 61.375 64.59375 
L 35.5 64.59375 
L 35.5 0 
L 25.59375 0 
L 25.59375 64.59375 
L -0.296875 64.59375 
z
" id="DejaVuSans-84"/>
      <path d="M 56.203125 29.59375 
L 56.203125 25.203125 
L 14.890625 25.203125 
Q 15.484375 15.921875 20.484375 11.0625 
Q 25.484375 6.203125 34.421875 6.203125 
Q 39.59375 6.203125 44.453125 7.46875 
Q 49.3125 8.734375 54.109375 11.28125 
L 54.109375 2.78125 
Q 49.265625 0.734375 44.1875 -0.34375 
Q 39.109375 -1.421875 33.890625 -1.421875 
Q 20.796875 -1.421875 13.15625 6.1875 
Q 5.515625 13.8125 5.515625 26.8125 
Q 5.515625 40.234375 12.765625 48.109375 
Q 20.015625 56 32.328125 56 
Q 43.359375 56 49.78125 48.890625 
Q 56.203125 41.796875 56.203125 29.59375 
z
M 47.21875 32.234375 
Q 47.125 39.59375 43.09375 43.984375 
Q 39.0625 48.390625 32.421875 48.390625 
Q 24.90625 48.390625 20.390625 44.140625 
Q 15.875 39.890625 15.1875 32.171875 
z
" id="DejaVuSans-101"/>
      <path d="M 52 44.1875 
Q 55.375 50.25 60.0625 53.125 
Q 64.75 56 71.09375 56 
Q 79.640625 56 84.28125 50.015625 
Q 88.921875 44.046875 88.921875 33.015625 
L 88.921875 0 
L 79.890625 0 
L 79.890625 32.71875 
Q 79.890625 40.578125 77.09375 44.375 
Q 74.3125 48.1875 68.609375 48.1875 
Q 61.625 48.1875 57.5625 43.546875 
Q 53.515625 38.921875 53.515625 30.90625 
L 53.515625 0 
L 44.484375 0 
L 44.484375 32.71875 
Q 44.484375 40.625 41.703125 44.40625 
Q 38.921875 48.1875 33.109375 48.1875 
Q 26.21875 48.1875 22.15625 43.53125 
Q 18.109375 38.875 18.109375 30.90625 
L 18.109375 0 
L 9.078125 0 
L 9.078125 54.6875 
L 18.109375 54.6875 
L 18.109375 46.1875 
Q 21.1875 51.21875 25.484375 53.609375 
Q 29.78125 56 35.6875 56 
Q 41.65625 56 45.828125 52.96875 
Q 50 49.953125 52 44.1875 
z
" id="DejaVuSans-109"/>
      <path d="M 18.109375 8.203125 
L 18.109375 -20.796875 
L 9.078125 -20.796875 
L 9.078125 54.6875 
L 18.109375 54.6875 
L 18.109375 46.390625 
Q 20.953125 51.265625 25.265625 53.625 
Q 29.59375 56 35.59375 56 
Q 45.5625 56 51.78125 48.09375 
Q 58.015625 40.1875 58.015625 27.296875 
Q 58.015625 14.40625 51.78125 6.484375 
Q 45.5625 -1.421875 35.59375 -1.421875 
Q 29.59375 -1.421875 25.265625 0.953125 
Q 20.953125 3.328125 18.109375 8.203125 
z
M 48.6875 27.296875 
Q 48.6875 37.203125 44.609375 42.84375 
Q 40.53125 48.484375 33.40625 48.484375 
Q 26.265625 48.484375 22.1875 42.84375 
Q 18.109375 37.203125 18.109375 27.296875 
Q 18.109375 17.390625 22.1875 11.75 
Q 26.265625 6.109375 33.40625 6.109375 
Q 40.53125 6.109375 44.609375 11.75 
Q 48.6875 17.390625 48.6875 27.296875 
z
" id="DejaVuSans-112"/>
      <path d="M 30.609375 48.390625 
Q 23.390625 48.390625 19.1875 42.75 
Q 14.984375 37.109375 14.984375 27.296875 
Q 14.984375 17.484375 19.15625 11.84375 
Q 23.34375 6.203125 30.609375 6.203125 
Q 37.796875 6.203125 41.984375 11.859375 
Q 46.1875 17.53125 46.1875 27.296875 
Q 46.1875 37.015625 41.984375 42.703125 
Q 37.796875 48.390625 30.609375 48.390625 
z
M 30.609375 56 
Q 42.328125 56 49.015625 48.375 
Q 55.71875 40.765625 55.71875 27.296875 
Q 55.71875 13.875 49.015625 6.21875 
Q 42.328125 -1.421875 30.609375 -1.421875 
Q 18.84375 -1.421875 12.171875 6.21875 
Q 5.515625 13.875 5.515625 27.296875 
Q 5.515625 40.765625 12.171875 48.375 
Q 18.84375 56 30.609375 56 
z
" id="DejaVuSans-111"/>
     </defs>
     <g transform="translate(245.298438 322.394687)scale(0.1 -0.1)">
      <use xlink:href="#DejaVuSans-84"/>
      <use x="44.083984" xlink:href="#DejaVuSans-101"/>
      <use x="105.607422" xlink:href="#DejaVuSans-109"/>
      <use x="203.019531" xlink:href="#DejaVuSans-112"/>
      <use x="266.496094" xlink:href="#DejaVuSans-111"/>
     </g>
    </g>
   </g>
   <g id="matplotlib.axis_2">
    <g id="ytick_1">
     <g id="line2d_11">
      <defs>
       <path d="M 0 0 
L -3.5 0 
" id="mc6b5c64c16" style="stroke:#000000;stroke-width:0.8;"/>
      </defs>
      <g>
       <use style="stroke:#000000;stroke-width:0.8;" x="38.482813" xlink:href="#mc6b5c64c16" y="273.374207"/>
      </g>
     </g>
     <g id="text_8">
      <!-- −0.4 -->
      <defs>
       <path d="M 10.59375 35.5 
L 73.1875 35.5 
L 73.1875 27.203125 
L 10.59375 27.203125 
z
" id="DejaVuSans-8722"/>
       <path d="M 10.6875 12.40625 
L 21 12.40625 
L 21 0 
L 10.6875 0 
z
" id="DejaVuSans-46"/>
      </defs>
      <g transform="translate(7.2 277.173426)scale(0.1 -0.1)">
       <use xlink:href="#DejaVuSans-8722"/>
       <use x="83.789062" xlink:href="#DejaVuSans-48"/>
       <use x="147.412109" xlink:href="#DejaVuSans-46"/>
       <use x="179.199219" xlink:href="#DejaVuSans-52"/>
      </g>
     </g>
    </g>
    <g id="ytick_2">
     <g id="line2d_12">
      <g>
       <use style="stroke:#000000;stroke-width:0.8;" x="38.482813" xlink:href="#mc6b5c64c16" y="233.598064"/>
      </g>
     </g>
     <g id="text_9">
      <!-- −0.2 -->
      <g transform="translate(7.2 237.397283)scale(0.1 -0.1)">
       <use xlink:href="#DejaVuSans-8722"/>
       <use x="83.789062" xlink:href="#DejaVuSans-48"/>
       <use x="147.412109" xlink:href="#DejaVuSans-46"/>
       <use x="179.199219" xlink:href="#DejaVuSans-50"/>
      </g>
     </g>
    </g>
    <g id="ytick_3">
     <g id="line2d_13">
      <g>
       <use style="stroke:#000000;stroke-width:0.8;" x="38.482813" xlink:href="#mc6b5c64c16" y="193.821922"/>
      </g>
     </g>
     <g id="text_10">
      <!-- 0.0 -->
      <g transform="translate(15.579688 197.621141)scale(0.1 -0.1)">
       <use xlink:href="#DejaVuSans-48"/>
       <use x="63.623047" xlink:href="#DejaVuSans-46"/>
       <use x="95.410156" xlink:href="#DejaVuSans-48"/>
      </g>
     </g>
    </g>
    <g id="ytick_4">
     <g id="line2d_14">
      <g>
       <use style="stroke:#000000;stroke-width:0.8;" x="38.482813" xlink:href="#mc6b5c64c16" y="154.04578"/>
      </g>
     </g>
     <g id="text_11">
      <!-- 0.2 -->
      <g transform="translate(15.579688 157.844998)scale(0.1 -0.1)">
       <use xlink:href="#DejaVuSans-48"/>
       <use x="63.623047" xlink:href="#DejaVuSans-46"/>
       <use x="95.410156" xlink:href="#DejaVuSans-50"/>
      </g>
     </g>
    </g>
    <g id="ytick_5">
     <g id="line2d_15">
      <g>
       <use style="stroke:#000000;stroke-width:0.8;" x="38.482813" xlink:href="#mc6b5c64c16" y="114.269637"/>
      </g>
     </g>
     <g id="text_12">
      <!-- 0.4 -->
      <g transform="translate(15.579688 118.068856)scale(0.1 -0.1)">
       <use xlink:href="#DejaVuSans-48"/>
       <use x="63.623047" xlink:href="#DejaVuSans-46"/>
       <use x="95.410156" xlink:href="#DejaVuSans-52"/>
      </g>
     </g>
    </g>
    <g id="ytick_6">
     <g id="line2d_16">
      <g>
       <use style="stroke:#000000;stroke-width:0.8;" x="38.482813" xlink:href="#mc6b5c64c16" y="74.493495"/>
      </g>
     </g>
     <g id="text_13">
      <!-- 0.6 -->
      <g transform="translate(15.579688 78.292713)scale(0.1 -0.1)">
       <use xlink:href="#DejaVuSans-48"/>
       <use x="63.623047" xlink:href="#DejaVuSans-46"/>
       <use x="95.410156" xlink:href="#DejaVuSans-54"/>
      </g>
     </g>
    </g>
    <g id="ytick_7">
     <g id="line2d_17">
      <g>
       <use style="stroke:#000000;stroke-width:0.8;" x="38.482813" xlink:href="#mc6b5c64c16" y="34.717352"/>
      </g>
     </g>
     <g id="text_14">
      <!-- 0.8 -->
      <defs>
       <path d="M 31.78125 34.625 
Q 24.75 34.625 20.71875 30.859375 
Q 16.703125 27.09375 16.703125 20.515625 
Q 16.703125 13.921875 20.71875 10.15625 
Q 24.75 6.390625 31.78125 6.390625 
Q 38.8125 6.390625 42.859375 10.171875 
Q 46.921875 13.96875 46.921875 20.515625 
Q 46.921875 27.09375 42.890625 30.859375 
Q 38.875 34.625 31.78125 34.625 
z
M 21.921875 38.8125 
Q 15.578125 40.375 12.03125 44.71875 
Q 8.5 49.078125 8.5 55.328125 
Q 8.5 64.0625 14.71875 69.140625 
Q 20.953125 74.21875 31.78125 74.21875 
Q 42.671875 74.21875 48.875 69.140625 
Q 55.078125 64.0625 55.078125 55.328125 
Q 55.078125 49.078125 51.53125 44.71875 
Q 48 40.375 41.703125 38.8125 
Q 48.828125 37.15625 52.796875 32.3125 
Q 56.78125 27.484375 56.78125 20.515625 
Q 56.78125 9.90625 50.3125 4.234375 
Q 43.84375 -1.421875 31.78125 -1.421875 
Q 19.734375 -1.421875 13.25 4.234375 
Q 6.78125 9.90625 6.78125 20.515625 
Q 6.78125 27.484375 10.78125 32.3125 
Q 14.796875 37.15625 21.921875 38.8125 
z
M 18.3125 54.390625 
Q 18.3125 48.734375 21.84375 45.5625 
Q 25.390625 42.390625 31.78125 42.390625 
Q 38.140625 42.390625 41.71875 45.5625 
Q 45.3125 48.734375 45.3125 54.390625 
Q 45.3125 60.0625 41.71875 63.234375 
Q 38.140625 66.40625 31.78125 66.40625 
Q 25.390625 66.40625 21.84375 63.234375 
Q 18.3125 60.0625 18.3125 54.390625 
z
" id="DejaVuSans-56"/>
      </defs>
      <g transform="translate(15.579688 38.516571)scale(0.1 -0.1)">
       <use xlink:href="#DejaVuSans-48"/>
       <use x="63.623047" xlink:href="#DejaVuSans-46"/>
       <use x="95.410156" xlink:href="#DejaVuSans-56"/>
      </g>
     </g>
    </g>
   </g>
   <g id="patch_3">
    <path d="M 38.482813 294.118125 
L 38.482813 22.318125 
" style="fill:none;stroke:#000000;stroke-linecap:square;stroke-linejoin:miter;stroke-width:0.8;"/>
   </g>
   <g id="patch_4">
    <path d="M 38.482813 294.118125 
L 484.882812 294.118125 
" style="fill:none;stroke:#000000;stroke-linecap:square;stroke-linejoin:miter;stroke-width:0.8;"/>
   </g>
   <g id="text_15">
    <!-- Q_fc -->
    <defs>
     <path d="M 39.40625 66.21875 
Q 28.65625 66.21875 22.328125 58.203125 
Q 16.015625 50.203125 16.015625 36.375 
Q 16.015625 22.609375 22.328125 14.59375 
Q 28.65625 6.59375 39.40625 6.59375 
Q 50.140625 6.59375 56.421875 14.59375 
Q 62.703125 22.609375 62.703125 36.375 
Q 62.703125 50.203125 56.421875 58.203125 
Q 50.140625 66.21875 39.40625 66.21875 
z
M 53.21875 1.3125 
L 66.21875 -12.890625 
L 54.296875 -12.890625 
L 43.5 -1.21875 
Q 41.890625 -1.3125 41.03125 -1.359375 
Q 40.1875 -1.421875 39.40625 -1.421875 
Q 24.03125 -1.421875 14.8125 8.859375 
Q 5.609375 19.140625 5.609375 36.375 
Q 5.609375 53.65625 14.8125 63.9375 
Q 24.03125 74.21875 39.40625 74.21875 
Q 54.734375 74.21875 63.90625 63.9375 
Q 73.09375 53.65625 73.09375 36.375 
Q 73.09375 23.6875 67.984375 14.640625 
Q 62.890625 5.609375 53.21875 1.3125 
z
" id="DejaVuSans-81"/>
     <path d="M 50.984375 -16.609375 
L 50.984375 -23.578125 
L -0.984375 -23.578125 
L -0.984375 -16.609375 
z
" id="DejaVuSans-95"/>
     <path d="M 37.109375 75.984375 
L 37.109375 68.5 
L 28.515625 68.5 
Q 23.6875 68.5 21.796875 66.546875 
Q 19.921875 64.59375 19.921875 59.515625 
L 19.921875 54.6875 
L 34.71875 54.6875 
L 34.71875 47.703125 
L 19.921875 47.703125 
L 19.921875 0 
L 10.890625 0 
L 10.890625 47.703125 
L 2.296875 47.703125 
L 2.296875 54.6875 
L 10.890625 54.6875 
L 10.890625 58.5 
Q 10.890625 67.625 15.140625 71.796875 
Q 19.390625 75.984375 28.609375 75.984375 
z
" id="DejaVuSans-102"/>
     <path d="M 48.78125 52.59375 
L 48.78125 44.1875 
Q 44.96875 46.296875 41.140625 47.34375 
Q 37.3125 48.390625 33.40625 48.390625 
Q 24.65625 48.390625 19.8125 42.84375 
Q 14.984375 37.3125 14.984375 27.296875 
Q 14.984375 17.28125 19.8125 11.734375 
Q 24.65625 6.203125 33.40625 6.203125 
Q 37.3125 6.203125 41.140625 7.25 
Q 44.96875 8.296875 48.78125 10.40625 
L 48.78125 2.09375 
Q 45.015625 0.34375 40.984375 -0.53125 
Q 36.96875 -1.421875 32.421875 -1.421875 
Q 20.0625 -1.421875 12.78125 6.34375 
Q 5.515625 14.109375 5.515625 27.296875 
Q 5.515625 40.671875 12.859375 48.328125 
Q 20.21875 56 33.015625 56 
Q 37.15625 56 41.109375 55.140625 
Q 45.0625 54.296875 48.78125 52.59375 
z
" id="DejaVuSans-99"/>
    </defs>
    <g transform="translate(248.548438 16.318125)scale(0.12 -0.12)">
     <use xlink:href="#DejaVuSans-81"/>
     <use x="78.710938" xlink:href="#DejaVuSans-95"/>
     <use x="128.710938" xlink:href="#DejaVuSans-102"/>
     <use x="163.916016" xlink:href="#DejaVuSans-99"/>
    </g>
   </g>
   <g id="legend_1">
    <g id="patch_5">
     <path d="M 491.882812 190.104844 
L 566.28125 190.104844 
Q 568.28125 190.104844 568.28125 188.104844 
L 568.28125 128.331406 
Q 568.28125 126.331406 566.28125 126.331406 
L 491.882812 126.331406 
Q 489.882812 126.331406 489.882812 128.331406 
L 489.882812 188.104844 
Q 489.882812 190.104844 491.882812 190.104844 
z
" style="fill:#ffffff;opacity:0.8;stroke:#cccccc;stroke-linejoin:miter;"/>
    </g>
    <g id="line2d_18">
     <path d="M 493.882812 134.429844 
L 513.882812 134.429844 
" style="fill:none;stroke:#000000;stroke-dasharray:3.7,1.6;stroke-dashoffset:0;"/>
    </g>
    <g id="line2d_19"/>
    <g id="text_16">
     <!-- Baseline -->
     <defs>
      <path d="M 19.671875 34.8125 
L 19.671875 8.109375 
L 35.5 8.109375 
Q 43.453125 8.109375 47.28125 11.40625 
Q 51.125 14.703125 51.125 21.484375 
Q 51.125 28.328125 47.28125 31.5625 
Q 43.453125 34.8125 35.5 34.8125 
z
M 19.671875 64.796875 
L 19.671875 42.828125 
L 34.28125 42.828125 
Q 41.5 42.828125 45.03125 45.53125 
Q 48.578125 48.25 48.578125 53.8125 
Q 48.578125 59.328125 45.03125 62.0625 
Q 41.5 64.796875 34.28125 64.796875 
z
M 9.8125 72.90625 
L 35.015625 72.90625 
Q 46.296875 72.90625 52.390625 68.21875 
Q 58.5 63.53125 58.5 54.890625 
Q 58.5 48.1875 55.375 44.234375 
Q 52.25 40.28125 46.1875 39.3125 
Q 53.46875 37.75 57.5 32.78125 
Q 61.53125 27.828125 61.53125 20.40625 
Q 61.53125 10.640625 54.890625 5.3125 
Q 48.25 0 35.984375 0 
L 9.8125 0 
z
" id="DejaVuSans-66"/>
      <path d="M 34.28125 27.484375 
Q 23.390625 27.484375 19.1875 25 
Q 14.984375 22.515625 14.984375 16.5 
Q 14.984375 11.71875 18.140625 8.90625 
Q 21.296875 6.109375 26.703125 6.109375 
Q 34.1875 6.109375 38.703125 11.40625 
Q 43.21875 16.703125 43.21875 25.484375 
L 43.21875 27.484375 
z
M 52.203125 31.203125 
L 52.203125 0 
L 43.21875 0 
L 43.21875 8.296875 
Q 40.140625 3.328125 35.546875 0.953125 
Q 30.953125 -1.421875 24.3125 -1.421875 
Q 15.921875 -1.421875 10.953125 3.296875 
Q 6 8.015625 6 15.921875 
Q 6 25.140625 12.171875 29.828125 
Q 18.359375 34.515625 30.609375 34.515625 
L 43.21875 34.515625 
L 43.21875 35.40625 
Q 43.21875 41.609375 39.140625 45 
Q 35.0625 48.390625 27.6875 48.390625 
Q 23 48.390625 18.546875 47.265625 
Q 14.109375 46.140625 10.015625 43.890625 
L 10.015625 52.203125 
Q 14.9375 54.109375 19.578125 55.046875 
Q 24.21875 56 28.609375 56 
Q 40.484375 56 46.34375 49.84375 
Q 52.203125 43.703125 52.203125 31.203125 
z
" id="DejaVuSans-97"/>
      <path d="M 44.28125 53.078125 
L 44.28125 44.578125 
Q 40.484375 46.53125 36.375 47.5 
Q 32.28125 48.484375 27.875 48.484375 
Q 21.1875 48.484375 17.84375 46.4375 
Q 14.5 44.390625 14.5 40.28125 
Q 14.5 37.15625 16.890625 35.375 
Q 19.28125 33.59375 26.515625 31.984375 
L 29.59375 31.296875 
Q 39.15625 29.25 43.1875 25.515625 
Q 47.21875 21.78125 47.21875 15.09375 
Q 47.21875 7.46875 41.1875 3.015625 
Q 35.15625 -1.421875 24.609375 -1.421875 
Q 20.21875 -1.421875 15.453125 -0.5625 
Q 10.6875 0.296875 5.421875 2 
L 5.421875 11.28125 
Q 10.40625 8.6875 15.234375 7.390625 
Q 20.0625 6.109375 24.8125 6.109375 
Q 31.15625 6.109375 34.5625 8.28125 
Q 37.984375 10.453125 37.984375 14.40625 
Q 37.984375 18.0625 35.515625 20.015625 
Q 33.0625 21.96875 24.703125 23.78125 
L 21.578125 24.515625 
Q 13.234375 26.265625 9.515625 29.90625 
Q 5.8125 33.546875 5.8125 39.890625 
Q 5.8125 47.609375 11.28125 51.796875 
Q 16.75 56 26.8125 56 
Q 31.78125 56 36.171875 55.265625 
Q 40.578125 54.546875 44.28125 53.078125 
z
" id="DejaVuSans-115"/>
      <path d="M 9.421875 75.984375 
L 18.40625 75.984375 
L 18.40625 0 
L 9.421875 0 
z
" id="DejaVuSans-108"/>
      <path d="M 9.421875 54.6875 
L 18.40625 54.6875 
L 18.40625 0 
L 9.421875 0 
z
M 9.421875 75.984375 
L 18.40625 75.984375 
L 18.40625 64.59375 
L 9.421875 64.59375 
z
" id="DejaVuSans-105"/>
      <path d="M 54.890625 33.015625 
L 54.890625 0 
L 45.90625 0 
L 45.90625 32.71875 
Q 45.90625 40.484375 42.875 44.328125 
Q 39.84375 48.1875 33.796875 48.1875 
Q 26.515625 48.1875 22.3125 43.546875 
Q 18.109375 38.921875 18.109375 30.90625 
L 18.109375 0 
L 9.078125 0 
L 9.078125 54.6875 
L 18.109375 54.6875 
L 18.109375 46.1875 
Q 21.34375 51.125 25.703125 53.5625 
Q 30.078125 56 35.796875 56 
Q 45.21875 56 50.046875 50.171875 
Q 54.890625 44.34375 54.890625 33.015625 
z
" id="DejaVuSans-110"/>
     </defs>
     <g transform="translate(521.882812 137.929844)scale(0.1 -0.1)">
      <use xlink:href="#DejaVuSans-66"/>
      <use x="68.603516" xlink:href="#DejaVuSans-97"/>
      <use x="129.882812" xlink:href="#DejaVuSans-115"/>
      <use x="181.982422" xlink:href="#DejaVuSans-101"/>
      <use x="243.505859" xlink:href="#DejaVuSans-108"/>
      <use x="271.289062" xlink:href="#DejaVuSans-105"/>
      <use x="299.072266" xlink:href="#DejaVuSans-110"/>
      <use x="362.451172" xlink:href="#DejaVuSans-101"/>
     </g>
    </g>
    <g id="line2d_20">
     <path d="M 493.882812 149.107969 
L 513.882812 149.107969 
" style="fill:none;stroke:#1f77b4;stroke-linecap:square;stroke-width:1.5;"/>
    </g>
    <g id="line2d_21"/>
    <g id="text_17">
     <!-- $\Downarrow \sigma_\psi$ -->
     <defs>
      <path d="M 36.765625 14.3125 
L 41.9375 9.234375 
L 47.015625 14.3125 
L 47.015625 72.90625 
L 52.875 72.90625 
L 52.875 20.171875 
L 57.46875 24.75 
L 63.328125 18.890625 
L 44.09375 -0.34375 
L 39.703125 -0.34375 
L 20.5625 18.890625 
L 26.421875 24.75 
L 30.90625 20.171875 
L 30.90625 72.90625 
L 36.765625 72.90625 
z
" id="DejaVuSans-8659"/>
      <path d="M 34.671875 47.5625 
Q 27.25 47.5625 22.21875 42.1875 
Q 16.890625 36.578125 15.140625 27.296875 
Q 13.1875 17.484375 16.3125 11.8125 
Q 19.390625 6.203125 26.65625 6.203125 
Q 33.84375 6.203125 39.109375 11.859375 
Q 44.4375 17.53125 46.34375 27.296875 
Q 48.046875 36.234375 45.015625 42.1875 
Q 42.1875 47.5625 34.671875 47.5625 
z
M 36.078125 54.734375 
L 65.921875 54.6875 
L 64.15625 45.703125 
L 54.109375 45.703125 
Q 57.90625 38.09375 55.859375 27.296875 
Q 53.21875 13.875 45.0625 6.25 
Q 36.859375 -1.421875 25.140625 -1.421875 
Q 13.375 -1.421875 8.203125 6.25 
Q 3.03125 13.875 5.671875 27.296875 
Q 8.25 40.765625 16.40625 48.390625 
Q 23.1875 54.734375 36.078125 54.734375 
z
" id="DejaVuSans-Oblique-963"/>
      <path d="M 24.859375 -1.21875 
Q 13.921875 0.59375 9.625 5.328125 
Q 4.34375 11.140625 6.640625 23 
L 12.796875 54.6875 
L 21.875 54.6875 
L 15.765625 23.34375 
Q 14.0625 14.40625 17.484375 10.6875 
Q 20.515625 7.46875 26.421875 6.78125 
L 35.6875 54.6875 
L 44.625 54.6875 
L 35.359375 6.84375 
Q 41.890625 7.515625 45.75 10.75 
Q 50.734375 14.84375 52.390625 23.390625 
L 58.453125 54.6875 
L 67.53125 54.6875 
L 61.375 23.046875 
Q 58.984375 10.75 51.5625 5.375 
Q 44.875 0.53125 33.796875 -1.171875 
L 29.984375 -20.796875 
L 21.046875 -20.796875 
z
" id="DejaVuSans-Oblique-968"/>
     </defs>
     <g transform="translate(521.882812 152.607969)scale(0.1 -0.1)">
      <use transform="translate(19.482422 0.09375)" xlink:href="#DejaVuSans-8659"/>
      <use transform="translate(122.753906 0.09375)" xlink:href="#DejaVuSans-Oblique-963"/>
      <use transform="translate(186.132812 -16.3125)scale(0.7)" xlink:href="#DejaVuSans-Oblique-968"/>
     </g>
    </g>
    <g id="line2d_22">
     <path d="M 493.882812 164.806406 
L 513.882812 164.806406 
" style="fill:none;stroke:#ff7f0e;stroke-linecap:square;stroke-width:1.5;"/>
    </g>
    <g id="line2d_23"/>
    <g id="text_18">
     <!-- $\Downarrow s_\psi$ -->
     <defs>
      <path d="M 50 53.078125 
L 48.296875 44.578125 
Q 44.734375 46.53125 40.765625 47.5 
Q 36.8125 48.484375 32.625 48.484375 
Q 25.53125 48.484375 21.453125 46.0625 
Q 17.390625 43.65625 17.390625 39.5 
Q 17.390625 34.671875 26.859375 32.078125 
Q 27.59375 31.890625 27.9375 31.78125 
L 30.8125 30.90625 
Q 39.796875 28.421875 42.796875 25.6875 
Q 45.796875 22.953125 45.796875 18.21875 
Q 45.796875 9.515625 38.890625 4.046875 
Q 31.984375 -1.421875 20.796875 -1.421875 
Q 16.453125 -1.421875 11.671875 -0.578125 
Q 6.890625 0.25 1.125 2 
L 2.875 11.28125 
Q 7.8125 8.734375 12.59375 7.421875 
Q 17.390625 6.109375 21.78125 6.109375 
Q 28.375 6.109375 32.5 8.9375 
Q 36.625 11.765625 36.625 16.109375 
Q 36.625 20.796875 25.78125 23.6875 
L 24.859375 23.921875 
L 21.78125 24.703125 
Q 14.9375 26.515625 11.765625 29.46875 
Q 8.59375 32.421875 8.59375 37.015625 
Q 8.59375 45.75 15.15625 50.875 
Q 21.734375 56 33.015625 56 
Q 37.453125 56 41.671875 55.265625 
Q 45.90625 54.546875 50 53.078125 
z
" id="DejaVuSans-Oblique-115"/>
     </defs>
     <g transform="translate(521.882812 168.306406)scale(0.1 -0.1)">
      <use transform="translate(19.482422 0.09375)" xlink:href="#DejaVuSans-8659"/>
      <use transform="translate(122.753906 0.09375)" xlink:href="#DejaVuSans-Oblique-115"/>
      <use transform="translate(174.853516 -16.3125)scale(0.7)" xlink:href="#DejaVuSans-Oblique-968"/>
     </g>
    </g>
    <g id="line2d_24">
     <path d="M 493.882812 180.504844 
L 513.882812 180.504844 
" style="fill:none;stroke:#2ca02c;stroke-linecap:square;stroke-width:1.5;"/>
    </g>
    <g id="line2d_25"/>
    <g id="text_19">
     <!-- $\Uparrow \eta$ -->
     <defs>
      <path d="M 36.765625 58.59375 
L 36.765625 0 
L 30.90625 0 
L 30.90625 52.734375 
L 26.421875 48.140625 
L 20.5625 54 
L 39.703125 73.25 
L 44.09375 73.25 
L 63.328125 54 
L 57.46875 48.140625 
L 52.875 52.734375 
L 52.875 0 
L 47.015625 0 
L 47.015625 58.59375 
L 41.9375 63.671875 
z
" id="DejaVuSans-8657"/>
      <path d="M 57.859375 33.015625 
L 47.40625 -20.796875 
L 38.421875 -20.796875 
L 48.828125 32.71875 
Q 50.34375 40.484375 48.046875 44.34375 
Q 45.796875 48.1875 39.75 48.1875 
Q 32.46875 48.1875 27.34375 43.5625 
Q 22.265625 38.921875 20.703125 30.90625 
L 14.703125 0 
L 5.671875 0 
L 16.3125 54.6875 
L 25.34375 54.6875 
L 23.6875 46.1875 
Q 27.828125 51.125 32.71875 53.5625 
Q 37.546875 56 43.265625 56 
Q 52.6875 56 56.390625 50.203125 
Q 60.0625 44.34375 57.859375 33.015625 
z
" id="DejaVuSans-Oblique-951"/>
     </defs>
     <g transform="translate(521.882812 184.004844)scale(0.1 -0.1)">
      <use transform="translate(19.482422 0.75)" xlink:href="#DejaVuSans-8657"/>
      <use transform="translate(122.753906 0.75)" xlink:href="#DejaVuSans-Oblique-951"/>
     </g>
    </g>
   </g>
  </g>
 </g>
 <defs>
  <clipPath id="p70e6d822cb">
   <rect height="271.8" width="446.4" x="38.482813" y="22.318125"/>
  </clipPath>
 </defs>
</svg>
