<?xml version="1.0" encoding="utf-8" standalone="no"?>
<!DOCTYPE svg PUBLIC "-//W3C//DTD SVG 1.1//EN"
  "http://www.w3.org/Graphics/SVG/1.1/DTD/svg11.dtd">
<!-- Created with matplotlib (https://matplotlib.org/) -->
<svg height="331.674375pt" version="1.1" viewBox="0 0 585.028125 331.674375" width="585.028125pt" xmlns="http://www.w3.org/2000/svg" xmlns:xlink="http://www.w3.org/1999/xlink">
 <defs>
  <style type="text/css">
*{stroke-linecap:butt;stroke-linejoin:round;}
  </style>
 </defs>
 <g id="figure_1">
  <g id="patch_1">
   <path d="M 0 331.674375 
L 585.028125 331.674375 
L 585.028125 0 
L 0 0 
z
" style="fill:#ffffff;"/>
  </g>
  <g id="axes_1">
   <g id="patch_2">
    <path d="M 48.029687 294.118125 
L 494.429688 294.118125 
L 494.429688 22.318125 
L 48.029687 22.318125 
z
" style="fill:#ffffff;"/>
   </g>
   <g id="line2d_1">
    <path clip-path="url(#p7e6f1e2016)" d="M 68.320597 100.99238 
L 69.046568 99.719332 
L 69.77254 71.815605 
L 70.498512 81.053288 
L 71.224483 98.096177 
L 71.950455 101.384501 
L 72.676427 103.458754 
L 73.402399 100.918276 
L 74.12837 94.646096 
L 74.854342 102.034308 
L 75.580314 76.720683 
L 76.306285 74.122793 
L 77.032257 105.025076 
L 77.758229 98.427316 
L 78.4842 77.251764 
L 79.210172 61.248877 
L 79.936144 78.852566 
L 80.662116 76.084082 
L 81.388087 72.507163 
L 82.114059 72.434456 
L 82.840031 34.673134 
L 83.566002 93.865836 
L 84.291974 73.806965 
L 85.017946 74.789122 
L 85.743917 99.300294 
L 86.469889 96.366431 
L 87.195861 97.030997 
L 87.921833 101.122957 
L 88.647804 74.816345 
L 89.373776 78.932372 
L 90.099748 73.767007 
L 90.825719 35.252336 
L 91.551691 55.167842 
L 92.277663 66.17971 
L 93.003634 92.326331 
L 93.729606 101.095142 
L 94.455578 103.650827 
L 95.18155 77.401427 
L 95.907521 46.518513 
L 96.633493 54.472668 
L 97.359465 71.903553 
L 98.085436 72.807315 
L 98.811408 48.062064 
L 99.53738 88.40563 
L 100.263352 97.353269 
L 100.989323 71.641829 
L 101.715295 51.231712 
L 102.441267 43.638594 
L 103.167238 52.022017 
L 103.89321 86.674783 
L 104.619182 63.091099 
L 105.345153 47.624562 
L 106.071125 76.987553 
L 106.797097 73.711581 
L 107.523069 57.092832 
L 108.24904 61.832913 
L 108.975012 83.221703 
L 109.700984 99.44782 
L 110.426955 97.652611 
L 111.152927 98.882224 
L 111.878899 101.675184 
L 112.60487 97.475667 
L 113.330842 68.097076 
L 114.056814 52.168835 
L 114.782786 58.383463 
L 115.508757 84.884194 
L 116.234729 98.77219 
L 116.960701 98.710297 
L 117.686672 105.326943 
L 118.412644 104.549303 
L 119.138616 104.061826 
L 119.864587 105.293687 
L 120.590559 78.113749 
L 121.316531 78.738448 
L 122.042503 99.150726 
L 122.768474 107.109287 
L 123.494446 106.736923 
L 124.220418 95.750409 
L 124.946389 89.124875 
L 125.672361 100.613055 
L 126.398333 92.096903 
L 127.124305 70.848773 
L 127.850276 82.683451 
L 128.576248 106.289656 
L 129.30222 105.966761 
L 130.028191 71.545952 
L 130.754163 57.282159 
L 131.480135 97.796634 
L 132.206106 69.777525 
L 132.932078 72.445936 
L 133.65805 96.562498 
L 134.384022 97.064959 
L 135.109993 100.859125 
L 135.835965 103.711559 
L 136.561937 105.858238 
L 137.287908 104.356667 
L 138.01388 98.423094 
L 138.739852 95.631625 
L 139.465823 69.849643 
L 140.191795 49.002941 
L 140.917767 91.467969 
L 141.643739 97.380766 
L 142.36971 101.589524 
L 143.095682 102.246355 
L 144.547625 57.332337 
L 145.273597 97.684268 
L 145.999569 105.467983 
L 146.72554 95.692878 
L 147.451512 100.131073 
L 148.177484 99.926595 
L 148.903456 101.14308 
L 149.629427 69.460449 
L 150.355399 49.989656 
L 151.081371 84.110375 
L 151.807342 97.22075 
L 152.533314 105.482539 
L 153.985258 34.67267 
L 154.711229 85.759934 
L 155.437201 99.301215 
L 156.163173 100.760237 
L 156.889144 103.695983 
L 157.615116 99.318938 
L 159.067059 107.217749 
L 159.793031 105.368986 
L 160.519003 107.396114 
L 161.244975 105.700193 
L 161.970946 105.716302 
L 162.696918 101.835762 
L 163.42289 102.674238 
L 164.148861 68.194104 
L 164.874833 74.64505 
L 165.600805 108.791318 
L 166.326776 107.906073 
L 167.052748 96.286196 
L 167.77872 95.006333 
L 168.504692 100.93341 
L 169.230663 108.005262 
L 169.956635 100.253704 
L 170.682607 100.26462 
L 171.408578 104.900691 
L 172.13455 97.471584 
L 172.860522 103.478276 
L 174.312465 108.015153 
L 175.038437 81.830773 
L 175.764409 39.946872 
L 176.49038 70.058744 
L 177.216352 62.100465 
L 177.942324 81.958283 
L 178.668295 106.205518 
L 179.394267 103.707892 
L 180.120239 66.366082 
L 180.846211 42.519024 
L 181.572182 72.77741 
L 182.298154 91.474585 
L 183.024126 106.789485 
L 183.750097 100.103056 
L 184.476069 96.729886 
L 185.202041 100.723157 
L 185.928012 105.991539 
L 186.653984 97.906132 
L 187.379956 97.26955 
L 188.105928 97.610166 
L 188.831899 100.830735 
L 189.557871 98.46899 
L 190.283843 105.567305 
L 191.009814 98.893177 
L 191.735786 76.870262 
L 192.461758 61.681484 
L 193.187729 86.803788 
L 193.913701 105.767424 
L 194.639673 108.782527 
L 195.365645 106.188811 
L 196.091616 109.031124 
L 196.817588 99.356945 
L 197.54356 104.310408 
L 198.269531 99.972379 
L 198.995503 103.465099 
L 199.721475 108.083173 
L 200.447446 98.587239 
L 201.173418 103.937499 
L 201.89939 98.817884 
L 202.625362 103.120787 
L 203.351333 102.541368 
L 204.077305 103.123949 
L 204.803277 107.003257 
L 205.529248 100.726933 
L 206.25522 97.472791 
L 206.981192 96.524458 
L 207.707164 107.208989 
L 208.433135 105.109442 
L 209.159107 104.814267 
L 209.885079 81.607848 
L 210.61105 70.337161 
L 211.337022 111.04362 
L 212.062994 110.826018 
L 212.788965 108.972233 
L 213.514937 109.237742 
L 214.240909 101.057713 
L 214.966881 104.936602 
L 215.692852 64.729914 
L 216.418824 53.114268 
L 217.144796 91.674463 
L 217.870767 108.609922 
L 218.596739 99.495205 
L 219.322711 75.706165 
L 220.048682 58.747051 
L 220.774654 100.635787 
L 221.500626 82.224922 
L 222.226598 60.242415 
L 222.952569 88.395524 
L 223.678541 108.227034 
L 224.404513 110.289683 
L 225.130484 107.800982 
L 225.856456 100.661688 
L 226.582428 83.566088 
L 227.308399 104.948139 
L 228.034371 110.338407 
L 228.760343 105.712409 
L 229.486315 108.569687 
L 230.212286 109.516896 
L 230.938258 109.485003 
L 231.66423 105.977299 
L 232.390201 108.016288 
L 233.116173 110.777594 
L 233.842145 102.339158 
L 234.568117 82.155324 
L 235.294088 85.016233 
L 236.02006 108.481899 
L 237.472003 55.248383 
L 238.923947 108.819921 
L 239.649918 72.303588 
L 240.37589 58.346818 
L 241.101862 65.193513 
L 241.827834 92.827748 
L 242.553805 111.792859 
L 244.005749 62.798871 
L 244.73172 87.613405 
L 245.457692 82.130938 
L 246.183664 82.228735 
L 246.909635 102.56772 
L 247.635607 108.963637 
L 248.361579 106.952581 
L 249.813522 53.100496 
L 250.539494 100.017931 
L 251.265466 112.648223 
L 251.991437 111.318977 
L 252.717409 103.458725 
L 253.443381 102.106651 
L 254.169352 72.245531 
L 254.895324 82.190729 
L 255.621296 108.198226 
L 256.347268 74.033776 
L 257.073239 70.515153 
L 257.799211 110.480274 
L 258.525183 82.080469 
L 259.251154 87.779755 
L 260.703098 49.389586 
L 261.42907 62.200448 
L 262.155041 96.994391 
L 262.881013 107.493883 
L 263.606985 85.874701 
L 264.332956 88.502572 
L 265.058928 113.547955 
L 265.7849 113.350806 
L 266.510871 111.814954 
L 267.236843 103.71514 
L 267.962815 87.408388 
L 268.688787 86.213309 
L 269.414758 105.172869 
L 270.14073 105.829612 
L 270.866702 99.422957 
L 271.592673 72.514867 
L 272.318645 77.528629 
L 273.044617 87.329447 
L 273.770588 84.258605 
L 274.49656 112.707662 
L 275.222532 115.965029 
L 275.948504 114.75132 
L 277.400447 61.338292 
L 278.126419 101.811647 
L 278.85239 109.601431 
L 279.578362 102.661412 
L 280.304334 109.294548 
L 281.030305 104.76849 
L 281.756277 115.85076 
L 282.482249 117.351813 
L 283.208221 119.300002 
L 283.934192 113.126038 
L 284.660164 82.016951 
L 285.386136 89.365776 
L 286.112107 108.39627 
L 286.838079 104.172177 
L 287.564051 114.193935 
L 288.290023 113.78414 
L 289.015994 118.716252 
L 289.741966 119.022591 
L 290.467938 121.860555 
L 291.193909 122.184421 
L 291.919881 120.37053 
L 293.371824 78.659576 
L 294.097796 77.525405 
L 294.823768 77.514178 
L 295.54974 72.998661 
L 296.275711 97.737625 
L 297.001683 83.146584 
L 297.727655 65.643502 
L 298.453626 104.515909 
L 299.179598 106.294049 
L 299.90557 107.637947 
L 300.631541 87.883642 
L 301.357513 96.006216 
L 302.083485 121.411204 
L 302.809457 103.102854 
L 303.535428 116.505861 
L 304.2614 114.919757 
L 304.987372 119.83887 
L 305.713343 122.151956 
L 306.439315 120.554069 
L 307.165287 122.488266 
L 307.891258 121.923071 
L 308.61723 95.826859 
L 309.343202 99.585071 
L 310.069174 124.689728 
L 310.795145 114.36649 
L 311.521117 111.312785 
L 312.247089 109.922748 
L 312.97306 123.673557 
L 313.699032 124.895583 
L 314.425004 120.575244 
L 315.150976 119.802032 
L 315.876947 116.227911 
L 316.602919 94.658281 
L 317.328891 65.220165 
L 318.054862 83.538015 
L 318.780834 108.044418 
L 319.506806 122.857276 
L 320.232777 122.947193 
L 320.958749 97.472522 
L 321.684721 97.940334 
L 322.410693 125.987528 
L 323.136664 122.293958 
L 323.862636 117.258957 
L 324.588608 98.39749 
L 325.314579 109.735042 
L 326.040551 124.789018 
L 326.766523 127.348485 
L 327.492494 111.445823 
L 328.218466 126.517352 
L 328.944438 87.684122 
L 329.67041 95.664915 
L 330.396381 125.60317 
L 331.122353 120.46018 
L 331.848325 102.811653 
L 332.574296 107.897432 
L 333.300268 122.42712 
L 334.02624 130.736007 
L 335.478183 78.177548 
L 336.204155 85.649571 
L 336.930127 86.966736 
L 337.656098 102.014204 
L 338.38207 100.93925 
L 339.108042 98.897786 
L 339.834013 128.038958 
L 340.559985 125.680672 
L 341.285957 93.650404 
L 342.7379 133.435343 
L 343.463872 107.252799 
L 344.189844 95.625139 
L 344.915815 130.9153 
L 345.641787 122.360262 
L 346.367759 124.272002 
L 347.09373 95.633135 
L 347.819702 85.096817 
L 348.545674 122.48416 
L 349.271646 125.036534 
L 349.997617 101.607586 
L 350.723589 92.100294 
L 351.449561 122.68265 
L 352.175532 136.944279 
L 352.901504 99.635624 
L 353.627476 83.307302 
L 354.353447 110.30215 
L 355.079419 120.10422 
L 355.805391 139.294707 
L 356.531363 90.31054 
L 357.257334 106.384442 
L 357.983306 101.609089 
L 358.709278 77.814575 
L 359.435249 98.257331 
L 360.161221 106.515192 
L 360.887193 131.119949 
L 361.613164 140.108169 
L 362.339136 99.578997 
L 363.79108 142.964498 
L 364.517051 111.986195 
L 365.243023 121.41913 
L 365.968995 108.657643 
L 367.420938 144.354084 
L 368.14691 125.961753 
L 369.598853 144.859774 
L 370.324825 122.588184 
L 371.050797 123.763637 
L 371.776768 109.698723 
L 372.50274 117.646046 
L 373.228712 124.008809 
L 373.954683 88.052188 
L 374.680655 109.337441 
L 375.406627 135.924882 
L 376.132599 141.561912 
L 376.85857 145.326836 
L 377.584542 144.347 
L 378.310514 141.520842 
L 379.036485 136.175172 
L 379.762457 114.578598 
L 380.488429 102.447898 
L 381.2144 138.706926 
L 381.940372 126.999699 
L 382.666344 136.918365 
L 383.392316 152.327285 
L 384.118287 122.950896 
L 384.844259 133.345539 
L 385.570231 118.766033 
L 386.296202 108.168539 
L 387.022174 149.233313 
L 387.748146 148.498792 
L 388.474117 140.200022 
L 389.200089 156.63868 
L 389.926061 165.792587 
L 390.652033 154.258269 
L 391.378004 162.531536 
L 392.103976 126.78408 
L 392.829948 122.674292 
L 393.555919 110.965499 
L 394.281891 152.852766 
L 395.007863 157.635491 
L 395.733835 121.936406 
L 396.459806 107.218527 
L 397.185778 120.101397 
L 397.91175 114.947433 
L 398.637721 151.110569 
L 399.363693 143.746776 
L 400.089665 137.745957 
L 400.815636 172.333189 
L 401.541608 166.415366 
L 402.26758 162.165364 
L 402.993552 158.645973 
L 403.719523 143.666198 
L 404.445495 145.327426 
L 405.171467 159.960534 
L 405.897438 166.663549 
L 406.62341 163.772306 
L 407.349382 171.59401 
L 408.075353 135.502873 
L 408.801325 124.484634 
L 409.527297 135.572066 
L 410.253269 163.003438 
L 410.97924 168.918523 
L 411.705212 180.653212 
L 412.431184 153.515205 
L 413.157155 163.579522 
L 413.883127 159.971991 
L 414.609099 163.592278 
L 415.33507 174.859409 
L 416.061042 181.045174 
L 416.787014 164.755382 
L 417.512986 138.10615 
L 418.238957 136.35823 
L 418.964929 174.787524 
L 419.690901 150.92031 
L 420.416872 142.634754 
L 421.142844 144.39302 
L 421.868816 166.708377 
L 422.594788 183.393329 
L 423.320759 167.771189 
L 424.046731 143.831495 
L 424.772703 157.67974 
L 425.498674 138.83229 
L 426.224646 173.296005 
L 426.950618 159.424776 
L 427.676589 183.72017 
L 428.402561 158.9912 
L 429.128533 151.551709 
L 429.854505 185.435949 
L 430.580476 193.715283 
L 431.306448 188.873707 
L 432.03242 174.351122 
L 432.758391 182.185545 
L 434.210335 161.74 
L 434.936306 180.418144 
L 435.662278 186.641549 
L 436.38825 164.250695 
L 437.114222 169.418407 
L 437.840193 194.625062 
L 438.566165 187.545898 
L 439.292137 197.023237 
L 440.018108 186.885611 
L 440.74408 197.780081 
L 441.470052 213.918135 
L 442.196023 210.983572 
L 442.921995 203.935969 
L 443.647967 190.268406 
L 444.373939 206.823281 
L 445.09991 216.773296 
L 445.825882 213.181203 
L 446.551854 223.276512 
L 447.277825 214.187105 
L 448.003797 221.714047 
L 448.729769 194.987108 
L 449.455741 188.686463 
L 450.181712 184.344969 
L 450.907684 185.175289 
L 451.633656 192.614073 
L 452.359627 188.998563 
L 453.085599 218.43975 
L 453.811571 213.922414 
L 454.537542 219.185018 
L 455.263514 207.735398 
L 455.989486 224.82773 
L 456.715458 233.3197 
L 457.441429 210.009563 
L 458.167401 192.430803 
L 458.893373 197.793124 
L 459.619344 228.518413 
L 460.345316 223.633282 
L 461.071288 219.927978 
L 461.797259 225.46763 
L 462.523231 207.385987 
L 463.249203 217.137487 
L 463.975175 239.900554 
L 464.701146 236.671484 
L 465.427118 218.919387 
L 466.15309 215.733039 
L 466.879061 265.876002 
L 467.605033 270.827164 
L 468.331005 228.545451 
L 469.056976 233.551016 
L 469.782948 232.065248 
L 470.50892 255.056974 
L 471.234892 268.520719 
L 471.960863 251.956898 
L 472.686835 240.367486 
L 473.412807 236.653743 
L 474.138778 232.242026 
L 474.138778 232.242026 
" style="fill:none;stroke:#1f77b4;stroke-linecap:square;stroke-width:1.5;"/>
   </g>
   <g id="line2d_2">
    <path clip-path="url(#p7e6f1e2016)" d="M 68.320597 90.228443 
L 69.046568 93.722841 
L 69.77254 80.651682 
L 70.498512 97.319702 
L 71.224483 103.027094 
L 71.950455 99.548648 
L 72.676427 92.893312 
L 73.402399 89.772008 
L 74.12837 65.208425 
L 74.854342 51.47604 
L 75.580314 94.406458 
L 76.306285 86.1936 
L 77.032257 89.048408 
L 77.758229 94.873803 
L 78.4842 96.721921 
L 79.210172 102.611744 
L 79.936144 105.06128 
L 80.662116 105.52891 
L 81.388087 77.438344 
L 82.114059 77.743102 
L 82.840031 93.761197 
L 83.566002 98.325049 
L 84.291974 96.510237 
L 85.017946 105.498264 
L 85.743917 102.803921 
L 86.469889 75.864443 
L 87.195861 60.102718 
L 87.921833 47.925193 
L 88.647804 88.138349 
L 89.373776 72.886551 
L 90.099748 40.825837 
L 90.825719 73.178682 
L 91.551691 83.291822 
L 92.277663 54.491384 
L 93.003634 82.691731 
L 93.729606 97.518203 
L 94.455578 95.574354 
L 95.18155 100.141843 
L 95.907521 92.893237 
L 96.633493 102.295478 
L 97.359465 105.390713 
L 98.085436 95.76301 
L 98.811408 100.494642 
L 99.53738 106.77523 
L 100.263352 108.634533 
L 100.989323 104.116034 
L 101.715295 95.539451 
L 102.441267 95.888087 
L 103.167238 61.63531 
L 103.89321 59.171705 
L 104.619182 58.644737 
L 106.071125 95.288173 
L 106.797097 93.33101 
L 107.523069 63.335556 
L 108.24904 72.053582 
L 108.975012 88.417569 
L 110.426955 96.482898 
L 111.152927 102.264845 
L 111.878899 103.89534 
L 112.60487 103.365657 
L 113.330842 93.650757 
L 114.056814 82.216615 
L 114.782786 59.6593 
L 115.508757 94.109122 
L 116.234729 99.122329 
L 116.960701 87.379591 
L 117.686672 99.187326 
L 118.412644 101.674123 
L 119.138616 93.603625 
L 119.864587 105.158321 
L 120.590559 104.168721 
L 121.316531 102.948919 
L 122.042503 100.300351 
L 122.768474 71.852779 
L 123.494446 80.216214 
L 124.220418 105.686723 
L 124.946389 74.513231 
L 125.672361 80.064557 
L 126.398333 64.755153 
L 127.124305 78.173722 
L 127.850276 103.876095 
L 128.576248 104.80103 
L 129.30222 99.908661 
L 130.028191 104.173329 
L 130.754163 69.363895 
L 131.480135 42.067372 
L 132.206106 92.391559 
L 132.932078 85.513767 
L 133.65805 69.548836 
L 134.384022 84.708951 
L 135.109993 83.994554 
L 135.835965 66.434569 
L 136.561937 68.584811 
L 137.287908 80.100092 
L 138.01388 94.898709 
L 138.739852 99.914054 
L 139.465823 101.947004 
L 140.191795 93.509964 
L 140.917767 98.865344 
L 141.643739 89.200406 
L 142.36971 63.503928 
L 143.095682 76.844606 
L 143.821654 102.131411 
L 144.547625 101.436059 
L 145.999569 102.561309 
L 146.72554 103.775789 
L 147.451512 98.957853 
L 148.177484 103.605306 
L 148.903456 99.561204 
L 149.629427 101.360944 
L 150.355399 109.704852 
L 151.081371 107.366498 
L 151.807342 108.422097 
L 152.533314 109.726419 
L 153.259286 105.0324 
L 153.985258 105.584086 
L 154.711229 107.45618 
L 155.437201 105.87428 
L 156.163173 107.655959 
L 156.889144 108.77448 
L 158.341088 108.295105 
L 159.067059 109.164501 
L 160.519003 111.844924 
L 161.244975 111.598406 
L 161.970946 100.923978 
L 162.696918 85.507889 
L 163.42289 90.449261 
L 164.148861 87.142908 
L 164.874833 88.835317 
L 165.600805 103.293175 
L 166.326776 78.043566 
L 167.052748 75.790175 
L 167.77872 103.076382 
L 168.504692 72.482623 
L 169.230663 81.496667 
L 169.956635 105.761769 
L 170.682607 106.868823 
L 171.408578 105.002233 
L 172.13455 102.714402 
L 172.860522 103.014696 
L 173.586493 109.998481 
L 174.312465 99.934889 
L 175.038437 103.135427 
L 175.764409 101.325307 
L 176.49038 76.433123 
L 177.216352 81.5964 
L 177.942324 81.778585 
L 178.668295 91.209241 
L 179.394267 95.548465 
L 180.120239 92.942523 
L 180.846211 86.822132 
L 181.572182 94.601758 
L 183.024126 104.088006 
L 183.750097 69.554975 
L 184.476069 83.403498 
L 185.202041 66.806011 
L 185.928012 57.782786 
L 186.653984 89.1736 
L 188.105928 58.667549 
L 188.831899 67.371834 
L 189.557871 64.477702 
L 190.283843 94.180712 
L 191.009814 67.91367 
L 191.735786 76.467123 
L 192.461758 91.560408 
L 193.187729 61.831503 
L 193.913701 86.825537 
L 194.639673 72.419562 
L 195.365645 72.183728 
L 196.091616 88.450655 
L 196.817588 100.061877 
L 197.54356 94.530463 
L 198.269531 102.57629 
L 198.995503 74.358859 
L 199.721475 63.13568 
L 200.447446 68.452028 
L 201.173418 89.75781 
L 201.89939 85.20281 
L 202.625362 86.416464 
L 203.351333 97.863078 
L 204.077305 69.369187 
L 204.803277 97.600934 
L 205.529248 99.728136 
L 206.25522 105.364823 
L 206.981192 103.953818 
L 207.707164 97.072339 
L 208.433135 104.976194 
L 209.159107 103.087707 
L 210.61105 86.479258 
L 211.337022 97.402333 
L 212.062994 104.598186 
L 212.788965 109.737908 
L 213.514937 103.809312 
L 214.240909 78.482743 
L 214.966881 90.136489 
L 215.692852 72.92227 
L 217.144796 107.647889 
L 217.870767 103.920006 
L 218.596739 78.730362 
L 219.322711 92.394037 
L 220.048682 103.220257 
L 220.774654 109.588226 
L 221.500626 107.571626 
L 222.226598 99.509491 
L 223.678541 111.096414 
L 224.404513 102.868908 
L 225.130484 101.264943 
L 225.856456 85.773496 
L 226.582428 89.306653 
L 227.308399 110.299331 
L 228.034371 109.667158 
L 228.760343 107.620208 
L 229.486315 110.16168 
L 230.212286 110.604088 
L 230.938258 109.825744 
L 231.66423 113.455236 
L 232.390201 114.061137 
L 233.116173 114.379449 
L 233.842145 111.820375 
L 234.568117 114.327262 
L 235.294088 113.678782 
L 236.02006 113.476859 
L 236.746032 116.670054 
L 237.472003 111.799787 
L 238.197975 111.49809 
L 238.923947 114.837601 
L 239.649918 112.525825 
L 240.37589 112.448167 
L 241.101862 102.809128 
L 241.827834 104.723707 
L 242.553805 88.132855 
L 243.279777 59.635166 
L 244.005749 109.111046 
L 244.73172 110.682792 
L 245.457692 97.296499 
L 246.183664 71.420237 
L 246.909635 99.614343 
L 247.635607 111.258314 
L 248.361579 112.23173 
L 249.087551 103.973858 
L 249.813522 75.805785 
L 250.539494 62.649972 
L 251.265466 102.825243 
L 251.991437 109.923882 
L 252.717409 109.239222 
L 253.443381 113.705559 
L 254.169352 103.392081 
L 254.895324 103.853101 
L 256.347268 68.615998 
L 257.073239 84.77771 
L 257.799211 106.74931 
L 258.525183 85.591354 
L 259.251154 92.37883 
L 259.977126 79.280281 
L 260.703098 70.643722 
L 261.42907 100.757705 
L 262.155041 102.194145 
L 262.881013 104.036169 
L 263.606985 107.529371 
L 264.332956 74.055042 
L 265.7849 112.025393 
L 266.510871 109.550308 
L 267.236843 104.236178 
L 267.962815 111.759454 
L 268.688787 104.97207 
L 269.414758 100.258228 
L 270.14073 111.476026 
L 270.866702 109.163443 
L 271.592673 96.202159 
L 272.318645 101.967214 
L 273.044617 77.136885 
L 273.770588 63.442334 
L 274.49656 104.976227 
L 275.222532 108.587379 
L 275.948504 111.333033 
L 276.674475 85.417641 
L 277.400447 69.004927 
L 278.126419 106.266656 
L 278.85239 102.562179 
L 279.578362 109.757569 
L 280.304334 110.187896 
L 281.030305 103.617877 
L 281.756277 108.027066 
L 282.482249 115.339227 
L 283.208221 110.523438 
L 283.934192 66.259315 
L 284.660164 94.425652 
L 285.386136 104.17362 
L 286.112107 83.559545 
L 286.838079 100.772203 
L 287.564051 115.1183 
L 288.290023 81.83862 
L 289.015994 104.795097 
L 289.741966 85.67725 
L 290.467938 103.681995 
L 291.193909 85.787403 
L 291.919881 91.041912 
L 292.645853 80.789823 
L 293.371824 67.056615 
L 294.097796 98.315454 
L 294.823768 80.722288 
L 295.54974 68.376247 
L 296.275711 90.244377 
L 297.001683 80.024775 
L 297.727655 67.187513 
L 298.453626 100.911824 
L 299.179598 71.848985 
L 299.90557 91.665244 
L 300.631541 68.875679 
L 301.357513 91.813842 
L 302.083485 110.959278 
L 302.809457 97.617472 
L 303.535428 113.764981 
L 304.2614 106.101039 
L 304.987372 118.174641 
L 305.713343 121.507084 
L 306.439315 80.106864 
L 307.165287 78.696619 
L 307.891258 78.005609 
L 308.61723 105.89574 
L 309.343202 108.248305 
L 310.069174 112.159821 
L 310.795145 99.52014 
L 311.521117 78.86825 
L 312.247089 67.402126 
L 312.97306 101.433321 
L 313.699032 90.063767 
L 314.425004 110.498258 
L 315.150976 78.902843 
L 315.876947 80.225082 
L 316.602919 72.301257 
L 317.328891 96.115733 
L 318.054862 79.284269 
L 318.780834 111.530075 
L 319.506806 114.950062 
L 320.958749 124.173542 
L 321.684721 108.214776 
L 322.410693 121.84815 
L 323.136664 128.016782 
L 323.862636 95.501414 
L 324.588608 109.49871 
L 325.314579 113.550611 
L 326.040551 114.722566 
L 326.766523 115.110047 
L 327.492494 83.874455 
L 328.218466 116.159138 
L 328.944438 112.165362 
L 329.67041 112.116842 
L 330.396381 123.304653 
L 331.848325 131.19914 
L 332.574296 133.163835 
L 333.300268 128.265944 
L 334.02624 129.541566 
L 334.752211 132.840208 
L 335.478183 124.3854 
L 336.204155 126.03024 
L 336.930127 96.851185 
L 337.656098 103.954895 
L 338.38207 124.408044 
L 339.108042 115.172646 
L 339.834013 125.333354 
L 340.559985 133.480369 
L 341.285957 123.835324 
L 342.011929 89.337565 
L 342.7379 95.418158 
L 343.463872 126.360458 
L 344.189844 130.363898 
L 344.915815 107.039652 
L 345.641787 113.239232 
L 346.367759 123.75115 
L 347.09373 114.822184 
L 347.819702 125.846653 
L 348.545674 134.116038 
L 349.271646 135.431821 
L 349.997617 131.032006 
L 350.723589 134.263982 
L 351.449561 139.735308 
L 352.175532 136.724595 
L 352.901504 126.916288 
L 353.627476 128.875473 
L 354.353447 137.290836 
L 355.079419 143.801124 
L 355.805391 146.603485 
L 356.531363 123.413743 
L 357.257334 137.161131 
L 357.983306 102.116828 
L 358.709278 118.339171 
L 359.435249 111.544956 
L 360.887193 139.474223 
L 361.613164 138.066292 
L 362.339136 125.232232 
L 363.065108 128.94976 
L 363.79108 144.287369 
L 364.517051 134.558002 
L 365.243023 138.179395 
L 365.968995 109.251058 
L 366.694966 138.035552 
L 367.420938 145.738039 
L 368.14691 128.034116 
L 368.872882 107.455942 
L 369.598853 144.309859 
L 370.324825 151.980422 
L 371.050797 144.26289 
L 371.776768 138.016582 
L 372.50274 114.860056 
L 373.228712 99.38449 
L 373.954683 111.906861 
L 374.680655 102.144898 
L 375.406627 135.150729 
L 376.132599 148.559692 
L 376.85857 140.945484 
L 377.584542 140.062002 
L 378.310514 120.756406 
L 379.036485 112.196827 
L 379.762457 111.870722 
L 380.488429 122.202252 
L 381.2144 141.958038 
L 381.940372 138.607749 
L 382.666344 126.827752 
L 383.392316 143.948427 
L 384.118287 136.868048 
L 384.844259 153.271864 
L 385.570231 132.984063 
L 386.296202 140.04566 
L 387.022174 123.859841 
L 387.748146 142.911121 
L 388.474117 145.576086 
L 389.200089 144.231567 
L 389.926061 149.362106 
L 390.652033 128.186732 
L 391.378004 152.595595 
L 392.103976 159.848248 
L 392.829948 133.768793 
L 393.555919 154.513166 
L 394.281891 146.700011 
L 395.007863 126.778794 
L 395.733835 129.13494 
L 396.459806 123.799533 
L 397.185778 121.315976 
L 397.91175 112.953038 
L 398.637721 150.747907 
L 399.363693 128.771875 
L 400.089665 143.105714 
L 400.815636 135.679677 
L 401.541608 125.933209 
L 402.26758 130.683808 
L 402.993552 158.525179 
L 403.719523 157.027173 
L 404.445495 141.71997 
L 405.171467 120.121953 
L 405.897438 159.239645 
L 406.62341 126.500743 
L 407.349382 155.685276 
L 408.075353 133.554528 
L 408.801325 131.174998 
L 409.527297 129.327784 
L 410.253269 158.338749 
L 410.97924 122.795059 
L 411.705212 140.550114 
L 412.431184 143.351295 
L 413.157155 158.084903 
L 413.883127 141.083754 
L 414.609099 155.345288 
L 415.33507 140.14721 
L 416.061042 168.937618 
L 416.787014 163.070698 
L 417.512986 161.489456 
L 418.238957 146.397506 
L 418.964929 168.91662 
L 419.690901 140.244671 
L 420.416872 152.984893 
L 421.142844 154.123577 
L 421.868816 165.58394 
L 422.594788 139.401104 
L 423.320759 154.811989 
L 424.046731 137.651826 
L 424.772703 150.414198 
L 425.498674 138.724047 
L 426.224646 171.404822 
L 426.950618 149.347348 
L 427.676589 192.271362 
L 428.402561 148.920314 
L 429.128533 156.089523 
L 429.854505 182.852391 
L 430.580476 185.712549 
L 431.306448 182.125324 
L 432.03242 190.819922 
L 432.758391 159.32678 
L 433.484363 182.670491 
L 434.210335 167.641228 
L 434.936306 194.342901 
L 435.662278 180.383146 
L 436.38825 171.672066 
L 437.114222 179.695356 
L 437.840193 204.788259 
L 438.566165 177.764183 
L 439.292137 211.326229 
L 440.018108 169.233011 
L 440.74408 205.675499 
L 441.470052 206.138877 
L 442.196023 214.433895 
L 442.921995 176.112337 
L 443.647967 183.606038 
L 444.373939 185.575087 
L 445.09991 211.890936 
L 445.825882 194.765076 
L 446.551854 211.541606 
L 447.277825 197.568952 
L 448.003797 215.375461 
L 448.729769 191.881039 
L 449.455741 200.402205 
L 450.181712 191.912126 
L 450.907684 186.39882 
L 451.633656 218.909563 
L 452.359627 202.781226 
L 453.085599 232.584738 
L 453.811571 205.692981 
L 454.537542 231.998793 
L 455.263514 201.81071 
L 455.989486 227.244204 
L 456.715458 230.04912 
L 457.441429 203.801596 
L 458.167401 230.812236 
L 458.893373 206.737663 
L 459.619344 220.32108 
L 460.345316 220.143132 
L 461.071288 248.192392 
L 461.797259 258.253726 
L 462.523231 215.182548 
L 463.249203 260.398889 
L 463.975175 246.561649 
L 464.701146 253.942949 
L 465.427118 227.961246 
L 466.15309 223.108687 
L 466.879061 268.174896 
L 467.605033 273.122419 
L 468.331005 231.948709 
L 469.056976 268.860352 
L 469.782948 246.571406 
L 470.50892 250.005122 
L 471.234892 273.58651 
L 471.960863 281.76358 
L 472.686835 244.609768 
L 473.412807 252.074441 
L 474.138778 238.399102 
L 474.138778 238.399102 
" style="fill:none;stroke:#ff7f0e;stroke-linecap:square;stroke-width:1.5;"/>
   </g>
   <g id="line2d_3">
    <path clip-path="url(#p7e6f1e2016)" d="M 68.320597 98.912217 
L 69.046568 103.325792 
L 69.77254 94.050887 
L 70.498512 99.269547 
L 71.224483 92.72997 
L 71.950455 100.627161 
L 72.676427 75.554732 
L 73.402399 56.910819 
L 74.12837 79.162535 
L 75.580314 97.099089 
L 76.306285 95.141759 
L 77.032257 96.614406 
L 77.758229 99.546903 
L 78.4842 100.582991 
L 79.210172 67.426501 
L 79.936144 93.301697 
L 80.662116 77.074041 
L 81.388087 82.058306 
L 82.114059 69.974331 
L 82.840031 65.064337 
L 83.566002 98.574522 
L 84.291974 62.325295 
L 85.017946 89.398105 
L 85.743917 87.88499 
L 86.469889 83.044025 
L 87.195861 91.964859 
L 87.921833 88.357748 
L 88.647804 95.209888 
L 89.373776 92.150793 
L 90.099748 94.642585 
L 90.825719 94.082896 
L 91.551691 66.809434 
L 92.277663 47.537747 
L 93.003634 92.770974 
L 93.729606 100.10922 
L 94.455578 98.456439 
L 95.18155 71.208543 
L 95.907521 91.170036 
L 96.633493 92.238481 
L 97.359465 81.16427 
L 98.085436 80.76473 
L 98.811408 87.215544 
L 99.53738 100.479965 
L 100.989323 54.282785 
L 101.715295 92.247874 
L 102.441267 61.983324 
L 103.167238 88.09471 
L 103.89321 100.030058 
L 104.619182 87.225897 
L 105.345153 67.488494 
L 106.071125 66.83497 
L 106.797097 72.612334 
L 107.523069 86.985008 
L 108.24904 70.460304 
L 108.975012 59.382318 
L 109.700984 85.746903 
L 110.426955 90.402167 
L 111.152927 88.711693 
L 111.878899 98.589238 
L 112.60487 102.518647 
L 113.330842 103.381996 
L 114.056814 98.264612 
L 114.782786 92.284207 
L 115.508757 102.676327 
L 116.234729 102.157613 
L 116.960701 100.518275 
L 117.686672 95.06619 
L 118.412644 100.611273 
L 119.138616 96.641389 
L 119.864587 103.611221 
L 120.590559 79.59727 
L 121.316531 93.354162 
L 122.042503 84.397458 
L 122.768474 80.410154 
L 123.494446 102.218187 
L 124.220418 103.781855 
L 124.946389 91.883633 
L 125.672361 101.258922 
L 126.398333 92.773733 
L 127.124305 64.132553 
L 127.850276 96.047241 
L 128.576248 103.117147 
L 129.30222 102.36498 
L 130.028191 105.578434 
L 130.754163 105.378194 
L 131.480135 103.72299 
L 132.932078 101.633948 
L 133.65805 106.520848 
L 134.384022 105.078412 
L 135.109993 96.403584 
L 135.835965 97.412129 
L 136.561937 92.961337 
L 137.287908 87.059464 
L 138.01388 96.901941 
L 138.739852 102.768988 
L 139.465823 100.300055 
L 140.191795 101.249092 
L 140.917767 105.407659 
L 141.643739 96.274329 
L 142.36971 102.13257 
L 143.095682 106.031315 
L 143.821654 107.932328 
L 144.547625 105.903088 
L 145.273597 106.831621 
L 145.999569 108.482954 
L 146.72554 107.241422 
L 147.451512 106.471863 
L 148.177484 109.453734 
L 148.903456 109.858765 
L 149.629427 100.770849 
L 150.355399 104.516642 
L 151.081371 75.2001 
L 151.807342 56.131741 
L 152.533314 105.158661 
L 153.259286 78.262413 
L 153.985258 81.542734 
L 154.711229 106.482786 
L 155.437201 95.874388 
L 156.163173 100.799527 
L 156.889144 104.768097 
L 157.615116 77.290745 
L 158.341088 82.157792 
L 159.067059 102.12363 
L 159.793031 103.67385 
L 160.519003 104.342799 
L 161.970946 91.454771 
L 162.696918 94.974144 
L 163.42289 93.541079 
L 164.148861 93.580209 
L 164.874833 85.396778 
L 165.600805 93.54606 
L 166.326776 103.149667 
L 167.052748 96.532481 
L 167.77872 101.889721 
L 168.504692 106.024186 
L 169.230663 107.281739 
L 169.956635 77.827106 
L 170.682607 96.086366 
L 171.408578 99.061191 
L 172.13455 61.998813 
L 172.860522 62.767179 
L 173.586493 99.963533 
L 174.312465 105.272049 
L 175.038437 107.828207 
L 175.764409 106.907865 
L 176.49038 106.794494 
L 177.942324 103.735917 
L 178.668295 78.910484 
L 179.394267 88.959768 
L 180.120239 77.058035 
L 180.846211 67.182501 
L 181.572182 70.883231 
L 183.024126 100.87758 
L 183.750097 85.511363 
L 184.476069 84.36953 
L 185.202041 87.928045 
L 185.928012 93.710667 
L 186.653984 73.1129 
L 187.379956 80.010264 
L 188.105928 71.152749 
L 188.831899 85.346835 
L 189.557871 68.195374 
L 190.283843 94.854814 
L 191.009814 60.935433 
L 191.735786 88.986938 
L 192.461758 102.374873 
L 193.187729 72.02116 
L 194.639673 92.54691 
L 195.365645 89.332201 
L 196.091616 65.678459 
L 196.817588 70.667854 
L 197.54356 96.487216 
L 198.269531 75.568923 
L 198.995503 74.103133 
L 199.721475 84.727043 
L 200.447446 87.138411 
L 201.173418 63.847994 
L 201.89939 92.84025 
L 202.625362 72.612182 
L 203.351333 70.256303 
L 204.077305 86.642605 
L 204.803277 97.236385 
L 205.529248 95.948692 
L 206.25522 100.196954 
L 206.981192 70.959462 
L 207.707164 66.312179 
L 208.433135 91.325434 
L 209.159107 95.227304 
L 209.885079 76.989806 
L 210.61105 91.438648 
L 211.337022 71.245674 
L 212.062994 94.37283 
L 212.788965 85.80285 
L 213.514937 73.535636 
L 214.240909 72.33004 
L 214.966881 82.554047 
L 215.692852 64.656056 
L 216.418824 96.360936 
L 217.144796 101.93735 
L 217.870767 98.859731 
L 218.596739 102.262639 
L 219.322711 104.484529 
L 220.048682 76.746679 
L 220.774654 94.112323 
L 221.500626 69.268102 
L 222.226598 56.999238 
L 222.952569 84.728663 
L 223.678541 96.468284 
L 224.404513 74.468326 
L 225.130484 92.431791 
L 225.856456 97.111463 
L 226.582428 65.451812 
L 227.308399 94.402112 
L 228.034371 75.824817 
L 228.760343 95.02287 
L 229.486315 92.887978 
L 230.212286 101.468079 
L 230.938258 73.203564 
L 231.66423 99.758249 
L 232.390201 106.33867 
L 233.842145 102.220745 
L 234.568117 106.28038 
L 235.294088 106.019704 
L 236.02006 107.980513 
L 236.746032 99.976598 
L 237.472003 105.751966 
L 238.197975 83.363014 
L 238.923947 91.535205 
L 239.649918 74.90805 
L 240.37589 92.842996 
L 241.101862 83.221766 
L 241.827834 93.421031 
L 242.553805 107.161167 
L 243.279777 71.148265 
L 244.005749 97.266606 
L 244.73172 104.895019 
L 245.457692 95.820284 
L 246.183664 76.650712 
L 246.909635 70.362189 
L 247.635607 95.918253 
L 248.361579 79.941901 
L 249.087551 89.267875 
L 249.813522 94.262143 
L 250.539494 106.578306 
L 251.991437 60.783719 
L 252.717409 62.858614 
L 253.443381 89.126544 
L 254.169352 76.294806 
L 254.895324 98.715766 
L 255.621296 105.842736 
L 256.347268 69.167197 
L 257.799211 103.219073 
L 258.525183 82.20636 
L 259.251154 94.727271 
L 259.977126 68.301925 
L 260.703098 64.642554 
L 261.42907 93.76482 
L 262.155041 106.747314 
L 262.881013 105.541897 
L 263.606985 100.512979 
L 264.332956 100.64675 
L 265.058928 108.589895 
L 265.7849 80.061481 
L 266.510871 75.035467 
L 267.236843 97.127699 
L 267.962815 110.079147 
L 268.688787 74.206087 
L 269.414758 92.252253 
L 270.14073 104.01292 
L 270.866702 86.367071 
L 271.592673 65.831227 
L 272.318645 104.114437 
L 273.044617 83.293876 
L 273.770588 99.469282 
L 274.49656 103.696954 
L 275.222532 111.432675 
L 275.948504 79.035983 
L 276.674475 94.194854 
L 277.400447 100.412881 
L 278.126419 108.933574 
L 278.85239 111.850453 
L 279.578362 109.915483 
L 280.304334 105.105501 
L 281.030305 73.272629 
L 281.756277 85.73864 
L 282.482249 102.173478 
L 283.208221 115.331384 
L 283.934192 103.610768 
L 284.660164 103.532655 
L 285.386136 74.100216 
L 286.112107 94.228311 
L 286.838079 88.675502 
L 287.564051 98.728724 
L 288.290023 100.037929 
L 289.015994 111.833319 
L 289.741966 106.693125 
L 290.467938 111.923857 
L 291.193909 106.34699 
L 291.919881 106.96294 
L 292.645853 105.331108 
L 294.097796 110.463816 
L 294.823768 110.444632 
L 295.54974 109.608535 
L 296.275711 116.537234 
L 297.001683 105.609469 
L 297.727655 108.978431 
L 298.453626 115.453986 
L 299.179598 118.162972 
L 299.90557 115.645523 
L 300.631541 111.388173 
L 301.357513 105.121025 
L 302.083485 120.685516 
L 302.809457 118.979031 
L 303.535428 119.443263 
L 304.2614 111.802697 
L 304.987372 122.165083 
L 305.713343 123.824384 
L 306.439315 119.994358 
L 307.165287 82.191643 
L 307.891258 83.065696 
L 308.61723 115.867382 
L 309.343202 116.877563 
L 310.069174 112.261851 
L 310.795145 101.416549 
L 311.521117 80.219614 
L 312.97306 118.075283 
L 313.699032 119.72959 
L 314.425004 94.218904 
L 315.150976 106.811232 
L 316.602919 79.13505 
L 317.328891 104.759423 
L 318.054862 92.272289 
L 318.780834 118.871266 
L 319.506806 113.301297 
L 320.232777 109.653911 
L 320.958749 123.907421 
L 321.684721 96.773539 
L 322.410693 114.627672 
L 323.136664 117.469646 
L 323.862636 122.198854 
L 324.588608 123.460281 
L 325.314579 85.804372 
L 326.040551 117.093365 
L 326.766523 116.753609 
L 327.492494 87.690273 
L 328.218466 115.749558 
L 328.944438 115.649457 
L 329.67041 117.781323 
L 330.396381 113.204822 
L 331.122353 125.45644 
L 331.848325 129.051017 
L 332.574296 128.188844 
L 333.300268 126.735089 
L 334.02624 115.850047 
L 334.752211 127.897664 
L 335.478183 128.165783 
L 336.204155 120.246753 
L 336.930127 123.560309 
L 337.656098 131.29956 
L 338.38207 101.106414 
L 339.108042 94.832966 
L 339.834013 119.936652 
L 340.559985 113.690518 
L 341.285957 93.480261 
L 342.011929 114.644869 
L 342.7379 129.40881 
L 343.463872 104.713743 
L 344.189844 99.157236 
L 344.915815 123.980568 
L 345.641787 91.617293 
L 346.367759 75.817512 
L 347.09373 89.240913 
L 347.819702 94.989317 
L 348.545674 127.297068 
L 349.271646 120.869492 
L 349.997617 93.447472 
L 350.723589 129.110662 
L 351.449561 126.445882 
L 352.175532 129.659749 
L 352.901504 121.848416 
L 353.627476 94.085276 
L 354.353447 116.789066 
L 355.079419 122.827552 
L 355.805391 139.137573 
L 356.531363 118.744825 
L 357.257334 127.459535 
L 357.983306 121.55692 
L 358.709278 102.11018 
L 359.435249 123.610505 
L 360.161221 114.705206 
L 360.887193 133.345001 
L 361.613164 137.430883 
L 362.339136 116.525816 
L 363.065108 129.846862 
L 363.79108 128.787628 
L 364.517051 99.752147 
L 365.243023 133.066074 
L 365.968995 106.670529 
L 366.694966 137.669864 
L 367.420938 139.706425 
L 368.14691 125.247592 
L 368.872882 140.397707 
L 369.598853 147.828786 
L 370.324825 146.46016 
L 371.050797 139.031428 
L 371.776768 143.800174 
L 372.50274 115.140952 
L 373.228712 111.098711 
L 373.954683 131.148095 
L 374.680655 137.340566 
L 375.406627 146.990812 
L 376.132599 150.63416 
L 376.85857 140.380142 
L 377.584542 147.808313 
L 378.310514 150.149664 
L 379.036485 151.011751 
L 379.762457 145.797969 
L 380.488429 136.405405 
L 381.2144 153.791738 
L 381.940372 145.047975 
L 382.666344 129.028217 
L 383.392316 118.326312 
L 384.118287 144.942856 
L 384.844259 138.231202 
L 385.570231 111.933115 
L 386.296202 121.040219 
L 387.022174 148.099217 
L 387.748146 153.616103 
L 388.474117 150.785766 
L 389.200089 159.649866 
L 389.926061 136.679342 
L 390.652033 156.251627 
L 391.378004 159.773099 
L 392.103976 151.978112 
L 392.829948 163.822974 
L 393.555919 152.891572 
L 394.281891 154.563787 
L 395.007863 164.485311 
L 395.733835 127.236771 
L 396.459806 154.898144 
L 397.185778 135.953667 
L 397.91175 146.869518 
L 398.637721 153.393638 
L 399.363693 135.687811 
L 400.089665 158.370672 
L 400.815636 168.07719 
L 401.541608 166.456233 
L 402.26758 170.506016 
L 402.993552 173.674656 
L 403.719523 163.045713 
L 404.445495 173.582321 
L 405.171467 174.510278 
L 405.897438 171.761926 
L 406.62341 167.140736 
L 407.349382 165.393179 
L 408.075353 136.710732 
L 408.801325 141.120302 
L 409.527297 143.542845 
L 410.253269 174.944732 
L 410.97924 168.325517 
L 411.705212 181.814944 
L 412.431184 175.093591 
L 413.157155 136.168303 
L 413.883127 162.994536 
L 414.609099 155.783904 
L 415.33507 173.150383 
L 416.061042 158.193915 
L 416.787014 155.24701 
L 417.512986 182.519047 
L 418.238957 188.449543 
L 418.964929 152.399762 
L 419.690901 147.70458 
L 420.416872 171.512619 
L 421.142844 187.750928 
L 421.868816 161.142129 
L 422.594788 163.401192 
L 423.320759 179.693094 
L 424.046731 184.945669 
L 424.772703 179.667783 
L 425.498674 181.894843 
L 426.224646 166.747664 
L 427.676589 199.893211 
L 428.402561 164.119036 
L 429.128533 154.14261 
L 429.854505 185.880789 
L 430.580476 188.211168 
L 431.306448 196.230989 
L 432.03242 165.571779 
L 432.758391 199.153733 
L 433.484363 160.35323 
L 434.210335 161.501934 
L 434.936306 192.407109 
L 435.662278 177.886654 
L 436.38825 171.202304 
L 437.114222 179.799263 
L 437.840193 200.389243 
L 438.566165 175.660523 
L 439.292137 204.60212 
L 440.018108 172.428988 
L 440.74408 210.485237 
L 441.470052 207.303918 
L 442.196023 213.786357 
L 442.921995 174.427035 
L 443.647967 214.015521 
L 444.373939 190.845166 
L 445.09991 189.612871 
L 445.825882 189.40161 
L 446.551854 185.785483 
L 447.277825 190.447492 
L 448.003797 189.805151 
L 448.729769 187.625949 
L 449.455741 212.982253 
L 450.181712 185.679319 
L 450.907684 186.084957 
L 451.633656 221.566592 
L 452.359627 192.500648 
L 453.085599 228.506938 
L 453.811571 203.475804 
L 454.537542 235.942825 
L 455.263514 194.730106 
L 455.989486 233.556813 
L 456.715458 220.50139 
L 457.441429 200.002209 
L 458.167401 227.425361 
L 458.893373 204.662709 
L 459.619344 216.526249 
L 460.345316 217.918198 
L 461.071288 242.554732 
L 461.797259 254.894652 
L 462.523231 209.62913 
L 463.249203 224.328947 
L 463.975175 245.663125 
L 464.701146 231.436539 
L 465.427118 225.016459 
L 466.15309 221.115262 
L 466.879061 267.793725 
L 467.605033 260.724957 
L 468.331005 226.268758 
L 469.056976 258.466843 
L 469.782948 244.391347 
L 470.50892 240.32029 
L 471.234892 267.610558 
L 471.960863 272.308494 
L 472.686835 245.114334 
L 473.412807 267.135629 
L 474.138778 237.412275 
L 474.138778 237.412275 
" style="fill:none;stroke:#2ca02c;stroke-linecap:square;stroke-width:1.5;"/>
   </g>
   <g id="line2d_4">
    <path clip-path="url(#p7e6f1e2016)" d="M 68.320597 100.341762 
L 69.77254 55.6136 
L 70.498512 82.208897 
L 71.224483 91.114281 
L 71.950455 102.326836 
L 72.676427 102.606261 
L 73.402399 90.632274 
L 74.12837 97.440491 
L 74.854342 71.769195 
L 75.580314 90.075954 
L 76.306285 89.969532 
L 77.032257 87.243193 
L 77.758229 99.683903 
L 78.4842 74.862823 
L 79.210172 85.448548 
L 79.936144 92.781582 
L 80.662116 53.38388 
L 81.388087 88.582435 
L 82.114059 65.160239 
L 82.840031 55.234269 
L 83.566002 98.424472 
L 84.291974 72.536998 
L 85.017946 75.381972 
L 85.743917 94.821734 
L 86.469889 89.398677 
L 87.195861 60.746806 
L 87.921833 51.300755 
L 88.647804 92.779267 
L 89.373776 75.245271 
L 90.099748 50.070074 
L 90.825719 88.441613 
L 91.551691 94.074292 
L 92.277663 86.38936 
L 93.003634 58.23494 
L 93.729606 65.58087 
L 94.455578 94.373185 
L 95.18155 101.696783 
L 95.907521 100.315235 
L 96.633493 101.221146 
L 97.359465 94.175378 
L 98.085436 69.704798 
L 98.811408 84.543176 
L 99.53738 103.182904 
L 100.263352 103.924413 
L 100.989323 67.494082 
L 101.715295 80.84341 
L 102.441267 62.055689 
L 103.167238 75.476674 
L 103.89321 99.339844 
L 104.619182 81.634756 
L 105.345153 83.653202 
L 106.071125 96.508048 
L 106.797097 95.345277 
L 107.523069 96.14947 
L 108.24904 95.673092 
L 108.975012 64.077788 
L 109.700984 56.007092 
L 110.426955 85.670257 
L 111.152927 100.518899 
L 111.878899 100.989233 
L 112.60487 75.830825 
L 113.330842 93.463876 
L 114.056814 94.157319 
L 114.782786 62.363672 
L 115.508757 55.007584 
L 116.234729 98.772616 
L 116.960701 97.737744 
L 117.686672 102.440649 
L 118.412644 101.148932 
L 119.138616 70.053001 
L 119.864587 63.194439 
L 120.590559 96.069099 
L 121.316531 101.577993 
L 122.042503 103.734065 
L 122.768474 104.092481 
L 123.494446 95.158163 
L 124.220418 92.342457 
L 124.946389 98.84712 
L 125.672361 101.165695 
L 126.398333 72.250667 
L 127.124305 81.467607 
L 127.850276 105.457314 
L 128.576248 106.620407 
L 129.30222 69.637196 
L 130.028191 54.320621 
L 131.480135 94.272308 
L 132.206106 96.883825 
L 132.932078 87.27051 
L 133.65805 92.011164 
L 134.384022 65.854599 
L 135.109993 52.262898 
L 135.835965 96.242655 
L 136.561937 100.607357 
L 137.287908 74.14189 
L 138.01388 90.836235 
L 138.739852 100.511007 
L 139.465823 86.628108 
L 140.191795 101.191621 
L 140.917767 103.477815 
L 141.643739 67.976602 
L 142.36971 89.593121 
L 143.095682 76.928657 
L 143.821654 82.354089 
L 144.547625 101.02921 
L 145.273597 97.351888 
L 145.999569 103.669389 
L 146.72554 104.757555 
L 147.451512 96.598581 
L 148.177484 101.596424 
L 149.629427 50.488668 
L 150.355399 98.417603 
L 151.081371 103.008086 
L 151.807342 104.770922 
L 152.533314 108.387286 
L 153.259286 101.791429 
L 153.985258 92.885021 
L 154.711229 74.45087 
L 156.163173 104.596642 
L 156.889144 105.756188 
L 157.615116 99.122457 
L 158.341088 94.261892 
L 159.067059 103.979789 
L 159.793031 103.753187 
L 160.519003 68.072222 
L 161.244975 49.728248 
L 161.970946 98.120234 
L 162.696918 103.314177 
L 163.42289 99.117826 
L 164.874833 87.720895 
L 165.600805 94.75714 
L 166.326776 103.587762 
L 167.052748 96.204902 
L 167.77872 98.061872 
L 168.504692 98.950582 
L 169.230663 103.806955 
L 169.956635 107.378995 
L 170.682607 99.746824 
L 171.408578 101.075618 
L 172.13455 100.47119 
L 172.860522 69.48261 
L 173.586493 80.278782 
L 174.312465 101.347365 
L 175.038437 105.102894 
L 175.764409 103.62336 
L 176.49038 108.599105 
L 177.216352 109.37098 
L 177.942324 109.032009 
L 178.668295 106.663785 
L 179.394267 81.234172 
L 180.120239 88.229586 
L 180.846211 66.829384 
L 182.298154 106.707197 
L 183.024126 103.931021 
L 183.750097 91.721994 
L 184.476069 86.517247 
L 185.202041 95.650882 
L 185.928012 94.380919 
L 186.653984 102.671106 
L 187.379956 103.012628 
L 188.105928 97.525656 
L 188.831899 101.392759 
L 189.557871 87.258042 
L 190.283843 64.13482 
L 191.009814 53.105999 
L 191.735786 96.465835 
L 192.461758 103.980643 
L 193.187729 66.882046 
L 193.913701 81.673524 
L 194.639673 105.48493 
L 195.365645 96.03836 
L 196.817588 106.478213 
L 197.54356 106.19674 
L 198.269531 97.245148 
L 198.995503 67.855087 
L 199.721475 93.244159 
L 200.447446 80.264077 
L 201.173418 57.287511 
L 201.89939 86.605829 
L 202.625362 70.881993 
L 203.351333 65.46347 
L 204.803277 105.997327 
L 205.529248 103.022194 
L 206.25522 101.35585 
L 206.981192 77.777052 
L 207.707164 61.688193 
L 208.433135 83.533151 
L 209.159107 97.235963 
L 209.885079 71.239682 
L 210.61105 53.106983 
L 211.337022 54.304729 
L 212.062994 83.676805 
L 212.788965 96.320095 
L 213.514937 73.605558 
L 214.240909 68.611455 
L 214.966881 88.468553 
L 215.692852 75.478731 
L 216.418824 96.895325 
L 217.144796 99.081914 
L 217.870767 99.29423 
L 218.596739 103.021375 
L 219.322711 81.376706 
L 220.048682 98.66324 
L 220.774654 107.741164 
L 221.500626 98.105428 
L 222.226598 80.078938 
L 222.952569 70.554507 
L 223.678541 103.853314 
L 224.404513 108.628159 
L 225.130484 96.403326 
L 225.856456 100.602105 
L 226.582428 97.649709 
L 227.308399 97.890877 
L 228.034371 87.320953 
L 228.760343 97.233515 
L 229.486315 104.094254 
L 230.212286 99.134834 
L 231.66423 104.375842 
L 232.390201 80.623557 
L 233.116173 98.894205 
L 233.842145 109.4792 
L 234.568117 96.876412 
L 235.294088 76.563081 
L 236.02006 98.182939 
L 236.746032 99.473707 
L 237.472003 95.962873 
L 238.197975 107.135266 
L 238.923947 98.87876 
L 239.649918 96.759646 
L 240.37589 74.440582 
L 241.101862 88.279398 
L 241.827834 96.976738 
L 242.553805 110.78537 
L 243.279777 101.33653 
L 244.005749 104.401622 
L 244.73172 99.387027 
L 245.457692 104.718869 
L 246.183664 105.609215 
L 246.909635 95.34251 
L 247.635607 102.485463 
L 248.361579 77.910206 
L 249.087551 73.781308 
L 249.813522 95.048637 
L 250.539494 109.659705 
L 251.265466 103.982345 
L 251.991437 100.549315 
L 252.717409 93.279565 
L 253.443381 105.920182 
L 254.169352 64.715549 
L 254.895324 79.809922 
L 255.621296 109.112872 
L 256.347268 73.945522 
L 257.073239 79.261058 
L 257.799211 103.61956 
L 258.525183 81.425156 
L 259.251154 93.496814 
L 259.977126 69.834916 
L 260.703098 65.604693 
L 261.42907 91.646901 
L 262.155041 103.622264 
L 262.881013 102.390625 
L 263.606985 101.902338 
L 264.332956 82.871043 
L 265.058928 69.708183 
L 265.7849 100.159804 
L 266.510871 102.199914 
L 267.236843 73.883011 
L 267.962815 102.95577 
L 268.688787 76.74544 
L 269.414758 66.41679 
L 270.14073 93.097872 
L 270.866702 78.487917 
L 271.592673 71.10106 
L 272.318645 104.681459 
L 273.044617 82.776722 
L 273.770588 85.986277 
L 275.222532 110.675773 
L 275.948504 80.492835 
L 276.674475 100.245803 
L 277.400447 104.49629 
L 278.126419 93.147028 
L 278.85239 108.628831 
L 279.578362 104.783655 
L 280.304334 102.837457 
L 281.030305 103.989343 
L 281.756277 103.651064 
L 282.482249 82.625756 
L 283.208221 84.493556 
L 283.934192 93.352008 
L 284.660164 106.141582 
L 285.386136 102.138612 
L 286.112107 100.505178 
L 286.838079 108.866152 
L 287.564051 112.629897 
L 288.290023 108.163335 
L 289.015994 117.229386 
L 289.741966 107.576012 
L 290.467938 88.910253 
L 291.193909 99.315824 
L 291.919881 82.001933 
L 292.645853 86.895263 
L 293.371824 101.116806 
L 294.097796 87.343056 
L 294.823768 101.445798 
L 295.54974 80.924167 
L 296.275711 79.429893 
L 297.001683 88.478139 
L 297.727655 103.120754 
L 298.453626 113.484001 
L 299.90557 116.020204 
L 300.631541 118.269095 
L 301.357513 111.405258 
L 302.083485 116.912075 
L 302.809457 111.514103 
L 303.535428 115.575489 
L 304.2614 111.625059 
L 304.987372 116.263769 
L 305.713343 119.933274 
L 306.439315 120.887948 
L 307.165287 121.523571 
L 307.891258 123.946535 
L 308.61723 115.247372 
L 309.343202 120.25357 
L 310.069174 87.300657 
L 310.795145 104.533697 
L 311.521117 114.380367 
L 312.247089 116.160557 
L 312.97306 125.799754 
L 313.699032 125.512138 
L 314.425004 113.197467 
L 315.150976 87.199608 
L 315.876947 98.58419 
L 316.602919 75.235277 
L 317.328891 75.759141 
L 318.054862 92.915411 
L 318.780834 118.509816 
L 319.506806 121.026167 
L 320.232777 124.778234 
L 320.958749 120.532947 
L 321.684721 117.866989 
L 322.410693 114.722277 
L 323.136664 123.325772 
L 323.862636 125.328935 
L 324.588608 124.623091 
L 325.314579 117.38572 
L 326.040551 116.081617 
L 326.766523 85.924378 
L 327.492494 111.893151 
L 328.218466 128.225773 
L 329.67041 114.254612 
L 330.396381 126.954893 
L 331.122353 99.735411 
L 331.848325 83.719319 
L 332.574296 116.9835 
L 333.300268 128.643552 
L 334.02624 131.096795 
L 334.752211 105.838524 
L 335.478183 86.067714 
L 336.204155 94.693093 
L 336.930127 122.643875 
L 337.656098 114.654592 
L 338.38207 120.413823 
L 339.108042 86.011386 
L 339.834013 109.843444 
L 340.559985 127.837298 
L 341.285957 106.045822 
L 342.011929 122.678567 
L 342.7379 123.444918 
L 343.463872 96.69216 
L 344.189844 95.304254 
L 344.915815 118.051156 
L 345.641787 98.434192 
L 346.367759 87.036536 
L 347.09373 90.276057 
L 347.819702 97.232795 
L 348.545674 128.052976 
L 349.271646 123.398341 
L 349.997617 95.970077 
L 350.723589 101.388755 
L 351.449561 130.080778 
L 352.175532 128.275737 
L 352.901504 96.965413 
L 353.627476 125.606851 
L 354.353447 116.472198 
L 355.079419 92.996381 
L 355.805391 136.921556 
L 356.531363 86.203077 
L 357.257334 116.920152 
L 357.983306 89.573909 
L 358.709278 88.752936 
L 359.435249 103.592795 
L 360.161221 110.150549 
L 360.887193 123.880022 
L 361.613164 130.727897 
L 362.339136 108.460836 
L 363.065108 121.657348 
L 363.79108 138.126603 
L 364.517051 98.009743 
L 365.243023 119.523289 
L 365.968995 107.402405 
L 366.694966 137.1113 
L 368.14691 125.9208 
L 368.872882 122.464103 
L 369.598853 144.895149 
L 370.324825 148.631995 
L 371.050797 114.789713 
L 371.776768 96.234675 
L 372.50274 140.377839 
L 373.228712 119.865022 
L 373.954683 91.93061 
L 374.680655 108.213558 
L 375.406627 141.572369 
L 376.132599 141.504494 
L 376.85857 135.50653 
L 377.584542 140.62565 
L 378.310514 114.556225 
L 379.036485 130.945425 
L 379.762457 109.923951 
L 380.488429 104.157575 
L 381.2144 144.125429 
L 381.940372 120.54109 
L 382.666344 149.149873 
L 383.392316 148.370769 
L 384.844259 105.858059 
L 385.570231 109.898786 
L 386.296202 150.354976 
L 387.022174 142.892737 
L 387.748146 116.979537 
L 388.474117 143.719517 
L 389.200089 148.586916 
L 389.926061 147.706219 
L 390.652033 154.623852 
L 391.378004 146.790215 
L 392.103976 159.960194 
L 392.829948 152.028977 
L 393.555919 133.118386 
L 394.281891 149.8708 
L 395.007863 147.579107 
L 395.733835 125.375756 
L 396.459806 146.173161 
L 397.185778 134.766684 
L 397.91175 142.093661 
L 398.637721 159.123624 
L 399.363693 131.529118 
L 400.089665 124.056647 
L 400.815636 160.663453 
L 401.541608 161.874061 
L 402.26758 154.043753 
L 402.993552 168.820497 
L 403.719523 168.842091 
L 404.445495 146.231396 
L 405.171467 139.654566 
L 405.897438 161.872546 
L 406.62341 169.802424 
L 407.349382 169.93162 
L 408.075353 166.352742 
L 408.801325 173.568869 
L 409.527297 161.934948 
L 410.253269 178.044811 
L 410.97924 169.727489 
L 411.705212 152.701906 
L 412.431184 180.832177 
L 413.157155 176.922483 
L 413.883127 177.029773 
L 414.609099 181.635758 
L 416.061042 186.11562 
L 416.787014 179.83571 
L 417.512986 179.749039 
L 418.238957 156.094263 
L 418.964929 178.589166 
L 419.690901 149.543444 
L 420.416872 183.845797 
L 421.142844 193.224319 
L 421.868816 158.831049 
L 422.594788 184.9716 
L 423.320759 194.184027 
L 424.046731 187.744919 
L 424.772703 191.288266 
L 425.498674 198.379418 
L 426.224646 168.76428 
L 426.950618 184.439269 
L 427.676589 195.948549 
L 428.402561 158.889822 
L 429.128533 188.857612 
L 430.580476 201.574484 
L 431.306448 164.824083 
L 432.03242 158.896922 
L 432.758391 168.384309 
L 433.484363 160.842587 
L 434.210335 170.83663 
L 434.936306 195.620969 
L 435.662278 186.491042 
L 436.38825 171.347252 
L 437.114222 173.122773 
L 437.840193 199.881346 
L 438.566165 186.904153 
L 439.292137 195.211469 
L 440.018108 183.847901 
L 440.74408 210.142556 
L 441.470052 214.1926 
L 442.196023 213.107967 
L 442.921995 171.6085 
L 443.647967 183.57871 
L 444.373939 190.887029 
L 445.09991 216.527375 
L 445.825882 195.061301 
L 446.551854 209.354238 
L 447.277825 194.03005 
L 448.003797 214.567315 
L 448.729769 190.534264 
L 449.455741 194.163688 
L 450.181712 192.485716 
L 450.907684 188.27483 
L 451.633656 222.108162 
L 452.359627 202.271351 
L 453.085599 230.823893 
L 453.811571 210.502451 
L 454.537542 234.692552 
L 455.263514 199.054885 
L 455.989486 233.851341 
L 456.715458 225.07589 
L 457.441429 198.361354 
L 458.167401 199.393682 
L 458.893373 201.35523 
L 459.619344 232.996333 
L 460.345316 219.007775 
L 461.071288 222.637669 
L 461.797259 258.746267 
L 462.523231 209.112725 
L 463.249203 240.200376 
L 463.975175 242.067664 
L 464.701146 251.083395 
L 465.427118 223.325685 
L 466.15309 218.096782 
L 466.879061 267.453202 
L 467.605033 261.304333 
L 468.331005 226.247933 
L 469.056976 235.729575 
L 469.782948 242.857132 
L 470.50892 256.058194 
L 471.234892 263.40553 
L 471.960863 244.787091 
L 472.686835 242.96964 
L 473.412807 240.31445 
L 474.138778 233.203799 
L 474.138778 233.203799 
" style="fill:none;stroke:#000000;stroke-dasharray:3.7,1.6;stroke-dashoffset:0;"/>
   </g>
   <g id="matplotlib.axis_1">
    <g id="xtick_1">
     <g id="line2d_5">
      <defs>
       <path d="M 0 0 
L 0 3.5 
" id="maede1be871" style="stroke:#000000;stroke-width:0.8;"/>
      </defs>
      <g>
       <use style="stroke:#000000;stroke-width:0.8;" x="89.373776" xlink:href="#maede1be871" y="294.118125"/>
      </g>
     </g>
     <g id="text_1">
      <!-- 100 -->
      <defs>
       <path d="M 12.40625 8.296875 
L 28.515625 8.296875 
L 28.515625 63.921875 
L 10.984375 60.40625 
L 10.984375 69.390625 
L 28.421875 72.90625 
L 38.28125 72.90625 
L 38.28125 8.296875 
L 54.390625 8.296875 
L 54.390625 0 
L 12.40625 0 
z
" id="DejaVuSans-49"/>
       <path d="M 31.78125 66.40625 
Q 24.171875 66.40625 20.328125 58.90625 
Q 16.5 51.421875 16.5 36.375 
Q 16.5 21.390625 20.328125 13.890625 
Q 24.171875 6.390625 31.78125 6.390625 
Q 39.453125 6.390625 43.28125 13.890625 
Q 47.125 21.390625 47.125 36.375 
Q 47.125 51.421875 43.28125 58.90625 
Q 39.453125 66.40625 31.78125 66.40625 
z
M 31.78125 74.21875 
Q 44.046875 74.21875 50.515625 64.515625 
Q 56.984375 54.828125 56.984375 36.375 
Q 56.984375 17.96875 50.515625 8.265625 
Q 44.046875 -1.421875 31.78125 -1.421875 
Q 19.53125 -1.421875 13.0625 8.265625 
Q 6.59375 17.96875 6.59375 36.375 
Q 6.59375 54.828125 13.0625 64.515625 
Q 19.53125 74.21875 31.78125 74.21875 
z
" id="DejaVuSans-48"/>
      </defs>
      <g transform="translate(79.830026 308.716563)scale(0.1 -0.1)">
       <use xlink:href="#DejaVuSans-49"/>
       <use x="63.623047" xlink:href="#DejaVuSans-48"/>
       <use x="127.246094" xlink:href="#DejaVuSans-48"/>
      </g>
     </g>
    </g>
    <g id="xtick_2">
     <g id="line2d_6">
      <g>
       <use style="stroke:#000000;stroke-width:0.8;" x="161.970946" xlink:href="#maede1be871" y="294.118125"/>
      </g>
     </g>
     <g id="text_2">
      <!-- 200 -->
      <defs>
       <path d="M 19.1875 8.296875 
L 53.609375 8.296875 
L 53.609375 0 
L 7.328125 0 
L 7.328125 8.296875 
Q 12.9375 14.109375 22.625 23.890625 
Q 32.328125 33.6875 34.8125 36.53125 
Q 39.546875 41.84375 41.421875 45.53125 
Q 43.3125 49.21875 43.3125 52.78125 
Q 43.3125 58.59375 39.234375 62.25 
Q 35.15625 65.921875 28.609375 65.921875 
Q 23.96875 65.921875 18.8125 64.3125 
Q 13.671875 62.703125 7.8125 59.421875 
L 7.8125 69.390625 
Q 13.765625 71.78125 18.9375 73 
Q 24.125 74.21875 28.421875 74.21875 
Q 39.75 74.21875 46.484375 68.546875 
Q 53.21875 62.890625 53.21875 53.421875 
Q 53.21875 48.921875 51.53125 44.890625 
Q 49.859375 40.875 45.40625 35.40625 
Q 44.1875 33.984375 37.640625 27.21875 
Q 31.109375 20.453125 19.1875 8.296875 
z
" id="DejaVuSans-50"/>
      </defs>
      <g transform="translate(152.427196 308.716563)scale(0.1 -0.1)">
       <use xlink:href="#DejaVuSans-50"/>
       <use x="63.623047" xlink:href="#DejaVuSans-48"/>
       <use x="127.246094" xlink:href="#DejaVuSans-48"/>
      </g>
     </g>
    </g>
    <g id="xtick_3">
     <g id="line2d_7">
      <g>
       <use style="stroke:#000000;stroke-width:0.8;" x="234.568117" xlink:href="#maede1be871" y="294.118125"/>
      </g>
     </g>
     <g id="text_3">
      <!-- 300 -->
      <defs>
       <path d="M 40.578125 39.3125 
Q 47.65625 37.796875 51.625 33 
Q 55.609375 28.21875 55.609375 21.1875 
Q 55.609375 10.40625 48.1875 4.484375 
Q 40.765625 -1.421875 27.09375 -1.421875 
Q 22.515625 -1.421875 17.65625 -0.515625 
Q 12.796875 0.390625 7.625 2.203125 
L 7.625 11.71875 
Q 11.71875 9.328125 16.59375 8.109375 
Q 21.484375 6.890625 26.8125 6.890625 
Q 36.078125 6.890625 40.9375 10.546875 
Q 45.796875 14.203125 45.796875 21.1875 
Q 45.796875 27.640625 41.28125 31.265625 
Q 36.765625 34.90625 28.71875 34.90625 
L 20.21875 34.90625 
L 20.21875 43.015625 
L 29.109375 43.015625 
Q 36.375 43.015625 40.234375 45.921875 
Q 44.09375 48.828125 44.09375 54.296875 
Q 44.09375 59.90625 40.109375 62.90625 
Q 36.140625 65.921875 28.71875 65.921875 
Q 24.65625 65.921875 20.015625 65.03125 
Q 15.375 64.15625 9.8125 62.3125 
L 9.8125 71.09375 
Q 15.4375 72.65625 20.34375 73.4375 
Q 25.25 74.21875 29.59375 74.21875 
Q 40.828125 74.21875 47.359375 69.109375 
Q 53.90625 64.015625 53.90625 55.328125 
Q 53.90625 49.265625 50.4375 45.09375 
Q 46.96875 40.921875 40.578125 39.3125 
z
" id="DejaVuSans-51"/>
      </defs>
      <g transform="translate(225.024367 308.716563)scale(0.1 -0.1)">
       <use xlink:href="#DejaVuSans-51"/>
       <use x="63.623047" xlink:href="#DejaVuSans-48"/>
       <use x="127.246094" xlink:href="#DejaVuSans-48"/>
      </g>
     </g>
    </g>
    <g id="xtick_4">
     <g id="line2d_8">
      <g>
       <use style="stroke:#000000;stroke-width:0.8;" x="307.165287" xlink:href="#maede1be871" y="294.118125"/>
      </g>
     </g>
     <g id="text_4">
      <!-- 400 -->
      <defs>
       <path d="M 37.796875 64.3125 
L 12.890625 25.390625 
L 37.796875 25.390625 
z
M 35.203125 72.90625 
L 47.609375 72.90625 
L 47.609375 25.390625 
L 58.015625 25.390625 
L 58.015625 17.1875 
L 47.609375 17.1875 
L 47.609375 0 
L 37.796875 0 
L 37.796875 17.1875 
L 4.890625 17.1875 
L 4.890625 26.703125 
z
" id="DejaVuSans-52"/>
      </defs>
      <g transform="translate(297.621537 308.716563)scale(0.1 -0.1)">
       <use xlink:href="#DejaVuSans-52"/>
       <use x="63.623047" xlink:href="#DejaVuSans-48"/>
       <use x="127.246094" xlink:href="#DejaVuSans-48"/>
      </g>
     </g>
    </g>
    <g id="xtick_5">
     <g id="line2d_9">
      <g>
       <use style="stroke:#000000;stroke-width:0.8;" x="379.762457" xlink:href="#maede1be871" y="294.118125"/>
      </g>
     </g>
     <g id="text_5">
      <!-- 500 -->
      <defs>
       <path d="M 10.796875 72.90625 
L 49.515625 72.90625 
L 49.515625 64.59375 
L 19.828125 64.59375 
L 19.828125 46.734375 
Q 21.96875 47.46875 24.109375 47.828125 
Q 26.265625 48.1875 28.421875 48.1875 
Q 40.625 48.1875 47.75 41.5 
Q 54.890625 34.8125 54.890625 23.390625 
Q 54.890625 11.625 47.5625 5.09375 
Q 40.234375 -1.421875 26.90625 -1.421875 
Q 22.3125 -1.421875 17.546875 -0.640625 
Q 12.796875 0.140625 7.71875 1.703125 
L 7.71875 11.625 
Q 12.109375 9.234375 16.796875 8.0625 
Q 21.484375 6.890625 26.703125 6.890625 
Q 35.15625 6.890625 40.078125 11.328125 
Q 45.015625 15.765625 45.015625 23.390625 
Q 45.015625 31 40.078125 35.4375 
Q 35.15625 39.890625 26.703125 39.890625 
Q 22.75 39.890625 18.8125 39.015625 
Q 14.890625 38.140625 10.796875 36.28125 
z
" id="DejaVuSans-53"/>
      </defs>
      <g transform="translate(370.218707 308.716563)scale(0.1 -0.1)">
       <use xlink:href="#DejaVuSans-53"/>
       <use x="63.623047" xlink:href="#DejaVuSans-48"/>
       <use x="127.246094" xlink:href="#DejaVuSans-48"/>
      </g>
     </g>
    </g>
    <g id="xtick_6">
     <g id="line2d_10">
      <g>
       <use style="stroke:#000000;stroke-width:0.8;" x="452.359627" xlink:href="#maede1be871" y="294.118125"/>
      </g>
     </g>
     <g id="text_6">
      <!-- 600 -->
      <defs>
       <path d="M 33.015625 40.375 
Q 26.375 40.375 22.484375 35.828125 
Q 18.609375 31.296875 18.609375 23.390625 
Q 18.609375 15.53125 22.484375 10.953125 
Q 26.375 6.390625 33.015625 6.390625 
Q 39.65625 6.390625 43.53125 10.953125 
Q 47.40625 15.53125 47.40625 23.390625 
Q 47.40625 31.296875 43.53125 35.828125 
Q 39.65625 40.375 33.015625 40.375 
z
M 52.59375 71.296875 
L 52.59375 62.3125 
Q 48.875 64.0625 45.09375 64.984375 
Q 41.3125 65.921875 37.59375 65.921875 
Q 27.828125 65.921875 22.671875 59.328125 
Q 17.53125 52.734375 16.796875 39.40625 
Q 19.671875 43.65625 24.015625 45.921875 
Q 28.375 48.1875 33.59375 48.1875 
Q 44.578125 48.1875 50.953125 41.515625 
Q 57.328125 34.859375 57.328125 23.390625 
Q 57.328125 12.15625 50.6875 5.359375 
Q 44.046875 -1.421875 33.015625 -1.421875 
Q 20.359375 -1.421875 13.671875 8.265625 
Q 6.984375 17.96875 6.984375 36.375 
Q 6.984375 53.65625 15.1875 63.9375 
Q 23.390625 74.21875 37.203125 74.21875 
Q 40.921875 74.21875 44.703125 73.484375 
Q 48.484375 72.75 52.59375 71.296875 
z
" id="DejaVuSans-54"/>
      </defs>
      <g transform="translate(442.815877 308.716563)scale(0.1 -0.1)">
       <use xlink:href="#DejaVuSans-54"/>
       <use x="63.623047" xlink:href="#DejaVuSans-48"/>
       <use x="127.246094" xlink:href="#DejaVuSans-48"/>
      </g>
     </g>
    </g>
    <g id="text_7">
     <!-- Tempo -->
     <defs>
      <path d="M -0.296875 72.90625 
L 61.375 72.90625 
L 61.375 64.59375 
L 35.5 64.59375 
L 35.5 0 
L 25.59375 0 
L 25.59375 64.59375 
L -0.296875 64.59375 
z
" id="DejaVuSans-84"/>
      <path d="M 56.203125 29.59375 
L 56.203125 25.203125 
L 14.890625 25.203125 
Q 15.484375 15.921875 20.484375 11.0625 
Q 25.484375 6.203125 34.421875 6.203125 
Q 39.59375 6.203125 44.453125 7.46875 
Q 49.3125 8.734375 54.109375 11.28125 
L 54.109375 2.78125 
Q 49.265625 0.734375 44.1875 -0.34375 
Q 39.109375 -1.421875 33.890625 -1.421875 
Q 20.796875 -1.421875 13.15625 6.1875 
Q 5.515625 13.8125 5.515625 26.8125 
Q 5.515625 40.234375 12.765625 48.109375 
Q 20.015625 56 32.328125 56 
Q 43.359375 56 49.78125 48.890625 
Q 56.203125 41.796875 56.203125 29.59375 
z
M 47.21875 32.234375 
Q 47.125 39.59375 43.09375 43.984375 
Q 39.0625 48.390625 32.421875 48.390625 
Q 24.90625 48.390625 20.390625 44.140625 
Q 15.875 39.890625 15.1875 32.171875 
z
" id="DejaVuSans-101"/>
      <path d="M 52 44.1875 
Q 55.375 50.25 60.0625 53.125 
Q 64.75 56 71.09375 56 
Q 79.640625 56 84.28125 50.015625 
Q 88.921875 44.046875 88.921875 33.015625 
L 88.921875 0 
L 79.890625 0 
L 79.890625 32.71875 
Q 79.890625 40.578125 77.09375 44.375 
Q 74.3125 48.1875 68.609375 48.1875 
Q 61.625 48.1875 57.5625 43.546875 
Q 53.515625 38.921875 53.515625 30.90625 
L 53.515625 0 
L 44.484375 0 
L 44.484375 32.71875 
Q 44.484375 40.625 41.703125 44.40625 
Q 38.921875 48.1875 33.109375 48.1875 
Q 26.21875 48.1875 22.15625 43.53125 
Q 18.109375 38.875 18.109375 30.90625 
L 18.109375 0 
L 9.078125 0 
L 9.078125 54.6875 
L 18.109375 54.6875 
L 18.109375 46.1875 
Q 21.1875 51.21875 25.484375 53.609375 
Q 29.78125 56 35.6875 56 
Q 41.65625 56 45.828125 52.96875 
Q 50 49.953125 52 44.1875 
z
" id="DejaVuSans-109"/>
      <path d="M 18.109375 8.203125 
L 18.109375 -20.796875 
L 9.078125 -20.796875 
L 9.078125 54.6875 
L 18.109375 54.6875 
L 18.109375 46.390625 
Q 20.953125 51.265625 25.265625 53.625 
Q 29.59375 56 35.59375 56 
Q 45.5625 56 51.78125 48.09375 
Q 58.015625 40.1875 58.015625 27.296875 
Q 58.015625 14.40625 51.78125 6.484375 
Q 45.5625 -1.421875 35.59375 -1.421875 
Q 29.59375 -1.421875 25.265625 0.953125 
Q 20.953125 3.328125 18.109375 8.203125 
z
M 48.6875 27.296875 
Q 48.6875 37.203125 44.609375 42.84375 
Q 40.53125 48.484375 33.40625 48.484375 
Q 26.265625 48.484375 22.1875 42.84375 
Q 18.109375 37.203125 18.109375 27.296875 
Q 18.109375 17.390625 22.1875 11.75 
Q 26.265625 6.109375 33.40625 6.109375 
Q 40.53125 6.109375 44.609375 11.75 
Q 48.6875 17.390625 48.6875 27.296875 
z
" id="DejaVuSans-112"/>
      <path d="M 30.609375 48.390625 
Q 23.390625 48.390625 19.1875 42.75 
Q 14.984375 37.109375 14.984375 27.296875 
Q 14.984375 17.484375 19.15625 11.84375 
Q 23.34375 6.203125 30.609375 6.203125 
Q 37.796875 6.203125 41.984375 11.859375 
Q 46.1875 17.53125 46.1875 27.296875 
Q 46.1875 37.015625 41.984375 42.703125 
Q 37.796875 48.390625 30.609375 48.390625 
z
M 30.609375 56 
Q 42.328125 56 49.015625 48.375 
Q 55.71875 40.765625 55.71875 27.296875 
Q 55.71875 13.875 49.015625 6.21875 
Q 42.328125 -1.421875 30.609375 -1.421875 
Q 18.84375 -1.421875 12.171875 6.21875 
Q 5.515625 13.875 5.515625 27.296875 
Q 5.515625 40.765625 12.171875 48.375 
Q 18.84375 56 30.609375 56 
z
" id="DejaVuSans-111"/>
     </defs>
     <g transform="translate(254.845312 322.394687)scale(0.1 -0.1)">
      <use xlink:href="#DejaVuSans-84"/>
      <use x="44.083984" xlink:href="#DejaVuSans-101"/>
      <use x="105.607422" xlink:href="#DejaVuSans-109"/>
      <use x="203.019531" xlink:href="#DejaVuSans-112"/>
      <use x="266.496094" xlink:href="#DejaVuSans-111"/>
     </g>
    </g>
   </g>
   <g id="matplotlib.axis_2">
    <g id="ytick_1">
     <g id="line2d_11">
      <defs>
       <path d="M 0 0 
L -3.5 0 
" id="m4107d5447f" style="stroke:#000000;stroke-width:0.8;"/>
      </defs>
      <g>
       <use style="stroke:#000000;stroke-width:0.8;" x="48.029687" xlink:href="#m4107d5447f" y="293.517771"/>
      </g>
     </g>
     <g id="text_8">
      <!-- 1250 -->
      <defs>
       <path d="M 10.59375 35.5 
L 73.1875 35.5 
L 73.1875 27.203125 
L 10.59375 27.203125 
z
" id="DejaVuSans-8722"/>
      </defs>
      <g transform="translate(7.2 297.31699)scale(0.1 -0.1)">
       <use xlink:href="#DejaVuSans-8722"/>
       <use x="83.789062" xlink:href="#DejaVuSans-49"/>
       <use x="147.412109" xlink:href="#DejaVuSans-50"/>
       <use x="211.035156" xlink:href="#DejaVuSans-53"/>
       <use x="274.658203" xlink:href="#DejaVuSans-48"/>
      </g>
     </g>
    </g>
    <g id="ytick_2">
     <g id="line2d_12">
      <g>
       <use style="stroke:#000000;stroke-width:0.8;" x="48.029687" xlink:href="#m4107d5447f" y="257.995134"/>
      </g>
     </g>
     <g id="text_9">
      <!-- 1000 -->
      <g transform="translate(7.2 261.794353)scale(0.1 -0.1)">
       <use xlink:href="#DejaVuSans-8722"/>
       <use x="83.789062" xlink:href="#DejaVuSans-49"/>
       <use x="147.412109" xlink:href="#DejaVuSans-48"/>
       <use x="211.035156" xlink:href="#DejaVuSans-48"/>
       <use x="274.658203" xlink:href="#DejaVuSans-48"/>
      </g>
     </g>
    </g>
    <g id="ytick_3">
     <g id="line2d_13">
      <g>
       <use style="stroke:#000000;stroke-width:0.8;" x="48.029687" xlink:href="#m4107d5447f" y="222.472497"/>
      </g>
     </g>
     <g id="text_10">
      <!-- 750 -->
      <defs>
       <path d="M 8.203125 72.90625 
L 55.078125 72.90625 
L 55.078125 68.703125 
L 28.609375 0 
L 18.3125 0 
L 43.21875 64.59375 
L 8.203125 64.59375 
z
" id="DejaVuSans-55"/>
      </defs>
      <g transform="translate(13.5625 226.271715)scale(0.1 -0.1)">
       <use xlink:href="#DejaVuSans-8722"/>
       <use x="83.789062" xlink:href="#DejaVuSans-55"/>
       <use x="147.412109" xlink:href="#DejaVuSans-53"/>
       <use x="211.035156" xlink:href="#DejaVuSans-48"/>
      </g>
     </g>
    </g>
    <g id="ytick_4">
     <g id="line2d_14">
      <g>
       <use style="stroke:#000000;stroke-width:0.8;" x="48.029687" xlink:href="#m4107d5447f" y="186.949859"/>
      </g>
     </g>
     <g id="text_11">
      <!-- 500 -->
      <g transform="translate(13.5625 190.749078)scale(0.1 -0.1)">
       <use xlink:href="#DejaVuSans-8722"/>
       <use x="83.789062" xlink:href="#DejaVuSans-53"/>
       <use x="147.412109" xlink:href="#DejaVuSans-48"/>
       <use x="211.035156" xlink:href="#DejaVuSans-48"/>
      </g>
     </g>
    </g>
    <g id="ytick_5">
     <g id="line2d_15">
      <g>
       <use style="stroke:#000000;stroke-width:0.8;" x="48.029687" xlink:href="#m4107d5447f" y="151.427222"/>
      </g>
     </g>
     <g id="text_12">
      <!-- 250 -->
      <g transform="translate(13.5625 155.226441)scale(0.1 -0.1)">
       <use xlink:href="#DejaVuSans-8722"/>
       <use x="83.789062" xlink:href="#DejaVuSans-50"/>
       <use x="147.412109" xlink:href="#DejaVuSans-53"/>
       <use x="211.035156" xlink:href="#DejaVuSans-48"/>
      </g>
     </g>
    </g>
    <g id="ytick_6">
     <g id="line2d_16">
      <g>
       <use style="stroke:#000000;stroke-width:0.8;" x="48.029687" xlink:href="#m4107d5447f" y="115.904584"/>
      </g>
     </g>
     <g id="text_13">
      <!-- 0 -->
      <g transform="translate(34.667187 119.703803)scale(0.1 -0.1)">
       <use xlink:href="#DejaVuSans-48"/>
      </g>
     </g>
    </g>
    <g id="ytick_7">
     <g id="line2d_17">
      <g>
       <use style="stroke:#000000;stroke-width:0.8;" x="48.029687" xlink:href="#m4107d5447f" y="80.381947"/>
      </g>
     </g>
     <g id="text_14">
      <!-- 250 -->
      <g transform="translate(21.942187 84.181166)scale(0.1 -0.1)">
       <use xlink:href="#DejaVuSans-50"/>
       <use x="63.623047" xlink:href="#DejaVuSans-53"/>
       <use x="127.246094" xlink:href="#DejaVuSans-48"/>
      </g>
     </g>
    </g>
    <g id="ytick_8">
     <g id="line2d_18">
      <g>
       <use style="stroke:#000000;stroke-width:0.8;" x="48.029687" xlink:href="#m4107d5447f" y="44.85931"/>
      </g>
     </g>
     <g id="text_15">
      <!-- 500 -->
      <g transform="translate(21.942187 48.658528)scale(0.1 -0.1)">
       <use xlink:href="#DejaVuSans-53"/>
       <use x="63.623047" xlink:href="#DejaVuSans-48"/>
       <use x="127.246094" xlink:href="#DejaVuSans-48"/>
      </g>
     </g>
    </g>
   </g>
   <g id="patch_3">
    <path d="M 48.029687 294.118125 
L 48.029687 22.318125 
" style="fill:none;stroke:#000000;stroke-linecap:square;stroke-linejoin:miter;stroke-width:0.8;"/>
   </g>
   <g id="patch_4">
    <path d="M 48.029687 294.118125 
L 494.429687 294.118125 
" style="fill:none;stroke:#000000;stroke-linecap:square;stroke-linejoin:miter;stroke-width:0.8;"/>
   </g>
   <g id="text_16">
    <!-- Gov_Balance -->
    <defs>
     <path d="M 59.515625 10.40625 
L 59.515625 29.984375 
L 43.40625 29.984375 
L 43.40625 38.09375 
L 69.28125 38.09375 
L 69.28125 6.78125 
Q 63.578125 2.734375 56.6875 0.65625 
Q 49.8125 -1.421875 42 -1.421875 
Q 24.90625 -1.421875 15.25 8.5625 
Q 5.609375 18.5625 5.609375 36.375 
Q 5.609375 54.25 15.25 64.234375 
Q 24.90625 74.21875 42 74.21875 
Q 49.125 74.21875 55.546875 72.453125 
Q 61.96875 70.703125 67.390625 67.28125 
L 67.390625 56.78125 
Q 61.921875 61.421875 55.765625 63.765625 
Q 49.609375 66.109375 42.828125 66.109375 
Q 29.4375 66.109375 22.71875 58.640625 
Q 16.015625 51.171875 16.015625 36.375 
Q 16.015625 21.625 22.71875 14.15625 
Q 29.4375 6.6875 42.828125 6.6875 
Q 48.046875 6.6875 52.140625 7.59375 
Q 56.25 8.5 59.515625 10.40625 
z
" id="DejaVuSans-71"/>
     <path d="M 2.984375 54.6875 
L 12.5 54.6875 
L 29.59375 8.796875 
L 46.6875 54.6875 
L 56.203125 54.6875 
L 35.6875 0 
L 23.484375 0 
z
" id="DejaVuSans-118"/>
     <path d="M 50.984375 -16.609375 
L 50.984375 -23.578125 
L -0.984375 -23.578125 
L -0.984375 -16.609375 
z
" id="DejaVuSans-95"/>
     <path d="M 19.671875 34.8125 
L 19.671875 8.109375 
L 35.5 8.109375 
Q 43.453125 8.109375 47.28125 11.40625 
Q 51.125 14.703125 51.125 21.484375 
Q 51.125 28.328125 47.28125 31.5625 
Q 43.453125 34.8125 35.5 34.8125 
z
M 19.671875 64.796875 
L 19.671875 42.828125 
L 34.28125 42.828125 
Q 41.5 42.828125 45.03125 45.53125 
Q 48.578125 48.25 48.578125 53.8125 
Q 48.578125 59.328125 45.03125 62.0625 
Q 41.5 64.796875 34.28125 64.796875 
z
M 9.8125 72.90625 
L 35.015625 72.90625 
Q 46.296875 72.90625 52.390625 68.21875 
Q 58.5 63.53125 58.5 54.890625 
Q 58.5 48.1875 55.375 44.234375 
Q 52.25 40.28125 46.1875 39.3125 
Q 53.46875 37.75 57.5 32.78125 
Q 61.53125 27.828125 61.53125 20.40625 
Q 61.53125 10.640625 54.890625 5.3125 
Q 48.25 0 35.984375 0 
L 9.8125 0 
z
" id="DejaVuSans-66"/>
     <path d="M 34.28125 27.484375 
Q 23.390625 27.484375 19.1875 25 
Q 14.984375 22.515625 14.984375 16.5 
Q 14.984375 11.71875 18.140625 8.90625 
Q 21.296875 6.109375 26.703125 6.109375 
Q 34.1875 6.109375 38.703125 11.40625 
Q 43.21875 16.703125 43.21875 25.484375 
L 43.21875 27.484375 
z
M 52.203125 31.203125 
L 52.203125 0 
L 43.21875 0 
L 43.21875 8.296875 
Q 40.140625 3.328125 35.546875 0.953125 
Q 30.953125 -1.421875 24.3125 -1.421875 
Q 15.921875 -1.421875 10.953125 3.296875 
Q 6 8.015625 6 15.921875 
Q 6 25.140625 12.171875 29.828125 
Q 18.359375 34.515625 30.609375 34.515625 
L 43.21875 34.515625 
L 43.21875 35.40625 
Q 43.21875 41.609375 39.140625 45 
Q 35.0625 48.390625 27.6875 48.390625 
Q 23 48.390625 18.546875 47.265625 
Q 14.109375 46.140625 10.015625 43.890625 
L 10.015625 52.203125 
Q 14.9375 54.109375 19.578125 55.046875 
Q 24.21875 56 28.609375 56 
Q 40.484375 56 46.34375 49.84375 
Q 52.203125 43.703125 52.203125 31.203125 
z
" id="DejaVuSans-97"/>
     <path d="M 9.421875 75.984375 
L 18.40625 75.984375 
L 18.40625 0 
L 9.421875 0 
z
" id="DejaVuSans-108"/>
     <path d="M 54.890625 33.015625 
L 54.890625 0 
L 45.90625 0 
L 45.90625 32.71875 
Q 45.90625 40.484375 42.875 44.328125 
Q 39.84375 48.1875 33.796875 48.1875 
Q 26.515625 48.1875 22.3125 43.546875 
Q 18.109375 38.921875 18.109375 30.90625 
L 18.109375 0 
L 9.078125 0 
L 9.078125 54.6875 
L 18.109375 54.6875 
L 18.109375 46.1875 
Q 21.34375 51.125 25.703125 53.5625 
Q 30.078125 56 35.796875 56 
Q 45.21875 56 50.046875 50.171875 
Q 54.890625 44.34375 54.890625 33.015625 
z
" id="DejaVuSans-110"/>
     <path d="M 48.78125 52.59375 
L 48.78125 44.1875 
Q 44.96875 46.296875 41.140625 47.34375 
Q 37.3125 48.390625 33.40625 48.390625 
Q 24.65625 48.390625 19.8125 42.84375 
Q 14.984375 37.3125 14.984375 27.296875 
Q 14.984375 17.28125 19.8125 11.734375 
Q 24.65625 6.203125 33.40625 6.203125 
Q 37.3125 6.203125 41.140625 7.25 
Q 44.96875 8.296875 48.78125 10.40625 
L 48.78125 2.09375 
Q 45.015625 0.34375 40.984375 -0.53125 
Q 36.96875 -1.421875 32.421875 -1.421875 
Q 20.0625 -1.421875 12.78125 6.34375 
Q 5.515625 14.109375 5.515625 27.296875 
Q 5.515625 40.671875 12.859375 48.328125 
Q 20.21875 56 33.015625 56 
Q 37.15625 56 41.109375 55.140625 
Q 45.0625 54.296875 48.78125 52.59375 
z
" id="DejaVuSans-99"/>
    </defs>
    <g transform="translate(232.4275 16.318125)scale(0.12 -0.12)">
     <use xlink:href="#DejaVuSans-71"/>
     <use x="77.490234" xlink:href="#DejaVuSans-111"/>
     <use x="138.671875" xlink:href="#DejaVuSans-118"/>
     <use x="197.851562" xlink:href="#DejaVuSans-95"/>
     <use x="247.851562" xlink:href="#DejaVuSans-66"/>
     <use x="316.455078" xlink:href="#DejaVuSans-97"/>
     <use x="377.734375" xlink:href="#DejaVuSans-108"/>
     <use x="405.517578" xlink:href="#DejaVuSans-97"/>
     <use x="466.796875" xlink:href="#DejaVuSans-110"/>
     <use x="530.175781" xlink:href="#DejaVuSans-99"/>
     <use x="585.15625" xlink:href="#DejaVuSans-101"/>
    </g>
   </g>
   <g id="legend_1">
    <g id="patch_5">
     <path d="M 501.429688 190.104844 
L 575.828125 190.104844 
Q 577.828125 190.104844 577.828125 188.104844 
L 577.828125 128.331406 
Q 577.828125 126.331406 575.828125 126.331406 
L 501.429688 126.331406 
Q 499.429688 126.331406 499.429688 128.331406 
L 499.429688 188.104844 
Q 499.429688 190.104844 501.429688 190.104844 
z
" style="fill:#ffffff;opacity:0.8;stroke:#cccccc;stroke-linejoin:miter;"/>
    </g>
    <g id="line2d_19">
     <path d="M 503.429688 134.429844 
L 523.429688 134.429844 
" style="fill:none;stroke:#000000;stroke-dasharray:3.7,1.6;stroke-dashoffset:0;"/>
    </g>
    <g id="line2d_20"/>
    <g id="text_17">
     <!-- Baseline -->
     <defs>
      <path d="M 44.28125 53.078125 
L 44.28125 44.578125 
Q 40.484375 46.53125 36.375 47.5 
Q 32.28125 48.484375 27.875 48.484375 
Q 21.1875 48.484375 17.84375 46.4375 
Q 14.5 44.390625 14.5 40.28125 
Q 14.5 37.15625 16.890625 35.375 
Q 19.28125 33.59375 26.515625 31.984375 
L 29.59375 31.296875 
Q 39.15625 29.25 43.1875 25.515625 
Q 47.21875 21.78125 47.21875 15.09375 
Q 47.21875 7.46875 41.1875 3.015625 
Q 35.15625 -1.421875 24.609375 -1.421875 
Q 20.21875 -1.421875 15.453125 -0.5625 
Q 10.6875 0.296875 5.421875 2 
L 5.421875 11.28125 
Q 10.40625 8.6875 15.234375 7.390625 
Q 20.0625 6.109375 24.8125 6.109375 
Q 31.15625 6.109375 34.5625 8.28125 
Q 37.984375 10.453125 37.984375 14.40625 
Q 37.984375 18.0625 35.515625 20.015625 
Q 33.0625 21.96875 24.703125 23.78125 
L 21.578125 24.515625 
Q 13.234375 26.265625 9.515625 29.90625 
Q 5.8125 33.546875 5.8125 39.890625 
Q 5.8125 47.609375 11.28125 51.796875 
Q 16.75 56 26.8125 56 
Q 31.78125 56 36.171875 55.265625 
Q 40.578125 54.546875 44.28125 53.078125 
z
" id="DejaVuSans-115"/>
      <path d="M 9.421875 54.6875 
L 18.40625 54.6875 
L 18.40625 0 
L 9.421875 0 
z
M 9.421875 75.984375 
L 18.40625 75.984375 
L 18.40625 64.59375 
L 9.421875 64.59375 
z
" id="DejaVuSans-105"/>
     </defs>
     <g transform="translate(531.429688 137.929844)scale(0.1 -0.1)">
      <use xlink:href="#DejaVuSans-66"/>
      <use x="68.603516" xlink:href="#DejaVuSans-97"/>
      <use x="129.882812" xlink:href="#DejaVuSans-115"/>
      <use x="181.982422" xlink:href="#DejaVuSans-101"/>
      <use x="243.505859" xlink:href="#DejaVuSans-108"/>
      <use x="271.289062" xlink:href="#DejaVuSans-105"/>
      <use x="299.072266" xlink:href="#DejaVuSans-110"/>
      <use x="362.451172" xlink:href="#DejaVuSans-101"/>
     </g>
    </g>
    <g id="line2d_21">
     <path d="M 503.429688 149.107969 
L 523.429688 149.107969 
" style="fill:none;stroke:#1f77b4;stroke-linecap:square;stroke-width:1.5;"/>
    </g>
    <g id="line2d_22"/>
    <g id="text_18">
     <!-- $\Downarrow \sigma_\psi$ -->
     <defs>
      <path d="M 36.765625 14.3125 
L 41.9375 9.234375 
L 47.015625 14.3125 
L 47.015625 72.90625 
L 52.875 72.90625 
L 52.875 20.171875 
L 57.46875 24.75 
L 63.328125 18.890625 
L 44.09375 -0.34375 
L 39.703125 -0.34375 
L 20.5625 18.890625 
L 26.421875 24.75 
L 30.90625 20.171875 
L 30.90625 72.90625 
L 36.765625 72.90625 
z
" id="DejaVuSans-8659"/>
      <path d="M 34.671875 47.5625 
Q 27.25 47.5625 22.21875 42.1875 
Q 16.890625 36.578125 15.140625 27.296875 
Q 13.1875 17.484375 16.3125 11.8125 
Q 19.390625 6.203125 26.65625 6.203125 
Q 33.84375 6.203125 39.109375 11.859375 
Q 44.4375 17.53125 46.34375 27.296875 
Q 48.046875 36.234375 45.015625 42.1875 
Q 42.1875 47.5625 34.671875 47.5625 
z
M 36.078125 54.734375 
L 65.921875 54.6875 
L 64.15625 45.703125 
L 54.109375 45.703125 
Q 57.90625 38.09375 55.859375 27.296875 
Q 53.21875 13.875 45.0625 6.25 
Q 36.859375 -1.421875 25.140625 -1.421875 
Q 13.375 -1.421875 8.203125 6.25 
Q 3.03125 13.875 5.671875 27.296875 
Q 8.25 40.765625 16.40625 48.390625 
Q 23.1875 54.734375 36.078125 54.734375 
z
" id="DejaVuSans-Oblique-963"/>
      <path d="M 24.859375 -1.21875 
Q 13.921875 0.59375 9.625 5.328125 
Q 4.34375 11.140625 6.640625 23 
L 12.796875 54.6875 
L 21.875 54.6875 
L 15.765625 23.34375 
Q 14.0625 14.40625 17.484375 10.6875 
Q 20.515625 7.46875 26.421875 6.78125 
L 35.6875 54.6875 
L 44.625 54.6875 
L 35.359375 6.84375 
Q 41.890625 7.515625 45.75 10.75 
Q 50.734375 14.84375 52.390625 23.390625 
L 58.453125 54.6875 
L 67.53125 54.6875 
L 61.375 23.046875 
Q 58.984375 10.75 51.5625 5.375 
Q 44.875 0.53125 33.796875 -1.171875 
L 29.984375 -20.796875 
L 21.046875 -20.796875 
z
" id="DejaVuSans-Oblique-968"/>
     </defs>
     <g transform="translate(531.429688 152.607969)scale(0.1 -0.1)">
      <use transform="translate(19.482422 0.09375)" xlink:href="#DejaVuSans-8659"/>
      <use transform="translate(122.753906 0.09375)" xlink:href="#DejaVuSans-Oblique-963"/>
      <use transform="translate(186.132812 -16.3125)scale(0.7)" xlink:href="#DejaVuSans-Oblique-968"/>
     </g>
    </g>
    <g id="line2d_23">
     <path d="M 503.429688 164.806406 
L 523.429688 164.806406 
" style="fill:none;stroke:#ff7f0e;stroke-linecap:square;stroke-width:1.5;"/>
    </g>
    <g id="line2d_24"/>
    <g id="text_19">
     <!-- $\Downarrow s_\psi$ -->
     <defs>
      <path d="M 50 53.078125 
L 48.296875 44.578125 
Q 44.734375 46.53125 40.765625 47.5 
Q 36.8125 48.484375 32.625 48.484375 
Q 25.53125 48.484375 21.453125 46.0625 
Q 17.390625 43.65625 17.390625 39.5 
Q 17.390625 34.671875 26.859375 32.078125 
Q 27.59375 31.890625 27.9375 31.78125 
L 30.8125 30.90625 
Q 39.796875 28.421875 42.796875 25.6875 
Q 45.796875 22.953125 45.796875 18.21875 
Q 45.796875 9.515625 38.890625 4.046875 
Q 31.984375 -1.421875 20.796875 -1.421875 
Q 16.453125 -1.421875 11.671875 -0.578125 
Q 6.890625 0.25 1.125 2 
L 2.875 11.28125 
Q 7.8125 8.734375 12.59375 7.421875 
Q 17.390625 6.109375 21.78125 6.109375 
Q 28.375 6.109375 32.5 8.9375 
Q 36.625 11.765625 36.625 16.109375 
Q 36.625 20.796875 25.78125 23.6875 
L 24.859375 23.921875 
L 21.78125 24.703125 
Q 14.9375 26.515625 11.765625 29.46875 
Q 8.59375 32.421875 8.59375 37.015625 
Q 8.59375 45.75 15.15625 50.875 
Q 21.734375 56 33.015625 56 
Q 37.453125 56 41.671875 55.265625 
Q 45.90625 54.546875 50 53.078125 
z
" id="DejaVuSans-Oblique-115"/>
     </defs>
     <g transform="translate(531.429688 168.306406)scale(0.1 -0.1)">
      <use transform="translate(19.482422 0.09375)" xlink:href="#DejaVuSans-8659"/>
      <use transform="translate(122.753906 0.09375)" xlink:href="#DejaVuSans-Oblique-115"/>
      <use transform="translate(174.853516 -16.3125)scale(0.7)" xlink:href="#DejaVuSans-Oblique-968"/>
     </g>
    </g>
    <g id="line2d_25">
     <path d="M 503.429688 180.504844 
L 523.429688 180.504844 
" style="fill:none;stroke:#2ca02c;stroke-linecap:square;stroke-width:1.5;"/>
    </g>
    <g id="line2d_26"/>
    <g id="text_20">
     <!-- $\Uparrow \eta$ -->
     <defs>
      <path d="M 36.765625 58.59375 
L 36.765625 0 
L 30.90625 0 
L 30.90625 52.734375 
L 26.421875 48.140625 
L 20.5625 54 
L 39.703125 73.25 
L 44.09375 73.25 
L 63.328125 54 
L 57.46875 48.140625 
L 52.875 52.734375 
L 52.875 0 
L 47.015625 0 
L 47.015625 58.59375 
L 41.9375 63.671875 
z
" id="DejaVuSans-8657"/>
      <path d="M 57.859375 33.015625 
L 47.40625 -20.796875 
L 38.421875 -20.796875 
L 48.828125 32.71875 
Q 50.34375 40.484375 48.046875 44.34375 
Q 45.796875 48.1875 39.75 48.1875 
Q 32.46875 48.1875 27.34375 43.5625 
Q 22.265625 38.921875 20.703125 30.90625 
L 14.703125 0 
L 5.671875 0 
L 16.3125 54.6875 
L 25.34375 54.6875 
L 23.6875 46.1875 
Q 27.828125 51.125 32.71875 53.5625 
Q 37.546875 56 43.265625 56 
Q 52.6875 56 56.390625 50.203125 
Q 60.0625 44.34375 57.859375 33.015625 
z
" id="DejaVuSans-Oblique-951"/>
     </defs>
     <g transform="translate(531.429688 184.004844)scale(0.1 -0.1)">
      <use transform="translate(19.482422 0.75)" xlink:href="#DejaVuSans-8657"/>
      <use transform="translate(122.753906 0.75)" xlink:href="#DejaVuSans-Oblique-951"/>
     </g>
    </g>
   </g>
  </g>
 </g>
 <defs>
  <clipPath id="p7e6f1e2016">
   <rect height="271.8" width="446.4" x="48.029687" y="22.318125"/>
  </clipPath>
 </defs>
</svg>
