<?xml version="1.0" encoding="utf-8" standalone="no"?>
<!DOCTYPE svg PUBLIC "-//W3C//DTD SVG 1.1//EN"
  "http://www.w3.org/Graphics/SVG/1.1/DTD/svg11.dtd">
<!-- Created with matplotlib (https://matplotlib.org/) -->
<svg height="331.674375pt" version="1.1" viewBox="0 0 578.665625 331.674375" width="578.665625pt" xmlns="http://www.w3.org/2000/svg" xmlns:xlink="http://www.w3.org/1999/xlink">
 <defs>
  <style type="text/css">
*{stroke-linecap:butt;stroke-linejoin:round;}
  </style>
 </defs>
 <g id="figure_1">
  <g id="patch_1">
   <path d="M 0 331.674375 
L 578.665625 331.674375 
L 578.665625 0 
L 0 0 
z
" style="fill:#ffffff;"/>
  </g>
  <g id="axes_1">
   <g id="patch_2">
    <path d="M 41.667187 294.118125 
L 488.067187 294.118125 
L 488.067187 22.318125 
L 41.667187 22.318125 
z
" style="fill:#ffffff;"/>
   </g>
   <g id="line2d_1">
    <path clip-path="url(#peab23d9a86)" d="M 61.958097 81.485872 
L 62.684068 81.998494 
L 64.136012 81.413503 
L 64.861983 81.713944 
L 65.587955 81.380117 
L 66.313927 81.507078 
L 67.039899 81.833165 
L 67.76587 81.302195 
L 68.491842 82.098223 
L 69.217814 80.9544 
L 69.943785 80.865062 
L 70.669757 82.036105 
L 71.395729 81.372447 
L 72.1217 81.501469 
L 72.847672 80.690503 
L 73.573644 80.873268 
L 74.299616 81.791395 
L 75.025587 80.886607 
L 75.751559 81.582437 
L 76.477531 81.123835 
L 77.203502 81.198115 
L 77.929474 81.473964 
L 78.655446 81.432204 
L 79.381417 81.648126 
L 80.107389 81.696101 
L 80.833361 82.071684 
L 81.559333 82.179495 
L 82.285304 80.707442 
L 83.011276 81.532352 
L 83.737248 81.788412 
L 84.463219 79.604326 
L 85.189191 79.751288 
L 86.641134 82.008278 
L 87.367106 82.117226 
L 88.093078 81.855876 
L 88.81905 79.819969 
L 89.545021 78.164473 
L 90.270993 78.418483 
L 90.996965 80.471406 
L 91.722936 81.509978 
L 92.448908 80.33991 
L 93.17488 80.341495 
L 94.626823 81.527593 
L 95.352795 80.642959 
L 96.078767 81.120873 
L 97.53071 80.719029 
L 98.256682 80.931543 
L 98.982653 80.383777 
L 99.708625 80.489076 
L 100.434597 80.445458 
L 101.160569 79.566025 
L 101.88654 79.855489 
L 102.612512 81.797385 
L 103.338484 82.135803 
L 104.064455 81.822998 
L 104.790427 81.344956 
L 105.516399 81.489851 
L 106.24237 81.959755 
L 106.968342 80.371155 
L 107.694314 79.610047 
L 108.420286 81.375422 
L 109.146257 81.912667 
L 109.872229 81.446093 
L 112.050144 81.665261 
L 112.776116 82.15146 
L 113.502087 82.205644 
L 114.228059 80.585292 
L 114.954031 79.930085 
L 115.680003 81.08799 
L 116.405974 81.688992 
L 117.131946 81.976857 
L 117.857918 81.58366 
L 118.583889 80.904096 
L 120.035833 81.878449 
L 120.761805 81.152881 
L 121.487776 79.373125 
L 122.213748 81.412238 
L 122.93972 82.192821 
L 123.665691 81.712105 
L 124.391663 81.043181 
L 125.117635 81.601047 
L 125.843606 80.090908 
L 126.569578 80.953779 
L 127.29555 81.62726 
L 128.021522 82.039121 
L 128.747493 82.172263 
L 129.473465 81.807355 
L 130.199437 81.772541 
L 130.925408 82.134126 
L 131.65138 81.733922 
L 132.377352 81.144685 
L 133.103323 80.901116 
L 133.829295 78.072935 
L 134.555267 80.527059 
L 135.281239 82.029539 
L 136.00721 81.879697 
L 136.733182 82.063836 
L 137.459154 81.363051 
L 138.185125 78.652633 
L 138.911097 81.463153 
L 139.637069 81.585909 
L 140.36304 80.672801 
L 141.089012 81.620117 
L 141.814984 81.335134 
L 142.540956 82.057517 
L 143.266927 81.721912 
L 143.992899 78.812547 
L 144.718871 80.052635 
L 145.444842 80.801231 
L 146.170814 81.078656 
L 146.896786 79.220871 
L 147.622758 79.041301 
L 148.348729 81.70555 
L 149.074701 81.807783 
L 149.800673 81.123486 
L 151.252616 81.45725 
L 151.978588 81.843088 
L 153.430531 81.572568 
L 154.156503 82.227921 
L 154.882475 82.250441 
L 156.334418 81.33445 
L 157.06039 81.647586 
L 157.786361 80.351941 
L 158.512333 81.004916 
L 159.238305 82.077208 
L 161.41622 81.283265 
L 162.868163 81.776134 
L 163.594135 80.651346 
L 164.320107 81.476591 
L 165.046078 81.691413 
L 165.77205 81.261289 
L 166.498022 82.142524 
L 167.223993 82.125783 
L 167.949965 81.881695 
L 168.675937 79.397277 
L 169.401909 76.515502 
L 170.12788 76.429272 
L 170.853852 74.565916 
L 171.579824 77.699906 
L 172.305795 81.398956 
L 173.031767 82.06254 
L 173.757739 80.694847 
L 174.483711 80.975038 
L 175.209682 81.044742 
L 175.935654 79.871142 
L 176.661626 81.673141 
L 178.113569 81.776593 
L 178.839541 81.684272 
L 179.565512 81.959099 
L 180.291484 81.103703 
L 181.017456 81.022484 
L 181.743428 81.450489 
L 182.469399 81.409287 
L 183.921343 82.207193 
L 184.647314 82.139474 
L 185.373286 80.487481 
L 186.099258 78.072657 
L 186.825229 81.832568 
L 187.551201 82.115462 
L 188.277173 81.747076 
L 189.003145 81.932001 
L 189.729116 81.940955 
L 190.455088 80.7277 
L 191.18106 81.261335 
L 191.907031 81.585107 
L 192.633003 82.150885 
L 194.084946 81.935016 
L 194.810918 82.202933 
L 195.53689 81.842488 
L 196.262862 82.127061 
L 196.988833 82.145143 
L 197.714805 82.003113 
L 198.440777 81.542672 
L 199.166748 81.276683 
L 199.89272 81.192304 
L 200.618692 81.913707 
L 201.344664 82.244557 
L 203.522579 81.666865 
L 204.24855 81.707038 
L 204.974522 82.322037 
L 205.700494 82.247223 
L 206.426465 82.060465 
L 207.152437 82.247196 
L 208.604381 82.016917 
L 209.330352 81.193265 
L 210.056324 79.255912 
L 210.782296 81.027383 
L 211.508267 81.979451 
L 212.234239 81.185835 
L 212.960211 81.289939 
L 213.686182 79.2445 
L 214.412154 80.618406 
L 215.138126 80.597662 
L 215.864098 80.919572 
L 216.590069 81.820231 
L 218.042013 81.663262 
L 218.767984 82.001914 
L 219.493956 81.449819 
L 220.219928 80.712449 
L 220.945899 81.818677 
L 221.671871 82.211895 
L 222.397843 81.877967 
L 223.123815 81.806476 
L 223.849786 82.034852 
L 224.575758 81.965307 
L 225.30173 81.578214 
L 226.027701 82.184458 
L 226.753673 82.110455 
L 227.479645 80.389383 
L 228.205617 80.710407 
L 228.931588 81.650446 
L 229.65756 81.99877 
L 230.383532 80.475155 
L 231.109503 79.504559 
L 231.835475 78.937746 
L 232.561447 82.001371 
L 233.287418 80.231341 
L 234.01339 81.077011 
L 234.739362 80.651413 
L 235.465334 81.237665 
L 236.191305 81.633271 
L 236.917277 80.42537 
L 237.643249 78.00677 
L 238.36922 80.768275 
L 239.095192 79.525785 
L 239.821164 79.286508 
L 240.547135 81.780271 
L 241.273107 81.9052 
L 241.999079 82.173019 
L 242.725051 81.572217 
L 243.451022 79.533418 
L 244.176994 79.977878 
L 244.902966 82.137339 
L 245.628937 82.113089 
L 246.354909 81.873961 
L 247.080881 81.082897 
L 247.806852 81.586004 
L 248.532824 81.508842 
L 249.258796 81.318049 
L 249.984768 81.448116 
L 250.710739 81.219145 
L 251.436711 81.977192 
L 252.162683 81.46419 
L 252.888654 81.20349 
L 253.614626 81.434311 
L 254.340598 81.139556 
L 255.06657 80.29174 
L 255.792541 80.932951 
L 256.518513 81.805227 
L 257.244485 80.357599 
L 257.970456 81.608236 
L 258.696428 82.348567 
L 260.874343 82.121228 
L 261.600315 80.304314 
L 262.326287 81.676039 
L 263.052258 82.190857 
L 263.77823 81.976987 
L 264.504202 81.97819 
L 265.230173 81.476125 
L 265.956145 79.14539 
L 266.682117 81.576806 
L 267.408088 81.391202 
L 268.13406 82.229758 
L 268.860032 82.408072 
L 269.586004 82.366109 
L 270.311975 80.702709 
L 271.037947 77.848588 
L 271.763919 81.808182 
L 273.215862 81.264641 
L 273.941834 81.916032 
L 274.667805 81.5083 
L 275.393777 82.392902 
L 276.845721 82.499875 
L 277.571692 82.279918 
L 278.297664 79.096262 
L 279.749607 81.933416 
L 280.475579 80.811913 
L 281.201551 81.90031 
L 281.927523 82.136596 
L 282.653494 80.378821 
L 283.379466 82.753096 
L 284.105438 82.606897 
L 284.831409 82.757075 
L 285.557381 82.522348 
L 286.283353 81.907833 
L 287.009324 80.001951 
L 287.735296 81.119235 
L 288.461268 79.872119 
L 289.18724 81.230657 
L 289.913211 81.923433 
L 290.639183 81.261254 
L 291.365155 78.65826 
L 292.091126 77.922865 
L 292.817098 74.735593 
L 293.54307 150.389462 
L 294.269041 93.66659 
L 294.995013 78.191425 
L 295.720985 77.199422 
L 296.446957 79.624269 
L 297.172928 84.134543 
L 297.8989 82.178238 
L 298.624872 71.980808 
L 299.350843 80.922401 
L 300.076815 81.509829 
L 300.802787 81.28285 
L 301.528758 81.685391 
L 302.25473 53.345307 
L 302.980702 85.965555 
L 303.706674 82.689149 
L 304.432645 82.268446 
L 305.158617 79.532244 
L 305.884589 104.620168 
L 306.61056 81.650452 
L 307.336532 81.507143 
L 308.062504 84.0378 
L 308.788476 82.526197 
L 309.514447 82.414831 
L 310.240419 81.900281 
L 310.966391 81.19647 
L 311.692362 81.058214 
L 312.418334 85.2662 
L 313.144306 81.106121 
L 313.870277 81.642343 
L 315.322221 91.102387 
L 316.048193 90.50707 
L 316.774164 81.578334 
L 317.500136 82.260416 
L 318.952079 86.358234 
L 319.678051 34.67267 
L 320.404023 82.760076 
L 321.129994 81.340071 
L 321.855966 81.577974 
L 322.581938 87.292166 
L 323.30791 70.731933 
L 324.033881 81.562442 
L 324.759853 82.665009 
L 325.485825 82.010228 
L 326.211796 89.454633 
L 326.937768 81.910172 
L 327.66374 81.4687 
L 329.841655 81.040673 
L 330.567627 86.48042 
L 331.293598 71.829625 
L 332.01957 85.55315 
L 332.745542 81.856059 
L 333.471513 84.300902 
L 334.197485 81.617986 
L 334.923457 80.250471 
L 335.649429 82.805903 
L 336.3754 80.186156 
L 337.101372 81.968839 
L 337.827344 81.460929 
L 338.553315 75.747111 
L 339.279287 82.74848 
L 340.005259 82.672716 
L 340.73123 81.644894 
L 341.457202 80.828025 
L 342.183174 81.882037 
L 342.909146 81.238228 
L 343.635117 81.71505 
L 344.361089 80.837609 
L 345.087061 81.942395 
L 345.813032 80.779771 
L 346.539004 81.580191 
L 347.264976 85.592086 
L 347.990947 91.783224 
L 348.716919 82.571414 
L 349.442891 81.338737 
L 350.168863 81.577626 
L 350.894834 91.311603 
L 351.620806 81.880781 
L 352.346778 81.06301 
L 353.072749 81.034005 
L 354.524693 80.582853 
L 355.250664 80.844342 
L 355.976636 80.311433 
L 356.702608 81.746503 
L 357.42858 81.239085 
L 358.154551 82.188849 
L 358.880523 80.947906 
L 359.606495 81.586514 
L 360.332466 81.900652 
L 361.058438 80.615082 
L 361.78441 81.442228 
L 362.510382 79.6645 
L 363.236353 81.447277 
L 363.962325 82.202873 
L 364.688297 89.100691 
L 365.414268 82.09705 
L 366.14024 82.329411 
L 366.866212 80.451128 
L 367.592183 81.292273 
L 368.318155 81.58508 
L 369.044127 81.655349 
L 369.770099 81.443983 
L 370.49607 80.969697 
L 371.222042 81.302964 
L 371.948014 100.463555 
L 372.673985 81.115463 
L 373.399957 82.186238 
L 374.125929 81.307712 
L 374.8519 81.628704 
L 375.577872 80.121434 
L 376.303844 81.795992 
L 377.029816 81.330226 
L 377.755787 81.730591 
L 378.481759 84.047968 
L 379.207731 82.850163 
L 379.933702 82.610624 
L 380.659674 81.222698 
L 381.385646 53.562419 
L 382.111617 81.566444 
L 383.563561 80.90528 
L 384.289533 81.455095 
L 385.015504 80.961444 
L 385.741476 82.16224 
L 386.467448 82.218869 
L 387.193419 82.669935 
L 387.919391 81.362629 
L 388.645363 81.144194 
L 389.371335 81.791448 
L 390.097306 82.669973 
L 390.823278 82.18549 
L 391.54925 82.431835 
L 393.727165 79.849217 
L 394.453136 81.198177 
L 395.179108 81.352171 
L 395.90508 81.243612 
L 397.357023 81.898373 
L 398.082995 81.474462 
L 398.808967 80.633054 
L 399.534938 81.347002 
L 400.26091 81.55251 
L 400.986882 81.416855 
L 401.712853 82.027645 
L 402.438825 82.255582 
L 404.61674 81.460409 
L 405.342712 80.723763 
L 406.068684 81.846215 
L 406.794655 81.654066 
L 408.246599 81.707159 
L 409.698542 81.514792 
L 410.424514 81.670433 
L 411.150486 82.066387 
L 411.876457 81.913108 
L 412.602429 81.503789 
L 413.328401 81.407193 
L 414.054372 82.022941 
L 414.780344 82.046697 
L 415.506316 81.271607 
L 416.958259 81.766988 
L 417.684231 82.027406 
L 418.410203 81.870087 
L 419.136174 82.132715 
L 419.862146 81.364589 
L 420.588118 81.793208 
L 422.040061 81.443873 
L 422.766033 81.932409 
L 423.492005 81.567916 
L 424.217976 81.533356 
L 424.943948 80.978607 
L 426.395891 81.19603 
L 427.121863 81.202987 
L 427.847835 81.603594 
L 428.573806 81.627476 
L 429.299778 81.444089 
L 430.02575 81.567838 
L 432.929637 81.424391 
L 433.655608 81.403599 
L 434.38158 81.570867 
L 435.107552 81.448772 
L 435.833523 81.4669 
L 436.559495 80.89423 
L 437.285467 81.352112 
L 438.011439 81.244005 
L 438.73741 81.443792 
L 439.463382 81.22843 
L 440.189354 81.30444 
L 440.915325 81.200759 
L 441.641297 81.377232 
L 442.367269 81.389376 
L 443.819212 81.547206 
L 444.545184 81.486845 
L 445.271156 81.710211 
L 447.449071 81.411736 
L 448.175042 81.570263 
L 448.901014 81.34684 
L 449.626986 81.51887 
L 451.078929 81.311779 
L 451.804901 81.525425 
L 454.708788 81.470259 
L 455.434759 81.667667 
L 456.160731 81.463733 
L 456.886703 81.622566 
L 457.612675 81.462451 
L 458.338646 81.547502 
L 461.242533 81.383834 
L 464.14642 81.45291 
L 465.598363 81.393214 
L 467.050307 81.474098 
L 467.776278 81.453913 
L 467.776278 81.453913 
" style="fill:none;stroke:#1f77b4;stroke-linecap:square;stroke-width:1.5;"/>
   </g>
   <g id="line2d_2">
    <path clip-path="url(#peab23d9a86)" d="M 61.958097 80.828144 
L 62.684068 81.850822 
L 64.861983 81.903095 
L 65.587955 81.251537 
L 66.313927 80.751543 
L 67.039899 81.413746 
L 67.76587 79.786056 
L 68.491842 81.00887 
L 69.217814 81.605557 
L 69.943785 81.307664 
L 70.669757 81.506012 
L 71.395729 81.164117 
L 72.1217 81.952605 
L 73.573644 81.951134 
L 74.299616 82.239261 
L 75.025587 81.05824 
L 75.751559 81.681922 
L 76.477531 82.049998 
L 77.203502 81.440707 
L 77.929474 81.971801 
L 78.655446 82.152869 
L 79.381417 81.806161 
L 80.107389 80.960543 
L 80.833361 81.435012 
L 83.737248 81.312586 
L 84.463219 80.917605 
L 85.189191 80.976414 
L 85.915163 80.418383 
L 86.641134 81.849405 
L 87.367106 82.049633 
L 88.093078 81.499167 
L 88.81905 81.34204 
L 89.545021 80.993368 
L 90.996965 81.936947 
L 92.448908 81.929808 
L 93.17488 81.714647 
L 93.900852 81.819996 
L 94.626823 82.165508 
L 95.352795 81.844716 
L 96.078767 82.043591 
L 96.804738 81.120534 
L 97.53071 79.140109 
L 98.256682 80.80816 
L 98.982653 81.240351 
L 99.708625 81.386309 
L 100.434597 81.352947 
L 101.160569 79.866535 
L 101.88654 80.335903 
L 102.612512 81.892724 
L 103.338484 82.024644 
L 104.790427 81.55403 
L 105.516399 81.631402 
L 106.24237 82.099526 
L 107.694314 80.923974 
L 108.420286 81.398083 
L 109.146257 82.056723 
L 110.598201 80.903908 
L 113.502087 82.203202 
L 115.680003 81.177817 
L 116.405974 78.850578 
L 117.131946 80.761215 
L 117.857918 81.984688 
L 118.583889 80.089489 
L 119.309861 80.084657 
L 120.035833 81.282833 
L 120.761805 81.355157 
L 122.213748 81.25976 
L 122.93972 82.068305 
L 123.665691 82.215928 
L 124.391663 81.322211 
L 125.117635 79.151168 
L 125.843606 81.221521 
L 126.569578 81.387773 
L 127.29555 80.552111 
L 128.021522 81.804354 
L 128.747493 81.920265 
L 129.473465 80.004427 
L 130.199437 79.455412 
L 130.925408 81.581788 
L 131.65138 81.600225 
L 132.377352 81.409238 
L 133.103323 81.943707 
L 133.829295 80.949617 
L 134.555267 81.093145 
L 135.281239 81.867228 
L 136.00721 80.503187 
L 136.733182 81.444065 
L 137.459154 82.006689 
L 138.185125 81.472126 
L 138.911097 81.6863 
L 139.637069 81.359992 
L 140.36304 81.362361 
L 141.089012 81.562328 
L 141.814984 81.579633 
L 142.540956 82.021128 
L 143.266927 82.185656 
L 143.992899 82.05993 
L 144.718871 81.767497 
L 145.444842 81.757975 
L 146.170814 81.615521 
L 146.896786 81.664497 
L 148.348729 82.20327 
L 149.074701 82.041078 
L 149.800673 81.703395 
L 150.526644 81.728947 
L 151.252616 81.976779 
L 151.978588 82.062725 
L 152.704559 81.85958 
L 153.430531 81.971222 
L 154.156503 82.316368 
L 154.882475 82.335199 
L 155.608446 81.596038 
L 156.334418 80.101194 
L 157.06039 80.955046 
L 158.512333 81.483719 
L 159.238305 81.829966 
L 159.964276 79.473888 
L 160.690248 80.460636 
L 161.41622 81.713374 
L 162.142192 79.961508 
L 162.868163 79.692363 
L 163.594135 81.265727 
L 164.320107 81.865281 
L 165.77205 81.584337 
L 166.498022 82.133027 
L 167.223993 82.239427 
L 167.949965 81.353845 
L 169.401909 81.268173 
L 170.12788 77.259033 
L 170.853852 77.40354 
L 171.579824 77.675041 
L 173.031767 81.838738 
L 173.757739 81.608061 
L 174.483711 81.833529 
L 175.209682 81.729087 
L 175.935654 80.699213 
L 176.661626 81.458584 
L 177.387597 80.574414 
L 178.113569 81.345356 
L 178.839541 80.091776 
L 179.565512 79.82913 
L 180.291484 80.47618 
L 181.017456 79.282742 
L 181.743428 79.435519 
L 182.469399 79.216718 
L 183.921343 81.998032 
L 184.647314 81.67035 
L 185.373286 80.467759 
L 186.099258 80.455573 
L 186.825229 81.348143 
L 187.551201 81.589243 
L 188.277173 78.428364 
L 189.003145 80.304235 
L 190.455088 80.798815 
L 191.18106 80.303309 
L 191.907031 81.717813 
L 192.633003 81.574834 
L 193.358975 80.18259 
L 194.810918 81.972892 
L 195.53689 81.400578 
L 196.988833 82.056944 
L 197.714805 80.962616 
L 198.440777 80.640176 
L 199.89272 81.708159 
L 200.618692 82.099007 
L 202.070635 82.07604 
L 202.796607 81.744199 
L 203.522579 81.946843 
L 204.24855 81.951483 
L 204.974522 82.111446 
L 206.426465 82.097644 
L 207.152437 82.125154 
L 207.878409 81.644607 
L 209.330352 81.385979 
L 210.056324 81.108489 
L 210.782296 81.930339 
L 211.508267 81.710947 
L 212.234239 79.653096 
L 212.960211 81.749554 
L 214.412154 81.661282 
L 215.138126 81.951871 
L 215.864098 81.961885 
L 216.590069 82.184746 
L 217.316041 82.017668 
L 218.042013 80.693434 
L 218.767984 81.683189 
L 219.493956 80.524602 
L 220.219928 81.011496 
L 220.945899 82.101172 
L 221.671871 82.189563 
L 222.397843 81.975136 
L 223.123815 81.934663 
L 223.849786 82.096504 
L 224.575758 81.988224 
L 226.027701 82.347391 
L 226.753673 82.311817 
L 227.479645 81.792612 
L 228.205617 82.31825 
L 230.383532 82.441382 
L 231.835475 81.91923 
L 232.561447 82.337484 
L 233.287418 82.22925 
L 234.01339 82.317807 
L 234.739362 81.946284 
L 235.465334 81.835335 
L 236.191305 77.238107 
L 236.917277 78.723965 
L 237.643249 81.83545 
L 238.36922 82.096446 
L 239.095192 80.815097 
L 239.821164 78.288148 
L 240.547135 81.643682 
L 241.273107 82.067815 
L 241.999079 82.305151 
L 242.725051 82.127734 
L 243.451022 80.568705 
L 244.176994 74.287529 
L 244.902966 81.353821 
L 245.628937 82.02669 
L 247.080881 82.187633 
L 248.532824 82.079566 
L 249.258796 78.151432 
L 249.984768 81.325328 
L 250.710739 81.589283 
L 251.436711 81.688385 
L 252.888654 81.39867 
L 253.614626 81.641086 
L 254.340598 81.541383 
L 255.06657 81.803283 
L 255.792541 81.335544 
L 257.244485 81.828276 
L 257.970456 81.192323 
L 258.696428 81.933223 
L 259.4224 82.162781 
L 260.148371 81.956158 
L 260.874343 82.133019 
L 263.052258 82.096417 
L 264.504202 82.22575 
L 265.230173 81.978892 
L 265.956145 81.216132 
L 266.682117 81.28422 
L 267.408088 80.72955 
L 268.13406 81.82511 
L 268.860032 81.0663 
L 269.586004 82.274313 
L 270.311975 80.545597 
L 271.037947 78.487657 
L 271.763919 81.994342 
L 272.48989 80.653187 
L 273.215862 81.871441 
L 273.941834 81.981046 
L 274.667805 81.416469 
L 275.393777 81.785726 
L 276.119749 82.380924 
L 276.845721 82.234166 
L 277.571692 80.303713 
L 278.297664 80.304929 
L 279.023636 81.586696 
L 279.749607 80.399669 
L 280.475579 80.352542 
L 281.201551 82.168744 
L 281.927523 78.212294 
L 282.653494 90.37164 
L 283.379466 78.945698 
L 284.105438 81.966499 
L 284.831409 80.67059 
L 285.557381 81.699686 
L 286.283353 81.245972 
L 287.009324 79.255795 
L 287.735296 81.811445 
L 288.461268 80.083119 
L 289.18724 81.104994 
L 289.913211 81.72807 
L 290.639183 81.153011 
L 292.091126 76.506945 
L 292.817098 47.276105 
L 293.54307 281.76358 
L 294.269041 101.311245 
L 294.995013 77.305339 
L 295.720985 87.064917 
L 296.446957 78.436154 
L 297.172928 76.214426 
L 297.8989 80.218611 
L 298.624872 76.386961 
L 299.350843 81.074622 
L 300.076815 89.228269 
L 300.802787 88.694193 
L 301.528758 86.878644 
L 302.25473 67.914629 
L 302.980702 84.071225 
L 303.706674 82.272581 
L 304.432645 81.026826 
L 305.158617 59.290018 
L 305.884589 262.588313 
L 306.61056 83.787822 
L 307.336532 84.954823 
L 308.062504 80.497932 
L 308.788476 81.171254 
L 309.514447 80.438123 
L 310.240419 81.377511 
L 310.966391 81.928322 
L 311.692362 80.882255 
L 312.418334 83.993864 
L 313.144306 82.574313 
L 313.870277 81.967167 
L 314.596249 80.698104 
L 315.322221 86.123489 
L 316.048193 87.177654 
L 316.774164 80.845003 
L 317.500136 84.455858 
L 318.226108 83.095794 
L 318.952079 83.908448 
L 319.678051 88.746514 
L 320.404023 82.371877 
L 321.129994 74.803917 
L 321.855966 82.377432 
L 322.581938 83.04568 
L 323.30791 80.214011 
L 324.759853 83.052043 
L 325.485825 82.84898 
L 326.211796 67.184668 
L 326.937768 81.474305 
L 327.66374 81.543466 
L 328.389711 83.997025 
L 329.115683 82.66738 
L 329.841655 82.851037 
L 330.567627 85.085652 
L 331.293598 73.306054 
L 332.01957 80.603766 
L 333.471513 83.876406 
L 334.197485 80.996399 
L 334.923457 83.162068 
L 335.649429 86.12668 
L 336.3754 84.980762 
L 337.101372 82.914616 
L 337.827344 83.064557 
L 338.553315 86.324374 
L 339.279287 82.251996 
L 340.005259 82.655558 
L 340.73123 82.356916 
L 341.457202 82.903433 
L 342.183174 80.971506 
L 342.909146 79.919059 
L 343.635117 83.118723 
L 344.361089 83.599842 
L 345.087061 80.798474 
L 345.813032 80.796658 
L 346.539004 82.949992 
L 347.264976 81.125744 
L 347.990947 46.567216 
L 348.716919 83.555117 
L 349.442891 81.008034 
L 350.168863 82.637502 
L 350.894834 62.492757 
L 351.620806 81.899118 
L 352.346778 82.482348 
L 353.072749 82.060341 
L 353.798721 83.974992 
L 354.524693 79.586719 
L 355.250664 80.975335 
L 355.976636 83.588716 
L 356.702608 80.240641 
L 357.42858 81.182474 
L 358.154551 83.388354 
L 358.880523 76.54346 
L 359.606495 81.652887 
L 360.332466 81.40467 
L 361.058438 80.528395 
L 361.78441 81.245473 
L 362.510382 83.621917 
L 363.236353 81.465315 
L 363.962325 81.348821 
L 364.688297 106.586134 
L 365.414268 83.466107 
L 366.14024 82.437667 
L 366.866212 86.363812 
L 367.592183 82.238504 
L 368.318155 80.695752 
L 369.044127 81.684031 
L 369.770099 81.184036 
L 370.49607 81.182252 
L 371.222042 81.467798 
L 371.948014 85.818942 
L 372.673985 82.631504 
L 373.399957 81.755667 
L 374.125929 82.906898 
L 374.8519 81.519151 
L 375.577872 77.740584 
L 376.303844 82.084628 
L 377.029816 81.57565 
L 377.755787 80.414212 
L 378.481759 85.934113 
L 379.207731 85.101457 
L 379.933702 81.730693 
L 380.659674 82.116765 
L 381.385646 58.505585 
L 382.111617 81.382642 
L 382.837589 81.572844 
L 383.563561 81.3966 
L 384.289533 82.095424 
L 385.015504 81.26737 
L 385.741476 81.448533 
L 386.467448 81.92681 
L 387.193419 80.264178 
L 387.919391 81.53489 
L 388.645363 82.070603 
L 389.371335 81.068671 
L 390.097306 82.14904 
L 390.823278 82.124255 
L 391.54925 82.504254 
L 392.275221 81.63041 
L 393.001193 81.613931 
L 393.727165 79.223985 
L 394.453136 81.97693 
L 395.179108 82.189619 
L 395.90508 82.028574 
L 396.631052 81.631136 
L 398.082995 81.587582 
L 398.808967 82.228213 
L 399.534938 81.500584 
L 400.26091 82.210123 
L 400.986882 81.696875 
L 401.712853 82.064372 
L 403.164797 82.119763 
L 403.890769 81.747688 
L 404.61674 82.275336 
L 405.342712 81.760158 
L 406.068684 81.99508 
L 406.794655 81.7397 
L 407.520627 82.005351 
L 408.246599 81.826472 
L 408.97257 82.058521 
L 409.698542 81.678781 
L 411.876457 81.67556 
L 412.602429 81.592855 
L 414.780344 81.92702 
L 415.506316 81.296517 
L 416.232288 82.073563 
L 416.958259 81.92442 
L 417.684231 82.109207 
L 418.410203 81.961741 
L 419.136174 82.133963 
L 419.862146 81.398612 
L 420.588118 81.933039 
L 421.314089 81.489803 
L 422.766033 81.873257 
L 423.492005 81.598725 
L 424.217976 81.622189 
L 424.943948 81.109791 
L 425.66992 80.74 
L 426.395891 81.610244 
L 427.121863 80.984201 
L 427.847835 81.501434 
L 431.477693 81.39055 
L 432.203665 81.568536 
L 432.929637 81.252885 
L 433.655608 81.650672 
L 434.38158 81.491194 
L 435.107552 81.524038 
L 436.559495 81.369228 
L 438.73741 81.489934 
L 441.641297 81.438327 
L 446.723099 81.431545 
L 448.175042 81.467681 
L 448.901014 81.414599 
L 449.626986 81.499387 
L 451.078929 81.383375 
L 451.804901 81.088251 
L 452.530873 81.386216 
L 453.256844 81.549059 
L 454.708788 81.218431 
L 455.434759 81.449395 
L 456.886703 81.291581 
L 458.338646 81.426 
L 461.968505 81.396986 
L 462.694476 81.183182 
L 463.420448 81.418294 
L 464.14642 81.487187 
L 465.598363 81.173284 
L 466.324335 81.433841 
L 467.050307 81.356225 
L 467.776278 81.403997 
L 467.776278 81.403997 
" style="fill:none;stroke:#ff7f0e;stroke-linecap:square;stroke-width:1.5;"/>
   </g>
   <g id="line2d_3">
    <path clip-path="url(#peab23d9a86)" d="M 61.958097 81.358764 
L 62.684068 82.087308 
L 64.136012 81.927604 
L 64.861983 81.508094 
L 65.587955 81.327074 
L 66.313927 79.511662 
L 67.039899 80.177223 
L 67.76587 80.50474 
L 68.491842 81.801949 
L 69.943785 81.635767 
L 70.669757 81.757046 
L 71.395729 81.438084 
L 72.1217 82.042068 
L 72.847672 80.883394 
L 73.573644 81.467507 
L 74.299616 81.806452 
L 75.025587 81.21904 
L 75.751559 81.536334 
L 76.477531 81.600195 
L 77.929474 81.222194 
L 78.655446 81.775039 
L 79.381417 81.133227 
L 80.107389 81.218128 
L 80.833361 81.98434 
L 81.559333 81.991592 
L 82.285304 81.546069 
L 83.737248 82.089955 
L 84.463219 81.641457 
L 85.189191 80.258415 
L 85.915163 80.19434 
L 86.641134 82.01561 
L 87.367106 82.098595 
L 88.093078 81.626459 
L 88.81905 79.405464 
L 89.545021 80.888252 
L 90.996965 80.876695 
L 91.722936 81.673771 
L 92.448908 81.52715 
L 93.17488 81.244068 
L 93.900852 79.244465 
L 94.626823 81.186597 
L 95.352795 81.755439 
L 96.078767 81.444838 
L 96.804738 81.742923 
L 97.53071 81.485741 
L 98.256682 81.601266 
L 98.982653 80.969484 
L 99.708625 79.991321 
L 100.434597 80.394613 
L 101.160569 81.004961 
L 101.88654 80.261012 
L 102.612512 81.35996 
L 103.338484 81.91828 
L 104.064455 81.594949 
L 104.790427 80.716333 
L 105.516399 81.293099 
L 106.24237 82.079427 
L 107.694314 81.62572 
L 108.420286 81.977548 
L 109.146257 82.190508 
L 109.872229 81.634011 
L 110.598201 81.591666 
L 111.324172 80.925255 
L 112.776116 81.99756 
L 113.502087 82.17529 
L 114.228059 80.656415 
L 114.954031 80.900239 
L 115.680003 79.93522 
L 116.405974 79.539511 
L 117.131946 81.76973 
L 117.857918 81.907808 
L 118.583889 81.057898 
L 120.035833 81.893193 
L 120.761805 80.967416 
L 121.487776 80.589564 
L 122.213748 81.087283 
L 122.93972 82.118791 
L 123.665691 82.237625 
L 124.391663 82.15397 
L 125.117635 81.861572 
L 125.843606 81.732447 
L 128.021522 82.191379 
L 128.747493 82.105686 
L 130.199437 80.970796 
L 130.925408 81.740258 
L 132.377352 81.585607 
L 133.103323 81.89021 
L 133.829295 81.449831 
L 134.555267 81.593798 
L 135.281239 82.007585 
L 136.00721 81.899324 
L 136.733182 82.156184 
L 137.459154 82.171112 
L 138.185125 81.757697 
L 138.911097 81.932023 
L 140.36304 81.658017 
L 141.089012 81.932448 
L 141.814984 81.968336 
L 142.540956 82.258006 
L 143.266927 82.177077 
L 143.992899 81.777789 
L 145.444842 77.291683 
L 146.170814 81.037684 
L 146.896786 79.8607 
L 148.348729 82.18094 
L 149.800673 81.126791 
L 150.526644 81.353526 
L 151.252616 80.209018 
L 151.978588 80.914272 
L 152.704559 81.298094 
L 153.430531 81.439907 
L 154.156503 82.167217 
L 154.882475 82.134506 
L 155.608446 81.089701 
L 156.334418 80.816187 
L 157.786361 81.440131 
L 159.238305 81.391656 
L 160.690248 81.461929 
L 162.142192 81.84288 
L 162.868163 81.71926 
L 163.594135 78.149834 
L 164.320107 81.23068 
L 165.046078 81.316934 
L 165.77205 79.075555 
L 166.498022 81.308549 
L 167.223993 81.971563 
L 167.949965 81.7025 
L 169.401909 81.700443 
L 170.12788 81.211208 
L 170.853852 80.860109 
L 171.579824 80.713292 
L 172.305795 78.590047 
L 173.031767 81.658019 
L 173.757739 81.062242 
L 174.483711 81.452959 
L 175.209682 80.985346 
L 175.935654 79.407293 
L 176.661626 81.203606 
L 177.387597 81.201888 
L 178.113569 81.376617 
L 178.839541 81.083509 
L 179.565512 81.416503 
L 180.291484 79.322052 
L 181.743428 80.081529 
L 183.195371 80.813304 
L 183.921343 82.010414 
L 185.373286 81.080241 
L 186.825229 81.545807 
L 187.551201 81.468617 
L 188.277173 80.265311 
L 189.003145 81.125104 
L 189.729116 79.064065 
L 190.455088 77.833451 
L 191.18106 80.494989 
L 191.907031 80.341405 
L 192.633003 81.569773 
L 193.358975 81.088689 
L 194.084946 81.629538 
L 194.810918 81.552549 
L 195.53689 81.64847 
L 196.262862 81.482661 
L 197.714805 81.495073 
L 198.440777 80.605184 
L 199.166748 80.923959 
L 199.89272 81.370366 
L 200.618692 81.276074 
L 202.070635 81.675027 
L 202.796607 81.343797 
L 203.522579 81.568542 
L 204.24855 82.026584 
L 204.974522 81.707646 
L 205.700494 81.76173 
L 206.426465 80.935431 
L 207.152437 81.444544 
L 207.878409 81.520889 
L 208.604381 81.241113 
L 209.330352 81.191528 
L 210.782296 81.60753 
L 211.508267 81.421241 
L 212.234239 81.390111 
L 212.960211 82.082549 
L 213.686182 80.237287 
L 214.412154 79.858483 
L 215.138126 79.905412 
L 216.590069 81.743339 
L 217.316041 80.863365 
L 218.042013 76.981736 
L 218.767984 81.252448 
L 219.493956 81.229192 
L 220.219928 79.768811 
L 220.945899 81.261941 
L 221.671871 81.063646 
L 222.397843 81.333523 
L 223.123815 80.543791 
L 223.849786 81.578428 
L 224.575758 79.525065 
L 225.30173 81.065228 
L 226.027701 82.13924 
L 226.753673 81.750971 
L 227.479645 80.371858 
L 228.205617 81.916094 
L 228.931588 82.158142 
L 229.65756 81.971865 
L 230.383532 81.475222 
L 231.109503 81.91293 
L 231.835475 78.868204 
L 232.561447 81.035948 
L 233.287418 80.360709 
L 234.01339 81.868169 
L 234.739362 81.272013 
L 235.465334 81.267472 
L 236.191305 80.772872 
L 236.917277 79.475509 
L 237.643249 80.856256 
L 238.36922 81.763227 
L 239.095192 80.689596 
L 239.821164 78.771277 
L 240.547135 80.290816 
L 241.273107 80.980723 
L 241.999079 81.496968 
L 242.725051 81.795736 
L 244.176994 80.976884 
L 244.902966 79.758525 
L 245.628937 78.983404 
L 246.354909 80.167479 
L 247.080881 79.846609 
L 247.806852 81.66123 
L 248.532824 81.944216 
L 249.258796 80.988238 
L 250.710739 81.649991 
L 251.436711 81.415115 
L 252.888654 81.498336 
L 254.340598 81.427926 
L 256.518513 81.667868 
L 257.244485 81.351758 
L 257.970456 81.95784 
L 258.696428 82.246505 
L 259.4224 80.232205 
L 260.148371 79.561183 
L 260.874343 81.972152 
L 261.600315 81.969258 
L 262.326287 81.384449 
L 263.052258 81.942573 
L 263.77823 81.901237 
L 265.230173 81.334263 
L 266.682117 81.460962 
L 267.408088 81.874678 
L 268.860032 81.583774 
L 269.586004 81.406993 
L 270.311975 81.07864 
L 271.037947 81.105735 
L 271.763919 82.105784 
L 272.48989 81.867192 
L 273.215862 81.884944 
L 273.941834 81.611174 
L 274.667805 78.994596 
L 275.393777 80.055981 
L 276.119749 82.004704 
L 276.845721 82.379726 
L 277.571692 81.878692 
L 278.297664 81.191994 
L 279.023636 79.509204 
L 279.749607 81.058499 
L 280.475579 78.718157 
L 281.201551 77.409243 
L 281.927523 80.447962 
L 282.653494 85.319496 
L 283.379466 81.345307 
L 284.105438 82.256845 
L 284.831409 81.849183 
L 285.557381 82.146268 
L 287.009324 81.888785 
L 287.735296 82.215927 
L 288.461268 82.037975 
L 289.913211 82.413573 
L 290.639183 82.040114 
L 291.365155 81.881857 
L 292.091126 82.220055 
L 292.817098 84.197458 
L 293.54307 84.527837 
L 294.269041 84.213497 
L 294.995013 80.117901 
L 295.720985 77.884394 
L 296.446957 83.062994 
L 297.172928 92.622538 
L 297.8989 81.485589 
L 298.624872 65.822013 
L 299.350843 80.527629 
L 300.076815 81.616638 
L 300.802787 88.102691 
L 301.528758 86.280287 
L 302.25473 82.343249 
L 302.980702 82.184325 
L 303.706674 82.275973 
L 304.432645 81.185425 
L 305.158617 60.133138 
L 305.884589 146.960629 
L 306.61056 82.188467 
L 307.336532 82.018477 
L 308.062504 74.779281 
L 308.788476 82.095827 
L 309.514447 81.122392 
L 310.240419 81.537304 
L 310.966391 82.133073 
L 311.692362 81.419513 
L 312.418334 81.31418 
L 313.144306 82.880451 
L 313.870277 83.066945 
L 314.596249 80.752782 
L 315.322221 91.667806 
L 316.048193 81.370023 
L 316.774164 82.19653 
L 317.500136 81.761957 
L 318.226108 81.572949 
L 318.952079 101.72292 
L 319.678051 76.011319 
L 320.404023 82.42401 
L 321.129994 75.708506 
L 321.855966 82.409044 
L 322.581938 82.441333 
L 323.30791 83.478739 
L 324.033881 82.629414 
L 324.759853 82.958856 
L 325.485825 82.785511 
L 326.211796 71.569656 
L 326.937768 81.588583 
L 327.66374 82.400493 
L 328.389711 83.530092 
L 329.115683 82.787869 
L 329.841655 82.591749 
L 330.567627 81.316801 
L 331.293598 94.109191 
L 332.01957 85.517897 
L 332.745542 81.726748 
L 333.471513 83.029691 
L 334.197485 82.573526 
L 334.923457 80.234059 
L 335.649429 82.573924 
L 336.3754 80.693969 
L 337.101372 81.843163 
L 337.827344 81.62398 
L 338.553315 78.8193 
L 339.279287 81.075053 
L 340.005259 81.076542 
L 340.73123 81.407706 
L 341.457202 81.331855 
L 342.909146 81.767029 
L 343.635117 81.325777 
L 344.361089 83.262237 
L 345.087061 81.689951 
L 345.813032 81.339728 
L 346.539004 82.695527 
L 347.264976 84.535688 
L 347.990947 80.915246 
L 348.716919 82.684465 
L 349.442891 81.345847 
L 350.168863 82.488016 
L 350.894834 71.577191 
L 351.620806 82.60122 
L 352.346778 81.913942 
L 353.072749 82.992285 
L 353.798721 82.198859 
L 354.524693 80.317546 
L 355.250664 81.016098 
L 355.976636 82.476443 
L 356.702608 80.092345 
L 357.42858 81.845766 
L 358.154551 81.538711 
L 358.880523 77.887195 
L 359.606495 81.364256 
L 360.332466 81.421069 
L 361.058438 80.906198 
L 361.78441 81.510032 
L 362.510382 78.846201 
L 363.236353 81.349886 
L 363.962325 81.509223 
L 364.688297 102.123804 
L 365.414268 83.745721 
L 366.14024 82.426752 
L 366.866212 83.551044 
L 367.592183 83.001735 
L 368.318155 85.047548 
L 369.044127 81.245369 
L 369.770099 81.106975 
L 370.49607 81.209679 
L 371.222042 81.169816 
L 371.948014 106.549237 
L 372.673985 80.177415 
L 373.399957 87.150338 
L 374.8519 81.120389 
L 375.577872 76.419671 
L 376.303844 82.021685 
L 377.029816 82.326145 
L 377.755787 79.650442 
L 378.481759 84.510425 
L 379.207731 81.768233 
L 379.933702 82.255316 
L 380.659674 81.262659 
L 381.385646 49.03536 
L 382.111617 81.204529 
L 382.837589 81.124216 
L 383.563561 81.775852 
L 385.015504 81.046376 
L 385.741476 81.618414 
L 386.467448 81.135643 
L 387.193419 80.353762 
L 387.919391 81.314725 
L 388.645363 80.938542 
L 389.371335 81.259259 
L 390.097306 81.171999 
L 390.823278 81.386273 
L 391.54925 81.272698 
L 392.275221 81.572195 
L 393.001193 81.193004 
L 393.727165 77.443281 
L 394.453136 81.288601 
L 395.179108 81.351326 
L 395.90508 81.035646 
L 396.631052 81.358881 
L 397.357023 81.550242 
L 398.082995 80.588469 
L 398.808967 80.050474 
L 399.534938 81.24153 
L 400.26091 81.493079 
L 400.986882 81.526 
L 401.712853 82.004877 
L 402.438825 81.981237 
L 403.164797 81.826087 
L 403.890769 81.493558 
L 404.61674 81.470887 
L 405.342712 80.69374 
L 406.068684 81.530166 
L 406.794655 82.081269 
L 407.520627 81.664471 
L 408.246599 81.820127 
L 408.97257 81.597619 
L 409.698542 81.824298 
L 410.424514 81.811868 
L 411.150486 81.404857 
L 411.876457 80.68053 
L 412.602429 81.843425 
L 413.328401 81.4981 
L 414.054372 81.618742 
L 415.506316 81.394918 
L 416.232288 81.743113 
L 417.684231 81.48317 
L 419.136174 81.636189 
L 419.862146 81.482396 
L 422.040061 81.33043 
L 422.766033 81.898636 
L 423.492005 81.562611 
L 424.217976 81.594453 
L 424.943948 80.835587 
L 425.66992 81.298473 
L 426.395891 80.888556 
L 427.121863 81.456472 
L 427.847835 81.607715 
L 428.573806 81.484455 
L 429.299778 81.562037 
L 430.751722 81.335153 
L 432.203665 81.596713 
L 432.929637 81.333514 
L 433.655608 81.60594 
L 434.38158 81.442658 
L 435.107552 81.512766 
L 436.559495 81.397999 
L 437.285467 81.018415 
L 438.011439 81.446647 
L 438.73741 81.700479 
L 439.463382 81.51411 
L 440.189354 81.685957 
L 440.915325 81.489724 
L 441.641297 81.684787 
L 443.093241 81.217443 
L 443.819212 81.530636 
L 445.271156 81.450965 
L 445.997127 81.553699 
L 446.723099 81.465289 
L 447.449071 81.516753 
L 448.175042 81.436107 
L 449.626986 81.448491 
L 451.078929 81.427192 
L 451.804901 81.126828 
L 453.256844 81.579878 
L 454.708788 81.268661 
L 455.434759 81.471758 
L 456.160731 81.440848 
L 456.886703 81.567545 
L 457.612675 81.419015 
L 458.338646 81.584329 
L 459.064618 81.431148 
L 463.420448 81.434624 
L 464.14642 81.5529 
L 465.598363 81.243049 
L 466.324335 81.430065 
L 467.050307 81.241101 
L 467.776278 81.411997 
L 467.776278 81.411997 
" style="fill:none;stroke:#2ca02c;stroke-linecap:square;stroke-width:1.5;"/>
   </g>
   <g id="line2d_4">
    <path clip-path="url(#peab23d9a86)" d="M 61.958097 81.446116 
L 467.776278 81.446116 
L 467.776278 81.446116 
" style="fill:none;stroke:#000000;stroke-dasharray:3.7,1.6;stroke-dashoffset:0;"/>
   </g>
   <g id="matplotlib.axis_1">
    <g id="xtick_1">
     <g id="line2d_5">
      <defs>
       <path d="M 0 0 
L 0 3.5 
" id="m1ca121de6d" style="stroke:#000000;stroke-width:0.8;"/>
      </defs>
      <g>
       <use style="stroke:#000000;stroke-width:0.8;" x="83.011276" xlink:href="#m1ca121de6d" y="294.118125"/>
      </g>
     </g>
     <g id="text_1">
      <!-- 100 -->
      <defs>
       <path d="M 12.40625 8.296875 
L 28.515625 8.296875 
L 28.515625 63.921875 
L 10.984375 60.40625 
L 10.984375 69.390625 
L 28.421875 72.90625 
L 38.28125 72.90625 
L 38.28125 8.296875 
L 54.390625 8.296875 
L 54.390625 0 
L 12.40625 0 
z
" id="DejaVuSans-49"/>
       <path d="M 31.78125 66.40625 
Q 24.171875 66.40625 20.328125 58.90625 
Q 16.5 51.421875 16.5 36.375 
Q 16.5 21.390625 20.328125 13.890625 
Q 24.171875 6.390625 31.78125 6.390625 
Q 39.453125 6.390625 43.28125 13.890625 
Q 47.125 21.390625 47.125 36.375 
Q 47.125 51.421875 43.28125 58.90625 
Q 39.453125 66.40625 31.78125 66.40625 
z
M 31.78125 74.21875 
Q 44.046875 74.21875 50.515625 64.515625 
Q 56.984375 54.828125 56.984375 36.375 
Q 56.984375 17.96875 50.515625 8.265625 
Q 44.046875 -1.421875 31.78125 -1.421875 
Q 19.53125 -1.421875 13.0625 8.265625 
Q 6.59375 17.96875 6.59375 36.375 
Q 6.59375 54.828125 13.0625 64.515625 
Q 19.53125 74.21875 31.78125 74.21875 
z
" id="DejaVuSans-48"/>
      </defs>
      <g transform="translate(73.467526 308.716563)scale(0.1 -0.1)">
       <use xlink:href="#DejaVuSans-49"/>
       <use x="63.623047" xlink:href="#DejaVuSans-48"/>
       <use x="127.246094" xlink:href="#DejaVuSans-48"/>
      </g>
     </g>
    </g>
    <g id="xtick_2">
     <g id="line2d_6">
      <g>
       <use style="stroke:#000000;stroke-width:0.8;" x="155.608446" xlink:href="#m1ca121de6d" y="294.118125"/>
      </g>
     </g>
     <g id="text_2">
      <!-- 200 -->
      <defs>
       <path d="M 19.1875 8.296875 
L 53.609375 8.296875 
L 53.609375 0 
L 7.328125 0 
L 7.328125 8.296875 
Q 12.9375 14.109375 22.625 23.890625 
Q 32.328125 33.6875 34.8125 36.53125 
Q 39.546875 41.84375 41.421875 45.53125 
Q 43.3125 49.21875 43.3125 52.78125 
Q 43.3125 58.59375 39.234375 62.25 
Q 35.15625 65.921875 28.609375 65.921875 
Q 23.96875 65.921875 18.8125 64.3125 
Q 13.671875 62.703125 7.8125 59.421875 
L 7.8125 69.390625 
Q 13.765625 71.78125 18.9375 73 
Q 24.125 74.21875 28.421875 74.21875 
Q 39.75 74.21875 46.484375 68.546875 
Q 53.21875 62.890625 53.21875 53.421875 
Q 53.21875 48.921875 51.53125 44.890625 
Q 49.859375 40.875 45.40625 35.40625 
Q 44.1875 33.984375 37.640625 27.21875 
Q 31.109375 20.453125 19.1875 8.296875 
z
" id="DejaVuSans-50"/>
      </defs>
      <g transform="translate(146.064696 308.716563)scale(0.1 -0.1)">
       <use xlink:href="#DejaVuSans-50"/>
       <use x="63.623047" xlink:href="#DejaVuSans-48"/>
       <use x="127.246094" xlink:href="#DejaVuSans-48"/>
      </g>
     </g>
    </g>
    <g id="xtick_3">
     <g id="line2d_7">
      <g>
       <use style="stroke:#000000;stroke-width:0.8;" x="228.205617" xlink:href="#m1ca121de6d" y="294.118125"/>
      </g>
     </g>
     <g id="text_3">
      <!-- 300 -->
      <defs>
       <path d="M 40.578125 39.3125 
Q 47.65625 37.796875 51.625 33 
Q 55.609375 28.21875 55.609375 21.1875 
Q 55.609375 10.40625 48.1875 4.484375 
Q 40.765625 -1.421875 27.09375 -1.421875 
Q 22.515625 -1.421875 17.65625 -0.515625 
Q 12.796875 0.390625 7.625 2.203125 
L 7.625 11.71875 
Q 11.71875 9.328125 16.59375 8.109375 
Q 21.484375 6.890625 26.8125 6.890625 
Q 36.078125 6.890625 40.9375 10.546875 
Q 45.796875 14.203125 45.796875 21.1875 
Q 45.796875 27.640625 41.28125 31.265625 
Q 36.765625 34.90625 28.71875 34.90625 
L 20.21875 34.90625 
L 20.21875 43.015625 
L 29.109375 43.015625 
Q 36.375 43.015625 40.234375 45.921875 
Q 44.09375 48.828125 44.09375 54.296875 
Q 44.09375 59.90625 40.109375 62.90625 
Q 36.140625 65.921875 28.71875 65.921875 
Q 24.65625 65.921875 20.015625 65.03125 
Q 15.375 64.15625 9.8125 62.3125 
L 9.8125 71.09375 
Q 15.4375 72.65625 20.34375 73.4375 
Q 25.25 74.21875 29.59375 74.21875 
Q 40.828125 74.21875 47.359375 69.109375 
Q 53.90625 64.015625 53.90625 55.328125 
Q 53.90625 49.265625 50.4375 45.09375 
Q 46.96875 40.921875 40.578125 39.3125 
z
" id="DejaVuSans-51"/>
      </defs>
      <g transform="translate(218.661867 308.716563)scale(0.1 -0.1)">
       <use xlink:href="#DejaVuSans-51"/>
       <use x="63.623047" xlink:href="#DejaVuSans-48"/>
       <use x="127.246094" xlink:href="#DejaVuSans-48"/>
      </g>
     </g>
    </g>
    <g id="xtick_4">
     <g id="line2d_8">
      <g>
       <use style="stroke:#000000;stroke-width:0.8;" x="300.802787" xlink:href="#m1ca121de6d" y="294.118125"/>
      </g>
     </g>
     <g id="text_4">
      <!-- 400 -->
      <defs>
       <path d="M 37.796875 64.3125 
L 12.890625 25.390625 
L 37.796875 25.390625 
z
M 35.203125 72.90625 
L 47.609375 72.90625 
L 47.609375 25.390625 
L 58.015625 25.390625 
L 58.015625 17.1875 
L 47.609375 17.1875 
L 47.609375 0 
L 37.796875 0 
L 37.796875 17.1875 
L 4.890625 17.1875 
L 4.890625 26.703125 
z
" id="DejaVuSans-52"/>
      </defs>
      <g transform="translate(291.259037 308.716563)scale(0.1 -0.1)">
       <use xlink:href="#DejaVuSans-52"/>
       <use x="63.623047" xlink:href="#DejaVuSans-48"/>
       <use x="127.246094" xlink:href="#DejaVuSans-48"/>
      </g>
     </g>
    </g>
    <g id="xtick_5">
     <g id="line2d_9">
      <g>
       <use style="stroke:#000000;stroke-width:0.8;" x="373.399957" xlink:href="#m1ca121de6d" y="294.118125"/>
      </g>
     </g>
     <g id="text_5">
      <!-- 500 -->
      <defs>
       <path d="M 10.796875 72.90625 
L 49.515625 72.90625 
L 49.515625 64.59375 
L 19.828125 64.59375 
L 19.828125 46.734375 
Q 21.96875 47.46875 24.109375 47.828125 
Q 26.265625 48.1875 28.421875 48.1875 
Q 40.625 48.1875 47.75 41.5 
Q 54.890625 34.8125 54.890625 23.390625 
Q 54.890625 11.625 47.5625 5.09375 
Q 40.234375 -1.421875 26.90625 -1.421875 
Q 22.3125 -1.421875 17.546875 -0.640625 
Q 12.796875 0.140625 7.71875 1.703125 
L 7.71875 11.625 
Q 12.109375 9.234375 16.796875 8.0625 
Q 21.484375 6.890625 26.703125 6.890625 
Q 35.15625 6.890625 40.078125 11.328125 
Q 45.015625 15.765625 45.015625 23.390625 
Q 45.015625 31 40.078125 35.4375 
Q 35.15625 39.890625 26.703125 39.890625 
Q 22.75 39.890625 18.8125 39.015625 
Q 14.890625 38.140625 10.796875 36.28125 
z
" id="DejaVuSans-53"/>
      </defs>
      <g transform="translate(363.856207 308.716563)scale(0.1 -0.1)">
       <use xlink:href="#DejaVuSans-53"/>
       <use x="63.623047" xlink:href="#DejaVuSans-48"/>
       <use x="127.246094" xlink:href="#DejaVuSans-48"/>
      </g>
     </g>
    </g>
    <g id="xtick_6">
     <g id="line2d_10">
      <g>
       <use style="stroke:#000000;stroke-width:0.8;" x="445.997127" xlink:href="#m1ca121de6d" y="294.118125"/>
      </g>
     </g>
     <g id="text_6">
      <!-- 600 -->
      <defs>
       <path d="M 33.015625 40.375 
Q 26.375 40.375 22.484375 35.828125 
Q 18.609375 31.296875 18.609375 23.390625 
Q 18.609375 15.53125 22.484375 10.953125 
Q 26.375 6.390625 33.015625 6.390625 
Q 39.65625 6.390625 43.53125 10.953125 
Q 47.40625 15.53125 47.40625 23.390625 
Q 47.40625 31.296875 43.53125 35.828125 
Q 39.65625 40.375 33.015625 40.375 
z
M 52.59375 71.296875 
L 52.59375 62.3125 
Q 48.875 64.0625 45.09375 64.984375 
Q 41.3125 65.921875 37.59375 65.921875 
Q 27.828125 65.921875 22.671875 59.328125 
Q 17.53125 52.734375 16.796875 39.40625 
Q 19.671875 43.65625 24.015625 45.921875 
Q 28.375 48.1875 33.59375 48.1875 
Q 44.578125 48.1875 50.953125 41.515625 
Q 57.328125 34.859375 57.328125 23.390625 
Q 57.328125 12.15625 50.6875 5.359375 
Q 44.046875 -1.421875 33.015625 -1.421875 
Q 20.359375 -1.421875 13.671875 8.265625 
Q 6.984375 17.96875 6.984375 36.375 
Q 6.984375 53.65625 15.1875 63.9375 
Q 23.390625 74.21875 37.203125 74.21875 
Q 40.921875 74.21875 44.703125 73.484375 
Q 48.484375 72.75 52.59375 71.296875 
z
" id="DejaVuSans-54"/>
      </defs>
      <g transform="translate(436.453377 308.716563)scale(0.1 -0.1)">
       <use xlink:href="#DejaVuSans-54"/>
       <use x="63.623047" xlink:href="#DejaVuSans-48"/>
       <use x="127.246094" xlink:href="#DejaVuSans-48"/>
      </g>
     </g>
    </g>
    <g id="text_7">
     <!-- Tempo -->
     <defs>
      <path d="M -0.296875 72.90625 
L 61.375 72.90625 
L 61.375 64.59375 
L 35.5 64.59375 
L 35.5 0 
L 25.59375 0 
L 25.59375 64.59375 
L -0.296875 64.59375 
z
" id="DejaVuSans-84"/>
      <path d="M 56.203125 29.59375 
L 56.203125 25.203125 
L 14.890625 25.203125 
Q 15.484375 15.921875 20.484375 11.0625 
Q 25.484375 6.203125 34.421875 6.203125 
Q 39.59375 6.203125 44.453125 7.46875 
Q 49.3125 8.734375 54.109375 11.28125 
L 54.109375 2.78125 
Q 49.265625 0.734375 44.1875 -0.34375 
Q 39.109375 -1.421875 33.890625 -1.421875 
Q 20.796875 -1.421875 13.15625 6.1875 
Q 5.515625 13.8125 5.515625 26.8125 
Q 5.515625 40.234375 12.765625 48.109375 
Q 20.015625 56 32.328125 56 
Q 43.359375 56 49.78125 48.890625 
Q 56.203125 41.796875 56.203125 29.59375 
z
M 47.21875 32.234375 
Q 47.125 39.59375 43.09375 43.984375 
Q 39.0625 48.390625 32.421875 48.390625 
Q 24.90625 48.390625 20.390625 44.140625 
Q 15.875 39.890625 15.1875 32.171875 
z
" id="DejaVuSans-101"/>
      <path d="M 52 44.1875 
Q 55.375 50.25 60.0625 53.125 
Q 64.75 56 71.09375 56 
Q 79.640625 56 84.28125 50.015625 
Q 88.921875 44.046875 88.921875 33.015625 
L 88.921875 0 
L 79.890625 0 
L 79.890625 32.71875 
Q 79.890625 40.578125 77.09375 44.375 
Q 74.3125 48.1875 68.609375 48.1875 
Q 61.625 48.1875 57.5625 43.546875 
Q 53.515625 38.921875 53.515625 30.90625 
L 53.515625 0 
L 44.484375 0 
L 44.484375 32.71875 
Q 44.484375 40.625 41.703125 44.40625 
Q 38.921875 48.1875 33.109375 48.1875 
Q 26.21875 48.1875 22.15625 43.53125 
Q 18.109375 38.875 18.109375 30.90625 
L 18.109375 0 
L 9.078125 0 
L 9.078125 54.6875 
L 18.109375 54.6875 
L 18.109375 46.1875 
Q 21.1875 51.21875 25.484375 53.609375 
Q 29.78125 56 35.6875 56 
Q 41.65625 56 45.828125 52.96875 
Q 50 49.953125 52 44.1875 
z
" id="DejaVuSans-109"/>
      <path d="M 18.109375 8.203125 
L 18.109375 -20.796875 
L 9.078125 -20.796875 
L 9.078125 54.6875 
L 18.109375 54.6875 
L 18.109375 46.390625 
Q 20.953125 51.265625 25.265625 53.625 
Q 29.59375 56 35.59375 56 
Q 45.5625 56 51.78125 48.09375 
Q 58.015625 40.1875 58.015625 27.296875 
Q 58.015625 14.40625 51.78125 6.484375 
Q 45.5625 -1.421875 35.59375 -1.421875 
Q 29.59375 -1.421875 25.265625 0.953125 
Q 20.953125 3.328125 18.109375 8.203125 
z
M 48.6875 27.296875 
Q 48.6875 37.203125 44.609375 42.84375 
Q 40.53125 48.484375 33.40625 48.484375 
Q 26.265625 48.484375 22.1875 42.84375 
Q 18.109375 37.203125 18.109375 27.296875 
Q 18.109375 17.390625 22.1875 11.75 
Q 26.265625 6.109375 33.40625 6.109375 
Q 40.53125 6.109375 44.609375 11.75 
Q 48.6875 17.390625 48.6875 27.296875 
z
" id="DejaVuSans-112"/>
      <path d="M 30.609375 48.390625 
Q 23.390625 48.390625 19.1875 42.75 
Q 14.984375 37.109375 14.984375 27.296875 
Q 14.984375 17.484375 19.15625 11.84375 
Q 23.34375 6.203125 30.609375 6.203125 
Q 37.796875 6.203125 41.984375 11.859375 
Q 46.1875 17.53125 46.1875 27.296875 
Q 46.1875 37.015625 41.984375 42.703125 
Q 37.796875 48.390625 30.609375 48.390625 
z
M 30.609375 56 
Q 42.328125 56 49.015625 48.375 
Q 55.71875 40.765625 55.71875 27.296875 
Q 55.71875 13.875 49.015625 6.21875 
Q 42.328125 -1.421875 30.609375 -1.421875 
Q 18.84375 -1.421875 12.171875 6.21875 
Q 5.515625 13.875 5.515625 27.296875 
Q 5.515625 40.765625 12.171875 48.375 
Q 18.84375 56 30.609375 56 
z
" id="DejaVuSans-111"/>
     </defs>
     <g transform="translate(248.482812 322.394687)scale(0.1 -0.1)">
      <use xlink:href="#DejaVuSans-84"/>
      <use x="44.083984" xlink:href="#DejaVuSans-101"/>
      <use x="105.607422" xlink:href="#DejaVuSans-109"/>
      <use x="203.019531" xlink:href="#DejaVuSans-112"/>
      <use x="266.496094" xlink:href="#DejaVuSans-111"/>
     </g>
    </g>
   </g>
   <g id="matplotlib.axis_2">
    <g id="ytick_1">
     <g id="line2d_11">
      <defs>
       <path d="M 0 0 
L -3.5 0 
" id="m52e340cd38" style="stroke:#000000;stroke-width:0.8;"/>
      </defs>
      <g>
       <use style="stroke:#000000;stroke-width:0.8;" x="41.667187" xlink:href="#m52e340cd38" y="271.638694"/>
      </g>
     </g>
     <g id="text_8">
      <!-- −200 -->
      <defs>
       <path d="M 10.59375 35.5 
L 73.1875 35.5 
L 73.1875 27.203125 
L 10.59375 27.203125 
z
" id="DejaVuSans-8722"/>
      </defs>
      <g transform="translate(7.2 275.437913)scale(0.1 -0.1)">
       <use xlink:href="#DejaVuSans-8722"/>
       <use x="83.789062" xlink:href="#DejaVuSans-50"/>
       <use x="147.412109" xlink:href="#DejaVuSans-48"/>
       <use x="211.035156" xlink:href="#DejaVuSans-48"/>
      </g>
     </g>
    </g>
    <g id="ytick_2">
     <g id="line2d_12">
      <g>
       <use style="stroke:#000000;stroke-width:0.8;" x="41.667187" xlink:href="#m52e340cd38" y="224.09055"/>
      </g>
     </g>
     <g id="text_9">
      <!-- −150 -->
      <g transform="translate(7.2 227.889768)scale(0.1 -0.1)">
       <use xlink:href="#DejaVuSans-8722"/>
       <use x="83.789062" xlink:href="#DejaVuSans-49"/>
       <use x="147.412109" xlink:href="#DejaVuSans-53"/>
       <use x="211.035156" xlink:href="#DejaVuSans-48"/>
      </g>
     </g>
    </g>
    <g id="ytick_3">
     <g id="line2d_13">
      <g>
       <use style="stroke:#000000;stroke-width:0.8;" x="41.667187" xlink:href="#m52e340cd38" y="176.542405"/>
      </g>
     </g>
     <g id="text_10">
      <!-- −100 -->
      <g transform="translate(7.2 180.341624)scale(0.1 -0.1)">
       <use xlink:href="#DejaVuSans-8722"/>
       <use x="83.789062" xlink:href="#DejaVuSans-49"/>
       <use x="147.412109" xlink:href="#DejaVuSans-48"/>
       <use x="211.035156" xlink:href="#DejaVuSans-48"/>
      </g>
     </g>
    </g>
    <g id="ytick_4">
     <g id="line2d_14">
      <g>
       <use style="stroke:#000000;stroke-width:0.8;" x="41.667187" xlink:href="#m52e340cd38" y="128.994261"/>
      </g>
     </g>
     <g id="text_11">
      <!-- −50 -->
      <g transform="translate(13.5625 132.793479)scale(0.1 -0.1)">
       <use xlink:href="#DejaVuSans-8722"/>
       <use x="83.789062" xlink:href="#DejaVuSans-53"/>
       <use x="147.412109" xlink:href="#DejaVuSans-48"/>
      </g>
     </g>
    </g>
    <g id="ytick_5">
     <g id="line2d_15">
      <g>
       <use style="stroke:#000000;stroke-width:0.8;" x="41.667187" xlink:href="#m52e340cd38" y="81.446116"/>
      </g>
     </g>
     <g id="text_12">
      <!-- 0 -->
      <g transform="translate(28.304687 85.245335)scale(0.1 -0.1)">
       <use xlink:href="#DejaVuSans-48"/>
      </g>
     </g>
    </g>
    <g id="ytick_6">
     <g id="line2d_16">
      <g>
       <use style="stroke:#000000;stroke-width:0.8;" x="41.667187" xlink:href="#m52e340cd38" y="33.897972"/>
      </g>
     </g>
     <g id="text_13">
      <!-- 50 -->
      <g transform="translate(21.942187 37.69719)scale(0.1 -0.1)">
       <use xlink:href="#DejaVuSans-53"/>
       <use x="63.623047" xlink:href="#DejaVuSans-48"/>
      </g>
     </g>
    </g>
   </g>
   <g id="patch_3">
    <path d="M 41.667187 294.118125 
L 41.667187 22.318125 
" style="fill:none;stroke:#000000;stroke-linecap:square;stroke-linejoin:miter;stroke-width:0.8;"/>
   </g>
   <g id="patch_4">
    <path d="M 41.667187 294.118125 
L 488.067187 294.118125 
" style="fill:none;stroke:#000000;stroke-linecap:square;stroke-linejoin:miter;stroke-width:0.8;"/>
   </g>
   <g id="text_14">
    <!-- Gov_Balance -->
    <defs>
     <path d="M 59.515625 10.40625 
L 59.515625 29.984375 
L 43.40625 29.984375 
L 43.40625 38.09375 
L 69.28125 38.09375 
L 69.28125 6.78125 
Q 63.578125 2.734375 56.6875 0.65625 
Q 49.8125 -1.421875 42 -1.421875 
Q 24.90625 -1.421875 15.25 8.5625 
Q 5.609375 18.5625 5.609375 36.375 
Q 5.609375 54.25 15.25 64.234375 
Q 24.90625 74.21875 42 74.21875 
Q 49.125 74.21875 55.546875 72.453125 
Q 61.96875 70.703125 67.390625 67.28125 
L 67.390625 56.78125 
Q 61.921875 61.421875 55.765625 63.765625 
Q 49.609375 66.109375 42.828125 66.109375 
Q 29.4375 66.109375 22.71875 58.640625 
Q 16.015625 51.171875 16.015625 36.375 
Q 16.015625 21.625 22.71875 14.15625 
Q 29.4375 6.6875 42.828125 6.6875 
Q 48.046875 6.6875 52.140625 7.59375 
Q 56.25 8.5 59.515625 10.40625 
z
" id="DejaVuSans-71"/>
     <path d="M 2.984375 54.6875 
L 12.5 54.6875 
L 29.59375 8.796875 
L 46.6875 54.6875 
L 56.203125 54.6875 
L 35.6875 0 
L 23.484375 0 
z
" id="DejaVuSans-118"/>
     <path d="M 50.984375 -16.609375 
L 50.984375 -23.578125 
L -0.984375 -23.578125 
L -0.984375 -16.609375 
z
" id="DejaVuSans-95"/>
     <path d="M 19.671875 34.8125 
L 19.671875 8.109375 
L 35.5 8.109375 
Q 43.453125 8.109375 47.28125 11.40625 
Q 51.125 14.703125 51.125 21.484375 
Q 51.125 28.328125 47.28125 31.5625 
Q 43.453125 34.8125 35.5 34.8125 
z
M 19.671875 64.796875 
L 19.671875 42.828125 
L 34.28125 42.828125 
Q 41.5 42.828125 45.03125 45.53125 
Q 48.578125 48.25 48.578125 53.8125 
Q 48.578125 59.328125 45.03125 62.0625 
Q 41.5 64.796875 34.28125 64.796875 
z
M 9.8125 72.90625 
L 35.015625 72.90625 
Q 46.296875 72.90625 52.390625 68.21875 
Q 58.5 63.53125 58.5 54.890625 
Q 58.5 48.1875 55.375 44.234375 
Q 52.25 40.28125 46.1875 39.3125 
Q 53.46875 37.75 57.5 32.78125 
Q 61.53125 27.828125 61.53125 20.40625 
Q 61.53125 10.640625 54.890625 5.3125 
Q 48.25 0 35.984375 0 
L 9.8125 0 
z
" id="DejaVuSans-66"/>
     <path d="M 34.28125 27.484375 
Q 23.390625 27.484375 19.1875 25 
Q 14.984375 22.515625 14.984375 16.5 
Q 14.984375 11.71875 18.140625 8.90625 
Q 21.296875 6.109375 26.703125 6.109375 
Q 34.1875 6.109375 38.703125 11.40625 
Q 43.21875 16.703125 43.21875 25.484375 
L 43.21875 27.484375 
z
M 52.203125 31.203125 
L 52.203125 0 
L 43.21875 0 
L 43.21875 8.296875 
Q 40.140625 3.328125 35.546875 0.953125 
Q 30.953125 -1.421875 24.3125 -1.421875 
Q 15.921875 -1.421875 10.953125 3.296875 
Q 6 8.015625 6 15.921875 
Q 6 25.140625 12.171875 29.828125 
Q 18.359375 34.515625 30.609375 34.515625 
L 43.21875 34.515625 
L 43.21875 35.40625 
Q 43.21875 41.609375 39.140625 45 
Q 35.0625 48.390625 27.6875 48.390625 
Q 23 48.390625 18.546875 47.265625 
Q 14.109375 46.140625 10.015625 43.890625 
L 10.015625 52.203125 
Q 14.9375 54.109375 19.578125 55.046875 
Q 24.21875 56 28.609375 56 
Q 40.484375 56 46.34375 49.84375 
Q 52.203125 43.703125 52.203125 31.203125 
z
" id="DejaVuSans-97"/>
     <path d="M 9.421875 75.984375 
L 18.40625 75.984375 
L 18.40625 0 
L 9.421875 0 
z
" id="DejaVuSans-108"/>
     <path d="M 54.890625 33.015625 
L 54.890625 0 
L 45.90625 0 
L 45.90625 32.71875 
Q 45.90625 40.484375 42.875 44.328125 
Q 39.84375 48.1875 33.796875 48.1875 
Q 26.515625 48.1875 22.3125 43.546875 
Q 18.109375 38.921875 18.109375 30.90625 
L 18.109375 0 
L 9.078125 0 
L 9.078125 54.6875 
L 18.109375 54.6875 
L 18.109375 46.1875 
Q 21.34375 51.125 25.703125 53.5625 
Q 30.078125 56 35.796875 56 
Q 45.21875 56 50.046875 50.171875 
Q 54.890625 44.34375 54.890625 33.015625 
z
" id="DejaVuSans-110"/>
     <path d="M 48.78125 52.59375 
L 48.78125 44.1875 
Q 44.96875 46.296875 41.140625 47.34375 
Q 37.3125 48.390625 33.40625 48.390625 
Q 24.65625 48.390625 19.8125 42.84375 
Q 14.984375 37.3125 14.984375 27.296875 
Q 14.984375 17.28125 19.8125 11.734375 
Q 24.65625 6.203125 33.40625 6.203125 
Q 37.3125 6.203125 41.140625 7.25 
Q 44.96875 8.296875 48.78125 10.40625 
L 48.78125 2.09375 
Q 45.015625 0.34375 40.984375 -0.53125 
Q 36.96875 -1.421875 32.421875 -1.421875 
Q 20.0625 -1.421875 12.78125 6.34375 
Q 5.515625 14.109375 5.515625 27.296875 
Q 5.515625 40.671875 12.859375 48.328125 
Q 20.21875 56 33.015625 56 
Q 37.15625 56 41.109375 55.140625 
Q 45.0625 54.296875 48.78125 52.59375 
z
" id="DejaVuSans-99"/>
    </defs>
    <g transform="translate(226.065 16.318125)scale(0.12 -0.12)">
     <use xlink:href="#DejaVuSans-71"/>
     <use x="77.490234" xlink:href="#DejaVuSans-111"/>
     <use x="138.671875" xlink:href="#DejaVuSans-118"/>
     <use x="197.851562" xlink:href="#DejaVuSans-95"/>
     <use x="247.851562" xlink:href="#DejaVuSans-66"/>
     <use x="316.455078" xlink:href="#DejaVuSans-97"/>
     <use x="377.734375" xlink:href="#DejaVuSans-108"/>
     <use x="405.517578" xlink:href="#DejaVuSans-97"/>
     <use x="466.796875" xlink:href="#DejaVuSans-110"/>
     <use x="530.175781" xlink:href="#DejaVuSans-99"/>
     <use x="585.15625" xlink:href="#DejaVuSans-101"/>
    </g>
   </g>
   <g id="legend_1">
    <g id="patch_5">
     <path d="M 495.067187 190.104844 
L 569.465625 190.104844 
Q 571.465625 190.104844 571.465625 188.104844 
L 571.465625 128.331406 
Q 571.465625 126.331406 569.465625 126.331406 
L 495.067187 126.331406 
Q 493.067187 126.331406 493.067187 128.331406 
L 493.067187 188.104844 
Q 493.067187 190.104844 495.067187 190.104844 
z
" style="fill:#ffffff;opacity:0.8;stroke:#cccccc;stroke-linejoin:miter;"/>
    </g>
    <g id="line2d_17">
     <path d="M 497.067187 134.429844 
L 517.067188 134.429844 
" style="fill:none;stroke:#000000;stroke-dasharray:3.7,1.6;stroke-dashoffset:0;"/>
    </g>
    <g id="line2d_18"/>
    <g id="text_15">
     <!-- Baseline -->
     <defs>
      <path d="M 44.28125 53.078125 
L 44.28125 44.578125 
Q 40.484375 46.53125 36.375 47.5 
Q 32.28125 48.484375 27.875 48.484375 
Q 21.1875 48.484375 17.84375 46.4375 
Q 14.5 44.390625 14.5 40.28125 
Q 14.5 37.15625 16.890625 35.375 
Q 19.28125 33.59375 26.515625 31.984375 
L 29.59375 31.296875 
Q 39.15625 29.25 43.1875 25.515625 
Q 47.21875 21.78125 47.21875 15.09375 
Q 47.21875 7.46875 41.1875 3.015625 
Q 35.15625 -1.421875 24.609375 -1.421875 
Q 20.21875 -1.421875 15.453125 -0.5625 
Q 10.6875 0.296875 5.421875 2 
L 5.421875 11.28125 
Q 10.40625 8.6875 15.234375 7.390625 
Q 20.0625 6.109375 24.8125 6.109375 
Q 31.15625 6.109375 34.5625 8.28125 
Q 37.984375 10.453125 37.984375 14.40625 
Q 37.984375 18.0625 35.515625 20.015625 
Q 33.0625 21.96875 24.703125 23.78125 
L 21.578125 24.515625 
Q 13.234375 26.265625 9.515625 29.90625 
Q 5.8125 33.546875 5.8125 39.890625 
Q 5.8125 47.609375 11.28125 51.796875 
Q 16.75 56 26.8125 56 
Q 31.78125 56 36.171875 55.265625 
Q 40.578125 54.546875 44.28125 53.078125 
z
" id="DejaVuSans-115"/>
      <path d="M 9.421875 54.6875 
L 18.40625 54.6875 
L 18.40625 0 
L 9.421875 0 
z
M 9.421875 75.984375 
L 18.40625 75.984375 
L 18.40625 64.59375 
L 9.421875 64.59375 
z
" id="DejaVuSans-105"/>
     </defs>
     <g transform="translate(525.067188 137.929844)scale(0.1 -0.1)">
      <use xlink:href="#DejaVuSans-66"/>
      <use x="68.603516" xlink:href="#DejaVuSans-97"/>
      <use x="129.882812" xlink:href="#DejaVuSans-115"/>
      <use x="181.982422" xlink:href="#DejaVuSans-101"/>
      <use x="243.505859" xlink:href="#DejaVuSans-108"/>
      <use x="271.289062" xlink:href="#DejaVuSans-105"/>
      <use x="299.072266" xlink:href="#DejaVuSans-110"/>
      <use x="362.451172" xlink:href="#DejaVuSans-101"/>
     </g>
    </g>
    <g id="line2d_19">
     <path d="M 497.067187 149.107969 
L 517.067188 149.107969 
" style="fill:none;stroke:#1f77b4;stroke-linecap:square;stroke-width:1.5;"/>
    </g>
    <g id="line2d_20"/>
    <g id="text_16">
     <!-- $\Downarrow \sigma_\psi$ -->
     <defs>
      <path d="M 36.765625 14.3125 
L 41.9375 9.234375 
L 47.015625 14.3125 
L 47.015625 72.90625 
L 52.875 72.90625 
L 52.875 20.171875 
L 57.46875 24.75 
L 63.328125 18.890625 
L 44.09375 -0.34375 
L 39.703125 -0.34375 
L 20.5625 18.890625 
L 26.421875 24.75 
L 30.90625 20.171875 
L 30.90625 72.90625 
L 36.765625 72.90625 
z
" id="DejaVuSans-8659"/>
      <path d="M 34.671875 47.5625 
Q 27.25 47.5625 22.21875 42.1875 
Q 16.890625 36.578125 15.140625 27.296875 
Q 13.1875 17.484375 16.3125 11.8125 
Q 19.390625 6.203125 26.65625 6.203125 
Q 33.84375 6.203125 39.109375 11.859375 
Q 44.4375 17.53125 46.34375 27.296875 
Q 48.046875 36.234375 45.015625 42.1875 
Q 42.1875 47.5625 34.671875 47.5625 
z
M 36.078125 54.734375 
L 65.921875 54.6875 
L 64.15625 45.703125 
L 54.109375 45.703125 
Q 57.90625 38.09375 55.859375 27.296875 
Q 53.21875 13.875 45.0625 6.25 
Q 36.859375 -1.421875 25.140625 -1.421875 
Q 13.375 -1.421875 8.203125 6.25 
Q 3.03125 13.875 5.671875 27.296875 
Q 8.25 40.765625 16.40625 48.390625 
Q 23.1875 54.734375 36.078125 54.734375 
z
" id="DejaVuSans-Oblique-963"/>
      <path d="M 24.859375 -1.21875 
Q 13.921875 0.59375 9.625 5.328125 
Q 4.34375 11.140625 6.640625 23 
L 12.796875 54.6875 
L 21.875 54.6875 
L 15.765625 23.34375 
Q 14.0625 14.40625 17.484375 10.6875 
Q 20.515625 7.46875 26.421875 6.78125 
L 35.6875 54.6875 
L 44.625 54.6875 
L 35.359375 6.84375 
Q 41.890625 7.515625 45.75 10.75 
Q 50.734375 14.84375 52.390625 23.390625 
L 58.453125 54.6875 
L 67.53125 54.6875 
L 61.375 23.046875 
Q 58.984375 10.75 51.5625 5.375 
Q 44.875 0.53125 33.796875 -1.171875 
L 29.984375 -20.796875 
L 21.046875 -20.796875 
z
" id="DejaVuSans-Oblique-968"/>
     </defs>
     <g transform="translate(525.067188 152.607969)scale(0.1 -0.1)">
      <use transform="translate(19.482422 0.09375)" xlink:href="#DejaVuSans-8659"/>
      <use transform="translate(122.753906 0.09375)" xlink:href="#DejaVuSans-Oblique-963"/>
      <use transform="translate(186.132812 -16.3125)scale(0.7)" xlink:href="#DejaVuSans-Oblique-968"/>
     </g>
    </g>
    <g id="line2d_21">
     <path d="M 497.067187 164.806406 
L 517.067188 164.806406 
" style="fill:none;stroke:#ff7f0e;stroke-linecap:square;stroke-width:1.5;"/>
    </g>
    <g id="line2d_22"/>
    <g id="text_17">
     <!-- $\Downarrow s_\psi$ -->
     <defs>
      <path d="M 50 53.078125 
L 48.296875 44.578125 
Q 44.734375 46.53125 40.765625 47.5 
Q 36.8125 48.484375 32.625 48.484375 
Q 25.53125 48.484375 21.453125 46.0625 
Q 17.390625 43.65625 17.390625 39.5 
Q 17.390625 34.671875 26.859375 32.078125 
Q 27.59375 31.890625 27.9375 31.78125 
L 30.8125 30.90625 
Q 39.796875 28.421875 42.796875 25.6875 
Q 45.796875 22.953125 45.796875 18.21875 
Q 45.796875 9.515625 38.890625 4.046875 
Q 31.984375 -1.421875 20.796875 -1.421875 
Q 16.453125 -1.421875 11.671875 -0.578125 
Q 6.890625 0.25 1.125 2 
L 2.875 11.28125 
Q 7.8125 8.734375 12.59375 7.421875 
Q 17.390625 6.109375 21.78125 6.109375 
Q 28.375 6.109375 32.5 8.9375 
Q 36.625 11.765625 36.625 16.109375 
Q 36.625 20.796875 25.78125 23.6875 
L 24.859375 23.921875 
L 21.78125 24.703125 
Q 14.9375 26.515625 11.765625 29.46875 
Q 8.59375 32.421875 8.59375 37.015625 
Q 8.59375 45.75 15.15625 50.875 
Q 21.734375 56 33.015625 56 
Q 37.453125 56 41.671875 55.265625 
Q 45.90625 54.546875 50 53.078125 
z
" id="DejaVuSans-Oblique-115"/>
     </defs>
     <g transform="translate(525.067188 168.306406)scale(0.1 -0.1)">
      <use transform="translate(19.482422 0.09375)" xlink:href="#DejaVuSans-8659"/>
      <use transform="translate(122.753906 0.09375)" xlink:href="#DejaVuSans-Oblique-115"/>
      <use transform="translate(174.853516 -16.3125)scale(0.7)" xlink:href="#DejaVuSans-Oblique-968"/>
     </g>
    </g>
    <g id="line2d_23">
     <path d="M 497.067187 180.504844 
L 517.067188 180.504844 
" style="fill:none;stroke:#2ca02c;stroke-linecap:square;stroke-width:1.5;"/>
    </g>
    <g id="line2d_24"/>
    <g id="text_18">
     <!-- $\Uparrow \eta$ -->
     <defs>
      <path d="M 36.765625 58.59375 
L 36.765625 0 
L 30.90625 0 
L 30.90625 52.734375 
L 26.421875 48.140625 
L 20.5625 54 
L 39.703125 73.25 
L 44.09375 73.25 
L 63.328125 54 
L 57.46875 48.140625 
L 52.875 52.734375 
L 52.875 0 
L 47.015625 0 
L 47.015625 58.59375 
L 41.9375 63.671875 
z
" id="DejaVuSans-8657"/>
      <path d="M 57.859375 33.015625 
L 47.40625 -20.796875 
L 38.421875 -20.796875 
L 48.828125 32.71875 
Q 50.34375 40.484375 48.046875 44.34375 
Q 45.796875 48.1875 39.75 48.1875 
Q 32.46875 48.1875 27.34375 43.5625 
Q 22.265625 38.921875 20.703125 30.90625 
L 14.703125 0 
L 5.671875 0 
L 16.3125 54.6875 
L 25.34375 54.6875 
L 23.6875 46.1875 
Q 27.828125 51.125 32.71875 53.5625 
Q 37.546875 56 43.265625 56 
Q 52.6875 56 56.390625 50.203125 
Q 60.0625 44.34375 57.859375 33.015625 
z
" id="DejaVuSans-Oblique-951"/>
     </defs>
     <g transform="translate(525.067188 184.004844)scale(0.1 -0.1)">
      <use transform="translate(19.482422 0.75)" xlink:href="#DejaVuSans-8657"/>
      <use transform="translate(122.753906 0.75)" xlink:href="#DejaVuSans-Oblique-951"/>
     </g>
    </g>
   </g>
  </g>
 </g>
 <defs>
  <clipPath id="peab23d9a86">
   <rect height="271.8" width="446.4" x="41.667187" y="22.318125"/>
  </clipPath>
 </defs>
</svg>
