<?xml version="1.0" encoding="utf-8" standalone="no"?>
<!DOCTYPE svg PUBLIC "-//W3C//DTD SVG 1.1//EN"
  "http://www.w3.org/Graphics/SVG/1.1/DTD/svg11.dtd">
<!-- Created with matplotlib (https://matplotlib.org/) -->
<svg height="331.674375pt" version="1.1" viewBox="0 0 575.48125 331.674375" width="575.48125pt" xmlns="http://www.w3.org/2000/svg" xmlns:xlink="http://www.w3.org/1999/xlink">
 <defs>
  <style type="text/css">
*{stroke-linecap:butt;stroke-linejoin:round;}
  </style>
 </defs>
 <g id="figure_1">
  <g id="patch_1">
   <path d="M 0 331.674375 
L 575.48125 331.674375 
L 575.48125 0 
L 0 0 
z
" style="fill:#ffffff;"/>
  </g>
  <g id="axes_1">
   <g id="patch_2">
    <path d="M 38.482813 294.118125 
L 484.882812 294.118125 
L 484.882812 22.318125 
L 38.482813 22.318125 
z
" style="fill:#ffffff;"/>
   </g>
   <g id="line2d_1">
    <path clip-path="url(#p0dd11ced55)" d="M 58.773722 139.146236 
L 59.499693 128.977086 
L 60.225665 181.677749 
L 60.951637 131.076021 
L 61.677608 172.855095 
L 62.40358 149.267266 
L 63.129552 164.341246 
L 63.855524 169.23531 
L 64.581495 144.977834 
L 65.307467 152.505026 
L 66.033439 203.251864 
L 66.75941 127.387977 
L 67.485382 131.940363 
L 68.211354 138.85421 
L 68.937325 240.388531 
L 69.663297 69.083014 
L 70.389269 139.474291 
L 71.115241 253.630203 
L 71.841212 156.648949 
L 72.567184 239.485735 
L 73.293156 113.851045 
L 74.019127 123.817231 
L 74.745099 271.677633 
L 75.471071 123.653668 
L 76.197042 152.010021 
L 76.923014 193.876551 
L 77.648986 135.389746 
L 78.374958 156.88677 
L 79.100929 215.656084 
L 79.826901 174.001517 
L 80.552873 259.09776 
L 81.278844 95.351338 
L 82.004816 34.67267 
L 82.730788 146.37665 
L 83.456759 73.424556 
L 84.182731 166.26453 
L 84.908703 138.276849 
L 85.634675 114.731666 
L 86.360646 102.917728 
L 87.086618 42.975342 
L 87.81259 127.886772 
L 88.538561 252.958703 
L 89.264533 118.329053 
L 89.990505 149.915993 
L 90.716477 173.893693 
L 91.442448 93.719316 
L 92.16842 67.627217 
L 92.894392 76.806131 
L 93.620363 59.488193 
L 95.072307 257.643049 
L 95.798278 70.654624 
L 96.52425 124.371897 
L 97.250222 257.988601 
L 97.976194 75.478268 
L 98.702165 48.902958 
L 99.428137 165.459301 
L 100.154109 152.244346 
L 100.88008 122.51434 
L 101.606052 144.787637 
L 102.332024 151.479291 
L 103.057995 130.028724 
L 103.783967 145.839834 
L 104.509939 64.766762 
L 105.235911 60.825311 
L 106.687854 154.829213 
L 107.413826 125.589582 
L 108.139797 150.434089 
L 108.865769 168.810621 
L 109.591741 127.159017 
L 110.317712 146.854585 
L 111.043684 183.514888 
L 111.769656 146.399105 
L 112.495628 167.298747 
L 113.221599 157.43331 
L 113.947571 153.967325 
L 114.673543 173.023347 
L 115.399514 165.975608 
L 116.125486 175.861626 
L 116.851458 217.958546 
L 117.57743 135.609419 
L 118.303401 144.244472 
L 119.029373 160.453137 
L 119.755345 150.08961 
L 120.481316 218.104425 
L 121.93326 78.009705 
L 122.659231 104.661984 
L 123.385203 155.732232 
L 124.111175 190.665443 
L 124.837147 219.408279 
L 125.563118 140.769605 
L 126.28909 147.311366 
L 127.015062 170.098494 
L 127.741033 154.04349 
L 128.467005 127.06155 
L 129.192977 130.03437 
L 129.918948 174.485622 
L 130.64492 59.905076 
L 131.370892 120.050107 
L 132.096864 216.940275 
L 132.822835 162.685256 
L 133.548807 139.321042 
L 135.00075 61.867428 
L 135.726722 136.691252 
L 136.452694 167.162518 
L 137.178665 147.351556 
L 137.904637 170.454025 
L 138.630609 155.757998 
L 139.356581 181.658706 
L 140.082552 153.934178 
L 140.808524 69.214009 
L 141.534496 91.685857 
L 142.260467 135.78694 
L 142.986439 146.671429 
L 143.712411 242.495517 
L 144.438383 86.57404 
L 145.164354 119.228571 
L 145.890326 136.790162 
L 146.616298 137.515214 
L 147.342269 134.390643 
L 148.068241 173.805761 
L 148.794213 149.072734 
L 149.520184 153.430398 
L 150.246156 177.147379 
L 150.972128 155.376328 
L 151.6981 186.300564 
L 152.424071 143.615054 
L 153.150043 165.580689 
L 153.876015 150.144406 
L 154.601986 197.576258 
L 155.327958 155.087835 
L 156.05393 133.167356 
L 156.779901 192.131663 
L 157.505873 133.070045 
L 158.231845 126.560622 
L 158.957817 153.775054 
L 159.683788 142.218597 
L 160.40976 190.453129 
L 161.135732 187.555917 
L 161.861703 176.915 
L 162.587675 105.92235 
L 163.313647 148.395952 
L 164.039618 151.90996 
L 164.76559 148.717877 
L 165.491562 151.902439 
L 166.217534 77.21986 
L 166.943505 38.659555 
L 168.395449 139.753773 
L 169.12142 150.87293 
L 169.847392 115.070345 
L 170.573364 192.87755 
L 171.299336 62.945749 
L 172.025307 40.990894 
L 172.751279 195.014446 
L 173.477251 132.232691 
L 174.203222 175.467176 
L 174.929194 109.408488 
L 175.655166 119.27144 
L 176.381137 136.284865 
L 177.107109 157.14888 
L 177.833081 146.798325 
L 178.559053 210.816361 
L 179.285024 203.953634 
L 180.010996 211.068769 
L 180.736968 147.96692 
L 181.462939 215.788721 
L 182.188911 168.284363 
L 182.914883 67.083178 
L 183.640854 136.916009 
L 184.366826 131.815787 
L 185.092798 153.610479 
L 185.81877 162.7266 
L 186.544741 146.073245 
L 187.270713 111.479368 
L 187.996685 145.828213 
L 188.722656 201.347482 
L 189.448628 140.030542 
L 190.1746 131.175104 
L 190.900571 172.528654 
L 191.626543 140.565671 
L 192.352515 147.331861 
L 193.078487 169.525521 
L 193.804458 108.613754 
L 194.53043 144.830751 
L 195.256402 158.77703 
L 195.982373 135.072825 
L 196.708345 98.753886 
L 197.434317 136.127222 
L 198.160289 155.255882 
L 198.88626 143.903062 
L 199.612232 125.688705 
L 200.338204 153.003688 
L 201.064175 151.082261 
L 201.790147 145.245052 
L 202.516119 167.367163 
L 203.24209 122.167335 
L 203.968062 122.342378 
L 204.694034 105.661378 
L 205.420006 132.822978 
L 206.145977 203.900537 
L 206.871949 71.994006 
L 207.597921 90.10779 
L 208.323892 153.41105 
L 209.049864 186.169304 
L 209.775836 226.325918 
L 210.501807 79.371704 
L 211.227779 144.939964 
L 211.953751 267.205025 
L 212.679723 73.944963 
L 213.405694 146.823946 
L 214.131666 144.699571 
L 214.857638 179.813538 
L 215.583609 131.732776 
L 216.309581 181.105798 
L 217.035553 114.223452 
L 217.761524 149.430466 
L 218.487496 156.370842 
L 219.213468 122.039476 
L 220.665411 168.595212 
L 221.391383 156.500979 
L 222.117355 149.203345 
L 222.843326 152.350329 
L 223.569298 149.959453 
L 224.29527 165.00712 
L 225.021242 163.872566 
L 225.747213 134.151959 
L 226.473185 138.479662 
L 227.199157 78.997569 
L 227.925128 89.657994 
L 228.6511 110.79056 
L 229.377072 137.327958 
L 230.103043 138.309856 
L 230.829015 76.562247 
L 231.554987 91.225365 
L 232.280959 155.456408 
L 233.00693 145.503498 
L 233.732902 94.915097 
L 234.458874 72.929381 
L 235.184845 145.55448 
L 235.910817 262.274421 
L 236.636789 156.249935 
L 237.36276 134.475888 
L 238.088732 172.907435 
L 238.814704 191.643321 
L 239.540676 126.048646 
L 240.266647 70.814162 
L 240.992619 133.959852 
L 241.718591 145.384175 
L 242.444562 142.027455 
L 243.170534 193.750644 
L 243.896506 93.365637 
L 244.622477 165.105438 
L 245.348449 110.327356 
L 246.074421 151.466186 
L 246.800393 130.239892 
L 247.526364 117.235797 
L 248.252336 133.688289 
L 248.978308 109.897795 
L 249.704279 137.233707 
L 250.430251 235.290966 
L 251.156223 55.21162 
L 251.882195 39.20672 
L 252.608166 150.608884 
L 253.334138 142.695196 
L 254.06011 103.345083 
L 254.786081 171.418527 
L 255.512053 135.640409 
L 256.238025 169.699196 
L 256.963996 128.125523 
L 257.689968 192.936777 
L 258.41594 204.150663 
L 259.141912 192.195027 
L 259.867883 97.765926 
L 260.593855 154.925818 
L 261.319827 187.226876 
L 262.045798 88.447397 
L 262.77177 115.434082 
L 263.497742 251.208337 
L 264.223713 203.705812 
L 264.949685 133.515818 
L 265.675657 187.138112 
L 266.401629 165.239466 
L 267.853572 75.524628 
L 269.305515 205.760604 
L 270.031487 180.750772 
L 270.757459 147.354474 
L 271.48343 142.814267 
L 272.209402 142.985608 
L 272.935374 140.010234 
L 273.661346 154.698332 
L 274.387317 140.80143 
L 275.113289 166.321639 
L 275.839261 139.553331 
L 276.565232 98.40028 
L 277.291204 96.692609 
L 278.017176 147.163623 
L 278.743148 173.491003 
L 279.469119 157.708034 
L 280.195091 171.850135 
L 280.921063 150.507906 
L 281.647034 159.687002 
L 282.373006 144.789193 
L 283.098978 184.047924 
L 283.824949 137.838595 
L 284.550921 73.159361 
L 285.276893 97.652876 
L 286.002865 59.886123 
L 286.728836 107.668064 
L 287.454808 254.620482 
L 288.18078 101.276965 
L 288.906751 141.580415 
L 289.632723 207.357094 
L 290.358695 118.907298 
L 291.084666 243.738678 
L 291.810638 205.980279 
L 292.53661 125.28565 
L 293.262582 143.578646 
L 293.988553 143.419636 
L 294.714525 216.323665 
L 295.440497 162.805103 
L 296.166468 165.460182 
L 296.89244 157.249679 
L 297.618412 166.283696 
L 298.344383 172.272948 
L 299.070355 151.986835 
L 299.796327 147.74027 
L 300.522299 145.828383 
L 301.24827 224.517031 
L 301.974242 106.971246 
L 302.700214 104.188801 
L 303.426185 144.689863 
L 304.152157 141.412803 
L 304.878129 159.537213 
L 305.604101 147.247454 
L 306.330072 175.709115 
L 307.056044 158.956958 
L 307.782016 91.885528 
L 308.507987 42.761292 
L 309.233959 185.984584 
L 309.959931 165.807395 
L 310.685902 124.918467 
L 311.411874 230.559225 
L 312.137846 172.654645 
L 312.863818 165.29879 
L 313.589789 160.933968 
L 314.315761 136.640014 
L 315.041733 119.612536 
L 315.767704 149.978095 
L 316.493676 137.511277 
L 317.219648 143.166198 
L 317.945619 162.437884 
L 318.671591 157.78728 
L 319.397563 214.48534 
L 320.123535 112.428326 
L 320.849506 97.825221 
L 321.575478 135.039156 
L 322.30145 231.106664 
L 323.027421 185.060933 
L 323.753393 149.961367 
L 324.479365 151.086606 
L 325.205336 228.90746 
L 325.931308 76.632706 
L 326.65728 78.232346 
L 327.383252 62.733606 
L 328.835195 247.247965 
L 330.287138 145.072546 
L 331.01311 176.246779 
L 331.739082 183.343965 
L 332.465054 149.959245 
L 333.191025 132.968872 
L 333.916997 100.791986 
L 334.642969 152.290375 
L 335.36894 116.969437 
L 336.094912 217.251854 
L 336.820884 85.5886 
L 337.546855 106.910785 
L 338.272827 56.479551 
L 338.998799 145.547143 
L 339.724771 194.455526 
L 340.450742 127.439835 
L 341.176714 75.825196 
L 341.902686 143.48814 
L 342.628657 110.80382 
L 343.354629 117.03089 
L 344.080601 93.101668 
L 344.806572 146.059102 
L 345.532544 69.254666 
L 346.258516 125.921746 
L 346.984488 234.683712 
L 347.710459 89.884514 
L 348.436431 187.345162 
L 349.162403 89.316921 
L 349.888374 69.336474 
L 350.614346 53.196827 
L 351.340318 162.877123 
L 352.066289 169.392029 
L 352.792261 114.184444 
L 353.518233 151.542979 
L 354.244205 125.143397 
L 354.970176 132.692924 
L 356.42212 194.242477 
L 357.148091 132.602025 
L 357.874063 112.657039 
L 358.600035 151.74582 
L 359.326007 105.018127 
L 360.051978 166.825369 
L 360.77795 187.500326 
L 361.503922 135.875699 
L 362.229893 191.837821 
L 362.955865 137.187573 
L 363.681837 256.460664 
L 364.407808 121.414795 
L 365.13378 49.945911 
L 365.859752 149.016659 
L 367.311695 125.826414 
L 368.037667 168.298783 
L 368.763639 141.401369 
L 369.48961 139.284386 
L 370.215582 136.070318 
L 370.941554 92.920461 
L 371.667525 111.716375 
L 372.393497 248.204013 
L 373.119469 167.696821 
L 373.845441 165.063019 
L 374.571412 113.29274 
L 375.297384 134.349843 
L 376.023356 196.862926 
L 376.749327 80.872399 
L 377.475299 107.966916 
L 378.201271 167.117508 
L 378.927242 117.677995 
L 379.653214 147.262112 
L 380.379186 131.350571 
L 381.105158 131.289711 
L 381.831129 142.002833 
L 382.557101 181.479406 
L 383.283073 70.972011 
L 384.009044 98.084203 
L 384.735016 131.492887 
L 385.460988 197.738577 
L 386.18696 91.332476 
L 386.912931 47.774322 
L 387.638903 44.612636 
L 388.364875 85.184373 
L 389.090846 103.062292 
L 389.816818 240.842789 
L 391.268761 124.299348 
L 391.994733 205.032483 
L 392.720705 114.110492 
L 393.446677 170.216794 
L 394.172648 174.5748 
L 394.89862 167.13858 
L 395.624592 61.653579 
L 396.350563 163.390968 
L 397.076535 133.472593 
L 397.802507 89.044428 
L 398.528478 171.901311 
L 399.25445 44.476384 
L 399.980422 61.423217 
L 400.706394 109.116972 
L 401.432365 126.503462 
L 402.158337 138.472398 
L 402.884309 190.501532 
L 403.61028 130.120959 
L 404.336252 223.89053 
L 405.788195 136.630469 
L 406.514167 173.069642 
L 407.240139 202.322805 
L 407.966111 117.190012 
L 408.692082 72.234687 
L 409.418054 151.793747 
L 410.144026 205.65768 
L 410.869997 72.827679 
L 411.595969 84.611598 
L 412.321941 133.668337 
L 413.047913 94.17323 
L 413.773884 132.491896 
L 414.499856 116.480724 
L 415.225828 57.539219 
L 415.951799 109.341469 
L 416.677771 69.842683 
L 417.403743 195.187172 
L 418.129714 136.20436 
L 418.855686 209.76931 
L 419.581658 73.641229 
L 420.30763 92.041415 
L 421.033601 96.873821 
L 421.759573 128.076193 
L 422.485545 175.609305 
L 423.211516 181.12927 
L 423.937488 189.112182 
L 424.66346 54.288751 
L 425.389431 104.64374 
L 426.115403 215.739197 
L 426.841375 118.789302 
L 427.567347 68.110245 
L 428.293318 106.03259 
L 429.01929 207.359645 
L 429.745262 159.267564 
L 430.471233 199.000795 
L 431.197205 130.344323 
L 431.923177 110.816162 
L 432.649148 128.66101 
L 433.37512 110.179783 
L 434.101092 127.232404 
L 434.827064 157.813828 
L 435.553035 91.652102 
L 436.279007 113.862777 
L 437.004979 120.618133 
L 437.73095 143.814644 
L 438.456922 87.376078 
L 439.182894 135.113136 
L 439.908866 86.163959 
L 440.634837 84.598595 
L 441.360809 58.593928 
L 442.086781 56.180725 
L 442.812752 74.606144 
L 443.538724 96.686158 
L 444.264696 178.8621 
L 444.990667 157.761626 
L 445.716639 162.392382 
L 446.442611 114.157723 
L 447.168583 84.23808 
L 447.894554 105.669265 
L 448.620526 66.88467 
L 449.346498 38.058858 
L 450.072469 71.570214 
L 450.798441 167.395724 
L 451.524413 80.65291 
L 452.250384 57.877083 
L 452.976356 105.487957 
L 453.702328 51.032078 
L 454.4283 110.091027 
L 455.154271 186.799406 
L 455.880243 85.995885 
L 456.606215 57.877455 
L 457.332186 103.666694 
L 458.058158 95.214294 
L 458.78413 154.761256 
L 459.510101 60.867624 
L 460.962045 104.127107 
L 461.688017 71.111804 
L 462.413988 140.696709 
L 463.13996 96.027157 
L 463.865932 64.811492 
L 464.591903 47.227249 
L 464.591903 47.227249 
" style="fill:none;stroke:#1f77b4;stroke-linecap:square;stroke-width:1.5;"/>
   </g>
   <g id="line2d_2">
    <path clip-path="url(#p0dd11ced55)" d="M 58.773722 97.781935 
L 60.225665 165.016487 
L 60.951637 166.317741 
L 61.677608 136.087682 
L 62.40358 154.193286 
L 63.129552 200.05189 
L 63.855524 96.687569 
L 64.581495 179.82044 
L 65.307467 64.008031 
L 66.033439 131.042056 
L 66.75941 175.492572 
L 67.485382 96.832248 
L 68.211354 175.363435 
L 68.937325 145.53342 
L 69.663297 151.769697 
L 70.389269 155.318511 
L 71.115241 145.740971 
L 71.841212 147.972593 
L 72.567184 136.835978 
L 73.293156 132.406339 
L 74.019127 161.733341 
L 74.745099 204.590756 
L 75.471071 169.779444 
L 76.197042 178.116183 
L 76.923014 120.221824 
L 77.648986 85.318966 
L 78.374958 80.132839 
L 79.100929 152.89687 
L 79.826901 253.629109 
L 80.552873 73.046651 
L 81.278844 80.138655 
L 82.004816 95.947435 
L 82.730788 77.829904 
L 83.456759 145.83802 
L 84.182731 154.238682 
L 84.908703 127.183489 
L 85.634675 171.574671 
L 86.360646 203.587377 
L 87.086618 145.560585 
L 87.81259 156.205758 
L 88.538561 152.369674 
L 89.264533 132.831718 
L 89.990505 139.566073 
L 90.716477 147.49337 
L 91.442448 137.606288 
L 92.16842 124.960754 
L 92.894392 141.31123 
L 93.620363 187.918444 
L 94.346335 69.158397 
L 95.798278 119.669434 
L 96.52425 131.233194 
L 97.250222 218.157133 
L 97.976194 181.15572 
L 98.702165 107.841235 
L 99.428137 120.18324 
L 100.154109 109.614005 
L 100.88008 177.402066 
L 101.606052 154.469535 
L 102.332024 124.003082 
L 103.057995 155.75341 
L 103.783967 145.643135 
L 104.509939 123.334587 
L 105.235911 141.452597 
L 105.961882 148.26537 
L 106.687854 133.814145 
L 107.413826 86.924168 
L 108.139797 163.291467 
L 108.865769 161.239662 
L 109.591741 110.820599 
L 110.317712 145.806576 
L 111.043684 169.807364 
L 111.769656 152.627441 
L 112.495628 150.195001 
L 113.221599 114.946569 
L 113.947571 183.176544 
L 115.399514 78.039701 
L 116.125486 108.47629 
L 116.851458 218.063121 
L 117.57743 156.293508 
L 118.303401 133.192865 
L 119.029373 175.176809 
L 119.755345 146.264856 
L 120.481316 169.137574 
L 121.207288 210.649331 
L 121.93326 77.414009 
L 123.385203 193.175942 
L 124.111175 99.896658 
L 124.837147 185.837499 
L 125.563118 103.50022 
L 126.28909 98.494558 
L 127.015062 48.399322 
L 127.741033 132.571529 
L 128.467005 138.772353 
L 129.192977 149.688984 
L 129.918948 149.306165 
L 130.64492 159.831815 
L 131.370892 146.538521 
L 132.096864 190.767276 
L 132.822835 140.642652 
L 133.548807 143.340067 
L 134.274779 131.085737 
L 135.00075 137.378709 
L 135.726722 164.754985 
L 136.452694 150.868455 
L 137.178665 143.777787 
L 137.904637 208.945764 
L 138.630609 155.090612 
L 139.356581 174.624644 
L 140.082552 179.211452 
L 140.808524 152.217321 
L 141.534496 147.662347 
L 142.260467 159.970709 
L 142.986439 147.925473 
L 144.438383 152.634176 
L 145.164354 146.749883 
L 145.890326 126.107353 
L 146.616298 142.442762 
L 147.342269 143.155357 
L 148.068241 146.842577 
L 148.794213 129.791069 
L 149.520184 150.521761 
L 150.246156 159.153793 
L 150.972128 143.543107 
L 151.6981 145.970801 
L 152.424071 165.90763 
L 153.150043 113.178064 
L 153.876015 74.546938 
L 154.601986 138.044367 
L 156.05393 109.609449 
L 156.779901 155.133963 
L 157.505873 150.098678 
L 158.231845 148.92765 
L 158.957817 89.84905 
L 159.683788 103.348821 
L 160.40976 145.802894 
L 161.861703 137.939128 
L 162.587675 123.468719 
L 163.313647 145.039968 
L 164.039618 144.149941 
L 164.76559 139.277514 
L 165.491562 136.985976 
L 166.217534 187.095606 
L 166.943505 136.186743 
L 167.669477 208.877168 
L 168.395449 62.039126 
L 169.12142 114.894203 
L 169.847392 218.138652 
L 170.573364 183.722548 
L 171.299336 154.89146 
L 172.025307 99.350352 
L 172.751279 144.013425 
L 173.477251 170.810114 
L 174.203222 179.553073 
L 174.929194 100.529334 
L 175.655166 254.338278 
L 176.381137 86.812262 
L 177.107109 97.616578 
L 177.833081 253.63183 
L 178.559053 100.274029 
L 179.285024 59.88432 
L 180.010996 70.959 
L 180.736968 124.993652 
L 181.462939 251.955971 
L 182.188911 141.49539 
L 182.914883 101.813793 
L 183.640854 139.235429 
L 184.366826 120.871264 
L 185.092798 253.604504 
L 185.81877 161.943904 
L 186.544741 98.914459 
L 187.270713 153.982673 
L 187.996685 133.79235 
L 188.722656 146.906256 
L 189.448628 187.882585 
L 190.1746 55.023681 
L 190.900571 58.248962 
L 191.626543 171.95301 
L 192.352515 181.646098 
L 193.078487 130.937798 
L 193.804458 133.19832 
L 194.53043 141.661603 
L 195.256402 132.329047 
L 195.982373 147.687443 
L 196.708345 138.849435 
L 197.434317 143.185897 
L 198.160289 140.593028 
L 198.88626 135.222337 
L 199.612232 145.335966 
L 200.338204 100.804083 
L 201.064175 130.031774 
L 201.790147 113.653175 
L 202.516119 123.03916 
L 203.24209 149.225965 
L 203.968062 136.605965 
L 204.694034 169.253849 
L 205.420006 175.122544 
L 206.145977 214.958609 
L 206.871949 178.493237 
L 207.597921 150.567592 
L 208.323892 177.198577 
L 209.049864 210.551287 
L 209.775836 205.63463 
L 210.501807 162.963122 
L 211.227779 144.629893 
L 211.953751 168.88097 
L 212.679723 183.72435 
L 214.131666 139.999954 
L 214.857638 168.998928 
L 215.583609 162.974031 
L 216.309581 191.525047 
L 217.035553 135.489427 
L 217.761524 127.827386 
L 218.487496 161.48841 
L 219.213468 144.867304 
L 219.93944 168.7569 
L 220.665411 184.893523 
L 221.391383 154.452138 
L 222.117355 160.823496 
L 222.843326 150.837819 
L 224.29527 182.053761 
L 225.021242 155.114451 
L 225.747213 148.256797 
L 226.473185 147.145072 
L 227.199157 142.105292 
L 227.925128 162.147398 
L 228.6511 156.913991 
L 229.377072 155.199178 
L 230.103043 167.448336 
L 230.829015 144.351638 
L 231.554987 166.353801 
L 232.280959 142.194395 
L 233.00693 171.734421 
L 233.732902 66.421261 
L 234.458874 132.159175 
L 235.184845 170.042232 
L 235.910817 112.651169 
L 236.636789 214.990905 
L 237.36276 160.663663 
L 238.088732 173.533656 
L 238.814704 193.63765 
L 239.540676 138.943787 
L 240.266647 104.086459 
L 240.992619 61.568347 
L 241.718591 138.325255 
L 242.444562 152.363541 
L 243.896506 170.653013 
L 244.622477 163.096065 
L 245.348449 165.658826 
L 246.074421 141.1797 
L 246.800393 86.830268 
L 247.526364 145.726703 
L 248.252336 169.325965 
L 248.978308 112.658397 
L 249.704279 139.323243 
L 250.430251 234.924138 
L 251.156223 87.358507 
L 251.882195 150.100759 
L 252.608166 136.215209 
L 253.334138 148.240089 
L 254.786081 114.409519 
L 255.512053 170.804179 
L 256.238025 156.695379 
L 256.963996 126.142203 
L 257.689968 104.097284 
L 258.41594 158.701066 
L 259.141912 199.08287 
L 259.867883 104.698572 
L 260.593855 139.323741 
L 261.319827 149.426935 
L 262.045798 144.683688 
L 262.77177 110.392456 
L 263.497742 136.785874 
L 264.223713 55.582655 
L 264.949685 139.432662 
L 265.675657 145.560791 
L 266.401629 130.840907 
L 267.1276 215.80292 
L 267.853572 60.87555 
L 268.579544 157.946031 
L 269.305515 198.225542 
L 270.031487 138.006436 
L 270.757459 126.290474 
L 271.48343 131.81435 
L 272.209402 170.430118 
L 272.935374 154.956447 
L 273.661346 154.565415 
L 274.387317 145.68547 
L 275.113289 76.448446 
L 275.839261 121.173883 
L 276.565232 108.545676 
L 277.291204 193.635991 
L 278.743148 105.597825 
L 279.469119 162.201511 
L 280.195091 235.853695 
L 280.921063 148.600678 
L 281.647034 258.739548 
L 282.373006 135.150449 
L 283.098978 237.394477 
L 283.824949 94.682862 
L 284.550921 118.477283 
L 285.276893 265.707148 
L 286.002865 90.359274 
L 286.728836 98.86789 
L 287.454808 228.466082 
L 288.18078 100.561735 
L 288.906751 143.033387 
L 289.632723 271.498765 
L 290.358695 156.932338 
L 291.084666 212.770338 
L 291.810638 155.786295 
L 292.53661 138.703256 
L 293.262582 144.576572 
L 293.988553 130.561772 
L 294.714525 210.773124 
L 295.440497 147.271638 
L 296.166468 148.590656 
L 296.89244 166.906642 
L 297.618412 71.601171 
L 298.344383 73.985328 
L 299.070355 144.114992 
L 299.796327 124.857928 
L 300.522299 128.556145 
L 301.24827 173.727309 
L 301.974242 115.239128 
L 302.700214 92.788971 
L 303.426185 139.779346 
L 304.152157 231.995646 
L 304.878129 188.349337 
L 305.604101 234.529061 
L 306.330072 70.505376 
L 307.056044 103.77795 
L 307.782016 103.919994 
L 308.507987 232.269893 
L 309.233959 158.798313 
L 309.959931 134.683508 
L 310.685902 147.883831 
L 311.411874 134.639203 
L 312.137846 157.110379 
L 313.589789 123.975499 
L 314.315761 160.254212 
L 315.041733 180.660953 
L 315.767704 173.436565 
L 316.493676 114.725722 
L 317.219648 124.598247 
L 317.945619 148.836461 
L 318.671591 147.6985 
L 319.397563 214.344408 
L 320.123535 92.58752 
L 320.849506 136.208258 
L 321.575478 133.844226 
L 322.30145 146.444648 
L 323.027421 167.767503 
L 323.753393 157.237389 
L 324.479365 155.644499 
L 325.205336 133.011719 
L 325.931308 118.889765 
L 326.65728 152.126131 
L 327.383252 168.704662 
L 328.109223 99.987078 
L 328.835195 97.427115 
L 329.561167 178.707834 
L 330.287138 166.429581 
L 331.01311 136.339699 
L 331.739082 128.801927 
L 332.465054 149.598722 
L 333.191025 73.475376 
L 333.916997 140.667033 
L 334.642969 129.764234 
L 335.36894 100.347453 
L 336.094912 153.369002 
L 336.820884 77.696329 
L 337.546855 117.739743 
L 338.272827 101.332322 
L 338.998799 157.010526 
L 340.450742 121.878178 
L 341.176714 147.573732 
L 341.902686 127.845697 
L 342.628657 145.450267 
L 343.354629 103.717833 
L 344.080601 126.04672 
L 344.806572 176.794693 
L 345.532544 148.785157 
L 346.258516 154.276314 
L 346.984488 175.350831 
L 347.710459 154.860632 
L 348.436431 216.245308 
L 349.162403 130.262505 
L 349.888374 248.185434 
L 350.614346 179.523535 
L 351.340318 171.306705 
L 352.066289 165.748077 
L 352.792261 132.643879 
L 353.518233 131.169134 
L 354.244205 127.401571 
L 354.970176 165.899516 
L 355.696148 135.679659 
L 356.42212 184.818522 
L 357.148091 152.349653 
L 357.874063 152.563065 
L 358.600035 138.112926 
L 359.326007 176.068816 
L 360.051978 166.942157 
L 360.77795 141.173459 
L 361.503922 132.416659 
L 362.229893 113.728277 
L 362.955865 156.14902 
L 363.681837 90.394787 
L 364.407808 78.556816 
L 365.13378 124.221346 
L 365.859752 109.735021 
L 366.585724 134.887773 
L 367.311695 188.727133 
L 368.037667 116.639258 
L 368.763639 144.832469 
L 369.48961 95.215854 
L 370.215582 82.660202 
L 370.941554 150.124343 
L 371.667525 81.831339 
L 372.393497 191.797156 
L 373.119469 200.092974 
L 373.845441 161.219516 
L 374.571412 131.903378 
L 375.297384 126.594236 
L 376.023356 189.974009 
L 376.749327 90.653914 
L 377.475299 194.589928 
L 378.927242 127.209502 
L 379.653214 165.560463 
L 380.379186 101.687643 
L 381.105158 149.001342 
L 381.831129 171.049034 
L 382.557101 158.460736 
L 383.283073 129.38812 
L 384.009044 145.814182 
L 384.735016 184.946784 
L 385.460988 108.67455 
L 386.18696 62.223778 
L 386.912931 73.773531 
L 387.638903 55.356707 
L 388.364875 77.46675 
L 389.090846 90.330814 
L 389.816818 226.557148 
L 390.54279 157.426374 
L 391.268761 224.919294 
L 391.994733 102.226138 
L 392.720705 48.735773 
L 393.446677 167.689404 
L 394.172648 112.073812 
L 394.89862 124.677518 
L 395.624592 102.028928 
L 396.350563 89.060035 
L 397.076535 228.497687 
L 397.802507 118.015195 
L 398.528478 207.537115 
L 399.25445 96.843137 
L 399.980422 69.580648 
L 400.706394 148.212664 
L 401.432365 209.924694 
L 402.158337 66.954726 
L 402.884309 60.995252 
L 403.61028 132.154435 
L 404.336252 216.933463 
L 405.062224 138.963612 
L 405.788195 185.033222 
L 406.514167 164.109426 
L 407.240139 128.628802 
L 407.966111 108.355879 
L 408.692082 136.992527 
L 409.418054 139.602678 
L 410.144026 172.828877 
L 410.869997 67.3577 
L 411.595969 79.148268 
L 412.321941 144.210774 
L 413.047913 154.305085 
L 413.773884 61.407562 
L 414.499856 111.623564 
L 415.225828 46.089083 
L 415.951799 89.316301 
L 416.677771 65.590828 
L 417.403743 184.596029 
L 418.129714 130.702488 
L 418.855686 222.405298 
L 419.581658 54.098991 
L 420.30763 99.172387 
L 421.033601 104.343099 
L 421.759573 118.365127 
L 422.485545 113.827194 
L 423.211516 153.625262 
L 423.937488 84.765775 
L 424.66346 181.589978 
L 425.389431 122.836507 
L 426.115403 211.280061 
L 426.841375 100.774556 
L 427.567347 56.659206 
L 429.01929 193.74498 
L 429.745262 127.662987 
L 430.471233 215.153415 
L 431.197205 106.389914 
L 431.923177 136.328262 
L 432.649148 107.489264 
L 433.37512 183.524287 
L 434.101092 46.475192 
L 434.827064 68.600471 
L 435.553035 95.447804 
L 436.279007 201.425586 
L 437.004979 153.874601 
L 437.73095 192.949661 
L 438.456922 142.118696 
L 439.182894 174.712576 
L 439.908866 67.599594 
L 440.634837 86.246438 
L 441.360809 65.145133 
L 442.086781 84.529077 
L 442.812752 178.042611 
L 443.538724 138.926702 
L 444.264696 186.836687 
L 444.990667 106.121525 
L 445.716639 197.60352 
L 446.442611 98.847045 
L 447.168583 107.254228 
L 447.894554 130.117417 
L 448.620526 90.740456 
L 449.346498 154.165276 
L 450.072469 57.833606 
L 450.798441 94.169641 
L 451.524413 102.749277 
L 452.250384 118.792966 
L 452.976356 165.868589 
L 453.702328 104.560464 
L 454.4283 171.185301 
L 455.154271 98.114488 
L 455.880243 166.969807 
L 456.606215 75.425312 
L 457.332186 101.753076 
L 458.058158 102.047481 
L 458.78413 165.114169 
L 459.510101 108.984079 
L 460.236073 179.874189 
L 460.962045 46.251911 
L 461.688017 128.603668 
L 462.413988 121.33788 
L 463.13996 169.212752 
L 463.865932 57.5328 
L 464.591903 79.780329 
L 464.591903 79.780329 
" style="fill:none;stroke:#ff7f0e;stroke-linecap:square;stroke-width:1.5;"/>
   </g>
   <g id="line2d_3">
    <path clip-path="url(#p0dd11ced55)" d="M 58.773722 165.295919 
L 59.499693 143.140389 
L 60.225665 150.489706 
L 60.951637 136.787075 
L 61.677608 175.226769 
L 62.40358 151.638865 
L 63.129552 134.316919 
L 63.855524 56.644677 
L 64.581495 152.321514 
L 65.307467 101.284037 
L 66.033439 140.80648 
L 66.75941 115.40807 
L 67.485382 163.757226 
L 68.211354 106.43045 
L 68.937325 129.811567 
L 69.663297 202.444277 
L 70.389269 152.212722 
L 71.115241 265.088687 
L 71.841212 154.328894 
L 72.567184 244.55787 
L 73.293156 53.191671 
L 74.019127 121.946693 
L 74.745099 235.841555 
L 75.471071 164.767664 
L 76.197042 202.59046 
L 76.923014 119.461772 
L 77.648986 89.397234 
L 79.100929 134.071482 
L 79.826901 214.804947 
L 80.552873 154.170577 
L 81.278844 143.366472 
L 82.004816 159.165594 
L 82.730788 55.48091 
L 83.456759 136.848068 
L 84.182731 169.233124 
L 84.908703 140.975458 
L 85.634675 205.026556 
L 86.360646 135.135441 
L 87.086618 161.399241 
L 87.81259 126.818235 
L 88.538561 74.602624 
L 89.264533 116.392694 
L 90.716477 143.217334 
L 91.442448 68.968164 
L 92.16842 152.001827 
L 92.894392 261.34756 
L 93.620363 162.57022 
L 94.346335 172.556141 
L 95.072307 154.605028 
L 95.798278 197.984399 
L 96.52425 55.915483 
L 97.250222 45.275135 
L 97.976194 179.917832 
L 98.702165 245.430094 
L 99.428137 62.353973 
L 100.154109 105.085676 
L 100.88008 122.041744 
L 101.606052 143.182624 
L 102.332024 136.372738 
L 103.057995 148.292379 
L 103.783967 181.388878 
L 104.509939 164.180763 
L 105.235911 180.403314 
L 105.961882 171.073293 
L 106.687854 136.177097 
L 107.413826 140.365122 
L 108.139797 161.702888 
L 108.865769 168.565362 
L 109.591741 159.554659 
L 110.317712 155.523524 
L 111.043684 173.146253 
L 111.769656 164.365779 
L 112.495628 193.015641 
L 113.221599 89.968659 
L 113.947571 142.224243 
L 114.673543 153.173786 
L 115.399514 85.803734 
L 116.125486 151.05726 
L 116.851458 227.724947 
L 117.57743 131.725506 
L 118.303401 146.681426 
L 119.029373 130.845701 
L 119.755345 141.467361 
L 120.481316 147.152937 
L 121.207288 166.090818 
L 121.93326 166.532974 
L 122.659231 145.980808 
L 123.385203 154.093111 
L 124.111175 160.692201 
L 124.837147 179.02644 
L 125.563118 143.950697 
L 126.28909 100.7479 
L 127.015062 164.367602 
L 127.741033 107.895316 
L 128.467005 153.924778 
L 129.192977 143.471379 
L 129.918948 139.880035 
L 130.64492 157.975687 
L 131.370892 155.253565 
L 132.096864 125.519715 
L 132.822835 142.421912 
L 133.548807 179.498275 
L 134.274779 160.962843 
L 135.00075 136.500453 
L 136.452694 168.559244 
L 137.178665 174.933027 
L 137.904637 178.022784 
L 138.630609 147.06025 
L 139.356581 162.815201 
L 140.082552 141.726093 
L 140.808524 163.168039 
L 141.534496 158.823029 
L 142.260467 74.721964 
L 142.986439 114.996355 
L 143.712411 264.805955 
L 144.438383 150.611316 
L 145.164354 116.235455 
L 145.890326 165.780677 
L 146.616298 135.797905 
L 147.342269 135.584964 
L 148.068241 199.830601 
L 148.794213 179.903347 
L 149.520184 151.638061 
L 150.246156 179.913503 
L 150.972128 147.478387 
L 151.6981 172.550762 
L 152.424071 120.058746 
L 153.150043 98.504854 
L 153.876015 93.733687 
L 154.601986 79.683128 
L 155.327958 117.958985 
L 156.05393 100.952959 
L 156.779901 142.965729 
L 157.505873 128.080357 
L 158.231845 172.0523 
L 158.957817 141.808791 
L 159.683788 153.647425 
L 160.40976 155.725791 
L 161.135732 136.419028 
L 161.861703 184.746735 
L 162.587675 94.876045 
L 163.313647 63.844317 
L 164.039618 150.909391 
L 164.76559 169.690726 
L 165.491562 144.708249 
L 166.217534 174.742756 
L 166.943505 145.733176 
L 167.669477 176.980513 
L 168.395449 146.739186 
L 169.12142 192.315897 
L 169.847392 165.350448 
L 170.573364 247.959672 
L 171.299336 54.80906 
L 172.025307 40.826955 
L 172.751279 144.79053 
L 173.477251 166.197341 
L 174.203222 194.304027 
L 174.929194 106.440253 
L 175.655166 77.002294 
L 176.381137 114.397712 
L 177.107109 145.856901 
L 177.833081 163.437591 
L 178.559053 255.291865 
L 179.285024 206.7949 
L 180.010996 229.37999 
L 180.736968 140.954099 
L 181.462939 247.313389 
L 182.188911 112.506955 
L 182.914883 151.697728 
L 183.640854 105.089732 
L 184.366826 140.603995 
L 185.092798 89.737596 
L 185.81877 109.753229 
L 186.544741 214.05793 
L 187.270713 46.806162 
L 188.722656 248.412319 
L 190.1746 92.851778 
L 190.900571 97.014494 
L 191.626543 182.773671 
L 192.352515 163.477086 
L 193.078487 257.79932 
L 193.804458 52.043263 
L 194.53043 134.145399 
L 195.256402 137.805825 
L 195.982373 160.296714 
L 196.708345 137.388974 
L 197.434317 120.39439 
L 198.160289 64.255953 
L 198.88626 171.784337 
L 199.612232 111.613755 
L 200.338204 98.675842 
L 201.064175 189.104957 
L 201.790147 237.058385 
L 202.516119 124.405835 
L 203.24209 145.059807 
L 204.694034 60.970135 
L 205.420006 151.094745 
L 206.145977 204.436919 
L 206.871949 135.305964 
L 207.597921 121.801792 
L 208.323892 183.625581 
L 209.049864 157.300639 
L 209.775836 137.803509 
L 210.501807 189.994447 
L 211.227779 166.684664 
L 211.953751 238.89825 
L 212.679723 76.274632 
L 213.405694 157.432294 
L 214.131666 208.266591 
L 214.857638 120.231484 
L 215.583609 119.715111 
L 216.309581 132.77267 
L 217.035553 100.706532 
L 217.761524 118.853827 
L 218.487496 243.199788 
L 219.213468 160.611126 
L 219.93944 128.656297 
L 220.665411 153.801534 
L 221.391383 220.615984 
L 222.117355 138.823549 
L 222.843326 132.4842 
L 223.569298 164.650743 
L 224.29527 135.183799 
L 225.021242 155.395624 
L 225.747213 152.739091 
L 226.473185 140.765985 
L 227.199157 164.805102 
L 227.925128 159.214235 
L 228.6511 188.813736 
L 229.377072 131.932911 
L 230.103043 253.545724 
L 230.829015 168.524063 
L 231.554987 265.785723 
L 232.280959 137.229298 
L 233.00693 123.585867 
L 233.732902 124.468029 
L 234.458874 155.68532 
L 235.184845 141.463176 
L 235.910817 109.124018 
L 236.636789 219.883764 
L 237.36276 65.360363 
L 238.814704 256.047541 
L 239.540676 145.648365 
L 240.266647 103.254751 
L 240.992619 143.650833 
L 241.718591 213.939951 
L 242.444562 59.75124 
L 243.170534 53.918448 
L 243.896506 134.658551 
L 244.622477 231.154304 
L 245.348449 165.200425 
L 246.074421 115.34149 
L 246.800393 102.44318 
L 247.526364 138.255199 
L 248.252336 151.661032 
L 248.978308 106.988179 
L 249.704279 171.001332 
L 250.430251 249.653693 
L 251.156223 81.877372 
L 251.882195 168.501293 
L 252.608166 127.207427 
L 253.334138 125.939669 
L 254.06011 118.197766 
L 254.786081 148.076341 
L 255.512053 159.922475 
L 256.238025 149.223756 
L 256.963996 52.822762 
L 257.689968 177.602772 
L 258.41594 151.045685 
L 259.141912 139.652985 
L 259.867883 108.935919 
L 260.593855 98.188768 
L 261.319827 145.90216 
L 262.045798 157.596041 
L 262.77177 153.064783 
L 263.497742 258.4372 
L 264.223713 141.936755 
L 264.949685 169.1874 
L 265.675657 134.582338 
L 266.401629 210.075743 
L 267.1276 166.55981 
L 267.853572 147.479357 
L 268.579544 122.286745 
L 269.305515 136.674772 
L 270.031487 124.827632 
L 270.757459 174.172122 
L 271.48343 159.546869 
L 272.209402 142.445083 
L 272.935374 88.874469 
L 273.661346 138.766773 
L 274.387317 129.764322 
L 275.113289 113.188228 
L 275.839261 174.541317 
L 276.565232 134.489595 
L 277.291204 251.151315 
L 278.017176 134.577053 
L 278.743148 88.241522 
L 279.469119 177.999571 
L 280.195091 196.782343 
L 280.921063 179.111235 
L 281.647034 210.528236 
L 282.373006 132.314065 
L 283.098978 204.640339 
L 283.824949 95.253228 
L 284.550921 129.570408 
L 285.276893 99.979375 
L 286.002865 113.878276 
L 286.728836 147.398951 
L 287.454808 193.305659 
L 288.18078 99.767566 
L 288.906751 145.946506 
L 289.632723 169.234387 
L 290.358695 168.316273 
L 291.084666 165.122007 
L 291.810638 137.02439 
L 292.53661 131.971732 
L 293.262582 162.782169 
L 293.988553 134.865451 
L 294.714525 182.747528 
L 295.440497 159.826119 
L 296.166468 178.399484 
L 296.89244 141.086814 
L 297.618412 169.916797 
L 298.344383 63.113825 
L 299.070355 175.183865 
L 299.796327 154.859972 
L 300.522299 191.394556 
L 301.24827 164.252347 
L 301.974242 108.172257 
L 302.700214 147.535651 
L 303.426185 149.47523 
L 304.152157 149.356104 
L 304.878129 225.231791 
L 305.604101 182.159198 
L 306.330072 247.329226 
L 307.056044 105.331224 
L 307.782016 116.165734 
L 308.507987 239.893947 
L 309.233959 145.92103 
L 309.959931 156.989055 
L 310.685902 139.381187 
L 311.411874 152.160373 
L 312.137846 118.016634 
L 312.863818 151.756973 
L 313.589789 170.589109 
L 314.315761 128.129766 
L 315.041733 164.931624 
L 315.767704 146.495514 
L 316.493676 148.249869 
L 317.219648 201.367931 
L 317.945619 120.737024 
L 318.671591 135.178131 
L 319.397563 161.991344 
L 320.123535 89.840364 
L 320.849506 142.422772 
L 321.575478 156.86573 
L 322.30145 182.274175 
L 323.027421 155.728985 
L 323.753393 134.684019 
L 324.479365 158.426377 
L 325.205336 169.088115 
L 325.931308 138.72303 
L 326.65728 131.326222 
L 327.383252 95.476701 
L 328.109223 151.983719 
L 328.835195 158.280065 
L 329.561167 60.689635 
L 330.287138 187.421331 
L 331.01311 111.265511 
L 331.739082 92.057496 
L 332.465054 187.411628 
L 333.191025 138.817211 
L 333.916997 105.622676 
L 334.642969 62.884439 
L 336.094912 207.031651 
L 336.820884 58.415703 
L 337.546855 39.931102 
L 338.272827 72.685536 
L 338.998799 134.316681 
L 339.724771 132.845539 
L 340.450742 97.014102 
L 341.176714 137.873315 
L 341.902686 160.441969 
L 342.628657 158.516893 
L 343.354629 163.18438 
L 344.080601 128.877063 
L 344.806572 101.576728 
L 345.532544 99.002767 
L 346.984488 215.673892 
L 347.710459 112.329543 
L 348.436431 157.31267 
L 349.888374 112.979952 
L 350.614346 244.312822 
L 351.340318 175.166063 
L 352.066289 157.905672 
L 352.792261 110.164109 
L 353.518233 167.542888 
L 354.244205 167.156801 
L 355.696148 96.7995 
L 356.42212 237.722077 
L 357.148091 157.982685 
L 357.874063 143.040411 
L 358.600035 140.697796 
L 359.326007 124.87967 
L 360.051978 135.780646 
L 360.77795 159.246601 
L 361.503922 158.716908 
L 362.229893 144.514322 
L 362.955865 176.903481 
L 363.681837 86.61324 
L 364.407808 160.622818 
L 365.13378 132.75872 
L 365.859752 120.676499 
L 366.585724 156.191872 
L 367.311695 168.080594 
L 368.037667 116.901383 
L 368.763639 152.067065 
L 369.48961 174.97568 
L 370.215582 194.327825 
L 370.941554 127.326701 
L 371.667525 129.534728 
L 372.393497 197.360677 
L 373.119469 158.539466 
L 373.845441 83.182557 
L 374.571412 107.411987 
L 375.297384 120.911727 
L 376.023356 96.313051 
L 376.749327 64.653393 
L 377.475299 141.314781 
L 378.201271 173.814459 
L 378.927242 122.415204 
L 379.653214 145.835263 
L 380.379186 156.007446 
L 381.105158 150.771339 
L 381.831129 148.852559 
L 382.557101 135.149506 
L 383.283073 134.693962 
L 384.009044 219.741414 
L 384.735016 166.214659 
L 385.460988 150.745383 
L 386.18696 146.79818 
L 386.912931 122.030723 
L 387.638903 232.749569 
L 388.364875 141.314605 
L 389.090846 80.301672 
L 389.816818 104.199681 
L 390.54279 117.552511 
L 391.268761 133.499954 
L 391.994733 169.663956 
L 392.720705 150.439487 
L 393.446677 156.249317 
L 394.89862 127.565396 
L 395.624592 150.384657 
L 397.076535 174.840259 
L 398.528478 130.782372 
L 399.25445 52.678185 
L 399.980422 82.847874 
L 400.706394 138.277213 
L 401.432365 164.973872 
L 402.158337 132.239085 
L 402.884309 165.018666 
L 404.336252 86.226717 
L 405.062224 230.39635 
L 405.788195 183.479217 
L 406.514167 210.927367 
L 407.240139 70.1901 
L 407.966111 147.804489 
L 408.692082 143.536528 
L 409.418054 140.267294 
L 410.144026 80.34504 
L 410.869997 148.285681 
L 411.595969 138.534132 
L 412.321941 132.521354 
L 413.047913 48.380207 
L 413.773884 159.363812 
L 414.499856 140.143885 
L 415.225828 162.12046 
L 415.951799 84.145504 
L 416.677771 145.668241 
L 417.403743 178.060909 
L 418.129714 132.083466 
L 418.855686 161.30831 
L 419.581658 61.995439 
L 420.30763 82.574894 
L 421.033601 86.442413 
L 421.759573 108.94379 
L 422.485545 198.362078 
L 423.211516 179.201373 
L 423.937488 205.589945 
L 424.66346 49.303574 
L 425.389431 117.038125 
L 426.115403 233.119464 
L 426.841375 111.948906 
L 427.567347 66.566051 
L 429.01929 204.149705 
L 429.745262 151.286396 
L 430.471233 216.632855 
L 431.197205 103.211823 
L 431.923177 152.792175 
L 432.649148 113.750008 
L 433.37512 168.658813 
L 434.101092 91.610896 
L 434.827064 215.301055 
L 435.553035 75.514748 
L 436.279007 57.340986 
L 437.004979 74.100044 
L 437.73095 74.149677 
L 438.456922 60.044682 
L 439.182894 77.538425 
L 440.634837 157.909698 
L 441.360809 47.215204 
L 442.086781 89.010308 
L 442.812752 178.329979 
L 443.538724 111.13622 
L 444.264696 185.158285 
L 444.990667 101.926487 
L 445.716639 195.356473 
L 446.442611 95.941401 
L 447.168583 118.029199 
L 447.894554 101.743394 
L 448.620526 76.467112 
L 449.346498 149.937001 
L 450.072469 62.195255 
L 450.798441 87.291184 
L 451.524413 90.881619 
L 452.250384 118.074954 
L 452.976356 176.854805 
L 453.702328 48.904552 
L 454.4283 130.814064 
L 455.154271 188.843454 
L 455.880243 79.205458 
L 456.606215 61.110329 
L 457.332186 115.046108 
L 458.058158 129.268773 
L 458.78413 137.17184 
L 459.510101 77.641473 
L 460.236073 183.188116 
L 460.962045 73.246359 
L 461.688017 119.846298 
L 462.413988 132.786033 
L 463.13996 169.522734 
L 463.865932 116.601152 
L 464.591903 145.914035 
L 464.591903 145.914035 
" style="fill:none;stroke:#2ca02c;stroke-linecap:square;stroke-width:1.5;"/>
   </g>
   <g id="line2d_4">
    <path clip-path="url(#p0dd11ced55)" d="M 58.773722 154.283165 
L 59.499693 177.340863 
L 60.225665 65.91356 
L 60.951637 148.590347 
L 61.677608 86.916438 
L 62.40358 145.191629 
L 63.129552 173.129792 
L 63.855524 182.823953 
L 64.581495 132.37458 
L 65.307467 138.458084 
L 66.033439 141.753677 
L 66.75941 140.982815 
L 67.485382 106.909378 
L 68.211354 149.069204 
L 68.937325 110.686143 
L 69.663297 171.003697 
L 70.389269 183.013841 
L 71.115241 95.913624 
L 71.841212 154.202148 
L 72.567184 281.76358 
L 73.293156 72.098216 
L 74.019127 131.590846 
L 74.745099 265.583014 
L 75.471071 188.917142 
L 76.197042 177.006568 
L 76.923014 208.149709 
L 77.648986 186.881441 
L 78.374958 69.935054 
L 79.100929 153.197124 
L 79.826901 262.159447 
L 80.552873 79.348492 
L 81.278844 122.523905 
L 82.004816 125.222699 
L 82.730788 135.863641 
L 83.456759 178.017736 
L 84.182731 60.862776 
L 84.908703 156.351097 
L 85.634675 141.747159 
L 86.360646 174.143649 
L 87.086618 117.956541 
L 87.81259 166.557629 
L 88.538561 201.084832 
L 89.264533 197.627006 
L 89.990505 154.19868 
L 90.716477 151.65402 
L 91.442448 191.290426 
L 92.16842 152.678003 
L 92.894392 269.700915 
L 93.620363 188.633081 
L 94.346335 124.908022 
L 95.072307 152.873717 
L 95.798278 100.358829 
L 96.52425 111.609607 
L 97.250222 204.493085 
L 97.976194 108.538062 
L 98.702165 97.213895 
L 99.428137 162.800953 
L 100.154109 40.429706 
L 100.88008 111.15737 
L 101.606052 154.811982 
L 102.332024 145.899699 
L 103.057995 218.76269 
L 103.783967 153.489466 
L 104.509939 166.851943 
L 105.235911 79.88335 
L 105.961882 66.362524 
L 106.687854 139.88064 
L 107.413826 165.115686 
L 108.139797 143.54698 
L 108.865769 176.932546 
L 109.591741 111.023197 
L 110.317712 63.982045 
L 111.043684 167.516908 
L 111.769656 185.14453 
L 112.495628 131.520251 
L 113.221599 162.727315 
L 113.947571 155.248543 
L 114.673543 125.841971 
L 115.399514 144.333105 
L 116.125486 154.24273 
L 116.851458 147.936533 
L 117.57743 135.136171 
L 118.303401 162.998388 
L 119.029373 181.317331 
L 119.755345 213.25178 
L 120.481316 51.517702 
L 121.207288 45.075251 
L 121.93326 185.082477 
L 122.659231 123.959367 
L 123.385203 134.530393 
L 124.111175 94.914212 
L 124.837147 104.071325 
L 125.563118 55.434563 
L 126.28909 140.934372 
L 127.015062 177.02926 
L 127.741033 93.720956 
L 128.467005 152.220113 
L 129.192977 138.602056 
L 129.918948 172.253774 
L 130.64492 144.284771 
L 131.370892 157.517707 
L 132.096864 174.025516 
L 132.822835 159.291839 
L 133.548807 254.969836 
L 134.274779 165.488886 
L 135.00075 134.027878 
L 135.726722 196.426685 
L 136.452694 146.808963 
L 137.178665 136.969624 
L 137.904637 116.104632 
L 138.630609 152.980708 
L 139.356581 183.222929 
L 140.082552 77.046191 
L 140.808524 143.914419 
L 141.534496 141.563462 
L 142.260467 129.669436 
L 142.986439 145.269017 
L 143.712411 171.320507 
L 144.438383 178.046453 
L 145.164354 141.910381 
L 145.890326 142.459175 
L 146.616298 144.576397 
L 147.342269 159.615869 
L 148.068241 159.168788 
L 148.794213 168.61066 
L 149.520184 163.456867 
L 150.246156 169.774705 
L 150.972128 180.294947 
L 151.6981 95.533133 
L 152.424071 98.142215 
L 153.150043 154.28644 
L 153.876015 171.917344 
L 154.601986 156.74025 
L 155.327958 154.28147 
L 156.05393 194.279563 
L 157.505873 124.894643 
L 158.231845 159.30019 
L 158.957817 117.390446 
L 159.683788 171.365481 
L 160.40976 164.804427 
L 161.135732 125.608342 
L 161.861703 185.187017 
L 162.587675 144.137375 
L 163.313647 158.090547 
L 164.039618 188.730521 
L 164.76559 148.377805 
L 165.491562 156.172728 
L 166.217534 177.635085 
L 166.943505 155.676494 
L 167.669477 176.021915 
L 168.395449 158.408372 
L 169.12142 165.853135 
L 169.847392 126.591363 
L 170.573364 179.326021 
L 171.299336 244.510258 
L 172.025307 184.160926 
L 172.751279 156.776813 
L 173.477251 164.65722 
L 174.203222 187.465973 
L 174.929194 107.969596 
L 175.655166 87.852599 
L 176.381137 158.688182 
L 177.107109 129.671199 
L 178.559053 204.554039 
L 179.285024 179.833067 
L 180.010996 175.399172 
L 180.736968 118.960278 
L 181.462939 80.039593 
L 182.188911 150.7207 
L 182.914883 164.549388 
L 183.640854 84.325021 
L 184.366826 158.361593 
L 185.092798 141.79467 
L 185.81877 196.161396 
L 186.544741 121.090621 
L 187.270713 144.499029 
L 187.996685 149.930909 
L 188.722656 185.805911 
L 189.448628 155.600473 
L 190.1746 147.985867 
L 190.900571 267.223287 
L 191.626543 83.263476 
L 192.352515 96.761752 
L 193.078487 251.237958 
L 193.804458 58.420602 
L 194.53043 158.334291 
L 195.256402 150.430261 
L 195.982373 161.917823 
L 196.708345 132.703822 
L 197.434317 130.794112 
L 198.160289 75.654037 
L 198.88626 163.717916 
L 199.612232 113.017415 
L 200.338204 90.102984 
L 201.064175 82.285094 
L 201.790147 67.845192 
L 202.516119 104.694383 
L 203.24209 120.814395 
L 204.694034 69.001547 
L 206.145977 243.781749 
L 206.871949 150.969147 
L 207.597921 161.712437 
L 208.323892 138.209575 
L 209.049864 155.914108 
L 209.775836 125.103406 
L 210.501807 172.827829 
L 211.227779 156.519152 
L 211.953751 159.98709 
L 212.679723 223.929194 
L 213.405694 72.15714 
L 214.131666 150.015077 
L 214.857638 148.8755 
L 215.583609 155.262456 
L 216.309581 157.929255 
L 217.035553 195.331462 
L 217.761524 96.070356 
L 218.487496 112.882189 
L 219.213468 97.832825 
L 219.93944 174.232528 
L 220.665411 191.962064 
L 221.391383 148.362028 
L 222.117355 163.198641 
L 222.843326 146.500238 
L 223.569298 141.622236 
L 224.29527 120.226634 
L 225.021242 164.456003 
L 225.747213 216.727773 
L 226.473185 129.394264 
L 227.199157 104.074224 
L 227.925128 154.969619 
L 228.6511 131.957589 
L 229.377072 123.855449 
L 230.103043 113.222693 
L 230.829015 118.170875 
L 231.554987 104.550926 
L 232.280959 86.244145 
L 233.00693 158.27223 
L 233.732902 155.652987 
L 234.458874 157.776716 
L 235.184845 188.476196 
L 235.910817 148.633916 
L 236.636789 191.898426 
L 237.36276 86.158842 
L 238.088732 98.720832 
L 238.814704 120.130709 
L 239.540676 64.864551 
L 240.266647 191.454837 
L 240.992619 143.271386 
L 241.718591 180.169 
L 242.444562 112.252498 
L 243.170534 197.225327 
L 243.896506 125.027238 
L 244.622477 163.592053 
L 245.348449 118.729294 
L 246.074421 121.106359 
L 246.800393 128.843946 
L 247.526364 139.089247 
L 248.252336 160.436941 
L 248.978308 101.424204 
L 249.704279 139.330284 
L 250.430251 257.793768 
L 251.156223 87.338097 
L 251.882195 188.927219 
L 252.608166 110.17855 
L 253.334138 128.605379 
L 254.06011 115.074305 
L 254.786081 127.207082 
L 255.512053 82.856139 
L 256.238025 156.240609 
L 256.963996 177.01146 
L 257.689968 102.638134 
L 258.41594 148.311907 
L 259.141912 237.201923 
L 259.867883 72.988724 
L 260.593855 170.530886 
L 261.319827 242.890524 
L 262.045798 81.75183 
L 262.77177 176.798151 
L 263.497742 252.881884 
L 264.223713 137.14898 
L 264.949685 113.069381 
L 265.675657 147.478165 
L 266.401629 210.739609 
L 267.1276 135.216536 
L 267.853572 135.0349 
L 268.579544 146.745517 
L 269.305515 164.827956 
L 270.031487 206.947452 
L 270.757459 113.356444 
L 271.48343 177.197153 
L 272.209402 216.09451 
L 272.935374 166.557956 
L 273.661346 54.180622 
L 274.387317 144.623733 
L 275.113289 107.141727 
L 275.839261 155.490022 
L 276.565232 120.389751 
L 277.291204 200.117972 
L 278.017176 165.637738 
L 278.743148 104.307362 
L 279.469119 181.049064 
L 280.195091 213.736338 
L 280.921063 180.721172 
L 281.647034 209.547194 
L 282.373006 229.503741 
L 283.098978 152.690755 
L 283.824949 90.76828 
L 284.550921 118.375344 
L 285.276893 213.721637 
L 286.002865 213.067344 
L 286.728836 71.078563 
L 287.454808 42.50229 
L 288.18078 136.612149 
L 288.906751 150.862404 
L 289.632723 179.646363 
L 290.358695 146.889119 
L 291.084666 155.141205 
L 291.810638 166.934578 
L 292.53661 119.91482 
L 293.262582 157.362851 
L 293.988553 155.253392 
L 294.714525 195.705877 
L 295.440497 133.962996 
L 296.166468 139.003543 
L 296.89244 158.547856 
L 297.618412 145.099243 
L 298.344383 145.503769 
L 299.070355 165.340469 
L 299.796327 155.52722 
L 300.522299 174.154247 
L 301.24827 179.35876 
L 301.974242 187.541266 
L 302.700214 158.831117 
L 303.426185 145.013784 
L 304.152157 149.258476 
L 304.878129 178.193384 
L 305.604101 130.663343 
L 306.330072 182.014233 
L 307.056044 189.338653 
L 307.782016 55.698232 
L 308.507987 64.548313 
L 309.233959 153.607304 
L 309.959931 139.597257 
L 310.685902 137.797001 
L 311.411874 138.208765 
L 312.137846 147.669801 
L 312.863818 106.390886 
L 313.589789 128.523856 
L 314.315761 126.933161 
L 315.041733 143.154864 
L 315.767704 174.354064 
L 316.493676 126.439098 
L 317.219648 188.803134 
L 317.945619 162.107942 
L 318.671591 186.142143 
L 319.397563 174.167327 
L 320.123535 154.578825 
L 320.849506 153.998914 
L 321.575478 183.07666 
L 322.30145 48.707068 
L 323.027421 164.786847 
L 324.479365 156.719369 
L 325.205336 220.334384 
L 325.931308 61.996379 
L 326.65728 52.812095 
L 327.383252 168.883285 
L 328.109223 138.284889 
L 328.835195 168.369455 
L 329.561167 243.001265 
L 330.287138 128.811237 
L 331.01311 166.454137 
L 331.739082 103.345767 
L 332.465054 182.171868 
L 333.191025 166.139407 
L 333.916997 81.432352 
L 334.642969 84.256127 
L 335.36894 159.150191 
L 336.094912 213.188839 
L 336.820884 66.025239 
L 337.546855 48.270499 
L 338.272827 52.906502 
L 338.998799 151.993763 
L 339.724771 163.300973 
L 340.450742 126.446576 
L 341.176714 66.347159 
L 341.902686 138.853775 
L 342.628657 173.857976 
L 343.354629 95.533106 
L 344.080601 148.298072 
L 344.806572 175.734957 
L 345.532544 96.538855 
L 346.258516 154.731453 
L 346.984488 244.027969 
L 347.710459 89.560896 
L 348.436431 221.41163 
L 349.162403 72.481656 
L 349.888374 61.488254 
L 350.614346 62.462346 
L 351.340318 191.763066 
L 352.066289 132.481132 
L 352.792261 127.452353 
L 353.518233 159.845666 
L 354.244205 149.051221 
L 354.970176 150.437627 
L 355.696148 94.837353 
L 356.42212 244.068416 
L 357.148091 149.886028 
L 357.874063 155.896908 
L 358.600035 145.222697 
L 359.326007 129.296165 
L 360.77795 164.684488 
L 361.503922 145.117186 
L 362.229893 74.036112 
L 363.681837 249.495482 
L 364.407808 81.247163 
L 365.13378 62.664681 
L 365.859752 143.046128 
L 366.585724 142.18079 
L 367.311695 132.971411 
L 368.037667 103.72814 
L 368.763639 159.482776 
L 369.48961 140.500935 
L 370.215582 204.360419 
L 370.941554 93.940202 
L 371.667525 88.676393 
L 372.393497 241.47677 
L 373.119469 133.20419 
L 373.845441 168.225782 
L 374.571412 110.678034 
L 376.023356 62.538947 
L 376.749327 152.085957 
L 377.475299 140.894495 
L 378.201271 104.53238 
L 378.927242 142.306911 
L 379.653214 173.595902 
L 380.379186 103.612455 
L 381.105158 144.660933 
L 381.831129 160.459034 
L 382.557101 136.668806 
L 383.283073 190.409466 
L 384.009044 181.481188 
L 384.735016 184.392459 
L 385.460988 110.42544 
L 386.18696 94.139326 
L 386.912931 98.545701 
L 387.638903 215.883096 
L 388.364875 176.713778 
L 389.090846 96.557302 
L 389.816818 106.646229 
L 390.54279 57.147731 
L 391.268761 143.933458 
L 391.994733 187.880511 
L 392.720705 135.847805 
L 393.446677 149.248551 
L 394.172648 138.662393 
L 394.89862 172.364022 
L 395.624592 86.883739 
L 396.350563 134.261518 
L 397.076535 129.793581 
L 397.802507 182.468838 
L 398.528478 128.353221 
L 399.25445 95.779572 
L 399.980422 135.090417 
L 400.706394 136.197223 
L 401.432365 174.844198 
L 402.158337 154.454411 
L 402.884309 138.281285 
L 403.61028 125.456402 
L 404.336252 115.212301 
L 405.062224 101.715345 
L 405.788195 129.423078 
L 406.514167 182.185415 
L 407.240139 166.471398 
L 407.966111 96.861779 
L 408.692082 149.019374 
L 409.418054 116.787217 
L 410.144026 203.511585 
L 410.869997 111.010667 
L 411.595969 117.157768 
L 412.321941 134.10748 
L 413.047913 107.528934 
L 413.773884 138.926817 
L 414.499856 145.659997 
L 415.225828 146.799293 
L 415.951799 117.240055 
L 416.677771 185.330039 
L 417.403743 166.229885 
L 418.129714 104.79999 
L 418.855686 114.476539 
L 419.581658 103.466084 
L 420.30763 102.861618 
L 421.033601 165.617455 
L 421.759573 211.444604 
L 422.485545 61.565034 
L 423.211516 47.54644 
L 423.937488 77.175806 
L 424.66346 62.122885 
L 425.389431 189.219475 
L 426.115403 227.983568 
L 426.841375 109.926255 
L 427.567347 79.79932 
L 428.293318 94.957462 
L 429.01929 203.903875 
L 429.745262 169.054795 
L 430.471233 204.006039 
L 431.197205 118.827562 
L 431.923177 114.628082 
L 432.649148 121.236488 
L 433.37512 158.363275 
L 434.101092 46.795063 
L 434.827064 76.383979 
L 435.553035 127.623122 
L 436.279007 206.034015 
L 437.004979 159.937017 
L 437.73095 194.511454 
L 438.456922 137.853503 
L 439.182894 163.521994 
L 439.908866 86.196105 
L 440.634837 99.182491 
L 441.360809 77.649684 
L 442.086781 94.86031 
L 442.812752 170.964693 
L 443.538724 144.679098 
L 444.264696 184.25747 
L 444.990667 114.065219 
L 445.716639 202.050859 
L 446.442611 101.384771 
L 447.168583 123.838509 
L 447.894554 106.479374 
L 448.620526 46.988636 
L 449.346498 43.116624 
L 450.072469 71.293248 
L 450.798441 175.274411 
L 451.524413 76.750788 
L 452.250384 105.276979 
L 452.976356 209.374155 
L 453.702328 79.013914 
L 454.4283 78.658908 
L 455.154271 89.815965 
L 455.880243 167.924829 
L 456.606215 72.255264 
L 457.332186 117.937577 
L 458.058158 126.883708 
L 458.78413 133.569687 
L 459.510101 52.474637 
L 460.236073 64.361002 
L 460.962045 136.834757 
L 461.688017 72.990513 
L 462.413988 133.203881 
L 463.13996 77.412466 
L 463.865932 70.074645 
L 464.591903 56.855043 
L 464.591903 56.855043 
" style="fill:none;stroke:#000000;stroke-dasharray:3.7,1.6;stroke-dashoffset:0;"/>
   </g>
   <g id="matplotlib.axis_1">
    <g id="xtick_1">
     <g id="line2d_5">
      <defs>
       <path d="M 0 0 
L 0 3.5 
" id="m28940a849a" style="stroke:#000000;stroke-width:0.8;"/>
      </defs>
      <g>
       <use style="stroke:#000000;stroke-width:0.8;" x="79.826901" xlink:href="#m28940a849a" y="294.118125"/>
      </g>
     </g>
     <g id="text_1">
      <!-- 100 -->
      <defs>
       <path d="M 12.40625 8.296875 
L 28.515625 8.296875 
L 28.515625 63.921875 
L 10.984375 60.40625 
L 10.984375 69.390625 
L 28.421875 72.90625 
L 38.28125 72.90625 
L 38.28125 8.296875 
L 54.390625 8.296875 
L 54.390625 0 
L 12.40625 0 
z
" id="DejaVuSans-49"/>
       <path d="M 31.78125 66.40625 
Q 24.171875 66.40625 20.328125 58.90625 
Q 16.5 51.421875 16.5 36.375 
Q 16.5 21.390625 20.328125 13.890625 
Q 24.171875 6.390625 31.78125 6.390625 
Q 39.453125 6.390625 43.28125 13.890625 
Q 47.125 21.390625 47.125 36.375 
Q 47.125 51.421875 43.28125 58.90625 
Q 39.453125 66.40625 31.78125 66.40625 
z
M 31.78125 74.21875 
Q 44.046875 74.21875 50.515625 64.515625 
Q 56.984375 54.828125 56.984375 36.375 
Q 56.984375 17.96875 50.515625 8.265625 
Q 44.046875 -1.421875 31.78125 -1.421875 
Q 19.53125 -1.421875 13.0625 8.265625 
Q 6.59375 17.96875 6.59375 36.375 
Q 6.59375 54.828125 13.0625 64.515625 
Q 19.53125 74.21875 31.78125 74.21875 
z
" id="DejaVuSans-48"/>
      </defs>
      <g transform="translate(70.283151 308.716563)scale(0.1 -0.1)">
       <use xlink:href="#DejaVuSans-49"/>
       <use x="63.623047" xlink:href="#DejaVuSans-48"/>
       <use x="127.246094" xlink:href="#DejaVuSans-48"/>
      </g>
     </g>
    </g>
    <g id="xtick_2">
     <g id="line2d_6">
      <g>
       <use style="stroke:#000000;stroke-width:0.8;" x="152.424071" xlink:href="#m28940a849a" y="294.118125"/>
      </g>
     </g>
     <g id="text_2">
      <!-- 200 -->
      <defs>
       <path d="M 19.1875 8.296875 
L 53.609375 8.296875 
L 53.609375 0 
L 7.328125 0 
L 7.328125 8.296875 
Q 12.9375 14.109375 22.625 23.890625 
Q 32.328125 33.6875 34.8125 36.53125 
Q 39.546875 41.84375 41.421875 45.53125 
Q 43.3125 49.21875 43.3125 52.78125 
Q 43.3125 58.59375 39.234375 62.25 
Q 35.15625 65.921875 28.609375 65.921875 
Q 23.96875 65.921875 18.8125 64.3125 
Q 13.671875 62.703125 7.8125 59.421875 
L 7.8125 69.390625 
Q 13.765625 71.78125 18.9375 73 
Q 24.125 74.21875 28.421875 74.21875 
Q 39.75 74.21875 46.484375 68.546875 
Q 53.21875 62.890625 53.21875 53.421875 
Q 53.21875 48.921875 51.53125 44.890625 
Q 49.859375 40.875 45.40625 35.40625 
Q 44.1875 33.984375 37.640625 27.21875 
Q 31.109375 20.453125 19.1875 8.296875 
z
" id="DejaVuSans-50"/>
      </defs>
      <g transform="translate(142.880321 308.716563)scale(0.1 -0.1)">
       <use xlink:href="#DejaVuSans-50"/>
       <use x="63.623047" xlink:href="#DejaVuSans-48"/>
       <use x="127.246094" xlink:href="#DejaVuSans-48"/>
      </g>
     </g>
    </g>
    <g id="xtick_3">
     <g id="line2d_7">
      <g>
       <use style="stroke:#000000;stroke-width:0.8;" x="225.021242" xlink:href="#m28940a849a" y="294.118125"/>
      </g>
     </g>
     <g id="text_3">
      <!-- 300 -->
      <defs>
       <path d="M 40.578125 39.3125 
Q 47.65625 37.796875 51.625 33 
Q 55.609375 28.21875 55.609375 21.1875 
Q 55.609375 10.40625 48.1875 4.484375 
Q 40.765625 -1.421875 27.09375 -1.421875 
Q 22.515625 -1.421875 17.65625 -0.515625 
Q 12.796875 0.390625 7.625 2.203125 
L 7.625 11.71875 
Q 11.71875 9.328125 16.59375 8.109375 
Q 21.484375 6.890625 26.8125 6.890625 
Q 36.078125 6.890625 40.9375 10.546875 
Q 45.796875 14.203125 45.796875 21.1875 
Q 45.796875 27.640625 41.28125 31.265625 
Q 36.765625 34.90625 28.71875 34.90625 
L 20.21875 34.90625 
L 20.21875 43.015625 
L 29.109375 43.015625 
Q 36.375 43.015625 40.234375 45.921875 
Q 44.09375 48.828125 44.09375 54.296875 
Q 44.09375 59.90625 40.109375 62.90625 
Q 36.140625 65.921875 28.71875 65.921875 
Q 24.65625 65.921875 20.015625 65.03125 
Q 15.375 64.15625 9.8125 62.3125 
L 9.8125 71.09375 
Q 15.4375 72.65625 20.34375 73.4375 
Q 25.25 74.21875 29.59375 74.21875 
Q 40.828125 74.21875 47.359375 69.109375 
Q 53.90625 64.015625 53.90625 55.328125 
Q 53.90625 49.265625 50.4375 45.09375 
Q 46.96875 40.921875 40.578125 39.3125 
z
" id="DejaVuSans-51"/>
      </defs>
      <g transform="translate(215.477492 308.716563)scale(0.1 -0.1)">
       <use xlink:href="#DejaVuSans-51"/>
       <use x="63.623047" xlink:href="#DejaVuSans-48"/>
       <use x="127.246094" xlink:href="#DejaVuSans-48"/>
      </g>
     </g>
    </g>
    <g id="xtick_4">
     <g id="line2d_8">
      <g>
       <use style="stroke:#000000;stroke-width:0.8;" x="297.618412" xlink:href="#m28940a849a" y="294.118125"/>
      </g>
     </g>
     <g id="text_4">
      <!-- 400 -->
      <defs>
       <path d="M 37.796875 64.3125 
L 12.890625 25.390625 
L 37.796875 25.390625 
z
M 35.203125 72.90625 
L 47.609375 72.90625 
L 47.609375 25.390625 
L 58.015625 25.390625 
L 58.015625 17.1875 
L 47.609375 17.1875 
L 47.609375 0 
L 37.796875 0 
L 37.796875 17.1875 
L 4.890625 17.1875 
L 4.890625 26.703125 
z
" id="DejaVuSans-52"/>
      </defs>
      <g transform="translate(288.074662 308.716563)scale(0.1 -0.1)">
       <use xlink:href="#DejaVuSans-52"/>
       <use x="63.623047" xlink:href="#DejaVuSans-48"/>
       <use x="127.246094" xlink:href="#DejaVuSans-48"/>
      </g>
     </g>
    </g>
    <g id="xtick_5">
     <g id="line2d_9">
      <g>
       <use style="stroke:#000000;stroke-width:0.8;" x="370.215582" xlink:href="#m28940a849a" y="294.118125"/>
      </g>
     </g>
     <g id="text_5">
      <!-- 500 -->
      <defs>
       <path d="M 10.796875 72.90625 
L 49.515625 72.90625 
L 49.515625 64.59375 
L 19.828125 64.59375 
L 19.828125 46.734375 
Q 21.96875 47.46875 24.109375 47.828125 
Q 26.265625 48.1875 28.421875 48.1875 
Q 40.625 48.1875 47.75 41.5 
Q 54.890625 34.8125 54.890625 23.390625 
Q 54.890625 11.625 47.5625 5.09375 
Q 40.234375 -1.421875 26.90625 -1.421875 
Q 22.3125 -1.421875 17.546875 -0.640625 
Q 12.796875 0.140625 7.71875 1.703125 
L 7.71875 11.625 
Q 12.109375 9.234375 16.796875 8.0625 
Q 21.484375 6.890625 26.703125 6.890625 
Q 35.15625 6.890625 40.078125 11.328125 
Q 45.015625 15.765625 45.015625 23.390625 
Q 45.015625 31 40.078125 35.4375 
Q 35.15625 39.890625 26.703125 39.890625 
Q 22.75 39.890625 18.8125 39.015625 
Q 14.890625 38.140625 10.796875 36.28125 
z
" id="DejaVuSans-53"/>
      </defs>
      <g transform="translate(360.671832 308.716563)scale(0.1 -0.1)">
       <use xlink:href="#DejaVuSans-53"/>
       <use x="63.623047" xlink:href="#DejaVuSans-48"/>
       <use x="127.246094" xlink:href="#DejaVuSans-48"/>
      </g>
     </g>
    </g>
    <g id="xtick_6">
     <g id="line2d_10">
      <g>
       <use style="stroke:#000000;stroke-width:0.8;" x="442.812752" xlink:href="#m28940a849a" y="294.118125"/>
      </g>
     </g>
     <g id="text_6">
      <!-- 600 -->
      <defs>
       <path d="M 33.015625 40.375 
Q 26.375 40.375 22.484375 35.828125 
Q 18.609375 31.296875 18.609375 23.390625 
Q 18.609375 15.53125 22.484375 10.953125 
Q 26.375 6.390625 33.015625 6.390625 
Q 39.65625 6.390625 43.53125 10.953125 
Q 47.40625 15.53125 47.40625 23.390625 
Q 47.40625 31.296875 43.53125 35.828125 
Q 39.65625 40.375 33.015625 40.375 
z
M 52.59375 71.296875 
L 52.59375 62.3125 
Q 48.875 64.0625 45.09375 64.984375 
Q 41.3125 65.921875 37.59375 65.921875 
Q 27.828125 65.921875 22.671875 59.328125 
Q 17.53125 52.734375 16.796875 39.40625 
Q 19.671875 43.65625 24.015625 45.921875 
Q 28.375 48.1875 33.59375 48.1875 
Q 44.578125 48.1875 50.953125 41.515625 
Q 57.328125 34.859375 57.328125 23.390625 
Q 57.328125 12.15625 50.6875 5.359375 
Q 44.046875 -1.421875 33.015625 -1.421875 
Q 20.359375 -1.421875 13.671875 8.265625 
Q 6.984375 17.96875 6.984375 36.375 
Q 6.984375 53.65625 15.1875 63.9375 
Q 23.390625 74.21875 37.203125 74.21875 
Q 40.921875 74.21875 44.703125 73.484375 
Q 48.484375 72.75 52.59375 71.296875 
z
" id="DejaVuSans-54"/>
      </defs>
      <g transform="translate(433.269002 308.716563)scale(0.1 -0.1)">
       <use xlink:href="#DejaVuSans-54"/>
       <use x="63.623047" xlink:href="#DejaVuSans-48"/>
       <use x="127.246094" xlink:href="#DejaVuSans-48"/>
      </g>
     </g>
    </g>
    <g id="text_7">
     <!-- Tempo -->
     <defs>
      <path d="M -0.296875 72.90625 
L 61.375 72.90625 
L 61.375 64.59375 
L 35.5 64.59375 
L 35.5 0 
L 25.59375 0 
L 25.59375 64.59375 
L -0.296875 64.59375 
z
" id="DejaVuSans-84"/>
      <path d="M 56.203125 29.59375 
L 56.203125 25.203125 
L 14.890625 25.203125 
Q 15.484375 15.921875 20.484375 11.0625 
Q 25.484375 6.203125 34.421875 6.203125 
Q 39.59375 6.203125 44.453125 7.46875 
Q 49.3125 8.734375 54.109375 11.28125 
L 54.109375 2.78125 
Q 49.265625 0.734375 44.1875 -0.34375 
Q 39.109375 -1.421875 33.890625 -1.421875 
Q 20.796875 -1.421875 13.15625 6.1875 
Q 5.515625 13.8125 5.515625 26.8125 
Q 5.515625 40.234375 12.765625 48.109375 
Q 20.015625 56 32.328125 56 
Q 43.359375 56 49.78125 48.890625 
Q 56.203125 41.796875 56.203125 29.59375 
z
M 47.21875 32.234375 
Q 47.125 39.59375 43.09375 43.984375 
Q 39.0625 48.390625 32.421875 48.390625 
Q 24.90625 48.390625 20.390625 44.140625 
Q 15.875 39.890625 15.1875 32.171875 
z
" id="DejaVuSans-101"/>
      <path d="M 52 44.1875 
Q 55.375 50.25 60.0625 53.125 
Q 64.75 56 71.09375 56 
Q 79.640625 56 84.28125 50.015625 
Q 88.921875 44.046875 88.921875 33.015625 
L 88.921875 0 
L 79.890625 0 
L 79.890625 32.71875 
Q 79.890625 40.578125 77.09375 44.375 
Q 74.3125 48.1875 68.609375 48.1875 
Q 61.625 48.1875 57.5625 43.546875 
Q 53.515625 38.921875 53.515625 30.90625 
L 53.515625 0 
L 44.484375 0 
L 44.484375 32.71875 
Q 44.484375 40.625 41.703125 44.40625 
Q 38.921875 48.1875 33.109375 48.1875 
Q 26.21875 48.1875 22.15625 43.53125 
Q 18.109375 38.875 18.109375 30.90625 
L 18.109375 0 
L 9.078125 0 
L 9.078125 54.6875 
L 18.109375 54.6875 
L 18.109375 46.1875 
Q 21.1875 51.21875 25.484375 53.609375 
Q 29.78125 56 35.6875 56 
Q 41.65625 56 45.828125 52.96875 
Q 50 49.953125 52 44.1875 
z
" id="DejaVuSans-109"/>
      <path d="M 18.109375 8.203125 
L 18.109375 -20.796875 
L 9.078125 -20.796875 
L 9.078125 54.6875 
L 18.109375 54.6875 
L 18.109375 46.390625 
Q 20.953125 51.265625 25.265625 53.625 
Q 29.59375 56 35.59375 56 
Q 45.5625 56 51.78125 48.09375 
Q 58.015625 40.1875 58.015625 27.296875 
Q 58.015625 14.40625 51.78125 6.484375 
Q 45.5625 -1.421875 35.59375 -1.421875 
Q 29.59375 -1.421875 25.265625 0.953125 
Q 20.953125 3.328125 18.109375 8.203125 
z
M 48.6875 27.296875 
Q 48.6875 37.203125 44.609375 42.84375 
Q 40.53125 48.484375 33.40625 48.484375 
Q 26.265625 48.484375 22.1875 42.84375 
Q 18.109375 37.203125 18.109375 27.296875 
Q 18.109375 17.390625 22.1875 11.75 
Q 26.265625 6.109375 33.40625 6.109375 
Q 40.53125 6.109375 44.609375 11.75 
Q 48.6875 17.390625 48.6875 27.296875 
z
" id="DejaVuSans-112"/>
      <path d="M 30.609375 48.390625 
Q 23.390625 48.390625 19.1875 42.75 
Q 14.984375 37.109375 14.984375 27.296875 
Q 14.984375 17.484375 19.15625 11.84375 
Q 23.34375 6.203125 30.609375 6.203125 
Q 37.796875 6.203125 41.984375 11.859375 
Q 46.1875 17.53125 46.1875 27.296875 
Q 46.1875 37.015625 41.984375 42.703125 
Q 37.796875 48.390625 30.609375 48.390625 
z
M 30.609375 56 
Q 42.328125 56 49.015625 48.375 
Q 55.71875 40.765625 55.71875 27.296875 
Q 55.71875 13.875 49.015625 6.21875 
Q 42.328125 -1.421875 30.609375 -1.421875 
Q 18.84375 -1.421875 12.171875 6.21875 
Q 5.515625 13.875 5.515625 27.296875 
Q 5.515625 40.765625 12.171875 48.375 
Q 18.84375 56 30.609375 56 
z
" id="DejaVuSans-111"/>
     </defs>
     <g transform="translate(245.298438 322.394687)scale(0.1 -0.1)">
      <use xlink:href="#DejaVuSans-84"/>
      <use x="44.083984" xlink:href="#DejaVuSans-101"/>
      <use x="105.607422" xlink:href="#DejaVuSans-109"/>
      <use x="203.019531" xlink:href="#DejaVuSans-112"/>
      <use x="266.496094" xlink:href="#DejaVuSans-111"/>
     </g>
    </g>
   </g>
   <g id="matplotlib.axis_2">
    <g id="ytick_1">
     <g id="line2d_11">
      <defs>
       <path d="M 0 0 
L -3.5 0 
" id="m68695d671b" style="stroke:#000000;stroke-width:0.8;"/>
      </defs>
      <g>
       <use style="stroke:#000000;stroke-width:0.8;" x="38.482813" xlink:href="#m68695d671b" y="265.457638"/>
      </g>
     </g>
     <g id="text_8">
      <!-- 0.6 -->
      <defs>
       <path d="M 10.59375 35.5 
L 73.1875 35.5 
L 73.1875 27.203125 
L 10.59375 27.203125 
z
" id="DejaVuSans-8722"/>
       <path d="M 10.6875 12.40625 
L 21 12.40625 
L 21 0 
L 10.6875 0 
z
" id="DejaVuSans-46"/>
      </defs>
      <g transform="translate(7.2 269.256857)scale(0.1 -0.1)">
       <use xlink:href="#DejaVuSans-8722"/>
       <use x="83.789062" xlink:href="#DejaVuSans-48"/>
       <use x="147.412109" xlink:href="#DejaVuSans-46"/>
       <use x="179.199219" xlink:href="#DejaVuSans-54"/>
      </g>
     </g>
    </g>
    <g id="ytick_2">
     <g id="line2d_12">
      <g>
       <use style="stroke:#000000;stroke-width:0.8;" x="38.482813" xlink:href="#m68695d671b" y="228.120239"/>
      </g>
     </g>
     <g id="text_9">
      <!-- 0.4 -->
      <g transform="translate(7.2 231.919458)scale(0.1 -0.1)">
       <use xlink:href="#DejaVuSans-8722"/>
       <use x="83.789062" xlink:href="#DejaVuSans-48"/>
       <use x="147.412109" xlink:href="#DejaVuSans-46"/>
       <use x="179.199219" xlink:href="#DejaVuSans-52"/>
      </g>
     </g>
    </g>
    <g id="ytick_3">
     <g id="line2d_13">
      <g>
       <use style="stroke:#000000;stroke-width:0.8;" x="38.482813" xlink:href="#m68695d671b" y="190.78284"/>
      </g>
     </g>
     <g id="text_10">
      <!-- 0.2 -->
      <g transform="translate(7.2 194.582058)scale(0.1 -0.1)">
       <use xlink:href="#DejaVuSans-8722"/>
       <use x="83.789062" xlink:href="#DejaVuSans-48"/>
       <use x="147.412109" xlink:href="#DejaVuSans-46"/>
       <use x="179.199219" xlink:href="#DejaVuSans-50"/>
      </g>
     </g>
    </g>
    <g id="ytick_4">
     <g id="line2d_14">
      <g>
       <use style="stroke:#000000;stroke-width:0.8;" x="38.482813" xlink:href="#m68695d671b" y="153.445441"/>
      </g>
     </g>
     <g id="text_11">
      <!-- 0.0 -->
      <g transform="translate(15.579688 157.244659)scale(0.1 -0.1)">
       <use xlink:href="#DejaVuSans-48"/>
       <use x="63.623047" xlink:href="#DejaVuSans-46"/>
       <use x="95.410156" xlink:href="#DejaVuSans-48"/>
      </g>
     </g>
    </g>
    <g id="ytick_5">
     <g id="line2d_15">
      <g>
       <use style="stroke:#000000;stroke-width:0.8;" x="38.482813" xlink:href="#m68695d671b" y="116.108042"/>
      </g>
     </g>
     <g id="text_12">
      <!-- 0.2 -->
      <g transform="translate(15.579688 119.90726)scale(0.1 -0.1)">
       <use xlink:href="#DejaVuSans-48"/>
       <use x="63.623047" xlink:href="#DejaVuSans-46"/>
       <use x="95.410156" xlink:href="#DejaVuSans-50"/>
      </g>
     </g>
    </g>
    <g id="ytick_6">
     <g id="line2d_16">
      <g>
       <use style="stroke:#000000;stroke-width:0.8;" x="38.482813" xlink:href="#m68695d671b" y="78.770642"/>
      </g>
     </g>
     <g id="text_13">
      <!-- 0.4 -->
      <g transform="translate(15.579688 82.569861)scale(0.1 -0.1)">
       <use xlink:href="#DejaVuSans-48"/>
       <use x="63.623047" xlink:href="#DejaVuSans-46"/>
       <use x="95.410156" xlink:href="#DejaVuSans-52"/>
      </g>
     </g>
    </g>
    <g id="ytick_7">
     <g id="line2d_17">
      <g>
       <use style="stroke:#000000;stroke-width:0.8;" x="38.482813" xlink:href="#m68695d671b" y="41.433243"/>
      </g>
     </g>
     <g id="text_14">
      <!-- 0.6 -->
      <g transform="translate(15.579688 45.232462)scale(0.1 -0.1)">
       <use xlink:href="#DejaVuSans-48"/>
       <use x="63.623047" xlink:href="#DejaVuSans-46"/>
       <use x="95.410156" xlink:href="#DejaVuSans-54"/>
      </g>
     </g>
    </g>
   </g>
   <g id="patch_3">
    <path d="M 38.482813 294.118125 
L 38.482813 22.318125 
" style="fill:none;stroke:#000000;stroke-linecap:square;stroke-linejoin:miter;stroke-width:0.8;"/>
   </g>
   <g id="patch_4">
    <path d="M 38.482813 294.118125 
L 484.882812 294.118125 
" style="fill:none;stroke:#000000;stroke-linecap:square;stroke-linejoin:miter;stroke-width:0.8;"/>
   </g>
   <g id="text_15">
    <!-- Gini_aTax -->
    <defs>
     <path d="M 59.515625 10.40625 
L 59.515625 29.984375 
L 43.40625 29.984375 
L 43.40625 38.09375 
L 69.28125 38.09375 
L 69.28125 6.78125 
Q 63.578125 2.734375 56.6875 0.65625 
Q 49.8125 -1.421875 42 -1.421875 
Q 24.90625 -1.421875 15.25 8.5625 
Q 5.609375 18.5625 5.609375 36.375 
Q 5.609375 54.25 15.25 64.234375 
Q 24.90625 74.21875 42 74.21875 
Q 49.125 74.21875 55.546875 72.453125 
Q 61.96875 70.703125 67.390625 67.28125 
L 67.390625 56.78125 
Q 61.921875 61.421875 55.765625 63.765625 
Q 49.609375 66.109375 42.828125 66.109375 
Q 29.4375 66.109375 22.71875 58.640625 
Q 16.015625 51.171875 16.015625 36.375 
Q 16.015625 21.625 22.71875 14.15625 
Q 29.4375 6.6875 42.828125 6.6875 
Q 48.046875 6.6875 52.140625 7.59375 
Q 56.25 8.5 59.515625 10.40625 
z
" id="DejaVuSans-71"/>
     <path d="M 9.421875 54.6875 
L 18.40625 54.6875 
L 18.40625 0 
L 9.421875 0 
z
M 9.421875 75.984375 
L 18.40625 75.984375 
L 18.40625 64.59375 
L 9.421875 64.59375 
z
" id="DejaVuSans-105"/>
     <path d="M 54.890625 33.015625 
L 54.890625 0 
L 45.90625 0 
L 45.90625 32.71875 
Q 45.90625 40.484375 42.875 44.328125 
Q 39.84375 48.1875 33.796875 48.1875 
Q 26.515625 48.1875 22.3125 43.546875 
Q 18.109375 38.921875 18.109375 30.90625 
L 18.109375 0 
L 9.078125 0 
L 9.078125 54.6875 
L 18.109375 54.6875 
L 18.109375 46.1875 
Q 21.34375 51.125 25.703125 53.5625 
Q 30.078125 56 35.796875 56 
Q 45.21875 56 50.046875 50.171875 
Q 54.890625 44.34375 54.890625 33.015625 
z
" id="DejaVuSans-110"/>
     <path d="M 50.984375 -16.609375 
L 50.984375 -23.578125 
L -0.984375 -23.578125 
L -0.984375 -16.609375 
z
" id="DejaVuSans-95"/>
     <path d="M 34.28125 27.484375 
Q 23.390625 27.484375 19.1875 25 
Q 14.984375 22.515625 14.984375 16.5 
Q 14.984375 11.71875 18.140625 8.90625 
Q 21.296875 6.109375 26.703125 6.109375 
Q 34.1875 6.109375 38.703125 11.40625 
Q 43.21875 16.703125 43.21875 25.484375 
L 43.21875 27.484375 
z
M 52.203125 31.203125 
L 52.203125 0 
L 43.21875 0 
L 43.21875 8.296875 
Q 40.140625 3.328125 35.546875 0.953125 
Q 30.953125 -1.421875 24.3125 -1.421875 
Q 15.921875 -1.421875 10.953125 3.296875 
Q 6 8.015625 6 15.921875 
Q 6 25.140625 12.171875 29.828125 
Q 18.359375 34.515625 30.609375 34.515625 
L 43.21875 34.515625 
L 43.21875 35.40625 
Q 43.21875 41.609375 39.140625 45 
Q 35.0625 48.390625 27.6875 48.390625 
Q 23 48.390625 18.546875 47.265625 
Q 14.109375 46.140625 10.015625 43.890625 
L 10.015625 52.203125 
Q 14.9375 54.109375 19.578125 55.046875 
Q 24.21875 56 28.609375 56 
Q 40.484375 56 46.34375 49.84375 
Q 52.203125 43.703125 52.203125 31.203125 
z
" id="DejaVuSans-97"/>
     <path d="M 54.890625 54.6875 
L 35.109375 28.078125 
L 55.90625 0 
L 45.3125 0 
L 29.390625 21.484375 
L 13.484375 0 
L 2.875 0 
L 24.125 28.609375 
L 4.6875 54.6875 
L 15.28125 54.6875 
L 29.78125 35.203125 
L 44.28125 54.6875 
z
" id="DejaVuSans-120"/>
    </defs>
    <g transform="translate(233.317813 16.318125)scale(0.12 -0.12)">
     <use xlink:href="#DejaVuSans-71"/>
     <use x="77.490234" xlink:href="#DejaVuSans-105"/>
     <use x="105.273438" xlink:href="#DejaVuSans-110"/>
     <use x="168.652344" xlink:href="#DejaVuSans-105"/>
     <use x="196.435547" xlink:href="#DejaVuSans-95"/>
     <use x="246.435547" xlink:href="#DejaVuSans-97"/>
     <use x="307.714844" xlink:href="#DejaVuSans-84"/>
     <use x="352.298828" xlink:href="#DejaVuSans-97"/>
     <use x="413.578125" xlink:href="#DejaVuSans-120"/>
    </g>
   </g>
   <g id="legend_1">
    <g id="patch_5">
     <path d="M 491.882812 190.104844 
L 566.28125 190.104844 
Q 568.28125 190.104844 568.28125 188.104844 
L 568.28125 128.331406 
Q 568.28125 126.331406 566.28125 126.331406 
L 491.882812 126.331406 
Q 489.882812 126.331406 489.882812 128.331406 
L 489.882812 188.104844 
Q 489.882812 190.104844 491.882812 190.104844 
z
" style="fill:#ffffff;opacity:0.8;stroke:#cccccc;stroke-linejoin:miter;"/>
    </g>
    <g id="line2d_18">
     <path d="M 493.882812 134.429844 
L 513.882812 134.429844 
" style="fill:none;stroke:#000000;stroke-dasharray:3.7,1.6;stroke-dashoffset:0;"/>
    </g>
    <g id="line2d_19"/>
    <g id="text_16">
     <!-- Baseline -->
     <defs>
      <path d="M 19.671875 34.8125 
L 19.671875 8.109375 
L 35.5 8.109375 
Q 43.453125 8.109375 47.28125 11.40625 
Q 51.125 14.703125 51.125 21.484375 
Q 51.125 28.328125 47.28125 31.5625 
Q 43.453125 34.8125 35.5 34.8125 
z
M 19.671875 64.796875 
L 19.671875 42.828125 
L 34.28125 42.828125 
Q 41.5 42.828125 45.03125 45.53125 
Q 48.578125 48.25 48.578125 53.8125 
Q 48.578125 59.328125 45.03125 62.0625 
Q 41.5 64.796875 34.28125 64.796875 
z
M 9.8125 72.90625 
L 35.015625 72.90625 
Q 46.296875 72.90625 52.390625 68.21875 
Q 58.5 63.53125 58.5 54.890625 
Q 58.5 48.1875 55.375 44.234375 
Q 52.25 40.28125 46.1875 39.3125 
Q 53.46875 37.75 57.5 32.78125 
Q 61.53125 27.828125 61.53125 20.40625 
Q 61.53125 10.640625 54.890625 5.3125 
Q 48.25 0 35.984375 0 
L 9.8125 0 
z
" id="DejaVuSans-66"/>
      <path d="M 44.28125 53.078125 
L 44.28125 44.578125 
Q 40.484375 46.53125 36.375 47.5 
Q 32.28125 48.484375 27.875 48.484375 
Q 21.1875 48.484375 17.84375 46.4375 
Q 14.5 44.390625 14.5 40.28125 
Q 14.5 37.15625 16.890625 35.375 
Q 19.28125 33.59375 26.515625 31.984375 
L 29.59375 31.296875 
Q 39.15625 29.25 43.1875 25.515625 
Q 47.21875 21.78125 47.21875 15.09375 
Q 47.21875 7.46875 41.1875 3.015625 
Q 35.15625 -1.421875 24.609375 -1.421875 
Q 20.21875 -1.421875 15.453125 -0.5625 
Q 10.6875 0.296875 5.421875 2 
L 5.421875 11.28125 
Q 10.40625 8.6875 15.234375 7.390625 
Q 20.0625 6.109375 24.8125 6.109375 
Q 31.15625 6.109375 34.5625 8.28125 
Q 37.984375 10.453125 37.984375 14.40625 
Q 37.984375 18.0625 35.515625 20.015625 
Q 33.0625 21.96875 24.703125 23.78125 
L 21.578125 24.515625 
Q 13.234375 26.265625 9.515625 29.90625 
Q 5.8125 33.546875 5.8125 39.890625 
Q 5.8125 47.609375 11.28125 51.796875 
Q 16.75 56 26.8125 56 
Q 31.78125 56 36.171875 55.265625 
Q 40.578125 54.546875 44.28125 53.078125 
z
" id="DejaVuSans-115"/>
      <path d="M 9.421875 75.984375 
L 18.40625 75.984375 
L 18.40625 0 
L 9.421875 0 
z
" id="DejaVuSans-108"/>
     </defs>
     <g transform="translate(521.882812 137.929844)scale(0.1 -0.1)">
      <use xlink:href="#DejaVuSans-66"/>
      <use x="68.603516" xlink:href="#DejaVuSans-97"/>
      <use x="129.882812" xlink:href="#DejaVuSans-115"/>
      <use x="181.982422" xlink:href="#DejaVuSans-101"/>
      <use x="243.505859" xlink:href="#DejaVuSans-108"/>
      <use x="271.289062" xlink:href="#DejaVuSans-105"/>
      <use x="299.072266" xlink:href="#DejaVuSans-110"/>
      <use x="362.451172" xlink:href="#DejaVuSans-101"/>
     </g>
    </g>
    <g id="line2d_20">
     <path d="M 493.882812 149.107969 
L 513.882812 149.107969 
" style="fill:none;stroke:#1f77b4;stroke-linecap:square;stroke-width:1.5;"/>
    </g>
    <g id="line2d_21"/>
    <g id="text_17">
     <!-- $\Downarrow \sigma_\psi$ -->
     <defs>
      <path d="M 36.765625 14.3125 
L 41.9375 9.234375 
L 47.015625 14.3125 
L 47.015625 72.90625 
L 52.875 72.90625 
L 52.875 20.171875 
L 57.46875 24.75 
L 63.328125 18.890625 
L 44.09375 -0.34375 
L 39.703125 -0.34375 
L 20.5625 18.890625 
L 26.421875 24.75 
L 30.90625 20.171875 
L 30.90625 72.90625 
L 36.765625 72.90625 
z
" id="DejaVuSans-8659"/>
      <path d="M 34.671875 47.5625 
Q 27.25 47.5625 22.21875 42.1875 
Q 16.890625 36.578125 15.140625 27.296875 
Q 13.1875 17.484375 16.3125 11.8125 
Q 19.390625 6.203125 26.65625 6.203125 
Q 33.84375 6.203125 39.109375 11.859375 
Q 44.4375 17.53125 46.34375 27.296875 
Q 48.046875 36.234375 45.015625 42.1875 
Q 42.1875 47.5625 34.671875 47.5625 
z
M 36.078125 54.734375 
L 65.921875 54.6875 
L 64.15625 45.703125 
L 54.109375 45.703125 
Q 57.90625 38.09375 55.859375 27.296875 
Q 53.21875 13.875 45.0625 6.25 
Q 36.859375 -1.421875 25.140625 -1.421875 
Q 13.375 -1.421875 8.203125 6.25 
Q 3.03125 13.875 5.671875 27.296875 
Q 8.25 40.765625 16.40625 48.390625 
Q 23.1875 54.734375 36.078125 54.734375 
z
" id="DejaVuSans-Oblique-963"/>
      <path d="M 24.859375 -1.21875 
Q 13.921875 0.59375 9.625 5.328125 
Q 4.34375 11.140625 6.640625 23 
L 12.796875 54.6875 
L 21.875 54.6875 
L 15.765625 23.34375 
Q 14.0625 14.40625 17.484375 10.6875 
Q 20.515625 7.46875 26.421875 6.78125 
L 35.6875 54.6875 
L 44.625 54.6875 
L 35.359375 6.84375 
Q 41.890625 7.515625 45.75 10.75 
Q 50.734375 14.84375 52.390625 23.390625 
L 58.453125 54.6875 
L 67.53125 54.6875 
L 61.375 23.046875 
Q 58.984375 10.75 51.5625 5.375 
Q 44.875 0.53125 33.796875 -1.171875 
L 29.984375 -20.796875 
L 21.046875 -20.796875 
z
" id="DejaVuSans-Oblique-968"/>
     </defs>
     <g transform="translate(521.882812 152.607969)scale(0.1 -0.1)">
      <use transform="translate(19.482422 0.09375)" xlink:href="#DejaVuSans-8659"/>
      <use transform="translate(122.753906 0.09375)" xlink:href="#DejaVuSans-Oblique-963"/>
      <use transform="translate(186.132812 -16.3125)scale(0.7)" xlink:href="#DejaVuSans-Oblique-968"/>
     </g>
    </g>
    <g id="line2d_22">
     <path d="M 493.882812 164.806406 
L 513.882812 164.806406 
" style="fill:none;stroke:#ff7f0e;stroke-linecap:square;stroke-width:1.5;"/>
    </g>
    <g id="line2d_23"/>
    <g id="text_18">
     <!-- $\Downarrow s_\psi$ -->
     <defs>
      <path d="M 50 53.078125 
L 48.296875 44.578125 
Q 44.734375 46.53125 40.765625 47.5 
Q 36.8125 48.484375 32.625 48.484375 
Q 25.53125 48.484375 21.453125 46.0625 
Q 17.390625 43.65625 17.390625 39.5 
Q 17.390625 34.671875 26.859375 32.078125 
Q 27.59375 31.890625 27.9375 31.78125 
L 30.8125 30.90625 
Q 39.796875 28.421875 42.796875 25.6875 
Q 45.796875 22.953125 45.796875 18.21875 
Q 45.796875 9.515625 38.890625 4.046875 
Q 31.984375 -1.421875 20.796875 -1.421875 
Q 16.453125 -1.421875 11.671875 -0.578125 
Q 6.890625 0.25 1.125 2 
L 2.875 11.28125 
Q 7.8125 8.734375 12.59375 7.421875 
Q 17.390625 6.109375 21.78125 6.109375 
Q 28.375 6.109375 32.5 8.9375 
Q 36.625 11.765625 36.625 16.109375 
Q 36.625 20.796875 25.78125 23.6875 
L 24.859375 23.921875 
L 21.78125 24.703125 
Q 14.9375 26.515625 11.765625 29.46875 
Q 8.59375 32.421875 8.59375 37.015625 
Q 8.59375 45.75 15.15625 50.875 
Q 21.734375 56 33.015625 56 
Q 37.453125 56 41.671875 55.265625 
Q 45.90625 54.546875 50 53.078125 
z
" id="DejaVuSans-Oblique-115"/>
     </defs>
     <g transform="translate(521.882812 168.306406)scale(0.1 -0.1)">
      <use transform="translate(19.482422 0.09375)" xlink:href="#DejaVuSans-8659"/>
      <use transform="translate(122.753906 0.09375)" xlink:href="#DejaVuSans-Oblique-115"/>
      <use transform="translate(174.853516 -16.3125)scale(0.7)" xlink:href="#DejaVuSans-Oblique-968"/>
     </g>
    </g>
    <g id="line2d_24">
     <path d="M 493.882812 180.504844 
L 513.882812 180.504844 
" style="fill:none;stroke:#2ca02c;stroke-linecap:square;stroke-width:1.5;"/>
    </g>
    <g id="line2d_25"/>
    <g id="text_19">
     <!-- $\Uparrow \eta$ -->
     <defs>
      <path d="M 36.765625 58.59375 
L 36.765625 0 
L 30.90625 0 
L 30.90625 52.734375 
L 26.421875 48.140625 
L 20.5625 54 
L 39.703125 73.25 
L 44.09375 73.25 
L 63.328125 54 
L 57.46875 48.140625 
L 52.875 52.734375 
L 52.875 0 
L 47.015625 0 
L 47.015625 58.59375 
L 41.9375 63.671875 
z
" id="DejaVuSans-8657"/>
      <path d="M 57.859375 33.015625 
L 47.40625 -20.796875 
L 38.421875 -20.796875 
L 48.828125 32.71875 
Q 50.34375 40.484375 48.046875 44.34375 
Q 45.796875 48.1875 39.75 48.1875 
Q 32.46875 48.1875 27.34375 43.5625 
Q 22.265625 38.921875 20.703125 30.90625 
L 14.703125 0 
L 5.671875 0 
L 16.3125 54.6875 
L 25.34375 54.6875 
L 23.6875 46.1875 
Q 27.828125 51.125 32.71875 53.5625 
Q 37.546875 56 43.265625 56 
Q 52.6875 56 56.390625 50.203125 
Q 60.0625 44.34375 57.859375 33.015625 
z
" id="DejaVuSans-Oblique-951"/>
     </defs>
     <g transform="translate(521.882812 184.004844)scale(0.1 -0.1)">
      <use transform="translate(19.482422 0.75)" xlink:href="#DejaVuSans-8657"/>
      <use transform="translate(122.753906 0.75)" xlink:href="#DejaVuSans-Oblique-951"/>
     </g>
    </g>
   </g>
  </g>
 </g>
 <defs>
  <clipPath id="p0dd11ced55">
   <rect height="271.8" width="446.4" x="38.482813" y="22.318125"/>
  </clipPath>
 </defs>
</svg>
