<?xml version="1.0" encoding="utf-8" standalone="no"?>
<!DOCTYPE svg PUBLIC "-//W3C//DTD SVG 1.1//EN"
  "http://www.w3.org/Graphics/SVG/1.1/DTD/svg11.dtd">
<!-- Created with matplotlib (https://matplotlib.org/) -->
<svg height="331.674375pt" version="1.1" viewBox="0 0 567.101562 331.674375" width="567.101562pt" xmlns="http://www.w3.org/2000/svg" xmlns:xlink="http://www.w3.org/1999/xlink">
 <defs>
  <style type="text/css">
*{stroke-linecap:butt;stroke-linejoin:round;}
  </style>
 </defs>
 <g id="figure_1">
  <g id="patch_1">
   <path d="M 0 331.674375 
L 567.101562 331.674375 
L 567.101562 0 
L 0 0 
z
" style="fill:#ffffff;"/>
  </g>
  <g id="axes_1">
   <g id="patch_2">
    <path d="M 30.103125 294.118125 
L 476.503125 294.118125 
L 476.503125 22.318125 
L 30.103125 22.318125 
z
" style="fill:#ffffff;"/>
   </g>
   <g id="line2d_1">
    <path clip-path="url(#p5fc4889953)" d="M 50.394034 261.313612 
L 51.120006 242.788399 
L 51.845977 129.296375 
L 52.571949 255.320603 
L 53.297921 235.85982 
L 54.023893 261.917783 
L 54.749864 262.976411 
L 55.475836 249.268454 
L 56.201808 215.626053 
L 56.927779 267.166758 
L 57.653751 102.001368 
L 58.379723 248.379554 
L 59.105695 261.505414 
L 59.831666 234.090728 
L 60.557638 147.499317 
L 61.28361 203.500038 
L 62.009581 223.357714 
L 62.735553 125.767972 
L 63.461525 237.976297 
L 64.187496 102.24754 
L 64.913468 174.771361 
L 65.63944 264.941945 
L 66.365412 136.43289 
L 67.091383 243.115319 
L 67.817355 247.984538 
L 68.543327 239.625871 
L 69.269298 242.861929 
L 69.99527 259.772772 
L 70.721242 121.10391 
L 71.447213 253.266679 
L 72.173185 114.34801 
L 72.899157 170.290308 
L 73.625129 155.321403 
L 74.3511 216.366402 
L 75.077072 227.525441 
L 75.803044 270.619446 
L 76.529015 265.764925 
L 77.254987 132.564428 
L 77.980959 189.559067 
L 78.70693 163.241077 
L 79.432902 220.632506 
L 80.158874 155.662693 
L 80.884846 185.055197 
L 81.610817 254.846545 
L 82.336789 243.386244 
L 83.062761 142.321881 
L 83.788732 195.937582 
L 84.514704 148.872488 
L 85.240676 179.510503 
L 85.966648 257.634131 
L 86.692619 107.216479 
L 87.418591 203.778853 
L 88.144563 228.707651 
L 88.870534 161.772176 
L 89.596506 205.628016 
L 90.322478 199.163621 
L 91.048449 250.815737 
L 91.774421 253.119936 
L 92.500393 248.957045 
L 93.952336 262.800302 
L 94.678308 232.236901 
L 95.40428 117.023853 
L 96.130251 205.120947 
L 96.856223 169.289303 
L 97.582195 252.791772 
L 98.308166 236.488655 
L 99.034138 257.210406 
L 99.76011 272.532127 
L 100.486082 262.56557 
L 101.212053 256.88353 
L 101.938025 268.40928 
L 102.663997 104.961612 
L 103.389968 252.910779 
L 104.11594 236.380615 
L 104.841912 277.702976 
L 105.567883 268.4897 
L 106.293855 199.963471 
L 107.019827 216.793726 
L 107.745799 252.274185 
L 108.47177 195.824327 
L 109.197742 152.270431 
L 109.923714 248.377368 
L 110.649685 268.869789 
L 111.375657 266.441882 
L 112.101629 62.608429 
L 112.827601 218.725036 
L 113.553572 223.653478 
L 114.279544 134.979634 
L 115.005516 237.411632 
L 115.731487 226.828226 
L 116.457459 240.012482 
L 117.183431 256.642928 
L 117.909402 260.417255 
L 118.635374 268.410547 
L 120.813289 222.310584 
L 121.539261 111.402768 
L 122.265233 189.513029 
L 122.991204 255.099632 
L 123.717176 227.841384 
L 124.443148 255.650922 
L 125.169119 250.970728 
L 125.895091 130.665049 
L 127.347035 269.164322 
L 128.073006 248.795977 
L 128.798978 214.088973 
L 129.52495 250.740159 
L 130.250921 239.407474 
L 130.976893 243.652661 
L 131.702865 88.381308 
L 132.428836 197.652497 
L 133.154808 228.168837 
L 133.88078 232.49837 
L 134.606752 270.03223 
L 135.332723 52.540746 
L 136.058695 187.919954 
L 136.784667 234.112574 
L 137.510638 246.565039 
L 138.23661 251.873904 
L 138.962582 259.752468 
L 139.688554 231.152 
L 140.414525 265.213178 
L 141.140497 268.815061 
L 141.866469 251.491545 
L 142.59244 270.047023 
L 143.318412 251.257838 
L 144.044384 263.022595 
L 144.770355 224.413236 
L 145.496327 253.579777 
L 146.222299 72.817999 
L 146.948271 247.952573 
L 147.674242 270.794679 
L 148.400214 265.402477 
L 149.126186 196.271335 
L 149.852157 235.36018 
L 150.578129 235.72576 
L 151.304101 272.031386 
L 152.030072 220.045116 
L 153.482016 256.928228 
L 154.207988 216.248891 
L 154.933959 257.898133 
L 155.659931 254.49935 
L 156.385903 265.296924 
L 157.111874 104.004159 
L 157.837846 173.563932 
L 158.563818 185.385412 
L 159.289789 180.430423 
L 160.015761 230.423871 
L 160.741733 262.412987 
L 161.467705 248.530629 
L 162.193676 87.616575 
L 162.919648 188.605089 
L 163.64562 199.049645 
L 164.371591 256.19625 
L 165.097563 265.223853 
L 165.823535 231.841169 
L 166.549507 233.722635 
L 167.275478 246.422613 
L 168.00145 265.720691 
L 168.727422 218.048645 
L 169.453393 233.380957 
L 170.179365 230.483336 
L 170.905337 239.861189 
L 171.631308 229.860656 
L 172.35728 258.553418 
L 173.083252 226.811397 
L 173.809224 141.308767 
L 174.535195 202.867611 
L 175.261167 234.182513 
L 175.987139 260.204088 
L 176.71311 270.47911 
L 177.439082 255.377779 
L 178.165054 271.266732 
L 178.891025 217.286282 
L 179.616997 254.080283 
L 180.342969 219.126658 
L 181.068941 253.734959 
L 181.794912 263.508057 
L 182.520884 214.657665 
L 183.246856 259.683021 
L 183.972827 211.943284 
L 184.698799 253.129826 
L 185.424771 233.989844 
L 186.150742 254.919322 
L 186.876714 255.612706 
L 187.602686 223.982274 
L 188.328658 227.874037 
L 189.054629 220.285497 
L 189.780601 261.533291 
L 190.506573 244.723832 
L 191.232544 248.460976 
L 191.958516 128.407608 
L 192.684488 224.104542 
L 193.41046 270.990818 
L 194.136431 267.592493 
L 194.862403 259.84735 
L 195.588375 261.145266 
L 196.314346 225.589017 
L 197.040318 250.034929 
L 197.76629 70.360729 
L 198.492261 198.957354 
L 199.218233 244.89524 
L 199.944205 263.883305 
L 200.670177 220.009474 
L 201.396148 135.569185 
L 202.848092 269.527078 
L 203.574063 119.16041 
L 204.300035 208.23127 
L 205.026007 234.030349 
L 205.751978 266.999907 
L 206.47795 264.751859 
L 207.203922 256.485333 
L 208.655865 182.317844 
L 209.381837 265.108718 
L 210.107809 266.4682 
L 210.83378 241.772791 
L 211.559752 264.193522 
L 212.285724 258.808171 
L 213.011695 261.05417 
L 213.737667 227.728002 
L 214.463639 261.657594 
L 215.189611 258.613158 
L 215.915582 221.042516 
L 216.641554 148.799031 
L 217.367526 245.773944 
L 218.093497 246.380842 
L 218.819469 139.08912 
L 219.545441 184.901685 
L 220.997384 255.664778 
L 221.723356 78.237756 
L 222.449328 209.321861 
L 223.175299 161.864554 
L 223.901271 256.799926 
L 224.627243 271.255002 
L 225.353214 136.80991 
L 226.079186 206.32911 
L 226.805158 231.265817 
L 227.53113 151.178583 
L 228.257101 241.817278 
L 228.983073 224.208371 
L 229.709045 265.159084 
L 230.435016 240.990772 
L 231.160988 147.049231 
L 231.88696 188.091417 
L 232.612931 260.135998 
L 233.338903 269.657605 
L 234.064875 262.281794 
L 234.790847 228.715172 
L 235.516818 228.181323 
L 236.24279 114.080023 
L 236.968762 242.572304 
L 237.694733 249.876905 
L 238.420705 108.274401 
L 239.146677 221.175376 
L 239.872648 261.239576 
L 240.59862 151.392535 
L 241.324592 245.575457 
L 242.050564 108.470368 
L 242.776535 180.817866 
L 243.502507 170.572948 
L 244.228479 261.174472 
L 244.95445 255.056112 
L 245.680422 163.142191 
L 246.406394 245.671324 
L 247.132366 267.092919 
L 247.858337 262.444848 
L 248.584309 255.167246 
L 249.310281 229.212114 
L 250.036252 163.038723 
L 250.762224 241.234755 
L 251.488196 214.164798 
L 252.214167 243.962413 
L 252.940139 212.557243 
L 253.666111 128.630988 
L 254.392083 219.071663 
L 255.118054 161.133469 
L 255.844026 238.404167 
L 256.569998 261.991397 
L 257.295969 267.957786 
L 258.021941 265.617709 
L 258.747913 140.13475 
L 259.473884 189.852082 
L 260.199856 257.735224 
L 260.925828 233.013988 
L 261.6518 221.573615 
L 262.377771 243.378742 
L 263.103743 230.001267 
L 263.829715 268.059986 
L 264.555686 262.651098 
L 265.281658 270.777635 
L 266.00763 238.38614 
L 266.733602 126.33447 
L 267.459573 244.925324 
L 268.185545 222.445103 
L 268.911517 224.752786 
L 269.637488 253.368514 
L 270.36346 248.647393 
L 271.089432 260.229905 
L 271.815403 262.026248 
L 272.541375 274.422396 
L 273.993319 261.724813 
L 274.71929 163.289768 
L 275.445262 149.215502 
L 276.171234 205.444805 
L 276.897205 181.217765 
L 277.623177 180.610602 
L 278.349149 240.19639 
L 279.07512 117.327099 
L 279.801092 193.066717 
L 280.527064 251.773073 
L 281.253036 199.807732 
L 281.979007 239.044304 
L 282.704979 144.205068 
L 283.430951 250.30943 
L 284.156922 265.614922 
L 284.882894 200.114941 
L 285.608866 260.678524 
L 286.334837 236.568996 
L 287.060809 258.017817 
L 287.786781 264.006882 
L 288.512753 249.450689 
L 289.238724 265.5163 
L 289.964696 253.849901 
L 290.690668 146.778779 
L 291.416639 249.743325 
L 292.142611 258.525542 
L 292.868583 224.069674 
L 293.594555 215.987481 
L 294.320526 219.332116 
L 295.046498 264.55176 
L 295.77247 262.190277 
L 296.498441 238.743558 
L 297.224413 249.811251 
L 297.950385 222.447891 
L 298.676356 150.645018 
L 299.402328 172.092339 
L 300.1283 183.608242 
L 300.854272 251.715421 
L 301.580243 243.401708 
L 302.306215 254.180443 
L 303.032187 148.785237 
L 303.758158 236.912708 
L 304.48413 256.861061 
L 305.936073 227.101624 
L 306.662045 168.445721 
L 307.388017 254.708011 
L 308.113989 249.213113 
L 308.83996 260.20411 
L 309.565932 192.307743 
L 310.291904 262.074551 
L 311.017875 100.315641 
L 311.743847 240.425768 
L 312.469819 242.253747 
L 313.19579 230.173727 
L 313.921762 172.942959 
L 314.647734 246.888313 
L 315.373706 228.84954 
L 316.099677 266.744692 
L 316.825649 159.305144 
L 317.551621 187.832094 
L 318.277592 180.782275 
L 319.003564 195.640418 
L 319.729536 223.023033 
L 320.455508 163.483809 
L 321.181479 232.122187 
L 321.907451 247.206656 
L 322.633423 246.26564 
L 323.359394 145.007769 
L 324.085366 255.992342 
L 324.811338 264.256634 
L 325.537309 171.027234 
L 326.263281 217.429467 
L 326.989253 255.114494 
L 327.715225 220.385722 
L 328.441196 234.86332 
L 329.167168 134.122912 
L 329.89314 204.445254 
L 330.619111 254.537279 
L 331.345083 232.437841 
L 332.071055 164.558075 
L 333.522998 257.138452 
L 334.24897 260.348476 
L 334.974942 146.904719 
L 335.700913 192.301712 
L 336.426885 227.788192 
L 337.152857 203.160915 
L 337.878828 271.188914 
L 338.6048 108.828003 
L 339.330772 237.207266 
L 340.056743 151.157269 
L 340.782715 182.959191 
L 341.508687 206.2355 
L 342.234659 219.167678 
L 342.96063 265.67468 
L 343.686602 261.098296 
L 344.412574 147.06139 
L 345.138545 249.780706 
L 345.864517 267.213222 
L 346.590489 167.733234 
L 347.316461 248.72369 
L 348.042432 148.887881 
L 348.768404 257.900553 
L 349.494376 261.332076 
L 350.220347 208.520406 
L 350.946319 237.390827 
L 351.672291 258.067425 
L 352.398262 189.260675 
L 353.124234 241.158934 
L 353.850206 140.184697 
L 354.576178 235.59468 
L 355.302149 187.956186 
L 356.028121 183.449431 
L 356.754093 202.813391 
L 357.480064 256.40856 
L 358.206036 237.546314 
L 358.932008 245.385376 
L 359.657979 244.984636 
L 360.383951 234.876028 
L 361.109923 218.059323 
L 361.835895 162.365619 
L 362.561866 193.922697 
L 363.287838 250.275295 
L 364.01381 192.655092 
L 364.739781 250.957348 
L 365.465753 245.049796 
L 366.191725 169.21217 
L 366.917696 244.247487 
L 367.643668 146.23994 
L 369.095612 260.033488 
L 369.821583 227.74128 
L 370.547555 211.919836 
L 371.273527 254.423793 
L 371.999498 272.093201 
L 372.72547 237.383528 
L 373.451442 262.09509 
L 374.177414 161.627581 
L 374.903385 211.657881 
L 375.629357 178.777189 
L 376.355329 257.823738 
L 377.0813 235.299787 
L 377.807272 153.60927 
L 378.533244 188.460915 
L 379.259215 189.416245 
L 379.985187 187.944636 
L 380.711159 246.142392 
L 381.437131 195.21487 
L 382.163102 233.192647 
L 382.889074 262.329422 
L 383.615046 248.781245 
L 384.341017 238.110975 
L 385.066989 230.06102 
L 385.792961 190.221659 
L 386.518932 234.059662 
L 387.244904 218.289007 
L 387.970876 244.291814 
L 388.696848 227.678753 
L 389.422819 247.875216 
L 390.148791 161.279381 
L 390.874763 191.04044 
L 391.600734 198.126457 
L 392.326706 251.620359 
L 393.052678 230.476389 
L 393.778649 261.975744 
L 394.504621 190.834778 
L 395.230593 248.382406 
L 395.956565 198.68818 
L 396.682536 244.91906 
L 397.408508 230.258182 
L 398.13448 246.804498 
L 398.860451 204.74894 
L 399.586423 196.704423 
L 400.312395 182.856627 
L 401.038367 248.781272 
L 401.764338 170.217904 
L 402.49031 204.11235 
L 403.216282 193.341481 
L 403.942253 232.806864 
L 404.668225 234.871571 
L 405.394197 202.801952 
L 406.120168 194.457017 
L 406.84614 213.607995 
L 407.572112 183.437842 
L 408.298084 235.033643 
L 409.024055 179.945976 
L 409.750027 256.612846 
L 410.475999 175.376816 
L 411.20197 202.92736 
L 411.927942 243.963061 
L 412.653914 236.371897 
L 413.379885 229.994317 
L 414.105857 204.839266 
L 414.831829 238.666397 
L 415.557801 188.389269 
L 416.283772 207.247199 
L 417.009744 230.073308 
L 417.735716 212.138415 
L 418.461687 209.336191 
L 419.187659 209.007508 
L 419.913631 244.549215 
L 420.639602 206.992693 
L 421.365574 247.793245 
L 422.091546 202.373401 
L 422.817518 247.129478 
L 423.543489 244.463201 
L 424.269461 236.909594 
L 424.995433 224.594142 
L 425.721404 201.14024 
L 426.447376 247.769685 
L 427.173348 235.95578 
L 427.89932 231.299024 
L 428.625291 249.878595 
L 429.351263 228.524002 
L 430.077235 240.332902 
L 430.803206 196.076031 
L 431.529178 212.225015 
L 432.25515 201.893019 
L 432.981121 201.560856 
L 433.707093 210.991307 
L 434.433065 202.196764 
L 435.159037 238.95056 
L 435.885008 213.312456 
L 436.61098 243.052858 
L 437.336952 197.749923 
L 438.062923 245.515166 
L 438.788895 234.352332 
L 439.514867 199.675707 
L 440.240838 198.532855 
L 440.96681 201.714852 
L 441.692782 239.641152 
L 442.418754 213.117652 
L 443.144725 226.045496 
L 443.870697 229.861154 
L 444.596669 209.225658 
L 445.32264 211.586814 
L 446.048612 241.197117 
L 446.774584 215.118154 
L 447.500555 216.311197 
L 448.226527 206.211202 
L 448.952499 262.54655 
L 449.678471 258.772848 
L 450.404442 196.314826 
L 451.130414 219.414911 
L 451.856386 213.839629 
L 452.582357 242.445497 
L 453.308329 239.628414 
L 454.034301 214.404311 
L 454.760273 217.294295 
L 456.212216 202.118127 
L 456.212216 202.118127 
" style="fill:none;stroke:#1f77b4;stroke-linecap:square;stroke-width:1.5;"/>
   </g>
   <g id="line2d_2">
    <path clip-path="url(#p5fc4889953)" d="M 50.394034 235.949016 
L 51.120006 249.612672 
L 51.845977 197.890429 
L 52.571949 265.844483 
L 53.297921 268.142905 
L 54.749864 229.299333 
L 55.475836 221.218286 
L 56.201808 119.237335 
L 56.927779 166.373269 
L 57.653751 257.66983 
L 58.379723 211.655103 
L 59.105695 232.657599 
L 59.831666 247.383473 
L 60.557638 245.283021 
L 61.28361 267.518682 
L 62.009581 270.047937 
L 62.735553 265.81052 
L 63.461525 112.832137 
L 64.187496 229.004975 
L 64.913468 224.563585 
L 65.63944 253.398519 
L 66.365412 237.700928 
L 67.091383 277.557834 
L 67.817355 242.232927 
L 68.543327 130.110968 
L 69.269298 170.541395 
L 69.99527 101.82949 
L 70.721242 257.912097 
L 71.447213 156.697244 
L 72.173185 129.270495 
L 72.899157 218.325084 
L 73.625129 224.552872 
L 74.3511 137.679685 
L 75.077072 247.052868 
L 75.803044 267.087745 
L 76.529015 248.816795 
L 77.254987 263.75571 
L 77.980959 228.370547 
L 78.70693 272.159981 
L 79.432902 270.255347 
L 80.158874 222.878774 
L 80.884846 259.726764 
L 81.610817 273.05127 
L 82.336789 275.423649 
L 83.062761 241.774069 
L 83.788732 215.24504 
L 84.514704 235.562608 
L 85.240676 34.67267 
L 85.966648 207.839825 
L 86.692619 89.107792 
L 87.418591 239.017656 
L 88.144563 246.262556 
L 88.870534 239.654814 
L 89.596506 123.487718 
L 90.322478 218.951911 
L 91.774421 240.635384 
L 92.500393 249.033108 
L 93.226365 267.742402 
L 93.952336 267.749779 
L 94.678308 256.259165 
L 95.40428 211.441591 
L 96.130251 184.727781 
L 96.856223 128.790517 
L 97.582195 266.306023 
L 98.308166 243.321548 
L 99.034138 208.215456 
L 99.76011 261.216249 
L 100.486082 254.815509 
L 101.212053 215.804115 
L 101.938025 279.915111 
L 102.663997 247.701077 
L 103.389968 257.649096 
L 104.11594 237.913949 
L 104.841912 102.714321 
L 105.567883 234.373061 
L 106.293855 269.584497 
L 107.019827 101.712497 
L 107.745799 238.399285 
L 108.47177 83.717787 
L 109.197742 242.151316 
L 109.923714 272.237548 
L 110.649685 270.409258 
L 111.375657 245.794155 
L 112.101629 265.419632 
L 112.827601 73.639771 
L 114.279544 248.256097 
L 115.005516 213.982618 
L 115.731487 165.85141 
L 116.457459 237.510936 
L 117.183431 207.104354 
L 117.909402 168.708054 
L 119.361346 215.710851 
L 120.087318 257.69309 
L 120.813289 259.285916 
L 121.539261 264.038822 
L 122.265233 215.174949 
L 122.991204 258.872629 
L 123.717176 203.552789 
L 124.443148 126.878587 
L 125.169119 217.551853 
L 125.895091 266.471585 
L 126.621063 258.216995 
L 127.347035 258.472975 
L 128.073006 252.273947 
L 128.798978 259.986085 
L 129.52495 230.562559 
L 130.250921 266.229495 
L 130.976893 220.479412 
L 131.702865 255.89469 
L 132.428836 277.715241 
L 133.154808 256.165261 
L 133.88078 270.816752 
L 134.606752 273.845535 
L 135.332723 235.594358 
L 136.058695 260.318468 
L 136.784667 257.481776 
L 137.510638 251.516968 
L 138.23661 261.560909 
L 138.962582 260.775619 
L 139.688554 260.17684 
L 140.414525 256.365713 
L 141.140497 265.408157 
L 141.866469 265.273406 
L 142.59244 275.670469 
L 143.318412 267.207772 
L 144.044384 196.858814 
L 144.770355 180.730267 
L 145.496327 211.581793 
L 146.222299 184.933166 
L 147.674242 256.495438 
L 148.400214 127.930191 
L 149.126186 211.950368 
L 149.852157 262.796092 
L 150.578129 99.611511 
L 151.304101 238.528748 
L 152.030072 270.256627 
L 152.756044 267.641642 
L 153.482016 256.926419 
L 154.207988 247.934558 
L 154.933959 248.103523 
L 155.659931 281.76358 
L 156.385903 197.909193 
L 157.111874 265.237491 
L 157.837846 216.172108 
L 158.563818 146.003594 
L 159.289789 207.157162 
L 160.015761 176.830971 
L 160.741733 237.110117 
L 161.467705 232.323408 
L 162.193676 223.379789 
L 162.919648 204.71361 
L 163.64562 239.008302 
L 164.371591 244.027843 
L 165.097563 261.067175 
L 165.823535 87.893189 
L 166.549507 245.970053 
L 167.275478 95.526014 
L 168.00145 191.715265 
L 168.727422 232.390929 
L 169.453393 177.404453 
L 170.179365 161.818662 
L 170.905337 190.382519 
L 171.631308 176.943978 
L 172.35728 259.374192 
L 173.083252 162.250392 
L 173.809224 221.453362 
L 174.535195 241.604932 
L 175.261167 146.466323 
L 175.987139 248.530994 
L 176.71311 170.732293 
L 177.439082 210.046312 
L 178.891025 265.669748 
L 179.616997 234.46958 
L 180.342969 265.058131 
L 181.068941 152.946149 
L 181.794912 177.592863 
L 182.520884 181.249869 
L 183.246856 245.481502 
L 183.972827 211.837855 
L 184.698799 228.579045 
L 185.424771 250.419152 
L 186.150742 164.704109 
L 186.876714 266.048273 
L 187.602686 250.062752 
L 188.328658 267.194435 
L 189.054629 256.305703 
L 189.780601 226.139033 
L 190.506573 265.977974 
L 191.232544 243.233088 
L 191.958516 210.870832 
L 192.684488 200.725057 
L 193.41046 236.887702 
L 194.862403 274.470257 
L 195.588375 231.860868 
L 196.314346 149.861689 
L 197.040318 236.256 
L 197.76629 127.494535 
L 198.492261 244.605685 
L 199.218233 270.064719 
L 199.944205 244.839265 
L 200.670177 152.510374 
L 201.396148 244.791779 
L 202.12212 247.657075 
L 202.848092 273.350444 
L 203.574063 254.827261 
L 204.300035 218.586429 
L 205.026007 260.325758 
L 205.751978 269.258157 
L 206.47795 214.851654 
L 207.203922 244.390112 
L 207.929894 140.421177 
L 208.655865 236.041432 
L 209.381837 270.590439 
L 210.107809 258.579052 
L 210.83378 250.48654 
L 211.559752 262.153006 
L 212.285724 256.552859 
L 213.011695 259.995502 
L 213.737667 265.256317 
L 214.463639 269.463537 
L 215.189611 267.010936 
L 215.915582 245.495689 
L 216.641554 275.179354 
L 217.367526 256.948988 
L 218.093497 260.790837 
L 218.819469 275.369154 
L 219.545441 240.016589 
L 220.997384 266.692047 
L 221.723356 240.296851 
L 222.449328 256.788549 
L 223.175299 185.058202 
L 223.901271 254.041358 
L 224.627243 100.940266 
L 225.353214 163.535332 
L 226.079186 269.12599 
L 226.805158 258.630644 
L 227.53113 192.6867 
L 228.257101 143.134036 
L 228.983073 256.257852 
L 229.709045 260.528528 
L 230.435016 267.322371 
L 231.160988 221.898981 
L 231.88696 140.332107 
L 232.612931 150.807174 
L 233.338903 258.836776 
L 234.064875 263.148628 
L 234.790847 255.62589 
L 235.516818 271.797631 
L 236.24279 218.080209 
L 236.968762 242.06798 
L 237.694733 152.61849 
L 238.420705 165.086976 
L 239.146677 196.313414 
L 239.872648 262.360289 
L 240.59862 159.875637 
L 241.324592 232.381288 
L 242.050564 152.763958 
L 242.776535 181.691729 
L 243.502507 250.745996 
L 244.228479 236.611123 
L 244.95445 248.653538 
L 245.680422 249.131862 
L 246.406394 114.706297 
L 247.132366 246.581003 
L 247.858337 262.652697 
L 249.310281 234.461653 
L 250.036252 261.2103 
L 250.762224 219.670714 
L 251.488196 220.961722 
L 252.214167 257.483049 
L 252.940139 238.665999 
L 253.666111 196.420657 
L 254.392083 226.267643 
L 255.118054 127.223066 
L 255.844026 161.617781 
L 256.569998 258.138011 
L 257.295969 248.391224 
L 258.021941 260.583253 
L 258.747913 153.764204 
L 259.473884 165.82235 
L 260.199856 260.609206 
L 260.925828 225.307764 
L 261.6518 259.627616 
L 262.377771 246.757668 
L 263.103743 225.567716 
L 264.555686 265.001676 
L 265.281658 233.961037 
L 266.00763 84.378879 
L 266.733602 242.816415 
L 267.459573 230.533868 
L 268.185545 169.324326 
L 268.911517 245.957899 
L 269.637488 264.866023 
L 270.36346 137.777689 
L 271.089432 258.931721 
L 271.815403 156.637103 
L 272.541375 254.571835 
L 273.267347 164.757497 
L 273.993319 221.045573 
L 274.71929 165.503436 
L 275.445262 164.021772 
L 276.171234 243.352962 
L 276.897205 176.587455 
L 277.623177 169.050194 
L 278.349149 223.877832 
L 279.07512 187.66338 
L 279.801092 168.269052 
L 280.527064 250.940968 
L 281.253036 158.720089 
L 281.979007 231.121461 
L 282.704979 155.876606 
L 283.430951 236.89309 
L 284.156922 261.691469 
L 284.882894 223.905418 
L 285.608866 265.714857 
L 286.334837 236.396452 
L 287.060809 271.12956 
L 287.786781 271.760756 
L 288.512753 114.393894 
L 289.238724 197.155883 
L 289.964696 162.25653 
L 290.690668 252.047621 
L 291.416639 234.814284 
L 292.142611 249.201212 
L 292.868583 198.674628 
L 293.594555 164.277576 
L 294.320526 151.248847 
L 295.046498 241.870387 
L 295.77247 190.943327 
L 296.498441 257.269672 
L 297.224413 150.406154 
L 297.950385 188.962437 
L 298.676356 161.022135 
L 299.402328 228.029578 
L 300.1283 172.801065 
L 300.854272 262.483376 
L 301.580243 254.917843 
L 302.306215 261.461129 
L 303.032187 270.588065 
L 303.758158 206.550158 
L 304.48413 268.645383 
L 305.210102 267.318032 
L 305.936073 141.257072 
L 306.662045 245.185941 
L 307.388017 219.502854 
L 308.113989 234.629785 
L 308.83996 229.317503 
L 309.565932 129.191369 
L 310.291904 257.648594 
L 311.017875 216.73782 
L 311.743847 225.831717 
L 312.469819 253.07716 
L 313.19579 257.918021 
L 313.921762 269.754165 
L 314.647734 268.493162 
L 315.373706 245.168736 
L 316.099677 257.149281 
L 316.825649 262.469076 
L 317.551621 218.065494 
L 318.277592 247.121871 
L 319.003564 113.271957 
L 319.729536 219.962096 
L 320.455508 239.693324 
L 321.181479 211.516399 
L 321.907451 248.253669 
L 322.633423 264.080832 
L 323.359394 226.659761 
L 324.085366 121.167857 
L 324.811338 196.394315 
L 325.537309 253.027337 
L 326.263281 253.171394 
L 326.989253 178.087101 
L 327.715225 221.260198 
L 328.441196 236.212583 
L 329.167168 201.563164 
L 329.89314 247.024231 
L 330.619111 258.351055 
L 331.345083 258.178944 
L 332.071055 239.308425 
L 333.522998 265.225323 
L 334.24897 243.957586 
L 334.974942 213.695056 
L 336.426885 252.536474 
L 337.152857 265.842892 
L 337.878828 273.56712 
L 338.6048 168.432905 
L 339.330772 260.969367 
L 340.056743 92.121949 
L 340.782715 239.280302 
L 341.508687 155.233613 
L 342.234659 240.694873 
L 342.96063 255.877075 
L 343.686602 247.213054 
L 344.412574 205.633724 
L 345.138545 228.198776 
L 345.864517 264.964373 
L 346.590489 223.505281 
L 347.316461 245.21719 
L 348.042432 137.880482 
L 348.768404 262.878406 
L 349.494376 257.271548 
L 350.220347 203.482532 
L 350.946319 160.781671 
L 351.672291 266.679296 
L 352.398262 269.41291 
L 353.124234 239.489923 
L 353.850206 229.555504 
L 354.576178 154.513568 
L 355.302149 166.268471 
L 356.028121 187.358658 
L 356.754093 163.515682 
L 357.480064 246.408354 
L 358.206036 264.266414 
L 358.932008 238.074518 
L 359.657979 237.599715 
L 360.383951 186.168012 
L 361.109923 181.842995 
L 361.835895 182.780268 
L 362.561866 209.146418 
L 363.287838 241.95217 
L 364.01381 234.12646 
L 364.739781 198.020236 
L 365.465753 248.856626 
L 366.191725 217.638638 
L 366.917696 262.513812 
L 367.643668 200.592131 
L 368.36964 228.658022 
L 369.095612 187.832689 
L 369.821583 238.35783 
L 370.547555 232.135001 
L 371.273527 229.490458 
L 371.999498 239.060292 
L 372.72547 190.955394 
L 373.451442 252.82879 
L 374.177414 259.411295 
L 374.903385 189.84172 
L 375.629357 253.782714 
L 376.355329 221.400116 
L 377.0813 178.016241 
L 377.807272 199.311479 
L 378.533244 191.75937 
L 379.259215 185.449014 
L 379.985187 176.410716 
L 380.711159 245.151374 
L 381.437131 197.877976 
L 382.163102 234.157802 
L 382.889074 207.244555 
L 383.615046 197.541348 
L 384.341017 205.059852 
L 385.066989 254.515283 
L 385.792961 242.251202 
L 386.518932 213.024193 
L 387.244904 173.402649 
L 387.970876 251.663854 
L 388.696848 174.427333 
L 389.422819 239.994211 
L 390.148791 195.427266 
L 390.874763 195.761288 
L 391.600734 194.130962 
L 392.326706 245.298021 
L 393.052678 177.098377 
L 393.778649 209.661691 
L 394.504621 216.173548 
L 395.230593 238.572039 
L 395.956565 203.027124 
L 396.682536 230.138096 
L 397.408508 194.741316 
L 398.13448 249.048904 
L 398.860451 232.144637 
L 399.586423 227.583957 
L 400.312395 195.944326 
L 401.038367 238.816178 
L 401.764338 186.172082 
L 402.49031 208.170856 
L 403.216282 211.394833 
L 403.942253 230.505541 
L 404.668225 181.179705 
L 405.394197 209.743465 
L 406.120168 181.710826 
L 406.84614 206.052953 
L 407.572112 189.521155 
L 408.298084 235.632898 
L 409.024055 198.27364 
L 409.750027 264.165002 
L 410.475999 190.175182 
L 411.20197 202.042588 
L 411.927942 241.634177 
L 412.653914 239.682114 
L 413.379885 232.827183 
L 414.105857 244.064874 
L 414.831829 182.096995 
L 415.557801 230.036871 
L 416.283772 200.022939 
L 417.009744 246.289362 
L 417.735716 213.109433 
L 418.461687 205.652889 
L 419.187659 213.665106 
L 419.913631 252.811828 
L 420.639602 199.828577 
L 421.365574 257.975713 
L 422.091546 182.049289 
L 422.817518 247.502727 
L 423.543489 239.796802 
L 424.269461 250.954461 
L 424.995433 183.977034 
L 425.721404 201.858164 
L 426.447376 204.33883 
L 427.173348 243.108507 
L 427.89932 210.073408 
L 428.625291 239.001361 
L 429.351263 212.000871 
L 430.077235 238.093391 
L 430.803206 196.745992 
L 431.529178 216.285521 
L 432.25515 201.371855 
L 432.981121 191.628147 
L 433.707093 240.454785 
L 434.433065 209.654439 
L 435.159037 253.933077 
L 435.885008 208.660939 
L 436.61098 249.566141 
L 437.336952 197.264622 
L 438.062923 236.583616 
L 438.788895 234.512028 
L 439.514867 193.107868 
L 440.240838 234.151948 
L 440.96681 197.176218 
L 441.692782 216.950154 
L 442.418754 216.218122 
L 443.144725 252.324043 
L 443.870697 260.405563 
L 444.596669 196.297184 
L 445.32264 257.955498 
L 446.048612 234.167361 
L 446.774584 240.334584 
L 447.500555 200.935322 
L 448.226527 194.419699 
L 448.952499 257.795198 
L 449.678471 260.743076 
L 450.404442 198.151275 
L 451.130414 250.011165 
L 451.856386 213.532629 
L 452.582357 220.696244 
L 453.308329 249.721708 
L 454.034301 255.932537 
L 454.760273 199.32956 
L 455.486244 210.861286 
L 456.212216 193.164705 
L 456.212216 193.164705 
" style="fill:none;stroke:#ff7f0e;stroke-linecap:square;stroke-width:1.5;"/>
   </g>
   <g id="line2d_3">
    <path clip-path="url(#p5fc4889953)" d="M 50.394034 272.003183 
L 51.120006 264.469369 
L 51.845977 223.738116 
L 52.571949 259.713057 
L 53.297921 214.864835 
L 54.023893 266.545712 
L 54.749864 132.900919 
L 56.201808 198.033072 
L 56.927779 231.399955 
L 57.653751 251.6341 
L 58.379723 239.696307 
L 59.105695 246.598539 
L 59.831666 256.285718 
L 60.557638 255.821163 
L 61.28361 102.206723 
L 62.009581 269.952241 
L 62.735553 132.062297 
L 63.461525 234.698815 
L 64.187496 131.040376 
L 64.913468 188.601368 
L 65.63944 262.823871 
L 66.365412 118.922001 
L 67.091383 258.061613 
L 67.817355 210.655078 
L 68.543327 216.622503 
L 69.269298 241.736318 
L 69.99527 221.649535 
L 70.721242 254.000358 
L 71.447213 226.560379 
L 72.173185 244.998709 
L 72.899157 236.044007 
L 73.625129 118.834835 
L 74.3511 153.839377 
L 75.077072 252.580087 
L 75.803044 264.415184 
L 76.529015 250.722841 
L 77.254987 142.779608 
L 77.980959 256.709871 
L 78.70693 221.445729 
L 79.432902 196.006358 
L 80.158874 207.380399 
L 80.884846 223.061387 
L 81.610817 266.738062 
L 82.336789 150.354775 
L 83.062761 149.661712 
L 83.788732 252.821232 
L 84.514704 124.089816 
L 85.240676 252.695507 
L 85.966648 262.078467 
L 86.692619 205.510199 
L 87.418591 166.398895 
L 88.144563 181.482638 
L 88.870534 186.112524 
L 89.596506 235.247742 
L 90.322478 161.679785 
L 91.048449 173.691353 
L 91.774421 231.329069 
L 92.500393 236.040329 
L 93.226365 228.862329 
L 93.952336 266.984865 
L 95.40428 270.631011 
L 96.130251 242.786225 
L 96.856223 231.622305 
L 97.582195 272.625889 
L 98.308166 254.273737 
L 99.034138 255.69414 
L 99.76011 226.968736 
L 100.486082 260.973467 
L 101.212053 228.890508 
L 101.938025 269.879216 
L 102.663997 129.377507 
L 103.389968 261.221517 
L 104.11594 168.367862 
L 104.841912 208.99278 
L 105.567883 268.835195 
L 106.293855 257.070688 
L 107.019827 204.19614 
L 107.745799 268.336178 
L 108.47177 194.040634 
L 109.197742 136.220176 
L 109.923714 261.477431 
L 110.649685 256.0816 
L 111.375657 259.575882 
L 112.101629 267.186767 
L 112.827601 262.465015 
L 113.553572 255.07556 
L 114.279544 251.606627 
L 115.005516 249.623785 
L 115.731487 271.531765 
L 116.457459 251.034731 
L 117.183431 219.388657 
L 117.909402 239.059279 
L 118.635374 198.319532 
L 119.361346 200.196418 
L 120.087318 247.218602 
L 120.813289 250.22401 
L 121.539261 239.655538 
L 122.265233 238.753112 
L 122.991204 266.907011 
L 123.717176 209.790077 
L 124.443148 258.006825 
L 125.895091 264.065367 
L 126.621063 257.826622 
L 127.347035 262.572554 
L 128.073006 265.530142 
L 128.798978 258.593498 
L 129.52495 257.028232 
L 130.250921 278.023289 
L 130.976893 263.676535 
L 131.702865 214.413624 
L 132.428836 258.997456 
L 133.154808 45.287372 
L 133.88078 192.349905 
L 134.606752 262.069053 
L 135.332723 113.45509 
L 136.058695 228.790686 
L 136.784667 267.436419 
L 137.510638 211.577964 
L 138.23661 256.45087 
L 138.962582 256.919844 
L 139.688554 115.474615 
L 140.414525 230.162337 
L 141.140497 248.913861 
L 141.866469 254.934857 
L 142.59244 256.855962 
L 143.318412 219.853255 
L 144.044384 218.27398 
L 144.770355 223.844445 
L 145.496327 220.179766 
L 146.222299 222.966419 
L 146.948271 192.346064 
L 147.674242 230.250209 
L 148.400214 260.363107 
L 149.126186 217.400367 
L 149.852157 258.014302 
L 150.578129 260.577886 
L 151.304101 261.81029 
L 152.030072 120.02184 
L 152.756044 262.956376 
L 153.482016 218.946684 
L 154.207988 99.725892 
L 155.659931 260.165685 
L 156.385903 263.04982 
L 157.111874 274.254762 
L 157.837846 265.161573 
L 158.563818 264.341835 
L 159.289789 250.608219 
L 160.015761 253.852058 
L 160.741733 125.176464 
L 161.467705 247.55671 
L 162.193676 128.585084 
L 162.919648 186.724154 
L 163.64562 151.620193 
L 164.371591 232.153721 
L 165.097563 256.743325 
L 165.823535 191.445173 
L 166.549507 212.842439 
L 167.275478 217.085496 
L 168.00145 239.383939 
L 168.727422 150.503289 
L 169.453393 220.013556 
L 170.179365 151.366715 
L 170.905337 234.74128 
L 171.631308 147.541885 
L 172.35728 259.025252 
L 173.083252 120.258488 
L 173.809224 251.667701 
L 174.535195 264.676675 
L 175.261167 152.728268 
L 175.987139 230.410613 
L 176.71311 234.253813 
L 177.439082 228.615289 
L 178.165054 153.627147 
L 178.891025 195.282955 
L 179.616997 256.31262 
L 180.342969 169.452865 
L 181.068941 207.011822 
L 181.794912 216.069176 
L 182.520884 228.934595 
L 183.246856 152.018961 
L 183.972827 254.942191 
L 184.698799 176.243157 
L 185.424771 189.364108 
L 186.150742 238.201701 
L 186.876714 254.532923 
L 187.602686 244.343621 
L 188.328658 256.424246 
L 189.054629 156.388943 
L 189.780601 180.892486 
L 190.506573 243.184416 
L 191.232544 239.520467 
L 191.958516 176.375812 
L 192.684488 246.735315 
L 193.41046 145.065161 
L 194.136431 259.056153 
L 194.862403 203.301047 
L 195.588375 184.504224 
L 196.314346 191.348874 
L 197.040318 215.023949 
L 197.76629 155.072811 
L 198.492261 259.209272 
L 199.218233 260.194299 
L 199.944205 245.414998 
L 200.670177 261.713431 
L 201.396148 261.480352 
L 202.12212 156.017136 
L 202.848092 250.5022 
L 203.574063 132.956639 
L 204.300035 158.962995 
L 205.026007 218.114025 
L 205.751978 244.589893 
L 206.47795 156.040347 
L 207.203922 251.242041 
L 207.929894 235.318155 
L 208.655865 142.509044 
L 209.381837 253.045766 
L 210.107809 160.632813 
L 210.83378 251.519052 
L 211.559752 220.598351 
L 212.285724 256.220065 
L 213.011695 155.544781 
L 213.737667 261.453199 
L 214.463639 263.289869 
L 215.189611 252.078937 
L 215.915582 245.349665 
L 216.641554 261.592047 
L 217.367526 253.71923 
L 218.093497 261.105266 
L 218.819469 220.847787 
L 219.545441 260.34968 
L 220.271413 136.561948 
L 220.997384 238.522452 
L 221.723356 110.103228 
L 222.449328 247.500253 
L 223.175299 148.147731 
L 223.901271 244.544114 
L 224.627243 256.050302 
L 225.353214 106.460441 
L 226.079186 259.138592 
L 226.805158 243.850736 
L 227.53113 213.225666 
L 228.257101 162.671842 
L 228.983073 169.460154 
L 229.709045 234.107532 
L 230.435016 157.232244 
L 231.160988 231.795089 
L 231.88696 219.557979 
L 232.612931 262.522066 
L 233.338903 161.365736 
L 234.064875 149.069804 
L 234.790847 146.77245 
L 235.516818 224.146935 
L 236.24279 170.649469 
L 236.968762 253.793509 
L 237.694733 255.046605 
L 238.420705 126.513723 
L 239.146677 228.592657 
L 239.872648 249.936903 
L 240.59862 176.212525 
L 241.324592 235.756122 
L 242.050564 133.425845 
L 242.776535 171.148331 
L 243.502507 231.28502 
L 244.228479 261.944215 
L 244.95445 253.575701 
L 245.680422 232.243217 
L 246.406394 235.602111 
L 247.132366 259.858906 
L 247.858337 143.419768 
L 249.310281 232.380507 
L 250.036252 263.872206 
L 250.762224 128.116223 
L 251.488196 235.561145 
L 252.214167 236.147317 
L 252.940139 182.907699 
L 253.666111 149.65022 
L 254.392083 254.890023 
L 255.118054 169.450368 
L 255.844026 246.372272 
L 256.569998 241.675786 
L 257.295969 263.888037 
L 258.021941 147.697838 
L 258.747913 234.179846 
L 259.473884 225.210113 
L 260.199856 258.16286 
L 260.925828 257.595568 
L 261.6518 249.917618 
L 262.377771 231.793852 
L 263.103743 126.711382 
L 263.829715 210.647115 
L 264.555686 228.718367 
L 265.281658 271.903437 
L 266.00763 220.962149 
L 266.733602 231.58822 
L 267.459573 137.740246 
L 268.185545 229.021534 
L 268.911517 181.150372 
L 269.637488 228.940744 
L 270.36346 219.074543 
L 271.089432 256.352253 
L 271.815403 234.270057 
L 272.541375 257.034222 
L 273.267347 228.632693 
L 273.993319 238.906233 
L 274.71929 224.137756 
L 275.445262 237.26512 
L 276.171234 246.365957 
L 276.897205 240.6569 
L 277.623177 231.732223 
L 278.349149 261.173117 
L 279.07512 215.305133 
L 279.801092 237.010244 
L 280.527064 252.800086 
L 281.253036 255.76409 
L 282.704979 229.713023 
L 283.430951 212.219463 
L 284.156922 271.140276 
L 284.882894 252.715138 
L 285.608866 256.261284 
L 286.334837 224.412745 
L 287.060809 269.756134 
L 287.786781 263.689044 
L 288.512753 246.741758 
L 289.238724 98.318956 
L 289.964696 190.259063 
L 290.690668 247.158667 
L 291.416639 237.292762 
L 292.142611 231.413426 
L 293.594555 142.687706 
L 294.320526 215.916071 
L 295.046498 254.717552 
L 295.77247 255.461522 
L 296.498441 162.134914 
L 297.224413 237.610419 
L 297.950385 155.069438 
L 298.676356 166.704807 
L 299.402328 224.859938 
L 300.1283 175.227638 
L 300.854272 266.794079 
L 301.580243 231.107649 
L 302.306215 223.975935 
L 303.032187 269.544932 
L 303.758158 163.512377 
L 304.48413 257.303632 
L 305.210102 232.145457 
L 305.936073 255.364586 
L 306.662045 258.205607 
L 307.388017 121.310518 
L 308.113989 261.844225 
L 308.83996 231.494474 
L 309.565932 149.183782 
L 310.291904 248.541215 
L 311.017875 230.248578 
L 311.743847 239.024371 
L 312.469819 217.501692 
L 313.19579 263.644346 
L 313.921762 265.188463 
L 314.647734 257.177873 
L 315.373706 252.982145 
L 316.099677 215.485295 
L 316.825649 261.758996 
L 317.551621 248.97568 
L 318.277592 228.209089 
L 319.003564 241.777663 
L 319.729536 260.165532 
L 320.455508 151.541618 
L 321.181479 186.090729 
L 321.907451 235.673725 
L 322.633423 207.590928 
L 323.359394 156.965322 
L 324.085366 230.408217 
L 324.811338 258.25958 
L 325.537309 176.763202 
L 326.263281 185.946127 
L 326.989253 249.241146 
L 327.715225 130.642604 
L 328.441196 153.740243 
L 329.167168 160.007794 
L 329.89314 190.043274 
L 330.619111 258.525271 
L 331.345083 233.074319 
L 332.071055 167.606721 
L 332.797026 263.352302 
L 333.522998 245.491149 
L 334.24897 248.292269 
L 334.974942 228.449723 
L 335.700913 155.713262 
L 336.426885 233.716673 
L 337.152857 226.345522 
L 337.878828 272.346972 
L 338.6048 208.807023 
L 339.330772 239.849387 
L 340.056743 220.903829 
L 340.782715 169.457537 
L 341.508687 238.544259 
L 342.234659 200.201571 
L 342.96063 255.561982 
L 343.686602 256.054687 
L 344.412574 195.461408 
L 345.138545 243.10912 
L 345.864517 230.208957 
L 346.590489 154.741847 
L 347.316461 253.297393 
L 348.042432 156.146234 
L 348.768404 263.701959 
L 349.494376 252.008166 
L 350.220347 215.566103 
L 350.946319 254.990559 
L 351.672291 268.527677 
L 352.398262 258.540598 
L 353.124234 234.458332 
L 353.850206 254.63093 
L 354.576178 161.785966 
L 356.028121 224.209777 
L 356.754093 234.995112 
L 357.480064 257.383413 
L 358.206036 261.393092 
L 358.932008 228.874345 
L 359.657979 253.138046 
L 360.383951 256.007055 
L 361.109923 255.765035 
L 361.835895 236.578062 
L 362.561866 209.335798 
L 363.287838 260.460153 
L 364.01381 229.24581 
L 364.739781 187.319656 
L 365.465753 173.724611 
L 366.191725 240.763289 
L 366.917696 212.411577 
L 367.643668 151.179648 
L 368.36964 191.636374 
L 369.095612 245.53803 
L 369.821583 250.005377 
L 370.547555 238.719511 
L 371.273527 262.022997 
L 371.999498 196.301583 
L 372.72547 257.352715 
L 373.451442 255.243348 
L 374.177414 232.763793 
L 374.903385 262.599002 
L 375.629357 229.205137 
L 376.355329 237.613096 
L 377.0813 255.870578 
L 377.807272 156.156185 
L 378.533244 247.121212 
L 379.259215 176.322429 
L 379.985187 223.598554 
L 380.711159 221.396684 
L 381.437131 185.881258 
L 382.163102 246.593303 
L 382.889074 255.363762 
L 383.615046 248.604094 
L 384.341017 257.430975 
L 385.066989 262.537627 
L 385.792961 232.485449 
L 386.518932 259.376196 
L 387.244904 254.866464 
L 387.970876 248.786669 
L 388.696848 229.027843 
L 389.422819 224.650193 
L 390.148791 166.09048 
L 390.874763 183.193816 
L 391.600734 186.82879 
L 392.326706 256.349582 
L 393.052678 233.882111 
L 393.778649 261.179963 
L 394.504621 241.888419 
L 395.230593 152.871931 
L 395.956565 226.600669 
L 396.682536 196.401689 
L 397.408508 239.613426 
L 398.13448 201.318069 
L 398.860451 203.704266 
L 399.586423 255.666375 
L 400.312395 261.464132 
L 401.038367 181.359928 
L 401.764338 185.802646 
L 402.49031 225.631973 
L 403.216282 254.779834 
L 403.942253 196.291369 
L 404.668225 209.975086 
L 405.394197 235.204688 
L 406.120168 241.92133 
L 406.84614 231.970585 
L 407.572112 236.681216 
L 408.298084 201.334779 
L 409.024055 237.949778 
L 409.750027 262.258165 
L 410.475999 191.720399 
L 411.20197 172.302914 
L 411.927942 234.468304 
L 412.653914 232.1135 
L 413.379885 247.847809 
L 414.105857 191.560303 
L 414.831829 248.375855 
L 415.557801 179.010564 
L 416.283772 184.57017 
L 417.009744 238.274918 
L 417.735716 207.205897 
L 418.461687 200.09603 
L 419.187659 211.384477 
L 419.913631 243.225944 
L 420.639602 198.527319 
L 421.365574 246.827191 
L 422.091546 192.9675 
L 422.817518 254.579485 
L 423.543489 244.546428 
L 424.269461 252.708899 
L 424.995433 188.708772 
L 425.721404 250.489774 
L 426.447376 210.587425 
L 427.173348 205.418254 
L 427.89932 203.583097 
L 428.625291 200.521167 
L 429.351263 205.732021 
L 430.803206 199.579147 
L 431.529178 238.440985 
L 432.25515 196.266926 
L 432.981121 194.027998 
L 433.707093 245.004702 
L 434.433065 200.951699 
L 435.159037 249.341874 
L 435.885008 215.095241 
L 436.61098 258.000725 
L 437.336952 199.641161 
L 438.062923 247.706568 
L 438.788895 228.652626 
L 439.514867 196.069551 
L 440.240838 231.747116 
L 440.96681 202.633586 
L 441.692782 214.867916 
L 442.418754 215.850352 
L 443.144725 246.955909 
L 443.870697 260.599659 
L 444.596669 201.70229 
L 445.32264 211.039557 
L 446.048612 241.166153 
L 446.774584 218.598294 
L 448.226527 201.872836 
L 448.952499 260.347848 
L 449.678471 251.656483 
L 450.404442 202.541893 
L 451.130414 240.832631 
L 451.856386 220.48688 
L 452.582357 215.383182 
L 453.308329 246.119928 
L 454.034301 250.519934 
L 454.760273 210.358358 
L 455.486244 237.133805 
L 456.212216 197.329941 
L 456.212216 197.329941 
" style="fill:none;stroke:#2ca02c;stroke-linecap:square;stroke-width:1.5;"/>
   </g>
   <g id="line2d_4">
    <path clip-path="url(#p5fc4889953)" d="M 50.394034 269.708542 
L 51.120006 120.975695 
L 51.845977 179.054235 
L 54.023893 269.329032 
L 54.749864 263.411183 
L 55.475836 209.52825 
L 56.201808 256.781993 
L 56.927779 124.295312 
L 57.653751 259.493364 
L 58.379723 200.139878 
L 59.105695 222.130425 
L 59.831666 260.715495 
L 60.557638 127.685251 
L 61.28361 245.650128 
L 62.009581 217.549307 
L 62.735553 85.344407 
L 63.461525 262.23001 
L 64.187496 88.278689 
L 64.913468 194.41986 
L 65.63944 262.291415 
L 66.365412 156.594725 
L 67.091383 217.457298 
L 67.817355 250.053455 
L 68.543327 220.845748 
L 69.269298 131.887739 
L 69.99527 164.028211 
L 70.721242 258.156771 
L 71.447213 165.246773 
L 72.173185 151.287416 
L 72.899157 251.703002 
L 73.625129 239.516332 
L 74.3511 220.292161 
L 75.077072 134.86443 
L 75.803044 205.359583 
L 76.529015 255.596033 
L 77.254987 269.211735 
L 77.980959 260.391757 
L 78.70693 262.599278 
L 79.432902 229.974493 
L 80.158874 155.303752 
L 80.884846 238.604734 
L 81.610817 271.492836 
L 82.336789 266.555782 
L 83.062761 96.635879 
L 83.788732 245.136192 
L 84.514704 102.071428 
L 85.240676 232.382113 
L 85.966648 255.95572 
L 86.692619 179.71065 
L 87.418591 227.763322 
L 88.144563 251.866217 
L 88.870534 239.094663 
L 89.596506 245.396153 
L 90.322478 239.703781 
L 91.048449 122.847515 
L 92.500393 227.4536 
L 93.226365 267.004239 
L 93.952336 260.762303 
L 94.678308 143.545111 
L 95.40428 266.136351 
L 96.130251 218.935996 
L 96.856223 133.136757 
L 97.582195 170.954504 
L 98.308166 268.372884 
L 99.034138 245.488784 
L 99.76011 266.816679 
L 100.486082 255.045875 
L 101.212053 124.605324 
L 101.938025 194.785683 
L 102.663997 253.825679 
L 103.389968 262.727883 
L 104.11594 269.118207 
L 104.841912 263.090387 
L 105.567883 226.31358 
L 106.293855 222.929347 
L 107.019827 252.088762 
L 107.745799 252.153607 
L 108.47177 110.091021 
L 109.197742 239.379067 
L 109.923714 272.4532 
L 110.649685 270.278072 
L 111.375657 91.821401 
L 112.101629 181.419425 
L 112.827601 167.850532 
L 113.553572 258.63763 
L 115.005516 215.62814 
L 115.731487 231.382115 
L 116.457459 122.933673 
L 117.183431 170.887249 
L 117.909402 261.237845 
L 118.635374 254.39427 
L 119.361346 140.570825 
L 120.087318 261.434088 
L 120.813289 248.763377 
L 121.539261 200.030495 
L 122.265233 269.224229 
L 122.991204 259.728709 
L 123.717176 115.434117 
L 124.443148 256.69009 
L 125.169119 145.344734 
L 125.895091 231.126648 
L 126.621063 260.906922 
L 127.347035 237.59641 
L 128.073006 266.567346 
L 128.798978 263.399665 
L 129.52495 223.982648 
L 130.250921 264.503045 
L 130.976893 99.303762 
L 131.702865 171.15035 
L 132.428836 259.844562 
L 133.154808 255.047949 
L 134.606752 280.804621 
L 135.332723 236.810415 
L 136.058695 217.703377 
L 136.784667 153.866152 
L 137.510638 241.46452 
L 138.23661 265.109708 
L 138.962582 263.336757 
L 139.688554 228.404399 
L 140.414525 227.574877 
L 141.140497 264.155495 
L 141.866469 245.051995 
L 142.59244 89.005245 
L 143.318412 166.570248 
L 144.044384 257.906371 
L 144.770355 254.556491 
L 145.496327 240.286628 
L 146.222299 220.908578 
L 146.948271 212.05164 
L 147.674242 233.406367 
L 148.400214 264.575083 
L 149.126186 216.323989 
L 149.852157 248.555963 
L 150.578129 230.669172 
L 151.304101 258.728654 
L 152.030072 269.865071 
L 152.756044 216.383463 
L 153.482016 255.161882 
L 154.207988 234.87644 
L 154.933959 101.861741 
L 155.659931 237.04776 
L 156.385903 239.158794 
L 157.111874 264.723653 
L 157.837846 247.546096 
L 158.563818 275.894233 
L 159.289789 263.376621 
L 160.015761 270.679904 
L 160.741733 249.520333 
L 161.467705 136.051854 
L 162.193676 242.1284 
L 162.919648 72.240723 
L 163.64562 251.607606 
L 164.371591 259.611466 
L 165.097563 251.68796 
L 165.823535 196.210225 
L 166.549507 209.354936 
L 167.275478 233.65385 
L 168.00145 221.030457 
L 168.727422 260.150934 
L 169.453393 247.849677 
L 170.179365 221.381689 
L 170.905337 252.262006 
L 171.631308 163.251418 
L 172.35728 151.020759 
L 173.083252 129.759485 
L 173.809224 262.610247 
L 174.535195 254.28953 
L 175.261167 97.531568 
L 175.987139 240.793028 
L 176.71311 263.001859 
L 177.439082 226.322713 
L 178.165054 258.700292 
L 178.891025 266.347968 
L 179.616997 258.704927 
L 180.342969 218.180624 
L 181.068941 133.101904 
L 181.794912 253.930845 
L 182.520884 151.465605 
L 183.246856 157.387473 
L 183.972827 227.49374 
L 184.698799 151.408604 
L 185.424771 180.750917 
L 186.876714 274.62197 
L 187.602686 252.776225 
L 188.328658 249.219304 
L 189.054629 157.721815 
L 189.780601 168.003476 
L 190.506573 220.541927 
L 191.232544 244.339813 
L 191.958516 138.974111 
L 192.684488 164.480064 
L 193.41046 134.336757 
L 194.136431 236.660427 
L 194.862403 245.425926 
L 195.588375 168.415204 
L 196.314346 198.147291 
L 197.040318 234.801556 
L 197.76629 180.419908 
L 198.492261 260.576162 
L 199.218233 247.159166 
L 199.944205 247.329926 
L 200.670177 261.384994 
L 201.396148 172.735626 
L 202.12212 265.769542 
L 202.848092 269.812469 
L 203.574063 229.660031 
L 204.300035 177.607227 
L 205.026007 179.416368 
L 205.751978 273.253682 
L 206.47795 263.760009 
L 207.203922 223.276537 
L 207.929894 247.370091 
L 208.655865 231.501204 
L 209.381837 236.769214 
L 210.107809 191.919729 
L 210.83378 244.846891 
L 211.559752 251.169228 
L 212.285724 225.946186 
L 213.011695 251.076856 
L 213.737667 240.928514 
L 214.463639 157.048575 
L 215.189611 257.987259 
L 215.915582 262.976967 
L 216.641554 208.580022 
L 217.367526 165.819955 
L 218.093497 250.676173 
L 218.819469 219.783064 
L 219.545441 228.050513 
L 220.271413 258.112006 
L 220.997384 213.968832 
L 221.723356 222.621634 
L 222.449328 136.719379 
L 223.175299 228.786214 
L 223.901271 226.404099 
L 224.627243 275.422404 
L 225.353214 213.841487 
L 226.079186 253.276938 
L 226.805158 216.680082 
L 227.53113 251.179318 
L 228.257101 241.507479 
L 228.983073 206.734597 
L 229.709045 243.092623 
L 230.435016 127.963444 
L 231.160988 201.49361 
L 231.88696 223.824304 
L 232.612931 266.865507 
L 233.338903 230.670735 
L 234.064875 232.777987 
L 234.790847 199.399838 
L 235.516818 256.270211 
L 236.24279 67.847833 
L 236.968762 231.76492 
L 237.694733 258.449019 
L 238.420705 112.581535 
L 239.146677 217.526509 
L 239.872648 244.411963 
L 240.59862 160.489859 
L 241.324592 236.238801 
L 242.050564 124.287295 
L 242.776535 180.348462 
L 243.502507 224.122473 
L 244.228479 249.601337 
L 244.95445 240.893249 
L 245.680422 234.242697 
L 246.406394 170.276857 
L 247.132366 174.313614 
L 247.858337 246.324646 
L 248.584309 230.952799 
L 249.310281 150.356463 
L 250.036252 262.583189 
L 250.762224 131.890405 
L 251.488196 183.153027 
L 252.214167 222.775971 
L 252.940139 166.60842 
L 253.666111 186.200114 
L 254.392083 254.456728 
L 255.118054 168.088599 
L 255.844026 219.399088 
L 256.569998 230.343805 
L 257.295969 266.152745 
L 258.021941 155.222333 
L 258.747913 254.586078 
L 259.473884 235.269073 
L 260.199856 207.923476 
L 260.925828 260.086599 
L 261.6518 232.678948 
L 262.377771 233.475496 
L 263.103743 236.591792 
L 263.829715 230.76102 
L 264.555686 165.374006 
L 265.281658 200.399362 
L 266.00763 215.191889 
L 266.733602 245.149806 
L 267.459573 226.253635 
L 268.185545 224.29943 
L 268.911517 250.930635 
L 269.637488 252.145836 
L 270.36346 235.615277 
L 271.089432 268.966371 
L 272.541375 179.71833 
L 273.267347 229.88681 
L 273.993319 146.10548 
L 274.71929 210.700097 
L 275.445262 216.719062 
L 276.171234 184.064506 
L 276.897205 238.02405 
L 277.623177 138.298161 
L 278.349149 198.576743 
L 279.07512 194.685044 
L 279.801092 240.296557 
L 280.527064 254.570486 
L 281.253036 254.536225 
L 281.979007 255.337607 
L 282.704979 261.445638 
L 283.430951 235.241799 
L 284.156922 259.747134 
L 284.882894 234.180482 
L 285.608866 253.558754 
L 286.334837 231.339885 
L 287.060809 253.324465 
L 287.786781 257.46404 
L 288.512753 257.758028 
L 289.238724 259.263636 
L 289.964696 266.579567 
L 290.690668 226.379502 
L 291.416639 253.41066 
L 292.142611 117.364448 
L 292.868583 245.660405 
L 293.594555 224.757258 
L 294.320526 245.626178 
L 295.046498 271.515609 
L 295.77247 261.521402 
L 297.224413 153.235289 
L 297.950385 205.676983 
L 298.676356 105.582757 
L 299.402328 178.639078 
L 300.1283 187.236826 
L 300.854272 264.929965 
L 301.580243 251.872901 
L 302.306215 263.671211 
L 303.032187 247.053895 
L 303.758158 236.890313 
L 304.48413 234.650355 
L 305.210102 253.404333 
L 305.936073 256.482864 
L 306.662045 254.489936 
L 307.388017 223.783504 
L 308.113989 231.469447 
L 308.83996 124.089179 
L 309.565932 248.970557 
L 310.291904 259.660681 
L 311.017875 239.773804 
L 311.743847 216.651368 
L 312.469819 261.465682 
L 313.19579 143.943449 
L 313.921762 176.557021 
L 314.647734 240.110333 
L 315.373706 262.569793 
L 316.099677 266.01036 
L 316.825649 171.425746 
L 317.551621 164.615475 
L 318.277592 184.376134 
L 319.003564 255.978229 
L 319.729536 207.923145 
L 320.455508 244.858688 
L 321.181479 122.677161 
L 321.907451 239.213122 
L 322.633423 253.862913 
L 323.359394 183.364097 
L 324.085366 254.981059 
L 324.811338 233.078539 
L 325.537309 163.781135 
L 326.263281 187.770389 
L 326.989253 237.268001 
L 327.715225 160.315249 
L 328.441196 179.475769 
L 329.167168 167.984088 
L 329.89314 196.427353 
L 330.619111 261.234518 
L 331.345083 235.63789 
L 332.071055 167.593297 
L 332.797026 204.984384 
L 333.522998 262.950821 
L 334.24897 240.9285 
L 334.974942 161.321999 
L 335.700913 255.923391 
L 337.152857 157.854284 
L 337.878828 277.242817 
L 338.6048 115.610604 
L 339.330772 243.1423 
L 340.056743 140.963797 
L 340.782715 183.764046 
L 342.234659 212.033063 
L 342.96063 241.288889 
L 343.686602 246.256208 
L 344.412574 191.30492 
L 345.138545 237.022954 
L 345.864517 261.676081 
L 346.590489 151.504603 
L 347.316461 236.102159 
L 348.042432 179.290039 
L 348.768404 265.341655 
L 349.494376 234.877076 
L 350.220347 226.805573 
L 350.946319 217.148831 
L 351.672291 268.170726 
L 352.398262 269.371805 
L 353.124234 170.715391 
L 353.850206 170.980171 
L 354.576178 259.826521 
L 355.302149 195.005657 
L 356.028121 154.81009 
L 356.754093 193.129239 
L 357.480064 258.323911 
L 358.206036 246.890964 
L 358.932008 231.534039 
L 359.657979 245.514719 
L 360.383951 178.373102 
L 361.109923 231.683266 
L 361.835895 165.993718 
L 362.561866 180.062303 
L 363.287838 252.133812 
L 364.01381 191.166644 
L 364.739781 262.279957 
L 365.465753 248.571168 
L 366.191725 193.140978 
L 366.917696 168.967372 
L 367.643668 180.936293 
L 368.36964 260.153797 
L 369.095612 233.381265 
L 369.821583 174.069981 
L 370.547555 244.036204 
L 371.999498 237.539457 
L 372.72547 254.151954 
L 373.451442 228.774374 
L 374.177414 262.409533 
L 374.903385 234.019411 
L 375.629357 195.554873 
L 376.355329 240.65868 
L 377.0813 220.843303 
L 377.807272 176.613574 
L 378.533244 235.533187 
L 379.259215 189.117426 
L 379.985187 221.361072 
L 380.711159 243.839421 
L 381.437131 178.591568 
L 382.163102 190.801615 
L 382.889074 250.371636 
L 383.615046 243.856439 
L 384.341017 225.57424 
L 385.066989 259.504698 
L 385.792961 252.203876 
L 386.518932 200.586864 
L 387.244904 194.750373 
L 387.970876 242.695848 
L 388.696848 244.988862 
L 389.422819 243.667063 
L 390.148791 239.972114 
L 390.874763 250.083534 
L 391.600734 219.5124 
L 392.326706 261.040747 
L 393.052678 232.692673 
L 393.778649 194.289743 
L 394.504621 263.482484 
L 395.230593 239.387139 
L 395.956565 243.047597 
L 396.682536 248.65441 
L 398.13448 253.228747 
L 398.860451 238.332954 
L 399.586423 239.011045 
L 400.312395 180.020448 
L 401.038367 241.853951 
L 401.764338 165.12762 
L 402.49031 251.067387 
L 403.216282 257.061376 
L 403.942253 176.460037 
L 404.668225 249.258251 
L 405.394197 252.521273 
L 406.120168 235.78007 
L 407.572112 258.427423 
L 408.298084 186.622587 
L 409.024055 236.405545 
L 409.750027 246.370907 
L 410.475999 166.950581 
L 411.20197 239.010964 
L 411.927942 238.628095 
L 412.653914 249.722563 
L 413.379885 172.860706 
L 414.105857 183.182801 
L 414.831829 190.096463 
L 415.557801 182.813745 
L 416.283772 200.775607 
L 417.009744 242.492769 
L 417.735716 215.034454 
L 418.461687 198.370316 
L 419.187659 196.232439 
L 419.913631 240.985265 
L 420.639602 210.719838 
L 421.365574 230.212423 
L 422.091546 205.337753 
L 422.817518 252.976004 
L 424.269461 246.840587 
L 424.995433 176.288026 
L 425.721404 204.455062 
L 426.447376 211.788982 
L 427.173348 248.619556 
L 427.89932 208.631401 
L 428.625291 235.67039 
L 429.351263 206.404856 
L 430.077235 238.039745 
L 430.803206 195.960493 
L 431.529178 209.472805 
L 432.25515 204.006173 
L 432.981121 195.627789 
L 433.707093 245.704903 
L 434.433065 208.137397 
L 435.159037 252.09097 
L 435.885008 218.363047 
L 436.61098 254.970608 
L 437.336952 196.29811 
L 438.062923 249.319648 
L 438.788895 229.606538 
L 439.514867 190.728821 
L 440.240838 194.418952 
L 440.96681 199.40075 
L 441.692782 239.533471 
L 442.418754 216.949147 
L 443.144725 221.954795 
L 443.870697 266.130429 
L 444.596669 198.731167 
L 445.32264 236.664663 
L 446.048612 236.022416 
L 446.774584 244.306855 
L 447.500555 206.27563 
L 448.226527 200.473333 
L 448.952499 261.685747 
L 449.678471 250.548274 
L 450.404442 201.463242 
L 451.130414 215.790609 
L 451.856386 220.495249 
L 452.582357 238.062282 
L 453.308329 241.614426 
L 454.034301 215.623266 
L 454.760273 212.432768 
L 455.486244 207.27474 
L 456.212216 198.126183 
L 456.212216 198.126183 
" style="fill:none;stroke:#000000;stroke-dasharray:3.7,1.6;stroke-dashoffset:0;"/>
   </g>
   <g id="matplotlib.axis_1">
    <g id="xtick_1">
     <g id="line2d_5">
      <defs>
       <path d="M 0 0 
L 0 3.5 
" id="mc3addf2956" style="stroke:#000000;stroke-width:0.8;"/>
      </defs>
      <g>
       <use style="stroke:#000000;stroke-width:0.8;" x="71.447213" xlink:href="#mc3addf2956" y="294.118125"/>
      </g>
     </g>
     <g id="text_1">
      <!-- 100 -->
      <defs>
       <path d="M 12.40625 8.296875 
L 28.515625 8.296875 
L 28.515625 63.921875 
L 10.984375 60.40625 
L 10.984375 69.390625 
L 28.421875 72.90625 
L 38.28125 72.90625 
L 38.28125 8.296875 
L 54.390625 8.296875 
L 54.390625 0 
L 12.40625 0 
z
" id="DejaVuSans-49"/>
       <path d="M 31.78125 66.40625 
Q 24.171875 66.40625 20.328125 58.90625 
Q 16.5 51.421875 16.5 36.375 
Q 16.5 21.390625 20.328125 13.890625 
Q 24.171875 6.390625 31.78125 6.390625 
Q 39.453125 6.390625 43.28125 13.890625 
Q 47.125 21.390625 47.125 36.375 
Q 47.125 51.421875 43.28125 58.90625 
Q 39.453125 66.40625 31.78125 66.40625 
z
M 31.78125 74.21875 
Q 44.046875 74.21875 50.515625 64.515625 
Q 56.984375 54.828125 56.984375 36.375 
Q 56.984375 17.96875 50.515625 8.265625 
Q 44.046875 -1.421875 31.78125 -1.421875 
Q 19.53125 -1.421875 13.0625 8.265625 
Q 6.59375 17.96875 6.59375 36.375 
Q 6.59375 54.828125 13.0625 64.515625 
Q 19.53125 74.21875 31.78125 74.21875 
z
" id="DejaVuSans-48"/>
      </defs>
      <g transform="translate(61.903463 308.716563)scale(0.1 -0.1)">
       <use xlink:href="#DejaVuSans-49"/>
       <use x="63.623047" xlink:href="#DejaVuSans-48"/>
       <use x="127.246094" xlink:href="#DejaVuSans-48"/>
      </g>
     </g>
    </g>
    <g id="xtick_2">
     <g id="line2d_6">
      <g>
       <use style="stroke:#000000;stroke-width:0.8;" x="144.044384" xlink:href="#mc3addf2956" y="294.118125"/>
      </g>
     </g>
     <g id="text_2">
      <!-- 200 -->
      <defs>
       <path d="M 19.1875 8.296875 
L 53.609375 8.296875 
L 53.609375 0 
L 7.328125 0 
L 7.328125 8.296875 
Q 12.9375 14.109375 22.625 23.890625 
Q 32.328125 33.6875 34.8125 36.53125 
Q 39.546875 41.84375 41.421875 45.53125 
Q 43.3125 49.21875 43.3125 52.78125 
Q 43.3125 58.59375 39.234375 62.25 
Q 35.15625 65.921875 28.609375 65.921875 
Q 23.96875 65.921875 18.8125 64.3125 
Q 13.671875 62.703125 7.8125 59.421875 
L 7.8125 69.390625 
Q 13.765625 71.78125 18.9375 73 
Q 24.125 74.21875 28.421875 74.21875 
Q 39.75 74.21875 46.484375 68.546875 
Q 53.21875 62.890625 53.21875 53.421875 
Q 53.21875 48.921875 51.53125 44.890625 
Q 49.859375 40.875 45.40625 35.40625 
Q 44.1875 33.984375 37.640625 27.21875 
Q 31.109375 20.453125 19.1875 8.296875 
z
" id="DejaVuSans-50"/>
      </defs>
      <g transform="translate(134.500634 308.716563)scale(0.1 -0.1)">
       <use xlink:href="#DejaVuSans-50"/>
       <use x="63.623047" xlink:href="#DejaVuSans-48"/>
       <use x="127.246094" xlink:href="#DejaVuSans-48"/>
      </g>
     </g>
    </g>
    <g id="xtick_3">
     <g id="line2d_7">
      <g>
       <use style="stroke:#000000;stroke-width:0.8;" x="216.641554" xlink:href="#mc3addf2956" y="294.118125"/>
      </g>
     </g>
     <g id="text_3">
      <!-- 300 -->
      <defs>
       <path d="M 40.578125 39.3125 
Q 47.65625 37.796875 51.625 33 
Q 55.609375 28.21875 55.609375 21.1875 
Q 55.609375 10.40625 48.1875 4.484375 
Q 40.765625 -1.421875 27.09375 -1.421875 
Q 22.515625 -1.421875 17.65625 -0.515625 
Q 12.796875 0.390625 7.625 2.203125 
L 7.625 11.71875 
Q 11.71875 9.328125 16.59375 8.109375 
Q 21.484375 6.890625 26.8125 6.890625 
Q 36.078125 6.890625 40.9375 10.546875 
Q 45.796875 14.203125 45.796875 21.1875 
Q 45.796875 27.640625 41.28125 31.265625 
Q 36.765625 34.90625 28.71875 34.90625 
L 20.21875 34.90625 
L 20.21875 43.015625 
L 29.109375 43.015625 
Q 36.375 43.015625 40.234375 45.921875 
Q 44.09375 48.828125 44.09375 54.296875 
Q 44.09375 59.90625 40.109375 62.90625 
Q 36.140625 65.921875 28.71875 65.921875 
Q 24.65625 65.921875 20.015625 65.03125 
Q 15.375 64.15625 9.8125 62.3125 
L 9.8125 71.09375 
Q 15.4375 72.65625 20.34375 73.4375 
Q 25.25 74.21875 29.59375 74.21875 
Q 40.828125 74.21875 47.359375 69.109375 
Q 53.90625 64.015625 53.90625 55.328125 
Q 53.90625 49.265625 50.4375 45.09375 
Q 46.96875 40.921875 40.578125 39.3125 
z
" id="DejaVuSans-51"/>
      </defs>
      <g transform="translate(207.097804 308.716563)scale(0.1 -0.1)">
       <use xlink:href="#DejaVuSans-51"/>
       <use x="63.623047" xlink:href="#DejaVuSans-48"/>
       <use x="127.246094" xlink:href="#DejaVuSans-48"/>
      </g>
     </g>
    </g>
    <g id="xtick_4">
     <g id="line2d_8">
      <g>
       <use style="stroke:#000000;stroke-width:0.8;" x="289.238724" xlink:href="#mc3addf2956" y="294.118125"/>
      </g>
     </g>
     <g id="text_4">
      <!-- 400 -->
      <defs>
       <path d="M 37.796875 64.3125 
L 12.890625 25.390625 
L 37.796875 25.390625 
z
M 35.203125 72.90625 
L 47.609375 72.90625 
L 47.609375 25.390625 
L 58.015625 25.390625 
L 58.015625 17.1875 
L 47.609375 17.1875 
L 47.609375 0 
L 37.796875 0 
L 37.796875 17.1875 
L 4.890625 17.1875 
L 4.890625 26.703125 
z
" id="DejaVuSans-52"/>
      </defs>
      <g transform="translate(279.694974 308.716563)scale(0.1 -0.1)">
       <use xlink:href="#DejaVuSans-52"/>
       <use x="63.623047" xlink:href="#DejaVuSans-48"/>
       <use x="127.246094" xlink:href="#DejaVuSans-48"/>
      </g>
     </g>
    </g>
    <g id="xtick_5">
     <g id="line2d_9">
      <g>
       <use style="stroke:#000000;stroke-width:0.8;" x="361.835895" xlink:href="#mc3addf2956" y="294.118125"/>
      </g>
     </g>
     <g id="text_5">
      <!-- 500 -->
      <defs>
       <path d="M 10.796875 72.90625 
L 49.515625 72.90625 
L 49.515625 64.59375 
L 19.828125 64.59375 
L 19.828125 46.734375 
Q 21.96875 47.46875 24.109375 47.828125 
Q 26.265625 48.1875 28.421875 48.1875 
Q 40.625 48.1875 47.75 41.5 
Q 54.890625 34.8125 54.890625 23.390625 
Q 54.890625 11.625 47.5625 5.09375 
Q 40.234375 -1.421875 26.90625 -1.421875 
Q 22.3125 -1.421875 17.546875 -0.640625 
Q 12.796875 0.140625 7.71875 1.703125 
L 7.71875 11.625 
Q 12.109375 9.234375 16.796875 8.0625 
Q 21.484375 6.890625 26.703125 6.890625 
Q 35.15625 6.890625 40.078125 11.328125 
Q 45.015625 15.765625 45.015625 23.390625 
Q 45.015625 31 40.078125 35.4375 
Q 35.15625 39.890625 26.703125 39.890625 
Q 22.75 39.890625 18.8125 39.015625 
Q 14.890625 38.140625 10.796875 36.28125 
z
" id="DejaVuSans-53"/>
      </defs>
      <g transform="translate(352.292145 308.716563)scale(0.1 -0.1)">
       <use xlink:href="#DejaVuSans-53"/>
       <use x="63.623047" xlink:href="#DejaVuSans-48"/>
       <use x="127.246094" xlink:href="#DejaVuSans-48"/>
      </g>
     </g>
    </g>
    <g id="xtick_6">
     <g id="line2d_10">
      <g>
       <use style="stroke:#000000;stroke-width:0.8;" x="434.433065" xlink:href="#mc3addf2956" y="294.118125"/>
      </g>
     </g>
     <g id="text_6">
      <!-- 600 -->
      <defs>
       <path d="M 33.015625 40.375 
Q 26.375 40.375 22.484375 35.828125 
Q 18.609375 31.296875 18.609375 23.390625 
Q 18.609375 15.53125 22.484375 10.953125 
Q 26.375 6.390625 33.015625 6.390625 
Q 39.65625 6.390625 43.53125 10.953125 
Q 47.40625 15.53125 47.40625 23.390625 
Q 47.40625 31.296875 43.53125 35.828125 
Q 39.65625 40.375 33.015625 40.375 
z
M 52.59375 71.296875 
L 52.59375 62.3125 
Q 48.875 64.0625 45.09375 64.984375 
Q 41.3125 65.921875 37.59375 65.921875 
Q 27.828125 65.921875 22.671875 59.328125 
Q 17.53125 52.734375 16.796875 39.40625 
Q 19.671875 43.65625 24.015625 45.921875 
Q 28.375 48.1875 33.59375 48.1875 
Q 44.578125 48.1875 50.953125 41.515625 
Q 57.328125 34.859375 57.328125 23.390625 
Q 57.328125 12.15625 50.6875 5.359375 
Q 44.046875 -1.421875 33.015625 -1.421875 
Q 20.359375 -1.421875 13.671875 8.265625 
Q 6.984375 17.96875 6.984375 36.375 
Q 6.984375 53.65625 15.1875 63.9375 
Q 23.390625 74.21875 37.203125 74.21875 
Q 40.921875 74.21875 44.703125 73.484375 
Q 48.484375 72.75 52.59375 71.296875 
z
" id="DejaVuSans-54"/>
      </defs>
      <g transform="translate(424.889315 308.716563)scale(0.1 -0.1)">
       <use xlink:href="#DejaVuSans-54"/>
       <use x="63.623047" xlink:href="#DejaVuSans-48"/>
       <use x="127.246094" xlink:href="#DejaVuSans-48"/>
      </g>
     </g>
    </g>
    <g id="text_7">
     <!-- Tempo -->
     <defs>
      <path d="M -0.296875 72.90625 
L 61.375 72.90625 
L 61.375 64.59375 
L 35.5 64.59375 
L 35.5 0 
L 25.59375 0 
L 25.59375 64.59375 
L -0.296875 64.59375 
z
" id="DejaVuSans-84"/>
      <path d="M 56.203125 29.59375 
L 56.203125 25.203125 
L 14.890625 25.203125 
Q 15.484375 15.921875 20.484375 11.0625 
Q 25.484375 6.203125 34.421875 6.203125 
Q 39.59375 6.203125 44.453125 7.46875 
Q 49.3125 8.734375 54.109375 11.28125 
L 54.109375 2.78125 
Q 49.265625 0.734375 44.1875 -0.34375 
Q 39.109375 -1.421875 33.890625 -1.421875 
Q 20.796875 -1.421875 13.15625 6.1875 
Q 5.515625 13.8125 5.515625 26.8125 
Q 5.515625 40.234375 12.765625 48.109375 
Q 20.015625 56 32.328125 56 
Q 43.359375 56 49.78125 48.890625 
Q 56.203125 41.796875 56.203125 29.59375 
z
M 47.21875 32.234375 
Q 47.125 39.59375 43.09375 43.984375 
Q 39.0625 48.390625 32.421875 48.390625 
Q 24.90625 48.390625 20.390625 44.140625 
Q 15.875 39.890625 15.1875 32.171875 
z
" id="DejaVuSans-101"/>
      <path d="M 52 44.1875 
Q 55.375 50.25 60.0625 53.125 
Q 64.75 56 71.09375 56 
Q 79.640625 56 84.28125 50.015625 
Q 88.921875 44.046875 88.921875 33.015625 
L 88.921875 0 
L 79.890625 0 
L 79.890625 32.71875 
Q 79.890625 40.578125 77.09375 44.375 
Q 74.3125 48.1875 68.609375 48.1875 
Q 61.625 48.1875 57.5625 43.546875 
Q 53.515625 38.921875 53.515625 30.90625 
L 53.515625 0 
L 44.484375 0 
L 44.484375 32.71875 
Q 44.484375 40.625 41.703125 44.40625 
Q 38.921875 48.1875 33.109375 48.1875 
Q 26.21875 48.1875 22.15625 43.53125 
Q 18.109375 38.875 18.109375 30.90625 
L 18.109375 0 
L 9.078125 0 
L 9.078125 54.6875 
L 18.109375 54.6875 
L 18.109375 46.1875 
Q 21.1875 51.21875 25.484375 53.609375 
Q 29.78125 56 35.6875 56 
Q 41.65625 56 45.828125 52.96875 
Q 50 49.953125 52 44.1875 
z
" id="DejaVuSans-109"/>
      <path d="M 18.109375 8.203125 
L 18.109375 -20.796875 
L 9.078125 -20.796875 
L 9.078125 54.6875 
L 18.109375 54.6875 
L 18.109375 46.390625 
Q 20.953125 51.265625 25.265625 53.625 
Q 29.59375 56 35.59375 56 
Q 45.5625 56 51.78125 48.09375 
Q 58.015625 40.1875 58.015625 27.296875 
Q 58.015625 14.40625 51.78125 6.484375 
Q 45.5625 -1.421875 35.59375 -1.421875 
Q 29.59375 -1.421875 25.265625 0.953125 
Q 20.953125 3.328125 18.109375 8.203125 
z
M 48.6875 27.296875 
Q 48.6875 37.203125 44.609375 42.84375 
Q 40.53125 48.484375 33.40625 48.484375 
Q 26.265625 48.484375 22.1875 42.84375 
Q 18.109375 37.203125 18.109375 27.296875 
Q 18.109375 17.390625 22.1875 11.75 
Q 26.265625 6.109375 33.40625 6.109375 
Q 40.53125 6.109375 44.609375 11.75 
Q 48.6875 17.390625 48.6875 27.296875 
z
" id="DejaVuSans-112"/>
      <path d="M 30.609375 48.390625 
Q 23.390625 48.390625 19.1875 42.75 
Q 14.984375 37.109375 14.984375 27.296875 
Q 14.984375 17.484375 19.15625 11.84375 
Q 23.34375 6.203125 30.609375 6.203125 
Q 37.796875 6.203125 41.984375 11.859375 
Q 46.1875 17.53125 46.1875 27.296875 
Q 46.1875 37.015625 41.984375 42.703125 
Q 37.796875 48.390625 30.609375 48.390625 
z
M 30.609375 56 
Q 42.328125 56 49.015625 48.375 
Q 55.71875 40.765625 55.71875 27.296875 
Q 55.71875 13.875 49.015625 6.21875 
Q 42.328125 -1.421875 30.609375 -1.421875 
Q 18.84375 -1.421875 12.171875 6.21875 
Q 5.515625 13.875 5.515625 27.296875 
Q 5.515625 40.765625 12.171875 48.375 
Q 18.84375 56 30.609375 56 
z
" id="DejaVuSans-111"/>
     </defs>
     <g transform="translate(236.91875 322.394687)scale(0.1 -0.1)">
      <use xlink:href="#DejaVuSans-84"/>
      <use x="44.083984" xlink:href="#DejaVuSans-101"/>
      <use x="105.607422" xlink:href="#DejaVuSans-109"/>
      <use x="203.019531" xlink:href="#DejaVuSans-112"/>
      <use x="266.496094" xlink:href="#DejaVuSans-111"/>
     </g>
    </g>
   </g>
   <g id="matplotlib.axis_2">
    <g id="ytick_1">
     <g id="line2d_11">
      <defs>
       <path d="M 0 0 
L -3.5 0 
" id="m80aefbc4e1" style="stroke:#000000;stroke-width:0.8;"/>
      </defs>
      <g>
       <use style="stroke:#000000;stroke-width:0.8;" x="30.103125" xlink:href="#m80aefbc4e1" y="288.771509"/>
      </g>
     </g>
     <g id="text_8">
      <!-- 0.2 -->
      <defs>
       <path d="M 10.6875 12.40625 
L 21 12.40625 
L 21 0 
L 10.6875 0 
z
" id="DejaVuSans-46"/>
      </defs>
      <g transform="translate(7.2 292.570728)scale(0.1 -0.1)">
       <use xlink:href="#DejaVuSans-48"/>
       <use x="63.623047" xlink:href="#DejaVuSans-46"/>
       <use x="95.410156" xlink:href="#DejaVuSans-50"/>
      </g>
     </g>
    </g>
    <g id="ytick_2">
     <g id="line2d_12">
      <g>
       <use style="stroke:#000000;stroke-width:0.8;" x="30.103125" xlink:href="#m80aefbc4e1" y="253.04308"/>
      </g>
     </g>
     <g id="text_9">
      <!-- 0.4 -->
      <g transform="translate(7.2 256.842299)scale(0.1 -0.1)">
       <use xlink:href="#DejaVuSans-48"/>
       <use x="63.623047" xlink:href="#DejaVuSans-46"/>
       <use x="95.410156" xlink:href="#DejaVuSans-52"/>
      </g>
     </g>
    </g>
    <g id="ytick_3">
     <g id="line2d_13">
      <g>
       <use style="stroke:#000000;stroke-width:0.8;" x="30.103125" xlink:href="#m80aefbc4e1" y="217.314651"/>
      </g>
     </g>
     <g id="text_10">
      <!-- 0.6 -->
      <g transform="translate(7.2 221.11387)scale(0.1 -0.1)">
       <use xlink:href="#DejaVuSans-48"/>
       <use x="63.623047" xlink:href="#DejaVuSans-46"/>
       <use x="95.410156" xlink:href="#DejaVuSans-54"/>
      </g>
     </g>
    </g>
    <g id="ytick_4">
     <g id="line2d_14">
      <g>
       <use style="stroke:#000000;stroke-width:0.8;" x="30.103125" xlink:href="#m80aefbc4e1" y="181.586222"/>
      </g>
     </g>
     <g id="text_11">
      <!-- 0.8 -->
      <defs>
       <path d="M 31.78125 34.625 
Q 24.75 34.625 20.71875 30.859375 
Q 16.703125 27.09375 16.703125 20.515625 
Q 16.703125 13.921875 20.71875 10.15625 
Q 24.75 6.390625 31.78125 6.390625 
Q 38.8125 6.390625 42.859375 10.171875 
Q 46.921875 13.96875 46.921875 20.515625 
Q 46.921875 27.09375 42.890625 30.859375 
Q 38.875 34.625 31.78125 34.625 
z
M 21.921875 38.8125 
Q 15.578125 40.375 12.03125 44.71875 
Q 8.5 49.078125 8.5 55.328125 
Q 8.5 64.0625 14.71875 69.140625 
Q 20.953125 74.21875 31.78125 74.21875 
Q 42.671875 74.21875 48.875 69.140625 
Q 55.078125 64.0625 55.078125 55.328125 
Q 55.078125 49.078125 51.53125 44.71875 
Q 48 40.375 41.703125 38.8125 
Q 48.828125 37.15625 52.796875 32.3125 
Q 56.78125 27.484375 56.78125 20.515625 
Q 56.78125 9.90625 50.3125 4.234375 
Q 43.84375 -1.421875 31.78125 -1.421875 
Q 19.734375 -1.421875 13.25 4.234375 
Q 6.78125 9.90625 6.78125 20.515625 
Q 6.78125 27.484375 10.78125 32.3125 
Q 14.796875 37.15625 21.921875 38.8125 
z
M 18.3125 54.390625 
Q 18.3125 48.734375 21.84375 45.5625 
Q 25.390625 42.390625 31.78125 42.390625 
Q 38.140625 42.390625 41.71875 45.5625 
Q 45.3125 48.734375 45.3125 54.390625 
Q 45.3125 60.0625 41.71875 63.234375 
Q 38.140625 66.40625 31.78125 66.40625 
Q 25.390625 66.40625 21.84375 63.234375 
Q 18.3125 60.0625 18.3125 54.390625 
z
" id="DejaVuSans-56"/>
      </defs>
      <g transform="translate(7.2 185.385441)scale(0.1 -0.1)">
       <use xlink:href="#DejaVuSans-48"/>
       <use x="63.623047" xlink:href="#DejaVuSans-46"/>
       <use x="95.410156" xlink:href="#DejaVuSans-56"/>
      </g>
     </g>
    </g>
    <g id="ytick_5">
     <g id="line2d_15">
      <g>
       <use style="stroke:#000000;stroke-width:0.8;" x="30.103125" xlink:href="#m80aefbc4e1" y="145.857793"/>
      </g>
     </g>
     <g id="text_12">
      <!-- 1.0 -->
      <g transform="translate(7.2 149.657012)scale(0.1 -0.1)">
       <use xlink:href="#DejaVuSans-49"/>
       <use x="63.623047" xlink:href="#DejaVuSans-46"/>
       <use x="95.410156" xlink:href="#DejaVuSans-48"/>
      </g>
     </g>
    </g>
    <g id="ytick_6">
     <g id="line2d_16">
      <g>
       <use style="stroke:#000000;stroke-width:0.8;" x="30.103125" xlink:href="#m80aefbc4e1" y="110.129364"/>
      </g>
     </g>
     <g id="text_13">
      <!-- 1.2 -->
      <g transform="translate(7.2 113.928583)scale(0.1 -0.1)">
       <use xlink:href="#DejaVuSans-49"/>
       <use x="63.623047" xlink:href="#DejaVuSans-46"/>
       <use x="95.410156" xlink:href="#DejaVuSans-50"/>
      </g>
     </g>
    </g>
    <g id="ytick_7">
     <g id="line2d_17">
      <g>
       <use style="stroke:#000000;stroke-width:0.8;" x="30.103125" xlink:href="#m80aefbc4e1" y="74.400936"/>
      </g>
     </g>
     <g id="text_14">
      <!-- 1.4 -->
      <g transform="translate(7.2 78.200154)scale(0.1 -0.1)">
       <use xlink:href="#DejaVuSans-49"/>
       <use x="63.623047" xlink:href="#DejaVuSans-46"/>
       <use x="95.410156" xlink:href="#DejaVuSans-52"/>
      </g>
     </g>
    </g>
    <g id="ytick_8">
     <g id="line2d_18">
      <g>
       <use style="stroke:#000000;stroke-width:0.8;" x="30.103125" xlink:href="#m80aefbc4e1" y="38.672507"/>
      </g>
     </g>
     <g id="text_15">
      <!-- 1.6 -->
      <g transform="translate(7.2 42.471725)scale(0.1 -0.1)">
       <use xlink:href="#DejaVuSans-49"/>
       <use x="63.623047" xlink:href="#DejaVuSans-46"/>
       <use x="95.410156" xlink:href="#DejaVuSans-54"/>
      </g>
     </g>
    </g>
   </g>
   <g id="patch_3">
    <path d="M 30.103125 294.118125 
L 30.103125 22.318125 
" style="fill:none;stroke:#000000;stroke-linecap:square;stroke-linejoin:miter;stroke-width:0.8;"/>
   </g>
   <g id="patch_4">
    <path d="M 30.103125 294.118125 
L 476.503125 294.118125 
" style="fill:none;stroke:#000000;stroke-linecap:square;stroke-linejoin:miter;stroke-width:0.8;"/>
   </g>
   <g id="text_16">
    <!-- wbarocc -->
    <defs>
     <path d="M 4.203125 54.6875 
L 13.1875 54.6875 
L 24.421875 12.015625 
L 35.59375 54.6875 
L 46.1875 54.6875 
L 57.421875 12.015625 
L 68.609375 54.6875 
L 77.59375 54.6875 
L 63.28125 0 
L 52.6875 0 
L 40.921875 44.828125 
L 29.109375 0 
L 18.5 0 
z
" id="DejaVuSans-119"/>
     <path d="M 48.6875 27.296875 
Q 48.6875 37.203125 44.609375 42.84375 
Q 40.53125 48.484375 33.40625 48.484375 
Q 26.265625 48.484375 22.1875 42.84375 
Q 18.109375 37.203125 18.109375 27.296875 
Q 18.109375 17.390625 22.1875 11.75 
Q 26.265625 6.109375 33.40625 6.109375 
Q 40.53125 6.109375 44.609375 11.75 
Q 48.6875 17.390625 48.6875 27.296875 
z
M 18.109375 46.390625 
Q 20.953125 51.265625 25.265625 53.625 
Q 29.59375 56 35.59375 56 
Q 45.5625 56 51.78125 48.09375 
Q 58.015625 40.1875 58.015625 27.296875 
Q 58.015625 14.40625 51.78125 6.484375 
Q 45.5625 -1.421875 35.59375 -1.421875 
Q 29.59375 -1.421875 25.265625 0.953125 
Q 20.953125 3.328125 18.109375 8.203125 
L 18.109375 0 
L 9.078125 0 
L 9.078125 75.984375 
L 18.109375 75.984375 
z
" id="DejaVuSans-98"/>
     <path d="M 34.28125 27.484375 
Q 23.390625 27.484375 19.1875 25 
Q 14.984375 22.515625 14.984375 16.5 
Q 14.984375 11.71875 18.140625 8.90625 
Q 21.296875 6.109375 26.703125 6.109375 
Q 34.1875 6.109375 38.703125 11.40625 
Q 43.21875 16.703125 43.21875 25.484375 
L 43.21875 27.484375 
z
M 52.203125 31.203125 
L 52.203125 0 
L 43.21875 0 
L 43.21875 8.296875 
Q 40.140625 3.328125 35.546875 0.953125 
Q 30.953125 -1.421875 24.3125 -1.421875 
Q 15.921875 -1.421875 10.953125 3.296875 
Q 6 8.015625 6 15.921875 
Q 6 25.140625 12.171875 29.828125 
Q 18.359375 34.515625 30.609375 34.515625 
L 43.21875 34.515625 
L 43.21875 35.40625 
Q 43.21875 41.609375 39.140625 45 
Q 35.0625 48.390625 27.6875 48.390625 
Q 23 48.390625 18.546875 47.265625 
Q 14.109375 46.140625 10.015625 43.890625 
L 10.015625 52.203125 
Q 14.9375 54.109375 19.578125 55.046875 
Q 24.21875 56 28.609375 56 
Q 40.484375 56 46.34375 49.84375 
Q 52.203125 43.703125 52.203125 31.203125 
z
" id="DejaVuSans-97"/>
     <path d="M 41.109375 46.296875 
Q 39.59375 47.171875 37.8125 47.578125 
Q 36.03125 48 33.890625 48 
Q 26.265625 48 22.1875 43.046875 
Q 18.109375 38.09375 18.109375 28.8125 
L 18.109375 0 
L 9.078125 0 
L 9.078125 54.6875 
L 18.109375 54.6875 
L 18.109375 46.1875 
Q 20.953125 51.171875 25.484375 53.578125 
Q 30.03125 56 36.53125 56 
Q 37.453125 56 38.578125 55.875 
Q 39.703125 55.765625 41.0625 55.515625 
z
" id="DejaVuSans-114"/>
     <path d="M 48.78125 52.59375 
L 48.78125 44.1875 
Q 44.96875 46.296875 41.140625 47.34375 
Q 37.3125 48.390625 33.40625 48.390625 
Q 24.65625 48.390625 19.8125 42.84375 
Q 14.984375 37.3125 14.984375 27.296875 
Q 14.984375 17.28125 19.8125 11.734375 
Q 24.65625 6.203125 33.40625 6.203125 
Q 37.3125 6.203125 41.140625 7.25 
Q 44.96875 8.296875 48.78125 10.40625 
L 48.78125 2.09375 
Q 45.015625 0.34375 40.984375 -0.53125 
Q 36.96875 -1.421875 32.421875 -1.421875 
Q 20.0625 -1.421875 12.78125 6.34375 
Q 5.515625 14.109375 5.515625 27.296875 
Q 5.515625 40.671875 12.859375 48.328125 
Q 20.21875 56 33.015625 56 
Q 37.15625 56 41.109375 55.140625 
Q 45.0625 54.296875 48.78125 52.59375 
z
" id="DejaVuSans-99"/>
    </defs>
    <g transform="translate(228.309375 16.318125)scale(0.12 -0.12)">
     <use xlink:href="#DejaVuSans-119"/>
     <use x="81.787109" xlink:href="#DejaVuSans-98"/>
     <use x="145.263672" xlink:href="#DejaVuSans-97"/>
     <use x="206.542969" xlink:href="#DejaVuSans-114"/>
     <use x="245.40625" xlink:href="#DejaVuSans-111"/>
     <use x="306.587891" xlink:href="#DejaVuSans-99"/>
     <use x="361.568359" xlink:href="#DejaVuSans-99"/>
    </g>
   </g>
   <g id="legend_1">
    <g id="patch_5">
     <path d="M 483.503125 190.104844 
L 557.901562 190.104844 
Q 559.901562 190.104844 559.901562 188.104844 
L 559.901562 128.331406 
Q 559.901562 126.331406 557.901562 126.331406 
L 483.503125 126.331406 
Q 481.503125 126.331406 481.503125 128.331406 
L 481.503125 188.104844 
Q 481.503125 190.104844 483.503125 190.104844 
z
" style="fill:#ffffff;opacity:0.8;stroke:#cccccc;stroke-linejoin:miter;"/>
    </g>
    <g id="line2d_19">
     <path d="M 485.503125 134.429844 
L 505.503125 134.429844 
" style="fill:none;stroke:#000000;stroke-dasharray:3.7,1.6;stroke-dashoffset:0;"/>
    </g>
    <g id="line2d_20"/>
    <g id="text_17">
     <!-- Baseline -->
     <defs>
      <path d="M 19.671875 34.8125 
L 19.671875 8.109375 
L 35.5 8.109375 
Q 43.453125 8.109375 47.28125 11.40625 
Q 51.125 14.703125 51.125 21.484375 
Q 51.125 28.328125 47.28125 31.5625 
Q 43.453125 34.8125 35.5 34.8125 
z
M 19.671875 64.796875 
L 19.671875 42.828125 
L 34.28125 42.828125 
Q 41.5 42.828125 45.03125 45.53125 
Q 48.578125 48.25 48.578125 53.8125 
Q 48.578125 59.328125 45.03125 62.0625 
Q 41.5 64.796875 34.28125 64.796875 
z
M 9.8125 72.90625 
L 35.015625 72.90625 
Q 46.296875 72.90625 52.390625 68.21875 
Q 58.5 63.53125 58.5 54.890625 
Q 58.5 48.1875 55.375 44.234375 
Q 52.25 40.28125 46.1875 39.3125 
Q 53.46875 37.75 57.5 32.78125 
Q 61.53125 27.828125 61.53125 20.40625 
Q 61.53125 10.640625 54.890625 5.3125 
Q 48.25 0 35.984375 0 
L 9.8125 0 
z
" id="DejaVuSans-66"/>
      <path d="M 44.28125 53.078125 
L 44.28125 44.578125 
Q 40.484375 46.53125 36.375 47.5 
Q 32.28125 48.484375 27.875 48.484375 
Q 21.1875 48.484375 17.84375 46.4375 
Q 14.5 44.390625 14.5 40.28125 
Q 14.5 37.15625 16.890625 35.375 
Q 19.28125 33.59375 26.515625 31.984375 
L 29.59375 31.296875 
Q 39.15625 29.25 43.1875 25.515625 
Q 47.21875 21.78125 47.21875 15.09375 
Q 47.21875 7.46875 41.1875 3.015625 
Q 35.15625 -1.421875 24.609375 -1.421875 
Q 20.21875 -1.421875 15.453125 -0.5625 
Q 10.6875 0.296875 5.421875 2 
L 5.421875 11.28125 
Q 10.40625 8.6875 15.234375 7.390625 
Q 20.0625 6.109375 24.8125 6.109375 
Q 31.15625 6.109375 34.5625 8.28125 
Q 37.984375 10.453125 37.984375 14.40625 
Q 37.984375 18.0625 35.515625 20.015625 
Q 33.0625 21.96875 24.703125 23.78125 
L 21.578125 24.515625 
Q 13.234375 26.265625 9.515625 29.90625 
Q 5.8125 33.546875 5.8125 39.890625 
Q 5.8125 47.609375 11.28125 51.796875 
Q 16.75 56 26.8125 56 
Q 31.78125 56 36.171875 55.265625 
Q 40.578125 54.546875 44.28125 53.078125 
z
" id="DejaVuSans-115"/>
      <path d="M 9.421875 75.984375 
L 18.40625 75.984375 
L 18.40625 0 
L 9.421875 0 
z
" id="DejaVuSans-108"/>
      <path d="M 9.421875 54.6875 
L 18.40625 54.6875 
L 18.40625 0 
L 9.421875 0 
z
M 9.421875 75.984375 
L 18.40625 75.984375 
L 18.40625 64.59375 
L 9.421875 64.59375 
z
" id="DejaVuSans-105"/>
      <path d="M 54.890625 33.015625 
L 54.890625 0 
L 45.90625 0 
L 45.90625 32.71875 
Q 45.90625 40.484375 42.875 44.328125 
Q 39.84375 48.1875 33.796875 48.1875 
Q 26.515625 48.1875 22.3125 43.546875 
Q 18.109375 38.921875 18.109375 30.90625 
L 18.109375 0 
L 9.078125 0 
L 9.078125 54.6875 
L 18.109375 54.6875 
L 18.109375 46.1875 
Q 21.34375 51.125 25.703125 53.5625 
Q 30.078125 56 35.796875 56 
Q 45.21875 56 50.046875 50.171875 
Q 54.890625 44.34375 54.890625 33.015625 
z
" id="DejaVuSans-110"/>
     </defs>
     <g transform="translate(513.503125 137.929844)scale(0.1 -0.1)">
      <use xlink:href="#DejaVuSans-66"/>
      <use x="68.603516" xlink:href="#DejaVuSans-97"/>
      <use x="129.882812" xlink:href="#DejaVuSans-115"/>
      <use x="181.982422" xlink:href="#DejaVuSans-101"/>
      <use x="243.505859" xlink:href="#DejaVuSans-108"/>
      <use x="271.289062" xlink:href="#DejaVuSans-105"/>
      <use x="299.072266" xlink:href="#DejaVuSans-110"/>
      <use x="362.451172" xlink:href="#DejaVuSans-101"/>
     </g>
    </g>
    <g id="line2d_21">
     <path d="M 485.503125 149.107969 
L 505.503125 149.107969 
" style="fill:none;stroke:#1f77b4;stroke-linecap:square;stroke-width:1.5;"/>
    </g>
    <g id="line2d_22"/>
    <g id="text_18">
     <!-- $\Downarrow \sigma_\psi$ -->
     <defs>
      <path d="M 36.765625 14.3125 
L 41.9375 9.234375 
L 47.015625 14.3125 
L 47.015625 72.90625 
L 52.875 72.90625 
L 52.875 20.171875 
L 57.46875 24.75 
L 63.328125 18.890625 
L 44.09375 -0.34375 
L 39.703125 -0.34375 
L 20.5625 18.890625 
L 26.421875 24.75 
L 30.90625 20.171875 
L 30.90625 72.90625 
L 36.765625 72.90625 
z
" id="DejaVuSans-8659"/>
      <path d="M 34.671875 47.5625 
Q 27.25 47.5625 22.21875 42.1875 
Q 16.890625 36.578125 15.140625 27.296875 
Q 13.1875 17.484375 16.3125 11.8125 
Q 19.390625 6.203125 26.65625 6.203125 
Q 33.84375 6.203125 39.109375 11.859375 
Q 44.4375 17.53125 46.34375 27.296875 
Q 48.046875 36.234375 45.015625 42.1875 
Q 42.1875 47.5625 34.671875 47.5625 
z
M 36.078125 54.734375 
L 65.921875 54.6875 
L 64.15625 45.703125 
L 54.109375 45.703125 
Q 57.90625 38.09375 55.859375 27.296875 
Q 53.21875 13.875 45.0625 6.25 
Q 36.859375 -1.421875 25.140625 -1.421875 
Q 13.375 -1.421875 8.203125 6.25 
Q 3.03125 13.875 5.671875 27.296875 
Q 8.25 40.765625 16.40625 48.390625 
Q 23.1875 54.734375 36.078125 54.734375 
z
" id="DejaVuSans-Oblique-963"/>
      <path d="M 24.859375 -1.21875 
Q 13.921875 0.59375 9.625 5.328125 
Q 4.34375 11.140625 6.640625 23 
L 12.796875 54.6875 
L 21.875 54.6875 
L 15.765625 23.34375 
Q 14.0625 14.40625 17.484375 10.6875 
Q 20.515625 7.46875 26.421875 6.78125 
L 35.6875 54.6875 
L 44.625 54.6875 
L 35.359375 6.84375 
Q 41.890625 7.515625 45.75 10.75 
Q 50.734375 14.84375 52.390625 23.390625 
L 58.453125 54.6875 
L 67.53125 54.6875 
L 61.375 23.046875 
Q 58.984375 10.75 51.5625 5.375 
Q 44.875 0.53125 33.796875 -1.171875 
L 29.984375 -20.796875 
L 21.046875 -20.796875 
z
" id="DejaVuSans-Oblique-968"/>
     </defs>
     <g transform="translate(513.503125 152.607969)scale(0.1 -0.1)">
      <use transform="translate(19.482422 0.09375)" xlink:href="#DejaVuSans-8659"/>
      <use transform="translate(122.753906 0.09375)" xlink:href="#DejaVuSans-Oblique-963"/>
      <use transform="translate(186.132812 -16.3125)scale(0.7)" xlink:href="#DejaVuSans-Oblique-968"/>
     </g>
    </g>
    <g id="line2d_23">
     <path d="M 485.503125 164.806406 
L 505.503125 164.806406 
" style="fill:none;stroke:#ff7f0e;stroke-linecap:square;stroke-width:1.5;"/>
    </g>
    <g id="line2d_24"/>
    <g id="text_19">
     <!-- $\Downarrow s_\psi$ -->
     <defs>
      <path d="M 50 53.078125 
L 48.296875 44.578125 
Q 44.734375 46.53125 40.765625 47.5 
Q 36.8125 48.484375 32.625 48.484375 
Q 25.53125 48.484375 21.453125 46.0625 
Q 17.390625 43.65625 17.390625 39.5 
Q 17.390625 34.671875 26.859375 32.078125 
Q 27.59375 31.890625 27.9375 31.78125 
L 30.8125 30.90625 
Q 39.796875 28.421875 42.796875 25.6875 
Q 45.796875 22.953125 45.796875 18.21875 
Q 45.796875 9.515625 38.890625 4.046875 
Q 31.984375 -1.421875 20.796875 -1.421875 
Q 16.453125 -1.421875 11.671875 -0.578125 
Q 6.890625 0.25 1.125 2 
L 2.875 11.28125 
Q 7.8125 8.734375 12.59375 7.421875 
Q 17.390625 6.109375 21.78125 6.109375 
Q 28.375 6.109375 32.5 8.9375 
Q 36.625 11.765625 36.625 16.109375 
Q 36.625 20.796875 25.78125 23.6875 
L 24.859375 23.921875 
L 21.78125 24.703125 
Q 14.9375 26.515625 11.765625 29.46875 
Q 8.59375 32.421875 8.59375 37.015625 
Q 8.59375 45.75 15.15625 50.875 
Q 21.734375 56 33.015625 56 
Q 37.453125 56 41.671875 55.265625 
Q 45.90625 54.546875 50 53.078125 
z
" id="DejaVuSans-Oblique-115"/>
     </defs>
     <g transform="translate(513.503125 168.306406)scale(0.1 -0.1)">
      <use transform="translate(19.482422 0.09375)" xlink:href="#DejaVuSans-8659"/>
      <use transform="translate(122.753906 0.09375)" xlink:href="#DejaVuSans-Oblique-115"/>
      <use transform="translate(174.853516 -16.3125)scale(0.7)" xlink:href="#DejaVuSans-Oblique-968"/>
     </g>
    </g>
    <g id="line2d_25">
     <path d="M 485.503125 180.504844 
L 505.503125 180.504844 
" style="fill:none;stroke:#2ca02c;stroke-linecap:square;stroke-width:1.5;"/>
    </g>
    <g id="line2d_26"/>
    <g id="text_20">
     <!-- $\Uparrow \eta$ -->
     <defs>
      <path d="M 36.765625 58.59375 
L 36.765625 0 
L 30.90625 0 
L 30.90625 52.734375 
L 26.421875 48.140625 
L 20.5625 54 
L 39.703125 73.25 
L 44.09375 73.25 
L 63.328125 54 
L 57.46875 48.140625 
L 52.875 52.734375 
L 52.875 0 
L 47.015625 0 
L 47.015625 58.59375 
L 41.9375 63.671875 
z
" id="DejaVuSans-8657"/>
      <path d="M 57.859375 33.015625 
L 47.40625 -20.796875 
L 38.421875 -20.796875 
L 48.828125 32.71875 
Q 50.34375 40.484375 48.046875 44.34375 
Q 45.796875 48.1875 39.75 48.1875 
Q 32.46875 48.1875 27.34375 43.5625 
Q 22.265625 38.921875 20.703125 30.90625 
L 14.703125 0 
L 5.671875 0 
L 16.3125 54.6875 
L 25.34375 54.6875 
L 23.6875 46.1875 
Q 27.828125 51.125 32.71875 53.5625 
Q 37.546875 56 43.265625 56 
Q 52.6875 56 56.390625 50.203125 
Q 60.0625 44.34375 57.859375 33.015625 
z
" id="DejaVuSans-Oblique-951"/>
     </defs>
     <g transform="translate(513.503125 184.004844)scale(0.1 -0.1)">
      <use transform="translate(19.482422 0.75)" xlink:href="#DejaVuSans-8657"/>
      <use transform="translate(122.753906 0.75)" xlink:href="#DejaVuSans-Oblique-951"/>
     </g>
    </g>
   </g>
  </g>
 </g>
 <defs>
  <clipPath id="p5fc4889953">
   <rect height="271.8" width="446.4" x="30.103125" y="22.318125"/>
  </clipPath>
 </defs>
</svg>
