<?xml version="1.0" encoding="utf-8" standalone="no"?>
<!DOCTYPE svg PUBLIC "-//W3C//DTD SVG 1.1//EN"
  "http://www.w3.org/Graphics/SVG/1.1/DTD/svg11.dtd">
<!-- Created with matplotlib (https://matplotlib.org/) -->
<svg height="331.4625pt" version="1.1" viewBox="0 0 575.48125 331.4625" width="575.48125pt" xmlns="http://www.w3.org/2000/svg" xmlns:xlink="http://www.w3.org/1999/xlink">
 <defs>
  <style type="text/css">
*{stroke-linecap:butt;stroke-linejoin:round;}
  </style>
 </defs>
 <g id="figure_1">
  <g id="patch_1">
   <path d="M 0 331.4625 
L 575.48125 331.4625 
L 575.48125 0 
L 0 0 
z
" style="fill:#ffffff;"/>
  </g>
  <g id="axes_1">
   <g id="patch_2">
    <path d="M 38.482813 293.90625 
L 484.882812 293.90625 
L 484.882812 22.10625 
L 38.482813 22.10625 
z
" style="fill:#ffffff;"/>
   </g>
   <g id="line2d_1">
    <path clip-path="url(#p3c08f78f6e)" d="M 58.773722 233.832707 
L 59.499693 166.714432 
L 60.225665 263.711165 
L 60.951637 202.791762 
L 61.677608 225.179808 
L 62.40358 225.162947 
L 63.129552 223.081433 
L 63.855524 205.005093 
L 64.581495 238.479631 
L 65.307467 138.685909 
L 66.033439 279.117951 
L 66.75941 181.825125 
L 68.211354 234.481 
L 68.937325 241.858475 
L 69.663297 261.440182 
L 70.389269 208.610515 
L 71.115241 240.182784 
L 71.841212 223.395047 
L 72.567184 242.104417 
L 73.293156 248.397471 
L 74.019127 219.851995 
L 74.745099 250.684439 
L 75.471071 209.839207 
L 76.197042 223.230637 
L 76.923014 214.726606 
L 77.648986 169.68886 
L 78.374958 176.313344 
L 79.100929 269.985993 
L 79.826901 159.492747 
L 80.552873 252.93314 
L 81.278844 251.942297 
L 82.004816 259.92991 
L 82.730788 211.856762 
L 83.456759 189.199329 
L 84.182731 193.39437 
L 84.908703 208.726679 
L 85.634675 271.251528 
L 86.360646 258.704947 
L 87.086618 266.013935 
L 87.81259 224.514221 
L 88.538561 250.747448 
L 89.264533 260.175284 
L 89.990505 236.786969 
L 90.716477 240.541309 
L 91.442448 239.022058 
L 92.16842 262.467524 
L 92.894392 230.957793 
L 93.620363 264.28257 
L 94.346335 232.492523 
L 95.072307 261.347979 
L 95.798278 256.336452 
L 96.52425 235.349762 
L 97.250222 268.164858 
L 97.976194 263.969779 
L 98.702165 263.776354 
L 99.428137 176.84221 
L 100.154109 209.582542 
L 100.88008 224.52419 
L 101.606052 229.519816 
L 102.332024 224.667744 
L 103.057995 177.774916 
L 103.783967 277.09401 
L 104.509939 249.932233 
L 105.235911 236.768086 
L 105.961882 187.26958 
L 106.687854 238.496034 
L 107.413826 219.349896 
L 108.139797 220.44645 
L 108.865769 214.433934 
L 109.591741 159.207913 
L 110.317712 181.626688 
L 111.043684 273.471654 
L 111.769656 216.419541 
L 112.495628 230.93478 
L 113.947571 197.439911 
L 114.673543 233.94566 
L 115.399514 233.730704 
L 116.125486 225.544632 
L 116.851458 189.111047 
L 117.57743 270.340239 
L 118.303401 231.387479 
L 119.029373 226.027524 
L 119.755345 118.393652 
L 120.481316 269.804696 
L 121.207288 167.10402 
L 121.93326 236.746372 
L 122.659231 267.853447 
L 123.385203 207.039846 
L 124.111175 225.186769 
L 124.837147 171.831377 
L 125.563118 186.5583 
L 126.28909 217.525536 
L 127.015062 205.076169 
L 127.741033 158.377629 
L 128.467005 226.494619 
L 129.192977 222.770103 
L 129.918948 262.396011 
L 130.64492 262.189093 
L 132.096864 173.508591 
L 132.822835 224.876237 
L 133.548807 164.336501 
L 134.274779 269.313237 
L 135.00075 258.035769 
L 135.726722 196.529707 
L 136.452694 225.91638 
L 137.178665 240.6606 
L 137.904637 207.645874 
L 138.630609 235.466036 
L 139.356581 146.146048 
L 140.082552 265.796246 
L 140.808524 259.95095 
L 141.534496 228.194606 
L 142.260467 234.768709 
L 142.986439 229.133426 
L 143.712411 278.357541 
L 144.438383 252.443012 
L 145.164354 197.0338 
L 145.890326 235.364474 
L 146.616298 238.051045 
L 147.342269 232.175474 
L 148.068241 231.280065 
L 148.794213 215.577304 
L 149.520184 227.585024 
L 150.246156 225.271651 
L 150.972128 118.257461 
L 151.6981 193.285587 
L 153.150043 227.242444 
L 153.876015 214.856061 
L 154.601986 271.518366 
L 155.327958 197.778498 
L 156.05393 196.918937 
L 156.779901 214.924968 
L 157.505873 229.311077 
L 158.231845 226.12886 
L 158.957817 222.386744 
L 159.683788 215.615813 
L 160.40976 242.994025 
L 161.135732 211.139312 
L 161.861703 227.473722 
L 162.587675 233.344286 
L 163.313647 135.515185 
L 164.039618 221.986412 
L 164.76559 202.059141 
L 165.491562 279.72536 
L 166.217534 260.649687 
L 166.943505 274.19915 
L 167.669477 271.024803 
L 168.395449 245.690968 
L 169.12142 232.424385 
L 169.847392 177.16617 
L 170.573364 281.551705 
L 171.299336 212.776934 
L 172.025307 269.905572 
L 172.751279 230.636541 
L 173.477251 229.037179 
L 174.203222 219.252569 
L 174.929194 223.034542 
L 175.655166 225.273117 
L 176.381137 207.946282 
L 177.107109 239.799027 
L 177.833081 236.308355 
L 178.559053 221.116171 
L 179.285024 237.504646 
L 180.010996 195.171937 
L 180.736968 183.228523 
L 181.462939 184.933365 
L 182.188911 271.863218 
L 182.914883 257.623481 
L 183.640854 149.005605 
L 184.366826 220.14551 
L 185.092798 214.350968 
L 185.81877 204.340365 
L 186.544741 213.390636 
L 187.270713 235.677394 
L 187.996685 222.119446 
L 188.722656 218.763131 
L 189.448628 163.939711 
L 190.1746 216.031725 
L 191.626543 168.67603 
L 192.352515 216.754439 
L 193.078487 162.973812 
L 193.804458 193.022452 
L 194.53043 198.414125 
L 195.982373 226.089442 
L 196.708345 221.100103 
L 197.434317 172.482479 
L 198.160289 169.032505 
L 198.88626 198.957098 
L 199.612232 205.532325 
L 200.338204 242.768432 
L 201.064175 163.494967 
L 201.790147 137.712244 
L 202.516119 180.312392 
L 203.24209 187.331252 
L 203.968062 147.100356 
L 204.694034 182.849146 
L 205.420006 195.97415 
L 206.145977 252.269341 
L 206.871949 248.533375 
L 207.597921 202.264849 
L 208.323892 202.108102 
L 209.049864 222.631196 
L 209.775836 248.732594 
L 210.501807 256.240193 
L 211.227779 209.82039 
L 211.953751 266.608983 
L 212.679723 233.434742 
L 213.405694 194.49604 
L 214.131666 220.793238 
L 214.857638 215.630653 
L 215.583609 203.041455 
L 216.309581 233.490321 
L 217.035553 234.994529 
L 217.761524 212.64459 
L 218.487496 186.678458 
L 219.213468 224.257068 
L 219.93944 214.591096 
L 220.665411 200.561318 
L 221.391383 211.241472 
L 222.117355 225.921449 
L 222.843326 162.864921 
L 223.569298 221.870886 
L 224.29527 232.530641 
L 225.021242 260.933587 
L 225.747213 172.034873 
L 226.473185 226.939512 
L 227.199157 264.128584 
L 227.925128 254.144777 
L 228.6511 228.68504 
L 229.377072 210.027756 
L 230.103043 272.032688 
L 230.829015 228.245832 
L 231.554987 262.705554 
L 232.280959 219.05128 
L 233.00693 229.150165 
L 233.732902 265.106452 
L 234.458874 262.358881 
L 235.184845 221.97649 
L 235.910817 273.102459 
L 236.636789 221.519368 
L 237.36276 229.204295 
L 238.088732 222.496468 
L 238.814704 182.384054 
L 239.540676 264.467528 
L 240.266647 253.954671 
L 240.992619 232.759612 
L 241.718591 214.885717 
L 242.444562 221.932557 
L 243.170534 216.129853 
L 243.896506 236.740696 
L 244.622477 236.068524 
L 245.348449 225.241733 
L 246.074421 228.980903 
L 246.800393 244.969273 
L 247.526364 220.475441 
L 248.252336 224.473009 
L 248.978308 248.708088 
L 249.704279 224.897528 
L 250.430251 246.363128 
L 251.156223 244.184977 
L 251.882195 255.731541 
L 252.608166 227.044479 
L 253.334138 222.94632 
L 254.06011 263.501835 
L 254.786081 189.947774 
L 255.512053 193.14886 
L 256.238025 217.792677 
L 256.963996 213.407373 
L 257.689968 185.947805 
L 258.41594 266.164633 
L 259.141912 148.580839 
L 259.867883 214.430315 
L 260.593855 212.728903 
L 261.319827 196.945565 
L 262.045798 251.454371 
L 262.77177 218.253851 
L 263.497742 245.660372 
L 264.223713 210.929186 
L 264.949685 205.926199 
L 265.675657 219.65489 
L 266.401629 165.857248 
L 267.1276 265.744522 
L 267.853572 250.465381 
L 268.579544 195.532752 
L 269.305515 228.414645 
L 270.031487 218.23881 
L 270.757459 221.269994 
L 271.48343 224.920994 
L 272.209402 206.397643 
L 272.935374 179.914324 
L 273.661346 185.672515 
L 274.387317 208.005692 
L 275.113289 264.979737 
L 275.839261 203.335733 
L 276.565232 219.651011 
L 277.291204 225.491626 
L 278.017176 222.871813 
L 278.743148 210.291408 
L 279.469119 222.106093 
L 280.195091 205.040244 
L 280.921063 170.29347 
L 281.647034 199.63939 
L 282.373006 151.737957 
L 283.098978 233.674372 
L 283.824949 254.551215 
L 284.550921 234.153181 
L 285.276893 255.587333 
L 286.002865 229.810596 
L 286.728836 193.798307 
L 287.454808 253.553266 
L 288.18078 250.625993 
L 288.906751 213.47243 
L 289.632723 239.215371 
L 290.358695 227.042866 
L 291.084666 267.858936 
L 291.810638 216.392985 
L 292.53661 228.487812 
L 293.262582 235.394278 
L 293.988553 223.192474 
L 294.714525 221.098895 
L 295.440497 228.209801 
L 296.166468 223.213766 
L 296.89244 233.267052 
L 297.618412 225.04694 
L 298.344383 231.70397 
L 299.070355 266.267069 
L 300.522299 174.764358 
L 301.24827 232.888051 
L 301.974242 227.061186 
L 302.700214 232.040213 
L 303.426185 233.763311 
L 304.152157 229.195177 
L 304.878129 219.249344 
L 305.604101 194.157225 
L 306.330072 220.239457 
L 307.056044 238.208551 
L 308.507987 242.574421 
L 309.233959 213.72751 
L 309.959931 226.88107 
L 310.685902 222.205426 
L 311.411874 263.996418 
L 312.137846 211.61113 
L 312.863818 220.679552 
L 313.589789 231.389402 
L 314.315761 235.011408 
L 315.041733 266.610239 
L 315.767704 216.167074 
L 316.493676 224.95005 
L 317.219648 176.097306 
L 317.945619 239.423139 
L 318.671591 223.651954 
L 319.397563 270.176989 
L 320.123535 215.63636 
L 320.849506 235.672135 
L 321.575478 194.96923 
L 322.30145 252.937463 
L 323.027421 219.650799 
L 323.753393 233.395317 
L 324.479365 227.062871 
L 325.205336 248.87536 
L 325.931308 239.101335 
L 326.65728 246.048834 
L 327.383252 258.207579 
L 328.109223 214.338173 
L 328.835195 263.556522 
L 329.561167 184.018896 
L 330.287138 229.707689 
L 331.01311 230.784735 
L 331.739082 250.99273 
L 332.465054 229.706624 
L 333.191025 217.250848 
L 333.916997 246.128571 
L 334.642969 209.443245 
L 335.36894 223.151748 
L 336.094912 200.433342 
L 336.820884 205.824138 
L 337.546855 247.245475 
L 338.272827 237.925973 
L 338.998799 223.736223 
L 339.724771 220.173345 
L 340.450742 243.676769 
L 341.176714 241.293352 
L 341.902686 222.320252 
L 342.628657 219.521592 
L 343.354629 243.87588 
L 344.080601 250.507172 
L 344.806572 213.601206 
L 345.532544 211.602432 
L 346.258516 223.682658 
L 346.984488 241.157816 
L 347.710459 220.48183 
L 348.436431 240.498098 
L 349.162403 241.992562 
L 349.888374 241.05943 
L 350.614346 240.381194 
L 351.340318 217.975674 
L 352.066289 219.589621 
L 352.792261 245.290102 
L 353.518233 221.581708 
L 354.244205 219.362648 
L 354.970176 239.284459 
L 355.696148 213.136026 
L 356.42212 243.482637 
L 357.148091 221.988483 
L 357.874063 214.940466 
L 358.600035 222.365516 
L 359.326007 215.017981 
L 360.051978 225.121235 
L 360.77795 256.414297 
L 361.503922 194.009058 
L 362.229893 247.545673 
L 362.955865 220.056061 
L 363.681837 246.125521 
L 364.407808 234.98022 
L 365.13378 240.867133 
L 365.859752 221.770052 
L 366.585724 221.499747 
L 367.311695 221.536355 
L 368.037667 222.191847 
L 368.763639 205.815502 
L 370.215582 240.448937 
L 370.941554 239.135897 
L 371.667525 221.493211 
L 372.393497 241.934214 
L 373.119469 216.639515 
L 373.845441 221.689888 
L 374.571412 244.393977 
L 375.297384 200.856294 
L 376.023356 245.616314 
L 376.749327 243.490025 
L 377.475299 214.462609 
L 378.201271 210.101267 
L 378.927242 224.838383 
L 379.653214 218.568602 
L 380.379186 214.268626 
L 381.105158 223.888438 
L 381.831129 215.432488 
L 382.557101 255.031149 
L 383.283073 244.667087 
L 384.009044 241.306236 
L 384.735016 221.207378 
L 385.460988 223.238364 
L 386.18696 243.875757 
L 386.912931 246.132492 
L 387.638903 241.379592 
L 388.364875 246.377028 
L 389.090846 222.892565 
L 389.816818 243.38516 
L 390.54279 213.465383 
L 391.268761 226.07707 
L 392.720705 223.727317 
L 393.446677 228.427133 
L 394.172648 252.182938 
L 394.89862 213.301442 
L 395.624592 222.208978 
L 396.350563 228.373761 
L 397.076535 231.234242 
L 397.802507 224.788378 
L 398.528478 252.693781 
L 399.25445 248.732578 
L 399.980422 248.846672 
L 400.706394 230.463177 
L 401.432365 235.303548 
L 402.158337 219.66736 
L 402.884309 256.296166 
L 403.61028 226.371646 
L 404.336252 254.41672 
L 405.062224 231.52992 
L 405.788195 235.153219 
L 406.514167 231.600621 
L 407.240139 253.510968 
L 407.966111 250.411511 
L 408.692082 243.517556 
L 409.418054 232.211313 
L 410.144026 246.934348 
L 410.869997 251.160975 
L 411.595969 252.555195 
L 412.321941 219.884877 
L 413.773884 253.529186 
L 414.499856 250.050137 
L 415.951799 253.947487 
L 416.677771 225.53738 
L 417.403743 256.959192 
L 418.129714 234.55408 
L 418.855686 245.728722 
L 419.581658 249.305179 
L 420.30763 232.964097 
L 421.033601 236.693392 
L 421.759573 226.67042 
L 422.485545 246.844683 
L 423.211516 222.691834 
L 423.937488 243.439315 
L 424.66346 240.766814 
L 425.389431 228.03317 
L 426.115403 243.872117 
L 426.841375 241.117008 
L 427.567347 240.691978 
L 428.293318 227.397787 
L 429.01929 242.75732 
L 429.745262 225.477333 
L 430.471233 242.295506 
L 431.197205 225.48946 
L 431.923177 225.022821 
L 432.649148 226.808941 
L 433.37512 220.205939 
L 434.101092 240.747707 
L 434.827064 218.177251 
L 435.553035 224.939866 
L 436.279007 223.372422 
L 437.004979 222.443687 
L 437.73095 221.951607 
L 438.456922 225.927291 
L 439.182894 237.381163 
L 439.908866 236.842108 
L 440.634837 236.47096 
L 441.360809 234.884475 
L 442.086781 238.342869 
L 442.812752 234.371813 
L 443.538724 223.396669 
L 444.264696 239.132665 
L 444.990667 223.355681 
L 445.716639 237.77954 
L 446.442611 224.672371 
L 447.168583 225.274085 
L 447.894554 237.925067 
L 448.620526 234.780202 
L 449.346498 235.461807 
L 450.072469 222.770749 
L 450.798441 236.308043 
L 451.524413 236.457019 
L 452.250384 238.501687 
L 452.976356 233.93806 
L 453.702328 237.49969 
L 454.4283 222.822548 
L 455.154271 240.640181 
L 455.880243 236.269827 
L 456.606215 234.10065 
L 457.332186 226.232489 
L 458.058158 225.600284 
L 458.78413 235.419064 
L 459.510101 235.449386 
L 460.236073 235.97067 
L 460.962045 222.373793 
L 461.688017 223.127412 
L 462.413988 236.073131 
L 463.13996 234.436081 
L 464.591903 234.218346 
L 464.591903 234.218346 
" style="fill:none;stroke:#1f77b4;stroke-linecap:square;stroke-width:1.5;"/>
   </g>
   <g id="line2d_2">
    <path clip-path="url(#p3c08f78f6e)" d="M 58.773722 258.208614 
L 59.499693 191.145931 
L 60.225665 236.986636 
L 60.951637 216.246839 
L 61.677608 218.868494 
L 62.40358 237.472459 
L 63.129552 241.507501 
L 63.855524 223.842665 
L 64.581495 267.387373 
L 65.307467 214.610625 
L 66.033439 246.638386 
L 66.75941 234.139857 
L 67.485382 235.719413 
L 68.211354 241.930074 
L 68.937325 180.161001 
L 69.663297 224.985816 
L 70.389269 198.687339 
L 71.115241 123.994186 
L 71.841212 266.204871 
L 72.567184 143.103054 
L 73.293156 219.016643 
L 74.019127 220.505089 
L 74.745099 179.65265 
L 75.471071 181.134003 
L 76.923014 247.654442 
L 77.648986 204.285415 
L 78.374958 243.71132 
L 79.100929 230.83788 
L 79.826901 231.864864 
L 80.552873 235.431827 
L 81.278844 245.188621 
L 82.004816 241.016042 
L 82.730788 253.730573 
L 83.456759 203.877118 
L 84.908703 231.515116 
L 85.634675 228.995847 
L 86.360646 237.047302 
L 87.81259 199.931738 
L 88.538561 191.636525 
L 89.264533 205.625311 
L 89.990505 207.825975 
L 90.716477 201.323904 
L 91.442448 131.243798 
L 92.16842 227.245383 
L 92.894392 133.647314 
L 93.620363 268.606987 
L 94.346335 232.529927 
L 95.072307 251.268217 
L 95.798278 229.684757 
L 96.52425 238.066509 
L 97.250222 232.746974 
L 97.976194 262.189284 
L 98.702165 240.793307 
L 99.428137 199.479171 
L 100.154109 216.800128 
L 100.88008 222.413876 
L 101.606052 224.74733 
L 102.332024 219.674407 
L 103.057995 160.063569 
L 103.783967 242.03193 
L 104.509939 233.382458 
L 105.235911 227.093427 
L 105.961882 194.044725 
L 106.687854 234.725493 
L 107.413826 237.365011 
L 108.139797 226.847279 
L 108.865769 222.739867 
L 109.591741 185.767869 
L 110.317712 173.651579 
L 111.043684 215.461054 
L 111.769656 211.925371 
L 112.495628 228.67341 
L 113.221599 267.215566 
L 113.947571 216.238274 
L 114.673543 206.416808 
L 115.399514 268.868106 
L 116.125486 234.122004 
L 116.851458 239.389934 
L 117.57743 238.708431 
L 118.303401 241.070728 
L 119.029373 236.567294 
L 119.755345 156.810278 
L 120.481316 193.331874 
L 121.207288 249.072728 
L 121.93326 252.67344 
L 122.659231 233.899586 
L 123.385203 238.289297 
L 124.111175 253.887792 
L 124.837147 192.656084 
L 125.563118 229.469191 
L 126.28909 257.387891 
L 127.015062 253.989306 
L 127.741033 210.375816 
L 128.467005 243.066211 
L 129.192977 232.782424 
L 129.918948 206.626906 
L 130.64492 248.685171 
L 131.370892 229.133057 
L 132.096864 194.071777 
L 132.822835 264.302338 
L 133.548807 200.924253 
L 134.274779 225.917658 
L 135.00075 231.221517 
L 135.726722 219.483592 
L 136.452694 231.83392 
L 137.178665 226.194867 
L 137.904637 222.522461 
L 138.630609 222.712589 
L 139.356581 166.618006 
L 140.808524 198.525907 
L 141.534496 207.404357 
L 142.260467 202.200979 
L 142.986439 207.137069 
L 143.712411 212.87943 
L 144.438383 180.77013 
L 145.164354 138.51927 
L 145.890326 202.932829 
L 146.616298 203.929935 
L 147.342269 206.395535 
L 148.068241 183.884448 
L 148.794213 189.418184 
L 149.520184 201.937438 
L 150.246156 188.699068 
L 150.972128 34.460795 
L 152.424071 235.167006 
L 153.150043 237.056473 
L 153.876015 225.330605 
L 154.601986 234.095434 
L 155.327958 218.87496 
L 156.05393 211.887703 
L 156.779901 266.166386 
L 157.505873 224.636549 
L 158.231845 228.791543 
L 158.957817 265.338222 
L 159.683788 240.985469 
L 160.40976 242.043232 
L 161.135732 210.615435 
L 161.861703 233.507581 
L 162.587675 224.656556 
L 163.313647 148.995385 
L 164.039618 203.268752 
L 164.76559 240.047669 
L 165.491562 216.077917 
L 166.217534 238.039405 
L 166.943505 267.393286 
L 167.669477 250.462521 
L 168.395449 265.822781 
L 169.12142 245.139786 
L 169.847392 197.256434 
L 170.573364 249.620384 
L 171.299336 183.451236 
L 172.025307 244.653859 
L 172.751279 238.529711 
L 173.477251 229.446348 
L 174.203222 258.833533 
L 174.929194 219.602792 
L 175.655166 268.077715 
L 176.381137 246.554277 
L 177.833081 263.308081 
L 178.559053 257.633583 
L 179.285024 265.546321 
L 180.736968 224.447564 
L 181.462939 239.200087 
L 182.188911 256.490025 
L 182.914883 251.092212 
L 183.640854 226.78279 
L 184.366826 247.385147 
L 185.092798 263.817157 
L 185.81877 247.589442 
L 186.544741 254.983218 
L 187.270713 250.231738 
L 187.996685 251.537305 
L 188.722656 228.930474 
L 189.448628 232.732601 
L 190.1746 259.917576 
L 190.900571 231.740645 
L 191.626543 222.028423 
L 192.352515 245.1641 
L 193.078487 212.486584 
L 193.804458 215.723383 
L 194.53043 250.17613 
L 195.256402 239.718591 
L 195.982373 234.740528 
L 196.708345 226.337658 
L 197.434317 184.990622 
L 198.160289 205.019635 
L 198.88626 202.339149 
L 199.612232 218.186162 
L 200.338204 187.805296 
L 201.064175 208.864169 
L 201.790147 176.844199 
L 202.516119 201.128266 
L 203.24209 185.523296 
L 203.968062 177.937072 
L 204.694034 228.467412 
L 205.420006 207.093405 
L 206.145977 232.602961 
L 206.871949 220.605676 
L 207.597921 206.196687 
L 208.323892 216.567974 
L 209.049864 251.580065 
L 209.775836 186.812701 
L 210.501807 226.22468 
L 211.953751 205.093844 
L 212.679723 199.981713 
L 213.405694 173.609577 
L 214.131666 206.483451 
L 214.857638 232.670352 
L 215.583609 198.654853 
L 216.309581 254.522211 
L 217.035553 215.069746 
L 217.761524 204.947488 
L 218.487496 186.121897 
L 219.213468 212.289112 
L 219.93944 204.724613 
L 220.665411 195.531509 
L 221.391383 203.356736 
L 222.117355 192.498035 
L 222.843326 128.686445 
L 223.569298 194.627524 
L 224.29527 214.098291 
L 225.021242 148.825151 
L 225.747213 141.828792 
L 226.473185 190.186113 
L 227.199157 148.582834 
L 227.925128 194.203757 
L 228.6511 197.780309 
L 229.377072 158.237262 
L 230.103043 194.23743 
L 230.829015 119.053631 
L 231.554987 230.541372 
L 232.280959 179.15323 
L 233.00693 267.362976 
L 233.732902 229.165267 
L 234.458874 223.185467 
L 235.184845 206.79143 
L 235.910817 246.807315 
L 236.636789 254.961141 
L 237.36276 209.858928 
L 238.088732 226.181217 
L 238.814704 154.964165 
L 239.540676 221.140902 
L 240.266647 249.624422 
L 240.992619 257.86023 
L 241.718591 224.779102 
L 242.444562 223.889613 
L 243.170534 209.647836 
L 243.896506 220.583772 
L 244.622477 161.818465 
L 245.348449 222.551273 
L 246.074421 254.488872 
L 246.800393 203.457525 
L 247.526364 239.596915 
L 248.252336 222.29833 
L 248.978308 230.137167 
L 249.704279 228.463769 
L 250.430251 223.533676 
L 251.156223 231.370614 
L 251.882195 222.740115 
L 252.608166 233.336563 
L 253.334138 225.354143 
L 254.06011 219.622283 
L 254.786081 240.289183 
L 255.512053 203.41522 
L 256.238025 222.017685 
L 256.963996 216.271333 
L 257.689968 188.839025 
L 258.41594 217.873485 
L 259.141912 183.120714 
L 259.867883 205.430623 
L 260.593855 197.838953 
L 261.319827 181.435323 
L 262.045798 210.202114 
L 263.497742 229.62589 
L 264.223713 236.7698 
L 264.949685 217.76063 
L 265.675657 229.666769 
L 266.401629 180.672518 
L 267.1276 251.682915 
L 267.853572 242.59416 
L 268.579544 215.058146 
L 269.305515 239.65371 
L 270.031487 218.188535 
L 270.757459 221.167476 
L 271.48343 229.969756 
L 272.209402 220.065712 
L 272.935374 182.637822 
L 273.661346 208.383509 
L 274.387317 253.943256 
L 275.113289 228.877205 
L 275.839261 230.300623 
L 276.565232 246.036078 
L 277.291204 235.222701 
L 278.017176 230.145778 
L 278.743148 255.788896 
L 279.469119 239.665155 
L 280.195091 252.062613 
L 280.921063 213.702891 
L 281.647034 253.763814 
L 282.373006 212.596844 
L 283.098978 250.549273 
L 283.824949 249.103835 
L 284.550921 226.856653 
L 285.276893 255.365611 
L 286.002865 231.072635 
L 286.728836 239.470177 
L 287.454808 242.110934 
L 288.18078 255.864648 
L 288.906751 248.415056 
L 289.632723 261.140189 
L 290.358695 253.033306 
L 291.084666 265.206518 
L 291.810638 251.332893 
L 292.53661 253.450695 
L 293.262582 249.392832 
L 293.988553 247.682943 
L 294.714525 243.451434 
L 295.440497 241.112595 
L 296.166468 237.223172 
L 296.89244 266.905236 
L 297.618412 257.186504 
L 298.344383 267.735991 
L 299.070355 246.733716 
L 299.796327 254.567063 
L 300.522299 205.39889 
L 301.24827 257.077529 
L 301.974242 254.488911 
L 302.700214 262.92337 
L 303.426185 259.615883 
L 304.152157 265.709603 
L 304.878129 241.078499 
L 305.604101 245.848607 
L 306.330072 252.470838 
L 307.056044 233.500443 
L 307.782016 240.318841 
L 308.507987 245.698727 
L 309.233959 249.905198 
L 309.959931 244.600947 
L 310.685902 243.711889 
L 311.411874 233.151938 
L 312.137846 243.3052 
L 312.863818 226.580961 
L 313.589789 228.960117 
L 314.315761 259.119078 
L 315.041733 237.558788 
L 315.767704 236.943066 
L 316.493676 235.389149 
L 317.219648 200.511113 
L 317.945619 259.740929 
L 318.671591 238.233652 
L 319.397563 242.376908 
L 320.123535 234.788 
L 320.849506 239.573082 
L 321.575478 193.591976 
L 322.30145 200.748157 
L 323.753393 226.040795 
L 324.479365 221.10986 
L 325.205336 178.852703 
L 325.931308 204.158959 
L 326.65728 189.93457 
L 327.383252 254.573548 
L 328.109223 213.099736 
L 328.835195 228.119155 
L 329.561167 197.373687 
L 330.287138 220.734697 
L 331.01311 216.549612 
L 331.739082 202.985331 
L 332.465054 253.101696 
L 333.191025 234.779827 
L 333.916997 203.463867 
L 334.642969 208.006017 
L 335.36894 241.199988 
L 336.094912 204.255001 
L 336.820884 210.684404 
L 337.546855 213.491316 
L 338.272827 204.737515 
L 338.998799 215.589787 
L 339.724771 206.64698 
L 340.450742 190.780143 
L 341.176714 192.241254 
L 341.902686 201.808112 
L 342.628657 205.11684 
L 343.354629 192.284256 
L 344.080601 212.876921 
L 344.806572 192.606312 
L 345.532544 166.466454 
L 346.258516 193.953624 
L 346.984488 196.830331 
L 347.710459 192.206836 
L 348.436431 227.55103 
L 349.162403 187.260638 
L 349.888374 225.602889 
L 350.614346 199.318984 
L 351.340318 207.059052 
L 352.066289 207.076506 
L 352.792261 206.914333 
L 353.518233 213.375531 
L 354.244205 208.001459 
L 354.970176 192.3101 
L 355.696148 206.363128 
L 356.42212 224.894638 
L 357.148091 209.87437 
L 357.874063 206.591065 
L 358.600035 220.211456 
L 359.326007 230.394711 
L 360.051978 216.699306 
L 360.77795 216.362748 
L 361.503922 197.59018 
L 362.229893 200.813914 
L 362.955865 240.171146 
L 363.681837 224.08395 
L 364.407808 221.954868 
L 365.13378 232.634498 
L 365.859752 230.803342 
L 366.585724 224.982415 
L 368.037667 226.040679 
L 368.763639 223.531227 
L 369.48961 236.655861 
L 370.215582 226.226441 
L 370.941554 225.210828 
L 371.667525 231.588686 
L 372.393497 219.19091 
L 373.119469 240.476812 
L 373.845441 229.366775 
L 374.571412 223.452207 
L 375.297384 210.453131 
L 376.023356 221.791973 
L 376.749327 229.935156 
L 377.475299 235.555206 
L 378.201271 215.718199 
L 378.927242 229.871841 
L 379.653214 228.583436 
L 380.379186 228.220339 
L 381.105158 239.685514 
L 381.831129 227.418886 
L 382.557101 231.302207 
L 383.283073 238.431863 
L 384.009044 219.595873 
L 384.735016 234.269785 
L 385.460988 239.52991 
L 386.18696 230.638972 
L 386.912931 243.618205 
L 387.638903 237.217181 
L 388.364875 246.010417 
L 389.090846 243.028604 
L 389.816818 237.079923 
L 390.54279 235.673502 
L 391.268761 245.993807 
L 391.994733 246.553112 
L 393.446677 245.078535 
L 394.172648 243.808964 
L 394.89862 238.965023 
L 395.624592 242.686045 
L 396.350563 243.996888 
L 397.076535 250.39359 
L 397.802507 245.483771 
L 398.528478 249.826365 
L 399.25445 251.726019 
L 399.980422 249.576168 
L 400.706394 251.351361 
L 401.432365 252.327959 
L 402.158337 246.740674 
L 402.884309 255.530764 
L 403.61028 249.460707 
L 404.336252 253.573344 
L 405.062224 251.491687 
L 405.788195 255.391714 
L 406.514167 251.545426 
L 407.240139 249.670313 
L 407.966111 248.822285 
L 408.692082 243.548889 
L 409.418054 248.994713 
L 410.144026 240.628799 
L 410.869997 252.053537 
L 411.595969 252.107103 
L 412.321941 239.087036 
L 413.047913 252.165165 
L 413.773884 252.432744 
L 414.499856 252.078001 
L 415.225828 254.34054 
L 415.951799 256.179288 
L 416.677771 245.294062 
L 417.403743 253.371567 
L 418.129714 249.448146 
L 418.855686 241.799222 
L 419.581658 250.4995 
L 420.30763 246.585276 
L 421.033601 246.981313 
L 421.759573 235.584727 
L 422.485545 234.96869 
L 423.211516 238.246616 
L 423.937488 233.384621 
L 424.66346 236.439985 
L 425.389431 236.834069 
L 426.115403 234.918472 
L 426.841375 234.853141 
L 427.567347 234.133904 
L 429.01929 233.095478 
L 429.745262 231.313206 
L 431.197205 233.330701 
L 431.923177 232.160341 
L 432.649148 230.762714 
L 433.37512 228.848003 
L 434.101092 231.130186 
L 434.827064 232.256367 
L 435.553035 232.340033 
L 436.279007 230.645127 
L 437.004979 230.680017 
L 437.73095 229.786773 
L 438.456922 229.867218 
L 439.182894 229.32729 
L 439.908866 229.514279 
L 440.634837 229.911426 
L 441.360809 229.958908 
L 442.086781 231.210207 
L 442.812752 229.848426 
L 443.538724 228.758825 
L 444.264696 228.881403 
L 444.990667 228.859795 
L 445.716639 226.903576 
L 446.442611 228.878053 
L 447.168583 227.163145 
L 447.894554 227.640952 
L 448.620526 224.295227 
L 449.346498 226.058028 
L 450.072469 228.513641 
L 450.798441 227.112444 
L 451.524413 224.428696 
L 452.250384 223.890617 
L 452.976356 224.597338 
L 454.4283 222.609384 
L 455.154271 222.396069 
L 455.880243 223.241097 
L 456.606215 224.779431 
L 457.332186 224.853472 
L 458.058158 223.494887 
L 458.78413 223.119384 
L 459.510101 221.635814 
L 460.236073 222.765401 
L 460.962045 225.615195 
L 461.688017 223.601813 
L 462.413988 219.972009 
L 463.13996 222.64409 
L 463.865932 223.364266 
L 464.591903 224.939089 
L 464.591903 224.939089 
" style="fill:none;stroke:#ff7f0e;stroke-linecap:square;stroke-width:1.5;"/>
   </g>
   <g id="line2d_3">
    <path clip-path="url(#p3c08f78f6e)" d="M 58.773722 238.152997 
L 59.499693 162.511317 
L 60.225665 219.036048 
L 60.951637 208.253233 
L 61.677608 235.64653 
L 62.40358 227.923456 
L 63.129552 263.53937 
L 63.855524 235.271587 
L 64.581495 251.435896 
L 65.307467 193.108228 
L 66.033439 242.880278 
L 66.75941 217.753918 
L 68.211354 236.827301 
L 68.937325 170.537294 
L 69.663297 266.364648 
L 70.389269 209.146594 
L 71.115241 218.617383 
L 71.841212 238.028286 
L 72.567184 212.607635 
L 73.293156 230.633848 
L 74.019127 231.620947 
L 74.745099 234.207823 
L 75.471071 219.943737 
L 76.197042 242.686716 
L 76.923014 231.955832 
L 77.648986 190.301079 
L 78.374958 214.865312 
L 79.100929 227.608109 
L 79.826901 199.419819 
L 80.552873 193.431143 
L 82.004816 252.630478 
L 82.730788 236.034365 
L 83.456759 183.193187 
L 84.908703 225.789807 
L 85.634675 256.548776 
L 86.360646 228.323201 
L 87.086618 242.880806 
L 87.81259 237.32576 
L 88.538561 207.711069 
L 89.264533 238.29699 
L 89.990505 235.738716 
L 90.716477 262.124568 
L 91.442448 205.121952 
L 92.16842 238.48026 
L 92.894392 221.090351 
L 93.620363 233.838647 
L 94.346335 232.564187 
L 95.072307 224.2398 
L 95.798278 246.983695 
L 96.52425 249.000955 
L 97.250222 247.471982 
L 97.976194 241.539493 
L 98.702165 255.501287 
L 99.428137 212.987265 
L 100.154109 225.066248 
L 100.88008 234.485948 
L 101.606052 248.493602 
L 102.332024 238.339887 
L 103.057995 183.700004 
L 103.783967 235.971992 
L 104.509939 224.614442 
L 105.235911 190.733105 
L 105.961882 189.288119 
L 106.687854 229.06712 
L 107.413826 220.204209 
L 108.139797 239.727539 
L 108.865769 222.015589 
L 109.591741 176.909479 
L 110.317712 188.75465 
L 111.043684 257.008804 
L 111.769656 218.749331 
L 112.495628 255.537045 
L 113.221599 243.718031 
L 113.947571 211.927019 
L 114.673543 215.781733 
L 115.399514 246.771466 
L 116.851458 195.303951 
L 117.57743 255.989983 
L 118.303401 234.389807 
L 119.029373 238.881803 
L 119.755345 144.074173 
L 120.481316 194.07588 
L 121.207288 169.34531 
L 121.93326 219.52527 
L 122.659231 208.175318 
L 123.385203 202.241389 
L 124.111175 189.260974 
L 124.837147 144.347838 
L 125.563118 196.259774 
L 126.28909 212.279075 
L 127.015062 234.273396 
L 127.741033 184.37611 
L 128.467005 220.360146 
L 129.192977 213.106308 
L 129.918948 192.937777 
L 130.64492 228.21012 
L 131.370892 209.160015 
L 132.096864 173.800549 
L 132.822835 213.361178 
L 133.548807 140.798339 
L 134.274779 196.501452 
L 135.00075 207.530121 
L 135.726722 192.773935 
L 136.452694 205.569742 
L 137.178665 210.952935 
L 137.904637 189.008968 
L 138.630609 194.764772 
L 139.356581 88.529878 
L 140.082552 197.970886 
L 140.808524 195.482479 
L 141.534496 269.519265 
L 142.260467 225.255518 
L 142.986439 231.786067 
L 143.712411 259.623882 
L 144.438383 210.415933 
L 145.164354 168.901036 
L 145.890326 240.825522 
L 146.616298 227.918814 
L 147.342269 229.980505 
L 148.068241 258.4072 
L 148.794213 222.883909 
L 149.520184 240.12007 
L 150.246156 228.299978 
L 150.972128 140.605531 
L 151.6981 216.156206 
L 152.424071 236.266725 
L 153.150043 233.86547 
L 153.876015 232.306043 
L 154.601986 223.890773 
L 155.327958 232.229457 
L 156.05393 227.57759 
L 156.779901 230.199517 
L 157.505873 224.657847 
L 158.231845 225.459168 
L 158.957817 213.927503 
L 159.683788 227.630968 
L 160.40976 269.42336 
L 161.135732 201.428222 
L 161.861703 246.700557 
L 162.587675 263.213767 
L 163.313647 193.356359 
L 164.039618 236.157517 
L 164.76559 227.335869 
L 165.491562 232.740961 
L 166.217534 227.851822 
L 166.943505 241.130425 
L 167.669477 241.085918 
L 168.395449 243.205153 
L 169.12142 267.009406 
L 169.847392 172.683419 
L 170.573364 266.730003 
L 171.299336 180.138073 
L 172.025307 263.851369 
L 172.751279 246.625995 
L 173.477251 241.560773 
L 174.203222 237.55752 
L 174.929194 239.449975 
L 175.655166 244.999735 
L 176.381137 232.808202 
L 177.107109 264.687364 
L 177.833081 248.775285 
L 178.559053 256.306969 
L 179.285024 252.212223 
L 180.010996 241.845591 
L 180.736968 215.78296 
L 181.462939 239.151871 
L 182.188911 247.310115 
L 182.914883 242.422931 
L 183.640854 219.23883 
L 184.366826 246.212474 
L 185.092798 249.471859 
L 185.81877 239.752737 
L 186.544741 261.465733 
L 187.270713 260.179282 
L 187.996685 250.482319 
L 188.722656 254.407069 
L 189.448628 218.703352 
L 190.1746 256.941196 
L 190.900571 218.129852 
L 191.626543 240.096671 
L 192.352515 239.512914 
L 193.078487 228.983927 
L 195.256402 245.623273 
L 195.982373 243.465014 
L 196.708345 239.242556 
L 197.434317 230.823302 
L 198.160289 231.163093 
L 198.88626 232.584365 
L 199.612232 238.511472 
L 200.338204 221.042432 
L 201.064175 211.331478 
L 201.790147 226.479438 
L 202.516119 224.921881 
L 203.24209 238.053401 
L 203.968062 221.189279 
L 204.694034 228.70623 
L 205.420006 234.918883 
L 206.145977 230.744928 
L 206.871949 234.510637 
L 207.597921 230.015785 
L 208.323892 233.57207 
L 209.049864 232.841056 
L 209.775836 196.470031 
L 210.501807 254.89724 
L 211.227779 238.329745 
L 211.953751 251.801578 
L 212.679723 229.818494 
L 213.405694 222.2502 
L 214.131666 245.521542 
L 214.857638 259.933697 
L 215.583609 230.844023 
L 216.309581 244.201629 
L 217.035553 253.559035 
L 217.761524 236.562348 
L 218.487496 244.06036 
L 219.213468 239.374796 
L 219.93944 248.478656 
L 220.665411 231.9027 
L 221.391383 259.484064 
L 222.117355 235.948469 
L 222.843326 200.333748 
L 223.569298 242.011169 
L 224.29527 243.262538 
L 225.021242 215.469493 
L 225.747213 199.79796 
L 226.473185 229.665402 
L 227.199157 228.947779 
L 227.925128 216.591262 
L 228.6511 260.781996 
L 229.377072 217.495152 
L 230.103043 257.356927 
L 230.829015 180.863571 
L 231.554987 253.266301 
L 232.280959 223.725112 
L 233.00693 241.179787 
L 233.732902 254.612002 
L 234.458874 233.380591 
L 235.184845 226.919473 
L 235.910817 247.609877 
L 236.636789 252.546309 
L 237.36276 240.790585 
L 238.088732 239.770725 
L 238.814704 224.052025 
L 239.540676 229.056289 
L 240.266647 238.149632 
L 240.992619 240.372136 
L 241.718591 251.47451 
L 242.444562 251.660224 
L 243.170534 245.489064 
L 243.896506 252.005891 
L 244.622477 206.979193 
L 245.348449 240.979109 
L 246.074421 241.618822 
L 246.800393 224.897515 
L 247.526364 238.079676 
L 248.252336 237.142758 
L 248.978308 226.979812 
L 249.704279 235.878842 
L 250.430251 226.851286 
L 251.156223 231.598829 
L 251.882195 233.470523 
L 253.334138 232.682024 
L 254.06011 234.375491 
L 254.786081 207.158834 
L 255.512053 206.759213 
L 256.238025 252.941267 
L 256.963996 235.969837 
L 257.689968 203.679487 
L 258.41594 232.58654 
L 259.141912 224.792331 
L 259.867883 213.352535 
L 260.593855 225.238351 
L 261.319827 218.606541 
L 262.045798 232.148954 
L 262.77177 230.517229 
L 263.497742 225.189801 
L 264.223713 224.027622 
L 264.949685 224.74275 
L 265.675657 228.866648 
L 266.401629 225.654687 
L 267.1276 234.306245 
L 267.853572 231.007318 
L 268.579544 214.176624 
L 269.305515 229.735565 
L 270.031487 222.266505 
L 270.757459 226.324185 
L 271.48343 250.987178 
L 272.935374 212.038044 
L 273.661346 207.669186 
L 274.387317 227.021516 
L 275.113289 233.082269 
L 275.839261 246.028614 
L 276.565232 226.354719 
L 277.291204 248.113087 
L 278.017176 240.046714 
L 278.743148 237.253551 
L 279.469119 242.009716 
L 280.195091 232.260061 
L 280.921063 208.474977 
L 281.647034 235.852481 
L 282.373006 195.889554 
L 283.098978 229.133669 
L 283.824949 222.551326 
L 284.550921 202.117445 
L 285.276893 224.434352 
L 286.002865 190.217636 
L 286.728836 202.268589 
L 287.454808 210.646553 
L 288.18078 221.027361 
L 288.906751 219.346823 
L 289.632723 220.342055 
L 290.358695 224.860369 
L 291.084666 230.498059 
L 291.810638 228.674667 
L 292.53661 221.597832 
L 293.262582 217.517213 
L 293.988553 223.326381 
L 294.714525 224.569524 
L 295.440497 218.329216 
L 296.166468 222.753964 
L 296.89244 229.50487 
L 297.618412 261.95321 
L 298.344383 246.79557 
L 299.070355 228.141266 
L 299.796327 241.502263 
L 300.522299 189.219994 
L 301.24827 249.246295 
L 301.974242 247.840065 
L 302.700214 241.60419 
L 303.426185 246.348849 
L 304.152157 242.820135 
L 304.878129 246.495378 
L 305.604101 210.577434 
L 306.330072 248.229489 
L 307.056044 212.435396 
L 307.782016 225.179415 
L 308.507987 232.241055 
L 309.233959 235.557234 
L 310.685902 243.509508 
L 311.411874 231.082174 
L 312.137846 250.308309 
L 312.863818 230.179614 
L 313.589789 241.873999 
L 314.315761 238.770995 
L 315.041733 236.798502 
L 315.767704 254.307428 
L 316.493676 232.119778 
L 317.219648 204.331077 
L 317.945619 254.34153 
L 318.671591 240.003167 
L 319.397563 239.55076 
L 320.123535 231.373975 
L 320.849506 248.331887 
L 321.575478 197.935689 
L 323.027421 227.599582 
L 323.753393 232.826896 
L 324.479365 242.045212 
L 325.205336 198.639969 
L 326.65728 211.107295 
L 327.383252 226.968405 
L 328.109223 207.142192 
L 328.835195 245.506724 
L 329.561167 200.778537 
L 330.287138 228.829802 
L 331.01311 235.998889 
L 331.739082 227.056284 
L 332.465054 237.293914 
L 333.191025 225.028359 
L 333.916997 223.62188 
L 334.642969 227.119115 
L 335.36894 227.0317 
L 336.094912 230.109114 
L 336.820884 227.966154 
L 337.546855 229.711948 
L 338.272827 229.643772 
L 338.998799 234.681849 
L 339.724771 233.437171 
L 340.450742 227.734061 
L 341.176714 220.956165 
L 341.902686 233.936571 
L 342.628657 230.249187 
L 343.354629 212.360599 
L 344.080601 245.611431 
L 344.806572 224.884965 
L 345.532544 214.389736 
L 346.258516 230.819785 
L 346.984488 204.544482 
L 347.710459 227.795116 
L 348.436431 203.978683 
L 349.162403 226.333027 
L 349.888374 213.312607 
L 350.614346 222.612233 
L 352.066289 220.332913 
L 352.792261 219.488205 
L 353.518233 222.536396 
L 354.244205 229.577846 
L 354.970176 219.001209 
L 355.696148 220.852401 
L 356.42212 226.914226 
L 357.148091 225.600525 
L 357.874063 222.172292 
L 358.600035 225.476477 
L 359.326007 218.464484 
L 360.051978 224.334419 
L 360.77795 226.785569 
L 361.503922 207.249903 
L 362.229893 204.907698 
L 362.955865 239.078273 
L 363.681837 217.582962 
L 364.407808 210.168999 
L 365.13378 213.874561 
L 365.859752 220.786922 
L 366.585724 218.482584 
L 367.311695 220.623925 
L 368.037667 219.903438 
L 368.763639 202.84233 
L 369.48961 214.714793 
L 370.215582 199.547833 
L 370.941554 211.401418 
L 371.667525 212.344552 
L 372.393497 206.994326 
L 373.119469 230.069686 
L 373.845441 231.731813 
L 374.571412 210.36646 
L 375.297384 212.678665 
L 376.023356 225.527274 
L 376.749327 230.960171 
L 377.475299 223.00019 
L 378.201271 209.682854 
L 378.927242 224.89905 
L 379.653214 219.760233 
L 380.379186 230.066023 
L 381.105158 224.057206 
L 381.831129 219.571713 
L 382.557101 229.891495 
L 383.283073 220.522321 
L 384.009044 216.584844 
L 384.735016 223.85671 
L 385.460988 217.605589 
L 386.18696 224.966926 
L 386.912931 221.426004 
L 387.638903 224.442458 
L 388.364875 223.370482 
L 389.090846 228.736848 
L 389.816818 222.368974 
L 390.54279 218.259384 
L 391.268761 225.82621 
L 391.994733 224.165322 
L 392.720705 220.524431 
L 393.446677 224.653675 
L 394.172648 226.595167 
L 394.89862 212.503286 
L 395.624592 213.294956 
L 396.350563 222.387378 
L 397.076535 224.746424 
L 397.802507 225.619908 
L 398.528478 234.120725 
L 399.25445 235.928488 
L 399.980422 232.599376 
L 400.706394 234.532034 
L 401.432365 231.368276 
L 402.158337 220.847609 
L 402.884309 235.664346 
L 403.61028 239.974737 
L 404.336252 235.142915 
L 405.062224 241.608468 
L 405.788195 238.080818 
L 406.514167 243.100394 
L 407.240139 241.83295 
L 407.966111 238.361847 
L 408.692082 225.505518 
L 409.418054 242.013258 
L 410.144026 229.630795 
L 410.869997 239.912864 
L 411.595969 238.849373 
L 412.321941 231.578248 
L 413.047913 241.121513 
L 413.773884 240.401573 
L 414.499856 237.298542 
L 415.225828 240.168882 
L 415.951799 241.265083 
L 416.677771 232.514233 
L 417.403743 239.472079 
L 418.129714 237.65881 
L 418.855686 229.622273 
L 419.581658 241.290349 
L 420.30763 237.78926 
L 421.033601 240.434474 
L 421.759573 228.675365 
L 422.485545 232.295416 
L 423.211516 229.338695 
L 423.937488 230.388648 
L 424.66346 231.919262 
L 425.389431 235.872499 
L 426.115403 232.478824 
L 426.841375 233.108827 
L 427.567347 231.726588 
L 428.293318 235.023204 
L 429.01929 232.358914 
L 429.745262 234.403654 
L 430.471233 231.974715 
L 431.197205 236.163586 
L 431.923177 235.097692 
L 432.649148 235.202279 
L 433.37512 229.754551 
L 434.101092 229.857637 
L 434.827064 230.234089 
L 435.553035 233.678154 
L 436.279007 230.999832 
L 437.004979 233.804031 
L 437.73095 232.221313 
L 438.456922 235.478151 
L 439.182894 232.326445 
L 439.908866 232.182574 
L 441.360809 230.781986 
L 442.086781 235.21009 
L 442.812752 231.101776 
L 443.538724 234.874927 
L 444.264696 232.398003 
L 444.990667 235.959138 
L 445.716639 229.47496 
L 446.442611 234.773667 
L 447.894554 229.63627 
L 448.620526 229.618476 
L 449.346498 228.315944 
L 450.072469 230.905696 
L 450.798441 229.789188 
L 451.524413 230.215049 
L 452.250384 232.047101 
L 452.976356 227.476847 
L 453.702328 231.035354 
L 454.4283 231.084031 
L 455.154271 231.522582 
L 455.880243 228.941946 
L 456.606215 228.492641 
L 457.332186 232.548726 
L 458.058158 231.46813 
L 458.78413 227.827483 
L 459.510101 229.141756 
L 460.236073 228.504046 
L 460.962045 229.913219 
L 461.688017 231.008418 
L 462.413988 227.574419 
L 463.13996 227.750737 
L 463.865932 226.836137 
L 464.591903 225.625034 
L 464.591903 225.625034 
" style="fill:none;stroke:#2ca02c;stroke-linecap:square;stroke-width:1.5;"/>
   </g>
   <g id="line2d_4">
    <path clip-path="url(#p3c08f78f6e)" d="M 58.773722 230.657326 
L 464.591903 230.657326 
L 464.591903 230.657326 
" style="fill:none;stroke:#000000;stroke-dasharray:3.7,1.6;stroke-dashoffset:0;"/>
   </g>
   <g id="matplotlib.axis_1">
    <g id="xtick_1">
     <g id="line2d_5">
      <defs>
       <path d="M 0 0 
L 0 3.5 
" id="m8c61c8ce16" style="stroke:#000000;stroke-width:0.8;"/>
      </defs>
      <g>
       <use style="stroke:#000000;stroke-width:0.8;" x="79.826901" xlink:href="#m8c61c8ce16" y="293.90625"/>
      </g>
     </g>
     <g id="text_1">
      <!-- 100 -->
      <defs>
       <path d="M 12.40625 8.296875 
L 28.515625 8.296875 
L 28.515625 63.921875 
L 10.984375 60.40625 
L 10.984375 69.390625 
L 28.421875 72.90625 
L 38.28125 72.90625 
L 38.28125 8.296875 
L 54.390625 8.296875 
L 54.390625 0 
L 12.40625 0 
z
" id="DejaVuSans-49"/>
       <path d="M 31.78125 66.40625 
Q 24.171875 66.40625 20.328125 58.90625 
Q 16.5 51.421875 16.5 36.375 
Q 16.5 21.390625 20.328125 13.890625 
Q 24.171875 6.390625 31.78125 6.390625 
Q 39.453125 6.390625 43.28125 13.890625 
Q 47.125 21.390625 47.125 36.375 
Q 47.125 51.421875 43.28125 58.90625 
Q 39.453125 66.40625 31.78125 66.40625 
z
M 31.78125 74.21875 
Q 44.046875 74.21875 50.515625 64.515625 
Q 56.984375 54.828125 56.984375 36.375 
Q 56.984375 17.96875 50.515625 8.265625 
Q 44.046875 -1.421875 31.78125 -1.421875 
Q 19.53125 -1.421875 13.0625 8.265625 
Q 6.59375 17.96875 6.59375 36.375 
Q 6.59375 54.828125 13.0625 64.515625 
Q 19.53125 74.21875 31.78125 74.21875 
z
" id="DejaVuSans-48"/>
      </defs>
      <g transform="translate(70.283151 308.504687)scale(0.1 -0.1)">
       <use xlink:href="#DejaVuSans-49"/>
       <use x="63.623047" xlink:href="#DejaVuSans-48"/>
       <use x="127.246094" xlink:href="#DejaVuSans-48"/>
      </g>
     </g>
    </g>
    <g id="xtick_2">
     <g id="line2d_6">
      <g>
       <use style="stroke:#000000;stroke-width:0.8;" x="152.424071" xlink:href="#m8c61c8ce16" y="293.90625"/>
      </g>
     </g>
     <g id="text_2">
      <!-- 200 -->
      <defs>
       <path d="M 19.1875 8.296875 
L 53.609375 8.296875 
L 53.609375 0 
L 7.328125 0 
L 7.328125 8.296875 
Q 12.9375 14.109375 22.625 23.890625 
Q 32.328125 33.6875 34.8125 36.53125 
Q 39.546875 41.84375 41.421875 45.53125 
Q 43.3125 49.21875 43.3125 52.78125 
Q 43.3125 58.59375 39.234375 62.25 
Q 35.15625 65.921875 28.609375 65.921875 
Q 23.96875 65.921875 18.8125 64.3125 
Q 13.671875 62.703125 7.8125 59.421875 
L 7.8125 69.390625 
Q 13.765625 71.78125 18.9375 73 
Q 24.125 74.21875 28.421875 74.21875 
Q 39.75 74.21875 46.484375 68.546875 
Q 53.21875 62.890625 53.21875 53.421875 
Q 53.21875 48.921875 51.53125 44.890625 
Q 49.859375 40.875 45.40625 35.40625 
Q 44.1875 33.984375 37.640625 27.21875 
Q 31.109375 20.453125 19.1875 8.296875 
z
" id="DejaVuSans-50"/>
      </defs>
      <g transform="translate(142.880321 308.504687)scale(0.1 -0.1)">
       <use xlink:href="#DejaVuSans-50"/>
       <use x="63.623047" xlink:href="#DejaVuSans-48"/>
       <use x="127.246094" xlink:href="#DejaVuSans-48"/>
      </g>
     </g>
    </g>
    <g id="xtick_3">
     <g id="line2d_7">
      <g>
       <use style="stroke:#000000;stroke-width:0.8;" x="225.021242" xlink:href="#m8c61c8ce16" y="293.90625"/>
      </g>
     </g>
     <g id="text_3">
      <!-- 300 -->
      <defs>
       <path d="M 40.578125 39.3125 
Q 47.65625 37.796875 51.625 33 
Q 55.609375 28.21875 55.609375 21.1875 
Q 55.609375 10.40625 48.1875 4.484375 
Q 40.765625 -1.421875 27.09375 -1.421875 
Q 22.515625 -1.421875 17.65625 -0.515625 
Q 12.796875 0.390625 7.625 2.203125 
L 7.625 11.71875 
Q 11.71875 9.328125 16.59375 8.109375 
Q 21.484375 6.890625 26.8125 6.890625 
Q 36.078125 6.890625 40.9375 10.546875 
Q 45.796875 14.203125 45.796875 21.1875 
Q 45.796875 27.640625 41.28125 31.265625 
Q 36.765625 34.90625 28.71875 34.90625 
L 20.21875 34.90625 
L 20.21875 43.015625 
L 29.109375 43.015625 
Q 36.375 43.015625 40.234375 45.921875 
Q 44.09375 48.828125 44.09375 54.296875 
Q 44.09375 59.90625 40.109375 62.90625 
Q 36.140625 65.921875 28.71875 65.921875 
Q 24.65625 65.921875 20.015625 65.03125 
Q 15.375 64.15625 9.8125 62.3125 
L 9.8125 71.09375 
Q 15.4375 72.65625 20.34375 73.4375 
Q 25.25 74.21875 29.59375 74.21875 
Q 40.828125 74.21875 47.359375 69.109375 
Q 53.90625 64.015625 53.90625 55.328125 
Q 53.90625 49.265625 50.4375 45.09375 
Q 46.96875 40.921875 40.578125 39.3125 
z
" id="DejaVuSans-51"/>
      </defs>
      <g transform="translate(215.477492 308.504687)scale(0.1 -0.1)">
       <use xlink:href="#DejaVuSans-51"/>
       <use x="63.623047" xlink:href="#DejaVuSans-48"/>
       <use x="127.246094" xlink:href="#DejaVuSans-48"/>
      </g>
     </g>
    </g>
    <g id="xtick_4">
     <g id="line2d_8">
      <g>
       <use style="stroke:#000000;stroke-width:0.8;" x="297.618412" xlink:href="#m8c61c8ce16" y="293.90625"/>
      </g>
     </g>
     <g id="text_4">
      <!-- 400 -->
      <defs>
       <path d="M 37.796875 64.3125 
L 12.890625 25.390625 
L 37.796875 25.390625 
z
M 35.203125 72.90625 
L 47.609375 72.90625 
L 47.609375 25.390625 
L 58.015625 25.390625 
L 58.015625 17.1875 
L 47.609375 17.1875 
L 47.609375 0 
L 37.796875 0 
L 37.796875 17.1875 
L 4.890625 17.1875 
L 4.890625 26.703125 
z
" id="DejaVuSans-52"/>
      </defs>
      <g transform="translate(288.074662 308.504687)scale(0.1 -0.1)">
       <use xlink:href="#DejaVuSans-52"/>
       <use x="63.623047" xlink:href="#DejaVuSans-48"/>
       <use x="127.246094" xlink:href="#DejaVuSans-48"/>
      </g>
     </g>
    </g>
    <g id="xtick_5">
     <g id="line2d_9">
      <g>
       <use style="stroke:#000000;stroke-width:0.8;" x="370.215582" xlink:href="#m8c61c8ce16" y="293.90625"/>
      </g>
     </g>
     <g id="text_5">
      <!-- 500 -->
      <defs>
       <path d="M 10.796875 72.90625 
L 49.515625 72.90625 
L 49.515625 64.59375 
L 19.828125 64.59375 
L 19.828125 46.734375 
Q 21.96875 47.46875 24.109375 47.828125 
Q 26.265625 48.1875 28.421875 48.1875 
Q 40.625 48.1875 47.75 41.5 
Q 54.890625 34.8125 54.890625 23.390625 
Q 54.890625 11.625 47.5625 5.09375 
Q 40.234375 -1.421875 26.90625 -1.421875 
Q 22.3125 -1.421875 17.546875 -0.640625 
Q 12.796875 0.140625 7.71875 1.703125 
L 7.71875 11.625 
Q 12.109375 9.234375 16.796875 8.0625 
Q 21.484375 6.890625 26.703125 6.890625 
Q 35.15625 6.890625 40.078125 11.328125 
Q 45.015625 15.765625 45.015625 23.390625 
Q 45.015625 31 40.078125 35.4375 
Q 35.15625 39.890625 26.703125 39.890625 
Q 22.75 39.890625 18.8125 39.015625 
Q 14.890625 38.140625 10.796875 36.28125 
z
" id="DejaVuSans-53"/>
      </defs>
      <g transform="translate(360.671832 308.504687)scale(0.1 -0.1)">
       <use xlink:href="#DejaVuSans-53"/>
       <use x="63.623047" xlink:href="#DejaVuSans-48"/>
       <use x="127.246094" xlink:href="#DejaVuSans-48"/>
      </g>
     </g>
    </g>
    <g id="xtick_6">
     <g id="line2d_10">
      <g>
       <use style="stroke:#000000;stroke-width:0.8;" x="442.812752" xlink:href="#m8c61c8ce16" y="293.90625"/>
      </g>
     </g>
     <g id="text_6">
      <!-- 600 -->
      <defs>
       <path d="M 33.015625 40.375 
Q 26.375 40.375 22.484375 35.828125 
Q 18.609375 31.296875 18.609375 23.390625 
Q 18.609375 15.53125 22.484375 10.953125 
Q 26.375 6.390625 33.015625 6.390625 
Q 39.65625 6.390625 43.53125 10.953125 
Q 47.40625 15.53125 47.40625 23.390625 
Q 47.40625 31.296875 43.53125 35.828125 
Q 39.65625 40.375 33.015625 40.375 
z
M 52.59375 71.296875 
L 52.59375 62.3125 
Q 48.875 64.0625 45.09375 64.984375 
Q 41.3125 65.921875 37.59375 65.921875 
Q 27.828125 65.921875 22.671875 59.328125 
Q 17.53125 52.734375 16.796875 39.40625 
Q 19.671875 43.65625 24.015625 45.921875 
Q 28.375 48.1875 33.59375 48.1875 
Q 44.578125 48.1875 50.953125 41.515625 
Q 57.328125 34.859375 57.328125 23.390625 
Q 57.328125 12.15625 50.6875 5.359375 
Q 44.046875 -1.421875 33.015625 -1.421875 
Q 20.359375 -1.421875 13.671875 8.265625 
Q 6.984375 17.96875 6.984375 36.375 
Q 6.984375 53.65625 15.1875 63.9375 
Q 23.390625 74.21875 37.203125 74.21875 
Q 40.921875 74.21875 44.703125 73.484375 
Q 48.484375 72.75 52.59375 71.296875 
z
" id="DejaVuSans-54"/>
      </defs>
      <g transform="translate(433.269002 308.504687)scale(0.1 -0.1)">
       <use xlink:href="#DejaVuSans-54"/>
       <use x="63.623047" xlink:href="#DejaVuSans-48"/>
       <use x="127.246094" xlink:href="#DejaVuSans-48"/>
      </g>
     </g>
    </g>
    <g id="text_7">
     <!-- Tempo -->
     <defs>
      <path d="M -0.296875 72.90625 
L 61.375 72.90625 
L 61.375 64.59375 
L 35.5 64.59375 
L 35.5 0 
L 25.59375 0 
L 25.59375 64.59375 
L -0.296875 64.59375 
z
" id="DejaVuSans-84"/>
      <path d="M 56.203125 29.59375 
L 56.203125 25.203125 
L 14.890625 25.203125 
Q 15.484375 15.921875 20.484375 11.0625 
Q 25.484375 6.203125 34.421875 6.203125 
Q 39.59375 6.203125 44.453125 7.46875 
Q 49.3125 8.734375 54.109375 11.28125 
L 54.109375 2.78125 
Q 49.265625 0.734375 44.1875 -0.34375 
Q 39.109375 -1.421875 33.890625 -1.421875 
Q 20.796875 -1.421875 13.15625 6.1875 
Q 5.515625 13.8125 5.515625 26.8125 
Q 5.515625 40.234375 12.765625 48.109375 
Q 20.015625 56 32.328125 56 
Q 43.359375 56 49.78125 48.890625 
Q 56.203125 41.796875 56.203125 29.59375 
z
M 47.21875 32.234375 
Q 47.125 39.59375 43.09375 43.984375 
Q 39.0625 48.390625 32.421875 48.390625 
Q 24.90625 48.390625 20.390625 44.140625 
Q 15.875 39.890625 15.1875 32.171875 
z
" id="DejaVuSans-101"/>
      <path d="M 52 44.1875 
Q 55.375 50.25 60.0625 53.125 
Q 64.75 56 71.09375 56 
Q 79.640625 56 84.28125 50.015625 
Q 88.921875 44.046875 88.921875 33.015625 
L 88.921875 0 
L 79.890625 0 
L 79.890625 32.71875 
Q 79.890625 40.578125 77.09375 44.375 
Q 74.3125 48.1875 68.609375 48.1875 
Q 61.625 48.1875 57.5625 43.546875 
Q 53.515625 38.921875 53.515625 30.90625 
L 53.515625 0 
L 44.484375 0 
L 44.484375 32.71875 
Q 44.484375 40.625 41.703125 44.40625 
Q 38.921875 48.1875 33.109375 48.1875 
Q 26.21875 48.1875 22.15625 43.53125 
Q 18.109375 38.875 18.109375 30.90625 
L 18.109375 0 
L 9.078125 0 
L 9.078125 54.6875 
L 18.109375 54.6875 
L 18.109375 46.1875 
Q 21.1875 51.21875 25.484375 53.609375 
Q 29.78125 56 35.6875 56 
Q 41.65625 56 45.828125 52.96875 
Q 50 49.953125 52 44.1875 
z
" id="DejaVuSans-109"/>
      <path d="M 18.109375 8.203125 
L 18.109375 -20.796875 
L 9.078125 -20.796875 
L 9.078125 54.6875 
L 18.109375 54.6875 
L 18.109375 46.390625 
Q 20.953125 51.265625 25.265625 53.625 
Q 29.59375 56 35.59375 56 
Q 45.5625 56 51.78125 48.09375 
Q 58.015625 40.1875 58.015625 27.296875 
Q 58.015625 14.40625 51.78125 6.484375 
Q 45.5625 -1.421875 35.59375 -1.421875 
Q 29.59375 -1.421875 25.265625 0.953125 
Q 20.953125 3.328125 18.109375 8.203125 
z
M 48.6875 27.296875 
Q 48.6875 37.203125 44.609375 42.84375 
Q 40.53125 48.484375 33.40625 48.484375 
Q 26.265625 48.484375 22.1875 42.84375 
Q 18.109375 37.203125 18.109375 27.296875 
Q 18.109375 17.390625 22.1875 11.75 
Q 26.265625 6.109375 33.40625 6.109375 
Q 40.53125 6.109375 44.609375 11.75 
Q 48.6875 17.390625 48.6875 27.296875 
z
" id="DejaVuSans-112"/>
      <path d="M 30.609375 48.390625 
Q 23.390625 48.390625 19.1875 42.75 
Q 14.984375 37.109375 14.984375 27.296875 
Q 14.984375 17.484375 19.15625 11.84375 
Q 23.34375 6.203125 30.609375 6.203125 
Q 37.796875 6.203125 41.984375 11.859375 
Q 46.1875 17.53125 46.1875 27.296875 
Q 46.1875 37.015625 41.984375 42.703125 
Q 37.796875 48.390625 30.609375 48.390625 
z
M 30.609375 56 
Q 42.328125 56 49.015625 48.375 
Q 55.71875 40.765625 55.71875 27.296875 
Q 55.71875 13.875 49.015625 6.21875 
Q 42.328125 -1.421875 30.609375 -1.421875 
Q 18.84375 -1.421875 12.171875 6.21875 
Q 5.515625 13.875 5.515625 27.296875 
Q 5.515625 40.765625 12.171875 48.375 
Q 18.84375 56 30.609375 56 
z
" id="DejaVuSans-111"/>
     </defs>
     <g transform="translate(245.298438 322.182812)scale(0.1 -0.1)">
      <use xlink:href="#DejaVuSans-84"/>
      <use x="44.083984" xlink:href="#DejaVuSans-101"/>
      <use x="105.607422" xlink:href="#DejaVuSans-109"/>
      <use x="203.019531" xlink:href="#DejaVuSans-112"/>
      <use x="266.496094" xlink:href="#DejaVuSans-111"/>
     </g>
    </g>
   </g>
   <g id="matplotlib.axis_2">
    <g id="ytick_1">
     <g id="line2d_11">
      <defs>
       <path d="M 0 0 
L -3.5 0 
" id="mb01b00960e" style="stroke:#000000;stroke-width:0.8;"/>
      </defs>
      <g>
       <use style="stroke:#000000;stroke-width:0.8;" x="38.482813" xlink:href="#mb01b00960e" y="270.143208"/>
      </g>
     </g>
     <g id="text_8">
      <!-- 0.5 -->
      <defs>
       <path d="M 10.59375 35.5 
L 73.1875 35.5 
L 73.1875 27.203125 
L 10.59375 27.203125 
z
" id="DejaVuSans-8722"/>
       <path d="M 10.6875 12.40625 
L 21 12.40625 
L 21 0 
L 10.6875 0 
z
" id="DejaVuSans-46"/>
      </defs>
      <g transform="translate(7.2 273.942427)scale(0.1 -0.1)">
       <use xlink:href="#DejaVuSans-8722"/>
       <use x="83.789062" xlink:href="#DejaVuSans-48"/>
       <use x="147.412109" xlink:href="#DejaVuSans-46"/>
       <use x="179.199219" xlink:href="#DejaVuSans-53"/>
      </g>
     </g>
    </g>
    <g id="ytick_2">
     <g id="line2d_12">
      <g>
       <use style="stroke:#000000;stroke-width:0.8;" x="38.482813" xlink:href="#mb01b00960e" y="230.657326"/>
      </g>
     </g>
     <g id="text_9">
      <!-- 0.0 -->
      <g transform="translate(15.579688 234.456545)scale(0.1 -0.1)">
       <use xlink:href="#DejaVuSans-48"/>
       <use x="63.623047" xlink:href="#DejaVuSans-46"/>
       <use x="95.410156" xlink:href="#DejaVuSans-48"/>
      </g>
     </g>
    </g>
    <g id="ytick_3">
     <g id="line2d_13">
      <g>
       <use style="stroke:#000000;stroke-width:0.8;" x="38.482813" xlink:href="#mb01b00960e" y="191.171445"/>
      </g>
     </g>
     <g id="text_10">
      <!-- 0.5 -->
      <g transform="translate(15.579688 194.970663)scale(0.1 -0.1)">
       <use xlink:href="#DejaVuSans-48"/>
       <use x="63.623047" xlink:href="#DejaVuSans-46"/>
       <use x="95.410156" xlink:href="#DejaVuSans-53"/>
      </g>
     </g>
    </g>
    <g id="ytick_4">
     <g id="line2d_14">
      <g>
       <use style="stroke:#000000;stroke-width:0.8;" x="38.482813" xlink:href="#mb01b00960e" y="151.685563"/>
      </g>
     </g>
     <g id="text_11">
      <!-- 1.0 -->
      <g transform="translate(15.579688 155.484782)scale(0.1 -0.1)">
       <use xlink:href="#DejaVuSans-49"/>
       <use x="63.623047" xlink:href="#DejaVuSans-46"/>
       <use x="95.410156" xlink:href="#DejaVuSans-48"/>
      </g>
     </g>
    </g>
    <g id="ytick_5">
     <g id="line2d_15">
      <g>
       <use style="stroke:#000000;stroke-width:0.8;" x="38.482813" xlink:href="#mb01b00960e" y="112.199681"/>
      </g>
     </g>
     <g id="text_12">
      <!-- 1.5 -->
      <g transform="translate(15.579688 115.9989)scale(0.1 -0.1)">
       <use xlink:href="#DejaVuSans-49"/>
       <use x="63.623047" xlink:href="#DejaVuSans-46"/>
       <use x="95.410156" xlink:href="#DejaVuSans-53"/>
      </g>
     </g>
    </g>
    <g id="ytick_6">
     <g id="line2d_16">
      <g>
       <use style="stroke:#000000;stroke-width:0.8;" x="38.482813" xlink:href="#mb01b00960e" y="72.7138"/>
      </g>
     </g>
     <g id="text_13">
      <!-- 2.0 -->
      <g transform="translate(15.579688 76.513018)scale(0.1 -0.1)">
       <use xlink:href="#DejaVuSans-50"/>
       <use x="63.623047" xlink:href="#DejaVuSans-46"/>
       <use x="95.410156" xlink:href="#DejaVuSans-48"/>
      </g>
     </g>
    </g>
    <g id="ytick_7">
     <g id="line2d_17">
      <g>
       <use style="stroke:#000000;stroke-width:0.8;" x="38.482813" xlink:href="#mb01b00960e" y="33.227918"/>
      </g>
     </g>
     <g id="text_14">
      <!-- 2.5 -->
      <g transform="translate(15.579688 37.027137)scale(0.1 -0.1)">
       <use xlink:href="#DejaVuSans-50"/>
       <use x="63.623047" xlink:href="#DejaVuSans-46"/>
       <use x="95.410156" xlink:href="#DejaVuSans-53"/>
      </g>
     </g>
    </g>
   </g>
   <g id="patch_3">
    <path d="M 38.482813 293.90625 
L 38.482813 22.10625 
" style="fill:none;stroke:#000000;stroke-linecap:square;stroke-linejoin:miter;stroke-width:0.8;"/>
   </g>
   <g id="patch_4">
    <path d="M 38.482813 293.90625 
L 484.882812 293.90625 
" style="fill:none;stroke:#000000;stroke-linecap:square;stroke-linejoin:miter;stroke-width:0.8;"/>
   </g>
   <g id="text_15">
    <!-- Z_Q -->
    <defs>
     <path d="M 5.609375 72.90625 
L 62.890625 72.90625 
L 62.890625 65.375 
L 16.796875 8.296875 
L 64.015625 8.296875 
L 64.015625 0 
L 4.5 0 
L 4.5 7.515625 
L 50.59375 64.59375 
L 5.609375 64.59375 
z
" id="DejaVuSans-90"/>
     <path d="M 50.984375 -16.609375 
L 50.984375 -23.578125 
L -0.984375 -23.578125 
L -0.984375 -16.609375 
z
" id="DejaVuSans-95"/>
     <path d="M 39.40625 66.21875 
Q 28.65625 66.21875 22.328125 58.203125 
Q 16.015625 50.203125 16.015625 36.375 
Q 16.015625 22.609375 22.328125 14.59375 
Q 28.65625 6.59375 39.40625 6.59375 
Q 50.140625 6.59375 56.421875 14.59375 
Q 62.703125 22.609375 62.703125 36.375 
Q 62.703125 50.203125 56.421875 58.203125 
Q 50.140625 66.21875 39.40625 66.21875 
z
M 53.21875 1.3125 
L 66.21875 -12.890625 
L 54.296875 -12.890625 
L 43.5 -1.21875 
Q 41.890625 -1.3125 41.03125 -1.359375 
Q 40.1875 -1.421875 39.40625 -1.421875 
Q 24.03125 -1.421875 14.8125 8.859375 
Q 5.609375 19.140625 5.609375 36.375 
Q 5.609375 53.65625 14.8125 63.9375 
Q 24.03125 74.21875 39.40625 74.21875 
Q 54.734375 74.21875 63.90625 63.9375 
Q 73.09375 53.65625 73.09375 36.375 
Q 73.09375 23.6875 67.984375 14.640625 
Q 62.890625 5.609375 53.21875 1.3125 
z
" id="DejaVuSans-81"/>
    </defs>
    <g transform="translate(249.849688 16.10625)scale(0.12 -0.12)">
     <use xlink:href="#DejaVuSans-90"/>
     <use x="68.505859" xlink:href="#DejaVuSans-95"/>
     <use x="118.505859" xlink:href="#DejaVuSans-81"/>
    </g>
   </g>
   <g id="legend_1">
    <g id="patch_5">
     <path d="M 491.882812 189.892969 
L 566.28125 189.892969 
Q 568.28125 189.892969 568.28125 187.892969 
L 568.28125 128.119531 
Q 568.28125 126.119531 566.28125 126.119531 
L 491.882812 126.119531 
Q 489.882812 126.119531 489.882812 128.119531 
L 489.882812 187.892969 
Q 489.882812 189.892969 491.882812 189.892969 
z
" style="fill:#ffffff;opacity:0.8;stroke:#cccccc;stroke-linejoin:miter;"/>
    </g>
    <g id="line2d_18">
     <path d="M 493.882812 134.217969 
L 513.882812 134.217969 
" style="fill:none;stroke:#000000;stroke-dasharray:3.7,1.6;stroke-dashoffset:0;"/>
    </g>
    <g id="line2d_19"/>
    <g id="text_16">
     <!-- Baseline -->
     <defs>
      <path d="M 19.671875 34.8125 
L 19.671875 8.109375 
L 35.5 8.109375 
Q 43.453125 8.109375 47.28125 11.40625 
Q 51.125 14.703125 51.125 21.484375 
Q 51.125 28.328125 47.28125 31.5625 
Q 43.453125 34.8125 35.5 34.8125 
z
M 19.671875 64.796875 
L 19.671875 42.828125 
L 34.28125 42.828125 
Q 41.5 42.828125 45.03125 45.53125 
Q 48.578125 48.25 48.578125 53.8125 
Q 48.578125 59.328125 45.03125 62.0625 
Q 41.5 64.796875 34.28125 64.796875 
z
M 9.8125 72.90625 
L 35.015625 72.90625 
Q 46.296875 72.90625 52.390625 68.21875 
Q 58.5 63.53125 58.5 54.890625 
Q 58.5 48.1875 55.375 44.234375 
Q 52.25 40.28125 46.1875 39.3125 
Q 53.46875 37.75 57.5 32.78125 
Q 61.53125 27.828125 61.53125 20.40625 
Q 61.53125 10.640625 54.890625 5.3125 
Q 48.25 0 35.984375 0 
L 9.8125 0 
z
" id="DejaVuSans-66"/>
      <path d="M 34.28125 27.484375 
Q 23.390625 27.484375 19.1875 25 
Q 14.984375 22.515625 14.984375 16.5 
Q 14.984375 11.71875 18.140625 8.90625 
Q 21.296875 6.109375 26.703125 6.109375 
Q 34.1875 6.109375 38.703125 11.40625 
Q 43.21875 16.703125 43.21875 25.484375 
L 43.21875 27.484375 
z
M 52.203125 31.203125 
L 52.203125 0 
L 43.21875 0 
L 43.21875 8.296875 
Q 40.140625 3.328125 35.546875 0.953125 
Q 30.953125 -1.421875 24.3125 -1.421875 
Q 15.921875 -1.421875 10.953125 3.296875 
Q 6 8.015625 6 15.921875 
Q 6 25.140625 12.171875 29.828125 
Q 18.359375 34.515625 30.609375 34.515625 
L 43.21875 34.515625 
L 43.21875 35.40625 
Q 43.21875 41.609375 39.140625 45 
Q 35.0625 48.390625 27.6875 48.390625 
Q 23 48.390625 18.546875 47.265625 
Q 14.109375 46.140625 10.015625 43.890625 
L 10.015625 52.203125 
Q 14.9375 54.109375 19.578125 55.046875 
Q 24.21875 56 28.609375 56 
Q 40.484375 56 46.34375 49.84375 
Q 52.203125 43.703125 52.203125 31.203125 
z
" id="DejaVuSans-97"/>
      <path d="M 44.28125 53.078125 
L 44.28125 44.578125 
Q 40.484375 46.53125 36.375 47.5 
Q 32.28125 48.484375 27.875 48.484375 
Q 21.1875 48.484375 17.84375 46.4375 
Q 14.5 44.390625 14.5 40.28125 
Q 14.5 37.15625 16.890625 35.375 
Q 19.28125 33.59375 26.515625 31.984375 
L 29.59375 31.296875 
Q 39.15625 29.25 43.1875 25.515625 
Q 47.21875 21.78125 47.21875 15.09375 
Q 47.21875 7.46875 41.1875 3.015625 
Q 35.15625 -1.421875 24.609375 -1.421875 
Q 20.21875 -1.421875 15.453125 -0.5625 
Q 10.6875 0.296875 5.421875 2 
L 5.421875 11.28125 
Q 10.40625 8.6875 15.234375 7.390625 
Q 20.0625 6.109375 24.8125 6.109375 
Q 31.15625 6.109375 34.5625 8.28125 
Q 37.984375 10.453125 37.984375 14.40625 
Q 37.984375 18.0625 35.515625 20.015625 
Q 33.0625 21.96875 24.703125 23.78125 
L 21.578125 24.515625 
Q 13.234375 26.265625 9.515625 29.90625 
Q 5.8125 33.546875 5.8125 39.890625 
Q 5.8125 47.609375 11.28125 51.796875 
Q 16.75 56 26.8125 56 
Q 31.78125 56 36.171875 55.265625 
Q 40.578125 54.546875 44.28125 53.078125 
z
" id="DejaVuSans-115"/>
      <path d="M 9.421875 75.984375 
L 18.40625 75.984375 
L 18.40625 0 
L 9.421875 0 
z
" id="DejaVuSans-108"/>
      <path d="M 9.421875 54.6875 
L 18.40625 54.6875 
L 18.40625 0 
L 9.421875 0 
z
M 9.421875 75.984375 
L 18.40625 75.984375 
L 18.40625 64.59375 
L 9.421875 64.59375 
z
" id="DejaVuSans-105"/>
      <path d="M 54.890625 33.015625 
L 54.890625 0 
L 45.90625 0 
L 45.90625 32.71875 
Q 45.90625 40.484375 42.875 44.328125 
Q 39.84375 48.1875 33.796875 48.1875 
Q 26.515625 48.1875 22.3125 43.546875 
Q 18.109375 38.921875 18.109375 30.90625 
L 18.109375 0 
L 9.078125 0 
L 9.078125 54.6875 
L 18.109375 54.6875 
L 18.109375 46.1875 
Q 21.34375 51.125 25.703125 53.5625 
Q 30.078125 56 35.796875 56 
Q 45.21875 56 50.046875 50.171875 
Q 54.890625 44.34375 54.890625 33.015625 
z
" id="DejaVuSans-110"/>
     </defs>
     <g transform="translate(521.882812 137.717969)scale(0.1 -0.1)">
      <use xlink:href="#DejaVuSans-66"/>
      <use x="68.603516" xlink:href="#DejaVuSans-97"/>
      <use x="129.882812" xlink:href="#DejaVuSans-115"/>
      <use x="181.982422" xlink:href="#DejaVuSans-101"/>
      <use x="243.505859" xlink:href="#DejaVuSans-108"/>
      <use x="271.289062" xlink:href="#DejaVuSans-105"/>
      <use x="299.072266" xlink:href="#DejaVuSans-110"/>
      <use x="362.451172" xlink:href="#DejaVuSans-101"/>
     </g>
    </g>
    <g id="line2d_20">
     <path d="M 493.882812 148.896094 
L 513.882812 148.896094 
" style="fill:none;stroke:#1f77b4;stroke-linecap:square;stroke-width:1.5;"/>
    </g>
    <g id="line2d_21"/>
    <g id="text_17">
     <!-- $\Downarrow \sigma_\psi$ -->
     <defs>
      <path d="M 36.765625 14.3125 
L 41.9375 9.234375 
L 47.015625 14.3125 
L 47.015625 72.90625 
L 52.875 72.90625 
L 52.875 20.171875 
L 57.46875 24.75 
L 63.328125 18.890625 
L 44.09375 -0.34375 
L 39.703125 -0.34375 
L 20.5625 18.890625 
L 26.421875 24.75 
L 30.90625 20.171875 
L 30.90625 72.90625 
L 36.765625 72.90625 
z
" id="DejaVuSans-8659"/>
      <path d="M 34.671875 47.5625 
Q 27.25 47.5625 22.21875 42.1875 
Q 16.890625 36.578125 15.140625 27.296875 
Q 13.1875 17.484375 16.3125 11.8125 
Q 19.390625 6.203125 26.65625 6.203125 
Q 33.84375 6.203125 39.109375 11.859375 
Q 44.4375 17.53125 46.34375 27.296875 
Q 48.046875 36.234375 45.015625 42.1875 
Q 42.1875 47.5625 34.671875 47.5625 
z
M 36.078125 54.734375 
L 65.921875 54.6875 
L 64.15625 45.703125 
L 54.109375 45.703125 
Q 57.90625 38.09375 55.859375 27.296875 
Q 53.21875 13.875 45.0625 6.25 
Q 36.859375 -1.421875 25.140625 -1.421875 
Q 13.375 -1.421875 8.203125 6.25 
Q 3.03125 13.875 5.671875 27.296875 
Q 8.25 40.765625 16.40625 48.390625 
Q 23.1875 54.734375 36.078125 54.734375 
z
" id="DejaVuSans-Oblique-963"/>
      <path d="M 24.859375 -1.21875 
Q 13.921875 0.59375 9.625 5.328125 
Q 4.34375 11.140625 6.640625 23 
L 12.796875 54.6875 
L 21.875 54.6875 
L 15.765625 23.34375 
Q 14.0625 14.40625 17.484375 10.6875 
Q 20.515625 7.46875 26.421875 6.78125 
L 35.6875 54.6875 
L 44.625 54.6875 
L 35.359375 6.84375 
Q 41.890625 7.515625 45.75 10.75 
Q 50.734375 14.84375 52.390625 23.390625 
L 58.453125 54.6875 
L 67.53125 54.6875 
L 61.375 23.046875 
Q 58.984375 10.75 51.5625 5.375 
Q 44.875 0.53125 33.796875 -1.171875 
L 29.984375 -20.796875 
L 21.046875 -20.796875 
z
" id="DejaVuSans-Oblique-968"/>
     </defs>
     <g transform="translate(521.882812 152.396094)scale(0.1 -0.1)">
      <use transform="translate(19.482422 0.09375)" xlink:href="#DejaVuSans-8659"/>
      <use transform="translate(122.753906 0.09375)" xlink:href="#DejaVuSans-Oblique-963"/>
      <use transform="translate(186.132812 -16.3125)scale(0.7)" xlink:href="#DejaVuSans-Oblique-968"/>
     </g>
    </g>
    <g id="line2d_22">
     <path d="M 493.882812 164.594531 
L 513.882812 164.594531 
" style="fill:none;stroke:#ff7f0e;stroke-linecap:square;stroke-width:1.5;"/>
    </g>
    <g id="line2d_23"/>
    <g id="text_18">
     <!-- $\Downarrow s_\psi$ -->
     <defs>
      <path d="M 50 53.078125 
L 48.296875 44.578125 
Q 44.734375 46.53125 40.765625 47.5 
Q 36.8125 48.484375 32.625 48.484375 
Q 25.53125 48.484375 21.453125 46.0625 
Q 17.390625 43.65625 17.390625 39.5 
Q 17.390625 34.671875 26.859375 32.078125 
Q 27.59375 31.890625 27.9375 31.78125 
L 30.8125 30.90625 
Q 39.796875 28.421875 42.796875 25.6875 
Q 45.796875 22.953125 45.796875 18.21875 
Q 45.796875 9.515625 38.890625 4.046875 
Q 31.984375 -1.421875 20.796875 -1.421875 
Q 16.453125 -1.421875 11.671875 -0.578125 
Q 6.890625 0.25 1.125 2 
L 2.875 11.28125 
Q 7.8125 8.734375 12.59375 7.421875 
Q 17.390625 6.109375 21.78125 6.109375 
Q 28.375 6.109375 32.5 8.9375 
Q 36.625 11.765625 36.625 16.109375 
Q 36.625 20.796875 25.78125 23.6875 
L 24.859375 23.921875 
L 21.78125 24.703125 
Q 14.9375 26.515625 11.765625 29.46875 
Q 8.59375 32.421875 8.59375 37.015625 
Q 8.59375 45.75 15.15625 50.875 
Q 21.734375 56 33.015625 56 
Q 37.453125 56 41.671875 55.265625 
Q 45.90625 54.546875 50 53.078125 
z
" id="DejaVuSans-Oblique-115"/>
     </defs>
     <g transform="translate(521.882812 168.094531)scale(0.1 -0.1)">
      <use transform="translate(19.482422 0.09375)" xlink:href="#DejaVuSans-8659"/>
      <use transform="translate(122.753906 0.09375)" xlink:href="#DejaVuSans-Oblique-115"/>
      <use transform="translate(174.853516 -16.3125)scale(0.7)" xlink:href="#DejaVuSans-Oblique-968"/>
     </g>
    </g>
    <g id="line2d_24">
     <path d="M 493.882812 180.292969 
L 513.882812 180.292969 
" style="fill:none;stroke:#2ca02c;stroke-linecap:square;stroke-width:1.5;"/>
    </g>
    <g id="line2d_25"/>
    <g id="text_19">
     <!-- $\Uparrow \eta$ -->
     <defs>
      <path d="M 36.765625 58.59375 
L 36.765625 0 
L 30.90625 0 
L 30.90625 52.734375 
L 26.421875 48.140625 
L 20.5625 54 
L 39.703125 73.25 
L 44.09375 73.25 
L 63.328125 54 
L 57.46875 48.140625 
L 52.875 52.734375 
L 52.875 0 
L 47.015625 0 
L 47.015625 58.59375 
L 41.9375 63.671875 
z
" id="DejaVuSans-8657"/>
      <path d="M 57.859375 33.015625 
L 47.40625 -20.796875 
L 38.421875 -20.796875 
L 48.828125 32.71875 
Q 50.34375 40.484375 48.046875 44.34375 
Q 45.796875 48.1875 39.75 48.1875 
Q 32.46875 48.1875 27.34375 43.5625 
Q 22.265625 38.921875 20.703125 30.90625 
L 14.703125 0 
L 5.671875 0 
L 16.3125 54.6875 
L 25.34375 54.6875 
L 23.6875 46.1875 
Q 27.828125 51.125 32.71875 53.5625 
Q 37.546875 56 43.265625 56 
Q 52.6875 56 56.390625 50.203125 
Q 60.0625 44.34375 57.859375 33.015625 
z
" id="DejaVuSans-Oblique-951"/>
     </defs>
     <g transform="translate(521.882812 183.792969)scale(0.1 -0.1)">
      <use transform="translate(19.482422 0.75)" xlink:href="#DejaVuSans-8657"/>
      <use transform="translate(122.753906 0.75)" xlink:href="#DejaVuSans-Oblique-951"/>
     </g>
    </g>
   </g>
  </g>
 </g>
 <defs>
  <clipPath id="p3c08f78f6e">
   <rect height="271.8" width="446.4" x="38.482813" y="22.10625"/>
  </clipPath>
 </defs>
</svg>
