<?xml version="1.0" encoding="utf-8" standalone="no"?>
<!DOCTYPE svg PUBLIC "-//W3C//DTD SVG 1.1//EN"
  "http://www.w3.org/Graphics/SVG/1.1/DTD/svg11.dtd">
<!-- Created with matplotlib (https://matplotlib.org/) -->
<svg height="331.340625pt" version="1.1" viewBox="0 0 583.010937 331.340625" width="583.010937pt" xmlns="http://www.w3.org/2000/svg" xmlns:xlink="http://www.w3.org/1999/xlink">
 <defs>
  <style type="text/css">
*{stroke-linecap:butt;stroke-linejoin:round;}
  </style>
 </defs>
 <g id="figure_1">
  <g id="patch_1">
   <path d="M 0 331.340625 
L 583.010937 331.340625 
L 583.010937 0 
L 0 0 
z
" style="fill:#ffffff;"/>
  </g>
  <g id="axes_1">
   <g id="patch_2">
    <path d="M 46.0125 293.784375 
L 492.4125 293.784375 
L 492.4125 21.984375 
L 46.0125 21.984375 
z
" style="fill:#ffffff;"/>
   </g>
   <g id="line2d_1">
    <path clip-path="url(#p8074db80a9)" d="M 66.303409 241.704418 
L 67.029381 242.110418 
L 67.755352 242.384837 
L 68.481324 240.596021 
L 69.207296 240.975045 
L 69.933268 241.164864 
L 73.563126 243.846134 
L 74.289098 242.230391 
L 75.741041 243.569091 
L 76.467013 244.047887 
L 77.192985 242.958422 
L 77.918956 242.439749 
L 78.644928 242.953481 
L 79.3709 241.50187 
L 80.096871 242.062186 
L 80.822843 240.228353 
L 81.548815 239.398917 
L 82.274787 239.816898 
L 83.000758 238.072804 
L 85.904645 239.314084 
L 86.630617 239.876175 
L 87.356588 238.307836 
L 88.08256 238.872826 
L 88.808532 237.160784 
L 89.534504 236.430433 
L 90.260475 235.030009 
L 90.986447 235.215653 
L 91.712419 235.220849 
L 93.164362 236.174685 
L 93.890334 234.503349 
L 94.616305 233.648302 
L 95.342277 232.412232 
L 96.068249 232.543512 
L 96.794221 230.789346 
L 97.520192 229.627525 
L 98.972136 230.016311 
L 99.698107 228.18485 
L 100.424079 227.121266 
L 101.876023 224.038845 
L 102.601994 224.124765 
L 103.327966 221.638577 
L 104.053938 220.373535 
L 104.779909 220.380716 
L 105.505881 218.324461 
L 106.957824 215.206909 
L 109.13574 215.826942 
L 109.861711 216.319545 
L 111.313655 217.558069 
L 112.039626 215.752503 
L 112.765598 215.202577 
L 113.49157 214.263177 
L 114.217541 215.043061 
L 114.943513 215.476562 
L 115.669485 216.254229 
L 117.8474 219.33552 
L 118.573372 220.539614 
L 119.299343 219.498441 
L 122.929202 225.0812 
L 125.107117 228.166773 
L 125.833089 228.087854 
L 128.011004 231.89956 
L 128.736976 231.337146 
L 129.462947 232.561962 
L 130.188919 233.533811 
L 130.914891 233.335792 
L 132.366834 235.422473 
L 133.818777 237.584038 
L 137.448636 243.289602 
L 138.174608 243.222845 
L 138.900579 243.650532 
L 140.352523 245.693314 
L 141.804466 247.808605 
L 142.530438 247.734659 
L 143.25641 248.142071 
L 144.708353 250.276062 
L 146.160296 252.132768 
L 147.61224 254.053106 
L 148.338211 253.756025 
L 149.064183 254.042453 
L 151.242098 256.646572 
L 151.96807 255.944907 
L 152.694042 256.086499 
L 154.871957 257.948326 
L 155.597929 258.699178 
L 156.3239 259.275217 
L 159.953759 263.229244 
L 160.67973 264.087447 
L 162.131674 265.514197 
L 162.857646 264.889681 
L 165.035561 267.172331 
L 165.761532 267.576029 
L 170.117363 271.238394 
L 170.843334 271.703934 
L 173.021249 273.642652 
L 173.747221 272.900214 
L 174.473193 272.702494 
L 175.925136 271.607276 
L 178.103051 272.368006 
L 178.829023 270.705 
L 179.554995 269.841909 
L 180.280966 268.651177 
L 181.73291 268.648675 
L 183.184853 268.197173 
L 183.910825 268.081499 
L 184.636797 268.149803 
L 188.266655 267.358218 
L 188.992627 267.338334 
L 189.718599 267.161592 
L 190.44457 265.241678 
L 191.170542 263.929303 
L 192.622485 263.473253 
L 194.8004 263.445358 
L 195.526372 263.19771 
L 196.252344 263.199822 
L 196.978316 262.976285 
L 197.704287 262.967548 
L 198.430259 263.087785 
L 199.156231 262.760376 
L 199.882202 262.884917 
L 200.608174 262.699756 
L 201.334146 262.734226 
L 202.060117 262.596334 
L 203.512061 262.803759 
L 204.964004 262.510604 
L 205.689976 262.520157 
L 207.141919 262.768205 
L 207.867891 262.886391 
L 208.593863 261.015261 
L 210.771778 261.495968 
L 212.223721 261.895858 
L 213.675665 261.996399 
L 214.401636 259.831472 
L 215.127608 258.58728 
L 217.305523 258.263724 
L 218.031495 256.048109 
L 218.757467 254.549959 
L 219.483438 254.592269 
L 220.20941 251.795139 
L 220.935382 250.143068 
L 221.661353 249.688368 
L 222.387325 249.477187 
L 223.839269 249.293108 
L 224.56524 248.773155 
L 225.291212 248.066839 
L 226.017184 248.014138 
L 226.743155 248.093654 
L 227.469127 247.935318 
L 228.92107 248.292137 
L 229.647042 248.601626 
L 230.373014 248.577685 
L 231.824957 249.195166 
L 232.550929 249.337879 
L 233.276901 247.717891 
L 234.002872 248.054523 
L 234.728844 248.198798 
L 235.454816 246.4004 
L 236.180788 245.310293 
L 237.632731 245.521303 
L 238.358703 242.967933 
L 239.084674 241.731104 
L 239.810646 239.836713 
L 240.536618 239.702826 
L 241.262589 239.840126 
L 241.988561 237.424914 
L 242.714533 235.931465 
L 243.440505 235.687461 
L 244.166476 233.186638 
L 244.892448 233.237825 
L 245.61842 232.784275 
L 246.344391 232.922955 
L 247.070363 232.845549 
L 247.796335 230.5599 
L 248.522306 229.189296 
L 249.248278 229.24994 
L 250.700222 229.614624 
L 252.152165 229.767653 
L 252.878137 227.65134 
L 254.33008 228.091034 
L 255.056052 225.898858 
L 256.507995 226.221076 
L 257.233967 224.391899 
L 257.959939 224.516157 
L 258.68591 222.350238 
L 259.411882 221.050728 
L 260.137854 219.393566 
L 260.863825 219.354127 
L 261.589797 219.466116 
L 262.315769 217.468259 
L 263.041741 217.688132 
L 265.945627 219.184987 
L 266.671599 217.798653 
L 267.397571 218.532182 
L 268.123542 218.711408 
L 269.575486 219.477849 
L 270.301458 218.219287 
L 271.027429 218.711893 
L 271.753401 217.408349 
L 272.479373 217.893761 
L 273.931316 219.160897 
L 274.657288 219.985536 
L 275.383259 218.87479 
L 276.109231 218.385556 
L 276.835203 219.170899 
L 278.287146 220.350624 
L 279.73909 221.604366 
L 282.642977 225.393851 
L 283.368948 224.77023 
L 284.09492 225.743534 
L 285.546863 227.289117 
L 286.998807 229.191454 
L 289.176722 232.517321 
L 290.628665 234.909296 
L 291.354637 235.56093 
L 292.080609 235.568358 
L 292.80658 235.852272 
L 294.258524 235.821462 
L 294.984495 236.718677 
L 295.710467 236.160362 
L 296.436439 236.053791 
L 297.162411 236.831378 
L 297.888382 237.182131 
L 298.614354 237.805949 
L 299.340326 237.136049 
L 300.792269 238.499343 
L 301.518241 238.878357 
L 306.600043 244.156076 
L 307.326014 243.638807 
L 308.051986 244.529979 
L 309.50393 245.886792 
L 310.955873 247.022722 
L 313.85976 249.738176 
L 314.585731 250.295207 
L 315.311703 249.775456 
L 316.037675 249.568185 
L 316.763647 249.074349 
L 317.489618 249.646628 
L 318.21559 249.970015 
L 318.941562 250.438529 
L 319.667533 249.528629 
L 321.119477 250.294156 
L 322.57142 250.704678 
L 323.297392 249.693171 
L 325.475307 250.441428 
L 326.201279 250.38407 
L 326.92725 250.654033 
L 327.653222 248.916124 
L 328.379194 249.009148 
L 329.831137 248.87697 
L 330.557109 247.375092 
L 331.283081 247.34341 
L 332.009052 247.138902 
L 332.735024 247.159427 
L 333.460996 245.404669 
L 334.186967 244.052086 
L 335.638911 240.427163 
L 336.364883 239.882495 
L 337.090854 237.272849 
L 337.816826 236.664942 
L 339.268769 235.00375 
L 339.994741 232.067975 
L 340.720713 231.25864 
L 341.446684 230.649728 
L 342.172656 227.818192 
L 345.076543 224.462088 
L 345.802515 221.278588 
L 346.528486 218.894458 
L 347.98043 216.878811 
L 348.706401 213.711611 
L 349.432373 211.052852 
L 350.884317 209.188156 
L 351.610288 205.846187 
L 352.33626 203.257249 
L 353.062232 202.273364 
L 353.788203 200.849713 
L 354.514175 200.091347 
L 355.240147 196.413281 
L 355.966118 195.530193 
L 357.418062 189.095874 
L 358.870005 183.132695 
L 360.321949 181.203557 
L 361.04792 177.939036 
L 361.773892 177.029973 
L 362.499864 176.522531 
L 363.225836 173.65261 
L 363.951807 173.313334 
L 364.677779 170.456639 
L 365.403751 170.035317 
L 366.129722 169.811236 
L 366.855694 169.357429 
L 368.307637 169.141261 
L 369.033609 167.294268 
L 369.759581 167.633157 
L 370.485553 165.589162 
L 371.211524 165.882753 
L 371.937496 164.14557 
L 373.389439 161.536408 
L 375.567354 162.275843 
L 377.74527 163.702122 
L 378.471241 162.720007 
L 379.197213 161.994326 
L 379.923185 162.525038 
L 380.649156 161.653229 
L 382.1011 163.223797 
L 382.827071 162.464942 
L 383.553043 163.356169 
L 384.279015 162.487216 
L 385.004987 162.30757 
L 385.730958 163.198822 
L 387.182902 164.566785 
L 388.634845 166.540695 
L 390.086789 168.625858 
L 390.81276 168.416309 
L 391.538732 168.583459 
L 392.264704 168.593109 
L 393.716647 170.597867 
L 394.442619 170.382481 
L 395.16859 170.486846 
L 396.620534 170.239027 
L 397.346506 171.115773 
L 398.072477 170.716916 
L 400.250392 173.192737 
L 401.702336 174.841809 
L 402.428307 174.673204 
L 403.154279 175.626523 
L 405.332194 177.825081 
L 406.058166 178.717611 
L 406.784138 178.520558 
L 407.510109 178.515138 
L 408.236081 178.265127 
L 408.962053 179.021979 
L 409.688024 179.485112 
L 410.413996 180.184724 
L 411.139968 179.779257 
L 411.86594 180.495778 
L 412.591911 180.02916 
L 414.769826 181.757977 
L 416.947742 180.506513 
L 417.673713 180.904667 
L 418.399685 179.951792 
L 419.125657 179.272368 
L 419.851628 178.427787 
L 420.5776 178.542403 
L 421.303572 178.509702 
L 423.481487 175.247998 
L 424.207459 173.97059 
L 424.93343 173.671107 
L 425.659402 171.806113 
L 426.385374 171.391662 
L 427.837317 167.986428 
L 429.28926 166.589429 
L 430.015232 165.769293 
L 430.741204 163.658108 
L 431.467176 162.91168 
L 432.919119 158.654133 
L 433.645091 157.680722 
L 435.823006 150.374559 
L 436.548977 149.099226 
L 437.274949 146.265829 
L 438.000921 144.98158 
L 438.726893 142.08263 
L 441.630779 137.287035 
L 442.356751 134.575766 
L 443.808695 132.273847 
L 444.534666 130.894818 
L 445.98661 128.59311 
L 446.712581 127.339881 
L 450.34244 114.560782 
L 451.068412 111.877943 
L 451.794383 110.356698 
L 452.520355 107.322008 
L 453.246327 105.934149 
L 453.972298 102.937757 
L 455.424242 99.8185 
L 457.602157 90.976373 
L 458.328129 89.251634 
L 461.957987 74.137274 
L 462.683959 72.503063 
L 464.135902 66.219587 
L 464.861874 63.368421 
L 466.313817 59.902727 
L 468.491732 51.595619 
L 469.943676 49.003893 
L 472.121591 41.445695 
L 472.121591 41.445695 
" style="fill:none;stroke:#1f77b4;stroke-linecap:square;stroke-width:1.5;"/>
   </g>
   <g id="line2d_2">
    <path clip-path="url(#p8074db80a9)" d="M 66.303409 247.715836 
L 67.029381 247.539566 
L 67.755352 247.554627 
L 68.481324 247.253972 
L 69.207296 247.492984 
L 70.659239 248.198801 
L 72.111183 248.662067 
L 72.837154 247.935404 
L 73.563126 247.603551 
L 74.289098 247.716266 
L 75.01507 247.547157 
L 75.741041 247.562296 
L 77.192985 248.016058 
L 78.644928 249.13126 
L 79.3709 249.794655 
L 80.096871 249.162088 
L 80.822843 249.599548 
L 81.548815 249.814854 
L 83.000758 250.717426 
L 83.72673 251.480163 
L 84.452702 252.046268 
L 85.178673 251.718729 
L 85.904645 251.718442 
L 86.630617 251.003607 
L 87.356588 251.199843 
L 89.534504 249.394049 
L 90.260475 248.994982 
L 90.986447 247.886394 
L 91.712419 247.529433 
L 93.164362 247.301769 
L 93.890334 247.417232 
L 94.616305 247.3488 
L 97.520192 248.964452 
L 99.698107 251.088167 
L 100.424079 251.522872 
L 101.150051 252.139136 
L 101.876023 251.01541 
L 102.601994 251.234748 
L 103.327966 250.180622 
L 105.505881 250.35337 
L 106.231853 249.450759 
L 108.409768 249.146094 
L 109.13574 249.26871 
L 110.587683 250.102366 
L 111.313655 250.576671 
L 112.039626 250.733807 
L 112.765598 250.686713 
L 113.49157 250.11069 
L 114.217541 250.447937 
L 114.943513 250.647309 
L 115.669485 250.654626 
L 117.121428 251.546607 
L 117.8474 251.734685 
L 118.573372 252.451247 
L 120.025315 253.676621 
L 120.751287 254.236016 
L 121.477258 253.708099 
L 122.929202 254.782321 
L 123.655174 254.080535 
L 124.381145 254.466524 
L 125.107117 253.424999 
L 125.833089 253.61554 
L 127.285032 254.371477 
L 128.011004 254.72365 
L 128.736976 255.276633 
L 129.462947 254.289758 
L 130.188919 254.047862 
L 130.914891 254.074103 
L 131.640862 253.89224 
L 132.366834 253.265315 
L 133.092806 253.194209 
L 133.818777 252.844003 
L 135.270721 251.464762 
L 135.996693 250.974908 
L 136.722664 250.811817 
L 137.448636 250.765219 
L 138.174608 250.896707 
L 138.900579 250.680224 
L 139.626551 250.922827 
L 140.352523 250.732703 
L 141.078494 249.783894 
L 141.804466 249.562901 
L 143.25641 249.830977 
L 144.708353 250.383794 
L 145.434325 250.821127 
L 146.160296 251.050792 
L 146.886268 251.64815 
L 147.61224 251.883911 
L 148.338211 252.477517 
L 153.420013 258.094658 
L 155.597929 260.723511 
L 158.501815 264.471528 
L 159.953759 266.512925 
L 162.131674 268.278442 
L 162.857646 268.685193 
L 164.309589 269.898627 
L 165.035561 269.850606 
L 166.487504 270.778474 
L 167.213476 270.358992 
L 168.665419 271.115889 
L 171.569306 272.915477 
L 172.295278 273.574169 
L 173.021249 273.735922 
L 173.747221 274.321578 
L 174.473193 274.579285 
L 175.199164 274.383938 
L 175.925136 274.495729 
L 176.651108 274.28506 
L 178.103051 274.393725 
L 178.829023 274.337057 
L 179.554995 274.127792 
L 181.006938 274.094157 
L 181.73291 274.222802 
L 182.458882 272.992039 
L 183.184853 272.907043 
L 183.910825 271.328816 
L 185.362768 269.653675 
L 186.814712 266.573025 
L 187.540683 264.845821 
L 188.266655 262.776909 
L 188.992627 261.356561 
L 189.718599 258.891269 
L 191.170542 255.262154 
L 191.896514 252.327566 
L 192.622485 250.494723 
L 193.348457 247.528671 
L 194.8004 242.99306 
L 196.252344 239.542434 
L 196.978316 238.299165 
L 199.156231 230.36649 
L 199.882202 228.565365 
L 200.608174 226.422332 
L 201.334146 224.673192 
L 202.060117 223.301558 
L 202.786089 220.846875 
L 204.238033 218.749828 
L 204.964004 218.18356 
L 205.689976 217.787576 
L 206.415948 217.16769 
L 207.141919 217.189543 
L 207.867891 217.080034 
L 209.319835 216.209786 
L 210.045806 216.117805 
L 210.771778 216.361395 
L 211.49775 217.003647 
L 212.223721 217.264939 
L 212.949693 216.60349 
L 213.675665 216.934724 
L 214.401636 215.916049 
L 215.127608 216.164954 
L 216.579552 217.206571 
L 217.305523 216.754868 
L 218.757467 217.850181 
L 220.20941 219.616331 
L 220.935382 220.225345 
L 223.839269 224.256553 
L 224.56524 224.385155 
L 226.017184 226.50131 
L 228.195099 230.046181 
L 230.373014 233.993065 
L 237.632731 248.10569 
L 240.536618 253.110283 
L 241.262589 253.715618 
L 241.988561 254.632319 
L 243.440505 256.822947 
L 244.166476 257.670641 
L 244.892448 258.302436 
L 247.796335 262.104682 
L 249.248278 263.122739 
L 253.604108 267.730702 
L 255.782023 268.736235 
L 256.507995 269.282345 
L 257.233967 269.307258 
L 257.959939 269.689006 
L 259.411882 269.474783 
L 262.315769 270.034829 
L 263.041741 269.310162 
L 267.397571 269.340019 
L 268.123542 269.218295 
L 268.849514 269.298755 
L 269.575486 269.259511 
L 271.027429 268.71011 
L 272.479373 266.652352 
L 274.657288 265.231525 
L 276.109231 262.490943 
L 276.835203 261.730915 
L 277.561175 260.666509 
L 279.013118 259.278602 
L 279.73909 258.384296 
L 280.465061 257.687154 
L 281.191033 257.230897 
L 281.917005 256.535549 
L 282.642977 254.191367 
L 283.368948 253.242568 
L 284.09492 252.064963 
L 284.820892 250.116846 
L 285.546863 248.949984 
L 286.272835 248.04454 
L 286.998807 245.604698 
L 287.724778 244.573608 
L 288.45075 242.229855 
L 289.176722 241.059575 
L 289.902694 238.731503 
L 290.628665 237.112037 
L 292.080609 231.90756 
L 292.80658 229.971504 
L 295.710467 218.506606 
L 296.436439 215.151802 
L 297.162411 212.685696 
L 297.888382 209.111772 
L 298.614354 206.488996 
L 299.340326 202.773322 
L 300.066297 200.190661 
L 301.518241 195.851805 
L 302.970184 192.866678 
L 303.696156 192.049714 
L 304.422128 191.625491 
L 305.148099 189.132083 
L 305.874071 187.779806 
L 306.600043 185.712906 
L 308.051986 183.837542 
L 308.777958 183.359331 
L 309.50393 182.436929 
L 310.955873 179.564247 
L 311.681845 178.908122 
L 312.407816 177.674077 
L 313.133788 177.360837 
L 313.85976 176.001206 
L 314.585731 175.039157 
L 315.311703 173.737762 
L 316.037675 173.081047 
L 316.763647 171.885901 
L 317.489618 171.642613 
L 318.21559 171.65753 
L 318.941562 171.960412 
L 319.667533 172.633177 
L 320.393505 172.872257 
L 321.845448 174.951399 
L 322.57142 174.915344 
L 323.297392 175.947843 
L 324.023364 176.771099 
L 325.475307 178.831306 
L 326.201279 179.038177 
L 327.653222 181.111652 
L 328.379194 182.14211 
L 329.831137 184.777092 
L 332.735024 191.293582 
L 334.912939 196.309893 
L 335.638911 197.166808 
L 339.994741 206.109925 
L 340.720713 207.030096 
L 342.172656 209.623116 
L 342.898628 211.028974 
L 343.6246 212.075259 
L 348.706401 221.079776 
L 354.514175 231.996799 
L 355.240147 233.018543 
L 355.966118 234.361153 
L 356.69209 234.958699 
L 357.418062 236.117174 
L 358.144034 236.797211 
L 361.04792 240.569125 
L 363.951807 244.043341 
L 364.677779 244.38636 
L 366.129722 245.926935 
L 366.855694 246.457806 
L 367.581666 246.728152 
L 369.759581 248.445413 
L 370.485553 248.916906 
L 371.937496 248.901721 
L 372.663468 248.743181 
L 373.389439 248.289511 
L 376.293326 247.352757 
L 377.019298 246.68222 
L 377.74527 245.843411 
L 380.649156 241.572471 
L 381.375128 240.048385 
L 382.1011 238.881088 
L 382.827071 237.411786 
L 383.553043 236.229822 
L 385.004987 233.039874 
L 386.45693 229.218986 
L 388.634845 223.560869 
L 389.360817 221.13581 
L 390.81276 217.363549 
L 391.538732 214.826949 
L 392.990675 210.691259 
L 395.16859 201.761567 
L 397.346506 190.915293 
L 401.702336 167.544407 
L 403.154279 160.365437 
L 403.880251 156.205127 
L 404.606223 152.711924 
L 406.058166 144.988717 
L 411.139968 118.033709 
L 414.043855 105.033844 
L 415.495798 100.047894 
L 419.851628 87.368199 
L 421.303572 83.935157 
L 424.207459 76.965658 
L 425.659402 74.127656 
L 428.563289 70.566044 
L 429.28926 70.175589 
L 430.015232 70.007134 
L 430.741204 70.095547 
L 431.467176 69.882154 
L 432.193147 70.02248 
L 432.919119 70.038992 
L 434.371062 70.676507 
L 435.823006 71.330364 
L 436.548977 72.028966 
L 437.274949 72.533989 
L 438.000921 73.421756 
L 438.726893 74.072707 
L 440.178836 76.084626 
L 441.630779 78.326903 
L 444.534666 82.282501 
L 447.438553 86.817644 
L 448.890496 88.897115 
L 451.068412 91.657755 
L 455.424242 97.994219 
L 458.328129 101.403437 
L 459.780072 102.907884 
L 461.232015 104.609388 
L 464.135902 107.931229 
L 465.587846 109.106016 
L 467.039789 110.360363 
L 468.491732 111.381147 
L 471.395619 112.833793 
L 472.121591 112.942561 
L 472.121591 112.942561 
" style="fill:none;stroke:#ff7f0e;stroke-linecap:square;stroke-width:1.5;"/>
   </g>
   <g id="line2d_3">
    <path clip-path="url(#p8074db80a9)" d="M 66.303409 253.223424 
L 67.755352 253.183296 
L 68.481324 252.896372 
L 69.207296 252.909009 
L 69.933268 252.539207 
L 70.659239 252.708817 
L 71.385211 251.668834 
L 72.837154 250.627846 
L 73.563126 250.284115 
L 75.741041 249.862582 
L 77.192985 249.972274 
L 77.918956 248.70088 
L 78.644928 248.874774 
L 79.3709 247.742124 
L 80.096871 247.677714 
L 80.822843 246.541457 
L 81.548815 246.024499 
L 82.274787 245.923443 
L 83.000758 244.624099 
L 83.72673 244.480787 
L 85.178673 243.473382 
L 85.904645 243.235175 
L 86.630617 242.823445 
L 87.356588 242.773981 
L 88.08256 242.51414 
L 89.534504 242.434201 
L 90.260475 241.309956 
L 90.986447 240.703666 
L 91.712419 240.629632 
L 93.164362 240.679921 
L 93.890334 239.801446 
L 94.616305 239.91017 
L 95.342277 239.739508 
L 96.794221 239.267343 
L 97.520192 239.126125 
L 98.246164 239.360385 
L 98.972136 238.642173 
L 99.698107 238.095845 
L 100.424079 238.136058 
L 101.150051 237.191007 
L 101.876023 237.187946 
L 102.601994 237.314664 
L 103.327966 237.021126 
L 104.053938 236.516167 
L 105.505881 235.718622 
L 106.231853 235.608208 
L 106.957824 234.921001 
L 107.683796 234.496095 
L 109.861711 234.021424 
L 110.587683 234.206312 
L 113.49157 235.461037 
L 115.669485 237.20763 
L 116.395457 237.651226 
L 117.121428 238.382588 
L 117.8474 238.949247 
L 118.573372 239.808019 
L 119.299343 239.661885 
L 120.025315 240.50866 
L 120.751287 240.709375 
L 121.477258 241.22112 
L 122.929202 242.798595 
L 123.655174 243.252374 
L 124.381145 244.146947 
L 125.107117 244.562903 
L 125.833089 244.745332 
L 129.462947 248.9513 
L 132.366834 252.681606 
L 134.544749 255.345023 
L 135.996693 256.677952 
L 144.708353 267.256479 
L 149.064183 272.75061 
L 149.790155 272.769503 
L 151.242098 274.260979 
L 151.96807 274.401068 
L 153.420013 275.706149 
L 154.145985 276.131901 
L 155.597929 277.338043 
L 156.3239 277.296089 
L 159.227787 279.118134 
L 162.131674 280.135317 
L 162.857646 280.31945 
L 164.309589 280.478886 
L 165.035561 280.734486 
L 165.761532 280.772598 
L 167.939447 281.42983 
L 168.665419 280.787848 
L 169.391391 280.977485 
L 170.117363 280.832906 
L 170.843334 279.901817 
L 171.569306 279.432862 
L 173.747221 278.943129 
L 176.651108 278.35472 
L 177.37708 277.113447 
L 178.103051 276.874873 
L 178.829023 275.463064 
L 179.554995 274.602005 
L 180.280966 273.099544 
L 181.73291 271.395333 
L 183.910825 267.377815 
L 184.636797 266.274542 
L 185.362768 264.134056 
L 186.08874 262.69682 
L 186.814712 260.251682 
L 187.540683 258.650753 
L 188.266655 255.953767 
L 188.992627 254.301619 
L 189.718599 251.10075 
L 191.170542 247.610996 
L 191.896514 244.572305 
L 194.074429 238.369835 
L 195.526372 232.956729 
L 196.252344 231.111626 
L 196.978316 228.185692 
L 199.156231 221.64268 
L 199.882202 218.785368 
L 200.608174 216.995511 
L 202.060117 212.104455 
L 202.786089 210.356088 
L 204.238033 207.628325 
L 204.964004 206.590535 
L 205.689976 204.557487 
L 206.415948 202.884269 
L 207.867891 201.072558 
L 208.593863 199.496604 
L 209.319835 198.935763 
L 210.045806 197.170983 
L 210.771778 196.759106 
L 211.49775 195.957649 
L 212.949693 194.181246 
L 213.675665 193.639951 
L 214.401636 192.549294 
L 215.127608 192.405901 
L 216.579552 192.538995 
L 217.305523 192.922506 
L 218.031495 193.450984 
L 218.757467 193.122622 
L 219.483438 193.712631 
L 220.20941 193.338247 
L 220.935382 193.326569 
L 221.661353 193.690749 
L 222.387325 194.225593 
L 223.113297 194.078483 
L 224.56524 195.390583 
L 225.291212 195.484985 
L 226.017184 196.316241 
L 226.743155 196.490499 
L 227.469127 197.368341 
L 228.195099 198.060498 
L 228.92107 199.059687 
L 229.647042 199.443094 
L 231.824957 202.874953 
L 233.276901 205.438826 
L 236.180788 210.95717 
L 236.906759 211.73313 
L 237.632731 213.144286 
L 238.358703 213.776419 
L 239.084674 215.198137 
L 239.810646 216.002067 
L 241.262589 218.699712 
L 241.988561 219.337653 
L 243.440505 221.979305 
L 244.892448 224.079346 
L 245.61842 225.074532 
L 246.344391 226.274499 
L 247.070363 227.075641 
L 249.248278 230.487883 
L 253.604108 235.364409 
L 254.33008 236.329957 
L 255.056052 236.800826 
L 256.507995 238.502748 
L 257.233967 239.074874 
L 257.959939 239.902771 
L 258.68591 240.254264 
L 260.137854 241.427225 
L 263.767712 244.96257 
L 264.493684 245.189382 
L 265.945627 246.234594 
L 266.671599 246.910981 
L 267.397571 246.964891 
L 268.849514 247.990437 
L 269.575486 248.231665 
L 270.301458 248.302333 
L 271.027429 248.694556 
L 271.753401 248.657734 
L 273.931316 249.688762 
L 274.657288 249.491959 
L 277.561175 250.52131 
L 279.013118 251.07649 
L 279.73909 250.723655 
L 283.368948 251.253437 
L 284.09492 250.793654 
L 284.820892 250.815847 
L 285.546863 250.412574 
L 288.45075 249.896279 
L 289.176722 249.92419 
L 289.902694 249.77259 
L 290.628665 249.747172 
L 292.080609 249.475279 
L 293.532552 249.519309 
L 294.258524 249.423034 
L 294.984495 249.545899 
L 295.710467 249.396688 
L 297.162411 249.46591 
L 298.614354 249.657099 
L 300.066297 249.623693 
L 302.244212 250.337888 
L 302.970184 250.43835 
L 304.422128 251.164254 
L 305.148099 251.437376 
L 305.874071 250.718366 
L 306.600043 250.652957 
L 308.051986 250.692953 
L 308.777958 250.689668 
L 309.50393 250.389251 
L 310.229901 249.732258 
L 311.681845 249.331924 
L 312.407816 249.219405 
L 313.133788 248.444735 
L 313.85976 248.192824 
L 315.311703 246.390896 
L 316.037675 245.762915 
L 316.763647 244.695131 
L 317.489618 244.234907 
L 318.941562 242.835318 
L 319.667533 242.420432 
L 320.393505 241.128468 
L 321.119477 240.661011 
L 321.845448 239.969258 
L 323.297392 239.053748 
L 324.023364 237.483048 
L 324.749335 237.006581 
L 325.475307 236.303997 
L 326.201279 234.98699 
L 328.379194 232.929416 
L 329.105165 232.030716 
L 330.557109 231.177431 
L 333.460996 229.748946 
L 335.638911 229.026248 
L 336.364883 228.99701 
L 337.090854 228.105106 
L 337.816826 227.579006 
L 338.542798 227.228361 
L 339.268769 226.703566 
L 339.994741 225.781226 
L 340.720713 225.261437 
L 341.446684 224.948514 
L 342.898628 223.27099 
L 343.6246 222.886476 
L 344.350571 221.554015 
L 345.076543 220.557206 
L 346.528486 217.991594 
L 347.98043 216.145783 
L 348.706401 214.73896 
L 351.610288 211.495744 
L 352.33626 210.122668 
L 355.240147 207.009775 
L 356.69209 205.726833 
L 357.418062 204.600319 
L 358.144034 203.965794 
L 358.870005 203.044026 
L 360.321949 202.130442 
L 361.04792 201.346573 
L 362.499864 200.452704 
L 363.225836 199.526173 
L 363.951807 199.24594 
L 364.677779 198.170116 
L 367.581666 197.071011 
L 369.759581 197.064713 
L 370.485553 197.214688 
L 371.211524 196.754656 
L 372.663468 196.549764 
L 373.389439 196.51583 
L 375.567354 197.064158 
L 377.019298 197.702538 
L 378.471241 198.510292 
L 379.197213 198.730732 
L 379.923185 199.234457 
L 380.649156 199.571148 
L 382.1011 199.741877 
L 382.827071 200.062486 
L 383.553043 200.256199 
L 384.279015 200.071306 
L 385.004987 200.089193 
L 389.360817 201.227362 
L 393.716647 203.232639 
L 394.442619 203.136436 
L 395.16859 203.491863 
L 395.894562 203.401636 
L 396.620534 203.570417 
L 397.346506 203.614253 
L 398.072477 203.444351 
L 400.976364 203.826132 
L 404.606223 204.746067 
L 406.058166 204.939404 
L 407.510109 204.490675 
L 408.236081 204.160583 
L 410.413996 203.607549 
L 411.139968 203.360946 
L 411.86594 202.718369 
L 412.591911 202.321086 
L 413.317883 201.621154 
L 414.043855 201.108991 
L 417.673713 197.138044 
L 420.5776 192.716515 
L 424.207459 186.174175 
L 427.111345 180.04351 
L 432.193147 166.661914 
L 434.371062 159.656824 
L 438.000921 146.626286 
L 440.904808 135.978784 
L 445.98661 117.215852 
L 450.34244 99.705786 
L 453.972298 85.372648 
L 455.424242 80.115703 
L 460.506044 62.767831 
L 465.587846 48.932286 
L 467.039789 45.747432 
L 469.217704 41.319731 
L 470.669648 38.696962 
L 472.121591 36.405402 
L 472.121591 36.405402 
" style="fill:none;stroke:#2ca02c;stroke-linecap:square;stroke-width:1.5;"/>
   </g>
   <g id="line2d_4">
    <path clip-path="url(#p8074db80a9)" d="M 66.303409 240.28965 
L 67.029381 240.985929 
L 67.755352 240.294204 
L 69.207296 240.439086 
L 69.933268 240.751945 
L 71.385211 242.004157 
L 72.111183 242.259537 
L 72.837154 242.910385 
L 73.563126 242.450857 
L 74.289098 243.127657 
L 75.01507 243.314264 
L 75.741041 243.701095 
L 76.467013 244.373003 
L 77.192985 243.944404 
L 77.918956 244.541593 
L 78.644928 244.861132 
L 79.3709 244.156054 
L 80.096871 244.742562 
L 80.822843 243.832266 
L 81.548815 243.892723 
L 82.274787 244.293553 
L 83.000758 243.846731 
L 83.72673 243.968304 
L 84.452702 244.271513 
L 85.178673 244.389212 
L 85.904645 243.76584 
L 86.630617 243.436016 
L 87.356588 243.68879 
L 88.808532 242.530608 
L 90.260475 242.666373 
L 90.986447 242.580453 
L 91.712419 241.726589 
L 92.43839 241.435729 
L 93.164362 241.519742 
L 94.616305 242.021064 
L 95.342277 242.376188 
L 96.068249 242.505306 
L 96.794221 241.999941 
L 97.520192 242.238788 
L 98.972136 243.244946 
L 99.698107 242.279561 
L 100.424079 242.66122 
L 101.150051 241.683001 
L 102.601994 242.188045 
L 103.327966 241.883189 
L 104.053938 242.024642 
L 106.957824 243.234475 
L 107.683796 242.582565 
L 108.409768 242.414596 
L 109.13574 242.536463 
L 110.587683 243.403764 
L 111.313655 242.836944 
L 112.039626 243.349463 
L 112.765598 243.493404 
L 113.49157 242.946095 
L 114.217541 242.731043 
L 117.121428 244.397834 
L 117.8474 243.804593 
L 118.573372 243.825505 
L 120.025315 244.697603 
L 121.477258 245.921774 
L 122.929202 246.673065 
L 124.381145 247.912286 
L 125.107117 247.422857 
L 125.833089 247.990386 
L 127.285032 249.463405 
L 128.011004 248.866687 
L 128.736976 249.05091 
L 129.462947 248.871334 
L 130.188919 249.380988 
L 132.366834 250.312003 
L 133.092806 249.786467 
L 133.818777 249.702574 
L 135.270721 250.429069 
L 135.996693 249.859566 
L 137.448636 250.593946 
L 138.174608 250.576293 
L 139.626551 251.532137 
L 140.352523 250.873999 
L 141.078494 251.311339 
L 141.804466 250.764912 
L 142.530438 251.003482 
L 143.25641 251.386185 
L 143.982381 251.640679 
L 145.434325 252.636929 
L 146.160296 252.886054 
L 146.886268 253.481794 
L 147.61224 252.722071 
L 148.338211 252.681957 
L 150.516127 253.976343 
L 151.242098 254.63868 
L 152.694042 255.30223 
L 153.420013 255.045636 
L 154.871957 255.997809 
L 155.597929 256.565426 
L 157.049872 257.284177 
L 158.501815 258.400043 
L 159.227787 257.736719 
L 159.953759 257.741846 
L 161.405702 258.516242 
L 162.131674 258.823352 
L 164.309589 259.389267 
L 165.035561 259.855631 
L 165.761532 259.987851 
L 166.487504 260.378226 
L 167.213476 260.636008 
L 168.665419 261.67624 
L 169.391391 261.859847 
L 170.117363 262.368269 
L 170.843334 262.740644 
L 171.569306 262.09944 
L 172.295278 262.487516 
L 173.021249 262.745024 
L 175.925136 264.658642 
L 177.37708 265.767542 
L 178.103051 265.408777 
L 178.829023 265.858027 
L 179.554995 264.936849 
L 181.73291 265.93128 
L 183.184853 265.853093 
L 185.362768 266.256155 
L 186.08874 266.469533 
L 186.814712 266.4756 
L 187.540683 266.731916 
L 188.992627 265.709501 
L 189.718599 264.866032 
L 191.170542 264.806683 
L 191.896514 263.331573 
L 193.348457 262.947576 
L 194.074429 262.525047 
L 195.526372 262.399798 
L 196.252344 262.353785 
L 196.978316 261.988849 
L 197.704287 260.784446 
L 198.430259 260.657598 
L 199.882202 258.261757 
L 200.608174 257.626458 
L 202.060117 254.794375 
L 202.786089 253.965038 
L 204.238033 252.935383 
L 204.964004 252.373335 
L 206.415948 249.294939 
L 207.141919 248.333357 
L 207.867891 247.57868 
L 208.593863 245.462526 
L 209.319835 243.77691 
L 210.045806 241.39648 
L 211.49775 238.938182 
L 212.223721 236.754387 
L 212.949693 234.971579 
L 213.675665 233.667854 
L 214.401636 231.535428 
L 216.579552 228.542899 
L 217.305523 227.91095 
L 218.031495 226.108656 
L 218.757467 225.655953 
L 219.483438 225.390304 
L 220.20941 224.75835 
L 221.661353 222.288314 
L 223.113297 222.147537 
L 223.839269 221.767217 
L 226.017184 221.627207 
L 226.743155 221.194074 
L 227.469127 221.351194 
L 228.195099 221.627366 
L 228.92107 221.724185 
L 230.373014 222.51253 
L 231.098986 222.035205 
L 232.550929 223.317834 
L 233.276901 223.544578 
L 234.002872 223.385678 
L 234.728844 224.019815 
L 235.454816 224.377627 
L 236.180788 224.878272 
L 236.906759 225.63185 
L 238.358703 226.604057 
L 239.084674 226.392503 
L 240.536618 227.495743 
L 241.262589 228.405479 
L 241.988561 228.903534 
L 242.714533 229.746948 
L 243.440505 230.331555 
L 244.892448 232.022348 
L 245.61842 232.63047 
L 246.344391 233.475537 
L 247.070363 233.467507 
L 248.522306 234.713483 
L 249.248278 235.630369 
L 252.152165 238.557244 
L 252.878137 238.18764 
L 254.33008 239.719848 
L 255.056052 239.526728 
L 256.507995 240.707278 
L 257.233967 240.740193 
L 257.959939 241.294961 
L 258.68591 241.050745 
L 259.411882 241.174362 
L 260.137854 241.471025 
L 262.315769 242.67212 
L 263.767712 242.517136 
L 264.493684 242.878533 
L 265.219656 243.115539 
L 265.945627 242.775696 
L 266.671599 243.183554 
L 267.397571 242.582223 
L 268.123542 242.428107 
L 268.849514 242.418976 
L 269.575486 241.911762 
L 270.301458 241.55178 
L 271.027429 241.597369 
L 271.753401 240.929325 
L 273.205344 240.569662 
L 273.931316 240.657072 
L 274.657288 239.846406 
L 275.383259 239.890205 
L 276.109231 239.774011 
L 276.835203 239.458194 
L 277.561175 239.538602 
L 279.013118 239.377045 
L 280.465061 239.344676 
L 281.191033 238.726094 
L 281.917005 238.357058 
L 282.642977 238.150929 
L 283.368948 238.145255 
L 284.820892 237.879043 
L 286.998807 238.122387 
L 287.724778 238.463181 
L 288.45075 238.489988 
L 289.176722 238.132903 
L 289.902694 238.244235 
L 290.628665 237.516934 
L 292.080609 237.244933 
L 292.80658 236.733043 
L 293.532552 236.718688 
L 294.258524 235.689862 
L 294.984495 235.243633 
L 295.710467 234.599811 
L 297.162411 234.305444 
L 298.614354 234.316131 
L 299.340326 234.46254 
L 300.066297 234.473562 
L 300.792269 234.720413 
L 301.518241 234.789328 
L 302.244212 235.069591 
L 302.970184 235.205488 
L 304.422128 235.94719 
L 305.874071 236.91232 
L 306.600043 237.520441 
L 307.326014 237.851202 
L 308.051986 238.403114 
L 308.777958 237.851085 
L 309.50393 238.362957 
L 310.229901 238.611839 
L 310.955873 239.048161 
L 312.407816 240.286657 
L 313.133788 240.533437 
L 313.85976 240.36287 
L 314.585731 240.539093 
L 315.311703 239.853485 
L 316.037675 239.66007 
L 316.763647 239.292533 
L 319.667533 240.08184 
L 321.119477 240.329342 
L 322.57142 240.900972 
L 323.297392 241.239294 
L 324.749335 241.576786 
L 325.475307 240.898718 
L 327.653222 241.540375 
L 328.379194 241.544613 
L 329.105165 241.833573 
L 329.831137 241.163767 
L 330.557109 240.821941 
L 331.283081 240.801875 
L 332.735024 241.127524 
L 334.912939 239.36685 
L 335.638911 239.277429 
L 336.364883 238.798885 
L 337.090854 238.619111 
L 337.816826 237.330633 
L 339.268769 236.683951 
L 339.994741 235.705821 
L 340.720713 235.420321 
L 341.446684 234.925706 
L 342.898628 232.797491 
L 343.6246 232.196835 
L 346.528486 226.506263 
L 347.98043 224.535349 
L 349.432373 221.239156 
L 350.884317 219.192659 
L 351.610288 217.246441 
L 352.33626 216.274764 
L 353.062232 214.871849 
L 353.788203 212.825375 
L 354.514175 211.90102 
L 355.240147 209.357927 
L 355.966118 208.132612 
L 356.69209 205.708158 
L 358.870005 199.667734 
L 360.321949 196.672255 
L 361.04792 194.636391 
L 361.773892 193.250431 
L 362.499864 192.129696 
L 363.225836 189.868021 
L 363.951807 188.589618 
L 364.677779 186.583072 
L 366.129722 184.396431 
L 367.581666 182.097672 
L 368.307637 181.424691 
L 369.033609 180.941807 
L 370.485553 178.223719 
L 371.211524 177.735341 
L 371.937496 176.631433 
L 373.389439 174.198167 
L 375.567354 172.697291 
L 376.293326 172.402292 
L 377.019298 171.492731 
L 377.74527 171.182243 
L 378.471241 170.220325 
L 379.197213 169.457684 
L 379.923185 169.191401 
L 380.649156 168.45898 
L 382.1011 168.368173 
L 384.279015 166.757407 
L 385.730958 166.74001 
L 386.45693 166.19931 
L 388.634845 166.453417 
L 390.81276 167.518478 
L 391.538732 167.909898 
L 392.264704 168.030702 
L 393.716647 168.925265 
L 394.442619 168.976976 
L 395.16859 169.478238 
L 395.894562 169.579483 
L 397.346506 170.453433 
L 398.072477 170.486723 
L 398.798449 170.677906 
L 401.702336 172.67447 
L 402.428307 173.316305 
L 403.880251 173.919121 
L 406.784138 176.358017 
L 409.688024 179.020643 
L 410.413996 179.404794 
L 411.86594 180.861484 
L 414.043855 183.098792 
L 416.22177 185.371619 
L 416.947742 185.722212 
L 417.673713 186.409858 
L 418.399685 186.608566 
L 419.851628 187.813735 
L 420.5776 187.946044 
L 422.755515 189.332897 
L 424.207459 190.295438 
L 424.93343 190.350983 
L 426.385374 190.97357 
L 427.111345 190.791482 
L 428.563289 190.977214 
L 429.28926 191.072269 
L 430.741204 190.268193 
L 432.193147 188.982416 
L 434.371062 186.571369 
L 435.823006 184.256639 
L 436.548977 183.156667 
L 440.904808 174.300912 
L 443.808695 165.988662 
L 446.712581 156.289026 
L 448.890496 147.464188 
L 455.424242 117.216105 
L 458.328129 101.599283 
L 461.232015 85.857059 
L 465.587846 63.750193 
L 472.121591 34.33892 
L 472.121591 34.33892 
" style="fill:none;stroke:#000000;stroke-dasharray:3.7,1.6;stroke-dashoffset:0;"/>
   </g>
   <g id="matplotlib.axis_1">
    <g id="xtick_1">
     <g id="line2d_5">
      <defs>
       <path d="M 0 0 
L 0 3.5 
" id="m2e3a17d6a9" style="stroke:#000000;stroke-width:0.8;"/>
      </defs>
      <g>
       <use style="stroke:#000000;stroke-width:0.8;" x="87.356588" xlink:href="#m2e3a17d6a9" y="293.784375"/>
      </g>
     </g>
     <g id="text_1">
      <!-- 100 -->
      <defs>
       <path d="M 12.40625 8.296875 
L 28.515625 8.296875 
L 28.515625 63.921875 
L 10.984375 60.40625 
L 10.984375 69.390625 
L 28.421875 72.90625 
L 38.28125 72.90625 
L 38.28125 8.296875 
L 54.390625 8.296875 
L 54.390625 0 
L 12.40625 0 
z
" id="DejaVuSans-49"/>
       <path d="M 31.78125 66.40625 
Q 24.171875 66.40625 20.328125 58.90625 
Q 16.5 51.421875 16.5 36.375 
Q 16.5 21.390625 20.328125 13.890625 
Q 24.171875 6.390625 31.78125 6.390625 
Q 39.453125 6.390625 43.28125 13.890625 
Q 47.125 21.390625 47.125 36.375 
Q 47.125 51.421875 43.28125 58.90625 
Q 39.453125 66.40625 31.78125 66.40625 
z
M 31.78125 74.21875 
Q 44.046875 74.21875 50.515625 64.515625 
Q 56.984375 54.828125 56.984375 36.375 
Q 56.984375 17.96875 50.515625 8.265625 
Q 44.046875 -1.421875 31.78125 -1.421875 
Q 19.53125 -1.421875 13.0625 8.265625 
Q 6.59375 17.96875 6.59375 36.375 
Q 6.59375 54.828125 13.0625 64.515625 
Q 19.53125 74.21875 31.78125 74.21875 
z
" id="DejaVuSans-48"/>
      </defs>
      <g transform="translate(77.812838 308.382812)scale(0.1 -0.1)">
       <use xlink:href="#DejaVuSans-49"/>
       <use x="63.623047" xlink:href="#DejaVuSans-48"/>
       <use x="127.246094" xlink:href="#DejaVuSans-48"/>
      </g>
     </g>
    </g>
    <g id="xtick_2">
     <g id="line2d_6">
      <g>
       <use style="stroke:#000000;stroke-width:0.8;" x="159.953759" xlink:href="#m2e3a17d6a9" y="293.784375"/>
      </g>
     </g>
     <g id="text_2">
      <!-- 200 -->
      <defs>
       <path d="M 19.1875 8.296875 
L 53.609375 8.296875 
L 53.609375 0 
L 7.328125 0 
L 7.328125 8.296875 
Q 12.9375 14.109375 22.625 23.890625 
Q 32.328125 33.6875 34.8125 36.53125 
Q 39.546875 41.84375 41.421875 45.53125 
Q 43.3125 49.21875 43.3125 52.78125 
Q 43.3125 58.59375 39.234375 62.25 
Q 35.15625 65.921875 28.609375 65.921875 
Q 23.96875 65.921875 18.8125 64.3125 
Q 13.671875 62.703125 7.8125 59.421875 
L 7.8125 69.390625 
Q 13.765625 71.78125 18.9375 73 
Q 24.125 74.21875 28.421875 74.21875 
Q 39.75 74.21875 46.484375 68.546875 
Q 53.21875 62.890625 53.21875 53.421875 
Q 53.21875 48.921875 51.53125 44.890625 
Q 49.859375 40.875 45.40625 35.40625 
Q 44.1875 33.984375 37.640625 27.21875 
Q 31.109375 20.453125 19.1875 8.296875 
z
" id="DejaVuSans-50"/>
      </defs>
      <g transform="translate(150.410009 308.382812)scale(0.1 -0.1)">
       <use xlink:href="#DejaVuSans-50"/>
       <use x="63.623047" xlink:href="#DejaVuSans-48"/>
       <use x="127.246094" xlink:href="#DejaVuSans-48"/>
      </g>
     </g>
    </g>
    <g id="xtick_3">
     <g id="line2d_7">
      <g>
       <use style="stroke:#000000;stroke-width:0.8;" x="232.550929" xlink:href="#m2e3a17d6a9" y="293.784375"/>
      </g>
     </g>
     <g id="text_3">
      <!-- 300 -->
      <defs>
       <path d="M 40.578125 39.3125 
Q 47.65625 37.796875 51.625 33 
Q 55.609375 28.21875 55.609375 21.1875 
Q 55.609375 10.40625 48.1875 4.484375 
Q 40.765625 -1.421875 27.09375 -1.421875 
Q 22.515625 -1.421875 17.65625 -0.515625 
Q 12.796875 0.390625 7.625 2.203125 
L 7.625 11.71875 
Q 11.71875 9.328125 16.59375 8.109375 
Q 21.484375 6.890625 26.8125 6.890625 
Q 36.078125 6.890625 40.9375 10.546875 
Q 45.796875 14.203125 45.796875 21.1875 
Q 45.796875 27.640625 41.28125 31.265625 
Q 36.765625 34.90625 28.71875 34.90625 
L 20.21875 34.90625 
L 20.21875 43.015625 
L 29.109375 43.015625 
Q 36.375 43.015625 40.234375 45.921875 
Q 44.09375 48.828125 44.09375 54.296875 
Q 44.09375 59.90625 40.109375 62.90625 
Q 36.140625 65.921875 28.71875 65.921875 
Q 24.65625 65.921875 20.015625 65.03125 
Q 15.375 64.15625 9.8125 62.3125 
L 9.8125 71.09375 
Q 15.4375 72.65625 20.34375 73.4375 
Q 25.25 74.21875 29.59375 74.21875 
Q 40.828125 74.21875 47.359375 69.109375 
Q 53.90625 64.015625 53.90625 55.328125 
Q 53.90625 49.265625 50.4375 45.09375 
Q 46.96875 40.921875 40.578125 39.3125 
z
" id="DejaVuSans-51"/>
      </defs>
      <g transform="translate(223.007179 308.382812)scale(0.1 -0.1)">
       <use xlink:href="#DejaVuSans-51"/>
       <use x="63.623047" xlink:href="#DejaVuSans-48"/>
       <use x="127.246094" xlink:href="#DejaVuSans-48"/>
      </g>
     </g>
    </g>
    <g id="xtick_4">
     <g id="line2d_8">
      <g>
       <use style="stroke:#000000;stroke-width:0.8;" x="305.148099" xlink:href="#m2e3a17d6a9" y="293.784375"/>
      </g>
     </g>
     <g id="text_4">
      <!-- 400 -->
      <defs>
       <path d="M 37.796875 64.3125 
L 12.890625 25.390625 
L 37.796875 25.390625 
z
M 35.203125 72.90625 
L 47.609375 72.90625 
L 47.609375 25.390625 
L 58.015625 25.390625 
L 58.015625 17.1875 
L 47.609375 17.1875 
L 47.609375 0 
L 37.796875 0 
L 37.796875 17.1875 
L 4.890625 17.1875 
L 4.890625 26.703125 
z
" id="DejaVuSans-52"/>
      </defs>
      <g transform="translate(295.604349 308.382812)scale(0.1 -0.1)">
       <use xlink:href="#DejaVuSans-52"/>
       <use x="63.623047" xlink:href="#DejaVuSans-48"/>
       <use x="127.246094" xlink:href="#DejaVuSans-48"/>
      </g>
     </g>
    </g>
    <g id="xtick_5">
     <g id="line2d_9">
      <g>
       <use style="stroke:#000000;stroke-width:0.8;" x="377.74527" xlink:href="#m2e3a17d6a9" y="293.784375"/>
      </g>
     </g>
     <g id="text_5">
      <!-- 500 -->
      <defs>
       <path d="M 10.796875 72.90625 
L 49.515625 72.90625 
L 49.515625 64.59375 
L 19.828125 64.59375 
L 19.828125 46.734375 
Q 21.96875 47.46875 24.109375 47.828125 
Q 26.265625 48.1875 28.421875 48.1875 
Q 40.625 48.1875 47.75 41.5 
Q 54.890625 34.8125 54.890625 23.390625 
Q 54.890625 11.625 47.5625 5.09375 
Q 40.234375 -1.421875 26.90625 -1.421875 
Q 22.3125 -1.421875 17.546875 -0.640625 
Q 12.796875 0.140625 7.71875 1.703125 
L 7.71875 11.625 
Q 12.109375 9.234375 16.796875 8.0625 
Q 21.484375 6.890625 26.703125 6.890625 
Q 35.15625 6.890625 40.078125 11.328125 
Q 45.015625 15.765625 45.015625 23.390625 
Q 45.015625 31 40.078125 35.4375 
Q 35.15625 39.890625 26.703125 39.890625 
Q 22.75 39.890625 18.8125 39.015625 
Q 14.890625 38.140625 10.796875 36.28125 
z
" id="DejaVuSans-53"/>
      </defs>
      <g transform="translate(368.20152 308.382812)scale(0.1 -0.1)">
       <use xlink:href="#DejaVuSans-53"/>
       <use x="63.623047" xlink:href="#DejaVuSans-48"/>
       <use x="127.246094" xlink:href="#DejaVuSans-48"/>
      </g>
     </g>
    </g>
    <g id="xtick_6">
     <g id="line2d_10">
      <g>
       <use style="stroke:#000000;stroke-width:0.8;" x="450.34244" xlink:href="#m2e3a17d6a9" y="293.784375"/>
      </g>
     </g>
     <g id="text_6">
      <!-- 600 -->
      <defs>
       <path d="M 33.015625 40.375 
Q 26.375 40.375 22.484375 35.828125 
Q 18.609375 31.296875 18.609375 23.390625 
Q 18.609375 15.53125 22.484375 10.953125 
Q 26.375 6.390625 33.015625 6.390625 
Q 39.65625 6.390625 43.53125 10.953125 
Q 47.40625 15.53125 47.40625 23.390625 
Q 47.40625 31.296875 43.53125 35.828125 
Q 39.65625 40.375 33.015625 40.375 
z
M 52.59375 71.296875 
L 52.59375 62.3125 
Q 48.875 64.0625 45.09375 64.984375 
Q 41.3125 65.921875 37.59375 65.921875 
Q 27.828125 65.921875 22.671875 59.328125 
Q 17.53125 52.734375 16.796875 39.40625 
Q 19.671875 43.65625 24.015625 45.921875 
Q 28.375 48.1875 33.59375 48.1875 
Q 44.578125 48.1875 50.953125 41.515625 
Q 57.328125 34.859375 57.328125 23.390625 
Q 57.328125 12.15625 50.6875 5.359375 
Q 44.046875 -1.421875 33.015625 -1.421875 
Q 20.359375 -1.421875 13.671875 8.265625 
Q 6.984375 17.96875 6.984375 36.375 
Q 6.984375 53.65625 15.1875 63.9375 
Q 23.390625 74.21875 37.203125 74.21875 
Q 40.921875 74.21875 44.703125 73.484375 
Q 48.484375 72.75 52.59375 71.296875 
z
" id="DejaVuSans-54"/>
      </defs>
      <g transform="translate(440.79869 308.382812)scale(0.1 -0.1)">
       <use xlink:href="#DejaVuSans-54"/>
       <use x="63.623047" xlink:href="#DejaVuSans-48"/>
       <use x="127.246094" xlink:href="#DejaVuSans-48"/>
      </g>
     </g>
    </g>
    <g id="text_7">
     <!-- Tempo -->
     <defs>
      <path d="M -0.296875 72.90625 
L 61.375 72.90625 
L 61.375 64.59375 
L 35.5 64.59375 
L 35.5 0 
L 25.59375 0 
L 25.59375 64.59375 
L -0.296875 64.59375 
z
" id="DejaVuSans-84"/>
      <path d="M 56.203125 29.59375 
L 56.203125 25.203125 
L 14.890625 25.203125 
Q 15.484375 15.921875 20.484375 11.0625 
Q 25.484375 6.203125 34.421875 6.203125 
Q 39.59375 6.203125 44.453125 7.46875 
Q 49.3125 8.734375 54.109375 11.28125 
L 54.109375 2.78125 
Q 49.265625 0.734375 44.1875 -0.34375 
Q 39.109375 -1.421875 33.890625 -1.421875 
Q 20.796875 -1.421875 13.15625 6.1875 
Q 5.515625 13.8125 5.515625 26.8125 
Q 5.515625 40.234375 12.765625 48.109375 
Q 20.015625 56 32.328125 56 
Q 43.359375 56 49.78125 48.890625 
Q 56.203125 41.796875 56.203125 29.59375 
z
M 47.21875 32.234375 
Q 47.125 39.59375 43.09375 43.984375 
Q 39.0625 48.390625 32.421875 48.390625 
Q 24.90625 48.390625 20.390625 44.140625 
Q 15.875 39.890625 15.1875 32.171875 
z
" id="DejaVuSans-101"/>
      <path d="M 52 44.1875 
Q 55.375 50.25 60.0625 53.125 
Q 64.75 56 71.09375 56 
Q 79.640625 56 84.28125 50.015625 
Q 88.921875 44.046875 88.921875 33.015625 
L 88.921875 0 
L 79.890625 0 
L 79.890625 32.71875 
Q 79.890625 40.578125 77.09375 44.375 
Q 74.3125 48.1875 68.609375 48.1875 
Q 61.625 48.1875 57.5625 43.546875 
Q 53.515625 38.921875 53.515625 30.90625 
L 53.515625 0 
L 44.484375 0 
L 44.484375 32.71875 
Q 44.484375 40.625 41.703125 44.40625 
Q 38.921875 48.1875 33.109375 48.1875 
Q 26.21875 48.1875 22.15625 43.53125 
Q 18.109375 38.875 18.109375 30.90625 
L 18.109375 0 
L 9.078125 0 
L 9.078125 54.6875 
L 18.109375 54.6875 
L 18.109375 46.1875 
Q 21.1875 51.21875 25.484375 53.609375 
Q 29.78125 56 35.6875 56 
Q 41.65625 56 45.828125 52.96875 
Q 50 49.953125 52 44.1875 
z
" id="DejaVuSans-109"/>
      <path d="M 18.109375 8.203125 
L 18.109375 -20.796875 
L 9.078125 -20.796875 
L 9.078125 54.6875 
L 18.109375 54.6875 
L 18.109375 46.390625 
Q 20.953125 51.265625 25.265625 53.625 
Q 29.59375 56 35.59375 56 
Q 45.5625 56 51.78125 48.09375 
Q 58.015625 40.1875 58.015625 27.296875 
Q 58.015625 14.40625 51.78125 6.484375 
Q 45.5625 -1.421875 35.59375 -1.421875 
Q 29.59375 -1.421875 25.265625 0.953125 
Q 20.953125 3.328125 18.109375 8.203125 
z
M 48.6875 27.296875 
Q 48.6875 37.203125 44.609375 42.84375 
Q 40.53125 48.484375 33.40625 48.484375 
Q 26.265625 48.484375 22.1875 42.84375 
Q 18.109375 37.203125 18.109375 27.296875 
Q 18.109375 17.390625 22.1875 11.75 
Q 26.265625 6.109375 33.40625 6.109375 
Q 40.53125 6.109375 44.609375 11.75 
Q 48.6875 17.390625 48.6875 27.296875 
z
" id="DejaVuSans-112"/>
      <path d="M 30.609375 48.390625 
Q 23.390625 48.390625 19.1875 42.75 
Q 14.984375 37.109375 14.984375 27.296875 
Q 14.984375 17.484375 19.15625 11.84375 
Q 23.34375 6.203125 30.609375 6.203125 
Q 37.796875 6.203125 41.984375 11.859375 
Q 46.1875 17.53125 46.1875 27.296875 
Q 46.1875 37.015625 41.984375 42.703125 
Q 37.796875 48.390625 30.609375 48.390625 
z
M 30.609375 56 
Q 42.328125 56 49.015625 48.375 
Q 55.71875 40.765625 55.71875 27.296875 
Q 55.71875 13.875 49.015625 6.21875 
Q 42.328125 -1.421875 30.609375 -1.421875 
Q 18.84375 -1.421875 12.171875 6.21875 
Q 5.515625 13.875 5.515625 27.296875 
Q 5.515625 40.765625 12.171875 48.375 
Q 18.84375 56 30.609375 56 
z
" id="DejaVuSans-111"/>
     </defs>
     <g transform="translate(252.828125 322.060937)scale(0.1 -0.1)">
      <use xlink:href="#DejaVuSans-84"/>
      <use x="44.083984" xlink:href="#DejaVuSans-101"/>
      <use x="105.607422" xlink:href="#DejaVuSans-109"/>
      <use x="203.019531" xlink:href="#DejaVuSans-112"/>
      <use x="266.496094" xlink:href="#DejaVuSans-111"/>
     </g>
    </g>
   </g>
   <g id="matplotlib.axis_2">
    <g id="ytick_1">
     <g id="line2d_11">
      <defs>
       <path d="M 0 0 
L -3.5 0 
" id="m85a54d1d89" style="stroke:#000000;stroke-width:0.8;"/>
      </defs>
      <g>
       <use style="stroke:#000000;stroke-width:0.8;" x="46.0125" xlink:href="#m85a54d1d89" y="290.691396"/>
      </g>
     </g>
     <g id="text_8">
      <!-- 2000 -->
      <g transform="translate(13.5625 294.490614)scale(0.1 -0.1)">
       <use xlink:href="#DejaVuSans-50"/>
       <use x="63.623047" xlink:href="#DejaVuSans-48"/>
       <use x="127.246094" xlink:href="#DejaVuSans-48"/>
       <use x="190.869141" xlink:href="#DejaVuSans-48"/>
      </g>
     </g>
    </g>
    <g id="ytick_2">
     <g id="line2d_12">
      <g>
       <use style="stroke:#000000;stroke-width:0.8;" x="46.0125" xlink:href="#m85a54d1d89" y="239.232101"/>
      </g>
     </g>
     <g id="text_9">
      <!-- 4000 -->
      <g transform="translate(13.5625 243.03132)scale(0.1 -0.1)">
       <use xlink:href="#DejaVuSans-52"/>
       <use x="63.623047" xlink:href="#DejaVuSans-48"/>
       <use x="127.246094" xlink:href="#DejaVuSans-48"/>
       <use x="190.869141" xlink:href="#DejaVuSans-48"/>
      </g>
     </g>
    </g>
    <g id="ytick_3">
     <g id="line2d_13">
      <g>
       <use style="stroke:#000000;stroke-width:0.8;" x="46.0125" xlink:href="#m85a54d1d89" y="187.772807"/>
      </g>
     </g>
     <g id="text_10">
      <!-- 6000 -->
      <g transform="translate(13.5625 191.572026)scale(0.1 -0.1)">
       <use xlink:href="#DejaVuSans-54"/>
       <use x="63.623047" xlink:href="#DejaVuSans-48"/>
       <use x="127.246094" xlink:href="#DejaVuSans-48"/>
       <use x="190.869141" xlink:href="#DejaVuSans-48"/>
      </g>
     </g>
    </g>
    <g id="ytick_4">
     <g id="line2d_14">
      <g>
       <use style="stroke:#000000;stroke-width:0.8;" x="46.0125" xlink:href="#m85a54d1d89" y="136.313513"/>
      </g>
     </g>
     <g id="text_11">
      <!-- 8000 -->
      <defs>
       <path d="M 31.78125 34.625 
Q 24.75 34.625 20.71875 30.859375 
Q 16.703125 27.09375 16.703125 20.515625 
Q 16.703125 13.921875 20.71875 10.15625 
Q 24.75 6.390625 31.78125 6.390625 
Q 38.8125 6.390625 42.859375 10.171875 
Q 46.921875 13.96875 46.921875 20.515625 
Q 46.921875 27.09375 42.890625 30.859375 
Q 38.875 34.625 31.78125 34.625 
z
M 21.921875 38.8125 
Q 15.578125 40.375 12.03125 44.71875 
Q 8.5 49.078125 8.5 55.328125 
Q 8.5 64.0625 14.71875 69.140625 
Q 20.953125 74.21875 31.78125 74.21875 
Q 42.671875 74.21875 48.875 69.140625 
Q 55.078125 64.0625 55.078125 55.328125 
Q 55.078125 49.078125 51.53125 44.71875 
Q 48 40.375 41.703125 38.8125 
Q 48.828125 37.15625 52.796875 32.3125 
Q 56.78125 27.484375 56.78125 20.515625 
Q 56.78125 9.90625 50.3125 4.234375 
Q 43.84375 -1.421875 31.78125 -1.421875 
Q 19.734375 -1.421875 13.25 4.234375 
Q 6.78125 9.90625 6.78125 20.515625 
Q 6.78125 27.484375 10.78125 32.3125 
Q 14.796875 37.15625 21.921875 38.8125 
z
M 18.3125 54.390625 
Q 18.3125 48.734375 21.84375 45.5625 
Q 25.390625 42.390625 31.78125 42.390625 
Q 38.140625 42.390625 41.71875 45.5625 
Q 45.3125 48.734375 45.3125 54.390625 
Q 45.3125 60.0625 41.71875 63.234375 
Q 38.140625 66.40625 31.78125 66.40625 
Q 25.390625 66.40625 21.84375 63.234375 
Q 18.3125 60.0625 18.3125 54.390625 
z
" id="DejaVuSans-56"/>
      </defs>
      <g transform="translate(13.5625 140.112731)scale(0.1 -0.1)">
       <use xlink:href="#DejaVuSans-56"/>
       <use x="63.623047" xlink:href="#DejaVuSans-48"/>
       <use x="127.246094" xlink:href="#DejaVuSans-48"/>
       <use x="190.869141" xlink:href="#DejaVuSans-48"/>
      </g>
     </g>
    </g>
    <g id="ytick_5">
     <g id="line2d_15">
      <g>
       <use style="stroke:#000000;stroke-width:0.8;" x="46.0125" xlink:href="#m85a54d1d89" y="84.854218"/>
      </g>
     </g>
     <g id="text_12">
      <!-- 10000 -->
      <g transform="translate(7.2 88.653437)scale(0.1 -0.1)">
       <use xlink:href="#DejaVuSans-49"/>
       <use x="63.623047" xlink:href="#DejaVuSans-48"/>
       <use x="127.246094" xlink:href="#DejaVuSans-48"/>
       <use x="190.869141" xlink:href="#DejaVuSans-48"/>
       <use x="254.492188" xlink:href="#DejaVuSans-48"/>
      </g>
     </g>
    </g>
    <g id="ytick_6">
     <g id="line2d_16">
      <g>
       <use style="stroke:#000000;stroke-width:0.8;" x="46.0125" xlink:href="#m85a54d1d89" y="33.394924"/>
      </g>
     </g>
     <g id="text_13">
      <!-- 12000 -->
      <g transform="translate(7.2 37.194143)scale(0.1 -0.1)">
       <use xlink:href="#DejaVuSans-49"/>
       <use x="63.623047" xlink:href="#DejaVuSans-50"/>
       <use x="127.246094" xlink:href="#DejaVuSans-48"/>
       <use x="190.869141" xlink:href="#DejaVuSans-48"/>
       <use x="254.492188" xlink:href="#DejaVuSans-48"/>
      </g>
     </g>
    </g>
   </g>
   <g id="patch_3">
    <path d="M 46.0125 293.784375 
L 46.0125 21.984375 
" style="fill:none;stroke:#000000;stroke-linecap:square;stroke-linejoin:miter;stroke-width:0.8;"/>
   </g>
   <g id="patch_4">
    <path d="M 46.0125 293.784375 
L 492.4125 293.784375 
" style="fill:none;stroke:#000000;stroke-linecap:square;stroke-linejoin:miter;stroke-width:0.8;"/>
   </g>
   <g id="text_14">
    <!-- K_t -->
    <defs>
     <path d="M 9.8125 72.90625 
L 19.671875 72.90625 
L 19.671875 42.09375 
L 52.390625 72.90625 
L 65.09375 72.90625 
L 28.90625 38.921875 
L 67.671875 0 
L 54.6875 0 
L 19.671875 35.109375 
L 19.671875 0 
L 9.8125 0 
z
" id="DejaVuSans-75"/>
     <path d="M 50.984375 -16.609375 
L 50.984375 -23.578125 
L -0.984375 -23.578125 
L -0.984375 -16.609375 
z
" id="DejaVuSans-95"/>
     <path d="M 18.3125 70.21875 
L 18.3125 54.6875 
L 36.8125 54.6875 
L 36.8125 47.703125 
L 18.3125 47.703125 
L 18.3125 18.015625 
Q 18.3125 11.328125 20.140625 9.421875 
Q 21.96875 7.515625 27.59375 7.515625 
L 36.8125 7.515625 
L 36.8125 0 
L 27.59375 0 
Q 17.1875 0 13.234375 3.875 
Q 9.28125 7.765625 9.28125 18.015625 
L 9.28125 47.703125 
L 2.6875 47.703125 
L 2.6875 54.6875 
L 9.28125 54.6875 
L 9.28125 70.21875 
z
" id="DejaVuSans-116"/>
    </defs>
    <g transform="translate(259.925625 15.984375)scale(0.12 -0.12)">
     <use xlink:href="#DejaVuSans-75"/>
     <use x="65.576172" xlink:href="#DejaVuSans-95"/>
     <use x="115.576172" xlink:href="#DejaVuSans-116"/>
    </g>
   </g>
   <g id="legend_1">
    <g id="patch_5">
     <path d="M 499.4125 189.771094 
L 573.810937 189.771094 
Q 575.810937 189.771094 575.810937 187.771094 
L 575.810937 127.997656 
Q 575.810937 125.997656 573.810937 125.997656 
L 499.4125 125.997656 
Q 497.4125 125.997656 497.4125 127.997656 
L 497.4125 187.771094 
Q 497.4125 189.771094 499.4125 189.771094 
z
" style="fill:#ffffff;opacity:0.8;stroke:#cccccc;stroke-linejoin:miter;"/>
    </g>
    <g id="line2d_17">
     <path d="M 501.4125 134.096094 
L 521.4125 134.096094 
" style="fill:none;stroke:#000000;stroke-dasharray:3.7,1.6;stroke-dashoffset:0;"/>
    </g>
    <g id="line2d_18"/>
    <g id="text_15">
     <!-- Baseline -->
     <defs>
      <path d="M 19.671875 34.8125 
L 19.671875 8.109375 
L 35.5 8.109375 
Q 43.453125 8.109375 47.28125 11.40625 
Q 51.125 14.703125 51.125 21.484375 
Q 51.125 28.328125 47.28125 31.5625 
Q 43.453125 34.8125 35.5 34.8125 
z
M 19.671875 64.796875 
L 19.671875 42.828125 
L 34.28125 42.828125 
Q 41.5 42.828125 45.03125 45.53125 
Q 48.578125 48.25 48.578125 53.8125 
Q 48.578125 59.328125 45.03125 62.0625 
Q 41.5 64.796875 34.28125 64.796875 
z
M 9.8125 72.90625 
L 35.015625 72.90625 
Q 46.296875 72.90625 52.390625 68.21875 
Q 58.5 63.53125 58.5 54.890625 
Q 58.5 48.1875 55.375 44.234375 
Q 52.25 40.28125 46.1875 39.3125 
Q 53.46875 37.75 57.5 32.78125 
Q 61.53125 27.828125 61.53125 20.40625 
Q 61.53125 10.640625 54.890625 5.3125 
Q 48.25 0 35.984375 0 
L 9.8125 0 
z
" id="DejaVuSans-66"/>
      <path d="M 34.28125 27.484375 
Q 23.390625 27.484375 19.1875 25 
Q 14.984375 22.515625 14.984375 16.5 
Q 14.984375 11.71875 18.140625 8.90625 
Q 21.296875 6.109375 26.703125 6.109375 
Q 34.1875 6.109375 38.703125 11.40625 
Q 43.21875 16.703125 43.21875 25.484375 
L 43.21875 27.484375 
z
M 52.203125 31.203125 
L 52.203125 0 
L 43.21875 0 
L 43.21875 8.296875 
Q 40.140625 3.328125 35.546875 0.953125 
Q 30.953125 -1.421875 24.3125 -1.421875 
Q 15.921875 -1.421875 10.953125 3.296875 
Q 6 8.015625 6 15.921875 
Q 6 25.140625 12.171875 29.828125 
Q 18.359375 34.515625 30.609375 34.515625 
L 43.21875 34.515625 
L 43.21875 35.40625 
Q 43.21875 41.609375 39.140625 45 
Q 35.0625 48.390625 27.6875 48.390625 
Q 23 48.390625 18.546875 47.265625 
Q 14.109375 46.140625 10.015625 43.890625 
L 10.015625 52.203125 
Q 14.9375 54.109375 19.578125 55.046875 
Q 24.21875 56 28.609375 56 
Q 40.484375 56 46.34375 49.84375 
Q 52.203125 43.703125 52.203125 31.203125 
z
" id="DejaVuSans-97"/>
      <path d="M 44.28125 53.078125 
L 44.28125 44.578125 
Q 40.484375 46.53125 36.375 47.5 
Q 32.28125 48.484375 27.875 48.484375 
Q 21.1875 48.484375 17.84375 46.4375 
Q 14.5 44.390625 14.5 40.28125 
Q 14.5 37.15625 16.890625 35.375 
Q 19.28125 33.59375 26.515625 31.984375 
L 29.59375 31.296875 
Q 39.15625 29.25 43.1875 25.515625 
Q 47.21875 21.78125 47.21875 15.09375 
Q 47.21875 7.46875 41.1875 3.015625 
Q 35.15625 -1.421875 24.609375 -1.421875 
Q 20.21875 -1.421875 15.453125 -0.5625 
Q 10.6875 0.296875 5.421875 2 
L 5.421875 11.28125 
Q 10.40625 8.6875 15.234375 7.390625 
Q 20.0625 6.109375 24.8125 6.109375 
Q 31.15625 6.109375 34.5625 8.28125 
Q 37.984375 10.453125 37.984375 14.40625 
Q 37.984375 18.0625 35.515625 20.015625 
Q 33.0625 21.96875 24.703125 23.78125 
L 21.578125 24.515625 
Q 13.234375 26.265625 9.515625 29.90625 
Q 5.8125 33.546875 5.8125 39.890625 
Q 5.8125 47.609375 11.28125 51.796875 
Q 16.75 56 26.8125 56 
Q 31.78125 56 36.171875 55.265625 
Q 40.578125 54.546875 44.28125 53.078125 
z
" id="DejaVuSans-115"/>
      <path d="M 9.421875 75.984375 
L 18.40625 75.984375 
L 18.40625 0 
L 9.421875 0 
z
" id="DejaVuSans-108"/>
      <path d="M 9.421875 54.6875 
L 18.40625 54.6875 
L 18.40625 0 
L 9.421875 0 
z
M 9.421875 75.984375 
L 18.40625 75.984375 
L 18.40625 64.59375 
L 9.421875 64.59375 
z
" id="DejaVuSans-105"/>
      <path d="M 54.890625 33.015625 
L 54.890625 0 
L 45.90625 0 
L 45.90625 32.71875 
Q 45.90625 40.484375 42.875 44.328125 
Q 39.84375 48.1875 33.796875 48.1875 
Q 26.515625 48.1875 22.3125 43.546875 
Q 18.109375 38.921875 18.109375 30.90625 
L 18.109375 0 
L 9.078125 0 
L 9.078125 54.6875 
L 18.109375 54.6875 
L 18.109375 46.1875 
Q 21.34375 51.125 25.703125 53.5625 
Q 30.078125 56 35.796875 56 
Q 45.21875 56 50.046875 50.171875 
Q 54.890625 44.34375 54.890625 33.015625 
z
" id="DejaVuSans-110"/>
     </defs>
     <g transform="translate(529.4125 137.596094)scale(0.1 -0.1)">
      <use xlink:href="#DejaVuSans-66"/>
      <use x="68.603516" xlink:href="#DejaVuSans-97"/>
      <use x="129.882812" xlink:href="#DejaVuSans-115"/>
      <use x="181.982422" xlink:href="#DejaVuSans-101"/>
      <use x="243.505859" xlink:href="#DejaVuSans-108"/>
      <use x="271.289062" xlink:href="#DejaVuSans-105"/>
      <use x="299.072266" xlink:href="#DejaVuSans-110"/>
      <use x="362.451172" xlink:href="#DejaVuSans-101"/>
     </g>
    </g>
    <g id="line2d_19">
     <path d="M 501.4125 148.774219 
L 521.4125 148.774219 
" style="fill:none;stroke:#1f77b4;stroke-linecap:square;stroke-width:1.5;"/>
    </g>
    <g id="line2d_20"/>
    <g id="text_16">
     <!-- $\Downarrow \sigma_\psi$ -->
     <defs>
      <path d="M 36.765625 14.3125 
L 41.9375 9.234375 
L 47.015625 14.3125 
L 47.015625 72.90625 
L 52.875 72.90625 
L 52.875 20.171875 
L 57.46875 24.75 
L 63.328125 18.890625 
L 44.09375 -0.34375 
L 39.703125 -0.34375 
L 20.5625 18.890625 
L 26.421875 24.75 
L 30.90625 20.171875 
L 30.90625 72.90625 
L 36.765625 72.90625 
z
" id="DejaVuSans-8659"/>
      <path d="M 34.671875 47.5625 
Q 27.25 47.5625 22.21875 42.1875 
Q 16.890625 36.578125 15.140625 27.296875 
Q 13.1875 17.484375 16.3125 11.8125 
Q 19.390625 6.203125 26.65625 6.203125 
Q 33.84375 6.203125 39.109375 11.859375 
Q 44.4375 17.53125 46.34375 27.296875 
Q 48.046875 36.234375 45.015625 42.1875 
Q 42.1875 47.5625 34.671875 47.5625 
z
M 36.078125 54.734375 
L 65.921875 54.6875 
L 64.15625 45.703125 
L 54.109375 45.703125 
Q 57.90625 38.09375 55.859375 27.296875 
Q 53.21875 13.875 45.0625 6.25 
Q 36.859375 -1.421875 25.140625 -1.421875 
Q 13.375 -1.421875 8.203125 6.25 
Q 3.03125 13.875 5.671875 27.296875 
Q 8.25 40.765625 16.40625 48.390625 
Q 23.1875 54.734375 36.078125 54.734375 
z
" id="DejaVuSans-Oblique-963"/>
      <path d="M 24.859375 -1.21875 
Q 13.921875 0.59375 9.625 5.328125 
Q 4.34375 11.140625 6.640625 23 
L 12.796875 54.6875 
L 21.875 54.6875 
L 15.765625 23.34375 
Q 14.0625 14.40625 17.484375 10.6875 
Q 20.515625 7.46875 26.421875 6.78125 
L 35.6875 54.6875 
L 44.625 54.6875 
L 35.359375 6.84375 
Q 41.890625 7.515625 45.75 10.75 
Q 50.734375 14.84375 52.390625 23.390625 
L 58.453125 54.6875 
L 67.53125 54.6875 
L 61.375 23.046875 
Q 58.984375 10.75 51.5625 5.375 
Q 44.875 0.53125 33.796875 -1.171875 
L 29.984375 -20.796875 
L 21.046875 -20.796875 
z
" id="DejaVuSans-Oblique-968"/>
     </defs>
     <g transform="translate(529.4125 152.274219)scale(0.1 -0.1)">
      <use transform="translate(19.482422 0.09375)" xlink:href="#DejaVuSans-8659"/>
      <use transform="translate(122.753906 0.09375)" xlink:href="#DejaVuSans-Oblique-963"/>
      <use transform="translate(186.132812 -16.3125)scale(0.7)" xlink:href="#DejaVuSans-Oblique-968"/>
     </g>
    </g>
    <g id="line2d_21">
     <path d="M 501.4125 164.472656 
L 521.4125 164.472656 
" style="fill:none;stroke:#ff7f0e;stroke-linecap:square;stroke-width:1.5;"/>
    </g>
    <g id="line2d_22"/>
    <g id="text_17">
     <!-- $\Downarrow s_\psi$ -->
     <defs>
      <path d="M 50 53.078125 
L 48.296875 44.578125 
Q 44.734375 46.53125 40.765625 47.5 
Q 36.8125 48.484375 32.625 48.484375 
Q 25.53125 48.484375 21.453125 46.0625 
Q 17.390625 43.65625 17.390625 39.5 
Q 17.390625 34.671875 26.859375 32.078125 
Q 27.59375 31.890625 27.9375 31.78125 
L 30.8125 30.90625 
Q 39.796875 28.421875 42.796875 25.6875 
Q 45.796875 22.953125 45.796875 18.21875 
Q 45.796875 9.515625 38.890625 4.046875 
Q 31.984375 -1.421875 20.796875 -1.421875 
Q 16.453125 -1.421875 11.671875 -0.578125 
Q 6.890625 0.25 1.125 2 
L 2.875 11.28125 
Q 7.8125 8.734375 12.59375 7.421875 
Q 17.390625 6.109375 21.78125 6.109375 
Q 28.375 6.109375 32.5 8.9375 
Q 36.625 11.765625 36.625 16.109375 
Q 36.625 20.796875 25.78125 23.6875 
L 24.859375 23.921875 
L 21.78125 24.703125 
Q 14.9375 26.515625 11.765625 29.46875 
Q 8.59375 32.421875 8.59375 37.015625 
Q 8.59375 45.75 15.15625 50.875 
Q 21.734375 56 33.015625 56 
Q 37.453125 56 41.671875 55.265625 
Q 45.90625 54.546875 50 53.078125 
z
" id="DejaVuSans-Oblique-115"/>
     </defs>
     <g transform="translate(529.4125 167.972656)scale(0.1 -0.1)">
      <use transform="translate(19.482422 0.09375)" xlink:href="#DejaVuSans-8659"/>
      <use transform="translate(122.753906 0.09375)" xlink:href="#DejaVuSans-Oblique-115"/>
      <use transform="translate(174.853516 -16.3125)scale(0.7)" xlink:href="#DejaVuSans-Oblique-968"/>
     </g>
    </g>
    <g id="line2d_23">
     <path d="M 501.4125 180.171094 
L 521.4125 180.171094 
" style="fill:none;stroke:#2ca02c;stroke-linecap:square;stroke-width:1.5;"/>
    </g>
    <g id="line2d_24"/>
    <g id="text_18">
     <!-- $\Uparrow \eta$ -->
     <defs>
      <path d="M 36.765625 58.59375 
L 36.765625 0 
L 30.90625 0 
L 30.90625 52.734375 
L 26.421875 48.140625 
L 20.5625 54 
L 39.703125 73.25 
L 44.09375 73.25 
L 63.328125 54 
L 57.46875 48.140625 
L 52.875 52.734375 
L 52.875 0 
L 47.015625 0 
L 47.015625 58.59375 
L 41.9375 63.671875 
z
" id="DejaVuSans-8657"/>
      <path d="M 57.859375 33.015625 
L 47.40625 -20.796875 
L 38.421875 -20.796875 
L 48.828125 32.71875 
Q 50.34375 40.484375 48.046875 44.34375 
Q 45.796875 48.1875 39.75 48.1875 
Q 32.46875 48.1875 27.34375 43.5625 
Q 22.265625 38.921875 20.703125 30.90625 
L 14.703125 0 
L 5.671875 0 
L 16.3125 54.6875 
L 25.34375 54.6875 
L 23.6875 46.1875 
Q 27.828125 51.125 32.71875 53.5625 
Q 37.546875 56 43.265625 56 
Q 52.6875 56 56.390625 50.203125 
Q 60.0625 44.34375 57.859375 33.015625 
z
" id="DejaVuSans-Oblique-951"/>
     </defs>
     <g transform="translate(529.4125 183.671094)scale(0.1 -0.1)">
      <use transform="translate(19.482422 0.75)" xlink:href="#DejaVuSans-8657"/>
      <use transform="translate(122.753906 0.75)" xlink:href="#DejaVuSans-Oblique-951"/>
     </g>
    </g>
   </g>
  </g>
 </g>
 <defs>
  <clipPath id="p8074db80a9">
   <rect height="271.8" width="446.4" x="46.0125" y="21.984375"/>
  </clipPath>
 </defs>
</svg>
