<?xml version="1.0" encoding="utf-8" standalone="no"?>
<!DOCTYPE svg PUBLIC "-//W3C//DTD SVG 1.1//EN"
  "http://www.w3.org/Graphics/SVG/1.1/DTD/svg11.dtd">
<!-- Created with matplotlib (https://matplotlib.org/) -->
<svg height="331.674375pt" version="1.1" viewBox="0 0 581.84375 331.674375" width="581.84375pt" xmlns="http://www.w3.org/2000/svg" xmlns:xlink="http://www.w3.org/1999/xlink">
 <defs>
  <style type="text/css">
*{stroke-linecap:butt;stroke-linejoin:round;}
  </style>
 </defs>
 <g id="figure_1">
  <g id="patch_1">
   <path d="M 0 331.674375 
L 581.84375 331.674375 
L 581.84375 0 
L 0 0 
z
" style="fill:#ffffff;"/>
  </g>
  <g id="axes_1">
   <g id="patch_2">
    <path d="M 44.845313 294.118125 
L 491.245312 294.118125 
L 491.245312 22.318125 
L 44.845313 22.318125 
z
" style="fill:#ffffff;"/>
   </g>
   <g id="line2d_1">
    <path clip-path="url(#pb03574a0c7)" d="M 65.136222 177.260038 
L 65.862193 176.830226 
L 66.588165 183.50306 
L 67.314137 175.478905 
L 68.040108 178.288685 
L 70.218024 180.054604 
L 70.943995 182.586313 
L 71.669967 181.649289 
L 72.395939 189.434253 
L 73.12191 177.201472 
L 73.847882 181.581235 
L 74.573854 183.821332 
L 75.299825 183.420227 
L 76.025797 181.05925 
L 76.751769 175.667179 
L 77.477741 178.219355 
L 78.203712 176.292471 
L 78.929684 177.255889 
L 79.655656 174.817306 
L 80.381627 171.925854 
L 81.107599 173.5233 
L 81.833571 169.30611 
L 82.559542 172.289504 
L 83.285514 173.714603 
L 84.011486 176.191277 
L 84.737458 183.4409 
L 85.463429 189.03473 
L 86.189401 180.409616 
L 86.915373 187.670135 
L 87.641344 183.201817 
L 88.367316 180.165903 
L 89.093288 174.757753 
L 89.819259 177.740654 
L 90.545231 183.789367 
L 91.271203 188.076865 
L 91.997175 190.59417 
L 92.723146 182.164281 
L 93.449118 177.947381 
L 94.17509 171.681148 
L 94.901061 173.425146 
L 95.627033 170.248371 
L 96.353005 165.662394 
L 97.078977 166.016797 
L 97.804948 165.903393 
L 98.53092 166.149705 
L 99.256892 161.437168 
L 99.982863 163.865649 
L 100.708835 158.350654 
L 101.434807 159.795518 
L 102.160778 154.177017 
L 102.88675 151.321995 
L 103.612722 152.764353 
L 104.338694 146.037873 
L 105.790637 136.837666 
L 106.516609 147.417144 
L 107.24258 153.133463 
L 107.968552 156.537117 
L 108.694524 158.901224 
L 109.420495 161.69261 
L 110.146467 170.458639 
L 110.872439 161.819027 
L 111.598411 161.401795 
L 112.324382 164.003994 
L 113.050354 170.97362 
L 113.776326 172.25867 
L 114.502297 175.569695 
L 115.228269 178.33876 
L 115.954241 181.573671 
L 116.680212 190.394192 
L 117.406184 195.807347 
L 118.132156 189.298389 
L 118.858128 192.015744 
L 119.584099 193.52723 
L 120.310071 196.095402 
L 121.036043 200.003439 
L 123.213958 204.208168 
L 123.93993 210.379989 
L 124.665901 205.582941 
L 125.391873 206.704866 
L 126.117845 208.147949 
L 126.843816 217.21119 
L 127.569788 211.360881 
L 128.29576 217.1683 
L 129.021731 217.706488 
L 129.747703 212.914171 
L 130.473675 215.884484 
L 131.199647 217.478861 
L 131.925618 223.510952 
L 132.65159 227.464529 
L 133.377562 229.078147 
L 134.103533 231.264608 
L 134.829505 236.687338 
L 135.555477 237.443807 
L 136.281448 238.455148 
L 137.00742 234.435797 
L 137.733392 231.366046 
L 138.459364 232.463836 
L 139.185335 237.290368 
L 139.911307 237.954463 
L 140.637279 242.401866 
L 141.36325 237.131467 
L 142.089222 234.378093 
L 142.815194 236.501056 
L 143.541165 236.946349 
L 144.267137 236.283262 
L 144.993109 237.861608 
L 145.719081 237.574699 
L 146.445052 243.023779 
L 147.171024 237.252627 
L 147.896996 233.75178 
L 148.622967 233.872398 
L 149.348939 233.468641 
L 150.074911 233.46696 
L 150.800883 223.328951 
L 151.526854 220.272983 
L 152.252826 223.362802 
L 152.978798 222.786112 
L 153.704769 221.977399 
L 155.156713 221.446124 
L 155.882684 222.471649 
L 156.608656 222.503265 
L 157.334628 222.708612 
L 158.0606 230.082872 
L 158.786571 232.450191 
L 159.512543 233.409798 
L 160.238515 233.206027 
L 160.964486 233.882564 
L 161.690458 224.641366 
L 163.142401 228.439759 
L 163.868373 229.003648 
L 164.594345 228.369855 
L 165.320317 228.086869 
L 166.046288 228.080931 
L 166.77226 228.512822 
L 167.498232 226.625398 
L 168.224203 227.487204 
L 168.950175 226.989247 
L 169.676147 225.807298 
L 170.402118 231.94825 
L 171.12809 231.735019 
L 171.854062 232.835845 
L 172.580034 220.350631 
L 173.306005 214.044489 
L 174.757949 193.887567 
L 175.48392 191.091951 
L 176.209892 190.01487 
L 176.935864 195.588245 
L 177.661836 177.082421 
L 178.387807 179.837214 
L 179.113779 168.570529 
L 179.839751 168.058032 
L 180.565722 167.825979 
L 181.291694 169.236055 
L 182.017666 170.013443 
L 182.743637 170.448695 
L 183.469609 173.163384 
L 184.195581 171.366913 
L 184.921553 170.173007 
L 185.647524 171.41939 
L 186.373496 170.156896 
L 187.099468 175.347363 
L 188.551411 187.627341 
L 189.277383 175.359702 
L 190.003354 168.970785 
L 190.729326 180.302545 
L 191.455298 181.65224 
L 192.18127 183.545575 
L 192.907241 186.659394 
L 193.633213 188.449551 
L 194.359185 187.642577 
L 195.085156 188.539918 
L 195.811128 189.98818 
L 196.5371 197.221392 
L 197.263071 198.468095 
L 197.989043 203.022458 
L 198.715015 208.374488 
L 199.440987 209.378559 
L 200.166958 215.031684 
L 200.89293 218.002468 
L 201.618902 220.003848 
L 202.344873 220.691856 
L 203.070845 220.243254 
L 203.796817 220.239256 
L 205.24876 227.684215 
L 205.974732 229.017732 
L 206.700704 229.774117 
L 207.426675 225.457342 
L 208.152647 228.85769 
L 208.878619 233.495613 
L 209.60459 235.253644 
L 210.330562 236.523703 
L 211.056534 239.8054 
L 211.782506 241.156325 
L 212.508477 241.613107 
L 213.234449 234.988053 
L 213.960421 230.415177 
L 215.412364 230.594807 
L 216.138336 229.224374 
L 217.590279 216.893157 
L 218.316251 216.574519 
L 219.042223 206.325536 
L 219.768194 203.045899 
L 220.494166 204.127688 
L 221.220138 203.120552 
L 221.946109 202.530329 
L 222.672081 202.854359 
L 224.124024 197.730493 
L 224.849996 197.408353 
L 225.575968 198.992269 
L 226.30194 197.638253 
L 227.027911 197.179437 
L 227.753883 197.742796 
L 228.479855 197.539084 
L 229.205826 196.02403 
L 229.931798 199.235382 
L 230.65777 198.207358 
L 231.383742 196.180558 
L 232.109713 187.195374 
L 232.835685 190.14502 
L 233.561657 188.647457 
L 234.287628 178.393621 
L 235.0136 171.75677 
L 235.739572 170.269941 
L 236.465543 170.724998 
L 237.191515 156.05984 
L 237.917487 154.119868 
L 238.643459 144.190913 
L 239.36943 144.405442 
L 240.095402 143.48551 
L 240.821374 131.495793 
L 241.547345 122.749847 
L 242.273317 123.380758 
L 242.999289 108.936974 
L 243.72526 110.070564 
L 244.451232 110.176457 
L 245.177204 111.3677 
L 245.903176 119.228156 
L 246.629147 108.483432 
L 247.355119 102.985162 
L 248.081091 103.277159 
L 248.807062 106.491941 
L 249.533034 108.714852 
L 250.259006 112.170529 
L 250.984977 112.087629 
L 251.710949 112.350388 
L 252.436921 114.426048 
L 253.162893 116.003941 
L 253.888864 113.785146 
L 254.614836 117.124497 
L 255.340808 119.876202 
L 256.066779 117.179281 
L 256.792751 120.164338 
L 257.518723 118.602953 
L 258.244695 118.262899 
L 258.970666 114.532218 
L 259.696638 117.955828 
L 260.42261 121.994826 
L 261.148581 115.70538 
L 262.600525 134.1249 
L 264.052468 143.761446 
L 264.77844 153.01219 
L 265.504412 147.250222 
L 266.230383 159.49096 
L 267.682327 169.189072 
L 268.408298 176.122809 
L 269.13427 174.577514 
L 269.860242 178.110967 
L 270.586213 178.024471 
L 272.038157 186.912496 
L 272.764129 189.763059 
L 273.4901 197.522879 
L 274.216072 192.764045 
L 274.942044 191.637017 
L 275.668015 196.541753 
L 276.393987 198.281371 
L 277.84593 203.381079 
L 278.571902 205.282497 
L 279.297874 208.480323 
L 280.023846 213.799164 
L 280.749817 218.044442 
L 281.475789 220.726681 
L 282.201761 216.343075 
L 282.927732 219.221309 
L 283.653704 220.985808 
L 285.105648 223.36071 
L 285.831619 225.396635 
L 286.557591 226.459625 
L 287.283563 228.67098 
L 288.009534 232.637432 
L 288.735506 234.731585 
L 289.461478 239.379015 
L 290.187449 239.28416 
L 290.913421 236.521767 
L 291.639393 236.285131 
L 292.365365 233.382182 
L 293.091336 233.559004 
L 293.817308 236.003542 
L 294.54328 232.603276 
L 295.269251 230.113691 
L 295.995223 231.252786 
L 296.721195 230.27175 
L 297.447166 230.385829 
L 298.173138 224.389245 
L 298.89911 225.335207 
L 299.625082 225.305546 
L 300.351053 224.578553 
L 301.077025 224.904978 
L 301.802997 225.385705 
L 302.528968 225.26782 
L 303.25494 225.498712 
L 303.980912 224.916736 
L 304.706883 224.97268 
L 305.432855 224.509723 
L 306.158827 217.901649 
L 306.884799 218.544134 
L 307.61077 222.709347 
L 308.336742 222.021162 
L 309.062714 221.785152 
L 310.514657 220.295053 
L 311.240629 219.870528 
L 311.966601 220.274067 
L 312.692572 222.751241 
L 313.418544 222.967462 
L 314.870487 217.982778 
L 315.596459 214.907022 
L 316.322431 215.624921 
L 317.048402 215.141526 
L 317.774374 215.107169 
L 318.500346 207.456723 
L 319.226318 208.478746 
L 319.952289 208.639409 
L 320.678261 207.644148 
L 321.404233 206.210444 
L 322.130204 197.625254 
L 322.856176 198.403957 
L 323.582148 198.215877 
L 324.308119 203.093291 
L 325.034091 200.965932 
L 325.760063 200.866538 
L 326.486035 189.493267 
L 327.212006 190.532757 
L 327.937978 189.067075 
L 328.66395 192.833189 
L 329.389921 186.630864 
L 330.115893 187.310662 
L 330.841865 186.212428 
L 331.567836 186.022824 
L 332.293808 180.682755 
L 333.01978 178.187429 
L 333.745752 174.043926 
L 334.471723 167.205721 
L 335.197695 169.528514 
L 335.923667 160.420118 
L 336.649638 167.58373 
L 338.101582 167.935678 
L 338.827554 162.806251 
L 339.553525 163.368375 
L 340.279497 165.773262 
L 341.005469 162.599813 
L 341.73144 166.495789 
L 342.457412 168.238864 
L 343.183384 173.391106 
L 343.909355 177.393974 
L 344.635327 174.217937 
L 345.361299 173.630175 
L 346.087271 175.325663 
L 346.813242 177.51191 
L 347.539214 175.682261 
L 348.265186 174.667911 
L 348.991157 176.612286 
L 349.717129 178.906387 
L 350.443101 177.325628 
L 351.169072 174.810867 
L 351.895044 178.048908 
L 352.621016 181.817306 
L 353.346988 183.472233 
L 354.072959 182.635402 
L 354.798931 184.728459 
L 355.524903 184.126216 
L 356.250874 183.364961 
L 356.976846 182.851166 
L 357.702818 182.532169 
L 359.154761 187.234322 
L 359.880733 185.964794 
L 361.332676 189.944359 
L 362.058648 189.74575 
L 362.78462 192.252045 
L 363.510591 191.312307 
L 364.236563 192.957013 
L 364.962535 195.183498 
L 365.688507 196.738972 
L 366.414478 198.848066 
L 367.14045 199.932418 
L 367.866422 197.017662 
L 368.592393 200.693458 
L 369.318365 198.969625 
L 370.044337 200.405181 
L 370.770308 198.943716 
L 371.49628 199.101599 
L 372.222252 198.460049 
L 375.126139 203.598452 
L 375.85211 206.130971 
L 376.578082 207.14191 
L 377.304054 206.298988 
L 378.030025 205.660974 
L 378.755997 206.762497 
L 379.481969 205.685313 
L 380.207941 207.061416 
L 380.933912 208.045885 
L 381.659884 206.559219 
L 382.385856 209.161592 
L 383.111827 207.400791 
L 383.837799 206.147506 
L 384.563771 207.656309 
L 385.289742 209.636474 
L 386.015714 210.24702 
L 386.741686 211.317373 
L 387.467658 212.637467 
L 388.193629 213.194793 
L 388.919601 214.357502 
L 389.645573 211.251211 
L 390.371544 209.620122 
L 391.097516 208.310024 
L 392.54946 209.702865 
L 395.453346 202.354707 
L 396.179318 203.088184 
L 396.90529 201.218525 
L 397.631261 202.859792 
L 399.083205 203.799913 
L 399.809177 204.424486 
L 400.535148 204.555178 
L 401.26112 201.371636 
L 401.987092 202.991048 
L 402.713063 203.791339 
L 403.439035 203.909212 
L 404.165007 203.712715 
L 404.890978 204.171905 
L 405.61695 200.705886 
L 407.068894 195.102487 
L 407.794865 195.087686 
L 408.520837 194.466375 
L 409.246809 195.698977 
L 409.97278 191.390681 
L 410.698752 191.912752 
L 411.424724 187.858667 
L 412.150695 187.843907 
L 412.876667 187.36885 
L 413.602639 187.372136 
L 414.328611 183.50062 
L 415.054582 180.344666 
L 415.780554 178.371089 
L 416.506526 178.510827 
L 417.232497 175.716108 
L 418.684441 168.684642 
L 419.410413 171.068999 
L 420.136384 170.963737 
L 420.862356 167.06773 
L 422.314299 160.769178 
L 423.040271 156.999511 
L 423.766243 159.307641 
L 424.492214 154.555213 
L 425.218186 155.464097 
L 425.944158 153.947461 
L 426.67013 151.793842 
L 427.396101 153.381466 
L 428.122073 154.308514 
L 428.848045 157.305756 
L 429.574016 156.023216 
L 430.299988 159.777099 
L 431.02596 159.534162 
L 431.751931 160.054936 
L 432.477903 162.959675 
L 433.203875 162.853511 
L 433.929847 163.504883 
L 434.655818 164.346142 
L 435.38179 167.54483 
L 436.107762 167.976935 
L 436.833733 171.445623 
L 437.559705 172.021696 
L 440.463592 185.326242 
L 441.189564 185.99512 
L 441.915535 189.801153 
L 445.545394 203.141631 
L 447.723309 205.059729 
L 448.449281 205.895312 
L 449.175252 206.155473 
L 449.901224 206.946443 
L 450.627196 208.859513 
L 451.353167 208.813208 
L 452.079139 210.522776 
L 452.805111 210.540914 
L 454.257054 213.270476 
L 454.983026 213.059048 
L 455.708998 213.21525 
L 456.434969 213.232898 
L 457.160941 214.549798 
L 458.612884 214.043129 
L 459.338856 213.472657 
L 460.064828 213.433506 
L 460.7908 212.923929 
L 461.516771 213.929061 
L 462.242743 212.929459 
L 462.968715 212.464295 
L 463.694686 212.230406 
L 465.14663 213.334318 
L 466.598573 212.281445 
L 467.324545 211.652757 
L 468.776488 212.991027 
L 469.50246 212.24386 
L 470.954403 211.089736 
L 470.954403 211.089736 
" style="fill:none;stroke:#1f77b4;stroke-linecap:square;stroke-width:1.5;"/>
   </g>
   <g id="line2d_2">
    <path clip-path="url(#pb03574a0c7)" d="M 65.136222 195.467181 
L 65.862193 191.107276 
L 66.588165 195.024298 
L 67.314137 193.364561 
L 68.040108 194.246597 
L 68.76608 194.805291 
L 69.492052 193.528816 
L 70.218024 191.740404 
L 70.943995 191.894436 
L 71.669967 184.364412 
L 72.395939 186.134927 
L 73.12191 183.650304 
L 74.573854 181.468431 
L 75.299825 179.702787 
L 76.025797 185.231264 
L 76.751769 185.455252 
L 77.477741 188.072011 
L 78.203712 196.711555 
L 78.929684 189.607203 
L 79.655656 197.727327 
L 80.381627 198.468688 
L 81.107599 198.941049 
L 81.833571 203.323337 
L 82.559542 206.436517 
L 83.285514 207.344223 
L 84.011486 203.891536 
L 84.737458 206.281943 
L 85.463429 203.01209 
L 86.189401 202.297022 
L 86.915373 201.080345 
L 87.641344 199.273081 
L 88.367316 196.384661 
L 89.093288 194.116719 
L 89.819259 188.843459 
L 90.545231 191.87104 
L 91.271203 192.944173 
L 91.997175 192.247414 
L 92.723146 191.906269 
L 93.449118 190.561439 
L 94.17509 191.208991 
L 94.901061 193.528487 
L 95.627033 197.157922 
L 96.353005 198.789782 
L 97.078977 200.047279 
L 97.804948 201.644115 
L 98.53092 208.99886 
L 99.256892 208.624033 
L 99.982863 215.220563 
L 100.708835 206.699446 
L 101.434807 205.71501 
L 102.160778 200.619558 
L 102.88675 199.937764 
L 103.612722 198.280848 
L 104.338694 197.264657 
L 105.064665 190.424968 
L 105.790637 188.360139 
L 106.516609 191.716671 
L 107.24258 192.714593 
L 107.968552 192.995664 
L 108.694524 193.013795 
L 109.420495 193.498933 
L 110.146467 199.272186 
L 110.872439 197.274547 
L 111.598411 196.135901 
L 112.324382 195.721308 
L 113.050354 198.660274 
L 113.776326 197.520449 
L 114.502297 195.932056 
L 115.228269 195.702916 
L 115.954241 195.864017 
L 117.406184 203.736139 
L 118.132156 204.379008 
L 118.858128 205.212893 
L 119.584099 204.694516 
L 120.310071 197.254956 
L 121.036043 197.972219 
L 121.762014 199.462028 
L 122.487986 190.905773 
L 123.213958 189.871051 
L 123.93993 186.749369 
L 125.391873 183.33039 
L 126.117845 182.17614 
L 126.843816 189.877897 
L 127.569788 192.877255 
L 128.29576 187.83398 
L 129.021731 183.647377 
L 129.747703 182.632386 
L 130.473675 180.858145 
L 131.199647 175.758796 
L 131.925618 180.798902 
L 132.65159 180.502969 
L 134.103533 170.078593 
L 134.829505 173.419533 
L 135.555477 171.415903 
L 136.281448 171.04677 
L 137.00742 174.121988 
L 137.733392 171.23943 
L 138.459364 171.47102 
L 139.185335 177.141805 
L 139.911307 170.029214 
L 140.637279 174.796405 
L 141.36325 175.545604 
L 142.089222 175.619096 
L 142.815194 177.130907 
L 143.541165 177.149302 
L 144.267137 177.811204 
L 144.993109 179.053079 
L 145.719081 180.01063 
L 146.445052 188.125651 
L 147.171024 192.632522 
L 147.896996 195.187675 
L 149.348939 199.261281 
L 150.800883 202.351911 
L 151.526854 205.888965 
L 152.252826 212.262359 
L 153.704769 215.584487 
L 154.430741 216.933384 
L 155.882684 221.974196 
L 156.608656 223.328581 
L 157.334628 225.387212 
L 158.0606 234.066472 
L 158.786571 238.099112 
L 159.512543 237.013753 
L 160.238515 235.657834 
L 160.964486 235.314812 
L 161.690458 234.013816 
L 162.41643 234.125937 
L 163.142401 234.686627 
L 163.868373 228.29801 
L 164.594345 227.833395 
L 165.320317 227.044638 
L 166.046288 219.169607 
L 167.498232 214.870948 
L 168.224203 215.756413 
L 168.950175 214.472998 
L 169.676147 214.006993 
L 170.402118 220.213377 
L 171.12809 221.238562 
L 171.854062 218.708931 
L 172.580034 218.850964 
L 173.306005 216.682758 
L 174.031977 209.053068 
L 174.757949 205.040894 
L 175.48392 197.425211 
L 176.209892 194.076603 
L 176.935864 197.289489 
L 177.661836 193.011269 
L 178.387807 198.620642 
L 179.113779 195.315861 
L 179.839751 192.941345 
L 180.565722 191.902552 
L 181.291694 182.470843 
L 182.017666 182.874202 
L 182.743637 170.112083 
L 183.469609 165.420847 
L 184.195581 159.139064 
L 186.373496 129.890516 
L 187.099468 125.981837 
L 187.825439 128.543647 
L 188.551411 127.089903 
L 189.277383 121.239877 
L 190.003354 117.499126 
L 190.729326 121.96531 
L 191.455298 120.060655 
L 192.18127 112.129408 
L 192.907241 110.867798 
L 193.633213 107.812888 
L 195.085156 105.492463 
L 195.811128 110.113879 
L 196.5371 115.452 
L 197.263071 112.154381 
L 197.989043 118.217921 
L 198.715015 125.554058 
L 199.440987 127.207597 
L 200.166958 136.517636 
L 200.89293 143.959798 
L 201.618902 144.328402 
L 202.344873 146.706173 
L 203.070845 149.9875 
L 203.796817 154.239023 
L 204.522789 164.210168 
L 205.24876 171.346111 
L 205.974732 177.15915 
L 206.700704 181.169934 
L 207.426675 189.390913 
L 208.152647 194.591303 
L 208.878619 202.280402 
L 210.330562 210.918317 
L 211.056534 216.644113 
L 211.782506 218.347277 
L 212.508477 221.146112 
L 213.234449 222.222756 
L 213.960421 223.80797 
L 214.686392 226.101585 
L 215.412364 227.680793 
L 216.138336 226.241038 
L 216.864307 229.779713 
L 217.590279 230.453748 
L 218.316251 231.5766 
L 219.042223 233.307153 
L 219.768194 235.554538 
L 220.494166 238.519353 
L 221.220138 239.645808 
L 221.946109 239.515055 
L 222.672081 241.034355 
L 223.398053 238.853689 
L 224.124024 239.603007 
L 224.849996 240.700105 
L 225.575968 242.638718 
L 226.30194 243.296777 
L 227.027911 244.173865 
L 227.753883 245.412551 
L 228.479855 246.221497 
L 229.205826 247.366447 
L 229.931798 250.515087 
L 230.65777 251.367831 
L 231.383742 251.592663 
L 232.109713 253.638366 
L 232.835685 256.073416 
L 233.561657 256.885151 
L 234.287628 258.654466 
L 235.0136 259.351692 
L 235.739572 259.845823 
L 236.465543 261.341844 
L 237.191515 261.9392 
L 237.917487 264.534578 
L 238.643459 263.580492 
L 239.36943 264.449941 
L 240.095402 260.196451 
L 240.821374 259.079545 
L 241.547345 258.429303 
L 242.273317 258.434097 
L 242.999289 256.086728 
L 243.72526 252.500021 
L 244.451232 252.307001 
L 245.177204 251.246122 
L 245.903176 253.466501 
L 246.629147 252.490845 
L 247.355119 248.781957 
L 248.081091 244.270764 
L 249.533034 241.620675 
L 250.259006 241.184673 
L 250.984977 240.161714 
L 251.710949 242.817068 
L 252.436921 241.493895 
L 253.162893 236.283597 
L 253.888864 236.016391 
L 254.614836 232.4252 
L 255.340808 230.755178 
L 256.066779 227.289395 
L 256.792751 224.813988 
L 257.518723 221.855669 
L 258.244695 218.163545 
L 258.970666 215.913165 
L 259.696638 212.369652 
L 260.42261 209.858515 
L 261.148581 207.960838 
L 261.874553 201.405327 
L 262.600525 201.214382 
L 263.326496 199.051284 
L 264.052468 197.492741 
L 264.77844 198.952194 
L 265.504412 197.387393 
L 266.230383 199.531897 
L 266.956355 199.115031 
L 267.682327 199.477288 
L 268.408298 201.493504 
L 269.13427 200.415756 
L 269.860242 198.296581 
L 271.312185 188.465704 
L 272.038157 186.694718 
L 272.764129 183.417931 
L 273.4901 186.213875 
L 274.216072 177.891435 
L 274.942044 171.583242 
L 275.668015 170.613994 
L 276.393987 165.687166 
L 277.119959 164.586985 
L 277.84593 163.139669 
L 278.571902 160.346633 
L 279.297874 159.30581 
L 280.023846 163.195455 
L 280.749817 163.896761 
L 281.475789 154.555604 
L 282.927732 150.36001 
L 283.653704 144.37995 
L 284.379676 141.754663 
L 285.105648 140.327604 
L 285.831619 131.807123 
L 286.557591 129.126098 
L 287.283563 122.311966 
L 288.009534 124.952011 
L 288.735506 118.356048 
L 289.461478 122.159775 
L 290.913421 112.34538 
L 291.639393 114.139482 
L 292.365365 108.366652 
L 293.091336 110.183283 
L 293.817308 109.907628 
L 294.54328 109.181332 
L 295.269251 104.577562 
L 295.995223 103.038621 
L 296.721195 97.33986 
L 297.447166 95.221821 
L 298.173138 88.781142 
L 298.89911 87.977256 
L 299.625082 86.943384 
L 300.351053 87.332831 
L 301.077025 88.344451 
L 302.528968 93.309491 
L 303.25494 96.657223 
L 303.980912 92.283469 
L 304.706883 91.695126 
L 305.432855 87.743108 
L 306.158827 90.441159 
L 306.884799 91.177002 
L 307.61077 103.584714 
L 308.336742 103.767583 
L 309.062714 104.913722 
L 309.788685 103.613974 
L 310.514657 103.596245 
L 311.240629 101.804804 
L 312.692572 111.723178 
L 313.418544 114.340916 
L 314.144516 123.100802 
L 314.870487 128.749666 
L 315.596459 133.480856 
L 316.322431 136.309657 
L 317.774374 143.906671 
L 318.500346 149.12 
L 319.226318 153.017085 
L 320.678261 163.618985 
L 321.404233 164.196692 
L 322.856176 172.233811 
L 323.582148 176.323515 
L 324.308119 185.376023 
L 325.034091 185.564164 
L 327.937978 197.973285 
L 328.66395 205.715801 
L 329.389921 211.587802 
L 330.115893 215.800006 
L 331.567836 221.9484 
L 332.293808 228.063508 
L 333.745752 237.420355 
L 334.471723 237.346969 
L 335.197695 240.633497 
L 335.923667 242.63538 
L 336.649638 247.144755 
L 338.101582 251.384533 
L 338.827554 254.496445 
L 339.553525 253.999444 
L 340.279497 254.966265 
L 341.005469 257.769283 
L 341.73144 260.026367 
L 342.457412 260.221752 
L 343.183384 262.626279 
L 345.361299 267.801197 
L 346.087271 268.806899 
L 346.813242 270.083121 
L 347.539214 271.989131 
L 348.265186 273.553269 
L 349.717129 275.415188 
L 350.443101 276.76711 
L 351.169072 277.180292 
L 351.895044 278.170507 
L 352.621016 279.789839 
L 354.798931 281.76358 
L 355.524903 280.983065 
L 356.250874 281.633713 
L 356.976846 280.823104 
L 357.702818 280.984631 
L 359.154761 280.59207 
L 359.880733 280.264349 
L 360.606705 279.669424 
L 361.332676 279.225933 
L 362.058648 279.17968 
L 362.78462 278.631504 
L 363.510591 276.960871 
L 364.962535 275.386418 
L 365.688507 273.900037 
L 366.414478 271.627116 
L 367.866422 268.819647 
L 368.592393 267.951559 
L 369.318365 266.879651 
L 370.044337 263.348705 
L 371.49628 257.699963 
L 372.948224 250.093516 
L 374.400167 243.414918 
L 375.85211 235.845544 
L 377.304054 225.610774 
L 379.481969 211.463233 
L 380.207941 204.508171 
L 381.659884 194.409471 
L 382.385856 191.249527 
L 383.837799 180.950665 
L 384.563771 174.079386 
L 385.289742 170.308604 
L 387.467658 154.408255 
L 388.193629 147.080447 
L 389.645573 137.521057 
L 390.371544 130.753294 
L 391.097516 127.964503 
L 391.823488 122.743762 
L 392.54946 116.043118 
L 393.275431 111.478276 
L 394.001403 104.240673 
L 394.727375 98.532123 
L 395.453346 90.812482 
L 396.179318 84.664338 
L 396.90529 80.186522 
L 397.631261 76.830284 
L 399.083205 65.292585 
L 399.809177 60.274074 
L 400.535148 56.372662 
L 401.26112 53.349769 
L 401.987092 52.108357 
L 403.439035 48.406611 
L 404.165007 44.887179 
L 404.890978 43.641118 
L 406.342922 38.868445 
L 408.520837 34.985852 
L 409.246809 36.233152 
L 409.97278 34.67267 
L 410.698752 35.771917 
L 411.424724 35.783227 
L 412.150695 36.932462 
L 412.876667 37.030704 
L 413.602639 38.846189 
L 414.328611 41.583792 
L 415.054582 44.821662 
L 415.780554 50.36816 
L 416.506526 53.952696 
L 417.232497 60.77801 
L 418.684441 66.988958 
L 419.410413 74.481959 
L 423.040271 91.079456 
L 423.766243 97.394374 
L 424.492214 101.147986 
L 425.218186 105.94169 
L 425.944158 113.167894 
L 426.67013 117.706155 
L 428.122073 128.260103 
L 429.574016 143.489702 
L 432.477903 169.900562 
L 434.655818 187.497205 
L 437.559705 207.30961 
L 440.463592 222.83722 
L 441.915535 229.417584 
L 444.09345 237.593203 
L 445.545394 242.317418 
L 446.997337 246.504586 
L 448.449281 249.991654 
L 450.627196 253.993551 
L 452.079139 256.091394 
L 452.805111 257.105153 
L 455.708998 259.905638 
L 456.434969 260.406825 
L 459.338856 261.365593 
L 461.516771 261.503655 
L 462.242743 261.445382 
L 462.968715 261.255075 
L 464.420658 260.442782 
L 466.598573 259.014098 
L 467.324545 258.371799 
L 468.776488 256.658952 
L 469.50246 255.971567 
L 470.954403 253.964273 
L 470.954403 253.964273 
" style="fill:none;stroke:#ff7f0e;stroke-linecap:square;stroke-width:1.5;"/>
   </g>
   <g id="line2d_3">
    <path clip-path="url(#pb03574a0c7)" d="M 65.136222 168.648712 
L 65.862193 166.510641 
L 66.588165 172.820921 
L 67.314137 172.843681 
L 68.040108 174.073488 
L 68.76608 171.918772 
L 69.492052 171.121709 
L 70.218024 163.093043 
L 70.943995 161.046968 
L 71.669967 156.474101 
L 72.395939 161.007834 
L 73.12191 158.410507 
L 73.847882 159.368274 
L 74.573854 159.119114 
L 75.299825 157.616594 
L 76.025797 164.528885 
L 76.751769 155.384343 
L 77.477741 157.602107 
L 78.203712 159.417048 
L 78.929684 157.97992 
L 79.655656 161.194795 
L 81.107599 160.456027 
L 81.833571 159.398162 
L 82.559542 160.812916 
L 83.285514 158.70179 
L 84.011486 158.532817 
L 84.737458 164.546081 
L 85.463429 167.05719 
L 86.189401 167.526952 
L 87.641344 176.926051 
L 88.367316 177.678149 
L 89.093288 173.429872 
L 89.819259 172.723643 
L 90.545231 178.943651 
L 91.271203 181.941913 
L 91.997175 182.602238 
L 92.723146 178.144633 
L 93.449118 178.604802 
L 94.17509 177.12937 
L 94.901061 176.440551 
L 95.627033 179.963147 
L 96.353005 179.198561 
L 97.078977 178.882523 
L 97.804948 173.605616 
L 98.53092 178.433809 
L 99.256892 177.827196 
L 99.982863 180.256553 
L 100.708835 180.282354 
L 101.434807 180.485041 
L 102.160778 181.987604 
L 104.338694 175.674849 
L 105.064665 174.827345 
L 105.790637 171.193317 
L 106.516609 175.145322 
L 107.24258 176.870445 
L 107.968552 177.17651 
L 108.694524 175.393095 
L 109.420495 175.240735 
L 110.146467 181.725922 
L 110.872439 181.818116 
L 111.598411 183.36411 
L 112.324382 188.883379 
L 113.050354 193.465764 
L 113.776326 194.140753 
L 114.502297 195.673257 
L 115.228269 195.182067 
L 115.954241 196.437355 
L 116.680212 202.356029 
L 117.406184 206.025912 
L 118.132156 202.575476 
L 118.858128 203.85707 
L 119.584099 201.042759 
L 120.310071 199.992705 
L 121.036043 202.005081 
L 121.762014 203.689876 
L 122.487986 202.156752 
L 123.213958 203.16756 
L 123.93993 207.690637 
L 124.665901 204.546091 
L 125.391873 204.446728 
L 126.117845 203.907911 
L 126.843816 211.615894 
L 127.569788 214.606758 
L 128.29576 219.279255 
L 129.021731 220.112498 
L 129.747703 221.770475 
L 130.473675 223.791647 
L 131.199647 226.244592 
L 131.925618 231.798693 
L 132.65159 234.050329 
L 133.377562 234.950512 
L 134.103533 234.2526 
L 134.829505 237.496197 
L 135.555477 237.749766 
L 136.281448 238.434776 
L 137.00742 240.341626 
L 137.733392 239.963549 
L 138.459364 240.660831 
L 139.185335 244.000419 
L 139.911307 244.357522 
L 140.637279 248.322634 
L 141.36325 249.347194 
L 142.089222 249.803604 
L 142.815194 250.882238 
L 143.541165 251.31467 
L 144.267137 251.486022 
L 144.993109 252.615932 
L 145.719081 253.291989 
L 146.445052 258.075847 
L 147.896996 259.211051 
L 148.622967 252.558617 
L 149.348939 251.688445 
L 150.074911 250.463947 
L 150.800883 245.114119 
L 151.526854 244.972137 
L 152.252826 247.161572 
L 152.978798 244.526863 
L 154.430741 241.659498 
L 155.156713 235.34889 
L 155.882684 234.07613 
L 156.608656 231.364136 
L 157.334628 229.607836 
L 158.0606 234.22024 
L 158.786571 233.162539 
L 160.964486 224.97306 
L 161.690458 223.042939 
L 162.41643 219.929713 
L 164.594345 212.933616 
L 165.320317 210.923846 
L 166.046288 210.011938 
L 166.77226 207.803979 
L 167.498232 196.178394 
L 168.224203 196.6404 
L 168.950175 191.199688 
L 169.676147 179.199028 
L 170.402118 181.69289 
L 171.12809 177.975919 
L 171.854062 175.531086 
L 172.580034 172.620191 
L 173.306005 170.338066 
L 175.48392 157.630857 
L 176.209892 143.554047 
L 176.935864 150.516006 
L 177.661836 136.544239 
L 178.387807 144.79024 
L 179.113779 132.628913 
L 179.839751 127.107404 
L 181.291694 119.682155 
L 182.017666 116.20698 
L 182.743637 111.549363 
L 183.469609 110.660249 
L 184.195581 98.778932 
L 184.921553 94.224021 
L 185.647524 85.879313 
L 186.373496 81.094428 
L 187.099468 79.671849 
L 187.825439 86.88983 
L 188.551411 87.614916 
L 189.277383 86.21245 
L 190.003354 86.643004 
L 190.729326 96.323647 
L 191.455298 96.212101 
L 192.18127 95.458295 
L 192.907241 97.957465 
L 193.633213 93.47281 
L 194.359185 90.199187 
L 195.085156 90.634315 
L 195.811128 90.061615 
L 196.5371 101.031404 
L 197.263071 100.204042 
L 197.989043 110.948576 
L 199.440987 120.236651 
L 200.166958 128.275859 
L 200.89293 134.122966 
L 201.618902 138.049684 
L 202.344873 140.451583 
L 203.070845 143.405069 
L 203.796817 146.996857 
L 205.24876 159.137957 
L 205.974732 163.528751 
L 206.700704 166.736582 
L 208.152647 180.572951 
L 208.878619 186.115296 
L 209.60459 190.095188 
L 210.330562 192.478513 
L 211.056534 197.362151 
L 211.782506 200.755873 
L 212.508477 202.996914 
L 213.234449 206.05309 
L 213.960421 207.895951 
L 214.686392 210.043201 
L 216.138336 213.295259 
L 216.864307 217.813891 
L 217.590279 217.015128 
L 218.316251 217.83313 
L 219.042223 217.314159 
L 219.768194 219.192809 
L 220.494166 221.458315 
L 221.220138 221.488899 
L 221.946109 219.841873 
L 222.672081 221.093591 
L 223.398053 221.175698 
L 224.124024 220.208209 
L 224.849996 220.892888 
L 225.575968 220.926335 
L 226.30194 221.316726 
L 227.027911 220.876811 
L 227.753883 221.822108 
L 228.479855 220.033453 
L 229.205826 220.616127 
L 229.931798 223.841123 
L 230.65777 223.847175 
L 231.383742 223.740254 
L 232.109713 225.552354 
L 232.835685 228.394102 
L 234.287628 229.909745 
L 235.0136 231.306606 
L 235.739572 229.107869 
L 236.465543 230.551363 
L 237.191515 228.462121 
L 237.917487 232.211825 
L 238.643459 230.646149 
L 239.36943 231.603925 
L 240.095402 231.318755 
L 240.821374 229.300856 
L 241.547345 229.53767 
L 242.273317 230.26693 
L 242.999289 229.298294 
L 243.72526 227.668202 
L 244.451232 227.204676 
L 245.177204 226.87346 
L 245.903176 228.119899 
L 246.629147 228.619498 
L 247.355119 228.309827 
L 248.081091 227.845186 
L 249.533034 224.012816 
L 250.259006 222.699673 
L 250.984977 220.827544 
L 251.710949 224.048151 
L 253.162893 222.548849 
L 253.888864 223.629584 
L 255.340808 222.628619 
L 256.066779 223.26751 
L 256.792751 222.878068 
L 257.518723 223.521159 
L 258.244695 223.48392 
L 261.148581 222.314719 
L 262.600525 226.585529 
L 263.326496 223.450166 
L 264.052468 222.657602 
L 264.77844 225.140022 
L 265.504412 224.703352 
L 266.230383 225.068378 
L 266.956355 226.353625 
L 267.682327 226.468409 
L 268.408298 227.281194 
L 269.13427 226.475281 
L 269.860242 225.938623 
L 272.038157 225.781454 
L 272.764129 225.275599 
L 273.4901 224.940672 
L 274.216072 223.78806 
L 274.942044 222.898989 
L 275.668015 223.613106 
L 276.393987 222.859272 
L 277.119959 222.761354 
L 277.84593 222.24163 
L 278.571902 218.273486 
L 279.297874 217.34408 
L 280.023846 218.258056 
L 280.749817 219.377571 
L 281.475789 218.616542 
L 282.201761 217.219445 
L 282.927732 213.704823 
L 283.653704 213.003941 
L 284.379676 209.303509 
L 286.557591 202.498308 
L 287.283563 201.126182 
L 288.009534 202.46927 
L 288.735506 200.646479 
L 289.461478 203.367284 
L 290.187449 202.319927 
L 290.913421 202.06555 
L 291.639393 203.941343 
L 292.365365 203.453407 
L 293.091336 206.621841 
L 293.817308 208.185435 
L 294.54328 209.016168 
L 295.269251 208.72164 
L 296.721195 208.345906 
L 297.447166 207.648113 
L 298.89911 205.202676 
L 299.625082 204.860621 
L 300.351053 204.874989 
L 301.077025 204.350454 
L 301.802997 203.643783 
L 302.528968 203.576252 
L 303.25494 203.107784 
L 303.980912 201.967628 
L 304.706883 194.935457 
L 305.432855 191.523323 
L 306.158827 190.50926 
L 306.884799 187.804363 
L 307.61077 191.468915 
L 309.062714 182.779408 
L 309.788685 179.902924 
L 310.514657 176.505331 
L 311.240629 173.679242 
L 311.966601 169.305047 
L 312.692572 171.295462 
L 313.418544 166.492411 
L 314.144516 168.807032 
L 314.870487 168.821515 
L 316.322431 166.109516 
L 317.048402 163.961009 
L 317.774374 161.150064 
L 318.500346 160.715758 
L 319.226318 156.060562 
L 319.952289 156.018852 
L 320.678261 153.940698 
L 321.404233 152.628188 
L 322.130204 151.787547 
L 322.856176 146.341334 
L 323.582148 146.600325 
L 324.308119 152.131144 
L 325.034091 147.524812 
L 326.486035 145.899292 
L 327.212006 146.858365 
L 327.937978 144.480066 
L 328.66395 151.404921 
L 329.389921 155.52743 
L 330.115893 157.16846 
L 330.841865 157.97154 
L 331.567836 157.258346 
L 332.293808 163.342366 
L 333.01978 168.395368 
L 333.745752 172.501347 
L 334.471723 174.05573 
L 335.197695 178.159317 
L 335.923667 176.693849 
L 336.649638 182.48973 
L 337.37561 183.724256 
L 338.101582 183.933163 
L 338.827554 185.715259 
L 339.553525 185.72997 
L 340.279497 187.450891 
L 341.005469 189.681441 
L 342.457412 192.562974 
L 345.361299 197.199754 
L 346.087271 197.392418 
L 346.813242 197.757297 
L 347.539214 199.022116 
L 348.265186 200.919143 
L 348.991157 201.076794 
L 349.717129 201.681515 
L 350.443101 204.456744 
L 351.169072 202.822276 
L 351.895044 203.969913 
L 352.621016 206.347508 
L 353.346988 206.613762 
L 354.072959 209.900189 
L 354.798931 210.351736 
L 355.524903 213.25779 
L 356.250874 213.760378 
L 356.976846 215.4417 
L 359.880733 218.359145 
L 360.606705 218.746871 
L 361.332676 218.453374 
L 362.058648 219.168397 
L 362.78462 219.543965 
L 364.236563 219.211185 
L 364.962535 219.357012 
L 365.688507 219.179 
L 366.414478 219.55277 
L 367.14045 219.409798 
L 367.866422 219.047635 
L 369.318365 221.418391 
L 370.044337 219.698566 
L 370.770308 219.927616 
L 371.49628 220.706821 
L 372.222252 221.127148 
L 372.948224 220.959647 
L 373.674195 220.936879 
L 375.126139 220.5326 
L 375.85211 221.561598 
L 376.578082 221.675237 
L 377.304054 222.840961 
L 378.030025 223.121453 
L 378.755997 223.271031 
L 379.481969 223.78586 
L 380.933912 220.923198 
L 381.659884 221.141768 
L 382.385856 221.148828 
L 383.111827 219.951744 
L 383.837799 218.340497 
L 384.563771 217.454181 
L 385.289742 217.642443 
L 386.015714 216.538109 
L 386.741686 215.878154 
L 387.467658 214.181927 
L 388.193629 213.145098 
L 388.919601 212.473289 
L 389.645573 210.865884 
L 390.371544 210.107399 
L 391.097516 209.645951 
L 391.823488 208.562499 
L 392.54946 208.020673 
L 393.275431 206.597467 
L 394.001403 205.700898 
L 396.90529 200.238793 
L 397.631261 199.589926 
L 399.083205 196.927694 
L 399.809177 196.08989 
L 400.535148 194.856132 
L 401.26112 193.390087 
L 402.713063 193.414772 
L 403.439035 192.435575 
L 404.890978 189.826591 
L 407.794865 179.645835 
L 408.520837 177.597701 
L 409.246809 177.030688 
L 409.97278 174.453124 
L 410.698752 170.920615 
L 411.424724 168.423796 
L 412.150695 164.696298 
L 412.876667 161.803087 
L 414.328611 154.23603 
L 415.054582 151.44468 
L 415.780554 151.054603 
L 416.506526 147.576085 
L 417.232497 146.631625 
L 418.684441 141.401306 
L 419.410413 140.506477 
L 420.862356 135.352637 
L 421.588328 133.800215 
L 423.040271 129.690421 
L 423.766243 129.743139 
L 424.492214 128.385546 
L 425.218186 127.649578 
L 425.944158 128.964519 
L 426.67013 127.645854 
L 427.396101 127.409509 
L 428.122073 126.720813 
L 428.848045 129.048656 
L 429.574016 130.675701 
L 431.02596 135.47786 
L 431.751931 137.602107 
L 432.477903 138.882256 
L 436.833733 152.477023 
L 437.559705 155.206145 
L 439.011648 159.053622 
L 439.73762 161.075059 
L 441.915535 170.168573 
L 442.641507 172.366136 
L 443.367479 175.052006 
L 447.723309 187.87851 
L 448.449281 190.132761 
L 449.175252 191.603116 
L 449.901224 193.633775 
L 450.627196 194.999995 
L 451.353167 196.657224 
L 452.079139 197.71489 
L 452.805111 199.590863 
L 453.531083 200.666346 
L 454.257054 201.979995 
L 456.434969 206.668545 
L 458.612884 210.133752 
L 459.338856 210.913202 
L 460.064828 212.101968 
L 461.516771 213.508757 
L 462.242743 214.064121 
L 463.694686 215.570974 
L 465.14663 216.160105 
L 465.872601 216.785202 
L 467.324545 217.67911 
L 468.050517 217.935575 
L 468.776488 218.042337 
L 470.954403 219.095978 
L 470.954403 219.095978 
" style="fill:none;stroke:#2ca02c;stroke-linecap:square;stroke-width:1.5;"/>
   </g>
   <g id="line2d_4">
    <path clip-path="url(#pb03574a0c7)" d="M 65.136222 195.806062 
L 470.954403 195.806062 
L 470.954403 195.806062 
" style="fill:none;stroke:#000000;stroke-dasharray:3.7,1.6;stroke-dashoffset:0;"/>
   </g>
   <g id="matplotlib.axis_1">
    <g id="xtick_1">
     <g id="line2d_5">
      <defs>
       <path d="M 0 0 
L 0 3.5 
" id="mafd5b95e89" style="stroke:#000000;stroke-width:0.8;"/>
      </defs>
      <g>
       <use style="stroke:#000000;stroke-width:0.8;" x="86.189401" xlink:href="#mafd5b95e89" y="294.118125"/>
      </g>
     </g>
     <g id="text_1">
      <!-- 100 -->
      <defs>
       <path d="M 12.40625 8.296875 
L 28.515625 8.296875 
L 28.515625 63.921875 
L 10.984375 60.40625 
L 10.984375 69.390625 
L 28.421875 72.90625 
L 38.28125 72.90625 
L 38.28125 8.296875 
L 54.390625 8.296875 
L 54.390625 0 
L 12.40625 0 
z
" id="DejaVuSans-49"/>
       <path d="M 31.78125 66.40625 
Q 24.171875 66.40625 20.328125 58.90625 
Q 16.5 51.421875 16.5 36.375 
Q 16.5 21.390625 20.328125 13.890625 
Q 24.171875 6.390625 31.78125 6.390625 
Q 39.453125 6.390625 43.28125 13.890625 
Q 47.125 21.390625 47.125 36.375 
Q 47.125 51.421875 43.28125 58.90625 
Q 39.453125 66.40625 31.78125 66.40625 
z
M 31.78125 74.21875 
Q 44.046875 74.21875 50.515625 64.515625 
Q 56.984375 54.828125 56.984375 36.375 
Q 56.984375 17.96875 50.515625 8.265625 
Q 44.046875 -1.421875 31.78125 -1.421875 
Q 19.53125 -1.421875 13.0625 8.265625 
Q 6.59375 17.96875 6.59375 36.375 
Q 6.59375 54.828125 13.0625 64.515625 
Q 19.53125 74.21875 31.78125 74.21875 
z
" id="DejaVuSans-48"/>
      </defs>
      <g transform="translate(76.645651 308.716563)scale(0.1 -0.1)">
       <use xlink:href="#DejaVuSans-49"/>
       <use x="63.623047" xlink:href="#DejaVuSans-48"/>
       <use x="127.246094" xlink:href="#DejaVuSans-48"/>
      </g>
     </g>
    </g>
    <g id="xtick_2">
     <g id="line2d_6">
      <g>
       <use style="stroke:#000000;stroke-width:0.8;" x="158.786571" xlink:href="#mafd5b95e89" y="294.118125"/>
      </g>
     </g>
     <g id="text_2">
      <!-- 200 -->
      <defs>
       <path d="M 19.1875 8.296875 
L 53.609375 8.296875 
L 53.609375 0 
L 7.328125 0 
L 7.328125 8.296875 
Q 12.9375 14.109375 22.625 23.890625 
Q 32.328125 33.6875 34.8125 36.53125 
Q 39.546875 41.84375 41.421875 45.53125 
Q 43.3125 49.21875 43.3125 52.78125 
Q 43.3125 58.59375 39.234375 62.25 
Q 35.15625 65.921875 28.609375 65.921875 
Q 23.96875 65.921875 18.8125 64.3125 
Q 13.671875 62.703125 7.8125 59.421875 
L 7.8125 69.390625 
Q 13.765625 71.78125 18.9375 73 
Q 24.125 74.21875 28.421875 74.21875 
Q 39.75 74.21875 46.484375 68.546875 
Q 53.21875 62.890625 53.21875 53.421875 
Q 53.21875 48.921875 51.53125 44.890625 
Q 49.859375 40.875 45.40625 35.40625 
Q 44.1875 33.984375 37.640625 27.21875 
Q 31.109375 20.453125 19.1875 8.296875 
z
" id="DejaVuSans-50"/>
      </defs>
      <g transform="translate(149.242821 308.716563)scale(0.1 -0.1)">
       <use xlink:href="#DejaVuSans-50"/>
       <use x="63.623047" xlink:href="#DejaVuSans-48"/>
       <use x="127.246094" xlink:href="#DejaVuSans-48"/>
      </g>
     </g>
    </g>
    <g id="xtick_3">
     <g id="line2d_7">
      <g>
       <use style="stroke:#000000;stroke-width:0.8;" x="231.383742" xlink:href="#mafd5b95e89" y="294.118125"/>
      </g>
     </g>
     <g id="text_3">
      <!-- 300 -->
      <defs>
       <path d="M 40.578125 39.3125 
Q 47.65625 37.796875 51.625 33 
Q 55.609375 28.21875 55.609375 21.1875 
Q 55.609375 10.40625 48.1875 4.484375 
Q 40.765625 -1.421875 27.09375 -1.421875 
Q 22.515625 -1.421875 17.65625 -0.515625 
Q 12.796875 0.390625 7.625 2.203125 
L 7.625 11.71875 
Q 11.71875 9.328125 16.59375 8.109375 
Q 21.484375 6.890625 26.8125 6.890625 
Q 36.078125 6.890625 40.9375 10.546875 
Q 45.796875 14.203125 45.796875 21.1875 
Q 45.796875 27.640625 41.28125 31.265625 
Q 36.765625 34.90625 28.71875 34.90625 
L 20.21875 34.90625 
L 20.21875 43.015625 
L 29.109375 43.015625 
Q 36.375 43.015625 40.234375 45.921875 
Q 44.09375 48.828125 44.09375 54.296875 
Q 44.09375 59.90625 40.109375 62.90625 
Q 36.140625 65.921875 28.71875 65.921875 
Q 24.65625 65.921875 20.015625 65.03125 
Q 15.375 64.15625 9.8125 62.3125 
L 9.8125 71.09375 
Q 15.4375 72.65625 20.34375 73.4375 
Q 25.25 74.21875 29.59375 74.21875 
Q 40.828125 74.21875 47.359375 69.109375 
Q 53.90625 64.015625 53.90625 55.328125 
Q 53.90625 49.265625 50.4375 45.09375 
Q 46.96875 40.921875 40.578125 39.3125 
z
" id="DejaVuSans-51"/>
      </defs>
      <g transform="translate(221.839992 308.716563)scale(0.1 -0.1)">
       <use xlink:href="#DejaVuSans-51"/>
       <use x="63.623047" xlink:href="#DejaVuSans-48"/>
       <use x="127.246094" xlink:href="#DejaVuSans-48"/>
      </g>
     </g>
    </g>
    <g id="xtick_4">
     <g id="line2d_8">
      <g>
       <use style="stroke:#000000;stroke-width:0.8;" x="303.980912" xlink:href="#mafd5b95e89" y="294.118125"/>
      </g>
     </g>
     <g id="text_4">
      <!-- 400 -->
      <defs>
       <path d="M 37.796875 64.3125 
L 12.890625 25.390625 
L 37.796875 25.390625 
z
M 35.203125 72.90625 
L 47.609375 72.90625 
L 47.609375 25.390625 
L 58.015625 25.390625 
L 58.015625 17.1875 
L 47.609375 17.1875 
L 47.609375 0 
L 37.796875 0 
L 37.796875 17.1875 
L 4.890625 17.1875 
L 4.890625 26.703125 
z
" id="DejaVuSans-52"/>
      </defs>
      <g transform="translate(294.437162 308.716563)scale(0.1 -0.1)">
       <use xlink:href="#DejaVuSans-52"/>
       <use x="63.623047" xlink:href="#DejaVuSans-48"/>
       <use x="127.246094" xlink:href="#DejaVuSans-48"/>
      </g>
     </g>
    </g>
    <g id="xtick_5">
     <g id="line2d_9">
      <g>
       <use style="stroke:#000000;stroke-width:0.8;" x="376.578082" xlink:href="#mafd5b95e89" y="294.118125"/>
      </g>
     </g>
     <g id="text_5">
      <!-- 500 -->
      <defs>
       <path d="M 10.796875 72.90625 
L 49.515625 72.90625 
L 49.515625 64.59375 
L 19.828125 64.59375 
L 19.828125 46.734375 
Q 21.96875 47.46875 24.109375 47.828125 
Q 26.265625 48.1875 28.421875 48.1875 
Q 40.625 48.1875 47.75 41.5 
Q 54.890625 34.8125 54.890625 23.390625 
Q 54.890625 11.625 47.5625 5.09375 
Q 40.234375 -1.421875 26.90625 -1.421875 
Q 22.3125 -1.421875 17.546875 -0.640625 
Q 12.796875 0.140625 7.71875 1.703125 
L 7.71875 11.625 
Q 12.109375 9.234375 16.796875 8.0625 
Q 21.484375 6.890625 26.703125 6.890625 
Q 35.15625 6.890625 40.078125 11.328125 
Q 45.015625 15.765625 45.015625 23.390625 
Q 45.015625 31 40.078125 35.4375 
Q 35.15625 39.890625 26.703125 39.890625 
Q 22.75 39.890625 18.8125 39.015625 
Q 14.890625 38.140625 10.796875 36.28125 
z
" id="DejaVuSans-53"/>
      </defs>
      <g transform="translate(367.034332 308.716563)scale(0.1 -0.1)">
       <use xlink:href="#DejaVuSans-53"/>
       <use x="63.623047" xlink:href="#DejaVuSans-48"/>
       <use x="127.246094" xlink:href="#DejaVuSans-48"/>
      </g>
     </g>
    </g>
    <g id="xtick_6">
     <g id="line2d_10">
      <g>
       <use style="stroke:#000000;stroke-width:0.8;" x="449.175252" xlink:href="#mafd5b95e89" y="294.118125"/>
      </g>
     </g>
     <g id="text_6">
      <!-- 600 -->
      <defs>
       <path d="M 33.015625 40.375 
Q 26.375 40.375 22.484375 35.828125 
Q 18.609375 31.296875 18.609375 23.390625 
Q 18.609375 15.53125 22.484375 10.953125 
Q 26.375 6.390625 33.015625 6.390625 
Q 39.65625 6.390625 43.53125 10.953125 
Q 47.40625 15.53125 47.40625 23.390625 
Q 47.40625 31.296875 43.53125 35.828125 
Q 39.65625 40.375 33.015625 40.375 
z
M 52.59375 71.296875 
L 52.59375 62.3125 
Q 48.875 64.0625 45.09375 64.984375 
Q 41.3125 65.921875 37.59375 65.921875 
Q 27.828125 65.921875 22.671875 59.328125 
Q 17.53125 52.734375 16.796875 39.40625 
Q 19.671875 43.65625 24.015625 45.921875 
Q 28.375 48.1875 33.59375 48.1875 
Q 44.578125 48.1875 50.953125 41.515625 
Q 57.328125 34.859375 57.328125 23.390625 
Q 57.328125 12.15625 50.6875 5.359375 
Q 44.046875 -1.421875 33.015625 -1.421875 
Q 20.359375 -1.421875 13.671875 8.265625 
Q 6.984375 17.96875 6.984375 36.375 
Q 6.984375 53.65625 15.1875 63.9375 
Q 23.390625 74.21875 37.203125 74.21875 
Q 40.921875 74.21875 44.703125 73.484375 
Q 48.484375 72.75 52.59375 71.296875 
z
" id="DejaVuSans-54"/>
      </defs>
      <g transform="translate(439.631502 308.716563)scale(0.1 -0.1)">
       <use xlink:href="#DejaVuSans-54"/>
       <use x="63.623047" xlink:href="#DejaVuSans-48"/>
       <use x="127.246094" xlink:href="#DejaVuSans-48"/>
      </g>
     </g>
    </g>
    <g id="text_7">
     <!-- Tempo -->
     <defs>
      <path d="M -0.296875 72.90625 
L 61.375 72.90625 
L 61.375 64.59375 
L 35.5 64.59375 
L 35.5 0 
L 25.59375 0 
L 25.59375 64.59375 
L -0.296875 64.59375 
z
" id="DejaVuSans-84"/>
      <path d="M 56.203125 29.59375 
L 56.203125 25.203125 
L 14.890625 25.203125 
Q 15.484375 15.921875 20.484375 11.0625 
Q 25.484375 6.203125 34.421875 6.203125 
Q 39.59375 6.203125 44.453125 7.46875 
Q 49.3125 8.734375 54.109375 11.28125 
L 54.109375 2.78125 
Q 49.265625 0.734375 44.1875 -0.34375 
Q 39.109375 -1.421875 33.890625 -1.421875 
Q 20.796875 -1.421875 13.15625 6.1875 
Q 5.515625 13.8125 5.515625 26.8125 
Q 5.515625 40.234375 12.765625 48.109375 
Q 20.015625 56 32.328125 56 
Q 43.359375 56 49.78125 48.890625 
Q 56.203125 41.796875 56.203125 29.59375 
z
M 47.21875 32.234375 
Q 47.125 39.59375 43.09375 43.984375 
Q 39.0625 48.390625 32.421875 48.390625 
Q 24.90625 48.390625 20.390625 44.140625 
Q 15.875 39.890625 15.1875 32.171875 
z
" id="DejaVuSans-101"/>
      <path d="M 52 44.1875 
Q 55.375 50.25 60.0625 53.125 
Q 64.75 56 71.09375 56 
Q 79.640625 56 84.28125 50.015625 
Q 88.921875 44.046875 88.921875 33.015625 
L 88.921875 0 
L 79.890625 0 
L 79.890625 32.71875 
Q 79.890625 40.578125 77.09375 44.375 
Q 74.3125 48.1875 68.609375 48.1875 
Q 61.625 48.1875 57.5625 43.546875 
Q 53.515625 38.921875 53.515625 30.90625 
L 53.515625 0 
L 44.484375 0 
L 44.484375 32.71875 
Q 44.484375 40.625 41.703125 44.40625 
Q 38.921875 48.1875 33.109375 48.1875 
Q 26.21875 48.1875 22.15625 43.53125 
Q 18.109375 38.875 18.109375 30.90625 
L 18.109375 0 
L 9.078125 0 
L 9.078125 54.6875 
L 18.109375 54.6875 
L 18.109375 46.1875 
Q 21.1875 51.21875 25.484375 53.609375 
Q 29.78125 56 35.6875 56 
Q 41.65625 56 45.828125 52.96875 
Q 50 49.953125 52 44.1875 
z
" id="DejaVuSans-109"/>
      <path d="M 18.109375 8.203125 
L 18.109375 -20.796875 
L 9.078125 -20.796875 
L 9.078125 54.6875 
L 18.109375 54.6875 
L 18.109375 46.390625 
Q 20.953125 51.265625 25.265625 53.625 
Q 29.59375 56 35.59375 56 
Q 45.5625 56 51.78125 48.09375 
Q 58.015625 40.1875 58.015625 27.296875 
Q 58.015625 14.40625 51.78125 6.484375 
Q 45.5625 -1.421875 35.59375 -1.421875 
Q 29.59375 -1.421875 25.265625 0.953125 
Q 20.953125 3.328125 18.109375 8.203125 
z
M 48.6875 27.296875 
Q 48.6875 37.203125 44.609375 42.84375 
Q 40.53125 48.484375 33.40625 48.484375 
Q 26.265625 48.484375 22.1875 42.84375 
Q 18.109375 37.203125 18.109375 27.296875 
Q 18.109375 17.390625 22.1875 11.75 
Q 26.265625 6.109375 33.40625 6.109375 
Q 40.53125 6.109375 44.609375 11.75 
Q 48.6875 17.390625 48.6875 27.296875 
z
" id="DejaVuSans-112"/>
      <path d="M 30.609375 48.390625 
Q 23.390625 48.390625 19.1875 42.75 
Q 14.984375 37.109375 14.984375 27.296875 
Q 14.984375 17.484375 19.15625 11.84375 
Q 23.34375 6.203125 30.609375 6.203125 
Q 37.796875 6.203125 41.984375 11.859375 
Q 46.1875 17.53125 46.1875 27.296875 
Q 46.1875 37.015625 41.984375 42.703125 
Q 37.796875 48.390625 30.609375 48.390625 
z
M 30.609375 56 
Q 42.328125 56 49.015625 48.375 
Q 55.71875 40.765625 55.71875 27.296875 
Q 55.71875 13.875 49.015625 6.21875 
Q 42.328125 -1.421875 30.609375 -1.421875 
Q 18.84375 -1.421875 12.171875 6.21875 
Q 5.515625 13.875 5.515625 27.296875 
Q 5.515625 40.765625 12.171875 48.375 
Q 18.84375 56 30.609375 56 
z
" id="DejaVuSans-111"/>
     </defs>
     <g transform="translate(251.660938 322.394687)scale(0.1 -0.1)">
      <use xlink:href="#DejaVuSans-84"/>
      <use x="44.083984" xlink:href="#DejaVuSans-101"/>
      <use x="105.607422" xlink:href="#DejaVuSans-109"/>
      <use x="203.019531" xlink:href="#DejaVuSans-112"/>
      <use x="266.496094" xlink:href="#DejaVuSans-111"/>
     </g>
    </g>
   </g>
   <g id="matplotlib.axis_2">
    <g id="ytick_1">
     <g id="line2d_11">
      <defs>
       <path d="M 0 0 
L -3.5 0 
" id="m2d536fd051" style="stroke:#000000;stroke-width:0.8;"/>
      </defs>
      <g>
       <use style="stroke:#000000;stroke-width:0.8;" x="44.845313" xlink:href="#m2d536fd051" y="290.231213"/>
      </g>
     </g>
     <g id="text_8">
      <!-- −0.75 -->
      <defs>
       <path d="M 10.59375 35.5 
L 73.1875 35.5 
L 73.1875 27.203125 
L 10.59375 27.203125 
z
" id="DejaVuSans-8722"/>
       <path d="M 10.6875 12.40625 
L 21 12.40625 
L 21 0 
L 10.6875 0 
z
" id="DejaVuSans-46"/>
       <path d="M 8.203125 72.90625 
L 55.078125 72.90625 
L 55.078125 68.703125 
L 28.609375 0 
L 18.3125 0 
L 43.21875 64.59375 
L 8.203125 64.59375 
z
" id="DejaVuSans-55"/>
      </defs>
      <g transform="translate(7.2 294.030432)scale(0.1 -0.1)">
       <use xlink:href="#DejaVuSans-8722"/>
       <use x="83.789062" xlink:href="#DejaVuSans-48"/>
       <use x="147.412109" xlink:href="#DejaVuSans-46"/>
       <use x="179.199219" xlink:href="#DejaVuSans-55"/>
       <use x="242.822266" xlink:href="#DejaVuSans-53"/>
      </g>
     </g>
    </g>
    <g id="ytick_2">
     <g id="line2d_12">
      <g>
       <use style="stroke:#000000;stroke-width:0.8;" x="44.845313" xlink:href="#m2d536fd051" y="258.756163"/>
      </g>
     </g>
     <g id="text_9">
      <!-- −0.50 -->
      <g transform="translate(7.2 262.555381)scale(0.1 -0.1)">
       <use xlink:href="#DejaVuSans-8722"/>
       <use x="83.789062" xlink:href="#DejaVuSans-48"/>
       <use x="147.412109" xlink:href="#DejaVuSans-46"/>
       <use x="179.199219" xlink:href="#DejaVuSans-53"/>
       <use x="242.822266" xlink:href="#DejaVuSans-48"/>
      </g>
     </g>
    </g>
    <g id="ytick_3">
     <g id="line2d_13">
      <g>
       <use style="stroke:#000000;stroke-width:0.8;" x="44.845313" xlink:href="#m2d536fd051" y="227.281112"/>
      </g>
     </g>
     <g id="text_10">
      <!-- −0.25 -->
      <g transform="translate(7.2 231.080331)scale(0.1 -0.1)">
       <use xlink:href="#DejaVuSans-8722"/>
       <use x="83.789062" xlink:href="#DejaVuSans-48"/>
       <use x="147.412109" xlink:href="#DejaVuSans-46"/>
       <use x="179.199219" xlink:href="#DejaVuSans-50"/>
       <use x="242.822266" xlink:href="#DejaVuSans-53"/>
      </g>
     </g>
    </g>
    <g id="ytick_4">
     <g id="line2d_14">
      <g>
       <use style="stroke:#000000;stroke-width:0.8;" x="44.845313" xlink:href="#m2d536fd051" y="195.806062"/>
      </g>
     </g>
     <g id="text_11">
      <!-- 0.00 -->
      <g transform="translate(15.579688 199.605281)scale(0.1 -0.1)">
       <use xlink:href="#DejaVuSans-48"/>
       <use x="63.623047" xlink:href="#DejaVuSans-46"/>
       <use x="95.410156" xlink:href="#DejaVuSans-48"/>
       <use x="159.033203" xlink:href="#DejaVuSans-48"/>
      </g>
     </g>
    </g>
    <g id="ytick_5">
     <g id="line2d_15">
      <g>
       <use style="stroke:#000000;stroke-width:0.8;" x="44.845313" xlink:href="#m2d536fd051" y="164.331012"/>
      </g>
     </g>
     <g id="text_12">
      <!-- 0.25 -->
      <g transform="translate(15.579688 168.130231)scale(0.1 -0.1)">
       <use xlink:href="#DejaVuSans-48"/>
       <use x="63.623047" xlink:href="#DejaVuSans-46"/>
       <use x="95.410156" xlink:href="#DejaVuSans-50"/>
       <use x="159.033203" xlink:href="#DejaVuSans-53"/>
      </g>
     </g>
    </g>
    <g id="ytick_6">
     <g id="line2d_16">
      <g>
       <use style="stroke:#000000;stroke-width:0.8;" x="44.845313" xlink:href="#m2d536fd051" y="132.855962"/>
      </g>
     </g>
     <g id="text_13">
      <!-- 0.50 -->
      <g transform="translate(15.579688 136.655181)scale(0.1 -0.1)">
       <use xlink:href="#DejaVuSans-48"/>
       <use x="63.623047" xlink:href="#DejaVuSans-46"/>
       <use x="95.410156" xlink:href="#DejaVuSans-53"/>
       <use x="159.033203" xlink:href="#DejaVuSans-48"/>
      </g>
     </g>
    </g>
    <g id="ytick_7">
     <g id="line2d_17">
      <g>
       <use style="stroke:#000000;stroke-width:0.8;" x="44.845313" xlink:href="#m2d536fd051" y="101.380912"/>
      </g>
     </g>
     <g id="text_14">
      <!-- 0.75 -->
      <g transform="translate(15.579688 105.18013)scale(0.1 -0.1)">
       <use xlink:href="#DejaVuSans-48"/>
       <use x="63.623047" xlink:href="#DejaVuSans-46"/>
       <use x="95.410156" xlink:href="#DejaVuSans-55"/>
       <use x="159.033203" xlink:href="#DejaVuSans-53"/>
      </g>
     </g>
    </g>
    <g id="ytick_8">
     <g id="line2d_18">
      <g>
       <use style="stroke:#000000;stroke-width:0.8;" x="44.845313" xlink:href="#m2d536fd051" y="69.905861"/>
      </g>
     </g>
     <g id="text_15">
      <!-- 1.00 -->
      <g transform="translate(15.579688 73.70508)scale(0.1 -0.1)">
       <use xlink:href="#DejaVuSans-49"/>
       <use x="63.623047" xlink:href="#DejaVuSans-46"/>
       <use x="95.410156" xlink:href="#DejaVuSans-48"/>
       <use x="159.033203" xlink:href="#DejaVuSans-48"/>
      </g>
     </g>
    </g>
    <g id="ytick_9">
     <g id="line2d_19">
      <g>
       <use style="stroke:#000000;stroke-width:0.8;" x="44.845313" xlink:href="#m2d536fd051" y="38.430811"/>
      </g>
     </g>
     <g id="text_16">
      <!-- 1.25 -->
      <g transform="translate(15.579688 42.23003)scale(0.1 -0.1)">
       <use xlink:href="#DejaVuSans-49"/>
       <use x="63.623047" xlink:href="#DejaVuSans-46"/>
       <use x="95.410156" xlink:href="#DejaVuSans-50"/>
       <use x="159.033203" xlink:href="#DejaVuSans-53"/>
      </g>
     </g>
    </g>
   </g>
   <g id="patch_3">
    <path d="M 44.845313 294.118125 
L 44.845313 22.318125 
" style="fill:none;stroke:#000000;stroke-linecap:square;stroke-linejoin:miter;stroke-width:0.8;"/>
   </g>
   <g id="patch_4">
    <path d="M 44.845313 294.118125 
L 491.245312 294.118125 
" style="fill:none;stroke:#000000;stroke-linecap:square;stroke-linejoin:miter;stroke-width:0.8;"/>
   </g>
   <g id="text_17">
    <!-- h -->
    <defs>
     <path d="M 54.890625 33.015625 
L 54.890625 0 
L 45.90625 0 
L 45.90625 32.71875 
Q 45.90625 40.484375 42.875 44.328125 
Q 39.84375 48.1875 33.796875 48.1875 
Q 26.515625 48.1875 22.3125 43.546875 
Q 18.109375 38.921875 18.109375 30.90625 
L 18.109375 0 
L 9.078125 0 
L 9.078125 75.984375 
L 18.109375 75.984375 
L 18.109375 46.1875 
Q 21.34375 51.125 25.703125 53.5625 
Q 30.078125 56 35.796875 56 
Q 45.21875 56 50.046875 50.171875 
Q 54.890625 44.34375 54.890625 33.015625 
z
" id="DejaVuSans-104"/>
    </defs>
    <g transform="translate(264.242813 16.318125)scale(0.12 -0.12)">
     <use xlink:href="#DejaVuSans-104"/>
    </g>
   </g>
   <g id="legend_1">
    <g id="patch_5">
     <path d="M 498.245312 190.104844 
L 572.64375 190.104844 
Q 574.64375 190.104844 574.64375 188.104844 
L 574.64375 128.331406 
Q 574.64375 126.331406 572.64375 126.331406 
L 498.245312 126.331406 
Q 496.245312 126.331406 496.245312 128.331406 
L 496.245312 188.104844 
Q 496.245312 190.104844 498.245312 190.104844 
z
" style="fill:#ffffff;opacity:0.8;stroke:#cccccc;stroke-linejoin:miter;"/>
    </g>
    <g id="line2d_20">
     <path d="M 500.245312 134.429844 
L 520.245312 134.429844 
" style="fill:none;stroke:#000000;stroke-dasharray:3.7,1.6;stroke-dashoffset:0;"/>
    </g>
    <g id="line2d_21"/>
    <g id="text_18">
     <!-- Baseline -->
     <defs>
      <path d="M 19.671875 34.8125 
L 19.671875 8.109375 
L 35.5 8.109375 
Q 43.453125 8.109375 47.28125 11.40625 
Q 51.125 14.703125 51.125 21.484375 
Q 51.125 28.328125 47.28125 31.5625 
Q 43.453125 34.8125 35.5 34.8125 
z
M 19.671875 64.796875 
L 19.671875 42.828125 
L 34.28125 42.828125 
Q 41.5 42.828125 45.03125 45.53125 
Q 48.578125 48.25 48.578125 53.8125 
Q 48.578125 59.328125 45.03125 62.0625 
Q 41.5 64.796875 34.28125 64.796875 
z
M 9.8125 72.90625 
L 35.015625 72.90625 
Q 46.296875 72.90625 52.390625 68.21875 
Q 58.5 63.53125 58.5 54.890625 
Q 58.5 48.1875 55.375 44.234375 
Q 52.25 40.28125 46.1875 39.3125 
Q 53.46875 37.75 57.5 32.78125 
Q 61.53125 27.828125 61.53125 20.40625 
Q 61.53125 10.640625 54.890625 5.3125 
Q 48.25 0 35.984375 0 
L 9.8125 0 
z
" id="DejaVuSans-66"/>
      <path d="M 34.28125 27.484375 
Q 23.390625 27.484375 19.1875 25 
Q 14.984375 22.515625 14.984375 16.5 
Q 14.984375 11.71875 18.140625 8.90625 
Q 21.296875 6.109375 26.703125 6.109375 
Q 34.1875 6.109375 38.703125 11.40625 
Q 43.21875 16.703125 43.21875 25.484375 
L 43.21875 27.484375 
z
M 52.203125 31.203125 
L 52.203125 0 
L 43.21875 0 
L 43.21875 8.296875 
Q 40.140625 3.328125 35.546875 0.953125 
Q 30.953125 -1.421875 24.3125 -1.421875 
Q 15.921875 -1.421875 10.953125 3.296875 
Q 6 8.015625 6 15.921875 
Q 6 25.140625 12.171875 29.828125 
Q 18.359375 34.515625 30.609375 34.515625 
L 43.21875 34.515625 
L 43.21875 35.40625 
Q 43.21875 41.609375 39.140625 45 
Q 35.0625 48.390625 27.6875 48.390625 
Q 23 48.390625 18.546875 47.265625 
Q 14.109375 46.140625 10.015625 43.890625 
L 10.015625 52.203125 
Q 14.9375 54.109375 19.578125 55.046875 
Q 24.21875 56 28.609375 56 
Q 40.484375 56 46.34375 49.84375 
Q 52.203125 43.703125 52.203125 31.203125 
z
" id="DejaVuSans-97"/>
      <path d="M 44.28125 53.078125 
L 44.28125 44.578125 
Q 40.484375 46.53125 36.375 47.5 
Q 32.28125 48.484375 27.875 48.484375 
Q 21.1875 48.484375 17.84375 46.4375 
Q 14.5 44.390625 14.5 40.28125 
Q 14.5 37.15625 16.890625 35.375 
Q 19.28125 33.59375 26.515625 31.984375 
L 29.59375 31.296875 
Q 39.15625 29.25 43.1875 25.515625 
Q 47.21875 21.78125 47.21875 15.09375 
Q 47.21875 7.46875 41.1875 3.015625 
Q 35.15625 -1.421875 24.609375 -1.421875 
Q 20.21875 -1.421875 15.453125 -0.5625 
Q 10.6875 0.296875 5.421875 2 
L 5.421875 11.28125 
Q 10.40625 8.6875 15.234375 7.390625 
Q 20.0625 6.109375 24.8125 6.109375 
Q 31.15625 6.109375 34.5625 8.28125 
Q 37.984375 10.453125 37.984375 14.40625 
Q 37.984375 18.0625 35.515625 20.015625 
Q 33.0625 21.96875 24.703125 23.78125 
L 21.578125 24.515625 
Q 13.234375 26.265625 9.515625 29.90625 
Q 5.8125 33.546875 5.8125 39.890625 
Q 5.8125 47.609375 11.28125 51.796875 
Q 16.75 56 26.8125 56 
Q 31.78125 56 36.171875 55.265625 
Q 40.578125 54.546875 44.28125 53.078125 
z
" id="DejaVuSans-115"/>
      <path d="M 9.421875 75.984375 
L 18.40625 75.984375 
L 18.40625 0 
L 9.421875 0 
z
" id="DejaVuSans-108"/>
      <path d="M 9.421875 54.6875 
L 18.40625 54.6875 
L 18.40625 0 
L 9.421875 0 
z
M 9.421875 75.984375 
L 18.40625 75.984375 
L 18.40625 64.59375 
L 9.421875 64.59375 
z
" id="DejaVuSans-105"/>
      <path d="M 54.890625 33.015625 
L 54.890625 0 
L 45.90625 0 
L 45.90625 32.71875 
Q 45.90625 40.484375 42.875 44.328125 
Q 39.84375 48.1875 33.796875 48.1875 
Q 26.515625 48.1875 22.3125 43.546875 
Q 18.109375 38.921875 18.109375 30.90625 
L 18.109375 0 
L 9.078125 0 
L 9.078125 54.6875 
L 18.109375 54.6875 
L 18.109375 46.1875 
Q 21.34375 51.125 25.703125 53.5625 
Q 30.078125 56 35.796875 56 
Q 45.21875 56 50.046875 50.171875 
Q 54.890625 44.34375 54.890625 33.015625 
z
" id="DejaVuSans-110"/>
     </defs>
     <g transform="translate(528.245312 137.929844)scale(0.1 -0.1)">
      <use xlink:href="#DejaVuSans-66"/>
      <use x="68.603516" xlink:href="#DejaVuSans-97"/>
      <use x="129.882812" xlink:href="#DejaVuSans-115"/>
      <use x="181.982422" xlink:href="#DejaVuSans-101"/>
      <use x="243.505859" xlink:href="#DejaVuSans-108"/>
      <use x="271.289062" xlink:href="#DejaVuSans-105"/>
      <use x="299.072266" xlink:href="#DejaVuSans-110"/>
      <use x="362.451172" xlink:href="#DejaVuSans-101"/>
     </g>
    </g>
    <g id="line2d_22">
     <path d="M 500.245312 149.107969 
L 520.245312 149.107969 
" style="fill:none;stroke:#1f77b4;stroke-linecap:square;stroke-width:1.5;"/>
    </g>
    <g id="line2d_23"/>
    <g id="text_19">
     <!-- $\Downarrow \sigma_\psi$ -->
     <defs>
      <path d="M 36.765625 14.3125 
L 41.9375 9.234375 
L 47.015625 14.3125 
L 47.015625 72.90625 
L 52.875 72.90625 
L 52.875 20.171875 
L 57.46875 24.75 
L 63.328125 18.890625 
L 44.09375 -0.34375 
L 39.703125 -0.34375 
L 20.5625 18.890625 
L 26.421875 24.75 
L 30.90625 20.171875 
L 30.90625 72.90625 
L 36.765625 72.90625 
z
" id="DejaVuSans-8659"/>
      <path d="M 34.671875 47.5625 
Q 27.25 47.5625 22.21875 42.1875 
Q 16.890625 36.578125 15.140625 27.296875 
Q 13.1875 17.484375 16.3125 11.8125 
Q 19.390625 6.203125 26.65625 6.203125 
Q 33.84375 6.203125 39.109375 11.859375 
Q 44.4375 17.53125 46.34375 27.296875 
Q 48.046875 36.234375 45.015625 42.1875 
Q 42.1875 47.5625 34.671875 47.5625 
z
M 36.078125 54.734375 
L 65.921875 54.6875 
L 64.15625 45.703125 
L 54.109375 45.703125 
Q 57.90625 38.09375 55.859375 27.296875 
Q 53.21875 13.875 45.0625 6.25 
Q 36.859375 -1.421875 25.140625 -1.421875 
Q 13.375 -1.421875 8.203125 6.25 
Q 3.03125 13.875 5.671875 27.296875 
Q 8.25 40.765625 16.40625 48.390625 
Q 23.1875 54.734375 36.078125 54.734375 
z
" id="DejaVuSans-Oblique-963"/>
      <path d="M 24.859375 -1.21875 
Q 13.921875 0.59375 9.625 5.328125 
Q 4.34375 11.140625 6.640625 23 
L 12.796875 54.6875 
L 21.875 54.6875 
L 15.765625 23.34375 
Q 14.0625 14.40625 17.484375 10.6875 
Q 20.515625 7.46875 26.421875 6.78125 
L 35.6875 54.6875 
L 44.625 54.6875 
L 35.359375 6.84375 
Q 41.890625 7.515625 45.75 10.75 
Q 50.734375 14.84375 52.390625 23.390625 
L 58.453125 54.6875 
L 67.53125 54.6875 
L 61.375 23.046875 
Q 58.984375 10.75 51.5625 5.375 
Q 44.875 0.53125 33.796875 -1.171875 
L 29.984375 -20.796875 
L 21.046875 -20.796875 
z
" id="DejaVuSans-Oblique-968"/>
     </defs>
     <g transform="translate(528.245312 152.607969)scale(0.1 -0.1)">
      <use transform="translate(19.482422 0.09375)" xlink:href="#DejaVuSans-8659"/>
      <use transform="translate(122.753906 0.09375)" xlink:href="#DejaVuSans-Oblique-963"/>
      <use transform="translate(186.132812 -16.3125)scale(0.7)" xlink:href="#DejaVuSans-Oblique-968"/>
     </g>
    </g>
    <g id="line2d_24">
     <path d="M 500.245312 164.806406 
L 520.245312 164.806406 
" style="fill:none;stroke:#ff7f0e;stroke-linecap:square;stroke-width:1.5;"/>
    </g>
    <g id="line2d_25"/>
    <g id="text_20">
     <!-- $\Downarrow s_\psi$ -->
     <defs>
      <path d="M 50 53.078125 
L 48.296875 44.578125 
Q 44.734375 46.53125 40.765625 47.5 
Q 36.8125 48.484375 32.625 48.484375 
Q 25.53125 48.484375 21.453125 46.0625 
Q 17.390625 43.65625 17.390625 39.5 
Q 17.390625 34.671875 26.859375 32.078125 
Q 27.59375 31.890625 27.9375 31.78125 
L 30.8125 30.90625 
Q 39.796875 28.421875 42.796875 25.6875 
Q 45.796875 22.953125 45.796875 18.21875 
Q 45.796875 9.515625 38.890625 4.046875 
Q 31.984375 -1.421875 20.796875 -1.421875 
Q 16.453125 -1.421875 11.671875 -0.578125 
Q 6.890625 0.25 1.125 2 
L 2.875 11.28125 
Q 7.8125 8.734375 12.59375 7.421875 
Q 17.390625 6.109375 21.78125 6.109375 
Q 28.375 6.109375 32.5 8.9375 
Q 36.625 11.765625 36.625 16.109375 
Q 36.625 20.796875 25.78125 23.6875 
L 24.859375 23.921875 
L 21.78125 24.703125 
Q 14.9375 26.515625 11.765625 29.46875 
Q 8.59375 32.421875 8.59375 37.015625 
Q 8.59375 45.75 15.15625 50.875 
Q 21.734375 56 33.015625 56 
Q 37.453125 56 41.671875 55.265625 
Q 45.90625 54.546875 50 53.078125 
z
" id="DejaVuSans-Oblique-115"/>
     </defs>
     <g transform="translate(528.245312 168.306406)scale(0.1 -0.1)">
      <use transform="translate(19.482422 0.09375)" xlink:href="#DejaVuSans-8659"/>
      <use transform="translate(122.753906 0.09375)" xlink:href="#DejaVuSans-Oblique-115"/>
      <use transform="translate(174.853516 -16.3125)scale(0.7)" xlink:href="#DejaVuSans-Oblique-968"/>
     </g>
    </g>
    <g id="line2d_26">
     <path d="M 500.245312 180.504844 
L 520.245312 180.504844 
" style="fill:none;stroke:#2ca02c;stroke-linecap:square;stroke-width:1.5;"/>
    </g>
    <g id="line2d_27"/>
    <g id="text_21">
     <!-- $\Uparrow \eta$ -->
     <defs>
      <path d="M 36.765625 58.59375 
L 36.765625 0 
L 30.90625 0 
L 30.90625 52.734375 
L 26.421875 48.140625 
L 20.5625 54 
L 39.703125 73.25 
L 44.09375 73.25 
L 63.328125 54 
L 57.46875 48.140625 
L 52.875 52.734375 
L 52.875 0 
L 47.015625 0 
L 47.015625 58.59375 
L 41.9375 63.671875 
z
" id="DejaVuSans-8657"/>
      <path d="M 57.859375 33.015625 
L 47.40625 -20.796875 
L 38.421875 -20.796875 
L 48.828125 32.71875 
Q 50.34375 40.484375 48.046875 44.34375 
Q 45.796875 48.1875 39.75 48.1875 
Q 32.46875 48.1875 27.34375 43.5625 
Q 22.265625 38.921875 20.703125 30.90625 
L 14.703125 0 
L 5.671875 0 
L 16.3125 54.6875 
L 25.34375 54.6875 
L 23.6875 46.1875 
Q 27.828125 51.125 32.71875 53.5625 
Q 37.546875 56 43.265625 56 
Q 52.6875 56 56.390625 50.203125 
Q 60.0625 44.34375 57.859375 33.015625 
z
" id="DejaVuSans-Oblique-951"/>
     </defs>
     <g transform="translate(528.245312 184.004844)scale(0.1 -0.1)">
      <use transform="translate(19.482422 0.75)" xlink:href="#DejaVuSans-8657"/>
      <use transform="translate(122.753906 0.75)" xlink:href="#DejaVuSans-Oblique-951"/>
     </g>
    </g>
   </g>
  </g>
 </g>
 <defs>
  <clipPath id="pb03574a0c7">
   <rect height="271.8" width="446.4" x="44.845313" y="22.318125"/>
  </clipPath>
 </defs>
</svg>
