<?xml version="1.0" encoding="utf-8" standalone="no"?>
<!DOCTYPE svg PUBLIC "-//W3C//DTD SVG 1.1//EN"
  "http://www.w3.org/Graphics/SVG/1.1/DTD/svg11.dtd">
<!-- Created with matplotlib (https://matplotlib.org/) -->
<svg height="331.674375pt" version="1.1" viewBox="0 0 575.48125 331.674375" width="575.48125pt" xmlns="http://www.w3.org/2000/svg" xmlns:xlink="http://www.w3.org/1999/xlink">
 <defs>
  <style type="text/css">
*{stroke-linecap:butt;stroke-linejoin:round;}
  </style>
 </defs>
 <g id="figure_1">
  <g id="patch_1">
   <path d="M 0 331.674375 
L 575.48125 331.674375 
L 575.48125 0 
L 0 0 
z
" style="fill:#ffffff;"/>
  </g>
  <g id="axes_1">
   <g id="patch_2">
    <path d="M 38.482813 294.118125 
L 484.882812 294.118125 
L 484.882812 22.318125 
L 38.482813 22.318125 
z
" style="fill:#ffffff;"/>
   </g>
   <g id="line2d_1">
    <path clip-path="url(#pb5a693c5a5)" d="M 58.773722 151.037529 
L 59.499693 205.598856 
L 60.225665 155.126449 
L 60.951637 181.032063 
L 61.677608 169.689212 
L 62.40358 146.391798 
L 63.129552 160.296025 
L 63.855524 190.546059 
L 64.581495 132.64499 
L 65.307467 226.584023 
L 66.033439 103.944414 
L 66.75941 167.212487 
L 67.485382 215.513638 
L 68.211354 138.67291 
L 68.937325 158.383117 
L 69.663297 127.782517 
L 70.389269 144.222986 
L 71.115241 167.239545 
L 71.841212 130.607035 
L 72.567184 160.320587 
L 73.293156 149.924807 
L 74.019127 150.644687 
L 74.745099 155.250289 
L 75.471071 170.463072 
L 76.197042 164.632575 
L 76.923014 173.524323 
L 77.648986 204.516029 
L 78.374958 219.90147 
L 79.100929 103.883693 
L 79.826901 188.684741 
L 80.552873 160.975821 
L 81.278844 110.372504 
L 82.004816 108.749603 
L 82.730788 145.962147 
L 83.456759 191.824644 
L 84.182731 218.314421 
L 84.908703 187.985939 
L 85.634675 72.963317 
L 86.360646 87.407261 
L 87.086618 75.355345 
L 87.81259 135.073596 
L 88.538561 157.438688 
L 89.264533 128.017347 
L 89.990505 111.239037 
L 90.716477 117.086985 
L 91.442448 160.516758 
L 92.16842 128.335356 
L 92.894392 156.152177 
L 93.620363 132.361291 
L 94.346335 141.297413 
L 95.072307 138.92085 
L 95.798278 139.383274 
L 96.52425 125.784239 
L 97.250222 114.888528 
L 97.976194 116.837493 
L 98.702165 118.203588 
L 99.428137 194.556751 
L 100.154109 209.071761 
L 100.88008 180.696427 
L 101.606052 143.062825 
L 102.332024 160.691665 
L 103.057995 194.44296 
L 103.783967 90.116875 
L 104.509939 130.559124 
L 105.235911 158.954707 
L 105.961882 194.39088 
L 106.687854 136.806478 
L 107.413826 164.13165 
L 108.139797 173.800456 
L 108.865769 173.984212 
L 109.591741 225.923284 
L 110.317712 231.868225 
L 111.043684 105.690506 
L 111.769656 124.403545 
L 112.495628 119.444222 
L 113.221599 184.936047 
L 113.947571 214.693173 
L 114.673543 158.215567 
L 115.399514 124.219093 
L 116.851458 181.179487 
L 117.57743 126.819042 
L 118.303401 91.314778 
L 119.029373 152.06006 
L 119.755345 240.319003 
L 120.481316 150.922961 
L 121.207288 166.701871 
L 121.93326 146.453948 
L 122.659231 109.286395 
L 123.385203 160.005272 
L 124.111175 162.793814 
L 124.837147 200.495534 
L 125.563118 213.94276 
L 126.28909 175.529788 
L 127.015062 185.796464 
L 127.741033 221.666046 
L 128.467005 152.10857 
L 129.192977 134.333176 
L 129.918948 134.495771 
L 130.64492 78.998387 
L 131.370892 127.252191 
L 132.096864 197.551724 
L 132.822835 173.136154 
L 133.548807 211.766779 
L 134.274779 134.714961 
L 135.00075 93.541943 
L 135.726722 177.773978 
L 136.452694 156.438862 
L 137.178665 105.550392 
L 137.904637 174.05822 
L 138.630609 137.704951 
L 139.356581 207.991775 
L 140.808524 99.017457 
L 141.534496 110.052712 
L 142.260467 110.141569 
L 142.986439 124.128026 
L 143.712411 88.739263 
L 144.438383 129.553253 
L 145.164354 179.166345 
L 145.890326 173.381886 
L 146.616298 133.889235 
L 147.342269 142.249874 
L 148.068241 157.12218 
L 148.794213 194.104932 
L 149.520184 175.687343 
L 150.246156 166.243717 
L 150.972128 245.291298 
L 151.6981 226.485256 
L 153.150043 139.597173 
L 153.876015 171.891827 
L 154.601986 118.150823 
L 156.05393 220.969978 
L 156.779901 178.952335 
L 157.505873 152.477369 
L 158.231845 143.619843 
L 158.957817 162.743419 
L 159.683788 186.096609 
L 160.40976 100.816201 
L 161.135732 162.766729 
L 161.861703 169.394008 
L 162.587675 142.577531 
L 163.313647 220.387252 
L 164.039618 200.970378 
L 164.76559 195.572513 
L 165.491562 72.296052 
L 166.217534 86.500629 
L 166.943505 37.323431 
L 167.669477 39.170724 
L 168.395449 63.310936 
L 169.12142 159.5751 
L 169.847392 208.378788 
L 170.573364 116.115164 
L 171.299336 165.603985 
L 172.025307 123.716034 
L 172.751279 117.721266 
L 173.477251 175.016014 
L 174.203222 178.201692 
L 174.929194 174.488982 
L 175.655166 171.783976 
L 176.381137 202.735999 
L 177.107109 126.891529 
L 177.833081 135.711737 
L 178.559053 157.883598 
L 179.285024 148.440213 
L 180.010996 181.511772 
L 180.736968 223.450835 
L 181.462939 198.650338 
L 182.188911 98.466043 
L 182.914883 94.909818 
L 183.640854 186.125733 
L 184.366826 197.054426 
L 185.092798 177.9659 
L 185.81877 192.04787 
L 186.544741 192.262673 
L 187.270713 110.832055 
L 187.996685 147.027515 
L 188.722656 161.92331 
L 189.448628 213.509182 
L 190.1746 193.466104 
L 190.900571 184.575295 
L 191.626543 216.610764 
L 192.352515 166.017427 
L 193.078487 209.51277 
L 194.53043 188.93369 
L 195.256402 143.716482 
L 195.982373 139.14079 
L 196.708345 138.424998 
L 198.160289 224.618368 
L 198.88626 193.888976 
L 199.612232 173.549088 
L 200.338204 160.782097 
L 201.064175 175.782712 
L 201.790147 250.191515 
L 203.24209 194.974337 
L 203.968062 227.464506 
L 204.694034 187.186435 
L 205.420006 185.813099 
L 206.145977 142.969474 
L 206.871949 107.453773 
L 207.597921 145.566338 
L 208.323892 189.663796 
L 209.049864 128.677307 
L 209.775836 149.426071 
L 210.501807 100.668984 
L 211.227779 141.776938 
L 211.953751 123.107684 
L 212.679723 159.968299 
L 213.405694 179.218572 
L 214.131666 160.289164 
L 214.857638 165.748025 
L 215.583609 193.226321 
L 216.309581 145.94629 
L 217.035553 130.810088 
L 217.761524 185.092338 
L 218.487496 221.927227 
L 219.213468 170.263475 
L 219.93944 177.922755 
L 220.665411 195.372685 
L 221.391383 183.194416 
L 222.117355 156.219313 
L 222.843326 216.894583 
L 223.569298 185.232325 
L 224.29527 114.61337 
L 225.021242 133.963233 
L 225.747213 186.067901 
L 226.473185 174.885563 
L 227.199157 126.838398 
L 227.925128 127.839948 
L 228.6511 107.961808 
L 229.377072 191.65461 
L 230.103043 121.23331 
L 230.829015 168.352659 
L 231.554987 130.944648 
L 232.280959 172.176984 
L 233.00693 155.431025 
L 233.732902 127.603148 
L 234.458874 110.644308 
L 235.184845 151.412996 
L 235.910817 105.851352 
L 237.36276 170.163814 
L 238.088732 183.106184 
L 238.814704 204.172654 
L 239.540676 148.238823 
L 240.266647 133.281438 
L 240.992619 133.48642 
L 241.718591 200.610121 
L 242.444562 194.047857 
L 243.170534 174.80979 
L 243.896506 136.101085 
L 244.622477 160.483512 
L 245.348449 163.518212 
L 246.074421 148.210772 
L 246.800393 155.754257 
L 247.526364 157.939997 
L 248.252336 179.864352 
L 248.978308 155.305587 
L 249.704279 160.354729 
L 250.430251 154.20927 
L 251.156223 155.825627 
L 251.882195 132.843869 
L 252.608166 161.391048 
L 253.334138 172.384217 
L 254.06011 126.615494 
L 254.786081 183.686735 
L 255.512053 224.995168 
L 256.238025 189.3312 
L 256.963996 184.694499 
L 257.689968 188.362761 
L 258.41594 103.347212 
L 259.141912 186.672536 
L 259.867883 183.515258 
L 260.593855 175.733054 
L 261.319827 176.293006 
L 262.77177 124.261836 
L 263.497742 157.457533 
L 264.223713 166.789821 
L 264.949685 192.052574 
L 265.675657 171.535087 
L 266.401629 221.660305 
L 267.1276 112.410536 
L 267.853572 123.840266 
L 268.579544 185.96007 
L 269.305515 141.9253 
L 270.031487 149.104761 
L 270.757459 169.745281 
L 271.48343 154.127381 
L 272.209402 198.120495 
L 272.935374 222.966002 
L 273.661346 227.69792 
L 274.387317 186.753441 
L 275.113289 112.194983 
L 275.839261 162.993073 
L 276.565232 163.936723 
L 277.291204 137.342764 
L 278.017176 160.416437 
L 278.743148 171.400821 
L 279.469119 154.713282 
L 280.921063 237.708847 
L 281.647034 218.358134 
L 282.373006 226.973499 
L 283.098978 154.992506 
L 283.824949 132.364081 
L 284.550921 159.110283 
L 285.276893 128.844545 
L 286.002865 159.795017 
L 286.728836 177.405296 
L 287.454808 144.647573 
L 288.18078 129.009989 
L 288.906751 147.241439 
L 289.632723 123.086564 
L 290.358695 134.253013 
L 291.084666 86.825968 
L 291.810638 158.538344 
L 292.53661 172.518499 
L 293.262582 136.89602 
L 293.988553 163.128703 
L 294.714525 162.238014 
L 295.440497 167.105149 
L 296.166468 167.154016 
L 296.89244 149.694323 
L 297.618412 163.343651 
L 298.344383 140.464942 
L 299.070355 122.361314 
L 299.796327 136.041859 
L 300.522299 224.160429 
L 301.24827 152.950629 
L 301.974242 150.128457 
L 302.700214 138.170297 
L 303.426185 142.570312 
L 304.152157 153.8205 
L 304.878129 175.889822 
L 305.604101 201.783635 
L 306.330072 174.477643 
L 307.056044 165.441239 
L 307.782016 154.071666 
L 308.507987 153.32767 
L 309.233959 136.14932 
L 309.959931 155.955099 
L 310.685902 144.374068 
L 311.411874 111.012433 
L 312.863818 184.923525 
L 313.589789 147.911882 
L 314.315761 127.099752 
L 315.041733 101.418781 
L 315.767704 168.559703 
L 316.493676 175.772939 
L 317.219648 217.52394 
L 317.945619 132.980574 
L 318.671591 154.517703 
L 319.397563 108.146834 
L 320.123535 163.589223 
L 320.849506 142.036693 
L 321.575478 185.671055 
L 322.30145 159.974907 
L 323.027421 159.308721 
L 323.753393 125.502917 
L 324.479365 154.673078 
L 325.205336 153.948835 
L 325.931308 160.416343 
L 326.65728 154.334478 
L 327.383252 112.50695 
L 328.109223 156.353214 
L 328.835195 119.989501 
L 329.561167 183.81374 
L 330.287138 172.089019 
L 331.01311 148.184246 
L 331.739082 146.496253 
L 332.465054 157.360802 
L 333.191025 187.71087 
L 333.916997 160.16833 
L 334.642969 167.24931 
L 335.36894 176.304234 
L 336.094912 178.383137 
L 336.820884 183.056944 
L 337.546855 151.958848 
L 338.272827 158.78293 
L 338.998799 146.787084 
L 339.724771 155.416998 
L 340.450742 156.500167 
L 341.176714 157.995836 
L 341.902686 147.558838 
L 342.628657 178.44192 
L 343.354629 154.658777 
L 344.080601 115.027841 
L 344.806572 162.469151 
L 345.532544 171.698819 
L 346.258516 147.491499 
L 346.984488 156.031749 
L 347.710459 152.886647 
L 348.436431 159.236642 
L 349.162403 155.924279 
L 349.888374 158.612146 
L 350.614346 158.503944 
L 351.340318 182.566627 
L 352.066289 174.226778 
L 352.792261 146.002015 
L 353.518233 168.361053 
L 354.244205 165.936662 
L 354.970176 160.791786 
L 355.696148 167.150439 
L 356.42212 151.511791 
L 357.148091 147.788531 
L 357.874063 181.561921 
L 358.600035 148.884538 
L 359.326007 169.45179 
L 360.051978 143.770231 
L 360.77795 91.197001 
L 361.503922 183.108391 
L 362.229893 152.884178 
L 362.955865 132.930459 
L 363.681837 155.038162 
L 364.407808 163.345474 
L 365.13378 158.782359 
L 365.859752 153.391346 
L 366.585724 150.176748 
L 367.311695 168.878188 
L 368.037667 156.836593 
L 368.763639 181.487147 
L 369.48961 151.592261 
L 370.941554 159.551879 
L 371.667525 153.910861 
L 372.393497 156.842314 
L 373.119469 142.851128 
L 373.845441 155.881645 
L 374.571412 150.416199 
L 375.297384 189.150074 
L 376.749327 113.222292 
L 377.475299 179.336899 
L 378.201271 178.366817 
L 378.927242 137.017282 
L 379.653214 169.520929 
L 380.379186 196.962011 
L 381.105158 143.02646 
L 381.831129 186.085457 
L 382.557101 97.97035 
L 383.283073 140.772819 
L 384.009044 149.84952 
L 384.735016 173.119681 
L 385.460988 166.609728 
L 386.18696 151.398476 
L 386.912931 133.501543 
L 387.638903 155.595119 
L 388.364875 142.681488 
L 389.090846 157.792133 
L 389.816818 161.600406 
L 390.54279 176.240225 
L 391.268761 171.398684 
L 391.994733 160.133509 
L 392.720705 164.726883 
L 393.446677 128.164742 
L 394.172648 118.663765 
L 394.89862 174.018528 
L 396.350563 158.880792 
L 397.076535 142.898142 
L 397.802507 159.54001 
L 398.528478 123.24576 
L 399.25445 122.812074 
L 399.980422 146.53984 
L 400.706394 147.598527 
L 401.432365 154.490667 
L 402.158337 199.341325 
L 402.884309 102.410237 
L 403.61028 165.629889 
L 404.336252 131.293464 
L 405.062224 154.744369 
L 405.788195 137.914153 
L 406.514167 148.84785 
L 407.240139 136.402176 
L 407.966111 134.299603 
L 408.692082 156.503144 
L 409.418054 163.812681 
L 410.144026 157.14618 
L 410.869997 125.819711 
L 411.595969 112.934776 
L 412.321941 178.977675 
L 413.047913 144.235679 
L 413.773884 122.071767 
L 414.499856 136.44297 
L 415.225828 134.995198 
L 415.951799 109.739979 
L 416.677771 178.562701 
L 417.403743 130.177294 
L 418.129714 173.32833 
L 418.855686 157.85677 
L 419.581658 138.025188 
L 420.30763 162.646842 
L 421.033601 144.137638 
L 421.759573 177.706925 
L 422.485545 162.779273 
L 423.211516 181.849648 
L 423.937488 156.956473 
L 424.66346 160.951697 
L 425.389431 149.181759 
L 426.115403 154.58888 
L 426.841375 162.544594 
L 427.567347 162.69469 
L 428.293318 162.716926 
L 429.01929 153.886763 
L 429.745262 174.333276 
L 430.471233 154.439392 
L 431.197205 153.670392 
L 431.923177 149.188173 
L 432.649148 146.909656 
L 433.37512 173.463642 
L 434.101092 153.716184 
L 434.827064 183.836901 
L 435.553035 142.821061 
L 436.279007 166.392951 
L 437.004979 166.112294 
L 437.73095 165.556262 
L 438.456922 156.81802 
L 439.182894 155.525253 
L 439.908866 158.70131 
L 440.634837 155.991233 
L 441.360809 159.700948 
L 442.086781 133.024188 
L 442.812752 155.185103 
L 443.538724 144.619922 
L 444.264696 151.764739 
L 444.990667 145.836722 
L 445.716639 155.096571 
L 446.442611 155.488234 
L 447.168583 158.5642 
L 447.894554 158.254953 
L 448.620526 160.163141 
L 449.346498 157.883589 
L 450.072469 158.842283 
L 450.798441 152.111809 
L 451.524413 159.860158 
L 452.250384 112.435832 
L 452.976356 162.357905 
L 453.702328 140.546107 
L 454.4283 163.135387 
L 455.154271 131.940023 
L 455.880243 164.512964 
L 456.606215 159.910557 
L 457.332186 159.272397 
L 458.058158 164.358914 
L 458.78413 152.892058 
L 459.510101 159.810835 
L 460.236073 154.21374 
L 460.962045 162.801943 
L 461.688017 150.880139 
L 462.413988 152.818789 
L 463.13996 160.459507 
L 463.865932 158.797811 
L 464.591903 158.58288 
L 464.591903 158.58288 
" style="fill:none;stroke:#1f77b4;stroke-linecap:square;stroke-width:1.5;"/>
   </g>
   <g id="line2d_2">
    <path clip-path="url(#pb5a693c5a5)" d="M 58.773722 111.705484 
L 59.499693 195.295637 
L 60.225665 168.30134 
L 60.951637 200.883802 
L 61.677608 202.93638 
L 62.40358 131.418167 
L 63.129552 109.741606 
L 63.855524 156.417818 
L 64.581495 88.63724 
L 65.307467 153.979713 
L 66.033439 158.301855 
L 66.75941 153.070219 
L 67.485382 161.032503 
L 68.211354 135.799999 
L 68.937325 199.908644 
L 69.663297 199.511029 
L 70.389269 214.446395 
L 71.115241 246.865918 
L 71.841212 102.603645 
L 72.567184 182.323922 
L 73.293156 184.913636 
L 74.019127 148.68553 
L 74.745099 195.39391 
L 75.471071 234.894195 
L 76.197042 176.714322 
L 76.923014 130.298229 
L 77.648986 160.376839 
L 78.374958 148.726584 
L 79.100929 152.609783 
L 79.826901 153.560879 
L 80.552873 152.232615 
L 81.278844 130.064839 
L 82.004816 137.736267 
L 82.730788 125.333107 
L 83.456759 192.74815 
L 84.182731 208.225325 
L 84.908703 153.411663 
L 85.634675 146.237726 
L 86.360646 122.441421 
L 87.81259 211.136806 
L 88.538561 191.312174 
L 89.264533 190.615819 
L 89.990505 178.300268 
L 90.716477 198.010193 
L 91.442448 226.385566 
L 92.16842 159.75469 
L 92.894392 201.011113 
L 93.620363 122.679736 
L 94.346335 102.531835 
L 95.072307 136.192003 
L 95.798278 159.06957 
L 96.52425 150.350711 
L 97.250222 152.064041 
L 97.976194 102.587704 
L 98.702165 127.636373 
L 99.428137 187.001139 
L 100.154109 191.287546 
L 100.88008 178.534829 
L 101.606052 162.278719 
L 102.332024 173.064637 
L 103.057995 220.365328 
L 103.783967 128.201382 
L 104.509939 134.545734 
L 105.235911 154.798054 
L 105.961882 211.482937 
L 106.687854 138.966093 
L 107.413826 125.411268 
L 108.865769 157.542188 
L 109.591741 187.324336 
L 110.317712 241.110587 
L 111.043684 179.885141 
L 111.769656 158.528098 
L 112.495628 124.431043 
L 113.221599 62.786319 
L 114.673543 214.000682 
L 115.399514 95.638326 
L 116.125486 118.347982 
L 116.851458 150.864689 
L 117.57743 156.904626 
L 118.303401 147.117946 
L 119.029373 144.873637 
L 119.755345 209.858094 
L 120.481316 228.457839 
L 121.207288 147.02851 
L 121.93326 96.010079 
L 122.659231 153.827008 
L 123.385203 153.38816 
L 124.111175 123.448392 
L 124.837147 186.604199 
L 125.563118 173.69378 
L 126.28909 96.347861 
L 127.015062 96.992307 
L 127.741033 170.937272 
L 128.467005 155.720699 
L 129.192977 160.205506 
L 129.918948 204.957535 
L 130.64492 111.077222 
L 131.370892 140.145555 
L 132.096864 180.244383 
L 132.822835 101.946705 
L 133.548807 169.203831 
L 134.274779 201.215624 
L 135.00075 155.260342 
L 135.726722 177.604967 
L 136.452694 142.830528 
L 137.178665 149.014756 
L 137.904637 163.192539 
L 138.630609 164.181574 
L 139.356581 197.975115 
L 140.082552 213.765202 
L 140.808524 219.380089 
L 141.534496 179.683512 
L 142.260467 180.953991 
L 142.986439 162.55213 
L 143.712411 170.339006 
L 145.164354 236.152466 
L 145.890326 199.100871 
L 146.616298 171.877681 
L 147.342269 175.020333 
L 148.068241 208.712047 
L 148.794213 214.937287 
L 149.520184 188.077325 
L 150.246156 211.106601 
L 150.972128 281.76358 
L 151.6981 273.813377 
L 152.424071 144.262141 
L 153.150043 98.097391 
L 153.876015 131.884349 
L 154.601986 140.93461 
L 155.327958 159.691293 
L 156.05393 186.214833 
L 156.779901 77.586635 
L 157.505873 134.990102 
L 158.231845 176.769186 
L 158.957817 107.353031 
L 159.683788 111.187773 
L 160.40976 148.090783 
L 161.135732 200.560841 
L 161.861703 170.328697 
L 162.587675 166.468384 
L 163.313647 214.997429 
L 164.039618 241.741554 
L 164.76559 143.159949 
L 165.491562 147.734129 
L 166.217534 139.015638 
L 166.943505 34.67267 
L 167.669477 55.732124 
L 168.395449 45.587207 
L 169.12142 108.014058 
L 169.847392 184.74316 
L 170.573364 153.104973 
L 171.299336 179.2572 
L 172.025307 153.376855 
L 172.751279 121.02132 
L 173.477251 161.337597 
L 174.203222 128.613635 
L 174.929194 170.650018 
L 175.655166 112.580119 
L 176.381137 129.199171 
L 177.107109 118.107839 
L 177.833081 97.329506 
L 178.559053 116.411052 
L 179.285024 101.625776 
L 180.010996 144.962158 
L 180.736968 204.310734 
L 182.188911 116.089084 
L 182.914883 124.361436 
L 183.640854 158.061332 
L 184.366826 163.33149 
L 185.092798 78.454986 
L 185.81877 134.459071 
L 186.544741 124.871671 
L 187.270713 138.439123 
L 187.996685 115.0351 
L 188.722656 187.453866 
L 189.448628 160.553134 
L 190.1746 110.683263 
L 190.900571 155.22402 
L 191.626543 192.407162 
L 192.352515 149.406113 
L 193.078487 178.872892 
L 193.804458 196.667067 
L 194.53043 132.440837 
L 195.256402 129.342798 
L 195.982373 147.945962 
L 197.434317 208.699034 
L 198.160289 187.915572 
L 198.88626 204.161592 
L 199.612232 166.761301 
L 200.338204 182.469407 
L 201.064175 172.723994 
L 201.790147 196.848383 
L 202.516119 188.747826 
L 203.24209 208.552666 
L 203.968062 199.163194 
L 204.694034 152.027673 
L 205.420006 157.562026 
L 206.145977 149.274665 
L 206.871949 136.588947 
L 207.597921 190.575858 
L 208.323892 163.27595 
L 209.049864 93.363441 
L 209.775836 183.286764 
L 210.501807 149.413896 
L 211.953751 188.66466 
L 212.679723 182.029287 
L 213.405694 212.410171 
L 214.131666 176.323235 
L 214.857638 117.79598 
L 215.583609 171.490102 
L 216.309581 115.118523 
L 217.035553 149.647698 
L 217.761524 205.375784 
L 218.487496 214.238881 
L 219.213468 179.465077 
L 219.93944 182.644654 
L 220.665411 198.827335 
L 221.391383 184.680307 
L 222.117355 205.95127 
L 222.843326 248.127469 
L 223.569298 212.39914 
L 224.29527 160.47545 
L 225.021242 235.351819 
L 225.747213 238.804967 
L 226.473185 205.798099 
L 227.199157 248.651216 
L 227.925128 200.017073 
L 228.6511 171.433243 
L 229.377072 228.322295 
L 230.103043 203.989317 
L 230.829015 231.679929 
L 231.554987 164.149837 
L 232.280959 178.561905 
L 233.00693 60.615086 
L 234.458874 179.204914 
L 235.184845 196.809323 
L 235.910817 125.919682 
L 236.636789 102.898049 
L 237.36276 181.586954 
L 238.088732 187.105075 
L 238.814704 231.000344 
L 240.266647 128.532492 
L 240.992619 71.682478 
L 241.718591 168.586418 
L 242.444562 189.677971 
L 243.170534 197.042319 
L 243.896506 191.847755 
L 244.622477 196.303366 
L 245.348449 174.276119 
L 246.074421 92.881842 
L 246.800393 159.153226 
L 247.526364 151.338824 
L 248.252336 172.518385 
L 248.978308 157.836544 
L 249.704279 153.953514 
L 250.430251 161.682771 
L 251.156223 157.017903 
L 251.882195 176.275652 
L 252.608166 146.017638 
L 253.334138 162.496451 
L 254.06011 172.181428 
L 254.786081 147.127587 
L 255.512053 187.750483 
L 256.238025 184.723548 
L 256.963996 176.897777 
L 257.689968 190.901057 
L 258.41594 166.694968 
L 259.141912 189.493293 
L 259.867883 178.88311 
L 260.593855 193.535942 
L 261.319827 197.323351 
L 262.77177 138.200802 
L 263.497742 149.685334 
L 264.223713 136.731263 
L 264.949685 177.619204 
L 265.675657 139.01909 
L 266.401629 210.757922 
L 267.1276 112.217676 
L 267.853572 118.504953 
L 268.579544 191.574532 
L 269.305515 128.053354 
L 270.031487 177.50816 
L 270.757459 172.945151 
L 271.48343 151.011113 
L 272.209402 167.253676 
L 272.935374 217.960855 
L 273.661346 186.47437 
L 274.387317 128.408459 
L 275.113289 146.96181 
L 275.839261 158.492243 
L 276.565232 133.535226 
L 277.291204 145.645022 
L 278.017176 170.351404 
L 278.743148 116.209769 
L 279.469119 129.423143 
L 280.195091 126.135257 
L 280.921063 191.055709 
L 281.647034 133.361244 
L 282.373006 173.966132 
L 283.098978 143.546106 
L 283.824949 132.592035 
L 284.550921 181.269816 
L 285.276893 128.38306 
L 286.002865 156.876517 
L 286.728836 167.134558 
L 287.454808 152.871172 
L 288.18078 122.064036 
L 288.906751 144.020629 
L 289.632723 97.304059 
L 290.358695 123.850861 
L 291.084666 82.667417 
L 291.810638 146.99231 
L 292.53661 150.994043 
L 293.262582 141.016454 
L 293.988553 165.272932 
L 294.714525 152.903816 
L 295.440497 175.893418 
L 296.166468 173.111937 
L 296.89244 79.926929 
L 297.618412 92.453739 
L 298.344383 66.495384 
L 299.070355 160.438345 
L 299.796327 128.145107 
L 300.522299 197.112656 
L 301.24827 132.87027 
L 301.974242 122.100482 
L 302.700214 106.560992 
L 303.426185 99.568999 
L 304.152157 82.005643 
L 304.878129 175.34267 
L 305.604101 153.146064 
L 306.330072 147.814874 
L 307.782016 174.875554 
L 308.507987 150.282731 
L 309.233959 149.316982 
L 309.959931 151.192928 
L 310.685902 145.774835 
L 311.411874 181.678742 
L 312.137846 137.371424 
L 312.863818 187.798981 
L 313.589789 177.41313 
L 314.315761 92.537951 
L 315.041733 134.405717 
L 315.767704 150.162455 
L 316.493676 156.137185 
L 317.219648 187.104642 
L 317.945619 111.166713 
L 318.671591 140.944382 
L 319.397563 137.384115 
L 320.123535 157.014634 
L 320.849506 144.240605 
L 321.575478 207.551047 
L 322.30145 222.876404 
L 323.027421 200.846728 
L 323.753393 143.576144 
L 324.479365 144.380516 
L 325.205336 214.392982 
L 325.931308 186.759904 
L 326.65728 194.149789 
L 327.383252 101.827717 
L 328.109223 155.253474 
L 328.835195 155.693522 
L 329.561167 178.731463 
L 330.287138 168.853718 
L 331.01311 172.520539 
L 331.739082 177.822994 
L 332.465054 101.160789 
L 333.191025 131.736606 
L 333.916997 197.235834 
L 334.642969 196.998058 
L 335.36894 132.098948 
L 336.094912 174.135156 
L 336.820884 183.279829 
L 337.546855 168.624074 
L 338.272827 185.179918 
L 338.998799 158.318746 
L 339.724771 181.447707 
L 340.450742 191.113492 
L 341.176714 192.113942 
L 341.902686 168.163561 
L 342.628657 167.677368 
L 343.354629 178.288055 
L 344.080601 141.234376 
L 344.806572 189.371015 
L 345.532544 223.752575 
L 346.258516 168.377848 
L 347.710459 177.873064 
L 348.436431 154.516707 
L 349.162403 180.482728 
L 349.888374 149.471963 
L 350.614346 173.497524 
L 351.340318 175.179111 
L 352.066289 162.092927 
L 352.792261 164.758378 
L 353.518233 152.460437 
L 354.244205 164.901408 
L 354.970176 182.864978 
L 356.42212 150.194715 
L 357.148091 152.433577 
L 357.874063 180.260829 
L 358.600035 148.409347 
L 359.326007 138.892749 
L 360.051978 154.097192 
L 360.77795 161.377826 
L 361.503922 188.606927 
L 362.229893 182.452668 
L 362.955865 102.323969 
L 363.681837 146.995713 
L 364.407808 163.665747 
L 365.13378 148.245096 
L 365.859752 142.070254 
L 366.585724 175.251672 
L 367.311695 161.316508 
L 368.037667 150.481974 
L 368.763639 159.368957 
L 369.48961 135.226461 
L 370.215582 159.44248 
L 370.941554 166.173937 
L 371.667525 146.991347 
L 372.393497 175.7861 
L 373.119469 107.735138 
L 373.845441 154.998626 
L 374.571412 166.25244 
L 375.297384 205.466723 
L 376.749327 127.320449 
L 377.475299 134.871926 
L 378.201271 182.826414 
L 378.927242 147.52087 
L 379.653214 148.00583 
L 380.379186 157.909695 
L 381.105158 117.04244 
L 381.831129 173.997421 
L 382.557101 151.957475 
L 383.283073 133.670681 
L 384.009044 189.177006 
L 384.735016 143.21595 
L 385.460988 139.564516 
L 386.18696 162.386263 
L 386.912931 133.457662 
L 387.638903 154.310454 
L 388.364875 139.166305 
L 389.090846 156.739178 
L 389.816818 161.35561 
L 390.54279 176.436497 
L 391.268761 126.152885 
L 391.994733 129.583907 
L 392.720705 146.122423 
L 393.446677 150.410047 
L 394.172648 146.937551 
L 394.89862 160.792012 
L 395.624592 150.397951 
L 396.350563 165.717965 
L 397.076535 119.36095 
L 397.802507 152.998262 
L 398.528478 132.870597 
L 399.25445 123.899276 
L 399.980422 145.876918 
L 400.706394 140.897044 
L 401.432365 132.239776 
L 402.158337 162.271897 
L 402.884309 114.011488 
L 403.61028 155.907356 
L 404.336252 133.067472 
L 405.062224 142.735236 
L 405.788195 119.92918 
L 406.514167 153.849146 
L 407.240139 151.62407 
L 407.966111 148.782285 
L 408.692082 160.460578 
L 409.418054 155.009159 
L 410.144026 161.830011 
L 410.869997 126.581137 
L 411.595969 120.686593 
L 412.321941 178.17298 
L 413.047913 119.99971 
L 413.773884 127.32329 
L 414.499856 131.856275 
L 415.225828 131.817365 
L 415.951799 112.42958 
L 416.677771 179.448242 
L 417.403743 137.998748 
L 418.129714 181.062165 
L 418.855686 162.986321 
L 419.581658 136.950456 
L 420.30763 161.101756 
L 421.033601 148.153527 
L 421.759573 181.38089 
L 422.485545 186.472064 
L 423.211516 153.626551 
L 423.937488 176.589734 
L 424.66346 156.050236 
L 425.389431 160.986479 
L 426.115403 155.955204 
L 426.841375 158.893496 
L 428.293318 168.587967 
L 429.01929 151.947973 
L 429.745262 182.000648 
L 430.471233 148.040762 
L 431.197205 150.139382 
L 431.923177 146.640235 
L 432.649148 159.998414 
L 433.37512 158.122615 
L 434.101092 154.858531 
L 434.827064 152.675571 
L 435.553035 151.358194 
L 436.279007 156.411115 
L 437.004979 158.108909 
L 437.73095 158.235852 
L 438.456922 155.399314 
L 439.182894 155.882044 
L 439.908866 158.734383 
L 440.634837 154.473645 
L 441.360809 154.251194 
L 442.086781 150.46043 
L 442.812752 156.687566 
L 443.538724 158.703463 
L 444.264696 150.409848 
L 444.990667 147.839897 
L 445.716639 155.885898 
L 446.442611 142.438251 
L 447.168583 159.004257 
L 447.894554 155.941907 
L 448.620526 175.42647 
L 449.346498 153.437576 
L 450.072469 138.547946 
L 450.798441 154.849423 
L 451.524413 179.674525 
L 452.250384 142.131832 
L 452.976356 152.963953 
L 453.702328 175.547747 
L 454.4283 151.513168 
L 455.154271 150.068002 
L 455.880243 152.025525 
L 456.606215 151.974711 
L 457.332186 146.984528 
L 458.058158 166.531589 
L 458.78413 153.096702 
L 459.510101 179.433902 
L 460.236073 149.739843 
L 460.962045 140.058343 
L 462.413988 186.346081 
L 463.13996 147.053105 
L 463.865932 155.525579 
L 464.591903 151.678439 
L 464.591903 151.678439 
" style="fill:none;stroke:#ff7f0e;stroke-linecap:square;stroke-width:1.5;"/>
   </g>
   <g id="line2d_3">
    <path clip-path="url(#pb5a693c5a5)" d="M 58.773722 155.515593 
L 59.499693 227.109732 
L 60.225665 189.176889 
L 60.951637 199.941666 
L 61.677608 152.028252 
L 62.40358 147.015246 
L 63.129552 71.641979 
L 63.855524 126.034688 
L 64.581495 107.773712 
L 65.307467 184.512636 
L 66.033439 159.159375 
L 66.75941 173.633057 
L 67.485382 178.861126 
L 68.211354 151.909773 
L 68.937325 213.694961 
L 69.663297 114.715203 
L 70.389269 187.385456 
L 71.115241 168.166408 
L 71.841212 129.40147 
L 72.567184 160.333546 
L 73.293156 155.458617 
L 74.019127 156.322597 
L 74.745099 148.49418 
L 75.471071 186.24126 
L 76.197042 130.381909 
L 76.923014 148.783002 
L 77.648986 195.349027 
L 78.374958 183.323712 
L 79.100929 156.792508 
L 79.826901 182.758866 
L 80.552873 202.259337 
L 82.004816 108.665828 
L 82.730788 126.113978 
L 83.456759 202.534917 
L 84.182731 210.748843 
L 84.908703 160.815771 
L 85.634675 69.504768 
L 86.360646 137.439445 
L 87.086618 114.135055 
L 87.81259 132.106554 
L 88.538561 170.482113 
L 89.264533 151.664689 
L 89.990505 141.22584 
L 90.716477 65.355549 
L 91.442448 155.760021 
L 92.16842 167.508153 
L 92.894392 157.277278 
L 93.620363 173.663147 
L 94.346335 161.775369 
L 95.072307 165.084478 
L 95.798278 131.945617 
L 96.52425 105.238297 
L 97.250222 118.201231 
L 97.976194 138.904526 
L 98.702165 113.091752 
L 99.428137 159.938806 
L 100.154109 181.341478 
L 100.88008 163.116986 
L 101.606052 109.696424 
L 102.332024 155.643674 
L 103.057995 225.00427 
L 103.783967 181.361257 
L 104.509939 172.272426 
L 105.235911 191.734838 
L 105.961882 230.658791 
L 106.687854 155.550947 
L 107.413826 168.22577 
L 108.139797 112.629955 
L 108.865769 157.812946 
L 109.591741 195.403501 
L 110.317712 226.408362 
L 111.043684 108.450843 
L 111.769656 136.777228 
L 112.495628 76.663815 
L 113.221599 83.956769 
L 113.947571 194.783159 
L 114.673543 198.265392 
L 115.399514 125.466693 
L 116.125486 165.936936 
L 116.851458 181.919307 
L 117.57743 122.358141 
L 118.303401 114.775431 
L 119.029373 124.491263 
L 119.755345 222.552847 
L 120.481316 235.30895 
L 121.207288 228.879497 
L 121.93326 176.8518 
L 122.659231 179.111106 
L 123.385203 193.207451 
L 124.111175 217.231949 
L 124.837147 229.135842 
L 125.563118 192.175993 
L 126.28909 144.988226 
L 127.015062 120.443315 
L 127.741033 172.916394 
L 128.467005 152.139807 
L 129.192977 165.336755 
L 129.918948 188.49605 
L 130.64492 138.927194 
L 131.370892 169.809573 
L 132.096864 192.155564 
L 132.822835 175.723146 
L 133.548807 230.752779 
L 134.274779 225.70881 
L 135.00075 174.040315 
L 135.726722 202.006507 
L 137.178665 168.105936 
L 137.904637 202.570425 
L 138.630609 209.745311 
L 139.356581 259.875065 
L 140.082552 201.367745 
L 140.808524 173.528715 
L 141.534496 79.032387 
L 142.260467 66.35107 
L 142.986439 116.98561 
L 143.712411 98.113202 
L 144.438383 149.883796 
L 145.164354 234.738 
L 145.890326 156.402562 
L 146.616298 136.407541 
L 147.342269 146.208848 
L 148.068241 110.655513 
L 148.794213 145.167116 
L 149.520184 139.093325 
L 150.246156 160.85872 
L 150.972128 225.533863 
L 151.6981 194.180286 
L 152.424071 125.958908 
L 153.150043 120.898914 
L 154.601986 156.614117 
L 155.327958 149.86446 
L 156.05393 153.282831 
L 156.779901 152.142246 
L 157.505873 156.373464 
L 158.231845 170.24277 
L 158.957817 192.270792 
L 159.683788 174.740197 
L 160.40976 49.340262 
L 161.135732 168.908042 
L 161.861703 136.77004 
L 162.587675 95.651555 
L 163.313647 161.855819 
L 164.039618 185.954754 
L 165.491562 176.83965 
L 166.217534 179.351453 
L 166.943505 134.370591 
L 167.669477 121.677849 
L 168.395449 113.473298 
L 169.12142 72.796494 
L 169.847392 186.648557 
L 170.573364 124.078941 
L 171.299336 166.42289 
L 172.025307 114.782697 
L 172.751279 97.225963 
L 173.477251 148.826952 
L 174.203222 148.197471 
L 174.929194 155.036593 
L 175.655166 141.47714 
L 176.381137 161.939359 
L 177.107109 87.364829 
L 177.833081 112.383754 
L 179.285024 125.273298 
L 180.010996 141.668706 
L 180.736968 204.541305 
L 181.462939 156.760825 
L 182.188911 140.359212 
L 182.914883 157.715645 
L 183.640854 162.100502 
L 184.366826 149.867988 
L 185.092798 111.30608 
L 185.81877 148.949456 
L 186.544741 89.886931 
L 187.270713 75.031336 
L 187.996685 131.477151 
L 188.722656 125.947374 
L 189.448628 170.009143 
L 190.1746 129.252141 
L 190.900571 174.713601 
L 191.626543 155.81389 
L 192.352515 175.824841 
L 193.078487 159.727249 
L 193.804458 158.300674 
L 194.53043 160.423422 
L 195.256402 116.611244 
L 196.708345 157.792308 
L 197.434317 152.702918 
L 198.160289 158.645019 
L 198.88626 170.039169 
L 199.612232 150.253079 
L 200.338204 162.327706 
L 201.064175 192.721716 
L 201.790147 161.320736 
L 202.516119 176.107484 
L 203.24209 130.347174 
L 203.968062 158.003255 
L 204.694034 155.133062 
L 205.420006 145.077087 
L 206.145977 148.66788 
L 206.871949 154.06981 
L 207.597921 168.599138 
L 208.323892 153.486298 
L 209.049864 153.912176 
L 209.775836 208.493859 
L 210.501807 94.689141 
L 211.227779 113.431825 
L 211.953751 116.749075 
L 212.679723 147.014729 
L 213.405694 171.096465 
L 214.857638 72.158509 
L 215.583609 166.660009 
L 216.309581 144.762131 
L 217.035553 116.706079 
L 217.761524 162.618605 
L 218.487496 145.017416 
L 219.213468 158.185946 
L 219.93944 125.603067 
L 220.665411 172.352234 
L 221.391383 104.932425 
L 222.843326 213.207165 
L 223.569298 160.561286 
L 224.29527 124.55932 
L 225.021242 193.160486 
L 225.747213 206.628977 
L 227.199157 156.699312 
L 227.925128 186.407578 
L 228.6511 91.064823 
L 229.377072 157.462261 
L 230.103043 124.013669 
L 230.829015 192.022038 
L 231.554987 136.692474 
L 232.280959 161.530956 
L 233.00693 125.643199 
L 233.732902 117.811684 
L 234.458874 152.82319 
L 235.184845 174.493903 
L 235.910817 128.487271 
L 236.636789 107.716426 
L 237.36276 135.163244 
L 238.088732 144.210066 
L 238.814704 159.786981 
L 239.540676 172.016383 
L 240.266647 153.609095 
L 240.992619 144.819167 
L 241.718591 119.872834 
L 242.444562 116.47012 
L 243.170534 133.519606 
L 243.896506 122.294017 
L 244.622477 167.125804 
L 245.348449 176.030204 
L 246.074421 145.757256 
L 246.800393 155.654729 
L 247.526364 162.932985 
L 248.252336 158.636315 
L 248.978308 158.438336 
L 249.704279 156.023369 
L 250.430251 156.395371 
L 251.156223 154.168889 
L 251.882195 159.458086 
L 252.608166 168.431446 
L 253.334138 167.39445 
L 254.06011 153.364705 
L 255.512053 208.319125 
L 256.238025 115.682036 
L 256.963996 127.756591 
L 257.689968 183.518687 
L 258.41594 165.330259 
L 259.141912 154.99682 
L 259.867883 179.222258 
L 260.593855 169.393666 
L 261.319827 161.681512 
L 262.045798 149.205571 
L 262.77177 155.931524 
L 263.497742 156.112018 
L 264.223713 173.862324 
L 264.949685 166.866931 
L 265.675657 155.632385 
L 266.401629 154.813526 
L 267.1276 137.928481 
L 267.853572 147.384823 
L 268.579544 192.322074 
L 269.305515 159.209021 
L 270.031487 171.174208 
L 270.757459 158.923665 
L 271.48343 115.677683 
L 272.209402 137.960739 
L 273.661346 216.846327 
L 274.387317 164.721235 
L 275.113289 146.612825 
L 275.839261 123.803705 
L 276.565232 153.706726 
L 277.291204 114.941311 
L 278.743148 140.762735 
L 279.469119 133.528797 
L 280.195091 158.203939 
L 280.921063 199.773759 
L 281.647034 161.353658 
L 282.373006 189.618975 
L 283.098978 169.078917 
L 283.824949 168.956552 
L 284.550921 190.559947 
L 285.276893 165.544381 
L 286.002865 190.257375 
L 286.728836 206.265388 
L 287.454808 171.253244 
L 288.18078 158.756675 
L 288.906751 159.149241 
L 289.632723 163.492708 
L 290.358695 148.874197 
L 291.084666 125.189081 
L 291.810638 140.593268 
L 292.53661 175.350782 
L 293.262582 178.487522 
L 294.714525 153.796363 
L 295.440497 181.867384 
L 296.166468 172.265985 
L 296.89244 147.27472 
L 297.618412 78.00162 
L 298.344383 73.990299 
L 299.070355 165.24857 
L 299.796327 139.593848 
L 300.522299 189.113978 
L 301.24827 132.147304 
L 301.974242 119.155435 
L 302.700214 129.060642 
L 303.426185 122.371307 
L 304.152157 136.477817 
L 304.878129 132.401109 
L 305.604101 184.565625 
L 306.330072 144.363785 
L 307.056044 162.508224 
L 307.782016 175.977469 
L 308.507987 153.2749 
L 309.233959 158.725008 
L 310.685902 109.848856 
L 311.411874 179.675296 
L 312.137846 122.757708 
L 312.863818 171.667718 
L 313.589789 135.691759 
L 314.315761 148.919765 
L 315.041733 156.597136 
L 315.767704 119.906839 
L 316.493676 178.238207 
L 317.219648 189.220304 
L 317.945619 114.636322 
L 318.671591 131.382226 
L 319.397563 144.86842 
L 320.123535 166.841665 
L 320.849506 115.797939 
L 321.575478 208.368669 
L 322.30145 214.369332 
L 323.753393 146.115646 
L 324.479365 104.494102 
L 325.205336 205.285126 
L 325.931308 202.616201 
L 326.65728 179.966537 
L 327.383252 146.144577 
L 328.109223 196.268118 
L 328.835195 118.750311 
L 329.561167 166.12585 
L 330.287138 156.762941 
L 331.01311 121.576001 
L 331.739082 148.253544 
L 332.465054 135.094882 
L 333.191025 176.729556 
L 333.916997 159.878355 
L 334.642969 155.435647 
L 335.36894 165.838439 
L 336.094912 150.762574 
L 336.820884 150.055577 
L 337.546855 154.52752 
L 338.272827 153.938064 
L 338.998799 152.712022 
L 339.724771 153.240602 
L 340.450742 155.355751 
L 341.176714 197.887484 
L 341.902686 137.256187 
L 342.628657 161.234791 
L 343.354629 180.138892 
L 344.080601 105.164236 
L 344.806572 166.88482 
L 345.532544 179.487713 
L 346.258516 149.911034 
L 346.984488 177.538765 
L 347.710459 156.122506 
L 348.436431 179.139469 
L 349.162403 153.066936 
L 349.888374 176.61241 
L 350.614346 152.330755 
L 351.340318 170.729252 
L 352.066289 168.037516 
L 352.792261 157.964739 
L 353.518233 161.76594 
L 354.244205 126.052411 
L 354.970176 156.711562 
L 355.696148 170.252757 
L 356.42212 151.705524 
L 357.148091 154.134415 
L 357.874063 170.193655 
L 358.600035 150.429983 
L 359.326007 184.635506 
L 360.051978 159.180135 
L 360.77795 141.540605 
L 361.503922 182.730601 
L 362.229893 199.36744 
L 362.955865 103.389752 
L 363.681837 153.815125 
L 364.407808 178.800899 
L 365.13378 177.485666 
L 365.859752 155.464093 
L 366.585724 174.293934 
L 367.311695 156.572945 
L 368.037667 164.715625 
L 368.763639 199.509459 
L 369.48961 179.961182 
L 370.215582 185.784369 
L 370.941554 168.01967 
L 371.667525 168.131058 
L 372.393497 174.760741 
L 373.119469 105.730424 
L 373.845441 117.477638 
L 374.571412 179.41817 
L 375.297384 171.132688 
L 376.023356 150.483559 
L 376.749327 109.128842 
L 377.475299 164.547243 
L 378.201271 193.098766 
L 378.927242 153.918005 
L 379.653214 178.363369 
L 380.379186 135.644479 
L 381.105158 160.487878 
L 381.831129 177.568553 
L 382.557101 127.469259 
L 383.283073 182.754433 
L 384.009044 171.770541 
L 384.735016 154.527706 
L 385.460988 183.748993 
L 386.18696 152.312622 
L 386.912931 164.505509 
L 387.638903 153.457162 
L 388.364875 157.255886 
L 389.090846 141.381753 
L 389.816818 157.885455 
L 390.54279 184.11304 
L 391.268761 162.170817 
L 391.994733 160.841625 
L 392.720705 183.299324 
L 394.172648 139.743752 
L 394.89862 194.823213 
L 395.624592 192.388701 
L 396.350563 161.865511 
L 397.076535 144.430509 
L 397.802507 143.391784 
L 398.528478 124.539974 
L 399.25445 119.774404 
L 399.980422 142.633421 
L 401.432365 156.58616 
L 402.158337 198.848734 
L 402.884309 131.919308 
L 403.61028 119.697056 
L 404.336252 144.263965 
L 405.062224 124.695446 
L 405.788195 144.138412 
L 406.514167 121.204657 
L 407.240139 135.21016 
L 408.692082 202.241118 
L 409.418054 126.665781 
L 410.144026 160.943369 
L 410.869997 135.003076 
L 411.595969 153.521155 
L 412.321941 161.037908 
L 413.047913 130.251493 
L 413.773884 141.001698 
L 414.499856 160.726101 
L 415.225828 144.819774 
L 415.951799 136.007666 
L 416.677771 160.279542 
L 417.403743 157.903524 
L 418.129714 173.707421 
L 418.855686 162.454667 
L 419.581658 126.208948 
L 420.30763 153.573709 
L 421.033601 140.517574 
L 421.759573 190.476807 
L 422.485545 158.294771 
L 423.211516 186.540365 
L 423.937488 154.759239 
L 424.66346 150.737131 
L 425.389431 152.824286 
L 426.115403 153.038289 
L 426.841375 156.936302 
L 427.567347 162.360208 
L 428.293318 158.158616 
L 429.01929 151.739913 
L 429.745262 169.14658 
L 430.471233 152.224283 
L 431.197205 158.219842 
L 431.923177 151.026189 
L 432.649148 162.902885 
L 433.37512 160.000726 
L 434.101092 185.238938 
L 435.553035 126.570573 
L 436.279007 153.942972 
L 437.004979 136.305449 
L 437.73095 155.7762 
L 438.456922 135.506874 
L 439.182894 158.382859 
L 439.908866 173.423552 
L 440.634837 152.85415 
L 441.360809 155.582625 
L 442.086781 155.127654 
L 442.812752 154.011261 
L 443.538724 153.109812 
L 444.264696 155.278367 
L 444.990667 160.593135 
L 445.716639 158.302603 
L 446.442611 153.75101 
L 447.168583 157.198502 
L 447.894554 157.87034 
L 448.620526 174.416148 
L 450.072469 138.303784 
L 450.798441 155.006628 
L 451.524413 175.072126 
L 452.250384 145.642843 
L 452.976356 157.434849 
L 453.702328 137.665191 
L 454.4283 159.895589 
L 455.154271 135.651668 
L 455.880243 157.99925 
L 456.606215 156.039357 
L 457.332186 153.115564 
L 458.058158 157.988172 
L 458.78413 156.466982 
L 459.510101 172.218047 
L 460.962045 138.418446 
L 462.413988 182.939034 
L 463.13996 153.966304 
L 463.865932 173.482636 
L 464.591903 153.923138 
L 464.591903 153.923138 
" style="fill:none;stroke:#2ca02c;stroke-linecap:square;stroke-width:1.5;"/>
   </g>
   <g id="line2d_4">
    <path clip-path="url(#pb5a693c5a5)" d="M 58.773722 155.888391 
L 464.591903 155.888391 
L 464.591903 155.888391 
" style="fill:none;stroke:#000000;stroke-dasharray:3.7,1.6;stroke-dashoffset:0;"/>
   </g>
   <g id="matplotlib.axis_1">
    <g id="xtick_1">
     <g id="line2d_5">
      <defs>
       <path d="M 0 0 
L 0 3.5 
" id="medf248e3dc" style="stroke:#000000;stroke-width:0.8;"/>
      </defs>
      <g>
       <use style="stroke:#000000;stroke-width:0.8;" x="79.826901" xlink:href="#medf248e3dc" y="294.118125"/>
      </g>
     </g>
     <g id="text_1">
      <!-- 100 -->
      <defs>
       <path d="M 12.40625 8.296875 
L 28.515625 8.296875 
L 28.515625 63.921875 
L 10.984375 60.40625 
L 10.984375 69.390625 
L 28.421875 72.90625 
L 38.28125 72.90625 
L 38.28125 8.296875 
L 54.390625 8.296875 
L 54.390625 0 
L 12.40625 0 
z
" id="DejaVuSans-49"/>
       <path d="M 31.78125 66.40625 
Q 24.171875 66.40625 20.328125 58.90625 
Q 16.5 51.421875 16.5 36.375 
Q 16.5 21.390625 20.328125 13.890625 
Q 24.171875 6.390625 31.78125 6.390625 
Q 39.453125 6.390625 43.28125 13.890625 
Q 47.125 21.390625 47.125 36.375 
Q 47.125 51.421875 43.28125 58.90625 
Q 39.453125 66.40625 31.78125 66.40625 
z
M 31.78125 74.21875 
Q 44.046875 74.21875 50.515625 64.515625 
Q 56.984375 54.828125 56.984375 36.375 
Q 56.984375 17.96875 50.515625 8.265625 
Q 44.046875 -1.421875 31.78125 -1.421875 
Q 19.53125 -1.421875 13.0625 8.265625 
Q 6.59375 17.96875 6.59375 36.375 
Q 6.59375 54.828125 13.0625 64.515625 
Q 19.53125 74.21875 31.78125 74.21875 
z
" id="DejaVuSans-48"/>
      </defs>
      <g transform="translate(70.283151 308.716563)scale(0.1 -0.1)">
       <use xlink:href="#DejaVuSans-49"/>
       <use x="63.623047" xlink:href="#DejaVuSans-48"/>
       <use x="127.246094" xlink:href="#DejaVuSans-48"/>
      </g>
     </g>
    </g>
    <g id="xtick_2">
     <g id="line2d_6">
      <g>
       <use style="stroke:#000000;stroke-width:0.8;" x="152.424071" xlink:href="#medf248e3dc" y="294.118125"/>
      </g>
     </g>
     <g id="text_2">
      <!-- 200 -->
      <defs>
       <path d="M 19.1875 8.296875 
L 53.609375 8.296875 
L 53.609375 0 
L 7.328125 0 
L 7.328125 8.296875 
Q 12.9375 14.109375 22.625 23.890625 
Q 32.328125 33.6875 34.8125 36.53125 
Q 39.546875 41.84375 41.421875 45.53125 
Q 43.3125 49.21875 43.3125 52.78125 
Q 43.3125 58.59375 39.234375 62.25 
Q 35.15625 65.921875 28.609375 65.921875 
Q 23.96875 65.921875 18.8125 64.3125 
Q 13.671875 62.703125 7.8125 59.421875 
L 7.8125 69.390625 
Q 13.765625 71.78125 18.9375 73 
Q 24.125 74.21875 28.421875 74.21875 
Q 39.75 74.21875 46.484375 68.546875 
Q 53.21875 62.890625 53.21875 53.421875 
Q 53.21875 48.921875 51.53125 44.890625 
Q 49.859375 40.875 45.40625 35.40625 
Q 44.1875 33.984375 37.640625 27.21875 
Q 31.109375 20.453125 19.1875 8.296875 
z
" id="DejaVuSans-50"/>
      </defs>
      <g transform="translate(142.880321 308.716563)scale(0.1 -0.1)">
       <use xlink:href="#DejaVuSans-50"/>
       <use x="63.623047" xlink:href="#DejaVuSans-48"/>
       <use x="127.246094" xlink:href="#DejaVuSans-48"/>
      </g>
     </g>
    </g>
    <g id="xtick_3">
     <g id="line2d_7">
      <g>
       <use style="stroke:#000000;stroke-width:0.8;" x="225.021242" xlink:href="#medf248e3dc" y="294.118125"/>
      </g>
     </g>
     <g id="text_3">
      <!-- 300 -->
      <defs>
       <path d="M 40.578125 39.3125 
Q 47.65625 37.796875 51.625 33 
Q 55.609375 28.21875 55.609375 21.1875 
Q 55.609375 10.40625 48.1875 4.484375 
Q 40.765625 -1.421875 27.09375 -1.421875 
Q 22.515625 -1.421875 17.65625 -0.515625 
Q 12.796875 0.390625 7.625 2.203125 
L 7.625 11.71875 
Q 11.71875 9.328125 16.59375 8.109375 
Q 21.484375 6.890625 26.8125 6.890625 
Q 36.078125 6.890625 40.9375 10.546875 
Q 45.796875 14.203125 45.796875 21.1875 
Q 45.796875 27.640625 41.28125 31.265625 
Q 36.765625 34.90625 28.71875 34.90625 
L 20.21875 34.90625 
L 20.21875 43.015625 
L 29.109375 43.015625 
Q 36.375 43.015625 40.234375 45.921875 
Q 44.09375 48.828125 44.09375 54.296875 
Q 44.09375 59.90625 40.109375 62.90625 
Q 36.140625 65.921875 28.71875 65.921875 
Q 24.65625 65.921875 20.015625 65.03125 
Q 15.375 64.15625 9.8125 62.3125 
L 9.8125 71.09375 
Q 15.4375 72.65625 20.34375 73.4375 
Q 25.25 74.21875 29.59375 74.21875 
Q 40.828125 74.21875 47.359375 69.109375 
Q 53.90625 64.015625 53.90625 55.328125 
Q 53.90625 49.265625 50.4375 45.09375 
Q 46.96875 40.921875 40.578125 39.3125 
z
" id="DejaVuSans-51"/>
      </defs>
      <g transform="translate(215.477492 308.716563)scale(0.1 -0.1)">
       <use xlink:href="#DejaVuSans-51"/>
       <use x="63.623047" xlink:href="#DejaVuSans-48"/>
       <use x="127.246094" xlink:href="#DejaVuSans-48"/>
      </g>
     </g>
    </g>
    <g id="xtick_4">
     <g id="line2d_8">
      <g>
       <use style="stroke:#000000;stroke-width:0.8;" x="297.618412" xlink:href="#medf248e3dc" y="294.118125"/>
      </g>
     </g>
     <g id="text_4">
      <!-- 400 -->
      <defs>
       <path d="M 37.796875 64.3125 
L 12.890625 25.390625 
L 37.796875 25.390625 
z
M 35.203125 72.90625 
L 47.609375 72.90625 
L 47.609375 25.390625 
L 58.015625 25.390625 
L 58.015625 17.1875 
L 47.609375 17.1875 
L 47.609375 0 
L 37.796875 0 
L 37.796875 17.1875 
L 4.890625 17.1875 
L 4.890625 26.703125 
z
" id="DejaVuSans-52"/>
      </defs>
      <g transform="translate(288.074662 308.716563)scale(0.1 -0.1)">
       <use xlink:href="#DejaVuSans-52"/>
       <use x="63.623047" xlink:href="#DejaVuSans-48"/>
       <use x="127.246094" xlink:href="#DejaVuSans-48"/>
      </g>
     </g>
    </g>
    <g id="xtick_5">
     <g id="line2d_9">
      <g>
       <use style="stroke:#000000;stroke-width:0.8;" x="370.215582" xlink:href="#medf248e3dc" y="294.118125"/>
      </g>
     </g>
     <g id="text_5">
      <!-- 500 -->
      <defs>
       <path d="M 10.796875 72.90625 
L 49.515625 72.90625 
L 49.515625 64.59375 
L 19.828125 64.59375 
L 19.828125 46.734375 
Q 21.96875 47.46875 24.109375 47.828125 
Q 26.265625 48.1875 28.421875 48.1875 
Q 40.625 48.1875 47.75 41.5 
Q 54.890625 34.8125 54.890625 23.390625 
Q 54.890625 11.625 47.5625 5.09375 
Q 40.234375 -1.421875 26.90625 -1.421875 
Q 22.3125 -1.421875 17.546875 -0.640625 
Q 12.796875 0.140625 7.71875 1.703125 
L 7.71875 11.625 
Q 12.109375 9.234375 16.796875 8.0625 
Q 21.484375 6.890625 26.703125 6.890625 
Q 35.15625 6.890625 40.078125 11.328125 
Q 45.015625 15.765625 45.015625 23.390625 
Q 45.015625 31 40.078125 35.4375 
Q 35.15625 39.890625 26.703125 39.890625 
Q 22.75 39.890625 18.8125 39.015625 
Q 14.890625 38.140625 10.796875 36.28125 
z
" id="DejaVuSans-53"/>
      </defs>
      <g transform="translate(360.671832 308.716563)scale(0.1 -0.1)">
       <use xlink:href="#DejaVuSans-53"/>
       <use x="63.623047" xlink:href="#DejaVuSans-48"/>
       <use x="127.246094" xlink:href="#DejaVuSans-48"/>
      </g>
     </g>
    </g>
    <g id="xtick_6">
     <g id="line2d_10">
      <g>
       <use style="stroke:#000000;stroke-width:0.8;" x="442.812752" xlink:href="#medf248e3dc" y="294.118125"/>
      </g>
     </g>
     <g id="text_6">
      <!-- 600 -->
      <defs>
       <path d="M 33.015625 40.375 
Q 26.375 40.375 22.484375 35.828125 
Q 18.609375 31.296875 18.609375 23.390625 
Q 18.609375 15.53125 22.484375 10.953125 
Q 26.375 6.390625 33.015625 6.390625 
Q 39.65625 6.390625 43.53125 10.953125 
Q 47.40625 15.53125 47.40625 23.390625 
Q 47.40625 31.296875 43.53125 35.828125 
Q 39.65625 40.375 33.015625 40.375 
z
M 52.59375 71.296875 
L 52.59375 62.3125 
Q 48.875 64.0625 45.09375 64.984375 
Q 41.3125 65.921875 37.59375 65.921875 
Q 27.828125 65.921875 22.671875 59.328125 
Q 17.53125 52.734375 16.796875 39.40625 
Q 19.671875 43.65625 24.015625 45.921875 
Q 28.375 48.1875 33.59375 48.1875 
Q 44.578125 48.1875 50.953125 41.515625 
Q 57.328125 34.859375 57.328125 23.390625 
Q 57.328125 12.15625 50.6875 5.359375 
Q 44.046875 -1.421875 33.015625 -1.421875 
Q 20.359375 -1.421875 13.671875 8.265625 
Q 6.984375 17.96875 6.984375 36.375 
Q 6.984375 53.65625 15.1875 63.9375 
Q 23.390625 74.21875 37.203125 74.21875 
Q 40.921875 74.21875 44.703125 73.484375 
Q 48.484375 72.75 52.59375 71.296875 
z
" id="DejaVuSans-54"/>
      </defs>
      <g transform="translate(433.269002 308.716563)scale(0.1 -0.1)">
       <use xlink:href="#DejaVuSans-54"/>
       <use x="63.623047" xlink:href="#DejaVuSans-48"/>
       <use x="127.246094" xlink:href="#DejaVuSans-48"/>
      </g>
     </g>
    </g>
    <g id="text_7">
     <!-- Tempo -->
     <defs>
      <path d="M -0.296875 72.90625 
L 61.375 72.90625 
L 61.375 64.59375 
L 35.5 64.59375 
L 35.5 0 
L 25.59375 0 
L 25.59375 64.59375 
L -0.296875 64.59375 
z
" id="DejaVuSans-84"/>
      <path d="M 56.203125 29.59375 
L 56.203125 25.203125 
L 14.890625 25.203125 
Q 15.484375 15.921875 20.484375 11.0625 
Q 25.484375 6.203125 34.421875 6.203125 
Q 39.59375 6.203125 44.453125 7.46875 
Q 49.3125 8.734375 54.109375 11.28125 
L 54.109375 2.78125 
Q 49.265625 0.734375 44.1875 -0.34375 
Q 39.109375 -1.421875 33.890625 -1.421875 
Q 20.796875 -1.421875 13.15625 6.1875 
Q 5.515625 13.8125 5.515625 26.8125 
Q 5.515625 40.234375 12.765625 48.109375 
Q 20.015625 56 32.328125 56 
Q 43.359375 56 49.78125 48.890625 
Q 56.203125 41.796875 56.203125 29.59375 
z
M 47.21875 32.234375 
Q 47.125 39.59375 43.09375 43.984375 
Q 39.0625 48.390625 32.421875 48.390625 
Q 24.90625 48.390625 20.390625 44.140625 
Q 15.875 39.890625 15.1875 32.171875 
z
" id="DejaVuSans-101"/>
      <path d="M 52 44.1875 
Q 55.375 50.25 60.0625 53.125 
Q 64.75 56 71.09375 56 
Q 79.640625 56 84.28125 50.015625 
Q 88.921875 44.046875 88.921875 33.015625 
L 88.921875 0 
L 79.890625 0 
L 79.890625 32.71875 
Q 79.890625 40.578125 77.09375 44.375 
Q 74.3125 48.1875 68.609375 48.1875 
Q 61.625 48.1875 57.5625 43.546875 
Q 53.515625 38.921875 53.515625 30.90625 
L 53.515625 0 
L 44.484375 0 
L 44.484375 32.71875 
Q 44.484375 40.625 41.703125 44.40625 
Q 38.921875 48.1875 33.109375 48.1875 
Q 26.21875 48.1875 22.15625 43.53125 
Q 18.109375 38.875 18.109375 30.90625 
L 18.109375 0 
L 9.078125 0 
L 9.078125 54.6875 
L 18.109375 54.6875 
L 18.109375 46.1875 
Q 21.1875 51.21875 25.484375 53.609375 
Q 29.78125 56 35.6875 56 
Q 41.65625 56 45.828125 52.96875 
Q 50 49.953125 52 44.1875 
z
" id="DejaVuSans-109"/>
      <path d="M 18.109375 8.203125 
L 18.109375 -20.796875 
L 9.078125 -20.796875 
L 9.078125 54.6875 
L 18.109375 54.6875 
L 18.109375 46.390625 
Q 20.953125 51.265625 25.265625 53.625 
Q 29.59375 56 35.59375 56 
Q 45.5625 56 51.78125 48.09375 
Q 58.015625 40.1875 58.015625 27.296875 
Q 58.015625 14.40625 51.78125 6.484375 
Q 45.5625 -1.421875 35.59375 -1.421875 
Q 29.59375 -1.421875 25.265625 0.953125 
Q 20.953125 3.328125 18.109375 8.203125 
z
M 48.6875 27.296875 
Q 48.6875 37.203125 44.609375 42.84375 
Q 40.53125 48.484375 33.40625 48.484375 
Q 26.265625 48.484375 22.1875 42.84375 
Q 18.109375 37.203125 18.109375 27.296875 
Q 18.109375 17.390625 22.1875 11.75 
Q 26.265625 6.109375 33.40625 6.109375 
Q 40.53125 6.109375 44.609375 11.75 
Q 48.6875 17.390625 48.6875 27.296875 
z
" id="DejaVuSans-112"/>
      <path d="M 30.609375 48.390625 
Q 23.390625 48.390625 19.1875 42.75 
Q 14.984375 37.109375 14.984375 27.296875 
Q 14.984375 17.484375 19.15625 11.84375 
Q 23.34375 6.203125 30.609375 6.203125 
Q 37.796875 6.203125 41.984375 11.859375 
Q 46.1875 17.53125 46.1875 27.296875 
Q 46.1875 37.015625 41.984375 42.703125 
Q 37.796875 48.390625 30.609375 48.390625 
z
M 30.609375 56 
Q 42.328125 56 49.015625 48.375 
Q 55.71875 40.765625 55.71875 27.296875 
Q 55.71875 13.875 49.015625 6.21875 
Q 42.328125 -1.421875 30.609375 -1.421875 
Q 18.84375 -1.421875 12.171875 6.21875 
Q 5.515625 13.875 5.515625 27.296875 
Q 5.515625 40.765625 12.171875 48.375 
Q 18.84375 56 30.609375 56 
z
" id="DejaVuSans-111"/>
     </defs>
     <g transform="translate(245.298438 322.394687)scale(0.1 -0.1)">
      <use xlink:href="#DejaVuSans-84"/>
      <use x="44.083984" xlink:href="#DejaVuSans-101"/>
      <use x="105.607422" xlink:href="#DejaVuSans-109"/>
      <use x="203.019531" xlink:href="#DejaVuSans-112"/>
      <use x="266.496094" xlink:href="#DejaVuSans-111"/>
     </g>
    </g>
   </g>
   <g id="matplotlib.axis_2">
    <g id="ytick_1">
     <g id="line2d_11">
      <defs>
       <path d="M 0 0 
L -3.5 0 
" id="m8d2afc5ac6" style="stroke:#000000;stroke-width:0.8;"/>
      </defs>
      <g>
       <use style="stroke:#000000;stroke-width:0.8;" x="38.482813" xlink:href="#m8d2afc5ac6" y="261.219801"/>
      </g>
     </g>
     <g id="text_8">
      <!-- 0.3 -->
      <defs>
       <path d="M 10.59375 35.5 
L 73.1875 35.5 
L 73.1875 27.203125 
L 10.59375 27.203125 
z
" id="DejaVuSans-8722"/>
       <path d="M 10.6875 12.40625 
L 21 12.40625 
L 21 0 
L 10.6875 0 
z
" id="DejaVuSans-46"/>
      </defs>
      <g transform="translate(7.2 265.019019)scale(0.1 -0.1)">
       <use xlink:href="#DejaVuSans-8722"/>
       <use x="83.789062" xlink:href="#DejaVuSans-48"/>
       <use x="147.412109" xlink:href="#DejaVuSans-46"/>
       <use x="179.199219" xlink:href="#DejaVuSans-51"/>
      </g>
     </g>
    </g>
    <g id="ytick_2">
     <g id="line2d_12">
      <g>
       <use style="stroke:#000000;stroke-width:0.8;" x="38.482813" xlink:href="#m8d2afc5ac6" y="226.109331"/>
      </g>
     </g>
     <g id="text_9">
      <!-- 0.2 -->
      <g transform="translate(7.2 229.90855)scale(0.1 -0.1)">
       <use xlink:href="#DejaVuSans-8722"/>
       <use x="83.789062" xlink:href="#DejaVuSans-48"/>
       <use x="147.412109" xlink:href="#DejaVuSans-46"/>
       <use x="179.199219" xlink:href="#DejaVuSans-50"/>
      </g>
     </g>
    </g>
    <g id="ytick_3">
     <g id="line2d_13">
      <g>
       <use style="stroke:#000000;stroke-width:0.8;" x="38.482813" xlink:href="#m8d2afc5ac6" y="190.998861"/>
      </g>
     </g>
     <g id="text_10">
      <!-- 0.1 -->
      <g transform="translate(7.2 194.79808)scale(0.1 -0.1)">
       <use xlink:href="#DejaVuSans-8722"/>
       <use x="83.789062" xlink:href="#DejaVuSans-48"/>
       <use x="147.412109" xlink:href="#DejaVuSans-46"/>
       <use x="179.199219" xlink:href="#DejaVuSans-49"/>
      </g>
     </g>
    </g>
    <g id="ytick_4">
     <g id="line2d_14">
      <g>
       <use style="stroke:#000000;stroke-width:0.8;" x="38.482813" xlink:href="#m8d2afc5ac6" y="155.888391"/>
      </g>
     </g>
     <g id="text_11">
      <!-- 0.0 -->
      <g transform="translate(15.579688 159.68761)scale(0.1 -0.1)">
       <use xlink:href="#DejaVuSans-48"/>
       <use x="63.623047" xlink:href="#DejaVuSans-46"/>
       <use x="95.410156" xlink:href="#DejaVuSans-48"/>
      </g>
     </g>
    </g>
    <g id="ytick_5">
     <g id="line2d_15">
      <g>
       <use style="stroke:#000000;stroke-width:0.8;" x="38.482813" xlink:href="#m8d2afc5ac6" y="120.777921"/>
      </g>
     </g>
     <g id="text_12">
      <!-- 0.1 -->
      <g transform="translate(15.579688 124.57714)scale(0.1 -0.1)">
       <use xlink:href="#DejaVuSans-48"/>
       <use x="63.623047" xlink:href="#DejaVuSans-46"/>
       <use x="95.410156" xlink:href="#DejaVuSans-49"/>
      </g>
     </g>
    </g>
    <g id="ytick_6">
     <g id="line2d_16">
      <g>
       <use style="stroke:#000000;stroke-width:0.8;" x="38.482813" xlink:href="#m8d2afc5ac6" y="85.667451"/>
      </g>
     </g>
     <g id="text_13">
      <!-- 0.2 -->
      <g transform="translate(15.579688 89.46667)scale(0.1 -0.1)">
       <use xlink:href="#DejaVuSans-48"/>
       <use x="63.623047" xlink:href="#DejaVuSans-46"/>
       <use x="95.410156" xlink:href="#DejaVuSans-50"/>
      </g>
     </g>
    </g>
    <g id="ytick_7">
     <g id="line2d_17">
      <g>
       <use style="stroke:#000000;stroke-width:0.8;" x="38.482813" xlink:href="#m8d2afc5ac6" y="50.556982"/>
      </g>
     </g>
     <g id="text_14">
      <!-- 0.3 -->
      <g transform="translate(15.579688 54.3562)scale(0.1 -0.1)">
       <use xlink:href="#DejaVuSans-48"/>
       <use x="63.623047" xlink:href="#DejaVuSans-46"/>
       <use x="95.410156" xlink:href="#DejaVuSans-51"/>
      </g>
     </g>
    </g>
   </g>
   <g id="patch_3">
    <path d="M 38.482813 294.118125 
L 38.482813 22.318125 
" style="fill:none;stroke:#000000;stroke-linecap:square;stroke-linejoin:miter;stroke-width:0.8;"/>
   </g>
   <g id="patch_4">
    <path d="M 38.482813 294.118125 
L 484.882812 294.118125 
" style="fill:none;stroke:#000000;stroke-linecap:square;stroke-linejoin:miter;stroke-width:0.8;"/>
   </g>
   <g id="text_15">
    <!-- Gini_bTax -->
    <defs>
     <path d="M 59.515625 10.40625 
L 59.515625 29.984375 
L 43.40625 29.984375 
L 43.40625 38.09375 
L 69.28125 38.09375 
L 69.28125 6.78125 
Q 63.578125 2.734375 56.6875 0.65625 
Q 49.8125 -1.421875 42 -1.421875 
Q 24.90625 -1.421875 15.25 8.5625 
Q 5.609375 18.5625 5.609375 36.375 
Q 5.609375 54.25 15.25 64.234375 
Q 24.90625 74.21875 42 74.21875 
Q 49.125 74.21875 55.546875 72.453125 
Q 61.96875 70.703125 67.390625 67.28125 
L 67.390625 56.78125 
Q 61.921875 61.421875 55.765625 63.765625 
Q 49.609375 66.109375 42.828125 66.109375 
Q 29.4375 66.109375 22.71875 58.640625 
Q 16.015625 51.171875 16.015625 36.375 
Q 16.015625 21.625 22.71875 14.15625 
Q 29.4375 6.6875 42.828125 6.6875 
Q 48.046875 6.6875 52.140625 7.59375 
Q 56.25 8.5 59.515625 10.40625 
z
" id="DejaVuSans-71"/>
     <path d="M 9.421875 54.6875 
L 18.40625 54.6875 
L 18.40625 0 
L 9.421875 0 
z
M 9.421875 75.984375 
L 18.40625 75.984375 
L 18.40625 64.59375 
L 9.421875 64.59375 
z
" id="DejaVuSans-105"/>
     <path d="M 54.890625 33.015625 
L 54.890625 0 
L 45.90625 0 
L 45.90625 32.71875 
Q 45.90625 40.484375 42.875 44.328125 
Q 39.84375 48.1875 33.796875 48.1875 
Q 26.515625 48.1875 22.3125 43.546875 
Q 18.109375 38.921875 18.109375 30.90625 
L 18.109375 0 
L 9.078125 0 
L 9.078125 54.6875 
L 18.109375 54.6875 
L 18.109375 46.1875 
Q 21.34375 51.125 25.703125 53.5625 
Q 30.078125 56 35.796875 56 
Q 45.21875 56 50.046875 50.171875 
Q 54.890625 44.34375 54.890625 33.015625 
z
" id="DejaVuSans-110"/>
     <path d="M 50.984375 -16.609375 
L 50.984375 -23.578125 
L -0.984375 -23.578125 
L -0.984375 -16.609375 
z
" id="DejaVuSans-95"/>
     <path d="M 48.6875 27.296875 
Q 48.6875 37.203125 44.609375 42.84375 
Q 40.53125 48.484375 33.40625 48.484375 
Q 26.265625 48.484375 22.1875 42.84375 
Q 18.109375 37.203125 18.109375 27.296875 
Q 18.109375 17.390625 22.1875 11.75 
Q 26.265625 6.109375 33.40625 6.109375 
Q 40.53125 6.109375 44.609375 11.75 
Q 48.6875 17.390625 48.6875 27.296875 
z
M 18.109375 46.390625 
Q 20.953125 51.265625 25.265625 53.625 
Q 29.59375 56 35.59375 56 
Q 45.5625 56 51.78125 48.09375 
Q 58.015625 40.1875 58.015625 27.296875 
Q 58.015625 14.40625 51.78125 6.484375 
Q 45.5625 -1.421875 35.59375 -1.421875 
Q 29.59375 -1.421875 25.265625 0.953125 
Q 20.953125 3.328125 18.109375 8.203125 
L 18.109375 0 
L 9.078125 0 
L 9.078125 75.984375 
L 18.109375 75.984375 
z
" id="DejaVuSans-98"/>
     <path d="M 34.28125 27.484375 
Q 23.390625 27.484375 19.1875 25 
Q 14.984375 22.515625 14.984375 16.5 
Q 14.984375 11.71875 18.140625 8.90625 
Q 21.296875 6.109375 26.703125 6.109375 
Q 34.1875 6.109375 38.703125 11.40625 
Q 43.21875 16.703125 43.21875 25.484375 
L 43.21875 27.484375 
z
M 52.203125 31.203125 
L 52.203125 0 
L 43.21875 0 
L 43.21875 8.296875 
Q 40.140625 3.328125 35.546875 0.953125 
Q 30.953125 -1.421875 24.3125 -1.421875 
Q 15.921875 -1.421875 10.953125 3.296875 
Q 6 8.015625 6 15.921875 
Q 6 25.140625 12.171875 29.828125 
Q 18.359375 34.515625 30.609375 34.515625 
L 43.21875 34.515625 
L 43.21875 35.40625 
Q 43.21875 41.609375 39.140625 45 
Q 35.0625 48.390625 27.6875 48.390625 
Q 23 48.390625 18.546875 47.265625 
Q 14.109375 46.140625 10.015625 43.890625 
L 10.015625 52.203125 
Q 14.9375 54.109375 19.578125 55.046875 
Q 24.21875 56 28.609375 56 
Q 40.484375 56 46.34375 49.84375 
Q 52.203125 43.703125 52.203125 31.203125 
z
" id="DejaVuSans-97"/>
     <path d="M 54.890625 54.6875 
L 35.109375 28.078125 
L 55.90625 0 
L 45.3125 0 
L 29.390625 21.484375 
L 13.484375 0 
L 2.875 0 
L 24.125 28.609375 
L 4.6875 54.6875 
L 15.28125 54.6875 
L 29.78125 35.203125 
L 44.28125 54.6875 
z
" id="DejaVuSans-120"/>
    </defs>
    <g transform="translate(233.185625 16.318125)scale(0.12 -0.12)">
     <use xlink:href="#DejaVuSans-71"/>
     <use x="77.490234" xlink:href="#DejaVuSans-105"/>
     <use x="105.273438" xlink:href="#DejaVuSans-110"/>
     <use x="168.652344" xlink:href="#DejaVuSans-105"/>
     <use x="196.435547" xlink:href="#DejaVuSans-95"/>
     <use x="246.435547" xlink:href="#DejaVuSans-98"/>
     <use x="309.912109" xlink:href="#DejaVuSans-84"/>
     <use x="354.496094" xlink:href="#DejaVuSans-97"/>
     <use x="415.775391" xlink:href="#DejaVuSans-120"/>
    </g>
   </g>
   <g id="legend_1">
    <g id="patch_5">
     <path d="M 491.882812 190.104844 
L 566.28125 190.104844 
Q 568.28125 190.104844 568.28125 188.104844 
L 568.28125 128.331406 
Q 568.28125 126.331406 566.28125 126.331406 
L 491.882812 126.331406 
Q 489.882812 126.331406 489.882812 128.331406 
L 489.882812 188.104844 
Q 489.882812 190.104844 491.882812 190.104844 
z
" style="fill:#ffffff;opacity:0.8;stroke:#cccccc;stroke-linejoin:miter;"/>
    </g>
    <g id="line2d_18">
     <path d="M 493.882812 134.429844 
L 513.882812 134.429844 
" style="fill:none;stroke:#000000;stroke-dasharray:3.7,1.6;stroke-dashoffset:0;"/>
    </g>
    <g id="line2d_19"/>
    <g id="text_16">
     <!-- Baseline -->
     <defs>
      <path d="M 19.671875 34.8125 
L 19.671875 8.109375 
L 35.5 8.109375 
Q 43.453125 8.109375 47.28125 11.40625 
Q 51.125 14.703125 51.125 21.484375 
Q 51.125 28.328125 47.28125 31.5625 
Q 43.453125 34.8125 35.5 34.8125 
z
M 19.671875 64.796875 
L 19.671875 42.828125 
L 34.28125 42.828125 
Q 41.5 42.828125 45.03125 45.53125 
Q 48.578125 48.25 48.578125 53.8125 
Q 48.578125 59.328125 45.03125 62.0625 
Q 41.5 64.796875 34.28125 64.796875 
z
M 9.8125 72.90625 
L 35.015625 72.90625 
Q 46.296875 72.90625 52.390625 68.21875 
Q 58.5 63.53125 58.5 54.890625 
Q 58.5 48.1875 55.375 44.234375 
Q 52.25 40.28125 46.1875 39.3125 
Q 53.46875 37.75 57.5 32.78125 
Q 61.53125 27.828125 61.53125 20.40625 
Q 61.53125 10.640625 54.890625 5.3125 
Q 48.25 0 35.984375 0 
L 9.8125 0 
z
" id="DejaVuSans-66"/>
      <path d="M 44.28125 53.078125 
L 44.28125 44.578125 
Q 40.484375 46.53125 36.375 47.5 
Q 32.28125 48.484375 27.875 48.484375 
Q 21.1875 48.484375 17.84375 46.4375 
Q 14.5 44.390625 14.5 40.28125 
Q 14.5 37.15625 16.890625 35.375 
Q 19.28125 33.59375 26.515625 31.984375 
L 29.59375 31.296875 
Q 39.15625 29.25 43.1875 25.515625 
Q 47.21875 21.78125 47.21875 15.09375 
Q 47.21875 7.46875 41.1875 3.015625 
Q 35.15625 -1.421875 24.609375 -1.421875 
Q 20.21875 -1.421875 15.453125 -0.5625 
Q 10.6875 0.296875 5.421875 2 
L 5.421875 11.28125 
Q 10.40625 8.6875 15.234375 7.390625 
Q 20.0625 6.109375 24.8125 6.109375 
Q 31.15625 6.109375 34.5625 8.28125 
Q 37.984375 10.453125 37.984375 14.40625 
Q 37.984375 18.0625 35.515625 20.015625 
Q 33.0625 21.96875 24.703125 23.78125 
L 21.578125 24.515625 
Q 13.234375 26.265625 9.515625 29.90625 
Q 5.8125 33.546875 5.8125 39.890625 
Q 5.8125 47.609375 11.28125 51.796875 
Q 16.75 56 26.8125 56 
Q 31.78125 56 36.171875 55.265625 
Q 40.578125 54.546875 44.28125 53.078125 
z
" id="DejaVuSans-115"/>
      <path d="M 9.421875 75.984375 
L 18.40625 75.984375 
L 18.40625 0 
L 9.421875 0 
z
" id="DejaVuSans-108"/>
     </defs>
     <g transform="translate(521.882812 137.929844)scale(0.1 -0.1)">
      <use xlink:href="#DejaVuSans-66"/>
      <use x="68.603516" xlink:href="#DejaVuSans-97"/>
      <use x="129.882812" xlink:href="#DejaVuSans-115"/>
      <use x="181.982422" xlink:href="#DejaVuSans-101"/>
      <use x="243.505859" xlink:href="#DejaVuSans-108"/>
      <use x="271.289062" xlink:href="#DejaVuSans-105"/>
      <use x="299.072266" xlink:href="#DejaVuSans-110"/>
      <use x="362.451172" xlink:href="#DejaVuSans-101"/>
     </g>
    </g>
    <g id="line2d_20">
     <path d="M 493.882812 149.107969 
L 513.882812 149.107969 
" style="fill:none;stroke:#1f77b4;stroke-linecap:square;stroke-width:1.5;"/>
    </g>
    <g id="line2d_21"/>
    <g id="text_17">
     <!-- $\Downarrow \sigma_\psi$ -->
     <defs>
      <path d="M 36.765625 14.3125 
L 41.9375 9.234375 
L 47.015625 14.3125 
L 47.015625 72.90625 
L 52.875 72.90625 
L 52.875 20.171875 
L 57.46875 24.75 
L 63.328125 18.890625 
L 44.09375 -0.34375 
L 39.703125 -0.34375 
L 20.5625 18.890625 
L 26.421875 24.75 
L 30.90625 20.171875 
L 30.90625 72.90625 
L 36.765625 72.90625 
z
" id="DejaVuSans-8659"/>
      <path d="M 34.671875 47.5625 
Q 27.25 47.5625 22.21875 42.1875 
Q 16.890625 36.578125 15.140625 27.296875 
Q 13.1875 17.484375 16.3125 11.8125 
Q 19.390625 6.203125 26.65625 6.203125 
Q 33.84375 6.203125 39.109375 11.859375 
Q 44.4375 17.53125 46.34375 27.296875 
Q 48.046875 36.234375 45.015625 42.1875 
Q 42.1875 47.5625 34.671875 47.5625 
z
M 36.078125 54.734375 
L 65.921875 54.6875 
L 64.15625 45.703125 
L 54.109375 45.703125 
Q 57.90625 38.09375 55.859375 27.296875 
Q 53.21875 13.875 45.0625 6.25 
Q 36.859375 -1.421875 25.140625 -1.421875 
Q 13.375 -1.421875 8.203125 6.25 
Q 3.03125 13.875 5.671875 27.296875 
Q 8.25 40.765625 16.40625 48.390625 
Q 23.1875 54.734375 36.078125 54.734375 
z
" id="DejaVuSans-Oblique-963"/>
      <path d="M 24.859375 -1.21875 
Q 13.921875 0.59375 9.625 5.328125 
Q 4.34375 11.140625 6.640625 23 
L 12.796875 54.6875 
L 21.875 54.6875 
L 15.765625 23.34375 
Q 14.0625 14.40625 17.484375 10.6875 
Q 20.515625 7.46875 26.421875 6.78125 
L 35.6875 54.6875 
L 44.625 54.6875 
L 35.359375 6.84375 
Q 41.890625 7.515625 45.75 10.75 
Q 50.734375 14.84375 52.390625 23.390625 
L 58.453125 54.6875 
L 67.53125 54.6875 
L 61.375 23.046875 
Q 58.984375 10.75 51.5625 5.375 
Q 44.875 0.53125 33.796875 -1.171875 
L 29.984375 -20.796875 
L 21.046875 -20.796875 
z
" id="DejaVuSans-Oblique-968"/>
     </defs>
     <g transform="translate(521.882812 152.607969)scale(0.1 -0.1)">
      <use transform="translate(19.482422 0.09375)" xlink:href="#DejaVuSans-8659"/>
      <use transform="translate(122.753906 0.09375)" xlink:href="#DejaVuSans-Oblique-963"/>
      <use transform="translate(186.132812 -16.3125)scale(0.7)" xlink:href="#DejaVuSans-Oblique-968"/>
     </g>
    </g>
    <g id="line2d_22">
     <path d="M 493.882812 164.806406 
L 513.882812 164.806406 
" style="fill:none;stroke:#ff7f0e;stroke-linecap:square;stroke-width:1.5;"/>
    </g>
    <g id="line2d_23"/>
    <g id="text_18">
     <!-- $\Downarrow s_\psi$ -->
     <defs>
      <path d="M 50 53.078125 
L 48.296875 44.578125 
Q 44.734375 46.53125 40.765625 47.5 
Q 36.8125 48.484375 32.625 48.484375 
Q 25.53125 48.484375 21.453125 46.0625 
Q 17.390625 43.65625 17.390625 39.5 
Q 17.390625 34.671875 26.859375 32.078125 
Q 27.59375 31.890625 27.9375 31.78125 
L 30.8125 30.90625 
Q 39.796875 28.421875 42.796875 25.6875 
Q 45.796875 22.953125 45.796875 18.21875 
Q 45.796875 9.515625 38.890625 4.046875 
Q 31.984375 -1.421875 20.796875 -1.421875 
Q 16.453125 -1.421875 11.671875 -0.578125 
Q 6.890625 0.25 1.125 2 
L 2.875 11.28125 
Q 7.8125 8.734375 12.59375 7.421875 
Q 17.390625 6.109375 21.78125 6.109375 
Q 28.375 6.109375 32.5 8.9375 
Q 36.625 11.765625 36.625 16.109375 
Q 36.625 20.796875 25.78125 23.6875 
L 24.859375 23.921875 
L 21.78125 24.703125 
Q 14.9375 26.515625 11.765625 29.46875 
Q 8.59375 32.421875 8.59375 37.015625 
Q 8.59375 45.75 15.15625 50.875 
Q 21.734375 56 33.015625 56 
Q 37.453125 56 41.671875 55.265625 
Q 45.90625 54.546875 50 53.078125 
z
" id="DejaVuSans-Oblique-115"/>
     </defs>
     <g transform="translate(521.882812 168.306406)scale(0.1 -0.1)">
      <use transform="translate(19.482422 0.09375)" xlink:href="#DejaVuSans-8659"/>
      <use transform="translate(122.753906 0.09375)" xlink:href="#DejaVuSans-Oblique-115"/>
      <use transform="translate(174.853516 -16.3125)scale(0.7)" xlink:href="#DejaVuSans-Oblique-968"/>
     </g>
    </g>
    <g id="line2d_24">
     <path d="M 493.882812 180.504844 
L 513.882812 180.504844 
" style="fill:none;stroke:#2ca02c;stroke-linecap:square;stroke-width:1.5;"/>
    </g>
    <g id="line2d_25"/>
    <g id="text_19">
     <!-- $\Uparrow \eta$ -->
     <defs>
      <path d="M 36.765625 58.59375 
L 36.765625 0 
L 30.90625 0 
L 30.90625 52.734375 
L 26.421875 48.140625 
L 20.5625 54 
L 39.703125 73.25 
L 44.09375 73.25 
L 63.328125 54 
L 57.46875 48.140625 
L 52.875 52.734375 
L 52.875 0 
L 47.015625 0 
L 47.015625 58.59375 
L 41.9375 63.671875 
z
" id="DejaVuSans-8657"/>
      <path d="M 57.859375 33.015625 
L 47.40625 -20.796875 
L 38.421875 -20.796875 
L 48.828125 32.71875 
Q 50.34375 40.484375 48.046875 44.34375 
Q 45.796875 48.1875 39.75 48.1875 
Q 32.46875 48.1875 27.34375 43.5625 
Q 22.265625 38.921875 20.703125 30.90625 
L 14.703125 0 
L 5.671875 0 
L 16.3125 54.6875 
L 25.34375 54.6875 
L 23.6875 46.1875 
Q 27.828125 51.125 32.71875 53.5625 
Q 37.546875 56 43.265625 56 
Q 52.6875 56 56.390625 50.203125 
Q 60.0625 44.34375 57.859375 33.015625 
z
" id="DejaVuSans-Oblique-951"/>
     </defs>
     <g transform="translate(521.882812 184.004844)scale(0.1 -0.1)">
      <use transform="translate(19.482422 0.75)" xlink:href="#DejaVuSans-8657"/>
      <use transform="translate(122.753906 0.75)" xlink:href="#DejaVuSans-Oblique-951"/>
     </g>
    </g>
   </g>
  </g>
 </g>
 <defs>
  <clipPath id="pb5a693c5a5">
   <rect height="271.8" width="446.4" x="38.482813" y="22.318125"/>
  </clipPath>
 </defs>
</svg>
