<?xml version="1.0" encoding="utf-8" standalone="no"?>
<!DOCTYPE svg PUBLIC "-//W3C//DTD SVG 1.1//EN"
  "http://www.w3.org/Graphics/SVG/1.1/DTD/svg11.dtd">
<!-- Created with matplotlib (https://matplotlib.org/) -->
<svg height="331.674375pt" version="1.1" viewBox="0 0 590.965625 331.674375" width="590.965625pt" xmlns="http://www.w3.org/2000/svg" xmlns:xlink="http://www.w3.org/1999/xlink">
 <defs>
  <style type="text/css">
*{stroke-linecap:butt;stroke-linejoin:round;}
  </style>
 </defs>
 <g id="figure_1">
  <g id="patch_1">
   <path d="M 0 331.674375 
L 590.965625 331.674375 
L 590.965625 0 
L 0 0 
z
" style="fill:#ffffff;"/>
  </g>
  <g id="axes_1">
   <g id="patch_2">
    <path d="M 36.465625 294.118125 
L 482.865625 294.118125 
L 482.865625 22.318125 
L 36.465625 22.318125 
z
" style="fill:#ffffff;"/>
   </g>
   <g id="line2d_1">
    <path clip-path="url(#p69e9102cbe)" d="M 56.756534 280.877643 
L 61.112364 281.234891 
L 68.372081 281.614171 
L 80.7136 281.743973 
L 89.425261 281.441181 
L 93.055119 281.159509 
L 99.588865 280.100394 
L 101.76678 279.502075 
L 105.396638 277.747067 
L 107.574553 276.16323 
L 109.026497 274.680418 
L 110.47844 272.800321 
L 111.204412 271.710703 
L 113.382327 267.019251 
L 114.108299 264.956493 
L 115.560242 259.759978 
L 116.286214 256.812365 
L 117.012185 253.360788 
L 119.190101 239.945712 
L 120.642044 227.538416 
L 121.368016 220.736707 
L 122.819959 203.175596 
L 123.545931 189.964956 
L 125.723846 157.005961 
L 127.175789 134.011904 
L 128.627733 108.445883 
L 130.805648 77.537933 
L 132.257591 61.042832 
L 133.709535 47.661311 
L 134.435506 42.781899 
L 135.161478 39.324734 
L 135.88745 36.911346 
L 136.613421 35.654389 
L 137.339393 34.67267 
L 138.065365 34.995249 
L 138.791336 35.176905 
L 139.517308 37.034113 
L 140.24328 39.48455 
L 141.695223 45.750338 
L 143.147167 54.743541 
L 146.051054 74.738056 
L 152.584799 125.155838 
L 153.310771 129.583927 
L 155.488686 144.4685 
L 157.666601 158.26507 
L 159.844516 171.096692 
L 162.748403 185.797771 
L 167.830205 207.028723 
L 170.00812 214.246885 
L 172.186035 220.371892 
L 174.36395 225.811906 
L 175.815893 229.233435 
L 177.993808 233.459806 
L 179.445752 236.011 
L 182.349639 240.316761 
L 183.801582 242.221244 
L 185.979497 244.623692 
L 188.157412 246.785783 
L 190.335327 248.242873 
L 192.513242 249.60729 
L 193.965186 250.245871 
L 195.417129 250.812576 
L 196.869073 251.380598 
L 198.321016 251.720675 
L 201.224903 251.917356 
L 202.676846 251.72936 
L 203.402818 251.569379 
L 204.12879 251.143658 
L 206.306705 250.389714 
L 207.758648 249.755738 
L 209.210592 248.882342 
L 213.566422 245.425087 
L 216.470309 241.879613 
L 217.19628 240.908422 
L 220.100167 235.590013 
L 223.730026 227.993558 
L 225.907941 222.399412 
L 229.537799 211.727461 
L 237.523488 183.672745 
L 238.24946 180.332764 
L 239.701403 175.481638 
L 241.879318 168.494425 
L 243.331262 163.255039 
L 246.96112 153.614117 
L 248.413064 151.350369 
L 249.139035 150.207164 
L 250.590979 148.721656 
L 251.31695 148.248131 
L 252.768894 147.727247 
L 253.494866 147.153815 
L 254.220837 147.129983 
L 257.124724 148.197927 
L 257.850696 148.791427 
L 260.028611 151.362197 
L 260.754583 152.287691 
L 261.480554 153.411018 
L 262.206526 154.051532 
L 262.932498 154.978986 
L 268.740271 166.362585 
L 275.274017 180.038351 
L 277.451932 184.425644 
L 278.177903 185.697789 
L 278.903875 186.642617 
L 282.533734 193.018333 
L 284.711649 196.455748 
L 287.615536 200.483483 
L 288.341507 201.135563 
L 289.067479 201.610505 
L 293.423309 205.97141 
L 296.327196 208.136951 
L 297.779139 209.033292 
L 299.957055 210.15734 
L 302.13497 210.685557 
L 304.312885 211.168162 
L 305.764828 211.251483 
L 307.942743 211.101552 
L 312.298573 209.954844 
L 313.024545 209.560921 
L 314.476489 208.536319 
L 315.928432 207.626588 
L 316.654404 207.121341 
L 318.106347 205.798581 
L 319.55829 204.716384 
L 321.736206 202.655849 
L 322.462177 201.69847 
L 325.366064 198.673344 
L 326.818008 197.038319 
L 328.995923 194.280201 
L 330.447866 192.264863 
L 339.159526 180.811913 
L 342.789385 176.66535 
L 345.693272 173.738364 
L 349.32313 170.853136 
L 353.678961 168.647302 
L 355.856876 167.915464 
L 358.034791 167.762606 
L 361.664649 168.074844 
L 363.842564 168.532316 
L 365.294508 169.011987 
L 367.472423 170.012827 
L 372.554225 172.793933 
L 376.184083 175.073341 
L 383.4438 179.60845 
L 386.347687 181.245207 
L 393.607404 184.254891 
L 396.511291 185.097305 
L 399.415178 185.621714 
L 402.319065 185.887576 
L 405.222951 185.940885 
L 408.126838 185.634847 
L 411.030725 185.118391 
L 413.934612 184.427692 
L 419.016414 182.662221 
L 421.920301 181.459509 
L 436.439735 175.052468 
L 440.795565 173.54659 
L 444.425423 172.51365 
L 448.055282 171.792296 
L 451.68514 171.338372 
L 455.314999 171.173013 
L 458.944857 171.264392 
L 462.574716 171.572954 
L 462.574716 171.572954 
" style="fill:none;stroke:#1f77b4;stroke-linecap:square;stroke-width:1.5;"/>
   </g>
   <g id="line2d_2">
    <path clip-path="url(#p69e9102cbe)" d="M 56.756534 206.71767 
L 57.482506 208.921439 
L 58.208477 206.906018 
L 58.934449 207.168577 
L 59.660421 207.640809 
L 60.386393 208.659078 
L 61.838336 212.230411 
L 62.564308 212.726019 
L 63.290279 214.354502 
L 64.016251 212.557045 
L 64.742223 214.279708 
L 65.468195 214.414572 
L 66.194166 215.138693 
L 66.920138 216.665622 
L 67.64611 214.756325 
L 68.372081 216.093877 
L 69.098053 216.494361 
L 69.824025 213.751992 
L 70.549996 215.14155 
L 71.275968 211.887078 
L 72.00194 211.837969 
L 72.727912 212.817156 
L 73.453883 211.161725 
L 74.179855 211.354494 
L 74.905827 212.079299 
L 75.631798 212.188547 
L 76.35777 210.048109 
L 77.083742 208.973063 
L 77.809713 209.732389 
L 79.261657 206.294301 
L 79.987629 206.84674 
L 80.7136 207.08613 
L 81.439572 206.983913 
L 82.165544 204.609635 
L 82.891515 204.104517 
L 83.617487 204.742842 
L 85.795402 208.037958 
L 86.521374 208.497598 
L 87.247346 207.038247 
L 87.973317 207.900383 
L 89.425261 210.938831 
L 90.151232 207.897729 
L 90.877204 209.115895 
L 91.603176 206.19942 
L 93.055119 208.067566 
L 93.781091 207.240465 
L 94.507063 207.798397 
L 95.233034 208.824125 
L 95.959006 209.545409 
L 97.410949 211.336225 
L 98.136921 209.200675 
L 98.862893 208.685854 
L 99.588865 209.072313 
L 101.040808 211.541624 
L 101.76678 209.641089 
L 102.492751 211.115728 
L 103.218723 211.377277 
L 103.944695 209.546824 
L 104.670666 208.862151 
L 105.396638 210.068652 
L 106.12261 210.847379 
L 106.848582 212.229889 
L 107.574553 213.369842 
L 108.300525 211.225872 
L 109.026497 211.110712 
L 109.752468 212.073142 
L 110.47844 213.324354 
L 111.930383 216.238494 
L 113.382327 217.347923 
L 114.83427 219.765432 
L 115.560242 217.368615 
L 116.286214 218.470629 
L 117.738157 221.478369 
L 118.464129 218.576557 
L 119.190101 218.3944 
L 119.916072 217.072562 
L 120.642044 218.042313 
L 121.368016 218.394467 
L 122.093987 218.47261 
L 122.819959 218.786967 
L 123.545931 216.312054 
L 124.271902 215.458565 
L 125.723846 216.699812 
L 126.449818 214.247975 
L 127.175789 215.18709 
L 127.901761 215.690622 
L 128.627733 215.0984 
L 130.079676 217.130218 
L 130.805648 214.332391 
L 131.531619 215.32255 
L 132.257591 213.038176 
L 132.983563 213.487056 
L 133.709535 214.369612 
L 134.435506 214.769138 
L 135.88745 217.020651 
L 136.613421 217.201944 
L 137.339393 218.519155 
L 138.065365 215.224246 
L 138.791336 214.593713 
L 140.969252 217.350056 
L 141.695223 218.903141 
L 142.421195 219.420607 
L 143.147167 219.523427 
L 143.873138 217.808005 
L 144.59911 218.505911 
L 146.051054 220.685273 
L 147.502997 221.283087 
L 148.228969 222.452088 
L 148.95494 223.124819 
L 149.680912 219.653018 
L 150.406884 218.818775 
L 151.132855 219.458486 
L 151.858827 219.915578 
L 152.584799 220.128121 
L 154.036742 219.525959 
L 154.762714 219.540017 
L 155.488686 220.363026 
L 156.214657 219.929078 
L 156.940629 220.459635 
L 157.666601 220.475013 
L 158.392572 221.239736 
L 159.118544 222.363134 
L 159.844516 221.968734 
L 160.570488 222.803594 
L 161.296459 223.079398 
L 162.022431 219.565584 
L 162.748403 220.153787 
L 163.474374 220.217297 
L 164.200346 221.013575 
L 164.926318 221.399537 
L 165.652289 222.590224 
L 166.378261 223.470124 
L 167.104233 224.654359 
L 167.830205 225.306467 
L 168.556176 222.613205 
L 169.282148 223.255108 
L 170.00812 218.544615 
L 170.734091 219.187179 
L 172.186035 219.942289 
L 172.912007 218.713893 
L 173.637978 217.986496 
L 174.36395 217.702135 
L 175.089922 217.041985 
L 175.815893 217.49196 
L 176.541865 217.643949 
L 177.267837 216.976173 
L 177.993808 217.339604 
L 179.445752 212.205707 
L 180.171724 208.686688 
L 180.897695 208.750366 
L 181.623667 208.504705 
L 182.349639 202.905134 
L 183.07561 202.54244 
L 183.801582 202.470578 
L 184.527554 201.415589 
L 185.253525 201.620765 
L 185.979497 202.147745 
L 186.705469 202.525369 
L 187.431441 201.691138 
L 188.157412 197.833394 
L 188.883384 198.265803 
L 189.609356 194.47746 
L 190.335327 191.656224 
L 191.061299 190.804546 
L 191.787271 186.854756 
L 192.513242 184.205586 
L 193.239214 183.38207 
L 193.965186 183.922702 
L 195.417129 184.132931 
L 196.143101 180.799737 
L 196.869073 178.324909 
L 197.595044 177.716993 
L 198.321016 177.841187 
L 199.046988 173.717756 
L 199.77296 171.385623 
L 200.498931 167.239998 
L 201.224903 166.815579 
L 201.950875 166.784705 
L 202.676846 163.905892 
L 203.402818 162.511947 
L 204.12879 162.634378 
L 204.854761 160.531538 
L 207.032677 163.978797 
L 207.758648 165.935797 
L 208.48462 164.716195 
L 209.936563 169.782778 
L 210.662535 171.319856 
L 211.388507 171.075151 
L 212.114478 171.179257 
L 213.566422 176.658114 
L 214.292394 178.308417 
L 215.018365 180.714479 
L 216.470309 184.787841 
L 217.19628 185.662247 
L 218.648224 190.27634 
L 219.374195 192.011796 
L 220.826139 196.476559 
L 221.552111 196.298787 
L 223.004054 201.297288 
L 223.730026 202.477727 
L 224.455997 202.603416 
L 225.181969 204.693945 
L 225.907941 205.934066 
L 226.633913 207.436293 
L 227.359884 209.461434 
L 228.085856 210.519106 
L 228.811828 211.775255 
L 229.537799 211.011913 
L 230.989743 213.410594 
L 231.715714 215.403877 
L 232.441686 216.186296 
L 233.167658 217.813523 
L 233.89363 218.6463 
L 234.619601 220.193386 
L 235.345573 221.467129 
L 236.071545 222.102522 
L 236.797516 223.335851 
L 237.523488 222.167175 
L 238.24946 222.701477 
L 238.975431 223.417253 
L 239.701403 224.787291 
L 241.153347 226.289661 
L 241.879318 226.492009 
L 242.60529 227.632289 
L 243.331262 225.086806 
L 244.783205 226.817401 
L 245.509177 224.83458 
L 246.96112 225.680541 
L 247.687092 224.442074 
L 248.413064 224.824271 
L 249.139035 222.842396 
L 249.865007 222.096575 
L 250.590979 221.917579 
L 252.042922 222.31541 
L 252.768894 222.309204 
L 253.494866 220.898427 
L 254.220837 219.832145 
L 254.946809 220.03812 
L 255.672781 219.861024 
L 256.398752 217.977543 
L 257.124724 218.472918 
L 257.850696 215.918548 
L 258.576667 214.907439 
L 259.302639 214.407807 
L 260.028611 212.471454 
L 260.754583 211.131918 
L 261.480554 211.095396 
L 262.206526 208.963399 
L 263.658469 207.960577 
L 264.384441 208.2982 
L 265.110413 205.992678 
L 265.836384 206.359888 
L 266.562356 206.235166 
L 267.288328 205.544262 
L 268.0143 206.052276 
L 269.466243 206.062126 
L 270.192215 206.331063 
L 270.918186 206.417607 
L 271.644158 204.845135 
L 272.37013 204.122527 
L 273.096102 203.925557 
L 273.822073 204.315417 
L 275.274017 204.308319 
L 277.451932 205.974852 
L 278.177903 207.185542 
L 278.903875 207.407182 
L 279.629847 206.5161 
L 280.355819 207.031321 
L 281.08179 205.11922 
L 281.807762 205.137029 
L 282.533734 204.970629 
L 283.259705 203.850237 
L 283.985677 204.221992 
L 284.711649 201.718965 
L 285.43762 201.062149 
L 286.163592 199.916552 
L 286.889564 200.095208 
L 287.615536 200.546893 
L 289.067479 201.879451 
L 289.793451 202.850582 
L 290.519422 203.372838 
L 291.245394 204.500899 
L 291.971366 205.050538 
L 292.697337 206.138396 
L 293.423309 206.742611 
L 294.875253 209.068127 
L 296.327196 211.64879 
L 297.053168 213.145514 
L 297.779139 213.748626 
L 298.505111 214.933399 
L 299.231083 212.885482 
L 299.957055 214.025794 
L 300.683026 214.332807 
L 301.408998 215.152242 
L 302.860941 217.624542 
L 303.586913 217.650944 
L 304.312885 216.462597 
L 305.038856 216.377532 
L 305.764828 213.792315 
L 306.4908 212.849917 
L 307.216772 211.481639 
L 307.942743 211.891177 
L 308.668715 212.104591 
L 309.394687 212.581442 
L 310.120658 212.792536 
L 311.572602 212.901825 
L 313.024545 213.903962 
L 313.750517 214.499685 
L 314.476489 214.4486 
L 315.20246 214.613573 
L 315.928432 212.171053 
L 317.380375 213.041055 
L 318.106347 213.182404 
L 318.832319 212.860304 
L 319.55829 213.400767 
L 320.284262 211.074522 
L 321.010234 209.907761 
L 321.736206 209.776627 
L 322.462177 210.086033 
L 323.188149 210.578483 
L 324.640092 207.038258 
L 325.366064 205.507244 
L 326.092036 205.529463 
L 326.818008 204.431704 
L 327.543979 204.282888 
L 328.269951 200.980475 
L 328.995923 200.639715 
L 329.721894 200.469541 
L 330.447866 198.409788 
L 331.173838 198.463988 
L 331.899809 197.936651 
L 332.625781 195.673779 
L 333.351753 194.047856 
L 334.077725 193.619949 
L 334.803696 190.949897 
L 335.529668 189.104062 
L 336.25564 186.592501 
L 336.981611 184.663831 
L 337.707583 184.303708 
L 338.433555 183.568416 
L 339.159526 181.117869 
L 339.885498 179.603893 
L 340.61147 179.62963 
L 341.337442 179.321635 
L 342.063413 177.015823 
L 342.789385 177.274387 
L 343.515357 176.517053 
L 344.241328 174.361585 
L 344.9673 175.019315 
L 345.693272 171.964724 
L 346.419243 172.199263 
L 347.145215 169.794356 
L 348.597159 167.47325 
L 349.32313 166.582383 
L 350.049102 166.78884 
L 350.775074 167.168852 
L 351.501045 166.377556 
L 352.227017 167.009346 
L 352.952989 168.143126 
L 353.678961 166.95412 
L 354.404932 167.835613 
L 355.130904 167.265217 
L 355.856876 168.666138 
L 358.034791 171.604406 
L 359.486734 175.316306 
L 360.212706 175.361379 
L 360.938678 175.737549 
L 361.664649 177.517679 
L 362.390621 178.051064 
L 363.116593 178.173771 
L 363.842564 178.662157 
L 365.294508 181.623988 
L 366.020479 182.94958 
L 366.746451 184.518906 
L 367.472423 184.893092 
L 368.198395 186.283734 
L 368.924366 186.437491 
L 369.650338 186.930964 
L 370.37631 188.240602 
L 371.102281 188.649292 
L 372.554225 191.629096 
L 373.280196 192.179798 
L 374.73214 192.949569 
L 376.184083 195.381938 
L 376.910055 195.559991 
L 380.539914 201.358947 
L 381.265885 202.846595 
L 381.991857 204.001642 
L 382.717829 204.606549 
L 383.4438 205.825669 
L 384.169772 206.733058 
L 384.895744 207.002717 
L 385.621715 208.018402 
L 386.347687 208.270337 
L 387.799631 209.827201 
L 388.525602 209.818392 
L 389.251574 210.082257 
L 390.703517 211.499163 
L 391.429489 212.009304 
L 392.881432 213.677495 
L 394.333376 213.971115 
L 397.963234 217.026833 
L 398.689206 217.356563 
L 399.415178 218.086433 
L 400.141149 218.543694 
L 400.867121 218.476526 
L 401.593093 219.163783 
L 403.045036 220.027206 
L 406.674895 222.278195 
L 407.400867 221.877185 
L 408.126838 222.146833 
L 408.85281 221.472378 
L 410.304753 221.760003 
L 411.030725 220.992721 
L 412.482668 220.983728 
L 413.20864 220.782045 
L 414.660584 220.766318 
L 415.386555 219.933204 
L 416.838499 219.416537 
L 417.56447 218.227114 
L 418.290442 217.757521 
L 419.742385 216.685181 
L 421.920301 212.480684 
L 423.372244 209.141588 
L 424.098216 207.867907 
L 425.550159 204.325301 
L 426.276131 202.344486 
L 427.002102 200.817103 
L 427.728074 198.775905 
L 428.454046 197.141306 
L 429.180018 195.069406 
L 431.357933 190.830151 
L 433.535848 184.766451 
L 434.26182 183.244861 
L 434.987791 181.252962 
L 435.713763 179.704356 
L 436.439735 177.847452 
L 437.165706 176.406212 
L 440.069593 168.865188 
L 440.795565 167.434555 
L 441.521537 165.629619 
L 442.97348 163.020374 
L 443.699452 162.241119 
L 444.425423 160.932076 
L 445.877367 159.601652 
L 448.055282 156.53602 
L 450.233197 154.58598 
L 452.411112 154.312614 
L 453.137084 154.483733 
L 453.863055 154.829089 
L 455.314999 155.189794 
L 456.040971 155.703199 
L 456.766942 156.442945 
L 458.944857 158.124941 
L 461.848744 161.497388 
L 462.574716 162.247521 
L 462.574716 162.247521 
" style="fill:none;stroke:#000000;stroke-dasharray:3.7,1.6;stroke-dashoffset:0;"/>
   </g>
   <g id="matplotlib.axis_1">
    <g id="xtick_1">
     <g id="line2d_3">
      <defs>
       <path d="M 0 0 
L 0 3.5 
" id="m269ec35758" style="stroke:#000000;stroke-width:0.8;"/>
      </defs>
      <g>
       <use style="stroke:#000000;stroke-width:0.8;" x="77.809713" xlink:href="#m269ec35758" y="294.118125"/>
      </g>
     </g>
     <g id="text_1">
      <!-- 100 -->
      <defs>
       <path d="M 12.40625 8.296875 
L 28.515625 8.296875 
L 28.515625 63.921875 
L 10.984375 60.40625 
L 10.984375 69.390625 
L 28.421875 72.90625 
L 38.28125 72.90625 
L 38.28125 8.296875 
L 54.390625 8.296875 
L 54.390625 0 
L 12.40625 0 
z
" id="DejaVuSans-49"/>
       <path d="M 31.78125 66.40625 
Q 24.171875 66.40625 20.328125 58.90625 
Q 16.5 51.421875 16.5 36.375 
Q 16.5 21.390625 20.328125 13.890625 
Q 24.171875 6.390625 31.78125 6.390625 
Q 39.453125 6.390625 43.28125 13.890625 
Q 47.125 21.390625 47.125 36.375 
Q 47.125 51.421875 43.28125 58.90625 
Q 39.453125 66.40625 31.78125 66.40625 
z
M 31.78125 74.21875 
Q 44.046875 74.21875 50.515625 64.515625 
Q 56.984375 54.828125 56.984375 36.375 
Q 56.984375 17.96875 50.515625 8.265625 
Q 44.046875 -1.421875 31.78125 -1.421875 
Q 19.53125 -1.421875 13.0625 8.265625 
Q 6.59375 17.96875 6.59375 36.375 
Q 6.59375 54.828125 13.0625 64.515625 
Q 19.53125 74.21875 31.78125 74.21875 
z
" id="DejaVuSans-48"/>
      </defs>
      <g transform="translate(68.265963 308.716563)scale(0.1 -0.1)">
       <use xlink:href="#DejaVuSans-49"/>
       <use x="63.623047" xlink:href="#DejaVuSans-48"/>
       <use x="127.246094" xlink:href="#DejaVuSans-48"/>
      </g>
     </g>
    </g>
    <g id="xtick_2">
     <g id="line2d_4">
      <g>
       <use style="stroke:#000000;stroke-width:0.8;" x="150.406884" xlink:href="#m269ec35758" y="294.118125"/>
      </g>
     </g>
     <g id="text_2">
      <!-- 200 -->
      <defs>
       <path d="M 19.1875 8.296875 
L 53.609375 8.296875 
L 53.609375 0 
L 7.328125 0 
L 7.328125 8.296875 
Q 12.9375 14.109375 22.625 23.890625 
Q 32.328125 33.6875 34.8125 36.53125 
Q 39.546875 41.84375 41.421875 45.53125 
Q 43.3125 49.21875 43.3125 52.78125 
Q 43.3125 58.59375 39.234375 62.25 
Q 35.15625 65.921875 28.609375 65.921875 
Q 23.96875 65.921875 18.8125 64.3125 
Q 13.671875 62.703125 7.8125 59.421875 
L 7.8125 69.390625 
Q 13.765625 71.78125 18.9375 73 
Q 24.125 74.21875 28.421875 74.21875 
Q 39.75 74.21875 46.484375 68.546875 
Q 53.21875 62.890625 53.21875 53.421875 
Q 53.21875 48.921875 51.53125 44.890625 
Q 49.859375 40.875 45.40625 35.40625 
Q 44.1875 33.984375 37.640625 27.21875 
Q 31.109375 20.453125 19.1875 8.296875 
z
" id="DejaVuSans-50"/>
      </defs>
      <g transform="translate(140.863134 308.716563)scale(0.1 -0.1)">
       <use xlink:href="#DejaVuSans-50"/>
       <use x="63.623047" xlink:href="#DejaVuSans-48"/>
       <use x="127.246094" xlink:href="#DejaVuSans-48"/>
      </g>
     </g>
    </g>
    <g id="xtick_3">
     <g id="line2d_5">
      <g>
       <use style="stroke:#000000;stroke-width:0.8;" x="223.004054" xlink:href="#m269ec35758" y="294.118125"/>
      </g>
     </g>
     <g id="text_3">
      <!-- 300 -->
      <defs>
       <path d="M 40.578125 39.3125 
Q 47.65625 37.796875 51.625 33 
Q 55.609375 28.21875 55.609375 21.1875 
Q 55.609375 10.40625 48.1875 4.484375 
Q 40.765625 -1.421875 27.09375 -1.421875 
Q 22.515625 -1.421875 17.65625 -0.515625 
Q 12.796875 0.390625 7.625 2.203125 
L 7.625 11.71875 
Q 11.71875 9.328125 16.59375 8.109375 
Q 21.484375 6.890625 26.8125 6.890625 
Q 36.078125 6.890625 40.9375 10.546875 
Q 45.796875 14.203125 45.796875 21.1875 
Q 45.796875 27.640625 41.28125 31.265625 
Q 36.765625 34.90625 28.71875 34.90625 
L 20.21875 34.90625 
L 20.21875 43.015625 
L 29.109375 43.015625 
Q 36.375 43.015625 40.234375 45.921875 
Q 44.09375 48.828125 44.09375 54.296875 
Q 44.09375 59.90625 40.109375 62.90625 
Q 36.140625 65.921875 28.71875 65.921875 
Q 24.65625 65.921875 20.015625 65.03125 
Q 15.375 64.15625 9.8125 62.3125 
L 9.8125 71.09375 
Q 15.4375 72.65625 20.34375 73.4375 
Q 25.25 74.21875 29.59375 74.21875 
Q 40.828125 74.21875 47.359375 69.109375 
Q 53.90625 64.015625 53.90625 55.328125 
Q 53.90625 49.265625 50.4375 45.09375 
Q 46.96875 40.921875 40.578125 39.3125 
z
" id="DejaVuSans-51"/>
      </defs>
      <g transform="translate(213.460304 308.716563)scale(0.1 -0.1)">
       <use xlink:href="#DejaVuSans-51"/>
       <use x="63.623047" xlink:href="#DejaVuSans-48"/>
       <use x="127.246094" xlink:href="#DejaVuSans-48"/>
      </g>
     </g>
    </g>
    <g id="xtick_4">
     <g id="line2d_6">
      <g>
       <use style="stroke:#000000;stroke-width:0.8;" x="295.601224" xlink:href="#m269ec35758" y="294.118125"/>
      </g>
     </g>
     <g id="text_4">
      <!-- 400 -->
      <defs>
       <path d="M 37.796875 64.3125 
L 12.890625 25.390625 
L 37.796875 25.390625 
z
M 35.203125 72.90625 
L 47.609375 72.90625 
L 47.609375 25.390625 
L 58.015625 25.390625 
L 58.015625 17.1875 
L 47.609375 17.1875 
L 47.609375 0 
L 37.796875 0 
L 37.796875 17.1875 
L 4.890625 17.1875 
L 4.890625 26.703125 
z
" id="DejaVuSans-52"/>
      </defs>
      <g transform="translate(286.057474 308.716563)scale(0.1 -0.1)">
       <use xlink:href="#DejaVuSans-52"/>
       <use x="63.623047" xlink:href="#DejaVuSans-48"/>
       <use x="127.246094" xlink:href="#DejaVuSans-48"/>
      </g>
     </g>
    </g>
    <g id="xtick_5">
     <g id="line2d_7">
      <g>
       <use style="stroke:#000000;stroke-width:0.8;" x="368.198395" xlink:href="#m269ec35758" y="294.118125"/>
      </g>
     </g>
     <g id="text_5">
      <!-- 500 -->
      <defs>
       <path d="M 10.796875 72.90625 
L 49.515625 72.90625 
L 49.515625 64.59375 
L 19.828125 64.59375 
L 19.828125 46.734375 
Q 21.96875 47.46875 24.109375 47.828125 
Q 26.265625 48.1875 28.421875 48.1875 
Q 40.625 48.1875 47.75 41.5 
Q 54.890625 34.8125 54.890625 23.390625 
Q 54.890625 11.625 47.5625 5.09375 
Q 40.234375 -1.421875 26.90625 -1.421875 
Q 22.3125 -1.421875 17.546875 -0.640625 
Q 12.796875 0.140625 7.71875 1.703125 
L 7.71875 11.625 
Q 12.109375 9.234375 16.796875 8.0625 
Q 21.484375 6.890625 26.703125 6.890625 
Q 35.15625 6.890625 40.078125 11.328125 
Q 45.015625 15.765625 45.015625 23.390625 
Q 45.015625 31 40.078125 35.4375 
Q 35.15625 39.890625 26.703125 39.890625 
Q 22.75 39.890625 18.8125 39.015625 
Q 14.890625 38.140625 10.796875 36.28125 
z
" id="DejaVuSans-53"/>
      </defs>
      <g transform="translate(358.654645 308.716563)scale(0.1 -0.1)">
       <use xlink:href="#DejaVuSans-53"/>
       <use x="63.623047" xlink:href="#DejaVuSans-48"/>
       <use x="127.246094" xlink:href="#DejaVuSans-48"/>
      </g>
     </g>
    </g>
    <g id="xtick_6">
     <g id="line2d_8">
      <g>
       <use style="stroke:#000000;stroke-width:0.8;" x="440.795565" xlink:href="#m269ec35758" y="294.118125"/>
      </g>
     </g>
     <g id="text_6">
      <!-- 600 -->
      <defs>
       <path d="M 33.015625 40.375 
Q 26.375 40.375 22.484375 35.828125 
Q 18.609375 31.296875 18.609375 23.390625 
Q 18.609375 15.53125 22.484375 10.953125 
Q 26.375 6.390625 33.015625 6.390625 
Q 39.65625 6.390625 43.53125 10.953125 
Q 47.40625 15.53125 47.40625 23.390625 
Q 47.40625 31.296875 43.53125 35.828125 
Q 39.65625 40.375 33.015625 40.375 
z
M 52.59375 71.296875 
L 52.59375 62.3125 
Q 48.875 64.0625 45.09375 64.984375 
Q 41.3125 65.921875 37.59375 65.921875 
Q 27.828125 65.921875 22.671875 59.328125 
Q 17.53125 52.734375 16.796875 39.40625 
Q 19.671875 43.65625 24.015625 45.921875 
Q 28.375 48.1875 33.59375 48.1875 
Q 44.578125 48.1875 50.953125 41.515625 
Q 57.328125 34.859375 57.328125 23.390625 
Q 57.328125 12.15625 50.6875 5.359375 
Q 44.046875 -1.421875 33.015625 -1.421875 
Q 20.359375 -1.421875 13.671875 8.265625 
Q 6.984375 17.96875 6.984375 36.375 
Q 6.984375 53.65625 15.1875 63.9375 
Q 23.390625 74.21875 37.203125 74.21875 
Q 40.921875 74.21875 44.703125 73.484375 
Q 48.484375 72.75 52.59375 71.296875 
z
" id="DejaVuSans-54"/>
      </defs>
      <g transform="translate(431.251815 308.716563)scale(0.1 -0.1)">
       <use xlink:href="#DejaVuSans-54"/>
       <use x="63.623047" xlink:href="#DejaVuSans-48"/>
       <use x="127.246094" xlink:href="#DejaVuSans-48"/>
      </g>
     </g>
    </g>
    <g id="text_7">
     <!-- Tempo -->
     <defs>
      <path d="M -0.296875 72.90625 
L 61.375 72.90625 
L 61.375 64.59375 
L 35.5 64.59375 
L 35.5 0 
L 25.59375 0 
L 25.59375 64.59375 
L -0.296875 64.59375 
z
" id="DejaVuSans-84"/>
      <path d="M 56.203125 29.59375 
L 56.203125 25.203125 
L 14.890625 25.203125 
Q 15.484375 15.921875 20.484375 11.0625 
Q 25.484375 6.203125 34.421875 6.203125 
Q 39.59375 6.203125 44.453125 7.46875 
Q 49.3125 8.734375 54.109375 11.28125 
L 54.109375 2.78125 
Q 49.265625 0.734375 44.1875 -0.34375 
Q 39.109375 -1.421875 33.890625 -1.421875 
Q 20.796875 -1.421875 13.15625 6.1875 
Q 5.515625 13.8125 5.515625 26.8125 
Q 5.515625 40.234375 12.765625 48.109375 
Q 20.015625 56 32.328125 56 
Q 43.359375 56 49.78125 48.890625 
Q 56.203125 41.796875 56.203125 29.59375 
z
M 47.21875 32.234375 
Q 47.125 39.59375 43.09375 43.984375 
Q 39.0625 48.390625 32.421875 48.390625 
Q 24.90625 48.390625 20.390625 44.140625 
Q 15.875 39.890625 15.1875 32.171875 
z
" id="DejaVuSans-101"/>
      <path d="M 52 44.1875 
Q 55.375 50.25 60.0625 53.125 
Q 64.75 56 71.09375 56 
Q 79.640625 56 84.28125 50.015625 
Q 88.921875 44.046875 88.921875 33.015625 
L 88.921875 0 
L 79.890625 0 
L 79.890625 32.71875 
Q 79.890625 40.578125 77.09375 44.375 
Q 74.3125 48.1875 68.609375 48.1875 
Q 61.625 48.1875 57.5625 43.546875 
Q 53.515625 38.921875 53.515625 30.90625 
L 53.515625 0 
L 44.484375 0 
L 44.484375 32.71875 
Q 44.484375 40.625 41.703125 44.40625 
Q 38.921875 48.1875 33.109375 48.1875 
Q 26.21875 48.1875 22.15625 43.53125 
Q 18.109375 38.875 18.109375 30.90625 
L 18.109375 0 
L 9.078125 0 
L 9.078125 54.6875 
L 18.109375 54.6875 
L 18.109375 46.1875 
Q 21.1875 51.21875 25.484375 53.609375 
Q 29.78125 56 35.6875 56 
Q 41.65625 56 45.828125 52.96875 
Q 50 49.953125 52 44.1875 
z
" id="DejaVuSans-109"/>
      <path d="M 18.109375 8.203125 
L 18.109375 -20.796875 
L 9.078125 -20.796875 
L 9.078125 54.6875 
L 18.109375 54.6875 
L 18.109375 46.390625 
Q 20.953125 51.265625 25.265625 53.625 
Q 29.59375 56 35.59375 56 
Q 45.5625 56 51.78125 48.09375 
Q 58.015625 40.1875 58.015625 27.296875 
Q 58.015625 14.40625 51.78125 6.484375 
Q 45.5625 -1.421875 35.59375 -1.421875 
Q 29.59375 -1.421875 25.265625 0.953125 
Q 20.953125 3.328125 18.109375 8.203125 
z
M 48.6875 27.296875 
Q 48.6875 37.203125 44.609375 42.84375 
Q 40.53125 48.484375 33.40625 48.484375 
Q 26.265625 48.484375 22.1875 42.84375 
Q 18.109375 37.203125 18.109375 27.296875 
Q 18.109375 17.390625 22.1875 11.75 
Q 26.265625 6.109375 33.40625 6.109375 
Q 40.53125 6.109375 44.609375 11.75 
Q 48.6875 17.390625 48.6875 27.296875 
z
" id="DejaVuSans-112"/>
      <path d="M 30.609375 48.390625 
Q 23.390625 48.390625 19.1875 42.75 
Q 14.984375 37.109375 14.984375 27.296875 
Q 14.984375 17.484375 19.15625 11.84375 
Q 23.34375 6.203125 30.609375 6.203125 
Q 37.796875 6.203125 41.984375 11.859375 
Q 46.1875 17.53125 46.1875 27.296875 
Q 46.1875 37.015625 41.984375 42.703125 
Q 37.796875 48.390625 30.609375 48.390625 
z
M 30.609375 56 
Q 42.328125 56 49.015625 48.375 
Q 55.71875 40.765625 55.71875 27.296875 
Q 55.71875 13.875 49.015625 6.21875 
Q 42.328125 -1.421875 30.609375 -1.421875 
Q 18.84375 -1.421875 12.171875 6.21875 
Q 5.515625 13.875 5.515625 27.296875 
Q 5.515625 40.765625 12.171875 48.375 
Q 18.84375 56 30.609375 56 
z
" id="DejaVuSans-111"/>
     </defs>
     <g transform="translate(243.28125 322.394687)scale(0.1 -0.1)">
      <use xlink:href="#DejaVuSans-84"/>
      <use x="44.083984" xlink:href="#DejaVuSans-101"/>
      <use x="105.607422" xlink:href="#DejaVuSans-109"/>
      <use x="203.019531" xlink:href="#DejaVuSans-112"/>
      <use x="266.496094" xlink:href="#DejaVuSans-111"/>
     </g>
    </g>
   </g>
   <g id="matplotlib.axis_2">
    <g id="ytick_1">
     <g id="line2d_9">
      <defs>
       <path d="M 0 0 
L -3.5 0 
" id="ma13e01b01f" style="stroke:#000000;stroke-width:0.8;"/>
      </defs>
      <g>
       <use style="stroke:#000000;stroke-width:0.8;" x="36.465625" xlink:href="#ma13e01b01f" y="282.920529"/>
      </g>
     </g>
     <g id="text_8">
      <!-- 0.00 -->
      <defs>
       <path d="M 10.6875 12.40625 
L 21 12.40625 
L 21 0 
L 10.6875 0 
z
" id="DejaVuSans-46"/>
      </defs>
      <g transform="translate(7.2 286.719748)scale(0.1 -0.1)">
       <use xlink:href="#DejaVuSans-48"/>
       <use x="63.623047" xlink:href="#DejaVuSans-46"/>
       <use x="95.410156" xlink:href="#DejaVuSans-48"/>
       <use x="159.033203" xlink:href="#DejaVuSans-48"/>
      </g>
     </g>
    </g>
    <g id="ytick_2">
     <g id="line2d_10">
      <g>
       <use style="stroke:#000000;stroke-width:0.8;" x="36.465625" xlink:href="#ma13e01b01f" y="223.784485"/>
      </g>
     </g>
     <g id="text_9">
      <!-- 0.05 -->
      <g transform="translate(7.2 227.583703)scale(0.1 -0.1)">
       <use xlink:href="#DejaVuSans-48"/>
       <use x="63.623047" xlink:href="#DejaVuSans-46"/>
       <use x="95.410156" xlink:href="#DejaVuSans-48"/>
       <use x="159.033203" xlink:href="#DejaVuSans-53"/>
      </g>
     </g>
    </g>
    <g id="ytick_3">
     <g id="line2d_11">
      <g>
       <use style="stroke:#000000;stroke-width:0.8;" x="36.465625" xlink:href="#ma13e01b01f" y="164.64844"/>
      </g>
     </g>
     <g id="text_10">
      <!-- 0.10 -->
      <g transform="translate(7.2 168.447659)scale(0.1 -0.1)">
       <use xlink:href="#DejaVuSans-48"/>
       <use x="63.623047" xlink:href="#DejaVuSans-46"/>
       <use x="95.410156" xlink:href="#DejaVuSans-49"/>
       <use x="159.033203" xlink:href="#DejaVuSans-48"/>
      </g>
     </g>
    </g>
    <g id="ytick_4">
     <g id="line2d_12">
      <g>
       <use style="stroke:#000000;stroke-width:0.8;" x="36.465625" xlink:href="#ma13e01b01f" y="105.512395"/>
      </g>
     </g>
     <g id="text_11">
      <!-- 0.15 -->
      <g transform="translate(7.2 109.311614)scale(0.1 -0.1)">
       <use xlink:href="#DejaVuSans-48"/>
       <use x="63.623047" xlink:href="#DejaVuSans-46"/>
       <use x="95.410156" xlink:href="#DejaVuSans-49"/>
       <use x="159.033203" xlink:href="#DejaVuSans-53"/>
      </g>
     </g>
    </g>
    <g id="ytick_5">
     <g id="line2d_13">
      <g>
       <use style="stroke:#000000;stroke-width:0.8;" x="36.465625" xlink:href="#ma13e01b01f" y="46.376351"/>
      </g>
     </g>
     <g id="text_12">
      <!-- 0.20 -->
      <g transform="translate(7.2 50.175569)scale(0.1 -0.1)">
       <use xlink:href="#DejaVuSans-48"/>
       <use x="63.623047" xlink:href="#DejaVuSans-46"/>
       <use x="95.410156" xlink:href="#DejaVuSans-50"/>
       <use x="159.033203" xlink:href="#DejaVuSans-48"/>
      </g>
     </g>
    </g>
   </g>
   <g id="patch_3">
    <path d="M 36.465625 294.118125 
L 36.465625 22.318125 
" style="fill:none;stroke:#000000;stroke-linecap:square;stroke-linejoin:miter;stroke-width:0.8;"/>
   </g>
   <g id="patch_4">
    <path d="M 36.465625 294.118125 
L 482.865625 294.118125 
" style="fill:none;stroke:#000000;stroke-linecap:square;stroke-linejoin:miter;stroke-width:0.8;"/>
   </g>
   <g id="text_13">
    <!-- h -->
    <defs>
     <path d="M 54.890625 33.015625 
L 54.890625 0 
L 45.90625 0 
L 45.90625 32.71875 
Q 45.90625 40.484375 42.875 44.328125 
Q 39.84375 48.1875 33.796875 48.1875 
Q 26.515625 48.1875 22.3125 43.546875 
Q 18.109375 38.921875 18.109375 30.90625 
L 18.109375 0 
L 9.078125 0 
L 9.078125 75.984375 
L 18.109375 75.984375 
L 18.109375 46.1875 
Q 21.34375 51.125 25.703125 53.5625 
Q 30.078125 56 35.796875 56 
Q 45.21875 56 50.046875 50.171875 
Q 54.890625 44.34375 54.890625 33.015625 
z
" id="DejaVuSans-104"/>
    </defs>
    <g transform="translate(255.863125 16.318125)scale(0.12 -0.12)">
     <use xlink:href="#DejaVuSans-104"/>
    </g>
   </g>
   <g id="legend_1">
    <g id="patch_5">
     <path d="M 489.865625 174.457188 
L 581.765625 174.457188 
Q 583.765625 174.457188 583.765625 172.457188 
L 583.765625 143.979063 
Q 583.765625 141.979063 581.765625 141.979063 
L 489.865625 141.979063 
Q 487.865625 141.979063 487.865625 143.979063 
L 487.865625 172.457188 
Q 487.865625 174.457188 489.865625 174.457188 
z
" style="fill:#ffffff;opacity:0.8;stroke:#cccccc;stroke-linejoin:miter;"/>
    </g>
    <g id="line2d_14">
     <path d="M 491.865625 150.0775 
L 511.865625 150.0775 
" style="fill:none;stroke:#000000;stroke-dasharray:3.7,1.6;stroke-dashoffset:0;"/>
    </g>
    <g id="line2d_15"/>
    <g id="text_14">
     <!-- Baseline -->
     <defs>
      <path d="M 19.671875 34.8125 
L 19.671875 8.109375 
L 35.5 8.109375 
Q 43.453125 8.109375 47.28125 11.40625 
Q 51.125 14.703125 51.125 21.484375 
Q 51.125 28.328125 47.28125 31.5625 
Q 43.453125 34.8125 35.5 34.8125 
z
M 19.671875 64.796875 
L 19.671875 42.828125 
L 34.28125 42.828125 
Q 41.5 42.828125 45.03125 45.53125 
Q 48.578125 48.25 48.578125 53.8125 
Q 48.578125 59.328125 45.03125 62.0625 
Q 41.5 64.796875 34.28125 64.796875 
z
M 9.8125 72.90625 
L 35.015625 72.90625 
Q 46.296875 72.90625 52.390625 68.21875 
Q 58.5 63.53125 58.5 54.890625 
Q 58.5 48.1875 55.375 44.234375 
Q 52.25 40.28125 46.1875 39.3125 
Q 53.46875 37.75 57.5 32.78125 
Q 61.53125 27.828125 61.53125 20.40625 
Q 61.53125 10.640625 54.890625 5.3125 
Q 48.25 0 35.984375 0 
L 9.8125 0 
z
" id="DejaVuSans-66"/>
      <path d="M 34.28125 27.484375 
Q 23.390625 27.484375 19.1875 25 
Q 14.984375 22.515625 14.984375 16.5 
Q 14.984375 11.71875 18.140625 8.90625 
Q 21.296875 6.109375 26.703125 6.109375 
Q 34.1875 6.109375 38.703125 11.40625 
Q 43.21875 16.703125 43.21875 25.484375 
L 43.21875 27.484375 
z
M 52.203125 31.203125 
L 52.203125 0 
L 43.21875 0 
L 43.21875 8.296875 
Q 40.140625 3.328125 35.546875 0.953125 
Q 30.953125 -1.421875 24.3125 -1.421875 
Q 15.921875 -1.421875 10.953125 3.296875 
Q 6 8.015625 6 15.921875 
Q 6 25.140625 12.171875 29.828125 
Q 18.359375 34.515625 30.609375 34.515625 
L 43.21875 34.515625 
L 43.21875 35.40625 
Q 43.21875 41.609375 39.140625 45 
Q 35.0625 48.390625 27.6875 48.390625 
Q 23 48.390625 18.546875 47.265625 
Q 14.109375 46.140625 10.015625 43.890625 
L 10.015625 52.203125 
Q 14.9375 54.109375 19.578125 55.046875 
Q 24.21875 56 28.609375 56 
Q 40.484375 56 46.34375 49.84375 
Q 52.203125 43.703125 52.203125 31.203125 
z
" id="DejaVuSans-97"/>
      <path d="M 44.28125 53.078125 
L 44.28125 44.578125 
Q 40.484375 46.53125 36.375 47.5 
Q 32.28125 48.484375 27.875 48.484375 
Q 21.1875 48.484375 17.84375 46.4375 
Q 14.5 44.390625 14.5 40.28125 
Q 14.5 37.15625 16.890625 35.375 
Q 19.28125 33.59375 26.515625 31.984375 
L 29.59375 31.296875 
Q 39.15625 29.25 43.1875 25.515625 
Q 47.21875 21.78125 47.21875 15.09375 
Q 47.21875 7.46875 41.1875 3.015625 
Q 35.15625 -1.421875 24.609375 -1.421875 
Q 20.21875 -1.421875 15.453125 -0.5625 
Q 10.6875 0.296875 5.421875 2 
L 5.421875 11.28125 
Q 10.40625 8.6875 15.234375 7.390625 
Q 20.0625 6.109375 24.8125 6.109375 
Q 31.15625 6.109375 34.5625 8.28125 
Q 37.984375 10.453125 37.984375 14.40625 
Q 37.984375 18.0625 35.515625 20.015625 
Q 33.0625 21.96875 24.703125 23.78125 
L 21.578125 24.515625 
Q 13.234375 26.265625 9.515625 29.90625 
Q 5.8125 33.546875 5.8125 39.890625 
Q 5.8125 47.609375 11.28125 51.796875 
Q 16.75 56 26.8125 56 
Q 31.78125 56 36.171875 55.265625 
Q 40.578125 54.546875 44.28125 53.078125 
z
" id="DejaVuSans-115"/>
      <path d="M 9.421875 75.984375 
L 18.40625 75.984375 
L 18.40625 0 
L 9.421875 0 
z
" id="DejaVuSans-108"/>
      <path d="M 9.421875 54.6875 
L 18.40625 54.6875 
L 18.40625 0 
L 9.421875 0 
z
M 9.421875 75.984375 
L 18.40625 75.984375 
L 18.40625 64.59375 
L 9.421875 64.59375 
z
" id="DejaVuSans-105"/>
      <path d="M 54.890625 33.015625 
L 54.890625 0 
L 45.90625 0 
L 45.90625 32.71875 
Q 45.90625 40.484375 42.875 44.328125 
Q 39.84375 48.1875 33.796875 48.1875 
Q 26.515625 48.1875 22.3125 43.546875 
Q 18.109375 38.921875 18.109375 30.90625 
L 18.109375 0 
L 9.078125 0 
L 9.078125 54.6875 
L 18.109375 54.6875 
L 18.109375 46.1875 
Q 21.34375 51.125 25.703125 53.5625 
Q 30.078125 56 35.796875 56 
Q 45.21875 56 50.046875 50.171875 
Q 54.890625 44.34375 54.890625 33.015625 
z
" id="DejaVuSans-110"/>
     </defs>
     <g transform="translate(519.865625 153.5775)scale(0.1 -0.1)">
      <use xlink:href="#DejaVuSans-66"/>
      <use x="68.603516" xlink:href="#DejaVuSans-97"/>
      <use x="129.882812" xlink:href="#DejaVuSans-115"/>
      <use x="181.982422" xlink:href="#DejaVuSans-101"/>
      <use x="243.505859" xlink:href="#DejaVuSans-108"/>
      <use x="271.289062" xlink:href="#DejaVuSans-105"/>
      <use x="299.072266" xlink:href="#DejaVuSans-110"/>
      <use x="362.451172" xlink:href="#DejaVuSans-101"/>
     </g>
    </g>
    <g id="line2d_16">
     <path d="M 491.865625 164.857188 
L 511.865625 164.857188 
" style="fill:none;stroke:#1f77b4;stroke-linecap:square;stroke-width:1.5;"/>
    </g>
    <g id="line2d_17"/>
    <g id="text_15">
     <!-- $\Uparrow \beta$ (shape) -->
     <defs>
      <path d="M 36.765625 58.59375 
L 36.765625 0 
L 30.90625 0 
L 30.90625 52.734375 
L 26.421875 48.140625 
L 20.5625 54 
L 39.703125 73.25 
L 44.09375 73.25 
L 63.328125 54 
L 57.46875 48.140625 
L 52.875 52.734375 
L 52.875 0 
L 47.015625 0 
L 47.015625 58.59375 
L 41.9375 63.671875 
z
" id="DejaVuSans-8657"/>
      <path d="M 13.625 3.375 
L 8.9375 -20.796875 
L -0.09375 -20.796875 
L 14.5 54.34375 
Q 18.84375 76.609375 39.65625 76.609375 
Q 60.75 76.609375 57.171875 57.8125 
Q 54.734375 44.4375 45.21875 39.546875 
Q 58.015625 35.15625 55.515625 22.125 
Q 51.125 -1.078125 27.484375 -1.03125 
Q 17.140625 -0.984375 13.625 3.375 
z
M 15.921875 15.09375 
Q 19.671875 6.59375 29.296875 6.640625 
Q 43.359375 6.640625 46.34375 21.96875 
Q 49.03125 35.75 26.171875 34.671875 
L 27.78125 42.96875 
Q 45.453125 42.671875 48.53125 58.59375 
Q 50.640625 69.34375 39.203125 69.28125 
Q 26.421875 69.28125 23.484375 54.046875 
z
" id="DejaVuSans-Oblique-946"/>
      <path id="DejaVuSans-32"/>
      <path d="M 31 75.875 
Q 24.46875 64.65625 21.28125 53.65625 
Q 18.109375 42.671875 18.109375 31.390625 
Q 18.109375 20.125 21.3125 9.0625 
Q 24.515625 -2 31 -13.1875 
L 23.1875 -13.1875 
Q 15.875 -1.703125 12.234375 9.375 
Q 8.59375 20.453125 8.59375 31.390625 
Q 8.59375 42.28125 12.203125 53.3125 
Q 15.828125 64.359375 23.1875 75.875 
z
" id="DejaVuSans-40"/>
      <path d="M 8.015625 75.875 
L 15.828125 75.875 
Q 23.140625 64.359375 26.78125 53.3125 
Q 30.421875 42.28125 30.421875 31.390625 
Q 30.421875 20.453125 26.78125 9.375 
Q 23.140625 -1.703125 15.828125 -13.1875 
L 8.015625 -13.1875 
Q 14.5 -2 17.703125 9.0625 
Q 20.90625 20.125 20.90625 31.390625 
Q 20.90625 42.671875 17.703125 53.65625 
Q 14.5 64.65625 8.015625 75.875 
z
" id="DejaVuSans-41"/>
     </defs>
     <g transform="translate(519.865625 168.357188)scale(0.1 -0.1)">
      <use transform="translate(19.482422 0.390625)" xlink:href="#DejaVuSans-8657"/>
      <use transform="translate(122.753906 0.390625)" xlink:href="#DejaVuSans-Oblique-946"/>
      <use transform="translate(186.572266 0.390625)" xlink:href="#DejaVuSans-32"/>
      <use transform="translate(218.359375 0.390625)" xlink:href="#DejaVuSans-40"/>
      <use transform="translate(257.373047 0.390625)" xlink:href="#DejaVuSans-115"/>
      <use transform="translate(309.472656 0.390625)" xlink:href="#DejaVuSans-104"/>
      <use transform="translate(372.851562 0.390625)" xlink:href="#DejaVuSans-97"/>
      <use transform="translate(434.130859 0.390625)" xlink:href="#DejaVuSans-112"/>
      <use transform="translate(497.607422 0.390625)" xlink:href="#DejaVuSans-101"/>
      <use transform="translate(559.130859 0.390625)" xlink:href="#DejaVuSans-41"/>
     </g>
    </g>
   </g>
  </g>
 </g>
 <defs>
  <clipPath id="p69e9102cbe">
   <rect height="271.8" width="446.4" x="36.465625" y="22.318125"/>
  </clipPath>
 </defs>
</svg>
