<?xml version="1.0" encoding="utf-8" standalone="no"?>
<!DOCTYPE svg PUBLIC "-//W3C//DTD SVG 1.1//EN"
  "http://www.w3.org/Graphics/SVG/1.1/DTD/svg11.dtd">
<!-- Created with matplotlib (https://matplotlib.org/) -->
<svg height="331.674375pt" version="1.1" viewBox="0 0 592.982812 331.674375" width="592.982812pt" xmlns="http://www.w3.org/2000/svg" xmlns:xlink="http://www.w3.org/1999/xlink">
 <defs>
  <style type="text/css">
*{stroke-linecap:butt;stroke-linejoin:round;}
  </style>
 </defs>
 <g id="figure_1">
  <g id="patch_1">
   <path d="M 0 331.674375 
L 592.982812 331.674375 
L 592.982812 0 
L 0 0 
z
" style="fill:#ffffff;"/>
  </g>
  <g id="axes_1">
   <g id="patch_2">
    <path d="M 38.482813 294.118125 
L 484.882812 294.118125 
L 484.882812 22.318125 
L 38.482813 22.318125 
z
" style="fill:#ffffff;"/>
   </g>
   <g id="line2d_1">
    <path clip-path="url(#p298da69fb5)" d="M 58.773722 264.700654 
L 59.499693 245.449611 
L 60.225665 268.870918 
L 60.951637 261.154667 
L 61.677608 261.163366 
L 63.129552 241.201828 
L 63.855524 241.328556 
L 64.581495 256.315417 
L 65.307467 238.565358 
L 66.033439 268.810018 
L 66.75941 238.556692 
L 67.485382 253.670823 
L 68.211354 248.647865 
L 68.937325 238.434852 
L 69.663297 265.860767 
L 70.389269 234.631654 
L 71.115241 239.225043 
L 71.841212 266.490499 
L 72.567184 233.940288 
L 73.293156 268.502114 
L 74.019127 244.823271 
L 74.745099 236.011891 
L 75.471071 255.347899 
L 76.197042 237.92241 
L 76.923014 228.857515 
L 77.648986 241.123393 
L 78.374958 258.394513 
L 79.100929 248.444076 
L 79.826901 213.053625 
L 80.552873 253.078547 
L 81.278844 248.860562 
L 82.004816 229.057187 
L 82.730788 228.1837 
L 83.456759 224.632329 
L 84.182731 247.757832 
L 84.908703 229.599477 
L 85.634675 219.459912 
L 86.360646 207.525242 
L 87.086618 206.636108 
L 87.81259 194.569781 
L 89.264533 233.991304 
L 89.990505 202.205784 
L 90.716477 175.346216 
L 91.442448 175.640984 
L 92.16842 245.119038 
L 92.894392 184.978704 
L 93.620363 234.861626 
L 94.346335 189.882092 
L 95.072307 179.365426 
L 95.798278 199.559685 
L 97.250222 175.879731 
L 97.976194 184.169584 
L 98.702165 175.767047 
L 99.428137 158.120253 
L 100.154109 219.43417 
L 100.88008 197.259881 
L 101.606052 180.147477 
L 102.332024 151.524403 
L 103.057995 144.93833 
L 103.783967 211.318898 
L 104.509939 105.311964 
L 105.235911 165.691798 
L 105.961882 196.594732 
L 106.687854 179.44605 
L 107.413826 131.083841 
L 108.139797 134.84719 
L 108.865769 114.21602 
L 109.591741 123.582019 
L 110.317712 192.593013 
L 111.043684 151.166 
L 111.769656 118.005125 
L 112.495628 98.590678 
L 113.221599 89.366122 
L 113.947571 64.077645 
L 114.673543 119.342666 
L 115.399514 116.701083 
L 116.125486 76.149914 
L 116.851458 63.568561 
L 117.57743 183.83033 
L 118.303401 84.789446 
L 119.029373 53.654738 
L 119.755345 34.67267 
L 120.481316 195.554666 
L 121.207288 135.99966 
L 121.93326 159.539575 
L 122.659231 84.457292 
L 123.385203 121.842703 
L 124.111175 123.878168 
L 124.837147 114.185876 
L 125.563118 164.696749 
L 126.28909 163.134588 
L 127.015062 129.574763 
L 127.741033 132.704753 
L 128.467005 205.75914 
L 129.192977 136.946936 
L 129.918948 144.552264 
L 130.64492 188.085871 
L 131.370892 155.279742 
L 132.096864 164.115853 
L 132.822835 232.022783 
L 133.548807 179.280011 
L 134.274779 233.435875 
L 135.00075 202.116962 
L 135.726722 194.892875 
L 136.452694 211.856292 
L 137.178665 203.62309 
L 137.904637 207.334276 
L 138.630609 228.811147 
L 139.356581 209.059157 
L 140.082552 261.982207 
L 140.808524 242.975525 
L 141.534496 230.318038 
L 142.260467 234.493296 
L 142.986439 230.378665 
L 143.712411 223.924261 
L 144.438383 244.789136 
L 145.164354 251.159197 
L 145.890326 265.373783 
L 146.616298 245.281352 
L 147.342269 240.532825 
L 148.068241 245.638317 
L 148.794213 255.695454 
L 149.520184 256.385584 
L 150.246156 245.871675 
L 150.972128 254.107128 
L 151.6981 277.911234 
L 153.150043 256.255364 
L 153.876015 255.081902 
L 154.601986 262.406467 
L 155.327958 260.941093 
L 156.05393 265.692232 
L 156.779901 263.131503 
L 157.505873 255.513912 
L 158.231845 267.303076 
L 158.957817 260.861061 
L 159.683788 262.260607 
L 160.40976 258.891408 
L 161.135732 254.127519 
L 161.861703 267.202464 
L 162.587675 255.798875 
L 163.313647 261.80198 
L 164.039618 279.618609 
L 164.76559 260.667392 
L 165.491562 261.153223 
L 166.217534 257.366475 
L 166.943505 260.969493 
L 167.669477 253.596764 
L 168.395449 257.195971 
L 169.12142 250.893588 
L 169.847392 258.81348 
L 170.573364 277.322286 
L 171.299336 256.615116 
L 172.025307 281.76358 
L 172.751279 255.328676 
L 173.477251 256.270433 
L 174.203222 258.670289 
L 174.929194 268.716033 
L 175.655166 264.343891 
L 176.381137 263.047368 
L 177.107109 265.737873 
L 177.833081 256.287267 
L 178.559053 256.809199 
L 179.285024 263.63446 
L 180.010996 253.237882 
L 180.736968 272.34142 
L 181.462939 270.818506 
L 182.188911 273.078894 
L 182.914883 256.008602 
L 183.640854 257.411396 
L 184.366826 276.779069 
L 185.092798 257.497232 
L 185.81877 253.978658 
L 186.544741 259.725738 
L 187.270713 248.537605 
L 187.996685 249.064517 
L 188.722656 249.01054 
L 189.448628 257.31436 
L 190.1746 269.571795 
L 190.900571 242.086604 
L 191.626543 266.692752 
L 192.352515 262.858081 
L 193.078487 252.949062 
L 193.804458 265.654312 
L 194.53043 260.220541 
L 195.982373 238.644521 
L 196.708345 241.3981 
L 197.434317 242.492976 
L 198.160289 261.020686 
L 198.88626 255.774764 
L 199.612232 245.342387 
L 200.338204 237.816591 
L 201.064175 258.514007 
L 201.790147 249.18108 
L 202.516119 258.456443 
L 203.24209 239.315864 
L 203.968062 233.954322 
L 204.694034 248.738817 
L 205.420006 240.284275 
L 206.145977 223.320859 
L 206.871949 242.817743 
L 207.597921 219.980941 
L 208.323892 219.588833 
L 209.049864 216.462422 
L 209.775836 207.237225 
L 210.501807 234.830652 
L 211.227779 196.850497 
L 211.953751 189.730828 
L 212.679723 204.612004 
L 213.405694 224.671024 
L 214.131666 221.326384 
L 214.857638 187.359282 
L 215.583609 185.922055 
L 216.309581 196.491193 
L 217.035553 183.688532 
L 217.761524 188.810865 
L 218.487496 185.721707 
L 219.213468 205.244213 
L 219.93944 173.225628 
L 220.665411 171.4219 
L 221.391383 186.59425 
L 222.117355 159.296623 
L 222.843326 171.540825 
L 223.569298 214.02633 
L 224.29527 159.525969 
L 225.021242 156.31457 
L 225.747213 190.435996 
L 226.473185 206.373776 
L 227.199157 161.172044 
L 227.925128 187.396643 
L 228.6511 176.418729 
L 229.377072 163.00601 
L 230.103043 187.722768 
L 230.829015 181.167156 
L 231.554987 220.205499 
L 232.280959 177.917911 
L 233.00693 187.530841 
L 233.732902 157.587185 
L 234.458874 192.416819 
L 235.184845 166.369815 
L 235.910817 195.129283 
L 236.636789 170.884034 
L 237.36276 179.069565 
L 238.088732 199.218207 
L 238.814704 183.082192 
L 239.540676 230.691172 
L 240.266647 196.126347 
L 240.992619 199.641746 
L 241.718591 183.70146 
L 242.444562 203.71337 
L 243.170534 198.515452 
L 243.896506 215.139762 
L 244.622477 188.424152 
L 245.348449 247.690348 
L 246.074421 203.382579 
L 246.800393 205.044879 
L 247.526364 244.589775 
L 248.252336 216.378 
L 248.978308 216.689406 
L 249.704279 243.388227 
L 250.430251 222.580844 
L 251.156223 250.268681 
L 251.882195 240.312608 
L 252.608166 233.562872 
L 253.334138 229.29519 
L 254.06011 231.234365 
L 254.786081 234.224039 
L 255.512053 247.72352 
L 256.238025 247.113686 
L 256.963996 234.335668 
L 257.689968 239.352482 
L 258.41594 254.549734 
L 259.141912 230.701482 
L 259.867883 259.876297 
L 260.593855 250.292692 
L 261.319827 245.563051 
L 262.045798 257.23231 
L 262.77177 252.931911 
L 263.497742 243.017827 
L 264.223713 256.411649 
L 264.949685 246.275326 
L 265.675657 248.898938 
L 266.401629 239.956937 
L 267.1276 260.951885 
L 267.853572 242.356512 
L 268.579544 246.108976 
L 269.305515 250.483457 
L 270.031487 240.804327 
L 270.757459 246.652933 
L 272.935374 244.668541 
L 273.661346 258.090058 
L 274.387317 252.56919 
L 275.839261 244.164929 
L 276.565232 247.714745 
L 277.291204 246.720019 
L 278.017176 242.225628 
L 278.743148 240.440304 
L 279.469119 243.73636 
L 280.195091 232.638936 
L 280.921063 241.364363 
L 281.647034 253.768591 
L 282.373006 241.854277 
L 283.098978 259.748599 
L 283.824949 247.007271 
L 284.550921 248.047763 
L 285.276893 254.962516 
L 286.002865 242.508942 
L 286.728836 261.878679 
L 287.454808 250.764674 
L 288.18078 253.878057 
L 288.906751 243.813105 
L 289.632723 240.675509 
L 290.358695 235.929875 
L 291.084666 232.79643 
L 291.810638 232.585876 
L 292.53661 238.314891 
L 293.262582 230.804148 
L 293.988553 237.57049 
L 294.714525 230.904616 
L 295.440497 235.892941 
L 296.166468 228.117779 
L 296.89244 226.853125 
L 297.618412 224.780906 
L 298.344383 223.131099 
L 299.070355 219.562252 
L 299.796327 232.42043 
L 300.522299 223.444401 
L 301.24827 256.653916 
L 301.974242 223.432752 
L 302.700214 233.324234 
L 304.152157 218.12058 
L 304.878129 219.862539 
L 305.604101 236.974072 
L 306.330072 249.246993 
L 307.056044 237.490265 
L 307.782016 257.173182 
L 308.507987 244.721909 
L 309.233959 248.313203 
L 309.959931 229.395454 
L 310.685902 230.792208 
L 311.411874 227.31466 
L 312.137846 230.993154 
L 312.863818 233.196372 
L 313.589789 232.065284 
L 314.315761 226.840983 
L 315.041733 223.290845 
L 315.767704 220.909749 
L 316.493676 230.616042 
L 317.219648 228.890465 
L 317.945619 252.077013 
L 318.671591 223.838872 
L 319.397563 221.858511 
L 320.123535 226.978335 
L 320.849506 234.089017 
L 321.575478 221.614373 
L 322.30145 250.222217 
L 324.479365 221.439848 
L 325.205336 221.400668 
L 325.931308 246.048986 
L 326.65728 244.325822 
L 327.383252 242.303703 
L 328.109223 227.613973 
L 328.835195 238.443024 
L 329.561167 228.597832 
L 330.287138 252.762905 
L 331.01311 230.107595 
L 331.739082 227.579887 
L 332.465054 244.556819 
L 333.191025 226.147101 
L 333.916997 232.347209 
L 334.642969 245.810402 
L 335.36894 239.850765 
L 336.094912 231.717495 
L 336.820884 247.916484 
L 337.546855 242.062426 
L 338.272827 246.091422 
L 338.998799 242.807977 
L 339.724771 231.232595 
L 340.450742 233.469701 
L 341.176714 245.453584 
L 341.902686 240.01769 
L 342.628657 228.537378 
L 343.354629 232.039295 
L 344.080601 244.732264 
L 344.806572 226.710783 
L 346.258516 244.662108 
L 346.984488 223.941207 
L 347.710459 248.673416 
L 348.436431 229.245001 
L 349.162403 245.644813 
L 349.888374 239.630715 
L 351.340318 238.050667 
L 352.066289 231.122126 
L 352.792261 229.571671 
L 353.518233 237.480166 
L 354.244205 227.941558 
L 354.970176 224.184726 
L 355.696148 241.135387 
L 356.42212 226.350717 
L 357.148091 237.130173 
L 357.874063 222.748013 
L 358.600035 226.542379 
L 359.326007 226.540291 
L 360.051978 228.250371 
L 360.77795 219.81311 
L 361.503922 216.06302 
L 362.229893 235.443814 
L 362.955865 233.586599 
L 363.681837 219.387704 
L 364.407808 232.055246 
L 365.13378 235.206977 
L 365.859752 233.290729 
L 366.585724 222.505862 
L 368.037667 225.316438 
L 368.763639 222.543433 
L 369.48961 234.853285 
L 370.215582 224.689267 
L 370.941554 236.51271 
L 371.667525 233.933876 
L 372.393497 225.409499 
L 373.119469 235.390839 
L 373.845441 222.379117 
L 374.571412 223.90348 
L 375.297384 234.056871 
L 376.023356 235.967492 
L 376.749327 234.611613 
L 377.475299 224.845461 
L 378.201271 227.600418 
L 378.927242 237.473569 
L 379.653214 226.400502 
L 380.379186 227.318766 
L 381.105158 227.574109 
L 381.831129 223.837086 
L 382.557101 226.849852 
L 383.283073 220.678851 
L 384.009044 225.06044 
L 384.735016 232.148768 
L 385.460988 223.420106 
L 386.18696 228.18854 
L 386.912931 235.864397 
L 387.638903 226.258814 
L 388.364875 235.922955 
L 389.090846 229.077729 
L 389.816818 228.158318 
L 390.54279 238.115975 
L 391.268761 235.234357 
L 391.994733 228.913585 
L 392.720705 229.829354 
L 393.446677 231.602541 
L 394.172648 226.467146 
L 394.89862 226.95069 
L 395.624592 235.495307 
L 396.350563 236.243102 
L 397.076535 228.79058 
L 397.802507 229.123196 
L 398.528478 229.833232 
L 399.25445 228.370506 
L 399.980422 228.121262 
L 400.706394 232.057707 
L 401.432365 226.029808 
L 402.158337 229.924536 
L 402.884309 237.132395 
L 403.61028 225.71566 
L 404.336252 230.543554 
L 405.062224 229.076209 
L 405.788195 228.841816 
L 406.514167 227.646934 
L 407.240139 228.145857 
L 407.966111 229.369274 
L 408.692082 229.886378 
L 409.418054 239.977395 
L 410.144026 230.536902 
L 410.869997 242.799021 
L 411.595969 232.147627 
L 412.321941 232.5103 
L 413.047913 243.534961 
L 413.773884 234.220215 
L 414.499856 234.375545 
L 415.225828 236.668632 
L 415.951799 234.512751 
L 416.677771 233.05364 
L 417.403743 243.426875 
L 418.129714 236.465242 
L 418.855686 237.188494 
L 419.581658 246.183088 
L 420.30763 239.006625 
L 421.033601 240.443486 
L 421.759573 238.80378 
L 422.485545 247.353845 
L 423.211516 246.246348 
L 423.937488 247.796135 
L 424.66346 248.536201 
L 425.389431 248.383516 
L 426.115403 245.020672 
L 426.841375 248.417205 
L 427.567347 248.304411 
L 428.293318 249.345789 
L 429.01929 246.085678 
L 429.745262 249.165864 
L 430.471233 246.23572 
L 431.197205 248.743367 
L 431.923177 244.703855 
L 432.649148 244.655989 
L 433.37512 243.707706 
L 434.101092 248.11036 
L 434.827064 247.666632 
L 435.553035 247.074772 
L 436.279007 244.315825 
L 437.004979 246.961623 
L 437.73095 244.253287 
L 438.456922 245.983664 
L 439.182894 243.445636 
L 439.908866 246.304574 
L 440.634837 245.149614 
L 441.360809 245.309752 
L 442.086781 246.02406 
L 442.812752 242.948016 
L 443.538724 244.949827 
L 444.264696 241.70577 
L 444.990667 242.582189 
L 445.716639 239.109329 
L 446.442611 242.234695 
L 447.168583 238.63593 
L 447.894554 238.560948 
L 448.620526 240.70391 
L 449.346498 240.884036 
L 450.072469 240.845821 
L 450.798441 238.793183 
L 451.524413 239.320259 
L 452.250384 238.266866 
L 452.976356 235.642874 
L 453.702328 236.401726 
L 454.4283 234.870931 
L 455.154271 234.02435 
L 455.880243 232.996596 
L 456.606215 234.077942 
L 457.332186 234.378185 
L 458.058158 232.052546 
L 458.78413 230.483056 
L 459.510101 232.035498 
L 460.236073 231.545385 
L 460.962045 231.922607 
L 461.688017 229.506776 
L 462.413988 229.278239 
L 463.13996 230.314843 
L 463.865932 230.269627 
L 464.591903 230.60722 
L 464.591903 230.60722 
" style="fill:none;stroke:#1f77b4;stroke-linecap:square;stroke-width:1.5;"/>
   </g>
   <g id="line2d_2">
    <path clip-path="url(#p298da69fb5)" d="M 58.773722 235.538489 
L 464.591903 235.538489 
L 464.591903 235.538489 
" style="fill:none;stroke:#000000;stroke-dasharray:3.7,1.6;stroke-dashoffset:0;"/>
   </g>
   <g id="matplotlib.axis_1">
    <g id="xtick_1">
     <g id="line2d_3">
      <defs>
       <path d="M 0 0 
L 0 3.5 
" id="m49d58a3fba" style="stroke:#000000;stroke-width:0.8;"/>
      </defs>
      <g>
       <use style="stroke:#000000;stroke-width:0.8;" x="79.826901" xlink:href="#m49d58a3fba" y="294.118125"/>
      </g>
     </g>
     <g id="text_1">
      <!-- 100 -->
      <defs>
       <path d="M 12.40625 8.296875 
L 28.515625 8.296875 
L 28.515625 63.921875 
L 10.984375 60.40625 
L 10.984375 69.390625 
L 28.421875 72.90625 
L 38.28125 72.90625 
L 38.28125 8.296875 
L 54.390625 8.296875 
L 54.390625 0 
L 12.40625 0 
z
" id="DejaVuSans-49"/>
       <path d="M 31.78125 66.40625 
Q 24.171875 66.40625 20.328125 58.90625 
Q 16.5 51.421875 16.5 36.375 
Q 16.5 21.390625 20.328125 13.890625 
Q 24.171875 6.390625 31.78125 6.390625 
Q 39.453125 6.390625 43.28125 13.890625 
Q 47.125 21.390625 47.125 36.375 
Q 47.125 51.421875 43.28125 58.90625 
Q 39.453125 66.40625 31.78125 66.40625 
z
M 31.78125 74.21875 
Q 44.046875 74.21875 50.515625 64.515625 
Q 56.984375 54.828125 56.984375 36.375 
Q 56.984375 17.96875 50.515625 8.265625 
Q 44.046875 -1.421875 31.78125 -1.421875 
Q 19.53125 -1.421875 13.0625 8.265625 
Q 6.59375 17.96875 6.59375 36.375 
Q 6.59375 54.828125 13.0625 64.515625 
Q 19.53125 74.21875 31.78125 74.21875 
z
" id="DejaVuSans-48"/>
      </defs>
      <g transform="translate(70.283151 308.716563)scale(0.1 -0.1)">
       <use xlink:href="#DejaVuSans-49"/>
       <use x="63.623047" xlink:href="#DejaVuSans-48"/>
       <use x="127.246094" xlink:href="#DejaVuSans-48"/>
      </g>
     </g>
    </g>
    <g id="xtick_2">
     <g id="line2d_4">
      <g>
       <use style="stroke:#000000;stroke-width:0.8;" x="152.424071" xlink:href="#m49d58a3fba" y="294.118125"/>
      </g>
     </g>
     <g id="text_2">
      <!-- 200 -->
      <defs>
       <path d="M 19.1875 8.296875 
L 53.609375 8.296875 
L 53.609375 0 
L 7.328125 0 
L 7.328125 8.296875 
Q 12.9375 14.109375 22.625 23.890625 
Q 32.328125 33.6875 34.8125 36.53125 
Q 39.546875 41.84375 41.421875 45.53125 
Q 43.3125 49.21875 43.3125 52.78125 
Q 43.3125 58.59375 39.234375 62.25 
Q 35.15625 65.921875 28.609375 65.921875 
Q 23.96875 65.921875 18.8125 64.3125 
Q 13.671875 62.703125 7.8125 59.421875 
L 7.8125 69.390625 
Q 13.765625 71.78125 18.9375 73 
Q 24.125 74.21875 28.421875 74.21875 
Q 39.75 74.21875 46.484375 68.546875 
Q 53.21875 62.890625 53.21875 53.421875 
Q 53.21875 48.921875 51.53125 44.890625 
Q 49.859375 40.875 45.40625 35.40625 
Q 44.1875 33.984375 37.640625 27.21875 
Q 31.109375 20.453125 19.1875 8.296875 
z
" id="DejaVuSans-50"/>
      </defs>
      <g transform="translate(142.880321 308.716563)scale(0.1 -0.1)">
       <use xlink:href="#DejaVuSans-50"/>
       <use x="63.623047" xlink:href="#DejaVuSans-48"/>
       <use x="127.246094" xlink:href="#DejaVuSans-48"/>
      </g>
     </g>
    </g>
    <g id="xtick_3">
     <g id="line2d_5">
      <g>
       <use style="stroke:#000000;stroke-width:0.8;" x="225.021242" xlink:href="#m49d58a3fba" y="294.118125"/>
      </g>
     </g>
     <g id="text_3">
      <!-- 300 -->
      <defs>
       <path d="M 40.578125 39.3125 
Q 47.65625 37.796875 51.625 33 
Q 55.609375 28.21875 55.609375 21.1875 
Q 55.609375 10.40625 48.1875 4.484375 
Q 40.765625 -1.421875 27.09375 -1.421875 
Q 22.515625 -1.421875 17.65625 -0.515625 
Q 12.796875 0.390625 7.625 2.203125 
L 7.625 11.71875 
Q 11.71875 9.328125 16.59375 8.109375 
Q 21.484375 6.890625 26.8125 6.890625 
Q 36.078125 6.890625 40.9375 10.546875 
Q 45.796875 14.203125 45.796875 21.1875 
Q 45.796875 27.640625 41.28125 31.265625 
Q 36.765625 34.90625 28.71875 34.90625 
L 20.21875 34.90625 
L 20.21875 43.015625 
L 29.109375 43.015625 
Q 36.375 43.015625 40.234375 45.921875 
Q 44.09375 48.828125 44.09375 54.296875 
Q 44.09375 59.90625 40.109375 62.90625 
Q 36.140625 65.921875 28.71875 65.921875 
Q 24.65625 65.921875 20.015625 65.03125 
Q 15.375 64.15625 9.8125 62.3125 
L 9.8125 71.09375 
Q 15.4375 72.65625 20.34375 73.4375 
Q 25.25 74.21875 29.59375 74.21875 
Q 40.828125 74.21875 47.359375 69.109375 
Q 53.90625 64.015625 53.90625 55.328125 
Q 53.90625 49.265625 50.4375 45.09375 
Q 46.96875 40.921875 40.578125 39.3125 
z
" id="DejaVuSans-51"/>
      </defs>
      <g transform="translate(215.477492 308.716563)scale(0.1 -0.1)">
       <use xlink:href="#DejaVuSans-51"/>
       <use x="63.623047" xlink:href="#DejaVuSans-48"/>
       <use x="127.246094" xlink:href="#DejaVuSans-48"/>
      </g>
     </g>
    </g>
    <g id="xtick_4">
     <g id="line2d_6">
      <g>
       <use style="stroke:#000000;stroke-width:0.8;" x="297.618412" xlink:href="#m49d58a3fba" y="294.118125"/>
      </g>
     </g>
     <g id="text_4">
      <!-- 400 -->
      <defs>
       <path d="M 37.796875 64.3125 
L 12.890625 25.390625 
L 37.796875 25.390625 
z
M 35.203125 72.90625 
L 47.609375 72.90625 
L 47.609375 25.390625 
L 58.015625 25.390625 
L 58.015625 17.1875 
L 47.609375 17.1875 
L 47.609375 0 
L 37.796875 0 
L 37.796875 17.1875 
L 4.890625 17.1875 
L 4.890625 26.703125 
z
" id="DejaVuSans-52"/>
      </defs>
      <g transform="translate(288.074662 308.716563)scale(0.1 -0.1)">
       <use xlink:href="#DejaVuSans-52"/>
       <use x="63.623047" xlink:href="#DejaVuSans-48"/>
       <use x="127.246094" xlink:href="#DejaVuSans-48"/>
      </g>
     </g>
    </g>
    <g id="xtick_5">
     <g id="line2d_7">
      <g>
       <use style="stroke:#000000;stroke-width:0.8;" x="370.215582" xlink:href="#m49d58a3fba" y="294.118125"/>
      </g>
     </g>
     <g id="text_5">
      <!-- 500 -->
      <defs>
       <path d="M 10.796875 72.90625 
L 49.515625 72.90625 
L 49.515625 64.59375 
L 19.828125 64.59375 
L 19.828125 46.734375 
Q 21.96875 47.46875 24.109375 47.828125 
Q 26.265625 48.1875 28.421875 48.1875 
Q 40.625 48.1875 47.75 41.5 
Q 54.890625 34.8125 54.890625 23.390625 
Q 54.890625 11.625 47.5625 5.09375 
Q 40.234375 -1.421875 26.90625 -1.421875 
Q 22.3125 -1.421875 17.546875 -0.640625 
Q 12.796875 0.140625 7.71875 1.703125 
L 7.71875 11.625 
Q 12.109375 9.234375 16.796875 8.0625 
Q 21.484375 6.890625 26.703125 6.890625 
Q 35.15625 6.890625 40.078125 11.328125 
Q 45.015625 15.765625 45.015625 23.390625 
Q 45.015625 31 40.078125 35.4375 
Q 35.15625 39.890625 26.703125 39.890625 
Q 22.75 39.890625 18.8125 39.015625 
Q 14.890625 38.140625 10.796875 36.28125 
z
" id="DejaVuSans-53"/>
      </defs>
      <g transform="translate(360.671832 308.716563)scale(0.1 -0.1)">
       <use xlink:href="#DejaVuSans-53"/>
       <use x="63.623047" xlink:href="#DejaVuSans-48"/>
       <use x="127.246094" xlink:href="#DejaVuSans-48"/>
      </g>
     </g>
    </g>
    <g id="xtick_6">
     <g id="line2d_8">
      <g>
       <use style="stroke:#000000;stroke-width:0.8;" x="442.812752" xlink:href="#m49d58a3fba" y="294.118125"/>
      </g>
     </g>
     <g id="text_6">
      <!-- 600 -->
      <defs>
       <path d="M 33.015625 40.375 
Q 26.375 40.375 22.484375 35.828125 
Q 18.609375 31.296875 18.609375 23.390625 
Q 18.609375 15.53125 22.484375 10.953125 
Q 26.375 6.390625 33.015625 6.390625 
Q 39.65625 6.390625 43.53125 10.953125 
Q 47.40625 15.53125 47.40625 23.390625 
Q 47.40625 31.296875 43.53125 35.828125 
Q 39.65625 40.375 33.015625 40.375 
z
M 52.59375 71.296875 
L 52.59375 62.3125 
Q 48.875 64.0625 45.09375 64.984375 
Q 41.3125 65.921875 37.59375 65.921875 
Q 27.828125 65.921875 22.671875 59.328125 
Q 17.53125 52.734375 16.796875 39.40625 
Q 19.671875 43.65625 24.015625 45.921875 
Q 28.375 48.1875 33.59375 48.1875 
Q 44.578125 48.1875 50.953125 41.515625 
Q 57.328125 34.859375 57.328125 23.390625 
Q 57.328125 12.15625 50.6875 5.359375 
Q 44.046875 -1.421875 33.015625 -1.421875 
Q 20.359375 -1.421875 13.671875 8.265625 
Q 6.984375 17.96875 6.984375 36.375 
Q 6.984375 53.65625 15.1875 63.9375 
Q 23.390625 74.21875 37.203125 74.21875 
Q 40.921875 74.21875 44.703125 73.484375 
Q 48.484375 72.75 52.59375 71.296875 
z
" id="DejaVuSans-54"/>
      </defs>
      <g transform="translate(433.269002 308.716563)scale(0.1 -0.1)">
       <use xlink:href="#DejaVuSans-54"/>
       <use x="63.623047" xlink:href="#DejaVuSans-48"/>
       <use x="127.246094" xlink:href="#DejaVuSans-48"/>
      </g>
     </g>
    </g>
    <g id="text_7">
     <!-- Tempo -->
     <defs>
      <path d="M -0.296875 72.90625 
L 61.375 72.90625 
L 61.375 64.59375 
L 35.5 64.59375 
L 35.5 0 
L 25.59375 0 
L 25.59375 64.59375 
L -0.296875 64.59375 
z
" id="DejaVuSans-84"/>
      <path d="M 56.203125 29.59375 
L 56.203125 25.203125 
L 14.890625 25.203125 
Q 15.484375 15.921875 20.484375 11.0625 
Q 25.484375 6.203125 34.421875 6.203125 
Q 39.59375 6.203125 44.453125 7.46875 
Q 49.3125 8.734375 54.109375 11.28125 
L 54.109375 2.78125 
Q 49.265625 0.734375 44.1875 -0.34375 
Q 39.109375 -1.421875 33.890625 -1.421875 
Q 20.796875 -1.421875 13.15625 6.1875 
Q 5.515625 13.8125 5.515625 26.8125 
Q 5.515625 40.234375 12.765625 48.109375 
Q 20.015625 56 32.328125 56 
Q 43.359375 56 49.78125 48.890625 
Q 56.203125 41.796875 56.203125 29.59375 
z
M 47.21875 32.234375 
Q 47.125 39.59375 43.09375 43.984375 
Q 39.0625 48.390625 32.421875 48.390625 
Q 24.90625 48.390625 20.390625 44.140625 
Q 15.875 39.890625 15.1875 32.171875 
z
" id="DejaVuSans-101"/>
      <path d="M 52 44.1875 
Q 55.375 50.25 60.0625 53.125 
Q 64.75 56 71.09375 56 
Q 79.640625 56 84.28125 50.015625 
Q 88.921875 44.046875 88.921875 33.015625 
L 88.921875 0 
L 79.890625 0 
L 79.890625 32.71875 
Q 79.890625 40.578125 77.09375 44.375 
Q 74.3125 48.1875 68.609375 48.1875 
Q 61.625 48.1875 57.5625 43.546875 
Q 53.515625 38.921875 53.515625 30.90625 
L 53.515625 0 
L 44.484375 0 
L 44.484375 32.71875 
Q 44.484375 40.625 41.703125 44.40625 
Q 38.921875 48.1875 33.109375 48.1875 
Q 26.21875 48.1875 22.15625 43.53125 
Q 18.109375 38.875 18.109375 30.90625 
L 18.109375 0 
L 9.078125 0 
L 9.078125 54.6875 
L 18.109375 54.6875 
L 18.109375 46.1875 
Q 21.1875 51.21875 25.484375 53.609375 
Q 29.78125 56 35.6875 56 
Q 41.65625 56 45.828125 52.96875 
Q 50 49.953125 52 44.1875 
z
" id="DejaVuSans-109"/>
      <path d="M 18.109375 8.203125 
L 18.109375 -20.796875 
L 9.078125 -20.796875 
L 9.078125 54.6875 
L 18.109375 54.6875 
L 18.109375 46.390625 
Q 20.953125 51.265625 25.265625 53.625 
Q 29.59375 56 35.59375 56 
Q 45.5625 56 51.78125 48.09375 
Q 58.015625 40.1875 58.015625 27.296875 
Q 58.015625 14.40625 51.78125 6.484375 
Q 45.5625 -1.421875 35.59375 -1.421875 
Q 29.59375 -1.421875 25.265625 0.953125 
Q 20.953125 3.328125 18.109375 8.203125 
z
M 48.6875 27.296875 
Q 48.6875 37.203125 44.609375 42.84375 
Q 40.53125 48.484375 33.40625 48.484375 
Q 26.265625 48.484375 22.1875 42.84375 
Q 18.109375 37.203125 18.109375 27.296875 
Q 18.109375 17.390625 22.1875 11.75 
Q 26.265625 6.109375 33.40625 6.109375 
Q 40.53125 6.109375 44.609375 11.75 
Q 48.6875 17.390625 48.6875 27.296875 
z
" id="DejaVuSans-112"/>
      <path d="M 30.609375 48.390625 
Q 23.390625 48.390625 19.1875 42.75 
Q 14.984375 37.109375 14.984375 27.296875 
Q 14.984375 17.484375 19.15625 11.84375 
Q 23.34375 6.203125 30.609375 6.203125 
Q 37.796875 6.203125 41.984375 11.859375 
Q 46.1875 17.53125 46.1875 27.296875 
Q 46.1875 37.015625 41.984375 42.703125 
Q 37.796875 48.390625 30.609375 48.390625 
z
M 30.609375 56 
Q 42.328125 56 49.015625 48.375 
Q 55.71875 40.765625 55.71875 27.296875 
Q 55.71875 13.875 49.015625 6.21875 
Q 42.328125 -1.421875 30.609375 -1.421875 
Q 18.84375 -1.421875 12.171875 6.21875 
Q 5.515625 13.875 5.515625 27.296875 
Q 5.515625 40.765625 12.171875 48.375 
Q 18.84375 56 30.609375 56 
z
" id="DejaVuSans-111"/>
     </defs>
     <g transform="translate(245.298438 322.394687)scale(0.1 -0.1)">
      <use xlink:href="#DejaVuSans-84"/>
      <use x="44.083984" xlink:href="#DejaVuSans-101"/>
      <use x="105.607422" xlink:href="#DejaVuSans-109"/>
      <use x="203.019531" xlink:href="#DejaVuSans-112"/>
      <use x="266.496094" xlink:href="#DejaVuSans-111"/>
     </g>
    </g>
   </g>
   <g id="matplotlib.axis_2">
    <g id="ytick_1">
     <g id="line2d_9">
      <defs>
       <path d="M 0 0 
L -3.5 0 
" id="m40b8888683" style="stroke:#000000;stroke-width:0.8;"/>
      </defs>
      <g>
       <use style="stroke:#000000;stroke-width:0.8;" x="38.482813" xlink:href="#m40b8888683" y="268.595228"/>
      </g>
     </g>
     <g id="text_8">
      <!-- −0.5 -->
      <defs>
       <path d="M 10.59375 35.5 
L 73.1875 35.5 
L 73.1875 27.203125 
L 10.59375 27.203125 
z
" id="DejaVuSans-8722"/>
       <path d="M 10.6875 12.40625 
L 21 12.40625 
L 21 0 
L 10.6875 0 
z
" id="DejaVuSans-46"/>
      </defs>
      <g transform="translate(7.2 272.394447)scale(0.1 -0.1)">
       <use xlink:href="#DejaVuSans-8722"/>
       <use x="83.789062" xlink:href="#DejaVuSans-48"/>
       <use x="147.412109" xlink:href="#DejaVuSans-46"/>
       <use x="179.199219" xlink:href="#DejaVuSans-53"/>
      </g>
     </g>
    </g>
    <g id="ytick_2">
     <g id="line2d_10">
      <g>
       <use style="stroke:#000000;stroke-width:0.8;" x="38.482813" xlink:href="#m40b8888683" y="235.538489"/>
      </g>
     </g>
     <g id="text_9">
      <!-- 0.0 -->
      <g transform="translate(15.579688 239.337708)scale(0.1 -0.1)">
       <use xlink:href="#DejaVuSans-48"/>
       <use x="63.623047" xlink:href="#DejaVuSans-46"/>
       <use x="95.410156" xlink:href="#DejaVuSans-48"/>
      </g>
     </g>
    </g>
    <g id="ytick_3">
     <g id="line2d_11">
      <g>
       <use style="stroke:#000000;stroke-width:0.8;" x="38.482813" xlink:href="#m40b8888683" y="202.48175"/>
      </g>
     </g>
     <g id="text_10">
      <!-- 0.5 -->
      <g transform="translate(15.579688 206.280968)scale(0.1 -0.1)">
       <use xlink:href="#DejaVuSans-48"/>
       <use x="63.623047" xlink:href="#DejaVuSans-46"/>
       <use x="95.410156" xlink:href="#DejaVuSans-53"/>
      </g>
     </g>
    </g>
    <g id="ytick_4">
     <g id="line2d_12">
      <g>
       <use style="stroke:#000000;stroke-width:0.8;" x="38.482813" xlink:href="#m40b8888683" y="169.42501"/>
      </g>
     </g>
     <g id="text_11">
      <!-- 1.0 -->
      <g transform="translate(15.579688 173.224229)scale(0.1 -0.1)">
       <use xlink:href="#DejaVuSans-49"/>
       <use x="63.623047" xlink:href="#DejaVuSans-46"/>
       <use x="95.410156" xlink:href="#DejaVuSans-48"/>
      </g>
     </g>
    </g>
    <g id="ytick_5">
     <g id="line2d_13">
      <g>
       <use style="stroke:#000000;stroke-width:0.8;" x="38.482813" xlink:href="#m40b8888683" y="136.368271"/>
      </g>
     </g>
     <g id="text_12">
      <!-- 1.5 -->
      <g transform="translate(15.579688 140.16749)scale(0.1 -0.1)">
       <use xlink:href="#DejaVuSans-49"/>
       <use x="63.623047" xlink:href="#DejaVuSans-46"/>
       <use x="95.410156" xlink:href="#DejaVuSans-53"/>
      </g>
     </g>
    </g>
    <g id="ytick_6">
     <g id="line2d_14">
      <g>
       <use style="stroke:#000000;stroke-width:0.8;" x="38.482813" xlink:href="#m40b8888683" y="103.311532"/>
      </g>
     </g>
     <g id="text_13">
      <!-- 2.0 -->
      <g transform="translate(15.579688 107.11075)scale(0.1 -0.1)">
       <use xlink:href="#DejaVuSans-50"/>
       <use x="63.623047" xlink:href="#DejaVuSans-46"/>
       <use x="95.410156" xlink:href="#DejaVuSans-48"/>
      </g>
     </g>
    </g>
    <g id="ytick_7">
     <g id="line2d_15">
      <g>
       <use style="stroke:#000000;stroke-width:0.8;" x="38.482813" xlink:href="#m40b8888683" y="70.254792"/>
      </g>
     </g>
     <g id="text_14">
      <!-- 2.5 -->
      <g transform="translate(15.579688 74.054011)scale(0.1 -0.1)">
       <use xlink:href="#DejaVuSans-50"/>
       <use x="63.623047" xlink:href="#DejaVuSans-46"/>
       <use x="95.410156" xlink:href="#DejaVuSans-53"/>
      </g>
     </g>
    </g>
    <g id="ytick_8">
     <g id="line2d_16">
      <g>
       <use style="stroke:#000000;stroke-width:0.8;" x="38.482813" xlink:href="#m40b8888683" y="37.198053"/>
      </g>
     </g>
     <g id="text_15">
      <!-- 3.0 -->
      <g transform="translate(15.579688 40.997272)scale(0.1 -0.1)">
       <use xlink:href="#DejaVuSans-51"/>
       <use x="63.623047" xlink:href="#DejaVuSans-46"/>
       <use x="95.410156" xlink:href="#DejaVuSans-48"/>
      </g>
     </g>
    </g>
   </g>
   <g id="patch_3">
    <path d="M 38.482813 294.118125 
L 38.482813 22.318125 
" style="fill:none;stroke:#000000;stroke-linecap:square;stroke-linejoin:miter;stroke-width:0.8;"/>
   </g>
   <g id="patch_4">
    <path d="M 38.482813 294.118125 
L 484.882812 294.118125 
" style="fill:none;stroke:#000000;stroke-linecap:square;stroke-linejoin:miter;stroke-width:0.8;"/>
   </g>
   <g id="text_16">
    <!-- r -->
    <defs>
     <path d="M 41.109375 46.296875 
Q 39.59375 47.171875 37.8125 47.578125 
Q 36.03125 48 33.890625 48 
Q 26.265625 48 22.1875 43.046875 
Q 18.109375 38.09375 18.109375 28.8125 
L 18.109375 0 
L 9.078125 0 
L 9.078125 54.6875 
L 18.109375 54.6875 
L 18.109375 46.1875 
Q 20.953125 51.171875 25.484375 53.578125 
Q 30.03125 56 36.53125 56 
Q 37.453125 56 38.578125 55.875 
Q 39.703125 55.765625 41.0625 55.515625 
z
" id="DejaVuSans-114"/>
    </defs>
    <g transform="translate(259.21625 16.318125)scale(0.12 -0.12)">
     <use xlink:href="#DejaVuSans-114"/>
    </g>
   </g>
   <g id="legend_1">
    <g id="patch_5">
     <path d="M 491.882812 174.457188 
L 583.782812 174.457188 
Q 585.782812 174.457188 585.782812 172.457188 
L 585.782812 143.979063 
Q 585.782812 141.979063 583.782812 141.979063 
L 491.882812 141.979063 
Q 489.882812 141.979063 489.882812 143.979063 
L 489.882812 172.457188 
Q 489.882812 174.457188 491.882812 174.457188 
z
" style="fill:#ffffff;opacity:0.8;stroke:#cccccc;stroke-linejoin:miter;"/>
    </g>
    <g id="line2d_17">
     <path d="M 493.882812 150.0775 
L 513.882812 150.0775 
" style="fill:none;stroke:#000000;stroke-dasharray:3.7,1.6;stroke-dashoffset:0;"/>
    </g>
    <g id="line2d_18"/>
    <g id="text_17">
     <!-- Baseline -->
     <defs>
      <path d="M 19.671875 34.8125 
L 19.671875 8.109375 
L 35.5 8.109375 
Q 43.453125 8.109375 47.28125 11.40625 
Q 51.125 14.703125 51.125 21.484375 
Q 51.125 28.328125 47.28125 31.5625 
Q 43.453125 34.8125 35.5 34.8125 
z
M 19.671875 64.796875 
L 19.671875 42.828125 
L 34.28125 42.828125 
Q 41.5 42.828125 45.03125 45.53125 
Q 48.578125 48.25 48.578125 53.8125 
Q 48.578125 59.328125 45.03125 62.0625 
Q 41.5 64.796875 34.28125 64.796875 
z
M 9.8125 72.90625 
L 35.015625 72.90625 
Q 46.296875 72.90625 52.390625 68.21875 
Q 58.5 63.53125 58.5 54.890625 
Q 58.5 48.1875 55.375 44.234375 
Q 52.25 40.28125 46.1875 39.3125 
Q 53.46875 37.75 57.5 32.78125 
Q 61.53125 27.828125 61.53125 20.40625 
Q 61.53125 10.640625 54.890625 5.3125 
Q 48.25 0 35.984375 0 
L 9.8125 0 
z
" id="DejaVuSans-66"/>
      <path d="M 34.28125 27.484375 
Q 23.390625 27.484375 19.1875 25 
Q 14.984375 22.515625 14.984375 16.5 
Q 14.984375 11.71875 18.140625 8.90625 
Q 21.296875 6.109375 26.703125 6.109375 
Q 34.1875 6.109375 38.703125 11.40625 
Q 43.21875 16.703125 43.21875 25.484375 
L 43.21875 27.484375 
z
M 52.203125 31.203125 
L 52.203125 0 
L 43.21875 0 
L 43.21875 8.296875 
Q 40.140625 3.328125 35.546875 0.953125 
Q 30.953125 -1.421875 24.3125 -1.421875 
Q 15.921875 -1.421875 10.953125 3.296875 
Q 6 8.015625 6 15.921875 
Q 6 25.140625 12.171875 29.828125 
Q 18.359375 34.515625 30.609375 34.515625 
L 43.21875 34.515625 
L 43.21875 35.40625 
Q 43.21875 41.609375 39.140625 45 
Q 35.0625 48.390625 27.6875 48.390625 
Q 23 48.390625 18.546875 47.265625 
Q 14.109375 46.140625 10.015625 43.890625 
L 10.015625 52.203125 
Q 14.9375 54.109375 19.578125 55.046875 
Q 24.21875 56 28.609375 56 
Q 40.484375 56 46.34375 49.84375 
Q 52.203125 43.703125 52.203125 31.203125 
z
" id="DejaVuSans-97"/>
      <path d="M 44.28125 53.078125 
L 44.28125 44.578125 
Q 40.484375 46.53125 36.375 47.5 
Q 32.28125 48.484375 27.875 48.484375 
Q 21.1875 48.484375 17.84375 46.4375 
Q 14.5 44.390625 14.5 40.28125 
Q 14.5 37.15625 16.890625 35.375 
Q 19.28125 33.59375 26.515625 31.984375 
L 29.59375 31.296875 
Q 39.15625 29.25 43.1875 25.515625 
Q 47.21875 21.78125 47.21875 15.09375 
Q 47.21875 7.46875 41.1875 3.015625 
Q 35.15625 -1.421875 24.609375 -1.421875 
Q 20.21875 -1.421875 15.453125 -0.5625 
Q 10.6875 0.296875 5.421875 2 
L 5.421875 11.28125 
Q 10.40625 8.6875 15.234375 7.390625 
Q 20.0625 6.109375 24.8125 6.109375 
Q 31.15625 6.109375 34.5625 8.28125 
Q 37.984375 10.453125 37.984375 14.40625 
Q 37.984375 18.0625 35.515625 20.015625 
Q 33.0625 21.96875 24.703125 23.78125 
L 21.578125 24.515625 
Q 13.234375 26.265625 9.515625 29.90625 
Q 5.8125 33.546875 5.8125 39.890625 
Q 5.8125 47.609375 11.28125 51.796875 
Q 16.75 56 26.8125 56 
Q 31.78125 56 36.171875 55.265625 
Q 40.578125 54.546875 44.28125 53.078125 
z
" id="DejaVuSans-115"/>
      <path d="M 9.421875 75.984375 
L 18.40625 75.984375 
L 18.40625 0 
L 9.421875 0 
z
" id="DejaVuSans-108"/>
      <path d="M 9.421875 54.6875 
L 18.40625 54.6875 
L 18.40625 0 
L 9.421875 0 
z
M 9.421875 75.984375 
L 18.40625 75.984375 
L 18.40625 64.59375 
L 9.421875 64.59375 
z
" id="DejaVuSans-105"/>
      <path d="M 54.890625 33.015625 
L 54.890625 0 
L 45.90625 0 
L 45.90625 32.71875 
Q 45.90625 40.484375 42.875 44.328125 
Q 39.84375 48.1875 33.796875 48.1875 
Q 26.515625 48.1875 22.3125 43.546875 
Q 18.109375 38.921875 18.109375 30.90625 
L 18.109375 0 
L 9.078125 0 
L 9.078125 54.6875 
L 18.109375 54.6875 
L 18.109375 46.1875 
Q 21.34375 51.125 25.703125 53.5625 
Q 30.078125 56 35.796875 56 
Q 45.21875 56 50.046875 50.171875 
Q 54.890625 44.34375 54.890625 33.015625 
z
" id="DejaVuSans-110"/>
     </defs>
     <g transform="translate(521.882812 153.5775)scale(0.1 -0.1)">
      <use xlink:href="#DejaVuSans-66"/>
      <use x="68.603516" xlink:href="#DejaVuSans-97"/>
      <use x="129.882812" xlink:href="#DejaVuSans-115"/>
      <use x="181.982422" xlink:href="#DejaVuSans-101"/>
      <use x="243.505859" xlink:href="#DejaVuSans-108"/>
      <use x="271.289062" xlink:href="#DejaVuSans-105"/>
      <use x="299.072266" xlink:href="#DejaVuSans-110"/>
      <use x="362.451172" xlink:href="#DejaVuSans-101"/>
     </g>
    </g>
    <g id="line2d_19">
     <path d="M 493.882812 164.857188 
L 513.882812 164.857188 
" style="fill:none;stroke:#1f77b4;stroke-linecap:square;stroke-width:1.5;"/>
    </g>
    <g id="line2d_20"/>
    <g id="text_18">
     <!-- $\Uparrow \beta$ (shape) -->
     <defs>
      <path d="M 36.765625 58.59375 
L 36.765625 0 
L 30.90625 0 
L 30.90625 52.734375 
L 26.421875 48.140625 
L 20.5625 54 
L 39.703125 73.25 
L 44.09375 73.25 
L 63.328125 54 
L 57.46875 48.140625 
L 52.875 52.734375 
L 52.875 0 
L 47.015625 0 
L 47.015625 58.59375 
L 41.9375 63.671875 
z
" id="DejaVuSans-8657"/>
      <path d="M 13.625 3.375 
L 8.9375 -20.796875 
L -0.09375 -20.796875 
L 14.5 54.34375 
Q 18.84375 76.609375 39.65625 76.609375 
Q 60.75 76.609375 57.171875 57.8125 
Q 54.734375 44.4375 45.21875 39.546875 
Q 58.015625 35.15625 55.515625 22.125 
Q 51.125 -1.078125 27.484375 -1.03125 
Q 17.140625 -0.984375 13.625 3.375 
z
M 15.921875 15.09375 
Q 19.671875 6.59375 29.296875 6.640625 
Q 43.359375 6.640625 46.34375 21.96875 
Q 49.03125 35.75 26.171875 34.671875 
L 27.78125 42.96875 
Q 45.453125 42.671875 48.53125 58.59375 
Q 50.640625 69.34375 39.203125 69.28125 
Q 26.421875 69.28125 23.484375 54.046875 
z
" id="DejaVuSans-Oblique-946"/>
      <path id="DejaVuSans-32"/>
      <path d="M 31 75.875 
Q 24.46875 64.65625 21.28125 53.65625 
Q 18.109375 42.671875 18.109375 31.390625 
Q 18.109375 20.125 21.3125 9.0625 
Q 24.515625 -2 31 -13.1875 
L 23.1875 -13.1875 
Q 15.875 -1.703125 12.234375 9.375 
Q 8.59375 20.453125 8.59375 31.390625 
Q 8.59375 42.28125 12.203125 53.3125 
Q 15.828125 64.359375 23.1875 75.875 
z
" id="DejaVuSans-40"/>
      <path d="M 54.890625 33.015625 
L 54.890625 0 
L 45.90625 0 
L 45.90625 32.71875 
Q 45.90625 40.484375 42.875 44.328125 
Q 39.84375 48.1875 33.796875 48.1875 
Q 26.515625 48.1875 22.3125 43.546875 
Q 18.109375 38.921875 18.109375 30.90625 
L 18.109375 0 
L 9.078125 0 
L 9.078125 75.984375 
L 18.109375 75.984375 
L 18.109375 46.1875 
Q 21.34375 51.125 25.703125 53.5625 
Q 30.078125 56 35.796875 56 
Q 45.21875 56 50.046875 50.171875 
Q 54.890625 44.34375 54.890625 33.015625 
z
" id="DejaVuSans-104"/>
      <path d="M 8.015625 75.875 
L 15.828125 75.875 
Q 23.140625 64.359375 26.78125 53.3125 
Q 30.421875 42.28125 30.421875 31.390625 
Q 30.421875 20.453125 26.78125 9.375 
Q 23.140625 -1.703125 15.828125 -13.1875 
L 8.015625 -13.1875 
Q 14.5 -2 17.703125 9.0625 
Q 20.90625 20.125 20.90625 31.390625 
Q 20.90625 42.671875 17.703125 53.65625 
Q 14.5 64.65625 8.015625 75.875 
z
" id="DejaVuSans-41"/>
     </defs>
     <g transform="translate(521.882812 168.357188)scale(0.1 -0.1)">
      <use transform="translate(19.482422 0.390625)" xlink:href="#DejaVuSans-8657"/>
      <use transform="translate(122.753906 0.390625)" xlink:href="#DejaVuSans-Oblique-946"/>
      <use transform="translate(186.572266 0.390625)" xlink:href="#DejaVuSans-32"/>
      <use transform="translate(218.359375 0.390625)" xlink:href="#DejaVuSans-40"/>
      <use transform="translate(257.373047 0.390625)" xlink:href="#DejaVuSans-115"/>
      <use transform="translate(309.472656 0.390625)" xlink:href="#DejaVuSans-104"/>
      <use transform="translate(372.851562 0.390625)" xlink:href="#DejaVuSans-97"/>
      <use transform="translate(434.130859 0.390625)" xlink:href="#DejaVuSans-112"/>
      <use transform="translate(497.607422 0.390625)" xlink:href="#DejaVuSans-101"/>
      <use transform="translate(559.130859 0.390625)" xlink:href="#DejaVuSans-41"/>
     </g>
    </g>
   </g>
  </g>
 </g>
 <defs>
  <clipPath id="p298da69fb5">
   <rect height="271.8" width="446.4" x="38.482813" y="22.318125"/>
  </clipPath>
 </defs>
</svg>
