<?xml version="1.0" encoding="utf-8" standalone="no"?>
<!DOCTYPE svg PUBLIC "-//W3C//DTD SVG 1.1//EN"
  "http://www.w3.org/Graphics/SVG/1.1/DTD/svg11.dtd">
<!-- Created with matplotlib (https://matplotlib.org/) -->
<svg height="331.340625pt" version="1.1" viewBox="0 0 590.965625 331.340625" width="590.965625pt" xmlns="http://www.w3.org/2000/svg" xmlns:xlink="http://www.w3.org/1999/xlink">
 <defs>
  <style type="text/css">
*{stroke-linecap:butt;stroke-linejoin:round;}
  </style>
 </defs>
 <g id="figure_1">
  <g id="patch_1">
   <path d="M 0 331.340625 
L 590.965625 331.340625 
L 590.965625 0 
L 0 0 
z
" style="fill:#ffffff;"/>
  </g>
  <g id="axes_1">
   <g id="patch_2">
    <path d="M 36.465625 293.784375 
L 482.865625 293.784375 
L 482.865625 21.984375 
L 36.465625 21.984375 
z
" style="fill:#ffffff;"/>
   </g>
   <g id="line2d_1">
    <path clip-path="url(#p7b23dffd7b)" d="M 56.756534 281.42983 
L 57.482506 269.519976 
L 58.208477 277.196529 
L 58.934449 279.28882 
L 59.660421 271.502438 
L 60.386393 272.585205 
L 61.112364 272.157823 
L 61.838336 273.331128 
L 62.564308 268.2625 
L 63.290279 270.018812 
L 64.016251 269.749109 
L 64.742223 265.289548 
L 65.468195 266.475129 
L 66.194166 267.339885 
L 66.920138 262.508533 
L 67.64611 259.703037 
L 68.372081 249.104382 
L 69.098053 255.673999 
L 69.824025 259.515924 
L 70.549996 256.058935 
L 71.275968 249.741077 
L 72.00194 254.150302 
L 72.727912 245.820137 
L 73.453883 243.428655 
L 74.179855 240.487638 
L 74.905827 246.722237 
L 75.631798 246.340069 
L 76.35777 241.314309 
L 77.083742 220.311322 
L 77.809713 240.15563 
L 78.535685 235.60065 
L 79.261657 236.830483 
L 79.987629 230.139558 
L 80.7136 218.698269 
L 81.439572 223.665152 
L 82.165544 219.371609 
L 82.891515 225.271411 
L 83.617487 218.831626 
L 84.343459 217.123218 
L 85.06943 207.986724 
L 85.795402 217.407797 
L 86.521374 209.934714 
L 87.247346 208.341101 
L 87.973317 195.483424 
L 88.699289 195.858562 
L 89.425261 206.766325 
L 90.877204 186.965475 
L 91.603176 192.197252 
L 92.329148 183.94211 
L 93.055119 162.702195 
L 93.781091 182.310652 
L 94.507063 180.276764 
L 95.233034 181.930647 
L 95.959006 177.78455 
L 96.684978 153.888476 
L 97.410949 167.604391 
L 98.136921 166.676926 
L 98.862893 166.539603 
L 100.314836 151.836074 
L 101.040808 156.485776 
L 101.76678 117.228673 
L 102.492751 142.63083 
L 103.218723 129.493035 
L 103.944695 132.739642 
L 104.670666 133.665979 
L 105.396638 120.828163 
L 106.12261 123.820097 
L 106.848582 124.289914 
L 107.574553 111.12255 
L 108.300525 107.536884 
L 109.026497 108.464104 
L 109.752468 100.549407 
L 110.47844 105.194413 
L 111.204412 74.423579 
L 111.930383 93.681996 
L 112.656355 89.012813 
L 113.382327 78.247804 
L 114.108299 64.780524 
L 114.83427 77.661728 
L 115.560242 81.246069 
L 116.286214 75.217538 
L 117.012185 57.186613 
L 117.738157 85.028421 
L 118.464129 80.915487 
L 119.190101 70.583973 
L 119.916072 72.49274 
L 120.642044 86.688551 
L 121.368016 75.64001 
L 122.093987 74.230479 
L 122.819959 34.33892 
L 123.545931 96.898108 
L 124.271902 111.67539 
L 124.997874 111.403602 
L 125.723846 127.102031 
L 126.449818 132.606539 
L 127.175789 123.808624 
L 127.901761 148.099043 
L 128.627733 161.403254 
L 129.353704 167.16671 
L 130.805648 186.214584 
L 131.531619 191.030601 
L 132.257591 199.145196 
L 132.983563 201.727168 
L 133.709535 211.400055 
L 134.435506 219.151074 
L 135.88745 230.49793 
L 136.613421 231.889655 
L 137.339393 238.328089 
L 138.065365 237.635682 
L 138.791336 245.899544 
L 140.24328 251.540006 
L 140.969252 253.59243 
L 141.695223 258.910732 
L 142.421195 261.345106 
L 143.147167 262.708545 
L 143.873138 262.310128 
L 144.59911 263.025523 
L 145.325082 269.672918 
L 146.051054 270.121319 
L 146.777025 272.088476 
L 147.502997 271.567431 
L 148.228969 273.967483 
L 148.95494 273.911391 
L 149.680912 276.146623 
L 150.406884 275.740602 
L 151.132855 271.832229 
L 151.858827 278.90881 
L 152.584799 271.033019 
L 153.310771 277.844207 
L 154.036742 277.691962 
L 154.762714 277.343839 
L 155.488686 279.298104 
L 156.214657 280.526632 
L 156.940629 276.425784 
L 157.666601 280.942719 
L 159.118544 279.406361 
L 159.844516 278.29995 
L 160.570488 278.947115 
L 161.296459 277.99962 
L 162.022431 280.923007 
L 162.748403 275.366674 
L 163.474374 279.404019 
L 164.200346 279.024994 
L 164.926318 280.625607 
L 165.652289 280.741032 
L 166.378261 278.126546 
L 167.104233 280.01045 
L 167.830205 277.495886 
L 169.282148 276.063241 
L 170.734091 272.882103 
L 171.460063 275.1762 
L 172.186035 273.918363 
L 172.912007 271.515657 
L 173.637978 274.28551 
L 174.36395 274.669353 
L 175.089922 273.141739 
L 175.815893 270.112222 
L 176.541865 271.090462 
L 177.267837 267.838146 
L 177.993808 270.973857 
L 178.71978 266.35661 
L 179.445752 265.963631 
L 180.171724 267.727123 
L 180.897695 266.369578 
L 181.623667 263.123228 
L 182.349639 265.505693 
L 183.07561 263.214832 
L 183.801582 262.338595 
L 184.527554 258.429334 
L 185.253525 263.036673 
L 185.979497 261.205658 
L 186.705469 260.431806 
L 187.431441 258.900158 
L 188.157412 252.015303 
L 188.883384 253.888084 
L 189.609356 254.261134 
L 190.335327 254.081249 
L 191.061299 252.739434 
L 191.787271 252.116351 
L 192.513242 249.357317 
L 193.965186 246.219589 
L 194.691158 248.543347 
L 195.417129 249.078408 
L 196.143101 246.111692 
L 196.869073 245.186548 
L 197.595044 241.501064 
L 198.321016 239.424882 
L 199.046988 236.201598 
L 199.77296 240.952228 
L 200.498931 238.098508 
L 201.224903 234.065763 
L 201.950875 232.016942 
L 202.676846 230.473912 
L 203.402818 220.14976 
L 204.12879 228.494711 
L 204.854761 227.460296 
L 205.580733 225.502653 
L 206.306705 226.176331 
L 207.032677 223.607548 
L 207.758648 222.820211 
L 208.48462 218.690788 
L 209.210592 216.832219 
L 209.936563 215.382273 
L 210.662535 217.55464 
L 211.388507 217.110964 
L 212.114478 218.759963 
L 212.84045 215.651223 
L 213.566422 209.194316 
L 214.292394 210.224254 
L 215.018365 207.920467 
L 215.744337 207.97727 
L 216.470309 207.828325 
L 217.19628 199.549888 
L 218.648224 204.211489 
L 219.374195 193.543991 
L 220.100167 198.155712 
L 220.826139 201.606673 
L 221.552111 200.002491 
L 222.278082 199.555705 
L 223.004054 199.784289 
L 223.730026 196.37435 
L 224.455997 194.368653 
L 225.181969 199.039976 
L 225.907941 194.496561 
L 226.633913 198.248151 
L 227.359884 196.363563 
L 228.085856 194.988096 
L 228.811828 197.923038 
L 229.537799 192.980823 
L 230.263771 198.499926 
L 230.989743 197.842385 
L 231.715714 196.382677 
L 232.441686 195.440993 
L 233.167658 202.178789 
L 233.89363 199.322814 
L 234.619601 199.256556 
L 235.345573 202.616796 
L 236.071545 203.623748 
L 236.797516 203.853577 
L 237.523488 195.623973 
L 238.24946 206.077917 
L 238.975431 210.291801 
L 239.701403 211.243488 
L 240.427375 208.885288 
L 241.153347 212.29543 
L 241.879318 209.369773 
L 242.60529 208.793917 
L 243.331262 216.481495 
L 244.057233 218.668136 
L 244.783205 212.852928 
L 245.509177 219.203193 
L 246.235148 221.074224 
L 246.96112 225.049308 
L 247.687092 227.134051 
L 248.413064 226.124505 
L 249.139035 229.726401 
L 249.865007 230.116762 
L 250.590979 232.42939 
L 251.31695 234.090273 
L 252.042922 234.669598 
L 252.768894 231.55821 
L 253.494866 236.526019 
L 254.220837 239.023761 
L 254.946809 239.136684 
L 255.672781 238.847866 
L 256.398752 239.590816 
L 257.124724 242.122849 
L 257.850696 244.2302 
L 258.576667 243.946398 
L 259.302639 245.612519 
L 260.028611 245.335522 
L 260.754583 247.246712 
L 261.480554 242.78303 
L 262.206526 245.533475 
L 262.932498 250.063167 
L 263.658469 248.407907 
L 264.384441 251.073741 
L 265.110413 252.050921 
L 265.836384 250.695798 
L 266.562356 250.315734 
L 267.288328 251.908206 
L 268.0143 252.594184 
L 268.740271 252.960965 
L 269.466243 254.758836 
L 270.192215 251.428299 
L 270.918186 253.533972 
L 271.644158 253.523731 
L 272.37013 253.228018 
L 273.096102 254.736873 
L 273.822073 254.800523 
L 274.548045 253.119917 
L 275.274017 254.784236 
L 275.999988 254.256483 
L 276.72596 254.040686 
L 277.451932 252.520802 
L 278.177903 248.613966 
L 278.903875 253.249977 
L 279.629847 253.529582 
L 280.355819 253.021646 
L 281.08179 253.927126 
L 281.807762 253.115058 
L 282.533734 253.055478 
L 283.259705 252.184295 
L 283.985677 252.304666 
L 284.711649 251.644308 
L 286.163592 251.274307 
L 286.889564 250.480297 
L 287.615536 246.404808 
L 288.341507 243.83561 
L 289.067479 247.670013 
L 289.793451 248.479516 
L 291.245394 248.044786 
L 291.971366 248.15457 
L 292.697337 246.827407 
L 293.423309 245.822861 
L 294.149281 246.026086 
L 295.601224 244.590507 
L 296.327196 244.978988 
L 297.053168 243.189461 
L 297.779139 243.615203 
L 298.505111 242.909071 
L 299.231083 242.378885 
L 299.957055 239.09384 
L 300.683026 238.86331 
L 301.408998 241.153927 
L 302.13497 239.681332 
L 302.860941 239.346144 
L 303.586913 239.374936 
L 305.038856 236.791482 
L 305.764828 235.974829 
L 306.4908 236.378708 
L 307.216772 235.313494 
L 307.942743 233.658052 
L 309.394687 233.93939 
L 310.84663 233.291272 
L 311.572602 232.750218 
L 312.298573 230.144408 
L 313.024545 227.992683 
L 313.750517 228.482977 
L 314.476489 230.151719 
L 315.20246 228.431492 
L 315.928432 228.541924 
L 316.654404 225.37515 
L 317.380375 226.876467 
L 318.106347 228.830811 
L 318.832319 227.565182 
L 319.55829 226.646196 
L 320.284262 226.018297 
L 321.010234 225.643747 
L 321.736206 222.16737 
L 322.462177 225.866288 
L 323.188149 226.027742 
L 323.914121 225.570332 
L 324.640092 224.613808 
L 325.366064 225.417552 
L 326.092036 224.465502 
L 326.818008 223.919682 
L 327.543979 224.263509 
L 328.995923 222.143366 
L 329.721894 223.71466 
L 330.447866 223.7511 
L 331.173838 224.0256 
L 331.899809 224.448575 
L 332.625781 221.831882 
L 333.351753 224.868866 
L 334.077725 225.348816 
L 334.803696 224.284253 
L 335.529668 224.854539 
L 336.25564 225.715112 
L 336.981611 225.605008 
L 337.707583 224.287258 
L 338.433555 225.782909 
L 339.159526 226.423645 
L 339.885498 226.726592 
L 340.61147 227.731316 
L 341.337442 226.92081 
L 342.063413 227.070808 
L 343.515357 228.894176 
L 344.241328 228.295958 
L 344.9673 228.443249 
L 345.693272 230.264606 
L 346.419243 229.200807 
L 347.145215 230.841781 
L 347.871187 230.058844 
L 349.32313 232.524361 
L 350.049102 232.277904 
L 350.775074 231.504079 
L 351.501045 232.893604 
L 352.227017 233.958152 
L 352.952989 233.429714 
L 353.678961 233.734959 
L 354.404932 233.183903 
L 355.130904 235.493406 
L 355.856876 235.8691 
L 356.582847 235.937806 
L 357.308819 236.79111 
L 358.034791 237.246865 
L 358.760762 236.291991 
L 359.486734 237.113023 
L 360.212706 238.253925 
L 360.938678 238.111864 
L 361.664649 238.099334 
L 362.390621 237.687131 
L 363.116593 239.307664 
L 363.842564 238.931218 
L 364.568536 239.678374 
L 366.020479 240.477648 
L 366.746451 240.421613 
L 367.472423 240.877688 
L 368.198395 240.096078 
L 368.924366 240.768808 
L 369.650338 240.989023 
L 370.37631 241.807838 
L 371.102281 240.948631 
L 371.828253 242.111284 
L 373.280196 242.112035 
L 374.006168 241.067214 
L 374.73214 241.9213 
L 376.184083 242.013675 
L 376.910055 241.993445 
L 377.636027 242.139317 
L 378.361998 242.608502 
L 379.813942 242.034512 
L 380.539914 242.06539 
L 381.265885 241.666714 
L 381.991857 241.574102 
L 382.717829 241.330379 
L 383.4438 241.85302 
L 384.169772 241.525371 
L 384.895744 241.66156 
L 385.621715 241.39447 
L 386.347687 240.495886 
L 387.073659 240.827988 
L 387.799631 240.409541 
L 388.525602 240.721215 
L 389.251574 240.631994 
L 389.977546 240.732519 
L 390.703517 240.167895 
L 392.155461 240.015394 
L 392.881432 239.923315 
L 393.607404 239.702961 
L 394.333376 239.11055 
L 395.059348 239.359666 
L 395.785319 239.253884 
L 396.511291 238.582688 
L 397.237263 238.671865 
L 397.963234 238.030113 
L 398.689206 238.240051 
L 399.415178 237.789439 
L 400.141149 237.85289 
L 400.867121 237.183807 
L 401.593093 237.477517 
L 402.319065 237.122047 
L 403.045036 237.033103 
L 403.771008 236.637966 
L 404.49698 236.840112 
L 405.222951 236.030422 
L 405.948923 236.162702 
L 406.674895 235.766143 
L 407.400867 235.151398 
L 408.126838 235.404453 
L 408.85281 234.943882 
L 410.304753 235.088683 
L 412.482668 234.500855 
L 413.20864 234.222841 
L 413.934612 233.768384 
L 414.660584 233.979991 
L 415.386555 233.655767 
L 416.112527 233.833236 
L 416.838499 233.278084 
L 417.56447 233.464414 
L 418.290442 233.469485 
L 419.016414 233.336009 
L 419.742385 233.019578 
L 421.194329 232.982408 
L 421.920301 232.814343 
L 422.646272 232.815222 
L 423.372244 232.691893 
L 424.098216 232.912544 
L 424.824187 232.532086 
L 425.550159 232.791757 
L 426.276131 232.868383 
L 428.454046 232.646089 
L 429.180018 233.017743 
L 429.905989 232.948792 
L 430.631961 233.087728 
L 431.357933 232.982055 
L 432.083904 233.378874 
L 432.809876 233.092812 
L 434.26182 233.431249 
L 434.987791 233.46737 
L 435.713763 233.674955 
L 436.439735 233.676153 
L 437.165706 233.936626 
L 437.891678 233.81291 
L 438.61765 234.034365 
L 439.343621 233.937527 
L 441.521537 234.306852 
L 442.97348 234.507917 
L 444.425423 234.906007 
L 445.151395 234.94899 
L 447.32931 235.457606 
L 450.959169 236.00421 
L 451.68514 236.215882 
L 452.411112 236.164847 
L 453.137084 236.394104 
L 453.863055 236.45052 
L 454.589027 236.667443 
L 462.574716 237.608737 
L 462.574716 237.608737 
" style="fill:none;stroke:#1f77b4;stroke-linecap:square;stroke-width:1.5;"/>
   </g>
   <g id="line2d_2">
    <path clip-path="url(#p7b23dffd7b)" d="M 56.756534 272.074076 
L 57.482506 203.464376 
L 58.208477 240.96059 
L 58.934449 244.356977 
L 59.660421 253.266842 
L 60.386393 266.78625 
L 61.112364 266.175629 
L 61.838336 245.306369 
L 62.564308 265.085273 
L 63.290279 204.711526 
L 64.016251 266.652527 
L 64.742223 239.141008 
L 65.468195 249.654932 
L 66.194166 264.263652 
L 66.920138 201.531908 
L 67.64611 260.714865 
L 68.372081 244.062447 
L 69.098053 186.29994 
L 69.824025 261.285372 
L 70.549996 178.075544 
L 71.275968 235.895796 
L 72.00194 253.570936 
L 72.727912 207.889195 
L 73.453883 240.022604 
L 74.179855 249.114392 
L 74.905827 238.624659 
L 75.631798 199.767876 
L 76.35777 218.716247 
L 77.083742 249.28627 
L 77.809713 206.093674 
L 78.535685 210.647411 
L 79.261657 245.548944 
L 80.7136 235.093642 
L 81.439572 198.539598 
L 82.165544 228.859793 
L 82.891515 246.635584 
L 83.617487 253.250837 
L 84.343459 252.822249 
L 85.06943 256.383053 
L 85.795402 244.239939 
L 86.521374 212.782735 
L 87.247346 250.621731 
L 87.973317 261.725016 
L 88.699289 261.751641 
L 89.425261 185.122393 
L 90.151232 256.578857 
L 90.877204 188.460437 
L 91.603176 250.318904 
L 92.329148 253.093931 
L 93.055119 223.240209 
L 93.781091 245.747738 
L 94.507063 253.422846 
L 95.233034 248.633771 
L 95.959006 252.18652 
L 96.684978 251.29762 
L 97.410949 200.29153 
L 98.136921 228.208208 
L 99.588865 257.252883 
L 100.314836 257.428869 
L 101.040808 204.209356 
L 101.76678 261.326981 
L 102.492751 241.190812 
L 103.218723 205.480903 
L 103.944695 225.339668 
L 104.670666 256.64476 
L 105.396638 249.800323 
L 106.12261 260.17671 
L 106.848582 256.442837 
L 107.574553 199.07788 
L 108.300525 234.777983 
L 109.026497 253.115373 
L 110.47844 263.074182 
L 111.204412 262.11217 
L 111.930383 247.157757 
L 112.656355 246.735918 
L 113.382327 259.358998 
L 114.108299 259.589133 
L 114.83427 190.372347 
L 115.560242 257.280217 
L 116.286214 265.365451 
L 117.012185 265.814568 
L 117.738157 179.03782 
L 118.464129 233.281628 
L 119.190101 211.711929 
L 119.916072 254.733793 
L 120.642044 243.372206 
L 121.368016 238.220096 
L 122.093987 242.699937 
L 122.819959 189.592014 
L 124.271902 248.878418 
L 124.997874 247.186114 
L 125.723846 191.503793 
L 126.449818 253.448649 
L 127.175789 245.823219 
L 127.901761 225.977935 
L 128.627733 256.306198 
L 129.353704 254.054165 
L 130.079676 184.782514 
L 130.805648 254.378482 
L 131.531619 195.452209 
L 132.257591 244.588431 
L 132.983563 252.270292 
L 133.709535 243.861218 
L 134.435506 256.699817 
L 135.161478 257.483891 
L 135.88745 240.101644 
L 136.613421 261.228871 
L 137.339393 174.231645 
L 138.065365 225.360633 
L 138.791336 252.382363 
L 139.517308 250.248084 
L 140.969252 265.679243 
L 141.695223 246.616385 
L 142.421195 238.718816 
L 143.147167 203.681091 
L 143.873138 249.836086 
L 144.59911 257.186401 
L 145.325082 257.987023 
L 146.051054 241.891719 
L 146.777025 243.353191 
L 147.502997 259.912469 
L 148.228969 250.333185 
L 148.95494 165.802646 
L 149.680912 220.630123 
L 150.406884 248.933381 
L 151.132855 245.540493 
L 151.858827 240.862073 
L 152.584799 231.441826 
L 153.310771 230.350296 
L 154.036742 237.011429 
L 154.762714 252.605545 
L 155.488686 228.265246 
L 156.214657 247.031142 
L 156.940629 237.041286 
L 157.666601 251.702705 
L 158.392572 258.992882 
L 159.118544 228.783219 
L 159.844516 253.475275 
L 160.570488 242.345761 
L 161.296459 164.99871 
L 162.022431 248.083793 
L 162.748403 237.976718 
L 163.474374 252.256056 
L 164.200346 244.35773 
L 164.926318 260.387014 
L 165.652289 254.559784 
L 166.378261 261.077985 
L 167.104233 250.414501 
L 167.830205 179.626392 
L 168.556176 249.744946 
L 169.282148 140.282813 
L 170.00812 248.935606 
L 170.734091 244.740609 
L 171.460063 243.258631 
L 172.186035 212.909547 
L 173.637978 231.390036 
L 174.36395 224.373441 
L 175.089922 245.085694 
L 175.815893 239.57865 
L 176.541865 224.241732 
L 177.267837 243.473922 
L 177.993808 191.230591 
L 178.71978 188.405696 
L 179.445752 175.940379 
L 180.171724 237.788528 
L 180.897695 232.693785 
L 181.623667 144.805127 
L 182.349639 231.202403 
L 183.07561 235.648147 
L 183.801582 220.718535 
L 184.527554 239.81612 
L 185.253525 244.659978 
L 185.979497 242.452468 
L 186.705469 224.062525 
L 187.431441 178.715725 
L 188.157412 242.949509 
L 188.883384 182.065193 
L 189.609356 197.767033 
L 190.335327 225.338841 
L 191.061299 184.352437 
L 191.787271 203.047913 
L 192.513242 226.547942 
L 193.239214 243.376439 
L 193.965186 237.636096 
L 194.691158 238.440648 
L 195.417129 195.516377 
L 196.143101 207.131462 
L 196.869073 229.63942 
L 197.595044 238.182808 
L 198.321016 188.796454 
L 199.046988 210.64816 
L 199.77296 191.328303 
L 200.498931 232.257912 
L 201.224903 236.415586 
L 201.950875 206.454596 
L 203.402818 237.982777 
L 204.12879 215.381342 
L 204.854761 247.847075 
L 205.580733 246.683874 
L 206.306705 250.428876 
L 207.032677 256.842956 
L 207.758648 224.003052 
L 208.48462 261.436029 
L 209.210592 264.984894 
L 209.936563 253.339455 
L 210.662535 234.061501 
L 211.388507 237.877725 
L 212.114478 267.54208 
L 212.84045 266.597463 
L 213.566422 255.715276 
L 214.292394 264.841222 
L 215.018365 260.330107 
L 215.744337 262.338428 
L 216.470309 247.627079 
L 217.19628 265.019805 
L 217.922252 267.127767 
L 218.648224 259.627458 
L 219.374195 269.027248 
L 220.100167 265.210855 
L 220.826139 234.227884 
L 221.552111 271.925957 
L 222.278082 273.104984 
L 223.004054 254.409923 
L 223.730026 238.64946 
L 224.455997 268.541516 
L 225.181969 256.109282 
L 225.907941 260.580922 
L 226.633913 269.519207 
L 227.359884 254.331805 
L 228.085856 257.93809 
L 228.811828 223.631591 
L 229.537799 258.875625 
L 230.263771 255.704256 
L 230.989743 271.776526 
L 231.715714 250.899123 
L 232.441686 266.531997 
L 233.167658 252.368135 
L 233.89363 266.14884 
L 234.619601 261.550048 
L 235.345573 249.373001 
L 236.071545 261.516969 
L 236.797516 212.776838 
L 237.523488 247.485574 
L 238.24946 251.262806 
L 238.975431 264.871451 
L 239.701403 251.290097 
L 240.427375 253.97121 
L 241.153347 241.106032 
L 241.879318 261.429611 
L 242.60529 180.489453 
L 243.331262 255.094154 
L 244.057233 255.224564 
L 244.783205 193.559809 
L 245.509177 245.10577 
L 246.235148 246.234123 
L 246.96112 210.305575 
L 247.687092 244.725659 
L 248.413064 195.061099 
L 249.139035 221.573072 
L 249.865007 233.144963 
L 250.590979 241.235069 
L 251.31695 240.226556 
L 252.042922 236.615373 
L 252.768894 208.302571 
L 253.494866 215.735664 
L 254.220837 240.729444 
L 254.946809 233.299561 
L 255.672781 200.247977 
L 256.398752 246.060026 
L 257.124724 188.315428 
L 257.850696 218.302914 
L 258.576667 227.765149 
L 259.302639 202.209705 
L 260.028611 213.509247 
L 260.754583 236.118914 
L 261.480554 200.474176 
L 262.206526 228.287297 
L 262.932498 228.682679 
L 263.658469 242.243426 
L 264.384441 198.992524 
L 265.110413 242.57257 
L 266.562356 225.732732 
L 267.288328 244.762079 
L 268.0143 236.045757 
L 268.740271 237.591282 
L 269.466243 241.015639 
L 270.192215 238.121047 
L 270.918186 211.627514 
L 271.644158 225.432588 
L 273.096102 242.770276 
L 273.822073 236.812333 
L 274.548045 236.558287 
L 275.274017 245.815889 
L 275.999988 247.831971 
L 276.72596 242.654207 
L 277.451932 255.964404 
L 278.903875 222.323076 
L 279.629847 244.979352 
L 280.355819 205.956556 
L 281.08179 237.02015 
L 281.807762 234.12676 
L 282.533734 219.179553 
L 283.259705 242.484782 
L 283.985677 197.88145 
L 284.711649 226.857852 
L 285.43762 219.641824 
L 286.163592 239.370215 
L 286.889564 243.403418 
L 287.615536 245.880288 
L 288.341507 247.44549 
L 289.067479 251.381311 
L 289.793451 244.709529 
L 290.519422 254.066474 
L 291.245394 245.303864 
L 291.971366 253.808979 
L 292.697337 246.354929 
L 293.423309 254.769996 
L 294.875253 257.75891 
L 295.601224 258.794756 
L 296.327196 262.398169 
L 297.053168 247.301146 
L 297.779139 257.667064 
L 298.505111 199.937867 
L 299.231083 256.633527 
L 299.957055 242.185054 
L 301.408998 260.614821 
L 302.13497 257.851218 
L 303.586913 214.49585 
L 304.312885 235.176622 
L 305.038856 189.273912 
L 305.764828 220.084437 
L 306.4908 212.882609 
L 307.216772 243.744583 
L 307.942743 240.411434 
L 308.668715 244.967538 
L 309.394687 240.407146 
L 310.120658 237.043467 
L 310.84663 238.34194 
L 311.572602 244.577633 
L 312.298573 246.452248 
L 313.024545 247.286402 
L 313.750517 235.828259 
L 314.476489 239.68418 
L 315.20246 193.05206 
L 315.928432 244.470718 
L 316.654404 244.080839 
L 317.380375 239.211847 
L 318.106347 231.097434 
L 318.832319 246.165624 
L 319.55829 195.857698 
L 320.284262 216.899094 
L 321.010234 234.546098 
L 321.736206 241.908729 
L 322.462177 245.001208 
L 323.188149 205.526726 
L 324.640092 212.089635 
L 325.366064 237.091153 
L 326.092036 219.410056 
L 326.818008 234.423965 
L 327.543979 185.431416 
L 328.269951 231.659531 
L 328.995923 234.213576 
L 329.721894 206.218524 
L 330.447866 237.524056 
L 331.173838 229.111833 
L 331.899809 204.208043 
L 332.625781 213.971481 
L 333.351753 230.857822 
L 334.077725 200.209727 
L 334.803696 212.219567 
L 335.529668 204.032198 
L 336.25564 212.278122 
L 336.981611 232.262503 
L 337.707583 227.630817 
L 338.433555 206.604943 
L 339.159526 218.570562 
L 339.885498 237.044831 
L 340.61147 233.097357 
L 341.337442 209.547186 
L 342.063413 239.723428 
L 342.789385 227.982034 
L 343.515357 211.99027 
L 344.241328 244.142924 
L 344.9673 202.152931 
L 345.693272 239.32308 
L 346.419243 210.202968 
L 347.145215 224.003434 
L 347.871187 224.536449 
L 348.597159 227.312414 
L 349.32313 238.908693 
L 350.049102 240.738449 
L 350.775074 228.388199 
L 351.501045 243.36386 
L 352.227017 248.691271 
L 352.952989 224.083773 
L 353.678961 246.027571 
L 354.404932 230.684964 
L 355.130904 251.539784 
L 355.856876 247.680383 
L 356.582847 247.74327 
L 357.308819 246.491025 
L 358.034791 255.930819 
L 358.760762 258.634992 
L 359.486734 237.252258 
L 360.212706 241.013453 
L 360.938678 257.032204 
L 361.664649 242.92323 
L 362.390621 238.170072 
L 363.116593 242.437084 
L 363.842564 254.665275 
L 365.294508 252.729003 
L 366.020479 255.919768 
L 366.746451 241.386471 
L 367.472423 254.072959 
L 368.198395 238.684431 
L 368.924366 242.989409 
L 369.650338 253.409903 
L 370.37631 242.014346 
L 371.102281 256.475411 
L 371.828253 255.934633 
L 372.554225 244.110684 
L 373.280196 241.508736 
L 374.006168 242.358746 
L 374.73214 254.807757 
L 375.458112 251.928679 
L 376.184083 239.225582 
L 376.910055 253.224686 
L 377.636027 252.350617 
L 378.361998 252.486253 
L 379.08797 256.208337 
L 379.813942 252.772851 
L 380.539914 259.025224 
L 381.265885 254.364365 
L 381.991857 246.10533 
L 382.717829 255.760023 
L 383.4438 251.120555 
L 384.169772 241.064865 
L 384.895744 253.086362 
L 385.621715 240.849973 
L 386.347687 248.86287 
L 387.073659 250.232736 
L 387.799631 236.593235 
L 388.525602 241.150557 
L 389.251574 249.179795 
L 389.977546 248.184678 
L 390.703517 245.467281 
L 391.429489 251.518841 
L 392.155461 250.875554 
L 392.881432 239.985036 
L 393.607404 238.681949 
L 394.333376 247.943265 
L 395.059348 247.773476 
L 395.785319 246.818846 
L 396.511291 247.96311 
L 397.237263 248.336564 
L 397.963234 242.854233 
L 398.689206 250.341563 
L 399.415178 245.357429 
L 400.141149 235.46572 
L 400.867121 249.770044 
L 401.593093 244.291557 
L 402.319065 245.791237 
L 403.045036 245.995994 
L 403.771008 247.071698 
L 404.49698 246.660209 
L 405.222951 244.433187 
L 405.948923 243.9062 
L 406.674895 228.661199 
L 407.400867 242.137472 
L 408.126838 223.181409 
L 408.85281 239.800026 
L 409.578782 239.406493 
L 410.304753 221.412771 
L 411.030725 236.851069 
L 411.756697 236.45244 
L 412.482668 232.762039 
L 413.20864 235.754591 
L 413.934612 237.416583 
L 414.660584 220.36377 
L 415.386555 232.222318 
L 416.112527 231.257011 
L 416.838499 213.85666 
L 417.56447 227.871887 
L 418.290442 225.374684 
L 419.016414 228.0809 
L 419.742385 210.941002 
L 420.468357 213.42616 
L 421.194329 209.880788 
L 421.920301 207.935503 
L 422.646272 208.299322 
L 423.372244 215.648297 
L 424.098216 208.340335 
L 424.824187 208.135541 
L 425.550159 205.948272 
L 426.276131 213.580655 
L 427.002102 206.365444 
L 427.728074 213.006094 
L 428.454046 207.229755 
L 429.180018 216.687696 
L 429.905989 216.706643 
L 430.631961 218.792626 
L 431.357933 209.149086 
L 432.083904 210.665224 
L 432.809876 211.661431 
L 433.535848 217.800376 
L 434.26182 212.324663 
L 434.987791 218.130259 
L 435.713763 214.760123 
L 436.439735 219.981874 
L 437.165706 214.378528 
L 437.891678 216.688813 
L 438.61765 216.613876 
L 439.343621 214.985249 
L 440.069593 221.415306 
L 440.795565 217.645214 
L 441.521537 224.000714 
L 442.247508 222.44962 
L 442.97348 228.799896 
L 443.699452 223.487488 
L 444.425423 230.011482 
L 445.151395 230.180687 
L 445.877367 226.724812 
L 446.603338 226.55777 
L 447.32931 226.814399 
L 448.055282 230.44049 
L 448.781254 229.602386 
L 449.507225 231.422657 
L 450.233197 235.71992 
L 450.959169 234.701372 
L 451.68514 237.198181 
L 452.411112 238.366126 
L 453.137084 240.025739 
L 453.863055 238.569395 
L 454.589027 238.354515 
L 455.314999 241.651338 
L 456.040971 243.844917 
L 456.766942 241.810354 
L 457.492914 242.5052 
L 458.218886 242.226518 
L 458.944857 245.388395 
L 459.670829 245.72628 
L 460.396801 244.524158 
L 461.122773 244.679753 
L 461.848744 244.288444 
L 462.574716 244.138202 
L 462.574716 244.138202 
" style="fill:none;stroke:#000000;stroke-dasharray:3.7,1.6;stroke-dashoffset:0;"/>
   </g>
   <g id="matplotlib.axis_1">
    <g id="xtick_1">
     <g id="line2d_3">
      <defs>
       <path d="M 0 0 
L 0 3.5 
" id="m038a7a2441" style="stroke:#000000;stroke-width:0.8;"/>
      </defs>
      <g>
       <use style="stroke:#000000;stroke-width:0.8;" x="77.809713" xlink:href="#m038a7a2441" y="293.784375"/>
      </g>
     </g>
     <g id="text_1">
      <!-- 100 -->
      <defs>
       <path d="M 12.40625 8.296875 
L 28.515625 8.296875 
L 28.515625 63.921875 
L 10.984375 60.40625 
L 10.984375 69.390625 
L 28.421875 72.90625 
L 38.28125 72.90625 
L 38.28125 8.296875 
L 54.390625 8.296875 
L 54.390625 0 
L 12.40625 0 
z
" id="DejaVuSans-49"/>
       <path d="M 31.78125 66.40625 
Q 24.171875 66.40625 20.328125 58.90625 
Q 16.5 51.421875 16.5 36.375 
Q 16.5 21.390625 20.328125 13.890625 
Q 24.171875 6.390625 31.78125 6.390625 
Q 39.453125 6.390625 43.28125 13.890625 
Q 47.125 21.390625 47.125 36.375 
Q 47.125 51.421875 43.28125 58.90625 
Q 39.453125 66.40625 31.78125 66.40625 
z
M 31.78125 74.21875 
Q 44.046875 74.21875 50.515625 64.515625 
Q 56.984375 54.828125 56.984375 36.375 
Q 56.984375 17.96875 50.515625 8.265625 
Q 44.046875 -1.421875 31.78125 -1.421875 
Q 19.53125 -1.421875 13.0625 8.265625 
Q 6.59375 17.96875 6.59375 36.375 
Q 6.59375 54.828125 13.0625 64.515625 
Q 19.53125 74.21875 31.78125 74.21875 
z
" id="DejaVuSans-48"/>
      </defs>
      <g transform="translate(68.265963 308.382812)scale(0.1 -0.1)">
       <use xlink:href="#DejaVuSans-49"/>
       <use x="63.623047" xlink:href="#DejaVuSans-48"/>
       <use x="127.246094" xlink:href="#DejaVuSans-48"/>
      </g>
     </g>
    </g>
    <g id="xtick_2">
     <g id="line2d_4">
      <g>
       <use style="stroke:#000000;stroke-width:0.8;" x="150.406884" xlink:href="#m038a7a2441" y="293.784375"/>
      </g>
     </g>
     <g id="text_2">
      <!-- 200 -->
      <defs>
       <path d="M 19.1875 8.296875 
L 53.609375 8.296875 
L 53.609375 0 
L 7.328125 0 
L 7.328125 8.296875 
Q 12.9375 14.109375 22.625 23.890625 
Q 32.328125 33.6875 34.8125 36.53125 
Q 39.546875 41.84375 41.421875 45.53125 
Q 43.3125 49.21875 43.3125 52.78125 
Q 43.3125 58.59375 39.234375 62.25 
Q 35.15625 65.921875 28.609375 65.921875 
Q 23.96875 65.921875 18.8125 64.3125 
Q 13.671875 62.703125 7.8125 59.421875 
L 7.8125 69.390625 
Q 13.765625 71.78125 18.9375 73 
Q 24.125 74.21875 28.421875 74.21875 
Q 39.75 74.21875 46.484375 68.546875 
Q 53.21875 62.890625 53.21875 53.421875 
Q 53.21875 48.921875 51.53125 44.890625 
Q 49.859375 40.875 45.40625 35.40625 
Q 44.1875 33.984375 37.640625 27.21875 
Q 31.109375 20.453125 19.1875 8.296875 
z
" id="DejaVuSans-50"/>
      </defs>
      <g transform="translate(140.863134 308.382812)scale(0.1 -0.1)">
       <use xlink:href="#DejaVuSans-50"/>
       <use x="63.623047" xlink:href="#DejaVuSans-48"/>
       <use x="127.246094" xlink:href="#DejaVuSans-48"/>
      </g>
     </g>
    </g>
    <g id="xtick_3">
     <g id="line2d_5">
      <g>
       <use style="stroke:#000000;stroke-width:0.8;" x="223.004054" xlink:href="#m038a7a2441" y="293.784375"/>
      </g>
     </g>
     <g id="text_3">
      <!-- 300 -->
      <defs>
       <path d="M 40.578125 39.3125 
Q 47.65625 37.796875 51.625 33 
Q 55.609375 28.21875 55.609375 21.1875 
Q 55.609375 10.40625 48.1875 4.484375 
Q 40.765625 -1.421875 27.09375 -1.421875 
Q 22.515625 -1.421875 17.65625 -0.515625 
Q 12.796875 0.390625 7.625 2.203125 
L 7.625 11.71875 
Q 11.71875 9.328125 16.59375 8.109375 
Q 21.484375 6.890625 26.8125 6.890625 
Q 36.078125 6.890625 40.9375 10.546875 
Q 45.796875 14.203125 45.796875 21.1875 
Q 45.796875 27.640625 41.28125 31.265625 
Q 36.765625 34.90625 28.71875 34.90625 
L 20.21875 34.90625 
L 20.21875 43.015625 
L 29.109375 43.015625 
Q 36.375 43.015625 40.234375 45.921875 
Q 44.09375 48.828125 44.09375 54.296875 
Q 44.09375 59.90625 40.109375 62.90625 
Q 36.140625 65.921875 28.71875 65.921875 
Q 24.65625 65.921875 20.015625 65.03125 
Q 15.375 64.15625 9.8125 62.3125 
L 9.8125 71.09375 
Q 15.4375 72.65625 20.34375 73.4375 
Q 25.25 74.21875 29.59375 74.21875 
Q 40.828125 74.21875 47.359375 69.109375 
Q 53.90625 64.015625 53.90625 55.328125 
Q 53.90625 49.265625 50.4375 45.09375 
Q 46.96875 40.921875 40.578125 39.3125 
z
" id="DejaVuSans-51"/>
      </defs>
      <g transform="translate(213.460304 308.382812)scale(0.1 -0.1)">
       <use xlink:href="#DejaVuSans-51"/>
       <use x="63.623047" xlink:href="#DejaVuSans-48"/>
       <use x="127.246094" xlink:href="#DejaVuSans-48"/>
      </g>
     </g>
    </g>
    <g id="xtick_4">
     <g id="line2d_6">
      <g>
       <use style="stroke:#000000;stroke-width:0.8;" x="295.601224" xlink:href="#m038a7a2441" y="293.784375"/>
      </g>
     </g>
     <g id="text_4">
      <!-- 400 -->
      <defs>
       <path d="M 37.796875 64.3125 
L 12.890625 25.390625 
L 37.796875 25.390625 
z
M 35.203125 72.90625 
L 47.609375 72.90625 
L 47.609375 25.390625 
L 58.015625 25.390625 
L 58.015625 17.1875 
L 47.609375 17.1875 
L 47.609375 0 
L 37.796875 0 
L 37.796875 17.1875 
L 4.890625 17.1875 
L 4.890625 26.703125 
z
" id="DejaVuSans-52"/>
      </defs>
      <g transform="translate(286.057474 308.382812)scale(0.1 -0.1)">
       <use xlink:href="#DejaVuSans-52"/>
       <use x="63.623047" xlink:href="#DejaVuSans-48"/>
       <use x="127.246094" xlink:href="#DejaVuSans-48"/>
      </g>
     </g>
    </g>
    <g id="xtick_5">
     <g id="line2d_7">
      <g>
       <use style="stroke:#000000;stroke-width:0.8;" x="368.198395" xlink:href="#m038a7a2441" y="293.784375"/>
      </g>
     </g>
     <g id="text_5">
      <!-- 500 -->
      <defs>
       <path d="M 10.796875 72.90625 
L 49.515625 72.90625 
L 49.515625 64.59375 
L 19.828125 64.59375 
L 19.828125 46.734375 
Q 21.96875 47.46875 24.109375 47.828125 
Q 26.265625 48.1875 28.421875 48.1875 
Q 40.625 48.1875 47.75 41.5 
Q 54.890625 34.8125 54.890625 23.390625 
Q 54.890625 11.625 47.5625 5.09375 
Q 40.234375 -1.421875 26.90625 -1.421875 
Q 22.3125 -1.421875 17.546875 -0.640625 
Q 12.796875 0.140625 7.71875 1.703125 
L 7.71875 11.625 
Q 12.109375 9.234375 16.796875 8.0625 
Q 21.484375 6.890625 26.703125 6.890625 
Q 35.15625 6.890625 40.078125 11.328125 
Q 45.015625 15.765625 45.015625 23.390625 
Q 45.015625 31 40.078125 35.4375 
Q 35.15625 39.890625 26.703125 39.890625 
Q 22.75 39.890625 18.8125 39.015625 
Q 14.890625 38.140625 10.796875 36.28125 
z
" id="DejaVuSans-53"/>
      </defs>
      <g transform="translate(358.654645 308.382812)scale(0.1 -0.1)">
       <use xlink:href="#DejaVuSans-53"/>
       <use x="63.623047" xlink:href="#DejaVuSans-48"/>
       <use x="127.246094" xlink:href="#DejaVuSans-48"/>
      </g>
     </g>
    </g>
    <g id="xtick_6">
     <g id="line2d_8">
      <g>
       <use style="stroke:#000000;stroke-width:0.8;" x="440.795565" xlink:href="#m038a7a2441" y="293.784375"/>
      </g>
     </g>
     <g id="text_6">
      <!-- 600 -->
      <defs>
       <path d="M 33.015625 40.375 
Q 26.375 40.375 22.484375 35.828125 
Q 18.609375 31.296875 18.609375 23.390625 
Q 18.609375 15.53125 22.484375 10.953125 
Q 26.375 6.390625 33.015625 6.390625 
Q 39.65625 6.390625 43.53125 10.953125 
Q 47.40625 15.53125 47.40625 23.390625 
Q 47.40625 31.296875 43.53125 35.828125 
Q 39.65625 40.375 33.015625 40.375 
z
M 52.59375 71.296875 
L 52.59375 62.3125 
Q 48.875 64.0625 45.09375 64.984375 
Q 41.3125 65.921875 37.59375 65.921875 
Q 27.828125 65.921875 22.671875 59.328125 
Q 17.53125 52.734375 16.796875 39.40625 
Q 19.671875 43.65625 24.015625 45.921875 
Q 28.375 48.1875 33.59375 48.1875 
Q 44.578125 48.1875 50.953125 41.515625 
Q 57.328125 34.859375 57.328125 23.390625 
Q 57.328125 12.15625 50.6875 5.359375 
Q 44.046875 -1.421875 33.015625 -1.421875 
Q 20.359375 -1.421875 13.671875 8.265625 
Q 6.984375 17.96875 6.984375 36.375 
Q 6.984375 53.65625 15.1875 63.9375 
Q 23.390625 74.21875 37.203125 74.21875 
Q 40.921875 74.21875 44.703125 73.484375 
Q 48.484375 72.75 52.59375 71.296875 
z
" id="DejaVuSans-54"/>
      </defs>
      <g transform="translate(431.251815 308.382812)scale(0.1 -0.1)">
       <use xlink:href="#DejaVuSans-54"/>
       <use x="63.623047" xlink:href="#DejaVuSans-48"/>
       <use x="127.246094" xlink:href="#DejaVuSans-48"/>
      </g>
     </g>
    </g>
    <g id="text_7">
     <!-- Tempo -->
     <defs>
      <path d="M -0.296875 72.90625 
L 61.375 72.90625 
L 61.375 64.59375 
L 35.5 64.59375 
L 35.5 0 
L 25.59375 0 
L 25.59375 64.59375 
L -0.296875 64.59375 
z
" id="DejaVuSans-84"/>
      <path d="M 56.203125 29.59375 
L 56.203125 25.203125 
L 14.890625 25.203125 
Q 15.484375 15.921875 20.484375 11.0625 
Q 25.484375 6.203125 34.421875 6.203125 
Q 39.59375 6.203125 44.453125 7.46875 
Q 49.3125 8.734375 54.109375 11.28125 
L 54.109375 2.78125 
Q 49.265625 0.734375 44.1875 -0.34375 
Q 39.109375 -1.421875 33.890625 -1.421875 
Q 20.796875 -1.421875 13.15625 6.1875 
Q 5.515625 13.8125 5.515625 26.8125 
Q 5.515625 40.234375 12.765625 48.109375 
Q 20.015625 56 32.328125 56 
Q 43.359375 56 49.78125 48.890625 
Q 56.203125 41.796875 56.203125 29.59375 
z
M 47.21875 32.234375 
Q 47.125 39.59375 43.09375 43.984375 
Q 39.0625 48.390625 32.421875 48.390625 
Q 24.90625 48.390625 20.390625 44.140625 
Q 15.875 39.890625 15.1875 32.171875 
z
" id="DejaVuSans-101"/>
      <path d="M 52 44.1875 
Q 55.375 50.25 60.0625 53.125 
Q 64.75 56 71.09375 56 
Q 79.640625 56 84.28125 50.015625 
Q 88.921875 44.046875 88.921875 33.015625 
L 88.921875 0 
L 79.890625 0 
L 79.890625 32.71875 
Q 79.890625 40.578125 77.09375 44.375 
Q 74.3125 48.1875 68.609375 48.1875 
Q 61.625 48.1875 57.5625 43.546875 
Q 53.515625 38.921875 53.515625 30.90625 
L 53.515625 0 
L 44.484375 0 
L 44.484375 32.71875 
Q 44.484375 40.625 41.703125 44.40625 
Q 38.921875 48.1875 33.109375 48.1875 
Q 26.21875 48.1875 22.15625 43.53125 
Q 18.109375 38.875 18.109375 30.90625 
L 18.109375 0 
L 9.078125 0 
L 9.078125 54.6875 
L 18.109375 54.6875 
L 18.109375 46.1875 
Q 21.1875 51.21875 25.484375 53.609375 
Q 29.78125 56 35.6875 56 
Q 41.65625 56 45.828125 52.96875 
Q 50 49.953125 52 44.1875 
z
" id="DejaVuSans-109"/>
      <path d="M 18.109375 8.203125 
L 18.109375 -20.796875 
L 9.078125 -20.796875 
L 9.078125 54.6875 
L 18.109375 54.6875 
L 18.109375 46.390625 
Q 20.953125 51.265625 25.265625 53.625 
Q 29.59375 56 35.59375 56 
Q 45.5625 56 51.78125 48.09375 
Q 58.015625 40.1875 58.015625 27.296875 
Q 58.015625 14.40625 51.78125 6.484375 
Q 45.5625 -1.421875 35.59375 -1.421875 
Q 29.59375 -1.421875 25.265625 0.953125 
Q 20.953125 3.328125 18.109375 8.203125 
z
M 48.6875 27.296875 
Q 48.6875 37.203125 44.609375 42.84375 
Q 40.53125 48.484375 33.40625 48.484375 
Q 26.265625 48.484375 22.1875 42.84375 
Q 18.109375 37.203125 18.109375 27.296875 
Q 18.109375 17.390625 22.1875 11.75 
Q 26.265625 6.109375 33.40625 6.109375 
Q 40.53125 6.109375 44.609375 11.75 
Q 48.6875 17.390625 48.6875 27.296875 
z
" id="DejaVuSans-112"/>
      <path d="M 30.609375 48.390625 
Q 23.390625 48.390625 19.1875 42.75 
Q 14.984375 37.109375 14.984375 27.296875 
Q 14.984375 17.484375 19.15625 11.84375 
Q 23.34375 6.203125 30.609375 6.203125 
Q 37.796875 6.203125 41.984375 11.859375 
Q 46.1875 17.53125 46.1875 27.296875 
Q 46.1875 37.015625 41.984375 42.703125 
Q 37.796875 48.390625 30.609375 48.390625 
z
M 30.609375 56 
Q 42.328125 56 49.015625 48.375 
Q 55.71875 40.765625 55.71875 27.296875 
Q 55.71875 13.875 49.015625 6.21875 
Q 42.328125 -1.421875 30.609375 -1.421875 
Q 18.84375 -1.421875 12.171875 6.21875 
Q 5.515625 13.875 5.515625 27.296875 
Q 5.515625 40.765625 12.171875 48.375 
Q 18.84375 56 30.609375 56 
z
" id="DejaVuSans-111"/>
     </defs>
     <g transform="translate(243.28125 322.060937)scale(0.1 -0.1)">
      <use xlink:href="#DejaVuSans-84"/>
      <use x="44.083984" xlink:href="#DejaVuSans-101"/>
      <use x="105.607422" xlink:href="#DejaVuSans-109"/>
      <use x="203.019531" xlink:href="#DejaVuSans-112"/>
      <use x="266.496094" xlink:href="#DejaVuSans-111"/>
     </g>
    </g>
   </g>
   <g id="matplotlib.axis_2">
    <g id="ytick_1">
     <g id="line2d_9">
      <defs>
       <path d="M 0 0 
L -3.5 0 
" id="m3c8f200bd9" style="stroke:#000000;stroke-width:0.8;"/>
      </defs>
      <g>
       <use style="stroke:#000000;stroke-width:0.8;" x="36.465625" xlink:href="#m3c8f200bd9" y="273.393886"/>
      </g>
     </g>
     <g id="text_8">
      <!-- 0.50 -->
      <defs>
       <path d="M 10.6875 12.40625 
L 21 12.40625 
L 21 0 
L 10.6875 0 
z
" id="DejaVuSans-46"/>
      </defs>
      <g transform="translate(7.2 277.193104)scale(0.1 -0.1)">
       <use xlink:href="#DejaVuSans-48"/>
       <use x="63.623047" xlink:href="#DejaVuSans-46"/>
       <use x="95.410156" xlink:href="#DejaVuSans-53"/>
       <use x="159.033203" xlink:href="#DejaVuSans-48"/>
      </g>
     </g>
    </g>
    <g id="ytick_2">
     <g id="line2d_10">
      <g>
       <use style="stroke:#000000;stroke-width:0.8;" x="36.465625" xlink:href="#m3c8f200bd9" y="242.849381"/>
      </g>
     </g>
     <g id="text_9">
      <!-- 0.75 -->
      <defs>
       <path d="M 8.203125 72.90625 
L 55.078125 72.90625 
L 55.078125 68.703125 
L 28.609375 0 
L 18.3125 0 
L 43.21875 64.59375 
L 8.203125 64.59375 
z
" id="DejaVuSans-55"/>
      </defs>
      <g transform="translate(7.2 246.6486)scale(0.1 -0.1)">
       <use xlink:href="#DejaVuSans-48"/>
       <use x="63.623047" xlink:href="#DejaVuSans-46"/>
       <use x="95.410156" xlink:href="#DejaVuSans-55"/>
       <use x="159.033203" xlink:href="#DejaVuSans-53"/>
      </g>
     </g>
    </g>
    <g id="ytick_3">
     <g id="line2d_11">
      <g>
       <use style="stroke:#000000;stroke-width:0.8;" x="36.465625" xlink:href="#m3c8f200bd9" y="212.304876"/>
      </g>
     </g>
     <g id="text_10">
      <!-- 1.00 -->
      <g transform="translate(7.2 216.104095)scale(0.1 -0.1)">
       <use xlink:href="#DejaVuSans-49"/>
       <use x="63.623047" xlink:href="#DejaVuSans-46"/>
       <use x="95.410156" xlink:href="#DejaVuSans-48"/>
       <use x="159.033203" xlink:href="#DejaVuSans-48"/>
      </g>
     </g>
    </g>
    <g id="ytick_4">
     <g id="line2d_12">
      <g>
       <use style="stroke:#000000;stroke-width:0.8;" x="36.465625" xlink:href="#m3c8f200bd9" y="181.760371"/>
      </g>
     </g>
     <g id="text_11">
      <!-- 1.25 -->
      <g transform="translate(7.2 185.55959)scale(0.1 -0.1)">
       <use xlink:href="#DejaVuSans-49"/>
       <use x="63.623047" xlink:href="#DejaVuSans-46"/>
       <use x="95.410156" xlink:href="#DejaVuSans-50"/>
       <use x="159.033203" xlink:href="#DejaVuSans-53"/>
      </g>
     </g>
    </g>
    <g id="ytick_5">
     <g id="line2d_13">
      <g>
       <use style="stroke:#000000;stroke-width:0.8;" x="36.465625" xlink:href="#m3c8f200bd9" y="151.215866"/>
      </g>
     </g>
     <g id="text_12">
      <!-- 1.50 -->
      <g transform="translate(7.2 155.015085)scale(0.1 -0.1)">
       <use xlink:href="#DejaVuSans-49"/>
       <use x="63.623047" xlink:href="#DejaVuSans-46"/>
       <use x="95.410156" xlink:href="#DejaVuSans-53"/>
       <use x="159.033203" xlink:href="#DejaVuSans-48"/>
      </g>
     </g>
    </g>
    <g id="ytick_6">
     <g id="line2d_14">
      <g>
       <use style="stroke:#000000;stroke-width:0.8;" x="36.465625" xlink:href="#m3c8f200bd9" y="120.671361"/>
      </g>
     </g>
     <g id="text_13">
      <!-- 1.75 -->
      <g transform="translate(7.2 124.47058)scale(0.1 -0.1)">
       <use xlink:href="#DejaVuSans-49"/>
       <use x="63.623047" xlink:href="#DejaVuSans-46"/>
       <use x="95.410156" xlink:href="#DejaVuSans-55"/>
       <use x="159.033203" xlink:href="#DejaVuSans-53"/>
      </g>
     </g>
    </g>
    <g id="ytick_7">
     <g id="line2d_15">
      <g>
       <use style="stroke:#000000;stroke-width:0.8;" x="36.465625" xlink:href="#m3c8f200bd9" y="90.126856"/>
      </g>
     </g>
     <g id="text_14">
      <!-- 2.00 -->
      <g transform="translate(7.2 93.926075)scale(0.1 -0.1)">
       <use xlink:href="#DejaVuSans-50"/>
       <use x="63.623047" xlink:href="#DejaVuSans-46"/>
       <use x="95.410156" xlink:href="#DejaVuSans-48"/>
       <use x="159.033203" xlink:href="#DejaVuSans-48"/>
      </g>
     </g>
    </g>
    <g id="ytick_8">
     <g id="line2d_16">
      <g>
       <use style="stroke:#000000;stroke-width:0.8;" x="36.465625" xlink:href="#m3c8f200bd9" y="59.582351"/>
      </g>
     </g>
     <g id="text_15">
      <!-- 2.25 -->
      <g transform="translate(7.2 63.38157)scale(0.1 -0.1)">
       <use xlink:href="#DejaVuSans-50"/>
       <use x="63.623047" xlink:href="#DejaVuSans-46"/>
       <use x="95.410156" xlink:href="#DejaVuSans-50"/>
       <use x="159.033203" xlink:href="#DejaVuSans-53"/>
      </g>
     </g>
    </g>
    <g id="ytick_9">
     <g id="line2d_17">
      <g>
       <use style="stroke:#000000;stroke-width:0.8;" x="36.465625" xlink:href="#m3c8f200bd9" y="29.037846"/>
      </g>
     </g>
     <g id="text_16">
      <!-- 2.50 -->
      <g transform="translate(7.2 32.837065)scale(0.1 -0.1)">
       <use xlink:href="#DejaVuSans-50"/>
       <use x="63.623047" xlink:href="#DejaVuSans-46"/>
       <use x="95.410156" xlink:href="#DejaVuSans-53"/>
       <use x="159.033203" xlink:href="#DejaVuSans-48"/>
      </g>
     </g>
    </g>
   </g>
   <g id="patch_3">
    <path d="M 36.465625 293.784375 
L 36.465625 21.984375 
" style="fill:none;stroke:#000000;stroke-linecap:square;stroke-linejoin:miter;stroke-width:0.8;"/>
   </g>
   <g id="patch_4">
    <path d="M 36.465625 293.784375 
L 482.865625 293.784375 
" style="fill:none;stroke:#000000;stroke-linecap:square;stroke-linejoin:miter;stroke-width:0.8;"/>
   </g>
   <g id="text_17">
    <!-- u_t -->
    <defs>
     <path d="M 8.5 21.578125 
L 8.5 54.6875 
L 17.484375 54.6875 
L 17.484375 21.921875 
Q 17.484375 14.15625 20.5 10.265625 
Q 23.53125 6.390625 29.59375 6.390625 
Q 36.859375 6.390625 41.078125 11.03125 
Q 45.3125 15.671875 45.3125 23.6875 
L 45.3125 54.6875 
L 54.296875 54.6875 
L 54.296875 0 
L 45.3125 0 
L 45.3125 8.40625 
Q 42.046875 3.421875 37.71875 1 
Q 33.40625 -1.421875 27.6875 -1.421875 
Q 18.265625 -1.421875 13.375 4.4375 
Q 8.5 10.296875 8.5 21.578125 
z
M 31.109375 56 
z
" id="DejaVuSans-117"/>
     <path d="M 50.984375 -16.609375 
L 50.984375 -23.578125 
L -0.984375 -23.578125 
L -0.984375 -16.609375 
z
" id="DejaVuSans-95"/>
     <path d="M 18.3125 70.21875 
L 18.3125 54.6875 
L 36.8125 54.6875 
L 36.8125 47.703125 
L 18.3125 47.703125 
L 18.3125 18.015625 
Q 18.3125 11.328125 20.140625 9.421875 
Q 21.96875 7.515625 27.59375 7.515625 
L 36.8125 7.515625 
L 36.8125 0 
L 27.59375 0 
Q 17.1875 0 13.234375 3.875 
Q 9.28125 7.765625 9.28125 18.015625 
L 9.28125 47.703125 
L 2.6875 47.703125 
L 2.6875 54.6875 
L 9.28125 54.6875 
L 9.28125 70.21875 
z
" id="DejaVuSans-116"/>
    </defs>
    <g transform="translate(250.510937 15.984375)scale(0.12 -0.12)">
     <use xlink:href="#DejaVuSans-117"/>
     <use x="63.378906" xlink:href="#DejaVuSans-95"/>
     <use x="113.378906" xlink:href="#DejaVuSans-116"/>
    </g>
   </g>
   <g id="legend_1">
    <g id="patch_5">
     <path d="M 489.865625 174.123438 
L 581.765625 174.123438 
Q 583.765625 174.123438 583.765625 172.123438 
L 583.765625 143.645313 
Q 583.765625 141.645313 581.765625 141.645313 
L 489.865625 141.645313 
Q 487.865625 141.645313 487.865625 143.645313 
L 487.865625 172.123438 
Q 487.865625 174.123438 489.865625 174.123438 
z
" style="fill:#ffffff;opacity:0.8;stroke:#cccccc;stroke-linejoin:miter;"/>
    </g>
    <g id="line2d_18">
     <path d="M 491.865625 149.74375 
L 511.865625 149.74375 
" style="fill:none;stroke:#000000;stroke-dasharray:3.7,1.6;stroke-dashoffset:0;"/>
    </g>
    <g id="line2d_19"/>
    <g id="text_18">
     <!-- Baseline -->
     <defs>
      <path d="M 19.671875 34.8125 
L 19.671875 8.109375 
L 35.5 8.109375 
Q 43.453125 8.109375 47.28125 11.40625 
Q 51.125 14.703125 51.125 21.484375 
Q 51.125 28.328125 47.28125 31.5625 
Q 43.453125 34.8125 35.5 34.8125 
z
M 19.671875 64.796875 
L 19.671875 42.828125 
L 34.28125 42.828125 
Q 41.5 42.828125 45.03125 45.53125 
Q 48.578125 48.25 48.578125 53.8125 
Q 48.578125 59.328125 45.03125 62.0625 
Q 41.5 64.796875 34.28125 64.796875 
z
M 9.8125 72.90625 
L 35.015625 72.90625 
Q 46.296875 72.90625 52.390625 68.21875 
Q 58.5 63.53125 58.5 54.890625 
Q 58.5 48.1875 55.375 44.234375 
Q 52.25 40.28125 46.1875 39.3125 
Q 53.46875 37.75 57.5 32.78125 
Q 61.53125 27.828125 61.53125 20.40625 
Q 61.53125 10.640625 54.890625 5.3125 
Q 48.25 0 35.984375 0 
L 9.8125 0 
z
" id="DejaVuSans-66"/>
      <path d="M 34.28125 27.484375 
Q 23.390625 27.484375 19.1875 25 
Q 14.984375 22.515625 14.984375 16.5 
Q 14.984375 11.71875 18.140625 8.90625 
Q 21.296875 6.109375 26.703125 6.109375 
Q 34.1875 6.109375 38.703125 11.40625 
Q 43.21875 16.703125 43.21875 25.484375 
L 43.21875 27.484375 
z
M 52.203125 31.203125 
L 52.203125 0 
L 43.21875 0 
L 43.21875 8.296875 
Q 40.140625 3.328125 35.546875 0.953125 
Q 30.953125 -1.421875 24.3125 -1.421875 
Q 15.921875 -1.421875 10.953125 3.296875 
Q 6 8.015625 6 15.921875 
Q 6 25.140625 12.171875 29.828125 
Q 18.359375 34.515625 30.609375 34.515625 
L 43.21875 34.515625 
L 43.21875 35.40625 
Q 43.21875 41.609375 39.140625 45 
Q 35.0625 48.390625 27.6875 48.390625 
Q 23 48.390625 18.546875 47.265625 
Q 14.109375 46.140625 10.015625 43.890625 
L 10.015625 52.203125 
Q 14.9375 54.109375 19.578125 55.046875 
Q 24.21875 56 28.609375 56 
Q 40.484375 56 46.34375 49.84375 
Q 52.203125 43.703125 52.203125 31.203125 
z
" id="DejaVuSans-97"/>
      <path d="M 44.28125 53.078125 
L 44.28125 44.578125 
Q 40.484375 46.53125 36.375 47.5 
Q 32.28125 48.484375 27.875 48.484375 
Q 21.1875 48.484375 17.84375 46.4375 
Q 14.5 44.390625 14.5 40.28125 
Q 14.5 37.15625 16.890625 35.375 
Q 19.28125 33.59375 26.515625 31.984375 
L 29.59375 31.296875 
Q 39.15625 29.25 43.1875 25.515625 
Q 47.21875 21.78125 47.21875 15.09375 
Q 47.21875 7.46875 41.1875 3.015625 
Q 35.15625 -1.421875 24.609375 -1.421875 
Q 20.21875 -1.421875 15.453125 -0.5625 
Q 10.6875 0.296875 5.421875 2 
L 5.421875 11.28125 
Q 10.40625 8.6875 15.234375 7.390625 
Q 20.0625 6.109375 24.8125 6.109375 
Q 31.15625 6.109375 34.5625 8.28125 
Q 37.984375 10.453125 37.984375 14.40625 
Q 37.984375 18.0625 35.515625 20.015625 
Q 33.0625 21.96875 24.703125 23.78125 
L 21.578125 24.515625 
Q 13.234375 26.265625 9.515625 29.90625 
Q 5.8125 33.546875 5.8125 39.890625 
Q 5.8125 47.609375 11.28125 51.796875 
Q 16.75 56 26.8125 56 
Q 31.78125 56 36.171875 55.265625 
Q 40.578125 54.546875 44.28125 53.078125 
z
" id="DejaVuSans-115"/>
      <path d="M 9.421875 75.984375 
L 18.40625 75.984375 
L 18.40625 0 
L 9.421875 0 
z
" id="DejaVuSans-108"/>
      <path d="M 9.421875 54.6875 
L 18.40625 54.6875 
L 18.40625 0 
L 9.421875 0 
z
M 9.421875 75.984375 
L 18.40625 75.984375 
L 18.40625 64.59375 
L 9.421875 64.59375 
z
" id="DejaVuSans-105"/>
      <path d="M 54.890625 33.015625 
L 54.890625 0 
L 45.90625 0 
L 45.90625 32.71875 
Q 45.90625 40.484375 42.875 44.328125 
Q 39.84375 48.1875 33.796875 48.1875 
Q 26.515625 48.1875 22.3125 43.546875 
Q 18.109375 38.921875 18.109375 30.90625 
L 18.109375 0 
L 9.078125 0 
L 9.078125 54.6875 
L 18.109375 54.6875 
L 18.109375 46.1875 
Q 21.34375 51.125 25.703125 53.5625 
Q 30.078125 56 35.796875 56 
Q 45.21875 56 50.046875 50.171875 
Q 54.890625 44.34375 54.890625 33.015625 
z
" id="DejaVuSans-110"/>
     </defs>
     <g transform="translate(519.865625 153.24375)scale(0.1 -0.1)">
      <use xlink:href="#DejaVuSans-66"/>
      <use x="68.603516" xlink:href="#DejaVuSans-97"/>
      <use x="129.882812" xlink:href="#DejaVuSans-115"/>
      <use x="181.982422" xlink:href="#DejaVuSans-101"/>
      <use x="243.505859" xlink:href="#DejaVuSans-108"/>
      <use x="271.289062" xlink:href="#DejaVuSans-105"/>
      <use x="299.072266" xlink:href="#DejaVuSans-110"/>
      <use x="362.451172" xlink:href="#DejaVuSans-101"/>
     </g>
    </g>
    <g id="line2d_20">
     <path d="M 491.865625 164.523438 
L 511.865625 164.523438 
" style="fill:none;stroke:#1f77b4;stroke-linecap:square;stroke-width:1.5;"/>
    </g>
    <g id="line2d_21"/>
    <g id="text_19">
     <!-- $\Uparrow \beta$ (shape) -->
     <defs>
      <path d="M 36.765625 58.59375 
L 36.765625 0 
L 30.90625 0 
L 30.90625 52.734375 
L 26.421875 48.140625 
L 20.5625 54 
L 39.703125 73.25 
L 44.09375 73.25 
L 63.328125 54 
L 57.46875 48.140625 
L 52.875 52.734375 
L 52.875 0 
L 47.015625 0 
L 47.015625 58.59375 
L 41.9375 63.671875 
z
" id="DejaVuSans-8657"/>
      <path d="M 13.625 3.375 
L 8.9375 -20.796875 
L -0.09375 -20.796875 
L 14.5 54.34375 
Q 18.84375 76.609375 39.65625 76.609375 
Q 60.75 76.609375 57.171875 57.8125 
Q 54.734375 44.4375 45.21875 39.546875 
Q 58.015625 35.15625 55.515625 22.125 
Q 51.125 -1.078125 27.484375 -1.03125 
Q 17.140625 -0.984375 13.625 3.375 
z
M 15.921875 15.09375 
Q 19.671875 6.59375 29.296875 6.640625 
Q 43.359375 6.640625 46.34375 21.96875 
Q 49.03125 35.75 26.171875 34.671875 
L 27.78125 42.96875 
Q 45.453125 42.671875 48.53125 58.59375 
Q 50.640625 69.34375 39.203125 69.28125 
Q 26.421875 69.28125 23.484375 54.046875 
z
" id="DejaVuSans-Oblique-946"/>
      <path id="DejaVuSans-32"/>
      <path d="M 31 75.875 
Q 24.46875 64.65625 21.28125 53.65625 
Q 18.109375 42.671875 18.109375 31.390625 
Q 18.109375 20.125 21.3125 9.0625 
Q 24.515625 -2 31 -13.1875 
L 23.1875 -13.1875 
Q 15.875 -1.703125 12.234375 9.375 
Q 8.59375 20.453125 8.59375 31.390625 
Q 8.59375 42.28125 12.203125 53.3125 
Q 15.828125 64.359375 23.1875 75.875 
z
" id="DejaVuSans-40"/>
      <path d="M 54.890625 33.015625 
L 54.890625 0 
L 45.90625 0 
L 45.90625 32.71875 
Q 45.90625 40.484375 42.875 44.328125 
Q 39.84375 48.1875 33.796875 48.1875 
Q 26.515625 48.1875 22.3125 43.546875 
Q 18.109375 38.921875 18.109375 30.90625 
L 18.109375 0 
L 9.078125 0 
L 9.078125 75.984375 
L 18.109375 75.984375 
L 18.109375 46.1875 
Q 21.34375 51.125 25.703125 53.5625 
Q 30.078125 56 35.796875 56 
Q 45.21875 56 50.046875 50.171875 
Q 54.890625 44.34375 54.890625 33.015625 
z
" id="DejaVuSans-104"/>
      <path d="M 8.015625 75.875 
L 15.828125 75.875 
Q 23.140625 64.359375 26.78125 53.3125 
Q 30.421875 42.28125 30.421875 31.390625 
Q 30.421875 20.453125 26.78125 9.375 
Q 23.140625 -1.703125 15.828125 -13.1875 
L 8.015625 -13.1875 
Q 14.5 -2 17.703125 9.0625 
Q 20.90625 20.125 20.90625 31.390625 
Q 20.90625 42.671875 17.703125 53.65625 
Q 14.5 64.65625 8.015625 75.875 
z
" id="DejaVuSans-41"/>
     </defs>
     <g transform="translate(519.865625 168.023438)scale(0.1 -0.1)">
      <use transform="translate(19.482422 0.390625)" xlink:href="#DejaVuSans-8657"/>
      <use transform="translate(122.753906 0.390625)" xlink:href="#DejaVuSans-Oblique-946"/>
      <use transform="translate(186.572266 0.390625)" xlink:href="#DejaVuSans-32"/>
      <use transform="translate(218.359375 0.390625)" xlink:href="#DejaVuSans-40"/>
      <use transform="translate(257.373047 0.390625)" xlink:href="#DejaVuSans-115"/>
      <use transform="translate(309.472656 0.390625)" xlink:href="#DejaVuSans-104"/>
      <use transform="translate(372.851562 0.390625)" xlink:href="#DejaVuSans-97"/>
      <use transform="translate(434.130859 0.390625)" xlink:href="#DejaVuSans-112"/>
      <use transform="translate(497.607422 0.390625)" xlink:href="#DejaVuSans-101"/>
      <use transform="translate(559.130859 0.390625)" xlink:href="#DejaVuSans-41"/>
     </g>
    </g>
   </g>
  </g>
 </g>
 <defs>
  <clipPath id="p7b23dffd7b">
   <rect height="271.8" width="446.4" x="36.465625" y="21.984375"/>
  </clipPath>
 </defs>
</svg>
