<?xml version="1.0" encoding="utf-8" standalone="no"?>
<!DOCTYPE svg PUBLIC "-//W3C//DTD SVG 1.1//EN"
  "http://www.w3.org/Graphics/SVG/1.1/DTD/svg11.dtd">
<!-- Created with matplotlib (https://matplotlib.org/) -->
<svg height="331.674375pt" version="1.1" viewBox="0 0 594.15 331.674375" width="594.15pt" xmlns="http://www.w3.org/2000/svg" xmlns:xlink="http://www.w3.org/1999/xlink">
 <defs>
  <style type="text/css">
*{stroke-linecap:butt;stroke-linejoin:round;}
  </style>
 </defs>
 <g id="figure_1">
  <g id="patch_1">
   <path d="M 0 331.674375 
L 594.15 331.674375 
L 594.15 0 
L 0 0 
z
" style="fill:#ffffff;"/>
  </g>
  <g id="axes_1">
   <g id="patch_2">
    <path d="M 39.65 294.118125 
L 486.05 294.118125 
L 486.05 22.318125 
L 39.65 22.318125 
z
" style="fill:#ffffff;"/>
   </g>
   <g id="line2d_1">
    <path clip-path="url(#pb2b08f31ef)" d="M 59.940909 280.983435 
L 60.666881 276.926277 
L 61.392852 280.240036 
L 62.118824 281.410739 
L 62.844796 279.05864 
L 63.570768 279.882748 
L 64.296739 280.166684 
L 65.022711 280.981647 
L 65.748683 279.736898 
L 66.474654 280.734112 
L 67.200626 281.063337 
L 67.926598 280.101744 
L 69.378541 281.555403 
L 70.104513 280.556782 
L 70.830485 280.182148 
L 71.556456 277.662913 
L 72.282428 279.933747 
L 73.0084 281.391424 
L 73.734371 280.889408 
L 74.460343 279.68267 
L 75.186315 281.232876 
L 75.912287 279.584824 
L 76.638258 279.449388 
L 77.36423 279.196512 
L 78.090202 281.095753 
L 78.816173 281.419773 
L 79.542145 280.703528 
L 80.268117 276.525596 
L 80.994088 281.292289 
L 81.72006 280.739371 
L 82.446032 281.414619 
L 83.172004 280.468764 
L 83.897975 278.627643 
L 84.623947 280.05745 
L 85.349919 279.672943 
L 86.07589 281.218257 
L 86.801862 280.450064 
L 87.527834 280.571835 
L 88.253805 279.388726 
L 88.979777 281.464671 
L 89.705749 280.606471 
L 90.431721 280.768063 
L 91.157692 279.098133 
L 91.883664 279.613755 
L 92.609636 281.76358 
L 94.061579 279.582048 
L 94.787551 280.799094 
L 95.513523 280.024585 
L 96.239494 277.447999 
L 96.965466 280.662064 
L 97.691438 280.802533 
L 98.417409 281.442689 
L 99.143381 281.304045 
L 99.869353 278.635687 
L 100.595324 280.829171 
L 102.047268 281.5177 
L 103.499211 280.588192 
L 104.225183 281.537777 
L 104.951155 277.502045 
L 105.677126 280.78769 
L 106.403098 279.753427 
L 107.12907 280.520182 
L 107.855041 281.015893 
L 108.581013 280.078273 
L 109.306985 280.783128 
L 110.032957 281.209378 
L 110.758928 280.285557 
L 111.4849 280.31858 
L 112.210872 280.772469 
L 112.936843 280.379129 
L 113.662815 281.153615 
L 114.388787 278.668302 
L 115.114758 280.74551 
L 115.84073 280.606356 
L 116.566702 279.932285 
L 117.292674 279.013448 
L 118.018645 280.358184 
L 118.744617 280.835289 
L 119.470589 280.4604 
L 120.19656 279.024713 
L 120.922532 281.478246 
L 121.648504 281.090115 
L 122.374476 280.154394 
L 123.100447 280.208776 
L 123.826419 281.258347 
L 124.552391 279.962134 
L 125.278362 279.474889 
L 126.004334 275.129651 
L 126.730306 280.598398 
L 127.456277 281.115744 
L 128.182249 280.250589 
L 128.908221 281.152202 
L 129.634193 280.775666 
L 130.360164 278.590826 
L 131.086136 280.676642 
L 131.812108 281.108641 
L 132.538079 280.633924 
L 133.990023 281.104757 
L 134.715994 280.576946 
L 135.441966 280.800731 
L 136.167938 279.880521 
L 136.89391 280.658091 
L 137.619881 280.944499 
L 138.345853 280.870199 
L 139.071825 281.071366 
L 139.797796 280.129555 
L 140.523768 280.842683 
L 141.24974 279.293536 
L 141.975711 280.893519 
L 142.701683 280.499667 
L 143.427655 280.330516 
L 144.153627 280.041942 
L 144.879598 281.044341 
L 145.60557 280.891662 
L 146.331542 280.575223 
L 147.057513 279.664733 
L 147.783485 279.323613 
L 148.509457 281.426609 
L 149.235429 280.647544 
L 149.9614 280.983529 
L 150.687372 280.177084 
L 151.413344 280.857485 
L 152.139315 280.294713 
L 152.865287 280.967554 
L 153.591259 280.328824 
L 154.31723 278.243477 
L 155.043202 281.501837 
L 155.769174 277.128739 
L 156.495146 280.56734 
L 157.221117 279.913613 
L 157.947089 279.593952 
L 158.673061 280.411879 
L 159.399032 280.794426 
L 160.125004 278.679311 
L 160.850976 280.982599 
L 161.576947 280.380071 
L 163.028891 279.512017 
L 163.754863 279.880563 
L 164.480834 279.432706 
L 165.206806 280.904716 
L 165.932778 278.235832 
L 166.658749 280.414184 
L 167.384721 280.187316 
L 168.110693 281.056807 
L 168.836664 281.185491 
L 169.562636 280.125846 
L 170.288608 281.216126 
L 171.01458 280.191039 
L 172.466523 280.00469 
L 173.918466 279.067097 
L 174.644438 280.313873 
L 175.37041 279.944919 
L 176.096382 279.184436 
L 176.822353 280.641434 
L 177.548325 280.991572 
L 178.274297 280.608337 
L 179.000268 279.664064 
L 179.72624 280.384509 
L 180.452212 279.345558 
L 181.178183 280.922681 
L 181.904155 279.355878 
L 182.630127 279.572383 
L 183.356099 280.553188 
L 184.08207 280.318455 
L 184.808042 279.435054 
L 185.534014 280.674024 
L 186.259985 280.124766 
L 186.985957 280.160555 
L 187.711929 279.106931 
L 188.4379 281.107986 
L 189.163872 280.749122 
L 189.889844 280.837503 
L 190.615816 280.663507 
L 191.341787 278.715686 
L 192.067759 279.757212 
L 192.793731 280.212919 
L 193.519702 280.502268 
L 194.245674 280.427252 
L 194.971646 280.596459 
L 195.697617 280.098054 
L 197.149561 279.896429 
L 197.875533 280.967481 
L 198.601504 281.465179 
L 199.327476 280.948156 
L 200.053448 281.062097 
L 200.779419 280.376171 
L 201.505391 280.180637 
L 202.231363 279.661686 
L 202.957335 281.359816 
L 203.683306 280.908273 
L 204.409278 280.201574 
L 205.13525 280.045159 
L 205.861221 280.014036 
L 206.587193 277.698204 
L 207.313165 280.276733 
L 208.039136 280.313434 
L 208.765108 280.175606 
L 209.49108 280.702344 
L 210.217052 280.405292 
L 210.943023 280.567486 
L 211.668995 279.90708 
L 213.120938 279.81045 
L 213.84691 280.65085 
L 214.572882 280.846258 
L 215.298853 281.537615 
L 216.024825 281.113497 
L 216.750797 279.95624 
L 217.476769 280.516363 
L 218.20274 280.269921 
L 219.654684 280.791917 
L 220.380655 279.215431 
L 221.832599 280.731438 
L 222.55857 278.601723 
L 223.284542 279.864717 
L 224.010514 280.756226 
L 224.736486 280.551771 
L 225.462457 280.620666 
L 226.188429 280.811559 
L 226.914401 280.196243 
L 227.640372 279.889666 
L 228.366344 280.994472 
L 229.092316 280.036432 
L 229.818288 280.934234 
L 230.544259 280.517497 
L 231.270231 280.23896 
L 231.996203 280.879626 
L 232.722174 279.71743 
L 233.448146 280.930617 
L 234.174118 280.643039 
L 235.626061 279.881094 
L 236.352033 281.290971 
L 237.078005 280.373059 
L 237.803976 280.198713 
L 238.529948 280.781552 
L 239.25592 280.743408 
L 239.981891 280.531759 
L 240.707863 278.176781 
L 241.433835 280.608704 
L 242.159806 281.188062 
L 242.885778 281.042608 
L 243.61175 280.055474 
L 244.337722 280.653199 
L 245.063693 279.383359 
L 245.789665 278.842322 
L 246.515637 280.601956 
L 247.241608 280.634303 
L 247.96758 278.3987 
L 248.693552 279.978414 
L 249.419523 279.9139 
L 250.145495 280.654326 
L 250.871467 280.766121 
L 251.597439 279.923043 
L 252.32341 280.701513 
L 253.049382 280.274381 
L 253.775354 280.620384 
L 254.501325 280.69855 
L 255.227297 280.42488 
L 255.953269 278.821664 
L 256.679241 280.326406 
L 257.405212 280.673513 
L 258.857156 279.705302 
L 259.583127 279.606547 
L 260.309099 280.208206 
L 261.035071 280.608119 
L 261.761042 280.060492 
L 262.487014 280.439084 
L 263.212986 279.931175 
L 263.938958 280.459488 
L 264.664929 278.117697 
L 265.390901 279.194845 
L 266.116873 280.82074 
L 266.842844 279.626491 
L 267.568816 280.678845 
L 268.294788 280.807438 
L 269.020759 279.94144 
L 269.746731 279.629177 
L 270.472703 280.21978 
L 271.924646 280.334108 
L 272.650618 281.074092 
L 273.37659 279.277032 
L 274.102561 280.347386 
L 275.554505 279.968424 
L 276.280477 280.683586 
L 277.006448 280.629608 
L 277.73242 279.772671 
L 278.458392 280.672093 
L 279.184363 280.356344 
L 279.910335 280.296313 
L 280.636307 279.571525 
L 281.362278 277.677832 
L 282.08825 280.217936 
L 282.814222 280.253707 
L 283.540194 280.067805 
L 284.266165 280.646951 
L 284.992137 280.310754 
L 285.718109 280.432077 
L 286.44408 280.120604 
L 287.170052 280.354746 
L 287.896024 280.164942 
L 289.347967 280.337358 
L 290.073939 280.119818 
L 290.799911 278.241587 
L 291.525882 277.227373 
L 292.251854 279.443861 
L 292.977826 279.932556 
L 294.429769 280.121029 
L 295.155741 280.4142 
L 295.881712 279.970436 
L 296.607684 279.738173 
L 297.333656 280.115452 
L 298.785599 279.90868 
L 299.511571 280.386445 
L 300.237543 279.735759 
L 300.963514 280.270541 
L 301.689486 280.176294 
L 302.415458 280.206844 
L 303.14143 278.84418 
L 303.867401 279.088282 
L 304.593373 280.520298 
L 305.319345 280.002455 
L 306.045316 280.159711 
L 306.771288 280.470658 
L 308.223231 279.787708 
L 308.949203 279.697545 
L 309.675175 280.202734 
L 310.401147 279.943089 
L 311.127118 279.423555 
L 312.579062 280.147575 
L 314.756977 280.380789 
L 315.482948 279.354872 
L 316.20892 278.5925 
L 316.934892 279.124295 
L 317.660864 280.176001 
L 318.386835 279.495829 
L 319.112807 279.817581 
L 319.838779 278.42459 
L 321.290722 280.597254 
L 322.016694 280.091981 
L 322.742665 279.841083 
L 324.194609 279.693547 
L 324.920581 278.047825 
L 325.646552 280.175985 
L 326.372524 280.268757 
L 327.098496 280.140602 
L 327.824467 279.754039 
L 328.550439 280.294345 
L 329.276411 279.841295 
L 330.002383 279.639986 
L 330.728354 279.885024 
L 332.180298 278.791936 
L 332.906269 279.672185 
L 333.632241 279.616226 
L 335.084184 279.917893 
L 335.810156 278.358828 
L 336.536128 280.093935 
L 337.2621 280.168177 
L 337.988071 279.435975 
L 339.440015 280.049285 
L 340.165986 279.811549 
L 340.891958 278.86375 
L 341.61793 279.646441 
L 342.343901 279.789109 
L 343.069873 279.756495 
L 343.795845 280.173955 
L 344.521817 279.404516 
L 345.247788 279.307462 
L 346.699732 279.954043 
L 347.425703 279.260869 
L 348.151675 279.117115 
L 348.877647 280.067241 
L 349.603618 278.96221 
L 350.32959 279.867068 
L 351.055562 278.932455 
L 351.781534 279.612504 
L 352.507505 280.05929 
L 353.233477 279.519635 
L 353.959449 278.652434 
L 354.68542 279.408661 
L 355.411392 279.813533 
L 356.137364 279.034284 
L 356.863336 278.980665 
L 357.589307 278.196842 
L 358.315279 279.724295 
L 359.767222 279.290817 
L 360.493194 279.683396 
L 361.219166 279.712287 
L 361.945137 278.589939 
L 362.671109 279.049343 
L 363.397081 279.679829 
L 364.123053 279.203639 
L 364.849024 278.931581 
L 365.574996 278.292446 
L 366.300968 279.499289 
L 367.026939 278.788841 
L 367.752911 279.254671 
L 369.204854 279.465514 
L 369.930826 279.18167 
L 370.656798 279.426275 
L 371.38277 278.457587 
L 372.108741 278.983918 
L 372.834713 278.976018 
L 373.560685 279.613233 
L 374.286656 278.559781 
L 375.012628 279.66401 
L 375.7386 279.439178 
L 376.464571 279.378056 
L 377.190543 278.217288 
L 377.916515 279.099823 
L 380.09443 278.94175 
L 380.820402 279.073039 
L 381.546373 279.556867 
L 382.998317 278.945736 
L 383.724289 279.034093 
L 384.45026 278.627963 
L 385.176232 278.602028 
L 385.902204 278.388218 
L 386.628175 279.062072 
L 387.354147 278.726815 
L 388.080119 279.00312 
L 388.80609 278.789298 
L 389.532062 277.880669 
L 390.258034 278.453089 
L 390.984006 278.052904 
L 391.709977 278.584706 
L 392.435949 278.594407 
L 393.161921 278.877899 
L 393.887892 278.356304 
L 394.613864 278.535655 
L 396.791779 278.586115 
L 397.517751 278.07042 
L 398.243723 278.63328 
L 398.969694 278.690038 
L 399.695666 278.070428 
L 400.421638 278.459261 
L 401.147609 277.852028 
L 401.873581 278.398081 
L 402.599553 278.022281 
L 403.325524 278.372089 
L 404.051496 277.720773 
L 404.777468 278.394208 
L 405.50344 278.129301 
L 406.229411 278.276992 
L 406.955383 277.989293 
L 407.681355 278.530793 
L 408.407326 277.647554 
L 409.133298 278.129129 
L 409.85927 277.795604 
L 410.585242 277.199082 
L 411.311213 277.814779 
L 412.037185 277.34889 
L 412.763157 277.743073 
L 413.489128 277.982004 
L 415.667043 277.741467 
L 416.393015 277.533727 
L 417.118987 277.055572 
L 417.844959 277.563875 
L 418.57093 277.200735 
L 419.296902 277.635012 
L 420.022874 276.900422 
L 420.748845 277.353509 
L 421.474817 277.444113 
L 422.200789 277.332546 
L 422.92676 276.935094 
L 423.652732 277.056741 
L 424.378704 277.029237 
L 425.104676 276.806943 
L 425.830647 276.85389 
L 426.556619 276.66527 
L 427.282591 277.042283 
L 428.008562 276.373449 
L 428.734534 276.823879 
L 429.460506 276.883137 
L 431.638421 276.320666 
L 432.364393 276.877495 
L 433.090364 276.606023 
L 433.816336 276.749758 
L 434.542308 276.41497 
L 435.268279 277.013035 
L 435.994251 276.287739 
L 436.720223 276.531993 
L 437.446195 276.592592 
L 438.172166 276.45853 
L 438.898138 276.657208 
L 439.62411 276.428383 
L 440.350081 276.725418 
L 441.076053 276.224538 
L 441.802025 276.451868 
L 442.527996 275.98166 
L 443.97994 276.146853 
L 444.705912 275.907785 
L 446.157855 275.742697 
L 447.609798 275.946344 
L 448.33577 275.708869 
L 449.061742 275.823788 
L 451.239657 275.743467 
L 452.6916 275.342956 
L 453.417572 275.474504 
L 454.143544 275.419124 
L 454.869515 275.582325 
L 455.595487 275.100533 
L 456.321459 275.350451 
L 457.04743 275.128194 
L 457.773402 275.344769 
L 458.499374 275.219344 
L 459.225346 275.300888 
L 459.951317 274.935252 
L 460.677289 274.769794 
L 461.403261 275.072005 
L 463.581176 274.796239 
L 464.307148 274.804562 
L 465.759091 274.509399 
L 465.759091 274.509399 
" style="fill:none;stroke:#1f77b4;stroke-linecap:square;stroke-width:1.5;"/>
   </g>
   <g id="line2d_2">
    <path clip-path="url(#pb2b08f31ef)" d="M 59.940909 199.102852 
L 60.666881 73.373979 
L 61.392852 146.974395 
L 62.118824 149.321899 
L 62.844796 165.152834 
L 63.570768 188.831898 
L 64.296739 186.808521 
L 65.022711 150.344083 
L 65.748683 187.797005 
L 66.474654 80.146279 
L 67.200626 194.598623 
L 67.926598 140.985643 
L 68.65257 162.328457 
L 69.378541 187.329329 
L 70.104513 77.775075 
L 70.830485 185.772915 
L 71.556456 152.216915 
L 72.282428 54.484761 
L 73.0084 188.516758 
L 73.734371 38.576323 
L 74.460343 144.957327 
L 75.186315 170.721703 
L 75.912287 90.152825 
L 76.638258 149.748096 
L 77.36423 162.766817 
L 78.090202 144.025042 
L 78.816173 77.818766 
L 79.542145 113.414691 
L 80.268117 164.760127 
L 80.994088 86.586229 
L 81.72006 97.800782 
L 82.446032 158.174844 
L 83.172004 145.981824 
L 83.897975 136.817895 
L 84.623947 72.694712 
L 85.349919 128.834675 
L 86.07589 157.103569 
L 86.801862 167.056474 
L 87.527834 165.782556 
L 88.253805 172.390719 
L 88.979777 150.845834 
L 89.705749 96.643502 
L 90.431721 166.217571 
L 91.157692 182.28803 
L 91.883664 181.599248 
L 92.609636 47.616428 
L 93.335607 179.652826 
L 94.061579 52.772611 
L 94.787551 167.830869 
L 95.513523 166.74697 
L 96.239494 113.795081 
L 96.965466 156.4427 
L 97.691438 167.927065 
L 98.417409 158.959543 
L 99.143381 165.991208 
L 99.869353 164.413588 
L 100.595324 75.36158 
L 101.321296 128.416336 
L 102.77324 175.582559 
L 103.499211 174.85572 
L 104.225183 82.056235 
L 104.951155 186.842941 
L 105.677126 146.442906 
L 106.403098 86.139153 
L 107.12907 123.582336 
L 107.855041 176.654631 
L 108.581013 161.883088 
L 109.306985 181.074525 
L 110.032957 174.026947 
L 110.758928 75.403539 
L 111.4849 141.961871 
L 112.210872 170.738523 
L 113.662815 186.632511 
L 114.388787 185.104865 
L 115.114758 160.278524 
L 115.84073 161.403934 
L 116.566702 183.32726 
L 117.292674 183.256547 
L 118.018645 68.201349 
L 118.744617 185.412981 
L 119.470589 194.040754 
L 120.19656 194.790614 
L 120.922532 52.804301 
L 121.648504 148.166045 
L 122.374476 108.724838 
L 123.100447 181.497374 
L 123.826419 159.824952 
L 124.552391 152.820392 
L 125.278362 160.995655 
L 126.004334 74.601473 
L 126.730306 129.497506 
L 127.456277 172.596047 
L 128.182249 167.960375 
L 128.908221 77.973049 
L 129.634193 182.943651 
L 130.360164 165.825382 
L 131.086136 134.673592 
L 131.812108 185.674832 
L 132.538079 179.999386 
L 133.264051 69.380645 
L 133.990023 186.403915 
L 134.715994 86.223892 
L 135.441966 169.842857 
L 136.167938 178.474105 
L 136.89391 164.709372 
L 137.619881 186.410596 
L 138.345853 187.09191 
L 139.071825 159.989971 
L 139.797796 195.269199 
L 140.523768 57.316516 
L 141.24974 143.577736 
L 141.975711 182.597659 
L 142.701683 177.453165 
L 144.153627 202.279681 
L 144.879598 172.659707 
L 145.60557 162.501356 
L 146.331542 109.577834 
L 147.057513 183.187301 
L 147.783485 191.538596 
L 148.509457 192.802973 
L 149.235429 168.950843 
L 149.9614 172.89534 
L 150.687372 198.280214 
L 151.413344 183.439736 
L 152.139315 59.20102 
L 152.865287 145.591858 
L 153.591259 184.464442 
L 155.043202 171.717413 
L 155.769174 158.620922 
L 156.495146 158.04786 
L 157.221117 168.271769 
L 157.947089 191.116945 
L 158.673061 155.040762 
L 159.399032 184.435689 
L 160.125004 169.169386 
L 160.850976 191.526322 
L 161.576947 201.578828 
L 162.302919 158.596895 
L 163.028891 196.212062 
L 163.754863 179.445351 
L 164.480834 71.808576 
L 165.206806 193.359343 
L 165.932778 174.198479 
L 166.658749 195.455944 
L 167.384721 183.996474 
L 168.110693 207.423228 
L 168.836664 198.925059 
L 169.562636 208.927815 
L 170.288608 194.652182 
L 171.01458 100.083559 
L 171.740551 199.170884 
L 172.466523 47.394748 
L 173.192495 200.46942 
L 173.918466 188.466388 
L 174.644438 187.21925 
L 175.37041 146.757677 
L 176.096382 162.249198 
L 176.822353 173.256497 
L 177.548325 163.4809 
L 178.274297 192.076833 
L 179.000268 183.674834 
L 179.72624 163.8256 
L 180.452212 190.800526 
L 181.178183 120.003221 
L 181.904155 118.909948 
L 182.630127 101.256002 
L 183.356099 185.272174 
L 184.08207 173.817576 
L 184.808042 53.576543 
L 185.534014 177.090752 
L 186.259985 176.352057 
L 186.985957 154.795628 
L 187.711929 182.422099 
L 188.4379 187.483216 
L 189.163872 183.90044 
L 189.889844 158.000639 
L 190.615816 94.582105 
L 191.341787 188.611593 
L 192.067759 94.727863 
L 192.793731 120.640144 
L 193.519702 158.261278 
L 194.245674 93.1472 
L 196.423589 177.323653 
L 197.149561 165.659588 
L 197.875533 166.743911 
L 198.601504 97.445741 
L 199.327476 118.12273 
L 200.053448 151.29497 
L 200.779419 161.228695 
L 201.505391 76.124094 
L 202.231363 115.654584 
L 202.957335 76.191076 
L 203.683306 147.311183 
L 204.409278 146.882804 
L 205.13525 89.595811 
L 205.861221 120.161116 
L 206.587193 144.314424 
L 207.313165 96.246395 
L 208.039136 160.145176 
L 208.765108 150.597146 
L 209.49108 156.741938 
L 210.217052 167.653295 
L 210.943023 98.938307 
L 211.668995 178.943158 
L 212.394967 178.640922 
L 213.120938 153.295576 
L 213.84691 114.321162 
L 214.572882 123.776688 
L 215.298853 184.410921 
L 216.024825 176.584781 
L 216.750797 153.277569 
L 217.476769 174.070896 
L 218.20274 162.573042 
L 218.928712 167.318329 
L 219.654684 135.321121 
L 220.380655 174.386811 
L 221.106627 176.022802 
L 221.832599 159.73139 
L 222.55857 180.961487 
L 223.284542 171.620812 
L 224.010514 106.675571 
L 224.736486 190.753202 
L 225.462457 188.21151 
L 226.188429 149.118299 
L 226.914401 118.754768 
L 227.640372 183.613354 
L 228.366344 154.10582 
L 229.092316 165.459855 
L 229.818288 183.985144 
L 230.544259 152.122395 
L 231.270231 161.914894 
L 231.996203 91.775573 
L 232.722174 167.843951 
L 233.448146 157.994194 
L 234.174118 191.687603 
L 234.900089 148.550207 
L 235.626061 182.921033 
L 236.352033 153.86291 
L 237.078005 183.457353 
L 237.803976 173.918241 
L 238.529948 151.5244 
L 239.25592 177.162078 
L 239.981891 83.038079 
L 240.707863 154.572382 
L 241.433835 159.612861 
L 242.159806 186.139861 
L 242.885778 160.259872 
L 243.61175 167.48859 
L 244.337722 144.318052 
L 245.063693 184.023401 
L 245.789665 34.67267 
L 246.515637 178.135215 
L 247.241608 173.481026 
L 247.96758 62.455909 
L 248.693552 161.085665 
L 249.419523 160.001174 
L 250.145495 96.201779 
L 250.871467 161.335454 
L 251.597439 70.6437 
L 252.32341 121.976331 
L 253.049382 141.10487 
L 253.775354 155.256285 
L 254.501325 153.546616 
L 255.227297 147.991326 
L 255.953269 99.037345 
L 256.679241 114.563928 
L 257.405212 158.376007 
L 258.131184 143.856225 
L 258.857156 86.9763 
L 259.583127 170.160146 
L 260.309099 65.534003 
L 261.035071 122.499941 
L 261.761042 136.697228 
L 262.487014 90.831547 
L 263.212986 112.570908 
L 263.938958 151.543236 
L 264.664929 86.018627 
L 265.390901 138.376373 
L 266.116873 136.304501 
L 266.842844 160.599205 
L 267.568816 81.564755 
L 268.294788 163.71243 
L 269.020759 145.198178 
L 269.746731 129.626436 
L 270.472703 164.929184 
L 271.198675 147.229414 
L 271.924646 150.982149 
L 272.650618 157.104022 
L 273.37659 151.596614 
L 274.102561 103.661991 
L 274.828533 130.920082 
L 275.554505 144.280136 
L 276.280477 159.991141 
L 277.006448 148.089637 
L 277.73242 148.236229 
L 278.458392 165.337921 
L 279.184363 168.229027 
L 279.910335 158.71258 
L 280.636307 184.023319 
L 282.08825 123.030039 
L 282.814222 166.382443 
L 283.540194 92.308007 
L 284.266165 153.024549 
L 284.992137 144.351911 
L 285.718109 116.78249 
L 286.44408 161.385772 
L 287.170052 75.485458 
L 287.896024 133.407715 
L 288.621995 116.017584 
L 289.347967 153.661006 
L 290.073939 158.892191 
L 290.799911 163.132331 
L 291.525882 165.90786 
L 292.251854 173.39713 
L 292.977826 160.45159 
L 293.703797 179.2674 
L 294.429769 161.849206 
L 295.155741 179.305505 
L 295.881712 164.606901 
L 296.607684 181.751714 
L 297.333656 184.212581 
L 298.059628 187.383456 
L 298.785599 189.815243 
L 299.511571 197.13425 
L 300.237543 169.511804 
L 300.963514 190.868748 
L 301.689486 84.366543 
L 302.415458 194.107735 
L 303.14143 162.742103 
L 304.593373 198.377793 
L 305.319345 193.311462 
L 306.771288 118.765089 
L 307.49726 158.230537 
L 308.223231 74.187888 
L 308.949203 133.241509 
L 309.675175 117.419203 
L 310.401147 174.165322 
L 311.127118 165.600884 
L 311.85309 174.694428 
L 312.579062 166.547522 
L 313.305033 161.416998 
L 314.031005 164.543844 
L 314.756977 176.163586 
L 315.482948 179.543652 
L 316.20892 181.521779 
L 316.934892 161.627347 
L 317.660864 170.117932 
L 318.386835 87.146267 
L 319.112807 182.859301 
L 319.838779 177.937923 
L 320.56475 169.88013 
L 321.290722 156.399866 
L 322.016694 184.423531 
L 322.742665 94.110491 
L 323.468637 135.634338 
L 324.194609 165.252806 
L 324.920581 177.065532 
L 325.646552 182.351546 
L 326.372524 111.84642 
L 327.098496 121.104779 
L 327.824467 126.016872 
L 328.550439 170.705525 
L 329.276411 136.00608 
L 330.002383 165.015134 
L 330.728354 73.48915 
L 331.454326 162.418703 
L 332.180298 161.943737 
L 332.906269 109.155699 
L 333.632241 170.118706 
L 334.358213 150.413571 
L 335.084184 103.645769 
L 335.810156 123.704594 
L 336.536128 154.009907 
L 337.2621 91.514418 
L 337.988071 116.844099 
L 338.714043 97.191917 
L 339.440015 112.556159 
L 340.165986 150.317471 
L 340.891958 136.75619 
L 341.61793 92.257141 
L 342.343901 117.950493 
L 343.069873 153.594678 
L 343.795845 140.951649 
L 344.521817 88.910784 
L 345.247788 156.610907 
L 346.699732 88.22185 
L 347.425703 161.612229 
L 348.151675 57.68384 
L 348.877647 148.590089 
L 349.603618 70.868087 
L 350.32959 106.006822 
L 351.055562 101.783272 
L 351.781534 105.684095 
L 352.507505 131.628113 
L 353.233477 131.858898 
L 353.959449 97.784216 
L 354.68542 136.899721 
L 355.411392 145.91252 
L 356.137364 77.915843 
L 356.863336 139.563248 
L 357.589307 91.174098 
L 358.315279 149.619739 
L 359.041251 132.774225 
L 359.767222 132.573862 
L 360.493194 127.762435 
L 361.219166 153.559824 
L 361.945137 158.319912 
L 362.671109 96.093055 
L 363.397081 110.255261 
L 364.123053 154.499529 
L 364.849024 109.108098 
L 365.574996 97.300045 
L 366.300968 109.513664 
L 367.026939 143.741774 
L 367.752911 137.764974 
L 368.478883 134.481679 
L 369.204854 143.976265 
L 369.930826 99.362828 
L 370.656798 140.224745 
L 371.38277 90.560131 
L 372.108741 106.224943 
L 372.834713 136.547428 
L 373.560685 99.209832 
L 374.286656 145.7462 
L 375.012628 141.069786 
L 375.7386 105.041388 
L 376.464571 99.367693 
L 377.190543 102.237876 
L 377.916515 140.543441 
L 378.642487 129.30694 
L 379.368458 90.769765 
L 380.09443 136.919973 
L 380.820402 131.75887 
L 381.546373 132.914722 
L 382.272345 145.111756 
L 382.998317 134.492404 
L 383.724289 155.402294 
L 384.45026 140.779163 
L 385.176232 117.166195 
L 385.902204 149.333711 
L 386.628175 134.370208 
L 387.354147 105.416386 
L 388.080119 144.944555 
L 388.80609 106.504997 
L 389.532062 134.086335 
L 390.258034 138.031757 
L 390.984006 97.518562 
L 391.709977 114.593191 
L 392.435949 139.275283 
L 393.161921 136.204395 
L 393.887892 129.504419 
L 394.613864 149.540502 
L 395.339836 148.119247 
L 396.065807 117.171204 
L 396.791779 116.340797 
L 397.517751 145.473865 
L 398.243723 145.068781 
L 398.969694 143.883032 
L 399.695666 149.047621 
L 400.421638 151.67289 
L 401.147609 137.313205 
L 401.873581 161.665416 
L 402.599553 147.929469 
L 403.325524 121.847804 
L 404.051496 166.161003 
L 404.777468 150.29344 
L 405.50344 157.241268 
L 406.229411 159.545968 
L 406.955383 164.538846 
L 407.681355 165.253987 
L 408.407326 161.111571 
L 409.133298 161.988139 
L 409.85927 121.726327 
L 410.585242 162.844594 
L 411.311213 110.769831 
L 412.037185 160.640284 
L 412.763157 159.405837 
L 413.489128 112.187537 
L 414.2151 158.23048 
L 414.941072 157.079952 
L 415.667043 149.014093 
L 416.393015 159.429651 
L 417.118987 165.435436 
L 417.844959 121.225459 
L 418.57093 156.778405 
L 419.296902 154.448181 
L 420.022874 109.647457 
L 420.748845 150.61348 
L 421.474817 143.6536 
L 422.200789 152.676242 
L 422.92676 107.874353 
L 423.652732 117.577181 
L 424.378704 108.457208 
L 425.104676 104.143447 
L 425.830647 105.615382 
L 426.556619 125.705329 
L 427.282591 104.909163 
L 428.008562 105.208701 
L 428.734534 98.740766 
L 429.460506 119.69693 
L 430.186477 97.664362 
L 430.912449 116.640488 
L 431.638421 98.077543 
L 432.364393 125.03855 
L 433.090364 122.41821 
L 433.816336 127.481651 
L 434.542308 97.291287 
L 435.268279 101.700896 
L 435.994251 102.260518 
L 436.720223 118.693339 
L 437.446195 98.29198 
L 438.172166 115.210779 
L 438.898138 100.724619 
L 439.62411 115.622809 
L 440.350081 93.312122 
L 441.076053 99.066313 
L 441.802025 94.828363 
L 442.527996 85.576282 
L 443.253968 104.479271 
L 443.97994 85.612442 
L 444.705912 105.489168 
L 445.431883 94.125 
L 446.157855 114.308395 
L 446.883827 88.577356 
L 447.609798 111.253191 
L 448.33577 106.068627 
L 449.061742 88.500164 
L 450.513685 81.209178 
L 451.239657 91.5765 
L 451.965629 82.225829 
L 452.6916 85.790825 
L 453.417572 99.476587 
L 454.143544 89.160624 
L 454.869515 96.729592 
L 455.595487 97.13885 
L 456.321459 100.620664 
L 457.04743 89.428258 
L 457.773402 85.251232 
L 458.499374 97.546231 
L 459.225346 103.472259 
L 459.951317 89.249752 
L 460.677289 90.418202 
L 461.403261 85.467415 
L 462.129232 98.770498 
L 462.855204 96.309495 
L 463.581176 87.203273 
L 464.307148 85.925486 
L 465.033119 81.108936 
L 465.759091 77.852024 
L 465.759091 77.852024 
" style="fill:none;stroke:#000000;stroke-dasharray:3.7,1.6;stroke-dashoffset:0;"/>
   </g>
   <g id="matplotlib.axis_1">
    <g id="xtick_1">
     <g id="line2d_3">
      <defs>
       <path d="M 0 0 
L 0 3.5 
" id="m4a0076014c" style="stroke:#000000;stroke-width:0.8;"/>
      </defs>
      <g>
       <use style="stroke:#000000;stroke-width:0.8;" x="80.994088" xlink:href="#m4a0076014c" y="294.118125"/>
      </g>
     </g>
     <g id="text_1">
      <!-- 100 -->
      <defs>
       <path d="M 12.40625 8.296875 
L 28.515625 8.296875 
L 28.515625 63.921875 
L 10.984375 60.40625 
L 10.984375 69.390625 
L 28.421875 72.90625 
L 38.28125 72.90625 
L 38.28125 8.296875 
L 54.390625 8.296875 
L 54.390625 0 
L 12.40625 0 
z
" id="DejaVuSans-49"/>
       <path d="M 31.78125 66.40625 
Q 24.171875 66.40625 20.328125 58.90625 
Q 16.5 51.421875 16.5 36.375 
Q 16.5 21.390625 20.328125 13.890625 
Q 24.171875 6.390625 31.78125 6.390625 
Q 39.453125 6.390625 43.28125 13.890625 
Q 47.125 21.390625 47.125 36.375 
Q 47.125 51.421875 43.28125 58.90625 
Q 39.453125 66.40625 31.78125 66.40625 
z
M 31.78125 74.21875 
Q 44.046875 74.21875 50.515625 64.515625 
Q 56.984375 54.828125 56.984375 36.375 
Q 56.984375 17.96875 50.515625 8.265625 
Q 44.046875 -1.421875 31.78125 -1.421875 
Q 19.53125 -1.421875 13.0625 8.265625 
Q 6.59375 17.96875 6.59375 36.375 
Q 6.59375 54.828125 13.0625 64.515625 
Q 19.53125 74.21875 31.78125 74.21875 
z
" id="DejaVuSans-48"/>
      </defs>
      <g transform="translate(71.450338 308.716563)scale(0.1 -0.1)">
       <use xlink:href="#DejaVuSans-49"/>
       <use x="63.623047" xlink:href="#DejaVuSans-48"/>
       <use x="127.246094" xlink:href="#DejaVuSans-48"/>
      </g>
     </g>
    </g>
    <g id="xtick_2">
     <g id="line2d_4">
      <g>
       <use style="stroke:#000000;stroke-width:0.8;" x="153.591259" xlink:href="#m4a0076014c" y="294.118125"/>
      </g>
     </g>
     <g id="text_2">
      <!-- 200 -->
      <defs>
       <path d="M 19.1875 8.296875 
L 53.609375 8.296875 
L 53.609375 0 
L 7.328125 0 
L 7.328125 8.296875 
Q 12.9375 14.109375 22.625 23.890625 
Q 32.328125 33.6875 34.8125 36.53125 
Q 39.546875 41.84375 41.421875 45.53125 
Q 43.3125 49.21875 43.3125 52.78125 
Q 43.3125 58.59375 39.234375 62.25 
Q 35.15625 65.921875 28.609375 65.921875 
Q 23.96875 65.921875 18.8125 64.3125 
Q 13.671875 62.703125 7.8125 59.421875 
L 7.8125 69.390625 
Q 13.765625 71.78125 18.9375 73 
Q 24.125 74.21875 28.421875 74.21875 
Q 39.75 74.21875 46.484375 68.546875 
Q 53.21875 62.890625 53.21875 53.421875 
Q 53.21875 48.921875 51.53125 44.890625 
Q 49.859375 40.875 45.40625 35.40625 
Q 44.1875 33.984375 37.640625 27.21875 
Q 31.109375 20.453125 19.1875 8.296875 
z
" id="DejaVuSans-50"/>
      </defs>
      <g transform="translate(144.047509 308.716563)scale(0.1 -0.1)">
       <use xlink:href="#DejaVuSans-50"/>
       <use x="63.623047" xlink:href="#DejaVuSans-48"/>
       <use x="127.246094" xlink:href="#DejaVuSans-48"/>
      </g>
     </g>
    </g>
    <g id="xtick_3">
     <g id="line2d_5">
      <g>
       <use style="stroke:#000000;stroke-width:0.8;" x="226.188429" xlink:href="#m4a0076014c" y="294.118125"/>
      </g>
     </g>
     <g id="text_3">
      <!-- 300 -->
      <defs>
       <path d="M 40.578125 39.3125 
Q 47.65625 37.796875 51.625 33 
Q 55.609375 28.21875 55.609375 21.1875 
Q 55.609375 10.40625 48.1875 4.484375 
Q 40.765625 -1.421875 27.09375 -1.421875 
Q 22.515625 -1.421875 17.65625 -0.515625 
Q 12.796875 0.390625 7.625 2.203125 
L 7.625 11.71875 
Q 11.71875 9.328125 16.59375 8.109375 
Q 21.484375 6.890625 26.8125 6.890625 
Q 36.078125 6.890625 40.9375 10.546875 
Q 45.796875 14.203125 45.796875 21.1875 
Q 45.796875 27.640625 41.28125 31.265625 
Q 36.765625 34.90625 28.71875 34.90625 
L 20.21875 34.90625 
L 20.21875 43.015625 
L 29.109375 43.015625 
Q 36.375 43.015625 40.234375 45.921875 
Q 44.09375 48.828125 44.09375 54.296875 
Q 44.09375 59.90625 40.109375 62.90625 
Q 36.140625 65.921875 28.71875 65.921875 
Q 24.65625 65.921875 20.015625 65.03125 
Q 15.375 64.15625 9.8125 62.3125 
L 9.8125 71.09375 
Q 15.4375 72.65625 20.34375 73.4375 
Q 25.25 74.21875 29.59375 74.21875 
Q 40.828125 74.21875 47.359375 69.109375 
Q 53.90625 64.015625 53.90625 55.328125 
Q 53.90625 49.265625 50.4375 45.09375 
Q 46.96875 40.921875 40.578125 39.3125 
z
" id="DejaVuSans-51"/>
      </defs>
      <g transform="translate(216.644679 308.716563)scale(0.1 -0.1)">
       <use xlink:href="#DejaVuSans-51"/>
       <use x="63.623047" xlink:href="#DejaVuSans-48"/>
       <use x="127.246094" xlink:href="#DejaVuSans-48"/>
      </g>
     </g>
    </g>
    <g id="xtick_4">
     <g id="line2d_6">
      <g>
       <use style="stroke:#000000;stroke-width:0.8;" x="298.785599" xlink:href="#m4a0076014c" y="294.118125"/>
      </g>
     </g>
     <g id="text_4">
      <!-- 400 -->
      <defs>
       <path d="M 37.796875 64.3125 
L 12.890625 25.390625 
L 37.796875 25.390625 
z
M 35.203125 72.90625 
L 47.609375 72.90625 
L 47.609375 25.390625 
L 58.015625 25.390625 
L 58.015625 17.1875 
L 47.609375 17.1875 
L 47.609375 0 
L 37.796875 0 
L 37.796875 17.1875 
L 4.890625 17.1875 
L 4.890625 26.703125 
z
" id="DejaVuSans-52"/>
      </defs>
      <g transform="translate(289.241849 308.716563)scale(0.1 -0.1)">
       <use xlink:href="#DejaVuSans-52"/>
       <use x="63.623047" xlink:href="#DejaVuSans-48"/>
       <use x="127.246094" xlink:href="#DejaVuSans-48"/>
      </g>
     </g>
    </g>
    <g id="xtick_5">
     <g id="line2d_7">
      <g>
       <use style="stroke:#000000;stroke-width:0.8;" x="371.38277" xlink:href="#m4a0076014c" y="294.118125"/>
      </g>
     </g>
     <g id="text_5">
      <!-- 500 -->
      <defs>
       <path d="M 10.796875 72.90625 
L 49.515625 72.90625 
L 49.515625 64.59375 
L 19.828125 64.59375 
L 19.828125 46.734375 
Q 21.96875 47.46875 24.109375 47.828125 
Q 26.265625 48.1875 28.421875 48.1875 
Q 40.625 48.1875 47.75 41.5 
Q 54.890625 34.8125 54.890625 23.390625 
Q 54.890625 11.625 47.5625 5.09375 
Q 40.234375 -1.421875 26.90625 -1.421875 
Q 22.3125 -1.421875 17.546875 -0.640625 
Q 12.796875 0.140625 7.71875 1.703125 
L 7.71875 11.625 
Q 12.109375 9.234375 16.796875 8.0625 
Q 21.484375 6.890625 26.703125 6.890625 
Q 35.15625 6.890625 40.078125 11.328125 
Q 45.015625 15.765625 45.015625 23.390625 
Q 45.015625 31 40.078125 35.4375 
Q 35.15625 39.890625 26.703125 39.890625 
Q 22.75 39.890625 18.8125 39.015625 
Q 14.890625 38.140625 10.796875 36.28125 
z
" id="DejaVuSans-53"/>
      </defs>
      <g transform="translate(361.83902 308.716563)scale(0.1 -0.1)">
       <use xlink:href="#DejaVuSans-53"/>
       <use x="63.623047" xlink:href="#DejaVuSans-48"/>
       <use x="127.246094" xlink:href="#DejaVuSans-48"/>
      </g>
     </g>
    </g>
    <g id="xtick_6">
     <g id="line2d_8">
      <g>
       <use style="stroke:#000000;stroke-width:0.8;" x="443.97994" xlink:href="#m4a0076014c" y="294.118125"/>
      </g>
     </g>
     <g id="text_6">
      <!-- 600 -->
      <defs>
       <path d="M 33.015625 40.375 
Q 26.375 40.375 22.484375 35.828125 
Q 18.609375 31.296875 18.609375 23.390625 
Q 18.609375 15.53125 22.484375 10.953125 
Q 26.375 6.390625 33.015625 6.390625 
Q 39.65625 6.390625 43.53125 10.953125 
Q 47.40625 15.53125 47.40625 23.390625 
Q 47.40625 31.296875 43.53125 35.828125 
Q 39.65625 40.375 33.015625 40.375 
z
M 52.59375 71.296875 
L 52.59375 62.3125 
Q 48.875 64.0625 45.09375 64.984375 
Q 41.3125 65.921875 37.59375 65.921875 
Q 27.828125 65.921875 22.671875 59.328125 
Q 17.53125 52.734375 16.796875 39.40625 
Q 19.671875 43.65625 24.015625 45.921875 
Q 28.375 48.1875 33.59375 48.1875 
Q 44.578125 48.1875 50.953125 41.515625 
Q 57.328125 34.859375 57.328125 23.390625 
Q 57.328125 12.15625 50.6875 5.359375 
Q 44.046875 -1.421875 33.015625 -1.421875 
Q 20.359375 -1.421875 13.671875 8.265625 
Q 6.984375 17.96875 6.984375 36.375 
Q 6.984375 53.65625 15.1875 63.9375 
Q 23.390625 74.21875 37.203125 74.21875 
Q 40.921875 74.21875 44.703125 73.484375 
Q 48.484375 72.75 52.59375 71.296875 
z
" id="DejaVuSans-54"/>
      </defs>
      <g transform="translate(434.43619 308.716563)scale(0.1 -0.1)">
       <use xlink:href="#DejaVuSans-54"/>
       <use x="63.623047" xlink:href="#DejaVuSans-48"/>
       <use x="127.246094" xlink:href="#DejaVuSans-48"/>
      </g>
     </g>
    </g>
    <g id="text_7">
     <!-- Tempo -->
     <defs>
      <path d="M -0.296875 72.90625 
L 61.375 72.90625 
L 61.375 64.59375 
L 35.5 64.59375 
L 35.5 0 
L 25.59375 0 
L 25.59375 64.59375 
L -0.296875 64.59375 
z
" id="DejaVuSans-84"/>
      <path d="M 56.203125 29.59375 
L 56.203125 25.203125 
L 14.890625 25.203125 
Q 15.484375 15.921875 20.484375 11.0625 
Q 25.484375 6.203125 34.421875 6.203125 
Q 39.59375 6.203125 44.453125 7.46875 
Q 49.3125 8.734375 54.109375 11.28125 
L 54.109375 2.78125 
Q 49.265625 0.734375 44.1875 -0.34375 
Q 39.109375 -1.421875 33.890625 -1.421875 
Q 20.796875 -1.421875 13.15625 6.1875 
Q 5.515625 13.8125 5.515625 26.8125 
Q 5.515625 40.234375 12.765625 48.109375 
Q 20.015625 56 32.328125 56 
Q 43.359375 56 49.78125 48.890625 
Q 56.203125 41.796875 56.203125 29.59375 
z
M 47.21875 32.234375 
Q 47.125 39.59375 43.09375 43.984375 
Q 39.0625 48.390625 32.421875 48.390625 
Q 24.90625 48.390625 20.390625 44.140625 
Q 15.875 39.890625 15.1875 32.171875 
z
" id="DejaVuSans-101"/>
      <path d="M 52 44.1875 
Q 55.375 50.25 60.0625 53.125 
Q 64.75 56 71.09375 56 
Q 79.640625 56 84.28125 50.015625 
Q 88.921875 44.046875 88.921875 33.015625 
L 88.921875 0 
L 79.890625 0 
L 79.890625 32.71875 
Q 79.890625 40.578125 77.09375 44.375 
Q 74.3125 48.1875 68.609375 48.1875 
Q 61.625 48.1875 57.5625 43.546875 
Q 53.515625 38.921875 53.515625 30.90625 
L 53.515625 0 
L 44.484375 0 
L 44.484375 32.71875 
Q 44.484375 40.625 41.703125 44.40625 
Q 38.921875 48.1875 33.109375 48.1875 
Q 26.21875 48.1875 22.15625 43.53125 
Q 18.109375 38.875 18.109375 30.90625 
L 18.109375 0 
L 9.078125 0 
L 9.078125 54.6875 
L 18.109375 54.6875 
L 18.109375 46.1875 
Q 21.1875 51.21875 25.484375 53.609375 
Q 29.78125 56 35.6875 56 
Q 41.65625 56 45.828125 52.96875 
Q 50 49.953125 52 44.1875 
z
" id="DejaVuSans-109"/>
      <path d="M 18.109375 8.203125 
L 18.109375 -20.796875 
L 9.078125 -20.796875 
L 9.078125 54.6875 
L 18.109375 54.6875 
L 18.109375 46.390625 
Q 20.953125 51.265625 25.265625 53.625 
Q 29.59375 56 35.59375 56 
Q 45.5625 56 51.78125 48.09375 
Q 58.015625 40.1875 58.015625 27.296875 
Q 58.015625 14.40625 51.78125 6.484375 
Q 45.5625 -1.421875 35.59375 -1.421875 
Q 29.59375 -1.421875 25.265625 0.953125 
Q 20.953125 3.328125 18.109375 8.203125 
z
M 48.6875 27.296875 
Q 48.6875 37.203125 44.609375 42.84375 
Q 40.53125 48.484375 33.40625 48.484375 
Q 26.265625 48.484375 22.1875 42.84375 
Q 18.109375 37.203125 18.109375 27.296875 
Q 18.109375 17.390625 22.1875 11.75 
Q 26.265625 6.109375 33.40625 6.109375 
Q 40.53125 6.109375 44.609375 11.75 
Q 48.6875 17.390625 48.6875 27.296875 
z
" id="DejaVuSans-112"/>
      <path d="M 30.609375 48.390625 
Q 23.390625 48.390625 19.1875 42.75 
Q 14.984375 37.109375 14.984375 27.296875 
Q 14.984375 17.484375 19.15625 11.84375 
Q 23.34375 6.203125 30.609375 6.203125 
Q 37.796875 6.203125 41.984375 11.859375 
Q 46.1875 17.53125 46.1875 27.296875 
Q 46.1875 37.015625 41.984375 42.703125 
Q 37.796875 48.390625 30.609375 48.390625 
z
M 30.609375 56 
Q 42.328125 56 49.015625 48.375 
Q 55.71875 40.765625 55.71875 27.296875 
Q 55.71875 13.875 49.015625 6.21875 
Q 42.328125 -1.421875 30.609375 -1.421875 
Q 18.84375 -1.421875 12.171875 6.21875 
Q 5.515625 13.875 5.515625 27.296875 
Q 5.515625 40.765625 12.171875 48.375 
Q 18.84375 56 30.609375 56 
z
" id="DejaVuSans-111"/>
     </defs>
     <g transform="translate(246.465625 322.394687)scale(0.1 -0.1)">
      <use xlink:href="#DejaVuSans-84"/>
      <use x="44.083984" xlink:href="#DejaVuSans-101"/>
      <use x="105.607422" xlink:href="#DejaVuSans-109"/>
      <use x="203.019531" xlink:href="#DejaVuSans-112"/>
      <use x="266.496094" xlink:href="#DejaVuSans-111"/>
     </g>
    </g>
   </g>
   <g id="matplotlib.axis_2">
    <g id="ytick_1">
     <g id="line2d_9">
      <defs>
       <path d="M 0 0 
L -3.5 0 
" id="m7e0a5867d4" style="stroke:#000000;stroke-width:0.8;"/>
      </defs>
      <g>
       <use style="stroke:#000000;stroke-width:0.8;" x="39.65" xlink:href="#m7e0a5867d4" y="265.533404"/>
      </g>
     </g>
     <g id="text_8">
      <!-- 250 -->
      <g transform="translate(13.5625 269.332622)scale(0.1 -0.1)">
       <use xlink:href="#DejaVuSans-50"/>
       <use x="63.623047" xlink:href="#DejaVuSans-53"/>
       <use x="127.246094" xlink:href="#DejaVuSans-48"/>
      </g>
     </g>
    </g>
    <g id="ytick_2">
     <g id="line2d_10">
      <g>
       <use style="stroke:#000000;stroke-width:0.8;" x="39.65" xlink:href="#m7e0a5867d4" y="230.678365"/>
      </g>
     </g>
     <g id="text_9">
      <!-- 500 -->
      <g transform="translate(13.5625 234.477584)scale(0.1 -0.1)">
       <use xlink:href="#DejaVuSans-53"/>
       <use x="63.623047" xlink:href="#DejaVuSans-48"/>
       <use x="127.246094" xlink:href="#DejaVuSans-48"/>
      </g>
     </g>
    </g>
    <g id="ytick_3">
     <g id="line2d_11">
      <g>
       <use style="stroke:#000000;stroke-width:0.8;" x="39.65" xlink:href="#m7e0a5867d4" y="195.823327"/>
      </g>
     </g>
     <g id="text_10">
      <!-- 750 -->
      <defs>
       <path d="M 8.203125 72.90625 
L 55.078125 72.90625 
L 55.078125 68.703125 
L 28.609375 0 
L 18.3125 0 
L 43.21875 64.59375 
L 8.203125 64.59375 
z
" id="DejaVuSans-55"/>
      </defs>
      <g transform="translate(13.5625 199.622546)scale(0.1 -0.1)">
       <use xlink:href="#DejaVuSans-55"/>
       <use x="63.623047" xlink:href="#DejaVuSans-53"/>
       <use x="127.246094" xlink:href="#DejaVuSans-48"/>
      </g>
     </g>
    </g>
    <g id="ytick_4">
     <g id="line2d_12">
      <g>
       <use style="stroke:#000000;stroke-width:0.8;" x="39.65" xlink:href="#m7e0a5867d4" y="160.968289"/>
      </g>
     </g>
     <g id="text_11">
      <!-- 1000 -->
      <g transform="translate(7.2 164.767507)scale(0.1 -0.1)">
       <use xlink:href="#DejaVuSans-49"/>
       <use x="63.623047" xlink:href="#DejaVuSans-48"/>
       <use x="127.246094" xlink:href="#DejaVuSans-48"/>
       <use x="190.869141" xlink:href="#DejaVuSans-48"/>
      </g>
     </g>
    </g>
    <g id="ytick_5">
     <g id="line2d_13">
      <g>
       <use style="stroke:#000000;stroke-width:0.8;" x="39.65" xlink:href="#m7e0a5867d4" y="126.11325"/>
      </g>
     </g>
     <g id="text_12">
      <!-- 1250 -->
      <g transform="translate(7.2 129.912469)scale(0.1 -0.1)">
       <use xlink:href="#DejaVuSans-49"/>
       <use x="63.623047" xlink:href="#DejaVuSans-50"/>
       <use x="127.246094" xlink:href="#DejaVuSans-53"/>
       <use x="190.869141" xlink:href="#DejaVuSans-48"/>
      </g>
     </g>
    </g>
    <g id="ytick_6">
     <g id="line2d_14">
      <g>
       <use style="stroke:#000000;stroke-width:0.8;" x="39.65" xlink:href="#m7e0a5867d4" y="91.258212"/>
      </g>
     </g>
     <g id="text_13">
      <!-- 1500 -->
      <g transform="translate(7.2 95.057431)scale(0.1 -0.1)">
       <use xlink:href="#DejaVuSans-49"/>
       <use x="63.623047" xlink:href="#DejaVuSans-53"/>
       <use x="127.246094" xlink:href="#DejaVuSans-48"/>
       <use x="190.869141" xlink:href="#DejaVuSans-48"/>
      </g>
     </g>
    </g>
    <g id="ytick_7">
     <g id="line2d_15">
      <g>
       <use style="stroke:#000000;stroke-width:0.8;" x="39.65" xlink:href="#m7e0a5867d4" y="56.403174"/>
      </g>
     </g>
     <g id="text_14">
      <!-- 1750 -->
      <g transform="translate(7.2 60.202393)scale(0.1 -0.1)">
       <use xlink:href="#DejaVuSans-49"/>
       <use x="63.623047" xlink:href="#DejaVuSans-55"/>
       <use x="127.246094" xlink:href="#DejaVuSans-53"/>
       <use x="190.869141" xlink:href="#DejaVuSans-48"/>
      </g>
     </g>
    </g>
   </g>
   <g id="patch_3">
    <path d="M 39.65 294.118125 
L 39.65 22.318125 
" style="fill:none;stroke:#000000;stroke-linecap:square;stroke-linejoin:miter;stroke-width:0.8;"/>
   </g>
   <g id="patch_4">
    <path d="M 39.65 294.118125 
L 486.05 294.118125 
" style="fill:none;stroke:#000000;stroke-linecap:square;stroke-linejoin:miter;stroke-width:0.8;"/>
   </g>
   <g id="text_15">
    <!-- Cw_total -->
    <defs>
     <path d="M 64.40625 67.28125 
L 64.40625 56.890625 
Q 59.421875 61.53125 53.78125 63.8125 
Q 48.140625 66.109375 41.796875 66.109375 
Q 29.296875 66.109375 22.65625 58.46875 
Q 16.015625 50.828125 16.015625 36.375 
Q 16.015625 21.96875 22.65625 14.328125 
Q 29.296875 6.6875 41.796875 6.6875 
Q 48.140625 6.6875 53.78125 8.984375 
Q 59.421875 11.28125 64.40625 15.921875 
L 64.40625 5.609375 
Q 59.234375 2.09375 53.4375 0.328125 
Q 47.65625 -1.421875 41.21875 -1.421875 
Q 24.65625 -1.421875 15.125 8.703125 
Q 5.609375 18.84375 5.609375 36.375 
Q 5.609375 53.953125 15.125 64.078125 
Q 24.65625 74.21875 41.21875 74.21875 
Q 47.75 74.21875 53.53125 72.484375 
Q 59.328125 70.75 64.40625 67.28125 
z
" id="DejaVuSans-67"/>
     <path d="M 4.203125 54.6875 
L 13.1875 54.6875 
L 24.421875 12.015625 
L 35.59375 54.6875 
L 46.1875 54.6875 
L 57.421875 12.015625 
L 68.609375 54.6875 
L 77.59375 54.6875 
L 63.28125 0 
L 52.6875 0 
L 40.921875 44.828125 
L 29.109375 0 
L 18.5 0 
z
" id="DejaVuSans-119"/>
     <path d="M 50.984375 -16.609375 
L 50.984375 -23.578125 
L -0.984375 -23.578125 
L -0.984375 -16.609375 
z
" id="DejaVuSans-95"/>
     <path d="M 18.3125 70.21875 
L 18.3125 54.6875 
L 36.8125 54.6875 
L 36.8125 47.703125 
L 18.3125 47.703125 
L 18.3125 18.015625 
Q 18.3125 11.328125 20.140625 9.421875 
Q 21.96875 7.515625 27.59375 7.515625 
L 36.8125 7.515625 
L 36.8125 0 
L 27.59375 0 
Q 17.1875 0 13.234375 3.875 
Q 9.28125 7.765625 9.28125 18.015625 
L 9.28125 47.703125 
L 2.6875 47.703125 
L 2.6875 54.6875 
L 9.28125 54.6875 
L 9.28125 70.21875 
z
" id="DejaVuSans-116"/>
     <path d="M 34.28125 27.484375 
Q 23.390625 27.484375 19.1875 25 
Q 14.984375 22.515625 14.984375 16.5 
Q 14.984375 11.71875 18.140625 8.90625 
Q 21.296875 6.109375 26.703125 6.109375 
Q 34.1875 6.109375 38.703125 11.40625 
Q 43.21875 16.703125 43.21875 25.484375 
L 43.21875 27.484375 
z
M 52.203125 31.203125 
L 52.203125 0 
L 43.21875 0 
L 43.21875 8.296875 
Q 40.140625 3.328125 35.546875 0.953125 
Q 30.953125 -1.421875 24.3125 -1.421875 
Q 15.921875 -1.421875 10.953125 3.296875 
Q 6 8.015625 6 15.921875 
Q 6 25.140625 12.171875 29.828125 
Q 18.359375 34.515625 30.609375 34.515625 
L 43.21875 34.515625 
L 43.21875 35.40625 
Q 43.21875 41.609375 39.140625 45 
Q 35.0625 48.390625 27.6875 48.390625 
Q 23 48.390625 18.546875 47.265625 
Q 14.109375 46.140625 10.015625 43.890625 
L 10.015625 52.203125 
Q 14.9375 54.109375 19.578125 55.046875 
Q 24.21875 56 28.609375 56 
Q 40.484375 56 46.34375 49.84375 
Q 52.203125 43.703125 52.203125 31.203125 
z
" id="DejaVuSans-97"/>
     <path d="M 9.421875 75.984375 
L 18.40625 75.984375 
L 18.40625 0 
L 9.421875 0 
z
" id="DejaVuSans-108"/>
    </defs>
    <g transform="translate(237.034063 16.318125)scale(0.12 -0.12)">
     <use xlink:href="#DejaVuSans-67"/>
     <use x="69.824219" xlink:href="#DejaVuSans-119"/>
     <use x="151.611328" xlink:href="#DejaVuSans-95"/>
     <use x="201.611328" xlink:href="#DejaVuSans-116"/>
     <use x="240.820312" xlink:href="#DejaVuSans-111"/>
     <use x="302.001953" xlink:href="#DejaVuSans-116"/>
     <use x="341.210938" xlink:href="#DejaVuSans-97"/>
     <use x="402.490234" xlink:href="#DejaVuSans-108"/>
    </g>
   </g>
   <g id="legend_1">
    <g id="patch_5">
     <path d="M 493.05 174.457188 
L 584.95 174.457188 
Q 586.95 174.457188 586.95 172.457188 
L 586.95 143.979063 
Q 586.95 141.979063 584.95 141.979063 
L 493.05 141.979063 
Q 491.05 141.979063 491.05 143.979063 
L 491.05 172.457188 
Q 491.05 174.457188 493.05 174.457188 
z
" style="fill:#ffffff;opacity:0.8;stroke:#cccccc;stroke-linejoin:miter;"/>
    </g>
    <g id="line2d_16">
     <path d="M 495.05 150.0775 
L 515.05 150.0775 
" style="fill:none;stroke:#000000;stroke-dasharray:3.7,1.6;stroke-dashoffset:0;"/>
    </g>
    <g id="line2d_17"/>
    <g id="text_16">
     <!-- Baseline -->
     <defs>
      <path d="M 19.671875 34.8125 
L 19.671875 8.109375 
L 35.5 8.109375 
Q 43.453125 8.109375 47.28125 11.40625 
Q 51.125 14.703125 51.125 21.484375 
Q 51.125 28.328125 47.28125 31.5625 
Q 43.453125 34.8125 35.5 34.8125 
z
M 19.671875 64.796875 
L 19.671875 42.828125 
L 34.28125 42.828125 
Q 41.5 42.828125 45.03125 45.53125 
Q 48.578125 48.25 48.578125 53.8125 
Q 48.578125 59.328125 45.03125 62.0625 
Q 41.5 64.796875 34.28125 64.796875 
z
M 9.8125 72.90625 
L 35.015625 72.90625 
Q 46.296875 72.90625 52.390625 68.21875 
Q 58.5 63.53125 58.5 54.890625 
Q 58.5 48.1875 55.375 44.234375 
Q 52.25 40.28125 46.1875 39.3125 
Q 53.46875 37.75 57.5 32.78125 
Q 61.53125 27.828125 61.53125 20.40625 
Q 61.53125 10.640625 54.890625 5.3125 
Q 48.25 0 35.984375 0 
L 9.8125 0 
z
" id="DejaVuSans-66"/>
      <path d="M 44.28125 53.078125 
L 44.28125 44.578125 
Q 40.484375 46.53125 36.375 47.5 
Q 32.28125 48.484375 27.875 48.484375 
Q 21.1875 48.484375 17.84375 46.4375 
Q 14.5 44.390625 14.5 40.28125 
Q 14.5 37.15625 16.890625 35.375 
Q 19.28125 33.59375 26.515625 31.984375 
L 29.59375 31.296875 
Q 39.15625 29.25 43.1875 25.515625 
Q 47.21875 21.78125 47.21875 15.09375 
Q 47.21875 7.46875 41.1875 3.015625 
Q 35.15625 -1.421875 24.609375 -1.421875 
Q 20.21875 -1.421875 15.453125 -0.5625 
Q 10.6875 0.296875 5.421875 2 
L 5.421875 11.28125 
Q 10.40625 8.6875 15.234375 7.390625 
Q 20.0625 6.109375 24.8125 6.109375 
Q 31.15625 6.109375 34.5625 8.28125 
Q 37.984375 10.453125 37.984375 14.40625 
Q 37.984375 18.0625 35.515625 20.015625 
Q 33.0625 21.96875 24.703125 23.78125 
L 21.578125 24.515625 
Q 13.234375 26.265625 9.515625 29.90625 
Q 5.8125 33.546875 5.8125 39.890625 
Q 5.8125 47.609375 11.28125 51.796875 
Q 16.75 56 26.8125 56 
Q 31.78125 56 36.171875 55.265625 
Q 40.578125 54.546875 44.28125 53.078125 
z
" id="DejaVuSans-115"/>
      <path d="M 9.421875 54.6875 
L 18.40625 54.6875 
L 18.40625 0 
L 9.421875 0 
z
M 9.421875 75.984375 
L 18.40625 75.984375 
L 18.40625 64.59375 
L 9.421875 64.59375 
z
" id="DejaVuSans-105"/>
      <path d="M 54.890625 33.015625 
L 54.890625 0 
L 45.90625 0 
L 45.90625 32.71875 
Q 45.90625 40.484375 42.875 44.328125 
Q 39.84375 48.1875 33.796875 48.1875 
Q 26.515625 48.1875 22.3125 43.546875 
Q 18.109375 38.921875 18.109375 30.90625 
L 18.109375 0 
L 9.078125 0 
L 9.078125 54.6875 
L 18.109375 54.6875 
L 18.109375 46.1875 
Q 21.34375 51.125 25.703125 53.5625 
Q 30.078125 56 35.796875 56 
Q 45.21875 56 50.046875 50.171875 
Q 54.890625 44.34375 54.890625 33.015625 
z
" id="DejaVuSans-110"/>
     </defs>
     <g transform="translate(523.05 153.5775)scale(0.1 -0.1)">
      <use xlink:href="#DejaVuSans-66"/>
      <use x="68.603516" xlink:href="#DejaVuSans-97"/>
      <use x="129.882812" xlink:href="#DejaVuSans-115"/>
      <use x="181.982422" xlink:href="#DejaVuSans-101"/>
      <use x="243.505859" xlink:href="#DejaVuSans-108"/>
      <use x="271.289062" xlink:href="#DejaVuSans-105"/>
      <use x="299.072266" xlink:href="#DejaVuSans-110"/>
      <use x="362.451172" xlink:href="#DejaVuSans-101"/>
     </g>
    </g>
    <g id="line2d_18">
     <path d="M 495.05 164.857188 
L 515.05 164.857188 
" style="fill:none;stroke:#1f77b4;stroke-linecap:square;stroke-width:1.5;"/>
    </g>
    <g id="line2d_19"/>
    <g id="text_17">
     <!-- $\Uparrow \beta$ (shape) -->
     <defs>
      <path d="M 36.765625 58.59375 
L 36.765625 0 
L 30.90625 0 
L 30.90625 52.734375 
L 26.421875 48.140625 
L 20.5625 54 
L 39.703125 73.25 
L 44.09375 73.25 
L 63.328125 54 
L 57.46875 48.140625 
L 52.875 52.734375 
L 52.875 0 
L 47.015625 0 
L 47.015625 58.59375 
L 41.9375 63.671875 
z
" id="DejaVuSans-8657"/>
      <path d="M 13.625 3.375 
L 8.9375 -20.796875 
L -0.09375 -20.796875 
L 14.5 54.34375 
Q 18.84375 76.609375 39.65625 76.609375 
Q 60.75 76.609375 57.171875 57.8125 
Q 54.734375 44.4375 45.21875 39.546875 
Q 58.015625 35.15625 55.515625 22.125 
Q 51.125 -1.078125 27.484375 -1.03125 
Q 17.140625 -0.984375 13.625 3.375 
z
M 15.921875 15.09375 
Q 19.671875 6.59375 29.296875 6.640625 
Q 43.359375 6.640625 46.34375 21.96875 
Q 49.03125 35.75 26.171875 34.671875 
L 27.78125 42.96875 
Q 45.453125 42.671875 48.53125 58.59375 
Q 50.640625 69.34375 39.203125 69.28125 
Q 26.421875 69.28125 23.484375 54.046875 
z
" id="DejaVuSans-Oblique-946"/>
      <path id="DejaVuSans-32"/>
      <path d="M 31 75.875 
Q 24.46875 64.65625 21.28125 53.65625 
Q 18.109375 42.671875 18.109375 31.390625 
Q 18.109375 20.125 21.3125 9.0625 
Q 24.515625 -2 31 -13.1875 
L 23.1875 -13.1875 
Q 15.875 -1.703125 12.234375 9.375 
Q 8.59375 20.453125 8.59375 31.390625 
Q 8.59375 42.28125 12.203125 53.3125 
Q 15.828125 64.359375 23.1875 75.875 
z
" id="DejaVuSans-40"/>
      <path d="M 54.890625 33.015625 
L 54.890625 0 
L 45.90625 0 
L 45.90625 32.71875 
Q 45.90625 40.484375 42.875 44.328125 
Q 39.84375 48.1875 33.796875 48.1875 
Q 26.515625 48.1875 22.3125 43.546875 
Q 18.109375 38.921875 18.109375 30.90625 
L 18.109375 0 
L 9.078125 0 
L 9.078125 75.984375 
L 18.109375 75.984375 
L 18.109375 46.1875 
Q 21.34375 51.125 25.703125 53.5625 
Q 30.078125 56 35.796875 56 
Q 45.21875 56 50.046875 50.171875 
Q 54.890625 44.34375 54.890625 33.015625 
z
" id="DejaVuSans-104"/>
      <path d="M 8.015625 75.875 
L 15.828125 75.875 
Q 23.140625 64.359375 26.78125 53.3125 
Q 30.421875 42.28125 30.421875 31.390625 
Q 30.421875 20.453125 26.78125 9.375 
Q 23.140625 -1.703125 15.828125 -13.1875 
L 8.015625 -13.1875 
Q 14.5 -2 17.703125 9.0625 
Q 20.90625 20.125 20.90625 31.390625 
Q 20.90625 42.671875 17.703125 53.65625 
Q 14.5 64.65625 8.015625 75.875 
z
" id="DejaVuSans-41"/>
     </defs>
     <g transform="translate(523.05 168.357188)scale(0.1 -0.1)">
      <use transform="translate(19.482422 0.390625)" xlink:href="#DejaVuSans-8657"/>
      <use transform="translate(122.753906 0.390625)" xlink:href="#DejaVuSans-Oblique-946"/>
      <use transform="translate(186.572266 0.390625)" xlink:href="#DejaVuSans-32"/>
      <use transform="translate(218.359375 0.390625)" xlink:href="#DejaVuSans-40"/>
      <use transform="translate(257.373047 0.390625)" xlink:href="#DejaVuSans-115"/>
      <use transform="translate(309.472656 0.390625)" xlink:href="#DejaVuSans-104"/>
      <use transform="translate(372.851562 0.390625)" xlink:href="#DejaVuSans-97"/>
      <use transform="translate(434.130859 0.390625)" xlink:href="#DejaVuSans-112"/>
      <use transform="translate(497.607422 0.390625)" xlink:href="#DejaVuSans-101"/>
      <use transform="translate(559.130859 0.390625)" xlink:href="#DejaVuSans-41"/>
     </g>
    </g>
   </g>
  </g>
 </g>
 <defs>
  <clipPath id="pb2b08f31ef">
   <rect height="271.8" width="446.4" x="39.65" y="22.318125"/>
  </clipPath>
 </defs>
</svg>
