<?xml version="1.0" encoding="utf-8" standalone="no"?>
<!DOCTYPE svg PUBLIC "-//W3C//DTD SVG 1.1//EN"
  "http://www.w3.org/Graphics/SVG/1.1/DTD/svg11.dtd">
<!-- Created with matplotlib (https://matplotlib.org/) -->
<svg height="331.674375pt" version="1.1" viewBox="0 0 592.982812 331.674375" width="592.982812pt" xmlns="http://www.w3.org/2000/svg" xmlns:xlink="http://www.w3.org/1999/xlink">
 <defs>
  <style type="text/css">
*{stroke-linecap:butt;stroke-linejoin:round;}
  </style>
 </defs>
 <g id="figure_1">
  <g id="patch_1">
   <path d="M 0 331.674375 
L 592.982812 331.674375 
L 592.982812 0 
L 0 0 
z
" style="fill:#ffffff;"/>
  </g>
  <g id="axes_1">
   <g id="patch_2">
    <path d="M 38.482813 294.118125 
L 484.882812 294.118125 
L 484.882812 22.318125 
L 38.482813 22.318125 
z
" style="fill:#ffffff;"/>
   </g>
   <g id="line2d_1">
    <path clip-path="url(#p143b6e9f2a)" d="M 58.773722 217.542963 
L 59.499693 266.7862 
L 60.225665 265.892372 
L 60.951637 262.978964 
L 62.40358 207.782824 
L 63.129552 219.143312 
L 63.855524 260.496117 
L 64.581495 222.825534 
L 65.307467 276.375552 
L 66.033439 231.495203 
L 66.75941 259.81918 
L 67.485382 255.303381 
L 68.211354 234.791346 
L 68.937325 275.77245 
L 69.663297 237.559849 
L 70.389269 241.206387 
L 71.115241 278.412678 
L 71.841212 232.306218 
L 72.567184 280.408811 
L 73.293156 259.555121 
L 74.019127 230.489364 
L 74.745099 268.520074 
L 75.471071 249.741333 
L 76.197042 226.100564 
L 76.923014 257.142635 
L 77.648986 277.462663 
L 78.374958 270.896412 
L 79.100929 196.142193 
L 79.826901 272.731649 
L 80.552873 273.230705 
L 81.278844 241.873033 
L 82.004816 243.948108 
L 82.730788 244.226196 
L 83.456759 273.276998 
L 84.908703 236.937192 
L 85.634675 213.647696 
L 86.360646 226.698418 
L 87.086618 213.852026 
L 87.81259 255.400519 
L 88.538561 272.190864 
L 89.264533 245.979093 
L 89.990505 195.466822 
L 90.716477 209.490998 
L 91.442448 281.76358 
L 92.16842 241.202855 
L 92.894392 275.709074 
L 94.346335 226.298222 
L 95.072307 255.637692 
L 95.798278 251.709113 
L 96.52425 237.143456 
L 97.250222 250.539122 
L 97.976194 245.906711 
L 98.702165 231.746927 
L 99.428137 276.944444 
L 100.154109 269.919123 
L 100.88008 256.788728 
L 101.606052 222.827169 
L 102.332024 226.60082 
L 103.057995 276.585189 
L 103.783967 191.380709 
L 104.509939 256.782555 
L 105.235911 272.875225 
L 105.961882 269.0307 
L 106.687854 221.068668 
L 107.413826 237.471265 
L 108.139797 220.36359 
L 108.865769 237.787575 
L 109.591741 275.214588 
L 110.317712 262.467783 
L 111.043684 234.858205 
L 111.769656 222.625163 
L 112.495628 221.652011 
L 113.221599 207.633769 
L 113.947571 252.65656 
L 114.673543 253.745397 
L 115.399514 229.917561 
L 116.125486 223.318063 
L 116.851458 277.047553 
L 117.57743 246.1747 
L 118.303401 209.152654 
L 119.029373 198.758305 
L 119.755345 281.617178 
L 120.481316 269.115376 
L 121.207288 268.226295 
L 121.93326 225.723316 
L 122.659231 251.667014 
L 123.385203 253.773328 
L 124.111175 242.486852 
L 124.837147 261.089566 
L 125.563118 269.586222 
L 126.28909 231.681784 
L 127.015062 231.184647 
L 127.741033 275.988339 
L 128.467005 228.145586 
L 129.192977 224.470045 
L 129.918948 263.047421 
L 130.64492 222.062361 
L 131.370892 228.681081 
L 132.096864 278.186748 
L 132.822835 235.255128 
L 133.548807 273.77861 
L 134.274779 251.400005 
L 135.00075 220.110106 
L 135.726722 247.01372 
L 136.452694 223.024911 
L 137.178665 225.793565 
L 137.904637 256.238395 
L 138.630609 216.793889 
L 139.356581 279.553265 
L 140.082552 264.412833 
L 140.808524 230.822356 
L 141.534496 232.369193 
L 142.260467 216.009664 
L 142.986439 186.374003 
L 143.712411 249.490995 
L 144.438383 257.834027 
L 145.164354 272.243412 
L 145.890326 237.256953 
L 146.616298 209.794435 
L 148.068241 251.55549 
L 148.794213 254.457659 
L 149.520184 219.634417 
L 150.246156 243.266774 
L 150.972128 279.024198 
L 151.6981 271.225093 
L 152.424071 227.797782 
L 153.150043 215.024342 
L 153.876015 251.125773 
L 154.601986 237.014565 
L 155.327958 258.95371 
L 156.05393 244.740642 
L 156.779901 214.39415 
L 157.505873 255.892124 
L 158.231845 240.527311 
L 158.957817 239.006314 
L 159.683788 233.23553 
L 160.40976 213.359654 
L 161.135732 254.253384 
L 161.861703 224.755282 
L 162.587675 244.055226 
L 163.313647 275.935655 
L 164.039618 249.188189 
L 164.76559 231.000699 
L 165.491562 221.237167 
L 166.217534 237.078065 
L 166.943505 210.628751 
L 167.669477 230.252118 
L 168.395449 208.838241 
L 169.847392 273.862411 
L 170.573364 240.465272 
L 171.299336 279.95314 
L 172.025307 228.60019 
L 172.751279 216.184002 
L 173.477251 235.023464 
L 174.203222 261.331638 
L 174.929194 253.591368 
L 175.655166 250.018154 
L 176.381137 257.917089 
L 177.107109 229.569758 
L 177.833081 233.614205 
L 178.559053 254.56914 
L 179.285024 226.785439 
L 180.010996 272.409634 
L 180.736968 269.407872 
L 181.462939 273.227108 
L 182.188911 225.517208 
L 182.914883 232.712143 
L 183.640854 276.360697 
L 184.366826 245.565828 
L 185.092798 220.288464 
L 185.81877 250.402713 
L 186.544741 217.646959 
L 187.270713 226.417457 
L 187.996685 231.209235 
L 188.722656 257.685505 
L 189.448628 275.566905 
L 190.1746 218.725308 
L 190.900571 270.042151 
L 191.626543 270.747749 
L 192.352515 251.965013 
L 193.078487 272.314342 
L 193.804458 267.269158 
L 194.53043 247.883916 
L 195.256402 199.815506 
L 195.982373 229.581585 
L 196.708345 241.314934 
L 197.434317 274.769397 
L 198.160289 271.163235 
L 198.88626 257.714656 
L 199.612232 240.83816 
L 200.338204 273.466363 
L 201.064175 267.278556 
L 201.790147 277.502856 
L 202.516119 249.437373 
L 203.24209 238.17888 
L 203.968062 268.212132 
L 204.694034 260.803111 
L 205.420006 230.699686 
L 206.145977 266.837212 
L 206.871949 225.538927 
L 207.597921 237.382462 
L 208.323892 240.68244 
L 209.049864 226.886674 
L 209.775836 269.182126 
L 210.501807 216.057987 
L 211.227779 208.308585 
L 211.953751 247.241826 
L 212.679723 268.723455 
L 213.405694 269.288825 
L 214.131666 221.011516 
L 214.857638 229.1654 
L 215.583609 250.688734 
L 216.309581 240.191614 
L 217.035553 247.954346 
L 217.761524 247.698265 
L 218.487496 265.675114 
L 219.213468 232.813711 
L 219.93944 233.093853 
L 220.665411 254.137885 
L 221.391383 221.903458 
L 222.117355 240.724933 
L 222.843326 273.13931 
L 223.569298 230.79262 
L 224.29527 225.510813 
L 225.021242 261.222685 
L 225.747213 269.405234 
L 226.473185 232.065577 
L 227.199157 258.240599 
L 227.925128 249.241669 
L 228.6511 233.540052 
L 229.377072 257.769381 
L 230.103043 252.355302 
L 230.829015 275.92608 
L 231.554987 246.975522 
L 232.280959 255.312712 
L 233.00693 208.164688 
L 233.732902 256.697805 
L 234.458874 229.259883 
L 235.184845 261.17687 
L 235.910817 236.115754 
L 236.636789 242.056216 
L 237.36276 261.636164 
L 238.088732 244.596081 
L 238.814704 276.014969 
L 239.540676 251.954979 
L 240.266647 254.668724 
L 240.992619 226.327142 
L 241.718591 253.617482 
L 242.444562 247.136544 
L 243.170534 263.503669 
L 243.896506 222.663505 
L 244.622477 277.891419 
L 245.348449 251.057316 
L 246.074421 231.513684 
L 246.800393 272.141558 
L 247.526364 254.21917 
L 248.252336 239.058535 
L 248.978308 272.213495 
L 249.704279 249.495963 
L 250.430251 275.481821 
L 251.156223 268.880722 
L 251.882195 252.816568 
L 252.608166 239.865098 
L 253.334138 246.029984 
L 254.06011 248.421334 
L 254.786081 264.096289 
L 255.512053 268.898744 
L 256.238025 243.436093 
L 256.963996 250.248161 
L 257.689968 270.995735 
L 258.41594 219.798115 
L 259.141912 275.109927 
L 259.867883 267.834565 
L 260.593855 252.43403 
L 261.319827 270.595424 
L 262.045798 264.544282 
L 262.77177 234.686586 
L 263.497742 262.507452 
L 264.223713 250.59795 
L 264.949685 253.936938 
L 265.675657 214.764799 
L 266.401629 273.842338 
L 267.1276 237.544549 
L 267.853572 245.65259 
L 268.579544 256.640115 
L 269.305515 226.882744 
L 270.031487 249.797668 
L 270.757459 249.449811 
L 271.48343 252.146549 
L 272.209402 244.534595 
L 272.935374 270.581028 
L 273.661346 262.089918 
L 274.387317 256.069897 
L 275.113289 244.221285 
L 275.839261 254.538656 
L 276.565232 249.550585 
L 277.291204 239.361935 
L 278.017176 235.358199 
L 278.743148 248.156194 
L 279.469119 207.895936 
L 280.921063 267.709688 
L 281.647034 250.807709 
L 282.373006 273.334775 
L 283.098978 261.118008 
L 283.824949 257.063764 
L 284.550921 267.521475 
L 285.276893 245.834809 
L 286.002865 275.261237 
L 286.728836 262.424577 
L 287.454808 264.584832 
L 288.18078 246.080965 
L 290.358695 207.785636 
L 291.084666 222.159336 
L 291.810638 246.94847 
L 292.53661 228.305721 
L 293.262582 249.037296 
L 293.988553 237.177576 
L 294.714525 248.835234 
L 295.440497 232.280232 
L 296.166468 231.065503 
L 296.89244 229.060448 
L 297.618412 226.227619 
L 298.344383 222.035232 
L 299.070355 249.967405 
L 299.796327 235.309845 
L 300.522299 277.446574 
L 301.24827 241.528802 
L 301.974242 246.450524 
L 302.700214 234.219173 
L 303.426185 216.997343 
L 304.152157 224.478734 
L 304.878129 259.657427 
L 305.604101 273.752368 
L 306.330072 261.006774 
L 307.056044 277.489493 
L 307.782016 266.208099 
L 308.507987 266.151182 
L 309.233959 220.857992 
L 309.959931 230.386278 
L 310.685902 222.483719 
L 311.411874 239.632534 
L 312.137846 248.086159 
L 312.863818 249.350675 
L 314.315761 224.780937 
L 315.041733 222.18222 
L 315.767704 249.550322 
L 316.493676 251.828549 
L 317.219648 274.833531 
L 317.945619 237.377444 
L 318.671591 214.531769 
L 319.397563 242.575002 
L 320.123535 260.371454 
L 320.849506 227.361735 
L 321.575478 273.458352 
L 322.30145 267.050477 
L 323.027421 243.044451 
L 323.753393 207.804592 
L 324.479365 223.695153 
L 325.205336 270.748966 
L 325.931308 271.15888 
L 326.65728 266.054368 
L 327.383252 235.092395 
L 328.109223 259.278937 
L 328.835195 239.580481 
L 329.561167 276.861271 
L 330.287138 241.132358 
L 331.01311 226.919357 
L 331.739082 266.01677 
L 332.465054 230.960617 
L 333.191025 249.581741 
L 333.916997 271.435202 
L 335.36894 248.438657 
L 336.094912 272.465738 
L 336.820884 265.559262 
L 337.546855 269.16626 
L 338.272827 264.196209 
L 338.998799 226.771568 
L 339.724771 240.261575 
L 340.450742 269.432719 
L 341.176714 259.935297 
L 341.902686 225.606767 
L 343.354629 270.079827 
L 344.080601 228.201175 
L 344.806572 260.182286 
L 345.532544 272.174354 
L 346.258516 198.507197 
L 346.984488 275.697595 
L 347.710459 246.505548 
L 348.436431 272.460356 
L 349.162403 267.634772 
L 349.888374 260.004042 
L 350.614346 258.91195 
L 351.340318 247.210364 
L 352.066289 239.348509 
L 352.792261 259.71842 
L 353.518233 246.038621 
L 354.244205 228.456702 
L 354.970176 271.313785 
L 355.696148 244.050076 
L 356.42212 262.793612 
L 357.148091 225.538162 
L 357.874063 249.118071 
L 358.600035 252.097719 
L 359.326007 257.815 
L 360.051978 220.227298 
L 360.77795 206.205787 
L 361.503922 267.16816 
L 362.229893 270.558972 
L 362.955865 225.55675 
L 363.681837 262.09258 
L 364.407808 268.592985 
L 365.13378 265.100972 
L 365.859752 227.050785 
L 367.311695 250.243244 
L 368.037667 242.229244 
L 368.763639 267.352881 
L 369.48961 250.493877 
L 370.215582 266.688071 
L 370.941554 266.336358 
L 371.667525 232.351281 
L 372.393497 266.344579 
L 373.119469 221.472065 
L 374.571412 265.920875 
L 375.297384 270.093167 
L 376.023356 260.946414 
L 376.749327 226.95749 
L 378.201271 267.661935 
L 378.927242 239.430947 
L 379.653214 244.82948 
L 380.379186 248.778003 
L 381.105158 236.344635 
L 381.831129 251.552013 
L 382.557101 226.031369 
L 384.009044 261.984967 
L 384.735016 241.373031 
L 385.460988 257.177022 
L 386.18696 267.554078 
L 386.912931 248.231619 
L 387.638903 265.58019 
L 388.364875 248.068353 
L 389.090846 239.294502 
L 389.816818 265.196909 
L 390.54279 265.060036 
L 391.268761 237.277386 
L 391.994733 243.272958 
L 392.720705 250.520415 
L 393.446677 228.53209 
L 394.172648 234.703621 
L 394.89862 262.40917 
L 395.624592 263.444956 
L 396.350563 238.900801 
L 397.076535 242.34923 
L 397.802507 242.731339 
L 398.528478 240.776804 
L 399.25445 236.955822 
L 399.980422 253.162525 
L 400.706394 226.180194 
L 401.432365 247.664562 
L 402.158337 264.198097 
L 402.884309 215.765652 
L 403.61028 244.982262 
L 404.336252 241.896604 
L 405.062224 237.845104 
L 405.788195 234.702005 
L 406.514167 237.026014 
L 407.240139 242.716491 
L 407.966111 245.176738 
L 408.692082 265.78589 
L 409.418054 234.553775 
L 410.144026 270.061986 
L 410.869997 232.852589 
L 411.595969 230.646504 
L 412.321941 268.841376 
L 413.047913 238.598901 
L 413.773884 236.823337 
L 414.499856 248.564764 
L 415.225828 238.320544 
L 415.951799 224.408597 
L 416.677771 265.79142 
L 417.403743 244.378783 
L 418.129714 241.225941 
L 418.855686 267.943975 
L 419.581658 244.209636 
L 420.30763 242.388113 
L 421.033601 234.29775 
L 421.759573 265.799931 
L 422.485545 265.149682 
L 423.211516 263.21883 
L 423.937488 265.396476 
L 424.66346 259.31438 
L 425.389431 237.363948 
L 426.115403 257.159456 
L 426.841375 260.950935 
L 427.567347 260.472209 
L 428.293318 243.205628 
L 429.01929 255.999752 
L 429.745262 249.025526 
L 430.471233 256.388774 
L 431.197205 235.192991 
L 431.923177 238.093725 
L 432.649148 239.781097 
L 433.37512 266.387717 
L 434.101092 261.83739 
L 434.827064 254.822337 
L 435.553035 236.488166 
L 436.279007 258.921922 
L 437.004979 246.148794 
L 437.73095 259.877434 
L 438.456922 243.510962 
L 439.182894 264.556696 
L 439.908866 259.183624 
L 440.634837 257.827736 
L 441.360809 261.550784 
L 442.086781 239.224769 
L 442.812752 260.040824 
L 443.538724 233.850022 
L 444.264696 251.609776 
L 444.990667 228.731672 
L 445.716639 263.57317 
L 446.442611 238.834414 
L 447.168583 249.139998 
L 447.894554 263.752348 
L 448.620526 263.000729 
L 449.346498 261.842624 
L 450.072469 244.560942 
L 450.798441 255.065805 
L 451.524413 253.234987 
L 452.250384 219.619344 
L 452.976356 261.017216 
L 453.702328 248.170025 
L 454.4283 244.833457 
L 455.154271 240.006877 
L 455.880243 260.94421 
L 456.606215 261.21883 
L 457.332186 223.630646 
L 458.058158 237.560017 
L 458.78413 260.072207 
L 459.510101 255.465999 
L 460.236073 255.051418 
L 460.962045 244.357866 
L 461.688017 242.553185 
L 462.413988 257.125475 
L 463.13996 256.725514 
L 463.865932 260.010832 
L 464.591903 259.367384 
L 464.591903 259.367384 
" style="fill:none;stroke:#1f77b4;stroke-linecap:square;stroke-width:1.5;"/>
   </g>
   <g id="line2d_2">
    <path clip-path="url(#p143b6e9f2a)" d="M 58.773722 34.67267 
L 464.591903 34.67267 
L 464.591903 34.67267 
" style="fill:none;stroke:#000000;stroke-dasharray:3.7,1.6;stroke-dashoffset:0;"/>
   </g>
   <g id="matplotlib.axis_1">
    <g id="xtick_1">
     <g id="line2d_3">
      <defs>
       <path d="M 0 0 
L 0 3.5 
" id="m33bd9f5887" style="stroke:#000000;stroke-width:0.8;"/>
      </defs>
      <g>
       <use style="stroke:#000000;stroke-width:0.8;" x="79.826901" xlink:href="#m33bd9f5887" y="294.118125"/>
      </g>
     </g>
     <g id="text_1">
      <!-- 100 -->
      <defs>
       <path d="M 12.40625 8.296875 
L 28.515625 8.296875 
L 28.515625 63.921875 
L 10.984375 60.40625 
L 10.984375 69.390625 
L 28.421875 72.90625 
L 38.28125 72.90625 
L 38.28125 8.296875 
L 54.390625 8.296875 
L 54.390625 0 
L 12.40625 0 
z
" id="DejaVuSans-49"/>
       <path d="M 31.78125 66.40625 
Q 24.171875 66.40625 20.328125 58.90625 
Q 16.5 51.421875 16.5 36.375 
Q 16.5 21.390625 20.328125 13.890625 
Q 24.171875 6.390625 31.78125 6.390625 
Q 39.453125 6.390625 43.28125 13.890625 
Q 47.125 21.390625 47.125 36.375 
Q 47.125 51.421875 43.28125 58.90625 
Q 39.453125 66.40625 31.78125 66.40625 
z
M 31.78125 74.21875 
Q 44.046875 74.21875 50.515625 64.515625 
Q 56.984375 54.828125 56.984375 36.375 
Q 56.984375 17.96875 50.515625 8.265625 
Q 44.046875 -1.421875 31.78125 -1.421875 
Q 19.53125 -1.421875 13.0625 8.265625 
Q 6.59375 17.96875 6.59375 36.375 
Q 6.59375 54.828125 13.0625 64.515625 
Q 19.53125 74.21875 31.78125 74.21875 
z
" id="DejaVuSans-48"/>
      </defs>
      <g transform="translate(70.283151 308.716563)scale(0.1 -0.1)">
       <use xlink:href="#DejaVuSans-49"/>
       <use x="63.623047" xlink:href="#DejaVuSans-48"/>
       <use x="127.246094" xlink:href="#DejaVuSans-48"/>
      </g>
     </g>
    </g>
    <g id="xtick_2">
     <g id="line2d_4">
      <g>
       <use style="stroke:#000000;stroke-width:0.8;" x="152.424071" xlink:href="#m33bd9f5887" y="294.118125"/>
      </g>
     </g>
     <g id="text_2">
      <!-- 200 -->
      <defs>
       <path d="M 19.1875 8.296875 
L 53.609375 8.296875 
L 53.609375 0 
L 7.328125 0 
L 7.328125 8.296875 
Q 12.9375 14.109375 22.625 23.890625 
Q 32.328125 33.6875 34.8125 36.53125 
Q 39.546875 41.84375 41.421875 45.53125 
Q 43.3125 49.21875 43.3125 52.78125 
Q 43.3125 58.59375 39.234375 62.25 
Q 35.15625 65.921875 28.609375 65.921875 
Q 23.96875 65.921875 18.8125 64.3125 
Q 13.671875 62.703125 7.8125 59.421875 
L 7.8125 69.390625 
Q 13.765625 71.78125 18.9375 73 
Q 24.125 74.21875 28.421875 74.21875 
Q 39.75 74.21875 46.484375 68.546875 
Q 53.21875 62.890625 53.21875 53.421875 
Q 53.21875 48.921875 51.53125 44.890625 
Q 49.859375 40.875 45.40625 35.40625 
Q 44.1875 33.984375 37.640625 27.21875 
Q 31.109375 20.453125 19.1875 8.296875 
z
" id="DejaVuSans-50"/>
      </defs>
      <g transform="translate(142.880321 308.716563)scale(0.1 -0.1)">
       <use xlink:href="#DejaVuSans-50"/>
       <use x="63.623047" xlink:href="#DejaVuSans-48"/>
       <use x="127.246094" xlink:href="#DejaVuSans-48"/>
      </g>
     </g>
    </g>
    <g id="xtick_3">
     <g id="line2d_5">
      <g>
       <use style="stroke:#000000;stroke-width:0.8;" x="225.021242" xlink:href="#m33bd9f5887" y="294.118125"/>
      </g>
     </g>
     <g id="text_3">
      <!-- 300 -->
      <defs>
       <path d="M 40.578125 39.3125 
Q 47.65625 37.796875 51.625 33 
Q 55.609375 28.21875 55.609375 21.1875 
Q 55.609375 10.40625 48.1875 4.484375 
Q 40.765625 -1.421875 27.09375 -1.421875 
Q 22.515625 -1.421875 17.65625 -0.515625 
Q 12.796875 0.390625 7.625 2.203125 
L 7.625 11.71875 
Q 11.71875 9.328125 16.59375 8.109375 
Q 21.484375 6.890625 26.8125 6.890625 
Q 36.078125 6.890625 40.9375 10.546875 
Q 45.796875 14.203125 45.796875 21.1875 
Q 45.796875 27.640625 41.28125 31.265625 
Q 36.765625 34.90625 28.71875 34.90625 
L 20.21875 34.90625 
L 20.21875 43.015625 
L 29.109375 43.015625 
Q 36.375 43.015625 40.234375 45.921875 
Q 44.09375 48.828125 44.09375 54.296875 
Q 44.09375 59.90625 40.109375 62.90625 
Q 36.140625 65.921875 28.71875 65.921875 
Q 24.65625 65.921875 20.015625 65.03125 
Q 15.375 64.15625 9.8125 62.3125 
L 9.8125 71.09375 
Q 15.4375 72.65625 20.34375 73.4375 
Q 25.25 74.21875 29.59375 74.21875 
Q 40.828125 74.21875 47.359375 69.109375 
Q 53.90625 64.015625 53.90625 55.328125 
Q 53.90625 49.265625 50.4375 45.09375 
Q 46.96875 40.921875 40.578125 39.3125 
z
" id="DejaVuSans-51"/>
      </defs>
      <g transform="translate(215.477492 308.716563)scale(0.1 -0.1)">
       <use xlink:href="#DejaVuSans-51"/>
       <use x="63.623047" xlink:href="#DejaVuSans-48"/>
       <use x="127.246094" xlink:href="#DejaVuSans-48"/>
      </g>
     </g>
    </g>
    <g id="xtick_4">
     <g id="line2d_6">
      <g>
       <use style="stroke:#000000;stroke-width:0.8;" x="297.618412" xlink:href="#m33bd9f5887" y="294.118125"/>
      </g>
     </g>
     <g id="text_4">
      <!-- 400 -->
      <defs>
       <path d="M 37.796875 64.3125 
L 12.890625 25.390625 
L 37.796875 25.390625 
z
M 35.203125 72.90625 
L 47.609375 72.90625 
L 47.609375 25.390625 
L 58.015625 25.390625 
L 58.015625 17.1875 
L 47.609375 17.1875 
L 47.609375 0 
L 37.796875 0 
L 37.796875 17.1875 
L 4.890625 17.1875 
L 4.890625 26.703125 
z
" id="DejaVuSans-52"/>
      </defs>
      <g transform="translate(288.074662 308.716563)scale(0.1 -0.1)">
       <use xlink:href="#DejaVuSans-52"/>
       <use x="63.623047" xlink:href="#DejaVuSans-48"/>
       <use x="127.246094" xlink:href="#DejaVuSans-48"/>
      </g>
     </g>
    </g>
    <g id="xtick_5">
     <g id="line2d_7">
      <g>
       <use style="stroke:#000000;stroke-width:0.8;" x="370.215582" xlink:href="#m33bd9f5887" y="294.118125"/>
      </g>
     </g>
     <g id="text_5">
      <!-- 500 -->
      <defs>
       <path d="M 10.796875 72.90625 
L 49.515625 72.90625 
L 49.515625 64.59375 
L 19.828125 64.59375 
L 19.828125 46.734375 
Q 21.96875 47.46875 24.109375 47.828125 
Q 26.265625 48.1875 28.421875 48.1875 
Q 40.625 48.1875 47.75 41.5 
Q 54.890625 34.8125 54.890625 23.390625 
Q 54.890625 11.625 47.5625 5.09375 
Q 40.234375 -1.421875 26.90625 -1.421875 
Q 22.3125 -1.421875 17.546875 -0.640625 
Q 12.796875 0.140625 7.71875 1.703125 
L 7.71875 11.625 
Q 12.109375 9.234375 16.796875 8.0625 
Q 21.484375 6.890625 26.703125 6.890625 
Q 35.15625 6.890625 40.078125 11.328125 
Q 45.015625 15.765625 45.015625 23.390625 
Q 45.015625 31 40.078125 35.4375 
Q 35.15625 39.890625 26.703125 39.890625 
Q 22.75 39.890625 18.8125 39.015625 
Q 14.890625 38.140625 10.796875 36.28125 
z
" id="DejaVuSans-53"/>
      </defs>
      <g transform="translate(360.671832 308.716563)scale(0.1 -0.1)">
       <use xlink:href="#DejaVuSans-53"/>
       <use x="63.623047" xlink:href="#DejaVuSans-48"/>
       <use x="127.246094" xlink:href="#DejaVuSans-48"/>
      </g>
     </g>
    </g>
    <g id="xtick_6">
     <g id="line2d_8">
      <g>
       <use style="stroke:#000000;stroke-width:0.8;" x="442.812752" xlink:href="#m33bd9f5887" y="294.118125"/>
      </g>
     </g>
     <g id="text_6">
      <!-- 600 -->
      <defs>
       <path d="M 33.015625 40.375 
Q 26.375 40.375 22.484375 35.828125 
Q 18.609375 31.296875 18.609375 23.390625 
Q 18.609375 15.53125 22.484375 10.953125 
Q 26.375 6.390625 33.015625 6.390625 
Q 39.65625 6.390625 43.53125 10.953125 
Q 47.40625 15.53125 47.40625 23.390625 
Q 47.40625 31.296875 43.53125 35.828125 
Q 39.65625 40.375 33.015625 40.375 
z
M 52.59375 71.296875 
L 52.59375 62.3125 
Q 48.875 64.0625 45.09375 64.984375 
Q 41.3125 65.921875 37.59375 65.921875 
Q 27.828125 65.921875 22.671875 59.328125 
Q 17.53125 52.734375 16.796875 39.40625 
Q 19.671875 43.65625 24.015625 45.921875 
Q 28.375 48.1875 33.59375 48.1875 
Q 44.578125 48.1875 50.953125 41.515625 
Q 57.328125 34.859375 57.328125 23.390625 
Q 57.328125 12.15625 50.6875 5.359375 
Q 44.046875 -1.421875 33.015625 -1.421875 
Q 20.359375 -1.421875 13.671875 8.265625 
Q 6.984375 17.96875 6.984375 36.375 
Q 6.984375 53.65625 15.1875 63.9375 
Q 23.390625 74.21875 37.203125 74.21875 
Q 40.921875 74.21875 44.703125 73.484375 
Q 48.484375 72.75 52.59375 71.296875 
z
" id="DejaVuSans-54"/>
      </defs>
      <g transform="translate(433.269002 308.716563)scale(0.1 -0.1)">
       <use xlink:href="#DejaVuSans-54"/>
       <use x="63.623047" xlink:href="#DejaVuSans-48"/>
       <use x="127.246094" xlink:href="#DejaVuSans-48"/>
      </g>
     </g>
    </g>
    <g id="text_7">
     <!-- Tempo -->
     <defs>
      <path d="M -0.296875 72.90625 
L 61.375 72.90625 
L 61.375 64.59375 
L 35.5 64.59375 
L 35.5 0 
L 25.59375 0 
L 25.59375 64.59375 
L -0.296875 64.59375 
z
" id="DejaVuSans-84"/>
      <path d="M 56.203125 29.59375 
L 56.203125 25.203125 
L 14.890625 25.203125 
Q 15.484375 15.921875 20.484375 11.0625 
Q 25.484375 6.203125 34.421875 6.203125 
Q 39.59375 6.203125 44.453125 7.46875 
Q 49.3125 8.734375 54.109375 11.28125 
L 54.109375 2.78125 
Q 49.265625 0.734375 44.1875 -0.34375 
Q 39.109375 -1.421875 33.890625 -1.421875 
Q 20.796875 -1.421875 13.15625 6.1875 
Q 5.515625 13.8125 5.515625 26.8125 
Q 5.515625 40.234375 12.765625 48.109375 
Q 20.015625 56 32.328125 56 
Q 43.359375 56 49.78125 48.890625 
Q 56.203125 41.796875 56.203125 29.59375 
z
M 47.21875 32.234375 
Q 47.125 39.59375 43.09375 43.984375 
Q 39.0625 48.390625 32.421875 48.390625 
Q 24.90625 48.390625 20.390625 44.140625 
Q 15.875 39.890625 15.1875 32.171875 
z
" id="DejaVuSans-101"/>
      <path d="M 52 44.1875 
Q 55.375 50.25 60.0625 53.125 
Q 64.75 56 71.09375 56 
Q 79.640625 56 84.28125 50.015625 
Q 88.921875 44.046875 88.921875 33.015625 
L 88.921875 0 
L 79.890625 0 
L 79.890625 32.71875 
Q 79.890625 40.578125 77.09375 44.375 
Q 74.3125 48.1875 68.609375 48.1875 
Q 61.625 48.1875 57.5625 43.546875 
Q 53.515625 38.921875 53.515625 30.90625 
L 53.515625 0 
L 44.484375 0 
L 44.484375 32.71875 
Q 44.484375 40.625 41.703125 44.40625 
Q 38.921875 48.1875 33.109375 48.1875 
Q 26.21875 48.1875 22.15625 43.53125 
Q 18.109375 38.875 18.109375 30.90625 
L 18.109375 0 
L 9.078125 0 
L 9.078125 54.6875 
L 18.109375 54.6875 
L 18.109375 46.1875 
Q 21.1875 51.21875 25.484375 53.609375 
Q 29.78125 56 35.6875 56 
Q 41.65625 56 45.828125 52.96875 
Q 50 49.953125 52 44.1875 
z
" id="DejaVuSans-109"/>
      <path d="M 18.109375 8.203125 
L 18.109375 -20.796875 
L 9.078125 -20.796875 
L 9.078125 54.6875 
L 18.109375 54.6875 
L 18.109375 46.390625 
Q 20.953125 51.265625 25.265625 53.625 
Q 29.59375 56 35.59375 56 
Q 45.5625 56 51.78125 48.09375 
Q 58.015625 40.1875 58.015625 27.296875 
Q 58.015625 14.40625 51.78125 6.484375 
Q 45.5625 -1.421875 35.59375 -1.421875 
Q 29.59375 -1.421875 25.265625 0.953125 
Q 20.953125 3.328125 18.109375 8.203125 
z
M 48.6875 27.296875 
Q 48.6875 37.203125 44.609375 42.84375 
Q 40.53125 48.484375 33.40625 48.484375 
Q 26.265625 48.484375 22.1875 42.84375 
Q 18.109375 37.203125 18.109375 27.296875 
Q 18.109375 17.390625 22.1875 11.75 
Q 26.265625 6.109375 33.40625 6.109375 
Q 40.53125 6.109375 44.609375 11.75 
Q 48.6875 17.390625 48.6875 27.296875 
z
" id="DejaVuSans-112"/>
      <path d="M 30.609375 48.390625 
Q 23.390625 48.390625 19.1875 42.75 
Q 14.984375 37.109375 14.984375 27.296875 
Q 14.984375 17.484375 19.15625 11.84375 
Q 23.34375 6.203125 30.609375 6.203125 
Q 37.796875 6.203125 41.984375 11.859375 
Q 46.1875 17.53125 46.1875 27.296875 
Q 46.1875 37.015625 41.984375 42.703125 
Q 37.796875 48.390625 30.609375 48.390625 
z
M 30.609375 56 
Q 42.328125 56 49.015625 48.375 
Q 55.71875 40.765625 55.71875 27.296875 
Q 55.71875 13.875 49.015625 6.21875 
Q 42.328125 -1.421875 30.609375 -1.421875 
Q 18.84375 -1.421875 12.171875 6.21875 
Q 5.515625 13.875 5.515625 27.296875 
Q 5.515625 40.765625 12.171875 48.375 
Q 18.84375 56 30.609375 56 
z
" id="DejaVuSans-111"/>
     </defs>
     <g transform="translate(245.298438 322.394687)scale(0.1 -0.1)">
      <use xlink:href="#DejaVuSans-84"/>
      <use x="44.083984" xlink:href="#DejaVuSans-101"/>
      <use x="105.607422" xlink:href="#DejaVuSans-109"/>
      <use x="203.019531" xlink:href="#DejaVuSans-112"/>
      <use x="266.496094" xlink:href="#DejaVuSans-111"/>
     </g>
    </g>
   </g>
   <g id="matplotlib.axis_2">
    <g id="ytick_1">
     <g id="line2d_9">
      <defs>
       <path d="M 0 0 
L -3.5 0 
" id="m1eeb00ec69" style="stroke:#000000;stroke-width:0.8;"/>
      </defs>
      <g>
       <use style="stroke:#000000;stroke-width:0.8;" x="38.482813" xlink:href="#m1eeb00ec69" y="246.43526"/>
      </g>
     </g>
     <g id="text_8">
      <!-- −0.8 -->
      <defs>
       <path d="M 10.59375 35.5 
L 73.1875 35.5 
L 73.1875 27.203125 
L 10.59375 27.203125 
z
" id="DejaVuSans-8722"/>
       <path d="M 10.6875 12.40625 
L 21 12.40625 
L 21 0 
L 10.6875 0 
z
" id="DejaVuSans-46"/>
       <path d="M 31.78125 34.625 
Q 24.75 34.625 20.71875 30.859375 
Q 16.703125 27.09375 16.703125 20.515625 
Q 16.703125 13.921875 20.71875 10.15625 
Q 24.75 6.390625 31.78125 6.390625 
Q 38.8125 6.390625 42.859375 10.171875 
Q 46.921875 13.96875 46.921875 20.515625 
Q 46.921875 27.09375 42.890625 30.859375 
Q 38.875 34.625 31.78125 34.625 
z
M 21.921875 38.8125 
Q 15.578125 40.375 12.03125 44.71875 
Q 8.5 49.078125 8.5 55.328125 
Q 8.5 64.0625 14.71875 69.140625 
Q 20.953125 74.21875 31.78125 74.21875 
Q 42.671875 74.21875 48.875 69.140625 
Q 55.078125 64.0625 55.078125 55.328125 
Q 55.078125 49.078125 51.53125 44.71875 
Q 48 40.375 41.703125 38.8125 
Q 48.828125 37.15625 52.796875 32.3125 
Q 56.78125 27.484375 56.78125 20.515625 
Q 56.78125 9.90625 50.3125 4.234375 
Q 43.84375 -1.421875 31.78125 -1.421875 
Q 19.734375 -1.421875 13.25 4.234375 
Q 6.78125 9.90625 6.78125 20.515625 
Q 6.78125 27.484375 10.78125 32.3125 
Q 14.796875 37.15625 21.921875 38.8125 
z
M 18.3125 54.390625 
Q 18.3125 48.734375 21.84375 45.5625 
Q 25.390625 42.390625 31.78125 42.390625 
Q 38.140625 42.390625 41.71875 45.5625 
Q 45.3125 48.734375 45.3125 54.390625 
Q 45.3125 60.0625 41.71875 63.234375 
Q 38.140625 66.40625 31.78125 66.40625 
Q 25.390625 66.40625 21.84375 63.234375 
Q 18.3125 60.0625 18.3125 54.390625 
z
" id="DejaVuSans-56"/>
      </defs>
      <g transform="translate(7.2 250.234479)scale(0.1 -0.1)">
       <use xlink:href="#DejaVuSans-8722"/>
       <use x="83.789062" xlink:href="#DejaVuSans-48"/>
       <use x="147.412109" xlink:href="#DejaVuSans-46"/>
       <use x="179.199219" xlink:href="#DejaVuSans-56"/>
      </g>
     </g>
    </g>
    <g id="ytick_2">
     <g id="line2d_10">
      <g>
       <use style="stroke:#000000;stroke-width:0.8;" x="38.482813" xlink:href="#m1eeb00ec69" y="193.494613"/>
      </g>
     </g>
     <g id="text_9">
      <!-- −0.6 -->
      <g transform="translate(7.2 197.293831)scale(0.1 -0.1)">
       <use xlink:href="#DejaVuSans-8722"/>
       <use x="83.789062" xlink:href="#DejaVuSans-48"/>
       <use x="147.412109" xlink:href="#DejaVuSans-46"/>
       <use x="179.199219" xlink:href="#DejaVuSans-54"/>
      </g>
     </g>
    </g>
    <g id="ytick_3">
     <g id="line2d_11">
      <g>
       <use style="stroke:#000000;stroke-width:0.8;" x="38.482813" xlink:href="#m1eeb00ec69" y="140.553965"/>
      </g>
     </g>
     <g id="text_10">
      <!-- −0.4 -->
      <g transform="translate(7.2 144.353184)scale(0.1 -0.1)">
       <use xlink:href="#DejaVuSans-8722"/>
       <use x="83.789062" xlink:href="#DejaVuSans-48"/>
       <use x="147.412109" xlink:href="#DejaVuSans-46"/>
       <use x="179.199219" xlink:href="#DejaVuSans-52"/>
      </g>
     </g>
    </g>
    <g id="ytick_4">
     <g id="line2d_12">
      <g>
       <use style="stroke:#000000;stroke-width:0.8;" x="38.482813" xlink:href="#m1eeb00ec69" y="87.613318"/>
      </g>
     </g>
     <g id="text_11">
      <!-- −0.2 -->
      <g transform="translate(7.2 91.412537)scale(0.1 -0.1)">
       <use xlink:href="#DejaVuSans-8722"/>
       <use x="83.789062" xlink:href="#DejaVuSans-48"/>
       <use x="147.412109" xlink:href="#DejaVuSans-46"/>
       <use x="179.199219" xlink:href="#DejaVuSans-50"/>
      </g>
     </g>
    </g>
    <g id="ytick_5">
     <g id="line2d_13">
      <g>
       <use style="stroke:#000000;stroke-width:0.8;" x="38.482813" xlink:href="#m1eeb00ec69" y="34.67267"/>
      </g>
     </g>
     <g id="text_12">
      <!-- 0.0 -->
      <g transform="translate(15.579688 38.471889)scale(0.1 -0.1)">
       <use xlink:href="#DejaVuSans-48"/>
       <use x="63.623047" xlink:href="#DejaVuSans-46"/>
       <use x="95.410156" xlink:href="#DejaVuSans-48"/>
      </g>
     </g>
    </g>
   </g>
   <g id="patch_3">
    <path d="M 38.482813 294.118125 
L 38.482813 22.318125 
" style="fill:none;stroke:#000000;stroke-linecap:square;stroke-linejoin:miter;stroke-width:0.8;"/>
   </g>
   <g id="patch_4">
    <path d="M 38.482813 294.118125 
L 484.882812 294.118125 
" style="fill:none;stroke:#000000;stroke-linecap:square;stroke-linejoin:miter;stroke-width:0.8;"/>
   </g>
   <g id="text_13">
    <!-- wbarocc -->
    <defs>
     <path d="M 4.203125 54.6875 
L 13.1875 54.6875 
L 24.421875 12.015625 
L 35.59375 54.6875 
L 46.1875 54.6875 
L 57.421875 12.015625 
L 68.609375 54.6875 
L 77.59375 54.6875 
L 63.28125 0 
L 52.6875 0 
L 40.921875 44.828125 
L 29.109375 0 
L 18.5 0 
z
" id="DejaVuSans-119"/>
     <path d="M 48.6875 27.296875 
Q 48.6875 37.203125 44.609375 42.84375 
Q 40.53125 48.484375 33.40625 48.484375 
Q 26.265625 48.484375 22.1875 42.84375 
Q 18.109375 37.203125 18.109375 27.296875 
Q 18.109375 17.390625 22.1875 11.75 
Q 26.265625 6.109375 33.40625 6.109375 
Q 40.53125 6.109375 44.609375 11.75 
Q 48.6875 17.390625 48.6875 27.296875 
z
M 18.109375 46.390625 
Q 20.953125 51.265625 25.265625 53.625 
Q 29.59375 56 35.59375 56 
Q 45.5625 56 51.78125 48.09375 
Q 58.015625 40.1875 58.015625 27.296875 
Q 58.015625 14.40625 51.78125 6.484375 
Q 45.5625 -1.421875 35.59375 -1.421875 
Q 29.59375 -1.421875 25.265625 0.953125 
Q 20.953125 3.328125 18.109375 8.203125 
L 18.109375 0 
L 9.078125 0 
L 9.078125 75.984375 
L 18.109375 75.984375 
z
" id="DejaVuSans-98"/>
     <path d="M 34.28125 27.484375 
Q 23.390625 27.484375 19.1875 25 
Q 14.984375 22.515625 14.984375 16.5 
Q 14.984375 11.71875 18.140625 8.90625 
Q 21.296875 6.109375 26.703125 6.109375 
Q 34.1875 6.109375 38.703125 11.40625 
Q 43.21875 16.703125 43.21875 25.484375 
L 43.21875 27.484375 
z
M 52.203125 31.203125 
L 52.203125 0 
L 43.21875 0 
L 43.21875 8.296875 
Q 40.140625 3.328125 35.546875 0.953125 
Q 30.953125 -1.421875 24.3125 -1.421875 
Q 15.921875 -1.421875 10.953125 3.296875 
Q 6 8.015625 6 15.921875 
Q 6 25.140625 12.171875 29.828125 
Q 18.359375 34.515625 30.609375 34.515625 
L 43.21875 34.515625 
L 43.21875 35.40625 
Q 43.21875 41.609375 39.140625 45 
Q 35.0625 48.390625 27.6875 48.390625 
Q 23 48.390625 18.546875 47.265625 
Q 14.109375 46.140625 10.015625 43.890625 
L 10.015625 52.203125 
Q 14.9375 54.109375 19.578125 55.046875 
Q 24.21875 56 28.609375 56 
Q 40.484375 56 46.34375 49.84375 
Q 52.203125 43.703125 52.203125 31.203125 
z
" id="DejaVuSans-97"/>
     <path d="M 41.109375 46.296875 
Q 39.59375 47.171875 37.8125 47.578125 
Q 36.03125 48 33.890625 48 
Q 26.265625 48 22.1875 43.046875 
Q 18.109375 38.09375 18.109375 28.8125 
L 18.109375 0 
L 9.078125 0 
L 9.078125 54.6875 
L 18.109375 54.6875 
L 18.109375 46.1875 
Q 20.953125 51.171875 25.484375 53.578125 
Q 30.03125 56 36.53125 56 
Q 37.453125 56 38.578125 55.875 
Q 39.703125 55.765625 41.0625 55.515625 
z
" id="DejaVuSans-114"/>
     <path d="M 48.78125 52.59375 
L 48.78125 44.1875 
Q 44.96875 46.296875 41.140625 47.34375 
Q 37.3125 48.390625 33.40625 48.390625 
Q 24.65625 48.390625 19.8125 42.84375 
Q 14.984375 37.3125 14.984375 27.296875 
Q 14.984375 17.28125 19.8125 11.734375 
Q 24.65625 6.203125 33.40625 6.203125 
Q 37.3125 6.203125 41.140625 7.25 
Q 44.96875 8.296875 48.78125 10.40625 
L 48.78125 2.09375 
Q 45.015625 0.34375 40.984375 -0.53125 
Q 36.96875 -1.421875 32.421875 -1.421875 
Q 20.0625 -1.421875 12.78125 6.34375 
Q 5.515625 14.109375 5.515625 27.296875 
Q 5.515625 40.671875 12.859375 48.328125 
Q 20.21875 56 33.015625 56 
Q 37.15625 56 41.109375 55.140625 
Q 45.0625 54.296875 48.78125 52.59375 
z
" id="DejaVuSans-99"/>
    </defs>
    <g transform="translate(236.689063 16.318125)scale(0.12 -0.12)">
     <use xlink:href="#DejaVuSans-119"/>
     <use x="81.787109" xlink:href="#DejaVuSans-98"/>
     <use x="145.263672" xlink:href="#DejaVuSans-97"/>
     <use x="206.542969" xlink:href="#DejaVuSans-114"/>
     <use x="245.40625" xlink:href="#DejaVuSans-111"/>
     <use x="306.587891" xlink:href="#DejaVuSans-99"/>
     <use x="361.568359" xlink:href="#DejaVuSans-99"/>
    </g>
   </g>
   <g id="legend_1">
    <g id="patch_5">
     <path d="M 491.882812 174.457188 
L 583.782812 174.457188 
Q 585.782812 174.457188 585.782812 172.457188 
L 585.782812 143.979063 
Q 585.782812 141.979063 583.782812 141.979063 
L 491.882812 141.979063 
Q 489.882812 141.979063 489.882812 143.979063 
L 489.882812 172.457188 
Q 489.882812 174.457188 491.882812 174.457188 
z
" style="fill:#ffffff;opacity:0.8;stroke:#cccccc;stroke-linejoin:miter;"/>
    </g>
    <g id="line2d_14">
     <path d="M 493.882812 150.0775 
L 513.882812 150.0775 
" style="fill:none;stroke:#000000;stroke-dasharray:3.7,1.6;stroke-dashoffset:0;"/>
    </g>
    <g id="line2d_15"/>
    <g id="text_14">
     <!-- Baseline -->
     <defs>
      <path d="M 19.671875 34.8125 
L 19.671875 8.109375 
L 35.5 8.109375 
Q 43.453125 8.109375 47.28125 11.40625 
Q 51.125 14.703125 51.125 21.484375 
Q 51.125 28.328125 47.28125 31.5625 
Q 43.453125 34.8125 35.5 34.8125 
z
M 19.671875 64.796875 
L 19.671875 42.828125 
L 34.28125 42.828125 
Q 41.5 42.828125 45.03125 45.53125 
Q 48.578125 48.25 48.578125 53.8125 
Q 48.578125 59.328125 45.03125 62.0625 
Q 41.5 64.796875 34.28125 64.796875 
z
M 9.8125 72.90625 
L 35.015625 72.90625 
Q 46.296875 72.90625 52.390625 68.21875 
Q 58.5 63.53125 58.5 54.890625 
Q 58.5 48.1875 55.375 44.234375 
Q 52.25 40.28125 46.1875 39.3125 
Q 53.46875 37.75 57.5 32.78125 
Q 61.53125 27.828125 61.53125 20.40625 
Q 61.53125 10.640625 54.890625 5.3125 
Q 48.25 0 35.984375 0 
L 9.8125 0 
z
" id="DejaVuSans-66"/>
      <path d="M 44.28125 53.078125 
L 44.28125 44.578125 
Q 40.484375 46.53125 36.375 47.5 
Q 32.28125 48.484375 27.875 48.484375 
Q 21.1875 48.484375 17.84375 46.4375 
Q 14.5 44.390625 14.5 40.28125 
Q 14.5 37.15625 16.890625 35.375 
Q 19.28125 33.59375 26.515625 31.984375 
L 29.59375 31.296875 
Q 39.15625 29.25 43.1875 25.515625 
Q 47.21875 21.78125 47.21875 15.09375 
Q 47.21875 7.46875 41.1875 3.015625 
Q 35.15625 -1.421875 24.609375 -1.421875 
Q 20.21875 -1.421875 15.453125 -0.5625 
Q 10.6875 0.296875 5.421875 2 
L 5.421875 11.28125 
Q 10.40625 8.6875 15.234375 7.390625 
Q 20.0625 6.109375 24.8125 6.109375 
Q 31.15625 6.109375 34.5625 8.28125 
Q 37.984375 10.453125 37.984375 14.40625 
Q 37.984375 18.0625 35.515625 20.015625 
Q 33.0625 21.96875 24.703125 23.78125 
L 21.578125 24.515625 
Q 13.234375 26.265625 9.515625 29.90625 
Q 5.8125 33.546875 5.8125 39.890625 
Q 5.8125 47.609375 11.28125 51.796875 
Q 16.75 56 26.8125 56 
Q 31.78125 56 36.171875 55.265625 
Q 40.578125 54.546875 44.28125 53.078125 
z
" id="DejaVuSans-115"/>
      <path d="M 9.421875 75.984375 
L 18.40625 75.984375 
L 18.40625 0 
L 9.421875 0 
z
" id="DejaVuSans-108"/>
      <path d="M 9.421875 54.6875 
L 18.40625 54.6875 
L 18.40625 0 
L 9.421875 0 
z
M 9.421875 75.984375 
L 18.40625 75.984375 
L 18.40625 64.59375 
L 9.421875 64.59375 
z
" id="DejaVuSans-105"/>
      <path d="M 54.890625 33.015625 
L 54.890625 0 
L 45.90625 0 
L 45.90625 32.71875 
Q 45.90625 40.484375 42.875 44.328125 
Q 39.84375 48.1875 33.796875 48.1875 
Q 26.515625 48.1875 22.3125 43.546875 
Q 18.109375 38.921875 18.109375 30.90625 
L 18.109375 0 
L 9.078125 0 
L 9.078125 54.6875 
L 18.109375 54.6875 
L 18.109375 46.1875 
Q 21.34375 51.125 25.703125 53.5625 
Q 30.078125 56 35.796875 56 
Q 45.21875 56 50.046875 50.171875 
Q 54.890625 44.34375 54.890625 33.015625 
z
" id="DejaVuSans-110"/>
     </defs>
     <g transform="translate(521.882812 153.5775)scale(0.1 -0.1)">
      <use xlink:href="#DejaVuSans-66"/>
      <use x="68.603516" xlink:href="#DejaVuSans-97"/>
      <use x="129.882812" xlink:href="#DejaVuSans-115"/>
      <use x="181.982422" xlink:href="#DejaVuSans-101"/>
      <use x="243.505859" xlink:href="#DejaVuSans-108"/>
      <use x="271.289062" xlink:href="#DejaVuSans-105"/>
      <use x="299.072266" xlink:href="#DejaVuSans-110"/>
      <use x="362.451172" xlink:href="#DejaVuSans-101"/>
     </g>
    </g>
    <g id="line2d_16">
     <path d="M 493.882812 164.857188 
L 513.882812 164.857188 
" style="fill:none;stroke:#1f77b4;stroke-linecap:square;stroke-width:1.5;"/>
    </g>
    <g id="line2d_17"/>
    <g id="text_15">
     <!-- $\Uparrow \beta$ (shape) -->
     <defs>
      <path d="M 36.765625 58.59375 
L 36.765625 0 
L 30.90625 0 
L 30.90625 52.734375 
L 26.421875 48.140625 
L 20.5625 54 
L 39.703125 73.25 
L 44.09375 73.25 
L 63.328125 54 
L 57.46875 48.140625 
L 52.875 52.734375 
L 52.875 0 
L 47.015625 0 
L 47.015625 58.59375 
L 41.9375 63.671875 
z
" id="DejaVuSans-8657"/>
      <path d="M 13.625 3.375 
L 8.9375 -20.796875 
L -0.09375 -20.796875 
L 14.5 54.34375 
Q 18.84375 76.609375 39.65625 76.609375 
Q 60.75 76.609375 57.171875 57.8125 
Q 54.734375 44.4375 45.21875 39.546875 
Q 58.015625 35.15625 55.515625 22.125 
Q 51.125 -1.078125 27.484375 -1.03125 
Q 17.140625 -0.984375 13.625 3.375 
z
M 15.921875 15.09375 
Q 19.671875 6.59375 29.296875 6.640625 
Q 43.359375 6.640625 46.34375 21.96875 
Q 49.03125 35.75 26.171875 34.671875 
L 27.78125 42.96875 
Q 45.453125 42.671875 48.53125 58.59375 
Q 50.640625 69.34375 39.203125 69.28125 
Q 26.421875 69.28125 23.484375 54.046875 
z
" id="DejaVuSans-Oblique-946"/>
      <path id="DejaVuSans-32"/>
      <path d="M 31 75.875 
Q 24.46875 64.65625 21.28125 53.65625 
Q 18.109375 42.671875 18.109375 31.390625 
Q 18.109375 20.125 21.3125 9.0625 
Q 24.515625 -2 31 -13.1875 
L 23.1875 -13.1875 
Q 15.875 -1.703125 12.234375 9.375 
Q 8.59375 20.453125 8.59375 31.390625 
Q 8.59375 42.28125 12.203125 53.3125 
Q 15.828125 64.359375 23.1875 75.875 
z
" id="DejaVuSans-40"/>
      <path d="M 54.890625 33.015625 
L 54.890625 0 
L 45.90625 0 
L 45.90625 32.71875 
Q 45.90625 40.484375 42.875 44.328125 
Q 39.84375 48.1875 33.796875 48.1875 
Q 26.515625 48.1875 22.3125 43.546875 
Q 18.109375 38.921875 18.109375 30.90625 
L 18.109375 0 
L 9.078125 0 
L 9.078125 75.984375 
L 18.109375 75.984375 
L 18.109375 46.1875 
Q 21.34375 51.125 25.703125 53.5625 
Q 30.078125 56 35.796875 56 
Q 45.21875 56 50.046875 50.171875 
Q 54.890625 44.34375 54.890625 33.015625 
z
" id="DejaVuSans-104"/>
      <path d="M 8.015625 75.875 
L 15.828125 75.875 
Q 23.140625 64.359375 26.78125 53.3125 
Q 30.421875 42.28125 30.421875 31.390625 
Q 30.421875 20.453125 26.78125 9.375 
Q 23.140625 -1.703125 15.828125 -13.1875 
L 8.015625 -13.1875 
Q 14.5 -2 17.703125 9.0625 
Q 20.90625 20.125 20.90625 31.390625 
Q 20.90625 42.671875 17.703125 53.65625 
Q 14.5 64.65625 8.015625 75.875 
z
" id="DejaVuSans-41"/>
     </defs>
     <g transform="translate(521.882812 168.357188)scale(0.1 -0.1)">
      <use transform="translate(19.482422 0.390625)" xlink:href="#DejaVuSans-8657"/>
      <use transform="translate(122.753906 0.390625)" xlink:href="#DejaVuSans-Oblique-946"/>
      <use transform="translate(186.572266 0.390625)" xlink:href="#DejaVuSans-32"/>
      <use transform="translate(218.359375 0.390625)" xlink:href="#DejaVuSans-40"/>
      <use transform="translate(257.373047 0.390625)" xlink:href="#DejaVuSans-115"/>
      <use transform="translate(309.472656 0.390625)" xlink:href="#DejaVuSans-104"/>
      <use transform="translate(372.851562 0.390625)" xlink:href="#DejaVuSans-97"/>
      <use transform="translate(434.130859 0.390625)" xlink:href="#DejaVuSans-112"/>
      <use transform="translate(497.607422 0.390625)" xlink:href="#DejaVuSans-101"/>
      <use transform="translate(559.130859 0.390625)" xlink:href="#DejaVuSans-41"/>
     </g>
    </g>
   </g>
  </g>
 </g>
 <defs>
  <clipPath id="p143b6e9f2a">
   <rect height="271.8" width="446.4" x="38.482813" y="22.318125"/>
  </clipPath>
 </defs>
</svg>
