<?xml version="1.0" encoding="utf-8" standalone="no"?>
<!DOCTYPE svg PUBLIC "-//W3C//DTD SVG 1.1//EN"
  "http://www.w3.org/Graphics/SVG/1.1/DTD/svg11.dtd">
<!-- Created with matplotlib (https://matplotlib.org/) -->
<svg height="331.674375pt" version="1.1" viewBox="0 0 594.15 331.674375" width="594.15pt" xmlns="http://www.w3.org/2000/svg" xmlns:xlink="http://www.w3.org/1999/xlink">
 <defs>
  <style type="text/css">
*{stroke-linecap:butt;stroke-linejoin:round;}
  </style>
 </defs>
 <g id="figure_1">
  <g id="patch_1">
   <path d="M 0 331.674375 
L 594.15 331.674375 
L 594.15 0 
L 0 0 
z
" style="fill:#ffffff;"/>
  </g>
  <g id="axes_1">
   <g id="patch_2">
    <path d="M 39.65 294.118125 
L 486.05 294.118125 
L 486.05 22.318125 
L 39.65 22.318125 
z
" style="fill:#ffffff;"/>
   </g>
   <g id="line2d_1">
    <path clip-path="url(#pfbe0b5748f)" d="M 59.940909 281.682172 
L 60.666881 280.762968 
L 61.392852 281.039426 
L 62.118824 281.614384 
L 64.296739 281.269585 
L 66.474654 281.31126 
L 67.200626 281.538214 
L 67.926598 281.155886 
L 68.65257 281.567573 
L 70.104513 281.76358 
L 70.830485 281.568984 
L 71.556456 280.688106 
L 73.0084 281.608269 
L 74.460343 281.531964 
L 75.186315 281.53006 
L 75.912287 281.098144 
L 76.638258 281.346292 
L 77.36423 281.127684 
L 78.090202 281.584151 
L 78.816173 281.717182 
L 79.542145 281.558106 
L 80.268117 280.926881 
L 80.994088 281.378676 
L 81.72006 281.339412 
L 82.446032 281.670431 
L 83.172004 281.607144 
L 83.897975 281.027263 
L 85.349919 281.380147 
L 86.07589 281.38106 
L 86.801862 281.533007 
L 88.253805 281.257073 
L 88.979777 281.647238 
L 89.705749 281.304108 
L 90.431721 281.525858 
L 91.157692 281.330116 
L 91.883664 281.254102 
L 92.609636 281.686034 
L 94.061579 281.329892 
L 94.787551 281.504705 
L 95.513523 281.390573 
L 96.239494 280.787316 
L 97.691438 281.511531 
L 98.417409 281.675205 
L 99.143381 281.623607 
L 99.869353 281.261927 
L 101.321296 281.614866 
L 102.77324 281.723366 
L 103.499211 281.326228 
L 104.225183 281.593559 
L 104.951155 280.925276 
L 105.677126 281.34254 
L 106.403098 281.410999 
L 107.12907 281.327842 
L 107.855041 281.561265 
L 108.581013 281.370146 
L 110.032957 281.608048 
L 110.758928 281.352364 
L 112.210872 281.525457 
L 112.936843 281.410785 
L 113.662815 281.481338 
L 114.388787 281.16792 
L 116.566702 281.553928 
L 117.292674 281.012208 
L 118.018645 281.376301 
L 118.744617 281.294909 
L 119.470589 281.472317 
L 120.19656 281.116566 
L 121.648504 281.675943 
L 123.100447 281.268242 
L 123.826419 281.378045 
L 124.552391 281.296323 
L 125.278362 281.076185 
L 126.004334 280.238881 
L 127.456277 281.547801 
L 128.182249 281.293501 
L 128.908221 281.330771 
L 129.634193 281.503064 
L 130.360164 281.052689 
L 131.086136 281.146232 
L 131.812108 281.517388 
L 132.538079 281.257655 
L 133.264051 281.315057 
L 133.990023 281.235827 
L 134.715994 280.99297 
L 135.441966 281.26068 
L 136.167938 280.769232 
L 136.89391 281.250725 
L 138.345853 281.112836 
L 139.071825 281.351202 
L 139.797796 280.690157 
L 140.523768 281.214225 
L 141.24974 280.52775 
L 141.975711 281.261902 
L 143.427655 280.628391 
L 144.153627 280.50236 
L 144.879598 280.941862 
L 145.60557 281.242816 
L 146.331542 281.201599 
L 147.057513 280.675092 
L 147.783485 280.823462 
L 148.509457 281.205711 
L 149.9614 281.284678 
L 150.687372 281.063174 
L 151.413344 281.51454 
L 152.139315 280.995175 
L 152.865287 281.134276 
L 153.591259 281.109981 
L 154.31723 280.47582 
L 155.043202 281.266521 
L 155.769174 280.61181 
L 156.495146 281.020046 
L 157.947089 280.877535 
L 158.673061 281.070193 
L 159.399032 281.054011 
L 160.125004 280.805525 
L 160.850976 281.362834 
L 161.576947 280.951379 
L 163.028891 280.987275 
L 163.754863 280.718068 
L 164.480834 280.865651 
L 165.206806 281.28776 
L 165.932778 280.691732 
L 166.658749 281.286819 
L 167.384721 281.042034 
L 168.110693 281.258489 
L 168.836664 281.59206 
L 169.562636 281.183161 
L 170.288608 281.353157 
L 171.740551 281.017734 
L 172.466523 281.153632 
L 173.918466 280.866642 
L 176.096382 281.211751 
L 178.274297 281.185184 
L 179.000268 281.099915 
L 179.72624 281.16883 
L 180.452212 280.970276 
L 181.178183 281.372066 
L 182.630127 280.968837 
L 183.356099 281.224683 
L 184.08207 281.052247 
L 185.534014 281.109249 
L 186.259985 281.311829 
L 187.711929 280.917824 
L 188.4379 281.254477 
L 189.163872 281.443733 
L 190.615816 281.212287 
L 191.341787 280.897831 
L 192.067759 280.763504 
L 192.793731 281.159733 
L 193.519702 281.295213 
L 194.245674 281.041458 
L 194.971646 281.361957 
L 195.697617 280.872081 
L 197.875533 281.209246 
L 198.601504 281.408663 
L 199.327476 281.130079 
L 200.053448 281.370113 
L 200.779419 281.297379 
L 201.505391 281.093786 
L 202.231363 280.531774 
L 202.957335 281.256956 
L 203.683306 281.34896 
L 204.409278 280.793329 
L 205.13525 280.945441 
L 205.861221 280.835073 
L 206.587193 280.462157 
L 207.313165 281.067501 
L 209.49108 281.13415 
L 210.217052 280.988765 
L 211.668995 281.029916 
L 212.394967 280.73726 
L 213.120938 281.009023 
L 215.298853 281.419884 
L 216.024825 281.270305 
L 216.750797 280.761429 
L 217.476769 281.03834 
L 218.928712 280.739733 
L 219.654684 281.142324 
L 220.380655 280.587655 
L 221.106627 281.06258 
L 221.832599 280.88364 
L 222.55857 280.145267 
L 223.284542 280.803019 
L 224.010514 281.018859 
L 224.736486 281.093652 
L 225.462457 281.002604 
L 226.188429 281.031312 
L 226.914401 280.747651 
L 227.640372 280.7819 
L 228.366344 281.016412 
L 229.092316 280.622691 
L 229.818288 281.183603 
L 230.544259 281.077816 
L 231.996203 281.057402 
L 232.722174 280.840467 
L 233.448146 280.797736 
L 234.174118 280.9892 
L 234.900089 280.978363 
L 235.626061 280.810264 
L 237.078005 281.05185 
L 238.529948 280.750786 
L 239.25592 280.883101 
L 239.981891 280.755331 
L 240.707863 280.188044 
L 242.885778 280.897041 
L 243.61175 280.607005 
L 244.337722 280.754644 
L 245.063693 280.619198 
L 245.789665 279.903672 
L 246.515637 280.79339 
L 247.241608 280.704494 
L 247.96758 279.847224 
L 248.693552 280.443413 
L 249.419523 280.385954 
L 250.871467 280.729567 
L 251.597439 280.478423 
L 252.32341 280.681312 
L 253.049382 280.56628 
L 255.227297 280.561087 
L 255.953269 279.956944 
L 258.131184 280.69873 
L 258.857156 280.254819 
L 259.583127 280.283013 
L 261.035071 280.682225 
L 261.761042 280.350984 
L 262.487014 280.197621 
L 263.212986 280.441191 
L 263.938958 280.830275 
L 264.664929 279.861523 
L 265.390901 279.903787 
L 266.116873 280.469446 
L 266.842844 280.316696 
L 267.568816 280.289909 
L 268.294788 280.83983 
L 269.020759 280.178994 
L 269.746731 280.00441 
L 271.198675 280.308898 
L 271.924646 280.242157 
L 272.650618 280.482952 
L 273.37659 280.02797 
L 274.102561 280.389891 
L 274.828533 280.335722 
L 275.554505 280.094161 
L 276.280477 280.451619 
L 277.73242 280.06723 
L 279.184363 280.351157 
L 280.636307 279.993524 
L 281.362278 279.056182 
L 282.814222 280.255301 
L 283.540194 279.939792 
L 284.266165 280.431336 
L 284.992137 280.393697 
L 285.718109 280.216826 
L 286.44408 279.91402 
L 287.170052 279.994066 
L 287.896024 280.200902 
L 288.621995 279.700201 
L 289.347967 280.234098 
L 290.073939 280.141773 
L 291.525882 278.581889 
L 292.251854 279.669955 
L 292.977826 279.962531 
L 293.703797 280.078725 
L 294.429769 279.77543 
L 295.155741 279.988126 
L 295.881712 279.933669 
L 296.607684 279.63284 
L 297.333656 280.039705 
L 298.059628 279.907084 
L 298.785599 279.588346 
L 299.511571 279.772571 
L 300.237543 279.684887 
L 300.963514 280.191035 
L 301.689486 279.358334 
L 302.415458 280.124153 
L 303.14143 279.492183 
L 303.867401 279.271734 
L 304.593373 280.022351 
L 305.319345 279.713512 
L 306.045316 279.618578 
L 306.771288 279.772953 
L 307.49726 279.77502 
L 308.223231 279.64963 
L 308.949203 279.663377 
L 309.675175 280.016458 
L 310.401147 279.308508 
L 311.127118 279.249971 
L 314.031005 279.699202 
L 314.756977 280.032929 
L 315.482948 279.240688 
L 316.20892 278.789415 
L 316.934892 278.725406 
L 317.660864 279.268199 
L 318.386835 278.756386 
L 319.112807 279.396464 
L 319.838779 278.787493 
L 320.56475 278.976797 
L 321.290722 279.487002 
L 322.016694 279.459148 
L 322.742665 279.565284 
L 323.468637 279.003456 
L 324.194609 279.348194 
L 324.920581 278.332854 
L 325.646552 279.534762 
L 326.372524 279.494275 
L 327.824467 279.001982 
L 328.550439 279.172433 
L 329.276411 278.904967 
L 330.728354 278.847105 
L 331.454326 278.800641 
L 332.180298 278.391265 
L 332.906269 278.492302 
L 333.632241 279.045358 
L 334.358213 278.740466 
L 335.084184 278.925434 
L 335.810156 278.09295 
L 336.536128 278.971017 
L 337.2621 279.142689 
L 337.988071 278.292948 
L 339.440015 278.698321 
L 340.165986 278.563799 
L 340.891958 277.781118 
L 341.61793 278.576582 
L 342.343901 278.812537 
L 343.069873 278.430499 
L 343.795845 279.044024 
L 344.521817 278.210742 
L 345.97376 278.304183 
L 346.699732 278.839895 
L 347.425703 278.074505 
L 348.151675 277.857733 
L 348.877647 278.695397 
L 349.603618 277.962556 
L 350.32959 278.596948 
L 351.055562 277.719112 
L 351.781534 278.177397 
L 352.507505 278.228009 
L 353.233477 277.69694 
L 353.959449 277.307765 
L 355.411392 278.311639 
L 356.137364 277.699067 
L 357.589307 277.316066 
L 358.315279 278.050151 
L 359.041251 278.052949 
L 359.767222 277.663383 
L 360.493194 278.190708 
L 361.219166 278.106837 
L 361.945137 277.310471 
L 363.397081 277.556666 
L 364.123053 277.150457 
L 364.849024 276.898362 
L 365.574996 276.43726 
L 366.300968 277.434856 
L 367.026939 276.841149 
L 367.752911 277.488137 
L 368.478883 277.17781 
L 369.204854 277.322569 
L 369.930826 276.701678 
L 370.656798 277.094623 
L 371.38277 276.225346 
L 372.108741 276.426292 
L 372.834713 276.503125 
L 373.560685 277.090215 
L 374.286656 276.440412 
L 375.012628 277.511205 
L 375.7386 277.138514 
L 376.464571 276.935861 
L 377.190543 275.769202 
L 377.916515 276.702342 
L 378.642487 276.497739 
L 380.09443 276.551224 
L 380.820402 276.843082 
L 381.546373 276.811322 
L 382.272345 276.254586 
L 383.724289 276.174322 
L 384.45026 275.763539 
L 385.176232 275.666431 
L 385.902204 275.241982 
L 386.628175 276.464497 
L 387.354147 275.910383 
L 388.080119 275.795337 
L 388.80609 275.914537 
L 389.532062 274.793443 
L 390.258034 275.414774 
L 390.984006 275.089262 
L 392.435949 275.804474 
L 393.161921 275.964013 
L 393.887892 275.092295 
L 394.613864 275.521017 
L 395.339836 274.74139 
L 396.065807 275.273983 
L 396.791779 275.503157 
L 397.517751 274.499272 
L 398.243723 275.420888 
L 398.969694 275.385714 
L 399.695666 274.340494 
L 400.421638 274.698606 
L 401.147609 274.415405 
L 401.873581 274.607239 
L 402.599553 274.463683 
L 403.325524 274.877211 
L 404.051496 273.351493 
L 404.777468 274.44542 
L 405.50344 274.331999 
L 406.229411 274.407979 
L 406.955383 274.178647 
L 407.681355 274.641555 
L 408.407326 273.535207 
L 409.133298 273.779817 
L 409.85927 273.220974 
L 410.585242 272.822652 
L 411.311213 273.76179 
L 412.037185 273.083958 
L 412.763157 273.566148 
L 413.489128 274.405453 
L 414.2151 273.612589 
L 414.941072 273.724983 
L 415.667043 273.624018 
L 417.118987 272.217105 
L 417.844959 273.055459 
L 418.57093 272.816396 
L 419.296902 272.972212 
L 420.022874 271.63025 
L 420.748845 272.912546 
L 421.474817 272.094885 
L 422.200789 272.247159 
L 422.92676 271.38695 
L 423.652732 271.81007 
L 425.104676 272.027841 
L 425.830647 271.137075 
L 426.556619 270.916105 
L 427.282591 271.965397 
L 428.008562 270.969722 
L 428.734534 270.693944 
L 429.460506 271.673644 
L 430.186477 270.761029 
L 430.912449 270.728609 
L 431.638421 269.863083 
L 432.364393 271.22149 
L 433.090364 271.443398 
L 433.816336 271.108008 
L 434.542308 269.711597 
L 435.268279 270.933293 
L 435.994251 269.173135 
L 436.720223 270.442908 
L 438.172166 270.007029 
L 438.898138 270.389572 
L 439.62411 269.646147 
L 440.350081 270.362812 
L 441.076053 269.626579 
L 441.802025 268.393351 
L 442.527996 268.827201 
L 443.253968 268.876822 
L 443.97994 269.518843 
L 444.705912 268.738581 
L 445.431883 267.709668 
L 446.157855 267.648403 
L 446.883827 268.844609 
L 447.609798 269.107957 
L 448.33577 268.118828 
L 449.061742 267.964215 
L 449.787713 268.219691 
L 450.513685 267.823541 
L 451.239657 268.361078 
L 451.965629 267.907043 
L 452.6916 267.182429 
L 453.417572 268.1018 
L 454.143544 266.864858 
L 454.869515 268.163493 
L 455.595487 266.735376 
L 456.321459 267.188525 
L 457.04743 267.041536 
L 458.499374 266.418894 
L 459.225346 266.808983 
L 459.951317 265.367714 
L 460.677289 265.8031 
L 461.403261 266.451204 
L 462.129232 265.308469 
L 463.581176 266.408164 
L 464.307148 265.173395 
L 465.033119 265.596162 
L 465.759091 263.190413 
L 465.759091 263.190413 
" style="fill:none;stroke:#1f77b4;stroke-linecap:square;stroke-width:1.5;"/>
   </g>
   <g id="line2d_2">
    <path clip-path="url(#pfbe0b5748f)" d="M 59.940909 246.914224 
L 61.392852 141.126353 
L 62.118824 203.443491 
L 62.844796 224.655445 
L 63.570768 251.141433 
L 64.296739 251.459597 
L 65.022711 222.71593 
L 65.748683 239.664519 
L 66.474654 177.404623 
L 67.200626 223.409458 
L 67.926598 220.902304 
L 68.65257 215.195286 
L 69.378541 244.727312 
L 70.104513 184.571653 
L 70.830485 212.078067 
L 71.556456 227.633323 
L 72.282428 133.595598 
L 73.0084 220.131338 
L 73.734371 161.241561 
L 74.460343 140.435819 
L 75.186315 241.836959 
L 75.912287 179.403506 
L 76.638258 187.651897 
L 77.36423 233.142827 
L 78.090202 219.771047 
L 78.816173 151.345828 
L 79.542145 130.057518 
L 80.268117 228.910608 
L 80.994088 185.687406 
L 81.72006 126.753165 
L 82.446032 218.763039 
L 83.172004 230.82978 
L 83.897975 212.668144 
L 84.623947 145.316475 
L 85.349919 164.342792 
L 86.07589 232.101468 
L 86.801862 249.010075 
L 87.527834 245.496259 
L 88.253805 247.575147 
L 88.979777 230.523237 
L 89.705749 172.264233 
L 90.431721 208.959635 
L 91.157692 252.215161 
L 91.883664 253.570273 
L 92.609636 166.091142 
L 93.335607 200.86784 
L 94.061579 153.337415 
L 94.787551 187.895752 
L 95.513523 242.80832 
L 96.239494 200.177772 
L 96.965466 206.165642 
L 97.691438 236.211092 
L 98.417409 233.063987 
L 99.143381 235.073971 
L 99.869353 233.759425 
L 100.595324 158.072066 
L 101.321296 140.461861 
L 102.047268 210.509953 
L 102.77324 245.633049 
L 103.499211 246.323024 
L 104.225183 185.671423 
L 104.951155 229.958445 
L 105.677126 229.432123 
L 106.403098 153.944777 
L 107.12907 137.674594 
L 107.855041 241.636587 
L 108.581013 238.191946 
L 109.306985 249.526644 
L 110.032957 246.114264 
L 110.758928 171.549143 
L 111.4849 157.208594 
L 112.210872 234.607199 
L 112.936843 247.236476 
L 113.662815 252.249887 
L 114.388787 252.73021 
L 115.114758 231.395531 
L 115.84073 224.838963 
L 116.566702 240.496434 
L 117.292674 245.643768 
L 118.018645 176.080981 
L 118.744617 200.640471 
L 119.470589 255.85258 
L 120.19656 258.248655 
L 120.922532 169.563231 
L 121.648504 135.59408 
L 123.100447 230.231769 
L 123.826419 235.050576 
L 124.552391 212.490675 
L 125.278362 223.764383 
L 126.004334 160.760289 
L 126.730306 130.121291 
L 127.456277 234.480123 
L 128.182249 243.798587 
L 128.908221 180.195751 
L 129.634193 222.374066 
L 130.360164 243.224235 
L 131.086136 210.147389 
L 131.812108 245.571871 
L 132.538079 250.096689 
L 133.264051 165.094988 
L 133.990023 218.961729 
L 134.715994 186.341216 
L 135.441966 201.092933 
L 136.167938 244.453762 
L 136.89391 235.253723 
L 137.619881 250.444148 
L 138.345853 252.647163 
L 139.071825 232.987966 
L 139.797796 245.608814 
L 140.523768 179.762886 
L 141.24974 124.908881 
L 141.975711 238.158293 
L 142.701683 248.098607 
L 143.427655 252.453713 
L 144.153627 260.922875 
L 144.879598 244.632106 
L 145.60557 223.796347 
L 146.331542 179.740001 
L 147.783485 251.593563 
L 148.509457 254.014986 
L 149.235429 237.977627 
L 149.9614 226.8238 
L 150.687372 249.932905 
L 151.413344 248.691309 
L 152.139315 163.359748 
L 152.865287 121.934269 
L 153.591259 236.37557 
L 154.31723 247.729498 
L 155.043202 237.748384 
L 156.495146 210.780672 
L 157.221117 227.429687 
L 157.947089 248.396063 
L 158.673061 230.105457 
L 159.399032 235.231602 
L 160.125004 236.568964 
L 160.850976 248.327921 
L 161.576947 256.59639 
L 162.302919 237.824446 
L 163.028891 241.867861 
L 163.754863 239.738738 
L 164.480834 165.495644 
L 165.206806 193.919343 
L 165.932778 241.595552 
L 166.658749 250.817987 
L 167.384721 246.805757 
L 168.110693 258.824916 
L 168.836664 259.936553 
L 169.562636 259.364409 
L 170.288608 253.342714 
L 171.01458 192.636243 
L 171.740551 211.398969 
L 172.466523 157.954831 
L 173.918466 253.300529 
L 174.644438 246.745733 
L 175.37041 217.395549 
L 176.096382 205.645131 
L 176.822353 227.173784 
L 177.548325 223.795776 
L 178.274297 243.805949 
L 179.000268 243.98331 
L 179.72624 230.688416 
L 180.452212 240.316634 
L 181.178183 205.675428 
L 181.904155 151.519218 
L 182.630127 125.209422 
L 183.356099 229.508733 
L 184.08207 245.665636 
L 184.808042 156.613363 
L 185.534014 194.644731 
L 186.259985 249.046476 
L 186.985957 226.364776 
L 187.711929 239.960172 
L 188.4379 251.063577 
L 189.163872 250.007617 
L 189.889844 228.444116 
L 190.615816 158.487356 
L 191.341787 220.569681 
L 192.067759 187.507136 
L 192.793731 134.007086 
L 193.519702 203.871127 
L 194.245674 165.273937 
L 194.971646 153.302474 
L 196.423589 249.207535 
L 197.149561 241.38969 
L 197.875533 237.387501 
L 198.601504 180.67218 
L 199.327476 143.374204 
L 200.053448 195.420795 
L 200.779419 227.400139 
L 201.505391 164.546877 
L 202.231363 122.778117 
L 202.957335 124.624133 
L 203.683306 195.840886 
L 204.409278 224.703455 
L 205.13525 169.940184 
L 205.861221 159.146334 
L 206.587193 206.031257 
L 207.313165 174.141286 
L 208.039136 226.138503 
L 208.765108 230.127111 
L 209.49108 230.462455 
L 210.217052 239.32002 
L 210.943023 186.860954 
L 211.668995 229.682387 
L 212.394967 249.723241 
L 213.120938 226.339319 
L 213.84691 183.315627 
L 214.572882 161.128326 
L 215.298853 240.854859 
L 216.024825 250.592748 
L 216.750797 221.444273 
L 217.476769 231.658941 
L 218.20274 224.207838 
L 218.928712 224.773437 
L 219.654684 199.046244 
L 220.380655 223.285048 
L 221.106627 238.795664 
L 221.832599 226.533491 
L 222.55857 233.223413 
L 223.284542 238.521441 
L 224.010514 181.680905 
L 224.736486 226.648865 
L 225.462457 250.200202 
L 226.188429 219.789712 
L 226.914401 171.643159 
L 227.640372 223.882228 
L 228.366344 225.436132 
L 229.092316 217.483835 
L 229.818288 243.651885 
L 230.544259 223.323184 
L 231.270231 218.512672 
L 231.996203 164.696596 
L 232.722174 199.00881 
L 233.448146 218.50591 
L 234.174118 251.398064 
L 234.900089 227.689974 
L 235.626061 235.700471 
L 236.352033 222.856916 
L 237.078005 235.883609 
L 237.803976 237.295278 
L 238.529948 212.649065 
L 239.25592 229.858737 
L 239.981891 170.195518 
L 240.707863 162.18523 
L 241.433835 211.563699 
L 242.159806 246.054641 
L 242.885778 231.65502 
L 243.61175 223.684104 
L 244.337722 205.812089 
L 245.063693 236.27547 
L 245.789665 136.482538 
L 246.515637 175.551333 
L 247.241608 242.747514 
L 247.96758 157.934447 
L 248.693552 172.741683 
L 249.419523 229.070232 
L 250.145495 175.406418 
L 250.871467 205.297625 
L 251.597439 147.138076 
L 252.32341 138.399594 
L 253.049382 199.723113 
L 253.775354 227.709764 
L 254.501325 224.263644 
L 255.227297 222.613305 
L 255.953269 176.721282 
L 256.679241 145.9904 
L 257.405212 218.356512 
L 258.131184 222.012127 
L 258.857156 154.1746 
L 259.583127 224.748504 
L 260.309099 159.881956 
L 261.035071 136.837525 
L 261.761042 199.4509 
L 262.487014 163.69566 
L 263.212986 146.833537 
L 263.938958 226.222032 
L 264.664929 172.716812 
L 265.390901 181.458003 
L 266.842844 238.951282 
L 267.568816 165.774985 
L 268.294788 214.38788 
L 269.020759 222.607408 
L 269.746731 195.384012 
L 270.472703 232.389538 
L 271.198675 222.119909 
L 271.924646 217.378129 
L 272.650618 219.757728 
L 273.37659 218.400821 
L 274.102561 167.71794 
L 274.828533 172.678009 
L 275.554505 193.197749 
L 276.280477 223.159666 
L 277.006448 212.923388 
L 277.73242 208.741711 
L 278.458392 228.420554 
L 279.184363 236.516243 
L 279.910335 225.396081 
L 280.636307 246.78413 
L 281.362278 222.856404 
L 282.08825 178.281555 
L 282.814222 203.45308 
L 283.540194 160.626051 
L 284.266165 173.389518 
L 284.992137 205.783984 
L 285.718109 172.626375 
L 286.44408 206.554069 
L 287.170052 155.758356 
L 287.896024 153.517874 
L 288.621995 173.784005 
L 289.347967 208.690591 
L 290.073939 232.268439 
L 291.525882 237.056582 
L 292.251854 241.898965 
L 292.977826 224.899193 
L 293.703797 237.872103 
L 294.429769 224.146987 
L 295.155741 233.626076 
L 295.881712 223.317421 
L 296.607684 234.177568 
L 297.333656 242.059942 
L 298.059628 243.699167 
L 298.785599 244.67656 
L 299.511571 249.870081 
L 300.237543 228.333618 
L 300.963514 240.052186 
L 301.689486 160.303839 
L 302.415458 203.32349 
L 303.14143 224.156119 
L 303.867401 228.396255 
L 304.593373 250.549713 
L 305.319345 248.879808 
L 306.045316 218.78892 
L 306.771288 156.709822 
L 307.49726 183.937453 
L 308.223231 126.641742 
L 308.949203 129.064778 
L 309.675175 168.460398 
L 310.401147 229.63259 
L 311.127118 233.854593 
L 311.85309 242.193005 
L 312.579062 231.314338 
L 314.031005 216.417527 
L 314.756977 235.985842 
L 315.482948 239.964083 
L 316.20892 237.65851 
L 316.934892 219.485033 
L 317.660864 216.119541 
L 318.386835 142.902994 
L 319.112807 206.221461 
L 319.838779 242.631172 
L 321.290722 207.987238 
L 322.016694 237.862989 
L 322.742665 171.22804 
L 323.468637 134.055722 
L 324.194609 212.27131 
L 324.920581 238.843938 
L 325.646552 243.732551 
L 326.372524 182.205781 
L 327.098496 135.337202 
L 327.824467 155.176976 
L 328.550439 221.420265 
L 329.276411 200.390121 
L 330.002383 214.215546 
L 330.728354 130.210831 
L 331.454326 188.44059 
L 332.180298 228.97535 
L 332.906269 175.747564 
L 333.632241 215.912311 
L 334.358213 215.646517 
L 335.084184 150.967103 
L 335.810156 147.621366 
L 336.536128 201.06604 
L 337.2621 152.286269 
L 337.988071 125.519609 
L 338.714043 131.731204 
L 339.440015 147.949626 
L 340.165986 220.65805 
L 340.891958 207.760237 
L 341.61793 141.225584 
L 342.343901 154.169006 
L 343.069873 221.666296 
L 343.795845 215.317101 
L 344.521817 139.488275 
L 345.247788 208.357317 
L 345.97376 184.145242 
L 346.699732 127.146776 
L 347.425703 232.342481 
L 348.151675 108.201481 
L 348.877647 182.953106 
L 349.603618 114.551153 
L 350.32959 113.005369 
L 351.055562 146.848524 
L 351.781534 161.477407 
L 352.507505 193.306517 
L 353.233477 207.977379 
L 353.959449 153.41913 
L 354.68542 184.740809 
L 355.411392 222.296188 
L 356.137364 124.496127 
L 356.863336 176.477622 
L 357.589307 144.813961 
L 358.315279 215.922729 
L 359.041251 199.136671 
L 359.767222 185.792607 
L 360.493194 176.224946 
L 361.219166 228.684188 
L 361.945137 235.794048 
L 362.671109 153.13869 
L 363.397081 108.805517 
L 364.123053 213.201873 
L 364.849024 161.820483 
L 365.574996 94.329752 
L 366.300968 132.24029 
L 367.026939 210.692475 
L 367.752911 208.422913 
L 368.478883 192.660546 
L 369.204854 203.705721 
L 369.930826 139.544707 
L 370.656798 178.225377 
L 371.38277 125.565548 
L 372.108741 111.270144 
L 372.834713 205.158967 
L 373.560685 146.717373 
L 374.286656 214.34574 
L 375.012628 210.152478 
L 376.464571 105.88295 
L 377.190543 114.19022 
L 377.916515 209.571158 
L 378.642487 189.405051 
L 379.368458 125.644815 
L 380.09443 188.862548 
L 380.820402 198.045417 
L 381.546373 194.281692 
L 382.272345 209.343293 
L 382.998317 188.481429 
L 383.724289 218.652591 
L 384.45026 197.353713 
L 385.176232 150.59415 
L 385.902204 189.50503 
L 386.628175 181.468863 
L 387.354147 126.738553 
L 388.080119 175.630492 
L 388.80609 145.366796 
L 389.532062 161.911662 
L 390.258034 200.135716 
L 390.984006 131.990271 
L 391.709977 113.344678 
L 392.435949 198.611806 
L 393.161921 199.021122 
L 393.887892 178.303765 
L 394.613864 211.974709 
L 395.339836 209.570988 
L 396.065807 153.365918 
L 396.791779 135.956558 
L 397.517751 187.403888 
L 398.243723 203.436074 
L 398.969694 201.635436 
L 399.695666 191.292245 
L 400.421638 206.16428 
L 401.147609 175.941499 
L 401.873581 212.875411 
L 402.599553 190.133866 
L 403.325524 147.143919 
L 404.051496 212.979209 
L 404.777468 200.313428 
L 405.50344 198.575584 
L 406.229411 207.085295 
L 406.955383 210.318576 
L 407.681355 212.948545 
L 408.407326 195.589204 
L 409.133298 193.115914 
L 409.85927 133.729154 
L 410.585242 185.984544 
L 411.311213 113.128892 
L 412.037185 193.738484 
L 412.763157 212.75412 
L 413.489128 127.58144 
L 414.2151 188.794561 
L 414.941072 207.19744 
L 415.667043 189.062453 
L 416.393015 195.20289 
L 417.118987 209.440864 
L 417.844959 135.308893 
L 418.57093 171.199127 
L 419.296902 195.239652 
L 420.022874 103.47566 
L 420.748845 173.310811 
L 422.200789 197.271266 
L 422.92676 106.146018 
L 423.652732 89.96463 
L 424.378704 109.320786 
L 425.104676 88.572516 
L 425.830647 109.626848 
L 426.556619 166.151442 
L 427.282591 140.41247 
L 428.008562 101.579036 
L 428.734534 102.459389 
L 429.460506 163.589219 
L 430.186477 128.740004 
L 430.912449 145.895219 
L 431.638421 115.017877 
L 432.364393 175.306803 
L 433.090364 180.90166 
L 433.816336 174.942596 
L 434.542308 71.966168 
L 435.268279 97.811308 
L 435.994251 111.683321 
L 436.720223 169.54736 
L 437.446195 114.15339 
L 438.172166 145.308893 
L 438.898138 104.593775 
L 439.62411 150.30719 
L 440.350081 88.69108 
L 441.076053 94.274724 
L 441.802025 86.347937 
L 442.527996 72.359992 
L 443.253968 149.975126 
L 443.97994 97.841506 
L 444.705912 162.786978 
L 445.431883 109.767774 
L 446.157855 164.201665 
L 446.883827 74.048456 
L 447.609798 153.916437 
L 448.33577 128.161767 
L 449.061742 59.944667 
L 449.787713 58.437214 
L 450.513685 59.140471 
L 451.239657 130.759786 
L 451.965629 92.615934 
L 452.6916 97.088294 
L 453.417572 179.157661 
L 454.143544 55.509364 
L 454.869515 125.479539 
L 455.595487 125.253986 
L 456.321459 142.075509 
L 457.04743 70.85417 
L 457.773402 53.788156 
L 458.499374 167.467105 
L 459.225346 147.733838 
L 459.951317 58.561631 
L 460.677289 76.728938 
L 461.403261 88.653616 
L 462.129232 115.63219 
L 462.855204 127.800058 
L 463.581176 77.943632 
L 464.307148 68.497779 
L 465.033119 56.903415 
L 465.759091 34.67267 
L 465.759091 34.67267 
" style="fill:none;stroke:#000000;stroke-dasharray:3.7,1.6;stroke-dashoffset:0;"/>
   </g>
   <g id="matplotlib.axis_1">
    <g id="xtick_1">
     <g id="line2d_3">
      <defs>
       <path d="M 0 0 
L 0 3.5 
" id="me99ae9bea3" style="stroke:#000000;stroke-width:0.8;"/>
      </defs>
      <g>
       <use style="stroke:#000000;stroke-width:0.8;" x="80.994088" xlink:href="#me99ae9bea3" y="294.118125"/>
      </g>
     </g>
     <g id="text_1">
      <!-- 100 -->
      <defs>
       <path d="M 12.40625 8.296875 
L 28.515625 8.296875 
L 28.515625 63.921875 
L 10.984375 60.40625 
L 10.984375 69.390625 
L 28.421875 72.90625 
L 38.28125 72.90625 
L 38.28125 8.296875 
L 54.390625 8.296875 
L 54.390625 0 
L 12.40625 0 
z
" id="DejaVuSans-49"/>
       <path d="M 31.78125 66.40625 
Q 24.171875 66.40625 20.328125 58.90625 
Q 16.5 51.421875 16.5 36.375 
Q 16.5 21.390625 20.328125 13.890625 
Q 24.171875 6.390625 31.78125 6.390625 
Q 39.453125 6.390625 43.28125 13.890625 
Q 47.125 21.390625 47.125 36.375 
Q 47.125 51.421875 43.28125 58.90625 
Q 39.453125 66.40625 31.78125 66.40625 
z
M 31.78125 74.21875 
Q 44.046875 74.21875 50.515625 64.515625 
Q 56.984375 54.828125 56.984375 36.375 
Q 56.984375 17.96875 50.515625 8.265625 
Q 44.046875 -1.421875 31.78125 -1.421875 
Q 19.53125 -1.421875 13.0625 8.265625 
Q 6.59375 17.96875 6.59375 36.375 
Q 6.59375 54.828125 13.0625 64.515625 
Q 19.53125 74.21875 31.78125 74.21875 
z
" id="DejaVuSans-48"/>
      </defs>
      <g transform="translate(71.450338 308.716563)scale(0.1 -0.1)">
       <use xlink:href="#DejaVuSans-49"/>
       <use x="63.623047" xlink:href="#DejaVuSans-48"/>
       <use x="127.246094" xlink:href="#DejaVuSans-48"/>
      </g>
     </g>
    </g>
    <g id="xtick_2">
     <g id="line2d_4">
      <g>
       <use style="stroke:#000000;stroke-width:0.8;" x="153.591259" xlink:href="#me99ae9bea3" y="294.118125"/>
      </g>
     </g>
     <g id="text_2">
      <!-- 200 -->
      <defs>
       <path d="M 19.1875 8.296875 
L 53.609375 8.296875 
L 53.609375 0 
L 7.328125 0 
L 7.328125 8.296875 
Q 12.9375 14.109375 22.625 23.890625 
Q 32.328125 33.6875 34.8125 36.53125 
Q 39.546875 41.84375 41.421875 45.53125 
Q 43.3125 49.21875 43.3125 52.78125 
Q 43.3125 58.59375 39.234375 62.25 
Q 35.15625 65.921875 28.609375 65.921875 
Q 23.96875 65.921875 18.8125 64.3125 
Q 13.671875 62.703125 7.8125 59.421875 
L 7.8125 69.390625 
Q 13.765625 71.78125 18.9375 73 
Q 24.125 74.21875 28.421875 74.21875 
Q 39.75 74.21875 46.484375 68.546875 
Q 53.21875 62.890625 53.21875 53.421875 
Q 53.21875 48.921875 51.53125 44.890625 
Q 49.859375 40.875 45.40625 35.40625 
Q 44.1875 33.984375 37.640625 27.21875 
Q 31.109375 20.453125 19.1875 8.296875 
z
" id="DejaVuSans-50"/>
      </defs>
      <g transform="translate(144.047509 308.716563)scale(0.1 -0.1)">
       <use xlink:href="#DejaVuSans-50"/>
       <use x="63.623047" xlink:href="#DejaVuSans-48"/>
       <use x="127.246094" xlink:href="#DejaVuSans-48"/>
      </g>
     </g>
    </g>
    <g id="xtick_3">
     <g id="line2d_5">
      <g>
       <use style="stroke:#000000;stroke-width:0.8;" x="226.188429" xlink:href="#me99ae9bea3" y="294.118125"/>
      </g>
     </g>
     <g id="text_3">
      <!-- 300 -->
      <defs>
       <path d="M 40.578125 39.3125 
Q 47.65625 37.796875 51.625 33 
Q 55.609375 28.21875 55.609375 21.1875 
Q 55.609375 10.40625 48.1875 4.484375 
Q 40.765625 -1.421875 27.09375 -1.421875 
Q 22.515625 -1.421875 17.65625 -0.515625 
Q 12.796875 0.390625 7.625 2.203125 
L 7.625 11.71875 
Q 11.71875 9.328125 16.59375 8.109375 
Q 21.484375 6.890625 26.8125 6.890625 
Q 36.078125 6.890625 40.9375 10.546875 
Q 45.796875 14.203125 45.796875 21.1875 
Q 45.796875 27.640625 41.28125 31.265625 
Q 36.765625 34.90625 28.71875 34.90625 
L 20.21875 34.90625 
L 20.21875 43.015625 
L 29.109375 43.015625 
Q 36.375 43.015625 40.234375 45.921875 
Q 44.09375 48.828125 44.09375 54.296875 
Q 44.09375 59.90625 40.109375 62.90625 
Q 36.140625 65.921875 28.71875 65.921875 
Q 24.65625 65.921875 20.015625 65.03125 
Q 15.375 64.15625 9.8125 62.3125 
L 9.8125 71.09375 
Q 15.4375 72.65625 20.34375 73.4375 
Q 25.25 74.21875 29.59375 74.21875 
Q 40.828125 74.21875 47.359375 69.109375 
Q 53.90625 64.015625 53.90625 55.328125 
Q 53.90625 49.265625 50.4375 45.09375 
Q 46.96875 40.921875 40.578125 39.3125 
z
" id="DejaVuSans-51"/>
      </defs>
      <g transform="translate(216.644679 308.716563)scale(0.1 -0.1)">
       <use xlink:href="#DejaVuSans-51"/>
       <use x="63.623047" xlink:href="#DejaVuSans-48"/>
       <use x="127.246094" xlink:href="#DejaVuSans-48"/>
      </g>
     </g>
    </g>
    <g id="xtick_4">
     <g id="line2d_6">
      <g>
       <use style="stroke:#000000;stroke-width:0.8;" x="298.785599" xlink:href="#me99ae9bea3" y="294.118125"/>
      </g>
     </g>
     <g id="text_4">
      <!-- 400 -->
      <defs>
       <path d="M 37.796875 64.3125 
L 12.890625 25.390625 
L 37.796875 25.390625 
z
M 35.203125 72.90625 
L 47.609375 72.90625 
L 47.609375 25.390625 
L 58.015625 25.390625 
L 58.015625 17.1875 
L 47.609375 17.1875 
L 47.609375 0 
L 37.796875 0 
L 37.796875 17.1875 
L 4.890625 17.1875 
L 4.890625 26.703125 
z
" id="DejaVuSans-52"/>
      </defs>
      <g transform="translate(289.241849 308.716563)scale(0.1 -0.1)">
       <use xlink:href="#DejaVuSans-52"/>
       <use x="63.623047" xlink:href="#DejaVuSans-48"/>
       <use x="127.246094" xlink:href="#DejaVuSans-48"/>
      </g>
     </g>
    </g>
    <g id="xtick_5">
     <g id="line2d_7">
      <g>
       <use style="stroke:#000000;stroke-width:0.8;" x="371.38277" xlink:href="#me99ae9bea3" y="294.118125"/>
      </g>
     </g>
     <g id="text_5">
      <!-- 500 -->
      <defs>
       <path d="M 10.796875 72.90625 
L 49.515625 72.90625 
L 49.515625 64.59375 
L 19.828125 64.59375 
L 19.828125 46.734375 
Q 21.96875 47.46875 24.109375 47.828125 
Q 26.265625 48.1875 28.421875 48.1875 
Q 40.625 48.1875 47.75 41.5 
Q 54.890625 34.8125 54.890625 23.390625 
Q 54.890625 11.625 47.5625 5.09375 
Q 40.234375 -1.421875 26.90625 -1.421875 
Q 22.3125 -1.421875 17.546875 -0.640625 
Q 12.796875 0.140625 7.71875 1.703125 
L 7.71875 11.625 
Q 12.109375 9.234375 16.796875 8.0625 
Q 21.484375 6.890625 26.703125 6.890625 
Q 35.15625 6.890625 40.078125 11.328125 
Q 45.015625 15.765625 45.015625 23.390625 
Q 45.015625 31 40.078125 35.4375 
Q 35.15625 39.890625 26.703125 39.890625 
Q 22.75 39.890625 18.8125 39.015625 
Q 14.890625 38.140625 10.796875 36.28125 
z
" id="DejaVuSans-53"/>
      </defs>
      <g transform="translate(361.83902 308.716563)scale(0.1 -0.1)">
       <use xlink:href="#DejaVuSans-53"/>
       <use x="63.623047" xlink:href="#DejaVuSans-48"/>
       <use x="127.246094" xlink:href="#DejaVuSans-48"/>
      </g>
     </g>
    </g>
    <g id="xtick_6">
     <g id="line2d_8">
      <g>
       <use style="stroke:#000000;stroke-width:0.8;" x="443.97994" xlink:href="#me99ae9bea3" y="294.118125"/>
      </g>
     </g>
     <g id="text_6">
      <!-- 600 -->
      <defs>
       <path d="M 33.015625 40.375 
Q 26.375 40.375 22.484375 35.828125 
Q 18.609375 31.296875 18.609375 23.390625 
Q 18.609375 15.53125 22.484375 10.953125 
Q 26.375 6.390625 33.015625 6.390625 
Q 39.65625 6.390625 43.53125 10.953125 
Q 47.40625 15.53125 47.40625 23.390625 
Q 47.40625 31.296875 43.53125 35.828125 
Q 39.65625 40.375 33.015625 40.375 
z
M 52.59375 71.296875 
L 52.59375 62.3125 
Q 48.875 64.0625 45.09375 64.984375 
Q 41.3125 65.921875 37.59375 65.921875 
Q 27.828125 65.921875 22.671875 59.328125 
Q 17.53125 52.734375 16.796875 39.40625 
Q 19.671875 43.65625 24.015625 45.921875 
Q 28.375 48.1875 33.59375 48.1875 
Q 44.578125 48.1875 50.953125 41.515625 
Q 57.328125 34.859375 57.328125 23.390625 
Q 57.328125 12.15625 50.6875 5.359375 
Q 44.046875 -1.421875 33.015625 -1.421875 
Q 20.359375 -1.421875 13.671875 8.265625 
Q 6.984375 17.96875 6.984375 36.375 
Q 6.984375 53.65625 15.1875 63.9375 
Q 23.390625 74.21875 37.203125 74.21875 
Q 40.921875 74.21875 44.703125 73.484375 
Q 48.484375 72.75 52.59375 71.296875 
z
" id="DejaVuSans-54"/>
      </defs>
      <g transform="translate(434.43619 308.716563)scale(0.1 -0.1)">
       <use xlink:href="#DejaVuSans-54"/>
       <use x="63.623047" xlink:href="#DejaVuSans-48"/>
       <use x="127.246094" xlink:href="#DejaVuSans-48"/>
      </g>
     </g>
    </g>
    <g id="text_7">
     <!-- Tempo -->
     <defs>
      <path d="M -0.296875 72.90625 
L 61.375 72.90625 
L 61.375 64.59375 
L 35.5 64.59375 
L 35.5 0 
L 25.59375 0 
L 25.59375 64.59375 
L -0.296875 64.59375 
z
" id="DejaVuSans-84"/>
      <path d="M 56.203125 29.59375 
L 56.203125 25.203125 
L 14.890625 25.203125 
Q 15.484375 15.921875 20.484375 11.0625 
Q 25.484375 6.203125 34.421875 6.203125 
Q 39.59375 6.203125 44.453125 7.46875 
Q 49.3125 8.734375 54.109375 11.28125 
L 54.109375 2.78125 
Q 49.265625 0.734375 44.1875 -0.34375 
Q 39.109375 -1.421875 33.890625 -1.421875 
Q 20.796875 -1.421875 13.15625 6.1875 
Q 5.515625 13.8125 5.515625 26.8125 
Q 5.515625 40.234375 12.765625 48.109375 
Q 20.015625 56 32.328125 56 
Q 43.359375 56 49.78125 48.890625 
Q 56.203125 41.796875 56.203125 29.59375 
z
M 47.21875 32.234375 
Q 47.125 39.59375 43.09375 43.984375 
Q 39.0625 48.390625 32.421875 48.390625 
Q 24.90625 48.390625 20.390625 44.140625 
Q 15.875 39.890625 15.1875 32.171875 
z
" id="DejaVuSans-101"/>
      <path d="M 52 44.1875 
Q 55.375 50.25 60.0625 53.125 
Q 64.75 56 71.09375 56 
Q 79.640625 56 84.28125 50.015625 
Q 88.921875 44.046875 88.921875 33.015625 
L 88.921875 0 
L 79.890625 0 
L 79.890625 32.71875 
Q 79.890625 40.578125 77.09375 44.375 
Q 74.3125 48.1875 68.609375 48.1875 
Q 61.625 48.1875 57.5625 43.546875 
Q 53.515625 38.921875 53.515625 30.90625 
L 53.515625 0 
L 44.484375 0 
L 44.484375 32.71875 
Q 44.484375 40.625 41.703125 44.40625 
Q 38.921875 48.1875 33.109375 48.1875 
Q 26.21875 48.1875 22.15625 43.53125 
Q 18.109375 38.875 18.109375 30.90625 
L 18.109375 0 
L 9.078125 0 
L 9.078125 54.6875 
L 18.109375 54.6875 
L 18.109375 46.1875 
Q 21.1875 51.21875 25.484375 53.609375 
Q 29.78125 56 35.6875 56 
Q 41.65625 56 45.828125 52.96875 
Q 50 49.953125 52 44.1875 
z
" id="DejaVuSans-109"/>
      <path d="M 18.109375 8.203125 
L 18.109375 -20.796875 
L 9.078125 -20.796875 
L 9.078125 54.6875 
L 18.109375 54.6875 
L 18.109375 46.390625 
Q 20.953125 51.265625 25.265625 53.625 
Q 29.59375 56 35.59375 56 
Q 45.5625 56 51.78125 48.09375 
Q 58.015625 40.1875 58.015625 27.296875 
Q 58.015625 14.40625 51.78125 6.484375 
Q 45.5625 -1.421875 35.59375 -1.421875 
Q 29.59375 -1.421875 25.265625 0.953125 
Q 20.953125 3.328125 18.109375 8.203125 
z
M 48.6875 27.296875 
Q 48.6875 37.203125 44.609375 42.84375 
Q 40.53125 48.484375 33.40625 48.484375 
Q 26.265625 48.484375 22.1875 42.84375 
Q 18.109375 37.203125 18.109375 27.296875 
Q 18.109375 17.390625 22.1875 11.75 
Q 26.265625 6.109375 33.40625 6.109375 
Q 40.53125 6.109375 44.609375 11.75 
Q 48.6875 17.390625 48.6875 27.296875 
z
" id="DejaVuSans-112"/>
      <path d="M 30.609375 48.390625 
Q 23.390625 48.390625 19.1875 42.75 
Q 14.984375 37.109375 14.984375 27.296875 
Q 14.984375 17.484375 19.15625 11.84375 
Q 23.34375 6.203125 30.609375 6.203125 
Q 37.796875 6.203125 41.984375 11.859375 
Q 46.1875 17.53125 46.1875 27.296875 
Q 46.1875 37.015625 41.984375 42.703125 
Q 37.796875 48.390625 30.609375 48.390625 
z
M 30.609375 56 
Q 42.328125 56 49.015625 48.375 
Q 55.71875 40.765625 55.71875 27.296875 
Q 55.71875 13.875 49.015625 6.21875 
Q 42.328125 -1.421875 30.609375 -1.421875 
Q 18.84375 -1.421875 12.171875 6.21875 
Q 5.515625 13.875 5.515625 27.296875 
Q 5.515625 40.765625 12.171875 48.375 
Q 18.84375 56 30.609375 56 
z
" id="DejaVuSans-111"/>
     </defs>
     <g transform="translate(246.465625 322.394687)scale(0.1 -0.1)">
      <use xlink:href="#DejaVuSans-84"/>
      <use x="44.083984" xlink:href="#DejaVuSans-101"/>
      <use x="105.607422" xlink:href="#DejaVuSans-109"/>
      <use x="203.019531" xlink:href="#DejaVuSans-112"/>
      <use x="266.496094" xlink:href="#DejaVuSans-111"/>
     </g>
    </g>
   </g>
   <g id="matplotlib.axis_2">
    <g id="ytick_1">
     <g id="line2d_9">
      <defs>
       <path d="M 0 0 
L -3.5 0 
" id="m310a160fac" style="stroke:#000000;stroke-width:0.8;"/>
      </defs>
      <g>
       <use style="stroke:#000000;stroke-width:0.8;" x="39.65" xlink:href="#m310a160fac" y="261.087795"/>
      </g>
     </g>
     <g id="text_8">
      <!-- 250 -->
      <g transform="translate(13.5625 264.887014)scale(0.1 -0.1)">
       <use xlink:href="#DejaVuSans-50"/>
       <use x="63.623047" xlink:href="#DejaVuSans-53"/>
       <use x="127.246094" xlink:href="#DejaVuSans-48"/>
      </g>
     </g>
    </g>
    <g id="ytick_2">
     <g id="line2d_10">
      <g>
       <use style="stroke:#000000;stroke-width:0.8;" x="39.65" xlink:href="#m310a160fac" y="224.551688"/>
      </g>
     </g>
     <g id="text_9">
      <!-- 500 -->
      <g transform="translate(13.5625 228.350907)scale(0.1 -0.1)">
       <use xlink:href="#DejaVuSans-53"/>
       <use x="63.623047" xlink:href="#DejaVuSans-48"/>
       <use x="127.246094" xlink:href="#DejaVuSans-48"/>
      </g>
     </g>
    </g>
    <g id="ytick_3">
     <g id="line2d_11">
      <g>
       <use style="stroke:#000000;stroke-width:0.8;" x="39.65" xlink:href="#m310a160fac" y="188.015581"/>
      </g>
     </g>
     <g id="text_10">
      <!-- 750 -->
      <defs>
       <path d="M 8.203125 72.90625 
L 55.078125 72.90625 
L 55.078125 68.703125 
L 28.609375 0 
L 18.3125 0 
L 43.21875 64.59375 
L 8.203125 64.59375 
z
" id="DejaVuSans-55"/>
      </defs>
      <g transform="translate(13.5625 191.8148)scale(0.1 -0.1)">
       <use xlink:href="#DejaVuSans-55"/>
       <use x="63.623047" xlink:href="#DejaVuSans-53"/>
       <use x="127.246094" xlink:href="#DejaVuSans-48"/>
      </g>
     </g>
    </g>
    <g id="ytick_4">
     <g id="line2d_12">
      <g>
       <use style="stroke:#000000;stroke-width:0.8;" x="39.65" xlink:href="#m310a160fac" y="151.479475"/>
      </g>
     </g>
     <g id="text_11">
      <!-- 1000 -->
      <g transform="translate(7.2 155.278693)scale(0.1 -0.1)">
       <use xlink:href="#DejaVuSans-49"/>
       <use x="63.623047" xlink:href="#DejaVuSans-48"/>
       <use x="127.246094" xlink:href="#DejaVuSans-48"/>
       <use x="190.869141" xlink:href="#DejaVuSans-48"/>
      </g>
     </g>
    </g>
    <g id="ytick_5">
     <g id="line2d_13">
      <g>
       <use style="stroke:#000000;stroke-width:0.8;" x="39.65" xlink:href="#m310a160fac" y="114.943368"/>
      </g>
     </g>
     <g id="text_12">
      <!-- 1250 -->
      <g transform="translate(7.2 118.742586)scale(0.1 -0.1)">
       <use xlink:href="#DejaVuSans-49"/>
       <use x="63.623047" xlink:href="#DejaVuSans-50"/>
       <use x="127.246094" xlink:href="#DejaVuSans-53"/>
       <use x="190.869141" xlink:href="#DejaVuSans-48"/>
      </g>
     </g>
    </g>
    <g id="ytick_6">
     <g id="line2d_14">
      <g>
       <use style="stroke:#000000;stroke-width:0.8;" x="39.65" xlink:href="#m310a160fac" y="78.407261"/>
      </g>
     </g>
     <g id="text_13">
      <!-- 1500 -->
      <g transform="translate(7.2 82.206479)scale(0.1 -0.1)">
       <use xlink:href="#DejaVuSans-49"/>
       <use x="63.623047" xlink:href="#DejaVuSans-53"/>
       <use x="127.246094" xlink:href="#DejaVuSans-48"/>
       <use x="190.869141" xlink:href="#DejaVuSans-48"/>
      </g>
     </g>
    </g>
    <g id="ytick_7">
     <g id="line2d_15">
      <g>
       <use style="stroke:#000000;stroke-width:0.8;" x="39.65" xlink:href="#m310a160fac" y="41.871154"/>
      </g>
     </g>
     <g id="text_14">
      <!-- 1750 -->
      <g transform="translate(7.2 45.670373)scale(0.1 -0.1)">
       <use xlink:href="#DejaVuSans-49"/>
       <use x="63.623047" xlink:href="#DejaVuSans-55"/>
       <use x="127.246094" xlink:href="#DejaVuSans-53"/>
       <use x="190.869141" xlink:href="#DejaVuSans-48"/>
      </g>
     </g>
    </g>
   </g>
   <g id="patch_3">
    <path d="M 39.65 294.118125 
L 39.65 22.318125 
" style="fill:none;stroke:#000000;stroke-linecap:square;stroke-linejoin:miter;stroke-width:0.8;"/>
   </g>
   <g id="patch_4">
    <path d="M 39.65 294.118125 
L 486.05 294.118125 
" style="fill:none;stroke:#000000;stroke-linecap:square;stroke-linejoin:miter;stroke-width:0.8;"/>
   </g>
   <g id="text_15">
    <!-- Ydw_total -->
    <defs>
     <path d="M -0.203125 72.90625 
L 10.40625 72.90625 
L 30.609375 42.921875 
L 50.6875 72.90625 
L 61.28125 72.90625 
L 35.5 34.71875 
L 35.5 0 
L 25.59375 0 
L 25.59375 34.71875 
z
" id="DejaVuSans-89"/>
     <path d="M 45.40625 46.390625 
L 45.40625 75.984375 
L 54.390625 75.984375 
L 54.390625 0 
L 45.40625 0 
L 45.40625 8.203125 
Q 42.578125 3.328125 38.25 0.953125 
Q 33.9375 -1.421875 27.875 -1.421875 
Q 17.96875 -1.421875 11.734375 6.484375 
Q 5.515625 14.40625 5.515625 27.296875 
Q 5.515625 40.1875 11.734375 48.09375 
Q 17.96875 56 27.875 56 
Q 33.9375 56 38.25 53.625 
Q 42.578125 51.265625 45.40625 46.390625 
z
M 14.796875 27.296875 
Q 14.796875 17.390625 18.875 11.75 
Q 22.953125 6.109375 30.078125 6.109375 
Q 37.203125 6.109375 41.296875 11.75 
Q 45.40625 17.390625 45.40625 27.296875 
Q 45.40625 37.203125 41.296875 42.84375 
Q 37.203125 48.484375 30.078125 48.484375 
Q 22.953125 48.484375 18.875 42.84375 
Q 14.796875 37.203125 14.796875 27.296875 
z
" id="DejaVuSans-100"/>
     <path d="M 4.203125 54.6875 
L 13.1875 54.6875 
L 24.421875 12.015625 
L 35.59375 54.6875 
L 46.1875 54.6875 
L 57.421875 12.015625 
L 68.609375 54.6875 
L 77.59375 54.6875 
L 63.28125 0 
L 52.6875 0 
L 40.921875 44.828125 
L 29.109375 0 
L 18.5 0 
z
" id="DejaVuSans-119"/>
     <path d="M 50.984375 -16.609375 
L 50.984375 -23.578125 
L -0.984375 -23.578125 
L -0.984375 -16.609375 
z
" id="DejaVuSans-95"/>
     <path d="M 18.3125 70.21875 
L 18.3125 54.6875 
L 36.8125 54.6875 
L 36.8125 47.703125 
L 18.3125 47.703125 
L 18.3125 18.015625 
Q 18.3125 11.328125 20.140625 9.421875 
Q 21.96875 7.515625 27.59375 7.515625 
L 36.8125 7.515625 
L 36.8125 0 
L 27.59375 0 
Q 17.1875 0 13.234375 3.875 
Q 9.28125 7.765625 9.28125 18.015625 
L 9.28125 47.703125 
L 2.6875 47.703125 
L 2.6875 54.6875 
L 9.28125 54.6875 
L 9.28125 70.21875 
z
" id="DejaVuSans-116"/>
     <path d="M 34.28125 27.484375 
Q 23.390625 27.484375 19.1875 25 
Q 14.984375 22.515625 14.984375 16.5 
Q 14.984375 11.71875 18.140625 8.90625 
Q 21.296875 6.109375 26.703125 6.109375 
Q 34.1875 6.109375 38.703125 11.40625 
Q 43.21875 16.703125 43.21875 25.484375 
L 43.21875 27.484375 
z
M 52.203125 31.203125 
L 52.203125 0 
L 43.21875 0 
L 43.21875 8.296875 
Q 40.140625 3.328125 35.546875 0.953125 
Q 30.953125 -1.421875 24.3125 -1.421875 
Q 15.921875 -1.421875 10.953125 3.296875 
Q 6 8.015625 6 15.921875 
Q 6 25.140625 12.171875 29.828125 
Q 18.359375 34.515625 30.609375 34.515625 
L 43.21875 34.515625 
L 43.21875 35.40625 
Q 43.21875 41.609375 39.140625 45 
Q 35.0625 48.390625 27.6875 48.390625 
Q 23 48.390625 18.546875 47.265625 
Q 14.109375 46.140625 10.015625 43.890625 
L 10.015625 52.203125 
Q 14.9375 54.109375 19.578125 55.046875 
Q 24.21875 56 28.609375 56 
Q 40.484375 56 46.34375 49.84375 
Q 52.203125 43.703125 52.203125 31.203125 
z
" id="DejaVuSans-97"/>
     <path d="M 9.421875 75.984375 
L 18.40625 75.984375 
L 18.40625 0 
L 9.421875 0 
z
" id="DejaVuSans-108"/>
    </defs>
    <g transform="translate(233.75 16.318125)scale(0.12 -0.12)">
     <use xlink:href="#DejaVuSans-89"/>
     <use x="61.083984" xlink:href="#DejaVuSans-100"/>
     <use x="124.560547" xlink:href="#DejaVuSans-119"/>
     <use x="206.347656" xlink:href="#DejaVuSans-95"/>
     <use x="256.347656" xlink:href="#DejaVuSans-116"/>
     <use x="295.556641" xlink:href="#DejaVuSans-111"/>
     <use x="356.738281" xlink:href="#DejaVuSans-116"/>
     <use x="395.947266" xlink:href="#DejaVuSans-97"/>
     <use x="457.226562" xlink:href="#DejaVuSans-108"/>
    </g>
   </g>
   <g id="legend_1">
    <g id="patch_5">
     <path d="M 493.05 174.457188 
L 584.95 174.457188 
Q 586.95 174.457188 586.95 172.457188 
L 586.95 143.979063 
Q 586.95 141.979063 584.95 141.979063 
L 493.05 141.979063 
Q 491.05 141.979063 491.05 143.979063 
L 491.05 172.457188 
Q 491.05 174.457188 493.05 174.457188 
z
" style="fill:#ffffff;opacity:0.8;stroke:#cccccc;stroke-linejoin:miter;"/>
    </g>
    <g id="line2d_16">
     <path d="M 495.05 150.0775 
L 515.05 150.0775 
" style="fill:none;stroke:#000000;stroke-dasharray:3.7,1.6;stroke-dashoffset:0;"/>
    </g>
    <g id="line2d_17"/>
    <g id="text_16">
     <!-- Baseline -->
     <defs>
      <path d="M 19.671875 34.8125 
L 19.671875 8.109375 
L 35.5 8.109375 
Q 43.453125 8.109375 47.28125 11.40625 
Q 51.125 14.703125 51.125 21.484375 
Q 51.125 28.328125 47.28125 31.5625 
Q 43.453125 34.8125 35.5 34.8125 
z
M 19.671875 64.796875 
L 19.671875 42.828125 
L 34.28125 42.828125 
Q 41.5 42.828125 45.03125 45.53125 
Q 48.578125 48.25 48.578125 53.8125 
Q 48.578125 59.328125 45.03125 62.0625 
Q 41.5 64.796875 34.28125 64.796875 
z
M 9.8125 72.90625 
L 35.015625 72.90625 
Q 46.296875 72.90625 52.390625 68.21875 
Q 58.5 63.53125 58.5 54.890625 
Q 58.5 48.1875 55.375 44.234375 
Q 52.25 40.28125 46.1875 39.3125 
Q 53.46875 37.75 57.5 32.78125 
Q 61.53125 27.828125 61.53125 20.40625 
Q 61.53125 10.640625 54.890625 5.3125 
Q 48.25 0 35.984375 0 
L 9.8125 0 
z
" id="DejaVuSans-66"/>
      <path d="M 44.28125 53.078125 
L 44.28125 44.578125 
Q 40.484375 46.53125 36.375 47.5 
Q 32.28125 48.484375 27.875 48.484375 
Q 21.1875 48.484375 17.84375 46.4375 
Q 14.5 44.390625 14.5 40.28125 
Q 14.5 37.15625 16.890625 35.375 
Q 19.28125 33.59375 26.515625 31.984375 
L 29.59375 31.296875 
Q 39.15625 29.25 43.1875 25.515625 
Q 47.21875 21.78125 47.21875 15.09375 
Q 47.21875 7.46875 41.1875 3.015625 
Q 35.15625 -1.421875 24.609375 -1.421875 
Q 20.21875 -1.421875 15.453125 -0.5625 
Q 10.6875 0.296875 5.421875 2 
L 5.421875 11.28125 
Q 10.40625 8.6875 15.234375 7.390625 
Q 20.0625 6.109375 24.8125 6.109375 
Q 31.15625 6.109375 34.5625 8.28125 
Q 37.984375 10.453125 37.984375 14.40625 
Q 37.984375 18.0625 35.515625 20.015625 
Q 33.0625 21.96875 24.703125 23.78125 
L 21.578125 24.515625 
Q 13.234375 26.265625 9.515625 29.90625 
Q 5.8125 33.546875 5.8125 39.890625 
Q 5.8125 47.609375 11.28125 51.796875 
Q 16.75 56 26.8125 56 
Q 31.78125 56 36.171875 55.265625 
Q 40.578125 54.546875 44.28125 53.078125 
z
" id="DejaVuSans-115"/>
      <path d="M 9.421875 54.6875 
L 18.40625 54.6875 
L 18.40625 0 
L 9.421875 0 
z
M 9.421875 75.984375 
L 18.40625 75.984375 
L 18.40625 64.59375 
L 9.421875 64.59375 
z
" id="DejaVuSans-105"/>
      <path d="M 54.890625 33.015625 
L 54.890625 0 
L 45.90625 0 
L 45.90625 32.71875 
Q 45.90625 40.484375 42.875 44.328125 
Q 39.84375 48.1875 33.796875 48.1875 
Q 26.515625 48.1875 22.3125 43.546875 
Q 18.109375 38.921875 18.109375 30.90625 
L 18.109375 0 
L 9.078125 0 
L 9.078125 54.6875 
L 18.109375 54.6875 
L 18.109375 46.1875 
Q 21.34375 51.125 25.703125 53.5625 
Q 30.078125 56 35.796875 56 
Q 45.21875 56 50.046875 50.171875 
Q 54.890625 44.34375 54.890625 33.015625 
z
" id="DejaVuSans-110"/>
     </defs>
     <g transform="translate(523.05 153.5775)scale(0.1 -0.1)">
      <use xlink:href="#DejaVuSans-66"/>
      <use x="68.603516" xlink:href="#DejaVuSans-97"/>
      <use x="129.882812" xlink:href="#DejaVuSans-115"/>
      <use x="181.982422" xlink:href="#DejaVuSans-101"/>
      <use x="243.505859" xlink:href="#DejaVuSans-108"/>
      <use x="271.289062" xlink:href="#DejaVuSans-105"/>
      <use x="299.072266" xlink:href="#DejaVuSans-110"/>
      <use x="362.451172" xlink:href="#DejaVuSans-101"/>
     </g>
    </g>
    <g id="line2d_18">
     <path d="M 495.05 164.857188 
L 515.05 164.857188 
" style="fill:none;stroke:#1f77b4;stroke-linecap:square;stroke-width:1.5;"/>
    </g>
    <g id="line2d_19"/>
    <g id="text_17">
     <!-- $\Uparrow \beta$ (shape) -->
     <defs>
      <path d="M 36.765625 58.59375 
L 36.765625 0 
L 30.90625 0 
L 30.90625 52.734375 
L 26.421875 48.140625 
L 20.5625 54 
L 39.703125 73.25 
L 44.09375 73.25 
L 63.328125 54 
L 57.46875 48.140625 
L 52.875 52.734375 
L 52.875 0 
L 47.015625 0 
L 47.015625 58.59375 
L 41.9375 63.671875 
z
" id="DejaVuSans-8657"/>
      <path d="M 13.625 3.375 
L 8.9375 -20.796875 
L -0.09375 -20.796875 
L 14.5 54.34375 
Q 18.84375 76.609375 39.65625 76.609375 
Q 60.75 76.609375 57.171875 57.8125 
Q 54.734375 44.4375 45.21875 39.546875 
Q 58.015625 35.15625 55.515625 22.125 
Q 51.125 -1.078125 27.484375 -1.03125 
Q 17.140625 -0.984375 13.625 3.375 
z
M 15.921875 15.09375 
Q 19.671875 6.59375 29.296875 6.640625 
Q 43.359375 6.640625 46.34375 21.96875 
Q 49.03125 35.75 26.171875 34.671875 
L 27.78125 42.96875 
Q 45.453125 42.671875 48.53125 58.59375 
Q 50.640625 69.34375 39.203125 69.28125 
Q 26.421875 69.28125 23.484375 54.046875 
z
" id="DejaVuSans-Oblique-946"/>
      <path id="DejaVuSans-32"/>
      <path d="M 31 75.875 
Q 24.46875 64.65625 21.28125 53.65625 
Q 18.109375 42.671875 18.109375 31.390625 
Q 18.109375 20.125 21.3125 9.0625 
Q 24.515625 -2 31 -13.1875 
L 23.1875 -13.1875 
Q 15.875 -1.703125 12.234375 9.375 
Q 8.59375 20.453125 8.59375 31.390625 
Q 8.59375 42.28125 12.203125 53.3125 
Q 15.828125 64.359375 23.1875 75.875 
z
" id="DejaVuSans-40"/>
      <path d="M 54.890625 33.015625 
L 54.890625 0 
L 45.90625 0 
L 45.90625 32.71875 
Q 45.90625 40.484375 42.875 44.328125 
Q 39.84375 48.1875 33.796875 48.1875 
Q 26.515625 48.1875 22.3125 43.546875 
Q 18.109375 38.921875 18.109375 30.90625 
L 18.109375 0 
L 9.078125 0 
L 9.078125 75.984375 
L 18.109375 75.984375 
L 18.109375 46.1875 
Q 21.34375 51.125 25.703125 53.5625 
Q 30.078125 56 35.796875 56 
Q 45.21875 56 50.046875 50.171875 
Q 54.890625 44.34375 54.890625 33.015625 
z
" id="DejaVuSans-104"/>
      <path d="M 8.015625 75.875 
L 15.828125 75.875 
Q 23.140625 64.359375 26.78125 53.3125 
Q 30.421875 42.28125 30.421875 31.390625 
Q 30.421875 20.453125 26.78125 9.375 
Q 23.140625 -1.703125 15.828125 -13.1875 
L 8.015625 -13.1875 
Q 14.5 -2 17.703125 9.0625 
Q 20.90625 20.125 20.90625 31.390625 
Q 20.90625 42.671875 17.703125 53.65625 
Q 14.5 64.65625 8.015625 75.875 
z
" id="DejaVuSans-41"/>
     </defs>
     <g transform="translate(523.05 168.357188)scale(0.1 -0.1)">
      <use transform="translate(19.482422 0.390625)" xlink:href="#DejaVuSans-8657"/>
      <use transform="translate(122.753906 0.390625)" xlink:href="#DejaVuSans-Oblique-946"/>
      <use transform="translate(186.572266 0.390625)" xlink:href="#DejaVuSans-32"/>
      <use transform="translate(218.359375 0.390625)" xlink:href="#DejaVuSans-40"/>
      <use transform="translate(257.373047 0.390625)" xlink:href="#DejaVuSans-115"/>
      <use transform="translate(309.472656 0.390625)" xlink:href="#DejaVuSans-104"/>
      <use transform="translate(372.851562 0.390625)" xlink:href="#DejaVuSans-97"/>
      <use transform="translate(434.130859 0.390625)" xlink:href="#DejaVuSans-112"/>
      <use transform="translate(497.607422 0.390625)" xlink:href="#DejaVuSans-101"/>
      <use transform="translate(559.130859 0.390625)" xlink:href="#DejaVuSans-41"/>
     </g>
    </g>
   </g>
  </g>
 </g>
 <defs>
  <clipPath id="pfbe0b5748f">
   <rect height="271.8" width="446.4" x="39.65" y="22.318125"/>
  </clipPath>
 </defs>
</svg>
