<?xml version="1.0" encoding="utf-8" standalone="no"?>
<!DOCTYPE svg PUBLIC "-//W3C//DTD SVG 1.1//EN"
  "http://www.w3.org/Graphics/SVG/1.1/DTD/svg11.dtd">
<!-- Created with matplotlib (https://matplotlib.org/) -->
<svg height="331.340625pt" version="1.1" viewBox="0 0 587.7875 331.340625" width="587.7875pt" xmlns="http://www.w3.org/2000/svg" xmlns:xlink="http://www.w3.org/1999/xlink">
 <defs>
  <style type="text/css">
*{stroke-linecap:butt;stroke-linejoin:round;}
  </style>
 </defs>
 <g id="figure_1">
  <g id="patch_1">
   <path d="M 0 331.340625 
L 587.7875 331.340625 
L 587.7875 0 
L 0 0 
z
" style="fill:#ffffff;"/>
  </g>
  <g id="axes_1">
   <g id="patch_2">
    <path d="M 33.2875 293.784375 
L 479.6875 293.784375 
L 479.6875 21.984375 
L 33.2875 21.984375 
z
" style="fill:#ffffff;"/>
   </g>
   <g id="line2d_1">
    <path clip-path="url(#pf1683a788a)" d="M 53.578409 281.352379 
L 89.876994 281.374557 
L 94.232824 281.310974 
L 98.588655 281.254032 
L 100.040598 281.194985 
L 108.026287 280.633602 
L 108.752258 280.419616 
L 110.204202 280.234922 
L 113.83406 279.10095 
L 114.560032 278.592699 
L 115.286004 278.49121 
L 116.011976 278.046003 
L 117.463919 276.835875 
L 118.189891 276.415966 
L 119.641834 274.411382 
L 120.367806 271.94335 
L 121.093777 272.275159 
L 121.819749 271.459699 
L 122.545721 269.927784 
L 123.271693 269.03716 
L 123.997664 267.584817 
L 124.723636 264.841989 
L 125.449608 264.323472 
L 126.175579 263.296993 
L 126.901551 261.627514 
L 128.353494 259.324495 
L 129.079466 257.71902 
L 129.805438 256.712442 
L 130.53141 254.853037 
L 131.983353 254.079711 
L 132.709325 253.505984 
L 133.435296 253.290083 
L 134.161268 252.102817 
L 134.88724 252.44943 
L 135.613211 250.930388 
L 136.339183 252.262302 
L 138.517098 252.490989 
L 139.24307 253.868681 
L 139.969042 254.467053 
L 140.695013 254.799975 
L 141.420985 254.556428 
L 142.146957 254.73903 
L 142.872929 257.20106 
L 143.5989 257.588419 
L 144.324872 258.5684 
L 145.050844 258.709836 
L 145.776815 259.902159 
L 146.502787 260.289809 
L 147.228759 261.476618 
L 147.95473 261.812457 
L 148.680702 261.003802 
L 149.406674 263.682709 
L 150.132646 261.755869 
L 150.858617 264.241491 
L 152.310561 265.120652 
L 153.036532 266.167809 
L 153.762504 267.016215 
L 154.488476 266.473499 
L 155.214447 268.086227 
L 156.666391 268.719691 
L 157.392363 268.948093 
L 158.118334 269.54732 
L 158.844306 269.803782 
L 159.570278 270.8257 
L 160.296249 270.200225 
L 161.022221 271.349491 
L 161.748193 271.693301 
L 162.474164 272.363619 
L 163.200136 272.772881 
L 163.926108 272.743376 
L 164.65208 273.384498 
L 165.378051 273.377159 
L 166.829995 273.842403 
L 168.281938 274.057048 
L 169.00791 274.608434 
L 169.733882 274.748294 
L 170.459853 274.758835 
L 171.185825 275.300078 
L 171.911797 275.591023 
L 172.637768 275.690617 
L 173.36374 275.647848 
L 174.089712 275.954146 
L 174.815683 275.894644 
L 175.541655 276.351984 
L 176.267627 276.192259 
L 176.993599 276.348819 
L 177.71957 276.657487 
L 178.445542 276.740367 
L 179.171514 276.690525 
L 179.897485 277.00515 
L 182.0754 277.02765 
L 182.801372 277.423546 
L 184.979287 277.593579 
L 185.705259 277.364898 
L 187.157202 277.678273 
L 189.335117 277.875155 
L 191.513033 277.873813 
L 192.964976 278.137425 
L 196.594835 277.968545 
L 197.320806 278.178178 
L 200.224693 277.966861 
L 200.950665 277.636659 
L 201.676636 277.908541 
L 205.306495 277.749571 
L 206.758438 277.519365 
L 207.48441 277.440605 
L 209.662325 277.4635 
L 210.388297 277.328314 
L 211.114269 277.059163 
L 211.84024 277.02768 
L 213.292184 276.798954 
L 214.018155 276.710801 
L 214.744127 276.303975 
L 216.19607 276.227189 
L 216.922042 275.663653 
L 218.373986 275.648269 
L 221.277872 274.681442 
L 222.003844 274.345362 
L 222.729816 274.329613 
L 223.455788 273.843148 
L 224.181759 273.763803 
L 225.633703 272.986035 
L 226.359674 272.830149 
L 227.085646 272.172459 
L 227.811618 272.141909 
L 229.263561 271.216147 
L 229.989533 270.695659 
L 230.715505 270.752812 
L 231.441476 270.087803 
L 232.167448 269.587258 
L 232.89342 269.367779 
L 234.345363 268.457621 
L 235.071335 267.046952 
L 235.797306 267.435305 
L 236.523278 267.325678 
L 237.24925 266.896852 
L 237.975222 266.052231 
L 238.701193 265.849947 
L 239.427165 264.859548 
L 240.153137 264.071646 
L 240.879108 264.41741 
L 241.60508 264.130153 
L 242.331052 262.634036 
L 243.057023 262.876666 
L 243.782995 262.540723 
L 244.508967 262.598714 
L 245.234939 262.422269 
L 245.96091 261.725705 
L 246.686882 261.841739 
L 247.412854 261.437897 
L 248.864797 261.311835 
L 249.590769 261.033897 
L 250.316741 259.993227 
L 251.042712 260.564565 
L 251.768684 260.751961 
L 253.946599 259.999566 
L 255.398542 260.576931 
L 256.124514 260.3577 
L 256.850486 260.592853 
L 257.576458 260.417402 
L 258.302429 260.759623 
L 259.028401 259.634804 
L 259.754373 260.124446 
L 260.480344 261.124028 
L 261.206316 260.747142 
L 261.932288 261.380572 
L 262.658259 261.674302 
L 263.384231 261.436119 
L 264.110203 261.408533 
L 264.836175 261.849003 
L 266.288118 262.322078 
L 267.01409 262.878189 
L 267.740061 262.282601 
L 268.466033 262.883875 
L 269.917977 263.144803 
L 270.643948 263.649661 
L 271.36992 263.86169 
L 272.095892 263.696261 
L 272.821863 264.235105 
L 274.273807 264.489694 
L 274.999778 264.375129 
L 275.72575 263.747994 
L 276.451722 264.819592 
L 277.177694 265.075009 
L 277.903665 265.17833 
L 278.629637 265.557607 
L 279.355609 265.61384 
L 280.08158 265.807391 
L 280.807552 265.847229 
L 281.533524 266.06488 
L 282.985467 266.303908 
L 284.437411 266.498638 
L 285.163382 265.956239 
L 285.889354 265.62721 
L 286.615326 266.380351 
L 287.341297 266.662687 
L 289.519212 267.066724 
L 290.971156 266.972182 
L 291.697128 267.129575 
L 293.149071 267.145734 
L 293.875043 267.317981 
L 294.601014 267.152792 
L 295.326986 267.312842 
L 296.77893 267.312603 
L 297.504901 266.8935 
L 298.230873 266.897912 
L 298.956845 267.284278 
L 299.682816 267.130118 
L 301.860731 267.034546 
L 303.312675 266.752744 
L 304.038647 266.810831 
L 306.216562 266.380591 
L 307.668505 266.271034 
L 309.120448 266.052612 
L 310.572392 265.162846 
L 311.298364 265.094904 
L 312.024335 265.216946 
L 312.750307 264.833888 
L 313.476279 264.705047 
L 314.20225 264.049629 
L 315.654194 264.209881 
L 317.832109 263.188685 
L 318.558081 262.895648 
L 319.284052 262.048973 
L 320.010024 262.371347 
L 321.461967 261.80149 
L 322.187939 261.347475 
L 322.913911 261.187619 
L 324.365854 260.269283 
L 325.091826 259.978427 
L 326.543769 258.7905 
L 327.269741 258.669059 
L 329.447656 257.542668 
L 330.173628 256.521936 
L 330.8996 256.673633 
L 331.625571 256.324196 
L 332.351543 255.613217 
L 334.529458 254.414172 
L 335.25543 253.561192 
L 335.981401 253.365346 
L 338.159317 252.246643 
L 338.885288 251.489428 
L 339.61126 250.953435 
L 341.063203 250.322957 
L 341.789175 249.588423 
L 342.515147 249.037889 
L 343.241118 248.998702 
L 343.96709 248.112651 
L 344.693062 248.033712 
L 345.419034 247.221558 
L 346.870977 246.886736 
L 347.596949 246.277956 
L 348.32292 245.460176 
L 349.774864 245.199356 
L 350.500836 244.499156 
L 351.226807 244.071247 
L 351.952779 243.32563 
L 352.678751 243.634085 
L 354.856666 242.742039 
L 355.582637 242.494443 
L 356.308609 241.694217 
L 357.034581 241.566766 
L 357.760553 241.611283 
L 359.938468 240.222326 
L 360.664439 240.509556 
L 361.390411 240.014695 
L 362.842354 239.859608 
L 363.568326 239.74096 
L 364.294298 239.445455 
L 365.02027 239.379576 
L 365.746241 238.779517 
L 366.472213 238.802899 
L 367.198185 238.656795 
L 367.924156 238.801183 
L 368.650128 238.2149 
L 369.3761 238.528134 
L 370.828043 238.200754 
L 371.554015 237.552772 
L 372.279987 237.751891 
L 375.183873 237.267451 
L 375.909845 237.365534 
L 380.265675 236.061322 
L 380.991647 236.182673 
L 381.717619 235.918588 
L 382.44359 235.870136 
L 383.169562 235.634489 
L 383.895534 235.077181 
L 384.621506 235.085836 
L 385.347477 234.742512 
L 386.073449 234.744326 
L 387.525392 234.481095 
L 388.251364 234.070758 
L 390.429279 233.487456 
L 391.155251 233.217905 
L 391.881223 232.748377 
L 392.607194 232.679562 
L 393.333166 232.443797 
L 394.059138 231.911455 
L 394.785109 231.736924 
L 395.511081 231.187128 
L 396.237053 231.046769 
L 396.963024 230.571094 
L 397.688996 230.340791 
L 398.414968 229.724144 
L 399.14094 229.581245 
L 401.318855 228.223851 
L 402.044826 227.996143 
L 402.770798 227.221237 
L 403.49677 226.913776 
L 404.222742 226.31594 
L 404.948713 225.56482 
L 405.674685 225.259464 
L 406.400657 224.557953 
L 407.8526 223.695306 
L 410.030515 221.862422 
L 412.934402 219.038425 
L 413.660374 218.514475 
L 414.386345 217.530938 
L 415.838289 216.283999 
L 418.742176 213.021648 
L 420.920091 210.378561 
L 421.646062 209.672657 
L 422.372034 208.540458 
L 423.823977 206.968109 
L 426.001893 203.96648 
L 426.727864 203.257789 
L 428.905779 200.231361 
L 429.631751 199.510399 
L 430.357723 198.252291 
L 431.809666 196.390086 
L 433.987581 193.332921 
L 434.713553 192.449478 
L 435.439525 191.232546 
L 436.165496 190.293766 
L 437.61744 188.041268 
L 439.069383 185.908761 
L 441.247298 182.738498 
L 444.877157 177.492395 
L 452.862846 165.74143 
L 453.588817 164.747093 
L 455.040761 162.433378 
L 456.492704 160.46077 
L 459.396591 156.202149 
L 459.396591 156.202149 
" style="fill:none;stroke:#1f77b4;stroke-linecap:square;stroke-width:1.5;"/>
   </g>
   <g id="line2d_2">
    <path clip-path="url(#pf1683a788a)" d="M 53.578409 228.99713 
L 54.304381 245.659917 
L 55.030352 208.905547 
L 55.756324 227.913401 
L 56.482296 230.055491 
L 57.208268 235.483995 
L 57.934239 243.784171 
L 58.660211 244.606289 
L 59.386183 234.783783 
L 60.112154 245.498554 
L 60.838126 216.145945 
L 61.564098 246.295069 
L 62.29007 233.545249 
L 63.016041 239.000764 
L 63.742013 246.833052 
L 64.467985 217.755713 
L 65.193956 244.964593 
L 65.919928 237.857377 
L 66.6459 210.621464 
L 67.371871 244.79215 
L 68.097843 205.068765 
L 68.823815 230.54791 
L 69.549787 239.684664 
L 70.275758 217.225757 
L 71.00173 232.190383 
L 71.727702 237.113893 
L 72.453673 232.314016 
L 73.179645 212.554511 
L 73.905617 220.07296 
L 74.631588 235.480069 
L 75.35756 213.023345 
L 76.083532 213.388551 
L 76.809504 231.261966 
L 77.535475 228.898914 
L 78.261447 226.008831 
L 78.987419 205.421605 
L 79.71339 220.024239 
L 80.439362 229.895923 
L 81.165334 234.2102 
L 81.891305 234.716946 
L 82.617277 237.460834 
L 83.343249 231.605501 
L 84.069221 214.703194 
L 84.795192 234.339282 
L 85.521164 241.14878 
L 86.247136 242.182355 
L 86.973107 202.79407 
L 87.699079 238.308878 
L 88.425051 202.138519 
L 89.151023 233.493829 
L 89.876994 235.691475 
L 90.602966 219.896771 
L 91.328938 231.671695 
L 92.054909 236.383529 
L 92.780881 234.517454 
L 93.506853 237.008334 
L 94.232824 237.242319 
L 94.958796 211.173407 
L 95.684768 223.769318 
L 97.136711 239.462096 
L 97.862683 240.436419 
L 98.588655 213.539999 
L 99.314626 242.107355 
L 100.040598 232.522672 
L 100.76657 214.109846 
L 101.492541 222.704391 
L 102.218513 239.093256 
L 102.944485 236.297612 
L 103.670457 242.3788 
L 104.396428 241.40897 
L 105.1224 213.365074 
L 105.848372 229.475314 
L 106.574343 238.989475 
L 108.026287 245.667611 
L 108.752258 246.189839 
L 109.47823 240.038665 
L 110.204202 240.35413 
L 110.930174 246.703492 
L 111.656145 247.669751 
L 112.382117 218.022007 
L 113.108089 246.032102 
L 113.83406 250.470917 
L 114.560032 251.626715 
L 115.286004 215.981997 
L 116.011976 236.551701 
L 116.737947 226.919204 
L 117.463919 245.258921 
L 118.189891 240.92509 
L 118.915862 239.017131 
L 119.641834 241.158164 
L 120.367806 218.339987 
L 121.819749 241.997136 
L 122.545721 241.77635 
L 123.271693 217.226549 
L 123.997664 243.500785 
L 124.723636 240.679945 
L 125.449608 232.075855 
L 126.175579 245.577443 
L 126.901551 245.327847 
L 127.627523 215.445788 
L 128.353494 244.396016 
L 129.079466 218.315784 
L 129.805438 239.020865 
L 130.53141 243.003816 
L 131.257381 239.779184 
L 131.983353 246.002574 
L 132.709325 247.119428 
L 133.435296 240.304686 
L 134.161268 249.709331 
L 134.88724 213.77158 
L 135.613211 232.613524 
L 136.339183 244.36667 
L 137.065155 244.057068 
L 138.517098 252.073953 
L 139.24307 245.080159 
L 139.969042 242.299804 
L 140.695013 228.203361 
L 141.420985 245.981136 
L 142.146957 249.568089 
L 142.872929 250.621778 
L 143.5989 245.011606 
L 144.324872 245.884418 
L 145.050844 252.645783 
L 145.776815 249.786401 
L 146.502787 218.981207 
L 147.228759 236.506349 
L 147.95473 247.254516 
L 148.680702 246.42087 
L 149.406674 245.000905 
L 150.132646 241.608254 
L 150.858617 241.09509 
L 151.584589 243.552844 
L 152.310561 249.727763 
L 153.036532 241.039414 
L 153.762504 248.015377 
L 154.488476 244.677572 
L 155.214447 250.328588 
L 155.940419 253.584574 
L 156.666391 243.387916 
L 157.392363 252.174404 
L 158.118334 248.807374 
L 158.844306 221.894946 
L 159.570278 249.083526 
L 160.296249 245.798649 
L 161.022221 251.214372 
L 161.748193 248.912418 
L 162.474164 255.001856 
L 163.200136 253.676609 
L 163.926108 256.488821 
L 164.65208 253.645226 
L 165.378051 231.069053 
L 166.104023 252.49021 
L 166.829995 216.073803 
L 167.555966 250.042709 
L 168.281938 248.983942 
L 169.00791 248.8001 
L 169.733882 238.318701 
L 171.185825 243.710343 
L 171.911797 241.019175 
L 172.637768 248.31026 
L 173.36374 246.63435 
L 174.089712 241.203248 
L 174.815683 247.900263 
L 175.541655 229.066429 
L 176.267627 225.706003 
L 176.993599 218.072942 
L 177.71957 240.45285 
L 178.445542 238.331365 
L 179.171514 200.69458 
L 179.897485 233.299238 
L 180.623457 235.032731 
L 181.349429 227.854869 
L 182.0754 236.037869 
L 182.801372 238.415657 
L 183.527344 237.633028 
L 184.253316 229.077719 
L 184.979287 206.428096 
L 185.705259 234.60666 
L 186.431231 203.672377 
L 187.157202 207.421096 
L 187.883174 219.65683 
L 188.609146 194.977899 
L 189.335117 201.062209 
L 190.061089 212.611707 
L 190.787061 222.314514 
L 191.513033 218.606071 
L 192.239004 218.766763 
L 192.964976 190.271892 
L 193.690948 193.521319 
L 194.416919 206.13235 
L 195.142891 211.152306 
L 195.868863 174.331253 
L 196.594835 184.715377 
L 197.320806 165.228475 
L 198.046778 193.308811 
L 198.77275 195.504675 
L 199.498721 167.899569 
L 200.224693 177.457095 
L 200.950665 189.318011 
L 201.676636 166.454166 
L 202.402608 194.684475 
L 203.12858 193.503031 
L 203.854552 197.151554 
L 204.580523 203.847837 
L 205.306495 172.204898 
L 206.032467 207.340131 
L 206.758438 212.101321 
L 207.48441 202.161169 
L 208.210382 184.115354 
L 208.936353 186.576562 
L 209.662325 215.142979 
L 210.388297 215.857107 
L 211.114269 207.157169 
L 211.84024 216.58974 
L 212.566212 213.962348 
L 213.292184 216.998337 
L 214.018155 205.466157 
L 214.744127 221.022765 
L 215.470099 224.291286 
L 216.19607 219.641594 
L 216.922042 228.469193 
L 217.648014 227.052372 
L 218.373986 204.757726 
L 219.099957 233.334985 
L 219.825929 235.834641 
L 221.277872 213.827182 
L 222.003844 234.954664 
L 222.729816 227.902628 
L 223.455788 231.914592 
L 224.181759 238.948009 
L 224.907731 230.731494 
L 225.633703 233.892468 
L 226.359674 214.055507 
L 227.085646 234.928751 
L 227.811618 234.089789 
L 228.537589 244.525238 
L 229.263561 234.000093 
L 229.989533 243.504335 
L 230.715505 237.032873 
L 231.441476 245.163886 
L 232.167448 243.94786 
L 232.89342 238.879102 
L 233.619391 245.542345 
L 234.345363 223.17547 
L 235.071335 238.995468 
L 235.797306 241.41649 
L 236.523278 248.577721 
L 237.24925 243.384064 
L 237.975222 245.294149 
L 238.701193 240.395147 
L 239.427165 249.634672 
L 240.153137 216.222481 
L 240.879108 246.185123 
L 241.60508 247.026613 
L 242.331052 221.565104 
L 243.057023 242.079634 
L 243.782995 243.062096 
L 244.508967 228.139424 
L 245.234939 242.115766 
L 245.96091 221.041002 
L 246.686882 230.749279 
L 247.412854 235.444126 
L 248.138825 239.123293 
L 248.864797 239.004015 
L 249.590769 237.683169 
L 250.316741 225.195685 
L 251.042712 227.216701 
L 251.768684 237.894 
L 252.494656 234.760051 
L 253.220627 219.457099 
L 253.946599 239.275081 
L 254.672571 212.499071 
L 255.398542 224.139693 
L 256.124514 227.935337 
L 256.850486 214.607537 
L 257.576458 218.274422 
L 258.302429 228.930198 
L 259.028401 209.866071 
L 259.754373 222.665136 
L 260.480344 222.37577 
L 261.206316 229.523447 
L 261.932288 205.548131 
L 262.658259 227.969996 
L 263.384231 223.713878 
L 264.110203 218.312141 
L 264.836175 228.741561 
L 265.562146 224.038682 
L 266.288118 224.855591 
L 267.01409 226.862255 
L 267.740061 225.37295 
L 268.466033 209.983984 
L 269.192005 216.328011 
L 269.917977 220.488086 
L 270.643948 225.739647 
L 271.36992 222.405451 
L 272.095892 222.180949 
L 272.821863 227.713297 
L 273.547835 229.364385 
L 274.273807 226.819576 
L 274.999778 234.991855 
L 275.72575 226.775535 
L 276.451722 216.521352 
L 277.177694 228.859732 
L 277.903665 206.487233 
L 278.629637 222.78177 
L 279.355609 220.991746 
L 280.08158 211.714506 
L 280.807552 224.748936 
L 281.533524 197.605782 
L 282.259495 212.638954 
L 282.985467 207.114912 
L 283.711439 218.659384 
L 284.437411 221.343523 
L 285.163382 223.248156 
L 285.889354 224.694423 
L 286.615326 227.75613 
L 287.341297 224.213091 
L 288.067269 230.527027 
L 288.793241 225.899559 
L 289.519212 231.589675 
L 290.245184 227.87804 
L 290.971156 233.443876 
L 293.149071 238.515004 
L 293.875043 241.49506 
L 294.601014 234.401468 
L 295.326986 240.493855 
L 296.052958 211.260434 
L 296.77893 239.422781 
L 297.504901 232.662056 
L 298.956845 243.312865 
L 299.682816 242.896601 
L 300.408788 233.634949 
L 301.13476 222.603583 
L 301.860731 231.788432 
L 302.586703 208.830128 
L 303.312675 221.628678 
L 304.038647 216.867771 
L 304.764618 232.159853 
L 305.49059 230.744437 
L 306.216562 233.421653 
L 306.942533 231.434455 
L 307.668505 229.886121 
L 308.394477 230.642195 
L 309.120448 234.068765 
L 309.84642 235.47529 
L 310.572392 236.412173 
L 311.298364 231.093372 
L 312.024335 233.092208 
L 312.750307 209.586924 
L 313.476279 233.784892 
L 314.20225 233.994483 
L 314.928222 231.855193 
L 315.654194 227.81803 
L 316.380165 235.436154 
L 317.106137 209.945299 
L 318.558081 226.783616 
L 319.284052 230.715649 
L 320.010024 232.682264 
L 320.735996 211.747114 
L 321.461967 211.416811 
L 322.187939 211.247801 
L 322.913911 224.150039 
L 323.639883 213.693792 
L 324.365854 221.429397 
L 325.091826 191.677161 
L 325.817798 216.13744 
L 326.543769 217.283767 
L 327.269741 198.943228 
L 327.995713 216.946718 
L 328.721684 211.200489 
L 329.447656 193.630674 
L 330.173628 197.164365 
L 330.8996 206.960916 
L 331.625571 183.908518 
L 332.351543 188.774575 
L 333.077515 179.45391 
L 333.803486 181.983716 
L 334.529458 195.526315 
L 335.25543 190.596017 
L 335.981401 170.886195 
L 336.707373 177.206575 
L 337.433345 191.402192 
L 338.159317 187.036799 
L 338.885288 163.691157 
L 339.61126 188.717393 
L 340.337232 176.662665 
L 341.063203 158.697999 
L 341.789175 187.618046 
L 342.515147 143.824928 
L 343.241118 177.712897 
L 343.96709 144.982343 
L 344.693062 155.26477 
L 345.419034 152.710792 
L 346.145005 152.833545 
L 346.870977 164.22524 
L 347.596949 165.437229 
L 348.32292 149.245601 
L 349.048892 165.540331 
L 349.774864 171.893261 
L 350.500836 140.775369 
L 351.226807 165.866408 
L 351.952779 145.705816 
L 352.678751 171.031731 
L 353.404722 166.542259 
L 354.130694 166.805709 
L 354.856666 165.3686 
L 355.582637 177.903578 
L 356.308609 182.628349 
L 357.034581 156.644834 
L 357.760553 160.450638 
L 358.486524 180.768952 
L 359.212496 164.043276 
L 359.938468 157.744095 
L 360.664439 162.42618 
L 361.390411 178.042678 
L 362.116383 178.110131 
L 362.842354 177.926059 
L 363.568326 182.98509 
L 364.294298 166.388737 
L 365.02027 181.926373 
L 365.746241 164.335579 
L 366.472213 169.151311 
L 367.198185 182.020114 
L 367.924156 169.409223 
L 368.650128 186.952838 
L 369.3761 187.802043 
L 370.102071 175.369805 
L 370.828043 172.664144 
L 371.554015 173.720095 
L 372.279987 188.434219 
L 373.005958 186.51155 
L 373.73193 173.226014 
L 374.457902 189.045885 
L 375.183873 189.344526 
L 375.909845 190.709525 
L 376.635817 196.008293 
L 377.361789 193.835678 
L 378.08776 201.712909 
L 378.813732 198.5752 
L 379.539704 191.546059 
L 380.265675 202.045519 
L 380.991647 198.914638 
L 381.717619 190.241105 
L 382.44359 202.293535 
L 383.169562 191.86189 
L 383.895534 199.859012 
L 384.621506 202.146601 
L 385.347477 190.565906 
L 386.073449 194.807074 
L 386.799421 202.641586 
L 387.525392 202.755105 
L 388.251364 201.259304 
L 388.977336 207.428943 
L 389.703307 208.031679 
L 390.429279 199.73022 
L 391.155251 198.978572 
L 391.881223 207.202868 
L 392.607194 207.996892 
L 393.333166 208.124048 
L 394.059138 209.936386 
L 394.785109 211.17701 
L 395.511081 207.716664 
L 396.237053 214.308901 
L 396.963024 211.452763 
L 397.688996 204.534036 
L 398.414968 215.743366 
L 399.14094 212.57463 
L 399.866911 214.41535 
L 400.592883 215.361649 
L 401.318855 216.959203 
L 402.044826 217.518817 
L 402.770798 216.751074 
L 403.49677 217.086423 
L 404.222742 207.034001 
L 404.948713 216.23718 
L 405.674685 203.52673 
L 406.400657 214.522438 
L 407.126628 214.673836 
L 407.8526 202.501715 
L 408.578572 212.494932 
L 409.304543 212.445542 
L 410.030515 210.057214 
L 410.756487 212.112118 
L 411.482459 213.431735 
L 412.20843 201.776038 
L 412.934402 209.131942 
L 413.660374 208.337482 
L 414.386345 195.782485 
L 415.112317 204.232618 
L 415.838289 201.920248 
L 416.56426 203.197576 
L 417.290232 189.992608 
L 418.016204 189.697113 
L 419.468147 180.904979 
L 420.194119 178.348662 
L 420.920091 181.580426 
L 421.646062 173.141625 
L 422.372034 169.752665 
L 423.098006 164.357172 
L 423.823977 167.637226 
L 424.549949 157.69601 
L 425.275921 160.098349 
L 426.001893 150.777579 
L 426.727864 156.305726 
L 427.453836 153.170728 
L 428.179808 152.209077 
L 428.905779 138.082895 
L 429.631751 134.88626 
L 430.357723 131.13785 
L 431.083695 133.87036 
L 431.809666 122.707466 
L 432.535638 125.117796 
L 433.26161 116.053535 
L 433.987581 118.134909 
L 434.713553 105.476775 
L 435.439525 102.993163 
L 436.165496 97.157368 
L 436.891468 88.496503 
L 437.61744 92.458331 
L 438.343412 80.598052 
L 439.069383 85.210183 
L 439.795355 77.185819 
L 440.521327 83.246479 
L 441.247298 68.765989 
L 441.97327 75.642105 
L 442.699242 71.685803 
L 443.425213 60.209315 
L 444.877157 49.030558 
L 445.603129 51.102603 
L 446.3291 44.21988 
L 447.055072 43.016586 
L 447.781044 48.189898 
L 448.507015 42.027358 
L 449.232987 44.010689 
L 449.958959 43.514347 
L 450.68493 44.614098 
L 451.410902 38.34958 
L 452.136874 34.760581 
L 452.862846 40.198729 
L 453.588817 43.839093 
L 454.314789 37.037183 
L 455.040761 36.8699 
L 455.766732 34.33892 
L 456.492704 41.02767 
L 457.218676 41.071678 
L 457.944648 37.080778 
L 458.670619 36.480929 
L 459.396591 34.474011 
L 459.396591 34.474011 
" style="fill:none;stroke:#000000;stroke-dasharray:3.7,1.6;stroke-dashoffset:0;"/>
   </g>
   <g id="matplotlib.axis_1">
    <g id="xtick_1">
     <g id="line2d_3">
      <defs>
       <path d="M 0 0 
L 0 3.5 
" id="mf6b109ac25" style="stroke:#000000;stroke-width:0.8;"/>
      </defs>
      <g>
       <use style="stroke:#000000;stroke-width:0.8;" x="74.631588" xlink:href="#mf6b109ac25" y="293.784375"/>
      </g>
     </g>
     <g id="text_1">
      <!-- 100 -->
      <defs>
       <path d="M 12.40625 8.296875 
L 28.515625 8.296875 
L 28.515625 63.921875 
L 10.984375 60.40625 
L 10.984375 69.390625 
L 28.421875 72.90625 
L 38.28125 72.90625 
L 38.28125 8.296875 
L 54.390625 8.296875 
L 54.390625 0 
L 12.40625 0 
z
" id="DejaVuSans-49"/>
       <path d="M 31.78125 66.40625 
Q 24.171875 66.40625 20.328125 58.90625 
Q 16.5 51.421875 16.5 36.375 
Q 16.5 21.390625 20.328125 13.890625 
Q 24.171875 6.390625 31.78125 6.390625 
Q 39.453125 6.390625 43.28125 13.890625 
Q 47.125 21.390625 47.125 36.375 
Q 47.125 51.421875 43.28125 58.90625 
Q 39.453125 66.40625 31.78125 66.40625 
z
M 31.78125 74.21875 
Q 44.046875 74.21875 50.515625 64.515625 
Q 56.984375 54.828125 56.984375 36.375 
Q 56.984375 17.96875 50.515625 8.265625 
Q 44.046875 -1.421875 31.78125 -1.421875 
Q 19.53125 -1.421875 13.0625 8.265625 
Q 6.59375 17.96875 6.59375 36.375 
Q 6.59375 54.828125 13.0625 64.515625 
Q 19.53125 74.21875 31.78125 74.21875 
z
" id="DejaVuSans-48"/>
      </defs>
      <g transform="translate(65.087838 308.382812)scale(0.1 -0.1)">
       <use xlink:href="#DejaVuSans-49"/>
       <use x="63.623047" xlink:href="#DejaVuSans-48"/>
       <use x="127.246094" xlink:href="#DejaVuSans-48"/>
      </g>
     </g>
    </g>
    <g id="xtick_2">
     <g id="line2d_4">
      <g>
       <use style="stroke:#000000;stroke-width:0.8;" x="147.228759" xlink:href="#mf6b109ac25" y="293.784375"/>
      </g>
     </g>
     <g id="text_2">
      <!-- 200 -->
      <defs>
       <path d="M 19.1875 8.296875 
L 53.609375 8.296875 
L 53.609375 0 
L 7.328125 0 
L 7.328125 8.296875 
Q 12.9375 14.109375 22.625 23.890625 
Q 32.328125 33.6875 34.8125 36.53125 
Q 39.546875 41.84375 41.421875 45.53125 
Q 43.3125 49.21875 43.3125 52.78125 
Q 43.3125 58.59375 39.234375 62.25 
Q 35.15625 65.921875 28.609375 65.921875 
Q 23.96875 65.921875 18.8125 64.3125 
Q 13.671875 62.703125 7.8125 59.421875 
L 7.8125 69.390625 
Q 13.765625 71.78125 18.9375 73 
Q 24.125 74.21875 28.421875 74.21875 
Q 39.75 74.21875 46.484375 68.546875 
Q 53.21875 62.890625 53.21875 53.421875 
Q 53.21875 48.921875 51.53125 44.890625 
Q 49.859375 40.875 45.40625 35.40625 
Q 44.1875 33.984375 37.640625 27.21875 
Q 31.109375 20.453125 19.1875 8.296875 
z
" id="DejaVuSans-50"/>
      </defs>
      <g transform="translate(137.685009 308.382812)scale(0.1 -0.1)">
       <use xlink:href="#DejaVuSans-50"/>
       <use x="63.623047" xlink:href="#DejaVuSans-48"/>
       <use x="127.246094" xlink:href="#DejaVuSans-48"/>
      </g>
     </g>
    </g>
    <g id="xtick_3">
     <g id="line2d_5">
      <g>
       <use style="stroke:#000000;stroke-width:0.8;" x="219.825929" xlink:href="#mf6b109ac25" y="293.784375"/>
      </g>
     </g>
     <g id="text_3">
      <!-- 300 -->
      <defs>
       <path d="M 40.578125 39.3125 
Q 47.65625 37.796875 51.625 33 
Q 55.609375 28.21875 55.609375 21.1875 
Q 55.609375 10.40625 48.1875 4.484375 
Q 40.765625 -1.421875 27.09375 -1.421875 
Q 22.515625 -1.421875 17.65625 -0.515625 
Q 12.796875 0.390625 7.625 2.203125 
L 7.625 11.71875 
Q 11.71875 9.328125 16.59375 8.109375 
Q 21.484375 6.890625 26.8125 6.890625 
Q 36.078125 6.890625 40.9375 10.546875 
Q 45.796875 14.203125 45.796875 21.1875 
Q 45.796875 27.640625 41.28125 31.265625 
Q 36.765625 34.90625 28.71875 34.90625 
L 20.21875 34.90625 
L 20.21875 43.015625 
L 29.109375 43.015625 
Q 36.375 43.015625 40.234375 45.921875 
Q 44.09375 48.828125 44.09375 54.296875 
Q 44.09375 59.90625 40.109375 62.90625 
Q 36.140625 65.921875 28.71875 65.921875 
Q 24.65625 65.921875 20.015625 65.03125 
Q 15.375 64.15625 9.8125 62.3125 
L 9.8125 71.09375 
Q 15.4375 72.65625 20.34375 73.4375 
Q 25.25 74.21875 29.59375 74.21875 
Q 40.828125 74.21875 47.359375 69.109375 
Q 53.90625 64.015625 53.90625 55.328125 
Q 53.90625 49.265625 50.4375 45.09375 
Q 46.96875 40.921875 40.578125 39.3125 
z
" id="DejaVuSans-51"/>
      </defs>
      <g transform="translate(210.282179 308.382812)scale(0.1 -0.1)">
       <use xlink:href="#DejaVuSans-51"/>
       <use x="63.623047" xlink:href="#DejaVuSans-48"/>
       <use x="127.246094" xlink:href="#DejaVuSans-48"/>
      </g>
     </g>
    </g>
    <g id="xtick_4">
     <g id="line2d_6">
      <g>
       <use style="stroke:#000000;stroke-width:0.8;" x="292.423099" xlink:href="#mf6b109ac25" y="293.784375"/>
      </g>
     </g>
     <g id="text_4">
      <!-- 400 -->
      <defs>
       <path d="M 37.796875 64.3125 
L 12.890625 25.390625 
L 37.796875 25.390625 
z
M 35.203125 72.90625 
L 47.609375 72.90625 
L 47.609375 25.390625 
L 58.015625 25.390625 
L 58.015625 17.1875 
L 47.609375 17.1875 
L 47.609375 0 
L 37.796875 0 
L 37.796875 17.1875 
L 4.890625 17.1875 
L 4.890625 26.703125 
z
" id="DejaVuSans-52"/>
      </defs>
      <g transform="translate(282.879349 308.382812)scale(0.1 -0.1)">
       <use xlink:href="#DejaVuSans-52"/>
       <use x="63.623047" xlink:href="#DejaVuSans-48"/>
       <use x="127.246094" xlink:href="#DejaVuSans-48"/>
      </g>
     </g>
    </g>
    <g id="xtick_5">
     <g id="line2d_7">
      <g>
       <use style="stroke:#000000;stroke-width:0.8;" x="365.02027" xlink:href="#mf6b109ac25" y="293.784375"/>
      </g>
     </g>
     <g id="text_5">
      <!-- 500 -->
      <defs>
       <path d="M 10.796875 72.90625 
L 49.515625 72.90625 
L 49.515625 64.59375 
L 19.828125 64.59375 
L 19.828125 46.734375 
Q 21.96875 47.46875 24.109375 47.828125 
Q 26.265625 48.1875 28.421875 48.1875 
Q 40.625 48.1875 47.75 41.5 
Q 54.890625 34.8125 54.890625 23.390625 
Q 54.890625 11.625 47.5625 5.09375 
Q 40.234375 -1.421875 26.90625 -1.421875 
Q 22.3125 -1.421875 17.546875 -0.640625 
Q 12.796875 0.140625 7.71875 1.703125 
L 7.71875 11.625 
Q 12.109375 9.234375 16.796875 8.0625 
Q 21.484375 6.890625 26.703125 6.890625 
Q 35.15625 6.890625 40.078125 11.328125 
Q 45.015625 15.765625 45.015625 23.390625 
Q 45.015625 31 40.078125 35.4375 
Q 35.15625 39.890625 26.703125 39.890625 
Q 22.75 39.890625 18.8125 39.015625 
Q 14.890625 38.140625 10.796875 36.28125 
z
" id="DejaVuSans-53"/>
      </defs>
      <g transform="translate(355.47652 308.382812)scale(0.1 -0.1)">
       <use xlink:href="#DejaVuSans-53"/>
       <use x="63.623047" xlink:href="#DejaVuSans-48"/>
       <use x="127.246094" xlink:href="#DejaVuSans-48"/>
      </g>
     </g>
    </g>
    <g id="xtick_6">
     <g id="line2d_8">
      <g>
       <use style="stroke:#000000;stroke-width:0.8;" x="437.61744" xlink:href="#mf6b109ac25" y="293.784375"/>
      </g>
     </g>
     <g id="text_6">
      <!-- 600 -->
      <defs>
       <path d="M 33.015625 40.375 
Q 26.375 40.375 22.484375 35.828125 
Q 18.609375 31.296875 18.609375 23.390625 
Q 18.609375 15.53125 22.484375 10.953125 
Q 26.375 6.390625 33.015625 6.390625 
Q 39.65625 6.390625 43.53125 10.953125 
Q 47.40625 15.53125 47.40625 23.390625 
Q 47.40625 31.296875 43.53125 35.828125 
Q 39.65625 40.375 33.015625 40.375 
z
M 52.59375 71.296875 
L 52.59375 62.3125 
Q 48.875 64.0625 45.09375 64.984375 
Q 41.3125 65.921875 37.59375 65.921875 
Q 27.828125 65.921875 22.671875 59.328125 
Q 17.53125 52.734375 16.796875 39.40625 
Q 19.671875 43.65625 24.015625 45.921875 
Q 28.375 48.1875 33.59375 48.1875 
Q 44.578125 48.1875 50.953125 41.515625 
Q 57.328125 34.859375 57.328125 23.390625 
Q 57.328125 12.15625 50.6875 5.359375 
Q 44.046875 -1.421875 33.015625 -1.421875 
Q 20.359375 -1.421875 13.671875 8.265625 
Q 6.984375 17.96875 6.984375 36.375 
Q 6.984375 53.65625 15.1875 63.9375 
Q 23.390625 74.21875 37.203125 74.21875 
Q 40.921875 74.21875 44.703125 73.484375 
Q 48.484375 72.75 52.59375 71.296875 
z
" id="DejaVuSans-54"/>
      </defs>
      <g transform="translate(428.07369 308.382812)scale(0.1 -0.1)">
       <use xlink:href="#DejaVuSans-54"/>
       <use x="63.623047" xlink:href="#DejaVuSans-48"/>
       <use x="127.246094" xlink:href="#DejaVuSans-48"/>
      </g>
     </g>
    </g>
    <g id="text_7">
     <!-- Tempo -->
     <defs>
      <path d="M -0.296875 72.90625 
L 61.375 72.90625 
L 61.375 64.59375 
L 35.5 64.59375 
L 35.5 0 
L 25.59375 0 
L 25.59375 64.59375 
L -0.296875 64.59375 
z
" id="DejaVuSans-84"/>
      <path d="M 56.203125 29.59375 
L 56.203125 25.203125 
L 14.890625 25.203125 
Q 15.484375 15.921875 20.484375 11.0625 
Q 25.484375 6.203125 34.421875 6.203125 
Q 39.59375 6.203125 44.453125 7.46875 
Q 49.3125 8.734375 54.109375 11.28125 
L 54.109375 2.78125 
Q 49.265625 0.734375 44.1875 -0.34375 
Q 39.109375 -1.421875 33.890625 -1.421875 
Q 20.796875 -1.421875 13.15625 6.1875 
Q 5.515625 13.8125 5.515625 26.8125 
Q 5.515625 40.234375 12.765625 48.109375 
Q 20.015625 56 32.328125 56 
Q 43.359375 56 49.78125 48.890625 
Q 56.203125 41.796875 56.203125 29.59375 
z
M 47.21875 32.234375 
Q 47.125 39.59375 43.09375 43.984375 
Q 39.0625 48.390625 32.421875 48.390625 
Q 24.90625 48.390625 20.390625 44.140625 
Q 15.875 39.890625 15.1875 32.171875 
z
" id="DejaVuSans-101"/>
      <path d="M 52 44.1875 
Q 55.375 50.25 60.0625 53.125 
Q 64.75 56 71.09375 56 
Q 79.640625 56 84.28125 50.015625 
Q 88.921875 44.046875 88.921875 33.015625 
L 88.921875 0 
L 79.890625 0 
L 79.890625 32.71875 
Q 79.890625 40.578125 77.09375 44.375 
Q 74.3125 48.1875 68.609375 48.1875 
Q 61.625 48.1875 57.5625 43.546875 
Q 53.515625 38.921875 53.515625 30.90625 
L 53.515625 0 
L 44.484375 0 
L 44.484375 32.71875 
Q 44.484375 40.625 41.703125 44.40625 
Q 38.921875 48.1875 33.109375 48.1875 
Q 26.21875 48.1875 22.15625 43.53125 
Q 18.109375 38.875 18.109375 30.90625 
L 18.109375 0 
L 9.078125 0 
L 9.078125 54.6875 
L 18.109375 54.6875 
L 18.109375 46.1875 
Q 21.1875 51.21875 25.484375 53.609375 
Q 29.78125 56 35.6875 56 
Q 41.65625 56 45.828125 52.96875 
Q 50 49.953125 52 44.1875 
z
" id="DejaVuSans-109"/>
      <path d="M 18.109375 8.203125 
L 18.109375 -20.796875 
L 9.078125 -20.796875 
L 9.078125 54.6875 
L 18.109375 54.6875 
L 18.109375 46.390625 
Q 20.953125 51.265625 25.265625 53.625 
Q 29.59375 56 35.59375 56 
Q 45.5625 56 51.78125 48.09375 
Q 58.015625 40.1875 58.015625 27.296875 
Q 58.015625 14.40625 51.78125 6.484375 
Q 45.5625 -1.421875 35.59375 -1.421875 
Q 29.59375 -1.421875 25.265625 0.953125 
Q 20.953125 3.328125 18.109375 8.203125 
z
M 48.6875 27.296875 
Q 48.6875 37.203125 44.609375 42.84375 
Q 40.53125 48.484375 33.40625 48.484375 
Q 26.265625 48.484375 22.1875 42.84375 
Q 18.109375 37.203125 18.109375 27.296875 
Q 18.109375 17.390625 22.1875 11.75 
Q 26.265625 6.109375 33.40625 6.109375 
Q 40.53125 6.109375 44.609375 11.75 
Q 48.6875 17.390625 48.6875 27.296875 
z
" id="DejaVuSans-112"/>
      <path d="M 30.609375 48.390625 
Q 23.390625 48.390625 19.1875 42.75 
Q 14.984375 37.109375 14.984375 27.296875 
Q 14.984375 17.484375 19.15625 11.84375 
Q 23.34375 6.203125 30.609375 6.203125 
Q 37.796875 6.203125 41.984375 11.859375 
Q 46.1875 17.53125 46.1875 27.296875 
Q 46.1875 37.015625 41.984375 42.703125 
Q 37.796875 48.390625 30.609375 48.390625 
z
M 30.609375 56 
Q 42.328125 56 49.015625 48.375 
Q 55.71875 40.765625 55.71875 27.296875 
Q 55.71875 13.875 49.015625 6.21875 
Q 42.328125 -1.421875 30.609375 -1.421875 
Q 18.84375 -1.421875 12.171875 6.21875 
Q 5.515625 13.875 5.515625 27.296875 
Q 5.515625 40.765625 12.171875 48.375 
Q 18.84375 56 30.609375 56 
z
" id="DejaVuSans-111"/>
     </defs>
     <g transform="translate(240.103125 322.060937)scale(0.1 -0.1)">
      <use xlink:href="#DejaVuSans-84"/>
      <use x="44.083984" xlink:href="#DejaVuSans-101"/>
      <use x="105.607422" xlink:href="#DejaVuSans-109"/>
      <use x="203.019531" xlink:href="#DejaVuSans-112"/>
      <use x="266.496094" xlink:href="#DejaVuSans-111"/>
     </g>
    </g>
   </g>
   <g id="matplotlib.axis_2">
    <g id="ytick_1">
     <g id="line2d_9">
      <defs>
       <path d="M 0 0 
L -3.5 0 
" id="m7e71dd1806" style="stroke:#000000;stroke-width:0.8;"/>
      </defs>
      <g>
       <use style="stroke:#000000;stroke-width:0.8;" x="33.2875" xlink:href="#m7e71dd1806" y="281.527961"/>
      </g>
     </g>
     <g id="text_8">
      <!-- 0 -->
      <g transform="translate(19.925 285.32718)scale(0.1 -0.1)">
       <use xlink:href="#DejaVuSans-48"/>
      </g>
     </g>
    </g>
    <g id="ytick_2">
     <g id="line2d_10">
      <g>
       <use style="stroke:#000000;stroke-width:0.8;" x="33.2875" xlink:href="#m7e71dd1806" y="247.116625"/>
      </g>
     </g>
     <g id="text_9">
      <!-- 50 -->
      <g transform="translate(13.5625 250.915843)scale(0.1 -0.1)">
       <use xlink:href="#DejaVuSans-53"/>
       <use x="63.623047" xlink:href="#DejaVuSans-48"/>
      </g>
     </g>
    </g>
    <g id="ytick_3">
     <g id="line2d_11">
      <g>
       <use style="stroke:#000000;stroke-width:0.8;" x="33.2875" xlink:href="#m7e71dd1806" y="212.705288"/>
      </g>
     </g>
     <g id="text_10">
      <!-- 100 -->
      <g transform="translate(7.2 216.504507)scale(0.1 -0.1)">
       <use xlink:href="#DejaVuSans-49"/>
       <use x="63.623047" xlink:href="#DejaVuSans-48"/>
       <use x="127.246094" xlink:href="#DejaVuSans-48"/>
      </g>
     </g>
    </g>
    <g id="ytick_4">
     <g id="line2d_12">
      <g>
       <use style="stroke:#000000;stroke-width:0.8;" x="33.2875" xlink:href="#m7e71dd1806" y="178.293951"/>
      </g>
     </g>
     <g id="text_11">
      <!-- 150 -->
      <g transform="translate(7.2 182.09317)scale(0.1 -0.1)">
       <use xlink:href="#DejaVuSans-49"/>
       <use x="63.623047" xlink:href="#DejaVuSans-53"/>
       <use x="127.246094" xlink:href="#DejaVuSans-48"/>
      </g>
     </g>
    </g>
    <g id="ytick_5">
     <g id="line2d_13">
      <g>
       <use style="stroke:#000000;stroke-width:0.8;" x="33.2875" xlink:href="#m7e71dd1806" y="143.882615"/>
      </g>
     </g>
     <g id="text_12">
      <!-- 200 -->
      <g transform="translate(7.2 147.681834)scale(0.1 -0.1)">
       <use xlink:href="#DejaVuSans-50"/>
       <use x="63.623047" xlink:href="#DejaVuSans-48"/>
       <use x="127.246094" xlink:href="#DejaVuSans-48"/>
      </g>
     </g>
    </g>
    <g id="ytick_6">
     <g id="line2d_14">
      <g>
       <use style="stroke:#000000;stroke-width:0.8;" x="33.2875" xlink:href="#m7e71dd1806" y="109.471278"/>
      </g>
     </g>
     <g id="text_13">
      <!-- 250 -->
      <g transform="translate(7.2 113.270497)scale(0.1 -0.1)">
       <use xlink:href="#DejaVuSans-50"/>
       <use x="63.623047" xlink:href="#DejaVuSans-53"/>
       <use x="127.246094" xlink:href="#DejaVuSans-48"/>
      </g>
     </g>
    </g>
    <g id="ytick_7">
     <g id="line2d_15">
      <g>
       <use style="stroke:#000000;stroke-width:0.8;" x="33.2875" xlink:href="#m7e71dd1806" y="75.059942"/>
      </g>
     </g>
     <g id="text_14">
      <!-- 300 -->
      <g transform="translate(7.2 78.85916)scale(0.1 -0.1)">
       <use xlink:href="#DejaVuSans-51"/>
       <use x="63.623047" xlink:href="#DejaVuSans-48"/>
       <use x="127.246094" xlink:href="#DejaVuSans-48"/>
      </g>
     </g>
    </g>
    <g id="ytick_8">
     <g id="line2d_16">
      <g>
       <use style="stroke:#000000;stroke-width:0.8;" x="33.2875" xlink:href="#m7e71dd1806" y="40.648605"/>
      </g>
     </g>
     <g id="text_15">
      <!-- 350 -->
      <g transform="translate(7.2 44.447824)scale(0.1 -0.1)">
       <use xlink:href="#DejaVuSans-51"/>
       <use x="63.623047" xlink:href="#DejaVuSans-53"/>
       <use x="127.246094" xlink:href="#DejaVuSans-48"/>
      </g>
     </g>
    </g>
   </g>
   <g id="patch_3">
    <path d="M 33.2875 293.784375 
L 33.2875 21.984375 
" style="fill:none;stroke:#000000;stroke-linecap:square;stroke-linejoin:miter;stroke-width:0.8;"/>
   </g>
   <g id="patch_4">
    <path d="M 33.2875 293.784375 
L 479.6875 293.784375 
" style="fill:none;stroke:#000000;stroke-linecap:square;stroke-linejoin:miter;stroke-width:0.8;"/>
   </g>
   <g id="text_16">
    <!-- I_t -->
    <defs>
     <path d="M 9.8125 72.90625 
L 19.671875 72.90625 
L 19.671875 0 
L 9.8125 0 
z
" id="DejaVuSans-73"/>
     <path d="M 50.984375 -16.609375 
L 50.984375 -23.578125 
L -0.984375 -23.578125 
L -0.984375 -16.609375 
z
" id="DejaVuSans-95"/>
     <path d="M 18.3125 70.21875 
L 18.3125 54.6875 
L 36.8125 54.6875 
L 36.8125 47.703125 
L 18.3125 47.703125 
L 18.3125 18.015625 
Q 18.3125 11.328125 20.140625 9.421875 
Q 21.96875 7.515625 27.59375 7.515625 
L 36.8125 7.515625 
L 36.8125 0 
L 27.59375 0 
Q 17.1875 0 13.234375 3.875 
Q 9.28125 7.765625 9.28125 18.015625 
L 9.28125 47.703125 
L 2.6875 47.703125 
L 2.6875 54.6875 
L 9.28125 54.6875 
L 9.28125 70.21875 
z
" id="DejaVuSans-116"/>
    </defs>
    <g transform="translate(249.365313 15.984375)scale(0.12 -0.12)">
     <use xlink:href="#DejaVuSans-73"/>
     <use x="29.492188" xlink:href="#DejaVuSans-95"/>
     <use x="79.492188" xlink:href="#DejaVuSans-116"/>
    </g>
   </g>
   <g id="legend_1">
    <g id="patch_5">
     <path d="M 486.6875 174.123438 
L 578.5875 174.123438 
Q 580.5875 174.123438 580.5875 172.123438 
L 580.5875 143.645313 
Q 580.5875 141.645313 578.5875 141.645313 
L 486.6875 141.645313 
Q 484.6875 141.645313 484.6875 143.645313 
L 484.6875 172.123438 
Q 484.6875 174.123438 486.6875 174.123438 
z
" style="fill:#ffffff;opacity:0.8;stroke:#cccccc;stroke-linejoin:miter;"/>
    </g>
    <g id="line2d_17">
     <path d="M 488.6875 149.74375 
L 508.6875 149.74375 
" style="fill:none;stroke:#000000;stroke-dasharray:3.7,1.6;stroke-dashoffset:0;"/>
    </g>
    <g id="line2d_18"/>
    <g id="text_17">
     <!-- Baseline -->
     <defs>
      <path d="M 19.671875 34.8125 
L 19.671875 8.109375 
L 35.5 8.109375 
Q 43.453125 8.109375 47.28125 11.40625 
Q 51.125 14.703125 51.125 21.484375 
Q 51.125 28.328125 47.28125 31.5625 
Q 43.453125 34.8125 35.5 34.8125 
z
M 19.671875 64.796875 
L 19.671875 42.828125 
L 34.28125 42.828125 
Q 41.5 42.828125 45.03125 45.53125 
Q 48.578125 48.25 48.578125 53.8125 
Q 48.578125 59.328125 45.03125 62.0625 
Q 41.5 64.796875 34.28125 64.796875 
z
M 9.8125 72.90625 
L 35.015625 72.90625 
Q 46.296875 72.90625 52.390625 68.21875 
Q 58.5 63.53125 58.5 54.890625 
Q 58.5 48.1875 55.375 44.234375 
Q 52.25 40.28125 46.1875 39.3125 
Q 53.46875 37.75 57.5 32.78125 
Q 61.53125 27.828125 61.53125 20.40625 
Q 61.53125 10.640625 54.890625 5.3125 
Q 48.25 0 35.984375 0 
L 9.8125 0 
z
" id="DejaVuSans-66"/>
      <path d="M 34.28125 27.484375 
Q 23.390625 27.484375 19.1875 25 
Q 14.984375 22.515625 14.984375 16.5 
Q 14.984375 11.71875 18.140625 8.90625 
Q 21.296875 6.109375 26.703125 6.109375 
Q 34.1875 6.109375 38.703125 11.40625 
Q 43.21875 16.703125 43.21875 25.484375 
L 43.21875 27.484375 
z
M 52.203125 31.203125 
L 52.203125 0 
L 43.21875 0 
L 43.21875 8.296875 
Q 40.140625 3.328125 35.546875 0.953125 
Q 30.953125 -1.421875 24.3125 -1.421875 
Q 15.921875 -1.421875 10.953125 3.296875 
Q 6 8.015625 6 15.921875 
Q 6 25.140625 12.171875 29.828125 
Q 18.359375 34.515625 30.609375 34.515625 
L 43.21875 34.515625 
L 43.21875 35.40625 
Q 43.21875 41.609375 39.140625 45 
Q 35.0625 48.390625 27.6875 48.390625 
Q 23 48.390625 18.546875 47.265625 
Q 14.109375 46.140625 10.015625 43.890625 
L 10.015625 52.203125 
Q 14.9375 54.109375 19.578125 55.046875 
Q 24.21875 56 28.609375 56 
Q 40.484375 56 46.34375 49.84375 
Q 52.203125 43.703125 52.203125 31.203125 
z
" id="DejaVuSans-97"/>
      <path d="M 44.28125 53.078125 
L 44.28125 44.578125 
Q 40.484375 46.53125 36.375 47.5 
Q 32.28125 48.484375 27.875 48.484375 
Q 21.1875 48.484375 17.84375 46.4375 
Q 14.5 44.390625 14.5 40.28125 
Q 14.5 37.15625 16.890625 35.375 
Q 19.28125 33.59375 26.515625 31.984375 
L 29.59375 31.296875 
Q 39.15625 29.25 43.1875 25.515625 
Q 47.21875 21.78125 47.21875 15.09375 
Q 47.21875 7.46875 41.1875 3.015625 
Q 35.15625 -1.421875 24.609375 -1.421875 
Q 20.21875 -1.421875 15.453125 -0.5625 
Q 10.6875 0.296875 5.421875 2 
L 5.421875 11.28125 
Q 10.40625 8.6875 15.234375 7.390625 
Q 20.0625 6.109375 24.8125 6.109375 
Q 31.15625 6.109375 34.5625 8.28125 
Q 37.984375 10.453125 37.984375 14.40625 
Q 37.984375 18.0625 35.515625 20.015625 
Q 33.0625 21.96875 24.703125 23.78125 
L 21.578125 24.515625 
Q 13.234375 26.265625 9.515625 29.90625 
Q 5.8125 33.546875 5.8125 39.890625 
Q 5.8125 47.609375 11.28125 51.796875 
Q 16.75 56 26.8125 56 
Q 31.78125 56 36.171875 55.265625 
Q 40.578125 54.546875 44.28125 53.078125 
z
" id="DejaVuSans-115"/>
      <path d="M 9.421875 75.984375 
L 18.40625 75.984375 
L 18.40625 0 
L 9.421875 0 
z
" id="DejaVuSans-108"/>
      <path d="M 9.421875 54.6875 
L 18.40625 54.6875 
L 18.40625 0 
L 9.421875 0 
z
M 9.421875 75.984375 
L 18.40625 75.984375 
L 18.40625 64.59375 
L 9.421875 64.59375 
z
" id="DejaVuSans-105"/>
      <path d="M 54.890625 33.015625 
L 54.890625 0 
L 45.90625 0 
L 45.90625 32.71875 
Q 45.90625 40.484375 42.875 44.328125 
Q 39.84375 48.1875 33.796875 48.1875 
Q 26.515625 48.1875 22.3125 43.546875 
Q 18.109375 38.921875 18.109375 30.90625 
L 18.109375 0 
L 9.078125 0 
L 9.078125 54.6875 
L 18.109375 54.6875 
L 18.109375 46.1875 
Q 21.34375 51.125 25.703125 53.5625 
Q 30.078125 56 35.796875 56 
Q 45.21875 56 50.046875 50.171875 
Q 54.890625 44.34375 54.890625 33.015625 
z
" id="DejaVuSans-110"/>
     </defs>
     <g transform="translate(516.6875 153.24375)scale(0.1 -0.1)">
      <use xlink:href="#DejaVuSans-66"/>
      <use x="68.603516" xlink:href="#DejaVuSans-97"/>
      <use x="129.882812" xlink:href="#DejaVuSans-115"/>
      <use x="181.982422" xlink:href="#DejaVuSans-101"/>
      <use x="243.505859" xlink:href="#DejaVuSans-108"/>
      <use x="271.289062" xlink:href="#DejaVuSans-105"/>
      <use x="299.072266" xlink:href="#DejaVuSans-110"/>
      <use x="362.451172" xlink:href="#DejaVuSans-101"/>
     </g>
    </g>
    <g id="line2d_19">
     <path d="M 488.6875 164.523438 
L 508.6875 164.523438 
" style="fill:none;stroke:#1f77b4;stroke-linecap:square;stroke-width:1.5;"/>
    </g>
    <g id="line2d_20"/>
    <g id="text_18">
     <!-- $\Uparrow \beta$ (shape) -->
     <defs>
      <path d="M 36.765625 58.59375 
L 36.765625 0 
L 30.90625 0 
L 30.90625 52.734375 
L 26.421875 48.140625 
L 20.5625 54 
L 39.703125 73.25 
L 44.09375 73.25 
L 63.328125 54 
L 57.46875 48.140625 
L 52.875 52.734375 
L 52.875 0 
L 47.015625 0 
L 47.015625 58.59375 
L 41.9375 63.671875 
z
" id="DejaVuSans-8657"/>
      <path d="M 13.625 3.375 
L 8.9375 -20.796875 
L -0.09375 -20.796875 
L 14.5 54.34375 
Q 18.84375 76.609375 39.65625 76.609375 
Q 60.75 76.609375 57.171875 57.8125 
Q 54.734375 44.4375 45.21875 39.546875 
Q 58.015625 35.15625 55.515625 22.125 
Q 51.125 -1.078125 27.484375 -1.03125 
Q 17.140625 -0.984375 13.625 3.375 
z
M 15.921875 15.09375 
Q 19.671875 6.59375 29.296875 6.640625 
Q 43.359375 6.640625 46.34375 21.96875 
Q 49.03125 35.75 26.171875 34.671875 
L 27.78125 42.96875 
Q 45.453125 42.671875 48.53125 58.59375 
Q 50.640625 69.34375 39.203125 69.28125 
Q 26.421875 69.28125 23.484375 54.046875 
z
" id="DejaVuSans-Oblique-946"/>
      <path id="DejaVuSans-32"/>
      <path d="M 31 75.875 
Q 24.46875 64.65625 21.28125 53.65625 
Q 18.109375 42.671875 18.109375 31.390625 
Q 18.109375 20.125 21.3125 9.0625 
Q 24.515625 -2 31 -13.1875 
L 23.1875 -13.1875 
Q 15.875 -1.703125 12.234375 9.375 
Q 8.59375 20.453125 8.59375 31.390625 
Q 8.59375 42.28125 12.203125 53.3125 
Q 15.828125 64.359375 23.1875 75.875 
z
" id="DejaVuSans-40"/>
      <path d="M 54.890625 33.015625 
L 54.890625 0 
L 45.90625 0 
L 45.90625 32.71875 
Q 45.90625 40.484375 42.875 44.328125 
Q 39.84375 48.1875 33.796875 48.1875 
Q 26.515625 48.1875 22.3125 43.546875 
Q 18.109375 38.921875 18.109375 30.90625 
L 18.109375 0 
L 9.078125 0 
L 9.078125 75.984375 
L 18.109375 75.984375 
L 18.109375 46.1875 
Q 21.34375 51.125 25.703125 53.5625 
Q 30.078125 56 35.796875 56 
Q 45.21875 56 50.046875 50.171875 
Q 54.890625 44.34375 54.890625 33.015625 
z
" id="DejaVuSans-104"/>
      <path d="M 8.015625 75.875 
L 15.828125 75.875 
Q 23.140625 64.359375 26.78125 53.3125 
Q 30.421875 42.28125 30.421875 31.390625 
Q 30.421875 20.453125 26.78125 9.375 
Q 23.140625 -1.703125 15.828125 -13.1875 
L 8.015625 -13.1875 
Q 14.5 -2 17.703125 9.0625 
Q 20.90625 20.125 20.90625 31.390625 
Q 20.90625 42.671875 17.703125 53.65625 
Q 14.5 64.65625 8.015625 75.875 
z
" id="DejaVuSans-41"/>
     </defs>
     <g transform="translate(516.6875 168.023438)scale(0.1 -0.1)">
      <use transform="translate(19.482422 0.390625)" xlink:href="#DejaVuSans-8657"/>
      <use transform="translate(122.753906 0.390625)" xlink:href="#DejaVuSans-Oblique-946"/>
      <use transform="translate(186.572266 0.390625)" xlink:href="#DejaVuSans-32"/>
      <use transform="translate(218.359375 0.390625)" xlink:href="#DejaVuSans-40"/>
      <use transform="translate(257.373047 0.390625)" xlink:href="#DejaVuSans-115"/>
      <use transform="translate(309.472656 0.390625)" xlink:href="#DejaVuSans-104"/>
      <use transform="translate(372.851562 0.390625)" xlink:href="#DejaVuSans-97"/>
      <use transform="translate(434.130859 0.390625)" xlink:href="#DejaVuSans-112"/>
      <use transform="translate(497.607422 0.390625)" xlink:href="#DejaVuSans-101"/>
      <use transform="translate(559.130859 0.390625)" xlink:href="#DejaVuSans-41"/>
     </g>
    </g>
   </g>
  </g>
 </g>
 <defs>
  <clipPath id="pf1683a788a">
   <rect height="271.8" width="446.4" x="33.2875" y="21.984375"/>
  </clipPath>
 </defs>
</svg>
