<?xml version="1.0" encoding="utf-8" standalone="no"?>
<!DOCTYPE svg PUBLIC "-//W3C//DTD SVG 1.1//EN"
  "http://www.w3.org/Graphics/SVG/1.1/DTD/svg11.dtd">
<!-- Created with matplotlib (https://matplotlib.org/) -->
<svg height="331.674375pt" version="1.1" viewBox="0 0 592.982812 331.674375" width="592.982812pt" xmlns="http://www.w3.org/2000/svg" xmlns:xlink="http://www.w3.org/1999/xlink">
 <defs>
  <style type="text/css">
*{stroke-linecap:butt;stroke-linejoin:round;}
  </style>
 </defs>
 <g id="figure_1">
  <g id="patch_1">
   <path d="M 0 331.674375 
L 592.982812 331.674375 
L 592.982812 0 
L 0 0 
z
" style="fill:#ffffff;"/>
  </g>
  <g id="axes_1">
   <g id="patch_2">
    <path d="M 38.482813 294.118125 
L 484.882812 294.118125 
L 484.882812 22.318125 
L 38.482813 22.318125 
z
" style="fill:#ffffff;"/>
   </g>
   <g id="line2d_1">
    <path clip-path="url(#pb00633dd0e)" d="M 58.773722 274.396813 
L 59.499693 277.634959 
L 60.225665 280.331138 
L 60.951637 279.275408 
L 61.677608 277.259418 
L 62.40358 270.659845 
L 63.129552 269.176367 
L 63.855524 276.132409 
L 64.581495 273.413949 
L 65.307467 279.635138 
L 66.033439 277.480401 
L 66.75941 275.780202 
L 67.485382 278.320163 
L 68.211354 274.689701 
L 68.937325 280.783445 
L 69.663297 278.793468 
L 70.389269 272.804735 
L 71.115241 280.61887 
L 71.841212 278.109346 
L 72.567184 280.814895 
L 73.293156 281.496191 
L 74.019127 274.269761 
L 74.745099 279.068155 
L 75.471071 279.533385 
L 76.197042 274.039489 
L 77.648986 281.504679 
L 78.374958 281.63884 
L 79.100929 274.32113 
L 79.826901 279.373118 
L 80.552873 281.231821 
L 81.278844 278.48306 
L 82.004816 276.903409 
L 82.730788 276.573145 
L 83.456759 280.635419 
L 84.182731 280.524662 
L 84.908703 275.234904 
L 85.634675 272.607022 
L 86.360646 272.533944 
L 87.086618 270.985068 
L 87.81259 276.883616 
L 88.538561 279.85472 
L 89.264533 278.732265 
L 89.990505 269.988902 
L 90.716477 268.239413 
L 91.442448 280.9888 
L 92.16842 279.148912 
L 92.894392 280.681485 
L 93.620363 279.885975 
L 94.346335 273.327762 
L 95.072307 276.936466 
L 95.798278 277.576085 
L 96.52425 275.39657 
L 97.250222 276.733702 
L 97.976194 276.13867 
L 98.702165 274.748519 
L 99.428137 280.72916 
L 100.154109 281.537344 
L 100.88008 278.903521 
L 102.332024 271.552341 
L 103.057995 280.046188 
L 103.783967 274.053948 
L 104.509939 275.349612 
L 105.235911 280.841958 
L 105.961882 281.007962 
L 106.687854 274.709375 
L 107.413826 274.173626 
L 108.139797 271.69977 
L 108.865769 273.65794 
L 109.591741 280.058814 
L 110.317712 280.822078 
L 111.043684 275.821556 
L 111.769656 272.049893 
L 112.495628 270.490773 
L 113.221599 268.068067 
L 113.947571 274.772492 
L 114.673543 276.562422 
L 115.399514 275.063335 
L 116.125486 269.70435 
L 116.851458 279.928921 
L 117.57743 278.409543 
L 118.303401 268.999286 
L 119.029373 263.876965 
L 119.755345 279.897839 
L 120.481316 281.76358 
L 121.207288 279.853441 
L 121.93326 275.223548 
L 122.659231 274.451023 
L 123.385203 277.487593 
L 124.111175 275.237927 
L 124.837147 278.172973 
L 125.563118 280.257358 
L 127.015062 272.136038 
L 127.741033 279.486403 
L 128.467005 277.469449 
L 129.192977 270.952346 
L 129.918948 276.845262 
L 131.370892 269.365615 
L 132.096864 280.091836 
L 132.822835 276.437238 
L 133.548807 278.143718 
L 134.274779 278.194786 
L 135.00075 268.109006 
L 135.726722 273.77774 
L 136.452694 268.862264 
L 137.178665 266.622897 
L 137.904637 274.685804 
L 138.630609 266.978002 
L 139.356581 279.164257 
L 140.082552 279.827284 
L 141.534496 267.046212 
L 142.260467 262.313121 
L 142.986439 253.225116 
L 143.712411 268.465555 
L 144.438383 275.638458 
L 145.164354 279.215021 
L 145.890326 274.495806 
L 146.616298 265.26973 
L 147.342269 266.307546 
L 148.068241 273.296137 
L 148.794213 275.399858 
L 149.520184 267.942371 
L 150.246156 272.021998 
L 150.972128 279.373849 
L 151.6981 280.906961 
L 153.150043 264.680984 
L 153.876015 272.955979 
L 154.601986 273.079407 
L 155.327958 276.267315 
L 156.05393 274.050814 
L 156.779901 267.311138 
L 157.505873 273.714234 
L 158.957817 271.140212 
L 159.683788 270.861478 
L 160.40976 262.545386 
L 161.135732 271.634182 
L 161.861703 270.721193 
L 162.587675 269.126802 
L 163.313647 279.050483 
L 164.039618 278.778495 
L 164.76559 268.890511 
L 165.491562 269.482973 
L 166.217534 268.902318 
L 166.943505 264.105988 
L 167.669477 267.081654 
L 168.395449 263.162432 
L 169.12142 268.176055 
L 169.847392 278.405053 
L 170.573364 276.45836 
L 171.299336 280.015485 
L 172.025307 277.142652 
L 172.751279 264.520232 
L 173.477251 268.488886 
L 174.203222 276.191786 
L 174.929194 277.839524 
L 175.655166 275.153851 
L 176.381137 275.250327 
L 177.107109 271.153145 
L 177.833081 270.661525 
L 178.559053 274.163153 
L 179.285024 271.104159 
L 180.010996 278.089775 
L 180.736968 280.229136 
L 181.462939 280.607929 
L 182.914883 269.46053 
L 183.640854 279.93636 
L 184.366826 278.153558 
L 185.092798 270.601213 
L 185.81877 274.965492 
L 186.544741 271.020942 
L 187.270713 268.681419 
L 187.996685 271.050588 
L 189.448628 280.093417 
L 190.1746 275.157059 
L 190.900571 277.48292 
L 191.626543 280.746302 
L 192.352515 278.147442 
L 193.804458 280.683901 
L 194.53043 276.961822 
L 195.256402 267.893096 
L 195.982373 271.506846 
L 196.708345 272.969109 
L 197.434317 279.662148 
L 198.160289 280.356475 
L 198.88626 278.909875 
L 199.612232 275.657928 
L 200.338204 279.622161 
L 201.064175 279.84317 
L 201.790147 281.01695 
L 202.516119 278.874968 
L 203.24209 273.481825 
L 203.968062 279.021002 
L 204.694034 279.249226 
L 205.420006 275.260067 
L 206.145977 279.132214 
L 206.871949 275.046915 
L 207.597921 274.455399 
L 208.323892 274.113029 
L 209.049864 271.213483 
L 209.775836 278.296671 
L 210.501807 274.082312 
L 211.227779 265.419572 
L 211.953751 274.283598 
L 212.679723 278.718734 
L 213.405694 279.983535 
L 214.131666 273.667159 
L 214.857638 269.029534 
L 215.583609 273.803333 
L 216.309581 273.314724 
L 217.035553 274.127837 
L 217.761524 272.919098 
L 218.487496 277.790583 
L 219.213468 272.939359 
L 219.93944 271.943518 
L 220.665411 273.240882 
L 221.391383 268.326518 
L 222.117355 270.149848 
L 222.843326 278.45538 
L 223.569298 274.705753 
L 224.29527 266.960266 
L 225.021242 275.08246 
L 225.747213 278.339183 
L 226.473185 273.695225 
L 227.199157 274.056172 
L 227.925128 273.762903 
L 228.6511 271.059801 
L 229.377072 274.90325 
L 230.103043 275.895076 
L 230.829015 279.400122 
L 231.554987 276.979157 
L 232.280959 274.120788 
L 233.00693 266.462569 
L 233.732902 273.658878 
L 234.458874 271.248399 
L 235.184845 274.013819 
L 236.636789 270.752682 
L 237.36276 274.755579 
L 238.088732 272.666444 
L 238.814704 278.345402 
L 239.540676 277.735898 
L 240.266647 273.693685 
L 240.992619 265.775677 
L 241.718591 272.110989 
L 242.444562 272.57216 
L 243.170534 275.627166 
L 243.896506 270.059164 
L 244.622477 278.110554 
L 245.348449 278.295466 
L 246.074421 267.769741 
L 246.800393 277.000385 
L 247.526364 277.536106 
L 248.252336 270.259915 
L 248.978308 277.290921 
L 249.704279 275.682779 
L 250.430251 278.771417 
L 251.156223 279.496251 
L 252.608166 271.553143 
L 253.334138 272.498411 
L 254.06011 272.427536 
L 254.786081 275.974306 
L 255.512053 278.241011 
L 256.238025 272.968146 
L 256.963996 273.229289 
L 257.689968 277.987971 
L 258.41594 271.08211 
L 259.141912 278.290752 
L 259.867883 279.572881 
L 260.593855 274.99351 
L 261.319827 277.19018 
L 262.045798 278.77105 
L 262.77177 273.287071 
L 263.497742 276.118702 
L 264.223713 275.431874 
L 264.949685 274.095263 
L 265.675657 267.104103 
L 266.401629 277.200863 
L 267.1276 275.12808 
L 267.853572 270.605774 
L 268.579544 274.240697 
L 269.305515 267.857456 
L 270.031487 271.176742 
L 270.757459 271.813057 
L 271.48343 272.252815 
L 272.209402 270.980652 
L 272.935374 277.489621 
L 273.661346 277.106903 
L 274.387317 274.70013 
L 275.113289 271.668252 
L 275.839261 272.589929 
L 276.565232 272.76495 
L 277.291204 269.363956 
L 278.017176 267.688608 
L 278.743148 270.008369 
L 279.469119 260.954397 
L 280.195091 265.711617 
L 280.921063 274.659202 
L 281.647034 274.07847 
L 282.373006 276.709904 
L 283.098978 277.243656 
L 283.824949 274.24355 
L 284.550921 276.661189 
L 285.276893 272.341761 
L 286.002865 277.064762 
L 286.728836 277.859886 
L 287.454808 275.107978 
L 288.18078 273.262586 
L 290.358695 257.7017 
L 291.084666 260.925724 
L 291.810638 268.807706 
L 292.53661 265.441937 
L 293.262582 267.877147 
L 293.988553 266.181986 
L 294.714525 269.059191 
L 295.440497 264.133911 
L 296.166468 263.121091 
L 296.89244 261.350201 
L 298.344383 255.764477 
L 299.070355 266.316846 
L 299.796327 265.093871 
L 300.522299 275.115599 
L 301.24827 273.670582 
L 301.974242 266.940746 
L 302.700214 264.491822 
L 303.426185 257.543991 
L 304.152157 256.265194 
L 304.878129 268.314353 
L 305.604101 276.409562 
L 306.330072 274.459552 
L 307.056044 277.801833 
L 307.782016 277.820329 
L 308.507987 276.427903 
L 309.233959 264.170413 
L 309.959931 262.125597 
L 310.685902 258.226782 
L 311.411874 264.333352 
L 312.137846 266.278603 
L 312.863818 269.394461 
L 313.589789 265.602178 
L 314.315761 259.088239 
L 315.041733 257.736676 
L 315.767704 264.296119 
L 316.493676 267.320688 
L 317.219648 275.078694 
L 317.945619 270.450666 
L 318.671591 254.721164 
L 319.397563 263.422355 
L 320.123535 269.783936 
L 320.849506 261.195017 
L 321.575478 274.920216 
L 322.30145 276.173073 
L 323.027421 268.999671 
L 323.753393 254.562886 
L 324.479365 258.288494 
L 325.205336 273.523033 
L 325.931308 276.608084 
L 326.65728 274.769464 
L 327.383252 265.697428 
L 328.109223 269.24134 
L 328.835195 266.317813 
L 329.561167 275.863567 
L 330.287138 271.231216 
L 331.01311 259.509839 
L 331.739082 271.436092 
L 332.465054 266.990979 
L 333.191025 265.125634 
L 333.916997 274.746354 
L 334.642969 273.587636 
L 335.36894 269.382911 
L 336.094912 275.138224 
L 336.820884 275.254911 
L 337.546855 275.121677 
L 338.272827 274.507604 
L 338.998799 263.258162 
L 339.724771 263.931446 
L 340.450742 274.740115 
L 341.176714 274.464131 
L 341.902686 262.223539 
L 342.628657 266.559201 
L 343.354629 274.078114 
L 344.080601 265.874789 
L 344.806572 269.68535 
L 345.532544 276.055211 
L 346.258516 256.450248 
L 346.984488 275.299275 
L 347.710459 271.166583 
L 348.436431 275.182185 
L 349.162403 276.300387 
L 349.888374 272.596722 
L 350.614346 272.135642 
L 351.340318 268.005464 
L 352.066289 263.102094 
L 352.792261 271.180857 
L 353.518233 268.558406 
L 354.244205 261.234723 
L 354.970176 274.050441 
L 355.696148 268.970251 
L 356.42212 271.999736 
L 357.148091 262.221662 
L 357.874063 266.312445 
L 358.600035 267.570817 
L 359.326007 270.43567 
L 360.051978 257.592622 
L 360.77795 249.751306 
L 361.503922 271.10282 
L 362.229893 274.516135 
L 362.955865 259.531057 
L 363.681837 268.900193 
L 364.407808 273.783544 
L 365.13378 272.84092 
L 365.859752 259.06857 
L 367.311695 264.593933 
L 368.037667 262.546027 
L 368.763639 270.703578 
L 369.48961 267.044033 
L 370.215582 271.26205 
L 370.941554 272.513163 
L 371.667525 259.475938 
L 372.393497 270.711489 
L 373.119469 256.173348 
L 373.845441 261.219725 
L 374.571412 269.963769 
L 375.297384 273.625832 
L 376.023356 271.54026 
L 376.749327 258.756315 
L 377.475299 263.093792 
L 378.201271 271.56513 
L 378.927242 263.776774 
L 379.653214 262.239068 
L 380.379186 262.791279 
L 381.105158 256.42058 
L 381.831129 262.222287 
L 382.557101 252.518076 
L 383.283073 258.909978 
L 384.009044 267.284951 
L 384.735016 259.321181 
L 385.460988 264.217914 
L 386.18696 270.228384 
L 386.912931 263.7179 
L 387.638903 268.250249 
L 388.364875 264.09476 
L 389.090846 256.782784 
L 389.816818 268.2558 
L 390.54279 270.542846 
L 391.268761 258.492462 
L 391.994733 258.694028 
L 392.720705 261.319594 
L 393.446677 252.681413 
L 394.172648 250.340041 
L 394.89862 265.745486 
L 395.624592 268.496044 
L 396.350563 257.641207 
L 397.076535 255.174984 
L 397.802507 255.733961 
L 398.528478 255.929028 
L 399.25445 251.55884 
L 399.980422 259.816685 
L 400.706394 248.428984 
L 401.432365 256.254541 
L 402.158337 265.63295 
L 402.884309 244.010299 
L 403.61028 252.643022 
L 404.336252 253.056072 
L 405.062224 249.976451 
L 405.788195 247.711124 
L 406.514167 247.790323 
L 407.240139 251.550197 
L 407.966111 252.878855 
L 408.692082 264.013968 
L 409.418054 253.337897 
L 410.144026 267.264804 
L 410.869997 251.020992 
L 411.595969 243.75358 
L 412.321941 266.882284 
L 413.047913 253.909356 
L 413.773884 246.912593 
L 414.499856 253.427685 
L 415.225828 249.375917 
L 415.951799 240.784205 
L 416.677771 263.218861 
L 418.129714 249.254553 
L 418.855686 264.699144 
L 419.581658 256.242524 
L 420.30763 250.296168 
L 421.033601 246.588315 
L 421.759573 264.134802 
L 422.485545 266.329499 
L 423.211516 264.639832 
L 423.937488 266.789339 
L 424.66346 263.296993 
L 425.389431 253.349628 
L 426.115403 260.242654 
L 426.841375 263.812391 
L 427.567347 263.374536 
L 428.293318 255.317726 
L 429.01929 259.98315 
L 429.745262 256.831646 
L 430.471233 260.488871 
L 431.197205 250.992816 
L 431.923177 249.673891 
L 432.649148 250.668107 
L 433.37512 264.756736 
L 434.101092 263.816651 
L 434.827064 259.650193 
L 435.553035 250.781046 
L 436.279007 260.870223 
L 437.004979 255.382248 
L 437.73095 262.284095 
L 438.456922 253.66312 
L 439.182894 263.749146 
L 439.908866 262.188077 
L 440.634837 261.527959 
L 441.360809 263.48951 
L 442.086781 251.980498 
L 442.812752 261.502866 
L 443.538724 248.381952 
L 444.264696 257.448097 
L 444.990667 245.601277 
L 445.716639 263.015869 
L 446.442611 251.286277 
L 447.168583 254.76559 
L 447.894554 263.286809 
L 448.620526 263.771722 
L 449.346498 263.137444 
L 450.072469 254.756812 
L 450.798441 259.797659 
L 451.524413 257.997066 
L 452.250384 241.321965 
L 452.976356 262.29624 
L 453.702328 255.028153 
L 454.4283 252.807166 
L 455.154271 250.109059 
L 455.880243 260.644836 
L 456.606215 262.217748 
L 457.332186 241.259507 
L 458.058158 247.606585 
L 458.78413 259.937631 
L 459.510101 258.498672 
L 460.236073 257.764177 
L 460.962045 251.911289 
L 461.688017 250.566258 
L 462.413988 259.019443 
L 463.13996 258.546671 
L 463.865932 260.18648 
L 464.591903 259.791867 
L 464.591903 259.791867 
" style="fill:none;stroke:#1f77b4;stroke-linecap:square;stroke-width:1.5;"/>
   </g>
   <g id="line2d_2">
    <path clip-path="url(#pb00633dd0e)" d="M 58.773722 34.67267 
L 464.591903 34.67267 
L 464.591903 34.67267 
" style="fill:none;stroke:#000000;stroke-dasharray:3.7,1.6;stroke-dashoffset:0;"/>
   </g>
   <g id="matplotlib.axis_1">
    <g id="xtick_1">
     <g id="line2d_3">
      <defs>
       <path d="M 0 0 
L 0 3.5 
" id="mf21ee0d20e" style="stroke:#000000;stroke-width:0.8;"/>
      </defs>
      <g>
       <use style="stroke:#000000;stroke-width:0.8;" x="79.826901" xlink:href="#mf21ee0d20e" y="294.118125"/>
      </g>
     </g>
     <g id="text_1">
      <!-- 100 -->
      <defs>
       <path d="M 12.40625 8.296875 
L 28.515625 8.296875 
L 28.515625 63.921875 
L 10.984375 60.40625 
L 10.984375 69.390625 
L 28.421875 72.90625 
L 38.28125 72.90625 
L 38.28125 8.296875 
L 54.390625 8.296875 
L 54.390625 0 
L 12.40625 0 
z
" id="DejaVuSans-49"/>
       <path d="M 31.78125 66.40625 
Q 24.171875 66.40625 20.328125 58.90625 
Q 16.5 51.421875 16.5 36.375 
Q 16.5 21.390625 20.328125 13.890625 
Q 24.171875 6.390625 31.78125 6.390625 
Q 39.453125 6.390625 43.28125 13.890625 
Q 47.125 21.390625 47.125 36.375 
Q 47.125 51.421875 43.28125 58.90625 
Q 39.453125 66.40625 31.78125 66.40625 
z
M 31.78125 74.21875 
Q 44.046875 74.21875 50.515625 64.515625 
Q 56.984375 54.828125 56.984375 36.375 
Q 56.984375 17.96875 50.515625 8.265625 
Q 44.046875 -1.421875 31.78125 -1.421875 
Q 19.53125 -1.421875 13.0625 8.265625 
Q 6.59375 17.96875 6.59375 36.375 
Q 6.59375 54.828125 13.0625 64.515625 
Q 19.53125 74.21875 31.78125 74.21875 
z
" id="DejaVuSans-48"/>
      </defs>
      <g transform="translate(70.283151 308.716563)scale(0.1 -0.1)">
       <use xlink:href="#DejaVuSans-49"/>
       <use x="63.623047" xlink:href="#DejaVuSans-48"/>
       <use x="127.246094" xlink:href="#DejaVuSans-48"/>
      </g>
     </g>
    </g>
    <g id="xtick_2">
     <g id="line2d_4">
      <g>
       <use style="stroke:#000000;stroke-width:0.8;" x="152.424071" xlink:href="#mf21ee0d20e" y="294.118125"/>
      </g>
     </g>
     <g id="text_2">
      <!-- 200 -->
      <defs>
       <path d="M 19.1875 8.296875 
L 53.609375 8.296875 
L 53.609375 0 
L 7.328125 0 
L 7.328125 8.296875 
Q 12.9375 14.109375 22.625 23.890625 
Q 32.328125 33.6875 34.8125 36.53125 
Q 39.546875 41.84375 41.421875 45.53125 
Q 43.3125 49.21875 43.3125 52.78125 
Q 43.3125 58.59375 39.234375 62.25 
Q 35.15625 65.921875 28.609375 65.921875 
Q 23.96875 65.921875 18.8125 64.3125 
Q 13.671875 62.703125 7.8125 59.421875 
L 7.8125 69.390625 
Q 13.765625 71.78125 18.9375 73 
Q 24.125 74.21875 28.421875 74.21875 
Q 39.75 74.21875 46.484375 68.546875 
Q 53.21875 62.890625 53.21875 53.421875 
Q 53.21875 48.921875 51.53125 44.890625 
Q 49.859375 40.875 45.40625 35.40625 
Q 44.1875 33.984375 37.640625 27.21875 
Q 31.109375 20.453125 19.1875 8.296875 
z
" id="DejaVuSans-50"/>
      </defs>
      <g transform="translate(142.880321 308.716563)scale(0.1 -0.1)">
       <use xlink:href="#DejaVuSans-50"/>
       <use x="63.623047" xlink:href="#DejaVuSans-48"/>
       <use x="127.246094" xlink:href="#DejaVuSans-48"/>
      </g>
     </g>
    </g>
    <g id="xtick_3">
     <g id="line2d_5">
      <g>
       <use style="stroke:#000000;stroke-width:0.8;" x="225.021242" xlink:href="#mf21ee0d20e" y="294.118125"/>
      </g>
     </g>
     <g id="text_3">
      <!-- 300 -->
      <defs>
       <path d="M 40.578125 39.3125 
Q 47.65625 37.796875 51.625 33 
Q 55.609375 28.21875 55.609375 21.1875 
Q 55.609375 10.40625 48.1875 4.484375 
Q 40.765625 -1.421875 27.09375 -1.421875 
Q 22.515625 -1.421875 17.65625 -0.515625 
Q 12.796875 0.390625 7.625 2.203125 
L 7.625 11.71875 
Q 11.71875 9.328125 16.59375 8.109375 
Q 21.484375 6.890625 26.8125 6.890625 
Q 36.078125 6.890625 40.9375 10.546875 
Q 45.796875 14.203125 45.796875 21.1875 
Q 45.796875 27.640625 41.28125 31.265625 
Q 36.765625 34.90625 28.71875 34.90625 
L 20.21875 34.90625 
L 20.21875 43.015625 
L 29.109375 43.015625 
Q 36.375 43.015625 40.234375 45.921875 
Q 44.09375 48.828125 44.09375 54.296875 
Q 44.09375 59.90625 40.109375 62.90625 
Q 36.140625 65.921875 28.71875 65.921875 
Q 24.65625 65.921875 20.015625 65.03125 
Q 15.375 64.15625 9.8125 62.3125 
L 9.8125 71.09375 
Q 15.4375 72.65625 20.34375 73.4375 
Q 25.25 74.21875 29.59375 74.21875 
Q 40.828125 74.21875 47.359375 69.109375 
Q 53.90625 64.015625 53.90625 55.328125 
Q 53.90625 49.265625 50.4375 45.09375 
Q 46.96875 40.921875 40.578125 39.3125 
z
" id="DejaVuSans-51"/>
      </defs>
      <g transform="translate(215.477492 308.716563)scale(0.1 -0.1)">
       <use xlink:href="#DejaVuSans-51"/>
       <use x="63.623047" xlink:href="#DejaVuSans-48"/>
       <use x="127.246094" xlink:href="#DejaVuSans-48"/>
      </g>
     </g>
    </g>
    <g id="xtick_4">
     <g id="line2d_6">
      <g>
       <use style="stroke:#000000;stroke-width:0.8;" x="297.618412" xlink:href="#mf21ee0d20e" y="294.118125"/>
      </g>
     </g>
     <g id="text_4">
      <!-- 400 -->
      <defs>
       <path d="M 37.796875 64.3125 
L 12.890625 25.390625 
L 37.796875 25.390625 
z
M 35.203125 72.90625 
L 47.609375 72.90625 
L 47.609375 25.390625 
L 58.015625 25.390625 
L 58.015625 17.1875 
L 47.609375 17.1875 
L 47.609375 0 
L 37.796875 0 
L 37.796875 17.1875 
L 4.890625 17.1875 
L 4.890625 26.703125 
z
" id="DejaVuSans-52"/>
      </defs>
      <g transform="translate(288.074662 308.716563)scale(0.1 -0.1)">
       <use xlink:href="#DejaVuSans-52"/>
       <use x="63.623047" xlink:href="#DejaVuSans-48"/>
       <use x="127.246094" xlink:href="#DejaVuSans-48"/>
      </g>
     </g>
    </g>
    <g id="xtick_5">
     <g id="line2d_7">
      <g>
       <use style="stroke:#000000;stroke-width:0.8;" x="370.215582" xlink:href="#mf21ee0d20e" y="294.118125"/>
      </g>
     </g>
     <g id="text_5">
      <!-- 500 -->
      <defs>
       <path d="M 10.796875 72.90625 
L 49.515625 72.90625 
L 49.515625 64.59375 
L 19.828125 64.59375 
L 19.828125 46.734375 
Q 21.96875 47.46875 24.109375 47.828125 
Q 26.265625 48.1875 28.421875 48.1875 
Q 40.625 48.1875 47.75 41.5 
Q 54.890625 34.8125 54.890625 23.390625 
Q 54.890625 11.625 47.5625 5.09375 
Q 40.234375 -1.421875 26.90625 -1.421875 
Q 22.3125 -1.421875 17.546875 -0.640625 
Q 12.796875 0.140625 7.71875 1.703125 
L 7.71875 11.625 
Q 12.109375 9.234375 16.796875 8.0625 
Q 21.484375 6.890625 26.703125 6.890625 
Q 35.15625 6.890625 40.078125 11.328125 
Q 45.015625 15.765625 45.015625 23.390625 
Q 45.015625 31 40.078125 35.4375 
Q 35.15625 39.890625 26.703125 39.890625 
Q 22.75 39.890625 18.8125 39.015625 
Q 14.890625 38.140625 10.796875 36.28125 
z
" id="DejaVuSans-53"/>
      </defs>
      <g transform="translate(360.671832 308.716563)scale(0.1 -0.1)">
       <use xlink:href="#DejaVuSans-53"/>
       <use x="63.623047" xlink:href="#DejaVuSans-48"/>
       <use x="127.246094" xlink:href="#DejaVuSans-48"/>
      </g>
     </g>
    </g>
    <g id="xtick_6">
     <g id="line2d_8">
      <g>
       <use style="stroke:#000000;stroke-width:0.8;" x="442.812752" xlink:href="#mf21ee0d20e" y="294.118125"/>
      </g>
     </g>
     <g id="text_6">
      <!-- 600 -->
      <defs>
       <path d="M 33.015625 40.375 
Q 26.375 40.375 22.484375 35.828125 
Q 18.609375 31.296875 18.609375 23.390625 
Q 18.609375 15.53125 22.484375 10.953125 
Q 26.375 6.390625 33.015625 6.390625 
Q 39.65625 6.390625 43.53125 10.953125 
Q 47.40625 15.53125 47.40625 23.390625 
Q 47.40625 31.296875 43.53125 35.828125 
Q 39.65625 40.375 33.015625 40.375 
z
M 52.59375 71.296875 
L 52.59375 62.3125 
Q 48.875 64.0625 45.09375 64.984375 
Q 41.3125 65.921875 37.59375 65.921875 
Q 27.828125 65.921875 22.671875 59.328125 
Q 17.53125 52.734375 16.796875 39.40625 
Q 19.671875 43.65625 24.015625 45.921875 
Q 28.375 48.1875 33.59375 48.1875 
Q 44.578125 48.1875 50.953125 41.515625 
Q 57.328125 34.859375 57.328125 23.390625 
Q 57.328125 12.15625 50.6875 5.359375 
Q 44.046875 -1.421875 33.015625 -1.421875 
Q 20.359375 -1.421875 13.671875 8.265625 
Q 6.984375 17.96875 6.984375 36.375 
Q 6.984375 53.65625 15.1875 63.9375 
Q 23.390625 74.21875 37.203125 74.21875 
Q 40.921875 74.21875 44.703125 73.484375 
Q 48.484375 72.75 52.59375 71.296875 
z
" id="DejaVuSans-54"/>
      </defs>
      <g transform="translate(433.269002 308.716563)scale(0.1 -0.1)">
       <use xlink:href="#DejaVuSans-54"/>
       <use x="63.623047" xlink:href="#DejaVuSans-48"/>
       <use x="127.246094" xlink:href="#DejaVuSans-48"/>
      </g>
     </g>
    </g>
    <g id="text_7">
     <!-- Tempo -->
     <defs>
      <path d="M -0.296875 72.90625 
L 61.375 72.90625 
L 61.375 64.59375 
L 35.5 64.59375 
L 35.5 0 
L 25.59375 0 
L 25.59375 64.59375 
L -0.296875 64.59375 
z
" id="DejaVuSans-84"/>
      <path d="M 56.203125 29.59375 
L 56.203125 25.203125 
L 14.890625 25.203125 
Q 15.484375 15.921875 20.484375 11.0625 
Q 25.484375 6.203125 34.421875 6.203125 
Q 39.59375 6.203125 44.453125 7.46875 
Q 49.3125 8.734375 54.109375 11.28125 
L 54.109375 2.78125 
Q 49.265625 0.734375 44.1875 -0.34375 
Q 39.109375 -1.421875 33.890625 -1.421875 
Q 20.796875 -1.421875 13.15625 6.1875 
Q 5.515625 13.8125 5.515625 26.8125 
Q 5.515625 40.234375 12.765625 48.109375 
Q 20.015625 56 32.328125 56 
Q 43.359375 56 49.78125 48.890625 
Q 56.203125 41.796875 56.203125 29.59375 
z
M 47.21875 32.234375 
Q 47.125 39.59375 43.09375 43.984375 
Q 39.0625 48.390625 32.421875 48.390625 
Q 24.90625 48.390625 20.390625 44.140625 
Q 15.875 39.890625 15.1875 32.171875 
z
" id="DejaVuSans-101"/>
      <path d="M 52 44.1875 
Q 55.375 50.25 60.0625 53.125 
Q 64.75 56 71.09375 56 
Q 79.640625 56 84.28125 50.015625 
Q 88.921875 44.046875 88.921875 33.015625 
L 88.921875 0 
L 79.890625 0 
L 79.890625 32.71875 
Q 79.890625 40.578125 77.09375 44.375 
Q 74.3125 48.1875 68.609375 48.1875 
Q 61.625 48.1875 57.5625 43.546875 
Q 53.515625 38.921875 53.515625 30.90625 
L 53.515625 0 
L 44.484375 0 
L 44.484375 32.71875 
Q 44.484375 40.625 41.703125 44.40625 
Q 38.921875 48.1875 33.109375 48.1875 
Q 26.21875 48.1875 22.15625 43.53125 
Q 18.109375 38.875 18.109375 30.90625 
L 18.109375 0 
L 9.078125 0 
L 9.078125 54.6875 
L 18.109375 54.6875 
L 18.109375 46.1875 
Q 21.1875 51.21875 25.484375 53.609375 
Q 29.78125 56 35.6875 56 
Q 41.65625 56 45.828125 52.96875 
Q 50 49.953125 52 44.1875 
z
" id="DejaVuSans-109"/>
      <path d="M 18.109375 8.203125 
L 18.109375 -20.796875 
L 9.078125 -20.796875 
L 9.078125 54.6875 
L 18.109375 54.6875 
L 18.109375 46.390625 
Q 20.953125 51.265625 25.265625 53.625 
Q 29.59375 56 35.59375 56 
Q 45.5625 56 51.78125 48.09375 
Q 58.015625 40.1875 58.015625 27.296875 
Q 58.015625 14.40625 51.78125 6.484375 
Q 45.5625 -1.421875 35.59375 -1.421875 
Q 29.59375 -1.421875 25.265625 0.953125 
Q 20.953125 3.328125 18.109375 8.203125 
z
M 48.6875 27.296875 
Q 48.6875 37.203125 44.609375 42.84375 
Q 40.53125 48.484375 33.40625 48.484375 
Q 26.265625 48.484375 22.1875 42.84375 
Q 18.109375 37.203125 18.109375 27.296875 
Q 18.109375 17.390625 22.1875 11.75 
Q 26.265625 6.109375 33.40625 6.109375 
Q 40.53125 6.109375 44.609375 11.75 
Q 48.6875 17.390625 48.6875 27.296875 
z
" id="DejaVuSans-112"/>
      <path d="M 30.609375 48.390625 
Q 23.390625 48.390625 19.1875 42.75 
Q 14.984375 37.109375 14.984375 27.296875 
Q 14.984375 17.484375 19.15625 11.84375 
Q 23.34375 6.203125 30.609375 6.203125 
Q 37.796875 6.203125 41.984375 11.859375 
Q 46.1875 17.53125 46.1875 27.296875 
Q 46.1875 37.015625 41.984375 42.703125 
Q 37.796875 48.390625 30.609375 48.390625 
z
M 30.609375 56 
Q 42.328125 56 49.015625 48.375 
Q 55.71875 40.765625 55.71875 27.296875 
Q 55.71875 13.875 49.015625 6.21875 
Q 42.328125 -1.421875 30.609375 -1.421875 
Q 18.84375 -1.421875 12.171875 6.21875 
Q 5.515625 13.875 5.515625 27.296875 
Q 5.515625 40.765625 12.171875 48.375 
Q 18.84375 56 30.609375 56 
z
" id="DejaVuSans-111"/>
     </defs>
     <g transform="translate(245.298438 322.394687)scale(0.1 -0.1)">
      <use xlink:href="#DejaVuSans-84"/>
      <use x="44.083984" xlink:href="#DejaVuSans-101"/>
      <use x="105.607422" xlink:href="#DejaVuSans-109"/>
      <use x="203.019531" xlink:href="#DejaVuSans-112"/>
      <use x="266.496094" xlink:href="#DejaVuSans-111"/>
     </g>
    </g>
   </g>
   <g id="matplotlib.axis_2">
    <g id="ytick_1">
     <g id="line2d_9">
      <defs>
       <path d="M 0 0 
L -3.5 0 
" id="mcbaa15a1fa" style="stroke:#000000;stroke-width:0.8;"/>
      </defs>
      <g>
       <use style="stroke:#000000;stroke-width:0.8;" x="38.482813" xlink:href="#mcbaa15a1fa" y="284.38229"/>
      </g>
     </g>
     <g id="text_8">
      <!-- −1.0 -->
      <defs>
       <path d="M 10.59375 35.5 
L 73.1875 35.5 
L 73.1875 27.203125 
L 10.59375 27.203125 
z
" id="DejaVuSans-8722"/>
       <path d="M 10.6875 12.40625 
L 21 12.40625 
L 21 0 
L 10.6875 0 
z
" id="DejaVuSans-46"/>
      </defs>
      <g transform="translate(7.2 288.181509)scale(0.1 -0.1)">
       <use xlink:href="#DejaVuSans-8722"/>
       <use x="83.789062" xlink:href="#DejaVuSans-49"/>
       <use x="147.412109" xlink:href="#DejaVuSans-46"/>
       <use x="179.199219" xlink:href="#DejaVuSans-48"/>
      </g>
     </g>
    </g>
    <g id="ytick_2">
     <g id="line2d_10">
      <g>
       <use style="stroke:#000000;stroke-width:0.8;" x="38.482813" xlink:href="#mcbaa15a1fa" y="234.440366"/>
      </g>
     </g>
     <g id="text_9">
      <!-- −0.8 -->
      <defs>
       <path d="M 31.78125 34.625 
Q 24.75 34.625 20.71875 30.859375 
Q 16.703125 27.09375 16.703125 20.515625 
Q 16.703125 13.921875 20.71875 10.15625 
Q 24.75 6.390625 31.78125 6.390625 
Q 38.8125 6.390625 42.859375 10.171875 
Q 46.921875 13.96875 46.921875 20.515625 
Q 46.921875 27.09375 42.890625 30.859375 
Q 38.875 34.625 31.78125 34.625 
z
M 21.921875 38.8125 
Q 15.578125 40.375 12.03125 44.71875 
Q 8.5 49.078125 8.5 55.328125 
Q 8.5 64.0625 14.71875 69.140625 
Q 20.953125 74.21875 31.78125 74.21875 
Q 42.671875 74.21875 48.875 69.140625 
Q 55.078125 64.0625 55.078125 55.328125 
Q 55.078125 49.078125 51.53125 44.71875 
Q 48 40.375 41.703125 38.8125 
Q 48.828125 37.15625 52.796875 32.3125 
Q 56.78125 27.484375 56.78125 20.515625 
Q 56.78125 9.90625 50.3125 4.234375 
Q 43.84375 -1.421875 31.78125 -1.421875 
Q 19.734375 -1.421875 13.25 4.234375 
Q 6.78125 9.90625 6.78125 20.515625 
Q 6.78125 27.484375 10.78125 32.3125 
Q 14.796875 37.15625 21.921875 38.8125 
z
M 18.3125 54.390625 
Q 18.3125 48.734375 21.84375 45.5625 
Q 25.390625 42.390625 31.78125 42.390625 
Q 38.140625 42.390625 41.71875 45.5625 
Q 45.3125 48.734375 45.3125 54.390625 
Q 45.3125 60.0625 41.71875 63.234375 
Q 38.140625 66.40625 31.78125 66.40625 
Q 25.390625 66.40625 21.84375 63.234375 
Q 18.3125 60.0625 18.3125 54.390625 
z
" id="DejaVuSans-56"/>
      </defs>
      <g transform="translate(7.2 238.239585)scale(0.1 -0.1)">
       <use xlink:href="#DejaVuSans-8722"/>
       <use x="83.789062" xlink:href="#DejaVuSans-48"/>
       <use x="147.412109" xlink:href="#DejaVuSans-46"/>
       <use x="179.199219" xlink:href="#DejaVuSans-56"/>
      </g>
     </g>
    </g>
    <g id="ytick_3">
     <g id="line2d_11">
      <g>
       <use style="stroke:#000000;stroke-width:0.8;" x="38.482813" xlink:href="#mcbaa15a1fa" y="184.498442"/>
      </g>
     </g>
     <g id="text_10">
      <!-- −0.6 -->
      <g transform="translate(7.2 188.297661)scale(0.1 -0.1)">
       <use xlink:href="#DejaVuSans-8722"/>
       <use x="83.789062" xlink:href="#DejaVuSans-48"/>
       <use x="147.412109" xlink:href="#DejaVuSans-46"/>
       <use x="179.199219" xlink:href="#DejaVuSans-54"/>
      </g>
     </g>
    </g>
    <g id="ytick_4">
     <g id="line2d_12">
      <g>
       <use style="stroke:#000000;stroke-width:0.8;" x="38.482813" xlink:href="#mcbaa15a1fa" y="134.556518"/>
      </g>
     </g>
     <g id="text_11">
      <!-- −0.4 -->
      <g transform="translate(7.2 138.355737)scale(0.1 -0.1)">
       <use xlink:href="#DejaVuSans-8722"/>
       <use x="83.789062" xlink:href="#DejaVuSans-48"/>
       <use x="147.412109" xlink:href="#DejaVuSans-46"/>
       <use x="179.199219" xlink:href="#DejaVuSans-52"/>
      </g>
     </g>
    </g>
    <g id="ytick_5">
     <g id="line2d_13">
      <g>
       <use style="stroke:#000000;stroke-width:0.8;" x="38.482813" xlink:href="#mcbaa15a1fa" y="84.614594"/>
      </g>
     </g>
     <g id="text_12">
      <!-- −0.2 -->
      <g transform="translate(7.2 88.413813)scale(0.1 -0.1)">
       <use xlink:href="#DejaVuSans-8722"/>
       <use x="83.789062" xlink:href="#DejaVuSans-48"/>
       <use x="147.412109" xlink:href="#DejaVuSans-46"/>
       <use x="179.199219" xlink:href="#DejaVuSans-50"/>
      </g>
     </g>
    </g>
    <g id="ytick_6">
     <g id="line2d_14">
      <g>
       <use style="stroke:#000000;stroke-width:0.8;" x="38.482813" xlink:href="#mcbaa15a1fa" y="34.67267"/>
      </g>
     </g>
     <g id="text_13">
      <!-- 0.0 -->
      <g transform="translate(15.579688 38.471889)scale(0.1 -0.1)">
       <use xlink:href="#DejaVuSans-48"/>
       <use x="63.623047" xlink:href="#DejaVuSans-46"/>
       <use x="95.410156" xlink:href="#DejaVuSans-48"/>
      </g>
     </g>
    </g>
   </g>
   <g id="patch_3">
    <path d="M 38.482813 294.118125 
L 38.482813 22.318125 
" style="fill:none;stroke:#000000;stroke-linecap:square;stroke-linejoin:miter;stroke-width:0.8;"/>
   </g>
   <g id="patch_4">
    <path d="M 38.482813 294.118125 
L 484.882812 294.118125 
" style="fill:none;stroke:#000000;stroke-linecap:square;stroke-linejoin:miter;stroke-width:0.8;"/>
   </g>
   <g id="text_14">
    <!-- Tax_Total -->
    <defs>
     <path d="M 34.28125 27.484375 
Q 23.390625 27.484375 19.1875 25 
Q 14.984375 22.515625 14.984375 16.5 
Q 14.984375 11.71875 18.140625 8.90625 
Q 21.296875 6.109375 26.703125 6.109375 
Q 34.1875 6.109375 38.703125 11.40625 
Q 43.21875 16.703125 43.21875 25.484375 
L 43.21875 27.484375 
z
M 52.203125 31.203125 
L 52.203125 0 
L 43.21875 0 
L 43.21875 8.296875 
Q 40.140625 3.328125 35.546875 0.953125 
Q 30.953125 -1.421875 24.3125 -1.421875 
Q 15.921875 -1.421875 10.953125 3.296875 
Q 6 8.015625 6 15.921875 
Q 6 25.140625 12.171875 29.828125 
Q 18.359375 34.515625 30.609375 34.515625 
L 43.21875 34.515625 
L 43.21875 35.40625 
Q 43.21875 41.609375 39.140625 45 
Q 35.0625 48.390625 27.6875 48.390625 
Q 23 48.390625 18.546875 47.265625 
Q 14.109375 46.140625 10.015625 43.890625 
L 10.015625 52.203125 
Q 14.9375 54.109375 19.578125 55.046875 
Q 24.21875 56 28.609375 56 
Q 40.484375 56 46.34375 49.84375 
Q 52.203125 43.703125 52.203125 31.203125 
z
" id="DejaVuSans-97"/>
     <path d="M 54.890625 54.6875 
L 35.109375 28.078125 
L 55.90625 0 
L 45.3125 0 
L 29.390625 21.484375 
L 13.484375 0 
L 2.875 0 
L 24.125 28.609375 
L 4.6875 54.6875 
L 15.28125 54.6875 
L 29.78125 35.203125 
L 44.28125 54.6875 
z
" id="DejaVuSans-120"/>
     <path d="M 50.984375 -16.609375 
L 50.984375 -23.578125 
L -0.984375 -23.578125 
L -0.984375 -16.609375 
z
" id="DejaVuSans-95"/>
     <path d="M 18.3125 70.21875 
L 18.3125 54.6875 
L 36.8125 54.6875 
L 36.8125 47.703125 
L 18.3125 47.703125 
L 18.3125 18.015625 
Q 18.3125 11.328125 20.140625 9.421875 
Q 21.96875 7.515625 27.59375 7.515625 
L 36.8125 7.515625 
L 36.8125 0 
L 27.59375 0 
Q 17.1875 0 13.234375 3.875 
Q 9.28125 7.765625 9.28125 18.015625 
L 9.28125 47.703125 
L 2.6875 47.703125 
L 2.6875 54.6875 
L 9.28125 54.6875 
L 9.28125 70.21875 
z
" id="DejaVuSans-116"/>
     <path d="M 9.421875 75.984375 
L 18.40625 75.984375 
L 18.40625 0 
L 9.421875 0 
z
" id="DejaVuSans-108"/>
    </defs>
    <g transform="translate(234.768125 16.318125)scale(0.12 -0.12)">
     <use xlink:href="#DejaVuSans-84"/>
     <use x="44.583984" xlink:href="#DejaVuSans-97"/>
     <use x="105.863281" xlink:href="#DejaVuSans-120"/>
     <use x="165.042969" xlink:href="#DejaVuSans-95"/>
     <use x="215.042969" xlink:href="#DejaVuSans-84"/>
     <use x="259.126953" xlink:href="#DejaVuSans-111"/>
     <use x="320.308594" xlink:href="#DejaVuSans-116"/>
     <use x="359.517578" xlink:href="#DejaVuSans-97"/>
     <use x="420.796875" xlink:href="#DejaVuSans-108"/>
    </g>
   </g>
   <g id="legend_1">
    <g id="patch_5">
     <path d="M 491.882812 174.457188 
L 583.782812 174.457188 
Q 585.782812 174.457188 585.782812 172.457188 
L 585.782812 143.979063 
Q 585.782812 141.979063 583.782812 141.979063 
L 491.882812 141.979063 
Q 489.882812 141.979063 489.882812 143.979063 
L 489.882812 172.457188 
Q 489.882812 174.457188 491.882812 174.457188 
z
" style="fill:#ffffff;opacity:0.8;stroke:#cccccc;stroke-linejoin:miter;"/>
    </g>
    <g id="line2d_15">
     <path d="M 493.882812 150.0775 
L 513.882812 150.0775 
" style="fill:none;stroke:#000000;stroke-dasharray:3.7,1.6;stroke-dashoffset:0;"/>
    </g>
    <g id="line2d_16"/>
    <g id="text_15">
     <!-- Baseline -->
     <defs>
      <path d="M 19.671875 34.8125 
L 19.671875 8.109375 
L 35.5 8.109375 
Q 43.453125 8.109375 47.28125 11.40625 
Q 51.125 14.703125 51.125 21.484375 
Q 51.125 28.328125 47.28125 31.5625 
Q 43.453125 34.8125 35.5 34.8125 
z
M 19.671875 64.796875 
L 19.671875 42.828125 
L 34.28125 42.828125 
Q 41.5 42.828125 45.03125 45.53125 
Q 48.578125 48.25 48.578125 53.8125 
Q 48.578125 59.328125 45.03125 62.0625 
Q 41.5 64.796875 34.28125 64.796875 
z
M 9.8125 72.90625 
L 35.015625 72.90625 
Q 46.296875 72.90625 52.390625 68.21875 
Q 58.5 63.53125 58.5 54.890625 
Q 58.5 48.1875 55.375 44.234375 
Q 52.25 40.28125 46.1875 39.3125 
Q 53.46875 37.75 57.5 32.78125 
Q 61.53125 27.828125 61.53125 20.40625 
Q 61.53125 10.640625 54.890625 5.3125 
Q 48.25 0 35.984375 0 
L 9.8125 0 
z
" id="DejaVuSans-66"/>
      <path d="M 44.28125 53.078125 
L 44.28125 44.578125 
Q 40.484375 46.53125 36.375 47.5 
Q 32.28125 48.484375 27.875 48.484375 
Q 21.1875 48.484375 17.84375 46.4375 
Q 14.5 44.390625 14.5 40.28125 
Q 14.5 37.15625 16.890625 35.375 
Q 19.28125 33.59375 26.515625 31.984375 
L 29.59375 31.296875 
Q 39.15625 29.25 43.1875 25.515625 
Q 47.21875 21.78125 47.21875 15.09375 
Q 47.21875 7.46875 41.1875 3.015625 
Q 35.15625 -1.421875 24.609375 -1.421875 
Q 20.21875 -1.421875 15.453125 -0.5625 
Q 10.6875 0.296875 5.421875 2 
L 5.421875 11.28125 
Q 10.40625 8.6875 15.234375 7.390625 
Q 20.0625 6.109375 24.8125 6.109375 
Q 31.15625 6.109375 34.5625 8.28125 
Q 37.984375 10.453125 37.984375 14.40625 
Q 37.984375 18.0625 35.515625 20.015625 
Q 33.0625 21.96875 24.703125 23.78125 
L 21.578125 24.515625 
Q 13.234375 26.265625 9.515625 29.90625 
Q 5.8125 33.546875 5.8125 39.890625 
Q 5.8125 47.609375 11.28125 51.796875 
Q 16.75 56 26.8125 56 
Q 31.78125 56 36.171875 55.265625 
Q 40.578125 54.546875 44.28125 53.078125 
z
" id="DejaVuSans-115"/>
      <path d="M 9.421875 54.6875 
L 18.40625 54.6875 
L 18.40625 0 
L 9.421875 0 
z
M 9.421875 75.984375 
L 18.40625 75.984375 
L 18.40625 64.59375 
L 9.421875 64.59375 
z
" id="DejaVuSans-105"/>
      <path d="M 54.890625 33.015625 
L 54.890625 0 
L 45.90625 0 
L 45.90625 32.71875 
Q 45.90625 40.484375 42.875 44.328125 
Q 39.84375 48.1875 33.796875 48.1875 
Q 26.515625 48.1875 22.3125 43.546875 
Q 18.109375 38.921875 18.109375 30.90625 
L 18.109375 0 
L 9.078125 0 
L 9.078125 54.6875 
L 18.109375 54.6875 
L 18.109375 46.1875 
Q 21.34375 51.125 25.703125 53.5625 
Q 30.078125 56 35.796875 56 
Q 45.21875 56 50.046875 50.171875 
Q 54.890625 44.34375 54.890625 33.015625 
z
" id="DejaVuSans-110"/>
     </defs>
     <g transform="translate(521.882812 153.5775)scale(0.1 -0.1)">
      <use xlink:href="#DejaVuSans-66"/>
      <use x="68.603516" xlink:href="#DejaVuSans-97"/>
      <use x="129.882812" xlink:href="#DejaVuSans-115"/>
      <use x="181.982422" xlink:href="#DejaVuSans-101"/>
      <use x="243.505859" xlink:href="#DejaVuSans-108"/>
      <use x="271.289062" xlink:href="#DejaVuSans-105"/>
      <use x="299.072266" xlink:href="#DejaVuSans-110"/>
      <use x="362.451172" xlink:href="#DejaVuSans-101"/>
     </g>
    </g>
    <g id="line2d_17">
     <path d="M 493.882812 164.857188 
L 513.882812 164.857188 
" style="fill:none;stroke:#1f77b4;stroke-linecap:square;stroke-width:1.5;"/>
    </g>
    <g id="line2d_18"/>
    <g id="text_16">
     <!-- $\Uparrow \beta$ (shape) -->
     <defs>
      <path d="M 36.765625 58.59375 
L 36.765625 0 
L 30.90625 0 
L 30.90625 52.734375 
L 26.421875 48.140625 
L 20.5625 54 
L 39.703125 73.25 
L 44.09375 73.25 
L 63.328125 54 
L 57.46875 48.140625 
L 52.875 52.734375 
L 52.875 0 
L 47.015625 0 
L 47.015625 58.59375 
L 41.9375 63.671875 
z
" id="DejaVuSans-8657"/>
      <path d="M 13.625 3.375 
L 8.9375 -20.796875 
L -0.09375 -20.796875 
L 14.5 54.34375 
Q 18.84375 76.609375 39.65625 76.609375 
Q 60.75 76.609375 57.171875 57.8125 
Q 54.734375 44.4375 45.21875 39.546875 
Q 58.015625 35.15625 55.515625 22.125 
Q 51.125 -1.078125 27.484375 -1.03125 
Q 17.140625 -0.984375 13.625 3.375 
z
M 15.921875 15.09375 
Q 19.671875 6.59375 29.296875 6.640625 
Q 43.359375 6.640625 46.34375 21.96875 
Q 49.03125 35.75 26.171875 34.671875 
L 27.78125 42.96875 
Q 45.453125 42.671875 48.53125 58.59375 
Q 50.640625 69.34375 39.203125 69.28125 
Q 26.421875 69.28125 23.484375 54.046875 
z
" id="DejaVuSans-Oblique-946"/>
      <path id="DejaVuSans-32"/>
      <path d="M 31 75.875 
Q 24.46875 64.65625 21.28125 53.65625 
Q 18.109375 42.671875 18.109375 31.390625 
Q 18.109375 20.125 21.3125 9.0625 
Q 24.515625 -2 31 -13.1875 
L 23.1875 -13.1875 
Q 15.875 -1.703125 12.234375 9.375 
Q 8.59375 20.453125 8.59375 31.390625 
Q 8.59375 42.28125 12.203125 53.3125 
Q 15.828125 64.359375 23.1875 75.875 
z
" id="DejaVuSans-40"/>
      <path d="M 54.890625 33.015625 
L 54.890625 0 
L 45.90625 0 
L 45.90625 32.71875 
Q 45.90625 40.484375 42.875 44.328125 
Q 39.84375 48.1875 33.796875 48.1875 
Q 26.515625 48.1875 22.3125 43.546875 
Q 18.109375 38.921875 18.109375 30.90625 
L 18.109375 0 
L 9.078125 0 
L 9.078125 75.984375 
L 18.109375 75.984375 
L 18.109375 46.1875 
Q 21.34375 51.125 25.703125 53.5625 
Q 30.078125 56 35.796875 56 
Q 45.21875 56 50.046875 50.171875 
Q 54.890625 44.34375 54.890625 33.015625 
z
" id="DejaVuSans-104"/>
      <path d="M 8.015625 75.875 
L 15.828125 75.875 
Q 23.140625 64.359375 26.78125 53.3125 
Q 30.421875 42.28125 30.421875 31.390625 
Q 30.421875 20.453125 26.78125 9.375 
Q 23.140625 -1.703125 15.828125 -13.1875 
L 8.015625 -13.1875 
Q 14.5 -2 17.703125 9.0625 
Q 20.90625 20.125 20.90625 31.390625 
Q 20.90625 42.671875 17.703125 53.65625 
Q 14.5 64.65625 8.015625 75.875 
z
" id="DejaVuSans-41"/>
     </defs>
     <g transform="translate(521.882812 168.357188)scale(0.1 -0.1)">
      <use transform="translate(19.482422 0.390625)" xlink:href="#DejaVuSans-8657"/>
      <use transform="translate(122.753906 0.390625)" xlink:href="#DejaVuSans-Oblique-946"/>
      <use transform="translate(186.572266 0.390625)" xlink:href="#DejaVuSans-32"/>
      <use transform="translate(218.359375 0.390625)" xlink:href="#DejaVuSans-40"/>
      <use transform="translate(257.373047 0.390625)" xlink:href="#DejaVuSans-115"/>
      <use transform="translate(309.472656 0.390625)" xlink:href="#DejaVuSans-104"/>
      <use transform="translate(372.851562 0.390625)" xlink:href="#DejaVuSans-97"/>
      <use transform="translate(434.130859 0.390625)" xlink:href="#DejaVuSans-112"/>
      <use transform="translate(497.607422 0.390625)" xlink:href="#DejaVuSans-101"/>
      <use transform="translate(559.130859 0.390625)" xlink:href="#DejaVuSans-41"/>
     </g>
    </g>
   </g>
  </g>
 </g>
 <defs>
  <clipPath id="pb00633dd0e">
   <rect height="271.8" width="446.4" x="38.482813" y="22.318125"/>
  </clipPath>
 </defs>
</svg>
