<?xml version="1.0" encoding="utf-8" standalone="no"?>
<!DOCTYPE svg PUBLIC "-//W3C//DTD SVG 1.1//EN"
  "http://www.w3.org/Graphics/SVG/1.1/DTD/svg11.dtd">
<!-- Created with matplotlib (https://matplotlib.org/) -->
<svg height="331.674375pt" version="1.1" viewBox="0 0 587.7875 331.674375" width="587.7875pt" xmlns="http://www.w3.org/2000/svg" xmlns:xlink="http://www.w3.org/1999/xlink">
 <defs>
  <style type="text/css">
*{stroke-linecap:butt;stroke-linejoin:round;}
  </style>
 </defs>
 <g id="figure_1">
  <g id="patch_1">
   <path d="M 0 331.674375 
L 587.7875 331.674375 
L 587.7875 0 
L 0 0 
z
" style="fill:#ffffff;"/>
  </g>
  <g id="axes_1">
   <g id="patch_2">
    <path d="M 33.2875 294.118125 
L 479.6875 294.118125 
L 479.6875 22.318125 
L 33.2875 22.318125 
z
" style="fill:#ffffff;"/>
   </g>
   <g id="line2d_1">
    <path clip-path="url(#p2872898897)" d="M 53.578409 281.645569 
L 54.304381 280.699313 
L 55.030352 280.871457 
L 55.756324 281.529299 
L 57.208268 281.324345 
L 57.934239 281.163715 
L 60.112154 281.183916 
L 60.838126 281.453223 
L 61.564098 281.023172 
L 62.29007 281.501321 
L 63.742013 281.76358 
L 64.467985 281.536739 
L 65.193956 280.57908 
L 65.919928 280.951637 
L 66.6459 281.517742 
L 67.371871 281.454278 
L 68.097843 281.515337 
L 68.823815 281.428352 
L 69.549787 280.979007 
L 70.275758 281.297076 
L 71.00173 281.04147 
L 71.727702 281.508745 
L 72.453673 281.665038 
L 73.179645 281.495057 
L 73.905617 280.905168 
L 74.631588 281.226029 
L 75.35756 281.210985 
L 76.083532 281.600219 
L 76.809504 281.570591 
L 77.535475 280.944916 
L 78.987419 281.32395 
L 79.71339 281.236836 
L 80.439362 281.47944 
L 81.891305 281.185747 
L 82.617277 281.566565 
L 83.343249 281.174201 
L 84.069221 281.455535 
L 85.521164 281.174374 
L 86.247136 281.601028 
L 87.699079 281.272792 
L 88.425051 281.423843 
L 89.151023 281.32546 
L 89.876994 280.705693 
L 92.054909 281.604809 
L 92.780881 281.543843 
L 93.506853 281.227313 
L 96.41074 281.690853 
L 97.136711 281.206823 
L 97.862683 281.492245 
L 98.588655 280.866725 
L 99.314626 281.211153 
L 100.040598 281.356453 
L 100.76657 281.211214 
L 101.492541 281.481063 
L 102.218513 281.288789 
L 103.670457 281.528884 
L 104.396428 281.260337 
L 105.848372 281.452311 
L 106.574343 281.325024 
L 107.300315 281.367314 
L 108.026287 281.105704 
L 108.752258 281.155581 
L 110.204202 281.530778 
L 110.930174 280.904895 
L 111.656145 281.286191 
L 112.382117 281.154002 
L 113.108089 281.398379 
L 113.83406 281.027943 
L 114.560032 281.161578 
L 115.286004 281.622549 
L 116.737947 281.156747 
L 118.189891 281.203616 
L 118.915862 280.96357 
L 119.641834 280.167023 
L 120.367806 280.653363 
L 121.093777 281.451087 
L 121.819749 281.181034 
L 122.545721 281.171453 
L 123.271693 281.416588 
L 123.997664 280.969363 
L 124.723636 280.962797 
L 125.449608 281.410492 
L 126.175579 281.112507 
L 126.901551 281.167698 
L 127.627523 281.054619 
L 128.353494 280.775698 
L 129.079466 281.104061 
L 129.805438 280.554899 
L 130.53141 281.100166 
L 131.983353 280.916495 
L 132.709325 281.202451 
L 133.435296 280.444807 
L 134.161268 281.042365 
L 134.88724 280.297169 
L 135.613211 281.099559 
L 137.065155 280.337166 
L 137.791127 280.207473 
L 139.24307 281.075531 
L 139.969042 281.047255 
L 140.695013 280.45303 
L 141.420985 280.655294 
L 142.146957 280.980247 
L 142.872929 281.141094 
L 143.5989 281.118619 
L 144.324872 280.894291 
L 145.050844 281.427622 
L 145.776815 280.806203 
L 146.502787 280.937109 
L 147.228759 280.947811 
L 147.95473 280.295492 
L 148.680702 281.052908 
L 149.406674 280.508561 
L 150.132646 280.804571 
L 150.858617 280.829437 
L 151.584589 280.695932 
L 152.310561 280.889686 
L 153.036532 280.837227 
L 153.762504 280.66927 
L 154.488476 281.219312 
L 155.214447 280.738548 
L 156.666391 280.841184 
L 157.392363 280.480159 
L 158.118334 280.695859 
L 158.844306 281.12726 
L 159.570278 280.548506 
L 160.296249 281.160416 
L 161.022221 280.86545 
L 161.748193 281.079247 
L 162.474164 281.502158 
L 163.200136 281.052234 
L 163.926108 281.190139 
L 165.378051 280.842086 
L 166.104023 281.018166 
L 167.555966 280.71668 
L 168.281938 280.79142 
L 169.733882 281.127977 
L 172.637768 280.966517 
L 173.36374 281.004394 
L 174.089712 280.827678 
L 174.815683 281.231027 
L 176.267627 280.809263 
L 176.993599 281.06945 
L 177.71957 280.863916 
L 178.445542 280.950906 
L 179.171514 280.913046 
L 179.897485 281.212848 
L 181.349429 280.777246 
L 182.801372 281.339673 
L 184.253316 281.051855 
L 185.705259 280.55223 
L 186.431231 281.012678 
L 187.157202 281.16281 
L 187.883174 280.850704 
L 188.609146 281.249692 
L 189.335117 280.665141 
L 192.239004 281.246346 
L 192.964976 280.927397 
L 193.690948 281.226311 
L 194.416919 281.176246 
L 195.142891 280.93224 
L 195.868863 280.272654 
L 196.594835 281.055066 
L 197.320806 281.205972 
L 198.046778 280.558199 
L 198.77275 280.752707 
L 199.498721 280.615366 
L 200.224693 280.305063 
L 200.950665 280.884259 
L 202.402608 281.008748 
L 203.12858 280.948342 
L 203.854552 280.768817 
L 205.306495 280.862313 
L 206.032467 280.507128 
L 206.758438 280.842225 
L 208.210382 281.025683 
L 208.936353 281.24862 
L 209.662325 281.08777 
L 210.388297 280.530365 
L 211.114269 280.830675 
L 211.84024 280.715065 
L 212.566212 280.44422 
L 213.292184 280.950524 
L 214.018155 280.363283 
L 214.744127 280.899397 
L 215.470099 280.616648 
L 216.19607 279.872646 
L 216.922042 280.57887 
L 218.373986 280.900888 
L 219.099957 280.782123 
L 219.825929 280.80121 
L 220.551901 280.488733 
L 221.277872 280.561402 
L 222.003844 280.764176 
L 222.729816 280.343039 
L 223.455788 280.990214 
L 224.181759 280.885661 
L 224.907731 280.950579 
L 227.085646 280.48296 
L 227.811618 280.755043 
L 228.537589 280.775846 
L 229.263561 280.600028 
L 229.989533 280.649722 
L 230.715505 280.857857 
L 232.167448 280.443494 
L 232.89342 280.61613 
L 233.619391 280.473411 
L 234.345363 279.942159 
L 235.797306 280.282088 
L 236.523278 280.606826 
L 237.24925 280.316603 
L 237.975222 280.455719 
L 238.701193 280.393612 
L 239.427165 279.555199 
L 240.153137 280.504327 
L 240.879108 280.39047 
L 241.60508 279.523633 
L 242.331052 280.116734 
L 243.057023 280.044457 
L 243.782995 280.134375 
L 244.508967 280.408901 
L 245.234939 280.153235 
L 245.96091 280.345473 
L 247.412854 280.245635 
L 248.138825 280.311713 
L 248.864797 280.227039 
L 249.590769 279.609259 
L 250.316741 279.812741 
L 251.768684 280.401959 
L 252.494656 279.898503 
L 253.220627 279.931287 
L 254.672571 280.357705 
L 255.398542 279.990964 
L 256.124514 279.752677 
L 257.576458 280.559661 
L 258.302429 279.540219 
L 259.028401 279.492864 
L 259.754373 280.048097 
L 261.206316 279.82438 
L 261.932288 280.537625 
L 262.658259 279.777344 
L 263.384231 279.592452 
L 264.110203 279.686687 
L 264.836175 279.896569 
L 265.562146 279.80969 
L 266.288118 280.038374 
L 267.01409 279.649165 
L 267.740061 280.005665 
L 268.466033 279.945067 
L 269.192005 279.658878 
L 269.917977 280.045148 
L 271.36992 279.672721 
L 272.821863 279.965585 
L 274.273807 279.596177 
L 274.999778 278.623967 
L 275.72575 279.105308 
L 276.451722 279.83652 
L 277.177694 279.445168 
L 277.903665 280.014292 
L 278.629637 280.006487 
L 280.08158 279.409035 
L 280.807552 279.480322 
L 281.533524 279.778538 
L 282.259495 279.109781 
L 282.985467 279.787749 
L 283.711439 279.704656 
L 285.163382 278.096976 
L 285.889354 279.15166 
L 286.615326 279.481224 
L 287.341297 279.612813 
L 288.067269 279.213336 
L 288.793241 279.454741 
L 289.519212 279.450635 
L 290.245184 279.084752 
L 290.971156 279.558264 
L 291.697128 279.41372 
L 292.423099 279.027778 
L 293.149071 279.193556 
L 293.875043 279.166018 
L 294.601014 279.746344 
L 295.326986 278.678894 
L 296.052958 279.662169 
L 296.77893 279.011957 
L 297.504901 278.712005 
L 298.230873 279.487648 
L 298.956845 279.173671 
L 299.682816 279.017109 
L 301.13476 279.21578 
L 301.860731 279.10941 
L 302.586703 279.13682 
L 303.312675 279.524559 
L 304.038647 278.650855 
L 305.49059 278.709481 
L 306.216562 278.91185 
L 306.942533 278.832078 
L 307.668505 279.103143 
L 308.394477 279.520527 
L 309.120448 278.659446 
L 309.84642 278.174458 
L 310.572392 278.005052 
L 311.298364 278.529783 
L 312.024335 278.017809 
L 312.750307 278.763808 
L 313.476279 278.192479 
L 314.20225 278.266633 
L 314.928222 278.748676 
L 315.654194 278.807048 
L 316.380165 278.977221 
L 317.106137 278.292265 
L 317.832109 278.720236 
L 318.558081 277.67587 
L 319.284052 278.874074 
L 320.010024 278.8096 
L 320.735996 278.601732 
L 321.461967 278.259626 
L 322.187939 278.400806 
L 322.913911 278.137962 
L 324.365854 278.025559 
L 325.091826 278.085906 
L 325.817798 277.615655 
L 326.543769 277.624811 
L 327.269741 278.33823 
L 327.995713 277.891803 
L 328.721684 278.109387 
L 329.447656 277.325989 
L 330.173628 278.153215 
L 330.8996 278.36653 
L 331.625571 277.433133 
L 333.077515 277.822897 
L 333.803486 277.679362 
L 334.529458 276.898434 
L 335.25543 277.728553 
L 335.981401 278.03206 
L 336.707373 277.491588 
L 337.433345 278.234764 
L 338.159317 277.291646 
L 338.885288 277.443785 
L 339.61126 277.321882 
L 340.337232 278.012949 
L 341.063203 277.11524 
L 341.789175 276.901138 
L 342.515147 277.749124 
L 343.241118 277.03031 
L 343.96709 277.680012 
L 344.693062 276.733794 
L 345.419034 277.171593 
L 346.145005 277.157811 
L 346.870977 276.61313 
L 347.596949 276.324094 
L 349.048892 277.309182 
L 349.774864 276.671944 
L 351.226807 276.343429 
L 351.952779 276.938547 
L 352.678751 276.995169 
L 353.404722 276.541127 
L 354.130694 277.156007 
L 354.856666 277.046982 
L 355.582637 276.28128 
L 357.034581 276.324982 
L 359.212496 275.231649 
L 359.938468 276.202185 
L 360.664439 275.566055 
L 361.390411 276.327213 
L 362.116383 275.901106 
L 362.842354 276.062999 
L 363.568326 275.343963 
L 364.294298 275.781385 
L 365.02027 274.954095 
L 366.472213 275.167247 
L 367.198185 275.7147 
L 367.924156 275.08708 
L 368.650128 276.22734 
L 369.3761 275.772493 
L 370.102071 275.586159 
L 370.828043 274.518354 
L 371.554015 275.336086 
L 372.279987 275.059884 
L 373.73193 275.216333 
L 374.457902 275.477083 
L 375.183873 275.352878 
L 375.909845 274.652949 
L 377.361789 274.612676 
L 378.08776 274.288671 
L 378.813732 274.101634 
L 379.539704 273.588507 
L 380.265675 274.891678 
L 380.991647 274.353223 
L 381.717619 274.126231 
L 382.44359 274.291933 
L 383.169562 273.233877 
L 383.895534 273.797222 
L 384.621506 273.458698 
L 386.799421 274.328151 
L 387.525392 273.384976 
L 388.251364 273.805705 
L 388.977336 272.854569 
L 389.703307 273.477353 
L 390.429279 273.814079 
L 391.155251 272.70125 
L 391.881223 273.638471 
L 392.607194 273.618843 
L 393.333166 272.506009 
L 394.059138 272.782209 
L 394.785109 272.543974 
L 395.511081 272.665976 
L 396.237053 272.544978 
L 396.963024 272.970968 
L 397.688996 271.3564 
L 398.414968 272.45078 
L 399.14094 272.338889 
L 399.866911 272.426136 
L 400.592883 272.182926 
L 401.318855 272.582595 
L 402.044826 271.456402 
L 402.770798 271.60644 
L 403.49677 271.043569 
L 404.222742 270.845084 
L 404.948713 271.608975 
L 405.674685 270.891961 
L 406.400657 271.335714 
L 407.126628 272.330037 
L 407.8526 271.351982 
L 408.578572 271.445856 
L 409.304543 271.320394 
L 410.756487 269.85128 
L 411.482459 270.682898 
L 412.20843 270.529678 
L 412.934402 270.512026 
L 413.660374 269.116715 
L 414.386345 270.562518 
L 415.112317 269.657128 
L 415.838289 269.829085 
L 416.56426 268.911169 
L 417.290232 269.258389 
L 418.016204 269.45746 
L 418.742176 269.516028 
L 419.468147 268.503447 
L 420.194119 268.322208 
L 420.920091 269.28852 
L 421.646062 268.209131 
L 422.372034 267.975195 
L 423.098006 268.973939 
L 423.823977 268.016989 
L 424.549949 267.824026 
L 425.275921 267.04292 
L 426.001893 268.314959 
L 426.727864 268.570899 
L 427.453836 268.203009 
L 428.179808 266.664515 
L 428.905779 267.870391 
L 429.631751 266.104211 
L 430.357723 267.484042 
L 431.809666 266.894641 
L 432.535638 267.322061 
L 433.26161 266.530625 
L 433.987581 267.108995 
L 434.713553 266.313119 
L 435.439525 265.118862 
L 436.165496 265.541683 
L 436.891468 265.475855 
L 437.61744 266.130055 
L 439.069383 264.32526 
L 439.795355 264.098886 
L 440.521327 265.283092 
L 441.247298 265.578876 
L 441.97327 264.545519 
L 442.699242 264.348606 
L 443.425213 264.636822 
L 444.151185 264.096973 
L 444.877157 264.738703 
L 445.603129 264.276605 
L 446.3291 263.324434 
L 447.055072 264.407094 
L 447.781044 263.024767 
L 448.507015 264.310297 
L 449.232987 262.863371 
L 449.958959 263.364356 
L 450.68493 262.927829 
L 451.410902 262.788673 
L 452.136874 262.388769 
L 452.862846 262.664492 
L 453.588817 261.153829 
L 454.314789 261.629219 
L 455.040761 262.255205 
L 455.766732 260.983327 
L 456.492704 261.691655 
L 457.218676 262.188277 
L 457.944648 260.842101 
L 458.670619 261.171951 
L 459.396591 258.691369 
L 459.396591 258.691369 
" style="fill:none;stroke:#1f77b4;stroke-linecap:square;stroke-width:1.5;"/>
   </g>
   <g id="line2d_2">
    <path clip-path="url(#p2872898897)" d="M 53.578409 245.250219 
L 55.030352 142.000209 
L 55.756324 203.348343 
L 56.482296 223.876919 
L 57.208268 249.729068 
L 57.934239 250.352887 
L 58.660211 222.701828 
L 59.386183 238.39037 
L 60.112154 179.132437 
L 60.838126 221.353356 
L 61.564098 221.085768 
L 62.29007 214.772517 
L 63.016041 243.456907 
L 63.742013 186.159739 
L 64.467985 210.563314 
L 65.193956 227.461096 
L 65.919928 136.527783 
L 66.6459 217.724606 
L 67.371871 163.654194 
L 68.097843 140.726 
L 68.823815 240.362782 
L 69.549787 180.603038 
L 70.275758 187.14298 
L 71.00173 231.975041 
L 71.727702 219.436059 
L 72.453673 153.296487 
L 73.179645 131.473966 
L 73.905617 227.159276 
L 74.631588 186.673355 
L 75.35756 128.555149 
L 76.083532 217.070351 
L 76.809504 230.040581 
L 77.535475 212.280239 
L 78.261447 147.286417 
L 78.987419 164.20914 
L 79.71339 230.618975 
L 80.439362 247.489604 
L 81.165334 244.272882 
L 81.891305 246.334167 
L 82.617277 230.046717 
L 83.343249 173.551332 
L 84.069221 207.760812 
L 84.795192 250.741582 
L 85.521164 252.422027 
L 86.247136 168.328392 
L 86.973107 199.100682 
L 87.699079 155.71663 
L 88.425051 186.653642 
L 89.151023 241.685606 
L 89.876994 200.798771 
L 90.602966 205.423533 
L 91.328938 235.052889 
L 92.054909 232.336356 
L 92.780881 234.158245 
L 93.506853 233.024886 
L 94.232824 160.084469 
L 94.958796 141.426588 
L 95.684768 209.838992 
L 96.41074 244.06663 
L 97.136711 245.116065 
L 97.862683 187.026986 
L 98.588655 227.678554 
L 99.314626 229.241723 
L 100.040598 155.840777 
L 100.76657 138.828963 
L 101.492541 239.77842 
L 102.218513 237.352013 
L 102.944485 248.165104 
L 103.670457 245.145258 
L 104.396428 173.35199 
L 105.1224 157.485896 
L 105.848372 233.303549 
L 106.574343 245.974475 
L 107.300315 250.908378 
L 108.026287 251.693788 
L 108.752258 231.03586 
L 109.47823 224.496167 
L 110.204202 239.462742 
L 110.930174 244.769516 
L 111.656145 178.004523 
L 112.382117 199.228358 
L 113.108089 254.539813 
L 113.83406 257.178562 
L 114.560032 171.794514 
L 115.286004 136.405633 
L 116.737947 228.500526 
L 117.463919 234.479203 
L 118.189891 212.248687 
L 118.915862 223.139382 
L 119.641834 162.734464 
L 120.367806 131.3224 
L 121.093777 232.7556 
L 121.819749 242.776826 
L 122.545721 181.657137 
L 123.271693 220.12792 
L 123.997664 242.400573 
L 124.723636 210.313537 
L 125.449608 243.865886 
L 126.175579 249.087874 
L 126.901551 167.115135 
L 127.627523 216.940646 
L 128.353494 187.662472 
L 129.079466 200.126064 
L 129.805438 243.162667 
L 130.53141 234.620597 
L 131.257381 249.140948 
L 131.983353 251.59407 
L 132.709325 232.708898 
L 133.435296 244.182412 
L 134.88724 126.131876 
L 135.613211 236.666813 
L 136.339183 247.197953 
L 137.065155 251.203701 
L 137.791127 259.485834 
L 138.517098 244.202707 
L 139.24307 223.587367 
L 139.969042 180.986184 
L 141.420985 250.41641 
L 142.146957 253.0256 
L 142.872929 237.651189 
L 143.5989 226.367677 
L 144.324872 248.72319 
L 145.050844 248.131153 
L 145.776815 165.727718 
L 146.502787 123.328574 
L 147.228759 234.921513 
L 147.95473 246.834541 
L 148.680702 237.078806 
L 150.132646 210.632914 
L 150.858617 226.794119 
L 151.584589 247.095088 
L 152.310561 229.982798 
L 153.036532 234.190592 
L 153.762504 236.163361 
L 154.488476 247.290707 
L 155.214447 255.453674 
L 155.940419 237.762204 
L 156.666391 240.747299 
L 157.392363 239.270687 
L 158.118334 167.682024 
L 158.844306 192.510574 
L 159.570278 241.04181 
L 160.296249 249.622444 
L 161.022221 246.122353 
L 161.748193 257.516912 
L 162.474164 259.210202 
L 163.200136 258.339345 
L 163.926108 252.785111 
L 164.65208 194.015979 
L 165.378051 210.066479 
L 166.104023 160.593368 
L 167.555966 252.423807 
L 168.281938 245.922718 
L 169.00791 217.654436 
L 169.733882 205.547523 
L 170.459853 226.525362 
L 171.185825 223.495988 
L 171.911797 242.525606 
L 172.637768 243.212734 
L 173.36374 230.449641 
L 174.089712 239.269996 
L 174.815683 206.55024 
L 175.541655 153.088526 
L 176.267627 127.533514 
L 176.993599 227.47891 
L 177.71957 244.711067 
L 178.445542 158.997002 
L 179.171514 193.017854 
L 179.897485 247.851025 
L 180.623457 225.94052 
L 182.0754 249.801809 
L 182.801372 249.036293 
L 183.527344 228.263376 
L 184.253316 160.327654 
L 184.979287 218.793235 
L 185.705259 188.721051 
L 186.431231 135.580842 
L 187.157202 203.10951 
L 187.883174 166.702474 
L 188.609146 154.073637 
L 190.061089 247.350201 
L 190.787061 240.355663 
L 191.513033 236.379852 
L 192.239004 181.839892 
L 192.964976 144.581594 
L 193.690948 194.853997 
L 194.416919 226.337104 
L 195.142891 166.213455 
L 195.868863 124.233597 
L 196.594835 126.857225 
L 197.320806 194.491532 
L 198.046778 223.52286 
L 198.77275 170.964806 
L 199.498721 159.295091 
L 200.224693 204.967902 
L 200.950665 174.845187 
L 201.676636 224.113563 
L 202.402608 229.007325 
L 203.12858 229.343948 
L 203.854552 237.789484 
L 204.580523 187.688177 
L 205.306495 227.418802 
L 206.032467 248.206532 
L 206.758438 225.811021 
L 207.48441 184.05229 
L 208.210382 161.910376 
L 208.936353 238.581157 
L 209.662325 249.431425 
L 210.388297 221.053371 
L 211.114269 230.571 
L 211.84024 223.585631 
L 212.566212 223.96766 
L 213.292184 199.401422 
L 214.018155 222.096624 
L 214.744127 237.747985 
L 215.470099 226.122608 
L 216.922042 237.847641 
L 217.648014 182.852351 
L 218.373986 224.822833 
L 219.099957 249.056832 
L 219.825929 219.783265 
L 220.551901 172.715744 
L 221.277872 222.406834 
L 222.003844 225.186718 
L 222.729816 216.884951 
L 223.455788 242.462627 
L 224.181759 223.206223 
L 224.907731 218.109763 
L 225.633703 166.399986 
L 226.359674 198.122192 
L 227.085646 217.97837 
L 227.811618 249.626689 
L 228.537589 227.606396 
L 229.263561 234.459746 
L 229.989533 222.667079 
L 230.715505 234.746532 
L 231.441476 236.575025 
L 232.167448 212.656438 
L 232.89342 228.908238 
L 233.619391 171.968173 
L 234.345363 162.205618 
L 235.071335 211.042338 
L 235.797306 244.517403 
L 236.523278 231.174657 
L 237.24925 223.008265 
L 237.975222 205.986219 
L 238.701193 234.904744 
L 239.427165 139.573211 
L 240.153137 174.148745 
L 240.879108 241.507927 
L 241.60508 160.099749 
L 242.331052 172.102964 
L 243.057023 228.045072 
L 243.782995 176.564009 
L 244.508967 204.148981 
L 245.234939 149.276305 
L 245.96091 139.239363 
L 246.686882 199.053096 
L 247.412854 226.404893 
L 248.138825 223.278806 
L 248.864797 221.86516 
L 249.590769 177.660775 
L 250.316741 146.994868 
L 251.042712 216.966161 
L 251.768684 221.375123 
L 252.494656 155.732491 
L 253.220627 222.513111 
L 253.946599 161.725323 
L 254.672571 137.581328 
L 255.398542 198.833942 
L 256.124514 164.804619 
L 256.850486 147.439379 
L 257.576458 224.602611 
L 258.302429 173.731024 
L 259.028401 180.807236 
L 260.480344 237.108524 
L 261.206316 167.121783 
L 261.932288 212.358419 
L 262.658259 221.819751 
L 263.384231 195.281297 
L 264.110203 230.651847 
L 264.836175 221.421985 
L 265.562146 216.570432 
L 266.288118 218.86408 
L 267.01409 217.715536 
L 267.740061 168.828132 
L 268.466033 172.762706 
L 269.192005 192.824413 
L 269.917977 221.953363 
L 270.643948 212.329802 
L 271.36992 208.17006 
L 272.095892 227.068444 
L 272.821863 235.354805 
L 273.547835 224.645805 
L 274.273807 245.159196 
L 274.999778 222.473573 
L 275.72575 178.987823 
L 276.451722 202.57983 
L 277.177694 162.205174 
L 277.903665 173.069304 
L 278.629637 205.453954 
L 279.355609 173.235334 
L 280.08158 205.337176 
L 280.807552 157.539107 
L 281.533524 153.642092 
L 282.259495 174.067382 
L 282.985467 207.397106 
L 283.711439 230.847639 
L 285.163382 235.760801 
L 285.889354 240.473492 
L 286.615326 224.153858 
L 287.341297 236.374613 
L 288.067269 223.427777 
L 288.793241 232.303436 
L 289.519212 222.686924 
L 290.245184 232.884785 
L 290.971156 240.841154 
L 291.697128 242.527959 
L 292.423099 243.473393 
L 293.149071 248.537893 
L 293.875043 227.932896 
L 294.601014 238.947608 
L 295.326986 162.366552 
L 296.052958 201.583828 
L 296.77893 223.751626 
L 297.504901 227.30054 
L 298.230873 248.978472 
L 298.956845 247.744705 
L 299.682816 218.752886 
L 300.408788 158.181446 
L 301.13476 183.863924 
L 301.860731 129.393217 
L 302.586703 130.002855 
L 303.312675 168.985666 
L 304.038647 227.433368 
L 304.764618 232.6225 
L 305.49059 240.656864 
L 306.216562 230.231152 
L 306.942533 223.443435 
L 307.668505 215.544635 
L 308.394477 234.748321 
L 309.120448 238.715298 
L 309.84642 236.424704 
L 310.572392 219.056036 
L 311.298364 215.371661 
L 312.024335 145.102115 
L 312.750307 204.336149 
L 313.476279 241.327943 
L 314.928222 207.677391 
L 315.654194 236.266504 
L 316.380165 172.733861 
L 317.106137 135.045725 
L 317.832109 211.064183 
L 318.558081 237.223873 
L 319.284052 242.131452 
L 320.010024 183.087364 
L 320.735996 136.69795 
L 321.461967 155.824867 
L 322.187939 219.537267 
L 322.913911 200.310363 
L 323.639883 212.800148 
L 324.365854 132.609154 
L 325.091826 186.785796 
L 325.817798 227.482662 
L 326.543769 176.366907 
L 327.269741 213.906465 
L 327.995713 214.826021 
L 328.721684 152.236926 
L 329.447656 148.168488 
L 330.173628 199.782301 
L 330.8996 153.633027 
L 331.625571 126.440921 
L 332.351543 133.015082 
L 333.077515 148.157686 
L 333.803486 218.355927 
L 334.529458 206.687074 
L 335.25543 142.45894 
L 335.981401 154.015531 
L 336.707373 219.265743 
L 337.433345 214.134615 
L 338.159317 140.910581 
L 338.885288 206.015087 
L 339.61126 183.941659 
L 340.337232 128.766134 
L 341.063203 229.107903 
L 341.789175 111.049912 
L 342.515147 180.893669 
L 343.241118 116.746348 
L 343.96709 113.795449 
L 344.693062 146.971253 
L 345.419034 161.025484 
L 346.145005 191.617631 
L 346.870977 206.319651 
L 347.596949 153.828157 
L 348.32292 183.157517 
L 349.048892 220.027495 
L 349.774864 126.314059 
L 350.500836 174.800937 
L 351.226807 145.665037 
L 351.952779 213.039403 
L 353.404722 184.824495 
L 354.130694 175.63376 
L 354.856666 226.16668 
L 355.582637 233.550588 
L 356.308609 154.208519 
L 357.034581 110.129152 
L 357.760553 210.712838 
L 358.486524 162.090507 
L 359.212496 96.330004 
L 359.938468 132.587748 
L 360.664439 208.234782 
L 361.390411 206.736676 
L 362.116383 191.541515 
L 362.842354 201.985402 
L 363.568326 140.448243 
L 364.294298 176.87026 
L 365.02027 126.953434 
L 365.746241 112.223547 
L 366.472213 203.010853 
L 367.198185 147.137512 
L 367.924156 211.684929 
L 368.650128 208.405319 
L 370.102071 107.299252 
L 370.828043 115.096468 
L 371.554015 206.906859 
L 372.279987 188.13037 
L 373.005958 126.762835 
L 373.73193 186.876438 
L 374.457902 196.503315 
L 375.183873 192.850454 
L 375.909845 207.175981 
L 376.635817 187.446681 
L 377.361789 216.166554 
L 378.08776 196.178859 
L 378.813732 150.839465 
L 379.539704 187.775187 
L 380.265675 180.749556 
L 380.991647 127.760527 
L 381.717619 173.977912 
L 382.44359 145.867326 
L 383.169562 160.96616 
L 383.895534 198.436488 
L 384.621506 132.917884 
L 385.347477 113.812302 
L 386.073449 196.40073 
L 386.799421 197.29385 
L 387.525392 177.306112 
L 388.251364 209.464804 
L 388.977336 207.556699 
L 389.703307 153.405158 
L 390.429279 136.23188 
L 391.155251 185.482461 
L 391.881223 201.743169 
L 392.607194 199.983482 
L 393.333166 189.646859 
L 394.059138 204.198855 
L 394.785109 175.233498 
L 395.511081 210.265539 
L 396.237053 188.910598 
L 396.963024 147.439773 
L 397.688996 210.143941 
L 398.414968 198.894039 
L 399.14094 196.891015 
L 399.866911 205.246197 
L 400.592883 208.40323 
L 401.318855 210.96883 
L 402.044826 194.136004 
L 402.770798 191.570613 
L 403.49677 134.598325 
L 404.222742 184.092223 
L 404.948713 114.632342 
L 405.674685 191.323354 
L 406.400657 210.478178 
L 407.126628 128.605019 
L 407.8526 186.388141 
L 408.578572 205.084371 
L 409.304543 187.639173 
L 410.030515 193.202554 
L 410.756487 206.926343 
L 411.482459 135.92422 
L 412.20843 169.402113 
L 412.934402 193.240739 
L 413.660374 104.981819 
L 414.386345 171.358685 
L 415.112317 184.230061 
L 415.838289 195.072071 
L 416.56426 107.413107 
L 417.290232 90.849989 
L 418.016204 109.826978 
L 418.742176 89.480257 
L 419.468147 109.567758 
L 420.194119 163.75403 
L 420.920091 139.653325 
L 421.646062 101.645336 
L 422.372034 102.647905 
L 423.098006 161.26776 
L 423.823977 128.166344 
L 424.549949 144.147223 
L 425.275921 114.705785 
L 426.001893 172.12825 
L 426.727864 178.188898 
L 427.453836 172.368463 
L 428.179808 73.257892 
L 428.905779 97.494737 
L 429.631751 110.940456 
L 430.357723 166.653025 
L 431.083695 113.633318 
L 431.809666 143.092423 
L 432.535638 104.174992 
L 433.26161 147.972056 
L 433.987581 88.887483 
L 434.713553 93.597605 
L 435.439525 86.0243 
L 436.165496 72.569297 
L 436.891468 146.86369 
L 437.61744 97.276827 
L 438.343412 159.309941 
L 439.069383 108.528142 
L 439.795355 160.417532 
L 440.521327 74.215452 
L 441.247298 150.499962 
L 441.97327 126.202503 
L 442.699242 60.470243 
L 443.425213 58.7228 
L 444.151185 59.078233 
L 444.877157 127.877335 
L 445.603129 91.344169 
L 446.3291 95.422918 
L 447.055072 174.40309 
L 447.781044 55.490438 
L 448.507015 122.797571 
L 449.232987 122.634633 
L 449.958959 138.921966 
L 450.68493 70.309662 
L 451.410902 53.636816 
L 452.136874 162.873168 
L 452.862846 143.984902 
L 453.588817 58.345699 
L 454.314789 75.430267 
L 455.040761 87.034858 
L 455.766732 112.6056 
L 456.492704 124.62 
L 457.218676 76.669149 
L 457.944648 67.43658 
L 458.670619 56.220544 
L 459.396591 34.67267 
L 459.396591 34.67267 
" style="fill:none;stroke:#000000;stroke-dasharray:3.7,1.6;stroke-dashoffset:0;"/>
   </g>
   <g id="matplotlib.axis_1">
    <g id="xtick_1">
     <g id="line2d_3">
      <defs>
       <path d="M 0 0 
L 0 3.5 
" id="mbb4ece6656" style="stroke:#000000;stroke-width:0.8;"/>
      </defs>
      <g>
       <use style="stroke:#000000;stroke-width:0.8;" x="74.631588" xlink:href="#mbb4ece6656" y="294.118125"/>
      </g>
     </g>
     <g id="text_1">
      <!-- 100 -->
      <defs>
       <path d="M 12.40625 8.296875 
L 28.515625 8.296875 
L 28.515625 63.921875 
L 10.984375 60.40625 
L 10.984375 69.390625 
L 28.421875 72.90625 
L 38.28125 72.90625 
L 38.28125 8.296875 
L 54.390625 8.296875 
L 54.390625 0 
L 12.40625 0 
z
" id="DejaVuSans-49"/>
       <path d="M 31.78125 66.40625 
Q 24.171875 66.40625 20.328125 58.90625 
Q 16.5 51.421875 16.5 36.375 
Q 16.5 21.390625 20.328125 13.890625 
Q 24.171875 6.390625 31.78125 6.390625 
Q 39.453125 6.390625 43.28125 13.890625 
Q 47.125 21.390625 47.125 36.375 
Q 47.125 51.421875 43.28125 58.90625 
Q 39.453125 66.40625 31.78125 66.40625 
z
M 31.78125 74.21875 
Q 44.046875 74.21875 50.515625 64.515625 
Q 56.984375 54.828125 56.984375 36.375 
Q 56.984375 17.96875 50.515625 8.265625 
Q 44.046875 -1.421875 31.78125 -1.421875 
Q 19.53125 -1.421875 13.0625 8.265625 
Q 6.59375 17.96875 6.59375 36.375 
Q 6.59375 54.828125 13.0625 64.515625 
Q 19.53125 74.21875 31.78125 74.21875 
z
" id="DejaVuSans-48"/>
      </defs>
      <g transform="translate(65.087838 308.716563)scale(0.1 -0.1)">
       <use xlink:href="#DejaVuSans-49"/>
       <use x="63.623047" xlink:href="#DejaVuSans-48"/>
       <use x="127.246094" xlink:href="#DejaVuSans-48"/>
      </g>
     </g>
    </g>
    <g id="xtick_2">
     <g id="line2d_4">
      <g>
       <use style="stroke:#000000;stroke-width:0.8;" x="147.228759" xlink:href="#mbb4ece6656" y="294.118125"/>
      </g>
     </g>
     <g id="text_2">
      <!-- 200 -->
      <defs>
       <path d="M 19.1875 8.296875 
L 53.609375 8.296875 
L 53.609375 0 
L 7.328125 0 
L 7.328125 8.296875 
Q 12.9375 14.109375 22.625 23.890625 
Q 32.328125 33.6875 34.8125 36.53125 
Q 39.546875 41.84375 41.421875 45.53125 
Q 43.3125 49.21875 43.3125 52.78125 
Q 43.3125 58.59375 39.234375 62.25 
Q 35.15625 65.921875 28.609375 65.921875 
Q 23.96875 65.921875 18.8125 64.3125 
Q 13.671875 62.703125 7.8125 59.421875 
L 7.8125 69.390625 
Q 13.765625 71.78125 18.9375 73 
Q 24.125 74.21875 28.421875 74.21875 
Q 39.75 74.21875 46.484375 68.546875 
Q 53.21875 62.890625 53.21875 53.421875 
Q 53.21875 48.921875 51.53125 44.890625 
Q 49.859375 40.875 45.40625 35.40625 
Q 44.1875 33.984375 37.640625 27.21875 
Q 31.109375 20.453125 19.1875 8.296875 
z
" id="DejaVuSans-50"/>
      </defs>
      <g transform="translate(137.685009 308.716563)scale(0.1 -0.1)">
       <use xlink:href="#DejaVuSans-50"/>
       <use x="63.623047" xlink:href="#DejaVuSans-48"/>
       <use x="127.246094" xlink:href="#DejaVuSans-48"/>
      </g>
     </g>
    </g>
    <g id="xtick_3">
     <g id="line2d_5">
      <g>
       <use style="stroke:#000000;stroke-width:0.8;" x="219.825929" xlink:href="#mbb4ece6656" y="294.118125"/>
      </g>
     </g>
     <g id="text_3">
      <!-- 300 -->
      <defs>
       <path d="M 40.578125 39.3125 
Q 47.65625 37.796875 51.625 33 
Q 55.609375 28.21875 55.609375 21.1875 
Q 55.609375 10.40625 48.1875 4.484375 
Q 40.765625 -1.421875 27.09375 -1.421875 
Q 22.515625 -1.421875 17.65625 -0.515625 
Q 12.796875 0.390625 7.625 2.203125 
L 7.625 11.71875 
Q 11.71875 9.328125 16.59375 8.109375 
Q 21.484375 6.890625 26.8125 6.890625 
Q 36.078125 6.890625 40.9375 10.546875 
Q 45.796875 14.203125 45.796875 21.1875 
Q 45.796875 27.640625 41.28125 31.265625 
Q 36.765625 34.90625 28.71875 34.90625 
L 20.21875 34.90625 
L 20.21875 43.015625 
L 29.109375 43.015625 
Q 36.375 43.015625 40.234375 45.921875 
Q 44.09375 48.828125 44.09375 54.296875 
Q 44.09375 59.90625 40.109375 62.90625 
Q 36.140625 65.921875 28.71875 65.921875 
Q 24.65625 65.921875 20.015625 65.03125 
Q 15.375 64.15625 9.8125 62.3125 
L 9.8125 71.09375 
Q 15.4375 72.65625 20.34375 73.4375 
Q 25.25 74.21875 29.59375 74.21875 
Q 40.828125 74.21875 47.359375 69.109375 
Q 53.90625 64.015625 53.90625 55.328125 
Q 53.90625 49.265625 50.4375 45.09375 
Q 46.96875 40.921875 40.578125 39.3125 
z
" id="DejaVuSans-51"/>
      </defs>
      <g transform="translate(210.282179 308.716563)scale(0.1 -0.1)">
       <use xlink:href="#DejaVuSans-51"/>
       <use x="63.623047" xlink:href="#DejaVuSans-48"/>
       <use x="127.246094" xlink:href="#DejaVuSans-48"/>
      </g>
     </g>
    </g>
    <g id="xtick_4">
     <g id="line2d_6">
      <g>
       <use style="stroke:#000000;stroke-width:0.8;" x="292.423099" xlink:href="#mbb4ece6656" y="294.118125"/>
      </g>
     </g>
     <g id="text_4">
      <!-- 400 -->
      <defs>
       <path d="M 37.796875 64.3125 
L 12.890625 25.390625 
L 37.796875 25.390625 
z
M 35.203125 72.90625 
L 47.609375 72.90625 
L 47.609375 25.390625 
L 58.015625 25.390625 
L 58.015625 17.1875 
L 47.609375 17.1875 
L 47.609375 0 
L 37.796875 0 
L 37.796875 17.1875 
L 4.890625 17.1875 
L 4.890625 26.703125 
z
" id="DejaVuSans-52"/>
      </defs>
      <g transform="translate(282.879349 308.716563)scale(0.1 -0.1)">
       <use xlink:href="#DejaVuSans-52"/>
       <use x="63.623047" xlink:href="#DejaVuSans-48"/>
       <use x="127.246094" xlink:href="#DejaVuSans-48"/>
      </g>
     </g>
    </g>
    <g id="xtick_5">
     <g id="line2d_7">
      <g>
       <use style="stroke:#000000;stroke-width:0.8;" x="365.02027" xlink:href="#mbb4ece6656" y="294.118125"/>
      </g>
     </g>
     <g id="text_5">
      <!-- 500 -->
      <defs>
       <path d="M 10.796875 72.90625 
L 49.515625 72.90625 
L 49.515625 64.59375 
L 19.828125 64.59375 
L 19.828125 46.734375 
Q 21.96875 47.46875 24.109375 47.828125 
Q 26.265625 48.1875 28.421875 48.1875 
Q 40.625 48.1875 47.75 41.5 
Q 54.890625 34.8125 54.890625 23.390625 
Q 54.890625 11.625 47.5625 5.09375 
Q 40.234375 -1.421875 26.90625 -1.421875 
Q 22.3125 -1.421875 17.546875 -0.640625 
Q 12.796875 0.140625 7.71875 1.703125 
L 7.71875 11.625 
Q 12.109375 9.234375 16.796875 8.0625 
Q 21.484375 6.890625 26.703125 6.890625 
Q 35.15625 6.890625 40.078125 11.328125 
Q 45.015625 15.765625 45.015625 23.390625 
Q 45.015625 31 40.078125 35.4375 
Q 35.15625 39.890625 26.703125 39.890625 
Q 22.75 39.890625 18.8125 39.015625 
Q 14.890625 38.140625 10.796875 36.28125 
z
" id="DejaVuSans-53"/>
      </defs>
      <g transform="translate(355.47652 308.716563)scale(0.1 -0.1)">
       <use xlink:href="#DejaVuSans-53"/>
       <use x="63.623047" xlink:href="#DejaVuSans-48"/>
       <use x="127.246094" xlink:href="#DejaVuSans-48"/>
      </g>
     </g>
    </g>
    <g id="xtick_6">
     <g id="line2d_8">
      <g>
       <use style="stroke:#000000;stroke-width:0.8;" x="437.61744" xlink:href="#mbb4ece6656" y="294.118125"/>
      </g>
     </g>
     <g id="text_6">
      <!-- 600 -->
      <defs>
       <path d="M 33.015625 40.375 
Q 26.375 40.375 22.484375 35.828125 
Q 18.609375 31.296875 18.609375 23.390625 
Q 18.609375 15.53125 22.484375 10.953125 
Q 26.375 6.390625 33.015625 6.390625 
Q 39.65625 6.390625 43.53125 10.953125 
Q 47.40625 15.53125 47.40625 23.390625 
Q 47.40625 31.296875 43.53125 35.828125 
Q 39.65625 40.375 33.015625 40.375 
z
M 52.59375 71.296875 
L 52.59375 62.3125 
Q 48.875 64.0625 45.09375 64.984375 
Q 41.3125 65.921875 37.59375 65.921875 
Q 27.828125 65.921875 22.671875 59.328125 
Q 17.53125 52.734375 16.796875 39.40625 
Q 19.671875 43.65625 24.015625 45.921875 
Q 28.375 48.1875 33.59375 48.1875 
Q 44.578125 48.1875 50.953125 41.515625 
Q 57.328125 34.859375 57.328125 23.390625 
Q 57.328125 12.15625 50.6875 5.359375 
Q 44.046875 -1.421875 33.015625 -1.421875 
Q 20.359375 -1.421875 13.671875 8.265625 
Q 6.984375 17.96875 6.984375 36.375 
Q 6.984375 53.65625 15.1875 63.9375 
Q 23.390625 74.21875 37.203125 74.21875 
Q 40.921875 74.21875 44.703125 73.484375 
Q 48.484375 72.75 52.59375 71.296875 
z
" id="DejaVuSans-54"/>
      </defs>
      <g transform="translate(428.07369 308.716563)scale(0.1 -0.1)">
       <use xlink:href="#DejaVuSans-54"/>
       <use x="63.623047" xlink:href="#DejaVuSans-48"/>
       <use x="127.246094" xlink:href="#DejaVuSans-48"/>
      </g>
     </g>
    </g>
    <g id="text_7">
     <!-- Tempo -->
     <defs>
      <path d="M -0.296875 72.90625 
L 61.375 72.90625 
L 61.375 64.59375 
L 35.5 64.59375 
L 35.5 0 
L 25.59375 0 
L 25.59375 64.59375 
L -0.296875 64.59375 
z
" id="DejaVuSans-84"/>
      <path d="M 56.203125 29.59375 
L 56.203125 25.203125 
L 14.890625 25.203125 
Q 15.484375 15.921875 20.484375 11.0625 
Q 25.484375 6.203125 34.421875 6.203125 
Q 39.59375 6.203125 44.453125 7.46875 
Q 49.3125 8.734375 54.109375 11.28125 
L 54.109375 2.78125 
Q 49.265625 0.734375 44.1875 -0.34375 
Q 39.109375 -1.421875 33.890625 -1.421875 
Q 20.796875 -1.421875 13.15625 6.1875 
Q 5.515625 13.8125 5.515625 26.8125 
Q 5.515625 40.234375 12.765625 48.109375 
Q 20.015625 56 32.328125 56 
Q 43.359375 56 49.78125 48.890625 
Q 56.203125 41.796875 56.203125 29.59375 
z
M 47.21875 32.234375 
Q 47.125 39.59375 43.09375 43.984375 
Q 39.0625 48.390625 32.421875 48.390625 
Q 24.90625 48.390625 20.390625 44.140625 
Q 15.875 39.890625 15.1875 32.171875 
z
" id="DejaVuSans-101"/>
      <path d="M 52 44.1875 
Q 55.375 50.25 60.0625 53.125 
Q 64.75 56 71.09375 56 
Q 79.640625 56 84.28125 50.015625 
Q 88.921875 44.046875 88.921875 33.015625 
L 88.921875 0 
L 79.890625 0 
L 79.890625 32.71875 
Q 79.890625 40.578125 77.09375 44.375 
Q 74.3125 48.1875 68.609375 48.1875 
Q 61.625 48.1875 57.5625 43.546875 
Q 53.515625 38.921875 53.515625 30.90625 
L 53.515625 0 
L 44.484375 0 
L 44.484375 32.71875 
Q 44.484375 40.625 41.703125 44.40625 
Q 38.921875 48.1875 33.109375 48.1875 
Q 26.21875 48.1875 22.15625 43.53125 
Q 18.109375 38.875 18.109375 30.90625 
L 18.109375 0 
L 9.078125 0 
L 9.078125 54.6875 
L 18.109375 54.6875 
L 18.109375 46.1875 
Q 21.1875 51.21875 25.484375 53.609375 
Q 29.78125 56 35.6875 56 
Q 41.65625 56 45.828125 52.96875 
Q 50 49.953125 52 44.1875 
z
" id="DejaVuSans-109"/>
      <path d="M 18.109375 8.203125 
L 18.109375 -20.796875 
L 9.078125 -20.796875 
L 9.078125 54.6875 
L 18.109375 54.6875 
L 18.109375 46.390625 
Q 20.953125 51.265625 25.265625 53.625 
Q 29.59375 56 35.59375 56 
Q 45.5625 56 51.78125 48.09375 
Q 58.015625 40.1875 58.015625 27.296875 
Q 58.015625 14.40625 51.78125 6.484375 
Q 45.5625 -1.421875 35.59375 -1.421875 
Q 29.59375 -1.421875 25.265625 0.953125 
Q 20.953125 3.328125 18.109375 8.203125 
z
M 48.6875 27.296875 
Q 48.6875 37.203125 44.609375 42.84375 
Q 40.53125 48.484375 33.40625 48.484375 
Q 26.265625 48.484375 22.1875 42.84375 
Q 18.109375 37.203125 18.109375 27.296875 
Q 18.109375 17.390625 22.1875 11.75 
Q 26.265625 6.109375 33.40625 6.109375 
Q 40.53125 6.109375 44.609375 11.75 
Q 48.6875 17.390625 48.6875 27.296875 
z
" id="DejaVuSans-112"/>
      <path d="M 30.609375 48.390625 
Q 23.390625 48.390625 19.1875 42.75 
Q 14.984375 37.109375 14.984375 27.296875 
Q 14.984375 17.484375 19.15625 11.84375 
Q 23.34375 6.203125 30.609375 6.203125 
Q 37.796875 6.203125 41.984375 11.859375 
Q 46.1875 17.53125 46.1875 27.296875 
Q 46.1875 37.015625 41.984375 42.703125 
Q 37.796875 48.390625 30.609375 48.390625 
z
M 30.609375 56 
Q 42.328125 56 49.015625 48.375 
Q 55.71875 40.765625 55.71875 27.296875 
Q 55.71875 13.875 49.015625 6.21875 
Q 42.328125 -1.421875 30.609375 -1.421875 
Q 18.84375 -1.421875 12.171875 6.21875 
Q 5.515625 13.875 5.515625 27.296875 
Q 5.515625 40.765625 12.171875 48.375 
Q 18.84375 56 30.609375 56 
z
" id="DejaVuSans-111"/>
     </defs>
     <g transform="translate(240.103125 322.394687)scale(0.1 -0.1)">
      <use xlink:href="#DejaVuSans-84"/>
      <use x="44.083984" xlink:href="#DejaVuSans-101"/>
      <use x="105.607422" xlink:href="#DejaVuSans-109"/>
      <use x="203.019531" xlink:href="#DejaVuSans-112"/>
      <use x="266.496094" xlink:href="#DejaVuSans-111"/>
     </g>
    </g>
   </g>
   <g id="matplotlib.axis_2">
    <g id="ytick_1">
     <g id="line2d_9">
      <defs>
       <path d="M 0 0 
L -3.5 0 
" id="m3c87445b17" style="stroke:#000000;stroke-width:0.8;"/>
      </defs>
      <g>
       <use style="stroke:#000000;stroke-width:0.8;" x="33.2875" xlink:href="#m3c87445b17" y="283.161582"/>
      </g>
     </g>
     <g id="text_8">
      <!-- 0 -->
      <g transform="translate(19.925 286.960801)scale(0.1 -0.1)">
       <use xlink:href="#DejaVuSans-48"/>
      </g>
     </g>
    </g>
    <g id="ytick_2">
     <g id="line2d_10">
      <g>
       <use style="stroke:#000000;stroke-width:0.8;" x="33.2875" xlink:href="#m3c87445b17" y="250.374281"/>
      </g>
     </g>
     <g id="text_9">
      <!-- 100 -->
      <g transform="translate(7.2 254.1735)scale(0.1 -0.1)">
       <use xlink:href="#DejaVuSans-49"/>
       <use x="63.623047" xlink:href="#DejaVuSans-48"/>
       <use x="127.246094" xlink:href="#DejaVuSans-48"/>
      </g>
     </g>
    </g>
    <g id="ytick_3">
     <g id="line2d_11">
      <g>
       <use style="stroke:#000000;stroke-width:0.8;" x="33.2875" xlink:href="#m3c87445b17" y="217.586981"/>
      </g>
     </g>
     <g id="text_10">
      <!-- 200 -->
      <g transform="translate(7.2 221.3862)scale(0.1 -0.1)">
       <use xlink:href="#DejaVuSans-50"/>
       <use x="63.623047" xlink:href="#DejaVuSans-48"/>
       <use x="127.246094" xlink:href="#DejaVuSans-48"/>
      </g>
     </g>
    </g>
    <g id="ytick_4">
     <g id="line2d_12">
      <g>
       <use style="stroke:#000000;stroke-width:0.8;" x="33.2875" xlink:href="#m3c87445b17" y="184.79968"/>
      </g>
     </g>
     <g id="text_11">
      <!-- 300 -->
      <g transform="translate(7.2 188.598899)scale(0.1 -0.1)">
       <use xlink:href="#DejaVuSans-51"/>
       <use x="63.623047" xlink:href="#DejaVuSans-48"/>
       <use x="127.246094" xlink:href="#DejaVuSans-48"/>
      </g>
     </g>
    </g>
    <g id="ytick_5">
     <g id="line2d_13">
      <g>
       <use style="stroke:#000000;stroke-width:0.8;" x="33.2875" xlink:href="#m3c87445b17" y="152.01238"/>
      </g>
     </g>
     <g id="text_12">
      <!-- 400 -->
      <g transform="translate(7.2 155.811599)scale(0.1 -0.1)">
       <use xlink:href="#DejaVuSans-52"/>
       <use x="63.623047" xlink:href="#DejaVuSans-48"/>
       <use x="127.246094" xlink:href="#DejaVuSans-48"/>
      </g>
     </g>
    </g>
    <g id="ytick_6">
     <g id="line2d_14">
      <g>
       <use style="stroke:#000000;stroke-width:0.8;" x="33.2875" xlink:href="#m3c87445b17" y="119.225079"/>
      </g>
     </g>
     <g id="text_13">
      <!-- 500 -->
      <g transform="translate(7.2 123.024298)scale(0.1 -0.1)">
       <use xlink:href="#DejaVuSans-53"/>
       <use x="63.623047" xlink:href="#DejaVuSans-48"/>
       <use x="127.246094" xlink:href="#DejaVuSans-48"/>
      </g>
     </g>
    </g>
    <g id="ytick_7">
     <g id="line2d_15">
      <g>
       <use style="stroke:#000000;stroke-width:0.8;" x="33.2875" xlink:href="#m3c87445b17" y="86.437779"/>
      </g>
     </g>
     <g id="text_14">
      <!-- 600 -->
      <g transform="translate(7.2 90.236997)scale(0.1 -0.1)">
       <use xlink:href="#DejaVuSans-54"/>
       <use x="63.623047" xlink:href="#DejaVuSans-48"/>
       <use x="127.246094" xlink:href="#DejaVuSans-48"/>
      </g>
     </g>
    </g>
    <g id="ytick_8">
     <g id="line2d_16">
      <g>
       <use style="stroke:#000000;stroke-width:0.8;" x="33.2875" xlink:href="#m3c87445b17" y="53.650478"/>
      </g>
     </g>
     <g id="text_15">
      <!-- 700 -->
      <defs>
       <path d="M 8.203125 72.90625 
L 55.078125 72.90625 
L 55.078125 68.703125 
L 28.609375 0 
L 18.3125 0 
L 43.21875 64.59375 
L 8.203125 64.59375 
z
" id="DejaVuSans-55"/>
      </defs>
      <g transform="translate(7.2 57.449697)scale(0.1 -0.1)">
       <use xlink:href="#DejaVuSans-55"/>
       <use x="63.623047" xlink:href="#DejaVuSans-48"/>
       <use x="127.246094" xlink:href="#DejaVuSans-48"/>
      </g>
     </g>
    </g>
   </g>
   <g id="patch_3">
    <path d="M 33.2875 294.118125 
L 33.2875 22.318125 
" style="fill:none;stroke:#000000;stroke-linecap:square;stroke-linejoin:miter;stroke-width:0.8;"/>
   </g>
   <g id="patch_4">
    <path d="M 33.2875 294.118125 
L 479.6875 294.118125 
" style="fill:none;stroke:#000000;stroke-linecap:square;stroke-linejoin:miter;stroke-width:0.8;"/>
   </g>
   <g id="text_16">
    <!-- Tax_Total -->
    <defs>
     <path d="M 34.28125 27.484375 
Q 23.390625 27.484375 19.1875 25 
Q 14.984375 22.515625 14.984375 16.5 
Q 14.984375 11.71875 18.140625 8.90625 
Q 21.296875 6.109375 26.703125 6.109375 
Q 34.1875 6.109375 38.703125 11.40625 
Q 43.21875 16.703125 43.21875 25.484375 
L 43.21875 27.484375 
z
M 52.203125 31.203125 
L 52.203125 0 
L 43.21875 0 
L 43.21875 8.296875 
Q 40.140625 3.328125 35.546875 0.953125 
Q 30.953125 -1.421875 24.3125 -1.421875 
Q 15.921875 -1.421875 10.953125 3.296875 
Q 6 8.015625 6 15.921875 
Q 6 25.140625 12.171875 29.828125 
Q 18.359375 34.515625 30.609375 34.515625 
L 43.21875 34.515625 
L 43.21875 35.40625 
Q 43.21875 41.609375 39.140625 45 
Q 35.0625 48.390625 27.6875 48.390625 
Q 23 48.390625 18.546875 47.265625 
Q 14.109375 46.140625 10.015625 43.890625 
L 10.015625 52.203125 
Q 14.9375 54.109375 19.578125 55.046875 
Q 24.21875 56 28.609375 56 
Q 40.484375 56 46.34375 49.84375 
Q 52.203125 43.703125 52.203125 31.203125 
z
" id="DejaVuSans-97"/>
     <path d="M 54.890625 54.6875 
L 35.109375 28.078125 
L 55.90625 0 
L 45.3125 0 
L 29.390625 21.484375 
L 13.484375 0 
L 2.875 0 
L 24.125 28.609375 
L 4.6875 54.6875 
L 15.28125 54.6875 
L 29.78125 35.203125 
L 44.28125 54.6875 
z
" id="DejaVuSans-120"/>
     <path d="M 50.984375 -16.609375 
L 50.984375 -23.578125 
L -0.984375 -23.578125 
L -0.984375 -16.609375 
z
" id="DejaVuSans-95"/>
     <path d="M 18.3125 70.21875 
L 18.3125 54.6875 
L 36.8125 54.6875 
L 36.8125 47.703125 
L 18.3125 47.703125 
L 18.3125 18.015625 
Q 18.3125 11.328125 20.140625 9.421875 
Q 21.96875 7.515625 27.59375 7.515625 
L 36.8125 7.515625 
L 36.8125 0 
L 27.59375 0 
Q 17.1875 0 13.234375 3.875 
Q 9.28125 7.765625 9.28125 18.015625 
L 9.28125 47.703125 
L 2.6875 47.703125 
L 2.6875 54.6875 
L 9.28125 54.6875 
L 9.28125 70.21875 
z
" id="DejaVuSans-116"/>
     <path d="M 9.421875 75.984375 
L 18.40625 75.984375 
L 18.40625 0 
L 9.421875 0 
z
" id="DejaVuSans-108"/>
    </defs>
    <g transform="translate(229.572812 16.318125)scale(0.12 -0.12)">
     <use xlink:href="#DejaVuSans-84"/>
     <use x="44.583984" xlink:href="#DejaVuSans-97"/>
     <use x="105.863281" xlink:href="#DejaVuSans-120"/>
     <use x="165.042969" xlink:href="#DejaVuSans-95"/>
     <use x="215.042969" xlink:href="#DejaVuSans-84"/>
     <use x="259.126953" xlink:href="#DejaVuSans-111"/>
     <use x="320.308594" xlink:href="#DejaVuSans-116"/>
     <use x="359.517578" xlink:href="#DejaVuSans-97"/>
     <use x="420.796875" xlink:href="#DejaVuSans-108"/>
    </g>
   </g>
   <g id="legend_1">
    <g id="patch_5">
     <path d="M 486.6875 174.457188 
L 578.5875 174.457188 
Q 580.5875 174.457188 580.5875 172.457188 
L 580.5875 143.979063 
Q 580.5875 141.979063 578.5875 141.979063 
L 486.6875 141.979063 
Q 484.6875 141.979063 484.6875 143.979063 
L 484.6875 172.457188 
Q 484.6875 174.457188 486.6875 174.457188 
z
" style="fill:#ffffff;opacity:0.8;stroke:#cccccc;stroke-linejoin:miter;"/>
    </g>
    <g id="line2d_17">
     <path d="M 488.6875 150.0775 
L 508.6875 150.0775 
" style="fill:none;stroke:#000000;stroke-dasharray:3.7,1.6;stroke-dashoffset:0;"/>
    </g>
    <g id="line2d_18"/>
    <g id="text_17">
     <!-- Baseline -->
     <defs>
      <path d="M 19.671875 34.8125 
L 19.671875 8.109375 
L 35.5 8.109375 
Q 43.453125 8.109375 47.28125 11.40625 
Q 51.125 14.703125 51.125 21.484375 
Q 51.125 28.328125 47.28125 31.5625 
Q 43.453125 34.8125 35.5 34.8125 
z
M 19.671875 64.796875 
L 19.671875 42.828125 
L 34.28125 42.828125 
Q 41.5 42.828125 45.03125 45.53125 
Q 48.578125 48.25 48.578125 53.8125 
Q 48.578125 59.328125 45.03125 62.0625 
Q 41.5 64.796875 34.28125 64.796875 
z
M 9.8125 72.90625 
L 35.015625 72.90625 
Q 46.296875 72.90625 52.390625 68.21875 
Q 58.5 63.53125 58.5 54.890625 
Q 58.5 48.1875 55.375 44.234375 
Q 52.25 40.28125 46.1875 39.3125 
Q 53.46875 37.75 57.5 32.78125 
Q 61.53125 27.828125 61.53125 20.40625 
Q 61.53125 10.640625 54.890625 5.3125 
Q 48.25 0 35.984375 0 
L 9.8125 0 
z
" id="DejaVuSans-66"/>
      <path d="M 44.28125 53.078125 
L 44.28125 44.578125 
Q 40.484375 46.53125 36.375 47.5 
Q 32.28125 48.484375 27.875 48.484375 
Q 21.1875 48.484375 17.84375 46.4375 
Q 14.5 44.390625 14.5 40.28125 
Q 14.5 37.15625 16.890625 35.375 
Q 19.28125 33.59375 26.515625 31.984375 
L 29.59375 31.296875 
Q 39.15625 29.25 43.1875 25.515625 
Q 47.21875 21.78125 47.21875 15.09375 
Q 47.21875 7.46875 41.1875 3.015625 
Q 35.15625 -1.421875 24.609375 -1.421875 
Q 20.21875 -1.421875 15.453125 -0.5625 
Q 10.6875 0.296875 5.421875 2 
L 5.421875 11.28125 
Q 10.40625 8.6875 15.234375 7.390625 
Q 20.0625 6.109375 24.8125 6.109375 
Q 31.15625 6.109375 34.5625 8.28125 
Q 37.984375 10.453125 37.984375 14.40625 
Q 37.984375 18.0625 35.515625 20.015625 
Q 33.0625 21.96875 24.703125 23.78125 
L 21.578125 24.515625 
Q 13.234375 26.265625 9.515625 29.90625 
Q 5.8125 33.546875 5.8125 39.890625 
Q 5.8125 47.609375 11.28125 51.796875 
Q 16.75 56 26.8125 56 
Q 31.78125 56 36.171875 55.265625 
Q 40.578125 54.546875 44.28125 53.078125 
z
" id="DejaVuSans-115"/>
      <path d="M 9.421875 54.6875 
L 18.40625 54.6875 
L 18.40625 0 
L 9.421875 0 
z
M 9.421875 75.984375 
L 18.40625 75.984375 
L 18.40625 64.59375 
L 9.421875 64.59375 
z
" id="DejaVuSans-105"/>
      <path d="M 54.890625 33.015625 
L 54.890625 0 
L 45.90625 0 
L 45.90625 32.71875 
Q 45.90625 40.484375 42.875 44.328125 
Q 39.84375 48.1875 33.796875 48.1875 
Q 26.515625 48.1875 22.3125 43.546875 
Q 18.109375 38.921875 18.109375 30.90625 
L 18.109375 0 
L 9.078125 0 
L 9.078125 54.6875 
L 18.109375 54.6875 
L 18.109375 46.1875 
Q 21.34375 51.125 25.703125 53.5625 
Q 30.078125 56 35.796875 56 
Q 45.21875 56 50.046875 50.171875 
Q 54.890625 44.34375 54.890625 33.015625 
z
" id="DejaVuSans-110"/>
     </defs>
     <g transform="translate(516.6875 153.5775)scale(0.1 -0.1)">
      <use xlink:href="#DejaVuSans-66"/>
      <use x="68.603516" xlink:href="#DejaVuSans-97"/>
      <use x="129.882812" xlink:href="#DejaVuSans-115"/>
      <use x="181.982422" xlink:href="#DejaVuSans-101"/>
      <use x="243.505859" xlink:href="#DejaVuSans-108"/>
      <use x="271.289062" xlink:href="#DejaVuSans-105"/>
      <use x="299.072266" xlink:href="#DejaVuSans-110"/>
      <use x="362.451172" xlink:href="#DejaVuSans-101"/>
     </g>
    </g>
    <g id="line2d_19">
     <path d="M 488.6875 164.857188 
L 508.6875 164.857188 
" style="fill:none;stroke:#1f77b4;stroke-linecap:square;stroke-width:1.5;"/>
    </g>
    <g id="line2d_20"/>
    <g id="text_18">
     <!-- $\Uparrow \beta$ (shape) -->
     <defs>
      <path d="M 36.765625 58.59375 
L 36.765625 0 
L 30.90625 0 
L 30.90625 52.734375 
L 26.421875 48.140625 
L 20.5625 54 
L 39.703125 73.25 
L 44.09375 73.25 
L 63.328125 54 
L 57.46875 48.140625 
L 52.875 52.734375 
L 52.875 0 
L 47.015625 0 
L 47.015625 58.59375 
L 41.9375 63.671875 
z
" id="DejaVuSans-8657"/>
      <path d="M 13.625 3.375 
L 8.9375 -20.796875 
L -0.09375 -20.796875 
L 14.5 54.34375 
Q 18.84375 76.609375 39.65625 76.609375 
Q 60.75 76.609375 57.171875 57.8125 
Q 54.734375 44.4375 45.21875 39.546875 
Q 58.015625 35.15625 55.515625 22.125 
Q 51.125 -1.078125 27.484375 -1.03125 
Q 17.140625 -0.984375 13.625 3.375 
z
M 15.921875 15.09375 
Q 19.671875 6.59375 29.296875 6.640625 
Q 43.359375 6.640625 46.34375 21.96875 
Q 49.03125 35.75 26.171875 34.671875 
L 27.78125 42.96875 
Q 45.453125 42.671875 48.53125 58.59375 
Q 50.640625 69.34375 39.203125 69.28125 
Q 26.421875 69.28125 23.484375 54.046875 
z
" id="DejaVuSans-Oblique-946"/>
      <path id="DejaVuSans-32"/>
      <path d="M 31 75.875 
Q 24.46875 64.65625 21.28125 53.65625 
Q 18.109375 42.671875 18.109375 31.390625 
Q 18.109375 20.125 21.3125 9.0625 
Q 24.515625 -2 31 -13.1875 
L 23.1875 -13.1875 
Q 15.875 -1.703125 12.234375 9.375 
Q 8.59375 20.453125 8.59375 31.390625 
Q 8.59375 42.28125 12.203125 53.3125 
Q 15.828125 64.359375 23.1875 75.875 
z
" id="DejaVuSans-40"/>
      <path d="M 54.890625 33.015625 
L 54.890625 0 
L 45.90625 0 
L 45.90625 32.71875 
Q 45.90625 40.484375 42.875 44.328125 
Q 39.84375 48.1875 33.796875 48.1875 
Q 26.515625 48.1875 22.3125 43.546875 
Q 18.109375 38.921875 18.109375 30.90625 
L 18.109375 0 
L 9.078125 0 
L 9.078125 75.984375 
L 18.109375 75.984375 
L 18.109375 46.1875 
Q 21.34375 51.125 25.703125 53.5625 
Q 30.078125 56 35.796875 56 
Q 45.21875 56 50.046875 50.171875 
Q 54.890625 44.34375 54.890625 33.015625 
z
" id="DejaVuSans-104"/>
      <path d="M 8.015625 75.875 
L 15.828125 75.875 
Q 23.140625 64.359375 26.78125 53.3125 
Q 30.421875 42.28125 30.421875 31.390625 
Q 30.421875 20.453125 26.78125 9.375 
Q 23.140625 -1.703125 15.828125 -13.1875 
L 8.015625 -13.1875 
Q 14.5 -2 17.703125 9.0625 
Q 20.90625 20.125 20.90625 31.390625 
Q 20.90625 42.671875 17.703125 53.65625 
Q 14.5 64.65625 8.015625 75.875 
z
" id="DejaVuSans-41"/>
     </defs>
     <g transform="translate(516.6875 168.357188)scale(0.1 -0.1)">
      <use transform="translate(19.482422 0.390625)" xlink:href="#DejaVuSans-8657"/>
      <use transform="translate(122.753906 0.390625)" xlink:href="#DejaVuSans-Oblique-946"/>
      <use transform="translate(186.572266 0.390625)" xlink:href="#DejaVuSans-32"/>
      <use transform="translate(218.359375 0.390625)" xlink:href="#DejaVuSans-40"/>
      <use transform="translate(257.373047 0.390625)" xlink:href="#DejaVuSans-115"/>
      <use transform="translate(309.472656 0.390625)" xlink:href="#DejaVuSans-104"/>
      <use transform="translate(372.851562 0.390625)" xlink:href="#DejaVuSans-97"/>
      <use transform="translate(434.130859 0.390625)" xlink:href="#DejaVuSans-112"/>
      <use transform="translate(497.607422 0.390625)" xlink:href="#DejaVuSans-101"/>
      <use transform="translate(559.130859 0.390625)" xlink:href="#DejaVuSans-41"/>
     </g>
    </g>
   </g>
  </g>
 </g>
 <defs>
  <clipPath id="p2872898897">
   <rect height="271.8" width="446.4" x="33.2875" y="22.318125"/>
  </clipPath>
 </defs>
</svg>
