<?xml version="1.0" encoding="utf-8" standalone="no"?>
<!DOCTYPE svg PUBLIC "-//W3C//DTD SVG 1.1//EN"
  "http://www.w3.org/Graphics/SVG/1.1/DTD/svg11.dtd">
<!-- Created with matplotlib (https://matplotlib.org/) -->
<svg height="331.674375pt" version="1.1" viewBox="0 0 594.15 331.674375" width="594.15pt" xmlns="http://www.w3.org/2000/svg" xmlns:xlink="http://www.w3.org/1999/xlink">
 <defs>
  <style type="text/css">
*{stroke-linecap:butt;stroke-linejoin:round;}
  </style>
 </defs>
 <g id="figure_1">
  <g id="patch_1">
   <path d="M 0 331.674375 
L 594.15 331.674375 
L 594.15 0 
L 0 0 
z
" style="fill:#ffffff;"/>
  </g>
  <g id="axes_1">
   <g id="patch_2">
    <path d="M 39.65 294.118125 
L 486.05 294.118125 
L 486.05 22.318125 
L 39.65 22.318125 
z
" style="fill:#ffffff;"/>
   </g>
   <g id="line2d_1">
    <path clip-path="url(#p7e38407700)" d="M 59.940909 279.131842 
L 60.666881 276.719416 
L 61.392852 279.424257 
L 62.118824 281.324957 
L 62.844796 279.789776 
L 63.570768 278.547011 
L 64.296739 277.596662 
L 65.022711 279.27805 
L 65.748683 278.035285 
L 66.474654 279.351154 
L 67.200626 277.742869 
L 67.926598 279.86288 
L 68.65257 279.86288 
L 69.378541 281.76358 
L 70.104513 280.740126 
L 70.830485 277.889077 
L 71.556456 277.523558 
L 72.282428 279.27805 
L 73.0084 279.497361 
L 73.734371 281.105645 
L 74.460343 278.912531 
L 75.186315 278.035285 
L 75.912287 280.082192 
L 76.638258 278.912531 
L 78.090202 280.374607 
L 78.816173 279.935984 
L 79.542145 280.374607 
L 80.268117 277.450454 
L 80.994088 278.035285 
L 81.72006 279.86288 
L 82.446032 280.667022 
L 83.172004 278.912531 
L 83.897975 278.400804 
L 84.623947 279.935984 
L 85.349919 277.669766 
L 86.07589 280.155296 
L 86.801862 278.985634 
L 87.527834 279.424257 
L 88.253805 279.570465 
L 88.979777 277.962181 
L 89.705749 279.716673 
L 90.431721 280.374607 
L 91.157692 279.204946 
L 91.883664 279.497361 
L 92.609636 279.424257 
L 93.335607 279.86288 
L 94.061579 279.424257 
L 94.787551 279.716673 
L 95.513523 278.693219 
L 96.239494 277.158039 
L 96.965466 279.424257 
L 97.691438 279.86288 
L 98.417409 279.570465 
L 99.143381 280.374607 
L 99.869353 278.985634 
L 100.595324 279.86288 
L 101.321296 279.424257 
L 102.047268 280.886334 
L 102.77324 278.254596 
L 103.499211 278.985634 
L 104.225183 279.424257 
L 104.951155 277.962181 
L 105.677126 280.009088 
L 106.403098 278.3277 
L 107.12907 279.497361 
L 107.855041 279.27805 
L 108.581013 279.204946 
L 109.306985 279.570465 
L 110.032957 278.985634 
L 110.758928 279.570465 
L 111.4849 279.643569 
L 112.210872 279.204946 
L 112.936843 278.547011 
L 113.662815 279.570465 
L 114.388787 277.815973 
L 115.114758 278.985634 
L 115.84073 280.959438 
L 116.566702 278.254596 
L 117.292674 279.058738 
L 118.018645 277.669766 
L 118.744617 279.570465 
L 119.470589 278.839427 
L 120.19656 276.719416 
L 120.922532 280.301503 
L 121.648504 279.643569 
L 122.374476 278.400804 
L 123.100447 277.450454 
L 123.826419 278.912531 
L 124.552391 278.181492 
L 125.278362 278.400804 
L 126.004334 274.599405 
L 126.730306 279.058738 
L 127.456277 278.400804 
L 128.182249 277.231143 
L 128.908221 279.27805 
L 129.634193 278.912531 
L 130.360164 276.427001 
L 131.086136 278.766323 
L 131.812108 277.523558 
L 132.538079 277.523558 
L 133.264051 276.573208 
L 133.990023 275.403547 
L 134.715994 277.231143 
L 135.441966 275.25734 
L 136.167938 277.37735 
L 137.619881 276.061482 
L 138.345853 277.523558 
L 139.071825 274.380094 
L 139.797796 276.79252 
L 140.523768 274.599405 
L 141.24974 277.084935 
L 141.975711 274.891821 
L 142.701683 273.137329 
L 143.427655 272.918017 
L 144.153627 274.160782 
L 144.879598 276.938727 
L 145.60557 277.231143 
L 146.331542 274.964924 
L 147.057513 276.500105 
L 147.783485 275.403547 
L 148.509457 277.742869 
L 149.235429 277.011831 
L 149.9614 276.719416 
L 150.687372 279.27805 
L 151.413344 276.134585 
L 152.139315 276.061482 
L 152.865287 276.938727 
L 153.591259 275.84217 
L 154.31723 275.769066 
L 155.043202 277.962181 
L 155.769174 275.476651 
L 156.495146 276.719416 
L 157.221117 276.207689 
L 157.947089 276.427001 
L 158.673061 275.476651 
L 159.399032 277.304247 
L 160.125004 277.669766 
L 160.850976 275.476651 
L 161.576947 276.573208 
L 162.302919 277.231143 
L 163.028891 274.599405 
L 163.754863 276.500105 
L 164.480834 277.158039 
L 165.206806 277.011831 
L 165.932778 278.035285 
L 166.658749 276.500105 
L 167.384721 276.646312 
L 168.110693 279.27805 
L 168.836664 277.815973 
L 169.562636 277.158039 
L 170.288608 277.523558 
L 171.01458 276.500105 
L 171.740551 277.669766 
L 173.192495 277.011831 
L 173.918466 275.769066 
L 174.644438 277.596662 
L 175.37041 279.058738 
L 176.096382 277.011831 
L 176.822353 275.915274 
L 177.548325 276.646312 
L 178.274297 277.669766 
L 179.000268 276.938727 
L 180.452212 277.742869 
L 181.178183 278.181492 
L 181.904155 276.865624 
L 182.630127 277.231143 
L 183.356099 276.207689 
L 184.08207 277.962181 
L 184.808042 276.061482 
L 185.534014 278.766323 
L 186.259985 277.37735 
L 186.985957 277.304247 
L 187.711929 276.353897 
L 188.4379 278.766323 
L 189.889844 277.084935 
L 190.615816 277.962181 
L 191.341787 275.330443 
L 192.067759 277.37735 
L 192.793731 277.889077 
L 193.519702 276.134585 
L 194.245674 278.473908 
L 194.971646 275.549755 
L 196.423589 277.523558 
L 197.149561 276.427001 
L 197.875533 277.231143 
L 198.601504 275.915274 
L 199.327476 277.669766 
L 200.053448 278.181492 
L 200.779419 276.938727 
L 201.505391 273.868367 
L 202.231363 276.061482 
L 202.957335 277.669766 
L 203.683306 274.745613 
L 204.409278 275.988378 
L 205.13525 275.184236 
L 205.861221 276.427001 
L 206.587193 276.353897 
L 208.039136 277.37735 
L 209.49108 275.330443 
L 210.217052 275.769066 
L 210.943023 276.719416 
L 211.668995 274.818717 
L 212.394967 276.719416 
L 213.120938 276.061482 
L 213.84691 276.427001 
L 214.572882 277.011831 
L 215.298853 276.573208 
L 216.024825 274.818717 
L 216.750797 275.695963 
L 217.476769 275.549755 
L 218.20274 273.137329 
L 218.928712 276.207689 
L 219.654684 274.818717 
L 220.380655 276.865624 
L 221.106627 274.014575 
L 221.832599 273.137329 
L 222.55857 275.038028 
L 223.284542 274.891821 
L 224.010514 276.134585 
L 224.736486 275.330443 
L 225.462457 275.111132 
L 226.188429 274.087679 
L 226.914401 275.111132 
L 227.640372 274.526301 
L 228.366344 273.429744 
L 229.092316 276.207689 
L 229.818288 276.134585 
L 230.544259 277.011831 
L 231.270231 275.25734 
L 231.996203 275.695963 
L 232.722174 272.698706 
L 233.448146 274.964924 
L 234.174118 275.769066 
L 234.900089 275.403547 
L 235.626061 273.137329 
L 236.352033 276.061482 
L 237.078005 274.891821 
L 237.803976 272.844914 
L 238.529948 274.014575 
L 239.25592 273.502848 
L 239.981891 273.868367 
L 240.707863 270.651799 
L 241.433835 270.944214 
L 242.159806 273.429744 
L 242.885778 273.137329 
L 243.61175 273.064225 
L 244.337722 274.818717 
L 245.063693 270.944214 
L 245.789665 273.35664 
L 246.515637 272.625602 
L 247.241608 271.529045 
L 247.96758 272.040772 
L 248.693552 271.602149 
L 249.419523 270.87111 
L 250.145495 272.479394 
L 250.871467 272.113875 
L 251.597439 272.040772 
L 252.32341 272.333187 
L 253.049382 271.602149 
L 253.775354 272.040772 
L 254.501325 271.967668 
L 255.227297 271.017318 
L 255.953269 269.262826 
L 256.679241 270.578695 
L 257.405212 273.064225 
L 258.131184 271.090422 
L 258.857156 271.23663 
L 259.583127 272.040772 
L 260.309099 272.333187 
L 261.035071 271.090422 
L 261.761042 268.7511 
L 262.487014 271.967668 
L 263.212986 273.868367 
L 264.664929 269.33593 
L 265.390901 269.628346 
L 266.116873 271.529045 
L 266.842844 268.312477 
L 267.568816 273.064225 
L 268.294788 269.847657 
L 269.020759 269.409034 
L 269.746731 268.824204 
L 270.472703 269.701449 
L 271.198675 269.116619 
L 271.924646 269.043515 
L 272.650618 270.28628 
L 273.37659 270.505591 
L 274.102561 270.28628 
L 274.828533 268.897307 
L 275.554505 269.993865 
L 276.280477 268.604892 
L 277.006448 269.920761 
L 277.73242 268.458684 
L 278.458392 270.432488 
L 279.184363 269.043515 
L 279.910335 269.774553 
L 280.636307 267.946958 
L 281.362278 264.803493 
L 282.08825 269.482138 
L 282.814222 267.21592 
L 283.540194 269.701449 
L 284.266165 270.432488 
L 285.718109 266.923504 
L 286.44408 266.777297 
L 287.170052 269.33593 
L 287.896024 264.511078 
L 288.621995 268.7511 
L 289.347967 268.897307 
L 290.073939 267.727646 
L 290.799911 266.119362 
L 291.525882 266.338674 
L 292.251854 267.581439 
L 292.977826 268.093165 
L 293.703797 265.31522 
L 294.429769 266.26557 
L 295.155741 267.508335 
L 295.881712 265.534532 
L 296.607684 267.654542 
L 297.333656 267.21592 
L 298.059628 265.169013 
L 298.785599 264.876597 
L 299.511571 266.338674 
L 300.237543 268.7511 
L 300.963514 261.879341 
L 301.689486 268.239373 
L 302.415458 267.142816 
L 303.14143 264.876597 
L 303.867401 266.26557 
L 304.593373 265.826947 
L 305.319345 264.145559 
L 306.045316 264.291767 
L 306.771288 265.388324 
L 308.223231 266.119362 
L 308.949203 267.362127 
L 309.675175 262.391067 
L 310.401147 263.999351 
L 311.127118 262.756587 
L 311.85309 263.78004 
L 312.579062 262.610379 
L 313.305033 264.364871 
L 314.031005 266.8504 
L 314.756977 264.291767 
L 315.482948 262.975898 
L 316.20892 260.197953 
L 316.934892 260.271057 
L 317.660864 259.75933 
L 318.386835 263.122106 
L 319.112807 263.487625 
L 319.838779 260.70968 
L 320.56475 260.490368 
L 321.290722 262.683483 
L 322.016694 264.437974 
L 322.742665 260.70968 
L 323.468637 263.195209 
L 324.194609 261.440718 
L 324.920581 262.537275 
L 326.372524 261.221406 
L 327.098496 259.905538 
L 327.824467 259.320707 
L 328.550439 259.174499 
L 329.276411 259.247603 
L 330.002383 257.712423 
L 330.728354 260.417264 
L 332.180298 256.177243 
L 332.906269 260.855887 
L 333.632241 256.908281 
L 334.358213 257.931734 
L 335.084184 258.370357 
L 335.810156 257.931734 
L 336.536128 259.174499 
L 337.2621 256.177243 
L 337.988071 256.104139 
L 338.714043 256.177243 
L 339.440015 255.811724 
L 340.165986 255.080686 
L 340.891958 256.762073 
L 341.61793 258.735876 
L 342.343901 254.276544 
L 343.069873 258.22415 
L 343.795845 254.568959 
L 344.521817 256.104139 
L 345.247788 253.033779 
L 345.97376 257.566215 
L 346.699732 253.399298 
L 347.425703 253.25309 
L 348.151675 254.349647 
L 348.877647 253.984128 
L 349.603618 255.007582 
L 350.32959 252.375844 
L 351.055562 252.30274 
L 351.781534 250.694456 
L 352.507505 249.817211 
L 353.233477 252.010325 
L 353.959449 250.913768 
L 354.68542 252.522052 
L 355.411392 251.279287 
L 356.137364 250.328937 
L 356.863336 252.30274 
L 357.589307 249.451691 
L 358.315279 250.840664 
L 359.041251 248.793757 
L 359.767222 251.571702 
L 360.493194 250.840664 
L 361.219166 250.840664 
L 361.945137 249.744107 
L 362.671109 245.869604 
L 363.397081 246.308227 
L 364.123053 244.919255 
L 364.849024 245.430981 
L 365.574996 245.723397 
L 366.300968 244.042009 
L 367.026939 247.624096 
L 367.752911 244.334424 
L 368.478883 244.919255 
L 369.204854 241.77579 
L 369.930826 243.310971 
L 370.656798 243.530282 
L 371.38277 240.679233 
L 372.108741 242.14131 
L 372.834713 241.702687 
L 373.560685 241.629583 
L 374.286656 244.480632 
L 375.012628 241.995102 
L 375.7386 242.214413 
L 376.464571 243.603386 
L 377.916515 239.509572 
L 378.642487 241.264064 
L 379.368458 242.214413 
L 380.09443 241.702687 
L 380.820402 239.290261 
L 381.546373 235.050239 
L 382.272345 236.585419 
L 382.998317 236.000589 
L 383.724289 237.828184 
L 385.176232 232.710917 
L 385.902204 236.000589 
L 386.628175 235.854381 
L 387.354147 232.857124 
L 388.080119 234.172993 
L 388.80609 234.68472 
L 389.532062 233.807474 
L 390.258034 233.14954 
L 390.984006 231.029529 
L 391.709977 233.661266 
L 392.435949 233.880578 
L 393.161921 231.175737 
L 393.887892 231.395048 
L 394.613864 226.204677 
L 396.065807 232.052982 
L 396.791779 228.251584 
L 397.517751 229.567453 
L 398.243723 229.932972 
L 398.969694 227.155027 
L 399.695666 225.400535 
L 400.421638 226.277781 
L 401.147609 224.669497 
L 401.873581 225.10812 
L 402.599553 225.839158 
L 403.325524 222.037759 
L 404.051496 223.134317 
L 404.777468 223.061213 
L 405.50344 223.426732 
L 406.229411 222.841901 
L 406.955383 221.67224 
L 407.681355 220.063956 
L 408.407326 217.870842 
L 409.133298 217.212907 
L 409.85927 221.964655 
L 410.585242 218.382568 
L 411.311213 216.70118 
L 412.037185 216.189454 
L 412.763157 221.014306 
L 413.489128 215.458415 
L 414.2151 215.092896 
L 414.941072 214.361858 
L 415.667043 213.119093 
L 416.393015 211.364602 
L 417.118987 212.022536 
L 417.844959 213.996339 
L 418.57093 209.683214 
L 419.296902 206.978372 
L 420.022874 212.461159 
L 420.748845 209.390798 
L 421.474817 210.048733 
L 422.200789 207.709411 
L 422.92676 206.17423 
L 423.652732 207.709411 
L 424.378704 207.416995 
L 425.104676 203.396285 
L 425.830647 204.200427 
L 426.556619 203.10387 
L 427.282591 199.960406 
L 428.008562 200.764548 
L 428.734534 202.226624 
L 429.460506 200.179717 
L 430.186477 196.0128 
L 430.912449 197.328668 
L 431.638421 196.451422 
L 432.364393 197.54798 
L 433.090364 196.378319 
L 433.816336 191.334155 
L 434.542308 192.138297 
L 435.268279 190.237598 
L 435.994251 194.331412 
L 436.720223 191.114844 
L 437.446195 189.945183 
L 438.172166 191.480363 
L 438.898138 189.50656 
L 439.62411 186.655511 
L 440.350081 184.389292 
L 441.076053 184.169981 
L 441.802025 184.316188 
L 442.527996 181.392036 
L 443.253968 182.342385 
L 443.97994 180.441686 
L 444.705912 180.660998 
L 445.431883 176.347872 
L 446.157855 177.225118 
L 446.883827 178.321675 
L 447.609798 176.201665 
L 448.33577 174.9589 
L 449.061742 176.055457 
L 449.787713 171.961643 
L 450.513685 175.178211 
L 451.239657 174.520277 
L 451.965629 167.940933 
L 452.6916 173.0582 
L 453.417572 168.087141 
L 454.143544 169.03749 
L 454.869515 167.136791 
L 455.595487 168.818179 
L 456.321459 161.215382 
L 457.04743 164.651261 
L 457.773402 162.750562 
L 458.499374 160.191928 
L 459.225346 156.97536 
L 459.951317 158.437436 
L 460.677289 158.51054 
L 461.403261 154.051207 
L 462.129232 157.340879 
L 462.855204 157.852606 
L 463.581176 153.758792 
L 464.307148 151.784989 
L 465.033119 147.471864 
L 465.759091 150.907743 
L 465.759091 150.907743 
" style="fill:none;stroke:#1f77b4;stroke-linecap:square;stroke-width:1.5;"/>
   </g>
   <g id="line2d_2">
    <path clip-path="url(#p7e38407700)" d="M 59.940909 232.126086 
L 60.666881 164.797469 
L 61.392852 201.641794 
L 62.118824 205.077673 
L 62.844796 215.019793 
L 63.570768 223.20742 
L 64.296739 222.841901 
L 65.022711 207.197684 
L 65.748683 222.768797 
L 66.474654 170.93819 
L 67.200626 226.131573 
L 67.926598 204.858362 
L 68.65257 212.314951 
L 69.378541 226.277781 
L 70.104513 173.643031 
L 70.830485 223.646043 
L 71.556456 210.341148 
L 72.282428 158.656748 
L 73.0084 224.377081 
L 73.734371 149.080148 
L 74.460343 204.200427 
L 75.186315 211.14529 
L 75.912287 175.324419 
L 76.638258 203.469389 
L 77.36423 211.657017 
L 78.090202 202.665247 
L 78.816173 167.794725 
L 79.542145 184.243085 
L 80.268117 211.876328 
L 80.994088 174.447173 
L 81.72006 175.689938 
L 82.446032 210.925979 
L 83.172004 203.250078 
L 83.897975 197.182461 
L 84.623947 161.873316 
L 85.349919 194.331412 
L 86.07589 210.121837 
L 86.801862 214.288754 
L 87.527834 215.897038 
L 88.253805 218.674984 
L 88.979777 206.320438 
L 89.705749 178.687194 
L 90.431721 214.508066 
L 91.157692 224.230874 
L 91.883664 224.669497 
L 92.609636 156.02501 
L 93.335607 215.677727 
L 94.061579 156.682945 
L 94.787551 214.215651 
L 95.513523 216.847388 
L 96.239494 187.678964 
L 96.965466 206.759061 
L 97.691438 214.727377 
L 98.417409 211.876328 
L 99.143381 215.239104 
L 99.869353 210.925979 
L 100.595324 166.478857 
L 101.321296 193.819685 
L 102.047268 205.5894 
L 102.77324 215.531519 
L 103.499211 221.379825 
L 104.225183 171.669228 
L 104.951155 224.961912 
L 105.677126 203.834908 
L 106.403098 168.598867 
L 107.855041 216.920492 
L 108.581013 214.727377 
L 109.306985 221.452929 
L 110.032957 218.894295 
L 110.758928 165.382299 
L 111.4849 201.422482 
L 112.210872 215.019793 
L 112.936843 217.943945 
L 113.662815 226.277781 
L 114.388787 222.549486 
L 115.114758 216.481869 
L 115.84073 214.215651 
L 116.566702 223.426732 
L 117.292674 226.497092 
L 118.018645 164.943676 
L 118.744617 222.257071 
L 119.470589 230.883321 
L 120.19656 227.959169 
L 120.922532 157.706398 
L 121.648504 207.928722 
L 122.374476 186.07068 
L 123.100447 220.72189 
L 123.826419 206.832165 
L 124.552391 208.148034 
L 125.278362 212.607367 
L 126.004334 162.311939 
L 127.456277 217.797738 
L 128.182249 218.674984 
L 128.908221 165.01678 
L 129.634193 222.330174 
L 130.360164 215.019793 
L 131.086136 201.934209 
L 131.812108 224.377081 
L 132.538079 218.090153 
L 133.264051 167.429206 
L 133.990023 221.160513 
L 134.715994 176.859599 
L 135.441966 211.510809 
L 136.167938 219.332918 
L 136.89391 217.139803 
L 137.619881 225.766054 
L 138.345853 226.204677 
L 139.071825 209.171487 
L 139.797796 231.687463 
L 140.523768 157.706398 
L 141.24974 200.106613 
L 141.975711 225.181223 
L 142.701683 220.502579 
L 143.427655 224.084666 
L 144.153627 233.880578 
L 144.879598 218.894295 
L 145.60557 212.68047 
L 146.331542 185.705161 
L 147.057513 221.526032 
L 147.783485 228.763311 
L 148.509457 229.932972 
L 149.235429 215.531519 
L 149.9614 219.040503 
L 150.687372 234.538512 
L 151.413344 225.327431 
L 152.139315 159.168475 
L 152.865287 199.302471 
L 153.591259 224.961912 
L 154.31723 220.868098 
L 155.043202 217.943945 
L 155.769174 207.563203 
L 157.221117 215.166 
L 157.947089 227.374338 
L 158.673061 208.805968 
L 159.399032 226.497092 
L 160.125004 221.891552 
L 160.850976 227.374338 
L 161.576947 236.585419 
L 162.302919 213.338405 
L 163.028891 228.032272 
L 163.754863 222.768797 
L 164.480834 158.364333 
L 165.206806 227.666753 
L 165.932778 220.283268 
L 166.658749 229.494349 
L 167.384721 225.327431 
L 168.110693 241.410271 
L 168.836664 233.14954 
L 169.562636 239.217157 
L 170.288608 228.909518 
L 171.01458 177.663741 
L 171.740551 226.935715 
L 172.466523 152.735339 
L 173.192495 230.956425 
L 173.918466 225.839158 
L 174.644438 224.596393 
L 175.37041 203.761804 
L 176.096382 210.925979 
L 176.822353 216.554973 
L 177.548325 211.14529 
L 178.274297 224.450185 
L 179.000268 224.961912 
L 179.72624 213.703924 
L 180.452212 228.836414 
L 181.178183 193.015543 
L 181.904155 186.363095 
L 182.630127 177.663741 
L 183.356099 221.379825 
L 184.08207 219.040503 
L 184.808042 153.466377 
L 185.534014 218.528776 
L 186.259985 215.897038 
L 186.985957 205.296985 
L 187.711929 218.821191 
L 188.4379 225.254327 
L 189.163872 224.230874 
L 189.889844 206.905269 
L 190.615816 175.324419 
L 191.341787 219.552229 
L 192.067759 175.763042 
L 192.793731 184.901019 
L 193.519702 203.030766 
L 194.245674 174.227861 
L 194.971646 177.590637 
L 195.697617 201.641794 
L 196.423589 215.092896 
L 197.149561 211.803225 
L 197.875533 211.583913 
L 198.601504 175.616834 
L 199.327476 181.538243 
L 200.053448 200.472133 
L 200.779419 208.440449 
L 201.505391 161.580901 
L 202.231363 183.438943 
L 202.957335 161.800212 
L 203.683306 194.770035 
L 204.409278 197.255564 
L 205.13525 163.993327 
L 206.587193 193.161751 
L 207.313165 174.447173 
L 208.039136 201.714897 
L 208.765108 202.080417 
L 209.49108 200.252821 
L 210.217052 208.952176 
L 210.943023 171.815435 
L 211.668995 210.925979 
L 212.394967 213.192197 
L 213.120938 203.10387 
L 213.84691 182.269282 
L 214.572882 182.634801 
L 215.298853 220.941202 
L 216.750797 204.05422 
L 217.476769 208.65976 
L 218.20274 204.492843 
L 218.928712 208.879072 
L 219.654684 193.161751 
L 220.380655 212.168744 
L 221.106627 216.408765 
L 221.832599 202.372832 
L 222.55857 221.526032 
L 223.284542 212.68047 
L 224.010514 180.076167 
L 224.736486 221.014306 
L 225.462457 220.13706 
L 226.188429 200.179717 
L 226.914401 186.363095 
L 227.640372 219.479126 
L 228.366344 202.592143 
L 229.092316 213.338405 
L 229.818288 220.794994 
L 230.544259 208.65976 
L 231.270231 209.537006 
L 231.996203 176.859599 
L 232.722174 205.443192 
L 233.448146 206.028023 
L 234.174118 225.985365 
L 234.900089 204.127323 
L 235.626061 218.455672 
L 236.352033 206.978372 
L 237.078005 219.113606 
L 237.803976 213.411509 
L 238.529948 205.808711 
L 239.25592 216.774284 
L 239.981891 163.700911 
L 240.707863 198.717641 
L 241.433835 206.759061 
L 242.159806 219.698437 
L 242.885778 206.759061 
L 243.61175 210.925979 
L 244.337722 201.349378 
L 245.063693 217.286011 
L 245.789665 140.307689 
L 246.515637 211.14529 
L 247.241608 214.727377 
L 247.96758 157.194672 
L 248.693552 203.10387 
L 249.419523 206.101127 
L 250.145495 176.347872 
L 250.871467 203.323181 
L 251.597439 161.215382 
L 252.32341 183.146527 
L 253.049382 194.550723 
L 254.501325 203.834908 
L 255.227297 201.788001 
L 255.953269 172.985096 
L 256.679241 183.073424 
L 257.405212 206.101127 
L 258.131184 195.354865 
L 258.857156 167.648518 
L 259.583127 208.367345 
L 260.309099 157.194672 
L 261.035071 184.243085 
L 261.761042 193.234854 
L 262.487014 163.554704 
L 263.212986 184.974123 
L 263.938958 199.741094 
L 264.664929 165.528507 
L 265.390901 187.898276 
L 266.116873 191.845882 
L 266.842844 201.422482 
L 267.568816 162.677458 
L 268.294788 202.811455 
L 269.020759 193.454166 
L 269.746731 188.044483 
L 270.472703 204.63905 
L 271.198675 197.109357 
L 271.924646 197.255564 
L 272.650618 201.276275 
L 273.37659 197.255564 
L 274.102561 175.763042 
L 275.554505 192.57692 
L 276.280477 198.205914 
L 277.006448 194.623827 
L 277.73242 194.038996 
L 278.458392 206.978372 
L 279.184363 206.53975 
L 279.910335 205.223881 
L 280.636307 213.484612 
L 282.08825 181.611347 
L 282.814222 202.299728 
L 283.540194 166.040234 
L 284.266165 197.913499 
L 284.992137 189.214144 
L 285.718109 175.836145 
L 286.44408 202.665247 
L 287.170052 157.779502 
L 287.896024 181.976866 
L 288.621995 175.982353 
L 289.347967 196.085903 
L 290.799911 204.05422 
L 291.525882 205.516296 
L 292.251854 206.17423 
L 292.977826 199.667991 
L 293.703797 206.101127 
L 294.429769 199.960406 
L 295.155741 207.563203 
L 295.881712 201.276275 
L 296.607684 210.999083 
L 297.333656 213.850131 
L 298.059628 213.996339 
L 298.785599 215.823935 
L 299.511571 218.455672 
L 300.237543 211.949432 
L 300.963514 214.434962 
L 301.689486 159.168475 
L 302.415458 214.215651 
L 303.14143 200.61834 
L 304.593373 219.917748 
L 305.319345 218.382568 
L 306.045316 195.64728 
L 306.771288 182.854112 
L 307.49726 198.790745 
L 308.223231 154.48983 
L 308.949203 182.927216 
L 309.675175 173.423719 
L 310.401147 202.519039 
L 311.127118 202.957662 
L 311.85309 203.834908 
L 312.579062 203.615597 
L 313.305033 194.477619 
L 314.031005 204.492843 
L 314.756977 208.148034 
L 315.482948 206.247334 
L 316.20892 208.952176 
L 316.934892 197.401772 
L 317.660864 200.691444 
L 318.386835 158.291229 
L 319.112807 209.390798 
L 319.838779 202.884559 
L 320.56475 200.61834 
L 321.290722 197.109357 
L 322.016694 210.925979 
L 322.742665 160.776759 
L 323.468637 181.757555 
L 324.194609 197.474876 
L 324.920581 202.811455 
L 325.646552 205.735608 
L 326.372524 171.596124 
L 327.098496 172.911993 
L 327.824467 173.423719 
L 328.550439 199.010056 
L 329.276411 178.321675 
L 330.002383 193.234854 
L 330.728354 146.594618 
L 331.454326 190.968636 
L 332.180298 192.57692 
L 332.906269 164.797469 
L 333.632241 195.06245 
L 334.358213 184.754811 
L 335.084184 162.823666 
L 335.810156 168.671971 
L 336.536128 188.044483 
L 337.2621 150.542224 
L 337.988071 166.040234 
L 338.714043 154.416726 
L 339.440015 161.873316 
L 340.165986 180.734101 
L 340.891958 174.154758 
L 341.61793 151.273262 
L 342.343901 160.338136 
L 343.069873 185.412746 
L 343.795845 177.298222 
L 344.521817 148.641525 
L 345.247788 179.710648 
L 345.97376 170.134048 
L 346.699732 149.445667 
L 347.425703 183.00032 
L 348.151675 130.731089 
L 348.877647 172.47337 
L 349.603618 134.751799 
L 350.32959 151.127055 
L 351.781534 150.542224 
L 352.507505 165.894026 
L 353.233477 165.01678 
L 353.959449 144.767022 
L 354.68542 164.358846 
L 355.411392 172.619577 
L 356.137364 134.166968 
L 356.863336 167.867829 
L 357.589307 142.208389 
L 358.315279 169.183698 
L 359.041251 161.654005 
L 359.767222 161.873316 
L 360.493194 164.285742 
L 361.219166 178.394779 
L 361.945137 181.757555 
L 362.671109 144.328399 
L 363.397081 149.664978 
L 364.123053 169.768528 
L 364.849024 147.39876 
L 365.574996 142.4277 
L 366.300968 147.98359 
L 367.026939 165.601611 
L 367.752911 164.578157 
L 368.478883 160.04572 
L 369.204854 163.993327 
L 369.930826 144.182192 
L 370.656798 162.604354 
L 371.38277 137.237329 
L 372.108741 150.46912 
L 372.834713 158.656748 
L 373.560685 146.375306 
L 374.286656 165.747818 
L 375.012628 164.651261 
L 375.7386 143.816673 
L 376.464571 138.918717 
L 377.190543 141.550454 
L 377.916515 157.340879 
L 378.642487 155.732595 
L 379.368458 138.480094 
L 380.09443 159.022267 
L 380.820402 158.145021 
L 381.546373 154.124311 
L 382.272345 162.604354 
L 382.998317 155.147765 
L 383.724289 167.794725 
L 384.45026 157.998814 
L 385.176232 145.717372 
L 385.902204 163.774015 
L 386.628175 154.343623 
L 387.354147 133.947657 
L 388.080119 159.387786 
L 388.80609 138.553198 
L 389.532062 157.048464 
L 390.258034 157.121568 
L 390.984006 126.783483 
L 391.709977 142.354596 
L 392.435949 155.220868 
L 393.161921 153.466377 
L 393.887892 147.910486 
L 394.613864 158.291229 
L 395.339836 155.44018 
L 396.065807 144.255296 
L 396.791779 138.699405 
L 397.517751 160.484343 
L 398.243723 159.753305 
L 398.969694 149.664978 
L 399.695666 156.171218 
L 400.421638 158.583644 
L 401.147609 146.229099 
L 401.873581 159.387786 
L 402.599553 155.878803 
L 403.325524 140.527001 
L 404.051496 164.43195 
L 404.777468 155.878803 
L 405.50344 160.338136 
L 406.229411 161.580901 
L 406.955383 162.53125 
L 407.681355 158.876059 
L 408.407326 154.051207 
L 409.133298 157.340879 
L 409.85927 138.041471 
L 410.585242 153.247065 
L 411.311213 132.266269 
L 412.037185 154.709142 
L 412.763157 155.220868 
L 413.489128 127.587625 
L 414.2151 153.393273 
L 414.941072 153.173961 
L 415.667043 144.401503 
L 416.393015 145.278749 
L 417.118987 152.369819 
L 417.844959 125.833133 
L 418.57093 144.474607 
L 419.296902 143.743569 
L 420.022874 123.932434 
L 420.748845 143.743569 
L 421.474817 141.331143 
L 422.200789 140.234585 
L 422.92676 114.355833 
L 423.652732 123.786226 
L 424.378704 113.551691 
L 425.830647 105.364064 
L 426.556619 122.031734 
L 427.282591 104.779233 
L 428.008562 108.799943 
L 428.734534 104.779233 
L 429.460506 115.233079 
L 430.186477 102.001288 
L 430.912449 108.36132 
L 431.638421 94.325387 
L 432.364393 111.870304 
L 433.816336 106.972348 
L 434.542308 91.181923 
L 435.268279 93.959868 
L 435.994251 95.933671 
L 436.720223 102.147496 
L 437.446195 89.354327 
L 438.172166 95.275737 
L 438.898138 91.255027 
L 439.62411 95.34884 
L 440.350081 78.388754 
L 441.076053 79.631519 
L 441.802025 79.485312 
L 442.527996 70.932165 
L 443.253968 84.82189 
L 443.97994 74.221837 
L 444.705912 79.266 
L 445.431883 67.715597 
L 446.157855 80.070142 
L 446.883827 66.984559 
L 447.609798 78.973585 
L 448.33577 75.318394 
L 449.787713 59.381761 
L 450.513685 57.773477 
L 451.239657 61.428668 
L 451.965629 55.72657 
L 452.6916 57.554166 
L 453.417572 56.896232 
L 454.143544 57.700374 
L 454.869515 59.089346 
L 455.595487 62.013499 
L 456.321459 58.577619 
L 457.04743 51.778964 
L 457.773402 50.097576 
L 458.499374 52.290691 
L 459.225346 54.849325 
L 459.951317 44.980309 
L 460.677289 48.562396 
L 461.403261 39.0589 
L 462.129232 47.173424 
L 462.855204 46.807904 
L 463.581176 42.933402 
L 464.307148 41.17891 
L 465.033119 36.719577 
L 465.759091 34.67267 
L 465.759091 34.67267 
" style="fill:none;stroke:#000000;stroke-dasharray:3.7,1.6;stroke-dashoffset:0;"/>
   </g>
   <g id="matplotlib.axis_1">
    <g id="xtick_1">
     <g id="line2d_3">
      <defs>
       <path d="M 0 0 
L 0 3.5 
" id="m9a56dc7304" style="stroke:#000000;stroke-width:0.8;"/>
      </defs>
      <g>
       <use style="stroke:#000000;stroke-width:0.8;" x="80.994088" xlink:href="#m9a56dc7304" y="294.118125"/>
      </g>
     </g>
     <g id="text_1">
      <!-- 100 -->
      <defs>
       <path d="M 12.40625 8.296875 
L 28.515625 8.296875 
L 28.515625 63.921875 
L 10.984375 60.40625 
L 10.984375 69.390625 
L 28.421875 72.90625 
L 38.28125 72.90625 
L 38.28125 8.296875 
L 54.390625 8.296875 
L 54.390625 0 
L 12.40625 0 
z
" id="DejaVuSans-49"/>
       <path d="M 31.78125 66.40625 
Q 24.171875 66.40625 20.328125 58.90625 
Q 16.5 51.421875 16.5 36.375 
Q 16.5 21.390625 20.328125 13.890625 
Q 24.171875 6.390625 31.78125 6.390625 
Q 39.453125 6.390625 43.28125 13.890625 
Q 47.125 21.390625 47.125 36.375 
Q 47.125 51.421875 43.28125 58.90625 
Q 39.453125 66.40625 31.78125 66.40625 
z
M 31.78125 74.21875 
Q 44.046875 74.21875 50.515625 64.515625 
Q 56.984375 54.828125 56.984375 36.375 
Q 56.984375 17.96875 50.515625 8.265625 
Q 44.046875 -1.421875 31.78125 -1.421875 
Q 19.53125 -1.421875 13.0625 8.265625 
Q 6.59375 17.96875 6.59375 36.375 
Q 6.59375 54.828125 13.0625 64.515625 
Q 19.53125 74.21875 31.78125 74.21875 
z
" id="DejaVuSans-48"/>
      </defs>
      <g transform="translate(71.450338 308.716563)scale(0.1 -0.1)">
       <use xlink:href="#DejaVuSans-49"/>
       <use x="63.623047" xlink:href="#DejaVuSans-48"/>
       <use x="127.246094" xlink:href="#DejaVuSans-48"/>
      </g>
     </g>
    </g>
    <g id="xtick_2">
     <g id="line2d_4">
      <g>
       <use style="stroke:#000000;stroke-width:0.8;" x="153.591259" xlink:href="#m9a56dc7304" y="294.118125"/>
      </g>
     </g>
     <g id="text_2">
      <!-- 200 -->
      <defs>
       <path d="M 19.1875 8.296875 
L 53.609375 8.296875 
L 53.609375 0 
L 7.328125 0 
L 7.328125 8.296875 
Q 12.9375 14.109375 22.625 23.890625 
Q 32.328125 33.6875 34.8125 36.53125 
Q 39.546875 41.84375 41.421875 45.53125 
Q 43.3125 49.21875 43.3125 52.78125 
Q 43.3125 58.59375 39.234375 62.25 
Q 35.15625 65.921875 28.609375 65.921875 
Q 23.96875 65.921875 18.8125 64.3125 
Q 13.671875 62.703125 7.8125 59.421875 
L 7.8125 69.390625 
Q 13.765625 71.78125 18.9375 73 
Q 24.125 74.21875 28.421875 74.21875 
Q 39.75 74.21875 46.484375 68.546875 
Q 53.21875 62.890625 53.21875 53.421875 
Q 53.21875 48.921875 51.53125 44.890625 
Q 49.859375 40.875 45.40625 35.40625 
Q 44.1875 33.984375 37.640625 27.21875 
Q 31.109375 20.453125 19.1875 8.296875 
z
" id="DejaVuSans-50"/>
      </defs>
      <g transform="translate(144.047509 308.716563)scale(0.1 -0.1)">
       <use xlink:href="#DejaVuSans-50"/>
       <use x="63.623047" xlink:href="#DejaVuSans-48"/>
       <use x="127.246094" xlink:href="#DejaVuSans-48"/>
      </g>
     </g>
    </g>
    <g id="xtick_3">
     <g id="line2d_5">
      <g>
       <use style="stroke:#000000;stroke-width:0.8;" x="226.188429" xlink:href="#m9a56dc7304" y="294.118125"/>
      </g>
     </g>
     <g id="text_3">
      <!-- 300 -->
      <defs>
       <path d="M 40.578125 39.3125 
Q 47.65625 37.796875 51.625 33 
Q 55.609375 28.21875 55.609375 21.1875 
Q 55.609375 10.40625 48.1875 4.484375 
Q 40.765625 -1.421875 27.09375 -1.421875 
Q 22.515625 -1.421875 17.65625 -0.515625 
Q 12.796875 0.390625 7.625 2.203125 
L 7.625 11.71875 
Q 11.71875 9.328125 16.59375 8.109375 
Q 21.484375 6.890625 26.8125 6.890625 
Q 36.078125 6.890625 40.9375 10.546875 
Q 45.796875 14.203125 45.796875 21.1875 
Q 45.796875 27.640625 41.28125 31.265625 
Q 36.765625 34.90625 28.71875 34.90625 
L 20.21875 34.90625 
L 20.21875 43.015625 
L 29.109375 43.015625 
Q 36.375 43.015625 40.234375 45.921875 
Q 44.09375 48.828125 44.09375 54.296875 
Q 44.09375 59.90625 40.109375 62.90625 
Q 36.140625 65.921875 28.71875 65.921875 
Q 24.65625 65.921875 20.015625 65.03125 
Q 15.375 64.15625 9.8125 62.3125 
L 9.8125 71.09375 
Q 15.4375 72.65625 20.34375 73.4375 
Q 25.25 74.21875 29.59375 74.21875 
Q 40.828125 74.21875 47.359375 69.109375 
Q 53.90625 64.015625 53.90625 55.328125 
Q 53.90625 49.265625 50.4375 45.09375 
Q 46.96875 40.921875 40.578125 39.3125 
z
" id="DejaVuSans-51"/>
      </defs>
      <g transform="translate(216.644679 308.716563)scale(0.1 -0.1)">
       <use xlink:href="#DejaVuSans-51"/>
       <use x="63.623047" xlink:href="#DejaVuSans-48"/>
       <use x="127.246094" xlink:href="#DejaVuSans-48"/>
      </g>
     </g>
    </g>
    <g id="xtick_4">
     <g id="line2d_6">
      <g>
       <use style="stroke:#000000;stroke-width:0.8;" x="298.785599" xlink:href="#m9a56dc7304" y="294.118125"/>
      </g>
     </g>
     <g id="text_4">
      <!-- 400 -->
      <defs>
       <path d="M 37.796875 64.3125 
L 12.890625 25.390625 
L 37.796875 25.390625 
z
M 35.203125 72.90625 
L 47.609375 72.90625 
L 47.609375 25.390625 
L 58.015625 25.390625 
L 58.015625 17.1875 
L 47.609375 17.1875 
L 47.609375 0 
L 37.796875 0 
L 37.796875 17.1875 
L 4.890625 17.1875 
L 4.890625 26.703125 
z
" id="DejaVuSans-52"/>
      </defs>
      <g transform="translate(289.241849 308.716563)scale(0.1 -0.1)">
       <use xlink:href="#DejaVuSans-52"/>
       <use x="63.623047" xlink:href="#DejaVuSans-48"/>
       <use x="127.246094" xlink:href="#DejaVuSans-48"/>
      </g>
     </g>
    </g>
    <g id="xtick_5">
     <g id="line2d_7">
      <g>
       <use style="stroke:#000000;stroke-width:0.8;" x="371.38277" xlink:href="#m9a56dc7304" y="294.118125"/>
      </g>
     </g>
     <g id="text_5">
      <!-- 500 -->
      <defs>
       <path d="M 10.796875 72.90625 
L 49.515625 72.90625 
L 49.515625 64.59375 
L 19.828125 64.59375 
L 19.828125 46.734375 
Q 21.96875 47.46875 24.109375 47.828125 
Q 26.265625 48.1875 28.421875 48.1875 
Q 40.625 48.1875 47.75 41.5 
Q 54.890625 34.8125 54.890625 23.390625 
Q 54.890625 11.625 47.5625 5.09375 
Q 40.234375 -1.421875 26.90625 -1.421875 
Q 22.3125 -1.421875 17.546875 -0.640625 
Q 12.796875 0.140625 7.71875 1.703125 
L 7.71875 11.625 
Q 12.109375 9.234375 16.796875 8.0625 
Q 21.484375 6.890625 26.703125 6.890625 
Q 35.15625 6.890625 40.078125 11.328125 
Q 45.015625 15.765625 45.015625 23.390625 
Q 45.015625 31 40.078125 35.4375 
Q 35.15625 39.890625 26.703125 39.890625 
Q 22.75 39.890625 18.8125 39.015625 
Q 14.890625 38.140625 10.796875 36.28125 
z
" id="DejaVuSans-53"/>
      </defs>
      <g transform="translate(361.83902 308.716563)scale(0.1 -0.1)">
       <use xlink:href="#DejaVuSans-53"/>
       <use x="63.623047" xlink:href="#DejaVuSans-48"/>
       <use x="127.246094" xlink:href="#DejaVuSans-48"/>
      </g>
     </g>
    </g>
    <g id="xtick_6">
     <g id="line2d_8">
      <g>
       <use style="stroke:#000000;stroke-width:0.8;" x="443.97994" xlink:href="#m9a56dc7304" y="294.118125"/>
      </g>
     </g>
     <g id="text_6">
      <!-- 600 -->
      <defs>
       <path d="M 33.015625 40.375 
Q 26.375 40.375 22.484375 35.828125 
Q 18.609375 31.296875 18.609375 23.390625 
Q 18.609375 15.53125 22.484375 10.953125 
Q 26.375 6.390625 33.015625 6.390625 
Q 39.65625 6.390625 43.53125 10.953125 
Q 47.40625 15.53125 47.40625 23.390625 
Q 47.40625 31.296875 43.53125 35.828125 
Q 39.65625 40.375 33.015625 40.375 
z
M 52.59375 71.296875 
L 52.59375 62.3125 
Q 48.875 64.0625 45.09375 64.984375 
Q 41.3125 65.921875 37.59375 65.921875 
Q 27.828125 65.921875 22.671875 59.328125 
Q 17.53125 52.734375 16.796875 39.40625 
Q 19.671875 43.65625 24.015625 45.921875 
Q 28.375 48.1875 33.59375 48.1875 
Q 44.578125 48.1875 50.953125 41.515625 
Q 57.328125 34.859375 57.328125 23.390625 
Q 57.328125 12.15625 50.6875 5.359375 
Q 44.046875 -1.421875 33.015625 -1.421875 
Q 20.359375 -1.421875 13.671875 8.265625 
Q 6.984375 17.96875 6.984375 36.375 
Q 6.984375 53.65625 15.1875 63.9375 
Q 23.390625 74.21875 37.203125 74.21875 
Q 40.921875 74.21875 44.703125 73.484375 
Q 48.484375 72.75 52.59375 71.296875 
z
" id="DejaVuSans-54"/>
      </defs>
      <g transform="translate(434.43619 308.716563)scale(0.1 -0.1)">
       <use xlink:href="#DejaVuSans-54"/>
       <use x="63.623047" xlink:href="#DejaVuSans-48"/>
       <use x="127.246094" xlink:href="#DejaVuSans-48"/>
      </g>
     </g>
    </g>
    <g id="text_7">
     <!-- Tempo -->
     <defs>
      <path d="M -0.296875 72.90625 
L 61.375 72.90625 
L 61.375 64.59375 
L 35.5 64.59375 
L 35.5 0 
L 25.59375 0 
L 25.59375 64.59375 
L -0.296875 64.59375 
z
" id="DejaVuSans-84"/>
      <path d="M 56.203125 29.59375 
L 56.203125 25.203125 
L 14.890625 25.203125 
Q 15.484375 15.921875 20.484375 11.0625 
Q 25.484375 6.203125 34.421875 6.203125 
Q 39.59375 6.203125 44.453125 7.46875 
Q 49.3125 8.734375 54.109375 11.28125 
L 54.109375 2.78125 
Q 49.265625 0.734375 44.1875 -0.34375 
Q 39.109375 -1.421875 33.890625 -1.421875 
Q 20.796875 -1.421875 13.15625 6.1875 
Q 5.515625 13.8125 5.515625 26.8125 
Q 5.515625 40.234375 12.765625 48.109375 
Q 20.015625 56 32.328125 56 
Q 43.359375 56 49.78125 48.890625 
Q 56.203125 41.796875 56.203125 29.59375 
z
M 47.21875 32.234375 
Q 47.125 39.59375 43.09375 43.984375 
Q 39.0625 48.390625 32.421875 48.390625 
Q 24.90625 48.390625 20.390625 44.140625 
Q 15.875 39.890625 15.1875 32.171875 
z
" id="DejaVuSans-101"/>
      <path d="M 52 44.1875 
Q 55.375 50.25 60.0625 53.125 
Q 64.75 56 71.09375 56 
Q 79.640625 56 84.28125 50.015625 
Q 88.921875 44.046875 88.921875 33.015625 
L 88.921875 0 
L 79.890625 0 
L 79.890625 32.71875 
Q 79.890625 40.578125 77.09375 44.375 
Q 74.3125 48.1875 68.609375 48.1875 
Q 61.625 48.1875 57.5625 43.546875 
Q 53.515625 38.921875 53.515625 30.90625 
L 53.515625 0 
L 44.484375 0 
L 44.484375 32.71875 
Q 44.484375 40.625 41.703125 44.40625 
Q 38.921875 48.1875 33.109375 48.1875 
Q 26.21875 48.1875 22.15625 43.53125 
Q 18.109375 38.875 18.109375 30.90625 
L 18.109375 0 
L 9.078125 0 
L 9.078125 54.6875 
L 18.109375 54.6875 
L 18.109375 46.1875 
Q 21.1875 51.21875 25.484375 53.609375 
Q 29.78125 56 35.6875 56 
Q 41.65625 56 45.828125 52.96875 
Q 50 49.953125 52 44.1875 
z
" id="DejaVuSans-109"/>
      <path d="M 18.109375 8.203125 
L 18.109375 -20.796875 
L 9.078125 -20.796875 
L 9.078125 54.6875 
L 18.109375 54.6875 
L 18.109375 46.390625 
Q 20.953125 51.265625 25.265625 53.625 
Q 29.59375 56 35.59375 56 
Q 45.5625 56 51.78125 48.09375 
Q 58.015625 40.1875 58.015625 27.296875 
Q 58.015625 14.40625 51.78125 6.484375 
Q 45.5625 -1.421875 35.59375 -1.421875 
Q 29.59375 -1.421875 25.265625 0.953125 
Q 20.953125 3.328125 18.109375 8.203125 
z
M 48.6875 27.296875 
Q 48.6875 37.203125 44.609375 42.84375 
Q 40.53125 48.484375 33.40625 48.484375 
Q 26.265625 48.484375 22.1875 42.84375 
Q 18.109375 37.203125 18.109375 27.296875 
Q 18.109375 17.390625 22.1875 11.75 
Q 26.265625 6.109375 33.40625 6.109375 
Q 40.53125 6.109375 44.609375 11.75 
Q 48.6875 17.390625 48.6875 27.296875 
z
" id="DejaVuSans-112"/>
      <path d="M 30.609375 48.390625 
Q 23.390625 48.390625 19.1875 42.75 
Q 14.984375 37.109375 14.984375 27.296875 
Q 14.984375 17.484375 19.15625 11.84375 
Q 23.34375 6.203125 30.609375 6.203125 
Q 37.796875 6.203125 41.984375 11.859375 
Q 46.1875 17.53125 46.1875 27.296875 
Q 46.1875 37.015625 41.984375 42.703125 
Q 37.796875 48.390625 30.609375 48.390625 
z
M 30.609375 56 
Q 42.328125 56 49.015625 48.375 
Q 55.71875 40.765625 55.71875 27.296875 
Q 55.71875 13.875 49.015625 6.21875 
Q 42.328125 -1.421875 30.609375 -1.421875 
Q 18.84375 -1.421875 12.171875 6.21875 
Q 5.515625 13.875 5.515625 27.296875 
Q 5.515625 40.765625 12.171875 48.375 
Q 18.84375 56 30.609375 56 
z
" id="DejaVuSans-111"/>
     </defs>
     <g transform="translate(246.465625 322.394687)scale(0.1 -0.1)">
      <use xlink:href="#DejaVuSans-84"/>
      <use x="44.083984" xlink:href="#DejaVuSans-101"/>
      <use x="105.607422" xlink:href="#DejaVuSans-109"/>
      <use x="203.019531" xlink:href="#DejaVuSans-112"/>
      <use x="266.496094" xlink:href="#DejaVuSans-111"/>
     </g>
    </g>
   </g>
   <g id="matplotlib.axis_2">
    <g id="ytick_1">
     <g id="line2d_9">
      <defs>
       <path d="M 0 0 
L -3.5 0 
" id="m7ef3533db6" style="stroke:#000000;stroke-width:0.8;"/>
      </defs>
      <g>
       <use style="stroke:#000000;stroke-width:0.8;" x="39.65" xlink:href="#m7ef3533db6" y="290.536038"/>
      </g>
     </g>
     <g id="text_8">
      <!-- 0 -->
      <g transform="translate(26.2875 294.335257)scale(0.1 -0.1)">
       <use xlink:href="#DejaVuSans-48"/>
      </g>
     </g>
    </g>
    <g id="ytick_2">
     <g id="line2d_10">
      <g>
       <use style="stroke:#000000;stroke-width:0.8;" x="39.65" xlink:href="#m7ef3533db6" y="253.984128"/>
      </g>
     </g>
     <g id="text_9">
      <!-- 500 -->
      <g transform="translate(13.5625 257.783347)scale(0.1 -0.1)">
       <use xlink:href="#DejaVuSans-53"/>
       <use x="63.623047" xlink:href="#DejaVuSans-48"/>
       <use x="127.246094" xlink:href="#DejaVuSans-48"/>
      </g>
     </g>
    </g>
    <g id="ytick_3">
     <g id="line2d_11">
      <g>
       <use style="stroke:#000000;stroke-width:0.8;" x="39.65" xlink:href="#m7ef3533db6" y="217.432219"/>
      </g>
     </g>
     <g id="text_10">
      <!-- 1000 -->
      <g transform="translate(7.2 221.231437)scale(0.1 -0.1)">
       <use xlink:href="#DejaVuSans-49"/>
       <use x="63.623047" xlink:href="#DejaVuSans-48"/>
       <use x="127.246094" xlink:href="#DejaVuSans-48"/>
       <use x="190.869141" xlink:href="#DejaVuSans-48"/>
      </g>
     </g>
    </g>
    <g id="ytick_4">
     <g id="line2d_12">
      <g>
       <use style="stroke:#000000;stroke-width:0.8;" x="39.65" xlink:href="#m7ef3533db6" y="180.880309"/>
      </g>
     </g>
     <g id="text_11">
      <!-- 1500 -->
      <g transform="translate(7.2 184.679528)scale(0.1 -0.1)">
       <use xlink:href="#DejaVuSans-49"/>
       <use x="63.623047" xlink:href="#DejaVuSans-53"/>
       <use x="127.246094" xlink:href="#DejaVuSans-48"/>
       <use x="190.869141" xlink:href="#DejaVuSans-48"/>
      </g>
     </g>
    </g>
    <g id="ytick_5">
     <g id="line2d_13">
      <g>
       <use style="stroke:#000000;stroke-width:0.8;" x="39.65" xlink:href="#m7ef3533db6" y="144.328399"/>
      </g>
     </g>
     <g id="text_12">
      <!-- 2000 -->
      <g transform="translate(7.2 148.127618)scale(0.1 -0.1)">
       <use xlink:href="#DejaVuSans-50"/>
       <use x="63.623047" xlink:href="#DejaVuSans-48"/>
       <use x="127.246094" xlink:href="#DejaVuSans-48"/>
       <use x="190.869141" xlink:href="#DejaVuSans-48"/>
      </g>
     </g>
    </g>
    <g id="ytick_6">
     <g id="line2d_14">
      <g>
       <use style="stroke:#000000;stroke-width:0.8;" x="39.65" xlink:href="#m7ef3533db6" y="107.77649"/>
      </g>
     </g>
     <g id="text_13">
      <!-- 2500 -->
      <g transform="translate(7.2 111.575708)scale(0.1 -0.1)">
       <use xlink:href="#DejaVuSans-50"/>
       <use x="63.623047" xlink:href="#DejaVuSans-53"/>
       <use x="127.246094" xlink:href="#DejaVuSans-48"/>
       <use x="190.869141" xlink:href="#DejaVuSans-48"/>
      </g>
     </g>
    </g>
    <g id="ytick_7">
     <g id="line2d_15">
      <g>
       <use style="stroke:#000000;stroke-width:0.8;" x="39.65" xlink:href="#m7ef3533db6" y="71.22458"/>
      </g>
     </g>
     <g id="text_14">
      <!-- 3000 -->
      <g transform="translate(7.2 75.023799)scale(0.1 -0.1)">
       <use xlink:href="#DejaVuSans-51"/>
       <use x="63.623047" xlink:href="#DejaVuSans-48"/>
       <use x="127.246094" xlink:href="#DejaVuSans-48"/>
       <use x="190.869141" xlink:href="#DejaVuSans-48"/>
      </g>
     </g>
    </g>
    <g id="ytick_8">
     <g id="line2d_16">
      <g>
       <use style="stroke:#000000;stroke-width:0.8;" x="39.65" xlink:href="#m7ef3533db6" y="34.67267"/>
      </g>
     </g>
     <g id="text_15">
      <!-- 3500 -->
      <g transform="translate(7.2 38.471889)scale(0.1 -0.1)">
       <use xlink:href="#DejaVuSans-51"/>
       <use x="63.623047" xlink:href="#DejaVuSans-53"/>
       <use x="127.246094" xlink:href="#DejaVuSans-48"/>
       <use x="190.869141" xlink:href="#DejaVuSans-48"/>
      </g>
     </g>
    </g>
   </g>
   <g id="patch_3">
    <path d="M 39.65 294.118125 
L 39.65 22.318125 
" style="fill:none;stroke:#000000;stroke-linecap:square;stroke-linejoin:miter;stroke-width:0.8;"/>
   </g>
   <g id="patch_4">
    <path d="M 39.65 294.118125 
L 486.05 294.118125 
" style="fill:none;stroke:#000000;stroke-linecap:square;stroke-linejoin:miter;stroke-width:0.8;"/>
   </g>
   <g id="text_16">
    <!-- EL -->
    <defs>
     <path d="M 9.8125 72.90625 
L 55.90625 72.90625 
L 55.90625 64.59375 
L 19.671875 64.59375 
L 19.671875 43.015625 
L 54.390625 43.015625 
L 54.390625 34.71875 
L 19.671875 34.71875 
L 19.671875 8.296875 
L 56.78125 8.296875 
L 56.78125 0 
L 9.8125 0 
z
" id="DejaVuSans-69"/>
     <path d="M 9.8125 72.90625 
L 19.671875 72.90625 
L 19.671875 8.296875 
L 55.171875 8.296875 
L 55.171875 0 
L 9.8125 0 
z
" id="DejaVuSans-76"/>
    </defs>
    <g transform="translate(255.715625 16.318125)scale(0.12 -0.12)">
     <use xlink:href="#DejaVuSans-69"/>
     <use x="63.183594" xlink:href="#DejaVuSans-76"/>
    </g>
   </g>
   <g id="legend_1">
    <g id="patch_5">
     <path d="M 493.05 174.457188 
L 584.95 174.457188 
Q 586.95 174.457188 586.95 172.457188 
L 586.95 143.979063 
Q 586.95 141.979063 584.95 141.979063 
L 493.05 141.979063 
Q 491.05 141.979063 491.05 143.979063 
L 491.05 172.457188 
Q 491.05 174.457188 493.05 174.457188 
z
" style="fill:#ffffff;opacity:0.8;stroke:#cccccc;stroke-linejoin:miter;"/>
    </g>
    <g id="line2d_17">
     <path d="M 495.05 150.0775 
L 515.05 150.0775 
" style="fill:none;stroke:#000000;stroke-dasharray:3.7,1.6;stroke-dashoffset:0;"/>
    </g>
    <g id="line2d_18"/>
    <g id="text_17">
     <!-- Baseline -->
     <defs>
      <path d="M 19.671875 34.8125 
L 19.671875 8.109375 
L 35.5 8.109375 
Q 43.453125 8.109375 47.28125 11.40625 
Q 51.125 14.703125 51.125 21.484375 
Q 51.125 28.328125 47.28125 31.5625 
Q 43.453125 34.8125 35.5 34.8125 
z
M 19.671875 64.796875 
L 19.671875 42.828125 
L 34.28125 42.828125 
Q 41.5 42.828125 45.03125 45.53125 
Q 48.578125 48.25 48.578125 53.8125 
Q 48.578125 59.328125 45.03125 62.0625 
Q 41.5 64.796875 34.28125 64.796875 
z
M 9.8125 72.90625 
L 35.015625 72.90625 
Q 46.296875 72.90625 52.390625 68.21875 
Q 58.5 63.53125 58.5 54.890625 
Q 58.5 48.1875 55.375 44.234375 
Q 52.25 40.28125 46.1875 39.3125 
Q 53.46875 37.75 57.5 32.78125 
Q 61.53125 27.828125 61.53125 20.40625 
Q 61.53125 10.640625 54.890625 5.3125 
Q 48.25 0 35.984375 0 
L 9.8125 0 
z
" id="DejaVuSans-66"/>
      <path d="M 34.28125 27.484375 
Q 23.390625 27.484375 19.1875 25 
Q 14.984375 22.515625 14.984375 16.5 
Q 14.984375 11.71875 18.140625 8.90625 
Q 21.296875 6.109375 26.703125 6.109375 
Q 34.1875 6.109375 38.703125 11.40625 
Q 43.21875 16.703125 43.21875 25.484375 
L 43.21875 27.484375 
z
M 52.203125 31.203125 
L 52.203125 0 
L 43.21875 0 
L 43.21875 8.296875 
Q 40.140625 3.328125 35.546875 0.953125 
Q 30.953125 -1.421875 24.3125 -1.421875 
Q 15.921875 -1.421875 10.953125 3.296875 
Q 6 8.015625 6 15.921875 
Q 6 25.140625 12.171875 29.828125 
Q 18.359375 34.515625 30.609375 34.515625 
L 43.21875 34.515625 
L 43.21875 35.40625 
Q 43.21875 41.609375 39.140625 45 
Q 35.0625 48.390625 27.6875 48.390625 
Q 23 48.390625 18.546875 47.265625 
Q 14.109375 46.140625 10.015625 43.890625 
L 10.015625 52.203125 
Q 14.9375 54.109375 19.578125 55.046875 
Q 24.21875 56 28.609375 56 
Q 40.484375 56 46.34375 49.84375 
Q 52.203125 43.703125 52.203125 31.203125 
z
" id="DejaVuSans-97"/>
      <path d="M 44.28125 53.078125 
L 44.28125 44.578125 
Q 40.484375 46.53125 36.375 47.5 
Q 32.28125 48.484375 27.875 48.484375 
Q 21.1875 48.484375 17.84375 46.4375 
Q 14.5 44.390625 14.5 40.28125 
Q 14.5 37.15625 16.890625 35.375 
Q 19.28125 33.59375 26.515625 31.984375 
L 29.59375 31.296875 
Q 39.15625 29.25 43.1875 25.515625 
Q 47.21875 21.78125 47.21875 15.09375 
Q 47.21875 7.46875 41.1875 3.015625 
Q 35.15625 -1.421875 24.609375 -1.421875 
Q 20.21875 -1.421875 15.453125 -0.5625 
Q 10.6875 0.296875 5.421875 2 
L 5.421875 11.28125 
Q 10.40625 8.6875 15.234375 7.390625 
Q 20.0625 6.109375 24.8125 6.109375 
Q 31.15625 6.109375 34.5625 8.28125 
Q 37.984375 10.453125 37.984375 14.40625 
Q 37.984375 18.0625 35.515625 20.015625 
Q 33.0625 21.96875 24.703125 23.78125 
L 21.578125 24.515625 
Q 13.234375 26.265625 9.515625 29.90625 
Q 5.8125 33.546875 5.8125 39.890625 
Q 5.8125 47.609375 11.28125 51.796875 
Q 16.75 56 26.8125 56 
Q 31.78125 56 36.171875 55.265625 
Q 40.578125 54.546875 44.28125 53.078125 
z
" id="DejaVuSans-115"/>
      <path d="M 9.421875 75.984375 
L 18.40625 75.984375 
L 18.40625 0 
L 9.421875 0 
z
" id="DejaVuSans-108"/>
      <path d="M 9.421875 54.6875 
L 18.40625 54.6875 
L 18.40625 0 
L 9.421875 0 
z
M 9.421875 75.984375 
L 18.40625 75.984375 
L 18.40625 64.59375 
L 9.421875 64.59375 
z
" id="DejaVuSans-105"/>
      <path d="M 54.890625 33.015625 
L 54.890625 0 
L 45.90625 0 
L 45.90625 32.71875 
Q 45.90625 40.484375 42.875 44.328125 
Q 39.84375 48.1875 33.796875 48.1875 
Q 26.515625 48.1875 22.3125 43.546875 
Q 18.109375 38.921875 18.109375 30.90625 
L 18.109375 0 
L 9.078125 0 
L 9.078125 54.6875 
L 18.109375 54.6875 
L 18.109375 46.1875 
Q 21.34375 51.125 25.703125 53.5625 
Q 30.078125 56 35.796875 56 
Q 45.21875 56 50.046875 50.171875 
Q 54.890625 44.34375 54.890625 33.015625 
z
" id="DejaVuSans-110"/>
     </defs>
     <g transform="translate(523.05 153.5775)scale(0.1 -0.1)">
      <use xlink:href="#DejaVuSans-66"/>
      <use x="68.603516" xlink:href="#DejaVuSans-97"/>
      <use x="129.882812" xlink:href="#DejaVuSans-115"/>
      <use x="181.982422" xlink:href="#DejaVuSans-101"/>
      <use x="243.505859" xlink:href="#DejaVuSans-108"/>
      <use x="271.289062" xlink:href="#DejaVuSans-105"/>
      <use x="299.072266" xlink:href="#DejaVuSans-110"/>
      <use x="362.451172" xlink:href="#DejaVuSans-101"/>
     </g>
    </g>
    <g id="line2d_19">
     <path d="M 495.05 164.857188 
L 515.05 164.857188 
" style="fill:none;stroke:#1f77b4;stroke-linecap:square;stroke-width:1.5;"/>
    </g>
    <g id="line2d_20"/>
    <g id="text_18">
     <!-- $\Uparrow \beta$ (shape) -->
     <defs>
      <path d="M 36.765625 58.59375 
L 36.765625 0 
L 30.90625 0 
L 30.90625 52.734375 
L 26.421875 48.140625 
L 20.5625 54 
L 39.703125 73.25 
L 44.09375 73.25 
L 63.328125 54 
L 57.46875 48.140625 
L 52.875 52.734375 
L 52.875 0 
L 47.015625 0 
L 47.015625 58.59375 
L 41.9375 63.671875 
z
" id="DejaVuSans-8657"/>
      <path d="M 13.625 3.375 
L 8.9375 -20.796875 
L -0.09375 -20.796875 
L 14.5 54.34375 
Q 18.84375 76.609375 39.65625 76.609375 
Q 60.75 76.609375 57.171875 57.8125 
Q 54.734375 44.4375 45.21875 39.546875 
Q 58.015625 35.15625 55.515625 22.125 
Q 51.125 -1.078125 27.484375 -1.03125 
Q 17.140625 -0.984375 13.625 3.375 
z
M 15.921875 15.09375 
Q 19.671875 6.59375 29.296875 6.640625 
Q 43.359375 6.640625 46.34375 21.96875 
Q 49.03125 35.75 26.171875 34.671875 
L 27.78125 42.96875 
Q 45.453125 42.671875 48.53125 58.59375 
Q 50.640625 69.34375 39.203125 69.28125 
Q 26.421875 69.28125 23.484375 54.046875 
z
" id="DejaVuSans-Oblique-946"/>
      <path id="DejaVuSans-32"/>
      <path d="M 31 75.875 
Q 24.46875 64.65625 21.28125 53.65625 
Q 18.109375 42.671875 18.109375 31.390625 
Q 18.109375 20.125 21.3125 9.0625 
Q 24.515625 -2 31 -13.1875 
L 23.1875 -13.1875 
Q 15.875 -1.703125 12.234375 9.375 
Q 8.59375 20.453125 8.59375 31.390625 
Q 8.59375 42.28125 12.203125 53.3125 
Q 15.828125 64.359375 23.1875 75.875 
z
" id="DejaVuSans-40"/>
      <path d="M 54.890625 33.015625 
L 54.890625 0 
L 45.90625 0 
L 45.90625 32.71875 
Q 45.90625 40.484375 42.875 44.328125 
Q 39.84375 48.1875 33.796875 48.1875 
Q 26.515625 48.1875 22.3125 43.546875 
Q 18.109375 38.921875 18.109375 30.90625 
L 18.109375 0 
L 9.078125 0 
L 9.078125 75.984375 
L 18.109375 75.984375 
L 18.109375 46.1875 
Q 21.34375 51.125 25.703125 53.5625 
Q 30.078125 56 35.796875 56 
Q 45.21875 56 50.046875 50.171875 
Q 54.890625 44.34375 54.890625 33.015625 
z
" id="DejaVuSans-104"/>
      <path d="M 8.015625 75.875 
L 15.828125 75.875 
Q 23.140625 64.359375 26.78125 53.3125 
Q 30.421875 42.28125 30.421875 31.390625 
Q 30.421875 20.453125 26.78125 9.375 
Q 23.140625 -1.703125 15.828125 -13.1875 
L 8.015625 -13.1875 
Q 14.5 -2 17.703125 9.0625 
Q 20.90625 20.125 20.90625 31.390625 
Q 20.90625 42.671875 17.703125 53.65625 
Q 14.5 64.65625 8.015625 75.875 
z
" id="DejaVuSans-41"/>
     </defs>
     <g transform="translate(523.05 168.357188)scale(0.1 -0.1)">
      <use transform="translate(19.482422 0.390625)" xlink:href="#DejaVuSans-8657"/>
      <use transform="translate(122.753906 0.390625)" xlink:href="#DejaVuSans-Oblique-946"/>
      <use transform="translate(186.572266 0.390625)" xlink:href="#DejaVuSans-32"/>
      <use transform="translate(218.359375 0.390625)" xlink:href="#DejaVuSans-40"/>
      <use transform="translate(257.373047 0.390625)" xlink:href="#DejaVuSans-115"/>
      <use transform="translate(309.472656 0.390625)" xlink:href="#DejaVuSans-104"/>
      <use transform="translate(372.851562 0.390625)" xlink:href="#DejaVuSans-97"/>
      <use transform="translate(434.130859 0.390625)" xlink:href="#DejaVuSans-112"/>
      <use transform="translate(497.607422 0.390625)" xlink:href="#DejaVuSans-101"/>
      <use transform="translate(559.130859 0.390625)" xlink:href="#DejaVuSans-41"/>
     </g>
    </g>
   </g>
  </g>
 </g>
 <defs>
  <clipPath id="p7e38407700">
   <rect height="271.8" width="446.4" x="39.65" y="22.318125"/>
  </clipPath>
 </defs>
</svg>
