<?xml version="1.0" encoding="utf-8" standalone="no"?>
<!DOCTYPE svg PUBLIC "-//W3C//DTD SVG 1.1//EN"
  "http://www.w3.org/Graphics/SVG/1.1/DTD/svg11.dtd">
<!-- Created with matplotlib (https://matplotlib.org/) -->
<svg height="331.674375pt" version="1.1" viewBox="0 0 592.982812 331.674375" width="592.982812pt" xmlns="http://www.w3.org/2000/svg" xmlns:xlink="http://www.w3.org/1999/xlink">
 <defs>
  <style type="text/css">
*{stroke-linecap:butt;stroke-linejoin:round;}
  </style>
 </defs>
 <g id="figure_1">
  <g id="patch_1">
   <path d="M 0 331.674375 
L 592.982812 331.674375 
L 592.982812 0 
L 0 0 
z
" style="fill:#ffffff;"/>
  </g>
  <g id="axes_1">
   <g id="patch_2">
    <path d="M 38.482813 294.118125 
L 484.882812 294.118125 
L 484.882812 22.318125 
L 38.482813 22.318125 
z
" style="fill:#ffffff;"/>
   </g>
   <g id="line2d_1">
    <path clip-path="url(#p21412c168e)" d="M 58.773722 281.021204 
L 60.225665 281.124898 
L 63.855524 281.256381 
L 74.019127 281.645087 
L 80.552873 281.743523 
L 84.182731 281.754821 
L 89.264533 281.59881 
L 95.798278 281.158229 
L 98.702165 280.7606 
L 100.154109 280.544607 
L 101.606052 280.288846 
L 104.509939 279.382955 
L 107.413826 278.176342 
L 108.865769 277.113185 
L 109.591741 276.493875 
L 110.317712 276.057213 
L 111.043684 275.361681 
L 111.769656 274.475486 
L 113.221599 272.152327 
L 115.399514 267.140191 
L 116.125486 264.783147 
L 116.851458 261.864368 
L 117.57743 260.008404 
L 118.303401 256.676281 
L 119.029373 252.521585 
L 119.755345 247.234648 
L 120.481316 244.625431 
L 121.93326 235.033269 
L 124.111175 212.463432 
L 127.015062 172.711349 
L 127.741033 160.377144 
L 128.467005 154.157178 
L 132.096864 91.233001 
L 132.822835 90.036082 
L 133.548807 79.12716 
L 134.274779 78.414352 
L 135.00075 70.765232 
L 135.726722 61.883 
L 136.452694 55.980534 
L 137.904637 42.499883 
L 138.630609 40.606233 
L 139.356581 34.67267 
L 140.082552 47.053567 
L 140.808524 49.399688 
L 141.534496 48.145483 
L 142.260467 47.886922 
L 142.986439 46.71267 
L 143.712411 44.320989 
L 144.438383 46.739733 
L 145.164354 51.117458 
L 145.890326 62.013251 
L 146.616298 64.291294 
L 147.342269 65.353102 
L 148.068241 67.469192 
L 149.520184 77.43688 
L 150.246156 79.433259 
L 150.972128 83.410428 
L 151.6981 100.080708 
L 152.424071 108.272843 
L 153.876015 115.837538 
L 155.327958 126.269727 
L 156.05393 132.320755 
L 156.779901 137.330459 
L 157.505873 140.313542 
L 158.231845 146.221877 
L 160.40976 157.389523 
L 161.135732 159.607691 
L 161.861703 164.6768 
L 162.587675 167.109108 
L 163.313647 170.58927 
L 164.039618 180.387224 
L 166.943505 191.081527 
L 167.669477 192.629911 
L 168.395449 194.58958 
L 169.12142 195.844712 
L 169.847392 197.973615 
L 170.573364 204.460999 
L 171.299336 206.210542 
L 172.025307 214.093858 
L 173.477251 217.105278 
L 174.203222 218.829275 
L 174.929194 221.959879 
L 176.381137 226.392834 
L 177.107109 228.689448 
L 178.559053 231.26209 
L 179.285024 233.216251 
L 180.010996 234.209436 
L 182.188911 243.051501 
L 183.640854 245.088778 
L 184.366826 248.480372 
L 185.092798 249.438103 
L 185.81877 250.18896 
L 186.544741 251.28368 
L 188.722656 252.703802 
L 189.448628 253.588912 
L 190.1746 255.415741 
L 190.900571 255.619575 
L 191.626543 257.145938 
L 192.352515 258.293093 
L 193.078487 258.863042 
L 193.804458 260.144912 
L 194.53043 261.028264 
L 195.256402 261.430366 
L 196.708345 261.654786 
L 197.434317 261.829433 
L 198.160289 262.716493 
L 198.88626 263.340419 
L 199.612232 263.585934 
L 200.338204 263.638034 
L 201.064175 264.399957 
L 201.790147 264.77565 
L 202.516119 265.479398 
L 203.24209 265.56164 
L 203.968062 265.528597 
L 204.694034 265.88012 
L 205.420006 265.989872 
L 206.145977 265.745044 
L 206.871949 265.924386 
L 209.049864 264.992743 
L 209.775836 264.501718 
L 210.501807 264.484237 
L 212.679723 262.449299 
L 214.131666 261.825702 
L 216.309581 259.159651 
L 219.213468 254.946906 
L 221.391383 250.384394 
L 222.843326 246.396839 
L 223.569298 245.428305 
L 225.747213 238.803567 
L 226.473185 237.280707 
L 227.199157 234.446769 
L 227.925128 232.154349 
L 230.103043 223.43971 
L 230.829015 220.330085 
L 231.554987 219.030668 
L 233.00693 212.334162 
L 233.732902 207.947475 
L 234.458874 204.570773 
L 235.184845 199.908321 
L 235.910817 196.461332 
L 237.36276 186.883338 
L 238.088732 183.176431 
L 238.814704 178.360713 
L 239.540676 177.612998 
L 243.170534 155.261525 
L 243.896506 152.244543 
L 244.622477 146.569193 
L 245.348449 149.585102 
L 246.800393 141.137261 
L 247.526364 143.297078 
L 248.978308 137.364347 
L 249.704279 139.08158 
L 250.430251 136.999435 
L 251.156223 140.582771 
L 251.882195 141.519842 
L 252.608166 141.170837 
L 253.334138 140.146698 
L 254.06011 139.428453 
L 254.786081 139.200232 
L 256.238025 144.227069 
L 256.963996 144.033054 
L 257.689968 144.693904 
L 258.41594 148.928927 
L 259.141912 148.21493 
L 259.867883 153.913849 
L 260.593855 156.607151 
L 261.319827 158.265557 
L 262.045798 162.566103 
L 262.77177 165.638279 
L 263.497742 166.704341 
L 264.223713 170.606908 
L 264.949685 172.178951 
L 265.675657 174.101145 
L 266.401629 174.651795 
L 267.1276 179.121488 
L 267.853572 179.929247 
L 268.579544 181.268951 
L 269.305515 183.292513 
L 270.031487 183.878059 
L 271.48343 186.444182 
L 272.935374 188.569471 
L 273.661346 191.734638 
L 274.387317 193.807991 
L 275.113289 195.22696 
L 275.839261 196.088412 
L 277.291204 198.521559 
L 278.017176 199.14443 
L 278.743148 199.588063 
L 279.469119 200.366835 
L 280.195091 200.130935 
L 280.921063 200.693679 
L 281.647034 202.746457 
L 282.373006 203.310112 
L 283.098978 206.294934 
L 284.550921 208.522337 
L 285.276893 210.551166 
L 286.002865 211.127021 
L 286.728836 214.218914 
L 287.454808 215.59799 
L 288.18078 217.324638 
L 288.906751 217.963434 
L 289.632723 218.340732 
L 290.358695 218.36859 
L 291.810638 217.978181 
L 292.53661 218.179345 
L 293.262582 217.870646 
L 293.988553 218.017215 
L 294.714525 217.713403 
L 295.440497 217.738751 
L 296.89244 216.696041 
L 298.344383 215.219189 
L 299.070355 214.235786 
L 299.796327 214.003215 
L 300.522299 213.198811 
L 301.24827 215.573345 
L 301.974242 214.776657 
L 302.700214 214.603917 
L 303.426185 213.899785 
L 304.878129 211.722526 
L 305.604101 211.845328 
L 306.330072 213.263271 
L 307.056044 213.429784 
L 307.782016 216.024837 
L 308.507987 216.880943 
L 309.233959 218.123346 
L 312.137846 216.363088 
L 313.589789 215.899934 
L 314.315761 215.24865 
L 315.041733 214.340496 
L 315.767704 213.250859 
L 316.493676 212.833366 
L 317.219648 212.286579 
L 317.945619 214.256467 
L 320.123535 211.576281 
L 320.849506 211.444855 
L 321.575478 210.350916 
L 322.30145 212.116194 
L 323.027421 212.634945 
L 323.753393 212.125001 
L 325.205336 209.847424 
L 325.931308 211.040171 
L 326.65728 211.998144 
L 327.383252 212.709025 
L 328.109223 212.039654 
L 328.835195 212.328131 
L 329.561167 211.723853 
L 330.287138 213.890204 
L 331.01311 213.416157 
L 331.739082 212.732642 
L 332.465054 213.710818 
L 333.191025 212.932089 
L 333.916997 212.643258 
L 334.642969 213.774496 
L 335.36894 214.210114 
L 336.094912 213.87577 
L 336.820884 215.2517 
L 337.546855 215.905076 
L 338.272827 217.014528 
L 338.998799 217.72325 
L 339.724771 217.370232 
L 340.450742 217.192645 
L 341.176714 218.196858 
L 341.902686 218.605676 
L 342.628657 218.063855 
L 343.354629 217.780615 
L 344.080601 218.684311 
L 344.806572 218.019267 
L 345.532544 218.020973 
L 346.258516 218.8987 
L 346.984488 218.065522 
L 347.710459 219.419013 
L 348.436431 218.948499 
L 349.162403 219.919425 
L 350.614346 220.547052 
L 351.340318 220.752779 
L 352.792261 219.995302 
L 353.518233 220.154249 
L 354.244205 219.61493 
L 354.970176 218.846123 
L 355.696148 219.329914 
L 356.42212 218.686978 
L 357.148091 218.817355 
L 357.874063 217.967439 
L 360.051978 216.169177 
L 360.77795 215.134803 
L 361.503922 213.875809 
L 362.229893 213.867958 
L 362.955865 213.711842 
L 363.681837 212.624724 
L 364.407808 212.346457 
L 365.13378 212.318597 
L 365.859752 212.137361 
L 367.311695 210.377553 
L 368.037667 209.618912 
L 368.763639 208.67991 
L 369.48961 208.621195 
L 370.215582 207.809119 
L 370.941554 207.895839 
L 371.667525 207.759098 
L 372.393497 206.986215 
L 373.119469 206.973354 
L 374.571412 205.112356 
L 375.297384 204.982886 
L 376.023356 205.021435 
L 376.749327 204.938893 
L 377.475299 204.105917 
L 378.201271 203.45989 
L 378.927242 203.641191 
L 382.557101 199.901985 
L 383.283073 198.730635 
L 384.009044 197.8447 
L 384.735016 197.527392 
L 385.460988 196.50501 
L 386.18696 195.843053 
L 386.912931 195.875925 
L 387.638903 195.052588 
L 388.364875 195.091801 
L 389.816818 193.798527 
L 390.54279 194.076328 
L 391.268761 194.045056 
L 392.720705 192.868097 
L 393.446677 192.475451 
L 394.89862 190.804644 
L 396.350563 190.876947 
L 399.980422 187.500603 
L 400.706394 187.122639 
L 401.432365 186.16484 
L 402.158337 185.562341 
L 402.884309 185.752026 
L 403.61028 184.742062 
L 404.336252 184.192078 
L 405.788195 182.753848 
L 407.240139 181.075399 
L 408.692082 179.719061 
L 409.418054 180.314255 
L 410.144026 179.725954 
L 410.869997 180.745289 
L 412.321941 179.973044 
L 413.047913 181.109178 
L 414.499856 180.803577 
L 415.225828 180.94819 
L 415.951799 180.820668 
L 416.677771 180.516152 
L 417.403743 181.640396 
L 418.855686 181.970572 
L 419.581658 183.543054 
L 420.30763 183.993871 
L 421.033601 184.642118 
L 421.759573 185.061114 
L 425.389431 193.673974 
L 426.115403 194.895432 
L 428.293318 200.112222 
L 429.01929 201.392467 
L 429.745262 203.108206 
L 430.471233 204.364953 
L 431.197205 205.957046 
L 433.37512 208.820349 
L 434.827064 211.550507 
L 435.553035 212.774245 
L 436.279007 213.647881 
L 437.004979 214.818191 
L 437.73095 215.658107 
L 438.456922 216.678373 
L 439.182894 217.408875 
L 440.634837 219.322794 
L 442.086781 221.165511 
L 442.812752 221.796292 
L 443.538724 222.613234 
L 444.990667 223.691067 
L 445.716639 223.965185 
L 446.442611 224.500248 
L 447.894554 224.957513 
L 450.072469 226.158918 
L 452.250384 226.86438 
L 455.154271 226.785319 
L 456.606215 226.521045 
L 457.332186 226.443305 
L 459.510101 225.664849 
L 461.688017 224.780393 
L 463.865932 223.690824 
L 464.591903 223.363627 
L 464.591903 223.363627 
" style="fill:none;stroke:#1f77b4;stroke-linecap:square;stroke-width:1.5;"/>
   </g>
   <g id="line2d_2">
    <path clip-path="url(#p21412c168e)" d="M 58.773722 218.390273 
L 464.591903 218.390273 
L 464.591903 218.390273 
" style="fill:none;stroke:#000000;stroke-dasharray:3.7,1.6;stroke-dashoffset:0;"/>
   </g>
   <g id="matplotlib.axis_1">
    <g id="xtick_1">
     <g id="line2d_3">
      <defs>
       <path d="M 0 0 
L 0 3.5 
" id="ma01e0f2461" style="stroke:#000000;stroke-width:0.8;"/>
      </defs>
      <g>
       <use style="stroke:#000000;stroke-width:0.8;" x="79.826901" xlink:href="#ma01e0f2461" y="294.118125"/>
      </g>
     </g>
     <g id="text_1">
      <!-- 100 -->
      <defs>
       <path d="M 12.40625 8.296875 
L 28.515625 8.296875 
L 28.515625 63.921875 
L 10.984375 60.40625 
L 10.984375 69.390625 
L 28.421875 72.90625 
L 38.28125 72.90625 
L 38.28125 8.296875 
L 54.390625 8.296875 
L 54.390625 0 
L 12.40625 0 
z
" id="DejaVuSans-49"/>
       <path d="M 31.78125 66.40625 
Q 24.171875 66.40625 20.328125 58.90625 
Q 16.5 51.421875 16.5 36.375 
Q 16.5 21.390625 20.328125 13.890625 
Q 24.171875 6.390625 31.78125 6.390625 
Q 39.453125 6.390625 43.28125 13.890625 
Q 47.125 21.390625 47.125 36.375 
Q 47.125 51.421875 43.28125 58.90625 
Q 39.453125 66.40625 31.78125 66.40625 
z
M 31.78125 74.21875 
Q 44.046875 74.21875 50.515625 64.515625 
Q 56.984375 54.828125 56.984375 36.375 
Q 56.984375 17.96875 50.515625 8.265625 
Q 44.046875 -1.421875 31.78125 -1.421875 
Q 19.53125 -1.421875 13.0625 8.265625 
Q 6.59375 17.96875 6.59375 36.375 
Q 6.59375 54.828125 13.0625 64.515625 
Q 19.53125 74.21875 31.78125 74.21875 
z
" id="DejaVuSans-48"/>
      </defs>
      <g transform="translate(70.283151 308.716563)scale(0.1 -0.1)">
       <use xlink:href="#DejaVuSans-49"/>
       <use x="63.623047" xlink:href="#DejaVuSans-48"/>
       <use x="127.246094" xlink:href="#DejaVuSans-48"/>
      </g>
     </g>
    </g>
    <g id="xtick_2">
     <g id="line2d_4">
      <g>
       <use style="stroke:#000000;stroke-width:0.8;" x="152.424071" xlink:href="#ma01e0f2461" y="294.118125"/>
      </g>
     </g>
     <g id="text_2">
      <!-- 200 -->
      <defs>
       <path d="M 19.1875 8.296875 
L 53.609375 8.296875 
L 53.609375 0 
L 7.328125 0 
L 7.328125 8.296875 
Q 12.9375 14.109375 22.625 23.890625 
Q 32.328125 33.6875 34.8125 36.53125 
Q 39.546875 41.84375 41.421875 45.53125 
Q 43.3125 49.21875 43.3125 52.78125 
Q 43.3125 58.59375 39.234375 62.25 
Q 35.15625 65.921875 28.609375 65.921875 
Q 23.96875 65.921875 18.8125 64.3125 
Q 13.671875 62.703125 7.8125 59.421875 
L 7.8125 69.390625 
Q 13.765625 71.78125 18.9375 73 
Q 24.125 74.21875 28.421875 74.21875 
Q 39.75 74.21875 46.484375 68.546875 
Q 53.21875 62.890625 53.21875 53.421875 
Q 53.21875 48.921875 51.53125 44.890625 
Q 49.859375 40.875 45.40625 35.40625 
Q 44.1875 33.984375 37.640625 27.21875 
Q 31.109375 20.453125 19.1875 8.296875 
z
" id="DejaVuSans-50"/>
      </defs>
      <g transform="translate(142.880321 308.716563)scale(0.1 -0.1)">
       <use xlink:href="#DejaVuSans-50"/>
       <use x="63.623047" xlink:href="#DejaVuSans-48"/>
       <use x="127.246094" xlink:href="#DejaVuSans-48"/>
      </g>
     </g>
    </g>
    <g id="xtick_3">
     <g id="line2d_5">
      <g>
       <use style="stroke:#000000;stroke-width:0.8;" x="225.021242" xlink:href="#ma01e0f2461" y="294.118125"/>
      </g>
     </g>
     <g id="text_3">
      <!-- 300 -->
      <defs>
       <path d="M 40.578125 39.3125 
Q 47.65625 37.796875 51.625 33 
Q 55.609375 28.21875 55.609375 21.1875 
Q 55.609375 10.40625 48.1875 4.484375 
Q 40.765625 -1.421875 27.09375 -1.421875 
Q 22.515625 -1.421875 17.65625 -0.515625 
Q 12.796875 0.390625 7.625 2.203125 
L 7.625 11.71875 
Q 11.71875 9.328125 16.59375 8.109375 
Q 21.484375 6.890625 26.8125 6.890625 
Q 36.078125 6.890625 40.9375 10.546875 
Q 45.796875 14.203125 45.796875 21.1875 
Q 45.796875 27.640625 41.28125 31.265625 
Q 36.765625 34.90625 28.71875 34.90625 
L 20.21875 34.90625 
L 20.21875 43.015625 
L 29.109375 43.015625 
Q 36.375 43.015625 40.234375 45.921875 
Q 44.09375 48.828125 44.09375 54.296875 
Q 44.09375 59.90625 40.109375 62.90625 
Q 36.140625 65.921875 28.71875 65.921875 
Q 24.65625 65.921875 20.015625 65.03125 
Q 15.375 64.15625 9.8125 62.3125 
L 9.8125 71.09375 
Q 15.4375 72.65625 20.34375 73.4375 
Q 25.25 74.21875 29.59375 74.21875 
Q 40.828125 74.21875 47.359375 69.109375 
Q 53.90625 64.015625 53.90625 55.328125 
Q 53.90625 49.265625 50.4375 45.09375 
Q 46.96875 40.921875 40.578125 39.3125 
z
" id="DejaVuSans-51"/>
      </defs>
      <g transform="translate(215.477492 308.716563)scale(0.1 -0.1)">
       <use xlink:href="#DejaVuSans-51"/>
       <use x="63.623047" xlink:href="#DejaVuSans-48"/>
       <use x="127.246094" xlink:href="#DejaVuSans-48"/>
      </g>
     </g>
    </g>
    <g id="xtick_4">
     <g id="line2d_6">
      <g>
       <use style="stroke:#000000;stroke-width:0.8;" x="297.618412" xlink:href="#ma01e0f2461" y="294.118125"/>
      </g>
     </g>
     <g id="text_4">
      <!-- 400 -->
      <defs>
       <path d="M 37.796875 64.3125 
L 12.890625 25.390625 
L 37.796875 25.390625 
z
M 35.203125 72.90625 
L 47.609375 72.90625 
L 47.609375 25.390625 
L 58.015625 25.390625 
L 58.015625 17.1875 
L 47.609375 17.1875 
L 47.609375 0 
L 37.796875 0 
L 37.796875 17.1875 
L 4.890625 17.1875 
L 4.890625 26.703125 
z
" id="DejaVuSans-52"/>
      </defs>
      <g transform="translate(288.074662 308.716563)scale(0.1 -0.1)">
       <use xlink:href="#DejaVuSans-52"/>
       <use x="63.623047" xlink:href="#DejaVuSans-48"/>
       <use x="127.246094" xlink:href="#DejaVuSans-48"/>
      </g>
     </g>
    </g>
    <g id="xtick_5">
     <g id="line2d_7">
      <g>
       <use style="stroke:#000000;stroke-width:0.8;" x="370.215582" xlink:href="#ma01e0f2461" y="294.118125"/>
      </g>
     </g>
     <g id="text_5">
      <!-- 500 -->
      <defs>
       <path d="M 10.796875 72.90625 
L 49.515625 72.90625 
L 49.515625 64.59375 
L 19.828125 64.59375 
L 19.828125 46.734375 
Q 21.96875 47.46875 24.109375 47.828125 
Q 26.265625 48.1875 28.421875 48.1875 
Q 40.625 48.1875 47.75 41.5 
Q 54.890625 34.8125 54.890625 23.390625 
Q 54.890625 11.625 47.5625 5.09375 
Q 40.234375 -1.421875 26.90625 -1.421875 
Q 22.3125 -1.421875 17.546875 -0.640625 
Q 12.796875 0.140625 7.71875 1.703125 
L 7.71875 11.625 
Q 12.109375 9.234375 16.796875 8.0625 
Q 21.484375 6.890625 26.703125 6.890625 
Q 35.15625 6.890625 40.078125 11.328125 
Q 45.015625 15.765625 45.015625 23.390625 
Q 45.015625 31 40.078125 35.4375 
Q 35.15625 39.890625 26.703125 39.890625 
Q 22.75 39.890625 18.8125 39.015625 
Q 14.890625 38.140625 10.796875 36.28125 
z
" id="DejaVuSans-53"/>
      </defs>
      <g transform="translate(360.671832 308.716563)scale(0.1 -0.1)">
       <use xlink:href="#DejaVuSans-53"/>
       <use x="63.623047" xlink:href="#DejaVuSans-48"/>
       <use x="127.246094" xlink:href="#DejaVuSans-48"/>
      </g>
     </g>
    </g>
    <g id="xtick_6">
     <g id="line2d_8">
      <g>
       <use style="stroke:#000000;stroke-width:0.8;" x="442.812752" xlink:href="#ma01e0f2461" y="294.118125"/>
      </g>
     </g>
     <g id="text_6">
      <!-- 600 -->
      <defs>
       <path d="M 33.015625 40.375 
Q 26.375 40.375 22.484375 35.828125 
Q 18.609375 31.296875 18.609375 23.390625 
Q 18.609375 15.53125 22.484375 10.953125 
Q 26.375 6.390625 33.015625 6.390625 
Q 39.65625 6.390625 43.53125 10.953125 
Q 47.40625 15.53125 47.40625 23.390625 
Q 47.40625 31.296875 43.53125 35.828125 
Q 39.65625 40.375 33.015625 40.375 
z
M 52.59375 71.296875 
L 52.59375 62.3125 
Q 48.875 64.0625 45.09375 64.984375 
Q 41.3125 65.921875 37.59375 65.921875 
Q 27.828125 65.921875 22.671875 59.328125 
Q 17.53125 52.734375 16.796875 39.40625 
Q 19.671875 43.65625 24.015625 45.921875 
Q 28.375 48.1875 33.59375 48.1875 
Q 44.578125 48.1875 50.953125 41.515625 
Q 57.328125 34.859375 57.328125 23.390625 
Q 57.328125 12.15625 50.6875 5.359375 
Q 44.046875 -1.421875 33.015625 -1.421875 
Q 20.359375 -1.421875 13.671875 8.265625 
Q 6.984375 17.96875 6.984375 36.375 
Q 6.984375 53.65625 15.1875 63.9375 
Q 23.390625 74.21875 37.203125 74.21875 
Q 40.921875 74.21875 44.703125 73.484375 
Q 48.484375 72.75 52.59375 71.296875 
z
" id="DejaVuSans-54"/>
      </defs>
      <g transform="translate(433.269002 308.716563)scale(0.1 -0.1)">
       <use xlink:href="#DejaVuSans-54"/>
       <use x="63.623047" xlink:href="#DejaVuSans-48"/>
       <use x="127.246094" xlink:href="#DejaVuSans-48"/>
      </g>
     </g>
    </g>
    <g id="text_7">
     <!-- Tempo -->
     <defs>
      <path d="M -0.296875 72.90625 
L 61.375 72.90625 
L 61.375 64.59375 
L 35.5 64.59375 
L 35.5 0 
L 25.59375 0 
L 25.59375 64.59375 
L -0.296875 64.59375 
z
" id="DejaVuSans-84"/>
      <path d="M 56.203125 29.59375 
L 56.203125 25.203125 
L 14.890625 25.203125 
Q 15.484375 15.921875 20.484375 11.0625 
Q 25.484375 6.203125 34.421875 6.203125 
Q 39.59375 6.203125 44.453125 7.46875 
Q 49.3125 8.734375 54.109375 11.28125 
L 54.109375 2.78125 
Q 49.265625 0.734375 44.1875 -0.34375 
Q 39.109375 -1.421875 33.890625 -1.421875 
Q 20.796875 -1.421875 13.15625 6.1875 
Q 5.515625 13.8125 5.515625 26.8125 
Q 5.515625 40.234375 12.765625 48.109375 
Q 20.015625 56 32.328125 56 
Q 43.359375 56 49.78125 48.890625 
Q 56.203125 41.796875 56.203125 29.59375 
z
M 47.21875 32.234375 
Q 47.125 39.59375 43.09375 43.984375 
Q 39.0625 48.390625 32.421875 48.390625 
Q 24.90625 48.390625 20.390625 44.140625 
Q 15.875 39.890625 15.1875 32.171875 
z
" id="DejaVuSans-101"/>
      <path d="M 52 44.1875 
Q 55.375 50.25 60.0625 53.125 
Q 64.75 56 71.09375 56 
Q 79.640625 56 84.28125 50.015625 
Q 88.921875 44.046875 88.921875 33.015625 
L 88.921875 0 
L 79.890625 0 
L 79.890625 32.71875 
Q 79.890625 40.578125 77.09375 44.375 
Q 74.3125 48.1875 68.609375 48.1875 
Q 61.625 48.1875 57.5625 43.546875 
Q 53.515625 38.921875 53.515625 30.90625 
L 53.515625 0 
L 44.484375 0 
L 44.484375 32.71875 
Q 44.484375 40.625 41.703125 44.40625 
Q 38.921875 48.1875 33.109375 48.1875 
Q 26.21875 48.1875 22.15625 43.53125 
Q 18.109375 38.875 18.109375 30.90625 
L 18.109375 0 
L 9.078125 0 
L 9.078125 54.6875 
L 18.109375 54.6875 
L 18.109375 46.1875 
Q 21.1875 51.21875 25.484375 53.609375 
Q 29.78125 56 35.6875 56 
Q 41.65625 56 45.828125 52.96875 
Q 50 49.953125 52 44.1875 
z
" id="DejaVuSans-109"/>
      <path d="M 18.109375 8.203125 
L 18.109375 -20.796875 
L 9.078125 -20.796875 
L 9.078125 54.6875 
L 18.109375 54.6875 
L 18.109375 46.390625 
Q 20.953125 51.265625 25.265625 53.625 
Q 29.59375 56 35.59375 56 
Q 45.5625 56 51.78125 48.09375 
Q 58.015625 40.1875 58.015625 27.296875 
Q 58.015625 14.40625 51.78125 6.484375 
Q 45.5625 -1.421875 35.59375 -1.421875 
Q 29.59375 -1.421875 25.265625 0.953125 
Q 20.953125 3.328125 18.109375 8.203125 
z
M 48.6875 27.296875 
Q 48.6875 37.203125 44.609375 42.84375 
Q 40.53125 48.484375 33.40625 48.484375 
Q 26.265625 48.484375 22.1875 42.84375 
Q 18.109375 37.203125 18.109375 27.296875 
Q 18.109375 17.390625 22.1875 11.75 
Q 26.265625 6.109375 33.40625 6.109375 
Q 40.53125 6.109375 44.609375 11.75 
Q 48.6875 17.390625 48.6875 27.296875 
z
" id="DejaVuSans-112"/>
      <path d="M 30.609375 48.390625 
Q 23.390625 48.390625 19.1875 42.75 
Q 14.984375 37.109375 14.984375 27.296875 
Q 14.984375 17.484375 19.15625 11.84375 
Q 23.34375 6.203125 30.609375 6.203125 
Q 37.796875 6.203125 41.984375 11.859375 
Q 46.1875 17.53125 46.1875 27.296875 
Q 46.1875 37.015625 41.984375 42.703125 
Q 37.796875 48.390625 30.609375 48.390625 
z
M 30.609375 56 
Q 42.328125 56 49.015625 48.375 
Q 55.71875 40.765625 55.71875 27.296875 
Q 55.71875 13.875 49.015625 6.21875 
Q 42.328125 -1.421875 30.609375 -1.421875 
Q 18.84375 -1.421875 12.171875 6.21875 
Q 5.515625 13.875 5.515625 27.296875 
Q 5.515625 40.765625 12.171875 48.375 
Q 18.84375 56 30.609375 56 
z
" id="DejaVuSans-111"/>
     </defs>
     <g transform="translate(245.298438 322.394687)scale(0.1 -0.1)">
      <use xlink:href="#DejaVuSans-84"/>
      <use x="44.083984" xlink:href="#DejaVuSans-101"/>
      <use x="105.607422" xlink:href="#DejaVuSans-109"/>
      <use x="203.019531" xlink:href="#DejaVuSans-112"/>
      <use x="266.496094" xlink:href="#DejaVuSans-111"/>
     </g>
    </g>
   </g>
   <g id="matplotlib.axis_2">
    <g id="ytick_1">
     <g id="line2d_9">
      <defs>
       <path d="M 0 0 
L -3.5 0 
" id="m96fd5ef32c" style="stroke:#000000;stroke-width:0.8;"/>
      </defs>
      <g>
       <use style="stroke:#000000;stroke-width:0.8;" x="38.482813" xlink:href="#m96fd5ef32c" y="282.746499"/>
      </g>
     </g>
     <g id="text_8">
      <!-- −1.0 -->
      <defs>
       <path d="M 10.59375 35.5 
L 73.1875 35.5 
L 73.1875 27.203125 
L 10.59375 27.203125 
z
" id="DejaVuSans-8722"/>
       <path d="M 10.6875 12.40625 
L 21 12.40625 
L 21 0 
L 10.6875 0 
z
" id="DejaVuSans-46"/>
      </defs>
      <g transform="translate(7.2 286.545718)scale(0.1 -0.1)">
       <use xlink:href="#DejaVuSans-8722"/>
       <use x="83.789062" xlink:href="#DejaVuSans-49"/>
       <use x="147.412109" xlink:href="#DejaVuSans-46"/>
       <use x="179.199219" xlink:href="#DejaVuSans-48"/>
      </g>
     </g>
    </g>
    <g id="ytick_2">
     <g id="line2d_10">
      <g>
       <use style="stroke:#000000;stroke-width:0.8;" x="38.482813" xlink:href="#m96fd5ef32c" y="250.568386"/>
      </g>
     </g>
     <g id="text_9">
      <!-- −0.5 -->
      <g transform="translate(7.2 254.367605)scale(0.1 -0.1)">
       <use xlink:href="#DejaVuSans-8722"/>
       <use x="83.789062" xlink:href="#DejaVuSans-48"/>
       <use x="147.412109" xlink:href="#DejaVuSans-46"/>
       <use x="179.199219" xlink:href="#DejaVuSans-53"/>
      </g>
     </g>
    </g>
    <g id="ytick_3">
     <g id="line2d_11">
      <g>
       <use style="stroke:#000000;stroke-width:0.8;" x="38.482813" xlink:href="#m96fd5ef32c" y="218.390273"/>
      </g>
     </g>
     <g id="text_10">
      <!-- 0.0 -->
      <g transform="translate(15.579688 222.189491)scale(0.1 -0.1)">
       <use xlink:href="#DejaVuSans-48"/>
       <use x="63.623047" xlink:href="#DejaVuSans-46"/>
       <use x="95.410156" xlink:href="#DejaVuSans-48"/>
      </g>
     </g>
    </g>
    <g id="ytick_4">
     <g id="line2d_12">
      <g>
       <use style="stroke:#000000;stroke-width:0.8;" x="38.482813" xlink:href="#m96fd5ef32c" y="186.21216"/>
      </g>
     </g>
     <g id="text_11">
      <!-- 0.5 -->
      <g transform="translate(15.579688 190.011378)scale(0.1 -0.1)">
       <use xlink:href="#DejaVuSans-48"/>
       <use x="63.623047" xlink:href="#DejaVuSans-46"/>
       <use x="95.410156" xlink:href="#DejaVuSans-53"/>
      </g>
     </g>
    </g>
    <g id="ytick_5">
     <g id="line2d_13">
      <g>
       <use style="stroke:#000000;stroke-width:0.8;" x="38.482813" xlink:href="#m96fd5ef32c" y="154.034046"/>
      </g>
     </g>
     <g id="text_12">
      <!-- 1.0 -->
      <g transform="translate(15.579688 157.833265)scale(0.1 -0.1)">
       <use xlink:href="#DejaVuSans-49"/>
       <use x="63.623047" xlink:href="#DejaVuSans-46"/>
       <use x="95.410156" xlink:href="#DejaVuSans-48"/>
      </g>
     </g>
    </g>
    <g id="ytick_6">
     <g id="line2d_14">
      <g>
       <use style="stroke:#000000;stroke-width:0.8;" x="38.482813" xlink:href="#m96fd5ef32c" y="121.855933"/>
      </g>
     </g>
     <g id="text_13">
      <!-- 1.5 -->
      <g transform="translate(15.579688 125.655152)scale(0.1 -0.1)">
       <use xlink:href="#DejaVuSans-49"/>
       <use x="63.623047" xlink:href="#DejaVuSans-46"/>
       <use x="95.410156" xlink:href="#DejaVuSans-53"/>
      </g>
     </g>
    </g>
    <g id="ytick_7">
     <g id="line2d_15">
      <g>
       <use style="stroke:#000000;stroke-width:0.8;" x="38.482813" xlink:href="#m96fd5ef32c" y="89.67782"/>
      </g>
     </g>
     <g id="text_14">
      <!-- 2.0 -->
      <g transform="translate(15.579688 93.477039)scale(0.1 -0.1)">
       <use xlink:href="#DejaVuSans-50"/>
       <use x="63.623047" xlink:href="#DejaVuSans-46"/>
       <use x="95.410156" xlink:href="#DejaVuSans-48"/>
      </g>
     </g>
    </g>
    <g id="ytick_8">
     <g id="line2d_16">
      <g>
       <use style="stroke:#000000;stroke-width:0.8;" x="38.482813" xlink:href="#m96fd5ef32c" y="57.499707"/>
      </g>
     </g>
     <g id="text_15">
      <!-- 2.5 -->
      <g transform="translate(15.579688 61.298926)scale(0.1 -0.1)">
       <use xlink:href="#DejaVuSans-50"/>
       <use x="63.623047" xlink:href="#DejaVuSans-46"/>
       <use x="95.410156" xlink:href="#DejaVuSans-53"/>
      </g>
     </g>
    </g>
    <g id="ytick_9">
     <g id="line2d_17">
      <g>
       <use style="stroke:#000000;stroke-width:0.8;" x="38.482813" xlink:href="#m96fd5ef32c" y="25.321594"/>
      </g>
     </g>
     <g id="text_16">
      <!-- 3.0 -->
      <g transform="translate(15.579688 29.120813)scale(0.1 -0.1)">
       <use xlink:href="#DejaVuSans-51"/>
       <use x="63.623047" xlink:href="#DejaVuSans-46"/>
       <use x="95.410156" xlink:href="#DejaVuSans-48"/>
      </g>
     </g>
    </g>
   </g>
   <g id="patch_3">
    <path d="M 38.482813 294.118125 
L 38.482813 22.318125 
" style="fill:none;stroke:#000000;stroke-linecap:square;stroke-linejoin:miter;stroke-width:0.8;"/>
   </g>
   <g id="patch_4">
    <path d="M 38.482813 294.118125 
L 484.882812 294.118125 
" style="fill:none;stroke:#000000;stroke-linecap:square;stroke-linejoin:miter;stroke-width:0.8;"/>
   </g>
   <g id="text_17">
    <!-- h -->
    <defs>
     <path d="M 54.890625 33.015625 
L 54.890625 0 
L 45.90625 0 
L 45.90625 32.71875 
Q 45.90625 40.484375 42.875 44.328125 
Q 39.84375 48.1875 33.796875 48.1875 
Q 26.515625 48.1875 22.3125 43.546875 
Q 18.109375 38.921875 18.109375 30.90625 
L 18.109375 0 
L 9.078125 0 
L 9.078125 75.984375 
L 18.109375 75.984375 
L 18.109375 46.1875 
Q 21.34375 51.125 25.703125 53.5625 
Q 30.078125 56 35.796875 56 
Q 45.21875 56 50.046875 50.171875 
Q 54.890625 44.34375 54.890625 33.015625 
z
" id="DejaVuSans-104"/>
    </defs>
    <g transform="translate(257.880313 16.318125)scale(0.12 -0.12)">
     <use xlink:href="#DejaVuSans-104"/>
    </g>
   </g>
   <g id="legend_1">
    <g id="patch_5">
     <path d="M 491.882812 174.457188 
L 583.782812 174.457188 
Q 585.782812 174.457188 585.782812 172.457188 
L 585.782812 143.979063 
Q 585.782812 141.979063 583.782812 141.979063 
L 491.882812 141.979063 
Q 489.882812 141.979063 489.882812 143.979063 
L 489.882812 172.457188 
Q 489.882812 174.457188 491.882812 174.457188 
z
" style="fill:#ffffff;opacity:0.8;stroke:#cccccc;stroke-linejoin:miter;"/>
    </g>
    <g id="line2d_18">
     <path d="M 493.882812 150.0775 
L 513.882812 150.0775 
" style="fill:none;stroke:#000000;stroke-dasharray:3.7,1.6;stroke-dashoffset:0;"/>
    </g>
    <g id="line2d_19"/>
    <g id="text_18">
     <!-- Baseline -->
     <defs>
      <path d="M 19.671875 34.8125 
L 19.671875 8.109375 
L 35.5 8.109375 
Q 43.453125 8.109375 47.28125 11.40625 
Q 51.125 14.703125 51.125 21.484375 
Q 51.125 28.328125 47.28125 31.5625 
Q 43.453125 34.8125 35.5 34.8125 
z
M 19.671875 64.796875 
L 19.671875 42.828125 
L 34.28125 42.828125 
Q 41.5 42.828125 45.03125 45.53125 
Q 48.578125 48.25 48.578125 53.8125 
Q 48.578125 59.328125 45.03125 62.0625 
Q 41.5 64.796875 34.28125 64.796875 
z
M 9.8125 72.90625 
L 35.015625 72.90625 
Q 46.296875 72.90625 52.390625 68.21875 
Q 58.5 63.53125 58.5 54.890625 
Q 58.5 48.1875 55.375 44.234375 
Q 52.25 40.28125 46.1875 39.3125 
Q 53.46875 37.75 57.5 32.78125 
Q 61.53125 27.828125 61.53125 20.40625 
Q 61.53125 10.640625 54.890625 5.3125 
Q 48.25 0 35.984375 0 
L 9.8125 0 
z
" id="DejaVuSans-66"/>
      <path d="M 34.28125 27.484375 
Q 23.390625 27.484375 19.1875 25 
Q 14.984375 22.515625 14.984375 16.5 
Q 14.984375 11.71875 18.140625 8.90625 
Q 21.296875 6.109375 26.703125 6.109375 
Q 34.1875 6.109375 38.703125 11.40625 
Q 43.21875 16.703125 43.21875 25.484375 
L 43.21875 27.484375 
z
M 52.203125 31.203125 
L 52.203125 0 
L 43.21875 0 
L 43.21875 8.296875 
Q 40.140625 3.328125 35.546875 0.953125 
Q 30.953125 -1.421875 24.3125 -1.421875 
Q 15.921875 -1.421875 10.953125 3.296875 
Q 6 8.015625 6 15.921875 
Q 6 25.140625 12.171875 29.828125 
Q 18.359375 34.515625 30.609375 34.515625 
L 43.21875 34.515625 
L 43.21875 35.40625 
Q 43.21875 41.609375 39.140625 45 
Q 35.0625 48.390625 27.6875 48.390625 
Q 23 48.390625 18.546875 47.265625 
Q 14.109375 46.140625 10.015625 43.890625 
L 10.015625 52.203125 
Q 14.9375 54.109375 19.578125 55.046875 
Q 24.21875 56 28.609375 56 
Q 40.484375 56 46.34375 49.84375 
Q 52.203125 43.703125 52.203125 31.203125 
z
" id="DejaVuSans-97"/>
      <path d="M 44.28125 53.078125 
L 44.28125 44.578125 
Q 40.484375 46.53125 36.375 47.5 
Q 32.28125 48.484375 27.875 48.484375 
Q 21.1875 48.484375 17.84375 46.4375 
Q 14.5 44.390625 14.5 40.28125 
Q 14.5 37.15625 16.890625 35.375 
Q 19.28125 33.59375 26.515625 31.984375 
L 29.59375 31.296875 
Q 39.15625 29.25 43.1875 25.515625 
Q 47.21875 21.78125 47.21875 15.09375 
Q 47.21875 7.46875 41.1875 3.015625 
Q 35.15625 -1.421875 24.609375 -1.421875 
Q 20.21875 -1.421875 15.453125 -0.5625 
Q 10.6875 0.296875 5.421875 2 
L 5.421875 11.28125 
Q 10.40625 8.6875 15.234375 7.390625 
Q 20.0625 6.109375 24.8125 6.109375 
Q 31.15625 6.109375 34.5625 8.28125 
Q 37.984375 10.453125 37.984375 14.40625 
Q 37.984375 18.0625 35.515625 20.015625 
Q 33.0625 21.96875 24.703125 23.78125 
L 21.578125 24.515625 
Q 13.234375 26.265625 9.515625 29.90625 
Q 5.8125 33.546875 5.8125 39.890625 
Q 5.8125 47.609375 11.28125 51.796875 
Q 16.75 56 26.8125 56 
Q 31.78125 56 36.171875 55.265625 
Q 40.578125 54.546875 44.28125 53.078125 
z
" id="DejaVuSans-115"/>
      <path d="M 9.421875 75.984375 
L 18.40625 75.984375 
L 18.40625 0 
L 9.421875 0 
z
" id="DejaVuSans-108"/>
      <path d="M 9.421875 54.6875 
L 18.40625 54.6875 
L 18.40625 0 
L 9.421875 0 
z
M 9.421875 75.984375 
L 18.40625 75.984375 
L 18.40625 64.59375 
L 9.421875 64.59375 
z
" id="DejaVuSans-105"/>
      <path d="M 54.890625 33.015625 
L 54.890625 0 
L 45.90625 0 
L 45.90625 32.71875 
Q 45.90625 40.484375 42.875 44.328125 
Q 39.84375 48.1875 33.796875 48.1875 
Q 26.515625 48.1875 22.3125 43.546875 
Q 18.109375 38.921875 18.109375 30.90625 
L 18.109375 0 
L 9.078125 0 
L 9.078125 54.6875 
L 18.109375 54.6875 
L 18.109375 46.1875 
Q 21.34375 51.125 25.703125 53.5625 
Q 30.078125 56 35.796875 56 
Q 45.21875 56 50.046875 50.171875 
Q 54.890625 44.34375 54.890625 33.015625 
z
" id="DejaVuSans-110"/>
     </defs>
     <g transform="translate(521.882812 153.5775)scale(0.1 -0.1)">
      <use xlink:href="#DejaVuSans-66"/>
      <use x="68.603516" xlink:href="#DejaVuSans-97"/>
      <use x="129.882812" xlink:href="#DejaVuSans-115"/>
      <use x="181.982422" xlink:href="#DejaVuSans-101"/>
      <use x="243.505859" xlink:href="#DejaVuSans-108"/>
      <use x="271.289062" xlink:href="#DejaVuSans-105"/>
      <use x="299.072266" xlink:href="#DejaVuSans-110"/>
      <use x="362.451172" xlink:href="#DejaVuSans-101"/>
     </g>
    </g>
    <g id="line2d_20">
     <path d="M 493.882812 164.857188 
L 513.882812 164.857188 
" style="fill:none;stroke:#1f77b4;stroke-linecap:square;stroke-width:1.5;"/>
    </g>
    <g id="line2d_21"/>
    <g id="text_19">
     <!-- $\Uparrow \beta$ (shape) -->
     <defs>
      <path d="M 36.765625 58.59375 
L 36.765625 0 
L 30.90625 0 
L 30.90625 52.734375 
L 26.421875 48.140625 
L 20.5625 54 
L 39.703125 73.25 
L 44.09375 73.25 
L 63.328125 54 
L 57.46875 48.140625 
L 52.875 52.734375 
L 52.875 0 
L 47.015625 0 
L 47.015625 58.59375 
L 41.9375 63.671875 
z
" id="DejaVuSans-8657"/>
      <path d="M 13.625 3.375 
L 8.9375 -20.796875 
L -0.09375 -20.796875 
L 14.5 54.34375 
Q 18.84375 76.609375 39.65625 76.609375 
Q 60.75 76.609375 57.171875 57.8125 
Q 54.734375 44.4375 45.21875 39.546875 
Q 58.015625 35.15625 55.515625 22.125 
Q 51.125 -1.078125 27.484375 -1.03125 
Q 17.140625 -0.984375 13.625 3.375 
z
M 15.921875 15.09375 
Q 19.671875 6.59375 29.296875 6.640625 
Q 43.359375 6.640625 46.34375 21.96875 
Q 49.03125 35.75 26.171875 34.671875 
L 27.78125 42.96875 
Q 45.453125 42.671875 48.53125 58.59375 
Q 50.640625 69.34375 39.203125 69.28125 
Q 26.421875 69.28125 23.484375 54.046875 
z
" id="DejaVuSans-Oblique-946"/>
      <path id="DejaVuSans-32"/>
      <path d="M 31 75.875 
Q 24.46875 64.65625 21.28125 53.65625 
Q 18.109375 42.671875 18.109375 31.390625 
Q 18.109375 20.125 21.3125 9.0625 
Q 24.515625 -2 31 -13.1875 
L 23.1875 -13.1875 
Q 15.875 -1.703125 12.234375 9.375 
Q 8.59375 20.453125 8.59375 31.390625 
Q 8.59375 42.28125 12.203125 53.3125 
Q 15.828125 64.359375 23.1875 75.875 
z
" id="DejaVuSans-40"/>
      <path d="M 8.015625 75.875 
L 15.828125 75.875 
Q 23.140625 64.359375 26.78125 53.3125 
Q 30.421875 42.28125 30.421875 31.390625 
Q 30.421875 20.453125 26.78125 9.375 
Q 23.140625 -1.703125 15.828125 -13.1875 
L 8.015625 -13.1875 
Q 14.5 -2 17.703125 9.0625 
Q 20.90625 20.125 20.90625 31.390625 
Q 20.90625 42.671875 17.703125 53.65625 
Q 14.5 64.65625 8.015625 75.875 
z
" id="DejaVuSans-41"/>
     </defs>
     <g transform="translate(521.882812 168.357188)scale(0.1 -0.1)">
      <use transform="translate(19.482422 0.390625)" xlink:href="#DejaVuSans-8657"/>
      <use transform="translate(122.753906 0.390625)" xlink:href="#DejaVuSans-Oblique-946"/>
      <use transform="translate(186.572266 0.390625)" xlink:href="#DejaVuSans-32"/>
      <use transform="translate(218.359375 0.390625)" xlink:href="#DejaVuSans-40"/>
      <use transform="translate(257.373047 0.390625)" xlink:href="#DejaVuSans-115"/>
      <use transform="translate(309.472656 0.390625)" xlink:href="#DejaVuSans-104"/>
      <use transform="translate(372.851562 0.390625)" xlink:href="#DejaVuSans-97"/>
      <use transform="translate(434.130859 0.390625)" xlink:href="#DejaVuSans-112"/>
      <use transform="translate(497.607422 0.390625)" xlink:href="#DejaVuSans-101"/>
      <use transform="translate(559.130859 0.390625)" xlink:href="#DejaVuSans-41"/>
     </g>
    </g>
   </g>
  </g>
 </g>
 <defs>
  <clipPath id="p21412c168e">
   <rect height="271.8" width="446.4" x="38.482813" y="22.318125"/>
  </clipPath>
 </defs>
</svg>
