<?xml version="1.0" encoding="utf-8" standalone="no"?>
<!DOCTYPE svg PUBLIC "-//W3C//DTD SVG 1.1//EN"
  "http://www.w3.org/Graphics/SVG/1.1/DTD/svg11.dtd">
<!-- Created with matplotlib (https://matplotlib.org/) -->
<svg height="331.340625pt" version="1.1" viewBox="0 0 592.982812 331.340625" width="592.982812pt" xmlns="http://www.w3.org/2000/svg" xmlns:xlink="http://www.w3.org/1999/xlink">
 <defs>
  <style type="text/css">
*{stroke-linecap:butt;stroke-linejoin:round;}
  </style>
 </defs>
 <g id="figure_1">
  <g id="patch_1">
   <path d="M 0 331.340625 
L 592.982812 331.340625 
L 592.982812 0 
L 0 0 
z
" style="fill:#ffffff;"/>
  </g>
  <g id="axes_1">
   <g id="patch_2">
    <path d="M 38.482813 293.784375 
L 484.882812 293.784375 
L 484.882812 21.984375 
L 38.482813 21.984375 
z
" style="fill:#ffffff;"/>
   </g>
   <g id="line2d_1">
    <path clip-path="url(#p20bb088b9f)" d="M 58.773722 245.115861 
L 59.499693 268.537168 
L 60.225665 260.820917 
L 60.951637 260.829616 
L 62.40358 240.868078 
L 63.129552 240.994806 
L 63.855524 255.981667 
L 64.581495 238.231608 
L 65.307467 268.476268 
L 66.033439 238.222942 
L 66.75941 253.337073 
L 67.485382 248.314115 
L 68.211354 238.101102 
L 68.937325 265.527017 
L 69.663297 234.297904 
L 70.389269 238.891293 
L 71.115241 266.156749 
L 71.841212 233.606538 
L 72.567184 268.168364 
L 73.293156 244.489521 
L 74.019127 235.678141 
L 74.745099 255.014149 
L 75.471071 237.58866 
L 76.197042 228.523765 
L 76.923014 240.789643 
L 77.648986 258.060763 
L 78.374958 248.110326 
L 79.100929 212.719875 
L 79.826901 252.744797 
L 80.552873 248.526812 
L 81.278844 228.723437 
L 82.004816 227.84995 
L 82.730788 224.298579 
L 83.456759 247.424082 
L 84.182731 229.265727 
L 84.908703 219.126162 
L 85.634675 207.191492 
L 86.360646 206.302358 
L 87.086618 194.236031 
L 88.538561 233.657554 
L 89.264533 201.872034 
L 89.990505 175.012466 
L 90.716477 175.307234 
L 91.442448 244.785288 
L 92.16842 184.644954 
L 92.894392 234.527876 
L 93.620363 189.548342 
L 94.346335 179.031676 
L 95.072307 199.225935 
L 96.52425 175.545981 
L 97.250222 183.835834 
L 97.976194 175.433297 
L 98.702165 157.786503 
L 99.428137 219.10042 
L 100.154109 196.926131 
L 100.88008 179.813727 
L 101.606052 151.190653 
L 102.332024 144.60458 
L 103.057995 210.985148 
L 103.783967 104.978214 
L 104.509939 165.358048 
L 105.235911 196.260982 
L 105.961882 179.1123 
L 106.687854 130.750091 
L 107.413826 134.51344 
L 108.139797 113.88227 
L 108.865769 123.248269 
L 109.591741 192.259263 
L 110.317712 150.83225 
L 111.043684 117.671375 
L 111.769656 98.256928 
L 112.495628 89.032373 
L 113.221599 63.743895 
L 113.947571 119.008916 
L 114.673543 116.367333 
L 115.399514 75.816164 
L 116.125486 63.234812 
L 116.851458 183.49658 
L 117.57743 84.455696 
L 118.303401 53.320988 
L 119.029373 34.33892 
L 119.755345 195.220916 
L 120.481316 135.66591 
L 121.207288 159.205825 
L 121.93326 84.123542 
L 122.659231 121.508953 
L 123.385203 123.544418 
L 124.111175 113.852126 
L 124.837147 164.362999 
L 125.563118 162.800838 
L 126.28909 129.241013 
L 127.015062 132.371003 
L 127.741033 205.42539 
L 128.467005 136.613186 
L 129.192977 144.218514 
L 129.918948 187.752121 
L 130.64492 154.945992 
L 131.370892 163.782103 
L 132.096864 231.689033 
L 132.822835 178.946261 
L 133.548807 233.102125 
L 134.274779 201.783212 
L 135.00075 194.559125 
L 135.726722 211.522542 
L 136.452694 203.28934 
L 137.178665 207.000526 
L 137.904637 228.477397 
L 138.630609 208.725407 
L 139.356581 261.648457 
L 140.082552 242.641775 
L 140.808524 229.984288 
L 141.534496 234.159546 
L 142.260467 230.044915 
L 142.986439 223.590511 
L 143.712411 244.455386 
L 144.438383 250.825447 
L 145.164354 265.040033 
L 145.890326 244.947602 
L 146.616298 240.199075 
L 147.342269 245.304567 
L 148.068241 255.361704 
L 148.794213 256.051834 
L 149.520184 245.537925 
L 150.246156 253.773378 
L 150.972128 277.577484 
L 152.424071 255.921614 
L 153.150043 254.748152 
L 153.876015 262.072717 
L 154.601986 260.607343 
L 155.327958 265.358482 
L 156.05393 262.797753 
L 156.779901 255.180162 
L 157.505873 266.969326 
L 158.231845 260.527311 
L 158.957817 261.926857 
L 159.683788 258.557658 
L 160.40976 253.793769 
L 161.135732 266.868714 
L 161.861703 255.465125 
L 162.587675 261.46823 
L 163.313647 279.284859 
L 164.039618 260.333642 
L 164.76559 260.819473 
L 165.491562 257.032725 
L 166.217534 260.635743 
L 166.943505 253.263014 
L 167.669477 256.862221 
L 168.395449 250.559838 
L 169.12142 258.47973 
L 169.847392 276.988536 
L 170.573364 256.281366 
L 171.299336 281.42983 
L 172.025307 254.994926 
L 172.751279 255.936683 
L 173.477251 258.336539 
L 174.203222 268.382283 
L 174.929194 264.010141 
L 175.655166 262.713618 
L 176.381137 265.404123 
L 177.107109 255.953517 
L 177.833081 256.475449 
L 178.559053 263.30071 
L 179.285024 252.904132 
L 180.010996 272.00767 
L 180.736968 270.484756 
L 181.462939 272.745144 
L 182.188911 255.674852 
L 182.914883 257.077646 
L 183.640854 276.445319 
L 184.366826 257.163482 
L 185.092798 253.644908 
L 185.81877 259.391988 
L 186.544741 248.203855 
L 187.270713 248.730767 
L 187.996685 248.67679 
L 188.722656 256.98061 
L 189.448628 269.238045 
L 190.1746 241.752854 
L 190.900571 266.359002 
L 191.626543 262.524331 
L 192.352515 252.615312 
L 193.078487 265.320562 
L 193.804458 259.886791 
L 195.256402 238.310771 
L 195.982373 241.06435 
L 196.708345 242.159226 
L 197.434317 260.686936 
L 198.160289 255.441014 
L 198.88626 245.008637 
L 199.612232 237.482841 
L 200.338204 258.180257 
L 201.064175 248.84733 
L 201.790147 258.122693 
L 202.516119 238.982114 
L 203.24209 233.620572 
L 203.968062 248.405067 
L 204.694034 239.950525 
L 205.420006 222.987109 
L 206.145977 242.483993 
L 206.871949 219.647191 
L 207.597921 219.255083 
L 208.323892 216.128672 
L 209.049864 206.903475 
L 209.775836 234.496902 
L 210.501807 196.516747 
L 211.227779 189.397078 
L 211.953751 204.278254 
L 212.679723 224.337274 
L 213.405694 220.992634 
L 214.131666 187.025532 
L 214.857638 185.588305 
L 215.583609 196.157443 
L 216.309581 183.354782 
L 217.035553 188.477115 
L 217.761524 185.387957 
L 218.487496 204.910463 
L 219.213468 172.891878 
L 219.93944 171.08815 
L 220.665411 186.2605 
L 221.391383 158.962873 
L 222.117355 171.207075 
L 222.843326 213.69258 
L 223.569298 159.192219 
L 224.29527 155.98082 
L 225.021242 190.102246 
L 225.747213 206.040026 
L 226.473185 160.838294 
L 227.199157 187.062893 
L 227.925128 176.084979 
L 228.6511 162.67226 
L 229.377072 187.389018 
L 230.103043 180.833406 
L 230.829015 219.871749 
L 231.554987 177.584161 
L 232.280959 187.197091 
L 233.00693 157.253434 
L 233.732902 192.083069 
L 234.458874 166.036065 
L 235.184845 194.795533 
L 235.910817 170.550284 
L 236.636789 178.735815 
L 237.36276 198.884457 
L 238.088732 182.748442 
L 238.814704 230.357422 
L 239.540676 195.792597 
L 240.266647 199.307996 
L 240.992619 183.36771 
L 241.718591 203.37962 
L 242.444562 198.181702 
L 243.170534 214.806012 
L 243.896506 188.090402 
L 244.622477 247.356598 
L 245.348449 203.048829 
L 246.074421 204.711129 
L 246.800393 244.256025 
L 247.526364 216.04425 
L 248.252336 216.355656 
L 248.978308 243.054477 
L 249.704279 222.247094 
L 250.430251 249.934931 
L 251.156223 239.978858 
L 251.882195 233.229122 
L 252.608166 228.96144 
L 253.334138 230.900615 
L 254.06011 233.890289 
L 254.786081 247.38977 
L 255.512053 246.779936 
L 256.238025 234.001918 
L 256.963996 239.018732 
L 257.689968 254.215984 
L 258.41594 230.367732 
L 259.141912 259.542547 
L 259.867883 249.958942 
L 260.593855 245.229301 
L 261.319827 256.89856 
L 262.045798 252.598161 
L 262.77177 242.684077 
L 263.497742 256.077899 
L 264.223713 245.941576 
L 264.949685 248.565188 
L 265.675657 239.623187 
L 266.401629 260.618135 
L 267.1276 242.022762 
L 267.853572 245.775226 
L 268.579544 250.149707 
L 269.305515 240.470577 
L 270.031487 246.319183 
L 272.209402 244.334791 
L 272.935374 257.756308 
L 273.661346 252.23544 
L 275.113289 243.831179 
L 275.839261 247.380995 
L 276.565232 246.386269 
L 277.291204 241.891878 
L 278.017176 240.106554 
L 278.743148 243.40261 
L 279.469119 232.305186 
L 280.195091 241.030613 
L 280.921063 253.434841 
L 281.647034 241.520527 
L 282.373006 259.414849 
L 283.098978 246.673521 
L 283.824949 247.714013 
L 284.550921 254.628766 
L 285.276893 242.175192 
L 286.002865 261.544929 
L 286.728836 250.430924 
L 287.454808 253.544307 
L 288.18078 243.479355 
L 288.906751 240.341759 
L 289.632723 235.596125 
L 290.358695 232.46268 
L 291.084666 232.252126 
L 291.810638 237.981141 
L 292.53661 230.470398 
L 293.262582 237.23674 
L 293.988553 230.570867 
L 294.714525 235.559191 
L 295.440497 227.784029 
L 296.166468 226.519375 
L 296.89244 224.447156 
L 297.618412 222.797349 
L 298.344383 219.228502 
L 299.070355 232.08668 
L 299.796327 223.110651 
L 300.522299 256.320166 
L 301.24827 223.099002 
L 301.974242 232.990484 
L 303.426185 217.78683 
L 304.152157 219.528789 
L 304.878129 236.640322 
L 305.604101 248.913243 
L 306.330072 237.156515 
L 307.056044 256.839432 
L 307.782016 244.388159 
L 308.507987 247.979453 
L 309.233959 229.061704 
L 309.959931 230.458458 
L 310.685902 226.98091 
L 311.411874 230.659404 
L 312.137846 232.862622 
L 312.863818 231.731534 
L 313.589789 226.507233 
L 314.315761 222.957095 
L 315.041733 220.575999 
L 315.767704 230.282292 
L 316.493676 228.556715 
L 317.219648 251.743263 
L 317.945619 223.505122 
L 318.671591 221.524761 
L 319.397563 226.644585 
L 320.123535 233.755267 
L 320.849506 221.280623 
L 321.575478 249.888467 
L 323.753393 221.106098 
L 324.479365 221.066918 
L 325.205336 245.715236 
L 325.931308 243.992072 
L 326.65728 241.969953 
L 327.383252 227.280223 
L 328.109223 238.109274 
L 328.835195 228.264082 
L 329.561167 252.429155 
L 330.287138 229.773845 
L 331.01311 227.246137 
L 331.739082 244.223069 
L 332.465054 225.813351 
L 333.191025 232.013459 
L 333.916997 245.476652 
L 334.642969 239.517015 
L 335.36894 231.383745 
L 336.094912 247.582734 
L 336.820884 241.728676 
L 337.546855 245.757672 
L 338.272827 242.474227 
L 338.998799 230.898845 
L 339.724771 233.135951 
L 340.450742 245.119834 
L 341.176714 239.68394 
L 341.902686 228.203628 
L 342.628657 231.705545 
L 343.354629 244.398514 
L 344.080601 226.377033 
L 345.532544 244.328358 
L 346.258516 223.607457 
L 346.984488 248.339666 
L 347.710459 228.911251 
L 348.436431 245.311063 
L 349.162403 239.296965 
L 350.614346 237.716917 
L 351.340318 230.788376 
L 352.066289 229.237921 
L 352.792261 237.146416 
L 353.518233 227.607808 
L 354.244205 223.850976 
L 354.970176 240.801637 
L 355.696148 226.016967 
L 356.42212 236.796423 
L 357.148091 222.414263 
L 357.874063 226.208629 
L 358.600035 226.206541 
L 359.326007 227.916621 
L 360.051978 219.47936 
L 360.77795 215.72927 
L 361.503922 235.110064 
L 362.229893 233.252849 
L 362.955865 219.053954 
L 363.681837 231.721496 
L 364.407808 234.873227 
L 365.13378 232.956979 
L 365.859752 222.172112 
L 367.311695 224.982688 
L 368.037667 222.209683 
L 368.763639 234.519535 
L 369.48961 224.355517 
L 370.215582 236.17896 
L 370.941554 233.600126 
L 371.667525 225.075749 
L 372.393497 235.057089 
L 373.119469 222.045367 
L 373.845441 223.56973 
L 374.571412 233.723121 
L 375.297384 235.633742 
L 376.023356 234.277863 
L 376.749327 224.511711 
L 377.475299 227.266668 
L 378.201271 237.139819 
L 378.927242 226.066752 
L 379.653214 226.985016 
L 380.379186 227.240359 
L 381.105158 223.503336 
L 381.831129 226.516102 
L 382.557101 220.345101 
L 383.283073 224.72669 
L 384.009044 231.815018 
L 384.735016 223.086356 
L 385.460988 227.85479 
L 386.18696 235.530647 
L 386.912931 225.925064 
L 387.638903 235.589205 
L 388.364875 228.743979 
L 389.090846 227.824568 
L 389.816818 237.782225 
L 390.54279 234.900607 
L 391.268761 228.579835 
L 391.994733 229.495604 
L 392.720705 231.268791 
L 393.446677 226.133396 
L 394.172648 226.61694 
L 394.89862 235.161557 
L 395.624592 235.909352 
L 396.350563 228.45683 
L 397.076535 228.789446 
L 397.802507 229.499482 
L 398.528478 228.036756 
L 399.25445 227.787512 
L 399.980422 231.723957 
L 400.706394 225.696058 
L 401.432365 229.590786 
L 402.158337 236.798645 
L 402.884309 225.38191 
L 403.61028 230.209804 
L 404.336252 228.742459 
L 405.062224 228.508066 
L 405.788195 227.313184 
L 406.514167 227.812107 
L 407.240139 229.035524 
L 407.966111 229.552628 
L 408.692082 239.643645 
L 409.418054 230.203152 
L 410.144026 242.465271 
L 410.869997 231.813877 
L 411.595969 232.17655 
L 412.321941 243.201211 
L 413.047913 233.886465 
L 413.773884 234.041795 
L 414.499856 236.334882 
L 415.225828 234.179001 
L 415.951799 232.71989 
L 416.677771 243.093125 
L 417.403743 236.131492 
L 418.129714 236.854744 
L 418.855686 245.849338 
L 419.581658 238.672875 
L 420.30763 240.109736 
L 421.033601 238.47003 
L 421.759573 247.020095 
L 422.485545 245.912598 
L 423.211516 247.462385 
L 423.937488 248.202451 
L 424.66346 248.049766 
L 425.389431 244.686922 
L 426.115403 248.083455 
L 426.841375 247.970661 
L 427.567347 249.012039 
L 428.293318 245.751928 
L 429.01929 248.832114 
L 429.745262 245.90197 
L 430.471233 248.409617 
L 431.197205 244.370105 
L 431.923177 244.322239 
L 432.649148 243.373956 
L 433.37512 247.77661 
L 434.101092 247.332882 
L 434.827064 246.741022 
L 435.553035 243.982075 
L 436.279007 246.627873 
L 437.004979 243.919537 
L 437.73095 245.649914 
L 438.456922 243.111886 
L 439.182894 245.970824 
L 439.908866 244.815864 
L 440.634837 244.976002 
L 441.360809 245.69031 
L 442.086781 242.614266 
L 442.812752 244.616077 
L 443.538724 241.37202 
L 444.264696 242.248439 
L 444.990667 238.775579 
L 445.716639 241.900945 
L 446.442611 238.30218 
L 447.168583 238.227198 
L 447.894554 240.37016 
L 448.620526 240.550286 
L 449.346498 240.512071 
L 450.072469 238.459433 
L 450.798441 238.986509 
L 451.524413 237.933116 
L 452.250384 235.309124 
L 452.976356 236.067976 
L 453.702328 234.537181 
L 454.4283 233.6906 
L 455.154271 232.662846 
L 455.880243 233.744192 
L 456.606215 234.044435 
L 457.332186 231.718796 
L 458.058158 230.149306 
L 458.78413 231.701748 
L 459.510101 231.211635 
L 460.236073 231.588857 
L 460.962045 229.173026 
L 461.688017 228.944489 
L 462.413988 229.981093 
L 463.13996 229.935877 
L 463.865932 230.27347 
L 464.591903 230.426532 
L 464.591903 230.426532 
" style="fill:none;stroke:#1f77b4;stroke-linecap:square;stroke-width:1.5;"/>
   </g>
   <g id="line2d_2">
    <path clip-path="url(#p20bb088b9f)" d="M 58.773722 235.204739 
L 464.591903 235.204739 
L 464.591903 235.204739 
" style="fill:none;stroke:#000000;stroke-dasharray:3.7,1.6;stroke-dashoffset:0;"/>
   </g>
   <g id="matplotlib.axis_1">
    <g id="xtick_1">
     <g id="line2d_3">
      <defs>
       <path d="M 0 0 
L 0 3.5 
" id="m1fedd45175" style="stroke:#000000;stroke-width:0.8;"/>
      </defs>
      <g>
       <use style="stroke:#000000;stroke-width:0.8;" x="79.826901" xlink:href="#m1fedd45175" y="293.784375"/>
      </g>
     </g>
     <g id="text_1">
      <!-- 100 -->
      <defs>
       <path d="M 12.40625 8.296875 
L 28.515625 8.296875 
L 28.515625 63.921875 
L 10.984375 60.40625 
L 10.984375 69.390625 
L 28.421875 72.90625 
L 38.28125 72.90625 
L 38.28125 8.296875 
L 54.390625 8.296875 
L 54.390625 0 
L 12.40625 0 
z
" id="DejaVuSans-49"/>
       <path d="M 31.78125 66.40625 
Q 24.171875 66.40625 20.328125 58.90625 
Q 16.5 51.421875 16.5 36.375 
Q 16.5 21.390625 20.328125 13.890625 
Q 24.171875 6.390625 31.78125 6.390625 
Q 39.453125 6.390625 43.28125 13.890625 
Q 47.125 21.390625 47.125 36.375 
Q 47.125 51.421875 43.28125 58.90625 
Q 39.453125 66.40625 31.78125 66.40625 
z
M 31.78125 74.21875 
Q 44.046875 74.21875 50.515625 64.515625 
Q 56.984375 54.828125 56.984375 36.375 
Q 56.984375 17.96875 50.515625 8.265625 
Q 44.046875 -1.421875 31.78125 -1.421875 
Q 19.53125 -1.421875 13.0625 8.265625 
Q 6.59375 17.96875 6.59375 36.375 
Q 6.59375 54.828125 13.0625 64.515625 
Q 19.53125 74.21875 31.78125 74.21875 
z
" id="DejaVuSans-48"/>
      </defs>
      <g transform="translate(70.283151 308.382812)scale(0.1 -0.1)">
       <use xlink:href="#DejaVuSans-49"/>
       <use x="63.623047" xlink:href="#DejaVuSans-48"/>
       <use x="127.246094" xlink:href="#DejaVuSans-48"/>
      </g>
     </g>
    </g>
    <g id="xtick_2">
     <g id="line2d_4">
      <g>
       <use style="stroke:#000000;stroke-width:0.8;" x="152.424071" xlink:href="#m1fedd45175" y="293.784375"/>
      </g>
     </g>
     <g id="text_2">
      <!-- 200 -->
      <defs>
       <path d="M 19.1875 8.296875 
L 53.609375 8.296875 
L 53.609375 0 
L 7.328125 0 
L 7.328125 8.296875 
Q 12.9375 14.109375 22.625 23.890625 
Q 32.328125 33.6875 34.8125 36.53125 
Q 39.546875 41.84375 41.421875 45.53125 
Q 43.3125 49.21875 43.3125 52.78125 
Q 43.3125 58.59375 39.234375 62.25 
Q 35.15625 65.921875 28.609375 65.921875 
Q 23.96875 65.921875 18.8125 64.3125 
Q 13.671875 62.703125 7.8125 59.421875 
L 7.8125 69.390625 
Q 13.765625 71.78125 18.9375 73 
Q 24.125 74.21875 28.421875 74.21875 
Q 39.75 74.21875 46.484375 68.546875 
Q 53.21875 62.890625 53.21875 53.421875 
Q 53.21875 48.921875 51.53125 44.890625 
Q 49.859375 40.875 45.40625 35.40625 
Q 44.1875 33.984375 37.640625 27.21875 
Q 31.109375 20.453125 19.1875 8.296875 
z
" id="DejaVuSans-50"/>
      </defs>
      <g transform="translate(142.880321 308.382812)scale(0.1 -0.1)">
       <use xlink:href="#DejaVuSans-50"/>
       <use x="63.623047" xlink:href="#DejaVuSans-48"/>
       <use x="127.246094" xlink:href="#DejaVuSans-48"/>
      </g>
     </g>
    </g>
    <g id="xtick_3">
     <g id="line2d_5">
      <g>
       <use style="stroke:#000000;stroke-width:0.8;" x="225.021242" xlink:href="#m1fedd45175" y="293.784375"/>
      </g>
     </g>
     <g id="text_3">
      <!-- 300 -->
      <defs>
       <path d="M 40.578125 39.3125 
Q 47.65625 37.796875 51.625 33 
Q 55.609375 28.21875 55.609375 21.1875 
Q 55.609375 10.40625 48.1875 4.484375 
Q 40.765625 -1.421875 27.09375 -1.421875 
Q 22.515625 -1.421875 17.65625 -0.515625 
Q 12.796875 0.390625 7.625 2.203125 
L 7.625 11.71875 
Q 11.71875 9.328125 16.59375 8.109375 
Q 21.484375 6.890625 26.8125 6.890625 
Q 36.078125 6.890625 40.9375 10.546875 
Q 45.796875 14.203125 45.796875 21.1875 
Q 45.796875 27.640625 41.28125 31.265625 
Q 36.765625 34.90625 28.71875 34.90625 
L 20.21875 34.90625 
L 20.21875 43.015625 
L 29.109375 43.015625 
Q 36.375 43.015625 40.234375 45.921875 
Q 44.09375 48.828125 44.09375 54.296875 
Q 44.09375 59.90625 40.109375 62.90625 
Q 36.140625 65.921875 28.71875 65.921875 
Q 24.65625 65.921875 20.015625 65.03125 
Q 15.375 64.15625 9.8125 62.3125 
L 9.8125 71.09375 
Q 15.4375 72.65625 20.34375 73.4375 
Q 25.25 74.21875 29.59375 74.21875 
Q 40.828125 74.21875 47.359375 69.109375 
Q 53.90625 64.015625 53.90625 55.328125 
Q 53.90625 49.265625 50.4375 45.09375 
Q 46.96875 40.921875 40.578125 39.3125 
z
" id="DejaVuSans-51"/>
      </defs>
      <g transform="translate(215.477492 308.382812)scale(0.1 -0.1)">
       <use xlink:href="#DejaVuSans-51"/>
       <use x="63.623047" xlink:href="#DejaVuSans-48"/>
       <use x="127.246094" xlink:href="#DejaVuSans-48"/>
      </g>
     </g>
    </g>
    <g id="xtick_4">
     <g id="line2d_6">
      <g>
       <use style="stroke:#000000;stroke-width:0.8;" x="297.618412" xlink:href="#m1fedd45175" y="293.784375"/>
      </g>
     </g>
     <g id="text_4">
      <!-- 400 -->
      <defs>
       <path d="M 37.796875 64.3125 
L 12.890625 25.390625 
L 37.796875 25.390625 
z
M 35.203125 72.90625 
L 47.609375 72.90625 
L 47.609375 25.390625 
L 58.015625 25.390625 
L 58.015625 17.1875 
L 47.609375 17.1875 
L 47.609375 0 
L 37.796875 0 
L 37.796875 17.1875 
L 4.890625 17.1875 
L 4.890625 26.703125 
z
" id="DejaVuSans-52"/>
      </defs>
      <g transform="translate(288.074662 308.382812)scale(0.1 -0.1)">
       <use xlink:href="#DejaVuSans-52"/>
       <use x="63.623047" xlink:href="#DejaVuSans-48"/>
       <use x="127.246094" xlink:href="#DejaVuSans-48"/>
      </g>
     </g>
    </g>
    <g id="xtick_5">
     <g id="line2d_7">
      <g>
       <use style="stroke:#000000;stroke-width:0.8;" x="370.215582" xlink:href="#m1fedd45175" y="293.784375"/>
      </g>
     </g>
     <g id="text_5">
      <!-- 500 -->
      <defs>
       <path d="M 10.796875 72.90625 
L 49.515625 72.90625 
L 49.515625 64.59375 
L 19.828125 64.59375 
L 19.828125 46.734375 
Q 21.96875 47.46875 24.109375 47.828125 
Q 26.265625 48.1875 28.421875 48.1875 
Q 40.625 48.1875 47.75 41.5 
Q 54.890625 34.8125 54.890625 23.390625 
Q 54.890625 11.625 47.5625 5.09375 
Q 40.234375 -1.421875 26.90625 -1.421875 
Q 22.3125 -1.421875 17.546875 -0.640625 
Q 12.796875 0.140625 7.71875 1.703125 
L 7.71875 11.625 
Q 12.109375 9.234375 16.796875 8.0625 
Q 21.484375 6.890625 26.703125 6.890625 
Q 35.15625 6.890625 40.078125 11.328125 
Q 45.015625 15.765625 45.015625 23.390625 
Q 45.015625 31 40.078125 35.4375 
Q 35.15625 39.890625 26.703125 39.890625 
Q 22.75 39.890625 18.8125 39.015625 
Q 14.890625 38.140625 10.796875 36.28125 
z
" id="DejaVuSans-53"/>
      </defs>
      <g transform="translate(360.671832 308.382812)scale(0.1 -0.1)">
       <use xlink:href="#DejaVuSans-53"/>
       <use x="63.623047" xlink:href="#DejaVuSans-48"/>
       <use x="127.246094" xlink:href="#DejaVuSans-48"/>
      </g>
     </g>
    </g>
    <g id="xtick_6">
     <g id="line2d_8">
      <g>
       <use style="stroke:#000000;stroke-width:0.8;" x="442.812752" xlink:href="#m1fedd45175" y="293.784375"/>
      </g>
     </g>
     <g id="text_6">
      <!-- 600 -->
      <defs>
       <path d="M 33.015625 40.375 
Q 26.375 40.375 22.484375 35.828125 
Q 18.609375 31.296875 18.609375 23.390625 
Q 18.609375 15.53125 22.484375 10.953125 
Q 26.375 6.390625 33.015625 6.390625 
Q 39.65625 6.390625 43.53125 10.953125 
Q 47.40625 15.53125 47.40625 23.390625 
Q 47.40625 31.296875 43.53125 35.828125 
Q 39.65625 40.375 33.015625 40.375 
z
M 52.59375 71.296875 
L 52.59375 62.3125 
Q 48.875 64.0625 45.09375 64.984375 
Q 41.3125 65.921875 37.59375 65.921875 
Q 27.828125 65.921875 22.671875 59.328125 
Q 17.53125 52.734375 16.796875 39.40625 
Q 19.671875 43.65625 24.015625 45.921875 
Q 28.375 48.1875 33.59375 48.1875 
Q 44.578125 48.1875 50.953125 41.515625 
Q 57.328125 34.859375 57.328125 23.390625 
Q 57.328125 12.15625 50.6875 5.359375 
Q 44.046875 -1.421875 33.015625 -1.421875 
Q 20.359375 -1.421875 13.671875 8.265625 
Q 6.984375 17.96875 6.984375 36.375 
Q 6.984375 53.65625 15.1875 63.9375 
Q 23.390625 74.21875 37.203125 74.21875 
Q 40.921875 74.21875 44.703125 73.484375 
Q 48.484375 72.75 52.59375 71.296875 
z
" id="DejaVuSans-54"/>
      </defs>
      <g transform="translate(433.269002 308.382812)scale(0.1 -0.1)">
       <use xlink:href="#DejaVuSans-54"/>
       <use x="63.623047" xlink:href="#DejaVuSans-48"/>
       <use x="127.246094" xlink:href="#DejaVuSans-48"/>
      </g>
     </g>
    </g>
    <g id="text_7">
     <!-- Tempo -->
     <defs>
      <path d="M -0.296875 72.90625 
L 61.375 72.90625 
L 61.375 64.59375 
L 35.5 64.59375 
L 35.5 0 
L 25.59375 0 
L 25.59375 64.59375 
L -0.296875 64.59375 
z
" id="DejaVuSans-84"/>
      <path d="M 56.203125 29.59375 
L 56.203125 25.203125 
L 14.890625 25.203125 
Q 15.484375 15.921875 20.484375 11.0625 
Q 25.484375 6.203125 34.421875 6.203125 
Q 39.59375 6.203125 44.453125 7.46875 
Q 49.3125 8.734375 54.109375 11.28125 
L 54.109375 2.78125 
Q 49.265625 0.734375 44.1875 -0.34375 
Q 39.109375 -1.421875 33.890625 -1.421875 
Q 20.796875 -1.421875 13.15625 6.1875 
Q 5.515625 13.8125 5.515625 26.8125 
Q 5.515625 40.234375 12.765625 48.109375 
Q 20.015625 56 32.328125 56 
Q 43.359375 56 49.78125 48.890625 
Q 56.203125 41.796875 56.203125 29.59375 
z
M 47.21875 32.234375 
Q 47.125 39.59375 43.09375 43.984375 
Q 39.0625 48.390625 32.421875 48.390625 
Q 24.90625 48.390625 20.390625 44.140625 
Q 15.875 39.890625 15.1875 32.171875 
z
" id="DejaVuSans-101"/>
      <path d="M 52 44.1875 
Q 55.375 50.25 60.0625 53.125 
Q 64.75 56 71.09375 56 
Q 79.640625 56 84.28125 50.015625 
Q 88.921875 44.046875 88.921875 33.015625 
L 88.921875 0 
L 79.890625 0 
L 79.890625 32.71875 
Q 79.890625 40.578125 77.09375 44.375 
Q 74.3125 48.1875 68.609375 48.1875 
Q 61.625 48.1875 57.5625 43.546875 
Q 53.515625 38.921875 53.515625 30.90625 
L 53.515625 0 
L 44.484375 0 
L 44.484375 32.71875 
Q 44.484375 40.625 41.703125 44.40625 
Q 38.921875 48.1875 33.109375 48.1875 
Q 26.21875 48.1875 22.15625 43.53125 
Q 18.109375 38.875 18.109375 30.90625 
L 18.109375 0 
L 9.078125 0 
L 9.078125 54.6875 
L 18.109375 54.6875 
L 18.109375 46.1875 
Q 21.1875 51.21875 25.484375 53.609375 
Q 29.78125 56 35.6875 56 
Q 41.65625 56 45.828125 52.96875 
Q 50 49.953125 52 44.1875 
z
" id="DejaVuSans-109"/>
      <path d="M 18.109375 8.203125 
L 18.109375 -20.796875 
L 9.078125 -20.796875 
L 9.078125 54.6875 
L 18.109375 54.6875 
L 18.109375 46.390625 
Q 20.953125 51.265625 25.265625 53.625 
Q 29.59375 56 35.59375 56 
Q 45.5625 56 51.78125 48.09375 
Q 58.015625 40.1875 58.015625 27.296875 
Q 58.015625 14.40625 51.78125 6.484375 
Q 45.5625 -1.421875 35.59375 -1.421875 
Q 29.59375 -1.421875 25.265625 0.953125 
Q 20.953125 3.328125 18.109375 8.203125 
z
M 48.6875 27.296875 
Q 48.6875 37.203125 44.609375 42.84375 
Q 40.53125 48.484375 33.40625 48.484375 
Q 26.265625 48.484375 22.1875 42.84375 
Q 18.109375 37.203125 18.109375 27.296875 
Q 18.109375 17.390625 22.1875 11.75 
Q 26.265625 6.109375 33.40625 6.109375 
Q 40.53125 6.109375 44.609375 11.75 
Q 48.6875 17.390625 48.6875 27.296875 
z
" id="DejaVuSans-112"/>
      <path d="M 30.609375 48.390625 
Q 23.390625 48.390625 19.1875 42.75 
Q 14.984375 37.109375 14.984375 27.296875 
Q 14.984375 17.484375 19.15625 11.84375 
Q 23.34375 6.203125 30.609375 6.203125 
Q 37.796875 6.203125 41.984375 11.859375 
Q 46.1875 17.53125 46.1875 27.296875 
Q 46.1875 37.015625 41.984375 42.703125 
Q 37.796875 48.390625 30.609375 48.390625 
z
M 30.609375 56 
Q 42.328125 56 49.015625 48.375 
Q 55.71875 40.765625 55.71875 27.296875 
Q 55.71875 13.875 49.015625 6.21875 
Q 42.328125 -1.421875 30.609375 -1.421875 
Q 18.84375 -1.421875 12.171875 6.21875 
Q 5.515625 13.875 5.515625 27.296875 
Q 5.515625 40.765625 12.171875 48.375 
Q 18.84375 56 30.609375 56 
z
" id="DejaVuSans-111"/>
     </defs>
     <g transform="translate(245.298438 322.060937)scale(0.1 -0.1)">
      <use xlink:href="#DejaVuSans-84"/>
      <use x="44.083984" xlink:href="#DejaVuSans-101"/>
      <use x="105.607422" xlink:href="#DejaVuSans-109"/>
      <use x="203.019531" xlink:href="#DejaVuSans-112"/>
      <use x="266.496094" xlink:href="#DejaVuSans-111"/>
     </g>
    </g>
   </g>
   <g id="matplotlib.axis_2">
    <g id="ytick_1">
     <g id="line2d_9">
      <defs>
       <path d="M 0 0 
L -3.5 0 
" id="mb6fe6d638a" style="stroke:#000000;stroke-width:0.8;"/>
      </defs>
      <g>
       <use style="stroke:#000000;stroke-width:0.8;" x="38.482813" xlink:href="#mb6fe6d638a" y="268.261478"/>
      </g>
     </g>
     <g id="text_8">
      <!-- −0.5 -->
      <defs>
       <path d="M 10.59375 35.5 
L 73.1875 35.5 
L 73.1875 27.203125 
L 10.59375 27.203125 
z
" id="DejaVuSans-8722"/>
       <path d="M 10.6875 12.40625 
L 21 12.40625 
L 21 0 
L 10.6875 0 
z
" id="DejaVuSans-46"/>
      </defs>
      <g transform="translate(7.2 272.060697)scale(0.1 -0.1)">
       <use xlink:href="#DejaVuSans-8722"/>
       <use x="83.789062" xlink:href="#DejaVuSans-48"/>
       <use x="147.412109" xlink:href="#DejaVuSans-46"/>
       <use x="179.199219" xlink:href="#DejaVuSans-53"/>
      </g>
     </g>
    </g>
    <g id="ytick_2">
     <g id="line2d_10">
      <g>
       <use style="stroke:#000000;stroke-width:0.8;" x="38.482813" xlink:href="#mb6fe6d638a" y="235.204739"/>
      </g>
     </g>
     <g id="text_9">
      <!-- 0.0 -->
      <g transform="translate(15.579688 239.003958)scale(0.1 -0.1)">
       <use xlink:href="#DejaVuSans-48"/>
       <use x="63.623047" xlink:href="#DejaVuSans-46"/>
       <use x="95.410156" xlink:href="#DejaVuSans-48"/>
      </g>
     </g>
    </g>
    <g id="ytick_3">
     <g id="line2d_11">
      <g>
       <use style="stroke:#000000;stroke-width:0.8;" x="38.482813" xlink:href="#mb6fe6d638a" y="202.148"/>
      </g>
     </g>
     <g id="text_10">
      <!-- 0.5 -->
      <g transform="translate(15.579688 205.947218)scale(0.1 -0.1)">
       <use xlink:href="#DejaVuSans-48"/>
       <use x="63.623047" xlink:href="#DejaVuSans-46"/>
       <use x="95.410156" xlink:href="#DejaVuSans-53"/>
      </g>
     </g>
    </g>
    <g id="ytick_4">
     <g id="line2d_12">
      <g>
       <use style="stroke:#000000;stroke-width:0.8;" x="38.482813" xlink:href="#mb6fe6d638a" y="169.09126"/>
      </g>
     </g>
     <g id="text_11">
      <!-- 1.0 -->
      <g transform="translate(15.579688 172.890479)scale(0.1 -0.1)">
       <use xlink:href="#DejaVuSans-49"/>
       <use x="63.623047" xlink:href="#DejaVuSans-46"/>
       <use x="95.410156" xlink:href="#DejaVuSans-48"/>
      </g>
     </g>
    </g>
    <g id="ytick_5">
     <g id="line2d_13">
      <g>
       <use style="stroke:#000000;stroke-width:0.8;" x="38.482813" xlink:href="#mb6fe6d638a" y="136.034521"/>
      </g>
     </g>
     <g id="text_12">
      <!-- 1.5 -->
      <g transform="translate(15.579688 139.83374)scale(0.1 -0.1)">
       <use xlink:href="#DejaVuSans-49"/>
       <use x="63.623047" xlink:href="#DejaVuSans-46"/>
       <use x="95.410156" xlink:href="#DejaVuSans-53"/>
      </g>
     </g>
    </g>
    <g id="ytick_6">
     <g id="line2d_14">
      <g>
       <use style="stroke:#000000;stroke-width:0.8;" x="38.482813" xlink:href="#mb6fe6d638a" y="102.977782"/>
      </g>
     </g>
     <g id="text_13">
      <!-- 2.0 -->
      <g transform="translate(15.579688 106.777)scale(0.1 -0.1)">
       <use xlink:href="#DejaVuSans-50"/>
       <use x="63.623047" xlink:href="#DejaVuSans-46"/>
       <use x="95.410156" xlink:href="#DejaVuSans-48"/>
      </g>
     </g>
    </g>
    <g id="ytick_7">
     <g id="line2d_15">
      <g>
       <use style="stroke:#000000;stroke-width:0.8;" x="38.482813" xlink:href="#mb6fe6d638a" y="69.921042"/>
      </g>
     </g>
     <g id="text_14">
      <!-- 2.5 -->
      <g transform="translate(15.579688 73.720261)scale(0.1 -0.1)">
       <use xlink:href="#DejaVuSans-50"/>
       <use x="63.623047" xlink:href="#DejaVuSans-46"/>
       <use x="95.410156" xlink:href="#DejaVuSans-53"/>
      </g>
     </g>
    </g>
    <g id="ytick_8">
     <g id="line2d_16">
      <g>
       <use style="stroke:#000000;stroke-width:0.8;" x="38.482813" xlink:href="#mb6fe6d638a" y="36.864303"/>
      </g>
     </g>
     <g id="text_15">
      <!-- 3.0 -->
      <g transform="translate(15.579688 40.663522)scale(0.1 -0.1)">
       <use xlink:href="#DejaVuSans-51"/>
       <use x="63.623047" xlink:href="#DejaVuSans-46"/>
       <use x="95.410156" xlink:href="#DejaVuSans-48"/>
      </g>
     </g>
    </g>
   </g>
   <g id="patch_3">
    <path d="M 38.482813 293.784375 
L 38.482813 21.984375 
" style="fill:none;stroke:#000000;stroke-linecap:square;stroke-linejoin:miter;stroke-width:0.8;"/>
   </g>
   <g id="patch_4">
    <path d="M 38.482813 293.784375 
L 484.882812 293.784375 
" style="fill:none;stroke:#000000;stroke-linecap:square;stroke-linejoin:miter;stroke-width:0.8;"/>
   </g>
   <g id="text_16">
    <!-- u_t -->
    <defs>
     <path d="M 8.5 21.578125 
L 8.5 54.6875 
L 17.484375 54.6875 
L 17.484375 21.921875 
Q 17.484375 14.15625 20.5 10.265625 
Q 23.53125 6.390625 29.59375 6.390625 
Q 36.859375 6.390625 41.078125 11.03125 
Q 45.3125 15.671875 45.3125 23.6875 
L 45.3125 54.6875 
L 54.296875 54.6875 
L 54.296875 0 
L 45.3125 0 
L 45.3125 8.40625 
Q 42.046875 3.421875 37.71875 1 
Q 33.40625 -1.421875 27.6875 -1.421875 
Q 18.265625 -1.421875 13.375 4.4375 
Q 8.5 10.296875 8.5 21.578125 
z
M 31.109375 56 
z
" id="DejaVuSans-117"/>
     <path d="M 50.984375 -16.609375 
L 50.984375 -23.578125 
L -0.984375 -23.578125 
L -0.984375 -16.609375 
z
" id="DejaVuSans-95"/>
     <path d="M 18.3125 70.21875 
L 18.3125 54.6875 
L 36.8125 54.6875 
L 36.8125 47.703125 
L 18.3125 47.703125 
L 18.3125 18.015625 
Q 18.3125 11.328125 20.140625 9.421875 
Q 21.96875 7.515625 27.59375 7.515625 
L 36.8125 7.515625 
L 36.8125 0 
L 27.59375 0 
Q 17.1875 0 13.234375 3.875 
Q 9.28125 7.765625 9.28125 18.015625 
L 9.28125 47.703125 
L 2.6875 47.703125 
L 2.6875 54.6875 
L 9.28125 54.6875 
L 9.28125 70.21875 
z
" id="DejaVuSans-116"/>
    </defs>
    <g transform="translate(252.528125 15.984375)scale(0.12 -0.12)">
     <use xlink:href="#DejaVuSans-117"/>
     <use x="63.378906" xlink:href="#DejaVuSans-95"/>
     <use x="113.378906" xlink:href="#DejaVuSans-116"/>
    </g>
   </g>
   <g id="legend_1">
    <g id="patch_5">
     <path d="M 491.882812 174.123438 
L 583.782812 174.123438 
Q 585.782812 174.123438 585.782812 172.123438 
L 585.782812 143.645313 
Q 585.782812 141.645313 583.782812 141.645313 
L 491.882812 141.645313 
Q 489.882812 141.645313 489.882812 143.645313 
L 489.882812 172.123438 
Q 489.882812 174.123438 491.882812 174.123438 
z
" style="fill:#ffffff;opacity:0.8;stroke:#cccccc;stroke-linejoin:miter;"/>
    </g>
    <g id="line2d_17">
     <path d="M 493.882812 149.74375 
L 513.882812 149.74375 
" style="fill:none;stroke:#000000;stroke-dasharray:3.7,1.6;stroke-dashoffset:0;"/>
    </g>
    <g id="line2d_18"/>
    <g id="text_17">
     <!-- Baseline -->
     <defs>
      <path d="M 19.671875 34.8125 
L 19.671875 8.109375 
L 35.5 8.109375 
Q 43.453125 8.109375 47.28125 11.40625 
Q 51.125 14.703125 51.125 21.484375 
Q 51.125 28.328125 47.28125 31.5625 
Q 43.453125 34.8125 35.5 34.8125 
z
M 19.671875 64.796875 
L 19.671875 42.828125 
L 34.28125 42.828125 
Q 41.5 42.828125 45.03125 45.53125 
Q 48.578125 48.25 48.578125 53.8125 
Q 48.578125 59.328125 45.03125 62.0625 
Q 41.5 64.796875 34.28125 64.796875 
z
M 9.8125 72.90625 
L 35.015625 72.90625 
Q 46.296875 72.90625 52.390625 68.21875 
Q 58.5 63.53125 58.5 54.890625 
Q 58.5 48.1875 55.375 44.234375 
Q 52.25 40.28125 46.1875 39.3125 
Q 53.46875 37.75 57.5 32.78125 
Q 61.53125 27.828125 61.53125 20.40625 
Q 61.53125 10.640625 54.890625 5.3125 
Q 48.25 0 35.984375 0 
L 9.8125 0 
z
" id="DejaVuSans-66"/>
      <path d="M 34.28125 27.484375 
Q 23.390625 27.484375 19.1875 25 
Q 14.984375 22.515625 14.984375 16.5 
Q 14.984375 11.71875 18.140625 8.90625 
Q 21.296875 6.109375 26.703125 6.109375 
Q 34.1875 6.109375 38.703125 11.40625 
Q 43.21875 16.703125 43.21875 25.484375 
L 43.21875 27.484375 
z
M 52.203125 31.203125 
L 52.203125 0 
L 43.21875 0 
L 43.21875 8.296875 
Q 40.140625 3.328125 35.546875 0.953125 
Q 30.953125 -1.421875 24.3125 -1.421875 
Q 15.921875 -1.421875 10.953125 3.296875 
Q 6 8.015625 6 15.921875 
Q 6 25.140625 12.171875 29.828125 
Q 18.359375 34.515625 30.609375 34.515625 
L 43.21875 34.515625 
L 43.21875 35.40625 
Q 43.21875 41.609375 39.140625 45 
Q 35.0625 48.390625 27.6875 48.390625 
Q 23 48.390625 18.546875 47.265625 
Q 14.109375 46.140625 10.015625 43.890625 
L 10.015625 52.203125 
Q 14.9375 54.109375 19.578125 55.046875 
Q 24.21875 56 28.609375 56 
Q 40.484375 56 46.34375 49.84375 
Q 52.203125 43.703125 52.203125 31.203125 
z
" id="DejaVuSans-97"/>
      <path d="M 44.28125 53.078125 
L 44.28125 44.578125 
Q 40.484375 46.53125 36.375 47.5 
Q 32.28125 48.484375 27.875 48.484375 
Q 21.1875 48.484375 17.84375 46.4375 
Q 14.5 44.390625 14.5 40.28125 
Q 14.5 37.15625 16.890625 35.375 
Q 19.28125 33.59375 26.515625 31.984375 
L 29.59375 31.296875 
Q 39.15625 29.25 43.1875 25.515625 
Q 47.21875 21.78125 47.21875 15.09375 
Q 47.21875 7.46875 41.1875 3.015625 
Q 35.15625 -1.421875 24.609375 -1.421875 
Q 20.21875 -1.421875 15.453125 -0.5625 
Q 10.6875 0.296875 5.421875 2 
L 5.421875 11.28125 
Q 10.40625 8.6875 15.234375 7.390625 
Q 20.0625 6.109375 24.8125 6.109375 
Q 31.15625 6.109375 34.5625 8.28125 
Q 37.984375 10.453125 37.984375 14.40625 
Q 37.984375 18.0625 35.515625 20.015625 
Q 33.0625 21.96875 24.703125 23.78125 
L 21.578125 24.515625 
Q 13.234375 26.265625 9.515625 29.90625 
Q 5.8125 33.546875 5.8125 39.890625 
Q 5.8125 47.609375 11.28125 51.796875 
Q 16.75 56 26.8125 56 
Q 31.78125 56 36.171875 55.265625 
Q 40.578125 54.546875 44.28125 53.078125 
z
" id="DejaVuSans-115"/>
      <path d="M 9.421875 75.984375 
L 18.40625 75.984375 
L 18.40625 0 
L 9.421875 0 
z
" id="DejaVuSans-108"/>
      <path d="M 9.421875 54.6875 
L 18.40625 54.6875 
L 18.40625 0 
L 9.421875 0 
z
M 9.421875 75.984375 
L 18.40625 75.984375 
L 18.40625 64.59375 
L 9.421875 64.59375 
z
" id="DejaVuSans-105"/>
      <path d="M 54.890625 33.015625 
L 54.890625 0 
L 45.90625 0 
L 45.90625 32.71875 
Q 45.90625 40.484375 42.875 44.328125 
Q 39.84375 48.1875 33.796875 48.1875 
Q 26.515625 48.1875 22.3125 43.546875 
Q 18.109375 38.921875 18.109375 30.90625 
L 18.109375 0 
L 9.078125 0 
L 9.078125 54.6875 
L 18.109375 54.6875 
L 18.109375 46.1875 
Q 21.34375 51.125 25.703125 53.5625 
Q 30.078125 56 35.796875 56 
Q 45.21875 56 50.046875 50.171875 
Q 54.890625 44.34375 54.890625 33.015625 
z
" id="DejaVuSans-110"/>
     </defs>
     <g transform="translate(521.882812 153.24375)scale(0.1 -0.1)">
      <use xlink:href="#DejaVuSans-66"/>
      <use x="68.603516" xlink:href="#DejaVuSans-97"/>
      <use x="129.882812" xlink:href="#DejaVuSans-115"/>
      <use x="181.982422" xlink:href="#DejaVuSans-101"/>
      <use x="243.505859" xlink:href="#DejaVuSans-108"/>
      <use x="271.289062" xlink:href="#DejaVuSans-105"/>
      <use x="299.072266" xlink:href="#DejaVuSans-110"/>
      <use x="362.451172" xlink:href="#DejaVuSans-101"/>
     </g>
    </g>
    <g id="line2d_19">
     <path d="M 493.882812 164.523438 
L 513.882812 164.523438 
" style="fill:none;stroke:#1f77b4;stroke-linecap:square;stroke-width:1.5;"/>
    </g>
    <g id="line2d_20"/>
    <g id="text_18">
     <!-- $\Uparrow \beta$ (shape) -->
     <defs>
      <path d="M 36.765625 58.59375 
L 36.765625 0 
L 30.90625 0 
L 30.90625 52.734375 
L 26.421875 48.140625 
L 20.5625 54 
L 39.703125 73.25 
L 44.09375 73.25 
L 63.328125 54 
L 57.46875 48.140625 
L 52.875 52.734375 
L 52.875 0 
L 47.015625 0 
L 47.015625 58.59375 
L 41.9375 63.671875 
z
" id="DejaVuSans-8657"/>
      <path d="M 13.625 3.375 
L 8.9375 -20.796875 
L -0.09375 -20.796875 
L 14.5 54.34375 
Q 18.84375 76.609375 39.65625 76.609375 
Q 60.75 76.609375 57.171875 57.8125 
Q 54.734375 44.4375 45.21875 39.546875 
Q 58.015625 35.15625 55.515625 22.125 
Q 51.125 -1.078125 27.484375 -1.03125 
Q 17.140625 -0.984375 13.625 3.375 
z
M 15.921875 15.09375 
Q 19.671875 6.59375 29.296875 6.640625 
Q 43.359375 6.640625 46.34375 21.96875 
Q 49.03125 35.75 26.171875 34.671875 
L 27.78125 42.96875 
Q 45.453125 42.671875 48.53125 58.59375 
Q 50.640625 69.34375 39.203125 69.28125 
Q 26.421875 69.28125 23.484375 54.046875 
z
" id="DejaVuSans-Oblique-946"/>
      <path id="DejaVuSans-32"/>
      <path d="M 31 75.875 
Q 24.46875 64.65625 21.28125 53.65625 
Q 18.109375 42.671875 18.109375 31.390625 
Q 18.109375 20.125 21.3125 9.0625 
Q 24.515625 -2 31 -13.1875 
L 23.1875 -13.1875 
Q 15.875 -1.703125 12.234375 9.375 
Q 8.59375 20.453125 8.59375 31.390625 
Q 8.59375 42.28125 12.203125 53.3125 
Q 15.828125 64.359375 23.1875 75.875 
z
" id="DejaVuSans-40"/>
      <path d="M 54.890625 33.015625 
L 54.890625 0 
L 45.90625 0 
L 45.90625 32.71875 
Q 45.90625 40.484375 42.875 44.328125 
Q 39.84375 48.1875 33.796875 48.1875 
Q 26.515625 48.1875 22.3125 43.546875 
Q 18.109375 38.921875 18.109375 30.90625 
L 18.109375 0 
L 9.078125 0 
L 9.078125 75.984375 
L 18.109375 75.984375 
L 18.109375 46.1875 
Q 21.34375 51.125 25.703125 53.5625 
Q 30.078125 56 35.796875 56 
Q 45.21875 56 50.046875 50.171875 
Q 54.890625 44.34375 54.890625 33.015625 
z
" id="DejaVuSans-104"/>
      <path d="M 8.015625 75.875 
L 15.828125 75.875 
Q 23.140625 64.359375 26.78125 53.3125 
Q 30.421875 42.28125 30.421875 31.390625 
Q 30.421875 20.453125 26.78125 9.375 
Q 23.140625 -1.703125 15.828125 -13.1875 
L 8.015625 -13.1875 
Q 14.5 -2 17.703125 9.0625 
Q 20.90625 20.125 20.90625 31.390625 
Q 20.90625 42.671875 17.703125 53.65625 
Q 14.5 64.65625 8.015625 75.875 
z
" id="DejaVuSans-41"/>
     </defs>
     <g transform="translate(521.882812 168.023438)scale(0.1 -0.1)">
      <use transform="translate(19.482422 0.390625)" xlink:href="#DejaVuSans-8657"/>
      <use transform="translate(122.753906 0.390625)" xlink:href="#DejaVuSans-Oblique-946"/>
      <use transform="translate(186.572266 0.390625)" xlink:href="#DejaVuSans-32"/>
      <use transform="translate(218.359375 0.390625)" xlink:href="#DejaVuSans-40"/>
      <use transform="translate(257.373047 0.390625)" xlink:href="#DejaVuSans-115"/>
      <use transform="translate(309.472656 0.390625)" xlink:href="#DejaVuSans-104"/>
      <use transform="translate(372.851562 0.390625)" xlink:href="#DejaVuSans-97"/>
      <use transform="translate(434.130859 0.390625)" xlink:href="#DejaVuSans-112"/>
      <use transform="translate(497.607422 0.390625)" xlink:href="#DejaVuSans-101"/>
      <use transform="translate(559.130859 0.390625)" xlink:href="#DejaVuSans-41"/>
     </g>
    </g>
   </g>
  </g>
 </g>
 <defs>
  <clipPath id="p20bb088b9f">
   <rect height="271.8" width="446.4" x="38.482813" y="21.984375"/>
  </clipPath>
 </defs>
</svg>
