<?xml version="1.0" encoding="utf-8" standalone="no"?>
<!DOCTYPE svg PUBLIC "-//W3C//DTD SVG 1.1//EN"
  "http://www.w3.org/Graphics/SVG/1.1/DTD/svg11.dtd">
<!-- Created with matplotlib (https://matplotlib.org/) -->
<svg height="331.4625pt" version="1.1" viewBox="0 0 634.642187 331.4625" width="634.642187pt" xmlns="http://www.w3.org/2000/svg" xmlns:xlink="http://www.w3.org/1999/xlink">
 <defs>
  <style type="text/css">
*{stroke-linecap:butt;stroke-linejoin:round;}
  </style>
 </defs>
 <g id="figure_1">
  <g id="patch_1">
   <path d="M 0 331.4625 
L 634.642187 331.4625 
L 634.642187 0 
L 0 0 
z
" style="fill:#ffffff;"/>
  </g>
  <g id="axes_1">
   <g id="patch_2">
    <path d="M 38.482813 293.90625 
L 484.882812 293.90625 
L 484.882812 22.10625 
L 38.482813 22.10625 
z
" style="fill:#ffffff;"/>
   </g>
   <g id="line2d_1">
    <path clip-path="url(#p09ee1e0180)" d="M 58.773722 261.287402 
L 59.499693 224.561292 
L 60.225665 248.240465 
L 60.951637 266.524555 
L 61.677608 264.866805 
L 62.40358 266.176977 
L 63.129552 263.838521 
L 63.855524 252.799817 
L 64.581495 277.271564 
L 65.307467 220.284082 
L 66.033439 257.170145 
L 66.75941 267.457819 
L 67.485382 265.795239 
L 68.211354 264.503878 
L 68.937325 224.205554 
L 69.663297 274.951092 
L 70.389269 239.430508 
L 71.841212 268.350943 
L 72.567184 235.770575 
L 73.293156 262.314047 
L 74.019127 268.460459 
L 74.745099 245.715014 
L 75.471071 247.211609 
L 76.197042 272.154803 
L 76.923014 244.60809 
L 77.648986 255.744751 
L 78.374958 234.455277 
L 79.100929 258.314412 
L 79.826901 229.492218 
L 80.552873 244.911907 
L 81.278844 268.106959 
L 82.004816 247.974454 
L 82.730788 255.403844 
L 83.456759 238.749578 
L 84.182731 251.682678 
L 84.908703 253.01322 
L 85.634675 255.649742 
L 86.360646 245.720962 
L 87.086618 261.25328 
L 87.81259 249.083469 
L 88.538561 230.22161 
L 89.264533 271.233355 
L 89.990505 256.441233 
L 90.716477 278.06602 
L 91.442448 226.555207 
L 92.16842 256.639283 
L 92.894392 249.174399 
L 93.620363 254.278918 
L 94.346335 250.846961 
L 95.072307 248.312369 
L 95.798278 250.91818 
L 96.52425 250.185663 
L 97.250222 254.151554 
L 97.976194 260.002118 
L 98.702165 268.430579 
L 99.428137 233.521376 
L 100.154109 235.560807 
L 100.88008 244.448287 
L 101.606052 251.308312 
L 102.332024 274.83554 
L 103.057995 212.818165 
L 103.783967 274.367905 
L 105.235911 247.215905 
L 106.687854 252.170864 
L 107.413826 257.072476 
L 108.139797 257.714912 
L 108.865769 268.271927 
L 109.591741 212.777687 
L 110.317712 265.621746 
L 111.043684 263.614176 
L 111.769656 265.511461 
L 112.495628 259.450323 
L 113.221599 268.965715 
L 113.947571 251.967723 
L 114.673543 253.525745 
L 115.399514 263.88275 
L 116.125486 279.985582 
L 116.851458 217.481813 
L 117.57743 258.872956 
L 118.303401 258.515298 
L 119.029373 279.893552 
L 119.755345 201.402197 
L 120.481316 246.248867 
L 121.207288 227.924711 
L 121.93326 256.57054 
L 122.659231 251.912494 
L 123.385203 250.56613 
L 124.111175 258.885103 
L 124.837147 243.543317 
L 125.563118 252.326574 
L 126.28909 251.976332 
L 127.015062 247.412057 
L 127.741033 252.157689 
L 128.467005 259.007779 
L 129.192977 271.155837 
L 129.918948 230.6274 
L 130.64492 264.81761 
L 131.370892 264.171455 
L 132.096864 235.555516 
L 132.822835 259.977166 
L 134.274779 247.094842 
L 135.00075 253.421018 
L 135.726722 250.685571 
L 136.452694 256.296233 
L 137.178665 264.247737 
L 137.904637 251.670228 
L 138.630609 254.273735 
L 139.356581 219.335832 
L 140.082552 236.950061 
L 140.808524 274.156912 
L 141.534496 266.809091 
L 142.260467 271.877725 
L 142.986439 278.025223 
L 143.712411 272.485182 
L 145.164354 237.778957 
L 145.890326 256.172281 
L 146.616298 264.77487 
L 147.342269 270.714793 
L 148.068241 269.117903 
L 148.794213 258.204401 
L 149.520184 263.461906 
L 150.246156 258.376382 
L 150.972128 202.394032 
L 151.6981 250.986672 
L 152.424071 260.288726 
L 153.150043 255.964917 
L 153.876015 260.776225 
L 154.601986 250.166036 
L 155.327958 270.2596 
L 156.05393 248.074531 
L 156.779901 255.948498 
L 157.505873 269.957696 
L 158.231845 272.611469 
L 158.957817 256.106336 
L 160.40976 281.551705 
L 161.135732 262.815164 
L 161.861703 279.784375 
L 162.587675 261.54787 
L 163.313647 236.888717 
L 164.039618 259.977884 
L 164.76559 257.381192 
L 165.491562 262.711113 
L 166.217534 279.491864 
L 166.943505 280.762892 
L 167.669477 279.809951 
L 169.12142 272.792614 
L 169.847392 235.357505 
L 170.573364 269.124716 
L 171.299336 247.651338 
L 172.025307 276.549203 
L 172.751279 269.71561 
L 173.477251 276.440296 
L 174.203222 266.076386 
L 174.929194 271.60203 
L 175.655166 271.312228 
L 176.381137 260.516373 
L 177.107109 281.054379 
L 177.833081 276.452713 
L 178.559053 273.23875 
L 179.285024 278.185599 
L 180.736968 243.933197 
L 181.462939 260.347805 
L 182.188911 266.302382 
L 182.914883 261.340167 
L 183.640854 250.772563 
L 184.366826 264.649631 
L 185.092798 274.240285 
L 186.544741 262.941277 
L 187.270713 262.814498 
L 187.996685 269.28556 
L 188.722656 265.615989 
L 189.448628 232.921646 
L 190.1746 267.016992 
L 190.900571 233.765597 
L 191.626543 255.462141 
L 192.352515 266.90521 
L 193.078487 246.336288 
L 193.804458 236.646627 
L 194.53043 249.795265 
L 195.256402 251.053426 
L 195.982373 271.753972 
L 196.708345 253.351712 
L 197.434317 216.140919 
L 199.612232 269.220258 
L 200.338204 216.519841 
L 201.064175 251.793095 
L 201.790147 225.260884 
L 202.516119 245.456584 
L 203.24209 260.714733 
L 203.968062 220.1235 
L 204.694034 227.009774 
L 205.420006 260.219965 
L 206.145977 211.868887 
L 206.871949 234.822567 
L 207.597921 253.31992 
L 209.049864 264.986255 
L 209.775836 230.106013 
L 210.501807 257.285703 
L 211.953751 247.109894 
L 212.679723 230.576616 
L 213.405694 234.914071 
L 214.131666 260.904942 
L 214.857638 267.518325 
L 215.583609 258.5428 
L 216.309581 251.751864 
L 217.035553 270.157471 
L 217.761524 259.813538 
L 218.487496 257.89776 
L 219.213468 268.677709 
L 219.93944 254.308728 
L 220.665411 268.907079 
L 221.391383 257.402322 
L 222.117355 254.141634 
L 222.843326 255.630263 
L 223.569298 258.743383 
L 224.29527 263.611029 
L 225.021242 255.700589 
L 225.747213 254.14637 
L 226.473185 257.10671 
L 227.199157 258.948452 
L 227.925128 254.502049 
L 228.6511 255.633681 
L 229.377072 269.198722 
L 230.103043 261.014833 
L 230.829015 217.991341 
L 231.554987 274.564654 
L 232.280959 260.928603 
L 233.00693 258.031336 
L 233.732902 252.391999 
L 234.458874 262.352509 
L 235.184845 241.459746 
L 235.910817 262.497244 
L 236.636789 268.574059 
L 237.36276 244.79525 
L 238.814704 253.757403 
L 239.540676 254.896377 
L 240.266647 244.636748 
L 240.992619 259.997754 
L 241.718591 254.078705 
L 242.444562 270.550046 
L 243.170534 241.00146 
L 243.896506 263.294617 
L 244.622477 238.854941 
L 245.348449 266.182803 
L 246.074421 268.142585 
L 246.800393 239.217821 
L 247.526364 268.614094 
L 248.252336 248.853292 
L 248.978308 232.908949 
L 249.704279 255.319429 
L 250.430251 242.54166 
L 251.156223 240.244168 
L 251.882195 264.408795 
L 252.608166 251.897023 
L 253.334138 264.851147 
L 254.06011 259.644029 
L 254.786081 229.285183 
L 255.512053 245.272938 
L 256.238025 252.119859 
L 256.963996 266.631937 
L 257.689968 223.522012 
L 258.41594 253.333405 
L 259.867883 239.86446 
L 260.593855 247.49258 
L 261.319827 235.477488 
L 262.045798 252.851975 
L 262.77177 262.429954 
L 263.497742 242.833411 
L 264.223713 255.81468 
L 264.949685 248.424802 
L 265.675657 259.137942 
L 266.401629 228.299761 
L 267.1276 252.051783 
L 267.853572 251.710458 
L 268.579544 231.395706 
L 269.305515 268.892181 
L 270.031487 246.002389 
L 270.757459 252.645851 
L 271.48343 264.321163 
L 272.209402 252.967633 
L 272.935374 254.762722 
L 273.661346 240.402137 
L 274.387317 254.5617 
L 275.113289 262.854824 
L 275.839261 244.325151 
L 276.565232 257.158632 
L 277.291204 249.100571 
L 278.017176 253.295361 
L 278.743148 250.776191 
L 279.469119 275.594318 
L 280.921063 245.631814 
L 281.647034 271.430809 
L 282.373006 230.766397 
L 283.098978 267.259946 
L 283.824949 258.260265 
L 284.550921 238.777319 
L 285.276893 266.364304 
L 286.002865 243.679288 
L 286.728836 248.191067 
L 287.454808 250.89992 
L 288.18078 263.802503 
L 288.906751 255.776665 
L 289.632723 272.423512 
L 290.358695 257.933515 
L 291.084666 272.500117 
L 291.810638 264.988292 
L 292.53661 261.351566 
L 293.262582 255.012008 
L 293.988553 263.738732 
L 294.714525 255.740135 
L 295.440497 273.165091 
L 296.166468 259.111578 
L 296.89244 273.582128 
L 297.618412 266.39883 
L 298.344383 276.15647 
L 299.070355 268.567468 
L 299.796327 273.504801 
L 300.522299 230.086261 
L 301.24827 276.317393 
L 301.974242 265.970126 
L 302.700214 274.154317 
L 303.426185 268.682782 
L 304.152157 280.13075 
L 304.878129 265.093278 
L 305.604101 253.779476 
L 306.330072 265.769533 
L 307.056044 248.083661 
L 307.782016 259.044783 
L 308.507987 253.594723 
L 309.233959 260.161146 
L 309.959931 254.979422 
L 310.685902 257.354458 
L 311.411874 259.19846 
L 312.137846 269.711196 
L 312.863818 262.861056 
L 313.589789 270.156762 
L 314.315761 271.905521 
L 315.041733 260.563765 
L 315.767704 262.222433 
L 316.493676 258.955862 
L 317.219648 253.947084 
L 317.945619 261.95782 
L 318.671591 261.795209 
L 319.397563 269.825788 
L 320.123535 260.954263 
L 320.849506 270.603229 
L 321.575478 231.120815 
L 322.30145 251.708559 
L 323.027421 255.213187 
L 323.753393 256.463508 
L 324.479365 259.765878 
L 325.205336 250.15193 
L 325.931308 236.090378 
L 326.65728 255.537586 
L 327.383252 263.933415 
L 328.109223 245.97392 
L 328.835195 265.942863 
L 329.561167 228.037636 
L 330.287138 262.554515 
L 331.739082 241.805795 
L 332.465054 255.113058 
L 333.191025 260.089501 
L 333.916997 234.444338 
L 334.642969 247.449607 
L 335.36894 257.818513 
L 336.094912 247.799119 
L 336.820884 249.67153 
L 337.546855 247.602747 
L 338.272827 245.880195 
L 338.998799 246.622881 
L 339.724771 259.412609 
L 340.450742 243.242549 
L 341.176714 238.228482 
L 341.902686 246.649505 
L 342.628657 243.030693 
L 343.354629 251.728148 
L 344.080601 257.029293 
L 345.532544 234.019978 
L 346.258516 257.846973 
L 346.984488 223.190478 
L 347.710459 243.974331 
L 348.436431 229.340625 
L 349.162403 249.087865 
L 349.888374 233.171611 
L 350.614346 240.973791 
L 351.340318 236.924781 
L 352.066289 233.800797 
L 352.792261 245.742298 
L 353.518233 250.978541 
L 354.244205 240.84059 
L 354.970176 227.266427 
L 355.696148 250.964236 
L 356.42212 242.615226 
L 357.148091 238.270355 
L 357.874063 241.959902 
L 358.600035 241.267797 
L 359.326007 249.90166 
L 360.051978 252.639266 
L 361.503922 230.020875 
L 362.955865 256.341452 
L 363.681837 240.878216 
L 364.407808 242.600175 
L 365.13378 242.361081 
L 365.859752 243.429768 
L 366.585724 240.486289 
L 367.311695 239.550746 
L 368.037667 246.383844 
L 368.763639 223.118771 
L 369.48961 242.288594 
L 370.215582 220.864224 
L 370.941554 241.954018 
L 371.667525 235.380292 
L 372.393497 241.072307 
L 373.119469 234.231671 
L 373.845441 237.260444 
L 374.571412 242.947102 
L 375.297384 222.147524 
L 376.023356 247.056514 
L 376.749327 246.1174 
L 377.475299 239.779909 
L 378.201271 229.698029 
L 378.927242 237.157667 
L 379.653214 241.472965 
L 380.379186 249.736321 
L 381.105158 240.512311 
L 381.831129 238.341998 
L 382.557101 243.392063 
L 383.283073 253.382819 
L 384.009044 244.229609 
L 384.735016 252.131672 
L 385.460988 238.330602 
L 386.18696 231.210746 
L 386.912931 254.289426 
L 387.638903 243.177246 
L 388.364875 251.35325 
L 389.090846 241.570905 
L 389.816818 243.727781 
L 390.54279 236.727228 
L 391.268761 250.507367 
L 391.994733 250.537161 
L 392.720705 249.647763 
L 393.446677 254.89971 
L 394.172648 247.633391 
L 394.89862 247.98716 
L 395.624592 247.205705 
L 396.350563 245.295398 
L 397.076535 256.910722 
L 397.802507 254.488268 
L 398.528478 254.932593 
L 399.25445 253.90561 
L 399.980422 255.21109 
L 400.706394 257.59687 
L 401.432365 257.775926 
L 402.158337 252.297422 
L 402.884309 258.472553 
L 403.61028 253.604776 
L 404.336252 258.54845 
L 405.062224 254.947093 
L 405.788195 260.648462 
L 406.514167 253.716647 
L 407.240139 254.77674 
L 407.966111 253.032474 
L 408.692082 251.579238 
L 409.418054 257.859192 
L 410.144026 245.840076 
L 410.869997 259.429214 
L 411.595969 257.319066 
L 412.321941 243.831747 
L 413.047913 258.89135 
L 413.773884 256.18647 
L 414.499856 257.111823 
L 415.225828 257.481736 
L 415.951799 260.93033 
L 416.677771 245.777453 
L 417.403743 258.335663 
L 418.129714 254.994889 
L 418.855686 249.221473 
L 419.581658 256.947508 
L 420.30763 255.190923 
L 421.033601 258.482868 
L 421.759573 246.501924 
L 422.485545 250.313907 
L 423.211516 247.714376 
L 423.937488 248.652619 
L 424.66346 246.883244 
L 425.389431 245.911408 
L 426.115403 246.434651 
L 426.841375 246.285049 
L 427.567347 245.955321 
L 428.293318 242.524606 
L 429.01929 244.447951 
L 429.745262 242.592609 
L 430.471233 244.6162 
L 431.197205 242.10336 
L 431.923177 241.497751 
L 432.649148 243.065711 
L 433.37512 243.622021 
L 434.101092 238.537804 
L 434.827064 240.310424 
L 435.553035 245.522534 
L 436.279007 240.693189 
L 437.004979 244.201489 
L 437.73095 240.22955 
L 438.456922 243.452243 
L 439.182894 239.692461 
L 439.908866 233.320797 
L 440.634837 240.688082 
L 441.360809 237.123264 
L 442.086781 240.849709 
L 442.812752 237.951373 
L 443.538724 241.173886 
L 444.264696 237.795919 
L 444.990667 243.22285 
L 445.716639 238.929017 
L 446.442611 242.401558 
L 447.168583 242.252661 
L 447.894554 239.552764 
L 448.620526 238.638612 
L 449.346498 238.005751 
L 450.072469 234.638709 
L 450.798441 237.263209 
L 451.524413 235.384513 
L 452.250384 236.718713 
L 452.976356 237.31779 
L 453.702328 237.523154 
L 454.4283 234.01418 
L 455.154271 239.82447 
L 455.880243 236.980482 
L 456.606215 236.176065 
L 457.332186 236.426496 
L 458.058158 235.298441 
L 458.78413 232.684354 
L 459.510101 235.828853 
L 460.236073 234.466338 
L 460.962045 237.241337 
L 461.688017 232.484233 
L 462.413988 231.705666 
L 463.13996 234.112814 
L 463.865932 233.581956 
L 464.591903 234.034196 
L 464.591903 234.034196 
" style="fill:none;stroke:#1f77b4;stroke-linecap:square;stroke-width:1.5;"/>
   </g>
   <g id="line2d_2">
    <path clip-path="url(#p09ee1e0180)" d="M 58.773722 203.835868 
L 59.499693 34.460795 
L 60.225665 167.811328 
L 60.951637 233.203098 
L 61.677608 146.107495 
L 62.40358 202.482253 
L 63.129552 160.727125 
L 63.855524 251.48337 
L 64.581495 185.370528 
L 65.307467 96.184402 
L 66.033439 190.667373 
L 66.75941 180.507343 
L 67.485382 166.372703 
L 68.211354 179.393193 
L 68.937325 221.131596 
L 69.663297 220.685669 
L 70.389269 173.712058 
L 71.115241 57.521652 
L 71.841212 195.671984 
L 72.567184 65.200736 
L 73.293156 239.687033 
L 74.019127 169.274541 
L 74.745099 220.393542 
L 75.471071 186.490139 
L 76.197042 187.189108 
L 76.923014 203.95295 
L 77.648986 141.547862 
L 78.374958 150.720964 
L 79.100929 177.011353 
L 79.826901 126.513411 
L 81.278844 179.84044 
L 82.730788 140.843261 
L 83.456759 128.508451 
L 84.182731 100.468383 
L 84.908703 140.579754 
L 85.634675 154.543412 
L 86.360646 144.875851 
L 87.086618 151.601438 
L 87.81259 138.332612 
L 88.538561 35.082015 
L 89.264533 216.447913 
L 89.990505 156.30202 
L 90.716477 176.663033 
L 91.442448 121.571627 
L 92.16842 227.691903 
L 92.894392 125.362126 
L 93.620363 218.825432 
L 94.346335 174.307215 
L 95.072307 199.433398 
L 95.798278 192.770506 
L 96.52425 182.956818 
L 97.250222 225.728442 
L 97.976194 203.754463 
L 98.702165 216.117652 
L 99.428137 82.605449 
L 100.154109 242.367285 
L 100.88008 164.183196 
L 101.606052 191.223509 
L 102.332024 193.460206 
L 103.057995 126.630887 
L 103.783967 194.440695 
L 104.509939 201.551128 
L 105.235911 132.48957 
L 105.961882 147.226568 
L 106.687854 190.826631 
L 107.413826 249.001649 
L 108.865769 207.007222 
L 109.591741 148.695318 
L 110.317712 136.341405 
L 112.495628 194.326608 
L 113.221599 204.126757 
L 113.947571 198.970592 
L 114.673543 158.248235 
L 115.399514 213.26784 
L 116.125486 185.089858 
L 116.851458 100.36879 
L 117.57743 253.286713 
L 118.303401 235.533753 
L 119.029373 231.67646 
L 119.755345 84.950494 
L 120.481316 139.336333 
L 121.207288 134.035132 
L 121.93326 186.71622 
L 122.659231 183.752062 
L 123.385203 206.135347 
L 124.111175 170.187908 
L 124.837147 159.129505 
L 125.563118 131.253713 
L 126.28909 170.197985 
L 127.015062 156.815407 
L 127.741033 230.06565 
L 128.467005 200.814464 
L 129.192977 182.52949 
L 129.918948 143.700725 
L 130.64492 269.391327 
L 131.370892 189.190679 
L 132.096864 155.489447 
L 132.822835 201.422151 
L 133.548807 106.531395 
L 134.274779 188.781136 
L 135.00075 178.859657 
L 135.726722 209.217607 
L 136.452694 232.155758 
L 137.178665 195.02767 
L 137.904637 202.402203 
L 138.630609 201.870298 
L 139.356581 85.025563 
L 140.082552 161.995051 
L 140.808524 169.164213 
L 141.534496 170.806602 
L 142.260467 262.849079 
L 142.986439 216.815594 
L 143.712411 263.849135 
L 144.438383 208.021143 
L 145.164354 165.605369 
L 145.890326 206.110253 
L 146.616298 205.373964 
L 147.342269 238.957237 
L 148.068241 242.11114 
L 148.794213 199.705415 
L 149.520184 214.061207 
L 150.246156 218.752894 
L 150.972128 131.940756 
L 151.6981 207.851389 
L 152.424071 199.413593 
L 153.150043 197.293402 
L 153.876015 216.247902 
L 154.601986 252.467698 
L 155.327958 222.307571 
L 156.05393 241.724861 
L 156.779901 221.365263 
L 157.505873 214.677927 
L 158.231845 223.72283 
L 158.957817 254.714202 
L 159.683788 253.330485 
L 160.40976 233.914368 
L 161.135732 206.272808 
L 161.861703 228.905976 
L 162.587675 228.381298 
L 163.313647 165.140671 
L 164.039618 214.363822 
L 164.76559 229.251825 
L 165.491562 257.665835 
L 166.217534 211.562363 
L 166.943505 229.345543 
L 167.669477 229.417352 
L 168.395449 219.047412 
L 169.12142 233.124478 
L 169.847392 207.171997 
L 170.573364 252.313007 
L 171.299336 195.165584 
L 172.025307 249.668703 
L 172.751279 237.278068 
L 173.477251 222.077026 
L 174.203222 218.995164 
L 175.655166 237.241282 
L 176.381137 239.922828 
L 177.107109 226.995041 
L 177.833081 229.853606 
L 178.559053 228.017904 
L 179.285024 231.603881 
L 180.010996 203.444321 
L 180.736968 167.172546 
L 181.462939 236.294599 
L 182.188911 237.810305 
L 182.914883 215.667879 
L 183.640854 187.571598 
L 184.366826 213.278731 
L 185.092798 255.773586 
L 185.81877 208.911906 
L 186.544741 220.29824 
L 187.270713 224.456096 
L 187.996685 223.009351 
L 188.722656 203.737421 
L 189.448628 153.555713 
L 190.1746 203.152025 
L 190.900571 128.84633 
L 191.626543 236.86304 
L 192.352515 223.515228 
L 193.078487 219.529422 
L 193.804458 178.055663 
L 194.53043 213.113628 
L 195.256402 208.702117 
L 195.982373 206.631521 
L 196.708345 224.564658 
L 197.434317 146.634866 
L 198.160289 146.671592 
L 198.88626 196.781488 
L 199.612232 205.897561 
L 200.338204 114.874371 
L 201.064175 149.489103 
L 201.790147 109.180767 
L 202.516119 156.348495 
L 203.24209 140.807133 
L 203.968062 139.983307 
L 204.694034 214.381674 
L 205.420006 151.216967 
L 206.145977 216.254074 
L 206.871949 165.992401 
L 207.597921 166.438314 
L 208.323892 203.109099 
L 209.049864 177.80471 
L 209.775836 158.743051 
L 210.501807 188.436211 
L 211.227779 255.2579 
L 211.953751 166.796771 
L 212.679723 173.427297 
L 213.405694 221.648455 
L 214.131666 236.82352 
L 214.857638 214.307168 
L 215.583609 198.574728 
L 216.309581 243.573024 
L 217.035553 201.298732 
L 217.761524 195.986916 
L 218.487496 170.390706 
L 219.213468 211.829159 
L 219.93944 212.252231 
L 220.665411 183.460594 
L 221.391383 196.527991 
L 222.117355 190.209296 
L 222.843326 163.014891 
L 223.569298 253.36745 
L 224.29527 196.654788 
L 225.021242 178.381293 
L 225.747213 182.221147 
L 226.473185 197.750346 
L 227.199157 162.911162 
L 227.925128 171.816577 
L 228.6511 190.477231 
L 229.377072 204.193794 
L 230.103043 187.157042 
L 230.829015 150.743136 
L 231.554987 186.490166 
L 232.280959 165.036252 
L 233.00693 196.101025 
L 233.732902 241.028455 
L 234.458874 239.873285 
L 235.184845 200.307797 
L 235.910817 253.534967 
L 236.636789 202.50978 
L 237.36276 204.276611 
L 238.088732 199.603046 
L 238.814704 180.820841 
L 239.540676 225.675323 
L 240.266647 187.910524 
L 240.992619 204.783866 
L 241.718591 181.181843 
L 243.170534 238.26225 
L 243.896506 235.470856 
L 244.622477 185.758069 
L 245.348449 207.663322 
L 246.074421 215.99725 
L 246.800393 203.842674 
L 247.526364 230.491745 
L 248.252336 204.285426 
L 248.978308 163.790415 
L 249.704279 203.637494 
L 250.430251 205.039701 
L 251.156223 215.85095 
L 251.882195 207.084812 
L 252.608166 207.20013 
L 253.334138 208.416028 
L 254.06011 212.553329 
L 255.512053 172.463281 
L 256.238025 201.989969 
L 256.963996 183.868421 
L 257.689968 144.767495 
L 258.41594 204.461325 
L 259.141912 202.609722 
L 259.867883 164.357783 
L 260.593855 187.735825 
L 261.319827 174.32062 
L 262.045798 219.407575 
L 262.77177 203.139797 
L 263.497742 209.161992 
L 264.223713 207.027472 
L 264.949685 186.614436 
L 265.675657 200.760367 
L 266.401629 206.636713 
L 267.1276 198.417096 
L 267.853572 195.053107 
L 268.579544 184.76187 
L 269.305515 241.743335 
L 270.031487 227.603716 
L 270.757459 207.424923 
L 271.48343 204.52615 
L 272.209402 196.258886 
L 272.935374 168.926492 
L 273.661346 239.934797 
L 274.387317 193.10723 
L 275.113289 218.154009 
L 275.839261 195.625187 
L 276.565232 201.278427 
L 277.291204 204.606064 
L 278.017176 198.318184 
L 278.743148 189.729542 
L 279.469119 205.16262 
L 280.195091 200.392429 
L 280.921063 153.457287 
L 281.647034 207.929619 
L 282.373006 156.734182 
L 283.098978 196.247492 
L 283.824949 194.800183 
L 284.550921 227.548818 
L 285.276893 228.241721 
L 286.002865 204.854067 
L 286.728836 196.908 
L 287.454808 216.087064 
L 288.18078 226.312287 
L 288.906751 206.295206 
L 289.632723 212.730879 
L 290.358695 214.145448 
L 291.084666 220.155662 
L 291.810638 206.430986 
L 292.53661 245.052322 
L 293.262582 202.978369 
L 293.988553 216.143518 
L 294.714525 202.874745 
L 295.440497 224.102235 
L 296.166468 221.491014 
L 296.89244 225.524876 
L 297.618412 221.28356 
L 298.344383 230.261159 
L 299.070355 217.191263 
L 299.796327 213.796893 
L 300.522299 130.200428 
L 301.24827 202.501687 
L 301.974242 206.564766 
L 302.700214 197.955707 
L 303.426185 252.924431 
L 304.152157 211.076829 
L 304.878129 240.528012 
L 305.604101 203.967671 
L 306.330072 233.169643 
L 307.056044 196.09837 
L 307.782016 196.51908 
L 308.507987 220.283709 
L 309.233959 208.58406 
L 309.959931 209.435458 
L 310.685902 213.220271 
L 311.411874 210.875806 
L 312.137846 200.923734 
L 312.863818 212.066493 
L 313.589789 209.245296 
L 314.315761 247.849384 
L 315.041733 203.81921 
L 315.767704 214.373849 
L 316.493676 217.242963 
L 317.219648 159.272077 
L 317.945619 215.301077 
L 318.671591 243.146444 
L 319.397563 233.395507 
L 320.123535 211.977318 
L 320.849506 226.307118 
L 321.575478 162.552424 
L 322.30145 181.383916 
L 323.027421 236.199244 
L 323.753393 204.663679 
L 324.479365 202.762501 
L 325.205336 171.357548 
L 325.931308 181.607506 
L 326.65728 181.186412 
L 327.383252 232.094791 
L 328.109223 173.96163 
L 328.835195 202.879508 
L 329.561167 154.766775 
L 330.287138 208.892405 
L 331.01311 226.379081 
L 331.739082 204.557889 
L 332.465054 233.585588 
L 333.916997 167.603546 
L 334.642969 176.239842 
L 335.36894 192.011247 
L 336.094912 212.521683 
L 336.820884 165.319038 
L 337.546855 221.426226 
L 338.272827 172.670188 
L 338.998799 193.116249 
L 340.450742 176.242535 
L 341.176714 163.739749 
L 341.902686 187.375653 
L 342.628657 221.922398 
L 343.354629 152.225405 
L 344.080601 217.071227 
L 344.806572 214.470984 
L 345.532544 199.152229 
L 346.258516 197.520465 
L 346.984488 213.442883 
L 347.710459 202.816503 
L 348.436431 206.030897 
L 349.162403 206.140111 
L 349.888374 206.037633 
L 350.614346 205.592074 
L 351.340318 196.03315 
L 352.066289 195.999098 
L 352.792261 212.586547 
L 353.518233 196.639404 
L 354.244205 196.850359 
L 354.970176 199.694076 
L 355.696148 214.637972 
L 356.42212 205.750412 
L 357.148091 211.532228 
L 357.874063 207.933687 
L 358.600035 206.001589 
L 359.326007 202.275122 
L 360.051978 228.013369 
L 360.77795 229.073786 
L 361.503922 184.37103 
L 362.229893 214.400836 
L 362.955865 208.638468 
L 363.681837 217.260393 
L 364.407808 205.873647 
L 365.13378 216.686395 
L 366.585724 207.024912 
L 367.311695 206.532075 
L 368.037667 207.949094 
L 368.763639 212.102766 
L 369.48961 211.991815 
L 370.215582 216.093448 
L 370.941554 211.181644 
L 371.667525 211.20503 
L 372.393497 213.46553 
L 373.119469 211.654131 
L 373.845441 215.565954 
L 374.571412 212.000931 
L 375.297384 194.18229 
L 376.023356 217.724703 
L 376.749327 223.80062 
L 377.475299 210.547903 
L 378.201271 192.571179 
L 378.927242 215.024602 
L 379.653214 222.106189 
L 380.379186 224.783684 
L 381.105158 213.844959 
L 381.831129 217.692638 
L 382.557101 222.581983 
L 383.283073 225.590598 
L 384.009044 207.40919 
L 384.735016 213.924042 
L 385.460988 226.690735 
L 386.18696 216.137669 
L 386.912931 225.446665 
L 387.638903 219.011322 
L 388.364875 225.815319 
L 389.090846 219.373035 
L 389.816818 217.848297 
L 390.54279 210.774606 
L 391.268761 218.562608 
L 391.994733 216.938037 
L 392.720705 213.575551 
L 393.446677 216.581759 
L 394.172648 229.186081 
L 394.89862 209.020242 
L 395.624592 209.208759 
L 397.076535 217.125688 
L 397.802507 210.976437 
L 398.528478 228.25356 
L 399.25445 225.467041 
L 399.980422 225.318778 
L 400.706394 221.162242 
L 401.432365 222.75767 
L 402.158337 205.790956 
L 403.61028 230.366345 
L 404.336252 228.237561 
L 405.062224 230.801435 
L 405.788195 224.310907 
L 406.514167 231.583965 
L 407.240139 232.386394 
L 408.692082 209.570326 
L 409.418054 231.928718 
L 410.144026 205.793668 
L 410.869997 220.854711 
L 411.595969 219.272478 
L 412.321941 220.344313 
L 413.047913 219.512694 
L 413.773884 221.019521 
L 414.499856 214.765803 
L 415.225828 230.860891 
L 415.951799 231.749716 
L 416.677771 210.525778 
L 417.403743 230.926161 
L 418.129714 221.27812 
L 418.855686 216.267376 
L 419.581658 228.355809 
L 420.30763 218.485069 
L 421.033601 223.618378 
L 421.759573 206.022093 
L 422.485545 217.683178 
L 423.211516 206.668861 
L 423.937488 215.323217 
L 424.66346 215.079716 
L 425.389431 213.631414 
L 426.115403 216.230463 
L 426.841375 214.385853 
L 427.567347 214.270335 
L 428.293318 213.83856 
L 429.01929 213.116938 
L 429.745262 211.321299 
L 430.471233 214.501082 
L 431.197205 211.489175 
L 431.923177 210.457889 
L 432.649148 210.005711 
L 433.37512 208.752293 
L 434.101092 200.816717 
L 434.827064 209.8691 
L 435.553035 214.704297 
L 436.279007 209.89095 
L 437.004979 215.771461 
L 437.73095 212.431392 
L 438.456922 217.247805 
L 439.182894 212.677215 
L 439.908866 209.280765 
L 440.634837 214.174665 
L 441.360809 211.685178 
L 442.086781 211.528732 
L 442.812752 212.341654 
L 443.538724 210.048811 
L 444.264696 212.488393 
L 444.990667 211.895868 
L 446.442611 211.398318 
L 447.168583 210.773808 
L 447.894554 212.030095 
L 448.620526 206.658633 
L 449.346498 210.32321 
L 450.072469 211.903658 
L 450.798441 210.504822 
L 451.524413 207.280156 
L 452.976356 210.556352 
L 453.702328 208.321312 
L 454.4283 208.678005 
L 455.154271 209.796333 
L 455.880243 206.015217 
L 456.606215 209.864405 
L 457.332186 208.054394 
L 458.058158 207.990213 
L 458.78413 209.447624 
L 459.510101 209.073092 
L 460.236073 209.069345 
L 460.962045 208.917153 
L 461.688017 208.399848 
L 462.413988 209.419992 
L 463.13996 210.015209 
L 463.865932 210.321002 
L 464.591903 210.3601 
L 464.591903 210.3601 
" style="fill:none;stroke:#ff7f0e;stroke-linecap:square;stroke-width:1.5;"/>
   </g>
   <g id="line2d_3">
    <path clip-path="url(#p09ee1e0180)" d="M 58.773722 257.492309 
L 59.499693 233.520575 
L 60.225665 243.161959 
L 60.951637 237.824767 
L 61.677608 239.837308 
L 62.40358 256.161216 
L 63.129552 249.171659 
L 63.855524 254.610821 
L 64.581495 251.115835 
L 65.307467 193.256598 
L 66.033439 250.888596 
L 66.75941 233.311158 
L 67.485382 235.428211 
L 68.211354 268.957202 
L 68.937325 181.581707 
L 69.663297 248.679291 
L 70.389269 224.466846 
L 71.115241 230.090881 
L 71.841212 241.34802 
L 72.567184 222.917414 
L 73.293156 236.658686 
L 74.019127 236.95872 
L 74.745099 229.566051 
L 75.471071 226.547018 
L 76.197042 235.179818 
L 76.923014 225.352808 
L 77.648986 224.09292 
L 78.374958 201.17105 
L 79.100929 228.929182 
L 79.826901 185.41744 
L 80.552873 198.582982 
L 81.278844 235.277868 
L 82.004816 213.678324 
L 82.730788 223.744834 
L 83.456759 179.947983 
L 84.182731 188.894168 
L 84.908703 215.135637 
L 85.634675 227.706055 
L 86.360646 233.110688 
L 87.086618 213.497601 
L 87.81259 255.417508 
L 88.538561 165.530296 
L 89.264533 257.398687 
L 89.990505 230.978814 
L 90.716477 230.000936 
L 91.442448 208.63133 
L 92.16842 251.688098 
L 92.894392 208.891186 
L 93.620363 251.924316 
L 94.346335 229.669897 
L 95.072307 249.439702 
L 95.798278 242.336586 
L 96.52425 238.733583 
L 97.250222 254.377747 
L 97.976194 254.219798 
L 98.702165 252.73342 
L 99.428137 201.026299 
L 100.154109 224.889718 
L 100.88008 238.29769 
L 101.606052 258.663752 
L 102.332024 239.250808 
L 103.057995 239.078187 
L 103.783967 256.438272 
L 104.509939 232.674445 
L 105.235911 233.483457 
L 105.961882 211.939854 
L 106.687854 247.255881 
L 107.413826 247.293482 
L 108.139797 242.911829 
L 108.865769 262.02379 
L 109.591741 194.414339 
L 110.317712 246.837907 
L 111.043684 233.397774 
L 111.769656 247.796006 
L 112.495628 246.410125 
L 113.221599 249.627228 
L 113.947571 231.244641 
L 114.673543 229.512309 
L 116.125486 263.952392 
L 116.851458 186.991054 
L 117.57743 241.561474 
L 118.303401 244.538812 
L 119.029373 268.145554 
L 119.755345 170.039392 
L 120.481316 217.704971 
L 121.207288 220.887179 
L 121.93326 256.876317 
L 122.659231 247.822393 
L 123.385203 230.997688 
L 124.111175 254.600747 
L 124.837147 197.016433 
L 125.563118 243.614752 
L 126.28909 252.762331 
L 127.015062 239.504043 
L 127.741033 206.767717 
L 128.467005 260.66813 
L 129.192977 246.206231 
L 129.918948 228.385308 
L 130.64492 264.380997 
L 131.370892 257.217335 
L 132.096864 200.866902 
L 132.822835 248.569092 
L 133.548807 208.635058 
L 134.274779 256.577319 
L 135.00075 256.32123 
L 135.726722 242.167693 
L 136.452694 266.407566 
L 137.178665 249.312941 
L 137.904637 256.740905 
L 138.630609 254.386887 
L 139.356581 229.431522 
L 140.082552 228.493919 
L 140.808524 246.626875 
L 141.534496 247.913033 
L 142.260467 254.299567 
L 142.986439 256.223663 
L 143.712411 262.373546 
L 145.164354 203.248723 
L 145.890326 242.875259 
L 146.616298 273.229663 
L 148.068241 237.389386 
L 148.794213 240.699186 
L 149.520184 252.550065 
L 150.246156 240.305221 
L 150.972128 168.789585 
L 151.6981 211.748278 
L 152.424071 244.003943 
L 153.150043 261.735053 
L 153.876015 241.539354 
L 154.601986 256.765805 
L 155.327958 235.933909 
L 156.05393 256.579677 
L 156.779901 251.626594 
L 157.505873 237.915285 
L 158.231845 244.163176 
L 158.957817 243.298604 
L 159.683788 245.83593 
L 160.40976 249.820453 
L 161.135732 216.700061 
L 161.861703 241.403922 
L 162.587675 231.975742 
L 163.313647 163.471415 
L 164.039618 229.467234 
L 164.76559 235.138569 
L 165.491562 242.578433 
L 166.217534 239.926012 
L 166.943505 254.627813 
L 167.669477 248.557107 
L 168.395449 260.112193 
L 169.12142 235.147245 
L 169.847392 202.879782 
L 170.573364 245.613499 
L 171.299336 170.059179 
L 172.025307 243.79832 
L 172.751279 236.507097 
L 173.477251 262.718493 
L 174.203222 211.947308 
L 174.929194 255.104598 
L 175.655166 251.97575 
L 176.381137 231.51244 
L 177.107109 243.869551 
L 177.833081 252.777783 
L 178.559053 254.765977 
L 179.285024 248.195377 
L 180.010996 238.762117 
L 180.736968 204.337009 
L 181.462939 232.258966 
L 182.188911 241.948554 
L 182.914883 245.875548 
L 183.640854 210.352414 
L 185.092798 262.999972 
L 185.81877 247.548937 
L 186.544741 250.254097 
L 187.270713 246.281327 
L 187.996685 250.121678 
L 188.722656 234.823345 
L 189.448628 230.615271 
L 190.1746 242.086391 
L 190.900571 229.016372 
L 192.352515 240.788417 
L 193.078487 230.668041 
L 193.804458 233.673059 
L 194.53043 233.922138 
L 195.982373 249.89805 
L 196.708345 241.533039 
L 197.434317 203.791383 
L 198.160289 214.013463 
L 198.88626 229.305204 
L 199.612232 230.743951 
L 200.338204 223.88829 
L 201.064175 205.254286 
L 201.790147 228.35901 
L 202.516119 215.89778 
L 203.24209 231.112658 
L 203.968062 222.369679 
L 204.694034 207.051948 
L 205.420006 232.891536 
L 206.145977 204.688066 
L 206.871949 226.811994 
L 207.597921 218.770848 
L 208.323892 231.424741 
L 209.049864 224.97466 
L 209.775836 200.84316 
L 210.501807 229.133023 
L 211.227779 240.174347 
L 211.953751 230.106929 
L 212.679723 197.344137 
L 213.405694 243.118628 
L 214.131666 233.364194 
L 214.857638 249.544185 
L 215.583609 220.94208 
L 216.309581 227.250867 
L 217.761524 249.862424 
L 218.487496 215.494902 
L 219.213468 254.804878 
L 219.93944 253.68168 
L 220.665411 251.224887 
L 221.391383 243.793566 
L 222.117355 245.010735 
L 222.843326 202.059402 
L 223.569298 254.000194 
L 224.29527 263.773899 
L 225.021242 235.608812 
L 225.747213 219.096063 
L 226.473185 249.073032 
L 227.199157 257.739458 
L 227.925128 239.029603 
L 228.6511 247.505475 
L 229.377072 253.176445 
L 230.103043 237.690984 
L 230.829015 197.343865 
L 231.554987 241.840292 
L 232.280959 230.830953 
L 233.00693 263.019431 
L 233.732902 229.395831 
L 234.458874 264.687978 
L 235.184845 242.165783 
L 235.910817 259.998169 
L 236.636789 241.050949 
L 237.36276 235.1742 
L 238.088732 251.729395 
L 238.814704 227.693664 
L 239.540676 227.553164 
L 240.266647 234.08956 
L 240.992619 254.674368 
L 241.718591 239.056713 
L 242.444562 239.271642 
L 243.170534 250.225854 
L 243.896506 249.45706 
L 244.622477 214.93543 
L 245.348449 244.743605 
L 246.074421 243.188528 
L 246.800393 226.199765 
L 247.526364 241.160145 
L 248.252336 237.01358 
L 248.978308 231.786665 
L 249.704279 237.641553 
L 250.430251 222.678532 
L 251.156223 240.74132 
L 251.882195 247.675218 
L 252.608166 251.165588 
L 253.334138 252.093471 
L 254.06011 241.649257 
L 254.786081 214.662677 
L 255.512053 218.230561 
L 256.238025 235.229228 
L 256.963996 226.451446 
L 257.689968 202.088655 
L 258.41594 253.009907 
L 259.141912 194.118969 
L 259.867883 219.839999 
L 260.593855 223.57909 
L 261.319827 216.357447 
L 262.045798 207.925223 
L 262.77177 226.852986 
L 263.497742 197.754706 
L 264.223713 212.699326 
L 264.949685 220.980841 
L 265.675657 223.187427 
L 266.401629 185.156836 
L 267.1276 253.035361 
L 267.853572 240.158036 
L 268.579544 211.455904 
L 269.305515 236.65794 
L 270.031487 226.500308 
L 270.757459 220.868533 
L 271.48343 228.712855 
L 272.209402 220.920373 
L 272.935374 203.169602 
L 273.661346 196.645443 
L 274.387317 215.672925 
L 275.113289 220.984604 
L 275.839261 212.109783 
L 276.565232 210.19141 
L 277.291204 247.23041 
L 278.017176 218.990679 
L 278.743148 212.990018 
L 279.469119 235.617572 
L 280.195091 208.08409 
L 280.921063 231.487002 
L 281.647034 226.661468 
L 282.373006 223.817599 
L 283.098978 220.089257 
L 283.824949 233.39239 
L 284.550921 227.307673 
L 285.276893 230.827107 
L 286.002865 224.030794 
L 286.728836 233.133421 
L 287.454808 229.193766 
L 288.18078 247.73666 
L 288.906751 231.601762 
L 289.632723 246.037141 
L 290.358695 235.103271 
L 291.084666 245.562235 
L 291.810638 231.219659 
L 292.53661 240.920264 
L 293.262582 229.86403 
L 293.988553 242.040386 
L 294.714525 228.158889 
L 295.440497 238.225476 
L 296.166468 237.191825 
L 296.89244 243.209646 
L 297.618412 238.14447 
L 298.344383 245.620079 
L 299.070355 240.931967 
L 299.796327 257.628295 
L 300.522299 184.653695 
L 301.24827 260.82673 
L 301.974242 244.089421 
L 302.700214 257.407304 
L 303.426185 251.809553 
L 304.152157 262.085111 
L 304.878129 235.351346 
L 306.330072 249.301496 
L 307.056044 225.391952 
L 307.782016 230.773516 
L 309.233959 245.723339 
L 309.959931 240.307065 
L 310.685902 244.721051 
L 311.411874 236.15037 
L 312.137846 238.70543 
L 312.863818 248.835304 
L 314.315761 240.366946 
L 315.041733 247.292628 
L 315.767704 250.662733 
L 316.493676 236.108368 
L 317.219648 226.905212 
L 317.945619 253.631335 
L 318.671591 246.670234 
L 319.397563 244.579097 
L 320.123535 235.375179 
L 320.849506 244.920376 
L 321.575478 226.741853 
L 322.30145 221.286846 
L 323.027421 232.211612 
L 323.753393 256.918321 
L 324.479365 243.805565 
L 325.205336 208.39047 
L 325.931308 234.442598 
L 326.65728 230.990199 
L 327.383252 239.759801 
L 328.109223 230.307546 
L 328.835195 239.314175 
L 329.561167 203.003802 
L 330.287138 236.003804 
L 331.01311 249.728425 
L 331.739082 215.721354 
L 332.465054 250.947539 
L 333.916997 216.850478 
L 334.642969 218.929647 
L 335.36894 245.232879 
L 336.094912 209.474356 
L 336.820884 218.945626 
L 337.546855 217.325474 
L 338.272827 231.497787 
L 338.998799 240.571324 
L 339.724771 243.565508 
L 340.450742 217.266669 
L 341.176714 220.029281 
L 342.628657 242.152651 
L 343.354629 212.286542 
L 344.080601 233.582668 
L 344.806572 236.363662 
L 345.532544 208.59333 
L 346.258516 234.851751 
L 346.984488 219.535582 
L 347.710459 228.116366 
L 348.436431 225.018788 
L 349.162403 226.325905 
L 349.888374 226.398558 
L 350.614346 226.974877 
L 351.340318 223.212852 
L 352.066289 223.488325 
L 352.792261 228.216321 
L 353.518233 236.392325 
L 354.244205 229.731649 
L 354.970176 210.146111 
L 355.696148 237.922978 
L 356.42212 212.533467 
L 357.148091 228.027192 
L 357.874063 227.54141 
L 358.600035 221.953318 
L 359.326007 221.954348 
L 360.051978 225.125782 
L 360.77795 241.412468 
L 361.503922 206.361346 
L 362.229893 228.820064 
L 362.955865 225.202371 
L 363.681837 223.88941 
L 364.407808 224.364993 
L 365.13378 228.191159 
L 365.859752 229.785943 
L 367.311695 226.276063 
L 368.037667 228.916733 
L 368.763639 212.645496 
L 369.48961 225.458216 
L 370.215582 208.314362 
L 370.941554 211.553852 
L 371.667525 222.5914 
L 372.393497 210.358889 
L 373.119469 220.684809 
L 374.571412 227.602855 
L 375.297384 216.932219 
L 376.023356 228.284359 
L 376.749327 229.326472 
L 377.475299 225.821991 
L 378.201271 224.584688 
L 378.927242 225.77453 
L 379.653214 236.675992 
L 380.379186 228.839171 
L 381.105158 233.587291 
L 381.831129 228.045061 
L 382.557101 232.179424 
L 383.283073 228.257254 
L 384.009044 215.918998 
L 384.735016 239.273611 
L 386.18696 211.849581 
L 386.912931 237.755504 
L 387.638903 215.271385 
L 388.364875 235.98958 
L 389.090846 235.892427 
L 389.816818 225.763285 
L 390.54279 227.546624 
L 391.268761 237.134298 
L 391.994733 232.225374 
L 393.446677 240.682686 
L 394.172648 236.071069 
L 394.89862 227.780492 
L 397.076535 243.988955 
L 397.802507 242.872932 
L 398.528478 244.381692 
L 399.25445 245.223448 
L 399.980422 242.279405 
L 400.706394 243.769925 
L 401.432365 245.667543 
L 402.158337 238.98763 
L 402.884309 249.103192 
L 403.61028 243.176054 
L 404.336252 247.629596 
L 405.062224 245.543359 
L 405.788195 249.933328 
L 406.514167 245.570143 
L 407.240139 244.5324 
L 407.966111 245.142647 
L 408.692082 234.298718 
L 409.418054 242.751799 
L 410.144026 229.271106 
L 410.869997 247.282147 
L 411.595969 246.507613 
L 412.321941 231.753929 
L 413.047913 247.637842 
L 413.773884 246.415578 
L 414.499856 246.282251 
L 415.225828 248.142136 
L 415.951799 250.56633 
L 416.677771 238.057621 
L 417.403743 248.989341 
L 418.129714 244.139711 
L 418.855686 237.943138 
L 419.581658 245.862996 
L 420.30763 242.386789 
L 421.033601 243.886822 
L 421.759573 233.03477 
L 422.485545 232.058766 
L 423.211516 235.52638 
L 423.937488 233.667478 
L 424.66346 234.126196 
L 425.389431 236.029402 
L 426.115403 234.260947 
L 426.841375 233.820963 
L 427.567347 233.224307 
L 428.293318 234.714634 
L 429.01929 232.629547 
L 429.745262 232.711628 
L 430.471233 231.61713 
L 431.197205 234.03239 
L 431.923177 232.414267 
L 432.649148 233.502641 
L 433.37512 225.440629 
L 434.101092 228.694132 
L 434.827064 229.567393 
L 435.553035 233.945769 
L 436.279007 230.581776 
L 437.004979 234.048701 
L 437.73095 231.246759 
L 438.456922 234.458215 
L 439.182894 230.072344 
L 439.908866 227.720559 
L 440.634837 229.691659 
L 441.360809 228.114841 
L 442.086781 232.075859 
L 442.812752 229.518242 
L 443.538724 232.998754 
L 444.264696 230.809139 
L 444.990667 234.473444 
L 445.716639 230.848587 
L 446.442611 234.690159 
L 447.168583 232.344788 
L 447.894554 230.855953 
L 449.346498 229.450279 
L 450.072469 229.665699 
L 450.798441 229.109244 
L 451.524413 229.548542 
L 452.250384 231.612765 
L 452.976356 228.929875 
L 453.702328 231.098236 
L 454.4283 229.74792 
L 455.154271 231.635318 
L 455.880243 229.6267 
L 456.606215 229.007971 
L 457.332186 231.642289 
L 458.058158 230.948316 
L 458.78413 227.903518 
L 459.510101 228.932397 
L 460.236073 228.087629 
L 460.962045 229.15205 
L 461.688017 228.192124 
L 462.413988 227.58461 
L 463.13996 227.324517 
L 463.865932 226.731905 
L 464.591903 226.624414 
L 464.591903 226.624414 
" style="fill:none;stroke:#2ca02c;stroke-linecap:square;stroke-width:1.5;"/>
   </g>
   <g id="line2d_4">
    <path clip-path="url(#p09ee1e0180)" d="M 58.773722 240.940541 
L 59.499693 151.874651 
L 60.225665 224.378493 
L 60.951637 197.895894 
L 61.677608 199.932727 
L 62.40358 224.842643 
L 63.129552 215.010887 
L 63.855524 242.190229 
L 64.581495 225.966968 
L 65.307467 158.206752 
L 66.033439 216.018394 
L 66.75941 247.83811 
L 67.485382 195.320434 
L 68.211354 223.940344 
L 68.937325 159.409204 
L 69.663297 256.568138 
L 70.389269 201.580082 
L 71.115241 197.8322 
L 71.841212 220.672741 
L 72.567184 206.026456 
L 73.293156 215.727595 
L 74.019127 214.723096 
L 74.745099 223.487509 
L 75.471071 205.813642 
L 76.197042 229.383039 
L 76.923014 211.040329 
L 77.648986 176.316505 
L 78.374958 182.314223 
L 79.100929 208.677472 
L 79.826901 165.530099 
L 80.552873 219.627779 
L 81.278844 198.110075 
L 82.004816 212.305791 
L 82.730788 189.805412 
L 83.456759 162.842446 
L 84.182731 161.19799 
L 84.908703 187.206688 
L 86.360646 177.30587 
L 87.086618 201.205055 
L 87.81259 156.70198 
L 88.538561 199.323239 
L 89.264533 195.27545 
L 89.990505 195.492837 
L 90.716477 194.545217 
L 91.442448 153.026163 
L 92.16842 205.446406 
L 92.894392 126.946798 
L 93.620363 249.671739 
L 94.346335 189.198545 
L 95.072307 242.013571 
L 95.798278 211.253377 
L 97.250222 239.385989 
L 97.976194 235.762353 
L 98.702165 240.858671 
L 99.428137 157.376087 
L 100.154109 172.373732 
L 100.88008 219.314469 
L 101.606052 247.525489 
L 102.332024 238.282178 
L 103.057995 213.293813 
L 103.783967 247.795285 
L 104.509939 200.965574 
L 105.235911 215.226453 
L 105.961882 188.555384 
L 106.687854 219.325726 
L 107.413826 205.932759 
L 108.139797 215.760246 
L 108.865769 209.966115 
L 109.591741 129.653546 
L 110.317712 170.195885 
L 111.043684 194.022519 
L 111.769656 196.38931 
L 112.495628 228.160682 
L 113.221599 252.76066 
L 113.947571 202.441851 
L 114.673543 213.354332 
L 115.399514 253.718261 
L 116.125486 213.381783 
L 116.851458 212.087824 
L 117.57743 218.235099 
L 118.303401 236.343445 
L 119.029373 220.310807 
L 119.755345 118.885476 
L 120.481316 237.996524 
L 121.207288 205.329551 
L 121.93326 218.559306 
L 122.659231 198.721284 
L 123.385203 202.693883 
L 124.111175 200.470641 
L 124.837147 161.024175 
L 125.563118 158.353958 
L 126.28909 259.664454 
L 127.015062 195.407416 
L 127.741033 149.868518 
L 128.467005 224.887859 
L 129.192977 244.143038 
L 129.918948 211.112906 
L 130.64492 227.539273 
L 131.370892 213.022627 
L 132.096864 207.513756 
L 132.822835 220.601799 
L 133.548807 227.958868 
L 134.274779 208.822492 
L 135.00075 218.492971 
L 135.726722 209.530311 
L 136.452694 259.118141 
L 137.178665 252.781045 
L 137.904637 239.064249 
L 138.630609 233.925744 
L 139.356581 212.149609 
L 140.082552 194.460198 
L 140.808524 237.969255 
L 141.534496 246.453048 
L 142.260467 244.642183 
L 142.986439 235.930418 
L 143.712411 230.413098 
L 144.438383 222.67769 
L 145.164354 180.460651 
L 145.890326 254.287558 
L 146.616298 234.773248 
L 147.342269 232.769085 
L 148.068241 206.448579 
L 148.794213 203.582953 
L 149.520184 269.925435 
L 150.246156 229.230584 
L 150.972128 138.837689 
L 151.6981 221.835431 
L 152.424071 228.027631 
L 153.150043 254.04209 
L 153.876015 230.486051 
L 154.601986 244.618015 
L 155.327958 220.496142 
L 156.05393 248.968295 
L 156.779901 232.093585 
L 157.505873 226.717493 
L 158.231845 226.932845 
L 158.957817 223.625231 
L 159.683788 223.345906 
L 160.40976 264.422829 
L 161.135732 235.084374 
L 161.861703 260.145517 
L 162.587675 232.804734 
L 163.313647 193.11554 
L 164.039618 227.876028 
L 164.76559 220.648419 
L 165.491562 230.827895 
L 166.217534 257.039157 
L 166.943505 244.633902 
L 167.669477 268.953313 
L 168.395449 261.322129 
L 169.12142 249.653031 
L 169.847392 216.193132 
L 170.573364 244.481627 
L 171.299336 208.104664 
L 172.025307 246.858066 
L 172.751279 235.941757 
L 173.477251 231.012617 
L 174.203222 251.510657 
L 174.929194 235.549993 
L 175.655166 251.711651 
L 176.381137 224.849435 
L 177.107109 237.075043 
L 177.833081 242.839579 
L 178.559053 226.360297 
L 179.285024 249.410572 
L 180.010996 205.168707 
L 180.736968 224.990249 
L 181.462939 189.91803 
L 182.188911 228.592699 
L 182.914883 224.367055 
L 183.640854 217.2145 
L 184.366826 222.020226 
L 185.092798 215.927118 
L 185.81877 221.214922 
L 186.544741 255.704521 
L 187.270713 233.985697 
L 187.996685 230.226516 
L 188.722656 230.405704 
L 189.448628 168.029634 
L 190.1746 256.357265 
L 190.900571 164.596937 
L 191.626543 205.160767 
L 192.352515 203.147432 
L 193.078487 160.672163 
L 193.804458 178.236722 
L 194.53043 213.630807 
L 195.256402 204.533682 
L 195.982373 247.802926 
L 196.708345 233.889755 
L 197.434317 155.147711 
L 198.160289 167.528458 
L 198.88626 174.050886 
L 199.612232 203.120044 
L 200.338204 203.757806 
L 201.064175 169.3052 
L 201.790147 141.122477 
L 202.516119 197.596923 
L 203.24209 195.301374 
L 203.968062 171.54126 
L 204.694034 212.066939 
L 205.420006 193.030266 
L 206.145977 206.163756 
L 206.871949 186.936705 
L 207.597921 197.165606 
L 208.323892 202.974266 
L 209.049864 239.358966 
L 209.775836 153.343767 
L 210.501807 224.273602 
L 211.227779 199.510072 
L 211.953751 208.677055 
L 212.679723 139.817481 
L 213.405694 158.267285 
L 214.131666 188.767311 
L 214.857638 193.024461 
L 215.583609 176.204678 
L 216.309581 193.088793 
L 217.035553 242.846623 
L 217.761524 219.654474 
L 218.487496 219.042679 
L 219.213468 233.11382 
L 219.93944 199.783164 
L 220.665411 245.40348 
L 221.391383 222.176274 
L 222.117355 231.013467 
L 222.843326 153.391336 
L 223.569298 211.130687 
L 224.29527 214.281078 
L 225.021242 240.152506 
L 225.747213 176.571431 
L 226.473185 218.412521 
L 227.199157 238.713081 
L 227.925128 235.15941 
L 228.6511 229.554857 
L 229.377072 201.934909 
L 230.103043 254.390731 
L 230.829015 192.09917 
L 231.554987 246.807287 
L 232.280959 210.238605 
L 233.00693 229.551892 
L 233.732902 244.460146 
L 234.458874 223.490221 
L 235.184845 224.211879 
L 235.910817 243.148147 
L 236.636789 219.897427 
L 237.36276 205.9216 
L 238.088732 212.826024 
L 238.814704 171.81804 
L 239.540676 233.816992 
L 240.266647 204.860475 
L 240.992619 230.184023 
L 241.718591 212.116238 
L 242.444562 215.712621 
L 243.170534 206.689211 
L 243.896506 213.462898 
L 244.622477 213.486418 
L 245.348449 214.010727 
L 246.074421 208.832389 
L 246.800393 212.906713 
L 247.526364 209.087894 
L 248.252336 200.097666 
L 248.978308 218.785258 
L 249.704279 229.461115 
L 250.430251 196.738015 
L 251.156223 223.284863 
L 251.882195 233.855971 
L 252.608166 213.686929 
L 253.334138 219.151493 
L 254.06011 237.974311 
L 254.786081 171.715599 
L 255.512053 204.591031 
L 256.238025 213.27616 
L 256.963996 198.941344 
L 257.689968 229.553381 
L 258.41594 231.60432 
L 259.141912 209.469568 
L 259.867883 202.236825 
L 260.593855 214.395978 
L 261.319827 200.716942 
L 262.045798 196.122771 
L 262.77177 210.596441 
L 263.497742 183.385523 
L 264.223713 199.293482 
L 264.949685 192.726461 
L 265.675657 242.80798 
L 266.401629 176.78554 
L 267.853572 235.544618 
L 268.579544 183.750005 
L 269.305515 207.560149 
L 270.031487 191.672389 
L 270.757459 195.914719 
L 271.48343 236.176408 
L 272.209402 226.025843 
L 272.935374 191.875204 
L 273.661346 179.739422 
L 274.387317 246.23176 
L 275.839261 212.301377 
L 276.565232 222.490346 
L 277.291204 216.912888 
L 278.017176 215.735756 
L 278.743148 222.594128 
L 279.469119 223.946538 
L 280.195091 222.271793 
L 280.921063 218.958413 
L 281.647034 225.068767 
L 282.373006 211.277564 
L 283.098978 215.431115 
L 283.824949 218.629965 
L 284.550921 214.6484 
L 285.276893 222.418729 
L 286.002865 212.202726 
L 286.728836 220.436871 
L 287.454808 215.175586 
L 288.18078 215.440667 
L 288.906751 213.1004 
L 291.084666 227.084365 
L 291.810638 222.123493 
L 292.53661 218.642227 
L 293.262582 240.648886 
L 293.988553 219.419045 
L 294.714525 246.945559 
L 295.440497 220.348965 
L 296.166468 233.379847 
L 296.89244 234.82646 
L 297.618412 228.743814 
L 298.344383 236.116756 
L 299.070355 247.973583 
L 299.796327 225.192303 
L 300.522299 159.027005 
L 301.24827 229.493533 
L 301.974242 204.243676 
L 302.700214 219.210907 
L 303.426185 219.193021 
L 304.152157 224.013861 
L 304.878129 246.786156 
L 305.604101 181.583435 
L 306.330072 238.668406 
L 307.056044 194.448893 
L 307.782016 203.306828 
L 308.507987 218.291903 
L 309.233959 212.371183 
L 309.959931 224.116191 
L 310.685902 209.62565 
L 311.411874 240.066055 
L 312.137846 207.170375 
L 312.863818 209.652511 
L 313.589789 211.280712 
L 314.315761 217.414738 
L 315.041733 218.362466 
L 315.767704 207.000784 
L 316.493676 221.690033 
L 317.219648 155.03671 
L 317.945619 220.188358 
L 318.671591 208.200537 
L 319.397563 207.919581 
L 320.123535 192.17266 
L 320.849506 209.91362 
L 321.575478 144.570274 
L 322.30145 161.754724 
L 323.027421 195.190024 
L 323.753393 242.416076 
L 325.205336 148.699723 
L 325.931308 222.196141 
L 326.65728 175.269418 
L 327.383252 197.492232 
L 328.109223 233.195553 
L 329.561167 160.294756 
L 330.287138 197.067124 
L 331.01311 187.714259 
L 331.739082 219.362973 
L 332.465054 195.55662 
L 333.191025 194.29433 
L 333.916997 206.749386 
L 334.642969 170.334045 
L 335.36894 193.673198 
L 336.094912 172.785023 
L 336.820884 217.846026 
L 337.546855 195.813198 
L 338.272827 204.838538 
L 338.998799 198.263941 
L 339.724771 199.859491 
L 340.450742 201.96153 
L 341.176714 205.641126 
L 341.902686 207.797508 
L 342.628657 204.64473 
L 343.354629 203.783556 
L 344.080601 204.912738 
L 344.806572 201.770104 
L 345.532544 209.115621 
L 346.258516 204.115436 
L 346.984488 211.053002 
L 347.710459 204.573 
L 348.436431 207.194727 
L 349.162403 205.154705 
L 349.888374 206.741182 
L 350.614346 211.262639 
L 351.340318 203.772742 
L 352.066289 207.225726 
L 352.792261 209.295278 
L 353.518233 212.58987 
L 354.244205 209.505965 
L 354.970176 209.751914 
L 355.696148 221.548741 
L 356.42212 213.524922 
L 357.148091 215.156547 
L 357.874063 208.289007 
L 358.600035 211.201364 
L 359.326007 202.530333 
L 360.77795 219.026211 
L 361.503922 190.108949 
L 362.229893 213.763905 
L 362.955865 209.85646 
L 363.681837 212.916356 
L 364.407808 206.630703 
L 365.13378 216.205744 
L 366.585724 205.801644 
L 367.311695 205.582902 
L 368.037667 211.718211 
L 368.763639 189.828105 
L 369.48961 226.566065 
L 370.215582 188.213935 
L 370.941554 203.588249 
L 371.667525 225.183311 
L 372.393497 209.938933 
L 373.119469 214.619508 
L 373.845441 218.228317 
L 374.571412 213.786766 
L 375.297384 199.02698 
L 376.023356 217.472127 
L 376.749327 227.028785 
L 378.201271 200.506378 
L 378.927242 215.744196 
L 379.653214 209.271303 
L 380.379186 207.84783 
L 381.105158 211.800374 
L 381.831129 212.654081 
L 382.557101 215.088668 
L 384.009044 196.203796 
L 384.735016 212.094584 
L 385.460988 210.809728 
L 386.18696 190.509592 
L 386.912931 208.611756 
L 387.638903 192.60999 
L 388.364875 204.927511 
L 389.090846 205.357789 
L 389.816818 192.45145 
L 390.54279 194.05503 
L 391.268761 201.896498 
L 391.994733 198.653324 
L 392.720705 196.568799 
L 393.446677 223.883509 
L 394.172648 211.458974 
L 394.89862 191.042652 
L 395.624592 214.424057 
L 396.350563 219.170037 
L 397.076535 229.084918 
L 397.802507 224.08059 
L 399.25445 226.675177 
L 399.980422 225.455673 
L 400.706394 221.060956 
L 401.432365 220.440953 
L 402.158337 208.989242 
L 402.884309 231.94629 
L 403.61028 227.747443 
L 404.336252 228.13878 
L 405.062224 229.823862 
L 405.788195 224.193598 
L 406.514167 231.831907 
L 407.240139 231.266655 
L 407.966111 221.92379 
L 408.692082 207.624262 
L 409.418054 233.391566 
L 410.144026 214.441964 
L 410.869997 224.799281 
L 411.595969 222.925597 
L 412.321941 216.6516 
L 413.047913 229.1794 
L 413.773884 221.282003 
L 414.499856 219.387245 
L 415.225828 222.589618 
L 415.951799 224.269034 
L 416.677771 217.254756 
L 417.403743 220.475971 
L 418.129714 219.280153 
L 418.855686 217.41212 
L 419.581658 227.671952 
L 420.30763 219.859213 
L 421.033601 223.861382 
L 421.759573 207.568828 
L 422.485545 209.424026 
L 423.211516 207.558008 
L 423.937488 215.85158 
L 424.66346 207.737368 
L 425.389431 213.336905 
L 426.115403 206.931058 
L 426.841375 207.061972 
L 427.567347 200.594114 
L 428.293318 206.627296 
L 429.01929 198.183864 
L 429.745262 215.929863 
L 430.471233 200.375978 
L 431.197205 208.036887 
L 431.923177 207.1807 
L 432.649148 218.114591 
L 433.37512 202.159304 
L 434.101092 201.8198 
L 434.827064 209.941767 
L 435.553035 207.896528 
L 436.279007 208.559944 
L 437.004979 208.171891 
L 437.73095 209.626619 
L 438.456922 208.142697 
L 439.182894 207.800537 
L 439.908866 209.053229 
L 440.634837 209.501987 
L 441.360809 207.881056 
L 442.086781 207.91651 
L 442.812752 209.981214 
L 443.538724 207.480081 
L 444.264696 209.536479 
L 444.990667 209.436569 
L 445.716639 209.809461 
L 446.442611 209.528399 
L 447.168583 209.722432 
L 447.894554 209.541486 
L 448.620526 209.920294 
L 449.346498 209.383427 
L 450.072469 208.153052 
L 450.798441 209.054645 
L 451.524413 209.556258 
L 452.976356 210.156054 
L 453.702328 209.008343 
L 454.4283 209.38309 
L 455.154271 210.22039 
L 455.880243 210.194122 
L 456.606215 210.551763 
L 457.332186 210.129136 
L 458.058158 209.928508 
L 459.510101 210.572203 
L 460.236073 210.606031 
L 460.962045 210.761728 
L 461.688017 210.786329 
L 462.413988 211.004132 
L 463.13996 208.30921 
L 463.865932 210.492828 
L 464.591903 210.137797 
L 464.591903 210.137797 
" style="fill:none;stroke:#d62728;stroke-linecap:square;stroke-width:1.5;"/>
   </g>
   <g id="line2d_5">
    <path clip-path="url(#p09ee1e0180)" d="M 58.773722 216.042417 
L 464.591903 216.042417 
L 464.591903 216.042417 
" style="fill:none;stroke:#000000;stroke-dasharray:3.7,1.6;stroke-dashoffset:0;"/>
   </g>
   <g id="matplotlib.axis_1">
    <g id="xtick_1">
     <g id="line2d_6">
      <defs>
       <path d="M 0 0 
L 0 3.5 
" id="mf41590d20f" style="stroke:#000000;stroke-width:0.8;"/>
      </defs>
      <g>
       <use style="stroke:#000000;stroke-width:0.8;" x="79.826901" xlink:href="#mf41590d20f" y="293.90625"/>
      </g>
     </g>
     <g id="text_1">
      <!-- 100 -->
      <defs>
       <path d="M 12.40625 8.296875 
L 28.515625 8.296875 
L 28.515625 63.921875 
L 10.984375 60.40625 
L 10.984375 69.390625 
L 28.421875 72.90625 
L 38.28125 72.90625 
L 38.28125 8.296875 
L 54.390625 8.296875 
L 54.390625 0 
L 12.40625 0 
z
" id="DejaVuSans-49"/>
       <path d="M 31.78125 66.40625 
Q 24.171875 66.40625 20.328125 58.90625 
Q 16.5 51.421875 16.5 36.375 
Q 16.5 21.390625 20.328125 13.890625 
Q 24.171875 6.390625 31.78125 6.390625 
Q 39.453125 6.390625 43.28125 13.890625 
Q 47.125 21.390625 47.125 36.375 
Q 47.125 51.421875 43.28125 58.90625 
Q 39.453125 66.40625 31.78125 66.40625 
z
M 31.78125 74.21875 
Q 44.046875 74.21875 50.515625 64.515625 
Q 56.984375 54.828125 56.984375 36.375 
Q 56.984375 17.96875 50.515625 8.265625 
Q 44.046875 -1.421875 31.78125 -1.421875 
Q 19.53125 -1.421875 13.0625 8.265625 
Q 6.59375 17.96875 6.59375 36.375 
Q 6.59375 54.828125 13.0625 64.515625 
Q 19.53125 74.21875 31.78125 74.21875 
z
" id="DejaVuSans-48"/>
      </defs>
      <g transform="translate(70.283151 308.504687)scale(0.1 -0.1)">
       <use xlink:href="#DejaVuSans-49"/>
       <use x="63.623047" xlink:href="#DejaVuSans-48"/>
       <use x="127.246094" xlink:href="#DejaVuSans-48"/>
      </g>
     </g>
    </g>
    <g id="xtick_2">
     <g id="line2d_7">
      <g>
       <use style="stroke:#000000;stroke-width:0.8;" x="152.424071" xlink:href="#mf41590d20f" y="293.90625"/>
      </g>
     </g>
     <g id="text_2">
      <!-- 200 -->
      <defs>
       <path d="M 19.1875 8.296875 
L 53.609375 8.296875 
L 53.609375 0 
L 7.328125 0 
L 7.328125 8.296875 
Q 12.9375 14.109375 22.625 23.890625 
Q 32.328125 33.6875 34.8125 36.53125 
Q 39.546875 41.84375 41.421875 45.53125 
Q 43.3125 49.21875 43.3125 52.78125 
Q 43.3125 58.59375 39.234375 62.25 
Q 35.15625 65.921875 28.609375 65.921875 
Q 23.96875 65.921875 18.8125 64.3125 
Q 13.671875 62.703125 7.8125 59.421875 
L 7.8125 69.390625 
Q 13.765625 71.78125 18.9375 73 
Q 24.125 74.21875 28.421875 74.21875 
Q 39.75 74.21875 46.484375 68.546875 
Q 53.21875 62.890625 53.21875 53.421875 
Q 53.21875 48.921875 51.53125 44.890625 
Q 49.859375 40.875 45.40625 35.40625 
Q 44.1875 33.984375 37.640625 27.21875 
Q 31.109375 20.453125 19.1875 8.296875 
z
" id="DejaVuSans-50"/>
      </defs>
      <g transform="translate(142.880321 308.504687)scale(0.1 -0.1)">
       <use xlink:href="#DejaVuSans-50"/>
       <use x="63.623047" xlink:href="#DejaVuSans-48"/>
       <use x="127.246094" xlink:href="#DejaVuSans-48"/>
      </g>
     </g>
    </g>
    <g id="xtick_3">
     <g id="line2d_8">
      <g>
       <use style="stroke:#000000;stroke-width:0.8;" x="225.021242" xlink:href="#mf41590d20f" y="293.90625"/>
      </g>
     </g>
     <g id="text_3">
      <!-- 300 -->
      <defs>
       <path d="M 40.578125 39.3125 
Q 47.65625 37.796875 51.625 33 
Q 55.609375 28.21875 55.609375 21.1875 
Q 55.609375 10.40625 48.1875 4.484375 
Q 40.765625 -1.421875 27.09375 -1.421875 
Q 22.515625 -1.421875 17.65625 -0.515625 
Q 12.796875 0.390625 7.625 2.203125 
L 7.625 11.71875 
Q 11.71875 9.328125 16.59375 8.109375 
Q 21.484375 6.890625 26.8125 6.890625 
Q 36.078125 6.890625 40.9375 10.546875 
Q 45.796875 14.203125 45.796875 21.1875 
Q 45.796875 27.640625 41.28125 31.265625 
Q 36.765625 34.90625 28.71875 34.90625 
L 20.21875 34.90625 
L 20.21875 43.015625 
L 29.109375 43.015625 
Q 36.375 43.015625 40.234375 45.921875 
Q 44.09375 48.828125 44.09375 54.296875 
Q 44.09375 59.90625 40.109375 62.90625 
Q 36.140625 65.921875 28.71875 65.921875 
Q 24.65625 65.921875 20.015625 65.03125 
Q 15.375 64.15625 9.8125 62.3125 
L 9.8125 71.09375 
Q 15.4375 72.65625 20.34375 73.4375 
Q 25.25 74.21875 29.59375 74.21875 
Q 40.828125 74.21875 47.359375 69.109375 
Q 53.90625 64.015625 53.90625 55.328125 
Q 53.90625 49.265625 50.4375 45.09375 
Q 46.96875 40.921875 40.578125 39.3125 
z
" id="DejaVuSans-51"/>
      </defs>
      <g transform="translate(215.477492 308.504687)scale(0.1 -0.1)">
       <use xlink:href="#DejaVuSans-51"/>
       <use x="63.623047" xlink:href="#DejaVuSans-48"/>
       <use x="127.246094" xlink:href="#DejaVuSans-48"/>
      </g>
     </g>
    </g>
    <g id="xtick_4">
     <g id="line2d_9">
      <g>
       <use style="stroke:#000000;stroke-width:0.8;" x="297.618412" xlink:href="#mf41590d20f" y="293.90625"/>
      </g>
     </g>
     <g id="text_4">
      <!-- 400 -->
      <defs>
       <path d="M 37.796875 64.3125 
L 12.890625 25.390625 
L 37.796875 25.390625 
z
M 35.203125 72.90625 
L 47.609375 72.90625 
L 47.609375 25.390625 
L 58.015625 25.390625 
L 58.015625 17.1875 
L 47.609375 17.1875 
L 47.609375 0 
L 37.796875 0 
L 37.796875 17.1875 
L 4.890625 17.1875 
L 4.890625 26.703125 
z
" id="DejaVuSans-52"/>
      </defs>
      <g transform="translate(288.074662 308.504687)scale(0.1 -0.1)">
       <use xlink:href="#DejaVuSans-52"/>
       <use x="63.623047" xlink:href="#DejaVuSans-48"/>
       <use x="127.246094" xlink:href="#DejaVuSans-48"/>
      </g>
     </g>
    </g>
    <g id="xtick_5">
     <g id="line2d_10">
      <g>
       <use style="stroke:#000000;stroke-width:0.8;" x="370.215582" xlink:href="#mf41590d20f" y="293.90625"/>
      </g>
     </g>
     <g id="text_5">
      <!-- 500 -->
      <defs>
       <path d="M 10.796875 72.90625 
L 49.515625 72.90625 
L 49.515625 64.59375 
L 19.828125 64.59375 
L 19.828125 46.734375 
Q 21.96875 47.46875 24.109375 47.828125 
Q 26.265625 48.1875 28.421875 48.1875 
Q 40.625 48.1875 47.75 41.5 
Q 54.890625 34.8125 54.890625 23.390625 
Q 54.890625 11.625 47.5625 5.09375 
Q 40.234375 -1.421875 26.90625 -1.421875 
Q 22.3125 -1.421875 17.546875 -0.640625 
Q 12.796875 0.140625 7.71875 1.703125 
L 7.71875 11.625 
Q 12.109375 9.234375 16.796875 8.0625 
Q 21.484375 6.890625 26.703125 6.890625 
Q 35.15625 6.890625 40.078125 11.328125 
Q 45.015625 15.765625 45.015625 23.390625 
Q 45.015625 31 40.078125 35.4375 
Q 35.15625 39.890625 26.703125 39.890625 
Q 22.75 39.890625 18.8125 39.015625 
Q 14.890625 38.140625 10.796875 36.28125 
z
" id="DejaVuSans-53"/>
      </defs>
      <g transform="translate(360.671832 308.504687)scale(0.1 -0.1)">
       <use xlink:href="#DejaVuSans-53"/>
       <use x="63.623047" xlink:href="#DejaVuSans-48"/>
       <use x="127.246094" xlink:href="#DejaVuSans-48"/>
      </g>
     </g>
    </g>
    <g id="xtick_6">
     <g id="line2d_11">
      <g>
       <use style="stroke:#000000;stroke-width:0.8;" x="442.812752" xlink:href="#mf41590d20f" y="293.90625"/>
      </g>
     </g>
     <g id="text_6">
      <!-- 600 -->
      <defs>
       <path d="M 33.015625 40.375 
Q 26.375 40.375 22.484375 35.828125 
Q 18.609375 31.296875 18.609375 23.390625 
Q 18.609375 15.53125 22.484375 10.953125 
Q 26.375 6.390625 33.015625 6.390625 
Q 39.65625 6.390625 43.53125 10.953125 
Q 47.40625 15.53125 47.40625 23.390625 
Q 47.40625 31.296875 43.53125 35.828125 
Q 39.65625 40.375 33.015625 40.375 
z
M 52.59375 71.296875 
L 52.59375 62.3125 
Q 48.875 64.0625 45.09375 64.984375 
Q 41.3125 65.921875 37.59375 65.921875 
Q 27.828125 65.921875 22.671875 59.328125 
Q 17.53125 52.734375 16.796875 39.40625 
Q 19.671875 43.65625 24.015625 45.921875 
Q 28.375 48.1875 33.59375 48.1875 
Q 44.578125 48.1875 50.953125 41.515625 
Q 57.328125 34.859375 57.328125 23.390625 
Q 57.328125 12.15625 50.6875 5.359375 
Q 44.046875 -1.421875 33.015625 -1.421875 
Q 20.359375 -1.421875 13.671875 8.265625 
Q 6.984375 17.96875 6.984375 36.375 
Q 6.984375 53.65625 15.1875 63.9375 
Q 23.390625 74.21875 37.203125 74.21875 
Q 40.921875 74.21875 44.703125 73.484375 
Q 48.484375 72.75 52.59375 71.296875 
z
" id="DejaVuSans-54"/>
      </defs>
      <g transform="translate(433.269002 308.504687)scale(0.1 -0.1)">
       <use xlink:href="#DejaVuSans-54"/>
       <use x="63.623047" xlink:href="#DejaVuSans-48"/>
       <use x="127.246094" xlink:href="#DejaVuSans-48"/>
      </g>
     </g>
    </g>
    <g id="text_7">
     <!-- Tempo -->
     <defs>
      <path d="M -0.296875 72.90625 
L 61.375 72.90625 
L 61.375 64.59375 
L 35.5 64.59375 
L 35.5 0 
L 25.59375 0 
L 25.59375 64.59375 
L -0.296875 64.59375 
z
" id="DejaVuSans-84"/>
      <path d="M 56.203125 29.59375 
L 56.203125 25.203125 
L 14.890625 25.203125 
Q 15.484375 15.921875 20.484375 11.0625 
Q 25.484375 6.203125 34.421875 6.203125 
Q 39.59375 6.203125 44.453125 7.46875 
Q 49.3125 8.734375 54.109375 11.28125 
L 54.109375 2.78125 
Q 49.265625 0.734375 44.1875 -0.34375 
Q 39.109375 -1.421875 33.890625 -1.421875 
Q 20.796875 -1.421875 13.15625 6.1875 
Q 5.515625 13.8125 5.515625 26.8125 
Q 5.515625 40.234375 12.765625 48.109375 
Q 20.015625 56 32.328125 56 
Q 43.359375 56 49.78125 48.890625 
Q 56.203125 41.796875 56.203125 29.59375 
z
M 47.21875 32.234375 
Q 47.125 39.59375 43.09375 43.984375 
Q 39.0625 48.390625 32.421875 48.390625 
Q 24.90625 48.390625 20.390625 44.140625 
Q 15.875 39.890625 15.1875 32.171875 
z
" id="DejaVuSans-101"/>
      <path d="M 52 44.1875 
Q 55.375 50.25 60.0625 53.125 
Q 64.75 56 71.09375 56 
Q 79.640625 56 84.28125 50.015625 
Q 88.921875 44.046875 88.921875 33.015625 
L 88.921875 0 
L 79.890625 0 
L 79.890625 32.71875 
Q 79.890625 40.578125 77.09375 44.375 
Q 74.3125 48.1875 68.609375 48.1875 
Q 61.625 48.1875 57.5625 43.546875 
Q 53.515625 38.921875 53.515625 30.90625 
L 53.515625 0 
L 44.484375 0 
L 44.484375 32.71875 
Q 44.484375 40.625 41.703125 44.40625 
Q 38.921875 48.1875 33.109375 48.1875 
Q 26.21875 48.1875 22.15625 43.53125 
Q 18.109375 38.875 18.109375 30.90625 
L 18.109375 0 
L 9.078125 0 
L 9.078125 54.6875 
L 18.109375 54.6875 
L 18.109375 46.1875 
Q 21.1875 51.21875 25.484375 53.609375 
Q 29.78125 56 35.6875 56 
Q 41.65625 56 45.828125 52.96875 
Q 50 49.953125 52 44.1875 
z
" id="DejaVuSans-109"/>
      <path d="M 18.109375 8.203125 
L 18.109375 -20.796875 
L 9.078125 -20.796875 
L 9.078125 54.6875 
L 18.109375 54.6875 
L 18.109375 46.390625 
Q 20.953125 51.265625 25.265625 53.625 
Q 29.59375 56 35.59375 56 
Q 45.5625 56 51.78125 48.09375 
Q 58.015625 40.1875 58.015625 27.296875 
Q 58.015625 14.40625 51.78125 6.484375 
Q 45.5625 -1.421875 35.59375 -1.421875 
Q 29.59375 -1.421875 25.265625 0.953125 
Q 20.953125 3.328125 18.109375 8.203125 
z
M 48.6875 27.296875 
Q 48.6875 37.203125 44.609375 42.84375 
Q 40.53125 48.484375 33.40625 48.484375 
Q 26.265625 48.484375 22.1875 42.84375 
Q 18.109375 37.203125 18.109375 27.296875 
Q 18.109375 17.390625 22.1875 11.75 
Q 26.265625 6.109375 33.40625 6.109375 
Q 40.53125 6.109375 44.609375 11.75 
Q 48.6875 17.390625 48.6875 27.296875 
z
" id="DejaVuSans-112"/>
      <path d="M 30.609375 48.390625 
Q 23.390625 48.390625 19.1875 42.75 
Q 14.984375 37.109375 14.984375 27.296875 
Q 14.984375 17.484375 19.15625 11.84375 
Q 23.34375 6.203125 30.609375 6.203125 
Q 37.796875 6.203125 41.984375 11.859375 
Q 46.1875 17.53125 46.1875 27.296875 
Q 46.1875 37.015625 41.984375 42.703125 
Q 37.796875 48.390625 30.609375 48.390625 
z
M 30.609375 56 
Q 42.328125 56 49.015625 48.375 
Q 55.71875 40.765625 55.71875 27.296875 
Q 55.71875 13.875 49.015625 6.21875 
Q 42.328125 -1.421875 30.609375 -1.421875 
Q 18.84375 -1.421875 12.171875 6.21875 
Q 5.515625 13.875 5.515625 27.296875 
Q 5.515625 40.765625 12.171875 48.375 
Q 18.84375 56 30.609375 56 
z
" id="DejaVuSans-111"/>
     </defs>
     <g transform="translate(245.298438 322.182812)scale(0.1 -0.1)">
      <use xlink:href="#DejaVuSans-84"/>
      <use x="44.083984" xlink:href="#DejaVuSans-101"/>
      <use x="105.607422" xlink:href="#DejaVuSans-109"/>
      <use x="203.019531" xlink:href="#DejaVuSans-112"/>
      <use x="266.496094" xlink:href="#DejaVuSans-111"/>
     </g>
    </g>
   </g>
   <g id="matplotlib.axis_2">
    <g id="ytick_1">
     <g id="line2d_12">
      <defs>
       <path d="M 0 0 
L -3.5 0 
" id="m796bd550ee" style="stroke:#000000;stroke-width:0.8;"/>
      </defs>
      <g>
       <use style="stroke:#000000;stroke-width:0.8;" x="38.482813" xlink:href="#m796bd550ee" y="263.800395"/>
      </g>
     </g>
     <g id="text_8">
      <!-- 0.5 -->
      <defs>
       <path d="M 10.59375 35.5 
L 73.1875 35.5 
L 73.1875 27.203125 
L 10.59375 27.203125 
z
" id="DejaVuSans-8722"/>
       <path d="M 10.6875 12.40625 
L 21 12.40625 
L 21 0 
L 10.6875 0 
z
" id="DejaVuSans-46"/>
      </defs>
      <g transform="translate(7.2 267.599614)scale(0.1 -0.1)">
       <use xlink:href="#DejaVuSans-8722"/>
       <use x="83.789062" xlink:href="#DejaVuSans-48"/>
       <use x="147.412109" xlink:href="#DejaVuSans-46"/>
       <use x="179.199219" xlink:href="#DejaVuSans-53"/>
      </g>
     </g>
    </g>
    <g id="ytick_2">
     <g id="line2d_13">
      <g>
       <use style="stroke:#000000;stroke-width:0.8;" x="38.482813" xlink:href="#m796bd550ee" y="216.042417"/>
      </g>
     </g>
     <g id="text_9">
      <!-- 0.0 -->
      <g transform="translate(15.579688 219.841636)scale(0.1 -0.1)">
       <use xlink:href="#DejaVuSans-48"/>
       <use x="63.623047" xlink:href="#DejaVuSans-46"/>
       <use x="95.410156" xlink:href="#DejaVuSans-48"/>
      </g>
     </g>
    </g>
    <g id="ytick_3">
     <g id="line2d_14">
      <g>
       <use style="stroke:#000000;stroke-width:0.8;" x="38.482813" xlink:href="#m796bd550ee" y="168.284439"/>
      </g>
     </g>
     <g id="text_10">
      <!-- 0.5 -->
      <g transform="translate(15.579688 172.083657)scale(0.1 -0.1)">
       <use xlink:href="#DejaVuSans-48"/>
       <use x="63.623047" xlink:href="#DejaVuSans-46"/>
       <use x="95.410156" xlink:href="#DejaVuSans-53"/>
      </g>
     </g>
    </g>
    <g id="ytick_4">
     <g id="line2d_15">
      <g>
       <use style="stroke:#000000;stroke-width:0.8;" x="38.482813" xlink:href="#m796bd550ee" y="120.52646"/>
      </g>
     </g>
     <g id="text_11">
      <!-- 1.0 -->
      <g transform="translate(15.579688 124.325679)scale(0.1 -0.1)">
       <use xlink:href="#DejaVuSans-49"/>
       <use x="63.623047" xlink:href="#DejaVuSans-46"/>
       <use x="95.410156" xlink:href="#DejaVuSans-48"/>
      </g>
     </g>
    </g>
    <g id="ytick_5">
     <g id="line2d_16">
      <g>
       <use style="stroke:#000000;stroke-width:0.8;" x="38.482813" xlink:href="#m796bd550ee" y="72.768482"/>
      </g>
     </g>
     <g id="text_12">
      <!-- 1.5 -->
      <g transform="translate(15.579688 76.567701)scale(0.1 -0.1)">
       <use xlink:href="#DejaVuSans-49"/>
       <use x="63.623047" xlink:href="#DejaVuSans-46"/>
       <use x="95.410156" xlink:href="#DejaVuSans-53"/>
      </g>
     </g>
    </g>
    <g id="ytick_6">
     <g id="line2d_17">
      <g>
       <use style="stroke:#000000;stroke-width:0.8;" x="38.482813" xlink:href="#m796bd550ee" y="25.010503"/>
      </g>
     </g>
     <g id="text_13">
      <!-- 2.0 -->
      <g transform="translate(15.579688 28.809722)scale(0.1 -0.1)">
       <use xlink:href="#DejaVuSans-50"/>
       <use x="63.623047" xlink:href="#DejaVuSans-46"/>
       <use x="95.410156" xlink:href="#DejaVuSans-48"/>
      </g>
     </g>
    </g>
   </g>
   <g id="patch_3">
    <path d="M 38.482813 293.90625 
L 38.482813 22.10625 
" style="fill:none;stroke:#000000;stroke-linecap:square;stroke-linejoin:miter;stroke-width:0.8;"/>
   </g>
   <g id="patch_4">
    <path d="M 38.482813 293.90625 
L 484.882812 293.90625 
" style="fill:none;stroke:#000000;stroke-linecap:square;stroke-linejoin:miter;stroke-width:0.8;"/>
   </g>
   <g id="text_14">
    <!-- Z_Q -->
    <defs>
     <path d="M 5.609375 72.90625 
L 62.890625 72.90625 
L 62.890625 65.375 
L 16.796875 8.296875 
L 64.015625 8.296875 
L 64.015625 0 
L 4.5 0 
L 4.5 7.515625 
L 50.59375 64.59375 
L 5.609375 64.59375 
z
" id="DejaVuSans-90"/>
     <path d="M 50.984375 -16.609375 
L 50.984375 -23.578125 
L -0.984375 -23.578125 
L -0.984375 -16.609375 
z
" id="DejaVuSans-95"/>
     <path d="M 39.40625 66.21875 
Q 28.65625 66.21875 22.328125 58.203125 
Q 16.015625 50.203125 16.015625 36.375 
Q 16.015625 22.609375 22.328125 14.59375 
Q 28.65625 6.59375 39.40625 6.59375 
Q 50.140625 6.59375 56.421875 14.59375 
Q 62.703125 22.609375 62.703125 36.375 
Q 62.703125 50.203125 56.421875 58.203125 
Q 50.140625 66.21875 39.40625 66.21875 
z
M 53.21875 1.3125 
L 66.21875 -12.890625 
L 54.296875 -12.890625 
L 43.5 -1.21875 
Q 41.890625 -1.3125 41.03125 -1.359375 
Q 40.1875 -1.421875 39.40625 -1.421875 
Q 24.03125 -1.421875 14.8125 8.859375 
Q 5.609375 19.140625 5.609375 36.375 
Q 5.609375 53.65625 14.8125 63.9375 
Q 24.03125 74.21875 39.40625 74.21875 
Q 54.734375 74.21875 63.90625 63.9375 
Q 73.09375 53.65625 73.09375 36.375 
Q 73.09375 23.6875 67.984375 14.640625 
Q 62.890625 5.609375 53.21875 1.3125 
z
" id="DejaVuSans-81"/>
    </defs>
    <g transform="translate(249.849688 16.10625)scale(0.12 -0.12)">
     <use xlink:href="#DejaVuSans-90"/>
     <use x="68.505859" xlink:href="#DejaVuSans-95"/>
     <use x="118.505859" xlink:href="#DejaVuSans-81"/>
    </g>
   </g>
   <g id="legend_1">
    <g id="patch_5">
     <path d="M 491.882812 196.201562 
L 625.442188 196.201562 
Q 627.442188 196.201562 627.442188 194.201562 
L 627.442188 121.810937 
Q 627.442188 119.810937 625.442188 119.810937 
L 491.882812 119.810937 
Q 489.882812 119.810937 489.882812 121.810937 
L 489.882812 194.201562 
Q 489.882812 196.201562 491.882812 196.201562 
z
" style="fill:#ffffff;opacity:0.8;stroke:#cccccc;stroke-linejoin:miter;"/>
    </g>
    <g id="line2d_18">
     <path d="M 493.882812 127.909375 
L 513.882812 127.909375 
" style="fill:none;stroke:#000000;stroke-dasharray:3.7,1.6;stroke-dashoffset:0;"/>
    </g>
    <g id="line2d_19"/>
    <g id="text_15">
     <!-- Baseline -->
     <defs>
      <path d="M 19.671875 34.8125 
L 19.671875 8.109375 
L 35.5 8.109375 
Q 43.453125 8.109375 47.28125 11.40625 
Q 51.125 14.703125 51.125 21.484375 
Q 51.125 28.328125 47.28125 31.5625 
Q 43.453125 34.8125 35.5 34.8125 
z
M 19.671875 64.796875 
L 19.671875 42.828125 
L 34.28125 42.828125 
Q 41.5 42.828125 45.03125 45.53125 
Q 48.578125 48.25 48.578125 53.8125 
Q 48.578125 59.328125 45.03125 62.0625 
Q 41.5 64.796875 34.28125 64.796875 
z
M 9.8125 72.90625 
L 35.015625 72.90625 
Q 46.296875 72.90625 52.390625 68.21875 
Q 58.5 63.53125 58.5 54.890625 
Q 58.5 48.1875 55.375 44.234375 
Q 52.25 40.28125 46.1875 39.3125 
Q 53.46875 37.75 57.5 32.78125 
Q 61.53125 27.828125 61.53125 20.40625 
Q 61.53125 10.640625 54.890625 5.3125 
Q 48.25 0 35.984375 0 
L 9.8125 0 
z
" id="DejaVuSans-66"/>
      <path d="M 34.28125 27.484375 
Q 23.390625 27.484375 19.1875 25 
Q 14.984375 22.515625 14.984375 16.5 
Q 14.984375 11.71875 18.140625 8.90625 
Q 21.296875 6.109375 26.703125 6.109375 
Q 34.1875 6.109375 38.703125 11.40625 
Q 43.21875 16.703125 43.21875 25.484375 
L 43.21875 27.484375 
z
M 52.203125 31.203125 
L 52.203125 0 
L 43.21875 0 
L 43.21875 8.296875 
Q 40.140625 3.328125 35.546875 0.953125 
Q 30.953125 -1.421875 24.3125 -1.421875 
Q 15.921875 -1.421875 10.953125 3.296875 
Q 6 8.015625 6 15.921875 
Q 6 25.140625 12.171875 29.828125 
Q 18.359375 34.515625 30.609375 34.515625 
L 43.21875 34.515625 
L 43.21875 35.40625 
Q 43.21875 41.609375 39.140625 45 
Q 35.0625 48.390625 27.6875 48.390625 
Q 23 48.390625 18.546875 47.265625 
Q 14.109375 46.140625 10.015625 43.890625 
L 10.015625 52.203125 
Q 14.9375 54.109375 19.578125 55.046875 
Q 24.21875 56 28.609375 56 
Q 40.484375 56 46.34375 49.84375 
Q 52.203125 43.703125 52.203125 31.203125 
z
" id="DejaVuSans-97"/>
      <path d="M 44.28125 53.078125 
L 44.28125 44.578125 
Q 40.484375 46.53125 36.375 47.5 
Q 32.28125 48.484375 27.875 48.484375 
Q 21.1875 48.484375 17.84375 46.4375 
Q 14.5 44.390625 14.5 40.28125 
Q 14.5 37.15625 16.890625 35.375 
Q 19.28125 33.59375 26.515625 31.984375 
L 29.59375 31.296875 
Q 39.15625 29.25 43.1875 25.515625 
Q 47.21875 21.78125 47.21875 15.09375 
Q 47.21875 7.46875 41.1875 3.015625 
Q 35.15625 -1.421875 24.609375 -1.421875 
Q 20.21875 -1.421875 15.453125 -0.5625 
Q 10.6875 0.296875 5.421875 2 
L 5.421875 11.28125 
Q 10.40625 8.6875 15.234375 7.390625 
Q 20.0625 6.109375 24.8125 6.109375 
Q 31.15625 6.109375 34.5625 8.28125 
Q 37.984375 10.453125 37.984375 14.40625 
Q 37.984375 18.0625 35.515625 20.015625 
Q 33.0625 21.96875 24.703125 23.78125 
L 21.578125 24.515625 
Q 13.234375 26.265625 9.515625 29.90625 
Q 5.8125 33.546875 5.8125 39.890625 
Q 5.8125 47.609375 11.28125 51.796875 
Q 16.75 56 26.8125 56 
Q 31.78125 56 36.171875 55.265625 
Q 40.578125 54.546875 44.28125 53.078125 
z
" id="DejaVuSans-115"/>
      <path d="M 9.421875 75.984375 
L 18.40625 75.984375 
L 18.40625 0 
L 9.421875 0 
z
" id="DejaVuSans-108"/>
      <path d="M 9.421875 54.6875 
L 18.40625 54.6875 
L 18.40625 0 
L 9.421875 0 
z
M 9.421875 75.984375 
L 18.40625 75.984375 
L 18.40625 64.59375 
L 9.421875 64.59375 
z
" id="DejaVuSans-105"/>
      <path d="M 54.890625 33.015625 
L 54.890625 0 
L 45.90625 0 
L 45.90625 32.71875 
Q 45.90625 40.484375 42.875 44.328125 
Q 39.84375 48.1875 33.796875 48.1875 
Q 26.515625 48.1875 22.3125 43.546875 
Q 18.109375 38.921875 18.109375 30.90625 
L 18.109375 0 
L 9.078125 0 
L 9.078125 54.6875 
L 18.109375 54.6875 
L 18.109375 46.1875 
Q 21.34375 51.125 25.703125 53.5625 
Q 30.078125 56 35.796875 56 
Q 45.21875 56 50.046875 50.171875 
Q 54.890625 44.34375 54.890625 33.015625 
z
" id="DejaVuSans-110"/>
     </defs>
     <g transform="translate(521.882812 131.409375)scale(0.1 -0.1)">
      <use xlink:href="#DejaVuSans-66"/>
      <use x="68.603516" xlink:href="#DejaVuSans-97"/>
      <use x="129.882812" xlink:href="#DejaVuSans-115"/>
      <use x="181.982422" xlink:href="#DejaVuSans-101"/>
      <use x="243.505859" xlink:href="#DejaVuSans-108"/>
      <use x="271.289062" xlink:href="#DejaVuSans-105"/>
      <use x="299.072266" xlink:href="#DejaVuSans-110"/>
      <use x="362.451172" xlink:href="#DejaVuSans-101"/>
     </g>
    </g>
    <g id="line2d_20">
     <path d="M 493.882812 142.5875 
L 513.882812 142.5875 
" style="fill:none;stroke:#1f77b4;stroke-linecap:square;stroke-width:1.5;"/>
    </g>
    <g id="line2d_21"/>
    <g id="text_16">
     <!-- $\Uparrow$ acesso crdito -->
     <defs>
      <path d="M 36.765625 58.59375 
L 36.765625 0 
L 30.90625 0 
L 30.90625 52.734375 
L 26.421875 48.140625 
L 20.5625 54 
L 39.703125 73.25 
L 44.09375 73.25 
L 63.328125 54 
L 57.46875 48.140625 
L 52.875 52.734375 
L 52.875 0 
L 47.015625 0 
L 47.015625 58.59375 
L 41.9375 63.671875 
z
" id="DejaVuSans-8657"/>
      <path id="DejaVuSans-32"/>
      <path d="M 48.78125 52.59375 
L 48.78125 44.1875 
Q 44.96875 46.296875 41.140625 47.34375 
Q 37.3125 48.390625 33.40625 48.390625 
Q 24.65625 48.390625 19.8125 42.84375 
Q 14.984375 37.3125 14.984375 27.296875 
Q 14.984375 17.28125 19.8125 11.734375 
Q 24.65625 6.203125 33.40625 6.203125 
Q 37.3125 6.203125 41.140625 7.25 
Q 44.96875 8.296875 48.78125 10.40625 
L 48.78125 2.09375 
Q 45.015625 0.34375 40.984375 -0.53125 
Q 36.96875 -1.421875 32.421875 -1.421875 
Q 20.0625 -1.421875 12.78125 6.34375 
Q 5.515625 14.109375 5.515625 27.296875 
Q 5.515625 40.671875 12.859375 48.328125 
Q 20.21875 56 33.015625 56 
Q 37.15625 56 41.109375 55.140625 
Q 45.0625 54.296875 48.78125 52.59375 
z
" id="DejaVuSans-99"/>
      <path d="M 41.109375 46.296875 
Q 39.59375 47.171875 37.8125 47.578125 
Q 36.03125 48 33.890625 48 
Q 26.265625 48 22.1875 43.046875 
Q 18.109375 38.09375 18.109375 28.8125 
L 18.109375 0 
L 9.078125 0 
L 9.078125 54.6875 
L 18.109375 54.6875 
L 18.109375 46.1875 
Q 20.953125 51.171875 25.484375 53.578125 
Q 30.03125 56 36.53125 56 
Q 37.453125 56 38.578125 55.875 
Q 39.703125 55.765625 41.0625 55.515625 
z
" id="DejaVuSans-114"/>
      <path d="M 56.203125 29.59375 
L 56.203125 25.203125 
L 14.890625 25.203125 
Q 15.484375 15.921875 20.484375 11.0625 
Q 25.484375 6.203125 34.421875 6.203125 
Q 39.59375 6.203125 44.453125 7.46875 
Q 49.3125 8.734375 54.109375 11.28125 
L 54.109375 2.78125 
Q 49.265625 0.734375 44.1875 -0.34375 
Q 39.109375 -1.421875 33.890625 -1.421875 
Q 20.796875 -1.421875 13.15625 6.1875 
Q 5.515625 13.8125 5.515625 26.8125 
Q 5.515625 40.234375 12.765625 48.109375 
Q 20.015625 56 32.328125 56 
Q 43.359375 56 49.78125 48.890625 
Q 56.203125 41.796875 56.203125 29.59375 
z
M 47.21875 32.234375 
Q 47.125 39.59375 43.09375 43.984375 
Q 39.0625 48.390625 32.421875 48.390625 
Q 24.90625 48.390625 20.390625 44.140625 
Q 15.875 39.890625 15.1875 32.171875 
z
M 38.53125 79.984375 
L 48.25 79.984375 
L 32.34375 61.625 
L 24.859375 61.625 
z
" id="DejaVuSans-233"/>
      <path d="M 45.40625 46.390625 
L 45.40625 75.984375 
L 54.390625 75.984375 
L 54.390625 0 
L 45.40625 0 
L 45.40625 8.203125 
Q 42.578125 3.328125 38.25 0.953125 
Q 33.9375 -1.421875 27.875 -1.421875 
Q 17.96875 -1.421875 11.734375 6.484375 
Q 5.515625 14.40625 5.515625 27.296875 
Q 5.515625 40.1875 11.734375 48.09375 
Q 17.96875 56 27.875 56 
Q 33.9375 56 38.25 53.625 
Q 42.578125 51.265625 45.40625 46.390625 
z
M 14.796875 27.296875 
Q 14.796875 17.390625 18.875 11.75 
Q 22.953125 6.109375 30.078125 6.109375 
Q 37.203125 6.109375 41.296875 11.75 
Q 45.40625 17.390625 45.40625 27.296875 
Q 45.40625 37.203125 41.296875 42.84375 
Q 37.203125 48.484375 30.078125 48.484375 
Q 22.953125 48.484375 18.875 42.84375 
Q 14.796875 37.203125 14.796875 27.296875 
z
" id="DejaVuSans-100"/>
      <path d="M 18.3125 70.21875 
L 18.3125 54.6875 
L 36.8125 54.6875 
L 36.8125 47.703125 
L 18.3125 47.703125 
L 18.3125 18.015625 
Q 18.3125 11.328125 20.140625 9.421875 
Q 21.96875 7.515625 27.59375 7.515625 
L 36.8125 7.515625 
L 36.8125 0 
L 27.59375 0 
Q 17.1875 0 13.234375 3.875 
Q 9.28125 7.765625 9.28125 18.015625 
L 9.28125 47.703125 
L 2.6875 47.703125 
L 2.6875 54.6875 
L 9.28125 54.6875 
L 9.28125 70.21875 
z
" id="DejaVuSans-116"/>
     </defs>
     <g transform="translate(521.882812 146.0875)scale(0.1 -0.1)">
      <use transform="translate(19.482422 0.015625)" xlink:href="#DejaVuSans-8657"/>
      <use transform="translate(122.753906 0.015625)" xlink:href="#DejaVuSans-32"/>
      <use transform="translate(154.541016 0.015625)" xlink:href="#DejaVuSans-97"/>
      <use transform="translate(215.820312 0.015625)" xlink:href="#DejaVuSans-99"/>
      <use transform="translate(270.800781 0.015625)" xlink:href="#DejaVuSans-101"/>
      <use transform="translate(332.324219 0.015625)" xlink:href="#DejaVuSans-115"/>
      <use transform="translate(384.423828 0.015625)" xlink:href="#DejaVuSans-115"/>
      <use transform="translate(436.523438 0.015625)" xlink:href="#DejaVuSans-111"/>
      <use transform="translate(497.705078 0.015625)" xlink:href="#DejaVuSans-32"/>
      <use transform="translate(529.492188 0.015625)" xlink:href="#DejaVuSans-99"/>
      <use transform="translate(584.472656 0.015625)" xlink:href="#DejaVuSans-114"/>
      <use transform="translate(625.585938 0.015625)" xlink:href="#DejaVuSans-233"/>
      <use transform="translate(687.109375 0.015625)" xlink:href="#DejaVuSans-100"/>
      <use transform="translate(750.585938 0.015625)" xlink:href="#DejaVuSans-105"/>
      <use transform="translate(778.369141 0.015625)" xlink:href="#DejaVuSans-116"/>
      <use transform="translate(817.578125 0.015625)" xlink:href="#DejaVuSans-111"/>
     </g>
    </g>
    <g id="line2d_22">
     <path d="M 493.882812 157.265625 
L 513.882812 157.265625 
" style="fill:none;stroke:#ff7f0e;stroke-linecap:square;stroke-width:1.5;"/>
    </g>
    <g id="line2d_23"/>
    <g id="text_17">
     <!-- Sem renda bsica -->
     <defs>
      <path d="M 53.515625 70.515625 
L 53.515625 60.890625 
Q 47.90625 63.578125 42.921875 64.890625 
Q 37.9375 66.21875 33.296875 66.21875 
Q 25.25 66.21875 20.875 63.09375 
Q 16.5 59.96875 16.5 54.203125 
Q 16.5 49.359375 19.40625 46.890625 
Q 22.3125 44.4375 30.421875 42.921875 
L 36.375 41.703125 
Q 47.40625 39.59375 52.65625 34.296875 
Q 57.90625 29 57.90625 20.125 
Q 57.90625 9.515625 50.796875 4.046875 
Q 43.703125 -1.421875 29.984375 -1.421875 
Q 24.8125 -1.421875 18.96875 -0.25 
Q 13.140625 0.921875 6.890625 3.21875 
L 6.890625 13.375 
Q 12.890625 10.015625 18.65625 8.296875 
Q 24.421875 6.59375 29.984375 6.59375 
Q 38.421875 6.59375 43.015625 9.90625 
Q 47.609375 13.234375 47.609375 19.390625 
Q 47.609375 24.75 44.3125 27.78125 
Q 41.015625 30.8125 33.5 32.328125 
L 27.484375 33.5 
Q 16.453125 35.6875 11.515625 40.375 
Q 6.59375 45.0625 6.59375 53.421875 
Q 6.59375 63.09375 13.40625 68.65625 
Q 20.21875 74.21875 32.171875 74.21875 
Q 37.3125 74.21875 42.625 73.28125 
Q 47.953125 72.359375 53.515625 70.515625 
z
" id="DejaVuSans-83"/>
      <path d="M 48.6875 27.296875 
Q 48.6875 37.203125 44.609375 42.84375 
Q 40.53125 48.484375 33.40625 48.484375 
Q 26.265625 48.484375 22.1875 42.84375 
Q 18.109375 37.203125 18.109375 27.296875 
Q 18.109375 17.390625 22.1875 11.75 
Q 26.265625 6.109375 33.40625 6.109375 
Q 40.53125 6.109375 44.609375 11.75 
Q 48.6875 17.390625 48.6875 27.296875 
z
M 18.109375 46.390625 
Q 20.953125 51.265625 25.265625 53.625 
Q 29.59375 56 35.59375 56 
Q 45.5625 56 51.78125 48.09375 
Q 58.015625 40.1875 58.015625 27.296875 
Q 58.015625 14.40625 51.78125 6.484375 
Q 45.5625 -1.421875 35.59375 -1.421875 
Q 29.59375 -1.421875 25.265625 0.953125 
Q 20.953125 3.328125 18.109375 8.203125 
L 18.109375 0 
L 9.078125 0 
L 9.078125 75.984375 
L 18.109375 75.984375 
z
" id="DejaVuSans-98"/>
      <path d="M 34.28125 27.484375 
Q 23.390625 27.484375 19.1875 25 
Q 14.984375 22.515625 14.984375 16.5 
Q 14.984375 11.71875 18.140625 8.90625 
Q 21.296875 6.109375 26.703125 6.109375 
Q 34.1875 6.109375 38.703125 11.40625 
Q 43.21875 16.703125 43.21875 25.484375 
L 43.21875 27.484375 
z
M 52.203125 31.203125 
L 52.203125 0 
L 43.21875 0 
L 43.21875 8.296875 
Q 40.140625 3.328125 35.546875 0.953125 
Q 30.953125 -1.421875 24.3125 -1.421875 
Q 15.921875 -1.421875 10.953125 3.296875 
Q 6 8.015625 6 15.921875 
Q 6 25.140625 12.171875 29.828125 
Q 18.359375 34.515625 30.609375 34.515625 
L 43.21875 34.515625 
L 43.21875 35.40625 
Q 43.21875 41.609375 39.140625 45 
Q 35.0625 48.390625 27.6875 48.390625 
Q 23 48.390625 18.546875 47.265625 
Q 14.109375 46.140625 10.015625 43.890625 
L 10.015625 52.203125 
Q 14.9375 54.109375 19.578125 55.046875 
Q 24.21875 56 28.609375 56 
Q 40.484375 56 46.34375 49.84375 
Q 52.203125 43.703125 52.203125 31.203125 
z
M 35.78125 79.984375 
L 45.5 79.984375 
L 29.59375 61.625 
L 22.109375 61.625 
z
" id="DejaVuSans-225"/>
     </defs>
     <g transform="translate(521.882812 160.765625)scale(0.1 -0.1)">
      <use xlink:href="#DejaVuSans-83"/>
      <use x="63.476562" xlink:href="#DejaVuSans-101"/>
      <use x="125" xlink:href="#DejaVuSans-109"/>
      <use x="222.412109" xlink:href="#DejaVuSans-32"/>
      <use x="254.199219" xlink:href="#DejaVuSans-114"/>
      <use x="293.0625" xlink:href="#DejaVuSans-101"/>
      <use x="354.585938" xlink:href="#DejaVuSans-110"/>
      <use x="417.964844" xlink:href="#DejaVuSans-100"/>
      <use x="481.441406" xlink:href="#DejaVuSans-97"/>
      <use x="542.720703" xlink:href="#DejaVuSans-32"/>
      <use x="574.507812" xlink:href="#DejaVuSans-98"/>
      <use x="637.984375" xlink:href="#DejaVuSans-225"/>
      <use x="699.263672" xlink:href="#DejaVuSans-115"/>
      <use x="751.363281" xlink:href="#DejaVuSans-105"/>
      <use x="779.146484" xlink:href="#DejaVuSans-99"/>
      <use x="834.126953" xlink:href="#DejaVuSans-97"/>
     </g>
    </g>
    <g id="line2d_24">
     <path d="M 493.882812 171.94375 
L 513.882812 171.94375 
" style="fill:none;stroke:#2ca02c;stroke-linecap:square;stroke-width:1.5;"/>
    </g>
    <g id="line2d_25"/>
    <g id="text_18">
     <!-- $\Uparrow$ salrio mnimo -->
     <defs>
      <path d="M 20.65625 79.984375 
L 30.375 79.984375 
L 14.46875 61.625 
L 6.984375 61.625 
z
M 9.421875 54.6875 
L 18.40625 54.6875 
L 18.40625 0 
L 9.421875 0 
z
M 13.921875 56 
z
" id="DejaVuSans-237"/>
     </defs>
     <g transform="translate(521.882812 175.44375)scale(0.1 -0.1)">
      <use transform="translate(19.482422 0.015625)" xlink:href="#DejaVuSans-8657"/>
      <use transform="translate(122.753906 0.015625)" xlink:href="#DejaVuSans-32"/>
      <use transform="translate(154.541016 0.015625)" xlink:href="#DejaVuSans-115"/>
      <use transform="translate(206.640625 0.015625)" xlink:href="#DejaVuSans-97"/>
      <use transform="translate(267.919922 0.015625)" xlink:href="#DejaVuSans-108"/>
      <use transform="translate(295.703125 0.015625)" xlink:href="#DejaVuSans-225"/>
      <use transform="translate(356.982422 0.015625)" xlink:href="#DejaVuSans-114"/>
      <use transform="translate(398.095703 0.015625)" xlink:href="#DejaVuSans-105"/>
      <use transform="translate(425.878906 0.015625)" xlink:href="#DejaVuSans-111"/>
      <use transform="translate(487.060547 0.015625)" xlink:href="#DejaVuSans-32"/>
      <use transform="translate(518.847656 0.015625)" xlink:href="#DejaVuSans-109"/>
      <use transform="translate(616.259766 0.015625)" xlink:href="#DejaVuSans-237"/>
      <use transform="translate(644.042969 0.015625)" xlink:href="#DejaVuSans-110"/>
      <use transform="translate(707.421875 0.015625)" xlink:href="#DejaVuSans-105"/>
      <use transform="translate(735.205078 0.015625)" xlink:href="#DejaVuSans-109"/>
      <use transform="translate(832.617188 0.015625)" xlink:href="#DejaVuSans-111"/>
     </g>
    </g>
    <g id="line2d_26">
     <path d="M 493.882812 186.621875 
L 513.882812 186.621875 
" style="fill:none;stroke:#d62728;stroke-linecap:square;stroke-width:1.5;"/>
    </g>
    <g id="line2d_27"/>
    <g id="text_19">
     <!-- Imposto progressivo -->
     <defs>
      <path d="M 9.8125 72.90625 
L 19.671875 72.90625 
L 19.671875 0 
L 9.8125 0 
z
" id="DejaVuSans-73"/>
      <path d="M 45.40625 27.984375 
Q 45.40625 37.75 41.375 43.109375 
Q 37.359375 48.484375 30.078125 48.484375 
Q 22.859375 48.484375 18.828125 43.109375 
Q 14.796875 37.75 14.796875 27.984375 
Q 14.796875 18.265625 18.828125 12.890625 
Q 22.859375 7.515625 30.078125 7.515625 
Q 37.359375 7.515625 41.375 12.890625 
Q 45.40625 18.265625 45.40625 27.984375 
z
M 54.390625 6.78125 
Q 54.390625 -7.171875 48.1875 -13.984375 
Q 42 -20.796875 29.203125 -20.796875 
Q 24.46875 -20.796875 20.265625 -20.09375 
Q 16.0625 -19.390625 12.109375 -17.921875 
L 12.109375 -9.1875 
Q 16.0625 -11.328125 19.921875 -12.34375 
Q 23.78125 -13.375 27.78125 -13.375 
Q 36.625 -13.375 41.015625 -8.765625 
Q 45.40625 -4.15625 45.40625 5.171875 
L 45.40625 9.625 
Q 42.625 4.78125 38.28125 2.390625 
Q 33.9375 0 27.875 0 
Q 17.828125 0 11.671875 7.65625 
Q 5.515625 15.328125 5.515625 27.984375 
Q 5.515625 40.671875 11.671875 48.328125 
Q 17.828125 56 27.875 56 
Q 33.9375 56 38.28125 53.609375 
Q 42.625 51.21875 45.40625 46.390625 
L 45.40625 54.6875 
L 54.390625 54.6875 
z
" id="DejaVuSans-103"/>
      <path d="M 2.984375 54.6875 
L 12.5 54.6875 
L 29.59375 8.796875 
L 46.6875 54.6875 
L 56.203125 54.6875 
L 35.6875 0 
L 23.484375 0 
z
" id="DejaVuSans-118"/>
     </defs>
     <g transform="translate(521.882812 190.121875)scale(0.1 -0.1)">
      <use xlink:href="#DejaVuSans-73"/>
      <use x="29.492188" xlink:href="#DejaVuSans-109"/>
      <use x="126.904297" xlink:href="#DejaVuSans-112"/>
      <use x="190.380859" xlink:href="#DejaVuSans-111"/>
      <use x="251.5625" xlink:href="#DejaVuSans-115"/>
      <use x="303.662109" xlink:href="#DejaVuSans-116"/>
      <use x="342.871094" xlink:href="#DejaVuSans-111"/>
      <use x="404.052734" xlink:href="#DejaVuSans-32"/>
      <use x="435.839844" xlink:href="#DejaVuSans-112"/>
      <use x="499.316406" xlink:href="#DejaVuSans-114"/>
      <use x="538.179688" xlink:href="#DejaVuSans-111"/>
      <use x="599.361328" xlink:href="#DejaVuSans-103"/>
      <use x="662.837891" xlink:href="#DejaVuSans-114"/>
      <use x="701.701172" xlink:href="#DejaVuSans-101"/>
      <use x="763.224609" xlink:href="#DejaVuSans-115"/>
      <use x="815.324219" xlink:href="#DejaVuSans-115"/>
      <use x="867.423828" xlink:href="#DejaVuSans-105"/>
      <use x="895.207031" xlink:href="#DejaVuSans-118"/>
      <use x="954.386719" xlink:href="#DejaVuSans-111"/>
     </g>
    </g>
   </g>
  </g>
 </g>
 <defs>
  <clipPath id="p09ee1e0180">
   <rect height="271.8" width="446.4" x="38.482813" y="22.10625"/>
  </clipPath>
 </defs>
</svg>
