<?xml version="1.0" encoding="utf-8" standalone="no"?>
<!DOCTYPE svg PUBLIC "-//W3C//DTD SVG 1.1//EN"
  "http://www.w3.org/Graphics/SVG/1.1/DTD/svg11.dtd">
<!-- Created with matplotlib (https://matplotlib.org/) -->
<svg height="331.340625pt" version="1.1" viewBox="0 0 641.004687 331.340625" width="641.004687pt" xmlns="http://www.w3.org/2000/svg" xmlns:xlink="http://www.w3.org/1999/xlink">
 <defs>
  <style type="text/css">
*{stroke-linecap:butt;stroke-linejoin:round;}
  </style>
 </defs>
 <g id="figure_1">
  <g id="patch_1">
   <path d="M 0 331.340625 
L 641.004687 331.340625 
L 641.004687 0 
L 0 0 
z
" style="fill:#ffffff;"/>
  </g>
  <g id="axes_1">
   <g id="patch_2">
    <path d="M 44.845313 293.784375 
L 491.245312 293.784375 
L 491.245312 21.984375 
L 44.845313 21.984375 
z
" style="fill:#ffffff;"/>
   </g>
   <g id="line2d_1">
    <path clip-path="url(#p87c1ab85ed)" d="M 65.136222 53.892978 
L 65.862193 54.011367 
L 66.588165 57.561504 
L 67.314137 59.150397 
L 68.040108 59.162301 
L 68.76608 59.389553 
L 69.492052 59.499699 
L 70.218024 59.824763 
L 70.943995 61.153827 
L 71.669967 60.182194 
L 72.395939 63.97829 
L 73.12191 64.922384 
L 74.573854 65.886527 
L 75.299825 66.444584 
L 76.025797 70.219884 
L 76.751769 70.049054 
L 77.477741 72.263099 
L 78.203712 74.950696 
L 78.929684 75.542537 
L 79.655656 79.699989 
L 80.381627 81.204939 
L 81.107599 82.011998 
L 81.833571 85.0947 
L 82.559542 87.438051 
L 83.285514 88.076247 
L 84.737458 93.251892 
L 85.463429 96.690306 
L 86.189401 98.446029 
L 87.641344 105.831569 
L 88.367316 107.188431 
L 89.819259 111.942516 
L 90.545231 115.876616 
L 91.271203 118.554697 
L 93.449118 124.806265 
L 94.17509 126.328526 
L 94.901061 128.519428 
L 95.627033 132.043095 
L 96.353005 133.08609 
L 97.078977 134.586575 
L 97.804948 134.878086 
L 98.53092 138.910752 
L 99.256892 140.433048 
L 99.982863 143.582371 
L 101.434807 147.015066 
L 102.160778 149.392629 
L 103.612722 152.85798 
L 104.338694 154.42874 
L 105.064665 155.680284 
L 105.790637 156.478567 
L 106.516609 159.426781 
L 107.24258 161.777061 
L 107.968552 163.593959 
L 108.694524 164.937397 
L 109.420495 165.187838 
L 110.146467 168.282047 
L 110.872439 168.491435 
L 111.598411 169.527157 
L 112.324382 171.524562 
L 113.050354 173.127503 
L 114.502297 175.103891 
L 115.228269 175.842137 
L 115.954241 176.076784 
L 116.680212 178.757885 
L 118.132156 179.556863 
L 118.858128 179.728523 
L 119.584099 180.085929 
L 120.310071 179.939138 
L 121.762014 181.045635 
L 122.487986 181.020274 
L 123.213958 179.71054 
L 123.93993 181.620104 
L 125.391873 181.688942 
L 126.117845 180.266069 
L 126.843816 182.470159 
L 127.569788 182.971356 
L 128.29576 184.240775 
L 129.021731 184.260555 
L 130.473675 184.677049 
L 131.199647 184.450917 
L 131.925618 185.066053 
L 134.829505 185.147093 
L 135.555477 184.678389 
L 136.281448 183.09218 
L 137.00742 183.725034 
L 138.459364 181.675078 
L 139.185335 182.122329 
L 140.637279 180.436631 
L 141.36325 180.167664 
L 143.541165 178.345056 
L 144.267137 177.031213 
L 145.719081 175.656776 
L 146.445052 176.632775 
L 147.171024 176.755057 
L 147.896996 174.255016 
L 148.622967 172.398908 
L 149.348939 170.049914 
L 150.800883 163.909812 
L 151.526854 162.484536 
L 152.252826 161.95017 
L 152.978798 160.587176 
L 153.704769 158.623933 
L 155.882684 151.10363 
L 157.334628 147.434237 
L 158.0606 148.71817 
L 158.786571 147.427525 
L 159.512543 145.738459 
L 160.238515 144.376102 
L 160.964486 142.51188 
L 161.690458 141.463308 
L 162.41643 138.092519 
L 163.142401 137.222937 
L 163.868373 136.008789 
L 165.320317 129.291532 
L 166.046288 127.727813 
L 166.77226 125.162694 
L 167.498232 120.461643 
L 168.224203 117.84915 
L 168.950175 113.04889 
L 169.676147 110.807688 
L 170.402118 110.373619 
L 172.580034 105.288069 
L 174.757949 91.138546 
L 176.209892 83.982132 
L 176.935864 84.009597 
L 177.661836 81.347016 
L 178.387807 80.337432 
L 179.113779 76.433541 
L 179.839751 73.698723 
L 180.565722 69.593419 
L 181.291694 66.717492 
L 182.743637 59.656705 
L 183.469609 58.103982 
L 184.195581 52.956347 
L 186.373496 40.431923 
L 187.099468 38.600768 
L 187.825439 39.579507 
L 188.551411 38.491692 
L 189.277383 37.157429 
L 190.003354 36.670034 
L 190.729326 38.285272 
L 191.455298 37.815346 
L 192.18127 35.642214 
L 192.907241 34.622418 
L 193.633213 34.72136 
L 194.359185 34.948123 
L 195.085156 34.33892 
L 195.811128 34.383197 
L 196.5371 39.100946 
L 197.263071 39.394167 
L 197.989043 44.447005 
L 198.715015 47.338645 
L 199.440987 48.371459 
L 201.618902 61.728747 
L 202.344873 64.729191 
L 203.070845 65.64432 
L 203.796817 68.613112 
L 204.522789 75.362993 
L 205.24876 80.962789 
L 205.974732 84.790801 
L 206.700704 86.594387 
L 207.426675 93.868028 
L 208.152647 98.412279 
L 208.878619 105.440866 
L 209.60459 109.777015 
L 210.330562 112.870775 
L 211.782506 124.833763 
L 212.508477 127.944955 
L 213.234449 134.08584 
L 213.960421 138.031292 
L 214.686392 141.175855 
L 215.412364 143.746857 
L 216.138336 145.657484 
L 216.864307 150.222057 
L 218.316251 154.500629 
L 219.042223 157.095266 
L 220.494166 164.146912 
L 221.220138 165.638604 
L 221.946109 166.689587 
L 223.398053 169.949774 
L 224.124024 170.631456 
L 224.849996 171.788654 
L 225.575968 173.183366 
L 226.30194 173.652453 
L 227.027911 174.715315 
L 227.753883 175.035152 
L 229.205826 176.677722 
L 229.931798 177.780371 
L 230.65777 178.311373 
L 231.383742 178.574532 
L 233.561657 180.493396 
L 235.739572 181.654582 
L 236.465543 181.242443 
L 237.191515 181.246214 
L 237.917487 182.923242 
L 238.643459 181.959857 
L 240.095402 181.779337 
L 240.821374 181.953122 
L 241.547345 181.654505 
L 242.273317 182.12437 
L 242.999289 181.775635 
L 243.72526 180.991069 
L 244.451232 181.234023 
L 245.177204 181.300452 
L 246.629147 180.887413 
L 247.355119 181.038952 
L 248.081091 180.60433 
L 248.807062 180.346366 
L 249.533034 179.067354 
L 250.259006 179.198654 
L 250.984977 178.432388 
L 251.710949 178.691984 
L 252.436921 177.600506 
L 253.162893 176.283974 
L 253.888864 176.341815 
L 254.614836 174.696821 
L 255.340808 174.289838 
L 256.066779 174.546297 
L 256.792751 173.824441 
L 257.518723 173.626163 
L 258.244695 173.595957 
L 258.970666 172.017837 
L 259.696638 171.37576 
L 260.42261 169.731085 
L 261.148581 168.401355 
L 261.874553 168.715531 
L 262.600525 168.276351 
L 263.326496 167.553914 
L 264.052468 165.458408 
L 264.77844 166.089315 
L 265.504412 165.318909 
L 266.230383 164.717973 
L 266.956355 164.6552 
L 267.682327 164.193065 
L 268.408298 164.47322 
L 269.13427 163.599749 
L 269.860242 161.998879 
L 270.586213 161.812512 
L 271.312185 160.722846 
L 272.038157 160.227443 
L 272.764129 158.973534 
L 273.4901 159.78963 
L 274.942044 158.587335 
L 275.668015 159.231714 
L 276.393987 157.077955 
L 277.119959 156.883189 
L 277.84593 156.250928 
L 278.571902 154.53204 
L 279.297874 153.82785 
L 280.023846 152.759026 
L 280.749817 152.935781 
L 281.475789 152.129235 
L 282.201761 150.586365 
L 282.927732 150.545824 
L 283.653704 149.53985 
L 284.379676 149.245853 
L 285.105648 148.695458 
L 285.831619 148.322031 
L 286.557591 145.451515 
L 287.283563 144.115619 
L 288.009534 143.977272 
L 288.735506 141.341462 
L 289.461478 142.242013 
L 290.187449 140.072317 
L 290.913421 138.91516 
L 291.639393 139.367819 
L 292.365365 137.467428 
L 293.091336 137.675177 
L 293.817308 137.597528 
L 294.54328 137.335674 
L 295.269251 135.85077 
L 295.995223 135.257363 
L 296.721195 132.601942 
L 297.447166 131.783743 
L 298.173138 129.204291 
L 298.89911 127.510804 
L 299.625082 126.379718 
L 300.351053 125.782527 
L 301.077025 124.469278 
L 301.802997 123.867659 
L 302.528968 121.380211 
L 303.25494 120.560904 
L 303.980912 118.104371 
L 304.706883 116.597397 
L 305.432855 113.852727 
L 306.158827 111.789794 
L 306.884799 109.259866 
L 307.61077 110.460026 
L 308.336742 107.565781 
L 309.062714 105.841676 
L 309.788685 103.105227 
L 310.514657 101.388274 
L 311.240629 97.698005 
L 311.966601 95.906311 
L 312.692572 95.26164 
L 313.418544 93.487958 
L 314.144516 93.587227 
L 314.870487 92.722558 
L 315.596459 92.554302 
L 316.322431 91.931814 
L 317.048402 91.847891 
L 317.774374 91.642219 
L 318.500346 91.320351 
L 319.226318 89.740537 
L 319.952289 89.085948 
L 321.404233 85.898937 
L 322.130204 85.567356 
L 322.856176 85.077032 
L 323.582148 84.986143 
L 324.308119 85.570384 
L 325.760063 85.254977 
L 326.486035 84.201873 
L 327.212006 84.198875 
L 327.937978 83.174156 
L 328.66395 85.869536 
L 329.389921 87.095643 
L 330.841865 88.765188 
L 331.567836 89.314462 
L 332.293808 91.072909 
L 333.01978 93.831635 
L 333.745752 95.358866 
L 334.471723 95.931957 
L 335.197695 98.15192 
L 335.923667 98.632061 
L 336.649638 102.705094 
L 337.37561 103.746926 
L 338.101582 105.576574 
L 338.827554 108.650544 
L 340.279497 111.811967 
L 341.005469 115.435655 
L 341.73144 118.227986 
L 342.457412 120.018168 
L 345.361299 132.29164 
L 346.087271 134.939407 
L 346.813242 136.821192 
L 348.265186 143.669249 
L 349.717129 148.964973 
L 350.443101 151.762434 
L 351.169072 153.552062 
L 351.895044 156.254134 
L 352.621016 159.851732 
L 353.346988 161.430153 
L 354.072959 165.652273 
L 354.798931 168.049755 
L 355.524903 171.770919 
L 356.250874 174.202219 
L 357.702818 180.000461 
L 359.880733 187.262316 
L 361.332676 190.740005 
L 362.058648 193.566261 
L 362.78462 194.944792 
L 364.236563 198.53816 
L 365.688507 201.539084 
L 366.414478 202.590843 
L 367.14045 203.320585 
L 367.866422 204.372332 
L 368.592393 206.072361 
L 369.318365 207.159055 
L 370.044337 207.442228 
L 371.49628 209.378808 
L 372.222252 210.206001 
L 374.400167 212.174881 
L 375.126139 212.512279 
L 375.85211 213.683705 
L 376.578082 214.114526 
L 377.304054 215.292659 
L 380.933912 217.481469 
L 381.659884 217.623883 
L 382.385856 218.420068 
L 383.837799 218.16244 
L 384.563771 218.221745 
L 385.289742 218.622315 
L 386.015714 218.7127 
L 386.741686 218.61273 
L 387.467658 218.104816 
L 388.919601 217.821578 
L 389.645573 217.500526 
L 390.371544 216.646095 
L 391.097516 216.116864 
L 391.823488 215.219993 
L 392.54946 214.857726 
L 393.275431 214.708086 
L 394.001403 213.55807 
L 394.727375 212.816974 
L 395.453346 211.662385 
L 396.179318 210.967977 
L 396.90529 210.023093 
L 397.631261 209.417356 
L 399.809177 205.482983 
L 400.535148 203.818275 
L 401.987092 201.066748 
L 403.439035 198.300228 
L 407.794865 185.473443 
L 415.054582 160.170072 
L 417.958469 149.719047 
L 418.684441 146.937092 
L 419.410413 145.100368 
L 420.862356 139.550602 
L 423.040271 131.008794 
L 423.766243 129.277698 
L 425.218186 124.246489 
L 425.944158 122.340613 
L 428.122073 115.259692 
L 431.02596 110.344176 
L 431.751931 109.652681 
L 433.203875 108.970134 
L 433.929847 108.87217 
L 434.655818 108.988947 
L 436.107762 110.219567 
L 437.559705 112.132905 
L 439.011648 114.865508 
L 440.463592 117.968554 
L 441.915535 122.302244 
L 442.641507 124.080301 
L 446.271366 135.868353 
L 448.449281 144.62931 
L 453.531083 162.989257 
L 454.983026 167.728527 
L 458.612884 179.890978 
L 460.7908 185.998189 
L 461.516771 187.996715 
L 465.872601 197.478902 
L 467.324545 200.084098 
L 468.776488 202.314396 
L 470.228432 204.453068 
L 470.954403 205.385914 
L 470.954403 205.385914 
" style="fill:none;stroke:#1f77b4;stroke-linecap:square;stroke-width:1.5;"/>
   </g>
   <g id="line2d_2">
    <path clip-path="url(#p87c1ab85ed)" d="M 65.136222 280.090323 
L 65.862193 280.025627 
L 66.588165 281.141659 
L 67.314137 281.42983 
L 68.040108 280.779425 
L 68.76608 281.083606 
L 69.492052 280.93967 
L 70.218024 281.090088 
L 70.943995 279.653683 
L 71.669967 279.527768 
L 72.395939 280.122482 
L 73.847882 279.829776 
L 75.299825 279.71343 
L 76.025797 278.568817 
L 76.751769 277.79639 
L 77.477741 277.559306 
L 78.203712 278.274343 
L 78.929684 277.883717 
L 79.655656 278.634372 
L 80.381627 276.951632 
L 81.107599 276.740069 
L 81.833571 275.179932 
L 83.285514 274.027362 
L 84.011486 273.052249 
L 85.463429 272.708411 
L 86.189401 272.271441 
L 86.915373 272.366508 
L 87.641344 272.17875 
L 88.367316 271.722971 
L 89.093288 271.525471 
L 89.819259 271.52965 
L 90.545231 271.717378 
L 91.271203 272.124977 
L 91.997175 272.21549 
L 93.449118 272.262712 
L 94.17509 272.284804 
L 94.901061 272.431309 
L 95.627033 273.314174 
L 96.353005 272.513754 
L 97.078977 272.527983 
L 97.804948 272.368463 
L 98.53092 272.825925 
L 99.256892 271.800905 
L 99.982863 272.198874 
L 100.708835 271.275302 
L 101.434807 271.082081 
L 102.160778 270.341144 
L 102.88675 269.823685 
L 103.612722 269.480147 
L 104.338694 268.200619 
L 105.064665 267.44512 
L 105.790637 266.375016 
L 106.516609 266.96559 
L 107.24258 264.430692 
L 107.968552 264.151333 
L 109.420495 262.954003 
L 110.146467 263.136176 
L 110.872439 262.584372 
L 111.598411 261.737907 
L 112.324382 261.903364 
L 113.050354 261.935081 
L 113.776326 261.476849 
L 114.502297 259.073679 
L 115.228269 257.699509 
L 115.954241 256.806202 
L 116.680212 256.714331 
L 117.406184 256.834387 
L 118.132156 256.780934 
L 118.858128 256.547989 
L 119.584099 256.101369 
L 121.036043 254.886561 
L 121.762014 254.857189 
L 122.487986 254.099902 
L 123.213958 253.805606 
L 123.93993 254.48414 
L 124.665901 252.377419 
L 126.117845 249.934969 
L 126.843816 250.749936 
L 127.569788 250.988684 
L 128.29576 251.382859 
L 129.747703 251.015626 
L 130.473675 250.449839 
L 131.199647 250.470665 
L 131.925618 250.724686 
L 132.65159 251.271876 
L 133.377562 251.39948 
L 134.103533 251.675455 
L 134.829505 250.211296 
L 135.555477 249.922172 
L 136.281448 249.898518 
L 137.00742 250.371638 
L 137.733392 247.344616 
L 138.459364 247.160991 
L 139.185335 247.537124 
L 139.911307 247.22621 
L 140.637279 248.21101 
L 141.36325 248.168031 
L 142.089222 248.266869 
L 142.815194 247.892281 
L 143.541165 247.021912 
L 144.267137 246.895084 
L 145.719081 246.412318 
L 146.445052 247.759719 
L 147.171024 248.20191 
L 148.622967 248.796544 
L 149.348939 246.805062 
L 150.074911 246.432317 
L 150.800883 243.842196 
L 151.526854 243.365481 
L 152.252826 243.636393 
L 153.704769 243.00333 
L 154.430741 241.904838 
L 155.156713 240.384229 
L 155.882684 240.063338 
L 156.608656 239.564635 
L 157.334628 238.902366 
L 158.0606 239.750258 
L 158.786571 239.287486 
L 160.238515 238.951704 
L 160.964486 238.418664 
L 161.690458 236.2073 
L 162.41643 235.289637 
L 163.142401 233.604958 
L 165.320317 231.175284 
L 166.77226 226.196134 
L 167.498232 224.931788 
L 168.224203 224.233718 
L 169.676147 221.856939 
L 170.402118 222.148613 
L 171.12809 221.514921 
L 171.854062 220.319835 
L 172.580034 217.755665 
L 173.306005 217.136021 
L 174.757949 215.173624 
L 175.48392 214.554826 
L 176.209892 213.422717 
L 176.935864 212.740517 
L 177.661836 210.641172 
L 178.387807 210.373786 
L 179.113779 208.402647 
L 179.839751 207.023349 
L 181.291694 205.440712 
L 182.017666 204.315355 
L 182.743637 202.858875 
L 183.469609 201.133951 
L 184.921553 199.352861 
L 186.373496 197.453466 
L 187.099468 197.472701 
L 187.825439 198.661154 
L 188.551411 197.168883 
L 189.277383 196.144152 
L 190.003354 196.082455 
L 190.729326 197.445108 
L 191.455298 197.701058 
L 192.18127 195.639763 
L 192.907241 196.092585 
L 194.359185 196.157892 
L 195.085156 196.22256 
L 195.811128 197.005402 
L 196.5371 199.528828 
L 197.263071 200.39933 
L 197.989043 203.457457 
L 198.715015 203.46618 
L 199.440987 204.072716 
L 200.166958 205.134097 
L 200.89293 207.40785 
L 203.070845 210.8989 
L 203.796817 211.622292 
L 205.24876 217.538712 
L 205.974732 219.274832 
L 206.700704 220.696915 
L 207.426675 224.363194 
L 208.152647 227.26205 
L 208.878619 231.038765 
L 210.330562 235.910147 
L 211.056534 239.03347 
L 211.782506 240.743711 
L 212.508477 243.014651 
L 213.960421 246.563856 
L 214.686392 248.400817 
L 216.138336 251.160554 
L 216.864307 253.326927 
L 217.590279 254.535005 
L 218.316251 254.354812 
L 219.768194 257.309823 
L 220.494166 258.08374 
L 221.220138 258.266734 
L 221.946109 258.801158 
L 222.672081 259.591002 
L 223.398053 259.451983 
L 224.849996 260.660303 
L 225.575968 261.62058 
L 227.027911 262.282402 
L 227.753883 262.906191 
L 229.205826 263.794253 
L 229.931798 264.709813 
L 230.65777 264.1037 
L 231.383742 264.381779 
L 232.835685 265.442265 
L 233.561657 265.687496 
L 235.0136 266.694713 
L 237.191515 267.425051 
L 237.917487 268.158744 
L 238.643459 268.446274 
L 239.36943 268.8788 
L 240.095402 269.0318 
L 241.547345 267.988929 
L 242.273317 267.997145 
L 242.999289 267.023165 
L 245.177204 266.63568 
L 245.903176 266.709554 
L 246.629147 266.121035 
L 247.355119 266.057179 
L 248.081091 265.830193 
L 248.807062 265.810185 
L 249.533034 265.485078 
L 250.259006 264.400483 
L 250.984977 263.518737 
L 251.710949 263.165948 
L 252.436921 262.687827 
L 253.162893 262.054324 
L 253.888864 261.250635 
L 254.614836 260.069797 
L 255.340808 259.44918 
L 256.066779 259.310984 
L 256.792751 258.6986 
L 259.696638 254.802156 
L 261.874553 252.125357 
L 262.600525 251.793781 
L 263.326496 251.051623 
L 264.052468 250.623587 
L 264.77844 250.775637 
L 265.504412 250.10463 
L 266.230383 249.076268 
L 266.956355 249.028546 
L 267.682327 248.637848 
L 268.408298 248.48401 
L 269.13427 247.146156 
L 269.860242 246.475309 
L 270.586213 245.359604 
L 271.312185 244.508831 
L 272.038157 244.185534 
L 272.764129 243.636415 
L 273.4901 242.649927 
L 274.942044 241.762568 
L 275.668015 241.588158 
L 276.393987 239.643882 
L 277.119959 238.178067 
L 278.571902 236.825439 
L 279.297874 236.432995 
L 280.023846 236.643891 
L 280.749817 234.455792 
L 281.475789 234.175098 
L 282.201761 233.263497 
L 283.653704 232.598641 
L 284.379676 232.199476 
L 285.105648 231.982182 
L 285.831619 231.966221 
L 287.283563 231.506974 
L 288.009534 232.218753 
L 288.735506 231.969745 
L 289.461478 232.821112 
L 290.913421 233.08945 
L 292.365365 231.495693 
L 293.091336 231.397872 
L 293.817308 231.556874 
L 294.54328 231.175637 
L 295.269251 230.502386 
L 295.995223 230.451341 
L 297.447166 230.038584 
L 298.173138 229.675279 
L 298.89911 229.657203 
L 299.625082 228.386493 
L 300.351053 228.419746 
L 301.077025 228.177348 
L 301.802997 228.2397 
L 303.980912 227.049694 
L 304.706883 226.731464 
L 305.432855 226.201583 
L 306.884799 225.801265 
L 307.61077 227.152085 
L 309.788685 227.677084 
L 310.514657 226.510412 
L 311.240629 226.510069 
L 311.966601 225.601548 
L 312.692572 225.751482 
L 313.418544 225.096783 
L 314.870487 225.890818 
L 315.596459 225.677633 
L 318.500346 226.05956 
L 319.226318 226.387285 
L 320.678261 226.681843 
L 321.404233 225.674853 
L 322.130204 225.907111 
L 323.582148 225.94476 
L 324.308119 227.220517 
L 325.034091 227.331997 
L 325.760063 226.591194 
L 326.486035 226.141432 
L 327.212006 226.275879 
L 327.937978 226.057025 
L 328.66395 227.291529 
L 329.389921 228.167013 
L 330.115893 227.697137 
L 331.567836 228.432309 
L 333.745752 231.685247 
L 334.471723 231.530042 
L 335.197695 232.652849 
L 335.923667 233.242374 
L 336.649638 235.026214 
L 337.37561 235.594336 
L 338.101582 235.707745 
L 338.827554 236.475989 
L 339.553525 236.312554 
L 340.279497 236.999695 
L 341.73144 239.731893 
L 342.457412 240.636692 
L 343.183384 241.284886 
L 343.909355 242.781087 
L 344.635327 243.139184 
L 345.361299 244.555634 
L 346.813242 246.544234 
L 348.265186 249.495328 
L 348.991157 250.484589 
L 349.717129 250.754057 
L 350.443101 252.467644 
L 351.895044 253.21918 
L 352.621016 254.04201 
L 353.346988 254.664409 
L 354.798931 255.521097 
L 356.250874 256.368238 
L 358.428789 257.409893 
L 359.154761 257.812028 
L 359.880733 257.774028 
L 362.058648 258.569479 
L 362.78462 258.340074 
L 363.510591 258.299007 
L 364.962535 257.915568 
L 366.414478 257.6844 
L 367.866422 255.951021 
L 368.592393 256.135903 
L 369.318365 255.548927 
L 370.044337 255.177951 
L 370.770308 254.446305 
L 371.49628 254.012158 
L 372.222252 253.229906 
L 373.674195 252.200517 
L 375.126139 251.268637 
L 378.755997 247.714893 
L 380.207941 246.271187 
L 381.659884 244.769631 
L 382.385856 244.498132 
L 383.837799 242.537048 
L 384.563771 241.894537 
L 385.289742 241.663007 
L 386.015714 240.94185 
L 388.193629 238.260905 
L 389.645573 236.573833 
L 390.371544 235.536503 
L 391.823488 234.350955 
L 392.54946 233.279661 
L 393.275431 232.469841 
L 395.453346 229.529501 
L 396.90529 227.855538 
L 397.631261 227.267413 
L 399.083205 225.854988 
L 400.535148 224.685973 
L 401.26112 223.702223 
L 404.890978 221.585458 
L 406.342922 220.068559 
L 407.068894 219.33434 
L 408.520837 218.192759 
L 409.246809 218.030931 
L 409.97278 217.628814 
L 412.150695 215.395678 
L 412.876667 214.853077 
L 414.328611 213.276843 
L 415.054582 212.822181 
L 415.780554 212.668975 
L 416.506526 211.928111 
L 417.232497 211.913954 
L 419.410413 210.966324 
L 420.862356 210.469402 
L 421.588328 210.402359 
L 423.040271 209.333782 
L 423.766243 209.424442 
L 424.492214 208.931922 
L 425.218186 208.769308 
L 425.944158 208.777745 
L 426.67013 208.430497 
L 427.396101 208.423553 
L 428.122073 208.286379 
L 428.848045 208.719071 
L 429.574016 208.862886 
L 430.299988 209.390497 
L 431.751931 210.121847 
L 433.929847 211.586864 
L 435.38179 212.842937 
L 437.559705 215.17432 
L 439.73762 217.896345 
L 440.463592 218.989846 
L 441.915535 221.455789 
L 442.641507 222.396789 
L 443.367479 223.547051 
L 445.545394 226.410318 
L 451.353167 234.715972 
L 455.708998 239.949138 
L 457.160941 241.43951 
L 460.064828 244.143914 
L 461.516771 245.291471 
L 465.14663 247.548587 
L 467.324545 248.427942 
L 469.50246 249.034737 
L 470.954403 249.225075 
L 470.954403 249.225075 
" style="fill:none;stroke:#ff7f0e;stroke-linecap:square;stroke-width:1.5;"/>
   </g>
   <g id="line2d_3">
    <path clip-path="url(#p87c1ab85ed)" d="M 65.136222 158.844277 
L 65.862193 157.780263 
L 66.588165 157.883019 
L 67.314137 157.528729 
L 68.76608 157.467529 
L 69.492052 156.644596 
L 70.218024 156.223319 
L 70.943995 155.327161 
L 71.669967 154.827242 
L 72.395939 156.749597 
L 73.12191 156.415566 
L 74.573854 157.242837 
L 75.299825 155.799903 
L 76.025797 158.103739 
L 76.751769 158.043067 
L 77.477741 158.906347 
L 78.203712 160.101892 
L 78.929684 160.442898 
L 79.655656 162.186645 
L 81.107599 163.611015 
L 82.559542 166.115652 
L 83.285514 166.948882 
L 84.011486 168.181506 
L 84.737458 169.97659 
L 85.463429 172.153059 
L 86.189401 173.306604 
L 87.641344 178.547765 
L 88.367316 179.73201 
L 89.819259 183.067652 
L 90.545231 186.13611 
L 91.271203 188.513338 
L 91.997175 190.194143 
L 94.17509 194.191457 
L 94.901061 194.815089 
L 95.627033 197.526862 
L 96.353005 198.033378 
L 97.804948 200.063143 
L 98.53092 202.563596 
L 99.256892 203.163414 
L 99.982863 205.594291 
L 100.708835 206.209661 
L 101.434807 207.281008 
L 103.612722 209.649279 
L 105.064665 210.173039 
L 105.790637 210.383543 
L 106.516609 212.267888 
L 107.24258 213.400635 
L 107.968552 214.065429 
L 108.694524 213.954343 
L 109.420495 214.392144 
L 110.146467 215.077271 
L 110.872439 214.902932 
L 111.598411 215.460641 
L 112.324382 216.164342 
L 113.050354 217.267757 
L 115.228269 217.383068 
L 115.954241 216.645276 
L 116.680212 218.065804 
L 117.406184 217.900621 
L 118.132156 218.113232 
L 120.310071 217.293641 
L 121.762014 217.575833 
L 122.487986 217.241856 
L 123.213958 216.078329 
L 123.93993 217.269069 
L 125.391873 216.688663 
L 126.117845 215.254465 
L 126.843816 216.697077 
L 128.29576 217.315846 
L 129.021731 216.353556 
L 129.747703 215.648196 
L 130.473675 215.501902 
L 131.199647 214.356055 
L 131.925618 215.165297 
L 132.65159 214.389983 
L 133.377562 213.294442 
L 134.103533 212.737122 
L 134.829505 213.233713 
L 135.555477 211.624026 
L 136.281448 210.676464 
L 137.00742 210.342941 
L 137.733392 208.319964 
L 138.459364 206.67727 
L 139.185335 207.140186 
L 139.911307 206.012396 
L 140.637279 206.271274 
L 142.089222 202.745389 
L 142.815194 201.700621 
L 143.541165 199.108173 
L 144.267137 197.751408 
L 144.993109 195.493547 
L 145.719081 193.818859 
L 146.445052 192.655587 
L 147.171024 191.937209 
L 148.622967 189.134341 
L 150.074911 185.699108 
L 150.800883 182.945493 
L 151.526854 182.079678 
L 152.252826 182.345763 
L 152.978798 181.258776 
L 153.704769 177.637739 
L 154.430741 175.899823 
L 155.882684 173.854588 
L 156.608656 172.374445 
L 157.334628 171.452217 
L 158.0606 173.103044 
L 158.786571 173.460853 
L 159.512543 172.666495 
L 160.238515 170.579832 
L 160.964486 169.832904 
L 161.690458 167.924058 
L 162.41643 167.418997 
L 163.142401 165.650258 
L 163.868373 164.484598 
L 164.594345 163.925874 
L 167.498232 161.001458 
L 168.224203 161.485546 
L 168.950175 161.149959 
L 169.676147 161.19784 
L 170.402118 163.762258 
L 171.12809 164.116373 
L 171.854062 164.346758 
L 172.580034 164.31 
L 173.306005 164.399548 
L 174.031977 163.900137 
L 174.757949 163.657767 
L 175.48392 162.877808 
L 176.209892 163.114151 
L 176.935864 164.834014 
L 177.661836 164.847082 
L 178.387807 168.052436 
L 179.113779 168.333156 
L 179.839751 168.8878 
L 180.565722 168.19126 
L 181.291694 169.686427 
L 182.017666 169.469411 
L 182.743637 169.417916 
L 183.469609 170.292786 
L 184.195581 170.630286 
L 184.921553 170.568815 
L 185.647524 170.340822 
L 186.373496 170.454145 
L 187.099468 171.211163 
L 187.825439 173.36945 
L 188.551411 174.815498 
L 189.277383 175.421665 
L 190.003354 175.875397 
L 190.729326 178.784405 
L 191.455298 179.821944 
L 192.18127 179.264594 
L 192.907241 179.724056 
L 193.633213 179.938979 
L 194.359185 180.313386 
L 195.085156 180.478225 
L 195.811128 181.446511 
L 196.5371 183.060999 
L 197.263071 183.648996 
L 197.989043 185.383824 
L 198.715015 186.717485 
L 199.440987 187.544297 
L 200.166958 189.289099 
L 201.618902 191.92928 
L 202.344873 192.617761 
L 203.070845 192.834052 
L 203.796817 193.465303 
L 204.522789 196.107431 
L 205.24876 198.31354 
L 206.700704 200.853702 
L 207.426675 202.944605 
L 208.152647 205.420864 
L 209.60459 209.17511 
L 210.330562 210.398789 
L 211.782506 214.542755 
L 212.508477 215.628697 
L 213.234449 217.965964 
L 215.412364 221.349693 
L 216.138336 222.306042 
L 216.864307 224.313041 
L 217.590279 225.06028 
L 218.316251 225.390856 
L 219.042223 226.06944 
L 219.768194 227.738788 
L 220.494166 227.922194 
L 221.220138 228.290334 
L 221.946109 228.043543 
L 222.672081 228.702854 
L 223.398053 229.114727 
L 224.124024 229.166631 
L 224.849996 228.730987 
L 225.575968 229.381744 
L 227.753883 227.123579 
L 229.205826 226.143361 
L 229.931798 226.8219 
L 230.65777 225.937723 
L 231.383742 224.460054 
L 232.109713 224.040898 
L 232.835685 224.097832 
L 233.561657 223.247471 
L 234.287628 221.675029 
L 235.0136 221.028703 
L 235.739572 220.129839 
L 236.465543 218.678618 
L 237.191515 217.956805 
L 237.917487 218.315508 
L 238.643459 217.478417 
L 239.36943 216.995672 
L 240.095402 215.262019 
L 240.821374 214.733999 
L 241.547345 212.674215 
L 242.273317 211.595076 
L 242.999289 209.768462 
L 244.451232 207.905526 
L 245.177204 206.446989 
L 245.903176 205.542001 
L 246.629147 204.908942 
L 247.355119 204.103559 
L 248.081091 202.579545 
L 249.533034 200.595986 
L 250.259006 198.88107 
L 250.984977 197.537692 
L 251.710949 197.042867 
L 253.162893 194.752276 
L 253.888864 193.896804 
L 254.614836 192.787477 
L 256.792751 190.059442 
L 257.518723 189.556431 
L 258.244695 188.345656 
L 259.696638 185.191929 
L 260.42261 183.438942 
L 261.148581 182.284271 
L 262.600525 182.170657 
L 263.326496 181.566815 
L 264.052468 181.331504 
L 264.77844 182.0392 
L 265.504412 180.71967 
L 266.230383 181.864435 
L 267.682327 182.427562 
L 268.408298 183.089039 
L 269.13427 184.062303 
L 269.860242 184.391317 
L 270.586213 185.899592 
L 271.312185 186.852879 
L 272.764129 188.259443 
L 273.4901 190.311769 
L 274.216072 189.83908 
L 274.942044 189.993161 
L 275.668015 191.183441 
L 276.393987 191.506536 
L 277.119959 192.219448 
L 277.84593 193.098744 
L 278.571902 193.746939 
L 279.297874 194.643173 
L 280.749817 197.91931 
L 283.653704 202.618429 
L 284.379676 202.806109 
L 285.831619 204.879951 
L 286.557591 205.387371 
L 287.283563 206.588241 
L 288.735506 208.225498 
L 290.187449 210.432692 
L 290.913421 211.121883 
L 291.639393 212.082045 
L 292.365365 212.756576 
L 293.091336 213.962327 
L 294.54328 215.496599 
L 295.269251 215.510788 
L 295.995223 216.039488 
L 296.721195 216.027957 
L 297.447166 216.351675 
L 298.173138 216.273286 
L 298.89911 216.643234 
L 299.625082 216.666744 
L 300.351053 217.012439 
L 301.077025 216.94634 
L 301.802997 217.276902 
L 303.25494 217.304889 
L 303.980912 217.108807 
L 304.706883 217.041747 
L 306.158827 216.492334 
L 306.884799 215.556679 
L 307.61077 216.796649 
L 308.336742 215.635311 
L 309.062714 215.107525 
L 309.788685 213.922967 
L 310.514657 213.06916 
L 311.240629 211.536057 
L 311.966601 211.064109 
L 312.692572 210.102162 
L 313.418544 208.850655 
L 314.144516 208.518146 
L 314.870487 208.046714 
L 317.048402 205.181731 
L 317.774374 204.117591 
L 319.226318 202.563921 
L 319.952289 201.128302 
L 320.678261 199.996489 
L 321.404233 199.087892 
L 322.130204 197.816593 
L 322.856176 196.118032 
L 323.582148 195.297778 
L 324.308119 194.696442 
L 325.034091 192.90032 
L 326.486035 190.248194 
L 327.212006 189.402121 
L 327.937978 188.201902 
L 328.66395 187.679917 
L 329.389921 187.563387 
L 330.115893 187.070401 
L 330.841865 185.055947 
L 331.567836 184.01804 
L 332.293808 184.546477 
L 333.01978 183.946953 
L 333.745752 183.619833 
L 334.471723 182.954438 
L 335.197695 182.773824 
L 335.923667 182.198574 
L 336.649638 183.490303 
L 337.37561 183.260516 
L 338.101582 182.169076 
L 338.827554 183.009755 
L 339.553525 181.929905 
L 340.279497 181.96967 
L 341.73144 183.841068 
L 342.457412 183.349461 
L 343.183384 184.87655 
L 343.909355 186.020793 
L 344.635327 187.403195 
L 345.361299 188.100576 
L 346.087271 188.222127 
L 346.813242 188.140431 
L 348.265186 190.981543 
L 348.991157 191.710813 
L 349.717129 191.854422 
L 350.443101 193.666918 
L 351.895044 194.873344 
L 352.621016 196.850566 
L 353.346988 197.455497 
L 354.072959 199.170139 
L 354.798931 200.137277 
L 356.250874 202.75549 
L 359.154761 207.416926 
L 359.880733 208.467966 
L 360.606705 208.999005 
L 361.332676 209.743949 
L 362.058648 211.439206 
L 362.78462 211.836205 
L 363.510591 213.320371 
L 364.962535 214.806917 
L 366.414478 216.620921 
L 367.14045 217.317177 
L 367.866422 217.392662 
L 368.592393 218.712372 
L 370.770308 220.607812 
L 371.49628 221.305431 
L 372.222252 221.819208 
L 375.126139 223.329672 
L 375.85211 224.148101 
L 376.578082 224.537895 
L 378.030025 226.234138 
L 378.755997 226.676306 
L 379.481969 227.464828 
L 380.933912 228.259833 
L 381.659884 228.529119 
L 382.385856 229.072952 
L 385.289742 229.838337 
L 386.015714 229.988712 
L 386.741686 229.786878 
L 387.467658 229.791891 
L 388.193629 229.635492 
L 388.919601 229.607953 
L 390.371544 229.373001 
L 391.097516 229.588135 
L 391.823488 229.154849 
L 392.54946 229.068937 
L 393.275431 229.324844 
L 394.001403 228.885619 
L 394.727375 229.030242 
L 396.179318 228.138499 
L 397.631261 227.65971 
L 399.809177 225.995905 
L 401.26112 224.56412 
L 401.987092 224.111769 
L 402.713063 223.438774 
L 403.439035 222.592103 
L 405.61695 219.165575 
L 409.246809 212.526299 
L 416.506526 195.809436 
L 417.232497 194.639845 
L 418.684441 190.77586 
L 419.410413 189.487718 
L 425.218186 173.415328 
L 425.944158 171.798878 
L 427.396101 168.149541 
L 428.122073 166.435527 
L 429.574016 164.470687 
L 430.299988 163.433747 
L 431.751931 161.893904 
L 432.477903 161.188715 
L 433.203875 160.678028 
L 433.929847 160.317991 
L 435.38179 159.953932 
L 436.107762 160.044407 
L 436.833733 160.2493 
L 439.011648 161.55525 
L 439.73762 162.127876 
L 441.915535 165.675461 
L 442.641507 166.645659 
L 446.271366 173.258644 
L 451.353167 185.352167 
L 452.079139 186.806291 
L 452.805111 188.526938 
L 454.257054 191.47969 
L 458.612884 201.287359 
L 462.242743 207.933072 
L 464.420658 211.429743 
L 468.776488 217.304596 
L 470.954403 219.813747 
L 470.954403 219.813747 
" style="fill:none;stroke:#2ca02c;stroke-linecap:square;stroke-width:1.5;"/>
   </g>
   <g id="line2d_4">
    <path clip-path="url(#p87c1ab85ed)" d="M 65.136222 251.041966 
L 65.862193 250.261873 
L 66.588165 251.039788 
L 67.314137 250.475361 
L 68.76608 250.436061 
L 69.492052 249.98321 
L 70.218024 249.702358 
L 70.943995 248.474664 
L 71.669967 247.895063 
L 72.395939 248.419114 
L 73.12191 248.073636 
L 73.847882 246.390887 
L 74.573854 246.258291 
L 75.299825 245.661492 
L 76.025797 246.112761 
L 76.751769 244.275928 
L 78.203712 243.625281 
L 81.107599 241.149281 
L 81.833571 239.947014 
L 82.559542 239.50198 
L 83.285514 238.446912 
L 84.011486 237.849635 
L 85.463429 238.105324 
L 86.189401 237.724355 
L 86.915373 238.21505 
L 87.641344 237.361651 
L 88.367316 237.252186 
L 89.093288 236.817552 
L 89.819259 236.894433 
L 91.271203 238.263118 
L 92.723146 238.817259 
L 93.449118 239.205289 
L 94.17509 239.266189 
L 94.901061 239.932209 
L 97.804948 240.735831 
L 98.53092 241.908343 
L 99.256892 242.024891 
L 99.982863 243.537482 
L 100.708835 242.465262 
L 101.434807 242.815828 
L 102.160778 241.740104 
L 102.88675 241.686902 
L 103.612722 241.308234 
L 105.790637 238.623539 
L 106.516609 239.458845 
L 107.24258 240.003121 
L 107.968552 239.676489 
L 108.694524 238.468049 
L 109.420495 237.570213 
L 110.146467 237.151968 
L 110.872439 235.840664 
L 111.598411 235.754985 
L 112.324382 235.207744 
L 113.050354 235.398425 
L 113.776326 234.989625 
L 114.502297 234.858591 
L 115.954241 234.378927 
L 116.680212 235.566438 
L 117.406184 236.128155 
L 118.858128 236.494167 
L 119.584099 236.104275 
L 120.310071 234.85753 
L 121.036043 234.879478 
L 121.762014 234.705338 
L 122.487986 233.323285 
L 123.213958 233.119154 
L 124.665901 232.485203 
L 125.391873 231.792601 
L 126.117845 231.471889 
L 126.843816 232.817138 
L 127.569788 231.86623 
L 128.29576 231.825904 
L 129.021731 231.561682 
L 131.199647 231.830818 
L 132.65159 233.645506 
L 133.377562 231.943951 
L 134.103533 232.169227 
L 134.829505 233.334323 
L 135.555477 233.089566 
L 136.281448 232.159094 
L 137.00742 232.138281 
L 137.733392 231.778221 
L 138.459364 231.7196 
L 139.185335 231.797584 
L 139.911307 231.59708 
L 140.637279 230.941047 
L 141.36325 230.950273 
L 142.089222 230.768275 
L 142.815194 230.770754 
L 144.267137 227.673058 
L 144.993109 226.602591 
L 145.719081 225.898103 
L 146.445052 225.492141 
L 147.171024 225.665226 
L 147.896996 224.753678 
L 149.348939 222.203608 
L 150.800883 220.623942 
L 151.526854 220.0295 
L 152.252826 220.471823 
L 152.978798 218.653587 
L 154.430741 217.061493 
L 155.882684 216.886497 
L 156.608656 214.094848 
L 157.334628 213.356786 
L 158.0606 214.696453 
L 159.512543 213.632989 
L 160.238515 211.825879 
L 160.964486 211.078675 
L 161.690458 209.558348 
L 162.41643 209.075756 
L 163.142401 207.340514 
L 164.594345 205.869541 
L 166.046288 204.788428 
L 166.77226 204.396759 
L 167.498232 202.095081 
L 168.224203 201.054749 
L 168.950175 198.853007 
L 169.676147 197.982827 
L 170.402118 198.407859 
L 171.12809 197.892698 
L 171.854062 197.603155 
L 172.580034 197.085317 
L 173.306005 195.125462 
L 174.031977 194.126473 
L 174.757949 191.236899 
L 175.48392 189.15646 
L 176.209892 187.607871 
L 176.935864 187.198526 
L 177.661836 185.989491 
L 178.387807 186.107711 
L 179.113779 184.85467 
L 179.839751 184.123486 
L 180.565722 183.625332 
L 181.291694 181.593438 
L 182.017666 180.771682 
L 182.743637 178.996684 
L 183.469609 178.736361 
L 184.195581 178.094579 
L 184.921553 177.14899 
L 185.647524 176.966323 
L 186.373496 175.754943 
L 187.099468 176.559058 
L 187.825439 176.682468 
L 188.551411 178.437501 
L 189.277383 178.630262 
L 190.003354 179.044445 
L 190.729326 180.341222 
L 191.455298 181.04984 
L 192.907241 182.897496 
L 193.633213 181.995146 
L 194.359185 182.302807 
L 195.811128 183.37728 
L 196.5371 186.419141 
L 197.263071 185.73651 
L 197.989043 188.941462 
L 199.440987 192.98237 
L 200.166958 196.550357 
L 200.89293 199.554203 
L 202.344873 203.181765 
L 203.070845 203.636648 
L 203.796817 204.643839 
L 205.24876 211.249561 
L 205.974732 213.80527 
L 206.700704 215.746535 
L 208.152647 221.668067 
L 208.878619 225.574771 
L 210.330562 229.994786 
L 211.056534 233.117772 
L 213.960421 241.454677 
L 215.412364 244.711683 
L 216.138336 245.373355 
L 216.864307 247.796461 
L 217.590279 248.674375 
L 219.042223 250.906956 
L 220.494166 254.758399 
L 223.398053 258.941834 
L 224.124024 259.140928 
L 225.575968 260.297386 
L 226.30194 260.505485 
L 227.027911 261.093937 
L 227.753883 260.919969 
L 228.479855 261.134393 
L 229.205826 261.168906 
L 229.931798 262.23115 
L 231.383742 262.688968 
L 232.109713 262.394992 
L 232.835685 263.057997 
L 233.561657 263.117625 
L 235.0136 262.384063 
L 235.739572 262.126866 
L 236.465543 262.23111 
L 237.191515 261.104701 
L 237.917487 261.259269 
L 238.643459 260.267244 
L 239.36943 260.049779 
L 240.095402 259.549594 
L 240.821374 258.37165 
L 241.547345 257.845956 
L 242.273317 257.170923 
L 242.999289 256.084995 
L 243.72526 255.485014 
L 245.177204 254.559141 
L 245.903176 254.556916 
L 246.629147 253.437795 
L 247.355119 252.98382 
L 248.081091 252.123379 
L 250.984977 249.659233 
L 251.710949 248.445612 
L 253.162893 247.157282 
L 253.888864 245.983968 
L 254.614836 245.279502 
L 255.340808 244.765723 
L 256.792751 242.198649 
L 257.518723 241.430973 
L 258.244695 240.010252 
L 258.970666 238.241924 
L 260.42261 236.118784 
L 261.148581 234.132155 
L 261.874553 233.924896 
L 263.326496 232.100058 
L 264.052468 231.518606 
L 264.77844 229.479062 
L 265.504412 227.966669 
L 266.230383 226.714577 
L 266.956355 225.980554 
L 267.682327 224.957493 
L 268.408298 224.275875 
L 269.13427 223.858637 
L 269.860242 223.175967 
L 270.586213 223.218317 
L 271.312185 222.957569 
L 272.038157 222.920808 
L 272.764129 221.142655 
L 273.4901 221.569678 
L 274.216072 221.311734 
L 274.942044 219.93892 
L 275.668015 220.269335 
L 276.393987 220.093438 
L 277.84593 220.515506 
L 278.571902 219.452698 
L 279.297874 218.788064 
L 280.023846 219.181304 
L 280.749817 219.853245 
L 281.475789 218.257018 
L 282.201761 217.596483 
L 282.927732 217.497703 
L 283.653704 217.093556 
L 285.831619 216.481592 
L 288.735506 215.378252 
L 290.187449 215.508943 
L 290.913421 215.447781 
L 291.639393 215.54366 
L 292.365365 215.41758 
L 293.091336 215.683658 
L 293.817308 215.666551 
L 296.721195 216.441121 
L 297.447166 216.453507 
L 298.173138 216.3387 
L 299.625082 216.498373 
L 300.351053 215.871671 
L 301.077025 215.960734 
L 301.802997 215.017667 
L 302.528968 215.052943 
L 305.432855 213.785545 
L 306.158827 212.788989 
L 306.884799 212.653163 
L 307.61077 214.060076 
L 308.336742 213.902064 
L 309.062714 214.336571 
L 311.240629 214.60466 
L 311.966601 213.798359 
L 312.692572 214.774283 
L 313.418544 214.338494 
L 314.144516 215.305522 
L 314.870487 215.973438 
L 316.322431 216.741984 
L 317.048402 216.900694 
L 317.774374 217.369657 
L 318.500346 217.028567 
L 320.678261 218.526784 
L 322.130204 219.17113 
L 322.856176 219.757231 
L 323.582148 220.037178 
L 324.308119 221.77518 
L 325.034091 222.150687 
L 326.486035 223.380465 
L 327.212006 224.322686 
L 327.937978 224.904392 
L 328.66395 226.779493 
L 329.389921 228.305493 
L 330.115893 229.301734 
L 330.841865 229.281488 
L 331.567836 230.105426 
L 332.293808 231.876859 
L 333.01978 232.573699 
L 333.745752 234.062688 
L 334.471723 235.037283 
L 335.197695 235.382042 
L 335.923667 236.369952 
L 336.649638 238.356824 
L 338.827554 241.371254 
L 341.005469 244.52355 
L 341.73144 246.065645 
L 342.457412 247.144256 
L 343.183384 248.82968 
L 343.909355 249.611003 
L 344.635327 250.890695 
L 347.539214 254.809199 
L 348.265186 255.634797 
L 349.717129 256.914118 
L 350.443101 257.69394 
L 353.346988 259.739149 
L 355.524903 260.643745 
L 356.976846 261.008593 
L 357.702818 260.938567 
L 358.428789 261.012829 
L 359.154761 260.955119 
L 359.880733 260.773064 
L 362.058648 259.821659 
L 363.510591 258.424522 
L 364.236563 257.803276 
L 367.14045 255.809113 
L 367.866422 255.005255 
L 368.592393 254.869115 
L 369.318365 254.06008 
L 370.044337 253.471014 
L 372.948224 250.34544 
L 375.126139 248.51243 
L 375.85211 248.302511 
L 376.578082 247.085484 
L 377.304054 246.903497 
L 378.030025 246.367753 
L 378.755997 245.210658 
L 380.933912 242.803333 
L 381.659884 241.948754 
L 382.385856 241.525628 
L 383.111827 240.552183 
L 383.837799 239.354937 
L 384.563771 238.596101 
L 385.289742 238.143211 
L 386.015714 237.364384 
L 389.645573 234.444644 
L 390.371544 234.043367 
L 391.097516 233.857608 
L 392.54946 232.909154 
L 393.275431 232.891795 
L 394.001403 232.548317 
L 394.727375 232.539797 
L 396.179318 232.109939 
L 397.631261 232.236702 
L 399.083205 232.19591 
L 399.809177 232.27384 
L 400.535148 231.780945 
L 401.26112 231.586467 
L 401.987092 231.786515 
L 403.439035 231.200492 
L 404.890978 230.095433 
L 408.520837 227.599135 
L 409.246809 227.43902 
L 411.424724 225.474472 
L 412.150695 224.78101 
L 412.876667 224.257206 
L 414.328611 222.72891 
L 415.054582 222.235333 
L 415.780554 222.068558 
L 416.506526 221.235063 
L 417.232497 220.895489 
L 418.684441 219.84261 
L 419.410413 219.471602 
L 420.136384 218.78249 
L 423.766243 216.718079 
L 425.218186 216.060787 
L 425.944158 215.795041 
L 426.67013 215.238814 
L 428.122073 214.555756 
L 431.02596 215.032045 
L 431.751931 215.3534 
L 432.477903 215.541318 
L 433.929847 216.48405 
L 436.107762 218.776231 
L 436.833733 219.20312 
L 437.559705 220.168032 
L 439.011648 221.709239 
L 439.73762 222.180069 
L 441.915535 225.18123 
L 445.545394 229.872924 
L 449.175252 234.749832 
L 452.079139 238.24574 
L 454.257054 240.505747 
L 457.160941 243.205734 
L 458.612884 244.343891 
L 460.7908 245.694666 
L 462.242743 246.399326 
L 464.420658 247.163509 
L 466.598573 247.630908 
L 468.776488 247.79325 
L 470.954403 247.794993 
L 470.954403 247.794993 
" style="fill:none;stroke:#d62728;stroke-linecap:square;stroke-width:1.5;"/>
   </g>
   <g id="line2d_5">
    <path clip-path="url(#p87c1ab85ed)" d="M 65.136222 229.982424 
L 470.954403 229.982424 
L 470.954403 229.982424 
" style="fill:none;stroke:#000000;stroke-dasharray:3.7,1.6;stroke-dashoffset:0;"/>
   </g>
   <g id="matplotlib.axis_1">
    <g id="xtick_1">
     <g id="line2d_6">
      <defs>
       <path d="M 0 0 
L 0 3.5 
" id="m7bd3340684" style="stroke:#000000;stroke-width:0.8;"/>
      </defs>
      <g>
       <use style="stroke:#000000;stroke-width:0.8;" x="86.189401" xlink:href="#m7bd3340684" y="293.784375"/>
      </g>
     </g>
     <g id="text_1">
      <!-- 100 -->
      <defs>
       <path d="M 12.40625 8.296875 
L 28.515625 8.296875 
L 28.515625 63.921875 
L 10.984375 60.40625 
L 10.984375 69.390625 
L 28.421875 72.90625 
L 38.28125 72.90625 
L 38.28125 8.296875 
L 54.390625 8.296875 
L 54.390625 0 
L 12.40625 0 
z
" id="DejaVuSans-49"/>
       <path d="M 31.78125 66.40625 
Q 24.171875 66.40625 20.328125 58.90625 
Q 16.5 51.421875 16.5 36.375 
Q 16.5 21.390625 20.328125 13.890625 
Q 24.171875 6.390625 31.78125 6.390625 
Q 39.453125 6.390625 43.28125 13.890625 
Q 47.125 21.390625 47.125 36.375 
Q 47.125 51.421875 43.28125 58.90625 
Q 39.453125 66.40625 31.78125 66.40625 
z
M 31.78125 74.21875 
Q 44.046875 74.21875 50.515625 64.515625 
Q 56.984375 54.828125 56.984375 36.375 
Q 56.984375 17.96875 50.515625 8.265625 
Q 44.046875 -1.421875 31.78125 -1.421875 
Q 19.53125 -1.421875 13.0625 8.265625 
Q 6.59375 17.96875 6.59375 36.375 
Q 6.59375 54.828125 13.0625 64.515625 
Q 19.53125 74.21875 31.78125 74.21875 
z
" id="DejaVuSans-48"/>
      </defs>
      <g transform="translate(76.645651 308.382812)scale(0.1 -0.1)">
       <use xlink:href="#DejaVuSans-49"/>
       <use x="63.623047" xlink:href="#DejaVuSans-48"/>
       <use x="127.246094" xlink:href="#DejaVuSans-48"/>
      </g>
     </g>
    </g>
    <g id="xtick_2">
     <g id="line2d_7">
      <g>
       <use style="stroke:#000000;stroke-width:0.8;" x="158.786571" xlink:href="#m7bd3340684" y="293.784375"/>
      </g>
     </g>
     <g id="text_2">
      <!-- 200 -->
      <defs>
       <path d="M 19.1875 8.296875 
L 53.609375 8.296875 
L 53.609375 0 
L 7.328125 0 
L 7.328125 8.296875 
Q 12.9375 14.109375 22.625 23.890625 
Q 32.328125 33.6875 34.8125 36.53125 
Q 39.546875 41.84375 41.421875 45.53125 
Q 43.3125 49.21875 43.3125 52.78125 
Q 43.3125 58.59375 39.234375 62.25 
Q 35.15625 65.921875 28.609375 65.921875 
Q 23.96875 65.921875 18.8125 64.3125 
Q 13.671875 62.703125 7.8125 59.421875 
L 7.8125 69.390625 
Q 13.765625 71.78125 18.9375 73 
Q 24.125 74.21875 28.421875 74.21875 
Q 39.75 74.21875 46.484375 68.546875 
Q 53.21875 62.890625 53.21875 53.421875 
Q 53.21875 48.921875 51.53125 44.890625 
Q 49.859375 40.875 45.40625 35.40625 
Q 44.1875 33.984375 37.640625 27.21875 
Q 31.109375 20.453125 19.1875 8.296875 
z
" id="DejaVuSans-50"/>
      </defs>
      <g transform="translate(149.242821 308.382812)scale(0.1 -0.1)">
       <use xlink:href="#DejaVuSans-50"/>
       <use x="63.623047" xlink:href="#DejaVuSans-48"/>
       <use x="127.246094" xlink:href="#DejaVuSans-48"/>
      </g>
     </g>
    </g>
    <g id="xtick_3">
     <g id="line2d_8">
      <g>
       <use style="stroke:#000000;stroke-width:0.8;" x="231.383742" xlink:href="#m7bd3340684" y="293.784375"/>
      </g>
     </g>
     <g id="text_3">
      <!-- 300 -->
      <defs>
       <path d="M 40.578125 39.3125 
Q 47.65625 37.796875 51.625 33 
Q 55.609375 28.21875 55.609375 21.1875 
Q 55.609375 10.40625 48.1875 4.484375 
Q 40.765625 -1.421875 27.09375 -1.421875 
Q 22.515625 -1.421875 17.65625 -0.515625 
Q 12.796875 0.390625 7.625 2.203125 
L 7.625 11.71875 
Q 11.71875 9.328125 16.59375 8.109375 
Q 21.484375 6.890625 26.8125 6.890625 
Q 36.078125 6.890625 40.9375 10.546875 
Q 45.796875 14.203125 45.796875 21.1875 
Q 45.796875 27.640625 41.28125 31.265625 
Q 36.765625 34.90625 28.71875 34.90625 
L 20.21875 34.90625 
L 20.21875 43.015625 
L 29.109375 43.015625 
Q 36.375 43.015625 40.234375 45.921875 
Q 44.09375 48.828125 44.09375 54.296875 
Q 44.09375 59.90625 40.109375 62.90625 
Q 36.140625 65.921875 28.71875 65.921875 
Q 24.65625 65.921875 20.015625 65.03125 
Q 15.375 64.15625 9.8125 62.3125 
L 9.8125 71.09375 
Q 15.4375 72.65625 20.34375 73.4375 
Q 25.25 74.21875 29.59375 74.21875 
Q 40.828125 74.21875 47.359375 69.109375 
Q 53.90625 64.015625 53.90625 55.328125 
Q 53.90625 49.265625 50.4375 45.09375 
Q 46.96875 40.921875 40.578125 39.3125 
z
" id="DejaVuSans-51"/>
      </defs>
      <g transform="translate(221.839992 308.382812)scale(0.1 -0.1)">
       <use xlink:href="#DejaVuSans-51"/>
       <use x="63.623047" xlink:href="#DejaVuSans-48"/>
       <use x="127.246094" xlink:href="#DejaVuSans-48"/>
      </g>
     </g>
    </g>
    <g id="xtick_4">
     <g id="line2d_9">
      <g>
       <use style="stroke:#000000;stroke-width:0.8;" x="303.980912" xlink:href="#m7bd3340684" y="293.784375"/>
      </g>
     </g>
     <g id="text_4">
      <!-- 400 -->
      <defs>
       <path d="M 37.796875 64.3125 
L 12.890625 25.390625 
L 37.796875 25.390625 
z
M 35.203125 72.90625 
L 47.609375 72.90625 
L 47.609375 25.390625 
L 58.015625 25.390625 
L 58.015625 17.1875 
L 47.609375 17.1875 
L 47.609375 0 
L 37.796875 0 
L 37.796875 17.1875 
L 4.890625 17.1875 
L 4.890625 26.703125 
z
" id="DejaVuSans-52"/>
      </defs>
      <g transform="translate(294.437162 308.382812)scale(0.1 -0.1)">
       <use xlink:href="#DejaVuSans-52"/>
       <use x="63.623047" xlink:href="#DejaVuSans-48"/>
       <use x="127.246094" xlink:href="#DejaVuSans-48"/>
      </g>
     </g>
    </g>
    <g id="xtick_5">
     <g id="line2d_10">
      <g>
       <use style="stroke:#000000;stroke-width:0.8;" x="376.578082" xlink:href="#m7bd3340684" y="293.784375"/>
      </g>
     </g>
     <g id="text_5">
      <!-- 500 -->
      <defs>
       <path d="M 10.796875 72.90625 
L 49.515625 72.90625 
L 49.515625 64.59375 
L 19.828125 64.59375 
L 19.828125 46.734375 
Q 21.96875 47.46875 24.109375 47.828125 
Q 26.265625 48.1875 28.421875 48.1875 
Q 40.625 48.1875 47.75 41.5 
Q 54.890625 34.8125 54.890625 23.390625 
Q 54.890625 11.625 47.5625 5.09375 
Q 40.234375 -1.421875 26.90625 -1.421875 
Q 22.3125 -1.421875 17.546875 -0.640625 
Q 12.796875 0.140625 7.71875 1.703125 
L 7.71875 11.625 
Q 12.109375 9.234375 16.796875 8.0625 
Q 21.484375 6.890625 26.703125 6.890625 
Q 35.15625 6.890625 40.078125 11.328125 
Q 45.015625 15.765625 45.015625 23.390625 
Q 45.015625 31 40.078125 35.4375 
Q 35.15625 39.890625 26.703125 39.890625 
Q 22.75 39.890625 18.8125 39.015625 
Q 14.890625 38.140625 10.796875 36.28125 
z
" id="DejaVuSans-53"/>
      </defs>
      <g transform="translate(367.034332 308.382812)scale(0.1 -0.1)">
       <use xlink:href="#DejaVuSans-53"/>
       <use x="63.623047" xlink:href="#DejaVuSans-48"/>
       <use x="127.246094" xlink:href="#DejaVuSans-48"/>
      </g>
     </g>
    </g>
    <g id="xtick_6">
     <g id="line2d_11">
      <g>
       <use style="stroke:#000000;stroke-width:0.8;" x="449.175252" xlink:href="#m7bd3340684" y="293.784375"/>
      </g>
     </g>
     <g id="text_6">
      <!-- 600 -->
      <defs>
       <path d="M 33.015625 40.375 
Q 26.375 40.375 22.484375 35.828125 
Q 18.609375 31.296875 18.609375 23.390625 
Q 18.609375 15.53125 22.484375 10.953125 
Q 26.375 6.390625 33.015625 6.390625 
Q 39.65625 6.390625 43.53125 10.953125 
Q 47.40625 15.53125 47.40625 23.390625 
Q 47.40625 31.296875 43.53125 35.828125 
Q 39.65625 40.375 33.015625 40.375 
z
M 52.59375 71.296875 
L 52.59375 62.3125 
Q 48.875 64.0625 45.09375 64.984375 
Q 41.3125 65.921875 37.59375 65.921875 
Q 27.828125 65.921875 22.671875 59.328125 
Q 17.53125 52.734375 16.796875 39.40625 
Q 19.671875 43.65625 24.015625 45.921875 
Q 28.375 48.1875 33.59375 48.1875 
Q 44.578125 48.1875 50.953125 41.515625 
Q 57.328125 34.859375 57.328125 23.390625 
Q 57.328125 12.15625 50.6875 5.359375 
Q 44.046875 -1.421875 33.015625 -1.421875 
Q 20.359375 -1.421875 13.671875 8.265625 
Q 6.984375 17.96875 6.984375 36.375 
Q 6.984375 53.65625 15.1875 63.9375 
Q 23.390625 74.21875 37.203125 74.21875 
Q 40.921875 74.21875 44.703125 73.484375 
Q 48.484375 72.75 52.59375 71.296875 
z
" id="DejaVuSans-54"/>
      </defs>
      <g transform="translate(439.631502 308.382812)scale(0.1 -0.1)">
       <use xlink:href="#DejaVuSans-54"/>
       <use x="63.623047" xlink:href="#DejaVuSans-48"/>
       <use x="127.246094" xlink:href="#DejaVuSans-48"/>
      </g>
     </g>
    </g>
    <g id="text_7">
     <!-- Tempo -->
     <defs>
      <path d="M -0.296875 72.90625 
L 61.375 72.90625 
L 61.375 64.59375 
L 35.5 64.59375 
L 35.5 0 
L 25.59375 0 
L 25.59375 64.59375 
L -0.296875 64.59375 
z
" id="DejaVuSans-84"/>
      <path d="M 56.203125 29.59375 
L 56.203125 25.203125 
L 14.890625 25.203125 
Q 15.484375 15.921875 20.484375 11.0625 
Q 25.484375 6.203125 34.421875 6.203125 
Q 39.59375 6.203125 44.453125 7.46875 
Q 49.3125 8.734375 54.109375 11.28125 
L 54.109375 2.78125 
Q 49.265625 0.734375 44.1875 -0.34375 
Q 39.109375 -1.421875 33.890625 -1.421875 
Q 20.796875 -1.421875 13.15625 6.1875 
Q 5.515625 13.8125 5.515625 26.8125 
Q 5.515625 40.234375 12.765625 48.109375 
Q 20.015625 56 32.328125 56 
Q 43.359375 56 49.78125 48.890625 
Q 56.203125 41.796875 56.203125 29.59375 
z
M 47.21875 32.234375 
Q 47.125 39.59375 43.09375 43.984375 
Q 39.0625 48.390625 32.421875 48.390625 
Q 24.90625 48.390625 20.390625 44.140625 
Q 15.875 39.890625 15.1875 32.171875 
z
" id="DejaVuSans-101"/>
      <path d="M 52 44.1875 
Q 55.375 50.25 60.0625 53.125 
Q 64.75 56 71.09375 56 
Q 79.640625 56 84.28125 50.015625 
Q 88.921875 44.046875 88.921875 33.015625 
L 88.921875 0 
L 79.890625 0 
L 79.890625 32.71875 
Q 79.890625 40.578125 77.09375 44.375 
Q 74.3125 48.1875 68.609375 48.1875 
Q 61.625 48.1875 57.5625 43.546875 
Q 53.515625 38.921875 53.515625 30.90625 
L 53.515625 0 
L 44.484375 0 
L 44.484375 32.71875 
Q 44.484375 40.625 41.703125 44.40625 
Q 38.921875 48.1875 33.109375 48.1875 
Q 26.21875 48.1875 22.15625 43.53125 
Q 18.109375 38.875 18.109375 30.90625 
L 18.109375 0 
L 9.078125 0 
L 9.078125 54.6875 
L 18.109375 54.6875 
L 18.109375 46.1875 
Q 21.1875 51.21875 25.484375 53.609375 
Q 29.78125 56 35.6875 56 
Q 41.65625 56 45.828125 52.96875 
Q 50 49.953125 52 44.1875 
z
" id="DejaVuSans-109"/>
      <path d="M 18.109375 8.203125 
L 18.109375 -20.796875 
L 9.078125 -20.796875 
L 9.078125 54.6875 
L 18.109375 54.6875 
L 18.109375 46.390625 
Q 20.953125 51.265625 25.265625 53.625 
Q 29.59375 56 35.59375 56 
Q 45.5625 56 51.78125 48.09375 
Q 58.015625 40.1875 58.015625 27.296875 
Q 58.015625 14.40625 51.78125 6.484375 
Q 45.5625 -1.421875 35.59375 -1.421875 
Q 29.59375 -1.421875 25.265625 0.953125 
Q 20.953125 3.328125 18.109375 8.203125 
z
M 48.6875 27.296875 
Q 48.6875 37.203125 44.609375 42.84375 
Q 40.53125 48.484375 33.40625 48.484375 
Q 26.265625 48.484375 22.1875 42.84375 
Q 18.109375 37.203125 18.109375 27.296875 
Q 18.109375 17.390625 22.1875 11.75 
Q 26.265625 6.109375 33.40625 6.109375 
Q 40.53125 6.109375 44.609375 11.75 
Q 48.6875 17.390625 48.6875 27.296875 
z
" id="DejaVuSans-112"/>
      <path d="M 30.609375 48.390625 
Q 23.390625 48.390625 19.1875 42.75 
Q 14.984375 37.109375 14.984375 27.296875 
Q 14.984375 17.484375 19.15625 11.84375 
Q 23.34375 6.203125 30.609375 6.203125 
Q 37.796875 6.203125 41.984375 11.859375 
Q 46.1875 17.53125 46.1875 27.296875 
Q 46.1875 37.015625 41.984375 42.703125 
Q 37.796875 48.390625 30.609375 48.390625 
z
M 30.609375 56 
Q 42.328125 56 49.015625 48.375 
Q 55.71875 40.765625 55.71875 27.296875 
Q 55.71875 13.875 49.015625 6.21875 
Q 42.328125 -1.421875 30.609375 -1.421875 
Q 18.84375 -1.421875 12.171875 6.21875 
Q 5.515625 13.875 5.515625 27.296875 
Q 5.515625 40.765625 12.171875 48.375 
Q 18.84375 56 30.609375 56 
z
" id="DejaVuSans-111"/>
     </defs>
     <g transform="translate(251.660938 322.060937)scale(0.1 -0.1)">
      <use xlink:href="#DejaVuSans-84"/>
      <use x="44.083984" xlink:href="#DejaVuSans-101"/>
      <use x="105.607422" xlink:href="#DejaVuSans-109"/>
      <use x="203.019531" xlink:href="#DejaVuSans-112"/>
      <use x="266.496094" xlink:href="#DejaVuSans-111"/>
     </g>
    </g>
   </g>
   <g id="matplotlib.axis_2">
    <g id="ytick_1">
     <g id="line2d_12">
      <defs>
       <path d="M 0 0 
L -3.5 0 
" id="m0c81d9de60" style="stroke:#000000;stroke-width:0.8;"/>
      </defs>
      <g>
       <use style="stroke:#000000;stroke-width:0.8;" x="44.845313" xlink:href="#m0c81d9de60" y="291.424621"/>
      </g>
     </g>
     <g id="text_8">
      <!-- 0.50 -->
      <defs>
       <path d="M 10.59375 35.5 
L 73.1875 35.5 
L 73.1875 27.203125 
L 10.59375 27.203125 
z
" id="DejaVuSans-8722"/>
       <path d="M 10.6875 12.40625 
L 21 12.40625 
L 21 0 
L 10.6875 0 
z
" id="DejaVuSans-46"/>
      </defs>
      <g transform="translate(7.2 295.22384)scale(0.1 -0.1)">
       <use xlink:href="#DejaVuSans-8722"/>
       <use x="83.789062" xlink:href="#DejaVuSans-48"/>
       <use x="147.412109" xlink:href="#DejaVuSans-46"/>
       <use x="179.199219" xlink:href="#DejaVuSans-53"/>
       <use x="242.822266" xlink:href="#DejaVuSans-48"/>
      </g>
     </g>
    </g>
    <g id="ytick_2">
     <g id="line2d_13">
      <g>
       <use style="stroke:#000000;stroke-width:0.8;" x="44.845313" xlink:href="#m0c81d9de60" y="260.703523"/>
      </g>
     </g>
     <g id="text_9">
      <!-- 0.25 -->
      <g transform="translate(7.2 264.502741)scale(0.1 -0.1)">
       <use xlink:href="#DejaVuSans-8722"/>
       <use x="83.789062" xlink:href="#DejaVuSans-48"/>
       <use x="147.412109" xlink:href="#DejaVuSans-46"/>
       <use x="179.199219" xlink:href="#DejaVuSans-50"/>
       <use x="242.822266" xlink:href="#DejaVuSans-53"/>
      </g>
     </g>
    </g>
    <g id="ytick_3">
     <g id="line2d_14">
      <g>
       <use style="stroke:#000000;stroke-width:0.8;" x="44.845313" xlink:href="#m0c81d9de60" y="229.982424"/>
      </g>
     </g>
     <g id="text_10">
      <!-- 0.00 -->
      <g transform="translate(15.579688 233.781643)scale(0.1 -0.1)">
       <use xlink:href="#DejaVuSans-48"/>
       <use x="63.623047" xlink:href="#DejaVuSans-46"/>
       <use x="95.410156" xlink:href="#DejaVuSans-48"/>
       <use x="159.033203" xlink:href="#DejaVuSans-48"/>
      </g>
     </g>
    </g>
    <g id="ytick_4">
     <g id="line2d_15">
      <g>
       <use style="stroke:#000000;stroke-width:0.8;" x="44.845313" xlink:href="#m0c81d9de60" y="199.261326"/>
      </g>
     </g>
     <g id="text_11">
      <!-- 0.25 -->
      <g transform="translate(15.579688 203.060545)scale(0.1 -0.1)">
       <use xlink:href="#DejaVuSans-48"/>
       <use x="63.623047" xlink:href="#DejaVuSans-46"/>
       <use x="95.410156" xlink:href="#DejaVuSans-50"/>
       <use x="159.033203" xlink:href="#DejaVuSans-53"/>
      </g>
     </g>
    </g>
    <g id="ytick_5">
     <g id="line2d_16">
      <g>
       <use style="stroke:#000000;stroke-width:0.8;" x="44.845313" xlink:href="#m0c81d9de60" y="168.540227"/>
      </g>
     </g>
     <g id="text_12">
      <!-- 0.50 -->
      <g transform="translate(15.579688 172.339446)scale(0.1 -0.1)">
       <use xlink:href="#DejaVuSans-48"/>
       <use x="63.623047" xlink:href="#DejaVuSans-46"/>
       <use x="95.410156" xlink:href="#DejaVuSans-53"/>
       <use x="159.033203" xlink:href="#DejaVuSans-48"/>
      </g>
     </g>
    </g>
    <g id="ytick_6">
     <g id="line2d_17">
      <g>
       <use style="stroke:#000000;stroke-width:0.8;" x="44.845313" xlink:href="#m0c81d9de60" y="137.819129"/>
      </g>
     </g>
     <g id="text_13">
      <!-- 0.75 -->
      <defs>
       <path d="M 8.203125 72.90625 
L 55.078125 72.90625 
L 55.078125 68.703125 
L 28.609375 0 
L 18.3125 0 
L 43.21875 64.59375 
L 8.203125 64.59375 
z
" id="DejaVuSans-55"/>
      </defs>
      <g transform="translate(15.579688 141.618348)scale(0.1 -0.1)">
       <use xlink:href="#DejaVuSans-48"/>
       <use x="63.623047" xlink:href="#DejaVuSans-46"/>
       <use x="95.410156" xlink:href="#DejaVuSans-55"/>
       <use x="159.033203" xlink:href="#DejaVuSans-53"/>
      </g>
     </g>
    </g>
    <g id="ytick_7">
     <g id="line2d_18">
      <g>
       <use style="stroke:#000000;stroke-width:0.8;" x="44.845313" xlink:href="#m0c81d9de60" y="107.09803"/>
      </g>
     </g>
     <g id="text_14">
      <!-- 1.00 -->
      <g transform="translate(15.579688 110.897249)scale(0.1 -0.1)">
       <use xlink:href="#DejaVuSans-49"/>
       <use x="63.623047" xlink:href="#DejaVuSans-46"/>
       <use x="95.410156" xlink:href="#DejaVuSans-48"/>
       <use x="159.033203" xlink:href="#DejaVuSans-48"/>
      </g>
     </g>
    </g>
    <g id="ytick_8">
     <g id="line2d_19">
      <g>
       <use style="stroke:#000000;stroke-width:0.8;" x="44.845313" xlink:href="#m0c81d9de60" y="76.376932"/>
      </g>
     </g>
     <g id="text_15">
      <!-- 1.25 -->
      <g transform="translate(15.579688 80.176151)scale(0.1 -0.1)">
       <use xlink:href="#DejaVuSans-49"/>
       <use x="63.623047" xlink:href="#DejaVuSans-46"/>
       <use x="95.410156" xlink:href="#DejaVuSans-50"/>
       <use x="159.033203" xlink:href="#DejaVuSans-53"/>
      </g>
     </g>
    </g>
    <g id="ytick_9">
     <g id="line2d_20">
      <g>
       <use style="stroke:#000000;stroke-width:0.8;" x="44.845313" xlink:href="#m0c81d9de60" y="45.655834"/>
      </g>
     </g>
     <g id="text_16">
      <!-- 1.50 -->
      <g transform="translate(15.579688 49.455052)scale(0.1 -0.1)">
       <use xlink:href="#DejaVuSans-49"/>
       <use x="63.623047" xlink:href="#DejaVuSans-46"/>
       <use x="95.410156" xlink:href="#DejaVuSans-53"/>
       <use x="159.033203" xlink:href="#DejaVuSans-48"/>
      </g>
     </g>
    </g>
   </g>
   <g id="patch_3">
    <path d="M 44.845313 293.784375 
L 44.845313 21.984375 
" style="fill:none;stroke:#000000;stroke-linecap:square;stroke-linejoin:miter;stroke-width:0.8;"/>
   </g>
   <g id="patch_4">
    <path d="M 44.845313 293.784375 
L 491.245312 293.784375 
" style="fill:none;stroke:#000000;stroke-linecap:square;stroke-linejoin:miter;stroke-width:0.8;"/>
   </g>
   <g id="text_17">
    <!-- K_t -->
    <defs>
     <path d="M 9.8125 72.90625 
L 19.671875 72.90625 
L 19.671875 42.09375 
L 52.390625 72.90625 
L 65.09375 72.90625 
L 28.90625 38.921875 
L 67.671875 0 
L 54.6875 0 
L 19.671875 35.109375 
L 19.671875 0 
L 9.8125 0 
z
" id="DejaVuSans-75"/>
     <path d="M 50.984375 -16.609375 
L 50.984375 -23.578125 
L -0.984375 -23.578125 
L -0.984375 -16.609375 
z
" id="DejaVuSans-95"/>
     <path d="M 18.3125 70.21875 
L 18.3125 54.6875 
L 36.8125 54.6875 
L 36.8125 47.703125 
L 18.3125 47.703125 
L 18.3125 18.015625 
Q 18.3125 11.328125 20.140625 9.421875 
Q 21.96875 7.515625 27.59375 7.515625 
L 36.8125 7.515625 
L 36.8125 0 
L 27.59375 0 
Q 17.1875 0 13.234375 3.875 
Q 9.28125 7.765625 9.28125 18.015625 
L 9.28125 47.703125 
L 2.6875 47.703125 
L 2.6875 54.6875 
L 9.28125 54.6875 
L 9.28125 70.21875 
z
" id="DejaVuSans-116"/>
    </defs>
    <g transform="translate(258.758438 15.984375)scale(0.12 -0.12)">
     <use xlink:href="#DejaVuSans-75"/>
     <use x="65.576172" xlink:href="#DejaVuSans-95"/>
     <use x="115.576172" xlink:href="#DejaVuSans-116"/>
    </g>
   </g>
   <g id="legend_1">
    <g id="patch_5">
     <path d="M 498.245312 196.079688 
L 631.804688 196.079688 
Q 633.804688 196.079688 633.804688 194.079688 
L 633.804688 121.689063 
Q 633.804688 119.689063 631.804688 119.689063 
L 498.245312 119.689063 
Q 496.245312 119.689063 496.245312 121.689063 
L 496.245312 194.079688 
Q 496.245312 196.079688 498.245312 196.079688 
z
" style="fill:#ffffff;opacity:0.8;stroke:#cccccc;stroke-linejoin:miter;"/>
    </g>
    <g id="line2d_21">
     <path d="M 500.245312 127.7875 
L 520.245312 127.7875 
" style="fill:none;stroke:#000000;stroke-dasharray:3.7,1.6;stroke-dashoffset:0;"/>
    </g>
    <g id="line2d_22"/>
    <g id="text_18">
     <!-- Baseline -->
     <defs>
      <path d="M 19.671875 34.8125 
L 19.671875 8.109375 
L 35.5 8.109375 
Q 43.453125 8.109375 47.28125 11.40625 
Q 51.125 14.703125 51.125 21.484375 
Q 51.125 28.328125 47.28125 31.5625 
Q 43.453125 34.8125 35.5 34.8125 
z
M 19.671875 64.796875 
L 19.671875 42.828125 
L 34.28125 42.828125 
Q 41.5 42.828125 45.03125 45.53125 
Q 48.578125 48.25 48.578125 53.8125 
Q 48.578125 59.328125 45.03125 62.0625 
Q 41.5 64.796875 34.28125 64.796875 
z
M 9.8125 72.90625 
L 35.015625 72.90625 
Q 46.296875 72.90625 52.390625 68.21875 
Q 58.5 63.53125 58.5 54.890625 
Q 58.5 48.1875 55.375 44.234375 
Q 52.25 40.28125 46.1875 39.3125 
Q 53.46875 37.75 57.5 32.78125 
Q 61.53125 27.828125 61.53125 20.40625 
Q 61.53125 10.640625 54.890625 5.3125 
Q 48.25 0 35.984375 0 
L 9.8125 0 
z
" id="DejaVuSans-66"/>
      <path d="M 34.28125 27.484375 
Q 23.390625 27.484375 19.1875 25 
Q 14.984375 22.515625 14.984375 16.5 
Q 14.984375 11.71875 18.140625 8.90625 
Q 21.296875 6.109375 26.703125 6.109375 
Q 34.1875 6.109375 38.703125 11.40625 
Q 43.21875 16.703125 43.21875 25.484375 
L 43.21875 27.484375 
z
M 52.203125 31.203125 
L 52.203125 0 
L 43.21875 0 
L 43.21875 8.296875 
Q 40.140625 3.328125 35.546875 0.953125 
Q 30.953125 -1.421875 24.3125 -1.421875 
Q 15.921875 -1.421875 10.953125 3.296875 
Q 6 8.015625 6 15.921875 
Q 6 25.140625 12.171875 29.828125 
Q 18.359375 34.515625 30.609375 34.515625 
L 43.21875 34.515625 
L 43.21875 35.40625 
Q 43.21875 41.609375 39.140625 45 
Q 35.0625 48.390625 27.6875 48.390625 
Q 23 48.390625 18.546875 47.265625 
Q 14.109375 46.140625 10.015625 43.890625 
L 10.015625 52.203125 
Q 14.9375 54.109375 19.578125 55.046875 
Q 24.21875 56 28.609375 56 
Q 40.484375 56 46.34375 49.84375 
Q 52.203125 43.703125 52.203125 31.203125 
z
" id="DejaVuSans-97"/>
      <path d="M 44.28125 53.078125 
L 44.28125 44.578125 
Q 40.484375 46.53125 36.375 47.5 
Q 32.28125 48.484375 27.875 48.484375 
Q 21.1875 48.484375 17.84375 46.4375 
Q 14.5 44.390625 14.5 40.28125 
Q 14.5 37.15625 16.890625 35.375 
Q 19.28125 33.59375 26.515625 31.984375 
L 29.59375 31.296875 
Q 39.15625 29.25 43.1875 25.515625 
Q 47.21875 21.78125 47.21875 15.09375 
Q 47.21875 7.46875 41.1875 3.015625 
Q 35.15625 -1.421875 24.609375 -1.421875 
Q 20.21875 -1.421875 15.453125 -0.5625 
Q 10.6875 0.296875 5.421875 2 
L 5.421875 11.28125 
Q 10.40625 8.6875 15.234375 7.390625 
Q 20.0625 6.109375 24.8125 6.109375 
Q 31.15625 6.109375 34.5625 8.28125 
Q 37.984375 10.453125 37.984375 14.40625 
Q 37.984375 18.0625 35.515625 20.015625 
Q 33.0625 21.96875 24.703125 23.78125 
L 21.578125 24.515625 
Q 13.234375 26.265625 9.515625 29.90625 
Q 5.8125 33.546875 5.8125 39.890625 
Q 5.8125 47.609375 11.28125 51.796875 
Q 16.75 56 26.8125 56 
Q 31.78125 56 36.171875 55.265625 
Q 40.578125 54.546875 44.28125 53.078125 
z
" id="DejaVuSans-115"/>
      <path d="M 9.421875 75.984375 
L 18.40625 75.984375 
L 18.40625 0 
L 9.421875 0 
z
" id="DejaVuSans-108"/>
      <path d="M 9.421875 54.6875 
L 18.40625 54.6875 
L 18.40625 0 
L 9.421875 0 
z
M 9.421875 75.984375 
L 18.40625 75.984375 
L 18.40625 64.59375 
L 9.421875 64.59375 
z
" id="DejaVuSans-105"/>
      <path d="M 54.890625 33.015625 
L 54.890625 0 
L 45.90625 0 
L 45.90625 32.71875 
Q 45.90625 40.484375 42.875 44.328125 
Q 39.84375 48.1875 33.796875 48.1875 
Q 26.515625 48.1875 22.3125 43.546875 
Q 18.109375 38.921875 18.109375 30.90625 
L 18.109375 0 
L 9.078125 0 
L 9.078125 54.6875 
L 18.109375 54.6875 
L 18.109375 46.1875 
Q 21.34375 51.125 25.703125 53.5625 
Q 30.078125 56 35.796875 56 
Q 45.21875 56 50.046875 50.171875 
Q 54.890625 44.34375 54.890625 33.015625 
z
" id="DejaVuSans-110"/>
     </defs>
     <g transform="translate(528.245312 131.2875)scale(0.1 -0.1)">
      <use xlink:href="#DejaVuSans-66"/>
      <use x="68.603516" xlink:href="#DejaVuSans-97"/>
      <use x="129.882812" xlink:href="#DejaVuSans-115"/>
      <use x="181.982422" xlink:href="#DejaVuSans-101"/>
      <use x="243.505859" xlink:href="#DejaVuSans-108"/>
      <use x="271.289062" xlink:href="#DejaVuSans-105"/>
      <use x="299.072266" xlink:href="#DejaVuSans-110"/>
      <use x="362.451172" xlink:href="#DejaVuSans-101"/>
     </g>
    </g>
    <g id="line2d_23">
     <path d="M 500.245312 142.465625 
L 520.245312 142.465625 
" style="fill:none;stroke:#1f77b4;stroke-linecap:square;stroke-width:1.5;"/>
    </g>
    <g id="line2d_24"/>
    <g id="text_19">
     <!-- $\Uparrow$ acesso crdito -->
     <defs>
      <path d="M 36.765625 58.59375 
L 36.765625 0 
L 30.90625 0 
L 30.90625 52.734375 
L 26.421875 48.140625 
L 20.5625 54 
L 39.703125 73.25 
L 44.09375 73.25 
L 63.328125 54 
L 57.46875 48.140625 
L 52.875 52.734375 
L 52.875 0 
L 47.015625 0 
L 47.015625 58.59375 
L 41.9375 63.671875 
z
" id="DejaVuSans-8657"/>
      <path id="DejaVuSans-32"/>
      <path d="M 48.78125 52.59375 
L 48.78125 44.1875 
Q 44.96875 46.296875 41.140625 47.34375 
Q 37.3125 48.390625 33.40625 48.390625 
Q 24.65625 48.390625 19.8125 42.84375 
Q 14.984375 37.3125 14.984375 27.296875 
Q 14.984375 17.28125 19.8125 11.734375 
Q 24.65625 6.203125 33.40625 6.203125 
Q 37.3125 6.203125 41.140625 7.25 
Q 44.96875 8.296875 48.78125 10.40625 
L 48.78125 2.09375 
Q 45.015625 0.34375 40.984375 -0.53125 
Q 36.96875 -1.421875 32.421875 -1.421875 
Q 20.0625 -1.421875 12.78125 6.34375 
Q 5.515625 14.109375 5.515625 27.296875 
Q 5.515625 40.671875 12.859375 48.328125 
Q 20.21875 56 33.015625 56 
Q 37.15625 56 41.109375 55.140625 
Q 45.0625 54.296875 48.78125 52.59375 
z
" id="DejaVuSans-99"/>
      <path d="M 41.109375 46.296875 
Q 39.59375 47.171875 37.8125 47.578125 
Q 36.03125 48 33.890625 48 
Q 26.265625 48 22.1875 43.046875 
Q 18.109375 38.09375 18.109375 28.8125 
L 18.109375 0 
L 9.078125 0 
L 9.078125 54.6875 
L 18.109375 54.6875 
L 18.109375 46.1875 
Q 20.953125 51.171875 25.484375 53.578125 
Q 30.03125 56 36.53125 56 
Q 37.453125 56 38.578125 55.875 
Q 39.703125 55.765625 41.0625 55.515625 
z
" id="DejaVuSans-114"/>
      <path d="M 56.203125 29.59375 
L 56.203125 25.203125 
L 14.890625 25.203125 
Q 15.484375 15.921875 20.484375 11.0625 
Q 25.484375 6.203125 34.421875 6.203125 
Q 39.59375 6.203125 44.453125 7.46875 
Q 49.3125 8.734375 54.109375 11.28125 
L 54.109375 2.78125 
Q 49.265625 0.734375 44.1875 -0.34375 
Q 39.109375 -1.421875 33.890625 -1.421875 
Q 20.796875 -1.421875 13.15625 6.1875 
Q 5.515625 13.8125 5.515625 26.8125 
Q 5.515625 40.234375 12.765625 48.109375 
Q 20.015625 56 32.328125 56 
Q 43.359375 56 49.78125 48.890625 
Q 56.203125 41.796875 56.203125 29.59375 
z
M 47.21875 32.234375 
Q 47.125 39.59375 43.09375 43.984375 
Q 39.0625 48.390625 32.421875 48.390625 
Q 24.90625 48.390625 20.390625 44.140625 
Q 15.875 39.890625 15.1875 32.171875 
z
M 38.53125 79.984375 
L 48.25 79.984375 
L 32.34375 61.625 
L 24.859375 61.625 
z
" id="DejaVuSans-233"/>
      <path d="M 45.40625 46.390625 
L 45.40625 75.984375 
L 54.390625 75.984375 
L 54.390625 0 
L 45.40625 0 
L 45.40625 8.203125 
Q 42.578125 3.328125 38.25 0.953125 
Q 33.9375 -1.421875 27.875 -1.421875 
Q 17.96875 -1.421875 11.734375 6.484375 
Q 5.515625 14.40625 5.515625 27.296875 
Q 5.515625 40.1875 11.734375 48.09375 
Q 17.96875 56 27.875 56 
Q 33.9375 56 38.25 53.625 
Q 42.578125 51.265625 45.40625 46.390625 
z
M 14.796875 27.296875 
Q 14.796875 17.390625 18.875 11.75 
Q 22.953125 6.109375 30.078125 6.109375 
Q 37.203125 6.109375 41.296875 11.75 
Q 45.40625 17.390625 45.40625 27.296875 
Q 45.40625 37.203125 41.296875 42.84375 
Q 37.203125 48.484375 30.078125 48.484375 
Q 22.953125 48.484375 18.875 42.84375 
Q 14.796875 37.203125 14.796875 27.296875 
z
" id="DejaVuSans-100"/>
     </defs>
     <g transform="translate(528.245312 145.965625)scale(0.1 -0.1)">
      <use transform="translate(19.482422 0.015625)" xlink:href="#DejaVuSans-8657"/>
      <use transform="translate(122.753906 0.015625)" xlink:href="#DejaVuSans-32"/>
      <use transform="translate(154.541016 0.015625)" xlink:href="#DejaVuSans-97"/>
      <use transform="translate(215.820312 0.015625)" xlink:href="#DejaVuSans-99"/>
      <use transform="translate(270.800781 0.015625)" xlink:href="#DejaVuSans-101"/>
      <use transform="translate(332.324219 0.015625)" xlink:href="#DejaVuSans-115"/>
      <use transform="translate(384.423828 0.015625)" xlink:href="#DejaVuSans-115"/>
      <use transform="translate(436.523438 0.015625)" xlink:href="#DejaVuSans-111"/>
      <use transform="translate(497.705078 0.015625)" xlink:href="#DejaVuSans-32"/>
      <use transform="translate(529.492188 0.015625)" xlink:href="#DejaVuSans-99"/>
      <use transform="translate(584.472656 0.015625)" xlink:href="#DejaVuSans-114"/>
      <use transform="translate(625.585938 0.015625)" xlink:href="#DejaVuSans-233"/>
      <use transform="translate(687.109375 0.015625)" xlink:href="#DejaVuSans-100"/>
      <use transform="translate(750.585938 0.015625)" xlink:href="#DejaVuSans-105"/>
      <use transform="translate(778.369141 0.015625)" xlink:href="#DejaVuSans-116"/>
      <use transform="translate(817.578125 0.015625)" xlink:href="#DejaVuSans-111"/>
     </g>
    </g>
    <g id="line2d_25">
     <path d="M 500.245312 157.14375 
L 520.245312 157.14375 
" style="fill:none;stroke:#ff7f0e;stroke-linecap:square;stroke-width:1.5;"/>
    </g>
    <g id="line2d_26"/>
    <g id="text_20">
     <!-- Sem renda bsica -->
     <defs>
      <path d="M 53.515625 70.515625 
L 53.515625 60.890625 
Q 47.90625 63.578125 42.921875 64.890625 
Q 37.9375 66.21875 33.296875 66.21875 
Q 25.25 66.21875 20.875 63.09375 
Q 16.5 59.96875 16.5 54.203125 
Q 16.5 49.359375 19.40625 46.890625 
Q 22.3125 44.4375 30.421875 42.921875 
L 36.375 41.703125 
Q 47.40625 39.59375 52.65625 34.296875 
Q 57.90625 29 57.90625 20.125 
Q 57.90625 9.515625 50.796875 4.046875 
Q 43.703125 -1.421875 29.984375 -1.421875 
Q 24.8125 -1.421875 18.96875 -0.25 
Q 13.140625 0.921875 6.890625 3.21875 
L 6.890625 13.375 
Q 12.890625 10.015625 18.65625 8.296875 
Q 24.421875 6.59375 29.984375 6.59375 
Q 38.421875 6.59375 43.015625 9.90625 
Q 47.609375 13.234375 47.609375 19.390625 
Q 47.609375 24.75 44.3125 27.78125 
Q 41.015625 30.8125 33.5 32.328125 
L 27.484375 33.5 
Q 16.453125 35.6875 11.515625 40.375 
Q 6.59375 45.0625 6.59375 53.421875 
Q 6.59375 63.09375 13.40625 68.65625 
Q 20.21875 74.21875 32.171875 74.21875 
Q 37.3125 74.21875 42.625 73.28125 
Q 47.953125 72.359375 53.515625 70.515625 
z
" id="DejaVuSans-83"/>
      <path d="M 48.6875 27.296875 
Q 48.6875 37.203125 44.609375 42.84375 
Q 40.53125 48.484375 33.40625 48.484375 
Q 26.265625 48.484375 22.1875 42.84375 
Q 18.109375 37.203125 18.109375 27.296875 
Q 18.109375 17.390625 22.1875 11.75 
Q 26.265625 6.109375 33.40625 6.109375 
Q 40.53125 6.109375 44.609375 11.75 
Q 48.6875 17.390625 48.6875 27.296875 
z
M 18.109375 46.390625 
Q 20.953125 51.265625 25.265625 53.625 
Q 29.59375 56 35.59375 56 
Q 45.5625 56 51.78125 48.09375 
Q 58.015625 40.1875 58.015625 27.296875 
Q 58.015625 14.40625 51.78125 6.484375 
Q 45.5625 -1.421875 35.59375 -1.421875 
Q 29.59375 -1.421875 25.265625 0.953125 
Q 20.953125 3.328125 18.109375 8.203125 
L 18.109375 0 
L 9.078125 0 
L 9.078125 75.984375 
L 18.109375 75.984375 
z
" id="DejaVuSans-98"/>
      <path d="M 34.28125 27.484375 
Q 23.390625 27.484375 19.1875 25 
Q 14.984375 22.515625 14.984375 16.5 
Q 14.984375 11.71875 18.140625 8.90625 
Q 21.296875 6.109375 26.703125 6.109375 
Q 34.1875 6.109375 38.703125 11.40625 
Q 43.21875 16.703125 43.21875 25.484375 
L 43.21875 27.484375 
z
M 52.203125 31.203125 
L 52.203125 0 
L 43.21875 0 
L 43.21875 8.296875 
Q 40.140625 3.328125 35.546875 0.953125 
Q 30.953125 -1.421875 24.3125 -1.421875 
Q 15.921875 -1.421875 10.953125 3.296875 
Q 6 8.015625 6 15.921875 
Q 6 25.140625 12.171875 29.828125 
Q 18.359375 34.515625 30.609375 34.515625 
L 43.21875 34.515625 
L 43.21875 35.40625 
Q 43.21875 41.609375 39.140625 45 
Q 35.0625 48.390625 27.6875 48.390625 
Q 23 48.390625 18.546875 47.265625 
Q 14.109375 46.140625 10.015625 43.890625 
L 10.015625 52.203125 
Q 14.9375 54.109375 19.578125 55.046875 
Q 24.21875 56 28.609375 56 
Q 40.484375 56 46.34375 49.84375 
Q 52.203125 43.703125 52.203125 31.203125 
z
M 35.78125 79.984375 
L 45.5 79.984375 
L 29.59375 61.625 
L 22.109375 61.625 
z
" id="DejaVuSans-225"/>
     </defs>
     <g transform="translate(528.245312 160.64375)scale(0.1 -0.1)">
      <use xlink:href="#DejaVuSans-83"/>
      <use x="63.476562" xlink:href="#DejaVuSans-101"/>
      <use x="125" xlink:href="#DejaVuSans-109"/>
      <use x="222.412109" xlink:href="#DejaVuSans-32"/>
      <use x="254.199219" xlink:href="#DejaVuSans-114"/>
      <use x="293.0625" xlink:href="#DejaVuSans-101"/>
      <use x="354.585938" xlink:href="#DejaVuSans-110"/>
      <use x="417.964844" xlink:href="#DejaVuSans-100"/>
      <use x="481.441406" xlink:href="#DejaVuSans-97"/>
      <use x="542.720703" xlink:href="#DejaVuSans-32"/>
      <use x="574.507812" xlink:href="#DejaVuSans-98"/>
      <use x="637.984375" xlink:href="#DejaVuSans-225"/>
      <use x="699.263672" xlink:href="#DejaVuSans-115"/>
      <use x="751.363281" xlink:href="#DejaVuSans-105"/>
      <use x="779.146484" xlink:href="#DejaVuSans-99"/>
      <use x="834.126953" xlink:href="#DejaVuSans-97"/>
     </g>
    </g>
    <g id="line2d_27">
     <path d="M 500.245312 171.821875 
L 520.245312 171.821875 
" style="fill:none;stroke:#2ca02c;stroke-linecap:square;stroke-width:1.5;"/>
    </g>
    <g id="line2d_28"/>
    <g id="text_21">
     <!-- $\Uparrow$ salrio mnimo -->
     <defs>
      <path d="M 20.65625 79.984375 
L 30.375 79.984375 
L 14.46875 61.625 
L 6.984375 61.625 
z
M 9.421875 54.6875 
L 18.40625 54.6875 
L 18.40625 0 
L 9.421875 0 
z
M 13.921875 56 
z
" id="DejaVuSans-237"/>
     </defs>
     <g transform="translate(528.245312 175.321875)scale(0.1 -0.1)">
      <use transform="translate(19.482422 0.015625)" xlink:href="#DejaVuSans-8657"/>
      <use transform="translate(122.753906 0.015625)" xlink:href="#DejaVuSans-32"/>
      <use transform="translate(154.541016 0.015625)" xlink:href="#DejaVuSans-115"/>
      <use transform="translate(206.640625 0.015625)" xlink:href="#DejaVuSans-97"/>
      <use transform="translate(267.919922 0.015625)" xlink:href="#DejaVuSans-108"/>
      <use transform="translate(295.703125 0.015625)" xlink:href="#DejaVuSans-225"/>
      <use transform="translate(356.982422 0.015625)" xlink:href="#DejaVuSans-114"/>
      <use transform="translate(398.095703 0.015625)" xlink:href="#DejaVuSans-105"/>
      <use transform="translate(425.878906 0.015625)" xlink:href="#DejaVuSans-111"/>
      <use transform="translate(487.060547 0.015625)" xlink:href="#DejaVuSans-32"/>
      <use transform="translate(518.847656 0.015625)" xlink:href="#DejaVuSans-109"/>
      <use transform="translate(616.259766 0.015625)" xlink:href="#DejaVuSans-237"/>
      <use transform="translate(644.042969 0.015625)" xlink:href="#DejaVuSans-110"/>
      <use transform="translate(707.421875 0.015625)" xlink:href="#DejaVuSans-105"/>
      <use transform="translate(735.205078 0.015625)" xlink:href="#DejaVuSans-109"/>
      <use transform="translate(832.617188 0.015625)" xlink:href="#DejaVuSans-111"/>
     </g>
    </g>
    <g id="line2d_29">
     <path d="M 500.245312 186.5 
L 520.245312 186.5 
" style="fill:none;stroke:#d62728;stroke-linecap:square;stroke-width:1.5;"/>
    </g>
    <g id="line2d_30"/>
    <g id="text_22">
     <!-- Imposto progressivo -->
     <defs>
      <path d="M 9.8125 72.90625 
L 19.671875 72.90625 
L 19.671875 0 
L 9.8125 0 
z
" id="DejaVuSans-73"/>
      <path d="M 45.40625 27.984375 
Q 45.40625 37.75 41.375 43.109375 
Q 37.359375 48.484375 30.078125 48.484375 
Q 22.859375 48.484375 18.828125 43.109375 
Q 14.796875 37.75 14.796875 27.984375 
Q 14.796875 18.265625 18.828125 12.890625 
Q 22.859375 7.515625 30.078125 7.515625 
Q 37.359375 7.515625 41.375 12.890625 
Q 45.40625 18.265625 45.40625 27.984375 
z
M 54.390625 6.78125 
Q 54.390625 -7.171875 48.1875 -13.984375 
Q 42 -20.796875 29.203125 -20.796875 
Q 24.46875 -20.796875 20.265625 -20.09375 
Q 16.0625 -19.390625 12.109375 -17.921875 
L 12.109375 -9.1875 
Q 16.0625 -11.328125 19.921875 -12.34375 
Q 23.78125 -13.375 27.78125 -13.375 
Q 36.625 -13.375 41.015625 -8.765625 
Q 45.40625 -4.15625 45.40625 5.171875 
L 45.40625 9.625 
Q 42.625 4.78125 38.28125 2.390625 
Q 33.9375 0 27.875 0 
Q 17.828125 0 11.671875 7.65625 
Q 5.515625 15.328125 5.515625 27.984375 
Q 5.515625 40.671875 11.671875 48.328125 
Q 17.828125 56 27.875 56 
Q 33.9375 56 38.28125 53.609375 
Q 42.625 51.21875 45.40625 46.390625 
L 45.40625 54.6875 
L 54.390625 54.6875 
z
" id="DejaVuSans-103"/>
      <path d="M 2.984375 54.6875 
L 12.5 54.6875 
L 29.59375 8.796875 
L 46.6875 54.6875 
L 56.203125 54.6875 
L 35.6875 0 
L 23.484375 0 
z
" id="DejaVuSans-118"/>
     </defs>
     <g transform="translate(528.245312 190)scale(0.1 -0.1)">
      <use xlink:href="#DejaVuSans-73"/>
      <use x="29.492188" xlink:href="#DejaVuSans-109"/>
      <use x="126.904297" xlink:href="#DejaVuSans-112"/>
      <use x="190.380859" xlink:href="#DejaVuSans-111"/>
      <use x="251.5625" xlink:href="#DejaVuSans-115"/>
      <use x="303.662109" xlink:href="#DejaVuSans-116"/>
      <use x="342.871094" xlink:href="#DejaVuSans-111"/>
      <use x="404.052734" xlink:href="#DejaVuSans-32"/>
      <use x="435.839844" xlink:href="#DejaVuSans-112"/>
      <use x="499.316406" xlink:href="#DejaVuSans-114"/>
      <use x="538.179688" xlink:href="#DejaVuSans-111"/>
      <use x="599.361328" xlink:href="#DejaVuSans-103"/>
      <use x="662.837891" xlink:href="#DejaVuSans-114"/>
      <use x="701.701172" xlink:href="#DejaVuSans-101"/>
      <use x="763.224609" xlink:href="#DejaVuSans-115"/>
      <use x="815.324219" xlink:href="#DejaVuSans-115"/>
      <use x="867.423828" xlink:href="#DejaVuSans-105"/>
      <use x="895.207031" xlink:href="#DejaVuSans-118"/>
      <use x="954.386719" xlink:href="#DejaVuSans-111"/>
     </g>
    </g>
   </g>
  </g>
 </g>
 <defs>
  <clipPath id="p87c1ab85ed">
   <rect height="271.8" width="446.4" x="44.845313" y="21.984375"/>
  </clipPath>
 </defs>
</svg>
