<?xml version="1.0" encoding="utf-8" standalone="no"?>
<!DOCTYPE svg PUBLIC "-//W3C//DTD SVG 1.1//EN"
  "http://www.w3.org/Graphics/SVG/1.1/DTD/svg11.dtd">
<!-- Created with matplotlib (https://matplotlib.org/) -->
<svg height="331.674375pt" version="1.1" viewBox="0 0 616.721875 331.674375" width="616.721875pt" xmlns="http://www.w3.org/2000/svg" xmlns:xlink="http://www.w3.org/1999/xlink">
 <defs>
  <style type="text/css">
*{stroke-linecap:butt;stroke-linejoin:round;}
  </style>
 </defs>
 <g id="figure_1">
  <g id="patch_1">
   <path d="M 0 331.674375 
L 616.721875 331.674375 
L 616.721875 0 
L 0 0 
z
" style="fill:#ffffff;"/>
  </g>
  <g id="axes_1">
   <g id="patch_2">
    <path d="M 20.5625 294.118125 
L 466.9625 294.118125 
L 466.9625 22.318125 
L 20.5625 22.318125 
z
" style="fill:#ffffff;"/>
   </g>
   <g id="line2d_1">
    <path clip-path="url(#p8c4619876f)" d="M 40.853409 239.944827 
L 41.579381 272.323614 
L 42.305352 261.87406 
L 43.031324 229.411945 
L 43.757296 223.539448 
L 44.483268 211.103093 
L 45.209239 228.173955 
L 45.935211 254.966444 
L 46.661183 184.715565 
L 47.387154 273.218274 
L 48.113126 249.682953 
L 48.839098 231.371005 
L 49.56507 226.02984 
L 50.291041 226.815754 
L 51.017013 272.74233 
L 51.742985 206.163285 
L 52.468956 266.008689 
L 53.194928 254.664832 
L 53.9209 195.247661 
L 54.646871 264.399687 
L 55.372843 239.403799 
L 56.098815 196.249808 
L 56.824787 258.048909 
L 57.550758 260.573027 
L 58.27673 195.782543 
L 59.002702 258.719659 
L 59.728673 250.339059 
L 60.454645 266.711208 
L 61.180617 229.970342 
L 61.906588 267.210037 
L 62.63256 258.932046 
L 63.358532 192.970167 
L 64.084504 246.152581 
L 64.810475 241.582103 
L 65.536447 261.694241 
L 66.98839 231.708214 
L 67.714362 223.244653 
L 68.440334 251.260579 
L 69.166305 219.183932 
L 69.892277 248.4344 
L 70.618249 266.670869 
L 71.344221 202.724709 
L 72.070192 217.997826 
L 72.796164 157.441914 
L 73.522136 265.382212 
L 74.248107 243.704298 
L 74.974079 254.12042 
L 75.700051 242.372145 
L 76.426023 246.956433 
L 77.151994 255.020297 
L 77.877966 248.261409 
L 78.603938 246.091128 
L 79.329909 242.325544 
L 80.781853 211.26519 
L 81.507824 263.821291 
L 82.233796 267.112522 
L 82.959768 256.003923 
L 83.68574 235.384015 
L 84.411711 172.551236 
L 85.137683 270.916227 
L 85.863655 175.249554 
L 86.589626 229.670865 
L 87.315598 255.382927 
L 88.04157 253.77714 
L 88.767541 237.157549 
L 89.493513 237.048194 
L 90.219485 229.026654 
L 90.945457 206.678314 
L 91.671428 274.886108 
L 92.3974 233.39585 
L 93.123372 209.559208 
L 93.849343 209.310043 
L 94.575315 228.574791 
L 95.301287 208.93891 
L 96.027258 251.44239 
L 96.75323 251.768484 
L 97.479202 228.778902 
L 98.205174 171.511279 
L 98.931145 271.533324 
L 99.657117 249.528975 
L 100.383089 237.679923 
L 101.10906 160.798835 
L 101.835032 276.583803 
L 102.561004 264.339313 
L 103.286976 268.335844 
L 104.012947 232.178694 
L 104.738919 243.54244 
L 105.464891 249.325409 
L 106.190862 232.690609 
L 106.916834 256.792843 
L 107.642806 250.667625 
L 108.368777 235.446887 
L 109.094749 250.288239 
L 109.820721 249.32965 
L 110.546693 216.311082 
L 111.272664 200.076695 
L 111.998636 268.991793 
L 112.724608 212.39819 
L 113.450579 216.762557 
L 114.176551 264.433451 
L 114.902523 229.770757 
L 115.628494 249.231156 
L 116.354466 255.839314 
L 117.080438 243.259277 
L 117.80641 250.971553 
L 119.258353 218.574758 
L 119.984325 249.212732 
L 120.710296 244.044671 
L 121.436268 271.380298 
L 122.16224 266.743465 
L 122.888211 179.199782 
L 123.614183 202.185266 
L 124.340155 187.252728 
L 125.066127 147.335719 
L 125.792098 208.911647 
L 126.51807 253.301348 
L 127.244042 268.158207 
L 127.970013 253.387968 
L 128.695985 226.76085 
L 129.421957 208.433934 
L 130.147929 226.454859 
L 130.8739 248.350249 
L 131.599872 237.967677 
L 132.325844 248.433074 
L 133.051815 279.071041 
L 133.777787 260.842699 
L 134.503759 227.152171 
L 135.22973 237.961265 
L 135.955702 233.25561 
L 136.681674 251.45061 
L 137.407646 221.715097 
L 138.133617 253.67999 
L 138.859589 243.308533 
L 140.311532 198.875999 
L 141.037504 249.199695 
L 141.763476 223.216584 
L 142.489447 159.112435 
L 143.215419 239.402945 
L 143.941391 189.295198 
L 144.667363 249.431959 
L 145.393334 268.619681 
L 146.119306 257.763528 
L 146.845278 252.025075 
L 147.571249 238.087135 
L 148.297221 188.873661 
L 149.023193 147.857732 
L 149.749164 184.059105 
L 151.201108 230.428306 
L 151.92708 271.400302 
L 152.653051 244.369811 
L 153.379023 260.255539 
L 154.104995 204.263266 
L 154.830966 224.155391 
L 155.556938 209.043691 
L 156.28291 240.715878 
L 157.008882 231.779377 
L 157.734853 228.706499 
L 158.460825 255.471443 
L 159.186797 180.938104 
L 159.912768 207.446014 
L 160.63874 226.850362 
L 161.364712 208.917207 
L 162.090683 254.687313 
L 162.816655 274.120546 
L 163.542627 255.144165 
L 164.268599 232.798065 
L 164.99457 249.600128 
L 165.720542 258.733893 
L 166.446514 236.841581 
L 167.172485 195.192911 
L 167.898457 226.290911 
L 168.624429 244.061364 
L 169.3504 245.19421 
L 170.076372 223.639877 
L 170.802344 239.846904 
L 171.528316 272.222352 
L 172.254287 229.568529 
L 172.980259 269.258353 
L 173.706231 254.79102 
L 174.432202 220.283847 
L 175.158174 257.115954 
L 175.884146 269.352921 
L 177.336089 239.892611 
L 178.062061 191.402643 
L 178.788033 240.711396 
L 179.514004 276.882629 
L 180.239976 267.710544 
L 180.965948 246.914304 
L 181.691919 195.642228 
L 182.417891 271.368906 
L 183.143863 251.629546 
L 183.869835 266.30533 
L 184.595806 243.551547 
L 185.321778 210.704641 
L 186.04775 268.285158 
L 186.773721 266.005555 
L 187.499693 216.505056 
L 188.225665 271.074522 
L 188.951636 250.309273 
L 189.677608 224.130723 
L 190.40358 210.996857 
L 191.129552 184.164835 
L 191.855523 261.944018 
L 192.581495 214.36089 
L 193.307467 229.469662 
L 194.033438 249.443244 
L 194.75941 265.051281 
L 195.485382 262.175581 
L 196.211353 193.911476 
L 196.937325 187.071712 
L 197.663297 230.839 
L 198.389269 241.96411 
L 199.11524 208.986979 
L 199.841212 228.363848 
L 200.567184 243.614463 
L 201.293155 206.370455 
L 202.019127 243.322355 
L 202.745099 221.766399 
L 203.47107 238.498609 
L 204.197042 250.386826 
L 204.923014 249.452184 
L 205.648986 233.313767 
L 206.374957 225.948334 
L 207.100929 247.090277 
L 207.826901 250.018748 
L 208.552872 240.104946 
L 209.278844 241.401732 
L 210.004816 248.035187 
L 210.730788 243.661181 
L 211.456759 222.643561 
L 212.182731 233.649421 
L 212.908703 276.059879 
L 213.634674 204.921312 
L 214.360646 228.324135 
L 215.086618 233.633536 
L 215.812589 253.825812 
L 216.538561 229.653937 
L 217.264533 265.002406 
L 217.990505 232.054247 
L 218.716476 216.049318 
L 219.442448 259.517116 
L 220.16842 256.366229 
L 221.620363 245.785032 
L 222.346335 259.611104 
L 223.072306 225.286106 
L 223.798278 244.366926 
L 224.52425 211.286831 
L 225.250222 261.48232 
L 225.976193 225.707903 
L 226.702165 262.381678 
L 227.428137 224.358299 
L 228.154108 200.129215 
L 228.88008 262.079461 
L 229.606052 222.993457 
L 230.332023 253.20459 
L 231.057995 270.026175 
L 231.783967 244.608382 
L 232.509939 260.344513 
L 233.23591 262.217764 
L 233.961882 220.547308 
L 234.687854 234.37083 
L 235.413825 217.443624 
L 236.139797 228.867201 
L 236.865769 270.855812 
L 237.591741 259.624278 
L 238.317712 239.875906 
L 239.043684 212.100775 
L 239.769656 271.358794 
L 240.495627 236.702012 
L 241.221599 254.502047 
L 241.947571 260.972675 
L 242.673542 250.191815 
L 243.399514 262.145215 
L 244.125486 244.191766 
L 244.851458 199.225105 
L 245.577429 255.183724 
L 246.303401 239.055615 
L 247.029373 245.525548 
L 247.755344 211.030728 
L 248.481316 269.071968 
L 249.207288 240.187737 
L 249.933259 242.654249 
L 250.659231 269.359359 
L 251.385203 183.473147 
L 252.111175 247.878168 
L 252.837146 241.41221 
L 253.563118 217.340426 
L 254.28909 239.677393 
L 255.015061 246.328549 
L 255.741033 261.029904 
L 256.467005 245.486191 
L 257.192977 217.892256 
L 257.918948 257.670249 
L 258.64492 238.863345 
L 259.370892 247.875395 
L 260.096863 242.424284 
L 260.822835 247.598038 
L 261.548807 151.093715 
L 262.274778 231.698323 
L 263.00075 258.4815 
L 263.726722 208.760007 
L 264.452694 269.838914 
L 265.178665 228.595611 
L 265.904637 237.339081 
L 266.630609 266.991069 
L 267.35658 220.024141 
L 268.082552 258.389205 
L 268.808524 256.591874 
L 269.534495 250.906125 
L 270.260467 215.212629 
L 270.986439 232.989991 
L 271.712411 179.444703 
L 272.438382 232.715923 
L 273.164354 183.741896 
L 273.890326 225.982429 
L 274.616297 237.162172 
L 275.342269 253.584365 
L 276.068241 231.852205 
L 276.794212 251.434713 
L 277.520184 195.975349 
L 278.246156 241.759111 
L 278.972128 198.645249 
L 279.698099 220.627638 
L 280.424071 181.544186 
L 281.150043 224.119246 
L 281.876014 204.694034 
L 282.601986 275.523484 
L 283.327958 203.231341 
L 284.05393 230.663382 
L 284.779901 203.283161 
L 285.505873 218.435615 
L 286.231845 168.812945 
L 286.957816 239.724613 
L 287.683788 261.919031 
L 288.40976 243.114237 
L 289.135731 262.72647 
L 289.861703 251.145441 
L 290.587675 254.514434 
L 291.313647 235.46351 
L 292.039618 252.84991 
L 292.76559 241.699454 
L 293.491562 237.168921 
L 294.217533 207.187392 
L 294.943505 230.531933 
L 295.669477 203.90012 
L 296.395448 193.1635 
L 297.12142 244.370918 
L 297.847392 243.407849 
L 298.573364 248.372814 
L 299.299335 254.609514 
L 300.025307 233.685753 
L 300.751279 231.696829 
L 301.47725 211.653522 
L 302.203222 240.972666 
L 302.929194 197.985062 
L 303.655165 274.809691 
L 305.107109 244.712971 
L 306.559052 225.964807 
L 307.285024 253.547052 
L 308.010996 268.843677 
L 308.736967 245.240819 
L 309.462939 198.981943 
L 310.188911 255.664964 
L 310.914883 206.655902 
L 311.640854 270.100209 
L 312.366826 219.369411 
L 313.092798 235.39075 
L 313.818769 258.737803 
L 314.544741 230.088347 
L 315.270713 223.831806 
L 315.996684 265.989625 
L 316.722656 252.649434 
L 317.448628 225.813799 
L 318.1746 249.320316 
L 318.900571 248.046601 
L 319.626543 250.910538 
L 320.352515 250.63056 
L 321.078486 236.760852 
L 321.804458 216.170391 
L 322.53043 253.239014 
L 323.256401 260.836447 
L 323.982373 236.668891 
L 324.708345 250.579675 
L 325.434317 243.546045 
L 326.160288 198.617881 
L 326.88626 251.602058 
L 327.612232 265.917403 
L 328.338203 175.48323 
L 329.064175 271.784964 
L 329.790147 244.140846 
L 330.516118 266.679418 
L 331.24209 241.411618 
L 331.968062 256.94381 
L 332.694034 247.812142 
L 333.420005 248.118411 
L 334.145977 252.82123 
L 334.871949 242.491347 
L 335.59792 216.357102 
L 336.323892 234.369795 
L 337.049864 267.441168 
L 337.775836 224.254549 
L 338.501807 246.259231 
L 339.227779 237.471733 
L 339.953751 245.128067 
L 340.679722 246.581236 
L 341.405694 234.69058 
L 342.131666 192.388079 
L 342.857637 234.162539 
L 343.583609 266.371159 
L 344.309581 252.042326 
L 345.035553 185.708616 
L 345.761524 250.632971 
L 346.487496 255.331169 
L 347.213468 250.023599 
L 347.939439 230.634055 
L 348.665411 246.585675 
L 349.391383 251.92924 
L 350.117354 232.799658 
L 350.843326 271.442176 
L 351.569298 245.08828 
L 352.29527 270.367456 
L 353.021241 250.746119 
L 353.747213 238.330397 
L 354.473185 247.419402 
L 355.199156 238.846945 
L 355.925128 244.123162 
L 356.6511 244.479047 
L 357.377071 268.394622 
L 358.103043 241.228831 
L 358.829015 203.021488 
L 359.554987 242.532233 
L 360.280958 262.858314 
L 361.00693 244.816622 
L 361.732902 236.934198 
L 362.458873 219.710262 
L 363.184845 233.85999 
L 363.910817 252.185776 
L 364.636789 228.870092 
L 365.36276 219.927051 
L 366.088732 244.590445 
L 366.814704 223.054084 
L 367.540675 257.191073 
L 368.266647 267.067704 
L 368.992619 217.4006 
L 369.71859 247.31738 
L 370.444562 230.949623 
L 371.170534 245.888187 
L 371.896506 251.491459 
L 372.622477 260.943307 
L 373.348449 219.77122 
L 374.074421 220.116102 
L 374.800392 234.329515 
L 375.526364 198.464264 
L 376.252336 235.699072 
L 376.978307 246.829491 
L 377.704279 247.785847 
L 378.430251 246.676568 
L 379.156223 211.808137 
L 379.882194 217.278948 
L 380.608166 226.425996 
L 381.334138 226.04084 
L 382.060109 231.695455 
L 382.786081 206.628975 
L 383.512053 224.474166 
L 384.238024 245.361774 
L 384.963996 209.59689 
L 385.689968 238.111112 
L 386.41594 225.474051 
L 387.141911 232.599968 
L 387.867883 213.432092 
L 388.593855 241.788226 
L 389.319826 241.669442 
L 390.045798 243.947284 
L 390.77177 250.786377 
L 391.497742 224.337262 
L 392.223713 260.941591 
L 392.949685 207.438044 
L 393.675657 212.279401 
L 394.401628 262.8249 
L 395.1276 211.230002 
L 395.853572 220.669523 
L 396.579543 224.6706 
L 397.305515 222.52203 
L 398.031487 196.457569 
L 398.757459 263.788038 
L 399.48343 227.377635 
L 400.209402 230.343477 
L 400.935374 255.3809 
L 401.661345 221.593373 
L 402.387317 227.443041 
L 403.113289 209.680312 
L 403.83926 261.685817 
L 404.565232 253.643427 
L 405.291204 252.723759 
L 406.017176 250.547328 
L 406.743147 250.169383 
L 407.469119 243.825929 
L 408.195091 245.747467 
L 408.921062 248.782734 
L 409.647034 247.585365 
L 410.373006 250.096639 
L 411.098977 245.774548 
L 411.824949 246.581453 
L 412.550921 244.111261 
L 413.276893 238.371669 
L 414.002864 241.553594 
L 414.728836 238.083208 
L 415.454808 250.705648 
L 416.180779 254.554115 
L 416.906751 248.34213 
L 417.632723 213.401349 
L 418.358695 245.753505 
L 419.084666 229.913343 
L 419.810638 248.569803 
L 420.53661 230.522394 
L 421.262581 250.683949 
L 421.988553 262.937565 
L 422.714525 243.474278 
L 423.440496 249.522389 
L 424.166468 221.648833 
L 424.89244 245.416713 
L 425.618412 213.852244 
L 426.344383 246.316421 
L 427.070355 208.63986 
L 427.796327 248.701118 
L 428.522298 218.35745 
L 429.24827 231.597973 
L 429.974242 250.21273 
L 430.700213 250.082915 
L 431.426185 247.974795 
L 432.152157 246.317538 
L 432.878129 243.955105 
L 433.6041 247.724103 
L 434.330072 216.193155 
L 435.056044 248.069201 
L 435.782015 233.417205 
L 436.507987 247.818483 
L 437.233959 219.922262 
L 437.95993 245.75314 
L 438.685902 249.345056 
L 439.411874 218.910301 
L 440.137846 234.273097 
L 440.863817 259.116945 
L 441.589789 243.886174 
L 442.315761 243.3151 
L 443.041732 229.911848 
L 443.767704 245.960845 
L 444.493676 254.973034 
L 445.219648 247.365541 
L 445.945619 246.035892 
L 446.671591 248.33639 
L 446.671591 248.33639 
" style="fill:none;stroke:#1f77b4;stroke-linecap:square;stroke-width:1.5;"/>
   </g>
   <g id="line2d_2">
    <path clip-path="url(#p8c4619876f)" d="M 40.853409 222.422026 
L 41.579381 280.789308 
L 42.305352 260.967509 
L 43.031324 207.154016 
L 43.757296 259.596917 
L 44.483268 218.433598 
L 45.209239 254.263992 
L 45.935211 183.468159 
L 46.661183 234.657822 
L 47.387154 275.887792 
L 48.113126 242.351 
L 48.839098 253.058449 
L 49.56507 257.682923 
L 50.291041 246.683233 
L 51.017013 232.312386 
L 51.742985 209.501281 
L 52.468956 258.864024 
L 53.194928 281.76358 
L 53.9209 236.073268 
L 54.646871 277.988394 
L 55.372843 207.405452 
L 56.098815 245.728979 
L 56.824787 228.777538 
L 57.550758 242.393349 
L 58.27673 245.999235 
L 59.002702 237.079545 
L 59.728673 268.736731 
L 60.454645 268.384783 
L 61.180617 247.970801 
L 61.906588 268.83954 
L 62.63256 264.893759 
L 63.358532 239.188895 
L 64.084504 254.892481 
L 64.810475 264.223218 
L 65.536447 268.283646 
L 66.262419 273.746673 
L 66.98839 254.746018 
L 67.714362 240.913746 
L 68.440334 250.960424 
L 69.166305 248.779821 
L 69.892277 259.565688 
L 70.618249 279.436315 
L 71.344221 211.773897 
L 72.070192 240.246024 
L 72.796164 232.909058 
L 73.522136 267.272183 
L 74.248107 191.714797 
L 74.974079 265.691047 
L 75.700051 215.235282 
L 76.426023 244.937917 
L 77.151994 241.261376 
L 77.877966 240.708531 
L 78.603938 244.715308 
L 79.329909 205.727501 
L 80.055881 229.54436 
L 80.781853 222.589959 
L 81.507824 281.087369 
L 82.233796 209.083277 
L 82.959768 264.129093 
L 83.68574 238.011398 
L 84.411711 238.161784 
L 85.137683 270.434513 
L 85.863655 235.150455 
L 86.589626 238.175225 
L 87.315598 269.96686 
L 88.04157 267.75934 
L 88.767541 227.64395 
L 89.493513 152.846354 
L 90.219485 178.299266 
L 90.945457 230.656254 
L 91.671428 268.525566 
L 92.3974 277.405173 
L 93.123372 265.202953 
L 93.849343 250.788555 
L 94.575315 232.857399 
L 95.301287 227.103227 
L 96.027258 240.437311 
L 96.75323 265.00063 
L 97.479202 224.384121 
L 98.931145 274.444919 
L 99.657117 171.41748 
L 100.383089 164.69607 
L 101.10906 191.098808 
L 101.835032 279.521379 
L 102.561004 276.731425 
L 103.286976 269.9092 
L 104.012947 242.835993 
L 104.738919 246.518853 
L 105.464891 235.137338 
L 106.190862 256.86352 
L 106.916834 261.9113 
L 107.642806 272.183043 
L 108.368777 246.435005 
L 109.094749 255.192328 
L 109.820721 219.698279 
L 110.546693 208.128169 
L 111.272664 250.180216 
L 111.998636 269.829123 
L 112.724608 34.67267 
L 113.450579 244.149262 
L 114.176551 266.349365 
L 114.902523 241.716627 
L 115.628494 276.253449 
L 116.354466 252.564384 
L 117.080438 249.391795 
L 117.80641 229.701854 
L 118.532381 178.849269 
L 119.258353 241.605151 
L 119.984325 242.719198 
L 120.710296 236.772845 
L 121.436268 277.612632 
L 122.16224 266.943734 
L 122.888211 252.913474 
L 123.614183 251.242145 
L 124.340155 87.288837 
L 125.066127 188.894731 
L 125.792098 134.763663 
L 126.51807 239.283368 
L 127.244042 267.461746 
L 127.970013 249.480489 
L 128.695985 243.747923 
L 129.421957 193.823403 
L 130.147929 202.864619 
L 130.8739 253.802169 
L 131.599872 242.776868 
L 132.325844 237.386538 
L 133.051815 273.17061 
L 133.777787 252.135247 
L 134.503759 245.072963 
L 135.22973 246.131086 
L 135.955702 230.099284 
L 136.681674 172.984545 
L 137.407646 225.26428 
L 138.133617 206.511102 
L 138.859589 238.252622 
L 139.585561 246.991583 
L 140.311532 236.540486 
L 141.037504 180.614229 
L 141.763476 162.368515 
L 142.489447 238.313684 
L 143.215419 261.915351 
L 143.941391 242.485703 
L 144.667363 239.198827 
L 145.393334 269.085333 
L 146.119306 259.745145 
L 146.845278 227.589353 
L 147.571249 145.255864 
L 148.297221 254.604795 
L 149.023193 229.9839 
L 149.749164 231.776192 
L 150.475136 248.281484 
L 151.201108 227.619061 
L 151.92708 249.090897 
L 152.653051 190.337201 
L 153.379023 254.131752 
L 154.104995 200.128396 
L 154.830966 216.006653 
L 155.556938 251.784184 
L 156.28291 247.901583 
L 157.008882 237.344618 
L 157.734853 219.988214 
L 158.460825 221.9932 
L 159.186797 244.975735 
L 159.912768 238.681337 
L 160.63874 237.489735 
L 161.364712 235.047293 
L 162.816655 276.244729 
L 164.268599 187.986638 
L 164.99457 250.437588 
L 165.720542 260.37157 
L 166.446514 251.194541 
L 167.172485 136.025912 
L 167.898457 250.153205 
L 168.624429 242.956489 
L 169.3504 231.398149 
L 170.076372 233.120085 
L 170.802344 256.540344 
L 171.528316 273.61397 
L 172.254287 253.820399 
L 172.980259 276.645269 
L 173.706231 221.577895 
L 174.432202 209.103487 
L 175.158174 233.330954 
L 175.884146 268.464501 
L 176.610117 240.964359 
L 177.336089 235.035443 
L 178.062061 243.116073 
L 178.788033 215.036752 
L 179.514004 274.72032 
L 180.239976 275.534309 
L 180.965948 248.907311 
L 181.691919 231.212066 
L 182.417891 276.86937 
L 183.143863 269.50681 
L 183.869835 275.939182 
L 184.595806 257.024849 
L 185.321778 260.434295 
L 186.04775 263.240592 
L 186.773721 216.088945 
L 187.499693 254.239002 
L 188.225665 221.239357 
L 188.951636 240.986945 
L 189.677608 250.896614 
L 190.40358 219.716939 
L 191.855523 259.655906 
L 192.581495 227.333815 
L 193.307467 78.518445 
L 194.033438 256.442577 
L 194.75941 258.870267 
L 195.485382 225.362556 
L 196.211353 133.509027 
L 196.937325 220.932896 
L 197.663297 249.246006 
L 198.389269 181.984938 
L 199.11524 246.583544 
L 199.841212 256.259941 
L 200.567184 268.566889 
L 201.293155 233.253562 
L 202.019127 230.870775 
L 202.745099 260.602156 
L 203.47107 248.794857 
L 204.197042 253.818674 
L 204.923014 264.853152 
L 205.648986 140.333829 
L 206.374957 245.200559 
L 207.100929 262.834598 
L 207.826901 258.318156 
L 208.552872 245.454042 
L 209.278844 266.968545 
L 210.004816 262.42721 
L 210.730788 243.92222 
L 211.456759 240.506562 
L 212.182731 248.911282 
L 212.908703 266.306761 
L 213.634674 249.602486 
L 214.360646 260.151605 
L 216.538561 156.417209 
L 217.264533 246.441768 
L 217.990505 159.547324 
L 218.716476 249.107107 
L 219.442448 253.441113 
L 220.16842 255.215425 
L 220.894391 260.448073 
L 221.620363 231.174444 
L 222.346335 260.653704 
L 223.072306 242.881688 
L 223.798278 262.123068 
L 224.52425 242.72259 
L 225.250222 209.727612 
L 225.976193 189.946716 
L 226.702165 258.1266 
L 227.428137 255.229255 
L 228.154108 231.137688 
L 228.88008 248.982432 
L 229.606052 221.821256 
L 230.332023 250.470372 
L 231.057995 271.160113 
L 231.783967 252.70458 
L 232.509939 248.015164 
L 233.23591 235.151005 
L 233.961882 242.748948 
L 234.687854 244.243914 
L 235.413825 243.231606 
L 236.139797 237.402198 
L 236.865769 256.449877 
L 237.591741 269.71014 
L 238.317712 247.976481 
L 239.769656 274.032727 
L 240.495627 231.100399 
L 241.221599 244.839362 
L 241.947571 267.685769 
L 242.673542 252.488396 
L 243.399514 257.986349 
L 244.125486 224.824178 
L 244.851458 225.134593 
L 245.577429 237.879988 
L 246.303401 236.93311 
L 247.029373 260.059579 
L 247.755344 237.443 
L 248.481316 243.507028 
L 249.207288 247.329054 
L 249.933259 250.136817 
L 250.659231 259.422069 
L 251.385203 154.632131 
L 252.111175 203.319703 
L 252.837146 244.158142 
L 254.28909 258.025906 
L 255.015061 269.209087 
L 255.741033 200.436973 
L 256.467005 257.644283 
L 257.192977 230.210538 
L 257.918948 257.165598 
L 259.370892 244.755559 
L 260.822835 258.985184 
L 261.548807 236.630186 
L 262.274778 247.227296 
L 263.00075 273.30979 
L 263.726722 240.185174 
L 264.452694 267.101509 
L 265.178665 250.967499 
L 265.904637 246.876195 
L 266.630609 213.902098 
L 267.35658 195.800348 
L 268.082552 244.665265 
L 268.808524 257.555676 
L 270.260467 214.043604 
L 270.986439 247.994786 
L 271.712411 238.251688 
L 272.438382 234.313639 
L 273.164354 224.534602 
L 273.890326 250.037279 
L 274.616297 168.158258 
L 275.342269 253.852458 
L 276.068241 240.911905 
L 276.794212 256.214999 
L 277.520184 225.469805 
L 278.246156 228.536517 
L 278.972128 224.133171 
L 279.698099 230.318747 
L 280.424071 212.41498 
L 281.150043 240.455253 
L 281.876014 248.714691 
L 282.601986 280.376944 
L 283.327958 259.368361 
L 284.05393 244.781268 
L 284.779901 253.077668 
L 285.505873 123.375658 
L 286.231845 235.367858 
L 286.957816 207.94697 
L 287.683788 247.280984 
L 288.40976 222.161081 
L 289.135731 255.817709 
L 289.861703 261.225536 
L 290.587675 235.24895 
L 291.313647 246.826436 
L 292.039618 245.622052 
L 292.76559 235.739155 
L 293.491562 243.164267 
L 294.217533 253.22724 
L 294.943505 241.506297 
L 295.669477 241.224962 
L 296.395448 156.817619 
L 297.12142 256.172854 
L 297.847392 242.995224 
L 298.573364 237.290804 
L 299.299335 272.762508 
L 300.025307 237.829985 
L 300.751279 162.873883 
L 301.47725 199.033778 
L 302.203222 246.843194 
L 302.929194 220.258406 
L 303.655165 274.879998 
L 304.381137 271.98035 
L 305.107109 197.391431 
L 305.833081 244.124358 
L 306.559052 251.884458 
L 307.285024 268.674505 
L 308.736967 260.691703 
L 309.462939 181.416239 
L 310.188911 267.780727 
L 310.914883 239.176037 
L 311.640854 270.245893 
L 313.092798 190.075444 
L 313.818769 238.576009 
L 314.544741 174.50168 
L 315.270713 252.230031 
L 315.996684 274.11579 
L 316.722656 269.397286 
L 317.448628 255.516248 
L 318.1746 235.064445 
L 318.900571 272.076144 
L 319.626543 223.307705 
L 320.352515 264.511465 
L 321.078486 240.21316 
L 321.804458 254.999927 
L 322.53043 261.095794 
L 323.256401 268.986987 
L 323.982373 241.033091 
L 324.708345 196.236266 
L 325.434317 271.82074 
L 326.160288 189.856837 
L 327.612232 245.242806 
L 328.338203 235.666262 
L 329.064175 238.068503 
L 329.790147 236.511562 
L 330.516118 245.162691 
L 331.24209 239.977618 
L 331.968062 242.090475 
L 332.694034 241.971162 
L 333.420005 259.414972 
L 334.145977 254.163562 
L 334.871949 232.293852 
L 335.59792 255.580788 
L 336.323892 252.318667 
L 337.049864 251.474137 
L 337.775836 218.240962 
L 338.501807 242.469595 
L 339.227779 215.621782 
L 339.953751 240.033369 
L 340.679722 245.500072 
L 341.405694 252.934843 
L 342.131666 167.755774 
L 342.857637 174.305387 
L 343.583609 273.947015 
L 344.309581 244.102848 
L 345.035553 244.371252 
L 345.761524 232.109616 
L 346.487496 250.791276 
L 347.213468 233.719485 
L 347.939439 238.009647 
L 348.665411 253.090897 
L 349.391383 253.383791 
L 350.843326 241.146286 
L 352.29527 235.497221 
L 353.021241 246.252786 
L 353.747213 244.002163 
L 354.473185 242.227624 
L 355.199156 244.191407 
L 355.925128 234.036303 
L 356.6511 245.153992 
L 357.377071 267.718608 
L 358.103043 234.777015 
L 358.829015 188.259142 
L 359.554987 248.993534 
L 360.280958 270.086839 
L 361.00693 231.605462 
L 361.732902 214.2925 
L 362.458873 209.521238 
L 363.184845 245.948891 
L 363.910817 238.160812 
L 364.636789 217.279275 
L 365.36276 223.9151 
L 366.088732 257.31037 
L 366.814704 254.859155 
L 367.540675 221.739806 
L 368.266647 241.331263 
L 368.992619 223.71273 
L 369.71859 240.213139 
L 370.444562 228.618588 
L 371.170534 243.326072 
L 371.896506 245.640163 
L 372.622477 259.276857 
L 373.348449 241.854914 
L 374.074421 240.802899 
L 374.800392 251.613624 
L 375.526364 240.029818 
L 376.252336 199.402627 
L 376.978307 254.710695 
L 377.704279 257.527147 
L 378.430251 253.975214 
L 379.156223 237.888716 
L 379.882194 251.447665 
L 380.608166 205.458897 
L 381.334138 209.08893 
L 382.786081 238.286755 
L 383.512053 232.27755 
L 384.238024 266.868527 
L 384.963996 244.389799 
L 385.689968 203.895682 
L 386.41594 210.873169 
L 387.141911 208.468777 
L 387.867883 238.177897 
L 388.593855 213.286353 
L 389.319826 213.73008 
L 390.045798 255.532236 
L 390.77177 264.647016 
L 391.497742 210.088054 
L 392.223713 265.273118 
L 392.949685 243.346494 
L 393.675657 241.15201 
L 394.401628 238.195528 
L 395.1276 240.627517 
L 395.853572 234.311895 
L 396.579543 253.367001 
L 397.305515 197.010801 
L 398.031487 182.194376 
L 398.757459 264.716421 
L 399.48343 210.863015 
L 400.209402 246.641945 
L 400.935374 252.998064 
L 401.661345 214.213518 
L 402.387317 250.291208 
L 403.113289 230.853294 
L 403.83926 268.363065 
L 404.565232 245.213752 
L 405.291204 262.729682 
L 406.017176 245.136024 
L 406.743147 235.821771 
L 407.469119 242.060394 
L 408.195091 234.289899 
L 408.921062 245.041216 
L 409.647034 245.402748 
L 410.373006 241.690413 
L 411.098977 246.099997 
L 411.824949 251.332393 
L 412.550921 237.315627 
L 413.276893 251.615685 
L 414.002864 247.25233 
L 414.728836 250.454607 
L 415.454808 251.977751 
L 416.180779 265.210003 
L 417.632723 210.722054 
L 418.358695 240.751056 
L 419.084666 217.830978 
L 419.810638 242.691909 
L 420.53661 221.060493 
L 421.262581 243.945763 
L 421.988553 255.838038 
L 422.714525 237.354587 
L 423.440496 242.047869 
L 424.166468 245.052448 
L 424.89244 242.02496 
L 425.618412 246.966402 
L 426.344383 236.898005 
L 427.070355 238.496142 
L 427.796327 242.943343 
L 428.522298 243.2758 
L 429.24827 245.055782 
L 429.974242 242.674728 
L 430.700213 258.637286 
L 432.152157 228.184477 
L 432.878129 240.100458 
L 433.6041 255.016922 
L 434.330072 242.651429 
L 435.056044 244.891708 
L 435.782015 250.836251 
L 436.507987 242.648379 
L 437.233959 235.797299 
L 437.95993 257.891074 
L 438.685902 239.808088 
L 439.411874 243.064508 
L 440.137846 250.287076 
L 440.863817 240.019509 
L 441.589789 243.883505 
L 442.315761 242.26706 
L 443.041732 245.173306 
L 443.767704 245.14704 
L 444.493676 241.423464 
L 445.219648 241.940643 
L 445.945619 242.238722 
L 446.671591 242.021989 
L 446.671591 242.021989 
" style="fill:none;stroke:#ff7f0e;stroke-linecap:square;stroke-width:1.5;"/>
   </g>
   <g id="line2d_3">
    <path clip-path="url(#p8c4619876f)" d="M 40.853409 227.68651 
L 41.579381 242.125774 
L 42.305352 242.35406 
L 43.031324 252.231496 
L 43.757296 253.22794 
L 44.483268 198.286517 
L 45.209239 228.894573 
L 45.935211 207.623514 
L 46.661183 219.473797 
L 47.387154 275.224384 
L 48.113126 221.241317 
L 48.839098 243.779527 
L 49.56507 247.077937 
L 50.291041 118.649052 
L 51.017013 276.472006 
L 51.742985 224.883925 
L 52.468956 254.870074 
L 53.194928 240.135341 
L 53.9209 219.907032 
L 54.646871 243.57447 
L 55.372843 231.977361 
L 56.098815 238.852862 
L 56.824787 237.693986 
L 57.550758 251.100611 
L 58.27673 233.79078 
L 59.002702 247.975412 
L 59.728673 244.00764 
L 60.454645 265.531678 
L 61.180617 235.624415 
L 61.906588 267.712469 
L 62.63256 262.757491 
L 63.358532 201.844247 
L 64.084504 245.776342 
L 64.810475 234.459314 
L 65.536447 266.659406 
L 66.262419 266.768104 
L 67.714362 202.049062 
L 68.440334 195.867041 
L 69.166305 243.503816 
L 69.892277 167.033803 
L 70.618249 267.539882 
L 71.344221 163.630912 
L 72.070192 203.170845 
L 72.796164 229.384282 
L 73.522136 250.433014 
L 74.248107 168.015429 
L 74.974079 246.982529 
L 75.700051 185.538823 
L 76.426023 244.050928 
L 77.151994 205.951735 
L 77.877966 207.674556 
L 78.603938 234.674474 
L 79.329909 191.936272 
L 80.055881 179.100258 
L 80.781853 199.745632 
L 81.507824 267.131988 
L 82.233796 257.686935 
L 82.959768 233.384498 
L 83.68574 150.149733 
L 84.411711 233.844943 
L 85.137683 226.187609 
L 85.863655 165.220263 
L 86.589626 250.347642 
L 87.315598 240.721322 
L 88.04157 268.631982 
L 88.767541 203.663219 
L 89.493513 203.679401 
L 90.219485 227.458659 
L 90.945457 157.181253 
L 91.671428 267.099103 
L 92.3974 223.545754 
L 93.123372 244.820965 
L 93.849343 203.67805 
L 94.575315 208.676568 
L 95.301287 205.984212 
L 96.027258 247.476507 
L 96.75323 250.595861 
L 97.479202 216.193985 
L 98.205174 146.905114 
L 98.931145 265.860057 
L 99.657117 241.525276 
L 100.383089 222.777103 
L 101.10906 116.113098 
L 101.835032 271.500365 
L 102.561004 264.385567 
L 103.286976 245.28709 
L 104.012947 152.887367 
L 105.464891 241.463794 
L 106.190862 192.57731 
L 106.916834 264.106603 
L 107.642806 228.698022 
L 108.368777 171.702539 
L 109.094749 234.27493 
L 109.820721 261.106417 
L 110.546693 151.60877 
L 111.272664 211.618488 
L 111.998636 253.063528 
L 112.724608 133.728519 
L 113.450579 179.765701 
L 114.176551 266.75508 
L 114.902523 226.043578 
L 115.628494 262.036172 
L 116.354466 199.655937 
L 117.080438 175.146977 
L 117.80641 234.301998 
L 118.532381 134.403644 
L 119.258353 224.550741 
L 119.984325 205.778232 
L 120.710296 215.728499 
L 121.436268 243.150171 
L 122.16224 259.073384 
L 122.888211 235.794631 
L 123.614183 223.217924 
L 124.340155 195.430819 
L 125.066127 196.997792 
L 125.792098 179.210623 
L 126.51807 255.207926 
L 127.244042 272.552819 
L 127.970013 237.971601 
L 128.695985 79.02606 
L 129.421957 195.729782 
L 130.147929 255.968403 
L 130.8739 247.261788 
L 131.599872 218.790125 
L 133.051815 276.392298 
L 133.777787 268.836304 
L 135.22973 139.826965 
L 135.955702 213.907613 
L 136.681674 189.064995 
L 137.407646 236.576213 
L 138.133617 198.77241 
L 138.859589 205.617107 
L 139.585561 242.570218 
L 141.037504 233.33224 
L 141.763476 233.273189 
L 142.489447 224.652531 
L 143.215419 266.647944 
L 143.941391 240.009631 
L 144.667363 248.087014 
L 145.393334 275.538401 
L 147.571249 206.585175 
L 148.297221 218.704343 
L 149.023193 163.936734 
L 149.749164 203.06865 
L 150.475136 161.656722 
L 151.201108 243.467346 
L 151.92708 258.696957 
L 152.653051 224.764259 
L 153.379023 268.662016 
L 154.104995 219.686432 
L 154.830966 222.37517 
L 155.556938 151.824813 
L 156.28291 254.307091 
L 157.008882 199.399609 
L 157.734853 184.592912 
L 158.460825 246.487455 
L 159.186797 227.775667 
L 159.912768 200.717095 
L 160.63874 195.181786 
L 161.364712 217.779101 
L 162.090683 235.828616 
L 162.816655 269.705531 
L 163.542627 243.840812 
L 164.268599 212.501527 
L 164.99457 209.917555 
L 165.720542 254.267776 
L 166.446514 237.230984 
L 167.172485 125.556734 
L 167.898457 198.615371 
L 168.624429 207.405546 
L 169.3504 232.563031 
L 170.076372 212.901027 
L 170.802344 246.208227 
L 171.528316 242.844839 
L 172.254287 235.58478 
L 172.980259 242.694768 
L 173.706231 234.839974 
L 174.432202 223.645288 
L 175.158174 239.854172 
L 175.884146 238.57823 
L 176.610117 245.935507 
L 177.336089 222.744716 
L 178.062061 191.911918 
L 178.788033 222.335006 
L 179.514004 268.35481 
L 180.239976 261.023653 
L 180.965948 242.821379 
L 181.691919 237.120925 
L 182.417891 240.142142 
L 183.143863 262.234852 
L 183.869835 235.987256 
L 184.595806 250.874566 
L 185.321778 219.77163 
L 186.773721 256.507267 
L 187.499693 217.247297 
L 188.225665 253.343785 
L 188.951636 225.10853 
L 189.677608 245.41881 
L 190.40358 221.014354 
L 191.129552 232.695916 
L 191.855523 257.43446 
L 192.581495 217.674258 
L 193.307467 186.03053 
L 194.75941 262.276769 
L 195.485382 209.653069 
L 196.211353 204.021792 
L 196.937325 171.787911 
L 197.663297 248.650397 
L 198.389269 247.65896 
L 199.841212 187.141228 
L 200.567184 254.213959 
L 201.293155 178.908666 
L 202.019127 167.451683 
L 203.47107 230.373205 
L 204.197042 228.068002 
L 204.923014 270.795993 
L 205.648986 190.78741 
L 206.374957 130.876698 
L 207.100929 237.60058 
L 207.826901 258.782141 
L 208.552872 216.355824 
L 209.278844 182.67956 
L 210.004816 241.085707 
L 210.730788 231.068183 
L 211.456759 207.894332 
L 212.182731 245.630056 
L 212.908703 274.783022 
L 213.634674 233.985956 
L 214.360646 247.977616 
L 215.086618 120.34844 
L 215.812589 246.586246 
L 216.538561 143.628294 
L 217.264533 228.803787 
L 217.990505 180.86817 
L 218.716476 245.092731 
L 219.442448 250.391447 
L 220.16842 206.754477 
L 220.894391 243.277094 
L 221.620363 264.990623 
L 222.346335 248.699965 
L 223.072306 179.103731 
L 223.798278 235.211441 
L 224.52425 238.675211 
L 225.250222 213.972657 
L 225.976193 201.435389 
L 226.702165 253.349078 
L 227.428137 233.534434 
L 228.154108 232.449947 
L 228.88008 243.790312 
L 229.606052 234.194898 
L 230.332023 245.513202 
L 231.057995 239.521411 
L 231.783967 237.944484 
L 232.509939 248.480572 
L 233.23591 222.355162 
L 233.961882 200.773303 
L 234.687854 191.918331 
L 235.413825 199.464983 
L 236.865769 271.216402 
L 237.591741 268.339733 
L 238.317712 244.415001 
L 239.043684 254.421955 
L 239.769656 266.642874 
L 240.495627 161.520646 
L 241.221599 264.009909 
L 241.947571 256.08915 
L 242.673542 244.257981 
L 243.399514 246.529929 
L 244.125486 260.755255 
L 244.851458 230.441452 
L 245.577429 261.775313 
L 246.303401 255.653851 
L 247.029373 235.453022 
L 247.755344 223.267194 
L 248.481316 267.213602 
L 249.207288 135.818418 
L 249.933259 185.364045 
L 250.659231 259.230016 
L 251.385203 208.409922 
L 252.111175 235.315688 
L 252.837146 247.629155 
L 253.563118 234.831949 
L 254.28909 244.71093 
L 255.015061 258.509551 
L 255.741033 268.360082 
L 256.467005 247.309056 
L 257.192977 234.414517 
L 257.918948 247.778433 
L 258.64492 249.643692 
L 259.370892 167.196605 
L 260.096863 236.697969 
L 260.822835 251.152262 
L 261.548807 199.253188 
L 262.274778 254.874418 
L 263.00075 227.712443 
L 263.726722 224.029039 
L 264.452694 236.801109 
L 265.178665 242.842655 
L 265.904637 221.603421 
L 266.630609 229.275936 
L 267.35658 228.608855 
L 268.082552 238.744196 
L 268.808524 223.093438 
L 269.534495 231.959337 
L 270.260467 183.612726 
L 270.986439 241.41192 
L 271.712411 192.846374 
L 272.438382 235.696794 
L 273.164354 197.396197 
L 273.890326 246.471228 
L 274.616297 221.654527 
L 275.342269 245.759927 
L 276.068241 217.029482 
L 276.794212 248.547835 
L 277.520184 228.166422 
L 278.246156 228.599066 
L 278.972128 212.491517 
L 279.698099 227.744369 
L 280.424071 206.201921 
L 281.150043 220.092591 
L 281.876014 161.02852 
L 282.601986 273.773685 
L 283.327958 169.785865 
L 284.05393 206.434297 
L 284.779901 170.446158 
L 285.505873 192.306667 
L 286.231845 160.723491 
L 286.957816 248.854029 
L 288.40976 213.683513 
L 289.135731 250.636225 
L 289.861703 258.284773 
L 290.587675 233.466812 
L 291.313647 218.304712 
L 292.039618 244.87193 
L 292.76559 221.852244 
L 293.491562 249.011827 
L 294.217533 235.72487 
L 294.943505 204.186194 
L 295.669477 213.042009 
L 296.395448 243.142609 
L 297.12142 212.223352 
L 297.847392 203.012697 
L 298.573364 248.663966 
L 299.299335 247.568078 
L 300.025307 180.906519 
L 300.751279 210.985414 
L 301.47725 224.877905 
L 302.203222 250.978579 
L 302.929194 223.815689 
L 303.655165 248.464045 
L 304.381137 263.16024 
L 305.107109 250.463595 
L 305.833081 136.018059 
L 306.559052 209.334466 
L 307.285024 271.252529 
L 308.010996 239.237654 
L 308.736967 236.427367 
L 309.462939 214.232675 
L 310.188911 241.940647 
L 310.914883 222.469278 
L 311.640854 265.577876 
L 312.366826 227.073058 
L 313.092798 167.316535 
L 313.818769 256.254741 
L 314.544741 174.619439 
L 315.270713 238.147548 
L 315.996684 259.887802 
L 316.722656 260.365565 
L 317.448628 195.520112 
L 318.1746 259.652235 
L 318.900571 254.539206 
L 319.626543 250.252618 
L 320.352515 225.116444 
L 321.078486 171.587698 
L 321.804458 184.798944 
L 322.53043 255.013893 
L 323.256401 260.833269 
L 323.982373 233.268632 
L 324.708345 195.681045 
L 325.434317 257.831759 
L 326.160288 221.500478 
L 326.88626 219.122035 
L 327.612232 265.23478 
L 328.338203 195.041282 
L 329.064175 245.446271 
L 329.790147 235.562952 
L 330.516118 237.712703 
L 331.24209 236.694375 
L 331.968062 236.599364 
L 332.694034 235.955647 
L 333.420005 253.445192 
L 334.145977 245.790605 
L 334.871949 227.442132 
L 335.59792 194.786302 
L 337.049864 262.735937 
L 337.775836 200.507406 
L 338.501807 259.737438 
L 339.227779 227.474042 
L 339.953751 230.195999 
L 340.679722 248.666246 
L 341.405694 245.940299 
L 342.131666 232.022617 
L 342.857637 156.76694 
L 343.583609 264.26925 
L 344.309581 231.49827 
L 345.035553 233.389409 
L 345.761524 238.156103 
L 346.487496 235.468586 
L 347.213468 224.819517 
L 347.939439 221.52633 
L 348.665411 235.412922 
L 349.391383 239.836784 
L 350.117354 228.87245 
L 350.843326 259.464132 
L 351.569298 241.003844 
L 352.29527 261.98814 
L 353.021241 258.625192 
L 353.747213 222.671685 
L 354.473185 253.14682 
L 355.199156 229.46219 
L 355.925128 221.979257 
L 356.6511 220.570196 
L 357.377071 246.284911 
L 358.829015 200.515579 
L 359.554987 239.723832 
L 360.280958 237.302534 
L 361.00693 233.053668 
L 361.732902 197.281537 
L 362.458873 225.498826 
L 363.184845 214.366035 
L 363.910817 242.794369 
L 364.636789 224.318291 
L 365.36276 240.677135 
L 366.088732 262.621509 
L 366.814704 195.997493 
L 367.540675 238.800724 
L 368.266647 267.201237 
L 368.992619 197.869282 
L 369.71859 256.766879 
L 370.444562 209.428346 
L 371.170534 199.151987 
L 371.896506 239.472924 
L 372.622477 244.457727 
L 373.348449 197.143504 
L 374.074421 221.091816 
L 374.800392 219.181538 
L 375.526364 185.114653 
L 376.252336 226.40013 
L 376.978307 249.611333 
L 377.704279 233.40074 
L 378.430251 209.392152 
L 379.156223 179.93052 
L 379.882194 203.975438 
L 380.608166 206.240602 
L 381.334138 197.148369 
L 382.060109 221.075619 
L 382.786081 219.607723 
L 383.512053 208.384368 
L 384.238024 234.375876 
L 384.963996 188.817943 
L 385.689968 227.395906 
L 386.41594 210.793032 
L 387.141911 223.21985 
L 387.867883 195.601481 
L 388.593855 233.337008 
L 389.319826 230.583694 
L 390.045798 222.038565 
L 390.77177 256.479584 
L 391.497742 237.797246 
L 392.223713 258.249184 
L 392.949685 187.291714 
L 393.675657 179.853637 
L 394.401628 254.336511 
L 395.1276 186.993379 
L 395.853572 203.67672 
L 396.579543 200.366084 
L 397.305515 201.675276 
L 398.031487 169.800315 
L 398.757459 255.596292 
L 399.48343 210.804326 
L 400.209402 242.383851 
L 400.935374 243.188543 
L 401.661345 216.001748 
L 402.387317 234.389842 
L 403.113289 223.568257 
L 403.83926 258.950493 
L 404.565232 264.796628 
L 405.291204 235.973003 
L 406.017176 240.138832 
L 406.743147 237.686598 
L 407.469119 225.201888 
L 408.195091 234.884572 
L 408.921062 238.838128 
L 409.647034 235.758582 
L 410.373006 234.778404 
L 411.098977 233.412287 
L 411.824949 243.325106 
L 413.276893 229.895927 
L 414.002864 237.755606 
L 414.728836 224.286149 
L 415.454808 258.082632 
L 416.180779 240.743487 
L 416.906751 227.438225 
L 417.632723 199.149326 
L 418.358695 225.651536 
L 419.084666 217.720177 
L 419.810638 234.347213 
L 420.53661 222.022066 
L 421.262581 240.80957 
L 421.988553 253.241459 
L 422.714525 230.851665 
L 423.440496 236.043043 
L 424.166468 209.610017 
L 424.89244 233.196318 
L 425.618412 195.790591 
L 426.344383 236.51412 
L 427.070355 193.154266 
L 427.796327 238.042411 
L 428.522298 207.018654 
L 429.24827 236.140574 
L 429.974242 240.472249 
L 430.700213 239.439794 
L 431.426185 237.130477 
L 432.152157 233.479965 
L 432.878129 231.802012 
L 433.6041 236.564779 
L 434.330072 200.831476 
L 435.056044 242.025402 
L 435.782015 214.248616 
L 436.507987 234.942878 
L 437.233959 210.646719 
L 437.95993 238.182892 
L 438.685902 238.409585 
L 439.411874 195.225445 
L 440.863817 252.181616 
L 441.589789 236.083983 
L 442.315761 230.536681 
L 443.041732 237.195 
L 443.767704 233.119512 
L 444.493676 235.691172 
L 445.219648 235.916675 
L 445.945619 235.953119 
L 446.671591 237.3697 
L 446.671591 237.3697 
" style="fill:none;stroke:#2ca02c;stroke-linecap:square;stroke-width:1.5;"/>
   </g>
   <g id="line2d_4">
    <path clip-path="url(#p8c4619876f)" d="M 40.853409 210.796102 
L 41.579381 275.789388 
L 42.305352 245.055128 
L 43.031324 261.446186 
L 43.757296 262.623084 
L 44.483268 226.083725 
L 45.209239 242.672161 
L 45.935211 211.127135 
L 46.661183 225.100344 
L 47.387154 271.641934 
L 48.113126 247.540781 
L 48.839098 200.027067 
L 49.56507 261.009178 
L 50.291041 232.438729 
L 51.017013 269.805745 
L 51.742985 166.433021 
L 52.468956 252.909274 
L 53.194928 256.985789 
L 53.9209 229.829862 
L 54.646871 248.124773 
L 56.098815 238.592698 
L 56.824787 232.004897 
L 57.550758 253.091291 
L 58.27673 214.70641 
L 59.002702 246.518337 
L 59.728673 266.792033 
L 60.454645 267.926779 
L 61.180617 239.481584 
L 61.906588 266.767368 
L 62.63256 237.441547 
L 63.358532 246.865786 
L 64.084504 233.040813 
L 64.810475 257.011163 
L 65.536447 266.463714 
L 66.262419 271.063141 
L 66.98839 249.771334 
L 67.714362 250.368155 
L 68.440334 255.93945 
L 69.166305 232.697371 
L 69.892277 267.381253 
L 70.618249 245.87869 
L 71.344221 243.025471 
L 72.070192 238.293979 
L 72.796164 240.777524 
L 73.522136 265.106439 
L 74.248107 235.633453 
L 74.974079 271.256047 
L 75.700051 170.618242 
L 76.426023 242.845287 
L 77.151994 202.581549 
L 77.877966 231.035037 
L 79.329909 194.081883 
L 80.055881 200.892663 
L 80.781853 200.246639 
L 81.507824 273.197029 
L 82.233796 275.333638 
L 82.959768 235.634977 
L 83.68574 146.861915 
L 85.137683 241.785552 
L 85.863655 164.505319 
L 86.589626 266.094422 
L 87.315598 248.833232 
L 88.04157 267.622325 
L 88.767541 234.414964 
L 89.493513 254.310991 
L 90.219485 240.633274 
L 90.945457 246.558399 
L 91.671428 278.31386 
L 92.3974 271.241612 
L 93.123372 250.87703 
L 93.849343 245.980801 
L 94.575315 199.58622 
L 95.301287 143.06612 
L 96.027258 246.04601 
L 96.75323 244.252451 
L 97.479202 164.712681 
L 98.205174 244.318632 
L 98.931145 246.733926 
L 99.657117 243.821676 
L 100.383089 201.754487 
L 101.835032 277.602783 
L 102.561004 227.088623 
L 103.286976 241.866123 
L 104.012947 233.653438 
L 104.738919 255.224695 
L 105.464891 253.288675 
L 106.190862 252.100996 
L 106.916834 267.427424 
L 107.642806 273.899858 
L 108.368777 98.64387 
L 109.094749 249.1007 
L 109.820721 270.620117 
L 110.546693 209.321073 
L 111.272664 177.211778 
L 111.998636 241.110964 
L 112.724608 209.641703 
L 113.450579 242.511752 
L 114.176551 247.604254 
L 114.902523 229.110617 
L 115.628494 227.676479 
L 116.354466 252.859368 
L 117.080438 238.393808 
L 117.80641 250.213525 
L 118.532381 125.212317 
L 119.258353 141.709044 
L 119.984325 218.528659 
L 120.710296 237.946894 
L 121.436268 249.809909 
L 122.16224 272.304553 
L 122.888211 212.476243 
L 123.614183 184.528513 
L 124.340155 190.195423 
L 125.066127 231.268594 
L 126.51807 247.733399 
L 127.244042 268.737558 
L 127.970013 187.773446 
L 128.695985 219.789737 
L 129.421957 232.210166 
L 130.147929 262.652881 
L 130.8739 264.801983 
L 131.599872 97.921904 
L 132.325844 229.185223 
L 133.051815 277.977768 
L 134.503759 224.162919 
L 135.22973 163.837086 
L 135.955702 221.845917 
L 136.681674 208.973921 
L 137.407646 246.012361 
L 138.133617 201.214414 
L 138.859589 234.73577 
L 139.585561 241.650082 
L 140.311532 245.429089 
L 141.037504 246.181192 
L 141.763476 251.869326 
L 142.489447 130.251902 
L 143.215419 222.163205 
L 143.941391 166.32693 
L 144.667363 239.466118 
L 145.393334 262.327591 
L 146.119306 258.943153 
L 146.845278 253.919881 
L 147.571249 238.597363 
L 148.297221 177.619957 
L 149.023193 200.348054 
L 149.749164 119.859229 
L 150.475136 146.459234 
L 151.201108 214.90904 
L 151.92708 252.236837 
L 152.653051 238.384365 
L 153.379023 254.665185 
L 154.104995 221.817601 
L 154.830966 242.856716 
L 155.556938 251.827171 
L 156.28291 205.577712 
L 157.008882 232.726743 
L 157.734853 205.447114 
L 158.460825 256.887723 
L 159.186797 242.0641 
L 159.912768 222.860195 
L 160.63874 249.578235 
L 161.364712 206.793143 
L 162.090683 261.139749 
L 162.816655 248.256576 
L 163.542627 267.580635 
L 164.268599 236.012731 
L 164.99457 239.713657 
L 165.720542 242.763623 
L 166.446514 244.765198 
L 167.172485 252.247275 
L 167.898457 240.542686 
L 168.624429 146.673018 
L 169.3504 215.656733 
L 170.076372 236.225535 
L 170.802344 235.223634 
L 171.528316 274.261881 
L 172.254287 164.224515 
L 172.980259 272.659755 
L 173.706231 257.023138 
L 174.432202 256.123676 
L 175.158174 272.556695 
L 175.884146 266.862255 
L 176.610117 233.814574 
L 177.336089 233.917908 
L 178.062061 159.853706 
L 178.788033 188.259189 
L 179.514004 274.756754 
L 180.239976 271.882312 
L 180.965948 269.861747 
L 181.691919 239.076148 
L 182.417891 244.033693 
L 183.143863 262.77869 
L 183.869835 272.632247 
L 184.595806 237.410367 
L 185.321778 233.090895 
L 186.04775 257.45088 
L 186.773721 225.948283 
L 187.499693 237.83738 
L 188.225665 236.186173 
L 188.951636 246.863896 
L 189.677608 238.228718 
L 190.40358 233.324966 
L 191.129552 156.403434 
L 191.855523 268.791961 
L 192.581495 197.219169 
L 193.307467 243.783201 
L 194.033438 238.987552 
L 194.75941 275.978724 
L 195.485382 269.482375 
L 196.211353 241.89143 
L 196.937325 241.035113 
L 197.663297 257.952326 
L 198.389269 245.206671 
L 199.11524 183.645964 
L 199.841212 212.935389 
L 200.567184 232.667292 
L 201.293155 199.417187 
L 202.019127 252.8591 
L 202.745099 194.080374 
L 203.47107 218.568841 
L 204.197042 219.76365 
L 204.923014 276.781143 
L 205.648986 248.977842 
L 206.374957 239.855316 
L 207.100929 208.572507 
L 207.826901 262.608334 
L 208.552872 238.337717 
L 209.278844 209.185736 
L 210.004816 205.112519 
L 210.730788 221.818061 
L 211.456759 259.988193 
L 212.182731 180.571892 
L 212.908703 257.4852 
L 213.634674 199.845586 
L 214.360646 257.397626 
L 215.086618 230.311811 
L 215.812589 208.397901 
L 216.538561 241.159931 
L 217.264533 241.052031 
L 217.990505 202.315225 
L 218.716476 251.125527 
L 219.442448 263.346197 
L 220.16842 258.457684 
L 220.894391 269.952894 
L 221.620363 227.784228 
L 222.346335 256.127884 
L 223.072306 214.168785 
L 223.798278 247.274588 
L 224.52425 245.330162 
L 225.250222 253.425946 
L 225.976193 247.82627 
L 226.702165 243.742821 
L 227.428137 247.930529 
L 228.154108 249.97307 
L 228.88008 244.523613 
L 230.332023 257.589195 
L 231.057995 237.62257 
L 231.783967 213.802514 
L 232.509939 254.859113 
L 233.23591 232.936885 
L 233.961882 205.167039 
L 234.687854 250.554662 
L 235.413825 239.74317 
L 236.139797 206.4045 
L 236.865769 277.409213 
L 237.591741 256.702498 
L 238.317712 243.650134 
L 239.043684 259.27733 
L 239.769656 224.333146 
L 240.495627 198.290318 
L 241.221599 244.791587 
L 241.947571 262.315839 
L 242.673542 245.143811 
L 243.399514 253.914008 
L 244.125486 261.233785 
L 244.851458 244.47234 
L 245.577429 264.137328 
L 246.303401 257.885848 
L 247.029373 259.581087 
L 247.755344 145.897737 
L 248.481316 262.652488 
L 249.207288 249.739621 
L 249.933259 200.273746 
L 250.659231 269.544502 
L 251.385203 242.031922 
L 252.111175 259.622561 
L 252.837146 254.469344 
L 253.563118 198.884664 
L 254.28909 213.277822 
L 255.015061 256.493239 
L 255.741033 271.644932 
L 256.467005 186.09381 
L 257.192977 203.891233 
L 257.918948 248.874878 
L 258.64492 234.638796 
L 259.370892 242.438111 
L 260.096863 246.17225 
L 260.822835 232.189981 
L 261.548807 226.73974 
L 262.274778 235.914791 
L 263.00075 239.987829 
L 263.726722 232.930607 
L 264.452694 248.159718 
L 265.178665 247.980671 
L 265.904637 241.31647 
L 266.630609 244.656815 
L 267.35658 232.98963 
L 268.082552 245.096362 
L 268.808524 237.310254 
L 269.534495 243.160951 
L 270.260467 247.118928 
L 270.986439 246.803673 
L 271.712411 239.06404 
L 272.438382 226.419077 
L 273.164354 219.088988 
L 273.890326 234.116548 
L 274.616297 245.061586 
L 275.342269 200.842261 
L 276.068241 244.699388 
L 276.794212 190.320823 
L 277.520184 245.754204 
L 278.246156 220.789893 
L 278.972128 217.386485 
L 279.698099 234.778543 
L 281.150043 196.454777 
L 281.876014 247.329627 
L 282.601986 279.060521 
L 283.327958 238.716262 
L 284.05393 260.440257 
L 284.779901 244.588588 
L 285.505873 241.635933 
L 286.231845 230.736579 
L 286.957816 194.560888 
L 287.683788 266.97424 
L 288.40976 219.695428 
L 289.135731 256.047836 
L 289.861703 258.686377 
L 290.587675 237.599324 
L 291.313647 245.047158 
L 292.039618 222.638609 
L 292.76559 252.261099 
L 293.491562 190.621461 
L 294.217533 251.220861 
L 294.943505 251.085808 
L 295.669477 248.760801 
L 296.395448 237.198513 
L 297.12142 236.168456 
L 297.847392 251.372158 
L 298.573364 232.476739 
L 299.299335 275.190745 
L 300.025307 229.688388 
L 300.751279 241.494963 
L 301.47725 244.106541 
L 302.203222 261.357531 
L 302.929194 237.945117 
L 303.655165 276.797395 
L 304.381137 275.056182 
L 305.107109 248.2075 
L 305.833081 141.173714 
L 306.559052 245.620254 
L 307.285024 275.8536 
L 308.010996 232.597027 
L 308.736967 259.144426 
L 309.462939 243.991312 
L 310.188911 201.719534 
L 310.914883 248.355798 
L 311.640854 270.947366 
L 312.366826 248.231707 
L 313.092798 256.718069 
L 313.818769 223.783416 
L 314.544741 246.551164 
L 315.270713 250.577948 
L 315.996684 243.397775 
L 316.722656 268.717066 
L 317.448628 249.804276 
L 318.1746 263.36592 
L 318.900571 225.732904 
L 319.626543 244.391456 
L 320.352515 237.354155 
L 321.078486 239.653701 
L 322.53043 246.308318 
L 323.982373 223.149955 
L 324.708345 239.912461 
L 325.434317 245.552346 
L 326.160288 235.294298 
L 326.88626 247.623189 
L 328.338203 234.310325 
L 329.064175 241.18298 
L 329.790147 240.249177 
L 330.516118 245.012347 
L 331.24209 244.693247 
L 331.968062 243.316172 
L 332.694034 230.777932 
L 333.420005 250.783206 
L 334.145977 239.973599 
L 334.871949 241.058841 
L 335.59792 231.047857 
L 336.323892 239.667466 
L 337.049864 244.578018 
L 337.775836 216.184157 
L 338.501807 237.580069 
L 339.227779 235.199961 
L 339.953751 254.696545 
L 340.679722 248.82158 
L 341.405694 261.208662 
L 342.131666 234.866948 
L 342.857637 213.483882 
L 343.583609 266.916983 
L 344.309581 242.745139 
L 345.035553 239.813164 
L 345.761524 239.241251 
L 346.487496 249.371164 
L 347.213468 232.659671 
L 348.665411 255.21878 
L 349.391383 255.877892 
L 350.117354 237.078561 
L 350.843326 266.288374 
L 351.569298 204.662118 
L 352.29527 268.425657 
L 353.021241 252.280429 
L 353.747213 184.30541 
L 354.473185 240.558868 
L 355.925128 227.558229 
L 356.6511 241.380721 
L 357.377071 263.788154 
L 358.103043 235.191987 
L 358.829015 178.405768 
L 359.554987 251.33114 
L 360.280958 262.848837 
L 361.00693 238.897884 
L 361.732902 250.943153 
L 362.458873 254.348616 
L 363.184845 243.912916 
L 363.910817 242.111527 
L 364.636789 230.49787 
L 365.36276 258.714323 
L 366.088732 266.125009 
L 366.814704 239.414667 
L 367.540675 241.251647 
L 368.266647 268.839882 
L 368.992619 244.315312 
L 369.71859 262.922992 
L 370.444562 248.613972 
L 371.170534 240.253829 
L 371.896506 259.892618 
L 372.622477 261.889586 
L 373.348449 242.222425 
L 374.074421 249.797001 
L 374.800392 254.442666 
L 375.526364 173.654636 
L 376.978307 269.23284 
L 377.704279 234.107063 
L 379.156223 182.0352 
L 379.882194 210.08787 
L 380.608166 217.233921 
L 381.334138 213.971208 
L 382.060109 225.334244 
L 382.786081 245.234421 
L 383.512053 241.663755 
L 384.238024 260.21535 
L 384.963996 188.572464 
L 385.689968 214.025805 
L 386.41594 223.741183 
L 387.141911 219.246761 
L 387.867883 242.300724 
L 388.593855 211.926491 
L 389.319826 216.189309 
L 390.045798 253.580739 
L 390.77177 269.251079 
L 391.497742 202.052286 
L 392.223713 251.703275 
L 392.949685 233.597321 
L 393.675657 238.985008 
L 394.401628 249.987384 
L 395.1276 208.099139 
L 395.853572 248.685802 
L 396.579543 247.920997 
L 397.305515 234.972953 
L 398.031487 228.02725 
L 398.757459 247.331418 
L 399.48343 243.371077 
L 400.209402 246.429836 
L 400.935374 244.321716 
L 401.661345 207.566394 
L 402.387317 243.504074 
L 403.113289 230.015559 
L 403.83926 265.916637 
L 404.565232 263.567037 
L 405.291204 259.03386 
L 406.017176 237.599034 
L 406.743147 255.387901 
L 407.469119 237.577573 
L 408.195091 255.613074 
L 408.921062 256.330343 
L 409.647034 268.178619 
L 410.373006 247.762884 
L 411.098977 263.599641 
L 411.824949 209.634543 
L 412.550921 259.791503 
L 413.276893 240.443824 
L 414.002864 239.022121 
L 414.728836 200.047837 
L 415.454808 259.214385 
L 416.180779 261.589174 
L 416.906751 233.922798 
L 417.632723 236.988127 
L 418.358695 241.615458 
L 419.084666 242.794308 
L 419.810638 239.558207 
L 421.262581 246.024378 
L 421.988553 237.915454 
L 422.714525 240.158875 
L 423.440496 246.687139 
L 424.166468 243.265657 
L 424.89244 235.077235 
L 425.618412 249.3702 
L 426.344383 239.07663 
L 427.070355 239.666173 
L 427.796327 239.834784 
L 428.522298 242.814432 
L 429.24827 239.535638 
L 429.974242 242.498886 
L 430.700213 242.477853 
L 431.426185 242.275012 
L 432.152157 247.7458 
L 432.878129 239.652199 
L 433.6041 243.074427 
L 434.330072 233.986981 
L 435.056044 243.563203 
L 435.782015 248.254813 
L 436.507987 242.088862 
L 437.233959 237.276838 
L 437.95993 242.650188 
L 438.685902 240.447904 
L 439.411874 242.239661 
L 440.137846 249.718728 
L 440.863817 240.538878 
L 441.589789 240.272144 
L 442.315761 240.937915 
L 443.041732 241.876754 
L 443.767704 241.066372 
L 444.493676 242.706316 
L 445.219648 256.812322 
L 445.945619 241.259922 
L 446.671591 242.931283 
L 446.671591 242.931283 
" style="fill:none;stroke:#d62728;stroke-linecap:square;stroke-width:1.5;"/>
   </g>
   <g id="line2d_5">
    <path clip-path="url(#p8c4619876f)" d="M 40.853409 242.9552 
L 446.671591 242.9552 
L 446.671591 242.9552 
" style="fill:none;stroke:#000000;stroke-dasharray:3.7,1.6;stroke-dashoffset:0;"/>
   </g>
   <g id="matplotlib.axis_1">
    <g id="xtick_1">
     <g id="line2d_6">
      <defs>
       <path d="M 0 0 
L 0 3.5 
" id="m6593b0a58e" style="stroke:#000000;stroke-width:0.8;"/>
      </defs>
      <g>
       <use style="stroke:#000000;stroke-width:0.8;" x="61.906588" xlink:href="#m6593b0a58e" y="294.118125"/>
      </g>
     </g>
     <g id="text_1">
      <!-- 100 -->
      <defs>
       <path d="M 12.40625 8.296875 
L 28.515625 8.296875 
L 28.515625 63.921875 
L 10.984375 60.40625 
L 10.984375 69.390625 
L 28.421875 72.90625 
L 38.28125 72.90625 
L 38.28125 8.296875 
L 54.390625 8.296875 
L 54.390625 0 
L 12.40625 0 
z
" id="DejaVuSans-49"/>
       <path d="M 31.78125 66.40625 
Q 24.171875 66.40625 20.328125 58.90625 
Q 16.5 51.421875 16.5 36.375 
Q 16.5 21.390625 20.328125 13.890625 
Q 24.171875 6.390625 31.78125 6.390625 
Q 39.453125 6.390625 43.28125 13.890625 
Q 47.125 21.390625 47.125 36.375 
Q 47.125 51.421875 43.28125 58.90625 
Q 39.453125 66.40625 31.78125 66.40625 
z
M 31.78125 74.21875 
Q 44.046875 74.21875 50.515625 64.515625 
Q 56.984375 54.828125 56.984375 36.375 
Q 56.984375 17.96875 50.515625 8.265625 
Q 44.046875 -1.421875 31.78125 -1.421875 
Q 19.53125 -1.421875 13.0625 8.265625 
Q 6.59375 17.96875 6.59375 36.375 
Q 6.59375 54.828125 13.0625 64.515625 
Q 19.53125 74.21875 31.78125 74.21875 
z
" id="DejaVuSans-48"/>
      </defs>
      <g transform="translate(52.362838 308.716563)scale(0.1 -0.1)">
       <use xlink:href="#DejaVuSans-49"/>
       <use x="63.623047" xlink:href="#DejaVuSans-48"/>
       <use x="127.246094" xlink:href="#DejaVuSans-48"/>
      </g>
     </g>
    </g>
    <g id="xtick_2">
     <g id="line2d_7">
      <g>
       <use style="stroke:#000000;stroke-width:0.8;" x="134.503759" xlink:href="#m6593b0a58e" y="294.118125"/>
      </g>
     </g>
     <g id="text_2">
      <!-- 200 -->
      <defs>
       <path d="M 19.1875 8.296875 
L 53.609375 8.296875 
L 53.609375 0 
L 7.328125 0 
L 7.328125 8.296875 
Q 12.9375 14.109375 22.625 23.890625 
Q 32.328125 33.6875 34.8125 36.53125 
Q 39.546875 41.84375 41.421875 45.53125 
Q 43.3125 49.21875 43.3125 52.78125 
Q 43.3125 58.59375 39.234375 62.25 
Q 35.15625 65.921875 28.609375 65.921875 
Q 23.96875 65.921875 18.8125 64.3125 
Q 13.671875 62.703125 7.8125 59.421875 
L 7.8125 69.390625 
Q 13.765625 71.78125 18.9375 73 
Q 24.125 74.21875 28.421875 74.21875 
Q 39.75 74.21875 46.484375 68.546875 
Q 53.21875 62.890625 53.21875 53.421875 
Q 53.21875 48.921875 51.53125 44.890625 
Q 49.859375 40.875 45.40625 35.40625 
Q 44.1875 33.984375 37.640625 27.21875 
Q 31.109375 20.453125 19.1875 8.296875 
z
" id="DejaVuSans-50"/>
      </defs>
      <g transform="translate(124.960009 308.716563)scale(0.1 -0.1)">
       <use xlink:href="#DejaVuSans-50"/>
       <use x="63.623047" xlink:href="#DejaVuSans-48"/>
       <use x="127.246094" xlink:href="#DejaVuSans-48"/>
      </g>
     </g>
    </g>
    <g id="xtick_3">
     <g id="line2d_8">
      <g>
       <use style="stroke:#000000;stroke-width:0.8;" x="207.100929" xlink:href="#m6593b0a58e" y="294.118125"/>
      </g>
     </g>
     <g id="text_3">
      <!-- 300 -->
      <defs>
       <path d="M 40.578125 39.3125 
Q 47.65625 37.796875 51.625 33 
Q 55.609375 28.21875 55.609375 21.1875 
Q 55.609375 10.40625 48.1875 4.484375 
Q 40.765625 -1.421875 27.09375 -1.421875 
Q 22.515625 -1.421875 17.65625 -0.515625 
Q 12.796875 0.390625 7.625 2.203125 
L 7.625 11.71875 
Q 11.71875 9.328125 16.59375 8.109375 
Q 21.484375 6.890625 26.8125 6.890625 
Q 36.078125 6.890625 40.9375 10.546875 
Q 45.796875 14.203125 45.796875 21.1875 
Q 45.796875 27.640625 41.28125 31.265625 
Q 36.765625 34.90625 28.71875 34.90625 
L 20.21875 34.90625 
L 20.21875 43.015625 
L 29.109375 43.015625 
Q 36.375 43.015625 40.234375 45.921875 
Q 44.09375 48.828125 44.09375 54.296875 
Q 44.09375 59.90625 40.109375 62.90625 
Q 36.140625 65.921875 28.71875 65.921875 
Q 24.65625 65.921875 20.015625 65.03125 
Q 15.375 64.15625 9.8125 62.3125 
L 9.8125 71.09375 
Q 15.4375 72.65625 20.34375 73.4375 
Q 25.25 74.21875 29.59375 74.21875 
Q 40.828125 74.21875 47.359375 69.109375 
Q 53.90625 64.015625 53.90625 55.328125 
Q 53.90625 49.265625 50.4375 45.09375 
Q 46.96875 40.921875 40.578125 39.3125 
z
" id="DejaVuSans-51"/>
      </defs>
      <g transform="translate(197.557179 308.716563)scale(0.1 -0.1)">
       <use xlink:href="#DejaVuSans-51"/>
       <use x="63.623047" xlink:href="#DejaVuSans-48"/>
       <use x="127.246094" xlink:href="#DejaVuSans-48"/>
      </g>
     </g>
    </g>
    <g id="xtick_4">
     <g id="line2d_9">
      <g>
       <use style="stroke:#000000;stroke-width:0.8;" x="279.698099" xlink:href="#m6593b0a58e" y="294.118125"/>
      </g>
     </g>
     <g id="text_4">
      <!-- 400 -->
      <defs>
       <path d="M 37.796875 64.3125 
L 12.890625 25.390625 
L 37.796875 25.390625 
z
M 35.203125 72.90625 
L 47.609375 72.90625 
L 47.609375 25.390625 
L 58.015625 25.390625 
L 58.015625 17.1875 
L 47.609375 17.1875 
L 47.609375 0 
L 37.796875 0 
L 37.796875 17.1875 
L 4.890625 17.1875 
L 4.890625 26.703125 
z
" id="DejaVuSans-52"/>
      </defs>
      <g transform="translate(270.154349 308.716563)scale(0.1 -0.1)">
       <use xlink:href="#DejaVuSans-52"/>
       <use x="63.623047" xlink:href="#DejaVuSans-48"/>
       <use x="127.246094" xlink:href="#DejaVuSans-48"/>
      </g>
     </g>
    </g>
    <g id="xtick_5">
     <g id="line2d_10">
      <g>
       <use style="stroke:#000000;stroke-width:0.8;" x="352.29527" xlink:href="#m6593b0a58e" y="294.118125"/>
      </g>
     </g>
     <g id="text_5">
      <!-- 500 -->
      <defs>
       <path d="M 10.796875 72.90625 
L 49.515625 72.90625 
L 49.515625 64.59375 
L 19.828125 64.59375 
L 19.828125 46.734375 
Q 21.96875 47.46875 24.109375 47.828125 
Q 26.265625 48.1875 28.421875 48.1875 
Q 40.625 48.1875 47.75 41.5 
Q 54.890625 34.8125 54.890625 23.390625 
Q 54.890625 11.625 47.5625 5.09375 
Q 40.234375 -1.421875 26.90625 -1.421875 
Q 22.3125 -1.421875 17.546875 -0.640625 
Q 12.796875 0.140625 7.71875 1.703125 
L 7.71875 11.625 
Q 12.109375 9.234375 16.796875 8.0625 
Q 21.484375 6.890625 26.703125 6.890625 
Q 35.15625 6.890625 40.078125 11.328125 
Q 45.015625 15.765625 45.015625 23.390625 
Q 45.015625 31 40.078125 35.4375 
Q 35.15625 39.890625 26.703125 39.890625 
Q 22.75 39.890625 18.8125 39.015625 
Q 14.890625 38.140625 10.796875 36.28125 
z
" id="DejaVuSans-53"/>
      </defs>
      <g transform="translate(342.75152 308.716563)scale(0.1 -0.1)">
       <use xlink:href="#DejaVuSans-53"/>
       <use x="63.623047" xlink:href="#DejaVuSans-48"/>
       <use x="127.246094" xlink:href="#DejaVuSans-48"/>
      </g>
     </g>
    </g>
    <g id="xtick_6">
     <g id="line2d_11">
      <g>
       <use style="stroke:#000000;stroke-width:0.8;" x="424.89244" xlink:href="#m6593b0a58e" y="294.118125"/>
      </g>
     </g>
     <g id="text_6">
      <!-- 600 -->
      <defs>
       <path d="M 33.015625 40.375 
Q 26.375 40.375 22.484375 35.828125 
Q 18.609375 31.296875 18.609375 23.390625 
Q 18.609375 15.53125 22.484375 10.953125 
Q 26.375 6.390625 33.015625 6.390625 
Q 39.65625 6.390625 43.53125 10.953125 
Q 47.40625 15.53125 47.40625 23.390625 
Q 47.40625 31.296875 43.53125 35.828125 
Q 39.65625 40.375 33.015625 40.375 
z
M 52.59375 71.296875 
L 52.59375 62.3125 
Q 48.875 64.0625 45.09375 64.984375 
Q 41.3125 65.921875 37.59375 65.921875 
Q 27.828125 65.921875 22.671875 59.328125 
Q 17.53125 52.734375 16.796875 39.40625 
Q 19.671875 43.65625 24.015625 45.921875 
Q 28.375 48.1875 33.59375 48.1875 
Q 44.578125 48.1875 50.953125 41.515625 
Q 57.328125 34.859375 57.328125 23.390625 
Q 57.328125 12.15625 50.6875 5.359375 
Q 44.046875 -1.421875 33.015625 -1.421875 
Q 20.359375 -1.421875 13.671875 8.265625 
Q 6.984375 17.96875 6.984375 36.375 
Q 6.984375 53.65625 15.1875 63.9375 
Q 23.390625 74.21875 37.203125 74.21875 
Q 40.921875 74.21875 44.703125 73.484375 
Q 48.484375 72.75 52.59375 71.296875 
z
" id="DejaVuSans-54"/>
      </defs>
      <g transform="translate(415.34869 308.716563)scale(0.1 -0.1)">
       <use xlink:href="#DejaVuSans-54"/>
       <use x="63.623047" xlink:href="#DejaVuSans-48"/>
       <use x="127.246094" xlink:href="#DejaVuSans-48"/>
      </g>
     </g>
    </g>
    <g id="text_7">
     <!-- Tempo -->
     <defs>
      <path d="M -0.296875 72.90625 
L 61.375 72.90625 
L 61.375 64.59375 
L 35.5 64.59375 
L 35.5 0 
L 25.59375 0 
L 25.59375 64.59375 
L -0.296875 64.59375 
z
" id="DejaVuSans-84"/>
      <path d="M 56.203125 29.59375 
L 56.203125 25.203125 
L 14.890625 25.203125 
Q 15.484375 15.921875 20.484375 11.0625 
Q 25.484375 6.203125 34.421875 6.203125 
Q 39.59375 6.203125 44.453125 7.46875 
Q 49.3125 8.734375 54.109375 11.28125 
L 54.109375 2.78125 
Q 49.265625 0.734375 44.1875 -0.34375 
Q 39.109375 -1.421875 33.890625 -1.421875 
Q 20.796875 -1.421875 13.15625 6.1875 
Q 5.515625 13.8125 5.515625 26.8125 
Q 5.515625 40.234375 12.765625 48.109375 
Q 20.015625 56 32.328125 56 
Q 43.359375 56 49.78125 48.890625 
Q 56.203125 41.796875 56.203125 29.59375 
z
M 47.21875 32.234375 
Q 47.125 39.59375 43.09375 43.984375 
Q 39.0625 48.390625 32.421875 48.390625 
Q 24.90625 48.390625 20.390625 44.140625 
Q 15.875 39.890625 15.1875 32.171875 
z
" id="DejaVuSans-101"/>
      <path d="M 52 44.1875 
Q 55.375 50.25 60.0625 53.125 
Q 64.75 56 71.09375 56 
Q 79.640625 56 84.28125 50.015625 
Q 88.921875 44.046875 88.921875 33.015625 
L 88.921875 0 
L 79.890625 0 
L 79.890625 32.71875 
Q 79.890625 40.578125 77.09375 44.375 
Q 74.3125 48.1875 68.609375 48.1875 
Q 61.625 48.1875 57.5625 43.546875 
Q 53.515625 38.921875 53.515625 30.90625 
L 53.515625 0 
L 44.484375 0 
L 44.484375 32.71875 
Q 44.484375 40.625 41.703125 44.40625 
Q 38.921875 48.1875 33.109375 48.1875 
Q 26.21875 48.1875 22.15625 43.53125 
Q 18.109375 38.875 18.109375 30.90625 
L 18.109375 0 
L 9.078125 0 
L 9.078125 54.6875 
L 18.109375 54.6875 
L 18.109375 46.1875 
Q 21.1875 51.21875 25.484375 53.609375 
Q 29.78125 56 35.6875 56 
Q 41.65625 56 45.828125 52.96875 
Q 50 49.953125 52 44.1875 
z
" id="DejaVuSans-109"/>
      <path d="M 18.109375 8.203125 
L 18.109375 -20.796875 
L 9.078125 -20.796875 
L 9.078125 54.6875 
L 18.109375 54.6875 
L 18.109375 46.390625 
Q 20.953125 51.265625 25.265625 53.625 
Q 29.59375 56 35.59375 56 
Q 45.5625 56 51.78125 48.09375 
Q 58.015625 40.1875 58.015625 27.296875 
Q 58.015625 14.40625 51.78125 6.484375 
Q 45.5625 -1.421875 35.59375 -1.421875 
Q 29.59375 -1.421875 25.265625 0.953125 
Q 20.953125 3.328125 18.109375 8.203125 
z
M 48.6875 27.296875 
Q 48.6875 37.203125 44.609375 42.84375 
Q 40.53125 48.484375 33.40625 48.484375 
Q 26.265625 48.484375 22.1875 42.84375 
Q 18.109375 37.203125 18.109375 27.296875 
Q 18.109375 17.390625 22.1875 11.75 
Q 26.265625 6.109375 33.40625 6.109375 
Q 40.53125 6.109375 44.609375 11.75 
Q 48.6875 17.390625 48.6875 27.296875 
z
" id="DejaVuSans-112"/>
      <path d="M 30.609375 48.390625 
Q 23.390625 48.390625 19.1875 42.75 
Q 14.984375 37.109375 14.984375 27.296875 
Q 14.984375 17.484375 19.15625 11.84375 
Q 23.34375 6.203125 30.609375 6.203125 
Q 37.796875 6.203125 41.984375 11.859375 
Q 46.1875 17.53125 46.1875 27.296875 
Q 46.1875 37.015625 41.984375 42.703125 
Q 37.796875 48.390625 30.609375 48.390625 
z
M 30.609375 56 
Q 42.328125 56 49.015625 48.375 
Q 55.71875 40.765625 55.71875 27.296875 
Q 55.71875 13.875 49.015625 6.21875 
Q 42.328125 -1.421875 30.609375 -1.421875 
Q 18.84375 -1.421875 12.171875 6.21875 
Q 5.515625 13.875 5.515625 27.296875 
Q 5.515625 40.765625 12.171875 48.375 
Q 18.84375 56 30.609375 56 
z
" id="DejaVuSans-111"/>
     </defs>
     <g transform="translate(227.378125 322.394687)scale(0.1 -0.1)">
      <use xlink:href="#DejaVuSans-84"/>
      <use x="44.083984" xlink:href="#DejaVuSans-101"/>
      <use x="105.607422" xlink:href="#DejaVuSans-109"/>
      <use x="203.019531" xlink:href="#DejaVuSans-112"/>
      <use x="266.496094" xlink:href="#DejaVuSans-111"/>
     </g>
    </g>
   </g>
   <g id="matplotlib.axis_2">
    <g id="ytick_1">
     <g id="line2d_12">
      <defs>
       <path d="M 0 0 
L -3.5 0 
" id="m19d46ce5c6" style="stroke:#000000;stroke-width:0.8;"/>
      </defs>
      <g>
       <use style="stroke:#000000;stroke-width:0.8;" x="20.5625" xlink:href="#m19d46ce5c6" y="242.9552"/>
      </g>
     </g>
     <g id="text_8">
      <!-- 0 -->
      <g transform="translate(7.2 246.754419)scale(0.1 -0.1)">
       <use xlink:href="#DejaVuSans-48"/>
      </g>
     </g>
    </g>
    <g id="ytick_2">
     <g id="line2d_13">
      <g>
       <use style="stroke:#000000;stroke-width:0.8;" x="20.5625" xlink:href="#m19d46ce5c6" y="191.661141"/>
      </g>
     </g>
     <g id="text_9">
      <!-- 1 -->
      <g transform="translate(7.2 195.460359)scale(0.1 -0.1)">
       <use xlink:href="#DejaVuSans-49"/>
      </g>
     </g>
    </g>
    <g id="ytick_3">
     <g id="line2d_14">
      <g>
       <use style="stroke:#000000;stroke-width:0.8;" x="20.5625" xlink:href="#m19d46ce5c6" y="140.367081"/>
      </g>
     </g>
     <g id="text_10">
      <!-- 2 -->
      <g transform="translate(7.2 144.1663)scale(0.1 -0.1)">
       <use xlink:href="#DejaVuSans-50"/>
      </g>
     </g>
    </g>
    <g id="ytick_4">
     <g id="line2d_15">
      <g>
       <use style="stroke:#000000;stroke-width:0.8;" x="20.5625" xlink:href="#m19d46ce5c6" y="89.073021"/>
      </g>
     </g>
     <g id="text_11">
      <!-- 3 -->
      <g transform="translate(7.2 92.87224)scale(0.1 -0.1)">
       <use xlink:href="#DejaVuSans-51"/>
      </g>
     </g>
    </g>
    <g id="ytick_5">
     <g id="line2d_16">
      <g>
       <use style="stroke:#000000;stroke-width:0.8;" x="20.5625" xlink:href="#m19d46ce5c6" y="37.778961"/>
      </g>
     </g>
     <g id="text_12">
      <!-- 4 -->
      <g transform="translate(7.2 41.57818)scale(0.1 -0.1)">
       <use xlink:href="#DejaVuSans-52"/>
      </g>
     </g>
    </g>
   </g>
   <g id="patch_3">
    <path d="M 20.5625 294.118125 
L 20.5625 22.318125 
" style="fill:none;stroke:#000000;stroke-linecap:square;stroke-linejoin:miter;stroke-width:0.8;"/>
   </g>
   <g id="patch_4">
    <path d="M 20.5625 294.118125 
L 466.9625 294.118125 
" style="fill:none;stroke:#000000;stroke-linecap:square;stroke-linejoin:miter;stroke-width:0.8;"/>
   </g>
   <g id="text_13">
    <!-- wbarocc -->
    <defs>
     <path d="M 4.203125 54.6875 
L 13.1875 54.6875 
L 24.421875 12.015625 
L 35.59375 54.6875 
L 46.1875 54.6875 
L 57.421875 12.015625 
L 68.609375 54.6875 
L 77.59375 54.6875 
L 63.28125 0 
L 52.6875 0 
L 40.921875 44.828125 
L 29.109375 0 
L 18.5 0 
z
" id="DejaVuSans-119"/>
     <path d="M 48.6875 27.296875 
Q 48.6875 37.203125 44.609375 42.84375 
Q 40.53125 48.484375 33.40625 48.484375 
Q 26.265625 48.484375 22.1875 42.84375 
Q 18.109375 37.203125 18.109375 27.296875 
Q 18.109375 17.390625 22.1875 11.75 
Q 26.265625 6.109375 33.40625 6.109375 
Q 40.53125 6.109375 44.609375 11.75 
Q 48.6875 17.390625 48.6875 27.296875 
z
M 18.109375 46.390625 
Q 20.953125 51.265625 25.265625 53.625 
Q 29.59375 56 35.59375 56 
Q 45.5625 56 51.78125 48.09375 
Q 58.015625 40.1875 58.015625 27.296875 
Q 58.015625 14.40625 51.78125 6.484375 
Q 45.5625 -1.421875 35.59375 -1.421875 
Q 29.59375 -1.421875 25.265625 0.953125 
Q 20.953125 3.328125 18.109375 8.203125 
L 18.109375 0 
L 9.078125 0 
L 9.078125 75.984375 
L 18.109375 75.984375 
z
" id="DejaVuSans-98"/>
     <path d="M 34.28125 27.484375 
Q 23.390625 27.484375 19.1875 25 
Q 14.984375 22.515625 14.984375 16.5 
Q 14.984375 11.71875 18.140625 8.90625 
Q 21.296875 6.109375 26.703125 6.109375 
Q 34.1875 6.109375 38.703125 11.40625 
Q 43.21875 16.703125 43.21875 25.484375 
L 43.21875 27.484375 
z
M 52.203125 31.203125 
L 52.203125 0 
L 43.21875 0 
L 43.21875 8.296875 
Q 40.140625 3.328125 35.546875 0.953125 
Q 30.953125 -1.421875 24.3125 -1.421875 
Q 15.921875 -1.421875 10.953125 3.296875 
Q 6 8.015625 6 15.921875 
Q 6 25.140625 12.171875 29.828125 
Q 18.359375 34.515625 30.609375 34.515625 
L 43.21875 34.515625 
L 43.21875 35.40625 
Q 43.21875 41.609375 39.140625 45 
Q 35.0625 48.390625 27.6875 48.390625 
Q 23 48.390625 18.546875 47.265625 
Q 14.109375 46.140625 10.015625 43.890625 
L 10.015625 52.203125 
Q 14.9375 54.109375 19.578125 55.046875 
Q 24.21875 56 28.609375 56 
Q 40.484375 56 46.34375 49.84375 
Q 52.203125 43.703125 52.203125 31.203125 
z
" id="DejaVuSans-97"/>
     <path d="M 41.109375 46.296875 
Q 39.59375 47.171875 37.8125 47.578125 
Q 36.03125 48 33.890625 48 
Q 26.265625 48 22.1875 43.046875 
Q 18.109375 38.09375 18.109375 28.8125 
L 18.109375 0 
L 9.078125 0 
L 9.078125 54.6875 
L 18.109375 54.6875 
L 18.109375 46.1875 
Q 20.953125 51.171875 25.484375 53.578125 
Q 30.03125 56 36.53125 56 
Q 37.453125 56 38.578125 55.875 
Q 39.703125 55.765625 41.0625 55.515625 
z
" id="DejaVuSans-114"/>
     <path d="M 48.78125 52.59375 
L 48.78125 44.1875 
Q 44.96875 46.296875 41.140625 47.34375 
Q 37.3125 48.390625 33.40625 48.390625 
Q 24.65625 48.390625 19.8125 42.84375 
Q 14.984375 37.3125 14.984375 27.296875 
Q 14.984375 17.28125 19.8125 11.734375 
Q 24.65625 6.203125 33.40625 6.203125 
Q 37.3125 6.203125 41.140625 7.25 
Q 44.96875 8.296875 48.78125 10.40625 
L 48.78125 2.09375 
Q 45.015625 0.34375 40.984375 -0.53125 
Q 36.96875 -1.421875 32.421875 -1.421875 
Q 20.0625 -1.421875 12.78125 6.34375 
Q 5.515625 14.109375 5.515625 27.296875 
Q 5.515625 40.671875 12.859375 48.328125 
Q 20.21875 56 33.015625 56 
Q 37.15625 56 41.109375 55.140625 
Q 45.0625 54.296875 48.78125 52.59375 
z
" id="DejaVuSans-99"/>
    </defs>
    <g transform="translate(218.76875 16.318125)scale(0.12 -0.12)">
     <use xlink:href="#DejaVuSans-119"/>
     <use x="81.787109" xlink:href="#DejaVuSans-98"/>
     <use x="145.263672" xlink:href="#DejaVuSans-97"/>
     <use x="206.542969" xlink:href="#DejaVuSans-114"/>
     <use x="245.40625" xlink:href="#DejaVuSans-111"/>
     <use x="306.587891" xlink:href="#DejaVuSans-99"/>
     <use x="361.568359" xlink:href="#DejaVuSans-99"/>
    </g>
   </g>
   <g id="legend_1">
    <g id="patch_5">
     <path d="M 473.9625 196.413438 
L 607.521875 196.413438 
Q 609.521875 196.413438 609.521875 194.413438 
L 609.521875 122.022813 
Q 609.521875 120.022813 607.521875 120.022813 
L 473.9625 120.022813 
Q 471.9625 120.022813 471.9625 122.022813 
L 471.9625 194.413438 
Q 471.9625 196.413438 473.9625 196.413438 
z
" style="fill:#ffffff;opacity:0.8;stroke:#cccccc;stroke-linejoin:miter;"/>
    </g>
    <g id="line2d_17">
     <path d="M 475.9625 128.12125 
L 495.9625 128.12125 
" style="fill:none;stroke:#000000;stroke-dasharray:3.7,1.6;stroke-dashoffset:0;"/>
    </g>
    <g id="line2d_18"/>
    <g id="text_14">
     <!-- Baseline -->
     <defs>
      <path d="M 19.671875 34.8125 
L 19.671875 8.109375 
L 35.5 8.109375 
Q 43.453125 8.109375 47.28125 11.40625 
Q 51.125 14.703125 51.125 21.484375 
Q 51.125 28.328125 47.28125 31.5625 
Q 43.453125 34.8125 35.5 34.8125 
z
M 19.671875 64.796875 
L 19.671875 42.828125 
L 34.28125 42.828125 
Q 41.5 42.828125 45.03125 45.53125 
Q 48.578125 48.25 48.578125 53.8125 
Q 48.578125 59.328125 45.03125 62.0625 
Q 41.5 64.796875 34.28125 64.796875 
z
M 9.8125 72.90625 
L 35.015625 72.90625 
Q 46.296875 72.90625 52.390625 68.21875 
Q 58.5 63.53125 58.5 54.890625 
Q 58.5 48.1875 55.375 44.234375 
Q 52.25 40.28125 46.1875 39.3125 
Q 53.46875 37.75 57.5 32.78125 
Q 61.53125 27.828125 61.53125 20.40625 
Q 61.53125 10.640625 54.890625 5.3125 
Q 48.25 0 35.984375 0 
L 9.8125 0 
z
" id="DejaVuSans-66"/>
      <path d="M 44.28125 53.078125 
L 44.28125 44.578125 
Q 40.484375 46.53125 36.375 47.5 
Q 32.28125 48.484375 27.875 48.484375 
Q 21.1875 48.484375 17.84375 46.4375 
Q 14.5 44.390625 14.5 40.28125 
Q 14.5 37.15625 16.890625 35.375 
Q 19.28125 33.59375 26.515625 31.984375 
L 29.59375 31.296875 
Q 39.15625 29.25 43.1875 25.515625 
Q 47.21875 21.78125 47.21875 15.09375 
Q 47.21875 7.46875 41.1875 3.015625 
Q 35.15625 -1.421875 24.609375 -1.421875 
Q 20.21875 -1.421875 15.453125 -0.5625 
Q 10.6875 0.296875 5.421875 2 
L 5.421875 11.28125 
Q 10.40625 8.6875 15.234375 7.390625 
Q 20.0625 6.109375 24.8125 6.109375 
Q 31.15625 6.109375 34.5625 8.28125 
Q 37.984375 10.453125 37.984375 14.40625 
Q 37.984375 18.0625 35.515625 20.015625 
Q 33.0625 21.96875 24.703125 23.78125 
L 21.578125 24.515625 
Q 13.234375 26.265625 9.515625 29.90625 
Q 5.8125 33.546875 5.8125 39.890625 
Q 5.8125 47.609375 11.28125 51.796875 
Q 16.75 56 26.8125 56 
Q 31.78125 56 36.171875 55.265625 
Q 40.578125 54.546875 44.28125 53.078125 
z
" id="DejaVuSans-115"/>
      <path d="M 9.421875 75.984375 
L 18.40625 75.984375 
L 18.40625 0 
L 9.421875 0 
z
" id="DejaVuSans-108"/>
      <path d="M 9.421875 54.6875 
L 18.40625 54.6875 
L 18.40625 0 
L 9.421875 0 
z
M 9.421875 75.984375 
L 18.40625 75.984375 
L 18.40625 64.59375 
L 9.421875 64.59375 
z
" id="DejaVuSans-105"/>
      <path d="M 54.890625 33.015625 
L 54.890625 0 
L 45.90625 0 
L 45.90625 32.71875 
Q 45.90625 40.484375 42.875 44.328125 
Q 39.84375 48.1875 33.796875 48.1875 
Q 26.515625 48.1875 22.3125 43.546875 
Q 18.109375 38.921875 18.109375 30.90625 
L 18.109375 0 
L 9.078125 0 
L 9.078125 54.6875 
L 18.109375 54.6875 
L 18.109375 46.1875 
Q 21.34375 51.125 25.703125 53.5625 
Q 30.078125 56 35.796875 56 
Q 45.21875 56 50.046875 50.171875 
Q 54.890625 44.34375 54.890625 33.015625 
z
" id="DejaVuSans-110"/>
     </defs>
     <g transform="translate(503.9625 131.62125)scale(0.1 -0.1)">
      <use xlink:href="#DejaVuSans-66"/>
      <use x="68.603516" xlink:href="#DejaVuSans-97"/>
      <use x="129.882812" xlink:href="#DejaVuSans-115"/>
      <use x="181.982422" xlink:href="#DejaVuSans-101"/>
      <use x="243.505859" xlink:href="#DejaVuSans-108"/>
      <use x="271.289062" xlink:href="#DejaVuSans-105"/>
      <use x="299.072266" xlink:href="#DejaVuSans-110"/>
      <use x="362.451172" xlink:href="#DejaVuSans-101"/>
     </g>
    </g>
    <g id="line2d_19">
     <path d="M 475.9625 142.799375 
L 495.9625 142.799375 
" style="fill:none;stroke:#1f77b4;stroke-linecap:square;stroke-width:1.5;"/>
    </g>
    <g id="line2d_20"/>
    <g id="text_15">
     <!-- $\Uparrow$ acesso crdito -->
     <defs>
      <path d="M 36.765625 58.59375 
L 36.765625 0 
L 30.90625 0 
L 30.90625 52.734375 
L 26.421875 48.140625 
L 20.5625 54 
L 39.703125 73.25 
L 44.09375 73.25 
L 63.328125 54 
L 57.46875 48.140625 
L 52.875 52.734375 
L 52.875 0 
L 47.015625 0 
L 47.015625 58.59375 
L 41.9375 63.671875 
z
" id="DejaVuSans-8657"/>
      <path id="DejaVuSans-32"/>
      <path d="M 56.203125 29.59375 
L 56.203125 25.203125 
L 14.890625 25.203125 
Q 15.484375 15.921875 20.484375 11.0625 
Q 25.484375 6.203125 34.421875 6.203125 
Q 39.59375 6.203125 44.453125 7.46875 
Q 49.3125 8.734375 54.109375 11.28125 
L 54.109375 2.78125 
Q 49.265625 0.734375 44.1875 -0.34375 
Q 39.109375 -1.421875 33.890625 -1.421875 
Q 20.796875 -1.421875 13.15625 6.1875 
Q 5.515625 13.8125 5.515625 26.8125 
Q 5.515625 40.234375 12.765625 48.109375 
Q 20.015625 56 32.328125 56 
Q 43.359375 56 49.78125 48.890625 
Q 56.203125 41.796875 56.203125 29.59375 
z
M 47.21875 32.234375 
Q 47.125 39.59375 43.09375 43.984375 
Q 39.0625 48.390625 32.421875 48.390625 
Q 24.90625 48.390625 20.390625 44.140625 
Q 15.875 39.890625 15.1875 32.171875 
z
M 38.53125 79.984375 
L 48.25 79.984375 
L 32.34375 61.625 
L 24.859375 61.625 
z
" id="DejaVuSans-233"/>
      <path d="M 45.40625 46.390625 
L 45.40625 75.984375 
L 54.390625 75.984375 
L 54.390625 0 
L 45.40625 0 
L 45.40625 8.203125 
Q 42.578125 3.328125 38.25 0.953125 
Q 33.9375 -1.421875 27.875 -1.421875 
Q 17.96875 -1.421875 11.734375 6.484375 
Q 5.515625 14.40625 5.515625 27.296875 
Q 5.515625 40.1875 11.734375 48.09375 
Q 17.96875 56 27.875 56 
Q 33.9375 56 38.25 53.625 
Q 42.578125 51.265625 45.40625 46.390625 
z
M 14.796875 27.296875 
Q 14.796875 17.390625 18.875 11.75 
Q 22.953125 6.109375 30.078125 6.109375 
Q 37.203125 6.109375 41.296875 11.75 
Q 45.40625 17.390625 45.40625 27.296875 
Q 45.40625 37.203125 41.296875 42.84375 
Q 37.203125 48.484375 30.078125 48.484375 
Q 22.953125 48.484375 18.875 42.84375 
Q 14.796875 37.203125 14.796875 27.296875 
z
" id="DejaVuSans-100"/>
      <path d="M 18.3125 70.21875 
L 18.3125 54.6875 
L 36.8125 54.6875 
L 36.8125 47.703125 
L 18.3125 47.703125 
L 18.3125 18.015625 
Q 18.3125 11.328125 20.140625 9.421875 
Q 21.96875 7.515625 27.59375 7.515625 
L 36.8125 7.515625 
L 36.8125 0 
L 27.59375 0 
Q 17.1875 0 13.234375 3.875 
Q 9.28125 7.765625 9.28125 18.015625 
L 9.28125 47.703125 
L 2.6875 47.703125 
L 2.6875 54.6875 
L 9.28125 54.6875 
L 9.28125 70.21875 
z
" id="DejaVuSans-116"/>
     </defs>
     <g transform="translate(503.9625 146.299375)scale(0.1 -0.1)">
      <use transform="translate(19.482422 0.015625)" xlink:href="#DejaVuSans-8657"/>
      <use transform="translate(122.753906 0.015625)" xlink:href="#DejaVuSans-32"/>
      <use transform="translate(154.541016 0.015625)" xlink:href="#DejaVuSans-97"/>
      <use transform="translate(215.820312 0.015625)" xlink:href="#DejaVuSans-99"/>
      <use transform="translate(270.800781 0.015625)" xlink:href="#DejaVuSans-101"/>
      <use transform="translate(332.324219 0.015625)" xlink:href="#DejaVuSans-115"/>
      <use transform="translate(384.423828 0.015625)" xlink:href="#DejaVuSans-115"/>
      <use transform="translate(436.523438 0.015625)" xlink:href="#DejaVuSans-111"/>
      <use transform="translate(497.705078 0.015625)" xlink:href="#DejaVuSans-32"/>
      <use transform="translate(529.492188 0.015625)" xlink:href="#DejaVuSans-99"/>
      <use transform="translate(584.472656 0.015625)" xlink:href="#DejaVuSans-114"/>
      <use transform="translate(625.585938 0.015625)" xlink:href="#DejaVuSans-233"/>
      <use transform="translate(687.109375 0.015625)" xlink:href="#DejaVuSans-100"/>
      <use transform="translate(750.585938 0.015625)" xlink:href="#DejaVuSans-105"/>
      <use transform="translate(778.369141 0.015625)" xlink:href="#DejaVuSans-116"/>
      <use transform="translate(817.578125 0.015625)" xlink:href="#DejaVuSans-111"/>
     </g>
    </g>
    <g id="line2d_21">
     <path d="M 475.9625 157.4775 
L 495.9625 157.4775 
" style="fill:none;stroke:#ff7f0e;stroke-linecap:square;stroke-width:1.5;"/>
    </g>
    <g id="line2d_22"/>
    <g id="text_16">
     <!-- Sem renda bsica -->
     <defs>
      <path d="M 53.515625 70.515625 
L 53.515625 60.890625 
Q 47.90625 63.578125 42.921875 64.890625 
Q 37.9375 66.21875 33.296875 66.21875 
Q 25.25 66.21875 20.875 63.09375 
Q 16.5 59.96875 16.5 54.203125 
Q 16.5 49.359375 19.40625 46.890625 
Q 22.3125 44.4375 30.421875 42.921875 
L 36.375 41.703125 
Q 47.40625 39.59375 52.65625 34.296875 
Q 57.90625 29 57.90625 20.125 
Q 57.90625 9.515625 50.796875 4.046875 
Q 43.703125 -1.421875 29.984375 -1.421875 
Q 24.8125 -1.421875 18.96875 -0.25 
Q 13.140625 0.921875 6.890625 3.21875 
L 6.890625 13.375 
Q 12.890625 10.015625 18.65625 8.296875 
Q 24.421875 6.59375 29.984375 6.59375 
Q 38.421875 6.59375 43.015625 9.90625 
Q 47.609375 13.234375 47.609375 19.390625 
Q 47.609375 24.75 44.3125 27.78125 
Q 41.015625 30.8125 33.5 32.328125 
L 27.484375 33.5 
Q 16.453125 35.6875 11.515625 40.375 
Q 6.59375 45.0625 6.59375 53.421875 
Q 6.59375 63.09375 13.40625 68.65625 
Q 20.21875 74.21875 32.171875 74.21875 
Q 37.3125 74.21875 42.625 73.28125 
Q 47.953125 72.359375 53.515625 70.515625 
z
" id="DejaVuSans-83"/>
      <path d="M 34.28125 27.484375 
Q 23.390625 27.484375 19.1875 25 
Q 14.984375 22.515625 14.984375 16.5 
Q 14.984375 11.71875 18.140625 8.90625 
Q 21.296875 6.109375 26.703125 6.109375 
Q 34.1875 6.109375 38.703125 11.40625 
Q 43.21875 16.703125 43.21875 25.484375 
L 43.21875 27.484375 
z
M 52.203125 31.203125 
L 52.203125 0 
L 43.21875 0 
L 43.21875 8.296875 
Q 40.140625 3.328125 35.546875 0.953125 
Q 30.953125 -1.421875 24.3125 -1.421875 
Q 15.921875 -1.421875 10.953125 3.296875 
Q 6 8.015625 6 15.921875 
Q 6 25.140625 12.171875 29.828125 
Q 18.359375 34.515625 30.609375 34.515625 
L 43.21875 34.515625 
L 43.21875 35.40625 
Q 43.21875 41.609375 39.140625 45 
Q 35.0625 48.390625 27.6875 48.390625 
Q 23 48.390625 18.546875 47.265625 
Q 14.109375 46.140625 10.015625 43.890625 
L 10.015625 52.203125 
Q 14.9375 54.109375 19.578125 55.046875 
Q 24.21875 56 28.609375 56 
Q 40.484375 56 46.34375 49.84375 
Q 52.203125 43.703125 52.203125 31.203125 
z
M 35.78125 79.984375 
L 45.5 79.984375 
L 29.59375 61.625 
L 22.109375 61.625 
z
" id="DejaVuSans-225"/>
     </defs>
     <g transform="translate(503.9625 160.9775)scale(0.1 -0.1)">
      <use xlink:href="#DejaVuSans-83"/>
      <use x="63.476562" xlink:href="#DejaVuSans-101"/>
      <use x="125" xlink:href="#DejaVuSans-109"/>
      <use x="222.412109" xlink:href="#DejaVuSans-32"/>
      <use x="254.199219" xlink:href="#DejaVuSans-114"/>
      <use x="293.0625" xlink:href="#DejaVuSans-101"/>
      <use x="354.585938" xlink:href="#DejaVuSans-110"/>
      <use x="417.964844" xlink:href="#DejaVuSans-100"/>
      <use x="481.441406" xlink:href="#DejaVuSans-97"/>
      <use x="542.720703" xlink:href="#DejaVuSans-32"/>
      <use x="574.507812" xlink:href="#DejaVuSans-98"/>
      <use x="637.984375" xlink:href="#DejaVuSans-225"/>
      <use x="699.263672" xlink:href="#DejaVuSans-115"/>
      <use x="751.363281" xlink:href="#DejaVuSans-105"/>
      <use x="779.146484" xlink:href="#DejaVuSans-99"/>
      <use x="834.126953" xlink:href="#DejaVuSans-97"/>
     </g>
    </g>
    <g id="line2d_23">
     <path d="M 475.9625 172.155625 
L 495.9625 172.155625 
" style="fill:none;stroke:#2ca02c;stroke-linecap:square;stroke-width:1.5;"/>
    </g>
    <g id="line2d_24"/>
    <g id="text_17">
     <!-- $\Uparrow$ salrio mnimo -->
     <defs>
      <path d="M 20.65625 79.984375 
L 30.375 79.984375 
L 14.46875 61.625 
L 6.984375 61.625 
z
M 9.421875 54.6875 
L 18.40625 54.6875 
L 18.40625 0 
L 9.421875 0 
z
M 13.921875 56 
z
" id="DejaVuSans-237"/>
     </defs>
     <g transform="translate(503.9625 175.655625)scale(0.1 -0.1)">
      <use transform="translate(19.482422 0.015625)" xlink:href="#DejaVuSans-8657"/>
      <use transform="translate(122.753906 0.015625)" xlink:href="#DejaVuSans-32"/>
      <use transform="translate(154.541016 0.015625)" xlink:href="#DejaVuSans-115"/>
      <use transform="translate(206.640625 0.015625)" xlink:href="#DejaVuSans-97"/>
      <use transform="translate(267.919922 0.015625)" xlink:href="#DejaVuSans-108"/>
      <use transform="translate(295.703125 0.015625)" xlink:href="#DejaVuSans-225"/>
      <use transform="translate(356.982422 0.015625)" xlink:href="#DejaVuSans-114"/>
      <use transform="translate(398.095703 0.015625)" xlink:href="#DejaVuSans-105"/>
      <use transform="translate(425.878906 0.015625)" xlink:href="#DejaVuSans-111"/>
      <use transform="translate(487.060547 0.015625)" xlink:href="#DejaVuSans-32"/>
      <use transform="translate(518.847656 0.015625)" xlink:href="#DejaVuSans-109"/>
      <use transform="translate(616.259766 0.015625)" xlink:href="#DejaVuSans-237"/>
      <use transform="translate(644.042969 0.015625)" xlink:href="#DejaVuSans-110"/>
      <use transform="translate(707.421875 0.015625)" xlink:href="#DejaVuSans-105"/>
      <use transform="translate(735.205078 0.015625)" xlink:href="#DejaVuSans-109"/>
      <use transform="translate(832.617188 0.015625)" xlink:href="#DejaVuSans-111"/>
     </g>
    </g>
    <g id="line2d_25">
     <path d="M 475.9625 186.83375 
L 495.9625 186.83375 
" style="fill:none;stroke:#d62728;stroke-linecap:square;stroke-width:1.5;"/>
    </g>
    <g id="line2d_26"/>
    <g id="text_18">
     <!-- Imposto progressivo -->
     <defs>
      <path d="M 9.8125 72.90625 
L 19.671875 72.90625 
L 19.671875 0 
L 9.8125 0 
z
" id="DejaVuSans-73"/>
      <path d="M 45.40625 27.984375 
Q 45.40625 37.75 41.375 43.109375 
Q 37.359375 48.484375 30.078125 48.484375 
Q 22.859375 48.484375 18.828125 43.109375 
Q 14.796875 37.75 14.796875 27.984375 
Q 14.796875 18.265625 18.828125 12.890625 
Q 22.859375 7.515625 30.078125 7.515625 
Q 37.359375 7.515625 41.375 12.890625 
Q 45.40625 18.265625 45.40625 27.984375 
z
M 54.390625 6.78125 
Q 54.390625 -7.171875 48.1875 -13.984375 
Q 42 -20.796875 29.203125 -20.796875 
Q 24.46875 -20.796875 20.265625 -20.09375 
Q 16.0625 -19.390625 12.109375 -17.921875 
L 12.109375 -9.1875 
Q 16.0625 -11.328125 19.921875 -12.34375 
Q 23.78125 -13.375 27.78125 -13.375 
Q 36.625 -13.375 41.015625 -8.765625 
Q 45.40625 -4.15625 45.40625 5.171875 
L 45.40625 9.625 
Q 42.625 4.78125 38.28125 2.390625 
Q 33.9375 0 27.875 0 
Q 17.828125 0 11.671875 7.65625 
Q 5.515625 15.328125 5.515625 27.984375 
Q 5.515625 40.671875 11.671875 48.328125 
Q 17.828125 56 27.875 56 
Q 33.9375 56 38.28125 53.609375 
Q 42.625 51.21875 45.40625 46.390625 
L 45.40625 54.6875 
L 54.390625 54.6875 
z
" id="DejaVuSans-103"/>
      <path d="M 2.984375 54.6875 
L 12.5 54.6875 
L 29.59375 8.796875 
L 46.6875 54.6875 
L 56.203125 54.6875 
L 35.6875 0 
L 23.484375 0 
z
" id="DejaVuSans-118"/>
     </defs>
     <g transform="translate(503.9625 190.33375)scale(0.1 -0.1)">
      <use xlink:href="#DejaVuSans-73"/>
      <use x="29.492188" xlink:href="#DejaVuSans-109"/>
      <use x="126.904297" xlink:href="#DejaVuSans-112"/>
      <use x="190.380859" xlink:href="#DejaVuSans-111"/>
      <use x="251.5625" xlink:href="#DejaVuSans-115"/>
      <use x="303.662109" xlink:href="#DejaVuSans-116"/>
      <use x="342.871094" xlink:href="#DejaVuSans-111"/>
      <use x="404.052734" xlink:href="#DejaVuSans-32"/>
      <use x="435.839844" xlink:href="#DejaVuSans-112"/>
      <use x="499.316406" xlink:href="#DejaVuSans-114"/>
      <use x="538.179688" xlink:href="#DejaVuSans-111"/>
      <use x="599.361328" xlink:href="#DejaVuSans-103"/>
      <use x="662.837891" xlink:href="#DejaVuSans-114"/>
      <use x="701.701172" xlink:href="#DejaVuSans-101"/>
      <use x="763.224609" xlink:href="#DejaVuSans-115"/>
      <use x="815.324219" xlink:href="#DejaVuSans-115"/>
      <use x="867.423828" xlink:href="#DejaVuSans-105"/>
      <use x="895.207031" xlink:href="#DejaVuSans-118"/>
      <use x="954.386719" xlink:href="#DejaVuSans-111"/>
     </g>
    </g>
   </g>
  </g>
 </g>
 <defs>
  <clipPath id="p8c4619876f">
   <rect height="271.8" width="446.4" x="20.5625" y="22.318125"/>
  </clipPath>
 </defs>
</svg>
