<?xml version="1.0" encoding="utf-8" standalone="no"?>
<!DOCTYPE svg PUBLIC "-//W3C//DTD SVG 1.1//EN"
  "http://www.w3.org/Graphics/SVG/1.1/DTD/svg11.dtd">
<!-- Created with matplotlib (https://matplotlib.org/) -->
<svg height="331.674375pt" version="1.1" viewBox="0 0 634.642187 331.674375" width="634.642187pt" xmlns="http://www.w3.org/2000/svg" xmlns:xlink="http://www.w3.org/1999/xlink">
 <defs>
  <style type="text/css">
*{stroke-linecap:butt;stroke-linejoin:round;}
  </style>
 </defs>
 <g id="figure_1">
  <g id="patch_1">
   <path d="M 0 331.674375 
L 634.642187 331.674375 
L 634.642187 0 
L 0 0 
z
" style="fill:#ffffff;"/>
  </g>
  <g id="axes_1">
   <g id="patch_2">
    <path d="M 38.482813 294.118125 
L 484.882812 294.118125 
L 484.882812 22.318125 
L 38.482813 22.318125 
z
" style="fill:#ffffff;"/>
   </g>
   <g id="line2d_1">
    <path clip-path="url(#p3f5e48568f)" d="M 58.773722 186.983079 
L 59.499693 230.458753 
L 60.225665 227.836772 
L 60.951637 186.805283 
L 61.677608 176.219886 
L 62.40358 139.308704 
L 63.129552 153.533594 
L 63.855524 203.456015 
L 64.581495 138.931634 
L 65.307467 236.007832 
L 66.033439 215.684111 
L 66.75941 179.120659 
L 67.485382 181.120109 
L 68.211354 163.358529 
L 68.937325 233.849224 
L 69.663297 170.211591 
L 70.389269 231.162789 
L 71.115241 208.369379 
L 71.841212 159.337991 
L 72.567184 212.357061 
L 73.293156 202.110702 
L 74.019127 143.109048 
L 74.745099 211.914823 
L 75.471071 231.20015 
L 76.197042 152.982483 
L 76.923014 221.855302 
L 77.648986 205.613534 
L 78.374958 238.277705 
L 79.100929 183.25622 
L 79.826901 228.842721 
L 80.552873 219.40813 
L 81.278844 160.055586 
L 82.004816 195.964646 
L 82.730788 194.786781 
L 83.456759 218.177385 
L 84.182731 208.007619 
L 85.634675 158.489513 
L 86.360646 204.478595 
L 87.086618 155.525185 
L 87.81259 196.505331 
L 88.538561 227.943296 
L 89.264533 171.791305 
L 89.990505 146.409909 
L 90.716477 103.118099 
L 91.442448 215.677529 
L 92.16842 205.591622 
L 92.894392 205.498217 
L 93.620363 206.363795 
L 94.346335 194.145726 
L 95.072307 207.141728 
L 95.798278 206.910081 
L 97.250222 190.71717 
L 97.976194 173.701306 
L 98.702165 159.910349 
L 99.428137 217.762664 
L 100.154109 237.675424 
L 100.88008 220.631173 
L 101.606052 179.842652 
L 102.332024 127.005177 
L 103.057995 233.371987 
L 103.783967 144.457133 
L 104.509939 172.291489 
L 105.235911 209.104226 
L 105.961882 214.762555 
L 106.687854 186.447304 
L 107.413826 179.982665 
L 108.139797 163.798142 
L 108.865769 144.130718 
L 109.591741 241.56988 
L 110.317712 198.380546 
L 111.043684 162.217477 
L 111.769656 144.486879 
L 112.495628 157.942267 
L 113.221599 132.210177 
L 113.947571 198.37438 
L 114.673543 203.460807 
L 115.399514 170.087771 
L 116.125486 125.772888 
L 116.851458 229.20999 
L 117.57743 213.938399 
L 118.303401 165.018953 
L 119.029373 87.296127 
L 119.755345 240.711179 
L 120.481316 234.920765 
L 121.207288 234.074188 
L 121.93326 186.897742 
L 122.659231 186.870983 
L 123.385203 203.544452 
L 124.111175 183.179143 
L 124.837147 208.234442 
L 125.563118 211.622344 
L 126.28909 184.876121 
L 127.015062 201.232207 
L 127.741033 201.849289 
L 129.192977 143.172459 
L 129.918948 241.099919 
L 130.64492 155.861716 
L 131.370892 142.34321 
L 132.096864 215.860048 
L 132.822835 184.856377 
L 133.548807 199.797748 
L 134.274779 225.473751 
L 135.00075 191.323218 
L 135.726722 201.209291 
L 137.178665 141.977433 
L 137.904637 192.547789 
L 138.630609 191.926412 
L 139.356581 228.698386 
L 140.082552 236.329833 
L 140.808524 141.183799 
L 141.534496 135.807656 
L 142.260467 117.118599 
L 142.986439 66.315096 
L 144.438383 204.945533 
L 145.164354 230.03743 
L 145.890326 218.427936 
L 146.616298 155.309074 
L 147.342269 125.722102 
L 148.794213 196.660623 
L 149.520184 173.314244 
L 150.246156 181.613756 
L 150.972128 252.453156 
L 151.6981 225.597382 
L 152.424071 173.865471 
L 153.150043 169.844494 
L 153.876015 174.60688 
L 154.601986 201.156287 
L 155.327958 180.093052 
L 156.05393 209.837724 
L 157.505873 168.590349 
L 158.231845 152.318514 
L 158.957817 190.707482 
L 159.683788 154.126792 
L 160.40976 91.46889 
L 161.135732 171.092201 
L 161.861703 139.116131 
L 162.587675 190.06987 
L 163.313647 221.589528 
L 164.039618 230.699972 
L 164.76559 197.617436 
L 165.491562 171.385169 
L 166.217534 131.782953 
L 166.943505 79.335796 
L 167.669477 85.101227 
L 168.395449 108.68043 
L 169.12142 141.765302 
L 169.847392 228.538001 
L 170.573364 204.983432 
L 171.299336 207.062247 
L 172.025307 170.212826 
L 172.751279 141.23249 
L 173.477251 140.780616 
L 174.203222 185.808143 
L 174.929194 187.188622 
L 175.655166 178.382416 
L 176.381137 209.129003 
L 177.107109 133.118707 
L 177.833081 145.848793 
L 178.559053 169.69444 
L 179.285024 153.556637 
L 180.010996 199.216473 
L 180.736968 252.726831 
L 181.462939 211.481933 
L 182.188911 190.681169 
L 182.914883 193.515156 
L 183.640854 208.13222 
L 184.366826 201.298608 
L 185.092798 130.79479 
L 185.81877 175.063434 
L 186.544741 197.484368 
L 187.270713 185.765427 
L 187.996685 151.744056 
L 188.722656 181.015846 
L 189.448628 238.266911 
L 190.1746 183.676146 
L 190.900571 229.450567 
L 191.626543 213.203968 
L 192.352515 181.455112 
L 193.804458 245.113462 
L 194.53043 219.622446 
L 195.256402 186.905433 
L 195.982373 143.239912 
L 196.708345 187.470921 
L 197.434317 259.259143 
L 198.160289 238.492144 
L 198.88626 207.0946 
L 199.612232 157.241617 
L 200.338204 237.334119 
L 201.064175 212.242834 
L 201.790147 228.577391 
L 202.516119 204.318199 
L 203.24209 167.488716 
L 203.968062 236.592284 
L 204.694034 240.71047 
L 205.420006 179.265084 
L 206.145977 247.451921 
L 206.871949 219.968458 
L 207.597921 175.584987 
L 208.323892 162.491189 
L 209.049864 139.716519 
L 209.775836 220.378883 
L 210.501807 166.558449 
L 211.227779 165.105271 
L 211.953751 202.040668 
L 212.679723 229.16909 
L 213.405694 226.519924 
L 214.131666 141.827717 
L 214.857638 123.530896 
L 215.583609 180.708785 
L 216.309581 192.732696 
L 217.035553 166.157244 
L 217.761524 180.096099 
L 218.487496 196.590436 
L 219.213468 165.656896 
L 219.93944 192.1046 
L 220.665411 172.419575 
L 221.391383 189.944373 
L 222.117355 197.076455 
L 222.843326 202.09318 
L 223.569298 189.677862 
L 224.29527 154.900763 
L 225.021242 194.264932 
L 225.747213 205.751997 
L 227.199157 187.553904 
L 227.925128 203.301708 
L 228.6511 189.316054 
L 229.377072 172.761786 
L 230.103043 185.07532 
L 230.829015 251.853462 
L 231.554987 176.840194 
L 232.280959 182.518991 
L 233.00693 171.992668 
L 233.732902 201.565699 
L 234.458874 175.216122 
L 235.184845 228.868322 
L 235.910817 180.690734 
L 236.636789 159.800478 
L 237.36276 217.276716 
L 238.088732 220.620466 
L 238.814704 203.428216 
L 239.540676 209.169879 
L 240.266647 225.201973 
L 240.992619 165.269777 
L 241.718591 190.659722 
L 242.444562 168.433216 
L 243.170534 222.674992 
L 243.896506 173.727745 
L 244.622477 211.663809 
L 245.348449 188.712683 
L 246.074421 143.956897 
L 246.800393 213.277903 
L 247.526364 188.682692 
L 248.252336 215.890664 
L 248.978308 236.832446 
L 249.704279 204.76141 
L 250.430251 214.546379 
L 251.156223 229.779751 
L 251.882195 183.03353 
L 252.608166 189.826951 
L 253.334138 171.48459 
L 254.06011 181.420169 
L 254.786081 242.270431 
L 255.512053 222.440804 
L 256.963996 169.41284 
L 257.689968 243.535255 
L 258.41594 194.140338 
L 259.141912 207.699335 
L 259.867883 229.100808 
L 260.593855 210.672309 
L 261.319827 222.093147 
L 262.045798 205.453362 
L 262.77177 160.389839 
L 263.497742 210.440931 
L 264.223713 200.062611 
L 264.949685 204.237471 
L 265.675657 157.289877 
L 266.401629 233.982274 
L 267.1276 199.24502 
L 267.853572 194.389878 
L 268.579544 249.890721 
L 269.305515 147.441905 
L 270.031487 203.410622 
L 270.757459 196.384134 
L 271.48343 173.303573 
L 272.209402 194.189343 
L 272.935374 202.555315 
L 273.661346 230.30546 
L 274.387317 204.521797 
L 275.113289 172.673337 
L 275.839261 222.786568 
L 276.565232 193.86967 
L 277.291204 207.327873 
L 278.017176 192.121503 
L 278.743148 199.535971 
L 279.469119 115.61291 
L 280.195091 181.740933 
L 280.921063 217.965224 
L 281.647034 176.239122 
L 282.373006 237.05918 
L 283.098978 191.701667 
L 283.824949 194.14063 
L 284.550921 238.097934 
L 285.276893 181.169588 
L 286.002865 213.15344 
L 286.728836 222.447112 
L 287.454808 210.328354 
L 288.18078 177.676105 
L 288.906751 185.649585 
L 289.632723 143.825464 
L 290.358695 184.491102 
L 291.084666 136.528353 
L 291.810638 178.146528 
L 292.53661 187.776933 
L 293.262582 211.662652 
L 293.988553 180.603811 
L 294.714525 207.21995 
L 295.440497 151.68997 
L 296.166468 191.501722 
L 296.89244 141.204106 
L 297.618412 158.976525 
L 298.344383 121.431904 
L 299.070355 171.829188 
L 299.796327 150.652377 
L 300.522299 246.879298 
L 301.24827 169.67627 
L 301.974242 181.798012 
L 302.700214 161.990532 
L 303.426185 153.731596 
L 304.152157 118.00321 
L 304.878129 189.554491 
L 305.604101 221.524568 
L 306.330072 202.832334 
L 307.056044 218.646386 
L 307.782016 214.423745 
L 308.507987 215.864747 
L 309.233959 192.139844 
L 309.959931 213.967362 
L 310.685902 189.337323 
L 311.411874 186.967861 
L 312.137846 166.706681 
L 312.863818 188.700092 
L 313.589789 154.82393 
L 314.315761 145.926963 
L 315.041733 199.696177 
L 315.767704 193.813836 
L 316.493676 206.220941 
L 317.219648 209.009004 
L 317.945619 197.310281 
L 318.671591 173.782364 
L 319.397563 166.497587 
L 320.123535 197.214368 
L 320.849506 150.311899 
L 321.575478 249.441324 
L 322.30145 222.757219 
L 323.027421 205.501141 
L 323.753393 183.207588 
L 324.479365 167.049473 
L 325.205336 208.065189 
L 325.931308 240.982033 
L 326.65728 205.48798 
L 327.383252 161.52 
L 328.109223 216.750988 
L 328.835195 169.10719 
L 329.561167 235.395904 
L 330.287138 182.39732 
L 331.01311 189.578465 
L 331.739082 219.362224 
L 332.465054 187.470809 
L 333.191025 179.980907 
L 333.916997 232.241393 
L 334.642969 214.452602 
L 335.36894 186.732133 
L 336.094912 207.401756 
L 336.820884 211.058492 
L 337.546855 211.183388 
L 338.272827 214.284884 
L 338.998799 197.625109 
L 339.724771 177.638443 
L 340.450742 214.980678 
L 341.176714 233.121316 
L 341.902686 194.469528 
L 342.628657 211.983173 
L 343.354629 203.405408 
L 344.080601 167.408439 
L 344.806572 213.991591 
L 345.532544 231.47308 
L 346.258516 131.75246 
L 346.984488 239.105653 
L 347.710459 208.560262 
L 348.436431 230.375116 
L 349.162403 203.675465 
L 349.888374 225.908492 
L 350.614346 209.401191 
L 351.340318 214.366572 
L 352.066289 220.762763 
L 353.518233 183.062144 
L 354.244205 193.82321 
L 354.970176 233.180078 
L 355.696148 187.011614 
L 356.42212 207.627776 
L 357.148091 202.030564 
L 358.600035 208.095746 
L 359.326007 196.101569 
L 360.051978 151.914986 
L 360.77795 189.469919 
L 361.503922 232.857013 
L 362.229893 213.641767 
L 362.955865 156.193228 
L 363.681837 213.947101 
L 364.407808 217.201423 
L 365.13378 213.782717 
L 365.859752 189.39104 
L 366.585724 210.59716 
L 367.311695 218.057615 
L 368.037667 192.019406 
L 368.763639 252.657958 
L 369.48961 208.872617 
L 370.215582 245.38139 
L 370.941554 211.478064 
L 371.667525 201.714713 
L 372.393497 207.773717 
L 373.119469 201.556005 
L 373.845441 204.831871 
L 374.571412 205.537492 
L 375.297384 243.808944 
L 376.749327 167.499537 
L 377.475299 205.079367 
L 378.201271 229.014049 
L 378.927242 208.64329 
L 379.653214 197.590973 
L 380.379186 184.115798 
L 381.105158 195.941392 
L 381.831129 217.961018 
L 382.557101 185.809717 
L 383.283073 181.560757 
L 384.009044 208.479791 
L 384.735016 186.606333 
L 385.460988 229.003737 
L 386.18696 238.934476 
L 386.912931 182.089279 
L 387.638903 211.865611 
L 388.364875 196.061089 
L 389.090846 215.014772 
L 389.816818 213.024974 
L 390.54279 232.689403 
L 391.268761 180.509503 
L 391.994733 184.337956 
L 392.720705 199.064343 
L 393.446677 163.531114 
L 394.172648 200.0261 
L 394.89862 210.275627 
L 395.624592 213.063472 
L 396.350563 216.584791 
L 397.076535 175.227513 
L 398.528478 192.899883 
L 399.25445 190.014686 
L 399.980422 197.206778 
L 400.706394 171.773736 
L 402.158337 211.864297 
L 402.884309 171.680212 
L 403.61028 203.475949 
L 404.336252 190.034827 
L 405.062224 199.258328 
L 405.788195 176.674057 
L 406.514167 213.372819 
L 407.240139 206.263622 
L 407.966111 212.112716 
L 408.692082 214.360598 
L 409.418054 191.822646 
L 410.144026 229.802106 
L 410.869997 173.227298 
L 411.595969 176.859249 
L 412.321941 235.947562 
L 413.047913 178.671634 
L 413.773884 187.929351 
L 414.499856 192.091965 
L 415.225828 189.913921 
L 415.951799 167.757386 
L 416.677771 242.722712 
L 417.403743 193.724248 
L 418.129714 199.083207 
L 418.855686 222.288225 
L 419.581658 190.964842 
L 420.30763 196.589861 
L 421.033601 179.237948 
L 421.759573 237.153131 
L 422.485545 222.592042 
L 423.211516 223.021017 
L 423.937488 218.458216 
L 424.66346 221.285016 
L 426.115403 214.803852 
L 426.841375 218.722393 
L 427.567347 216.544258 
L 428.293318 230.663864 
L 429.01929 213.778492 
L 429.745262 220.335695 
L 430.471233 212.253264 
L 431.197205 210.207743 
L 431.923177 211.864431 
L 432.649148 206.124604 
L 433.37512 216.594538 
L 434.101092 228.913959 
L 434.827064 217.769613 
L 435.553035 180.881414 
L 436.279007 216.116451 
L 437.004979 197.817129 
L 437.73095 219.896772 
L 438.456922 198.393539 
L 439.182894 221.326932 
L 439.908866 250.587723 
L 440.634837 209.70579 
L 441.360809 220.379106 
L 442.086781 187.462073 
L 442.812752 215.791672 
L 443.538724 179.740045 
L 444.264696 218.185688 
L 444.990667 171.242616 
L 445.716639 219.486111 
L 446.442611 184.27722 
L 447.168583 201.373587 
L 447.894554 221.678585 
L 448.620526 221.480624 
L 449.346498 218.726013 
L 450.072469 223.074915 
L 450.798441 212.556856 
L 451.524413 221.534479 
L 452.250384 172.393518 
L 452.976356 217.598494 
L 453.702328 202.424185 
L 454.4283 223.248273 
L 455.154271 184.549205 
L 455.880243 217.129005 
L 456.606215 220.963679 
L 457.332186 179.328919 
L 458.058158 202.705264 
L 458.78413 237.900366 
L 459.510101 212.755118 
L 460.236073 214.801353 
L 460.962045 195.476182 
L 461.688017 224.076045 
L 462.413988 231.822422 
L 463.13996 217.642891 
L 463.865932 217.110552 
L 464.591903 218.181725 
L 464.591903 218.181725 
" style="fill:none;stroke:#1f77b4;stroke-linecap:square;stroke-width:1.5;"/>
   </g>
   <g id="line2d_2">
    <path clip-path="url(#p3f5e48568f)" d="M 58.773722 79.790235 
L 59.499693 177.616939 
L 60.225665 170.388244 
L 60.951637 147.586357 
L 61.677608 157.980776 
L 62.40358 68.635015 
L 63.129552 89.445282 
L 63.855524 132.247012 
L 64.581495 129.097421 
L 65.307467 177.185164 
L 66.033439 117.051248 
L 66.75941 143.907265 
L 67.485382 150.18531 
L 68.211354 97.369531 
L 68.937325 163.345174 
L 69.663297 139.71025 
L 70.389269 144.6134 
L 71.115241 190.414609 
L 71.841212 111.399228 
L 72.567184 182.745359 
L 73.293156 161.31248 
L 74.019127 127.134511 
L 74.745099 163.566682 
L 75.471071 166.681073 
L 76.197042 123.280307 
L 76.923014 139.555234 
L 77.648986 182.389505 
L 78.374958 182.361539 
L 79.100929 122.866019 
L 79.826901 170.311146 
L 80.552873 180.436002 
L 81.278844 131.526335 
L 82.004816 129.912993 
L 83.456759 177.76614 
L 84.182731 178.418351 
L 84.908703 117.654838 
L 85.634675 78.818404 
L 86.360646 98.957365 
L 87.086618 88.463383 
L 88.538561 179.992634 
L 89.990505 81.792767 
L 90.716477 63.659588 
L 91.442448 174.155754 
L 92.16842 132.104424 
L 92.894392 182.514679 
L 93.620363 144.809536 
L 94.346335 113.72314 
L 95.072307 155.876117 
L 95.798278 150.487723 
L 96.52425 120.491349 
L 97.250222 117.819626 
L 97.976194 125.095889 
L 98.702165 121.329492 
L 99.428137 196.861854 
L 100.154109 165.886269 
L 100.88008 180.149406 
L 101.606052 90.718726 
L 102.332024 95.890299 
L 103.057995 171.958008 
L 103.783967 109.858287 
L 104.509939 131.79934 
L 105.235911 183.033477 
L 105.961882 179.902874 
L 106.687854 93.136022 
L 107.413826 104.956707 
L 108.139797 83.733601 
L 108.865769 101.733654 
L 109.591741 176.810479 
L 110.317712 189.51367 
L 111.043684 126.31725 
L 111.769656 93.527677 
L 112.495628 71.001946 
L 113.221599 71.079591 
L 113.947571 129.868239 
L 114.673543 147.440365 
L 115.399514 102.890982 
L 116.125486 106.98503 
L 116.851458 174.740333 
L 117.57743 132.424313 
L 118.303401 55.551906 
L 119.029373 43.819605 
L 119.755345 187.634385 
L 120.481316 183.223777 
L 121.207288 169.540905 
L 121.93326 118.046141 
L 122.659231 123.826266 
L 123.385203 145.376389 
L 124.111175 146.242975 
L 124.837147 174.541848 
L 125.563118 187.66648 
L 126.28909 111.567644 
L 127.015062 106.441742 
L 127.741033 163.494319 
L 128.467005 130.507782 
L 129.192977 111.923721 
L 129.918948 159.439369 
L 130.64492 71.80701 
L 132.096864 176.294119 
L 132.822835 130.143377 
L 133.548807 177.87845 
L 134.274779 145.868935 
L 135.00075 103.775899 
L 135.726722 117.940187 
L 136.452694 73.609593 
L 137.178665 86.478375 
L 137.904637 127.768558 
L 138.630609 99.0866 
L 139.356581 176.830299 
L 140.082552 176.534797 
L 140.808524 111.487387 
L 141.534496 93.678839 
L 142.260467 55.822406 
L 142.986439 34.67267 
L 144.438383 152.846107 
L 145.164354 176.324715 
L 145.890326 142.90058 
L 146.616298 84.382789 
L 147.342269 61.323421 
L 148.068241 116.941948 
L 148.794213 150.189756 
L 149.520184 88.809622 
L 150.246156 94.484051 
L 150.972128 181.545448 
L 151.6981 175.841531 
L 152.424071 122.015437 
L 153.150043 96.066346 
L 153.876015 115.844394 
L 154.601986 131.365996 
L 155.327958 156.393125 
L 156.779901 106.480111 
L 157.505873 135.457691 
L 158.231845 122.918113 
L 158.957817 115.650877 
L 159.683788 89.038137 
L 160.40976 78.608108 
L 161.135732 132.672134 
L 161.861703 110.336001 
L 162.587675 117.373996 
L 163.313647 181.278617 
L 164.039618 160.690538 
L 164.76559 110.085396 
L 165.491562 70.83481 
L 166.217534 123.754058 
L 166.943505 43.543624 
L 167.669477 42.754994 
L 168.395449 55.349963 
L 169.12142 74.922074 
L 169.847392 166.16662 
L 170.573364 136.984076 
L 171.299336 179.640891 
L 172.751279 80.37897 
L 173.477251 112.280283 
L 174.203222 149.085805 
L 174.929194 154.338459 
L 175.655166 133.417892 
L 176.381137 140.016984 
L 177.107109 120.753522 
L 177.833081 108.963941 
L 178.559053 134.292845 
L 179.285024 116.514259 
L 180.010996 160.770183 
L 180.736968 191.623846 
L 181.462939 175.647813 
L 182.188911 118.827268 
L 182.914883 116.543489 
L 183.640854 178.064896 
L 184.366826 159.731293 
L 185.092798 76.108882 
L 185.81877 154.448101 
L 187.270713 84.640747 
L 187.996685 89.964548 
L 188.722656 141.417326 
L 189.448628 184.503111 
L 190.1746 134.996198 
L 190.900571 177.716702 
L 191.626543 170.559671 
L 192.352515 151.572235 
L 193.804458 193.104268 
L 194.53043 150.985307 
L 195.256402 88.328675 
L 195.982373 112.544019 
L 196.708345 112.088873 
L 197.434317 186.209223 
L 198.160289 185.809082 
L 198.88626 154.255696 
L 199.612232 128.295457 
L 200.338204 186.868575 
L 201.064175 182.041003 
L 201.790147 188.385797 
L 202.516119 149.083767 
L 203.24209 138.189647 
L 203.968062 169.874287 
L 204.694034 161.551746 
L 205.420006 163.82503 
L 206.145977 162.41965 
L 206.871949 136.366767 
L 208.323892 118.520243 
L 209.049864 112.163813 
L 209.775836 166.571398 
L 210.501807 110.848835 
L 211.227779 63.887459 
L 211.953751 161.12175 
L 212.679723 166.504774 
L 213.405694 166.768305 
L 214.131666 84.000221 
L 214.857638 89.075158 
L 215.583609 145.508139 
L 216.309581 116.558146 
L 217.035553 149.541209 
L 217.761524 144.02639 
L 218.487496 168.767109 
L 219.213468 130.778963 
L 219.93944 115.294967 
L 220.665411 145.951015 
L 221.391383 126.791456 
L 222.117355 121.109694 
L 222.843326 170.83964 
L 223.569298 108.178474 
L 224.29527 110.822909 
L 225.021242 149.815998 
L 225.747213 171.369838 
L 226.473185 134.106367 
L 227.199157 147.579203 
L 227.925128 147.941858 
L 228.6511 102.281004 
L 229.377072 138.247282 
L 230.103043 146.961488 
L 230.829015 176.14605 
L 231.554987 153.655554 
L 232.280959 149.478087 
L 233.00693 66.019001 
L 233.732902 129.674042 
L 234.458874 111.596616 
L 235.184845 147.836577 
L 235.910817 108.52039 
L 236.636789 142.000636 
L 237.36276 152.426997 
L 238.088732 138.725361 
L 238.814704 174.039926 
L 239.540676 164.502896 
L 240.266647 165.034289 
L 240.992619 96.805337 
L 241.718591 139.800234 
L 242.444562 136.135121 
L 243.170534 149.569291 
L 243.896506 115.171406 
L 244.622477 182.804604 
L 245.348449 170.859018 
L 246.074421 104.11154 
L 246.800393 175.559902 
L 248.252336 144.824927 
L 248.978308 180.547865 
L 249.704279 150.354794 
L 250.430251 176.232945 
L 251.156223 175.048275 
L 251.882195 159.513405 
L 252.608166 134.812062 
L 253.334138 140.440395 
L 254.06011 139.707461 
L 254.786081 172.47077 
L 255.512053 187.183892 
L 256.238025 138.624392 
L 256.963996 149.768604 
L 257.689968 183.719103 
L 258.41594 115.715679 
L 259.141912 173.464569 
L 259.867883 192.07194 
L 260.593855 153.515644 
L 261.319827 174.83567 
L 262.045798 168.282237 
L 262.77177 132.341958 
L 263.497742 168.60894 
L 264.223713 163.060671 
L 264.949685 162.427788 
L 265.675657 107.670555 
L 266.401629 171.460281 
L 267.1276 148.880189 
L 267.853572 141.816792 
L 268.579544 166.017191 
L 269.305515 103.918839 
L 270.031487 138.32011 
L 270.757459 152.444287 
L 271.48343 147.765928 
L 272.209402 151.79449 
L 272.935374 180.553334 
L 273.661346 158.839021 
L 274.387317 181.170585 
L 275.113289 131.732291 
L 275.839261 159.711913 
L 276.565232 153.756079 
L 277.291204 133.973377 
L 278.017176 126.190059 
L 278.743148 143.102456 
L 279.469119 91.970614 
L 280.195091 141.99279 
L 280.921063 183.324646 
L 281.647034 147.175257 
L 282.373006 180.9684 
L 283.098978 163.932582 
L 283.824949 154.20077 
L 284.550921 163.817421 
L 285.276893 144.998563 
L 286.002865 176.432369 
L 286.728836 181.774349 
L 287.454808 166.132511 
L 288.18078 143.220812 
L 288.906751 139.28072 
L 289.632723 122.316977 
L 290.358695 119.122075 
L 291.084666 105.031396 
L 291.810638 144.897035 
L 292.53661 101.256258 
L 293.262582 157.74201 
L 293.988553 125.717803 
L 294.714525 149.584216 
L 295.440497 118.365531 
L 296.166468 108.368514 
L 296.89244 103.001629 
L 297.618412 104.712994 
L 298.344383 83.036425 
L 299.070355 137.645882 
L 299.796327 121.36763 
L 300.522299 191.359246 
L 301.24827 147.33445 
L 301.974242 139.261144 
L 302.700214 139.634675 
L 303.426185 61.95507 
L 304.152157 108.275632 
L 304.878129 139.497567 
L 305.604101 179.32145 
L 306.330072 159.878303 
L 307.056044 185.276436 
L 307.782016 185.884715 
L 308.507987 167.197023 
L 309.233959 141.718901 
L 309.959931 127.701126 
L 310.685902 106.425664 
L 311.411874 131.404412 
L 312.137846 146.2033 
L 312.863818 145.006798 
L 314.315761 99.278997 
L 315.041733 149.801326 
L 315.767704 143.011018 
L 316.493676 146.008938 
L 317.219648 191.180208 
L 317.945619 138.79121 
L 318.671591 94.911037 
L 319.397563 132.067196 
L 320.123535 159.772621 
L 320.849506 111.469908 
L 321.575478 188.365378 
L 322.30145 187.46636 
L 323.027421 134.804654 
L 323.753393 131.761325 
L 324.479365 112.25645 
L 325.205336 176.38731 
L 325.931308 181.387449 
L 326.65728 178.593257 
L 327.383252 117.884308 
L 328.109223 179.60625 
L 328.835195 139.533391 
L 329.561167 188.402813 
L 330.287138 146.019702 
L 331.01311 117.660007 
L 331.739082 169.983701 
L 332.465054 123.190854 
L 333.191025 160.161894 
L 333.916997 190.731014 
L 334.642969 184.031291 
L 335.36894 157.702334 
L 336.094912 171.900602 
L 336.820884 204.187071 
L 337.546855 171.216175 
L 338.272827 193.868083 
L 338.998799 129.33055 
L 340.450742 181.263492 
L 341.176714 186.432579 
L 341.902686 125.046256 
L 342.628657 132.744154 
L 343.354629 198.903112 
L 344.080601 122.238575 
L 344.806572 160.022384 
L 345.532544 180.790607 
L 346.258516 116.315098 
L 346.984488 180.469553 
L 347.710459 163.440967 
L 348.436431 181.51148 
L 349.162403 179.016249 
L 350.614346 170.924364 
L 351.340318 174.160645 
L 352.066289 158.265759 
L 352.792261 169.279443 
L 353.518233 176.662526 
L 354.244205 142.135534 
L 354.970176 179.859675 
L 355.696148 153.531081 
L 356.42212 176.558741 
L 357.148091 126.309754 
L 357.874063 156.690025 
L 358.600035 166.193146 
L 359.326007 173.381317 
L 360.051978 103.793003 
L 360.77795 101.718418 
L 361.503922 202.993365 
L 362.955865 153.738528 
L 363.681837 168.870259 
L 364.407808 187.766467 
L 365.13378 174.010912 
L 365.859752 149.076351 
L 366.585724 160.844336 
L 367.311695 166.957159 
L 368.037667 157.877609 
L 368.763639 177.49685 
L 369.48961 166.741539 
L 370.215582 178.042596 
L 370.941554 183.969484 
L 371.667525 156.345513 
L 372.393497 175.822392 
L 373.119469 149.343438 
L 373.845441 146.742688 
L 374.571412 176.169692 
L 375.297384 199.555337 
L 376.023356 176.223177 
L 376.749327 128.232281 
L 377.475299 171.430931 
L 378.201271 199.030502 
L 378.927242 151.021907 
L 379.653214 148.474357 
L 380.379186 151.435527 
L 381.105158 162.066599 
L 381.831129 161.150835 
L 382.557101 130.853366 
L 383.283073 154.097298 
L 384.009044 188.033731 
L 384.735016 171.244947 
L 385.460988 160.085432 
L 386.18696 182.095218 
L 386.912931 158.870155 
L 387.638903 178.652525 
L 388.364875 167.082987 
L 389.090846 164.309326 
L 389.816818 181.531796 
L 390.54279 194.802024 
L 391.268761 155.687895 
L 391.994733 160.05537 
L 392.720705 175.332013 
L 393.446677 147.907458 
L 394.172648 135.34845 
L 394.89862 187.157619 
L 395.624592 185.932373 
L 396.350563 173.523926 
L 397.076535 152.47838 
L 397.802507 166.267282 
L 398.528478 148.517505 
L 399.25445 145.051319 
L 399.980422 164.68718 
L 400.706394 152.341938 
L 401.432365 160.859263 
L 402.158337 199.150513 
L 402.884309 146.82712 
L 403.61028 145.571854 
L 404.336252 151.77661 
L 405.062224 144.612078 
L 405.788195 155.825057 
L 406.514167 139.681118 
L 407.240139 153.32055 
L 407.966111 183.326963 
L 408.692082 195.302391 
L 409.418054 149.495071 
L 410.144026 202.919892 
L 410.869997 157.504299 
L 411.595969 152.040104 
L 412.321941 179.016814 
L 413.047913 166.642223 
L 413.773884 150.91144 
L 414.499856 176.516918 
L 415.225828 141.92147 
L 415.951799 131.563431 
L 416.677771 201.465676 
L 417.403743 154.884158 
L 418.855686 189.555701 
L 419.581658 155.868733 
L 420.30763 179.345544 
L 421.033601 153.441109 
L 421.759573 206.205994 
L 422.485545 184.162785 
L 423.211516 199.764744 
L 423.937488 183.709138 
L 424.66346 179.346349 
L 425.389431 172.287397 
L 426.115403 173.283636 
L 426.841375 185.094273 
L 427.567347 184.440921 
L 428.293318 171.383711 
L 429.01929 180.280226 
L 429.745262 183.581212 
L 430.471233 177.534651 
L 431.197205 180.459766 
L 431.923177 170.416132 
L 432.649148 176.139169 
L 433.37512 190.21898 
L 434.101092 207.311262 
L 435.553035 147.701779 
L 436.279007 180.366381 
L 437.004979 159.507182 
L 437.73095 182.868366 
L 438.456922 160.443939 
L 439.182894 186.173092 
L 439.908866 195.108474 
L 440.634837 178.994637 
L 441.360809 185.417586 
L 442.086781 177.012532 
L 442.812752 182.025916 
L 443.538724 177.474823 
L 444.264696 176.416158 
L 444.990667 164.134726 
L 445.716639 184.95442 
L 446.442611 173.440062 
L 447.168583 180.304186 
L 447.894554 185.9636 
L 448.620526 201.205057 
L 450.072469 164.224996 
L 451.524413 195.74399 
L 452.250384 159.522215 
L 452.976356 186.411416 
L 453.702328 187.142313 
L 454.4283 175.101622 
L 455.154271 167.107266 
L 455.880243 201.032879 
L 456.606215 182.597975 
L 457.332186 167.405834 
L 458.058158 182.582425 
L 458.78413 182.991029 
L 459.510101 183.825437 
L 460.236073 181.404543 
L 461.688017 179.135122 
L 463.13996 183.467971 
L 464.591903 185.973572 
L 464.591903 185.973572 
" style="fill:none;stroke:#ff7f0e;stroke-linecap:square;stroke-width:1.5;"/>
   </g>
   <g id="line2d_3">
    <path clip-path="url(#p3f5e48568f)" d="M 58.773722 188.584513 
L 59.499693 197.863525 
L 60.225665 211.492983 
L 60.951637 222.580691 
L 61.677608 230.038988 
L 62.40358 147.690712 
L 63.129552 174.831761 
L 63.855524 174.832745 
L 64.581495 173.65524 
L 65.307467 259.580082 
L 66.033439 195.734714 
L 66.75941 201.136347 
L 67.485382 216.179559 
L 68.211354 123.609717 
L 68.937325 260.581506 
L 69.663297 203.312628 
L 70.389269 221.507845 
L 71.115241 206.806368 
L 71.841212 189.009434 
L 72.567184 204.873047 
L 73.293156 204.306208 
L 74.019127 205.226928 
L 74.745099 204.025113 
L 75.471071 225.750975 
L 76.197042 201.059524 
L 76.923014 216.482442 
L 77.648986 210.438085 
L 78.374958 243.843508 
L 79.100929 213.377882 
L 79.826901 251.552856 
L 80.552873 244.245125 
L 81.278844 179.853815 
L 82.004816 213.925837 
L 82.730788 206.91069 
L 83.456759 242.399544 
L 84.182731 267.073601 
L 85.634675 165.076167 
L 86.360646 159.283618 
L 87.086618 215.354507 
L 87.81259 163.899641 
L 88.538561 242.71997 
L 89.264533 174.362172 
L 89.990505 144.870432 
L 90.716477 187.546152 
L 91.442448 213.580598 
L 92.16842 165.763042 
L 92.894392 206.139596 
L 93.620363 175.591317 
L 94.346335 207.252706 
L 95.072307 186.197151 
L 95.798278 180.891508 
L 96.52425 197.294597 
L 97.250222 163.372314 
L 97.976194 154.122865 
L 98.702165 163.68312 
L 99.428137 234.403745 
L 100.154109 234.060486 
L 100.88008 203.330214 
L 101.606052 128.963392 
L 102.332024 187.46131 
L 103.057995 195.085976 
L 103.783967 147.668958 
L 104.509939 209.841411 
L 105.235911 206.443037 
L 105.961882 253.266045 
L 106.687854 170.724602 
L 107.413826 164.578314 
L 108.139797 180.081243 
L 108.865769 133.608689 
L 109.591741 231.287821 
L 110.317712 202.045115 
L 111.043684 215.916289 
L 111.769656 161.864705 
L 112.495628 154.220986 
L 113.221599 149.079918 
L 113.947571 209.311518 
L 114.673543 222.672406 
L 116.125486 129.02285 
L 116.851458 225.565083 
L 117.57743 221.870721 
L 118.303401 168.48112 
L 119.029373 86.667836 
L 119.755345 235.704296 
L 120.481316 255.207019 
L 121.207288 215.485702 
L 121.93326 147.948323 
L 122.659231 161.349617 
L 123.385203 205.762575 
L 124.111175 170.583251 
L 124.837147 227.074852 
L 125.563118 204.279879 
L 126.28909 148.269894 
L 127.741033 227.532588 
L 128.467005 148.360631 
L 129.192977 160.755863 
L 129.918948 219.187415 
L 130.64492 125.297448 
L 131.370892 129.890967 
L 132.096864 230.994422 
L 132.822835 199.284608 
L 133.548807 227.390921 
L 135.00075 138.258879 
L 135.726722 189.913524 
L 136.452694 116.177768 
L 137.178665 161.890574 
L 137.904637 168.388 
L 138.630609 167.700407 
L 140.082552 232.64372 
L 140.808524 204.802388 
L 142.260467 139.865067 
L 142.986439 121.59388 
L 143.712411 140.487161 
L 144.438383 220.838748 
L 145.164354 262.621981 
L 145.890326 215.318506 
L 146.616298 100.504406 
L 147.342269 128.271539 
L 148.068241 222.720976 
L 148.794213 216.277264 
L 149.520184 170.27274 
L 150.246156 201.605328 
L 150.972128 261.427397 
L 151.6981 262.863517 
L 152.424071 178.968472 
L 153.150043 124.649686 
L 153.876015 167.414415 
L 154.601986 167.778537 
L 155.327958 199.496391 
L 156.05393 171.129656 
L 156.779901 153.55543 
L 157.505873 198.715802 
L 158.231845 200.715472 
L 158.957817 189.35736 
L 159.683788 188.847956 
L 160.40976 169.088065 
L 161.135732 250.475691 
L 161.861703 215.803465 
L 162.587675 214.083592 
L 163.313647 264.486839 
L 164.039618 245.465259 
L 164.76559 189.948535 
L 165.491562 158.072749 
L 166.217534 170.729099 
L 166.943505 108.121595 
L 167.669477 124.040964 
L 168.395449 100.806471 
L 169.12142 183.895252 
L 169.847392 223.845417 
L 170.573364 199.639634 
L 171.299336 233.947906 
L 172.025307 197.573377 
L 173.477251 132.659264 
L 174.203222 213.295642 
L 174.929194 184.146335 
L 175.655166 161.698719 
L 176.381137 208.139994 
L 177.107109 189.770815 
L 177.833081 157.643542 
L 178.559053 163.304509 
L 179.285024 170.396124 
L 180.010996 194.223956 
L 180.736968 249.116844 
L 182.188911 178.037412 
L 182.914883 163.045615 
L 183.640854 212.746069 
L 184.366826 211.928911 
L 185.092798 118.576374 
L 185.81877 167.568874 
L 186.544741 165.125983 
L 187.270713 185.257152 
L 187.996685 160.68121 
L 188.722656 205.282372 
L 189.448628 207.578773 
L 190.1746 207.037192 
L 191.626543 204.282094 
L 192.352515 193.966535 
L 193.078487 204.716317 
L 193.804458 207.393417 
L 194.53043 218.815164 
L 195.256402 180.239877 
L 195.982373 156.004728 
L 196.708345 178.697081 
L 197.434317 245.540933 
L 198.160289 237.960356 
L 198.88626 215.898328 
L 199.612232 206.542254 
L 200.338204 207.022938 
L 201.064175 237.130517 
L 201.790147 208.189109 
L 202.516119 230.526181 
L 203.24209 190.855853 
L 203.968062 204.026898 
L 204.694034 233.330651 
L 205.420006 192.859278 
L 206.145977 222.51098 
L 206.871949 196.634659 
L 207.597921 219.268895 
L 208.323892 189.23239 
L 209.049864 197.58919 
L 209.775836 229.841256 
L 211.227779 145.572121 
L 212.679723 238.722499 
L 213.405694 196.058266 
L 214.857638 135.847985 
L 215.583609 214.297144 
L 216.309581 227.747637 
L 217.035553 187.149214 
L 217.761524 166.286544 
L 218.487496 220.134568 
L 219.213468 165.196202 
L 219.93944 144.19833 
L 221.391383 191.780972 
L 222.117355 184.553803 
L 222.843326 252.518987 
L 223.569298 169.586504 
L 224.29527 112.931123 
L 225.021242 194.058267 
L 225.747213 229.212187 
L 226.473185 186.46793 
L 227.199157 163.491696 
L 227.925128 205.706054 
L 229.377072 175.027249 
L 230.103043 208.991519 
L 230.829015 264.801541 
L 231.554987 210.264192 
L 232.280959 216.925774 
L 233.00693 106.157613 
L 233.732902 202.138267 
L 234.458874 142.974517 
L 235.184845 185.463584 
L 235.910817 154.901589 
L 236.636789 205.846188 
L 237.36276 217.740993 
L 238.088732 174.865254 
L 238.814704 204.362791 
L 239.540676 252.97795 
L 240.266647 222.442872 
L 240.992619 143.480876 
L 241.718591 192.32787 
L 242.444562 203.964161 
L 243.896506 165.722582 
L 244.622477 211.242386 
L 245.348449 206.12947 
L 246.074421 192.393929 
L 246.800393 205.679179 
L 247.526364 206.000201 
L 248.252336 215.824225 
L 248.978308 204.932938 
L 249.704279 209.194732 
L 250.430251 211.192244 
L 251.156223 198.384987 
L 252.608166 164.299153 
L 253.334138 169.804941 
L 254.06011 201.603145 
L 254.786081 259.058202 
L 255.512053 254.998595 
L 256.238025 220.861218 
L 257.689968 244.523357 
L 258.41594 151.315314 
L 259.141912 229.554456 
L 259.867883 232.577923 
L 260.593855 217.672186 
L 261.319827 215.305534 
L 262.045798 238.446015 
L 262.77177 204.538551 
L 263.497742 236.090845 
L 264.223713 240.63627 
L 264.949685 208.295949 
L 265.675657 189.035567 
L 266.401629 248.17563 
L 267.1276 152.215774 
L 267.853572 164.263575 
L 268.579544 237.767101 
L 269.305515 177.551354 
L 270.757459 222.608138 
L 271.48343 204.819509 
L 272.209402 216.402691 
L 272.935374 231.125292 
L 273.661346 266.23973 
L 274.387317 227.071935 
L 275.113289 206.033352 
L 275.839261 222.752312 
L 276.565232 228.269829 
L 277.291204 158.890486 
L 278.743148 232.925472 
L 279.469119 165.503012 
L 280.195091 230.807391 
L 280.921063 203.17108 
L 281.647034 194.949355 
L 282.373006 205.269438 
L 283.098978 213.890949 
L 283.824949 194.805918 
L 284.550921 200.113095 
L 285.276893 198.782126 
L 286.002865 205.697206 
L 286.728836 198.393509 
L 287.454808 202.132117 
L 288.18078 170.631807 
L 288.906751 210.382062 
L 289.632723 163.014422 
L 290.358695 198.447737 
L 291.084666 159.489305 
L 291.810638 213.342044 
L 292.53661 184.817885 
L 293.262582 214.523476 
L 293.988553 182.1199 
L 294.714525 217.930805 
L 295.440497 193.869222 
L 296.166468 187.935467 
L 296.89244 169.078871 
L 297.618412 184.713165 
L 298.344383 158.090744 
L 299.070355 181.328416 
L 299.796327 141.971959 
L 300.522299 251.5872 
L 301.24827 168.889279 
L 301.974242 172.336009 
L 304.152157 126.081876 
L 304.878129 207.572497 
L 305.604101 201.054792 
L 306.330072 190.015335 
L 307.782016 231.759002 
L 308.507987 203.414345 
L 309.233959 182.974096 
L 309.959931 213.946983 
L 310.685902 180.066949 
L 311.411874 221.740369 
L 312.137846 201.979579 
L 312.863818 177.909112 
L 313.589789 172.974472 
L 314.315761 209.814576 
L 315.041733 172.946393 
L 315.767704 174.859205 
L 316.493676 219.65639 
L 317.219648 211.499426 
L 317.945619 166.833201 
L 318.671591 165.506834 
L 319.397563 187.199346 
L 320.123535 220.24212 
L 320.849506 188.121657 
L 321.575478 209.363356 
L 322.30145 240.738787 
L 323.027421 231.290462 
L 323.753393 133.908267 
L 324.479365 163.369377 
L 325.205336 258.81972 
L 325.931308 210.037962 
L 326.65728 207.169077 
L 327.383252 182.509696 
L 328.109223 208.25422 
L 328.835195 191.400572 
L 329.561167 233.536287 
L 330.287138 199.575356 
L 331.01311 152.39497 
L 331.739082 226.446909 
L 332.465054 160.402676 
L 333.191025 204.157829 
L 333.916997 230.732197 
L 334.642969 238.06352 
L 335.36894 178.019662 
L 336.094912 228.777498 
L 336.820884 227.443317 
L 337.546855 219.227534 
L 338.272827 199.268793 
L 338.998799 154.569253 
L 339.724771 171.056035 
L 340.450742 224.324909 
L 341.176714 244.146793 
L 341.902686 205.285205 
L 342.628657 173.496058 
L 343.354629 226.694418 
L 344.080601 191.498052 
L 344.806572 192.302623 
L 345.532544 240.944333 
L 346.258516 157.752625 
L 346.984488 209.906442 
L 347.710459 209.595013 
L 348.436431 206.777741 
L 349.162403 207.586295 
L 349.888374 207.386084 
L 350.614346 206.7903 
L 351.340318 238.478286 
L 352.066289 224.00484 
L 353.518233 178.477013 
L 354.244205 202.339337 
L 354.970176 234.757402 
L 355.696148 180.899771 
L 356.42212 234.396203 
L 357.148091 197.576088 
L 357.874063 200.514005 
L 358.600035 223.820055 
L 359.326007 219.325821 
L 360.051978 203.760132 
L 360.77795 139.017951 
L 361.503922 240.324103 
L 362.229893 204.696824 
L 362.955865 207.453459 
L 363.681837 207.653508 
L 364.407808 205.773197 
L 365.13378 199.495237 
L 365.859752 190.291341 
L 366.585724 206.440558 
L 367.311695 211.889018 
L 368.037667 199.524146 
L 368.763639 233.580982 
L 369.48961 214.795426 
L 370.215582 236.176451 
L 370.941554 233.484526 
L 371.667525 194.125455 
L 372.393497 224.874532 
L 373.119469 198.985449 
L 373.845441 192.764084 
L 374.571412 197.165194 
L 375.297384 215.791949 
L 376.023356 198.819369 
L 376.749327 173.149026 
L 377.475299 211.939733 
L 378.201271 207.364256 
L 378.927242 206.157344 
L 379.653214 177.511599 
L 380.379186 198.578379 
L 381.105158 185.167868 
L 381.831129 216.53215 
L 382.557101 193.722872 
L 383.283073 211.643851 
L 384.009044 244.740073 
L 384.735016 177.080046 
L 385.460988 210.613171 
L 386.18696 251.176956 
L 386.912931 179.276519 
L 387.638903 232.050434 
L 388.364875 188.184283 
L 389.090846 177.4401 
L 389.816818 209.938804 
L 390.54279 215.398348 
L 391.268761 174.363116 
L 391.994733 193.543127 
L 392.720705 193.755712 
L 393.446677 163.015521 
L 394.172648 197.716832 
L 394.89862 222.66116 
L 395.624592 205.567535 
L 397.076535 167.047187 
L 397.802507 181.529045 
L 398.528478 185.231505 
L 399.25445 176.720172 
L 399.980422 196.43829 
L 400.706394 192.855317 
L 401.432365 186.429301 
L 402.158337 207.30179 
L 402.884309 163.537592 
L 403.61028 200.728646 
L 404.336252 186.775215 
L 405.062224 196.846543 
L 405.788195 172.949778 
L 406.514167 209.395185 
L 407.966111 196.312985 
L 408.692082 230.617748 
L 409.418054 213.672099 
L 410.144026 232.012966 
L 410.869997 168.593364 
L 411.595969 163.09211 
L 412.321941 227.443362 
L 413.047913 171.882947 
L 413.773884 180.213027 
L 414.499856 183.075678 
L 415.225828 180.99306 
L 415.951799 160.61715 
L 416.677771 232.541659 
L 417.403743 189.304851 
L 418.129714 226.396613 
L 418.855686 214.572501 
L 419.581658 193.230786 
L 420.30763 211.842414 
L 421.033601 198.042753 
L 421.759573 237.137227 
L 422.485545 253.540064 
L 423.211516 208.283174 
L 423.937488 213.383446 
L 424.66346 212.005842 
L 425.389431 200.825142 
L 426.115403 209.585856 
L 426.841375 212.904736 
L 427.567347 210.047479 
L 428.293318 213.076553 
L 429.01929 208.299539 
L 429.745262 223.466876 
L 430.471233 211.15865 
L 431.197205 205.228122 
L 431.923177 217.089767 
L 432.649148 198.879329 
L 433.37512 236.308609 
L 434.101092 213.692049 
L 434.827064 202.998591 
L 435.553035 178.109625 
L 436.279007 202.067954 
L 437.004979 193.855566 
L 437.73095 210.12964 
L 438.456922 198.102367 
L 439.182894 216.041618 
L 439.908866 236.987444 
L 440.634837 205.802698 
L 441.360809 211.355666 
L 442.086781 185.793257 
L 442.812752 209.459243 
L 443.538724 173.856324 
L 444.264696 213.727903 
L 444.990667 169.334777 
L 445.716639 213.953595 
L 446.442611 183.154095 
L 447.168583 215.842952 
L 447.894554 215.717238 
L 448.620526 215.19993 
L 449.346498 212.749149 
L 450.072469 212.105402 
L 450.798441 208.950565 
L 451.524413 213.842961 
L 452.250384 167.915855 
L 452.976356 218.909439 
L 453.702328 192.176891 
L 454.4283 213.453385 
L 455.154271 186.979828 
L 455.880243 215.466486 
L 456.606215 214.736655 
L 457.332186 166.569343 
L 458.78413 235.637233 
L 459.510101 213.04738 
L 460.236073 207.639523 
L 460.962045 217.389598 
L 461.688017 212.62266 
L 462.413988 212.137001 
L 463.865932 212.741173 
L 464.591903 212.780627 
L 464.591903 212.780627 
" style="fill:none;stroke:#2ca02c;stroke-linecap:square;stroke-width:1.5;"/>
   </g>
   <g id="line2d_4">
    <path clip-path="url(#p3f5e48568f)" d="M 58.773722 157.501159 
L 59.499693 252.185434 
L 60.225665 216.006839 
L 60.951637 232.670658 
L 61.677608 257.494424 
L 62.40358 184.721313 
L 63.129552 197.293654 
L 63.855524 178.03447 
L 64.581495 168.591673 
L 65.307467 243.931109 
L 66.033439 231.640978 
L 66.75941 174.30131 
L 67.485382 225.767822 
L 68.211354 198.492818 
L 68.937325 241.302564 
L 69.663297 163.440879 
L 70.389269 201.033763 
L 71.115241 218.926577 
L 71.841212 187.650079 
L 72.567184 207.561246 
L 73.293156 204.942562 
L 74.019127 196.881986 
L 74.745099 197.499787 
L 75.471071 217.930609 
L 76.197042 175.912296 
L 77.648986 235.15498 
L 78.374958 245.060784 
L 79.100929 210.298787 
L 79.826901 243.264898 
L 80.552873 208.267454 
L 81.278844 211.138743 
L 82.004816 198.375126 
L 82.730788 228.251668 
L 83.456759 239.252172 
L 84.182731 271.915119 
L 84.908703 241.258798 
L 85.634675 242.173878 
L 86.360646 256.016902 
L 87.086618 211.226823 
L 87.81259 273.632328 
L 88.538561 221.194735 
L 89.264533 209.234229 
L 89.990505 206.990886 
L 90.716477 217.465413 
L 91.442448 240.081994 
L 92.16842 207.969158 
L 92.894392 246.817374 
L 93.620363 175.188358 
L 94.346335 188.381407 
L 95.072307 186.895339 
L 95.798278 187.254691 
L 96.52425 171.404182 
L 97.250222 159.372693 
L 97.976194 157.980204 
L 98.702165 159.484823 
L 99.428137 241.30449 
L 100.154109 281.150806 
L 100.88008 209.753175 
L 101.606052 122.643467 
L 102.332024 137.090702 
L 103.057995 197.667294 
L 103.783967 140.107581 
L 104.509939 236.301103 
L 105.235911 212.664982 
L 105.961882 239.058083 
L 106.687854 201.744969 
L 107.413826 225.188518 
L 108.139797 205.671131 
L 108.865769 212.397965 
L 109.591741 277.508343 
L 110.317712 281.448871 
L 111.043684 242.863422 
L 111.769656 224.834959 
L 112.495628 155.290272 
L 113.221599 111.094812 
L 113.947571 193.464031 
L 114.673543 212.662466 
L 115.399514 142.896323 
L 116.125486 184.92636 
L 116.851458 208.184758 
L 117.57743 205.372972 
L 118.303401 140.783584 
L 119.029373 175.076287 
L 119.755345 266.667047 
L 120.481316 206.950658 
L 121.207288 198.97053 
L 121.93326 194.225284 
L 122.659231 225.832438 
L 123.385203 227.588422 
L 124.111175 225.875493 
L 124.837147 240.863127 
L 125.563118 271.189429 
L 126.28909 135.205402 
L 127.741033 255.919297 
L 128.467005 179.074225 
L 129.192977 143.456138 
L 129.918948 193.474565 
L 130.64492 161.296069 
L 131.370892 195.801533 
L 132.096864 208.998789 
L 132.822835 187.274021 
L 133.548807 194.221365 
L 134.274779 217.264372 
L 135.00075 200.49883 
L 135.726722 215.642586 
L 136.452694 115.165531 
L 137.178665 100.95652 
L 137.904637 166.227254 
L 139.356581 203.765586 
L 140.082552 252.768618 
L 140.808524 174.391059 
L 141.534496 135.224956 
L 142.260467 123.450491 
L 142.986439 157.07899 
L 143.712411 184.856995 
L 144.438383 204.209834 
L 145.164354 241.590451 
L 145.890326 170.832214 
L 146.616298 148.172089 
L 147.342269 169.275784 
L 148.068241 237.794368 
L 148.794213 259.159726 
L 149.520184 111.202803 
L 150.246156 152.484636 
L 150.972128 260.338102 
L 151.6981 221.492699 
L 153.150043 129.484841 
L 153.876015 165.044381 
L 154.601986 171.08936 
L 155.327958 200.422033 
L 156.05393 167.746789 
L 156.779901 173.962914 
L 157.505873 195.187587 
L 158.231845 202.993935 
L 158.957817 202.925865 
L 159.683788 218.050127 
L 160.40976 97.530677 
L 161.135732 158.822612 
L 161.861703 134.986414 
L 163.313647 219.542579 
L 164.039618 237.093374 
L 164.76559 218.953577 
L 165.491562 192.43297 
L 166.217534 137.650203 
L 166.943505 111.644169 
L 167.669477 75.037543 
L 168.395449 74.135626 
L 169.12142 132.156099 
L 169.847392 202.065247 
L 170.573364 199.334251 
L 171.299336 206.791459 
L 172.025307 181.07004 
L 172.751279 178.45086 
L 173.477251 208.199143 
L 174.203222 173.49932 
L 174.929194 187.715763 
L 175.655166 166.33692 
L 176.381137 213.164501 
L 177.107109 199.83222 
L 177.833081 166.542326 
L 178.559053 200.820053 
L 179.285024 159.757444 
L 180.010996 213.496415 
L 180.736968 210.706352 
L 181.462939 231.411726 
L 182.188911 201.006984 
L 182.914883 189.448639 
L 183.640854 202.819549 
L 184.366826 208.171766 
L 185.092798 222.005608 
L 185.81877 201.667637 
L 186.544741 132.765011 
L 187.270713 144.451849 
L 187.996685 181.421859 
L 188.722656 189.168675 
L 189.448628 249.574817 
L 190.1746 156.639988 
L 190.900571 240.232339 
L 191.626543 227.82776 
L 192.352515 228.858706 
L 193.078487 257.786037 
L 193.804458 253.688668 
L 194.53043 203.213278 
L 195.256402 187.042116 
L 195.982373 144.27086 
L 196.708345 146.075402 
L 197.434317 256.157195 
L 198.160289 266.638931 
L 198.88626 278.821068 
L 199.612232 214.076282 
L 200.338204 208.980427 
L 201.064175 229.091427 
L 201.790147 260.243651 
L 202.516119 214.409333 
L 203.24209 197.229029 
L 203.968062 226.207894 
L 204.694034 199.255477 
L 205.420006 199.477674 
L 206.145977 204.479949 
L 206.871949 213.299428 
L 207.597921 209.326513 
L 208.323892 196.718515 
L 209.049864 138.858366 
L 209.775836 238.133382 
L 210.501807 170.611063 
L 211.227779 202.750671 
L 211.953751 207.039558 
L 212.679723 278.597558 
L 213.405694 270.820167 
L 214.131666 226.192599 
L 214.857638 218.24131 
L 215.583609 240.991209 
L 216.309581 227.398045 
L 217.035553 168.900217 
L 217.761524 169.507907 
L 218.487496 194.65514 
L 219.213468 165.562892 
L 219.93944 215.972351 
L 220.665411 171.567992 
L 221.391383 169.120442 
L 222.117355 173.953379 
L 222.843326 266.997002 
L 223.569298 238.771888 
L 224.29527 200.959168 
L 225.021242 178.629887 
L 225.747213 223.433099 
L 226.473185 210.633545 
L 227.199157 174.98652 
L 228.6511 164.522263 
L 229.377072 227.202025 
L 230.103043 168.629999 
L 230.829015 209.898288 
L 231.554987 178.384953 
L 232.280959 219.698647 
L 233.00693 182.877951 
L 233.732902 171.009695 
L 234.458874 191.837239 
L 235.184845 198.825633 
L 235.910817 161.361425 
L 236.636789 206.342062 
L 237.36276 238.31504 
L 238.088732 242.002141 
L 238.814704 244.589063 
L 239.540676 199.372903 
L 240.266647 219.939514 
L 240.992619 168.796233 
L 241.718591 205.076858 
L 242.444562 209.860841 
L 243.170534 217.980757 
L 243.896506 219.894578 
L 244.622477 205.513035 
L 245.348449 211.223963 
L 246.074421 220.525344 
L 246.800393 207.496933 
L 247.526364 215.078171 
L 248.252336 237.399772 
L 248.978308 204.663801 
L 249.704279 178.366437 
L 250.430251 211.647578 
L 251.156223 199.877346 
L 251.882195 177.014533 
L 252.608166 212.281034 
L 253.334138 201.306 
L 254.06011 172.774861 
L 254.786081 271.603689 
L 255.512053 228.589807 
L 256.238025 208.350609 
L 256.963996 236.985077 
L 258.41594 155.805308 
L 259.141912 203.107683 
L 259.867883 229.296547 
L 260.593855 211.277918 
L 261.319827 215.459823 
L 262.045798 230.647511 
L 262.77177 212.903846 
L 263.497742 233.876265 
L 264.223713 233.771445 
L 264.949685 239.804288 
L 265.675657 134.390176 
L 266.401629 222.384447 
L 267.1276 224.92686 
L 267.853572 171.695967 
L 268.579544 253.013436 
L 269.305515 215.65518 
L 270.031487 240.054602 
L 270.757459 234.310083 
L 271.48343 173.043837 
L 272.209402 173.900445 
L 273.661346 266.438687 
L 274.387317 178.727442 
L 275.113289 163.888774 
L 275.839261 208.436221 
L 276.565232 196.153901 
L 277.291204 201.38136 
L 278.017176 210.477385 
L 279.469119 174.777528 
L 280.195091 193.90984 
L 280.921063 200.938928 
L 281.647034 194.051198 
L 282.373006 206.671559 
L 283.098978 210.757677 
L 283.824949 203.232437 
L 284.550921 205.910909 
L 285.276893 193.961344 
L 286.002865 205.020623 
L 286.728836 200.687133 
L 287.454808 204.319296 
L 288.18078 210.41009 
L 288.906751 212.533334 
L 289.632723 199.670738 
L 290.358695 181.218295 
L 291.084666 168.601701 
L 291.810638 189.632542 
L 292.53661 206.273189 
L 293.262582 168.993365 
L 293.988553 199.997614 
L 294.714525 165.83734 
L 295.440497 200.213137 
L 296.166468 172.213824 
L 296.89244 161.82708 
L 297.618412 181.904736 
L 298.344383 156.86635 
L 299.070355 162.391355 
L 299.796327 197.344223 
L 300.522299 270.484424 
L 301.24827 210.783155 
L 301.974242 231.290601 
L 302.700214 212.157644 
L 303.426185 200.213517 
L 304.152157 181.784911 
L 304.878129 169.458897 
L 305.604101 229.747429 
L 306.330072 194.037726 
L 307.782016 224.91701 
L 308.507987 202.851778 
L 309.233959 207.933027 
L 309.959931 180.676749 
L 310.685902 220.290054 
L 311.411874 162.029218 
L 312.137846 210.712602 
L 312.863818 220.829728 
L 313.589789 218.871548 
L 314.315761 197.449669 
L 315.041733 192.684319 
L 315.767704 216.693782 
L 316.493676 195.815536 
L 317.219648 253.938139 
L 317.945619 199.82433 
L 318.671591 201.284572 
L 319.397563 209.618588 
L 320.123535 238.515698 
L 320.849506 208.029937 
L 321.575478 272.854551 
L 322.30145 281.76358 
L 323.027421 230.492102 
L 323.753393 136.259473 
L 324.479365 199.160324 
L 325.205336 280.460036 
L 325.931308 208.150275 
L 326.65728 223.616637 
L 327.383252 217.806735 
L 328.109223 182.110353 
L 328.835195 209.893036 
L 329.561167 245.256147 
L 330.287138 221.086982 
L 331.01311 240.691918 
L 331.739082 196.162245 
L 333.191025 223.809387 
L 333.916997 209.025476 
L 334.642969 246.669502 
L 335.36894 225.187882 
L 336.094912 235.148571 
L 336.820884 197.636029 
L 337.546855 205.297971 
L 338.272827 202.00788 
L 338.998799 201.004738 
L 339.724771 208.979524 
L 340.450742 209.128728 
L 341.176714 199.783698 
L 341.902686 178.504896 
L 342.628657 202.848994 
L 343.354629 207.803296 
L 344.080601 194.667177 
L 344.806572 211.702206 
L 345.532544 204.961623 
L 346.258516 189.304626 
L 346.984488 205.255199 
L 347.710459 201.896508 
L 348.436431 207.633975 
L 349.162403 205.427878 
L 349.888374 205.643394 
L 350.614346 194.986606 
L 351.340318 217.052761 
L 352.066289 202.078629 
L 352.792261 203.934466 
L 353.518233 192.313531 
L 354.970176 206.018693 
L 355.696148 180.778405 
L 356.42212 200.405292 
L 357.148091 191.328078 
L 357.874063 223.079778 
L 358.600035 212.842035 
L 359.326007 234.960439 
L 360.051978 193.72827 
L 360.77795 165.931048 
L 361.503922 237.088273 
L 362.229893 206.286189 
L 362.955865 200.02813 
L 363.681837 201.972824 
L 364.407808 209.439086 
L 365.13378 197.298833 
L 365.859752 207.225129 
L 366.585724 227.629338 
L 367.311695 226.94269 
L 368.037667 198.644718 
L 368.763639 238.337827 
L 369.48961 179.340351 
L 370.215582 238.821563 
L 370.941554 215.149416 
L 371.667525 160.095896 
L 372.393497 201.916131 
L 373.119469 188.782654 
L 373.845441 186.027884 
L 374.571412 203.479074 
L 375.297384 230.212229 
L 376.023356 200.089806 
L 376.749327 151.123798 
L 377.475299 215.427214 
L 378.201271 229.313843 
L 378.927242 199.631365 
L 379.653214 218.772027 
L 380.379186 224.178002 
L 381.105158 207.622066 
L 381.831129 203.354414 
L 382.557101 187.208695 
L 383.283073 231.568677 
L 384.009044 241.198009 
L 384.735016 201.521232 
L 385.460988 203.839229 
L 386.18696 242.9174 
L 386.912931 207.324126 
L 387.638903 232.498274 
L 388.364875 212.938187 
L 389.090846 201.791792 
L 389.816818 225.106311 
L 390.54279 230.274968 
L 391.268761 205.385636 
L 391.994733 217.611984 
L 392.720705 223.744065 
L 393.446677 149.806121 
L 394.172648 179.488575 
L 394.89862 251.637819 
L 395.624592 199.726686 
L 396.350563 175.255582 
L 397.076535 160.993902 
L 397.802507 174.18242 
L 398.528478 181.170814 
L 399.25445 176.039721 
L 399.980422 189.351973 
L 400.706394 209.691572 
L 401.432365 202.726143 
L 402.158337 227.091828 
L 402.884309 151.484173 
L 403.61028 176.890104 
L 404.336252 184.779508 
L 405.062224 178.560845 
L 405.788195 202.222886 
L 406.514167 172.240995 
L 407.240139 179.225104 
L 407.966111 222.674716 
L 408.692082 245.002584 
L 409.418054 172.260585 
L 410.144026 212.709396 
L 410.869997 191.728889 
L 411.595969 198.266254 
L 412.321941 210.443088 
L 413.047913 172.423399 
L 413.773884 214.777327 
L 414.499856 211.881206 
L 415.225828 194.843683 
L 415.951799 184.055355 
L 416.677771 208.321374 
L 417.403743 205.904452 
L 418.129714 209.898207 
L 418.855686 205.580651 
L 419.581658 175.562292 
L 420.30763 206.572202 
L 421.033601 187.796258 
L 421.759573 235.27277 
L 422.485545 231.881953 
L 423.211516 224.586008 
L 423.937488 200.582099 
L 424.66346 219.998917 
L 425.389431 196.846101 
L 426.115403 222.47515 
L 426.841375 220.248504 
L 427.567347 246.569428 
L 428.293318 210.216056 
L 429.01929 238.257542 
L 429.745262 177.454088 
L 430.471233 228.986241 
L 431.197205 197.896227 
L 431.923177 197.680158 
L 432.649148 166.317901 
L 433.37512 223.625702 
L 434.101092 231.671844 
L 434.827064 195.266049 
L 435.553035 195.510102 
L 436.279007 202.257363 
L 437.004979 202.922501 
L 437.73095 199.758365 
L 438.456922 204.228755 
L 439.182894 207.202671 
L 439.908866 199.030502 
L 440.634837 200.55318 
L 441.360809 207.579087 
L 442.086781 203.237066 
L 442.812752 197.078007 
L 443.538724 216.018218 
L 444.264696 199.200993 
L 444.990667 195.914608 
L 445.716639 200.842508 
L 446.442611 202.282385 
L 447.168583 199.7976 
L 447.894554 203.345326 
L 448.620526 203.360757 
L 449.346498 202.676324 
L 450.072469 210.504607 
L 450.798441 199.759398 
L 451.524413 202.681022 
L 452.250384 182.653365 
L 452.976356 204.026811 
L 453.702328 211.485936 
L 454.4283 200.814392 
L 455.154271 194.559764 
L 455.880243 203.40041 
L 456.606215 201.174314 
L 457.332186 200.40003 
L 458.058158 216.177912 
L 458.78413 201.262637 
L 459.510101 199.99072 
L 460.236073 201.243338 
L 460.962045 200.776606 
L 461.688017 200.052784 
L 462.413988 202.675776 
L 463.13996 225.445068 
L 463.865932 200.630048 
L 464.591903 203.182933 
L 464.591903 203.182933 
" style="fill:none;stroke:#d62728;stroke-linecap:square;stroke-width:1.5;"/>
   </g>
   <g id="line2d_5">
    <path clip-path="url(#p3f5e48568f)" d="M 58.773722 204.704284 
L 464.591903 204.704284 
L 464.591903 204.704284 
" style="fill:none;stroke:#000000;stroke-dasharray:3.7,1.6;stroke-dashoffset:0;"/>
   </g>
   <g id="matplotlib.axis_1">
    <g id="xtick_1">
     <g id="line2d_6">
      <defs>
       <path d="M 0 0 
L 0 3.5 
" id="m3fed1d0b71" style="stroke:#000000;stroke-width:0.8;"/>
      </defs>
      <g>
       <use style="stroke:#000000;stroke-width:0.8;" x="79.826901" xlink:href="#m3fed1d0b71" y="294.118125"/>
      </g>
     </g>
     <g id="text_1">
      <!-- 100 -->
      <defs>
       <path d="M 12.40625 8.296875 
L 28.515625 8.296875 
L 28.515625 63.921875 
L 10.984375 60.40625 
L 10.984375 69.390625 
L 28.421875 72.90625 
L 38.28125 72.90625 
L 38.28125 8.296875 
L 54.390625 8.296875 
L 54.390625 0 
L 12.40625 0 
z
" id="DejaVuSans-49"/>
       <path d="M 31.78125 66.40625 
Q 24.171875 66.40625 20.328125 58.90625 
Q 16.5 51.421875 16.5 36.375 
Q 16.5 21.390625 20.328125 13.890625 
Q 24.171875 6.390625 31.78125 6.390625 
Q 39.453125 6.390625 43.28125 13.890625 
Q 47.125 21.390625 47.125 36.375 
Q 47.125 51.421875 43.28125 58.90625 
Q 39.453125 66.40625 31.78125 66.40625 
z
M 31.78125 74.21875 
Q 44.046875 74.21875 50.515625 64.515625 
Q 56.984375 54.828125 56.984375 36.375 
Q 56.984375 17.96875 50.515625 8.265625 
Q 44.046875 -1.421875 31.78125 -1.421875 
Q 19.53125 -1.421875 13.0625 8.265625 
Q 6.59375 17.96875 6.59375 36.375 
Q 6.59375 54.828125 13.0625 64.515625 
Q 19.53125 74.21875 31.78125 74.21875 
z
" id="DejaVuSans-48"/>
      </defs>
      <g transform="translate(70.283151 308.716563)scale(0.1 -0.1)">
       <use xlink:href="#DejaVuSans-49"/>
       <use x="63.623047" xlink:href="#DejaVuSans-48"/>
       <use x="127.246094" xlink:href="#DejaVuSans-48"/>
      </g>
     </g>
    </g>
    <g id="xtick_2">
     <g id="line2d_7">
      <g>
       <use style="stroke:#000000;stroke-width:0.8;" x="152.424071" xlink:href="#m3fed1d0b71" y="294.118125"/>
      </g>
     </g>
     <g id="text_2">
      <!-- 200 -->
      <defs>
       <path d="M 19.1875 8.296875 
L 53.609375 8.296875 
L 53.609375 0 
L 7.328125 0 
L 7.328125 8.296875 
Q 12.9375 14.109375 22.625 23.890625 
Q 32.328125 33.6875 34.8125 36.53125 
Q 39.546875 41.84375 41.421875 45.53125 
Q 43.3125 49.21875 43.3125 52.78125 
Q 43.3125 58.59375 39.234375 62.25 
Q 35.15625 65.921875 28.609375 65.921875 
Q 23.96875 65.921875 18.8125 64.3125 
Q 13.671875 62.703125 7.8125 59.421875 
L 7.8125 69.390625 
Q 13.765625 71.78125 18.9375 73 
Q 24.125 74.21875 28.421875 74.21875 
Q 39.75 74.21875 46.484375 68.546875 
Q 53.21875 62.890625 53.21875 53.421875 
Q 53.21875 48.921875 51.53125 44.890625 
Q 49.859375 40.875 45.40625 35.40625 
Q 44.1875 33.984375 37.640625 27.21875 
Q 31.109375 20.453125 19.1875 8.296875 
z
" id="DejaVuSans-50"/>
      </defs>
      <g transform="translate(142.880321 308.716563)scale(0.1 -0.1)">
       <use xlink:href="#DejaVuSans-50"/>
       <use x="63.623047" xlink:href="#DejaVuSans-48"/>
       <use x="127.246094" xlink:href="#DejaVuSans-48"/>
      </g>
     </g>
    </g>
    <g id="xtick_3">
     <g id="line2d_8">
      <g>
       <use style="stroke:#000000;stroke-width:0.8;" x="225.021242" xlink:href="#m3fed1d0b71" y="294.118125"/>
      </g>
     </g>
     <g id="text_3">
      <!-- 300 -->
      <defs>
       <path d="M 40.578125 39.3125 
Q 47.65625 37.796875 51.625 33 
Q 55.609375 28.21875 55.609375 21.1875 
Q 55.609375 10.40625 48.1875 4.484375 
Q 40.765625 -1.421875 27.09375 -1.421875 
Q 22.515625 -1.421875 17.65625 -0.515625 
Q 12.796875 0.390625 7.625 2.203125 
L 7.625 11.71875 
Q 11.71875 9.328125 16.59375 8.109375 
Q 21.484375 6.890625 26.8125 6.890625 
Q 36.078125 6.890625 40.9375 10.546875 
Q 45.796875 14.203125 45.796875 21.1875 
Q 45.796875 27.640625 41.28125 31.265625 
Q 36.765625 34.90625 28.71875 34.90625 
L 20.21875 34.90625 
L 20.21875 43.015625 
L 29.109375 43.015625 
Q 36.375 43.015625 40.234375 45.921875 
Q 44.09375 48.828125 44.09375 54.296875 
Q 44.09375 59.90625 40.109375 62.90625 
Q 36.140625 65.921875 28.71875 65.921875 
Q 24.65625 65.921875 20.015625 65.03125 
Q 15.375 64.15625 9.8125 62.3125 
L 9.8125 71.09375 
Q 15.4375 72.65625 20.34375 73.4375 
Q 25.25 74.21875 29.59375 74.21875 
Q 40.828125 74.21875 47.359375 69.109375 
Q 53.90625 64.015625 53.90625 55.328125 
Q 53.90625 49.265625 50.4375 45.09375 
Q 46.96875 40.921875 40.578125 39.3125 
z
" id="DejaVuSans-51"/>
      </defs>
      <g transform="translate(215.477492 308.716563)scale(0.1 -0.1)">
       <use xlink:href="#DejaVuSans-51"/>
       <use x="63.623047" xlink:href="#DejaVuSans-48"/>
       <use x="127.246094" xlink:href="#DejaVuSans-48"/>
      </g>
     </g>
    </g>
    <g id="xtick_4">
     <g id="line2d_9">
      <g>
       <use style="stroke:#000000;stroke-width:0.8;" x="297.618412" xlink:href="#m3fed1d0b71" y="294.118125"/>
      </g>
     </g>
     <g id="text_4">
      <!-- 400 -->
      <defs>
       <path d="M 37.796875 64.3125 
L 12.890625 25.390625 
L 37.796875 25.390625 
z
M 35.203125 72.90625 
L 47.609375 72.90625 
L 47.609375 25.390625 
L 58.015625 25.390625 
L 58.015625 17.1875 
L 47.609375 17.1875 
L 47.609375 0 
L 37.796875 0 
L 37.796875 17.1875 
L 4.890625 17.1875 
L 4.890625 26.703125 
z
" id="DejaVuSans-52"/>
      </defs>
      <g transform="translate(288.074662 308.716563)scale(0.1 -0.1)">
       <use xlink:href="#DejaVuSans-52"/>
       <use x="63.623047" xlink:href="#DejaVuSans-48"/>
       <use x="127.246094" xlink:href="#DejaVuSans-48"/>
      </g>
     </g>
    </g>
    <g id="xtick_5">
     <g id="line2d_10">
      <g>
       <use style="stroke:#000000;stroke-width:0.8;" x="370.215582" xlink:href="#m3fed1d0b71" y="294.118125"/>
      </g>
     </g>
     <g id="text_5">
      <!-- 500 -->
      <defs>
       <path d="M 10.796875 72.90625 
L 49.515625 72.90625 
L 49.515625 64.59375 
L 19.828125 64.59375 
L 19.828125 46.734375 
Q 21.96875 47.46875 24.109375 47.828125 
Q 26.265625 48.1875 28.421875 48.1875 
Q 40.625 48.1875 47.75 41.5 
Q 54.890625 34.8125 54.890625 23.390625 
Q 54.890625 11.625 47.5625 5.09375 
Q 40.234375 -1.421875 26.90625 -1.421875 
Q 22.3125 -1.421875 17.546875 -0.640625 
Q 12.796875 0.140625 7.71875 1.703125 
L 7.71875 11.625 
Q 12.109375 9.234375 16.796875 8.0625 
Q 21.484375 6.890625 26.703125 6.890625 
Q 35.15625 6.890625 40.078125 11.328125 
Q 45.015625 15.765625 45.015625 23.390625 
Q 45.015625 31 40.078125 35.4375 
Q 35.15625 39.890625 26.703125 39.890625 
Q 22.75 39.890625 18.8125 39.015625 
Q 14.890625 38.140625 10.796875 36.28125 
z
" id="DejaVuSans-53"/>
      </defs>
      <g transform="translate(360.671832 308.716563)scale(0.1 -0.1)">
       <use xlink:href="#DejaVuSans-53"/>
       <use x="63.623047" xlink:href="#DejaVuSans-48"/>
       <use x="127.246094" xlink:href="#DejaVuSans-48"/>
      </g>
     </g>
    </g>
    <g id="xtick_6">
     <g id="line2d_11">
      <g>
       <use style="stroke:#000000;stroke-width:0.8;" x="442.812752" xlink:href="#m3fed1d0b71" y="294.118125"/>
      </g>
     </g>
     <g id="text_6">
      <!-- 600 -->
      <defs>
       <path d="M 33.015625 40.375 
Q 26.375 40.375 22.484375 35.828125 
Q 18.609375 31.296875 18.609375 23.390625 
Q 18.609375 15.53125 22.484375 10.953125 
Q 26.375 6.390625 33.015625 6.390625 
Q 39.65625 6.390625 43.53125 10.953125 
Q 47.40625 15.53125 47.40625 23.390625 
Q 47.40625 31.296875 43.53125 35.828125 
Q 39.65625 40.375 33.015625 40.375 
z
M 52.59375 71.296875 
L 52.59375 62.3125 
Q 48.875 64.0625 45.09375 64.984375 
Q 41.3125 65.921875 37.59375 65.921875 
Q 27.828125 65.921875 22.671875 59.328125 
Q 17.53125 52.734375 16.796875 39.40625 
Q 19.671875 43.65625 24.015625 45.921875 
Q 28.375 48.1875 33.59375 48.1875 
Q 44.578125 48.1875 50.953125 41.515625 
Q 57.328125 34.859375 57.328125 23.390625 
Q 57.328125 12.15625 50.6875 5.359375 
Q 44.046875 -1.421875 33.015625 -1.421875 
Q 20.359375 -1.421875 13.671875 8.265625 
Q 6.984375 17.96875 6.984375 36.375 
Q 6.984375 53.65625 15.1875 63.9375 
Q 23.390625 74.21875 37.203125 74.21875 
Q 40.921875 74.21875 44.703125 73.484375 
Q 48.484375 72.75 52.59375 71.296875 
z
" id="DejaVuSans-54"/>
      </defs>
      <g transform="translate(433.269002 308.716563)scale(0.1 -0.1)">
       <use xlink:href="#DejaVuSans-54"/>
       <use x="63.623047" xlink:href="#DejaVuSans-48"/>
       <use x="127.246094" xlink:href="#DejaVuSans-48"/>
      </g>
     </g>
    </g>
    <g id="text_7">
     <!-- Tempo -->
     <defs>
      <path d="M -0.296875 72.90625 
L 61.375 72.90625 
L 61.375 64.59375 
L 35.5 64.59375 
L 35.5 0 
L 25.59375 0 
L 25.59375 64.59375 
L -0.296875 64.59375 
z
" id="DejaVuSans-84"/>
      <path d="M 56.203125 29.59375 
L 56.203125 25.203125 
L 14.890625 25.203125 
Q 15.484375 15.921875 20.484375 11.0625 
Q 25.484375 6.203125 34.421875 6.203125 
Q 39.59375 6.203125 44.453125 7.46875 
Q 49.3125 8.734375 54.109375 11.28125 
L 54.109375 2.78125 
Q 49.265625 0.734375 44.1875 -0.34375 
Q 39.109375 -1.421875 33.890625 -1.421875 
Q 20.796875 -1.421875 13.15625 6.1875 
Q 5.515625 13.8125 5.515625 26.8125 
Q 5.515625 40.234375 12.765625 48.109375 
Q 20.015625 56 32.328125 56 
Q 43.359375 56 49.78125 48.890625 
Q 56.203125 41.796875 56.203125 29.59375 
z
M 47.21875 32.234375 
Q 47.125 39.59375 43.09375 43.984375 
Q 39.0625 48.390625 32.421875 48.390625 
Q 24.90625 48.390625 20.390625 44.140625 
Q 15.875 39.890625 15.1875 32.171875 
z
" id="DejaVuSans-101"/>
      <path d="M 52 44.1875 
Q 55.375 50.25 60.0625 53.125 
Q 64.75 56 71.09375 56 
Q 79.640625 56 84.28125 50.015625 
Q 88.921875 44.046875 88.921875 33.015625 
L 88.921875 0 
L 79.890625 0 
L 79.890625 32.71875 
Q 79.890625 40.578125 77.09375 44.375 
Q 74.3125 48.1875 68.609375 48.1875 
Q 61.625 48.1875 57.5625 43.546875 
Q 53.515625 38.921875 53.515625 30.90625 
L 53.515625 0 
L 44.484375 0 
L 44.484375 32.71875 
Q 44.484375 40.625 41.703125 44.40625 
Q 38.921875 48.1875 33.109375 48.1875 
Q 26.21875 48.1875 22.15625 43.53125 
Q 18.109375 38.875 18.109375 30.90625 
L 18.109375 0 
L 9.078125 0 
L 9.078125 54.6875 
L 18.109375 54.6875 
L 18.109375 46.1875 
Q 21.1875 51.21875 25.484375 53.609375 
Q 29.78125 56 35.6875 56 
Q 41.65625 56 45.828125 52.96875 
Q 50 49.953125 52 44.1875 
z
" id="DejaVuSans-109"/>
      <path d="M 18.109375 8.203125 
L 18.109375 -20.796875 
L 9.078125 -20.796875 
L 9.078125 54.6875 
L 18.109375 54.6875 
L 18.109375 46.390625 
Q 20.953125 51.265625 25.265625 53.625 
Q 29.59375 56 35.59375 56 
Q 45.5625 56 51.78125 48.09375 
Q 58.015625 40.1875 58.015625 27.296875 
Q 58.015625 14.40625 51.78125 6.484375 
Q 45.5625 -1.421875 35.59375 -1.421875 
Q 29.59375 -1.421875 25.265625 0.953125 
Q 20.953125 3.328125 18.109375 8.203125 
z
M 48.6875 27.296875 
Q 48.6875 37.203125 44.609375 42.84375 
Q 40.53125 48.484375 33.40625 48.484375 
Q 26.265625 48.484375 22.1875 42.84375 
Q 18.109375 37.203125 18.109375 27.296875 
Q 18.109375 17.390625 22.1875 11.75 
Q 26.265625 6.109375 33.40625 6.109375 
Q 40.53125 6.109375 44.609375 11.75 
Q 48.6875 17.390625 48.6875 27.296875 
z
" id="DejaVuSans-112"/>
      <path d="M 30.609375 48.390625 
Q 23.390625 48.390625 19.1875 42.75 
Q 14.984375 37.109375 14.984375 27.296875 
Q 14.984375 17.484375 19.15625 11.84375 
Q 23.34375 6.203125 30.609375 6.203125 
Q 37.796875 6.203125 41.984375 11.859375 
Q 46.1875 17.53125 46.1875 27.296875 
Q 46.1875 37.015625 41.984375 42.703125 
Q 37.796875 48.390625 30.609375 48.390625 
z
M 30.609375 56 
Q 42.328125 56 49.015625 48.375 
Q 55.71875 40.765625 55.71875 27.296875 
Q 55.71875 13.875 49.015625 6.21875 
Q 42.328125 -1.421875 30.609375 -1.421875 
Q 18.84375 -1.421875 12.171875 6.21875 
Q 5.515625 13.875 5.515625 27.296875 
Q 5.515625 40.765625 12.171875 48.375 
Q 18.84375 56 30.609375 56 
z
" id="DejaVuSans-111"/>
     </defs>
     <g transform="translate(245.298438 322.394687)scale(0.1 -0.1)">
      <use xlink:href="#DejaVuSans-84"/>
      <use x="44.083984" xlink:href="#DejaVuSans-101"/>
      <use x="105.607422" xlink:href="#DejaVuSans-109"/>
      <use x="203.019531" xlink:href="#DejaVuSans-112"/>
      <use x="266.496094" xlink:href="#DejaVuSans-111"/>
     </g>
    </g>
   </g>
   <g id="matplotlib.axis_2">
    <g id="ytick_1">
     <g id="line2d_12">
      <defs>
       <path d="M 0 0 
L -3.5 0 
" id="m536905d348" style="stroke:#000000;stroke-width:0.8;"/>
      </defs>
      <g>
       <use style="stroke:#000000;stroke-width:0.8;" x="38.482813" xlink:href="#m536905d348" y="278.384616"/>
      </g>
     </g>
     <g id="text_8">
      <!-- 0.2 -->
      <defs>
       <path d="M 10.59375 35.5 
L 73.1875 35.5 
L 73.1875 27.203125 
L 10.59375 27.203125 
z
" id="DejaVuSans-8722"/>
       <path d="M 10.6875 12.40625 
L 21 12.40625 
L 21 0 
L 10.6875 0 
z
" id="DejaVuSans-46"/>
      </defs>
      <g transform="translate(7.2 282.183835)scale(0.1 -0.1)">
       <use xlink:href="#DejaVuSans-8722"/>
       <use x="83.789062" xlink:href="#DejaVuSans-48"/>
       <use x="147.412109" xlink:href="#DejaVuSans-46"/>
       <use x="179.199219" xlink:href="#DejaVuSans-50"/>
      </g>
     </g>
    </g>
    <g id="ytick_2">
     <g id="line2d_13">
      <g>
       <use style="stroke:#000000;stroke-width:0.8;" x="38.482813" xlink:href="#m536905d348" y="241.54445"/>
      </g>
     </g>
     <g id="text_9">
      <!-- 0.1 -->
      <g transform="translate(7.2 245.343669)scale(0.1 -0.1)">
       <use xlink:href="#DejaVuSans-8722"/>
       <use x="83.789062" xlink:href="#DejaVuSans-48"/>
       <use x="147.412109" xlink:href="#DejaVuSans-46"/>
       <use x="179.199219" xlink:href="#DejaVuSans-49"/>
      </g>
     </g>
    </g>
    <g id="ytick_3">
     <g id="line2d_14">
      <g>
       <use style="stroke:#000000;stroke-width:0.8;" x="38.482813" xlink:href="#m536905d348" y="204.704284"/>
      </g>
     </g>
     <g id="text_10">
      <!-- 0.0 -->
      <g transform="translate(15.579688 208.503502)scale(0.1 -0.1)">
       <use xlink:href="#DejaVuSans-48"/>
       <use x="63.623047" xlink:href="#DejaVuSans-46"/>
       <use x="95.410156" xlink:href="#DejaVuSans-48"/>
      </g>
     </g>
    </g>
    <g id="ytick_4">
     <g id="line2d_15">
      <g>
       <use style="stroke:#000000;stroke-width:0.8;" x="38.482813" xlink:href="#m536905d348" y="167.864118"/>
      </g>
     </g>
     <g id="text_11">
      <!-- 0.1 -->
      <g transform="translate(15.579688 171.663336)scale(0.1 -0.1)">
       <use xlink:href="#DejaVuSans-48"/>
       <use x="63.623047" xlink:href="#DejaVuSans-46"/>
       <use x="95.410156" xlink:href="#DejaVuSans-49"/>
      </g>
     </g>
    </g>
    <g id="ytick_5">
     <g id="line2d_16">
      <g>
       <use style="stroke:#000000;stroke-width:0.8;" x="38.482813" xlink:href="#m536905d348" y="131.023951"/>
      </g>
     </g>
     <g id="text_12">
      <!-- 0.2 -->
      <g transform="translate(15.579688 134.82317)scale(0.1 -0.1)">
       <use xlink:href="#DejaVuSans-48"/>
       <use x="63.623047" xlink:href="#DejaVuSans-46"/>
       <use x="95.410156" xlink:href="#DejaVuSans-50"/>
      </g>
     </g>
    </g>
    <g id="ytick_6">
     <g id="line2d_17">
      <g>
       <use style="stroke:#000000;stroke-width:0.8;" x="38.482813" xlink:href="#m536905d348" y="94.183785"/>
      </g>
     </g>
     <g id="text_13">
      <!-- 0.3 -->
      <g transform="translate(15.579688 97.983004)scale(0.1 -0.1)">
       <use xlink:href="#DejaVuSans-48"/>
       <use x="63.623047" xlink:href="#DejaVuSans-46"/>
       <use x="95.410156" xlink:href="#DejaVuSans-51"/>
      </g>
     </g>
    </g>
    <g id="ytick_7">
     <g id="line2d_18">
      <g>
       <use style="stroke:#000000;stroke-width:0.8;" x="38.482813" xlink:href="#m536905d348" y="57.343619"/>
      </g>
     </g>
     <g id="text_14">
      <!-- 0.4 -->
      <g transform="translate(15.579688 61.142838)scale(0.1 -0.1)">
       <use xlink:href="#DejaVuSans-48"/>
       <use x="63.623047" xlink:href="#DejaVuSans-46"/>
       <use x="95.410156" xlink:href="#DejaVuSans-52"/>
      </g>
     </g>
    </g>
   </g>
   <g id="patch_3">
    <path d="M 38.482813 294.118125 
L 38.482813 22.318125 
" style="fill:none;stroke:#000000;stroke-linecap:square;stroke-linejoin:miter;stroke-width:0.8;"/>
   </g>
   <g id="patch_4">
    <path d="M 38.482813 294.118125 
L 484.882812 294.118125 
" style="fill:none;stroke:#000000;stroke-linecap:square;stroke-linejoin:miter;stroke-width:0.8;"/>
   </g>
   <g id="text_15">
    <!-- Gini_bTax -->
    <defs>
     <path d="M 59.515625 10.40625 
L 59.515625 29.984375 
L 43.40625 29.984375 
L 43.40625 38.09375 
L 69.28125 38.09375 
L 69.28125 6.78125 
Q 63.578125 2.734375 56.6875 0.65625 
Q 49.8125 -1.421875 42 -1.421875 
Q 24.90625 -1.421875 15.25 8.5625 
Q 5.609375 18.5625 5.609375 36.375 
Q 5.609375 54.25 15.25 64.234375 
Q 24.90625 74.21875 42 74.21875 
Q 49.125 74.21875 55.546875 72.453125 
Q 61.96875 70.703125 67.390625 67.28125 
L 67.390625 56.78125 
Q 61.921875 61.421875 55.765625 63.765625 
Q 49.609375 66.109375 42.828125 66.109375 
Q 29.4375 66.109375 22.71875 58.640625 
Q 16.015625 51.171875 16.015625 36.375 
Q 16.015625 21.625 22.71875 14.15625 
Q 29.4375 6.6875 42.828125 6.6875 
Q 48.046875 6.6875 52.140625 7.59375 
Q 56.25 8.5 59.515625 10.40625 
z
" id="DejaVuSans-71"/>
     <path d="M 9.421875 54.6875 
L 18.40625 54.6875 
L 18.40625 0 
L 9.421875 0 
z
M 9.421875 75.984375 
L 18.40625 75.984375 
L 18.40625 64.59375 
L 9.421875 64.59375 
z
" id="DejaVuSans-105"/>
     <path d="M 54.890625 33.015625 
L 54.890625 0 
L 45.90625 0 
L 45.90625 32.71875 
Q 45.90625 40.484375 42.875 44.328125 
Q 39.84375 48.1875 33.796875 48.1875 
Q 26.515625 48.1875 22.3125 43.546875 
Q 18.109375 38.921875 18.109375 30.90625 
L 18.109375 0 
L 9.078125 0 
L 9.078125 54.6875 
L 18.109375 54.6875 
L 18.109375 46.1875 
Q 21.34375 51.125 25.703125 53.5625 
Q 30.078125 56 35.796875 56 
Q 45.21875 56 50.046875 50.171875 
Q 54.890625 44.34375 54.890625 33.015625 
z
" id="DejaVuSans-110"/>
     <path d="M 50.984375 -16.609375 
L 50.984375 -23.578125 
L -0.984375 -23.578125 
L -0.984375 -16.609375 
z
" id="DejaVuSans-95"/>
     <path d="M 48.6875 27.296875 
Q 48.6875 37.203125 44.609375 42.84375 
Q 40.53125 48.484375 33.40625 48.484375 
Q 26.265625 48.484375 22.1875 42.84375 
Q 18.109375 37.203125 18.109375 27.296875 
Q 18.109375 17.390625 22.1875 11.75 
Q 26.265625 6.109375 33.40625 6.109375 
Q 40.53125 6.109375 44.609375 11.75 
Q 48.6875 17.390625 48.6875 27.296875 
z
M 18.109375 46.390625 
Q 20.953125 51.265625 25.265625 53.625 
Q 29.59375 56 35.59375 56 
Q 45.5625 56 51.78125 48.09375 
Q 58.015625 40.1875 58.015625 27.296875 
Q 58.015625 14.40625 51.78125 6.484375 
Q 45.5625 -1.421875 35.59375 -1.421875 
Q 29.59375 -1.421875 25.265625 0.953125 
Q 20.953125 3.328125 18.109375 8.203125 
L 18.109375 0 
L 9.078125 0 
L 9.078125 75.984375 
L 18.109375 75.984375 
z
" id="DejaVuSans-98"/>
     <path d="M 34.28125 27.484375 
Q 23.390625 27.484375 19.1875 25 
Q 14.984375 22.515625 14.984375 16.5 
Q 14.984375 11.71875 18.140625 8.90625 
Q 21.296875 6.109375 26.703125 6.109375 
Q 34.1875 6.109375 38.703125 11.40625 
Q 43.21875 16.703125 43.21875 25.484375 
L 43.21875 27.484375 
z
M 52.203125 31.203125 
L 52.203125 0 
L 43.21875 0 
L 43.21875 8.296875 
Q 40.140625 3.328125 35.546875 0.953125 
Q 30.953125 -1.421875 24.3125 -1.421875 
Q 15.921875 -1.421875 10.953125 3.296875 
Q 6 8.015625 6 15.921875 
Q 6 25.140625 12.171875 29.828125 
Q 18.359375 34.515625 30.609375 34.515625 
L 43.21875 34.515625 
L 43.21875 35.40625 
Q 43.21875 41.609375 39.140625 45 
Q 35.0625 48.390625 27.6875 48.390625 
Q 23 48.390625 18.546875 47.265625 
Q 14.109375 46.140625 10.015625 43.890625 
L 10.015625 52.203125 
Q 14.9375 54.109375 19.578125 55.046875 
Q 24.21875 56 28.609375 56 
Q 40.484375 56 46.34375 49.84375 
Q 52.203125 43.703125 52.203125 31.203125 
z
" id="DejaVuSans-97"/>
     <path d="M 54.890625 54.6875 
L 35.109375 28.078125 
L 55.90625 0 
L 45.3125 0 
L 29.390625 21.484375 
L 13.484375 0 
L 2.875 0 
L 24.125 28.609375 
L 4.6875 54.6875 
L 15.28125 54.6875 
L 29.78125 35.203125 
L 44.28125 54.6875 
z
" id="DejaVuSans-120"/>
    </defs>
    <g transform="translate(233.185625 16.318125)scale(0.12 -0.12)">
     <use xlink:href="#DejaVuSans-71"/>
     <use x="77.490234" xlink:href="#DejaVuSans-105"/>
     <use x="105.273438" xlink:href="#DejaVuSans-110"/>
     <use x="168.652344" xlink:href="#DejaVuSans-105"/>
     <use x="196.435547" xlink:href="#DejaVuSans-95"/>
     <use x="246.435547" xlink:href="#DejaVuSans-98"/>
     <use x="309.912109" xlink:href="#DejaVuSans-84"/>
     <use x="354.496094" xlink:href="#DejaVuSans-97"/>
     <use x="415.775391" xlink:href="#DejaVuSans-120"/>
    </g>
   </g>
   <g id="legend_1">
    <g id="patch_5">
     <path d="M 491.882812 196.413438 
L 625.442188 196.413438 
Q 627.442188 196.413438 627.442188 194.413438 
L 627.442188 122.022813 
Q 627.442188 120.022813 625.442188 120.022813 
L 491.882812 120.022813 
Q 489.882812 120.022813 489.882812 122.022813 
L 489.882812 194.413438 
Q 489.882812 196.413438 491.882812 196.413438 
z
" style="fill:#ffffff;opacity:0.8;stroke:#cccccc;stroke-linejoin:miter;"/>
    </g>
    <g id="line2d_19">
     <path d="M 493.882812 128.12125 
L 513.882812 128.12125 
" style="fill:none;stroke:#000000;stroke-dasharray:3.7,1.6;stroke-dashoffset:0;"/>
    </g>
    <g id="line2d_20"/>
    <g id="text_16">
     <!-- Baseline -->
     <defs>
      <path d="M 19.671875 34.8125 
L 19.671875 8.109375 
L 35.5 8.109375 
Q 43.453125 8.109375 47.28125 11.40625 
Q 51.125 14.703125 51.125 21.484375 
Q 51.125 28.328125 47.28125 31.5625 
Q 43.453125 34.8125 35.5 34.8125 
z
M 19.671875 64.796875 
L 19.671875 42.828125 
L 34.28125 42.828125 
Q 41.5 42.828125 45.03125 45.53125 
Q 48.578125 48.25 48.578125 53.8125 
Q 48.578125 59.328125 45.03125 62.0625 
Q 41.5 64.796875 34.28125 64.796875 
z
M 9.8125 72.90625 
L 35.015625 72.90625 
Q 46.296875 72.90625 52.390625 68.21875 
Q 58.5 63.53125 58.5 54.890625 
Q 58.5 48.1875 55.375 44.234375 
Q 52.25 40.28125 46.1875 39.3125 
Q 53.46875 37.75 57.5 32.78125 
Q 61.53125 27.828125 61.53125 20.40625 
Q 61.53125 10.640625 54.890625 5.3125 
Q 48.25 0 35.984375 0 
L 9.8125 0 
z
" id="DejaVuSans-66"/>
      <path d="M 44.28125 53.078125 
L 44.28125 44.578125 
Q 40.484375 46.53125 36.375 47.5 
Q 32.28125 48.484375 27.875 48.484375 
Q 21.1875 48.484375 17.84375 46.4375 
Q 14.5 44.390625 14.5 40.28125 
Q 14.5 37.15625 16.890625 35.375 
Q 19.28125 33.59375 26.515625 31.984375 
L 29.59375 31.296875 
Q 39.15625 29.25 43.1875 25.515625 
Q 47.21875 21.78125 47.21875 15.09375 
Q 47.21875 7.46875 41.1875 3.015625 
Q 35.15625 -1.421875 24.609375 -1.421875 
Q 20.21875 -1.421875 15.453125 -0.5625 
Q 10.6875 0.296875 5.421875 2 
L 5.421875 11.28125 
Q 10.40625 8.6875 15.234375 7.390625 
Q 20.0625 6.109375 24.8125 6.109375 
Q 31.15625 6.109375 34.5625 8.28125 
Q 37.984375 10.453125 37.984375 14.40625 
Q 37.984375 18.0625 35.515625 20.015625 
Q 33.0625 21.96875 24.703125 23.78125 
L 21.578125 24.515625 
Q 13.234375 26.265625 9.515625 29.90625 
Q 5.8125 33.546875 5.8125 39.890625 
Q 5.8125 47.609375 11.28125 51.796875 
Q 16.75 56 26.8125 56 
Q 31.78125 56 36.171875 55.265625 
Q 40.578125 54.546875 44.28125 53.078125 
z
" id="DejaVuSans-115"/>
      <path d="M 9.421875 75.984375 
L 18.40625 75.984375 
L 18.40625 0 
L 9.421875 0 
z
" id="DejaVuSans-108"/>
     </defs>
     <g transform="translate(521.882812 131.62125)scale(0.1 -0.1)">
      <use xlink:href="#DejaVuSans-66"/>
      <use x="68.603516" xlink:href="#DejaVuSans-97"/>
      <use x="129.882812" xlink:href="#DejaVuSans-115"/>
      <use x="181.982422" xlink:href="#DejaVuSans-101"/>
      <use x="243.505859" xlink:href="#DejaVuSans-108"/>
      <use x="271.289062" xlink:href="#DejaVuSans-105"/>
      <use x="299.072266" xlink:href="#DejaVuSans-110"/>
      <use x="362.451172" xlink:href="#DejaVuSans-101"/>
     </g>
    </g>
    <g id="line2d_21">
     <path d="M 493.882812 142.799375 
L 513.882812 142.799375 
" style="fill:none;stroke:#1f77b4;stroke-linecap:square;stroke-width:1.5;"/>
    </g>
    <g id="line2d_22"/>
    <g id="text_17">
     <!-- $\Uparrow$ acesso crdito -->
     <defs>
      <path d="M 36.765625 58.59375 
L 36.765625 0 
L 30.90625 0 
L 30.90625 52.734375 
L 26.421875 48.140625 
L 20.5625 54 
L 39.703125 73.25 
L 44.09375 73.25 
L 63.328125 54 
L 57.46875 48.140625 
L 52.875 52.734375 
L 52.875 0 
L 47.015625 0 
L 47.015625 58.59375 
L 41.9375 63.671875 
z
" id="DejaVuSans-8657"/>
      <path id="DejaVuSans-32"/>
      <path d="M 48.78125 52.59375 
L 48.78125 44.1875 
Q 44.96875 46.296875 41.140625 47.34375 
Q 37.3125 48.390625 33.40625 48.390625 
Q 24.65625 48.390625 19.8125 42.84375 
Q 14.984375 37.3125 14.984375 27.296875 
Q 14.984375 17.28125 19.8125 11.734375 
Q 24.65625 6.203125 33.40625 6.203125 
Q 37.3125 6.203125 41.140625 7.25 
Q 44.96875 8.296875 48.78125 10.40625 
L 48.78125 2.09375 
Q 45.015625 0.34375 40.984375 -0.53125 
Q 36.96875 -1.421875 32.421875 -1.421875 
Q 20.0625 -1.421875 12.78125 6.34375 
Q 5.515625 14.109375 5.515625 27.296875 
Q 5.515625 40.671875 12.859375 48.328125 
Q 20.21875 56 33.015625 56 
Q 37.15625 56 41.109375 55.140625 
Q 45.0625 54.296875 48.78125 52.59375 
z
" id="DejaVuSans-99"/>
      <path d="M 41.109375 46.296875 
Q 39.59375 47.171875 37.8125 47.578125 
Q 36.03125 48 33.890625 48 
Q 26.265625 48 22.1875 43.046875 
Q 18.109375 38.09375 18.109375 28.8125 
L 18.109375 0 
L 9.078125 0 
L 9.078125 54.6875 
L 18.109375 54.6875 
L 18.109375 46.1875 
Q 20.953125 51.171875 25.484375 53.578125 
Q 30.03125 56 36.53125 56 
Q 37.453125 56 38.578125 55.875 
Q 39.703125 55.765625 41.0625 55.515625 
z
" id="DejaVuSans-114"/>
      <path d="M 56.203125 29.59375 
L 56.203125 25.203125 
L 14.890625 25.203125 
Q 15.484375 15.921875 20.484375 11.0625 
Q 25.484375 6.203125 34.421875 6.203125 
Q 39.59375 6.203125 44.453125 7.46875 
Q 49.3125 8.734375 54.109375 11.28125 
L 54.109375 2.78125 
Q 49.265625 0.734375 44.1875 -0.34375 
Q 39.109375 -1.421875 33.890625 -1.421875 
Q 20.796875 -1.421875 13.15625 6.1875 
Q 5.515625 13.8125 5.515625 26.8125 
Q 5.515625 40.234375 12.765625 48.109375 
Q 20.015625 56 32.328125 56 
Q 43.359375 56 49.78125 48.890625 
Q 56.203125 41.796875 56.203125 29.59375 
z
M 47.21875 32.234375 
Q 47.125 39.59375 43.09375 43.984375 
Q 39.0625 48.390625 32.421875 48.390625 
Q 24.90625 48.390625 20.390625 44.140625 
Q 15.875 39.890625 15.1875 32.171875 
z
M 38.53125 79.984375 
L 48.25 79.984375 
L 32.34375 61.625 
L 24.859375 61.625 
z
" id="DejaVuSans-233"/>
      <path d="M 45.40625 46.390625 
L 45.40625 75.984375 
L 54.390625 75.984375 
L 54.390625 0 
L 45.40625 0 
L 45.40625 8.203125 
Q 42.578125 3.328125 38.25 0.953125 
Q 33.9375 -1.421875 27.875 -1.421875 
Q 17.96875 -1.421875 11.734375 6.484375 
Q 5.515625 14.40625 5.515625 27.296875 
Q 5.515625 40.1875 11.734375 48.09375 
Q 17.96875 56 27.875 56 
Q 33.9375 56 38.25 53.625 
Q 42.578125 51.265625 45.40625 46.390625 
z
M 14.796875 27.296875 
Q 14.796875 17.390625 18.875 11.75 
Q 22.953125 6.109375 30.078125 6.109375 
Q 37.203125 6.109375 41.296875 11.75 
Q 45.40625 17.390625 45.40625 27.296875 
Q 45.40625 37.203125 41.296875 42.84375 
Q 37.203125 48.484375 30.078125 48.484375 
Q 22.953125 48.484375 18.875 42.84375 
Q 14.796875 37.203125 14.796875 27.296875 
z
" id="DejaVuSans-100"/>
      <path d="M 18.3125 70.21875 
L 18.3125 54.6875 
L 36.8125 54.6875 
L 36.8125 47.703125 
L 18.3125 47.703125 
L 18.3125 18.015625 
Q 18.3125 11.328125 20.140625 9.421875 
Q 21.96875 7.515625 27.59375 7.515625 
L 36.8125 7.515625 
L 36.8125 0 
L 27.59375 0 
Q 17.1875 0 13.234375 3.875 
Q 9.28125 7.765625 9.28125 18.015625 
L 9.28125 47.703125 
L 2.6875 47.703125 
L 2.6875 54.6875 
L 9.28125 54.6875 
L 9.28125 70.21875 
z
" id="DejaVuSans-116"/>
     </defs>
     <g transform="translate(521.882812 146.299375)scale(0.1 -0.1)">
      <use transform="translate(19.482422 0.015625)" xlink:href="#DejaVuSans-8657"/>
      <use transform="translate(122.753906 0.015625)" xlink:href="#DejaVuSans-32"/>
      <use transform="translate(154.541016 0.015625)" xlink:href="#DejaVuSans-97"/>
      <use transform="translate(215.820312 0.015625)" xlink:href="#DejaVuSans-99"/>
      <use transform="translate(270.800781 0.015625)" xlink:href="#DejaVuSans-101"/>
      <use transform="translate(332.324219 0.015625)" xlink:href="#DejaVuSans-115"/>
      <use transform="translate(384.423828 0.015625)" xlink:href="#DejaVuSans-115"/>
      <use transform="translate(436.523438 0.015625)" xlink:href="#DejaVuSans-111"/>
      <use transform="translate(497.705078 0.015625)" xlink:href="#DejaVuSans-32"/>
      <use transform="translate(529.492188 0.015625)" xlink:href="#DejaVuSans-99"/>
      <use transform="translate(584.472656 0.015625)" xlink:href="#DejaVuSans-114"/>
      <use transform="translate(625.585938 0.015625)" xlink:href="#DejaVuSans-233"/>
      <use transform="translate(687.109375 0.015625)" xlink:href="#DejaVuSans-100"/>
      <use transform="translate(750.585938 0.015625)" xlink:href="#DejaVuSans-105"/>
      <use transform="translate(778.369141 0.015625)" xlink:href="#DejaVuSans-116"/>
      <use transform="translate(817.578125 0.015625)" xlink:href="#DejaVuSans-111"/>
     </g>
    </g>
    <g id="line2d_23">
     <path d="M 493.882812 157.4775 
L 513.882812 157.4775 
" style="fill:none;stroke:#ff7f0e;stroke-linecap:square;stroke-width:1.5;"/>
    </g>
    <g id="line2d_24"/>
    <g id="text_18">
     <!-- Sem renda bsica -->
     <defs>
      <path d="M 53.515625 70.515625 
L 53.515625 60.890625 
Q 47.90625 63.578125 42.921875 64.890625 
Q 37.9375 66.21875 33.296875 66.21875 
Q 25.25 66.21875 20.875 63.09375 
Q 16.5 59.96875 16.5 54.203125 
Q 16.5 49.359375 19.40625 46.890625 
Q 22.3125 44.4375 30.421875 42.921875 
L 36.375 41.703125 
Q 47.40625 39.59375 52.65625 34.296875 
Q 57.90625 29 57.90625 20.125 
Q 57.90625 9.515625 50.796875 4.046875 
Q 43.703125 -1.421875 29.984375 -1.421875 
Q 24.8125 -1.421875 18.96875 -0.25 
Q 13.140625 0.921875 6.890625 3.21875 
L 6.890625 13.375 
Q 12.890625 10.015625 18.65625 8.296875 
Q 24.421875 6.59375 29.984375 6.59375 
Q 38.421875 6.59375 43.015625 9.90625 
Q 47.609375 13.234375 47.609375 19.390625 
Q 47.609375 24.75 44.3125 27.78125 
Q 41.015625 30.8125 33.5 32.328125 
L 27.484375 33.5 
Q 16.453125 35.6875 11.515625 40.375 
Q 6.59375 45.0625 6.59375 53.421875 
Q 6.59375 63.09375 13.40625 68.65625 
Q 20.21875 74.21875 32.171875 74.21875 
Q 37.3125 74.21875 42.625 73.28125 
Q 47.953125 72.359375 53.515625 70.515625 
z
" id="DejaVuSans-83"/>
      <path d="M 34.28125 27.484375 
Q 23.390625 27.484375 19.1875 25 
Q 14.984375 22.515625 14.984375 16.5 
Q 14.984375 11.71875 18.140625 8.90625 
Q 21.296875 6.109375 26.703125 6.109375 
Q 34.1875 6.109375 38.703125 11.40625 
Q 43.21875 16.703125 43.21875 25.484375 
L 43.21875 27.484375 
z
M 52.203125 31.203125 
L 52.203125 0 
L 43.21875 0 
L 43.21875 8.296875 
Q 40.140625 3.328125 35.546875 0.953125 
Q 30.953125 -1.421875 24.3125 -1.421875 
Q 15.921875 -1.421875 10.953125 3.296875 
Q 6 8.015625 6 15.921875 
Q 6 25.140625 12.171875 29.828125 
Q 18.359375 34.515625 30.609375 34.515625 
L 43.21875 34.515625 
L 43.21875 35.40625 
Q 43.21875 41.609375 39.140625 45 
Q 35.0625 48.390625 27.6875 48.390625 
Q 23 48.390625 18.546875 47.265625 
Q 14.109375 46.140625 10.015625 43.890625 
L 10.015625 52.203125 
Q 14.9375 54.109375 19.578125 55.046875 
Q 24.21875 56 28.609375 56 
Q 40.484375 56 46.34375 49.84375 
Q 52.203125 43.703125 52.203125 31.203125 
z
M 35.78125 79.984375 
L 45.5 79.984375 
L 29.59375 61.625 
L 22.109375 61.625 
z
" id="DejaVuSans-225"/>
     </defs>
     <g transform="translate(521.882812 160.9775)scale(0.1 -0.1)">
      <use xlink:href="#DejaVuSans-83"/>
      <use x="63.476562" xlink:href="#DejaVuSans-101"/>
      <use x="125" xlink:href="#DejaVuSans-109"/>
      <use x="222.412109" xlink:href="#DejaVuSans-32"/>
      <use x="254.199219" xlink:href="#DejaVuSans-114"/>
      <use x="293.0625" xlink:href="#DejaVuSans-101"/>
      <use x="354.585938" xlink:href="#DejaVuSans-110"/>
      <use x="417.964844" xlink:href="#DejaVuSans-100"/>
      <use x="481.441406" xlink:href="#DejaVuSans-97"/>
      <use x="542.720703" xlink:href="#DejaVuSans-32"/>
      <use x="574.507812" xlink:href="#DejaVuSans-98"/>
      <use x="637.984375" xlink:href="#DejaVuSans-225"/>
      <use x="699.263672" xlink:href="#DejaVuSans-115"/>
      <use x="751.363281" xlink:href="#DejaVuSans-105"/>
      <use x="779.146484" xlink:href="#DejaVuSans-99"/>
      <use x="834.126953" xlink:href="#DejaVuSans-97"/>
     </g>
    </g>
    <g id="line2d_25">
     <path d="M 493.882812 172.155625 
L 513.882812 172.155625 
" style="fill:none;stroke:#2ca02c;stroke-linecap:square;stroke-width:1.5;"/>
    </g>
    <g id="line2d_26"/>
    <g id="text_19">
     <!-- $\Uparrow$ salrio mnimo -->
     <defs>
      <path d="M 20.65625 79.984375 
L 30.375 79.984375 
L 14.46875 61.625 
L 6.984375 61.625 
z
M 9.421875 54.6875 
L 18.40625 54.6875 
L 18.40625 0 
L 9.421875 0 
z
M 13.921875 56 
z
" id="DejaVuSans-237"/>
     </defs>
     <g transform="translate(521.882812 175.655625)scale(0.1 -0.1)">
      <use transform="translate(19.482422 0.015625)" xlink:href="#DejaVuSans-8657"/>
      <use transform="translate(122.753906 0.015625)" xlink:href="#DejaVuSans-32"/>
      <use transform="translate(154.541016 0.015625)" xlink:href="#DejaVuSans-115"/>
      <use transform="translate(206.640625 0.015625)" xlink:href="#DejaVuSans-97"/>
      <use transform="translate(267.919922 0.015625)" xlink:href="#DejaVuSans-108"/>
      <use transform="translate(295.703125 0.015625)" xlink:href="#DejaVuSans-225"/>
      <use transform="translate(356.982422 0.015625)" xlink:href="#DejaVuSans-114"/>
      <use transform="translate(398.095703 0.015625)" xlink:href="#DejaVuSans-105"/>
      <use transform="translate(425.878906 0.015625)" xlink:href="#DejaVuSans-111"/>
      <use transform="translate(487.060547 0.015625)" xlink:href="#DejaVuSans-32"/>
      <use transform="translate(518.847656 0.015625)" xlink:href="#DejaVuSans-109"/>
      <use transform="translate(616.259766 0.015625)" xlink:href="#DejaVuSans-237"/>
      <use transform="translate(644.042969 0.015625)" xlink:href="#DejaVuSans-110"/>
      <use transform="translate(707.421875 0.015625)" xlink:href="#DejaVuSans-105"/>
      <use transform="translate(735.205078 0.015625)" xlink:href="#DejaVuSans-109"/>
      <use transform="translate(832.617188 0.015625)" xlink:href="#DejaVuSans-111"/>
     </g>
    </g>
    <g id="line2d_27">
     <path d="M 493.882812 186.83375 
L 513.882812 186.83375 
" style="fill:none;stroke:#d62728;stroke-linecap:square;stroke-width:1.5;"/>
    </g>
    <g id="line2d_28"/>
    <g id="text_20">
     <!-- Imposto progressivo -->
     <defs>
      <path d="M 9.8125 72.90625 
L 19.671875 72.90625 
L 19.671875 0 
L 9.8125 0 
z
" id="DejaVuSans-73"/>
      <path d="M 45.40625 27.984375 
Q 45.40625 37.75 41.375 43.109375 
Q 37.359375 48.484375 30.078125 48.484375 
Q 22.859375 48.484375 18.828125 43.109375 
Q 14.796875 37.75 14.796875 27.984375 
Q 14.796875 18.265625 18.828125 12.890625 
Q 22.859375 7.515625 30.078125 7.515625 
Q 37.359375 7.515625 41.375 12.890625 
Q 45.40625 18.265625 45.40625 27.984375 
z
M 54.390625 6.78125 
Q 54.390625 -7.171875 48.1875 -13.984375 
Q 42 -20.796875 29.203125 -20.796875 
Q 24.46875 -20.796875 20.265625 -20.09375 
Q 16.0625 -19.390625 12.109375 -17.921875 
L 12.109375 -9.1875 
Q 16.0625 -11.328125 19.921875 -12.34375 
Q 23.78125 -13.375 27.78125 -13.375 
Q 36.625 -13.375 41.015625 -8.765625 
Q 45.40625 -4.15625 45.40625 5.171875 
L 45.40625 9.625 
Q 42.625 4.78125 38.28125 2.390625 
Q 33.9375 0 27.875 0 
Q 17.828125 0 11.671875 7.65625 
Q 5.515625 15.328125 5.515625 27.984375 
Q 5.515625 40.671875 11.671875 48.328125 
Q 17.828125 56 27.875 56 
Q 33.9375 56 38.28125 53.609375 
Q 42.625 51.21875 45.40625 46.390625 
L 45.40625 54.6875 
L 54.390625 54.6875 
z
" id="DejaVuSans-103"/>
      <path d="M 2.984375 54.6875 
L 12.5 54.6875 
L 29.59375 8.796875 
L 46.6875 54.6875 
L 56.203125 54.6875 
L 35.6875 0 
L 23.484375 0 
z
" id="DejaVuSans-118"/>
     </defs>
     <g transform="translate(521.882812 190.33375)scale(0.1 -0.1)">
      <use xlink:href="#DejaVuSans-73"/>
      <use x="29.492188" xlink:href="#DejaVuSans-109"/>
      <use x="126.904297" xlink:href="#DejaVuSans-112"/>
      <use x="190.380859" xlink:href="#DejaVuSans-111"/>
      <use x="251.5625" xlink:href="#DejaVuSans-115"/>
      <use x="303.662109" xlink:href="#DejaVuSans-116"/>
      <use x="342.871094" xlink:href="#DejaVuSans-111"/>
      <use x="404.052734" xlink:href="#DejaVuSans-32"/>
      <use x="435.839844" xlink:href="#DejaVuSans-112"/>
      <use x="499.316406" xlink:href="#DejaVuSans-114"/>
      <use x="538.179688" xlink:href="#DejaVuSans-111"/>
      <use x="599.361328" xlink:href="#DejaVuSans-103"/>
      <use x="662.837891" xlink:href="#DejaVuSans-114"/>
      <use x="701.701172" xlink:href="#DejaVuSans-101"/>
      <use x="763.224609" xlink:href="#DejaVuSans-115"/>
      <use x="815.324219" xlink:href="#DejaVuSans-115"/>
      <use x="867.423828" xlink:href="#DejaVuSans-105"/>
      <use x="895.207031" xlink:href="#DejaVuSans-118"/>
      <use x="954.386719" xlink:href="#DejaVuSans-111"/>
     </g>
    </g>
   </g>
  </g>
 </g>
 <defs>
  <clipPath id="p3f5e48568f">
   <rect height="271.8" width="446.4" x="38.482813" y="22.318125"/>
  </clipPath>
 </defs>
</svg>
