<?xml version="1.0" encoding="utf-8" standalone="no"?>
<!DOCTYPE svg PUBLIC "-//W3C//DTD SVG 1.1//EN"
  "http://www.w3.org/Graphics/SVG/1.1/DTD/svg11.dtd">
<!-- Created with matplotlib (https://matplotlib.org/) -->
<svg height="331.674375pt" version="1.1" viewBox="0 0 625.101562 331.674375" width="625.101562pt" xmlns="http://www.w3.org/2000/svg" xmlns:xlink="http://www.w3.org/1999/xlink">
 <defs>
  <style type="text/css">
*{stroke-linecap:butt;stroke-linejoin:round;}
  </style>
 </defs>
 <g id="figure_1">
  <g id="patch_1">
   <path d="M 0 331.674375 
L 625.101562 331.674375 
L 625.101562 0 
L 0 0 
z
" style="fill:#ffffff;"/>
  </g>
  <g id="axes_1">
   <g id="patch_2">
    <path d="M 28.942188 294.118125 
L 475.342187 294.118125 
L 475.342187 22.318125 
L 28.942188 22.318125 
z
" style="fill:#ffffff;"/>
   </g>
   <g id="line2d_1">
    <path clip-path="url(#p86b8473cdd)" d="M 49.233097 228.499562 
L 49.959068 260.370649 
L 50.68504 264.320335 
L 52.136983 196.87031 
L 52.862955 184.803483 
L 53.588927 205.339585 
L 54.314899 240.744987 
L 55.04087 180.01744 
L 55.766842 251.188116 
L 56.492814 258.078457 
L 57.218785 220.811912 
L 57.944757 197.435305 
L 58.670729 203.762359 
L 59.3967 259.112254 
L 60.122672 229.468136 
L 60.848644 240.351951 
L 61.574616 254.565066 
L 62.300587 190.441624 
L 63.026559 245.180322 
L 63.752531 244.826299 
L 64.478502 169.564992 
L 65.204474 240.480489 
L 65.930446 256.548981 
L 66.656417 198.41954 
L 67.382389 233.835066 
L 68.108361 248.885633 
L 68.834333 256.854752 
L 69.560304 238.897742 
L 70.286276 256.435183 
L 71.012248 261.243536 
L 71.738219 201.978619 
L 73.190163 238.127337 
L 73.916134 252.896465 
L 74.642106 249.247424 
L 75.368078 225.535737 
L 76.09405 215.768381 
L 76.820021 242.235939 
L 77.545993 221.017 
L 78.271965 233.835878 
L 78.997936 259.928429 
L 79.723908 223.702358 
L 80.44988 178.432209 
L 81.175852 148.379152 
L 81.901823 234.528857 
L 82.627795 251.298757 
L 83.353767 244.132591 
L 84.079738 238.207956 
L 84.80571 238.139331 
L 85.531682 248.545595 
L 86.257653 243.692131 
L 86.983625 240.563011 
L 87.709597 238.386956 
L 88.435569 220.18821 
L 89.16154 193.858045 
L 89.887512 245.832151 
L 90.613484 265.970129 
L 91.339455 257.123164 
L 92.065427 237.990315 
L 92.791399 177.889169 
L 93.51737 247.961246 
L 94.243342 219.548782 
L 94.969314 184.16838 
L 95.695286 243.328792 
L 96.421257 249.678075 
L 97.147229 231.8249 
L 97.873201 231.294795 
L 98.599172 216.663263 
L 99.325144 196.260011 
L 100.051116 259.668243 
L 100.777087 251.06111 
L 101.503059 180.341005 
L 102.229031 189.960413 
L 102.955003 206.588138 
L 103.680974 192.402333 
L 104.406946 229.823293 
L 105.132918 243.965079 
L 105.858889 222.206564 
L 106.584861 143.561036 
L 107.310833 243.195726 
L 108.036805 258.553371 
L 108.762776 225.745105 
L 109.488748 146.292418 
L 110.21472 254.090864 
L 110.940691 270.149411 
L 111.666663 262.214223 
L 112.392635 243.623337 
L 113.118606 233.33473 
L 113.844578 243.748096 
L 114.57055 227.665791 
L 115.296522 244.439304 
L 116.022493 249.600204 
L 116.748465 230.083227 
L 117.474437 243.057222 
L 118.200408 245.146229 
L 119.652352 186.329692 
L 120.378323 249.531211 
L 121.104295 229.40085 
L 121.830267 191.729704 
L 122.556239 250.294881 
L 123.28221 238.023521 
L 124.008182 238.406586 
L 124.734154 246.605518 
L 125.460125 242.293614 
L 126.186097 243.838689 
L 126.912069 229.909384 
L 127.63804 208.748192 
L 128.364012 231.780973 
L 129.089984 238.700752 
L 129.815956 262.531681 
L 130.541927 268.566703 
L 131.993871 143.65772 
L 132.719842 150.565484 
L 133.445814 96.842618 
L 134.171786 140.185515 
L 134.897758 224.796001 
L 135.623729 259.910678 
L 136.349701 253.68294 
L 137.801644 180.837442 
L 138.527616 194.062431 
L 139.253588 226.333108 
L 139.979559 225.634184 
L 140.705531 229.675013 
L 141.431503 268.626259 
L 142.157475 268.058324 
L 142.883446 223.832221 
L 143.609418 222.008189 
L 144.33539 224.570365 
L 145.061361 237.0757 
L 145.787333 218.904443 
L 147.239276 239.684599 
L 147.965248 212.227564 
L 148.69122 156.96448 
L 149.417192 217.912078 
L 150.143163 210.09662 
L 150.869135 114.562222 
L 151.595107 177.232144 
L 152.321078 164.531174 
L 153.773022 255.805212 
L 154.498993 257.890901 
L 155.224965 239.030109 
L 155.950937 226.016775 
L 156.676909 169.217359 
L 157.40288 34.67267 
L 158.128852 67.885156 
L 158.854824 130.781292 
L 159.580795 178.91055 
L 160.306767 250.883284 
L 161.032739 249.070667 
L 161.758711 241.903069 
L 163.210654 168.355271 
L 163.936626 171.280927 
L 164.662597 199.648979 
L 165.388569 208.653982 
L 166.114541 192.126134 
L 166.840512 231.06766 
L 167.566484 162.556655 
L 168.292456 130.618738 
L 169.018428 175.843176 
L 169.744399 160.171923 
L 170.470371 215.798876 
L 171.196343 261.956239 
L 171.922314 253.209356 
L 172.648286 218.240289 
L 173.374258 229.380297 
L 174.100229 244.978396 
L 174.826201 232.701597 
L 175.552173 167.494509 
L 176.278145 185.193341 
L 177.004116 219.578403 
L 177.730088 229.472404 
L 178.45606 203.285547 
L 179.182031 210.446826 
L 179.908003 258.22169 
L 180.633975 239.990445 
L 181.359946 254.161695 
L 182.085918 256.762515 
L 182.81189 212.251756 
L 184.263833 263.480229 
L 184.989805 255.921552 
L 185.715777 236.214981 
L 186.441748 190.426982 
L 187.16772 210.096706 
L 187.893692 267.637345 
L 188.619664 269.701004 
L 189.345635 251.13642 
L 190.071607 196.296009 
L 190.797579 253.611951 
L 191.52355 260.151665 
L 192.249522 258.10797 
L 192.975494 252.349387 
L 193.701465 215.698682 
L 194.427437 255.922376 
L 195.153409 267.922092 
L 195.879381 233.78703 
L 196.605352 259.987266 
L 197.331324 260.637262 
L 198.057296 234.184013 
L 199.509239 170.302165 
L 200.235211 245.464192 
L 200.961182 231.224628 
L 201.687154 220.053741 
L 202.413126 243.34626 
L 203.139098 259.587572 
L 203.865069 262.646389 
L 205.317013 163.107162 
L 206.042984 206.051856 
L 206.768956 228.511763 
L 207.494928 208.03191 
L 208.220899 197.795728 
L 208.946871 230.090605 
L 209.672843 195.90549 
L 210.398815 218.389435 
L 211.124786 214.39635 
L 211.850758 214.436466 
L 212.57673 237.558722 
L 213.302701 242.011294 
L 214.028673 223.071993 
L 214.754645 211.892471 
L 215.480617 230.259318 
L 216.206588 240.378425 
L 216.93256 232.155672 
L 217.658532 229.059643 
L 218.384503 236.846915 
L 219.110475 233.240784 
L 219.836447 212.094399 
L 220.562418 200.988584 
L 221.28839 264.625746 
L 222.014362 232.436878 
L 222.740334 189.578951 
L 223.466305 218.279417 
L 224.192277 241.574724 
L 224.918249 222.637666 
L 225.64422 251.120619 
L 226.370192 234.823234 
L 227.096164 195.854987 
L 227.822135 240.102357 
L 228.548107 252.610548 
L 230.000051 239.620365 
L 230.726022 250.455335 
L 231.451994 227.954562 
L 232.177966 231.513122 
L 232.903937 206.224272 
L 233.629909 238.852493 
L 234.355881 229.876585 
L 235.081852 249.475687 
L 235.807824 232.696929 
L 236.533796 174.817988 
L 237.259768 243.077522 
L 237.985739 230.247205 
L 238.711711 231.297021 
L 239.437683 263.634101 
L 240.163654 249.589484 
L 240.889626 251.361462 
L 241.615598 258.684284 
L 242.34157 227.593864 
L 243.067541 212.67243 
L 243.793513 214.250571 
L 244.519485 206.360195 
L 245.245456 259.798241 
L 245.971428 261.849686 
L 246.6974 237.273931 
L 247.423371 206.364005 
L 248.149343 256.482542 
L 248.875315 248.595974 
L 249.601287 246.137516 
L 250.327258 256.186136 
L 251.05323 250.147214 
L 251.779202 256.030393 
L 252.505173 248.666257 
L 253.231145 191.078445 
L 253.957117 239.703313 
L 254.683088 239.051783 
L 255.40906 235.829846 
L 256.135032 212.435071 
L 256.861004 257.908662 
L 257.586975 248.910776 
L 258.312947 237.477304 
L 259.038919 261.790071 
L 259.76489 209.688505 
L 261.216834 239.43079 
L 261.942805 212.216175 
L 262.668777 219.106474 
L 263.394749 239.09749 
L 264.120721 251.559088 
L 264.846692 246.774763 
L 265.572664 210.335217 
L 266.298636 242.798742 
L 267.024607 238.89781 
L 267.750579 237.003893 
L 269.202523 240.598468 
L 269.928494 153.748726 
L 270.654466 191.120995 
L 271.380438 246.223424 
L 272.106409 213.43506 
L 272.832381 250.914024 
L 273.558353 240.224326 
L 274.284324 209.856648 
L 275.010296 256.384646 
L 275.736268 229.292047 
L 276.46224 239.316574 
L 277.188211 253.57495 
L 277.914183 246.866189 
L 278.640155 212.718729 
L 279.366126 213.476257 
L 280.092098 172.470247 
L 280.81807 196.025273 
L 281.544041 169.20588 
L 282.270013 187.822869 
L 282.995985 217.23259 
L 283.721957 240.01463 
L 284.447928 225.046572 
L 285.1739 234.042032 
L 285.899872 186.597622 
L 286.625843 208.093227 
L 287.351815 182.854315 
L 288.077787 178.872067 
L 288.803758 146.778031 
L 289.52973 173.648626 
L 290.255702 158.57837 
L 290.981674 257.095961 
L 292.433617 184.950269 
L 293.159589 175.866468 
L 293.88556 169.825782 
L 294.611532 123.220008 
L 296.063476 246.51736 
L 296.789447 233.785669 
L 297.515419 245.60746 
L 298.241391 246.544217 
L 298.967362 242.12494 
L 299.693334 228.860488 
L 300.419306 238.970182 
L 301.871249 225.411065 
L 302.597221 190.10204 
L 303.323193 201.709771 
L 304.049164 177.075324 
L 304.775136 144.1073 
L 305.501108 214.76588 
L 306.227079 229.514326 
L 306.953051 232.212819 
L 307.679023 242.983064 
L 308.404994 225.885037 
L 309.130966 212.545095 
L 309.856938 194.122589 
L 310.58291 212.684533 
L 311.308881 179.24501 
L 312.034853 257.450246 
L 312.760825 261.115477 
L 313.486796 237.914015 
L 314.212768 224.634746 
L 314.93874 217.707947 
L 316.390683 261.271014 
L 317.116655 248.58599 
L 317.842627 191.497367 
L 318.568598 239.615832 
L 319.29457 211.584359 
L 320.020542 255.280256 
L 321.472485 217.362197 
L 322.198457 250.872721 
L 322.924429 233.951229 
L 323.6504 214.369335 
L 324.376372 254.151542 
L 325.102344 254.461111 
L 325.828315 226.220013 
L 326.554287 237.133418 
L 327.280259 244.560414 
L 328.00623 245.626535 
L 328.732202 246.466218 
L 329.458174 235.990563 
L 330.184146 217.98193 
L 330.910117 239.673148 
L 331.636089 257.539355 
L 332.362061 241.496156 
L 333.088032 247.501095 
L 333.814004 243.755323 
L 334.539976 195.280946 
L 335.265947 240.726677 
L 335.991919 261.073061 
L 336.717891 200.648541 
L 337.443863 261.223014 
L 338.169834 253.300865 
L 338.895806 262.29512 
L 339.621778 249.211742 
L 340.347749 251.503204 
L 341.073721 251.91827 
L 341.799693 248.166352 
L 342.525664 254.204085 
L 343.251636 247.760526 
L 343.977608 219.444026 
L 344.70358 230.787485 
L 345.429551 263.593032 
L 346.155523 239.23719 
L 346.881495 239.715935 
L 347.607466 239.338997 
L 348.333438 247.358891 
L 349.05941 247.178891 
L 349.785382 238.138149 
L 350.511353 193.366617 
L 351.963297 262.402735 
L 352.689268 256.001788 
L 353.41524 195.842696 
L 354.141212 241.166096 
L 354.867183 253.897789 
L 355.593155 249.479285 
L 356.319127 233.788126 
L 357.045099 246.567503 
L 357.77107 251.228234 
L 358.497042 238.56903 
L 359.223014 265.572383 
L 359.948985 254.266661 
L 360.674957 265.548937 
L 361.400929 258.510687 
L 362.1269 239.119878 
L 362.852872 250.899691 
L 363.578844 239.887586 
L 364.304816 249.016555 
L 365.030787 246.991259 
L 365.756759 263.787281 
L 366.482731 252.525347 
L 367.208702 206.484549 
L 367.934674 241.46228 
L 368.660646 260.632675 
L 370.112589 242.068182 
L 370.838561 225.217587 
L 371.564533 231.025326 
L 372.290504 251.809901 
L 373.016476 235.708573 
L 373.742448 224.500433 
L 374.468419 237.305006 
L 375.194391 226.851687 
L 375.920363 249.780581 
L 376.646335 264.607367 
L 377.372306 231.491912 
L 378.098278 238.727922 
L 378.82425 233.774907 
L 379.550221 239.040249 
L 380.276193 250.055798 
L 381.002165 258.017594 
L 381.728136 229.589412 
L 382.454108 216.060252 
L 383.18008 230.085081 
L 383.906052 199.617496 
L 384.632023 228.107143 
L 385.357995 243.393792 
L 386.083967 243.600271 
L 386.809938 243.53607 
L 387.53591 214.598433 
L 388.261882 204.983312 
L 388.987853 220.88737 
L 389.713825 218.639177 
L 390.439797 223.381194 
L 391.165769 200.372012 
L 391.89174 213.917403 
L 392.617712 233.66983 
L 393.343684 205.059899 
L 394.069655 224.445796 
L 394.795627 218.711083 
L 395.521599 218.806829 
L 396.24757 204.351486 
L 396.973542 227.522411 
L 397.699514 235.036289 
L 398.425486 236.344809 
L 399.151457 243.866994 
L 399.877429 220.416641 
L 400.603401 250.523859 
L 401.329372 211.59656 
L 402.055344 198.272933 
L 402.781316 251.987392 
L 403.507288 216.98702 
L 404.233259 206.275053 
L 404.959231 213.458606 
L 405.685203 212.135668 
L 406.411174 187.14825 
L 407.137146 251.421999 
L 407.863118 230.068557 
L 408.589089 218.470021 
L 409.315061 246.3954 
L 410.041033 219.170901 
L 410.767005 215.548315 
L 411.492976 200.06872 
L 412.218948 250.098281 
L 412.94492 250.463961 
L 413.670891 246.230436 
L 414.396863 247.13715 
L 415.122835 246.170025 
L 415.848806 242.119901 
L 416.574778 243.620868 
L 417.30075 246.19376 
L 418.026722 244.876828 
L 418.752693 246.761116 
L 420.204637 244.636818 
L 420.930608 244.389893 
L 421.65658 238.922103 
L 422.382552 241.974145 
L 423.108523 240.062431 
L 423.834495 250.19984 
L 424.560467 252.524351 
L 425.286439 250.149066 
L 426.01241 221.579184 
L 426.738382 244.281132 
L 427.464354 234.491097 
L 428.190325 246.59175 
L 428.916297 234.889847 
L 429.642269 249.03173 
L 430.368241 260.760828 
L 431.094212 248.976218 
L 431.820184 249.519221 
L 432.546156 231.388291 
L 433.272127 246.045809 
L 433.998099 223.504273 
L 434.724071 247.123883 
L 435.450042 222.111773 
L 436.176014 248.216078 
L 436.901986 227.736455 
L 437.627958 233.857678 
L 438.353929 249.549894 
L 439.079901 250.76849 
L 439.805873 249.785015 
L 440.531844 248.538544 
L 441.257816 248.637419 
L 441.983788 250.330761 
L 442.709759 228.59698 
L 443.435731 250.701032 
L 444.161703 239.049623 
L 444.887675 250.190553 
L 445.613646 231.412457 
L 446.339618 247.451099 
L 447.06559 251.468853 
L 447.791561 229.497624 
L 448.517533 240.532517 
L 449.243505 259.464161 
L 449.969476 249.64432 
L 450.695448 247.329133 
L 451.42142 239.19147 
L 452.873363 257.424498 
L 453.599335 252.120573 
L 454.325307 249.643493 
L 455.051278 252.326813 
L 455.051278 252.326813 
" style="fill:none;stroke:#1f77b4;stroke-linecap:square;stroke-width:1.5;"/>
   </g>
   <g id="line2d_2">
    <path clip-path="url(#p86b8473cdd)" d="M 49.233097 263.254469 
L 49.959068 278.721656 
L 50.68504 279.299351 
L 51.411012 252.091571 
L 52.136983 261.592057 
L 52.862955 261.567476 
L 53.588927 266.259617 
L 54.314899 245.383087 
L 55.04087 231.353158 
L 55.766842 277.640303 
L 56.492814 273.133394 
L 57.218785 266.820023 
L 57.944757 270.083985 
L 58.670729 267.907706 
L 59.3967 260.009185 
L 60.122672 234.475006 
L 60.848644 264.351639 
L 61.574616 280.93204 
L 62.300587 273.845543 
L 63.026559 278.020537 
L 63.752531 266.518104 
L 64.478502 249.485572 
L 65.204474 260.607528 
L 65.930446 254.496894 
L 66.656417 265.539437 
L 67.382389 260.958952 
L 68.108361 272.93472 
L 68.834333 277.205439 
L 69.560304 270.492017 
L 70.286276 275.355378 
L 71.012248 276.936379 
L 71.738219 267.310766 
L 72.464191 270.335714 
L 73.190163 274.842084 
L 74.642106 279.711687 
L 75.368078 275.374433 
L 76.09405 269.212005 
L 77.545993 271.659398 
L 78.271965 273.797532 
L 78.997936 281.016985 
L 79.723908 270.086616 
L 80.44988 255.611341 
L 81.901823 275.16345 
L 82.627795 256.742188 
L 83.353767 266.785563 
L 84.079738 263.169151 
L 84.80571 256.793342 
L 85.531682 264.079778 
L 86.257653 259.761877 
L 86.983625 263.483666 
L 87.709597 247.790069 
L 88.435569 244.654651 
L 89.16154 249.462943 
L 89.887512 278.204416 
L 90.613484 265.147159 
L 91.339455 262.234533 
L 92.065427 265.194698 
L 92.791399 260.852235 
L 93.51737 274.625949 
L 94.243342 268.811344 
L 94.969314 258.87212 
L 95.695286 273.637243 
L 96.421257 277.668686 
L 97.147229 263.842691 
L 98.599172 184.304539 
L 99.325144 244.920055 
L 100.051116 272.005564 
L 100.777087 280.266865 
L 101.503059 276.933171 
L 102.229031 270.61788 
L 102.955003 261.616983 
L 103.680974 255.271684 
L 104.406946 258.37495 
L 105.132918 271.487894 
L 105.858889 261.517629 
L 106.584861 260.866283 
L 107.310833 277.360094 
L 108.036805 253.992816 
L 108.762776 167.956248 
L 109.488748 212.275779 
L 110.21472 275.659764 
L 110.940691 281.76358 
L 111.666663 277.626197 
L 112.392635 270.056179 
L 113.118606 264.86451 
L 113.844578 260.662357 
L 116.022493 277.88034 
L 116.748465 271.661754 
L 117.474437 270.745825 
L 118.200408 258.822077 
L 118.92638 229.211787 
L 119.652352 263.997559 
L 120.378323 275.464353 
L 121.104295 204.803201 
L 121.830267 220.349382 
L 122.556239 273.136804 
L 123.28221 267.73189 
L 124.008182 276.819898 
L 124.734154 275.437879 
L 125.460125 266.194858 
L 126.186097 259.999779 
L 126.912069 225.365458 
L 127.63804 250.23363 
L 128.364012 261.372212 
L 129.089984 257.477658 
L 129.815956 277.335964 
L 130.541927 279.309583 
L 131.267899 271.524351 
L 131.993871 268.914143 
L 132.719842 206.989215 
L 133.445814 178.561233 
L 134.171786 193.74478 
L 134.897758 222.236164 
L 135.623729 271.418697 
L 136.349701 269.213474 
L 137.075673 260.095444 
L 137.801644 235.342742 
L 138.527616 218.125936 
L 139.253588 254.08366 
L 139.979559 261.115866 
L 140.705531 253.971085 
L 141.431503 273.153276 
L 142.157475 272.858359 
L 142.883446 260.094452 
L 143.609418 262.700896 
L 144.33539 255.256956 
L 145.061361 215.634157 
L 145.787333 221.483215 
L 147.239276 241.987024 
L 147.965248 256.945267 
L 148.69122 253.488406 
L 149.417192 215.034081 
L 150.143163 154.712034 
L 150.869135 235.324694 
L 151.595107 262.691021 
L 152.321078 259.384983 
L 153.04705 249.958135 
L 153.773022 269.055583 
L 154.498993 273.238151 
L 155.224965 248.36156 
L 155.950937 187.35868 
L 156.676909 246.595085 
L 157.40288 252.171024 
L 158.128852 244.681876 
L 158.854824 255.943337 
L 159.580795 246.523717 
L 160.306767 252.803768 
L 161.032739 231.314415 
L 161.758711 248.54225 
L 162.484682 242.129936 
L 163.210654 215.474808 
L 163.936626 254.35418 
L 164.662597 257.067114 
L 165.388569 251.737834 
L 166.114541 237.246245 
L 166.840512 231.453024 
L 167.566484 248.411198 
L 168.292456 250.089856 
L 169.018428 247.213116 
L 169.744399 247.26675 
L 170.470371 259.002125 
L 171.196343 276.747459 
L 171.922314 260.60746 
L 172.648286 209.113695 
L 173.374258 253.397152 
L 174.100229 266.080358 
L 174.826201 266.701243 
L 175.552173 198.54028 
L 176.278145 243.090067 
L 177.004116 258.601685 
L 177.730088 249.208704 
L 178.45606 248.330058 
L 179.908003 275.239903 
L 180.633975 272.049202 
L 181.359946 276.737809 
L 182.085918 263.482174 
L 182.81189 223.656798 
L 184.263833 270.269604 
L 184.989805 263.999962 
L 185.715777 254.049713 
L 186.441748 258.997509 
L 187.16772 245.22164 
L 187.893692 273.218238 
L 188.619664 279.54359 
L 189.345635 270.776647 
L 190.071607 255.659816 
L 190.797579 276.738574 
L 191.52355 278.669943 
L 192.249522 279.667696 
L 192.975494 276.172003 
L 193.701465 273.855037 
L 194.427437 276.048061 
L 195.153409 260.710989 
L 195.879381 263.368694 
L 196.605352 260.77914 
L 197.331324 255.680458 
L 198.057296 269.636339 
L 198.783267 256.805527 
L 199.509239 258.265493 
L 200.235211 271.188878 
L 200.961182 262.655036 
L 201.687154 191.57836 
L 202.413126 249.542371 
L 203.139098 272.289115 
L 203.865069 258.226469 
L 204.591041 190.723359 
L 205.317013 232.142327 
L 206.042984 260.216091 
L 206.768956 231.334175 
L 208.220899 267.197335 
L 208.946871 273.629623 
L 210.398815 251.090556 
L 211.124786 267.200332 
L 211.850758 266.00513 
L 212.57673 266.746023 
L 213.302701 272.323927 
L 214.028673 229.650394 
L 214.754645 239.764354 
L 215.480617 270.848328 
L 216.206588 270.730747 
L 216.93256 265.185696 
L 217.658532 272.787236 
L 218.384503 273.961284 
L 219.110475 265.727743 
L 219.836447 261.511992 
L 220.562418 262.489139 
L 221.28839 273.501347 
L 222.014362 270.323237 
L 222.740334 270.872301 
L 223.466305 261.382286 
L 224.192277 239.186911 
L 224.918249 177.814658 
L 225.64422 249.649078 
L 226.370192 219.291778 
L 227.822135 265.383427 
L 228.548107 266.036853 
L 229.274079 268.809649 
L 230.000051 259.278061 
L 230.726022 264.391604 
L 231.451994 263.516424 
L 232.177966 269.123317 
L 232.903937 264.08332 
L 233.629909 239.77951 
L 234.355881 207.564702 
L 235.081852 259.719951 
L 235.807824 268.633155 
L 236.533796 252.817882 
L 237.259768 259.345926 
L 237.985739 248.982567 
L 238.711711 256.666557 
L 239.437683 273.812674 
L 240.163654 270.967349 
L 240.889626 261.943108 
L 241.615598 254.681578 
L 242.34157 256.238644 
L 243.067541 259.881284 
L 243.793513 259.009217 
L 244.519485 255.560481 
L 245.245456 264.431008 
L 245.971428 274.667535 
L 246.6974 267.929211 
L 247.423371 269.592054 
L 248.149343 277.020381 
L 248.875315 265.795952 
L 249.601287 260.418032 
L 250.327258 272.426465 
L 251.05323 270.716245 
L 251.779202 269.295365 
L 252.505173 257.910377 
L 253.231145 244.597478 
L 253.957117 256.645992 
L 254.683088 255.384062 
L 255.40906 267.886564 
L 256.135032 261.60001 
L 256.861004 260.1011 
L 257.586975 261.520604 
L 258.312947 264.493711 
L 259.038919 269.785404 
L 259.76489 226.653825 
L 260.490862 214.827949 
L 261.216834 252.80575 
L 261.942805 263.033446 
L 262.668777 267.437784 
L 263.394749 274.02014 
L 264.120721 249.403701 
L 264.846692 257.790877 
L 265.572664 256.38439 
L 266.298636 264.256046 
L 267.024607 265.552585 
L 267.750579 261.076621 
L 268.476551 264.487961 
L 269.202523 269.168828 
L 269.928494 260.655736 
L 270.654466 261.778927 
L 271.380438 275.478884 
L 272.106409 267.152457 
L 272.832381 271.082431 
L 273.558353 270.517577 
L 274.284324 263.762782 
L 275.010296 247.94012 
L 275.736268 221.744558 
L 276.46224 252.579158 
L 277.188211 266.856722 
L 277.914183 256.896256 
L 278.640155 239.862431 
L 279.366126 256.264478 
L 280.092098 257.369488 
L 280.81807 253.162319 
L 281.544041 247.105095 
L 282.270013 259.332048 
L 282.995985 220.583124 
L 283.721957 253.139594 
L 285.1739 264.001395 
L 285.899872 251.563403 
L 286.625843 245.414852 
L 287.351815 243.759154 
L 288.077787 245.478013 
L 288.803758 236.927754 
L 289.52973 250.307521 
L 290.255702 259.707423 
L 290.981674 277.95524 
L 291.707645 275.644003 
L 292.433617 261.247448 
L 293.159589 264.805536 
L 293.88556 205.343345 
L 294.611532 230.952044 
L 295.337504 238.582382 
L 296.063476 249.552718 
L 296.789447 248.517078 
L 297.515419 258.165475 
L 298.241391 269.926325 
L 298.967362 257.789438 
L 299.693334 258.017687 
L 300.419306 260.095637 
L 301.145277 254.804464 
L 301.871249 257.679282 
L 302.597221 263.524756 
L 303.323193 259.62697 
L 304.049164 256.806953 
L 304.775136 212.78875 
L 305.501108 253.863489 
L 306.227079 259.290471 
L 306.953051 253.628215 
L 307.679023 273.092337 
L 308.404994 265.734277 
L 309.130966 212.229469 
L 309.856938 211.37229 
L 310.58291 252.805982 
L 311.308881 245.842231 
L 312.034853 273.23934 
L 312.760825 277.608925 
L 313.486796 245.576293 
L 314.212768 249.339544 
L 314.93874 264.401798 
L 315.664711 272.649292 
L 316.390683 274.562316 
L 317.116655 271.1663 
L 317.842627 238.868879 
L 318.568598 267.31903 
L 319.29457 263.749526 
L 320.020542 273.332792 
L 320.746513 263.523163 
L 321.472485 230.214045 
L 322.198457 249.582827 
L 322.924429 225.070444 
L 323.6504 256.439445 
L 324.376372 275.875288 
L 325.102344 276.104261 
L 325.828315 269.940799 
L 326.554287 258.886964 
L 327.280259 273.512918 
L 328.00623 258.687442 
L 328.732202 267.613753 
L 329.458174 264.936224 
L 330.184146 267.586577 
L 330.910117 271.258353 
L 331.636089 275.641485 
L 332.362061 266.40866 
L 333.088032 241.969733 
L 333.814004 271.823249 
L 334.539976 249.965945 
L 335.265947 242.095446 
L 335.991919 257.589477 
L 336.717891 258.201314 
L 337.443863 258.474522 
L 338.169834 253.582939 
L 338.895806 260.707912 
L 339.621778 256.877763 
L 340.347749 258.161956 
L 341.073721 258.202403 
L 341.799693 267.927772 
L 342.525664 266.459921 
L 343.251636 255.842482 
L 343.977608 264.523095 
L 344.70358 266.397947 
L 345.429551 264.900632 
L 346.155523 248.411483 
L 346.881495 256.269355 
L 347.607466 245.834843 
L 348.333438 256.242112 
L 349.05941 259.838928 
L 349.785382 264.391806 
L 350.511353 222.385743 
L 351.237325 208.690337 
L 351.963297 272.032965 
L 352.689268 263.532341 
L 354.141212 252.594343 
L 354.867183 260.140316 
L 355.593155 254.204501 
L 356.319127 253.830688 
L 357.045099 263.346472 
L 357.77107 264.673653 
L 358.497042 261.81754 
L 359.223014 257.209223 
L 359.948985 254.833158 
L 360.674957 253.022712 
L 361.400929 257.879795 
L 362.1269 258.678193 
L 362.852872 257.180112 
L 363.578844 258.31834 
L 364.304816 253.078732 
L 365.030787 257.56663 
L 365.756759 271.093573 
L 366.482731 257.873931 
L 367.208702 224.963272 
L 367.934674 257.561527 
L 368.660646 272.629614 
L 370.112589 240.526912 
L 370.838561 233.761434 
L 371.564533 255.972586 
L 372.290504 254.209122 
L 373.016476 241.728512 
L 373.742448 242.212237 
L 374.468419 261.84226 
L 375.194391 265.204969 
L 375.920363 244.955553 
L 376.646335 251.64297 
L 377.372306 245.297849 
L 378.098278 251.073732 
L 378.82425 246.696068 
L 379.550221 253.146283 
L 380.276193 256.483232 
L 381.002165 265.227722 
L 381.728136 257.84405 
L 382.454108 254.468895 
L 383.18008 261.170034 
L 383.906052 256.038302 
L 384.632023 231.611554 
L 385.357995 259.330291 
L 386.083967 265.963719 
L 386.809938 264.383718 
L 387.53591 254.73305 
L 388.261882 261.274677 
L 388.987853 237.415333 
L 389.713825 230.111736 
L 391.165769 251.202362 
L 391.89174 248.369606 
L 392.617712 268.849954 
L 393.343684 260.532153 
L 394.069655 232.386976 
L 394.795627 228.378358 
L 395.521599 229.671643 
L 396.24757 248.102499 
L 396.973542 234.767263 
L 397.699514 230.957369 
L 398.425486 259.578724 
L 399.151457 267.675127 
L 399.877429 240.320062 
L 400.603401 265.492504 
L 402.055344 254.206616 
L 402.781316 252.011454 
L 403.507288 253.725755 
L 404.233259 250.383972 
L 404.959231 261.095621 
L 405.685203 230.901848 
L 406.411174 210.472832 
L 407.137146 265.448986 
L 407.863118 240.874057 
L 408.589089 254.073729 
L 409.315061 260.367194 
L 410.041033 239.860087 
L 410.767005 256.533943 
L 411.492976 248.755793 
L 412.218948 269.517684 
L 412.94492 259.798009 
L 413.670891 267.235816 
L 415.122835 252.211999 
L 415.848806 256.355148 
L 416.574778 251.957141 
L 417.30075 257.27746 
L 418.026722 257.95507 
L 418.752693 256.347191 
L 419.478665 258.723289 
L 420.204637 261.732375 
L 420.930608 254.476264 
L 421.65658 262.032616 
L 422.382552 260.336135 
L 423.108523 262.353965 
L 423.834495 262.899097 
L 424.560467 270.179755 
L 425.286439 258.242614 
L 426.01241 241.177219 
L 426.738382 255.324986 
L 427.464354 244.673025 
L 428.190325 256.14601 
L 428.916297 245.295801 
L 429.642269 256.24096 
L 430.368241 264.544569 
L 431.094212 255.23013 
L 431.820184 256.118696 
L 432.546156 259.014857 
L 433.272127 256.919118 
L 433.998099 260.016119 
L 434.724071 254.778974 
L 435.450042 255.405519 
L 436.176014 257.40422 
L 436.901986 257.963953 
L 437.627958 258.960685 
L 438.353929 257.345531 
L 439.079901 266.048377 
L 440.531844 250.107388 
L 441.257816 255.705533 
L 441.983788 264.482065 
L 442.709759 259.349709 
L 443.435731 259.202085 
L 444.161703 262.348378 
L 445.613646 254.648556 
L 446.339618 266.051889 
L 447.06559 257.459602 
L 447.791561 258.706464 
L 448.517533 262.887376 
L 449.243505 256.815657 
L 449.969476 258.798359 
L 450.695448 258.035195 
L 451.42142 259.795426 
L 452.147392 259.776321 
L 452.873363 257.652276 
L 454.325307 257.521659 
L 455.051278 257.160873 
L 455.051278 257.160873 
" style="fill:none;stroke:#ff7f0e;stroke-linecap:square;stroke-width:1.5;"/>
   </g>
   <g id="line2d_3">
    <path clip-path="url(#p86b8473cdd)" d="M 49.233097 235.303729 
L 49.959068 230.065803 
L 50.68504 247.508435 
L 52.136983 253.5098 
L 52.862955 209.291961 
L 53.588927 220.043403 
L 54.314899 209.433597 
L 55.04087 209.534168 
L 55.766842 267.729061 
L 57.218785 237.451161 
L 57.944757 250.856544 
L 58.670729 159.503721 
L 59.3967 261.006318 
L 60.848644 248.75799 
L 61.574616 250.191295 
L 62.300587 234.07596 
L 63.026559 244.538193 
L 63.752531 245.798989 
L 64.478502 243.190726 
L 65.204474 243.145242 
L 65.930446 255.610803 
L 66.656417 244.876191 
L 67.382389 250.581618 
L 68.108361 252.99779 
L 68.834333 266.491607 
L 69.560304 254.96333 
L 70.286276 267.099474 
L 71.012248 271.565055 
L 71.738219 239.702091 
L 72.464191 248.43693 
L 73.190163 250.889222 
L 73.916134 267.881846 
L 74.642106 273.213793 
L 75.368078 257.426831 
L 76.09405 232.598108 
L 76.820021 220.348603 
L 77.545993 248.037119 
L 78.271965 213.342767 
L 78.997936 257.737375 
L 79.723908 235.865128 
L 80.44988 191.60196 
L 81.175852 239.45047 
L 81.901823 254.825891 
L 82.627795 216.900705 
L 83.353767 240.564366 
L 84.079738 226.355369 
L 84.80571 236.737041 
L 85.531682 225.496068 
L 86.257653 206.165639 
L 86.983625 236.404732 
L 87.709597 208.696678 
L 88.435569 173.065256 
L 89.16154 191.491409 
L 89.887512 259.148386 
L 90.613484 267.040843 
L 91.339455 246.481692 
L 92.065427 179.904437 
L 92.791399 222.671327 
L 93.51737 231.549138 
L 94.243342 189.150856 
L 94.969314 238.906851 
L 95.695286 247.165098 
L 96.421257 266.525061 
L 97.873201 207.405912 
L 98.599172 225.290509 
L 99.325144 177.542924 
L 100.051116 254.278386 
L 100.777087 252.40722 
L 101.503059 241.229319 
L 102.229031 220.963128 
L 102.955003 211.747198 
L 103.680974 207.848858 
L 104.406946 242.581031 
L 105.132918 253.420648 
L 105.858889 231.963478 
L 106.584861 157.259149 
L 107.310833 250.973606 
L 108.036805 261.820447 
L 108.762776 228.003049 
L 109.488748 138.492534 
L 110.21472 255.96811 
L 110.940691 273.839061 
L 111.666663 255.884168 
L 112.392635 198.834346 
L 113.118606 188.377195 
L 113.844578 239.238839 
L 114.57055 213.931085 
L 115.296522 254.56567 
L 116.022493 253.207718 
L 116.748465 186.522681 
L 117.474437 226.893339 
L 118.200408 258.898511 
L 118.92638 210.247192 
L 119.652352 194.633328 
L 120.378323 249.684547 
L 121.104295 180.330129 
L 121.830267 148.560944 
L 122.556239 256.890349 
L 123.28221 250.880879 
L 124.008182 256.978757 
L 124.734154 234.857088 
L 125.460125 168.985021 
L 126.186097 225.54992 
L 126.912069 157.654854 
L 127.63804 197.120725 
L 128.364012 207.258331 
L 129.089984 207.581974 
L 130.541927 260.805796 
L 131.267899 246.248647 
L 132.719842 197.307433 
L 133.445814 196.524432 
L 134.171786 166.933193 
L 134.897758 239.621318 
L 135.623729 269.510551 
L 136.349701 256.102988 
L 137.075673 116.508136 
L 137.801644 139.798341 
L 138.527616 247.37235 
L 139.253588 249.650096 
L 139.979559 225.456593 
L 140.705531 238.001806 
L 141.431503 270.857057 
L 142.157475 275.585077 
L 142.883446 237.592729 
L 143.609418 156.785466 
L 144.33539 195.101262 
L 145.061361 200.448577 
L 145.787333 225.787401 
L 146.513305 215.513339 
L 147.239276 195.75321 
L 147.965248 236.322381 
L 148.69122 240.773975 
L 149.417192 232.750152 
L 150.143163 233.892767 
L 150.869135 226.898306 
L 151.595107 258.540286 
L 152.321078 253.003462 
L 153.04705 248.7785 
L 153.773022 271.91613 
L 154.498993 269.646401 
L 155.224965 239.28182 
L 155.950937 221.025166 
L 156.676909 224.644266 
L 157.40288 184.54433 
L 158.128852 191.647985 
L 158.854824 171.395603 
L 159.580795 226.679894 
L 160.306767 258.118898 
L 161.032739 249.445908 
L 161.758711 263.963624 
L 162.484682 255.83098 
L 163.210654 223.736891 
L 163.936626 178.656904 
L 164.662597 238.560155 
L 165.388569 232.169776 
L 166.114541 176.858382 
L 166.840512 238.947718 
L 167.566484 238.704275 
L 168.292456 209.142846 
L 169.018428 189.189222 
L 170.470371 231.128281 
L 171.196343 265.904353 
L 171.922314 258.639409 
L 172.648286 227.40387 
L 173.374258 217.361532 
L 174.100229 249.953932 
L 174.826201 253.646543 
L 175.552173 159.00099 
L 176.278145 177.345063 
L 177.004116 208.771348 
L 177.730088 229.435345 
L 178.45606 215.175836 
L 179.182031 240.396535 
L 179.908003 247.491511 
L 180.633975 245.148006 
L 181.359946 244.004841 
L 182.085918 244.947843 
L 182.81189 233.844001 
L 183.537862 241.718176 
L 184.989805 250.712222 
L 185.715777 234.287479 
L 186.441748 203.293608 
L 187.16772 220.92355 
L 187.893692 263.665064 
L 188.619664 267.991148 
L 189.345635 255.571879 
L 190.071607 246.135356 
L 190.797579 247.763349 
L 191.52355 264.623544 
L 192.249522 254.955984 
L 192.975494 255.586185 
L 193.701465 241.720384 
L 194.427437 244.526891 
L 195.153409 261.303701 
L 195.879381 244.64399 
L 196.605352 255.695855 
L 197.331324 249.375235 
L 198.057296 252.228501 
L 198.783267 241.289941 
L 199.509239 241.775968 
L 200.235211 261.21085 
L 200.961182 247.648193 
L 201.687154 214.185738 
L 202.413126 232.320566 
L 203.139098 263.039048 
L 203.865069 244.187237 
L 204.591041 213.155467 
L 205.317013 197.437613 
L 206.042984 243.751174 
L 206.768956 256.26046 
L 207.494928 236.208294 
L 208.220899 204.616661 
L 208.946871 248.549357 
L 209.672843 218.427475 
L 210.398815 160.356228 
L 211.850758 227.339956 
L 212.57673 229.268848 
L 213.302701 265.257234 
L 214.028673 233.193058 
L 214.754645 127.234557 
L 215.480617 218.878903 
L 216.206588 258.947954 
L 216.93256 238.009061 
L 217.658532 182.82747 
L 218.384503 230.537202 
L 219.110475 234.531402 
L 219.836447 209.085048 
L 220.562418 235.898082 
L 221.28839 270.311914 
L 222.014362 255.499571 
L 222.740334 248.401548 
L 223.466305 167.306244 
L 224.192277 228.143229 
L 224.918249 182.97917 
L 225.64422 206.528053 
L 226.370192 192.827915 
L 227.096164 230.658457 
L 227.822135 249.796477 
L 228.548107 219.929294 
L 229.274079 237.091624 
L 230.000051 265.709309 
L 230.726022 254.427624 
L 231.451994 203.730876 
L 232.177966 227.955915 
L 232.903937 242.153101 
L 233.629909 223.280189 
L 234.355881 198.839183 
L 235.081852 249.001797 
L 235.807824 250.014039 
L 236.533796 235.457094 
L 237.259768 243.220584 
L 237.985739 245.51681 
L 238.711711 246.758682 
L 239.437683 243.84105 
L 240.163654 245.153372 
L 240.889626 249.913424 
L 241.615598 239.215409 
L 242.34157 211.281913 
L 243.067541 194.316748 
L 243.793513 198.657574 
L 245.245456 266.720753 
L 245.971428 270.120975 
L 246.6974 255.201386 
L 247.423371 255.358041 
L 248.149343 267.025632 
L 248.875315 218.541741 
L 249.601287 255.461112 
L 250.327258 267.339523 
L 251.05323 254.508768 
L 251.779202 254.615837 
L 252.505173 265.392752 
L 253.231145 250.63073 
L 253.957117 263.233733 
L 254.683088 266.36275 
L 255.40906 251.909184 
L 256.135032 241.240296 
L 256.861004 268.167783 
L 257.586975 215.811098 
L 258.312947 183.652705 
L 259.038919 257.620386 
L 259.76489 237.519597 
L 260.490862 240.729697 
L 261.216834 253.908545 
L 261.942805 248.082947 
L 262.668777 251.677403 
L 263.394749 263.010345 
L 264.120721 271.667364 
L 264.846692 262.404623 
L 265.572664 250.152881 
L 266.298636 256.217634 
L 267.024607 259.977402 
L 267.750579 214.793241 
L 268.476551 235.156328 
L 269.202523 259.206699 
L 269.928494 232.382535 
L 270.654466 256.369193 
L 271.380438 249.358233 
L 272.106409 236.194745 
L 272.832381 247.387699 
L 273.558353 252.704332 
L 274.284324 240.781861 
L 275.010296 238.456803 
L 275.736268 241.540923 
L 276.46224 246.766805 
L 277.188211 240.015263 
L 277.914183 241.151065 
L 278.640155 211.481423 
L 279.366126 237.757621 
L 280.092098 215.287121 
L 280.81807 234.156222 
L 281.544041 213.108636 
L 282.270013 243.052472 
L 282.995985 235.366541 
L 283.721957 246.755445 
L 284.447928 233.287288 
L 285.1739 247.333674 
L 285.899872 240.595389 
L 286.625843 234.946322 
L 287.351815 223.463382 
L 288.077787 230.782108 
L 288.803758 218.594859 
L 289.52973 222.693755 
L 290.255702 174.995857 
L 290.981674 263.811355 
L 291.707645 233.100655 
L 292.433617 188.005361 
L 293.159589 184.793938 
L 293.88556 178.657186 
L 294.611532 159.951496 
L 295.337504 232.578002 
L 296.063476 239.698738 
L 296.789447 217.840746 
L 297.515419 245.181438 
L 298.241391 261.581262 
L 298.967362 242.166988 
L 299.693334 227.146959 
L 300.419306 242.14597 
L 301.145277 227.815214 
L 301.871249 246.332407 
L 302.597221 240.906367 
L 303.323193 216.620298 
L 304.049164 209.83529 
L 304.775136 242.298999 
L 305.501108 221.355141 
L 306.227079 207.435173 
L 306.953051 242.729331 
L 307.679023 250.425509 
L 308.404994 210.966505 
L 309.130966 202.616181 
L 310.58291 249.19679 
L 311.308881 233.602501 
L 312.034853 245.266731 
L 312.760825 264.406492 
L 313.486796 257.750976 
L 314.212768 173.595469 
L 314.93874 200.552941 
L 315.664711 265.923946 
L 316.390683 255.416015 
L 317.842627 229.153948 
L 318.568598 243.768489 
L 319.29457 235.687928 
L 320.020542 262.405856 
L 320.746513 250.235298 
L 321.472485 191.545109 
L 322.198457 249.792177 
L 322.924429 216.148725 
L 323.6504 232.477622 
L 324.376372 260.977411 
L 325.102344 265.100932 
L 325.828315 225.929074 
L 326.554287 255.477635 
L 327.280259 263.461547 
L 328.00623 258.521704 
L 328.732202 244.208302 
L 329.458174 200.742704 
L 330.184146 199.093684 
L 330.910117 251.928567 
L 331.636089 265.217642 
L 332.362061 247.873598 
L 333.088032 217.414878 
L 333.814004 255.441235 
L 334.539976 244.345043 
L 335.265947 230.641059 
L 335.991919 263.116652 
L 336.717891 232.242871 
L 337.443863 249.030733 
L 338.169834 249.362805 
L 338.895806 247.162664 
L 339.621778 247.858401 
L 341.073721 246.972154 
L 341.799693 257.895964 
L 342.525664 254.431124 
L 343.251636 242.769883 
L 343.977608 219.460935 
L 344.70358 238.706849 
L 345.429551 263.429329 
L 346.155523 233.727527 
L 346.881495 258.237058 
L 347.607466 247.632026 
L 348.333438 241.950467 
L 349.05941 254.924913 
L 349.785382 255.020069 
L 350.511353 245.97084 
L 351.237325 197.599428 
L 351.963297 260.716159 
L 353.41524 243.898991 
L 354.141212 248.518108 
L 354.867183 247.456891 
L 355.593155 240.855991 
L 356.319127 236.719279 
L 357.045099 244.982561 
L 357.77107 248.605651 
L 358.497042 242.501512 
L 359.223014 261.348455 
L 359.948985 254.742036 
L 360.674957 264.00866 
L 361.400929 265.945086 
L 362.1269 245.348309 
L 362.852872 259.256502 
L 364.304816 240.468929 
L 365.030787 238.271323 
L 365.756759 252.806613 
L 366.482731 242.507037 
L 367.208702 223.270075 
L 367.934674 248.328091 
L 368.660646 247.946814 
L 369.386617 245.433924 
L 370.112589 221.603009 
L 370.838561 233.065098 
L 371.564533 231.853988 
L 372.290504 247.733991 
L 373.016476 238.304578 
L 373.742448 246.862576 
L 374.468419 263.50942 
L 375.194391 228.223825 
L 375.920363 241.742587 
L 376.646335 267.511755 
L 377.372306 231.197846 
L 378.098278 256.43753 
L 379.550221 214.780191 
L 380.276193 243.890749 
L 381.002165 252.812252 
L 381.728136 220.693503 
L 382.454108 228.591597 
L 383.18008 231.822673 
L 383.906052 204.027905 
L 384.632023 232.237492 
L 385.357995 252.118203 
L 386.083967 244.070651 
L 386.809938 224.647818 
L 387.53591 196.048614 
L 388.261882 210.389308 
L 388.987853 215.418214 
L 389.713825 204.310264 
L 390.439797 222.269893 
L 391.165769 224.940125 
L 391.89174 214.126736 
L 392.617712 234.152537 
L 393.343684 204.295301 
L 394.069655 223.234456 
L 394.795627 216.433684 
L 395.521599 221.453185 
L 396.24757 201.795968 
L 396.973542 229.070204 
L 397.699514 231.76531 
L 398.425486 225.352587 
L 399.151457 253.152266 
L 399.877429 244.46738 
L 400.603401 255.854674 
L 401.329372 213.401138 
L 402.055344 187.044552 
L 402.781316 250.098492 
L 403.507288 210.344038 
L 404.233259 206.17836 
L 404.959231 203.15207 
L 405.685203 206.032909 
L 406.411174 177.728213 
L 407.137146 249.659418 
L 407.863118 223.017657 
L 408.589089 238.255314 
L 409.315061 242.197396 
L 410.041033 224.535508 
L 410.767005 233.155131 
L 411.492976 227.114521 
L 412.218948 255.774313 
L 412.94492 263.893397 
L 413.670891 243.76749 
L 414.396863 245.69898 
L 415.122835 244.723635 
L 415.848806 236.015418 
L 416.574778 240.99992 
L 417.30075 245.106035 
L 418.026722 242.321748 
L 418.752693 242.086851 
L 419.478665 240.826162 
L 420.204637 248.450765 
L 421.65658 240.256495 
L 422.382552 244.263782 
L 423.108523 235.69236 
L 423.834495 259.132415 
L 424.560467 250.462366 
L 425.286439 240.234178 
L 426.01241 220.228484 
L 426.738382 235.955401 
L 427.464354 232.290475 
L 428.190325 241.553189 
L 428.916297 234.640523 
L 430.368241 256.756051 
L 431.094212 243.032841 
L 431.820184 244.967703 
L 432.546156 228.650814 
L 433.272127 241.620594 
L 433.998099 218.075906 
L 434.724071 243.914186 
L 435.450042 216.48825 
L 436.176014 244.44264 
L 436.901986 225.232277 
L 437.627958 242.303036 
L 438.353929 247.012532 
L 439.079901 247.001791 
L 439.805873 245.967006 
L 440.531844 243.283595 
L 441.257816 242.046504 
L 441.983788 245.958345 
L 442.709759 222.412659 
L 443.435731 248.549986 
L 444.161703 230.369472 
L 444.887675 244.134902 
L 445.613646 227.665737 
L 446.339618 245.824635 
L 447.06559 246.970964 
L 447.791561 218.421704 
L 449.243505 255.872081 
L 449.969476 246.200297 
L 450.695448 241.736462 
L 451.42142 247.091309 
L 452.147392 243.39167 
L 452.873363 245.925528 
L 453.599335 246.028801 
L 454.325307 245.895758 
L 455.051278 247.640269 
L 455.051278 247.640269 
" style="fill:none;stroke:#2ca02c;stroke-linecap:square;stroke-width:1.5;"/>
   </g>
   <g id="line2d_4">
    <path clip-path="url(#p86b8473cdd)" d="M 49.233097 230.896752 
L 49.959068 269.66379 
L 50.68504 264.832469 
L 51.411012 263.542732 
L 52.136983 271.387379 
L 52.862955 250.487323 
L 53.588927 253.045141 
L 54.314899 227.14406 
L 55.04087 223.731145 
L 55.766842 269.51162 
L 56.492814 269.514459 
L 57.218785 217.246944 
L 57.944757 255.213637 
L 58.670729 254.83139 
L 59.3967 268.317244 
L 60.122672 228.060544 
L 60.848644 238.472882 
L 61.574616 262.825873 
L 62.300587 252.282485 
L 63.026559 250.432113 
L 63.752531 253.582266 
L 64.478502 252.548717 
L 65.204474 241.209283 
L 65.930446 257.080772 
L 66.656417 238.306495 
L 67.382389 248.880647 
L 68.108361 268.462331 
L 68.834333 273.710102 
L 69.560304 261.182614 
L 70.286276 269.26062 
L 71.012248 258.932508 
L 71.738219 256.297565 
L 72.464191 251.969424 
L 73.190163 263.231469 
L 73.916134 271.052018 
L 74.642106 277.35363 
L 75.368078 269.432555 
L 76.09405 268.374316 
L 76.820021 270.28713 
L 77.545993 259.42233 
L 78.271965 273.400806 
L 78.997936 263.909718 
L 79.723908 258.382081 
L 80.44988 259.581991 
L 81.175852 261.229308 
L 81.901823 269.805599 
L 82.627795 263.338478 
L 83.353767 272.28541 
L 84.079738 241.213317 
L 84.80571 237.667298 
L 86.257653 226.670047 
L 86.983625 233.653149 
L 87.709597 208.090952 
L 88.435569 201.332786 
L 89.16154 203.00148 
L 89.887512 267.550745 
L 90.613484 279.248526 
L 91.339455 259.298837 
L 92.065427 181.094866 
L 92.791399 185.923922 
L 93.51737 235.850808 
L 94.243342 200.411621 
L 94.969314 260.969758 
L 95.695286 257.866469 
L 96.421257 268.963508 
L 97.147229 258.261515 
L 97.873201 261.600979 
L 98.599172 257.136735 
L 99.325144 257.445127 
L 100.051116 276.771476 
L 100.777087 279.030648 
L 101.503059 268.796488 
L 102.229031 262.846811 
L 102.955003 234.550503 
L 103.680974 165.072994 
L 104.406946 235.551254 
L 105.132918 256.887786 
L 105.858889 196.377995 
L 106.584861 235.335946 
L 107.310833 252.410393 
L 108.036805 255.276952 
L 108.762776 225.869104 
L 109.488748 245.549337 
L 110.21472 275.021632 
L 110.940691 262.407301 
L 111.666663 236.690429 
L 112.392635 252.453975 
L 113.118606 261.520301 
L 113.844578 263.692203 
L 114.57055 262.728646 
L 116.022493 278.260939 
L 116.748465 198.320451 
L 118.200408 272.98708 
L 118.92638 252.39389 
L 119.652352 195.523002 
L 120.378323 234.178929 
L 121.104295 235.325011 
L 121.830267 251.561799 
L 122.556239 252.817874 
L 123.28221 247.657229 
L 124.008182 235.07079 
L 124.734154 255.966609 
L 125.460125 254.860019 
L 126.186097 257.664798 
L 127.63804 90.578819 
L 128.364012 202.052913 
L 129.089984 242.593865 
L 129.815956 245.01025 
L 130.541927 272.946059 
L 131.267899 243.194506 
L 131.993871 187.646182 
L 132.719842 183.999954 
L 133.445814 239.032412 
L 134.171786 240.569243 
L 134.897758 249.536681 
L 135.623729 267.954557 
L 136.349701 231.179579 
L 137.075673 208.517353 
L 137.801644 238.294023 
L 138.527616 263.507467 
L 139.253588 270.72481 
L 139.979559 162.939261 
L 140.705531 184.208632 
L 141.431503 273.711642 
L 142.157475 268.690212 
L 142.883446 238.191718 
L 143.609418 181.675884 
L 144.33539 205.423395 
L 145.061361 213.660877 
L 145.787333 239.605646 
L 146.513305 217.165299 
L 147.965248 243.422076 
L 148.69122 251.62561 
L 149.417192 250.797242 
L 150.143163 259.718448 
L 150.869135 165.087614 
L 151.595107 178.911248 
L 152.321078 173.591195 
L 153.04705 220.717067 
L 153.773022 258.214433 
L 154.498993 269.119507 
L 155.224965 257.980876 
L 155.950937 251.539492 
L 156.676909 190.499268 
L 157.40288 181.644529 
L 158.128852 106.940416 
L 158.854824 57.055428 
L 159.580795 180.986344 
L 160.306767 237.861706 
L 161.032739 249.835887 
L 162.484682 241.854766 
L 163.210654 239.635336 
L 163.936626 254.331805 
L 164.662597 208.34263 
L 165.388569 216.876613 
L 166.114541 209.000708 
L 166.840512 248.023025 
L 167.566484 251.883055 
L 168.292456 225.595177 
L 169.018428 245.239406 
L 169.744399 219.617948 
L 170.470371 250.203574 
L 171.196343 257.032197 
L 171.922314 266.269741 
L 172.648286 258.559001 
L 173.374258 246.605879 
L 174.100229 244.216388 
L 174.826201 254.231005 
L 175.552173 261.416314 
L 176.278145 250.268957 
L 177.004116 175.933365 
L 177.730088 201.627607 
L 178.45606 242.233536 
L 179.182031 238.849755 
L 179.908003 270.896599 
L 180.633975 225.486731 
L 181.359946 262.998597 
L 182.085918 269.055729 
L 182.81189 264.646931 
L 183.537862 273.867269 
L 184.263833 275.072028 
L 184.989805 256.886194 
L 185.715777 252.878739 
L 186.441748 202.730211 
L 187.16772 177.991103 
L 187.893692 270.968425 
L 188.619664 277.261612 
L 189.345635 277.155448 
L 190.071607 260.74158 
L 190.797579 254.197679 
L 191.52355 267.21781 
L 192.249522 276.681029 
L 192.975494 265.717043 
L 193.701465 251.737577 
L 194.427437 265.421709 
L 195.153409 253.121569 
L 195.879381 250.575883 
L 196.605352 252.503829 
L 197.331324 261.306456 
L 198.057296 258.708253 
L 198.783267 252.397415 
L 199.509239 202.098791 
L 200.235211 264.481525 
L 200.961182 247.778504 
L 201.687154 255.625192 
L 202.413126 255.205232 
L 203.139098 276.242453 
L 203.865069 277.381593 
L 204.591041 267.885591 
L 205.317013 261.033607 
L 206.042984 267.589758 
L 206.768956 264.48876 
L 207.494928 222.435719 
L 208.220899 209.676796 
L 208.946871 240.749813 
L 209.672843 218.084557 
L 210.398815 256.273671 
L 211.124786 223.014324 
L 211.850758 215.749619 
L 212.57673 231.889614 
L 213.302701 273.743144 
L 214.028673 270.058995 
L 214.754645 255.232137 
L 215.480617 225.183231 
L 216.206588 257.682173 
L 216.93256 260.994259 
L 217.658532 223.586427 
L 218.384503 203.842581 
L 219.110475 225.687416 
L 219.836447 260.373496 
L 220.562418 214.260194 
L 221.28839 242.776588 
L 222.014362 231.921756 
L 222.740334 253.072517 
L 223.466305 251.354994 
L 224.192277 214.353814 
L 224.918249 238.594966 
L 225.64422 246.678546 
L 226.370192 217.243906 
L 227.096164 249.141534 
L 227.822135 265.895646 
L 228.548107 267.678663 
L 229.274079 270.374072 
L 230.000051 253.963586 
L 230.726022 256.54529 
L 231.451994 240.231359 
L 232.177966 250.872081 
L 232.903937 255.555929 
L 233.629909 258.836138 
L 234.355881 261.162241 
L 235.081852 249.163069 
L 235.807824 257.001247 
L 236.533796 261.168618 
L 237.259768 251.917058 
L 237.985739 258.463195 
L 238.711711 266.206794 
L 239.437683 251.169393 
L 240.163654 228.52317 
L 240.889626 253.216089 
L 241.615598 248.766535 
L 242.34157 217.338887 
L 243.067541 253.495923 
L 243.793513 251.686197 
L 244.519485 222.372088 
L 245.245456 273.897499 
L 245.971428 268.712355 
L 246.6974 257.830243 
L 247.423371 265.659861 
L 248.149343 241.725204 
L 248.875315 211.65921 
L 249.601287 242.982315 
L 250.327258 266.513095 
L 251.05323 257.956386 
L 251.779202 258.469271 
L 252.505173 267.278369 
L 253.231145 260.948933 
L 253.957117 266.893922 
L 254.683088 268.757413 
L 255.40906 268.269729 
L 256.135032 204.097867 
L 256.861004 256.830547 
L 257.586975 267.249628 
L 258.312947 226.004446 
L 259.038919 268.196878 
L 259.76489 262.916608 
L 260.490862 267.097514 
L 261.216834 266.731696 
L 261.942805 229.502876 
L 262.668777 214.440969 
L 263.394749 256.925808 
L 264.120721 275.579876 
L 264.846692 229.680436 
L 265.572664 196.090559 
L 266.298636 252.140022 
L 267.024607 247.0642 
L 267.750579 251.413716 
L 268.476551 256.864533 
L 269.202523 244.932363 
L 269.928494 241.526405 
L 271.380438 244.868131 
L 272.106409 243.450546 
L 273.558353 256.472549 
L 274.284324 250.35275 
L 275.010296 250.668275 
L 275.736268 245.760704 
L 276.46224 248.001015 
L 277.188211 247.583934 
L 277.914183 249.015428 
L 278.640155 256.519929 
L 279.366126 258.06379 
L 280.092098 252.871811 
L 280.81807 241.702518 
L 281.544041 234.053872 
L 282.270013 240.529822 
L 282.995985 255.227908 
L 283.721957 218.235559 
L 284.447928 246.11699 
L 285.1739 209.277785 
L 285.899872 242.204055 
L 286.625843 236.260128 
L 287.351815 223.852199 
L 288.077787 240.541477 
L 288.803758 229.435372 
L 289.52973 199.979939 
L 290.981674 275.881088 
L 291.707645 264.097963 
L 292.433617 262.135029 
L 293.159589 258.718656 
L 293.88556 255.93589 
L 294.611532 244.642469 
L 295.337504 205.850341 
L 296.063476 259.960553 
L 296.789447 247.072064 
L 297.515419 249.853003 
L 298.241391 266.363396 
L 298.967362 250.992441 
L 299.693334 257.40786 
L 300.419306 240.295282 
L 301.145277 261.163094 
L 301.871249 218.472148 
L 302.597221 249.372663 
L 303.323193 261.073044 
L 304.049164 260.53668 
L 304.775136 252.511028 
L 305.501108 249.371984 
L 306.227079 257.730214 
L 306.953051 247.769283 
L 307.679023 273.071397 
L 308.404994 260.178998 
L 309.130966 252.933646 
L 309.856938 256.821798 
L 310.58291 267.155109 
L 311.308881 259.303312 
L 312.034853 276.056479 
L 312.760825 279.570996 
L 313.486796 267.657707 
L 314.212768 199.294488 
L 314.93874 249.107817 
L 315.664711 276.91308 
L 316.390683 260.527076 
L 317.116655 260.56935 
L 317.842627 264.89994 
L 318.568598 229.739682 
L 320.020542 272.992077 
L 320.746513 267.888999 
L 321.472485 268.599373 
L 322.198457 245.059591 
L 322.924429 256.738876 
L 323.6504 263.364088 
L 324.376372 256.662932 
L 325.102344 271.470464 
L 325.828315 266.873023 
L 326.554287 269.602213 
L 327.280259 252.061917 
L 328.00623 249.862668 
L 328.732202 252.700666 
L 329.458174 256.648623 
L 330.184146 257.846664 
L 330.910117 257.10924 
L 331.636089 250.103357 
L 332.362061 245.740991 
L 333.088032 253.324969 
L 333.814004 254.917341 
L 334.539976 253.047087 
L 335.265947 257.777825 
L 335.991919 253.314428 
L 336.717891 255.008834 
L 337.443863 251.520879 
L 338.895806 254.35927 
L 339.621778 253.798141 
L 340.347749 254.105821 
L 341.073721 245.193456 
L 341.799693 260.527841 
L 342.525664 255.186673 
L 343.251636 252.232595 
L 343.977608 246.70581 
L 344.70358 254.501556 
L 345.429551 252.257985 
L 346.155523 235.517255 
L 347.607466 251.550961 
L 348.333438 261.860524 
L 349.05941 258.720015 
L 349.785382 266.558545 
L 350.511353 254.560665 
L 351.237325 237.823594 
L 351.963297 267.709865 
L 352.689268 256.977357 
L 354.141212 250.169537 
L 354.867183 254.807339 
L 355.593155 246.338595 
L 356.319127 256.210679 
L 357.045099 264.498475 
L 357.77107 265.033274 
L 358.497042 253.142203 
L 359.223014 268.668771 
L 359.948985 235.359508 
L 360.674957 267.253674 
L 361.400929 263.914631 
L 362.1269 218.182299 
L 362.852872 244.372195 
L 363.578844 251.091541 
L 364.304816 243.001452 
L 365.030787 248.284665 
L 365.756759 266.219899 
L 366.482731 250.399025 
L 367.208702 205.828345 
L 367.934674 255.807753 
L 368.660646 265.74906 
L 369.386617 255.375694 
L 370.838561 263.279798 
L 373.016476 247.869422 
L 373.742448 265.063889 
L 374.468419 270.139622 
L 375.194391 256.192704 
L 375.920363 251.779319 
L 376.646335 270.781955 
L 377.372306 260.527993 
L 378.098278 267.19528 
L 378.82425 261.815573 
L 379.550221 255.006305 
L 380.276193 265.269971 
L 381.002165 269.55942 
L 381.728136 259.962629 
L 383.18008 264.582978 
L 383.906052 216.284154 
L 384.632023 233.565569 
L 385.357995 271.780385 
L 386.083967 251.922961 
L 387.53591 204.386941 
L 388.261882 219.433025 
L 388.987853 228.68579 
L 389.713825 226.206438 
L 390.439797 232.029585 
L 391.165769 254.637721 
L 391.89174 249.731053 
L 392.617712 262.75181 
L 393.343684 220.325401 
L 394.069655 218.504599 
L 394.795627 231.335919 
L 395.521599 228.591882 
L 396.24757 248.398229 
L 396.973542 224.916599 
L 397.699514 222.036369 
L 398.425486 257.181822 
L 399.151457 269.385942 
L 399.877429 226.80705 
L 400.603401 249.350431 
L 401.329372 247.811938 
L 402.055344 248.614522 
L 402.781316 252.915925 
L 403.507288 227.230451 
L 404.233259 254.224666 
L 404.959231 254.857127 
L 405.685203 246.293878 
L 406.411174 240.828898 
L 407.137146 250.578309 
L 408.589089 255.21747 
L 409.315061 249.340333 
L 410.041033 224.977552 
L 410.767005 248.505824 
L 411.492976 242.59231 
L 412.218948 265.892692 
L 412.94492 267.506826 
L 413.670891 264.328409 
L 414.396863 249.526702 
L 415.122835 260.309711 
L 415.848806 252.19537 
L 416.574778 261.739207 
L 417.30075 263.291487 
L 418.026722 271.302743 
L 418.752693 260.86116 
L 419.478665 268.836965 
L 420.204637 235.611159 
L 420.930608 263.904963 
L 421.65658 257.850877 
L 422.382552 253.673372 
L 423.108523 227.018572 
L 423.834495 261.94396 
L 424.560467 267.746924 
L 425.286439 249.371287 
L 426.01241 251.716574 
L 426.738382 252.804409 
L 427.464354 255.083863 
L 428.190325 251.242218 
L 428.916297 254.891869 
L 429.642269 255.218933 
L 430.368241 250.341338 
L 431.094212 251.387275 
L 431.820184 255.239242 
L 432.546156 256.524265 
L 433.272127 248.112059 
L 433.998099 260.790655 
L 434.724071 251.744428 
L 435.450042 254.64298 
L 436.176014 250.472198 
L 436.901986 255.844402 
L 437.627958 252.114569 
L 438.353929 251.954639 
L 439.079901 252.33278 
L 439.805873 251.945564 
L 440.531844 258.730974 
L 441.257816 251.585974 
L 441.983788 254.204291 
L 442.709759 252.193811 
L 443.435731 253.141849 
L 444.161703 258.626923 
L 444.887675 254.612042 
L 445.613646 251.489053 
L 446.339618 252.621701 
L 447.06559 251.00924 
L 447.791561 256.981431 
L 448.517533 261.229612 
L 449.243505 251.095975 
L 450.695448 252.065149 
L 451.42142 254.043904 
L 452.147392 253.684427 
L 452.873363 253.10806 
L 453.599335 263.075625 
L 454.325307 252.349055 
L 455.051278 252.342315 
L 455.051278 252.342315 
" style="fill:none;stroke:#d62728;stroke-linecap:square;stroke-width:1.5;"/>
   </g>
   <g id="line2d_5">
    <path clip-path="url(#p86b8473cdd)" d="M 49.233097 255.23168 
L 455.051278 255.23168 
L 455.051278 255.23168 
" style="fill:none;stroke:#000000;stroke-dasharray:3.7,1.6;stroke-dashoffset:0;"/>
   </g>
   <g id="matplotlib.axis_1">
    <g id="xtick_1">
     <g id="line2d_6">
      <defs>
       <path d="M 0 0 
L 0 3.5 
" id="mfd1dcbfbd5" style="stroke:#000000;stroke-width:0.8;"/>
      </defs>
      <g>
       <use style="stroke:#000000;stroke-width:0.8;" x="70.286276" xlink:href="#mfd1dcbfbd5" y="294.118125"/>
      </g>
     </g>
     <g id="text_1">
      <!-- 100 -->
      <defs>
       <path d="M 12.40625 8.296875 
L 28.515625 8.296875 
L 28.515625 63.921875 
L 10.984375 60.40625 
L 10.984375 69.390625 
L 28.421875 72.90625 
L 38.28125 72.90625 
L 38.28125 8.296875 
L 54.390625 8.296875 
L 54.390625 0 
L 12.40625 0 
z
" id="DejaVuSans-49"/>
       <path d="M 31.78125 66.40625 
Q 24.171875 66.40625 20.328125 58.90625 
Q 16.5 51.421875 16.5 36.375 
Q 16.5 21.390625 20.328125 13.890625 
Q 24.171875 6.390625 31.78125 6.390625 
Q 39.453125 6.390625 43.28125 13.890625 
Q 47.125 21.390625 47.125 36.375 
Q 47.125 51.421875 43.28125 58.90625 
Q 39.453125 66.40625 31.78125 66.40625 
z
M 31.78125 74.21875 
Q 44.046875 74.21875 50.515625 64.515625 
Q 56.984375 54.828125 56.984375 36.375 
Q 56.984375 17.96875 50.515625 8.265625 
Q 44.046875 -1.421875 31.78125 -1.421875 
Q 19.53125 -1.421875 13.0625 8.265625 
Q 6.59375 17.96875 6.59375 36.375 
Q 6.59375 54.828125 13.0625 64.515625 
Q 19.53125 74.21875 31.78125 74.21875 
z
" id="DejaVuSans-48"/>
      </defs>
      <g transform="translate(60.742526 308.716563)scale(0.1 -0.1)">
       <use xlink:href="#DejaVuSans-49"/>
       <use x="63.623047" xlink:href="#DejaVuSans-48"/>
       <use x="127.246094" xlink:href="#DejaVuSans-48"/>
      </g>
     </g>
    </g>
    <g id="xtick_2">
     <g id="line2d_7">
      <g>
       <use style="stroke:#000000;stroke-width:0.8;" x="142.883446" xlink:href="#mfd1dcbfbd5" y="294.118125"/>
      </g>
     </g>
     <g id="text_2">
      <!-- 200 -->
      <defs>
       <path d="M 19.1875 8.296875 
L 53.609375 8.296875 
L 53.609375 0 
L 7.328125 0 
L 7.328125 8.296875 
Q 12.9375 14.109375 22.625 23.890625 
Q 32.328125 33.6875 34.8125 36.53125 
Q 39.546875 41.84375 41.421875 45.53125 
Q 43.3125 49.21875 43.3125 52.78125 
Q 43.3125 58.59375 39.234375 62.25 
Q 35.15625 65.921875 28.609375 65.921875 
Q 23.96875 65.921875 18.8125 64.3125 
Q 13.671875 62.703125 7.8125 59.421875 
L 7.8125 69.390625 
Q 13.765625 71.78125 18.9375 73 
Q 24.125 74.21875 28.421875 74.21875 
Q 39.75 74.21875 46.484375 68.546875 
Q 53.21875 62.890625 53.21875 53.421875 
Q 53.21875 48.921875 51.53125 44.890625 
Q 49.859375 40.875 45.40625 35.40625 
Q 44.1875 33.984375 37.640625 27.21875 
Q 31.109375 20.453125 19.1875 8.296875 
z
" id="DejaVuSans-50"/>
      </defs>
      <g transform="translate(133.339696 308.716563)scale(0.1 -0.1)">
       <use xlink:href="#DejaVuSans-50"/>
       <use x="63.623047" xlink:href="#DejaVuSans-48"/>
       <use x="127.246094" xlink:href="#DejaVuSans-48"/>
      </g>
     </g>
    </g>
    <g id="xtick_3">
     <g id="line2d_8">
      <g>
       <use style="stroke:#000000;stroke-width:0.8;" x="215.480617" xlink:href="#mfd1dcbfbd5" y="294.118125"/>
      </g>
     </g>
     <g id="text_3">
      <!-- 300 -->
      <defs>
       <path d="M 40.578125 39.3125 
Q 47.65625 37.796875 51.625 33 
Q 55.609375 28.21875 55.609375 21.1875 
Q 55.609375 10.40625 48.1875 4.484375 
Q 40.765625 -1.421875 27.09375 -1.421875 
Q 22.515625 -1.421875 17.65625 -0.515625 
Q 12.796875 0.390625 7.625 2.203125 
L 7.625 11.71875 
Q 11.71875 9.328125 16.59375 8.109375 
Q 21.484375 6.890625 26.8125 6.890625 
Q 36.078125 6.890625 40.9375 10.546875 
Q 45.796875 14.203125 45.796875 21.1875 
Q 45.796875 27.640625 41.28125 31.265625 
Q 36.765625 34.90625 28.71875 34.90625 
L 20.21875 34.90625 
L 20.21875 43.015625 
L 29.109375 43.015625 
Q 36.375 43.015625 40.234375 45.921875 
Q 44.09375 48.828125 44.09375 54.296875 
Q 44.09375 59.90625 40.109375 62.90625 
Q 36.140625 65.921875 28.71875 65.921875 
Q 24.65625 65.921875 20.015625 65.03125 
Q 15.375 64.15625 9.8125 62.3125 
L 9.8125 71.09375 
Q 15.4375 72.65625 20.34375 73.4375 
Q 25.25 74.21875 29.59375 74.21875 
Q 40.828125 74.21875 47.359375 69.109375 
Q 53.90625 64.015625 53.90625 55.328125 
Q 53.90625 49.265625 50.4375 45.09375 
Q 46.96875 40.921875 40.578125 39.3125 
z
" id="DejaVuSans-51"/>
      </defs>
      <g transform="translate(205.936867 308.716563)scale(0.1 -0.1)">
       <use xlink:href="#DejaVuSans-51"/>
       <use x="63.623047" xlink:href="#DejaVuSans-48"/>
       <use x="127.246094" xlink:href="#DejaVuSans-48"/>
      </g>
     </g>
    </g>
    <g id="xtick_4">
     <g id="line2d_9">
      <g>
       <use style="stroke:#000000;stroke-width:0.8;" x="288.077787" xlink:href="#mfd1dcbfbd5" y="294.118125"/>
      </g>
     </g>
     <g id="text_4">
      <!-- 400 -->
      <defs>
       <path d="M 37.796875 64.3125 
L 12.890625 25.390625 
L 37.796875 25.390625 
z
M 35.203125 72.90625 
L 47.609375 72.90625 
L 47.609375 25.390625 
L 58.015625 25.390625 
L 58.015625 17.1875 
L 47.609375 17.1875 
L 47.609375 0 
L 37.796875 0 
L 37.796875 17.1875 
L 4.890625 17.1875 
L 4.890625 26.703125 
z
" id="DejaVuSans-52"/>
      </defs>
      <g transform="translate(278.534037 308.716563)scale(0.1 -0.1)">
       <use xlink:href="#DejaVuSans-52"/>
       <use x="63.623047" xlink:href="#DejaVuSans-48"/>
       <use x="127.246094" xlink:href="#DejaVuSans-48"/>
      </g>
     </g>
    </g>
    <g id="xtick_5">
     <g id="line2d_10">
      <g>
       <use style="stroke:#000000;stroke-width:0.8;" x="360.674957" xlink:href="#mfd1dcbfbd5" y="294.118125"/>
      </g>
     </g>
     <g id="text_5">
      <!-- 500 -->
      <defs>
       <path d="M 10.796875 72.90625 
L 49.515625 72.90625 
L 49.515625 64.59375 
L 19.828125 64.59375 
L 19.828125 46.734375 
Q 21.96875 47.46875 24.109375 47.828125 
Q 26.265625 48.1875 28.421875 48.1875 
Q 40.625 48.1875 47.75 41.5 
Q 54.890625 34.8125 54.890625 23.390625 
Q 54.890625 11.625 47.5625 5.09375 
Q 40.234375 -1.421875 26.90625 -1.421875 
Q 22.3125 -1.421875 17.546875 -0.640625 
Q 12.796875 0.140625 7.71875 1.703125 
L 7.71875 11.625 
Q 12.109375 9.234375 16.796875 8.0625 
Q 21.484375 6.890625 26.703125 6.890625 
Q 35.15625 6.890625 40.078125 11.328125 
Q 45.015625 15.765625 45.015625 23.390625 
Q 45.015625 31 40.078125 35.4375 
Q 35.15625 39.890625 26.703125 39.890625 
Q 22.75 39.890625 18.8125 39.015625 
Q 14.890625 38.140625 10.796875 36.28125 
z
" id="DejaVuSans-53"/>
      </defs>
      <g transform="translate(351.131207 308.716563)scale(0.1 -0.1)">
       <use xlink:href="#DejaVuSans-53"/>
       <use x="63.623047" xlink:href="#DejaVuSans-48"/>
       <use x="127.246094" xlink:href="#DejaVuSans-48"/>
      </g>
     </g>
    </g>
    <g id="xtick_6">
     <g id="line2d_11">
      <g>
       <use style="stroke:#000000;stroke-width:0.8;" x="433.272127" xlink:href="#mfd1dcbfbd5" y="294.118125"/>
      </g>
     </g>
     <g id="text_6">
      <!-- 600 -->
      <defs>
       <path d="M 33.015625 40.375 
Q 26.375 40.375 22.484375 35.828125 
Q 18.609375 31.296875 18.609375 23.390625 
Q 18.609375 15.53125 22.484375 10.953125 
Q 26.375 6.390625 33.015625 6.390625 
Q 39.65625 6.390625 43.53125 10.953125 
Q 47.40625 15.53125 47.40625 23.390625 
Q 47.40625 31.296875 43.53125 35.828125 
Q 39.65625 40.375 33.015625 40.375 
z
M 52.59375 71.296875 
L 52.59375 62.3125 
Q 48.875 64.0625 45.09375 64.984375 
Q 41.3125 65.921875 37.59375 65.921875 
Q 27.828125 65.921875 22.671875 59.328125 
Q 17.53125 52.734375 16.796875 39.40625 
Q 19.671875 43.65625 24.015625 45.921875 
Q 28.375 48.1875 33.59375 48.1875 
Q 44.578125 48.1875 50.953125 41.515625 
Q 57.328125 34.859375 57.328125 23.390625 
Q 57.328125 12.15625 50.6875 5.359375 
Q 44.046875 -1.421875 33.015625 -1.421875 
Q 20.359375 -1.421875 13.671875 8.265625 
Q 6.984375 17.96875 6.984375 36.375 
Q 6.984375 53.65625 15.1875 63.9375 
Q 23.390625 74.21875 37.203125 74.21875 
Q 40.921875 74.21875 44.703125 73.484375 
Q 48.484375 72.75 52.59375 71.296875 
z
" id="DejaVuSans-54"/>
      </defs>
      <g transform="translate(423.728377 308.716563)scale(0.1 -0.1)">
       <use xlink:href="#DejaVuSans-54"/>
       <use x="63.623047" xlink:href="#DejaVuSans-48"/>
       <use x="127.246094" xlink:href="#DejaVuSans-48"/>
      </g>
     </g>
    </g>
    <g id="text_7">
     <!-- Tempo -->
     <defs>
      <path d="M -0.296875 72.90625 
L 61.375 72.90625 
L 61.375 64.59375 
L 35.5 64.59375 
L 35.5 0 
L 25.59375 0 
L 25.59375 64.59375 
L -0.296875 64.59375 
z
" id="DejaVuSans-84"/>
      <path d="M 56.203125 29.59375 
L 56.203125 25.203125 
L 14.890625 25.203125 
Q 15.484375 15.921875 20.484375 11.0625 
Q 25.484375 6.203125 34.421875 6.203125 
Q 39.59375 6.203125 44.453125 7.46875 
Q 49.3125 8.734375 54.109375 11.28125 
L 54.109375 2.78125 
Q 49.265625 0.734375 44.1875 -0.34375 
Q 39.109375 -1.421875 33.890625 -1.421875 
Q 20.796875 -1.421875 13.15625 6.1875 
Q 5.515625 13.8125 5.515625 26.8125 
Q 5.515625 40.234375 12.765625 48.109375 
Q 20.015625 56 32.328125 56 
Q 43.359375 56 49.78125 48.890625 
Q 56.203125 41.796875 56.203125 29.59375 
z
M 47.21875 32.234375 
Q 47.125 39.59375 43.09375 43.984375 
Q 39.0625 48.390625 32.421875 48.390625 
Q 24.90625 48.390625 20.390625 44.140625 
Q 15.875 39.890625 15.1875 32.171875 
z
" id="DejaVuSans-101"/>
      <path d="M 52 44.1875 
Q 55.375 50.25 60.0625 53.125 
Q 64.75 56 71.09375 56 
Q 79.640625 56 84.28125 50.015625 
Q 88.921875 44.046875 88.921875 33.015625 
L 88.921875 0 
L 79.890625 0 
L 79.890625 32.71875 
Q 79.890625 40.578125 77.09375 44.375 
Q 74.3125 48.1875 68.609375 48.1875 
Q 61.625 48.1875 57.5625 43.546875 
Q 53.515625 38.921875 53.515625 30.90625 
L 53.515625 0 
L 44.484375 0 
L 44.484375 32.71875 
Q 44.484375 40.625 41.703125 44.40625 
Q 38.921875 48.1875 33.109375 48.1875 
Q 26.21875 48.1875 22.15625 43.53125 
Q 18.109375 38.875 18.109375 30.90625 
L 18.109375 0 
L 9.078125 0 
L 9.078125 54.6875 
L 18.109375 54.6875 
L 18.109375 46.1875 
Q 21.1875 51.21875 25.484375 53.609375 
Q 29.78125 56 35.6875 56 
Q 41.65625 56 45.828125 52.96875 
Q 50 49.953125 52 44.1875 
z
" id="DejaVuSans-109"/>
      <path d="M 18.109375 8.203125 
L 18.109375 -20.796875 
L 9.078125 -20.796875 
L 9.078125 54.6875 
L 18.109375 54.6875 
L 18.109375 46.390625 
Q 20.953125 51.265625 25.265625 53.625 
Q 29.59375 56 35.59375 56 
Q 45.5625 56 51.78125 48.09375 
Q 58.015625 40.1875 58.015625 27.296875 
Q 58.015625 14.40625 51.78125 6.484375 
Q 45.5625 -1.421875 35.59375 -1.421875 
Q 29.59375 -1.421875 25.265625 0.953125 
Q 20.953125 3.328125 18.109375 8.203125 
z
M 48.6875 27.296875 
Q 48.6875 37.203125 44.609375 42.84375 
Q 40.53125 48.484375 33.40625 48.484375 
Q 26.265625 48.484375 22.1875 42.84375 
Q 18.109375 37.203125 18.109375 27.296875 
Q 18.109375 17.390625 22.1875 11.75 
Q 26.265625 6.109375 33.40625 6.109375 
Q 40.53125 6.109375 44.609375 11.75 
Q 48.6875 17.390625 48.6875 27.296875 
z
" id="DejaVuSans-112"/>
      <path d="M 30.609375 48.390625 
Q 23.390625 48.390625 19.1875 42.75 
Q 14.984375 37.109375 14.984375 27.296875 
Q 14.984375 17.484375 19.15625 11.84375 
Q 23.34375 6.203125 30.609375 6.203125 
Q 37.796875 6.203125 41.984375 11.859375 
Q 46.1875 17.53125 46.1875 27.296875 
Q 46.1875 37.015625 41.984375 42.703125 
Q 37.796875 48.390625 30.609375 48.390625 
z
M 30.609375 56 
Q 42.328125 56 49.015625 48.375 
Q 55.71875 40.765625 55.71875 27.296875 
Q 55.71875 13.875 49.015625 6.21875 
Q 42.328125 -1.421875 30.609375 -1.421875 
Q 18.84375 -1.421875 12.171875 6.21875 
Q 5.515625 13.875 5.515625 27.296875 
Q 5.515625 40.765625 12.171875 48.375 
Q 18.84375 56 30.609375 56 
z
" id="DejaVuSans-111"/>
     </defs>
     <g transform="translate(235.757812 322.394687)scale(0.1 -0.1)">
      <use xlink:href="#DejaVuSans-84"/>
      <use x="44.083984" xlink:href="#DejaVuSans-101"/>
      <use x="105.607422" xlink:href="#DejaVuSans-109"/>
      <use x="203.019531" xlink:href="#DejaVuSans-112"/>
      <use x="266.496094" xlink:href="#DejaVuSans-111"/>
     </g>
    </g>
   </g>
   <g id="matplotlib.axis_2">
    <g id="ytick_1">
     <g id="line2d_12">
      <defs>
       <path d="M 0 0 
L -3.5 0 
" id="m6307d02641" style="stroke:#000000;stroke-width:0.8;"/>
      </defs>
      <g>
       <use style="stroke:#000000;stroke-width:0.8;" x="28.942188" xlink:href="#m6307d02641" y="285.947775"/>
      </g>
     </g>
     <g id="text_8">
      <!-- 1 -->
      <defs>
       <path d="M 10.59375 35.5 
L 73.1875 35.5 
L 73.1875 27.203125 
L 10.59375 27.203125 
z
" id="DejaVuSans-8722"/>
      </defs>
      <g transform="translate(7.2 289.746994)scale(0.1 -0.1)">
       <use xlink:href="#DejaVuSans-8722"/>
       <use x="83.789062" xlink:href="#DejaVuSans-49"/>
      </g>
     </g>
    </g>
    <g id="ytick_2">
     <g id="line2d_13">
      <g>
       <use style="stroke:#000000;stroke-width:0.8;" x="28.942188" xlink:href="#m6307d02641" y="255.23168"/>
      </g>
     </g>
     <g id="text_9">
      <!-- 0 -->
      <g transform="translate(15.579688 259.030898)scale(0.1 -0.1)">
       <use xlink:href="#DejaVuSans-48"/>
      </g>
     </g>
    </g>
    <g id="ytick_3">
     <g id="line2d_14">
      <g>
       <use style="stroke:#000000;stroke-width:0.8;" x="28.942188" xlink:href="#m6307d02641" y="224.515584"/>
      </g>
     </g>
     <g id="text_10">
      <!-- 1 -->
      <g transform="translate(15.579688 228.314803)scale(0.1 -0.1)">
       <use xlink:href="#DejaVuSans-49"/>
      </g>
     </g>
    </g>
    <g id="ytick_4">
     <g id="line2d_15">
      <g>
       <use style="stroke:#000000;stroke-width:0.8;" x="28.942188" xlink:href="#m6307d02641" y="193.799489"/>
      </g>
     </g>
     <g id="text_11">
      <!-- 2 -->
      <g transform="translate(15.579688 197.598708)scale(0.1 -0.1)">
       <use xlink:href="#DejaVuSans-50"/>
      </g>
     </g>
    </g>
    <g id="ytick_5">
     <g id="line2d_16">
      <g>
       <use style="stroke:#000000;stroke-width:0.8;" x="28.942188" xlink:href="#m6307d02641" y="163.083393"/>
      </g>
     </g>
     <g id="text_12">
      <!-- 3 -->
      <g transform="translate(15.579688 166.882612)scale(0.1 -0.1)">
       <use xlink:href="#DejaVuSans-51"/>
      </g>
     </g>
    </g>
    <g id="ytick_6">
     <g id="line2d_17">
      <g>
       <use style="stroke:#000000;stroke-width:0.8;" x="28.942188" xlink:href="#m6307d02641" y="132.367298"/>
      </g>
     </g>
     <g id="text_13">
      <!-- 4 -->
      <g transform="translate(15.579688 136.166517)scale(0.1 -0.1)">
       <use xlink:href="#DejaVuSans-52"/>
      </g>
     </g>
    </g>
    <g id="ytick_7">
     <g id="line2d_18">
      <g>
       <use style="stroke:#000000;stroke-width:0.8;" x="28.942188" xlink:href="#m6307d02641" y="101.651203"/>
      </g>
     </g>
     <g id="text_14">
      <!-- 5 -->
      <g transform="translate(15.579688 105.450421)scale(0.1 -0.1)">
       <use xlink:href="#DejaVuSans-53"/>
      </g>
     </g>
    </g>
    <g id="ytick_8">
     <g id="line2d_19">
      <g>
       <use style="stroke:#000000;stroke-width:0.8;" x="28.942188" xlink:href="#m6307d02641" y="70.935107"/>
      </g>
     </g>
     <g id="text_15">
      <!-- 6 -->
      <g transform="translate(15.579688 74.734326)scale(0.1 -0.1)">
       <use xlink:href="#DejaVuSans-54"/>
      </g>
     </g>
    </g>
    <g id="ytick_9">
     <g id="line2d_20">
      <g>
       <use style="stroke:#000000;stroke-width:0.8;" x="28.942188" xlink:href="#m6307d02641" y="40.219012"/>
      </g>
     </g>
     <g id="text_16">
      <!-- 7 -->
      <defs>
       <path d="M 8.203125 72.90625 
L 55.078125 72.90625 
L 55.078125 68.703125 
L 28.609375 0 
L 18.3125 0 
L 43.21875 64.59375 
L 8.203125 64.59375 
z
" id="DejaVuSans-55"/>
      </defs>
      <g transform="translate(15.579688 44.01823)scale(0.1 -0.1)">
       <use xlink:href="#DejaVuSans-55"/>
      </g>
     </g>
    </g>
   </g>
   <g id="patch_3">
    <path d="M 28.942188 294.118125 
L 28.942188 22.318125 
" style="fill:none;stroke:#000000;stroke-linecap:square;stroke-linejoin:miter;stroke-width:0.8;"/>
   </g>
   <g id="patch_4">
    <path d="M 28.942188 294.118125 
L 475.342187 294.118125 
" style="fill:none;stroke:#000000;stroke-linecap:square;stroke-linejoin:miter;stroke-width:0.8;"/>
   </g>
   <g id="text_17">
    <!-- Tax_Total -->
    <defs>
     <path d="M 34.28125 27.484375 
Q 23.390625 27.484375 19.1875 25 
Q 14.984375 22.515625 14.984375 16.5 
Q 14.984375 11.71875 18.140625 8.90625 
Q 21.296875 6.109375 26.703125 6.109375 
Q 34.1875 6.109375 38.703125 11.40625 
Q 43.21875 16.703125 43.21875 25.484375 
L 43.21875 27.484375 
z
M 52.203125 31.203125 
L 52.203125 0 
L 43.21875 0 
L 43.21875 8.296875 
Q 40.140625 3.328125 35.546875 0.953125 
Q 30.953125 -1.421875 24.3125 -1.421875 
Q 15.921875 -1.421875 10.953125 3.296875 
Q 6 8.015625 6 15.921875 
Q 6 25.140625 12.171875 29.828125 
Q 18.359375 34.515625 30.609375 34.515625 
L 43.21875 34.515625 
L 43.21875 35.40625 
Q 43.21875 41.609375 39.140625 45 
Q 35.0625 48.390625 27.6875 48.390625 
Q 23 48.390625 18.546875 47.265625 
Q 14.109375 46.140625 10.015625 43.890625 
L 10.015625 52.203125 
Q 14.9375 54.109375 19.578125 55.046875 
Q 24.21875 56 28.609375 56 
Q 40.484375 56 46.34375 49.84375 
Q 52.203125 43.703125 52.203125 31.203125 
z
" id="DejaVuSans-97"/>
     <path d="M 54.890625 54.6875 
L 35.109375 28.078125 
L 55.90625 0 
L 45.3125 0 
L 29.390625 21.484375 
L 13.484375 0 
L 2.875 0 
L 24.125 28.609375 
L 4.6875 54.6875 
L 15.28125 54.6875 
L 29.78125 35.203125 
L 44.28125 54.6875 
z
" id="DejaVuSans-120"/>
     <path d="M 50.984375 -16.609375 
L 50.984375 -23.578125 
L -0.984375 -23.578125 
L -0.984375 -16.609375 
z
" id="DejaVuSans-95"/>
     <path d="M 18.3125 70.21875 
L 18.3125 54.6875 
L 36.8125 54.6875 
L 36.8125 47.703125 
L 18.3125 47.703125 
L 18.3125 18.015625 
Q 18.3125 11.328125 20.140625 9.421875 
Q 21.96875 7.515625 27.59375 7.515625 
L 36.8125 7.515625 
L 36.8125 0 
L 27.59375 0 
Q 17.1875 0 13.234375 3.875 
Q 9.28125 7.765625 9.28125 18.015625 
L 9.28125 47.703125 
L 2.6875 47.703125 
L 2.6875 54.6875 
L 9.28125 54.6875 
L 9.28125 70.21875 
z
" id="DejaVuSans-116"/>
     <path d="M 9.421875 75.984375 
L 18.40625 75.984375 
L 18.40625 0 
L 9.421875 0 
z
" id="DejaVuSans-108"/>
    </defs>
    <g transform="translate(225.2275 16.318125)scale(0.12 -0.12)">
     <use xlink:href="#DejaVuSans-84"/>
     <use x="44.583984" xlink:href="#DejaVuSans-97"/>
     <use x="105.863281" xlink:href="#DejaVuSans-120"/>
     <use x="165.042969" xlink:href="#DejaVuSans-95"/>
     <use x="215.042969" xlink:href="#DejaVuSans-84"/>
     <use x="259.126953" xlink:href="#DejaVuSans-111"/>
     <use x="320.308594" xlink:href="#DejaVuSans-116"/>
     <use x="359.517578" xlink:href="#DejaVuSans-97"/>
     <use x="420.796875" xlink:href="#DejaVuSans-108"/>
    </g>
   </g>
   <g id="legend_1">
    <g id="patch_5">
     <path d="M 482.342187 196.413438 
L 615.901562 196.413438 
Q 617.901562 196.413438 617.901562 194.413438 
L 617.901562 122.022813 
Q 617.901562 120.022813 615.901562 120.022813 
L 482.342187 120.022813 
Q 480.342187 120.022813 480.342187 122.022813 
L 480.342187 194.413438 
Q 480.342187 196.413438 482.342187 196.413438 
z
" style="fill:#ffffff;opacity:0.8;stroke:#cccccc;stroke-linejoin:miter;"/>
    </g>
    <g id="line2d_21">
     <path d="M 484.342187 128.12125 
L 504.342187 128.12125 
" style="fill:none;stroke:#000000;stroke-dasharray:3.7,1.6;stroke-dashoffset:0;"/>
    </g>
    <g id="line2d_22"/>
    <g id="text_18">
     <!-- Baseline -->
     <defs>
      <path d="M 19.671875 34.8125 
L 19.671875 8.109375 
L 35.5 8.109375 
Q 43.453125 8.109375 47.28125 11.40625 
Q 51.125 14.703125 51.125 21.484375 
Q 51.125 28.328125 47.28125 31.5625 
Q 43.453125 34.8125 35.5 34.8125 
z
M 19.671875 64.796875 
L 19.671875 42.828125 
L 34.28125 42.828125 
Q 41.5 42.828125 45.03125 45.53125 
Q 48.578125 48.25 48.578125 53.8125 
Q 48.578125 59.328125 45.03125 62.0625 
Q 41.5 64.796875 34.28125 64.796875 
z
M 9.8125 72.90625 
L 35.015625 72.90625 
Q 46.296875 72.90625 52.390625 68.21875 
Q 58.5 63.53125 58.5 54.890625 
Q 58.5 48.1875 55.375 44.234375 
Q 52.25 40.28125 46.1875 39.3125 
Q 53.46875 37.75 57.5 32.78125 
Q 61.53125 27.828125 61.53125 20.40625 
Q 61.53125 10.640625 54.890625 5.3125 
Q 48.25 0 35.984375 0 
L 9.8125 0 
z
" id="DejaVuSans-66"/>
      <path d="M 44.28125 53.078125 
L 44.28125 44.578125 
Q 40.484375 46.53125 36.375 47.5 
Q 32.28125 48.484375 27.875 48.484375 
Q 21.1875 48.484375 17.84375 46.4375 
Q 14.5 44.390625 14.5 40.28125 
Q 14.5 37.15625 16.890625 35.375 
Q 19.28125 33.59375 26.515625 31.984375 
L 29.59375 31.296875 
Q 39.15625 29.25 43.1875 25.515625 
Q 47.21875 21.78125 47.21875 15.09375 
Q 47.21875 7.46875 41.1875 3.015625 
Q 35.15625 -1.421875 24.609375 -1.421875 
Q 20.21875 -1.421875 15.453125 -0.5625 
Q 10.6875 0.296875 5.421875 2 
L 5.421875 11.28125 
Q 10.40625 8.6875 15.234375 7.390625 
Q 20.0625 6.109375 24.8125 6.109375 
Q 31.15625 6.109375 34.5625 8.28125 
Q 37.984375 10.453125 37.984375 14.40625 
Q 37.984375 18.0625 35.515625 20.015625 
Q 33.0625 21.96875 24.703125 23.78125 
L 21.578125 24.515625 
Q 13.234375 26.265625 9.515625 29.90625 
Q 5.8125 33.546875 5.8125 39.890625 
Q 5.8125 47.609375 11.28125 51.796875 
Q 16.75 56 26.8125 56 
Q 31.78125 56 36.171875 55.265625 
Q 40.578125 54.546875 44.28125 53.078125 
z
" id="DejaVuSans-115"/>
      <path d="M 9.421875 54.6875 
L 18.40625 54.6875 
L 18.40625 0 
L 9.421875 0 
z
M 9.421875 75.984375 
L 18.40625 75.984375 
L 18.40625 64.59375 
L 9.421875 64.59375 
z
" id="DejaVuSans-105"/>
      <path d="M 54.890625 33.015625 
L 54.890625 0 
L 45.90625 0 
L 45.90625 32.71875 
Q 45.90625 40.484375 42.875 44.328125 
Q 39.84375 48.1875 33.796875 48.1875 
Q 26.515625 48.1875 22.3125 43.546875 
Q 18.109375 38.921875 18.109375 30.90625 
L 18.109375 0 
L 9.078125 0 
L 9.078125 54.6875 
L 18.109375 54.6875 
L 18.109375 46.1875 
Q 21.34375 51.125 25.703125 53.5625 
Q 30.078125 56 35.796875 56 
Q 45.21875 56 50.046875 50.171875 
Q 54.890625 44.34375 54.890625 33.015625 
z
" id="DejaVuSans-110"/>
     </defs>
     <g transform="translate(512.342187 131.62125)scale(0.1 -0.1)">
      <use xlink:href="#DejaVuSans-66"/>
      <use x="68.603516" xlink:href="#DejaVuSans-97"/>
      <use x="129.882812" xlink:href="#DejaVuSans-115"/>
      <use x="181.982422" xlink:href="#DejaVuSans-101"/>
      <use x="243.505859" xlink:href="#DejaVuSans-108"/>
      <use x="271.289062" xlink:href="#DejaVuSans-105"/>
      <use x="299.072266" xlink:href="#DejaVuSans-110"/>
      <use x="362.451172" xlink:href="#DejaVuSans-101"/>
     </g>
    </g>
    <g id="line2d_23">
     <path d="M 484.342187 142.799375 
L 504.342187 142.799375 
" style="fill:none;stroke:#1f77b4;stroke-linecap:square;stroke-width:1.5;"/>
    </g>
    <g id="line2d_24"/>
    <g id="text_19">
     <!-- $\Uparrow$ acesso crdito -->
     <defs>
      <path d="M 36.765625 58.59375 
L 36.765625 0 
L 30.90625 0 
L 30.90625 52.734375 
L 26.421875 48.140625 
L 20.5625 54 
L 39.703125 73.25 
L 44.09375 73.25 
L 63.328125 54 
L 57.46875 48.140625 
L 52.875 52.734375 
L 52.875 0 
L 47.015625 0 
L 47.015625 58.59375 
L 41.9375 63.671875 
z
" id="DejaVuSans-8657"/>
      <path id="DejaVuSans-32"/>
      <path d="M 48.78125 52.59375 
L 48.78125 44.1875 
Q 44.96875 46.296875 41.140625 47.34375 
Q 37.3125 48.390625 33.40625 48.390625 
Q 24.65625 48.390625 19.8125 42.84375 
Q 14.984375 37.3125 14.984375 27.296875 
Q 14.984375 17.28125 19.8125 11.734375 
Q 24.65625 6.203125 33.40625 6.203125 
Q 37.3125 6.203125 41.140625 7.25 
Q 44.96875 8.296875 48.78125 10.40625 
L 48.78125 2.09375 
Q 45.015625 0.34375 40.984375 -0.53125 
Q 36.96875 -1.421875 32.421875 -1.421875 
Q 20.0625 -1.421875 12.78125 6.34375 
Q 5.515625 14.109375 5.515625 27.296875 
Q 5.515625 40.671875 12.859375 48.328125 
Q 20.21875 56 33.015625 56 
Q 37.15625 56 41.109375 55.140625 
Q 45.0625 54.296875 48.78125 52.59375 
z
" id="DejaVuSans-99"/>
      <path d="M 41.109375 46.296875 
Q 39.59375 47.171875 37.8125 47.578125 
Q 36.03125 48 33.890625 48 
Q 26.265625 48 22.1875 43.046875 
Q 18.109375 38.09375 18.109375 28.8125 
L 18.109375 0 
L 9.078125 0 
L 9.078125 54.6875 
L 18.109375 54.6875 
L 18.109375 46.1875 
Q 20.953125 51.171875 25.484375 53.578125 
Q 30.03125 56 36.53125 56 
Q 37.453125 56 38.578125 55.875 
Q 39.703125 55.765625 41.0625 55.515625 
z
" id="DejaVuSans-114"/>
      <path d="M 56.203125 29.59375 
L 56.203125 25.203125 
L 14.890625 25.203125 
Q 15.484375 15.921875 20.484375 11.0625 
Q 25.484375 6.203125 34.421875 6.203125 
Q 39.59375 6.203125 44.453125 7.46875 
Q 49.3125 8.734375 54.109375 11.28125 
L 54.109375 2.78125 
Q 49.265625 0.734375 44.1875 -0.34375 
Q 39.109375 -1.421875 33.890625 -1.421875 
Q 20.796875 -1.421875 13.15625 6.1875 
Q 5.515625 13.8125 5.515625 26.8125 
Q 5.515625 40.234375 12.765625 48.109375 
Q 20.015625 56 32.328125 56 
Q 43.359375 56 49.78125 48.890625 
Q 56.203125 41.796875 56.203125 29.59375 
z
M 47.21875 32.234375 
Q 47.125 39.59375 43.09375 43.984375 
Q 39.0625 48.390625 32.421875 48.390625 
Q 24.90625 48.390625 20.390625 44.140625 
Q 15.875 39.890625 15.1875 32.171875 
z
M 38.53125 79.984375 
L 48.25 79.984375 
L 32.34375 61.625 
L 24.859375 61.625 
z
" id="DejaVuSans-233"/>
      <path d="M 45.40625 46.390625 
L 45.40625 75.984375 
L 54.390625 75.984375 
L 54.390625 0 
L 45.40625 0 
L 45.40625 8.203125 
Q 42.578125 3.328125 38.25 0.953125 
Q 33.9375 -1.421875 27.875 -1.421875 
Q 17.96875 -1.421875 11.734375 6.484375 
Q 5.515625 14.40625 5.515625 27.296875 
Q 5.515625 40.1875 11.734375 48.09375 
Q 17.96875 56 27.875 56 
Q 33.9375 56 38.25 53.625 
Q 42.578125 51.265625 45.40625 46.390625 
z
M 14.796875 27.296875 
Q 14.796875 17.390625 18.875 11.75 
Q 22.953125 6.109375 30.078125 6.109375 
Q 37.203125 6.109375 41.296875 11.75 
Q 45.40625 17.390625 45.40625 27.296875 
Q 45.40625 37.203125 41.296875 42.84375 
Q 37.203125 48.484375 30.078125 48.484375 
Q 22.953125 48.484375 18.875 42.84375 
Q 14.796875 37.203125 14.796875 27.296875 
z
" id="DejaVuSans-100"/>
     </defs>
     <g transform="translate(512.342187 146.299375)scale(0.1 -0.1)">
      <use transform="translate(19.482422 0.015625)" xlink:href="#DejaVuSans-8657"/>
      <use transform="translate(122.753906 0.015625)" xlink:href="#DejaVuSans-32"/>
      <use transform="translate(154.541016 0.015625)" xlink:href="#DejaVuSans-97"/>
      <use transform="translate(215.820312 0.015625)" xlink:href="#DejaVuSans-99"/>
      <use transform="translate(270.800781 0.015625)" xlink:href="#DejaVuSans-101"/>
      <use transform="translate(332.324219 0.015625)" xlink:href="#DejaVuSans-115"/>
      <use transform="translate(384.423828 0.015625)" xlink:href="#DejaVuSans-115"/>
      <use transform="translate(436.523438 0.015625)" xlink:href="#DejaVuSans-111"/>
      <use transform="translate(497.705078 0.015625)" xlink:href="#DejaVuSans-32"/>
      <use transform="translate(529.492188 0.015625)" xlink:href="#DejaVuSans-99"/>
      <use transform="translate(584.472656 0.015625)" xlink:href="#DejaVuSans-114"/>
      <use transform="translate(625.585938 0.015625)" xlink:href="#DejaVuSans-233"/>
      <use transform="translate(687.109375 0.015625)" xlink:href="#DejaVuSans-100"/>
      <use transform="translate(750.585938 0.015625)" xlink:href="#DejaVuSans-105"/>
      <use transform="translate(778.369141 0.015625)" xlink:href="#DejaVuSans-116"/>
      <use transform="translate(817.578125 0.015625)" xlink:href="#DejaVuSans-111"/>
     </g>
    </g>
    <g id="line2d_25">
     <path d="M 484.342187 157.4775 
L 504.342187 157.4775 
" style="fill:none;stroke:#ff7f0e;stroke-linecap:square;stroke-width:1.5;"/>
    </g>
    <g id="line2d_26"/>
    <g id="text_20">
     <!-- Sem renda bsica -->
     <defs>
      <path d="M 53.515625 70.515625 
L 53.515625 60.890625 
Q 47.90625 63.578125 42.921875 64.890625 
Q 37.9375 66.21875 33.296875 66.21875 
Q 25.25 66.21875 20.875 63.09375 
Q 16.5 59.96875 16.5 54.203125 
Q 16.5 49.359375 19.40625 46.890625 
Q 22.3125 44.4375 30.421875 42.921875 
L 36.375 41.703125 
Q 47.40625 39.59375 52.65625 34.296875 
Q 57.90625 29 57.90625 20.125 
Q 57.90625 9.515625 50.796875 4.046875 
Q 43.703125 -1.421875 29.984375 -1.421875 
Q 24.8125 -1.421875 18.96875 -0.25 
Q 13.140625 0.921875 6.890625 3.21875 
L 6.890625 13.375 
Q 12.890625 10.015625 18.65625 8.296875 
Q 24.421875 6.59375 29.984375 6.59375 
Q 38.421875 6.59375 43.015625 9.90625 
Q 47.609375 13.234375 47.609375 19.390625 
Q 47.609375 24.75 44.3125 27.78125 
Q 41.015625 30.8125 33.5 32.328125 
L 27.484375 33.5 
Q 16.453125 35.6875 11.515625 40.375 
Q 6.59375 45.0625 6.59375 53.421875 
Q 6.59375 63.09375 13.40625 68.65625 
Q 20.21875 74.21875 32.171875 74.21875 
Q 37.3125 74.21875 42.625 73.28125 
Q 47.953125 72.359375 53.515625 70.515625 
z
" id="DejaVuSans-83"/>
      <path d="M 48.6875 27.296875 
Q 48.6875 37.203125 44.609375 42.84375 
Q 40.53125 48.484375 33.40625 48.484375 
Q 26.265625 48.484375 22.1875 42.84375 
Q 18.109375 37.203125 18.109375 27.296875 
Q 18.109375 17.390625 22.1875 11.75 
Q 26.265625 6.109375 33.40625 6.109375 
Q 40.53125 6.109375 44.609375 11.75 
Q 48.6875 17.390625 48.6875 27.296875 
z
M 18.109375 46.390625 
Q 20.953125 51.265625 25.265625 53.625 
Q 29.59375 56 35.59375 56 
Q 45.5625 56 51.78125 48.09375 
Q 58.015625 40.1875 58.015625 27.296875 
Q 58.015625 14.40625 51.78125 6.484375 
Q 45.5625 -1.421875 35.59375 -1.421875 
Q 29.59375 -1.421875 25.265625 0.953125 
Q 20.953125 3.328125 18.109375 8.203125 
L 18.109375 0 
L 9.078125 0 
L 9.078125 75.984375 
L 18.109375 75.984375 
z
" id="DejaVuSans-98"/>
      <path d="M 34.28125 27.484375 
Q 23.390625 27.484375 19.1875 25 
Q 14.984375 22.515625 14.984375 16.5 
Q 14.984375 11.71875 18.140625 8.90625 
Q 21.296875 6.109375 26.703125 6.109375 
Q 34.1875 6.109375 38.703125 11.40625 
Q 43.21875 16.703125 43.21875 25.484375 
L 43.21875 27.484375 
z
M 52.203125 31.203125 
L 52.203125 0 
L 43.21875 0 
L 43.21875 8.296875 
Q 40.140625 3.328125 35.546875 0.953125 
Q 30.953125 -1.421875 24.3125 -1.421875 
Q 15.921875 -1.421875 10.953125 3.296875 
Q 6 8.015625 6 15.921875 
Q 6 25.140625 12.171875 29.828125 
Q 18.359375 34.515625 30.609375 34.515625 
L 43.21875 34.515625 
L 43.21875 35.40625 
Q 43.21875 41.609375 39.140625 45 
Q 35.0625 48.390625 27.6875 48.390625 
Q 23 48.390625 18.546875 47.265625 
Q 14.109375 46.140625 10.015625 43.890625 
L 10.015625 52.203125 
Q 14.9375 54.109375 19.578125 55.046875 
Q 24.21875 56 28.609375 56 
Q 40.484375 56 46.34375 49.84375 
Q 52.203125 43.703125 52.203125 31.203125 
z
M 35.78125 79.984375 
L 45.5 79.984375 
L 29.59375 61.625 
L 22.109375 61.625 
z
" id="DejaVuSans-225"/>
     </defs>
     <g transform="translate(512.342187 160.9775)scale(0.1 -0.1)">
      <use xlink:href="#DejaVuSans-83"/>
      <use x="63.476562" xlink:href="#DejaVuSans-101"/>
      <use x="125" xlink:href="#DejaVuSans-109"/>
      <use x="222.412109" xlink:href="#DejaVuSans-32"/>
      <use x="254.199219" xlink:href="#DejaVuSans-114"/>
      <use x="293.0625" xlink:href="#DejaVuSans-101"/>
      <use x="354.585938" xlink:href="#DejaVuSans-110"/>
      <use x="417.964844" xlink:href="#DejaVuSans-100"/>
      <use x="481.441406" xlink:href="#DejaVuSans-97"/>
      <use x="542.720703" xlink:href="#DejaVuSans-32"/>
      <use x="574.507812" xlink:href="#DejaVuSans-98"/>
      <use x="637.984375" xlink:href="#DejaVuSans-225"/>
      <use x="699.263672" xlink:href="#DejaVuSans-115"/>
      <use x="751.363281" xlink:href="#DejaVuSans-105"/>
      <use x="779.146484" xlink:href="#DejaVuSans-99"/>
      <use x="834.126953" xlink:href="#DejaVuSans-97"/>
     </g>
    </g>
    <g id="line2d_27">
     <path d="M 484.342187 172.155625 
L 504.342187 172.155625 
" style="fill:none;stroke:#2ca02c;stroke-linecap:square;stroke-width:1.5;"/>
    </g>
    <g id="line2d_28"/>
    <g id="text_21">
     <!-- $\Uparrow$ salrio mnimo -->
     <defs>
      <path d="M 20.65625 79.984375 
L 30.375 79.984375 
L 14.46875 61.625 
L 6.984375 61.625 
z
M 9.421875 54.6875 
L 18.40625 54.6875 
L 18.40625 0 
L 9.421875 0 
z
M 13.921875 56 
z
" id="DejaVuSans-237"/>
     </defs>
     <g transform="translate(512.342187 175.655625)scale(0.1 -0.1)">
      <use transform="translate(19.482422 0.015625)" xlink:href="#DejaVuSans-8657"/>
      <use transform="translate(122.753906 0.015625)" xlink:href="#DejaVuSans-32"/>
      <use transform="translate(154.541016 0.015625)" xlink:href="#DejaVuSans-115"/>
      <use transform="translate(206.640625 0.015625)" xlink:href="#DejaVuSans-97"/>
      <use transform="translate(267.919922 0.015625)" xlink:href="#DejaVuSans-108"/>
      <use transform="translate(295.703125 0.015625)" xlink:href="#DejaVuSans-225"/>
      <use transform="translate(356.982422 0.015625)" xlink:href="#DejaVuSans-114"/>
      <use transform="translate(398.095703 0.015625)" xlink:href="#DejaVuSans-105"/>
      <use transform="translate(425.878906 0.015625)" xlink:href="#DejaVuSans-111"/>
      <use transform="translate(487.060547 0.015625)" xlink:href="#DejaVuSans-32"/>
      <use transform="translate(518.847656 0.015625)" xlink:href="#DejaVuSans-109"/>
      <use transform="translate(616.259766 0.015625)" xlink:href="#DejaVuSans-237"/>
      <use transform="translate(644.042969 0.015625)" xlink:href="#DejaVuSans-110"/>
      <use transform="translate(707.421875 0.015625)" xlink:href="#DejaVuSans-105"/>
      <use transform="translate(735.205078 0.015625)" xlink:href="#DejaVuSans-109"/>
      <use transform="translate(832.617188 0.015625)" xlink:href="#DejaVuSans-111"/>
     </g>
    </g>
    <g id="line2d_29">
     <path d="M 484.342187 186.83375 
L 504.342187 186.83375 
" style="fill:none;stroke:#d62728;stroke-linecap:square;stroke-width:1.5;"/>
    </g>
    <g id="line2d_30"/>
    <g id="text_22">
     <!-- Imposto progressivo -->
     <defs>
      <path d="M 9.8125 72.90625 
L 19.671875 72.90625 
L 19.671875 0 
L 9.8125 0 
z
" id="DejaVuSans-73"/>
      <path d="M 45.40625 27.984375 
Q 45.40625 37.75 41.375 43.109375 
Q 37.359375 48.484375 30.078125 48.484375 
Q 22.859375 48.484375 18.828125 43.109375 
Q 14.796875 37.75 14.796875 27.984375 
Q 14.796875 18.265625 18.828125 12.890625 
Q 22.859375 7.515625 30.078125 7.515625 
Q 37.359375 7.515625 41.375 12.890625 
Q 45.40625 18.265625 45.40625 27.984375 
z
M 54.390625 6.78125 
Q 54.390625 -7.171875 48.1875 -13.984375 
Q 42 -20.796875 29.203125 -20.796875 
Q 24.46875 -20.796875 20.265625 -20.09375 
Q 16.0625 -19.390625 12.109375 -17.921875 
L 12.109375 -9.1875 
Q 16.0625 -11.328125 19.921875 -12.34375 
Q 23.78125 -13.375 27.78125 -13.375 
Q 36.625 -13.375 41.015625 -8.765625 
Q 45.40625 -4.15625 45.40625 5.171875 
L 45.40625 9.625 
Q 42.625 4.78125 38.28125 2.390625 
Q 33.9375 0 27.875 0 
Q 17.828125 0 11.671875 7.65625 
Q 5.515625 15.328125 5.515625 27.984375 
Q 5.515625 40.671875 11.671875 48.328125 
Q 17.828125 56 27.875 56 
Q 33.9375 56 38.28125 53.609375 
Q 42.625 51.21875 45.40625 46.390625 
L 45.40625 54.6875 
L 54.390625 54.6875 
z
" id="DejaVuSans-103"/>
      <path d="M 2.984375 54.6875 
L 12.5 54.6875 
L 29.59375 8.796875 
L 46.6875 54.6875 
L 56.203125 54.6875 
L 35.6875 0 
L 23.484375 0 
z
" id="DejaVuSans-118"/>
     </defs>
     <g transform="translate(512.342187 190.33375)scale(0.1 -0.1)">
      <use xlink:href="#DejaVuSans-73"/>
      <use x="29.492188" xlink:href="#DejaVuSans-109"/>
      <use x="126.904297" xlink:href="#DejaVuSans-112"/>
      <use x="190.380859" xlink:href="#DejaVuSans-111"/>
      <use x="251.5625" xlink:href="#DejaVuSans-115"/>
      <use x="303.662109" xlink:href="#DejaVuSans-116"/>
      <use x="342.871094" xlink:href="#DejaVuSans-111"/>
      <use x="404.052734" xlink:href="#DejaVuSans-32"/>
      <use x="435.839844" xlink:href="#DejaVuSans-112"/>
      <use x="499.316406" xlink:href="#DejaVuSans-114"/>
      <use x="538.179688" xlink:href="#DejaVuSans-111"/>
      <use x="599.361328" xlink:href="#DejaVuSans-103"/>
      <use x="662.837891" xlink:href="#DejaVuSans-114"/>
      <use x="701.701172" xlink:href="#DejaVuSans-101"/>
      <use x="763.224609" xlink:href="#DejaVuSans-115"/>
      <use x="815.324219" xlink:href="#DejaVuSans-115"/>
      <use x="867.423828" xlink:href="#DejaVuSans-105"/>
      <use x="895.207031" xlink:href="#DejaVuSans-118"/>
      <use x="954.386719" xlink:href="#DejaVuSans-111"/>
     </g>
    </g>
   </g>
  </g>
 </g>
 <defs>
  <clipPath id="p86b8473cdd">
   <rect height="271.8" width="446.4" x="28.942188" y="22.318125"/>
  </clipPath>
 </defs>
</svg>
