<?xml version="1.0" encoding="utf-8" standalone="no"?>
<!DOCTYPE svg PUBLIC "-//W3C//DTD SVG 1.1//EN"
  "http://www.w3.org/Graphics/SVG/1.1/DTD/svg11.dtd">
<!-- Created with matplotlib (https://matplotlib.org/) -->
<svg height="331.674375pt" version="1.1" viewBox="0 0 634.642187 331.674375" width="634.642187pt" xmlns="http://www.w3.org/2000/svg" xmlns:xlink="http://www.w3.org/1999/xlink">
 <defs>
  <style type="text/css">
*{stroke-linecap:butt;stroke-linejoin:round;}
  </style>
 </defs>
 <g id="figure_1">
  <g id="patch_1">
   <path d="M 0 331.674375 
L 634.642187 331.674375 
L 634.642187 0 
L 0 0 
z
" style="fill:#ffffff;"/>
  </g>
  <g id="axes_1">
   <g id="patch_2">
    <path d="M 38.482813 294.118125 
L 484.882812 294.118125 
L 484.882812 22.318125 
L 38.482813 22.318125 
z
" style="fill:#ffffff;"/>
   </g>
   <g id="line2d_1">
    <path clip-path="url(#p0a59b449cd)" d="M 58.773722 161.807173 
L 59.499693 225.032295 
L 60.225665 188.571954 
L 60.951637 139.764854 
L 61.677608 149.724028 
L 62.40358 144.087914 
L 63.129552 152.71919 
L 63.855524 182.802601 
L 64.581495 82.868185 
L 65.307467 230.826692 
L 66.033439 164.033891 
L 66.75941 136.968777 
L 67.485382 144.781461 
L 68.211354 148.970558 
L 68.937325 224.443535 
L 69.663297 89.792057 
L 70.389269 208.3287 
L 71.115241 178.188636 
L 71.841212 127.193538 
L 72.567184 210.670563 
L 73.293156 149.419765 
L 74.019127 130.324322 
L 74.745099 195.408866 
L 75.471071 189.541485 
L 76.197042 110.815021 
L 76.923014 198.035643 
L 77.648986 171.817994 
L 78.374958 211.121859 
L 79.100929 160.980057 
L 79.826901 217.073391 
L 80.552873 192.362452 
L 81.278844 126.237793 
L 82.004816 189.793837 
L 82.730788 170.984671 
L 83.456759 204.300507 
L 84.182731 177.579232 
L 84.908703 175.565842 
L 85.634675 169.50305 
L 86.360646 191.754437 
L 87.086618 152.967833 
L 88.538561 214.801591 
L 89.264533 108.804202 
L 89.990505 169.286894 
L 90.716477 73.935715 
L 91.442448 221.075075 
L 92.16842 160.331575 
L 92.894392 186.48888 
L 93.620363 169.481528 
L 94.346335 180.826863 
L 95.072307 187.0911 
L 95.798278 179.369123 
L 96.52425 181.687213 
L 97.250222 173.285117 
L 97.976194 157.283287 
L 98.702165 127.830436 
L 99.428137 211.978617 
L 100.154109 205.735121 
L 101.606052 178.297394 
L 102.332024 94.270092 
L 103.057995 233.368686 
L 103.783967 86.793506 
L 104.509939 160.384561 
L 105.235911 189.998598 
L 106.687854 176.192348 
L 107.413826 166.289075 
L 108.139797 163.984642 
L 108.865769 128.778283 
L 109.591741 233.103967 
L 110.317712 134.646067 
L 111.043684 146.57137 
L 111.769656 140.159826 
L 112.495628 160.952019 
L 113.221599 126.298065 
L 113.947571 181.612854 
L 114.673543 176.10704 
L 115.399514 145.527575 
L 116.125486 61.9939 
L 116.851458 231.037121 
L 117.57743 156.364943 
L 118.303401 163.850533 
L 119.029373 62.278105 
L 119.755345 242.777204 
L 120.481316 188.076646 
L 121.207288 218.439838 
L 121.93326 165.268911 
L 122.659231 181.115629 
L 123.385203 183.651927 
L 124.111175 162.70576 
L 124.837147 198.014716 
L 125.563118 178.758069 
L 126.28909 180.256753 
L 127.015062 190.312066 
L 127.741033 180.883146 
L 128.467005 161.137607 
L 129.192977 118.35234 
L 129.918948 219.066483 
L 130.64492 140.553486 
L 131.370892 148.625306 
L 132.096864 211.102488 
L 132.822835 156.523213 
L 133.548807 179.345182 
L 134.274779 192.784835 
L 135.00075 177.922079 
L 135.726722 185.079658 
L 136.452694 171.183726 
L 137.178665 147.614402 
L 137.904637 184.644129 
L 138.630609 176.93211 
L 139.356581 228.41063 
L 140.082552 206.576271 
L 140.808524 98.387085 
L 141.534496 142.295051 
L 142.260467 117.498511 
L 142.986439 81.631279 
L 143.712411 118.492149 
L 144.438383 182.721575 
L 145.164354 209.302788 
L 145.890326 171.951935 
L 147.342269 124.451058 
L 148.068241 133.568746 
L 148.794213 172.800692 
L 149.520184 153.925842 
L 150.246156 170.293113 
L 150.972128 243.040086 
L 151.6981 181.997046 
L 152.424071 162.641067 
L 153.150043 176.050022 
L 153.876015 161.5684 
L 154.601986 189.678873 
L 155.327958 124.608989 
L 156.05393 197.64375 
L 156.779901 174.495734 
L 157.505873 126.969889 
L 158.231845 117.775826 
L 158.957817 179.341006 
L 159.683788 134.664682 
L 160.40976 54.396203 
L 161.135732 161.918582 
L 161.861703 68.79455 
L 162.587675 167.586782 
L 163.313647 211.67265 
L 164.039618 163.225796 
L 164.76559 173.082699 
L 165.491562 156.882699 
L 166.217534 70.93816 
L 166.943505 67.764228 
L 167.669477 75.52983 
L 168.395449 102.290717 
L 169.12142 119.445139 
L 169.847392 215.993082 
L 170.573364 127.921142 
L 171.299336 194.476087 
L 172.025307 87.074172 
L 172.751279 135.085473 
L 173.477251 95.179456 
L 174.203222 149.252521 
L 174.929194 123.171596 
L 175.655166 126.610184 
L 176.381137 168.198805 
L 177.107109 56.5896 
L 177.833081 100.783502 
L 178.559053 117.444425 
L 179.285024 85.905777 
L 180.010996 166.985967 
L 180.736968 204.436202 
L 181.462939 162.486441 
L 182.188911 146.036634 
L 182.914883 162.963612 
L 183.640854 187.533846 
L 185.092798 104.611425 
L 185.81877 138.037391 
L 186.544741 158.195256 
L 187.270713 155.417418 
L 187.996685 128.790511 
L 188.722656 146.297998 
L 189.448628 217.900776 
L 190.1746 129.41149 
L 190.900571 215.736326 
L 191.626543 171.106077 
L 192.352515 134.854482 
L 193.078487 195.845531 
L 193.804458 209.018381 
L 194.53043 182.611595 
L 195.256402 181.010234 
L 195.982373 109.225369 
L 196.708345 180.72091 
L 197.434317 231.457817 
L 198.160289 207.746042 
L 198.88626 178.495097 
L 199.612232 118.542526 
L 200.338204 232.340654 
L 201.064175 173.661155 
L 201.790147 220.974898 
L 203.24209 149.814816 
L 203.968062 226.767997 
L 204.694034 214.312544 
L 205.420006 147.374407 
L 206.145977 233.608345 
L 207.597921 168.790798 
L 208.323892 152.661319 
L 209.049864 132.88522 
L 209.775836 215.158323 
L 210.501807 151.138932 
L 211.227779 173.312332 
L 211.953751 185.542035 
L 212.679723 212.361346 
L 213.405694 204.149564 
L 214.131666 140.329939 
L 214.857638 123.052537 
L 215.583609 159.218383 
L 216.309581 174.314289 
L 217.035553 111.560062 
L 217.761524 155.075214 
L 218.487496 161.372068 
L 219.213468 116.5317 
L 219.93944 171.187597 
L 220.665411 119.678168 
L 221.391383 162.56058 
L 222.117355 170.896024 
L 222.843326 169.168581 
L 223.569298 153.734397 
L 224.29527 140.970901 
L 225.021242 169.216598 
L 225.747213 172.807568 
L 226.473185 160.665293 
L 227.199157 159.203964 
L 227.925128 171.006957 
L 228.6511 166.678498 
L 229.377072 121.378821 
L 230.103043 154.224628 
L 230.829015 229.188951 
L 231.554987 83.589052 
L 232.280959 156.242759 
L 233.00693 161.156703 
L 233.732902 178.07205 
L 234.458874 146.406282 
L 235.184845 200.40785 
L 235.910817 144.992712 
L 236.636789 124.484558 
L 237.36276 195.676355 
L 238.088732 183.521405 
L 238.814704 175.678826 
L 239.540676 171.155335 
L 240.266647 194.369725 
L 240.992619 154.270004 
L 241.718591 174.411867 
L 242.444562 114.511718 
L 243.170534 203.29065 
L 243.896506 142.838776 
L 244.622477 205.352069 
L 245.348449 129.394002 
L 246.074421 127.70543 
L 246.800393 205.638691 
L 247.526364 121.154987 
L 248.252336 189.261908 
L 248.978308 213.31073 
L 249.704279 168.566851 
L 250.430251 199.420988 
L 251.156223 202.405578 
L 251.882195 140.992281 
L 252.608166 181.954355 
L 253.334138 140.416188 
L 254.06011 161.041266 
L 254.786081 219.625725 
L 255.512053 192.632299 
L 256.238025 178.518119 
L 256.963996 133.627588 
L 257.689968 227.320913 
L 258.41594 172.210091 
L 259.141912 192.835937 
L 259.867883 204.095994 
L 260.593855 188.570096 
L 261.319827 210.245508 
L 262.045798 176.17991 
L 262.77177 148.53243 
L 263.497742 200.392592 
L 264.223713 168.483447 
L 264.949685 188.715773 
L 265.675657 158.507618 
L 266.401629 220.890175 
L 267.1276 175.068949 
L 267.853572 179.950407 
L 268.579544 216.630368 
L 269.305515 115.902423 
L 270.031487 196.028758 
L 270.757459 176.498042 
L 271.48343 140.271521 
L 272.209402 179.216911 
L 272.935374 173.175491 
L 273.661346 204.461489 
L 274.387317 170.784739 
L 275.113289 145.79626 
L 275.839261 198.095589 
L 276.565232 163.703327 
L 277.291204 186.685699 
L 278.017176 174.267605 
L 278.743148 181.558246 
L 279.469119 75.233161 
L 280.195091 159.479258 
L 280.921063 194.967861 
L 281.647034 102.952111 
L 282.373006 220.701864 
L 283.098978 122.75119 
L 284.550921 207.211533 
L 285.276893 127.050493 
L 286.002865 199.55345 
L 286.728836 187.015799 
L 287.454808 181.320548 
L 288.18078 140.013483 
L 288.906751 170.53368 
L 289.632723 98.063306 
L 290.358695 166.864975 
L 291.084666 96.791366 
L 291.810638 141.011808 
L 292.53661 151.807727 
L 293.262582 171.631879 
L 293.988553 139.02663 
L 294.714525 169.810697 
L 295.440497 90.024313 
L 296.166468 161.715437 
L 296.89244 87.166173 
L 297.618412 131.896842 
L 298.344383 68.673159 
L 299.070355 124.031089 
L 299.796327 90.286681 
L 300.522299 221.212352 
L 301.24827 55.467331 
L 301.974242 136.558832 
L 302.700214 85.856471 
L 303.426185 119.388594 
L 304.152157 34.67267 
L 304.878129 142.229658 
L 305.604101 176.956679 
L 306.330072 131.713368 
L 307.056044 190.640061 
L 307.782016 157.843709 
L 308.507987 176.042343 
L 309.233959 151.458755 
L 309.959931 169.599632 
L 310.685902 160.174089 
L 311.411874 154.725804 
L 312.137846 110.122099 
L 312.863818 144.653436 
L 313.589789 105.864742 
L 314.315761 97.105263 
L 315.041733 152.141728 
L 315.767704 143.724133 
L 316.493676 155.466725 
L 317.219648 173.356462 
L 317.945619 140.157629 
L 318.671591 142.69868 
L 319.397563 105.839834 
L 320.123535 150.011852 
L 320.849506 97.385447 
L 321.575478 217.984672 
L 322.30145 172.794352 
L 323.027421 163.151462 
L 323.753393 158.174357 
L 324.479365 145.695973 
L 325.205336 180.267301 
L 325.931308 207.046325 
L 326.65728 161.381426 
L 327.383252 127.761567 
L 328.109223 188.988514 
L 328.835195 117.051718 
L 329.561167 219.784019 
L 330.287138 127.603187 
L 331.01311 170.661428 
L 331.739082 195.466481 
L 332.465054 155.379668 
L 333.191025 143.544576 
L 333.916997 208.918005 
L 335.36894 147.824981 
L 336.094912 182.850519 
L 336.820884 174.897618 
L 337.546855 181.214339 
L 338.272827 183.578306 
L 338.998799 178.595851 
L 339.724771 142.329301 
L 340.450742 191.518829 
L 341.176714 197.412542 
L 341.902686 175.852125 
L 342.628657 187.061395 
L 343.354629 169.045547 
L 344.080601 144.353048 
L 344.806572 185.575419 
L 345.532544 205.314732 
L 346.258516 136.010832 
L 346.984488 222.183068 
L 347.710459 177.378979 
L 348.436431 212.271643 
L 349.162403 169.564401 
L 349.888374 205.36453 
L 350.614346 188.880164 
L 351.340318 195.768289 
L 352.066289 201.401465 
L 352.792261 179.416618 
L 353.518233 161.852205 
L 354.970176 214.139628 
L 355.696148 158.169469 
L 356.42212 188.136007 
L 357.148091 190.910712 
L 357.874063 185.374051 
L 358.600035 187.015738 
L 359.326007 166.065868 
L 360.051978 155.116018 
L 360.77795 185.274934 
L 361.503922 210.197233 
L 362.229893 181.108979 
L 362.955865 140.270794 
L 363.681837 192.091241 
L 364.407808 186.670529 
L 365.13378 186.341607 
L 365.859752 181.042566 
L 366.585724 189.273583 
L 367.311695 191.195505 
L 368.037667 173.956856 
L 368.763639 220.998605 
L 369.48961 182.079908 
L 370.215582 223.596845 
L 370.941554 185.577925 
L 371.667525 199.347731 
L 372.393497 189.863583 
L 373.119469 200.966908 
L 373.845441 194.996913 
L 374.571412 185.74203 
L 375.297384 222.364014 
L 376.023356 174.070902 
L 376.749327 175.564284 
L 377.475299 192.221353 
L 378.201271 211.706544 
L 378.927242 194.81111 
L 379.653214 187.127043 
L 380.379186 165.967386 
L 381.105158 190.274658 
L 381.831129 194.610422 
L 382.557101 180.516545 
L 383.283073 153.899492 
L 384.009044 184.505259 
L 384.735016 156.622171 
L 385.460988 196.997999 
L 386.18696 209.823865 
L 386.912931 147.699298 
L 387.638903 188.197159 
L 388.364875 161.4195 
L 389.090846 189.882028 
L 389.816818 185.819784 
L 390.54279 200.837509 
L 391.268761 162.41814 
L 391.994733 165.178466 
L 392.720705 168.834294 
L 393.446677 147.863256 
L 394.172648 173.975786 
L 394.89862 174.526042 
L 396.350563 179.836859 
L 397.076535 139.555217 
L 397.802507 152.16975 
L 398.528478 149.00339 
L 399.25445 152.600161 
L 399.980422 149.660934 
L 400.706394 135.540941 
L 401.432365 138.141665 
L 402.158337 163.472483 
L 402.884309 129.587684 
L 403.61028 154.928162 
L 404.336252 131.230521 
L 405.062224 148.080042 
L 405.788195 118.694622 
L 406.514167 152.446977 
L 407.240139 146.114894 
L 407.966111 153.286964 
L 408.692082 163.778074 
L 409.418054 131.457878 
L 410.144026 183.482389 
L 410.869997 121.867689 
L 411.595969 135.893895 
L 412.321941 188.525748 
L 413.047913 123.420967 
L 413.773884 140.409973 
L 415.225828 132.595801 
L 415.951799 112.136605 
L 416.677771 182.7621 
L 417.403743 124.360517 
L 418.129714 143.863409 
L 418.855686 170.683939 
L 419.581658 132.572063 
L 420.30763 143.503886 
L 421.033601 124.709107 
L 421.759573 179.397197 
L 422.485545 163.08272 
L 423.211516 173.21526 
L 423.937488 169.570564 
L 424.66346 174.944306 
L 425.389431 174.941105 
L 426.115403 174.243606 
L 426.841375 174.554851 
L 427.567347 175.58655 
L 428.293318 183.342496 
L 429.01929 177.974468 
L 429.745262 181.702405 
L 430.471233 176.252473 
L 431.197205 180.954945 
L 431.923177 181.45004 
L 432.649148 175.229196 
L 433.37512 176.808173 
L 434.101092 190.226627 
L 434.827064 183.619377 
L 435.553035 165.215246 
L 436.279007 183.207113 
L 437.004979 168.758133 
L 437.73095 182.79958 
L 438.456922 169.599973 
L 439.908866 198.164541 
L 440.634837 177.451836 
L 441.360809 188.894876 
L 442.086781 174.999868 
L 442.812752 185.741756 
L 443.538724 172.777157 
L 444.264696 184.365854 
L 444.990667 163.510122 
L 445.716639 181.452349 
L 446.442611 165.883683 
L 447.168583 167.870957 
L 447.894554 178.234506 
L 448.620526 180.166777 
L 449.346498 181.707765 
L 450.072469 189.153694 
L 450.798441 182.205829 
L 451.524413 186.972601 
L 452.250384 180.957504 
L 452.976356 180.760525 
L 453.702328 178.902999 
L 454.4283 188.65743 
L 455.154271 170.168722 
L 455.880243 181.514302 
L 456.606215 183.427043 
L 457.332186 180.758818 
L 458.058158 183.345787 
L 458.78413 191.982832 
L 459.510101 182.433531 
L 460.236073 187.399175 
L 460.962045 177.194262 
L 461.688017 192.004782 
L 462.413988 193.971209 
L 463.13996 187.351352 
L 463.865932 189.773181 
L 464.591903 188.734194 
L 464.591903 188.734194 
" style="fill:none;stroke:#1f77b4;stroke-linecap:square;stroke-width:1.5;"/>
   </g>
   <g id="line2d_2">
    <path clip-path="url(#p0a59b449cd)" d="M 58.773722 234.64679 
L 59.499693 281.489042 
L 60.225665 252.881135 
L 60.951637 208.514529 
L 61.677608 264.473705 
L 62.40358 236.684719 
L 63.129552 258.623657 
L 63.855524 179.544992 
L 64.581495 252.024936 
L 65.307467 273.686508 
L 66.033439 242.405495 
L 66.75941 250.794433 
L 67.485382 256.444449 
L 68.211354 250.718419 
L 68.937325 224.413997 
L 69.663297 225.155444 
L 70.389269 255.135586 
L 71.115241 279.319608 
L 71.841212 239.26997 
L 72.567184 278.400928 
L 73.293156 196.892907 
L 74.019127 259.408089 
L 74.745099 225.019786 
L 75.471071 250.730324 
L 76.197042 248.559669 
L 76.923014 238.606848 
L 77.648986 265.638868 
L 78.374958 262.005403 
L 79.100929 252.51546 
L 79.826901 268.612118 
L 80.552873 260.845793 
L 81.278844 251.153307 
L 82.004816 260.146881 
L 82.730788 265.068107 
L 83.456759 267.546413 
L 84.182731 273.584062 
L 84.908703 263.960615 
L 85.634675 260.451937 
L 86.360646 263.665549 
L 87.086618 261.437577 
L 87.81259 265.249041 
L 88.538561 281.76358 
L 89.264533 224.384674 
L 89.990505 262.421961 
L 90.716477 252.281499 
L 91.442448 269.073807 
L 92.16842 212.556648 
L 92.894392 269.490614 
L 93.620363 222.834084 
L 94.346335 255.69518 
L 95.072307 240.907468 
L 96.52425 250.797733 
L 97.250222 219.484445 
L 97.976194 240.744824 
L 98.702165 229.915031 
L 99.428137 277.691558 
L 100.154109 194.377909 
L 100.88008 263.42817 
L 101.606052 246.188376 
L 102.332024 245.833032 
L 103.057995 269.049301 
L 103.783967 242.866138 
L 104.509939 240.667222 
L 105.235911 268.226933 
L 105.961882 263.125521 
L 106.687854 245.638119 
L 107.413826 185.617305 
L 108.139797 222.958778 
L 108.865769 239.399696 
L 109.591741 263.87039 
L 110.317712 267.164046 
L 111.769656 253.670957 
L 112.495628 244.777742 
L 113.221599 239.180136 
L 113.947571 242.762191 
L 114.673543 261.557813 
L 115.399514 231.004216 
L 116.851458 273.741958 
L 117.57743 170.059615 
L 118.303401 213.392629 
L 119.029373 216.284957 
L 119.755345 277.200457 
L 120.481316 264.892242 
L 121.207288 266.577467 
L 121.93326 247.604444 
L 122.659231 250.320674 
L 123.385203 237.066049 
L 124.111175 257.227308 
L 124.837147 259.459252 
L 125.563118 267.911123 
L 126.28909 254.883345 
L 127.015062 260.530225 
L 127.741033 214.778534 
L 128.467005 244.132319 
L 129.192977 251.243271 
L 129.918948 264.648374 
L 130.64492 118.457662 
L 131.370892 255.107585 
L 132.096864 260.923022 
L 132.822835 239.063206 
L 133.548807 273.092746 
L 134.274779 245.454346 
L 135.00075 252.659234 
L 135.726722 234.312159 
L 136.452694 212.520563 
L 137.178665 246.485 
L 137.904637 239.730177 
L 138.630609 240.661054 
L 139.356581 276.189034 
L 140.082552 257.071748 
L 140.808524 255.818886 
L 141.534496 255.211742 
L 142.260467 146.447216 
L 142.986439 234.236135 
L 143.712411 146.866676 
L 144.438383 241.133739 
L 145.164354 258.348452 
L 145.890326 236.315993 
L 146.616298 238.499808 
L 147.342269 203.268272 
L 148.068241 200.484903 
L 148.794213 244.92733 
L 149.520184 231.800204 
L 150.246156 228.085441 
L 150.972128 268.03453 
L 151.6981 234.324117 
L 152.424071 243.012092 
L 153.150043 243.516127 
L 153.876015 229.433578 
L 154.601986 178.929348 
L 155.327958 227.848414 
L 156.05393 200.299867 
L 156.779901 228.702126 
L 157.505873 232.171803 
L 158.231845 223.881677 
L 158.957817 174.488756 
L 159.683788 181.629124 
L 160.40976 216.584258 
L 161.135732 239.830277 
L 161.861703 218.291272 
L 162.587675 219.903785 
L 163.313647 259.426667 
L 164.039618 230.974205 
L 164.76559 217.750791 
L 165.491562 166.824724 
L 166.217534 239.659972 
L 166.943505 217.972776 
L 167.669477 218.751494 
L 168.395449 230.278546 
L 169.12142 213.236665 
L 169.847392 238.265686 
L 170.573364 178.207772 
L 171.299336 246.495773 
L 172.025307 182.415664 
L 172.751279 210.656558 
L 173.477251 227.850904 
L 174.203222 228.859868 
L 175.655166 208.578174 
L 176.381137 205.118365 
L 177.107109 223.824206 
L 177.833081 218.101768 
L 178.559053 220.300907 
L 179.285024 216.479763 
L 180.010996 241.287734 
L 180.736968 259.26166 
L 181.462939 206.611954 
L 182.188911 208.819935 
L 182.914883 233.430489 
L 183.640854 249.225981 
L 184.366826 232.009484 
L 185.092798 168.799213 
L 185.81877 240.67723 
L 186.544741 226.431027 
L 187.270713 222.675654 
L 187.996685 224.402279 
L 188.722656 240.530752 
L 189.448628 262.719471 
L 190.1746 237.049401 
L 190.900571 269.026481 
L 191.626543 202.198189 
L 192.352515 223.797252 
L 193.078487 226.545784 
L 193.804458 254.401762 
L 194.53043 229.318647 
L 195.256402 234.798837 
L 195.982373 236.164849 
L 196.708345 219.32129 
L 197.434317 264.907808 
L 198.160289 262.587793 
L 198.88626 239.68418 
L 199.612232 235.022601 
L 200.338204 271.521166 
L 201.064175 260.386135 
L 201.790147 271.257364 
L 202.516119 256.999473 
L 203.24209 263.562146 
L 203.968062 263.610434 
L 204.694034 224.376285 
L 205.420006 261.717092 
L 206.145977 224.617062 
L 206.871949 256.044183 
L 207.597921 254.559511 
L 208.323892 234.173001 
L 209.049864 250.403963 
L 209.775836 258.181431 
L 210.501807 241.611804 
L 211.227779 159.911866 
L 211.953751 258.789521 
L 212.679723 252.214243 
L 213.405694 218.527063 
L 214.131666 197.432877 
L 214.857638 228.647781 
L 215.583609 240.152983 
L 216.309581 187.750195 
L 217.035553 240.141419 
L 217.761524 241.424889 
L 218.487496 254.815143 
L 219.213468 227.917381 
L 219.93944 229.848017 
L 220.665411 249.498224 
L 221.391383 240.704841 
L 222.117355 245.446864 
L 222.843326 257.844667 
L 223.569298 162.467788 
L 224.29527 245.082243 
L 225.021242 252.023574 
L 225.747213 249.592019 
L 226.473185 239.914616 
L 227.199157 258.633368 
L 227.925128 254.244029 
L 229.377072 237.077814 
L 230.103043 247.890323 
L 230.829015 262.291506 
L 231.554987 246.438659 
L 232.280959 257.754723 
L 233.00693 241.599516 
L 233.732902 197.360593 
L 234.458874 199.283301 
L 235.184845 241.890304 
L 235.910817 169.446832 
L 236.636789 242.037189 
L 237.36276 238.159386 
L 238.088732 241.561786 
L 238.814704 251.578078 
L 239.540676 217.459039 
L 240.266647 249.736405 
L 240.992619 237.657027 
L 241.718591 252.381788 
L 242.444562 234.748509 
L 243.170534 202.962056 
L 243.896506 208.187076 
L 244.622477 250.137036 
L 245.348449 235.798992 
L 246.074421 229.746868 
L 246.800393 239.358426 
L 247.526364 213.630806 
L 248.252336 241.0686 
L 248.978308 259.972257 
L 249.704279 238.828004 
L 250.430251 238.550018 
L 251.156223 230.427325 
L 251.882195 238.565579 
L 252.608166 238.139057 
L 253.334138 237.130329 
L 254.06011 233.778338 
L 254.786081 248.598473 
L 255.512053 257.533675 
L 256.238025 240.900724 
L 256.963996 252.687894 
L 257.689968 266.355502 
L 258.41594 237.95791 
L 259.141912 240.515854 
L 259.867883 262.016627 
L 260.593855 249.292671 
L 261.319827 255.960159 
L 262.045798 225.729402 
L 262.77177 242.556829 
L 263.497742 235.915681 
L 264.223713 238.898862 
L 264.949685 251.88594 
L 265.675657 242.320278 
L 266.401629 237.760949 
L 267.1276 245.892364 
L 267.853572 246.398261 
L 268.579544 252.049118 
L 269.305515 194.763947 
L 270.031487 220.977836 
L 270.757459 240.13164 
L 271.48343 240.902097 
L 272.209402 246.401437 
L 272.935374 259.253709 
L 273.661346 198.138487 
L 274.387317 252.079458 
L 275.113289 227.894958 
L 275.839261 247.688827 
L 276.565232 242.420639 
L 277.291204 240.493679 
L 278.743148 250.085007 
L 279.469119 239.378041 
L 280.195091 243.105136 
L 280.921063 265.644736 
L 281.647034 235.061236 
L 282.373006 263.811952 
L 283.098978 243.731316 
L 283.824949 246.076573 
L 284.550921 216.654121 
L 285.276893 217.461056 
L 286.002865 239.934542 
L 286.728836 245.459498 
L 287.454808 229.120005 
L 288.18078 218.818249 
L 288.906751 240.095724 
L 289.632723 232.872992 
L 290.358695 231.931565 
L 291.084666 225.786145 
L 291.810638 239.214585 
L 292.53661 186.607516 
L 293.262582 244.417077 
L 293.988553 229.435003 
L 294.714525 241.889804 
L 295.440497 220.324069 
L 296.166468 224.96424 
L 296.89244 219.786097 
L 297.618412 225.305967 
L 298.344383 213.090803 
L 299.070355 229.955111 
L 299.796327 232.907247 
L 300.522299 272.068384 
L 301.24827 238.43923 
L 301.974242 237.929063 
L 302.700214 245.25515 
L 303.426185 164.012751 
L 304.152157 238.47784 
L 304.878129 196.768142 
L 305.604101 241.796683 
L 306.330072 207.979717 
L 307.056044 246.213121 
L 307.782016 245.337459 
L 308.507987 224.635704 
L 309.233959 237.79621 
L 309.959931 235.836454 
L 310.685902 232.325692 
L 311.411874 234.706267 
L 312.137846 242.950517 
L 312.863818 232.869102 
L 313.589789 236.15459 
L 314.315761 178.261194 
L 315.041733 244.272106 
L 315.767704 230.842798 
L 316.493676 228.326165 
L 317.219648 263.979734 
L 318.671591 188.611405 
L 319.397563 209.100831 
L 320.123535 234.83815 
L 320.849506 216.645879 
L 321.575478 263.395743 
L 322.30145 253.636084 
L 323.027421 199.805173 
L 323.753393 242.141205 
L 324.479365 241.55502 
L 325.205336 259.278895 
L 325.931308 253.402796 
L 326.65728 253.940353 
L 327.383252 205.087477 
L 328.109223 260.17856 
L 328.835195 239.266048 
L 329.561167 265.191502 
L 330.287138 232.127593 
L 331.01311 215.006632 
L 331.739082 239.558327 
L 332.465054 202.336221 
L 333.191025 244.337286 
L 333.916997 260.921699 
L 334.642969 256.027792 
L 335.36894 247.104846 
L 336.094912 230.927612 
L 336.820884 262.971137 
L 337.546855 220.076838 
L 338.272827 259.910308 
L 338.998799 245.712112 
L 339.724771 251.970687 
L 340.450742 255.90285 
L 341.176714 262.042614 
L 341.902686 249.196115 
L 342.628657 218.522061 
L 343.354629 267.962237 
L 344.080601 221.017877 
L 344.806572 228.867006 
L 345.532544 242.495955 
L 346.258516 243.137129 
L 346.984488 229.796603 
L 347.710459 239.485144 
L 348.436431 236.63694 
L 349.162403 236.146317 
L 350.614346 237.016814 
L 351.340318 245.392061 
L 352.066289 245.025376 
L 352.792261 230.204418 
L 353.518233 245.91966 
L 354.244205 244.941801 
L 354.970176 242.169116 
L 355.696148 227.288751 
L 356.42212 238.313531 
L 357.148091 231.733791 
L 357.874063 236.596359 
L 358.600035 238.306169 
L 359.326007 241.699812 
L 360.051978 210.109886 
L 360.77795 211.470578 
L 361.503922 256.669608 
L 362.229893 228.674114 
L 362.955865 237.655026 
L 363.681837 227.50389 
L 364.407808 240.133852 
L 365.13378 228.053232 
L 365.859752 234.918521 
L 366.585724 239.62721 
L 367.311695 239.720747 
L 368.037667 238.512611 
L 368.763639 233.848782 
L 369.48961 234.935265 
L 370.215582 229.957572 
L 370.941554 236.098433 
L 371.667525 236.108886 
L 372.393497 233.141848 
L 373.119469 236.296737 
L 373.845441 231.22902 
L 374.571412 235.338944 
L 375.297384 251.416802 
L 376.023356 227.307958 
L 376.749327 221.130993 
L 377.475299 238.555728 
L 378.201271 252.342708 
L 378.927242 230.653528 
L 379.653214 223.285629 
L 380.379186 220.237938 
L 381.105158 235.631365 
L 382.557101 222.979462 
L 383.283073 218.94659 
L 384.009044 242.148494 
L 384.735016 234.001786 
L 385.460988 216.423924 
L 386.18696 232.450016 
L 386.912931 218.722471 
L 387.638903 228.758058 
L 388.364875 218.653207 
L 389.090846 228.860248 
L 389.816818 229.707374 
L 390.54279 238.57329 
L 391.268761 228.437084 
L 391.994733 231.161882 
L 392.720705 235.139272 
L 393.446677 231.308615 
L 394.172648 211.616948 
L 394.89862 241.144881 
L 395.624592 239.315454 
L 396.350563 235.617551 
L 397.076535 230.082169 
L 397.802507 238.386913 
L 398.528478 212.073786 
L 399.25445 218.648113 
L 399.980422 218.736332 
L 400.706394 225.402072 
L 401.432365 222.143539 
L 402.158337 244.078857 
L 403.61028 208.013511 
L 404.336252 213.126361 
L 405.062224 207.598107 
L 405.788195 220.051112 
L 406.514167 204.91099 
L 407.240139 204.274466 
L 407.966111 225.035343 
L 408.692082 239.806675 
L 409.418054 202.422839 
L 410.144026 244.607628 
L 410.869997 223.170486 
L 411.595969 226.879197 
L 412.321941 225.115412 
L 413.047913 226.594326 
L 413.773884 223.617328 
L 414.499856 233.432193 
L 415.225828 203.94159 
L 415.951799 203.105738 
L 416.677771 239.384344 
L 417.403743 203.154527 
L 418.129714 224.026195 
L 418.855686 230.702825 
L 419.581658 209.069509 
L 420.30763 228.215215 
L 421.033601 218.109204 
L 421.759573 243.72874 
L 422.485545 227.281469 
L 423.211516 242.60621 
L 423.937488 230.477102 
L 424.66346 231.355351 
L 425.389431 233.438327 
L 426.115403 229.314917 
L 426.841375 232.060526 
L 427.567347 231.91351 
L 429.01929 233.215269 
L 429.745262 235.683886 
L 430.471233 230.813936 
L 431.197205 235.421953 
L 431.923177 236.468243 
L 432.649148 236.959748 
L 433.37512 238.046947 
L 434.101092 247.525477 
L 434.827064 235.504431 
L 435.553035 229.006636 
L 436.279007 236.410147 
L 437.004979 227.004768 
L 437.73095 232.749299 
L 438.456922 224.531213 
L 439.182894 232.375906 
L 439.908866 236.599604 
L 440.634837 229.040199 
L 441.360809 233.115761 
L 442.086781 232.940098 
L 442.812752 231.787652 
L 443.538724 235.08331 
L 444.264696 231.240613 
L 444.990667 232.217335 
L 445.716639 232.768812 
L 446.442611 232.805292 
L 447.168583 233.905502 
L 447.894554 231.901855 
L 448.620526 239.677906 
L 449.346498 233.819835 
L 450.072469 231.763483 
L 450.798441 234.207225 
L 451.524413 238.764505 
L 452.250384 236.014373 
L 452.976356 233.959015 
L 453.702328 237.622655 
L 454.4283 236.932908 
L 455.154271 235.354977 
L 455.880243 241.20032 
L 456.606215 234.982833 
L 457.332186 238.444332 
L 458.058158 238.598827 
L 458.78413 236.31458 
L 459.510101 237.148788 
L 460.236073 237.195459 
L 460.962045 237.724816 
L 461.688017 238.730914 
L 462.413988 237.062652 
L 463.13996 236.338708 
L 463.865932 236.032613 
L 464.591903 236.126386 
L 464.591903 236.126386 
" style="fill:none;stroke:#ff7f0e;stroke-linecap:square;stroke-width:1.5;"/>
   </g>
   <g id="line2d_3">
    <path clip-path="url(#p0a59b449cd)" d="M 58.773722 168.299957 
L 59.499693 214.496187 
L 60.225665 199.639907 
L 60.951637 208.806097 
L 61.677608 205.061026 
L 62.40358 171.967699 
L 63.129552 190.645705 
L 63.855524 177.116575 
L 64.581495 186.816903 
L 65.307467 247.369137 
L 66.033439 178.542093 
L 66.75941 214.229035 
L 67.485382 210.301109 
L 68.211354 127.064071 
L 68.937325 254.484174 
L 69.663297 182.722794 
L 70.389269 223.945062 
L 71.115241 216.000544 
L 71.841212 199.770915 
L 72.567184 224.081844 
L 73.293156 206.397522 
L 74.019127 207.166252 
L 74.745099 216.74768 
L 75.471071 219.594941 
L 76.197042 208.582025 
L 76.923014 221.083181 
L 77.648986 221.904951 
L 78.374958 240.501545 
L 79.100929 214.196641 
L 79.826901 249.080961 
L 80.552873 240.289527 
L 81.278844 205.08816 
L 82.004816 231.040137 
L 82.730788 220.664297 
L 83.456759 251.088999 
L 84.182731 244.889041 
L 84.908703 226.978639 
L 85.634675 215.433764 
L 86.360646 209.571454 
L 87.086618 230.220565 
L 87.81259 169.329987 
L 88.538561 257.990168 
L 89.264533 158.831814 
L 89.990505 213.943635 
L 90.716477 213.575602 
L 91.442448 234.573135 
L 92.16842 171.954945 
L 92.894392 234.927043 
L 93.620363 172.268495 
L 94.346335 215.017718 
L 95.072307 184.062659 
L 95.798278 196.433052 
L 96.52425 202.148986 
L 97.250222 172.436696 
L 97.976194 173.6217 
L 98.702165 177.523569 
L 99.428137 240.744231 
L 100.154109 218.120348 
L 100.88008 202.042302 
L 101.606052 159.991357 
L 102.332024 203.518251 
L 103.057995 203.36986 
L 103.783967 163.9301 
L 104.509939 212.956162 
L 105.235911 210.754025 
L 105.961882 232.340574 
L 106.687854 185.410659 
L 107.413826 189.270901 
L 108.139797 196.927188 
L 108.865769 152.099508 
L 109.591741 245.883175 
L 110.317712 186.577063 
L 111.043684 211.640465 
L 111.769656 187.43007 
L 112.495628 191.375938 
L 113.221599 185.12318 
L 113.947571 215.098899 
L 114.673543 215.98444 
L 115.399514 189.773935 
L 116.125486 146.668222 
L 116.851458 250.19059 
L 117.57743 195.128512 
L 118.303401 194.902702 
L 119.029373 130.374288 
L 119.755345 257.660788 
L 120.481316 225.774878 
L 121.207288 224.986869 
L 121.93326 164.98436 
L 123.385203 216.060914 
L 124.111175 173.709328 
L 124.837147 244.949903 
L 125.563118 194.431456 
L 126.28909 178.833904 
L 127.015062 205.449078 
L 127.741033 237.884111 
L 128.467005 152.331796 
L 129.192977 195.337736 
L 129.918948 219.612444 
L 130.64492 143.259359 
L 131.370892 171.889694 
L 132.096864 243.267661 
L 132.822835 184.267211 
L 133.548807 237.518419 
L 134.274779 166.362883 
L 135.00075 173.345407 
L 135.726722 202.906856 
L 136.452694 138.566223 
L 137.178665 192.589511 
L 137.904637 171.80644 
L 138.630609 180.14219 
L 139.356581 219.039387 
L 140.082552 220.92101 
L 140.808524 192.843683 
L 141.534496 192.16921 
L 142.260467 178.442424 
L 142.986439 174.720038 
L 143.712411 156.512428 
L 144.438383 219.128558 
L 145.164354 241.811099 
L 145.890326 197.720139 
L 146.616298 107.744121 
L 147.342269 184.988626 
L 148.068241 211.03285 
L 148.794213 204.470734 
L 149.520184 182.141795 
L 150.246156 206.469219 
L 150.972128 258.336952 
L 151.6981 233.148135 
L 153.150043 156.243213 
L 153.876015 205.599862 
L 154.601986 170.878262 
L 155.327958 213.427748 
L 156.05393 170.744285 
L 156.779901 186.09702 
L 157.505873 208.941359 
L 158.231845 198.133779 
L 158.957817 199.762303 
L 159.683788 195.463548 
L 160.40976 187.461727 
L 161.135732 232.233167 
L 161.861703 200.336417 
L 162.587675 215.620695 
L 163.313647 259.566524 
L 164.039618 213.274918 
L 164.76559 209.931675 
L 165.491562 198.771283 
L 166.217534 203.674626 
L 166.943505 173.639092 
L 167.669477 189.279316 
L 168.395449 159.298237 
L 169.12142 212.393505 
L 169.847392 240.278103 
L 170.573364 189.57369 
L 171.299336 256.724833 
L 172.025307 189.13583 
L 172.751279 207.912827 
L 173.477251 149.169496 
L 174.203222 235.796751 
L 174.929194 170.321723 
L 175.655166 180.949035 
L 176.381137 215.425264 
L 177.107109 194.654393 
L 177.833081 177.736077 
L 178.559053 174.110424 
L 180.010996 204.99588 
L 180.736968 239.842476 
L 181.462939 211.623191 
L 182.188911 196.861638 
L 182.914883 191.606258 
L 183.640854 234.871006 
L 184.366826 203.728434 
L 185.092798 145.773699 
L 185.81877 190.588587 
L 186.544741 182.219699 
L 187.270713 191.057819 
L 187.996685 182.7996 
L 188.722656 210.274317 
L 189.448628 214.778081 
L 190.1746 195.211861 
L 190.900571 217.000852 
L 192.352515 198.727798 
L 193.078487 214.749858 
L 193.804458 209.401105 
L 194.53043 208.854322 
L 195.256402 196.704563 
L 195.982373 181.851029 
L 196.708345 199.085605 
L 197.434317 239.682215 
L 198.160289 229.158445 
L 198.88626 212.851014 
L 199.612232 212.295224 
L 200.338204 221.447425 
L 201.064175 237.014167 
L 201.790147 214.467579 
L 202.516119 227.709427 
L 203.24209 210.179425 
L 204.694034 234.992629 
L 205.420006 206.265066 
L 206.145977 237.718335 
L 206.871949 212.733539 
L 207.597921 224.82974 
L 208.323892 209.266179 
L 209.049864 218.260934 
L 209.775836 239.959622 
L 210.501807 208.542574 
L 211.227779 196.502296 
L 211.953751 213.580221 
L 212.679723 242.619571 
L 213.405694 190.522338 
L 214.131666 207.968031 
L 214.857638 179.425638 
L 215.583609 225.520807 
L 216.309581 215.34502 
L 217.035553 200.200314 
L 217.761524 180.006727 
L 218.487496 231.15735 
L 219.213468 164.649142 
L 219.93944 173.335017 
L 220.665411 180.185649 
L 221.391383 195.042856 
L 222.117355 192.303253 
L 222.843326 241.706914 
L 223.569298 164.967183 
L 224.29527 142.815104 
L 225.021242 211.30787 
L 225.747213 227.839214 
L 226.473185 180.861372 
L 227.199157 164.47311 
L 227.925128 206.37212 
L 228.6511 187.862022 
L 229.377072 177.007127 
L 230.103043 208.217404 
L 230.829015 245.097534 
L 231.554987 195.529578 
L 232.280959 216.234212 
L 233.00693 143.661724 
L 233.732902 220.34809 
L 234.458874 138.237522 
L 235.184845 202.738183 
L 235.910817 157.055561 
L 236.636789 204.393988 
L 237.36276 210.906848 
L 238.088732 179.800526 
L 238.814704 220.834679 
L 239.540676 220.791195 
L 240.266647 211.604312 
L 240.992619 171.921661 
L 241.718591 206.587105 
L 242.444562 204.869937 
L 243.170534 184.297496 
L 243.896506 187.446242 
L 244.622477 232.752649 
L 245.348449 193.184889 
L 246.074421 198.703961 
L 246.800393 221.8359 
L 247.526364 201.223925 
L 248.978308 215.159237 
L 249.704279 207.356258 
L 250.430251 225.429545 
L 251.156223 201.456522 
L 251.882195 189.928261 
L 252.608166 182.916075 
L 253.334138 181.15301 
L 254.06011 202.671581 
L 254.786081 234.009716 
L 255.512053 229.406015 
L 256.238025 209.227196 
L 256.963996 221.724017 
L 257.689968 242.218568 
L 258.41594 171.876466 
L 259.141912 248.40528 
L 259.867883 226.068787 
L 260.593855 223.333113 
L 262.045798 237.468117 
L 262.77177 218.123863 
L 263.497742 244.380464 
L 264.223713 231.979226 
L 264.949685 224.619682 
L 265.675657 222.490801 
L 266.401629 250.98179 
L 267.1276 167.242789 
L 268.579544 235.076949 
L 269.305515 203.001266 
L 270.031487 219.315972 
L 270.757459 224.857692 
L 271.48343 215.137269 
L 272.209402 224.791307 
L 272.935374 239.7696 
L 273.661346 243.516036 
L 274.387317 227.953044 
L 275.113289 223.185012 
L 275.839261 232.322696 
L 276.565232 233.446895 
L 277.291204 181.939705 
L 278.017176 227.449717 
L 278.743148 231.293706 
L 279.469119 202.714646 
L 280.195091 236.409157 
L 280.921063 210.65372 
L 281.647034 216.74092 
L 282.373006 221.064433 
L 283.098978 223.815447 
L 283.824949 207.568442 
L 284.550921 216.854558 
L 285.276893 210.621202 
L 286.002865 220.963275 
L 286.728836 207.375196 
L 287.454808 214.25491 
L 288.18078 180.646489 
L 288.906751 211.699402 
L 289.632723 184.95398 
L 290.358695 206.326306 
L 291.084666 185.845172 
L 291.810638 212.404482 
L 292.53661 194.50043 
L 293.262582 213.957422 
L 293.988553 192.359826 
L 294.714525 216.391841 
L 295.440497 199.27817 
L 296.166468 202.019965 
L 296.89244 190.607561 
L 297.618412 200.766169 
L 298.344383 184.988429 
L 299.070355 197.01479 
L 299.796327 153.210547 
L 300.522299 253.449356 
L 301.24827 133.541874 
L 301.974242 193.140135 
L 302.700214 155.514263 
L 303.426185 172.798298 
L 304.152157 138.915308 
L 304.878129 209.673097 
L 306.330072 180.494991 
L 307.056044 222.255691 
L 307.782016 213.79481 
L 308.507987 202.238135 
L 309.233959 187.550476 
L 309.959931 199.774737 
L 310.685902 189.980418 
L 311.411874 207.025479 
L 312.137846 201.786574 
L 312.863818 180.969753 
L 313.589789 191.888783 
L 314.315761 199.373847 
L 315.041733 183.850434 
L 315.767704 177.720523 
L 316.493676 208.727134 
L 317.219648 220.03611 
L 317.945619 164.611667 
L 318.671591 187.816333 
L 319.397563 191.613492 
L 320.123535 209.050803 
L 320.849506 188.601836 
L 321.575478 220.963594 
L 322.30145 227.179614 
L 323.027421 211.300338 
L 323.753393 154.819575 
L 325.205336 240.000893 
L 325.931308 207.365297 
L 326.65728 214.718426 
L 327.383252 198.442919 
L 328.109223 215.592193 
L 328.835195 199.078718 
L 329.561167 243.304244 
L 330.287138 201.684181 
L 331.01311 175.697554 
L 331.739082 233.935168 
L 332.465054 168.120231 
L 333.191025 212.751175 
L 333.916997 230.824062 
L 334.642969 227.397916 
L 335.36894 183.670857 
L 336.094912 238.804918 
L 336.820884 226.324122 
L 337.546855 228.638186 
L 338.998799 193.761102 
L 339.724771 189.557954 
L 340.450742 230.735056 
L 341.176714 224.848196 
L 341.902686 208.992615 
L 342.628657 190.230416 
L 343.354629 235.229467 
L 344.080601 202.593197 
L 344.806572 202.054858 
L 345.532544 237.968483 
L 346.258516 198.718881 
L 346.984488 226.343706 
L 347.710459 211.554232 
L 348.436431 218.998676 
L 349.162403 215.93527 
L 349.888374 216.089389 
L 350.614346 215.064142 
L 351.340318 219.706709 
L 352.066289 218.972911 
L 352.792261 213.141802 
L 353.518233 197.914771 
L 354.244205 210.762852 
L 354.970176 235.106731 
L 355.696148 191.964841 
L 356.42212 233.571696 
L 357.148091 209.437297 
L 357.874063 213.281133 
L 358.600035 221.082636 
L 359.326007 220.575831 
L 360.051978 215.192889 
L 360.77795 185.267193 
L 361.503922 239.854809 
L 362.229893 209.686022 
L 362.955865 215.660348 
L 363.681837 218.80749 
L 364.407808 217.979422 
L 365.13378 212.047177 
L 365.859752 208.647305 
L 366.585724 212.451069 
L 367.311695 214.973875 
L 368.037667 210.273706 
L 368.763639 232.792751 
L 369.48961 214.229623 
L 370.215582 236.858785 
L 370.941554 232.220008 
L 371.667525 218.397068 
L 372.393497 234.626016 
L 373.119469 220.628167 
L 373.845441 217.316811 
L 374.571412 213.322658 
L 375.297384 227.803142 
L 376.023356 211.50251 
L 376.749327 209.34335 
L 377.475299 215.833609 
L 378.201271 218.201322 
L 378.927242 215.001472 
L 379.653214 196.440401 
L 380.379186 211.887622 
L 381.105158 202.034645 
L 381.831129 212.985604 
L 382.557101 204.109117 
L 383.283073 212.413375 
L 384.009044 229.967399 
L 384.735016 188.497106 
L 385.460988 216.712261 
L 386.18696 234.654194 
L 386.912931 191.820171 
L 387.638903 231.829726 
L 388.364875 196.74101 
L 389.090846 198.837607 
L 389.816818 217.981999 
L 390.54279 214.020129 
L 391.268761 195.16513 
L 391.994733 206.439104 
L 393.446677 187.382897 
L 394.172648 198.708822 
L 394.89862 214.997534 
L 395.624592 204.367831 
L 397.076535 179.668135 
L 397.802507 183.594288 
L 398.528478 178.871936 
L 399.25445 176.480175 
L 399.980422 186.162117 
L 400.706394 179.196636 
L 401.432365 175.602091 
L 402.158337 195.460976 
L 402.884309 161.179654 
L 403.61028 183.472424 
L 404.336252 168.331631 
L 405.062224 175.417714 
L 405.788195 159.575739 
L 406.514167 175.010746 
L 407.240139 177.716281 
L 407.966111 175.532135 
L 408.692082 205.925976 
L 409.418054 180.886814 
L 410.144026 215.333738 
L 410.869997 165.784186 
L 411.595969 171.515041 
L 412.321941 211.439877 
L 413.047913 164.902767 
L 413.773884 171.848317 
L 414.499856 173.006068 
L 415.225828 165.184427 
L 415.951799 155.169903 
L 416.677771 198.525641 
L 417.403743 160.563508 
L 418.855686 198.011472 
L 419.581658 171.820379 
L 420.30763 184.379018 
L 421.033601 177.813263 
L 421.759573 208.428006 
L 422.485545 208.796875 
L 423.211516 201.045421 
L 423.937488 205.740267 
L 424.66346 204.164118 
L 425.389431 198.593312 
L 426.115403 203.46693 
L 426.841375 204.051733 
L 427.567347 205.203634 
L 428.293318 200.504069 
L 429.01929 205.879797 
L 429.745262 204.376891 
L 430.471233 207.003845 
L 431.197205 199.744123 
L 431.923177 203.55704 
L 432.649148 199.937953 
L 433.37512 217.901394 
L 434.101092 209.958892 
L 434.827064 208.204177 
L 435.553035 196.982382 
L 436.279007 206.281482 
L 437.004979 196.229344 
L 437.73095 203.962009 
L 438.456922 194.338622 
L 439.182894 206.223974 
L 439.908866 209.743569 
L 440.634837 204.96642 
L 441.360809 208.652652 
L 442.086781 197.970448 
L 442.812752 205.370829 
L 443.538724 194.976057 
L 444.264696 201.442937 
L 444.990667 189.718857 
L 445.716639 201.389541 
L 446.442611 188.620174 
L 447.168583 195.84708 
L 447.894554 200.077581 
L 448.620526 201.184654 
L 449.346498 202.608065 
L 450.072469 200.918755 
L 450.798441 202.690161 
L 451.524413 200.993489 
L 452.250384 194.682593 
L 452.976356 202.321865 
L 453.702328 195.681698 
L 454.4283 199.240565 
L 455.154271 193.756963 
L 455.880243 199.983633 
L 456.606215 201.141108 
L 457.332186 193.203416 
L 458.058158 194.912926 
L 458.78413 203.472876 
L 459.510101 200.142997 
L 460.236073 202.613655 
L 460.962045 198.637426 
L 461.688017 201.490077 
L 462.413988 203.411514 
L 463.13996 203.876754 
L 463.865932 205.482093 
L 464.591903 205.768138 
L 464.591903 205.768138 
" style="fill:none;stroke:#2ca02c;stroke-linecap:square;stroke-width:1.5;"/>
   </g>
   <g id="line2d_4">
    <path clip-path="url(#p0a59b449cd)" d="M 58.773722 198.961444 
L 59.499693 262.665207 
L 60.225665 218.341503 
L 60.951637 243.25938 
L 61.677608 240.703541 
L 62.40358 219.946953 
L 63.129552 230.933469 
L 63.855524 198.594953 
L 64.581495 222.370391 
L 65.307467 260.464182 
L 66.75941 188.97714 
L 67.485382 247.793094 
L 68.211354 221.534883 
L 68.937325 260.092515 
L 69.663297 162.830276 
L 70.389269 243.978109 
L 71.115241 242.561295 
L 71.841212 224.952611 
L 72.567184 237.670718 
L 73.293156 230.396863 
L 74.019127 231.835274 
L 74.745099 223.237394 
L 75.471071 239.838454 
L 76.197042 216.524652 
L 77.648986 254.170903 
L 78.374958 250.797842 
L 79.100929 234.959099 
L 79.826901 258.125345 
L 80.552873 225.117709 
L 81.278844 244.662129 
L 82.004816 232.610281 
L 82.730788 248.110259 
L 83.456759 258.54171 
L 84.182731 258.816214 
L 84.908703 247.291949 
L 85.634675 250.534988 
L 86.360646 252.598727 
L 87.086618 239.410599 
L 87.81259 260.874334 
L 88.538561 240.35642 
L 89.264533 243.814682 
L 89.990505 243.427453 
L 90.716477 243.967869 
L 91.442448 261.097402 
L 92.16842 234.186003 
L 92.894392 268.167052 
L 93.620363 176.859603 
L 94.346335 250.145295 
L 95.072307 197.794635 
L 95.798278 235.469666 
L 97.250222 202.937708 
L 97.976194 209.380653 
L 98.702165 201.639264 
L 99.428137 261.800306 
L 100.154109 254.053688 
L 100.88008 224.803608 
L 101.606052 188.102694 
L 102.332024 206.898575 
L 103.057995 232.994835 
L 103.783967 186.248551 
L 104.509939 243.444321 
L 105.235911 230.191247 
L 105.961882 249.182901 
L 106.687854 225.618465 
L 107.413826 238.316456 
L 108.139797 229.911913 
L 108.865769 235.132882 
L 109.591741 268.246458 
L 110.317712 254.454741 
L 111.043684 243.733782 
L 111.769656 243.105089 
L 112.495628 216.504462 
L 113.221599 178.022709 
L 113.947571 242.584428 
L 114.673543 231.580341 
L 115.399514 174.741066 
L 116.125486 235.459716 
L 116.851458 232.963146 
L 117.57743 228.187434 
L 118.303401 207.544763 
L 119.029373 227.619711 
L 119.755345 270.398487 
L 120.481316 201.09151 
L 121.207288 239.328659 
L 121.93326 227.195183 
L 122.659231 242.804252 
L 123.385203 239.454089 
L 124.111175 241.075098 
L 124.837147 259.056657 
L 125.563118 259.513798 
L 126.28909 155.441653 
L 127.015062 248.325895 
L 127.741033 262.459774 
L 128.467005 217.275327 
L 129.192977 195.180074 
L 129.918948 235.256816 
L 130.64492 217.689813 
L 131.370892 232.957917 
L 132.096864 236.21689 
L 132.822835 224.75462 
L 133.548807 218.188946 
L 134.274779 237.108902 
L 135.00075 227.234428 
L 135.726722 235.253676 
L 136.452694 159.496882 
L 137.904637 206.290327 
L 138.630609 212.998874 
L 139.356581 233.629459 
L 140.082552 246.376619 
L 140.808524 203.689167 
L 141.534496 192.639964 
L 142.260467 197.14968 
L 142.986439 211.094832 
L 143.712411 216.906741 
L 144.438383 225.308008 
L 145.164354 252.999113 
L 145.890326 171.031908 
L 146.616298 214.180776 
L 147.342269 214.317047 
L 148.068241 239.182757 
L 148.794213 240.015789 
L 149.520184 119.574269 
L 150.246156 223.447824 
L 150.972128 266.798408 
L 151.6981 222.35978 
L 152.424071 219.236901 
L 153.150043 175.819328 
L 153.876015 219.177419 
L 154.601986 195.973287 
L 155.327958 229.1543 
L 156.05393 186.935458 
L 156.779901 217.691617 
L 157.505873 221.190658 
L 158.231845 221.32558 
L 158.957817 224.339703 
L 159.683788 224.811019 
L 160.40976 143.976276 
L 161.135732 214.052811 
L 161.861703 159.70858 
L 162.587675 217.567564 
L 163.313647 246.864207 
L 164.039618 218.12291 
L 164.76559 227.431258 
L 165.491562 215.964674 
L 166.217534 168.402168 
L 166.943505 199.777474 
L 167.669477 128.059666 
L 168.395449 161.996086 
L 169.12142 190.115433 
L 169.847392 232.158304 
L 170.573364 195.728505 
L 171.299336 237.611997 
L 172.025307 189.479275 
L 172.751279 211.696585 
L 173.477251 217.076354 
L 174.203222 182.486679 
L 174.929194 213.417198 
L 175.655166 182.329592 
L 176.381137 226.077718 
L 177.107109 208.113662 
L 177.833081 199.636178 
L 178.559053 222.823385 
L 179.285024 185.909724 
L 180.010996 240.981983 
L 180.736968 221.682338 
L 181.462939 249.322225 
L 182.188911 215.712897 
L 182.914883 223.089364 
L 183.640854 229.222004 
L 184.366826 224.891348 
L 185.092798 230.564267 
L 185.81877 224.927414 
L 186.544741 167.598075 
L 187.270713 213.909494 
L 187.996685 215.929713 
L 188.722656 215.385291 
L 189.448628 258.280507 
L 190.1746 158.825287 
L 190.900571 260.901093 
L 191.626543 235.81218 
L 192.352515 238.468608 
L 193.078487 259.393554 
L 193.804458 250.814256 
L 194.53043 227.921465 
L 195.256402 236.840118 
L 195.982373 183.363522 
L 196.708345 209.786174 
L 197.434317 262.067656 
L 198.160289 254.850425 
L 198.88626 252.018325 
L 199.612232 235.59953 
L 200.338204 237.035358 
L 201.064175 254.862388 
L 201.790147 263.62624 
L 202.516119 236.54968 
L 203.24209 240.764248 
L 203.968062 253.494839 
L 204.694034 226.882338 
L 205.420006 242.061102 
L 206.145977 233.601629 
L 206.871949 244.675671 
L 207.597921 238.901929 
L 208.323892 234.929253 
L 209.049864 194.369358 
L 209.775836 261.769646 
L 210.501807 210.738481 
L 211.227779 238.797091 
L 211.953751 231.728816 
L 212.679723 264.825222 
L 213.405694 257.110571 
L 214.131666 241.899328 
L 214.857638 241.966532 
L 215.583609 251.397843 
L 216.309581 241.245541 
L 217.035553 190.197837 
L 217.761524 223.487673 
L 218.487496 223.861738 
L 219.213468 205.214988 
L 219.93944 240.078394 
L 220.665411 186.941742 
L 221.391383 221.819937 
L 222.117355 210.661176 
L 222.843326 262.171683 
L 223.569298 227.367733 
L 224.29527 228.432969 
L 225.021242 198.448358 
L 225.747213 254.107333 
L 226.473185 222.458441 
L 227.199157 200.846087 
L 227.925128 206.718149 
L 228.6511 214.085508 
L 229.377072 240.21626 
L 230.103043 168.340161 
L 230.829015 247.705373 
L 231.554987 183.759757 
L 232.280959 236.008796 
L 233.732902 193.296231 
L 234.458874 224.251464 
L 235.184845 221.844423 
L 235.910817 194.669713 
L 236.636789 228.085963 
L 237.36276 238.532641 
L 238.088732 232.641346 
L 238.814704 256.41097 
L 239.540676 207.826522 
L 240.266647 240.767255 
L 240.992619 214.248247 
L 241.718591 234.527494 
L 242.444562 230.699941 
L 243.170534 238.181149 
L 243.896506 232.794705 
L 244.622477 232.160099 
L 245.348449 233.664792 
L 246.074421 237.053572 
L 246.800393 232.73927 
L 248.252336 243.372096 
L 248.978308 227.523267 
L 249.704279 217.217626 
L 250.430251 245.387026 
L 251.156223 223.252662 
L 251.882195 211.836907 
L 252.608166 235.479435 
L 253.334138 228.52962 
L 254.06011 205.485062 
L 254.786081 259.987468 
L 255.512053 239.15245 
L 256.238025 234.057679 
L 256.963996 244.880045 
L 257.689968 216.241165 
L 258.41594 216.659463 
L 259.141912 237.201287 
L 259.867883 243.365703 
L 260.593855 232.733604 
L 261.319827 243.341525 
L 262.045798 246.379996 
L 262.77177 235.758407 
L 263.497742 252.918047 
L 264.223713 243.48411 
L 264.949685 248.093966 
L 265.675657 194.007923 
L 266.401629 257.828517 
L 267.1276 237.291882 
L 267.853572 207.229221 
L 268.579544 255.457264 
L 269.305515 236.928613 
L 270.031487 248.860744 
L 270.757459 245.463371 
L 271.48343 204.857925 
L 272.209402 221.780426 
L 272.935374 248.994086 
L 273.661346 254.600925 
L 274.387317 185.855254 
L 275.113289 219.420478 
L 275.839261 235.098975 
L 276.565232 223.689163 
L 277.291204 230.438314 
L 278.017176 230.987435 
L 278.743148 223.596105 
L 279.469119 222.561464 
L 280.195091 224.379884 
L 280.921063 227.801698 
L 281.647034 220.921815 
L 282.373006 234.764823 
L 283.098978 230.80806 
L 283.824949 227.614827 
L 284.550921 231.572499 
L 285.276893 223.335258 
L 286.002865 233.617567 
L 286.728836 225.325247 
L 287.454808 231.078697 
L 288.18078 230.576941 
L 288.906751 232.722361 
L 291.084666 217.549911 
L 291.810638 224.022873 
L 292.53661 227.498649 
L 293.262582 196.736777 
L 293.988553 228.61689 
L 294.714525 184.102115 
L 295.440497 228.581099 
L 296.166468 208.268021 
L 296.89244 207.011654 
L 297.618412 216.21859 
L 298.344383 204.052809 
L 299.070355 182.929122 
L 300.522299 263.496108 
L 301.24827 208.993343 
L 301.974242 241.121942 
L 302.700214 225.653812 
L 303.426185 226.451193 
L 304.152157 220.645437 
L 304.878129 184.700483 
L 305.604101 256.152994 
L 306.330072 197.548898 
L 307.056044 247.225634 
L 307.782016 239.739545 
L 308.507987 226.600337 
L 309.233959 233.234818 
L 309.959931 219.971895 
L 310.685902 236.114365 
L 311.411874 195.594607 
L 312.137846 239.366204 
L 312.863818 235.013736 
L 313.589789 233.598053 
L 314.315761 227.338195 
L 315.041733 226.580785 
L 315.767704 237.778234 
L 316.493676 222.157613 
L 317.219648 265.244218 
L 317.945619 220.325785 
L 318.671591 236.687021 
L 319.397563 236.276559 
L 320.123535 248.258458 
L 320.849506 233.495894 
L 321.575478 268.53106 
L 322.30145 261.906777 
L 323.027421 244.326008 
L 323.753393 186.788756 
L 324.479365 246.502607 
L 325.205336 267.457995 
L 325.931308 219.322052 
L 326.65728 257.640998 
L 327.383252 242.624299 
L 328.109223 205.513656 
L 328.835195 246.807224 
L 329.561167 262.382132 
L 330.287138 241.684917 
L 331.01311 250.317315 
L 331.739082 223.457137 
L 332.465054 245.675864 
L 333.191025 245.672048 
L 333.916997 235.632741 
L 334.642969 259.402857 
L 335.36894 244.773531 
L 336.094912 257.245166 
L 336.820884 222.885454 
L 337.546855 244.381262 
L 338.272827 236.259364 
L 338.998799 242.116004 
L 339.724771 240.962135 
L 340.450742 239.259276 
L 341.176714 235.656771 
L 341.902686 233.737695 
L 342.628657 237.450534 
L 343.354629 238.109339 
L 344.080601 236.232617 
L 344.806572 239.98282 
L 345.532544 233.313487 
L 346.258516 237.626685 
L 346.984488 232.194951 
L 347.710459 237.43413 
L 348.436431 235.646712 
L 349.162403 237.086529 
L 349.888374 235.856825 
L 350.614346 231.673198 
L 351.340318 239.374875 
L 352.066289 235.892872 
L 352.792261 234.330198 
L 353.518233 230.84089 
L 354.244205 234.901465 
L 354.970176 234.546423 
L 355.696148 220.324375 
L 356.42212 232.026148 
L 357.148091 229.520742 
L 357.874063 237.519046 
L 358.600035 234.032955 
L 359.326007 242.897001 
L 360.77795 225.466603 
L 361.503922 252.706757 
L 362.229893 230.396084 
L 362.955865 237.305304 
L 363.681837 233.084545 
L 364.407808 239.757289 
L 365.13378 229.420341 
L 365.859752 237.322614 
L 366.585724 241.447515 
L 367.311695 241.215986 
L 368.037667 235.024422 
L 368.763639 253.723124 
L 369.48961 213.958206 
L 370.215582 256.113504 
L 370.941554 241.654612 
L 371.667525 217.506709 
L 372.393497 238.492689 
L 373.119469 232.785003 
L 373.845441 228.546555 
L 374.571412 233.950411 
L 375.297384 248.019427 
L 376.023356 228.267004 
L 376.749327 216.52316 
L 377.475299 236.156297 
L 378.201271 246.550213 
L 378.927242 230.849123 
L 379.653214 239.568646 
L 380.379186 240.493973 
L 381.105158 236.250971 
L 381.831129 235.31544 
L 382.557101 232.87702 
L 383.283073 242.99456 
L 384.009044 250.522737 
L 384.735016 234.926342 
L 385.460988 237.28405 
L 386.18696 254.909639 
L 386.912931 238.408924 
L 387.638903 253.09198 
L 388.364875 242.162578 
L 389.090846 242.575872 
L 389.816818 252.656729 
L 390.54279 251.457332 
L 391.268761 245.309267 
L 391.994733 248.704582 
L 392.720705 250.089885 
L 393.446677 217.538709 
L 394.89862 254.974868 
L 395.624592 230.830245 
L 396.350563 225.952366 
L 397.076535 210.26441 
L 397.802507 219.858122 
L 398.528478 217.022408 
L 399.25445 214.941636 
L 399.980422 217.532165 
L 400.706394 224.290769 
L 401.432365 224.771293 
L 402.158337 239.522937 
L 402.884309 202.069241 
L 403.61028 213.535297 
L 404.336252 212.158816 
L 405.062224 208.785737 
L 405.788195 219.375752 
L 406.514167 203.725805 
L 407.240139 206.062702 
L 408.692082 241.729808 
L 409.418054 198.565159 
L 410.144026 234.308592 
L 410.869997 216.782019 
L 411.595969 220.990079 
L 412.321941 230.547779 
L 413.047913 208.337967 
L 413.773884 224.298851 
L 414.499856 226.553402 
L 415.225828 220.844218 
L 415.951799 217.818174 
L 416.677771 229.826011 
L 417.403743 224.334326 
L 418.129714 226.451489 
L 418.855686 229.108776 
L 419.581658 210.871403 
L 420.30763 226.226162 
L 421.033601 218.171872 
L 421.759573 242.277028 
L 422.485545 239.157757 
L 423.211516 241.255352 
L 423.937488 230.161161 
L 424.66346 241.427894 
L 425.389431 233.674373 
L 426.115403 241.969215 
L 426.841375 241.28745 
L 427.567347 248.376962 
L 428.293318 241.480412 
L 429.01929 250.649626 
L 429.745262 227.963994 
L 430.471233 249.005053 
L 431.197205 239.19233 
L 431.923177 240.839388 
L 432.649148 224.355126 
L 433.37512 247.008257 
L 434.101092 246.12597 
L 434.827064 235.775201 
L 435.553035 239.38414 
L 436.279007 237.919294 
L 437.004979 238.587889 
L 437.73095 236.322622 
L 438.456922 238.563695 
L 439.182894 238.535226 
L 439.908866 236.686786 
L 440.634837 236.082297 
L 441.360809 238.151312 
L 442.086781 238.044006 
L 442.812752 235.046222 
L 443.538724 238.7971 
L 444.264696 235.568596 
L 444.990667 235.962114 
L 445.716639 235.36164 
L 446.442611 235.779641 
L 447.168583 235.571274 
L 447.894554 235.751265 
L 448.620526 235.063956 
L 449.346498 235.859678 
L 450.072469 237.674845 
L 450.798441 236.246725 
L 451.524413 235.627997 
L 452.250384 235.479658 
L 452.976356 235.083476 
L 453.702328 236.98509 
L 454.4283 236.405659 
L 455.154271 235.277691 
L 455.880243 235.498041 
L 456.606215 234.97165 
L 457.332186 235.887481 
L 458.058158 236.427314 
L 458.78413 235.876072 
L 459.510101 235.545196 
L 461.688017 235.839625 
L 462.413988 235.549359 
L 463.13996 240.018632 
L 463.865932 236.242275 
L 464.591903 237.213332 
L 464.591903 237.213332 
" style="fill:none;stroke:#d62728;stroke-linecap:square;stroke-width:1.5;"/>
   </g>
   <g id="line2d_5">
    <path clip-path="url(#p0a59b449cd)" d="M 58.773722 229.533619 
L 464.591903 229.533619 
L 464.591903 229.533619 
" style="fill:none;stroke:#000000;stroke-dasharray:3.7,1.6;stroke-dashoffset:0;"/>
   </g>
   <g id="matplotlib.axis_1">
    <g id="xtick_1">
     <g id="line2d_6">
      <defs>
       <path d="M 0 0 
L 0 3.5 
" id="mc30ceb4f26" style="stroke:#000000;stroke-width:0.8;"/>
      </defs>
      <g>
       <use style="stroke:#000000;stroke-width:0.8;" x="79.826901" xlink:href="#mc30ceb4f26" y="294.118125"/>
      </g>
     </g>
     <g id="text_1">
      <!-- 100 -->
      <defs>
       <path d="M 12.40625 8.296875 
L 28.515625 8.296875 
L 28.515625 63.921875 
L 10.984375 60.40625 
L 10.984375 69.390625 
L 28.421875 72.90625 
L 38.28125 72.90625 
L 38.28125 8.296875 
L 54.390625 8.296875 
L 54.390625 0 
L 12.40625 0 
z
" id="DejaVuSans-49"/>
       <path d="M 31.78125 66.40625 
Q 24.171875 66.40625 20.328125 58.90625 
Q 16.5 51.421875 16.5 36.375 
Q 16.5 21.390625 20.328125 13.890625 
Q 24.171875 6.390625 31.78125 6.390625 
Q 39.453125 6.390625 43.28125 13.890625 
Q 47.125 21.390625 47.125 36.375 
Q 47.125 51.421875 43.28125 58.90625 
Q 39.453125 66.40625 31.78125 66.40625 
z
M 31.78125 74.21875 
Q 44.046875 74.21875 50.515625 64.515625 
Q 56.984375 54.828125 56.984375 36.375 
Q 56.984375 17.96875 50.515625 8.265625 
Q 44.046875 -1.421875 31.78125 -1.421875 
Q 19.53125 -1.421875 13.0625 8.265625 
Q 6.59375 17.96875 6.59375 36.375 
Q 6.59375 54.828125 13.0625 64.515625 
Q 19.53125 74.21875 31.78125 74.21875 
z
" id="DejaVuSans-48"/>
      </defs>
      <g transform="translate(70.283151 308.716563)scale(0.1 -0.1)">
       <use xlink:href="#DejaVuSans-49"/>
       <use x="63.623047" xlink:href="#DejaVuSans-48"/>
       <use x="127.246094" xlink:href="#DejaVuSans-48"/>
      </g>
     </g>
    </g>
    <g id="xtick_2">
     <g id="line2d_7">
      <g>
       <use style="stroke:#000000;stroke-width:0.8;" x="152.424071" xlink:href="#mc30ceb4f26" y="294.118125"/>
      </g>
     </g>
     <g id="text_2">
      <!-- 200 -->
      <defs>
       <path d="M 19.1875 8.296875 
L 53.609375 8.296875 
L 53.609375 0 
L 7.328125 0 
L 7.328125 8.296875 
Q 12.9375 14.109375 22.625 23.890625 
Q 32.328125 33.6875 34.8125 36.53125 
Q 39.546875 41.84375 41.421875 45.53125 
Q 43.3125 49.21875 43.3125 52.78125 
Q 43.3125 58.59375 39.234375 62.25 
Q 35.15625 65.921875 28.609375 65.921875 
Q 23.96875 65.921875 18.8125 64.3125 
Q 13.671875 62.703125 7.8125 59.421875 
L 7.8125 69.390625 
Q 13.765625 71.78125 18.9375 73 
Q 24.125 74.21875 28.421875 74.21875 
Q 39.75 74.21875 46.484375 68.546875 
Q 53.21875 62.890625 53.21875 53.421875 
Q 53.21875 48.921875 51.53125 44.890625 
Q 49.859375 40.875 45.40625 35.40625 
Q 44.1875 33.984375 37.640625 27.21875 
Q 31.109375 20.453125 19.1875 8.296875 
z
" id="DejaVuSans-50"/>
      </defs>
      <g transform="translate(142.880321 308.716563)scale(0.1 -0.1)">
       <use xlink:href="#DejaVuSans-50"/>
       <use x="63.623047" xlink:href="#DejaVuSans-48"/>
       <use x="127.246094" xlink:href="#DejaVuSans-48"/>
      </g>
     </g>
    </g>
    <g id="xtick_3">
     <g id="line2d_8">
      <g>
       <use style="stroke:#000000;stroke-width:0.8;" x="225.021242" xlink:href="#mc30ceb4f26" y="294.118125"/>
      </g>
     </g>
     <g id="text_3">
      <!-- 300 -->
      <defs>
       <path d="M 40.578125 39.3125 
Q 47.65625 37.796875 51.625 33 
Q 55.609375 28.21875 55.609375 21.1875 
Q 55.609375 10.40625 48.1875 4.484375 
Q 40.765625 -1.421875 27.09375 -1.421875 
Q 22.515625 -1.421875 17.65625 -0.515625 
Q 12.796875 0.390625 7.625 2.203125 
L 7.625 11.71875 
Q 11.71875 9.328125 16.59375 8.109375 
Q 21.484375 6.890625 26.8125 6.890625 
Q 36.078125 6.890625 40.9375 10.546875 
Q 45.796875 14.203125 45.796875 21.1875 
Q 45.796875 27.640625 41.28125 31.265625 
Q 36.765625 34.90625 28.71875 34.90625 
L 20.21875 34.90625 
L 20.21875 43.015625 
L 29.109375 43.015625 
Q 36.375 43.015625 40.234375 45.921875 
Q 44.09375 48.828125 44.09375 54.296875 
Q 44.09375 59.90625 40.109375 62.90625 
Q 36.140625 65.921875 28.71875 65.921875 
Q 24.65625 65.921875 20.015625 65.03125 
Q 15.375 64.15625 9.8125 62.3125 
L 9.8125 71.09375 
Q 15.4375 72.65625 20.34375 73.4375 
Q 25.25 74.21875 29.59375 74.21875 
Q 40.828125 74.21875 47.359375 69.109375 
Q 53.90625 64.015625 53.90625 55.328125 
Q 53.90625 49.265625 50.4375 45.09375 
Q 46.96875 40.921875 40.578125 39.3125 
z
" id="DejaVuSans-51"/>
      </defs>
      <g transform="translate(215.477492 308.716563)scale(0.1 -0.1)">
       <use xlink:href="#DejaVuSans-51"/>
       <use x="63.623047" xlink:href="#DejaVuSans-48"/>
       <use x="127.246094" xlink:href="#DejaVuSans-48"/>
      </g>
     </g>
    </g>
    <g id="xtick_4">
     <g id="line2d_9">
      <g>
       <use style="stroke:#000000;stroke-width:0.8;" x="297.618412" xlink:href="#mc30ceb4f26" y="294.118125"/>
      </g>
     </g>
     <g id="text_4">
      <!-- 400 -->
      <defs>
       <path d="M 37.796875 64.3125 
L 12.890625 25.390625 
L 37.796875 25.390625 
z
M 35.203125 72.90625 
L 47.609375 72.90625 
L 47.609375 25.390625 
L 58.015625 25.390625 
L 58.015625 17.1875 
L 47.609375 17.1875 
L 47.609375 0 
L 37.796875 0 
L 37.796875 17.1875 
L 4.890625 17.1875 
L 4.890625 26.703125 
z
" id="DejaVuSans-52"/>
      </defs>
      <g transform="translate(288.074662 308.716563)scale(0.1 -0.1)">
       <use xlink:href="#DejaVuSans-52"/>
       <use x="63.623047" xlink:href="#DejaVuSans-48"/>
       <use x="127.246094" xlink:href="#DejaVuSans-48"/>
      </g>
     </g>
    </g>
    <g id="xtick_5">
     <g id="line2d_10">
      <g>
       <use style="stroke:#000000;stroke-width:0.8;" x="370.215582" xlink:href="#mc30ceb4f26" y="294.118125"/>
      </g>
     </g>
     <g id="text_5">
      <!-- 500 -->
      <defs>
       <path d="M 10.796875 72.90625 
L 49.515625 72.90625 
L 49.515625 64.59375 
L 19.828125 64.59375 
L 19.828125 46.734375 
Q 21.96875 47.46875 24.109375 47.828125 
Q 26.265625 48.1875 28.421875 48.1875 
Q 40.625 48.1875 47.75 41.5 
Q 54.890625 34.8125 54.890625 23.390625 
Q 54.890625 11.625 47.5625 5.09375 
Q 40.234375 -1.421875 26.90625 -1.421875 
Q 22.3125 -1.421875 17.546875 -0.640625 
Q 12.796875 0.140625 7.71875 1.703125 
L 7.71875 11.625 
Q 12.109375 9.234375 16.796875 8.0625 
Q 21.484375 6.890625 26.703125 6.890625 
Q 35.15625 6.890625 40.078125 11.328125 
Q 45.015625 15.765625 45.015625 23.390625 
Q 45.015625 31 40.078125 35.4375 
Q 35.15625 39.890625 26.703125 39.890625 
Q 22.75 39.890625 18.8125 39.015625 
Q 14.890625 38.140625 10.796875 36.28125 
z
" id="DejaVuSans-53"/>
      </defs>
      <g transform="translate(360.671832 308.716563)scale(0.1 -0.1)">
       <use xlink:href="#DejaVuSans-53"/>
       <use x="63.623047" xlink:href="#DejaVuSans-48"/>
       <use x="127.246094" xlink:href="#DejaVuSans-48"/>
      </g>
     </g>
    </g>
    <g id="xtick_6">
     <g id="line2d_11">
      <g>
       <use style="stroke:#000000;stroke-width:0.8;" x="442.812752" xlink:href="#mc30ceb4f26" y="294.118125"/>
      </g>
     </g>
     <g id="text_6">
      <!-- 600 -->
      <defs>
       <path d="M 33.015625 40.375 
Q 26.375 40.375 22.484375 35.828125 
Q 18.609375 31.296875 18.609375 23.390625 
Q 18.609375 15.53125 22.484375 10.953125 
Q 26.375 6.390625 33.015625 6.390625 
Q 39.65625 6.390625 43.53125 10.953125 
Q 47.40625 15.53125 47.40625 23.390625 
Q 47.40625 31.296875 43.53125 35.828125 
Q 39.65625 40.375 33.015625 40.375 
z
M 52.59375 71.296875 
L 52.59375 62.3125 
Q 48.875 64.0625 45.09375 64.984375 
Q 41.3125 65.921875 37.59375 65.921875 
Q 27.828125 65.921875 22.671875 59.328125 
Q 17.53125 52.734375 16.796875 39.40625 
Q 19.671875 43.65625 24.015625 45.921875 
Q 28.375 48.1875 33.59375 48.1875 
Q 44.578125 48.1875 50.953125 41.515625 
Q 57.328125 34.859375 57.328125 23.390625 
Q 57.328125 12.15625 50.6875 5.359375 
Q 44.046875 -1.421875 33.015625 -1.421875 
Q 20.359375 -1.421875 13.671875 8.265625 
Q 6.984375 17.96875 6.984375 36.375 
Q 6.984375 53.65625 15.1875 63.9375 
Q 23.390625 74.21875 37.203125 74.21875 
Q 40.921875 74.21875 44.703125 73.484375 
Q 48.484375 72.75 52.59375 71.296875 
z
" id="DejaVuSans-54"/>
      </defs>
      <g transform="translate(433.269002 308.716563)scale(0.1 -0.1)">
       <use xlink:href="#DejaVuSans-54"/>
       <use x="63.623047" xlink:href="#DejaVuSans-48"/>
       <use x="127.246094" xlink:href="#DejaVuSans-48"/>
      </g>
     </g>
    </g>
    <g id="text_7">
     <!-- Tempo -->
     <defs>
      <path d="M -0.296875 72.90625 
L 61.375 72.90625 
L 61.375 64.59375 
L 35.5 64.59375 
L 35.5 0 
L 25.59375 0 
L 25.59375 64.59375 
L -0.296875 64.59375 
z
" id="DejaVuSans-84"/>
      <path d="M 56.203125 29.59375 
L 56.203125 25.203125 
L 14.890625 25.203125 
Q 15.484375 15.921875 20.484375 11.0625 
Q 25.484375 6.203125 34.421875 6.203125 
Q 39.59375 6.203125 44.453125 7.46875 
Q 49.3125 8.734375 54.109375 11.28125 
L 54.109375 2.78125 
Q 49.265625 0.734375 44.1875 -0.34375 
Q 39.109375 -1.421875 33.890625 -1.421875 
Q 20.796875 -1.421875 13.15625 6.1875 
Q 5.515625 13.8125 5.515625 26.8125 
Q 5.515625 40.234375 12.765625 48.109375 
Q 20.015625 56 32.328125 56 
Q 43.359375 56 49.78125 48.890625 
Q 56.203125 41.796875 56.203125 29.59375 
z
M 47.21875 32.234375 
Q 47.125 39.59375 43.09375 43.984375 
Q 39.0625 48.390625 32.421875 48.390625 
Q 24.90625 48.390625 20.390625 44.140625 
Q 15.875 39.890625 15.1875 32.171875 
z
" id="DejaVuSans-101"/>
      <path d="M 52 44.1875 
Q 55.375 50.25 60.0625 53.125 
Q 64.75 56 71.09375 56 
Q 79.640625 56 84.28125 50.015625 
Q 88.921875 44.046875 88.921875 33.015625 
L 88.921875 0 
L 79.890625 0 
L 79.890625 32.71875 
Q 79.890625 40.578125 77.09375 44.375 
Q 74.3125 48.1875 68.609375 48.1875 
Q 61.625 48.1875 57.5625 43.546875 
Q 53.515625 38.921875 53.515625 30.90625 
L 53.515625 0 
L 44.484375 0 
L 44.484375 32.71875 
Q 44.484375 40.625 41.703125 44.40625 
Q 38.921875 48.1875 33.109375 48.1875 
Q 26.21875 48.1875 22.15625 43.53125 
Q 18.109375 38.875 18.109375 30.90625 
L 18.109375 0 
L 9.078125 0 
L 9.078125 54.6875 
L 18.109375 54.6875 
L 18.109375 46.1875 
Q 21.1875 51.21875 25.484375 53.609375 
Q 29.78125 56 35.6875 56 
Q 41.65625 56 45.828125 52.96875 
Q 50 49.953125 52 44.1875 
z
" id="DejaVuSans-109"/>
      <path d="M 18.109375 8.203125 
L 18.109375 -20.796875 
L 9.078125 -20.796875 
L 9.078125 54.6875 
L 18.109375 54.6875 
L 18.109375 46.390625 
Q 20.953125 51.265625 25.265625 53.625 
Q 29.59375 56 35.59375 56 
Q 45.5625 56 51.78125 48.09375 
Q 58.015625 40.1875 58.015625 27.296875 
Q 58.015625 14.40625 51.78125 6.484375 
Q 45.5625 -1.421875 35.59375 -1.421875 
Q 29.59375 -1.421875 25.265625 0.953125 
Q 20.953125 3.328125 18.109375 8.203125 
z
M 48.6875 27.296875 
Q 48.6875 37.203125 44.609375 42.84375 
Q 40.53125 48.484375 33.40625 48.484375 
Q 26.265625 48.484375 22.1875 42.84375 
Q 18.109375 37.203125 18.109375 27.296875 
Q 18.109375 17.390625 22.1875 11.75 
Q 26.265625 6.109375 33.40625 6.109375 
Q 40.53125 6.109375 44.609375 11.75 
Q 48.6875 17.390625 48.6875 27.296875 
z
" id="DejaVuSans-112"/>
      <path d="M 30.609375 48.390625 
Q 23.390625 48.390625 19.1875 42.75 
Q 14.984375 37.109375 14.984375 27.296875 
Q 14.984375 17.484375 19.15625 11.84375 
Q 23.34375 6.203125 30.609375 6.203125 
Q 37.796875 6.203125 41.984375 11.859375 
Q 46.1875 17.53125 46.1875 27.296875 
Q 46.1875 37.015625 41.984375 42.703125 
Q 37.796875 48.390625 30.609375 48.390625 
z
M 30.609375 56 
Q 42.328125 56 49.015625 48.375 
Q 55.71875 40.765625 55.71875 27.296875 
Q 55.71875 13.875 49.015625 6.21875 
Q 42.328125 -1.421875 30.609375 -1.421875 
Q 18.84375 -1.421875 12.171875 6.21875 
Q 5.515625 13.875 5.515625 27.296875 
Q 5.515625 40.765625 12.171875 48.375 
Q 18.84375 56 30.609375 56 
z
" id="DejaVuSans-111"/>
     </defs>
     <g transform="translate(245.298438 322.394687)scale(0.1 -0.1)">
      <use xlink:href="#DejaVuSans-84"/>
      <use x="44.083984" xlink:href="#DejaVuSans-101"/>
      <use x="105.607422" xlink:href="#DejaVuSans-109"/>
      <use x="203.019531" xlink:href="#DejaVuSans-112"/>
      <use x="266.496094" xlink:href="#DejaVuSans-111"/>
     </g>
    </g>
   </g>
   <g id="matplotlib.axis_2">
    <g id="ytick_1">
     <g id="line2d_12">
      <defs>
       <path d="M 0 0 
L -3.5 0 
" id="meed53b265b" style="stroke:#000000;stroke-width:0.8;"/>
      </defs>
      <g>
       <use style="stroke:#000000;stroke-width:0.8;" x="38.482813" xlink:href="#meed53b265b" y="268.414601"/>
      </g>
     </g>
     <g id="text_8">
      <!-- 0.5 -->
      <defs>
       <path d="M 10.59375 35.5 
L 73.1875 35.5 
L 73.1875 27.203125 
L 10.59375 27.203125 
z
" id="DejaVuSans-8722"/>
       <path d="M 10.6875 12.40625 
L 21 12.40625 
L 21 0 
L 10.6875 0 
z
" id="DejaVuSans-46"/>
      </defs>
      <g transform="translate(7.2 272.213819)scale(0.1 -0.1)">
       <use xlink:href="#DejaVuSans-8722"/>
       <use x="83.789062" xlink:href="#DejaVuSans-48"/>
       <use x="147.412109" xlink:href="#DejaVuSans-46"/>
       <use x="179.199219" xlink:href="#DejaVuSans-53"/>
      </g>
     </g>
    </g>
    <g id="ytick_2">
     <g id="line2d_13">
      <g>
       <use style="stroke:#000000;stroke-width:0.8;" x="38.482813" xlink:href="#meed53b265b" y="229.533619"/>
      </g>
     </g>
     <g id="text_9">
      <!-- 0.0 -->
      <g transform="translate(15.579688 233.332838)scale(0.1 -0.1)">
       <use xlink:href="#DejaVuSans-48"/>
       <use x="63.623047" xlink:href="#DejaVuSans-46"/>
       <use x="95.410156" xlink:href="#DejaVuSans-48"/>
      </g>
     </g>
    </g>
    <g id="ytick_3">
     <g id="line2d_14">
      <g>
       <use style="stroke:#000000;stroke-width:0.8;" x="38.482813" xlink:href="#meed53b265b" y="190.652638"/>
      </g>
     </g>
     <g id="text_10">
      <!-- 0.5 -->
      <g transform="translate(15.579688 194.451857)scale(0.1 -0.1)">
       <use xlink:href="#DejaVuSans-48"/>
       <use x="63.623047" xlink:href="#DejaVuSans-46"/>
       <use x="95.410156" xlink:href="#DejaVuSans-53"/>
      </g>
     </g>
    </g>
    <g id="ytick_4">
     <g id="line2d_15">
      <g>
       <use style="stroke:#000000;stroke-width:0.8;" x="38.482813" xlink:href="#meed53b265b" y="151.771656"/>
      </g>
     </g>
     <g id="text_11">
      <!-- 1.0 -->
      <g transform="translate(15.579688 155.570875)scale(0.1 -0.1)">
       <use xlink:href="#DejaVuSans-49"/>
       <use x="63.623047" xlink:href="#DejaVuSans-46"/>
       <use x="95.410156" xlink:href="#DejaVuSans-48"/>
      </g>
     </g>
    </g>
    <g id="ytick_5">
     <g id="line2d_16">
      <g>
       <use style="stroke:#000000;stroke-width:0.8;" x="38.482813" xlink:href="#meed53b265b" y="112.890675"/>
      </g>
     </g>
     <g id="text_12">
      <!-- 1.5 -->
      <g transform="translate(15.579688 116.689894)scale(0.1 -0.1)">
       <use xlink:href="#DejaVuSans-49"/>
       <use x="63.623047" xlink:href="#DejaVuSans-46"/>
       <use x="95.410156" xlink:href="#DejaVuSans-53"/>
      </g>
     </g>
    </g>
    <g id="ytick_6">
     <g id="line2d_17">
      <g>
       <use style="stroke:#000000;stroke-width:0.8;" x="38.482813" xlink:href="#meed53b265b" y="74.009693"/>
      </g>
     </g>
     <g id="text_13">
      <!-- 2.0 -->
      <g transform="translate(15.579688 77.808912)scale(0.1 -0.1)">
       <use xlink:href="#DejaVuSans-50"/>
       <use x="63.623047" xlink:href="#DejaVuSans-46"/>
       <use x="95.410156" xlink:href="#DejaVuSans-48"/>
      </g>
     </g>
    </g>
    <g id="ytick_7">
     <g id="line2d_18">
      <g>
       <use style="stroke:#000000;stroke-width:0.8;" x="38.482813" xlink:href="#meed53b265b" y="35.128712"/>
      </g>
     </g>
     <g id="text_14">
      <!-- 2.5 -->
      <g transform="translate(15.579688 38.927931)scale(0.1 -0.1)">
       <use xlink:href="#DejaVuSans-50"/>
       <use x="63.623047" xlink:href="#DejaVuSans-46"/>
       <use x="95.410156" xlink:href="#DejaVuSans-53"/>
      </g>
     </g>
    </g>
   </g>
   <g id="patch_3">
    <path d="M 38.482813 294.118125 
L 38.482813 22.318125 
" style="fill:none;stroke:#000000;stroke-linecap:square;stroke-linejoin:miter;stroke-width:0.8;"/>
   </g>
   <g id="patch_4">
    <path d="M 38.482813 294.118125 
L 484.882812 294.118125 
" style="fill:none;stroke:#000000;stroke-linecap:square;stroke-linejoin:miter;stroke-width:0.8;"/>
   </g>
   <g id="text_15">
    <!-- Cw_total -->
    <defs>
     <path d="M 64.40625 67.28125 
L 64.40625 56.890625 
Q 59.421875 61.53125 53.78125 63.8125 
Q 48.140625 66.109375 41.796875 66.109375 
Q 29.296875 66.109375 22.65625 58.46875 
Q 16.015625 50.828125 16.015625 36.375 
Q 16.015625 21.96875 22.65625 14.328125 
Q 29.296875 6.6875 41.796875 6.6875 
Q 48.140625 6.6875 53.78125 8.984375 
Q 59.421875 11.28125 64.40625 15.921875 
L 64.40625 5.609375 
Q 59.234375 2.09375 53.4375 0.328125 
Q 47.65625 -1.421875 41.21875 -1.421875 
Q 24.65625 -1.421875 15.125 8.703125 
Q 5.609375 18.84375 5.609375 36.375 
Q 5.609375 53.953125 15.125 64.078125 
Q 24.65625 74.21875 41.21875 74.21875 
Q 47.75 74.21875 53.53125 72.484375 
Q 59.328125 70.75 64.40625 67.28125 
z
" id="DejaVuSans-67"/>
     <path d="M 4.203125 54.6875 
L 13.1875 54.6875 
L 24.421875 12.015625 
L 35.59375 54.6875 
L 46.1875 54.6875 
L 57.421875 12.015625 
L 68.609375 54.6875 
L 77.59375 54.6875 
L 63.28125 0 
L 52.6875 0 
L 40.921875 44.828125 
L 29.109375 0 
L 18.5 0 
z
" id="DejaVuSans-119"/>
     <path d="M 50.984375 -16.609375 
L 50.984375 -23.578125 
L -0.984375 -23.578125 
L -0.984375 -16.609375 
z
" id="DejaVuSans-95"/>
     <path d="M 18.3125 70.21875 
L 18.3125 54.6875 
L 36.8125 54.6875 
L 36.8125 47.703125 
L 18.3125 47.703125 
L 18.3125 18.015625 
Q 18.3125 11.328125 20.140625 9.421875 
Q 21.96875 7.515625 27.59375 7.515625 
L 36.8125 7.515625 
L 36.8125 0 
L 27.59375 0 
Q 17.1875 0 13.234375 3.875 
Q 9.28125 7.765625 9.28125 18.015625 
L 9.28125 47.703125 
L 2.6875 47.703125 
L 2.6875 54.6875 
L 9.28125 54.6875 
L 9.28125 70.21875 
z
" id="DejaVuSans-116"/>
     <path d="M 34.28125 27.484375 
Q 23.390625 27.484375 19.1875 25 
Q 14.984375 22.515625 14.984375 16.5 
Q 14.984375 11.71875 18.140625 8.90625 
Q 21.296875 6.109375 26.703125 6.109375 
Q 34.1875 6.109375 38.703125 11.40625 
Q 43.21875 16.703125 43.21875 25.484375 
L 43.21875 27.484375 
z
M 52.203125 31.203125 
L 52.203125 0 
L 43.21875 0 
L 43.21875 8.296875 
Q 40.140625 3.328125 35.546875 0.953125 
Q 30.953125 -1.421875 24.3125 -1.421875 
Q 15.921875 -1.421875 10.953125 3.296875 
Q 6 8.015625 6 15.921875 
Q 6 25.140625 12.171875 29.828125 
Q 18.359375 34.515625 30.609375 34.515625 
L 43.21875 34.515625 
L 43.21875 35.40625 
Q 43.21875 41.609375 39.140625 45 
Q 35.0625 48.390625 27.6875 48.390625 
Q 23 48.390625 18.546875 47.265625 
Q 14.109375 46.140625 10.015625 43.890625 
L 10.015625 52.203125 
Q 14.9375 54.109375 19.578125 55.046875 
Q 24.21875 56 28.609375 56 
Q 40.484375 56 46.34375 49.84375 
Q 52.203125 43.703125 52.203125 31.203125 
z
" id="DejaVuSans-97"/>
     <path d="M 9.421875 75.984375 
L 18.40625 75.984375 
L 18.40625 0 
L 9.421875 0 
z
" id="DejaVuSans-108"/>
    </defs>
    <g transform="translate(235.866875 16.318125)scale(0.12 -0.12)">
     <use xlink:href="#DejaVuSans-67"/>
     <use x="69.824219" xlink:href="#DejaVuSans-119"/>
     <use x="151.611328" xlink:href="#DejaVuSans-95"/>
     <use x="201.611328" xlink:href="#DejaVuSans-116"/>
     <use x="240.820312" xlink:href="#DejaVuSans-111"/>
     <use x="302.001953" xlink:href="#DejaVuSans-116"/>
     <use x="341.210938" xlink:href="#DejaVuSans-97"/>
     <use x="402.490234" xlink:href="#DejaVuSans-108"/>
    </g>
   </g>
   <g id="legend_1">
    <g id="patch_5">
     <path d="M 491.882812 196.413438 
L 625.442188 196.413438 
Q 627.442188 196.413438 627.442188 194.413438 
L 627.442188 122.022813 
Q 627.442188 120.022813 625.442188 120.022813 
L 491.882812 120.022813 
Q 489.882812 120.022813 489.882812 122.022813 
L 489.882812 194.413438 
Q 489.882812 196.413438 491.882812 196.413438 
z
" style="fill:#ffffff;opacity:0.8;stroke:#cccccc;stroke-linejoin:miter;"/>
    </g>
    <g id="line2d_19">
     <path d="M 493.882812 128.12125 
L 513.882812 128.12125 
" style="fill:none;stroke:#000000;stroke-dasharray:3.7,1.6;stroke-dashoffset:0;"/>
    </g>
    <g id="line2d_20"/>
    <g id="text_16">
     <!-- Baseline -->
     <defs>
      <path d="M 19.671875 34.8125 
L 19.671875 8.109375 
L 35.5 8.109375 
Q 43.453125 8.109375 47.28125 11.40625 
Q 51.125 14.703125 51.125 21.484375 
Q 51.125 28.328125 47.28125 31.5625 
Q 43.453125 34.8125 35.5 34.8125 
z
M 19.671875 64.796875 
L 19.671875 42.828125 
L 34.28125 42.828125 
Q 41.5 42.828125 45.03125 45.53125 
Q 48.578125 48.25 48.578125 53.8125 
Q 48.578125 59.328125 45.03125 62.0625 
Q 41.5 64.796875 34.28125 64.796875 
z
M 9.8125 72.90625 
L 35.015625 72.90625 
Q 46.296875 72.90625 52.390625 68.21875 
Q 58.5 63.53125 58.5 54.890625 
Q 58.5 48.1875 55.375 44.234375 
Q 52.25 40.28125 46.1875 39.3125 
Q 53.46875 37.75 57.5 32.78125 
Q 61.53125 27.828125 61.53125 20.40625 
Q 61.53125 10.640625 54.890625 5.3125 
Q 48.25 0 35.984375 0 
L 9.8125 0 
z
" id="DejaVuSans-66"/>
      <path d="M 44.28125 53.078125 
L 44.28125 44.578125 
Q 40.484375 46.53125 36.375 47.5 
Q 32.28125 48.484375 27.875 48.484375 
Q 21.1875 48.484375 17.84375 46.4375 
Q 14.5 44.390625 14.5 40.28125 
Q 14.5 37.15625 16.890625 35.375 
Q 19.28125 33.59375 26.515625 31.984375 
L 29.59375 31.296875 
Q 39.15625 29.25 43.1875 25.515625 
Q 47.21875 21.78125 47.21875 15.09375 
Q 47.21875 7.46875 41.1875 3.015625 
Q 35.15625 -1.421875 24.609375 -1.421875 
Q 20.21875 -1.421875 15.453125 -0.5625 
Q 10.6875 0.296875 5.421875 2 
L 5.421875 11.28125 
Q 10.40625 8.6875 15.234375 7.390625 
Q 20.0625 6.109375 24.8125 6.109375 
Q 31.15625 6.109375 34.5625 8.28125 
Q 37.984375 10.453125 37.984375 14.40625 
Q 37.984375 18.0625 35.515625 20.015625 
Q 33.0625 21.96875 24.703125 23.78125 
L 21.578125 24.515625 
Q 13.234375 26.265625 9.515625 29.90625 
Q 5.8125 33.546875 5.8125 39.890625 
Q 5.8125 47.609375 11.28125 51.796875 
Q 16.75 56 26.8125 56 
Q 31.78125 56 36.171875 55.265625 
Q 40.578125 54.546875 44.28125 53.078125 
z
" id="DejaVuSans-115"/>
      <path d="M 9.421875 54.6875 
L 18.40625 54.6875 
L 18.40625 0 
L 9.421875 0 
z
M 9.421875 75.984375 
L 18.40625 75.984375 
L 18.40625 64.59375 
L 9.421875 64.59375 
z
" id="DejaVuSans-105"/>
      <path d="M 54.890625 33.015625 
L 54.890625 0 
L 45.90625 0 
L 45.90625 32.71875 
Q 45.90625 40.484375 42.875 44.328125 
Q 39.84375 48.1875 33.796875 48.1875 
Q 26.515625 48.1875 22.3125 43.546875 
Q 18.109375 38.921875 18.109375 30.90625 
L 18.109375 0 
L 9.078125 0 
L 9.078125 54.6875 
L 18.109375 54.6875 
L 18.109375 46.1875 
Q 21.34375 51.125 25.703125 53.5625 
Q 30.078125 56 35.796875 56 
Q 45.21875 56 50.046875 50.171875 
Q 54.890625 44.34375 54.890625 33.015625 
z
" id="DejaVuSans-110"/>
     </defs>
     <g transform="translate(521.882812 131.62125)scale(0.1 -0.1)">
      <use xlink:href="#DejaVuSans-66"/>
      <use x="68.603516" xlink:href="#DejaVuSans-97"/>
      <use x="129.882812" xlink:href="#DejaVuSans-115"/>
      <use x="181.982422" xlink:href="#DejaVuSans-101"/>
      <use x="243.505859" xlink:href="#DejaVuSans-108"/>
      <use x="271.289062" xlink:href="#DejaVuSans-105"/>
      <use x="299.072266" xlink:href="#DejaVuSans-110"/>
      <use x="362.451172" xlink:href="#DejaVuSans-101"/>
     </g>
    </g>
    <g id="line2d_21">
     <path d="M 493.882812 142.799375 
L 513.882812 142.799375 
" style="fill:none;stroke:#1f77b4;stroke-linecap:square;stroke-width:1.5;"/>
    </g>
    <g id="line2d_22"/>
    <g id="text_17">
     <!-- $\Uparrow$ acesso crdito -->
     <defs>
      <path d="M 36.765625 58.59375 
L 36.765625 0 
L 30.90625 0 
L 30.90625 52.734375 
L 26.421875 48.140625 
L 20.5625 54 
L 39.703125 73.25 
L 44.09375 73.25 
L 63.328125 54 
L 57.46875 48.140625 
L 52.875 52.734375 
L 52.875 0 
L 47.015625 0 
L 47.015625 58.59375 
L 41.9375 63.671875 
z
" id="DejaVuSans-8657"/>
      <path id="DejaVuSans-32"/>
      <path d="M 48.78125 52.59375 
L 48.78125 44.1875 
Q 44.96875 46.296875 41.140625 47.34375 
Q 37.3125 48.390625 33.40625 48.390625 
Q 24.65625 48.390625 19.8125 42.84375 
Q 14.984375 37.3125 14.984375 27.296875 
Q 14.984375 17.28125 19.8125 11.734375 
Q 24.65625 6.203125 33.40625 6.203125 
Q 37.3125 6.203125 41.140625 7.25 
Q 44.96875 8.296875 48.78125 10.40625 
L 48.78125 2.09375 
Q 45.015625 0.34375 40.984375 -0.53125 
Q 36.96875 -1.421875 32.421875 -1.421875 
Q 20.0625 -1.421875 12.78125 6.34375 
Q 5.515625 14.109375 5.515625 27.296875 
Q 5.515625 40.671875 12.859375 48.328125 
Q 20.21875 56 33.015625 56 
Q 37.15625 56 41.109375 55.140625 
Q 45.0625 54.296875 48.78125 52.59375 
z
" id="DejaVuSans-99"/>
      <path d="M 41.109375 46.296875 
Q 39.59375 47.171875 37.8125 47.578125 
Q 36.03125 48 33.890625 48 
Q 26.265625 48 22.1875 43.046875 
Q 18.109375 38.09375 18.109375 28.8125 
L 18.109375 0 
L 9.078125 0 
L 9.078125 54.6875 
L 18.109375 54.6875 
L 18.109375 46.1875 
Q 20.953125 51.171875 25.484375 53.578125 
Q 30.03125 56 36.53125 56 
Q 37.453125 56 38.578125 55.875 
Q 39.703125 55.765625 41.0625 55.515625 
z
" id="DejaVuSans-114"/>
      <path d="M 56.203125 29.59375 
L 56.203125 25.203125 
L 14.890625 25.203125 
Q 15.484375 15.921875 20.484375 11.0625 
Q 25.484375 6.203125 34.421875 6.203125 
Q 39.59375 6.203125 44.453125 7.46875 
Q 49.3125 8.734375 54.109375 11.28125 
L 54.109375 2.78125 
Q 49.265625 0.734375 44.1875 -0.34375 
Q 39.109375 -1.421875 33.890625 -1.421875 
Q 20.796875 -1.421875 13.15625 6.1875 
Q 5.515625 13.8125 5.515625 26.8125 
Q 5.515625 40.234375 12.765625 48.109375 
Q 20.015625 56 32.328125 56 
Q 43.359375 56 49.78125 48.890625 
Q 56.203125 41.796875 56.203125 29.59375 
z
M 47.21875 32.234375 
Q 47.125 39.59375 43.09375 43.984375 
Q 39.0625 48.390625 32.421875 48.390625 
Q 24.90625 48.390625 20.390625 44.140625 
Q 15.875 39.890625 15.1875 32.171875 
z
M 38.53125 79.984375 
L 48.25 79.984375 
L 32.34375 61.625 
L 24.859375 61.625 
z
" id="DejaVuSans-233"/>
      <path d="M 45.40625 46.390625 
L 45.40625 75.984375 
L 54.390625 75.984375 
L 54.390625 0 
L 45.40625 0 
L 45.40625 8.203125 
Q 42.578125 3.328125 38.25 0.953125 
Q 33.9375 -1.421875 27.875 -1.421875 
Q 17.96875 -1.421875 11.734375 6.484375 
Q 5.515625 14.40625 5.515625 27.296875 
Q 5.515625 40.1875 11.734375 48.09375 
Q 17.96875 56 27.875 56 
Q 33.9375 56 38.25 53.625 
Q 42.578125 51.265625 45.40625 46.390625 
z
M 14.796875 27.296875 
Q 14.796875 17.390625 18.875 11.75 
Q 22.953125 6.109375 30.078125 6.109375 
Q 37.203125 6.109375 41.296875 11.75 
Q 45.40625 17.390625 45.40625 27.296875 
Q 45.40625 37.203125 41.296875 42.84375 
Q 37.203125 48.484375 30.078125 48.484375 
Q 22.953125 48.484375 18.875 42.84375 
Q 14.796875 37.203125 14.796875 27.296875 
z
" id="DejaVuSans-100"/>
     </defs>
     <g transform="translate(521.882812 146.299375)scale(0.1 -0.1)">
      <use transform="translate(19.482422 0.015625)" xlink:href="#DejaVuSans-8657"/>
      <use transform="translate(122.753906 0.015625)" xlink:href="#DejaVuSans-32"/>
      <use transform="translate(154.541016 0.015625)" xlink:href="#DejaVuSans-97"/>
      <use transform="translate(215.820312 0.015625)" xlink:href="#DejaVuSans-99"/>
      <use transform="translate(270.800781 0.015625)" xlink:href="#DejaVuSans-101"/>
      <use transform="translate(332.324219 0.015625)" xlink:href="#DejaVuSans-115"/>
      <use transform="translate(384.423828 0.015625)" xlink:href="#DejaVuSans-115"/>
      <use transform="translate(436.523438 0.015625)" xlink:href="#DejaVuSans-111"/>
      <use transform="translate(497.705078 0.015625)" xlink:href="#DejaVuSans-32"/>
      <use transform="translate(529.492188 0.015625)" xlink:href="#DejaVuSans-99"/>
      <use transform="translate(584.472656 0.015625)" xlink:href="#DejaVuSans-114"/>
      <use transform="translate(625.585938 0.015625)" xlink:href="#DejaVuSans-233"/>
      <use transform="translate(687.109375 0.015625)" xlink:href="#DejaVuSans-100"/>
      <use transform="translate(750.585938 0.015625)" xlink:href="#DejaVuSans-105"/>
      <use transform="translate(778.369141 0.015625)" xlink:href="#DejaVuSans-116"/>
      <use transform="translate(817.578125 0.015625)" xlink:href="#DejaVuSans-111"/>
     </g>
    </g>
    <g id="line2d_23">
     <path d="M 493.882812 157.4775 
L 513.882812 157.4775 
" style="fill:none;stroke:#ff7f0e;stroke-linecap:square;stroke-width:1.5;"/>
    </g>
    <g id="line2d_24"/>
    <g id="text_18">
     <!-- Sem renda bsica -->
     <defs>
      <path d="M 53.515625 70.515625 
L 53.515625 60.890625 
Q 47.90625 63.578125 42.921875 64.890625 
Q 37.9375 66.21875 33.296875 66.21875 
Q 25.25 66.21875 20.875 63.09375 
Q 16.5 59.96875 16.5 54.203125 
Q 16.5 49.359375 19.40625 46.890625 
Q 22.3125 44.4375 30.421875 42.921875 
L 36.375 41.703125 
Q 47.40625 39.59375 52.65625 34.296875 
Q 57.90625 29 57.90625 20.125 
Q 57.90625 9.515625 50.796875 4.046875 
Q 43.703125 -1.421875 29.984375 -1.421875 
Q 24.8125 -1.421875 18.96875 -0.25 
Q 13.140625 0.921875 6.890625 3.21875 
L 6.890625 13.375 
Q 12.890625 10.015625 18.65625 8.296875 
Q 24.421875 6.59375 29.984375 6.59375 
Q 38.421875 6.59375 43.015625 9.90625 
Q 47.609375 13.234375 47.609375 19.390625 
Q 47.609375 24.75 44.3125 27.78125 
Q 41.015625 30.8125 33.5 32.328125 
L 27.484375 33.5 
Q 16.453125 35.6875 11.515625 40.375 
Q 6.59375 45.0625 6.59375 53.421875 
Q 6.59375 63.09375 13.40625 68.65625 
Q 20.21875 74.21875 32.171875 74.21875 
Q 37.3125 74.21875 42.625 73.28125 
Q 47.953125 72.359375 53.515625 70.515625 
z
" id="DejaVuSans-83"/>
      <path d="M 48.6875 27.296875 
Q 48.6875 37.203125 44.609375 42.84375 
Q 40.53125 48.484375 33.40625 48.484375 
Q 26.265625 48.484375 22.1875 42.84375 
Q 18.109375 37.203125 18.109375 27.296875 
Q 18.109375 17.390625 22.1875 11.75 
Q 26.265625 6.109375 33.40625 6.109375 
Q 40.53125 6.109375 44.609375 11.75 
Q 48.6875 17.390625 48.6875 27.296875 
z
M 18.109375 46.390625 
Q 20.953125 51.265625 25.265625 53.625 
Q 29.59375 56 35.59375 56 
Q 45.5625 56 51.78125 48.09375 
Q 58.015625 40.1875 58.015625 27.296875 
Q 58.015625 14.40625 51.78125 6.484375 
Q 45.5625 -1.421875 35.59375 -1.421875 
Q 29.59375 -1.421875 25.265625 0.953125 
Q 20.953125 3.328125 18.109375 8.203125 
L 18.109375 0 
L 9.078125 0 
L 9.078125 75.984375 
L 18.109375 75.984375 
z
" id="DejaVuSans-98"/>
      <path d="M 34.28125 27.484375 
Q 23.390625 27.484375 19.1875 25 
Q 14.984375 22.515625 14.984375 16.5 
Q 14.984375 11.71875 18.140625 8.90625 
Q 21.296875 6.109375 26.703125 6.109375 
Q 34.1875 6.109375 38.703125 11.40625 
Q 43.21875 16.703125 43.21875 25.484375 
L 43.21875 27.484375 
z
M 52.203125 31.203125 
L 52.203125 0 
L 43.21875 0 
L 43.21875 8.296875 
Q 40.140625 3.328125 35.546875 0.953125 
Q 30.953125 -1.421875 24.3125 -1.421875 
Q 15.921875 -1.421875 10.953125 3.296875 
Q 6 8.015625 6 15.921875 
Q 6 25.140625 12.171875 29.828125 
Q 18.359375 34.515625 30.609375 34.515625 
L 43.21875 34.515625 
L 43.21875 35.40625 
Q 43.21875 41.609375 39.140625 45 
Q 35.0625 48.390625 27.6875 48.390625 
Q 23 48.390625 18.546875 47.265625 
Q 14.109375 46.140625 10.015625 43.890625 
L 10.015625 52.203125 
Q 14.9375 54.109375 19.578125 55.046875 
Q 24.21875 56 28.609375 56 
Q 40.484375 56 46.34375 49.84375 
Q 52.203125 43.703125 52.203125 31.203125 
z
M 35.78125 79.984375 
L 45.5 79.984375 
L 29.59375 61.625 
L 22.109375 61.625 
z
" id="DejaVuSans-225"/>
     </defs>
     <g transform="translate(521.882812 160.9775)scale(0.1 -0.1)">
      <use xlink:href="#DejaVuSans-83"/>
      <use x="63.476562" xlink:href="#DejaVuSans-101"/>
      <use x="125" xlink:href="#DejaVuSans-109"/>
      <use x="222.412109" xlink:href="#DejaVuSans-32"/>
      <use x="254.199219" xlink:href="#DejaVuSans-114"/>
      <use x="293.0625" xlink:href="#DejaVuSans-101"/>
      <use x="354.585938" xlink:href="#DejaVuSans-110"/>
      <use x="417.964844" xlink:href="#DejaVuSans-100"/>
      <use x="481.441406" xlink:href="#DejaVuSans-97"/>
      <use x="542.720703" xlink:href="#DejaVuSans-32"/>
      <use x="574.507812" xlink:href="#DejaVuSans-98"/>
      <use x="637.984375" xlink:href="#DejaVuSans-225"/>
      <use x="699.263672" xlink:href="#DejaVuSans-115"/>
      <use x="751.363281" xlink:href="#DejaVuSans-105"/>
      <use x="779.146484" xlink:href="#DejaVuSans-99"/>
      <use x="834.126953" xlink:href="#DejaVuSans-97"/>
     </g>
    </g>
    <g id="line2d_25">
     <path d="M 493.882812 172.155625 
L 513.882812 172.155625 
" style="fill:none;stroke:#2ca02c;stroke-linecap:square;stroke-width:1.5;"/>
    </g>
    <g id="line2d_26"/>
    <g id="text_19">
     <!-- $\Uparrow$ salrio mnimo -->
     <defs>
      <path d="M 20.65625 79.984375 
L 30.375 79.984375 
L 14.46875 61.625 
L 6.984375 61.625 
z
M 9.421875 54.6875 
L 18.40625 54.6875 
L 18.40625 0 
L 9.421875 0 
z
M 13.921875 56 
z
" id="DejaVuSans-237"/>
     </defs>
     <g transform="translate(521.882812 175.655625)scale(0.1 -0.1)">
      <use transform="translate(19.482422 0.015625)" xlink:href="#DejaVuSans-8657"/>
      <use transform="translate(122.753906 0.015625)" xlink:href="#DejaVuSans-32"/>
      <use transform="translate(154.541016 0.015625)" xlink:href="#DejaVuSans-115"/>
      <use transform="translate(206.640625 0.015625)" xlink:href="#DejaVuSans-97"/>
      <use transform="translate(267.919922 0.015625)" xlink:href="#DejaVuSans-108"/>
      <use transform="translate(295.703125 0.015625)" xlink:href="#DejaVuSans-225"/>
      <use transform="translate(356.982422 0.015625)" xlink:href="#DejaVuSans-114"/>
      <use transform="translate(398.095703 0.015625)" xlink:href="#DejaVuSans-105"/>
      <use transform="translate(425.878906 0.015625)" xlink:href="#DejaVuSans-111"/>
      <use transform="translate(487.060547 0.015625)" xlink:href="#DejaVuSans-32"/>
      <use transform="translate(518.847656 0.015625)" xlink:href="#DejaVuSans-109"/>
      <use transform="translate(616.259766 0.015625)" xlink:href="#DejaVuSans-237"/>
      <use transform="translate(644.042969 0.015625)" xlink:href="#DejaVuSans-110"/>
      <use transform="translate(707.421875 0.015625)" xlink:href="#DejaVuSans-105"/>
      <use transform="translate(735.205078 0.015625)" xlink:href="#DejaVuSans-109"/>
      <use transform="translate(832.617188 0.015625)" xlink:href="#DejaVuSans-111"/>
     </g>
    </g>
    <g id="line2d_27">
     <path d="M 493.882812 186.83375 
L 513.882812 186.83375 
" style="fill:none;stroke:#d62728;stroke-linecap:square;stroke-width:1.5;"/>
    </g>
    <g id="line2d_28"/>
    <g id="text_20">
     <!-- Imposto progressivo -->
     <defs>
      <path d="M 9.8125 72.90625 
L 19.671875 72.90625 
L 19.671875 0 
L 9.8125 0 
z
" id="DejaVuSans-73"/>
      <path d="M 45.40625 27.984375 
Q 45.40625 37.75 41.375 43.109375 
Q 37.359375 48.484375 30.078125 48.484375 
Q 22.859375 48.484375 18.828125 43.109375 
Q 14.796875 37.75 14.796875 27.984375 
Q 14.796875 18.265625 18.828125 12.890625 
Q 22.859375 7.515625 30.078125 7.515625 
Q 37.359375 7.515625 41.375 12.890625 
Q 45.40625 18.265625 45.40625 27.984375 
z
M 54.390625 6.78125 
Q 54.390625 -7.171875 48.1875 -13.984375 
Q 42 -20.796875 29.203125 -20.796875 
Q 24.46875 -20.796875 20.265625 -20.09375 
Q 16.0625 -19.390625 12.109375 -17.921875 
L 12.109375 -9.1875 
Q 16.0625 -11.328125 19.921875 -12.34375 
Q 23.78125 -13.375 27.78125 -13.375 
Q 36.625 -13.375 41.015625 -8.765625 
Q 45.40625 -4.15625 45.40625 5.171875 
L 45.40625 9.625 
Q 42.625 4.78125 38.28125 2.390625 
Q 33.9375 0 27.875 0 
Q 17.828125 0 11.671875 7.65625 
Q 5.515625 15.328125 5.515625 27.984375 
Q 5.515625 40.671875 11.671875 48.328125 
Q 17.828125 56 27.875 56 
Q 33.9375 56 38.28125 53.609375 
Q 42.625 51.21875 45.40625 46.390625 
L 45.40625 54.6875 
L 54.390625 54.6875 
z
" id="DejaVuSans-103"/>
      <path d="M 2.984375 54.6875 
L 12.5 54.6875 
L 29.59375 8.796875 
L 46.6875 54.6875 
L 56.203125 54.6875 
L 35.6875 0 
L 23.484375 0 
z
" id="DejaVuSans-118"/>
     </defs>
     <g transform="translate(521.882812 190.33375)scale(0.1 -0.1)">
      <use xlink:href="#DejaVuSans-73"/>
      <use x="29.492188" xlink:href="#DejaVuSans-109"/>
      <use x="126.904297" xlink:href="#DejaVuSans-112"/>
      <use x="190.380859" xlink:href="#DejaVuSans-111"/>
      <use x="251.5625" xlink:href="#DejaVuSans-115"/>
      <use x="303.662109" xlink:href="#DejaVuSans-116"/>
      <use x="342.871094" xlink:href="#DejaVuSans-111"/>
      <use x="404.052734" xlink:href="#DejaVuSans-32"/>
      <use x="435.839844" xlink:href="#DejaVuSans-112"/>
      <use x="499.316406" xlink:href="#DejaVuSans-114"/>
      <use x="538.179688" xlink:href="#DejaVuSans-111"/>
      <use x="599.361328" xlink:href="#DejaVuSans-103"/>
      <use x="662.837891" xlink:href="#DejaVuSans-114"/>
      <use x="701.701172" xlink:href="#DejaVuSans-101"/>
      <use x="763.224609" xlink:href="#DejaVuSans-115"/>
      <use x="815.324219" xlink:href="#DejaVuSans-115"/>
      <use x="867.423828" xlink:href="#DejaVuSans-105"/>
      <use x="895.207031" xlink:href="#DejaVuSans-118"/>
      <use x="954.386719" xlink:href="#DejaVuSans-111"/>
     </g>
    </g>
   </g>
  </g>
 </g>
 <defs>
  <clipPath id="p0a59b449cd">
   <rect height="271.8" width="446.4" x="38.482813" y="22.318125"/>
  </clipPath>
 </defs>
</svg>
