<?xml version="1.0" encoding="utf-8" standalone="no"?>
<!DOCTYPE svg PUBLIC "-//W3C//DTD SVG 1.1//EN"
  "http://www.w3.org/Graphics/SVG/1.1/DTD/svg11.dtd">
<!-- Created with matplotlib (https://matplotlib.org/) -->
<svg height="331.674375pt" version="1.1" viewBox="0 0 641.004687 331.674375" width="641.004687pt" xmlns="http://www.w3.org/2000/svg" xmlns:xlink="http://www.w3.org/1999/xlink">
 <defs>
  <style type="text/css">
*{stroke-linecap:butt;stroke-linejoin:round;}
  </style>
 </defs>
 <g id="figure_1">
  <g id="patch_1">
   <path d="M 0 331.674375 
L 641.004687 331.674375 
L 641.004687 0 
L 0 0 
z
" style="fill:#ffffff;"/>
  </g>
  <g id="axes_1">
   <g id="patch_2">
    <path d="M 44.845313 294.118125 
L 491.245312 294.118125 
L 491.245312 22.318125 
L 44.845313 22.318125 
z
" style="fill:#ffffff;"/>
   </g>
   <g id="line2d_1">
    <path clip-path="url(#p4ece1caed4)" d="M 65.136222 54.226728 
L 65.862193 54.345117 
L 66.588165 57.895254 
L 67.314137 59.484147 
L 68.040108 59.496051 
L 68.76608 59.723303 
L 69.492052 59.833448 
L 70.218024 60.158513 
L 70.943995 61.487577 
L 71.669967 60.515943 
L 72.395939 64.31204 
L 73.12191 65.256134 
L 74.573854 66.220277 
L 75.299825 66.778334 
L 76.025797 70.553634 
L 76.751769 70.382804 
L 77.477741 72.596849 
L 78.203712 75.284446 
L 78.929684 75.876287 
L 79.655656 80.033739 
L 80.381627 81.538689 
L 81.107599 82.345748 
L 81.833571 85.42845 
L 82.559542 87.771801 
L 83.285514 88.409997 
L 84.737458 93.585641 
L 85.463429 97.024056 
L 86.189401 98.779779 
L 87.641344 106.165319 
L 88.367316 107.522181 
L 89.819259 112.276266 
L 90.545231 116.210366 
L 91.271203 118.888447 
L 93.449118 125.140015 
L 94.17509 126.662276 
L 94.901061 128.853178 
L 95.627033 132.376845 
L 96.353005 133.41984 
L 97.078977 134.920325 
L 97.804948 135.211836 
L 98.53092 139.244502 
L 99.256892 140.766798 
L 99.982863 143.916121 
L 101.434807 147.348816 
L 102.160778 149.726379 
L 103.612722 153.19173 
L 104.338694 154.76249 
L 105.064665 156.014034 
L 105.790637 156.812317 
L 106.516609 159.760531 
L 107.24258 162.110811 
L 107.968552 163.927709 
L 108.694524 165.271147 
L 109.420495 165.521588 
L 110.146467 168.615797 
L 110.872439 168.825185 
L 111.598411 169.860907 
L 112.324382 171.858312 
L 113.050354 173.461253 
L 114.502297 175.437641 
L 115.228269 176.175887 
L 115.954241 176.410534 
L 116.680212 179.091635 
L 118.132156 179.890613 
L 118.858128 180.062273 
L 119.584099 180.419679 
L 120.310071 180.272888 
L 121.762014 181.379385 
L 122.487986 181.354024 
L 123.213958 180.044291 
L 123.93993 181.953854 
L 125.391873 182.022692 
L 126.117845 180.599819 
L 126.843816 182.803909 
L 127.569788 183.305106 
L 128.29576 184.574525 
L 129.021731 184.594305 
L 130.473675 185.010799 
L 131.199647 184.784667 
L 131.925618 185.399803 
L 134.829505 185.480843 
L 135.555477 185.012139 
L 136.281448 183.42593 
L 137.00742 184.058784 
L 138.459364 182.008828 
L 139.185335 182.456079 
L 140.637279 180.770381 
L 141.36325 180.501414 
L 143.541165 178.678806 
L 144.267137 177.364963 
L 145.719081 175.990526 
L 146.445052 176.966525 
L 147.171024 177.088807 
L 147.896996 174.588766 
L 148.622967 172.732658 
L 149.348939 170.383664 
L 150.800883 164.243562 
L 151.526854 162.818286 
L 152.252826 162.28392 
L 152.978798 160.920926 
L 153.704769 158.957683 
L 155.882684 151.437379 
L 157.334628 147.767987 
L 158.0606 149.05192 
L 158.786571 147.761275 
L 159.512543 146.072209 
L 160.238515 144.709852 
L 160.964486 142.84563 
L 161.690458 141.797058 
L 162.41643 138.426269 
L 163.142401 137.556687 
L 163.868373 136.342539 
L 165.320317 129.625282 
L 166.046288 128.061563 
L 166.77226 125.496444 
L 167.498232 120.795393 
L 168.224203 118.1829 
L 168.950175 113.38264 
L 169.676147 111.141438 
L 170.402118 110.707369 
L 172.580034 105.621819 
L 174.757949 91.472296 
L 176.209892 84.315882 
L 176.935864 84.343347 
L 177.661836 81.680766 
L 178.387807 80.671182 
L 179.113779 76.767291 
L 179.839751 74.032473 
L 180.565722 69.927169 
L 181.291694 67.051242 
L 182.743637 59.990455 
L 183.469609 58.437732 
L 184.195581 53.290097 
L 186.373496 40.765673 
L 187.099468 38.934518 
L 187.825439 39.913257 
L 188.551411 38.825442 
L 189.277383 37.49118 
L 190.003354 37.003784 
L 190.729326 38.619022 
L 191.455298 38.149096 
L 192.18127 35.975964 
L 192.907241 34.956168 
L 193.633213 35.055109 
L 194.359185 35.281873 
L 195.085156 34.67267 
L 195.811128 34.716947 
L 196.5371 39.434696 
L 197.263071 39.727917 
L 197.989043 44.780755 
L 198.715015 47.672395 
L 199.440987 48.705209 
L 201.618902 62.062497 
L 202.344873 65.062941 
L 203.070845 65.97807 
L 203.796817 68.946861 
L 204.522789 75.696742 
L 205.24876 81.296538 
L 205.974732 85.124551 
L 206.700704 86.928137 
L 207.426675 94.201778 
L 208.152647 98.746029 
L 208.878619 105.774616 
L 209.60459 110.110765 
L 210.330562 113.204525 
L 211.782506 125.167513 
L 212.508477 128.278705 
L 213.234449 134.41959 
L 213.960421 138.365042 
L 214.686392 141.509606 
L 215.412364 144.080607 
L 216.138336 145.991234 
L 216.864307 150.555807 
L 218.316251 154.834379 
L 219.042223 157.429016 
L 220.494166 164.480662 
L 221.220138 165.972354 
L 221.946109 167.023337 
L 223.398053 170.283524 
L 224.124024 170.965206 
L 224.849996 172.122404 
L 225.575968 173.517116 
L 226.30194 173.986203 
L 227.027911 175.049065 
L 227.753883 175.368902 
L 229.205826 177.011472 
L 229.931798 178.114121 
L 230.65777 178.645123 
L 231.383742 178.908282 
L 233.561657 180.827146 
L 235.739572 181.988333 
L 236.465543 181.576193 
L 237.191515 181.579964 
L 237.917487 183.256992 
L 238.643459 182.293607 
L 240.095402 182.113087 
L 240.821374 182.286872 
L 241.547345 181.988255 
L 242.273317 182.45812 
L 242.999289 182.109385 
L 243.72526 181.324819 
L 244.451232 181.567773 
L 245.177204 181.634202 
L 246.629147 181.221163 
L 247.355119 181.372702 
L 248.081091 180.93808 
L 248.807062 180.680116 
L 249.533034 179.401104 
L 250.259006 179.532404 
L 250.984977 178.766138 
L 251.710949 179.025734 
L 252.436921 177.934256 
L 253.162893 176.617724 
L 253.888864 176.675565 
L 254.614836 175.030571 
L 255.340808 174.623588 
L 256.066779 174.880047 
L 256.792751 174.158191 
L 257.518723 173.959912 
L 258.244695 173.929707 
L 258.970666 172.351587 
L 259.696638 171.70951 
L 260.42261 170.064835 
L 261.148581 168.735105 
L 261.874553 169.049281 
L 262.600525 168.610101 
L 263.326496 167.887664 
L 264.052468 165.792157 
L 264.77844 166.423065 
L 265.504412 165.652659 
L 266.230383 165.051723 
L 266.956355 164.98895 
L 267.682327 164.526815 
L 268.408298 164.80697 
L 269.13427 163.933499 
L 269.860242 162.332628 
L 270.586213 162.146262 
L 271.312185 161.056596 
L 272.038157 160.561193 
L 272.764129 159.307284 
L 273.4901 160.12338 
L 274.942044 158.921085 
L 275.668015 159.565464 
L 276.393987 157.411705 
L 277.119959 157.216939 
L 277.84593 156.584678 
L 278.571902 154.86579 
L 279.297874 154.1616 
L 280.023846 153.092776 
L 280.749817 153.269531 
L 281.475789 152.462985 
L 282.201761 150.920115 
L 282.927732 150.879574 
L 283.653704 149.8736 
L 284.379676 149.579603 
L 285.105648 149.029208 
L 285.831619 148.655781 
L 286.557591 145.785265 
L 287.283563 144.449368 
L 288.009534 144.311022 
L 288.735506 141.675212 
L 289.461478 142.575763 
L 290.187449 140.406067 
L 290.913421 139.24891 
L 291.639393 139.701569 
L 292.365365 137.801178 
L 293.091336 138.008927 
L 293.817308 137.931278 
L 294.54328 137.669424 
L 295.269251 136.18452 
L 295.995223 135.591113 
L 296.721195 132.935692 
L 297.447166 132.117493 
L 298.173138 129.538041 
L 298.89911 127.844554 
L 299.625082 126.713468 
L 300.351053 126.116277 
L 301.077025 124.803028 
L 301.802997 124.201409 
L 302.528968 121.713961 
L 303.25494 120.894654 
L 303.980912 118.438121 
L 304.706883 116.931147 
L 305.432855 114.186477 
L 306.158827 112.123544 
L 306.884799 109.593616 
L 307.61077 110.793776 
L 308.336742 107.899531 
L 309.062714 106.175426 
L 309.788685 103.438976 
L 310.514657 101.722024 
L 311.240629 98.031755 
L 311.966601 96.240061 
L 312.692572 95.59539 
L 313.418544 93.821708 
L 314.144516 93.920977 
L 314.870487 93.056308 
L 315.596459 92.888052 
L 316.322431 92.265564 
L 317.048402 92.181641 
L 317.774374 91.975969 
L 318.500346 91.654101 
L 319.226318 90.074287 
L 319.952289 89.419698 
L 321.404233 86.232686 
L 322.130204 85.901106 
L 322.856176 85.410782 
L 323.582148 85.319893 
L 324.308119 85.904133 
L 325.760063 85.588727 
L 326.486035 84.535622 
L 327.212006 84.532625 
L 327.937978 83.507906 
L 328.66395 86.203286 
L 329.389921 87.429393 
L 330.841865 89.098938 
L 331.567836 89.648212 
L 332.293808 91.406659 
L 333.01978 94.165385 
L 333.745752 95.692616 
L 334.471723 96.265707 
L 335.197695 98.48567 
L 335.923667 98.965811 
L 336.649638 103.038844 
L 337.37561 104.080676 
L 338.101582 105.910324 
L 338.827554 108.984294 
L 340.279497 112.145717 
L 341.005469 115.769405 
L 341.73144 118.561736 
L 342.457412 120.351918 
L 345.361299 132.62539 
L 346.087271 135.273157 
L 346.813242 137.154942 
L 348.265186 144.002999 
L 349.717129 149.298723 
L 350.443101 152.096184 
L 351.169072 153.885812 
L 351.895044 156.587884 
L 352.621016 160.185482 
L 353.346988 161.763903 
L 354.072959 165.986023 
L 354.798931 168.383505 
L 355.524903 172.104669 
L 356.250874 174.535969 
L 357.702818 180.334211 
L 359.880733 187.596066 
L 361.332676 191.073755 
L 362.058648 193.900011 
L 362.78462 195.278542 
L 364.236563 198.87191 
L 365.688507 201.872834 
L 366.414478 202.924593 
L 367.14045 203.654335 
L 367.866422 204.706082 
L 368.592393 206.406111 
L 369.318365 207.492805 
L 370.044337 207.775978 
L 371.49628 209.712558 
L 372.222252 210.539751 
L 374.400167 212.508631 
L 375.126139 212.846029 
L 375.85211 214.017455 
L 376.578082 214.448276 
L 377.304054 215.626409 
L 380.933912 217.815219 
L 381.659884 217.957633 
L 382.385856 218.753818 
L 383.837799 218.49619 
L 384.563771 218.555495 
L 385.289742 218.956064 
L 386.015714 219.04645 
L 386.741686 218.94648 
L 387.467658 218.438566 
L 388.919601 218.155328 
L 389.645573 217.834276 
L 390.371544 216.979845 
L 391.097516 216.450614 
L 391.823488 215.553743 
L 392.54946 215.191476 
L 393.275431 215.041836 
L 394.001403 213.89182 
L 394.727375 213.150724 
L 395.453346 211.996135 
L 396.179318 211.301727 
L 396.90529 210.356843 
L 397.631261 209.751106 
L 399.809177 205.816733 
L 400.535148 204.152025 
L 401.987092 201.400498 
L 403.439035 198.633978 
L 407.794865 185.807193 
L 415.054582 160.503822 
L 417.958469 150.052797 
L 418.684441 147.270842 
L 419.410413 145.434118 
L 420.862356 139.884352 
L 423.040271 131.342544 
L 423.766243 129.611448 
L 425.218186 124.580238 
L 425.944158 122.674363 
L 428.122073 115.593442 
L 431.02596 110.677926 
L 431.751931 109.986431 
L 433.203875 109.303884 
L 433.929847 109.20592 
L 434.655818 109.322697 
L 436.107762 110.553317 
L 437.559705 112.466655 
L 438.285677 113.737605 
L 439.73762 117.739123 
L 444.09345 134.667804 
L 447.723309 150.196503 
L 449.901224 160.03937 
L 453.531083 174.787058 
L 455.708998 183.308447 
L 457.886913 191.629949 
L 459.338856 196.607459 
L 460.7908 201.220026 
L 463.694686 209.418727 
L 465.872601 214.635555 
L 468.050517 219.355665 
L 470.954403 224.803427 
L 470.954403 224.803427 
" style="fill:none;stroke:#1f77b4;stroke-linecap:square;stroke-width:1.5;"/>
   </g>
   <g id="line2d_2">
    <path clip-path="url(#p4ece1caed4)" d="M 65.136222 280.424073 
L 65.862193 280.359377 
L 66.588165 281.475409 
L 67.314137 281.76358 
L 68.040108 281.113175 
L 68.76608 281.417356 
L 69.492052 281.27342 
L 70.218024 281.423838 
L 70.943995 279.987433 
L 71.669967 279.861518 
L 72.395939 280.456232 
L 73.847882 280.163526 
L 75.299825 280.04718 
L 76.025797 278.902567 
L 76.751769 278.13014 
L 77.477741 277.893056 
L 78.203712 278.608093 
L 78.929684 278.217467 
L 79.655656 278.968122 
L 80.381627 277.285382 
L 81.107599 277.073819 
L 81.833571 275.513682 
L 83.285514 274.361112 
L 84.011486 273.385999 
L 85.463429 273.042161 
L 86.189401 272.605191 
L 86.915373 272.700258 
L 87.641344 272.5125 
L 88.367316 272.056721 
L 89.093288 271.859221 
L 89.819259 271.8634 
L 90.545231 272.051128 
L 91.271203 272.458727 
L 91.997175 272.54924 
L 93.449118 272.596462 
L 94.17509 272.618554 
L 94.901061 272.765059 
L 95.627033 273.647924 
L 96.353005 272.847504 
L 97.078977 272.861733 
L 97.804948 272.702213 
L 98.53092 273.159675 
L 99.256892 272.134655 
L 99.982863 272.532624 
L 100.708835 271.609052 
L 101.434807 271.415831 
L 102.160778 270.674894 
L 102.88675 270.157435 
L 103.612722 269.813897 
L 104.338694 268.534369 
L 105.064665 267.77887 
L 105.790637 266.708766 
L 106.516609 267.29934 
L 107.24258 264.764442 
L 107.968552 264.485083 
L 109.420495 263.287753 
L 110.146467 263.469926 
L 110.872439 262.918122 
L 111.598411 262.071657 
L 112.324382 262.237114 
L 113.050354 262.268831 
L 113.776326 261.810599 
L 114.502297 259.407429 
L 115.228269 258.033259 
L 115.954241 257.139952 
L 116.680212 257.048081 
L 117.406184 257.168137 
L 118.132156 257.114684 
L 118.858128 256.881739 
L 119.584099 256.435119 
L 121.036043 255.220311 
L 121.762014 255.190939 
L 122.487986 254.433652 
L 123.213958 254.139357 
L 123.93993 254.81789 
L 124.665901 252.711169 
L 126.117845 250.268719 
L 126.843816 251.083686 
L 127.569788 251.322434 
L 128.29576 251.716609 
L 129.747703 251.349376 
L 130.473675 250.783589 
L 131.199647 250.804415 
L 131.925618 251.058436 
L 132.65159 251.605626 
L 133.377562 251.73323 
L 134.103533 252.009205 
L 134.829505 250.545046 
L 135.555477 250.255922 
L 136.281448 250.232268 
L 137.00742 250.705388 
L 137.733392 247.678366 
L 138.459364 247.494741 
L 139.185335 247.870874 
L 139.911307 247.55996 
L 140.637279 248.54476 
L 141.36325 248.501781 
L 142.089222 248.600619 
L 142.815194 248.226031 
L 143.541165 247.355662 
L 144.267137 247.228834 
L 145.719081 246.746068 
L 146.445052 248.093469 
L 147.171024 248.53566 
L 148.622967 249.130294 
L 149.348939 247.138812 
L 150.074911 246.766067 
L 150.800883 244.175946 
L 151.526854 243.699231 
L 152.252826 243.970143 
L 153.704769 243.33708 
L 154.430741 242.238588 
L 155.156713 240.717979 
L 155.882684 240.397088 
L 156.608656 239.898385 
L 157.334628 239.236116 
L 158.0606 240.084008 
L 158.786571 239.621236 
L 160.238515 239.285454 
L 160.964486 238.752414 
L 161.690458 236.54105 
L 162.41643 235.623387 
L 163.142401 233.938708 
L 165.320317 231.509034 
L 166.77226 226.529884 
L 167.498232 225.265538 
L 168.224203 224.567468 
L 169.676147 222.19069 
L 170.402118 222.482363 
L 171.12809 221.848671 
L 171.854062 220.653585 
L 172.580034 218.089415 
L 173.306005 217.469771 
L 174.757949 215.507374 
L 175.48392 214.888576 
L 176.209892 213.756467 
L 176.935864 213.074267 
L 177.661836 210.974922 
L 178.387807 210.707536 
L 179.113779 208.736397 
L 179.839751 207.357099 
L 181.291694 205.774462 
L 182.017666 204.649105 
L 182.743637 203.192625 
L 183.469609 201.4677 
L 184.921553 199.686611 
L 186.373496 197.787216 
L 187.099468 197.806451 
L 187.825439 198.994904 
L 188.551411 197.502633 
L 189.277383 196.477902 
L 190.003354 196.416205 
L 190.729326 197.778858 
L 191.455298 198.034808 
L 192.18127 195.973513 
L 192.907241 196.426335 
L 194.359185 196.491642 
L 195.085156 196.55631 
L 195.811128 197.339152 
L 196.5371 199.862578 
L 197.263071 200.73308 
L 197.989043 203.791207 
L 198.715015 203.79993 
L 199.440987 204.406466 
L 200.166958 205.467847 
L 200.89293 207.7416 
L 203.070845 211.23265 
L 203.796817 211.956042 
L 205.24876 217.872462 
L 205.974732 219.608582 
L 206.700704 221.030665 
L 207.426675 224.696944 
L 208.152647 227.5958 
L 208.878619 231.372515 
L 210.330562 236.243897 
L 211.056534 239.36722 
L 211.782506 241.07746 
L 212.508477 243.348401 
L 213.960421 246.897606 
L 214.686392 248.734567 
L 216.138336 251.494304 
L 216.864307 253.660677 
L 217.590279 254.868755 
L 218.316251 254.688562 
L 219.768194 257.643573 
L 220.494166 258.41749 
L 221.220138 258.600484 
L 221.946109 259.134908 
L 222.672081 259.924752 
L 223.398053 259.785733 
L 224.849996 260.994053 
L 225.575968 261.95433 
L 227.027911 262.616152 
L 227.753883 263.239941 
L 229.205826 264.128003 
L 229.931798 265.043563 
L 230.65777 264.43745 
L 231.383742 264.715529 
L 232.835685 265.776015 
L 233.561657 266.021246 
L 235.0136 267.028463 
L 237.191515 267.758801 
L 237.917487 268.492494 
L 238.643459 268.780024 
L 239.36943 269.21255 
L 240.095402 269.36555 
L 241.547345 268.322679 
L 242.273317 268.330895 
L 242.999289 267.356915 
L 245.177204 266.96943 
L 245.903176 267.043304 
L 246.629147 266.454785 
L 247.355119 266.390929 
L 248.081091 266.163943 
L 248.807062 266.143935 
L 249.533034 265.818828 
L 250.259006 264.734233 
L 250.984977 263.852487 
L 251.710949 263.499698 
L 252.436921 263.021576 
L 253.162893 262.388074 
L 253.888864 261.584385 
L 254.614836 260.403547 
L 255.340808 259.78293 
L 256.066779 259.644734 
L 256.792751 259.03235 
L 259.696638 255.135906 
L 261.874553 252.459107 
L 262.600525 252.127531 
L 263.326496 251.385373 
L 264.052468 250.957337 
L 264.77844 251.109387 
L 265.504412 250.43838 
L 266.230383 249.410018 
L 266.956355 249.362296 
L 267.682327 248.971598 
L 268.408298 248.81776 
L 269.13427 247.479906 
L 269.860242 246.809059 
L 270.586213 245.693354 
L 271.312185 244.842581 
L 272.038157 244.519284 
L 272.764129 243.970165 
L 273.4901 242.983677 
L 274.942044 242.096318 
L 275.668015 241.921908 
L 276.393987 239.977632 
L 277.119959 238.511817 
L 278.571902 237.159189 
L 279.297874 236.766745 
L 280.023846 236.977641 
L 280.749817 234.789542 
L 281.475789 234.508848 
L 282.201761 233.597247 
L 283.653704 232.932391 
L 284.379676 232.533226 
L 285.105648 232.315932 
L 285.831619 232.299971 
L 287.283563 231.840724 
L 288.009534 232.552503 
L 288.735506 232.303495 
L 289.461478 233.154862 
L 290.913421 233.4232 
L 292.365365 231.829443 
L 293.091336 231.731622 
L 293.817308 231.890624 
L 294.54328 231.509387 
L 295.269251 230.836136 
L 295.995223 230.785091 
L 297.447166 230.372334 
L 298.173138 230.009029 
L 298.89911 229.990953 
L 299.625082 228.720243 
L 300.351053 228.753496 
L 301.077025 228.511098 
L 301.802997 228.57345 
L 303.980912 227.383444 
L 304.706883 227.065214 
L 305.432855 226.535333 
L 306.884799 226.135015 
L 307.61077 227.485835 
L 309.788685 228.010834 
L 310.514657 226.844162 
L 311.240629 226.843819 
L 311.966601 225.935298 
L 312.692572 226.085232 
L 313.418544 225.430533 
L 314.870487 226.224568 
L 315.596459 226.011383 
L 318.500346 226.39331 
L 319.226318 226.721035 
L 320.678261 227.015593 
L 321.404233 226.008603 
L 322.130204 226.240861 
L 323.582148 226.27851 
L 324.308119 227.554267 
L 325.034091 227.665747 
L 325.760063 226.924944 
L 326.486035 226.475182 
L 327.212006 226.609629 
L 327.937978 226.390775 
L 328.66395 227.625279 
L 329.389921 228.500763 
L 330.115893 228.030887 
L 331.567836 228.766059 
L 333.745752 232.018997 
L 334.471723 231.863792 
L 335.197695 232.986599 
L 335.923667 233.576124 
L 336.649638 235.359964 
L 337.37561 235.928086 
L 338.101582 236.041495 
L 338.827554 236.809739 
L 339.553525 236.646304 
L 340.279497 237.333445 
L 341.73144 240.065642 
L 342.457412 240.970441 
L 343.183384 241.618636 
L 343.909355 243.114837 
L 344.635327 243.472934 
L 345.361299 244.889384 
L 346.813242 246.877984 
L 348.265186 249.829078 
L 348.991157 250.818339 
L 349.717129 251.087807 
L 350.443101 252.801394 
L 351.895044 253.55293 
L 352.621016 254.37576 
L 353.346988 254.998159 
L 354.798931 255.854847 
L 356.250874 256.701988 
L 358.428789 257.743643 
L 359.154761 258.145778 
L 359.880733 258.107778 
L 362.058648 258.903229 
L 362.78462 258.673824 
L 363.510591 258.632757 
L 364.962535 258.249318 
L 366.414478 258.01815 
L 367.866422 256.284771 
L 368.592393 256.469653 
L 369.318365 255.882677 
L 370.044337 255.511701 
L 370.770308 254.780055 
L 371.49628 254.345908 
L 372.222252 253.563656 
L 373.674195 252.534267 
L 375.126139 251.602387 
L 378.755997 248.048643 
L 380.207941 246.604937 
L 381.659884 245.103381 
L 382.385856 244.831882 
L 383.837799 242.870798 
L 384.563771 242.228287 
L 385.289742 241.996756 
L 386.015714 241.2756 
L 388.193629 238.594655 
L 389.645573 236.907583 
L 390.371544 235.870253 
L 391.823488 234.684705 
L 392.54946 233.61341 
L 393.275431 232.803591 
L 395.453346 229.863251 
L 396.90529 228.189288 
L 397.631261 227.601163 
L 399.083205 226.188738 
L 400.535148 225.019723 
L 401.26112 224.035973 
L 404.890978 221.919208 
L 406.342922 220.402309 
L 407.068894 219.66809 
L 408.520837 218.526509 
L 409.246809 218.364681 
L 409.97278 217.962564 
L 412.150695 215.729428 
L 412.876667 215.186827 
L 414.328611 213.610593 
L 415.054582 213.155931 
L 415.780554 213.002725 
L 416.506526 212.261861 
L 417.232497 212.247704 
L 419.410413 211.300074 
L 420.862356 210.803152 
L 421.588328 210.736109 
L 423.040271 209.667532 
L 423.766243 209.758192 
L 424.492214 209.265672 
L 425.218186 209.103058 
L 425.944158 209.111495 
L 426.67013 208.764247 
L 427.396101 208.757303 
L 428.122073 208.620129 
L 428.848045 209.052821 
L 429.574016 209.196636 
L 430.299988 209.724247 
L 431.751931 210.455597 
L 433.929847 211.920614 
L 435.38179 213.176687 
L 437.559705 215.50807 
L 439.73762 218.230095 
L 440.463592 219.323596 
L 441.915535 221.789539 
L 442.641507 222.730539 
L 443.367479 223.880801 
L 445.545394 226.744068 
L 451.353167 235.049722 
L 455.708998 240.282888 
L 457.160941 241.77326 
L 460.064828 244.477664 
L 461.516771 245.625221 
L 465.14663 247.882337 
L 467.324545 248.761692 
L 469.50246 249.368487 
L 470.954403 249.558825 
L 470.954403 249.558825 
" style="fill:none;stroke:#ff7f0e;stroke-linecap:square;stroke-width:1.5;"/>
   </g>
   <g id="line2d_3">
    <path clip-path="url(#p4ece1caed4)" d="M 65.136222 159.178027 
L 65.862193 158.114013 
L 66.588165 158.216769 
L 67.314137 157.862479 
L 68.76608 157.801279 
L 69.492052 156.978346 
L 70.218024 156.557069 
L 70.943995 155.660911 
L 71.669967 155.160992 
L 72.395939 157.083347 
L 73.12191 156.749316 
L 74.573854 157.576587 
L 75.299825 156.133653 
L 76.025797 158.437489 
L 76.751769 158.376817 
L 77.477741 159.240097 
L 78.203712 160.435642 
L 78.929684 160.776648 
L 79.655656 162.520395 
L 81.107599 163.944765 
L 82.559542 166.449402 
L 83.285514 167.282632 
L 84.011486 168.515256 
L 84.737458 170.31034 
L 85.463429 172.486809 
L 86.189401 173.640354 
L 87.641344 178.881515 
L 88.367316 180.06576 
L 89.819259 183.401402 
L 90.545231 186.46986 
L 91.271203 188.847088 
L 91.997175 190.527893 
L 94.17509 194.525207 
L 94.901061 195.148839 
L 95.627033 197.860612 
L 96.353005 198.367128 
L 97.804948 200.396893 
L 98.53092 202.897346 
L 99.256892 203.497164 
L 99.982863 205.928041 
L 100.708835 206.543411 
L 101.434807 207.614758 
L 103.612722 209.983029 
L 105.064665 210.506788 
L 105.790637 210.717293 
L 106.516609 212.601638 
L 107.24258 213.734385 
L 107.968552 214.399179 
L 108.694524 214.288093 
L 109.420495 214.725894 
L 110.146467 215.411021 
L 110.872439 215.236682 
L 111.598411 215.794391 
L 112.324382 216.498093 
L 113.050354 217.601507 
L 115.228269 217.716818 
L 115.954241 216.979026 
L 116.680212 218.399554 
L 117.406184 218.234371 
L 118.132156 218.446982 
L 120.310071 217.627391 
L 121.762014 217.909583 
L 122.487986 217.575606 
L 123.213958 216.412079 
L 123.93993 217.602819 
L 125.391873 217.022413 
L 126.117845 215.588215 
L 126.843816 217.030827 
L 128.29576 217.649596 
L 129.021731 216.687306 
L 129.747703 215.981946 
L 130.473675 215.835652 
L 131.199647 214.689805 
L 131.925618 215.499047 
L 132.65159 214.723733 
L 133.377562 213.628192 
L 134.103533 213.070871 
L 134.829505 213.567463 
L 135.555477 211.957776 
L 136.281448 211.010214 
L 137.00742 210.67669 
L 137.733392 208.653714 
L 138.459364 207.01102 
L 139.185335 207.473936 
L 139.911307 206.346146 
L 140.637279 206.605024 
L 142.089222 203.079139 
L 142.815194 202.034371 
L 143.541165 199.441923 
L 144.267137 198.085158 
L 144.993109 195.827297 
L 145.719081 194.152609 
L 146.445052 192.989337 
L 147.171024 192.270959 
L 148.622967 189.468091 
L 150.074911 186.032858 
L 150.800883 183.279243 
L 151.526854 182.413428 
L 152.252826 182.679513 
L 152.978798 181.592526 
L 153.704769 177.971489 
L 154.430741 176.233573 
L 155.882684 174.188338 
L 156.608656 172.708195 
L 157.334628 171.785967 
L 158.0606 173.436794 
L 158.786571 173.794603 
L 159.512543 173.000245 
L 160.238515 170.913582 
L 160.964486 170.166654 
L 161.690458 168.257808 
L 162.41643 167.752747 
L 163.142401 165.984008 
L 163.868373 164.818348 
L 164.594345 164.259625 
L 167.498232 161.335208 
L 168.224203 161.819296 
L 168.950175 161.483709 
L 169.676147 161.53159 
L 170.402118 164.096008 
L 171.12809 164.450123 
L 171.854062 164.680508 
L 172.580034 164.64375 
L 173.306005 164.733298 
L 174.031977 164.233887 
L 174.757949 163.991516 
L 175.48392 163.211559 
L 176.209892 163.447901 
L 176.935864 165.167764 
L 177.661836 165.180832 
L 178.387807 168.386186 
L 179.113779 168.666906 
L 179.839751 169.22155 
L 180.565722 168.52501 
L 181.291694 170.020177 
L 182.017666 169.803161 
L 182.743637 169.751666 
L 183.469609 170.626536 
L 184.195581 170.964036 
L 184.921553 170.902565 
L 185.647524 170.674572 
L 186.373496 170.787895 
L 187.099468 171.544913 
L 187.825439 173.7032 
L 188.551411 175.149248 
L 189.277383 175.755415 
L 190.003354 176.209146 
L 190.729326 179.118155 
L 191.455298 180.155694 
L 192.18127 179.598344 
L 192.907241 180.057806 
L 193.633213 180.272728 
L 194.359185 180.647136 
L 195.085156 180.811975 
L 195.811128 181.780261 
L 196.5371 183.394749 
L 197.263071 183.982746 
L 197.989043 185.717575 
L 198.715015 187.051235 
L 199.440987 187.878047 
L 200.166958 189.622849 
L 201.618902 192.26303 
L 202.344873 192.951511 
L 203.070845 193.167802 
L 203.796817 193.799053 
L 204.522789 196.441181 
L 205.24876 198.64729 
L 206.700704 201.187452 
L 207.426675 203.278355 
L 208.152647 205.754614 
L 209.60459 209.50886 
L 210.330562 210.732538 
L 211.782506 214.876505 
L 212.508477 215.962447 
L 213.234449 218.299714 
L 215.412364 221.683443 
L 216.138336 222.639792 
L 216.864307 224.646791 
L 217.590279 225.39403 
L 218.316251 225.724607 
L 219.042223 226.40319 
L 219.768194 228.072538 
L 220.494166 228.255944 
L 221.220138 228.624084 
L 221.946109 228.377293 
L 222.672081 229.036604 
L 223.398053 229.448477 
L 224.124024 229.500381 
L 224.849996 229.064737 
L 225.575968 229.715494 
L 227.753883 227.457329 
L 229.205826 226.477111 
L 229.931798 227.15565 
L 230.65777 226.271473 
L 231.383742 224.793804 
L 232.109713 224.374647 
L 232.835685 224.431582 
L 233.561657 223.581221 
L 234.287628 222.008779 
L 235.0136 221.362453 
L 235.739572 220.463589 
L 236.465543 219.012368 
L 237.191515 218.290555 
L 237.917487 218.649258 
L 238.643459 217.812167 
L 239.36943 217.329422 
L 240.095402 215.595769 
L 240.821374 215.067749 
L 241.547345 213.007966 
L 242.273317 211.928826 
L 242.999289 210.102212 
L 244.451232 208.239276 
L 245.177204 206.780739 
L 245.903176 205.875751 
L 246.629147 205.242692 
L 247.355119 204.437308 
L 248.081091 202.913295 
L 249.533034 200.929736 
L 250.259006 199.21482 
L 250.984977 197.871442 
L 251.710949 197.376617 
L 253.162893 195.086026 
L 253.888864 194.230554 
L 254.614836 193.121227 
L 256.792751 190.393192 
L 257.518723 189.890181 
L 258.244695 188.679406 
L 259.696638 185.525679 
L 260.42261 183.772692 
L 261.148581 182.618021 
L 262.600525 182.504407 
L 263.326496 181.900565 
L 264.052468 181.665254 
L 264.77844 182.37295 
L 265.504412 181.05342 
L 266.230383 182.198185 
L 267.682327 182.761312 
L 268.408298 183.422789 
L 269.13427 184.396053 
L 269.860242 184.725067 
L 270.586213 186.233342 
L 271.312185 187.186629 
L 272.764129 188.593193 
L 273.4901 190.645519 
L 274.216072 190.17283 
L 274.942044 190.326911 
L 275.668015 191.517191 
L 276.393987 191.840286 
L 277.119959 192.553198 
L 277.84593 193.432494 
L 278.571902 194.080689 
L 279.297874 194.976923 
L 280.749817 198.25306 
L 283.653704 202.952179 
L 284.379676 203.139859 
L 285.831619 205.213701 
L 286.557591 205.721121 
L 287.283563 206.921991 
L 288.735506 208.559248 
L 290.187449 210.766442 
L 290.913421 211.455633 
L 291.639393 212.415795 
L 292.365365 213.090326 
L 293.091336 214.296077 
L 294.54328 215.830349 
L 295.269251 215.844538 
L 295.995223 216.373239 
L 296.721195 216.361707 
L 297.447166 216.685425 
L 298.173138 216.607036 
L 298.89911 216.976984 
L 299.625082 217.000494 
L 300.351053 217.346189 
L 301.077025 217.28009 
L 301.802997 217.610652 
L 303.25494 217.638639 
L 303.980912 217.442557 
L 304.706883 217.375497 
L 306.158827 216.826084 
L 306.884799 215.890429 
L 307.61077 217.130399 
L 308.336742 215.969061 
L 309.062714 215.441275 
L 309.788685 214.256717 
L 310.514657 213.40291 
L 311.240629 211.869807 
L 311.966601 211.397859 
L 312.692572 210.435912 
L 313.418544 209.184405 
L 314.144516 208.851896 
L 314.870487 208.380464 
L 317.048402 205.515481 
L 317.774374 204.451341 
L 319.226318 202.897671 
L 319.952289 201.462052 
L 320.678261 200.330239 
L 321.404233 199.421642 
L 322.130204 198.150343 
L 322.856176 196.451782 
L 323.582148 195.631528 
L 324.308119 195.030192 
L 325.034091 193.23407 
L 326.486035 190.581944 
L 327.212006 189.735871 
L 327.937978 188.535652 
L 328.66395 188.013667 
L 329.389921 187.897137 
L 330.115893 187.404151 
L 330.841865 185.389697 
L 331.567836 184.35179 
L 332.293808 184.880227 
L 333.01978 184.280703 
L 333.745752 183.953583 
L 334.471723 183.288188 
L 335.197695 183.107574 
L 335.923667 182.532324 
L 336.649638 183.824053 
L 337.37561 183.594266 
L 338.101582 182.502826 
L 338.827554 183.343505 
L 339.553525 182.263655 
L 340.279497 182.30342 
L 341.73144 184.174818 
L 342.457412 183.683211 
L 343.183384 185.2103 
L 343.909355 186.354543 
L 344.635327 187.736945 
L 345.361299 188.434326 
L 346.087271 188.555877 
L 346.813242 188.474181 
L 348.265186 191.315293 
L 348.991157 192.044563 
L 349.717129 192.188172 
L 350.443101 194.000668 
L 351.895044 195.207094 
L 352.621016 197.184316 
L 353.346988 197.789247 
L 354.072959 199.503889 
L 354.798931 200.471027 
L 356.250874 203.08924 
L 359.154761 207.750676 
L 359.880733 208.801716 
L 360.606705 209.332755 
L 361.332676 210.077699 
L 362.058648 211.772956 
L 362.78462 212.169955 
L 363.510591 213.654121 
L 364.962535 215.140667 
L 366.414478 216.954671 
L 367.14045 217.650927 
L 367.866422 217.726412 
L 368.592393 219.046122 
L 370.770308 220.941562 
L 371.49628 221.639181 
L 372.222252 222.152958 
L 375.126139 223.663422 
L 375.85211 224.481851 
L 376.578082 224.871645 
L 378.030025 226.567888 
L 378.755997 227.010056 
L 379.481969 227.798578 
L 380.933912 228.593583 
L 381.659884 228.862869 
L 382.385856 229.406702 
L 385.289742 230.172087 
L 386.015714 230.322462 
L 386.741686 230.120628 
L 387.467658 230.125641 
L 388.193629 229.969242 
L 388.919601 229.941703 
L 390.371544 229.706751 
L 391.097516 229.921885 
L 391.823488 229.488599 
L 392.54946 229.402687 
L 393.275431 229.658594 
L 394.001403 229.219369 
L 394.727375 229.363992 
L 396.179318 228.472249 
L 397.631261 227.99346 
L 399.809177 226.329655 
L 401.26112 224.89787 
L 401.987092 224.445519 
L 402.713063 223.772524 
L 403.439035 222.925853 
L 405.61695 219.499325 
L 409.246809 212.860049 
L 416.506526 196.143186 
L 417.232497 194.973595 
L 418.684441 191.10961 
L 419.410413 189.821468 
L 425.218186 173.749078 
L 425.944158 172.132628 
L 427.396101 168.483291 
L 428.122073 166.769277 
L 429.574016 164.804437 
L 430.299988 163.767497 
L 431.751931 162.227654 
L 432.477903 161.522465 
L 433.203875 161.011778 
L 433.929847 160.651741 
L 435.38179 160.287682 
L 436.107762 160.378157 
L 436.833733 160.58305 
L 439.011648 161.889 
L 439.73762 162.461626 
L 441.915535 166.009211 
L 442.641507 166.979409 
L 446.271366 173.592394 
L 451.353167 185.685917 
L 452.079139 187.140041 
L 452.805111 188.860688 
L 454.257054 191.81344 
L 458.612884 201.621109 
L 462.242743 208.266821 
L 464.420658 211.763493 
L 465.14663 212.911097 
L 467.324545 217.913138 
L 470.228432 223.478936 
L 470.954403 224.803427 
L 470.954403 224.803427 
" style="fill:none;stroke:#2ca02c;stroke-linecap:square;stroke-width:1.5;"/>
   </g>
   <g id="line2d_4">
    <path clip-path="url(#p4ece1caed4)" d="M 65.136222 251.375716 
L 65.862193 250.595623 
L 66.588165 251.373538 
L 67.314137 250.809111 
L 68.76608 250.769811 
L 69.492052 250.31696 
L 70.218024 250.036108 
L 70.943995 248.808414 
L 71.669967 248.228813 
L 72.395939 248.752864 
L 73.12191 248.407386 
L 73.847882 246.724637 
L 74.573854 246.592041 
L 75.299825 245.995242 
L 76.025797 246.446511 
L 76.751769 244.609678 
L 78.203712 243.959031 
L 81.107599 241.483031 
L 81.833571 240.280764 
L 82.559542 239.83573 
L 83.285514 238.780662 
L 84.011486 238.183385 
L 85.463429 238.439074 
L 86.189401 238.058105 
L 86.915373 238.5488 
L 87.641344 237.695401 
L 88.367316 237.585936 
L 89.093288 237.151302 
L 89.819259 237.228183 
L 91.271203 238.596868 
L 92.723146 239.151009 
L 93.449118 239.539039 
L 94.17509 239.599939 
L 94.901061 240.265959 
L 97.804948 241.069581 
L 98.53092 242.242093 
L 99.256892 242.358641 
L 99.982863 243.871232 
L 100.708835 242.799012 
L 101.434807 243.149578 
L 102.160778 242.073854 
L 102.88675 242.020652 
L 103.612722 241.641984 
L 105.790637 238.957289 
L 106.516609 239.792595 
L 107.24258 240.336871 
L 107.968552 240.010239 
L 108.694524 238.801799 
L 109.420495 237.903963 
L 110.146467 237.485718 
L 110.872439 236.174414 
L 111.598411 236.088735 
L 112.324382 235.541494 
L 113.050354 235.732175 
L 113.776326 235.323375 
L 114.502297 235.192342 
L 115.954241 234.712677 
L 116.680212 235.900188 
L 117.406184 236.461905 
L 118.858128 236.827917 
L 119.584099 236.438025 
L 120.310071 235.191279 
L 121.036043 235.213228 
L 121.762014 235.039088 
L 122.487986 233.657035 
L 123.213958 233.452904 
L 124.665901 232.818953 
L 125.391873 232.126351 
L 126.117845 231.805639 
L 126.843816 233.150888 
L 127.569788 232.19998 
L 128.29576 232.159654 
L 129.021731 231.895432 
L 131.199647 232.164568 
L 132.65159 233.979256 
L 133.377562 232.277701 
L 134.103533 232.502976 
L 134.829505 233.668073 
L 135.555477 233.423316 
L 136.281448 232.492844 
L 137.00742 232.472031 
L 137.733392 232.111971 
L 138.459364 232.05335 
L 139.185335 232.131334 
L 139.911307 231.93083 
L 140.637279 231.274797 
L 141.36325 231.284023 
L 142.089222 231.102025 
L 142.815194 231.104504 
L 144.267137 228.006808 
L 144.993109 226.936341 
L 145.719081 226.231853 
L 146.445052 225.825891 
L 147.171024 225.998976 
L 147.896996 225.087428 
L 149.348939 222.537358 
L 150.800883 220.957692 
L 151.526854 220.36325 
L 152.252826 220.805573 
L 152.978798 218.987337 
L 154.430741 217.395243 
L 155.882684 217.220247 
L 156.608656 214.428598 
L 157.334628 213.690536 
L 158.0606 215.030203 
L 159.512543 213.966739 
L 160.238515 212.159629 
L 160.964486 211.412425 
L 161.690458 209.892098 
L 162.41643 209.409506 
L 163.142401 207.674264 
L 164.594345 206.203291 
L 166.046288 205.122178 
L 166.77226 204.730509 
L 167.498232 202.428831 
L 168.224203 201.388499 
L 168.950175 199.186757 
L 169.676147 198.316577 
L 170.402118 198.741609 
L 171.12809 198.226448 
L 171.854062 197.936905 
L 172.580034 197.419067 
L 173.306005 195.459212 
L 174.031977 194.460223 
L 174.757949 191.570649 
L 175.48392 189.49021 
L 176.209892 187.941621 
L 176.935864 187.532276 
L 177.661836 186.323241 
L 178.387807 186.441461 
L 179.113779 185.18842 
L 179.839751 184.457236 
L 180.565722 183.959082 
L 181.291694 181.927188 
L 182.017666 181.105431 
L 182.743637 179.330433 
L 183.469609 179.070111 
L 184.195581 178.428329 
L 184.921553 177.48274 
L 185.647524 177.300073 
L 186.373496 176.088693 
L 187.099468 176.892808 
L 187.825439 177.016218 
L 188.551411 178.771251 
L 189.277383 178.964012 
L 190.003354 179.378195 
L 190.729326 180.674972 
L 191.455298 181.38359 
L 192.907241 183.231246 
L 193.633213 182.328896 
L 194.359185 182.636558 
L 195.811128 183.71103 
L 196.5371 186.752891 
L 197.263071 186.07026 
L 197.989043 189.275212 
L 199.440987 193.31612 
L 200.166958 196.884107 
L 200.89293 199.887953 
L 202.344873 203.515515 
L 203.070845 203.970398 
L 203.796817 204.977589 
L 205.24876 211.583311 
L 205.974732 214.13902 
L 206.700704 216.080285 
L 208.152647 222.001817 
L 208.878619 225.908521 
L 210.330562 230.328536 
L 211.056534 233.451522 
L 213.960421 241.788427 
L 215.412364 245.045433 
L 216.138336 245.707105 
L 216.864307 248.130211 
L 217.590279 249.008125 
L 219.042223 251.240706 
L 220.494166 255.092149 
L 223.398053 259.275584 
L 224.124024 259.474678 
L 225.575968 260.631136 
L 226.30194 260.839235 
L 227.027911 261.427687 
L 227.753883 261.253719 
L 228.479855 261.468143 
L 229.205826 261.502656 
L 229.931798 262.5649 
L 231.383742 263.022718 
L 232.109713 262.728742 
L 232.835685 263.391747 
L 233.561657 263.451375 
L 235.0136 262.717813 
L 235.739572 262.460616 
L 236.465543 262.56486 
L 237.191515 261.438451 
L 237.917487 261.593019 
L 238.643459 260.600994 
L 239.36943 260.383529 
L 240.095402 259.883344 
L 240.821374 258.7054 
L 241.547345 258.179706 
L 242.273317 257.504673 
L 242.999289 256.418745 
L 243.72526 255.818764 
L 245.177204 254.892891 
L 245.903176 254.890666 
L 246.629147 253.771545 
L 247.355119 253.31757 
L 248.081091 252.457129 
L 250.984977 249.992983 
L 251.710949 248.779362 
L 253.162893 247.491032 
L 253.888864 246.317718 
L 254.614836 245.613252 
L 255.340808 245.099473 
L 256.792751 242.532399 
L 257.518723 241.764723 
L 258.244695 240.344002 
L 258.970666 238.575674 
L 260.42261 236.452534 
L 261.148581 234.465905 
L 261.874553 234.258646 
L 263.326496 232.433808 
L 264.052468 231.852356 
L 264.77844 229.812812 
L 265.504412 228.300419 
L 266.230383 227.048327 
L 266.956355 226.314304 
L 267.682327 225.291243 
L 268.408298 224.609625 
L 269.13427 224.192387 
L 269.860242 223.509717 
L 270.586213 223.552067 
L 271.312185 223.291319 
L 272.038157 223.254558 
L 272.764129 221.476405 
L 273.4901 221.903428 
L 274.216072 221.645484 
L 274.942044 220.27267 
L 275.668015 220.603085 
L 276.393987 220.427188 
L 277.84593 220.849256 
L 278.571902 219.786448 
L 279.297874 219.121814 
L 280.023846 219.515054 
L 280.749817 220.186995 
L 281.475789 218.590768 
L 282.201761 217.930233 
L 282.927732 217.831453 
L 283.653704 217.427306 
L 285.831619 216.815342 
L 288.735506 215.712002 
L 290.187449 215.842693 
L 290.913421 215.781531 
L 291.639393 215.87741 
L 292.365365 215.75133 
L 293.091336 216.017408 
L 293.817308 216.000301 
L 296.721195 216.774871 
L 297.447166 216.787257 
L 298.173138 216.67245 
L 299.625082 216.832123 
L 300.351053 216.205421 
L 301.077025 216.294484 
L 301.802997 215.351417 
L 302.528968 215.386693 
L 305.432855 214.119295 
L 306.158827 213.122739 
L 306.884799 212.986913 
L 307.61077 214.393826 
L 308.336742 214.235814 
L 309.062714 214.670321 
L 311.240629 214.93841 
L 311.966601 214.132109 
L 312.692572 215.108033 
L 313.418544 214.672244 
L 314.144516 215.639272 
L 314.870487 216.307188 
L 316.322431 217.075734 
L 317.048402 217.234444 
L 317.774374 217.703407 
L 318.500346 217.362317 
L 320.678261 218.860534 
L 322.130204 219.50488 
L 322.856176 220.090981 
L 323.582148 220.370928 
L 324.308119 222.10893 
L 325.034091 222.484437 
L 326.486035 223.714215 
L 327.212006 224.656436 
L 327.937978 225.238142 
L 328.66395 227.113243 
L 329.389921 228.639243 
L 330.115893 229.635484 
L 330.841865 229.615238 
L 331.567836 230.439176 
L 332.293808 232.210609 
L 333.01978 232.907449 
L 333.745752 234.396438 
L 334.471723 235.371033 
L 335.197695 235.715792 
L 335.923667 236.703702 
L 336.649638 238.690574 
L 338.827554 241.705004 
L 341.005469 244.8573 
L 341.73144 246.399395 
L 342.457412 247.478006 
L 343.183384 249.16343 
L 343.909355 249.944752 
L 344.635327 251.224445 
L 347.539214 255.142949 
L 348.265186 255.968547 
L 349.717129 257.247868 
L 350.443101 258.02769 
L 353.346988 260.072899 
L 355.524903 260.977495 
L 356.976846 261.342343 
L 357.702818 261.272317 
L 358.428789 261.346579 
L 359.154761 261.288869 
L 359.880733 261.106814 
L 362.058648 260.155409 
L 363.510591 258.758272 
L 364.236563 258.137026 
L 367.14045 256.142863 
L 367.866422 255.339005 
L 368.592393 255.202865 
L 369.318365 254.39383 
L 370.044337 253.804764 
L 372.948224 250.67919 
L 375.126139 248.84618 
L 375.85211 248.636261 
L 376.578082 247.419234 
L 377.304054 247.237247 
L 378.030025 246.701503 
L 378.755997 245.544408 
L 380.933912 243.137083 
L 381.659884 242.282504 
L 382.385856 241.859378 
L 383.111827 240.885933 
L 383.837799 239.688687 
L 384.563771 238.929851 
L 385.289742 238.476961 
L 386.015714 237.698134 
L 389.645573 234.778394 
L 390.371544 234.377117 
L 391.097516 234.191358 
L 392.54946 233.242904 
L 393.275431 233.225545 
L 394.001403 232.882067 
L 394.727375 232.873547 
L 396.179318 232.443689 
L 397.631261 232.570452 
L 399.083205 232.52966 
L 399.809177 232.60759 
L 400.535148 232.114695 
L 401.26112 231.920217 
L 401.987092 232.120265 
L 403.439035 231.534242 
L 404.890978 230.429183 
L 408.520837 227.932885 
L 409.246809 227.77277 
L 411.424724 225.808222 
L 412.150695 225.114761 
L 412.876667 224.590956 
L 414.328611 223.06266 
L 415.054582 222.569082 
L 415.780554 222.402308 
L 416.506526 221.568813 
L 417.232497 221.229239 
L 418.684441 220.17636 
L 419.410413 219.805352 
L 420.136384 219.11624 
L 423.766243 217.051829 
L 425.218186 216.394537 
L 425.944158 216.128791 
L 426.67013 215.572564 
L 428.122073 214.889506 
L 431.02596 215.365795 
L 431.751931 215.68715 
L 432.477903 215.875068 
L 433.929847 216.8178 
L 436.107762 219.109981 
L 436.833733 219.53687 
L 437.559705 220.501782 
L 439.011648 222.042989 
L 439.73762 222.513819 
L 441.915535 225.51498 
L 445.545394 230.206674 
L 449.175252 235.083582 
L 452.079139 238.57949 
L 454.257054 240.839497 
L 457.160941 243.539484 
L 458.612884 244.677641 
L 460.7908 246.028416 
L 462.242743 246.733076 
L 464.420658 247.497259 
L 466.598573 247.964658 
L 468.776488 248.127 
L 470.954403 248.128743 
L 470.954403 248.128743 
" style="fill:none;stroke:#d62728;stroke-linecap:square;stroke-width:1.5;"/>
   </g>
   <g id="line2d_5">
    <path clip-path="url(#p4ece1caed4)" d="M 65.136222 230.316174 
L 470.954403 230.316174 
L 470.954403 230.316174 
" style="fill:none;stroke:#000000;stroke-dasharray:3.7,1.6;stroke-dashoffset:0;"/>
   </g>
   <g id="matplotlib.axis_1">
    <g id="xtick_1">
     <g id="line2d_6">
      <defs>
       <path d="M 0 0 
L 0 3.5 
" id="m498d74ff6a" style="stroke:#000000;stroke-width:0.8;"/>
      </defs>
      <g>
       <use style="stroke:#000000;stroke-width:0.8;" x="86.189401" xlink:href="#m498d74ff6a" y="294.118125"/>
      </g>
     </g>
     <g id="text_1">
      <!-- 100 -->
      <defs>
       <path d="M 12.40625 8.296875 
L 28.515625 8.296875 
L 28.515625 63.921875 
L 10.984375 60.40625 
L 10.984375 69.390625 
L 28.421875 72.90625 
L 38.28125 72.90625 
L 38.28125 8.296875 
L 54.390625 8.296875 
L 54.390625 0 
L 12.40625 0 
z
" id="DejaVuSans-49"/>
       <path d="M 31.78125 66.40625 
Q 24.171875 66.40625 20.328125 58.90625 
Q 16.5 51.421875 16.5 36.375 
Q 16.5 21.390625 20.328125 13.890625 
Q 24.171875 6.390625 31.78125 6.390625 
Q 39.453125 6.390625 43.28125 13.890625 
Q 47.125 21.390625 47.125 36.375 
Q 47.125 51.421875 43.28125 58.90625 
Q 39.453125 66.40625 31.78125 66.40625 
z
M 31.78125 74.21875 
Q 44.046875 74.21875 50.515625 64.515625 
Q 56.984375 54.828125 56.984375 36.375 
Q 56.984375 17.96875 50.515625 8.265625 
Q 44.046875 -1.421875 31.78125 -1.421875 
Q 19.53125 -1.421875 13.0625 8.265625 
Q 6.59375 17.96875 6.59375 36.375 
Q 6.59375 54.828125 13.0625 64.515625 
Q 19.53125 74.21875 31.78125 74.21875 
z
" id="DejaVuSans-48"/>
      </defs>
      <g transform="translate(76.645651 308.716563)scale(0.1 -0.1)">
       <use xlink:href="#DejaVuSans-49"/>
       <use x="63.623047" xlink:href="#DejaVuSans-48"/>
       <use x="127.246094" xlink:href="#DejaVuSans-48"/>
      </g>
     </g>
    </g>
    <g id="xtick_2">
     <g id="line2d_7">
      <g>
       <use style="stroke:#000000;stroke-width:0.8;" x="158.786571" xlink:href="#m498d74ff6a" y="294.118125"/>
      </g>
     </g>
     <g id="text_2">
      <!-- 200 -->
      <defs>
       <path d="M 19.1875 8.296875 
L 53.609375 8.296875 
L 53.609375 0 
L 7.328125 0 
L 7.328125 8.296875 
Q 12.9375 14.109375 22.625 23.890625 
Q 32.328125 33.6875 34.8125 36.53125 
Q 39.546875 41.84375 41.421875 45.53125 
Q 43.3125 49.21875 43.3125 52.78125 
Q 43.3125 58.59375 39.234375 62.25 
Q 35.15625 65.921875 28.609375 65.921875 
Q 23.96875 65.921875 18.8125 64.3125 
Q 13.671875 62.703125 7.8125 59.421875 
L 7.8125 69.390625 
Q 13.765625 71.78125 18.9375 73 
Q 24.125 74.21875 28.421875 74.21875 
Q 39.75 74.21875 46.484375 68.546875 
Q 53.21875 62.890625 53.21875 53.421875 
Q 53.21875 48.921875 51.53125 44.890625 
Q 49.859375 40.875 45.40625 35.40625 
Q 44.1875 33.984375 37.640625 27.21875 
Q 31.109375 20.453125 19.1875 8.296875 
z
" id="DejaVuSans-50"/>
      </defs>
      <g transform="translate(149.242821 308.716563)scale(0.1 -0.1)">
       <use xlink:href="#DejaVuSans-50"/>
       <use x="63.623047" xlink:href="#DejaVuSans-48"/>
       <use x="127.246094" xlink:href="#DejaVuSans-48"/>
      </g>
     </g>
    </g>
    <g id="xtick_3">
     <g id="line2d_8">
      <g>
       <use style="stroke:#000000;stroke-width:0.8;" x="231.383742" xlink:href="#m498d74ff6a" y="294.118125"/>
      </g>
     </g>
     <g id="text_3">
      <!-- 300 -->
      <defs>
       <path d="M 40.578125 39.3125 
Q 47.65625 37.796875 51.625 33 
Q 55.609375 28.21875 55.609375 21.1875 
Q 55.609375 10.40625 48.1875 4.484375 
Q 40.765625 -1.421875 27.09375 -1.421875 
Q 22.515625 -1.421875 17.65625 -0.515625 
Q 12.796875 0.390625 7.625 2.203125 
L 7.625 11.71875 
Q 11.71875 9.328125 16.59375 8.109375 
Q 21.484375 6.890625 26.8125 6.890625 
Q 36.078125 6.890625 40.9375 10.546875 
Q 45.796875 14.203125 45.796875 21.1875 
Q 45.796875 27.640625 41.28125 31.265625 
Q 36.765625 34.90625 28.71875 34.90625 
L 20.21875 34.90625 
L 20.21875 43.015625 
L 29.109375 43.015625 
Q 36.375 43.015625 40.234375 45.921875 
Q 44.09375 48.828125 44.09375 54.296875 
Q 44.09375 59.90625 40.109375 62.90625 
Q 36.140625 65.921875 28.71875 65.921875 
Q 24.65625 65.921875 20.015625 65.03125 
Q 15.375 64.15625 9.8125 62.3125 
L 9.8125 71.09375 
Q 15.4375 72.65625 20.34375 73.4375 
Q 25.25 74.21875 29.59375 74.21875 
Q 40.828125 74.21875 47.359375 69.109375 
Q 53.90625 64.015625 53.90625 55.328125 
Q 53.90625 49.265625 50.4375 45.09375 
Q 46.96875 40.921875 40.578125 39.3125 
z
" id="DejaVuSans-51"/>
      </defs>
      <g transform="translate(221.839992 308.716563)scale(0.1 -0.1)">
       <use xlink:href="#DejaVuSans-51"/>
       <use x="63.623047" xlink:href="#DejaVuSans-48"/>
       <use x="127.246094" xlink:href="#DejaVuSans-48"/>
      </g>
     </g>
    </g>
    <g id="xtick_4">
     <g id="line2d_9">
      <g>
       <use style="stroke:#000000;stroke-width:0.8;" x="303.980912" xlink:href="#m498d74ff6a" y="294.118125"/>
      </g>
     </g>
     <g id="text_4">
      <!-- 400 -->
      <defs>
       <path d="M 37.796875 64.3125 
L 12.890625 25.390625 
L 37.796875 25.390625 
z
M 35.203125 72.90625 
L 47.609375 72.90625 
L 47.609375 25.390625 
L 58.015625 25.390625 
L 58.015625 17.1875 
L 47.609375 17.1875 
L 47.609375 0 
L 37.796875 0 
L 37.796875 17.1875 
L 4.890625 17.1875 
L 4.890625 26.703125 
z
" id="DejaVuSans-52"/>
      </defs>
      <g transform="translate(294.437162 308.716563)scale(0.1 -0.1)">
       <use xlink:href="#DejaVuSans-52"/>
       <use x="63.623047" xlink:href="#DejaVuSans-48"/>
       <use x="127.246094" xlink:href="#DejaVuSans-48"/>
      </g>
     </g>
    </g>
    <g id="xtick_5">
     <g id="line2d_10">
      <g>
       <use style="stroke:#000000;stroke-width:0.8;" x="376.578082" xlink:href="#m498d74ff6a" y="294.118125"/>
      </g>
     </g>
     <g id="text_5">
      <!-- 500 -->
      <defs>
       <path d="M 10.796875 72.90625 
L 49.515625 72.90625 
L 49.515625 64.59375 
L 19.828125 64.59375 
L 19.828125 46.734375 
Q 21.96875 47.46875 24.109375 47.828125 
Q 26.265625 48.1875 28.421875 48.1875 
Q 40.625 48.1875 47.75 41.5 
Q 54.890625 34.8125 54.890625 23.390625 
Q 54.890625 11.625 47.5625 5.09375 
Q 40.234375 -1.421875 26.90625 -1.421875 
Q 22.3125 -1.421875 17.546875 -0.640625 
Q 12.796875 0.140625 7.71875 1.703125 
L 7.71875 11.625 
Q 12.109375 9.234375 16.796875 8.0625 
Q 21.484375 6.890625 26.703125 6.890625 
Q 35.15625 6.890625 40.078125 11.328125 
Q 45.015625 15.765625 45.015625 23.390625 
Q 45.015625 31 40.078125 35.4375 
Q 35.15625 39.890625 26.703125 39.890625 
Q 22.75 39.890625 18.8125 39.015625 
Q 14.890625 38.140625 10.796875 36.28125 
z
" id="DejaVuSans-53"/>
      </defs>
      <g transform="translate(367.034332 308.716563)scale(0.1 -0.1)">
       <use xlink:href="#DejaVuSans-53"/>
       <use x="63.623047" xlink:href="#DejaVuSans-48"/>
       <use x="127.246094" xlink:href="#DejaVuSans-48"/>
      </g>
     </g>
    </g>
    <g id="xtick_6">
     <g id="line2d_11">
      <g>
       <use style="stroke:#000000;stroke-width:0.8;" x="449.175252" xlink:href="#m498d74ff6a" y="294.118125"/>
      </g>
     </g>
     <g id="text_6">
      <!-- 600 -->
      <defs>
       <path d="M 33.015625 40.375 
Q 26.375 40.375 22.484375 35.828125 
Q 18.609375 31.296875 18.609375 23.390625 
Q 18.609375 15.53125 22.484375 10.953125 
Q 26.375 6.390625 33.015625 6.390625 
Q 39.65625 6.390625 43.53125 10.953125 
Q 47.40625 15.53125 47.40625 23.390625 
Q 47.40625 31.296875 43.53125 35.828125 
Q 39.65625 40.375 33.015625 40.375 
z
M 52.59375 71.296875 
L 52.59375 62.3125 
Q 48.875 64.0625 45.09375 64.984375 
Q 41.3125 65.921875 37.59375 65.921875 
Q 27.828125 65.921875 22.671875 59.328125 
Q 17.53125 52.734375 16.796875 39.40625 
Q 19.671875 43.65625 24.015625 45.921875 
Q 28.375 48.1875 33.59375 48.1875 
Q 44.578125 48.1875 50.953125 41.515625 
Q 57.328125 34.859375 57.328125 23.390625 
Q 57.328125 12.15625 50.6875 5.359375 
Q 44.046875 -1.421875 33.015625 -1.421875 
Q 20.359375 -1.421875 13.671875 8.265625 
Q 6.984375 17.96875 6.984375 36.375 
Q 6.984375 53.65625 15.1875 63.9375 
Q 23.390625 74.21875 37.203125 74.21875 
Q 40.921875 74.21875 44.703125 73.484375 
Q 48.484375 72.75 52.59375 71.296875 
z
" id="DejaVuSans-54"/>
      </defs>
      <g transform="translate(439.631502 308.716563)scale(0.1 -0.1)">
       <use xlink:href="#DejaVuSans-54"/>
       <use x="63.623047" xlink:href="#DejaVuSans-48"/>
       <use x="127.246094" xlink:href="#DejaVuSans-48"/>
      </g>
     </g>
    </g>
    <g id="text_7">
     <!-- Tempo -->
     <defs>
      <path d="M -0.296875 72.90625 
L 61.375 72.90625 
L 61.375 64.59375 
L 35.5 64.59375 
L 35.5 0 
L 25.59375 0 
L 25.59375 64.59375 
L -0.296875 64.59375 
z
" id="DejaVuSans-84"/>
      <path d="M 56.203125 29.59375 
L 56.203125 25.203125 
L 14.890625 25.203125 
Q 15.484375 15.921875 20.484375 11.0625 
Q 25.484375 6.203125 34.421875 6.203125 
Q 39.59375 6.203125 44.453125 7.46875 
Q 49.3125 8.734375 54.109375 11.28125 
L 54.109375 2.78125 
Q 49.265625 0.734375 44.1875 -0.34375 
Q 39.109375 -1.421875 33.890625 -1.421875 
Q 20.796875 -1.421875 13.15625 6.1875 
Q 5.515625 13.8125 5.515625 26.8125 
Q 5.515625 40.234375 12.765625 48.109375 
Q 20.015625 56 32.328125 56 
Q 43.359375 56 49.78125 48.890625 
Q 56.203125 41.796875 56.203125 29.59375 
z
M 47.21875 32.234375 
Q 47.125 39.59375 43.09375 43.984375 
Q 39.0625 48.390625 32.421875 48.390625 
Q 24.90625 48.390625 20.390625 44.140625 
Q 15.875 39.890625 15.1875 32.171875 
z
" id="DejaVuSans-101"/>
      <path d="M 52 44.1875 
Q 55.375 50.25 60.0625 53.125 
Q 64.75 56 71.09375 56 
Q 79.640625 56 84.28125 50.015625 
Q 88.921875 44.046875 88.921875 33.015625 
L 88.921875 0 
L 79.890625 0 
L 79.890625 32.71875 
Q 79.890625 40.578125 77.09375 44.375 
Q 74.3125 48.1875 68.609375 48.1875 
Q 61.625 48.1875 57.5625 43.546875 
Q 53.515625 38.921875 53.515625 30.90625 
L 53.515625 0 
L 44.484375 0 
L 44.484375 32.71875 
Q 44.484375 40.625 41.703125 44.40625 
Q 38.921875 48.1875 33.109375 48.1875 
Q 26.21875 48.1875 22.15625 43.53125 
Q 18.109375 38.875 18.109375 30.90625 
L 18.109375 0 
L 9.078125 0 
L 9.078125 54.6875 
L 18.109375 54.6875 
L 18.109375 46.1875 
Q 21.1875 51.21875 25.484375 53.609375 
Q 29.78125 56 35.6875 56 
Q 41.65625 56 45.828125 52.96875 
Q 50 49.953125 52 44.1875 
z
" id="DejaVuSans-109"/>
      <path d="M 18.109375 8.203125 
L 18.109375 -20.796875 
L 9.078125 -20.796875 
L 9.078125 54.6875 
L 18.109375 54.6875 
L 18.109375 46.390625 
Q 20.953125 51.265625 25.265625 53.625 
Q 29.59375 56 35.59375 56 
Q 45.5625 56 51.78125 48.09375 
Q 58.015625 40.1875 58.015625 27.296875 
Q 58.015625 14.40625 51.78125 6.484375 
Q 45.5625 -1.421875 35.59375 -1.421875 
Q 29.59375 -1.421875 25.265625 0.953125 
Q 20.953125 3.328125 18.109375 8.203125 
z
M 48.6875 27.296875 
Q 48.6875 37.203125 44.609375 42.84375 
Q 40.53125 48.484375 33.40625 48.484375 
Q 26.265625 48.484375 22.1875 42.84375 
Q 18.109375 37.203125 18.109375 27.296875 
Q 18.109375 17.390625 22.1875 11.75 
Q 26.265625 6.109375 33.40625 6.109375 
Q 40.53125 6.109375 44.609375 11.75 
Q 48.6875 17.390625 48.6875 27.296875 
z
" id="DejaVuSans-112"/>
      <path d="M 30.609375 48.390625 
Q 23.390625 48.390625 19.1875 42.75 
Q 14.984375 37.109375 14.984375 27.296875 
Q 14.984375 17.484375 19.15625 11.84375 
Q 23.34375 6.203125 30.609375 6.203125 
Q 37.796875 6.203125 41.984375 11.859375 
Q 46.1875 17.53125 46.1875 27.296875 
Q 46.1875 37.015625 41.984375 42.703125 
Q 37.796875 48.390625 30.609375 48.390625 
z
M 30.609375 56 
Q 42.328125 56 49.015625 48.375 
Q 55.71875 40.765625 55.71875 27.296875 
Q 55.71875 13.875 49.015625 6.21875 
Q 42.328125 -1.421875 30.609375 -1.421875 
Q 18.84375 -1.421875 12.171875 6.21875 
Q 5.515625 13.875 5.515625 27.296875 
Q 5.515625 40.765625 12.171875 48.375 
Q 18.84375 56 30.609375 56 
z
" id="DejaVuSans-111"/>
     </defs>
     <g transform="translate(251.660938 322.394687)scale(0.1 -0.1)">
      <use xlink:href="#DejaVuSans-84"/>
      <use x="44.083984" xlink:href="#DejaVuSans-101"/>
      <use x="105.607422" xlink:href="#DejaVuSans-109"/>
      <use x="203.019531" xlink:href="#DejaVuSans-112"/>
      <use x="266.496094" xlink:href="#DejaVuSans-111"/>
     </g>
    </g>
   </g>
   <g id="matplotlib.axis_2">
    <g id="ytick_1">
     <g id="line2d_12">
      <defs>
       <path d="M 0 0 
L -3.5 0 
" id="m61d4f24b14" style="stroke:#000000;stroke-width:0.8;"/>
      </defs>
      <g>
       <use style="stroke:#000000;stroke-width:0.8;" x="44.845313" xlink:href="#m61d4f24b14" y="291.758371"/>
      </g>
     </g>
     <g id="text_8">
      <!-- 0.50 -->
      <defs>
       <path d="M 10.59375 35.5 
L 73.1875 35.5 
L 73.1875 27.203125 
L 10.59375 27.203125 
z
" id="DejaVuSans-8722"/>
       <path d="M 10.6875 12.40625 
L 21 12.40625 
L 21 0 
L 10.6875 0 
z
" id="DejaVuSans-46"/>
      </defs>
      <g transform="translate(7.2 295.55759)scale(0.1 -0.1)">
       <use xlink:href="#DejaVuSans-8722"/>
       <use x="83.789062" xlink:href="#DejaVuSans-48"/>
       <use x="147.412109" xlink:href="#DejaVuSans-46"/>
       <use x="179.199219" xlink:href="#DejaVuSans-53"/>
       <use x="242.822266" xlink:href="#DejaVuSans-48"/>
      </g>
     </g>
    </g>
    <g id="ytick_2">
     <g id="line2d_13">
      <g>
       <use style="stroke:#000000;stroke-width:0.8;" x="44.845313" xlink:href="#m61d4f24b14" y="261.037273"/>
      </g>
     </g>
     <g id="text_9">
      <!-- 0.25 -->
      <g transform="translate(7.2 264.836491)scale(0.1 -0.1)">
       <use xlink:href="#DejaVuSans-8722"/>
       <use x="83.789062" xlink:href="#DejaVuSans-48"/>
       <use x="147.412109" xlink:href="#DejaVuSans-46"/>
       <use x="179.199219" xlink:href="#DejaVuSans-50"/>
       <use x="242.822266" xlink:href="#DejaVuSans-53"/>
      </g>
     </g>
    </g>
    <g id="ytick_3">
     <g id="line2d_14">
      <g>
       <use style="stroke:#000000;stroke-width:0.8;" x="44.845313" xlink:href="#m61d4f24b14" y="230.316174"/>
      </g>
     </g>
     <g id="text_10">
      <!-- 0.00 -->
      <g transform="translate(15.579688 234.115393)scale(0.1 -0.1)">
       <use xlink:href="#DejaVuSans-48"/>
       <use x="63.623047" xlink:href="#DejaVuSans-46"/>
       <use x="95.410156" xlink:href="#DejaVuSans-48"/>
       <use x="159.033203" xlink:href="#DejaVuSans-48"/>
      </g>
     </g>
    </g>
    <g id="ytick_4">
     <g id="line2d_15">
      <g>
       <use style="stroke:#000000;stroke-width:0.8;" x="44.845313" xlink:href="#m61d4f24b14" y="199.595076"/>
      </g>
     </g>
     <g id="text_11">
      <!-- 0.25 -->
      <g transform="translate(15.579688 203.394295)scale(0.1 -0.1)">
       <use xlink:href="#DejaVuSans-48"/>
       <use x="63.623047" xlink:href="#DejaVuSans-46"/>
       <use x="95.410156" xlink:href="#DejaVuSans-50"/>
       <use x="159.033203" xlink:href="#DejaVuSans-53"/>
      </g>
     </g>
    </g>
    <g id="ytick_5">
     <g id="line2d_16">
      <g>
       <use style="stroke:#000000;stroke-width:0.8;" x="44.845313" xlink:href="#m61d4f24b14" y="168.873977"/>
      </g>
     </g>
     <g id="text_12">
      <!-- 0.50 -->
      <g transform="translate(15.579688 172.673196)scale(0.1 -0.1)">
       <use xlink:href="#DejaVuSans-48"/>
       <use x="63.623047" xlink:href="#DejaVuSans-46"/>
       <use x="95.410156" xlink:href="#DejaVuSans-53"/>
       <use x="159.033203" xlink:href="#DejaVuSans-48"/>
      </g>
     </g>
    </g>
    <g id="ytick_6">
     <g id="line2d_17">
      <g>
       <use style="stroke:#000000;stroke-width:0.8;" x="44.845313" xlink:href="#m61d4f24b14" y="138.152879"/>
      </g>
     </g>
     <g id="text_13">
      <!-- 0.75 -->
      <defs>
       <path d="M 8.203125 72.90625 
L 55.078125 72.90625 
L 55.078125 68.703125 
L 28.609375 0 
L 18.3125 0 
L 43.21875 64.59375 
L 8.203125 64.59375 
z
" id="DejaVuSans-55"/>
      </defs>
      <g transform="translate(15.579688 141.952098)scale(0.1 -0.1)">
       <use xlink:href="#DejaVuSans-48"/>
       <use x="63.623047" xlink:href="#DejaVuSans-46"/>
       <use x="95.410156" xlink:href="#DejaVuSans-55"/>
       <use x="159.033203" xlink:href="#DejaVuSans-53"/>
      </g>
     </g>
    </g>
    <g id="ytick_7">
     <g id="line2d_18">
      <g>
       <use style="stroke:#000000;stroke-width:0.8;" x="44.845313" xlink:href="#m61d4f24b14" y="107.43178"/>
      </g>
     </g>
     <g id="text_14">
      <!-- 1.00 -->
      <g transform="translate(15.579688 111.230999)scale(0.1 -0.1)">
       <use xlink:href="#DejaVuSans-49"/>
       <use x="63.623047" xlink:href="#DejaVuSans-46"/>
       <use x="95.410156" xlink:href="#DejaVuSans-48"/>
       <use x="159.033203" xlink:href="#DejaVuSans-48"/>
      </g>
     </g>
    </g>
    <g id="ytick_8">
     <g id="line2d_19">
      <g>
       <use style="stroke:#000000;stroke-width:0.8;" x="44.845313" xlink:href="#m61d4f24b14" y="76.710682"/>
      </g>
     </g>
     <g id="text_15">
      <!-- 1.25 -->
      <g transform="translate(15.579688 80.509901)scale(0.1 -0.1)">
       <use xlink:href="#DejaVuSans-49"/>
       <use x="63.623047" xlink:href="#DejaVuSans-46"/>
       <use x="95.410156" xlink:href="#DejaVuSans-50"/>
       <use x="159.033203" xlink:href="#DejaVuSans-53"/>
      </g>
     </g>
    </g>
    <g id="ytick_9">
     <g id="line2d_20">
      <g>
       <use style="stroke:#000000;stroke-width:0.8;" x="44.845313" xlink:href="#m61d4f24b14" y="45.989584"/>
      </g>
     </g>
     <g id="text_16">
      <!-- 1.50 -->
      <g transform="translate(15.579688 49.788802)scale(0.1 -0.1)">
       <use xlink:href="#DejaVuSans-49"/>
       <use x="63.623047" xlink:href="#DejaVuSans-46"/>
       <use x="95.410156" xlink:href="#DejaVuSans-53"/>
       <use x="159.033203" xlink:href="#DejaVuSans-48"/>
      </g>
     </g>
    </g>
   </g>
   <g id="patch_3">
    <path d="M 44.845313 294.118125 
L 44.845313 22.318125 
" style="fill:none;stroke:#000000;stroke-linecap:square;stroke-linejoin:miter;stroke-width:0.8;"/>
   </g>
   <g id="patch_4">
    <path d="M 44.845313 294.118125 
L 491.245312 294.118125 
" style="fill:none;stroke:#000000;stroke-linecap:square;stroke-linejoin:miter;stroke-width:0.8;"/>
   </g>
   <g id="text_17">
    <!-- Q_fc -->
    <defs>
     <path d="M 39.40625 66.21875 
Q 28.65625 66.21875 22.328125 58.203125 
Q 16.015625 50.203125 16.015625 36.375 
Q 16.015625 22.609375 22.328125 14.59375 
Q 28.65625 6.59375 39.40625 6.59375 
Q 50.140625 6.59375 56.421875 14.59375 
Q 62.703125 22.609375 62.703125 36.375 
Q 62.703125 50.203125 56.421875 58.203125 
Q 50.140625 66.21875 39.40625 66.21875 
z
M 53.21875 1.3125 
L 66.21875 -12.890625 
L 54.296875 -12.890625 
L 43.5 -1.21875 
Q 41.890625 -1.3125 41.03125 -1.359375 
Q 40.1875 -1.421875 39.40625 -1.421875 
Q 24.03125 -1.421875 14.8125 8.859375 
Q 5.609375 19.140625 5.609375 36.375 
Q 5.609375 53.65625 14.8125 63.9375 
Q 24.03125 74.21875 39.40625 74.21875 
Q 54.734375 74.21875 63.90625 63.9375 
Q 73.09375 53.65625 73.09375 36.375 
Q 73.09375 23.6875 67.984375 14.640625 
Q 62.890625 5.609375 53.21875 1.3125 
z
" id="DejaVuSans-81"/>
     <path d="M 50.984375 -16.609375 
L 50.984375 -23.578125 
L -0.984375 -23.578125 
L -0.984375 -16.609375 
z
" id="DejaVuSans-95"/>
     <path d="M 37.109375 75.984375 
L 37.109375 68.5 
L 28.515625 68.5 
Q 23.6875 68.5 21.796875 66.546875 
Q 19.921875 64.59375 19.921875 59.515625 
L 19.921875 54.6875 
L 34.71875 54.6875 
L 34.71875 47.703125 
L 19.921875 47.703125 
L 19.921875 0 
L 10.890625 0 
L 10.890625 47.703125 
L 2.296875 47.703125 
L 2.296875 54.6875 
L 10.890625 54.6875 
L 10.890625 58.5 
Q 10.890625 67.625 15.140625 71.796875 
Q 19.390625 75.984375 28.609375 75.984375 
z
" id="DejaVuSans-102"/>
     <path d="M 48.78125 52.59375 
L 48.78125 44.1875 
Q 44.96875 46.296875 41.140625 47.34375 
Q 37.3125 48.390625 33.40625 48.390625 
Q 24.65625 48.390625 19.8125 42.84375 
Q 14.984375 37.3125 14.984375 27.296875 
Q 14.984375 17.28125 19.8125 11.734375 
Q 24.65625 6.203125 33.40625 6.203125 
Q 37.3125 6.203125 41.140625 7.25 
Q 44.96875 8.296875 48.78125 10.40625 
L 48.78125 2.09375 
Q 45.015625 0.34375 40.984375 -0.53125 
Q 36.96875 -1.421875 32.421875 -1.421875 
Q 20.0625 -1.421875 12.78125 6.34375 
Q 5.515625 14.109375 5.515625 27.296875 
Q 5.515625 40.671875 12.859375 48.328125 
Q 20.21875 56 33.015625 56 
Q 37.15625 56 41.109375 55.140625 
Q 45.0625 54.296875 48.78125 52.59375 
z
" id="DejaVuSans-99"/>
    </defs>
    <g transform="translate(254.910938 16.318125)scale(0.12 -0.12)">
     <use xlink:href="#DejaVuSans-81"/>
     <use x="78.710938" xlink:href="#DejaVuSans-95"/>
     <use x="128.710938" xlink:href="#DejaVuSans-102"/>
     <use x="163.916016" xlink:href="#DejaVuSans-99"/>
    </g>
   </g>
   <g id="legend_1">
    <g id="patch_5">
     <path d="M 498.245312 196.413438 
L 631.804688 196.413438 
Q 633.804688 196.413438 633.804688 194.413438 
L 633.804688 122.022813 
Q 633.804688 120.022813 631.804688 120.022813 
L 498.245312 120.022813 
Q 496.245312 120.022813 496.245312 122.022813 
L 496.245312 194.413438 
Q 496.245312 196.413438 498.245312 196.413438 
z
" style="fill:#ffffff;opacity:0.8;stroke:#cccccc;stroke-linejoin:miter;"/>
    </g>
    <g id="line2d_21">
     <path d="M 500.245312 128.12125 
L 520.245312 128.12125 
" style="fill:none;stroke:#000000;stroke-dasharray:3.7,1.6;stroke-dashoffset:0;"/>
    </g>
    <g id="line2d_22"/>
    <g id="text_18">
     <!-- Baseline -->
     <defs>
      <path d="M 19.671875 34.8125 
L 19.671875 8.109375 
L 35.5 8.109375 
Q 43.453125 8.109375 47.28125 11.40625 
Q 51.125 14.703125 51.125 21.484375 
Q 51.125 28.328125 47.28125 31.5625 
Q 43.453125 34.8125 35.5 34.8125 
z
M 19.671875 64.796875 
L 19.671875 42.828125 
L 34.28125 42.828125 
Q 41.5 42.828125 45.03125 45.53125 
Q 48.578125 48.25 48.578125 53.8125 
Q 48.578125 59.328125 45.03125 62.0625 
Q 41.5 64.796875 34.28125 64.796875 
z
M 9.8125 72.90625 
L 35.015625 72.90625 
Q 46.296875 72.90625 52.390625 68.21875 
Q 58.5 63.53125 58.5 54.890625 
Q 58.5 48.1875 55.375 44.234375 
Q 52.25 40.28125 46.1875 39.3125 
Q 53.46875 37.75 57.5 32.78125 
Q 61.53125 27.828125 61.53125 20.40625 
Q 61.53125 10.640625 54.890625 5.3125 
Q 48.25 0 35.984375 0 
L 9.8125 0 
z
" id="DejaVuSans-66"/>
      <path d="M 34.28125 27.484375 
Q 23.390625 27.484375 19.1875 25 
Q 14.984375 22.515625 14.984375 16.5 
Q 14.984375 11.71875 18.140625 8.90625 
Q 21.296875 6.109375 26.703125 6.109375 
Q 34.1875 6.109375 38.703125 11.40625 
Q 43.21875 16.703125 43.21875 25.484375 
L 43.21875 27.484375 
z
M 52.203125 31.203125 
L 52.203125 0 
L 43.21875 0 
L 43.21875 8.296875 
Q 40.140625 3.328125 35.546875 0.953125 
Q 30.953125 -1.421875 24.3125 -1.421875 
Q 15.921875 -1.421875 10.953125 3.296875 
Q 6 8.015625 6 15.921875 
Q 6 25.140625 12.171875 29.828125 
Q 18.359375 34.515625 30.609375 34.515625 
L 43.21875 34.515625 
L 43.21875 35.40625 
Q 43.21875 41.609375 39.140625 45 
Q 35.0625 48.390625 27.6875 48.390625 
Q 23 48.390625 18.546875 47.265625 
Q 14.109375 46.140625 10.015625 43.890625 
L 10.015625 52.203125 
Q 14.9375 54.109375 19.578125 55.046875 
Q 24.21875 56 28.609375 56 
Q 40.484375 56 46.34375 49.84375 
Q 52.203125 43.703125 52.203125 31.203125 
z
" id="DejaVuSans-97"/>
      <path d="M 44.28125 53.078125 
L 44.28125 44.578125 
Q 40.484375 46.53125 36.375 47.5 
Q 32.28125 48.484375 27.875 48.484375 
Q 21.1875 48.484375 17.84375 46.4375 
Q 14.5 44.390625 14.5 40.28125 
Q 14.5 37.15625 16.890625 35.375 
Q 19.28125 33.59375 26.515625 31.984375 
L 29.59375 31.296875 
Q 39.15625 29.25 43.1875 25.515625 
Q 47.21875 21.78125 47.21875 15.09375 
Q 47.21875 7.46875 41.1875 3.015625 
Q 35.15625 -1.421875 24.609375 -1.421875 
Q 20.21875 -1.421875 15.453125 -0.5625 
Q 10.6875 0.296875 5.421875 2 
L 5.421875 11.28125 
Q 10.40625 8.6875 15.234375 7.390625 
Q 20.0625 6.109375 24.8125 6.109375 
Q 31.15625 6.109375 34.5625 8.28125 
Q 37.984375 10.453125 37.984375 14.40625 
Q 37.984375 18.0625 35.515625 20.015625 
Q 33.0625 21.96875 24.703125 23.78125 
L 21.578125 24.515625 
Q 13.234375 26.265625 9.515625 29.90625 
Q 5.8125 33.546875 5.8125 39.890625 
Q 5.8125 47.609375 11.28125 51.796875 
Q 16.75 56 26.8125 56 
Q 31.78125 56 36.171875 55.265625 
Q 40.578125 54.546875 44.28125 53.078125 
z
" id="DejaVuSans-115"/>
      <path d="M 9.421875 75.984375 
L 18.40625 75.984375 
L 18.40625 0 
L 9.421875 0 
z
" id="DejaVuSans-108"/>
      <path d="M 9.421875 54.6875 
L 18.40625 54.6875 
L 18.40625 0 
L 9.421875 0 
z
M 9.421875 75.984375 
L 18.40625 75.984375 
L 18.40625 64.59375 
L 9.421875 64.59375 
z
" id="DejaVuSans-105"/>
      <path d="M 54.890625 33.015625 
L 54.890625 0 
L 45.90625 0 
L 45.90625 32.71875 
Q 45.90625 40.484375 42.875 44.328125 
Q 39.84375 48.1875 33.796875 48.1875 
Q 26.515625 48.1875 22.3125 43.546875 
Q 18.109375 38.921875 18.109375 30.90625 
L 18.109375 0 
L 9.078125 0 
L 9.078125 54.6875 
L 18.109375 54.6875 
L 18.109375 46.1875 
Q 21.34375 51.125 25.703125 53.5625 
Q 30.078125 56 35.796875 56 
Q 45.21875 56 50.046875 50.171875 
Q 54.890625 44.34375 54.890625 33.015625 
z
" id="DejaVuSans-110"/>
     </defs>
     <g transform="translate(528.245312 131.62125)scale(0.1 -0.1)">
      <use xlink:href="#DejaVuSans-66"/>
      <use x="68.603516" xlink:href="#DejaVuSans-97"/>
      <use x="129.882812" xlink:href="#DejaVuSans-115"/>
      <use x="181.982422" xlink:href="#DejaVuSans-101"/>
      <use x="243.505859" xlink:href="#DejaVuSans-108"/>
      <use x="271.289062" xlink:href="#DejaVuSans-105"/>
      <use x="299.072266" xlink:href="#DejaVuSans-110"/>
      <use x="362.451172" xlink:href="#DejaVuSans-101"/>
     </g>
    </g>
    <g id="line2d_23">
     <path d="M 500.245312 142.799375 
L 520.245312 142.799375 
" style="fill:none;stroke:#1f77b4;stroke-linecap:square;stroke-width:1.5;"/>
    </g>
    <g id="line2d_24"/>
    <g id="text_19">
     <!-- $\Uparrow$ acesso crdito -->
     <defs>
      <path d="M 36.765625 58.59375 
L 36.765625 0 
L 30.90625 0 
L 30.90625 52.734375 
L 26.421875 48.140625 
L 20.5625 54 
L 39.703125 73.25 
L 44.09375 73.25 
L 63.328125 54 
L 57.46875 48.140625 
L 52.875 52.734375 
L 52.875 0 
L 47.015625 0 
L 47.015625 58.59375 
L 41.9375 63.671875 
z
" id="DejaVuSans-8657"/>
      <path id="DejaVuSans-32"/>
      <path d="M 41.109375 46.296875 
Q 39.59375 47.171875 37.8125 47.578125 
Q 36.03125 48 33.890625 48 
Q 26.265625 48 22.1875 43.046875 
Q 18.109375 38.09375 18.109375 28.8125 
L 18.109375 0 
L 9.078125 0 
L 9.078125 54.6875 
L 18.109375 54.6875 
L 18.109375 46.1875 
Q 20.953125 51.171875 25.484375 53.578125 
Q 30.03125 56 36.53125 56 
Q 37.453125 56 38.578125 55.875 
Q 39.703125 55.765625 41.0625 55.515625 
z
" id="DejaVuSans-114"/>
      <path d="M 56.203125 29.59375 
L 56.203125 25.203125 
L 14.890625 25.203125 
Q 15.484375 15.921875 20.484375 11.0625 
Q 25.484375 6.203125 34.421875 6.203125 
Q 39.59375 6.203125 44.453125 7.46875 
Q 49.3125 8.734375 54.109375 11.28125 
L 54.109375 2.78125 
Q 49.265625 0.734375 44.1875 -0.34375 
Q 39.109375 -1.421875 33.890625 -1.421875 
Q 20.796875 -1.421875 13.15625 6.1875 
Q 5.515625 13.8125 5.515625 26.8125 
Q 5.515625 40.234375 12.765625 48.109375 
Q 20.015625 56 32.328125 56 
Q 43.359375 56 49.78125 48.890625 
Q 56.203125 41.796875 56.203125 29.59375 
z
M 47.21875 32.234375 
Q 47.125 39.59375 43.09375 43.984375 
Q 39.0625 48.390625 32.421875 48.390625 
Q 24.90625 48.390625 20.390625 44.140625 
Q 15.875 39.890625 15.1875 32.171875 
z
M 38.53125 79.984375 
L 48.25 79.984375 
L 32.34375 61.625 
L 24.859375 61.625 
z
" id="DejaVuSans-233"/>
      <path d="M 45.40625 46.390625 
L 45.40625 75.984375 
L 54.390625 75.984375 
L 54.390625 0 
L 45.40625 0 
L 45.40625 8.203125 
Q 42.578125 3.328125 38.25 0.953125 
Q 33.9375 -1.421875 27.875 -1.421875 
Q 17.96875 -1.421875 11.734375 6.484375 
Q 5.515625 14.40625 5.515625 27.296875 
Q 5.515625 40.1875 11.734375 48.09375 
Q 17.96875 56 27.875 56 
Q 33.9375 56 38.25 53.625 
Q 42.578125 51.265625 45.40625 46.390625 
z
M 14.796875 27.296875 
Q 14.796875 17.390625 18.875 11.75 
Q 22.953125 6.109375 30.078125 6.109375 
Q 37.203125 6.109375 41.296875 11.75 
Q 45.40625 17.390625 45.40625 27.296875 
Q 45.40625 37.203125 41.296875 42.84375 
Q 37.203125 48.484375 30.078125 48.484375 
Q 22.953125 48.484375 18.875 42.84375 
Q 14.796875 37.203125 14.796875 27.296875 
z
" id="DejaVuSans-100"/>
      <path d="M 18.3125 70.21875 
L 18.3125 54.6875 
L 36.8125 54.6875 
L 36.8125 47.703125 
L 18.3125 47.703125 
L 18.3125 18.015625 
Q 18.3125 11.328125 20.140625 9.421875 
Q 21.96875 7.515625 27.59375 7.515625 
L 36.8125 7.515625 
L 36.8125 0 
L 27.59375 0 
Q 17.1875 0 13.234375 3.875 
Q 9.28125 7.765625 9.28125 18.015625 
L 9.28125 47.703125 
L 2.6875 47.703125 
L 2.6875 54.6875 
L 9.28125 54.6875 
L 9.28125 70.21875 
z
" id="DejaVuSans-116"/>
     </defs>
     <g transform="translate(528.245312 146.299375)scale(0.1 -0.1)">
      <use transform="translate(19.482422 0.015625)" xlink:href="#DejaVuSans-8657"/>
      <use transform="translate(122.753906 0.015625)" xlink:href="#DejaVuSans-32"/>
      <use transform="translate(154.541016 0.015625)" xlink:href="#DejaVuSans-97"/>
      <use transform="translate(215.820312 0.015625)" xlink:href="#DejaVuSans-99"/>
      <use transform="translate(270.800781 0.015625)" xlink:href="#DejaVuSans-101"/>
      <use transform="translate(332.324219 0.015625)" xlink:href="#DejaVuSans-115"/>
      <use transform="translate(384.423828 0.015625)" xlink:href="#DejaVuSans-115"/>
      <use transform="translate(436.523438 0.015625)" xlink:href="#DejaVuSans-111"/>
      <use transform="translate(497.705078 0.015625)" xlink:href="#DejaVuSans-32"/>
      <use transform="translate(529.492188 0.015625)" xlink:href="#DejaVuSans-99"/>
      <use transform="translate(584.472656 0.015625)" xlink:href="#DejaVuSans-114"/>
      <use transform="translate(625.585938 0.015625)" xlink:href="#DejaVuSans-233"/>
      <use transform="translate(687.109375 0.015625)" xlink:href="#DejaVuSans-100"/>
      <use transform="translate(750.585938 0.015625)" xlink:href="#DejaVuSans-105"/>
      <use transform="translate(778.369141 0.015625)" xlink:href="#DejaVuSans-116"/>
      <use transform="translate(817.578125 0.015625)" xlink:href="#DejaVuSans-111"/>
     </g>
    </g>
    <g id="line2d_25">
     <path d="M 500.245312 157.4775 
L 520.245312 157.4775 
" style="fill:none;stroke:#ff7f0e;stroke-linecap:square;stroke-width:1.5;"/>
    </g>
    <g id="line2d_26"/>
    <g id="text_20">
     <!-- Sem renda bsica -->
     <defs>
      <path d="M 53.515625 70.515625 
L 53.515625 60.890625 
Q 47.90625 63.578125 42.921875 64.890625 
Q 37.9375 66.21875 33.296875 66.21875 
Q 25.25 66.21875 20.875 63.09375 
Q 16.5 59.96875 16.5 54.203125 
Q 16.5 49.359375 19.40625 46.890625 
Q 22.3125 44.4375 30.421875 42.921875 
L 36.375 41.703125 
Q 47.40625 39.59375 52.65625 34.296875 
Q 57.90625 29 57.90625 20.125 
Q 57.90625 9.515625 50.796875 4.046875 
Q 43.703125 -1.421875 29.984375 -1.421875 
Q 24.8125 -1.421875 18.96875 -0.25 
Q 13.140625 0.921875 6.890625 3.21875 
L 6.890625 13.375 
Q 12.890625 10.015625 18.65625 8.296875 
Q 24.421875 6.59375 29.984375 6.59375 
Q 38.421875 6.59375 43.015625 9.90625 
Q 47.609375 13.234375 47.609375 19.390625 
Q 47.609375 24.75 44.3125 27.78125 
Q 41.015625 30.8125 33.5 32.328125 
L 27.484375 33.5 
Q 16.453125 35.6875 11.515625 40.375 
Q 6.59375 45.0625 6.59375 53.421875 
Q 6.59375 63.09375 13.40625 68.65625 
Q 20.21875 74.21875 32.171875 74.21875 
Q 37.3125 74.21875 42.625 73.28125 
Q 47.953125 72.359375 53.515625 70.515625 
z
" id="DejaVuSans-83"/>
      <path d="M 48.6875 27.296875 
Q 48.6875 37.203125 44.609375 42.84375 
Q 40.53125 48.484375 33.40625 48.484375 
Q 26.265625 48.484375 22.1875 42.84375 
Q 18.109375 37.203125 18.109375 27.296875 
Q 18.109375 17.390625 22.1875 11.75 
Q 26.265625 6.109375 33.40625 6.109375 
Q 40.53125 6.109375 44.609375 11.75 
Q 48.6875 17.390625 48.6875 27.296875 
z
M 18.109375 46.390625 
Q 20.953125 51.265625 25.265625 53.625 
Q 29.59375 56 35.59375 56 
Q 45.5625 56 51.78125 48.09375 
Q 58.015625 40.1875 58.015625 27.296875 
Q 58.015625 14.40625 51.78125 6.484375 
Q 45.5625 -1.421875 35.59375 -1.421875 
Q 29.59375 -1.421875 25.265625 0.953125 
Q 20.953125 3.328125 18.109375 8.203125 
L 18.109375 0 
L 9.078125 0 
L 9.078125 75.984375 
L 18.109375 75.984375 
z
" id="DejaVuSans-98"/>
      <path d="M 34.28125 27.484375 
Q 23.390625 27.484375 19.1875 25 
Q 14.984375 22.515625 14.984375 16.5 
Q 14.984375 11.71875 18.140625 8.90625 
Q 21.296875 6.109375 26.703125 6.109375 
Q 34.1875 6.109375 38.703125 11.40625 
Q 43.21875 16.703125 43.21875 25.484375 
L 43.21875 27.484375 
z
M 52.203125 31.203125 
L 52.203125 0 
L 43.21875 0 
L 43.21875 8.296875 
Q 40.140625 3.328125 35.546875 0.953125 
Q 30.953125 -1.421875 24.3125 -1.421875 
Q 15.921875 -1.421875 10.953125 3.296875 
Q 6 8.015625 6 15.921875 
Q 6 25.140625 12.171875 29.828125 
Q 18.359375 34.515625 30.609375 34.515625 
L 43.21875 34.515625 
L 43.21875 35.40625 
Q 43.21875 41.609375 39.140625 45 
Q 35.0625 48.390625 27.6875 48.390625 
Q 23 48.390625 18.546875 47.265625 
Q 14.109375 46.140625 10.015625 43.890625 
L 10.015625 52.203125 
Q 14.9375 54.109375 19.578125 55.046875 
Q 24.21875 56 28.609375 56 
Q 40.484375 56 46.34375 49.84375 
Q 52.203125 43.703125 52.203125 31.203125 
z
M 35.78125 79.984375 
L 45.5 79.984375 
L 29.59375 61.625 
L 22.109375 61.625 
z
" id="DejaVuSans-225"/>
     </defs>
     <g transform="translate(528.245312 160.9775)scale(0.1 -0.1)">
      <use xlink:href="#DejaVuSans-83"/>
      <use x="63.476562" xlink:href="#DejaVuSans-101"/>
      <use x="125" xlink:href="#DejaVuSans-109"/>
      <use x="222.412109" xlink:href="#DejaVuSans-32"/>
      <use x="254.199219" xlink:href="#DejaVuSans-114"/>
      <use x="293.0625" xlink:href="#DejaVuSans-101"/>
      <use x="354.585938" xlink:href="#DejaVuSans-110"/>
      <use x="417.964844" xlink:href="#DejaVuSans-100"/>
      <use x="481.441406" xlink:href="#DejaVuSans-97"/>
      <use x="542.720703" xlink:href="#DejaVuSans-32"/>
      <use x="574.507812" xlink:href="#DejaVuSans-98"/>
      <use x="637.984375" xlink:href="#DejaVuSans-225"/>
      <use x="699.263672" xlink:href="#DejaVuSans-115"/>
      <use x="751.363281" xlink:href="#DejaVuSans-105"/>
      <use x="779.146484" xlink:href="#DejaVuSans-99"/>
      <use x="834.126953" xlink:href="#DejaVuSans-97"/>
     </g>
    </g>
    <g id="line2d_27">
     <path d="M 500.245312 172.155625 
L 520.245312 172.155625 
" style="fill:none;stroke:#2ca02c;stroke-linecap:square;stroke-width:1.5;"/>
    </g>
    <g id="line2d_28"/>
    <g id="text_21">
     <!-- $\Uparrow$ salrio mnimo -->
     <defs>
      <path d="M 20.65625 79.984375 
L 30.375 79.984375 
L 14.46875 61.625 
L 6.984375 61.625 
z
M 9.421875 54.6875 
L 18.40625 54.6875 
L 18.40625 0 
L 9.421875 0 
z
M 13.921875 56 
z
" id="DejaVuSans-237"/>
     </defs>
     <g transform="translate(528.245312 175.655625)scale(0.1 -0.1)">
      <use transform="translate(19.482422 0.015625)" xlink:href="#DejaVuSans-8657"/>
      <use transform="translate(122.753906 0.015625)" xlink:href="#DejaVuSans-32"/>
      <use transform="translate(154.541016 0.015625)" xlink:href="#DejaVuSans-115"/>
      <use transform="translate(206.640625 0.015625)" xlink:href="#DejaVuSans-97"/>
      <use transform="translate(267.919922 0.015625)" xlink:href="#DejaVuSans-108"/>
      <use transform="translate(295.703125 0.015625)" xlink:href="#DejaVuSans-225"/>
      <use transform="translate(356.982422 0.015625)" xlink:href="#DejaVuSans-114"/>
      <use transform="translate(398.095703 0.015625)" xlink:href="#DejaVuSans-105"/>
      <use transform="translate(425.878906 0.015625)" xlink:href="#DejaVuSans-111"/>
      <use transform="translate(487.060547 0.015625)" xlink:href="#DejaVuSans-32"/>
      <use transform="translate(518.847656 0.015625)" xlink:href="#DejaVuSans-109"/>
      <use transform="translate(616.259766 0.015625)" xlink:href="#DejaVuSans-237"/>
      <use transform="translate(644.042969 0.015625)" xlink:href="#DejaVuSans-110"/>
      <use transform="translate(707.421875 0.015625)" xlink:href="#DejaVuSans-105"/>
      <use transform="translate(735.205078 0.015625)" xlink:href="#DejaVuSans-109"/>
      <use transform="translate(832.617188 0.015625)" xlink:href="#DejaVuSans-111"/>
     </g>
    </g>
    <g id="line2d_29">
     <path d="M 500.245312 186.83375 
L 520.245312 186.83375 
" style="fill:none;stroke:#d62728;stroke-linecap:square;stroke-width:1.5;"/>
    </g>
    <g id="line2d_30"/>
    <g id="text_22">
     <!-- Imposto progressivo -->
     <defs>
      <path d="M 9.8125 72.90625 
L 19.671875 72.90625 
L 19.671875 0 
L 9.8125 0 
z
" id="DejaVuSans-73"/>
      <path d="M 45.40625 27.984375 
Q 45.40625 37.75 41.375 43.109375 
Q 37.359375 48.484375 30.078125 48.484375 
Q 22.859375 48.484375 18.828125 43.109375 
Q 14.796875 37.75 14.796875 27.984375 
Q 14.796875 18.265625 18.828125 12.890625 
Q 22.859375 7.515625 30.078125 7.515625 
Q 37.359375 7.515625 41.375 12.890625 
Q 45.40625 18.265625 45.40625 27.984375 
z
M 54.390625 6.78125 
Q 54.390625 -7.171875 48.1875 -13.984375 
Q 42 -20.796875 29.203125 -20.796875 
Q 24.46875 -20.796875 20.265625 -20.09375 
Q 16.0625 -19.390625 12.109375 -17.921875 
L 12.109375 -9.1875 
Q 16.0625 -11.328125 19.921875 -12.34375 
Q 23.78125 -13.375 27.78125 -13.375 
Q 36.625 -13.375 41.015625 -8.765625 
Q 45.40625 -4.15625 45.40625 5.171875 
L 45.40625 9.625 
Q 42.625 4.78125 38.28125 2.390625 
Q 33.9375 0 27.875 0 
Q 17.828125 0 11.671875 7.65625 
Q 5.515625 15.328125 5.515625 27.984375 
Q 5.515625 40.671875 11.671875 48.328125 
Q 17.828125 56 27.875 56 
Q 33.9375 56 38.28125 53.609375 
Q 42.625 51.21875 45.40625 46.390625 
L 45.40625 54.6875 
L 54.390625 54.6875 
z
" id="DejaVuSans-103"/>
      <path d="M 2.984375 54.6875 
L 12.5 54.6875 
L 29.59375 8.796875 
L 46.6875 54.6875 
L 56.203125 54.6875 
L 35.6875 0 
L 23.484375 0 
z
" id="DejaVuSans-118"/>
     </defs>
     <g transform="translate(528.245312 190.33375)scale(0.1 -0.1)">
      <use xlink:href="#DejaVuSans-73"/>
      <use x="29.492188" xlink:href="#DejaVuSans-109"/>
      <use x="126.904297" xlink:href="#DejaVuSans-112"/>
      <use x="190.380859" xlink:href="#DejaVuSans-111"/>
      <use x="251.5625" xlink:href="#DejaVuSans-115"/>
      <use x="303.662109" xlink:href="#DejaVuSans-116"/>
      <use x="342.871094" xlink:href="#DejaVuSans-111"/>
      <use x="404.052734" xlink:href="#DejaVuSans-32"/>
      <use x="435.839844" xlink:href="#DejaVuSans-112"/>
      <use x="499.316406" xlink:href="#DejaVuSans-114"/>
      <use x="538.179688" xlink:href="#DejaVuSans-111"/>
      <use x="599.361328" xlink:href="#DejaVuSans-103"/>
      <use x="662.837891" xlink:href="#DejaVuSans-114"/>
      <use x="701.701172" xlink:href="#DejaVuSans-101"/>
      <use x="763.224609" xlink:href="#DejaVuSans-115"/>
      <use x="815.324219" xlink:href="#DejaVuSans-115"/>
      <use x="867.423828" xlink:href="#DejaVuSans-105"/>
      <use x="895.207031" xlink:href="#DejaVuSans-118"/>
      <use x="954.386719" xlink:href="#DejaVuSans-111"/>
     </g>
    </g>
   </g>
  </g>
 </g>
 <defs>
  <clipPath id="p4ece1caed4">
   <rect height="271.8" width="446.4" x="44.845313" y="22.318125"/>
  </clipPath>
 </defs>
</svg>
