<?xml version="1.0" encoding="utf-8" standalone="no"?>
<!DOCTYPE svg PUBLIC "-//W3C//DTD SVG 1.1//EN"
  "http://www.w3.org/Graphics/SVG/1.1/DTD/svg11.dtd">
<!-- Created with matplotlib (https://matplotlib.org/) -->
<svg height="331.340625pt" version="1.1" viewBox="0 0 634.642187 331.340625" width="634.642187pt" xmlns="http://www.w3.org/2000/svg" xmlns:xlink="http://www.w3.org/1999/xlink">
 <defs>
  <style type="text/css">
*{stroke-linecap:butt;stroke-linejoin:round;}
  </style>
 </defs>
 <g id="figure_1">
  <g id="patch_1">
   <path d="M 0 331.340625 
L 634.642187 331.340625 
L 634.642187 0 
L 0 0 
z
" style="fill:#ffffff;"/>
  </g>
  <g id="axes_1">
   <g id="patch_2">
    <path d="M 38.482813 293.784375 
L 484.882812 293.784375 
L 484.882812 21.984375 
L 38.482813 21.984375 
z
" style="fill:#ffffff;"/>
   </g>
   <g id="line2d_1">
    <path clip-path="url(#pe7ca99e2a9)" d="M 58.773722 241.965339 
L 59.499693 277.363187 
L 60.225665 258.425048 
L 60.951637 230.532385 
L 61.677608 233.913248 
L 62.40358 231.185424 
L 63.129552 235.791111 
L 63.855524 252.631088 
L 64.581495 199.792083 
L 65.307467 278.66127 
L 66.033439 245.609227 
L 66.75941 226.563654 
L 67.485382 230.031838 
L 68.211354 232.484617 
L 68.937325 275.464017 
L 69.663297 203.995988 
L 70.389269 264.048082 
L 71.115241 248.577374 
L 71.841212 220.853983 
L 72.567184 265.867843 
L 73.293156 232.125071 
L 74.019127 218.163505 
L 74.745099 255.157499 
L 75.471071 252.680139 
L 76.197042 205.299896 
L 76.923014 254.73399 
L 77.648986 239.748744 
L 78.374958 262.86868 
L 79.100929 233.416614 
L 79.826901 265.469996 
L 80.552873 250.312373 
L 81.278844 208.390752 
L 82.004816 245.142029 
L 82.730788 233.532511 
L 83.456759 253.978187 
L 84.182731 237.000418 
L 84.908703 233.942169 
L 85.634675 228.702928 
L 86.360646 242.678393 
L 87.086618 215.953212 
L 88.538561 256.760453 
L 89.264533 184.258555 
L 89.990505 221.769755 
L 90.716477 153.383978 
L 91.442448 257.812243 
L 92.16842 218.550403 
L 92.894392 230.714309 
L 93.620363 220.675791 
L 94.346335 225.803657 
L 95.072307 229.010322 
L 95.798278 223.668143 
L 96.52425 223.977818 
L 97.250222 216.041888 
L 97.976194 202.611705 
L 98.702165 177.589861 
L 99.428137 243.584869 
L 100.154109 240.089308 
L 101.606052 215.2891 
L 102.332024 143.151784 
L 103.057995 257.818593 
L 103.783967 142.180143 
L 104.509939 192.962706 
L 105.235911 218.971167 
L 106.687854 207.733082 
L 107.413826 196.345624 
L 108.139797 194.121268 
L 108.865769 161.308107 
L 109.591741 253.657256 
L 110.317712 168.2048 
L 111.043684 174.42758 
L 111.769656 167.857321 
L 112.495628 186.097725 
L 113.221599 154.520165 
L 113.947571 203.498549 
L 114.673543 199.776059 
L 115.399514 171.932833 
L 116.125486 93.460056 
L 116.851458 248.455811 
L 117.57743 186.102457 
L 118.303401 187.003696 
L 119.029373 93.230318 
L 119.755345 259.542036 
L 120.481316 212.554928 
L 121.207288 237.119408 
L 121.93326 189.873267 
L 122.659231 200.478564 
L 123.385203 203.106651 
L 124.111175 183.52944 
L 124.837147 215.782514 
L 125.563118 198.995945 
L 126.28909 199.717174 
L 127.015062 208.695484 
L 127.741033 199.215004 
L 128.467005 182.797351 
L 129.192977 140.30001 
L 129.918948 234.0906 
L 130.64492 166.366935 
L 131.370892 169.462295 
L 132.096864 228.94899 
L 132.822835 182.690719 
L 133.548807 199.301057 
L 134.274779 212.42177 
L 135.00075 200.273802 
L 135.726722 206.317849 
L 136.452694 194.556963 
L 137.178665 173.145615 
L 137.904637 206.119944 
L 138.630609 201.166813 
L 139.356581 248.705956 
L 140.082552 229.962176 
L 140.808524 134.429002 
L 141.534496 168.101694 
L 142.260467 149.779952 
L 142.986439 120.17684 
L 143.712411 152.231698 
L 144.438383 209.417868 
L 145.164354 236.091584 
L 145.890326 206.614337 
L 147.342269 166.924991 
L 148.068241 174.957217 
L 148.794213 207.649663 
L 149.520184 195.923113 
L 150.246156 209.476653 
L 150.972128 269.634826 
L 151.6981 223.890591 
L 152.424071 206.146453 
L 153.150043 216.357663 
L 153.876015 206.766155 
L 154.601986 228.221969 
L 155.327958 181.436212 
L 156.05393 233.381665 
L 156.779901 220.712896 
L 157.505873 186.090627 
L 158.231845 178.854532 
L 158.957817 224.154401 
L 159.683788 196.421189 
L 160.40976 141.315806 
L 161.135732 214.551891 
L 161.861703 157.004054 
L 162.587675 220.725924 
L 163.313647 256.098216 
L 164.039618 225.050587 
L 164.76559 230.56068 
L 165.491562 220.835373 
L 166.217534 167.033328 
L 166.943505 163.692884 
L 167.669477 171.326917 
L 168.395449 189.476458 
L 169.12142 203.299882 
L 169.847392 264.320218 
L 170.573364 215.33653 
L 171.299336 253.193641 
L 172.025307 193.702293 
L 172.751279 216.847595 
L 173.477251 197.245183 
L 174.203222 227.992006 
L 174.929194 215.577092 
L 175.655166 217.770851 
L 176.381137 241.608393 
L 177.107109 185.624327 
L 177.833081 206.098186 
L 178.559053 217.644961 
L 179.285024 203.182114 
L 180.010996 246.097357 
L 180.736968 266.52982 
L 181.462939 247.267362 
L 182.188911 237.23404 
L 182.914883 246.329143 
L 183.640854 260.257115 
L 185.092798 218.612892 
L 185.81877 233.837617 
L 186.544741 244.364286 
L 187.270713 244.550974 
L 187.996685 232.037197 
L 188.722656 239.696368 
L 189.448628 275.513761 
L 190.1746 235.637271 
L 190.900571 274.153995 
L 192.352515 233.436583 
L 193.078487 262.369768 
L 193.804458 269.726865 
L 194.53043 256.584619 
L 195.256402 254.279693 
L 195.982373 215.92004 
L 196.708345 250.438917 
L 197.434317 279.371609 
L 198.160289 267.198415 
L 198.88626 249.940209 
L 199.612232 214.764306 
L 200.338204 276.034289 
L 201.064175 244.401225 
L 201.790147 268.438728 
L 202.516119 248.765103 
L 203.24209 223.840591 
L 203.968062 268.400051 
L 204.694034 262.00013 
L 205.420006 218.152408 
L 206.145977 269.62588 
L 206.871949 250.753719 
L 207.597921 225.080969 
L 209.049864 196.390917 
L 209.775836 251.151359 
L 210.501807 211.210985 
L 211.227779 220.21471 
L 211.953751 227.23077 
L 212.679723 246.326961 
L 213.405694 240.214808 
L 214.131666 193.955058 
L 214.857638 172.938254 
L 215.583609 198.111016 
L 216.309581 211.616328 
L 217.035553 159.355989 
L 217.761524 192.142562 
L 218.487496 196.092527 
L 219.213468 162.208863 
L 219.93944 202.962892 
L 220.665411 159.913933 
L 221.391383 194.932306 
L 222.117355 201.833845 
L 222.843326 197.898795 
L 223.569298 189.502799 
L 224.29527 175.202656 
L 225.021242 196.343326 
L 225.747213 199.357816 
L 226.473185 191.845549 
L 227.199157 186.81674 
L 227.925128 197.387182 
L 228.6511 194.428829 
L 229.377072 151.999198 
L 230.103043 180.500479 
L 230.829015 247.337888 
L 231.554987 125.294329 
L 232.280959 180.13891 
L 233.00693 188.140328 
L 233.732902 201.295536 
L 234.458874 175.927938 
L 235.184845 220.798919 
L 235.910817 175.334797 
L 236.636789 154.4046 
L 237.36276 215.975762 
L 238.088732 208.153631 
L 238.814704 198.708882 
L 239.540676 196.289686 
L 240.266647 216.302099 
L 240.992619 183.536607 
L 241.718591 198.514823 
L 242.444562 147.631849 
L 243.170534 223.035116 
L 243.896506 175.42568 
L 244.622477 226.434247 
L 245.348449 166.315804 
L 246.074421 160.152364 
L 246.800393 227.151253 
L 247.526364 159.527492 
L 248.252336 212.997543 
L 248.978308 236.083166 
L 249.704279 200.127105 
L 250.430251 223.818678 
L 251.156223 227.215383 
L 251.882195 176.683398 
L 252.608166 208.996777 
L 253.334138 177.112766 
L 254.06011 193.234447 
L 254.786081 242.777165 
L 255.512053 222.561647 
L 256.238025 210.936274 
L 256.963996 174.406032 
L 257.689968 249.435454 
L 258.41594 209.914703 
L 259.141912 222.929639 
L 259.867883 232.383649 
L 260.593855 221.288411 
L 261.319827 238.018833 
L 262.045798 211.852011 
L 262.77177 190.253678 
L 263.497742 229.734571 
L 264.223713 207.464687 
L 264.949685 221.916058 
L 265.675657 200.994715 
L 266.401629 247.752583 
L 267.1276 216.113517 
L 267.853572 217.074009 
L 268.579544 244.89722 
L 269.305515 173.236876 
L 270.031487 227.620621 
L 270.757459 216.650807 
L 271.48343 190.095904 
L 272.209402 217.352762 
L 272.935374 214.319256 
L 273.661346 237.305989 
L 274.387317 215.208587 
L 275.113289 196.88717 
L 275.839261 233.145493 
L 276.565232 211.295753 
L 277.291204 226.570271 
L 278.017176 219.575234 
L 278.743148 224.255008 
L 279.469119 154.451748 
L 280.195091 206.709223 
L 280.921063 234.238781 
L 281.647034 175.431973 
L 282.373006 252.077554 
L 283.098978 190.718125 
L 283.824949 214.68311 
L 284.550921 244.885084 
L 285.276893 195.179643 
L 286.002865 239.620833 
L 286.728836 233.391274 
L 287.454808 229.296631 
L 288.18078 203.355944 
L 288.906751 221.699596 
L 289.632723 177.796971 
L 290.358695 219.108235 
L 291.084666 179.837499 
L 291.810638 204.803818 
L 292.53661 214.416441 
L 293.262582 227.404998 
L 293.988553 209.743601 
L 294.714525 226.954958 
L 295.440497 182.443567 
L 296.166468 222.001637 
L 296.89244 182.932518 
L 297.618412 206.925205 
L 298.344383 175.111106 
L 299.070355 203.147959 
L 299.796327 188.41258 
L 300.522299 262.329303 
L 301.24827 178.256924 
L 301.974242 213.105334 
L 302.700214 189.392904 
L 303.426185 208.112615 
L 304.152157 166.317631 
L 304.878129 219.511339 
L 305.604101 240.932322 
L 306.330072 218.961344 
L 307.056044 249.274117 
L 307.782016 233.252645 
L 308.507987 242.239109 
L 309.233959 231.616608 
L 309.959931 240.452169 
L 310.685902 236.738479 
L 311.411874 233.6724 
L 312.137846 210.65485 
L 312.863818 227.45511 
L 313.589789 210.401372 
L 314.315761 205.981098 
L 315.041733 233.240538 
L 315.767704 230.245391 
L 316.493676 236.347271 
L 317.219648 244.157452 
L 317.945619 230.754413 
L 318.671591 231.13194 
L 319.397563 212.956814 
L 320.123535 233.115377 
L 320.849506 211.265814 
L 321.575478 267.736293 
L 322.30145 246.953161 
L 323.027421 241.658442 
L 323.753393 239.460167 
L 324.479365 233.677693 
L 325.931308 262.039534 
L 326.65728 238.968539 
L 327.383252 223.043934 
L 328.109223 251.032729 
L 328.835195 217.337526 
L 329.561167 266.478343 
L 330.287138 223.002704 
L 331.01311 240.661443 
L 331.739082 252.760167 
L 332.465054 234.389104 
L 333.191025 224.840107 
L 333.916997 258.028156 
L 335.36894 225.862388 
L 336.094912 240.928669 
L 336.820884 237.168546 
L 337.546855 238.974691 
L 338.272827 240.05 
L 338.998799 237.826821 
L 339.724771 214.902718 
L 340.450742 240.428478 
L 341.176714 244.98541 
L 341.902686 233.000813 
L 342.628657 236.828668 
L 343.354629 222.50191 
L 344.080601 210.876056 
L 344.806572 231.309762 
L 345.532544 243.15032 
L 346.258516 204.23314 
L 346.984488 251.324328 
L 347.710459 226.204268 
L 348.436431 242.879306 
L 349.162403 214.404096 
L 349.888374 235.826509 
L 350.614346 224.100052 
L 351.340318 228.127035 
L 352.066289 230.67188 
L 352.792261 211.718972 
L 353.518233 200.173916 
L 354.970176 233.593387 
L 355.696148 195.23097 
L 356.42212 210.048112 
L 357.148091 215.559625 
L 357.874063 208.467392 
L 358.600035 208.464092 
L 359.326007 190.718459 
L 360.051978 183.449404 
L 360.77795 204.781717 
L 361.503922 221.719752 
L 362.229893 198.759052 
L 362.955865 169.136704 
L 363.681837 203.186172 
L 364.407808 199.240964 
L 365.13378 198.866135 
L 365.859752 196.126135 
L 366.585724 200.955463 
L 367.311695 201.985916 
L 368.037667 188.347955 
L 368.763639 224.278899 
L 369.48961 195.075205 
L 370.215582 225.660251 
L 370.941554 194.181656 
L 371.667525 205.167995 
L 372.393497 194.893358 
L 373.119469 206.158663 
L 373.845441 200.836412 
L 374.571412 190.115998 
L 375.297384 221.584684 
L 376.023356 180.459612 
L 376.749327 182.675729 
L 377.475299 195.449753 
L 378.201271 211.460836 
L 378.927242 199.615097 
L 379.653214 191.75156 
L 380.379186 173.939155 
L 381.105158 194.161699 
L 381.831129 198.218695 
L 382.557101 188.885803 
L 383.283073 165.742994 
L 384.009044 188.378576 
L 384.735016 170.700068 
L 385.460988 200.763442 
L 386.18696 212.148052 
L 386.912931 166.495726 
L 387.638903 193.495044 
L 388.364875 176.31491 
L 389.090846 198.269346 
L 389.816818 194.856422 
L 390.54279 207.897628 
L 391.268761 181.88194 
L 391.994733 183.056749 
L 392.720705 186.38273 
L 393.446677 174.861685 
L 394.172648 193.520555 
L 394.89862 193.908005 
L 395.624592 196.782957 
L 396.350563 201.72568 
L 397.076535 176.58018 
L 397.802507 184.831609 
L 398.528478 185.512041 
L 399.25445 189.777624 
L 399.980422 188.348998 
L 400.706394 184.264086 
L 401.432365 185.801615 
L 402.158337 200.672214 
L 402.884309 188.029618 
L 403.61028 201.484939 
L 404.336252 191.677289 
L 405.062224 202.152953 
L 405.788195 190.148421 
L 406.514167 208.349079 
L 407.240139 207.657299 
L 407.966111 212.683328 
L 408.692082 216.763197 
L 409.418054 205.589058 
L 410.144026 228.9836 
L 410.869997 205.000926 
L 411.595969 211.424523 
L 412.321941 235.451997 
L 413.047913 210.628097 
L 413.773884 217.783167 
L 414.499856 217.294377 
L 415.225828 217.957841 
L 415.951799 212.035141 
L 416.677771 239.460758 
L 417.403743 219.900776 
L 418.129714 227.360606 
L 418.855686 237.384068 
L 419.581658 225.701755 
L 420.30763 229.833506 
L 421.033601 224.828199 
L 421.759573 244.289195 
L 422.485545 239.673996 
L 423.211516 243.69615 
L 423.937488 242.850477 
L 424.66346 245.471328 
L 425.389431 246.886601 
L 426.115403 246.379609 
L 426.841375 246.656806 
L 427.567347 247.086538 
L 428.293318 250.965508 
L 429.01929 248.630375 
L 429.745262 250.511438 
L 430.471233 247.93164 
L 431.197205 250.447553 
L 431.923177 250.702636 
L 432.649148 248.377902 
L 433.37512 247.035313 
L 434.101092 251.647393 
L 434.827064 248.867255 
L 435.553035 241.735238 
L 436.279007 246.550877 
L 437.004979 241.276383 
L 437.73095 244.968501 
L 438.456922 239.937161 
L 439.182894 243.349169 
L 439.908866 248.900849 
L 440.634837 239.594881 
L 441.360809 242.414641 
L 442.086781 236.517578 
L 442.812752 238.688311 
L 443.538724 233.115386 
L 444.264696 235.958166 
L 444.990667 227.192575 
L 445.716639 231.626276 
L 446.442611 225.204269 
L 447.168583 223.88601 
L 447.894554 226.196676 
L 448.620526 225.79427 
L 449.346498 224.954528 
L 450.072469 227.696131 
L 450.798441 222.561731 
L 451.524413 223.408609 
L 452.250384 219.866427 
L 452.976356 217.399264 
L 453.702328 215.41513 
L 454.4283 218.868515 
L 455.154271 208.557901 
L 455.880243 211.49873 
L 456.606215 211.134185 
L 457.332186 209.136388 
L 458.058158 209.388411 
L 458.78413 211.906462 
L 459.510101 205.697663 
L 460.236073 206.396891 
L 460.962045 200.447287 
L 461.688017 206.721865 
L 462.413988 206.651335 
L 463.13996 201.639568 
L 463.865932 201.204433 
L 464.591903 199.18383 
L 464.591903 199.18383 
" style="fill:none;stroke:#1f77b4;stroke-linecap:square;stroke-width:1.5;"/>
   </g>
   <g id="line2d_2">
    <path clip-path="url(#pe7ca99e2a9)" d="M 58.773722 165.55344 
L 59.499693 263.594587 
L 60.225665 203.959509 
L 60.951637 101.316265 
L 61.677608 220.476062 
L 62.40358 165.326352 
L 63.129552 209.996554 
L 63.855524 34.33892 
L 64.581495 189.793378 
L 65.307467 246.273511 
L 66.033439 182.907627 
L 67.485382 207.29888 
L 68.211354 195.627023 
L 68.937325 135.793771 
L 69.663297 139.63491 
L 71.115241 260.134803 
L 71.841212 180.395587 
L 72.567184 257.789093 
L 73.293156 90.159713 
L 74.019127 209.438223 
L 74.745099 144.656159 
L 75.471071 196.426329 
L 76.197042 196.676433 
L 76.923014 177.612489 
L 77.648986 233.173671 
L 78.374958 228.056734 
L 79.100929 209.239792 
L 79.826901 241.522992 
L 80.552873 227.258535 
L 81.278844 207.508205 
L 82.004816 224.303139 
L 82.730788 235.273212 
L 83.456759 241.371164 
L 84.182731 252.4232 
L 84.908703 234.734852 
L 85.634675 226.517131 
L 86.360646 232.301986 
L 87.086618 228.282764 
L 87.81259 235.730438 
L 88.538561 269.285949 
L 89.264533 159.573366 
L 89.990505 225.005511 
L 90.716477 209.75933 
L 91.442448 243.587677 
L 92.16842 138.413483 
L 92.894392 242.497047 
L 93.620363 157.646759 
L 94.346335 213.492408 
L 95.072307 188.633723 
L 95.798278 197.49132 
L 96.52425 208.023887 
L 97.250222 150.025821 
L 97.976194 187.979931 
L 98.702165 171.49352 
L 99.428137 262.30702 
L 100.154109 114.110236 
L 100.88008 229.294321 
L 101.606052 207.965056 
L 102.332024 206.515528 
L 103.057995 250.163521 
L 103.783967 206.090433 
L 104.509939 199.126015 
L 105.235911 248.725998 
L 105.961882 241.654267 
L 106.687854 211.202409 
L 107.413826 105.680246 
L 108.139797 165.427326 
L 108.865769 199.343941 
L 109.591741 245.396576 
L 110.317712 251.140106 
L 111.043684 241.276402 
L 111.769656 229.490521 
L 112.495628 214.368892 
L 113.221599 204.75792 
L 113.947571 211.017017 
L 114.673543 242.048115 
L 115.399514 195.169487 
L 116.125486 225.065775 
L 116.851458 265.679537 
L 117.57743 106.240958 
L 118.303401 161.052532 
L 119.029373 170.966951 
L 119.755345 271.880238 
L 120.481316 254.265667 
L 121.207288 256.23991 
L 121.93326 226.474959 
L 122.659231 228.969049 
L 123.385203 208.588892 
L 124.111175 238.890715 
L 124.837147 245.182782 
L 125.563118 257.485493 
L 126.28909 238.177264 
L 127.015062 245.658651 
L 127.741033 173.150493 
L 128.467005 215.087975 
L 129.192977 231.051769 
L 129.918948 252.998952 
L 130.64492 34.46935 
L 131.370892 228.32905 
L 132.096864 249.521943 
L 132.822835 217.296646 
L 133.548807 267.713676 
L 134.274779 227.844966 
L 135.00075 235.209535 
L 135.726722 208.206472 
L 136.452694 174.757197 
L 137.178665 223.746352 
L 137.904637 216.976753 
L 138.630609 217.786318 
L 139.356581 273.631531 
L 140.082552 245.737519 
L 140.808524 241.347028 
L 141.534496 240.117662 
L 142.260467 77.379407 
L 142.986439 200.508937 
L 143.712411 77.80092 
L 144.438383 214.271325 
L 145.164354 247.044661 
L 145.890326 216.497749 
L 146.616298 217.592279 
L 147.342269 167.930392 
L 148.068241 162.390932 
L 148.794213 225.737058 
L 149.520184 211.320081 
L 150.246156 206.058065 
L 150.972128 264.320174 
L 151.6981 218.473669 
L 152.424071 226.957268 
L 153.150043 228.954038 
L 153.876015 209.829132 
L 154.601986 139.576762 
L 155.327958 204.863963 
L 156.05393 172.426049 
L 156.779901 208.738699 
L 157.505873 217.524756 
L 158.231845 207.12963 
L 158.957817 143.731636 
L 159.683788 151.839383 
L 160.40976 197.761067 
L 161.135732 232.32527 
L 161.861703 207.357365 
L 162.587675 209.128012 
L 163.313647 260.17881 
L 164.039618 226.692941 
L 164.76559 209.318918 
L 165.491562 149.477069 
L 166.217534 232.603063 
L 166.943505 212.94763 
L 167.669477 213.637421 
L 168.395449 226.945611 
L 169.12142 209.713619 
L 169.847392 239.298147 
L 170.573364 174.084091 
L 171.299336 249.744751 
L 172.025307 182.980158 
L 172.751279 208.437602 
L 173.477251 229.306714 
L 174.203222 233.005482 
L 175.655166 211.721865 
L 176.381137 208.598186 
L 177.107109 227.65368 
L 177.833081 224.76742 
L 178.559053 227.603334 
L 179.285024 223.843827 
L 180.010996 250.863715 
L 180.736968 269.696928 
L 181.462939 217.284457 
L 182.188911 216.114291 
L 182.914883 242.0078 
L 183.640854 261.034778 
L 184.366826 243.360441 
L 185.092798 180.273464 
L 185.81877 247.77633 
L 186.544741 237.77962 
L 187.270713 233.523316 
L 187.996685 235.04395 
L 188.722656 251.245484 
L 189.448628 274.687538 
L 190.1746 250.047396 
L 190.900571 280.622566 
L 191.626543 212.937065 
L 192.352515 230.050913 
L 193.078487 233.826377 
L 193.804458 261.961738 
L 194.53043 237.850846 
L 195.256402 240.954005 
L 195.982373 241.985102 
L 196.708345 223.815308 
L 197.434317 271.758318 
L 198.160289 270.559251 
L 198.88626 244.720783 
L 199.612232 236.574337 
L 200.338204 277.379137 
L 201.064175 265.345333 
L 201.790147 276.27986 
L 202.516119 259.20771 
L 203.24209 264.040885 
L 203.968062 263.053308 
L 204.694034 211.924229 
L 205.420006 255.754958 
L 206.145977 205.474334 
L 206.871949 245.813973 
L 207.597921 244.159584 
L 208.323892 214.610144 
L 209.049864 234.505779 
L 209.775836 244.766148 
L 210.501807 223.017492 
L 211.227779 98.190291 
L 211.953751 237.477555 
L 212.679723 231.923005 
L 213.405694 179.155003 
L 214.131666 147.924133 
L 214.857638 188.856527 
L 215.583609 207.263374 
L 216.309581 127.09563 
L 217.035553 203.485741 
L 217.761524 208.35621 
L 218.487496 229.026086 
L 219.213468 187.346976 
L 219.93944 186.210122 
L 220.665411 217.233765 
L 221.391383 204.054475 
L 222.117355 209.859524 
L 222.843326 230.594419 
L 223.569298 80.147508 
L 224.29527 202.273217 
L 225.021242 218.895547 
L 225.747213 215.081245 
L 226.473185 199.171743 
L 227.199157 228.591485 
L 227.925128 221.732686 
L 229.377072 189.191998 
L 230.103043 207.678447 
L 230.829015 234.121493 
L 231.554987 206.878252 
L 232.280959 223.953674 
L 233.00693 195.868099 
L 233.732902 112.673522 
L 234.458874 117.448421 
L 235.184845 192.365801 
L 235.910817 69.879367 
L 236.636789 191.20157 
L 237.36276 189.156883 
L 238.088732 195.117107 
L 238.814704 214.04499 
L 239.540676 155.499705 
L 240.266647 208.334458 
L 240.992619 189.861654 
L 241.718591 214.771838 
L 242.444562 185.331438 
L 243.170534 129.038542 
L 243.896506 138.583338 
L 244.622477 213.708017 
L 245.348449 190.595297 
L 246.074421 179.578012 
L 246.800393 196.989547 
L 247.526364 156.127124 
L 248.252336 199.224408 
L 248.978308 234.539153 
L 249.704279 201.005063 
L 250.430251 200.183796 
L 251.156223 187.457362 
L 251.882195 200.61228 
L 252.608166 201.615315 
L 253.334138 201.225684 
L 254.06011 197.18301 
L 254.786081 221.422454 
L 255.512053 235.89615 
L 256.238025 212.026543 
L 256.963996 228.893614 
L 257.689968 251.936505 
L 258.41594 210.560412 
L 259.141912 213.259823 
L 259.867883 243.34637 
L 260.593855 227.812158 
L 261.319827 237.728061 
L 262.045798 194.799861 
L 262.77177 215.874597 
L 263.497742 210.140056 
L 264.223713 213.679293 
L 264.949685 232.744065 
L 265.675657 221.167626 
L 266.401629 215.859615 
L 267.1276 224.764002 
L 267.853572 228.106177 
L 268.579544 236.371745 
L 269.305515 163.586643 
L 270.757459 220.300721 
L 271.48343 223.817218 
L 272.209402 231.634588 
L 272.935374 249.947794 
L 273.661346 174.411612 
L 274.387317 235.976735 
L 275.113289 212.143122 
L 275.839261 234.939714 
L 276.565232 230.502597 
L 277.291204 227.849437 
L 278.017176 233.597815 
L 278.743148 240.256201 
L 279.469119 227.851632 
L 280.195091 232.269 
L 280.921063 260.154139 
L 281.647034 225.02356 
L 282.373006 258.506376 
L 283.098978 234.784437 
L 283.824949 235.835645 
L 284.550921 200.569362 
L 285.276893 200.414788 
L 286.002865 228.512562 
L 286.728836 235.332352 
L 287.454808 217.003455 
L 288.18078 204.327754 
L 288.906751 227.980273 
L 289.632723 221.649545 
L 290.358695 220.303966 
L 291.084666 213.562582 
L 291.810638 228.511336 
L 292.53661 172.000593 
L 293.262582 232.582467 
L 293.988553 219.683508 
L 294.714525 232.827469 
L 295.440497 210.188108 
L 296.166468 213.916083 
L 296.89244 208.982863 
L 297.618412 214.859291 
L 298.344383 202.91221 
L 299.070355 220.383726 
L 299.796327 224.251018 
L 300.522299 271.150378 
L 301.24827 233.900828 
L 301.974242 230.226578 
L 302.700214 237.393167 
L 303.426185 154.100578 
L 304.152157 226.559253 
L 304.878129 185.385967 
L 305.604101 233.782843 
L 306.330072 199.33178 
L 307.056044 240.397346 
L 307.782016 239.805852 
L 308.507987 217.075337 
L 309.233959 229.596834 
L 309.959931 228.705575 
L 310.685902 224.87381 
L 311.411874 227.192008 
L 312.137846 235.991948 
L 312.863818 225.66781 
L 313.589789 228.339663 
L 314.315761 169.027292 
L 315.041733 233.855471 
L 315.767704 223.676543 
L 316.493676 220.52669 
L 317.219648 260.630676 
L 318.671591 179.051503 
L 319.397563 198.119982 
L 320.123535 225.950775 
L 320.849506 209.032821 
L 321.575478 259.135235 
L 322.30145 248.731442 
L 323.027421 191.692434 
L 323.753393 231.629349 
L 324.479365 233.015151 
L 325.205336 253.590557 
L 325.931308 247.161854 
L 326.65728 246.752587 
L 327.383252 194.927766 
L 328.109223 250.342542 
L 328.835195 229.354916 
L 329.561167 258.639013 
L 330.287138 221.645066 
L 331.01311 199.641583 
L 331.739082 225.284959 
L 332.465054 186.93122 
L 333.191025 228.762631 
L 333.916997 250.270013 
L 334.642969 244.424308 
L 335.36894 232.638262 
L 336.094912 212.424487 
L 336.820884 248.592986 
L 337.546855 198.789389 
L 338.272827 243.128274 
L 338.998799 227.577662 
L 341.176714 244.533622 
L 341.902686 227.641288 
L 342.628657 188.47116 
L 343.354629 248.365781 
L 344.080601 192.95053 
L 344.806572 196.05928 
L 345.532544 213.295508 
L 346.258516 213.982308 
L 346.984488 195.002044 
L 347.710459 207.326143 
L 348.436431 203.122394 
L 349.162403 202.393085 
L 349.888374 202.036837 
L 350.614346 202.140462 
L 351.340318 212.043829 
L 352.066289 211.559339 
L 352.792261 191.837874 
L 353.518233 210.482204 
L 354.244205 209.897636 
L 354.970176 206.62133 
L 355.696148 187.901459 
L 356.42212 199.79632 
L 357.148091 192.567202 
L 357.874063 197.491072 
L 358.600035 200.061085 
L 359.326007 204.539221 
L 360.051978 167.302035 
L 360.77795 166.652519 
L 361.503922 223.57193 
L 362.229893 191.699888 
L 362.955865 199.975273 
L 363.681837 188.986843 
L 364.407808 204.641893 
L 365.13378 191.419229 
L 366.585724 205.49514 
L 367.311695 206.602984 
L 368.037667 205.515296 
L 368.763639 201.078109 
L 369.48961 202.06736 
L 370.215582 197.525031 
L 370.941554 204.847799 
L 371.667525 205.64168 
L 372.393497 203.620066 
L 373.119469 206.747299 
L 373.845441 202.637008 
L 374.571412 207.884073 
L 375.297384 226.485906 
L 376.023356 201.864429 
L 376.749327 194.410633 
L 378.201271 230.371095 
L 378.927242 208.405362 
L 379.653214 199.923464 
L 380.379186 197.134905 
L 381.105158 212.604499 
L 381.831129 208.652422 
L 382.557101 203.071595 
L 383.283073 199.740764 
L 384.009044 222.678119 
L 384.735016 216.305954 
L 385.460988 200.501899 
L 386.18696 215.364828 
L 386.912931 204.243254 
L 387.638903 213.628258 
L 388.364875 205.609594 
L 389.090846 214.964286 
L 389.816818 217.480018 
L 390.54279 225.783757 
L 391.268761 217.910495 
L 391.994733 220.382459 
L 392.720705 224.544196 
L 393.446677 221.80802 
L 394.172648 206.442409 
L 394.89862 230.658795 
L 395.624592 230.79778 
L 396.350563 227.53726 
L 397.076535 223.486504 
L 397.802507 230.12524 
L 398.528478 210.567762 
L 399.25445 214.983318 
L 399.980422 215.763341 
L 400.706394 221.403303 
L 401.432365 219.955461 
L 402.158337 237.341036 
L 402.884309 225.260996 
L 403.61028 211.028248 
L 404.336252 214.601507 
L 405.062224 211.647416 
L 405.788195 220.734126 
L 406.514167 211.624461 
L 407.240139 211.103657 
L 407.966111 225.561585 
L 408.692082 237.580979 
L 409.418054 212.917122 
L 410.144026 241.273291 
L 410.869997 227.237576 
L 411.595969 229.162531 
L 412.321941 228.21614 
L 413.047913 229.324448 
L 413.773884 227.882754 
L 414.499856 234.379125 
L 415.225828 216.1846 
L 415.951799 215.369634 
L 416.677771 238.911717 
L 417.403743 216.844066 
L 418.129714 228.827657 
L 418.855686 234.03377 
L 419.581658 220.686009 
L 420.30763 232.066248 
L 421.033601 226.595899 
L 421.759573 243.225123 
L 422.485545 232.681225 
L 423.211516 242.382666 
L 423.937488 234.540868 
L 424.66346 234.556353 
L 425.389431 235.658704 
L 426.115403 232.898761 
L 426.841375 234.375148 
L 427.567347 234.124744 
L 428.293318 234.130008 
L 429.01929 234.386272 
L 429.745262 235.545574 
L 430.471233 232.042897 
L 431.197205 234.350539 
L 431.923177 234.717839 
L 432.649148 234.510173 
L 433.37512 234.990251 
L 434.101092 240.812884 
L 434.827064 232.302157 
L 435.553035 226.793224 
L 436.279007 230.80281 
L 437.004979 224.069558 
L 437.73095 226.788313 
L 438.456922 220.85568 
L 439.182894 225.022153 
L 439.908866 227.546603 
L 440.634837 221.648357 
L 441.360809 223.426734 
L 442.086781 222.679606 
L 442.812752 220.952386 
L 443.538724 222.451783 
L 444.264696 218.992459 
L 444.990667 218.779446 
L 445.716639 218.285594 
L 446.442611 217.656159 
L 447.168583 217.536574 
L 447.894554 215.365564 
L 448.620526 220.289852 
L 449.346498 215.557206 
L 450.072469 213.009095 
L 450.798441 213.880932 
L 451.524413 216.650518 
L 452.976356 211.644773 
L 453.702328 213.52278 
L 454.4283 212.509394 
L 455.154271 210.678679 
L 455.880243 214.313318 
L 456.606215 209.483294 
L 457.332186 211.069524 
L 458.058158 210.682132 
L 458.78413 208.611847 
L 459.510101 208.685372 
L 460.236073 208.359053 
L 460.962045 208.235653 
L 461.688017 208.566673 
L 462.413988 207.149668 
L 463.13996 206.268796 
L 463.865932 205.775531 
L 464.591903 205.640805 
L 464.591903 205.640805 
" style="fill:none;stroke:#ff7f0e;stroke-linecap:square;stroke-width:1.5;"/>
   </g>
   <g id="line2d_3">
    <path clip-path="url(#pe7ca99e2a9)" d="M 58.773722 205.578809 
L 59.499693 242.982429 
L 60.225665 231.250298 
L 60.951637 238.25845 
L 61.677608 235.804443 
L 62.40358 209.299843 
L 63.129552 222.793662 
L 63.855524 213.192057 
L 64.581495 220.1892 
L 65.307467 272.008213 
L 66.033439 219.8227 
L 66.75941 243.783521 
L 67.485382 241.3059 
L 68.211354 174.469933 
L 68.937325 276.604992 
L 69.663297 222.840085 
L 70.389269 251.504808 
L 71.115241 246.018311 
L 71.841212 232.642618 
L 72.567184 251.894643 
L 73.293156 237.52447 
L 74.019127 236.808215 
L 74.745099 244.559486 
L 75.471071 246.885402 
L 76.197042 237.414237 
L 76.923014 247.145988 
L 77.648986 247.762443 
L 78.374958 263.372614 
L 79.100929 241.375331 
L 79.826901 270.163193 
L 80.552873 262.713118 
L 81.278844 230.987864 
L 82.004816 251.4186 
L 82.730788 242.053294 
L 83.456759 269.410455 
L 84.182731 264.178959 
L 84.908703 246.257414 
L 85.634675 233.378468 
L 86.360646 226.185648 
L 87.086618 245.515779 
L 87.81259 184.25039 
L 88.538561 271.204182 
L 89.264533 175.919672 
L 89.990505 224.752321 
L 90.716477 225.30072 
L 91.442448 245.654323 
L 92.16842 185.678549 
L 92.894392 243.786749 
L 93.620363 182.228224 
L 94.346335 220.824253 
L 95.072307 186.376841 
L 95.798278 199.998905 
L 96.52425 205.565935 
L 97.250222 171.827212 
L 97.976194 171.928089 
L 98.702165 175.58449 
L 99.428137 245.766522 
L 100.88008 202.404875 
L 101.606052 154.051923 
L 102.332024 200.279871 
L 103.057995 200.183321 
L 103.783967 159.779827 
L 104.509939 209.959082 
L 105.235911 208.283212 
L 105.961882 233.236774 
L 106.687854 181.198505 
L 107.413826 181.067504 
L 108.139797 190.316325 
L 108.865769 137.911714 
L 109.591741 246.817281 
L 110.317712 181.284269 
L 111.043684 206.292005 
L 111.769656 179.061132 
L 112.495628 182.436531 
L 113.221599 175.230096 
L 113.947571 210.019987 
L 114.673543 212.360503 
L 115.399514 182.235421 
L 116.125486 130.50732 
L 116.851458 251.838133 
L 117.57743 192.972212 
L 118.303401 187.32345 
L 119.029373 112.511173 
L 119.755345 261.095763 
L 120.481316 227.168671 
L 121.207288 223.467658 
L 121.93326 155.698024 
L 122.659231 180.899856 
L 123.385203 211.76424 
L 124.111175 164.654997 
L 124.837147 246.362622 
L 125.563118 191.051997 
L 126.28909 170.950741 
L 127.015062 200.447473 
L 127.741033 239.969685 
L 128.467005 148.368784 
L 129.192977 189.222012 
L 129.918948 219.214557 
L 130.64492 138.284846 
L 131.370892 165.292185 
L 132.096864 247.920217 
L 132.822835 188.460008 
L 133.548807 242.417489 
L 134.274779 169.380667 
L 135.00075 171.996417 
L 135.726722 204.787995 
L 136.452694 141.074349 
L 137.178665 194.083185 
L 137.904637 177.535907 
L 138.630609 185.683908 
L 139.356581 229.306493 
L 140.082552 231.089738 
L 140.808524 205.164959 
L 141.534496 203.748511 
L 142.260467 191.335186 
L 142.986439 188.121493 
L 143.712411 172.470802 
L 144.438383 231.537206 
L 145.164354 257.681276 
L 145.890326 218.177317 
L 146.616298 134.119513 
L 147.342269 200.292995 
L 148.068241 229.774926 
L 148.794213 225.834292 
L 149.520184 206.46824 
L 150.246156 227.79698 
L 150.972128 277.168285 
L 151.6981 255.571013 
L 153.150043 185.391551 
L 153.876015 227.051894 
L 154.601986 200.10893 
L 155.327958 235.689923 
L 156.05393 202.166428 
L 156.779901 213.461481 
L 157.505873 234.954956 
L 158.231845 226.821349 
L 158.957817 228.446206 
L 159.683788 225.061435 
L 160.40976 218.946386 
L 161.135732 256.568166 
L 161.861703 231.930689 
L 162.587675 243.203776 
L 163.313647 281.42983 
L 164.039618 244.622908 
L 164.76559 238.430369 
L 165.491562 228.882219 
L 166.217534 232.491541 
L 166.943505 208.323947 
L 167.669477 219.930549 
L 168.395449 196.304253 
L 169.12142 238.991263 
L 169.847392 264.707686 
L 170.573364 224.156995 
L 171.299336 278.45949 
L 172.025307 225.158101 
L 172.751279 234.803243 
L 173.477251 185.512424 
L 174.203222 257.307184 
L 174.929194 203.912206 
L 175.655166 210.452982 
L 176.381137 239.980777 
L 177.833081 208.133549 
L 178.559053 204.05336 
L 180.010996 230.892198 
L 180.736968 261.114974 
L 181.462939 237.264668 
L 182.188911 224.112537 
L 182.914883 217.661016 
L 183.640854 255.459286 
L 184.366826 230.065288 
L 185.092798 175.782292 
L 185.81877 212.375095 
L 186.544741 207.052998 
L 187.270713 214.145155 
L 187.996685 206.904448 
L 188.722656 230.529444 
L 189.448628 234.975174 
L 190.1746 218.961444 
L 190.900571 235.575874 
L 192.352515 218.61299 
L 193.078487 231.561935 
L 193.804458 226.879061 
L 194.53043 225.678807 
L 195.256402 214.04982 
L 195.982373 198.23664 
L 196.708345 213.330541 
L 197.434317 252.451122 
L 198.160289 243.391296 
L 198.88626 226.663259 
L 199.612232 224.003578 
L 200.338204 231.237453 
L 201.064175 246.735789 
L 201.790147 223.064527 
L 202.516119 235.271794 
L 203.24209 216.768278 
L 203.968062 226.617384 
L 204.694034 239.993772 
L 205.420006 209.972611 
L 206.145977 239.881191 
L 206.871949 215.55665 
L 207.597921 224.25122 
L 208.323892 207.001194 
L 209.049864 215.11989 
L 209.775836 238.622848 
L 210.501807 206.85163 
L 211.227779 187.640457 
L 211.953751 204.410574 
L 212.679723 238.785788 
L 213.405694 178.60847 
L 214.131666 196.788654 
L 214.857638 162.631711 
L 215.583609 214.374474 
L 216.309581 205.395619 
L 217.035553 185.553584 
L 217.761524 160.627954 
L 218.487496 220.114159 
L 219.213468 145.925729 
L 219.93944 150.47092 
L 220.665411 158.616198 
L 221.391383 177.870676 
L 222.117355 175.685005 
L 222.843326 234.984088 
L 223.569298 152.045261 
L 224.29527 117.951947 
L 225.021242 196.558394 
L 225.747213 219.996152 
L 226.473185 169.138717 
L 227.199157 145.095601 
L 227.925128 193.334609 
L 228.6511 176.533608 
L 229.377072 163.138082 
L 230.103043 198.642182 
L 230.829015 244.023618 
L 231.554987 191.434581 
L 232.280959 210.48515 
L 233.00693 134.655493 
L 233.732902 214.326455 
L 234.458874 131.091048 
L 235.184845 196.23909 
L 235.910817 152.741151 
L 236.636789 200.879266 
L 237.36276 211.278114 
L 238.088732 180.4651 
L 238.814704 223.169198 
L 239.540676 223.970774 
L 240.266647 215.846587 
L 240.992619 176.846331 
L 241.718591 210.131508 
L 242.444562 210.560796 
L 243.170534 190.838391 
L 243.896506 193.995119 
L 244.622477 241.841635 
L 245.348449 204.743619 
L 246.074421 208.392005 
L 246.800393 232.429565 
L 247.526364 213.183964 
L 248.978308 227.663976 
L 249.704279 220.498464 
L 250.430251 238.717785 
L 251.156223 216.827595 
L 251.882195 205.882593 
L 252.608166 200.102908 
L 253.334138 199.392556 
L 254.06011 219.399715 
L 254.786081 249.570534 
L 255.512053 246.67453 
L 256.238025 229.078813 
L 256.963996 239.366829 
L 257.689968 258.708739 
L 258.41594 199.783976 
L 259.141912 263.488394 
L 259.867883 245.462181 
L 260.593855 241.88635 
L 262.045798 254.192593 
L 262.77177 237.672365 
L 263.497742 260.093148 
L 264.223713 249.466987 
L 264.949685 242.003478 
L 265.675657 239.512498 
L 266.401629 265.256614 
L 267.1276 193.310796 
L 267.853572 217.531875 
L 268.579544 248.519895 
L 269.305515 221.73555 
L 270.031487 233.986709 
L 270.757459 239.309703 
L 271.48343 230.593032 
L 272.209402 238.428923 
L 272.935374 252.333595 
L 273.661346 255.783336 
L 274.387317 240.988359 
L 275.113289 235.316603 
L 275.839261 242.867562 
L 276.565232 243.772096 
L 277.291204 195.395485 
L 278.017176 235.083541 
L 278.743148 240.064893 
L 279.469119 213.657526 
L 280.195091 243.230597 
L 280.921063 218.203002 
L 281.647034 223.730483 
L 282.373006 226.50136 
L 283.098978 229.756752 
L 283.824949 212.602187 
L 284.550921 220.271067 
L 285.276893 214.916416 
L 286.002865 223.038427 
L 286.728836 210.107846 
L 287.454808 215.093077 
L 288.18078 182.033324 
L 288.906751 211.045404 
L 289.632723 185.208219 
L 290.358695 205.333285 
L 291.084666 185.901097 
L 291.810638 210.95373 
L 292.53661 194.81877 
L 293.262582 212.534121 
L 293.988553 192.345523 
L 294.714525 214.622855 
L 295.440497 199.044461 
L 296.166468 200.796141 
L 296.89244 189.768606 
L 297.618412 199.341341 
L 298.344383 185.066979 
L 299.070355 194.716109 
L 299.796327 154.410892 
L 300.522299 253.49746 
L 301.24827 143.194061 
L 301.974242 189.671544 
L 302.700214 156.827196 
L 303.426185 173.96981 
L 304.152157 143.542411 
L 304.878129 208.784725 
L 305.604101 197.505012 
L 306.330072 183.990298 
L 307.056044 224.247657 
L 307.782016 217.728232 
L 309.233959 194.438911 
L 309.959931 205.324505 
L 310.685902 198.115876 
L 311.411874 213.445155 
L 312.137846 210.050317 
L 312.863818 192.107494 
L 313.589789 201.958898 
L 314.315761 209.997006 
L 315.041733 198.269098 
L 315.767704 192.311926 
L 316.493676 219.241778 
L 317.219648 231.327759 
L 317.945619 188.237434 
L 318.671591 204.381046 
L 319.397563 209.161967 
L 320.123535 224.079463 
L 320.849506 210.10254 
L 321.575478 235.575813 
L 322.30145 241.299752 
L 323.027421 229.724801 
L 323.753393 186.669596 
L 324.479365 214.956088 
L 325.205336 253.475012 
L 325.931308 228.716568 
L 326.65728 233.209317 
L 327.383252 222.093585 
L 328.109223 234.524458 
L 328.835195 223.246632 
L 329.561167 257.800433 
L 330.287138 227.327612 
L 331.01311 205.618826 
L 331.739082 248.782101 
L 332.465054 203.381414 
L 333.191025 232.200298 
L 333.916997 247.954193 
L 334.642969 245.755747 
L 335.36894 213.383983 
L 336.094912 252.995141 
L 336.820884 244.813174 
L 337.546855 245.660376 
L 338.272827 230.674524 
L 338.998799 218.053395 
L 339.724771 213.222797 
L 340.450742 244.679085 
L 341.176714 241.457393 
L 341.902686 229.256942 
L 342.628657 213.127037 
L 343.354629 246.973119 
L 344.080601 224.284298 
L 344.806572 220.100072 
L 345.532544 248.349444 
L 346.258516 220.496716 
L 346.984488 237.691658 
L 347.710459 227.539921 
L 348.436431 230.458912 
L 349.162403 228.097708 
L 349.888374 227.222257 
L 350.614346 225.744127 
L 351.340318 229.260294 
L 352.066289 228.183241 
L 352.792261 221.84072 
L 353.518233 209.68663 
L 354.244205 218.749335 
L 354.970176 238.985856 
L 355.696148 204.78031 
L 356.42212 235.571509 
L 357.148091 217.685729 
L 357.874063 217.743207 
L 358.600035 223.932623 
L 359.326007 223.253766 
L 360.051978 218.784486 
L 360.77795 193.245328 
L 361.503922 237.383114 
L 362.229893 212.259658 
L 362.955865 216.524529 
L 363.681837 217.68728 
L 364.407808 216.519206 
L 365.13378 210.894505 
L 365.859752 208.192826 
L 367.311695 212.369052 
L 368.037667 208.355371 
L 368.763639 227.449166 
L 369.48961 212.085408 
L 370.215582 230.68994 
L 370.941554 226.908573 
L 371.667525 213.937835 
L 372.393497 227.121872 
L 373.119469 215.210723 
L 374.571412 205.328838 
L 375.297384 218.689256 
L 376.023356 203.544257 
L 376.749327 201.785086 
L 377.475299 206.73821 
L 378.201271 208.245448 
L 378.927242 206.384308 
L 379.653214 188.823193 
L 380.379186 202.009654 
L 381.105158 194.462241 
L 381.831129 203.338055 
L 382.557101 196.985371 
L 383.283073 203.209637 
L 384.009044 219.10017 
L 384.735016 184.359963 
L 385.460988 206.374481 
L 386.18696 223.708965 
L 386.912931 187.56601 
L 387.638903 220.235139 
L 388.364875 191.119089 
L 389.090846 191.761771 
L 389.816818 208.028164 
L 390.54279 205.728048 
L 391.268761 190.544244 
L 391.994733 199.498139 
L 393.446677 185.633036 
L 394.172648 195.007188 
L 394.89862 208.552779 
L 396.350563 191.595388 
L 397.076535 182.614653 
L 397.802507 186.125419 
L 398.528478 184.184605 
L 399.25445 183.688341 
L 399.980422 191.036722 
L 400.706394 189.354924 
L 401.432365 186.726287 
L 402.158337 200.882345 
L 402.884309 182.000319 
L 403.61028 196.026939 
L 404.336252 188.418104 
L 405.062224 194.35971 
L 405.788195 186.577666 
L 406.514167 197.479247 
L 407.240139 200.90106 
L 407.966111 201.164491 
L 408.692082 219.893789 
L 409.418054 207.942074 
L 410.144026 228.294284 
L 410.869997 201.877967 
L 411.595969 204.842852 
L 412.321941 228.382971 
L 413.047913 205.119615 
L 413.773884 208.834476 
L 414.499856 210.4371 
L 415.225828 208.467275 
L 415.951799 205.298379 
L 416.677771 227.122392 
L 417.403743 210.953158 
L 418.855686 230.410635 
L 419.581658 219.858477 
L 420.30763 226.26247 
L 421.033601 224.987107 
L 421.759573 239.727319 
L 422.485545 241.273934 
L 423.211516 237.832421 
L 423.937488 240.403643 
L 424.66346 240.264948 
L 425.389431 238.44184 
L 426.115403 240.756143 
L 427.567347 242.26216 
L 428.293318 240.728498 
L 429.01929 243.048699 
L 429.745262 242.923594 
L 430.471233 243.972109 
L 431.197205 241.240826 
L 431.923177 242.821457 
L 432.649148 241.421498 
L 433.37512 249.09668 
L 434.101092 245.571529 
L 434.827064 244.224735 
L 435.553035 239.070207 
L 436.279007 242.242371 
L 437.004979 237.886651 
L 437.73095 240.438508 
L 438.456922 236.202035 
L 439.182894 240.461128 
L 439.908866 242.122443 
L 440.634837 239.26005 
L 441.360809 240.071895 
L 442.086781 234.829073 
L 442.812752 236.84462 
L 443.538724 231.903042 
L 444.264696 233.597618 
L 444.990667 228.211614 
L 445.716639 231.780615 
L 446.442611 226.044564 
L 447.168583 228.1544 
L 447.894554 229.047423 
L 449.346498 228.709321 
L 450.072469 227.400021 
L 450.798441 227.045892 
L 451.524413 225.459267 
L 452.250384 221.807466 
L 452.976356 224.266301 
L 453.702328 220.49327 
L 454.4283 221.312099 
L 455.154271 217.878859 
L 455.880243 219.674224 
L 456.606215 219.562995 
L 457.332186 215.113634 
L 458.058158 215.265023 
L 458.78413 218.418644 
L 459.510101 215.726953 
L 460.236073 215.525899 
L 460.962045 212.758074 
L 461.688017 212.855466 
L 462.413988 212.501338 
L 463.13996 211.650155 
L 463.865932 211.270659 
L 464.591903 210.23511 
L 464.591903 210.23511 
" style="fill:none;stroke:#2ca02c;stroke-linecap:square;stroke-width:1.5;"/>
   </g>
   <g id="line2d_4">
    <path clip-path="url(#pe7ca99e2a9)" d="M 58.773722 150.503966 
L 59.499693 248.901757 
L 60.225665 183.820656 
L 60.951637 217.515788 
L 61.677608 215.542473 
L 62.40358 183.902046 
L 63.129552 198.919473 
L 63.855524 149.662915 
L 64.581495 184.739549 
L 65.307467 247.530852 
L 66.033439 199.501813 
L 66.75941 137.026709 
L 67.485382 223.980494 
L 68.211354 190.86977 
L 68.937325 248.556675 
L 69.663297 111.067258 
L 70.389269 220.278934 
L 71.115241 224.036836 
L 71.841212 198.859796 
L 72.567184 217.081721 
L 73.293156 206.771148 
L 74.019127 208.730345 
L 74.745099 197.705492 
L 75.471071 220.261547 
L 76.197042 190.506988 
L 77.648986 244.799248 
L 78.374958 240.917221 
L 79.100929 219.063868 
L 79.826901 250.868612 
L 80.552873 206.22829 
L 81.278844 229.635337 
L 82.004816 215.976614 
L 82.730788 236.619225 
L 83.456759 252.750879 
L 84.182731 253.101676 
L 84.908703 237.382084 
L 86.360646 243.509044 
L 87.086618 225.331963 
L 87.81259 254.18403 
L 88.538561 226.381291 
L 89.264533 229.675928 
L 89.990505 229.312648 
L 90.716477 229.933511 
L 91.442448 254.928328 
L 92.16842 218.766862 
L 92.894392 264.240388 
L 93.620363 139.498787 
L 94.346335 232.519197 
L 95.072307 161.108261 
L 95.798278 212.738336 
L 96.52425 193.872491 
L 97.250222 169.25184 
L 97.976194 177.907495 
L 98.702165 168.330484 
L 99.428137 254.275614 
L 100.154109 245.977896 
L 100.88008 204.745748 
L 101.606052 151.889157 
L 102.332024 175.440549 
L 103.057995 214.565606 
L 103.783967 154.964611 
L 104.509939 228.433725 
L 105.235911 214.092444 
L 105.961882 238.73476 
L 106.687854 209.479216 
L 107.413826 224.588532 
L 108.139797 214.323392 
L 108.865769 220.947628 
L 109.591741 267.359013 
L 111.043684 233.963199 
L 111.769656 231.913393 
L 112.495628 195.938025 
L 113.221599 142.195564 
L 113.947571 227.93824 
L 114.673543 217.036718 
L 115.399514 141.365247 
L 116.125486 218.423345 
L 116.851458 220.001715 
L 117.57743 213.340493 
L 118.303401 186.600864 
L 119.029373 211.726296 
L 119.755345 271.951251 
L 120.481316 183.077697 
L 121.207288 227.762919 
L 121.93326 213.845054 
L 122.659231 233.739894 
L 123.385203 230.296485 
L 124.111175 232.165152 
L 124.837147 256.65565 
L 125.563118 257.321253 
L 126.28909 122.053026 
L 127.015062 236.085277 
L 127.741033 261.249802 
L 128.467005 204.148988 
L 129.192977 169.705187 
L 129.918948 221.862978 
L 130.64492 201.551915 
L 131.370892 220.18084 
L 132.096864 225.824765 
L 132.822835 211.356437 
L 133.548807 201.485543 
L 134.274779 225.197332 
L 135.00075 214.72885 
L 135.726722 224.642405 
L 136.452694 128.924945 
L 137.178665 152.54826 
L 137.904637 186.927961 
L 138.630609 197.223889 
L 139.356581 225.960194 
L 140.082552 241.322067 
L 140.808524 191.155656 
L 141.534496 174.685656 
L 142.260467 180.308318 
L 142.986439 198.259669 
L 143.712411 207.648452 
L 144.438383 218.582948 
L 145.164354 253.455043 
L 145.890326 159.563257 
L 146.616298 203.506942 
L 147.342269 207.356294 
L 148.068241 237.526548 
L 148.794213 239.956218 
L 149.520184 103.13111 
L 150.246156 215.493196 
L 150.972128 273.532466 
L 151.6981 224.14904 
L 152.424071 217.010396 
L 153.150043 168.406298 
L 153.876015 215.587083 
L 154.601986 193.010557 
L 155.327958 229.238077 
L 156.05393 185.755995 
L 156.779901 216.823884 
L 157.505873 224.258601 
L 158.231845 224.497932 
L 158.957817 228.694413 
L 159.683788 229.329587 
L 160.40976 145.682077 
L 161.135732 216.501415 
L 161.861703 164.308673 
L 162.587675 221.902458 
L 163.313647 257.126613 
L 164.039618 228.307379 
L 164.76559 236.361725 
L 165.491562 225.264457 
L 166.217534 177.395467 
L 166.943505 206.418126 
L 167.669477 139.419352 
L 169.12142 201.442045 
L 169.847392 245.852754 
L 170.573364 212.391463 
L 171.299336 252.823454 
L 172.025307 208.993214 
L 172.751279 226.610556 
L 173.477251 233.088142 
L 174.203222 201.785079 
L 174.929194 229.002223 
L 175.655166 203.432694 
L 176.381137 242.223489 
L 177.107109 228.640801 
L 177.833081 220.872308 
L 178.559053 241.635351 
L 179.285024 210.516241 
L 180.010996 258.943122 
L 180.736968 243.245699 
L 181.462939 267.024902 
L 182.188911 238.730112 
L 182.914883 242.861129 
L 183.640854 248.970914 
L 184.366826 244.235049 
L 185.092798 249.120648 
L 185.81877 244.190364 
L 186.544741 193.039838 
L 187.270713 230.732327 
L 187.996685 234.965563 
L 188.722656 234.507478 
L 189.448628 274.027975 
L 190.1746 188.625816 
L 190.900571 274.524096 
L 191.626543 253.565453 
L 192.352515 253.959075 
L 193.078487 273.593397 
L 193.804458 265.357076 
L 194.53043 241.874957 
L 195.256402 248.07168 
L 195.982373 193.732895 
L 196.708345 217.071153 
L 197.434317 271.472557 
L 198.160289 265.377604 
L 198.88626 261.109974 
L 199.612232 242.242941 
L 200.338204 240.557419 
L 201.064175 259.847588 
L 201.790147 269.471545 
L 202.516119 238.938777 
L 203.24209 239.119136 
L 203.968062 252.569194 
L 204.694034 220.025158 
L 205.420006 235.434957 
L 206.145977 222.32539 
L 206.871949 236.555303 
L 207.597921 226.923875 
L 208.323892 219.987912 
L 209.049864 164.384074 
L 209.775836 251.719565 
L 210.501807 188.370617 
L 211.227779 217.854704 
L 211.953751 206.958531 
L 212.679723 253.852034 
L 213.405694 243.539003 
L 214.131666 221.192146 
L 214.857638 216.261699 
L 215.583609 228.900344 
L 216.309581 213.650422 
L 217.035553 130.481338 
L 217.761524 179.475656 
L 218.487496 179.587516 
L 219.213468 152.21653 
L 219.93944 203.721786 
L 220.665411 118.171175 
L 221.391383 172.433299 
L 222.117355 155.201539 
L 222.843326 238.922001 
L 223.569298 187.332726 
L 224.29527 182.43141 
L 225.021242 130.040698 
L 225.747213 222.612119 
L 227.199157 132.993331 
L 227.925128 142.741285 
L 228.6511 155.922011 
L 229.377072 199.099081 
L 230.103043 82.504972 
L 230.829015 210.831918 
L 231.554987 113.285474 
L 232.280959 191.46455 
L 233.732902 124.479918 
L 234.458874 174.343541 
L 235.184845 173.936884 
L 235.910817 133.25175 
L 236.636789 183.722107 
L 237.36276 203.287139 
L 238.088732 195.29827 
L 238.814704 234.074039 
L 239.540676 160.877025 
L 240.266647 207.004834 
L 240.992619 170.725177 
L 241.718591 199.996388 
L 242.444562 196.064832 
L 243.170534 208.01632 
L 243.896506 200.607048 
L 245.348449 202.071067 
L 246.074421 209.08856 
L 246.800393 204.948216 
L 247.526364 210.732221 
L 248.252336 220.711396 
L 248.978308 200.131085 
L 249.704279 185.428703 
L 250.430251 226.629682 
L 251.156223 197.67648 
L 251.882195 182.070628 
L 252.608166 213.463746 
L 253.334138 207.823702 
L 254.06011 179.084079 
L 254.786081 249.92073 
L 255.512053 226.754024 
L 256.238025 218.805386 
L 256.963996 233.148404 
L 257.689968 199.14916 
L 258.41594 198.047027 
L 259.141912 226.971701 
L 259.867883 234.430847 
L 260.593855 223.584084 
L 261.319827 236.923322 
L 262.045798 240.915603 
L 262.77177 229.05207 
L 263.497742 250.005984 
L 264.223713 239.228949 
L 264.949685 244.18081 
L 265.675657 184.720088 
L 266.401629 254.834293 
L 267.1276 234.029331 
L 267.853572 199.767983 
L 268.579544 251.642155 
L 269.305515 234.422523 
L 270.031487 246.64546 
L 270.757459 243.59467 
L 271.48343 199.476109 
L 272.209402 215.362217 
L 272.935374 247.283765 
L 273.661346 254.308089 
L 274.387317 180.748445 
L 275.113289 212.374472 
L 275.839261 231.947817 
L 276.565232 221.280896 
L 277.291204 227.736784 
L 278.017176 229.068615 
L 278.743148 221.697459 
L 279.469119 220.334773 
L 280.195091 222.539898 
L 280.921063 226.443695 
L 281.647034 219.570041 
L 282.373006 234.406354 
L 283.098978 230.373097 
L 283.824949 227.076613 
L 284.550921 231.177371 
L 285.276893 222.851855 
L 286.002865 233.528346 
L 286.728836 224.989438 
L 287.454808 230.507673 
L 288.18078 230.108774 
L 288.906751 232.260574 
L 290.358695 221.88071 
L 291.084666 216.437466 
L 291.810638 222.59403 
L 292.53661 226.438484 
L 293.262582 195.462474 
L 293.988553 225.966824 
L 294.714525 183.316763 
L 295.440497 225.573532 
L 296.166468 208.82747 
L 296.89244 206.900768 
L 297.618412 215.932376 
L 298.344383 205.351757 
L 299.070355 183.277534 
L 299.796327 221.634554 
L 300.522299 266.903459 
L 301.24827 215.167295 
L 301.974242 241.308564 
L 302.700214 227.296444 
L 303.426185 227.227413 
L 304.152157 221.707229 
L 304.878129 185.0622 
L 305.604101 256.101852 
L 306.330072 200.589323 
L 307.056044 248.136288 
L 307.782016 241.185137 
L 308.507987 227.100704 
L 309.233959 232.753962 
L 309.959931 219.92778 
L 310.685902 234.881021 
L 311.411874 195.693867 
L 312.137846 236.937311 
L 312.863818 234.406972 
L 313.589789 232.574994 
L 314.315761 226.161271 
L 315.041733 224.897523 
L 315.767704 235.658787 
L 316.493676 220.452786 
L 317.219648 265.212579 
L 317.945619 220.589256 
L 318.671591 232.531778 
L 319.397563 232.358925 
L 320.123535 244.294179 
L 320.849506 229.35527 
L 321.575478 266.851647 
L 322.30145 259.104208 
L 323.027421 238.870471 
L 323.753393 178.27283 
L 324.479365 236.067653 
L 325.205336 262.791926 
L 325.931308 209.237148 
L 326.65728 248.950032 
L 327.383252 232.814093 
L 328.109223 189.299972 
L 328.835195 233.222411 
L 329.561167 254.305869 
L 330.287138 229.683248 
L 331.01311 236.121079 
L 331.739082 204.09162 
L 332.465054 228.369175 
L 333.191025 228.553699 
L 333.916997 215.915641 
L 334.642969 243.451274 
L 335.36894 225.710024 
L 336.094912 239.916858 
L 336.820884 196.529089 
L 337.546855 220.355987 
L 338.272827 209.997388 
L 338.998799 215.619815 
L 339.724771 212.989994 
L 340.450742 209.745831 
L 341.176714 204.454269 
L 341.902686 200.878862 
L 342.628657 203.788153 
L 343.354629 203.92939 
L 344.080601 201.628693 
L 344.806572 204.497934 
L 345.532544 194.931764 
L 346.258516 200.388877 
L 346.984488 191.143824 
L 347.710459 198.871509 
L 348.436431 195.238497 
L 349.162403 197.363493 
L 349.888374 195.086741 
L 350.614346 188.996603 
L 351.340318 198.604196 
L 352.066289 194.286209 
L 352.792261 191.707737 
L 353.518233 187.515881 
L 354.244205 192.146708 
L 354.970176 192.194473 
L 355.696148 175.301425 
L 356.42212 188.741789 
L 357.148091 187.364364 
L 357.874063 197.419493 
L 358.600035 194.343185 
L 359.326007 205.539945 
L 360.77795 185.46061 
L 361.503922 219.768931 
L 362.229893 194.289826 
L 362.955865 200.380809 
L 363.681837 197.255098 
L 364.407808 205.931769 
L 365.13378 194.745585 
L 365.859752 203.208181 
L 366.585724 209.564066 
L 367.311695 210.44039 
L 368.037667 204.011489 
L 368.763639 226.599442 
L 369.48961 183.978782 
L 370.215582 229.219934 
L 370.941554 215.64835 
L 371.667525 188.786447 
L 372.393497 210.601957 
L 373.119469 205.873873 
L 373.845441 202.114144 
L 374.571412 208.686068 
L 375.297384 224.839352 
L 376.023356 205.493629 
L 376.749327 193.04639 
L 377.475299 212.702725 
L 378.201271 226.497 
L 378.927242 211.149194 
L 379.653214 219.132928 
L 380.379186 221.126353 
L 381.105158 217.465537 
L 381.831129 217.073986 
L 382.557101 214.909405 
L 384.009044 233.868332 
L 384.735016 219.337613 
L 385.460988 221.123756 
L 386.18696 239.024635 
L 386.912931 223.769985 
L 387.638903 237.756287 
L 388.364875 227.585724 
L 389.090846 227.369233 
L 389.816818 238.19298 
L 390.54279 236.949427 
L 391.268761 230.542133 
L 391.994733 233.326137 
L 392.720705 234.989201 
L 393.446677 206.601321 
L 394.172648 221.829338 
L 394.89862 239.591776 
L 395.624592 218.648761 
L 396.350563 213.373493 
L 397.076535 200.198333 
L 397.802507 207.984975 
L 399.25445 205.380926 
L 399.980422 207.630636 
L 400.706394 213.889128 
L 401.432365 215.020067 
L 402.158337 227.72358 
L 402.884309 199.585796 
L 403.61028 206.582379 
L 404.336252 206.613739 
L 405.062224 204.761602 
L 405.788195 213.17933 
L 406.514167 202.886553 
L 407.240139 204.468687 
L 408.692082 232.989116 
L 409.418054 202.531639 
L 410.144026 227.22463 
L 410.869997 215.733441 
L 411.595969 218.514117 
L 412.321941 225.984686 
L 413.047913 211.115924 
L 413.773884 221.692028 
L 414.499856 224.165313 
L 415.225828 220.803169 
L 415.951799 219.137333 
L 416.677771 227.425834 
L 417.403743 224.179409 
L 418.129714 225.757418 
L 418.855686 227.961142 
L 419.581658 216.200332 
L 420.30763 225.948868 
L 421.033601 221.60795 
L 421.759573 238.192518 
L 422.485545 236.524368 
L 423.211516 238.053735 
L 423.937488 230.288383 
L 424.66346 237.746766 
L 425.389431 232.505751 
L 426.115403 238.101566 
L 426.841375 237.70644 
L 427.567347 242.54137 
L 428.293318 237.262411 
L 429.01929 243.491192 
L 429.745262 227.52678 
L 430.471233 241.013217 
L 431.197205 234.071554 
L 431.923177 234.312729 
L 432.649148 222.97728 
L 433.37512 237.665806 
L 434.101092 237.231914 
L 434.827064 229.340482 
L 435.553035 230.596856 
L 436.279007 229.291118 
L 437.004979 228.923636 
L 437.73095 226.799587 
L 438.456922 227.485866 
L 439.182894 227.05441 
L 439.908866 225.019047 
L 440.634837 223.773082 
L 441.360809 224.577811 
L 442.086781 223.684892 
L 442.812752 220.765992 
L 443.538724 222.496717 
L 444.264696 219.572319 
L 444.990667 218.884298 
L 445.716639 217.743423 
L 446.442611 217.280457 
L 447.168583 216.357215 
L 447.894554 215.858473 
L 448.620526 214.742826 
L 449.346498 214.654871 
L 450.072469 215.319335 
L 450.798441 213.685388 
L 451.524413 212.515969 
L 452.976356 210.769344 
L 453.702328 211.592802 
L 454.4283 210.711279 
L 455.154271 209.34202 
L 455.880243 209.021717 
L 456.606215 208.284429 
L 457.332186 208.49899 
L 458.058158 208.484597 
L 459.510101 207.343629 
L 461.688017 206.8031 
L 462.413988 206.518017 
L 463.13996 209.642505 
L 463.865932 207.076002 
L 464.591903 207.535487 
L 464.591903 207.535487 
" style="fill:none;stroke:#d62728;stroke-linecap:square;stroke-width:1.5;"/>
   </g>
   <g id="line2d_5">
    <path clip-path="url(#pe7ca99e2a9)" d="M 58.773722 218.4329 
L 464.591903 218.4329 
L 464.591903 218.4329 
" style="fill:none;stroke:#000000;stroke-dasharray:3.7,1.6;stroke-dashoffset:0;"/>
   </g>
   <g id="matplotlib.axis_1">
    <g id="xtick_1">
     <g id="line2d_6">
      <defs>
       <path d="M 0 0 
L 0 3.5 
" id="m236a521e3b" style="stroke:#000000;stroke-width:0.8;"/>
      </defs>
      <g>
       <use style="stroke:#000000;stroke-width:0.8;" x="79.826901" xlink:href="#m236a521e3b" y="293.784375"/>
      </g>
     </g>
     <g id="text_1">
      <!-- 100 -->
      <defs>
       <path d="M 12.40625 8.296875 
L 28.515625 8.296875 
L 28.515625 63.921875 
L 10.984375 60.40625 
L 10.984375 69.390625 
L 28.421875 72.90625 
L 38.28125 72.90625 
L 38.28125 8.296875 
L 54.390625 8.296875 
L 54.390625 0 
L 12.40625 0 
z
" id="DejaVuSans-49"/>
       <path d="M 31.78125 66.40625 
Q 24.171875 66.40625 20.328125 58.90625 
Q 16.5 51.421875 16.5 36.375 
Q 16.5 21.390625 20.328125 13.890625 
Q 24.171875 6.390625 31.78125 6.390625 
Q 39.453125 6.390625 43.28125 13.890625 
Q 47.125 21.390625 47.125 36.375 
Q 47.125 51.421875 43.28125 58.90625 
Q 39.453125 66.40625 31.78125 66.40625 
z
M 31.78125 74.21875 
Q 44.046875 74.21875 50.515625 64.515625 
Q 56.984375 54.828125 56.984375 36.375 
Q 56.984375 17.96875 50.515625 8.265625 
Q 44.046875 -1.421875 31.78125 -1.421875 
Q 19.53125 -1.421875 13.0625 8.265625 
Q 6.59375 17.96875 6.59375 36.375 
Q 6.59375 54.828125 13.0625 64.515625 
Q 19.53125 74.21875 31.78125 74.21875 
z
" id="DejaVuSans-48"/>
      </defs>
      <g transform="translate(70.283151 308.382812)scale(0.1 -0.1)">
       <use xlink:href="#DejaVuSans-49"/>
       <use x="63.623047" xlink:href="#DejaVuSans-48"/>
       <use x="127.246094" xlink:href="#DejaVuSans-48"/>
      </g>
     </g>
    </g>
    <g id="xtick_2">
     <g id="line2d_7">
      <g>
       <use style="stroke:#000000;stroke-width:0.8;" x="152.424071" xlink:href="#m236a521e3b" y="293.784375"/>
      </g>
     </g>
     <g id="text_2">
      <!-- 200 -->
      <defs>
       <path d="M 19.1875 8.296875 
L 53.609375 8.296875 
L 53.609375 0 
L 7.328125 0 
L 7.328125 8.296875 
Q 12.9375 14.109375 22.625 23.890625 
Q 32.328125 33.6875 34.8125 36.53125 
Q 39.546875 41.84375 41.421875 45.53125 
Q 43.3125 49.21875 43.3125 52.78125 
Q 43.3125 58.59375 39.234375 62.25 
Q 35.15625 65.921875 28.609375 65.921875 
Q 23.96875 65.921875 18.8125 64.3125 
Q 13.671875 62.703125 7.8125 59.421875 
L 7.8125 69.390625 
Q 13.765625 71.78125 18.9375 73 
Q 24.125 74.21875 28.421875 74.21875 
Q 39.75 74.21875 46.484375 68.546875 
Q 53.21875 62.890625 53.21875 53.421875 
Q 53.21875 48.921875 51.53125 44.890625 
Q 49.859375 40.875 45.40625 35.40625 
Q 44.1875 33.984375 37.640625 27.21875 
Q 31.109375 20.453125 19.1875 8.296875 
z
" id="DejaVuSans-50"/>
      </defs>
      <g transform="translate(142.880321 308.382812)scale(0.1 -0.1)">
       <use xlink:href="#DejaVuSans-50"/>
       <use x="63.623047" xlink:href="#DejaVuSans-48"/>
       <use x="127.246094" xlink:href="#DejaVuSans-48"/>
      </g>
     </g>
    </g>
    <g id="xtick_3">
     <g id="line2d_8">
      <g>
       <use style="stroke:#000000;stroke-width:0.8;" x="225.021242" xlink:href="#m236a521e3b" y="293.784375"/>
      </g>
     </g>
     <g id="text_3">
      <!-- 300 -->
      <defs>
       <path d="M 40.578125 39.3125 
Q 47.65625 37.796875 51.625 33 
Q 55.609375 28.21875 55.609375 21.1875 
Q 55.609375 10.40625 48.1875 4.484375 
Q 40.765625 -1.421875 27.09375 -1.421875 
Q 22.515625 -1.421875 17.65625 -0.515625 
Q 12.796875 0.390625 7.625 2.203125 
L 7.625 11.71875 
Q 11.71875 9.328125 16.59375 8.109375 
Q 21.484375 6.890625 26.8125 6.890625 
Q 36.078125 6.890625 40.9375 10.546875 
Q 45.796875 14.203125 45.796875 21.1875 
Q 45.796875 27.640625 41.28125 31.265625 
Q 36.765625 34.90625 28.71875 34.90625 
L 20.21875 34.90625 
L 20.21875 43.015625 
L 29.109375 43.015625 
Q 36.375 43.015625 40.234375 45.921875 
Q 44.09375 48.828125 44.09375 54.296875 
Q 44.09375 59.90625 40.109375 62.90625 
Q 36.140625 65.921875 28.71875 65.921875 
Q 24.65625 65.921875 20.015625 65.03125 
Q 15.375 64.15625 9.8125 62.3125 
L 9.8125 71.09375 
Q 15.4375 72.65625 20.34375 73.4375 
Q 25.25 74.21875 29.59375 74.21875 
Q 40.828125 74.21875 47.359375 69.109375 
Q 53.90625 64.015625 53.90625 55.328125 
Q 53.90625 49.265625 50.4375 45.09375 
Q 46.96875 40.921875 40.578125 39.3125 
z
" id="DejaVuSans-51"/>
      </defs>
      <g transform="translate(215.477492 308.382812)scale(0.1 -0.1)">
       <use xlink:href="#DejaVuSans-51"/>
       <use x="63.623047" xlink:href="#DejaVuSans-48"/>
       <use x="127.246094" xlink:href="#DejaVuSans-48"/>
      </g>
     </g>
    </g>
    <g id="xtick_4">
     <g id="line2d_9">
      <g>
       <use style="stroke:#000000;stroke-width:0.8;" x="297.618412" xlink:href="#m236a521e3b" y="293.784375"/>
      </g>
     </g>
     <g id="text_4">
      <!-- 400 -->
      <defs>
       <path d="M 37.796875 64.3125 
L 12.890625 25.390625 
L 37.796875 25.390625 
z
M 35.203125 72.90625 
L 47.609375 72.90625 
L 47.609375 25.390625 
L 58.015625 25.390625 
L 58.015625 17.1875 
L 47.609375 17.1875 
L 47.609375 0 
L 37.796875 0 
L 37.796875 17.1875 
L 4.890625 17.1875 
L 4.890625 26.703125 
z
" id="DejaVuSans-52"/>
      </defs>
      <g transform="translate(288.074662 308.382812)scale(0.1 -0.1)">
       <use xlink:href="#DejaVuSans-52"/>
       <use x="63.623047" xlink:href="#DejaVuSans-48"/>
       <use x="127.246094" xlink:href="#DejaVuSans-48"/>
      </g>
     </g>
    </g>
    <g id="xtick_5">
     <g id="line2d_10">
      <g>
       <use style="stroke:#000000;stroke-width:0.8;" x="370.215582" xlink:href="#m236a521e3b" y="293.784375"/>
      </g>
     </g>
     <g id="text_5">
      <!-- 500 -->
      <defs>
       <path d="M 10.796875 72.90625 
L 49.515625 72.90625 
L 49.515625 64.59375 
L 19.828125 64.59375 
L 19.828125 46.734375 
Q 21.96875 47.46875 24.109375 47.828125 
Q 26.265625 48.1875 28.421875 48.1875 
Q 40.625 48.1875 47.75 41.5 
Q 54.890625 34.8125 54.890625 23.390625 
Q 54.890625 11.625 47.5625 5.09375 
Q 40.234375 -1.421875 26.90625 -1.421875 
Q 22.3125 -1.421875 17.546875 -0.640625 
Q 12.796875 0.140625 7.71875 1.703125 
L 7.71875 11.625 
Q 12.109375 9.234375 16.796875 8.0625 
Q 21.484375 6.890625 26.703125 6.890625 
Q 35.15625 6.890625 40.078125 11.328125 
Q 45.015625 15.765625 45.015625 23.390625 
Q 45.015625 31 40.078125 35.4375 
Q 35.15625 39.890625 26.703125 39.890625 
Q 22.75 39.890625 18.8125 39.015625 
Q 14.890625 38.140625 10.796875 36.28125 
z
" id="DejaVuSans-53"/>
      </defs>
      <g transform="translate(360.671832 308.382812)scale(0.1 -0.1)">
       <use xlink:href="#DejaVuSans-53"/>
       <use x="63.623047" xlink:href="#DejaVuSans-48"/>
       <use x="127.246094" xlink:href="#DejaVuSans-48"/>
      </g>
     </g>
    </g>
    <g id="xtick_6">
     <g id="line2d_11">
      <g>
       <use style="stroke:#000000;stroke-width:0.8;" x="442.812752" xlink:href="#m236a521e3b" y="293.784375"/>
      </g>
     </g>
     <g id="text_6">
      <!-- 600 -->
      <defs>
       <path d="M 33.015625 40.375 
Q 26.375 40.375 22.484375 35.828125 
Q 18.609375 31.296875 18.609375 23.390625 
Q 18.609375 15.53125 22.484375 10.953125 
Q 26.375 6.390625 33.015625 6.390625 
Q 39.65625 6.390625 43.53125 10.953125 
Q 47.40625 15.53125 47.40625 23.390625 
Q 47.40625 31.296875 43.53125 35.828125 
Q 39.65625 40.375 33.015625 40.375 
z
M 52.59375 71.296875 
L 52.59375 62.3125 
Q 48.875 64.0625 45.09375 64.984375 
Q 41.3125 65.921875 37.59375 65.921875 
Q 27.828125 65.921875 22.671875 59.328125 
Q 17.53125 52.734375 16.796875 39.40625 
Q 19.671875 43.65625 24.015625 45.921875 
Q 28.375 48.1875 33.59375 48.1875 
Q 44.578125 48.1875 50.953125 41.515625 
Q 57.328125 34.859375 57.328125 23.390625 
Q 57.328125 12.15625 50.6875 5.359375 
Q 44.046875 -1.421875 33.015625 -1.421875 
Q 20.359375 -1.421875 13.671875 8.265625 
Q 6.984375 17.96875 6.984375 36.375 
Q 6.984375 53.65625 15.1875 63.9375 
Q 23.390625 74.21875 37.203125 74.21875 
Q 40.921875 74.21875 44.703125 73.484375 
Q 48.484375 72.75 52.59375 71.296875 
z
" id="DejaVuSans-54"/>
      </defs>
      <g transform="translate(433.269002 308.382812)scale(0.1 -0.1)">
       <use xlink:href="#DejaVuSans-54"/>
       <use x="63.623047" xlink:href="#DejaVuSans-48"/>
       <use x="127.246094" xlink:href="#DejaVuSans-48"/>
      </g>
     </g>
    </g>
    <g id="text_7">
     <!-- Tempo -->
     <defs>
      <path d="M -0.296875 72.90625 
L 61.375 72.90625 
L 61.375 64.59375 
L 35.5 64.59375 
L 35.5 0 
L 25.59375 0 
L 25.59375 64.59375 
L -0.296875 64.59375 
z
" id="DejaVuSans-84"/>
      <path d="M 56.203125 29.59375 
L 56.203125 25.203125 
L 14.890625 25.203125 
Q 15.484375 15.921875 20.484375 11.0625 
Q 25.484375 6.203125 34.421875 6.203125 
Q 39.59375 6.203125 44.453125 7.46875 
Q 49.3125 8.734375 54.109375 11.28125 
L 54.109375 2.78125 
Q 49.265625 0.734375 44.1875 -0.34375 
Q 39.109375 -1.421875 33.890625 -1.421875 
Q 20.796875 -1.421875 13.15625 6.1875 
Q 5.515625 13.8125 5.515625 26.8125 
Q 5.515625 40.234375 12.765625 48.109375 
Q 20.015625 56 32.328125 56 
Q 43.359375 56 49.78125 48.890625 
Q 56.203125 41.796875 56.203125 29.59375 
z
M 47.21875 32.234375 
Q 47.125 39.59375 43.09375 43.984375 
Q 39.0625 48.390625 32.421875 48.390625 
Q 24.90625 48.390625 20.390625 44.140625 
Q 15.875 39.890625 15.1875 32.171875 
z
" id="DejaVuSans-101"/>
      <path d="M 52 44.1875 
Q 55.375 50.25 60.0625 53.125 
Q 64.75 56 71.09375 56 
Q 79.640625 56 84.28125 50.015625 
Q 88.921875 44.046875 88.921875 33.015625 
L 88.921875 0 
L 79.890625 0 
L 79.890625 32.71875 
Q 79.890625 40.578125 77.09375 44.375 
Q 74.3125 48.1875 68.609375 48.1875 
Q 61.625 48.1875 57.5625 43.546875 
Q 53.515625 38.921875 53.515625 30.90625 
L 53.515625 0 
L 44.484375 0 
L 44.484375 32.71875 
Q 44.484375 40.625 41.703125 44.40625 
Q 38.921875 48.1875 33.109375 48.1875 
Q 26.21875 48.1875 22.15625 43.53125 
Q 18.109375 38.875 18.109375 30.90625 
L 18.109375 0 
L 9.078125 0 
L 9.078125 54.6875 
L 18.109375 54.6875 
L 18.109375 46.1875 
Q 21.1875 51.21875 25.484375 53.609375 
Q 29.78125 56 35.6875 56 
Q 41.65625 56 45.828125 52.96875 
Q 50 49.953125 52 44.1875 
z
" id="DejaVuSans-109"/>
      <path d="M 18.109375 8.203125 
L 18.109375 -20.796875 
L 9.078125 -20.796875 
L 9.078125 54.6875 
L 18.109375 54.6875 
L 18.109375 46.390625 
Q 20.953125 51.265625 25.265625 53.625 
Q 29.59375 56 35.59375 56 
Q 45.5625 56 51.78125 48.09375 
Q 58.015625 40.1875 58.015625 27.296875 
Q 58.015625 14.40625 51.78125 6.484375 
Q 45.5625 -1.421875 35.59375 -1.421875 
Q 29.59375 -1.421875 25.265625 0.953125 
Q 20.953125 3.328125 18.109375 8.203125 
z
M 48.6875 27.296875 
Q 48.6875 37.203125 44.609375 42.84375 
Q 40.53125 48.484375 33.40625 48.484375 
Q 26.265625 48.484375 22.1875 42.84375 
Q 18.109375 37.203125 18.109375 27.296875 
Q 18.109375 17.390625 22.1875 11.75 
Q 26.265625 6.109375 33.40625 6.109375 
Q 40.53125 6.109375 44.609375 11.75 
Q 48.6875 17.390625 48.6875 27.296875 
z
" id="DejaVuSans-112"/>
      <path d="M 30.609375 48.390625 
Q 23.390625 48.390625 19.1875 42.75 
Q 14.984375 37.109375 14.984375 27.296875 
Q 14.984375 17.484375 19.15625 11.84375 
Q 23.34375 6.203125 30.609375 6.203125 
Q 37.796875 6.203125 41.984375 11.859375 
Q 46.1875 17.53125 46.1875 27.296875 
Q 46.1875 37.015625 41.984375 42.703125 
Q 37.796875 48.390625 30.609375 48.390625 
z
M 30.609375 56 
Q 42.328125 56 49.015625 48.375 
Q 55.71875 40.765625 55.71875 27.296875 
Q 55.71875 13.875 49.015625 6.21875 
Q 42.328125 -1.421875 30.609375 -1.421875 
Q 18.84375 -1.421875 12.171875 6.21875 
Q 5.515625 13.875 5.515625 27.296875 
Q 5.515625 40.765625 12.171875 48.375 
Q 18.84375 56 30.609375 56 
z
" id="DejaVuSans-111"/>
     </defs>
     <g transform="translate(245.298438 322.060937)scale(0.1 -0.1)">
      <use xlink:href="#DejaVuSans-84"/>
      <use x="44.083984" xlink:href="#DejaVuSans-101"/>
      <use x="105.607422" xlink:href="#DejaVuSans-109"/>
      <use x="203.019531" xlink:href="#DejaVuSans-112"/>
      <use x="266.496094" xlink:href="#DejaVuSans-111"/>
     </g>
    </g>
   </g>
   <g id="matplotlib.axis_2">
    <g id="ytick_1">
     <g id="line2d_12">
      <defs>
       <path d="M 0 0 
L -3.5 0 
" id="mfd2d053688" style="stroke:#000000;stroke-width:0.8;"/>
      </defs>
      <g>
       <use style="stroke:#000000;stroke-width:0.8;" x="38.482813" xlink:href="#mfd2d053688" y="272.147208"/>
      </g>
     </g>
     <g id="text_8">
      <!-- 0.5 -->
      <defs>
       <path d="M 10.59375 35.5 
L 73.1875 35.5 
L 73.1875 27.203125 
L 10.59375 27.203125 
z
" id="DejaVuSans-8722"/>
       <path d="M 10.6875 12.40625 
L 21 12.40625 
L 21 0 
L 10.6875 0 
z
" id="DejaVuSans-46"/>
      </defs>
      <g transform="translate(7.2 275.946427)scale(0.1 -0.1)">
       <use xlink:href="#DejaVuSans-8722"/>
       <use x="83.789062" xlink:href="#DejaVuSans-48"/>
       <use x="147.412109" xlink:href="#DejaVuSans-46"/>
       <use x="179.199219" xlink:href="#DejaVuSans-53"/>
      </g>
     </g>
    </g>
    <g id="ytick_2">
     <g id="line2d_13">
      <g>
       <use style="stroke:#000000;stroke-width:0.8;" x="38.482813" xlink:href="#mfd2d053688" y="218.4329"/>
      </g>
     </g>
     <g id="text_9">
      <!-- 0.0 -->
      <g transform="translate(15.579688 222.232119)scale(0.1 -0.1)">
       <use xlink:href="#DejaVuSans-48"/>
       <use x="63.623047" xlink:href="#DejaVuSans-46"/>
       <use x="95.410156" xlink:href="#DejaVuSans-48"/>
      </g>
     </g>
    </g>
    <g id="ytick_3">
     <g id="line2d_14">
      <g>
       <use style="stroke:#000000;stroke-width:0.8;" x="38.482813" xlink:href="#mfd2d053688" y="164.718592"/>
      </g>
     </g>
     <g id="text_10">
      <!-- 0.5 -->
      <g transform="translate(15.579688 168.517811)scale(0.1 -0.1)">
       <use xlink:href="#DejaVuSans-48"/>
       <use x="63.623047" xlink:href="#DejaVuSans-46"/>
       <use x="95.410156" xlink:href="#DejaVuSans-53"/>
      </g>
     </g>
    </g>
    <g id="ytick_4">
     <g id="line2d_15">
      <g>
       <use style="stroke:#000000;stroke-width:0.8;" x="38.482813" xlink:href="#mfd2d053688" y="111.004285"/>
      </g>
     </g>
     <g id="text_11">
      <!-- 1.0 -->
      <g transform="translate(15.579688 114.803503)scale(0.1 -0.1)">
       <use xlink:href="#DejaVuSans-49"/>
       <use x="63.623047" xlink:href="#DejaVuSans-46"/>
       <use x="95.410156" xlink:href="#DejaVuSans-48"/>
      </g>
     </g>
    </g>
    <g id="ytick_5">
     <g id="line2d_16">
      <g>
       <use style="stroke:#000000;stroke-width:0.8;" x="38.482813" xlink:href="#mfd2d053688" y="57.289977"/>
      </g>
     </g>
     <g id="text_12">
      <!-- 1.5 -->
      <g transform="translate(15.579688 61.089196)scale(0.1 -0.1)">
       <use xlink:href="#DejaVuSans-49"/>
       <use x="63.623047" xlink:href="#DejaVuSans-46"/>
       <use x="95.410156" xlink:href="#DejaVuSans-53"/>
      </g>
     </g>
    </g>
   </g>
   <g id="patch_3">
    <path d="M 38.482813 293.784375 
L 38.482813 21.984375 
" style="fill:none;stroke:#000000;stroke-linecap:square;stroke-linejoin:miter;stroke-width:0.8;"/>
   </g>
   <g id="patch_4">
    <path d="M 38.482813 293.784375 
L 484.882812 293.784375 
" style="fill:none;stroke:#000000;stroke-linecap:square;stroke-linejoin:miter;stroke-width:0.8;"/>
   </g>
   <g id="text_13">
    <!-- u_t -->
    <defs>
     <path d="M 8.5 21.578125 
L 8.5 54.6875 
L 17.484375 54.6875 
L 17.484375 21.921875 
Q 17.484375 14.15625 20.5 10.265625 
Q 23.53125 6.390625 29.59375 6.390625 
Q 36.859375 6.390625 41.078125 11.03125 
Q 45.3125 15.671875 45.3125 23.6875 
L 45.3125 54.6875 
L 54.296875 54.6875 
L 54.296875 0 
L 45.3125 0 
L 45.3125 8.40625 
Q 42.046875 3.421875 37.71875 1 
Q 33.40625 -1.421875 27.6875 -1.421875 
Q 18.265625 -1.421875 13.375 4.4375 
Q 8.5 10.296875 8.5 21.578125 
z
M 31.109375 56 
z
" id="DejaVuSans-117"/>
     <path d="M 50.984375 -16.609375 
L 50.984375 -23.578125 
L -0.984375 -23.578125 
L -0.984375 -16.609375 
z
" id="DejaVuSans-95"/>
     <path d="M 18.3125 70.21875 
L 18.3125 54.6875 
L 36.8125 54.6875 
L 36.8125 47.703125 
L 18.3125 47.703125 
L 18.3125 18.015625 
Q 18.3125 11.328125 20.140625 9.421875 
Q 21.96875 7.515625 27.59375 7.515625 
L 36.8125 7.515625 
L 36.8125 0 
L 27.59375 0 
Q 17.1875 0 13.234375 3.875 
Q 9.28125 7.765625 9.28125 18.015625 
L 9.28125 47.703125 
L 2.6875 47.703125 
L 2.6875 54.6875 
L 9.28125 54.6875 
L 9.28125 70.21875 
z
" id="DejaVuSans-116"/>
    </defs>
    <g transform="translate(252.528125 15.984375)scale(0.12 -0.12)">
     <use xlink:href="#DejaVuSans-117"/>
     <use x="63.378906" xlink:href="#DejaVuSans-95"/>
     <use x="113.378906" xlink:href="#DejaVuSans-116"/>
    </g>
   </g>
   <g id="legend_1">
    <g id="patch_5">
     <path d="M 491.882812 196.079688 
L 625.442188 196.079688 
Q 627.442188 196.079688 627.442188 194.079688 
L 627.442188 121.689063 
Q 627.442188 119.689063 625.442188 119.689063 
L 491.882812 119.689063 
Q 489.882812 119.689063 489.882812 121.689063 
L 489.882812 194.079688 
Q 489.882812 196.079688 491.882812 196.079688 
z
" style="fill:#ffffff;opacity:0.8;stroke:#cccccc;stroke-linejoin:miter;"/>
    </g>
    <g id="line2d_17">
     <path d="M 493.882812 127.7875 
L 513.882812 127.7875 
" style="fill:none;stroke:#000000;stroke-dasharray:3.7,1.6;stroke-dashoffset:0;"/>
    </g>
    <g id="line2d_18"/>
    <g id="text_14">
     <!-- Baseline -->
     <defs>
      <path d="M 19.671875 34.8125 
L 19.671875 8.109375 
L 35.5 8.109375 
Q 43.453125 8.109375 47.28125 11.40625 
Q 51.125 14.703125 51.125 21.484375 
Q 51.125 28.328125 47.28125 31.5625 
Q 43.453125 34.8125 35.5 34.8125 
z
M 19.671875 64.796875 
L 19.671875 42.828125 
L 34.28125 42.828125 
Q 41.5 42.828125 45.03125 45.53125 
Q 48.578125 48.25 48.578125 53.8125 
Q 48.578125 59.328125 45.03125 62.0625 
Q 41.5 64.796875 34.28125 64.796875 
z
M 9.8125 72.90625 
L 35.015625 72.90625 
Q 46.296875 72.90625 52.390625 68.21875 
Q 58.5 63.53125 58.5 54.890625 
Q 58.5 48.1875 55.375 44.234375 
Q 52.25 40.28125 46.1875 39.3125 
Q 53.46875 37.75 57.5 32.78125 
Q 61.53125 27.828125 61.53125 20.40625 
Q 61.53125 10.640625 54.890625 5.3125 
Q 48.25 0 35.984375 0 
L 9.8125 0 
z
" id="DejaVuSans-66"/>
      <path d="M 34.28125 27.484375 
Q 23.390625 27.484375 19.1875 25 
Q 14.984375 22.515625 14.984375 16.5 
Q 14.984375 11.71875 18.140625 8.90625 
Q 21.296875 6.109375 26.703125 6.109375 
Q 34.1875 6.109375 38.703125 11.40625 
Q 43.21875 16.703125 43.21875 25.484375 
L 43.21875 27.484375 
z
M 52.203125 31.203125 
L 52.203125 0 
L 43.21875 0 
L 43.21875 8.296875 
Q 40.140625 3.328125 35.546875 0.953125 
Q 30.953125 -1.421875 24.3125 -1.421875 
Q 15.921875 -1.421875 10.953125 3.296875 
Q 6 8.015625 6 15.921875 
Q 6 25.140625 12.171875 29.828125 
Q 18.359375 34.515625 30.609375 34.515625 
L 43.21875 34.515625 
L 43.21875 35.40625 
Q 43.21875 41.609375 39.140625 45 
Q 35.0625 48.390625 27.6875 48.390625 
Q 23 48.390625 18.546875 47.265625 
Q 14.109375 46.140625 10.015625 43.890625 
L 10.015625 52.203125 
Q 14.9375 54.109375 19.578125 55.046875 
Q 24.21875 56 28.609375 56 
Q 40.484375 56 46.34375 49.84375 
Q 52.203125 43.703125 52.203125 31.203125 
z
" id="DejaVuSans-97"/>
      <path d="M 44.28125 53.078125 
L 44.28125 44.578125 
Q 40.484375 46.53125 36.375 47.5 
Q 32.28125 48.484375 27.875 48.484375 
Q 21.1875 48.484375 17.84375 46.4375 
Q 14.5 44.390625 14.5 40.28125 
Q 14.5 37.15625 16.890625 35.375 
Q 19.28125 33.59375 26.515625 31.984375 
L 29.59375 31.296875 
Q 39.15625 29.25 43.1875 25.515625 
Q 47.21875 21.78125 47.21875 15.09375 
Q 47.21875 7.46875 41.1875 3.015625 
Q 35.15625 -1.421875 24.609375 -1.421875 
Q 20.21875 -1.421875 15.453125 -0.5625 
Q 10.6875 0.296875 5.421875 2 
L 5.421875 11.28125 
Q 10.40625 8.6875 15.234375 7.390625 
Q 20.0625 6.109375 24.8125 6.109375 
Q 31.15625 6.109375 34.5625 8.28125 
Q 37.984375 10.453125 37.984375 14.40625 
Q 37.984375 18.0625 35.515625 20.015625 
Q 33.0625 21.96875 24.703125 23.78125 
L 21.578125 24.515625 
Q 13.234375 26.265625 9.515625 29.90625 
Q 5.8125 33.546875 5.8125 39.890625 
Q 5.8125 47.609375 11.28125 51.796875 
Q 16.75 56 26.8125 56 
Q 31.78125 56 36.171875 55.265625 
Q 40.578125 54.546875 44.28125 53.078125 
z
" id="DejaVuSans-115"/>
      <path d="M 9.421875 75.984375 
L 18.40625 75.984375 
L 18.40625 0 
L 9.421875 0 
z
" id="DejaVuSans-108"/>
      <path d="M 9.421875 54.6875 
L 18.40625 54.6875 
L 18.40625 0 
L 9.421875 0 
z
M 9.421875 75.984375 
L 18.40625 75.984375 
L 18.40625 64.59375 
L 9.421875 64.59375 
z
" id="DejaVuSans-105"/>
      <path d="M 54.890625 33.015625 
L 54.890625 0 
L 45.90625 0 
L 45.90625 32.71875 
Q 45.90625 40.484375 42.875 44.328125 
Q 39.84375 48.1875 33.796875 48.1875 
Q 26.515625 48.1875 22.3125 43.546875 
Q 18.109375 38.921875 18.109375 30.90625 
L 18.109375 0 
L 9.078125 0 
L 9.078125 54.6875 
L 18.109375 54.6875 
L 18.109375 46.1875 
Q 21.34375 51.125 25.703125 53.5625 
Q 30.078125 56 35.796875 56 
Q 45.21875 56 50.046875 50.171875 
Q 54.890625 44.34375 54.890625 33.015625 
z
" id="DejaVuSans-110"/>
     </defs>
     <g transform="translate(521.882812 131.2875)scale(0.1 -0.1)">
      <use xlink:href="#DejaVuSans-66"/>
      <use x="68.603516" xlink:href="#DejaVuSans-97"/>
      <use x="129.882812" xlink:href="#DejaVuSans-115"/>
      <use x="181.982422" xlink:href="#DejaVuSans-101"/>
      <use x="243.505859" xlink:href="#DejaVuSans-108"/>
      <use x="271.289062" xlink:href="#DejaVuSans-105"/>
      <use x="299.072266" xlink:href="#DejaVuSans-110"/>
      <use x="362.451172" xlink:href="#DejaVuSans-101"/>
     </g>
    </g>
    <g id="line2d_19">
     <path d="M 493.882812 142.465625 
L 513.882812 142.465625 
" style="fill:none;stroke:#1f77b4;stroke-linecap:square;stroke-width:1.5;"/>
    </g>
    <g id="line2d_20"/>
    <g id="text_15">
     <!-- $\Uparrow$ acesso crdito -->
     <defs>
      <path d="M 36.765625 58.59375 
L 36.765625 0 
L 30.90625 0 
L 30.90625 52.734375 
L 26.421875 48.140625 
L 20.5625 54 
L 39.703125 73.25 
L 44.09375 73.25 
L 63.328125 54 
L 57.46875 48.140625 
L 52.875 52.734375 
L 52.875 0 
L 47.015625 0 
L 47.015625 58.59375 
L 41.9375 63.671875 
z
" id="DejaVuSans-8657"/>
      <path id="DejaVuSans-32"/>
      <path d="M 48.78125 52.59375 
L 48.78125 44.1875 
Q 44.96875 46.296875 41.140625 47.34375 
Q 37.3125 48.390625 33.40625 48.390625 
Q 24.65625 48.390625 19.8125 42.84375 
Q 14.984375 37.3125 14.984375 27.296875 
Q 14.984375 17.28125 19.8125 11.734375 
Q 24.65625 6.203125 33.40625 6.203125 
Q 37.3125 6.203125 41.140625 7.25 
Q 44.96875 8.296875 48.78125 10.40625 
L 48.78125 2.09375 
Q 45.015625 0.34375 40.984375 -0.53125 
Q 36.96875 -1.421875 32.421875 -1.421875 
Q 20.0625 -1.421875 12.78125 6.34375 
Q 5.515625 14.109375 5.515625 27.296875 
Q 5.515625 40.671875 12.859375 48.328125 
Q 20.21875 56 33.015625 56 
Q 37.15625 56 41.109375 55.140625 
Q 45.0625 54.296875 48.78125 52.59375 
z
" id="DejaVuSans-99"/>
      <path d="M 41.109375 46.296875 
Q 39.59375 47.171875 37.8125 47.578125 
Q 36.03125 48 33.890625 48 
Q 26.265625 48 22.1875 43.046875 
Q 18.109375 38.09375 18.109375 28.8125 
L 18.109375 0 
L 9.078125 0 
L 9.078125 54.6875 
L 18.109375 54.6875 
L 18.109375 46.1875 
Q 20.953125 51.171875 25.484375 53.578125 
Q 30.03125 56 36.53125 56 
Q 37.453125 56 38.578125 55.875 
Q 39.703125 55.765625 41.0625 55.515625 
z
" id="DejaVuSans-114"/>
      <path d="M 56.203125 29.59375 
L 56.203125 25.203125 
L 14.890625 25.203125 
Q 15.484375 15.921875 20.484375 11.0625 
Q 25.484375 6.203125 34.421875 6.203125 
Q 39.59375 6.203125 44.453125 7.46875 
Q 49.3125 8.734375 54.109375 11.28125 
L 54.109375 2.78125 
Q 49.265625 0.734375 44.1875 -0.34375 
Q 39.109375 -1.421875 33.890625 -1.421875 
Q 20.796875 -1.421875 13.15625 6.1875 
Q 5.515625 13.8125 5.515625 26.8125 
Q 5.515625 40.234375 12.765625 48.109375 
Q 20.015625 56 32.328125 56 
Q 43.359375 56 49.78125 48.890625 
Q 56.203125 41.796875 56.203125 29.59375 
z
M 47.21875 32.234375 
Q 47.125 39.59375 43.09375 43.984375 
Q 39.0625 48.390625 32.421875 48.390625 
Q 24.90625 48.390625 20.390625 44.140625 
Q 15.875 39.890625 15.1875 32.171875 
z
M 38.53125 79.984375 
L 48.25 79.984375 
L 32.34375 61.625 
L 24.859375 61.625 
z
" id="DejaVuSans-233"/>
      <path d="M 45.40625 46.390625 
L 45.40625 75.984375 
L 54.390625 75.984375 
L 54.390625 0 
L 45.40625 0 
L 45.40625 8.203125 
Q 42.578125 3.328125 38.25 0.953125 
Q 33.9375 -1.421875 27.875 -1.421875 
Q 17.96875 -1.421875 11.734375 6.484375 
Q 5.515625 14.40625 5.515625 27.296875 
Q 5.515625 40.1875 11.734375 48.09375 
Q 17.96875 56 27.875 56 
Q 33.9375 56 38.25 53.625 
Q 42.578125 51.265625 45.40625 46.390625 
z
M 14.796875 27.296875 
Q 14.796875 17.390625 18.875 11.75 
Q 22.953125 6.109375 30.078125 6.109375 
Q 37.203125 6.109375 41.296875 11.75 
Q 45.40625 17.390625 45.40625 27.296875 
Q 45.40625 37.203125 41.296875 42.84375 
Q 37.203125 48.484375 30.078125 48.484375 
Q 22.953125 48.484375 18.875 42.84375 
Q 14.796875 37.203125 14.796875 27.296875 
z
" id="DejaVuSans-100"/>
     </defs>
     <g transform="translate(521.882812 145.965625)scale(0.1 -0.1)">
      <use transform="translate(19.482422 0.015625)" xlink:href="#DejaVuSans-8657"/>
      <use transform="translate(122.753906 0.015625)" xlink:href="#DejaVuSans-32"/>
      <use transform="translate(154.541016 0.015625)" xlink:href="#DejaVuSans-97"/>
      <use transform="translate(215.820312 0.015625)" xlink:href="#DejaVuSans-99"/>
      <use transform="translate(270.800781 0.015625)" xlink:href="#DejaVuSans-101"/>
      <use transform="translate(332.324219 0.015625)" xlink:href="#DejaVuSans-115"/>
      <use transform="translate(384.423828 0.015625)" xlink:href="#DejaVuSans-115"/>
      <use transform="translate(436.523438 0.015625)" xlink:href="#DejaVuSans-111"/>
      <use transform="translate(497.705078 0.015625)" xlink:href="#DejaVuSans-32"/>
      <use transform="translate(529.492188 0.015625)" xlink:href="#DejaVuSans-99"/>
      <use transform="translate(584.472656 0.015625)" xlink:href="#DejaVuSans-114"/>
      <use transform="translate(625.585938 0.015625)" xlink:href="#DejaVuSans-233"/>
      <use transform="translate(687.109375 0.015625)" xlink:href="#DejaVuSans-100"/>
      <use transform="translate(750.585938 0.015625)" xlink:href="#DejaVuSans-105"/>
      <use transform="translate(778.369141 0.015625)" xlink:href="#DejaVuSans-116"/>
      <use transform="translate(817.578125 0.015625)" xlink:href="#DejaVuSans-111"/>
     </g>
    </g>
    <g id="line2d_21">
     <path d="M 493.882812 157.14375 
L 513.882812 157.14375 
" style="fill:none;stroke:#ff7f0e;stroke-linecap:square;stroke-width:1.5;"/>
    </g>
    <g id="line2d_22"/>
    <g id="text_16">
     <!-- Sem renda bsica -->
     <defs>
      <path d="M 53.515625 70.515625 
L 53.515625 60.890625 
Q 47.90625 63.578125 42.921875 64.890625 
Q 37.9375 66.21875 33.296875 66.21875 
Q 25.25 66.21875 20.875 63.09375 
Q 16.5 59.96875 16.5 54.203125 
Q 16.5 49.359375 19.40625 46.890625 
Q 22.3125 44.4375 30.421875 42.921875 
L 36.375 41.703125 
Q 47.40625 39.59375 52.65625 34.296875 
Q 57.90625 29 57.90625 20.125 
Q 57.90625 9.515625 50.796875 4.046875 
Q 43.703125 -1.421875 29.984375 -1.421875 
Q 24.8125 -1.421875 18.96875 -0.25 
Q 13.140625 0.921875 6.890625 3.21875 
L 6.890625 13.375 
Q 12.890625 10.015625 18.65625 8.296875 
Q 24.421875 6.59375 29.984375 6.59375 
Q 38.421875 6.59375 43.015625 9.90625 
Q 47.609375 13.234375 47.609375 19.390625 
Q 47.609375 24.75 44.3125 27.78125 
Q 41.015625 30.8125 33.5 32.328125 
L 27.484375 33.5 
Q 16.453125 35.6875 11.515625 40.375 
Q 6.59375 45.0625 6.59375 53.421875 
Q 6.59375 63.09375 13.40625 68.65625 
Q 20.21875 74.21875 32.171875 74.21875 
Q 37.3125 74.21875 42.625 73.28125 
Q 47.953125 72.359375 53.515625 70.515625 
z
" id="DejaVuSans-83"/>
      <path d="M 48.6875 27.296875 
Q 48.6875 37.203125 44.609375 42.84375 
Q 40.53125 48.484375 33.40625 48.484375 
Q 26.265625 48.484375 22.1875 42.84375 
Q 18.109375 37.203125 18.109375 27.296875 
Q 18.109375 17.390625 22.1875 11.75 
Q 26.265625 6.109375 33.40625 6.109375 
Q 40.53125 6.109375 44.609375 11.75 
Q 48.6875 17.390625 48.6875 27.296875 
z
M 18.109375 46.390625 
Q 20.953125 51.265625 25.265625 53.625 
Q 29.59375 56 35.59375 56 
Q 45.5625 56 51.78125 48.09375 
Q 58.015625 40.1875 58.015625 27.296875 
Q 58.015625 14.40625 51.78125 6.484375 
Q 45.5625 -1.421875 35.59375 -1.421875 
Q 29.59375 -1.421875 25.265625 0.953125 
Q 20.953125 3.328125 18.109375 8.203125 
L 18.109375 0 
L 9.078125 0 
L 9.078125 75.984375 
L 18.109375 75.984375 
z
" id="DejaVuSans-98"/>
      <path d="M 34.28125 27.484375 
Q 23.390625 27.484375 19.1875 25 
Q 14.984375 22.515625 14.984375 16.5 
Q 14.984375 11.71875 18.140625 8.90625 
Q 21.296875 6.109375 26.703125 6.109375 
Q 34.1875 6.109375 38.703125 11.40625 
Q 43.21875 16.703125 43.21875 25.484375 
L 43.21875 27.484375 
z
M 52.203125 31.203125 
L 52.203125 0 
L 43.21875 0 
L 43.21875 8.296875 
Q 40.140625 3.328125 35.546875 0.953125 
Q 30.953125 -1.421875 24.3125 -1.421875 
Q 15.921875 -1.421875 10.953125 3.296875 
Q 6 8.015625 6 15.921875 
Q 6 25.140625 12.171875 29.828125 
Q 18.359375 34.515625 30.609375 34.515625 
L 43.21875 34.515625 
L 43.21875 35.40625 
Q 43.21875 41.609375 39.140625 45 
Q 35.0625 48.390625 27.6875 48.390625 
Q 23 48.390625 18.546875 47.265625 
Q 14.109375 46.140625 10.015625 43.890625 
L 10.015625 52.203125 
Q 14.9375 54.109375 19.578125 55.046875 
Q 24.21875 56 28.609375 56 
Q 40.484375 56 46.34375 49.84375 
Q 52.203125 43.703125 52.203125 31.203125 
z
M 35.78125 79.984375 
L 45.5 79.984375 
L 29.59375 61.625 
L 22.109375 61.625 
z
" id="DejaVuSans-225"/>
     </defs>
     <g transform="translate(521.882812 160.64375)scale(0.1 -0.1)">
      <use xlink:href="#DejaVuSans-83"/>
      <use x="63.476562" xlink:href="#DejaVuSans-101"/>
      <use x="125" xlink:href="#DejaVuSans-109"/>
      <use x="222.412109" xlink:href="#DejaVuSans-32"/>
      <use x="254.199219" xlink:href="#DejaVuSans-114"/>
      <use x="293.0625" xlink:href="#DejaVuSans-101"/>
      <use x="354.585938" xlink:href="#DejaVuSans-110"/>
      <use x="417.964844" xlink:href="#DejaVuSans-100"/>
      <use x="481.441406" xlink:href="#DejaVuSans-97"/>
      <use x="542.720703" xlink:href="#DejaVuSans-32"/>
      <use x="574.507812" xlink:href="#DejaVuSans-98"/>
      <use x="637.984375" xlink:href="#DejaVuSans-225"/>
      <use x="699.263672" xlink:href="#DejaVuSans-115"/>
      <use x="751.363281" xlink:href="#DejaVuSans-105"/>
      <use x="779.146484" xlink:href="#DejaVuSans-99"/>
      <use x="834.126953" xlink:href="#DejaVuSans-97"/>
     </g>
    </g>
    <g id="line2d_23">
     <path d="M 493.882812 171.821875 
L 513.882812 171.821875 
" style="fill:none;stroke:#2ca02c;stroke-linecap:square;stroke-width:1.5;"/>
    </g>
    <g id="line2d_24"/>
    <g id="text_17">
     <!-- $\Uparrow$ salrio mnimo -->
     <defs>
      <path d="M 20.65625 79.984375 
L 30.375 79.984375 
L 14.46875 61.625 
L 6.984375 61.625 
z
M 9.421875 54.6875 
L 18.40625 54.6875 
L 18.40625 0 
L 9.421875 0 
z
M 13.921875 56 
z
" id="DejaVuSans-237"/>
     </defs>
     <g transform="translate(521.882812 175.321875)scale(0.1 -0.1)">
      <use transform="translate(19.482422 0.015625)" xlink:href="#DejaVuSans-8657"/>
      <use transform="translate(122.753906 0.015625)" xlink:href="#DejaVuSans-32"/>
      <use transform="translate(154.541016 0.015625)" xlink:href="#DejaVuSans-115"/>
      <use transform="translate(206.640625 0.015625)" xlink:href="#DejaVuSans-97"/>
      <use transform="translate(267.919922 0.015625)" xlink:href="#DejaVuSans-108"/>
      <use transform="translate(295.703125 0.015625)" xlink:href="#DejaVuSans-225"/>
      <use transform="translate(356.982422 0.015625)" xlink:href="#DejaVuSans-114"/>
      <use transform="translate(398.095703 0.015625)" xlink:href="#DejaVuSans-105"/>
      <use transform="translate(425.878906 0.015625)" xlink:href="#DejaVuSans-111"/>
      <use transform="translate(487.060547 0.015625)" xlink:href="#DejaVuSans-32"/>
      <use transform="translate(518.847656 0.015625)" xlink:href="#DejaVuSans-109"/>
      <use transform="translate(616.259766 0.015625)" xlink:href="#DejaVuSans-237"/>
      <use transform="translate(644.042969 0.015625)" xlink:href="#DejaVuSans-110"/>
      <use transform="translate(707.421875 0.015625)" xlink:href="#DejaVuSans-105"/>
      <use transform="translate(735.205078 0.015625)" xlink:href="#DejaVuSans-109"/>
      <use transform="translate(832.617188 0.015625)" xlink:href="#DejaVuSans-111"/>
     </g>
    </g>
    <g id="line2d_25">
     <path d="M 493.882812 186.5 
L 513.882812 186.5 
" style="fill:none;stroke:#d62728;stroke-linecap:square;stroke-width:1.5;"/>
    </g>
    <g id="line2d_26"/>
    <g id="text_18">
     <!-- Imposto progressivo -->
     <defs>
      <path d="M 9.8125 72.90625 
L 19.671875 72.90625 
L 19.671875 0 
L 9.8125 0 
z
" id="DejaVuSans-73"/>
      <path d="M 45.40625 27.984375 
Q 45.40625 37.75 41.375 43.109375 
Q 37.359375 48.484375 30.078125 48.484375 
Q 22.859375 48.484375 18.828125 43.109375 
Q 14.796875 37.75 14.796875 27.984375 
Q 14.796875 18.265625 18.828125 12.890625 
Q 22.859375 7.515625 30.078125 7.515625 
Q 37.359375 7.515625 41.375 12.890625 
Q 45.40625 18.265625 45.40625 27.984375 
z
M 54.390625 6.78125 
Q 54.390625 -7.171875 48.1875 -13.984375 
Q 42 -20.796875 29.203125 -20.796875 
Q 24.46875 -20.796875 20.265625 -20.09375 
Q 16.0625 -19.390625 12.109375 -17.921875 
L 12.109375 -9.1875 
Q 16.0625 -11.328125 19.921875 -12.34375 
Q 23.78125 -13.375 27.78125 -13.375 
Q 36.625 -13.375 41.015625 -8.765625 
Q 45.40625 -4.15625 45.40625 5.171875 
L 45.40625 9.625 
Q 42.625 4.78125 38.28125 2.390625 
Q 33.9375 0 27.875 0 
Q 17.828125 0 11.671875 7.65625 
Q 5.515625 15.328125 5.515625 27.984375 
Q 5.515625 40.671875 11.671875 48.328125 
Q 17.828125 56 27.875 56 
Q 33.9375 56 38.28125 53.609375 
Q 42.625 51.21875 45.40625 46.390625 
L 45.40625 54.6875 
L 54.390625 54.6875 
z
" id="DejaVuSans-103"/>
      <path d="M 2.984375 54.6875 
L 12.5 54.6875 
L 29.59375 8.796875 
L 46.6875 54.6875 
L 56.203125 54.6875 
L 35.6875 0 
L 23.484375 0 
z
" id="DejaVuSans-118"/>
     </defs>
     <g transform="translate(521.882812 190)scale(0.1 -0.1)">
      <use xlink:href="#DejaVuSans-73"/>
      <use x="29.492188" xlink:href="#DejaVuSans-109"/>
      <use x="126.904297" xlink:href="#DejaVuSans-112"/>
      <use x="190.380859" xlink:href="#DejaVuSans-111"/>
      <use x="251.5625" xlink:href="#DejaVuSans-115"/>
      <use x="303.662109" xlink:href="#DejaVuSans-116"/>
      <use x="342.871094" xlink:href="#DejaVuSans-111"/>
      <use x="404.052734" xlink:href="#DejaVuSans-32"/>
      <use x="435.839844" xlink:href="#DejaVuSans-112"/>
      <use x="499.316406" xlink:href="#DejaVuSans-114"/>
      <use x="538.179688" xlink:href="#DejaVuSans-111"/>
      <use x="599.361328" xlink:href="#DejaVuSans-103"/>
      <use x="662.837891" xlink:href="#DejaVuSans-114"/>
      <use x="701.701172" xlink:href="#DejaVuSans-101"/>
      <use x="763.224609" xlink:href="#DejaVuSans-115"/>
      <use x="815.324219" xlink:href="#DejaVuSans-115"/>
      <use x="867.423828" xlink:href="#DejaVuSans-105"/>
      <use x="895.207031" xlink:href="#DejaVuSans-118"/>
      <use x="954.386719" xlink:href="#DejaVuSans-111"/>
     </g>
    </g>
   </g>
  </g>
 </g>
 <defs>
  <clipPath id="pe7ca99e2a9">
   <rect height="271.8" width="446.4" x="38.482813" y="21.984375"/>
  </clipPath>
 </defs>
</svg>
