<?xml version="1.0" encoding="utf-8" standalone="no"?>
<!DOCTYPE svg PUBLIC "-//W3C//DTD SVG 1.1//EN"
  "http://www.w3.org/Graphics/SVG/1.1/DTD/svg11.dtd">
<!-- Created with matplotlib (https://matplotlib.org/) -->
<svg height="331.674375pt" version="1.1" viewBox="0 0 640.975 331.674375" width="640.975pt" xmlns="http://www.w3.org/2000/svg" xmlns:xlink="http://www.w3.org/1999/xlink">
 <defs>
  <style type="text/css">
*{stroke-linecap:butt;stroke-linejoin:round;}
  </style>
 </defs>
 <g id="figure_1">
  <g id="patch_1">
   <path d="M 0 331.674375 
L 640.975 331.674375 
L 640.975 0 
L 0 0 
z
" style="fill:#ffffff;"/>
  </g>
  <g id="axes_1">
   <g id="patch_2">
    <path d="M 39.65 294.118125 
L 486.05 294.118125 
L 486.05 22.318125 
L 39.65 22.318125 
z
" style="fill:#ffffff;"/>
   </g>
   <g id="line2d_1">
    <path clip-path="url(#p428b697a0b)" d="M 59.940909 82.345098 
L 60.666881 83.095392 
L 61.392852 83.683519 
L 62.118824 84.802569 
L 62.844796 84.916261 
L 63.570768 86.302099 
L 64.296739 86.526009 
L 65.022711 87.113964 
L 65.748683 88.301305 
L 66.474654 88.627433 
L 67.200626 89.336026 
L 67.926598 90.291966 
L 68.65257 91.889843 
L 69.378541 92.255826 
L 70.104513 93.360556 
L 70.830485 95.245911 
L 71.556456 96.25268 
L 73.734371 100.167277 
L 75.186315 104.150454 
L 77.36423 110.978876 
L 78.090202 112.279724 
L 79.542145 116.808959 
L 80.268117 118.479627 
L 81.72006 123.034162 
L 83.172004 126.549576 
L 84.623947 131.236339 
L 85.349919 133.353065 
L 86.801862 136.842917 
L 89.705749 143.646551 
L 92.609636 149.555886 
L 95.513523 154.90679 
L 96.239494 156.117781 
L 96.965466 157.700265 
L 98.417409 159.992567 
L 99.869353 163.034307 
L 100.595324 164.131312 
L 103.499211 169.825773 
L 104.225183 170.840542 
L 106.403098 174.921772 
L 107.12907 175.621735 
L 108.581013 178.237845 
L 109.306985 179.024492 
L 110.758928 181.259009 
L 112.210872 183.981263 
L 112.936843 184.732493 
L 115.84073 189.262905 
L 116.566702 190.206572 
L 117.292674 190.525284 
L 118.018645 191.24139 
L 118.744617 191.76459 
L 120.19656 193.635953 
L 120.922532 193.703642 
L 121.648504 194.608399 
L 122.374476 194.416211 
L 123.100447 194.644545 
L 123.826419 195.137178 
L 124.552391 194.727513 
L 126.730306 195.824022 
L 127.456277 195.256645 
L 128.182249 195.549341 
L 128.908221 195.035857 
L 129.634193 195.502228 
L 130.360164 195.796071 
L 131.086136 196.228488 
L 131.812108 195.731725 
L 132.538079 195.421967 
L 133.264051 195.540322 
L 133.990023 194.610513 
L 134.715994 194.004531 
L 135.441966 193.818248 
L 137.619881 194.045456 
L 138.345853 192.779296 
L 139.071825 192.609093 
L 139.797796 191.304866 
L 140.523768 190.968631 
L 142.701683 190.648255 
L 143.427655 189.513013 
L 144.153627 189.421488 
L 146.331542 185.994517 
L 147.057513 185.621277 
L 147.783485 184.745641 
L 148.509457 184.141131 
L 149.235429 183.800372 
L 149.9614 181.986082 
L 150.687372 181.806775 
L 151.413344 180.000201 
L 152.139315 179.061095 
L 152.865287 178.629256 
L 153.591259 178.508149 
L 154.31723 178.00314 
L 155.043202 177.984943 
L 155.769174 176.484931 
L 156.495146 175.977635 
L 157.221117 175.222032 
L 159.399032 174.806461 
L 160.125004 173.023068 
L 160.850976 172.704332 
L 162.302919 170.385678 
L 163.028891 169.463402 
L 164.480834 169.0505 
L 165.206806 168.311307 
L 165.932778 168.204892 
L 166.658749 166.678589 
L 167.384721 165.628099 
L 168.110693 164.374476 
L 169.562636 164.439465 
L 170.288608 164.201852 
L 171.01458 164.24253 
L 171.740551 164.171395 
L 172.466523 164.358059 
L 173.192495 163.237656 
L 173.918466 163.257825 
L 174.644438 163.035065 
L 176.096382 163.977094 
L 177.548325 165.147053 
L 178.274297 164.459473 
L 179.000268 164.88761 
L 179.72624 164.353298 
L 181.178183 165.60645 
L 181.904155 165.768519 
L 182.630127 165.378597 
L 183.356099 165.842878 
L 184.08207 165.097971 
L 184.808042 165.608715 
L 185.534014 164.772559 
L 186.259985 165.208565 
L 186.985957 165.478331 
L 187.711929 164.953328 
L 188.4379 164.961542 
L 189.889844 163.902916 
L 190.615816 163.617904 
L 191.341787 163.547587 
L 192.067759 163.779406 
L 192.793731 162.989208 
L 193.519702 163.389977 
L 194.245674 163.319842 
L 194.971646 163.680415 
L 196.423589 164.648979 
L 197.149561 163.828176 
L 198.601504 165.205301 
L 199.327476 164.568426 
L 200.053448 164.67671 
L 200.779419 165.04717 
L 202.957335 167.005648 
L 203.683306 167.735423 
L 204.409278 168.675129 
L 205.13525 169.214108 
L 205.861221 168.94058 
L 207.313165 170.832625 
L 208.039136 171.713981 
L 208.765108 171.634072 
L 210.217052 172.222479 
L 210.943023 172.063891 
L 211.668995 172.724834 
L 212.394967 172.671167 
L 213.120938 172.85336 
L 213.84691 173.649034 
L 214.572882 172.667191 
L 216.750797 174.722923 
L 217.476769 174.682044 
L 218.20274 174.804734 
L 218.928712 174.459903 
L 219.654684 174.324024 
L 221.106627 173.553948 
L 222.55857 172.348634 
L 224.736486 172.538838 
L 225.462457 171.750264 
L 226.188429 171.961394 
L 226.914401 171.863625 
L 228.366344 170.551749 
L 229.818288 170.986615 
L 230.544259 170.193678 
L 231.996203 169.120909 
L 234.174118 166.192597 
L 234.900089 165.756021 
L 235.626061 165.785037 
L 236.352033 164.257236 
L 237.078005 163.533819 
L 238.529948 162.678868 
L 239.25592 162.244574 
L 240.707863 161.865351 
L 241.433835 161.869348 
L 242.159806 162.238987 
L 243.61175 160.636105 
L 245.063693 159.307904 
L 245.789665 159.444992 
L 246.515637 159.338948 
L 247.96758 159.53425 
L 248.693552 158.565217 
L 249.419523 158.067304 
L 250.145495 157.02967 
L 250.871467 157.040239 
L 251.597439 155.858206 
L 252.32341 156.076364 
L 253.049382 155.791114 
L 253.775354 155.994103 
L 254.501325 156.075749 
L 255.227297 155.034248 
L 255.953269 154.581402 
L 256.679241 153.87245 
L 257.405212 153.423885 
L 258.131184 152.319497 
L 258.857156 151.68143 
L 260.309099 149.730863 
L 261.035071 149.514577 
L 261.761042 148.554294 
L 263.212986 147.271806 
L 263.938958 146.112844 
L 266.116873 145.361423 
L 266.842844 145.348268 
L 267.568816 144.485666 
L 268.294788 144.528088 
L 269.020759 144.717587 
L 269.746731 144.599593 
L 270.472703 144.889532 
L 271.198675 145.056814 
L 271.924646 145.747815 
L 272.650618 145.95555 
L 273.37659 145.512371 
L 274.102561 145.57287 
L 274.828533 146.219761 
L 275.554505 145.895544 
L 276.280477 146.557092 
L 277.006448 146.248056 
L 278.458392 147.715175 
L 279.184363 148.553712 
L 279.910335 148.414966 
L 281.362278 149.267086 
L 282.08825 149.452333 
L 282.814222 150.39793 
L 283.540194 151.112328 
L 284.266165 152.099026 
L 284.992137 152.889526 
L 287.170052 153.79058 
L 288.621995 153.876489 
L 289.347967 154.404702 
L 290.073939 154.059902 
L 290.799911 154.655522 
L 291.525882 154.300076 
L 292.251854 154.926793 
L 293.703797 155.768612 
L 294.429769 156.473039 
L 295.155741 156.008303 
L 295.881712 156.603884 
L 296.607684 156.175543 
L 297.333656 156.640784 
L 298.059628 156.931604 
L 300.237543 159.000099 
L 300.963514 158.845229 
L 301.689486 158.888567 
L 302.415458 159.52747 
L 303.14143 159.014869 
L 303.867401 158.897903 
L 304.593373 159.256768 
L 306.045316 159.569071 
L 306.771288 159.962358 
L 307.49726 159.615409 
L 308.223231 159.506593 
L 309.675175 159.836424 
L 310.401147 159.422467 
L 311.127118 159.679695 
L 311.85309 159.153994 
L 312.579062 159.290799 
L 313.305033 158.685362 
L 314.031005 158.887506 
L 314.756977 159.286144 
L 315.482948 159.395353 
L 316.20892 159.953351 
L 316.934892 160.349092 
L 317.660864 159.758156 
L 318.386835 159.668443 
L 319.112807 158.86562 
L 319.838779 158.49451 
L 320.56475 157.977324 
L 321.290722 157.891156 
L 322.016694 157.005072 
L 322.742665 156.876287 
L 324.194609 156.289607 
L 324.920581 156.235936 
L 325.646552 156.052624 
L 326.372524 155.409435 
L 328.550439 155.904567 
L 329.276411 155.120014 
L 330.002383 155.105639 
L 331.454326 153.766029 
L 332.180298 153.905882 
L 332.906269 153.384843 
L 333.632241 153.275462 
L 334.358213 153.279014 
L 335.084184 152.418145 
L 335.810156 152.038805 
L 336.536128 151.867654 
L 337.2621 151.062328 
L 337.988071 151.157759 
L 338.714043 150.841104 
L 340.165986 151.48224 
L 340.891958 151.607248 
L 341.61793 151.065322 
L 342.343901 150.682185 
L 343.069873 151.017849 
L 343.795845 151.144128 
L 344.521817 151.129333 
L 345.247788 151.639185 
L 345.97376 151.791992 
L 346.699732 151.114638 
L 347.425703 151.462882 
L 348.151675 151.31941 
L 348.877647 150.69559 
L 349.603618 150.825114 
L 350.32959 150.089324 
L 351.055562 149.862636 
L 351.781534 149.907307 
L 352.507505 149.740617 
L 353.233477 148.957303 
L 353.959449 148.946877 
L 355.411392 147.250878 
L 356.137364 147.067147 
L 356.863336 145.997293 
L 357.589307 145.836529 
L 358.315279 145.481747 
L 359.041251 144.678166 
L 359.767222 144.697367 
L 361.219166 143.149503 
L 361.945137 142.541514 
L 362.671109 141.632221 
L 364.849024 141.327974 
L 366.300968 139.746087 
L 367.026939 139.789935 
L 367.752911 138.829582 
L 369.204854 138.412527 
L 369.930826 138.374689 
L 370.656798 137.419711 
L 372.108741 136.054619 
L 372.834713 136.120387 
L 375.012628 135.633332 
L 375.7386 134.529938 
L 376.464571 133.870314 
L 377.190543 133.059706 
L 377.916515 133.042204 
L 378.642487 131.893316 
L 379.368458 131.031264 
L 380.09443 130.819973 
L 380.820402 130.488657 
L 381.546373 130.469565 
L 382.272345 129.279036 
L 383.724289 129.317544 
L 384.45026 128.339034 
L 385.176232 127.704288 
L 385.902204 127.558505 
L 386.628175 126.329846 
L 387.354147 126.124469 
L 388.80609 124.401487 
L 389.532062 124.03349 
L 390.258034 122.757889 
L 390.984006 122.277504 
L 391.709977 121.07566 
L 392.435949 120.616392 
L 393.161921 119.269491 
L 393.887892 118.682796 
L 394.613864 117.327409 
L 395.339836 116.792627 
L 397.517751 112.87557 
L 398.243723 112.414203 
L 399.695666 111.250047 
L 400.421638 110.634823 
L 401.147609 109.712451 
L 404.051496 104.89424 
L 404.777468 103.541601 
L 406.229411 102.143179 
L 410.585242 94.020931 
L 411.311213 92.446543 
L 412.037185 91.456557 
L 413.489128 88.187375 
L 414.2151 87.126934 
L 415.667043 83.774187 
L 417.118987 80.38281 
L 418.57093 78.406429 
L 419.296902 76.646257 
L 420.748845 73.528086 
L 421.474817 71.887279 
L 422.200789 70.738376 
L 423.652732 67.63575 
L 425.104676 65.53741 
L 425.830647 63.897434 
L 426.556619 62.551683 
L 427.282591 61.606086 
L 430.186477 56.095785 
L 430.912449 55.230411 
L 432.364393 52.596631 
L 433.090364 51.901543 
L 433.816336 50.680357 
L 434.542308 49.990521 
L 435.994251 47.639417 
L 436.720223 46.563452 
L 437.446195 45.920059 
L 438.898138 43.576435 
L 441.802025 39.147378 
L 442.527996 37.952528 
L 443.253968 36.975829 
L 444.705912 34.67267 
L 465.759091 34.67267 
L 465.759091 34.67267 
" style="fill:none;stroke:#1f77b4;stroke-linecap:square;stroke-width:1.5;"/>
   </g>
   <g id="line2d_2">
    <path clip-path="url(#p428b697a0b)" d="M 59.940909 280.948191 
L 60.666881 281.142999 
L 61.392852 281.180855 
L 63.570768 281.76358 
L 64.296739 281.167659 
L 66.474654 280.994214 
L 67.200626 280.302148 
L 68.65257 279.510701 
L 69.378541 278.679763 
L 71.556456 277.211268 
L 72.282428 276.125493 
L 74.460343 274.638104 
L 76.638258 273.67402 
L 78.816173 272.938426 
L 81.72006 272.256893 
L 84.623947 271.861399 
L 85.349919 271.481341 
L 86.801862 271.1167 
L 88.253805 271.157737 
L 88.979777 271.265547 
L 89.705749 269.774014 
L 91.157692 269.598277 
L 91.883664 268.467932 
L 93.335607 267.995182 
L 94.061579 267.937813 
L 94.787551 267.464463 
L 95.513523 267.326166 
L 97.691438 267.296569 
L 99.869353 267.692502 
L 100.595324 267.92733 
L 101.321296 267.993789 
L 106.403098 269.597515 
L 110.032957 271.489881 
L 110.758928 271.556292 
L 112.210872 272.272765 
L 112.936843 271.882453 
L 116.566702 272.953781 
L 117.292674 272.133908 
L 119.470589 272.178833 
L 121.648504 272.354513 
L 123.100447 272.635831 
L 124.552391 273.010482 
L 125.278362 273.0534 
L 128.908221 274.164856 
L 131.086136 275.183048 
L 131.812108 274.585756 
L 133.264051 274.995493 
L 133.990023 274.24267 
L 135.441966 273.99934 
L 141.975711 274.06433 
L 144.153627 274.338854 
L 144.879598 273.619374 
L 145.60557 273.311149 
L 147.057513 273.180996 
L 148.509457 272.538524 
L 149.9614 272.318411 
L 151.413344 272.285812 
L 153.591259 272.555322 
L 155.043202 272.883023 
L 155.769174 272.000646 
L 156.495146 271.90754 
L 157.221117 271.690167 
L 158.673061 271.730046 
L 159.399032 271.491521 
L 160.125004 270.542652 
L 161.576947 270.112341 
L 162.302919 269.970959 
L 163.028891 269.011837 
L 165.206806 268.358032 
L 165.932778 267.945192 
L 166.658749 267.708278 
L 167.384721 267.327491 
L 168.836664 267.216439 
L 169.562636 267.21227 
L 170.288608 266.986484 
L 171.01458 266.997662 
L 172.466523 267.240455 
L 173.192495 267.284438 
L 176.096382 268.154442 
L 178.274297 268.770401 
L 179.000268 268.874915 
L 181.178183 269.891528 
L 181.904155 269.80836 
L 182.630127 269.431948 
L 184.08207 269.672907 
L 185.534014 270.0423 
L 186.259985 270.08357 
L 188.4379 270.817843 
L 190.615816 271.740492 
L 192.067759 271.930224 
L 192.793731 271.661664 
L 198.601504 273.408469 
L 199.327476 272.834893 
L 202.231363 272.784082 
L 203.683306 272.938402 
L 205.13525 273.109099 
L 206.587193 273.209465 
L 207.313165 273.252613 
L 208.039136 273.435127 
L 208.765108 272.660679 
L 209.49108 272.450699 
L 210.217052 271.861254 
L 210.943023 271.746767 
L 211.668995 271.446013 
L 213.120938 270.103404 
L 213.84691 269.739735 
L 214.572882 268.751692 
L 216.750797 267.518386 
L 217.476769 266.765847 
L 218.928712 265.873555 
L 219.654684 264.826348 
L 220.380655 264.247833 
L 221.106627 263.842675 
L 221.832599 262.420011 
L 222.55857 261.312064 
L 224.010514 259.942856 
L 226.188429 258.400792 
L 227.640372 257.72025 
L 228.366344 256.197617 
L 229.092316 255.710809 
L 230.544259 255.029688 
L 231.270231 253.785994 
L 231.996203 252.885018 
L 233.448146 251.912773 
L 234.174118 250.514695 
L 235.626061 249.431302 
L 236.352033 249.004656 
L 237.803976 248.356822 
L 238.529948 247.873209 
L 241.433835 247.193021 
L 242.159806 247.21477 
L 242.885778 246.385756 
L 243.61175 245.894387 
L 244.337722 245.786189 
L 245.063693 245.027082 
L 246.515637 244.902231 
L 247.96758 244.701817 
L 248.693552 243.904385 
L 250.145495 243.770043 
L 251.597439 243.844516 
L 253.775354 244.257135 
L 254.501325 244.568826 
L 255.227297 244.130618 
L 255.953269 243.983614 
L 257.405212 244.427753 
L 258.131184 244.707305 
L 258.857156 244.389049 
L 261.035071 245.201089 
L 261.761042 245.567322 
L 262.487014 245.418583 
L 263.212986 245.500117 
L 263.938958 245.430001 
L 266.116873 246.056096 
L 266.842844 246.355095 
L 267.568816 246.163602 
L 269.020759 246.659844 
L 271.924646 247.990512 
L 276.280477 250.660681 
L 278.458392 252.322172 
L 287.170052 259.55153 
L 287.896024 259.636939 
L 290.073939 261.313169 
L 290.799911 261.745905 
L 291.525882 261.981079 
L 292.977826 262.992849 
L 293.703797 263.323675 
L 294.429769 263.813285 
L 295.155741 264.118035 
L 300.237543 267.086815 
L 300.963514 267.04325 
L 301.689486 267.18747 
L 303.14143 267.67732 
L 303.867401 267.926317 
L 307.49726 268.593647 
L 308.223231 268.318192 
L 309.675175 268.27436 
L 310.401147 267.809919 
L 311.127118 267.720667 
L 311.85309 267.096698 
L 316.934892 264.846811 
L 319.112807 263.511874 
L 319.838779 262.711642 
L 320.56475 262.154092 
L 322.016694 260.755715 
L 327.824467 254.805845 
L 330.002383 253.108026 
L 330.728354 252.002014 
L 334.358213 248.807768 
L 335.084184 247.614474 
L 336.536128 246.367413 
L 337.2621 245.18383 
L 338.714043 243.900125 
L 340.891958 242.385449 
L 341.61793 241.366009 
L 343.069873 240.314885 
L 345.97376 238.014312 
L 346.699732 237.104251 
L 348.877647 235.541582 
L 349.603618 234.948857 
L 352.507505 233.267237 
L 353.233477 232.536923 
L 353.959449 232.167263 
L 355.411392 230.554039 
L 356.137364 230.06557 
L 356.863336 229.16903 
L 358.315279 228.235336 
L 359.041251 227.392892 
L 359.767222 226.926132 
L 362.671109 223.758969 
L 364.123053 222.668808 
L 365.574996 221.824891 
L 366.300968 221.066908 
L 368.478883 219.863141 
L 370.656798 219.053626 
L 371.38277 218.521367 
L 372.834713 218.035165 
L 374.286656 217.682835 
L 375.012628 217.61114 
L 375.7386 217.140943 
L 377.190543 216.941737 
L 377.916515 216.91486 
L 378.642487 216.502716 
L 381.546373 216.156525 
L 382.998317 216.072002 
L 383.724289 216.09401 
L 385.176232 215.579954 
L 386.628175 215.400327 
L 388.80609 215.273418 
L 390.258034 215.212312 
L 390.984006 215.158028 
L 391.709977 214.92291 
L 392.435949 214.818597 
L 396.065807 213.210432 
L 397.517751 212.4057 
L 400.421638 211.081943 
L 402.599553 210.217656 
L 403.325524 209.887818 
L 404.777468 208.972058 
L 406.229411 208.192149 
L 409.133298 205.898068 
L 411.311213 203.641814 
L 412.763157 201.854931 
L 414.941072 198.669061 
L 416.393015 196.163589 
L 418.57093 192.199865 
L 421.474817 187.097507 
L 422.92676 184.186948 
L 427.282591 174.451478 
L 429.460506 168.941555 
L 434.542308 155.508957 
L 439.62411 143.463206 
L 444.705912 131.80929 
L 451.239657 116.581174 
L 454.143544 109.889304 
L 462.129232 92.94536 
L 465.759091 85.971942 
L 465.759091 85.971942 
" style="fill:none;stroke:#ff7f0e;stroke-linecap:square;stroke-width:1.5;"/>
   </g>
   <g id="line2d_3">
    <path clip-path="url(#p428b697a0b)" d="M 59.940909 209.294517 
L 60.666881 208.885986 
L 61.392852 207.969118 
L 62.118824 207.734041 
L 62.844796 206.354458 
L 63.570768 206.030385 
L 64.296739 204.722204 
L 65.022711 203.693505 
L 65.748683 203.3615 
L 66.474654 201.932391 
L 67.926598 199.798251 
L 68.65257 199.285253 
L 69.378541 197.589462 
L 70.104513 197.101146 
L 70.830485 196.915507 
L 72.282428 195.148766 
L 73.0084 194.999912 
L 73.734371 194.997493 
L 75.186315 195.450513 
L 76.638258 196.393284 
L 77.36423 197.004249 
L 78.816173 197.854179 
L 79.542145 198.598793 
L 80.268117 198.376618 
L 82.446032 200.594216 
L 83.172004 200.353394 
L 84.623947 201.975481 
L 85.349919 202.632221 
L 86.07589 203.448618 
L 86.801862 203.525732 
L 87.527834 203.994385 
L 88.253805 204.311321 
L 88.979777 205.094224 
L 89.705749 205.029388 
L 91.157692 206.643417 
L 91.883664 206.708614 
L 93.335607 208.315101 
L 94.061579 208.580521 
L 94.787551 209.250278 
L 95.513523 209.326242 
L 96.239494 209.678454 
L 96.965466 210.299043 
L 97.691438 210.444038 
L 99.869353 212.494441 
L 100.595324 212.723297 
L 103.499211 215.271406 
L 104.225183 216.04952 
L 105.677126 217.254489 
L 107.12907 218.770107 
L 108.581013 220.14281 
L 109.306985 220.522132 
L 110.032957 221.395239 
L 110.758928 221.986632 
L 112.210872 223.737922 
L 112.936843 224.036388 
L 116.566702 227.547305 
L 117.292674 227.593098 
L 118.018645 227.962886 
L 120.19656 229.874695 
L 120.922532 230.403949 
L 122.374476 231.673301 
L 123.100447 232.274306 
L 126.730306 234.413289 
L 127.456277 234.336464 
L 128.908221 235.168816 
L 131.086136 236.844458 
L 131.812108 236.803846 
L 133.264051 237.615153 
L 133.990023 237.390721 
L 134.715994 237.442149 
L 136.167938 238.011418 
L 137.619881 238.628966 
L 141.975711 240.950575 
L 142.701683 241.362386 
L 143.427655 240.991404 
L 144.153627 241.322897 
L 146.331542 240.452735 
L 147.057513 240.469635 
L 148.509457 240.136849 
L 150.687372 240.391167 
L 152.139315 240.739601 
L 155.043202 241.880052 
L 155.769174 241.293851 
L 159.399032 241.406602 
L 160.125004 240.346883 
L 160.850976 240.190356 
L 161.576947 239.366674 
L 162.302919 239.163794 
L 163.028891 238.170625 
L 164.480834 237.751912 
L 165.206806 237.269503 
L 165.932778 236.93091 
L 166.658749 235.848336 
L 167.384721 235.323191 
L 168.110693 235.016515 
L 169.562636 234.743542 
L 170.288608 234.385779 
L 172.466523 234.411163 
L 173.192495 233.207584 
L 174.644438 232.60255 
L 175.37041 232.607007 
L 176.822353 232.393403 
L 177.548325 232.427427 
L 179.000268 232.28503 
L 179.72624 231.356324 
L 181.178183 231.375024 
L 181.904155 231.094327 
L 182.630127 229.989012 
L 183.356099 229.767938 
L 184.08207 228.767161 
L 184.808042 228.509322 
L 185.534014 227.438564 
L 186.985957 227.014902 
L 189.163872 227.087224 
L 189.889844 226.967927 
L 190.615816 227.087185 
L 191.341787 226.854821 
L 192.067759 226.805043 
L 192.793731 226.104232 
L 193.519702 226.163964 
L 194.245674 225.856392 
L 194.971646 225.787763 
L 195.697617 225.932902 
L 196.423589 225.91092 
L 197.149561 225.11969 
L 198.601504 225.419626 
L 199.327476 224.675072 
L 200.053448 224.285025 
L 200.779419 224.196546 
L 201.505391 224.270521 
L 202.231363 224.17448 
L 205.13525 224.67021 
L 206.587193 225.189723 
L 207.313165 225.474612 
L 208.039136 225.96539 
L 208.765108 225.323186 
L 209.49108 225.151135 
L 210.217052 224.823582 
L 210.943023 224.342528 
L 211.668995 224.330153 
L 212.394967 223.698031 
L 213.120938 223.291091 
L 213.84691 223.314834 
L 214.572882 222.406798 
L 216.024825 222.380223 
L 216.750797 222.426665 
L 217.476769 221.981041 
L 218.20274 222.060065 
L 218.928712 221.282092 
L 219.654684 220.709051 
L 220.380655 220.507744 
L 221.106627 219.617075 
L 221.832599 218.972793 
L 222.55857 217.951528 
L 224.736486 217.014459 
L 225.462457 216.185122 
L 226.914401 215.831219 
L 227.640372 215.644745 
L 228.366344 214.517744 
L 229.818288 214.34179 
L 230.544259 214.358841 
L 231.270231 213.249719 
L 231.996203 212.809466 
L 233.448146 211.128976 
L 234.174118 210.1165 
L 234.900089 209.679913 
L 235.626061 209.428792 
L 236.352033 208.958472 
L 237.078005 208.64168 
L 237.803976 208.155181 
L 238.529948 207.830019 
L 240.707863 207.668333 
L 241.433835 207.729254 
L 242.159806 207.960256 
L 243.61175 206.84064 
L 245.063693 205.808021 
L 247.96758 205.752659 
L 248.693552 204.980342 
L 250.871467 205.120228 
L 252.32341 205.713247 
L 253.049382 205.728348 
L 254.501325 206.541217 
L 255.227297 205.965502 
L 256.679241 205.656492 
L 258.857156 205.182002 
L 259.583127 204.793603 
L 260.309099 204.562777 
L 261.761042 204.86998 
L 262.487014 204.465261 
L 263.212986 204.330094 
L 263.938958 203.817558 
L 265.390901 203.869239 
L 266.842844 204.143261 
L 267.568816 203.746057 
L 268.294788 203.873168 
L 269.746731 204.358273 
L 270.472703 204.553069 
L 271.198675 204.895356 
L 271.924646 205.399684 
L 272.650618 205.66101 
L 273.37659 206.059932 
L 274.102561 205.96701 
L 276.280477 207.477642 
L 278.458392 209.378078 
L 279.184363 210.172836 
L 279.910335 210.099487 
L 281.362278 211.426698 
L 282.08825 211.549468 
L 287.170052 216.681079 
L 287.896024 216.662888 
L 288.621995 217.06897 
L 289.347967 217.648992 
L 290.073939 217.603615 
L 290.799911 218.094604 
L 291.525882 218.103384 
L 292.977826 219.222034 
L 293.703797 219.459744 
L 294.429769 220.009913 
L 295.155741 219.794768 
L 297.333656 220.875711 
L 298.059628 221.141654 
L 300.237543 222.468174 
L 300.963514 222.268719 
L 301.689486 222.226803 
L 302.415458 222.499112 
L 303.14143 222.577426 
L 303.867401 222.789246 
L 306.771288 223.019184 
L 307.49726 223.25229 
L 308.223231 222.842322 
L 309.675175 222.942357 
L 310.401147 222.385052 
L 311.127118 222.414683 
L 311.85309 221.738649 
L 312.579062 221.519668 
L 313.305033 220.771213 
L 315.482948 219.981097 
L 316.934892 219.645014 
L 317.660864 218.771969 
L 318.386835 218.695858 
L 319.838779 217.43842 
L 320.56475 216.569132 
L 323.468637 214.231017 
L 325.646552 212.27247 
L 326.372524 211.1753 
L 329.276411 209.684332 
L 330.002383 209.459932 
L 330.728354 208.657657 
L 332.180298 208.060657 
L 332.906269 207.256359 
L 333.632241 206.82606 
L 334.358213 206.582535 
L 335.084184 205.392641 
L 336.536128 204.023331 
L 337.2621 202.918216 
L 337.988071 202.515444 
L 338.714043 201.922878 
L 340.891958 201.012227 
L 341.61793 200.167452 
L 345.97376 198.100145 
L 346.699732 197.260013 
L 348.151675 196.958112 
L 348.877647 195.947701 
L 350.32959 195.352575 
L 351.055562 195.231197 
L 352.507505 194.625925 
L 353.233477 193.89489 
L 353.959449 193.744837 
L 354.68542 192.799096 
L 355.411392 192.039327 
L 356.137364 191.76838 
L 356.863336 190.909466 
L 358.315279 190.443081 
L 359.041251 189.68518 
L 359.767222 189.503452 
L 361.945137 187.337254 
L 363.397081 186.676567 
L 364.849024 186.440571 
L 365.574996 186.36948 
L 366.300968 185.659014 
L 367.026939 185.603891 
L 367.752911 184.89649 
L 368.478883 184.62139 
L 369.930826 184.433306 
L 370.656798 183.792666 
L 372.108741 182.722488 
L 375.012628 182.052968 
L 377.190543 180.209416 
L 377.916515 179.998661 
L 378.642487 179.17984 
L 380.820402 178.297163 
L 383.724289 177.720868 
L 385.176232 176.591009 
L 385.902204 176.381314 
L 386.628175 175.701332 
L 387.354147 175.360045 
L 388.080119 174.753697 
L 389.532062 174.130311 
L 390.258034 173.304507 
L 390.984006 172.919294 
L 391.709977 172.177632 
L 392.435949 171.809419 
L 393.161921 170.880046 
L 393.887892 170.402262 
L 394.613864 169.490997 
L 395.339836 168.944617 
L 396.791779 167.202257 
L 398.969694 165.600628 
L 400.421638 164.771158 
L 401.147609 164.112796 
L 401.873581 163.621039 
L 402.599553 163.318762 
L 404.051496 161.660259 
L 405.50344 160.538344 
L 406.229411 160.127237 
L 408.407326 157.461453 
L 409.133298 156.788858 
L 409.85927 155.790983 
L 410.585242 155.062804 
L 411.311213 153.903187 
L 412.037185 153.093285 
L 415.667043 147.303942 
L 417.118987 144.564755 
L 420.022874 140.293548 
L 424.378704 132.172109 
L 425.104676 130.997057 
L 427.282591 126.849283 
L 431.638421 118.273537 
L 435.994251 111.182166 
L 438.898138 107.155351 
L 441.802025 102.282705 
L 450.513685 86.622329 
L 453.417572 81.110588 
L 454.869515 78.470451 
L 459.951317 68.226161 
L 462.855204 62.54672 
L 465.759091 57.015196 
L 465.759091 57.015196 
" style="fill:none;stroke:#2ca02c;stroke-linecap:square;stroke-width:1.5;"/>
   </g>
   <g id="line2d_4">
    <path clip-path="url(#p428b697a0b)" d="M 59.940909 227.677062 
L 60.666881 227.093812 
L 61.392852 226.165567 
L 62.118824 225.765779 
L 62.844796 223.751724 
L 63.570768 223.236106 
L 64.296739 221.317321 
L 65.022711 219.920273 
L 65.748683 219.28449 
L 66.474654 217.182373 
L 67.926598 214.053021 
L 68.65257 213.156773 
L 69.378541 210.9996 
L 70.104513 210.15334 
L 70.830485 209.71896 
L 72.282428 207.06037 
L 73.0084 206.751792 
L 73.734371 206.596989 
L 74.460343 206.673822 
L 75.186315 206.920563 
L 77.36423 208.238471 
L 78.816173 209.543465 
L 79.542145 210.305559 
L 80.268117 209.736988 
L 85.349919 214.746507 
L 86.07589 215.571809 
L 86.801862 215.457001 
L 87.527834 215.938299 
L 88.253805 216.097117 
L 88.979777 216.88862 
L 89.705749 216.564463 
L 91.157692 218.197701 
L 91.883664 218.220339 
L 93.335607 219.800307 
L 94.061579 219.927103 
L 94.787551 220.568204 
L 95.513523 220.641804 
L 96.239494 220.940138 
L 96.965466 221.560042 
L 97.691438 221.597098 
L 99.143381 222.972839 
L 99.869353 223.622212 
L 100.595324 223.724353 
L 104.225183 226.985573 
L 104.951155 227.783621 
L 105.677126 228.37923 
L 107.855041 230.883406 
L 108.581013 231.458328 
L 109.306985 231.877948 
L 110.032957 232.789261 
L 110.758928 233.348104 
L 112.210872 235.14958 
L 112.936843 235.342046 
L 115.114758 237.665744 
L 115.84073 238.512416 
L 116.566702 239.117276 
L 117.292674 239.100892 
L 118.018645 239.545566 
L 121.648504 243.080039 
L 123.100447 244.496236 
L 123.826419 245.159835 
L 125.278362 246.024133 
L 126.004334 246.569056 
L 127.456277 247.955132 
L 128.182249 248.389399 
L 129.634193 249.806574 
L 131.086136 251.378281 
L 131.812108 251.298293 
L 133.264051 252.63036 
L 133.990023 252.318256 
L 135.441966 253.071162 
L 138.345853 254.988986 
L 141.975711 257.419947 
L 142.701683 257.947029 
L 143.427655 257.570665 
L 144.153627 258.000676 
L 144.879598 257.677451 
L 145.60557 257.570178 
L 146.331542 257.279222 
L 147.057513 257.37208 
L 147.783485 257.14838 
L 148.509457 257.062573 
L 150.687372 257.325944 
L 152.139315 257.660354 
L 152.865287 257.981609 
L 153.591259 258.157746 
L 155.043202 258.837835 
L 155.769174 257.910777 
L 156.495146 257.918158 
L 157.221117 257.650938 
L 158.673061 257.848534 
L 159.399032 257.651045 
L 160.125004 256.473934 
L 160.850976 256.177695 
L 161.576947 255.034252 
L 162.302919 254.676977 
L 163.028891 253.383557 
L 164.480834 252.690934 
L 165.206806 251.898929 
L 167.384721 250.279096 
L 168.110693 249.959745 
L 169.562636 249.817853 
L 170.288608 249.311144 
L 171.01458 249.290168 
L 171.740551 249.459162 
L 172.466523 249.354915 
L 173.192495 247.753825 
L 173.918466 247.409501 
L 174.644438 246.940731 
L 176.096382 246.780804 
L 176.822353 246.52249 
L 177.548325 246.517561 
L 179.000268 246.150941 
L 179.72624 244.856982 
L 181.178183 244.714662 
L 181.904155 244.18755 
L 182.630127 242.734816 
L 183.356099 242.346865 
L 184.08207 242.127741 
L 184.808042 241.731452 
L 185.534014 241.592902 
L 186.259985 241.22254 
L 186.985957 241.197614 
L 188.4379 241.545862 
L 190.615816 242.442035 
L 191.341787 242.2464 
L 192.067759 242.289915 
L 192.793731 241.555907 
L 194.245674 242.126701 
L 197.149561 243.137406 
L 198.601504 244.139884 
L 199.327476 243.175929 
L 200.779419 243.23161 
L 201.505391 243.515981 
L 202.231363 243.52941 
L 202.957335 243.829822 
L 203.683306 243.972786 
L 204.409278 244.352186 
L 205.861221 244.816194 
L 208.039136 246.027997 
L 208.765108 245.184915 
L 209.49108 245.106745 
L 210.943023 244.133299 
L 211.668995 244.048093 
L 212.394967 243.245661 
L 213.120938 242.726277 
L 213.84691 242.647477 
L 214.572882 241.569216 
L 216.024825 241.342151 
L 216.750797 241.351804 
L 217.476769 240.713468 
L 218.20274 240.712633 
L 218.928712 240.59045 
L 219.654684 239.673496 
L 220.380655 239.499052 
L 221.832599 237.779129 
L 222.55857 236.527418 
L 224.010514 235.825447 
L 225.462457 235.561208 
L 227.640372 235.301654 
L 228.366344 233.542891 
L 230.544259 233.532751 
L 231.270231 232.299505 
L 231.996203 231.754035 
L 233.448146 229.638137 
L 234.174118 228.322055 
L 234.900089 227.804565 
L 237.078005 227.041588 
L 237.803976 226.34533 
L 238.529948 225.910526 
L 241.433835 225.581957 
L 242.159806 225.791219 
L 242.885778 224.707443 
L 243.61175 224.053774 
L 244.337722 223.12759 
L 245.063693 222.40286 
L 245.789665 222.224051 
L 246.515637 221.927743 
L 247.96758 221.572015 
L 248.693552 220.335368 
L 249.419523 220.137888 
L 251.597439 220.273962 
L 252.32341 220.442319 
L 253.049382 220.15652 
L 254.501325 220.670893 
L 255.227297 219.548485 
L 255.953269 219.239171 
L 256.679241 219.420716 
L 258.131184 219.977614 
L 258.857156 219.346598 
L 259.583127 218.979387 
L 260.309099 219.298323 
L 261.035071 219.43834 
L 261.761042 219.78092 
L 262.487014 219.165354 
L 263.212986 219.103136 
L 263.938958 218.605401 
L 265.390901 218.81465 
L 266.116873 219.033977 
L 266.842844 219.376423 
L 267.568816 218.781038 
L 268.294788 219.006515 
L 269.020759 219.374927 
L 270.472703 219.792549 
L 271.198675 220.180084 
L 271.924646 220.739227 
L 272.650618 220.961075 
L 273.37659 221.367637 
L 277.006448 224.449051 
L 279.184363 226.684361 
L 279.910335 226.471419 
L 282.814222 229.391903 
L 287.170052 234.349652 
L 287.896024 234.265609 
L 289.347967 235.412197 
L 290.073939 235.344387 
L 290.799911 235.87386 
L 291.525882 235.799424 
L 292.977826 236.929066 
L 293.703797 237.230916 
L 294.429769 237.78805 
L 295.155741 237.416145 
L 297.333656 238.593294 
L 298.059628 238.820003 
L 300.237543 240.055788 
L 300.963514 239.725385 
L 301.689486 239.706726 
L 302.415458 240.037492 
L 303.14143 240.196757 
L 303.867401 240.485643 
L 306.045316 240.37234 
L 307.49726 240.740638 
L 308.223231 240.125319 
L 309.675175 240.080033 
L 310.401147 239.282244 
L 311.127118 239.217116 
L 311.85309 238.227111 
L 312.579062 237.886127 
L 313.305033 237.020839 
L 314.031005 236.556565 
L 315.482948 236.04538 
L 316.20892 235.825518 
L 317.660864 235.111883 
L 318.386835 235.056214 
L 319.838779 233.530735 
L 320.56475 232.458027 
L 321.290722 231.788446 
L 322.016694 231.2856 
L 322.742665 230.596746 
L 323.468637 229.684382 
L 324.194609 229.084861 
L 325.646552 227.444621 
L 326.372524 226.160353 
L 327.824467 225.246106 
L 330.002383 224.169304 
L 330.728354 223.084379 
L 332.180298 222.294195 
L 332.906269 221.179822 
L 333.632241 220.582877 
L 334.358213 220.200177 
L 335.084184 218.601629 
L 336.536128 216.779561 
L 337.2621 215.322757 
L 337.988071 214.750022 
L 338.714043 213.954697 
L 340.165986 213.169088 
L 340.891958 212.857615 
L 341.61793 211.644173 
L 343.795845 210.168361 
L 344.521817 209.492179 
L 345.247788 209.245474 
L 345.97376 208.703017 
L 346.699732 207.605092 
L 348.151675 207.160063 
L 348.877647 205.752176 
L 350.32959 204.940725 
L 351.055562 204.717321 
L 352.507505 203.871221 
L 353.233477 202.95137 
L 353.959449 202.771762 
L 354.68542 201.562426 
L 355.411392 200.642099 
L 356.137364 200.305872 
L 356.863336 199.217213 
L 358.315279 198.735332 
L 359.041251 197.757938 
L 359.767222 197.55412 
L 361.945137 195.008031 
L 363.397081 194.493703 
L 364.849024 194.392686 
L 365.574996 194.364765 
L 366.300968 193.542286 
L 367.752911 193.46475 
L 368.478883 193.219059 
L 369.930826 193.389394 
L 370.656798 193.40471 
L 372.108741 192.630496 
L 374.286656 193.008316 
L 375.012628 193.270299 
L 375.7386 192.777761 
L 376.464571 192.505431 
L 377.190543 192.075744 
L 377.916515 192.189738 
L 378.642487 191.559279 
L 380.820402 191.502123 
L 381.546373 191.634241 
L 382.272345 191.59393 
L 383.724289 191.948149 
L 384.45026 191.509848 
L 385.176232 191.206872 
L 386.628175 191.218534 
L 387.354147 191.131306 
L 388.080119 190.79672 
L 389.532062 190.786578 
L 390.258034 190.140136 
L 390.984006 190.034882 
L 391.709977 189.517929 
L 392.435949 189.400917 
L 393.161921 188.744604 
L 393.887892 188.508488 
L 394.613864 187.780568 
L 395.339836 187.529091 
L 396.065807 186.752309 
L 396.791779 186.188639 
L 398.969694 185.164894 
L 400.421638 184.629105 
L 401.147609 184.560308 
L 401.873581 184.165636 
L 402.599553 184.095132 
L 403.325524 183.766553 
L 404.051496 183.140466 
L 406.229411 182.308773 
L 407.681355 180.956961 
L 408.407326 180.180961 
L 409.133298 179.704348 
L 409.85927 178.937395 
L 410.585242 178.364342 
L 411.311213 177.300512 
L 412.037185 176.679675 
L 413.489128 174.480671 
L 414.2151 173.659643 
L 417.118987 168.634979 
L 420.748845 163.774022 
L 421.474817 162.331202 
L 422.200789 161.23261 
L 423.652732 158.326577 
L 425.830647 154.389075 
L 429.460506 146.827328 
L 430.186477 144.953994 
L 430.912449 143.46485 
L 431.638421 141.675596 
L 435.268279 134.190173 
L 435.994251 132.489877 
L 440.350081 123.893239 
L 445.431883 112.34439 
L 453.417572 93.345721 
L 454.869515 90.018094 
L 462.129232 72.104848 
L 463.581176 68.834062 
L 465.033119 65.585186 
L 465.759091 64.121534 
L 465.759091 64.121534 
" style="fill:none;stroke:#d62728;stroke-linecap:square;stroke-width:1.5;"/>
   </g>
   <g id="line2d_5">
    <path clip-path="url(#p428b697a0b)" d="M 59.940909 190.494242 
L 60.666881 189.897519 
L 61.392852 188.761988 
L 62.118824 188.40416 
L 62.844796 186.824103 
L 63.570768 186.408136 
L 64.296739 184.980691 
L 65.022711 183.820999 
L 65.748683 183.380252 
L 66.474654 181.94124 
L 67.926598 179.613368 
L 68.65257 179.070819 
L 69.378541 177.298118 
L 70.104513 176.821117 
L 70.830485 176.666112 
L 72.282428 174.936561 
L 73.0084 174.816983 
L 73.734371 174.890588 
L 75.186315 175.538065 
L 78.816173 178.816622 
L 79.542145 179.784406 
L 80.268117 179.751269 
L 82.446032 182.68134 
L 83.172004 182.672217 
L 84.623947 184.835476 
L 86.07589 186.846587 
L 86.801862 187.169027 
L 88.253805 188.466039 
L 88.979777 188.989086 
L 89.705749 189.301441 
L 91.157692 191.045633 
L 91.883664 191.37866 
L 93.335607 193.260497 
L 94.061579 193.739824 
L 94.787551 194.569077 
L 95.513523 194.77189 
L 96.239494 195.301033 
L 96.965466 196.080671 
L 97.691438 196.423021 
L 98.417409 196.912504 
L 99.869353 198.427215 
L 100.595324 198.764996 
L 105.677126 203.974368 
L 107.12907 205.677428 
L 108.581013 207.292771 
L 109.306985 207.683398 
L 110.032957 208.672662 
L 110.758928 209.33512 
L 112.210872 211.323697 
L 112.936843 211.720667 
L 116.566702 215.842671 
L 117.292674 215.989554 
L 118.018645 216.488294 
L 118.744617 217.270192 
L 119.470589 217.796943 
L 120.19656 218.567367 
L 120.922532 218.619793 
L 121.648504 219.297335 
L 122.374476 219.683449 
L 123.100447 220.26664 
L 126.730306 222.248122 
L 127.456277 222.048738 
L 128.908221 222.793768 
L 131.086136 224.391016 
L 131.812108 224.328061 
L 133.264051 225.151345 
L 133.990023 224.888238 
L 134.715994 224.910049 
L 136.167938 225.461984 
L 137.619881 226.105966 
L 141.24974 228.224451 
L 142.701683 229.240019 
L 143.427655 228.921081 
L 144.153627 229.354565 
L 146.331542 228.516624 
L 147.057513 228.592958 
L 147.783485 228.408209 
L 148.509457 228.354203 
L 150.687372 228.700491 
L 151.413344 227.947943 
L 152.139315 227.62919 
L 153.591259 227.595417 
L 155.043202 227.806165 
L 155.769174 227.104259 
L 157.221117 226.65594 
L 158.673061 226.520817 
L 159.399032 226.405771 
L 160.125004 225.252172 
L 160.850976 224.9524 
L 162.302919 223.090279 
L 163.028891 222.164355 
L 164.480834 221.36578 
L 165.206806 220.734689 
L 165.932778 220.264426 
L 166.658749 219.042173 
L 167.384721 218.415336 
L 168.110693 217.966712 
L 169.562636 217.403639 
L 170.288608 217.041277 
L 171.01458 217.011373 
L 172.466523 217.137938 
L 173.192495 215.948226 
L 174.644438 215.508989 
L 178.274297 215.870634 
L 179.000268 216.01039 
L 179.72624 215.262944 
L 181.178183 215.63914 
L 181.904155 215.52594 
L 182.630127 214.704057 
L 183.356099 214.695408 
L 184.08207 213.697061 
L 184.808042 213.639491 
L 185.534014 212.520457 
L 186.259985 212.439027 
L 186.985957 212.099915 
L 189.163872 210.064073 
L 190.615816 208.0948 
L 191.341787 207.34358 
L 192.067759 206.77829 
L 192.793731 205.627393 
L 193.519702 205.177609 
L 194.245674 204.408576 
L 194.971646 203.934058 
L 195.697617 203.709589 
L 196.423589 203.365062 
L 197.149561 201.999473 
L 198.601504 201.582375 
L 199.327476 200.368397 
L 200.053448 199.659083 
L 200.779419 199.262283 
L 202.231363 198.698036 
L 203.683306 198.509729 
L 204.409278 198.654765 
L 205.13525 198.512004 
L 206.587193 198.973097 
L 207.313165 199.283521 
L 208.039136 199.847119 
L 208.765108 199.266112 
L 210.217052 198.910059 
L 210.943023 198.527271 
L 211.668995 198.641264 
L 212.394967 198.17566 
L 213.120938 197.903587 
L 213.84691 198.150151 
L 214.572882 197.215593 
L 216.024825 197.471321 
L 216.750797 197.718583 
L 217.476769 197.497279 
L 218.20274 197.804693 
L 218.928712 197.247995 
L 219.654684 196.968785 
L 221.106627 195.93871 
L 222.55857 194.602592 
L 224.736486 194.20075 
L 225.462457 193.521925 
L 227.640372 193.680577 
L 228.366344 192.935497 
L 229.818288 193.3304 
L 230.544259 192.829454 
L 231.996203 192.151994 
L 234.174118 190.29832 
L 234.900089 190.080209 
L 235.626061 190.053921 
L 236.352033 189.888117 
L 237.078005 189.232457 
L 239.981891 188.726524 
L 240.707863 188.735863 
L 241.433835 188.874966 
L 242.159806 189.228642 
L 244.337722 188.143895 
L 245.063693 187.844724 
L 247.96758 188.439169 
L 248.693552 187.9493 
L 249.419523 188.155819 
L 250.145495 188.172874 
L 251.597439 188.878524 
L 252.32341 189.380942 
L 253.049382 189.617878 
L 254.501325 190.673597 
L 255.227297 190.364138 
L 258.131184 190.723633 
L 258.857156 190.478203 
L 260.309099 190.282396 
L 261.761042 190.894234 
L 262.487014 190.725929 
L 263.212986 190.77461 
L 263.938958 190.45605 
L 265.390901 190.821846 
L 266.842844 191.397957 
L 267.568816 191.189152 
L 268.294788 191.484257 
L 270.472703 192.665518 
L 271.198675 193.010272 
L 271.924646 193.641373 
L 272.650618 194.022295 
L 273.37659 194.5576 
L 274.102561 194.615621 
L 274.828533 195.24575 
L 275.554505 195.225156 
L 277.006448 196.403526 
L 279.184363 198.678133 
L 279.910335 198.672513 
L 281.362278 200.09406 
L 282.08825 200.283523 
L 284.992137 203.450182 
L 285.718109 203.63102 
L 287.170052 204.380986 
L 288.621995 204.786917 
L 289.347967 205.258231 
L 290.073939 205.107732 
L 290.799911 205.484733 
L 291.525882 205.246914 
L 292.977826 206.082794 
L 293.703797 206.218703 
L 294.429769 206.613173 
L 295.155741 206.235531 
L 295.881712 206.486083 
L 296.607684 206.064714 
L 297.333656 206.252977 
L 298.059628 206.24193 
L 300.237543 206.765799 
L 301.689486 206.031228 
L 302.415458 206.064848 
L 303.14143 205.327379 
L 303.867401 204.773237 
L 305.319345 204.012652 
L 306.045316 203.502104 
L 306.771288 203.135254 
L 307.49726 202.928521 
L 308.223231 202.087951 
L 309.675175 201.397124 
L 310.401147 200.426343 
L 311.127118 200.089879 
L 311.85309 199.032933 
L 312.579062 198.454483 
L 313.305033 197.345567 
L 314.756977 196.266977 
L 315.482948 195.716909 
L 316.934892 195.008872 
L 317.660864 193.902356 
L 318.386835 193.724745 
L 319.838779 192.286957 
L 320.56475 191.355329 
L 322.016694 190.278169 
L 322.742665 189.761279 
L 324.194609 188.554588 
L 325.646552 187.491578 
L 326.372524 186.566131 
L 328.550439 186.056547 
L 330.002383 186.063736 
L 331.454326 185.03468 
L 332.180298 185.027532 
L 332.906269 184.476373 
L 333.632241 184.339983 
L 334.358213 184.386704 
L 335.084184 183.563964 
L 336.536128 182.896136 
L 337.2621 182.18269 
L 338.714043 181.825335 
L 340.891958 181.94959 
L 341.61793 181.480708 
L 344.521817 181.592082 
L 345.247788 181.844167 
L 345.97376 181.927925 
L 346.699732 181.57434 
L 348.151675 181.886503 
L 348.877647 181.356086 
L 351.055562 181.788049 
L 352.507505 181.958879 
L 353.233477 181.519616 
L 353.959449 181.674896 
L 354.68542 181.135684 
L 355.411392 180.740839 
L 356.137364 180.67259 
L 356.863336 180.018778 
L 357.589307 180.049898 
L 358.315279 179.855595 
L 359.041251 179.41882 
L 359.767222 179.42533 
L 361.945137 177.944566 
L 363.397081 177.613496 
L 364.849024 177.431707 
L 366.300968 176.373139 
L 367.026939 176.229691 
L 367.752911 175.56096 
L 368.478883 175.240341 
L 369.930826 174.863924 
L 372.108741 172.965906 
L 373.560685 172.357858 
L 374.286656 172.022858 
L 375.012628 171.828588 
L 377.190543 169.65274 
L 377.916515 169.30621 
L 379.368458 167.555792 
L 382.998317 165.330116 
L 383.724289 165.055618 
L 385.176232 163.487131 
L 385.902204 163.053403 
L 386.628175 162.152573 
L 387.354147 161.601274 
L 388.80609 159.829455 
L 389.532062 159.227248 
L 390.258034 158.059468 
L 390.984006 157.349422 
L 391.709977 156.17833 
L 392.435949 155.364622 
L 393.161921 154.085933 
L 393.887892 153.185167 
L 394.613864 151.786537 
L 395.339836 150.841858 
L 397.517751 146.585553 
L 399.695666 143.295466 
L 400.421638 142.32531 
L 401.147609 141.107193 
L 401.873581 140.114234 
L 403.325524 137.557451 
L 404.051496 136.160935 
L 406.955383 131.529582 
L 410.585242 124.649148 
L 413.489128 118.461387 
L 414.2151 117.06295 
L 417.844959 108.573183 
L 418.57093 107.155082 
L 426.556619 88.782084 
L 428.734534 84.211398 
L 430.912449 79.60502 
L 433.090364 75.325908 
L 434.542308 72.690706 
L 437.446195 67.484754 
L 444.705912 54.640043 
L 447.609798 49.726828 
L 450.513685 45.569772 
L 456.321459 37.098943 
L 457.773402 34.963554 
L 458.499374 34.67267 
L 465.759091 34.67267 
L 465.759091 34.67267 
" style="fill:none;stroke:#9467bd;stroke-linecap:square;stroke-width:1.5;"/>
   </g>
   <g id="line2d_6">
    <path clip-path="url(#p428b697a0b)" d="M 59.940909 225.217932 
L 60.666881 224.741322 
L 61.392852 223.959733 
L 62.118824 223.649503 
L 62.844796 221.939835 
L 63.570768 221.524625 
L 64.296739 219.861287 
L 65.022711 218.648783 
L 65.748683 218.14073 
L 66.474654 216.28665 
L 67.926598 213.599759 
L 68.65257 212.860435 
L 69.378541 210.982798 
L 70.104513 210.2893 
L 70.830485 209.969113 
L 72.282428 207.621751 
L 73.734371 207.26288 
L 74.460343 207.373801 
L 75.186315 207.632413 
L 77.36423 208.935281 
L 78.090202 209.070511 
L 78.816173 209.39034 
L 79.542145 210.027781 
L 80.268117 209.533294 
L 83.172004 211.857206 
L 84.623947 213.325879 
L 85.349919 213.895071 
L 86.07589 214.642614 
L 86.801862 214.532947 
L 87.527834 214.932168 
L 88.253805 215.084542 
L 88.979777 215.803216 
L 89.705749 215.498358 
L 91.157692 216.969724 
L 91.883664 216.794329 
L 93.335607 218.237222 
L 94.061579 218.310768 
L 94.787551 218.878538 
L 95.513523 218.902395 
L 96.239494 219.139751 
L 96.965466 219.697345 
L 97.691438 219.705726 
L 99.143381 220.979563 
L 99.869353 221.584656 
L 100.595324 221.665262 
L 103.499211 223.998648 
L 104.951155 225.455907 
L 105.677126 225.993507 
L 107.855041 228.375701 
L 108.581013 228.929896 
L 109.306985 229.316635 
L 110.032957 230.192851 
L 110.758928 230.746872 
L 112.210872 232.492574 
L 112.936843 232.702552 
L 115.114758 234.967786 
L 115.84073 235.803418 
L 116.566702 236.398502 
L 117.292674 236.364022 
L 118.018645 236.797908 
L 121.648504 240.303348 
L 123.100447 241.719089 
L 126.004334 243.605617 
L 127.456277 244.952271 
L 128.182249 245.335821 
L 129.634193 246.690763 
L 131.086136 248.078247 
L 131.812108 248.084138 
L 133.264051 249.331617 
L 133.990023 249.030926 
L 135.441966 249.690792 
L 139.797796 252.474025 
L 140.523768 252.819996 
L 142.701683 254.286296 
L 143.427655 254.027975 
L 144.153627 254.414387 
L 144.879598 254.137379 
L 145.60557 253.997957 
L 146.331542 253.74479 
L 147.057513 253.830112 
L 147.783485 253.638287 
L 148.509457 253.562007 
L 150.687372 253.866957 
L 152.139315 254.215146 
L 152.865287 254.530532 
L 153.591259 254.724533 
L 155.043202 255.399105 
L 155.769174 254.595956 
L 156.495146 254.587461 
L 157.221117 254.388714 
L 158.673061 254.62795 
L 159.399032 254.487449 
L 160.125004 253.394604 
L 160.850976 253.140935 
L 161.576947 252.116017 
L 162.302919 251.809449 
L 163.028891 250.564563 
L 164.480834 249.905695 
L 165.206806 249.198356 
L 165.932778 248.697216 
L 166.658749 247.25939 
L 167.384721 246.52953 
L 168.110693 246.056954 
L 169.562636 245.519426 
L 170.288608 244.939325 
L 171.01458 244.771832 
L 171.740551 244.759972 
L 172.466523 244.557098 
L 173.192495 242.950275 
L 174.644438 241.904263 
L 176.096382 241.502768 
L 176.822353 241.182501 
L 177.548325 241.078017 
L 179.000268 240.618208 
L 179.72624 239.32532 
L 181.178183 239.083902 
L 181.904155 238.567538 
L 182.630127 237.107696 
L 183.356099 236.700393 
L 184.08207 236.479485 
L 184.808042 236.104925 
L 185.534014 234.836684 
L 186.985957 234.419786 
L 188.4379 234.562729 
L 189.163872 234.739863 
L 189.889844 234.596276 
L 190.615816 234.74541 
L 191.341787 234.49572 
L 192.067759 234.42529 
L 192.793731 233.642223 
L 193.519702 233.872249 
L 194.971646 234.180388 
L 195.697617 234.499539 
L 196.423589 234.547459 
L 197.149561 233.772798 
L 198.601504 234.485502 
L 199.327476 233.623775 
L 200.053448 233.409399 
L 200.779419 233.419143 
L 201.505391 233.621526 
L 202.231363 233.618312 
L 202.957335 233.872421 
L 203.683306 233.933595 
L 204.409278 234.283902 
L 205.861221 234.746271 
L 208.039136 236.017853 
L 208.765108 235.355235 
L 209.49108 235.379667 
L 210.943023 234.638263 
L 211.668995 234.680738 
L 212.394967 234.056974 
L 213.120938 233.710602 
L 213.84691 233.796768 
L 214.572882 232.977788 
L 216.024825 233.134451 
L 216.750797 233.307609 
L 217.476769 232.971125 
L 218.928712 233.265407 
L 219.654684 232.671779 
L 220.380655 232.730445 
L 221.832599 231.689784 
L 222.55857 230.85247 
L 224.010514 230.741963 
L 226.914401 231.224261 
L 227.640372 231.496961 
L 228.366344 230.290305 
L 230.544259 230.996411 
L 231.270231 230.233563 
L 231.996203 230.01111 
L 233.448146 228.742715 
L 234.174118 227.898815 
L 234.900089 227.710064 
L 237.078005 227.746206 
L 237.803976 227.378588 
L 238.529948 227.222616 
L 241.433835 227.698471 
L 242.159806 228.019923 
L 242.885778 227.293466 
L 243.61175 226.887794 
L 244.337722 226.265642 
L 245.063693 225.790488 
L 247.241608 225.637149 
L 247.96758 225.549884 
L 248.693552 224.598298 
L 250.871467 224.38854 
L 252.32341 224.732792 
L 253.049382 224.503819 
L 254.501325 224.962114 
L 255.227297 223.987319 
L 255.953269 223.675226 
L 257.405212 224.058778 
L 258.131184 224.258273 
L 258.857156 223.64991 
L 259.583127 223.252403 
L 260.309099 223.480477 
L 261.035071 223.557545 
L 261.761042 223.800707 
L 262.487014 223.155323 
L 263.212986 222.999827 
L 263.938958 222.448865 
L 265.390901 222.430522 
L 266.842844 222.738697 
L 267.568816 222.023854 
L 268.294788 222.109611 
L 269.020759 222.33664 
L 270.472703 222.46923 
L 271.198675 222.703047 
L 271.924646 223.109041 
L 272.650618 223.188179 
L 273.37659 223.435903 
L 274.828533 224.294822 
L 275.554505 224.852298 
L 276.280477 225.201719 
L 278.458392 226.797724 
L 279.184363 227.49312 
L 279.910335 227.125139 
L 282.08825 228.834955 
L 284.266165 230.761077 
L 287.170052 233.562665 
L 287.896024 233.309274 
L 289.347967 234.169196 
L 290.073939 233.94141 
L 290.799911 234.31947 
L 291.525882 234.116207 
L 292.977826 234.98662 
L 293.703797 235.15894 
L 294.429769 235.591574 
L 295.155741 235.049031 
L 297.333656 235.831402 
L 298.059628 235.930843 
L 300.237543 236.815589 
L 300.963514 236.352665 
L 301.689486 236.190147 
L 302.415458 236.411091 
L 303.867401 236.506452 
L 305.319345 236.307824 
L 306.045316 236.051673 
L 307.49726 236.194983 
L 308.223231 235.467127 
L 309.675175 235.219555 
L 310.401147 234.31854 
L 311.127118 234.158468 
L 311.85309 233.11069 
L 312.579062 232.683139 
L 313.305033 231.768619 
L 314.031005 231.243849 
L 314.756977 230.913565 
L 315.482948 230.383666 
L 316.20892 230.088455 
L 316.934892 229.652429 
L 317.660864 228.453133 
L 318.386835 228.210454 
L 319.838779 226.371203 
L 320.56475 225.173162 
L 325.646552 219.474985 
L 326.372524 218.125756 
L 328.550439 216.683106 
L 330.002383 215.943282 
L 330.728354 214.940424 
L 332.180298 214.144259 
L 332.906269 213.166802 
L 333.632241 212.619156 
L 334.358213 212.301466 
L 335.084184 210.883227 
L 336.536128 209.33445 
L 337.2621 208.086929 
L 337.988071 207.656325 
L 338.714043 207.051721 
L 340.165986 206.542229 
L 340.891958 206.387104 
L 341.61793 205.419829 
L 344.521817 204.045042 
L 345.247788 203.984829 
L 345.97376 203.673668 
L 346.699732 202.857707 
L 348.151675 202.803565 
L 348.877647 201.742869 
L 350.32959 201.385206 
L 351.055562 201.370339 
L 352.507505 201.001628 
L 353.233477 200.380158 
L 353.959449 200.405821 
L 354.68542 199.543872 
L 355.411392 198.925991 
L 356.137364 198.821315 
L 356.863336 198.065015 
L 358.315279 198.005363 
L 359.041251 197.338139 
L 359.767222 197.335739 
L 361.945137 195.643569 
L 363.397081 195.517665 
L 364.849024 195.718606 
L 365.574996 195.839179 
L 366.300968 195.255515 
L 367.752911 195.443015 
L 368.478883 195.348583 
L 369.930826 195.701641 
L 370.656798 195.807775 
L 372.108741 195.305244 
L 374.286656 195.811996 
L 375.012628 196.08568 
L 375.7386 195.701866 
L 376.464571 195.491911 
L 377.190543 195.145758 
L 377.916515 195.271824 
L 378.642487 194.722353 
L 380.820402 194.688955 
L 381.546373 194.803491 
L 382.272345 194.761155 
L 383.724289 195.042916 
L 385.176232 194.304712 
L 386.628175 194.230761 
L 387.354147 194.09772 
L 388.080119 193.731967 
L 389.532062 193.576135 
L 390.258034 192.904322 
L 390.984006 192.719129 
L 391.709977 192.149391 
L 392.435949 191.942369 
L 393.161921 191.220258 
L 393.887892 190.888915 
L 394.613864 190.09354 
L 395.339836 189.738293 
L 396.065807 188.885688 
L 396.791779 188.226362 
L 399.695666 186.43152 
L 400.421638 186.056731 
L 401.147609 185.832654 
L 401.873581 185.315795 
L 402.599553 185.090988 
L 403.325524 184.627005 
L 404.051496 183.869357 
L 406.229411 182.591381 
L 407.681355 180.964133 
L 408.407326 180.054167 
L 409.133298 179.428457 
L 409.85927 178.524862 
L 410.585242 177.807275 
L 411.311213 176.619483 
L 412.037185 175.851196 
L 413.489128 173.407215 
L 414.2151 172.452826 
L 417.844959 165.914982 
L 420.748845 161.610264 
L 421.474817 160.095917 
L 422.200789 158.91275 
L 423.652732 155.896796 
L 425.830647 151.81255 
L 430.912449 140.887501 
L 432.364393 137.696996 
L 433.090364 136.331873 
L 434.542308 133.233386 
L 435.268279 131.903969 
L 435.994251 130.297525 
L 441.076053 120.760982 
L 446.883827 108.628695 
L 449.787713 102.493685 
L 451.239657 99.491087 
L 452.6916 96.415083 
L 455.595487 90.479241 
L 461.403261 77.859482 
L 465.033119 70.664517 
L 465.759091 69.36959 
L 465.759091 69.36959 
" style="fill:none;stroke:#8c564b;stroke-linecap:square;stroke-width:1.5;"/>
   </g>
   <g id="line2d_7">
    <path clip-path="url(#p428b697a0b)" d="M 59.940909 220.317876 
L 60.666881 219.778841 
L 61.392852 218.937951 
L 62.118824 218.585793 
L 62.844796 216.840134 
L 63.570768 216.393433 
L 64.296739 214.697649 
L 65.022711 213.435713 
L 65.748683 212.913271 
L 66.474654 211.043135 
L 67.926598 208.298544 
L 68.65257 207.542477 
L 69.378541 205.671702 
L 70.104513 204.956511 
L 70.830485 204.628785 
L 72.282428 202.27742 
L 73.0084 201.98079 
L 73.734371 201.870477 
L 74.460343 201.990914 
L 75.186315 202.250898 
L 78.090202 203.868067 
L 78.816173 204.240252 
L 79.542145 204.937289 
L 80.268117 204.533456 
L 82.446032 206.596118 
L 83.172004 206.041172 
L 83.897975 206.890906 
L 86.07589 208.880581 
L 86.801862 208.74728 
L 87.527834 209.144263 
L 88.253805 209.303484 
L 88.979777 210.033037 
L 89.705749 209.753662 
L 91.157692 211.266748 
L 91.883664 211.139795 
L 93.335607 212.652974 
L 94.061579 212.783285 
L 94.787551 213.389875 
L 95.513523 213.32457 
L 96.239494 213.628132 
L 96.965466 214.200734 
L 97.691438 214.242119 
L 99.869353 216.226463 
L 100.595324 216.349568 
L 103.499211 218.831379 
L 104.951155 220.388659 
L 105.677126 220.990247 
L 107.855041 223.553481 
L 108.581013 224.187823 
L 109.306985 224.634879 
L 110.032957 225.581445 
L 110.758928 226.19874 
L 112.210872 228.084308 
L 112.936843 228.361579 
L 115.114758 230.833521 
L 115.84073 231.741034 
L 116.566702 232.2276 
L 117.292674 232.45467 
L 118.018645 232.867399 
L 123.826419 238.765717 
L 126.004334 240.375194 
L 126.730306 241.118816 
L 128.182249 242.123088 
L 129.634193 243.534532 
L 131.086136 244.996362 
L 131.812108 245.101569 
L 133.264051 246.432297 
L 133.990023 246.22209 
L 135.441966 246.971557 
L 139.797796 250.050499 
L 140.523768 250.447094 
L 142.701683 252.0723 
L 143.427655 251.891328 
L 144.153627 252.333996 
L 144.879598 252.131699 
L 146.331542 251.876542 
L 147.057513 252.016932 
L 148.509457 251.880728 
L 151.413344 252.512368 
L 153.591259 253.321412 
L 155.043202 254.074956 
L 155.769174 253.36412 
L 156.495146 253.408321 
L 157.221117 253.257466 
L 158.673061 253.579169 
L 159.399032 253.483258 
L 160.125004 252.448838 
L 160.850976 252.243806 
L 161.576947 251.291053 
L 162.302919 251.025112 
L 163.028891 249.839376 
L 164.480834 249.235979 
L 165.206806 248.573301 
L 165.932778 248.107237 
L 166.658749 246.731295 
L 167.384721 246.029296 
L 168.110693 245.567401 
L 169.562636 245.013604 
L 170.288608 244.468423 
L 171.01458 244.300434 
L 171.740551 244.281198 
L 172.466523 244.084273 
L 173.192495 242.512097 
L 174.644438 241.476704 
L 175.37041 241.316927 
L 176.822353 240.674797 
L 178.274297 240.321587 
L 179.000268 240.066762 
L 179.72624 238.755005 
L 181.178183 238.445812 
L 181.904155 237.938478 
L 182.630127 236.412235 
L 183.356099 235.982222 
L 184.08207 235.722534 
L 184.808042 235.312532 
L 185.534014 234.003353 
L 186.985957 233.492665 
L 188.4379 233.559312 
L 189.163872 233.680533 
L 189.889844 233.481996 
L 190.615816 233.602877 
L 191.341787 233.311717 
L 192.067759 233.205464 
L 192.793731 232.370342 
L 193.519702 232.573239 
L 194.245674 232.622688 
L 196.423589 233.12003 
L 197.149561 232.286657 
L 198.601504 232.95388 
L 199.327476 232.073259 
L 200.053448 231.800987 
L 200.779419 231.775346 
L 201.505391 231.943925 
L 202.231363 231.907713 
L 202.957335 232.134895 
L 203.683306 232.166064 
L 204.409278 232.496527 
L 205.861221 232.923766 
L 208.039136 234.156481 
L 208.765108 233.474332 
L 209.49108 233.473686 
L 210.943023 232.670496 
L 211.668995 232.694833 
L 212.394967 232.036981 
L 213.120938 231.644968 
L 213.84691 231.70674 
L 214.572882 230.847386 
L 216.024825 230.948293 
L 216.750797 231.095937 
L 217.476769 230.657572 
L 218.20274 230.806036 
L 218.928712 229.948988 
L 219.654684 229.428155 
L 220.380655 229.241489 
L 221.106627 228.288567 
L 221.832599 227.645916 
L 222.55857 226.541192 
L 224.736486 225.577217 
L 225.462457 224.687568 
L 227.640372 224.275984 
L 228.366344 222.832313 
L 229.818288 222.686878 
L 230.544259 222.726611 
L 231.270231 221.747783 
L 231.996203 221.235107 
L 233.448146 219.45912 
L 234.174118 218.371835 
L 234.900089 217.981866 
L 236.352033 217.572639 
L 237.078005 217.513045 
L 237.803976 216.965016 
L 238.529948 216.715696 
L 241.433835 216.944414 
L 242.159806 217.243877 
L 242.885778 216.538364 
L 244.337722 215.45444 
L 245.063693 214.96867 
L 247.96758 214.943413 
L 248.693552 214.062615 
L 250.871467 214.160962 
L 252.32341 214.730859 
L 253.049382 214.668417 
L 254.501325 215.430894 
L 255.227297 214.685173 
L 255.953269 214.540477 
L 257.405212 215.288204 
L 258.131184 215.684827 
L 258.857156 215.327242 
L 259.583127 215.150932 
L 261.761042 216.315563 
L 262.487014 215.956765 
L 263.212986 216.040969 
L 263.938958 215.749716 
L 265.390901 216.212258 
L 266.842844 216.958877 
L 267.568816 216.573393 
L 270.472703 217.926743 
L 271.198675 218.382958 
L 271.924646 218.986049 
L 272.650618 219.285045 
L 273.37659 219.747222 
L 274.102561 219.654768 
L 277.73242 222.522484 
L 278.458392 223.129362 
L 279.184363 223.905078 
L 279.910335 223.736571 
L 282.814222 226.412943 
L 285.718109 229.403552 
L 286.44408 230.017384 
L 287.170052 230.833048 
L 287.896024 230.678633 
L 289.347967 231.59809 
L 290.073939 231.463013 
L 290.799911 231.891789 
L 291.525882 231.782006 
L 292.977826 232.740964 
L 293.703797 232.985867 
L 294.429769 233.452675 
L 295.155741 233.025163 
L 300.237543 235.114062 
L 300.963514 234.713228 
L 301.689486 234.599692 
L 302.415458 234.858055 
L 303.14143 234.793495 
L 303.867401 234.882216 
L 306.771288 234.519453 
L 307.49726 234.623972 
L 308.223231 233.919951 
L 309.675175 233.68799 
L 310.401147 232.810115 
L 311.127118 232.652936 
L 311.85309 231.62152 
L 312.579062 231.190518 
L 313.305033 230.275813 
L 314.031005 229.746924 
L 314.756977 229.397542 
L 315.482948 228.86175 
L 316.20892 228.554372 
L 316.934892 228.118609 
L 317.660864 226.914283 
L 318.386835 226.66221 
L 319.838779 224.79396 
L 320.56475 223.581459 
L 325.646552 217.601009 
L 326.372524 216.188927 
L 328.550439 214.586786 
L 330.002383 213.782748 
L 330.728354 212.737072 
L 332.180298 211.880844 
L 332.906269 210.851644 
L 333.632241 210.276855 
L 334.358213 209.922531 
L 335.084184 208.466209 
L 336.536128 206.778024 
L 337.2621 205.48461 
L 337.988071 205.005523 
L 338.714043 204.294207 
L 340.165986 203.669995 
L 340.891958 203.465408 
L 341.61793 202.433702 
L 343.795845 201.408066 
L 344.521817 200.895717 
L 345.247788 200.792508 
L 345.97376 200.45706 
L 346.699732 199.575737 
L 348.151675 199.433497 
L 348.877647 198.344237 
L 350.32959 197.924923 
L 351.055562 197.886995 
L 352.507505 197.464645 
L 353.233477 196.813413 
L 353.959449 196.821613 
L 354.68542 195.922635 
L 355.411392 195.274584 
L 356.137364 195.14546 
L 356.863336 194.371661 
L 358.315279 194.264777 
L 359.041251 193.569433 
L 359.767222 193.551961 
L 361.945137 191.779887 
L 363.397081 191.595748 
L 364.849024 191.763246 
L 365.574996 191.87275 
L 366.300968 191.292704 
L 367.752911 191.474822 
L 368.478883 191.381458 
L 369.930826 191.744492 
L 370.656798 191.866515 
L 372.108741 191.379488 
L 374.286656 191.938539 
L 375.012628 192.233037 
L 375.7386 191.863282 
L 376.464571 191.66186 
L 377.190543 191.321097 
L 377.916515 191.45096 
L 378.642487 190.892692 
L 380.820402 190.871253 
L 381.546373 190.985148 
L 382.272345 190.950774 
L 383.724289 191.259681 
L 385.176232 190.538155 
L 386.628175 190.469793 
L 387.354147 190.353723 
L 388.080119 189.990095 
L 389.532062 189.854179 
L 390.258034 189.188931 
L 390.984006 189.007389 
L 391.709977 188.433841 
L 392.435949 188.236732 
L 393.161921 187.508449 
L 393.887892 187.176932 
L 394.613864 186.368892 
L 395.339836 186.010538 
L 396.065807 185.148942 
L 396.791779 184.476394 
L 399.695666 182.684827 
L 400.421638 182.315366 
L 401.147609 182.097385 
L 401.873581 181.589874 
L 402.599553 181.370105 
L 403.325524 180.918428 
L 404.051496 180.1639 
L 406.229411 178.90864 
L 407.681355 177.283386 
L 408.407326 176.366188 
L 409.133298 175.742008 
L 409.85927 174.811175 
L 410.585242 174.084969 
L 411.311213 172.87468 
L 412.037185 172.091802 
L 413.489128 169.598425 
L 414.2151 168.616735 
L 417.844959 161.864733 
L 420.022874 158.431576 
L 420.748845 157.227591 
L 421.474817 155.627964 
L 422.200789 154.357415 
L 423.652732 151.144564 
L 425.830647 146.803879 
L 430.912449 135.177429 
L 431.638421 133.323958 
L 438.172166 119.689417 
L 439.62411 117.031528 
L 442.527996 110.580508 
L 443.253968 109.201908 
L 453.417572 86.106331 
L 454.869515 83.00521 
L 462.129232 66.459464 
L 463.581176 63.477026 
L 465.033119 60.5145 
L 465.759091 59.178735 
L 465.759091 59.178735 
" style="fill:none;stroke:#000000;stroke-dasharray:3.7,1.6;stroke-dashoffset:0;"/>
   </g>
   <g id="matplotlib.axis_1">
    <g id="xtick_1">
     <g id="line2d_8">
      <defs>
       <path d="M 0 0 
L 0 3.5 
" id="m8c12536285" style="stroke:#000000;stroke-width:0.8;"/>
      </defs>
      <g>
       <use style="stroke:#000000;stroke-width:0.8;" x="80.994088" xlink:href="#m8c12536285" y="294.118125"/>
      </g>
     </g>
     <g id="text_1">
      <!-- 100 -->
      <defs>
       <path d="M 12.40625 8.296875 
L 28.515625 8.296875 
L 28.515625 63.921875 
L 10.984375 60.40625 
L 10.984375 69.390625 
L 28.421875 72.90625 
L 38.28125 72.90625 
L 38.28125 8.296875 
L 54.390625 8.296875 
L 54.390625 0 
L 12.40625 0 
z
" id="DejaVuSans-49"/>
       <path d="M 31.78125 66.40625 
Q 24.171875 66.40625 20.328125 58.90625 
Q 16.5 51.421875 16.5 36.375 
Q 16.5 21.390625 20.328125 13.890625 
Q 24.171875 6.390625 31.78125 6.390625 
Q 39.453125 6.390625 43.28125 13.890625 
Q 47.125 21.390625 47.125 36.375 
Q 47.125 51.421875 43.28125 58.90625 
Q 39.453125 66.40625 31.78125 66.40625 
z
M 31.78125 74.21875 
Q 44.046875 74.21875 50.515625 64.515625 
Q 56.984375 54.828125 56.984375 36.375 
Q 56.984375 17.96875 50.515625 8.265625 
Q 44.046875 -1.421875 31.78125 -1.421875 
Q 19.53125 -1.421875 13.0625 8.265625 
Q 6.59375 17.96875 6.59375 36.375 
Q 6.59375 54.828125 13.0625 64.515625 
Q 19.53125 74.21875 31.78125 74.21875 
z
" id="DejaVuSans-48"/>
      </defs>
      <g transform="translate(71.450338 308.716563)scale(0.1 -0.1)">
       <use xlink:href="#DejaVuSans-49"/>
       <use x="63.623047" xlink:href="#DejaVuSans-48"/>
       <use x="127.246094" xlink:href="#DejaVuSans-48"/>
      </g>
     </g>
    </g>
    <g id="xtick_2">
     <g id="line2d_9">
      <g>
       <use style="stroke:#000000;stroke-width:0.8;" x="153.591259" xlink:href="#m8c12536285" y="294.118125"/>
      </g>
     </g>
     <g id="text_2">
      <!-- 200 -->
      <defs>
       <path d="M 19.1875 8.296875 
L 53.609375 8.296875 
L 53.609375 0 
L 7.328125 0 
L 7.328125 8.296875 
Q 12.9375 14.109375 22.625 23.890625 
Q 32.328125 33.6875 34.8125 36.53125 
Q 39.546875 41.84375 41.421875 45.53125 
Q 43.3125 49.21875 43.3125 52.78125 
Q 43.3125 58.59375 39.234375 62.25 
Q 35.15625 65.921875 28.609375 65.921875 
Q 23.96875 65.921875 18.8125 64.3125 
Q 13.671875 62.703125 7.8125 59.421875 
L 7.8125 69.390625 
Q 13.765625 71.78125 18.9375 73 
Q 24.125 74.21875 28.421875 74.21875 
Q 39.75 74.21875 46.484375 68.546875 
Q 53.21875 62.890625 53.21875 53.421875 
Q 53.21875 48.921875 51.53125 44.890625 
Q 49.859375 40.875 45.40625 35.40625 
Q 44.1875 33.984375 37.640625 27.21875 
Q 31.109375 20.453125 19.1875 8.296875 
z
" id="DejaVuSans-50"/>
      </defs>
      <g transform="translate(144.047509 308.716563)scale(0.1 -0.1)">
       <use xlink:href="#DejaVuSans-50"/>
       <use x="63.623047" xlink:href="#DejaVuSans-48"/>
       <use x="127.246094" xlink:href="#DejaVuSans-48"/>
      </g>
     </g>
    </g>
    <g id="xtick_3">
     <g id="line2d_10">
      <g>
       <use style="stroke:#000000;stroke-width:0.8;" x="226.188429" xlink:href="#m8c12536285" y="294.118125"/>
      </g>
     </g>
     <g id="text_3">
      <!-- 300 -->
      <defs>
       <path d="M 40.578125 39.3125 
Q 47.65625 37.796875 51.625 33 
Q 55.609375 28.21875 55.609375 21.1875 
Q 55.609375 10.40625 48.1875 4.484375 
Q 40.765625 -1.421875 27.09375 -1.421875 
Q 22.515625 -1.421875 17.65625 -0.515625 
Q 12.796875 0.390625 7.625 2.203125 
L 7.625 11.71875 
Q 11.71875 9.328125 16.59375 8.109375 
Q 21.484375 6.890625 26.8125 6.890625 
Q 36.078125 6.890625 40.9375 10.546875 
Q 45.796875 14.203125 45.796875 21.1875 
Q 45.796875 27.640625 41.28125 31.265625 
Q 36.765625 34.90625 28.71875 34.90625 
L 20.21875 34.90625 
L 20.21875 43.015625 
L 29.109375 43.015625 
Q 36.375 43.015625 40.234375 45.921875 
Q 44.09375 48.828125 44.09375 54.296875 
Q 44.09375 59.90625 40.109375 62.90625 
Q 36.140625 65.921875 28.71875 65.921875 
Q 24.65625 65.921875 20.015625 65.03125 
Q 15.375 64.15625 9.8125 62.3125 
L 9.8125 71.09375 
Q 15.4375 72.65625 20.34375 73.4375 
Q 25.25 74.21875 29.59375 74.21875 
Q 40.828125 74.21875 47.359375 69.109375 
Q 53.90625 64.015625 53.90625 55.328125 
Q 53.90625 49.265625 50.4375 45.09375 
Q 46.96875 40.921875 40.578125 39.3125 
z
" id="DejaVuSans-51"/>
      </defs>
      <g transform="translate(216.644679 308.716563)scale(0.1 -0.1)">
       <use xlink:href="#DejaVuSans-51"/>
       <use x="63.623047" xlink:href="#DejaVuSans-48"/>
       <use x="127.246094" xlink:href="#DejaVuSans-48"/>
      </g>
     </g>
    </g>
    <g id="xtick_4">
     <g id="line2d_11">
      <g>
       <use style="stroke:#000000;stroke-width:0.8;" x="298.785599" xlink:href="#m8c12536285" y="294.118125"/>
      </g>
     </g>
     <g id="text_4">
      <!-- 400 -->
      <defs>
       <path d="M 37.796875 64.3125 
L 12.890625 25.390625 
L 37.796875 25.390625 
z
M 35.203125 72.90625 
L 47.609375 72.90625 
L 47.609375 25.390625 
L 58.015625 25.390625 
L 58.015625 17.1875 
L 47.609375 17.1875 
L 47.609375 0 
L 37.796875 0 
L 37.796875 17.1875 
L 4.890625 17.1875 
L 4.890625 26.703125 
z
" id="DejaVuSans-52"/>
      </defs>
      <g transform="translate(289.241849 308.716563)scale(0.1 -0.1)">
       <use xlink:href="#DejaVuSans-52"/>
       <use x="63.623047" xlink:href="#DejaVuSans-48"/>
       <use x="127.246094" xlink:href="#DejaVuSans-48"/>
      </g>
     </g>
    </g>
    <g id="xtick_5">
     <g id="line2d_12">
      <g>
       <use style="stroke:#000000;stroke-width:0.8;" x="371.38277" xlink:href="#m8c12536285" y="294.118125"/>
      </g>
     </g>
     <g id="text_5">
      <!-- 500 -->
      <defs>
       <path d="M 10.796875 72.90625 
L 49.515625 72.90625 
L 49.515625 64.59375 
L 19.828125 64.59375 
L 19.828125 46.734375 
Q 21.96875 47.46875 24.109375 47.828125 
Q 26.265625 48.1875 28.421875 48.1875 
Q 40.625 48.1875 47.75 41.5 
Q 54.890625 34.8125 54.890625 23.390625 
Q 54.890625 11.625 47.5625 5.09375 
Q 40.234375 -1.421875 26.90625 -1.421875 
Q 22.3125 -1.421875 17.546875 -0.640625 
Q 12.796875 0.140625 7.71875 1.703125 
L 7.71875 11.625 
Q 12.109375 9.234375 16.796875 8.0625 
Q 21.484375 6.890625 26.703125 6.890625 
Q 35.15625 6.890625 40.078125 11.328125 
Q 45.015625 15.765625 45.015625 23.390625 
Q 45.015625 31 40.078125 35.4375 
Q 35.15625 39.890625 26.703125 39.890625 
Q 22.75 39.890625 18.8125 39.015625 
Q 14.890625 38.140625 10.796875 36.28125 
z
" id="DejaVuSans-53"/>
      </defs>
      <g transform="translate(361.83902 308.716563)scale(0.1 -0.1)">
       <use xlink:href="#DejaVuSans-53"/>
       <use x="63.623047" xlink:href="#DejaVuSans-48"/>
       <use x="127.246094" xlink:href="#DejaVuSans-48"/>
      </g>
     </g>
    </g>
    <g id="xtick_6">
     <g id="line2d_13">
      <g>
       <use style="stroke:#000000;stroke-width:0.8;" x="443.97994" xlink:href="#m8c12536285" y="294.118125"/>
      </g>
     </g>
     <g id="text_6">
      <!-- 600 -->
      <defs>
       <path d="M 33.015625 40.375 
Q 26.375 40.375 22.484375 35.828125 
Q 18.609375 31.296875 18.609375 23.390625 
Q 18.609375 15.53125 22.484375 10.953125 
Q 26.375 6.390625 33.015625 6.390625 
Q 39.65625 6.390625 43.53125 10.953125 
Q 47.40625 15.53125 47.40625 23.390625 
Q 47.40625 31.296875 43.53125 35.828125 
Q 39.65625 40.375 33.015625 40.375 
z
M 52.59375 71.296875 
L 52.59375 62.3125 
Q 48.875 64.0625 45.09375 64.984375 
Q 41.3125 65.921875 37.59375 65.921875 
Q 27.828125 65.921875 22.671875 59.328125 
Q 17.53125 52.734375 16.796875 39.40625 
Q 19.671875 43.65625 24.015625 45.921875 
Q 28.375 48.1875 33.59375 48.1875 
Q 44.578125 48.1875 50.953125 41.515625 
Q 57.328125 34.859375 57.328125 23.390625 
Q 57.328125 12.15625 50.6875 5.359375 
Q 44.046875 -1.421875 33.015625 -1.421875 
Q 20.359375 -1.421875 13.671875 8.265625 
Q 6.984375 17.96875 6.984375 36.375 
Q 6.984375 53.65625 15.1875 63.9375 
Q 23.390625 74.21875 37.203125 74.21875 
Q 40.921875 74.21875 44.703125 73.484375 
Q 48.484375 72.75 52.59375 71.296875 
z
" id="DejaVuSans-54"/>
      </defs>
      <g transform="translate(434.43619 308.716563)scale(0.1 -0.1)">
       <use xlink:href="#DejaVuSans-54"/>
       <use x="63.623047" xlink:href="#DejaVuSans-48"/>
       <use x="127.246094" xlink:href="#DejaVuSans-48"/>
      </g>
     </g>
    </g>
    <g id="text_7">
     <!-- Tempo -->
     <defs>
      <path d="M -0.296875 72.90625 
L 61.375 72.90625 
L 61.375 64.59375 
L 35.5 64.59375 
L 35.5 0 
L 25.59375 0 
L 25.59375 64.59375 
L -0.296875 64.59375 
z
" id="DejaVuSans-84"/>
      <path d="M 56.203125 29.59375 
L 56.203125 25.203125 
L 14.890625 25.203125 
Q 15.484375 15.921875 20.484375 11.0625 
Q 25.484375 6.203125 34.421875 6.203125 
Q 39.59375 6.203125 44.453125 7.46875 
Q 49.3125 8.734375 54.109375 11.28125 
L 54.109375 2.78125 
Q 49.265625 0.734375 44.1875 -0.34375 
Q 39.109375 -1.421875 33.890625 -1.421875 
Q 20.796875 -1.421875 13.15625 6.1875 
Q 5.515625 13.8125 5.515625 26.8125 
Q 5.515625 40.234375 12.765625 48.109375 
Q 20.015625 56 32.328125 56 
Q 43.359375 56 49.78125 48.890625 
Q 56.203125 41.796875 56.203125 29.59375 
z
M 47.21875 32.234375 
Q 47.125 39.59375 43.09375 43.984375 
Q 39.0625 48.390625 32.421875 48.390625 
Q 24.90625 48.390625 20.390625 44.140625 
Q 15.875 39.890625 15.1875 32.171875 
z
" id="DejaVuSans-101"/>
      <path d="M 52 44.1875 
Q 55.375 50.25 60.0625 53.125 
Q 64.75 56 71.09375 56 
Q 79.640625 56 84.28125 50.015625 
Q 88.921875 44.046875 88.921875 33.015625 
L 88.921875 0 
L 79.890625 0 
L 79.890625 32.71875 
Q 79.890625 40.578125 77.09375 44.375 
Q 74.3125 48.1875 68.609375 48.1875 
Q 61.625 48.1875 57.5625 43.546875 
Q 53.515625 38.921875 53.515625 30.90625 
L 53.515625 0 
L 44.484375 0 
L 44.484375 32.71875 
Q 44.484375 40.625 41.703125 44.40625 
Q 38.921875 48.1875 33.109375 48.1875 
Q 26.21875 48.1875 22.15625 43.53125 
Q 18.109375 38.875 18.109375 30.90625 
L 18.109375 0 
L 9.078125 0 
L 9.078125 54.6875 
L 18.109375 54.6875 
L 18.109375 46.1875 
Q 21.1875 51.21875 25.484375 53.609375 
Q 29.78125 56 35.6875 56 
Q 41.65625 56 45.828125 52.96875 
Q 50 49.953125 52 44.1875 
z
" id="DejaVuSans-109"/>
      <path d="M 18.109375 8.203125 
L 18.109375 -20.796875 
L 9.078125 -20.796875 
L 9.078125 54.6875 
L 18.109375 54.6875 
L 18.109375 46.390625 
Q 20.953125 51.265625 25.265625 53.625 
Q 29.59375 56 35.59375 56 
Q 45.5625 56 51.78125 48.09375 
Q 58.015625 40.1875 58.015625 27.296875 
Q 58.015625 14.40625 51.78125 6.484375 
Q 45.5625 -1.421875 35.59375 -1.421875 
Q 29.59375 -1.421875 25.265625 0.953125 
Q 20.953125 3.328125 18.109375 8.203125 
z
M 48.6875 27.296875 
Q 48.6875 37.203125 44.609375 42.84375 
Q 40.53125 48.484375 33.40625 48.484375 
Q 26.265625 48.484375 22.1875 42.84375 
Q 18.109375 37.203125 18.109375 27.296875 
Q 18.109375 17.390625 22.1875 11.75 
Q 26.265625 6.109375 33.40625 6.109375 
Q 40.53125 6.109375 44.609375 11.75 
Q 48.6875 17.390625 48.6875 27.296875 
z
" id="DejaVuSans-112"/>
      <path d="M 30.609375 48.390625 
Q 23.390625 48.390625 19.1875 42.75 
Q 14.984375 37.109375 14.984375 27.296875 
Q 14.984375 17.484375 19.15625 11.84375 
Q 23.34375 6.203125 30.609375 6.203125 
Q 37.796875 6.203125 41.984375 11.859375 
Q 46.1875 17.53125 46.1875 27.296875 
Q 46.1875 37.015625 41.984375 42.703125 
Q 37.796875 48.390625 30.609375 48.390625 
z
M 30.609375 56 
Q 42.328125 56 49.015625 48.375 
Q 55.71875 40.765625 55.71875 27.296875 
Q 55.71875 13.875 49.015625 6.21875 
Q 42.328125 -1.421875 30.609375 -1.421875 
Q 18.84375 -1.421875 12.171875 6.21875 
Q 5.515625 13.875 5.515625 27.296875 
Q 5.515625 40.765625 12.171875 48.375 
Q 18.84375 56 30.609375 56 
z
" id="DejaVuSans-111"/>
     </defs>
     <g transform="translate(246.465625 322.394687)scale(0.1 -0.1)">
      <use xlink:href="#DejaVuSans-84"/>
      <use x="44.083984" xlink:href="#DejaVuSans-101"/>
      <use x="105.607422" xlink:href="#DejaVuSans-109"/>
      <use x="203.019531" xlink:href="#DejaVuSans-112"/>
      <use x="266.496094" xlink:href="#DejaVuSans-111"/>
     </g>
    </g>
   </g>
   <g id="matplotlib.axis_2">
    <g id="ytick_1">
     <g id="line2d_14">
      <defs>
       <path d="M 0 0 
L -3.5 0 
" id="mf007b6656b" style="stroke:#000000;stroke-width:0.8;"/>
      </defs>
      <g>
       <use style="stroke:#000000;stroke-width:0.8;" x="39.65" xlink:href="#mf007b6656b" y="258.674431"/>
      </g>
     </g>
     <g id="text_8">
      <!-- 1000 -->
      <g transform="translate(7.2 262.47365)scale(0.1 -0.1)">
       <use xlink:href="#DejaVuSans-49"/>
       <use x="63.623047" xlink:href="#DejaVuSans-48"/>
       <use x="127.246094" xlink:href="#DejaVuSans-48"/>
       <use x="190.869141" xlink:href="#DejaVuSans-48"/>
      </g>
     </g>
    </g>
    <g id="ytick_2">
     <g id="line2d_15">
      <g>
       <use style="stroke:#000000;stroke-width:0.8;" x="39.65" xlink:href="#mf007b6656b" y="202.673991"/>
      </g>
     </g>
     <g id="text_9">
      <!-- 2000 -->
      <g transform="translate(7.2 206.47321)scale(0.1 -0.1)">
       <use xlink:href="#DejaVuSans-50"/>
       <use x="63.623047" xlink:href="#DejaVuSans-48"/>
       <use x="127.246094" xlink:href="#DejaVuSans-48"/>
       <use x="190.869141" xlink:href="#DejaVuSans-48"/>
      </g>
     </g>
    </g>
    <g id="ytick_3">
     <g id="line2d_16">
      <g>
       <use style="stroke:#000000;stroke-width:0.8;" x="39.65" xlink:href="#mf007b6656b" y="146.673551"/>
      </g>
     </g>
     <g id="text_10">
      <!-- 3000 -->
      <g transform="translate(7.2 150.472769)scale(0.1 -0.1)">
       <use xlink:href="#DejaVuSans-51"/>
       <use x="63.623047" xlink:href="#DejaVuSans-48"/>
       <use x="127.246094" xlink:href="#DejaVuSans-48"/>
       <use x="190.869141" xlink:href="#DejaVuSans-48"/>
      </g>
     </g>
    </g>
    <g id="ytick_4">
     <g id="line2d_17">
      <g>
       <use style="stroke:#000000;stroke-width:0.8;" x="39.65" xlink:href="#mf007b6656b" y="90.673111"/>
      </g>
     </g>
     <g id="text_11">
      <!-- 4000 -->
      <g transform="translate(7.2 94.472329)scale(0.1 -0.1)">
       <use xlink:href="#DejaVuSans-52"/>
       <use x="63.623047" xlink:href="#DejaVuSans-48"/>
       <use x="127.246094" xlink:href="#DejaVuSans-48"/>
       <use x="190.869141" xlink:href="#DejaVuSans-48"/>
      </g>
     </g>
    </g>
    <g id="ytick_5">
     <g id="line2d_18">
      <g>
       <use style="stroke:#000000;stroke-width:0.8;" x="39.65" xlink:href="#mf007b6656b" y="34.67267"/>
      </g>
     </g>
     <g id="text_12">
      <!-- 5000 -->
      <g transform="translate(7.2 38.471889)scale(0.1 -0.1)">
       <use xlink:href="#DejaVuSans-53"/>
       <use x="63.623047" xlink:href="#DejaVuSans-48"/>
       <use x="127.246094" xlink:href="#DejaVuSans-48"/>
       <use x="190.869141" xlink:href="#DejaVuSans-48"/>
      </g>
     </g>
    </g>
   </g>
   <g id="patch_3">
    <path d="M 39.65 294.118125 
L 39.65 22.318125 
" style="fill:none;stroke:#000000;stroke-linecap:square;stroke-linejoin:miter;stroke-width:0.8;"/>
   </g>
   <g id="patch_4">
    <path d="M 39.65 294.118125 
L 486.05 294.118125 
" style="fill:none;stroke:#000000;stroke-linecap:square;stroke-linejoin:miter;stroke-width:0.8;"/>
   </g>
   <g id="text_13">
    <!-- Q_fc -->
    <defs>
     <path d="M 39.40625 66.21875 
Q 28.65625 66.21875 22.328125 58.203125 
Q 16.015625 50.203125 16.015625 36.375 
Q 16.015625 22.609375 22.328125 14.59375 
Q 28.65625 6.59375 39.40625 6.59375 
Q 50.140625 6.59375 56.421875 14.59375 
Q 62.703125 22.609375 62.703125 36.375 
Q 62.703125 50.203125 56.421875 58.203125 
Q 50.140625 66.21875 39.40625 66.21875 
z
M 53.21875 1.3125 
L 66.21875 -12.890625 
L 54.296875 -12.890625 
L 43.5 -1.21875 
Q 41.890625 -1.3125 41.03125 -1.359375 
Q 40.1875 -1.421875 39.40625 -1.421875 
Q 24.03125 -1.421875 14.8125 8.859375 
Q 5.609375 19.140625 5.609375 36.375 
Q 5.609375 53.65625 14.8125 63.9375 
Q 24.03125 74.21875 39.40625 74.21875 
Q 54.734375 74.21875 63.90625 63.9375 
Q 73.09375 53.65625 73.09375 36.375 
Q 73.09375 23.6875 67.984375 14.640625 
Q 62.890625 5.609375 53.21875 1.3125 
z
" id="DejaVuSans-81"/>
     <path d="M 50.984375 -16.609375 
L 50.984375 -23.578125 
L -0.984375 -23.578125 
L -0.984375 -16.609375 
z
" id="DejaVuSans-95"/>
     <path d="M 37.109375 75.984375 
L 37.109375 68.5 
L 28.515625 68.5 
Q 23.6875 68.5 21.796875 66.546875 
Q 19.921875 64.59375 19.921875 59.515625 
L 19.921875 54.6875 
L 34.71875 54.6875 
L 34.71875 47.703125 
L 19.921875 47.703125 
L 19.921875 0 
L 10.890625 0 
L 10.890625 47.703125 
L 2.296875 47.703125 
L 2.296875 54.6875 
L 10.890625 54.6875 
L 10.890625 58.5 
Q 10.890625 67.625 15.140625 71.796875 
Q 19.390625 75.984375 28.609375 75.984375 
z
" id="DejaVuSans-102"/>
     <path d="M 48.78125 52.59375 
L 48.78125 44.1875 
Q 44.96875 46.296875 41.140625 47.34375 
Q 37.3125 48.390625 33.40625 48.390625 
Q 24.65625 48.390625 19.8125 42.84375 
Q 14.984375 37.3125 14.984375 27.296875 
Q 14.984375 17.28125 19.8125 11.734375 
Q 24.65625 6.203125 33.40625 6.203125 
Q 37.3125 6.203125 41.140625 7.25 
Q 44.96875 8.296875 48.78125 10.40625 
L 48.78125 2.09375 
Q 45.015625 0.34375 40.984375 -0.53125 
Q 36.96875 -1.421875 32.421875 -1.421875 
Q 20.0625 -1.421875 12.78125 6.34375 
Q 5.515625 14.109375 5.515625 27.296875 
Q 5.515625 40.671875 12.859375 48.328125 
Q 20.21875 56 33.015625 56 
Q 37.15625 56 41.109375 55.140625 
Q 45.0625 54.296875 48.78125 52.59375 
z
" id="DejaVuSans-99"/>
    </defs>
    <g transform="translate(249.715625 16.318125)scale(0.12 -0.12)">
     <use xlink:href="#DejaVuSans-81"/>
     <use x="78.710938" xlink:href="#DejaVuSans-95"/>
     <use x="128.710938" xlink:href="#DejaVuSans-102"/>
     <use x="163.916016" xlink:href="#DejaVuSans-99"/>
    </g>
   </g>
   <g id="legend_1">
    <g id="patch_5">
     <path d="M 493.05 211.091563 
L 631.775 211.091563 
Q 633.775 211.091563 633.775 209.091563 
L 633.775 107.344688 
Q 633.775 105.344688 631.775 105.344688 
L 493.05 105.344688 
Q 491.05 105.344688 491.05 107.344688 
L 491.05 209.091563 
Q 491.05 211.091563 493.05 211.091563 
z
" style="fill:#ffffff;opacity:0.8;stroke:#cccccc;stroke-linejoin:miter;"/>
    </g>
    <g id="line2d_19">
     <path d="M 495.05 113.443125 
L 515.05 113.443125 
" style="fill:none;stroke:#000000;stroke-dasharray:3.7,1.6;stroke-dashoffset:0;"/>
    </g>
    <g id="line2d_20"/>
    <g id="text_14">
     <!-- Baseline -->
     <defs>
      <path d="M 19.671875 34.8125 
L 19.671875 8.109375 
L 35.5 8.109375 
Q 43.453125 8.109375 47.28125 11.40625 
Q 51.125 14.703125 51.125 21.484375 
Q 51.125 28.328125 47.28125 31.5625 
Q 43.453125 34.8125 35.5 34.8125 
z
M 19.671875 64.796875 
L 19.671875 42.828125 
L 34.28125 42.828125 
Q 41.5 42.828125 45.03125 45.53125 
Q 48.578125 48.25 48.578125 53.8125 
Q 48.578125 59.328125 45.03125 62.0625 
Q 41.5 64.796875 34.28125 64.796875 
z
M 9.8125 72.90625 
L 35.015625 72.90625 
Q 46.296875 72.90625 52.390625 68.21875 
Q 58.5 63.53125 58.5 54.890625 
Q 58.5 48.1875 55.375 44.234375 
Q 52.25 40.28125 46.1875 39.3125 
Q 53.46875 37.75 57.5 32.78125 
Q 61.53125 27.828125 61.53125 20.40625 
Q 61.53125 10.640625 54.890625 5.3125 
Q 48.25 0 35.984375 0 
L 9.8125 0 
z
" id="DejaVuSans-66"/>
      <path d="M 34.28125 27.484375 
Q 23.390625 27.484375 19.1875 25 
Q 14.984375 22.515625 14.984375 16.5 
Q 14.984375 11.71875 18.140625 8.90625 
Q 21.296875 6.109375 26.703125 6.109375 
Q 34.1875 6.109375 38.703125 11.40625 
Q 43.21875 16.703125 43.21875 25.484375 
L 43.21875 27.484375 
z
M 52.203125 31.203125 
L 52.203125 0 
L 43.21875 0 
L 43.21875 8.296875 
Q 40.140625 3.328125 35.546875 0.953125 
Q 30.953125 -1.421875 24.3125 -1.421875 
Q 15.921875 -1.421875 10.953125 3.296875 
Q 6 8.015625 6 15.921875 
Q 6 25.140625 12.171875 29.828125 
Q 18.359375 34.515625 30.609375 34.515625 
L 43.21875 34.515625 
L 43.21875 35.40625 
Q 43.21875 41.609375 39.140625 45 
Q 35.0625 48.390625 27.6875 48.390625 
Q 23 48.390625 18.546875 47.265625 
Q 14.109375 46.140625 10.015625 43.890625 
L 10.015625 52.203125 
Q 14.9375 54.109375 19.578125 55.046875 
Q 24.21875 56 28.609375 56 
Q 40.484375 56 46.34375 49.84375 
Q 52.203125 43.703125 52.203125 31.203125 
z
" id="DejaVuSans-97"/>
      <path d="M 44.28125 53.078125 
L 44.28125 44.578125 
Q 40.484375 46.53125 36.375 47.5 
Q 32.28125 48.484375 27.875 48.484375 
Q 21.1875 48.484375 17.84375 46.4375 
Q 14.5 44.390625 14.5 40.28125 
Q 14.5 37.15625 16.890625 35.375 
Q 19.28125 33.59375 26.515625 31.984375 
L 29.59375 31.296875 
Q 39.15625 29.25 43.1875 25.515625 
Q 47.21875 21.78125 47.21875 15.09375 
Q 47.21875 7.46875 41.1875 3.015625 
Q 35.15625 -1.421875 24.609375 -1.421875 
Q 20.21875 -1.421875 15.453125 -0.5625 
Q 10.6875 0.296875 5.421875 2 
L 5.421875 11.28125 
Q 10.40625 8.6875 15.234375 7.390625 
Q 20.0625 6.109375 24.8125 6.109375 
Q 31.15625 6.109375 34.5625 8.28125 
Q 37.984375 10.453125 37.984375 14.40625 
Q 37.984375 18.0625 35.515625 20.015625 
Q 33.0625 21.96875 24.703125 23.78125 
L 21.578125 24.515625 
Q 13.234375 26.265625 9.515625 29.90625 
Q 5.8125 33.546875 5.8125 39.890625 
Q 5.8125 47.609375 11.28125 51.796875 
Q 16.75 56 26.8125 56 
Q 31.78125 56 36.171875 55.265625 
Q 40.578125 54.546875 44.28125 53.078125 
z
" id="DejaVuSans-115"/>
      <path d="M 9.421875 75.984375 
L 18.40625 75.984375 
L 18.40625 0 
L 9.421875 0 
z
" id="DejaVuSans-108"/>
      <path d="M 9.421875 54.6875 
L 18.40625 54.6875 
L 18.40625 0 
L 9.421875 0 
z
M 9.421875 75.984375 
L 18.40625 75.984375 
L 18.40625 64.59375 
L 9.421875 64.59375 
z
" id="DejaVuSans-105"/>
      <path d="M 54.890625 33.015625 
L 54.890625 0 
L 45.90625 0 
L 45.90625 32.71875 
Q 45.90625 40.484375 42.875 44.328125 
Q 39.84375 48.1875 33.796875 48.1875 
Q 26.515625 48.1875 22.3125 43.546875 
Q 18.109375 38.921875 18.109375 30.90625 
L 18.109375 0 
L 9.078125 0 
L 9.078125 54.6875 
L 18.109375 54.6875 
L 18.109375 46.1875 
Q 21.34375 51.125 25.703125 53.5625 
Q 30.078125 56 35.796875 56 
Q 45.21875 56 50.046875 50.171875 
Q 54.890625 44.34375 54.890625 33.015625 
z
" id="DejaVuSans-110"/>
     </defs>
     <g transform="translate(523.05 116.943125)scale(0.1 -0.1)">
      <use xlink:href="#DejaVuSans-66"/>
      <use x="68.603516" xlink:href="#DejaVuSans-97"/>
      <use x="129.882812" xlink:href="#DejaVuSans-115"/>
      <use x="181.982422" xlink:href="#DejaVuSans-101"/>
      <use x="243.505859" xlink:href="#DejaVuSans-108"/>
      <use x="271.289062" xlink:href="#DejaVuSans-105"/>
      <use x="299.072266" xlink:href="#DejaVuSans-110"/>
      <use x="362.451172" xlink:href="#DejaVuSans-101"/>
     </g>
    </g>
    <g id="line2d_21">
     <path d="M 495.05 128.12125 
L 515.05 128.12125 
" style="fill:none;stroke:#1f77b4;stroke-linecap:square;stroke-width:1.5;"/>
    </g>
    <g id="line2d_22"/>
    <g id="text_15">
     <!-- Maior acesso credito -->
     <defs>
      <path d="M 9.8125 72.90625 
L 24.515625 72.90625 
L 43.109375 23.296875 
L 61.8125 72.90625 
L 76.515625 72.90625 
L 76.515625 0 
L 66.890625 0 
L 66.890625 64.015625 
L 48.09375 14.015625 
L 38.1875 14.015625 
L 19.390625 64.015625 
L 19.390625 0 
L 9.8125 0 
z
" id="DejaVuSans-77"/>
      <path d="M 41.109375 46.296875 
Q 39.59375 47.171875 37.8125 47.578125 
Q 36.03125 48 33.890625 48 
Q 26.265625 48 22.1875 43.046875 
Q 18.109375 38.09375 18.109375 28.8125 
L 18.109375 0 
L 9.078125 0 
L 9.078125 54.6875 
L 18.109375 54.6875 
L 18.109375 46.1875 
Q 20.953125 51.171875 25.484375 53.578125 
Q 30.03125 56 36.53125 56 
Q 37.453125 56 38.578125 55.875 
Q 39.703125 55.765625 41.0625 55.515625 
z
" id="DejaVuSans-114"/>
      <path id="DejaVuSans-32"/>
      <path d="M 45.40625 46.390625 
L 45.40625 75.984375 
L 54.390625 75.984375 
L 54.390625 0 
L 45.40625 0 
L 45.40625 8.203125 
Q 42.578125 3.328125 38.25 0.953125 
Q 33.9375 -1.421875 27.875 -1.421875 
Q 17.96875 -1.421875 11.734375 6.484375 
Q 5.515625 14.40625 5.515625 27.296875 
Q 5.515625 40.1875 11.734375 48.09375 
Q 17.96875 56 27.875 56 
Q 33.9375 56 38.25 53.625 
Q 42.578125 51.265625 45.40625 46.390625 
z
M 14.796875 27.296875 
Q 14.796875 17.390625 18.875 11.75 
Q 22.953125 6.109375 30.078125 6.109375 
Q 37.203125 6.109375 41.296875 11.75 
Q 45.40625 17.390625 45.40625 27.296875 
Q 45.40625 37.203125 41.296875 42.84375 
Q 37.203125 48.484375 30.078125 48.484375 
Q 22.953125 48.484375 18.875 42.84375 
Q 14.796875 37.203125 14.796875 27.296875 
z
" id="DejaVuSans-100"/>
      <path d="M 18.3125 70.21875 
L 18.3125 54.6875 
L 36.8125 54.6875 
L 36.8125 47.703125 
L 18.3125 47.703125 
L 18.3125 18.015625 
Q 18.3125 11.328125 20.140625 9.421875 
Q 21.96875 7.515625 27.59375 7.515625 
L 36.8125 7.515625 
L 36.8125 0 
L 27.59375 0 
Q 17.1875 0 13.234375 3.875 
Q 9.28125 7.765625 9.28125 18.015625 
L 9.28125 47.703125 
L 2.6875 47.703125 
L 2.6875 54.6875 
L 9.28125 54.6875 
L 9.28125 70.21875 
z
" id="DejaVuSans-116"/>
     </defs>
     <g transform="translate(523.05 131.62125)scale(0.1 -0.1)">
      <use xlink:href="#DejaVuSans-77"/>
      <use x="86.279297" xlink:href="#DejaVuSans-97"/>
      <use x="147.558594" xlink:href="#DejaVuSans-105"/>
      <use x="175.341797" xlink:href="#DejaVuSans-111"/>
      <use x="236.523438" xlink:href="#DejaVuSans-114"/>
      <use x="277.636719" xlink:href="#DejaVuSans-32"/>
      <use x="309.423828" xlink:href="#DejaVuSans-97"/>
      <use x="370.703125" xlink:href="#DejaVuSans-99"/>
      <use x="425.683594" xlink:href="#DejaVuSans-101"/>
      <use x="487.207031" xlink:href="#DejaVuSans-115"/>
      <use x="539.306641" xlink:href="#DejaVuSans-115"/>
      <use x="591.40625" xlink:href="#DejaVuSans-111"/>
      <use x="652.587891" xlink:href="#DejaVuSans-32"/>
      <use x="684.375" xlink:href="#DejaVuSans-99"/>
      <use x="739.355469" xlink:href="#DejaVuSans-114"/>
      <use x="778.21875" xlink:href="#DejaVuSans-101"/>
      <use x="839.742188" xlink:href="#DejaVuSans-100"/>
      <use x="903.21875" xlink:href="#DejaVuSans-105"/>
      <use x="931.001953" xlink:href="#DejaVuSans-116"/>
      <use x="970.210938" xlink:href="#DejaVuSans-111"/>
     </g>
    </g>
    <g id="line2d_23">
     <path d="M 495.05 142.799375 
L 515.05 142.799375 
" style="fill:none;stroke:#ff7f0e;stroke-linecap:square;stroke-width:1.5;"/>
    </g>
    <g id="line2d_24"/>
    <g id="text_16">
     <!-- Menor acesso credito -->
     <g transform="translate(523.05 146.299375)scale(0.1 -0.1)">
      <use xlink:href="#DejaVuSans-77"/>
      <use x="86.279297" xlink:href="#DejaVuSans-101"/>
      <use x="147.802734" xlink:href="#DejaVuSans-110"/>
      <use x="211.181641" xlink:href="#DejaVuSans-111"/>
      <use x="272.363281" xlink:href="#DejaVuSans-114"/>
      <use x="313.476562" xlink:href="#DejaVuSans-32"/>
      <use x="345.263672" xlink:href="#DejaVuSans-97"/>
      <use x="406.542969" xlink:href="#DejaVuSans-99"/>
      <use x="461.523438" xlink:href="#DejaVuSans-101"/>
      <use x="523.046875" xlink:href="#DejaVuSans-115"/>
      <use x="575.146484" xlink:href="#DejaVuSans-115"/>
      <use x="627.246094" xlink:href="#DejaVuSans-111"/>
      <use x="688.427734" xlink:href="#DejaVuSans-32"/>
      <use x="720.214844" xlink:href="#DejaVuSans-99"/>
      <use x="775.195312" xlink:href="#DejaVuSans-114"/>
      <use x="814.058594" xlink:href="#DejaVuSans-101"/>
      <use x="875.582031" xlink:href="#DejaVuSans-100"/>
      <use x="939.058594" xlink:href="#DejaVuSans-105"/>
      <use x="966.841797" xlink:href="#DejaVuSans-116"/>
      <use x="1006.050781" xlink:href="#DejaVuSans-111"/>
     </g>
    </g>
    <g id="line2d_25">
     <path d="M 495.05 157.4775 
L 515.05 157.4775 
" style="fill:none;stroke:#2ca02c;stroke-linecap:square;stroke-width:1.5;"/>
    </g>
    <g id="line2d_26"/>
    <g id="text_17">
     <!-- Maior renda basica -->
     <defs>
      <path d="M 48.6875 27.296875 
Q 48.6875 37.203125 44.609375 42.84375 
Q 40.53125 48.484375 33.40625 48.484375 
Q 26.265625 48.484375 22.1875 42.84375 
Q 18.109375 37.203125 18.109375 27.296875 
Q 18.109375 17.390625 22.1875 11.75 
Q 26.265625 6.109375 33.40625 6.109375 
Q 40.53125 6.109375 44.609375 11.75 
Q 48.6875 17.390625 48.6875 27.296875 
z
M 18.109375 46.390625 
Q 20.953125 51.265625 25.265625 53.625 
Q 29.59375 56 35.59375 56 
Q 45.5625 56 51.78125 48.09375 
Q 58.015625 40.1875 58.015625 27.296875 
Q 58.015625 14.40625 51.78125 6.484375 
Q 45.5625 -1.421875 35.59375 -1.421875 
Q 29.59375 -1.421875 25.265625 0.953125 
Q 20.953125 3.328125 18.109375 8.203125 
L 18.109375 0 
L 9.078125 0 
L 9.078125 75.984375 
L 18.109375 75.984375 
z
" id="DejaVuSans-98"/>
     </defs>
     <g transform="translate(523.05 160.9775)scale(0.1 -0.1)">
      <use xlink:href="#DejaVuSans-77"/>
      <use x="86.279297" xlink:href="#DejaVuSans-97"/>
      <use x="147.558594" xlink:href="#DejaVuSans-105"/>
      <use x="175.341797" xlink:href="#DejaVuSans-111"/>
      <use x="236.523438" xlink:href="#DejaVuSans-114"/>
      <use x="277.636719" xlink:href="#DejaVuSans-32"/>
      <use x="309.423828" xlink:href="#DejaVuSans-114"/>
      <use x="348.287109" xlink:href="#DejaVuSans-101"/>
      <use x="409.810547" xlink:href="#DejaVuSans-110"/>
      <use x="473.189453" xlink:href="#DejaVuSans-100"/>
      <use x="536.666016" xlink:href="#DejaVuSans-97"/>
      <use x="597.945312" xlink:href="#DejaVuSans-32"/>
      <use x="629.732422" xlink:href="#DejaVuSans-98"/>
      <use x="693.208984" xlink:href="#DejaVuSans-97"/>
      <use x="754.488281" xlink:href="#DejaVuSans-115"/>
      <use x="806.587891" xlink:href="#DejaVuSans-105"/>
      <use x="834.371094" xlink:href="#DejaVuSans-99"/>
      <use x="889.351562" xlink:href="#DejaVuSans-97"/>
     </g>
    </g>
    <g id="line2d_27">
     <path d="M 495.05 172.155625 
L 515.05 172.155625 
" style="fill:none;stroke:#d62728;stroke-linecap:square;stroke-width:1.5;"/>
    </g>
    <g id="line2d_28"/>
    <g id="text_18">
     <!-- Sem renda basica -->
     <defs>
      <path d="M 53.515625 70.515625 
L 53.515625 60.890625 
Q 47.90625 63.578125 42.921875 64.890625 
Q 37.9375 66.21875 33.296875 66.21875 
Q 25.25 66.21875 20.875 63.09375 
Q 16.5 59.96875 16.5 54.203125 
Q 16.5 49.359375 19.40625 46.890625 
Q 22.3125 44.4375 30.421875 42.921875 
L 36.375 41.703125 
Q 47.40625 39.59375 52.65625 34.296875 
Q 57.90625 29 57.90625 20.125 
Q 57.90625 9.515625 50.796875 4.046875 
Q 43.703125 -1.421875 29.984375 -1.421875 
Q 24.8125 -1.421875 18.96875 -0.25 
Q 13.140625 0.921875 6.890625 3.21875 
L 6.890625 13.375 
Q 12.890625 10.015625 18.65625 8.296875 
Q 24.421875 6.59375 29.984375 6.59375 
Q 38.421875 6.59375 43.015625 9.90625 
Q 47.609375 13.234375 47.609375 19.390625 
Q 47.609375 24.75 44.3125 27.78125 
Q 41.015625 30.8125 33.5 32.328125 
L 27.484375 33.5 
Q 16.453125 35.6875 11.515625 40.375 
Q 6.59375 45.0625 6.59375 53.421875 
Q 6.59375 63.09375 13.40625 68.65625 
Q 20.21875 74.21875 32.171875 74.21875 
Q 37.3125 74.21875 42.625 73.28125 
Q 47.953125 72.359375 53.515625 70.515625 
z
" id="DejaVuSans-83"/>
     </defs>
     <g transform="translate(523.05 175.655625)scale(0.1 -0.1)">
      <use xlink:href="#DejaVuSans-83"/>
      <use x="63.476562" xlink:href="#DejaVuSans-101"/>
      <use x="125" xlink:href="#DejaVuSans-109"/>
      <use x="222.412109" xlink:href="#DejaVuSans-32"/>
      <use x="254.199219" xlink:href="#DejaVuSans-114"/>
      <use x="293.0625" xlink:href="#DejaVuSans-101"/>
      <use x="354.585938" xlink:href="#DejaVuSans-110"/>
      <use x="417.964844" xlink:href="#DejaVuSans-100"/>
      <use x="481.441406" xlink:href="#DejaVuSans-97"/>
      <use x="542.720703" xlink:href="#DejaVuSans-32"/>
      <use x="574.507812" xlink:href="#DejaVuSans-98"/>
      <use x="637.984375" xlink:href="#DejaVuSans-97"/>
      <use x="699.263672" xlink:href="#DejaVuSans-115"/>
      <use x="751.363281" xlink:href="#DejaVuSans-105"/>
      <use x="779.146484" xlink:href="#DejaVuSans-99"/>
      <use x="834.126953" xlink:href="#DejaVuSans-97"/>
     </g>
    </g>
    <g id="line2d_29">
     <path d="M 495.05 186.83375 
L 515.05 186.83375 
" style="fill:none;stroke:#9467bd;stroke-linecap:square;stroke-width:1.5;"/>
    </g>
    <g id="line2d_30"/>
    <g id="text_19">
     <!-- Maior sal minimo -->
     <g transform="translate(523.05 190.33375)scale(0.1 -0.1)">
      <use xlink:href="#DejaVuSans-77"/>
      <use x="86.279297" xlink:href="#DejaVuSans-97"/>
      <use x="147.558594" xlink:href="#DejaVuSans-105"/>
      <use x="175.341797" xlink:href="#DejaVuSans-111"/>
      <use x="236.523438" xlink:href="#DejaVuSans-114"/>
      <use x="277.636719" xlink:href="#DejaVuSans-32"/>
      <use x="309.423828" xlink:href="#DejaVuSans-115"/>
      <use x="361.523438" xlink:href="#DejaVuSans-97"/>
      <use x="422.802734" xlink:href="#DejaVuSans-108"/>
      <use x="450.585938" xlink:href="#DejaVuSans-32"/>
      <use x="482.373047" xlink:href="#DejaVuSans-109"/>
      <use x="579.785156" xlink:href="#DejaVuSans-105"/>
      <use x="607.568359" xlink:href="#DejaVuSans-110"/>
      <use x="670.947266" xlink:href="#DejaVuSans-105"/>
      <use x="698.730469" xlink:href="#DejaVuSans-109"/>
      <use x="796.142578" xlink:href="#DejaVuSans-111"/>
     </g>
    </g>
    <g id="line2d_31">
     <path d="M 495.05 201.511875 
L 515.05 201.511875 
" style="fill:none;stroke:#8c564b;stroke-linecap:square;stroke-width:1.5;"/>
    </g>
    <g id="line2d_32"/>
    <g id="text_20">
     <!-- Imposto progressivo -->
     <defs>
      <path d="M 9.8125 72.90625 
L 19.671875 72.90625 
L 19.671875 0 
L 9.8125 0 
z
" id="DejaVuSans-73"/>
      <path d="M 45.40625 27.984375 
Q 45.40625 37.75 41.375 43.109375 
Q 37.359375 48.484375 30.078125 48.484375 
Q 22.859375 48.484375 18.828125 43.109375 
Q 14.796875 37.75 14.796875 27.984375 
Q 14.796875 18.265625 18.828125 12.890625 
Q 22.859375 7.515625 30.078125 7.515625 
Q 37.359375 7.515625 41.375 12.890625 
Q 45.40625 18.265625 45.40625 27.984375 
z
M 54.390625 6.78125 
Q 54.390625 -7.171875 48.1875 -13.984375 
Q 42 -20.796875 29.203125 -20.796875 
Q 24.46875 -20.796875 20.265625 -20.09375 
Q 16.0625 -19.390625 12.109375 -17.921875 
L 12.109375 -9.1875 
Q 16.0625 -11.328125 19.921875 -12.34375 
Q 23.78125 -13.375 27.78125 -13.375 
Q 36.625 -13.375 41.015625 -8.765625 
Q 45.40625 -4.15625 45.40625 5.171875 
L 45.40625 9.625 
Q 42.625 4.78125 38.28125 2.390625 
Q 33.9375 0 27.875 0 
Q 17.828125 0 11.671875 7.65625 
Q 5.515625 15.328125 5.515625 27.984375 
Q 5.515625 40.671875 11.671875 48.328125 
Q 17.828125 56 27.875 56 
Q 33.9375 56 38.28125 53.609375 
Q 42.625 51.21875 45.40625 46.390625 
L 45.40625 54.6875 
L 54.390625 54.6875 
z
" id="DejaVuSans-103"/>
      <path d="M 2.984375 54.6875 
L 12.5 54.6875 
L 29.59375 8.796875 
L 46.6875 54.6875 
L 56.203125 54.6875 
L 35.6875 0 
L 23.484375 0 
z
" id="DejaVuSans-118"/>
     </defs>
     <g transform="translate(523.05 205.011875)scale(0.1 -0.1)">
      <use xlink:href="#DejaVuSans-73"/>
      <use x="29.492188" xlink:href="#DejaVuSans-109"/>
      <use x="126.904297" xlink:href="#DejaVuSans-112"/>
      <use x="190.380859" xlink:href="#DejaVuSans-111"/>
      <use x="251.5625" xlink:href="#DejaVuSans-115"/>
      <use x="303.662109" xlink:href="#DejaVuSans-116"/>
      <use x="342.871094" xlink:href="#DejaVuSans-111"/>
      <use x="404.052734" xlink:href="#DejaVuSans-32"/>
      <use x="435.839844" xlink:href="#DejaVuSans-112"/>
      <use x="499.316406" xlink:href="#DejaVuSans-114"/>
      <use x="538.179688" xlink:href="#DejaVuSans-111"/>
      <use x="599.361328" xlink:href="#DejaVuSans-103"/>
      <use x="662.837891" xlink:href="#DejaVuSans-114"/>
      <use x="701.701172" xlink:href="#DejaVuSans-101"/>
      <use x="763.224609" xlink:href="#DejaVuSans-115"/>
      <use x="815.324219" xlink:href="#DejaVuSans-115"/>
      <use x="867.423828" xlink:href="#DejaVuSans-105"/>
      <use x="895.207031" xlink:href="#DejaVuSans-118"/>
      <use x="954.386719" xlink:href="#DejaVuSans-111"/>
     </g>
    </g>
   </g>
  </g>
 </g>
 <defs>
  <clipPath id="p428b697a0b">
   <rect height="271.8" width="446.4" x="39.65" y="22.318125"/>
  </clipPath>
 </defs>
</svg>
