<?xml version="1.0" encoding="utf-8" standalone="no"?>
<!DOCTYPE svg PUBLIC "-//W3C//DTD SVG 1.1//EN"
  "http://www.w3.org/Graphics/SVG/1.1/DTD/svg11.dtd">
<!-- Created with matplotlib (https://matplotlib.org/) -->
<svg height="331.674375pt" version="1.1" viewBox="0 0 662.079687 331.674375" width="662.079687pt" xmlns="http://www.w3.org/2000/svg" xmlns:xlink="http://www.w3.org/1999/xlink">
 <defs>
  <style type="text/css">
*{stroke-linecap:butt;stroke-linejoin:round;}
  </style>
 </defs>
 <g id="figure_1">
  <g id="patch_1">
   <path d="M 0 331.674375 
L 662.079687 331.674375 
L 662.079687 0 
L 0 0 
z
" style="fill:#ffffff;"/>
  </g>
  <g id="axes_1">
   <g id="patch_2">
    <path d="M 60.754688 294.118125 
L 507.154687 294.118125 
L 507.154687 22.318125 
L 60.754688 22.318125 
z
" style="fill:#ffffff;"/>
   </g>
   <g id="line2d_1">
    <path clip-path="url(#p02e74d3dc1)" d="M 81.045597 53.940917 
L 83.223512 55.445519 
L 83.949483 55.790438 
L 84.675455 56.384052 
L 86.127399 57.087455 
L 86.85337 57.621239 
L 88.305314 58.422481 
L 89.031285 58.86435 
L 89.757257 59.503846 
L 91.2092 60.283264 
L 91.935172 60.914058 
L 93.387116 61.833337 
L 97.742946 64.596569 
L 98.468917 65.215179 
L 99.194889 65.494477 
L 102.824748 67.869088 
L 104.276691 68.577544 
L 107.90655 70.799917 
L 112.988352 73.800926 
L 120.248069 78.652558 
L 120.97404 79.238717 
L 121.700012 79.628864 
L 124.603899 81.674032 
L 126.055842 82.525614 
L 126.781814 82.970139 
L 127.507786 83.636152 
L 128.233757 83.915865 
L 130.411672 85.332381 
L 132.589587 86.65838 
L 133.315559 87.258621 
L 134.767503 88.02017 
L 140.575276 91.465871 
L 141.301248 92.135049 
L 142.02722 92.395817 
L 142.753191 93.095598 
L 143.479163 93.331617 
L 144.205135 93.74748 
L 144.931106 94.342145 
L 145.657078 94.623103 
L 149.286937 97.081221 
L 150.012908 97.440085 
L 152.916795 99.321735 
L 153.642767 99.691454 
L 154.368739 100.25578 
L 155.820682 100.971071 
L 157.998597 102.313572 
L 158.724569 102.980212 
L 159.45054 103.226163 
L 160.176512 103.807448 
L 160.902484 104.09087 
L 163.080399 105.420305 
L 163.806371 105.991924 
L 164.532342 106.277027 
L 165.258314 106.855621 
L 167.436229 107.935921 
L 168.888173 108.838037 
L 169.614144 109.250006 
L 170.340116 109.869401 
L 171.066088 110.155015 
L 171.792059 110.787816 
L 173.244003 111.469671 
L 175.421918 112.73864 
L 176.14789 113.343575 
L 176.873861 113.610883 
L 182.681635 116.944606 
L 186.311493 118.995816 
L 187.037465 119.603211 
L 187.763437 119.874524 
L 192.845239 122.792068 
L 193.571211 123.355328 
L 194.297182 123.609452 
L 195.749126 124.426074 
L 197.927041 125.637408 
L 198.653012 126.217847 
L 199.378984 126.457427 
L 200.104956 126.979083 
L 200.830928 127.261146 
L 203.734814 128.897044 
L 204.460786 129.462312 
L 205.186758 129.710339 
L 205.912729 130.333892 
L 206.638701 130.592358 
L 209.542588 132.373606 
L 211.720503 133.541243 
L 216.802305 136.671135 
L 217.528277 137.25638 
L 218.254248 137.521318 
L 218.98022 137.96774 
L 219.706192 138.585147 
L 221.158135 139.276319 
L 231.321739 145.072664 
L 232.047711 145.366928 
L 232.773682 145.905116 
L 234.225626 146.622608 
L 234.951598 147.343939 
L 235.677569 147.529801 
L 239.307428 149.743893 
L 240.759371 150.490078 
L 244.38923 152.592865 
L 245.841173 153.610719 
L 246.567145 153.948054 
L 248.74506 155.332858 
L 250.197003 156.17577 
L 250.922975 156.759744 
L 252.374918 157.522762 
L 254.552834 158.787651 
L 256.004777 159.609142 
L 256.730749 160.256298 
L 257.45672 160.55731 
L 262.538522 163.686699 
L 263.264494 164.282254 
L 264.716437 164.987016 
L 266.168381 165.748508 
L 269.072268 167.646799 
L 269.798239 167.935303 
L 274.15407 170.508463 
L 277.057956 172.238816 
L 281.413787 174.653114 
L 282.86573 175.625136 
L 294.481277 182.72638 
L 295.207249 183.106686 
L 295.933221 183.669744 
L 296.659192 183.990198 
L 297.385164 184.545545 
L 298.111136 184.842417 
L 306.096824 189.523235 
L 309.726683 191.316406 
L 310.452655 191.851126 
L 311.178626 192.163691 
L 311.904598 192.739052 
L 312.63057 193.075381 
L 315.534457 194.979016 
L 316.260428 195.260462 
L 316.9864 195.807281 
L 317.712372 196.103598 
L 319.890287 197.466527 
L 320.616258 197.87725 
L 321.34223 198.435956 
L 322.794174 199.06867 
L 323.520145 199.629133 
L 324.246117 199.882237 
L 326.424032 201.155755 
L 337.313608 207.570628 
L 338.039579 208.100368 
L 338.765551 208.362486 
L 339.491523 208.787244 
L 340.217494 209.069705 
L 351.10707 215.455807 
L 352.559013 216.127785 
L 353.284985 216.640093 
L 354.736929 217.409682 
L 355.4629 217.898081 
L 356.914844 218.59488 
L 359.092759 219.864467 
L 361.270674 221.115594 
L 361.996646 221.557787 
L 363.448589 222.190029 
L 367.078447 224.241754 
L 367.804419 224.51167 
L 369.256363 225.338648 
L 369.982334 225.618486 
L 370.708306 226.095976 
L 372.160249 226.765931 
L 373.612193 227.601906 
L 374.338164 227.90442 
L 375.064136 228.367051 
L 376.51608 228.983137 
L 377.242051 229.459445 
L 378.693995 230.242883 
L 381.597882 231.866154 
L 385.22774 233.860045 
L 385.953712 234.30581 
L 387.405655 234.934902 
L 388.131627 235.430772 
L 389.58357 236.143261 
L 391.761485 237.248038 
L 393.9394 238.407643 
L 397.569259 240.190618 
L 398.295231 240.544725 
L 399.021202 241.04041 
L 400.473146 241.654778 
L 402.651061 242.95332 
L 403.377033 243.240564 
L 404.828976 244.097931 
L 406.280919 244.71233 
L 407.006891 245.12728 
L 407.732863 245.397714 
L 408.458835 245.83763 
L 409.910778 246.451364 
L 412.088693 247.561651 
L 414.266608 248.588743 
L 416.444523 249.777557 
L 417.896467 250.368795 
L 420.074382 251.656276 
L 422.252297 252.739339 
L 425.156184 253.966644 
L 429.512014 256.13178 
L 432.415901 257.466542 
L 433.141872 257.892842 
L 434.593816 258.560847 
L 436.771731 259.58045 
L 438.223674 260.31265 
L 439.675618 261.185794 
L 441.853533 262.075304 
L 446.209363 264.321382 
L 447.661306 264.982813 
L 449.11325 265.629005 
L 460.728797 270.85668 
L 462.906712 271.739263 
L 472.344344 275.903961 
L 473.796288 276.542643 
L 474.522259 276.950747 
L 478.87809 278.623586 
L 480.330033 279.25975 
L 481.781976 279.753301 
L 483.959892 280.764329 
L 486.863778 281.76358 
L 486.863778 281.76358 
" style="fill:none;stroke:#1f77b4;stroke-linecap:square;stroke-width:1.5;"/>
   </g>
   <g id="line2d_2">
    <path clip-path="url(#p02e74d3dc1)" d="M 81.045597 34.67267 
L 84.675455 35.35374 
L 85.401427 35.215524 
L 87.579342 35.554846 
L 88.305314 35.52537 
L 93.387116 36.355747 
L 97.742946 37.160167 
L 102.824748 37.880384 
L 122.425984 40.537747 
L 129.685701 41.330522 
L 132.589587 41.664078 
L 133.315559 41.858424 
L 134.041531 41.796426 
L 136.945418 42.191333 
L 137.671389 42.414339 
L 138.397361 42.192222 
L 144.205135 43.15708 
L 150.012908 43.932811 
L 151.464852 44.097485 
L 152.190823 44.36075 
L 152.916795 44.313629 
L 154.368739 44.615367 
L 155.09471 44.484363 
L 164.532342 45.894973 
L 165.258314 46.066753 
L 165.984286 45.91866 
L 176.14789 47.522071 
L 176.873861 47.416446 
L 180.50372 47.90539 
L 181.229692 47.922271 
L 185.585522 48.636003 
L 197.201069 50.247084 
L 203.008843 50.878504 
L 203.734814 50.85817 
L 213.172446 52.071589 
L 215.350362 52.330407 
L 219.706192 52.998477 
L 220.432164 52.868403 
L 224.787994 53.490464 
L 229.143824 54.196071 
L 229.869796 54.080711 
L 235.677569 54.761545 
L 238.581456 55.257402 
L 242.211315 55.798604 
L 242.937286 55.70527 
L 251.648947 57.173727 
L 252.374918 57.146775 
L 253.826862 57.40932 
L 255.278805 57.492219 
L 258.182692 58.054524 
L 261.812551 58.601841 
L 263.264494 58.825124 
L 263.990466 58.755962 
L 269.072268 59.44752 
L 270.524211 59.639589 
L 275.606013 60.503123 
L 276.331985 60.425676 
L 282.86573 61.52869 
L 284.317673 61.557716 
L 289.399475 62.287514 
L 293.029334 62.924409 
L 306.822796 64.708066 
L 314.808485 65.554032 
L 321.34223 66.344481 
L 322.068202 66.239135 
L 328.601947 67.077736 
L 330.053891 67.186207 
L 332.957777 67.383875 
L 336.587636 68.034529 
L 339.491523 68.367235 
L 340.943466 68.481942 
L 343.847353 68.811531 
L 345.299296 69.012855 
L 346.75124 69.151321 
L 350.381098 69.688185 
L 354.010957 69.984056 
L 374.338164 71.770332 
L 376.51608 71.796246 
L 377.242051 71.791907 
L 379.419966 72.041171 
L 380.87191 72.132681 
L 382.323853 72.070044 
L 385.953712 72.701845 
L 386.679683 72.644789 
L 391.035514 73.181536 
L 391.761485 73.148026 
L 398.295231 73.86963 
L 399.747174 73.840989 
L 404.103004 74.301301 
L 405.554948 74.153358 
L 410.63675 74.635878 
L 412.814665 74.663087 
L 413.540636 74.590162 
L 414.266608 74.654324 
L 414.99258 74.577664 
L 415.718552 74.673263 
L 417.170495 74.59664 
L 423.70424 75.345575 
L 424.430212 75.248062 
L 428.06007 75.474956 
L 428.786042 75.355371 
L 430.237986 75.384967 
L 432.415901 75.355004 
L 433.867844 75.219673 
L 435.319788 75.287222 
L 437.497703 75.20362 
L 440.401589 75.741891 
L 444.75742 75.552996 
L 445.483391 75.729741 
L 446.935335 75.493318 
L 447.661306 75.574432 
L 450.565193 75.342128 
L 451.291165 75.550794 
L 452.017137 75.464006 
L 455.646995 75.910041 
L 456.372967 75.773375 
L 459.276854 75.985133 
L 460.002825 75.995345 
L 460.728797 75.813111 
L 461.454769 75.890119 
L 462.906712 75.664173 
L 463.632684 75.82233 
L 464.358656 75.646954 
L 465.810599 75.648263 
L 467.988514 75.304298 
L 468.714486 75.4284 
L 470.166429 75.304695 
L 471.618373 75.229871 
L 473.070316 75.136142 
L 475.974203 75.240215 
L 478.87809 74.839873 
L 480.330033 75.129533 
L 481.056005 74.924177 
L 481.781976 74.851561 
L 483.23392 74.983506 
L 483.959892 74.792735 
L 484.685863 74.738552 
L 486.137807 74.858482 
L 486.863778 74.948807 
L 486.863778 74.948807 
" style="fill:none;stroke:#ff7f0e;stroke-linecap:square;stroke-width:1.5;"/>
   </g>
   <g id="line2d_3">
    <path clip-path="url(#p02e74d3dc1)" d="M 81.045597 38.494846 
L 83.223512 39.155595 
L 83.949483 39.266969 
L 84.675455 39.515938 
L 85.401427 39.557863 
L 91.2092 40.995187 
L 91.935172 41.262308 
L 93.387116 41.617203 
L 96.291002 42.556316 
L 101.372804 43.870722 
L 107.90655 45.490953 
L 109.358493 45.816261 
L 110.084465 46.106511 
L 110.810436 46.207271 
L 114.440295 47.362353 
L 115.166267 47.440326 
L 115.892238 47.690416 
L 116.61821 47.754055 
L 120.248069 48.866892 
L 120.97404 49.114832 
L 121.700012 49.229357 
L 126.055842 50.508379 
L 134.767503 52.843089 
L 137.671389 53.612182 
L 138.397361 53.611181 
L 147.834993 56.147274 
L 148.560965 56.226668 
L 154.368739 57.854553 
L 155.820682 58.094127 
L 160.902484 59.490886 
L 163.080399 60.011718 
L 163.806371 60.303619 
L 164.532342 60.319661 
L 165.258314 60.575176 
L 166.710258 60.714737 
L 169.614144 61.465046 
L 173.244003 62.437925 
L 177.599833 63.406823 
L 179.777748 63.916717 
L 180.50372 64.168809 
L 181.229692 64.172347 
L 181.955663 64.437116 
L 182.681635 64.547863 
L 183.407607 64.806516 
L 184.85955 65.140088 
L 187.037465 65.737943 
L 187.763437 65.827075 
L 193.571211 67.411632 
L 194.297182 67.436629 
L 200.104956 68.84995 
L 201.556899 69.104909 
L 203.008843 69.502046 
L 203.734814 69.551537 
L 204.460786 69.778503 
L 205.186758 69.88864 
L 205.912729 70.135385 
L 207.364673 70.467747 
L 213.172446 71.921187 
L 214.62439 72.226938 
L 216.802305 72.710699 
L 219.706192 73.462597 
L 221.158135 73.660693 
L 229.143824 75.742089 
L 229.869796 75.714602 
L 236.403541 77.178187 
L 239.307428 78.01437 
L 240.033399 78.060832 
L 244.38923 79.127788 
L 248.74506 80.4134 
L 250.197003 80.77813 
L 251.648947 81.255754 
L 252.374918 81.31056 
L 253.826862 81.624217 
L 255.278805 81.87099 
L 258.182692 82.79373 
L 261.812551 83.829648 
L 263.990466 84.315574 
L 266.168381 84.740317 
L 269.072268 85.589488 
L 269.798239 85.694753 
L 275.606013 87.364498 
L 276.331985 87.371565 
L 285.769617 89.692746 
L 287.947532 90.363712 
L 289.399475 90.732726 
L 293.029334 91.805872 
L 299.563079 93.434528 
L 300.289051 93.701381 
L 301.015023 93.752371 
L 304.644881 94.619707 
L 310.452655 95.845733 
L 311.178626 95.907896 
L 314.082513 96.697326 
L 320.616258 98.280087 
L 321.34223 98.495573 
L 322.068202 98.484585 
L 326.424032 99.4961 
L 332.231806 100.885338 
L 333.683749 101.145469 
L 335.135693 101.491819 
L 338.039579 102.317669 
L 346.75124 104.23364 
L 351.833042 105.498728 
L 355.4629 106.254804 
L 356.188872 106.269433 
L 359.092759 106.894639 
L 361.996646 107.606921 
L 363.448589 107.881732 
L 369.256363 109.092797 
L 370.708306 109.338409 
L 372.886221 109.807786 
L 374.338164 110.044502 
L 375.064136 110.184541 
L 375.790108 110.145734 
L 380.145938 111.152379 
L 381.597882 111.350851 
L 383.049825 111.637779 
L 385.953712 112.44622 
L 388.857599 112.888901 
L 391.035514 113.341263 
L 392.487457 113.48156 
L 396.843287 114.327701 
L 398.295231 114.557485 
L 400.473146 115.015609 
L 404.103004 115.88429 
L 409.184806 116.509829 
L 409.910778 116.702965 
L 411.362721 116.878099 
L 416.444523 117.695479 
L 417.896467 117.980844 
L 420.074382 118.596436 
L 421.526325 118.882143 
L 422.252297 118.962602 
L 422.978269 119.160149 
L 425.156184 119.314661 
L 427.334099 119.748975 
L 428.786042 119.78069 
L 430.963957 120.12379 
L 435.319788 120.62076 
L 437.497703 120.81076 
L 439.675618 121.405463 
L 440.401589 121.583872 
L 441.853533 121.581768 
L 443.305476 121.831908 
L 444.75742 122.043878 
L 445.483391 122.258334 
L 446.935335 122.343675 
L 448.387278 122.593299 
L 449.11325 122.566022 
L 449.839222 122.749719 
L 450.565193 122.77522 
L 451.291165 122.976884 
L 452.743108 123.221077 
L 453.46908 123.427873 
L 454.921023 123.619779 
L 455.646995 123.790489 
L 456.372967 123.815168 
L 458.550882 124.189502 
L 460.002825 124.219534 
L 462.906712 124.223402 
L 463.632684 124.443319 
L 466.536571 124.507074 
L 467.988514 124.581349 
L 468.714486 124.782725 
L 472.344344 124.943672 
L 475.248231 125.342579 
L 478.87809 125.470628 
L 479.604061 125.689961 
L 482.507948 125.906649 
L 483.23392 126.071414 
L 484.685863 126.020062 
L 486.137807 126.355576 
L 486.863778 126.309624 
L 486.863778 126.309624 
" style="fill:none;stroke:#2ca02c;stroke-linecap:square;stroke-width:1.5;"/>
   </g>
   <g id="line2d_4">
    <path clip-path="url(#p02e74d3dc1)" d="M 81.045597 42.887111 
L 83.223512 43.764399 
L 83.949483 43.898043 
L 84.675455 44.251181 
L 85.401427 44.321398 
L 86.127399 44.532567 
L 86.85337 44.882046 
L 87.579342 44.954914 
L 90.483229 45.926732 
L 94.839059 47.587836 
L 99.194889 49.065347 
L 99.920861 49.290538 
L 100.646833 49.683865 
L 101.372804 49.777347 
L 108.632521 52.053047 
L 109.358493 52.226039 
L 110.084465 52.641741 
L 110.810436 52.747877 
L 111.536408 53.013723 
L 112.26238 53.412918 
L 113.714323 53.834032 
L 114.440295 54.198536 
L 115.166267 54.306878 
L 115.892238 54.649501 
L 117.344182 55.032452 
L 118.070153 55.369432 
L 119.522097 55.85735 
L 126.055842 58.224912 
L 128.233757 58.941178 
L 129.685701 59.4833 
L 130.411672 59.663675 
L 131.137644 59.981023 
L 132.589587 60.414478 
L 133.315559 60.830843 
L 134.041531 60.921518 
L 137.671389 62.224897 
L 138.397361 62.230646 
L 144.205135 64.209564 
L 144.931106 64.489418 
L 146.38305 64.859113 
L 151.464852 66.427044 
L 152.190823 66.919595 
L 152.916795 66.963902 
L 153.642767 67.184096 
L 154.368739 67.66458 
L 155.09471 67.642272 
L 163.080399 70.139908 
L 163.806371 70.604331 
L 164.532342 70.605956 
L 165.258314 70.991378 
L 165.984286 71.031894 
L 170.340116 72.449789 
L 174.695946 73.812664 
L 175.421918 74.015817 
L 176.14789 74.501534 
L 176.873861 74.492578 
L 180.50372 75.727017 
L 181.229692 75.77745 
L 181.955663 76.133346 
L 182.681635 76.271993 
L 183.407607 76.631099 
L 184.85955 77.055918 
L 186.311493 77.532693 
L 193.571211 79.953384 
L 194.297182 79.984704 
L 197.201069 80.880067 
L 199.378984 81.509318 
L 200.104956 81.818549 
L 200.830928 81.91818 
L 209.542588 84.549684 
L 218.98022 87.199184 
L 219.706192 87.673293 
L 220.432164 87.658928 
L 226.965909 89.55107 
L 228.417852 89.941668 
L 229.143824 90.426529 
L 229.869796 90.377815 
L 230.595767 90.630255 
L 232.047711 90.915867 
L 232.773682 91.231898 
L 234.225626 91.586066 
L 234.951598 91.950696 
L 236.403541 92.369639 
L 241.485343 94.140297 
L 242.937286 94.484814 
L 244.38923 94.945148 
L 251.648947 97.560203 
L 252.374918 97.642792 
L 253.826862 98.047639 
L 255.278805 98.37337 
L 258.908664 99.699222 
L 262.538522 100.903709 
L 263.264494 101.271662 
L 263.990466 101.312379 
L 266.894352 102.158357 
L 275.606013 105.186393 
L 276.331985 105.201777 
L 278.5099 105.965608 
L 279.235871 106.30585 
L 279.961843 106.381663 
L 282.139758 107.12116 
L 282.86573 107.47554 
L 284.317673 107.808695 
L 285.769617 108.264291 
L 293.755305 110.946064 
L 299.563079 112.680127 
L 300.289051 113.082464 
L 301.015023 113.135823 
L 304.644881 114.181425 
L 307.548768 114.932826 
L 308.27474 115.333829 
L 309.000711 115.32275 
L 312.63057 116.351807 
L 315.534457 117.403372 
L 316.260428 117.471209 
L 321.34223 119.168273 
L 322.068202 119.215336 
L 324.246117 119.893982 
L 325.69806 120.330097 
L 336.587636 123.654929 
L 340.217494 124.747892 
L 346.75124 126.599612 
L 350.381098 127.741128 
L 351.10707 127.992219 
L 352.559013 128.32988 
L 353.284985 128.577014 
L 354.736929 128.897048 
L 355.4629 129.150126 
L 356.188872 129.193979 
L 359.092759 130.018002 
L 361.996646 130.965108 
L 363.448589 131.300001 
L 369.256363 132.932315 
L 369.982334 133.028174 
L 372.886221 133.875025 
L 377.968023 135.099581 
L 379.419966 135.580244 
L 383.049825 136.447763 
L 385.953712 137.42589 
L 389.58357 138.36598 
L 391.761485 138.922974 
L 393.213429 139.198092 
L 396.117316 140.063586 
L 397.569259 140.201867 
L 404.828976 142.159603 
L 405.554948 142.198064 
L 416.444523 144.670813 
L 417.896467 145.012495 
L 420.800353 145.914276 
L 422.252297 146.319518 
L 423.70424 146.679204 
L 425.156184 146.888925 
L 427.334099 147.437592 
L 429.512014 147.700773 
L 432.415901 148.244472 
L 438.223674 149.315709 
L 439.675618 149.790969 
L 441.127561 150.093453 
L 443.305476 150.419689 
L 444.75742 150.659064 
L 445.483391 150.917148 
L 447.661306 151.208247 
L 448.387278 151.322791 
L 449.11325 151.322378 
L 449.839222 151.518876 
L 450.565193 151.577988 
L 452.017137 151.890409 
L 455.646995 152.730706 
L 456.372967 152.787203 
L 459.276854 153.40632 
L 460.002825 153.536713 
L 462.906712 153.652845 
L 463.632684 153.898241 
L 466.536571 154.089439 
L 467.988514 154.188423 
L 468.714486 154.404349 
L 473.070316 154.892425 
L 474.522259 155.25834 
L 475.974203 155.270643 
L 478.87809 155.458938 
L 479.604061 155.713761 
L 482.507948 156.022546 
L 483.23392 156.207528 
L 484.685863 156.271254 
L 486.137807 156.631623 
L 486.863778 156.615367 
L 486.863778 156.615367 
" style="fill:none;stroke:#d62728;stroke-linecap:square;stroke-width:1.5;"/>
   </g>
   <g id="line2d_5">
    <path clip-path="url(#p02e74d3dc1)" d="M 81.045597 41.038784 
L 83.223512 41.835039 
L 83.949483 41.978163 
L 84.675455 42.254935 
L 85.401427 42.300111 
L 86.85337 42.755423 
L 87.579342 42.808799 
L 89.031285 43.215412 
L 95.565031 45.64103 
L 98.468917 46.724279 
L 99.920861 47.172905 
L 100.646833 47.479876 
L 101.372804 47.602283 
L 107.180578 49.560941 
L 107.90655 49.601394 
L 112.988352 51.093894 
L 114.440295 51.70694 
L 115.166267 51.838716 
L 115.892238 52.106297 
L 116.61821 52.179803 
L 120.97404 53.76415 
L 121.700012 53.934471 
L 126.055842 55.620074 
L 129.685701 56.920616 
L 131.137644 57.447493 
L 132.589587 57.978328 
L 133.315559 58.322284 
L 134.041531 58.432761 
L 137.671389 59.635829 
L 138.397361 59.634369 
L 144.205135 61.707352 
L 147.109022 62.602147 
L 147.834993 62.831483 
L 148.560965 62.940869 
L 152.190823 64.460665 
L 152.916795 64.616325 
L 154.368739 65.110148 
L 155.09471 65.1933 
L 157.272625 65.986176 
L 163.806371 68.321141 
L 164.532342 68.356377 
L 165.258314 68.659981 
L 165.984286 68.672709 
L 167.436229 68.99509 
L 171.792059 70.594231 
L 172.518031 70.666558 
L 174.695946 71.425573 
L 176.14789 71.991423 
L 176.873861 72.069383 
L 181.955663 73.640336 
L 183.407607 73.925509 
L 189.21538 75.911226 
L 192.119267 76.969158 
L 193.571211 77.499365 
L 194.297182 77.556045 
L 200.104956 79.430613 
L 200.830928 79.539934 
L 203.008843 80.220168 
L 203.734814 80.302244 
L 204.460786 80.563308 
L 205.186758 80.67658 
L 205.912729 80.95552 
L 206.638701 81.107026 
L 208.090645 81.625439 
L 211.720503 82.372485 
L 216.802305 84.26906 
L 221.884107 85.861468 
L 225.513965 87.235688 
L 228.417852 88.212745 
L 229.143824 88.565052 
L 229.869796 88.560322 
L 235.677569 90.065563 
L 237.855484 90.928463 
L 239.307428 91.423249 
L 240.033399 91.45774 
L 243.663258 92.318531 
L 245.115201 92.986628 
L 247.293117 93.78692 
L 248.74506 94.338532 
L 250.197003 94.864772 
L 250.922975 95.14917 
L 252.374918 95.42775 
L 253.826862 95.747576 
L 254.552834 95.83372 
L 255.278805 96.073367 
L 256.730749 96.753298 
L 259.634635 97.720802 
L 263.264494 99.167193 
L 264.716437 99.369458 
L 265.442409 99.516887 
L 275.606013 103.194626 
L 276.331985 103.216622 
L 279.235871 104.048661 
L 279.961843 104.133925 
L 281.413787 104.603736 
L 282.86573 105.230901 
L 285.043645 105.751458 
L 287.22156 106.656824 
L 291.57739 108.199786 
L 294.481277 109.210269 
L 296.659192 109.837379 
L 300.289051 111.190071 
L 301.015023 111.27629 
L 303.192938 111.944614 
L 306.096824 112.954799 
L 306.822796 112.960417 
L 311.904598 114.191351 
L 316.260428 115.564731 
L 318.438343 116.228178 
L 321.34223 117.280428 
L 322.068202 117.293804 
L 323.520145 117.703955 
L 324.246117 117.693317 
L 327.150004 118.663793 
L 328.601947 119.2599 
L 330.779862 119.914547 
L 335.135693 121.159437 
L 338.039579 122.255536 
L 340.943466 123.02155 
L 341.669438 123.15915 
L 344.573325 124.094349 
L 348.203183 125.253594 
L 351.10707 126.231673 
L 351.833042 126.281748 
L 354.736929 127.064925 
L 355.4629 127.257627 
L 356.188872 127.292333 
L 359.092759 128.080876 
L 361.270674 128.871938 
L 363.448589 129.422609 
L 366.352476 130.272244 
L 367.804419 130.565815 
L 368.530391 130.804439 
L 369.982334 131.0501 
L 372.886221 131.923096 
L 374.338164 132.175759 
L 375.064136 132.334228 
L 375.790108 132.302378 
L 380.87191 133.749601 
L 382.323853 133.965112 
L 385.953712 135.142311 
L 386.679683 135.123169 
L 388.131627 135.535898 
L 389.58357 135.948671 
L 390.309542 136.195236 
L 392.487457 136.499213 
L 396.117316 137.612836 
L 397.569259 137.717248 
L 399.021202 138.112085 
L 399.747174 138.144404 
L 404.103004 139.61378 
L 407.732863 140.131649 
L 408.458835 140.302255 
L 409.184806 140.292292 
L 409.910778 140.518397 
L 410.63675 140.578373 
L 412.814665 141.015401 
L 413.540636 141.091787 
L 415.718552 141.570678 
L 417.170495 141.77912 
L 417.896467 141.812907 
L 420.800353 142.927873 
L 422.978269 143.365027 
L 424.430212 143.403241 
L 427.334099 144.150765 
L 428.786042 144.242239 
L 430.237986 144.545881 
L 431.689929 144.601615 
L 433.141872 144.914806 
L 433.867844 144.977788 
L 434.593816 145.176524 
L 437.497703 145.43868 
L 438.949646 146.075442 
L 441.853533 146.206396 
L 443.305476 146.554789 
L 444.031448 146.633966 
L 445.483391 147.086421 
L 446.935335 147.217766 
L 448.387278 147.593463 
L 449.11325 147.573774 
L 450.565193 147.710573 
L 451.291165 147.994301 
L 453.46908 148.334281 
L 457.098939 148.814657 
L 457.82491 149.090222 
L 461.454769 149.214635 
L 462.906712 149.307498 
L 463.632684 149.627677 
L 466.536571 149.876248 
L 467.988514 150.060508 
L 468.714486 150.334793 
L 472.344344 150.559439 
L 473.070316 150.54304 
L 474.522259 151.008886 
L 475.974203 151.024723 
L 478.87809 151.227736 
L 479.604061 151.49951 
L 481.781976 151.488226 
L 483.23392 151.960888 
L 484.685863 151.953528 
L 486.137807 151.984282 
L 486.863778 151.984692 
L 486.863778 151.984692 
" style="fill:none;stroke:#9467bd;stroke-linecap:square;stroke-width:1.5;"/>
   </g>
   <g id="line2d_6">
    <path clip-path="url(#p02e74d3dc1)" d="M 81.045597 41.200547 
L 84.675455 42.449037 
L 86.127399 42.714298 
L 86.85337 43.049301 
L 87.579342 43.127255 
L 91.2092 44.295245 
L 91.935172 44.622552 
L 93.387116 45.027347 
L 96.291002 45.98594 
L 105.728634 48.783555 
L 106.454606 48.96314 
L 107.180578 49.3072 
L 107.90655 49.385069 
L 111.536408 50.498241 
L 112.26238 50.89132 
L 112.988352 51.020183 
L 127.507786 55.769547 
L 128.959729 56.250672 
L 144.931106 60.934766 
L 151.464852 62.741117 
L 152.190823 63.137276 
L 152.916795 63.211758 
L 153.642767 63.401342 
L 154.368739 63.845072 
L 155.09471 63.849033 
L 165.984286 66.913819 
L 169.614144 67.959407 
L 173.244003 68.997636 
L 175.421918 69.553686 
L 176.14789 69.988037 
L 176.873861 69.995116 
L 180.50372 71.117025 
L 181.229692 71.162036 
L 181.955663 71.498346 
L 182.681635 71.62168 
L 183.407607 71.963517 
L 184.85955 72.322075 
L 187.037465 73.073624 
L 188.489409 73.399447 
L 197.201069 75.84473 
L 199.378984 76.414556 
L 200.104956 76.702257 
L 201.556899 76.994182 
L 203.008843 77.519723 
L 203.734814 77.594708 
L 205.186758 78.026969 
L 205.912729 78.323915 
L 207.364673 78.65433 
L 212.446475 80.025498 
L 213.172446 80.287651 
L 214.62439 80.615488 
L 216.802305 81.187999 
L 217.528277 81.466735 
L 218.98022 81.74146 
L 219.706192 82.12315 
L 220.432164 82.177489 
L 223.33605 82.943297 
L 225.513965 83.56742 
L 228.417852 84.285362 
L 229.143824 84.697772 
L 229.869796 84.728438 
L 230.595767 84.973098 
L 232.047711 85.244501 
L 232.773682 85.540485 
L 234.225626 85.863929 
L 234.951598 86.206522 
L 236.403541 86.574966 
L 241.485343 88.175822 
L 243.663258 88.683552 
L 247.293117 89.838633 
L 248.019088 90.030531 
L 248.74506 90.439041 
L 249.471032 90.51248 
L 250.922975 90.944352 
L 251.648947 91.297429 
L 252.374918 91.383518 
L 253.826862 91.78423 
L 255.278805 92.098382 
L 259.634635 93.496256 
L 263.990466 94.760357 
L 267.620324 95.765057 
L 273.428098 97.578558 
L 274.880041 97.967911 
L 275.606013 98.301169 
L 276.331985 98.335022 
L 278.5099 99.011873 
L 279.235871 99.333587 
L 280.687815 99.607928 
L 283.591702 100.51062 
L 298.837107 104.882491 
L 299.563079 105.04044 
L 300.289051 105.415574 
L 301.015023 105.460524 
L 304.644881 106.357262 
L 307.548768 107.008259 
L 308.27474 107.379997 
L 309.000711 107.377105 
L 311.178626 107.875463 
L 311.904598 108.168635 
L 313.356541 108.522127 
L 315.534457 109.248398 
L 316.260428 109.307963 
L 322.068202 110.869327 
L 327.150004 112.208514 
L 355.4629 119.9348 
L 356.188872 119.986878 
L 359.81873 120.943268 
L 363.448589 121.878785 
L 369.256363 123.361645 
L 369.982334 123.446945 
L 373.612193 124.354258 
L 378.693995 125.553623 
L 380.87191 126.110606 
L 382.323853 126.360642 
L 390.309542 128.441056 
L 403.377033 131.312588 
L 404.828976 131.643124 
L 406.280919 131.833426 
L 410.63675 132.741191 
L 412.814665 133.156261 
L 418.622438 134.419365 
L 422.252297 135.324482 
L 424.430212 135.716981 
L 425.882155 135.983979 
L 427.334099 136.297675 
L 429.512014 136.534118 
L 433.141872 137.127721 
L 434.593816 137.347326 
L 438.223674 137.961583 
L 439.675618 138.365364 
L 441.127561 138.624263 
L 444.031448 138.996812 
L 448.387278 139.700378 
L 449.11325 139.701163 
L 451.291165 140.107991 
L 452.743108 140.346261 
L 454.195052 140.608272 
L 460.002825 141.597167 
L 462.906712 141.703497 
L 463.632684 141.910053 
L 467.262542 142.097498 
L 467.988514 142.148895 
L 468.714486 142.331503 
L 473.070316 142.741939 
L 474.522259 143.049724 
L 475.974203 143.056349 
L 478.87809 143.21345 
L 479.604061 143.432729 
L 482.507948 143.680978 
L 483.23392 143.832567 
L 484.685863 143.883097 
L 486.137807 144.180131 
L 486.863778 144.292063 
L 486.863778 144.292063 
" style="fill:none;stroke:#8c564b;stroke-linecap:square;stroke-width:1.5;"/>
   </g>
   <g id="line2d_7">
    <path clip-path="url(#p02e74d3dc1)" d="M 81.045597 40.920215 
L 83.223512 41.699715 
L 83.949483 41.825767 
L 84.675455 42.138945 
L 85.401427 42.194702 
L 86.127399 42.385481 
L 86.85337 42.694292 
L 87.579342 42.748447 
L 90.483229 43.623066 
L 94.113087 44.883515 
L 98.468917 46.351527 
L 99.920861 46.739564 
L 100.646833 47.068261 
L 101.372804 47.17517 
L 102.824748 47.608023 
L 103.550719 47.973037 
L 104.276691 48.07033 
L 107.180578 49.046986 
L 107.90655 49.111866 
L 111.536408 50.234558 
L 112.26238 50.600315 
L 113.714323 51.000885 
L 114.440295 51.326049 
L 115.166267 51.431712 
L 115.892238 51.740143 
L 116.61821 51.840794 
L 120.248069 53.113221 
L 120.97404 53.419511 
L 121.700012 53.554228 
L 126.055842 55.049561 
L 130.411672 56.386681 
L 131.863616 56.849966 
L 132.589587 57.074822 
L 133.315559 57.437396 
L 134.041531 57.52205 
L 137.671389 58.626156 
L 138.397361 58.696027 
L 142.02722 59.836303 
L 145.657078 60.888597 
L 147.109022 61.283638 
L 148.560965 61.732195 
L 151.464852 62.569894 
L 152.190823 62.924509 
L 152.916795 63.012432 
L 153.642767 63.214945 
L 154.368739 63.618743 
L 155.09471 63.612218 
L 163.080399 65.942061 
L 163.806371 66.284297 
L 164.532342 66.320577 
L 165.258314 66.644485 
L 165.984286 66.685636 
L 168.162201 67.295344 
L 175.421918 69.392247 
L 176.14789 69.802039 
L 176.873861 69.796203 
L 180.50372 70.898537 
L 181.229692 70.930626 
L 181.955663 71.250289 
L 182.681635 71.375285 
L 183.407607 71.700292 
L 184.85955 72.078315 
L 187.037465 72.803205 
L 187.763437 72.909055 
L 193.571211 74.747802 
L 194.297182 74.788833 
L 200.104956 76.464558 
L 200.830928 76.561826 
L 211.720503 79.6301 
L 216.076333 80.758368 
L 219.706192 81.87804 
L 220.432164 81.916263 
L 223.33605 82.693683 
L 225.513965 83.328671 
L 228.417852 84.066757 
L 229.143824 84.455996 
L 229.869796 84.467927 
L 230.595767 84.69506 
L 232.047711 84.933526 
L 232.773682 85.210087 
L 234.225626 85.524825 
L 234.951598 85.848567 
L 236.403541 86.232095 
L 239.307428 87.208308 
L 240.033399 87.264052 
L 244.38923 88.514869 
L 248.74506 90.069632 
L 249.471032 90.197332 
L 252.374918 91.112451 
L 253.826862 91.486806 
L 255.278805 91.789059 
L 258.182692 92.871003 
L 260.360607 93.531994 
L 263.264494 94.504153 
L 264.716437 94.699408 
L 266.168381 95.059811 
L 269.072268 96.040765 
L 269.798239 96.159951 
L 275.606013 98.087663 
L 276.331985 98.106643 
L 278.5099 98.824704 
L 279.235871 99.127463 
L 279.961843 99.189333 
L 282.139758 99.873093 
L 282.86573 100.182711 
L 284.317673 100.475053 
L 285.769617 100.898468 
L 293.029334 103.160598 
L 296.659192 104.183138 
L 299.563079 104.966233 
L 300.289051 105.309415 
L 301.015023 105.370618 
L 304.644881 106.349642 
L 307.548768 107.045246 
L 308.27474 107.406094 
L 309.000711 107.360682 
L 312.63057 108.285764 
L 315.534457 109.221705 
L 316.260428 109.290259 
L 321.34223 110.837682 
L 322.068202 110.868044 
L 327.875976 112.454767 
L 328.601947 112.750014 
L 330.053891 113.074466 
L 332.231806 113.674615 
L 332.957777 113.776219 
L 338.039579 115.327117 
L 342.39541 116.386813 
L 345.299296 117.219167 
L 348.929155 118.261996 
L 353.284985 119.415206 
L 354.736929 119.71352 
L 355.4629 119.929251 
L 356.188872 119.965316 
L 359.092759 120.702301 
L 361.996646 121.572875 
L 363.448589 121.878865 
L 369.256363 123.339173 
L 369.982334 123.425015 
L 372.886221 124.192311 
L 377.242051 125.082584 
L 380.87191 126.044472 
L 382.323853 126.264286 
L 388.131627 127.868947 
L 396.117316 129.719387 
L 397.569259 129.82028 
L 404.828976 131.593441 
L 405.554948 131.614539 
L 413.540636 133.204429 
L 417.896467 134.102601 
L 420.074382 134.74759 
L 423.70424 135.612303 
L 425.156184 135.787266 
L 427.334099 136.272251 
L 429.512014 136.477947 
L 433.141872 137.040566 
L 433.867844 137.078637 
L 435.319788 137.342324 
L 437.497703 137.624687 
L 440.401589 138.42083 
L 444.75742 139.01136 
L 445.483391 139.260485 
L 446.935335 139.346564 
L 448.387278 139.597763 
L 449.11325 139.572143 
L 449.839222 139.755646 
L 450.565193 139.794829 
L 452.017137 140.083533 
L 455.646995 140.842207 
L 456.372967 140.88031 
L 458.550882 141.311902 
L 461.454769 141.524323 
L 462.906712 141.563678 
L 463.632684 141.778564 
L 465.810599 141.881492 
L 467.988514 141.995513 
L 468.714486 142.201695 
L 470.166429 142.329278 
L 470.892401 142.459739 
L 472.344344 142.493247 
L 473.796288 142.758472 
L 474.522259 142.950403 
L 475.974203 142.929287 
L 478.152118 143.064755 
L 478.87809 143.076469 
L 479.604061 143.324097 
L 482.507948 143.588117 
L 483.23392 143.763551 
L 484.685863 143.797877 
L 486.137807 144.138048 
L 486.863778 144.098876 
L 486.863778 144.098876 
" style="fill:none;stroke:#000000;stroke-dasharray:3.7,1.6;stroke-dashoffset:0;"/>
   </g>
   <g id="matplotlib.axis_1">
    <g id="xtick_1">
     <g id="line2d_8">
      <defs>
       <path d="M 0 0 
L 0 3.5 
" id="m46dffe935d" style="stroke:#000000;stroke-width:0.8;"/>
      </defs>
      <g>
       <use style="stroke:#000000;stroke-width:0.8;" x="102.098776" xlink:href="#m46dffe935d" y="294.118125"/>
      </g>
     </g>
     <g id="text_1">
      <!-- 100 -->
      <defs>
       <path d="M 12.40625 8.296875 
L 28.515625 8.296875 
L 28.515625 63.921875 
L 10.984375 60.40625 
L 10.984375 69.390625 
L 28.421875 72.90625 
L 38.28125 72.90625 
L 38.28125 8.296875 
L 54.390625 8.296875 
L 54.390625 0 
L 12.40625 0 
z
" id="DejaVuSans-49"/>
       <path d="M 31.78125 66.40625 
Q 24.171875 66.40625 20.328125 58.90625 
Q 16.5 51.421875 16.5 36.375 
Q 16.5 21.390625 20.328125 13.890625 
Q 24.171875 6.390625 31.78125 6.390625 
Q 39.453125 6.390625 43.28125 13.890625 
Q 47.125 21.390625 47.125 36.375 
Q 47.125 51.421875 43.28125 58.90625 
Q 39.453125 66.40625 31.78125 66.40625 
z
M 31.78125 74.21875 
Q 44.046875 74.21875 50.515625 64.515625 
Q 56.984375 54.828125 56.984375 36.375 
Q 56.984375 17.96875 50.515625 8.265625 
Q 44.046875 -1.421875 31.78125 -1.421875 
Q 19.53125 -1.421875 13.0625 8.265625 
Q 6.59375 17.96875 6.59375 36.375 
Q 6.59375 54.828125 13.0625 64.515625 
Q 19.53125 74.21875 31.78125 74.21875 
z
" id="DejaVuSans-48"/>
      </defs>
      <g transform="translate(92.555026 308.716563)scale(0.1 -0.1)">
       <use xlink:href="#DejaVuSans-49"/>
       <use x="63.623047" xlink:href="#DejaVuSans-48"/>
       <use x="127.246094" xlink:href="#DejaVuSans-48"/>
      </g>
     </g>
    </g>
    <g id="xtick_2">
     <g id="line2d_9">
      <g>
       <use style="stroke:#000000;stroke-width:0.8;" x="174.695946" xlink:href="#m46dffe935d" y="294.118125"/>
      </g>
     </g>
     <g id="text_2">
      <!-- 200 -->
      <defs>
       <path d="M 19.1875 8.296875 
L 53.609375 8.296875 
L 53.609375 0 
L 7.328125 0 
L 7.328125 8.296875 
Q 12.9375 14.109375 22.625 23.890625 
Q 32.328125 33.6875 34.8125 36.53125 
Q 39.546875 41.84375 41.421875 45.53125 
Q 43.3125 49.21875 43.3125 52.78125 
Q 43.3125 58.59375 39.234375 62.25 
Q 35.15625 65.921875 28.609375 65.921875 
Q 23.96875 65.921875 18.8125 64.3125 
Q 13.671875 62.703125 7.8125 59.421875 
L 7.8125 69.390625 
Q 13.765625 71.78125 18.9375 73 
Q 24.125 74.21875 28.421875 74.21875 
Q 39.75 74.21875 46.484375 68.546875 
Q 53.21875 62.890625 53.21875 53.421875 
Q 53.21875 48.921875 51.53125 44.890625 
Q 49.859375 40.875 45.40625 35.40625 
Q 44.1875 33.984375 37.640625 27.21875 
Q 31.109375 20.453125 19.1875 8.296875 
z
" id="DejaVuSans-50"/>
      </defs>
      <g transform="translate(165.152196 308.716563)scale(0.1 -0.1)">
       <use xlink:href="#DejaVuSans-50"/>
       <use x="63.623047" xlink:href="#DejaVuSans-48"/>
       <use x="127.246094" xlink:href="#DejaVuSans-48"/>
      </g>
     </g>
    </g>
    <g id="xtick_3">
     <g id="line2d_10">
      <g>
       <use style="stroke:#000000;stroke-width:0.8;" x="247.293117" xlink:href="#m46dffe935d" y="294.118125"/>
      </g>
     </g>
     <g id="text_3">
      <!-- 300 -->
      <defs>
       <path d="M 40.578125 39.3125 
Q 47.65625 37.796875 51.625 33 
Q 55.609375 28.21875 55.609375 21.1875 
Q 55.609375 10.40625 48.1875 4.484375 
Q 40.765625 -1.421875 27.09375 -1.421875 
Q 22.515625 -1.421875 17.65625 -0.515625 
Q 12.796875 0.390625 7.625 2.203125 
L 7.625 11.71875 
Q 11.71875 9.328125 16.59375 8.109375 
Q 21.484375 6.890625 26.8125 6.890625 
Q 36.078125 6.890625 40.9375 10.546875 
Q 45.796875 14.203125 45.796875 21.1875 
Q 45.796875 27.640625 41.28125 31.265625 
Q 36.765625 34.90625 28.71875 34.90625 
L 20.21875 34.90625 
L 20.21875 43.015625 
L 29.109375 43.015625 
Q 36.375 43.015625 40.234375 45.921875 
Q 44.09375 48.828125 44.09375 54.296875 
Q 44.09375 59.90625 40.109375 62.90625 
Q 36.140625 65.921875 28.71875 65.921875 
Q 24.65625 65.921875 20.015625 65.03125 
Q 15.375 64.15625 9.8125 62.3125 
L 9.8125 71.09375 
Q 15.4375 72.65625 20.34375 73.4375 
Q 25.25 74.21875 29.59375 74.21875 
Q 40.828125 74.21875 47.359375 69.109375 
Q 53.90625 64.015625 53.90625 55.328125 
Q 53.90625 49.265625 50.4375 45.09375 
Q 46.96875 40.921875 40.578125 39.3125 
z
" id="DejaVuSans-51"/>
      </defs>
      <g transform="translate(237.749367 308.716563)scale(0.1 -0.1)">
       <use xlink:href="#DejaVuSans-51"/>
       <use x="63.623047" xlink:href="#DejaVuSans-48"/>
       <use x="127.246094" xlink:href="#DejaVuSans-48"/>
      </g>
     </g>
    </g>
    <g id="xtick_4">
     <g id="line2d_11">
      <g>
       <use style="stroke:#000000;stroke-width:0.8;" x="319.890287" xlink:href="#m46dffe935d" y="294.118125"/>
      </g>
     </g>
     <g id="text_4">
      <!-- 400 -->
      <defs>
       <path d="M 37.796875 64.3125 
L 12.890625 25.390625 
L 37.796875 25.390625 
z
M 35.203125 72.90625 
L 47.609375 72.90625 
L 47.609375 25.390625 
L 58.015625 25.390625 
L 58.015625 17.1875 
L 47.609375 17.1875 
L 47.609375 0 
L 37.796875 0 
L 37.796875 17.1875 
L 4.890625 17.1875 
L 4.890625 26.703125 
z
" id="DejaVuSans-52"/>
      </defs>
      <g transform="translate(310.346537 308.716563)scale(0.1 -0.1)">
       <use xlink:href="#DejaVuSans-52"/>
       <use x="63.623047" xlink:href="#DejaVuSans-48"/>
       <use x="127.246094" xlink:href="#DejaVuSans-48"/>
      </g>
     </g>
    </g>
    <g id="xtick_5">
     <g id="line2d_12">
      <g>
       <use style="stroke:#000000;stroke-width:0.8;" x="392.487457" xlink:href="#m46dffe935d" y="294.118125"/>
      </g>
     </g>
     <g id="text_5">
      <!-- 500 -->
      <defs>
       <path d="M 10.796875 72.90625 
L 49.515625 72.90625 
L 49.515625 64.59375 
L 19.828125 64.59375 
L 19.828125 46.734375 
Q 21.96875 47.46875 24.109375 47.828125 
Q 26.265625 48.1875 28.421875 48.1875 
Q 40.625 48.1875 47.75 41.5 
Q 54.890625 34.8125 54.890625 23.390625 
Q 54.890625 11.625 47.5625 5.09375 
Q 40.234375 -1.421875 26.90625 -1.421875 
Q 22.3125 -1.421875 17.546875 -0.640625 
Q 12.796875 0.140625 7.71875 1.703125 
L 7.71875 11.625 
Q 12.109375 9.234375 16.796875 8.0625 
Q 21.484375 6.890625 26.703125 6.890625 
Q 35.15625 6.890625 40.078125 11.328125 
Q 45.015625 15.765625 45.015625 23.390625 
Q 45.015625 31 40.078125 35.4375 
Q 35.15625 39.890625 26.703125 39.890625 
Q 22.75 39.890625 18.8125 39.015625 
Q 14.890625 38.140625 10.796875 36.28125 
z
" id="DejaVuSans-53"/>
      </defs>
      <g transform="translate(382.943707 308.716563)scale(0.1 -0.1)">
       <use xlink:href="#DejaVuSans-53"/>
       <use x="63.623047" xlink:href="#DejaVuSans-48"/>
       <use x="127.246094" xlink:href="#DejaVuSans-48"/>
      </g>
     </g>
    </g>
    <g id="xtick_6">
     <g id="line2d_13">
      <g>
       <use style="stroke:#000000;stroke-width:0.8;" x="465.084627" xlink:href="#m46dffe935d" y="294.118125"/>
      </g>
     </g>
     <g id="text_6">
      <!-- 600 -->
      <defs>
       <path d="M 33.015625 40.375 
Q 26.375 40.375 22.484375 35.828125 
Q 18.609375 31.296875 18.609375 23.390625 
Q 18.609375 15.53125 22.484375 10.953125 
Q 26.375 6.390625 33.015625 6.390625 
Q 39.65625 6.390625 43.53125 10.953125 
Q 47.40625 15.53125 47.40625 23.390625 
Q 47.40625 31.296875 43.53125 35.828125 
Q 39.65625 40.375 33.015625 40.375 
z
M 52.59375 71.296875 
L 52.59375 62.3125 
Q 48.875 64.0625 45.09375 64.984375 
Q 41.3125 65.921875 37.59375 65.921875 
Q 27.828125 65.921875 22.671875 59.328125 
Q 17.53125 52.734375 16.796875 39.40625 
Q 19.671875 43.65625 24.015625 45.921875 
Q 28.375 48.1875 33.59375 48.1875 
Q 44.578125 48.1875 50.953125 41.515625 
Q 57.328125 34.859375 57.328125 23.390625 
Q 57.328125 12.15625 50.6875 5.359375 
Q 44.046875 -1.421875 33.015625 -1.421875 
Q 20.359375 -1.421875 13.671875 8.265625 
Q 6.984375 17.96875 6.984375 36.375 
Q 6.984375 53.65625 15.1875 63.9375 
Q 23.390625 74.21875 37.203125 74.21875 
Q 40.921875 74.21875 44.703125 73.484375 
Q 48.484375 72.75 52.59375 71.296875 
z
" id="DejaVuSans-54"/>
      </defs>
      <g transform="translate(455.540877 308.716563)scale(0.1 -0.1)">
       <use xlink:href="#DejaVuSans-54"/>
       <use x="63.623047" xlink:href="#DejaVuSans-48"/>
       <use x="127.246094" xlink:href="#DejaVuSans-48"/>
      </g>
     </g>
    </g>
    <g id="text_7">
     <!-- Tempo -->
     <defs>
      <path d="M -0.296875 72.90625 
L 61.375 72.90625 
L 61.375 64.59375 
L 35.5 64.59375 
L 35.5 0 
L 25.59375 0 
L 25.59375 64.59375 
L -0.296875 64.59375 
z
" id="DejaVuSans-84"/>
      <path d="M 56.203125 29.59375 
L 56.203125 25.203125 
L 14.890625 25.203125 
Q 15.484375 15.921875 20.484375 11.0625 
Q 25.484375 6.203125 34.421875 6.203125 
Q 39.59375 6.203125 44.453125 7.46875 
Q 49.3125 8.734375 54.109375 11.28125 
L 54.109375 2.78125 
Q 49.265625 0.734375 44.1875 -0.34375 
Q 39.109375 -1.421875 33.890625 -1.421875 
Q 20.796875 -1.421875 13.15625 6.1875 
Q 5.515625 13.8125 5.515625 26.8125 
Q 5.515625 40.234375 12.765625 48.109375 
Q 20.015625 56 32.328125 56 
Q 43.359375 56 49.78125 48.890625 
Q 56.203125 41.796875 56.203125 29.59375 
z
M 47.21875 32.234375 
Q 47.125 39.59375 43.09375 43.984375 
Q 39.0625 48.390625 32.421875 48.390625 
Q 24.90625 48.390625 20.390625 44.140625 
Q 15.875 39.890625 15.1875 32.171875 
z
" id="DejaVuSans-101"/>
      <path d="M 52 44.1875 
Q 55.375 50.25 60.0625 53.125 
Q 64.75 56 71.09375 56 
Q 79.640625 56 84.28125 50.015625 
Q 88.921875 44.046875 88.921875 33.015625 
L 88.921875 0 
L 79.890625 0 
L 79.890625 32.71875 
Q 79.890625 40.578125 77.09375 44.375 
Q 74.3125 48.1875 68.609375 48.1875 
Q 61.625 48.1875 57.5625 43.546875 
Q 53.515625 38.921875 53.515625 30.90625 
L 53.515625 0 
L 44.484375 0 
L 44.484375 32.71875 
Q 44.484375 40.625 41.703125 44.40625 
Q 38.921875 48.1875 33.109375 48.1875 
Q 26.21875 48.1875 22.15625 43.53125 
Q 18.109375 38.875 18.109375 30.90625 
L 18.109375 0 
L 9.078125 0 
L 9.078125 54.6875 
L 18.109375 54.6875 
L 18.109375 46.1875 
Q 21.1875 51.21875 25.484375 53.609375 
Q 29.78125 56 35.6875 56 
Q 41.65625 56 45.828125 52.96875 
Q 50 49.953125 52 44.1875 
z
" id="DejaVuSans-109"/>
      <path d="M 18.109375 8.203125 
L 18.109375 -20.796875 
L 9.078125 -20.796875 
L 9.078125 54.6875 
L 18.109375 54.6875 
L 18.109375 46.390625 
Q 20.953125 51.265625 25.265625 53.625 
Q 29.59375 56 35.59375 56 
Q 45.5625 56 51.78125 48.09375 
Q 58.015625 40.1875 58.015625 27.296875 
Q 58.015625 14.40625 51.78125 6.484375 
Q 45.5625 -1.421875 35.59375 -1.421875 
Q 29.59375 -1.421875 25.265625 0.953125 
Q 20.953125 3.328125 18.109375 8.203125 
z
M 48.6875 27.296875 
Q 48.6875 37.203125 44.609375 42.84375 
Q 40.53125 48.484375 33.40625 48.484375 
Q 26.265625 48.484375 22.1875 42.84375 
Q 18.109375 37.203125 18.109375 27.296875 
Q 18.109375 17.390625 22.1875 11.75 
Q 26.265625 6.109375 33.40625 6.109375 
Q 40.53125 6.109375 44.609375 11.75 
Q 48.6875 17.390625 48.6875 27.296875 
z
" id="DejaVuSans-112"/>
      <path d="M 30.609375 48.390625 
Q 23.390625 48.390625 19.1875 42.75 
Q 14.984375 37.109375 14.984375 27.296875 
Q 14.984375 17.484375 19.15625 11.84375 
Q 23.34375 6.203125 30.609375 6.203125 
Q 37.796875 6.203125 41.984375 11.859375 
Q 46.1875 17.53125 46.1875 27.296875 
Q 46.1875 37.015625 41.984375 42.703125 
Q 37.796875 48.390625 30.609375 48.390625 
z
M 30.609375 56 
Q 42.328125 56 49.015625 48.375 
Q 55.71875 40.765625 55.71875 27.296875 
Q 55.71875 13.875 49.015625 6.21875 
Q 42.328125 -1.421875 30.609375 -1.421875 
Q 18.84375 -1.421875 12.171875 6.21875 
Q 5.515625 13.875 5.515625 27.296875 
Q 5.515625 40.765625 12.171875 48.375 
Q 18.84375 56 30.609375 56 
z
" id="DejaVuSans-111"/>
     </defs>
     <g transform="translate(267.570312 322.394687)scale(0.1 -0.1)">
      <use xlink:href="#DejaVuSans-84"/>
      <use x="44.083984" xlink:href="#DejaVuSans-101"/>
      <use x="105.607422" xlink:href="#DejaVuSans-109"/>
      <use x="203.019531" xlink:href="#DejaVuSans-112"/>
      <use x="266.496094" xlink:href="#DejaVuSans-111"/>
     </g>
    </g>
   </g>
   <g id="matplotlib.axis_2">
    <g id="ytick_1">
     <g id="line2d_14">
      <defs>
       <path d="M 0 0 
L -3.5 0 
" id="m1e87e89757" style="stroke:#000000;stroke-width:0.8;"/>
      </defs>
      <g>
       <use style="stroke:#000000;stroke-width:0.8;" x="60.754688" xlink:href="#m1e87e89757" y="290.996764"/>
      </g>
     </g>
     <g id="text_8">
      <!-- −600000 -->
      <defs>
       <path d="M 10.59375 35.5 
L 73.1875 35.5 
L 73.1875 27.203125 
L 10.59375 27.203125 
z
" id="DejaVuSans-8722"/>
      </defs>
      <g transform="translate(7.2 294.795983)scale(0.1 -0.1)">
       <use xlink:href="#DejaVuSans-8722"/>
       <use x="83.789062" xlink:href="#DejaVuSans-54"/>
       <use x="147.412109" xlink:href="#DejaVuSans-48"/>
       <use x="211.035156" xlink:href="#DejaVuSans-48"/>
       <use x="274.658203" xlink:href="#DejaVuSans-48"/>
       <use x="338.28125" xlink:href="#DejaVuSans-48"/>
       <use x="401.904297" xlink:href="#DejaVuSans-48"/>
      </g>
     </g>
    </g>
    <g id="ytick_2">
     <g id="line2d_15">
      <g>
       <use style="stroke:#000000;stroke-width:0.8;" x="60.754688" xlink:href="#m1e87e89757" y="247.202892"/>
      </g>
     </g>
     <g id="text_9">
      <!-- −500000 -->
      <g transform="translate(7.2 251.00211)scale(0.1 -0.1)">
       <use xlink:href="#DejaVuSans-8722"/>
       <use x="83.789062" xlink:href="#DejaVuSans-53"/>
       <use x="147.412109" xlink:href="#DejaVuSans-48"/>
       <use x="211.035156" xlink:href="#DejaVuSans-48"/>
       <use x="274.658203" xlink:href="#DejaVuSans-48"/>
       <use x="338.28125" xlink:href="#DejaVuSans-48"/>
       <use x="401.904297" xlink:href="#DejaVuSans-48"/>
      </g>
     </g>
    </g>
    <g id="ytick_3">
     <g id="line2d_16">
      <g>
       <use style="stroke:#000000;stroke-width:0.8;" x="60.754688" xlink:href="#m1e87e89757" y="203.409019"/>
      </g>
     </g>
     <g id="text_10">
      <!-- −400000 -->
      <g transform="translate(7.2 207.208237)scale(0.1 -0.1)">
       <use xlink:href="#DejaVuSans-8722"/>
       <use x="83.789062" xlink:href="#DejaVuSans-52"/>
       <use x="147.412109" xlink:href="#DejaVuSans-48"/>
       <use x="211.035156" xlink:href="#DejaVuSans-48"/>
       <use x="274.658203" xlink:href="#DejaVuSans-48"/>
       <use x="338.28125" xlink:href="#DejaVuSans-48"/>
       <use x="401.904297" xlink:href="#DejaVuSans-48"/>
      </g>
     </g>
    </g>
    <g id="ytick_4">
     <g id="line2d_17">
      <g>
       <use style="stroke:#000000;stroke-width:0.8;" x="60.754688" xlink:href="#m1e87e89757" y="159.615146"/>
      </g>
     </g>
     <g id="text_11">
      <!-- −300000 -->
      <g transform="translate(7.2 163.414364)scale(0.1 -0.1)">
       <use xlink:href="#DejaVuSans-8722"/>
       <use x="83.789062" xlink:href="#DejaVuSans-51"/>
       <use x="147.412109" xlink:href="#DejaVuSans-48"/>
       <use x="211.035156" xlink:href="#DejaVuSans-48"/>
       <use x="274.658203" xlink:href="#DejaVuSans-48"/>
       <use x="338.28125" xlink:href="#DejaVuSans-48"/>
       <use x="401.904297" xlink:href="#DejaVuSans-48"/>
      </g>
     </g>
    </g>
    <g id="ytick_5">
     <g id="line2d_18">
      <g>
       <use style="stroke:#000000;stroke-width:0.8;" x="60.754688" xlink:href="#m1e87e89757" y="115.821273"/>
      </g>
     </g>
     <g id="text_12">
      <!-- −200000 -->
      <g transform="translate(7.2 119.620491)scale(0.1 -0.1)">
       <use xlink:href="#DejaVuSans-8722"/>
       <use x="83.789062" xlink:href="#DejaVuSans-50"/>
       <use x="147.412109" xlink:href="#DejaVuSans-48"/>
       <use x="211.035156" xlink:href="#DejaVuSans-48"/>
       <use x="274.658203" xlink:href="#DejaVuSans-48"/>
       <use x="338.28125" xlink:href="#DejaVuSans-48"/>
       <use x="401.904297" xlink:href="#DejaVuSans-48"/>
      </g>
     </g>
    </g>
    <g id="ytick_6">
     <g id="line2d_19">
      <g>
       <use style="stroke:#000000;stroke-width:0.8;" x="60.754688" xlink:href="#m1e87e89757" y="72.0274"/>
      </g>
     </g>
     <g id="text_13">
      <!-- −100000 -->
      <g transform="translate(7.2 75.826618)scale(0.1 -0.1)">
       <use xlink:href="#DejaVuSans-8722"/>
       <use x="83.789062" xlink:href="#DejaVuSans-49"/>
       <use x="147.412109" xlink:href="#DejaVuSans-48"/>
       <use x="211.035156" xlink:href="#DejaVuSans-48"/>
       <use x="274.658203" xlink:href="#DejaVuSans-48"/>
       <use x="338.28125" xlink:href="#DejaVuSans-48"/>
       <use x="401.904297" xlink:href="#DejaVuSans-48"/>
      </g>
     </g>
    </g>
    <g id="ytick_7">
     <g id="line2d_20">
      <g>
       <use style="stroke:#000000;stroke-width:0.8;" x="60.754688" xlink:href="#m1e87e89757" y="28.233527"/>
      </g>
     </g>
     <g id="text_14">
      <!-- 0 -->
      <g transform="translate(47.392188 32.032745)scale(0.1 -0.1)">
       <use xlink:href="#DejaVuSans-48"/>
      </g>
     </g>
    </g>
   </g>
   <g id="patch_3">
    <path d="M 60.754688 294.118125 
L 60.754688 22.318125 
" style="fill:none;stroke:#000000;stroke-linecap:square;stroke-linejoin:miter;stroke-width:0.8;"/>
   </g>
   <g id="patch_4">
    <path d="M 60.754688 294.118125 
L 507.154687 294.118125 
" style="fill:none;stroke:#000000;stroke-linecap:square;stroke-linejoin:miter;stroke-width:0.8;"/>
   </g>
   <g id="text_15">
    <!-- Mw_total -->
    <defs>
     <path d="M 9.8125 72.90625 
L 24.515625 72.90625 
L 43.109375 23.296875 
L 61.8125 72.90625 
L 76.515625 72.90625 
L 76.515625 0 
L 66.890625 0 
L 66.890625 64.015625 
L 48.09375 14.015625 
L 38.1875 14.015625 
L 19.390625 64.015625 
L 19.390625 0 
L 9.8125 0 
z
" id="DejaVuSans-77"/>
     <path d="M 4.203125 54.6875 
L 13.1875 54.6875 
L 24.421875 12.015625 
L 35.59375 54.6875 
L 46.1875 54.6875 
L 57.421875 12.015625 
L 68.609375 54.6875 
L 77.59375 54.6875 
L 63.28125 0 
L 52.6875 0 
L 40.921875 44.828125 
L 29.109375 0 
L 18.5 0 
z
" id="DejaVuSans-119"/>
     <path d="M 50.984375 -16.609375 
L 50.984375 -23.578125 
L -0.984375 -23.578125 
L -0.984375 -16.609375 
z
" id="DejaVuSans-95"/>
     <path d="M 18.3125 70.21875 
L 18.3125 54.6875 
L 36.8125 54.6875 
L 36.8125 47.703125 
L 18.3125 47.703125 
L 18.3125 18.015625 
Q 18.3125 11.328125 20.140625 9.421875 
Q 21.96875 7.515625 27.59375 7.515625 
L 36.8125 7.515625 
L 36.8125 0 
L 27.59375 0 
Q 17.1875 0 13.234375 3.875 
Q 9.28125 7.765625 9.28125 18.015625 
L 9.28125 47.703125 
L 2.6875 47.703125 
L 2.6875 54.6875 
L 9.28125 54.6875 
L 9.28125 70.21875 
z
" id="DejaVuSans-116"/>
     <path d="M 34.28125 27.484375 
Q 23.390625 27.484375 19.1875 25 
Q 14.984375 22.515625 14.984375 16.5 
Q 14.984375 11.71875 18.140625 8.90625 
Q 21.296875 6.109375 26.703125 6.109375 
Q 34.1875 6.109375 38.703125 11.40625 
Q 43.21875 16.703125 43.21875 25.484375 
L 43.21875 27.484375 
z
M 52.203125 31.203125 
L 52.203125 0 
L 43.21875 0 
L 43.21875 8.296875 
Q 40.140625 3.328125 35.546875 0.953125 
Q 30.953125 -1.421875 24.3125 -1.421875 
Q 15.921875 -1.421875 10.953125 3.296875 
Q 6 8.015625 6 15.921875 
Q 6 25.140625 12.171875 29.828125 
Q 18.359375 34.515625 30.609375 34.515625 
L 43.21875 34.515625 
L 43.21875 35.40625 
Q 43.21875 41.609375 39.140625 45 
Q 35.0625 48.390625 27.6875 48.390625 
Q 23 48.390625 18.546875 47.265625 
Q 14.109375 46.140625 10.015625 43.890625 
L 10.015625 52.203125 
Q 14.9375 54.109375 19.578125 55.046875 
Q 24.21875 56 28.609375 56 
Q 40.484375 56 46.34375 49.84375 
Q 52.203125 43.703125 52.203125 31.203125 
z
" id="DejaVuSans-97"/>
     <path d="M 9.421875 75.984375 
L 18.40625 75.984375 
L 18.40625 0 
L 9.421875 0 
z
" id="DejaVuSans-108"/>
    </defs>
    <g transform="translate(257.151562 16.318125)scale(0.12 -0.12)">
     <use xlink:href="#DejaVuSans-77"/>
     <use x="86.279297" xlink:href="#DejaVuSans-119"/>
     <use x="168.066406" xlink:href="#DejaVuSans-95"/>
     <use x="218.066406" xlink:href="#DejaVuSans-116"/>
     <use x="257.275391" xlink:href="#DejaVuSans-111"/>
     <use x="318.457031" xlink:href="#DejaVuSans-116"/>
     <use x="357.666016" xlink:href="#DejaVuSans-97"/>
     <use x="418.945312" xlink:href="#DejaVuSans-108"/>
    </g>
   </g>
   <g id="legend_1">
    <g id="patch_5">
     <path d="M 514.154687 211.091563 
L 652.879687 211.091563 
Q 654.879687 211.091563 654.879687 209.091563 
L 654.879687 107.344688 
Q 654.879687 105.344688 652.879687 105.344688 
L 514.154687 105.344688 
Q 512.154687 105.344688 512.154687 107.344688 
L 512.154687 209.091563 
Q 512.154687 211.091563 514.154687 211.091563 
z
" style="fill:#ffffff;opacity:0.8;stroke:#cccccc;stroke-linejoin:miter;"/>
    </g>
    <g id="line2d_21">
     <path d="M 516.154687 113.443125 
L 536.154687 113.443125 
" style="fill:none;stroke:#000000;stroke-dasharray:3.7,1.6;stroke-dashoffset:0;"/>
    </g>
    <g id="line2d_22"/>
    <g id="text_16">
     <!-- Baseline -->
     <defs>
      <path d="M 19.671875 34.8125 
L 19.671875 8.109375 
L 35.5 8.109375 
Q 43.453125 8.109375 47.28125 11.40625 
Q 51.125 14.703125 51.125 21.484375 
Q 51.125 28.328125 47.28125 31.5625 
Q 43.453125 34.8125 35.5 34.8125 
z
M 19.671875 64.796875 
L 19.671875 42.828125 
L 34.28125 42.828125 
Q 41.5 42.828125 45.03125 45.53125 
Q 48.578125 48.25 48.578125 53.8125 
Q 48.578125 59.328125 45.03125 62.0625 
Q 41.5 64.796875 34.28125 64.796875 
z
M 9.8125 72.90625 
L 35.015625 72.90625 
Q 46.296875 72.90625 52.390625 68.21875 
Q 58.5 63.53125 58.5 54.890625 
Q 58.5 48.1875 55.375 44.234375 
Q 52.25 40.28125 46.1875 39.3125 
Q 53.46875 37.75 57.5 32.78125 
Q 61.53125 27.828125 61.53125 20.40625 
Q 61.53125 10.640625 54.890625 5.3125 
Q 48.25 0 35.984375 0 
L 9.8125 0 
z
" id="DejaVuSans-66"/>
      <path d="M 44.28125 53.078125 
L 44.28125 44.578125 
Q 40.484375 46.53125 36.375 47.5 
Q 32.28125 48.484375 27.875 48.484375 
Q 21.1875 48.484375 17.84375 46.4375 
Q 14.5 44.390625 14.5 40.28125 
Q 14.5 37.15625 16.890625 35.375 
Q 19.28125 33.59375 26.515625 31.984375 
L 29.59375 31.296875 
Q 39.15625 29.25 43.1875 25.515625 
Q 47.21875 21.78125 47.21875 15.09375 
Q 47.21875 7.46875 41.1875 3.015625 
Q 35.15625 -1.421875 24.609375 -1.421875 
Q 20.21875 -1.421875 15.453125 -0.5625 
Q 10.6875 0.296875 5.421875 2 
L 5.421875 11.28125 
Q 10.40625 8.6875 15.234375 7.390625 
Q 20.0625 6.109375 24.8125 6.109375 
Q 31.15625 6.109375 34.5625 8.28125 
Q 37.984375 10.453125 37.984375 14.40625 
Q 37.984375 18.0625 35.515625 20.015625 
Q 33.0625 21.96875 24.703125 23.78125 
L 21.578125 24.515625 
Q 13.234375 26.265625 9.515625 29.90625 
Q 5.8125 33.546875 5.8125 39.890625 
Q 5.8125 47.609375 11.28125 51.796875 
Q 16.75 56 26.8125 56 
Q 31.78125 56 36.171875 55.265625 
Q 40.578125 54.546875 44.28125 53.078125 
z
" id="DejaVuSans-115"/>
      <path d="M 9.421875 54.6875 
L 18.40625 54.6875 
L 18.40625 0 
L 9.421875 0 
z
M 9.421875 75.984375 
L 18.40625 75.984375 
L 18.40625 64.59375 
L 9.421875 64.59375 
z
" id="DejaVuSans-105"/>
      <path d="M 54.890625 33.015625 
L 54.890625 0 
L 45.90625 0 
L 45.90625 32.71875 
Q 45.90625 40.484375 42.875 44.328125 
Q 39.84375 48.1875 33.796875 48.1875 
Q 26.515625 48.1875 22.3125 43.546875 
Q 18.109375 38.921875 18.109375 30.90625 
L 18.109375 0 
L 9.078125 0 
L 9.078125 54.6875 
L 18.109375 54.6875 
L 18.109375 46.1875 
Q 21.34375 51.125 25.703125 53.5625 
Q 30.078125 56 35.796875 56 
Q 45.21875 56 50.046875 50.171875 
Q 54.890625 44.34375 54.890625 33.015625 
z
" id="DejaVuSans-110"/>
     </defs>
     <g transform="translate(544.154687 116.943125)scale(0.1 -0.1)">
      <use xlink:href="#DejaVuSans-66"/>
      <use x="68.603516" xlink:href="#DejaVuSans-97"/>
      <use x="129.882812" xlink:href="#DejaVuSans-115"/>
      <use x="181.982422" xlink:href="#DejaVuSans-101"/>
      <use x="243.505859" xlink:href="#DejaVuSans-108"/>
      <use x="271.289062" xlink:href="#DejaVuSans-105"/>
      <use x="299.072266" xlink:href="#DejaVuSans-110"/>
      <use x="362.451172" xlink:href="#DejaVuSans-101"/>
     </g>
    </g>
    <g id="line2d_23">
     <path d="M 516.154687 128.12125 
L 536.154687 128.12125 
" style="fill:none;stroke:#1f77b4;stroke-linecap:square;stroke-width:1.5;"/>
    </g>
    <g id="line2d_24"/>
    <g id="text_17">
     <!-- Maior acesso credito -->
     <defs>
      <path d="M 41.109375 46.296875 
Q 39.59375 47.171875 37.8125 47.578125 
Q 36.03125 48 33.890625 48 
Q 26.265625 48 22.1875 43.046875 
Q 18.109375 38.09375 18.109375 28.8125 
L 18.109375 0 
L 9.078125 0 
L 9.078125 54.6875 
L 18.109375 54.6875 
L 18.109375 46.1875 
Q 20.953125 51.171875 25.484375 53.578125 
Q 30.03125 56 36.53125 56 
Q 37.453125 56 38.578125 55.875 
Q 39.703125 55.765625 41.0625 55.515625 
z
" id="DejaVuSans-114"/>
      <path id="DejaVuSans-32"/>
      <path d="M 48.78125 52.59375 
L 48.78125 44.1875 
Q 44.96875 46.296875 41.140625 47.34375 
Q 37.3125 48.390625 33.40625 48.390625 
Q 24.65625 48.390625 19.8125 42.84375 
Q 14.984375 37.3125 14.984375 27.296875 
Q 14.984375 17.28125 19.8125 11.734375 
Q 24.65625 6.203125 33.40625 6.203125 
Q 37.3125 6.203125 41.140625 7.25 
Q 44.96875 8.296875 48.78125 10.40625 
L 48.78125 2.09375 
Q 45.015625 0.34375 40.984375 -0.53125 
Q 36.96875 -1.421875 32.421875 -1.421875 
Q 20.0625 -1.421875 12.78125 6.34375 
Q 5.515625 14.109375 5.515625 27.296875 
Q 5.515625 40.671875 12.859375 48.328125 
Q 20.21875 56 33.015625 56 
Q 37.15625 56 41.109375 55.140625 
Q 45.0625 54.296875 48.78125 52.59375 
z
" id="DejaVuSans-99"/>
      <path d="M 45.40625 46.390625 
L 45.40625 75.984375 
L 54.390625 75.984375 
L 54.390625 0 
L 45.40625 0 
L 45.40625 8.203125 
Q 42.578125 3.328125 38.25 0.953125 
Q 33.9375 -1.421875 27.875 -1.421875 
Q 17.96875 -1.421875 11.734375 6.484375 
Q 5.515625 14.40625 5.515625 27.296875 
Q 5.515625 40.1875 11.734375 48.09375 
Q 17.96875 56 27.875 56 
Q 33.9375 56 38.25 53.625 
Q 42.578125 51.265625 45.40625 46.390625 
z
M 14.796875 27.296875 
Q 14.796875 17.390625 18.875 11.75 
Q 22.953125 6.109375 30.078125 6.109375 
Q 37.203125 6.109375 41.296875 11.75 
Q 45.40625 17.390625 45.40625 27.296875 
Q 45.40625 37.203125 41.296875 42.84375 
Q 37.203125 48.484375 30.078125 48.484375 
Q 22.953125 48.484375 18.875 42.84375 
Q 14.796875 37.203125 14.796875 27.296875 
z
" id="DejaVuSans-100"/>
     </defs>
     <g transform="translate(544.154687 131.62125)scale(0.1 -0.1)">
      <use xlink:href="#DejaVuSans-77"/>
      <use x="86.279297" xlink:href="#DejaVuSans-97"/>
      <use x="147.558594" xlink:href="#DejaVuSans-105"/>
      <use x="175.341797" xlink:href="#DejaVuSans-111"/>
      <use x="236.523438" xlink:href="#DejaVuSans-114"/>
      <use x="277.636719" xlink:href="#DejaVuSans-32"/>
      <use x="309.423828" xlink:href="#DejaVuSans-97"/>
      <use x="370.703125" xlink:href="#DejaVuSans-99"/>
      <use x="425.683594" xlink:href="#DejaVuSans-101"/>
      <use x="487.207031" xlink:href="#DejaVuSans-115"/>
      <use x="539.306641" xlink:href="#DejaVuSans-115"/>
      <use x="591.40625" xlink:href="#DejaVuSans-111"/>
      <use x="652.587891" xlink:href="#DejaVuSans-32"/>
      <use x="684.375" xlink:href="#DejaVuSans-99"/>
      <use x="739.355469" xlink:href="#DejaVuSans-114"/>
      <use x="778.21875" xlink:href="#DejaVuSans-101"/>
      <use x="839.742188" xlink:href="#DejaVuSans-100"/>
      <use x="903.21875" xlink:href="#DejaVuSans-105"/>
      <use x="931.001953" xlink:href="#DejaVuSans-116"/>
      <use x="970.210938" xlink:href="#DejaVuSans-111"/>
     </g>
    </g>
    <g id="line2d_25">
     <path d="M 516.154687 142.799375 
L 536.154687 142.799375 
" style="fill:none;stroke:#ff7f0e;stroke-linecap:square;stroke-width:1.5;"/>
    </g>
    <g id="line2d_26"/>
    <g id="text_18">
     <!-- Menor acesso credito -->
     <g transform="translate(544.154687 146.299375)scale(0.1 -0.1)">
      <use xlink:href="#DejaVuSans-77"/>
      <use x="86.279297" xlink:href="#DejaVuSans-101"/>
      <use x="147.802734" xlink:href="#DejaVuSans-110"/>
      <use x="211.181641" xlink:href="#DejaVuSans-111"/>
      <use x="272.363281" xlink:href="#DejaVuSans-114"/>
      <use x="313.476562" xlink:href="#DejaVuSans-32"/>
      <use x="345.263672" xlink:href="#DejaVuSans-97"/>
      <use x="406.542969" xlink:href="#DejaVuSans-99"/>
      <use x="461.523438" xlink:href="#DejaVuSans-101"/>
      <use x="523.046875" xlink:href="#DejaVuSans-115"/>
      <use x="575.146484" xlink:href="#DejaVuSans-115"/>
      <use x="627.246094" xlink:href="#DejaVuSans-111"/>
      <use x="688.427734" xlink:href="#DejaVuSans-32"/>
      <use x="720.214844" xlink:href="#DejaVuSans-99"/>
      <use x="775.195312" xlink:href="#DejaVuSans-114"/>
      <use x="814.058594" xlink:href="#DejaVuSans-101"/>
      <use x="875.582031" xlink:href="#DejaVuSans-100"/>
      <use x="939.058594" xlink:href="#DejaVuSans-105"/>
      <use x="966.841797" xlink:href="#DejaVuSans-116"/>
      <use x="1006.050781" xlink:href="#DejaVuSans-111"/>
     </g>
    </g>
    <g id="line2d_27">
     <path d="M 516.154687 157.4775 
L 536.154687 157.4775 
" style="fill:none;stroke:#2ca02c;stroke-linecap:square;stroke-width:1.5;"/>
    </g>
    <g id="line2d_28"/>
    <g id="text_19">
     <!-- Maior renda basica -->
     <defs>
      <path d="M 48.6875 27.296875 
Q 48.6875 37.203125 44.609375 42.84375 
Q 40.53125 48.484375 33.40625 48.484375 
Q 26.265625 48.484375 22.1875 42.84375 
Q 18.109375 37.203125 18.109375 27.296875 
Q 18.109375 17.390625 22.1875 11.75 
Q 26.265625 6.109375 33.40625 6.109375 
Q 40.53125 6.109375 44.609375 11.75 
Q 48.6875 17.390625 48.6875 27.296875 
z
M 18.109375 46.390625 
Q 20.953125 51.265625 25.265625 53.625 
Q 29.59375 56 35.59375 56 
Q 45.5625 56 51.78125 48.09375 
Q 58.015625 40.1875 58.015625 27.296875 
Q 58.015625 14.40625 51.78125 6.484375 
Q 45.5625 -1.421875 35.59375 -1.421875 
Q 29.59375 -1.421875 25.265625 0.953125 
Q 20.953125 3.328125 18.109375 8.203125 
L 18.109375 0 
L 9.078125 0 
L 9.078125 75.984375 
L 18.109375 75.984375 
z
" id="DejaVuSans-98"/>
     </defs>
     <g transform="translate(544.154687 160.9775)scale(0.1 -0.1)">
      <use xlink:href="#DejaVuSans-77"/>
      <use x="86.279297" xlink:href="#DejaVuSans-97"/>
      <use x="147.558594" xlink:href="#DejaVuSans-105"/>
      <use x="175.341797" xlink:href="#DejaVuSans-111"/>
      <use x="236.523438" xlink:href="#DejaVuSans-114"/>
      <use x="277.636719" xlink:href="#DejaVuSans-32"/>
      <use x="309.423828" xlink:href="#DejaVuSans-114"/>
      <use x="348.287109" xlink:href="#DejaVuSans-101"/>
      <use x="409.810547" xlink:href="#DejaVuSans-110"/>
      <use x="473.189453" xlink:href="#DejaVuSans-100"/>
      <use x="536.666016" xlink:href="#DejaVuSans-97"/>
      <use x="597.945312" xlink:href="#DejaVuSans-32"/>
      <use x="629.732422" xlink:href="#DejaVuSans-98"/>
      <use x="693.208984" xlink:href="#DejaVuSans-97"/>
      <use x="754.488281" xlink:href="#DejaVuSans-115"/>
      <use x="806.587891" xlink:href="#DejaVuSans-105"/>
      <use x="834.371094" xlink:href="#DejaVuSans-99"/>
      <use x="889.351562" xlink:href="#DejaVuSans-97"/>
     </g>
    </g>
    <g id="line2d_29">
     <path d="M 516.154687 172.155625 
L 536.154687 172.155625 
" style="fill:none;stroke:#d62728;stroke-linecap:square;stroke-width:1.5;"/>
    </g>
    <g id="line2d_30"/>
    <g id="text_20">
     <!-- Sem renda basica -->
     <defs>
      <path d="M 53.515625 70.515625 
L 53.515625 60.890625 
Q 47.90625 63.578125 42.921875 64.890625 
Q 37.9375 66.21875 33.296875 66.21875 
Q 25.25 66.21875 20.875 63.09375 
Q 16.5 59.96875 16.5 54.203125 
Q 16.5 49.359375 19.40625 46.890625 
Q 22.3125 44.4375 30.421875 42.921875 
L 36.375 41.703125 
Q 47.40625 39.59375 52.65625 34.296875 
Q 57.90625 29 57.90625 20.125 
Q 57.90625 9.515625 50.796875 4.046875 
Q 43.703125 -1.421875 29.984375 -1.421875 
Q 24.8125 -1.421875 18.96875 -0.25 
Q 13.140625 0.921875 6.890625 3.21875 
L 6.890625 13.375 
Q 12.890625 10.015625 18.65625 8.296875 
Q 24.421875 6.59375 29.984375 6.59375 
Q 38.421875 6.59375 43.015625 9.90625 
Q 47.609375 13.234375 47.609375 19.390625 
Q 47.609375 24.75 44.3125 27.78125 
Q 41.015625 30.8125 33.5 32.328125 
L 27.484375 33.5 
Q 16.453125 35.6875 11.515625 40.375 
Q 6.59375 45.0625 6.59375 53.421875 
Q 6.59375 63.09375 13.40625 68.65625 
Q 20.21875 74.21875 32.171875 74.21875 
Q 37.3125 74.21875 42.625 73.28125 
Q 47.953125 72.359375 53.515625 70.515625 
z
" id="DejaVuSans-83"/>
     </defs>
     <g transform="translate(544.154687 175.655625)scale(0.1 -0.1)">
      <use xlink:href="#DejaVuSans-83"/>
      <use x="63.476562" xlink:href="#DejaVuSans-101"/>
      <use x="125" xlink:href="#DejaVuSans-109"/>
      <use x="222.412109" xlink:href="#DejaVuSans-32"/>
      <use x="254.199219" xlink:href="#DejaVuSans-114"/>
      <use x="293.0625" xlink:href="#DejaVuSans-101"/>
      <use x="354.585938" xlink:href="#DejaVuSans-110"/>
      <use x="417.964844" xlink:href="#DejaVuSans-100"/>
      <use x="481.441406" xlink:href="#DejaVuSans-97"/>
      <use x="542.720703" xlink:href="#DejaVuSans-32"/>
      <use x="574.507812" xlink:href="#DejaVuSans-98"/>
      <use x="637.984375" xlink:href="#DejaVuSans-97"/>
      <use x="699.263672" xlink:href="#DejaVuSans-115"/>
      <use x="751.363281" xlink:href="#DejaVuSans-105"/>
      <use x="779.146484" xlink:href="#DejaVuSans-99"/>
      <use x="834.126953" xlink:href="#DejaVuSans-97"/>
     </g>
    </g>
    <g id="line2d_31">
     <path d="M 516.154687 186.83375 
L 536.154687 186.83375 
" style="fill:none;stroke:#9467bd;stroke-linecap:square;stroke-width:1.5;"/>
    </g>
    <g id="line2d_32"/>
    <g id="text_21">
     <!-- Maior sal minimo -->
     <g transform="translate(544.154687 190.33375)scale(0.1 -0.1)">
      <use xlink:href="#DejaVuSans-77"/>
      <use x="86.279297" xlink:href="#DejaVuSans-97"/>
      <use x="147.558594" xlink:href="#DejaVuSans-105"/>
      <use x="175.341797" xlink:href="#DejaVuSans-111"/>
      <use x="236.523438" xlink:href="#DejaVuSans-114"/>
      <use x="277.636719" xlink:href="#DejaVuSans-32"/>
      <use x="309.423828" xlink:href="#DejaVuSans-115"/>
      <use x="361.523438" xlink:href="#DejaVuSans-97"/>
      <use x="422.802734" xlink:href="#DejaVuSans-108"/>
      <use x="450.585938" xlink:href="#DejaVuSans-32"/>
      <use x="482.373047" xlink:href="#DejaVuSans-109"/>
      <use x="579.785156" xlink:href="#DejaVuSans-105"/>
      <use x="607.568359" xlink:href="#DejaVuSans-110"/>
      <use x="670.947266" xlink:href="#DejaVuSans-105"/>
      <use x="698.730469" xlink:href="#DejaVuSans-109"/>
      <use x="796.142578" xlink:href="#DejaVuSans-111"/>
     </g>
    </g>
    <g id="line2d_33">
     <path d="M 516.154687 201.511875 
L 536.154687 201.511875 
" style="fill:none;stroke:#8c564b;stroke-linecap:square;stroke-width:1.5;"/>
    </g>
    <g id="line2d_34"/>
    <g id="text_22">
     <!-- Imposto progressivo -->
     <defs>
      <path d="M 9.8125 72.90625 
L 19.671875 72.90625 
L 19.671875 0 
L 9.8125 0 
z
" id="DejaVuSans-73"/>
      <path d="M 45.40625 27.984375 
Q 45.40625 37.75 41.375 43.109375 
Q 37.359375 48.484375 30.078125 48.484375 
Q 22.859375 48.484375 18.828125 43.109375 
Q 14.796875 37.75 14.796875 27.984375 
Q 14.796875 18.265625 18.828125 12.890625 
Q 22.859375 7.515625 30.078125 7.515625 
Q 37.359375 7.515625 41.375 12.890625 
Q 45.40625 18.265625 45.40625 27.984375 
z
M 54.390625 6.78125 
Q 54.390625 -7.171875 48.1875 -13.984375 
Q 42 -20.796875 29.203125 -20.796875 
Q 24.46875 -20.796875 20.265625 -20.09375 
Q 16.0625 -19.390625 12.109375 -17.921875 
L 12.109375 -9.1875 
Q 16.0625 -11.328125 19.921875 -12.34375 
Q 23.78125 -13.375 27.78125 -13.375 
Q 36.625 -13.375 41.015625 -8.765625 
Q 45.40625 -4.15625 45.40625 5.171875 
L 45.40625 9.625 
Q 42.625 4.78125 38.28125 2.390625 
Q 33.9375 0 27.875 0 
Q 17.828125 0 11.671875 7.65625 
Q 5.515625 15.328125 5.515625 27.984375 
Q 5.515625 40.671875 11.671875 48.328125 
Q 17.828125 56 27.875 56 
Q 33.9375 56 38.28125 53.609375 
Q 42.625 51.21875 45.40625 46.390625 
L 45.40625 54.6875 
L 54.390625 54.6875 
z
" id="DejaVuSans-103"/>
      <path d="M 2.984375 54.6875 
L 12.5 54.6875 
L 29.59375 8.796875 
L 46.6875 54.6875 
L 56.203125 54.6875 
L 35.6875 0 
L 23.484375 0 
z
" id="DejaVuSans-118"/>
     </defs>
     <g transform="translate(544.154687 205.011875)scale(0.1 -0.1)">
      <use xlink:href="#DejaVuSans-73"/>
      <use x="29.492188" xlink:href="#DejaVuSans-109"/>
      <use x="126.904297" xlink:href="#DejaVuSans-112"/>
      <use x="190.380859" xlink:href="#DejaVuSans-111"/>
      <use x="251.5625" xlink:href="#DejaVuSans-115"/>
      <use x="303.662109" xlink:href="#DejaVuSans-116"/>
      <use x="342.871094" xlink:href="#DejaVuSans-111"/>
      <use x="404.052734" xlink:href="#DejaVuSans-32"/>
      <use x="435.839844" xlink:href="#DejaVuSans-112"/>
      <use x="499.316406" xlink:href="#DejaVuSans-114"/>
      <use x="538.179688" xlink:href="#DejaVuSans-111"/>
      <use x="599.361328" xlink:href="#DejaVuSans-103"/>
      <use x="662.837891" xlink:href="#DejaVuSans-114"/>
      <use x="701.701172" xlink:href="#DejaVuSans-101"/>
      <use x="763.224609" xlink:href="#DejaVuSans-115"/>
      <use x="815.324219" xlink:href="#DejaVuSans-115"/>
      <use x="867.423828" xlink:href="#DejaVuSans-105"/>
      <use x="895.207031" xlink:href="#DejaVuSans-118"/>
      <use x="954.386719" xlink:href="#DejaVuSans-111"/>
     </g>
    </g>
   </g>
  </g>
 </g>
 <defs>
  <clipPath id="p02e74d3dc1">
   <rect height="271.8" width="446.4" x="60.754688" y="22.318125"/>
  </clipPath>
 </defs>
</svg>
