<?xml version="1.0" encoding="utf-8" standalone="no"?>
<!DOCTYPE svg PUBLIC "-//W3C//DTD SVG 1.1//EN"
  "http://www.w3.org/Graphics/SVG/1.1/DTD/svg11.dtd">
<!-- Created with matplotlib (https://matplotlib.org/) -->
<svg height="331.340625pt" version="1.1" viewBox="0 0 647.3375 331.340625" width="647.3375pt" xmlns="http://www.w3.org/2000/svg" xmlns:xlink="http://www.w3.org/1999/xlink">
 <defs>
  <style type="text/css">
*{stroke-linecap:butt;stroke-linejoin:round;}
  </style>
 </defs>
 <g id="figure_1">
  <g id="patch_1">
   <path d="M 0 331.340625 
L 647.3375 331.340625 
L 647.3375 0 
L 0 0 
z
" style="fill:#ffffff;"/>
  </g>
  <g id="axes_1">
   <g id="patch_2">
    <path d="M 46.0125 293.784375 
L 492.4125 293.784375 
L 492.4125 21.984375 
L 46.0125 21.984375 
z
" style="fill:#ffffff;"/>
   </g>
   <g id="line2d_1">
    <path clip-path="url(#p598ce3b94b)" d="M 66.303409 105.269709 
L 67.755352 106.452028 
L 68.481324 107.440562 
L 69.207296 107.540995 
L 69.933268 108.765201 
L 70.659239 108.962996 
L 71.385211 109.482377 
L 72.111183 110.531237 
L 72.837154 110.819329 
L 73.563126 111.445278 
L 74.289098 112.289726 
L 75.01507 113.701241 
L 75.741041 114.024539 
L 76.467013 115.000423 
L 77.192985 116.665887 
L 77.918956 117.555236 
L 80.096871 121.013271 
L 81.548815 124.531886 
L 83.72673 130.563903 
L 84.452702 131.713032 
L 85.904645 135.714017 
L 86.630617 137.189834 
L 88.08256 141.21317 
L 89.534504 144.318578 
L 90.986447 148.458719 
L 91.712419 150.328569 
L 93.164362 153.411397 
L 96.068249 159.421517 
L 98.972136 164.64164 
L 101.876023 169.368464 
L 102.601994 170.438215 
L 103.327966 171.836134 
L 104.779909 173.861081 
L 106.231853 176.548061 
L 106.957824 177.517122 
L 109.861711 182.547432 
L 110.587683 183.443847 
L 112.765598 187.04908 
L 113.49157 187.667406 
L 114.943513 189.978396 
L 115.669485 190.673296 
L 117.121428 192.647199 
L 118.573372 195.051954 
L 119.299343 195.715568 
L 122.20323 199.717593 
L 122.929202 200.5512 
L 123.655174 200.83274 
L 124.381145 201.465326 
L 125.107117 201.927504 
L 126.55906 203.580609 
L 127.285032 203.640403 
L 128.011004 204.439637 
L 128.736976 204.269864 
L 129.462947 204.471568 
L 130.188919 204.906745 
L 130.914891 204.544859 
L 133.092806 205.513482 
L 133.818777 205.012278 
L 134.544749 205.270837 
L 135.270721 204.817241 
L 135.996693 205.229218 
L 136.722664 205.48879 
L 137.448636 205.870775 
L 138.174608 205.431949 
L 138.900579 205.158318 
L 139.626551 205.26287 
L 140.352523 204.441505 
L 141.078494 203.906199 
L 141.804466 203.741643 
L 143.982381 203.942351 
L 144.708353 202.823865 
L 145.434325 202.673512 
L 146.160296 201.521399 
L 146.886268 201.224379 
L 149.064183 200.941369 
L 149.790155 199.938531 
L 150.516127 199.857681 
L 152.694042 196.830401 
L 153.420013 196.500692 
L 154.145985 195.727182 
L 154.871957 195.193176 
L 155.597929 194.892161 
L 156.3239 193.289473 
L 157.049872 193.131078 
L 157.775844 191.535207 
L 158.501815 190.70563 
L 159.227787 190.324157 
L 159.953759 190.217175 
L 160.67973 189.771066 
L 161.405702 189.75499 
L 162.131674 188.429926 
L 162.857646 187.981797 
L 163.583617 187.31432 
L 165.761532 186.947218 
L 166.487504 185.371823 
L 167.213476 185.090262 
L 168.665419 183.042035 
L 169.391391 182.227325 
L 170.843334 181.86258 
L 171.569306 181.2096 
L 172.295278 181.115596 
L 173.021249 179.767307 
L 174.473193 177.731924 
L 175.925136 177.789334 
L 176.651108 177.579434 
L 178.829023 177.717423 
L 179.554995 176.727693 
L 180.280966 176.74551 
L 181.006938 176.548731 
L 182.458882 177.38089 
L 183.910825 178.414396 
L 184.636797 177.807009 
L 185.362768 178.185212 
L 186.08874 177.713217 
L 187.540683 178.820212 
L 188.266655 178.963379 
L 188.992627 178.618934 
L 189.718599 179.029066 
L 190.44457 178.371038 
L 191.170542 178.822213 
L 191.896514 178.083579 
L 192.622485 178.468733 
L 193.348457 178.707036 
L 194.074429 178.243265 
L 194.8004 178.250521 
L 196.252344 177.315363 
L 196.978316 177.063593 
L 197.704287 177.001476 
L 198.430259 177.206259 
L 199.156231 176.508222 
L 199.882202 176.862249 
L 200.608174 176.800294 
L 201.334146 177.118813 
L 202.786089 177.974413 
L 203.512061 177.24934 
L 204.964004 178.46585 
L 205.689976 177.903254 
L 206.415948 177.998909 
L 207.141919 178.326162 
L 209.319835 180.056221 
L 210.045806 180.700882 
L 210.771778 181.530989 
L 211.49775 182.007106 
L 212.223721 181.76548 
L 213.675665 183.436854 
L 214.401636 184.215417 
L 215.127608 184.144827 
L 216.579552 184.664608 
L 217.305523 184.524516 
L 218.031495 185.108373 
L 218.757467 185.060965 
L 219.483438 185.221909 
L 220.20941 185.924783 
L 220.935382 185.057453 
L 223.113297 186.873423 
L 223.839269 186.837312 
L 224.56524 186.945692 
L 225.291212 186.64108 
L 226.017184 186.521048 
L 227.469127 185.840787 
L 228.92107 184.77605 
L 231.098986 184.94407 
L 231.824957 184.247468 
L 232.550929 184.433974 
L 233.276901 184.347607 
L 234.728844 183.188736 
L 236.180788 183.572884 
L 236.906759 182.872428 
L 238.358703 181.924777 
L 240.536618 179.337996 
L 241.262589 178.952339 
L 241.988561 178.977971 
L 242.714533 177.628358 
L 243.440505 176.989315 
L 244.892448 176.234077 
L 245.61842 175.850435 
L 247.070363 175.515441 
L 247.796335 175.518972 
L 248.522306 175.8455 
L 249.97425 174.429563 
L 251.426193 173.256272 
L 252.152165 173.377371 
L 252.878137 173.283695 
L 254.33008 173.456219 
L 255.056052 172.600205 
L 255.782023 172.160364 
L 256.507995 171.24375 
L 257.233967 171.253086 
L 257.959939 170.208915 
L 258.68591 170.401629 
L 259.411882 170.149648 
L 260.863825 170.401086 
L 261.589797 169.481056 
L 262.315769 169.081026 
L 263.041741 168.45476 
L 263.767712 168.058511 
L 264.493684 167.082929 
L 265.219656 166.519281 
L 266.671599 164.79621 
L 267.397571 164.60515 
L 268.123542 163.756865 
L 269.575486 162.623955 
L 270.301458 161.600164 
L 272.479373 160.936382 
L 273.205344 160.924761 
L 273.931316 160.162765 
L 274.657288 160.200239 
L 275.383259 160.367637 
L 276.109231 160.263404 
L 277.561175 160.667299 
L 278.287146 161.277708 
L 279.013118 161.461215 
L 279.73909 161.069725 
L 280.465061 161.123167 
L 281.191033 161.694611 
L 281.917005 161.408207 
L 282.642977 161.992599 
L 283.368948 161.719606 
L 284.820892 163.015613 
L 285.546863 163.756351 
L 286.272835 163.633787 
L 287.724778 164.386523 
L 288.45075 164.550165 
L 289.176722 165.385476 
L 289.902694 166.016553 
L 291.354637 167.586475 
L 293.532552 168.382438 
L 294.984495 168.458328 
L 295.710467 168.924935 
L 296.436439 168.620349 
L 297.162411 169.146501 
L 297.888382 168.832511 
L 298.614354 169.386134 
L 300.066297 170.129771 
L 300.792269 170.75204 
L 301.518241 170.341506 
L 302.244212 170.867624 
L 302.970184 170.489241 
L 303.696156 170.90022 
L 304.422128 171.157122 
L 306.600043 172.984367 
L 307.326014 172.847559 
L 308.051986 172.885843 
L 308.777958 173.45023 
L 309.50393 172.997414 
L 310.229901 172.894089 
L 310.955873 173.2111 
L 312.407816 173.486979 
L 313.133788 173.834396 
L 313.85976 173.527912 
L 314.585731 173.431787 
L 316.037675 173.72315 
L 316.763647 173.357473 
L 317.489618 173.584701 
L 318.21559 173.120313 
L 318.941562 173.241162 
L 319.667533 172.706338 
L 320.393505 172.884905 
L 321.119477 173.23705 
L 321.845448 173.333522 
L 322.57142 173.82644 
L 323.297392 174.176025 
L 324.023364 173.65401 
L 324.749335 173.574761 
L 325.475307 172.865572 
L 326.201279 172.537744 
L 326.92725 172.080879 
L 327.653222 172.004761 
L 328.379194 171.222021 
L 329.105165 171.108257 
L 330.557109 170.590002 
L 331.283081 170.54259 
L 332.009052 170.380658 
L 332.735024 169.812484 
L 334.912939 170.249869 
L 335.638911 169.556819 
L 336.364883 169.544121 
L 337.816826 168.36075 
L 338.542798 168.484292 
L 339.268769 168.024023 
L 340.720713 167.930537 
L 341.446684 167.170072 
L 342.172656 166.834975 
L 342.898628 166.683785 
L 343.6246 165.972385 
L 344.350571 166.056686 
L 345.076543 165.776963 
L 347.254458 166.45375 
L 347.98043 165.97503 
L 348.706401 165.636578 
L 349.432373 165.933093 
L 350.158345 166.044645 
L 350.884317 166.031575 
L 351.610288 166.481962 
L 352.33626 166.616947 
L 353.062232 166.018594 
L 353.788203 166.326222 
L 354.514175 166.199483 
L 355.240147 165.64842 
L 355.966118 165.762838 
L 356.69209 165.112863 
L 357.418062 164.912614 
L 358.144034 164.952075 
L 358.870005 164.804826 
L 359.595977 164.112871 
L 360.321949 164.103661 
L 361.773892 162.605468 
L 362.499864 162.443165 
L 363.225836 161.49809 
L 363.951807 161.356076 
L 364.677779 161.042672 
L 365.403751 160.332814 
L 366.129722 160.349775 
L 367.581666 158.98244 
L 368.307637 158.445362 
L 369.033609 157.64212 
L 371.211524 157.373357 
L 372.663468 155.975968 
L 373.389439 156.014702 
L 374.115411 155.166355 
L 375.567354 154.797942 
L 376.293326 154.764517 
L 377.019298 153.920919 
L 378.471241 152.715039 
L 379.197213 152.773136 
L 381.375128 152.342887 
L 382.1011 151.368183 
L 383.553043 150.069425 
L 384.279015 150.053964 
L 385.004987 149.039072 
L 385.730958 148.277562 
L 387.908873 147.781375 
L 388.634845 146.729698 
L 390.086789 146.763715 
L 390.81276 145.89933 
L 391.538732 145.338615 
L 392.264704 145.209835 
L 392.990675 144.124475 
L 393.716647 143.943051 
L 395.16859 142.421023 
L 395.894562 142.095945 
L 396.620534 140.969119 
L 397.346506 140.544762 
L 398.072477 139.48309 
L 398.798449 139.077386 
L 399.524421 137.887575 
L 400.250392 137.369308 
L 400.976364 136.172001 
L 401.702336 135.69959 
L 403.880251 132.239384 
L 404.606223 131.831827 
L 407.510109 129.445182 
L 410.413996 125.188923 
L 411.139968 123.994044 
L 412.591911 122.758721 
L 416.947742 115.583779 
L 417.673713 114.193013 
L 418.399685 113.31849 
L 419.851628 110.430595 
L 420.5776 109.493834 
L 422.029543 106.532122 
L 423.481487 103.536284 
L 424.93343 101.79041 
L 425.659402 100.235528 
L 427.111345 97.481033 
L 427.837317 96.031595 
L 428.563289 95.016689 
L 430.015232 92.275925 
L 431.467176 90.422316 
L 432.193147 88.973612 
L 432.919119 87.784817 
L 433.645091 86.949507 
L 436.548977 82.081877 
L 437.274949 81.317432 
L 438.726893 78.990833 
L 439.452864 78.376813 
L 440.178836 77.298056 
L 440.904808 76.688675 
L 442.356751 74.611783 
L 443.082723 73.661309 
L 443.808695 73.092955 
L 445.260638 71.02267 
L 448.164525 67.110178 
L 449.616468 65.191899 
L 451.794383 62.210569 
L 453.972298 59.327748 
L 454.69827 58.782881 
L 456.150213 56.890347 
L 456.876185 56.285254 
L 459.0541 53.312424 
L 460.506044 51.9758 
L 464.135902 47.030539 
L 464.861874 45.929376 
L 465.587846 45.116333 
L 468.491732 40.595322 
L 469.217704 39.676125 
L 472.121591 34.33892 
L 472.121591 34.33892 
" style="fill:none;stroke:#1f77b4;stroke-linecap:square;stroke-width:1.5;"/>
   </g>
   <g id="line2d_2">
    <path clip-path="url(#p598ce3b94b)" d="M 66.303409 280.70954 
L 67.029381 280.881628 
L 67.755352 280.915069 
L 69.933268 281.42983 
L 70.659239 280.903412 
L 72.837154 280.750196 
L 73.563126 280.138846 
L 75.01507 279.439706 
L 75.741041 278.705682 
L 77.918956 277.408459 
L 78.644928 276.449318 
L 80.822843 275.135405 
L 83.000758 274.283762 
L 85.178673 273.633962 
L 88.08256 273.031917 
L 90.986447 272.682549 
L 91.712419 272.346818 
L 93.164362 272.024706 
L 94.616305 272.060956 
L 95.342277 272.156192 
L 96.068249 270.838618 
L 97.520192 270.683378 
L 98.246164 269.684866 
L 99.698107 269.267253 
L 100.424079 269.216575 
L 101.150051 268.798432 
L 102.601994 268.660738 
L 105.505881 268.862398 
L 109.13574 269.654462 
L 112.039626 270.398765 
L 113.49157 271.023121 
L 116.395457 272.354362 
L 117.121428 272.413027 
L 118.573372 273.045937 
L 119.299343 272.701148 
L 122.929202 273.647526 
L 123.655174 272.923275 
L 125.833089 272.962961 
L 128.011004 273.118151 
L 129.462947 273.366659 
L 130.914891 273.697614 
L 131.640862 273.735526 
L 135.270721 274.717352 
L 137.448636 275.616791 
L 138.174608 275.089162 
L 139.626551 275.451111 
L 140.352523 274.786091 
L 141.804466 274.57114 
L 148.338211 274.628551 
L 150.516127 274.871056 
L 151.242098 274.23549 
L 151.96807 273.963214 
L 153.420013 273.84824 
L 154.871957 273.2807 
L 156.3239 273.08626 
L 157.775844 273.057463 
L 159.953759 273.29554 
L 161.405702 273.585021 
L 162.131674 272.805556 
L 165.761532 272.355811 
L 166.487504 271.517609 
L 167.939447 271.137485 
L 168.665419 271.012593 
L 169.391391 270.165335 
L 173.021249 269.01381 
L 173.747221 268.677436 
L 175.199164 268.579335 
L 175.925136 268.575653 
L 176.651108 268.376201 
L 177.37708 268.386074 
L 178.829023 268.60055 
L 179.554995 268.639403 
L 182.458882 269.407938 
L 184.636797 269.952057 
L 185.362768 270.044381 
L 187.540683 270.942426 
L 188.266655 270.868959 
L 188.992627 270.536447 
L 190.44457 270.749304 
L 191.896514 271.075614 
L 192.622485 271.112071 
L 194.8004 271.760704 
L 197.704287 272.628036 
L 198.430259 272.743347 
L 199.156231 272.50611 
L 204.964004 274.049184 
L 205.689976 273.542504 
L 208.593863 273.497619 
L 210.045806 273.633941 
L 211.49775 273.784729 
L 212.949693 273.87339 
L 213.675665 273.911505 
L 214.401636 274.072732 
L 215.127608 273.388608 
L 215.85358 273.203119 
L 216.579552 272.682421 
L 217.305523 272.581287 
L 218.031495 272.31561 
L 219.483438 271.129591 
L 220.20941 270.808337 
L 220.935382 269.93553 
L 223.113297 268.846066 
L 223.839269 268.181297 
L 225.291212 267.393073 
L 226.017184 266.468003 
L 226.743155 265.956961 
L 227.469127 265.599056 
L 228.195099 264.342319 
L 228.92107 263.363593 
L 231.098986 261.671247 
L 232.550929 260.791865 
L 234.002872 260.190695 
L 234.728844 258.845649 
L 236.180788 258.103899 
L 236.906759 257.813936 
L 237.632731 256.715296 
L 238.358703 255.919402 
L 239.810646 255.06055 
L 240.536618 253.825531 
L 241.988561 252.868495 
L 243.440505 252.235324 
L 245.61842 251.33639 
L 246.344391 251.24123 
L 247.070363 250.976739 
L 248.522306 250.91048 
L 249.248278 250.178154 
L 249.97425 249.744094 
L 250.700222 249.648515 
L 251.426193 248.977943 
L 252.878137 248.867654 
L 254.33008 248.690614 
L 255.056052 247.986187 
L 256.507995 247.867514 
L 257.959939 247.933301 
L 260.137854 248.297796 
L 260.863825 248.573134 
L 261.589797 248.186035 
L 262.315769 248.056176 
L 263.767712 248.448514 
L 264.493684 248.695463 
L 265.219656 248.414325 
L 267.397571 249.131656 
L 268.123542 249.455175 
L 268.849514 249.323783 
L 269.575486 249.395808 
L 270.301458 249.33387 
L 272.479373 249.886943 
L 273.205344 250.151069 
L 273.931316 249.98191 
L 275.383259 250.420275 
L 278.287146 251.595746 
L 282.642977 253.954491 
L 284.820892 255.4222 
L 293.532552 261.808392 
L 294.258524 261.88384 
L 296.436439 263.364569 
L 297.162411 263.746834 
L 297.888382 263.95458 
L 299.340326 264.848347 
L 300.066297 265.140588 
L 300.792269 265.573095 
L 302.244212 266.222732 
L 304.422128 267.335942 
L 306.600043 268.46483 
L 307.326014 268.426345 
L 308.051986 268.553745 
L 309.50393 268.986464 
L 310.955873 269.312416 
L 312.407816 269.508363 
L 313.85976 269.795918 
L 314.585731 269.55259 
L 316.037675 269.51387 
L 316.763647 269.103597 
L 317.489618 269.024755 
L 318.21559 268.47356 
L 323.297392 266.48608 
L 325.475307 265.306837 
L 326.201279 264.599937 
L 326.92725 264.107415 
L 329.105165 262.203532 
L 334.186967 257.6162 
L 336.364883 256.1164 
L 337.090854 255.139383 
L 340.720713 252.317685 
L 341.446684 251.263566 
L 342.898628 250.16195 
L 343.6246 249.11641 
L 345.802515 247.518285 
L 347.254458 246.644407 
L 347.98043 245.743865 
L 349.432373 244.815334 
L 352.33626 242.783079 
L 353.062232 241.979159 
L 355.240147 240.598746 
L 355.966118 240.075151 
L 358.870005 238.58966 
L 359.595977 237.944523 
L 360.321949 237.617977 
L 361.773892 236.192904 
L 362.499864 235.761406 
L 363.225836 234.96943 
L 364.677779 234.144634 
L 365.403751 233.400445 
L 366.129722 232.988124 
L 369.033609 230.19035 
L 370.485553 229.227335 
L 371.937496 228.481846 
L 372.663468 227.812267 
L 374.841383 226.748896 
L 377.019298 226.033796 
L 377.74527 225.563615 
L 379.197213 225.134119 
L 380.649156 224.822881 
L 381.375128 224.759548 
L 382.1011 224.344191 
L 384.279015 224.144476 
L 385.004987 223.7804 
L 387.908873 223.474586 
L 389.360817 223.399921 
L 390.086789 223.419362 
L 391.538732 222.965261 
L 393.716647 222.7456 
L 397.346506 222.592544 
L 401.702336 221.272311 
L 403.880251 220.161223 
L 406.784138 218.991857 
L 408.962053 218.228373 
L 409.688024 217.937004 
L 411.139968 217.12805 
L 412.591911 216.439102 
L 415.495798 214.412582 
L 417.673713 212.419478 
L 419.125657 210.841 
L 421.303572 208.026701 
L 422.755515 205.813444 
L 424.93343 202.312013 
L 427.837317 197.804748 
L 429.28926 195.23365 
L 433.645091 186.633637 
L 435.823006 181.766341 
L 440.904808 169.9004 
L 445.98661 159.259555 
L 451.068412 148.964847 
L 457.602157 135.512799 
L 460.506044 129.601409 
L 468.491732 114.633653 
L 472.121591 108.47355 
L 472.121591 108.47355 
" style="fill:none;stroke:#ff7f0e;stroke-linecap:square;stroke-width:1.5;"/>
   </g>
   <g id="line2d_3">
    <path clip-path="url(#p598ce3b94b)" d="M 66.303409 217.4129 
L 67.029381 217.052016 
L 67.755352 216.242084 
L 68.481324 216.034424 
L 69.207296 214.815743 
L 69.933268 214.529467 
L 70.659239 213.37386 
L 71.385211 212.46514 
L 72.111183 212.171856 
L 72.837154 210.909426 
L 74.289098 209.024193 
L 75.01507 208.571026 
L 75.741041 207.073016 
L 76.467013 206.641653 
L 77.192985 206.477666 
L 78.644928 204.916981 
L 79.3709 204.785488 
L 80.096871 204.783352 
L 81.548815 205.183535 
L 85.178673 207.306859 
L 85.904645 207.964628 
L 86.630617 207.768366 
L 88.808532 209.727323 
L 89.534504 209.514589 
L 90.986447 210.94749 
L 92.43839 212.248814 
L 93.164362 212.316934 
L 93.890334 212.730927 
L 94.616305 213.010899 
L 95.342277 213.702491 
L 96.068249 213.645217 
L 97.520192 215.071 
L 98.246164 215.128594 
L 99.698107 216.547714 
L 100.424079 216.782178 
L 101.150051 217.373821 
L 101.876023 217.440925 
L 102.601994 217.752058 
L 103.327966 218.300267 
L 104.053938 218.428352 
L 106.231853 220.239614 
L 106.957824 220.441778 
L 112.039626 224.444493 
L 113.49157 225.783343 
L 114.943513 226.995947 
L 115.669485 227.331028 
L 116.395457 228.102304 
L 117.121428 228.624722 
L 118.573372 230.171758 
L 119.299343 230.435413 
L 122.929202 233.536848 
L 123.655174 233.577301 
L 124.381145 233.90396 
L 126.55906 235.592793 
L 127.285032 236.06032 
L 128.736976 237.181626 
L 129.462947 237.712535 
L 133.092806 239.602047 
L 133.818777 239.534182 
L 135.270721 240.269456 
L 137.448636 241.749666 
L 138.174608 241.713791 
L 139.626551 242.430475 
L 140.352523 242.232218 
L 141.078494 242.277648 
L 142.530438 242.780522 
L 143.982381 243.326045 
L 149.064183 245.740664 
L 149.790155 245.41295 
L 150.516127 245.705781 
L 152.694042 244.937107 
L 153.420013 244.952036 
L 154.871957 244.658063 
L 157.049872 244.882719 
L 158.501815 245.190515 
L 161.405702 246.197954 
L 162.131674 245.680123 
L 165.761532 245.779723 
L 166.487504 244.8436 
L 167.213476 244.705329 
L 167.939447 243.977714 
L 168.665419 243.798496 
L 169.391391 242.921161 
L 170.843334 242.551283 
L 172.295278 241.826036 
L 173.021249 240.869723 
L 173.747221 240.405827 
L 174.473193 240.134918 
L 175.925136 239.893782 
L 176.651108 239.577746 
L 178.829023 239.600168 
L 179.554995 238.536964 
L 181.006938 238.002496 
L 182.458882 237.910715 
L 183.184853 237.817742 
L 183.910825 237.847798 
L 185.362768 237.722009 
L 186.08874 236.901619 
L 187.540683 236.918137 
L 188.266655 236.670179 
L 188.992627 235.693777 
L 189.718599 235.498488 
L 190.44457 234.614432 
L 191.170542 234.386665 
L 191.896514 233.44079 
L 193.348457 233.066541 
L 195.526372 233.130428 
L 196.252344 233.025044 
L 196.978316 233.130393 
L 197.704287 232.92513 
L 198.430259 232.881157 
L 199.156231 232.262082 
L 199.882202 232.314848 
L 200.608174 232.043149 
L 201.334146 231.982524 
L 202.060117 232.110735 
L 202.786089 232.091317 
L 203.512061 231.392369 
L 204.964004 231.657323 
L 205.689976 230.999607 
L 206.415948 230.655051 
L 207.141919 230.576892 
L 207.867891 230.64224 
L 208.593863 230.557399 
L 211.49775 230.995312 
L 212.949693 231.454234 
L 213.675665 231.705896 
L 214.401636 232.139434 
L 215.127608 231.572131 
L 215.85358 231.420146 
L 216.579552 231.130796 
L 217.305523 230.705848 
L 218.031495 230.694916 
L 218.757467 230.136519 
L 219.483438 229.777041 
L 220.20941 229.798015 
L 220.935382 228.995884 
L 222.387325 228.972408 
L 223.113297 229.013433 
L 223.839269 228.619783 
L 224.56524 228.68959 
L 225.291212 228.002353 
L 226.017184 227.496147 
L 226.743155 227.318318 
L 227.469127 226.531529 
L 228.195099 225.96239 
L 228.92107 225.060236 
L 231.098986 224.232459 
L 231.824957 223.499848 
L 234.002872 223.022495 
L 234.728844 222.026937 
L 236.906759 221.886568 
L 237.632731 220.906803 
L 238.358703 220.517898 
L 239.810646 219.033405 
L 240.536618 218.139015 
L 241.262589 217.753347 
L 241.988561 217.531515 
L 242.714533 217.116048 
L 243.440505 216.836204 
L 244.166476 216.406446 
L 244.892448 216.119208 
L 247.070363 215.97638 
L 247.796335 216.030196 
L 248.522306 216.234255 
L 249.97425 215.245221 
L 251.426193 214.333037 
L 254.33008 214.284132 
L 255.056052 213.601891 
L 257.233967 213.725463 
L 258.68591 214.249317 
L 259.411882 214.262657 
L 260.863825 214.98072 
L 261.589797 214.472151 
L 263.041741 214.199182 
L 265.219656 213.780032 
L 265.945627 213.436932 
L 266.671599 213.233027 
L 268.123542 213.504401 
L 268.849514 213.146885 
L 269.575486 213.027483 
L 270.301458 212.574724 
L 271.753401 212.620377 
L 273.205344 212.86244 
L 273.931316 212.511562 
L 274.657288 212.623848 
L 276.109231 213.052375 
L 276.835203 213.224452 
L 277.561175 213.526818 
L 278.287146 213.972325 
L 279.013118 214.203173 
L 279.73909 214.555568 
L 280.465061 214.473484 
L 283.368948 216.329215 
L 285.546863 218.18878 
L 286.272835 218.123985 
L 287.724778 219.296403 
L 288.45075 219.404854 
L 293.532552 223.937961 
L 294.258524 223.921891 
L 294.984495 224.280612 
L 295.710467 224.792985 
L 296.436439 224.7529 
L 297.162411 225.186625 
L 297.888382 225.194381 
L 299.340326 226.182562 
L 300.066297 226.392548 
L 300.792269 226.87855 
L 301.518241 226.688497 
L 303.696156 227.643369 
L 304.422128 227.878295 
L 306.600043 229.050101 
L 307.326014 228.873909 
L 308.051986 228.836882 
L 308.777958 229.077431 
L 309.50393 229.146611 
L 310.229901 229.333726 
L 313.133788 229.536846 
L 313.85976 229.742766 
L 314.585731 229.380612 
L 316.037675 229.46898 
L 316.763647 228.976674 
L 317.489618 229.00285 
L 318.21559 228.405662 
L 318.941562 228.21222 
L 319.667533 227.551059 
L 321.845448 226.853094 
L 323.297392 226.556209 
L 324.023364 225.784989 
L 324.749335 225.717754 
L 326.201279 224.606973 
L 326.92725 223.83907 
L 330.557109 221.202786 
L 332.009052 220.043532 
L 332.735024 219.074325 
L 335.638911 217.757251 
L 336.364883 217.559023 
L 337.090854 216.850318 
L 338.542798 216.322947 
L 339.268769 215.612454 
L 339.994741 215.232342 
L 340.720713 215.017219 
L 341.446684 213.966104 
L 342.898628 212.756498 
L 343.6246 211.780273 
L 344.350571 211.424477 
L 345.076543 210.901022 
L 347.254458 210.096581 
L 347.98043 209.350333 
L 352.33626 207.524138 
L 353.062232 206.781991 
L 354.514175 206.515301 
L 355.240147 205.622736 
L 356.69209 205.09702 
L 357.418062 204.989799 
L 358.870005 204.45512 
L 359.595977 203.809346 
L 360.321949 203.676794 
L 361.773892 202.170199 
L 362.499864 201.930853 
L 363.225836 201.172115 
L 364.677779 200.760124 
L 365.403751 200.090618 
L 366.129722 199.930085 
L 368.307637 198.016533 
L 369.759581 197.432902 
L 371.211524 197.224431 
L 371.937496 197.161631 
L 372.663468 196.534027 
L 373.389439 196.485334 
L 374.115411 195.860437 
L 374.841383 195.617423 
L 376.293326 195.451275 
L 377.019298 194.885354 
L 378.471241 193.939992 
L 381.375128 193.348558 
L 383.553043 191.720022 
L 384.279015 191.533847 
L 385.004987 190.810525 
L 387.182902 190.030796 
L 390.086789 189.521715 
L 391.538732 188.523632 
L 392.264704 188.338394 
L 392.990675 187.737719 
L 393.716647 187.436237 
L 394.442619 186.900607 
L 395.894562 186.349927 
L 396.620534 185.620438 
L 397.346506 185.280153 
L 398.072477 184.624992 
L 398.798449 184.299724 
L 399.524421 183.478744 
L 400.250392 183.056684 
L 400.976364 182.251701 
L 401.702336 181.769046 
L 403.154279 180.229899 
L 405.332194 178.81507 
L 406.784138 178.082342 
L 407.510109 177.500765 
L 408.236081 177.066361 
L 408.962053 176.79934 
L 410.413996 175.334269 
L 411.86594 174.343204 
L 412.591911 173.980045 
L 414.769826 171.625174 
L 415.495798 171.031025 
L 416.22177 170.149532 
L 416.947742 169.506282 
L 417.673713 168.481912 
L 418.399685 167.766469 
L 422.029543 162.652343 
L 423.481487 160.23263 
L 426.385374 156.459578 
L 430.741204 149.285349 
L 431.467176 148.247345 
L 433.645091 144.58333 
L 438.000921 137.007781 
L 442.356751 130.743482 
L 445.260638 127.186319 
L 448.164525 122.881974 
L 456.876185 109.048082 
L 459.780072 104.179181 
L 461.232015 101.846965 
L 467.039789 91.494119 
L 468.491732 88.939787 
L 469.943676 86.521029 
L 471.395619 84.026355 
L 472.121591 82.894056 
L 472.121591 82.894056 
" style="fill:none;stroke:#2ca02c;stroke-linecap:square;stroke-width:1.5;"/>
   </g>
   <g id="line2d_4">
    <path clip-path="url(#p598ce3b94b)" d="M 66.303409 233.651472 
L 67.029381 233.136247 
L 67.755352 232.316264 
L 68.481324 231.963104 
L 69.207296 230.18395 
L 69.933268 229.728469 
L 70.659239 228.033474 
L 71.385211 226.799364 
L 72.111183 226.237733 
L 72.837154 224.380788 
L 74.289098 221.616415 
L 75.01507 220.824698 
L 75.741041 218.919118 
L 76.467013 218.171558 
L 77.192985 217.78784 
L 78.644928 215.439324 
L 79.3709 215.166735 
L 80.096871 215.029988 
L 80.822843 215.097859 
L 81.548815 215.315822 
L 83.72673 216.480022 
L 85.178673 217.632813 
L 85.904645 218.306024 
L 86.630617 217.803766 
L 91.712419 222.229019 
L 92.43839 222.958066 
L 93.164362 222.856648 
L 93.890334 223.281812 
L 94.616305 223.422107 
L 95.342277 224.121296 
L 96.068249 223.834946 
L 97.520192 225.277697 
L 98.246164 225.297695 
L 99.698107 226.693391 
L 100.424079 226.805398 
L 101.150051 227.371727 
L 101.876023 227.436743 
L 102.601994 227.700282 
L 103.327966 228.247885 
L 104.053938 228.28062 
L 105.505881 229.495907 
L 106.231853 230.069543 
L 106.957824 230.159771 
L 110.587683 233.040633 
L 111.313655 233.745603 
L 112.039626 234.271745 
L 114.217541 236.483857 
L 114.943513 236.991726 
L 115.669485 237.362405 
L 116.395457 238.167431 
L 117.121428 238.661095 
L 118.573372 240.252464 
L 119.299343 240.422482 
L 121.477258 242.475165 
L 122.20323 243.223089 
L 122.929202 243.757404 
L 123.655174 243.74293 
L 124.381145 244.135742 
L 130.188919 249.095213 
L 131.640862 249.858707 
L 132.366834 250.340075 
L 133.818777 251.564492 
L 134.544749 251.94811 
L 135.996693 253.199999 
L 137.448636 254.588396 
L 138.174608 254.517737 
L 139.626551 255.694444 
L 140.352523 255.418741 
L 141.804466 256.083835 
L 146.160296 258.634811 
L 146.886268 258.96538 
L 149.064183 260.391025 
L 149.790155 260.058557 
L 150.516127 260.438415 
L 151.242098 260.152888 
L 151.96807 260.058127 
L 152.694042 259.801105 
L 153.420013 259.883133 
L 154.145985 259.685523 
L 154.871957 259.609724 
L 157.049872 259.842378 
L 158.501815 260.137786 
L 159.227787 260.421572 
L 159.953759 260.577166 
L 161.405702 261.177936 
L 162.131674 260.359001 
L 162.857646 260.365521 
L 163.583617 260.129468 
L 165.035561 260.304018 
L 165.761532 260.129562 
L 166.487504 259.089738 
L 167.213476 258.82805 
L 167.939447 257.817968 
L 168.665419 257.502363 
L 169.391391 256.359795 
L 170.843334 255.747954 
L 171.569306 255.048321 
L 173.747221 253.61741 
L 174.473193 253.335306 
L 175.925136 253.209962 
L 176.651108 252.762351 
L 177.37708 252.743822 
L 178.103051 252.893106 
L 178.829023 252.801017 
L 179.554995 251.386664 
L 181.006938 250.668402 
L 182.458882 250.527128 
L 183.184853 250.29894 
L 183.910825 250.294587 
L 185.362768 249.970726 
L 186.08874 248.827683 
L 187.540683 248.701961 
L 188.266655 248.236327 
L 188.992627 246.953026 
L 189.718599 246.610323 
L 190.44457 246.416755 
L 191.170542 246.066685 
L 191.896514 245.944295 
L 192.622485 245.617129 
L 193.348457 245.59511 
L 194.8004 245.902741 
L 196.978316 246.694393 
L 197.704287 246.521575 
L 198.430259 246.560015 
L 199.156231 245.911615 
L 200.608174 246.415836 
L 203.512061 247.308662 
L 204.964004 248.19422 
L 205.689976 247.342692 
L 207.141919 247.391879 
L 207.867891 247.643083 
L 208.593863 247.654947 
L 209.319835 247.920321 
L 210.045806 248.046611 
L 210.771778 248.381761 
L 212.223721 248.791651 
L 214.401636 249.862121 
L 215.127608 249.117368 
L 215.85358 249.048315 
L 217.305523 248.188403 
L 218.031495 248.113135 
L 218.757467 247.404291 
L 219.483438 246.945484 
L 220.20941 246.875874 
L 220.935382 245.923372 
L 222.387325 245.722789 
L 223.113297 245.731316 
L 223.839269 245.16743 
L 225.291212 245.05876 
L 226.017184 244.248751 
L 226.743155 244.094652 
L 228.92107 241.469603 
L 230.373014 240.849503 
L 231.824957 240.616083 
L 234.002872 240.386801 
L 234.728844 238.833164 
L 236.906759 238.824207 
L 237.632731 237.734795 
L 238.358703 237.252944 
L 239.810646 235.383825 
L 240.536618 234.221239 
L 241.262589 233.764104 
L 243.440505 233.090114 
L 244.166476 232.475061 
L 244.892448 232.090969 
L 247.796335 231.800721 
L 248.522306 231.985577 
L 249.248278 231.028203 
L 249.97425 230.450772 
L 250.700222 229.63261 
L 251.426193 228.992405 
L 254.33008 228.258462 
L 255.056052 227.166047 
L 255.782023 226.991599 
L 257.959939 227.111803 
L 258.68591 227.260524 
L 259.411882 227.008058 
L 260.863825 227.462439 
L 261.589797 226.470939 
L 262.315769 226.1977 
L 263.767712 226.62171 
L 264.493684 226.850017 
L 265.219656 226.292598 
L 265.945627 225.968215 
L 266.671599 226.249953 
L 267.397571 226.37364 
L 268.123542 226.676265 
L 268.849514 226.132492 
L 269.575486 226.077531 
L 270.301458 225.637847 
L 271.753401 225.822691 
L 273.205344 226.318944 
L 273.931316 225.792999 
L 274.657288 225.992179 
L 275.383259 226.317623 
L 276.835203 226.686537 
L 277.561175 227.028874 
L 278.287146 227.522803 
L 279.013118 227.718777 
L 279.73909 228.077921 
L 283.368948 230.799947 
L 285.546863 232.77455 
L 286.272835 232.586444 
L 289.176722 235.16631 
L 293.532552 239.545831 
L 294.258524 239.471591 
L 295.710467 240.484452 
L 296.436439 240.42455 
L 297.162411 240.89227 
L 297.888382 240.826516 
L 299.340326 241.824406 
L 300.066297 242.091051 
L 300.792269 242.583207 
L 301.518241 242.254677 
L 303.696156 243.294534 
L 304.422128 243.494802 
L 306.600043 244.586456 
L 307.326014 244.294588 
L 308.051986 244.278105 
L 308.777958 244.570294 
L 309.50393 244.710984 
L 310.229901 244.966177 
L 312.407816 244.866088 
L 313.85976 245.191431 
L 314.585731 244.647878 
L 316.037675 244.607873 
L 316.763647 243.903131 
L 317.489618 243.845599 
L 318.21559 242.971059 
L 318.941562 242.669845 
L 319.667533 241.905476 
L 320.393505 241.495351 
L 324.023364 240.219163 
L 324.749335 240.169987 
L 326.201279 238.822426 
L 326.92725 237.874829 
L 327.653222 237.283341 
L 328.379194 236.839143 
L 329.105165 236.230631 
L 329.831137 235.424676 
L 330.557109 234.895078 
L 332.009052 233.446141 
L 332.735024 232.311658 
L 334.912939 231.18933 
L 336.364883 230.552827 
L 337.090854 229.594438 
L 338.542798 228.896414 
L 339.268769 227.912011 
L 339.994741 227.384689 
L 340.720713 227.046623 
L 341.446684 225.634515 
L 342.898628 224.024957 
L 343.6246 222.738061 
L 344.350571 222.232125 
L 345.076543 221.529559 
L 346.528486 220.835577 
L 347.254458 220.560431 
L 347.98043 219.488514 
L 350.158345 218.184827 
L 350.884317 217.587509 
L 351.610288 217.369577 
L 352.33626 216.890388 
L 353.062232 215.920515 
L 354.514175 215.527389 
L 355.240147 214.283705 
L 356.69209 213.566895 
L 357.418062 213.369546 
L 358.870005 212.622129 
L 359.595977 211.80956 
L 360.321949 211.6509 
L 361.04792 210.58261 
L 361.773892 209.769621 
L 362.499864 209.472609 
L 363.225836 208.510921 
L 364.677779 208.085242 
L 365.403751 207.221843 
L 366.129722 207.041797 
L 368.307637 204.792661 
L 369.759581 204.338319 
L 371.211524 204.249083 
L 371.937496 204.224419 
L 372.663468 203.497866 
L 374.115411 203.429373 
L 374.841383 203.212338 
L 376.293326 203.362806 
L 377.019298 203.376336 
L 378.471241 202.692419 
L 380.649156 203.026174 
L 381.375128 203.257601 
L 382.1011 202.822508 
L 382.827071 202.581941 
L 383.553043 202.202369 
L 384.279015 202.303068 
L 385.004987 201.746139 
L 387.182902 201.69565 
L 387.908873 201.812359 
L 388.634845 201.776749 
L 390.086789 202.089655 
L 391.538732 201.434834 
L 393.716647 201.368082 
L 394.442619 201.072518 
L 395.894562 201.063559 
L 396.620534 200.492512 
L 397.346506 200.399534 
L 398.072477 199.942874 
L 398.798449 199.839509 
L 399.524421 199.259742 
L 400.250392 199.051165 
L 400.976364 198.408143 
L 401.702336 198.185995 
L 402.428307 197.499811 
L 403.154279 197.001882 
L 406.058166 195.832647 
L 406.784138 195.624238 
L 407.510109 195.563464 
L 408.236081 195.214824 
L 408.962053 195.152543 
L 409.688024 194.862286 
L 410.413996 194.309221 
L 412.591911 193.574529 
L 414.043855 192.38038 
L 414.769826 191.694885 
L 415.495798 191.27386 
L 416.22177 190.596357 
L 416.947742 190.09014 
L 417.673713 189.150385 
L 418.399685 188.601957 
L 419.851628 186.659425 
L 420.5776 185.934154 
L 423.481487 181.495522 
L 427.111345 177.201502 
L 427.837317 175.926959 
L 428.563289 174.956498 
L 430.015232 172.389398 
L 432.193147 168.91113 
L 435.823006 162.231317 
L 436.548977 160.576471 
L 437.274949 159.261008 
L 438.000921 157.680436 
L 441.630779 151.068045 
L 442.356751 149.566056 
L 446.712581 141.972052 
L 451.794383 131.770156 
L 459.780072 114.987319 
L 461.232015 112.047796 
L 468.491732 96.223788 
L 469.943676 93.334477 
L 471.395619 90.464521 
L 472.121591 89.171576 
L 472.121591 89.171576 
" style="fill:none;stroke:#d62728;stroke-linecap:square;stroke-width:1.5;"/>
   </g>
   <g id="line2d_5">
    <path clip-path="url(#p598ce3b94b)" d="M 66.303409 200.805318 
L 67.029381 200.278191 
L 67.755352 199.275099 
L 68.481324 198.959004 
L 69.207296 197.563232 
L 69.933268 197.195779 
L 70.659239 195.934818 
L 71.385211 194.910382 
L 72.111183 194.52104 
L 72.837154 193.249861 
L 74.289098 191.193491 
L 75.01507 190.714219 
L 75.741041 189.148271 
L 76.467013 188.726903 
L 77.192985 188.589976 
L 78.644928 187.062144 
L 79.3709 186.956512 
L 80.096871 187.021533 
L 81.548815 187.593495 
L 85.178673 190.48967 
L 85.904645 191.344581 
L 86.630617 191.315308 
L 88.808532 193.903643 
L 89.534504 193.895584 
L 90.986447 195.806539 
L 92.43839 197.583093 
L 93.164362 197.867926 
L 94.616305 199.013667 
L 95.342277 199.47571 
L 96.068249 199.751635 
L 97.520192 201.292401 
L 98.246164 201.586586 
L 99.698107 203.248942 
L 100.424079 203.672366 
L 101.150051 204.404902 
L 101.876023 204.58406 
L 102.601994 205.051489 
L 103.327966 205.740198 
L 104.053938 206.042618 
L 104.779909 206.475012 
L 106.231853 207.813062 
L 106.957824 208.111447 
L 112.039626 212.713245 
L 113.49157 214.217676 
L 114.943513 215.64462 
L 115.669485 215.989688 
L 116.395457 216.863573 
L 117.121428 217.448768 
L 118.573372 219.205415 
L 119.299343 219.556086 
L 122.929202 223.197337 
L 123.655174 223.327089 
L 124.381145 223.76766 
L 125.107117 224.458365 
L 125.833089 224.92368 
L 126.55906 225.604249 
L 127.285032 225.650561 
L 128.011004 226.249081 
L 128.736976 226.590162 
L 129.462947 227.105334 
L 133.092806 228.855714 
L 133.818777 228.679585 
L 135.270721 229.337721 
L 137.448636 230.748681 
L 138.174608 230.693068 
L 139.626551 231.420332 
L 140.352523 231.187912 
L 141.078494 231.207179 
L 142.530438 231.694741 
L 143.982381 232.263614 
L 147.61224 234.135018 
L 149.064183 235.03214 
L 149.790155 234.7504 
L 150.516127 235.133326 
L 152.694042 234.393115 
L 153.420013 234.460546 
L 154.145985 234.297344 
L 154.871957 234.249638 
L 157.049872 234.555537 
L 157.775844 233.89076 
L 158.501815 233.609183 
L 159.953759 233.57935 
L 161.405702 233.765518 
L 162.131674 233.145475 
L 164.309589 232.735925 
L 165.761532 232.528453 
L 166.487504 231.509399 
L 167.213476 231.24459 
L 169.391391 228.781717 
L 170.843334 228.076281 
L 171.569306 227.518794 
L 172.295278 227.103378 
L 173.021249 226.023678 
L 173.747221 225.46995 
L 174.473193 225.07365 
L 177.37708 224.229732 
L 178.829023 224.341536 
L 179.554995 223.290581 
L 181.006938 222.902573 
L 184.636797 223.222038 
L 185.362768 223.345495 
L 186.08874 222.685224 
L 187.540683 223.017544 
L 188.266655 222.917547 
L 188.992627 222.19152 
L 189.718599 222.18388 
L 190.44457 221.301971 
L 191.170542 221.251116 
L 191.896514 220.262596 
L 192.622485 220.190663 
L 193.348457 219.891102 
L 195.526372 218.092702 
L 196.978316 216.353107 
L 197.704287 215.689503 
L 198.430259 215.190143 
L 199.156231 214.173477 
L 199.882202 213.776151 
L 200.608174 213.096811 
L 201.334146 212.677636 
L 202.786089 212.175003 
L 203.512061 210.968684 
L 204.964004 210.600233 
L 205.689976 209.527842 
L 206.415948 208.901256 
L 207.867891 208.31719 
L 208.593863 208.052296 
L 210.045806 207.885952 
L 210.771778 208.014072 
L 211.49775 207.887962 
L 212.949693 208.295277 
L 213.675665 208.569496 
L 214.401636 209.067361 
L 215.127608 208.554117 
L 216.579552 208.239591 
L 217.305523 207.901448 
L 218.031495 208.002146 
L 218.757467 207.590846 
L 219.483438 207.350505 
L 220.20941 207.568312 
L 220.935382 206.742752 
L 222.387325 206.968654 
L 223.113297 207.187078 
L 223.839269 206.991585 
L 224.56524 207.263145 
L 225.291212 206.771375 
L 226.017184 206.524729 
L 227.469127 205.614793 
L 228.92107 204.434508 
L 231.098986 204.079534 
L 231.824957 203.47988 
L 234.002872 203.620028 
L 234.728844 202.961848 
L 236.180788 203.310693 
L 236.906759 202.868173 
L 238.358703 202.269726 
L 240.536618 200.632247 
L 241.262589 200.439574 
L 241.988561 200.416353 
L 242.714533 200.269887 
L 243.440505 199.690697 
L 246.344391 199.243771 
L 247.070363 199.252021 
L 247.796335 199.3749 
L 248.522306 199.687327 
L 250.700222 198.729095 
L 251.426193 198.464816 
L 254.33008 198.989931 
L 255.056052 198.557195 
L 255.782023 198.739628 
L 256.507995 198.754694 
L 257.959939 199.378044 
L 258.68591 199.821864 
L 259.411882 200.031166 
L 260.863825 200.963755 
L 261.589797 200.690389 
L 264.493684 201.007955 
L 265.945627 200.68314 
L 266.671599 200.61818 
L 268.123542 201.158659 
L 268.849514 201.009984 
L 269.575486 201.052987 
L 270.301458 200.771581 
L 271.753401 201.094714 
L 273.205344 201.603632 
L 273.931316 201.41918 
L 274.657288 201.679868 
L 276.835203 202.723357 
L 277.561175 203.027901 
L 278.287146 203.585397 
L 279.013118 203.921891 
L 279.73909 204.394764 
L 280.465061 204.446017 
L 281.191033 205.002654 
L 281.917005 204.984462 
L 284.09492 206.660532 
L 284.820892 207.27277 
L 285.546863 208.034714 
L 286.272835 208.02975 
L 287.724778 209.285501 
L 288.45075 209.452867 
L 291.354637 212.250196 
L 292.080609 212.409942 
L 293.532552 213.072439 
L 294.984495 213.431026 
L 295.710467 213.84737 
L 296.436439 213.714424 
L 297.162411 214.047454 
L 297.888382 213.837373 
L 299.340326 214.575764 
L 300.066297 214.695821 
L 300.792269 215.044284 
L 301.518241 214.710687 
L 302.244212 214.932017 
L 302.970184 214.559792 
L 303.696156 214.726098 
L 304.422128 214.71634 
L 306.600043 215.179109 
L 308.051986 214.530212 
L 308.777958 214.55991 
L 309.50393 213.908453 
L 310.229901 213.418941 
L 311.681845 212.747064 
L 313.133788 211.971998 
L 313.85976 211.789376 
L 314.585731 211.046843 
L 316.037675 210.436588 
L 316.763647 209.579029 
L 317.489618 209.281808 
L 318.21559 208.348134 
L 318.941562 207.837149 
L 319.667533 206.857567 
L 321.119477 205.904774 
L 321.845448 205.418861 
L 323.297392 204.793403 
L 324.023364 203.815941 
L 324.749335 203.659045 
L 326.201279 202.388947 
L 326.92725 201.565976 
L 328.379194 200.614446 
L 329.831137 199.573524 
L 332.009052 198.152858 
L 332.735024 197.335347 
L 334.912939 196.885196 
L 336.364883 196.891546 
L 337.816826 195.98251 
L 338.542798 195.976196 
L 339.268769 195.489319 
L 339.994741 195.368836 
L 340.720713 195.410108 
L 341.446684 194.683325 
L 342.898628 194.093386 
L 343.6246 193.46315 
L 345.076543 193.147474 
L 347.254458 193.257237 
L 347.98043 192.843041 
L 351.610288 193.164109 
L 352.33626 193.238099 
L 353.062232 192.925753 
L 354.514175 193.201508 
L 355.240147 192.732954 
L 357.418062 193.114536 
L 358.870005 193.265443 
L 359.595977 192.877411 
L 360.321949 193.014581 
L 361.773892 192.189464 
L 362.499864 192.129175 
L 363.225836 191.551617 
L 363.951807 191.579108 
L 364.677779 191.407467 
L 365.403751 191.021633 
L 366.129722 191.027384 
L 368.307637 189.719323 
L 369.759581 189.426866 
L 371.211524 189.266279 
L 372.663468 188.331172 
L 373.389439 188.204455 
L 374.115411 187.613719 
L 374.841383 187.330494 
L 376.293326 186.997979 
L 378.471241 185.321328 
L 379.923185 184.784198 
L 380.649156 184.488269 
L 381.375128 184.316657 
L 383.553043 182.39458 
L 384.279015 182.088466 
L 385.730958 180.542201 
L 389.360817 178.576108 
L 390.086789 178.333625 
L 391.538732 176.948071 
L 392.264704 176.56493 
L 392.990675 175.769164 
L 393.716647 175.282164 
L 395.16859 173.716994 
L 395.894562 173.185023 
L 396.620534 172.153442 
L 397.346506 171.52621 
L 398.072477 170.491703 
L 398.798449 169.772899 
L 399.524421 168.643344 
L 400.250392 167.847636 
L 400.976364 166.612128 
L 401.702336 165.777629 
L 403.880251 162.017741 
L 406.058166 159.111379 
L 406.784138 158.254373 
L 407.510109 157.178327 
L 408.236081 156.301177 
L 409.688024 154.042594 
L 410.413996 152.808955 
L 413.317883 148.717761 
L 416.947742 142.639798 
L 419.851628 137.173722 
L 420.5776 135.938385 
L 424.207459 128.438788 
L 424.93343 127.186081 
L 432.919119 110.955943 
L 435.097034 106.91834 
L 437.274949 102.849208 
L 439.452864 99.069173 
L 440.904808 96.741317 
L 443.808695 92.142539 
L 451.068412 80.795919 
L 453.972298 76.455737 
L 456.876185 72.783522 
L 463.40993 64.3603 
L 466.313817 60.744753 
L 472.121591 53.525362 
L 472.121591 53.525362 
" style="fill:none;stroke:#9467bd;stroke-linecap:square;stroke-width:1.5;"/>
   </g>
   <g id="line2d_6">
    <path clip-path="url(#p598ce3b94b)" d="M 66.303409 231.479153 
L 67.029381 231.05813 
L 67.755352 230.367699 
L 68.481324 230.093651 
L 69.207296 228.583383 
L 69.933268 228.2166 
L 70.659239 226.747258 
L 71.385211 225.67617 
L 72.111183 225.227371 
L 72.837154 223.589534 
L 74.289098 221.216018 
L 75.01507 220.562922 
L 75.741041 218.904276 
L 76.467013 218.291661 
L 77.192985 218.008818 
L 78.644928 215.935231 
L 80.096871 215.618215 
L 80.822843 215.716199 
L 81.548815 215.944649 
L 83.72673 217.095562 
L 84.452702 217.21502 
L 85.178673 217.497547 
L 85.904645 218.060643 
L 86.630617 217.623828 
L 89.534504 219.6767 
L 90.986447 220.974081 
L 91.712419 221.476887 
L 92.43839 222.137244 
L 93.164362 222.040367 
L 93.890334 222.393027 
L 94.616305 222.527629 
L 95.342277 223.162483 
L 96.068249 222.893181 
L 97.520192 224.192941 
L 98.246164 224.038002 
L 99.698107 225.31261 
L 100.424079 225.377578 
L 101.150051 225.879129 
L 101.876023 225.900203 
L 102.601994 226.109875 
L 103.327966 226.602437 
L 104.053938 226.60984 
L 106.231853 228.269629 
L 106.957824 228.340834 
L 109.861711 230.402075 
L 111.313655 231.689372 
L 112.039626 232.164272 
L 114.217541 234.268629 
L 114.943513 234.758187 
L 115.669485 235.09982 
L 116.395457 235.873842 
L 117.121428 236.363248 
L 118.573372 237.905347 
L 119.299343 238.090834 
L 121.477258 240.091872 
L 122.20323 240.830043 
L 122.929202 241.355723 
L 123.655174 241.325264 
L 124.381145 241.708546 
L 128.011004 244.805143 
L 129.462947 246.055764 
L 132.366834 247.722265 
L 133.818777 248.911858 
L 134.544749 249.250674 
L 135.996693 250.447588 
L 137.448636 251.673248 
L 138.174608 251.678452 
L 139.626551 252.780437 
L 140.352523 252.514815 
L 141.804466 253.09772 
L 146.160296 255.556342 
L 146.886268 255.861963 
L 149.064183 257.157246 
L 149.790155 256.929054 
L 150.516127 257.270398 
L 151.242098 257.025698 
L 154.871957 256.517432 
L 157.049872 256.786816 
L 158.501815 257.094395 
L 161.405702 258.140268 
L 162.131674 257.430791 
L 162.857646 257.423287 
L 163.583617 257.24772 
L 165.035561 257.459054 
L 165.761532 257.334939 
L 166.487504 256.369554 
L 167.213476 256.14547 
L 167.939447 255.240089 
L 168.665419 254.969276 
L 169.391391 253.869583 
L 170.843334 253.287559 
L 171.569306 252.662718 
L 172.295278 252.220027 
L 173.021249 250.949895 
L 173.747221 250.30516 
L 174.473193 249.887701 
L 175.925136 249.412865 
L 176.651108 248.900422 
L 177.37708 248.752463 
L 178.103051 248.741987 
L 178.829023 248.562774 
L 179.554995 247.143356 
L 181.006938 246.219342 
L 182.458882 245.864674 
L 183.184853 245.581759 
L 184.636797 245.294889 
L 185.362768 245.08328 
L 186.08874 243.941183 
L 187.540683 243.727922 
L 188.266655 243.271782 
L 188.992627 241.982203 
L 189.718599 241.622404 
L 190.44457 241.42726 
L 191.170542 241.096386 
L 191.896514 239.976061 
L 193.348457 239.607786 
L 194.8004 239.734057 
L 195.526372 239.890532 
L 196.252344 239.763692 
L 196.978316 239.895432 
L 197.704287 239.674864 
L 198.430259 239.612648 
L 199.156231 238.920911 
L 199.882202 239.124108 
L 201.334146 239.396309 
L 202.060117 239.678238 
L 202.786089 239.720568 
L 203.512061 239.036257 
L 204.964004 239.665838 
L 205.689976 238.904614 
L 206.415948 238.715241 
L 207.141919 238.723849 
L 207.867891 238.902628 
L 208.593863 238.899789 
L 209.319835 239.124261 
L 210.045806 239.1783 
L 210.771778 239.48775 
L 212.223721 239.896193 
L 214.401636 241.019469 
L 215.127608 240.434133 
L 215.85358 240.455715 
L 217.305523 239.800782 
L 218.031495 239.838303 
L 218.757467 239.287289 
L 219.483438 238.981315 
L 220.20941 239.057431 
L 220.935382 238.333969 
L 222.387325 238.472361 
L 223.113297 238.625323 
L 223.839269 238.328083 
L 225.291212 238.588043 
L 226.017184 238.06365 
L 226.743155 238.115474 
L 228.195099 237.196186 
L 228.92107 236.456529 
L 230.373014 236.358911 
L 233.276901 236.784958 
L 234.002872 237.025853 
L 234.728844 235.95993 
L 236.906759 236.583682 
L 237.632731 235.909806 
L 238.358703 235.713298 
L 239.810646 234.592837 
L 240.536618 233.847361 
L 241.262589 233.680625 
L 243.440505 233.712552 
L 244.166476 233.38781 
L 244.892448 233.250028 
L 247.796335 233.670384 
L 248.522306 233.954345 
L 249.248278 233.312615 
L 249.97425 232.954257 
L 251.426193 231.984931 
L 253.604108 231.849476 
L 254.33008 231.772389 
L 255.056052 230.931788 
L 257.233967 230.746494 
L 258.68591 231.050595 
L 259.411882 230.848327 
L 260.863825 231.253171 
L 261.589797 230.392067 
L 262.315769 230.116374 
L 263.767712 230.455192 
L 264.493684 230.63142 
L 265.219656 230.094011 
L 265.945627 229.742866 
L 266.671599 229.944338 
L 267.397571 230.012418 
L 268.123542 230.22722 
L 268.849514 229.657108 
L 269.575486 229.519747 
L 270.301458 229.033045 
L 271.753401 229.016841 
L 273.205344 229.289073 
L 273.931316 228.657603 
L 274.657288 228.733358 
L 275.383259 228.933908 
L 277.561175 229.257581 
L 278.287146 229.616223 
L 279.013118 229.686132 
L 279.73909 229.904964 
L 281.191033 230.663706 
L 281.917005 231.156163 
L 282.642977 231.464831 
L 284.820892 232.874692 
L 285.546863 233.488984 
L 286.272835 233.16392 
L 288.45075 234.674319 
L 291.354637 237.01829 
L 293.532552 238.850632 
L 294.258524 238.626794 
L 295.710467 239.386423 
L 296.436439 239.185203 
L 297.162411 239.51917 
L 297.888382 239.339614 
L 299.340326 240.10851 
L 300.066297 240.260732 
L 300.792269 240.642908 
L 301.518241 240.163641 
L 306.600043 241.724165 
L 307.326014 241.315231 
L 308.051986 241.171668 
L 308.777958 241.366843 
L 310.229901 241.451083 
L 313.133788 241.085856 
L 313.85976 241.17594 
L 314.585731 240.532974 
L 316.037675 240.314277 
L 316.763647 239.518349 
L 317.489618 239.376946 
L 318.21559 238.451371 
L 318.941562 238.073686 
L 319.667533 237.265827 
L 320.393505 236.802261 
L 321.119477 236.510499 
L 321.845448 236.042403 
L 322.57142 235.781622 
L 323.297392 235.39645 
L 324.023364 234.337029 
L 324.749335 234.122654 
L 326.201279 232.497916 
L 326.92725 231.439604 
L 332.009052 226.406011 
L 332.735024 225.214144 
L 334.912939 223.939752 
L 336.364883 223.286214 
L 337.090854 222.40032 
L 338.542798 221.697013 
L 339.268769 220.833557 
L 339.994741 220.349784 
L 340.720713 220.069146 
L 341.446684 218.816317 
L 342.898628 217.448176 
L 343.6246 216.346155 
L 344.350571 215.965772 
L 345.076543 215.431684 
L 346.528486 214.981614 
L 347.254458 214.844581 
L 347.98043 213.990121 
L 351.610288 212.722486 
L 352.33626 212.447616 
L 353.062232 211.726821 
L 354.514175 211.678994 
L 355.240147 210.742008 
L 356.69209 210.42606 
L 357.418062 210.412926 
L 358.870005 210.087219 
L 359.595977 209.538231 
L 360.321949 209.560901 
L 361.04792 208.799482 
L 361.773892 208.253665 
L 362.499864 208.161197 
L 363.225836 207.493106 
L 364.677779 207.440411 
L 365.403751 206.851005 
L 366.129722 206.848885 
L 368.307637 205.354075 
L 369.759581 205.242855 
L 371.937496 205.52687 
L 372.663468 205.01128 
L 374.115411 205.176912 
L 374.841383 205.093493 
L 376.293326 205.405374 
L 377.019298 205.499129 
L 378.471241 205.055209 
L 380.649156 205.502858 
L 381.375128 205.744622 
L 382.1011 205.405573 
L 382.827071 205.220104 
L 383.553043 204.914324 
L 384.279015 205.025687 
L 385.004987 204.540301 
L 387.182902 204.510798 
L 387.908873 204.611976 
L 388.634845 204.574577 
L 390.086789 204.823476 
L 391.538732 204.17137 
L 393.716647 203.988519 
L 394.442619 203.665425 
L 395.894562 203.527768 
L 396.620534 202.934309 
L 397.346506 202.770715 
L 398.072477 202.267426 
L 398.798449 202.084549 
L 399.524421 201.446658 
L 400.250392 201.15396 
L 400.976364 200.451351 
L 401.702336 200.137537 
L 402.428307 199.384371 
L 403.154279 198.801944 
L 406.058166 197.216436 
L 406.784138 196.885359 
L 407.510109 196.687416 
L 408.236081 196.230839 
L 408.962053 196.032251 
L 409.688024 195.622383 
L 410.413996 194.9531 
L 412.591911 193.824175 
L 414.043855 192.386715 
L 414.769826 191.582879 
L 415.495798 191.030146 
L 418.399685 187.870104 
L 419.851628 185.711167 
L 420.5776 184.86809 
L 424.207459 179.09276 
L 427.111345 175.290105 
L 427.837317 173.952378 
L 428.563289 172.907205 
L 430.015232 170.243005 
L 432.193147 166.635108 
L 437.274949 156.984257 
L 438.726893 154.165864 
L 439.452864 152.959956 
L 440.904808 150.222848 
L 441.630779 149.048483 
L 443.082723 146.450371 
L 445.98661 141.856257 
L 448.890496 136.536095 
L 449.616468 135.404835 
L 459.780072 116.418813 
L 461.232015 113.848204 
L 468.491732 100.014767 
L 469.943676 97.482724 
L 471.395619 94.951444 
L 472.121591 93.807545 
L 472.121591 93.807545 
" style="fill:none;stroke:#8c564b;stroke-linecap:square;stroke-width:1.5;"/>
   </g>
   <g id="line2d_7">
    <path clip-path="url(#p598ce3b94b)" d="M 66.303409 227.150594 
L 67.029381 226.674428 
L 67.755352 225.931612 
L 68.481324 225.620526 
L 69.207296 224.078465 
L 69.933268 223.683863 
L 70.659239 222.18586 
L 71.385211 221.071105 
L 72.111183 220.609595 
L 72.837154 218.957575 
L 74.289098 216.533088 
L 75.01507 215.865202 
L 75.741041 214.212617 
L 76.467013 213.580839 
L 77.192985 213.291336 
L 78.644928 211.214214 
L 79.3709 210.95218 
L 80.096871 210.854733 
L 80.822843 210.961123 
L 81.548815 211.190785 
L 84.452702 212.619342 
L 85.178673 212.948119 
L 85.904645 213.563859 
L 86.630617 213.207126 
L 88.808532 215.029218 
L 89.534504 214.538995 
L 90.260475 215.289625 
L 92.43839 217.047242 
L 93.164362 216.929488 
L 93.890334 217.280171 
L 94.616305 217.420821 
L 95.342277 218.065286 
L 96.068249 217.818494 
L 97.520192 219.155108 
L 98.246164 219.042962 
L 99.698107 220.379657 
L 100.424079 220.49477 
L 101.150051 221.030613 
L 101.876023 220.972925 
L 102.601994 221.241082 
L 103.327966 221.746901 
L 104.053938 221.783459 
L 106.231853 223.536367 
L 106.957824 223.645114 
L 110.587683 226.540534 
L 114.943513 230.569186 
L 115.669485 230.964102 
L 116.395457 231.800269 
L 117.121428 232.345569 
L 118.573372 234.01122 
L 119.299343 234.256153 
L 121.477258 236.43979 
L 122.20323 237.241459 
L 122.929202 237.671276 
L 123.655174 237.871864 
L 124.381145 238.236455 
L 130.188919 243.446848 
L 132.366834 244.86861 
L 133.092806 245.525502 
L 134.544749 246.412644 
L 135.996693 247.659471 
L 137.448636 248.950807 
L 138.174608 249.043743 
L 139.626551 250.219267 
L 140.352523 250.033576 
L 141.804466 250.695632 
L 146.160296 253.415475 
L 146.886268 253.765814 
L 149.064183 255.201471 
L 149.790155 255.041606 
L 150.516127 255.432646 
L 151.96807 255.186306 
L 152.694042 255.028545 
L 153.420013 255.152561 
L 154.871957 255.032242 
L 157.775844 255.590214 
L 159.953759 256.304898 
L 161.405702 256.970555 
L 162.131674 256.342625 
L 162.857646 256.38167 
L 163.583617 256.24841 
L 165.035561 256.532592 
L 165.761532 256.447868 
L 166.487504 255.534093 
L 167.213476 255.352974 
L 167.939447 254.511342 
L 168.665419 254.276418 
L 169.391391 253.228975 
L 170.843334 252.695953 
L 171.569306 252.110564 
L 172.295278 251.698857 
L 173.021249 250.483392 
L 173.747221 249.863269 
L 174.473193 249.455244 
L 175.925136 248.966037 
L 176.651108 248.484441 
L 177.37708 248.336045 
L 178.103051 248.319053 
L 178.829023 248.145095 
L 179.554995 246.756283 
L 181.006938 245.841649 
L 181.73291 245.700507 
L 183.184853 245.133269 
L 184.636797 244.821255 
L 185.362768 244.59615 
L 186.08874 243.437385 
L 187.540683 243.164253 
L 188.266655 242.71609 
L 188.992627 241.367854 
L 189.718599 240.987994 
L 190.44457 240.758593 
L 191.170542 240.396411 
L 191.896514 239.239922 
L 193.348457 238.788796 
L 194.8004 238.84767 
L 195.526372 238.954753 
L 196.252344 238.779372 
L 196.978316 238.886154 
L 197.704287 238.628952 
L 198.430259 238.535091 
L 199.156231 237.797371 
L 199.882202 237.976603 
L 200.608174 238.020285 
L 202.786089 238.459622 
L 203.512061 237.723446 
L 204.964004 238.31285 
L 205.689976 237.534937 
L 206.415948 237.29442 
L 207.141919 237.271769 
L 207.867891 237.420687 
L 208.593863 237.388699 
L 209.319835 237.589384 
L 210.045806 237.616918 
L 210.771778 237.908839 
L 212.223721 238.286248 
L 214.401636 239.375191 
L 215.127608 238.772601 
L 215.85358 238.772031 
L 217.305523 238.062517 
L 218.031495 238.084016 
L 218.757467 237.50289 
L 219.483438 237.156598 
L 220.20941 237.211165 
L 220.935382 236.452039 
L 222.387325 236.541176 
L 223.113297 236.671601 
L 223.839269 236.284363 
L 224.56524 236.415511 
L 225.291212 235.658422 
L 226.017184 235.198334 
L 226.743155 235.033439 
L 227.469127 234.191657 
L 228.195099 233.623959 
L 228.92107 232.64808 
L 231.098986 231.796534 
L 231.824957 231.010646 
L 234.002872 230.647065 
L 234.728844 229.37177 
L 236.906759 229.278397 
L 237.632731 228.41373 
L 238.358703 227.960848 
L 239.810646 226.391996 
L 240.536618 225.431522 
L 241.262589 225.087036 
L 243.440505 224.672894 
L 244.166476 224.188782 
L 244.892448 223.96854 
L 247.796335 224.170583 
L 248.522306 224.435119 
L 249.248278 223.811891 
L 251.426193 222.425272 
L 254.33008 222.402961 
L 255.056052 221.62489 
L 257.233967 221.711768 
L 258.68591 222.215197 
L 259.411882 222.160037 
L 260.863825 222.833586 
L 261.589797 222.174839 
L 262.315769 222.047019 
L 263.767712 222.707538 
L 264.493684 223.057903 
L 265.219656 222.742023 
L 265.945627 222.586277 
L 268.123542 223.615075 
L 268.849514 223.298124 
L 269.575486 223.372507 
L 270.301458 223.115223 
L 271.753401 223.523819 
L 273.205344 224.183359 
L 273.931316 223.842834 
L 276.835203 225.038342 
L 277.561175 225.441348 
L 278.287146 225.9741 
L 279.013118 226.238224 
L 279.73909 226.646497 
L 280.465061 226.564825 
L 284.09492 229.098077 
L 284.820892 229.634175 
L 285.546863 230.319418 
L 286.272835 230.170564 
L 289.176722 232.534788 
L 292.080609 235.1766 
L 292.80658 235.71884 
L 293.532552 236.439372 
L 294.258524 236.302967 
L 295.710467 237.115187 
L 296.436439 236.995864 
L 297.162411 237.374631 
L 297.888382 237.277653 
L 299.340326 238.124766 
L 300.066297 238.341106 
L 300.792269 238.75347 
L 301.518241 238.375819 
L 306.600043 240.221088 
L 307.326014 239.867003 
L 308.051986 239.76671 
L 308.777958 239.99494 
L 309.50393 239.937909 
L 310.229901 240.016283 
L 313.133788 239.695829 
L 313.85976 239.788158 
L 314.585731 239.166248 
L 316.037675 238.96134 
L 316.763647 238.185852 
L 317.489618 238.047005 
L 318.21559 237.135884 
L 318.941562 236.755151 
L 319.667533 235.947128 
L 320.393505 235.479924 
L 321.119477 235.171291 
L 321.845448 234.697989 
L 323.297392 234.041522 
L 324.023364 232.977657 
L 324.749335 232.754983 
L 326.201279 231.104629 
L 326.92725 230.033543 
L 332.009052 224.750598 
L 332.735024 223.503209 
L 334.912939 222.087927 
L 336.364883 221.377664 
L 337.090854 220.453947 
L 338.542798 219.697582 
L 339.268769 218.788418 
L 339.994741 218.280667 
L 340.720713 217.967668 
L 341.446684 216.681199 
L 342.898628 215.189908 
L 343.6246 214.047346 
L 344.350571 213.624135 
L 345.076543 212.995781 
L 346.528486 212.444371 
L 347.254458 212.263646 
L 347.98043 211.352268 
L 351.610288 209.902488 
L 352.33626 209.606164 
L 353.062232 208.82763 
L 354.514175 208.70198 
L 355.240147 207.739762 
L 356.69209 207.369352 
L 357.418062 207.335848 
L 358.870005 206.962757 
L 359.595977 206.387479 
L 360.321949 206.394722 
L 361.04792 205.600593 
L 361.773892 205.028125 
L 362.499864 204.914061 
L 363.225836 204.23051 
L 364.677779 204.136093 
L 365.403751 203.521847 
L 366.129722 203.506413 
L 368.307637 201.941018 
L 369.759581 201.778355 
L 371.211524 201.926317 
L 371.937496 202.02305 
L 372.663468 201.510655 
L 374.115411 201.671533 
L 374.841383 201.589058 
L 376.293326 201.909751 
L 377.019298 202.017542 
L 378.471241 201.587317 
L 380.649156 202.081166 
L 381.375128 202.341317 
L 382.1011 202.014686 
L 382.827071 201.836756 
L 383.553043 201.535737 
L 384.279015 201.650454 
L 385.004987 201.157297 
L 387.182902 201.138358 
L 387.908873 201.23897 
L 388.634845 201.208604 
L 390.086789 201.481484 
L 391.538732 200.84411 
L 392.990675 200.783721 
L 393.716647 200.681188 
L 394.442619 200.359971 
L 395.894562 200.239907 
L 396.620534 199.652247 
L 397.346506 199.491879 
L 398.072477 198.985224 
L 398.798449 198.811104 
L 399.524421 198.167761 
L 400.250392 197.874909 
L 400.976364 197.161112 
L 401.702336 196.844553 
L 402.428307 196.083446 
L 403.154279 195.489338 
L 406.058166 193.906723 
L 406.784138 193.580352 
L 407.510109 193.387795 
L 408.236081 192.939475 
L 408.962053 192.745338 
L 409.688024 192.34634 
L 410.413996 191.679814 
L 412.591911 190.570956 
L 414.043855 189.135257 
L 414.769826 188.325032 
L 415.495798 187.773651 
L 416.22177 186.951382 
L 416.947742 186.309874 
L 417.673713 185.240742 
L 418.399685 184.549172 
L 419.851628 182.3466 
L 420.5776 181.479406 
L 424.207459 175.514895 
L 426.385374 172.482151 
L 427.111345 171.418588 
L 427.837317 170.005526 
L 428.563289 168.883163 
L 430.015232 166.045029 
L 432.193147 162.210603 
L 437.274949 151.940156 
L 438.000921 150.302857 
L 444.534666 138.258525 
L 445.98661 135.910628 
L 448.890496 130.211996 
L 449.616468 128.994184 
L 459.780072 108.592266 
L 461.232015 105.852831 
L 468.491732 91.236831 
L 469.943676 88.602237 
L 471.395619 85.985233 
L 472.121591 84.80526 
L 472.121591 84.80526 
" style="fill:none;stroke:#000000;stroke-dasharray:3.7,1.6;stroke-dashoffset:0;"/>
   </g>
   <g id="matplotlib.axis_1">
    <g id="xtick_1">
     <g id="line2d_8">
      <defs>
       <path d="M 0 0 
L 0 3.5 
" id="m18d3be1b3b" style="stroke:#000000;stroke-width:0.8;"/>
      </defs>
      <g>
       <use style="stroke:#000000;stroke-width:0.8;" x="87.356588" xlink:href="#m18d3be1b3b" y="293.784375"/>
      </g>
     </g>
     <g id="text_1">
      <!-- 100 -->
      <defs>
       <path d="M 12.40625 8.296875 
L 28.515625 8.296875 
L 28.515625 63.921875 
L 10.984375 60.40625 
L 10.984375 69.390625 
L 28.421875 72.90625 
L 38.28125 72.90625 
L 38.28125 8.296875 
L 54.390625 8.296875 
L 54.390625 0 
L 12.40625 0 
z
" id="DejaVuSans-49"/>
       <path d="M 31.78125 66.40625 
Q 24.171875 66.40625 20.328125 58.90625 
Q 16.5 51.421875 16.5 36.375 
Q 16.5 21.390625 20.328125 13.890625 
Q 24.171875 6.390625 31.78125 6.390625 
Q 39.453125 6.390625 43.28125 13.890625 
Q 47.125 21.390625 47.125 36.375 
Q 47.125 51.421875 43.28125 58.90625 
Q 39.453125 66.40625 31.78125 66.40625 
z
M 31.78125 74.21875 
Q 44.046875 74.21875 50.515625 64.515625 
Q 56.984375 54.828125 56.984375 36.375 
Q 56.984375 17.96875 50.515625 8.265625 
Q 44.046875 -1.421875 31.78125 -1.421875 
Q 19.53125 -1.421875 13.0625 8.265625 
Q 6.59375 17.96875 6.59375 36.375 
Q 6.59375 54.828125 13.0625 64.515625 
Q 19.53125 74.21875 31.78125 74.21875 
z
" id="DejaVuSans-48"/>
      </defs>
      <g transform="translate(77.812838 308.382812)scale(0.1 -0.1)">
       <use xlink:href="#DejaVuSans-49"/>
       <use x="63.623047" xlink:href="#DejaVuSans-48"/>
       <use x="127.246094" xlink:href="#DejaVuSans-48"/>
      </g>
     </g>
    </g>
    <g id="xtick_2">
     <g id="line2d_9">
      <g>
       <use style="stroke:#000000;stroke-width:0.8;" x="159.953759" xlink:href="#m18d3be1b3b" y="293.784375"/>
      </g>
     </g>
     <g id="text_2">
      <!-- 200 -->
      <defs>
       <path d="M 19.1875 8.296875 
L 53.609375 8.296875 
L 53.609375 0 
L 7.328125 0 
L 7.328125 8.296875 
Q 12.9375 14.109375 22.625 23.890625 
Q 32.328125 33.6875 34.8125 36.53125 
Q 39.546875 41.84375 41.421875 45.53125 
Q 43.3125 49.21875 43.3125 52.78125 
Q 43.3125 58.59375 39.234375 62.25 
Q 35.15625 65.921875 28.609375 65.921875 
Q 23.96875 65.921875 18.8125 64.3125 
Q 13.671875 62.703125 7.8125 59.421875 
L 7.8125 69.390625 
Q 13.765625 71.78125 18.9375 73 
Q 24.125 74.21875 28.421875 74.21875 
Q 39.75 74.21875 46.484375 68.546875 
Q 53.21875 62.890625 53.21875 53.421875 
Q 53.21875 48.921875 51.53125 44.890625 
Q 49.859375 40.875 45.40625 35.40625 
Q 44.1875 33.984375 37.640625 27.21875 
Q 31.109375 20.453125 19.1875 8.296875 
z
" id="DejaVuSans-50"/>
      </defs>
      <g transform="translate(150.410009 308.382812)scale(0.1 -0.1)">
       <use xlink:href="#DejaVuSans-50"/>
       <use x="63.623047" xlink:href="#DejaVuSans-48"/>
       <use x="127.246094" xlink:href="#DejaVuSans-48"/>
      </g>
     </g>
    </g>
    <g id="xtick_3">
     <g id="line2d_10">
      <g>
       <use style="stroke:#000000;stroke-width:0.8;" x="232.550929" xlink:href="#m18d3be1b3b" y="293.784375"/>
      </g>
     </g>
     <g id="text_3">
      <!-- 300 -->
      <defs>
       <path d="M 40.578125 39.3125 
Q 47.65625 37.796875 51.625 33 
Q 55.609375 28.21875 55.609375 21.1875 
Q 55.609375 10.40625 48.1875 4.484375 
Q 40.765625 -1.421875 27.09375 -1.421875 
Q 22.515625 -1.421875 17.65625 -0.515625 
Q 12.796875 0.390625 7.625 2.203125 
L 7.625 11.71875 
Q 11.71875 9.328125 16.59375 8.109375 
Q 21.484375 6.890625 26.8125 6.890625 
Q 36.078125 6.890625 40.9375 10.546875 
Q 45.796875 14.203125 45.796875 21.1875 
Q 45.796875 27.640625 41.28125 31.265625 
Q 36.765625 34.90625 28.71875 34.90625 
L 20.21875 34.90625 
L 20.21875 43.015625 
L 29.109375 43.015625 
Q 36.375 43.015625 40.234375 45.921875 
Q 44.09375 48.828125 44.09375 54.296875 
Q 44.09375 59.90625 40.109375 62.90625 
Q 36.140625 65.921875 28.71875 65.921875 
Q 24.65625 65.921875 20.015625 65.03125 
Q 15.375 64.15625 9.8125 62.3125 
L 9.8125 71.09375 
Q 15.4375 72.65625 20.34375 73.4375 
Q 25.25 74.21875 29.59375 74.21875 
Q 40.828125 74.21875 47.359375 69.109375 
Q 53.90625 64.015625 53.90625 55.328125 
Q 53.90625 49.265625 50.4375 45.09375 
Q 46.96875 40.921875 40.578125 39.3125 
z
" id="DejaVuSans-51"/>
      </defs>
      <g transform="translate(223.007179 308.382812)scale(0.1 -0.1)">
       <use xlink:href="#DejaVuSans-51"/>
       <use x="63.623047" xlink:href="#DejaVuSans-48"/>
       <use x="127.246094" xlink:href="#DejaVuSans-48"/>
      </g>
     </g>
    </g>
    <g id="xtick_4">
     <g id="line2d_11">
      <g>
       <use style="stroke:#000000;stroke-width:0.8;" x="305.148099" xlink:href="#m18d3be1b3b" y="293.784375"/>
      </g>
     </g>
     <g id="text_4">
      <!-- 400 -->
      <defs>
       <path d="M 37.796875 64.3125 
L 12.890625 25.390625 
L 37.796875 25.390625 
z
M 35.203125 72.90625 
L 47.609375 72.90625 
L 47.609375 25.390625 
L 58.015625 25.390625 
L 58.015625 17.1875 
L 47.609375 17.1875 
L 47.609375 0 
L 37.796875 0 
L 37.796875 17.1875 
L 4.890625 17.1875 
L 4.890625 26.703125 
z
" id="DejaVuSans-52"/>
      </defs>
      <g transform="translate(295.604349 308.382812)scale(0.1 -0.1)">
       <use xlink:href="#DejaVuSans-52"/>
       <use x="63.623047" xlink:href="#DejaVuSans-48"/>
       <use x="127.246094" xlink:href="#DejaVuSans-48"/>
      </g>
     </g>
    </g>
    <g id="xtick_5">
     <g id="line2d_12">
      <g>
       <use style="stroke:#000000;stroke-width:0.8;" x="377.74527" xlink:href="#m18d3be1b3b" y="293.784375"/>
      </g>
     </g>
     <g id="text_5">
      <!-- 500 -->
      <defs>
       <path d="M 10.796875 72.90625 
L 49.515625 72.90625 
L 49.515625 64.59375 
L 19.828125 64.59375 
L 19.828125 46.734375 
Q 21.96875 47.46875 24.109375 47.828125 
Q 26.265625 48.1875 28.421875 48.1875 
Q 40.625 48.1875 47.75 41.5 
Q 54.890625 34.8125 54.890625 23.390625 
Q 54.890625 11.625 47.5625 5.09375 
Q 40.234375 -1.421875 26.90625 -1.421875 
Q 22.3125 -1.421875 17.546875 -0.640625 
Q 12.796875 0.140625 7.71875 1.703125 
L 7.71875 11.625 
Q 12.109375 9.234375 16.796875 8.0625 
Q 21.484375 6.890625 26.703125 6.890625 
Q 35.15625 6.890625 40.078125 11.328125 
Q 45.015625 15.765625 45.015625 23.390625 
Q 45.015625 31 40.078125 35.4375 
Q 35.15625 39.890625 26.703125 39.890625 
Q 22.75 39.890625 18.8125 39.015625 
Q 14.890625 38.140625 10.796875 36.28125 
z
" id="DejaVuSans-53"/>
      </defs>
      <g transform="translate(368.20152 308.382812)scale(0.1 -0.1)">
       <use xlink:href="#DejaVuSans-53"/>
       <use x="63.623047" xlink:href="#DejaVuSans-48"/>
       <use x="127.246094" xlink:href="#DejaVuSans-48"/>
      </g>
     </g>
    </g>
    <g id="xtick_6">
     <g id="line2d_13">
      <g>
       <use style="stroke:#000000;stroke-width:0.8;" x="450.34244" xlink:href="#m18d3be1b3b" y="293.784375"/>
      </g>
     </g>
     <g id="text_6">
      <!-- 600 -->
      <defs>
       <path d="M 33.015625 40.375 
Q 26.375 40.375 22.484375 35.828125 
Q 18.609375 31.296875 18.609375 23.390625 
Q 18.609375 15.53125 22.484375 10.953125 
Q 26.375 6.390625 33.015625 6.390625 
Q 39.65625 6.390625 43.53125 10.953125 
Q 47.40625 15.53125 47.40625 23.390625 
Q 47.40625 31.296875 43.53125 35.828125 
Q 39.65625 40.375 33.015625 40.375 
z
M 52.59375 71.296875 
L 52.59375 62.3125 
Q 48.875 64.0625 45.09375 64.984375 
Q 41.3125 65.921875 37.59375 65.921875 
Q 27.828125 65.921875 22.671875 59.328125 
Q 17.53125 52.734375 16.796875 39.40625 
Q 19.671875 43.65625 24.015625 45.921875 
Q 28.375 48.1875 33.59375 48.1875 
Q 44.578125 48.1875 50.953125 41.515625 
Q 57.328125 34.859375 57.328125 23.390625 
Q 57.328125 12.15625 50.6875 5.359375 
Q 44.046875 -1.421875 33.015625 -1.421875 
Q 20.359375 -1.421875 13.671875 8.265625 
Q 6.984375 17.96875 6.984375 36.375 
Q 6.984375 53.65625 15.1875 63.9375 
Q 23.390625 74.21875 37.203125 74.21875 
Q 40.921875 74.21875 44.703125 73.484375 
Q 48.484375 72.75 52.59375 71.296875 
z
" id="DejaVuSans-54"/>
      </defs>
      <g transform="translate(440.79869 308.382812)scale(0.1 -0.1)">
       <use xlink:href="#DejaVuSans-54"/>
       <use x="63.623047" xlink:href="#DejaVuSans-48"/>
       <use x="127.246094" xlink:href="#DejaVuSans-48"/>
      </g>
     </g>
    </g>
    <g id="text_7">
     <!-- Tempo -->
     <defs>
      <path d="M -0.296875 72.90625 
L 61.375 72.90625 
L 61.375 64.59375 
L 35.5 64.59375 
L 35.5 0 
L 25.59375 0 
L 25.59375 64.59375 
L -0.296875 64.59375 
z
" id="DejaVuSans-84"/>
      <path d="M 56.203125 29.59375 
L 56.203125 25.203125 
L 14.890625 25.203125 
Q 15.484375 15.921875 20.484375 11.0625 
Q 25.484375 6.203125 34.421875 6.203125 
Q 39.59375 6.203125 44.453125 7.46875 
Q 49.3125 8.734375 54.109375 11.28125 
L 54.109375 2.78125 
Q 49.265625 0.734375 44.1875 -0.34375 
Q 39.109375 -1.421875 33.890625 -1.421875 
Q 20.796875 -1.421875 13.15625 6.1875 
Q 5.515625 13.8125 5.515625 26.8125 
Q 5.515625 40.234375 12.765625 48.109375 
Q 20.015625 56 32.328125 56 
Q 43.359375 56 49.78125 48.890625 
Q 56.203125 41.796875 56.203125 29.59375 
z
M 47.21875 32.234375 
Q 47.125 39.59375 43.09375 43.984375 
Q 39.0625 48.390625 32.421875 48.390625 
Q 24.90625 48.390625 20.390625 44.140625 
Q 15.875 39.890625 15.1875 32.171875 
z
" id="DejaVuSans-101"/>
      <path d="M 52 44.1875 
Q 55.375 50.25 60.0625 53.125 
Q 64.75 56 71.09375 56 
Q 79.640625 56 84.28125 50.015625 
Q 88.921875 44.046875 88.921875 33.015625 
L 88.921875 0 
L 79.890625 0 
L 79.890625 32.71875 
Q 79.890625 40.578125 77.09375 44.375 
Q 74.3125 48.1875 68.609375 48.1875 
Q 61.625 48.1875 57.5625 43.546875 
Q 53.515625 38.921875 53.515625 30.90625 
L 53.515625 0 
L 44.484375 0 
L 44.484375 32.71875 
Q 44.484375 40.625 41.703125 44.40625 
Q 38.921875 48.1875 33.109375 48.1875 
Q 26.21875 48.1875 22.15625 43.53125 
Q 18.109375 38.875 18.109375 30.90625 
L 18.109375 0 
L 9.078125 0 
L 9.078125 54.6875 
L 18.109375 54.6875 
L 18.109375 46.1875 
Q 21.1875 51.21875 25.484375 53.609375 
Q 29.78125 56 35.6875 56 
Q 41.65625 56 45.828125 52.96875 
Q 50 49.953125 52 44.1875 
z
" id="DejaVuSans-109"/>
      <path d="M 18.109375 8.203125 
L 18.109375 -20.796875 
L 9.078125 -20.796875 
L 9.078125 54.6875 
L 18.109375 54.6875 
L 18.109375 46.390625 
Q 20.953125 51.265625 25.265625 53.625 
Q 29.59375 56 35.59375 56 
Q 45.5625 56 51.78125 48.09375 
Q 58.015625 40.1875 58.015625 27.296875 
Q 58.015625 14.40625 51.78125 6.484375 
Q 45.5625 -1.421875 35.59375 -1.421875 
Q 29.59375 -1.421875 25.265625 0.953125 
Q 20.953125 3.328125 18.109375 8.203125 
z
M 48.6875 27.296875 
Q 48.6875 37.203125 44.609375 42.84375 
Q 40.53125 48.484375 33.40625 48.484375 
Q 26.265625 48.484375 22.1875 42.84375 
Q 18.109375 37.203125 18.109375 27.296875 
Q 18.109375 17.390625 22.1875 11.75 
Q 26.265625 6.109375 33.40625 6.109375 
Q 40.53125 6.109375 44.609375 11.75 
Q 48.6875 17.390625 48.6875 27.296875 
z
" id="DejaVuSans-112"/>
      <path d="M 30.609375 48.390625 
Q 23.390625 48.390625 19.1875 42.75 
Q 14.984375 37.109375 14.984375 27.296875 
Q 14.984375 17.484375 19.15625 11.84375 
Q 23.34375 6.203125 30.609375 6.203125 
Q 37.796875 6.203125 41.984375 11.859375 
Q 46.1875 17.53125 46.1875 27.296875 
Q 46.1875 37.015625 41.984375 42.703125 
Q 37.796875 48.390625 30.609375 48.390625 
z
M 30.609375 56 
Q 42.328125 56 49.015625 48.375 
Q 55.71875 40.765625 55.71875 27.296875 
Q 55.71875 13.875 49.015625 6.21875 
Q 42.328125 -1.421875 30.609375 -1.421875 
Q 18.84375 -1.421875 12.171875 6.21875 
Q 5.515625 13.875 5.515625 27.296875 
Q 5.515625 40.765625 12.171875 48.375 
Q 18.84375 56 30.609375 56 
z
" id="DejaVuSans-111"/>
     </defs>
     <g transform="translate(252.828125 322.060937)scale(0.1 -0.1)">
      <use xlink:href="#DejaVuSans-84"/>
      <use x="44.083984" xlink:href="#DejaVuSans-101"/>
      <use x="105.607422" xlink:href="#DejaVuSans-109"/>
      <use x="203.019531" xlink:href="#DejaVuSans-112"/>
      <use x="266.496094" xlink:href="#DejaVuSans-111"/>
     </g>
    </g>
   </g>
   <g id="matplotlib.axis_2">
    <g id="ytick_1">
     <g id="line2d_14">
      <defs>
       <path d="M 0 0 
L -3.5 0 
" id="m5e454ccdc9" style="stroke:#000000;stroke-width:0.8;"/>
      </defs>
      <g>
       <use style="stroke:#000000;stroke-width:0.8;" x="46.0125" xlink:href="#m5e454ccdc9" y="270.927401"/>
      </g>
     </g>
     <g id="text_8">
      <!-- 2000 -->
      <g transform="translate(13.5625 274.72662)scale(0.1 -0.1)">
       <use xlink:href="#DejaVuSans-50"/>
       <use x="63.623047" xlink:href="#DejaVuSans-48"/>
       <use x="127.246094" xlink:href="#DejaVuSans-48"/>
       <use x="190.869141" xlink:href="#DejaVuSans-48"/>
      </g>
     </g>
    </g>
    <g id="ytick_2">
     <g id="line2d_15">
      <g>
       <use style="stroke:#000000;stroke-width:0.8;" x="46.0125" xlink:href="#m5e454ccdc9" y="231.352155"/>
      </g>
     </g>
     <g id="text_9">
      <!-- 4000 -->
      <g transform="translate(13.5625 235.151374)scale(0.1 -0.1)">
       <use xlink:href="#DejaVuSans-52"/>
       <use x="63.623047" xlink:href="#DejaVuSans-48"/>
       <use x="127.246094" xlink:href="#DejaVuSans-48"/>
       <use x="190.869141" xlink:href="#DejaVuSans-48"/>
      </g>
     </g>
    </g>
    <g id="ytick_3">
     <g id="line2d_16">
      <g>
       <use style="stroke:#000000;stroke-width:0.8;" x="46.0125" xlink:href="#m5e454ccdc9" y="191.776909"/>
      </g>
     </g>
     <g id="text_10">
      <!-- 6000 -->
      <g transform="translate(13.5625 195.576128)scale(0.1 -0.1)">
       <use xlink:href="#DejaVuSans-54"/>
       <use x="63.623047" xlink:href="#DejaVuSans-48"/>
       <use x="127.246094" xlink:href="#DejaVuSans-48"/>
       <use x="190.869141" xlink:href="#DejaVuSans-48"/>
      </g>
     </g>
    </g>
    <g id="ytick_4">
     <g id="line2d_17">
      <g>
       <use style="stroke:#000000;stroke-width:0.8;" x="46.0125" xlink:href="#m5e454ccdc9" y="152.201663"/>
      </g>
     </g>
     <g id="text_11">
      <!-- 8000 -->
      <defs>
       <path d="M 31.78125 34.625 
Q 24.75 34.625 20.71875 30.859375 
Q 16.703125 27.09375 16.703125 20.515625 
Q 16.703125 13.921875 20.71875 10.15625 
Q 24.75 6.390625 31.78125 6.390625 
Q 38.8125 6.390625 42.859375 10.171875 
Q 46.921875 13.96875 46.921875 20.515625 
Q 46.921875 27.09375 42.890625 30.859375 
Q 38.875 34.625 31.78125 34.625 
z
M 21.921875 38.8125 
Q 15.578125 40.375 12.03125 44.71875 
Q 8.5 49.078125 8.5 55.328125 
Q 8.5 64.0625 14.71875 69.140625 
Q 20.953125 74.21875 31.78125 74.21875 
Q 42.671875 74.21875 48.875 69.140625 
Q 55.078125 64.0625 55.078125 55.328125 
Q 55.078125 49.078125 51.53125 44.71875 
Q 48 40.375 41.703125 38.8125 
Q 48.828125 37.15625 52.796875 32.3125 
Q 56.78125 27.484375 56.78125 20.515625 
Q 56.78125 9.90625 50.3125 4.234375 
Q 43.84375 -1.421875 31.78125 -1.421875 
Q 19.734375 -1.421875 13.25 4.234375 
Q 6.78125 9.90625 6.78125 20.515625 
Q 6.78125 27.484375 10.78125 32.3125 
Q 14.796875 37.15625 21.921875 38.8125 
z
M 18.3125 54.390625 
Q 18.3125 48.734375 21.84375 45.5625 
Q 25.390625 42.390625 31.78125 42.390625 
Q 38.140625 42.390625 41.71875 45.5625 
Q 45.3125 48.734375 45.3125 54.390625 
Q 45.3125 60.0625 41.71875 63.234375 
Q 38.140625 66.40625 31.78125 66.40625 
Q 25.390625 66.40625 21.84375 63.234375 
Q 18.3125 60.0625 18.3125 54.390625 
z
" id="DejaVuSans-56"/>
      </defs>
      <g transform="translate(13.5625 156.000882)scale(0.1 -0.1)">
       <use xlink:href="#DejaVuSans-56"/>
       <use x="63.623047" xlink:href="#DejaVuSans-48"/>
       <use x="127.246094" xlink:href="#DejaVuSans-48"/>
       <use x="190.869141" xlink:href="#DejaVuSans-48"/>
      </g>
     </g>
    </g>
    <g id="ytick_5">
     <g id="line2d_18">
      <g>
       <use style="stroke:#000000;stroke-width:0.8;" x="46.0125" xlink:href="#m5e454ccdc9" y="112.626417"/>
      </g>
     </g>
     <g id="text_12">
      <!-- 10000 -->
      <g transform="translate(7.2 116.425636)scale(0.1 -0.1)">
       <use xlink:href="#DejaVuSans-49"/>
       <use x="63.623047" xlink:href="#DejaVuSans-48"/>
       <use x="127.246094" xlink:href="#DejaVuSans-48"/>
       <use x="190.869141" xlink:href="#DejaVuSans-48"/>
       <use x="254.492188" xlink:href="#DejaVuSans-48"/>
      </g>
     </g>
    </g>
    <g id="ytick_6">
     <g id="line2d_19">
      <g>
       <use style="stroke:#000000;stroke-width:0.8;" x="46.0125" xlink:href="#m5e454ccdc9" y="73.051171"/>
      </g>
     </g>
     <g id="text_13">
      <!-- 12000 -->
      <g transform="translate(7.2 76.85039)scale(0.1 -0.1)">
       <use xlink:href="#DejaVuSans-49"/>
       <use x="63.623047" xlink:href="#DejaVuSans-50"/>
       <use x="127.246094" xlink:href="#DejaVuSans-48"/>
       <use x="190.869141" xlink:href="#DejaVuSans-48"/>
       <use x="254.492188" xlink:href="#DejaVuSans-48"/>
      </g>
     </g>
    </g>
    <g id="ytick_7">
     <g id="line2d_20">
      <g>
       <use style="stroke:#000000;stroke-width:0.8;" x="46.0125" xlink:href="#m5e454ccdc9" y="33.475925"/>
      </g>
     </g>
     <g id="text_14">
      <!-- 14000 -->
      <g transform="translate(7.2 37.275144)scale(0.1 -0.1)">
       <use xlink:href="#DejaVuSans-49"/>
       <use x="63.623047" xlink:href="#DejaVuSans-52"/>
       <use x="127.246094" xlink:href="#DejaVuSans-48"/>
       <use x="190.869141" xlink:href="#DejaVuSans-48"/>
       <use x="254.492188" xlink:href="#DejaVuSans-48"/>
      </g>
     </g>
    </g>
   </g>
   <g id="patch_3">
    <path d="M 46.0125 293.784375 
L 46.0125 21.984375 
" style="fill:none;stroke:#000000;stroke-linecap:square;stroke-linejoin:miter;stroke-width:0.8;"/>
   </g>
   <g id="patch_4">
    <path d="M 46.0125 293.784375 
L 492.4125 293.784375 
" style="fill:none;stroke:#000000;stroke-linecap:square;stroke-linejoin:miter;stroke-width:0.8;"/>
   </g>
   <g id="text_15">
    <!-- K_t -->
    <defs>
     <path d="M 9.8125 72.90625 
L 19.671875 72.90625 
L 19.671875 42.09375 
L 52.390625 72.90625 
L 65.09375 72.90625 
L 28.90625 38.921875 
L 67.671875 0 
L 54.6875 0 
L 19.671875 35.109375 
L 19.671875 0 
L 9.8125 0 
z
" id="DejaVuSans-75"/>
     <path d="M 50.984375 -16.609375 
L 50.984375 -23.578125 
L -0.984375 -23.578125 
L -0.984375 -16.609375 
z
" id="DejaVuSans-95"/>
     <path d="M 18.3125 70.21875 
L 18.3125 54.6875 
L 36.8125 54.6875 
L 36.8125 47.703125 
L 18.3125 47.703125 
L 18.3125 18.015625 
Q 18.3125 11.328125 20.140625 9.421875 
Q 21.96875 7.515625 27.59375 7.515625 
L 36.8125 7.515625 
L 36.8125 0 
L 27.59375 0 
Q 17.1875 0 13.234375 3.875 
Q 9.28125 7.765625 9.28125 18.015625 
L 9.28125 47.703125 
L 2.6875 47.703125 
L 2.6875 54.6875 
L 9.28125 54.6875 
L 9.28125 70.21875 
z
" id="DejaVuSans-116"/>
    </defs>
    <g transform="translate(259.925625 15.984375)scale(0.12 -0.12)">
     <use xlink:href="#DejaVuSans-75"/>
     <use x="65.576172" xlink:href="#DejaVuSans-95"/>
     <use x="115.576172" xlink:href="#DejaVuSans-116"/>
    </g>
   </g>
   <g id="legend_1">
    <g id="patch_5">
     <path d="M 499.4125 210.757812 
L 638.1375 210.757812 
Q 640.1375 210.757812 640.1375 208.757812 
L 640.1375 107.010938 
Q 640.1375 105.010938 638.1375 105.010938 
L 499.4125 105.010938 
Q 497.4125 105.010938 497.4125 107.010938 
L 497.4125 208.757812 
Q 497.4125 210.757812 499.4125 210.757812 
z
" style="fill:#ffffff;opacity:0.8;stroke:#cccccc;stroke-linejoin:miter;"/>
    </g>
    <g id="line2d_21">
     <path d="M 501.4125 113.109375 
L 521.4125 113.109375 
" style="fill:none;stroke:#000000;stroke-dasharray:3.7,1.6;stroke-dashoffset:0;"/>
    </g>
    <g id="line2d_22"/>
    <g id="text_16">
     <!-- Baseline -->
     <defs>
      <path d="M 19.671875 34.8125 
L 19.671875 8.109375 
L 35.5 8.109375 
Q 43.453125 8.109375 47.28125 11.40625 
Q 51.125 14.703125 51.125 21.484375 
Q 51.125 28.328125 47.28125 31.5625 
Q 43.453125 34.8125 35.5 34.8125 
z
M 19.671875 64.796875 
L 19.671875 42.828125 
L 34.28125 42.828125 
Q 41.5 42.828125 45.03125 45.53125 
Q 48.578125 48.25 48.578125 53.8125 
Q 48.578125 59.328125 45.03125 62.0625 
Q 41.5 64.796875 34.28125 64.796875 
z
M 9.8125 72.90625 
L 35.015625 72.90625 
Q 46.296875 72.90625 52.390625 68.21875 
Q 58.5 63.53125 58.5 54.890625 
Q 58.5 48.1875 55.375 44.234375 
Q 52.25 40.28125 46.1875 39.3125 
Q 53.46875 37.75 57.5 32.78125 
Q 61.53125 27.828125 61.53125 20.40625 
Q 61.53125 10.640625 54.890625 5.3125 
Q 48.25 0 35.984375 0 
L 9.8125 0 
z
" id="DejaVuSans-66"/>
      <path d="M 34.28125 27.484375 
Q 23.390625 27.484375 19.1875 25 
Q 14.984375 22.515625 14.984375 16.5 
Q 14.984375 11.71875 18.140625 8.90625 
Q 21.296875 6.109375 26.703125 6.109375 
Q 34.1875 6.109375 38.703125 11.40625 
Q 43.21875 16.703125 43.21875 25.484375 
L 43.21875 27.484375 
z
M 52.203125 31.203125 
L 52.203125 0 
L 43.21875 0 
L 43.21875 8.296875 
Q 40.140625 3.328125 35.546875 0.953125 
Q 30.953125 -1.421875 24.3125 -1.421875 
Q 15.921875 -1.421875 10.953125 3.296875 
Q 6 8.015625 6 15.921875 
Q 6 25.140625 12.171875 29.828125 
Q 18.359375 34.515625 30.609375 34.515625 
L 43.21875 34.515625 
L 43.21875 35.40625 
Q 43.21875 41.609375 39.140625 45 
Q 35.0625 48.390625 27.6875 48.390625 
Q 23 48.390625 18.546875 47.265625 
Q 14.109375 46.140625 10.015625 43.890625 
L 10.015625 52.203125 
Q 14.9375 54.109375 19.578125 55.046875 
Q 24.21875 56 28.609375 56 
Q 40.484375 56 46.34375 49.84375 
Q 52.203125 43.703125 52.203125 31.203125 
z
" id="DejaVuSans-97"/>
      <path d="M 44.28125 53.078125 
L 44.28125 44.578125 
Q 40.484375 46.53125 36.375 47.5 
Q 32.28125 48.484375 27.875 48.484375 
Q 21.1875 48.484375 17.84375 46.4375 
Q 14.5 44.390625 14.5 40.28125 
Q 14.5 37.15625 16.890625 35.375 
Q 19.28125 33.59375 26.515625 31.984375 
L 29.59375 31.296875 
Q 39.15625 29.25 43.1875 25.515625 
Q 47.21875 21.78125 47.21875 15.09375 
Q 47.21875 7.46875 41.1875 3.015625 
Q 35.15625 -1.421875 24.609375 -1.421875 
Q 20.21875 -1.421875 15.453125 -0.5625 
Q 10.6875 0.296875 5.421875 2 
L 5.421875 11.28125 
Q 10.40625 8.6875 15.234375 7.390625 
Q 20.0625 6.109375 24.8125 6.109375 
Q 31.15625 6.109375 34.5625 8.28125 
Q 37.984375 10.453125 37.984375 14.40625 
Q 37.984375 18.0625 35.515625 20.015625 
Q 33.0625 21.96875 24.703125 23.78125 
L 21.578125 24.515625 
Q 13.234375 26.265625 9.515625 29.90625 
Q 5.8125 33.546875 5.8125 39.890625 
Q 5.8125 47.609375 11.28125 51.796875 
Q 16.75 56 26.8125 56 
Q 31.78125 56 36.171875 55.265625 
Q 40.578125 54.546875 44.28125 53.078125 
z
" id="DejaVuSans-115"/>
      <path d="M 9.421875 75.984375 
L 18.40625 75.984375 
L 18.40625 0 
L 9.421875 0 
z
" id="DejaVuSans-108"/>
      <path d="M 9.421875 54.6875 
L 18.40625 54.6875 
L 18.40625 0 
L 9.421875 0 
z
M 9.421875 75.984375 
L 18.40625 75.984375 
L 18.40625 64.59375 
L 9.421875 64.59375 
z
" id="DejaVuSans-105"/>
      <path d="M 54.890625 33.015625 
L 54.890625 0 
L 45.90625 0 
L 45.90625 32.71875 
Q 45.90625 40.484375 42.875 44.328125 
Q 39.84375 48.1875 33.796875 48.1875 
Q 26.515625 48.1875 22.3125 43.546875 
Q 18.109375 38.921875 18.109375 30.90625 
L 18.109375 0 
L 9.078125 0 
L 9.078125 54.6875 
L 18.109375 54.6875 
L 18.109375 46.1875 
Q 21.34375 51.125 25.703125 53.5625 
Q 30.078125 56 35.796875 56 
Q 45.21875 56 50.046875 50.171875 
Q 54.890625 44.34375 54.890625 33.015625 
z
" id="DejaVuSans-110"/>
     </defs>
     <g transform="translate(529.4125 116.609375)scale(0.1 -0.1)">
      <use xlink:href="#DejaVuSans-66"/>
      <use x="68.603516" xlink:href="#DejaVuSans-97"/>
      <use x="129.882812" xlink:href="#DejaVuSans-115"/>
      <use x="181.982422" xlink:href="#DejaVuSans-101"/>
      <use x="243.505859" xlink:href="#DejaVuSans-108"/>
      <use x="271.289062" xlink:href="#DejaVuSans-105"/>
      <use x="299.072266" xlink:href="#DejaVuSans-110"/>
      <use x="362.451172" xlink:href="#DejaVuSans-101"/>
     </g>
    </g>
    <g id="line2d_23">
     <path d="M 501.4125 127.7875 
L 521.4125 127.7875 
" style="fill:none;stroke:#1f77b4;stroke-linecap:square;stroke-width:1.5;"/>
    </g>
    <g id="line2d_24"/>
    <g id="text_17">
     <!-- Maior acesso credito -->
     <defs>
      <path d="M 9.8125 72.90625 
L 24.515625 72.90625 
L 43.109375 23.296875 
L 61.8125 72.90625 
L 76.515625 72.90625 
L 76.515625 0 
L 66.890625 0 
L 66.890625 64.015625 
L 48.09375 14.015625 
L 38.1875 14.015625 
L 19.390625 64.015625 
L 19.390625 0 
L 9.8125 0 
z
" id="DejaVuSans-77"/>
      <path d="M 41.109375 46.296875 
Q 39.59375 47.171875 37.8125 47.578125 
Q 36.03125 48 33.890625 48 
Q 26.265625 48 22.1875 43.046875 
Q 18.109375 38.09375 18.109375 28.8125 
L 18.109375 0 
L 9.078125 0 
L 9.078125 54.6875 
L 18.109375 54.6875 
L 18.109375 46.1875 
Q 20.953125 51.171875 25.484375 53.578125 
Q 30.03125 56 36.53125 56 
Q 37.453125 56 38.578125 55.875 
Q 39.703125 55.765625 41.0625 55.515625 
z
" id="DejaVuSans-114"/>
      <path id="DejaVuSans-32"/>
      <path d="M 48.78125 52.59375 
L 48.78125 44.1875 
Q 44.96875 46.296875 41.140625 47.34375 
Q 37.3125 48.390625 33.40625 48.390625 
Q 24.65625 48.390625 19.8125 42.84375 
Q 14.984375 37.3125 14.984375 27.296875 
Q 14.984375 17.28125 19.8125 11.734375 
Q 24.65625 6.203125 33.40625 6.203125 
Q 37.3125 6.203125 41.140625 7.25 
Q 44.96875 8.296875 48.78125 10.40625 
L 48.78125 2.09375 
Q 45.015625 0.34375 40.984375 -0.53125 
Q 36.96875 -1.421875 32.421875 -1.421875 
Q 20.0625 -1.421875 12.78125 6.34375 
Q 5.515625 14.109375 5.515625 27.296875 
Q 5.515625 40.671875 12.859375 48.328125 
Q 20.21875 56 33.015625 56 
Q 37.15625 56 41.109375 55.140625 
Q 45.0625 54.296875 48.78125 52.59375 
z
" id="DejaVuSans-99"/>
      <path d="M 45.40625 46.390625 
L 45.40625 75.984375 
L 54.390625 75.984375 
L 54.390625 0 
L 45.40625 0 
L 45.40625 8.203125 
Q 42.578125 3.328125 38.25 0.953125 
Q 33.9375 -1.421875 27.875 -1.421875 
Q 17.96875 -1.421875 11.734375 6.484375 
Q 5.515625 14.40625 5.515625 27.296875 
Q 5.515625 40.1875 11.734375 48.09375 
Q 17.96875 56 27.875 56 
Q 33.9375 56 38.25 53.625 
Q 42.578125 51.265625 45.40625 46.390625 
z
M 14.796875 27.296875 
Q 14.796875 17.390625 18.875 11.75 
Q 22.953125 6.109375 30.078125 6.109375 
Q 37.203125 6.109375 41.296875 11.75 
Q 45.40625 17.390625 45.40625 27.296875 
Q 45.40625 37.203125 41.296875 42.84375 
Q 37.203125 48.484375 30.078125 48.484375 
Q 22.953125 48.484375 18.875 42.84375 
Q 14.796875 37.203125 14.796875 27.296875 
z
" id="DejaVuSans-100"/>
     </defs>
     <g transform="translate(529.4125 131.2875)scale(0.1 -0.1)">
      <use xlink:href="#DejaVuSans-77"/>
      <use x="86.279297" xlink:href="#DejaVuSans-97"/>
      <use x="147.558594" xlink:href="#DejaVuSans-105"/>
      <use x="175.341797" xlink:href="#DejaVuSans-111"/>
      <use x="236.523438" xlink:href="#DejaVuSans-114"/>
      <use x="277.636719" xlink:href="#DejaVuSans-32"/>
      <use x="309.423828" xlink:href="#DejaVuSans-97"/>
      <use x="370.703125" xlink:href="#DejaVuSans-99"/>
      <use x="425.683594" xlink:href="#DejaVuSans-101"/>
      <use x="487.207031" xlink:href="#DejaVuSans-115"/>
      <use x="539.306641" xlink:href="#DejaVuSans-115"/>
      <use x="591.40625" xlink:href="#DejaVuSans-111"/>
      <use x="652.587891" xlink:href="#DejaVuSans-32"/>
      <use x="684.375" xlink:href="#DejaVuSans-99"/>
      <use x="739.355469" xlink:href="#DejaVuSans-114"/>
      <use x="778.21875" xlink:href="#DejaVuSans-101"/>
      <use x="839.742188" xlink:href="#DejaVuSans-100"/>
      <use x="903.21875" xlink:href="#DejaVuSans-105"/>
      <use x="931.001953" xlink:href="#DejaVuSans-116"/>
      <use x="970.210938" xlink:href="#DejaVuSans-111"/>
     </g>
    </g>
    <g id="line2d_25">
     <path d="M 501.4125 142.465625 
L 521.4125 142.465625 
" style="fill:none;stroke:#ff7f0e;stroke-linecap:square;stroke-width:1.5;"/>
    </g>
    <g id="line2d_26"/>
    <g id="text_18">
     <!-- Menor acesso credito -->
     <g transform="translate(529.4125 145.965625)scale(0.1 -0.1)">
      <use xlink:href="#DejaVuSans-77"/>
      <use x="86.279297" xlink:href="#DejaVuSans-101"/>
      <use x="147.802734" xlink:href="#DejaVuSans-110"/>
      <use x="211.181641" xlink:href="#DejaVuSans-111"/>
      <use x="272.363281" xlink:href="#DejaVuSans-114"/>
      <use x="313.476562" xlink:href="#DejaVuSans-32"/>
      <use x="345.263672" xlink:href="#DejaVuSans-97"/>
      <use x="406.542969" xlink:href="#DejaVuSans-99"/>
      <use x="461.523438" xlink:href="#DejaVuSans-101"/>
      <use x="523.046875" xlink:href="#DejaVuSans-115"/>
      <use x="575.146484" xlink:href="#DejaVuSans-115"/>
      <use x="627.246094" xlink:href="#DejaVuSans-111"/>
      <use x="688.427734" xlink:href="#DejaVuSans-32"/>
      <use x="720.214844" xlink:href="#DejaVuSans-99"/>
      <use x="775.195312" xlink:href="#DejaVuSans-114"/>
      <use x="814.058594" xlink:href="#DejaVuSans-101"/>
      <use x="875.582031" xlink:href="#DejaVuSans-100"/>
      <use x="939.058594" xlink:href="#DejaVuSans-105"/>
      <use x="966.841797" xlink:href="#DejaVuSans-116"/>
      <use x="1006.050781" xlink:href="#DejaVuSans-111"/>
     </g>
    </g>
    <g id="line2d_27">
     <path d="M 501.4125 157.14375 
L 521.4125 157.14375 
" style="fill:none;stroke:#2ca02c;stroke-linecap:square;stroke-width:1.5;"/>
    </g>
    <g id="line2d_28"/>
    <g id="text_19">
     <!-- Maior renda basica -->
     <defs>
      <path d="M 48.6875 27.296875 
Q 48.6875 37.203125 44.609375 42.84375 
Q 40.53125 48.484375 33.40625 48.484375 
Q 26.265625 48.484375 22.1875 42.84375 
Q 18.109375 37.203125 18.109375 27.296875 
Q 18.109375 17.390625 22.1875 11.75 
Q 26.265625 6.109375 33.40625 6.109375 
Q 40.53125 6.109375 44.609375 11.75 
Q 48.6875 17.390625 48.6875 27.296875 
z
M 18.109375 46.390625 
Q 20.953125 51.265625 25.265625 53.625 
Q 29.59375 56 35.59375 56 
Q 45.5625 56 51.78125 48.09375 
Q 58.015625 40.1875 58.015625 27.296875 
Q 58.015625 14.40625 51.78125 6.484375 
Q 45.5625 -1.421875 35.59375 -1.421875 
Q 29.59375 -1.421875 25.265625 0.953125 
Q 20.953125 3.328125 18.109375 8.203125 
L 18.109375 0 
L 9.078125 0 
L 9.078125 75.984375 
L 18.109375 75.984375 
z
" id="DejaVuSans-98"/>
     </defs>
     <g transform="translate(529.4125 160.64375)scale(0.1 -0.1)">
      <use xlink:href="#DejaVuSans-77"/>
      <use x="86.279297" xlink:href="#DejaVuSans-97"/>
      <use x="147.558594" xlink:href="#DejaVuSans-105"/>
      <use x="175.341797" xlink:href="#DejaVuSans-111"/>
      <use x="236.523438" xlink:href="#DejaVuSans-114"/>
      <use x="277.636719" xlink:href="#DejaVuSans-32"/>
      <use x="309.423828" xlink:href="#DejaVuSans-114"/>
      <use x="348.287109" xlink:href="#DejaVuSans-101"/>
      <use x="409.810547" xlink:href="#DejaVuSans-110"/>
      <use x="473.189453" xlink:href="#DejaVuSans-100"/>
      <use x="536.666016" xlink:href="#DejaVuSans-97"/>
      <use x="597.945312" xlink:href="#DejaVuSans-32"/>
      <use x="629.732422" xlink:href="#DejaVuSans-98"/>
      <use x="693.208984" xlink:href="#DejaVuSans-97"/>
      <use x="754.488281" xlink:href="#DejaVuSans-115"/>
      <use x="806.587891" xlink:href="#DejaVuSans-105"/>
      <use x="834.371094" xlink:href="#DejaVuSans-99"/>
      <use x="889.351562" xlink:href="#DejaVuSans-97"/>
     </g>
    </g>
    <g id="line2d_29">
     <path d="M 501.4125 171.821875 
L 521.4125 171.821875 
" style="fill:none;stroke:#d62728;stroke-linecap:square;stroke-width:1.5;"/>
    </g>
    <g id="line2d_30"/>
    <g id="text_20">
     <!-- Sem renda basica -->
     <defs>
      <path d="M 53.515625 70.515625 
L 53.515625 60.890625 
Q 47.90625 63.578125 42.921875 64.890625 
Q 37.9375 66.21875 33.296875 66.21875 
Q 25.25 66.21875 20.875 63.09375 
Q 16.5 59.96875 16.5 54.203125 
Q 16.5 49.359375 19.40625 46.890625 
Q 22.3125 44.4375 30.421875 42.921875 
L 36.375 41.703125 
Q 47.40625 39.59375 52.65625 34.296875 
Q 57.90625 29 57.90625 20.125 
Q 57.90625 9.515625 50.796875 4.046875 
Q 43.703125 -1.421875 29.984375 -1.421875 
Q 24.8125 -1.421875 18.96875 -0.25 
Q 13.140625 0.921875 6.890625 3.21875 
L 6.890625 13.375 
Q 12.890625 10.015625 18.65625 8.296875 
Q 24.421875 6.59375 29.984375 6.59375 
Q 38.421875 6.59375 43.015625 9.90625 
Q 47.609375 13.234375 47.609375 19.390625 
Q 47.609375 24.75 44.3125 27.78125 
Q 41.015625 30.8125 33.5 32.328125 
L 27.484375 33.5 
Q 16.453125 35.6875 11.515625 40.375 
Q 6.59375 45.0625 6.59375 53.421875 
Q 6.59375 63.09375 13.40625 68.65625 
Q 20.21875 74.21875 32.171875 74.21875 
Q 37.3125 74.21875 42.625 73.28125 
Q 47.953125 72.359375 53.515625 70.515625 
z
" id="DejaVuSans-83"/>
     </defs>
     <g transform="translate(529.4125 175.321875)scale(0.1 -0.1)">
      <use xlink:href="#DejaVuSans-83"/>
      <use x="63.476562" xlink:href="#DejaVuSans-101"/>
      <use x="125" xlink:href="#DejaVuSans-109"/>
      <use x="222.412109" xlink:href="#DejaVuSans-32"/>
      <use x="254.199219" xlink:href="#DejaVuSans-114"/>
      <use x="293.0625" xlink:href="#DejaVuSans-101"/>
      <use x="354.585938" xlink:href="#DejaVuSans-110"/>
      <use x="417.964844" xlink:href="#DejaVuSans-100"/>
      <use x="481.441406" xlink:href="#DejaVuSans-97"/>
      <use x="542.720703" xlink:href="#DejaVuSans-32"/>
      <use x="574.507812" xlink:href="#DejaVuSans-98"/>
      <use x="637.984375" xlink:href="#DejaVuSans-97"/>
      <use x="699.263672" xlink:href="#DejaVuSans-115"/>
      <use x="751.363281" xlink:href="#DejaVuSans-105"/>
      <use x="779.146484" xlink:href="#DejaVuSans-99"/>
      <use x="834.126953" xlink:href="#DejaVuSans-97"/>
     </g>
    </g>
    <g id="line2d_31">
     <path d="M 501.4125 186.5 
L 521.4125 186.5 
" style="fill:none;stroke:#9467bd;stroke-linecap:square;stroke-width:1.5;"/>
    </g>
    <g id="line2d_32"/>
    <g id="text_21">
     <!-- Maior sal minimo -->
     <g transform="translate(529.4125 190)scale(0.1 -0.1)">
      <use xlink:href="#DejaVuSans-77"/>
      <use x="86.279297" xlink:href="#DejaVuSans-97"/>
      <use x="147.558594" xlink:href="#DejaVuSans-105"/>
      <use x="175.341797" xlink:href="#DejaVuSans-111"/>
      <use x="236.523438" xlink:href="#DejaVuSans-114"/>
      <use x="277.636719" xlink:href="#DejaVuSans-32"/>
      <use x="309.423828" xlink:href="#DejaVuSans-115"/>
      <use x="361.523438" xlink:href="#DejaVuSans-97"/>
      <use x="422.802734" xlink:href="#DejaVuSans-108"/>
      <use x="450.585938" xlink:href="#DejaVuSans-32"/>
      <use x="482.373047" xlink:href="#DejaVuSans-109"/>
      <use x="579.785156" xlink:href="#DejaVuSans-105"/>
      <use x="607.568359" xlink:href="#DejaVuSans-110"/>
      <use x="670.947266" xlink:href="#DejaVuSans-105"/>
      <use x="698.730469" xlink:href="#DejaVuSans-109"/>
      <use x="796.142578" xlink:href="#DejaVuSans-111"/>
     </g>
    </g>
    <g id="line2d_33">
     <path d="M 501.4125 201.178125 
L 521.4125 201.178125 
" style="fill:none;stroke:#8c564b;stroke-linecap:square;stroke-width:1.5;"/>
    </g>
    <g id="line2d_34"/>
    <g id="text_22">
     <!-- Imposto progressivo -->
     <defs>
      <path d="M 9.8125 72.90625 
L 19.671875 72.90625 
L 19.671875 0 
L 9.8125 0 
z
" id="DejaVuSans-73"/>
      <path d="M 45.40625 27.984375 
Q 45.40625 37.75 41.375 43.109375 
Q 37.359375 48.484375 30.078125 48.484375 
Q 22.859375 48.484375 18.828125 43.109375 
Q 14.796875 37.75 14.796875 27.984375 
Q 14.796875 18.265625 18.828125 12.890625 
Q 22.859375 7.515625 30.078125 7.515625 
Q 37.359375 7.515625 41.375 12.890625 
Q 45.40625 18.265625 45.40625 27.984375 
z
M 54.390625 6.78125 
Q 54.390625 -7.171875 48.1875 -13.984375 
Q 42 -20.796875 29.203125 -20.796875 
Q 24.46875 -20.796875 20.265625 -20.09375 
Q 16.0625 -19.390625 12.109375 -17.921875 
L 12.109375 -9.1875 
Q 16.0625 -11.328125 19.921875 -12.34375 
Q 23.78125 -13.375 27.78125 -13.375 
Q 36.625 -13.375 41.015625 -8.765625 
Q 45.40625 -4.15625 45.40625 5.171875 
L 45.40625 9.625 
Q 42.625 4.78125 38.28125 2.390625 
Q 33.9375 0 27.875 0 
Q 17.828125 0 11.671875 7.65625 
Q 5.515625 15.328125 5.515625 27.984375 
Q 5.515625 40.671875 11.671875 48.328125 
Q 17.828125 56 27.875 56 
Q 33.9375 56 38.28125 53.609375 
Q 42.625 51.21875 45.40625 46.390625 
L 45.40625 54.6875 
L 54.390625 54.6875 
z
" id="DejaVuSans-103"/>
      <path d="M 2.984375 54.6875 
L 12.5 54.6875 
L 29.59375 8.796875 
L 46.6875 54.6875 
L 56.203125 54.6875 
L 35.6875 0 
L 23.484375 0 
z
" id="DejaVuSans-118"/>
     </defs>
     <g transform="translate(529.4125 204.678125)scale(0.1 -0.1)">
      <use xlink:href="#DejaVuSans-73"/>
      <use x="29.492188" xlink:href="#DejaVuSans-109"/>
      <use x="126.904297" xlink:href="#DejaVuSans-112"/>
      <use x="190.380859" xlink:href="#DejaVuSans-111"/>
      <use x="251.5625" xlink:href="#DejaVuSans-115"/>
      <use x="303.662109" xlink:href="#DejaVuSans-116"/>
      <use x="342.871094" xlink:href="#DejaVuSans-111"/>
      <use x="404.052734" xlink:href="#DejaVuSans-32"/>
      <use x="435.839844" xlink:href="#DejaVuSans-112"/>
      <use x="499.316406" xlink:href="#DejaVuSans-114"/>
      <use x="538.179688" xlink:href="#DejaVuSans-111"/>
      <use x="599.361328" xlink:href="#DejaVuSans-103"/>
      <use x="662.837891" xlink:href="#DejaVuSans-114"/>
      <use x="701.701172" xlink:href="#DejaVuSans-101"/>
      <use x="763.224609" xlink:href="#DejaVuSans-115"/>
      <use x="815.324219" xlink:href="#DejaVuSans-115"/>
      <use x="867.423828" xlink:href="#DejaVuSans-105"/>
      <use x="895.207031" xlink:href="#DejaVuSans-118"/>
      <use x="954.386719" xlink:href="#DejaVuSans-111"/>
     </g>
    </g>
   </g>
  </g>
 </g>
 <defs>
  <clipPath id="p598ce3b94b">
   <rect height="271.8" width="446.4" x="46.0125" y="21.984375"/>
  </clipPath>
 </defs>
</svg>
