<?xml version="1.0" encoding="utf-8" standalone="no"?>
<!DOCTYPE svg PUBLIC "-//W3C//DTD SVG 1.1//EN"
  "http://www.w3.org/Graphics/SVG/1.1/DTD/svg11.dtd">
<!-- Created with matplotlib (https://matplotlib.org/) -->
<svg height="331.674375pt" version="1.1" viewBox="0 0 635.809375 331.674375" width="635.809375pt" xmlns="http://www.w3.org/2000/svg" xmlns:xlink="http://www.w3.org/1999/xlink">
 <defs>
  <style type="text/css">
*{stroke-linecap:butt;stroke-linejoin:round;}
  </style>
 </defs>
 <g id="figure_1">
  <g id="patch_1">
   <path d="M 0 331.674375 
L 635.809375 331.674375 
L 635.809375 0 
L 0 0 
z
" style="fill:#ffffff;"/>
  </g>
  <g id="axes_1">
   <g id="patch_2">
    <path d="M 39.65 294.118125 
L 486.05 294.118125 
L 486.05 22.318125 
L 39.65 22.318125 
z
" style="fill:#ffffff;"/>
   </g>
   <g id="line2d_1">
    <path clip-path="url(#p6a69af1cd9)" d="M 59.940909 103.895818 
L 60.666881 105.576297 
L 62.118824 108.067332 
L 62.844796 108.328035 
L 63.570768 109.205359 
L 65.022711 112.343332 
L 65.748683 113.928032 
L 66.474654 114.641272 
L 67.200626 116.503636 
L 67.926598 118.709763 
L 68.65257 119.435763 
L 69.378541 120.694756 
L 70.830485 124.476287 
L 71.556456 125.637483 
L 72.282428 127.971607 
L 73.0084 128.471772 
L 73.734371 130.156102 
L 75.186315 132.60412 
L 76.638258 135.427625 
L 77.36423 137.432402 
L 78.090202 138.523581 
L 78.816173 140.581073 
L 79.542145 141.388483 
L 81.72006 147.008021 
L 86.07589 156.22368 
L 87.527834 159.928602 
L 88.979777 163.826554 
L 90.431721 167.544699 
L 91.157692 168.742777 
L 91.883664 170.701358 
L 92.609636 171.783747 
L 93.335607 173.251694 
L 94.061579 175.031138 
L 94.787551 175.860123 
L 99.143381 185.534322 
L 99.869353 186.977907 
L 101.321296 189.339795 
L 103.499211 194.063997 
L 104.225183 194.894977 
L 104.951155 196.428675 
L 107.855041 199.956759 
L 108.581013 201.305974 
L 111.4849 205.656563 
L 112.210872 206.01123 
L 113.662815 207.565487 
L 114.388787 208.633804 
L 115.114758 209.338118 
L 116.566702 211.136296 
L 117.292674 211.914886 
L 118.018645 211.801227 
L 119.470589 213.313454 
L 120.19656 214.270064 
L 120.922532 214.244522 
L 121.648504 215.027812 
L 123.100447 216.294616 
L 124.552391 217.534301 
L 125.278362 218.025807 
L 126.004334 218.296369 
L 126.730306 218.054449 
L 127.456277 217.970014 
L 128.908221 219.008955 
L 129.634193 218.205174 
L 130.360164 218.419535 
L 131.086136 217.709218 
L 131.812108 218.128724 
L 133.264051 217.944828 
L 133.990023 217.396406 
L 134.715994 217.388585 
L 135.441966 216.078298 
L 136.89391 216.308817 
L 137.619881 216.302472 
L 138.345853 216.428152 
L 139.797796 216.079965 
L 140.523768 216.419117 
L 141.24974 216.057685 
L 141.975711 216.087233 
L 142.701683 214.925298 
L 144.153627 213.31426 
L 144.879598 212.204714 
L 145.60557 210.69596 
L 146.331542 210.149062 
L 147.057513 209.420852 
L 147.783485 209.12101 
L 148.509457 208.621022 
L 149.235429 207.737058 
L 149.9614 206.279969 
L 150.687372 205.656531 
L 152.865287 204.816391 
L 153.591259 203.992777 
L 154.31723 203.547729 
L 155.043202 203.259102 
L 155.769174 202.562081 
L 156.495146 202.176112 
L 157.221117 200.284832 
L 157.947089 200.129464 
L 158.673061 200.134428 
L 159.399032 198.236774 
L 160.125004 196.806554 
L 160.850976 196.27349 
L 161.576947 195.483694 
L 162.302919 193.59762 
L 163.028891 192.322157 
L 163.754863 190.310825 
L 164.480834 189.633953 
L 165.206806 188.183919 
L 165.932778 187.852776 
L 166.658749 187.383768 
L 167.384721 187.155948 
L 168.110693 184.891191 
L 169.562636 181.542977 
L 171.740551 178.865478 
L 172.466523 178.236851 
L 173.192495 175.732522 
L 173.918466 174.206348 
L 174.644438 173.284569 
L 176.096382 169.678152 
L 176.822353 167.548163 
L 177.548325 165.8448 
L 178.274297 164.96266 
L 179.000268 162.614201 
L 179.72624 160.69803 
L 181.178183 156.492985 
L 181.904155 154.352244 
L 182.630127 153.557167 
L 183.356099 150.898279 
L 184.08207 150.135429 
L 184.808042 149.680341 
L 185.534014 147.091728 
L 186.259985 146.263865 
L 187.711929 142.928619 
L 188.4379 142.7261 
L 189.163872 142.822631 
L 189.889844 142.339883 
L 190.615816 141.479643 
L 191.341787 141.481801 
L 192.067759 141.360391 
L 192.793731 141.488226 
L 194.245674 139.899489 
L 194.971646 139.356411 
L 196.423589 140.380672 
L 197.149561 141.410674 
L 197.875533 140.758966 
L 198.601504 141.561225 
L 199.327476 142.763594 
L 200.779419 144.380795 
L 201.505391 144.138493 
L 202.231363 145.205664 
L 202.957335 145.28553 
L 203.683306 146.067569 
L 204.409278 147.021713 
L 205.13525 147.278336 
L 206.587193 149.799012 
L 207.313165 150.106018 
L 208.765108 153.265157 
L 209.49108 154.235758 
L 210.943023 155.667932 
L 212.394967 158.051758 
L 214.572882 162.333699 
L 216.024825 164.935624 
L 217.476769 166.775926 
L 218.20274 168.245454 
L 218.928712 168.707979 
L 219.654684 169.769781 
L 221.106627 171.106907 
L 221.832599 172.462565 
L 222.55857 172.888248 
L 224.010514 175.45849 
L 224.736486 175.827537 
L 226.188429 178.262183 
L 226.914401 179.177248 
L 227.640372 179.712116 
L 228.366344 180.926473 
L 229.092316 181.717322 
L 229.818288 182.794957 
L 230.544259 184.080412 
L 231.270231 184.278918 
L 231.996203 184.990842 
L 232.722174 186.195579 
L 233.448146 186.091882 
L 234.174118 186.659927 
L 234.900089 187.813713 
L 236.352033 189.45855 
L 237.078005 190.623662 
L 237.803976 191.471237 
L 238.529948 191.874648 
L 239.981891 194.037899 
L 240.707863 193.877191 
L 241.433835 194.450822 
L 242.885778 196.29394 
L 243.61175 197.011804 
L 244.337722 196.989238 
L 245.063693 197.841316 
L 245.789665 198.425143 
L 246.515637 198.139015 
L 247.241608 198.28688 
L 247.96758 198.293347 
L 248.693552 198.078344 
L 249.419523 197.575379 
L 250.145495 198.080153 
L 251.597439 198.522962 
L 252.32341 198.036168 
L 253.049382 198.182021 
L 253.775354 197.37515 
L 254.501325 197.475029 
L 255.227297 196.796921 
L 255.953269 196.287032 
L 256.679241 196.361934 
L 257.405212 195.973726 
L 258.131184 195.935502 
L 258.857156 194.686598 
L 260.309099 194.678514 
L 261.035071 193.360879 
L 262.487014 192.726807 
L 263.212986 192.210665 
L 266.116873 187.641606 
L 266.842844 186.988349 
L 267.568816 186.145421 
L 268.294788 185.582891 
L 269.020759 185.183915 
L 269.746731 184.536609 
L 270.472703 184.573374 
L 271.198675 183.005214 
L 271.924646 182.707513 
L 272.650618 182.114939 
L 273.37659 180.78426 
L 274.102561 180.164805 
L 274.828533 178.381133 
L 275.554505 177.957468 
L 276.280477 177.00258 
L 277.006448 175.768965 
L 277.73242 175.535678 
L 278.458392 174.524928 
L 279.910335 174.175998 
L 280.636307 173.935552 
L 281.362278 172.195662 
L 282.08825 171.181022 
L 282.814222 170.502158 
L 283.540194 168.589043 
L 284.266165 168.133979 
L 284.992137 166.232755 
L 285.718109 165.032525 
L 286.44408 164.560765 
L 287.896024 161.485099 
L 288.621995 160.68873 
L 289.347967 159.415788 
L 290.073939 157.86646 
L 290.799911 157.220545 
L 291.525882 154.997672 
L 292.251854 154.378978 
L 292.977826 152.505662 
L 293.703797 151.132518 
L 295.881712 149.67169 
L 296.607684 149.417481 
L 297.333656 147.989842 
L 298.059628 148.033228 
L 298.785599 146.862981 
L 299.511571 146.560674 
L 301.689486 143.438413 
L 302.415458 143.367406 
L 303.14143 142.02158 
L 303.867401 141.124946 
L 304.593373 139.79403 
L 305.319345 139.658575 
L 306.045316 137.950756 
L 308.223231 135.176934 
L 309.675175 132.837683 
L 310.401147 131.975719 
L 311.127118 131.908269 
L 313.305033 132.582722 
L 314.031005 131.574224 
L 314.756977 131.34017 
L 316.20892 130.027983 
L 316.934892 130.462028 
L 317.660864 130.35561 
L 318.386835 130.704442 
L 319.112807 129.769449 
L 320.56475 130.513005 
L 321.290722 130.027663 
L 322.016694 130.034052 
L 322.742665 129.841974 
L 323.468637 130.540867 
L 324.194609 130.792567 
L 324.920581 131.435733 
L 326.372524 133.123582 
L 327.098496 133.303919 
L 327.824467 134.279256 
L 328.550439 134.323849 
L 329.276411 134.598113 
L 330.002383 135.410945 
L 330.728354 135.440857 
L 331.454326 136.199316 
L 332.180298 136.370677 
L 332.906269 137.276177 
L 333.632241 137.927512 
L 334.358213 138.783187 
L 335.084184 139.06083 
L 335.810156 139.957792 
L 337.2621 140.927183 
L 337.988071 141.006834 
L 338.714043 141.249442 
L 339.440015 141.316167 
L 340.165986 141.647146 
L 340.891958 142.483465 
L 341.61793 142.395305 
L 342.343901 142.580949 
L 343.795845 144.11269 
L 344.521817 144.98237 
L 345.247788 144.62037 
L 345.97376 144.848325 
L 347.425703 145.819249 
L 348.151675 146.026682 
L 350.32959 147.747112 
L 351.055562 147.563243 
L 351.781534 148.11178 
L 352.507505 148.347663 
L 353.959449 149.969146 
L 354.68542 149.885637 
L 355.411392 149.964863 
L 356.137364 150.699415 
L 356.863336 151.185756 
L 357.589307 151.247117 
L 358.315279 151.131112 
L 359.041251 151.89429 
L 360.493194 152.823409 
L 361.219166 152.762761 
L 361.945137 152.886084 
L 362.671109 153.629107 
L 363.397081 154.102352 
L 364.123053 154.035193 
L 364.849024 153.84739 
L 365.574996 153.901659 
L 367.026939 153.464118 
L 368.478883 154.044602 
L 369.204854 154.37645 
L 369.930826 154.496821 
L 370.656798 155.048356 
L 371.38277 155.280735 
L 372.108741 155.80812 
L 372.834713 155.573508 
L 373.560685 156.024974 
L 374.286656 155.746459 
L 375.7386 156.766645 
L 376.464571 156.446485 
L 377.190543 156.905899 
L 377.916515 156.195809 
L 378.642487 156.042001 
L 381.546373 156.180959 
L 382.272345 155.623842 
L 384.45026 155.913923 
L 385.902204 154.604131 
L 386.628175 153.948893 
L 388.080119 153.729636 
L 390.258034 150.78211 
L 390.984006 150.384793 
L 391.709977 149.182682 
L 392.435949 148.598277 
L 393.887892 146.295175 
L 395.339836 143.541061 
L 396.065807 142.635158 
L 397.517751 139.505475 
L 398.243723 138.562301 
L 400.421638 132.962885 
L 401.147609 131.26436 
L 408.407326 109.400622 
L 409.85927 105.750519 
L 411.311213 100.909896 
L 412.037185 98.736086 
L 413.489128 93.752603 
L 414.2151 91.798549 
L 416.393015 84.281392 
L 422.200789 65.012809 
L 422.92676 62.342813 
L 424.378704 57.678903 
L 426.556619 50.522369 
L 427.282591 48.841352 
L 429.460506 42.422834 
L 430.186477 41.09812 
L 430.912449 39.183597 
L 431.638421 37.87997 
L 432.364393 36.044368 
L 433.090364 35.047132 
L 433.816336 34.67267 
L 465.759091 34.67267 
L 465.759091 34.67267 
" style="fill:none;stroke:#1f77b4;stroke-linecap:square;stroke-width:1.5;"/>
   </g>
   <g id="line2d_2">
    <path clip-path="url(#p6a69af1cd9)" d="M 59.940909 279.77643 
L 60.666881 280.113278 
L 61.392852 280.596394 
L 62.118824 280.838298 
L 62.844796 280.394475 
L 63.570768 280.802078 
L 64.296739 281.029384 
L 65.022711 281.49319 
L 65.748683 280.537831 
L 67.926598 281.253135 
L 68.65257 281.260143 
L 70.104513 281.76358 
L 70.830485 280.666179 
L 71.556456 280.429343 
L 72.282428 280.436381 
L 73.734371 280.609441 
L 74.460343 280.651779 
L 75.186315 279.423898 
L 75.912287 279.498143 
L 76.638258 278.06776 
L 77.36423 277.697743 
L 78.090202 277.458513 
L 78.816173 276.801659 
L 80.268117 275.961818 
L 80.994088 275.788057 
L 81.72006 275.495829 
L 82.446032 275.005031 
L 83.172004 274.728543 
L 84.623947 274.542372 
L 85.349919 274.15613 
L 88.253805 274.755362 
L 90.431721 275.546207 
L 91.157692 275.080789 
L 92.609636 275.588246 
L 93.335607 275.343786 
L 94.061579 274.798524 
L 94.787551 274.498398 
L 95.513523 273.923116 
L 96.239494 273.957208 
L 96.965466 273.199781 
L 97.691438 272.893391 
L 98.417409 272.831187 
L 99.143381 272.010588 
L 99.869353 271.649614 
L 100.595324 271.056312 
L 101.321296 271.074765 
L 102.047268 269.034722 
L 104.225183 268.589383 
L 104.951155 268.338455 
L 105.677126 268.273339 
L 106.403098 267.735068 
L 107.12907 267.47964 
L 108.581013 267.287037 
L 109.306985 265.677802 
L 110.032957 265.013362 
L 110.758928 264.684207 
L 111.4849 264.180228 
L 112.210872 264.285686 
L 113.662815 264.711935 
L 115.114758 264.841568 
L 115.84073 264.670922 
L 116.566702 264.932089 
L 117.292674 264.838268 
L 118.018645 265.102744 
L 118.744617 265.223297 
L 119.470589 264.135263 
L 120.922532 263.537093 
L 121.648504 263.648559 
L 122.374476 263.961834 
L 123.826419 264.356445 
L 124.552391 264.499961 
L 125.278362 264.30352 
L 126.004334 264.579409 
L 126.730306 264.347731 
L 128.182249 265.045945 
L 128.908221 265.514453 
L 129.634193 264.043042 
L 131.086136 264.399916 
L 131.812108 264.716766 
L 132.538079 262.993435 
L 133.264051 263.243698 
L 133.990023 262.974717 
L 135.441966 263.357106 
L 136.167938 263.517792 
L 136.89391 263.892134 
L 137.619881 263.836533 
L 138.345853 263.624684 
L 139.071825 263.953463 
L 139.797796 263.966067 
L 142.701683 265.403121 
L 143.427655 265.90862 
L 144.153627 264.976368 
L 144.879598 265.263607 
L 145.60557 263.855947 
L 147.057513 263.735195 
L 147.783485 263.85452 
L 148.509457 264.112792 
L 149.235429 263.871159 
L 149.9614 263.175264 
L 152.139315 263.505621 
L 152.865287 263.474924 
L 153.591259 263.181172 
L 155.043202 263.638207 
L 155.769174 263.566205 
L 156.495146 262.314674 
L 157.221117 261.868132 
L 157.947089 261.019515 
L 158.673061 260.958348 
L 159.399032 260.596391 
L 160.125004 260.403223 
L 160.850976 258.997422 
L 161.576947 257.993011 
L 163.754863 257.337049 
L 165.206806 256.486188 
L 165.932778 256.488071 
L 166.658749 256.021877 
L 167.384721 254.936721 
L 169.562636 254.913907 
L 170.288608 255.195856 
L 171.01458 255.058547 
L 172.466523 253.534953 
L 173.192495 252.377252 
L 173.918466 251.620363 
L 174.644438 251.167802 
L 175.37041 251.066682 
L 176.822353 249.845339 
L 177.548325 249.125454 
L 178.274297 248.133045 
L 179.000268 247.980737 
L 179.72624 247.677476 
L 180.452212 247.121266 
L 181.178183 246.891452 
L 181.904155 246.365272 
L 182.630127 246.383217 
L 183.356099 244.509983 
L 184.08207 243.917504 
L 184.808042 243.798015 
L 185.534014 242.852447 
L 186.259985 242.737965 
L 186.985957 241.305368 
L 187.711929 241.073488 
L 189.889844 240.947704 
L 191.341787 241.124729 
L 192.793731 241.959386 
L 193.519702 240.693256 
L 194.245674 240.360077 
L 194.971646 239.302321 
L 195.697617 239.367326 
L 196.423589 239.220503 
L 197.875533 239.680665 
L 198.601504 239.56732 
L 199.327476 239.93945 
L 200.053448 240.441864 
L 201.505391 240.948876 
L 204.409278 243.365272 
L 205.13525 244.217393 
L 205.861221 244.78057 
L 206.587193 244.630643 
L 207.313165 245.395367 
L 208.039136 245.030004 
L 209.49108 246.486752 
L 210.217052 246.910478 
L 210.943023 247.671497 
L 211.668995 248.191228 
L 212.394967 248.921544 
L 213.120938 248.56154 
L 213.84691 249.318878 
L 214.572882 249.790478 
L 215.298853 249.640722 
L 216.024825 249.747076 
L 217.476769 250.648785 
L 218.20274 250.50672 
L 219.654684 251.532867 
L 220.380655 252.114646 
L 221.832599 253.025329 
L 224.736486 255.533029 
L 225.462457 255.384231 
L 226.914401 256.713319 
L 227.640372 257.105856 
L 229.092316 258.484825 
L 230.544259 259.955984 
L 231.270231 260.387017 
L 234.900089 263.572528 
L 235.626061 263.425256 
L 236.352033 263.536188 
L 237.078005 263.921975 
L 237.803976 263.665234 
L 238.529948 264.107016 
L 239.25592 264.366483 
L 239.981891 264.829376 
L 240.707863 264.885379 
L 241.433835 264.783548 
L 244.337722 266.290119 
L 245.063693 265.800762 
L 245.789665 265.709566 
L 246.515637 265.177509 
L 247.96758 265.357475 
L 248.693552 264.594009 
L 249.419523 264.07818 
L 251.597439 263.865863 
L 253.049382 262.104766 
L 253.775354 261.642553 
L 255.227297 260.952111 
L 257.405212 259.492937 
L 258.131184 259.209368 
L 260.309099 258.731013 
L 261.035071 257.477699 
L 261.761042 257.319268 
L 262.487014 257.014592 
L 263.212986 256.493325 
L 263.938958 255.179127 
L 264.664929 254.700994 
L 265.390901 253.296379 
L 266.116873 252.49328 
L 267.568816 251.737914 
L 268.294788 250.291589 
L 269.746731 249.537218 
L 270.472703 249.13265 
L 271.924646 246.444934 
L 272.650618 245.808465 
L 274.102561 244.990619 
L 274.828533 244.607327 
L 275.554505 242.54628 
L 276.280477 242.137126 
L 277.006448 241.408243 
L 279.184363 240.386028 
L 280.636307 240.357201 
L 281.362278 240.455103 
L 282.08825 240.333059 
L 282.814222 240.567421 
L 284.266165 240.481252 
L 285.718109 240.446883 
L 286.44408 239.296873 
L 287.170052 238.683051 
L 287.896024 237.650366 
L 288.621995 237.366366 
L 290.073939 235.718248 
L 293.703797 235.091831 
L 294.429769 234.281933 
L 299.511571 235.035179 
L 300.963514 235.313722 
L 302.415458 236.273955 
L 303.14143 236.885362 
L 303.867401 237.214473 
L 304.593373 237.835908 
L 305.319345 237.528604 
L 306.045316 238.112012 
L 306.771288 237.645309 
L 307.49726 237.596104 
L 308.949203 236.913888 
L 309.675175 237.023166 
L 310.401147 236.499539 
L 312.579062 237.313447 
L 314.756977 238.149285 
L 315.482948 238.5392 
L 316.20892 238.059016 
L 316.934892 238.566407 
L 318.386835 238.92239 
L 319.838779 239.567764 
L 320.56475 239.230957 
L 321.290722 239.038159 
L 322.742665 239.257149 
L 324.194609 239.909946 
L 324.920581 239.527329 
L 327.824467 240.992007 
L 328.550439 241.285254 
L 329.276411 241.080657 
L 330.002383 241.52324 
L 331.454326 242.074924 
L 332.180298 242.217749 
L 333.632241 241.791359 
L 334.358213 241.404548 
L 335.810156 241.719162 
L 337.2621 242.165945 
L 337.988071 241.474547 
L 338.714043 241.70529 
L 339.440015 240.70386 
L 341.61793 240.906178 
L 342.343901 240.772747 
L 343.795845 241.124441 
L 344.521817 240.52132 
L 345.247788 240.638116 
L 345.97376 240.228508 
L 347.425703 238.804053 
L 348.151675 238.725566 
L 348.877647 237.208495 
L 349.603618 236.777082 
L 351.055562 234.390811 
L 352.507505 232.068663 
L 353.959449 230.80514 
L 354.68542 229.285132 
L 356.137364 228.114046 
L 358.315279 224.062744 
L 361.219166 220.073914 
L 362.671109 217.101025 
L 363.397081 216.261833 
L 364.123053 214.58702 
L 364.849024 213.758618 
L 367.026939 208.623414 
L 368.478883 206.529966 
L 369.930826 204.71616 
L 370.656798 203.101707 
L 371.38277 202.05146 
L 372.108741 200.131815 
L 372.834713 198.591749 
L 373.560685 197.534023 
L 374.286656 195.879978 
L 375.7386 193.957723 
L 376.464571 192.559259 
L 377.190543 191.714637 
L 377.916515 190.024934 
L 378.642487 188.671081 
L 380.820402 186.087916 
L 382.272345 183.557047 
L 382.998317 182.933916 
L 385.176232 180.307368 
L 385.902204 179.685325 
L 386.628175 179.302024 
L 388.080119 177.20921 
L 388.80609 176.357434 
L 390.258034 174.264477 
L 390.984006 173.651361 
L 391.709977 172.55019 
L 393.161921 171.461879 
L 394.613864 170.690934 
L 395.339836 170.537449 
L 396.065807 169.897612 
L 397.517751 169.424185 
L 399.695666 169.563929 
L 400.421638 169.19298 
L 401.147609 168.993148 
L 401.873581 168.620938 
L 402.599553 168.738084 
L 403.325524 168.66129 
L 404.051496 168.855167 
L 404.777468 169.176868 
L 405.50344 168.902538 
L 406.955383 168.636347 
L 407.681355 168.798983 
L 409.133298 168.517249 
L 410.585242 168.9548 
L 411.311213 168.809944 
L 412.763157 169.255196 
L 413.489128 169.577871 
L 414.2151 169.330518 
L 416.393015 170.174866 
L 417.844959 169.982952 
L 418.57093 170.148863 
L 419.296902 169.940113 
L 420.022874 170.074544 
L 421.474817 169.634354 
L 423.652732 169.684462 
L 424.378704 169.407147 
L 425.104676 169.391232 
L 426.556619 168.600528 
L 427.282591 168.429068 
L 431.638421 165.36295 
L 432.364393 164.590309 
L 434.542308 163.42947 
L 435.268279 162.78077 
L 435.994251 162.414668 
L 437.446195 160.917286 
L 438.898138 159.115427 
L 440.350081 156.951308 
L 442.527996 153.19724 
L 448.33577 141.065839 
L 449.061742 139.497758 
L 452.6916 129.623085 
L 457.773402 115.905919 
L 459.225346 111.728809 
L 460.677289 107.754007 
L 465.759091 92.839782 
L 465.759091 92.839782 
" style="fill:none;stroke:#ff7f0e;stroke-linecap:square;stroke-width:1.5;"/>
   </g>
   <g id="line2d_3">
    <path clip-path="url(#p6a69af1cd9)" d="M 59.940909 185.501102 
L 60.666881 185.710665 
L 61.392852 184.760452 
L 62.118824 184.533783 
L 62.844796 184.69492 
L 63.570768 185.120155 
L 64.296739 185.407224 
L 65.022711 186.036768 
L 65.748683 185.736776 
L 66.474654 186.339487 
L 69.378541 189.350177 
L 70.104513 189.276549 
L 70.830485 190.358888 
L 71.556456 191.201534 
L 72.282428 192.317868 
L 73.0084 192.16825 
L 73.734371 193.284837 
L 74.460343 193.256438 
L 75.186315 193.924918 
L 75.912287 194.991856 
L 76.638258 195.356586 
L 78.816173 198.540827 
L 79.542145 199.010144 
L 85.349919 208.550815 
L 87.527834 212.734913 
L 88.253805 213.982872 
L 88.979777 215.512746 
L 89.705749 216.143499 
L 90.431721 217.606931 
L 91.157692 218.276458 
L 92.609636 220.998116 
L 95.513523 224.129202 
L 96.239494 225.273004 
L 96.965466 225.546413 
L 97.691438 226.31034 
L 98.417409 227.245632 
L 100.595324 228.778575 
L 102.77324 230.819103 
L 103.499211 231.179607 
L 104.225183 231.984313 
L 104.951155 231.90456 
L 105.677126 232.312149 
L 106.403098 232.883749 
L 107.12907 232.84258 
L 107.855041 233.45557 
L 108.581013 233.904793 
L 109.306985 234.199517 
L 110.032957 234.786525 
L 110.758928 234.716361 
L 111.4849 235.165905 
L 112.210872 235.063443 
L 112.936843 235.609979 
L 113.662815 235.943896 
L 117.292674 238.146117 
L 118.018645 237.963 
L 119.470589 238.721424 
L 120.19656 239.233898 
L 120.922532 238.999729 
L 122.374476 239.81617 
L 123.100447 239.84558 
L 124.552391 239.545428 
L 125.278362 239.714163 
L 126.004334 239.261318 
L 126.730306 239.276224 
L 127.456277 238.640901 
L 128.182249 238.263141 
L 128.908221 238.251591 
L 129.634193 237.992257 
L 130.360164 237.315548 
L 131.812108 236.735466 
L 132.538079 235.859207 
L 133.264051 235.239709 
L 135.441966 234.100316 
L 136.167938 233.114465 
L 136.89391 232.352636 
L 137.619881 231.922437 
L 138.345853 230.69711 
L 139.071825 230.373532 
L 139.797796 229.130008 
L 140.523768 228.712158 
L 141.24974 226.995678 
L 142.701683 226.031427 
L 144.153627 224.988402 
L 144.879598 224.692557 
L 145.60557 223.355868 
L 147.783485 222.800658 
L 148.509457 221.125375 
L 149.235429 220.74922 
L 151.413344 220.287191 
L 152.865287 220.529322 
L 153.591259 220.766906 
L 154.31723 220.81472 
L 155.043202 219.988129 
L 155.769174 219.940363 
L 156.495146 218.972021 
L 157.221117 218.865848 
L 157.947089 218.088633 
L 160.850976 217.910391 
L 162.302919 218.50122 
L 165.206806 220.808078 
L 165.932778 221.583616 
L 167.384721 222.726657 
L 169.562636 224.44054 
L 170.288608 224.869265 
L 171.01458 225.725185 
L 171.740551 226.213033 
L 174.644438 228.890448 
L 175.37041 228.916314 
L 176.096382 229.658974 
L 176.822353 229.550508 
L 177.548325 229.67753 
L 179.000268 230.787318 
L 179.72624 231.048636 
L 180.452212 230.925375 
L 181.178183 231.347743 
L 181.904155 231.155514 
L 182.630127 231.625204 
L 183.356099 231.32259 
L 184.08207 231.693855 
L 184.808042 231.867694 
L 185.534014 231.624977 
L 186.259985 231.949812 
L 186.985957 231.405021 
L 187.711929 231.124361 
L 188.4379 231.112228 
L 189.163872 231.317592 
L 190.615816 231.469671 
L 191.341787 230.89644 
L 192.067759 231.097798 
L 193.519702 229.967992 
L 194.245674 229.695714 
L 195.697617 228.246341 
L 196.423589 228.026864 
L 197.149561 227.939849 
L 197.875533 227.37809 
L 198.601504 227.124093 
L 201.505391 226.623799 
L 202.231363 225.711464 
L 202.957335 225.641905 
L 203.683306 224.444404 
L 204.409278 224.442772 
L 205.13525 224.117754 
L 205.861221 223.304754 
L 206.587193 223.194352 
L 207.313165 222.717026 
L 208.039136 222.456628 
L 208.765108 222.369936 
L 209.49108 222.456343 
L 210.217052 222.309479 
L 210.943023 222.509025 
L 211.668995 222.490608 
L 212.394967 222.710856 
L 213.84691 222.739467 
L 214.572882 222.999443 
L 215.298853 222.043915 
L 216.024825 222.300316 
L 216.750797 222.020807 
L 218.20274 222.623821 
L 218.928712 222.560199 
L 219.654684 222.157477 
L 220.380655 222.347901 
L 222.55857 220.771725 
L 223.284542 220.779966 
L 224.010514 220.633235 
L 224.736486 220.793651 
L 225.462457 220.564873 
L 226.188429 219.885298 
L 228.366344 219.479927 
L 229.092316 218.420309 
L 230.544259 218.30199 
L 231.270231 217.453032 
L 231.996203 217.370408 
L 232.722174 217.469507 
L 233.448146 217.322042 
L 234.174118 217.447497 
L 234.900089 216.885766 
L 235.626061 216.952467 
L 236.352033 216.074433 
L 237.078005 215.778934 
L 237.803976 215.177661 
L 238.529948 215.244606 
L 239.25592 215.173533 
L 239.981891 214.898692 
L 240.707863 214.138912 
L 242.159806 214.360443 
L 242.885778 214.162434 
L 244.337722 214.253672 
L 245.063693 213.540581 
L 245.789665 213.5332 
L 246.515637 212.702267 
L 247.96758 212.733775 
L 248.693552 211.830529 
L 249.419523 211.667418 
L 250.145495 211.708809 
L 250.871467 211.024746 
L 251.597439 211.021961 
L 253.049382 209.551095 
L 255.227297 207.243635 
L 255.953269 206.829265 
L 257.405212 206.541045 
L 258.131184 206.554361 
L 259.583127 206.77823 
L 260.309099 206.313224 
L 262.487014 206.608724 
L 263.212986 206.454959 
L 265.390901 207.353359 
L 266.116873 207.866664 
L 266.842844 208.226167 
L 268.294788 209.418768 
L 269.020759 209.104134 
L 269.746731 209.079946 
L 270.472703 209.620356 
L 271.924646 210.412112 
L 275.554505 213.598198 
L 277.006448 215.069696 
L 278.458392 216.773095 
L 279.184363 217.00673 
L 282.08825 220.615078 
L 282.814222 220.889431 
L 283.540194 221.639284 
L 284.266165 221.791479 
L 284.992137 222.486574 
L 285.718109 222.855352 
L 286.44408 223.074128 
L 287.170052 223.601573 
L 287.896024 223.481087 
L 289.347967 223.584898 
L 290.073939 223.387527 
L 290.799911 223.723146 
L 291.525882 223.690767 
L 292.251854 223.991286 
L 292.977826 224.079417 
L 297.333656 226.03634 
L 300.237543 227.630722 
L 300.963514 227.787118 
L 301.689486 227.620669 
L 302.415458 228.029282 
L 303.14143 227.640875 
L 303.867401 227.484451 
L 304.593373 227.010995 
L 305.319345 227.014911 
L 306.045316 226.468569 
L 306.771288 226.36872 
L 308.949203 223.644608 
L 309.675175 223.062657 
L 310.401147 221.935123 
L 311.85309 220.819348 
L 312.579062 220.27222 
L 313.305033 219.91943 
L 314.031005 219.384091 
L 314.756977 218.425183 
L 315.482948 217.851386 
L 316.20892 217.510291 
L 316.934892 216.928149 
L 317.660864 215.778531 
L 318.386835 215.393828 
L 319.838779 213.018483 
L 322.016694 210.827419 
L 322.742665 210.268895 
L 323.468637 209.024584 
L 324.920581 208.096707 
L 325.646552 206.701353 
L 326.372524 206.154998 
L 327.098496 205.806588 
L 328.550439 203.573227 
L 330.002383 202.172004 
L 332.180298 200.20417 
L 332.906269 198.939102 
L 333.632241 198.347671 
L 334.358213 197.097713 
L 336.536128 195.270665 
L 337.2621 194.083046 
L 338.714043 192.899144 
L 339.440015 192.113397 
L 341.61793 188.470431 
L 342.343901 187.599191 
L 343.069873 186.947959 
L 343.795845 186.45096 
L 344.521817 185.238287 
L 345.97376 184.011872 
L 346.699732 182.860771 
L 348.151675 181.845161 
L 348.877647 180.566299 
L 349.603618 180.118116 
L 350.32959 178.752906 
L 352.507505 175.664031 
L 353.959449 174.841068 
L 355.411392 172.840091 
L 356.863336 171.962092 
L 357.589307 171.047312 
L 358.315279 170.649636 
L 359.041251 170.439827 
L 359.767222 170.110492 
L 361.219166 169.904161 
L 361.945137 170.058476 
L 362.671109 169.651719 
L 363.397081 169.796338 
L 364.123053 169.251071 
L 364.849024 169.488769 
L 365.574996 169.256496 
L 367.026939 168.352966 
L 368.478883 168.338438 
L 369.930826 168.513677 
L 371.38277 168.884103 
L 372.834713 169.430801 
L 374.286656 170.097143 
L 375.7386 171.064842 
L 376.464571 170.954036 
L 377.190543 171.125261 
L 377.916515 170.900641 
L 379.368458 171.312328 
L 380.09443 171.121975 
L 380.820402 171.381676 
L 381.546373 171.177842 
L 383.724289 171.565314 
L 385.902204 172.509346 
L 386.628175 172.415932 
L 387.354147 172.664628 
L 388.080119 173.051784 
L 388.80609 172.945562 
L 389.532062 173.231895 
L 393.887892 172.062328 
L 395.339836 171.219362 
L 396.791779 170.738612 
L 398.969694 168.843039 
L 400.421638 167.155198 
L 403.325524 163.242035 
L 406.955383 157.125932 
L 407.681355 155.652993 
L 412.037185 148.496898 
L 415.667043 140.63634 
L 418.57093 133.139139 
L 419.296902 131.011898 
L 420.022874 129.275805 
L 422.200789 123.204188 
L 427.282591 110.129209 
L 430.912449 100.206212 
L 433.816336 93.442856 
L 437.446195 85.947143 
L 449.061742 59.257078 
L 454.143544 46.975679 
L 459.225346 35.787152 
L 459.951317 34.67267 
L 465.759091 34.67267 
L 465.759091 34.67267 
" style="fill:none;stroke:#2ca02c;stroke-linecap:square;stroke-width:1.5;"/>
   </g>
   <g id="line2d_4">
    <path clip-path="url(#p6a69af1cd9)" d="M 59.940909 257.189769 
L 60.666881 257.128553 
L 61.392852 257.191616 
L 62.118824 256.778342 
L 62.844796 256.863359 
L 65.022711 257.498332 
L 65.748683 256.763307 
L 67.200626 256.873488 
L 67.926598 257.151957 
L 68.65257 256.031655 
L 70.104513 256.34777 
L 70.830485 256.335322 
L 71.556456 255.453357 
L 72.282428 255.49774 
L 73.0084 254.647063 
L 73.734371 254.691144 
L 74.460343 253.442361 
L 75.186315 252.981233 
L 75.912287 252.912175 
L 76.638258 251.628946 
L 77.36423 251.400198 
L 78.090202 250.874282 
L 80.268117 249.887142 
L 81.72006 249.67308 
L 82.446032 248.528453 
L 83.172004 248.545103 
L 83.897975 248.234964 
L 84.623947 248.217286 
L 85.349919 248.009752 
L 86.801862 248.51747 
L 88.979777 249.842847 
L 89.705749 250.461416 
L 90.431721 250.176777 
L 91.157692 250.545406 
L 92.609636 251.705777 
L 93.335607 251.773338 
L 94.787551 252.517468 
L 95.513523 251.875155 
L 96.239494 252.388291 
L 96.965466 251.308843 
L 98.417409 251.366811 
L 99.143381 250.900417 
L 99.869353 250.59276 
L 100.595324 250.101877 
L 101.321296 250.168238 
L 102.047268 250.437204 
L 102.77324 250.293825 
L 103.499211 249.741374 
L 104.225183 249.455531 
L 104.951155 248.63959 
L 105.677126 248.10332 
L 106.403098 248.16738 
L 107.12907 247.263689 
L 108.581013 247.266689 
L 110.032957 247.666945 
L 111.4849 248.304026 
L 112.936843 249.229387 
L 113.662815 249.79378 
L 114.388787 250.046013 
L 115.114758 249.679034 
L 115.84073 250.031536 
L 116.566702 250.244892 
L 117.292674 249.792094 
L 118.018645 250.221601 
L 118.744617 249.534241 
L 119.470589 249.837326 
L 120.19656 250.006905 
L 121.648504 250.87895 
L 122.374476 250.371985 
L 123.100447 250.177405 
L 125.278362 251.126824 
L 126.004334 251.511974 
L 126.730306 251.699498 
L 127.456277 252.229533 
L 128.182249 251.37128 
L 128.908221 251.857073 
L 130.360164 252.368564 
L 131.086136 252.001899 
L 131.812108 251.971084 
L 132.538079 252.169966 
L 133.264051 252.562354 
L 133.990023 252.00806 
L 134.715994 252.273207 
L 135.441966 251.309732 
L 137.619881 252.007167 
L 138.345853 251.299114 
L 139.797796 250.327695 
L 140.523768 250.425055 
L 141.24974 249.411592 
L 141.975711 249.490797 
L 142.701683 249.259511 
L 143.427655 248.718983 
L 144.153627 248.4177 
L 144.879598 248.552057 
L 146.331542 248.298821 
L 147.057513 248.332739 
L 147.783485 247.547065 
L 149.235429 247.640677 
L 150.687372 248.272416 
L 151.413344 247.118098 
L 152.865287 247.330952 
L 153.591259 247.008076 
L 154.31723 247.08355 
L 155.043202 246.320495 
L 155.769174 246.17586 
L 156.495146 245.399304 
L 157.221117 245.259231 
L 157.947089 244.426759 
L 158.673061 244.472133 
L 159.399032 244.169133 
L 161.576947 244.505753 
L 162.302919 243.745024 
L 163.028891 243.318722 
L 163.754863 242.56701 
L 164.480834 242.477316 
L 165.206806 241.978942 
L 167.384721 242.479336 
L 168.110693 241.731276 
L 168.836664 241.834931 
L 169.562636 240.754527 
L 170.288608 240.290858 
L 171.01458 240.006713 
L 171.740551 239.314334 
L 172.466523 239.17835 
L 173.192495 238.074584 
L 173.918466 237.806953 
L 174.644438 237.790563 
L 175.37041 237.896151 
L 176.096382 236.594972 
L 176.822353 236.13313 
L 177.548325 235.248158 
L 178.274297 235.109088 
L 179.000268 235.111675 
L 179.72624 234.850071 
L 180.452212 234.752689 
L 181.178183 234.399452 
L 181.904155 234.252827 
L 182.630127 233.55839 
L 183.356099 233.459392 
L 184.808042 233.738711 
L 185.534014 232.561658 
L 186.259985 232.690717 
L 186.985957 233.04229 
L 187.711929 233.053243 
L 188.4379 232.363706 
L 189.889844 232.761514 
L 190.615816 232.651135 
L 191.341787 232.982207 
L 192.067759 232.396389 
L 192.793731 232.787418 
L 193.519702 232.77763 
L 196.423589 234.409644 
L 197.149561 235.087435 
L 197.875533 234.734905 
L 198.601504 234.784893 
L 200.053448 235.984037 
L 200.779419 236.774814 
L 201.505391 237.375131 
L 202.231363 237.260167 
L 205.13525 239.556856 
L 205.861221 240.021154 
L 206.587193 240.112509 
L 207.313165 240.674263 
L 208.039136 240.698689 
L 209.49108 241.998446 
L 210.217052 242.569519 
L 210.943023 242.624792 
L 211.668995 243.292318 
L 212.394967 243.709921 
L 213.120938 244.49248 
L 213.84691 244.996654 
L 218.20274 250.037844 
L 218.928712 250.13648 
L 219.654684 250.639738 
L 221.106627 251.195832 
L 221.832599 251.931927 
L 222.55857 251.839829 
L 223.284542 252.334478 
L 224.010514 252.620491 
L 226.188429 254.563043 
L 226.914401 254.452967 
L 228.366344 255.432807 
L 229.092316 255.335689 
L 229.818288 255.364252 
L 231.270231 256.047127 
L 231.996203 255.427823 
L 232.722174 255.416219 
L 233.448146 254.944681 
L 234.900089 255.3394 
L 235.626061 254.675885 
L 236.352033 254.833199 
L 237.078005 254.681051 
L 237.803976 254.401972 
L 239.25592 254.587501 
L 239.981891 254.811051 
L 240.707863 254.80318 
L 241.433835 254.317645 
L 242.159806 254.448092 
L 245.063693 254.507916 
L 245.789665 254.749774 
L 246.515637 253.495458 
L 247.96758 253.709427 
L 248.693552 252.634444 
L 249.419523 252.557016 
L 250.145495 252.654273 
L 250.871467 251.699707 
L 251.597439 251.162884 
L 252.32341 250.364125 
L 253.775354 248.270734 
L 254.501325 247.897353 
L 255.227297 247.390772 
L 255.953269 246.200852 
L 256.679241 245.937751 
L 257.405212 245.2188 
L 258.131184 244.848031 
L 258.857156 244.626951 
L 259.583127 242.765002 
L 260.309099 242.006597 
L 261.035071 240.481617 
L 262.487014 238.986746 
L 263.212986 237.969951 
L 263.938958 237.296189 
L 264.664929 236.817086 
L 265.390901 236.188451 
L 266.116873 235.812264 
L 266.842844 235.60181 
L 267.568816 234.310893 
L 268.294788 233.829236 
L 269.020759 233.671781 
L 269.746731 232.482257 
L 271.198675 232.364418 
L 272.650618 232.531797 
L 273.37659 231.709992 
L 274.102561 231.143455 
L 274.828533 230.820803 
L 275.554505 230.976591 
L 276.280477 229.500085 
L 277.006448 228.96984 
L 277.73242 228.756864 
L 278.458392 228.294647 
L 280.636307 228.060894 
L 281.362278 228.179819 
L 282.08825 227.982836 
L 282.814222 227.455955 
L 283.540194 227.312616 
L 284.266165 226.643124 
L 284.992137 226.545087 
L 285.718109 226.319512 
L 286.44408 225.8597 
L 287.170052 225.743182 
L 287.896024 224.879954 
L 289.347967 223.884322 
L 290.073939 223.825322 
L 292.251854 224.075109 
L 293.703797 224.172491 
L 294.429769 224.532884 
L 295.155741 224.091014 
L 295.881712 224.456899 
L 296.607684 223.829035 
L 297.333656 224.216839 
L 298.785599 224.560366 
L 300.237543 225.2809 
L 300.963514 224.838635 
L 303.867401 226.875118 
L 304.593373 227.433916 
L 306.045316 228.854644 
L 306.771288 228.489659 
L 307.49726 229.066876 
L 308.223231 228.914618 
L 308.949203 228.944757 
L 309.675175 229.264207 
L 310.401147 229.159521 
L 311.127118 229.703364 
L 311.85309 229.98794 
L 312.579062 230.61484 
L 313.305033 230.527038 
L 316.20892 232.791334 
L 317.660864 233.963971 
L 318.386835 234.386971 
L 322.742665 238.3745 
L 324.920581 240.768715 
L 325.646552 240.873179 
L 327.098496 242.518346 
L 327.824467 242.518084 
L 329.276411 243.834826 
L 330.002383 243.676391 
L 330.728354 244.295918 
L 332.180298 245.28128 
L 332.906269 245.94057 
L 333.632241 245.768979 
L 335.084184 246.800064 
L 335.810156 246.741051 
L 337.2621 247.62794 
L 337.988071 247.890657 
L 338.714043 247.57809 
L 340.165986 247.24201 
L 340.891958 247.386216 
L 341.61793 247.405043 
L 343.069873 246.621317 
L 344.521817 246.303136 
L 345.247788 245.621148 
L 345.97376 245.432782 
L 346.699732 245.026046 
L 347.425703 244.027949 
L 348.151675 243.771164 
L 348.877647 242.284475 
L 349.603618 241.738304 
L 350.32959 240.310899 
L 351.781534 237.858935 
L 352.507505 236.379206 
L 353.959449 234.295563 
L 354.68542 232.662187 
L 355.411392 231.335446 
L 356.137364 230.251373 
L 358.315279 224.211795 
L 361.219166 218.481453 
L 363.397081 214.688975 
L 364.123053 212.723976 
L 364.849024 211.616309 
L 367.026939 205.814424 
L 368.478883 203.408466 
L 370.656798 200.146741 
L 371.38277 198.310591 
L 372.108741 197.295017 
L 372.834713 195.971898 
L 374.286656 192.630032 
L 375.7386 190.357737 
L 376.464571 188.806565 
L 377.190543 187.746968 
L 378.642487 184.411346 
L 380.820402 181.284629 
L 382.272345 179.970422 
L 384.45026 178.501294 
L 387.354147 177.742594 
L 390.258034 177.929132 
L 392.435949 178.467282 
L 393.887892 179.293712 
L 394.613864 179.772089 
L 395.339836 179.716163 
L 396.065807 180.058773 
L 396.791779 180.611106 
L 397.517751 180.552732 
L 398.243723 180.665388 
L 398.969694 180.439443 
L 401.147609 180.253406 
L 401.873581 180.048099 
L 403.325524 180.374573 
L 404.051496 180.542995 
L 406.955383 180.087336 
L 407.681355 180.216714 
L 409.133298 179.882674 
L 410.585242 180.178777 
L 412.037185 179.670936 
L 413.489128 179.644597 
L 414.941072 179.046169 
L 417.844959 178.90637 
L 418.57093 178.600434 
L 420.022874 178.488961 
L 421.474817 177.493518 
L 424.378704 176.277517 
L 425.104676 175.936263 
L 425.830647 175.206776 
L 430.186477 172.490243 
L 430.912449 172.137591 
L 431.638421 171.302555 
L 433.816336 169.824438 
L 434.542308 168.918108 
L 435.994251 167.628363 
L 436.720223 166.647773 
L 437.446195 165.892222 
L 441.076053 160.629175 
L 442.527996 157.909569 
L 446.883827 148.665781 
L 448.33577 145.160688 
L 449.787713 141.444003 
L 453.417572 130.391524 
L 456.321459 121.369281 
L 457.773402 116.665739 
L 459.225346 111.72725 
L 460.677289 106.983738 
L 465.759091 89.479556 
L 465.759091 89.479556 
" style="fill:none;stroke:#d62728;stroke-linecap:square;stroke-width:1.5;"/>
   </g>
   <g id="line2d_5">
    <path clip-path="url(#p6a69af1cd9)" d="M 59.940909 240.814842 
L 60.666881 241.467976 
L 61.392852 240.819114 
L 62.844796 240.955018 
L 63.570768 241.248491 
L 65.022711 242.423109 
L 65.748683 242.662665 
L 66.474654 243.273183 
L 67.200626 242.84213 
L 67.926598 243.476992 
L 68.65257 243.652036 
L 69.378541 244.014897 
L 70.104513 244.64517 
L 70.830485 244.24313 
L 71.556456 244.803314 
L 72.282428 245.103052 
L 73.0084 244.441664 
L 73.734371 244.99183 
L 74.460343 244.13794 
L 75.186315 244.194651 
L 75.912287 244.570644 
L 76.638258 244.151509 
L 77.36423 244.265548 
L 78.090202 244.549969 
L 78.816173 244.660375 
L 79.542145 244.07563 
L 80.268117 243.766244 
L 80.994088 244.003354 
L 82.446032 242.916939 
L 83.897975 243.044291 
L 84.623947 242.963695 
L 85.349919 242.162741 
L 86.07589 241.889904 
L 86.801862 241.968712 
L 88.253805 242.438969 
L 88.979777 242.772088 
L 89.705749 242.893205 
L 90.431721 242.419155 
L 91.157692 242.643201 
L 92.609636 243.587013 
L 93.335607 242.681448 
L 94.061579 243.039458 
L 94.787551 242.121854 
L 96.239494 242.595603 
L 96.965466 242.309638 
L 97.691438 242.442325 
L 100.595324 243.577191 
L 101.321296 242.965676 
L 102.047268 242.808116 
L 102.77324 242.922431 
L 104.225183 243.73599 
L 104.951155 243.204293 
L 105.677126 243.685054 
L 106.403098 243.820076 
L 107.12907 243.306681 
L 107.855041 243.104954 
L 110.758928 244.668463 
L 111.4849 244.111981 
L 112.210872 244.131597 
L 113.662815 244.949657 
L 115.114758 246.097972 
L 116.566702 246.802709 
L 118.018645 247.965142 
L 118.744617 247.506041 
L 119.470589 248.038403 
L 120.922532 249.420146 
L 121.648504 248.860403 
L 122.374476 249.033211 
L 123.100447 248.864763 
L 123.826419 249.342836 
L 126.004334 250.21616 
L 126.730306 249.72319 
L 127.456277 249.644495 
L 128.908221 250.325973 
L 129.634193 249.791759 
L 131.086136 250.480633 
L 131.812108 250.464074 
L 133.264051 251.36069 
L 133.990023 250.743332 
L 134.715994 251.153573 
L 135.441966 250.641005 
L 136.167938 250.864792 
L 139.797796 252.630711 
L 140.523768 253.189536 
L 141.24974 252.476889 
L 141.975711 252.43926 
L 144.153627 253.653441 
L 144.879598 254.274735 
L 146.331542 254.897169 
L 147.057513 254.656475 
L 148.509457 255.549646 
L 149.235429 256.082091 
L 150.687372 256.756305 
L 152.139315 257.803026 
L 152.865287 257.180805 
L 153.591259 257.185614 
L 155.043202 257.912025 
L 155.769174 258.200105 
L 157.947089 258.730952 
L 158.673061 259.168419 
L 159.399032 259.292446 
L 164.480834 261.874662 
L 165.206806 261.27319 
L 168.836664 263.186984 
L 171.01458 264.713999 
L 171.740551 264.377465 
L 172.466523 264.798877 
L 173.192495 263.934779 
L 175.37041 264.867591 
L 176.822353 264.794248 
L 179.000268 265.172335 
L 179.72624 265.372491 
L 180.452212 265.378182 
L 181.178183 265.618615 
L 182.630127 264.659554 
L 183.356099 263.868351 
L 184.808042 263.81268 
L 185.534014 262.428975 
L 186.985957 262.068772 
L 187.711929 261.672425 
L 189.163872 261.554937 
L 189.889844 261.511775 
L 190.615816 261.169452 
L 191.341787 260.039679 
L 192.067759 259.920692 
L 193.519702 257.673309 
L 194.245674 257.077376 
L 195.697617 254.420782 
L 196.423589 253.642835 
L 197.875533 252.676983 
L 198.601504 252.149762 
L 200.053448 249.262119 
L 200.779419 248.360121 
L 201.505391 247.652208 
L 202.231363 245.667181 
L 202.957335 244.086014 
L 203.683306 241.853087 
L 205.13525 239.547117 
L 205.861221 237.498641 
L 206.587193 235.826305 
L 207.313165 234.603364 
L 208.039136 232.603074 
L 210.217052 229.795977 
L 210.943023 229.203187 
L 211.668995 227.512572 
L 212.394967 227.087921 
L 213.120938 226.838732 
L 213.84691 226.245938 
L 215.298853 223.928956 
L 216.750797 223.796903 
L 217.476769 223.440149 
L 219.654684 223.308815 
L 220.380655 222.902521 
L 222.55857 223.399784 
L 224.010514 224.139279 
L 224.736486 223.691532 
L 226.188429 224.894682 
L 226.914401 225.107376 
L 227.640372 224.958322 
L 228.366344 225.553166 
L 229.092316 225.888806 
L 229.818288 226.358428 
L 230.544259 227.065311 
L 231.996203 227.977275 
L 232.722174 227.77883 
L 234.174118 228.813708 
L 234.900089 229.667073 
L 235.626061 230.134266 
L 236.352033 230.925417 
L 237.078005 231.473799 
L 238.529948 233.059823 
L 239.25592 233.630262 
L 239.981891 234.422964 
L 240.707863 234.415432 
L 242.159806 235.584202 
L 242.885778 236.444273 
L 245.789665 239.189784 
L 246.515637 238.843082 
L 247.96758 240.280347 
L 248.693552 240.099194 
L 250.145495 241.206591 
L 250.871467 241.237467 
L 251.597439 241.757859 
L 252.32341 241.528776 
L 253.049382 241.644733 
L 253.775354 241.923013 
L 255.953269 243.049683 
L 257.405212 242.904302 
L 258.857156 243.465624 
L 259.583127 243.14684 
L 260.309099 243.529425 
L 261.035071 242.965355 
L 261.761042 242.82079 
L 262.487014 242.812224 
L 263.212986 242.33644 
L 263.938958 241.998764 
L 264.664929 242.041528 
L 265.390901 241.41488 
L 266.842844 241.077503 
L 267.568816 241.159497 
L 268.294788 240.399064 
L 269.020759 240.440148 
L 269.746731 240.331154 
L 270.472703 240.034907 
L 271.198675 240.110332 
L 272.650618 239.958786 
L 274.102561 239.928423 
L 274.828533 239.348171 
L 275.554505 239.002003 
L 276.280477 238.808647 
L 277.006448 238.803324 
L 278.458392 238.553608 
L 280.636307 238.781873 
L 281.362278 239.101549 
L 282.08825 239.126696 
L 282.814222 238.791737 
L 283.540194 238.89617 
L 284.266165 238.213937 
L 285.718109 237.95879 
L 286.44408 237.478619 
L 287.170052 237.465154 
L 287.896024 236.500079 
L 288.621995 236.081501 
L 289.347967 235.477573 
L 290.799911 235.201447 
L 292.251854 235.211472 
L 292.977826 235.348808 
L 293.703797 235.359147 
L 294.429769 235.590702 
L 295.155741 235.655346 
L 295.881712 235.918243 
L 296.607684 236.045719 
L 298.059628 236.741462 
L 299.511571 237.646788 
L 300.237543 238.217226 
L 300.963514 238.527492 
L 301.689486 239.045205 
L 302.415458 238.527382 
L 303.14143 239.007536 
L 303.867401 239.240996 
L 304.593373 239.650281 
L 306.045316 240.812034 
L 306.771288 241.043523 
L 307.49726 240.883524 
L 308.223231 241.048828 
L 308.949203 240.405704 
L 309.675175 240.224273 
L 310.401147 239.879511 
L 313.305033 240.619909 
L 314.756977 240.852074 
L 318.386835 242.02222 
L 319.112807 241.386169 
L 321.290722 241.988066 
L 322.016694 241.992041 
L 322.742665 242.263096 
L 323.468637 241.634794 
L 324.194609 241.314149 
L 324.920581 241.295327 
L 326.372524 241.600797 
L 328.550439 239.949223 
L 329.276411 239.865343 
L 330.002383 239.416452 
L 330.728354 239.247818 
L 331.454326 238.03918 
L 332.906269 237.43257 
L 333.632241 236.515049 
L 334.358213 236.24724 
L 335.084184 235.783274 
L 336.536128 233.786934 
L 337.2621 233.223497 
L 340.165986 227.885541 
L 341.61793 226.036755 
L 343.069873 222.94481 
L 344.521817 221.025124 
L 345.247788 219.199503 
L 345.97376 218.288035 
L 346.699732 216.972052 
L 347.425703 215.052388 
L 348.151675 214.18531 
L 348.877647 211.7998 
L 349.603618 210.650412 
L 350.32959 208.376189 
L 352.507505 202.710059 
L 353.959449 199.900194 
L 354.68542 197.990483 
L 355.411392 196.690403 
L 356.137364 195.639115 
L 356.863336 193.517584 
L 357.589307 192.318397 
L 358.315279 190.436186 
L 359.767222 188.38504 
L 361.219166 186.228723 
L 361.945137 185.597444 
L 362.671109 185.144482 
L 364.123053 182.59482 
L 364.849024 182.136704 
L 365.574996 181.1012 
L 367.026939 178.818711 
L 369.204854 177.410836 
L 369.930826 177.134117 
L 370.656798 176.280917 
L 371.38277 175.989668 
L 372.108741 175.087355 
L 372.834713 174.371971 
L 373.560685 174.122188 
L 374.286656 173.435152 
L 375.7386 173.349972 
L 377.916515 171.839016 
L 379.368458 171.822698 
L 380.09443 171.315502 
L 382.272345 171.553864 
L 384.45026 172.552928 
L 385.176232 172.920094 
L 385.902204 173.033413 
L 387.354147 173.872544 
L 388.080119 173.92105 
L 388.80609 174.391251 
L 389.532062 174.486223 
L 390.984006 175.306019 
L 391.709977 175.337247 
L 392.435949 175.516582 
L 395.339836 177.38943 
L 396.065807 177.991493 
L 397.517751 178.556955 
L 400.421638 180.844726 
L 403.325524 183.342363 
L 404.051496 183.702709 
L 405.50344 185.069136 
L 408.407326 187.907008 
L 409.85927 189.299801 
L 410.585242 189.628669 
L 411.311213 190.273706 
L 412.037185 190.4601 
L 413.489128 191.590591 
L 414.2151 191.714702 
L 416.393015 193.015619 
L 417.844959 193.918516 
L 418.57093 193.97062 
L 420.022874 194.554628 
L 420.748845 194.383822 
L 422.200789 194.558045 
L 422.92676 194.64721 
L 424.378704 193.892959 
L 425.830647 192.686855 
L 428.008562 190.425209 
L 429.460506 188.253911 
L 430.186477 187.222098 
L 434.542308 178.915089 
L 437.446195 171.117907 
L 440.350081 162.019308 
L 442.527996 153.7413 
L 449.061742 125.367537 
L 451.965629 110.71841 
L 454.869515 95.951651 
L 459.225346 75.214635 
L 465.759091 47.625828 
L 465.759091 47.625828 
" style="fill:none;stroke:#000000;stroke-dasharray:3.7,1.6;stroke-dashoffset:0;"/>
   </g>
   <g id="matplotlib.axis_1">
    <g id="xtick_1">
     <g id="line2d_6">
      <defs>
       <path d="M 0 0 
L 0 3.5 
" id="m4435ba4a65" style="stroke:#000000;stroke-width:0.8;"/>
      </defs>
      <g>
       <use style="stroke:#000000;stroke-width:0.8;" x="80.994088" xlink:href="#m4435ba4a65" y="294.118125"/>
      </g>
     </g>
     <g id="text_1">
      <!-- 100 -->
      <defs>
       <path d="M 12.40625 8.296875 
L 28.515625 8.296875 
L 28.515625 63.921875 
L 10.984375 60.40625 
L 10.984375 69.390625 
L 28.421875 72.90625 
L 38.28125 72.90625 
L 38.28125 8.296875 
L 54.390625 8.296875 
L 54.390625 0 
L 12.40625 0 
z
" id="DejaVuSans-49"/>
       <path d="M 31.78125 66.40625 
Q 24.171875 66.40625 20.328125 58.90625 
Q 16.5 51.421875 16.5 36.375 
Q 16.5 21.390625 20.328125 13.890625 
Q 24.171875 6.390625 31.78125 6.390625 
Q 39.453125 6.390625 43.28125 13.890625 
Q 47.125 21.390625 47.125 36.375 
Q 47.125 51.421875 43.28125 58.90625 
Q 39.453125 66.40625 31.78125 66.40625 
z
M 31.78125 74.21875 
Q 44.046875 74.21875 50.515625 64.515625 
Q 56.984375 54.828125 56.984375 36.375 
Q 56.984375 17.96875 50.515625 8.265625 
Q 44.046875 -1.421875 31.78125 -1.421875 
Q 19.53125 -1.421875 13.0625 8.265625 
Q 6.59375 17.96875 6.59375 36.375 
Q 6.59375 54.828125 13.0625 64.515625 
Q 19.53125 74.21875 31.78125 74.21875 
z
" id="DejaVuSans-48"/>
      </defs>
      <g transform="translate(71.450338 308.716563)scale(0.1 -0.1)">
       <use xlink:href="#DejaVuSans-49"/>
       <use x="63.623047" xlink:href="#DejaVuSans-48"/>
       <use x="127.246094" xlink:href="#DejaVuSans-48"/>
      </g>
     </g>
    </g>
    <g id="xtick_2">
     <g id="line2d_7">
      <g>
       <use style="stroke:#000000;stroke-width:0.8;" x="153.591259" xlink:href="#m4435ba4a65" y="294.118125"/>
      </g>
     </g>
     <g id="text_2">
      <!-- 200 -->
      <defs>
       <path d="M 19.1875 8.296875 
L 53.609375 8.296875 
L 53.609375 0 
L 7.328125 0 
L 7.328125 8.296875 
Q 12.9375 14.109375 22.625 23.890625 
Q 32.328125 33.6875 34.8125 36.53125 
Q 39.546875 41.84375 41.421875 45.53125 
Q 43.3125 49.21875 43.3125 52.78125 
Q 43.3125 58.59375 39.234375 62.25 
Q 35.15625 65.921875 28.609375 65.921875 
Q 23.96875 65.921875 18.8125 64.3125 
Q 13.671875 62.703125 7.8125 59.421875 
L 7.8125 69.390625 
Q 13.765625 71.78125 18.9375 73 
Q 24.125 74.21875 28.421875 74.21875 
Q 39.75 74.21875 46.484375 68.546875 
Q 53.21875 62.890625 53.21875 53.421875 
Q 53.21875 48.921875 51.53125 44.890625 
Q 49.859375 40.875 45.40625 35.40625 
Q 44.1875 33.984375 37.640625 27.21875 
Q 31.109375 20.453125 19.1875 8.296875 
z
" id="DejaVuSans-50"/>
      </defs>
      <g transform="translate(144.047509 308.716563)scale(0.1 -0.1)">
       <use xlink:href="#DejaVuSans-50"/>
       <use x="63.623047" xlink:href="#DejaVuSans-48"/>
       <use x="127.246094" xlink:href="#DejaVuSans-48"/>
      </g>
     </g>
    </g>
    <g id="xtick_3">
     <g id="line2d_8">
      <g>
       <use style="stroke:#000000;stroke-width:0.8;" x="226.188429" xlink:href="#m4435ba4a65" y="294.118125"/>
      </g>
     </g>
     <g id="text_3">
      <!-- 300 -->
      <defs>
       <path d="M 40.578125 39.3125 
Q 47.65625 37.796875 51.625 33 
Q 55.609375 28.21875 55.609375 21.1875 
Q 55.609375 10.40625 48.1875 4.484375 
Q 40.765625 -1.421875 27.09375 -1.421875 
Q 22.515625 -1.421875 17.65625 -0.515625 
Q 12.796875 0.390625 7.625 2.203125 
L 7.625 11.71875 
Q 11.71875 9.328125 16.59375 8.109375 
Q 21.484375 6.890625 26.8125 6.890625 
Q 36.078125 6.890625 40.9375 10.546875 
Q 45.796875 14.203125 45.796875 21.1875 
Q 45.796875 27.640625 41.28125 31.265625 
Q 36.765625 34.90625 28.71875 34.90625 
L 20.21875 34.90625 
L 20.21875 43.015625 
L 29.109375 43.015625 
Q 36.375 43.015625 40.234375 45.921875 
Q 44.09375 48.828125 44.09375 54.296875 
Q 44.09375 59.90625 40.109375 62.90625 
Q 36.140625 65.921875 28.71875 65.921875 
Q 24.65625 65.921875 20.015625 65.03125 
Q 15.375 64.15625 9.8125 62.3125 
L 9.8125 71.09375 
Q 15.4375 72.65625 20.34375 73.4375 
Q 25.25 74.21875 29.59375 74.21875 
Q 40.828125 74.21875 47.359375 69.109375 
Q 53.90625 64.015625 53.90625 55.328125 
Q 53.90625 49.265625 50.4375 45.09375 
Q 46.96875 40.921875 40.578125 39.3125 
z
" id="DejaVuSans-51"/>
      </defs>
      <g transform="translate(216.644679 308.716563)scale(0.1 -0.1)">
       <use xlink:href="#DejaVuSans-51"/>
       <use x="63.623047" xlink:href="#DejaVuSans-48"/>
       <use x="127.246094" xlink:href="#DejaVuSans-48"/>
      </g>
     </g>
    </g>
    <g id="xtick_4">
     <g id="line2d_9">
      <g>
       <use style="stroke:#000000;stroke-width:0.8;" x="298.785599" xlink:href="#m4435ba4a65" y="294.118125"/>
      </g>
     </g>
     <g id="text_4">
      <!-- 400 -->
      <defs>
       <path d="M 37.796875 64.3125 
L 12.890625 25.390625 
L 37.796875 25.390625 
z
M 35.203125 72.90625 
L 47.609375 72.90625 
L 47.609375 25.390625 
L 58.015625 25.390625 
L 58.015625 17.1875 
L 47.609375 17.1875 
L 47.609375 0 
L 37.796875 0 
L 37.796875 17.1875 
L 4.890625 17.1875 
L 4.890625 26.703125 
z
" id="DejaVuSans-52"/>
      </defs>
      <g transform="translate(289.241849 308.716563)scale(0.1 -0.1)">
       <use xlink:href="#DejaVuSans-52"/>
       <use x="63.623047" xlink:href="#DejaVuSans-48"/>
       <use x="127.246094" xlink:href="#DejaVuSans-48"/>
      </g>
     </g>
    </g>
    <g id="xtick_5">
     <g id="line2d_10">
      <g>
       <use style="stroke:#000000;stroke-width:0.8;" x="371.38277" xlink:href="#m4435ba4a65" y="294.118125"/>
      </g>
     </g>
     <g id="text_5">
      <!-- 500 -->
      <defs>
       <path d="M 10.796875 72.90625 
L 49.515625 72.90625 
L 49.515625 64.59375 
L 19.828125 64.59375 
L 19.828125 46.734375 
Q 21.96875 47.46875 24.109375 47.828125 
Q 26.265625 48.1875 28.421875 48.1875 
Q 40.625 48.1875 47.75 41.5 
Q 54.890625 34.8125 54.890625 23.390625 
Q 54.890625 11.625 47.5625 5.09375 
Q 40.234375 -1.421875 26.90625 -1.421875 
Q 22.3125 -1.421875 17.546875 -0.640625 
Q 12.796875 0.140625 7.71875 1.703125 
L 7.71875 11.625 
Q 12.109375 9.234375 16.796875 8.0625 
Q 21.484375 6.890625 26.703125 6.890625 
Q 35.15625 6.890625 40.078125 11.328125 
Q 45.015625 15.765625 45.015625 23.390625 
Q 45.015625 31 40.078125 35.4375 
Q 35.15625 39.890625 26.703125 39.890625 
Q 22.75 39.890625 18.8125 39.015625 
Q 14.890625 38.140625 10.796875 36.28125 
z
" id="DejaVuSans-53"/>
      </defs>
      <g transform="translate(361.83902 308.716563)scale(0.1 -0.1)">
       <use xlink:href="#DejaVuSans-53"/>
       <use x="63.623047" xlink:href="#DejaVuSans-48"/>
       <use x="127.246094" xlink:href="#DejaVuSans-48"/>
      </g>
     </g>
    </g>
    <g id="xtick_6">
     <g id="line2d_11">
      <g>
       <use style="stroke:#000000;stroke-width:0.8;" x="443.97994" xlink:href="#m4435ba4a65" y="294.118125"/>
      </g>
     </g>
     <g id="text_6">
      <!-- 600 -->
      <defs>
       <path d="M 33.015625 40.375 
Q 26.375 40.375 22.484375 35.828125 
Q 18.609375 31.296875 18.609375 23.390625 
Q 18.609375 15.53125 22.484375 10.953125 
Q 26.375 6.390625 33.015625 6.390625 
Q 39.65625 6.390625 43.53125 10.953125 
Q 47.40625 15.53125 47.40625 23.390625 
Q 47.40625 31.296875 43.53125 35.828125 
Q 39.65625 40.375 33.015625 40.375 
z
M 52.59375 71.296875 
L 52.59375 62.3125 
Q 48.875 64.0625 45.09375 64.984375 
Q 41.3125 65.921875 37.59375 65.921875 
Q 27.828125 65.921875 22.671875 59.328125 
Q 17.53125 52.734375 16.796875 39.40625 
Q 19.671875 43.65625 24.015625 45.921875 
Q 28.375 48.1875 33.59375 48.1875 
Q 44.578125 48.1875 50.953125 41.515625 
Q 57.328125 34.859375 57.328125 23.390625 
Q 57.328125 12.15625 50.6875 5.359375 
Q 44.046875 -1.421875 33.015625 -1.421875 
Q 20.359375 -1.421875 13.671875 8.265625 
Q 6.984375 17.96875 6.984375 36.375 
Q 6.984375 53.65625 15.1875 63.9375 
Q 23.390625 74.21875 37.203125 74.21875 
Q 40.921875 74.21875 44.703125 73.484375 
Q 48.484375 72.75 52.59375 71.296875 
z
" id="DejaVuSans-54"/>
      </defs>
      <g transform="translate(434.43619 308.716563)scale(0.1 -0.1)">
       <use xlink:href="#DejaVuSans-54"/>
       <use x="63.623047" xlink:href="#DejaVuSans-48"/>
       <use x="127.246094" xlink:href="#DejaVuSans-48"/>
      </g>
     </g>
    </g>
    <g id="text_7">
     <!-- Tempo -->
     <defs>
      <path d="M -0.296875 72.90625 
L 61.375 72.90625 
L 61.375 64.59375 
L 35.5 64.59375 
L 35.5 0 
L 25.59375 0 
L 25.59375 64.59375 
L -0.296875 64.59375 
z
" id="DejaVuSans-84"/>
      <path d="M 56.203125 29.59375 
L 56.203125 25.203125 
L 14.890625 25.203125 
Q 15.484375 15.921875 20.484375 11.0625 
Q 25.484375 6.203125 34.421875 6.203125 
Q 39.59375 6.203125 44.453125 7.46875 
Q 49.3125 8.734375 54.109375 11.28125 
L 54.109375 2.78125 
Q 49.265625 0.734375 44.1875 -0.34375 
Q 39.109375 -1.421875 33.890625 -1.421875 
Q 20.796875 -1.421875 13.15625 6.1875 
Q 5.515625 13.8125 5.515625 26.8125 
Q 5.515625 40.234375 12.765625 48.109375 
Q 20.015625 56 32.328125 56 
Q 43.359375 56 49.78125 48.890625 
Q 56.203125 41.796875 56.203125 29.59375 
z
M 47.21875 32.234375 
Q 47.125 39.59375 43.09375 43.984375 
Q 39.0625 48.390625 32.421875 48.390625 
Q 24.90625 48.390625 20.390625 44.140625 
Q 15.875 39.890625 15.1875 32.171875 
z
" id="DejaVuSans-101"/>
      <path d="M 52 44.1875 
Q 55.375 50.25 60.0625 53.125 
Q 64.75 56 71.09375 56 
Q 79.640625 56 84.28125 50.015625 
Q 88.921875 44.046875 88.921875 33.015625 
L 88.921875 0 
L 79.890625 0 
L 79.890625 32.71875 
Q 79.890625 40.578125 77.09375 44.375 
Q 74.3125 48.1875 68.609375 48.1875 
Q 61.625 48.1875 57.5625 43.546875 
Q 53.515625 38.921875 53.515625 30.90625 
L 53.515625 0 
L 44.484375 0 
L 44.484375 32.71875 
Q 44.484375 40.625 41.703125 44.40625 
Q 38.921875 48.1875 33.109375 48.1875 
Q 26.21875 48.1875 22.15625 43.53125 
Q 18.109375 38.875 18.109375 30.90625 
L 18.109375 0 
L 9.078125 0 
L 9.078125 54.6875 
L 18.109375 54.6875 
L 18.109375 46.1875 
Q 21.1875 51.21875 25.484375 53.609375 
Q 29.78125 56 35.6875 56 
Q 41.65625 56 45.828125 52.96875 
Q 50 49.953125 52 44.1875 
z
" id="DejaVuSans-109"/>
      <path d="M 18.109375 8.203125 
L 18.109375 -20.796875 
L 9.078125 -20.796875 
L 9.078125 54.6875 
L 18.109375 54.6875 
L 18.109375 46.390625 
Q 20.953125 51.265625 25.265625 53.625 
Q 29.59375 56 35.59375 56 
Q 45.5625 56 51.78125 48.09375 
Q 58.015625 40.1875 58.015625 27.296875 
Q 58.015625 14.40625 51.78125 6.484375 
Q 45.5625 -1.421875 35.59375 -1.421875 
Q 29.59375 -1.421875 25.265625 0.953125 
Q 20.953125 3.328125 18.109375 8.203125 
z
M 48.6875 27.296875 
Q 48.6875 37.203125 44.609375 42.84375 
Q 40.53125 48.484375 33.40625 48.484375 
Q 26.265625 48.484375 22.1875 42.84375 
Q 18.109375 37.203125 18.109375 27.296875 
Q 18.109375 17.390625 22.1875 11.75 
Q 26.265625 6.109375 33.40625 6.109375 
Q 40.53125 6.109375 44.609375 11.75 
Q 48.6875 17.390625 48.6875 27.296875 
z
" id="DejaVuSans-112"/>
      <path d="M 30.609375 48.390625 
Q 23.390625 48.390625 19.1875 42.75 
Q 14.984375 37.109375 14.984375 27.296875 
Q 14.984375 17.484375 19.15625 11.84375 
Q 23.34375 6.203125 30.609375 6.203125 
Q 37.796875 6.203125 41.984375 11.859375 
Q 46.1875 17.53125 46.1875 27.296875 
Q 46.1875 37.015625 41.984375 42.703125 
Q 37.796875 48.390625 30.609375 48.390625 
z
M 30.609375 56 
Q 42.328125 56 49.015625 48.375 
Q 55.71875 40.765625 55.71875 27.296875 
Q 55.71875 13.875 49.015625 6.21875 
Q 42.328125 -1.421875 30.609375 -1.421875 
Q 18.84375 -1.421875 12.171875 6.21875 
Q 5.515625 13.875 5.515625 27.296875 
Q 5.515625 40.765625 12.171875 48.375 
Q 18.84375 56 30.609375 56 
z
" id="DejaVuSans-111"/>
     </defs>
     <g transform="translate(246.465625 322.394687)scale(0.1 -0.1)">
      <use xlink:href="#DejaVuSans-84"/>
      <use x="44.083984" xlink:href="#DejaVuSans-101"/>
      <use x="105.607422" xlink:href="#DejaVuSans-109"/>
      <use x="203.019531" xlink:href="#DejaVuSans-112"/>
      <use x="266.496094" xlink:href="#DejaVuSans-111"/>
     </g>
    </g>
   </g>
   <g id="matplotlib.axis_2">
    <g id="ytick_1">
     <g id="line2d_12">
      <defs>
       <path d="M 0 0 
L -3.5 0 
" id="m7d54d9cb14" style="stroke:#000000;stroke-width:0.8;"/>
      </defs>
      <g>
       <use style="stroke:#000000;stroke-width:0.8;" x="39.65" xlink:href="#m7d54d9cb14" y="276.025792"/>
      </g>
     </g>
     <g id="text_8">
      <!-- 1000 -->
      <g transform="translate(7.2 279.825011)scale(0.1 -0.1)">
       <use xlink:href="#DejaVuSans-49"/>
       <use x="63.623047" xlink:href="#DejaVuSans-48"/>
       <use x="127.246094" xlink:href="#DejaVuSans-48"/>
       <use x="190.869141" xlink:href="#DejaVuSans-48"/>
      </g>
     </g>
    </g>
    <g id="ytick_2">
     <g id="line2d_13">
      <g>
       <use style="stroke:#000000;stroke-width:0.8;" x="39.65" xlink:href="#m7d54d9cb14" y="215.687512"/>
      </g>
     </g>
     <g id="text_9">
      <!-- 2000 -->
      <g transform="translate(7.2 219.48673)scale(0.1 -0.1)">
       <use xlink:href="#DejaVuSans-50"/>
       <use x="63.623047" xlink:href="#DejaVuSans-48"/>
       <use x="127.246094" xlink:href="#DejaVuSans-48"/>
       <use x="190.869141" xlink:href="#DejaVuSans-48"/>
      </g>
     </g>
    </g>
    <g id="ytick_3">
     <g id="line2d_14">
      <g>
       <use style="stroke:#000000;stroke-width:0.8;" x="39.65" xlink:href="#m7d54d9cb14" y="155.349231"/>
      </g>
     </g>
     <g id="text_10">
      <!-- 3000 -->
      <g transform="translate(7.2 159.14845)scale(0.1 -0.1)">
       <use xlink:href="#DejaVuSans-51"/>
       <use x="63.623047" xlink:href="#DejaVuSans-48"/>
       <use x="127.246094" xlink:href="#DejaVuSans-48"/>
       <use x="190.869141" xlink:href="#DejaVuSans-48"/>
      </g>
     </g>
    </g>
    <g id="ytick_4">
     <g id="line2d_15">
      <g>
       <use style="stroke:#000000;stroke-width:0.8;" x="39.65" xlink:href="#m7d54d9cb14" y="95.010951"/>
      </g>
     </g>
     <g id="text_11">
      <!-- 4000 -->
      <g transform="translate(7.2 98.81017)scale(0.1 -0.1)">
       <use xlink:href="#DejaVuSans-52"/>
       <use x="63.623047" xlink:href="#DejaVuSans-48"/>
       <use x="127.246094" xlink:href="#DejaVuSans-48"/>
       <use x="190.869141" xlink:href="#DejaVuSans-48"/>
      </g>
     </g>
    </g>
    <g id="ytick_5">
     <g id="line2d_16">
      <g>
       <use style="stroke:#000000;stroke-width:0.8;" x="39.65" xlink:href="#m7d54d9cb14" y="34.67267"/>
      </g>
     </g>
     <g id="text_12">
      <!-- 5000 -->
      <g transform="translate(7.2 38.471889)scale(0.1 -0.1)">
       <use xlink:href="#DejaVuSans-53"/>
       <use x="63.623047" xlink:href="#DejaVuSans-48"/>
       <use x="127.246094" xlink:href="#DejaVuSans-48"/>
       <use x="190.869141" xlink:href="#DejaVuSans-48"/>
      </g>
     </g>
    </g>
   </g>
   <g id="patch_3">
    <path d="M 39.65 294.118125 
L 39.65 22.318125 
" style="fill:none;stroke:#000000;stroke-linecap:square;stroke-linejoin:miter;stroke-width:0.8;"/>
   </g>
   <g id="patch_4">
    <path d="M 39.65 294.118125 
L 486.05 294.118125 
" style="fill:none;stroke:#000000;stroke-linecap:square;stroke-linejoin:miter;stroke-width:0.8;"/>
   </g>
   <g id="text_13">
    <!-- Q_fc -->
    <defs>
     <path d="M 39.40625 66.21875 
Q 28.65625 66.21875 22.328125 58.203125 
Q 16.015625 50.203125 16.015625 36.375 
Q 16.015625 22.609375 22.328125 14.59375 
Q 28.65625 6.59375 39.40625 6.59375 
Q 50.140625 6.59375 56.421875 14.59375 
Q 62.703125 22.609375 62.703125 36.375 
Q 62.703125 50.203125 56.421875 58.203125 
Q 50.140625 66.21875 39.40625 66.21875 
z
M 53.21875 1.3125 
L 66.21875 -12.890625 
L 54.296875 -12.890625 
L 43.5 -1.21875 
Q 41.890625 -1.3125 41.03125 -1.359375 
Q 40.1875 -1.421875 39.40625 -1.421875 
Q 24.03125 -1.421875 14.8125 8.859375 
Q 5.609375 19.140625 5.609375 36.375 
Q 5.609375 53.65625 14.8125 63.9375 
Q 24.03125 74.21875 39.40625 74.21875 
Q 54.734375 74.21875 63.90625 63.9375 
Q 73.09375 53.65625 73.09375 36.375 
Q 73.09375 23.6875 67.984375 14.640625 
Q 62.890625 5.609375 53.21875 1.3125 
z
" id="DejaVuSans-81"/>
     <path d="M 50.984375 -16.609375 
L 50.984375 -23.578125 
L -0.984375 -23.578125 
L -0.984375 -16.609375 
z
" id="DejaVuSans-95"/>
     <path d="M 37.109375 75.984375 
L 37.109375 68.5 
L 28.515625 68.5 
Q 23.6875 68.5 21.796875 66.546875 
Q 19.921875 64.59375 19.921875 59.515625 
L 19.921875 54.6875 
L 34.71875 54.6875 
L 34.71875 47.703125 
L 19.921875 47.703125 
L 19.921875 0 
L 10.890625 0 
L 10.890625 47.703125 
L 2.296875 47.703125 
L 2.296875 54.6875 
L 10.890625 54.6875 
L 10.890625 58.5 
Q 10.890625 67.625 15.140625 71.796875 
Q 19.390625 75.984375 28.609375 75.984375 
z
" id="DejaVuSans-102"/>
     <path d="M 48.78125 52.59375 
L 48.78125 44.1875 
Q 44.96875 46.296875 41.140625 47.34375 
Q 37.3125 48.390625 33.40625 48.390625 
Q 24.65625 48.390625 19.8125 42.84375 
Q 14.984375 37.3125 14.984375 27.296875 
Q 14.984375 17.28125 19.8125 11.734375 
Q 24.65625 6.203125 33.40625 6.203125 
Q 37.3125 6.203125 41.140625 7.25 
Q 44.96875 8.296875 48.78125 10.40625 
L 48.78125 2.09375 
Q 45.015625 0.34375 40.984375 -0.53125 
Q 36.96875 -1.421875 32.421875 -1.421875 
Q 20.0625 -1.421875 12.78125 6.34375 
Q 5.515625 14.109375 5.515625 27.296875 
Q 5.515625 40.671875 12.859375 48.328125 
Q 20.21875 56 33.015625 56 
Q 37.15625 56 41.109375 55.140625 
Q 45.0625 54.296875 48.78125 52.59375 
z
" id="DejaVuSans-99"/>
    </defs>
    <g transform="translate(249.715625 16.318125)scale(0.12 -0.12)">
     <use xlink:href="#DejaVuSans-81"/>
     <use x="78.710938" xlink:href="#DejaVuSans-95"/>
     <use x="128.710938" xlink:href="#DejaVuSans-102"/>
     <use x="163.916016" xlink:href="#DejaVuSans-99"/>
    </g>
   </g>
   <g id="legend_1">
    <g id="patch_5">
     <path d="M 493.05 196.413438 
L 626.609375 196.413438 
Q 628.609375 196.413438 628.609375 194.413438 
L 628.609375 122.022813 
Q 628.609375 120.022813 626.609375 120.022813 
L 493.05 120.022813 
Q 491.05 120.022813 491.05 122.022813 
L 491.05 194.413438 
Q 491.05 196.413438 493.05 196.413438 
z
" style="fill:#ffffff;opacity:0.8;stroke:#cccccc;stroke-linejoin:miter;"/>
    </g>
    <g id="line2d_17">
     <path d="M 495.05 128.12125 
L 515.05 128.12125 
" style="fill:none;stroke:#000000;stroke-dasharray:3.7,1.6;stroke-dashoffset:0;"/>
    </g>
    <g id="line2d_18"/>
    <g id="text_14">
     <!-- Baseline -->
     <defs>
      <path d="M 19.671875 34.8125 
L 19.671875 8.109375 
L 35.5 8.109375 
Q 43.453125 8.109375 47.28125 11.40625 
Q 51.125 14.703125 51.125 21.484375 
Q 51.125 28.328125 47.28125 31.5625 
Q 43.453125 34.8125 35.5 34.8125 
z
M 19.671875 64.796875 
L 19.671875 42.828125 
L 34.28125 42.828125 
Q 41.5 42.828125 45.03125 45.53125 
Q 48.578125 48.25 48.578125 53.8125 
Q 48.578125 59.328125 45.03125 62.0625 
Q 41.5 64.796875 34.28125 64.796875 
z
M 9.8125 72.90625 
L 35.015625 72.90625 
Q 46.296875 72.90625 52.390625 68.21875 
Q 58.5 63.53125 58.5 54.890625 
Q 58.5 48.1875 55.375 44.234375 
Q 52.25 40.28125 46.1875 39.3125 
Q 53.46875 37.75 57.5 32.78125 
Q 61.53125 27.828125 61.53125 20.40625 
Q 61.53125 10.640625 54.890625 5.3125 
Q 48.25 0 35.984375 0 
L 9.8125 0 
z
" id="DejaVuSans-66"/>
      <path d="M 34.28125 27.484375 
Q 23.390625 27.484375 19.1875 25 
Q 14.984375 22.515625 14.984375 16.5 
Q 14.984375 11.71875 18.140625 8.90625 
Q 21.296875 6.109375 26.703125 6.109375 
Q 34.1875 6.109375 38.703125 11.40625 
Q 43.21875 16.703125 43.21875 25.484375 
L 43.21875 27.484375 
z
M 52.203125 31.203125 
L 52.203125 0 
L 43.21875 0 
L 43.21875 8.296875 
Q 40.140625 3.328125 35.546875 0.953125 
Q 30.953125 -1.421875 24.3125 -1.421875 
Q 15.921875 -1.421875 10.953125 3.296875 
Q 6 8.015625 6 15.921875 
Q 6 25.140625 12.171875 29.828125 
Q 18.359375 34.515625 30.609375 34.515625 
L 43.21875 34.515625 
L 43.21875 35.40625 
Q 43.21875 41.609375 39.140625 45 
Q 35.0625 48.390625 27.6875 48.390625 
Q 23 48.390625 18.546875 47.265625 
Q 14.109375 46.140625 10.015625 43.890625 
L 10.015625 52.203125 
Q 14.9375 54.109375 19.578125 55.046875 
Q 24.21875 56 28.609375 56 
Q 40.484375 56 46.34375 49.84375 
Q 52.203125 43.703125 52.203125 31.203125 
z
" id="DejaVuSans-97"/>
      <path d="M 44.28125 53.078125 
L 44.28125 44.578125 
Q 40.484375 46.53125 36.375 47.5 
Q 32.28125 48.484375 27.875 48.484375 
Q 21.1875 48.484375 17.84375 46.4375 
Q 14.5 44.390625 14.5 40.28125 
Q 14.5 37.15625 16.890625 35.375 
Q 19.28125 33.59375 26.515625 31.984375 
L 29.59375 31.296875 
Q 39.15625 29.25 43.1875 25.515625 
Q 47.21875 21.78125 47.21875 15.09375 
Q 47.21875 7.46875 41.1875 3.015625 
Q 35.15625 -1.421875 24.609375 -1.421875 
Q 20.21875 -1.421875 15.453125 -0.5625 
Q 10.6875 0.296875 5.421875 2 
L 5.421875 11.28125 
Q 10.40625 8.6875 15.234375 7.390625 
Q 20.0625 6.109375 24.8125 6.109375 
Q 31.15625 6.109375 34.5625 8.28125 
Q 37.984375 10.453125 37.984375 14.40625 
Q 37.984375 18.0625 35.515625 20.015625 
Q 33.0625 21.96875 24.703125 23.78125 
L 21.578125 24.515625 
Q 13.234375 26.265625 9.515625 29.90625 
Q 5.8125 33.546875 5.8125 39.890625 
Q 5.8125 47.609375 11.28125 51.796875 
Q 16.75 56 26.8125 56 
Q 31.78125 56 36.171875 55.265625 
Q 40.578125 54.546875 44.28125 53.078125 
z
" id="DejaVuSans-115"/>
      <path d="M 9.421875 75.984375 
L 18.40625 75.984375 
L 18.40625 0 
L 9.421875 0 
z
" id="DejaVuSans-108"/>
      <path d="M 9.421875 54.6875 
L 18.40625 54.6875 
L 18.40625 0 
L 9.421875 0 
z
M 9.421875 75.984375 
L 18.40625 75.984375 
L 18.40625 64.59375 
L 9.421875 64.59375 
z
" id="DejaVuSans-105"/>
      <path d="M 54.890625 33.015625 
L 54.890625 0 
L 45.90625 0 
L 45.90625 32.71875 
Q 45.90625 40.484375 42.875 44.328125 
Q 39.84375 48.1875 33.796875 48.1875 
Q 26.515625 48.1875 22.3125 43.546875 
Q 18.109375 38.921875 18.109375 30.90625 
L 18.109375 0 
L 9.078125 0 
L 9.078125 54.6875 
L 18.109375 54.6875 
L 18.109375 46.1875 
Q 21.34375 51.125 25.703125 53.5625 
Q 30.078125 56 35.796875 56 
Q 45.21875 56 50.046875 50.171875 
Q 54.890625 44.34375 54.890625 33.015625 
z
" id="DejaVuSans-110"/>
     </defs>
     <g transform="translate(523.05 131.62125)scale(0.1 -0.1)">
      <use xlink:href="#DejaVuSans-66"/>
      <use x="68.603516" xlink:href="#DejaVuSans-97"/>
      <use x="129.882812" xlink:href="#DejaVuSans-115"/>
      <use x="181.982422" xlink:href="#DejaVuSans-101"/>
      <use x="243.505859" xlink:href="#DejaVuSans-108"/>
      <use x="271.289062" xlink:href="#DejaVuSans-105"/>
      <use x="299.072266" xlink:href="#DejaVuSans-110"/>
      <use x="362.451172" xlink:href="#DejaVuSans-101"/>
     </g>
    </g>
    <g id="line2d_19">
     <path d="M 495.05 142.799375 
L 515.05 142.799375 
" style="fill:none;stroke:#1f77b4;stroke-linecap:square;stroke-width:1.5;"/>
    </g>
    <g id="line2d_20"/>
    <g id="text_15">
     <!-- $\Uparrow$ acesso crdito -->
     <defs>
      <path d="M 36.765625 58.59375 
L 36.765625 0 
L 30.90625 0 
L 30.90625 52.734375 
L 26.421875 48.140625 
L 20.5625 54 
L 39.703125 73.25 
L 44.09375 73.25 
L 63.328125 54 
L 57.46875 48.140625 
L 52.875 52.734375 
L 52.875 0 
L 47.015625 0 
L 47.015625 58.59375 
L 41.9375 63.671875 
z
" id="DejaVuSans-8657"/>
      <path id="DejaVuSans-32"/>
      <path d="M 41.109375 46.296875 
Q 39.59375 47.171875 37.8125 47.578125 
Q 36.03125 48 33.890625 48 
Q 26.265625 48 22.1875 43.046875 
Q 18.109375 38.09375 18.109375 28.8125 
L 18.109375 0 
L 9.078125 0 
L 9.078125 54.6875 
L 18.109375 54.6875 
L 18.109375 46.1875 
Q 20.953125 51.171875 25.484375 53.578125 
Q 30.03125 56 36.53125 56 
Q 37.453125 56 38.578125 55.875 
Q 39.703125 55.765625 41.0625 55.515625 
z
" id="DejaVuSans-114"/>
      <path d="M 56.203125 29.59375 
L 56.203125 25.203125 
L 14.890625 25.203125 
Q 15.484375 15.921875 20.484375 11.0625 
Q 25.484375 6.203125 34.421875 6.203125 
Q 39.59375 6.203125 44.453125 7.46875 
Q 49.3125 8.734375 54.109375 11.28125 
L 54.109375 2.78125 
Q 49.265625 0.734375 44.1875 -0.34375 
Q 39.109375 -1.421875 33.890625 -1.421875 
Q 20.796875 -1.421875 13.15625 6.1875 
Q 5.515625 13.8125 5.515625 26.8125 
Q 5.515625 40.234375 12.765625 48.109375 
Q 20.015625 56 32.328125 56 
Q 43.359375 56 49.78125 48.890625 
Q 56.203125 41.796875 56.203125 29.59375 
z
M 47.21875 32.234375 
Q 47.125 39.59375 43.09375 43.984375 
Q 39.0625 48.390625 32.421875 48.390625 
Q 24.90625 48.390625 20.390625 44.140625 
Q 15.875 39.890625 15.1875 32.171875 
z
M 38.53125 79.984375 
L 48.25 79.984375 
L 32.34375 61.625 
L 24.859375 61.625 
z
" id="DejaVuSans-233"/>
      <path d="M 45.40625 46.390625 
L 45.40625 75.984375 
L 54.390625 75.984375 
L 54.390625 0 
L 45.40625 0 
L 45.40625 8.203125 
Q 42.578125 3.328125 38.25 0.953125 
Q 33.9375 -1.421875 27.875 -1.421875 
Q 17.96875 -1.421875 11.734375 6.484375 
Q 5.515625 14.40625 5.515625 27.296875 
Q 5.515625 40.1875 11.734375 48.09375 
Q 17.96875 56 27.875 56 
Q 33.9375 56 38.25 53.625 
Q 42.578125 51.265625 45.40625 46.390625 
z
M 14.796875 27.296875 
Q 14.796875 17.390625 18.875 11.75 
Q 22.953125 6.109375 30.078125 6.109375 
Q 37.203125 6.109375 41.296875 11.75 
Q 45.40625 17.390625 45.40625 27.296875 
Q 45.40625 37.203125 41.296875 42.84375 
Q 37.203125 48.484375 30.078125 48.484375 
Q 22.953125 48.484375 18.875 42.84375 
Q 14.796875 37.203125 14.796875 27.296875 
z
" id="DejaVuSans-100"/>
      <path d="M 18.3125 70.21875 
L 18.3125 54.6875 
L 36.8125 54.6875 
L 36.8125 47.703125 
L 18.3125 47.703125 
L 18.3125 18.015625 
Q 18.3125 11.328125 20.140625 9.421875 
Q 21.96875 7.515625 27.59375 7.515625 
L 36.8125 7.515625 
L 36.8125 0 
L 27.59375 0 
Q 17.1875 0 13.234375 3.875 
Q 9.28125 7.765625 9.28125 18.015625 
L 9.28125 47.703125 
L 2.6875 47.703125 
L 2.6875 54.6875 
L 9.28125 54.6875 
L 9.28125 70.21875 
z
" id="DejaVuSans-116"/>
     </defs>
     <g transform="translate(523.05 146.299375)scale(0.1 -0.1)">
      <use transform="translate(19.482422 0.015625)" xlink:href="#DejaVuSans-8657"/>
      <use transform="translate(122.753906 0.015625)" xlink:href="#DejaVuSans-32"/>
      <use transform="translate(154.541016 0.015625)" xlink:href="#DejaVuSans-97"/>
      <use transform="translate(215.820312 0.015625)" xlink:href="#DejaVuSans-99"/>
      <use transform="translate(270.800781 0.015625)" xlink:href="#DejaVuSans-101"/>
      <use transform="translate(332.324219 0.015625)" xlink:href="#DejaVuSans-115"/>
      <use transform="translate(384.423828 0.015625)" xlink:href="#DejaVuSans-115"/>
      <use transform="translate(436.523438 0.015625)" xlink:href="#DejaVuSans-111"/>
      <use transform="translate(497.705078 0.015625)" xlink:href="#DejaVuSans-32"/>
      <use transform="translate(529.492188 0.015625)" xlink:href="#DejaVuSans-99"/>
      <use transform="translate(584.472656 0.015625)" xlink:href="#DejaVuSans-114"/>
      <use transform="translate(625.585938 0.015625)" xlink:href="#DejaVuSans-233"/>
      <use transform="translate(687.109375 0.015625)" xlink:href="#DejaVuSans-100"/>
      <use transform="translate(750.585938 0.015625)" xlink:href="#DejaVuSans-105"/>
      <use transform="translate(778.369141 0.015625)" xlink:href="#DejaVuSans-116"/>
      <use transform="translate(817.578125 0.015625)" xlink:href="#DejaVuSans-111"/>
     </g>
    </g>
    <g id="line2d_21">
     <path d="M 495.05 157.4775 
L 515.05 157.4775 
" style="fill:none;stroke:#ff7f0e;stroke-linecap:square;stroke-width:1.5;"/>
    </g>
    <g id="line2d_22"/>
    <g id="text_16">
     <!-- Sem renda bsica -->
     <defs>
      <path d="M 53.515625 70.515625 
L 53.515625 60.890625 
Q 47.90625 63.578125 42.921875 64.890625 
Q 37.9375 66.21875 33.296875 66.21875 
Q 25.25 66.21875 20.875 63.09375 
Q 16.5 59.96875 16.5 54.203125 
Q 16.5 49.359375 19.40625 46.890625 
Q 22.3125 44.4375 30.421875 42.921875 
L 36.375 41.703125 
Q 47.40625 39.59375 52.65625 34.296875 
Q 57.90625 29 57.90625 20.125 
Q 57.90625 9.515625 50.796875 4.046875 
Q 43.703125 -1.421875 29.984375 -1.421875 
Q 24.8125 -1.421875 18.96875 -0.25 
Q 13.140625 0.921875 6.890625 3.21875 
L 6.890625 13.375 
Q 12.890625 10.015625 18.65625 8.296875 
Q 24.421875 6.59375 29.984375 6.59375 
Q 38.421875 6.59375 43.015625 9.90625 
Q 47.609375 13.234375 47.609375 19.390625 
Q 47.609375 24.75 44.3125 27.78125 
Q 41.015625 30.8125 33.5 32.328125 
L 27.484375 33.5 
Q 16.453125 35.6875 11.515625 40.375 
Q 6.59375 45.0625 6.59375 53.421875 
Q 6.59375 63.09375 13.40625 68.65625 
Q 20.21875 74.21875 32.171875 74.21875 
Q 37.3125 74.21875 42.625 73.28125 
Q 47.953125 72.359375 53.515625 70.515625 
z
" id="DejaVuSans-83"/>
      <path d="M 48.6875 27.296875 
Q 48.6875 37.203125 44.609375 42.84375 
Q 40.53125 48.484375 33.40625 48.484375 
Q 26.265625 48.484375 22.1875 42.84375 
Q 18.109375 37.203125 18.109375 27.296875 
Q 18.109375 17.390625 22.1875 11.75 
Q 26.265625 6.109375 33.40625 6.109375 
Q 40.53125 6.109375 44.609375 11.75 
Q 48.6875 17.390625 48.6875 27.296875 
z
M 18.109375 46.390625 
Q 20.953125 51.265625 25.265625 53.625 
Q 29.59375 56 35.59375 56 
Q 45.5625 56 51.78125 48.09375 
Q 58.015625 40.1875 58.015625 27.296875 
Q 58.015625 14.40625 51.78125 6.484375 
Q 45.5625 -1.421875 35.59375 -1.421875 
Q 29.59375 -1.421875 25.265625 0.953125 
Q 20.953125 3.328125 18.109375 8.203125 
L 18.109375 0 
L 9.078125 0 
L 9.078125 75.984375 
L 18.109375 75.984375 
z
" id="DejaVuSans-98"/>
      <path d="M 34.28125 27.484375 
Q 23.390625 27.484375 19.1875 25 
Q 14.984375 22.515625 14.984375 16.5 
Q 14.984375 11.71875 18.140625 8.90625 
Q 21.296875 6.109375 26.703125 6.109375 
Q 34.1875 6.109375 38.703125 11.40625 
Q 43.21875 16.703125 43.21875 25.484375 
L 43.21875 27.484375 
z
M 52.203125 31.203125 
L 52.203125 0 
L 43.21875 0 
L 43.21875 8.296875 
Q 40.140625 3.328125 35.546875 0.953125 
Q 30.953125 -1.421875 24.3125 -1.421875 
Q 15.921875 -1.421875 10.953125 3.296875 
Q 6 8.015625 6 15.921875 
Q 6 25.140625 12.171875 29.828125 
Q 18.359375 34.515625 30.609375 34.515625 
L 43.21875 34.515625 
L 43.21875 35.40625 
Q 43.21875 41.609375 39.140625 45 
Q 35.0625 48.390625 27.6875 48.390625 
Q 23 48.390625 18.546875 47.265625 
Q 14.109375 46.140625 10.015625 43.890625 
L 10.015625 52.203125 
Q 14.9375 54.109375 19.578125 55.046875 
Q 24.21875 56 28.609375 56 
Q 40.484375 56 46.34375 49.84375 
Q 52.203125 43.703125 52.203125 31.203125 
z
M 35.78125 79.984375 
L 45.5 79.984375 
L 29.59375 61.625 
L 22.109375 61.625 
z
" id="DejaVuSans-225"/>
     </defs>
     <g transform="translate(523.05 160.9775)scale(0.1 -0.1)">
      <use xlink:href="#DejaVuSans-83"/>
      <use x="63.476562" xlink:href="#DejaVuSans-101"/>
      <use x="125" xlink:href="#DejaVuSans-109"/>
      <use x="222.412109" xlink:href="#DejaVuSans-32"/>
      <use x="254.199219" xlink:href="#DejaVuSans-114"/>
      <use x="293.0625" xlink:href="#DejaVuSans-101"/>
      <use x="354.585938" xlink:href="#DejaVuSans-110"/>
      <use x="417.964844" xlink:href="#DejaVuSans-100"/>
      <use x="481.441406" xlink:href="#DejaVuSans-97"/>
      <use x="542.720703" xlink:href="#DejaVuSans-32"/>
      <use x="574.507812" xlink:href="#DejaVuSans-98"/>
      <use x="637.984375" xlink:href="#DejaVuSans-225"/>
      <use x="699.263672" xlink:href="#DejaVuSans-115"/>
      <use x="751.363281" xlink:href="#DejaVuSans-105"/>
      <use x="779.146484" xlink:href="#DejaVuSans-99"/>
      <use x="834.126953" xlink:href="#DejaVuSans-97"/>
     </g>
    </g>
    <g id="line2d_23">
     <path d="M 495.05 172.155625 
L 515.05 172.155625 
" style="fill:none;stroke:#2ca02c;stroke-linecap:square;stroke-width:1.5;"/>
    </g>
    <g id="line2d_24"/>
    <g id="text_17">
     <!-- $\Uparrow$ salrio mnimo -->
     <defs>
      <path d="M 20.65625 79.984375 
L 30.375 79.984375 
L 14.46875 61.625 
L 6.984375 61.625 
z
M 9.421875 54.6875 
L 18.40625 54.6875 
L 18.40625 0 
L 9.421875 0 
z
M 13.921875 56 
z
" id="DejaVuSans-237"/>
     </defs>
     <g transform="translate(523.05 175.655625)scale(0.1 -0.1)">
      <use transform="translate(19.482422 0.015625)" xlink:href="#DejaVuSans-8657"/>
      <use transform="translate(122.753906 0.015625)" xlink:href="#DejaVuSans-32"/>
      <use transform="translate(154.541016 0.015625)" xlink:href="#DejaVuSans-115"/>
      <use transform="translate(206.640625 0.015625)" xlink:href="#DejaVuSans-97"/>
      <use transform="translate(267.919922 0.015625)" xlink:href="#DejaVuSans-108"/>
      <use transform="translate(295.703125 0.015625)" xlink:href="#DejaVuSans-225"/>
      <use transform="translate(356.982422 0.015625)" xlink:href="#DejaVuSans-114"/>
      <use transform="translate(398.095703 0.015625)" xlink:href="#DejaVuSans-105"/>
      <use transform="translate(425.878906 0.015625)" xlink:href="#DejaVuSans-111"/>
      <use transform="translate(487.060547 0.015625)" xlink:href="#DejaVuSans-32"/>
      <use transform="translate(518.847656 0.015625)" xlink:href="#DejaVuSans-109"/>
      <use transform="translate(616.259766 0.015625)" xlink:href="#DejaVuSans-237"/>
      <use transform="translate(644.042969 0.015625)" xlink:href="#DejaVuSans-110"/>
      <use transform="translate(707.421875 0.015625)" xlink:href="#DejaVuSans-105"/>
      <use transform="translate(735.205078 0.015625)" xlink:href="#DejaVuSans-109"/>
      <use transform="translate(832.617188 0.015625)" xlink:href="#DejaVuSans-111"/>
     </g>
    </g>
    <g id="line2d_25">
     <path d="M 495.05 186.83375 
L 515.05 186.83375 
" style="fill:none;stroke:#d62728;stroke-linecap:square;stroke-width:1.5;"/>
    </g>
    <g id="line2d_26"/>
    <g id="text_18">
     <!-- Imposto progressivo -->
     <defs>
      <path d="M 9.8125 72.90625 
L 19.671875 72.90625 
L 19.671875 0 
L 9.8125 0 
z
" id="DejaVuSans-73"/>
      <path d="M 45.40625 27.984375 
Q 45.40625 37.75 41.375 43.109375 
Q 37.359375 48.484375 30.078125 48.484375 
Q 22.859375 48.484375 18.828125 43.109375 
Q 14.796875 37.75 14.796875 27.984375 
Q 14.796875 18.265625 18.828125 12.890625 
Q 22.859375 7.515625 30.078125 7.515625 
Q 37.359375 7.515625 41.375 12.890625 
Q 45.40625 18.265625 45.40625 27.984375 
z
M 54.390625 6.78125 
Q 54.390625 -7.171875 48.1875 -13.984375 
Q 42 -20.796875 29.203125 -20.796875 
Q 24.46875 -20.796875 20.265625 -20.09375 
Q 16.0625 -19.390625 12.109375 -17.921875 
L 12.109375 -9.1875 
Q 16.0625 -11.328125 19.921875 -12.34375 
Q 23.78125 -13.375 27.78125 -13.375 
Q 36.625 -13.375 41.015625 -8.765625 
Q 45.40625 -4.15625 45.40625 5.171875 
L 45.40625 9.625 
Q 42.625 4.78125 38.28125 2.390625 
Q 33.9375 0 27.875 0 
Q 17.828125 0 11.671875 7.65625 
Q 5.515625 15.328125 5.515625 27.984375 
Q 5.515625 40.671875 11.671875 48.328125 
Q 17.828125 56 27.875 56 
Q 33.9375 56 38.28125 53.609375 
Q 42.625 51.21875 45.40625 46.390625 
L 45.40625 54.6875 
L 54.390625 54.6875 
z
" id="DejaVuSans-103"/>
      <path d="M 2.984375 54.6875 
L 12.5 54.6875 
L 29.59375 8.796875 
L 46.6875 54.6875 
L 56.203125 54.6875 
L 35.6875 0 
L 23.484375 0 
z
" id="DejaVuSans-118"/>
     </defs>
     <g transform="translate(523.05 190.33375)scale(0.1 -0.1)">
      <use xlink:href="#DejaVuSans-73"/>
      <use x="29.492188" xlink:href="#DejaVuSans-109"/>
      <use x="126.904297" xlink:href="#DejaVuSans-112"/>
      <use x="190.380859" xlink:href="#DejaVuSans-111"/>
      <use x="251.5625" xlink:href="#DejaVuSans-115"/>
      <use x="303.662109" xlink:href="#DejaVuSans-116"/>
      <use x="342.871094" xlink:href="#DejaVuSans-111"/>
      <use x="404.052734" xlink:href="#DejaVuSans-32"/>
      <use x="435.839844" xlink:href="#DejaVuSans-112"/>
      <use x="499.316406" xlink:href="#DejaVuSans-114"/>
      <use x="538.179688" xlink:href="#DejaVuSans-111"/>
      <use x="599.361328" xlink:href="#DejaVuSans-103"/>
      <use x="662.837891" xlink:href="#DejaVuSans-114"/>
      <use x="701.701172" xlink:href="#DejaVuSans-101"/>
      <use x="763.224609" xlink:href="#DejaVuSans-115"/>
      <use x="815.324219" xlink:href="#DejaVuSans-115"/>
      <use x="867.423828" xlink:href="#DejaVuSans-105"/>
      <use x="895.207031" xlink:href="#DejaVuSans-118"/>
      <use x="954.386719" xlink:href="#DejaVuSans-111"/>
     </g>
    </g>
   </g>
  </g>
 </g>
 <defs>
  <clipPath id="p6a69af1cd9">
   <rect height="271.8" width="446.4" x="39.65" y="22.318125"/>
  </clipPath>
 </defs>
</svg>
