<?xml version="1.0" encoding="utf-8" standalone="no"?>
<!DOCTYPE svg PUBLIC "-//W3C//DTD SVG 1.1//EN"
  "http://www.w3.org/Graphics/SVG/1.1/DTD/svg11.dtd">
<!-- Created with matplotlib (https://matplotlib.org/) -->
<svg height="331.674375pt" version="1.1" viewBox="0 0 634.642187 331.674375" width="634.642187pt" xmlns="http://www.w3.org/2000/svg" xmlns:xlink="http://www.w3.org/1999/xlink">
 <defs>
  <style type="text/css">
*{stroke-linecap:butt;stroke-linejoin:round;}
  </style>
 </defs>
 <g id="figure_1">
  <g id="patch_1">
   <path d="M 0 331.674375 
L 634.642187 331.674375 
L 634.642187 0 
L 0 0 
z
" style="fill:#ffffff;"/>
  </g>
  <g id="axes_1">
   <g id="patch_2">
    <path d="M 38.482813 294.118125 
L 484.882812 294.118125 
L 484.882812 22.318125 
L 38.482813 22.318125 
z
" style="fill:#ffffff;"/>
   </g>
   <g id="line2d_1">
    <path clip-path="url(#p27e8b1a449)" d="M 58.773722 146.326682 
L 59.499693 216.122708 
L 60.225665 180.394352 
L 60.951637 127.099443 
L 61.677608 133.652129 
L 62.40358 128.512997 
L 63.129552 137.487904 
L 63.855524 170.208833 
L 64.581495 69.249954 
L 65.307467 220.599688 
L 66.033439 158.842623 
L 66.75941 123.193737 
L 67.485382 130.04074 
L 68.211354 135.025088 
L 68.937325 216.511776 
L 69.663297 84.615912 
L 70.389269 196.427615 
L 71.115241 168.715046 
L 71.841212 119.298024 
L 72.567184 201.992401 
L 73.293156 142.879813 
L 74.019127 118.809213 
L 74.745099 185.429105 
L 75.471071 182.49319 
L 76.197042 100.728178 
L 76.923014 187.516148 
L 77.648986 162.745342 
L 78.374958 203.863215 
L 79.100929 155.558421 
L 79.826901 210.382369 
L 80.552873 186.95022 
L 81.278844 120.378155 
L 82.004816 180.943519 
L 82.730788 163.649386 
L 83.456759 197.505303 
L 84.182731 172.847979 
L 84.908703 169.69323 
L 85.634675 162.998404 
L 86.360646 185.417701 
L 87.086618 146.438827 
L 88.538561 209.474157 
L 89.264533 105.548084 
L 89.990505 160.863597 
L 90.716477 63.499863 
L 91.442448 213.881694 
L 92.16842 160.319794 
L 92.894392 178.429209 
L 93.620363 166.556204 
L 94.346335 174.758781 
L 95.072307 180.245118 
L 95.798278 174.597999 
L 96.52425 176.233909 
L 97.250222 166.878134 
L 97.976194 150.448397 
L 98.702165 118.942823 
L 99.428137 205.153265 
L 100.154109 202.295104 
L 101.606052 173.710493 
L 102.332024 85.330326 
L 103.057995 227.484917 
L 103.783967 88.176211 
L 104.509939 150.146417 
L 105.235911 182.484567 
L 106.687854 171.706894 
L 107.413826 159.116556 
L 108.139797 157.296474 
L 108.865769 119.649164 
L 109.591741 227.51941 
L 110.317712 130.726677 
L 111.043684 138.302908 
L 111.769656 131.160021 
L 112.495628 152.15554 
L 113.221599 116.521517 
L 113.947571 172.183987 
L 114.673543 168.439426 
L 115.399514 137.326325 
L 116.125486 48.412228 
L 116.851458 223.312112 
L 117.57743 153.90351 
L 118.303401 154.96723 
L 119.029373 49.177326 
L 119.755345 236.208352 
L 120.481316 184.397269 
L 121.207288 212.280571 
L 121.93326 160.508992 
L 122.659231 172.313134 
L 123.385203 175.389127 
L 124.111175 153.867129 
L 124.837147 189.459615 
L 125.563118 171.338982 
L 126.28909 172.163834 
L 127.015062 182.089563 
L 127.741033 171.737936 
L 128.467005 153.498772 
L 129.192977 105.94354 
L 129.918948 208.961794 
L 130.64492 133.839483 
L 131.370892 136.264198 
L 132.096864 202.302718 
L 132.822835 150.526382 
L 133.548807 168.525553 
L 134.274779 182.72716 
L 135.00075 168.69742 
L 135.726722 175.121744 
L 136.452694 161.259266 
L 137.178665 135.981394 
L 137.904637 172.876836 
L 138.630609 166.569334 
L 139.356581 221.535987 
L 140.082552 200.258661 
L 140.808524 89.43695 
L 141.534496 125.925923 
L 142.260467 102.201053 
L 142.986439 63.801776 
L 143.712411 98.944669 
L 144.438383 166.628007 
L 145.164354 199.00709 
L 145.890326 161.595857 
L 147.342269 108.164941 
L 148.068241 115.821766 
L 148.794213 155.880287 
L 149.520184 138.851746 
L 150.246156 155.376524 
L 150.972128 235.522821 
L 151.6981 174.443014 
L 152.424071 149.547191 
L 153.150043 162.155598 
L 153.876015 147.99094 
L 154.601986 176.277205 
L 155.327958 110.407853 
L 156.05393 180.737455 
L 156.779901 162.19974 
L 157.505873 111.868379 
L 158.231845 98.254931 
L 158.957817 161.774318 
L 159.683788 119.569726 
L 160.40976 34.67267 
L 161.135732 141.144627 
L 161.861703 50.079226 
L 162.587675 145.465581 
L 163.313647 200.350182 
L 164.039618 150.52414 
L 164.76559 158.247321 
L 165.491562 141.507846 
L 166.217534 52.465372 
L 166.943505 41.76758 
L 167.669477 49.868506 
L 168.395449 76.370539 
L 169.12142 97.257732 
L 169.847392 202.586888 
L 170.573364 115.790323 
L 171.299336 181.604425 
L 172.025307 74.251721 
L 172.751279 113.024294 
L 173.477251 74.987963 
L 174.203222 128.918058 
L 174.929194 103.646298 
L 175.655166 105.144155 
L 176.381137 148.824168 
L 177.107109 39.188568 
L 177.833081 74.904248 
L 178.559053 94.761553 
L 179.285024 62.610671 
L 180.010996 147.392235 
L 180.736968 188.755091 
L 181.462939 149.360169 
L 182.188911 128.005495 
L 182.914883 146.152964 
L 183.640854 174.926341 
L 185.092798 88.940479 
L 185.81877 119.238973 
L 186.544741 140.702309 
L 187.270713 141.146955 
L 187.996685 115.045058 
L 188.722656 130.749347 
L 189.448628 205.965547 
L 190.1746 125.058989 
L 190.900571 204.818899 
L 192.352515 125.526117 
L 193.078487 184.226691 
L 193.804458 200.709898 
L 194.53043 177.089924 
L 195.256402 174.291625 
L 195.982373 102.852267 
L 196.708345 168.867643 
L 197.434317 224.553658 
L 198.160289 204.355242 
L 198.88626 175.589391 
L 199.612232 115.348316 
L 200.338204 224.206362 
L 201.064175 172.591522 
L 201.790147 215.348211 
L 202.516119 185.922614 
L 203.24209 148.188886 
L 203.968062 220.759611 
L 204.694034 213.355998 
L 205.420006 149.764321 
L 206.145977 228.286461 
L 206.871949 203.347254 
L 207.597921 168.945592 
L 209.049864 133.195568 
L 209.775836 209.619179 
L 210.501807 158.51724 
L 211.227779 172.025074 
L 211.953751 182.697046 
L 212.679723 209.026197 
L 213.405694 203.217942 
L 214.131666 147.575034 
L 214.857638 122.934807 
L 215.583609 154.885945 
L 216.309581 172.687397 
L 217.035553 110.904309 
L 217.761524 151.035922 
L 218.487496 156.770484 
L 219.213468 117.832155 
L 219.93944 166.480649 
L 220.665411 116.789789 
L 221.391383 158.187466 
L 222.117355 166.903149 
L 222.843326 163.05018 
L 223.569298 154.29054 
L 224.29527 138.314288 
L 225.021242 162.863078 
L 225.747213 166.891207 
L 226.473185 159.02065 
L 227.199157 153.677129 
L 227.925128 165.988745 
L 228.6511 163.041098 
L 229.377072 115.44812 
L 230.103043 147.218282 
L 230.829015 222.831005 
L 231.554987 86.987624 
L 232.280959 147.498352 
L 233.00693 156.383959 
L 233.732902 171.183819 
L 234.458874 142.747886 
L 235.184845 193.091829 
L 235.910817 142.249577 
L 236.636789 118.29954 
L 237.36276 187.168128 
L 238.088732 178.494772 
L 238.814704 167.865417 
L 239.540676 164.974974 
L 240.266647 187.462985 
L 240.992619 150.462043 
L 241.718591 167.061629 
L 242.444562 108.982462 
L 243.170534 193.861961 
L 243.896506 139.450723 
L 244.622477 197.339868 
L 245.348449 128.489482 
L 246.074421 120.221195 
L 246.800393 196.766407 
L 247.526364 118.119279 
L 248.252336 179.111471 
L 248.978308 205.982611 
L 249.704279 163.871551 
L 250.430251 191.23314 
L 251.156223 195.11287 
L 251.882195 135.381293 
L 252.608166 172.349268 
L 253.334138 133.711805 
L 254.06011 151.560385 
L 254.786081 210.637229 
L 255.512053 186.270974 
L 256.238025 171.82699 
L 256.963996 126.65831 
L 257.689968 217.250537 
L 258.41594 168.912539 
L 259.141912 184.413126 
L 259.867883 195.730131 
L 260.593855 181.926709 
L 261.319827 202.414874 
L 262.77177 142.481616 
L 263.497742 190.721905 
L 264.223713 162.558533 
L 264.949685 180.011084 
L 265.675657 153.10605 
L 266.401629 211.832902 
L 267.1276 171.98696 
L 267.853572 172.783545 
L 268.579544 207.977499 
L 269.305515 116.857834 
L 270.031487 184.875752 
L 270.757459 170.578511 
L 271.48343 135.708318 
L 272.209402 169.803688 
L 272.935374 165.320164 
L 273.661346 194.85413 
L 275.113289 141.005773 
L 275.839261 188.038585 
L 276.565232 158.874963 
L 277.291204 178.586694 
L 278.017176 169.005749 
L 278.743148 174.918179 
L 279.469119 80.555168 
L 280.195091 148.757323 
L 280.921063 185.588409 
L 281.647034 104.533875 
L 282.373006 208.785108 
L 283.098978 124.035581 
L 283.824949 155.717007 
L 284.550921 197.461792 
L 285.276893 127.753862 
L 286.002865 189.214831 
L 286.728836 180.496681 
L 287.454808 174.639258 
L 288.18078 137.619267 
L 288.906751 162.660147 
L 289.632723 99.279873 
L 290.358695 156.667208 
L 291.084666 98.86333 
L 291.810638 133.187763 
L 292.53661 146.115386 
L 293.262582 164.67502 
L 293.988553 137.851365 
L 294.714525 162.757659 
L 295.440497 95.17768 
L 296.166468 153.185751 
L 296.89244 92.800373 
L 297.618412 127.613263 
L 298.344383 76.885424 
L 299.070355 118.329184 
L 299.796327 93.245107 
L 300.522299 209.643917 
L 301.24827 75.813358 
L 301.974242 129.344003 
L 302.700214 89.452367 
L 303.426185 117.809222 
L 304.152157 47.19625 
L 304.878129 132.784509 
L 305.604101 167.810486 
L 306.330072 130.142701 
L 307.056044 180.718624 
L 307.782016 153.387324 
L 308.507987 168.26899 
L 309.233959 149.949594 
L 309.959931 164.759674 
L 310.685902 158.322989 
L 311.411874 152.92279 
L 312.137846 113.045247 
L 312.863818 140.983934 
L 313.589789 110.907747 
L 314.315761 102.054223 
L 315.041733 148.672837 
L 315.767704 143.193229 
L 316.493676 153.654873 
L 317.219648 167.391984 
L 317.945619 144.091977 
L 318.671591 144.639542 
L 319.397563 112.499876 
L 320.123535 147.415111 
L 320.849506 108.719271 
L 321.575478 208.331829 
L 322.30145 172.787952 
L 323.027421 164.150213 
L 323.753393 160.80263 
L 324.479365 151.18373 
L 325.931308 201.527673 
L 326.65728 163.29603 
L 327.383252 137.140862 
L 328.109223 184.930786 
L 328.835195 129.45297 
L 329.561167 212.146203 
L 330.287138 142.051588 
L 331.01311 171.754952 
L 331.739082 192.503601 
L 332.465054 164.411884 
L 333.191025 150.174696 
L 333.916997 203.878507 
L 335.36894 156.998891 
L 336.094912 181.302984 
L 336.820884 177.358979 
L 337.546855 181.703237 
L 338.272827 185.111634 
L 338.998799 183.664262 
L 339.724771 152.270897 
L 340.450742 189.997615 
L 341.176714 198.316507 
L 341.902686 183.611762 
L 342.628657 190.373739 
L 343.354629 172.742483 
L 344.080601 159.237359 
L 344.806572 187.43928 
L 345.532544 204.468384 
L 346.258516 156.91694 
L 346.984488 217.604738 
L 347.710459 188.680287 
L 348.436431 210.569106 
L 349.162403 178.613759 
L 349.888374 205.628502 
L 350.614346 193.908138 
L 351.340318 200.296395 
L 352.066289 204.770534 
L 352.792261 185.376777 
L 353.518233 174.46143 
L 354.970176 213.056681 
L 355.696148 174.49382 
L 356.42212 191.104637 
L 357.148091 198.251748 
L 357.874063 192.239761 
L 358.600035 193.415614 
L 359.326007 176.857708 
L 360.051978 170.594279 
L 360.77795 192.307322 
L 361.503922 209.725725 
L 362.229893 188.675997 
L 362.955865 161.136099 
L 363.681837 194.067363 
L 364.407808 191.130951 
L 365.13378 191.547409 
L 365.859752 189.663285 
L 366.585724 194.715828 
L 367.311695 196.235199 
L 368.037667 184.133705 
L 368.763639 217.680998 
L 369.48961 191.6731 
L 370.215582 220.017203 
L 370.941554 192.249856 
L 371.667525 202.554261 
L 372.393497 193.74356 
L 373.119469 204.174931 
L 373.845441 199.793276 
L 374.571412 190.521507 
L 375.297384 218.701868 
L 376.023356 182.803774 
L 376.749327 184.652932 
L 377.475299 195.866689 
L 378.201271 210.12774 
L 378.927242 199.947809 
L 379.653214 193.069466 
L 380.379186 177.218228 
L 381.105158 194.672996 
L 381.831129 198.140777 
L 382.557101 189.730764 
L 383.283073 168.791291 
L 384.009044 188.214008 
L 384.735016 171.799195 
L 385.460988 198.158445 
L 386.18696 208.216176 
L 386.912931 166.529579 
L 387.638903 190.113801 
L 388.364875 173.607524 
L 389.090846 192.903511 
L 389.816818 189.127293 
L 390.54279 200.590393 
L 391.268761 175.52029 
L 391.994733 175.45382 
L 392.720705 177.410535 
L 393.446677 164.966345 
L 394.172648 181.640939 
L 394.89862 180.917392 
L 395.624592 182.505041 
L 396.350563 186.228474 
L 397.076535 159.568075 
L 397.802507 166.023922 
L 398.528478 164.881158 
L 399.25445 167.495766 
L 399.980422 164.155704 
L 400.706394 157.634148 
L 401.432365 157.121355 
L 402.158337 171.408011 
L 402.884309 155.093398 
L 403.61028 168.244116 
L 404.336252 154.869235 
L 405.062224 164.843565 
L 405.788195 148.401681 
L 406.514167 167.966736 
L 407.240139 165.284034 
L 407.966111 169.646525 
L 408.692082 173.087373 
L 409.418054 156.881728 
L 410.144026 185.188887 
L 410.869997 152.220129 
L 411.595969 158.423043 
L 412.321941 188.939194 
L 413.047913 153.848413 
L 413.773884 161.557404 
L 414.499856 159.006318 
L 415.225828 157.962083 
L 415.951799 147.492753 
L 416.677771 185.309288 
L 417.403743 155.496093 
L 418.129714 164.719505 
L 418.855686 178.328599 
L 419.581658 159.465626 
L 420.30763 164.208477 
L 421.033601 155.06297 
L 421.759573 183.902242 
L 422.485545 175.950331 
L 423.211516 181.476012 
L 423.937488 179.534308 
L 424.66346 183.14899 
L 425.389431 185.051465 
L 426.115403 184.034216 
L 426.841375 184.326725 
L 427.567347 184.966716 
L 428.293318 191.262889 
L 429.01929 187.812379 
L 429.745262 191.144174 
L 430.471233 187.501107 
L 431.197205 191.993101 
L 431.923177 193.02751 
L 432.649148 190.31173 
L 433.37512 189.318046 
L 434.101092 197.836373 
L 434.827064 195.004487 
L 435.553035 185.797041 
L 436.279007 194.374394 
L 437.004979 188.265545 
L 437.73095 195.136754 
L 438.456922 189.623026 
L 439.182894 196.007589 
L 439.908866 205.426318 
L 440.634837 194.382846 
L 441.360809 199.999441 
L 442.086781 194.114773 
L 442.812752 198.743213 
L 443.538724 193.573382 
L 444.264696 198.981185 
L 444.990667 190.032688 
L 445.716639 197.22327 
L 446.442611 191.477107 
L 447.168583 191.735309 
L 447.894554 196.231964 
L 448.620526 197.679019 
L 449.346498 198.659732 
L 450.072469 203.60615 
L 450.798441 199.789113 
L 451.524413 202.548215 
L 452.250384 200.60303 
L 452.976356 199.706866 
L 453.702328 199.396323 
L 454.4283 204.476399 
L 455.154271 195.794759 
L 455.880243 200.213219 
L 456.606215 201.402486 
L 457.332186 201.034974 
L 458.058158 202.671366 
L 458.78413 206.283528 
L 459.510101 201.908005 
L 460.236073 203.847749 
L 460.962045 199.822037 
L 461.688017 206.550216 
L 462.413988 207.57504 
L 463.13996 204.339891 
L 463.865932 205.070519 
L 464.591903 204.448725 
L 464.591903 204.448725 
" style="fill:none;stroke:#1f77b4;stroke-linecap:square;stroke-width:1.5;"/>
   </g>
   <g id="line2d_2">
    <path clip-path="url(#p27e8b1a449)" d="M 58.773722 234.75909 
L 59.499693 281.76358 
L 60.225665 254.027525 
L 60.951637 205.926649 
L 61.677608 261.584551 
L 62.40358 235.701216 
L 63.129552 256.727439 
L 63.855524 173.735665 
L 64.581495 245.995542 
L 65.307467 273.185969 
L 66.033439 243.11432 
L 66.75941 248.426606 
L 67.485382 254.581058 
L 68.211354 248.955996 
L 68.937325 220.010977 
L 69.663297 220.458113 
L 71.115241 279.033916 
L 71.841212 240.137739 
L 72.567184 278.015091 
L 73.293156 196.330165 
L 74.019127 253.402287 
L 74.745099 220.732912 
L 75.471071 245.37962 
L 76.197042 245.005379 
L 76.923014 234.619266 
L 77.648986 262.897067 
L 78.374958 260.114645 
L 79.100929 250.041171 
L 79.826901 266.855569 
L 80.552873 259.33943 
L 81.278844 248.713058 
L 82.004816 257.340442 
L 82.730788 263.089973 
L 83.456759 266.361794 
L 84.182731 272.378051 
L 84.908703 263.161425 
L 85.634675 258.847136 
L 86.360646 261.909146 
L 87.086618 259.816144 
L 87.81259 263.78624 
L 88.538561 281.664132 
L 89.264533 224.463133 
L 89.990505 258.241821 
L 90.716477 250.177597 
L 91.442448 268.00504 
L 92.16842 212.764214 
L 92.894392 267.114473 
L 93.620363 222.21624 
L 94.346335 251.226626 
L 95.072307 237.682563 
L 95.798278 241.830616 
L 96.52425 247.15808 
L 97.250222 215.012939 
L 97.976194 234.711302 
L 98.702165 224.74186 
L 99.428137 275.426858 
L 100.154109 191.76242 
L 100.88008 255.36832 
L 101.606052 242.717803 
L 102.332024 241.410804 
L 103.057995 266.796742 
L 103.783967 240.820143 
L 104.509939 236.239997 
L 105.235911 265.326466 
L 105.961882 261.170475 
L 106.687854 242.935915 
L 107.413826 179.023238 
L 108.139797 212.473407 
L 108.865769 232.295991 
L 109.591741 260.710852 
L 110.317712 264.302319 
L 111.043684 258.117735 
L 111.769656 250.623329 
L 112.495628 240.874833 
L 113.221599 234.416437 
L 113.947571 237.952803 
L 114.673543 257.530138 
L 115.399514 227.228831 
L 116.125486 246.039642 
L 116.851458 272.363407 
L 117.57743 169.238144 
L 118.303401 202.494322 
L 119.029373 207.764145 
L 119.755345 275.034993 
L 120.481316 263.468522 
L 121.207288 264.906959 
L 121.93326 245.177098 
L 122.659231 246.718111 
L 123.385203 232.928649 
L 124.111175 252.947533 
L 124.837147 257.206274 
L 125.563118 265.624422 
L 126.28909 252.941009 
L 127.015062 258.018486 
L 127.741033 209.80114 
L 128.467005 236.704536 
L 129.192977 247.325835 
L 129.918948 262.206976 
L 130.64492 114.795979 
L 131.370892 243.821229 
L 132.096864 258.469566 
L 132.822835 236.285389 
L 133.548807 271.169859 
L 134.274779 244.044281 
L 135.00075 249.098975 
L 135.726722 230.540181 
L 136.452694 207.104753 
L 137.178665 240.416518 
L 137.904637 235.602492 
L 138.630609 235.970474 
L 139.356581 275.010445 
L 140.082552 256.148937 
L 140.808524 253.353475 
L 141.534496 252.672485 
L 142.260467 141.206136 
L 142.986439 224.02511 
L 143.712411 137.629551 
L 144.438383 231.467166 
L 145.164354 254.77164 
L 145.890326 232.9188 
L 146.616298 233.464018 
L 147.342269 197.291585 
L 148.068241 192.096448 
L 148.794213 237.424708 
L 149.520184 226.49325 
L 150.246156 222.186882 
L 150.972128 265.430286 
L 151.6981 231.590656 
L 152.424071 237.614411 
L 153.150043 238.987669 
L 153.876015 224.534452 
L 154.601986 171.12933 
L 155.327958 218.617423 
L 156.05393 192.745778 
L 156.779901 219.587899 
L 157.505873 225.942598 
L 158.231845 217.115006 
L 158.957817 165.56795 
L 159.683788 169.038468 
L 160.40976 204.702374 
L 161.135732 232.782279 
L 161.861703 211.181932 
L 162.587675 211.814946 
L 163.313647 254.939511 
L 164.039618 226.213337 
L 164.76559 210.756547 
L 165.491562 157.555559 
L 166.217534 228.605271 
L 166.943505 210.639217 
L 167.669477 210.550149 
L 168.395449 221.883315 
L 169.12142 205.769701 
L 169.847392 232.095517 
L 170.573364 171.471674 
L 171.299336 240.301918 
L 172.025307 177.459479 
L 173.477251 218.839088 
L 174.203222 221.928919 
L 175.655166 199.896894 
L 176.381137 195.712477 
L 177.107109 213.437546 
L 177.833081 210.000423 
L 178.559053 212.233633 
L 179.285024 207.773676 
L 180.010996 234.831598 
L 180.736968 254.131634 
L 181.462939 201.297027 
L 182.188911 199.028105 
L 182.914883 225.035831 
L 183.640854 244.665086 
L 184.366826 227.140631 
L 185.092798 162.755904 
L 185.81877 230.735341 
L 186.544741 220.638014 
L 187.270713 216.292505 
L 187.996685 217.850123 
L 188.722656 234.617286 
L 189.448628 259.0858 
L 190.1746 235.032474 
L 190.900571 266.195272 
L 191.626543 200.448221 
L 192.352515 217.308025 
L 193.078487 221.393967 
L 193.804458 249.435566 
L 194.53043 227.275868 
L 195.256402 230.894697 
L 195.982373 232.488096 
L 196.708345 216.166886 
L 197.434317 261.289134 
L 198.160289 261.277667 
L 198.88626 239.281119 
L 199.612232 233.036122 
L 200.338204 269.422198 
L 201.064175 260.400807 
L 201.790147 270.610113 
L 202.516119 258.134943 
L 203.24209 263.006443 
L 203.968062 263.239836 
L 204.694034 226.169011 
L 205.420006 259.847012 
L 206.145977 224.488637 
L 206.871949 254.587317 
L 207.597921 254.411701 
L 208.323892 235.053559 
L 209.049864 249.546207 
L 209.775836 257.293843 
L 210.501807 244.182165 
L 211.227779 164.093694 
L 211.953751 254.268508 
L 212.679723 251.513376 
L 213.405694 219.254707 
L 214.131666 200.49118 
L 214.857638 226.229517 
L 215.583609 238.125029 
L 216.309581 189.45305 
L 217.035553 236.307746 
L 217.761524 239.770765 
L 218.487496 252.805349 
L 219.213468 228.350354 
L 219.93944 227.995127 
L 220.665411 246.799664 
L 221.391383 239.431299 
L 222.117355 243.192036 
L 222.843326 255.726528 
L 223.569298 168.87856 
L 224.29527 239.350586 
L 225.021242 249.272098 
L 225.747213 247.419665 
L 226.473185 238.653771 
L 227.199157 255.764425 
L 227.925128 252.202136 
L 229.377072 234.27132 
L 230.103043 244.869485 
L 230.829015 259.992918 
L 231.554987 245.225204 
L 232.280959 254.952482 
L 233.00693 239.694619 
L 233.732902 193.85243 
L 234.458874 195.750495 
L 235.184845 236.972687 
L 235.910817 168.458613 
L 236.636789 235.464106 
L 237.36276 234.209008 
L 238.088732 237.441982 
L 238.814704 248.104224 
L 239.540676 214.910413 
L 240.266647 244.459708 
L 240.992619 233.839976 
L 241.718591 247.927543 
L 242.444562 231.018962 
L 243.170534 198.294353 
L 243.896506 202.45307 
L 244.622477 245.608456 
L 245.348449 231.681923 
L 246.074421 224.706776 
L 246.800393 234.518335 
L 247.526364 209.159254 
L 248.978308 255.427044 
L 249.704279 234.66424 
L 250.430251 233.650483 
L 251.156223 224.838206 
L 251.882195 232.12304 
L 252.608166 232.034964 
L 253.334138 231.096115 
L 254.06011 227.729254 
L 254.786081 242.821088 
L 255.512053 251.919549 
L 256.238025 235.820411 
L 256.963996 246.583302 
L 257.689968 261.839185 
L 258.41594 234.069842 
L 259.141912 235.388339 
L 259.867883 255.208385 
L 260.593855 244.550017 
L 261.319827 251.11 
L 262.045798 221.484286 
L 262.77177 235.014643 
L 263.497742 230.506767 
L 264.223713 232.163758 
L 264.949685 245.151534 
L 265.675657 236.660039 
L 266.401629 232.459363 
L 267.1276 238.213083 
L 267.853572 240.333665 
L 268.579544 246.122633 
L 269.305515 192.632266 
L 270.757459 231.858983 
L 271.48343 234.020109 
L 272.209402 239.586959 
L 272.935374 253.398141 
L 273.661346 195.636542 
L 274.387317 241.504255 
L 275.113289 222.691534 
L 275.839261 239.980296 
L 276.565232 236.305678 
L 277.291204 233.961028 
L 278.017176 238.275294 
L 278.743148 243.448632 
L 279.469119 233.554203 
L 280.195091 236.905647 
L 280.921063 259.097742 
L 281.647034 231.468314 
L 282.373006 257.98508 
L 283.098978 239.592301 
L 283.824949 240.485528 
L 284.550921 212.740111 
L 285.276893 211.917296 
L 286.002865 233.778983 
L 286.728836 239.176575 
L 287.454808 224.615375 
L 288.18078 214.174276 
L 288.906751 232.712274 
L 289.632723 227.571057 
L 290.358695 226.349851 
L 291.084666 220.74013 
L 291.810638 232.60987 
L 292.53661 186.703764 
L 293.262582 235.123294 
L 293.988553 224.562796 
L 294.714525 235.196067 
L 295.440497 216.636493 
L 296.166468 219.391284 
L 296.89244 215.064947 
L 297.618412 219.603087 
L 298.344383 209.437172 
L 299.070355 223.594984 
L 299.796327 226.652581 
L 300.522299 265.836483 
L 301.24827 235.456779 
L 301.974242 232.507745 
L 302.700214 238.505993 
L 303.426185 169.924666 
L 304.152157 228.953172 
L 304.878129 194.660454 
L 305.604101 234.417931 
L 306.330072 205.642994 
L 307.056044 239.68229 
L 307.782016 239.418981 
L 308.507987 220.60992 
L 309.233959 230.954689 
L 309.959931 230.281762 
L 310.685902 227.149607 
L 311.411874 229.117406 
L 312.137846 236.5424 
L 312.863818 228.129391 
L 313.589789 230.432596 
L 314.315761 181.213182 
L 315.041733 234.523313 
L 315.767704 226.145865 
L 316.493676 223.544404 
L 317.219648 257.087361 
L 318.671591 190.179971 
L 319.397563 205.334696 
L 320.123535 228.203386 
L 320.849506 214.175152 
L 321.575478 255.88564 
L 322.30145 247.817065 
L 323.027421 201.378361 
L 323.753393 233.913066 
L 324.479365 235.271606 
L 325.205336 252.382544 
L 325.931308 247.70694 
L 326.65728 247.913451 
L 327.383252 207.074092 
L 328.109223 251.260487 
L 328.835195 235.188978 
L 329.561167 258.654677 
L 330.287138 230.710124 
L 331.01311 214.091632 
L 331.739082 233.989226 
L 332.465054 205.073867 
L 333.191025 237.061972 
L 333.916997 253.927801 
L 334.642969 250.24317 
L 335.36894 242.140622 
L 336.094912 227.743135 
L 336.820884 254.829508 
L 337.546855 219.452489 
L 338.272827 251.821464 
L 338.998799 241.491787 
L 340.450742 250.241592 
L 341.176714 255.436443 
L 341.902686 244.735269 
L 342.628657 218.941628 
L 343.354629 259.499386 
L 344.080601 223.70187 
L 344.806572 226.057554 
L 345.532544 237.723445 
L 346.258516 238.781354 
L 346.984488 226.954373 
L 347.710459 235.231858 
L 348.436431 232.903787 
L 349.162403 232.822146 
L 349.888374 232.898663 
L 350.614346 233.229784 
L 351.340318 239.719309 
L 352.066289 239.740464 
L 352.792261 227.686863 
L 353.518233 239.339658 
L 354.244205 239.206615 
L 354.970176 237.364724 
L 355.696148 225.909282 
L 356.42212 233.112051 
L 357.148091 228.571692 
L 357.874063 231.45703 
L 358.600035 232.925012 
L 359.326007 235.609769 
L 360.051978 212.180424 
L 360.77795 210.901467 
L 361.503922 246.315218 
L 362.229893 226.118162 
L 362.955865 230.907512 
L 363.681837 223.524041 
L 364.407808 233.020001 
L 365.13378 224.057197 
L 366.585724 232.153792 
L 367.311695 232.526838 
L 368.037667 231.444529 
L 368.763639 228.094363 
L 369.48961 228.187444 
L 370.215582 224.60102 
L 370.941554 228.861101 
L 371.667525 228.841767 
L 372.393497 226.933224 
L 373.119469 228.469399 
L 373.845441 225.079228 
L 374.571412 228.179537 
L 375.297384 240.852522 
L 376.023356 223.087225 
L 376.749327 216.954837 
L 378.201271 241.811152 
L 378.927242 225.564509 
L 379.653214 218.748618 
L 380.379186 215.881731 
L 381.105158 226.603791 
L 381.831129 223.11719 
L 382.557101 218.251633 
L 383.283073 214.982581 
L 384.009044 231.859611 
L 384.735016 226.534731 
L 385.460988 213.729242 
L 386.18696 224.559878 
L 386.912931 215.143993 
L 387.638903 221.855289 
L 388.364875 214.728949 
L 389.090846 221.502852 
L 389.816818 222.96975 
L 390.54279 229.194608 
L 391.268761 222.288447 
L 391.994733 223.82287 
L 392.720705 226.837157 
L 393.446677 224.152307 
L 394.172648 210.762146 
L 394.89862 230.605375 
L 395.624592 230.456055 
L 396.350563 227.40884 
L 397.076535 223.648121 
L 397.802507 229.028855 
L 398.528478 211.891412 
L 399.25445 215.120594 
L 399.980422 215.286534 
L 400.706394 219.717889 
L 401.432365 218.065992 
L 402.158337 233.079886 
L 402.884309 222.249055 
L 403.61028 209.295008 
L 404.336252 211.910329 
L 405.062224 208.743442 
L 405.788195 216.399603 
L 406.514167 207.73637 
L 407.240139 206.683046 
L 408.692082 230.167733 
L 409.418054 207.286321 
L 410.144026 233.077627 
L 410.869997 220.029254 
L 411.595969 221.600231 
L 412.321941 220.541937 
L 413.047913 221.365151 
L 413.773884 219.862362 
L 414.499856 225.793339 
L 415.225828 208.667229 
L 415.951799 207.520178 
L 416.677771 229.396837 
L 417.403743 208.583783 
L 418.129714 219.599279 
L 418.855686 224.440144 
L 419.581658 211.768016 
L 420.30763 222.361881 
L 421.033601 217.149271 
L 421.759573 232.907229 
L 422.485545 223.124614 
L 423.211516 232.421589 
L 423.937488 225.295716 
L 424.66346 225.513671 
L 425.389431 226.787723 
L 426.115403 224.47372 
L 426.841375 226.128746 
L 427.567347 226.230286 
L 428.293318 226.607739 
L 429.01929 227.231195 
L 429.745262 228.74363 
L 430.471233 226.027111 
L 431.197205 228.604495 
L 431.923177 229.451695 
L 432.649148 229.817724 
L 433.37512 230.815535 
L 434.101092 236.608711 
L 434.827064 229.927625 
L 435.553035 225.847323 
L 436.279007 229.910028 
L 437.004979 224.891249 
L 437.73095 227.814895 
L 438.456922 223.532933 
L 439.182894 227.606422 
L 439.908866 230.397672 
L 440.634837 226.313916 
L 441.360809 228.441279 
L 442.086781 228.571418 
L 442.812752 227.890626 
L 443.538724 229.78275 
L 444.264696 227.766521 
L 444.990667 228.265281 
L 446.442611 228.679521 
L 447.168583 229.193695 
L 447.894554 228.152758 
L 448.620526 232.428791 
L 449.346498 229.560714 
L 450.072469 228.258669 
L 450.798441 229.413141 
L 451.524413 231.956505 
L 452.976356 229.371142 
L 453.702328 231.152651 
L 454.4283 230.873515 
L 455.154271 229.985688 
L 455.880243 232.911685 
L 456.606215 229.930994 
L 457.332186 231.360207 
L 458.058158 231.409958 
L 458.78413 230.264549 
L 459.510101 230.561997 
L 460.236073 230.564952 
L 460.962045 230.685185 
L 461.688017 231.091236 
L 462.413988 230.286515 
L 463.13996 229.809516 
L 463.865932 229.562272 
L 464.591903 229.530543 
L 464.591903 229.530543 
" style="fill:none;stroke:#ff7f0e;stroke-linecap:square;stroke-width:1.5;"/>
   </g>
   <g id="line2d_3">
    <path clip-path="url(#p27e8b1a449)" d="M 58.773722 157.830226 
L 59.499693 205.084524 
L 60.225665 190.062076 
L 60.951637 198.86464 
L 61.677608 195.700263 
L 62.40358 161.531284 
L 63.129552 178.351934 
L 63.855524 165.620339 
L 64.581495 174.065673 
L 65.307467 241.360981 
L 66.033439 174.582678 
L 66.75941 205.376334 
L 67.485382 202.421402 
L 68.211354 116.446945 
L 68.937325 247.677325 
L 69.663297 179.402832 
L 70.389269 216.172389 
L 71.115241 209.581056 
L 71.841212 193.214933 
L 72.567184 217.843055 
L 73.293156 200.631775 
L 74.019127 200.185824 
L 74.745099 210.237205 
L 75.471071 213.839576 
L 76.197042 202.783842 
L 76.923014 215.195687 
L 77.648986 216.585684 
L 78.374958 236.328202 
L 79.100929 211.022022 
L 79.826901 245.736971 
L 80.552873 238.055015 
L 81.278844 202.647709 
L 82.004816 226.70426 
L 82.730788 216.965802 
L 83.456759 248.478116 
L 84.182731 243.870429 
L 84.908703 225.421874 
L 85.634675 212.494245 
L 86.360646 205.662726 
L 87.086618 226.863574 
L 87.81259 163.54744 
L 88.538561 254.718017 
L 89.264533 158.130779 
L 89.990505 208.469338 
L 90.716477 209.707037 
L 91.442448 230.874752 
L 92.16842 172.777173 
L 92.894392 230.670954 
L 93.620363 172.22819 
L 94.346335 210.121291 
L 95.072307 177.806248 
L 95.798278 191.541981 
L 96.52425 197.485265 
L 97.250222 166.248528 
L 97.976194 166.649651 
L 98.702165 170.314286 
L 99.428137 236.436385 
L 100.88008 198.167187 
L 101.606052 154.469519 
L 102.332024 196.672029 
L 103.057995 196.946302 
L 103.783967 160.817736 
L 104.509939 206.25943 
L 105.235911 205.167644 
L 105.961882 228.198085 
L 106.687854 182.359803 
L 107.413826 182.28459 
L 108.139797 190.542927 
L 108.865769 143.812797 
L 109.591741 240.685732 
L 110.317712 183.196984 
L 111.043684 205.287235 
L 111.769656 181.267525 
L 112.495628 184.041734 
L 113.221599 177.412839 
L 113.947571 208.140292 
L 114.673543 210.326334 
L 115.399514 183.578261 
L 116.125486 137.018521 
L 116.851458 244.917357 
L 117.57743 192.884326 
L 118.303401 187.608088 
L 119.029373 120.152482 
L 119.755345 252.912724 
L 120.481316 223.076825 
L 121.207288 219.968156 
L 121.93326 159.621336 
L 122.659231 181.219335 
L 123.385203 208.461518 
L 124.111175 165.696778 
L 124.837147 239.077898 
L 125.563118 189.298639 
L 126.28909 170.261837 
L 127.015062 196.279974 
L 127.741033 232.324605 
L 128.467005 148.29689 
L 129.192977 184.448148 
L 129.918948 211.705215 
L 130.64492 135.441509 
L 131.370892 158.67239 
L 132.096864 236.55499 
L 132.822835 179.67778 
L 133.548807 230.88681 
L 134.274779 160.454712 
L 135.00075 161.156077 
L 135.726722 191.854471 
L 136.452694 127.535522 
L 137.178665 178.102417 
L 137.904637 160.005221 
L 138.630609 166.24988 
L 139.356581 210.434961 
L 140.082552 211.577772 
L 140.808524 183.628792 
L 141.534496 181.041788 
L 142.260467 166.473197 
L 142.986439 161.425079 
L 143.712411 142.640626 
L 144.438383 206.013161 
L 145.164354 234.906421 
L 145.890326 190.62388 
L 146.616298 94.769796 
L 147.342269 166.625283 
L 148.068241 199.576922 
L 148.794213 194.341799 
L 149.520184 170.78057 
L 150.246156 194.990906 
L 150.972128 253.432824 
L 151.6981 228.371741 
L 153.150043 144.810825 
L 153.876015 192.935623 
L 154.601986 159.943257 
L 155.327958 201.736116 
L 156.05393 160.457419 
L 156.779901 172.95385 
L 157.505873 198.779187 
L 158.231845 188.314746 
L 158.957817 189.877231 
L 159.683788 185.17581 
L 160.40976 177.012827 
L 161.135732 224.025909 
L 161.861703 193.167032 
L 162.587675 207.205101 
L 163.313647 255.525545 
L 164.039618 210.397312 
L 164.76559 202.882481 
L 165.491562 191.150413 
L 166.217534 195.61285 
L 166.943505 165.644938 
L 167.669477 179.714927 
L 168.395449 150.079594 
L 169.12142 202.871109 
L 169.847392 235.171439 
L 170.573364 185.605346 
L 171.299336 252.913061 
L 172.025307 188.982488 
L 172.751279 200.900751 
L 173.477251 141.458678 
L 174.203222 228.209436 
L 174.929194 164.414056 
L 175.655166 172.146535 
L 176.381137 207.812541 
L 177.833081 170.243495 
L 178.559053 165.292958 
L 180.010996 197.47125 
L 180.736968 234.133452 
L 181.462939 206.835852 
L 182.188911 192.244623 
L 182.914883 185.105261 
L 183.640854 229.525884 
L 184.366826 201.737069 
L 185.092798 140.475539 
L 185.81877 181.797371 
L 186.544741 176.067107 
L 187.270713 184.319456 
L 187.996685 176.359668 
L 188.722656 203.334041 
L 189.448628 208.965811 
L 190.1746 192.009211 
L 190.900571 210.955293 
L 192.352515 194.204075 
L 193.078487 208.899368 
L 193.804458 204.934707 
L 194.53043 204.592412 
L 195.256402 193.047739 
L 195.982373 176.851951 
L 196.708345 192.955827 
L 197.434317 234.527938 
L 198.160289 226.445074 
L 198.88626 210.602805 
L 199.612232 208.803772 
L 200.338204 216.847058 
L 201.064175 233.466862 
L 201.790147 211.752468 
L 202.516119 224.76701 
L 203.24209 208.332833 
L 203.968062 218.461864 
L 204.694034 232.12219 
L 205.420006 205.9966 
L 206.145977 233.881639 
L 206.871949 213.576864 
L 207.597921 222.077017 
L 208.323892 207.931062 
L 209.049864 215.658465 
L 209.775836 236.583039 
L 210.501807 210.81535 
L 211.227779 195.217297 
L 211.953751 209.609728 
L 212.679723 238.883306 
L 213.405694 190.208217 
L 214.131666 205.358964 
L 214.857638 177.624284 
L 215.583609 219.931364 
L 216.309581 213.067322 
L 217.035553 197.208955 
L 217.761524 176.933313 
L 218.487496 225.133002 
L 219.213468 165.200675 
L 219.93944 168.043079 
L 220.665411 173.891292 
L 221.391383 188.999571 
L 222.117355 186.756175 
L 222.843326 235.750176 
L 223.569298 167.248844 
L 224.29527 137.711499 
L 225.021242 202.218534 
L 225.747213 221.763638 
L 226.473185 178.636472 
L 227.199157 157.215875 
L 227.925128 197.057073 
L 228.6511 181.892192 
L 229.377072 169.287194 
L 230.103043 199.134116 
L 230.829015 238.88477 
L 231.554987 192.437226 
L 232.280959 208.6965 
L 233.00693 140.416603 
L 233.732902 210.495073 
L 234.458874 134.320691 
L 235.184845 191.878364 
L 235.910817 150.451298 
L 236.636789 193.77244 
L 237.36276 202.842388 
L 238.088732 172.731687 
L 238.814704 212.548779 
L 239.540676 212.714599 
L 240.266647 204.366182 
L 240.992619 165.539474 
L 241.718591 197.015511 
L 242.444562 196.674702 
L 243.170534 176.137974 
L 243.896506 177.815764 
L 244.622477 225.635943 
L 245.348449 187.257951 
L 246.074421 190.087547 
L 246.800393 214.283938 
L 247.526364 193.59053 
L 248.978308 207.46425 
L 249.704279 199.211047 
L 250.430251 218.142003 
L 251.156223 194.2891 
L 251.882195 181.549683 
L 252.608166 174.030088 
L 253.334138 171.882591 
L 254.06011 192.764978 
L 254.786081 225.878673 
L 255.512053 222.599327 
L 256.238025 202.765364 
L 256.963996 213.996614 
L 257.689968 235.731912 
L 258.41594 169.695151 
L 259.141912 240.884615 
L 259.867883 221.036761 
L 260.593855 217.18534 
L 262.045798 231.45588 
L 262.77177 213.533977 
L 263.497742 238.623701 
L 264.223713 227.582761 
L 264.949685 219.895602 
L 265.675657 217.604319 
L 266.401629 245.903005 
L 267.1276 169.634094 
L 267.853572 195.249059 
L 268.579544 228.627317 
L 269.305515 200.689024 
L 270.031487 213.941215 
L 270.757459 220.009518 
L 271.48343 211.331521 
L 272.209402 219.957164 
L 272.935374 234.97532 
L 273.661346 239.329104 
L 274.387317 224.975806 
L 275.113289 219.89226 
L 275.839261 228.08167 
L 276.565232 229.663421 
L 277.291204 182.451144 
L 278.017176 221.869074 
L 278.743148 227.33541 
L 279.469119 202.209824 
L 280.195091 231.333465 
L 280.921063 207.855999 
L 281.647034 213.756244 
L 282.373006 216.929547 
L 283.098978 220.790852 
L 283.824949 205.325786 
L 284.550921 213.00544 
L 285.276893 208.70468 
L 286.002865 216.698951 
L 286.728836 205.677041 
L 287.454808 210.746436 
L 288.18078 181.426829 
L 288.906751 207.707353 
L 289.632723 184.804947 
L 290.358695 202.946564 
L 291.084666 185.717861 
L 291.810638 208.201881 
L 292.53661 193.994192 
L 293.262582 209.918712 
L 293.988553 192.098342 
L 294.714525 211.998912 
L 295.440497 198.318215 
L 296.166468 199.893629 
L 296.89244 190.053094 
L 297.618412 198.443365 
L 298.344383 185.607708 
L 299.070355 193.974967 
L 299.796327 157.540635 
L 300.522299 246.164656 
L 301.24827 147.824079 
L 301.974242 188.467587 
L 302.700214 158.169743 
L 303.426185 172.549983 
L 304.152157 143.656976 
L 304.878129 202.593219 
L 305.604101 191.685927 
L 306.330072 178.154239 
L 307.056044 215.199578 
L 307.782016 208.773791 
L 309.233959 185.410435 
L 309.959931 195.007509 
L 310.685902 187.303718 
L 311.411874 201.437761 
L 312.137846 197.572127 
L 312.863818 179.14678 
L 313.589789 187.734318 
L 314.315761 194.909534 
L 315.041733 182.327791 
L 315.767704 175.170272 
L 316.493676 201.499275 
L 317.219648 213.475534 
L 317.945619 168.175629 
L 318.671591 183.568443 
L 319.397563 187.567569 
L 320.123535 202.559567 
L 320.849506 186.932088 
L 321.575478 213.664748 
L 322.30145 219.58651 
L 323.027421 206.909494 
L 323.753393 159.54425 
L 324.479365 188.984483 
L 325.205336 231.096102 
L 325.931308 203.879099 
L 326.65728 208.4976 
L 327.383252 195.897181 
L 328.109223 209.364384 
L 328.835195 196.611284 
L 329.561167 235.093901 
L 330.287138 201.6521 
L 331.01311 177.233257 
L 331.739082 224.933635 
L 332.465054 174.529468 
L 333.191025 206.128857 
L 333.916997 223.899708 
L 334.642969 221.92983 
L 335.36894 186.344828 
L 336.094912 230.240902 
L 336.820884 221.914389 
L 337.546855 223.457403 
L 338.998799 194.574071 
L 339.724771 189.418004 
L 340.450742 223.512462 
L 341.176714 220.851926 
L 341.902686 208.576295 
L 342.628657 191.90649 
L 343.354629 227.934568 
L 344.080601 205.068128 
L 344.806572 201.125958 
L 345.532544 230.937715 
L 346.258516 203.304646 
L 346.984488 221.339204 
L 347.710459 212.051047 
L 348.436431 215.61644 
L 349.162403 214.143537 
L 349.888374 214.060354 
L 350.614346 213.39536 
L 351.340318 217.579784 
L 352.066289 217.285523 
L 352.792261 211.931668 
L 353.518233 201.083972 
L 354.244205 210.084848 
L 354.970176 229.701859 
L 355.696148 198.785475 
L 356.42212 227.725977 
L 357.148091 212.157538 
L 357.874063 212.732868 
L 358.600035 218.90233 
L 359.326007 218.901273 
L 360.051978 215.497726 
L 360.77795 193.170489 
L 361.503922 232.650617 
L 362.229893 211.204092 
L 362.955865 215.412481 
L 363.681837 216.853926 
L 364.407808 216.336831 
L 365.13378 211.961951 
L 365.859752 210.017579 
L 367.311695 214.200795 
L 368.037667 211.086666 
L 368.763639 227.631061 
L 369.48961 215.126568 
L 370.215582 231.15613 
L 370.941554 228.54834 
L 371.667525 218.237228 
L 372.393497 229.529737 
L 373.119469 220.197319 
L 373.845441 216.733973 
L 374.571412 212.660689 
L 375.297384 223.82448 
L 376.023356 211.850508 
L 376.749327 210.585645 
L 377.475299 214.717076 
L 378.201271 216.096211 
L 378.927242 214.770726 
L 379.653214 200.665481 
L 380.379186 211.181118 
L 381.105158 205.062372 
L 381.831129 212.136566 
L 382.557101 206.953008 
L 383.283073 211.883066 
L 384.009044 224.75511 
L 384.735016 196.676854 
L 385.460988 214.224441 
L 386.18696 228.301981 
L 386.912931 199.042056 
L 387.638903 225.339653 
L 388.364875 201.673776 
L 389.090846 201.815003 
L 389.816818 214.783536 
L 390.54279 212.727122 
L 391.268761 199.982108 
L 391.994733 206.89246 
L 393.446677 194.390982 
L 394.172648 201.555106 
L 394.89862 212.450988 
L 396.350563 197.114022 
L 397.076535 188.65288 
L 397.802507 190.651546 
L 398.528478 187.933755 
L 399.25445 186.363739 
L 399.980422 191.688272 
L 400.706394 189.050363 
L 401.432365 185.519283 
L 402.158337 197.130156 
L 402.884309 178.580317 
L 403.61028 190.115205 
L 404.336252 181.647899 
L 405.062224 185.75661 
L 405.788195 176.787665 
L 406.514167 185.705521 
L 407.240139 187.655644 
L 407.966111 186.516263 
L 408.692082 204.081064 
L 409.418054 190.864693 
L 410.144026 210.653966 
L 410.869997 182.350751 
L 411.595969 183.890394 
L 412.321941 207.51155 
L 413.047913 181.631213 
L 413.773884 184.070929 
L 414.499856 184.331536 
L 415.225828 180.597227 
L 415.951799 175.388003 
L 416.677771 198.579431 
L 417.403743 178.822613 
L 418.855686 198.755305 
L 419.581658 185.144166 
L 420.30763 191.502206 
L 421.033601 188.838748 
L 421.759573 205.812794 
L 422.485545 207.112269 
L 423.211516 202.344133 
L 423.937488 204.953011 
L 424.66346 204.320871 
L 425.389431 201.616105 
L 426.115403 204.133758 
L 426.841375 204.742348 
L 427.567347 205.556724 
L 428.293318 203.498934 
L 429.01929 206.356263 
L 429.745262 206.246644 
L 430.471233 207.689893 
L 431.197205 204.450791 
L 431.923177 206.642717 
L 432.649148 205.178408 
L 433.37512 215.146811 
L 434.101092 211.357411 
L 434.827064 210.289123 
L 435.553035 204.570469 
L 436.279007 209.01927 
L 437.004979 204.428263 
L 437.73095 208.169409 
L 438.456922 203.858715 
L 439.182894 209.660972 
L 439.908866 212.522212 
L 440.634837 210.135281 
L 441.360809 212.05378 
L 442.086781 207.089897 
L 442.812752 210.349895 
L 443.538724 205.861446 
L 444.264696 208.730308 
L 444.990667 203.837451 
L 445.716639 208.680006 
L 446.442611 203.533472 
L 447.168583 206.734908 
L 447.894554 208.670617 
L 449.346498 210.433782 
L 450.072469 210.167508 
L 450.798441 210.852491 
L 451.524413 210.312503 
L 452.250384 207.695678 
L 452.976356 211.071332 
L 453.702328 208.360519 
L 454.4283 210.065524 
L 455.154271 207.666354 
L 455.880243 210.215841 
L 456.606215 210.976186 
L 457.332186 207.657292 
L 458.058158 208.552655 
L 458.78413 212.305472 
L 459.510101 211.068288 
L 460.236073 212.086332 
L 460.962045 210.800166 
L 461.688017 211.961526 
L 462.413988 212.682805 
L 463.13996 212.988424 
L 463.865932 213.677764 
L 464.591903 213.80177 
L 464.591903 213.80177 
" style="fill:none;stroke:#2ca02c;stroke-linecap:square;stroke-width:1.5;"/>
   </g>
   <g id="line2d_4">
    <path clip-path="url(#p27e8b1a449)" d="M 58.773722 193.963581 
L 59.499693 259.610464 
L 60.225665 216.323031 
L 60.951637 238.535914 
L 61.677608 237.201619 
L 62.40358 215.812735 
L 63.129552 225.573187 
L 63.855524 191.843243 
L 64.581495 214.553689 
L 65.307467 257.461265 
L 66.033439 224.665368 
L 66.75941 181.223216 
L 67.485382 240.15611 
L 68.211354 216.79978 
L 68.937325 257.032926 
L 69.663297 160.515595 
L 70.389269 236.086313 
L 71.115241 238.576868 
L 71.841212 220.210282 
L 72.567184 232.902167 
L 73.293156 224.929354 
L 74.019127 225.829035 
L 74.745099 217.287524 
L 75.471071 233.060669 
L 76.197042 210.516928 
L 77.648986 250.203704 
L 78.374958 247.351755 
L 79.100929 230.872749 
L 79.826901 254.743187 
L 80.552873 221.249778 
L 81.278844 238.397862 
L 82.004816 227.919455 
L 82.730788 243.39501 
L 83.456759 255.77181 
L 84.182731 256.383046 
L 84.908703 244.821625 
L 86.360646 249.750805 
L 87.086618 236.343144 
L 87.81259 257.987926 
L 88.538561 237.605961 
L 89.264533 240.183771 
L 89.990505 240.049898 
L 90.716477 240.629826 
L 91.442448 259.232397 
L 92.16842 233.332689 
L 92.894392 266.638646 
L 93.620363 177.358526 
L 94.346335 243.733583 
L 95.072307 192.147603 
L 95.798278 228.798073 
L 96.52425 214.932684 
L 97.250222 196.498695 
L 97.976194 202.004297 
L 98.702165 194.099873 
L 99.428137 257.753264 
L 100.154109 251.944616 
L 100.88008 221.55686 
L 101.606052 181.860034 
L 102.332024 198.233451 
L 103.057995 227.077468 
L 103.783967 181.310821 
L 104.509939 236.506237 
L 105.235911 225.380547 
L 105.961882 244.088759 
L 106.687854 221.545863 
L 107.413826 232.972031 
L 108.139797 224.899793 
L 108.865769 229.848006 
L 109.591741 265.968727 
L 111.043684 240.945707 
L 111.769656 239.492487 
L 112.495628 211.999379 
L 113.221599 170.303035 
L 113.947571 235.489454 
L 114.673543 227.025343 
L 115.399514 167.962728 
L 116.125486 227.001679 
L 116.851458 228.102954 
L 117.57743 222.598986 
L 118.303401 201.157124 
L 119.029373 220.573017 
L 119.755345 268.522315 
L 120.481316 198.673907 
L 121.207288 233.418851 
L 121.93326 222.288508 
L 122.659231 238.00102 
L 123.385203 235.313112 
L 124.111175 236.841073 
L 124.837147 256.446872 
L 125.563118 257.409188 
L 126.28909 151.49737 
L 127.015062 240.102563 
L 127.741033 260.256258 
L 128.467005 215.762731 
L 129.192977 188.372531 
L 129.918948 228.913954 
L 130.64492 212.736474 
L 131.370892 227.310253 
L 132.096864 231.776337 
L 132.822835 220.281608 
L 133.548807 212.239966 
L 134.274779 230.758712 
L 135.00075 222.352209 
L 135.726722 230.197459 
L 136.452694 153.165916 
L 137.178665 170.25401 
L 137.904637 197.009798 
L 138.630609 204.598498 
L 139.356581 228.051021 
L 140.082552 240.681398 
L 140.808524 198.715775 
L 141.534496 183.998151 
L 142.260467 187.452898 
L 142.986439 201.760613 
L 143.712411 209.233016 
L 144.438383 218.14738 
L 145.164354 248.261 
L 145.890326 166.534314 
L 146.616298 203.416824 
L 147.342269 206.170205 
L 148.068241 232.585874 
L 148.794213 234.684471 
L 149.520184 112.023197 
L 150.246156 210.704225 
L 150.972128 263.539166 
L 151.6981 219.025214 
L 152.424071 212.158123 
L 153.150043 167.153681 
L 153.876015 209.140848 
L 154.601986 187.49774 
L 155.327958 220.387632 
L 156.05393 178.867928 
L 156.779901 207.066934 
L 157.505873 213.694661 
L 158.231845 213.445361 
L 158.957817 217.139716 
L 159.683788 217.439015 
L 160.40976 135.328809 
L 161.135732 202.976447 
L 161.861703 149.998752 
L 162.587675 206.122455 
L 163.313647 241.487204 
L 164.039618 212.338385 
L 164.76559 220.234747 
L 165.491562 208.706742 
L 166.217534 159.209781 
L 166.943505 187.468266 
L 167.669477 116.578319 
L 169.12142 177.399112 
L 169.847392 224.505967 
L 170.573364 187.750202 
L 171.299336 231.320056 
L 172.025307 183.199 
L 172.751279 201.744134 
L 173.477251 208.470631 
L 174.203222 173.245638 
L 174.929194 202.310664 
L 175.655166 172.780777 
L 176.381137 215.805227 
L 177.107109 200.071731 
L 177.833081 190.711048 
L 178.559053 214.105383 
L 179.285024 177.922908 
L 180.010996 233.537139 
L 180.736968 215.649307 
L 181.462939 243.331808 
L 182.188911 211.480428 
L 182.914883 216.335537 
L 183.640854 223.562436 
L 184.366826 218.834029 
L 185.092798 224.7484 
L 185.81877 219.661462 
L 186.544741 162.852602 
L 187.270713 204.515755 
L 187.996685 209.467993 
L 188.722656 209.242349 
L 189.448628 253.751987 
L 190.1746 161.092979 
L 190.900571 255.104592 
L 191.626543 233.542969 
L 192.352515 234.993706 
L 193.078487 256.575682 
L 193.804458 249.318555 
L 194.53043 226.786397 
L 195.256402 234.000677 
L 195.982373 181.2952 
L 196.708345 204.648107 
L 197.434317 258.521271 
L 198.160289 253.953487 
L 198.88626 251.216279 
L 199.612232 235.01307 
L 200.338204 234.559617 
L 201.064175 253.232733 
L 201.790147 262.894079 
L 202.516119 238.727751 
L 203.24209 240.167833 
L 203.968062 252.299654 
L 204.694034 228.120494 
L 205.420006 241.537689 
L 206.145977 232.799567 
L 206.871949 244.966425 
L 207.597921 239.002741 
L 208.323892 235.115971 
L 209.049864 196.541798 
L 209.775836 259.127153 
L 210.501807 216.437598 
L 211.227779 237.482481 
L 211.953751 230.873076 
L 212.679723 263.264634 
L 213.405694 257.439863 
L 214.131666 243.972136 
L 214.857638 241.541124 
L 215.583609 250.254478 
L 216.309581 241.503047 
L 217.035553 190.69865 
L 217.761524 221.223517 
L 218.487496 221.821562 
L 219.213468 205.706616 
L 219.93944 237.301249 
L 220.665411 186.023547 
L 221.391383 218.671967 
L 222.117355 208.469542 
L 222.843326 259.111354 
L 223.569298 228.899304 
L 224.29527 226.219042 
L 225.021242 195.262478 
L 225.747213 250.087642 
L 227.199157 197.562497 
L 227.925128 202.869703 
L 228.6511 210.305008 
L 229.377072 235.841697 
L 230.103043 166.272398 
L 230.829015 242.084241 
L 231.554987 183.299741 
L 232.280959 229.62798 
L 233.00693 210.308673 
L 233.732902 187.78987 
L 234.458874 217.284617 
L 235.184845 216.504886 
L 235.910817 190.165502 
L 236.636789 220.983808 
L 237.36276 232.980343 
L 238.088732 227.478216 
L 238.814704 252.182081 
L 239.540676 204.748266 
L 240.266647 233.762823 
L 240.992619 209.521356 
L 241.718591 228.079079 
L 242.444562 224.942903 
L 243.170534 232.404431 
L 243.896506 226.931675 
L 244.622477 226.911355 
L 245.348449 226.455839 
L 246.074421 230.750917 
L 246.800393 227.409362 
L 247.526364 230.549174 
L 248.252336 237.091435 
L 248.978308 222.07084 
L 249.704279 210.420739 
L 250.430251 239.273317 
L 251.156223 217.504171 
L 251.882195 204.694634 
L 252.608166 226.737729 
L 253.334138 221.715773 
L 254.06011 198.708015 
L 254.786081 252.225651 
L 255.512053 233.959041 
L 256.238025 227.092661 
L 256.963996 237.857086 
L 257.689968 210.306832 
L 258.41594 207.706974 
L 259.141912 230.245929 
L 259.867883 235.632308 
L 260.593855 226.118003 
L 261.319827 236.674817 
L 262.045798 239.65912 
L 262.77177 229.337237 
L 263.497742 246.81425 
L 264.223713 237.62559 
L 264.949685 241.716964 
L 265.675657 190.766639 
L 266.401629 249.989824 
L 267.1276 232.184159 
L 267.853572 202.318397 
L 268.579544 246.629325 
L 269.305515 231.740701 
L 270.031487 242.331923 
L 270.757459 239.788656 
L 271.48343 201.401984 
L 272.209402 214.486847 
L 272.935374 242.21444 
L 273.661346 248.607879 
L 274.387317 184.430594 
L 275.113289 210.964992 
L 275.839261 227.92318 
L 276.565232 218.344073 
L 277.291204 223.843182 
L 278.017176 224.921967 
L 278.743148 218.235214 
L 279.469119 216.793073 
L 280.195091 218.572488 
L 280.921063 221.903315 
L 281.647034 215.562146 
L 282.373006 228.778088 
L 283.098978 225.196852 
L 283.824949 222.220553 
L 284.550921 225.895191 
L 285.276893 218.419045 
L 286.002865 228.006323 
L 286.728836 220.447001 
L 287.454808 225.426082 
L 288.18078 225.188259 
L 288.906751 227.243624 
L 290.358695 218.155108 
L 291.084666 213.269195 
L 291.810638 218.726846 
L 292.53661 222.208749 
L 293.262582 194.447674 
L 293.988553 221.454595 
L 294.714525 183.025049 
L 295.440497 220.534911 
L 296.166468 205.346076 
L 296.89244 203.341759 
L 297.618412 211.297627 
L 298.344383 201.489165 
L 299.070355 180.945309 
L 299.796327 215.424689 
L 300.522299 257.169806 
L 301.24827 210.380747 
L 301.974242 234.210543 
L 302.700214 221.657905 
L 303.426185 221.675333 
L 304.152157 216.720119 
L 304.878129 183.341616 
L 305.604101 247.71333 
L 306.330072 197.632428 
L 307.056044 240.688249 
L 307.782016 234.880819 
L 308.507987 222.544743 
L 309.233959 227.864247 
L 309.959931 216.609014 
L 310.685902 230.121266 
L 311.411874 195.40323 
L 312.137846 232.039111 
L 312.863818 230.099773 
L 313.589789 228.775486 
L 314.315761 223.375057 
L 315.041733 222.47727 
L 315.767704 232.168256 
L 316.493676 219.175088 
L 317.219648 258.558956 
L 317.945619 220.695087 
L 318.671591 231.245534 
L 319.397563 231.463531 
L 320.123535 242.041412 
L 320.849506 229.890258 
L 321.575478 261.887211 
L 322.30145 256.177614 
L 323.027421 240.236242 
L 323.753393 191.451872 
L 324.479365 238.512664 
L 325.205336 260.62517 
L 325.931308 218.651294 
L 326.65728 250.675863 
L 327.383252 238.794688 
L 328.109223 205.596107 
L 328.835195 239.920082 
L 329.561167 256.71312 
L 330.287138 239.065239 
L 331.01311 244.547689 
L 331.739082 221.509456 
L 332.465054 240.010524 
L 333.191025 240.781796 
L 333.916997 232.358927 
L 334.642969 252.807079 
L 335.36894 241.15525 
L 336.094912 251.767634 
L 336.820884 222.968747 
L 337.546855 239.851695 
L 338.272827 233.778835 
L 338.998799 238.298364 
L 339.724771 237.250438 
L 340.450742 235.823281 
L 341.176714 233.188691 
L 341.902686 231.557881 
L 342.628657 233.920014 
L 343.354629 234.541195 
L 344.080601 233.724648 
L 344.806572 235.955509 
L 345.532544 230.527221 
L 346.258516 234.302983 
L 346.984488 228.963273 
L 347.710459 233.972136 
L 348.436431 232.020533 
L 349.162403 233.54742 
L 349.888374 232.365134 
L 350.614346 228.790422 
L 351.340318 234.548933 
L 352.066289 231.996871 
L 352.792261 230.384686 
L 353.518233 227.679087 
L 354.244205 230.216893 
L 354.970176 230.020138 
L 355.696148 219.320265 
L 356.42212 226.878068 
L 357.148091 225.443113 
L 357.874063 231.176644 
L 358.600035 228.841018 
L 359.326007 235.427638 
L 360.77795 221.837551 
L 361.503922 243.224396 
L 362.229893 226.670885 
L 362.955865 229.936215 
L 363.681837 227.401126 
L 364.407808 232.448624 
L 365.13378 224.49444 
L 365.859752 229.335115 
L 366.585724 233.069586 
L 367.311695 233.231804 
L 368.037667 228.412286 
L 368.763639 243.382284 
L 369.48961 213.869202 
L 370.215582 244.275813 
L 370.941554 234.680696 
L 371.667525 215.434707 
L 372.393497 229.86989 
L 373.119469 225.920752 
L 373.845441 222.605458 
L 374.571412 226.651013 
L 375.297384 237.800922 
L 376.023356 223.321207 
L 376.749327 213.333889 
L 377.475299 226.992921 
L 378.201271 236.816996 
L 378.927242 224.914326 
L 379.653214 230.403736 
L 380.379186 231.519015 
L 381.105158 228.343721 
L 381.831129 227.624564 
L 382.557101 225.503777 
L 384.009044 239.608547 
L 384.735016 228.097275 
L 385.460988 229.162958 
L 386.18696 242.99789 
L 386.912931 230.92432 
L 387.638903 241.78545 
L 388.364875 233.713851 
L 389.090846 233.398047 
L 389.816818 241.878458 
L 390.54279 240.926142 
L 391.268761 235.868254 
L 391.994733 238.045357 
L 392.720705 239.37984 
L 393.446677 216.861273 
L 394.172648 228.627881 
L 394.89862 242.694187 
L 395.624592 226.093275 
L 396.350563 221.697719 
L 397.076535 210.882536 
L 397.802507 216.647698 
L 399.25445 213.743498 
L 399.980422 215.130326 
L 400.706394 219.817981 
L 401.432365 220.442914 
L 402.158337 230.627187 
L 402.884309 207.260448 
L 403.61028 212.490767 
L 404.336252 212.025546 
L 405.062224 209.971428 
L 405.788195 216.524797 
L 406.514167 207.410229 
L 407.240139 208.144146 
L 407.966111 218.933898 
L 408.692082 231.691402 
L 409.418054 205.330138 
L 410.144026 226.077497 
L 410.869997 215.860639 
L 411.595969 217.885824 
L 412.321941 224.08495 
L 413.047913 210.766952 
L 413.773884 219.593101 
L 414.499856 221.485717 
L 415.225828 218.23995 
L 415.951799 216.442581 
L 416.677771 223.524829 
L 417.403743 220.407845 
L 418.129714 221.590366 
L 418.855686 223.377513 
L 419.581658 212.580011 
L 420.30763 221.021597 
L 421.033601 216.885191 
L 421.759573 231.734031 
L 422.485545 230.282232 
L 423.211516 231.742346 
L 423.937488 224.816997 
L 424.66346 231.604282 
L 425.389431 227.040359 
L 426.115403 232.221231 
L 426.841375 232.12171 
L 427.567347 236.75782 
L 428.293318 232.451196 
L 429.01929 238.35018 
L 429.745262 224.745905 
L 430.471233 236.904775 
L 431.197205 231.372656 
L 431.923177 232.031236 
L 432.649148 222.713842 
L 433.37512 235.686181 
L 434.101092 235.921226 
L 434.827064 229.867609 
L 435.553035 231.481366 
L 436.279007 230.964933 
L 437.004979 231.267815 
L 437.73095 230.120491 
L 438.456922 231.29051 
L 439.182894 231.555543 
L 439.908866 230.576604 
L 440.634837 230.220068 
L 441.360809 231.493331 
L 442.086781 231.465908 
L 442.812752 229.835845 
L 443.538724 231.802183 
L 444.264696 230.192534 
L 444.990667 230.272237 
L 445.716639 229.973965 
L 446.442611 230.198986 
L 447.168583 230.043774 
L 447.894554 230.188536 
L 448.620526 229.884889 
L 449.346498 230.314567 
L 450.072469 231.282462 
L 450.798441 230.575484 
L 451.524413 230.176736 
L 452.976356 229.694762 
L 453.702328 230.612094 
L 454.4283 230.314836 
L 455.154271 229.642725 
L 455.880243 229.663979 
L 456.606215 229.373651 
L 457.332186 229.716515 
L 458.058158 229.87828 
L 459.510101 229.356996 
L 461.688017 229.182113 
L 462.413988 229.003464 
L 463.13996 231.160895 
L 463.865932 229.421635 
L 464.591903 229.709517 
L 464.591903 229.709517 
" style="fill:none;stroke:#d62728;stroke-linecap:square;stroke-width:1.5;"/>
   </g>
   <g id="line2d_5">
    <path clip-path="url(#p27e8b1a449)" d="M 58.773722 224.643488 
L 464.591903 224.643488 
L 464.591903 224.643488 
" style="fill:none;stroke:#000000;stroke-dasharray:3.7,1.6;stroke-dashoffset:0;"/>
   </g>
   <g id="matplotlib.axis_1">
    <g id="xtick_1">
     <g id="line2d_6">
      <defs>
       <path d="M 0 0 
L 0 3.5 
" id="mdfe3a7ed4d" style="stroke:#000000;stroke-width:0.8;"/>
      </defs>
      <g>
       <use style="stroke:#000000;stroke-width:0.8;" x="79.826901" xlink:href="#mdfe3a7ed4d" y="294.118125"/>
      </g>
     </g>
     <g id="text_1">
      <!-- 100 -->
      <defs>
       <path d="M 12.40625 8.296875 
L 28.515625 8.296875 
L 28.515625 63.921875 
L 10.984375 60.40625 
L 10.984375 69.390625 
L 28.421875 72.90625 
L 38.28125 72.90625 
L 38.28125 8.296875 
L 54.390625 8.296875 
L 54.390625 0 
L 12.40625 0 
z
" id="DejaVuSans-49"/>
       <path d="M 31.78125 66.40625 
Q 24.171875 66.40625 20.328125 58.90625 
Q 16.5 51.421875 16.5 36.375 
Q 16.5 21.390625 20.328125 13.890625 
Q 24.171875 6.390625 31.78125 6.390625 
Q 39.453125 6.390625 43.28125 13.890625 
Q 47.125 21.390625 47.125 36.375 
Q 47.125 51.421875 43.28125 58.90625 
Q 39.453125 66.40625 31.78125 66.40625 
z
M 31.78125 74.21875 
Q 44.046875 74.21875 50.515625 64.515625 
Q 56.984375 54.828125 56.984375 36.375 
Q 56.984375 17.96875 50.515625 8.265625 
Q 44.046875 -1.421875 31.78125 -1.421875 
Q 19.53125 -1.421875 13.0625 8.265625 
Q 6.59375 17.96875 6.59375 36.375 
Q 6.59375 54.828125 13.0625 64.515625 
Q 19.53125 74.21875 31.78125 74.21875 
z
" id="DejaVuSans-48"/>
      </defs>
      <g transform="translate(70.283151 308.716563)scale(0.1 -0.1)">
       <use xlink:href="#DejaVuSans-49"/>
       <use x="63.623047" xlink:href="#DejaVuSans-48"/>
       <use x="127.246094" xlink:href="#DejaVuSans-48"/>
      </g>
     </g>
    </g>
    <g id="xtick_2">
     <g id="line2d_7">
      <g>
       <use style="stroke:#000000;stroke-width:0.8;" x="152.424071" xlink:href="#mdfe3a7ed4d" y="294.118125"/>
      </g>
     </g>
     <g id="text_2">
      <!-- 200 -->
      <defs>
       <path d="M 19.1875 8.296875 
L 53.609375 8.296875 
L 53.609375 0 
L 7.328125 0 
L 7.328125 8.296875 
Q 12.9375 14.109375 22.625 23.890625 
Q 32.328125 33.6875 34.8125 36.53125 
Q 39.546875 41.84375 41.421875 45.53125 
Q 43.3125 49.21875 43.3125 52.78125 
Q 43.3125 58.59375 39.234375 62.25 
Q 35.15625 65.921875 28.609375 65.921875 
Q 23.96875 65.921875 18.8125 64.3125 
Q 13.671875 62.703125 7.8125 59.421875 
L 7.8125 69.390625 
Q 13.765625 71.78125 18.9375 73 
Q 24.125 74.21875 28.421875 74.21875 
Q 39.75 74.21875 46.484375 68.546875 
Q 53.21875 62.890625 53.21875 53.421875 
Q 53.21875 48.921875 51.53125 44.890625 
Q 49.859375 40.875 45.40625 35.40625 
Q 44.1875 33.984375 37.640625 27.21875 
Q 31.109375 20.453125 19.1875 8.296875 
z
" id="DejaVuSans-50"/>
      </defs>
      <g transform="translate(142.880321 308.716563)scale(0.1 -0.1)">
       <use xlink:href="#DejaVuSans-50"/>
       <use x="63.623047" xlink:href="#DejaVuSans-48"/>
       <use x="127.246094" xlink:href="#DejaVuSans-48"/>
      </g>
     </g>
    </g>
    <g id="xtick_3">
     <g id="line2d_8">
      <g>
       <use style="stroke:#000000;stroke-width:0.8;" x="225.021242" xlink:href="#mdfe3a7ed4d" y="294.118125"/>
      </g>
     </g>
     <g id="text_3">
      <!-- 300 -->
      <defs>
       <path d="M 40.578125 39.3125 
Q 47.65625 37.796875 51.625 33 
Q 55.609375 28.21875 55.609375 21.1875 
Q 55.609375 10.40625 48.1875 4.484375 
Q 40.765625 -1.421875 27.09375 -1.421875 
Q 22.515625 -1.421875 17.65625 -0.515625 
Q 12.796875 0.390625 7.625 2.203125 
L 7.625 11.71875 
Q 11.71875 9.328125 16.59375 8.109375 
Q 21.484375 6.890625 26.8125 6.890625 
Q 36.078125 6.890625 40.9375 10.546875 
Q 45.796875 14.203125 45.796875 21.1875 
Q 45.796875 27.640625 41.28125 31.265625 
Q 36.765625 34.90625 28.71875 34.90625 
L 20.21875 34.90625 
L 20.21875 43.015625 
L 29.109375 43.015625 
Q 36.375 43.015625 40.234375 45.921875 
Q 44.09375 48.828125 44.09375 54.296875 
Q 44.09375 59.90625 40.109375 62.90625 
Q 36.140625 65.921875 28.71875 65.921875 
Q 24.65625 65.921875 20.015625 65.03125 
Q 15.375 64.15625 9.8125 62.3125 
L 9.8125 71.09375 
Q 15.4375 72.65625 20.34375 73.4375 
Q 25.25 74.21875 29.59375 74.21875 
Q 40.828125 74.21875 47.359375 69.109375 
Q 53.90625 64.015625 53.90625 55.328125 
Q 53.90625 49.265625 50.4375 45.09375 
Q 46.96875 40.921875 40.578125 39.3125 
z
" id="DejaVuSans-51"/>
      </defs>
      <g transform="translate(215.477492 308.716563)scale(0.1 -0.1)">
       <use xlink:href="#DejaVuSans-51"/>
       <use x="63.623047" xlink:href="#DejaVuSans-48"/>
       <use x="127.246094" xlink:href="#DejaVuSans-48"/>
      </g>
     </g>
    </g>
    <g id="xtick_4">
     <g id="line2d_9">
      <g>
       <use style="stroke:#000000;stroke-width:0.8;" x="297.618412" xlink:href="#mdfe3a7ed4d" y="294.118125"/>
      </g>
     </g>
     <g id="text_4">
      <!-- 400 -->
      <defs>
       <path d="M 37.796875 64.3125 
L 12.890625 25.390625 
L 37.796875 25.390625 
z
M 35.203125 72.90625 
L 47.609375 72.90625 
L 47.609375 25.390625 
L 58.015625 25.390625 
L 58.015625 17.1875 
L 47.609375 17.1875 
L 47.609375 0 
L 37.796875 0 
L 37.796875 17.1875 
L 4.890625 17.1875 
L 4.890625 26.703125 
z
" id="DejaVuSans-52"/>
      </defs>
      <g transform="translate(288.074662 308.716563)scale(0.1 -0.1)">
       <use xlink:href="#DejaVuSans-52"/>
       <use x="63.623047" xlink:href="#DejaVuSans-48"/>
       <use x="127.246094" xlink:href="#DejaVuSans-48"/>
      </g>
     </g>
    </g>
    <g id="xtick_5">
     <g id="line2d_10">
      <g>
       <use style="stroke:#000000;stroke-width:0.8;" x="370.215582" xlink:href="#mdfe3a7ed4d" y="294.118125"/>
      </g>
     </g>
     <g id="text_5">
      <!-- 500 -->
      <defs>
       <path d="M 10.796875 72.90625 
L 49.515625 72.90625 
L 49.515625 64.59375 
L 19.828125 64.59375 
L 19.828125 46.734375 
Q 21.96875 47.46875 24.109375 47.828125 
Q 26.265625 48.1875 28.421875 48.1875 
Q 40.625 48.1875 47.75 41.5 
Q 54.890625 34.8125 54.890625 23.390625 
Q 54.890625 11.625 47.5625 5.09375 
Q 40.234375 -1.421875 26.90625 -1.421875 
Q 22.3125 -1.421875 17.546875 -0.640625 
Q 12.796875 0.140625 7.71875 1.703125 
L 7.71875 11.625 
Q 12.109375 9.234375 16.796875 8.0625 
Q 21.484375 6.890625 26.703125 6.890625 
Q 35.15625 6.890625 40.078125 11.328125 
Q 45.015625 15.765625 45.015625 23.390625 
Q 45.015625 31 40.078125 35.4375 
Q 35.15625 39.890625 26.703125 39.890625 
Q 22.75 39.890625 18.8125 39.015625 
Q 14.890625 38.140625 10.796875 36.28125 
z
" id="DejaVuSans-53"/>
      </defs>
      <g transform="translate(360.671832 308.716563)scale(0.1 -0.1)">
       <use xlink:href="#DejaVuSans-53"/>
       <use x="63.623047" xlink:href="#DejaVuSans-48"/>
       <use x="127.246094" xlink:href="#DejaVuSans-48"/>
      </g>
     </g>
    </g>
    <g id="xtick_6">
     <g id="line2d_11">
      <g>
       <use style="stroke:#000000;stroke-width:0.8;" x="442.812752" xlink:href="#mdfe3a7ed4d" y="294.118125"/>
      </g>
     </g>
     <g id="text_6">
      <!-- 600 -->
      <defs>
       <path d="M 33.015625 40.375 
Q 26.375 40.375 22.484375 35.828125 
Q 18.609375 31.296875 18.609375 23.390625 
Q 18.609375 15.53125 22.484375 10.953125 
Q 26.375 6.390625 33.015625 6.390625 
Q 39.65625 6.390625 43.53125 10.953125 
Q 47.40625 15.53125 47.40625 23.390625 
Q 47.40625 31.296875 43.53125 35.828125 
Q 39.65625 40.375 33.015625 40.375 
z
M 52.59375 71.296875 
L 52.59375 62.3125 
Q 48.875 64.0625 45.09375 64.984375 
Q 41.3125 65.921875 37.59375 65.921875 
Q 27.828125 65.921875 22.671875 59.328125 
Q 17.53125 52.734375 16.796875 39.40625 
Q 19.671875 43.65625 24.015625 45.921875 
Q 28.375 48.1875 33.59375 48.1875 
Q 44.578125 48.1875 50.953125 41.515625 
Q 57.328125 34.859375 57.328125 23.390625 
Q 57.328125 12.15625 50.6875 5.359375 
Q 44.046875 -1.421875 33.015625 -1.421875 
Q 20.359375 -1.421875 13.671875 8.265625 
Q 6.984375 17.96875 6.984375 36.375 
Q 6.984375 53.65625 15.1875 63.9375 
Q 23.390625 74.21875 37.203125 74.21875 
Q 40.921875 74.21875 44.703125 73.484375 
Q 48.484375 72.75 52.59375 71.296875 
z
" id="DejaVuSans-54"/>
      </defs>
      <g transform="translate(433.269002 308.716563)scale(0.1 -0.1)">
       <use xlink:href="#DejaVuSans-54"/>
       <use x="63.623047" xlink:href="#DejaVuSans-48"/>
       <use x="127.246094" xlink:href="#DejaVuSans-48"/>
      </g>
     </g>
    </g>
    <g id="text_7">
     <!-- Tempo -->
     <defs>
      <path d="M -0.296875 72.90625 
L 61.375 72.90625 
L 61.375 64.59375 
L 35.5 64.59375 
L 35.5 0 
L 25.59375 0 
L 25.59375 64.59375 
L -0.296875 64.59375 
z
" id="DejaVuSans-84"/>
      <path d="M 56.203125 29.59375 
L 56.203125 25.203125 
L 14.890625 25.203125 
Q 15.484375 15.921875 20.484375 11.0625 
Q 25.484375 6.203125 34.421875 6.203125 
Q 39.59375 6.203125 44.453125 7.46875 
Q 49.3125 8.734375 54.109375 11.28125 
L 54.109375 2.78125 
Q 49.265625 0.734375 44.1875 -0.34375 
Q 39.109375 -1.421875 33.890625 -1.421875 
Q 20.796875 -1.421875 13.15625 6.1875 
Q 5.515625 13.8125 5.515625 26.8125 
Q 5.515625 40.234375 12.765625 48.109375 
Q 20.015625 56 32.328125 56 
Q 43.359375 56 49.78125 48.890625 
Q 56.203125 41.796875 56.203125 29.59375 
z
M 47.21875 32.234375 
Q 47.125 39.59375 43.09375 43.984375 
Q 39.0625 48.390625 32.421875 48.390625 
Q 24.90625 48.390625 20.390625 44.140625 
Q 15.875 39.890625 15.1875 32.171875 
z
" id="DejaVuSans-101"/>
      <path d="M 52 44.1875 
Q 55.375 50.25 60.0625 53.125 
Q 64.75 56 71.09375 56 
Q 79.640625 56 84.28125 50.015625 
Q 88.921875 44.046875 88.921875 33.015625 
L 88.921875 0 
L 79.890625 0 
L 79.890625 32.71875 
Q 79.890625 40.578125 77.09375 44.375 
Q 74.3125 48.1875 68.609375 48.1875 
Q 61.625 48.1875 57.5625 43.546875 
Q 53.515625 38.921875 53.515625 30.90625 
L 53.515625 0 
L 44.484375 0 
L 44.484375 32.71875 
Q 44.484375 40.625 41.703125 44.40625 
Q 38.921875 48.1875 33.109375 48.1875 
Q 26.21875 48.1875 22.15625 43.53125 
Q 18.109375 38.875 18.109375 30.90625 
L 18.109375 0 
L 9.078125 0 
L 9.078125 54.6875 
L 18.109375 54.6875 
L 18.109375 46.1875 
Q 21.1875 51.21875 25.484375 53.609375 
Q 29.78125 56 35.6875 56 
Q 41.65625 56 45.828125 52.96875 
Q 50 49.953125 52 44.1875 
z
" id="DejaVuSans-109"/>
      <path d="M 18.109375 8.203125 
L 18.109375 -20.796875 
L 9.078125 -20.796875 
L 9.078125 54.6875 
L 18.109375 54.6875 
L 18.109375 46.390625 
Q 20.953125 51.265625 25.265625 53.625 
Q 29.59375 56 35.59375 56 
Q 45.5625 56 51.78125 48.09375 
Q 58.015625 40.1875 58.015625 27.296875 
Q 58.015625 14.40625 51.78125 6.484375 
Q 45.5625 -1.421875 35.59375 -1.421875 
Q 29.59375 -1.421875 25.265625 0.953125 
Q 20.953125 3.328125 18.109375 8.203125 
z
M 48.6875 27.296875 
Q 48.6875 37.203125 44.609375 42.84375 
Q 40.53125 48.484375 33.40625 48.484375 
Q 26.265625 48.484375 22.1875 42.84375 
Q 18.109375 37.203125 18.109375 27.296875 
Q 18.109375 17.390625 22.1875 11.75 
Q 26.265625 6.109375 33.40625 6.109375 
Q 40.53125 6.109375 44.609375 11.75 
Q 48.6875 17.390625 48.6875 27.296875 
z
" id="DejaVuSans-112"/>
      <path d="M 30.609375 48.390625 
Q 23.390625 48.390625 19.1875 42.75 
Q 14.984375 37.109375 14.984375 27.296875 
Q 14.984375 17.484375 19.15625 11.84375 
Q 23.34375 6.203125 30.609375 6.203125 
Q 37.796875 6.203125 41.984375 11.859375 
Q 46.1875 17.53125 46.1875 27.296875 
Q 46.1875 37.015625 41.984375 42.703125 
Q 37.796875 48.390625 30.609375 48.390625 
z
M 30.609375 56 
Q 42.328125 56 49.015625 48.375 
Q 55.71875 40.765625 55.71875 27.296875 
Q 55.71875 13.875 49.015625 6.21875 
Q 42.328125 -1.421875 30.609375 -1.421875 
Q 18.84375 -1.421875 12.171875 6.21875 
Q 5.515625 13.875 5.515625 27.296875 
Q 5.515625 40.765625 12.171875 48.375 
Q 18.84375 56 30.609375 56 
z
" id="DejaVuSans-111"/>
     </defs>
     <g transform="translate(245.298438 322.394687)scale(0.1 -0.1)">
      <use xlink:href="#DejaVuSans-84"/>
      <use x="44.083984" xlink:href="#DejaVuSans-101"/>
      <use x="105.607422" xlink:href="#DejaVuSans-109"/>
      <use x="203.019531" xlink:href="#DejaVuSans-112"/>
      <use x="266.496094" xlink:href="#DejaVuSans-111"/>
     </g>
    </g>
   </g>
   <g id="matplotlib.axis_2">
    <g id="ytick_1">
     <g id="line2d_12">
      <defs>
       <path d="M 0 0 
L -3.5 0 
" id="mcb2b0f099e" style="stroke:#000000;stroke-width:0.8;"/>
      </defs>
      <g>
       <use style="stroke:#000000;stroke-width:0.8;" x="38.482813" xlink:href="#mcb2b0f099e" y="268.151757"/>
      </g>
     </g>
     <g id="text_8">
      <!-- 0.5 -->
      <defs>
       <path d="M 10.59375 35.5 
L 73.1875 35.5 
L 73.1875 27.203125 
L 10.59375 27.203125 
z
" id="DejaVuSans-8722"/>
       <path d="M 10.6875 12.40625 
L 21 12.40625 
L 21 0 
L 10.6875 0 
z
" id="DejaVuSans-46"/>
      </defs>
      <g transform="translate(7.2 271.950976)scale(0.1 -0.1)">
       <use xlink:href="#DejaVuSans-8722"/>
       <use x="83.789062" xlink:href="#DejaVuSans-48"/>
       <use x="147.412109" xlink:href="#DejaVuSans-46"/>
       <use x="179.199219" xlink:href="#DejaVuSans-53"/>
      </g>
     </g>
    </g>
    <g id="ytick_2">
     <g id="line2d_13">
      <g>
       <use style="stroke:#000000;stroke-width:0.8;" x="38.482813" xlink:href="#mcb2b0f099e" y="224.643488"/>
      </g>
     </g>
     <g id="text_9">
      <!-- 0.0 -->
      <g transform="translate(15.579688 228.442707)scale(0.1 -0.1)">
       <use xlink:href="#DejaVuSans-48"/>
       <use x="63.623047" xlink:href="#DejaVuSans-46"/>
       <use x="95.410156" xlink:href="#DejaVuSans-48"/>
      </g>
     </g>
    </g>
    <g id="ytick_3">
     <g id="line2d_14">
      <g>
       <use style="stroke:#000000;stroke-width:0.8;" x="38.482813" xlink:href="#mcb2b0f099e" y="181.135218"/>
      </g>
     </g>
     <g id="text_10">
      <!-- 0.5 -->
      <g transform="translate(15.579688 184.934437)scale(0.1 -0.1)">
       <use xlink:href="#DejaVuSans-48"/>
       <use x="63.623047" xlink:href="#DejaVuSans-46"/>
       <use x="95.410156" xlink:href="#DejaVuSans-53"/>
      </g>
     </g>
    </g>
    <g id="ytick_4">
     <g id="line2d_15">
      <g>
       <use style="stroke:#000000;stroke-width:0.8;" x="38.482813" xlink:href="#mcb2b0f099e" y="137.626949"/>
      </g>
     </g>
     <g id="text_11">
      <!-- 1.0 -->
      <g transform="translate(15.579688 141.426168)scale(0.1 -0.1)">
       <use xlink:href="#DejaVuSans-49"/>
       <use x="63.623047" xlink:href="#DejaVuSans-46"/>
       <use x="95.410156" xlink:href="#DejaVuSans-48"/>
      </g>
     </g>
    </g>
    <g id="ytick_5">
     <g id="line2d_16">
      <g>
       <use style="stroke:#000000;stroke-width:0.8;" x="38.482813" xlink:href="#mcb2b0f099e" y="94.11868"/>
      </g>
     </g>
     <g id="text_12">
      <!-- 1.5 -->
      <g transform="translate(15.579688 97.917898)scale(0.1 -0.1)">
       <use xlink:href="#DejaVuSans-49"/>
       <use x="63.623047" xlink:href="#DejaVuSans-46"/>
       <use x="95.410156" xlink:href="#DejaVuSans-53"/>
      </g>
     </g>
    </g>
    <g id="ytick_6">
     <g id="line2d_17">
      <g>
       <use style="stroke:#000000;stroke-width:0.8;" x="38.482813" xlink:href="#mcb2b0f099e" y="50.61041"/>
      </g>
     </g>
     <g id="text_13">
      <!-- 2.0 -->
      <g transform="translate(15.579688 54.409629)scale(0.1 -0.1)">
       <use xlink:href="#DejaVuSans-50"/>
       <use x="63.623047" xlink:href="#DejaVuSans-46"/>
       <use x="95.410156" xlink:href="#DejaVuSans-48"/>
      </g>
     </g>
    </g>
   </g>
   <g id="patch_3">
    <path d="M 38.482813 294.118125 
L 38.482813 22.318125 
" style="fill:none;stroke:#000000;stroke-linecap:square;stroke-linejoin:miter;stroke-width:0.8;"/>
   </g>
   <g id="patch_4">
    <path d="M 38.482813 294.118125 
L 484.882812 294.118125 
" style="fill:none;stroke:#000000;stroke-linecap:square;stroke-linejoin:miter;stroke-width:0.8;"/>
   </g>
   <g id="text_14">
    <!-- Q -->
    <defs>
     <path d="M 39.40625 66.21875 
Q 28.65625 66.21875 22.328125 58.203125 
Q 16.015625 50.203125 16.015625 36.375 
Q 16.015625 22.609375 22.328125 14.59375 
Q 28.65625 6.59375 39.40625 6.59375 
Q 50.140625 6.59375 56.421875 14.59375 
Q 62.703125 22.609375 62.703125 36.375 
Q 62.703125 50.203125 56.421875 58.203125 
Q 50.140625 66.21875 39.40625 66.21875 
z
M 53.21875 1.3125 
L 66.21875 -12.890625 
L 54.296875 -12.890625 
L 43.5 -1.21875 
Q 41.890625 -1.3125 41.03125 -1.359375 
Q 40.1875 -1.421875 39.40625 -1.421875 
Q 24.03125 -1.421875 14.8125 8.859375 
Q 5.609375 19.140625 5.609375 36.375 
Q 5.609375 53.65625 14.8125 63.9375 
Q 24.03125 74.21875 39.40625 74.21875 
Q 54.734375 74.21875 63.90625 63.9375 
Q 73.09375 53.65625 73.09375 36.375 
Q 73.09375 23.6875 67.984375 14.640625 
Q 62.890625 5.609375 53.21875 1.3125 
z
" id="DejaVuSans-81"/>
    </defs>
    <g transform="translate(256.959688 16.318125)scale(0.12 -0.12)">
     <use xlink:href="#DejaVuSans-81"/>
    </g>
   </g>
   <g id="legend_1">
    <g id="patch_5">
     <path d="M 491.882812 196.413438 
L 625.442188 196.413438 
Q 627.442188 196.413438 627.442188 194.413438 
L 627.442188 122.022813 
Q 627.442188 120.022813 625.442188 120.022813 
L 491.882812 120.022813 
Q 489.882812 120.022813 489.882812 122.022813 
L 489.882812 194.413438 
Q 489.882812 196.413438 491.882812 196.413438 
z
" style="fill:#ffffff;opacity:0.8;stroke:#cccccc;stroke-linejoin:miter;"/>
    </g>
    <g id="line2d_18">
     <path d="M 493.882812 128.12125 
L 513.882812 128.12125 
" style="fill:none;stroke:#000000;stroke-dasharray:3.7,1.6;stroke-dashoffset:0;"/>
    </g>
    <g id="line2d_19"/>
    <g id="text_15">
     <!-- Baseline -->
     <defs>
      <path d="M 19.671875 34.8125 
L 19.671875 8.109375 
L 35.5 8.109375 
Q 43.453125 8.109375 47.28125 11.40625 
Q 51.125 14.703125 51.125 21.484375 
Q 51.125 28.328125 47.28125 31.5625 
Q 43.453125 34.8125 35.5 34.8125 
z
M 19.671875 64.796875 
L 19.671875 42.828125 
L 34.28125 42.828125 
Q 41.5 42.828125 45.03125 45.53125 
Q 48.578125 48.25 48.578125 53.8125 
Q 48.578125 59.328125 45.03125 62.0625 
Q 41.5 64.796875 34.28125 64.796875 
z
M 9.8125 72.90625 
L 35.015625 72.90625 
Q 46.296875 72.90625 52.390625 68.21875 
Q 58.5 63.53125 58.5 54.890625 
Q 58.5 48.1875 55.375 44.234375 
Q 52.25 40.28125 46.1875 39.3125 
Q 53.46875 37.75 57.5 32.78125 
Q 61.53125 27.828125 61.53125 20.40625 
Q 61.53125 10.640625 54.890625 5.3125 
Q 48.25 0 35.984375 0 
L 9.8125 0 
z
" id="DejaVuSans-66"/>
      <path d="M 34.28125 27.484375 
Q 23.390625 27.484375 19.1875 25 
Q 14.984375 22.515625 14.984375 16.5 
Q 14.984375 11.71875 18.140625 8.90625 
Q 21.296875 6.109375 26.703125 6.109375 
Q 34.1875 6.109375 38.703125 11.40625 
Q 43.21875 16.703125 43.21875 25.484375 
L 43.21875 27.484375 
z
M 52.203125 31.203125 
L 52.203125 0 
L 43.21875 0 
L 43.21875 8.296875 
Q 40.140625 3.328125 35.546875 0.953125 
Q 30.953125 -1.421875 24.3125 -1.421875 
Q 15.921875 -1.421875 10.953125 3.296875 
Q 6 8.015625 6 15.921875 
Q 6 25.140625 12.171875 29.828125 
Q 18.359375 34.515625 30.609375 34.515625 
L 43.21875 34.515625 
L 43.21875 35.40625 
Q 43.21875 41.609375 39.140625 45 
Q 35.0625 48.390625 27.6875 48.390625 
Q 23 48.390625 18.546875 47.265625 
Q 14.109375 46.140625 10.015625 43.890625 
L 10.015625 52.203125 
Q 14.9375 54.109375 19.578125 55.046875 
Q 24.21875 56 28.609375 56 
Q 40.484375 56 46.34375 49.84375 
Q 52.203125 43.703125 52.203125 31.203125 
z
" id="DejaVuSans-97"/>
      <path d="M 44.28125 53.078125 
L 44.28125 44.578125 
Q 40.484375 46.53125 36.375 47.5 
Q 32.28125 48.484375 27.875 48.484375 
Q 21.1875 48.484375 17.84375 46.4375 
Q 14.5 44.390625 14.5 40.28125 
Q 14.5 37.15625 16.890625 35.375 
Q 19.28125 33.59375 26.515625 31.984375 
L 29.59375 31.296875 
Q 39.15625 29.25 43.1875 25.515625 
Q 47.21875 21.78125 47.21875 15.09375 
Q 47.21875 7.46875 41.1875 3.015625 
Q 35.15625 -1.421875 24.609375 -1.421875 
Q 20.21875 -1.421875 15.453125 -0.5625 
Q 10.6875 0.296875 5.421875 2 
L 5.421875 11.28125 
Q 10.40625 8.6875 15.234375 7.390625 
Q 20.0625 6.109375 24.8125 6.109375 
Q 31.15625 6.109375 34.5625 8.28125 
Q 37.984375 10.453125 37.984375 14.40625 
Q 37.984375 18.0625 35.515625 20.015625 
Q 33.0625 21.96875 24.703125 23.78125 
L 21.578125 24.515625 
Q 13.234375 26.265625 9.515625 29.90625 
Q 5.8125 33.546875 5.8125 39.890625 
Q 5.8125 47.609375 11.28125 51.796875 
Q 16.75 56 26.8125 56 
Q 31.78125 56 36.171875 55.265625 
Q 40.578125 54.546875 44.28125 53.078125 
z
" id="DejaVuSans-115"/>
      <path d="M 9.421875 75.984375 
L 18.40625 75.984375 
L 18.40625 0 
L 9.421875 0 
z
" id="DejaVuSans-108"/>
      <path d="M 9.421875 54.6875 
L 18.40625 54.6875 
L 18.40625 0 
L 9.421875 0 
z
M 9.421875 75.984375 
L 18.40625 75.984375 
L 18.40625 64.59375 
L 9.421875 64.59375 
z
" id="DejaVuSans-105"/>
      <path d="M 54.890625 33.015625 
L 54.890625 0 
L 45.90625 0 
L 45.90625 32.71875 
Q 45.90625 40.484375 42.875 44.328125 
Q 39.84375 48.1875 33.796875 48.1875 
Q 26.515625 48.1875 22.3125 43.546875 
Q 18.109375 38.921875 18.109375 30.90625 
L 18.109375 0 
L 9.078125 0 
L 9.078125 54.6875 
L 18.109375 54.6875 
L 18.109375 46.1875 
Q 21.34375 51.125 25.703125 53.5625 
Q 30.078125 56 35.796875 56 
Q 45.21875 56 50.046875 50.171875 
Q 54.890625 44.34375 54.890625 33.015625 
z
" id="DejaVuSans-110"/>
     </defs>
     <g transform="translate(521.882812 131.62125)scale(0.1 -0.1)">
      <use xlink:href="#DejaVuSans-66"/>
      <use x="68.603516" xlink:href="#DejaVuSans-97"/>
      <use x="129.882812" xlink:href="#DejaVuSans-115"/>
      <use x="181.982422" xlink:href="#DejaVuSans-101"/>
      <use x="243.505859" xlink:href="#DejaVuSans-108"/>
      <use x="271.289062" xlink:href="#DejaVuSans-105"/>
      <use x="299.072266" xlink:href="#DejaVuSans-110"/>
      <use x="362.451172" xlink:href="#DejaVuSans-101"/>
     </g>
    </g>
    <g id="line2d_20">
     <path d="M 493.882812 142.799375 
L 513.882812 142.799375 
" style="fill:none;stroke:#1f77b4;stroke-linecap:square;stroke-width:1.5;"/>
    </g>
    <g id="line2d_21"/>
    <g id="text_16">
     <!-- $\Uparrow$ acesso crdito -->
     <defs>
      <path d="M 36.765625 58.59375 
L 36.765625 0 
L 30.90625 0 
L 30.90625 52.734375 
L 26.421875 48.140625 
L 20.5625 54 
L 39.703125 73.25 
L 44.09375 73.25 
L 63.328125 54 
L 57.46875 48.140625 
L 52.875 52.734375 
L 52.875 0 
L 47.015625 0 
L 47.015625 58.59375 
L 41.9375 63.671875 
z
" id="DejaVuSans-8657"/>
      <path id="DejaVuSans-32"/>
      <path d="M 48.78125 52.59375 
L 48.78125 44.1875 
Q 44.96875 46.296875 41.140625 47.34375 
Q 37.3125 48.390625 33.40625 48.390625 
Q 24.65625 48.390625 19.8125 42.84375 
Q 14.984375 37.3125 14.984375 27.296875 
Q 14.984375 17.28125 19.8125 11.734375 
Q 24.65625 6.203125 33.40625 6.203125 
Q 37.3125 6.203125 41.140625 7.25 
Q 44.96875 8.296875 48.78125 10.40625 
L 48.78125 2.09375 
Q 45.015625 0.34375 40.984375 -0.53125 
Q 36.96875 -1.421875 32.421875 -1.421875 
Q 20.0625 -1.421875 12.78125 6.34375 
Q 5.515625 14.109375 5.515625 27.296875 
Q 5.515625 40.671875 12.859375 48.328125 
Q 20.21875 56 33.015625 56 
Q 37.15625 56 41.109375 55.140625 
Q 45.0625 54.296875 48.78125 52.59375 
z
" id="DejaVuSans-99"/>
      <path d="M 41.109375 46.296875 
Q 39.59375 47.171875 37.8125 47.578125 
Q 36.03125 48 33.890625 48 
Q 26.265625 48 22.1875 43.046875 
Q 18.109375 38.09375 18.109375 28.8125 
L 18.109375 0 
L 9.078125 0 
L 9.078125 54.6875 
L 18.109375 54.6875 
L 18.109375 46.1875 
Q 20.953125 51.171875 25.484375 53.578125 
Q 30.03125 56 36.53125 56 
Q 37.453125 56 38.578125 55.875 
Q 39.703125 55.765625 41.0625 55.515625 
z
" id="DejaVuSans-114"/>
      <path d="M 56.203125 29.59375 
L 56.203125 25.203125 
L 14.890625 25.203125 
Q 15.484375 15.921875 20.484375 11.0625 
Q 25.484375 6.203125 34.421875 6.203125 
Q 39.59375 6.203125 44.453125 7.46875 
Q 49.3125 8.734375 54.109375 11.28125 
L 54.109375 2.78125 
Q 49.265625 0.734375 44.1875 -0.34375 
Q 39.109375 -1.421875 33.890625 -1.421875 
Q 20.796875 -1.421875 13.15625 6.1875 
Q 5.515625 13.8125 5.515625 26.8125 
Q 5.515625 40.234375 12.765625 48.109375 
Q 20.015625 56 32.328125 56 
Q 43.359375 56 49.78125 48.890625 
Q 56.203125 41.796875 56.203125 29.59375 
z
M 47.21875 32.234375 
Q 47.125 39.59375 43.09375 43.984375 
Q 39.0625 48.390625 32.421875 48.390625 
Q 24.90625 48.390625 20.390625 44.140625 
Q 15.875 39.890625 15.1875 32.171875 
z
M 38.53125 79.984375 
L 48.25 79.984375 
L 32.34375 61.625 
L 24.859375 61.625 
z
" id="DejaVuSans-233"/>
      <path d="M 45.40625 46.390625 
L 45.40625 75.984375 
L 54.390625 75.984375 
L 54.390625 0 
L 45.40625 0 
L 45.40625 8.203125 
Q 42.578125 3.328125 38.25 0.953125 
Q 33.9375 -1.421875 27.875 -1.421875 
Q 17.96875 -1.421875 11.734375 6.484375 
Q 5.515625 14.40625 5.515625 27.296875 
Q 5.515625 40.1875 11.734375 48.09375 
Q 17.96875 56 27.875 56 
Q 33.9375 56 38.25 53.625 
Q 42.578125 51.265625 45.40625 46.390625 
z
M 14.796875 27.296875 
Q 14.796875 17.390625 18.875 11.75 
Q 22.953125 6.109375 30.078125 6.109375 
Q 37.203125 6.109375 41.296875 11.75 
Q 45.40625 17.390625 45.40625 27.296875 
Q 45.40625 37.203125 41.296875 42.84375 
Q 37.203125 48.484375 30.078125 48.484375 
Q 22.953125 48.484375 18.875 42.84375 
Q 14.796875 37.203125 14.796875 27.296875 
z
" id="DejaVuSans-100"/>
      <path d="M 18.3125 70.21875 
L 18.3125 54.6875 
L 36.8125 54.6875 
L 36.8125 47.703125 
L 18.3125 47.703125 
L 18.3125 18.015625 
Q 18.3125 11.328125 20.140625 9.421875 
Q 21.96875 7.515625 27.59375 7.515625 
L 36.8125 7.515625 
L 36.8125 0 
L 27.59375 0 
Q 17.1875 0 13.234375 3.875 
Q 9.28125 7.765625 9.28125 18.015625 
L 9.28125 47.703125 
L 2.6875 47.703125 
L 2.6875 54.6875 
L 9.28125 54.6875 
L 9.28125 70.21875 
z
" id="DejaVuSans-116"/>
     </defs>
     <g transform="translate(521.882812 146.299375)scale(0.1 -0.1)">
      <use transform="translate(19.482422 0.015625)" xlink:href="#DejaVuSans-8657"/>
      <use transform="translate(122.753906 0.015625)" xlink:href="#DejaVuSans-32"/>
      <use transform="translate(154.541016 0.015625)" xlink:href="#DejaVuSans-97"/>
      <use transform="translate(215.820312 0.015625)" xlink:href="#DejaVuSans-99"/>
      <use transform="translate(270.800781 0.015625)" xlink:href="#DejaVuSans-101"/>
      <use transform="translate(332.324219 0.015625)" xlink:href="#DejaVuSans-115"/>
      <use transform="translate(384.423828 0.015625)" xlink:href="#DejaVuSans-115"/>
      <use transform="translate(436.523438 0.015625)" xlink:href="#DejaVuSans-111"/>
      <use transform="translate(497.705078 0.015625)" xlink:href="#DejaVuSans-32"/>
      <use transform="translate(529.492188 0.015625)" xlink:href="#DejaVuSans-99"/>
      <use transform="translate(584.472656 0.015625)" xlink:href="#DejaVuSans-114"/>
      <use transform="translate(625.585938 0.015625)" xlink:href="#DejaVuSans-233"/>
      <use transform="translate(687.109375 0.015625)" xlink:href="#DejaVuSans-100"/>
      <use transform="translate(750.585938 0.015625)" xlink:href="#DejaVuSans-105"/>
      <use transform="translate(778.369141 0.015625)" xlink:href="#DejaVuSans-116"/>
      <use transform="translate(817.578125 0.015625)" xlink:href="#DejaVuSans-111"/>
     </g>
    </g>
    <g id="line2d_22">
     <path d="M 493.882812 157.4775 
L 513.882812 157.4775 
" style="fill:none;stroke:#ff7f0e;stroke-linecap:square;stroke-width:1.5;"/>
    </g>
    <g id="line2d_23"/>
    <g id="text_17">
     <!-- Sem renda bsica -->
     <defs>
      <path d="M 53.515625 70.515625 
L 53.515625 60.890625 
Q 47.90625 63.578125 42.921875 64.890625 
Q 37.9375 66.21875 33.296875 66.21875 
Q 25.25 66.21875 20.875 63.09375 
Q 16.5 59.96875 16.5 54.203125 
Q 16.5 49.359375 19.40625 46.890625 
Q 22.3125 44.4375 30.421875 42.921875 
L 36.375 41.703125 
Q 47.40625 39.59375 52.65625 34.296875 
Q 57.90625 29 57.90625 20.125 
Q 57.90625 9.515625 50.796875 4.046875 
Q 43.703125 -1.421875 29.984375 -1.421875 
Q 24.8125 -1.421875 18.96875 -0.25 
Q 13.140625 0.921875 6.890625 3.21875 
L 6.890625 13.375 
Q 12.890625 10.015625 18.65625 8.296875 
Q 24.421875 6.59375 29.984375 6.59375 
Q 38.421875 6.59375 43.015625 9.90625 
Q 47.609375 13.234375 47.609375 19.390625 
Q 47.609375 24.75 44.3125 27.78125 
Q 41.015625 30.8125 33.5 32.328125 
L 27.484375 33.5 
Q 16.453125 35.6875 11.515625 40.375 
Q 6.59375 45.0625 6.59375 53.421875 
Q 6.59375 63.09375 13.40625 68.65625 
Q 20.21875 74.21875 32.171875 74.21875 
Q 37.3125 74.21875 42.625 73.28125 
Q 47.953125 72.359375 53.515625 70.515625 
z
" id="DejaVuSans-83"/>
      <path d="M 48.6875 27.296875 
Q 48.6875 37.203125 44.609375 42.84375 
Q 40.53125 48.484375 33.40625 48.484375 
Q 26.265625 48.484375 22.1875 42.84375 
Q 18.109375 37.203125 18.109375 27.296875 
Q 18.109375 17.390625 22.1875 11.75 
Q 26.265625 6.109375 33.40625 6.109375 
Q 40.53125 6.109375 44.609375 11.75 
Q 48.6875 17.390625 48.6875 27.296875 
z
M 18.109375 46.390625 
Q 20.953125 51.265625 25.265625 53.625 
Q 29.59375 56 35.59375 56 
Q 45.5625 56 51.78125 48.09375 
Q 58.015625 40.1875 58.015625 27.296875 
Q 58.015625 14.40625 51.78125 6.484375 
Q 45.5625 -1.421875 35.59375 -1.421875 
Q 29.59375 -1.421875 25.265625 0.953125 
Q 20.953125 3.328125 18.109375 8.203125 
L 18.109375 0 
L 9.078125 0 
L 9.078125 75.984375 
L 18.109375 75.984375 
z
" id="DejaVuSans-98"/>
      <path d="M 34.28125 27.484375 
Q 23.390625 27.484375 19.1875 25 
Q 14.984375 22.515625 14.984375 16.5 
Q 14.984375 11.71875 18.140625 8.90625 
Q 21.296875 6.109375 26.703125 6.109375 
Q 34.1875 6.109375 38.703125 11.40625 
Q 43.21875 16.703125 43.21875 25.484375 
L 43.21875 27.484375 
z
M 52.203125 31.203125 
L 52.203125 0 
L 43.21875 0 
L 43.21875 8.296875 
Q 40.140625 3.328125 35.546875 0.953125 
Q 30.953125 -1.421875 24.3125 -1.421875 
Q 15.921875 -1.421875 10.953125 3.296875 
Q 6 8.015625 6 15.921875 
Q 6 25.140625 12.171875 29.828125 
Q 18.359375 34.515625 30.609375 34.515625 
L 43.21875 34.515625 
L 43.21875 35.40625 
Q 43.21875 41.609375 39.140625 45 
Q 35.0625 48.390625 27.6875 48.390625 
Q 23 48.390625 18.546875 47.265625 
Q 14.109375 46.140625 10.015625 43.890625 
L 10.015625 52.203125 
Q 14.9375 54.109375 19.578125 55.046875 
Q 24.21875 56 28.609375 56 
Q 40.484375 56 46.34375 49.84375 
Q 52.203125 43.703125 52.203125 31.203125 
z
M 35.78125 79.984375 
L 45.5 79.984375 
L 29.59375 61.625 
L 22.109375 61.625 
z
" id="DejaVuSans-225"/>
     </defs>
     <g transform="translate(521.882812 160.9775)scale(0.1 -0.1)">
      <use xlink:href="#DejaVuSans-83"/>
      <use x="63.476562" xlink:href="#DejaVuSans-101"/>
      <use x="125" xlink:href="#DejaVuSans-109"/>
      <use x="222.412109" xlink:href="#DejaVuSans-32"/>
      <use x="254.199219" xlink:href="#DejaVuSans-114"/>
      <use x="293.0625" xlink:href="#DejaVuSans-101"/>
      <use x="354.585938" xlink:href="#DejaVuSans-110"/>
      <use x="417.964844" xlink:href="#DejaVuSans-100"/>
      <use x="481.441406" xlink:href="#DejaVuSans-97"/>
      <use x="542.720703" xlink:href="#DejaVuSans-32"/>
      <use x="574.507812" xlink:href="#DejaVuSans-98"/>
      <use x="637.984375" xlink:href="#DejaVuSans-225"/>
      <use x="699.263672" xlink:href="#DejaVuSans-115"/>
      <use x="751.363281" xlink:href="#DejaVuSans-105"/>
      <use x="779.146484" xlink:href="#DejaVuSans-99"/>
      <use x="834.126953" xlink:href="#DejaVuSans-97"/>
     </g>
    </g>
    <g id="line2d_24">
     <path d="M 493.882812 172.155625 
L 513.882812 172.155625 
" style="fill:none;stroke:#2ca02c;stroke-linecap:square;stroke-width:1.5;"/>
    </g>
    <g id="line2d_25"/>
    <g id="text_18">
     <!-- $\Uparrow$ salrio mnimo -->
     <defs>
      <path d="M 20.65625 79.984375 
L 30.375 79.984375 
L 14.46875 61.625 
L 6.984375 61.625 
z
M 9.421875 54.6875 
L 18.40625 54.6875 
L 18.40625 0 
L 9.421875 0 
z
M 13.921875 56 
z
" id="DejaVuSans-237"/>
     </defs>
     <g transform="translate(521.882812 175.655625)scale(0.1 -0.1)">
      <use transform="translate(19.482422 0.015625)" xlink:href="#DejaVuSans-8657"/>
      <use transform="translate(122.753906 0.015625)" xlink:href="#DejaVuSans-32"/>
      <use transform="translate(154.541016 0.015625)" xlink:href="#DejaVuSans-115"/>
      <use transform="translate(206.640625 0.015625)" xlink:href="#DejaVuSans-97"/>
      <use transform="translate(267.919922 0.015625)" xlink:href="#DejaVuSans-108"/>
      <use transform="translate(295.703125 0.015625)" xlink:href="#DejaVuSans-225"/>
      <use transform="translate(356.982422 0.015625)" xlink:href="#DejaVuSans-114"/>
      <use transform="translate(398.095703 0.015625)" xlink:href="#DejaVuSans-105"/>
      <use transform="translate(425.878906 0.015625)" xlink:href="#DejaVuSans-111"/>
      <use transform="translate(487.060547 0.015625)" xlink:href="#DejaVuSans-32"/>
      <use transform="translate(518.847656 0.015625)" xlink:href="#DejaVuSans-109"/>
      <use transform="translate(616.259766 0.015625)" xlink:href="#DejaVuSans-237"/>
      <use transform="translate(644.042969 0.015625)" xlink:href="#DejaVuSans-110"/>
      <use transform="translate(707.421875 0.015625)" xlink:href="#DejaVuSans-105"/>
      <use transform="translate(735.205078 0.015625)" xlink:href="#DejaVuSans-109"/>
      <use transform="translate(832.617188 0.015625)" xlink:href="#DejaVuSans-111"/>
     </g>
    </g>
    <g id="line2d_26">
     <path d="M 493.882812 186.83375 
L 513.882812 186.83375 
" style="fill:none;stroke:#d62728;stroke-linecap:square;stroke-width:1.5;"/>
    </g>
    <g id="line2d_27"/>
    <g id="text_19">
     <!-- Imposto progressivo -->
     <defs>
      <path d="M 9.8125 72.90625 
L 19.671875 72.90625 
L 19.671875 0 
L 9.8125 0 
z
" id="DejaVuSans-73"/>
      <path d="M 45.40625 27.984375 
Q 45.40625 37.75 41.375 43.109375 
Q 37.359375 48.484375 30.078125 48.484375 
Q 22.859375 48.484375 18.828125 43.109375 
Q 14.796875 37.75 14.796875 27.984375 
Q 14.796875 18.265625 18.828125 12.890625 
Q 22.859375 7.515625 30.078125 7.515625 
Q 37.359375 7.515625 41.375 12.890625 
Q 45.40625 18.265625 45.40625 27.984375 
z
M 54.390625 6.78125 
Q 54.390625 -7.171875 48.1875 -13.984375 
Q 42 -20.796875 29.203125 -20.796875 
Q 24.46875 -20.796875 20.265625 -20.09375 
Q 16.0625 -19.390625 12.109375 -17.921875 
L 12.109375 -9.1875 
Q 16.0625 -11.328125 19.921875 -12.34375 
Q 23.78125 -13.375 27.78125 -13.375 
Q 36.625 -13.375 41.015625 -8.765625 
Q 45.40625 -4.15625 45.40625 5.171875 
L 45.40625 9.625 
Q 42.625 4.78125 38.28125 2.390625 
Q 33.9375 0 27.875 0 
Q 17.828125 0 11.671875 7.65625 
Q 5.515625 15.328125 5.515625 27.984375 
Q 5.515625 40.671875 11.671875 48.328125 
Q 17.828125 56 27.875 56 
Q 33.9375 56 38.28125 53.609375 
Q 42.625 51.21875 45.40625 46.390625 
L 45.40625 54.6875 
L 54.390625 54.6875 
z
" id="DejaVuSans-103"/>
      <path d="M 2.984375 54.6875 
L 12.5 54.6875 
L 29.59375 8.796875 
L 46.6875 54.6875 
L 56.203125 54.6875 
L 35.6875 0 
L 23.484375 0 
z
" id="DejaVuSans-118"/>
     </defs>
     <g transform="translate(521.882812 190.33375)scale(0.1 -0.1)">
      <use xlink:href="#DejaVuSans-73"/>
      <use x="29.492188" xlink:href="#DejaVuSans-109"/>
      <use x="126.904297" xlink:href="#DejaVuSans-112"/>
      <use x="190.380859" xlink:href="#DejaVuSans-111"/>
      <use x="251.5625" xlink:href="#DejaVuSans-115"/>
      <use x="303.662109" xlink:href="#DejaVuSans-116"/>
      <use x="342.871094" xlink:href="#DejaVuSans-111"/>
      <use x="404.052734" xlink:href="#DejaVuSans-32"/>
      <use x="435.839844" xlink:href="#DejaVuSans-112"/>
      <use x="499.316406" xlink:href="#DejaVuSans-114"/>
      <use x="538.179688" xlink:href="#DejaVuSans-111"/>
      <use x="599.361328" xlink:href="#DejaVuSans-103"/>
      <use x="662.837891" xlink:href="#DejaVuSans-114"/>
      <use x="701.701172" xlink:href="#DejaVuSans-101"/>
      <use x="763.224609" xlink:href="#DejaVuSans-115"/>
      <use x="815.324219" xlink:href="#DejaVuSans-115"/>
      <use x="867.423828" xlink:href="#DejaVuSans-105"/>
      <use x="895.207031" xlink:href="#DejaVuSans-118"/>
      <use x="954.386719" xlink:href="#DejaVuSans-111"/>
     </g>
    </g>
   </g>
  </g>
 </g>
 <defs>
  <clipPath id="p27e8b1a449">
   <rect height="271.8" width="446.4" x="38.482813" y="22.318125"/>
  </clipPath>
 </defs>
</svg>
