<?xml version="1.0" encoding="utf-8" standalone="no"?>
<!DOCTYPE svg PUBLIC "-//W3C//DTD SVG 1.1//EN"
  "http://www.w3.org/Graphics/SVG/1.1/DTD/svg11.dtd">
<!-- Created with matplotlib (https://matplotlib.org/) -->
<svg height="331.674375pt" version="1.1" viewBox="0 0 656.914062 331.674375" width="656.914062pt" xmlns="http://www.w3.org/2000/svg" xmlns:xlink="http://www.w3.org/1999/xlink">
 <defs>
  <style type="text/css">
*{stroke-linecap:butt;stroke-linejoin:round;}
  </style>
 </defs>
 <g id="figure_1">
  <g id="patch_1">
   <path d="M 0 331.674375 
L 656.914062 331.674375 
L 656.914062 0 
L 0 0 
z
" style="fill:#ffffff;"/>
  </g>
  <g id="axes_1">
   <g id="patch_2">
    <path d="M 60.754688 294.118125 
L 507.154687 294.118125 
L 507.154687 22.318125 
L 60.754688 22.318125 
z
" style="fill:#ffffff;"/>
   </g>
   <g id="line2d_1">
    <path clip-path="url(#p631bf12ced)" d="M 81.045597 46.456156 
L 83.223512 47.928507 
L 84.675455 48.627028 
L 86.127399 49.525991 
L 86.85337 50.059922 
L 87.579342 50.363644 
L 88.305314 50.789313 
L 89.031285 51.473191 
L 90.483229 52.138298 
L 92.661144 53.521428 
L 93.387116 54.339086 
L 94.113087 54.507953 
L 95.565031 55.420994 
L 97.742946 56.732075 
L 98.468917 57.367611 
L 99.194889 57.713783 
L 99.920861 58.444149 
L 100.646833 58.715371 
L 103.550719 60.745207 
L 104.276691 61.122572 
L 105.728634 62.16006 
L 110.810436 65.419343 
L 111.536408 66.014776 
L 112.26238 66.309483 
L 112.988352 66.998205 
L 113.714323 67.2698 
L 114.440295 67.682352 
L 115.166267 68.348807 
L 115.892238 68.610691 
L 127.507786 76.065043 
L 128.959729 76.824208 
L 131.137644 78.344096 
L 131.863616 78.715675 
L 132.589587 79.373015 
L 133.315559 79.671415 
L 137.671389 82.418433 
L 138.397361 83.021108 
L 139.123333 83.270034 
L 140.575276 84.1573 
L 141.301248 84.830802 
L 142.02722 85.105271 
L 144.205135 86.464818 
L 147.834993 88.581734 
L 149.286937 89.379721 
L 150.012908 90.093467 
L 150.73888 90.313044 
L 151.464852 90.9238 
L 152.190823 91.235164 
L 153.642767 92.208972 
L 155.820682 93.683844 
L 156.546654 93.946001 
L 160.176512 96.143258 
L 160.902484 96.495643 
L 161.628456 97.018421 
L 162.354427 97.366151 
L 163.080399 97.95505 
L 164.532342 98.644878 
L 165.984286 99.466179 
L 166.710258 99.780515 
L 170.340116 102.082573 
L 171.792059 102.830958 
L 177.599833 106.298537 
L 178.325805 106.546999 
L 179.051776 106.95002 
L 179.777748 107.606855 
L 181.229692 108.184957 
L 184.133578 109.977298 
L 184.85955 110.303786 
L 185.585522 110.826613 
L 187.037465 111.654796 
L 187.763437 112.076721 
L 188.489409 112.746544 
L 189.21538 112.981311 
L 192.845239 115.081147 
L 193.571211 115.683386 
L 194.297182 115.920779 
L 195.023154 116.325472 
L 196.475097 117.258347 
L 198.653012 118.486522 
L 199.378984 119.072474 
L 200.830928 119.865138 
L 203.008843 121.189254 
L 203.734814 121.837003 
L 204.460786 122.200383 
L 205.186758 122.711982 
L 205.912729 123.390002 
L 206.638701 123.690985 
L 207.364673 124.279951 
L 209.542588 125.585191 
L 210.994531 126.633242 
L 212.446475 127.519277 
L 231.321739 139.13344 
L 232.773682 139.928947 
L 235.677569 141.685214 
L 241.485343 145.148465 
L 242.211315 145.512652 
L 242.937286 146.161921 
L 243.663258 146.4808 
L 244.38923 146.958462 
L 245.115201 147.589168 
L 245.841173 147.888328 
L 248.019088 149.324652 
L 248.74506 149.675873 
L 250.197003 150.613249 
L 250.922975 151.046588 
L 251.648947 151.708403 
L 253.10089 152.390855 
L 253.826862 153.126843 
L 254.552834 153.348528 
L 255.278805 153.751548 
L 256.730749 154.727687 
L 258.182692 155.642048 
L 258.908664 156.143337 
L 260.360607 156.896761 
L 261.086579 157.597983 
L 261.812551 157.820674 
L 263.264494 158.661143 
L 267.620324 161.263746 
L 278.5099 167.971386 
L 279.235871 168.567586 
L 279.961843 168.868314 
L 284.317673 171.627654 
L 287.22156 173.228797 
L 290.125447 175.091253 
L 290.851419 175.491913 
L 291.57739 176.129505 
L 292.303362 176.421489 
L 293.755305 177.367614 
L 294.481277 177.684476 
L 295.207249 178.202208 
L 295.933221 178.51314 
L 297.385164 179.448256 
L 298.111136 179.801939 
L 298.837107 180.320019 
L 300.289051 181.163568 
L 301.015023 181.6042 
L 301.740994 182.181298 
L 303.192938 182.837883 
L 303.918909 183.346745 
L 304.644881 183.637373 
L 305.370853 184.222592 
L 306.822796 184.918045 
L 307.548768 185.479467 
L 309.726683 186.739857 
L 312.63057 188.463352 
L 313.356541 189.03549 
L 314.808485 189.812902 
L 320.616258 193.517009 
L 322.794174 194.625191 
L 323.520145 195.179901 
L 324.972089 195.949528 
L 325.69806 196.317288 
L 326.424032 196.910967 
L 327.150004 197.199805 
L 333.683749 201.400346 
L 334.409721 201.923357 
L 335.135693 202.232204 
L 336.587636 203.086516 
L 337.313608 203.490575 
L 339.491523 205.011133 
L 340.217494 205.319354 
L 342.39541 206.682029 
L 347.477211 209.954303 
L 348.203183 210.306664 
L 348.929155 210.847798 
L 350.381098 211.56148 
L 351.10707 212.06703 
L 351.833042 212.394338 
L 353.284985 213.270935 
L 355.4629 214.669146 
L 356.914844 215.498053 
L 358.366787 216.33413 
L 359.81873 217.068494 
L 361.270674 217.911714 
L 361.996646 218.473133 
L 362.722617 218.780656 
L 364.900532 220.202748 
L 365.626504 220.772989 
L 366.352476 221.002644 
L 367.804419 221.891062 
L 369.982334 223.232075 
L 371.434278 224.155336 
L 372.160249 224.492462 
L 373.612193 225.404086 
L 375.790108 226.692142 
L 377.242051 227.552661 
L 378.693995 228.359748 
L 380.145938 229.219602 
L 385.22774 232.103798 
L 387.405655 233.186168 
L 389.58357 234.500384 
L 393.213429 236.661909 
L 393.9394 236.988484 
L 394.665372 237.453846 
L 396.117316 238.212135 
L 396.843287 238.659514 
L 397.569259 238.946135 
L 398.295231 239.437834 
L 399.021202 239.665546 
L 401.199117 240.823875 
L 402.651061 241.64391 
L 404.103004 242.365284 
L 406.280919 243.448694 
L 408.458835 244.575123 
L 409.910778 245.236945 
L 411.362721 245.928311 
L 412.814665 246.688309 
L 414.266608 247.461069 
L 418.622438 249.636593 
L 419.34841 250.097393 
L 420.800353 250.738801 
L 422.978269 251.805734 
L 426.608127 253.664062 
L 428.786042 254.873873 
L 430.963957 256.119625 
L 433.867844 257.458167 
L 437.497703 259.202059 
L 438.949646 259.888406 
L 440.401589 260.654955 
L 447.661306 264.101903 
L 449.11325 264.855414 
L 450.565193 265.60365 
L 452.017137 266.384909 
L 454.195052 267.556513 
L 455.646995 268.273565 
L 470.166429 274.395994 
L 472.344344 275.417299 
L 475.248231 276.839129 
L 479.604061 278.723869 
L 482.507948 280.035968 
L 483.959892 280.647936 
L 485.411835 281.336084 
L 486.863778 281.76358 
L 486.863778 281.76358 
" style="fill:none;stroke:#1f77b4;stroke-linecap:square;stroke-width:1.5;"/>
   </g>
   <g id="line2d_2">
    <path clip-path="url(#p631bf12ced)" d="M 81.045597 35.19646 
L 82.49754 35.625879 
L 83.223512 35.968543 
L 83.949483 36.059688 
L 85.401427 36.469744 
L 86.127399 37.017672 
L 86.85337 37.021167 
L 90.483229 38.075159 
L 91.2092 38.586128 
L 91.935172 38.587296 
L 94.839059 39.452677 
L 95.565031 39.882684 
L 96.291002 39.979114 
L 97.016974 40.432746 
L 97.742946 40.472137 
L 107.90655 43.584069 
L 110.810436 44.317392 
L 111.536408 44.659429 
L 112.988352 44.987511 
L 114.440295 45.485481 
L 115.892238 45.860391 
L 116.61821 46.022914 
L 117.344182 46.354137 
L 118.796125 46.711952 
L 119.522097 47.02987 
L 121.700012 47.621931 
L 122.425984 48.127963 
L 123.151955 48.218339 
L 129.685701 50.406225 
L 130.411672 50.453702 
L 134.767503 51.731061 
L 141.301248 53.683305 
L 144.931106 54.759516 
L 147.109022 55.464447 
L 149.286937 56.020161 
L 150.012908 56.595608 
L 150.73888 56.52967 
L 152.190823 56.969586 
L 152.916795 57.544686 
L 153.642767 57.572827 
L 155.09471 58.066722 
L 163.806371 60.702247 
L 164.532342 61.185955 
L 165.258314 61.218857 
L 165.984286 61.70194 
L 166.710258 61.684607 
L 176.14789 64.788628 
L 176.873861 65.119125 
L 177.599833 65.100754 
L 181.229692 66.485242 
L 181.955663 66.563392 
L 184.133578 67.355106 
L 187.763437 68.689327 
L 189.21538 69.124821 
L 192.119267 70.178583 
L 194.297182 70.626713 
L 197.201069 71.646266 
L 201.556899 73.158599 
L 203.734814 74.109547 
L 204.460786 74.134367 
L 206.638701 74.94588 
L 207.364673 75.342925 
L 208.090645 75.491994 
L 213.898418 77.741206 
L 214.62439 77.713468 
L 218.254248 78.941113 
L 220.432164 79.70998 
L 222.610079 80.458357 
L 235.677569 84.841469 
L 236.403541 84.929002 
L 237.855484 85.394074 
L 238.581456 85.726257 
L 240.033399 86.133728 
L 245.841173 88.172483 
L 246.567145 88.299789 
L 250.197003 89.448896 
L 255.278805 90.983143 
L 256.004777 91.411403 
L 256.730749 91.388627 
L 257.45672 91.559963 
L 258.182692 91.897472 
L 258.908664 92.035724 
L 261.812551 93.06167 
L 263.264494 93.481896 
L 278.5099 98.45322 
L 284.317673 100.419929 
L 285.043645 100.569612 
L 285.769617 100.874885 
L 287.22156 101.249179 
L 291.57739 102.825809 
L 293.029334 103.107254 
L 295.207249 103.859358 
L 295.933221 104.211699 
L 296.659192 104.305642 
L 298.837107 105.057513 
L 306.822796 107.563364 
L 307.548768 107.560673 
L 311.178626 108.613978 
L 314.808485 109.943546 
L 316.260428 110.355019 
L 325.69806 113.371804 
L 326.424032 113.476098 
L 327.150004 113.819916 
L 327.875976 113.83972 
L 332.231806 115.116925 
L 336.587636 116.633001 
L 338.039579 117.055939 
L 344.573325 118.946788 
L 345.299296 119.250679 
L 346.75124 119.644512 
L 349.655127 120.5497 
L 351.833042 121.136748 
L 354.010957 121.689492 
L 355.4629 122.003703 
L 359.81873 123.470304 
L 360.544702 123.583318 
L 364.900532 125.002217 
L 367.804419 125.606623 
L 370.708306 126.437041 
L 371.434278 126.498653 
L 373.612193 127.173414 
L 375.064136 127.702954 
L 376.51608 128.174056 
L 377.242051 128.435072 
L 378.693995 128.722839 
L 380.87191 129.352427 
L 385.953712 130.865336 
L 387.405655 131.061091 
L 389.58357 131.830822 
L 391.035514 132.264707 
L 393.9394 132.876983 
L 398.295231 134.168312 
L 399.021202 134.256417 
L 407.732863 136.721927 
L 409.184806 136.882886 
L 411.362721 137.373491 
L 414.266608 138.25239 
L 416.444523 138.922874 
L 417.896467 139.284298 
L 420.074382 140.002544 
L 423.70424 140.690602 
L 425.882155 141.327286 
L 427.334099 141.49712 
L 428.786042 141.888854 
L 429.512014 141.975257 
L 431.689929 142.549258 
L 433.141872 142.928207 
L 433.867844 143.161659 
L 435.319788 143.411477 
L 437.497703 143.932313 
L 438.223674 143.915779 
L 440.401589 144.405007 
L 443.305476 145.03509 
L 444.031448 145.245039 
L 445.483391 145.508896 
L 451.291165 146.461941 
L 456.372967 147.753945 
L 458.550882 147.949643 
L 460.728797 148.089427 
L 461.454769 148.132274 
L 462.180741 148.302501 
L 463.632684 148.345911 
L 465.810599 148.936304 
L 467.988514 149.246875 
L 469.440458 149.600064 
L 470.166429 149.599032 
L 470.892401 149.740846 
L 473.070316 149.898812 
L 475.974203 150.594571 
L 478.152118 150.998978 
L 478.87809 150.962433 
L 480.330033 151.43424 
L 481.781976 151.396224 
L 483.23392 151.570503 
L 483.959892 151.720886 
L 486.137807 151.70294 
L 486.863778 151.613196 
L 486.863778 151.613196 
" style="fill:none;stroke:#ff7f0e;stroke-linecap:square;stroke-width:1.5;"/>
   </g>
   <g id="line2d_3">
    <path clip-path="url(#p631bf12ced)" d="M 81.045597 34.901869 
L 81.771568 35.210914 
L 82.49754 35.300584 
L 93.387116 39.601688 
L 94.113087 39.717383 
L 94.839059 40.069765 
L 95.565031 40.093014 
L 97.742946 40.91808 
L 99.920861 41.823587 
L 100.646833 42.002553 
L 103.550719 43.142547 
L 109.358493 45.190294 
L 110.084465 45.606565 
L 110.810436 45.669097 
L 111.536408 46.064355 
L 112.26238 46.170113 
L 113.714323 46.797144 
L 115.166267 46.940599 
L 115.892238 47.049556 
L 116.61821 47.316431 
L 117.344182 47.71573 
L 118.070153 47.700577 
L 120.248069 48.480704 
L 121.700012 48.932835 
L 125.32987 50.484955 
L 126.055842 50.570316 
L 131.137644 52.683592 
L 131.863616 52.862967 
L 134.041531 53.752381 
L 144.205135 57.326934 
L 145.657078 57.65751 
L 146.38305 57.944155 
L 148.560965 58.476368 
L 152.916795 60.109729 
L 154.368739 60.496189 
L 156.546654 61.385359 
L 157.998597 61.792222 
L 160.176512 62.657518 
L 162.354427 63.293086 
L 164.532342 64.203199 
L 168.888173 65.832034 
L 169.614144 65.888613 
L 173.244003 67.311754 
L 175.421918 68.074862 
L 176.14789 68.147861 
L 176.873861 68.39206 
L 177.599833 68.459692 
L 178.325805 68.759148 
L 179.777748 69.220055 
L 189.21538 72.505429 
L 195.749126 74.513951 
L 196.475097 74.612345 
L 197.201069 74.924978 
L 197.927041 74.912881 
L 199.378984 75.37864 
L 200.830928 75.837096 
L 201.556899 75.989426 
L 203.734814 76.797339 
L 204.460786 76.953296 
L 205.912729 77.491027 
L 206.638701 77.685063 
L 207.364673 78.013556 
L 208.090645 78.03813 
L 209.542588 78.574497 
L 211.720503 79.42945 
L 215.350362 80.44452 
L 216.802305 80.855188 
L 218.254248 81.491721 
L 221.158135 82.609106 
L 224.062022 83.662268 
L 225.513965 84.165699 
L 229.143824 85.36735 
L 233.499654 86.97863 
L 237.855484 88.322034 
L 239.307428 88.871054 
L 243.663258 89.900687 
L 245.841173 90.780222 
L 248.019088 91.328771 
L 249.471032 91.812569 
L 250.197003 91.96531 
L 251.648947 92.576691 
L 253.10089 93.089754 
L 255.278805 93.936321 
L 258.908664 94.952462 
L 260.360607 95.491578 
L 261.812551 95.909319 
L 264.716437 96.96592 
L 265.442409 97.223279 
L 266.168381 97.332152 
L 272.702126 99.450333 
L 274.15407 99.589686 
L 275.606013 99.959962 
L 277.057956 100.615006 
L 279.961843 101.907092 
L 282.86573 102.877126 
L 289.399475 105.173879 
L 290.125447 105.165865 
L 293.029334 106.158835 
L 297.385164 107.62702 
L 304.644881 109.725659 
L 305.370853 109.821504 
L 306.096824 110.06492 
L 307.548768 110.340143 
L 308.27474 110.597546 
L 309.000711 110.637297 
L 311.178626 111.22682 
L 315.534457 112.879305 
L 319.890287 114.355246 
L 321.34223 114.798469 
L 322.794174 115.123722 
L 323.520145 115.404526 
L 324.246117 115.417142 
L 325.69806 115.699032 
L 327.875976 116.341702 
L 329.327919 116.466481 
L 331.505834 117.200347 
L 334.409721 118.464634 
L 336.587636 119.140745 
L 338.039579 119.588515 
L 339.491523 120.012853 
L 340.217494 120.061112 
L 342.39541 120.770086 
L 343.847353 121.289737 
L 345.299296 121.768443 
L 352.559013 123.753537 
L 356.188872 124.724704 
L 357.640815 125.182137 
L 359.092759 125.551848 
L 360.544702 125.893177 
L 362.722617 126.204928 
L 364.900532 127.085985 
L 366.352476 127.496946 
L 367.804419 127.877839 
L 368.530391 128.169898 
L 372.160249 128.823528 
L 373.612193 129.363952 
L 374.338164 129.699628 
L 375.064136 129.877511 
L 375.790108 129.896936 
L 377.242051 130.446465 
L 378.693995 130.811694 
L 380.145938 131.348029 
L 383.775797 132.572383 
L 385.22774 132.902218 
L 385.953712 133.100692 
L 387.405655 133.088667 
L 396.843287 135.985804 
L 399.021202 136.131374 
L 399.747174 136.380009 
L 401.925089 136.862586 
L 403.377033 137.222688 
L 407.006891 138.359531 
L 407.732863 138.484107 
L 408.458835 138.745002 
L 413.540636 139.47039 
L 416.444523 140.108002 
L 417.896467 140.44318 
L 422.252297 140.977553 
L 422.978269 141.230311 
L 425.156184 141.573918 
L 430.963957 143.218925 
L 432.415901 143.66053 
L 436.045759 144.11753 
L 438.223674 144.142163 
L 438.949646 144.374678 
L 439.675618 144.481228 
L 440.401589 144.793396 
L 441.853533 144.929177 
L 444.75742 145.903094 
L 447.661306 146.170686 
L 449.11325 146.363603 
L 449.839222 146.376406 
L 450.565193 146.60279 
L 451.291165 146.706355 
L 452.017137 146.930907 
L 452.743108 147.016908 
L 455.646995 147.865283 
L 456.372967 147.960755 
L 459.276854 147.94121 
L 460.002825 147.950754 
L 462.180741 148.344024 
L 464.358656 148.335898 
L 468.714486 148.603375 
L 469.440458 148.775541 
L 471.618373 148.826899 
L 472.344344 149.047543 
L 473.796288 149.255508 
L 474.522259 149.462963 
L 475.974203 149.483229 
L 476.700175 149.68401 
L 479.604061 149.876308 
L 481.056005 150.268295 
L 483.23392 150.556214 
L 483.959892 150.739374 
L 485.411835 150.795061 
L 486.863778 150.693951 
L 486.863778 150.693951 
" style="fill:none;stroke:#2ca02c;stroke-linecap:square;stroke-width:1.5;"/>
   </g>
   <g id="line2d_4">
    <path clip-path="url(#p631bf12ced)" d="M 81.045597 34.67267 
L 88.305314 37.015054 
L 89.031285 37.4423 
L 89.757257 37.535323 
L 100.646833 41.144758 
L 102.098776 41.630722 
L 102.824748 41.965269 
L 103.550719 42.102141 
L 105.728634 42.846746 
L 110.084465 44.05822 
L 110.810436 44.395533 
L 112.26238 44.703386 
L 115.166267 45.560007 
L 115.892238 45.915237 
L 116.61821 45.996288 
L 117.344182 46.482996 
L 118.070153 46.489488 
L 135.493474 52.082284 
L 136.219446 52.186686 
L 141.301248 53.827574 
L 142.02722 54.051176 
L 142.753191 54.418393 
L 144.205135 54.718205 
L 147.834993 55.816079 
L 148.560965 56.256699 
L 149.286937 56.339364 
L 152.190823 57.262065 
L 153.642767 57.686166 
L 154.368739 58.037036 
L 155.09471 58.159454 
L 155.820682 58.553215 
L 156.546654 58.659048 
L 157.998597 59.140399 
L 158.724569 59.515899 
L 159.45054 59.593444 
L 160.902484 60.011893 
L 161.628456 60.402567 
L 162.354427 60.558421 
L 163.806371 61.11955 
L 165.258314 61.545638 
L 168.162201 62.630937 
L 169.614144 63.026389 
L 171.066088 63.477682 
L 171.792059 63.920344 
L 172.518031 63.981043 
L 181.955663 67.055551 
L 182.681635 67.427999 
L 184.133578 67.783389 
L 184.85955 67.946159 
L 187.037465 68.688377 
L 189.21538 69.425903 
L 189.941352 69.819112 
L 190.667324 69.882809 
L 192.845239 70.535987 
L 193.571211 70.857215 
L 194.297182 71.006302 
L 201.556899 73.538646 
L 205.186758 74.759272 
L 205.912729 75.134329 
L 206.638701 75.255052 
L 213.898418 77.764513 
L 217.528277 78.884418 
L 218.254248 79.266968 
L 219.706192 79.557159 
L 226.965909 81.866607 
L 227.691881 82.010123 
L 228.417852 82.312525 
L 229.869796 82.739146 
L 237.129513 84.94204 
L 238.581456 85.332316 
L 239.307428 85.676703 
L 240.033399 85.735162 
L 241.485343 86.137617 
L 242.211315 86.304155 
L 242.937286 86.694056 
L 243.663258 86.774399 
L 245.115201 87.243436 
L 246.567145 87.693285 
L 247.293117 88.044657 
L 248.019088 88.133666 
L 261.086579 92.434966 
L 262.538522 92.842202 
L 265.442409 93.750835 
L 266.168381 93.948909 
L 266.894352 94.35082 
L 267.620324 94.397748 
L 268.346296 94.619579 
L 269.072268 95.002232 
L 269.798239 95.094042 
L 270.524211 95.312125 
L 271.250183 95.665248 
L 272.702126 95.986039 
L 275.606013 96.765295 
L 277.783928 97.565933 
L 279.235871 98.025206 
L 279.961843 98.374767 
L 280.687815 98.449768 
L 288.673504 101.018714 
L 296.659192 103.530792 
L 297.385164 103.560175 
L 300.289051 104.458822 
L 303.192938 105.371584 
L 305.370853 105.91956 
L 308.27474 106.847972 
L 309.726683 107.194608 
L 314.808485 108.845548 
L 315.534457 109.127268 
L 316.260428 109.286992 
L 316.9864 109.588282 
L 317.712372 109.720106 
L 321.34223 110.898704 
L 322.794174 111.271853 
L 325.69806 112.113528 
L 329.327919 113.085935 
L 331.505834 113.696767 
L 334.409721 114.607564 
L 341.669438 116.597716 
L 345.299296 117.502549 
L 346.025268 117.774886 
L 347.477211 118.043254 
L 348.203183 118.375436 
L 348.929155 118.412774 
L 349.655127 118.589976 
L 350.381098 118.894253 
L 351.10707 118.962414 
L 354.736929 119.908849 
L 359.092759 121.073555 
L 360.544702 121.290053 
L 366.352476 122.815263 
L 370.708306 124.039981 
L 372.160249 124.322467 
L 374.338164 124.951307 
L 377.242051 125.775275 
L 378.693995 126.02671 
L 385.953712 128.145754 
L 387.405655 128.323742 
L 393.9394 129.975661 
L 394.665372 130.057268 
L 397.569259 130.780797 
L 400.473146 131.412333 
L 405.554948 132.835596 
L 408.458835 133.498221 
L 415.718552 135.016893 
L 417.170495 135.250253 
L 417.896467 135.399442 
L 420.074382 135.581408 
L 422.252297 135.912335 
L 425.156184 136.640742 
L 426.608127 136.855443 
L 431.689929 137.980922 
L 432.415901 138.016483 
L 438.223674 139.329931 
L 444.031448 140.314377 
L 445.483391 140.629727 
L 446.935335 140.766631 
L 449.839222 141.407507 
L 451.291165 141.754822 
L 452.743108 141.878927 
L 454.195052 142.184985 
L 455.646995 142.254648 
L 457.098939 142.443416 
L 459.276854 142.741298 
L 463.632684 143.009604 
L 464.358656 143.162636 
L 465.084627 143.199274 
L 465.810599 143.40559 
L 470.892401 143.835814 
L 471.618373 143.824864 
L 472.344344 143.997314 
L 473.796288 144.140044 
L 474.522259 144.34524 
L 475.248231 144.327203 
L 477.426146 144.710279 
L 478.87809 144.665725 
L 480.330033 145.079171 
L 481.781976 145.016554 
L 484.685863 145.266667 
L 485.411835 145.378568 
L 486.863778 145.283548 
L 486.863778 145.283548 
" style="fill:none;stroke:#d62728;stroke-linecap:square;stroke-width:1.5;"/>
   </g>
   <g id="line2d_5">
    <path clip-path="url(#p631bf12ced)" d="M 81.045597 35.013739 
L 81.771568 35.422444 
L 82.49754 35.43593 
L 85.401427 36.29939 
L 87.579342 37.09026 
L 88.305314 37.204876 
L 89.757257 37.681932 
L 90.483229 37.886978 
L 91.2092 38.262905 
L 91.935172 38.371022 
L 94.839059 39.486306 
L 95.565031 39.504242 
L 99.920861 41.013848 
L 100.646833 41.102676 
L 101.372804 41.332225 
L 102.098776 41.682777 
L 103.550719 42.031834 
L 105.728634 42.869112 
L 106.454606 43.014569 
L 115.166267 46.189902 
L 115.892238 46.281222 
L 121.700012 48.335269 
L 122.425984 48.40747 
L 124.603899 49.118847 
L 125.32987 49.484187 
L 126.055842 49.644675 
L 127.507786 50.188676 
L 128.233757 50.268001 
L 131.137644 51.25982 
L 131.863616 51.602821 
L 132.589587 51.682983 
L 138.397361 53.527027 
L 139.123333 53.907781 
L 139.849305 53.981335 
L 141.301248 54.422022 
L 142.02722 54.832844 
L 142.753191 54.825139 
L 144.931106 55.53695 
L 149.286937 56.815231 
L 150.012908 57.176835 
L 150.73888 57.326394 
L 154.368739 58.668154 
L 155.09471 58.795715 
L 155.820682 59.149496 
L 157.272625 59.508664 
L 161.628456 61.08232 
L 162.354427 61.056253 
L 165.258314 61.93267 
L 167.436229 62.663091 
L 168.888173 63.004476 
L 172.518031 64.076768 
L 173.244003 64.447251 
L 173.969975 64.405292 
L 176.14789 65.073385 
L 179.777748 66.187832 
L 182.681635 67.009731 
L 184.133578 67.454338 
L 184.85955 67.66962 
L 185.585522 68.00548 
L 186.311493 68.032 
L 189.21538 68.873469 
L 198.653012 71.57049 
L 201.556899 72.389856 
L 202.282871 72.693406 
L 204.460786 73.109033 
L 208.816616 74.526134 
L 213.898418 76.005272 
L 216.802305 76.746171 
L 220.432164 77.92746 
L 221.884107 78.332859 
L 222.610079 78.651617 
L 223.33605 78.71036 
L 225.513965 79.362468 
L 226.239937 79.653951 
L 227.691881 80.036607 
L 232.047711 81.662203 
L 233.499654 82.096823 
L 235.677569 82.76016 
L 238.581456 83.672705 
L 248.019088 86.487653 
L 249.471032 86.893323 
L 252.374918 87.757373 
L 253.10089 88.02533 
L 254.552834 88.370533 
L 260.360607 90.128408 
L 261.086579 90.44217 
L 261.812551 90.496576 
L 264.716437 91.359013 
L 269.072268 92.745726 
L 269.798239 92.811785 
L 272.702126 93.793633 
L 273.428098 93.880485 
L 275.606013 94.604999 
L 277.783928 95.286398 
L 280.687815 96.229995 
L 281.413787 96.568865 
L 282.139758 96.64912 
L 287.947532 98.567711 
L 289.399475 99.060083 
L 293.029334 100.318143 
L 303.192938 103.43611 
L 305.370853 103.928773 
L 308.27474 104.827851 
L 309.000711 104.9245 
L 312.63057 106.107193 
L 316.260428 107.211034 
L 322.794174 109.077799 
L 323.520145 109.131255 
L 327.150004 110.133579 
L 329.327919 110.605215 
L 330.053891 110.625994 
L 332.957777 111.503468 
L 337.313608 112.783819 
L 339.491523 113.381219 
L 340.217494 113.480578 
L 343.847353 114.578122 
L 344.573325 114.60666 
L 346.75124 115.221123 
L 347.477211 115.47805 
L 348.929155 115.68423 
L 354.736929 117.275056 
L 356.188872 117.69632 
L 357.640815 117.984078 
L 358.366787 118.214108 
L 359.81873 118.42472 
L 361.270674 118.823342 
L 362.722617 119.271563 
L 364.174561 119.664366 
L 365.626504 120.12799 
L 370.708306 121.477383 
L 371.434278 121.53719 
L 373.612193 122.155744 
L 375.064136 122.640684 
L 378.693995 123.637845 
L 383.775797 125.259407 
L 384.501768 125.292172 
L 385.953712 125.708436 
L 387.405655 125.846829 
L 391.035514 126.941072 
L 394.665372 127.731088 
L 396.843287 128.419679 
L 398.295231 128.55483 
L 399.747174 129.025499 
L 401.199117 129.370311 
L 405.554948 130.709915 
L 413.540636 132.326197 
L 416.444523 133.192876 
L 420.800353 134.19354 
L 423.70424 134.901889 
L 425.156184 135.191662 
L 429.512014 136.20464 
L 431.689929 136.506168 
L 433.141872 136.683891 
L 434.593816 136.9656 
L 437.497703 137.576309 
L 438.949646 137.822456 
L 441.853533 138.176153 
L 443.305476 138.510687 
L 445.483391 138.533109 
L 446.935335 138.573198 
L 448.387278 138.883606 
L 449.839222 138.960971 
L 452.017137 139.398063 
L 453.46908 139.682287 
L 454.921023 140.083521 
L 456.372967 140.070061 
L 457.098939 140.138007 
L 458.550882 140.421614 
L 460.728797 140.747915 
L 463.632684 140.810167 
L 465.810599 141.286799 
L 470.166429 141.791943 
L 471.618373 141.723775 
L 473.070316 141.960321 
L 473.796288 142.036608 
L 474.522259 142.324529 
L 475.248231 142.259845 
L 478.152118 142.666838 
L 478.87809 142.609581 
L 480.330033 143.043926 
L 481.781976 142.985995 
L 483.23392 143.128703 
L 483.959892 143.266507 
L 486.137807 143.23089 
L 486.863778 143.138135 
L 486.863778 143.138135 
" style="fill:none;stroke:#000000;stroke-dasharray:3.7,1.6;stroke-dashoffset:0;"/>
   </g>
   <g id="matplotlib.axis_1">
    <g id="xtick_1">
     <g id="line2d_6">
      <defs>
       <path d="M 0 0 
L 0 3.5 
" id="me3c3030bbd" style="stroke:#000000;stroke-width:0.8;"/>
      </defs>
      <g>
       <use style="stroke:#000000;stroke-width:0.8;" x="102.098776" xlink:href="#me3c3030bbd" y="294.118125"/>
      </g>
     </g>
     <g id="text_1">
      <!-- 100 -->
      <defs>
       <path d="M 12.40625 8.296875 
L 28.515625 8.296875 
L 28.515625 63.921875 
L 10.984375 60.40625 
L 10.984375 69.390625 
L 28.421875 72.90625 
L 38.28125 72.90625 
L 38.28125 8.296875 
L 54.390625 8.296875 
L 54.390625 0 
L 12.40625 0 
z
" id="DejaVuSans-49"/>
       <path d="M 31.78125 66.40625 
Q 24.171875 66.40625 20.328125 58.90625 
Q 16.5 51.421875 16.5 36.375 
Q 16.5 21.390625 20.328125 13.890625 
Q 24.171875 6.390625 31.78125 6.390625 
Q 39.453125 6.390625 43.28125 13.890625 
Q 47.125 21.390625 47.125 36.375 
Q 47.125 51.421875 43.28125 58.90625 
Q 39.453125 66.40625 31.78125 66.40625 
z
M 31.78125 74.21875 
Q 44.046875 74.21875 50.515625 64.515625 
Q 56.984375 54.828125 56.984375 36.375 
Q 56.984375 17.96875 50.515625 8.265625 
Q 44.046875 -1.421875 31.78125 -1.421875 
Q 19.53125 -1.421875 13.0625 8.265625 
Q 6.59375 17.96875 6.59375 36.375 
Q 6.59375 54.828125 13.0625 64.515625 
Q 19.53125 74.21875 31.78125 74.21875 
z
" id="DejaVuSans-48"/>
      </defs>
      <g transform="translate(92.555026 308.716563)scale(0.1 -0.1)">
       <use xlink:href="#DejaVuSans-49"/>
       <use x="63.623047" xlink:href="#DejaVuSans-48"/>
       <use x="127.246094" xlink:href="#DejaVuSans-48"/>
      </g>
     </g>
    </g>
    <g id="xtick_2">
     <g id="line2d_7">
      <g>
       <use style="stroke:#000000;stroke-width:0.8;" x="174.695946" xlink:href="#me3c3030bbd" y="294.118125"/>
      </g>
     </g>
     <g id="text_2">
      <!-- 200 -->
      <defs>
       <path d="M 19.1875 8.296875 
L 53.609375 8.296875 
L 53.609375 0 
L 7.328125 0 
L 7.328125 8.296875 
Q 12.9375 14.109375 22.625 23.890625 
Q 32.328125 33.6875 34.8125 36.53125 
Q 39.546875 41.84375 41.421875 45.53125 
Q 43.3125 49.21875 43.3125 52.78125 
Q 43.3125 58.59375 39.234375 62.25 
Q 35.15625 65.921875 28.609375 65.921875 
Q 23.96875 65.921875 18.8125 64.3125 
Q 13.671875 62.703125 7.8125 59.421875 
L 7.8125 69.390625 
Q 13.765625 71.78125 18.9375 73 
Q 24.125 74.21875 28.421875 74.21875 
Q 39.75 74.21875 46.484375 68.546875 
Q 53.21875 62.890625 53.21875 53.421875 
Q 53.21875 48.921875 51.53125 44.890625 
Q 49.859375 40.875 45.40625 35.40625 
Q 44.1875 33.984375 37.640625 27.21875 
Q 31.109375 20.453125 19.1875 8.296875 
z
" id="DejaVuSans-50"/>
      </defs>
      <g transform="translate(165.152196 308.716563)scale(0.1 -0.1)">
       <use xlink:href="#DejaVuSans-50"/>
       <use x="63.623047" xlink:href="#DejaVuSans-48"/>
       <use x="127.246094" xlink:href="#DejaVuSans-48"/>
      </g>
     </g>
    </g>
    <g id="xtick_3">
     <g id="line2d_8">
      <g>
       <use style="stroke:#000000;stroke-width:0.8;" x="247.293117" xlink:href="#me3c3030bbd" y="294.118125"/>
      </g>
     </g>
     <g id="text_3">
      <!-- 300 -->
      <defs>
       <path d="M 40.578125 39.3125 
Q 47.65625 37.796875 51.625 33 
Q 55.609375 28.21875 55.609375 21.1875 
Q 55.609375 10.40625 48.1875 4.484375 
Q 40.765625 -1.421875 27.09375 -1.421875 
Q 22.515625 -1.421875 17.65625 -0.515625 
Q 12.796875 0.390625 7.625 2.203125 
L 7.625 11.71875 
Q 11.71875 9.328125 16.59375 8.109375 
Q 21.484375 6.890625 26.8125 6.890625 
Q 36.078125 6.890625 40.9375 10.546875 
Q 45.796875 14.203125 45.796875 21.1875 
Q 45.796875 27.640625 41.28125 31.265625 
Q 36.765625 34.90625 28.71875 34.90625 
L 20.21875 34.90625 
L 20.21875 43.015625 
L 29.109375 43.015625 
Q 36.375 43.015625 40.234375 45.921875 
Q 44.09375 48.828125 44.09375 54.296875 
Q 44.09375 59.90625 40.109375 62.90625 
Q 36.140625 65.921875 28.71875 65.921875 
Q 24.65625 65.921875 20.015625 65.03125 
Q 15.375 64.15625 9.8125 62.3125 
L 9.8125 71.09375 
Q 15.4375 72.65625 20.34375 73.4375 
Q 25.25 74.21875 29.59375 74.21875 
Q 40.828125 74.21875 47.359375 69.109375 
Q 53.90625 64.015625 53.90625 55.328125 
Q 53.90625 49.265625 50.4375 45.09375 
Q 46.96875 40.921875 40.578125 39.3125 
z
" id="DejaVuSans-51"/>
      </defs>
      <g transform="translate(237.749367 308.716563)scale(0.1 -0.1)">
       <use xlink:href="#DejaVuSans-51"/>
       <use x="63.623047" xlink:href="#DejaVuSans-48"/>
       <use x="127.246094" xlink:href="#DejaVuSans-48"/>
      </g>
     </g>
    </g>
    <g id="xtick_4">
     <g id="line2d_9">
      <g>
       <use style="stroke:#000000;stroke-width:0.8;" x="319.890287" xlink:href="#me3c3030bbd" y="294.118125"/>
      </g>
     </g>
     <g id="text_4">
      <!-- 400 -->
      <defs>
       <path d="M 37.796875 64.3125 
L 12.890625 25.390625 
L 37.796875 25.390625 
z
M 35.203125 72.90625 
L 47.609375 72.90625 
L 47.609375 25.390625 
L 58.015625 25.390625 
L 58.015625 17.1875 
L 47.609375 17.1875 
L 47.609375 0 
L 37.796875 0 
L 37.796875 17.1875 
L 4.890625 17.1875 
L 4.890625 26.703125 
z
" id="DejaVuSans-52"/>
      </defs>
      <g transform="translate(310.346537 308.716563)scale(0.1 -0.1)">
       <use xlink:href="#DejaVuSans-52"/>
       <use x="63.623047" xlink:href="#DejaVuSans-48"/>
       <use x="127.246094" xlink:href="#DejaVuSans-48"/>
      </g>
     </g>
    </g>
    <g id="xtick_5">
     <g id="line2d_10">
      <g>
       <use style="stroke:#000000;stroke-width:0.8;" x="392.487457" xlink:href="#me3c3030bbd" y="294.118125"/>
      </g>
     </g>
     <g id="text_5">
      <!-- 500 -->
      <defs>
       <path d="M 10.796875 72.90625 
L 49.515625 72.90625 
L 49.515625 64.59375 
L 19.828125 64.59375 
L 19.828125 46.734375 
Q 21.96875 47.46875 24.109375 47.828125 
Q 26.265625 48.1875 28.421875 48.1875 
Q 40.625 48.1875 47.75 41.5 
Q 54.890625 34.8125 54.890625 23.390625 
Q 54.890625 11.625 47.5625 5.09375 
Q 40.234375 -1.421875 26.90625 -1.421875 
Q 22.3125 -1.421875 17.546875 -0.640625 
Q 12.796875 0.140625 7.71875 1.703125 
L 7.71875 11.625 
Q 12.109375 9.234375 16.796875 8.0625 
Q 21.484375 6.890625 26.703125 6.890625 
Q 35.15625 6.890625 40.078125 11.328125 
Q 45.015625 15.765625 45.015625 23.390625 
Q 45.015625 31 40.078125 35.4375 
Q 35.15625 39.890625 26.703125 39.890625 
Q 22.75 39.890625 18.8125 39.015625 
Q 14.890625 38.140625 10.796875 36.28125 
z
" id="DejaVuSans-53"/>
      </defs>
      <g transform="translate(382.943707 308.716563)scale(0.1 -0.1)">
       <use xlink:href="#DejaVuSans-53"/>
       <use x="63.623047" xlink:href="#DejaVuSans-48"/>
       <use x="127.246094" xlink:href="#DejaVuSans-48"/>
      </g>
     </g>
    </g>
    <g id="xtick_6">
     <g id="line2d_11">
      <g>
       <use style="stroke:#000000;stroke-width:0.8;" x="465.084627" xlink:href="#me3c3030bbd" y="294.118125"/>
      </g>
     </g>
     <g id="text_6">
      <!-- 600 -->
      <defs>
       <path d="M 33.015625 40.375 
Q 26.375 40.375 22.484375 35.828125 
Q 18.609375 31.296875 18.609375 23.390625 
Q 18.609375 15.53125 22.484375 10.953125 
Q 26.375 6.390625 33.015625 6.390625 
Q 39.65625 6.390625 43.53125 10.953125 
Q 47.40625 15.53125 47.40625 23.390625 
Q 47.40625 31.296875 43.53125 35.828125 
Q 39.65625 40.375 33.015625 40.375 
z
M 52.59375 71.296875 
L 52.59375 62.3125 
Q 48.875 64.0625 45.09375 64.984375 
Q 41.3125 65.921875 37.59375 65.921875 
Q 27.828125 65.921875 22.671875 59.328125 
Q 17.53125 52.734375 16.796875 39.40625 
Q 19.671875 43.65625 24.015625 45.921875 
Q 28.375 48.1875 33.59375 48.1875 
Q 44.578125 48.1875 50.953125 41.515625 
Q 57.328125 34.859375 57.328125 23.390625 
Q 57.328125 12.15625 50.6875 5.359375 
Q 44.046875 -1.421875 33.015625 -1.421875 
Q 20.359375 -1.421875 13.671875 8.265625 
Q 6.984375 17.96875 6.984375 36.375 
Q 6.984375 53.65625 15.1875 63.9375 
Q 23.390625 74.21875 37.203125 74.21875 
Q 40.921875 74.21875 44.703125 73.484375 
Q 48.484375 72.75 52.59375 71.296875 
z
" id="DejaVuSans-54"/>
      </defs>
      <g transform="translate(455.540877 308.716563)scale(0.1 -0.1)">
       <use xlink:href="#DejaVuSans-54"/>
       <use x="63.623047" xlink:href="#DejaVuSans-48"/>
       <use x="127.246094" xlink:href="#DejaVuSans-48"/>
      </g>
     </g>
    </g>
    <g id="text_7">
     <!-- Tempo -->
     <defs>
      <path d="M -0.296875 72.90625 
L 61.375 72.90625 
L 61.375 64.59375 
L 35.5 64.59375 
L 35.5 0 
L 25.59375 0 
L 25.59375 64.59375 
L -0.296875 64.59375 
z
" id="DejaVuSans-84"/>
      <path d="M 56.203125 29.59375 
L 56.203125 25.203125 
L 14.890625 25.203125 
Q 15.484375 15.921875 20.484375 11.0625 
Q 25.484375 6.203125 34.421875 6.203125 
Q 39.59375 6.203125 44.453125 7.46875 
Q 49.3125 8.734375 54.109375 11.28125 
L 54.109375 2.78125 
Q 49.265625 0.734375 44.1875 -0.34375 
Q 39.109375 -1.421875 33.890625 -1.421875 
Q 20.796875 -1.421875 13.15625 6.1875 
Q 5.515625 13.8125 5.515625 26.8125 
Q 5.515625 40.234375 12.765625 48.109375 
Q 20.015625 56 32.328125 56 
Q 43.359375 56 49.78125 48.890625 
Q 56.203125 41.796875 56.203125 29.59375 
z
M 47.21875 32.234375 
Q 47.125 39.59375 43.09375 43.984375 
Q 39.0625 48.390625 32.421875 48.390625 
Q 24.90625 48.390625 20.390625 44.140625 
Q 15.875 39.890625 15.1875 32.171875 
z
" id="DejaVuSans-101"/>
      <path d="M 52 44.1875 
Q 55.375 50.25 60.0625 53.125 
Q 64.75 56 71.09375 56 
Q 79.640625 56 84.28125 50.015625 
Q 88.921875 44.046875 88.921875 33.015625 
L 88.921875 0 
L 79.890625 0 
L 79.890625 32.71875 
Q 79.890625 40.578125 77.09375 44.375 
Q 74.3125 48.1875 68.609375 48.1875 
Q 61.625 48.1875 57.5625 43.546875 
Q 53.515625 38.921875 53.515625 30.90625 
L 53.515625 0 
L 44.484375 0 
L 44.484375 32.71875 
Q 44.484375 40.625 41.703125 44.40625 
Q 38.921875 48.1875 33.109375 48.1875 
Q 26.21875 48.1875 22.15625 43.53125 
Q 18.109375 38.875 18.109375 30.90625 
L 18.109375 0 
L 9.078125 0 
L 9.078125 54.6875 
L 18.109375 54.6875 
L 18.109375 46.1875 
Q 21.1875 51.21875 25.484375 53.609375 
Q 29.78125 56 35.6875 56 
Q 41.65625 56 45.828125 52.96875 
Q 50 49.953125 52 44.1875 
z
" id="DejaVuSans-109"/>
      <path d="M 18.109375 8.203125 
L 18.109375 -20.796875 
L 9.078125 -20.796875 
L 9.078125 54.6875 
L 18.109375 54.6875 
L 18.109375 46.390625 
Q 20.953125 51.265625 25.265625 53.625 
Q 29.59375 56 35.59375 56 
Q 45.5625 56 51.78125 48.09375 
Q 58.015625 40.1875 58.015625 27.296875 
Q 58.015625 14.40625 51.78125 6.484375 
Q 45.5625 -1.421875 35.59375 -1.421875 
Q 29.59375 -1.421875 25.265625 0.953125 
Q 20.953125 3.328125 18.109375 8.203125 
z
M 48.6875 27.296875 
Q 48.6875 37.203125 44.609375 42.84375 
Q 40.53125 48.484375 33.40625 48.484375 
Q 26.265625 48.484375 22.1875 42.84375 
Q 18.109375 37.203125 18.109375 27.296875 
Q 18.109375 17.390625 22.1875 11.75 
Q 26.265625 6.109375 33.40625 6.109375 
Q 40.53125 6.109375 44.609375 11.75 
Q 48.6875 17.390625 48.6875 27.296875 
z
" id="DejaVuSans-112"/>
      <path d="M 30.609375 48.390625 
Q 23.390625 48.390625 19.1875 42.75 
Q 14.984375 37.109375 14.984375 27.296875 
Q 14.984375 17.484375 19.15625 11.84375 
Q 23.34375 6.203125 30.609375 6.203125 
Q 37.796875 6.203125 41.984375 11.859375 
Q 46.1875 17.53125 46.1875 27.296875 
Q 46.1875 37.015625 41.984375 42.703125 
Q 37.796875 48.390625 30.609375 48.390625 
z
M 30.609375 56 
Q 42.328125 56 49.015625 48.375 
Q 55.71875 40.765625 55.71875 27.296875 
Q 55.71875 13.875 49.015625 6.21875 
Q 42.328125 -1.421875 30.609375 -1.421875 
Q 18.84375 -1.421875 12.171875 6.21875 
Q 5.515625 13.875 5.515625 27.296875 
Q 5.515625 40.765625 12.171875 48.375 
Q 18.84375 56 30.609375 56 
z
" id="DejaVuSans-111"/>
     </defs>
     <g transform="translate(267.570312 322.394687)scale(0.1 -0.1)">
      <use xlink:href="#DejaVuSans-84"/>
      <use x="44.083984" xlink:href="#DejaVuSans-101"/>
      <use x="105.607422" xlink:href="#DejaVuSans-109"/>
      <use x="203.019531" xlink:href="#DejaVuSans-112"/>
      <use x="266.496094" xlink:href="#DejaVuSans-111"/>
     </g>
    </g>
   </g>
   <g id="matplotlib.axis_2">
    <g id="ytick_1">
     <g id="line2d_12">
      <defs>
       <path d="M 0 0 
L -3.5 0 
" id="m4d6b575867" style="stroke:#000000;stroke-width:0.8;"/>
      </defs>
      <g>
       <use style="stroke:#000000;stroke-width:0.8;" x="60.754688" xlink:href="#m4d6b575867" y="248.927236"/>
      </g>
     </g>
     <g id="text_8">
      <!-- −500000 -->
      <defs>
       <path d="M 10.59375 35.5 
L 73.1875 35.5 
L 73.1875 27.203125 
L 10.59375 27.203125 
z
" id="DejaVuSans-8722"/>
      </defs>
      <g transform="translate(7.2 252.726454)scale(0.1 -0.1)">
       <use xlink:href="#DejaVuSans-8722"/>
       <use x="83.789062" xlink:href="#DejaVuSans-53"/>
       <use x="147.412109" xlink:href="#DejaVuSans-48"/>
       <use x="211.035156" xlink:href="#DejaVuSans-48"/>
       <use x="274.658203" xlink:href="#DejaVuSans-48"/>
       <use x="338.28125" xlink:href="#DejaVuSans-48"/>
       <use x="401.904297" xlink:href="#DejaVuSans-48"/>
      </g>
     </g>
    </g>
    <g id="ytick_2">
     <g id="line2d_13">
      <g>
       <use style="stroke:#000000;stroke-width:0.8;" x="60.754688" xlink:href="#m4d6b575867" y="203.25754"/>
      </g>
     </g>
     <g id="text_9">
      <!-- −400000 -->
      <g transform="translate(7.2 207.056759)scale(0.1 -0.1)">
       <use xlink:href="#DejaVuSans-8722"/>
       <use x="83.789062" xlink:href="#DejaVuSans-52"/>
       <use x="147.412109" xlink:href="#DejaVuSans-48"/>
       <use x="211.035156" xlink:href="#DejaVuSans-48"/>
       <use x="274.658203" xlink:href="#DejaVuSans-48"/>
       <use x="338.28125" xlink:href="#DejaVuSans-48"/>
       <use x="401.904297" xlink:href="#DejaVuSans-48"/>
      </g>
     </g>
    </g>
    <g id="ytick_3">
     <g id="line2d_14">
      <g>
       <use style="stroke:#000000;stroke-width:0.8;" x="60.754688" xlink:href="#m4d6b575867" y="157.587845"/>
      </g>
     </g>
     <g id="text_10">
      <!-- −300000 -->
      <g transform="translate(7.2 161.387063)scale(0.1 -0.1)">
       <use xlink:href="#DejaVuSans-8722"/>
       <use x="83.789062" xlink:href="#DejaVuSans-51"/>
       <use x="147.412109" xlink:href="#DejaVuSans-48"/>
       <use x="211.035156" xlink:href="#DejaVuSans-48"/>
       <use x="274.658203" xlink:href="#DejaVuSans-48"/>
       <use x="338.28125" xlink:href="#DejaVuSans-48"/>
       <use x="401.904297" xlink:href="#DejaVuSans-48"/>
      </g>
     </g>
    </g>
    <g id="ytick_4">
     <g id="line2d_15">
      <g>
       <use style="stroke:#000000;stroke-width:0.8;" x="60.754688" xlink:href="#m4d6b575867" y="111.918149"/>
      </g>
     </g>
     <g id="text_11">
      <!-- −200000 -->
      <g transform="translate(7.2 115.717368)scale(0.1 -0.1)">
       <use xlink:href="#DejaVuSans-8722"/>
       <use x="83.789062" xlink:href="#DejaVuSans-50"/>
       <use x="147.412109" xlink:href="#DejaVuSans-48"/>
       <use x="211.035156" xlink:href="#DejaVuSans-48"/>
       <use x="274.658203" xlink:href="#DejaVuSans-48"/>
       <use x="338.28125" xlink:href="#DejaVuSans-48"/>
       <use x="401.904297" xlink:href="#DejaVuSans-48"/>
      </g>
     </g>
    </g>
    <g id="ytick_5">
     <g id="line2d_16">
      <g>
       <use style="stroke:#000000;stroke-width:0.8;" x="60.754688" xlink:href="#m4d6b575867" y="66.248454"/>
      </g>
     </g>
     <g id="text_12">
      <!-- −100000 -->
      <g transform="translate(7.2 70.047672)scale(0.1 -0.1)">
       <use xlink:href="#DejaVuSans-8722"/>
       <use x="83.789062" xlink:href="#DejaVuSans-49"/>
       <use x="147.412109" xlink:href="#DejaVuSans-48"/>
       <use x="211.035156" xlink:href="#DejaVuSans-48"/>
       <use x="274.658203" xlink:href="#DejaVuSans-48"/>
       <use x="338.28125" xlink:href="#DejaVuSans-48"/>
       <use x="401.904297" xlink:href="#DejaVuSans-48"/>
      </g>
     </g>
    </g>
   </g>
   <g id="patch_3">
    <path d="M 60.754688 294.118125 
L 60.754688 22.318125 
" style="fill:none;stroke:#000000;stroke-linecap:square;stroke-linejoin:miter;stroke-width:0.8;"/>
   </g>
   <g id="patch_4">
    <path d="M 60.754688 294.118125 
L 507.154687 294.118125 
" style="fill:none;stroke:#000000;stroke-linecap:square;stroke-linejoin:miter;stroke-width:0.8;"/>
   </g>
   <g id="text_13">
    <!-- Mw_total -->
    <defs>
     <path d="M 9.8125 72.90625 
L 24.515625 72.90625 
L 43.109375 23.296875 
L 61.8125 72.90625 
L 76.515625 72.90625 
L 76.515625 0 
L 66.890625 0 
L 66.890625 64.015625 
L 48.09375 14.015625 
L 38.1875 14.015625 
L 19.390625 64.015625 
L 19.390625 0 
L 9.8125 0 
z
" id="DejaVuSans-77"/>
     <path d="M 4.203125 54.6875 
L 13.1875 54.6875 
L 24.421875 12.015625 
L 35.59375 54.6875 
L 46.1875 54.6875 
L 57.421875 12.015625 
L 68.609375 54.6875 
L 77.59375 54.6875 
L 63.28125 0 
L 52.6875 0 
L 40.921875 44.828125 
L 29.109375 0 
L 18.5 0 
z
" id="DejaVuSans-119"/>
     <path d="M 50.984375 -16.609375 
L 50.984375 -23.578125 
L -0.984375 -23.578125 
L -0.984375 -16.609375 
z
" id="DejaVuSans-95"/>
     <path d="M 18.3125 70.21875 
L 18.3125 54.6875 
L 36.8125 54.6875 
L 36.8125 47.703125 
L 18.3125 47.703125 
L 18.3125 18.015625 
Q 18.3125 11.328125 20.140625 9.421875 
Q 21.96875 7.515625 27.59375 7.515625 
L 36.8125 7.515625 
L 36.8125 0 
L 27.59375 0 
Q 17.1875 0 13.234375 3.875 
Q 9.28125 7.765625 9.28125 18.015625 
L 9.28125 47.703125 
L 2.6875 47.703125 
L 2.6875 54.6875 
L 9.28125 54.6875 
L 9.28125 70.21875 
z
" id="DejaVuSans-116"/>
     <path d="M 34.28125 27.484375 
Q 23.390625 27.484375 19.1875 25 
Q 14.984375 22.515625 14.984375 16.5 
Q 14.984375 11.71875 18.140625 8.90625 
Q 21.296875 6.109375 26.703125 6.109375 
Q 34.1875 6.109375 38.703125 11.40625 
Q 43.21875 16.703125 43.21875 25.484375 
L 43.21875 27.484375 
z
M 52.203125 31.203125 
L 52.203125 0 
L 43.21875 0 
L 43.21875 8.296875 
Q 40.140625 3.328125 35.546875 0.953125 
Q 30.953125 -1.421875 24.3125 -1.421875 
Q 15.921875 -1.421875 10.953125 3.296875 
Q 6 8.015625 6 15.921875 
Q 6 25.140625 12.171875 29.828125 
Q 18.359375 34.515625 30.609375 34.515625 
L 43.21875 34.515625 
L 43.21875 35.40625 
Q 43.21875 41.609375 39.140625 45 
Q 35.0625 48.390625 27.6875 48.390625 
Q 23 48.390625 18.546875 47.265625 
Q 14.109375 46.140625 10.015625 43.890625 
L 10.015625 52.203125 
Q 14.9375 54.109375 19.578125 55.046875 
Q 24.21875 56 28.609375 56 
Q 40.484375 56 46.34375 49.84375 
Q 52.203125 43.703125 52.203125 31.203125 
z
" id="DejaVuSans-97"/>
     <path d="M 9.421875 75.984375 
L 18.40625 75.984375 
L 18.40625 0 
L 9.421875 0 
z
" id="DejaVuSans-108"/>
    </defs>
    <g transform="translate(257.151562 16.318125)scale(0.12 -0.12)">
     <use xlink:href="#DejaVuSans-77"/>
     <use x="86.279297" xlink:href="#DejaVuSans-119"/>
     <use x="168.066406" xlink:href="#DejaVuSans-95"/>
     <use x="218.066406" xlink:href="#DejaVuSans-116"/>
     <use x="257.275391" xlink:href="#DejaVuSans-111"/>
     <use x="318.457031" xlink:href="#DejaVuSans-116"/>
     <use x="357.666016" xlink:href="#DejaVuSans-97"/>
     <use x="418.945312" xlink:href="#DejaVuSans-108"/>
    </g>
   </g>
   <g id="legend_1">
    <g id="patch_5">
     <path d="M 514.154687 196.413438 
L 647.714062 196.413438 
Q 649.714062 196.413438 649.714062 194.413438 
L 649.714062 122.022813 
Q 649.714062 120.022813 647.714062 120.022813 
L 514.154687 120.022813 
Q 512.154687 120.022813 512.154687 122.022813 
L 512.154687 194.413438 
Q 512.154687 196.413438 514.154687 196.413438 
z
" style="fill:#ffffff;opacity:0.8;stroke:#cccccc;stroke-linejoin:miter;"/>
    </g>
    <g id="line2d_17">
     <path d="M 516.154687 128.12125 
L 536.154687 128.12125 
" style="fill:none;stroke:#000000;stroke-dasharray:3.7,1.6;stroke-dashoffset:0;"/>
    </g>
    <g id="line2d_18"/>
    <g id="text_14">
     <!-- Baseline -->
     <defs>
      <path d="M 19.671875 34.8125 
L 19.671875 8.109375 
L 35.5 8.109375 
Q 43.453125 8.109375 47.28125 11.40625 
Q 51.125 14.703125 51.125 21.484375 
Q 51.125 28.328125 47.28125 31.5625 
Q 43.453125 34.8125 35.5 34.8125 
z
M 19.671875 64.796875 
L 19.671875 42.828125 
L 34.28125 42.828125 
Q 41.5 42.828125 45.03125 45.53125 
Q 48.578125 48.25 48.578125 53.8125 
Q 48.578125 59.328125 45.03125 62.0625 
Q 41.5 64.796875 34.28125 64.796875 
z
M 9.8125 72.90625 
L 35.015625 72.90625 
Q 46.296875 72.90625 52.390625 68.21875 
Q 58.5 63.53125 58.5 54.890625 
Q 58.5 48.1875 55.375 44.234375 
Q 52.25 40.28125 46.1875 39.3125 
Q 53.46875 37.75 57.5 32.78125 
Q 61.53125 27.828125 61.53125 20.40625 
Q 61.53125 10.640625 54.890625 5.3125 
Q 48.25 0 35.984375 0 
L 9.8125 0 
z
" id="DejaVuSans-66"/>
      <path d="M 44.28125 53.078125 
L 44.28125 44.578125 
Q 40.484375 46.53125 36.375 47.5 
Q 32.28125 48.484375 27.875 48.484375 
Q 21.1875 48.484375 17.84375 46.4375 
Q 14.5 44.390625 14.5 40.28125 
Q 14.5 37.15625 16.890625 35.375 
Q 19.28125 33.59375 26.515625 31.984375 
L 29.59375 31.296875 
Q 39.15625 29.25 43.1875 25.515625 
Q 47.21875 21.78125 47.21875 15.09375 
Q 47.21875 7.46875 41.1875 3.015625 
Q 35.15625 -1.421875 24.609375 -1.421875 
Q 20.21875 -1.421875 15.453125 -0.5625 
Q 10.6875 0.296875 5.421875 2 
L 5.421875 11.28125 
Q 10.40625 8.6875 15.234375 7.390625 
Q 20.0625 6.109375 24.8125 6.109375 
Q 31.15625 6.109375 34.5625 8.28125 
Q 37.984375 10.453125 37.984375 14.40625 
Q 37.984375 18.0625 35.515625 20.015625 
Q 33.0625 21.96875 24.703125 23.78125 
L 21.578125 24.515625 
Q 13.234375 26.265625 9.515625 29.90625 
Q 5.8125 33.546875 5.8125 39.890625 
Q 5.8125 47.609375 11.28125 51.796875 
Q 16.75 56 26.8125 56 
Q 31.78125 56 36.171875 55.265625 
Q 40.578125 54.546875 44.28125 53.078125 
z
" id="DejaVuSans-115"/>
      <path d="M 9.421875 54.6875 
L 18.40625 54.6875 
L 18.40625 0 
L 9.421875 0 
z
M 9.421875 75.984375 
L 18.40625 75.984375 
L 18.40625 64.59375 
L 9.421875 64.59375 
z
" id="DejaVuSans-105"/>
      <path d="M 54.890625 33.015625 
L 54.890625 0 
L 45.90625 0 
L 45.90625 32.71875 
Q 45.90625 40.484375 42.875 44.328125 
Q 39.84375 48.1875 33.796875 48.1875 
Q 26.515625 48.1875 22.3125 43.546875 
Q 18.109375 38.921875 18.109375 30.90625 
L 18.109375 0 
L 9.078125 0 
L 9.078125 54.6875 
L 18.109375 54.6875 
L 18.109375 46.1875 
Q 21.34375 51.125 25.703125 53.5625 
Q 30.078125 56 35.796875 56 
Q 45.21875 56 50.046875 50.171875 
Q 54.890625 44.34375 54.890625 33.015625 
z
" id="DejaVuSans-110"/>
     </defs>
     <g transform="translate(544.154687 131.62125)scale(0.1 -0.1)">
      <use xlink:href="#DejaVuSans-66"/>
      <use x="68.603516" xlink:href="#DejaVuSans-97"/>
      <use x="129.882812" xlink:href="#DejaVuSans-115"/>
      <use x="181.982422" xlink:href="#DejaVuSans-101"/>
      <use x="243.505859" xlink:href="#DejaVuSans-108"/>
      <use x="271.289062" xlink:href="#DejaVuSans-105"/>
      <use x="299.072266" xlink:href="#DejaVuSans-110"/>
      <use x="362.451172" xlink:href="#DejaVuSans-101"/>
     </g>
    </g>
    <g id="line2d_19">
     <path d="M 516.154687 142.799375 
L 536.154687 142.799375 
" style="fill:none;stroke:#1f77b4;stroke-linecap:square;stroke-width:1.5;"/>
    </g>
    <g id="line2d_20"/>
    <g id="text_15">
     <!-- $\Uparrow$ acesso crédito -->
     <defs>
      <path d="M 36.765625 58.59375 
L 36.765625 0 
L 30.90625 0 
L 30.90625 52.734375 
L 26.421875 48.140625 
L 20.5625 54 
L 39.703125 73.25 
L 44.09375 73.25 
L 63.328125 54 
L 57.46875 48.140625 
L 52.875 52.734375 
L 52.875 0 
L 47.015625 0 
L 47.015625 58.59375 
L 41.9375 63.671875 
z
" id="DejaVuSans-8657"/>
      <path id="DejaVuSans-32"/>
      <path d="M 48.78125 52.59375 
L 48.78125 44.1875 
Q 44.96875 46.296875 41.140625 47.34375 
Q 37.3125 48.390625 33.40625 48.390625 
Q 24.65625 48.390625 19.8125 42.84375 
Q 14.984375 37.3125 14.984375 27.296875 
Q 14.984375 17.28125 19.8125 11.734375 
Q 24.65625 6.203125 33.40625 6.203125 
Q 37.3125 6.203125 41.140625 7.25 
Q 44.96875 8.296875 48.78125 10.40625 
L 48.78125 2.09375 
Q 45.015625 0.34375 40.984375 -0.53125 
Q 36.96875 -1.421875 32.421875 -1.421875 
Q 20.0625 -1.421875 12.78125 6.34375 
Q 5.515625 14.109375 5.515625 27.296875 
Q 5.515625 40.671875 12.859375 48.328125 
Q 20.21875 56 33.015625 56 
Q 37.15625 56 41.109375 55.140625 
Q 45.0625 54.296875 48.78125 52.59375 
z
" id="DejaVuSans-99"/>
      <path d="M 41.109375 46.296875 
Q 39.59375 47.171875 37.8125 47.578125 
Q 36.03125 48 33.890625 48 
Q 26.265625 48 22.1875 43.046875 
Q 18.109375 38.09375 18.109375 28.8125 
L 18.109375 0 
L 9.078125 0 
L 9.078125 54.6875 
L 18.109375 54.6875 
L 18.109375 46.1875 
Q 20.953125 51.171875 25.484375 53.578125 
Q 30.03125 56 36.53125 56 
Q 37.453125 56 38.578125 55.875 
Q 39.703125 55.765625 41.0625 55.515625 
z
" id="DejaVuSans-114"/>
      <path d="M 56.203125 29.59375 
L 56.203125 25.203125 
L 14.890625 25.203125 
Q 15.484375 15.921875 20.484375 11.0625 
Q 25.484375 6.203125 34.421875 6.203125 
Q 39.59375 6.203125 44.453125 7.46875 
Q 49.3125 8.734375 54.109375 11.28125 
L 54.109375 2.78125 
Q 49.265625 0.734375 44.1875 -0.34375 
Q 39.109375 -1.421875 33.890625 -1.421875 
Q 20.796875 -1.421875 13.15625 6.1875 
Q 5.515625 13.8125 5.515625 26.8125 
Q 5.515625 40.234375 12.765625 48.109375 
Q 20.015625 56 32.328125 56 
Q 43.359375 56 49.78125 48.890625 
Q 56.203125 41.796875 56.203125 29.59375 
z
M 47.21875 32.234375 
Q 47.125 39.59375 43.09375 43.984375 
Q 39.0625 48.390625 32.421875 48.390625 
Q 24.90625 48.390625 20.390625 44.140625 
Q 15.875 39.890625 15.1875 32.171875 
z
M 38.53125 79.984375 
L 48.25 79.984375 
L 32.34375 61.625 
L 24.859375 61.625 
z
" id="DejaVuSans-233"/>
      <path d="M 45.40625 46.390625 
L 45.40625 75.984375 
L 54.390625 75.984375 
L 54.390625 0 
L 45.40625 0 
L 45.40625 8.203125 
Q 42.578125 3.328125 38.25 0.953125 
Q 33.9375 -1.421875 27.875 -1.421875 
Q 17.96875 -1.421875 11.734375 6.484375 
Q 5.515625 14.40625 5.515625 27.296875 
Q 5.515625 40.1875 11.734375 48.09375 
Q 17.96875 56 27.875 56 
Q 33.9375 56 38.25 53.625 
Q 42.578125 51.265625 45.40625 46.390625 
z
M 14.796875 27.296875 
Q 14.796875 17.390625 18.875 11.75 
Q 22.953125 6.109375 30.078125 6.109375 
Q 37.203125 6.109375 41.296875 11.75 
Q 45.40625 17.390625 45.40625 27.296875 
Q 45.40625 37.203125 41.296875 42.84375 
Q 37.203125 48.484375 30.078125 48.484375 
Q 22.953125 48.484375 18.875 42.84375 
Q 14.796875 37.203125 14.796875 27.296875 
z
" id="DejaVuSans-100"/>
     </defs>
     <g transform="translate(544.154687 146.299375)scale(0.1 -0.1)">
      <use transform="translate(19.482422 0.015625)" xlink:href="#DejaVuSans-8657"/>
      <use transform="translate(122.753906 0.015625)" xlink:href="#DejaVuSans-32"/>
      <use transform="translate(154.541016 0.015625)" xlink:href="#DejaVuSans-97"/>
      <use transform="translate(215.820312 0.015625)" xlink:href="#DejaVuSans-99"/>
      <use transform="translate(270.800781 0.015625)" xlink:href="#DejaVuSans-101"/>
      <use transform="translate(332.324219 0.015625)" xlink:href="#DejaVuSans-115"/>
      <use transform="translate(384.423828 0.015625)" xlink:href="#DejaVuSans-115"/>
      <use transform="translate(436.523438 0.015625)" xlink:href="#DejaVuSans-111"/>
      <use transform="translate(497.705078 0.015625)" xlink:href="#DejaVuSans-32"/>
      <use transform="translate(529.492188 0.015625)" xlink:href="#DejaVuSans-99"/>
      <use transform="translate(584.472656 0.015625)" xlink:href="#DejaVuSans-114"/>
      <use transform="translate(625.585938 0.015625)" xlink:href="#DejaVuSans-233"/>
      <use transform="translate(687.109375 0.015625)" xlink:href="#DejaVuSans-100"/>
      <use transform="translate(750.585938 0.015625)" xlink:href="#DejaVuSans-105"/>
      <use transform="translate(778.369141 0.015625)" xlink:href="#DejaVuSans-116"/>
      <use transform="translate(817.578125 0.015625)" xlink:href="#DejaVuSans-111"/>
     </g>
    </g>
    <g id="line2d_21">
     <path d="M 516.154687 157.4775 
L 536.154687 157.4775 
" style="fill:none;stroke:#ff7f0e;stroke-linecap:square;stroke-width:1.5;"/>
    </g>
    <g id="line2d_22"/>
    <g id="text_16">
     <!-- Sem renda básica -->
     <defs>
      <path d="M 53.515625 70.515625 
L 53.515625 60.890625 
Q 47.90625 63.578125 42.921875 64.890625 
Q 37.9375 66.21875 33.296875 66.21875 
Q 25.25 66.21875 20.875 63.09375 
Q 16.5 59.96875 16.5 54.203125 
Q 16.5 49.359375 19.40625 46.890625 
Q 22.3125 44.4375 30.421875 42.921875 
L 36.375 41.703125 
Q 47.40625 39.59375 52.65625 34.296875 
Q 57.90625 29 57.90625 20.125 
Q 57.90625 9.515625 50.796875 4.046875 
Q 43.703125 -1.421875 29.984375 -1.421875 
Q 24.8125 -1.421875 18.96875 -0.25 
Q 13.140625 0.921875 6.890625 3.21875 
L 6.890625 13.375 
Q 12.890625 10.015625 18.65625 8.296875 
Q 24.421875 6.59375 29.984375 6.59375 
Q 38.421875 6.59375 43.015625 9.90625 
Q 47.609375 13.234375 47.609375 19.390625 
Q 47.609375 24.75 44.3125 27.78125 
Q 41.015625 30.8125 33.5 32.328125 
L 27.484375 33.5 
Q 16.453125 35.6875 11.515625 40.375 
Q 6.59375 45.0625 6.59375 53.421875 
Q 6.59375 63.09375 13.40625 68.65625 
Q 20.21875 74.21875 32.171875 74.21875 
Q 37.3125 74.21875 42.625 73.28125 
Q 47.953125 72.359375 53.515625 70.515625 
z
" id="DejaVuSans-83"/>
      <path d="M 48.6875 27.296875 
Q 48.6875 37.203125 44.609375 42.84375 
Q 40.53125 48.484375 33.40625 48.484375 
Q 26.265625 48.484375 22.1875 42.84375 
Q 18.109375 37.203125 18.109375 27.296875 
Q 18.109375 17.390625 22.1875 11.75 
Q 26.265625 6.109375 33.40625 6.109375 
Q 40.53125 6.109375 44.609375 11.75 
Q 48.6875 17.390625 48.6875 27.296875 
z
M 18.109375 46.390625 
Q 20.953125 51.265625 25.265625 53.625 
Q 29.59375 56 35.59375 56 
Q 45.5625 56 51.78125 48.09375 
Q 58.015625 40.1875 58.015625 27.296875 
Q 58.015625 14.40625 51.78125 6.484375 
Q 45.5625 -1.421875 35.59375 -1.421875 
Q 29.59375 -1.421875 25.265625 0.953125 
Q 20.953125 3.328125 18.109375 8.203125 
L 18.109375 0 
L 9.078125 0 
L 9.078125 75.984375 
L 18.109375 75.984375 
z
" id="DejaVuSans-98"/>
      <path d="M 34.28125 27.484375 
Q 23.390625 27.484375 19.1875 25 
Q 14.984375 22.515625 14.984375 16.5 
Q 14.984375 11.71875 18.140625 8.90625 
Q 21.296875 6.109375 26.703125 6.109375 
Q 34.1875 6.109375 38.703125 11.40625 
Q 43.21875 16.703125 43.21875 25.484375 
L 43.21875 27.484375 
z
M 52.203125 31.203125 
L 52.203125 0 
L 43.21875 0 
L 43.21875 8.296875 
Q 40.140625 3.328125 35.546875 0.953125 
Q 30.953125 -1.421875 24.3125 -1.421875 
Q 15.921875 -1.421875 10.953125 3.296875 
Q 6 8.015625 6 15.921875 
Q 6 25.140625 12.171875 29.828125 
Q 18.359375 34.515625 30.609375 34.515625 
L 43.21875 34.515625 
L 43.21875 35.40625 
Q 43.21875 41.609375 39.140625 45 
Q 35.0625 48.390625 27.6875 48.390625 
Q 23 48.390625 18.546875 47.265625 
Q 14.109375 46.140625 10.015625 43.890625 
L 10.015625 52.203125 
Q 14.9375 54.109375 19.578125 55.046875 
Q 24.21875 56 28.609375 56 
Q 40.484375 56 46.34375 49.84375 
Q 52.203125 43.703125 52.203125 31.203125 
z
M 35.78125 79.984375 
L 45.5 79.984375 
L 29.59375 61.625 
L 22.109375 61.625 
z
" id="DejaVuSans-225"/>
     </defs>
     <g transform="translate(544.154687 160.9775)scale(0.1 -0.1)">
      <use xlink:href="#DejaVuSans-83"/>
      <use x="63.476562" xlink:href="#DejaVuSans-101"/>
      <use x="125" xlink:href="#DejaVuSans-109"/>
      <use x="222.412109" xlink:href="#DejaVuSans-32"/>
      <use x="254.199219" xlink:href="#DejaVuSans-114"/>
      <use x="293.0625" xlink:href="#DejaVuSans-101"/>
      <use x="354.585938" xlink:href="#DejaVuSans-110"/>
      <use x="417.964844" xlink:href="#DejaVuSans-100"/>
      <use x="481.441406" xlink:href="#DejaVuSans-97"/>
      <use x="542.720703" xlink:href="#DejaVuSans-32"/>
      <use x="574.507812" xlink:href="#DejaVuSans-98"/>
      <use x="637.984375" xlink:href="#DejaVuSans-225"/>
      <use x="699.263672" xlink:href="#DejaVuSans-115"/>
      <use x="751.363281" xlink:href="#DejaVuSans-105"/>
      <use x="779.146484" xlink:href="#DejaVuSans-99"/>
      <use x="834.126953" xlink:href="#DejaVuSans-97"/>
     </g>
    </g>
    <g id="line2d_23">
     <path d="M 516.154687 172.155625 
L 536.154687 172.155625 
" style="fill:none;stroke:#2ca02c;stroke-linecap:square;stroke-width:1.5;"/>
    </g>
    <g id="line2d_24"/>
    <g id="text_17">
     <!-- $\Uparrow$ salário mínimo -->
     <defs>
      <path d="M 20.65625 79.984375 
L 30.375 79.984375 
L 14.46875 61.625 
L 6.984375 61.625 
z
M 9.421875 54.6875 
L 18.40625 54.6875 
L 18.40625 0 
L 9.421875 0 
z
M 13.921875 56 
z
" id="DejaVuSans-237"/>
     </defs>
     <g transform="translate(544.154687 175.655625)scale(0.1 -0.1)">
      <use transform="translate(19.482422 0.015625)" xlink:href="#DejaVuSans-8657"/>
      <use transform="translate(122.753906 0.015625)" xlink:href="#DejaVuSans-32"/>
      <use transform="translate(154.541016 0.015625)" xlink:href="#DejaVuSans-115"/>
      <use transform="translate(206.640625 0.015625)" xlink:href="#DejaVuSans-97"/>
      <use transform="translate(267.919922 0.015625)" xlink:href="#DejaVuSans-108"/>
      <use transform="translate(295.703125 0.015625)" xlink:href="#DejaVuSans-225"/>
      <use transform="translate(356.982422 0.015625)" xlink:href="#DejaVuSans-114"/>
      <use transform="translate(398.095703 0.015625)" xlink:href="#DejaVuSans-105"/>
      <use transform="translate(425.878906 0.015625)" xlink:href="#DejaVuSans-111"/>
      <use transform="translate(487.060547 0.015625)" xlink:href="#DejaVuSans-32"/>
      <use transform="translate(518.847656 0.015625)" xlink:href="#DejaVuSans-109"/>
      <use transform="translate(616.259766 0.015625)" xlink:href="#DejaVuSans-237"/>
      <use transform="translate(644.042969 0.015625)" xlink:href="#DejaVuSans-110"/>
      <use transform="translate(707.421875 0.015625)" xlink:href="#DejaVuSans-105"/>
      <use transform="translate(735.205078 0.015625)" xlink:href="#DejaVuSans-109"/>
      <use transform="translate(832.617188 0.015625)" xlink:href="#DejaVuSans-111"/>
     </g>
    </g>
    <g id="line2d_25">
     <path d="M 516.154687 186.83375 
L 536.154687 186.83375 
" style="fill:none;stroke:#d62728;stroke-linecap:square;stroke-width:1.5;"/>
    </g>
    <g id="line2d_26"/>
    <g id="text_18">
     <!-- Imposto progressivo -->
     <defs>
      <path d="M 9.8125 72.90625 
L 19.671875 72.90625 
L 19.671875 0 
L 9.8125 0 
z
" id="DejaVuSans-73"/>
      <path d="M 45.40625 27.984375 
Q 45.40625 37.75 41.375 43.109375 
Q 37.359375 48.484375 30.078125 48.484375 
Q 22.859375 48.484375 18.828125 43.109375 
Q 14.796875 37.75 14.796875 27.984375 
Q 14.796875 18.265625 18.828125 12.890625 
Q 22.859375 7.515625 30.078125 7.515625 
Q 37.359375 7.515625 41.375 12.890625 
Q 45.40625 18.265625 45.40625 27.984375 
z
M 54.390625 6.78125 
Q 54.390625 -7.171875 48.1875 -13.984375 
Q 42 -20.796875 29.203125 -20.796875 
Q 24.46875 -20.796875 20.265625 -20.09375 
Q 16.0625 -19.390625 12.109375 -17.921875 
L 12.109375 -9.1875 
Q 16.0625 -11.328125 19.921875 -12.34375 
Q 23.78125 -13.375 27.78125 -13.375 
Q 36.625 -13.375 41.015625 -8.765625 
Q 45.40625 -4.15625 45.40625 5.171875 
L 45.40625 9.625 
Q 42.625 4.78125 38.28125 2.390625 
Q 33.9375 0 27.875 0 
Q 17.828125 0 11.671875 7.65625 
Q 5.515625 15.328125 5.515625 27.984375 
Q 5.515625 40.671875 11.671875 48.328125 
Q 17.828125 56 27.875 56 
Q 33.9375 56 38.28125 53.609375 
Q 42.625 51.21875 45.40625 46.390625 
L 45.40625 54.6875 
L 54.390625 54.6875 
z
" id="DejaVuSans-103"/>
      <path d="M 2.984375 54.6875 
L 12.5 54.6875 
L 29.59375 8.796875 
L 46.6875 54.6875 
L 56.203125 54.6875 
L 35.6875 0 
L 23.484375 0 
z
" id="DejaVuSans-118"/>
     </defs>
     <g transform="translate(544.154687 190.33375)scale(0.1 -0.1)">
      <use xlink:href="#DejaVuSans-73"/>
      <use x="29.492188" xlink:href="#DejaVuSans-109"/>
      <use x="126.904297" xlink:href="#DejaVuSans-112"/>
      <use x="190.380859" xlink:href="#DejaVuSans-111"/>
      <use x="251.5625" xlink:href="#DejaVuSans-115"/>
      <use x="303.662109" xlink:href="#DejaVuSans-116"/>
      <use x="342.871094" xlink:href="#DejaVuSans-111"/>
      <use x="404.052734" xlink:href="#DejaVuSans-32"/>
      <use x="435.839844" xlink:href="#DejaVuSans-112"/>
      <use x="499.316406" xlink:href="#DejaVuSans-114"/>
      <use x="538.179688" xlink:href="#DejaVuSans-111"/>
      <use x="599.361328" xlink:href="#DejaVuSans-103"/>
      <use x="662.837891" xlink:href="#DejaVuSans-114"/>
      <use x="701.701172" xlink:href="#DejaVuSans-101"/>
      <use x="763.224609" xlink:href="#DejaVuSans-115"/>
      <use x="815.324219" xlink:href="#DejaVuSans-115"/>
      <use x="867.423828" xlink:href="#DejaVuSans-105"/>
      <use x="895.207031" xlink:href="#DejaVuSans-118"/>
      <use x="954.386719" xlink:href="#DejaVuSans-111"/>
     </g>
    </g>
   </g>
  </g>
 </g>
 <defs>
  <clipPath id="p631bf12ced">
   <rect height="271.8" width="446.4" x="60.754688" y="22.318125"/>
  </clipPath>
 </defs>
</svg>
