<?xml version="1.0" encoding="utf-8" standalone="no"?>
<!DOCTYPE svg PUBLIC "-//W3C//DTD SVG 1.1//EN"
  "http://www.w3.org/Graphics/SVG/1.1/DTD/svg11.dtd">
<!-- Created with matplotlib (https://matplotlib.org/) -->
<svg height="331.674375pt" version="1.1" viewBox="0 0 626.2625 331.674375" width="626.2625pt" xmlns="http://www.w3.org/2000/svg" xmlns:xlink="http://www.w3.org/1999/xlink">
 <defs>
  <style type="text/css">
*{stroke-linecap:butt;stroke-linejoin:round;}
  </style>
 </defs>
 <g id="figure_1">
  <g id="patch_1">
   <path d="M 0 331.674375 
L 626.2625 331.674375 
L 626.2625 0 
L 0 0 
z
" style="fill:#ffffff;"/>
  </g>
  <g id="axes_1">
   <g id="patch_2">
    <path d="M 30.103125 294.118125 
L 476.503125 294.118125 
L 476.503125 22.318125 
L 30.103125 22.318125 
z
" style="fill:#ffffff;"/>
   </g>
   <g id="line2d_1">
    <path clip-path="url(#p3acb621123)" d="M 50.394034 106.422227 
L 51.120006 109.632074 
L 51.845977 104.044052 
L 52.571949 101.409526 
L 53.297921 102.447662 
L 54.023893 102.666173 
L 54.749864 102.41334 
L 55.475836 102.393491 
L 56.201808 99.850486 
L 56.927779 104.04745 
L 57.653751 101.255753 
L 58.379723 99.114756 
L 59.105695 100.026364 
L 59.831666 99.913537 
L 60.557638 102.474432 
L 61.28361 97.822112 
L 62.009581 99.745225 
L 62.735553 96.471936 
L 63.461525 97.158045 
L 64.187496 100.179176 
L 64.913468 96.173903 
L 65.63944 96.675525 
L 66.365412 97.923846 
L 67.091383 96.31874 
L 67.817355 94.435203 
L 68.543327 96.024114 
L 69.269298 93.642929 
L 70.721242 91.509113 
L 71.447213 93.219176 
L 72.173185 90.15341 
L 72.899157 89.543659 
L 73.625129 91.286788 
L 74.3511 90.831724 
L 75.077072 90.996859 
L 75.803044 89.305425 
L 77.980959 91.055992 
L 78.70693 90.546803 
L 79.432902 91.273534 
L 80.158874 91.726716 
L 80.884846 89.164414 
L 81.610817 90.587477 
L 82.336789 88.709208 
L 83.062761 93.013535 
L 83.788732 91.000796 
L 84.514704 91.04641 
L 85.240676 90.291168 
L 85.966648 90.501448 
L 86.692619 90.383786 
L 87.418591 89.944286 
L 88.144563 90.041999 
L 89.596506 89.706126 
L 90.322478 89.311611 
L 91.048449 90.893629 
L 91.774421 88.805122 
L 92.500393 88.305006 
L 93.226365 88.412262 
L 93.952336 87.010044 
L 94.678308 90.074814 
L 95.40428 87.644869 
L 96.130251 89.089077 
L 96.856223 89.201112 
L 97.582195 87.755903 
L 98.308166 87.933671 
L 99.034138 87.773656 
L 99.76011 87.896091 
L 100.486082 87.322629 
L 101.212053 89.196648 
L 101.938025 85.739807 
L 102.663997 86.633957 
L 103.389968 86.655824 
L 104.11594 86.871128 
L 104.841912 86.28094 
L 105.567883 86.746595 
L 106.293855 86.43956 
L 107.019827 85.882591 
L 107.745799 84.694622 
L 108.47177 87.70152 
L 109.197742 85.674452 
L 109.923714 85.562482 
L 110.649685 83.983353 
L 111.375657 87.112189 
L 112.101629 84.003844 
L 112.827601 84.448696 
L 113.553572 83.859746 
L 114.279544 84.210484 
L 115.731487 84.026302 
L 116.457459 84.677516 
L 117.183431 83.202117 
L 118.635374 83.951941 
L 119.361346 83.794474 
L 120.087318 84.166608 
L 120.813289 83.611657 
L 121.539261 84.752868 
L 122.265233 83.99589 
L 122.991204 84.16776 
L 123.717176 85.169008 
L 124.443148 84.503076 
L 125.169119 84.654828 
L 126.621063 84.495889 
L 128.073006 84.660728 
L 128.798978 84.472066 
L 129.52495 84.911825 
L 130.250921 84.869261 
L 130.976893 86.376024 
L 131.702865 84.296899 
L 132.428836 83.205136 
L 133.154808 84.15308 
L 133.88078 84.254557 
L 134.606752 84.051555 
L 136.058695 85.041991 
L 136.784667 85.09187 
L 137.510638 84.277364 
L 138.962582 83.701236 
L 139.688554 83.568324 
L 140.414525 83.739746 
L 141.140497 83.456875 
L 141.866469 83.471112 
L 142.59244 84.909745 
L 143.318412 82.188518 
L 144.044384 82.178551 
L 144.770355 82.49843 
L 145.496327 82.437795 
L 146.222299 82.821768 
L 146.948271 81.972228 
L 147.674242 82.717843 
L 148.400214 82.650944 
L 149.126186 81.945108 
L 150.578129 83.007856 
L 151.304101 82.605139 
L 152.030072 81.923596 
L 152.756044 82.864046 
L 153.482016 82.154146 
L 154.207988 82.532747 
L 154.933959 83.056278 
L 155.659931 81.693892 
L 156.385903 81.614466 
L 157.111874 81.415941 
L 157.837846 80.337175 
L 158.563818 80.847953 
L 160.015761 80.778546 
L 160.741733 80.48871 
L 161.467705 81.415781 
L 162.193676 79.986019 
L 162.919648 80.625691 
L 163.64562 79.944041 
L 164.371591 80.082968 
L 165.097563 79.54989 
L 165.823535 79.902335 
L 166.549507 79.496912 
L 168.00145 79.413492 
L 168.727422 78.470425 
L 169.453393 78.780596 
L 170.179365 78.794309 
L 170.905337 78.507247 
L 171.631308 78.954139 
L 172.35728 78.269678 
L 173.083252 76.531898 
L 174.535195 76.252018 
L 175.261167 76.386513 
L 175.987139 75.820067 
L 176.71311 75.439554 
L 177.439082 75.784694 
L 178.165054 75.760742 
L 178.891025 75.52746 
L 179.616997 75.151624 
L 180.342969 75.093827 
L 181.068941 75.380782 
L 181.794912 74.406614 
L 182.520884 75.14403 
L 183.246856 73.626391 
L 183.972827 73.441896 
L 184.698799 74.03337 
L 186.150742 72.961699 
L 186.876714 73.164187 
L 187.602686 72.630494 
L 189.054629 73.868205 
L 189.780601 72.867636 
L 190.506573 72.408106 
L 191.232544 72.124637 
L 191.958516 73.356037 
L 192.684488 71.671327 
L 193.41046 71.847062 
L 194.136431 71.537505 
L 194.862403 71.508668 
L 195.588375 72.355059 
L 197.040318 71.348097 
L 197.76629 72.205123 
L 199.944205 72.535645 
L 200.670177 72.880196 
L 201.396148 73.796807 
L 202.12212 73.497868 
L 203.574063 73.875982 
L 204.300035 74.057594 
L 205.026007 73.570057 
L 205.751978 73.390463 
L 206.47795 73.424969 
L 207.203922 73.787703 
L 207.929894 73.929817 
L 208.655865 73.316989 
L 209.381837 73.738654 
L 210.83378 73.426086 
L 211.559752 73.661874 
L 212.285724 73.05384 
L 213.011695 73.223055 
L 213.737667 73.17245 
L 214.463639 72.846745 
L 217.367526 72.348729 
L 218.819469 72.053378 
L 220.271413 71.903933 
L 220.997384 71.378001 
L 222.449328 72.1522 
L 223.175299 70.615543 
L 223.901271 71.266977 
L 225.353214 71.338874 
L 226.079186 71.13073 
L 226.805158 71.359793 
L 227.53113 70.948109 
L 228.257101 70.767732 
L 228.983073 71.081157 
L 229.709045 70.945519 
L 231.160988 70.332049 
L 231.88696 70.347408 
L 232.612931 70.196613 
L 233.338903 70.321015 
L 234.064875 69.895843 
L 234.790847 70.385558 
L 235.516818 70.035846 
L 236.24279 70.516581 
L 236.968762 69.79707 
L 237.694733 69.902219 
L 238.420705 70.601751 
L 239.146677 69.76757 
L 239.872648 70.134318 
L 240.59862 70.241804 
L 241.324592 69.799098 
L 242.050564 69.881263 
L 243.502507 68.948031 
L 244.228479 69.525633 
L 244.95445 69.36844 
L 246.406394 70.080319 
L 247.132366 69.352608 
L 247.858337 69.421231 
L 248.584309 69.273675 
L 249.310281 69.815491 
L 250.036252 69.587569 
L 250.762224 69.795174 
L 251.488196 69.416645 
L 252.214167 69.361386 
L 252.940139 69.561768 
L 253.666111 69.02963 
L 254.392083 69.405561 
L 255.118054 69.974223 
L 255.844026 69.737911 
L 256.569998 70.047783 
L 257.295969 70.180197 
L 258.021941 70.645764 
L 258.747913 70.4074 
L 260.199856 70.725607 
L 260.925828 70.278193 
L 261.6518 70.890877 
L 263.103743 70.797413 
L 263.829715 71.202842 
L 264.555686 71.06939 
L 265.281658 71.100252 
L 266.00763 70.752418 
L 266.733602 70.76676 
L 267.459573 71.04216 
L 268.185545 70.819124 
L 268.911517 71.007182 
L 270.36346 71.079437 
L 271.089432 70.715302 
L 271.815403 71.230712 
L 272.541375 71.309158 
L 273.267347 70.733038 
L 273.993319 71.258862 
L 274.71929 70.240941 
L 275.445262 70.624886 
L 276.171234 70.64205 
L 276.897205 70.069967 
L 277.623177 70.567227 
L 278.349149 70.088443 
L 279.07512 69.898985 
L 279.801092 69.836158 
L 280.527064 70.130168 
L 281.253036 69.913183 
L 281.979007 70.330694 
L 282.704979 70.089876 
L 283.430951 70.352989 
L 284.882894 70.222851 
L 285.608866 69.93622 
L 286.334837 69.908151 
L 287.060809 69.526637 
L 287.786781 69.683077 
L 288.512753 69.246864 
L 289.238724 69.348876 
L 289.964696 69.034735 
L 290.690668 69.240052 
L 291.416639 69.164978 
L 292.142611 69.538144 
L 292.868583 68.461696 
L 293.594555 68.704518 
L 294.320526 68.479813 
L 295.046498 68.482275 
L 295.77247 68.00176 
L 296.498441 68.358478 
L 297.224413 68.006692 
L 297.950385 67.387058 
L 298.676356 67.328007 
L 299.402328 66.497781 
L 300.854272 66.15785 
L 303.032187 65.932865 
L 303.758158 65.759435 
L 304.48413 65.922938 
L 305.210102 65.813389 
L 305.936073 65.919754 
L 306.662045 65.911962 
L 308.113989 65.425986 
L 309.565932 64.892749 
L 310.291904 64.796353 
L 311.017875 64.541779 
L 311.743847 64.615289 
L 312.469819 64.416351 
L 313.19579 64.727803 
L 313.921762 63.688786 
L 314.647734 63.510271 
L 316.825649 63.411774 
L 317.551621 62.982172 
L 318.277592 62.337101 
L 319.729536 62.62372 
L 320.455508 62.313354 
L 321.181479 62.563179 
L 321.907451 61.936427 
L 322.633423 62.172732 
L 323.359394 62.201113 
L 324.085366 62.014272 
L 325.537309 62.011169 
L 326.263281 61.454429 
L 326.989253 61.287838 
L 327.715225 61.414104 
L 328.441196 61.000829 
L 329.89314 60.525116 
L 330.619111 60.645612 
L 331.345083 60.540453 
L 332.071055 60.712958 
L 332.797026 60.423737 
L 334.24897 60.497568 
L 334.974942 60.132799 
L 335.700913 60.465453 
L 336.426885 60.550618 
L 337.152857 60.222672 
L 338.6048 60.274084 
L 340.056743 59.66512 
L 340.782715 58.981014 
L 341.508687 59.032634 
L 342.234659 58.86797 
L 343.686602 59.146214 
L 344.412574 58.911884 
L 345.138545 59.098994 
L 345.864517 59.432479 
L 347.316461 58.91651 
L 349.494376 59.265958 
L 350.220347 59.226558 
L 350.946319 59.055751 
L 352.398262 59.708371 
L 353.124234 59.609139 
L 353.850206 58.855824 
L 355.302149 59.239445 
L 356.028121 58.601277 
L 356.754093 58.294785 
L 358.206036 58.568749 
L 360.383951 58.392248 
L 361.109923 58.081235 
L 361.835895 57.92904 
L 362.561866 57.203965 
L 363.287838 57.550964 
L 364.01381 57.380445 
L 364.739781 57.725961 
L 365.465753 57.859622 
L 366.191725 57.750134 
L 366.917696 57.42255 
L 367.643668 56.75848 
L 368.36964 57.298917 
L 369.095612 57.474602 
L 369.821583 57.280085 
L 370.547555 57.278594 
L 371.999498 57.521334 
L 372.72547 57.84453 
L 373.451442 57.828693 
L 374.177414 57.958045 
L 376.355329 57.946694 
L 377.0813 57.959135 
L 377.807272 57.549226 
L 378.533244 57.291774 
L 379.259215 57.395208 
L 379.985187 57.235727 
L 380.711159 57.419262 
L 381.437131 57.138768 
L 382.163102 56.665746 
L 382.889074 56.663747 
L 383.615046 56.922427 
L 384.341017 56.972955 
L 385.792961 57.380255 
L 387.970876 56.821041 
L 388.696848 56.771984 
L 389.422819 57.029357 
L 391.600734 56.961786 
L 392.326706 57.066196 
L 393.052678 57.029989 
L 393.778649 56.876267 
L 395.230593 56.825217 
L 395.956565 56.628201 
L 397.408508 56.4814 
L 398.13448 56.374933 
L 401.038367 55.146736 
L 401.764338 54.688141 
L 402.49031 54.54037 
L 403.216282 54.671312 
L 403.942253 54.312261 
L 404.668225 54.090458 
L 405.394197 54.174434 
L 407.572112 54.154451 
L 409.024055 53.269972 
L 409.750027 53.22253 
L 410.475999 52.680993 
L 411.20197 52.518856 
L 412.653914 52.575456 
L 413.379885 52.049172 
L 414.105857 51.190981 
L 414.831829 50.723266 
L 415.557801 50.091423 
L 416.283772 49.661271 
L 417.735716 49.291958 
L 419.187659 48.435712 
L 419.913631 48.312456 
L 422.091546 47.586866 
L 423.543489 47.657325 
L 424.269461 47.603486 
L 424.995433 46.910476 
L 426.447376 46.055035 
L 427.173348 46.274526 
L 427.89932 46.074967 
L 428.625291 46.013508 
L 429.351263 45.686077 
L 430.077235 45.636824 
L 430.803206 45.187528 
L 432.25515 44.003322 
L 432.981121 43.5621 
L 433.707093 43.707761 
L 434.433065 43.463693 
L 435.159037 43.775664 
L 435.885008 43.502674 
L 436.61098 43.70394 
L 437.336952 43.197085 
L 438.062923 43.295665 
L 438.788895 43.219175 
L 440.96681 41.233597 
L 441.692782 41.102201 
L 443.144725 40.337473 
L 443.870697 40.696157 
L 444.596669 39.99196 
L 445.32264 39.947417 
L 446.048612 39.718044 
L 446.774584 39.793311 
L 447.500555 39.306266 
L 448.226527 38.614199 
L 448.952499 38.942215 
L 449.678471 38.979196 
L 450.404442 38.107161 
L 451.130414 37.582578 
L 451.856386 37.290644 
L 453.308329 37.073471 
L 454.760273 35.878121 
L 455.486244 35.395274 
L 456.212216 34.67267 
L 456.212216 34.67267 
" style="fill:none;stroke:#1f77b4;stroke-linecap:square;stroke-width:1.5;"/>
   </g>
   <g id="line2d_2">
    <path clip-path="url(#p3acb621123)" d="M 50.394034 271.807805 
L 51.120006 275.19006 
L 51.845977 271.780934 
L 52.571949 269.815759 
L 53.297921 271.600527 
L 54.023893 271.294216 
L 54.749864 272.194101 
L 55.475836 268.376056 
L 56.201808 270.862953 
L 56.927779 272.549408 
L 57.653751 271.405759 
L 58.379723 271.81676 
L 59.831666 272.186466 
L 60.557638 270.616372 
L 61.28361 271.9144 
L 62.735553 273.718494 
L 63.461525 272.43311 
L 64.187496 274.868782 
L 64.913468 270.251928 
L 65.63944 272.009886 
L 66.365412 270.588808 
L 67.091383 271.810105 
L 67.817355 272.04994 
L 68.543327 271.924683 
L 69.269298 272.583756 
L 69.99527 271.274338 
L 70.721242 271.393493 
L 71.447213 272.553292 
L 72.173185 271.373754 
L 72.899157 271.538377 
L 73.625129 272.340639 
L 74.3511 272.970499 
L 75.077072 273.091713 
L 75.803044 272.915056 
L 76.529015 273.511057 
L 80.158874 277.514647 
L 80.884846 275.923656 
L 81.610817 276.998496 
L 82.336789 277.337463 
L 83.062761 278.478968 
L 83.788732 277.381822 
L 84.514704 279.198165 
L 85.240676 277.963195 
L 85.966648 278.776264 
L 86.692619 278.52841 
L 88.144563 279.018692 
L 88.870534 278.531395 
L 89.596506 279.13505 
L 90.322478 279.063993 
L 91.048449 279.940688 
L 91.774421 276.621211 
L 92.500393 277.540627 
L 93.226365 277.596216 
L 93.952336 277.768937 
L 94.678308 278.672062 
L 95.40428 278.305698 
L 96.130251 278.36608 
L 96.856223 278.806217 
L 97.582195 277.914926 
L 98.308166 277.962789 
L 99.034138 277.020916 
L 99.76011 278.346148 
L 100.486082 278.705546 
L 101.212053 279.297672 
L 101.938025 278.521156 
L 106.293855 279.27934 
L 107.019827 278.871732 
L 107.745799 279.142809 
L 108.47177 280.032127 
L 109.197742 278.069286 
L 109.923714 279.020526 
L 110.649685 279.119667 
L 111.375657 280.414776 
L 112.101629 279.087396 
L 112.827601 279.218344 
L 113.553572 279.021864 
L 114.279544 279.206892 
L 115.005516 279.000126 
L 115.731487 279.306482 
L 116.457459 279.40481 
L 117.183431 278.702703 
L 117.909402 278.767305 
L 118.635374 279.143745 
L 119.361346 277.858919 
L 120.087318 279.088576 
L 121.539261 279.592536 
L 122.265233 277.516886 
L 122.991204 278.719979 
L 123.717176 278.952655 
L 124.443148 278.536072 
L 125.169119 279.254671 
L 125.895091 278.57211 
L 126.621063 278.744982 
L 127.347035 278.532275 
L 128.073006 278.449826 
L 128.798978 278.745949 
L 130.250921 278.665967 
L 130.976893 279.678438 
L 131.702865 278.385312 
L 132.428836 278.447346 
L 133.154808 278.646419 
L 133.88078 277.274367 
L 134.606752 278.151453 
L 135.332723 276.955721 
L 136.058695 278.150644 
L 136.784667 278.230713 
L 137.510638 277.714006 
L 138.23661 277.632189 
L 138.962582 277.149254 
L 139.688554 277.032218 
L 140.414525 277.281115 
L 141.866469 276.814407 
L 142.59244 277.425987 
L 143.318412 275.994875 
L 144.770355 276.037719 
L 145.496327 275.84859 
L 146.222299 275.39787 
L 146.948271 276.400361 
L 147.674242 276.110953 
L 148.400214 276.150979 
L 149.852157 275.736522 
L 150.578129 275.074226 
L 151.304101 275.642145 
L 152.756044 275.415755 
L 153.482016 274.940512 
L 154.207988 274.655751 
L 154.933959 275.01833 
L 155.659931 274.14385 
L 157.111874 273.510571 
L 157.837846 273.713819 
L 159.289789 273.134067 
L 160.015761 272.974198 
L 160.741733 272.615422 
L 161.467705 272.878819 
L 162.193676 272.598125 
L 162.919648 273.592299 
L 163.64562 273.094235 
L 164.371591 273.107901 
L 165.823535 272.711094 
L 167.275478 272.277103 
L 168.727422 272.044898 
L 170.179365 271.579898 
L 170.905337 271.345768 
L 171.631308 271.447205 
L 172.35728 271.038648 
L 173.083252 269.775744 
L 173.809224 270.35317 
L 174.535195 270.336228 
L 175.261167 270.465203 
L 176.71311 269.428588 
L 177.439082 269.867448 
L 178.891025 269.453809 
L 180.342969 269.293524 
L 181.068941 269.285671 
L 181.794912 268.870846 
L 182.520884 269.249393 
L 183.246856 267.851142 
L 183.972827 268.635698 
L 184.698799 268.811338 
L 185.424771 268.632968 
L 186.150742 268.231437 
L 187.602686 268.217041 
L 188.328658 268.080259 
L 189.054629 268.385812 
L 190.506573 267.501151 
L 191.232544 267.510894 
L 191.958516 267.895231 
L 192.684488 267.23118 
L 194.136431 266.944921 
L 194.862403 267.227279 
L 195.588375 267.338942 
L 196.314346 266.852879 
L 197.040318 267.281885 
L 197.76629 266.820287 
L 198.492261 267.283 
L 199.218233 267.458874 
L 199.944205 267.433692 
L 201.396148 267.893118 
L 202.12212 267.86769 
L 202.848092 267.351032 
L 203.574063 267.996865 
L 204.300035 267.899604 
L 205.026007 267.394861 
L 205.751978 267.808653 
L 206.47795 267.973185 
L 207.203922 267.987905 
L 207.929894 267.59078 
L 208.655865 267.83708 
L 211.559752 267.377167 
L 212.285724 267.434157 
L 213.737667 267.338767 
L 214.463639 267.41207 
L 215.189611 266.828985 
L 215.915582 267.15251 
L 216.641554 267.185075 
L 218.093497 266.876728 
L 218.819469 267.016097 
L 220.997384 266.895334 
L 222.449328 267.098429 
L 223.175299 266.882623 
L 224.627243 267.005707 
L 225.353214 266.572289 
L 226.079186 267.25722 
L 226.805158 267.514524 
L 227.53113 267.080197 
L 228.257101 267.372742 
L 229.709045 267.131519 
L 230.435016 267.180607 
L 231.160988 266.713051 
L 231.88696 266.780893 
L 232.612931 266.712854 
L 233.338903 266.804672 
L 234.790847 266.411372 
L 236.24279 267.154049 
L 236.968762 266.713252 
L 239.146677 266.592439 
L 240.59862 266.771317 
L 241.324592 266.472659 
L 242.776535 266.346384 
L 244.228479 266.426668 
L 246.406394 266.520117 
L 247.132366 266.273039 
L 247.858337 266.145547 
L 249.310281 266.278279 
L 250.036252 266.153625 
L 250.762224 266.208299 
L 252.214167 266.004726 
L 252.940139 266.099009 
L 253.666111 265.842101 
L 254.392083 266.18791 
L 260.199856 266.602594 
L 260.925828 266.431689 
L 261.6518 266.921288 
L 262.377771 267.075494 
L 264.555686 267.014465 
L 265.281658 266.536115 
L 266.00763 266.793383 
L 266.733602 266.68176 
L 267.459573 266.741797 
L 268.911517 266.681474 
L 272.541375 266.827273 
L 273.267347 266.578032 
L 273.993319 266.761597 
L 274.71929 266.464268 
L 275.445262 266.496377 
L 276.171234 266.394711 
L 276.897205 266.849165 
L 277.623177 267.12436 
L 279.07512 266.821997 
L 280.527064 266.9843 
L 282.704979 266.909459 
L 283.430951 266.919981 
L 284.156922 266.736449 
L 284.882894 266.915091 
L 287.060809 266.631842 
L 289.238724 266.533325 
L 291.416639 266.372665 
L 292.142611 266.542233 
L 292.868583 266.149916 
L 294.320526 266.095651 
L 295.046498 265.787156 
L 295.77247 266.02991 
L 296.498441 265.764102 
L 297.224413 266.097704 
L 297.950385 265.893107 
L 298.676356 266.093402 
L 299.402328 265.728474 
L 300.1283 265.509757 
L 303.032187 265.443603 
L 305.210102 265.357975 
L 305.936073 265.155594 
L 306.662045 265.27973 
L 308.113989 265.122731 
L 308.83996 265.175819 
L 309.565932 264.889138 
L 310.291904 264.783911 
L 311.017875 265.085016 
L 311.743847 265.142335 
L 312.469819 265.046934 
L 313.19579 265.182882 
L 313.921762 264.705044 
L 314.647734 264.435338 
L 315.373706 264.593006 
L 316.825649 264.645532 
L 317.551621 264.318074 
L 319.003564 264.081332 
L 319.729536 264.265988 
L 320.455508 264.197208 
L 321.181479 264.262013 
L 321.907451 264.058735 
L 322.633423 264.148771 
L 323.359394 264.418552 
L 324.811338 264.662598 
L 325.537309 264.553488 
L 326.263281 264.279182 
L 328.441196 263.902573 
L 329.167168 263.55826 
L 331.345083 263.766067 
L 333.522998 263.658084 
L 334.24897 263.665785 
L 334.974942 263.816838 
L 335.700913 263.759173 
L 336.426885 263.996972 
L 337.878828 264.210487 
L 338.6048 264.043829 
L 339.330772 264.175133 
L 340.782715 264.07199 
L 345.864517 263.985132 
L 346.590489 263.853047 
L 350.220347 264.20201 
L 350.946319 264.127353 
L 351.672291 264.250975 
L 352.398262 264.489258 
L 353.124234 264.453135 
L 353.850206 264.078609 
L 355.302149 264.091258 
L 356.754093 263.989396 
L 358.206036 264.021945 
L 360.383951 263.879417 
L 362.561866 263.919877 
L 366.191725 263.907253 
L 367.643668 263.46887 
L 368.36964 263.80829 
L 369.095612 263.854207 
L 369.821583 263.643107 
L 370.547555 263.581817 
L 372.72547 263.992638 
L 374.177414 264.044017 
L 375.629357 264.064592 
L 376.355329 263.887284 
L 377.0813 263.884609 
L 378.533244 264.043938 
L 380.711159 264.123011 
L 381.437131 264.045992 
L 382.163102 263.794656 
L 384.341017 263.619566 
L 385.066989 263.59785 
L 386.518932 263.725809 
L 387.970876 263.374508 
L 390.148791 263.414397 
L 391.600734 263.777578 
L 393.052678 263.755855 
L 394.504621 263.418989 
L 395.230593 263.506213 
L 395.956565 263.737364 
L 396.682536 263.847763 
L 398.13448 263.803836 
L 398.860451 263.909997 
L 402.49031 263.088631 
L 406.120168 262.864971 
L 406.84614 262.973207 
L 407.572112 263.320792 
L 408.298084 263.123103 
L 409.750027 263.0327 
L 410.475999 262.826912 
L 411.20197 262.886887 
L 412.653914 262.761709 
L 414.105857 262.199207 
L 415.557801 261.740362 
L 417.009744 261.833089 
L 417.735716 261.890388 
L 422.817518 261.463498 
L 424.269461 261.363609 
L 426.447376 260.818439 
L 427.173348 261.10215 
L 427.89932 261.17314 
L 428.625291 261.392704 
L 429.351263 261.377503 
L 430.077235 261.538394 
L 430.803206 261.510371 
L 431.529178 261.255082 
L 435.885008 261.071654 
L 437.336952 261.025986 
L 439.514867 260.835578 
L 440.240838 260.511301 
L 440.96681 260.417309 
L 441.692782 260.588347 
L 442.418754 260.624993 
L 443.144725 260.429811 
L 443.870697 260.446945 
L 445.32264 260.208951 
L 446.774584 260.296069 
L 447.500555 260.021605 
L 449.678471 259.965446 
L 454.034301 259.881394 
L 456.212216 259.83 
L 456.212216 259.83 
" style="fill:none;stroke:#ff7f0e;stroke-linecap:square;stroke-width:1.5;"/>
   </g>
   <g id="line2d_3">
    <path clip-path="url(#p3acb621123)" d="M 50.394034 276.134838 
L 51.120006 277.513136 
L 52.571949 275.142901 
L 53.297921 273.393358 
L 54.023893 271.974098 
L 54.749864 271.155423 
L 55.475836 270.734039 
L 56.201808 270.933676 
L 56.927779 271.392091 
L 57.653751 268.955969 
L 58.379723 269.246808 
L 59.831666 267.437206 
L 60.557638 269.627872 
L 61.28361 267.099187 
L 62.009581 267.270005 
L 62.735553 266.738208 
L 63.461525 266.889062 
L 64.187496 267.9489 
L 64.913468 267.895567 
L 65.63944 267.271033 
L 66.365412 267.628591 
L 67.817355 266.45042 
L 68.543327 266.345205 
L 69.269298 266.090202 
L 69.99527 265.195374 
L 70.721242 264.50576 
L 71.447213 265.277537 
L 72.173185 263.689347 
L 72.899157 263.514272 
L 73.625129 264.16967 
L 74.3511 264.091932 
L 75.077072 264.510535 
L 75.803044 263.588167 
L 76.529015 263.549672 
L 77.254987 263.810718 
L 78.70693 264.709909 
L 79.432902 263.612856 
L 80.158874 265.613822 
L 80.884846 263.637141 
L 81.610817 264.950891 
L 82.336789 264.850871 
L 83.062761 265.553168 
L 83.788732 266.050205 
L 84.514704 268.276931 
L 85.240676 268.153525 
L 85.966648 268.215258 
L 86.692619 267.54136 
L 87.418591 269.199637 
L 88.144563 268.812811 
L 88.870534 268.193068 
L 89.596506 269.097131 
L 91.048449 269.927019 
L 91.774421 268.027516 
L 92.500393 267.332294 
L 93.226365 267.016735 
L 93.952336 267.025603 
L 94.678308 267.150915 
L 95.40428 267.739459 
L 96.130251 267.702436 
L 96.856223 267.355896 
L 97.582195 266.306566 
L 98.308166 265.455063 
L 99.034138 265.528612 
L 99.76011 265.239163 
L 100.486082 264.652529 
L 101.212053 265.87956 
L 101.938025 264.271461 
L 102.663997 264.186533 
L 103.389968 263.750563 
L 104.11594 263.613488 
L 104.841912 263.328868 
L 105.567883 263.328132 
L 106.293855 262.993824 
L 107.019827 262.527454 
L 107.745799 262.553599 
L 108.47177 264.262272 
L 109.197742 262.923175 
L 109.923714 262.563217 
L 110.649685 261.912525 
L 111.375657 263.805613 
L 112.101629 261.943802 
L 112.827601 261.815825 
L 113.553572 261.933414 
L 114.279544 262.721612 
L 115.005516 263.019821 
L 115.731487 262.72857 
L 116.457459 263.745735 
L 117.183431 262.505347 
L 117.909402 263.134863 
L 118.635374 263.14236 
L 119.361346 263.501042 
L 120.087318 263.117518 
L 120.813289 263.579149 
L 121.539261 263.519686 
L 122.265233 263.01451 
L 122.991204 263.590593 
L 123.717176 264.315893 
L 124.443148 263.361285 
L 125.169119 263.775955 
L 125.895091 262.93125 
L 126.621063 263.411786 
L 127.347035 263.484285 
L 128.073006 263.103651 
L 128.798978 263.245708 
L 129.52495 262.879486 
L 130.250921 262.807945 
L 130.976893 263.552613 
L 132.428836 262.140819 
L 133.154808 261.869059 
L 133.88078 261.726991 
L 134.606752 261.39217 
L 135.332723 261.330993 
L 136.058695 261.578598 
L 136.784667 261.400361 
L 137.510638 260.662135 
L 138.23661 260.360781 
L 138.962582 261.225782 
L 139.688554 260.990703 
L 141.140497 260.185628 
L 141.866469 260.029448 
L 142.59244 260.646966 
L 143.318412 259.143771 
L 144.044384 258.887823 
L 144.770355 258.990581 
L 145.496327 259.841227 
L 146.222299 259.884341 
L 146.948271 260.548242 
L 147.674242 260.210042 
L 148.400214 260.396106 
L 149.126186 260.395633 
L 149.852157 260.103739 
L 151.304101 259.682786 
L 152.030072 259.340987 
L 152.756044 259.445709 
L 153.482016 258.997518 
L 154.207988 258.904624 
L 154.933959 259.420449 
L 155.659931 258.542924 
L 157.111874 258.524561 
L 158.563818 258.546519 
L 159.289789 258.579602 
L 160.015761 258.434153 
L 160.741733 258.572387 
L 161.467705 258.973066 
L 162.193676 258.488331 
L 162.919648 259.383922 
L 163.64562 258.702639 
L 164.371591 258.792163 
L 165.097563 258.534391 
L 165.823535 259.262615 
L 166.549507 258.693727 
L 167.275478 259.624994 
L 168.00145 259.778996 
L 168.727422 259.488138 
L 169.453393 259.318893 
L 170.905337 259.761254 
L 171.631308 259.893128 
L 172.35728 259.663481 
L 173.083252 258.893137 
L 173.809224 258.975282 
L 174.535195 258.870255 
L 175.261167 259.48474 
L 175.987139 259.061946 
L 176.71311 258.842058 
L 177.439082 259.822172 
L 178.165054 259.817243 
L 179.616997 259.270031 
L 181.068941 259.209539 
L 181.794912 258.899931 
L 183.246856 259.034814 
L 183.972827 259.080805 
L 184.698799 259.304979 
L 185.424771 259.250114 
L 186.876714 258.723761 
L 187.602686 258.676699 
L 189.054629 258.822028 
L 189.780601 258.181837 
L 190.506573 257.856904 
L 191.232544 257.772318 
L 191.958516 257.940755 
L 193.41046 257.19488 
L 194.862403 257.167054 
L 195.588375 257.496369 
L 197.040318 257.281942 
L 197.76629 257.606841 
L 198.492261 257.480957 
L 202.12212 257.639512 
L 202.848092 257.666282 
L 204.300035 258.04152 
L 205.026007 257.606909 
L 205.751978 257.979423 
L 206.47795 257.877908 
L 207.203922 258.116105 
L 208.655865 257.827515 
L 210.107809 258.320873 
L 210.83378 258.035608 
L 211.559752 258.623289 
L 212.285724 258.985255 
L 213.011695 258.956361 
L 213.737667 258.76946 
L 214.463639 258.819511 
L 215.189611 258.353518 
L 215.915582 258.577405 
L 216.641554 259.041006 
L 217.367526 258.918078 
L 218.093497 258.560091 
L 219.545441 258.932571 
L 220.271413 258.62582 
L 220.997384 258.581005 
L 221.723356 258.652521 
L 222.449328 258.571149 
L 223.175299 258.02597 
L 223.901271 257.985506 
L 224.627243 257.798112 
L 225.353214 258.171326 
L 226.079186 257.9857 
L 226.805158 258.484595 
L 229.709045 258.14182 
L 230.435016 258.623447 
L 231.160988 258.077584 
L 232.612931 257.696756 
L 233.338903 257.80255 
L 234.790847 257.650393 
L 235.516818 257.935221 
L 236.24279 258.41278 
L 236.968762 258.057758 
L 237.694733 257.892769 
L 238.420705 258.212153 
L 239.872648 257.931955 
L 240.59862 258.021543 
L 241.324592 257.934662 
L 242.776535 258.237006 
L 244.228479 258.933896 
L 244.95445 259.15405 
L 245.680422 259.14996 
L 246.406394 258.95798 
L 247.132366 258.392707 
L 247.858337 258.113799 
L 250.036252 257.820507 
L 250.762224 258.404861 
L 251.488196 257.857093 
L 252.214167 257.822528 
L 252.940139 257.938945 
L 253.666111 257.756665 
L 254.392083 257.716964 
L 255.118054 257.911822 
L 255.844026 257.688782 
L 257.295969 257.891555 
L 258.021941 258.077786 
L 258.747913 257.974647 
L 259.473884 258.791149 
L 260.199856 258.891757 
L 260.925828 258.816765 
L 261.6518 258.955152 
L 264.555686 259.003682 
L 266.00763 258.667775 
L 268.911517 258.818275 
L 269.637488 259.100355 
L 272.541375 259.09619 
L 273.267347 259.361789 
L 273.993319 259.488232 
L 275.445262 259.493063 
L 276.171234 259.784649 
L 277.623177 259.971395 
L 279.801092 260.450904 
L 281.253036 260.405193 
L 283.430951 260.304636 
L 284.882894 260.105155 
L 287.060809 259.820665 
L 290.690668 259.613569 
L 291.416639 259.704792 
L 292.142611 260.006912 
L 292.868583 259.471309 
L 293.594555 260.007172 
L 295.046498 260.251309 
L 295.77247 260.162137 
L 296.498441 260.27284 
L 297.224413 260.184356 
L 298.676356 260.687559 
L 299.402328 260.195714 
L 300.854272 260.009619 
L 303.032187 259.523233 
L 303.758158 259.401076 
L 305.210102 259.550384 
L 306.662045 259.275333 
L 307.388017 259.362537 
L 308.83996 259.340429 
L 310.291904 259.547469 
L 311.743847 259.380121 
L 312.469819 259.209254 
L 313.19579 259.352948 
L 314.647734 258.768594 
L 316.825649 258.983824 
L 317.551621 258.633726 
L 319.003564 258.845724 
L 321.181479 258.950641 
L 321.907451 258.741317 
L 323.359394 259.169901 
L 324.085366 259.099427 
L 324.811338 259.26111 
L 325.537309 259.147448 
L 326.263281 258.835552 
L 326.989253 258.823442 
L 327.715225 259.029553 
L 328.441196 258.704987 
L 329.167168 258.61075 
L 329.89314 258.651694 
L 331.345083 259.441534 
L 332.071055 259.59649 
L 332.797026 259.260784 
L 333.522998 259.143798 
L 334.974942 259.350358 
L 335.700913 259.235282 
L 336.426885 259.389308 
L 337.878828 259.253107 
L 338.6048 259.458062 
L 339.330772 259.379414 
L 340.782715 259.55714 
L 342.234659 259.605804 
L 343.686602 259.353155 
L 344.412574 259.457773 
L 345.138545 259.823403 
L 345.864517 259.840278 
L 346.590489 259.700631 
L 348.042432 259.732801 
L 348.768404 259.633628 
L 349.494376 259.685509 
L 351.672291 259.49508 
L 353.124234 259.67963 
L 353.850206 259.508063 
L 356.028121 259.705123 
L 356.754093 259.905567 
L 358.206036 259.934719 
L 360.383951 259.797812 
L 361.835895 259.50508 
L 362.561866 259.185549 
L 365.465753 259.390913 
L 366.191725 259.615981 
L 367.643668 259.857903 
L 368.36964 260.13502 
L 369.821583 260.179471 
L 370.547555 260.210494 
L 372.72547 260.640643 
L 374.903385 260.516035 
L 375.629357 260.322788 
L 377.0813 260.506728 
L 377.807272 260.22074 
L 379.985187 260.391877 
L 380.711159 260.712221 
L 381.437131 260.885952 
L 382.163102 260.746299 
L 383.615046 261.118899 
L 384.341017 261.199676 
L 385.066989 261.473513 
L 386.518932 261.360079 
L 387.244904 261.335082 
L 387.970876 261.48113 
L 388.696848 261.848131 
L 391.600734 262.531905 
L 392.326706 262.434422 
L 393.778649 262.657419 
L 395.956565 262.668705 
L 396.682536 262.600465 
L 397.408508 262.654134 
L 398.860451 262.318121 
L 399.586423 262.280257 
L 401.764338 261.493276 
L 402.49031 261.567911 
L 403.216282 261.910258 
L 403.942253 261.803705 
L 405.394197 262.065328 
L 406.120168 262.374906 
L 406.84614 262.537275 
L 407.572112 262.911117 
L 408.298084 262.642546 
L 409.024055 262.593766 
L 409.750027 262.331728 
L 411.927942 262.20353 
L 412.653914 262.107495 
L 413.379885 261.778379 
L 414.105857 261.167065 
L 417.009744 261.147887 
L 420.639602 261.208267 
L 421.365574 261.049818 
L 422.817518 261.01184 
L 423.543489 260.904381 
L 424.269461 260.947386 
L 424.995433 260.609882 
L 425.721404 260.490443 
L 426.447376 260.667259 
L 427.89932 261.279557 
L 429.351263 261.511805 
L 430.803206 261.532044 
L 431.529178 261.18185 
L 432.981121 261.323542 
L 433.707093 261.557659 
L 434.433065 261.648038 
L 435.159037 262.024784 
L 435.885008 261.967455 
L 436.61098 262.318544 
L 437.336952 262.290025 
L 438.062923 262.469401 
L 441.692782 261.975089 
L 442.418754 262.0147 
L 443.144725 261.88987 
L 443.870697 262.059808 
L 444.596669 261.905866 
L 445.32264 262.143371 
L 446.048612 262.028184 
L 446.774584 262.248463 
L 448.226527 262.043843 
L 448.952499 262.339371 
L 449.678471 262.321094 
L 450.404442 261.882368 
L 451.130414 261.771972 
L 451.856386 261.835429 
L 452.582357 261.64125 
L 456.212216 261.420273 
L 456.212216 261.420273 
" style="fill:none;stroke:#2ca02c;stroke-linecap:square;stroke-width:1.5;"/>
   </g>
   <g id="line2d_4">
    <path clip-path="url(#p3acb621123)" d="M 50.394034 279.501377 
L 51.120006 281.76358 
L 51.845977 277.833753 
L 52.571949 277.892703 
L 54.023893 277.019007 
L 54.749864 277.25134 
L 55.475836 275.767952 
L 56.201808 276.780847 
L 56.927779 278.153606 
L 57.653751 276.912383 
L 58.379723 275.055667 
L 59.105695 276.309159 
L 59.831666 275.766529 
L 60.557638 277.287968 
L 61.28361 274.619669 
L 62.009581 276.433256 
L 62.735553 275.629827 
L 63.461525 275.461129 
L 64.187496 275.791769 
L 64.913468 275.084163 
L 65.63944 275.326847 
L 66.365412 275.000484 
L 67.091383 275.179902 
L 67.817355 274.876633 
L 68.543327 275.364907 
L 69.269298 275.51312 
L 69.99527 274.056936 
L 70.721242 274.017052 
L 71.447213 275.014646 
L 72.173185 272.965472 
L 72.899157 273.796815 
L 73.625129 273.928298 
L 74.3511 274.494039 
L 75.077072 274.704418 
L 75.803044 274.260878 
L 76.529015 274.619637 
L 77.980959 276.150371 
L 78.70693 276.444086 
L 79.432902 277.402802 
L 80.158874 276.826664 
L 80.884846 277.13531 
L 82.336789 278.121441 
L 83.062761 279.087577 
L 83.788732 278.523916 
L 84.514704 279.706331 
L 85.240676 277.510762 
L 85.966648 278.993654 
L 86.692619 277.488611 
L 87.418591 278.903641 
L 88.870534 278.8512 
L 89.596506 279.355167 
L 90.322478 279.427824 
L 91.048449 280.308773 
L 91.774421 279.04109 
L 92.500393 278.317381 
L 93.226365 278.191219 
L 94.678308 279.43682 
L 95.40428 279.462149 
L 96.130251 279.858434 
L 96.856223 278.969959 
L 97.582195 278.374521 
L 98.308166 278.129885 
L 99.034138 278.269499 
L 99.76011 278.236261 
L 100.486082 278.352849 
L 101.212053 279.135984 
L 101.938025 278.192424 
L 102.663997 278.268633 
L 103.389968 278.549938 
L 104.11594 278.412872 
L 104.841912 278.056558 
L 105.567883 278.997751 
L 106.293855 278.825055 
L 107.019827 278.144224 
L 107.745799 278.760315 
L 109.923714 278.086038 
L 110.649685 278.215835 
L 111.375657 279.330021 
L 112.101629 277.009903 
L 112.827601 277.927128 
L 113.553572 277.876432 
L 114.279544 278.125815 
L 115.005516 277.997541 
L 115.731487 278.055109 
L 116.457459 278.376701 
L 117.183431 277.529897 
L 117.909402 276.218374 
L 118.635374 277.27604 
L 119.361346 277.864174 
L 120.087318 277.455251 
L 120.813289 277.250094 
L 121.539261 277.92945 
L 122.265233 277.927689 
L 122.991204 278.083352 
L 126.621063 277.787923 
L 127.347035 277.834995 
L 128.073006 277.010997 
L 128.798978 277.814941 
L 129.52495 278.034909 
L 130.250921 277.890952 
L 130.976893 278.049988 
L 131.702865 277.099367 
L 132.428836 276.588094 
L 133.154808 276.484467 
L 133.88078 276.615129 
L 136.058695 276.193288 
L 136.784667 276.340034 
L 137.510638 275.29945 
L 138.23661 275.586799 
L 138.962582 275.457415 
L 139.688554 275.536529 
L 140.414525 275.394597 
L 141.140497 274.130271 
L 142.59244 275.630756 
L 143.318412 274.055271 
L 144.044384 274.099971 
L 144.770355 273.657655 
L 145.496327 274.191498 
L 146.222299 273.947932 
L 146.948271 274.22784 
L 147.674242 273.729842 
L 148.400214 273.869176 
L 151.304101 273.385218 
L 152.030072 272.581669 
L 152.756044 273.286521 
L 153.482016 273.003322 
L 154.933959 273.512927 
L 155.659931 272.736482 
L 157.111874 272.442809 
L 157.837846 271.850336 
L 158.563818 272.066358 
L 159.289789 271.296379 
L 160.015761 271.814814 
L 160.741733 271.817256 
L 161.467705 272.179977 
L 162.193676 271.610541 
L 162.919648 271.936474 
L 163.64562 271.475532 
L 165.097563 271.138543 
L 165.823535 270.627216 
L 166.549507 271.048879 
L 167.275478 270.714522 
L 168.00145 270.767453 
L 169.453393 270.190354 
L 170.179365 270.164784 
L 170.905337 269.790513 
L 171.631308 270.141295 
L 172.35728 269.454105 
L 173.809224 268.881832 
L 175.261167 268.885977 
L 175.987139 268.740699 
L 177.439082 268.66867 
L 178.165054 268.437356 
L 178.891025 268.757981 
L 180.342969 268.535155 
L 181.068941 268.692134 
L 181.794912 267.835469 
L 182.520884 268.56209 
L 183.246856 267.761982 
L 183.972827 267.661642 
L 184.698799 267.795248 
L 185.424771 267.374248 
L 186.150742 267.158218 
L 186.876714 267.402435 
L 187.602686 266.998208 
L 189.054629 268.028272 
L 189.780601 267.575356 
L 190.506573 267.437023 
L 191.958516 267.42992 
L 194.136431 266.918043 
L 195.588375 267.434564 
L 196.314346 267.135666 
L 197.040318 267.454166 
L 197.76629 267.418009 
L 198.492261 267.666416 
L 199.944205 267.92617 
L 200.670177 267.830741 
L 201.396148 268.44042 
L 202.12212 268.167429 
L 202.848092 268.392177 
L 203.574063 268.378104 
L 204.300035 268.640361 
L 205.026007 268.397214 
L 205.751978 268.475648 
L 207.203922 268.86609 
L 207.929894 268.914605 
L 208.655865 268.524383 
L 209.381837 269.043873 
L 210.83378 269.114344 
L 211.559752 269.32147 
L 212.285724 268.842468 
L 213.011695 269.218904 
L 213.737667 269.115771 
L 214.463639 269.391403 
L 215.189611 269.109344 
L 215.915582 269.117118 
L 216.641554 268.818016 
L 217.367526 269.196544 
L 218.819469 268.73208 
L 219.545441 269.03912 
L 220.997384 269.208192 
L 221.723356 268.577386 
L 222.449328 269.229888 
L 223.175299 268.73662 
L 223.901271 268.889888 
L 224.627243 268.738719 
L 225.353214 268.461423 
L 226.079186 268.610911 
L 228.257101 268.456117 
L 229.709045 268.273153 
L 230.435016 268.443832 
L 231.160988 267.822961 
L 231.88696 267.979335 
L 232.612931 267.903274 
L 233.338903 268.032011 
L 240.59862 267.72901 
L 242.050564 268.142621 
L 242.776535 267.915828 
L 244.228479 268.300848 
L 245.680422 268.229972 
L 246.406394 268.448925 
L 247.132366 268.022202 
L 247.858337 268.036325 
L 248.584309 268.162456 
L 249.310281 267.90596 
L 250.762224 268.563022 
L 251.488196 268.293987 
L 252.214167 268.217619 
L 252.940139 268.286275 
L 253.666111 268.114148 
L 254.392083 268.150878 
L 255.118054 268.315204 
L 255.844026 268.172311 
L 256.569998 268.272308 
L 257.295969 268.156719 
L 258.021941 268.679527 
L 259.473884 268.495791 
L 260.199856 268.727353 
L 260.925828 268.754074 
L 262.377771 268.980055 
L 263.103743 268.834628 
L 264.555686 269.40142 
L 265.281658 269.299251 
L 266.00763 268.826812 
L 266.733602 269.36037 
L 267.459573 269.458777 
L 268.911517 269.466762 
L 273.993319 269.567613 
L 275.445262 269.387293 
L 280.527064 269.340469 
L 285.608866 269.410943 
L 286.334837 269.206783 
L 287.060809 269.360912 
L 288.512753 269.239404 
L 289.964696 269.138208 
L 290.690668 269.005119 
L 292.142611 269.235178 
L 292.868583 268.806822 
L 293.594555 268.879407 
L 295.046498 268.780255 
L 295.77247 268.765701 
L 296.498441 268.585132 
L 297.224413 268.823576 
L 297.950385 268.358961 
L 298.676356 268.649223 
L 299.402328 268.29738 
L 300.1283 268.162574 
L 302.306215 268.294908 
L 303.032187 268.147797 
L 303.758158 268.350285 
L 305.936073 268.331514 
L 308.83996 268.4644 
L 309.565932 268.223983 
L 311.017875 268.392262 
L 312.469819 268.454967 
L 313.19579 268.701467 
L 313.921762 268.38859 
L 315.373706 268.267256 
L 316.825649 268.760463 
L 317.551621 268.20265 
L 318.277592 268.408743 
L 319.003564 268.441719 
L 319.729536 268.301955 
L 320.455508 268.567718 
L 321.181479 268.602508 
L 321.907451 268.471145 
L 322.633423 268.61829 
L 323.359394 268.528096 
L 324.811338 268.807657 
L 326.263281 268.673093 
L 327.715225 268.71332 
L 328.441196 268.423742 
L 329.167168 268.618043 
L 329.89314 268.611307 
L 331.345083 268.868908 
L 332.797026 268.859499 
L 334.24897 269.124017 
L 334.974942 269.089315 
L 336.426885 269.216064 
L 337.152857 269.09979 
L 337.878828 269.256869 
L 338.6048 269.122969 
L 339.330772 269.219283 
L 340.782715 269.052602 
L 341.508687 269.028718 
L 343.686602 269.238023 
L 345.138545 269.30728 
L 345.864517 269.405839 
L 346.590489 269.344056 
L 348.768404 269.640827 
L 352.398262 269.701596 
L 353.124234 269.729276 
L 353.850206 269.447853 
L 355.302149 269.576099 
L 356.754093 269.502811 
L 358.206036 269.658178 
L 361.109923 269.664045 
L 361.835895 269.696772 
L 362.561866 269.452465 
L 364.01381 269.888798 
L 366.191725 270.144617 
L 367.643668 269.836037 
L 368.36964 270.185132 
L 369.095612 270.238934 
L 370.547555 270.089268 
L 374.903385 270.3993 
L 376.355329 270.300873 
L 377.0813 270.373404 
L 378.533244 270.220416 
L 381.437131 270.304181 
L 382.163102 270.101004 
L 385.066989 270.62879 
L 385.792961 270.934528 
L 387.244904 270.810431 
L 390.148791 271.732116 
L 391.600734 271.955022 
L 394.504621 271.810985 
L 395.230593 272.00606 
L 396.682536 272.09799 
L 398.13448 272.072065 
L 398.860451 272.170843 
L 399.586423 272.066453 
L 400.312395 271.816589 
L 409.750027 271.441716 
L 410.475999 271.358643 
L 411.20197 271.517389 
L 412.653914 271.538942 
L 413.379885 271.307747 
L 414.105857 270.932319 
L 414.831829 270.722963 
L 417.009744 270.598853 
L 417.735716 270.557498 
L 419.187659 270.109874 
L 420.639602 270.053453 
L 421.365574 270.260425 
L 422.817518 270.289392 
L 423.543489 270.432341 
L 424.269461 270.702854 
L 426.447376 270.403285 
L 427.173348 270.553257 
L 432.25515 270.691159 
L 432.981121 270.61302 
L 438.788895 270.960059 
L 441.692782 270.802032 
L 444.596669 270.889372 
L 446.048612 270.879534 
L 446.774584 270.974003 
L 448.226527 270.919179 
L 449.678471 270.968034 
L 452.582357 271.023143 
L 454.034301 271.055841 
L 454.760273 270.838749 
L 456.212216 270.780152 
L 456.212216 270.780152 
" style="fill:none;stroke:#d62728;stroke-linecap:square;stroke-width:1.5;"/>
   </g>
   <g id="line2d_5">
    <path clip-path="url(#p3acb621123)" d="M 50.394034 274.491671 
L 456.212216 274.491671 
L 456.212216 274.491671 
" style="fill:none;stroke:#000000;stroke-dasharray:3.7,1.6;stroke-dashoffset:0;"/>
   </g>
   <g id="matplotlib.axis_1">
    <g id="xtick_1">
     <g id="line2d_6">
      <defs>
       <path d="M 0 0 
L 0 3.5 
" id="mb9e52c268a" style="stroke:#000000;stroke-width:0.8;"/>
      </defs>
      <g>
       <use style="stroke:#000000;stroke-width:0.8;" x="71.447213" xlink:href="#mb9e52c268a" y="294.118125"/>
      </g>
     </g>
     <g id="text_1">
      <!-- 100 -->
      <defs>
       <path d="M 12.40625 8.296875 
L 28.515625 8.296875 
L 28.515625 63.921875 
L 10.984375 60.40625 
L 10.984375 69.390625 
L 28.421875 72.90625 
L 38.28125 72.90625 
L 38.28125 8.296875 
L 54.390625 8.296875 
L 54.390625 0 
L 12.40625 0 
z
" id="DejaVuSans-49"/>
       <path d="M 31.78125 66.40625 
Q 24.171875 66.40625 20.328125 58.90625 
Q 16.5 51.421875 16.5 36.375 
Q 16.5 21.390625 20.328125 13.890625 
Q 24.171875 6.390625 31.78125 6.390625 
Q 39.453125 6.390625 43.28125 13.890625 
Q 47.125 21.390625 47.125 36.375 
Q 47.125 51.421875 43.28125 58.90625 
Q 39.453125 66.40625 31.78125 66.40625 
z
M 31.78125 74.21875 
Q 44.046875 74.21875 50.515625 64.515625 
Q 56.984375 54.828125 56.984375 36.375 
Q 56.984375 17.96875 50.515625 8.265625 
Q 44.046875 -1.421875 31.78125 -1.421875 
Q 19.53125 -1.421875 13.0625 8.265625 
Q 6.59375 17.96875 6.59375 36.375 
Q 6.59375 54.828125 13.0625 64.515625 
Q 19.53125 74.21875 31.78125 74.21875 
z
" id="DejaVuSans-48"/>
      </defs>
      <g transform="translate(61.903463 308.716563)scale(0.1 -0.1)">
       <use xlink:href="#DejaVuSans-49"/>
       <use x="63.623047" xlink:href="#DejaVuSans-48"/>
       <use x="127.246094" xlink:href="#DejaVuSans-48"/>
      </g>
     </g>
    </g>
    <g id="xtick_2">
     <g id="line2d_7">
      <g>
       <use style="stroke:#000000;stroke-width:0.8;" x="144.044384" xlink:href="#mb9e52c268a" y="294.118125"/>
      </g>
     </g>
     <g id="text_2">
      <!-- 200 -->
      <defs>
       <path d="M 19.1875 8.296875 
L 53.609375 8.296875 
L 53.609375 0 
L 7.328125 0 
L 7.328125 8.296875 
Q 12.9375 14.109375 22.625 23.890625 
Q 32.328125 33.6875 34.8125 36.53125 
Q 39.546875 41.84375 41.421875 45.53125 
Q 43.3125 49.21875 43.3125 52.78125 
Q 43.3125 58.59375 39.234375 62.25 
Q 35.15625 65.921875 28.609375 65.921875 
Q 23.96875 65.921875 18.8125 64.3125 
Q 13.671875 62.703125 7.8125 59.421875 
L 7.8125 69.390625 
Q 13.765625 71.78125 18.9375 73 
Q 24.125 74.21875 28.421875 74.21875 
Q 39.75 74.21875 46.484375 68.546875 
Q 53.21875 62.890625 53.21875 53.421875 
Q 53.21875 48.921875 51.53125 44.890625 
Q 49.859375 40.875 45.40625 35.40625 
Q 44.1875 33.984375 37.640625 27.21875 
Q 31.109375 20.453125 19.1875 8.296875 
z
" id="DejaVuSans-50"/>
      </defs>
      <g transform="translate(134.500634 308.716563)scale(0.1 -0.1)">
       <use xlink:href="#DejaVuSans-50"/>
       <use x="63.623047" xlink:href="#DejaVuSans-48"/>
       <use x="127.246094" xlink:href="#DejaVuSans-48"/>
      </g>
     </g>
    </g>
    <g id="xtick_3">
     <g id="line2d_8">
      <g>
       <use style="stroke:#000000;stroke-width:0.8;" x="216.641554" xlink:href="#mb9e52c268a" y="294.118125"/>
      </g>
     </g>
     <g id="text_3">
      <!-- 300 -->
      <defs>
       <path d="M 40.578125 39.3125 
Q 47.65625 37.796875 51.625 33 
Q 55.609375 28.21875 55.609375 21.1875 
Q 55.609375 10.40625 48.1875 4.484375 
Q 40.765625 -1.421875 27.09375 -1.421875 
Q 22.515625 -1.421875 17.65625 -0.515625 
Q 12.796875 0.390625 7.625 2.203125 
L 7.625 11.71875 
Q 11.71875 9.328125 16.59375 8.109375 
Q 21.484375 6.890625 26.8125 6.890625 
Q 36.078125 6.890625 40.9375 10.546875 
Q 45.796875 14.203125 45.796875 21.1875 
Q 45.796875 27.640625 41.28125 31.265625 
Q 36.765625 34.90625 28.71875 34.90625 
L 20.21875 34.90625 
L 20.21875 43.015625 
L 29.109375 43.015625 
Q 36.375 43.015625 40.234375 45.921875 
Q 44.09375 48.828125 44.09375 54.296875 
Q 44.09375 59.90625 40.109375 62.90625 
Q 36.140625 65.921875 28.71875 65.921875 
Q 24.65625 65.921875 20.015625 65.03125 
Q 15.375 64.15625 9.8125 62.3125 
L 9.8125 71.09375 
Q 15.4375 72.65625 20.34375 73.4375 
Q 25.25 74.21875 29.59375 74.21875 
Q 40.828125 74.21875 47.359375 69.109375 
Q 53.90625 64.015625 53.90625 55.328125 
Q 53.90625 49.265625 50.4375 45.09375 
Q 46.96875 40.921875 40.578125 39.3125 
z
" id="DejaVuSans-51"/>
      </defs>
      <g transform="translate(207.097804 308.716563)scale(0.1 -0.1)">
       <use xlink:href="#DejaVuSans-51"/>
       <use x="63.623047" xlink:href="#DejaVuSans-48"/>
       <use x="127.246094" xlink:href="#DejaVuSans-48"/>
      </g>
     </g>
    </g>
    <g id="xtick_4">
     <g id="line2d_9">
      <g>
       <use style="stroke:#000000;stroke-width:0.8;" x="289.238724" xlink:href="#mb9e52c268a" y="294.118125"/>
      </g>
     </g>
     <g id="text_4">
      <!-- 400 -->
      <defs>
       <path d="M 37.796875 64.3125 
L 12.890625 25.390625 
L 37.796875 25.390625 
z
M 35.203125 72.90625 
L 47.609375 72.90625 
L 47.609375 25.390625 
L 58.015625 25.390625 
L 58.015625 17.1875 
L 47.609375 17.1875 
L 47.609375 0 
L 37.796875 0 
L 37.796875 17.1875 
L 4.890625 17.1875 
L 4.890625 26.703125 
z
" id="DejaVuSans-52"/>
      </defs>
      <g transform="translate(279.694974 308.716563)scale(0.1 -0.1)">
       <use xlink:href="#DejaVuSans-52"/>
       <use x="63.623047" xlink:href="#DejaVuSans-48"/>
       <use x="127.246094" xlink:href="#DejaVuSans-48"/>
      </g>
     </g>
    </g>
    <g id="xtick_5">
     <g id="line2d_10">
      <g>
       <use style="stroke:#000000;stroke-width:0.8;" x="361.835895" xlink:href="#mb9e52c268a" y="294.118125"/>
      </g>
     </g>
     <g id="text_5">
      <!-- 500 -->
      <defs>
       <path d="M 10.796875 72.90625 
L 49.515625 72.90625 
L 49.515625 64.59375 
L 19.828125 64.59375 
L 19.828125 46.734375 
Q 21.96875 47.46875 24.109375 47.828125 
Q 26.265625 48.1875 28.421875 48.1875 
Q 40.625 48.1875 47.75 41.5 
Q 54.890625 34.8125 54.890625 23.390625 
Q 54.890625 11.625 47.5625 5.09375 
Q 40.234375 -1.421875 26.90625 -1.421875 
Q 22.3125 -1.421875 17.546875 -0.640625 
Q 12.796875 0.140625 7.71875 1.703125 
L 7.71875 11.625 
Q 12.109375 9.234375 16.796875 8.0625 
Q 21.484375 6.890625 26.703125 6.890625 
Q 35.15625 6.890625 40.078125 11.328125 
Q 45.015625 15.765625 45.015625 23.390625 
Q 45.015625 31 40.078125 35.4375 
Q 35.15625 39.890625 26.703125 39.890625 
Q 22.75 39.890625 18.8125 39.015625 
Q 14.890625 38.140625 10.796875 36.28125 
z
" id="DejaVuSans-53"/>
      </defs>
      <g transform="translate(352.292145 308.716563)scale(0.1 -0.1)">
       <use xlink:href="#DejaVuSans-53"/>
       <use x="63.623047" xlink:href="#DejaVuSans-48"/>
       <use x="127.246094" xlink:href="#DejaVuSans-48"/>
      </g>
     </g>
    </g>
    <g id="xtick_6">
     <g id="line2d_11">
      <g>
       <use style="stroke:#000000;stroke-width:0.8;" x="434.433065" xlink:href="#mb9e52c268a" y="294.118125"/>
      </g>
     </g>
     <g id="text_6">
      <!-- 600 -->
      <defs>
       <path d="M 33.015625 40.375 
Q 26.375 40.375 22.484375 35.828125 
Q 18.609375 31.296875 18.609375 23.390625 
Q 18.609375 15.53125 22.484375 10.953125 
Q 26.375 6.390625 33.015625 6.390625 
Q 39.65625 6.390625 43.53125 10.953125 
Q 47.40625 15.53125 47.40625 23.390625 
Q 47.40625 31.296875 43.53125 35.828125 
Q 39.65625 40.375 33.015625 40.375 
z
M 52.59375 71.296875 
L 52.59375 62.3125 
Q 48.875 64.0625 45.09375 64.984375 
Q 41.3125 65.921875 37.59375 65.921875 
Q 27.828125 65.921875 22.671875 59.328125 
Q 17.53125 52.734375 16.796875 39.40625 
Q 19.671875 43.65625 24.015625 45.921875 
Q 28.375 48.1875 33.59375 48.1875 
Q 44.578125 48.1875 50.953125 41.515625 
Q 57.328125 34.859375 57.328125 23.390625 
Q 57.328125 12.15625 50.6875 5.359375 
Q 44.046875 -1.421875 33.015625 -1.421875 
Q 20.359375 -1.421875 13.671875 8.265625 
Q 6.984375 17.96875 6.984375 36.375 
Q 6.984375 53.65625 15.1875 63.9375 
Q 23.390625 74.21875 37.203125 74.21875 
Q 40.921875 74.21875 44.703125 73.484375 
Q 48.484375 72.75 52.59375 71.296875 
z
" id="DejaVuSans-54"/>
      </defs>
      <g transform="translate(424.889315 308.716563)scale(0.1 -0.1)">
       <use xlink:href="#DejaVuSans-54"/>
       <use x="63.623047" xlink:href="#DejaVuSans-48"/>
       <use x="127.246094" xlink:href="#DejaVuSans-48"/>
      </g>
     </g>
    </g>
    <g id="text_7">
     <!-- Tempo -->
     <defs>
      <path d="M -0.296875 72.90625 
L 61.375 72.90625 
L 61.375 64.59375 
L 35.5 64.59375 
L 35.5 0 
L 25.59375 0 
L 25.59375 64.59375 
L -0.296875 64.59375 
z
" id="DejaVuSans-84"/>
      <path d="M 56.203125 29.59375 
L 56.203125 25.203125 
L 14.890625 25.203125 
Q 15.484375 15.921875 20.484375 11.0625 
Q 25.484375 6.203125 34.421875 6.203125 
Q 39.59375 6.203125 44.453125 7.46875 
Q 49.3125 8.734375 54.109375 11.28125 
L 54.109375 2.78125 
Q 49.265625 0.734375 44.1875 -0.34375 
Q 39.109375 -1.421875 33.890625 -1.421875 
Q 20.796875 -1.421875 13.15625 6.1875 
Q 5.515625 13.8125 5.515625 26.8125 
Q 5.515625 40.234375 12.765625 48.109375 
Q 20.015625 56 32.328125 56 
Q 43.359375 56 49.78125 48.890625 
Q 56.203125 41.796875 56.203125 29.59375 
z
M 47.21875 32.234375 
Q 47.125 39.59375 43.09375 43.984375 
Q 39.0625 48.390625 32.421875 48.390625 
Q 24.90625 48.390625 20.390625 44.140625 
Q 15.875 39.890625 15.1875 32.171875 
z
" id="DejaVuSans-101"/>
      <path d="M 52 44.1875 
Q 55.375 50.25 60.0625 53.125 
Q 64.75 56 71.09375 56 
Q 79.640625 56 84.28125 50.015625 
Q 88.921875 44.046875 88.921875 33.015625 
L 88.921875 0 
L 79.890625 0 
L 79.890625 32.71875 
Q 79.890625 40.578125 77.09375 44.375 
Q 74.3125 48.1875 68.609375 48.1875 
Q 61.625 48.1875 57.5625 43.546875 
Q 53.515625 38.921875 53.515625 30.90625 
L 53.515625 0 
L 44.484375 0 
L 44.484375 32.71875 
Q 44.484375 40.625 41.703125 44.40625 
Q 38.921875 48.1875 33.109375 48.1875 
Q 26.21875 48.1875 22.15625 43.53125 
Q 18.109375 38.875 18.109375 30.90625 
L 18.109375 0 
L 9.078125 0 
L 9.078125 54.6875 
L 18.109375 54.6875 
L 18.109375 46.1875 
Q 21.1875 51.21875 25.484375 53.609375 
Q 29.78125 56 35.6875 56 
Q 41.65625 56 45.828125 52.96875 
Q 50 49.953125 52 44.1875 
z
" id="DejaVuSans-109"/>
      <path d="M 18.109375 8.203125 
L 18.109375 -20.796875 
L 9.078125 -20.796875 
L 9.078125 54.6875 
L 18.109375 54.6875 
L 18.109375 46.390625 
Q 20.953125 51.265625 25.265625 53.625 
Q 29.59375 56 35.59375 56 
Q 45.5625 56 51.78125 48.09375 
Q 58.015625 40.1875 58.015625 27.296875 
Q 58.015625 14.40625 51.78125 6.484375 
Q 45.5625 -1.421875 35.59375 -1.421875 
Q 29.59375 -1.421875 25.265625 0.953125 
Q 20.953125 3.328125 18.109375 8.203125 
z
M 48.6875 27.296875 
Q 48.6875 37.203125 44.609375 42.84375 
Q 40.53125 48.484375 33.40625 48.484375 
Q 26.265625 48.484375 22.1875 42.84375 
Q 18.109375 37.203125 18.109375 27.296875 
Q 18.109375 17.390625 22.1875 11.75 
Q 26.265625 6.109375 33.40625 6.109375 
Q 40.53125 6.109375 44.609375 11.75 
Q 48.6875 17.390625 48.6875 27.296875 
z
" id="DejaVuSans-112"/>
      <path d="M 30.609375 48.390625 
Q 23.390625 48.390625 19.1875 42.75 
Q 14.984375 37.109375 14.984375 27.296875 
Q 14.984375 17.484375 19.15625 11.84375 
Q 23.34375 6.203125 30.609375 6.203125 
Q 37.796875 6.203125 41.984375 11.859375 
Q 46.1875 17.53125 46.1875 27.296875 
Q 46.1875 37.015625 41.984375 42.703125 
Q 37.796875 48.390625 30.609375 48.390625 
z
M 30.609375 56 
Q 42.328125 56 49.015625 48.375 
Q 55.71875 40.765625 55.71875 27.296875 
Q 55.71875 13.875 49.015625 6.21875 
Q 42.328125 -1.421875 30.609375 -1.421875 
Q 18.84375 -1.421875 12.171875 6.21875 
Q 5.515625 13.875 5.515625 27.296875 
Q 5.515625 40.765625 12.171875 48.375 
Q 18.84375 56 30.609375 56 
z
" id="DejaVuSans-111"/>
     </defs>
     <g transform="translate(236.91875 322.394687)scale(0.1 -0.1)">
      <use xlink:href="#DejaVuSans-84"/>
      <use x="44.083984" xlink:href="#DejaVuSans-101"/>
      <use x="105.607422" xlink:href="#DejaVuSans-109"/>
      <use x="203.019531" xlink:href="#DejaVuSans-112"/>
      <use x="266.496094" xlink:href="#DejaVuSans-111"/>
     </g>
    </g>
   </g>
   <g id="matplotlib.axis_2">
    <g id="ytick_1">
     <g id="line2d_12">
      <defs>
       <path d="M 0 0 
L -3.5 0 
" id="mac830b1fe2" style="stroke:#000000;stroke-width:0.8;"/>
      </defs>
      <g>
       <use style="stroke:#000000;stroke-width:0.8;" x="30.103125" xlink:href="#mac830b1fe2" y="274.491671"/>
      </g>
     </g>
     <g id="text_8">
      <!-- 0.0 -->
      <defs>
       <path d="M 10.6875 12.40625 
L 21 12.40625 
L 21 0 
L 10.6875 0 
z
" id="DejaVuSans-46"/>
      </defs>
      <g transform="translate(7.2 278.29089)scale(0.1 -0.1)">
       <use xlink:href="#DejaVuSans-48"/>
       <use x="63.623047" xlink:href="#DejaVuSans-46"/>
       <use x="95.410156" xlink:href="#DejaVuSans-48"/>
      </g>
     </g>
    </g>
    <g id="ytick_2">
     <g id="line2d_13">
      <g>
       <use style="stroke:#000000;stroke-width:0.8;" x="30.103125" xlink:href="#mac830b1fe2" y="232.08666"/>
      </g>
     </g>
     <g id="text_9">
      <!-- 0.2 -->
      <g transform="translate(7.2 235.885879)scale(0.1 -0.1)">
       <use xlink:href="#DejaVuSans-48"/>
       <use x="63.623047" xlink:href="#DejaVuSans-46"/>
       <use x="95.410156" xlink:href="#DejaVuSans-50"/>
      </g>
     </g>
    </g>
    <g id="ytick_3">
     <g id="line2d_14">
      <g>
       <use style="stroke:#000000;stroke-width:0.8;" x="30.103125" xlink:href="#mac830b1fe2" y="189.68165"/>
      </g>
     </g>
     <g id="text_10">
      <!-- 0.4 -->
      <g transform="translate(7.2 193.480868)scale(0.1 -0.1)">
       <use xlink:href="#DejaVuSans-48"/>
       <use x="63.623047" xlink:href="#DejaVuSans-46"/>
       <use x="95.410156" xlink:href="#DejaVuSans-52"/>
      </g>
     </g>
    </g>
    <g id="ytick_4">
     <g id="line2d_15">
      <g>
       <use style="stroke:#000000;stroke-width:0.8;" x="30.103125" xlink:href="#mac830b1fe2" y="147.276639"/>
      </g>
     </g>
     <g id="text_11">
      <!-- 0.6 -->
      <g transform="translate(7.2 151.075858)scale(0.1 -0.1)">
       <use xlink:href="#DejaVuSans-48"/>
       <use x="63.623047" xlink:href="#DejaVuSans-46"/>
       <use x="95.410156" xlink:href="#DejaVuSans-54"/>
      </g>
     </g>
    </g>
    <g id="ytick_5">
     <g id="line2d_16">
      <g>
       <use style="stroke:#000000;stroke-width:0.8;" x="30.103125" xlink:href="#mac830b1fe2" y="104.871628"/>
      </g>
     </g>
     <g id="text_12">
      <!-- 0.8 -->
      <defs>
       <path d="M 31.78125 34.625 
Q 24.75 34.625 20.71875 30.859375 
Q 16.703125 27.09375 16.703125 20.515625 
Q 16.703125 13.921875 20.71875 10.15625 
Q 24.75 6.390625 31.78125 6.390625 
Q 38.8125 6.390625 42.859375 10.171875 
Q 46.921875 13.96875 46.921875 20.515625 
Q 46.921875 27.09375 42.890625 30.859375 
Q 38.875 34.625 31.78125 34.625 
z
M 21.921875 38.8125 
Q 15.578125 40.375 12.03125 44.71875 
Q 8.5 49.078125 8.5 55.328125 
Q 8.5 64.0625 14.71875 69.140625 
Q 20.953125 74.21875 31.78125 74.21875 
Q 42.671875 74.21875 48.875 69.140625 
Q 55.078125 64.0625 55.078125 55.328125 
Q 55.078125 49.078125 51.53125 44.71875 
Q 48 40.375 41.703125 38.8125 
Q 48.828125 37.15625 52.796875 32.3125 
Q 56.78125 27.484375 56.78125 20.515625 
Q 56.78125 9.90625 50.3125 4.234375 
Q 43.84375 -1.421875 31.78125 -1.421875 
Q 19.734375 -1.421875 13.25 4.234375 
Q 6.78125 9.90625 6.78125 20.515625 
Q 6.78125 27.484375 10.78125 32.3125 
Q 14.796875 37.15625 21.921875 38.8125 
z
M 18.3125 54.390625 
Q 18.3125 48.734375 21.84375 45.5625 
Q 25.390625 42.390625 31.78125 42.390625 
Q 38.140625 42.390625 41.71875 45.5625 
Q 45.3125 48.734375 45.3125 54.390625 
Q 45.3125 60.0625 41.71875 63.234375 
Q 38.140625 66.40625 31.78125 66.40625 
Q 25.390625 66.40625 21.84375 63.234375 
Q 18.3125 60.0625 18.3125 54.390625 
z
" id="DejaVuSans-56"/>
      </defs>
      <g transform="translate(7.2 108.670847)scale(0.1 -0.1)">
       <use xlink:href="#DejaVuSans-48"/>
       <use x="63.623047" xlink:href="#DejaVuSans-46"/>
       <use x="95.410156" xlink:href="#DejaVuSans-56"/>
      </g>
     </g>
    </g>
    <g id="ytick_6">
     <g id="line2d_17">
      <g>
       <use style="stroke:#000000;stroke-width:0.8;" x="30.103125" xlink:href="#mac830b1fe2" y="62.466618"/>
      </g>
     </g>
     <g id="text_13">
      <!-- 1.0 -->
      <g transform="translate(7.2 66.265837)scale(0.1 -0.1)">
       <use xlink:href="#DejaVuSans-49"/>
       <use x="63.623047" xlink:href="#DejaVuSans-46"/>
       <use x="95.410156" xlink:href="#DejaVuSans-48"/>
      </g>
     </g>
    </g>
   </g>
   <g id="patch_3">
    <path d="M 30.103125 294.118125 
L 30.103125 22.318125 
" style="fill:none;stroke:#000000;stroke-linecap:square;stroke-linejoin:miter;stroke-width:0.8;"/>
   </g>
   <g id="patch_4">
    <path d="M 30.103125 294.118125 
L 476.503125 294.118125 
" style="fill:none;stroke:#000000;stroke-linecap:square;stroke-linejoin:miter;stroke-width:0.8;"/>
   </g>
   <g id="text_14">
    <!-- Mw_total -->
    <defs>
     <path d="M 9.8125 72.90625 
L 24.515625 72.90625 
L 43.109375 23.296875 
L 61.8125 72.90625 
L 76.515625 72.90625 
L 76.515625 0 
L 66.890625 0 
L 66.890625 64.015625 
L 48.09375 14.015625 
L 38.1875 14.015625 
L 19.390625 64.015625 
L 19.390625 0 
L 9.8125 0 
z
" id="DejaVuSans-77"/>
     <path d="M 4.203125 54.6875 
L 13.1875 54.6875 
L 24.421875 12.015625 
L 35.59375 54.6875 
L 46.1875 54.6875 
L 57.421875 12.015625 
L 68.609375 54.6875 
L 77.59375 54.6875 
L 63.28125 0 
L 52.6875 0 
L 40.921875 44.828125 
L 29.109375 0 
L 18.5 0 
z
" id="DejaVuSans-119"/>
     <path d="M 50.984375 -16.609375 
L 50.984375 -23.578125 
L -0.984375 -23.578125 
L -0.984375 -16.609375 
z
" id="DejaVuSans-95"/>
     <path d="M 18.3125 70.21875 
L 18.3125 54.6875 
L 36.8125 54.6875 
L 36.8125 47.703125 
L 18.3125 47.703125 
L 18.3125 18.015625 
Q 18.3125 11.328125 20.140625 9.421875 
Q 21.96875 7.515625 27.59375 7.515625 
L 36.8125 7.515625 
L 36.8125 0 
L 27.59375 0 
Q 17.1875 0 13.234375 3.875 
Q 9.28125 7.765625 9.28125 18.015625 
L 9.28125 47.703125 
L 2.6875 47.703125 
L 2.6875 54.6875 
L 9.28125 54.6875 
L 9.28125 70.21875 
z
" id="DejaVuSans-116"/>
     <path d="M 34.28125 27.484375 
Q 23.390625 27.484375 19.1875 25 
Q 14.984375 22.515625 14.984375 16.5 
Q 14.984375 11.71875 18.140625 8.90625 
Q 21.296875 6.109375 26.703125 6.109375 
Q 34.1875 6.109375 38.703125 11.40625 
Q 43.21875 16.703125 43.21875 25.484375 
L 43.21875 27.484375 
z
M 52.203125 31.203125 
L 52.203125 0 
L 43.21875 0 
L 43.21875 8.296875 
Q 40.140625 3.328125 35.546875 0.953125 
Q 30.953125 -1.421875 24.3125 -1.421875 
Q 15.921875 -1.421875 10.953125 3.296875 
Q 6 8.015625 6 15.921875 
Q 6 25.140625 12.171875 29.828125 
Q 18.359375 34.515625 30.609375 34.515625 
L 43.21875 34.515625 
L 43.21875 35.40625 
Q 43.21875 41.609375 39.140625 45 
Q 35.0625 48.390625 27.6875 48.390625 
Q 23 48.390625 18.546875 47.265625 
Q 14.109375 46.140625 10.015625 43.890625 
L 10.015625 52.203125 
Q 14.9375 54.109375 19.578125 55.046875 
Q 24.21875 56 28.609375 56 
Q 40.484375 56 46.34375 49.84375 
Q 52.203125 43.703125 52.203125 31.203125 
z
" id="DejaVuSans-97"/>
     <path d="M 9.421875 75.984375 
L 18.40625 75.984375 
L 18.40625 0 
L 9.421875 0 
z
" id="DejaVuSans-108"/>
    </defs>
    <g transform="translate(226.5 16.318125)scale(0.12 -0.12)">
     <use xlink:href="#DejaVuSans-77"/>
     <use x="86.279297" xlink:href="#DejaVuSans-119"/>
     <use x="168.066406" xlink:href="#DejaVuSans-95"/>
     <use x="218.066406" xlink:href="#DejaVuSans-116"/>
     <use x="257.275391" xlink:href="#DejaVuSans-111"/>
     <use x="318.457031" xlink:href="#DejaVuSans-116"/>
     <use x="357.666016" xlink:href="#DejaVuSans-97"/>
     <use x="418.945312" xlink:href="#DejaVuSans-108"/>
    </g>
   </g>
   <g id="legend_1">
    <g id="patch_5">
     <path d="M 483.503125 196.413438 
L 617.0625 196.413438 
Q 619.0625 196.413438 619.0625 194.413438 
L 619.0625 122.022813 
Q 619.0625 120.022813 617.0625 120.022813 
L 483.503125 120.022813 
Q 481.503125 120.022813 481.503125 122.022813 
L 481.503125 194.413438 
Q 481.503125 196.413438 483.503125 196.413438 
z
" style="fill:#ffffff;opacity:0.8;stroke:#cccccc;stroke-linejoin:miter;"/>
    </g>
    <g id="line2d_18">
     <path d="M 485.503125 128.12125 
L 505.503125 128.12125 
" style="fill:none;stroke:#000000;stroke-dasharray:3.7,1.6;stroke-dashoffset:0;"/>
    </g>
    <g id="line2d_19"/>
    <g id="text_15">
     <!-- Baseline -->
     <defs>
      <path d="M 19.671875 34.8125 
L 19.671875 8.109375 
L 35.5 8.109375 
Q 43.453125 8.109375 47.28125 11.40625 
Q 51.125 14.703125 51.125 21.484375 
Q 51.125 28.328125 47.28125 31.5625 
Q 43.453125 34.8125 35.5 34.8125 
z
M 19.671875 64.796875 
L 19.671875 42.828125 
L 34.28125 42.828125 
Q 41.5 42.828125 45.03125 45.53125 
Q 48.578125 48.25 48.578125 53.8125 
Q 48.578125 59.328125 45.03125 62.0625 
Q 41.5 64.796875 34.28125 64.796875 
z
M 9.8125 72.90625 
L 35.015625 72.90625 
Q 46.296875 72.90625 52.390625 68.21875 
Q 58.5 63.53125 58.5 54.890625 
Q 58.5 48.1875 55.375 44.234375 
Q 52.25 40.28125 46.1875 39.3125 
Q 53.46875 37.75 57.5 32.78125 
Q 61.53125 27.828125 61.53125 20.40625 
Q 61.53125 10.640625 54.890625 5.3125 
Q 48.25 0 35.984375 0 
L 9.8125 0 
z
" id="DejaVuSans-66"/>
      <path d="M 44.28125 53.078125 
L 44.28125 44.578125 
Q 40.484375 46.53125 36.375 47.5 
Q 32.28125 48.484375 27.875 48.484375 
Q 21.1875 48.484375 17.84375 46.4375 
Q 14.5 44.390625 14.5 40.28125 
Q 14.5 37.15625 16.890625 35.375 
Q 19.28125 33.59375 26.515625 31.984375 
L 29.59375 31.296875 
Q 39.15625 29.25 43.1875 25.515625 
Q 47.21875 21.78125 47.21875 15.09375 
Q 47.21875 7.46875 41.1875 3.015625 
Q 35.15625 -1.421875 24.609375 -1.421875 
Q 20.21875 -1.421875 15.453125 -0.5625 
Q 10.6875 0.296875 5.421875 2 
L 5.421875 11.28125 
Q 10.40625 8.6875 15.234375 7.390625 
Q 20.0625 6.109375 24.8125 6.109375 
Q 31.15625 6.109375 34.5625 8.28125 
Q 37.984375 10.453125 37.984375 14.40625 
Q 37.984375 18.0625 35.515625 20.015625 
Q 33.0625 21.96875 24.703125 23.78125 
L 21.578125 24.515625 
Q 13.234375 26.265625 9.515625 29.90625 
Q 5.8125 33.546875 5.8125 39.890625 
Q 5.8125 47.609375 11.28125 51.796875 
Q 16.75 56 26.8125 56 
Q 31.78125 56 36.171875 55.265625 
Q 40.578125 54.546875 44.28125 53.078125 
z
" id="DejaVuSans-115"/>
      <path d="M 9.421875 54.6875 
L 18.40625 54.6875 
L 18.40625 0 
L 9.421875 0 
z
M 9.421875 75.984375 
L 18.40625 75.984375 
L 18.40625 64.59375 
L 9.421875 64.59375 
z
" id="DejaVuSans-105"/>
      <path d="M 54.890625 33.015625 
L 54.890625 0 
L 45.90625 0 
L 45.90625 32.71875 
Q 45.90625 40.484375 42.875 44.328125 
Q 39.84375 48.1875 33.796875 48.1875 
Q 26.515625 48.1875 22.3125 43.546875 
Q 18.109375 38.921875 18.109375 30.90625 
L 18.109375 0 
L 9.078125 0 
L 9.078125 54.6875 
L 18.109375 54.6875 
L 18.109375 46.1875 
Q 21.34375 51.125 25.703125 53.5625 
Q 30.078125 56 35.796875 56 
Q 45.21875 56 50.046875 50.171875 
Q 54.890625 44.34375 54.890625 33.015625 
z
" id="DejaVuSans-110"/>
     </defs>
     <g transform="translate(513.503125 131.62125)scale(0.1 -0.1)">
      <use xlink:href="#DejaVuSans-66"/>
      <use x="68.603516" xlink:href="#DejaVuSans-97"/>
      <use x="129.882812" xlink:href="#DejaVuSans-115"/>
      <use x="181.982422" xlink:href="#DejaVuSans-101"/>
      <use x="243.505859" xlink:href="#DejaVuSans-108"/>
      <use x="271.289062" xlink:href="#DejaVuSans-105"/>
      <use x="299.072266" xlink:href="#DejaVuSans-110"/>
      <use x="362.451172" xlink:href="#DejaVuSans-101"/>
     </g>
    </g>
    <g id="line2d_20">
     <path d="M 485.503125 142.799375 
L 505.503125 142.799375 
" style="fill:none;stroke:#1f77b4;stroke-linecap:square;stroke-width:1.5;"/>
    </g>
    <g id="line2d_21"/>
    <g id="text_16">
     <!-- $\Uparrow$ acesso crdito -->
     <defs>
      <path d="M 36.765625 58.59375 
L 36.765625 0 
L 30.90625 0 
L 30.90625 52.734375 
L 26.421875 48.140625 
L 20.5625 54 
L 39.703125 73.25 
L 44.09375 73.25 
L 63.328125 54 
L 57.46875 48.140625 
L 52.875 52.734375 
L 52.875 0 
L 47.015625 0 
L 47.015625 58.59375 
L 41.9375 63.671875 
z
" id="DejaVuSans-8657"/>
      <path id="DejaVuSans-32"/>
      <path d="M 48.78125 52.59375 
L 48.78125 44.1875 
Q 44.96875 46.296875 41.140625 47.34375 
Q 37.3125 48.390625 33.40625 48.390625 
Q 24.65625 48.390625 19.8125 42.84375 
Q 14.984375 37.3125 14.984375 27.296875 
Q 14.984375 17.28125 19.8125 11.734375 
Q 24.65625 6.203125 33.40625 6.203125 
Q 37.3125 6.203125 41.140625 7.25 
Q 44.96875 8.296875 48.78125 10.40625 
L 48.78125 2.09375 
Q 45.015625 0.34375 40.984375 -0.53125 
Q 36.96875 -1.421875 32.421875 -1.421875 
Q 20.0625 -1.421875 12.78125 6.34375 
Q 5.515625 14.109375 5.515625 27.296875 
Q 5.515625 40.671875 12.859375 48.328125 
Q 20.21875 56 33.015625 56 
Q 37.15625 56 41.109375 55.140625 
Q 45.0625 54.296875 48.78125 52.59375 
z
" id="DejaVuSans-99"/>
      <path d="M 41.109375 46.296875 
Q 39.59375 47.171875 37.8125 47.578125 
Q 36.03125 48 33.890625 48 
Q 26.265625 48 22.1875 43.046875 
Q 18.109375 38.09375 18.109375 28.8125 
L 18.109375 0 
L 9.078125 0 
L 9.078125 54.6875 
L 18.109375 54.6875 
L 18.109375 46.1875 
Q 20.953125 51.171875 25.484375 53.578125 
Q 30.03125 56 36.53125 56 
Q 37.453125 56 38.578125 55.875 
Q 39.703125 55.765625 41.0625 55.515625 
z
" id="DejaVuSans-114"/>
      <path d="M 56.203125 29.59375 
L 56.203125 25.203125 
L 14.890625 25.203125 
Q 15.484375 15.921875 20.484375 11.0625 
Q 25.484375 6.203125 34.421875 6.203125 
Q 39.59375 6.203125 44.453125 7.46875 
Q 49.3125 8.734375 54.109375 11.28125 
L 54.109375 2.78125 
Q 49.265625 0.734375 44.1875 -0.34375 
Q 39.109375 -1.421875 33.890625 -1.421875 
Q 20.796875 -1.421875 13.15625 6.1875 
Q 5.515625 13.8125 5.515625 26.8125 
Q 5.515625 40.234375 12.765625 48.109375 
Q 20.015625 56 32.328125 56 
Q 43.359375 56 49.78125 48.890625 
Q 56.203125 41.796875 56.203125 29.59375 
z
M 47.21875 32.234375 
Q 47.125 39.59375 43.09375 43.984375 
Q 39.0625 48.390625 32.421875 48.390625 
Q 24.90625 48.390625 20.390625 44.140625 
Q 15.875 39.890625 15.1875 32.171875 
z
M 38.53125 79.984375 
L 48.25 79.984375 
L 32.34375 61.625 
L 24.859375 61.625 
z
" id="DejaVuSans-233"/>
      <path d="M 45.40625 46.390625 
L 45.40625 75.984375 
L 54.390625 75.984375 
L 54.390625 0 
L 45.40625 0 
L 45.40625 8.203125 
Q 42.578125 3.328125 38.25 0.953125 
Q 33.9375 -1.421875 27.875 -1.421875 
Q 17.96875 -1.421875 11.734375 6.484375 
Q 5.515625 14.40625 5.515625 27.296875 
Q 5.515625 40.1875 11.734375 48.09375 
Q 17.96875 56 27.875 56 
Q 33.9375 56 38.25 53.625 
Q 42.578125 51.265625 45.40625 46.390625 
z
M 14.796875 27.296875 
Q 14.796875 17.390625 18.875 11.75 
Q 22.953125 6.109375 30.078125 6.109375 
Q 37.203125 6.109375 41.296875 11.75 
Q 45.40625 17.390625 45.40625 27.296875 
Q 45.40625 37.203125 41.296875 42.84375 
Q 37.203125 48.484375 30.078125 48.484375 
Q 22.953125 48.484375 18.875 42.84375 
Q 14.796875 37.203125 14.796875 27.296875 
z
" id="DejaVuSans-100"/>
     </defs>
     <g transform="translate(513.503125 146.299375)scale(0.1 -0.1)">
      <use transform="translate(19.482422 0.015625)" xlink:href="#DejaVuSans-8657"/>
      <use transform="translate(122.753906 0.015625)" xlink:href="#DejaVuSans-32"/>
      <use transform="translate(154.541016 0.015625)" xlink:href="#DejaVuSans-97"/>
      <use transform="translate(215.820312 0.015625)" xlink:href="#DejaVuSans-99"/>
      <use transform="translate(270.800781 0.015625)" xlink:href="#DejaVuSans-101"/>
      <use transform="translate(332.324219 0.015625)" xlink:href="#DejaVuSans-115"/>
      <use transform="translate(384.423828 0.015625)" xlink:href="#DejaVuSans-115"/>
      <use transform="translate(436.523438 0.015625)" xlink:href="#DejaVuSans-111"/>
      <use transform="translate(497.705078 0.015625)" xlink:href="#DejaVuSans-32"/>
      <use transform="translate(529.492188 0.015625)" xlink:href="#DejaVuSans-99"/>
      <use transform="translate(584.472656 0.015625)" xlink:href="#DejaVuSans-114"/>
      <use transform="translate(625.585938 0.015625)" xlink:href="#DejaVuSans-233"/>
      <use transform="translate(687.109375 0.015625)" xlink:href="#DejaVuSans-100"/>
      <use transform="translate(750.585938 0.015625)" xlink:href="#DejaVuSans-105"/>
      <use transform="translate(778.369141 0.015625)" xlink:href="#DejaVuSans-116"/>
      <use transform="translate(817.578125 0.015625)" xlink:href="#DejaVuSans-111"/>
     </g>
    </g>
    <g id="line2d_22">
     <path d="M 485.503125 157.4775 
L 505.503125 157.4775 
" style="fill:none;stroke:#ff7f0e;stroke-linecap:square;stroke-width:1.5;"/>
    </g>
    <g id="line2d_23"/>
    <g id="text_17">
     <!-- Sem renda bsica -->
     <defs>
      <path d="M 53.515625 70.515625 
L 53.515625 60.890625 
Q 47.90625 63.578125 42.921875 64.890625 
Q 37.9375 66.21875 33.296875 66.21875 
Q 25.25 66.21875 20.875 63.09375 
Q 16.5 59.96875 16.5 54.203125 
Q 16.5 49.359375 19.40625 46.890625 
Q 22.3125 44.4375 30.421875 42.921875 
L 36.375 41.703125 
Q 47.40625 39.59375 52.65625 34.296875 
Q 57.90625 29 57.90625 20.125 
Q 57.90625 9.515625 50.796875 4.046875 
Q 43.703125 -1.421875 29.984375 -1.421875 
Q 24.8125 -1.421875 18.96875 -0.25 
Q 13.140625 0.921875 6.890625 3.21875 
L 6.890625 13.375 
Q 12.890625 10.015625 18.65625 8.296875 
Q 24.421875 6.59375 29.984375 6.59375 
Q 38.421875 6.59375 43.015625 9.90625 
Q 47.609375 13.234375 47.609375 19.390625 
Q 47.609375 24.75 44.3125 27.78125 
Q 41.015625 30.8125 33.5 32.328125 
L 27.484375 33.5 
Q 16.453125 35.6875 11.515625 40.375 
Q 6.59375 45.0625 6.59375 53.421875 
Q 6.59375 63.09375 13.40625 68.65625 
Q 20.21875 74.21875 32.171875 74.21875 
Q 37.3125 74.21875 42.625 73.28125 
Q 47.953125 72.359375 53.515625 70.515625 
z
" id="DejaVuSans-83"/>
      <path d="M 48.6875 27.296875 
Q 48.6875 37.203125 44.609375 42.84375 
Q 40.53125 48.484375 33.40625 48.484375 
Q 26.265625 48.484375 22.1875 42.84375 
Q 18.109375 37.203125 18.109375 27.296875 
Q 18.109375 17.390625 22.1875 11.75 
Q 26.265625 6.109375 33.40625 6.109375 
Q 40.53125 6.109375 44.609375 11.75 
Q 48.6875 17.390625 48.6875 27.296875 
z
M 18.109375 46.390625 
Q 20.953125 51.265625 25.265625 53.625 
Q 29.59375 56 35.59375 56 
Q 45.5625 56 51.78125 48.09375 
Q 58.015625 40.1875 58.015625 27.296875 
Q 58.015625 14.40625 51.78125 6.484375 
Q 45.5625 -1.421875 35.59375 -1.421875 
Q 29.59375 -1.421875 25.265625 0.953125 
Q 20.953125 3.328125 18.109375 8.203125 
L 18.109375 0 
L 9.078125 0 
L 9.078125 75.984375 
L 18.109375 75.984375 
z
" id="DejaVuSans-98"/>
      <path d="M 34.28125 27.484375 
Q 23.390625 27.484375 19.1875 25 
Q 14.984375 22.515625 14.984375 16.5 
Q 14.984375 11.71875 18.140625 8.90625 
Q 21.296875 6.109375 26.703125 6.109375 
Q 34.1875 6.109375 38.703125 11.40625 
Q 43.21875 16.703125 43.21875 25.484375 
L 43.21875 27.484375 
z
M 52.203125 31.203125 
L 52.203125 0 
L 43.21875 0 
L 43.21875 8.296875 
Q 40.140625 3.328125 35.546875 0.953125 
Q 30.953125 -1.421875 24.3125 -1.421875 
Q 15.921875 -1.421875 10.953125 3.296875 
Q 6 8.015625 6 15.921875 
Q 6 25.140625 12.171875 29.828125 
Q 18.359375 34.515625 30.609375 34.515625 
L 43.21875 34.515625 
L 43.21875 35.40625 
Q 43.21875 41.609375 39.140625 45 
Q 35.0625 48.390625 27.6875 48.390625 
Q 23 48.390625 18.546875 47.265625 
Q 14.109375 46.140625 10.015625 43.890625 
L 10.015625 52.203125 
Q 14.9375 54.109375 19.578125 55.046875 
Q 24.21875 56 28.609375 56 
Q 40.484375 56 46.34375 49.84375 
Q 52.203125 43.703125 52.203125 31.203125 
z
M 35.78125 79.984375 
L 45.5 79.984375 
L 29.59375 61.625 
L 22.109375 61.625 
z
" id="DejaVuSans-225"/>
     </defs>
     <g transform="translate(513.503125 160.9775)scale(0.1 -0.1)">
      <use xlink:href="#DejaVuSans-83"/>
      <use x="63.476562" xlink:href="#DejaVuSans-101"/>
      <use x="125" xlink:href="#DejaVuSans-109"/>
      <use x="222.412109" xlink:href="#DejaVuSans-32"/>
      <use x="254.199219" xlink:href="#DejaVuSans-114"/>
      <use x="293.0625" xlink:href="#DejaVuSans-101"/>
      <use x="354.585938" xlink:href="#DejaVuSans-110"/>
      <use x="417.964844" xlink:href="#DejaVuSans-100"/>
      <use x="481.441406" xlink:href="#DejaVuSans-97"/>
      <use x="542.720703" xlink:href="#DejaVuSans-32"/>
      <use x="574.507812" xlink:href="#DejaVuSans-98"/>
      <use x="637.984375" xlink:href="#DejaVuSans-225"/>
      <use x="699.263672" xlink:href="#DejaVuSans-115"/>
      <use x="751.363281" xlink:href="#DejaVuSans-105"/>
      <use x="779.146484" xlink:href="#DejaVuSans-99"/>
      <use x="834.126953" xlink:href="#DejaVuSans-97"/>
     </g>
    </g>
    <g id="line2d_24">
     <path d="M 485.503125 172.155625 
L 505.503125 172.155625 
" style="fill:none;stroke:#2ca02c;stroke-linecap:square;stroke-width:1.5;"/>
    </g>
    <g id="line2d_25"/>
    <g id="text_18">
     <!-- $\Uparrow$ salrio mnimo -->
     <defs>
      <path d="M 20.65625 79.984375 
L 30.375 79.984375 
L 14.46875 61.625 
L 6.984375 61.625 
z
M 9.421875 54.6875 
L 18.40625 54.6875 
L 18.40625 0 
L 9.421875 0 
z
M 13.921875 56 
z
" id="DejaVuSans-237"/>
     </defs>
     <g transform="translate(513.503125 175.655625)scale(0.1 -0.1)">
      <use transform="translate(19.482422 0.015625)" xlink:href="#DejaVuSans-8657"/>
      <use transform="translate(122.753906 0.015625)" xlink:href="#DejaVuSans-32"/>
      <use transform="translate(154.541016 0.015625)" xlink:href="#DejaVuSans-115"/>
      <use transform="translate(206.640625 0.015625)" xlink:href="#DejaVuSans-97"/>
      <use transform="translate(267.919922 0.015625)" xlink:href="#DejaVuSans-108"/>
      <use transform="translate(295.703125 0.015625)" xlink:href="#DejaVuSans-225"/>
      <use transform="translate(356.982422 0.015625)" xlink:href="#DejaVuSans-114"/>
      <use transform="translate(398.095703 0.015625)" xlink:href="#DejaVuSans-105"/>
      <use transform="translate(425.878906 0.015625)" xlink:href="#DejaVuSans-111"/>
      <use transform="translate(487.060547 0.015625)" xlink:href="#DejaVuSans-32"/>
      <use transform="translate(518.847656 0.015625)" xlink:href="#DejaVuSans-109"/>
      <use transform="translate(616.259766 0.015625)" xlink:href="#DejaVuSans-237"/>
      <use transform="translate(644.042969 0.015625)" xlink:href="#DejaVuSans-110"/>
      <use transform="translate(707.421875 0.015625)" xlink:href="#DejaVuSans-105"/>
      <use transform="translate(735.205078 0.015625)" xlink:href="#DejaVuSans-109"/>
      <use transform="translate(832.617188 0.015625)" xlink:href="#DejaVuSans-111"/>
     </g>
    </g>
    <g id="line2d_26">
     <path d="M 485.503125 186.83375 
L 505.503125 186.83375 
" style="fill:none;stroke:#d62728;stroke-linecap:square;stroke-width:1.5;"/>
    </g>
    <g id="line2d_27"/>
    <g id="text_19">
     <!-- Imposto progressivo -->
     <defs>
      <path d="M 9.8125 72.90625 
L 19.671875 72.90625 
L 19.671875 0 
L 9.8125 0 
z
" id="DejaVuSans-73"/>
      <path d="M 45.40625 27.984375 
Q 45.40625 37.75 41.375 43.109375 
Q 37.359375 48.484375 30.078125 48.484375 
Q 22.859375 48.484375 18.828125 43.109375 
Q 14.796875 37.75 14.796875 27.984375 
Q 14.796875 18.265625 18.828125 12.890625 
Q 22.859375 7.515625 30.078125 7.515625 
Q 37.359375 7.515625 41.375 12.890625 
Q 45.40625 18.265625 45.40625 27.984375 
z
M 54.390625 6.78125 
Q 54.390625 -7.171875 48.1875 -13.984375 
Q 42 -20.796875 29.203125 -20.796875 
Q 24.46875 -20.796875 20.265625 -20.09375 
Q 16.0625 -19.390625 12.109375 -17.921875 
L 12.109375 -9.1875 
Q 16.0625 -11.328125 19.921875 -12.34375 
Q 23.78125 -13.375 27.78125 -13.375 
Q 36.625 -13.375 41.015625 -8.765625 
Q 45.40625 -4.15625 45.40625 5.171875 
L 45.40625 9.625 
Q 42.625 4.78125 38.28125 2.390625 
Q 33.9375 0 27.875 0 
Q 17.828125 0 11.671875 7.65625 
Q 5.515625 15.328125 5.515625 27.984375 
Q 5.515625 40.671875 11.671875 48.328125 
Q 17.828125 56 27.875 56 
Q 33.9375 56 38.28125 53.609375 
Q 42.625 51.21875 45.40625 46.390625 
L 45.40625 54.6875 
L 54.390625 54.6875 
z
" id="DejaVuSans-103"/>
      <path d="M 2.984375 54.6875 
L 12.5 54.6875 
L 29.59375 8.796875 
L 46.6875 54.6875 
L 56.203125 54.6875 
L 35.6875 0 
L 23.484375 0 
z
" id="DejaVuSans-118"/>
     </defs>
     <g transform="translate(513.503125 190.33375)scale(0.1 -0.1)">
      <use xlink:href="#DejaVuSans-73"/>
      <use x="29.492188" xlink:href="#DejaVuSans-109"/>
      <use x="126.904297" xlink:href="#DejaVuSans-112"/>
      <use x="190.380859" xlink:href="#DejaVuSans-111"/>
      <use x="251.5625" xlink:href="#DejaVuSans-115"/>
      <use x="303.662109" xlink:href="#DejaVuSans-116"/>
      <use x="342.871094" xlink:href="#DejaVuSans-111"/>
      <use x="404.052734" xlink:href="#DejaVuSans-32"/>
      <use x="435.839844" xlink:href="#DejaVuSans-112"/>
      <use x="499.316406" xlink:href="#DejaVuSans-114"/>
      <use x="538.179688" xlink:href="#DejaVuSans-111"/>
      <use x="599.361328" xlink:href="#DejaVuSans-103"/>
      <use x="662.837891" xlink:href="#DejaVuSans-114"/>
      <use x="701.701172" xlink:href="#DejaVuSans-101"/>
      <use x="763.224609" xlink:href="#DejaVuSans-115"/>
      <use x="815.324219" xlink:href="#DejaVuSans-115"/>
      <use x="867.423828" xlink:href="#DejaVuSans-105"/>
      <use x="895.207031" xlink:href="#DejaVuSans-118"/>
      <use x="954.386719" xlink:href="#DejaVuSans-111"/>
     </g>
    </g>
   </g>
  </g>
 </g>
 <defs>
  <clipPath id="p3acb621123">
   <rect height="271.8" width="446.4" x="30.103125" y="22.318125"/>
  </clipPath>
 </defs>
</svg>
