<?xml version="1.0" encoding="utf-8" standalone="no"?>
<!DOCTYPE svg PUBLIC "-//W3C//DTD SVG 1.1//EN"
  "http://www.w3.org/Graphics/SVG/1.1/DTD/svg11.dtd">
<!-- Created with matplotlib (https://matplotlib.org/) -->
<svg height="331.674375pt" version="1.1" viewBox="0 0 644.189062 331.674375" width="644.189062pt" xmlns="http://www.w3.org/2000/svg" xmlns:xlink="http://www.w3.org/1999/xlink">
 <defs>
  <style type="text/css">
*{stroke-linecap:butt;stroke-linejoin:round;}
  </style>
 </defs>
 <g id="figure_1">
  <g id="patch_1">
   <path d="M 0 331.674375 
L 644.189062 331.674375 
L 644.189062 0 
L 0 0 
z
" style="fill:#ffffff;"/>
  </g>
  <g id="axes_1">
   <g id="patch_2">
    <path d="M 48.029687 294.118125 
L 494.429688 294.118125 
L 494.429688 22.318125 
L 48.029687 22.318125 
z
" style="fill:#ffffff;"/>
   </g>
   <g id="line2d_1">
    <path clip-path="url(#p4556d7cdca)" d="M 68.320597 151.623543 
L 69.046568 149.076966 
L 69.77254 149.030704 
L 70.498512 149.241938 
L 71.950455 148.618741 
L 72.676427 149.103676 
L 73.402399 148.944489 
L 74.12837 149.052839 
L 75.580314 148.902708 
L 77.032257 148.952972 
L 77.758229 148.488225 
L 78.4842 149.069021 
L 79.210172 149.165893 
L 80.662116 149.131684 
L 81.388087 154.855335 
L 82.114059 149.102667 
L 83.566002 148.82689 
L 84.291974 149.088506 
L 85.017946 149.032111 
L 85.743917 148.84952 
L 86.469889 149.068367 
L 87.195861 148.882598 
L 87.921833 149.036837 
L 88.647804 146.41723 
L 89.373776 149.011966 
L 91.551691 148.958105 
L 92.277663 148.916484 
L 93.003634 149.105816 
L 93.729606 148.982188 
L 94.455578 149.203058 
L 95.18155 148.913935 
L 95.907521 149.155109 
L 96.633493 149.053016 
L 97.359465 149.235853 
L 98.085436 149.088894 
L 98.811408 149.069803 
L 99.53738 149.236564 
L 100.263352 151.090752 
L 100.989323 149.133073 
L 101.715295 148.9755 
L 103.89321 148.992729 
L 104.619182 155.854109 
L 105.345153 148.997046 
L 108.24904 149.035498 
L 108.975012 149.506213 
L 109.700984 149.046687 
L 110.426955 149.044502 
L 111.152927 149.776081 
L 111.878899 149.50441 
L 112.60487 149.058295 
L 113.330842 34.67267 
L 114.056814 149.225827 
L 114.782786 148.95826 
L 115.508757 148.980032 
L 116.234729 148.879292 
L 116.960701 148.898752 
L 117.686672 149.202064 
L 118.412644 148.93724 
L 119.864587 149.085755 
L 120.590559 149.289063 
L 121.316531 149.049261 
L 122.042503 148.983249 
L 122.768474 148.716917 
L 123.494446 150.146018 
L 124.220418 149.018569 
L 124.946389 148.778637 
L 125.672361 150.567908 
L 126.398333 148.396518 
L 127.124305 148.908038 
L 127.850276 149.060581 
L 128.576248 148.949214 
L 130.028191 149.044127 
L 131.480135 149.090264 
L 132.206106 148.97045 
L 137.287908 149.007893 
L 138.01388 148.770068 
L 138.739852 149.350144 
L 139.465823 149.022823 
L 140.191795 148.918782 
L 140.917767 149.301241 
L 141.643739 148.907078 
L 143.821654 148.989619 
L 144.547625 148.921847 
L 145.999569 149.115843 
L 147.451512 148.964236 
L 148.177484 149.62159 
L 148.903456 149.001342 
L 149.629427 149.024187 
L 150.355399 149.232286 
L 151.081371 148.684901 
L 151.807342 148.782733 
L 152.533314 148.40516 
L 153.259286 149.342247 
L 153.985258 149.152535 
L 154.711229 148.748215 
L 156.163173 149.168248 
L 156.889144 149.622682 
L 157.615116 148.817086 
L 159.067059 149.219931 
L 159.793031 148.946842 
L 160.519003 149.099815 
L 163.42289 148.895623 
L 164.148861 148.641618 
L 164.874833 145.932771 
L 165.600805 149.033766 
L 166.326776 149.249919 
L 167.052748 148.99378 
L 167.77872 149.65405 
L 168.504692 148.965079 
L 169.230663 148.906619 
L 169.956635 149.332253 
L 170.682607 148.880838 
L 171.408578 149.148936 
L 172.13455 148.726295 
L 172.860522 149.471021 
L 173.586493 149.063581 
L 175.038437 149.159792 
L 175.764409 148.922606 
L 176.49038 151.207242 
L 177.216352 149.327289 
L 177.942324 149.410344 
L 178.668295 149.362941 
L 179.394267 148.987914 
L 180.120239 149.194225 
L 180.846211 149.060646 
L 181.572182 149.245576 
L 182.298154 150.384714 
L 183.024126 148.583922 
L 183.750097 149.141148 
L 184.476069 148.915595 
L 185.202041 148.956479 
L 185.928012 149.49211 
L 186.653984 149.134735 
L 187.379956 149.332717 
L 188.105928 149.170557 
L 189.557871 149.329859 
L 190.283843 149.022784 
L 191.009814 149.097323 
L 191.735786 147.808597 
L 192.461758 149.242495 
L 193.187729 149.031205 
L 193.913701 149.664773 
L 195.365645 149.088629 
L 196.091616 148.941175 
L 198.269531 148.991381 
L 198.995503 148.025563 
L 199.721475 148.339844 
L 200.447446 149.071421 
L 204.077305 149.207197 
L 204.803277 148.752167 
L 205.529248 148.613002 
L 206.25522 149.018621 
L 207.707164 149.054515 
L 208.433135 149.366205 
L 209.159107 148.9838 
L 214.240909 149.02371 
L 214.966881 149.724974 
L 216.418824 148.365981 
L 217.144796 149.00216 
L 217.870767 149.172016 
L 218.596739 150.080544 
L 219.322711 148.949753 
L 220.774654 149.455963 
L 221.500626 149.021813 
L 222.952569 149.021344 
L 223.678541 148.578755 
L 224.404513 149.364343 
L 225.130484 151.651711 
L 225.856456 149.578338 
L 226.582428 148.973918 
L 228.760343 148.972006 
L 229.486315 149.151336 
L 230.212286 148.923427 
L 231.66423 149.141483 
L 232.390201 148.74681 
L 234.568117 149.142388 
L 235.294088 149.042081 
L 236.02006 149.129208 
L 236.746032 149.039823 
L 237.472003 150.475197 
L 238.197975 148.990449 
L 238.923947 149.030604 
L 239.649918 148.934149 
L 241.101862 149.150361 
L 241.827834 148.958223 
L 242.553805 149.400506 
L 243.279777 147.686743 
L 244.005749 148.985281 
L 244.73172 149.083458 
L 245.457692 149.451899 
L 246.183664 149.018531 
L 253.443381 149.059002 
L 254.169352 149.266142 
L 254.895324 148.868267 
L 256.347268 148.892504 
L 257.073239 148.653942 
L 257.799211 149.439527 
L 258.525183 149.071019 
L 262.881013 149.181475 
L 263.606985 148.92347 
L 265.058928 149.016176 
L 265.7849 150.132791 
L 266.510871 148.882886 
L 267.236843 149.011102 
L 267.962815 148.642022 
L 268.688787 149.041174 
L 269.414758 149.012553 
L 270.14073 149.272088 
L 270.866702 149.052961 
L 271.592673 149.049859 
L 272.318645 149.175314 
L 273.044617 149.080738 
L 273.770588 148.795586 
L 274.49656 148.995583 
L 275.222532 148.487351 
L 275.948504 149.041354 
L 276.674475 148.884836 
L 277.400447 148.997306 
L 278.126419 148.761047 
L 279.578362 149.062541 
L 280.304334 148.963088 
L 281.030305 149.051602 
L 284.660164 148.979952 
L 285.386136 150.095925 
L 286.112107 149.014758 
L 287.564051 149.245871 
L 288.290023 149.049251 
L 289.015994 148.992956 
L 289.741966 149.149533 
L 290.467938 149.160757 
L 291.193909 149.034571 
L 291.919881 149.083826 
L 292.645853 152.800191 
L 293.371824 148.952307 
L 297.001683 149.078276 
L 297.727655 148.906609 
L 298.453626 148.370417 
L 299.179598 148.920473 
L 299.90557 148.888038 
L 300.631541 146.711512 
L 301.357513 149.256223 
L 302.083485 148.921527 
L 302.809457 148.849597 
L 304.2614 149.052854 
L 304.987372 149.143366 
L 305.713343 149.013628 
L 306.439315 148.340381 
L 307.165287 149.064803 
L 307.891258 149.408068 
L 308.61723 149.291891 
L 309.343202 151.827968 
L 310.069174 149.228976 
L 310.795145 148.954845 
L 311.521117 149.21165 
L 312.247089 150.092835 
L 312.97306 148.669647 
L 313.699032 149.862651 
L 315.150976 148.765788 
L 315.876947 149.241903 
L 316.602919 149.17086 
L 317.328891 148.984796 
L 318.054862 148.969582 
L 318.780834 147.335284 
L 319.506806 148.908676 
L 320.958749 149.110488 
L 321.684721 148.845223 
L 322.410693 148.91486 
L 323.136664 148.807432 
L 326.766523 149.015924 
L 327.492494 149.45565 
L 328.218466 149.164507 
L 328.944438 149.100055 
L 329.67041 154.060178 
L 330.396381 159.914019 
L 331.122353 149.060127 
L 331.848325 149.032104 
L 332.574296 149.298687 
L 333.300268 149.232963 
L 334.02624 149.692165 
L 334.752211 149.044224 
L 336.204155 149.066797 
L 336.930127 149.353231 
L 337.656098 148.864494 
L 339.834013 149.162783 
L 340.559985 149.00264 
L 341.285957 148.966776 
L 342.011929 149.148021 
L 342.7379 148.950644 
L 343.463872 149.032523 
L 344.189844 148.975599 
L 344.915815 149.500625 
L 345.641787 149.094617 
L 346.367759 148.961818 
L 347.819702 148.996483 
L 348.545674 146.983194 
L 349.271646 148.701152 
L 350.723589 149.0078 
L 352.901504 149.049367 
L 353.627476 147.826385 
L 354.353447 149.296439 
L 355.079419 148.937615 
L 355.805391 150.339637 
L 356.531363 149.017531 
L 359.435249 148.996225 
L 360.161221 149.089009 
L 360.887193 148.957996 
L 362.339136 149.01663 
L 363.065108 149.870244 
L 363.79108 148.260028 
L 364.517051 149.951092 
L 365.243023 149.03558 
L 365.968995 149.08398 
L 366.694966 148.39232 
L 368.872882 149.08308 
L 369.598853 148.40007 
L 370.324825 149.138394 
L 371.050797 148.81593 
L 371.776768 149.024468 
L 372.50274 149.515205 
L 373.228712 149.098389 
L 373.954683 148.973774 
L 376.132599 148.899358 
L 376.85857 149.103999 
L 377.584542 149.024756 
L 378.310514 149.419617 
L 379.036485 149.023619 
L 379.762457 149.089244 
L 382.666344 148.925177 
L 383.392316 149.237755 
L 384.118287 149.036192 
L 385.570231 149.066541 
L 386.296202 145.293652 
L 387.022174 148.907158 
L 389.926061 149.035934 
L 390.652033 148.926063 
L 391.378004 149.095254 
L 392.103976 148.895244 
L 394.281891 149.26313 
L 395.007863 149.053454 
L 396.459806 149.005968 
L 397.91175 149.334189 
L 398.637721 148.9829 
L 399.363693 149.139332 
L 400.089665 149.041952 
L 400.815636 149.389504 
L 401.541608 149.131752 
L 402.26758 148.682389 
L 402.993552 148.082627 
L 403.719523 148.748657 
L 404.445495 148.921717 
L 405.897438 148.922359 
L 406.62341 149.20939 
L 407.349382 149.209748 
L 408.075353 148.789436 
L 408.801325 148.942962 
L 410.253269 148.731995 
L 410.97924 149.236549 
L 411.705212 155.586688 
L 412.431184 148.59108 
L 413.157155 149.033023 
L 415.33507 149.065768 
L 416.061042 149.082567 
L 416.787014 149.221166 
L 418.238957 148.681761 
L 419.690901 149.16086 
L 421.142844 148.853972 
L 422.594788 149.019675 
L 423.320759 148.700295 
L 424.046731 148.632027 
L 424.772703 148.242835 
L 425.498674 148.898098 
L 426.224646 149.221861 
L 426.950618 148.927509 
L 429.854505 148.900722 
L 430.580476 149.530991 
L 431.306448 149.155204 
L 432.03242 148.99502 
L 434.210335 148.968563 
L 434.936306 149.113893 
L 437.114222 148.95765 
L 438.566165 149.015822 
L 439.292137 149.171559 
L 441.470052 148.90217 
L 442.196023 148.961206 
L 442.921995 149.340413 
L 443.647967 148.978358 
L 445.09991 148.854752 
L 445.825882 149.17487 
L 446.551854 149.928934 
L 448.003797 148.598972 
L 448.729769 149.558954 
L 449.455741 148.991651 
L 450.181712 149.071999 
L 451.633656 148.917227 
L 452.359627 149.463638 
L 453.085599 148.225077 
L 453.811571 149.258217 
L 454.537542 148.929114 
L 455.263514 149.197099 
L 455.989486 148.894693 
L 456.715458 148.80073 
L 460.345316 149.057373 
L 461.797259 148.891793 
L 462.523231 149.109684 
L 463.249203 148.9394 
L 464.701146 149.021858 
L 465.427118 149.565076 
L 466.15309 148.942487 
L 466.879061 148.855688 
L 467.605033 148.969214 
L 468.331005 148.674821 
L 469.056976 149.015458 
L 469.782948 148.951238 
L 470.50892 148.604881 
L 471.234892 148.96827 
L 471.960863 148.754835 
L 472.686835 149.007887 
L 474.138778 148.955606 
L 474.138778 148.955606 
" style="fill:none;stroke:#1f77b4;stroke-linecap:square;stroke-width:1.5;"/>
   </g>
   <g id="line2d_2">
    <path clip-path="url(#p4556d7cdca)" d="M 68.320597 147.339022 
L 69.046568 149.090569 
L 71.224483 149.029137 
L 71.950455 149.137494 
L 73.402399 148.774557 
L 74.12837 149.027376 
L 74.854342 148.844144 
L 75.580314 149.017823 
L 76.306285 148.770282 
L 77.032257 149.070216 
L 77.758229 148.399491 
L 79.210172 149.399245 
L 79.936144 149.109332 
L 80.662116 149.016345 
L 81.388087 144.977478 
L 82.114059 149.028191 
L 84.291974 148.961116 
L 85.743917 149.068371 
L 86.469889 148.950477 
L 87.195861 149.184983 
L 87.921833 149.042566 
L 88.647804 152.399219 
L 89.373776 149.021318 
L 94.455578 149.158644 
L 95.907521 149.101376 
L 96.633493 149.040777 
L 97.359465 149.12004 
L 98.811408 149.028976 
L 99.53738 149.245216 
L 100.263352 148.9622 
L 100.989323 149.179455 
L 101.715295 147.149335 
L 102.441267 149.100239 
L 103.167238 149.150056 
L 103.89321 149.047248 
L 104.619182 157.58992 
L 105.345153 148.935416 
L 106.071125 149.0086 
L 107.523069 148.969833 
L 108.975012 149.03054 
L 110.426955 149.015406 
L 111.152927 150.521181 
L 111.878899 148.946228 
L 112.60487 149.05234 
L 113.330842 191.710962 
L 114.056814 148.866098 
L 115.508757 149.052884 
L 116.960701 148.830798 
L 117.686672 148.399873 
L 118.412644 148.957549 
L 119.138616 149.065958 
L 122.042503 149.015352 
L 122.768474 149.124011 
L 123.494446 147.3934 
L 124.220418 149.040221 
L 124.946389 148.675654 
L 125.672361 150.783069 
L 126.398333 149.709251 
L 127.124305 148.977366 
L 127.850276 149.749972 
L 128.576248 149.042107 
L 134.384022 149.133248 
L 135.109993 149.044711 
L 135.835965 149.073438 
L 136.561937 148.984679 
L 137.287908 149.03737 
L 138.01388 147.97933 
L 138.739852 148.913893 
L 139.465823 149.000616 
L 140.191795 149.435251 
L 140.917767 148.682925 
L 141.643739 148.794841 
L 142.36971 148.656191 
L 143.095682 149.054121 
L 144.547625 148.945249 
L 145.273597 149.01655 
L 145.999569 149.251161 
L 146.72554 149.077977 
L 147.451512 149.128744 
L 148.177484 150.300306 
L 148.903456 149.151159 
L 149.629427 149.007321 
L 151.807342 149.119269 
L 152.533314 148.846289 
L 153.259286 148.79716 
L 153.985258 149.269676 
L 155.437201 149.003408 
L 156.163173 149.036912 
L 156.889144 149.454604 
L 157.615116 149.614087 
L 158.341088 148.977467 
L 159.067059 149.286047 
L 159.793031 148.878405 
L 160.519003 149.098373 
L 161.970946 148.969845 
L 162.696918 148.005574 
L 163.42289 148.953995 
L 164.148861 148.403435 
L 164.874833 153.829544 
L 165.600805 149.237281 
L 166.326776 148.999565 
L 167.052748 148.987062 
L 167.77872 148.658716 
L 168.504692 149.142954 
L 169.230663 149.386178 
L 169.956635 149.032498 
L 171.408578 149.064713 
L 172.860522 149.370996 
L 173.586493 149.078595 
L 174.312465 149.039774 
L 175.038437 148.381466 
L 175.764409 148.999962 
L 176.49038 149.802956 
L 177.216352 149.116691 
L 177.942324 148.902257 
L 178.668295 148.846092 
L 179.394267 149.177767 
L 180.120239 149.210156 
L 180.846211 149.113436 
L 181.572182 149.283394 
L 182.298154 148.47496 
L 183.024126 149.138742 
L 183.750097 148.948812 
L 185.202041 148.941449 
L 185.928012 148.597744 
L 186.653984 149.018517 
L 187.379956 149.218657 
L 188.105928 148.977997 
L 189.557871 148.82884 
L 191.009814 149.056938 
L 191.735786 146.787673 
L 192.461758 149.086966 
L 193.187729 149.039081 
L 193.913701 149.551771 
L 194.639673 149.507775 
L 195.365645 149.071657 
L 196.817588 149.038233 
L 197.54356 148.367922 
L 198.269531 149.113133 
L 198.995503 149.220439 
L 199.721475 148.948588 
L 201.173418 149.036664 
L 201.89939 148.94786 
L 202.625362 149.10762 
L 203.351333 149.040927 
L 204.077305 148.414134 
L 204.803277 148.609248 
L 205.529248 149.034054 
L 206.981192 148.998555 
L 207.707164 149.05036 
L 208.433135 148.801326 
L 210.61105 149.050762 
L 214.240909 149.042204 
L 214.966881 148.714756 
L 215.692852 148.962023 
L 216.418824 149.327862 
L 217.144796 149.371992 
L 217.870767 149.083135 
L 218.596739 149.360825 
L 219.322711 149.03786 
L 220.048682 148.970814 
L 220.774654 149.462222 
L 222.952569 148.981077 
L 223.678541 147.703287 
L 224.404513 148.291739 
L 225.130484 150.112208 
L 225.856456 150.198204 
L 226.582428 149.067768 
L 230.212286 148.99531 
L 230.938258 148.697626 
L 231.66423 148.890263 
L 232.390201 149.525141 
L 233.842145 149.032794 
L 234.568117 148.883108 
L 236.02006 149.076724 
L 236.746032 148.98232 
L 237.472003 148.587816 
L 238.197975 149.105778 
L 238.923947 148.937182 
L 239.649918 149.051228 
L 242.553805 149.033395 
L 243.279777 148.292174 
L 244.005749 150.060359 
L 244.73172 149.188541 
L 245.457692 150.555853 
L 246.183664 149.080729 
L 246.909635 148.999973 
L 248.361579 149.204563 
L 249.087551 149.009783 
L 249.813522 149.08687 
L 250.539494 148.899855 
L 251.265466 149.059128 
L 251.991437 148.990323 
L 252.717409 149.141548 
L 253.443381 148.824253 
L 254.169352 149.590953 
L 254.895324 149.071263 
L 256.347268 148.885953 
L 257.073239 148.641132 
L 257.799211 149.50349 
L 258.525183 149.01613 
L 259.251154 149.100215 
L 260.703098 148.957627 
L 261.42907 149.053899 
L 264.332956 148.86781 
L 265.058928 149.046671 
L 269.414758 149.025677 
L 270.14073 149.205421 
L 270.866702 149.069108 
L 272.318645 149.150198 
L 273.044617 148.977089 
L 273.770588 149.297036 
L 274.49656 148.984113 
L 275.222532 149.416529 
L 275.948504 148.955941 
L 276.674475 149.037498 
L 277.400447 148.9633 
L 278.126419 149.199756 
L 278.85239 148.604559 
L 279.578362 149.119398 
L 280.304334 148.98415 
L 281.756277 149.075168 
L 282.482249 148.896562 
L 283.208221 149.035621 
L 283.934192 148.948092 
L 284.660164 149.104109 
L 285.386136 148.758414 
L 286.838079 149.084259 
L 287.564051 148.883948 
L 288.290023 149.033642 
L 291.919881 149.046837 
L 292.645853 152.008808 
L 293.371824 148.968479 
L 297.001683 149.104283 
L 298.453626 148.202481 
L 299.179598 148.939177 
L 300.631541 149.232897 
L 301.357513 148.80246 
L 302.083485 149.133618 
L 302.809457 149.234848 
L 303.535428 150.047565 
L 304.2614 148.985099 
L 305.713343 149.044865 
L 306.439315 149.60286 
L 307.165287 149.082973 
L 307.891258 149.44729 
L 308.61723 149.191746 
L 309.343202 150.037118 
L 310.069174 149.050855 
L 311.521117 148.968531 
L 312.247089 148.815531 
L 312.97306 149.13153 
L 313.699032 149.04296 
L 314.425004 148.768977 
L 315.150976 148.814596 
L 315.876947 149.262743 
L 317.328891 148.98572 
L 318.054862 149.121677 
L 318.780834 151.297121 
L 319.506806 149.018554 
L 320.232777 148.941467 
L 322.410693 149.039742 
L 324.588608 149.132796 
L 325.314579 148.899642 
L 326.040551 148.946805 
L 326.766523 149.114808 
L 327.492494 149.414881 
L 328.218466 148.953105 
L 328.944438 149.26143 
L 329.67041 151.723518 
L 330.396381 144.644987 
L 331.122353 149.085204 
L 331.848325 149.031208 
L 332.574296 149.221553 
L 333.300268 149.025648 
L 334.02624 149.260244 
L 334.752211 149.009937 
L 336.204155 149.014103 
L 336.930127 148.820897 
L 337.656098 149.070655 
L 339.108042 149.033455 
L 340.559985 149.168651 
L 341.285957 148.903008 
L 342.011929 149.284307 
L 343.463872 149.010997 
L 344.189844 149.032995 
L 344.915815 149.231644 
L 345.641787 149.059642 
L 346.367759 149.018034 
L 347.09373 149.097338 
L 348.545674 148.819619 
L 349.271646 149.02409 
L 349.997617 148.946915 
L 352.175532 149.105407 
L 353.627476 148.962319 
L 354.353447 149.279762 
L 355.079419 148.964128 
L 355.805391 150.498327 
L 356.531363 148.980155 
L 360.161221 148.965336 
L 361.613164 149.090585 
L 362.339136 148.93823 
L 363.065108 149.149321 
L 363.79108 148.853185 
L 364.517051 148.385934 
L 365.243023 148.940393 
L 365.968995 149.10143 
L 366.694966 149.462136 
L 367.420938 150.85081 
L 368.14691 148.79959 
L 368.872882 149.147703 
L 369.598853 148.961308 
L 370.324825 149.638345 
L 371.050797 148.821564 
L 372.50274 149.364072 
L 373.228712 148.981502 
L 375.406627 148.937112 
L 376.132599 148.792975 
L 377.584542 148.985053 
L 378.310514 149.082085 
L 380.488429 148.924278 
L 381.2144 149.027284 
L 382.666344 149.036258 
L 384.844259 149.039852 
L 385.570231 149.083554 
L 386.296202 144.65686 
L 387.022174 148.853236 
L 388.474117 149.167999 
L 389.200089 148.957065 
L 390.652033 148.895264 
L 391.378004 148.636443 
L 392.829948 148.960798 
L 393.555919 148.902739 
L 394.281891 149.05115 
L 396.459806 148.923932 
L 397.91175 149.312885 
L 398.637721 149.039414 
L 399.363693 149.111729 
L 400.089665 149.016216 
L 400.815636 148.574388 
L 401.541608 149.095725 
L 402.26758 148.818981 
L 402.993552 149.227611 
L 403.719523 149.074901 
L 404.445495 149.087236 
L 405.897438 148.980943 
L 406.62341 148.940862 
L 408.075353 149.162633 
L 409.527297 148.807134 
L 410.253269 149.068345 
L 410.97924 148.909725 
L 411.705212 150.449582 
L 412.431184 148.956753 
L 413.157155 149.003141 
L 414.609099 148.920254 
L 415.33507 149.103117 
L 416.061042 148.849789 
L 416.787014 149.413451 
L 417.512986 148.996753 
L 418.238957 149.260711 
L 418.964929 148.987335 
L 419.690901 149.064929 
L 420.416872 148.983613 
L 421.868816 149.110788 
L 422.594788 148.984298 
L 423.320759 149.186227 
L 424.046731 148.911437 
L 424.772703 149.49009 
L 425.498674 148.912866 
L 426.224646 149.126155 
L 426.950618 148.832886 
L 428.402561 149.18103 
L 429.128533 148.964972 
L 429.854505 149.065373 
L 430.580476 148.871032 
L 431.306448 149.031363 
L 433.484363 149.084469 
L 434.210335 148.983857 
L 434.936306 149.123333 
L 436.38825 148.920627 
L 437.840193 149.009463 
L 439.292137 148.829085 
L 440.74408 148.992882 
L 442.196023 149.023756 
L 442.921995 148.636655 
L 443.647967 149.014558 
L 444.373939 149.088638 
L 445.09991 148.842589 
L 445.825882 149.122306 
L 446.551854 149.671478 
L 448.003797 148.639465 
L 448.729769 149.591544 
L 449.455741 149.00295 
L 450.181712 149.044795 
L 450.907684 148.954009 
L 451.633656 149.003906 
L 453.085599 148.825782 
L 454.537542 148.971915 
L 459.619344 148.965516 
L 460.345316 149.210674 
L 461.071288 148.98636 
L 463.249203 149.005501 
L 464.701146 148.980998 
L 465.427118 149.248139 
L 466.15309 149.035831 
L 467.605033 148.957199 
L 469.056976 148.980062 
L 474.138778 148.976507 
L 474.138778 148.976507 
" style="fill:none;stroke:#ff7f0e;stroke-linecap:square;stroke-width:1.5;"/>
   </g>
   <g id="line2d_3">
    <path clip-path="url(#p4556d7cdca)" d="M 68.320597 151.039787 
L 69.046568 149.16194 
L 70.498512 148.762836 
L 71.224483 149.046079 
L 71.950455 149.119619 
L 76.306285 148.988586 
L 77.032257 149.052422 
L 77.758229 149.30415 
L 79.210172 148.894093 
L 80.662116 149.137573 
L 81.388087 148.437749 
L 82.114059 148.992415 
L 85.017946 149.052613 
L 86.469889 149.059197 
L 87.195861 148.936056 
L 87.921833 149.037407 
L 88.647804 145.721175 
L 89.373776 149.025 
L 95.18155 149.119352 
L 95.907521 148.897936 
L 96.633493 149.024052 
L 97.359465 148.929042 
L 98.085436 149.065132 
L 98.811408 148.900138 
L 99.53738 149.833838 
L 100.263352 148.773798 
L 100.989323 149.134107 
L 101.715295 142.221795 
L 102.441267 149.093731 
L 103.167238 149.177528 
L 103.89321 149.035847 
L 104.619182 160.793546 
L 105.345153 148.961783 
L 106.071125 149.056807 
L 106.797097 148.913719 
L 108.24904 148.933068 
L 108.975012 149.116025 
L 110.426955 149.008368 
L 111.152927 146.402954 
L 111.878899 149.06278 
L 112.60487 148.973165 
L 113.330842 274.457876 
L 114.056814 149.084403 
L 115.508757 149.03939 
L 116.234729 148.894757 
L 116.960701 149.256488 
L 117.686672 148.89824 
L 118.412644 149.062453 
L 119.138616 149.010192 
L 119.864587 149.099776 
L 121.316531 149.02698 
L 122.042503 149.025609 
L 122.768474 148.754155 
L 123.494446 150.850464 
L 124.220418 149.053133 
L 124.946389 149.011986 
L 125.672361 147.968579 
L 126.398333 149.379413 
L 127.124305 149.03045 
L 132.206106 148.858245 
L 133.65805 149.127035 
L 135.109993 149.072775 
L 135.835965 148.612998 
L 136.561937 149.127062 
L 137.287908 148.999122 
L 138.01388 146.992516 
L 138.739852 149.219673 
L 139.465823 149.243918 
L 140.191795 148.690693 
L 140.917767 150.53832 
L 141.643739 149.012006 
L 142.36971 148.905583 
L 143.095682 149.017586 
L 143.821654 148.730934 
L 144.547625 148.73375 
L 145.273597 149.037783 
L 145.999569 150.017591 
L 146.72554 149.034384 
L 147.451512 149.220481 
L 148.177484 148.557671 
L 148.903456 148.947321 
L 150.355399 148.966742 
L 151.807342 148.997397 
L 152.533314 148.603824 
L 153.259286 149.025067 
L 153.985258 149.082263 
L 154.711229 149.01908 
L 155.437201 149.107241 
L 156.889144 149.646415 
L 157.615116 149.069776 
L 158.341088 149.038231 
L 159.067059 149.124299 
L 160.519003 149.038327 
L 161.970946 149.026965 
L 162.696918 150.202036 
L 164.148861 147.967895 
L 164.874833 148.017632 
L 165.600805 148.894714 
L 166.326776 148.66642 
L 167.052748 148.963627 
L 167.77872 148.812145 
L 168.504692 148.972767 
L 169.956635 149.068998 
L 170.682607 148.985353 
L 172.860522 149.127847 
L 173.586493 149.062864 
L 174.312465 149.117405 
L 175.038437 149.982998 
L 175.764409 148.976715 
L 176.49038 148.344945 
L 177.942324 149.404969 
L 178.668295 149.124731 
L 179.394267 149.229566 
L 182.298154 148.945915 
L 184.476069 149.152479 
L 185.202041 148.996222 
L 185.928012 149.662062 
L 186.653984 149.043044 
L 188.105928 149.000051 
L 189.557871 148.769958 
L 190.283843 149.015928 
L 191.009814 149.108606 
L 191.735786 148.211646 
L 192.461758 149.183452 
L 193.187729 148.995845 
L 194.639673 149.599821 
L 195.365645 149.10596 
L 196.091616 148.91963 
L 196.817588 149.027446 
L 197.54356 148.903774 
L 198.269531 149.065663 
L 198.995503 149.951559 
L 199.721475 148.941735 
L 201.89939 149.012671 
L 203.351333 148.986411 
L 204.077305 149.267043 
L 205.529248 148.774675 
L 206.981192 148.983121 
L 207.707164 149.027763 
L 208.433135 149.251437 
L 209.159107 149.028231 
L 214.240909 149.015382 
L 214.966881 149.797422 
L 216.418824 148.234696 
L 217.144796 149.179774 
L 217.870767 149.174011 
L 218.596739 148.665836 
L 219.322711 149.02825 
L 220.048682 148.968244 
L 220.774654 148.260848 
L 221.500626 149.372894 
L 222.226598 149.021238 
L 222.952569 149.043367 
L 223.678541 148.441339 
L 224.404513 148.97881 
L 225.856456 149.346431 
L 226.582428 149.082482 
L 228.760343 149.157661 
L 229.486315 149.269241 
L 230.212286 149.227754 
L 230.938258 148.669547 
L 231.66423 149.279557 
L 232.390201 148.862924 
L 233.116173 149.277434 
L 233.842145 148.962446 
L 234.568117 149.211461 
L 236.02006 149.061878 
L 236.746032 149.066262 
L 237.472003 149.869021 
L 238.197975 148.975371 
L 239.649918 149.012562 
L 241.827834 149.009522 
L 243.279777 149.450905 
L 244.005749 148.344167 
L 244.73172 149.205643 
L 245.457692 147.760563 
L 246.183664 149.048526 
L 251.265466 149.126646 
L 252.717409 148.954051 
L 253.443381 149.019703 
L 254.169352 148.702026 
L 254.895324 149.08746 
L 255.621296 148.960131 
L 256.347268 149.026403 
L 257.073239 148.918373 
L 257.799211 149.123697 
L 259.251154 148.991325 
L 260.703098 148.980151 
L 261.42907 149.231798 
L 262.155041 148.893014 
L 262.881013 148.775751 
L 263.606985 148.99665 
L 265.7849 149.05005 
L 266.510871 149.099583 
L 267.962815 148.931835 
L 268.688787 149.025989 
L 270.866702 149.02744 
L 274.49656 149.014243 
L 275.222532 149.17369 
L 275.948504 149.024103 
L 276.674475 149.096028 
L 277.400447 148.798277 
L 278.126419 149.036811 
L 278.85239 148.812312 
L 279.578362 149.043648 
L 280.304334 149.007832 
L 281.030305 149.092324 
L 282.482249 148.955445 
L 283.208221 149.040613 
L 283.934192 148.946975 
L 284.660164 148.996241 
L 285.386136 148.431045 
L 286.112107 149.011451 
L 291.919881 149.001336 
L 292.645853 146.578723 
L 293.371824 148.976273 
L 294.097796 148.941254 
L 294.823768 149.034293 
L 296.275711 149.003663 
L 297.001683 148.982896 
L 297.727655 148.73119 
L 298.453626 148.870048 
L 299.90557 148.976918 
L 300.631541 148.030733 
L 301.357513 149.001652 
L 302.083485 149.078724 
L 302.809457 148.856273 
L 303.535428 148.488945 
L 304.2614 149.042222 
L 304.987372 149.135781 
L 305.713343 149.108759 
L 307.165287 148.899484 
L 307.891258 149.514306 
L 308.61723 149.208325 
L 309.343202 149.031968 
L 310.069174 149.06076 
L 310.795145 148.766159 
L 311.521117 149.165263 
L 312.247089 150.421311 
L 312.97306 148.952627 
L 313.699032 150.307681 
L 314.425004 148.937157 
L 315.150976 149.193398 
L 315.876947 149.256285 
L 316.602919 149.205417 
L 317.328891 149.004721 
L 318.054862 149.086693 
L 318.780834 143.834385 
L 319.506806 149.001584 
L 320.958749 149.016919 
L 321.684721 149.270684 
L 322.410693 149.08013 
L 324.588608 149.0997 
L 325.314579 148.940536 
L 326.040551 149.028871 
L 326.766523 148.894799 
L 327.492494 149.49056 
L 328.218466 149.099877 
L 328.944438 149.162628 
L 329.67041 150.331188 
L 330.396381 151.254298 
L 331.122353 149.064279 
L 332.574296 149.125242 
L 333.300268 149.226782 
L 337.656098 148.919393 
L 338.38207 149.215005 
L 340.559985 148.820711 
L 341.285957 148.993073 
L 342.011929 148.887883 
L 343.463872 149.025667 
L 344.189844 149.034406 
L 344.915815 148.67154 
L 345.641787 149.041273 
L 347.819702 149.043004 
L 348.545674 145.575599 
L 349.271646 149.405317 
L 349.997617 148.891084 
L 351.449561 149.100897 
L 352.175532 148.934023 
L 352.901504 149.071528 
L 353.627476 148.868539 
L 354.353447 149.144698 
L 355.079419 149.02437 
L 355.805391 150.792729 
L 356.531363 149.065338 
L 358.709278 148.978487 
L 362.339136 148.981867 
L 363.065108 149.954701 
L 363.79108 148.608367 
L 364.517051 149.800997 
L 365.243023 149.024861 
L 365.968995 149.031349 
L 366.694966 148.368499 
L 367.420938 148.907835 
L 368.14691 148.748591 
L 368.872882 149.162691 
L 369.598853 149.113869 
L 371.050797 148.844308 
L 372.50274 149.196948 
L 373.228712 148.985504 
L 375.406627 149.027665 
L 376.132599 148.702006 
L 376.85857 148.921869 
L 379.036485 149.183597 
L 379.762457 149.022015 
L 381.2144 149.018061 
L 384.118287 149.015189 
L 385.570231 149.02009 
L 386.296202 145.457614 
L 387.022174 148.790387 
L 387.748146 148.999523 
L 388.474117 148.973637 
L 389.200089 148.790226 
L 389.926061 149.026461 
L 390.652033 148.721674 
L 391.378004 149.031866 
L 395.007863 149.000836 
L 397.185778 149.07175 
L 397.91175 148.842416 
L 400.089665 148.981668 
L 400.815636 148.511862 
L 401.541608 149.037755 
L 402.26758 149.211329 
L 402.993552 148.079476 
L 403.719523 148.869497 
L 404.445495 149.190648 
L 405.897438 148.804044 
L 406.62341 148.876901 
L 407.349382 149.243725 
L 408.075353 148.810212 
L 408.801325 148.963856 
L 410.253269 148.815037 
L 410.97924 148.934101 
L 411.705212 153.636855 
L 412.431184 148.658421 
L 413.157155 149.072032 
L 415.33507 149.196908 
L 416.061042 149.032283 
L 416.787014 149.217147 
L 417.512986 148.975865 
L 418.238957 147.950855 
L 418.964929 149.03023 
L 419.690901 149.072436 
L 421.868816 148.859743 
L 422.594788 149.050768 
L 423.320759 148.718245 
L 424.046731 148.736657 
L 424.772703 148.1404 
L 425.498674 148.912515 
L 426.224646 149.201846 
L 426.950618 148.842771 
L 428.402561 149.126035 
L 429.128533 148.932527 
L 429.854505 149.028058 
L 430.580476 149.352662 
L 431.306448 149.084428 
L 433.484363 148.982719 
L 438.566165 149.012288 
L 439.292137 149.158189 
L 440.018108 149.004086 
L 442.196023 149.05501 
L 442.921995 149.798668 
L 443.647967 149.029332 
L 444.373939 149.001038 
L 445.09991 148.792241 
L 445.825882 149.141922 
L 446.551854 150.074453 
L 447.277825 149.178366 
L 448.003797 148.627214 
L 448.729769 149.508108 
L 449.455741 149.009928 
L 450.181712 149.047163 
L 451.633656 148.932667 
L 452.359627 149.335777 
L 453.085599 148.39081 
L 453.811571 149.253052 
L 454.537542 148.934831 
L 455.263514 149.169835 
L 455.989486 148.925782 
L 461.071288 148.963486 
L 461.797259 148.901883 
L 462.523231 149.120046 
L 463.249203 148.954416 
L 464.701146 149.033924 
L 465.427118 149.55199 
L 466.15309 148.965223 
L 466.879061 148.850359 
L 467.605033 148.912726 
L 468.331005 148.746535 
L 469.056976 149.023924 
L 469.782948 148.971445 
L 470.50892 148.782564 
L 471.234892 148.969801 
L 474.138778 148.9704 
L 474.138778 148.9704 
" style="fill:none;stroke:#2ca02c;stroke-linecap:square;stroke-width:1.5;"/>
   </g>
   <g id="line2d_4">
    <path clip-path="url(#p4556d7cdca)" d="M 68.320597 147.439943 
L 69.046568 149.078638 
L 75.580314 149.033988 
L 76.306285 149.258708 
L 77.758229 148.859726 
L 78.4842 149.031313 
L 79.210172 148.91426 
L 80.662116 149.153427 
L 81.388087 146.667525 
L 82.114059 148.987898 
L 84.291974 148.990954 
L 85.743917 149.140834 
L 87.195861 148.990742 
L 87.921833 149.062498 
L 88.647804 149.948788 
L 89.373776 149.012616 
L 90.099748 149.073038 
L 92.277663 148.965436 
L 94.455578 149.075136 
L 97.359465 149.026887 
L 99.53738 149.060534 
L 100.263352 148.982599 
L 100.989323 149.100849 
L 101.715295 146.418787 
L 102.441267 149.017053 
L 103.89321 149.057055 
L 104.619182 161.052102 
L 105.345153 148.944034 
L 106.071125 149.03554 
L 107.523069 148.916985 
L 110.426955 149.083164 
L 111.152927 146.17383 
L 111.878899 148.259147 
L 112.60487 149.119384 
L 113.330842 281.76358 
L 114.056814 149.044027 
L 114.782786 149.132033 
L 116.234729 149.020886 
L 118.412644 149.039227 
L 122.042503 149.007515 
L 122.768474 149.068977 
L 123.494446 148.524297 
L 124.220418 148.934812 
L 124.946389 148.563702 
L 125.672361 149.915633 
L 126.398333 150.276289 
L 127.124305 149.010694 
L 127.850276 149.403812 
L 128.576248 149.008849 
L 130.028191 149.017956 
L 130.754163 149.001734 
L 131.480135 149.139205 
L 133.65805 149.017968 
L 135.109993 149.044727 
L 135.835965 148.968651 
L 137.287908 149.04748 
L 138.01388 147.625082 
L 138.739852 149.328809 
L 139.465823 149.340189 
L 140.191795 149.033953 
L 140.917767 148.87502 
L 141.643739 149.182705 
L 144.547625 148.899502 
L 145.273597 149.081054 
L 145.999569 149.627661 
L 146.72554 148.756989 
L 147.451512 148.880809 
L 148.177484 147.898508 
L 148.903456 148.872936 
L 149.629427 149.06721 
L 151.081371 148.742214 
L 151.807342 148.842663 
L 152.533314 149.058067 
L 153.259286 148.864333 
L 153.985258 149.103119 
L 155.437201 149.032138 
L 156.163173 149.199636 
L 156.889144 149.102798 
L 157.615116 149.181115 
L 158.341088 149.055112 
L 159.067059 149.289995 
L 160.519003 149.052823 
L 161.244975 149.116742 
L 161.970946 148.983125 
L 162.696918 150.653128 
L 164.874833 145.537404 
L 165.600805 148.914643 
L 166.326776 149.075311 
L 167.77872 148.873949 
L 169.230663 149.069273 
L 169.956635 148.737543 
L 170.682607 148.862201 
L 171.408578 149.256103 
L 172.13455 148.959828 
L 172.860522 149.218069 
L 173.586493 149.061785 
L 174.312465 149.11708 
L 175.038437 149.336538 
L 175.764409 148.887207 
L 177.216352 148.906972 
L 177.942324 149.913704 
L 178.668295 149.089364 
L 179.394267 149.223256 
L 180.120239 148.984456 
L 181.572182 149.10723 
L 182.298154 148.742911 
L 183.024126 148.987659 
L 185.202041 148.939078 
L 185.928012 149.294177 
L 187.379956 148.85594 
L 188.105928 149.035318 
L 189.557871 149.205079 
L 190.283843 149.019846 
L 191.009814 149.068539 
L 191.735786 148.177194 
L 192.461758 149.134223 
L 193.187729 149.057548 
L 193.913701 149.611358 
L 194.639673 148.947412 
L 195.365645 148.954927 
L 196.091616 149.141682 
L 196.817588 148.808155 
L 197.54356 148.793192 
L 198.269531 148.95746 
L 198.995503 149.327063 
L 199.721475 148.631762 
L 200.447446 149.031075 
L 202.625362 149.049254 
L 203.351333 149.020184 
L 204.077305 148.759355 
L 204.803277 148.87444 
L 205.529248 148.775094 
L 206.25522 148.847927 
L 206.981192 149.065489 
L 211.337022 149.018747 
L 212.062994 149.057414 
L 212.788965 148.954295 
L 214.240909 149.072588 
L 214.966881 148.780108 
L 215.692852 148.974035 
L 216.418824 149.394969 
L 217.144796 149.012409 
L 217.870767 149.177388 
L 218.596739 147.402365 
L 219.322711 149.063121 
L 220.774654 148.974388 
L 221.500626 148.528563 
L 222.226598 149.043772 
L 222.952569 149.045142 
L 223.678541 148.899399 
L 225.130484 149.539085 
L 225.856456 149.110687 
L 228.760343 148.938267 
L 229.486315 149.05055 
L 230.212286 148.86087 
L 230.938258 148.987861 
L 231.66423 149.278161 
L 232.390201 148.905438 
L 233.842145 149.049647 
L 234.568117 148.822305 
L 235.294088 149.048509 
L 236.02006 149.068919 
L 236.746032 148.954958 
L 237.472003 151.901783 
L 238.197975 149.142031 
L 241.101862 148.96558 
L 241.827834 149.033979 
L 242.553805 149.287857 
L 243.279777 150.557525 
L 244.005749 149.282034 
L 244.73172 149.057676 
L 245.457692 148.612485 
L 246.183664 149.103081 
L 247.635607 149.060548 
L 248.361579 149.142067 
L 249.813522 149.026952 
L 250.539494 149.092632 
L 251.991437 149.002951 
L 252.717409 148.964584 
L 253.443381 149.075121 
L 256.347268 148.963366 
L 257.073239 148.871232 
L 257.799211 149.067234 
L 258.525183 148.974397 
L 259.251154 148.653715 
L 259.977126 149.095096 
L 260.703098 148.969911 
L 261.42907 149.213937 
L 262.155041 149.01555 
L 265.058928 149.028735 
L 265.7849 149.371337 
L 266.510871 149.028346 
L 267.236843 149.001023 
L 267.962815 148.017281 
L 268.688787 149.076852 
L 270.14073 148.882083 
L 270.866702 149.029921 
L 273.044617 149.008648 
L 275.222532 149.12911 
L 275.948504 149.018679 
L 276.674475 149.088101 
L 277.400447 148.860738 
L 278.85239 148.987976 
L 281.756277 149.107464 
L 282.482249 148.99664 
L 283.208221 149.038902 
L 283.934192 148.848314 
L 284.660164 148.913363 
L 285.386136 148.118559 
L 286.112107 149.037828 
L 286.838079 149.089855 
L 288.290023 149.012544 
L 289.015994 149.078072 
L 290.467938 148.950214 
L 291.919881 148.993334 
L 292.645853 152.565335 
L 293.371824 148.975829 
L 297.727655 148.958869 
L 298.453626 148.74984 
L 299.179598 149.008089 
L 299.90557 148.994016 
L 300.631541 148.53857 
L 301.357513 148.909337 
L 302.083485 149.03986 
L 302.809457 148.575355 
L 303.535428 149.721449 
L 304.2614 148.926371 
L 306.439315 149.376993 
L 307.165287 148.837055 
L 307.891258 149.506321 
L 308.61723 148.97178 
L 309.343202 149.33359 
L 310.069174 149.036268 
L 310.795145 148.985149 
L 311.521117 149.085331 
L 314.425004 148.986174 
L 315.876947 148.8629 
L 316.602919 149.115166 
L 317.328891 149.018945 
L 318.054862 149.102171 
L 318.780834 151.758125 
L 319.506806 149.067453 
L 320.232777 149.017725 
L 320.958749 149.299304 
L 321.684721 149.033671 
L 328.944438 148.997146 
L 329.67041 150.217551 
L 330.396381 150.550466 
L 331.122353 149.048933 
L 342.011929 149.035825 
L 342.7379 149.14778 
L 343.463872 148.989286 
L 344.915815 149.093553 
L 345.641787 149.008727 
L 346.367759 149.077722 
L 347.819702 148.989364 
L 348.545674 149.284239 
L 349.271646 149.038784 
L 349.997617 148.945435 
L 352.901504 148.992609 
L 353.627476 149.007451 
L 354.353447 149.161239 
L 355.079419 148.990807 
L 355.805391 149.249882 
L 356.531363 148.981691 
L 361.613164 149.072075 
L 362.339136 148.956017 
L 363.065108 148.708831 
L 365.243023 148.948472 
L 365.968995 149.101856 
L 366.694966 148.781255 
L 367.420938 149.170034 
L 368.14691 148.896072 
L 369.598853 149.108106 
L 370.324825 149.038567 
L 371.050797 148.72644 
L 371.776768 149.034514 
L 372.50274 149.090388 
L 373.228712 148.98279 
L 378.310514 148.97334 
L 379.036485 149.269524 
L 379.762457 149.002967 
L 380.488429 149.055017 
L 381.2144 148.982282 
L 381.940372 149.107949 
L 382.666344 148.888891 
L 383.392316 149.103791 
L 384.118287 149.008046 
L 385.570231 149.074791 
L 386.296202 144.892222 
L 387.022174 148.873077 
L 387.748146 149.073206 
L 388.474117 148.896802 
L 389.200089 149.059742 
L 391.378004 148.845391 
L 392.103976 149.07976 
L 399.363693 148.984459 
L 401.541608 149.065295 
L 402.26758 148.96246 
L 402.993552 149.180387 
L 403.719523 148.934437 
L 404.445495 149.080174 
L 405.171467 149.039145 
L 405.897438 148.765616 
L 406.62341 148.862924 
L 407.349382 149.270378 
L 408.075353 148.905251 
L 408.801325 148.952376 
L 409.527297 148.822577 
L 410.253269 149.033409 
L 410.97924 148.917116 
L 411.705212 149.891791 
L 412.431184 149.167792 
L 413.157155 148.867395 
L 415.33507 149.064619 
L 416.061042 148.893527 
L 416.787014 149.387759 
L 418.238957 148.725555 
L 418.964929 149.013552 
L 419.690901 149.116243 
L 422.594788 148.96317 
L 423.320759 148.950903 
L 424.046731 149.147334 
L 424.772703 148.849504 
L 425.498674 149.017056 
L 428.402561 149.040873 
L 429.128533 148.920951 
L 431.306448 149.08452 
L 434.210335 148.999124 
L 434.936306 149.116693 
L 437.840193 149.022636 
L 438.566165 149.076003 
L 439.292137 148.915502 
L 440.018108 149.090921 
L 440.74408 148.980309 
L 442.196023 149.087469 
L 442.921995 149.636426 
L 443.647967 149.011576 
L 444.373939 149.050633 
L 445.09991 148.938662 
L 445.825882 148.986198 
L 446.551854 148.719871 
L 447.277825 148.980738 
L 448.003797 149.033402 
L 448.729769 148.819451 
L 449.455741 148.973116 
L 450.907684 148.995424 
L 451.633656 149.036226 
L 453.085599 148.832806 
L 454.537542 148.99932 
L 463.975175 149.025164 
L 467.605033 148.927998 
L 468.331005 149.036569 
L 470.50892 148.992856 
L 474.138778 148.982784 
L 474.138778 148.982784 
" style="fill:none;stroke:#d62728;stroke-linecap:square;stroke-width:1.5;"/>
   </g>
   <g id="line2d_5">
    <path clip-path="url(#p4556d7cdca)" d="M 68.320597 148.978407 
L 474.138778 148.978407 
L 474.138778 148.978407 
" style="fill:none;stroke:#000000;stroke-dasharray:3.7,1.6;stroke-dashoffset:0;"/>
   </g>
   <g id="matplotlib.axis_1">
    <g id="xtick_1">
     <g id="line2d_6">
      <defs>
       <path d="M 0 0 
L 0 3.5 
" id="m633d3d8e9b" style="stroke:#000000;stroke-width:0.8;"/>
      </defs>
      <g>
       <use style="stroke:#000000;stroke-width:0.8;" x="89.373776" xlink:href="#m633d3d8e9b" y="294.118125"/>
      </g>
     </g>
     <g id="text_1">
      <!-- 100 -->
      <defs>
       <path d="M 12.40625 8.296875 
L 28.515625 8.296875 
L 28.515625 63.921875 
L 10.984375 60.40625 
L 10.984375 69.390625 
L 28.421875 72.90625 
L 38.28125 72.90625 
L 38.28125 8.296875 
L 54.390625 8.296875 
L 54.390625 0 
L 12.40625 0 
z
" id="DejaVuSans-49"/>
       <path d="M 31.78125 66.40625 
Q 24.171875 66.40625 20.328125 58.90625 
Q 16.5 51.421875 16.5 36.375 
Q 16.5 21.390625 20.328125 13.890625 
Q 24.171875 6.390625 31.78125 6.390625 
Q 39.453125 6.390625 43.28125 13.890625 
Q 47.125 21.390625 47.125 36.375 
Q 47.125 51.421875 43.28125 58.90625 
Q 39.453125 66.40625 31.78125 66.40625 
z
M 31.78125 74.21875 
Q 44.046875 74.21875 50.515625 64.515625 
Q 56.984375 54.828125 56.984375 36.375 
Q 56.984375 17.96875 50.515625 8.265625 
Q 44.046875 -1.421875 31.78125 -1.421875 
Q 19.53125 -1.421875 13.0625 8.265625 
Q 6.59375 17.96875 6.59375 36.375 
Q 6.59375 54.828125 13.0625 64.515625 
Q 19.53125 74.21875 31.78125 74.21875 
z
" id="DejaVuSans-48"/>
      </defs>
      <g transform="translate(79.830026 308.716563)scale(0.1 -0.1)">
       <use xlink:href="#DejaVuSans-49"/>
       <use x="63.623047" xlink:href="#DejaVuSans-48"/>
       <use x="127.246094" xlink:href="#DejaVuSans-48"/>
      </g>
     </g>
    </g>
    <g id="xtick_2">
     <g id="line2d_7">
      <g>
       <use style="stroke:#000000;stroke-width:0.8;" x="161.970946" xlink:href="#m633d3d8e9b" y="294.118125"/>
      </g>
     </g>
     <g id="text_2">
      <!-- 200 -->
      <defs>
       <path d="M 19.1875 8.296875 
L 53.609375 8.296875 
L 53.609375 0 
L 7.328125 0 
L 7.328125 8.296875 
Q 12.9375 14.109375 22.625 23.890625 
Q 32.328125 33.6875 34.8125 36.53125 
Q 39.546875 41.84375 41.421875 45.53125 
Q 43.3125 49.21875 43.3125 52.78125 
Q 43.3125 58.59375 39.234375 62.25 
Q 35.15625 65.921875 28.609375 65.921875 
Q 23.96875 65.921875 18.8125 64.3125 
Q 13.671875 62.703125 7.8125 59.421875 
L 7.8125 69.390625 
Q 13.765625 71.78125 18.9375 73 
Q 24.125 74.21875 28.421875 74.21875 
Q 39.75 74.21875 46.484375 68.546875 
Q 53.21875 62.890625 53.21875 53.421875 
Q 53.21875 48.921875 51.53125 44.890625 
Q 49.859375 40.875 45.40625 35.40625 
Q 44.1875 33.984375 37.640625 27.21875 
Q 31.109375 20.453125 19.1875 8.296875 
z
" id="DejaVuSans-50"/>
      </defs>
      <g transform="translate(152.427196 308.716563)scale(0.1 -0.1)">
       <use xlink:href="#DejaVuSans-50"/>
       <use x="63.623047" xlink:href="#DejaVuSans-48"/>
       <use x="127.246094" xlink:href="#DejaVuSans-48"/>
      </g>
     </g>
    </g>
    <g id="xtick_3">
     <g id="line2d_8">
      <g>
       <use style="stroke:#000000;stroke-width:0.8;" x="234.568117" xlink:href="#m633d3d8e9b" y="294.118125"/>
      </g>
     </g>
     <g id="text_3">
      <!-- 300 -->
      <defs>
       <path d="M 40.578125 39.3125 
Q 47.65625 37.796875 51.625 33 
Q 55.609375 28.21875 55.609375 21.1875 
Q 55.609375 10.40625 48.1875 4.484375 
Q 40.765625 -1.421875 27.09375 -1.421875 
Q 22.515625 -1.421875 17.65625 -0.515625 
Q 12.796875 0.390625 7.625 2.203125 
L 7.625 11.71875 
Q 11.71875 9.328125 16.59375 8.109375 
Q 21.484375 6.890625 26.8125 6.890625 
Q 36.078125 6.890625 40.9375 10.546875 
Q 45.796875 14.203125 45.796875 21.1875 
Q 45.796875 27.640625 41.28125 31.265625 
Q 36.765625 34.90625 28.71875 34.90625 
L 20.21875 34.90625 
L 20.21875 43.015625 
L 29.109375 43.015625 
Q 36.375 43.015625 40.234375 45.921875 
Q 44.09375 48.828125 44.09375 54.296875 
Q 44.09375 59.90625 40.109375 62.90625 
Q 36.140625 65.921875 28.71875 65.921875 
Q 24.65625 65.921875 20.015625 65.03125 
Q 15.375 64.15625 9.8125 62.3125 
L 9.8125 71.09375 
Q 15.4375 72.65625 20.34375 73.4375 
Q 25.25 74.21875 29.59375 74.21875 
Q 40.828125 74.21875 47.359375 69.109375 
Q 53.90625 64.015625 53.90625 55.328125 
Q 53.90625 49.265625 50.4375 45.09375 
Q 46.96875 40.921875 40.578125 39.3125 
z
" id="DejaVuSans-51"/>
      </defs>
      <g transform="translate(225.024367 308.716563)scale(0.1 -0.1)">
       <use xlink:href="#DejaVuSans-51"/>
       <use x="63.623047" xlink:href="#DejaVuSans-48"/>
       <use x="127.246094" xlink:href="#DejaVuSans-48"/>
      </g>
     </g>
    </g>
    <g id="xtick_4">
     <g id="line2d_9">
      <g>
       <use style="stroke:#000000;stroke-width:0.8;" x="307.165287" xlink:href="#m633d3d8e9b" y="294.118125"/>
      </g>
     </g>
     <g id="text_4">
      <!-- 400 -->
      <defs>
       <path d="M 37.796875 64.3125 
L 12.890625 25.390625 
L 37.796875 25.390625 
z
M 35.203125 72.90625 
L 47.609375 72.90625 
L 47.609375 25.390625 
L 58.015625 25.390625 
L 58.015625 17.1875 
L 47.609375 17.1875 
L 47.609375 0 
L 37.796875 0 
L 37.796875 17.1875 
L 4.890625 17.1875 
L 4.890625 26.703125 
z
" id="DejaVuSans-52"/>
      </defs>
      <g transform="translate(297.621537 308.716563)scale(0.1 -0.1)">
       <use xlink:href="#DejaVuSans-52"/>
       <use x="63.623047" xlink:href="#DejaVuSans-48"/>
       <use x="127.246094" xlink:href="#DejaVuSans-48"/>
      </g>
     </g>
    </g>
    <g id="xtick_5">
     <g id="line2d_10">
      <g>
       <use style="stroke:#000000;stroke-width:0.8;" x="379.762457" xlink:href="#m633d3d8e9b" y="294.118125"/>
      </g>
     </g>
     <g id="text_5">
      <!-- 500 -->
      <defs>
       <path d="M 10.796875 72.90625 
L 49.515625 72.90625 
L 49.515625 64.59375 
L 19.828125 64.59375 
L 19.828125 46.734375 
Q 21.96875 47.46875 24.109375 47.828125 
Q 26.265625 48.1875 28.421875 48.1875 
Q 40.625 48.1875 47.75 41.5 
Q 54.890625 34.8125 54.890625 23.390625 
Q 54.890625 11.625 47.5625 5.09375 
Q 40.234375 -1.421875 26.90625 -1.421875 
Q 22.3125 -1.421875 17.546875 -0.640625 
Q 12.796875 0.140625 7.71875 1.703125 
L 7.71875 11.625 
Q 12.109375 9.234375 16.796875 8.0625 
Q 21.484375 6.890625 26.703125 6.890625 
Q 35.15625 6.890625 40.078125 11.328125 
Q 45.015625 15.765625 45.015625 23.390625 
Q 45.015625 31 40.078125 35.4375 
Q 35.15625 39.890625 26.703125 39.890625 
Q 22.75 39.890625 18.8125 39.015625 
Q 14.890625 38.140625 10.796875 36.28125 
z
" id="DejaVuSans-53"/>
      </defs>
      <g transform="translate(370.218707 308.716563)scale(0.1 -0.1)">
       <use xlink:href="#DejaVuSans-53"/>
       <use x="63.623047" xlink:href="#DejaVuSans-48"/>
       <use x="127.246094" xlink:href="#DejaVuSans-48"/>
      </g>
     </g>
    </g>
    <g id="xtick_6">
     <g id="line2d_11">
      <g>
       <use style="stroke:#000000;stroke-width:0.8;" x="452.359627" xlink:href="#m633d3d8e9b" y="294.118125"/>
      </g>
     </g>
     <g id="text_6">
      <!-- 600 -->
      <defs>
       <path d="M 33.015625 40.375 
Q 26.375 40.375 22.484375 35.828125 
Q 18.609375 31.296875 18.609375 23.390625 
Q 18.609375 15.53125 22.484375 10.953125 
Q 26.375 6.390625 33.015625 6.390625 
Q 39.65625 6.390625 43.53125 10.953125 
Q 47.40625 15.53125 47.40625 23.390625 
Q 47.40625 31.296875 43.53125 35.828125 
Q 39.65625 40.375 33.015625 40.375 
z
M 52.59375 71.296875 
L 52.59375 62.3125 
Q 48.875 64.0625 45.09375 64.984375 
Q 41.3125 65.921875 37.59375 65.921875 
Q 27.828125 65.921875 22.671875 59.328125 
Q 17.53125 52.734375 16.796875 39.40625 
Q 19.671875 43.65625 24.015625 45.921875 
Q 28.375 48.1875 33.59375 48.1875 
Q 44.578125 48.1875 50.953125 41.515625 
Q 57.328125 34.859375 57.328125 23.390625 
Q 57.328125 12.15625 50.6875 5.359375 
Q 44.046875 -1.421875 33.015625 -1.421875 
Q 20.359375 -1.421875 13.671875 8.265625 
Q 6.984375 17.96875 6.984375 36.375 
Q 6.984375 53.65625 15.1875 63.9375 
Q 23.390625 74.21875 37.203125 74.21875 
Q 40.921875 74.21875 44.703125 73.484375 
Q 48.484375 72.75 52.59375 71.296875 
z
" id="DejaVuSans-54"/>
      </defs>
      <g transform="translate(442.815877 308.716563)scale(0.1 -0.1)">
       <use xlink:href="#DejaVuSans-54"/>
       <use x="63.623047" xlink:href="#DejaVuSans-48"/>
       <use x="127.246094" xlink:href="#DejaVuSans-48"/>
      </g>
     </g>
    </g>
    <g id="text_7">
     <!-- Tempo -->
     <defs>
      <path d="M -0.296875 72.90625 
L 61.375 72.90625 
L 61.375 64.59375 
L 35.5 64.59375 
L 35.5 0 
L 25.59375 0 
L 25.59375 64.59375 
L -0.296875 64.59375 
z
" id="DejaVuSans-84"/>
      <path d="M 56.203125 29.59375 
L 56.203125 25.203125 
L 14.890625 25.203125 
Q 15.484375 15.921875 20.484375 11.0625 
Q 25.484375 6.203125 34.421875 6.203125 
Q 39.59375 6.203125 44.453125 7.46875 
Q 49.3125 8.734375 54.109375 11.28125 
L 54.109375 2.78125 
Q 49.265625 0.734375 44.1875 -0.34375 
Q 39.109375 -1.421875 33.890625 -1.421875 
Q 20.796875 -1.421875 13.15625 6.1875 
Q 5.515625 13.8125 5.515625 26.8125 
Q 5.515625 40.234375 12.765625 48.109375 
Q 20.015625 56 32.328125 56 
Q 43.359375 56 49.78125 48.890625 
Q 56.203125 41.796875 56.203125 29.59375 
z
M 47.21875 32.234375 
Q 47.125 39.59375 43.09375 43.984375 
Q 39.0625 48.390625 32.421875 48.390625 
Q 24.90625 48.390625 20.390625 44.140625 
Q 15.875 39.890625 15.1875 32.171875 
z
" id="DejaVuSans-101"/>
      <path d="M 52 44.1875 
Q 55.375 50.25 60.0625 53.125 
Q 64.75 56 71.09375 56 
Q 79.640625 56 84.28125 50.015625 
Q 88.921875 44.046875 88.921875 33.015625 
L 88.921875 0 
L 79.890625 0 
L 79.890625 32.71875 
Q 79.890625 40.578125 77.09375 44.375 
Q 74.3125 48.1875 68.609375 48.1875 
Q 61.625 48.1875 57.5625 43.546875 
Q 53.515625 38.921875 53.515625 30.90625 
L 53.515625 0 
L 44.484375 0 
L 44.484375 32.71875 
Q 44.484375 40.625 41.703125 44.40625 
Q 38.921875 48.1875 33.109375 48.1875 
Q 26.21875 48.1875 22.15625 43.53125 
Q 18.109375 38.875 18.109375 30.90625 
L 18.109375 0 
L 9.078125 0 
L 9.078125 54.6875 
L 18.109375 54.6875 
L 18.109375 46.1875 
Q 21.1875 51.21875 25.484375 53.609375 
Q 29.78125 56 35.6875 56 
Q 41.65625 56 45.828125 52.96875 
Q 50 49.953125 52 44.1875 
z
" id="DejaVuSans-109"/>
      <path d="M 18.109375 8.203125 
L 18.109375 -20.796875 
L 9.078125 -20.796875 
L 9.078125 54.6875 
L 18.109375 54.6875 
L 18.109375 46.390625 
Q 20.953125 51.265625 25.265625 53.625 
Q 29.59375 56 35.59375 56 
Q 45.5625 56 51.78125 48.09375 
Q 58.015625 40.1875 58.015625 27.296875 
Q 58.015625 14.40625 51.78125 6.484375 
Q 45.5625 -1.421875 35.59375 -1.421875 
Q 29.59375 -1.421875 25.265625 0.953125 
Q 20.953125 3.328125 18.109375 8.203125 
z
M 48.6875 27.296875 
Q 48.6875 37.203125 44.609375 42.84375 
Q 40.53125 48.484375 33.40625 48.484375 
Q 26.265625 48.484375 22.1875 42.84375 
Q 18.109375 37.203125 18.109375 27.296875 
Q 18.109375 17.390625 22.1875 11.75 
Q 26.265625 6.109375 33.40625 6.109375 
Q 40.53125 6.109375 44.609375 11.75 
Q 48.6875 17.390625 48.6875 27.296875 
z
" id="DejaVuSans-112"/>
      <path d="M 30.609375 48.390625 
Q 23.390625 48.390625 19.1875 42.75 
Q 14.984375 37.109375 14.984375 27.296875 
Q 14.984375 17.484375 19.15625 11.84375 
Q 23.34375 6.203125 30.609375 6.203125 
Q 37.796875 6.203125 41.984375 11.859375 
Q 46.1875 17.53125 46.1875 27.296875 
Q 46.1875 37.015625 41.984375 42.703125 
Q 37.796875 48.390625 30.609375 48.390625 
z
M 30.609375 56 
Q 42.328125 56 49.015625 48.375 
Q 55.71875 40.765625 55.71875 27.296875 
Q 55.71875 13.875 49.015625 6.21875 
Q 42.328125 -1.421875 30.609375 -1.421875 
Q 18.84375 -1.421875 12.171875 6.21875 
Q 5.515625 13.875 5.515625 27.296875 
Q 5.515625 40.765625 12.171875 48.375 
Q 18.84375 56 30.609375 56 
z
" id="DejaVuSans-111"/>
     </defs>
     <g transform="translate(254.845312 322.394687)scale(0.1 -0.1)">
      <use xlink:href="#DejaVuSans-84"/>
      <use x="44.083984" xlink:href="#DejaVuSans-101"/>
      <use x="105.607422" xlink:href="#DejaVuSans-109"/>
      <use x="203.019531" xlink:href="#DejaVuSans-112"/>
      <use x="266.496094" xlink:href="#DejaVuSans-111"/>
     </g>
    </g>
   </g>
   <g id="matplotlib.axis_2">
    <g id="ytick_1">
     <g id="line2d_12">
      <defs>
       <path d="M 0 0 
L -3.5 0 
" id="m8c239810c7" style="stroke:#000000;stroke-width:0.8;"/>
      </defs>
      <g>
       <use style="stroke:#000000;stroke-width:0.8;" x="48.029687" xlink:href="#m8c239810c7" y="275.318761"/>
      </g>
     </g>
     <g id="text_8">
      <!-- 2000 -->
      <defs>
       <path d="M 10.59375 35.5 
L 73.1875 35.5 
L 73.1875 27.203125 
L 10.59375 27.203125 
z
" id="DejaVuSans-8722"/>
      </defs>
      <g transform="translate(7.2 279.117979)scale(0.1 -0.1)">
       <use xlink:href="#DejaVuSans-8722"/>
       <use x="83.789062" xlink:href="#DejaVuSans-50"/>
       <use x="147.412109" xlink:href="#DejaVuSans-48"/>
       <use x="211.035156" xlink:href="#DejaVuSans-48"/>
       <use x="274.658203" xlink:href="#DejaVuSans-48"/>
      </g>
     </g>
    </g>
    <g id="ytick_2">
     <g id="line2d_13">
      <g>
       <use style="stroke:#000000;stroke-width:0.8;" x="48.029687" xlink:href="#m8c239810c7" y="243.733672"/>
      </g>
     </g>
     <g id="text_9">
      <!-- 1500 -->
      <g transform="translate(7.2 247.532891)scale(0.1 -0.1)">
       <use xlink:href="#DejaVuSans-8722"/>
       <use x="83.789062" xlink:href="#DejaVuSans-49"/>
       <use x="147.412109" xlink:href="#DejaVuSans-53"/>
       <use x="211.035156" xlink:href="#DejaVuSans-48"/>
       <use x="274.658203" xlink:href="#DejaVuSans-48"/>
      </g>
     </g>
    </g>
    <g id="ytick_3">
     <g id="line2d_14">
      <g>
       <use style="stroke:#000000;stroke-width:0.8;" x="48.029687" xlink:href="#m8c239810c7" y="212.148584"/>
      </g>
     </g>
     <g id="text_10">
      <!-- 1000 -->
      <g transform="translate(7.2 215.947802)scale(0.1 -0.1)">
       <use xlink:href="#DejaVuSans-8722"/>
       <use x="83.789062" xlink:href="#DejaVuSans-49"/>
       <use x="147.412109" xlink:href="#DejaVuSans-48"/>
       <use x="211.035156" xlink:href="#DejaVuSans-48"/>
       <use x="274.658203" xlink:href="#DejaVuSans-48"/>
      </g>
     </g>
    </g>
    <g id="ytick_4">
     <g id="line2d_15">
      <g>
       <use style="stroke:#000000;stroke-width:0.8;" x="48.029687" xlink:href="#m8c239810c7" y="180.563495"/>
      </g>
     </g>
     <g id="text_11">
      <!-- 500 -->
      <g transform="translate(13.5625 184.362714)scale(0.1 -0.1)">
       <use xlink:href="#DejaVuSans-8722"/>
       <use x="83.789062" xlink:href="#DejaVuSans-53"/>
       <use x="147.412109" xlink:href="#DejaVuSans-48"/>
       <use x="211.035156" xlink:href="#DejaVuSans-48"/>
      </g>
     </g>
    </g>
    <g id="ytick_5">
     <g id="line2d_16">
      <g>
       <use style="stroke:#000000;stroke-width:0.8;" x="48.029687" xlink:href="#m8c239810c7" y="148.978407"/>
      </g>
     </g>
     <g id="text_12">
      <!-- 0 -->
      <g transform="translate(34.667187 152.777626)scale(0.1 -0.1)">
       <use xlink:href="#DejaVuSans-48"/>
      </g>
     </g>
    </g>
    <g id="ytick_6">
     <g id="line2d_17">
      <g>
       <use style="stroke:#000000;stroke-width:0.8;" x="48.029687" xlink:href="#m8c239810c7" y="117.393318"/>
      </g>
     </g>
     <g id="text_13">
      <!-- 500 -->
      <g transform="translate(21.942187 121.192537)scale(0.1 -0.1)">
       <use xlink:href="#DejaVuSans-53"/>
       <use x="63.623047" xlink:href="#DejaVuSans-48"/>
       <use x="127.246094" xlink:href="#DejaVuSans-48"/>
      </g>
     </g>
    </g>
    <g id="ytick_7">
     <g id="line2d_18">
      <g>
       <use style="stroke:#000000;stroke-width:0.8;" x="48.029687" xlink:href="#m8c239810c7" y="85.80823"/>
      </g>
     </g>
     <g id="text_14">
      <!-- 1000 -->
      <g transform="translate(15.579687 89.607449)scale(0.1 -0.1)">
       <use xlink:href="#DejaVuSans-49"/>
       <use x="63.623047" xlink:href="#DejaVuSans-48"/>
       <use x="127.246094" xlink:href="#DejaVuSans-48"/>
       <use x="190.869141" xlink:href="#DejaVuSans-48"/>
      </g>
     </g>
    </g>
    <g id="ytick_8">
     <g id="line2d_19">
      <g>
       <use style="stroke:#000000;stroke-width:0.8;" x="48.029687" xlink:href="#m8c239810c7" y="54.223142"/>
      </g>
     </g>
     <g id="text_15">
      <!-- 1500 -->
      <g transform="translate(15.579687 58.02236)scale(0.1 -0.1)">
       <use xlink:href="#DejaVuSans-49"/>
       <use x="63.623047" xlink:href="#DejaVuSans-53"/>
       <use x="127.246094" xlink:href="#DejaVuSans-48"/>
       <use x="190.869141" xlink:href="#DejaVuSans-48"/>
      </g>
     </g>
    </g>
    <g id="ytick_9">
     <g id="line2d_20">
      <g>
       <use style="stroke:#000000;stroke-width:0.8;" x="48.029687" xlink:href="#m8c239810c7" y="22.638053"/>
      </g>
     </g>
     <g id="text_16">
      <!-- 2000 -->
      <g transform="translate(15.579687 26.437272)scale(0.1 -0.1)">
       <use xlink:href="#DejaVuSans-50"/>
       <use x="63.623047" xlink:href="#DejaVuSans-48"/>
       <use x="127.246094" xlink:href="#DejaVuSans-48"/>
       <use x="190.869141" xlink:href="#DejaVuSans-48"/>
      </g>
     </g>
    </g>
   </g>
   <g id="patch_3">
    <path d="M 48.029687 294.118125 
L 48.029687 22.318125 
" style="fill:none;stroke:#000000;stroke-linecap:square;stroke-linejoin:miter;stroke-width:0.8;"/>
   </g>
   <g id="patch_4">
    <path d="M 48.029687 294.118125 
L 494.429687 294.118125 
" style="fill:none;stroke:#000000;stroke-linecap:square;stroke-linejoin:miter;stroke-width:0.8;"/>
   </g>
   <g id="text_17">
    <!-- Gini_aTax -->
    <defs>
     <path d="M 59.515625 10.40625 
L 59.515625 29.984375 
L 43.40625 29.984375 
L 43.40625 38.09375 
L 69.28125 38.09375 
L 69.28125 6.78125 
Q 63.578125 2.734375 56.6875 0.65625 
Q 49.8125 -1.421875 42 -1.421875 
Q 24.90625 -1.421875 15.25 8.5625 
Q 5.609375 18.5625 5.609375 36.375 
Q 5.609375 54.25 15.25 64.234375 
Q 24.90625 74.21875 42 74.21875 
Q 49.125 74.21875 55.546875 72.453125 
Q 61.96875 70.703125 67.390625 67.28125 
L 67.390625 56.78125 
Q 61.921875 61.421875 55.765625 63.765625 
Q 49.609375 66.109375 42.828125 66.109375 
Q 29.4375 66.109375 22.71875 58.640625 
Q 16.015625 51.171875 16.015625 36.375 
Q 16.015625 21.625 22.71875 14.15625 
Q 29.4375 6.6875 42.828125 6.6875 
Q 48.046875 6.6875 52.140625 7.59375 
Q 56.25 8.5 59.515625 10.40625 
z
" id="DejaVuSans-71"/>
     <path d="M 9.421875 54.6875 
L 18.40625 54.6875 
L 18.40625 0 
L 9.421875 0 
z
M 9.421875 75.984375 
L 18.40625 75.984375 
L 18.40625 64.59375 
L 9.421875 64.59375 
z
" id="DejaVuSans-105"/>
     <path d="M 54.890625 33.015625 
L 54.890625 0 
L 45.90625 0 
L 45.90625 32.71875 
Q 45.90625 40.484375 42.875 44.328125 
Q 39.84375 48.1875 33.796875 48.1875 
Q 26.515625 48.1875 22.3125 43.546875 
Q 18.109375 38.921875 18.109375 30.90625 
L 18.109375 0 
L 9.078125 0 
L 9.078125 54.6875 
L 18.109375 54.6875 
L 18.109375 46.1875 
Q 21.34375 51.125 25.703125 53.5625 
Q 30.078125 56 35.796875 56 
Q 45.21875 56 50.046875 50.171875 
Q 54.890625 44.34375 54.890625 33.015625 
z
" id="DejaVuSans-110"/>
     <path d="M 50.984375 -16.609375 
L 50.984375 -23.578125 
L -0.984375 -23.578125 
L -0.984375 -16.609375 
z
" id="DejaVuSans-95"/>
     <path d="M 34.28125 27.484375 
Q 23.390625 27.484375 19.1875 25 
Q 14.984375 22.515625 14.984375 16.5 
Q 14.984375 11.71875 18.140625 8.90625 
Q 21.296875 6.109375 26.703125 6.109375 
Q 34.1875 6.109375 38.703125 11.40625 
Q 43.21875 16.703125 43.21875 25.484375 
L 43.21875 27.484375 
z
M 52.203125 31.203125 
L 52.203125 0 
L 43.21875 0 
L 43.21875 8.296875 
Q 40.140625 3.328125 35.546875 0.953125 
Q 30.953125 -1.421875 24.3125 -1.421875 
Q 15.921875 -1.421875 10.953125 3.296875 
Q 6 8.015625 6 15.921875 
Q 6 25.140625 12.171875 29.828125 
Q 18.359375 34.515625 30.609375 34.515625 
L 43.21875 34.515625 
L 43.21875 35.40625 
Q 43.21875 41.609375 39.140625 45 
Q 35.0625 48.390625 27.6875 48.390625 
Q 23 48.390625 18.546875 47.265625 
Q 14.109375 46.140625 10.015625 43.890625 
L 10.015625 52.203125 
Q 14.9375 54.109375 19.578125 55.046875 
Q 24.21875 56 28.609375 56 
Q 40.484375 56 46.34375 49.84375 
Q 52.203125 43.703125 52.203125 31.203125 
z
" id="DejaVuSans-97"/>
     <path d="M 54.890625 54.6875 
L 35.109375 28.078125 
L 55.90625 0 
L 45.3125 0 
L 29.390625 21.484375 
L 13.484375 0 
L 2.875 0 
L 24.125 28.609375 
L 4.6875 54.6875 
L 15.28125 54.6875 
L 29.78125 35.203125 
L 44.28125 54.6875 
z
" id="DejaVuSans-120"/>
    </defs>
    <g transform="translate(242.864687 16.318125)scale(0.12 -0.12)">
     <use xlink:href="#DejaVuSans-71"/>
     <use x="77.490234" xlink:href="#DejaVuSans-105"/>
     <use x="105.273438" xlink:href="#DejaVuSans-110"/>
     <use x="168.652344" xlink:href="#DejaVuSans-105"/>
     <use x="196.435547" xlink:href="#DejaVuSans-95"/>
     <use x="246.435547" xlink:href="#DejaVuSans-97"/>
     <use x="307.714844" xlink:href="#DejaVuSans-84"/>
     <use x="352.298828" xlink:href="#DejaVuSans-97"/>
     <use x="413.578125" xlink:href="#DejaVuSans-120"/>
    </g>
   </g>
   <g id="legend_1">
    <g id="patch_5">
     <path d="M 501.429688 196.413438 
L 634.989063 196.413438 
Q 636.989063 196.413438 636.989063 194.413438 
L 636.989063 122.022813 
Q 636.989063 120.022813 634.989063 120.022813 
L 501.429688 120.022813 
Q 499.429688 120.022813 499.429688 122.022813 
L 499.429688 194.413438 
Q 499.429688 196.413438 501.429688 196.413438 
z
" style="fill:#ffffff;opacity:0.8;stroke:#cccccc;stroke-linejoin:miter;"/>
    </g>
    <g id="line2d_21">
     <path d="M 503.429688 128.12125 
L 523.429688 128.12125 
" style="fill:none;stroke:#000000;stroke-dasharray:3.7,1.6;stroke-dashoffset:0;"/>
    </g>
    <g id="line2d_22"/>
    <g id="text_18">
     <!-- Baseline -->
     <defs>
      <path d="M 19.671875 34.8125 
L 19.671875 8.109375 
L 35.5 8.109375 
Q 43.453125 8.109375 47.28125 11.40625 
Q 51.125 14.703125 51.125 21.484375 
Q 51.125 28.328125 47.28125 31.5625 
Q 43.453125 34.8125 35.5 34.8125 
z
M 19.671875 64.796875 
L 19.671875 42.828125 
L 34.28125 42.828125 
Q 41.5 42.828125 45.03125 45.53125 
Q 48.578125 48.25 48.578125 53.8125 
Q 48.578125 59.328125 45.03125 62.0625 
Q 41.5 64.796875 34.28125 64.796875 
z
M 9.8125 72.90625 
L 35.015625 72.90625 
Q 46.296875 72.90625 52.390625 68.21875 
Q 58.5 63.53125 58.5 54.890625 
Q 58.5 48.1875 55.375 44.234375 
Q 52.25 40.28125 46.1875 39.3125 
Q 53.46875 37.75 57.5 32.78125 
Q 61.53125 27.828125 61.53125 20.40625 
Q 61.53125 10.640625 54.890625 5.3125 
Q 48.25 0 35.984375 0 
L 9.8125 0 
z
" id="DejaVuSans-66"/>
      <path d="M 44.28125 53.078125 
L 44.28125 44.578125 
Q 40.484375 46.53125 36.375 47.5 
Q 32.28125 48.484375 27.875 48.484375 
Q 21.1875 48.484375 17.84375 46.4375 
Q 14.5 44.390625 14.5 40.28125 
Q 14.5 37.15625 16.890625 35.375 
Q 19.28125 33.59375 26.515625 31.984375 
L 29.59375 31.296875 
Q 39.15625 29.25 43.1875 25.515625 
Q 47.21875 21.78125 47.21875 15.09375 
Q 47.21875 7.46875 41.1875 3.015625 
Q 35.15625 -1.421875 24.609375 -1.421875 
Q 20.21875 -1.421875 15.453125 -0.5625 
Q 10.6875 0.296875 5.421875 2 
L 5.421875 11.28125 
Q 10.40625 8.6875 15.234375 7.390625 
Q 20.0625 6.109375 24.8125 6.109375 
Q 31.15625 6.109375 34.5625 8.28125 
Q 37.984375 10.453125 37.984375 14.40625 
Q 37.984375 18.0625 35.515625 20.015625 
Q 33.0625 21.96875 24.703125 23.78125 
L 21.578125 24.515625 
Q 13.234375 26.265625 9.515625 29.90625 
Q 5.8125 33.546875 5.8125 39.890625 
Q 5.8125 47.609375 11.28125 51.796875 
Q 16.75 56 26.8125 56 
Q 31.78125 56 36.171875 55.265625 
Q 40.578125 54.546875 44.28125 53.078125 
z
" id="DejaVuSans-115"/>
      <path d="M 9.421875 75.984375 
L 18.40625 75.984375 
L 18.40625 0 
L 9.421875 0 
z
" id="DejaVuSans-108"/>
     </defs>
     <g transform="translate(531.429688 131.62125)scale(0.1 -0.1)">
      <use xlink:href="#DejaVuSans-66"/>
      <use x="68.603516" xlink:href="#DejaVuSans-97"/>
      <use x="129.882812" xlink:href="#DejaVuSans-115"/>
      <use x="181.982422" xlink:href="#DejaVuSans-101"/>
      <use x="243.505859" xlink:href="#DejaVuSans-108"/>
      <use x="271.289062" xlink:href="#DejaVuSans-105"/>
      <use x="299.072266" xlink:href="#DejaVuSans-110"/>
      <use x="362.451172" xlink:href="#DejaVuSans-101"/>
     </g>
    </g>
    <g id="line2d_23">
     <path d="M 503.429688 142.799375 
L 523.429688 142.799375 
" style="fill:none;stroke:#1f77b4;stroke-linecap:square;stroke-width:1.5;"/>
    </g>
    <g id="line2d_24"/>
    <g id="text_19">
     <!-- $\Uparrow$ acesso crdito -->
     <defs>
      <path d="M 36.765625 58.59375 
L 36.765625 0 
L 30.90625 0 
L 30.90625 52.734375 
L 26.421875 48.140625 
L 20.5625 54 
L 39.703125 73.25 
L 44.09375 73.25 
L 63.328125 54 
L 57.46875 48.140625 
L 52.875 52.734375 
L 52.875 0 
L 47.015625 0 
L 47.015625 58.59375 
L 41.9375 63.671875 
z
" id="DejaVuSans-8657"/>
      <path id="DejaVuSans-32"/>
      <path d="M 48.78125 52.59375 
L 48.78125 44.1875 
Q 44.96875 46.296875 41.140625 47.34375 
Q 37.3125 48.390625 33.40625 48.390625 
Q 24.65625 48.390625 19.8125 42.84375 
Q 14.984375 37.3125 14.984375 27.296875 
Q 14.984375 17.28125 19.8125 11.734375 
Q 24.65625 6.203125 33.40625 6.203125 
Q 37.3125 6.203125 41.140625 7.25 
Q 44.96875 8.296875 48.78125 10.40625 
L 48.78125 2.09375 
Q 45.015625 0.34375 40.984375 -0.53125 
Q 36.96875 -1.421875 32.421875 -1.421875 
Q 20.0625 -1.421875 12.78125 6.34375 
Q 5.515625 14.109375 5.515625 27.296875 
Q 5.515625 40.671875 12.859375 48.328125 
Q 20.21875 56 33.015625 56 
Q 37.15625 56 41.109375 55.140625 
Q 45.0625 54.296875 48.78125 52.59375 
z
" id="DejaVuSans-99"/>
      <path d="M 41.109375 46.296875 
Q 39.59375 47.171875 37.8125 47.578125 
Q 36.03125 48 33.890625 48 
Q 26.265625 48 22.1875 43.046875 
Q 18.109375 38.09375 18.109375 28.8125 
L 18.109375 0 
L 9.078125 0 
L 9.078125 54.6875 
L 18.109375 54.6875 
L 18.109375 46.1875 
Q 20.953125 51.171875 25.484375 53.578125 
Q 30.03125 56 36.53125 56 
Q 37.453125 56 38.578125 55.875 
Q 39.703125 55.765625 41.0625 55.515625 
z
" id="DejaVuSans-114"/>
      <path d="M 56.203125 29.59375 
L 56.203125 25.203125 
L 14.890625 25.203125 
Q 15.484375 15.921875 20.484375 11.0625 
Q 25.484375 6.203125 34.421875 6.203125 
Q 39.59375 6.203125 44.453125 7.46875 
Q 49.3125 8.734375 54.109375 11.28125 
L 54.109375 2.78125 
Q 49.265625 0.734375 44.1875 -0.34375 
Q 39.109375 -1.421875 33.890625 -1.421875 
Q 20.796875 -1.421875 13.15625 6.1875 
Q 5.515625 13.8125 5.515625 26.8125 
Q 5.515625 40.234375 12.765625 48.109375 
Q 20.015625 56 32.328125 56 
Q 43.359375 56 49.78125 48.890625 
Q 56.203125 41.796875 56.203125 29.59375 
z
M 47.21875 32.234375 
Q 47.125 39.59375 43.09375 43.984375 
Q 39.0625 48.390625 32.421875 48.390625 
Q 24.90625 48.390625 20.390625 44.140625 
Q 15.875 39.890625 15.1875 32.171875 
z
M 38.53125 79.984375 
L 48.25 79.984375 
L 32.34375 61.625 
L 24.859375 61.625 
z
" id="DejaVuSans-233"/>
      <path d="M 45.40625 46.390625 
L 45.40625 75.984375 
L 54.390625 75.984375 
L 54.390625 0 
L 45.40625 0 
L 45.40625 8.203125 
Q 42.578125 3.328125 38.25 0.953125 
Q 33.9375 -1.421875 27.875 -1.421875 
Q 17.96875 -1.421875 11.734375 6.484375 
Q 5.515625 14.40625 5.515625 27.296875 
Q 5.515625 40.1875 11.734375 48.09375 
Q 17.96875 56 27.875 56 
Q 33.9375 56 38.25 53.625 
Q 42.578125 51.265625 45.40625 46.390625 
z
M 14.796875 27.296875 
Q 14.796875 17.390625 18.875 11.75 
Q 22.953125 6.109375 30.078125 6.109375 
Q 37.203125 6.109375 41.296875 11.75 
Q 45.40625 17.390625 45.40625 27.296875 
Q 45.40625 37.203125 41.296875 42.84375 
Q 37.203125 48.484375 30.078125 48.484375 
Q 22.953125 48.484375 18.875 42.84375 
Q 14.796875 37.203125 14.796875 27.296875 
z
" id="DejaVuSans-100"/>
      <path d="M 18.3125 70.21875 
L 18.3125 54.6875 
L 36.8125 54.6875 
L 36.8125 47.703125 
L 18.3125 47.703125 
L 18.3125 18.015625 
Q 18.3125 11.328125 20.140625 9.421875 
Q 21.96875 7.515625 27.59375 7.515625 
L 36.8125 7.515625 
L 36.8125 0 
L 27.59375 0 
Q 17.1875 0 13.234375 3.875 
Q 9.28125 7.765625 9.28125 18.015625 
L 9.28125 47.703125 
L 2.6875 47.703125 
L 2.6875 54.6875 
L 9.28125 54.6875 
L 9.28125 70.21875 
z
" id="DejaVuSans-116"/>
     </defs>
     <g transform="translate(531.429688 146.299375)scale(0.1 -0.1)">
      <use transform="translate(19.482422 0.015625)" xlink:href="#DejaVuSans-8657"/>
      <use transform="translate(122.753906 0.015625)" xlink:href="#DejaVuSans-32"/>
      <use transform="translate(154.541016 0.015625)" xlink:href="#DejaVuSans-97"/>
      <use transform="translate(215.820312 0.015625)" xlink:href="#DejaVuSans-99"/>
      <use transform="translate(270.800781 0.015625)" xlink:href="#DejaVuSans-101"/>
      <use transform="translate(332.324219 0.015625)" xlink:href="#DejaVuSans-115"/>
      <use transform="translate(384.423828 0.015625)" xlink:href="#DejaVuSans-115"/>
      <use transform="translate(436.523438 0.015625)" xlink:href="#DejaVuSans-111"/>
      <use transform="translate(497.705078 0.015625)" xlink:href="#DejaVuSans-32"/>
      <use transform="translate(529.492188 0.015625)" xlink:href="#DejaVuSans-99"/>
      <use transform="translate(584.472656 0.015625)" xlink:href="#DejaVuSans-114"/>
      <use transform="translate(625.585938 0.015625)" xlink:href="#DejaVuSans-233"/>
      <use transform="translate(687.109375 0.015625)" xlink:href="#DejaVuSans-100"/>
      <use transform="translate(750.585938 0.015625)" xlink:href="#DejaVuSans-105"/>
      <use transform="translate(778.369141 0.015625)" xlink:href="#DejaVuSans-116"/>
      <use transform="translate(817.578125 0.015625)" xlink:href="#DejaVuSans-111"/>
     </g>
    </g>
    <g id="line2d_25">
     <path d="M 503.429688 157.4775 
L 523.429688 157.4775 
" style="fill:none;stroke:#ff7f0e;stroke-linecap:square;stroke-width:1.5;"/>
    </g>
    <g id="line2d_26"/>
    <g id="text_20">
     <!-- Sem renda bsica -->
     <defs>
      <path d="M 53.515625 70.515625 
L 53.515625 60.890625 
Q 47.90625 63.578125 42.921875 64.890625 
Q 37.9375 66.21875 33.296875 66.21875 
Q 25.25 66.21875 20.875 63.09375 
Q 16.5 59.96875 16.5 54.203125 
Q 16.5 49.359375 19.40625 46.890625 
Q 22.3125 44.4375 30.421875 42.921875 
L 36.375 41.703125 
Q 47.40625 39.59375 52.65625 34.296875 
Q 57.90625 29 57.90625 20.125 
Q 57.90625 9.515625 50.796875 4.046875 
Q 43.703125 -1.421875 29.984375 -1.421875 
Q 24.8125 -1.421875 18.96875 -0.25 
Q 13.140625 0.921875 6.890625 3.21875 
L 6.890625 13.375 
Q 12.890625 10.015625 18.65625 8.296875 
Q 24.421875 6.59375 29.984375 6.59375 
Q 38.421875 6.59375 43.015625 9.90625 
Q 47.609375 13.234375 47.609375 19.390625 
Q 47.609375 24.75 44.3125 27.78125 
Q 41.015625 30.8125 33.5 32.328125 
L 27.484375 33.5 
Q 16.453125 35.6875 11.515625 40.375 
Q 6.59375 45.0625 6.59375 53.421875 
Q 6.59375 63.09375 13.40625 68.65625 
Q 20.21875 74.21875 32.171875 74.21875 
Q 37.3125 74.21875 42.625 73.28125 
Q 47.953125 72.359375 53.515625 70.515625 
z
" id="DejaVuSans-83"/>
      <path d="M 48.6875 27.296875 
Q 48.6875 37.203125 44.609375 42.84375 
Q 40.53125 48.484375 33.40625 48.484375 
Q 26.265625 48.484375 22.1875 42.84375 
Q 18.109375 37.203125 18.109375 27.296875 
Q 18.109375 17.390625 22.1875 11.75 
Q 26.265625 6.109375 33.40625 6.109375 
Q 40.53125 6.109375 44.609375 11.75 
Q 48.6875 17.390625 48.6875 27.296875 
z
M 18.109375 46.390625 
Q 20.953125 51.265625 25.265625 53.625 
Q 29.59375 56 35.59375 56 
Q 45.5625 56 51.78125 48.09375 
Q 58.015625 40.1875 58.015625 27.296875 
Q 58.015625 14.40625 51.78125 6.484375 
Q 45.5625 -1.421875 35.59375 -1.421875 
Q 29.59375 -1.421875 25.265625 0.953125 
Q 20.953125 3.328125 18.109375 8.203125 
L 18.109375 0 
L 9.078125 0 
L 9.078125 75.984375 
L 18.109375 75.984375 
z
" id="DejaVuSans-98"/>
      <path d="M 34.28125 27.484375 
Q 23.390625 27.484375 19.1875 25 
Q 14.984375 22.515625 14.984375 16.5 
Q 14.984375 11.71875 18.140625 8.90625 
Q 21.296875 6.109375 26.703125 6.109375 
Q 34.1875 6.109375 38.703125 11.40625 
Q 43.21875 16.703125 43.21875 25.484375 
L 43.21875 27.484375 
z
M 52.203125 31.203125 
L 52.203125 0 
L 43.21875 0 
L 43.21875 8.296875 
Q 40.140625 3.328125 35.546875 0.953125 
Q 30.953125 -1.421875 24.3125 -1.421875 
Q 15.921875 -1.421875 10.953125 3.296875 
Q 6 8.015625 6 15.921875 
Q 6 25.140625 12.171875 29.828125 
Q 18.359375 34.515625 30.609375 34.515625 
L 43.21875 34.515625 
L 43.21875 35.40625 
Q 43.21875 41.609375 39.140625 45 
Q 35.0625 48.390625 27.6875 48.390625 
Q 23 48.390625 18.546875 47.265625 
Q 14.109375 46.140625 10.015625 43.890625 
L 10.015625 52.203125 
Q 14.9375 54.109375 19.578125 55.046875 
Q 24.21875 56 28.609375 56 
Q 40.484375 56 46.34375 49.84375 
Q 52.203125 43.703125 52.203125 31.203125 
z
M 35.78125 79.984375 
L 45.5 79.984375 
L 29.59375 61.625 
L 22.109375 61.625 
z
" id="DejaVuSans-225"/>
     </defs>
     <g transform="translate(531.429688 160.9775)scale(0.1 -0.1)">
      <use xlink:href="#DejaVuSans-83"/>
      <use x="63.476562" xlink:href="#DejaVuSans-101"/>
      <use x="125" xlink:href="#DejaVuSans-109"/>
      <use x="222.412109" xlink:href="#DejaVuSans-32"/>
      <use x="254.199219" xlink:href="#DejaVuSans-114"/>
      <use x="293.0625" xlink:href="#DejaVuSans-101"/>
      <use x="354.585938" xlink:href="#DejaVuSans-110"/>
      <use x="417.964844" xlink:href="#DejaVuSans-100"/>
      <use x="481.441406" xlink:href="#DejaVuSans-97"/>
      <use x="542.720703" xlink:href="#DejaVuSans-32"/>
      <use x="574.507812" xlink:href="#DejaVuSans-98"/>
      <use x="637.984375" xlink:href="#DejaVuSans-225"/>
      <use x="699.263672" xlink:href="#DejaVuSans-115"/>
      <use x="751.363281" xlink:href="#DejaVuSans-105"/>
      <use x="779.146484" xlink:href="#DejaVuSans-99"/>
      <use x="834.126953" xlink:href="#DejaVuSans-97"/>
     </g>
    </g>
    <g id="line2d_27">
     <path d="M 503.429688 172.155625 
L 523.429688 172.155625 
" style="fill:none;stroke:#2ca02c;stroke-linecap:square;stroke-width:1.5;"/>
    </g>
    <g id="line2d_28"/>
    <g id="text_21">
     <!-- $\Uparrow$ salrio mnimo -->
     <defs>
      <path d="M 20.65625 79.984375 
L 30.375 79.984375 
L 14.46875 61.625 
L 6.984375 61.625 
z
M 9.421875 54.6875 
L 18.40625 54.6875 
L 18.40625 0 
L 9.421875 0 
z
M 13.921875 56 
z
" id="DejaVuSans-237"/>
     </defs>
     <g transform="translate(531.429688 175.655625)scale(0.1 -0.1)">
      <use transform="translate(19.482422 0.015625)" xlink:href="#DejaVuSans-8657"/>
      <use transform="translate(122.753906 0.015625)" xlink:href="#DejaVuSans-32"/>
      <use transform="translate(154.541016 0.015625)" xlink:href="#DejaVuSans-115"/>
      <use transform="translate(206.640625 0.015625)" xlink:href="#DejaVuSans-97"/>
      <use transform="translate(267.919922 0.015625)" xlink:href="#DejaVuSans-108"/>
      <use transform="translate(295.703125 0.015625)" xlink:href="#DejaVuSans-225"/>
      <use transform="translate(356.982422 0.015625)" xlink:href="#DejaVuSans-114"/>
      <use transform="translate(398.095703 0.015625)" xlink:href="#DejaVuSans-105"/>
      <use transform="translate(425.878906 0.015625)" xlink:href="#DejaVuSans-111"/>
      <use transform="translate(487.060547 0.015625)" xlink:href="#DejaVuSans-32"/>
      <use transform="translate(518.847656 0.015625)" xlink:href="#DejaVuSans-109"/>
      <use transform="translate(616.259766 0.015625)" xlink:href="#DejaVuSans-237"/>
      <use transform="translate(644.042969 0.015625)" xlink:href="#DejaVuSans-110"/>
      <use transform="translate(707.421875 0.015625)" xlink:href="#DejaVuSans-105"/>
      <use transform="translate(735.205078 0.015625)" xlink:href="#DejaVuSans-109"/>
      <use transform="translate(832.617188 0.015625)" xlink:href="#DejaVuSans-111"/>
     </g>
    </g>
    <g id="line2d_29">
     <path d="M 503.429688 186.83375 
L 523.429688 186.83375 
" style="fill:none;stroke:#d62728;stroke-linecap:square;stroke-width:1.5;"/>
    </g>
    <g id="line2d_30"/>
    <g id="text_22">
     <!-- Imposto progressivo -->
     <defs>
      <path d="M 9.8125 72.90625 
L 19.671875 72.90625 
L 19.671875 0 
L 9.8125 0 
z
" id="DejaVuSans-73"/>
      <path d="M 45.40625 27.984375 
Q 45.40625 37.75 41.375 43.109375 
Q 37.359375 48.484375 30.078125 48.484375 
Q 22.859375 48.484375 18.828125 43.109375 
Q 14.796875 37.75 14.796875 27.984375 
Q 14.796875 18.265625 18.828125 12.890625 
Q 22.859375 7.515625 30.078125 7.515625 
Q 37.359375 7.515625 41.375 12.890625 
Q 45.40625 18.265625 45.40625 27.984375 
z
M 54.390625 6.78125 
Q 54.390625 -7.171875 48.1875 -13.984375 
Q 42 -20.796875 29.203125 -20.796875 
Q 24.46875 -20.796875 20.265625 -20.09375 
Q 16.0625 -19.390625 12.109375 -17.921875 
L 12.109375 -9.1875 
Q 16.0625 -11.328125 19.921875 -12.34375 
Q 23.78125 -13.375 27.78125 -13.375 
Q 36.625 -13.375 41.015625 -8.765625 
Q 45.40625 -4.15625 45.40625 5.171875 
L 45.40625 9.625 
Q 42.625 4.78125 38.28125 2.390625 
Q 33.9375 0 27.875 0 
Q 17.828125 0 11.671875 7.65625 
Q 5.515625 15.328125 5.515625 27.984375 
Q 5.515625 40.671875 11.671875 48.328125 
Q 17.828125 56 27.875 56 
Q 33.9375 56 38.28125 53.609375 
Q 42.625 51.21875 45.40625 46.390625 
L 45.40625 54.6875 
L 54.390625 54.6875 
z
" id="DejaVuSans-103"/>
      <path d="M 2.984375 54.6875 
L 12.5 54.6875 
L 29.59375 8.796875 
L 46.6875 54.6875 
L 56.203125 54.6875 
L 35.6875 0 
L 23.484375 0 
z
" id="DejaVuSans-118"/>
     </defs>
     <g transform="translate(531.429688 190.33375)scale(0.1 -0.1)">
      <use xlink:href="#DejaVuSans-73"/>
      <use x="29.492188" xlink:href="#DejaVuSans-109"/>
      <use x="126.904297" xlink:href="#DejaVuSans-112"/>
      <use x="190.380859" xlink:href="#DejaVuSans-111"/>
      <use x="251.5625" xlink:href="#DejaVuSans-115"/>
      <use x="303.662109" xlink:href="#DejaVuSans-116"/>
      <use x="342.871094" xlink:href="#DejaVuSans-111"/>
      <use x="404.052734" xlink:href="#DejaVuSans-32"/>
      <use x="435.839844" xlink:href="#DejaVuSans-112"/>
      <use x="499.316406" xlink:href="#DejaVuSans-114"/>
      <use x="538.179688" xlink:href="#DejaVuSans-111"/>
      <use x="599.361328" xlink:href="#DejaVuSans-103"/>
      <use x="662.837891" xlink:href="#DejaVuSans-114"/>
      <use x="701.701172" xlink:href="#DejaVuSans-101"/>
      <use x="763.224609" xlink:href="#DejaVuSans-115"/>
      <use x="815.324219" xlink:href="#DejaVuSans-115"/>
      <use x="867.423828" xlink:href="#DejaVuSans-105"/>
      <use x="895.207031" xlink:href="#DejaVuSans-118"/>
      <use x="954.386719" xlink:href="#DejaVuSans-111"/>
     </g>
    </g>
   </g>
  </g>
 </g>
 <defs>
  <clipPath id="p4556d7cdca">
   <rect height="271.8" width="446.4" x="48.029687" y="22.318125"/>
  </clipPath>
 </defs>
</svg>
