<?xml version="1.0" encoding="utf-8" standalone="no"?>
<!DOCTYPE svg PUBLIC "-//W3C//DTD SVG 1.1//EN"
  "http://www.w3.org/Graphics/SVG/1.1/DTD/svg11.dtd">
<!-- Created with matplotlib (https://matplotlib.org/) -->
<svg height="331.674375pt" version="1.1" viewBox="0 0 634.642187 331.674375" width="634.642187pt" xmlns="http://www.w3.org/2000/svg" xmlns:xlink="http://www.w3.org/1999/xlink">
 <defs>
  <style type="text/css">
*{stroke-linecap:butt;stroke-linejoin:round;}
  </style>
 </defs>
 <g id="figure_1">
  <g id="patch_1">
   <path d="M 0 331.674375 
L 634.642187 331.674375 
L 634.642187 0 
L 0 0 
z
" style="fill:#ffffff;"/>
  </g>
  <g id="axes_1">
   <g id="patch_2">
    <path d="M 38.482813 294.118125 
L 484.882812 294.118125 
L 484.882812 22.318125 
L 38.482813 22.318125 
z
" style="fill:#ffffff;"/>
   </g>
   <g id="line2d_1">
    <path clip-path="url(#pe8b8769b0e)" d="M 58.773722 248.016991 
L 59.499693 242.299089 
L 60.225665 277.696937 
L 60.951637 258.758798 
L 61.677608 230.866135 
L 62.40358 234.246998 
L 63.129552 231.519174 
L 63.855524 236.124861 
L 64.581495 252.964838 
L 65.307467 200.125833 
L 66.033439 278.99502 
L 66.75941 245.942977 
L 67.485382 226.897404 
L 68.211354 230.365588 
L 68.937325 232.818367 
L 69.663297 275.797767 
L 70.389269 204.329738 
L 71.115241 264.381832 
L 71.841212 248.911123 
L 72.567184 221.187733 
L 73.293156 266.201593 
L 74.019127 232.458821 
L 74.745099 218.497255 
L 75.471071 255.491249 
L 76.197042 253.013889 
L 76.923014 205.633646 
L 77.648986 255.06774 
L 78.374958 240.082494 
L 79.100929 263.20243 
L 79.826901 233.750364 
L 80.552873 265.803746 
L 81.278844 250.646123 
L 82.004816 208.724502 
L 82.730788 245.475779 
L 83.456759 233.866261 
L 84.182731 254.311937 
L 84.908703 237.334168 
L 85.634675 234.275919 
L 86.360646 229.036678 
L 87.086618 243.012143 
L 87.81259 216.286962 
L 89.264533 257.094203 
L 89.990505 184.592305 
L 90.716477 222.103505 
L 91.442448 153.717728 
L 92.16842 258.145993 
L 92.894392 218.884153 
L 93.620363 231.048059 
L 94.346335 221.009541 
L 95.072307 226.137407 
L 95.798278 229.344072 
L 96.52425 224.001893 
L 97.250222 224.311568 
L 97.976194 216.375638 
L 98.702165 202.945455 
L 99.428137 177.923611 
L 100.154109 243.918619 
L 100.88008 240.423058 
L 102.332024 215.62285 
L 103.057995 143.485534 
L 103.783967 258.152343 
L 104.509939 142.513893 
L 105.235911 193.296456 
L 105.961882 219.304917 
L 107.413826 208.066832 
L 108.139797 196.679374 
L 108.865769 194.455018 
L 109.591741 161.641857 
L 110.317712 253.991006 
L 111.043684 168.538549 
L 111.769656 174.76133 
L 112.495628 168.191071 
L 113.221599 186.431474 
L 113.947571 154.853915 
L 114.673543 203.832299 
L 115.399514 200.109809 
L 116.125486 172.266583 
L 116.851458 93.793806 
L 117.57743 248.789561 
L 118.303401 186.436207 
L 119.029373 187.337446 
L 119.755345 93.564068 
L 120.481316 259.875786 
L 121.207288 212.888678 
L 121.93326 237.453158 
L 122.659231 190.207017 
L 123.385203 200.812314 
L 124.111175 203.440401 
L 124.837147 183.86319 
L 125.563118 216.116264 
L 126.28909 199.329695 
L 127.015062 200.050924 
L 127.741033 209.029234 
L 128.467005 199.548754 
L 129.192977 183.131101 
L 129.918948 140.63376 
L 130.64492 234.42435 
L 131.370892 166.700685 
L 132.096864 169.796045 
L 132.822835 229.28274 
L 133.548807 183.024469 
L 134.274779 199.634807 
L 135.00075 212.75552 
L 135.726722 200.607552 
L 136.452694 206.651599 
L 137.178665 194.890713 
L 137.904637 173.479365 
L 138.630609 206.453694 
L 139.356581 201.500563 
L 140.082552 249.039706 
L 140.808524 230.295926 
L 141.534496 134.762752 
L 142.260467 168.435444 
L 142.986439 150.113702 
L 143.712411 120.51059 
L 144.438383 152.565448 
L 145.164354 209.751618 
L 145.890326 236.425334 
L 146.616298 206.948087 
L 148.068241 167.258741 
L 148.794213 175.290967 
L 149.520184 207.983413 
L 150.246156 196.256863 
L 150.972128 209.810403 
L 151.6981 269.968576 
L 152.424071 224.224341 
L 153.150043 206.480203 
L 153.876015 216.691413 
L 154.601986 207.099905 
L 155.327958 228.555719 
L 156.05393 181.769962 
L 156.779901 233.715415 
L 157.505873 221.046646 
L 158.231845 186.424377 
L 158.957817 179.188282 
L 159.683788 224.488151 
L 160.40976 196.754939 
L 161.135732 141.649556 
L 161.861703 214.885641 
L 162.587675 157.337803 
L 163.313647 221.059674 
L 164.039618 256.431966 
L 164.76559 225.384337 
L 165.491562 230.89443 
L 166.217534 221.169122 
L 166.943505 167.367078 
L 167.669477 164.026634 
L 168.395449 171.660667 
L 169.12142 189.810208 
L 169.847392 203.633631 
L 170.573364 264.653968 
L 171.299336 215.67028 
L 172.025307 253.527391 
L 172.751279 194.036043 
L 173.477251 217.181345 
L 174.203222 197.578933 
L 174.929194 228.325756 
L 175.655166 215.910842 
L 176.381137 218.104601 
L 177.107109 241.942143 
L 177.833081 185.958077 
L 178.559053 206.431936 
L 179.285024 217.978711 
L 180.010996 203.515864 
L 180.736968 246.431107 
L 181.462939 266.86357 
L 182.188911 247.601112 
L 182.914883 237.56779 
L 183.640854 246.662893 
L 184.366826 260.590865 
L 185.81877 218.946642 
L 186.544741 234.171367 
L 187.270713 244.698036 
L 187.996685 244.884724 
L 188.722656 232.370947 
L 189.448628 240.030118 
L 190.1746 275.847511 
L 190.900571 235.971021 
L 191.626543 274.487745 
L 193.078487 233.770333 
L 193.804458 262.703518 
L 194.53043 270.060615 
L 195.256402 256.918369 
L 195.982373 254.613443 
L 196.708345 216.25379 
L 197.434317 250.772667 
L 198.160289 279.705359 
L 198.88626 267.532165 
L 199.612232 250.273959 
L 200.338204 215.098056 
L 201.064175 276.368039 
L 201.790147 244.734975 
L 202.516119 268.772478 
L 203.24209 249.098853 
L 203.968062 224.174341 
L 204.694034 268.733801 
L 205.420006 262.33388 
L 206.145977 218.486158 
L 206.871949 269.95963 
L 207.597921 251.087469 
L 208.323892 225.414719 
L 209.775836 196.724667 
L 210.501807 251.485109 
L 211.227779 211.544735 
L 211.953751 220.54846 
L 212.679723 227.56452 
L 213.405694 246.660711 
L 214.131666 240.548558 
L 214.857638 194.288808 
L 215.583609 173.272004 
L 216.309581 198.444766 
L 217.035553 211.950078 
L 217.761524 159.689739 
L 218.487496 192.476312 
L 219.213468 196.426277 
L 219.93944 162.542613 
L 220.665411 203.296642 
L 221.391383 160.247683 
L 222.117355 195.266056 
L 222.843326 202.167595 
L 223.569298 198.232545 
L 224.29527 189.836549 
L 225.021242 175.536406 
L 225.747213 196.677076 
L 226.473185 199.691566 
L 227.199157 192.179299 
L 227.925128 187.150489 
L 228.6511 197.720932 
L 229.377072 194.762579 
L 230.103043 152.332947 
L 230.829015 180.834229 
L 231.554987 247.671638 
L 232.280959 125.628079 
L 233.00693 180.47266 
L 233.732902 188.474078 
L 234.458874 201.629286 
L 235.184845 176.261688 
L 235.910817 221.132669 
L 236.636789 175.668547 
L 237.36276 154.73835 
L 238.088732 216.309512 
L 238.814704 208.487381 
L 239.540676 199.042632 
L 240.266647 196.623436 
L 240.992619 216.635849 
L 241.718591 183.870357 
L 242.444562 198.848573 
L 243.170534 147.965599 
L 243.896506 223.368866 
L 244.622477 175.75943 
L 245.348449 226.767997 
L 246.074421 166.649554 
L 246.800393 160.486114 
L 247.526364 227.485003 
L 248.252336 159.861242 
L 248.978308 213.331293 
L 249.704279 236.416916 
L 250.430251 200.460855 
L 251.156223 224.152427 
L 251.882195 227.549133 
L 252.608166 177.017148 
L 253.334138 209.330526 
L 254.06011 177.446516 
L 254.786081 193.568197 
L 255.512053 243.110915 
L 256.238025 222.895397 
L 256.963996 211.270024 
L 257.689968 174.739782 
L 258.41594 249.769204 
L 259.141912 210.248453 
L 259.867883 223.263389 
L 260.593855 232.717399 
L 261.319827 221.622161 
L 262.045798 238.352583 
L 262.77177 212.185761 
L 263.497742 190.587428 
L 264.223713 230.068321 
L 264.949685 207.798437 
L 265.675657 222.249808 
L 266.401629 201.328465 
L 267.1276 248.086333 
L 267.853572 216.447267 
L 268.579544 217.407759 
L 269.305515 245.23097 
L 270.031487 173.570626 
L 270.757459 227.954371 
L 271.48343 216.984557 
L 272.209402 190.429654 
L 272.935374 217.686512 
L 273.661346 214.653006 
L 274.387317 237.639739 
L 275.113289 215.542337 
L 275.839261 197.22092 
L 276.565232 233.479243 
L 277.291204 211.629502 
L 278.017176 226.904021 
L 278.743148 219.908984 
L 279.469119 224.588758 
L 280.195091 154.785498 
L 280.921063 207.042973 
L 281.647034 234.572531 
L 282.373006 175.765723 
L 283.098978 252.411304 
L 283.824949 191.051875 
L 284.550921 215.01686 
L 285.276893 245.218834 
L 286.002865 195.513393 
L 286.728836 239.954583 
L 287.454808 233.725024 
L 288.18078 229.630381 
L 288.906751 203.689694 
L 289.632723 222.033346 
L 290.358695 178.130721 
L 291.084666 219.441985 
L 291.810638 180.171249 
L 292.53661 205.137568 
L 293.262582 214.750191 
L 293.988553 227.738748 
L 294.714525 210.077351 
L 295.440497 227.288708 
L 296.166468 182.777317 
L 296.89244 222.335387 
L 297.618412 183.266268 
L 298.344383 207.258955 
L 299.070355 175.444856 
L 299.796327 203.481709 
L 300.522299 188.746329 
L 301.24827 262.663053 
L 301.974242 178.590674 
L 302.700214 213.439084 
L 303.426185 189.726654 
L 304.152157 208.446365 
L 304.878129 166.651381 
L 305.604101 219.845089 
L 306.330072 241.266072 
L 307.056044 219.295094 
L 307.782016 249.607867 
L 308.507987 233.586395 
L 309.233959 242.572859 
L 309.959931 231.950358 
L 310.685902 240.785919 
L 311.411874 237.072229 
L 312.137846 234.00615 
L 312.863818 210.9886 
L 313.589789 227.78886 
L 314.315761 210.735122 
L 315.041733 206.314848 
L 315.767704 233.574288 
L 316.493676 230.579141 
L 317.219648 236.681021 
L 317.945619 244.491202 
L 318.671591 231.088163 
L 319.397563 231.46569 
L 320.123535 213.290564 
L 320.849506 233.449127 
L 321.575478 211.599564 
L 322.30145 268.070043 
L 323.027421 247.286911 
L 323.753393 241.992192 
L 324.479365 239.793917 
L 325.205336 234.011443 
L 326.65728 262.373284 
L 327.383252 239.302289 
L 328.109223 223.377684 
L 328.835195 251.366479 
L 329.561167 217.671276 
L 330.287138 266.812093 
L 331.01311 223.336454 
L 331.739082 240.995193 
L 332.465054 253.093917 
L 333.191025 234.722854 
L 333.916997 225.173857 
L 334.642969 258.361906 
L 336.094912 226.196138 
L 336.820884 241.262419 
L 337.546855 237.502296 
L 338.272827 239.308441 
L 338.998799 240.38375 
L 339.724771 238.160571 
L 340.450742 215.236468 
L 341.176714 240.762228 
L 341.902686 245.31916 
L 342.628657 233.334563 
L 343.354629 237.162418 
L 344.080601 222.83566 
L 344.806572 211.209806 
L 345.532544 231.643512 
L 346.258516 243.48407 
L 346.984488 204.56689 
L 347.710459 251.658078 
L 348.436431 226.538018 
L 349.162403 243.213056 
L 349.888374 214.737846 
L 350.614346 236.160259 
L 351.340318 224.433802 
L 352.066289 228.460785 
L 352.792261 231.00563 
L 353.518233 212.052722 
L 354.244205 200.507666 
L 355.696148 233.927137 
L 356.42212 195.56472 
L 357.148091 210.381862 
L 357.874063 215.893375 
L 358.600035 208.801142 
L 359.326007 208.797842 
L 360.051978 191.052209 
L 360.77795 183.783154 
L 361.503922 205.115467 
L 362.229893 222.053502 
L 362.955865 199.092802 
L 363.681837 169.470454 
L 364.407808 203.519922 
L 365.13378 199.574714 
L 365.859752 199.199885 
L 366.585724 196.459885 
L 367.311695 201.289213 
L 368.037667 202.319666 
L 368.763639 188.681705 
L 369.48961 224.612649 
L 370.215582 195.408955 
L 370.941554 225.994001 
L 371.667525 194.515406 
L 372.393497 205.501745 
L 373.119469 195.227108 
L 373.845441 206.492413 
L 374.571412 201.170162 
L 375.297384 190.449748 
L 376.023356 221.918434 
L 376.749327 180.793362 
L 377.475299 183.009479 
L 378.201271 195.783503 
L 378.927242 211.794586 
L 379.653214 199.948847 
L 380.379186 192.08531 
L 381.105158 174.272905 
L 381.831129 194.495449 
L 382.557101 198.552445 
L 383.283073 189.219553 
L 384.009044 166.076744 
L 384.735016 188.712326 
L 385.460988 171.033818 
L 386.18696 201.097192 
L 386.912931 212.481802 
L 387.638903 166.829476 
L 388.364875 193.828794 
L 389.090846 176.64866 
L 389.816818 198.603096 
L 390.54279 195.190172 
L 391.268761 208.231378 
L 391.994733 182.21569 
L 392.720705 183.390499 
L 393.446677 186.71648 
L 394.172648 175.195435 
L 394.89862 193.854305 
L 395.624592 194.241755 
L 396.350563 197.116707 
L 397.076535 202.05943 
L 397.802507 176.91393 
L 398.528478 185.165359 
L 399.25445 185.845791 
L 399.980422 190.111374 
L 400.706394 188.682748 
L 401.432365 184.597836 
L 402.158337 186.135365 
L 402.884309 201.005964 
L 403.61028 188.363368 
L 404.336252 201.818689 
L 405.062224 192.011039 
L 405.788195 202.486703 
L 406.514167 190.482171 
L 407.240139 208.682829 
L 407.966111 207.991049 
L 408.692082 213.017078 
L 409.418054 217.096947 
L 410.144026 205.922808 
L 410.869997 229.31735 
L 411.595969 205.334676 
L 412.321941 211.758273 
L 413.047913 235.785747 
L 413.773884 210.961847 
L 414.499856 218.116917 
L 415.225828 217.628127 
L 415.951799 218.291591 
L 416.677771 212.368891 
L 417.403743 239.794508 
L 418.129714 220.234526 
L 418.855686 227.694356 
L 419.581658 237.717818 
L 420.30763 226.035505 
L 421.033601 230.167256 
L 421.759573 225.161949 
L 422.485545 244.622945 
L 423.211516 240.007746 
L 423.937488 244.0299 
L 424.66346 243.184227 
L 425.389431 245.805078 
L 426.115403 247.220351 
L 426.841375 246.713359 
L 427.567347 246.990556 
L 428.293318 247.420288 
L 429.01929 251.299258 
L 429.745262 248.964125 
L 430.471233 250.845188 
L 431.197205 248.26539 
L 431.923177 250.781303 
L 432.649148 251.036386 
L 433.37512 248.711652 
L 434.101092 247.369063 
L 434.827064 251.981143 
L 435.553035 249.201005 
L 436.279007 242.068988 
L 437.004979 246.884627 
L 437.73095 241.610133 
L 438.456922 245.302251 
L 439.182894 240.270911 
L 439.908866 243.682919 
L 440.634837 249.234599 
L 441.360809 239.928631 
L 442.086781 242.748391 
L 442.812752 236.851328 
L 443.538724 239.022061 
L 444.264696 233.449136 
L 444.990667 236.291916 
L 445.716639 227.526325 
L 446.442611 231.960026 
L 447.168583 225.538019 
L 447.894554 224.21976 
L 448.620526 226.530426 
L 449.346498 226.12802 
L 450.072469 225.288278 
L 450.798441 228.029881 
L 451.524413 222.895481 
L 452.250384 223.742359 
L 452.976356 220.200177 
L 453.702328 217.733014 
L 454.4283 215.74888 
L 455.154271 219.202265 
L 455.880243 208.891651 
L 456.606215 211.83248 
L 457.332186 211.467935 
L 458.058158 209.470138 
L 458.78413 209.722161 
L 459.510101 212.240212 
L 460.236073 206.031413 
L 460.962045 206.730641 
L 461.688017 200.781037 
L 462.413988 207.055615 
L 463.13996 206.985085 
L 463.865932 201.973318 
L 464.591903 201.538183 
L 464.591903 201.538183 
" style="fill:none;stroke:#1f77b4;stroke-linecap:square;stroke-width:1.5;"/>
   </g>
   <g id="line2d_2">
    <path clip-path="url(#pe8b8769b0e)" d="M 58.773722 227.537777 
L 59.499693 165.88719 
L 60.225665 263.928337 
L 60.951637 204.293259 
L 61.677608 101.650015 
L 62.40358 220.809812 
L 63.129552 165.660102 
L 63.855524 210.330304 
L 64.581495 34.67267 
L 65.307467 190.127128 
L 66.033439 246.607261 
L 66.75941 183.241377 
L 68.211354 207.63263 
L 68.937325 195.960773 
L 69.663297 136.12752 
L 70.389269 139.96866 
L 71.841212 260.468553 
L 72.567184 180.729337 
L 73.293156 258.122843 
L 74.019127 90.493463 
L 74.745099 209.771973 
L 75.471071 144.989909 
L 76.197042 196.760079 
L 76.923014 197.010183 
L 77.648986 177.946239 
L 78.374958 233.507421 
L 79.100929 228.390484 
L 79.826901 209.573542 
L 80.552873 241.856742 
L 81.278844 227.592285 
L 82.004816 207.841955 
L 82.730788 224.636889 
L 83.456759 235.606962 
L 84.182731 241.704914 
L 84.908703 252.75695 
L 85.634675 235.068602 
L 86.360646 226.850881 
L 87.086618 232.635736 
L 87.81259 228.616514 
L 88.538561 236.064188 
L 89.264533 269.619699 
L 89.990505 159.907116 
L 90.716477 225.339261 
L 91.442448 210.09308 
L 92.16842 243.921427 
L 92.894392 138.747233 
L 93.620363 242.830797 
L 94.346335 157.980509 
L 95.072307 213.826158 
L 95.798278 188.967473 
L 96.52425 197.82507 
L 97.250222 208.357637 
L 97.976194 150.359571 
L 98.702165 188.313681 
L 99.428137 171.82727 
L 100.154109 262.640769 
L 100.88008 114.443986 
L 101.606052 229.628071 
L 102.332024 208.298806 
L 103.057995 206.849278 
L 103.783967 250.497271 
L 104.509939 206.424183 
L 105.235911 199.459765 
L 105.961882 249.059748 
L 106.687854 241.988017 
L 107.413826 211.536159 
L 108.139797 106.013996 
L 108.865769 165.761076 
L 109.591741 199.677691 
L 110.317712 245.730326 
L 111.043684 251.473856 
L 111.769656 241.610152 
L 112.495628 229.824271 
L 113.221599 214.702642 
L 113.947571 205.09167 
L 114.673543 211.350767 
L 115.399514 242.381865 
L 116.125486 195.503237 
L 116.851458 225.399525 
L 117.57743 266.013287 
L 118.303401 106.574708 
L 119.029373 161.386282 
L 119.755345 171.300701 
L 120.481316 272.213988 
L 121.207288 254.599417 
L 121.93326 256.57366 
L 122.659231 226.808709 
L 123.385203 229.302799 
L 124.111175 208.922642 
L 124.837147 239.224465 
L 125.563118 245.516532 
L 126.28909 257.819243 
L 127.015062 238.511014 
L 127.741033 245.992401 
L 128.467005 173.484243 
L 129.192977 215.421725 
L 129.918948 231.385519 
L 130.64492 253.332702 
L 131.370892 34.8031 
L 132.096864 228.6628 
L 132.822835 249.855693 
L 133.548807 217.630396 
L 134.274779 268.047426 
L 135.00075 228.178716 
L 135.726722 235.543285 
L 136.452694 208.540222 
L 137.178665 175.090947 
L 137.904637 224.080102 
L 138.630609 217.310503 
L 139.356581 218.120068 
L 140.082552 273.965281 
L 140.808524 246.071269 
L 141.534496 241.680778 
L 142.260467 240.451412 
L 142.986439 77.713157 
L 143.712411 200.842687 
L 144.438383 78.13467 
L 145.164354 214.605075 
L 145.890326 247.378411 
L 146.616298 216.831499 
L 147.342269 217.926029 
L 148.068241 168.264142 
L 148.794213 162.724682 
L 149.520184 226.070808 
L 150.246156 211.653831 
L 150.972128 206.391815 
L 151.6981 264.653924 
L 152.424071 218.807419 
L 153.150043 227.291018 
L 153.876015 229.287788 
L 154.601986 210.162882 
L 155.327958 139.910512 
L 156.05393 205.197713 
L 156.779901 172.759799 
L 157.505873 209.072449 
L 158.231845 217.858506 
L 158.957817 207.46338 
L 159.683788 144.065386 
L 160.40976 152.173133 
L 161.135732 198.094817 
L 161.861703 232.65902 
L 162.587675 207.691115 
L 163.313647 209.461762 
L 164.039618 260.51256 
L 164.76559 227.026691 
L 165.491562 209.652668 
L 166.217534 149.810819 
L 166.943505 232.936813 
L 167.669477 213.28138 
L 168.395449 213.971171 
L 169.12142 227.279361 
L 169.847392 210.047369 
L 170.573364 239.631897 
L 171.299336 174.417841 
L 172.025307 250.078501 
L 172.751279 183.313908 
L 173.477251 208.771352 
L 174.203222 229.640464 
L 174.929194 233.339232 
L 176.381137 212.055615 
L 177.107109 208.931936 
L 177.833081 227.98743 
L 178.559053 225.101169 
L 179.285024 227.937084 
L 180.010996 224.177577 
L 180.736968 251.197465 
L 181.462939 270.030678 
L 182.188911 217.618207 
L 182.914883 216.448041 
L 183.640854 242.34155 
L 184.366826 261.368528 
L 185.092798 243.694191 
L 185.81877 180.607214 
L 186.544741 248.11008 
L 187.270713 238.11337 
L 187.996685 233.857066 
L 188.722656 235.3777 
L 189.448628 251.579234 
L 190.1746 275.021288 
L 190.900571 250.381146 
L 191.626543 280.956316 
L 192.352515 213.270814 
L 193.078487 230.384663 
L 193.804458 234.160127 
L 194.53043 262.295488 
L 195.256402 238.184596 
L 195.982373 241.287755 
L 196.708345 242.318852 
L 197.434317 224.149058 
L 198.160289 272.092068 
L 198.88626 270.893001 
L 199.612232 245.054533 
L 200.338204 236.908087 
L 201.064175 277.712887 
L 201.790147 265.679083 
L 202.516119 276.61361 
L 203.24209 259.541459 
L 203.968062 264.374635 
L 204.694034 263.387058 
L 205.420006 212.257979 
L 206.145977 256.088708 
L 206.871949 205.808084 
L 207.597921 246.147723 
L 208.323892 244.493334 
L 209.049864 214.943894 
L 209.775836 234.839529 
L 210.501807 245.099898 
L 211.227779 223.351242 
L 211.953751 98.524041 
L 212.679723 237.811305 
L 213.405694 232.256755 
L 214.131666 179.488753 
L 214.857638 148.257883 
L 215.583609 189.190277 
L 216.309581 207.597124 
L 217.035553 127.42938 
L 217.761524 203.81949 
L 218.487496 208.68996 
L 219.213468 229.359836 
L 219.93944 187.680726 
L 220.665411 186.543872 
L 221.391383 217.567515 
L 222.117355 204.388225 
L 222.843326 210.193274 
L 223.569298 230.928169 
L 224.29527 80.481258 
L 225.021242 202.606967 
L 225.747213 219.229297 
L 226.473185 215.414995 
L 227.199157 199.505493 
L 227.925128 228.925235 
L 228.6511 222.066436 
L 230.103043 189.525748 
L 230.829015 208.012197 
L 231.554987 234.455243 
L 232.280959 207.212002 
L 233.00693 224.287424 
L 233.732902 196.201849 
L 234.458874 113.007272 
L 235.184845 117.78217 
L 235.910817 192.699551 
L 236.636789 70.213117 
L 237.36276 191.53532 
L 238.088732 189.490633 
L 238.814704 195.450857 
L 239.540676 214.37874 
L 240.266647 155.833455 
L 240.992619 208.668208 
L 241.718591 190.195403 
L 242.444562 215.105588 
L 243.170534 185.665188 
L 243.896506 129.372292 
L 244.622477 138.917088 
L 245.348449 214.041767 
L 246.074421 190.929047 
L 246.800393 179.911762 
L 247.526364 197.323297 
L 248.252336 156.460874 
L 248.978308 199.558158 
L 249.704279 234.872903 
L 250.430251 201.338813 
L 251.156223 200.517546 
L 251.882195 187.791112 
L 252.608166 200.94603 
L 253.334138 201.949065 
L 254.06011 201.559434 
L 254.786081 197.51676 
L 255.512053 221.756204 
L 256.238025 236.2299 
L 256.963996 212.360293 
L 257.689968 229.227364 
L 258.41594 252.270255 
L 259.141912 210.894162 
L 259.867883 213.593573 
L 260.593855 243.68012 
L 261.319827 228.145908 
L 262.045798 238.061811 
L 262.77177 195.133611 
L 263.497742 216.208347 
L 264.223713 210.473806 
L 264.949685 214.013043 
L 265.675657 233.077815 
L 266.401629 221.501376 
L 267.1276 216.193365 
L 267.853572 225.097752 
L 268.579544 228.439927 
L 269.305515 236.705495 
L 270.031487 163.920393 
L 271.48343 220.634471 
L 272.209402 224.150968 
L 272.935374 231.968338 
L 273.661346 250.281544 
L 274.387317 174.745362 
L 275.113289 236.310485 
L 275.839261 212.476872 
L 276.565232 235.273464 
L 277.291204 230.836347 
L 278.017176 228.183187 
L 278.743148 233.931564 
L 279.469119 240.589951 
L 280.195091 228.185382 
L 280.921063 232.60275 
L 281.647034 260.487889 
L 282.373006 225.35731 
L 283.098978 258.840126 
L 283.824949 235.118187 
L 284.550921 236.169395 
L 285.276893 200.903112 
L 286.002865 200.748538 
L 286.728836 228.846312 
L 287.454808 235.666102 
L 288.18078 217.337205 
L 288.906751 204.661504 
L 289.632723 228.314023 
L 290.358695 221.983295 
L 291.084666 220.637716 
L 291.810638 213.896332 
L 292.53661 228.845086 
L 293.262582 172.334343 
L 293.988553 232.916217 
L 294.714525 220.017258 
L 295.440497 233.161219 
L 296.166468 210.521858 
L 296.89244 214.249833 
L 297.618412 209.316613 
L 298.344383 215.193041 
L 299.070355 203.24596 
L 299.796327 220.717476 
L 300.522299 224.584768 
L 301.24827 271.484128 
L 301.974242 234.234578 
L 302.700214 230.560328 
L 303.426185 237.726917 
L 304.152157 154.434328 
L 304.878129 226.893003 
L 305.604101 185.719717 
L 306.330072 234.116593 
L 307.056044 199.66553 
L 307.782016 240.731096 
L 308.507987 240.139602 
L 309.233959 217.409087 
L 309.959931 229.930584 
L 310.685902 229.039325 
L 311.411874 225.20756 
L 312.137846 227.525758 
L 312.863818 236.325698 
L 313.589789 226.00156 
L 314.315761 228.673413 
L 315.041733 169.361042 
L 315.767704 234.189221 
L 316.493676 224.010293 
L 317.219648 220.860439 
L 317.945619 260.964426 
L 319.397563 179.385252 
L 320.123535 198.453732 
L 320.849506 226.284525 
L 321.575478 209.366571 
L 322.30145 259.468985 
L 323.027421 249.065192 
L 323.753393 192.026184 
L 324.479365 231.963099 
L 325.205336 233.348901 
L 325.931308 253.924307 
L 326.65728 247.495604 
L 327.383252 247.086337 
L 328.109223 195.261516 
L 328.835195 250.676292 
L 329.561167 229.688666 
L 330.287138 258.972763 
L 331.01311 221.978816 
L 331.739082 199.975333 
L 332.465054 225.618709 
L 333.191025 187.26497 
L 333.916997 229.096381 
L 334.642969 250.603763 
L 335.36894 244.758058 
L 336.094912 232.972012 
L 336.820884 212.758237 
L 337.546855 248.926736 
L 338.272827 199.123139 
L 338.998799 243.462024 
L 339.724771 227.911412 
L 341.902686 244.867372 
L 342.628657 227.975038 
L 343.354629 188.80491 
L 344.080601 248.699531 
L 344.806572 193.28428 
L 345.532544 196.39303 
L 346.258516 213.629258 
L 346.984488 214.316058 
L 347.710459 195.335794 
L 348.436431 207.659893 
L 349.162403 203.456144 
L 349.888374 202.726835 
L 350.614346 202.370587 
L 351.340318 202.474212 
L 352.066289 212.377579 
L 352.792261 211.893089 
L 353.518233 192.171624 
L 354.244205 210.815954 
L 354.970176 210.231386 
L 355.696148 206.95508 
L 356.42212 188.235209 
L 357.148091 200.130069 
L 357.874063 192.900952 
L 358.600035 197.824822 
L 359.326007 200.394835 
L 360.051978 204.872971 
L 360.77795 167.635785 
L 361.503922 166.986269 
L 362.229893 223.90568 
L 362.955865 192.033638 
L 363.681837 200.309023 
L 364.407808 189.320593 
L 365.13378 204.975643 
L 365.859752 191.752979 
L 367.311695 205.82889 
L 368.037667 206.936734 
L 368.763639 205.849046 
L 369.48961 201.411859 
L 370.215582 202.40111 
L 370.941554 197.858781 
L 371.667525 205.181549 
L 372.393497 205.97543 
L 373.119469 203.953816 
L 373.845441 207.081049 
L 374.571412 202.970758 
L 375.297384 208.217823 
L 376.023356 226.819656 
L 376.749327 202.198179 
L 377.475299 194.744383 
L 378.927242 230.704845 
L 379.653214 208.739112 
L 380.379186 200.257214 
L 381.105158 197.468655 
L 381.831129 212.938249 
L 382.557101 208.986172 
L 383.283073 203.405345 
L 384.009044 200.074514 
L 384.735016 223.011869 
L 385.460988 216.639704 
L 386.18696 200.835649 
L 386.912931 215.698578 
L 387.638903 204.577004 
L 388.364875 213.962008 
L 389.090846 205.943344 
L 389.816818 215.298036 
L 390.54279 217.813768 
L 391.268761 226.117507 
L 391.994733 218.244245 
L 392.720705 220.716209 
L 393.446677 224.877946 
L 394.172648 222.14177 
L 394.89862 206.776159 
L 395.624592 230.992545 
L 396.350563 231.13153 
L 397.076535 227.87101 
L 397.802507 223.820254 
L 398.528478 230.458989 
L 399.25445 210.901512 
L 399.980422 215.317068 
L 400.706394 216.09709 
L 401.432365 221.737053 
L 402.158337 220.289211 
L 402.884309 237.674786 
L 403.61028 225.594746 
L 404.336252 211.361998 
L 405.062224 214.935257 
L 405.788195 211.981166 
L 406.514167 221.067876 
L 407.240139 211.958211 
L 407.966111 211.437407 
L 408.692082 225.895335 
L 409.418054 237.914729 
L 410.144026 213.250872 
L 410.869997 241.607041 
L 411.595969 227.571326 
L 412.321941 229.496281 
L 413.047913 228.54989 
L 413.773884 229.658198 
L 414.499856 228.216504 
L 415.225828 234.712875 
L 415.951799 216.51835 
L 416.677771 215.703384 
L 417.403743 239.245467 
L 418.129714 217.177816 
L 418.855686 229.161407 
L 419.581658 234.36752 
L 420.30763 221.019759 
L 421.033601 232.399998 
L 421.759573 226.929649 
L 422.485545 243.558873 
L 423.211516 233.014974 
L 423.937488 242.716416 
L 424.66346 234.874618 
L 425.389431 234.890103 
L 426.115403 235.992454 
L 426.841375 233.232511 
L 427.567347 234.708898 
L 428.293318 234.458494 
L 429.01929 234.463758 
L 429.745262 234.720022 
L 430.471233 235.879324 
L 431.197205 232.376647 
L 431.923177 234.684289 
L 432.649148 235.051589 
L 433.37512 234.843923 
L 434.101092 235.324001 
L 434.827064 241.146634 
L 435.553035 232.635907 
L 436.279007 227.126974 
L 437.004979 231.13656 
L 437.73095 224.403308 
L 438.456922 227.122063 
L 439.182894 221.18943 
L 439.908866 225.355903 
L 440.634837 227.880353 
L 441.360809 221.982107 
L 442.086781 223.760484 
L 442.812752 223.013356 
L 443.538724 221.286136 
L 444.264696 222.785533 
L 444.990667 219.326209 
L 445.716639 219.113196 
L 446.442611 218.619344 
L 447.168583 217.989909 
L 447.894554 217.870324 
L 448.620526 215.699314 
L 449.346498 220.623602 
L 450.072469 215.890956 
L 450.798441 213.342845 
L 451.524413 214.214682 
L 452.250384 216.984268 
L 453.702328 211.978523 
L 454.4283 213.85653 
L 455.154271 212.843144 
L 455.880243 211.012429 
L 456.606215 214.647068 
L 457.332186 209.817044 
L 458.058158 211.403274 
L 458.78413 211.015882 
L 459.510101 208.945597 
L 460.236073 209.019122 
L 460.962045 208.692803 
L 461.688017 208.569403 
L 462.413988 208.900423 
L 463.13996 207.483418 
L 463.865932 206.602546 
L 464.591903 206.109281 
L 464.591903 206.109281 
" style="fill:none;stroke:#ff7f0e;stroke-linecap:square;stroke-width:1.5;"/>
   </g>
   <g id="line2d_3">
    <path clip-path="url(#pe8b8769b0e)" d="M 58.773722 238.872922 
L 59.499693 205.912559 
L 60.225665 243.316179 
L 60.951637 231.584048 
L 61.677608 238.5922 
L 62.40358 236.138193 
L 63.129552 209.633593 
L 63.855524 223.127412 
L 64.581495 213.525807 
L 65.307467 220.52295 
L 66.033439 272.341963 
L 66.75941 220.15645 
L 67.485382 244.117271 
L 68.211354 241.63965 
L 68.937325 174.803683 
L 69.663297 276.938742 
L 70.389269 223.173835 
L 71.115241 251.838558 
L 71.841212 246.352061 
L 72.567184 232.976368 
L 73.293156 252.228393 
L 74.019127 237.85822 
L 74.745099 237.141965 
L 75.471071 244.893236 
L 76.197042 247.219152 
L 76.923014 237.747987 
L 77.648986 247.479738 
L 78.374958 248.096193 
L 79.100929 263.706364 
L 79.826901 241.709081 
L 80.552873 270.496943 
L 81.278844 263.046868 
L 82.004816 231.321614 
L 82.730788 251.75235 
L 83.456759 242.387044 
L 84.182731 269.744205 
L 84.908703 264.512709 
L 85.634675 246.591164 
L 86.360646 233.712218 
L 87.086618 226.519398 
L 87.81259 245.849529 
L 88.538561 184.58414 
L 89.264533 271.537932 
L 89.990505 176.253422 
L 90.716477 225.086071 
L 91.442448 225.63447 
L 92.16842 245.988073 
L 92.894392 186.012299 
L 93.620363 244.120499 
L 94.346335 182.561974 
L 95.072307 221.158003 
L 95.798278 186.710591 
L 96.52425 200.332655 
L 97.250222 205.899685 
L 97.976194 172.160962 
L 98.702165 172.261839 
L 99.428137 175.91824 
L 100.154109 246.100272 
L 101.606052 202.738625 
L 102.332024 154.385673 
L 103.057995 200.613621 
L 103.783967 200.517071 
L 104.509939 160.113577 
L 105.235911 210.292832 
L 105.961882 208.616961 
L 106.687854 233.570524 
L 107.413826 181.532255 
L 108.139797 181.401254 
L 108.865769 190.650075 
L 109.591741 138.245464 
L 110.317712 247.151031 
L 111.043684 181.618019 
L 111.769656 206.625755 
L 112.495628 179.394882 
L 113.221599 182.770281 
L 113.947571 175.563846 
L 114.673543 210.353737 
L 115.399514 212.694253 
L 116.125486 182.569171 
L 116.851458 130.84107 
L 117.57743 252.171883 
L 118.303401 193.305962 
L 119.029373 187.6572 
L 119.755345 112.844923 
L 120.481316 261.429513 
L 121.207288 227.502421 
L 121.93326 223.801408 
L 122.659231 156.031774 
L 123.385203 181.233606 
L 124.111175 212.09799 
L 124.837147 164.988747 
L 125.563118 246.696372 
L 126.28909 191.385747 
L 127.015062 171.284491 
L 127.741033 200.781223 
L 128.467005 240.303435 
L 129.192977 148.702534 
L 129.918948 189.555762 
L 130.64492 219.548307 
L 131.370892 138.618596 
L 132.096864 165.625935 
L 132.822835 248.253967 
L 133.548807 188.793758 
L 134.274779 242.751239 
L 135.00075 169.714417 
L 135.726722 172.330167 
L 136.452694 205.121745 
L 137.178665 141.408099 
L 137.904637 194.416935 
L 138.630609 177.869657 
L 139.356581 186.017658 
L 140.082552 229.640243 
L 140.808524 231.423488 
L 141.534496 205.498708 
L 142.260467 204.082261 
L 142.986439 191.668936 
L 143.712411 188.455243 
L 144.438383 172.804552 
L 145.164354 231.870956 
L 145.890326 258.015026 
L 146.616298 218.511067 
L 147.342269 134.453263 
L 148.068241 200.626745 
L 148.794213 230.108676 
L 149.520184 226.168042 
L 150.246156 206.80199 
L 150.972128 228.13073 
L 151.6981 277.502035 
L 152.424071 255.904763 
L 153.876015 185.725301 
L 154.601986 227.385644 
L 155.327958 200.44268 
L 156.05393 236.023673 
L 156.779901 202.500178 
L 157.505873 213.795231 
L 158.231845 235.288706 
L 158.957817 227.155099 
L 159.683788 228.779956 
L 160.40976 225.395185 
L 161.135732 219.280136 
L 161.861703 256.901916 
L 162.587675 232.264439 
L 163.313647 243.537526 
L 164.039618 281.76358 
L 164.76559 244.956658 
L 165.491562 238.764119 
L 166.217534 229.215969 
L 166.943505 232.825291 
L 167.669477 208.657697 
L 168.395449 220.264299 
L 169.12142 196.638003 
L 169.847392 239.325013 
L 170.573364 265.041436 
L 171.299336 224.490745 
L 172.025307 278.79324 
L 172.751279 225.491851 
L 173.477251 235.136993 
L 174.203222 185.846174 
L 174.929194 257.640934 
L 175.655166 204.245956 
L 176.381137 210.786732 
L 177.107109 240.314527 
L 178.559053 208.467299 
L 179.285024 204.38711 
L 180.736968 231.225948 
L 181.462939 261.448724 
L 182.188911 237.598418 
L 182.914883 224.446287 
L 183.640854 217.994766 
L 184.366826 255.793036 
L 185.092798 230.399038 
L 185.81877 176.116042 
L 186.544741 212.708845 
L 187.270713 207.386748 
L 187.996685 214.478905 
L 188.722656 207.238198 
L 189.448628 230.863194 
L 190.1746 235.308924 
L 190.900571 219.295194 
L 191.626543 235.909624 
L 193.078487 218.94674 
L 193.804458 231.895685 
L 194.53043 227.212811 
L 195.256402 226.012557 
L 195.982373 214.38357 
L 196.708345 198.57039 
L 197.434317 213.664291 
L 198.160289 252.784872 
L 198.88626 243.725046 
L 199.612232 226.997009 
L 200.338204 224.337328 
L 201.064175 231.571203 
L 201.790147 247.069539 
L 202.516119 223.398277 
L 203.24209 235.605544 
L 203.968062 217.102028 
L 204.694034 226.951134 
L 205.420006 240.327522 
L 206.145977 210.306361 
L 206.871949 240.214941 
L 207.597921 215.8904 
L 208.323892 224.58497 
L 209.049864 207.334944 
L 209.775836 215.45364 
L 210.501807 238.956599 
L 211.227779 207.18538 
L 211.953751 187.974207 
L 212.679723 204.744324 
L 213.405694 239.119538 
L 214.131666 178.94222 
L 214.857638 197.122404 
L 215.583609 162.965461 
L 216.309581 214.708223 
L 217.035553 205.729369 
L 217.761524 185.887333 
L 218.487496 160.961704 
L 219.213468 220.447909 
L 219.93944 146.259479 
L 220.665411 150.80467 
L 221.391383 158.949948 
L 222.117355 178.204426 
L 222.843326 176.018755 
L 223.569298 235.317838 
L 224.29527 152.379011 
L 225.021242 118.285697 
L 225.747213 196.892144 
L 226.473185 220.329902 
L 227.199157 169.472467 
L 227.925128 145.429351 
L 228.6511 193.668359 
L 229.377072 176.867358 
L 230.103043 163.471832 
L 230.829015 198.975932 
L 231.554987 244.357368 
L 232.280959 191.768331 
L 233.00693 210.818901 
L 233.732902 134.989243 
L 234.458874 214.660205 
L 235.184845 131.424798 
L 235.910817 196.57284 
L 236.636789 153.074901 
L 237.36276 201.213016 
L 238.088732 211.611864 
L 238.814704 180.79885 
L 239.540676 223.502948 
L 240.266647 224.304524 
L 240.992619 216.180337 
L 241.718591 177.180081 
L 242.444562 210.465258 
L 243.170534 210.894546 
L 243.896506 191.172141 
L 244.622477 194.328869 
L 245.348449 242.175385 
L 246.074421 205.077369 
L 246.800393 208.725755 
L 247.526364 232.763315 
L 248.252336 213.517714 
L 249.704279 227.997726 
L 250.430251 220.832214 
L 251.156223 239.051535 
L 251.882195 217.161345 
L 252.608166 206.216343 
L 253.334138 200.436658 
L 254.06011 199.726305 
L 254.786081 219.733465 
L 255.512053 249.904284 
L 256.238025 247.00828 
L 256.963996 229.412563 
L 257.689968 239.700579 
L 258.41594 259.042489 
L 259.141912 200.117726 
L 259.867883 263.822144 
L 260.593855 245.795931 
L 261.319827 242.2201 
L 262.77177 254.526343 
L 263.497742 238.006115 
L 264.223713 260.426898 
L 264.949685 249.800737 
L 265.675657 242.337228 
L 266.401629 239.846248 
L 267.1276 265.590364 
L 267.853572 193.644546 
L 268.579544 217.865625 
L 269.305515 248.853645 
L 270.031487 222.0693 
L 270.757459 234.320459 
L 271.48343 239.643453 
L 272.209402 230.926782 
L 272.935374 238.762673 
L 273.661346 252.667345 
L 274.387317 256.117086 
L 275.113289 241.322109 
L 275.839261 235.650353 
L 276.565232 243.201312 
L 277.291204 244.105846 
L 278.017176 195.729235 
L 278.743148 235.417291 
L 279.469119 240.398643 
L 280.195091 213.991276 
L 280.921063 243.564347 
L 281.647034 218.536752 
L 282.373006 224.064233 
L 283.098978 226.83511 
L 283.824949 230.090502 
L 284.550921 212.935936 
L 285.276893 220.604817 
L 286.002865 215.250166 
L 286.728836 223.372177 
L 287.454808 210.441596 
L 288.18078 215.426827 
L 288.906751 182.367074 
L 289.632723 211.379154 
L 290.358695 185.541969 
L 291.084666 205.667035 
L 291.810638 186.234847 
L 292.53661 211.28748 
L 293.262582 195.15252 
L 293.988553 212.867871 
L 294.714525 192.679273 
L 295.440497 214.956605 
L 296.166468 199.378211 
L 296.89244 201.129891 
L 297.618412 190.102356 
L 298.344383 199.675091 
L 299.070355 185.400729 
L 299.796327 195.049859 
L 300.522299 154.744642 
L 301.24827 253.83121 
L 301.974242 143.527811 
L 302.700214 190.005294 
L 303.426185 157.160946 
L 304.152157 174.30356 
L 304.878129 143.876161 
L 305.604101 209.118475 
L 306.330072 197.838762 
L 307.056044 184.324048 
L 307.782016 224.581407 
L 308.507987 218.061982 
L 309.959931 194.772661 
L 310.685902 205.658255 
L 311.411874 198.449626 
L 312.137846 213.778905 
L 312.863818 210.384067 
L 313.589789 192.441244 
L 314.315761 202.292648 
L 315.041733 210.330756 
L 315.767704 198.602848 
L 316.493676 192.645676 
L 317.219648 219.575528 
L 317.945619 231.661509 
L 318.671591 188.571184 
L 319.397563 204.714796 
L 320.123535 209.495717 
L 320.849506 224.413213 
L 321.575478 210.43629 
L 322.30145 235.909563 
L 323.027421 241.633502 
L 323.753393 230.058551 
L 324.479365 187.003346 
L 325.205336 215.289838 
L 325.931308 253.808762 
L 326.65728 229.050318 
L 327.383252 233.543067 
L 328.109223 222.427335 
L 328.835195 234.858208 
L 329.561167 223.580382 
L 330.287138 258.134183 
L 331.01311 227.661362 
L 331.739082 205.952576 
L 332.465054 249.115851 
L 333.191025 203.715164 
L 333.916997 232.534048 
L 334.642969 248.287943 
L 335.36894 246.089497 
L 336.094912 213.717733 
L 336.820884 253.328891 
L 337.546855 245.146924 
L 338.272827 245.994126 
L 338.998799 231.008274 
L 339.724771 218.387145 
L 340.450742 213.556547 
L 341.176714 245.012835 
L 341.902686 241.791143 
L 342.628657 229.590692 
L 343.354629 213.460787 
L 344.080601 247.306869 
L 344.806572 224.618048 
L 345.532544 220.433822 
L 346.258516 248.683194 
L 346.984488 220.830466 
L 347.710459 238.025408 
L 348.436431 227.873671 
L 349.162403 230.792662 
L 349.888374 228.431458 
L 350.614346 227.556007 
L 351.340318 226.077877 
L 352.066289 229.594044 
L 352.792261 228.516991 
L 353.518233 222.17447 
L 354.244205 210.02038 
L 354.970176 219.083085 
L 355.696148 239.319606 
L 356.42212 205.11406 
L 357.148091 235.905259 
L 357.874063 218.019479 
L 358.600035 218.076957 
L 359.326007 224.266373 
L 360.051978 223.587516 
L 360.77795 219.118236 
L 361.503922 193.579078 
L 362.229893 237.716864 
L 362.955865 212.593408 
L 363.681837 216.858279 
L 364.407808 218.02103 
L 365.13378 216.852956 
L 365.859752 211.228255 
L 366.585724 208.526576 
L 368.037667 212.702802 
L 368.763639 208.689121 
L 369.48961 227.782916 
L 370.215582 212.419158 
L 370.941554 231.02369 
L 371.667525 227.242323 
L 372.393497 214.271585 
L 373.119469 227.455622 
L 373.845441 215.544473 
L 375.297384 205.662588 
L 376.023356 219.023006 
L 376.749327 203.878007 
L 377.475299 202.118836 
L 378.201271 207.07196 
L 378.927242 208.579197 
L 379.653214 206.718058 
L 380.379186 189.156943 
L 381.105158 202.343404 
L 381.831129 194.795991 
L 382.557101 203.671805 
L 383.283073 197.319121 
L 384.009044 203.543387 
L 384.735016 219.43392 
L 385.460988 184.693713 
L 386.18696 206.708231 
L 386.912931 224.042715 
L 387.638903 187.89976 
L 388.364875 220.568889 
L 389.090846 191.452839 
L 389.816818 192.095521 
L 390.54279 208.361914 
L 391.268761 206.061798 
L 391.994733 190.877994 
L 392.720705 199.831889 
L 394.172648 185.966786 
L 394.89862 195.340938 
L 395.624592 208.886529 
L 397.076535 191.929138 
L 397.802507 182.948403 
L 398.528478 186.459169 
L 399.25445 184.518355 
L 399.980422 184.022091 
L 400.706394 191.370472 
L 401.432365 189.688674 
L 402.158337 187.060037 
L 402.884309 201.216095 
L 403.61028 182.334069 
L 404.336252 196.360689 
L 405.062224 188.751854 
L 405.788195 194.69346 
L 406.514167 186.911416 
L 407.240139 197.812997 
L 407.966111 201.23481 
L 408.692082 201.498241 
L 409.418054 220.227539 
L 410.144026 208.275824 
L 410.869997 228.628034 
L 411.595969 202.211717 
L 412.321941 205.176602 
L 413.047913 228.716721 
L 413.773884 205.453365 
L 414.499856 209.168226 
L 415.225828 210.77085 
L 415.951799 208.801025 
L 416.677771 205.632129 
L 417.403743 227.456142 
L 418.129714 211.286908 
L 419.581658 230.744385 
L 420.30763 220.192227 
L 421.033601 226.59622 
L 421.759573 225.320857 
L 422.485545 240.061069 
L 423.211516 241.607684 
L 423.937488 238.166171 
L 424.66346 240.737393 
L 425.389431 240.598698 
L 426.115403 238.77559 
L 426.841375 241.089893 
L 428.293318 242.59591 
L 429.01929 241.062248 
L 429.745262 243.382449 
L 430.471233 243.257344 
L 431.197205 244.305859 
L 431.923177 241.574576 
L 432.649148 243.155207 
L 433.37512 241.755248 
L 434.101092 249.43043 
L 434.827064 245.905279 
L 435.553035 244.558485 
L 436.279007 239.403957 
L 437.004979 242.576121 
L 437.73095 238.220401 
L 438.456922 240.772258 
L 439.182894 236.535785 
L 439.908866 240.794878 
L 440.634837 242.456193 
L 441.360809 239.5938 
L 442.086781 240.405645 
L 442.812752 235.162823 
L 443.538724 237.17837 
L 444.264696 232.236792 
L 444.990667 233.931368 
L 445.716639 228.545364 
L 446.442611 232.114365 
L 447.168583 226.378314 
L 447.894554 228.48815 
L 448.620526 229.381173 
L 450.072469 229.043071 
L 450.798441 227.733771 
L 451.524413 227.379642 
L 452.250384 225.793017 
L 452.976356 222.141216 
L 453.702328 224.600051 
L 454.4283 220.82702 
L 455.154271 221.645849 
L 455.880243 218.212609 
L 456.606215 220.007974 
L 457.332186 219.896745 
L 458.058158 215.447384 
L 458.78413 215.598773 
L 459.510101 218.752394 
L 460.236073 216.060703 
L 460.962045 215.859649 
L 461.688017 213.091824 
L 462.413988 213.189216 
L 463.13996 212.835088 
L 463.865932 211.983905 
L 464.591903 211.604409 
L 464.591903 211.604409 
" style="fill:none;stroke:#2ca02c;stroke-linecap:square;stroke-width:1.5;"/>
   </g>
   <g id="line2d_4">
    <path clip-path="url(#pe8b8769b0e)" d="M 58.773722 189.578407 
L 59.499693 150.837716 
L 60.225665 249.235507 
L 60.951637 184.154406 
L 61.677608 217.849538 
L 62.40358 215.876223 
L 63.129552 184.235796 
L 63.855524 199.253223 
L 64.581495 149.996665 
L 65.307467 185.073299 
L 66.033439 247.864602 
L 66.75941 199.835563 
L 67.485382 137.360459 
L 68.211354 224.314244 
L 68.937325 191.20352 
L 69.663297 248.890425 
L 70.389269 111.401008 
L 71.115241 220.612684 
L 71.841212 224.370586 
L 72.567184 199.193546 
L 73.293156 217.415471 
L 74.019127 207.104898 
L 74.745099 209.064095 
L 75.471071 198.039242 
L 76.197042 220.595297 
L 76.923014 190.840738 
L 78.374958 245.132998 
L 79.100929 241.250971 
L 79.826901 219.397618 
L 80.552873 251.202362 
L 81.278844 206.56204 
L 82.004816 229.969087 
L 82.730788 216.310364 
L 83.456759 236.952975 
L 84.182731 253.084629 
L 84.908703 253.435426 
L 85.634675 237.715834 
L 87.086618 243.842794 
L 87.81259 225.665713 
L 88.538561 254.51778 
L 89.264533 226.715041 
L 89.990505 230.009678 
L 90.716477 229.646398 
L 91.442448 230.267261 
L 92.16842 255.262078 
L 92.894392 219.100612 
L 93.620363 264.574138 
L 94.346335 139.832537 
L 95.072307 232.852947 
L 95.798278 161.442011 
L 96.52425 213.072086 
L 97.250222 194.206241 
L 97.976194 169.58559 
L 98.702165 178.241245 
L 99.428137 168.664234 
L 100.154109 254.609364 
L 100.88008 246.311646 
L 101.606052 205.079498 
L 102.332024 152.222907 
L 103.057995 175.774299 
L 103.783967 214.899356 
L 104.509939 155.298361 
L 105.235911 228.767475 
L 105.961882 214.426194 
L 106.687854 239.06851 
L 107.413826 209.812966 
L 108.139797 224.922282 
L 108.865769 214.657142 
L 109.591741 221.281378 
L 110.317712 267.692763 
L 111.769656 234.296949 
L 112.495628 232.247143 
L 113.221599 196.271774 
L 113.947571 142.529314 
L 114.673543 228.27199 
L 115.399514 217.370468 
L 116.125486 141.698997 
L 116.851458 218.757095 
L 117.57743 220.335465 
L 118.303401 213.674243 
L 119.029373 186.934613 
L 119.755345 212.060046 
L 120.481316 272.285001 
L 121.207288 183.411447 
L 121.93326 228.096669 
L 122.659231 214.178804 
L 123.385203 234.073644 
L 124.111175 230.630235 
L 124.837147 232.498902 
L 125.563118 256.9894 
L 126.28909 257.655003 
L 127.015062 122.386776 
L 127.741033 236.419027 
L 128.467005 261.583552 
L 129.192977 204.482738 
L 129.918948 170.038937 
L 130.64492 222.196728 
L 131.370892 201.885665 
L 132.096864 220.51459 
L 132.822835 226.158515 
L 133.548807 211.690187 
L 134.274779 201.819293 
L 135.00075 225.531082 
L 135.726722 215.0626 
L 136.452694 224.976155 
L 137.178665 129.258695 
L 137.904637 152.88201 
L 138.630609 187.261711 
L 139.356581 197.557639 
L 140.082552 226.293944 
L 140.808524 241.655817 
L 141.534496 191.489406 
L 142.260467 175.019405 
L 142.986439 180.642068 
L 143.712411 198.593419 
L 144.438383 207.982202 
L 145.164354 218.916698 
L 145.890326 253.788793 
L 146.616298 159.897007 
L 147.342269 203.840692 
L 148.068241 207.690044 
L 148.794213 237.860298 
L 149.520184 240.289968 
L 150.246156 103.46486 
L 150.972128 215.826946 
L 151.6981 273.866216 
L 152.424071 224.48279 
L 153.150043 217.344146 
L 153.876015 168.740048 
L 154.601986 215.920833 
L 155.327958 193.344307 
L 156.05393 229.571827 
L 156.779901 186.089745 
L 157.505873 217.157634 
L 158.231845 224.592351 
L 158.957817 224.831682 
L 159.683788 229.028163 
L 160.40976 229.663337 
L 161.135732 146.015827 
L 161.861703 216.835165 
L 162.587675 164.642423 
L 163.313647 222.236208 
L 164.039618 257.460363 
L 164.76559 228.641129 
L 165.491562 236.695475 
L 166.217534 225.598207 
L 166.943505 177.729217 
L 167.669477 206.751876 
L 168.395449 139.753102 
L 169.847392 201.775795 
L 170.573364 246.186504 
L 171.299336 212.725213 
L 172.025307 253.157204 
L 172.751279 209.326964 
L 173.477251 226.944306 
L 174.203222 233.421892 
L 174.929194 202.118829 
L 175.655166 229.335973 
L 176.381137 203.766444 
L 177.107109 242.557239 
L 177.833081 228.974551 
L 178.559053 221.206058 
L 179.285024 241.969101 
L 180.010996 210.849991 
L 180.736968 259.276872 
L 181.462939 243.579449 
L 182.188911 267.358652 
L 182.914883 239.063862 
L 183.640854 243.194879 
L 184.366826 249.304664 
L 185.092798 244.568799 
L 185.81877 249.454398 
L 186.544741 244.524114 
L 187.270713 193.373588 
L 187.996685 231.066077 
L 188.722656 235.299312 
L 189.448628 234.841228 
L 190.1746 274.361725 
L 190.900571 188.959566 
L 191.626543 274.857846 
L 192.352515 253.899203 
L 193.078487 254.292825 
L 193.804458 273.927147 
L 194.53043 265.690826 
L 195.256402 242.208707 
L 195.982373 248.40543 
L 196.708345 194.066645 
L 197.434317 217.404903 
L 198.160289 271.806307 
L 198.88626 265.711354 
L 199.612232 261.443724 
L 200.338204 242.576691 
L 201.064175 240.891169 
L 201.790147 260.181338 
L 202.516119 269.805295 
L 203.24209 239.272527 
L 203.968062 239.452886 
L 204.694034 252.902944 
L 205.420006 220.358908 
L 206.145977 235.768707 
L 206.871949 222.65914 
L 207.597921 236.889053 
L 208.323892 227.257625 
L 209.049864 220.321662 
L 209.775836 164.717824 
L 210.501807 252.053315 
L 211.227779 188.704367 
L 211.953751 218.188454 
L 212.679723 207.292281 
L 213.405694 254.185784 
L 214.131666 243.872753 
L 214.857638 221.525896 
L 215.583609 216.595449 
L 216.309581 229.234094 
L 217.035553 213.984172 
L 217.761524 130.815088 
L 218.487496 179.809406 
L 219.213468 179.921266 
L 219.93944 152.55028 
L 220.665411 204.055536 
L 221.391383 118.504925 
L 222.117355 172.767049 
L 222.843326 155.535289 
L 223.569298 239.255751 
L 224.29527 187.666476 
L 225.021242 182.76516 
L 225.747213 130.374448 
L 226.473185 222.945869 
L 227.925128 133.327081 
L 228.6511 143.075035 
L 229.377072 156.255761 
L 230.103043 199.432831 
L 230.829015 82.838722 
L 231.554987 211.165668 
L 232.280959 113.619224 
L 233.00693 191.7983 
L 234.458874 124.813668 
L 235.184845 174.677291 
L 235.910817 174.270634 
L 236.636789 133.5855 
L 237.36276 184.055857 
L 238.088732 203.620889 
L 238.814704 195.63202 
L 239.540676 234.407789 
L 240.266647 161.210775 
L 240.992619 207.338584 
L 241.718591 171.058927 
L 242.444562 200.330138 
L 243.170534 196.398582 
L 243.896506 208.35007 
L 244.622477 200.940798 
L 246.074421 202.404817 
L 246.800393 209.42231 
L 247.526364 205.281966 
L 248.252336 211.065971 
L 248.978308 221.045146 
L 249.704279 200.464835 
L 250.430251 185.762453 
L 251.156223 226.963432 
L 251.882195 198.01023 
L 252.608166 182.404378 
L 253.334138 213.797496 
L 254.06011 208.157452 
L 254.786081 179.417829 
L 255.512053 250.25448 
L 256.238025 227.087774 
L 256.963996 219.139136 
L 257.689968 233.482154 
L 258.41594 199.48291 
L 259.141912 198.380777 
L 259.867883 227.305451 
L 260.593855 234.764597 
L 261.319827 223.917834 
L 262.045798 237.257072 
L 262.77177 241.249353 
L 263.497742 229.38582 
L 264.223713 250.339734 
L 264.949685 239.562699 
L 265.675657 244.51456 
L 266.401629 185.053838 
L 267.1276 255.168043 
L 267.853572 234.363081 
L 268.579544 200.101733 
L 269.305515 251.975905 
L 270.031487 234.756273 
L 270.757459 246.97921 
L 271.48343 243.92842 
L 272.209402 199.809859 
L 272.935374 215.695967 
L 273.661346 247.617515 
L 274.387317 254.641839 
L 275.113289 181.082195 
L 275.839261 212.708222 
L 276.565232 232.281567 
L 277.291204 221.614646 
L 278.017176 228.070534 
L 278.743148 229.402365 
L 279.469119 222.031209 
L 280.195091 220.668523 
L 280.921063 222.873648 
L 281.647034 226.777445 
L 282.373006 219.903791 
L 283.098978 234.740104 
L 283.824949 230.706847 
L 284.550921 227.410363 
L 285.276893 231.511121 
L 286.002865 223.185605 
L 286.728836 233.862096 
L 287.454808 225.323188 
L 288.18078 230.841423 
L 288.906751 230.442524 
L 289.632723 232.594324 
L 291.084666 222.21446 
L 291.810638 216.771216 
L 292.53661 222.92778 
L 293.262582 226.772234 
L 293.988553 195.796224 
L 294.714525 226.300574 
L 295.440497 183.650513 
L 296.166468 225.907282 
L 296.89244 209.16122 
L 297.618412 207.234518 
L 298.344383 216.266126 
L 299.070355 205.685507 
L 299.796327 183.611284 
L 300.522299 221.968304 
L 301.24827 267.237209 
L 301.974242 215.501045 
L 302.700214 241.642314 
L 303.426185 227.630194 
L 304.152157 227.561163 
L 304.878129 222.040979 
L 305.604101 185.39595 
L 306.330072 256.435602 
L 307.056044 200.923073 
L 307.782016 248.470038 
L 308.507987 241.518887 
L 309.233959 227.434454 
L 309.959931 233.087712 
L 310.685902 220.26153 
L 311.411874 235.214771 
L 312.137846 196.027617 
L 312.863818 237.271061 
L 313.589789 234.740722 
L 314.315761 232.908744 
L 315.041733 226.495021 
L 315.767704 225.231273 
L 316.493676 235.992537 
L 317.219648 220.786536 
L 317.945619 265.546329 
L 318.671591 220.923006 
L 319.397563 232.865528 
L 320.123535 232.692675 
L 320.849506 244.627929 
L 321.575478 229.68902 
L 322.30145 267.185397 
L 323.027421 259.437958 
L 323.753393 239.204221 
L 324.479365 178.60658 
L 325.205336 236.401403 
L 325.931308 263.125676 
L 326.65728 209.570898 
L 327.383252 249.283782 
L 328.109223 233.147843 
L 328.835195 189.633722 
L 329.561167 233.556161 
L 330.287138 254.639619 
L 331.01311 230.016998 
L 331.739082 236.454829 
L 332.465054 204.42537 
L 333.191025 228.702925 
L 333.916997 228.887449 
L 334.642969 216.249391 
L 335.36894 243.785024 
L 336.094912 226.043774 
L 336.820884 240.250608 
L 337.546855 196.862839 
L 338.272827 220.689737 
L 338.998799 210.331138 
L 339.724771 215.953565 
L 340.450742 213.323744 
L 341.176714 210.079581 
L 341.902686 204.788019 
L 342.628657 201.212612 
L 343.354629 204.121903 
L 344.080601 204.26314 
L 344.806572 201.962443 
L 345.532544 204.831684 
L 346.258516 195.265514 
L 346.984488 200.722627 
L 347.710459 191.477574 
L 348.436431 199.205259 
L 349.162403 195.572247 
L 349.888374 197.697243 
L 350.614346 195.42049 
L 351.340318 189.330353 
L 352.066289 198.937946 
L 352.792261 194.619959 
L 353.518233 192.041487 
L 354.244205 187.849631 
L 354.970176 192.480458 
L 355.696148 192.528223 
L 356.42212 175.635175 
L 357.148091 189.075539 
L 357.874063 187.698114 
L 358.600035 197.753243 
L 359.326007 194.676935 
L 360.051978 205.873695 
L 361.503922 185.79436 
L 362.229893 220.102681 
L 362.955865 194.623576 
L 363.681837 200.714559 
L 364.407808 197.588848 
L 365.13378 206.265519 
L 365.859752 195.079335 
L 366.585724 203.541931 
L 367.311695 209.897816 
L 368.037667 210.77414 
L 368.763639 204.345239 
L 369.48961 226.933192 
L 370.215582 184.312532 
L 370.941554 229.553684 
L 371.667525 215.9821 
L 372.393497 189.120197 
L 373.119469 210.935707 
L 373.845441 206.207623 
L 374.571412 202.447894 
L 375.297384 209.019818 
L 376.023356 225.173102 
L 376.749327 205.827379 
L 377.475299 193.38014 
L 378.201271 213.036475 
L 378.927242 226.83075 
L 379.653214 211.482944 
L 380.379186 219.466678 
L 381.105158 221.460103 
L 381.831129 217.799287 
L 382.557101 217.407736 
L 383.283073 215.243155 
L 384.735016 234.202082 
L 385.460988 219.671363 
L 386.18696 221.457506 
L 386.912931 239.358385 
L 387.638903 224.103735 
L 388.364875 238.090037 
L 389.090846 227.919474 
L 389.816818 227.702983 
L 390.54279 238.52673 
L 391.268761 237.283177 
L 391.994733 230.875883 
L 392.720705 233.659887 
L 393.446677 235.322951 
L 394.172648 206.935071 
L 394.89862 222.163088 
L 395.624592 239.925525 
L 396.350563 218.982511 
L 397.076535 213.707243 
L 397.802507 200.532083 
L 398.528478 208.318725 
L 399.980422 205.714676 
L 400.706394 207.964386 
L 401.432365 214.222878 
L 402.158337 215.353817 
L 402.884309 228.05733 
L 403.61028 199.919546 
L 404.336252 206.916129 
L 405.062224 206.947489 
L 405.788195 205.095352 
L 406.514167 213.51308 
L 407.240139 203.220303 
L 407.966111 204.802437 
L 409.418054 233.322866 
L 410.144026 202.865389 
L 410.869997 227.55838 
L 411.595969 216.067191 
L 412.321941 218.847867 
L 413.047913 226.318436 
L 413.773884 211.449674 
L 414.499856 222.025778 
L 415.225828 224.499063 
L 415.951799 221.136919 
L 416.677771 219.471083 
L 417.403743 227.759584 
L 418.129714 224.513159 
L 418.855686 226.091168 
L 419.581658 228.294892 
L 420.30763 216.534081 
L 421.033601 226.282618 
L 421.759573 221.9417 
L 422.485545 238.526268 
L 423.211516 236.858118 
L 423.937488 238.387485 
L 424.66346 230.622133 
L 425.389431 238.080516 
L 426.115403 232.839501 
L 426.841375 238.435316 
L 427.567347 238.04019 
L 428.293318 242.87512 
L 429.01929 237.596161 
L 429.745262 243.824942 
L 430.471233 227.86053 
L 431.197205 241.346967 
L 431.923177 234.405304 
L 432.649148 234.646479 
L 433.37512 223.31103 
L 434.101092 237.999556 
L 434.827064 237.565664 
L 435.553035 229.674232 
L 436.279007 230.930606 
L 437.004979 229.624868 
L 437.73095 229.257386 
L 438.456922 227.133337 
L 439.182894 227.819616 
L 439.908866 227.38816 
L 440.634837 225.352797 
L 441.360809 224.106832 
L 442.086781 224.911561 
L 442.812752 224.018642 
L 443.538724 221.099742 
L 444.264696 222.830467 
L 444.990667 219.906069 
L 445.716639 219.218048 
L 446.442611 218.077173 
L 447.168583 217.614207 
L 447.894554 216.690965 
L 448.620526 216.192223 
L 449.346498 215.076576 
L 450.072469 214.988621 
L 450.798441 215.653085 
L 451.524413 214.019138 
L 452.250384 212.849719 
L 453.702328 211.103094 
L 454.4283 211.926552 
L 455.154271 211.045029 
L 455.880243 209.67577 
L 456.606215 209.355467 
L 457.332186 208.618179 
L 458.058158 208.83274 
L 458.78413 208.818347 
L 460.236073 207.677379 
L 462.413988 207.13685 
L 463.13996 206.851767 
L 463.865932 209.976255 
L 464.591903 207.409752 
L 464.591903 207.409752 
" style="fill:none;stroke:#d62728;stroke-linecap:square;stroke-width:1.5;"/>
   </g>
   <g id="line2d_5">
    <path clip-path="url(#pe8b8769b0e)" d="M 58.773722 218.76665 
L 464.591903 218.76665 
L 464.591903 218.76665 
" style="fill:none;stroke:#000000;stroke-dasharray:3.7,1.6;stroke-dashoffset:0;"/>
   </g>
   <g id="matplotlib.axis_1">
    <g id="xtick_1">
     <g id="line2d_6">
      <defs>
       <path d="M 0 0 
L 0 3.5 
" id="m68b83f24aa" style="stroke:#000000;stroke-width:0.8;"/>
      </defs>
      <g>
       <use style="stroke:#000000;stroke-width:0.8;" x="79.826901" xlink:href="#m68b83f24aa" y="294.118125"/>
      </g>
     </g>
     <g id="text_1">
      <!-- 100 -->
      <defs>
       <path d="M 12.40625 8.296875 
L 28.515625 8.296875 
L 28.515625 63.921875 
L 10.984375 60.40625 
L 10.984375 69.390625 
L 28.421875 72.90625 
L 38.28125 72.90625 
L 38.28125 8.296875 
L 54.390625 8.296875 
L 54.390625 0 
L 12.40625 0 
z
" id="DejaVuSans-49"/>
       <path d="M 31.78125 66.40625 
Q 24.171875 66.40625 20.328125 58.90625 
Q 16.5 51.421875 16.5 36.375 
Q 16.5 21.390625 20.328125 13.890625 
Q 24.171875 6.390625 31.78125 6.390625 
Q 39.453125 6.390625 43.28125 13.890625 
Q 47.125 21.390625 47.125 36.375 
Q 47.125 51.421875 43.28125 58.90625 
Q 39.453125 66.40625 31.78125 66.40625 
z
M 31.78125 74.21875 
Q 44.046875 74.21875 50.515625 64.515625 
Q 56.984375 54.828125 56.984375 36.375 
Q 56.984375 17.96875 50.515625 8.265625 
Q 44.046875 -1.421875 31.78125 -1.421875 
Q 19.53125 -1.421875 13.0625 8.265625 
Q 6.59375 17.96875 6.59375 36.375 
Q 6.59375 54.828125 13.0625 64.515625 
Q 19.53125 74.21875 31.78125 74.21875 
z
" id="DejaVuSans-48"/>
      </defs>
      <g transform="translate(70.283151 308.716563)scale(0.1 -0.1)">
       <use xlink:href="#DejaVuSans-49"/>
       <use x="63.623047" xlink:href="#DejaVuSans-48"/>
       <use x="127.246094" xlink:href="#DejaVuSans-48"/>
      </g>
     </g>
    </g>
    <g id="xtick_2">
     <g id="line2d_7">
      <g>
       <use style="stroke:#000000;stroke-width:0.8;" x="152.424071" xlink:href="#m68b83f24aa" y="294.118125"/>
      </g>
     </g>
     <g id="text_2">
      <!-- 200 -->
      <defs>
       <path d="M 19.1875 8.296875 
L 53.609375 8.296875 
L 53.609375 0 
L 7.328125 0 
L 7.328125 8.296875 
Q 12.9375 14.109375 22.625 23.890625 
Q 32.328125 33.6875 34.8125 36.53125 
Q 39.546875 41.84375 41.421875 45.53125 
Q 43.3125 49.21875 43.3125 52.78125 
Q 43.3125 58.59375 39.234375 62.25 
Q 35.15625 65.921875 28.609375 65.921875 
Q 23.96875 65.921875 18.8125 64.3125 
Q 13.671875 62.703125 7.8125 59.421875 
L 7.8125 69.390625 
Q 13.765625 71.78125 18.9375 73 
Q 24.125 74.21875 28.421875 74.21875 
Q 39.75 74.21875 46.484375 68.546875 
Q 53.21875 62.890625 53.21875 53.421875 
Q 53.21875 48.921875 51.53125 44.890625 
Q 49.859375 40.875 45.40625 35.40625 
Q 44.1875 33.984375 37.640625 27.21875 
Q 31.109375 20.453125 19.1875 8.296875 
z
" id="DejaVuSans-50"/>
      </defs>
      <g transform="translate(142.880321 308.716563)scale(0.1 -0.1)">
       <use xlink:href="#DejaVuSans-50"/>
       <use x="63.623047" xlink:href="#DejaVuSans-48"/>
       <use x="127.246094" xlink:href="#DejaVuSans-48"/>
      </g>
     </g>
    </g>
    <g id="xtick_3">
     <g id="line2d_8">
      <g>
       <use style="stroke:#000000;stroke-width:0.8;" x="225.021242" xlink:href="#m68b83f24aa" y="294.118125"/>
      </g>
     </g>
     <g id="text_3">
      <!-- 300 -->
      <defs>
       <path d="M 40.578125 39.3125 
Q 47.65625 37.796875 51.625 33 
Q 55.609375 28.21875 55.609375 21.1875 
Q 55.609375 10.40625 48.1875 4.484375 
Q 40.765625 -1.421875 27.09375 -1.421875 
Q 22.515625 -1.421875 17.65625 -0.515625 
Q 12.796875 0.390625 7.625 2.203125 
L 7.625 11.71875 
Q 11.71875 9.328125 16.59375 8.109375 
Q 21.484375 6.890625 26.8125 6.890625 
Q 36.078125 6.890625 40.9375 10.546875 
Q 45.796875 14.203125 45.796875 21.1875 
Q 45.796875 27.640625 41.28125 31.265625 
Q 36.765625 34.90625 28.71875 34.90625 
L 20.21875 34.90625 
L 20.21875 43.015625 
L 29.109375 43.015625 
Q 36.375 43.015625 40.234375 45.921875 
Q 44.09375 48.828125 44.09375 54.296875 
Q 44.09375 59.90625 40.109375 62.90625 
Q 36.140625 65.921875 28.71875 65.921875 
Q 24.65625 65.921875 20.015625 65.03125 
Q 15.375 64.15625 9.8125 62.3125 
L 9.8125 71.09375 
Q 15.4375 72.65625 20.34375 73.4375 
Q 25.25 74.21875 29.59375 74.21875 
Q 40.828125 74.21875 47.359375 69.109375 
Q 53.90625 64.015625 53.90625 55.328125 
Q 53.90625 49.265625 50.4375 45.09375 
Q 46.96875 40.921875 40.578125 39.3125 
z
" id="DejaVuSans-51"/>
      </defs>
      <g transform="translate(215.477492 308.716563)scale(0.1 -0.1)">
       <use xlink:href="#DejaVuSans-51"/>
       <use x="63.623047" xlink:href="#DejaVuSans-48"/>
       <use x="127.246094" xlink:href="#DejaVuSans-48"/>
      </g>
     </g>
    </g>
    <g id="xtick_4">
     <g id="line2d_9">
      <g>
       <use style="stroke:#000000;stroke-width:0.8;" x="297.618412" xlink:href="#m68b83f24aa" y="294.118125"/>
      </g>
     </g>
     <g id="text_4">
      <!-- 400 -->
      <defs>
       <path d="M 37.796875 64.3125 
L 12.890625 25.390625 
L 37.796875 25.390625 
z
M 35.203125 72.90625 
L 47.609375 72.90625 
L 47.609375 25.390625 
L 58.015625 25.390625 
L 58.015625 17.1875 
L 47.609375 17.1875 
L 47.609375 0 
L 37.796875 0 
L 37.796875 17.1875 
L 4.890625 17.1875 
L 4.890625 26.703125 
z
" id="DejaVuSans-52"/>
      </defs>
      <g transform="translate(288.074662 308.716563)scale(0.1 -0.1)">
       <use xlink:href="#DejaVuSans-52"/>
       <use x="63.623047" xlink:href="#DejaVuSans-48"/>
       <use x="127.246094" xlink:href="#DejaVuSans-48"/>
      </g>
     </g>
    </g>
    <g id="xtick_5">
     <g id="line2d_10">
      <g>
       <use style="stroke:#000000;stroke-width:0.8;" x="370.215582" xlink:href="#m68b83f24aa" y="294.118125"/>
      </g>
     </g>
     <g id="text_5">
      <!-- 500 -->
      <defs>
       <path d="M 10.796875 72.90625 
L 49.515625 72.90625 
L 49.515625 64.59375 
L 19.828125 64.59375 
L 19.828125 46.734375 
Q 21.96875 47.46875 24.109375 47.828125 
Q 26.265625 48.1875 28.421875 48.1875 
Q 40.625 48.1875 47.75 41.5 
Q 54.890625 34.8125 54.890625 23.390625 
Q 54.890625 11.625 47.5625 5.09375 
Q 40.234375 -1.421875 26.90625 -1.421875 
Q 22.3125 -1.421875 17.546875 -0.640625 
Q 12.796875 0.140625 7.71875 1.703125 
L 7.71875 11.625 
Q 12.109375 9.234375 16.796875 8.0625 
Q 21.484375 6.890625 26.703125 6.890625 
Q 35.15625 6.890625 40.078125 11.328125 
Q 45.015625 15.765625 45.015625 23.390625 
Q 45.015625 31 40.078125 35.4375 
Q 35.15625 39.890625 26.703125 39.890625 
Q 22.75 39.890625 18.8125 39.015625 
Q 14.890625 38.140625 10.796875 36.28125 
z
" id="DejaVuSans-53"/>
      </defs>
      <g transform="translate(360.671832 308.716563)scale(0.1 -0.1)">
       <use xlink:href="#DejaVuSans-53"/>
       <use x="63.623047" xlink:href="#DejaVuSans-48"/>
       <use x="127.246094" xlink:href="#DejaVuSans-48"/>
      </g>
     </g>
    </g>
    <g id="xtick_6">
     <g id="line2d_11">
      <g>
       <use style="stroke:#000000;stroke-width:0.8;" x="442.812752" xlink:href="#m68b83f24aa" y="294.118125"/>
      </g>
     </g>
     <g id="text_6">
      <!-- 600 -->
      <defs>
       <path d="M 33.015625 40.375 
Q 26.375 40.375 22.484375 35.828125 
Q 18.609375 31.296875 18.609375 23.390625 
Q 18.609375 15.53125 22.484375 10.953125 
Q 26.375 6.390625 33.015625 6.390625 
Q 39.65625 6.390625 43.53125 10.953125 
Q 47.40625 15.53125 47.40625 23.390625 
Q 47.40625 31.296875 43.53125 35.828125 
Q 39.65625 40.375 33.015625 40.375 
z
M 52.59375 71.296875 
L 52.59375 62.3125 
Q 48.875 64.0625 45.09375 64.984375 
Q 41.3125 65.921875 37.59375 65.921875 
Q 27.828125 65.921875 22.671875 59.328125 
Q 17.53125 52.734375 16.796875 39.40625 
Q 19.671875 43.65625 24.015625 45.921875 
Q 28.375 48.1875 33.59375 48.1875 
Q 44.578125 48.1875 50.953125 41.515625 
Q 57.328125 34.859375 57.328125 23.390625 
Q 57.328125 12.15625 50.6875 5.359375 
Q 44.046875 -1.421875 33.015625 -1.421875 
Q 20.359375 -1.421875 13.671875 8.265625 
Q 6.984375 17.96875 6.984375 36.375 
Q 6.984375 53.65625 15.1875 63.9375 
Q 23.390625 74.21875 37.203125 74.21875 
Q 40.921875 74.21875 44.703125 73.484375 
Q 48.484375 72.75 52.59375 71.296875 
z
" id="DejaVuSans-54"/>
      </defs>
      <g transform="translate(433.269002 308.716563)scale(0.1 -0.1)">
       <use xlink:href="#DejaVuSans-54"/>
       <use x="63.623047" xlink:href="#DejaVuSans-48"/>
       <use x="127.246094" xlink:href="#DejaVuSans-48"/>
      </g>
     </g>
    </g>
    <g id="text_7">
     <!-- Tempo -->
     <defs>
      <path d="M -0.296875 72.90625 
L 61.375 72.90625 
L 61.375 64.59375 
L 35.5 64.59375 
L 35.5 0 
L 25.59375 0 
L 25.59375 64.59375 
L -0.296875 64.59375 
z
" id="DejaVuSans-84"/>
      <path d="M 56.203125 29.59375 
L 56.203125 25.203125 
L 14.890625 25.203125 
Q 15.484375 15.921875 20.484375 11.0625 
Q 25.484375 6.203125 34.421875 6.203125 
Q 39.59375 6.203125 44.453125 7.46875 
Q 49.3125 8.734375 54.109375 11.28125 
L 54.109375 2.78125 
Q 49.265625 0.734375 44.1875 -0.34375 
Q 39.109375 -1.421875 33.890625 -1.421875 
Q 20.796875 -1.421875 13.15625 6.1875 
Q 5.515625 13.8125 5.515625 26.8125 
Q 5.515625 40.234375 12.765625 48.109375 
Q 20.015625 56 32.328125 56 
Q 43.359375 56 49.78125 48.890625 
Q 56.203125 41.796875 56.203125 29.59375 
z
M 47.21875 32.234375 
Q 47.125 39.59375 43.09375 43.984375 
Q 39.0625 48.390625 32.421875 48.390625 
Q 24.90625 48.390625 20.390625 44.140625 
Q 15.875 39.890625 15.1875 32.171875 
z
" id="DejaVuSans-101"/>
      <path d="M 52 44.1875 
Q 55.375 50.25 60.0625 53.125 
Q 64.75 56 71.09375 56 
Q 79.640625 56 84.28125 50.015625 
Q 88.921875 44.046875 88.921875 33.015625 
L 88.921875 0 
L 79.890625 0 
L 79.890625 32.71875 
Q 79.890625 40.578125 77.09375 44.375 
Q 74.3125 48.1875 68.609375 48.1875 
Q 61.625 48.1875 57.5625 43.546875 
Q 53.515625 38.921875 53.515625 30.90625 
L 53.515625 0 
L 44.484375 0 
L 44.484375 32.71875 
Q 44.484375 40.625 41.703125 44.40625 
Q 38.921875 48.1875 33.109375 48.1875 
Q 26.21875 48.1875 22.15625 43.53125 
Q 18.109375 38.875 18.109375 30.90625 
L 18.109375 0 
L 9.078125 0 
L 9.078125 54.6875 
L 18.109375 54.6875 
L 18.109375 46.1875 
Q 21.1875 51.21875 25.484375 53.609375 
Q 29.78125 56 35.6875 56 
Q 41.65625 56 45.828125 52.96875 
Q 50 49.953125 52 44.1875 
z
" id="DejaVuSans-109"/>
      <path d="M 18.109375 8.203125 
L 18.109375 -20.796875 
L 9.078125 -20.796875 
L 9.078125 54.6875 
L 18.109375 54.6875 
L 18.109375 46.390625 
Q 20.953125 51.265625 25.265625 53.625 
Q 29.59375 56 35.59375 56 
Q 45.5625 56 51.78125 48.09375 
Q 58.015625 40.1875 58.015625 27.296875 
Q 58.015625 14.40625 51.78125 6.484375 
Q 45.5625 -1.421875 35.59375 -1.421875 
Q 29.59375 -1.421875 25.265625 0.953125 
Q 20.953125 3.328125 18.109375 8.203125 
z
M 48.6875 27.296875 
Q 48.6875 37.203125 44.609375 42.84375 
Q 40.53125 48.484375 33.40625 48.484375 
Q 26.265625 48.484375 22.1875 42.84375 
Q 18.109375 37.203125 18.109375 27.296875 
Q 18.109375 17.390625 22.1875 11.75 
Q 26.265625 6.109375 33.40625 6.109375 
Q 40.53125 6.109375 44.609375 11.75 
Q 48.6875 17.390625 48.6875 27.296875 
z
" id="DejaVuSans-112"/>
      <path d="M 30.609375 48.390625 
Q 23.390625 48.390625 19.1875 42.75 
Q 14.984375 37.109375 14.984375 27.296875 
Q 14.984375 17.484375 19.15625 11.84375 
Q 23.34375 6.203125 30.609375 6.203125 
Q 37.796875 6.203125 41.984375 11.859375 
Q 46.1875 17.53125 46.1875 27.296875 
Q 46.1875 37.015625 41.984375 42.703125 
Q 37.796875 48.390625 30.609375 48.390625 
z
M 30.609375 56 
Q 42.328125 56 49.015625 48.375 
Q 55.71875 40.765625 55.71875 27.296875 
Q 55.71875 13.875 49.015625 6.21875 
Q 42.328125 -1.421875 30.609375 -1.421875 
Q 18.84375 -1.421875 12.171875 6.21875 
Q 5.515625 13.875 5.515625 27.296875 
Q 5.515625 40.765625 12.171875 48.375 
Q 18.84375 56 30.609375 56 
z
" id="DejaVuSans-111"/>
     </defs>
     <g transform="translate(245.298438 322.394687)scale(0.1 -0.1)">
      <use xlink:href="#DejaVuSans-84"/>
      <use x="44.083984" xlink:href="#DejaVuSans-101"/>
      <use x="105.607422" xlink:href="#DejaVuSans-109"/>
      <use x="203.019531" xlink:href="#DejaVuSans-112"/>
      <use x="266.496094" xlink:href="#DejaVuSans-111"/>
     </g>
    </g>
   </g>
   <g id="matplotlib.axis_2">
    <g id="ytick_1">
     <g id="line2d_12">
      <defs>
       <path d="M 0 0 
L -3.5 0 
" id="m96bebf7579" style="stroke:#000000;stroke-width:0.8;"/>
      </defs>
      <g>
       <use style="stroke:#000000;stroke-width:0.8;" x="38.482813" xlink:href="#m96bebf7579" y="272.480958"/>
      </g>
     </g>
     <g id="text_8">
      <!-- 0.5 -->
      <defs>
       <path d="M 10.59375 35.5 
L 73.1875 35.5 
L 73.1875 27.203125 
L 10.59375 27.203125 
z
" id="DejaVuSans-8722"/>
       <path d="M 10.6875 12.40625 
L 21 12.40625 
L 21 0 
L 10.6875 0 
z
" id="DejaVuSans-46"/>
      </defs>
      <g transform="translate(7.2 276.280177)scale(0.1 -0.1)">
       <use xlink:href="#DejaVuSans-8722"/>
       <use x="83.789062" xlink:href="#DejaVuSans-48"/>
       <use x="147.412109" xlink:href="#DejaVuSans-46"/>
       <use x="179.199219" xlink:href="#DejaVuSans-53"/>
      </g>
     </g>
    </g>
    <g id="ytick_2">
     <g id="line2d_13">
      <g>
       <use style="stroke:#000000;stroke-width:0.8;" x="38.482813" xlink:href="#m96bebf7579" y="218.76665"/>
      </g>
     </g>
     <g id="text_9">
      <!-- 0.0 -->
      <g transform="translate(15.579688 222.565869)scale(0.1 -0.1)">
       <use xlink:href="#DejaVuSans-48"/>
       <use x="63.623047" xlink:href="#DejaVuSans-46"/>
       <use x="95.410156" xlink:href="#DejaVuSans-48"/>
      </g>
     </g>
    </g>
    <g id="ytick_3">
     <g id="line2d_14">
      <g>
       <use style="stroke:#000000;stroke-width:0.8;" x="38.482813" xlink:href="#m96bebf7579" y="165.052342"/>
      </g>
     </g>
     <g id="text_10">
      <!-- 0.5 -->
      <g transform="translate(15.579688 168.851561)scale(0.1 -0.1)">
       <use xlink:href="#DejaVuSans-48"/>
       <use x="63.623047" xlink:href="#DejaVuSans-46"/>
       <use x="95.410156" xlink:href="#DejaVuSans-53"/>
      </g>
     </g>
    </g>
    <g id="ytick_4">
     <g id="line2d_15">
      <g>
       <use style="stroke:#000000;stroke-width:0.8;" x="38.482813" xlink:href="#m96bebf7579" y="111.338035"/>
      </g>
     </g>
     <g id="text_11">
      <!-- 1.0 -->
      <g transform="translate(15.579688 115.137253)scale(0.1 -0.1)">
       <use xlink:href="#DejaVuSans-49"/>
       <use x="63.623047" xlink:href="#DejaVuSans-46"/>
       <use x="95.410156" xlink:href="#DejaVuSans-48"/>
      </g>
     </g>
    </g>
    <g id="ytick_5">
     <g id="line2d_16">
      <g>
       <use style="stroke:#000000;stroke-width:0.8;" x="38.482813" xlink:href="#m96bebf7579" y="57.623727"/>
      </g>
     </g>
     <g id="text_12">
      <!-- 1.5 -->
      <g transform="translate(15.579688 61.422945)scale(0.1 -0.1)">
       <use xlink:href="#DejaVuSans-49"/>
       <use x="63.623047" xlink:href="#DejaVuSans-46"/>
       <use x="95.410156" xlink:href="#DejaVuSans-53"/>
      </g>
     </g>
    </g>
   </g>
   <g id="patch_3">
    <path d="M 38.482813 294.118125 
L 38.482813 22.318125 
" style="fill:none;stroke:#000000;stroke-linecap:square;stroke-linejoin:miter;stroke-width:0.8;"/>
   </g>
   <g id="patch_4">
    <path d="M 38.482813 294.118125 
L 484.882812 294.118125 
" style="fill:none;stroke:#000000;stroke-linecap:square;stroke-linejoin:miter;stroke-width:0.8;"/>
   </g>
   <g id="text_13">
    <!-- r -->
    <defs>
     <path d="M 41.109375 46.296875 
Q 39.59375 47.171875 37.8125 47.578125 
Q 36.03125 48 33.890625 48 
Q 26.265625 48 22.1875 43.046875 
Q 18.109375 38.09375 18.109375 28.8125 
L 18.109375 0 
L 9.078125 0 
L 9.078125 54.6875 
L 18.109375 54.6875 
L 18.109375 46.1875 
Q 20.953125 51.171875 25.484375 53.578125 
Q 30.03125 56 36.53125 56 
Q 37.453125 56 38.578125 55.875 
Q 39.703125 55.765625 41.0625 55.515625 
z
" id="DejaVuSans-114"/>
    </defs>
    <g transform="translate(259.21625 16.318125)scale(0.12 -0.12)">
     <use xlink:href="#DejaVuSans-114"/>
    </g>
   </g>
   <g id="legend_1">
    <g id="patch_5">
     <path d="M 491.882812 196.413438 
L 625.442188 196.413438 
Q 627.442188 196.413438 627.442188 194.413438 
L 627.442188 122.022813 
Q 627.442188 120.022813 625.442188 120.022813 
L 491.882812 120.022813 
Q 489.882812 120.022813 489.882812 122.022813 
L 489.882812 194.413438 
Q 489.882812 196.413438 491.882812 196.413438 
z
" style="fill:#ffffff;opacity:0.8;stroke:#cccccc;stroke-linejoin:miter;"/>
    </g>
    <g id="line2d_17">
     <path d="M 493.882812 128.12125 
L 513.882812 128.12125 
" style="fill:none;stroke:#000000;stroke-dasharray:3.7,1.6;stroke-dashoffset:0;"/>
    </g>
    <g id="line2d_18"/>
    <g id="text_14">
     <!-- Baseline -->
     <defs>
      <path d="M 19.671875 34.8125 
L 19.671875 8.109375 
L 35.5 8.109375 
Q 43.453125 8.109375 47.28125 11.40625 
Q 51.125 14.703125 51.125 21.484375 
Q 51.125 28.328125 47.28125 31.5625 
Q 43.453125 34.8125 35.5 34.8125 
z
M 19.671875 64.796875 
L 19.671875 42.828125 
L 34.28125 42.828125 
Q 41.5 42.828125 45.03125 45.53125 
Q 48.578125 48.25 48.578125 53.8125 
Q 48.578125 59.328125 45.03125 62.0625 
Q 41.5 64.796875 34.28125 64.796875 
z
M 9.8125 72.90625 
L 35.015625 72.90625 
Q 46.296875 72.90625 52.390625 68.21875 
Q 58.5 63.53125 58.5 54.890625 
Q 58.5 48.1875 55.375 44.234375 
Q 52.25 40.28125 46.1875 39.3125 
Q 53.46875 37.75 57.5 32.78125 
Q 61.53125 27.828125 61.53125 20.40625 
Q 61.53125 10.640625 54.890625 5.3125 
Q 48.25 0 35.984375 0 
L 9.8125 0 
z
" id="DejaVuSans-66"/>
      <path d="M 34.28125 27.484375 
Q 23.390625 27.484375 19.1875 25 
Q 14.984375 22.515625 14.984375 16.5 
Q 14.984375 11.71875 18.140625 8.90625 
Q 21.296875 6.109375 26.703125 6.109375 
Q 34.1875 6.109375 38.703125 11.40625 
Q 43.21875 16.703125 43.21875 25.484375 
L 43.21875 27.484375 
z
M 52.203125 31.203125 
L 52.203125 0 
L 43.21875 0 
L 43.21875 8.296875 
Q 40.140625 3.328125 35.546875 0.953125 
Q 30.953125 -1.421875 24.3125 -1.421875 
Q 15.921875 -1.421875 10.953125 3.296875 
Q 6 8.015625 6 15.921875 
Q 6 25.140625 12.171875 29.828125 
Q 18.359375 34.515625 30.609375 34.515625 
L 43.21875 34.515625 
L 43.21875 35.40625 
Q 43.21875 41.609375 39.140625 45 
Q 35.0625 48.390625 27.6875 48.390625 
Q 23 48.390625 18.546875 47.265625 
Q 14.109375 46.140625 10.015625 43.890625 
L 10.015625 52.203125 
Q 14.9375 54.109375 19.578125 55.046875 
Q 24.21875 56 28.609375 56 
Q 40.484375 56 46.34375 49.84375 
Q 52.203125 43.703125 52.203125 31.203125 
z
" id="DejaVuSans-97"/>
      <path d="M 44.28125 53.078125 
L 44.28125 44.578125 
Q 40.484375 46.53125 36.375 47.5 
Q 32.28125 48.484375 27.875 48.484375 
Q 21.1875 48.484375 17.84375 46.4375 
Q 14.5 44.390625 14.5 40.28125 
Q 14.5 37.15625 16.890625 35.375 
Q 19.28125 33.59375 26.515625 31.984375 
L 29.59375 31.296875 
Q 39.15625 29.25 43.1875 25.515625 
Q 47.21875 21.78125 47.21875 15.09375 
Q 47.21875 7.46875 41.1875 3.015625 
Q 35.15625 -1.421875 24.609375 -1.421875 
Q 20.21875 -1.421875 15.453125 -0.5625 
Q 10.6875 0.296875 5.421875 2 
L 5.421875 11.28125 
Q 10.40625 8.6875 15.234375 7.390625 
Q 20.0625 6.109375 24.8125 6.109375 
Q 31.15625 6.109375 34.5625 8.28125 
Q 37.984375 10.453125 37.984375 14.40625 
Q 37.984375 18.0625 35.515625 20.015625 
Q 33.0625 21.96875 24.703125 23.78125 
L 21.578125 24.515625 
Q 13.234375 26.265625 9.515625 29.90625 
Q 5.8125 33.546875 5.8125 39.890625 
Q 5.8125 47.609375 11.28125 51.796875 
Q 16.75 56 26.8125 56 
Q 31.78125 56 36.171875 55.265625 
Q 40.578125 54.546875 44.28125 53.078125 
z
" id="DejaVuSans-115"/>
      <path d="M 9.421875 75.984375 
L 18.40625 75.984375 
L 18.40625 0 
L 9.421875 0 
z
" id="DejaVuSans-108"/>
      <path d="M 9.421875 54.6875 
L 18.40625 54.6875 
L 18.40625 0 
L 9.421875 0 
z
M 9.421875 75.984375 
L 18.40625 75.984375 
L 18.40625 64.59375 
L 9.421875 64.59375 
z
" id="DejaVuSans-105"/>
      <path d="M 54.890625 33.015625 
L 54.890625 0 
L 45.90625 0 
L 45.90625 32.71875 
Q 45.90625 40.484375 42.875 44.328125 
Q 39.84375 48.1875 33.796875 48.1875 
Q 26.515625 48.1875 22.3125 43.546875 
Q 18.109375 38.921875 18.109375 30.90625 
L 18.109375 0 
L 9.078125 0 
L 9.078125 54.6875 
L 18.109375 54.6875 
L 18.109375 46.1875 
Q 21.34375 51.125 25.703125 53.5625 
Q 30.078125 56 35.796875 56 
Q 45.21875 56 50.046875 50.171875 
Q 54.890625 44.34375 54.890625 33.015625 
z
" id="DejaVuSans-110"/>
     </defs>
     <g transform="translate(521.882812 131.62125)scale(0.1 -0.1)">
      <use xlink:href="#DejaVuSans-66"/>
      <use x="68.603516" xlink:href="#DejaVuSans-97"/>
      <use x="129.882812" xlink:href="#DejaVuSans-115"/>
      <use x="181.982422" xlink:href="#DejaVuSans-101"/>
      <use x="243.505859" xlink:href="#DejaVuSans-108"/>
      <use x="271.289062" xlink:href="#DejaVuSans-105"/>
      <use x="299.072266" xlink:href="#DejaVuSans-110"/>
      <use x="362.451172" xlink:href="#DejaVuSans-101"/>
     </g>
    </g>
    <g id="line2d_19">
     <path d="M 493.882812 142.799375 
L 513.882812 142.799375 
" style="fill:none;stroke:#1f77b4;stroke-linecap:square;stroke-width:1.5;"/>
    </g>
    <g id="line2d_20"/>
    <g id="text_15">
     <!-- $\Uparrow$ acesso crdito -->
     <defs>
      <path d="M 36.765625 58.59375 
L 36.765625 0 
L 30.90625 0 
L 30.90625 52.734375 
L 26.421875 48.140625 
L 20.5625 54 
L 39.703125 73.25 
L 44.09375 73.25 
L 63.328125 54 
L 57.46875 48.140625 
L 52.875 52.734375 
L 52.875 0 
L 47.015625 0 
L 47.015625 58.59375 
L 41.9375 63.671875 
z
" id="DejaVuSans-8657"/>
      <path id="DejaVuSans-32"/>
      <path d="M 48.78125 52.59375 
L 48.78125 44.1875 
Q 44.96875 46.296875 41.140625 47.34375 
Q 37.3125 48.390625 33.40625 48.390625 
Q 24.65625 48.390625 19.8125 42.84375 
Q 14.984375 37.3125 14.984375 27.296875 
Q 14.984375 17.28125 19.8125 11.734375 
Q 24.65625 6.203125 33.40625 6.203125 
Q 37.3125 6.203125 41.140625 7.25 
Q 44.96875 8.296875 48.78125 10.40625 
L 48.78125 2.09375 
Q 45.015625 0.34375 40.984375 -0.53125 
Q 36.96875 -1.421875 32.421875 -1.421875 
Q 20.0625 -1.421875 12.78125 6.34375 
Q 5.515625 14.109375 5.515625 27.296875 
Q 5.515625 40.671875 12.859375 48.328125 
Q 20.21875 56 33.015625 56 
Q 37.15625 56 41.109375 55.140625 
Q 45.0625 54.296875 48.78125 52.59375 
z
" id="DejaVuSans-99"/>
      <path d="M 56.203125 29.59375 
L 56.203125 25.203125 
L 14.890625 25.203125 
Q 15.484375 15.921875 20.484375 11.0625 
Q 25.484375 6.203125 34.421875 6.203125 
Q 39.59375 6.203125 44.453125 7.46875 
Q 49.3125 8.734375 54.109375 11.28125 
L 54.109375 2.78125 
Q 49.265625 0.734375 44.1875 -0.34375 
Q 39.109375 -1.421875 33.890625 -1.421875 
Q 20.796875 -1.421875 13.15625 6.1875 
Q 5.515625 13.8125 5.515625 26.8125 
Q 5.515625 40.234375 12.765625 48.109375 
Q 20.015625 56 32.328125 56 
Q 43.359375 56 49.78125 48.890625 
Q 56.203125 41.796875 56.203125 29.59375 
z
M 47.21875 32.234375 
Q 47.125 39.59375 43.09375 43.984375 
Q 39.0625 48.390625 32.421875 48.390625 
Q 24.90625 48.390625 20.390625 44.140625 
Q 15.875 39.890625 15.1875 32.171875 
z
M 38.53125 79.984375 
L 48.25 79.984375 
L 32.34375 61.625 
L 24.859375 61.625 
z
" id="DejaVuSans-233"/>
      <path d="M 45.40625 46.390625 
L 45.40625 75.984375 
L 54.390625 75.984375 
L 54.390625 0 
L 45.40625 0 
L 45.40625 8.203125 
Q 42.578125 3.328125 38.25 0.953125 
Q 33.9375 -1.421875 27.875 -1.421875 
Q 17.96875 -1.421875 11.734375 6.484375 
Q 5.515625 14.40625 5.515625 27.296875 
Q 5.515625 40.1875 11.734375 48.09375 
Q 17.96875 56 27.875 56 
Q 33.9375 56 38.25 53.625 
Q 42.578125 51.265625 45.40625 46.390625 
z
M 14.796875 27.296875 
Q 14.796875 17.390625 18.875 11.75 
Q 22.953125 6.109375 30.078125 6.109375 
Q 37.203125 6.109375 41.296875 11.75 
Q 45.40625 17.390625 45.40625 27.296875 
Q 45.40625 37.203125 41.296875 42.84375 
Q 37.203125 48.484375 30.078125 48.484375 
Q 22.953125 48.484375 18.875 42.84375 
Q 14.796875 37.203125 14.796875 27.296875 
z
" id="DejaVuSans-100"/>
      <path d="M 18.3125 70.21875 
L 18.3125 54.6875 
L 36.8125 54.6875 
L 36.8125 47.703125 
L 18.3125 47.703125 
L 18.3125 18.015625 
Q 18.3125 11.328125 20.140625 9.421875 
Q 21.96875 7.515625 27.59375 7.515625 
L 36.8125 7.515625 
L 36.8125 0 
L 27.59375 0 
Q 17.1875 0 13.234375 3.875 
Q 9.28125 7.765625 9.28125 18.015625 
L 9.28125 47.703125 
L 2.6875 47.703125 
L 2.6875 54.6875 
L 9.28125 54.6875 
L 9.28125 70.21875 
z
" id="DejaVuSans-116"/>
     </defs>
     <g transform="translate(521.882812 146.299375)scale(0.1 -0.1)">
      <use transform="translate(19.482422 0.015625)" xlink:href="#DejaVuSans-8657"/>
      <use transform="translate(122.753906 0.015625)" xlink:href="#DejaVuSans-32"/>
      <use transform="translate(154.541016 0.015625)" xlink:href="#DejaVuSans-97"/>
      <use transform="translate(215.820312 0.015625)" xlink:href="#DejaVuSans-99"/>
      <use transform="translate(270.800781 0.015625)" xlink:href="#DejaVuSans-101"/>
      <use transform="translate(332.324219 0.015625)" xlink:href="#DejaVuSans-115"/>
      <use transform="translate(384.423828 0.015625)" xlink:href="#DejaVuSans-115"/>
      <use transform="translate(436.523438 0.015625)" xlink:href="#DejaVuSans-111"/>
      <use transform="translate(497.705078 0.015625)" xlink:href="#DejaVuSans-32"/>
      <use transform="translate(529.492188 0.015625)" xlink:href="#DejaVuSans-99"/>
      <use transform="translate(584.472656 0.015625)" xlink:href="#DejaVuSans-114"/>
      <use transform="translate(625.585938 0.015625)" xlink:href="#DejaVuSans-233"/>
      <use transform="translate(687.109375 0.015625)" xlink:href="#DejaVuSans-100"/>
      <use transform="translate(750.585938 0.015625)" xlink:href="#DejaVuSans-105"/>
      <use transform="translate(778.369141 0.015625)" xlink:href="#DejaVuSans-116"/>
      <use transform="translate(817.578125 0.015625)" xlink:href="#DejaVuSans-111"/>
     </g>
    </g>
    <g id="line2d_21">
     <path d="M 493.882812 157.4775 
L 513.882812 157.4775 
" style="fill:none;stroke:#ff7f0e;stroke-linecap:square;stroke-width:1.5;"/>
    </g>
    <g id="line2d_22"/>
    <g id="text_16">
     <!-- Sem renda bsica -->
     <defs>
      <path d="M 53.515625 70.515625 
L 53.515625 60.890625 
Q 47.90625 63.578125 42.921875 64.890625 
Q 37.9375 66.21875 33.296875 66.21875 
Q 25.25 66.21875 20.875 63.09375 
Q 16.5 59.96875 16.5 54.203125 
Q 16.5 49.359375 19.40625 46.890625 
Q 22.3125 44.4375 30.421875 42.921875 
L 36.375 41.703125 
Q 47.40625 39.59375 52.65625 34.296875 
Q 57.90625 29 57.90625 20.125 
Q 57.90625 9.515625 50.796875 4.046875 
Q 43.703125 -1.421875 29.984375 -1.421875 
Q 24.8125 -1.421875 18.96875 -0.25 
Q 13.140625 0.921875 6.890625 3.21875 
L 6.890625 13.375 
Q 12.890625 10.015625 18.65625 8.296875 
Q 24.421875 6.59375 29.984375 6.59375 
Q 38.421875 6.59375 43.015625 9.90625 
Q 47.609375 13.234375 47.609375 19.390625 
Q 47.609375 24.75 44.3125 27.78125 
Q 41.015625 30.8125 33.5 32.328125 
L 27.484375 33.5 
Q 16.453125 35.6875 11.515625 40.375 
Q 6.59375 45.0625 6.59375 53.421875 
Q 6.59375 63.09375 13.40625 68.65625 
Q 20.21875 74.21875 32.171875 74.21875 
Q 37.3125 74.21875 42.625 73.28125 
Q 47.953125 72.359375 53.515625 70.515625 
z
" id="DejaVuSans-83"/>
      <path d="M 48.6875 27.296875 
Q 48.6875 37.203125 44.609375 42.84375 
Q 40.53125 48.484375 33.40625 48.484375 
Q 26.265625 48.484375 22.1875 42.84375 
Q 18.109375 37.203125 18.109375 27.296875 
Q 18.109375 17.390625 22.1875 11.75 
Q 26.265625 6.109375 33.40625 6.109375 
Q 40.53125 6.109375 44.609375 11.75 
Q 48.6875 17.390625 48.6875 27.296875 
z
M 18.109375 46.390625 
Q 20.953125 51.265625 25.265625 53.625 
Q 29.59375 56 35.59375 56 
Q 45.5625 56 51.78125 48.09375 
Q 58.015625 40.1875 58.015625 27.296875 
Q 58.015625 14.40625 51.78125 6.484375 
Q 45.5625 -1.421875 35.59375 -1.421875 
Q 29.59375 -1.421875 25.265625 0.953125 
Q 20.953125 3.328125 18.109375 8.203125 
L 18.109375 0 
L 9.078125 0 
L 9.078125 75.984375 
L 18.109375 75.984375 
z
" id="DejaVuSans-98"/>
      <path d="M 34.28125 27.484375 
Q 23.390625 27.484375 19.1875 25 
Q 14.984375 22.515625 14.984375 16.5 
Q 14.984375 11.71875 18.140625 8.90625 
Q 21.296875 6.109375 26.703125 6.109375 
Q 34.1875 6.109375 38.703125 11.40625 
Q 43.21875 16.703125 43.21875 25.484375 
L 43.21875 27.484375 
z
M 52.203125 31.203125 
L 52.203125 0 
L 43.21875 0 
L 43.21875 8.296875 
Q 40.140625 3.328125 35.546875 0.953125 
Q 30.953125 -1.421875 24.3125 -1.421875 
Q 15.921875 -1.421875 10.953125 3.296875 
Q 6 8.015625 6 15.921875 
Q 6 25.140625 12.171875 29.828125 
Q 18.359375 34.515625 30.609375 34.515625 
L 43.21875 34.515625 
L 43.21875 35.40625 
Q 43.21875 41.609375 39.140625 45 
Q 35.0625 48.390625 27.6875 48.390625 
Q 23 48.390625 18.546875 47.265625 
Q 14.109375 46.140625 10.015625 43.890625 
L 10.015625 52.203125 
Q 14.9375 54.109375 19.578125 55.046875 
Q 24.21875 56 28.609375 56 
Q 40.484375 56 46.34375 49.84375 
Q 52.203125 43.703125 52.203125 31.203125 
z
M 35.78125 79.984375 
L 45.5 79.984375 
L 29.59375 61.625 
L 22.109375 61.625 
z
" id="DejaVuSans-225"/>
     </defs>
     <g transform="translate(521.882812 160.9775)scale(0.1 -0.1)">
      <use xlink:href="#DejaVuSans-83"/>
      <use x="63.476562" xlink:href="#DejaVuSans-101"/>
      <use x="125" xlink:href="#DejaVuSans-109"/>
      <use x="222.412109" xlink:href="#DejaVuSans-32"/>
      <use x="254.199219" xlink:href="#DejaVuSans-114"/>
      <use x="293.0625" xlink:href="#DejaVuSans-101"/>
      <use x="354.585938" xlink:href="#DejaVuSans-110"/>
      <use x="417.964844" xlink:href="#DejaVuSans-100"/>
      <use x="481.441406" xlink:href="#DejaVuSans-97"/>
      <use x="542.720703" xlink:href="#DejaVuSans-32"/>
      <use x="574.507812" xlink:href="#DejaVuSans-98"/>
      <use x="637.984375" xlink:href="#DejaVuSans-225"/>
      <use x="699.263672" xlink:href="#DejaVuSans-115"/>
      <use x="751.363281" xlink:href="#DejaVuSans-105"/>
      <use x="779.146484" xlink:href="#DejaVuSans-99"/>
      <use x="834.126953" xlink:href="#DejaVuSans-97"/>
     </g>
    </g>
    <g id="line2d_23">
     <path d="M 493.882812 172.155625 
L 513.882812 172.155625 
" style="fill:none;stroke:#2ca02c;stroke-linecap:square;stroke-width:1.5;"/>
    </g>
    <g id="line2d_24"/>
    <g id="text_17">
     <!-- $\Uparrow$ salrio mnimo -->
     <defs>
      <path d="M 20.65625 79.984375 
L 30.375 79.984375 
L 14.46875 61.625 
L 6.984375 61.625 
z
M 9.421875 54.6875 
L 18.40625 54.6875 
L 18.40625 0 
L 9.421875 0 
z
M 13.921875 56 
z
" id="DejaVuSans-237"/>
     </defs>
     <g transform="translate(521.882812 175.655625)scale(0.1 -0.1)">
      <use transform="translate(19.482422 0.015625)" xlink:href="#DejaVuSans-8657"/>
      <use transform="translate(122.753906 0.015625)" xlink:href="#DejaVuSans-32"/>
      <use transform="translate(154.541016 0.015625)" xlink:href="#DejaVuSans-115"/>
      <use transform="translate(206.640625 0.015625)" xlink:href="#DejaVuSans-97"/>
      <use transform="translate(267.919922 0.015625)" xlink:href="#DejaVuSans-108"/>
      <use transform="translate(295.703125 0.015625)" xlink:href="#DejaVuSans-225"/>
      <use transform="translate(356.982422 0.015625)" xlink:href="#DejaVuSans-114"/>
      <use transform="translate(398.095703 0.015625)" xlink:href="#DejaVuSans-105"/>
      <use transform="translate(425.878906 0.015625)" xlink:href="#DejaVuSans-111"/>
      <use transform="translate(487.060547 0.015625)" xlink:href="#DejaVuSans-32"/>
      <use transform="translate(518.847656 0.015625)" xlink:href="#DejaVuSans-109"/>
      <use transform="translate(616.259766 0.015625)" xlink:href="#DejaVuSans-237"/>
      <use transform="translate(644.042969 0.015625)" xlink:href="#DejaVuSans-110"/>
      <use transform="translate(707.421875 0.015625)" xlink:href="#DejaVuSans-105"/>
      <use transform="translate(735.205078 0.015625)" xlink:href="#DejaVuSans-109"/>
      <use transform="translate(832.617188 0.015625)" xlink:href="#DejaVuSans-111"/>
     </g>
    </g>
    <g id="line2d_25">
     <path d="M 493.882812 186.83375 
L 513.882812 186.83375 
" style="fill:none;stroke:#d62728;stroke-linecap:square;stroke-width:1.5;"/>
    </g>
    <g id="line2d_26"/>
    <g id="text_18">
     <!-- Imposto progressivo -->
     <defs>
      <path d="M 9.8125 72.90625 
L 19.671875 72.90625 
L 19.671875 0 
L 9.8125 0 
z
" id="DejaVuSans-73"/>
      <path d="M 45.40625 27.984375 
Q 45.40625 37.75 41.375 43.109375 
Q 37.359375 48.484375 30.078125 48.484375 
Q 22.859375 48.484375 18.828125 43.109375 
Q 14.796875 37.75 14.796875 27.984375 
Q 14.796875 18.265625 18.828125 12.890625 
Q 22.859375 7.515625 30.078125 7.515625 
Q 37.359375 7.515625 41.375 12.890625 
Q 45.40625 18.265625 45.40625 27.984375 
z
M 54.390625 6.78125 
Q 54.390625 -7.171875 48.1875 -13.984375 
Q 42 -20.796875 29.203125 -20.796875 
Q 24.46875 -20.796875 20.265625 -20.09375 
Q 16.0625 -19.390625 12.109375 -17.921875 
L 12.109375 -9.1875 
Q 16.0625 -11.328125 19.921875 -12.34375 
Q 23.78125 -13.375 27.78125 -13.375 
Q 36.625 -13.375 41.015625 -8.765625 
Q 45.40625 -4.15625 45.40625 5.171875 
L 45.40625 9.625 
Q 42.625 4.78125 38.28125 2.390625 
Q 33.9375 0 27.875 0 
Q 17.828125 0 11.671875 7.65625 
Q 5.515625 15.328125 5.515625 27.984375 
Q 5.515625 40.671875 11.671875 48.328125 
Q 17.828125 56 27.875 56 
Q 33.9375 56 38.28125 53.609375 
Q 42.625 51.21875 45.40625 46.390625 
L 45.40625 54.6875 
L 54.390625 54.6875 
z
" id="DejaVuSans-103"/>
      <path d="M 2.984375 54.6875 
L 12.5 54.6875 
L 29.59375 8.796875 
L 46.6875 54.6875 
L 56.203125 54.6875 
L 35.6875 0 
L 23.484375 0 
z
" id="DejaVuSans-118"/>
     </defs>
     <g transform="translate(521.882812 190.33375)scale(0.1 -0.1)">
      <use xlink:href="#DejaVuSans-73"/>
      <use x="29.492188" xlink:href="#DejaVuSans-109"/>
      <use x="126.904297" xlink:href="#DejaVuSans-112"/>
      <use x="190.380859" xlink:href="#DejaVuSans-111"/>
      <use x="251.5625" xlink:href="#DejaVuSans-115"/>
      <use x="303.662109" xlink:href="#DejaVuSans-116"/>
      <use x="342.871094" xlink:href="#DejaVuSans-111"/>
      <use x="404.052734" xlink:href="#DejaVuSans-32"/>
      <use x="435.839844" xlink:href="#DejaVuSans-112"/>
      <use x="499.316406" xlink:href="#DejaVuSans-114"/>
      <use x="538.179688" xlink:href="#DejaVuSans-111"/>
      <use x="599.361328" xlink:href="#DejaVuSans-103"/>
      <use x="662.837891" xlink:href="#DejaVuSans-114"/>
      <use x="701.701172" xlink:href="#DejaVuSans-101"/>
      <use x="763.224609" xlink:href="#DejaVuSans-115"/>
      <use x="815.324219" xlink:href="#DejaVuSans-115"/>
      <use x="867.423828" xlink:href="#DejaVuSans-105"/>
      <use x="895.207031" xlink:href="#DejaVuSans-118"/>
      <use x="954.386719" xlink:href="#DejaVuSans-111"/>
     </g>
    </g>
   </g>
  </g>
 </g>
 <defs>
  <clipPath id="pe8b8769b0e">
   <rect height="271.8" width="446.4" x="38.482813" y="22.318125"/>
  </clipPath>
 </defs>
</svg>
